<svg version="1.0" xmlns="http://www.w3.org/2000/svg"
 width="71.000000pt" height="112.000000pt" viewBox="0 0 71.000000 112.000000"
 preserveAspectRatio="xMidYMid meet">
<metadata>
Created by potrace 1.15, written by Peter Selinger 2001-2017
</metadata>
<g transform="translate(0.000000,112.000000) scale(0.100000,-0.100000)"
fill="#000000" stroke="none">
<path d="M540 1090 c0 -11 5 -19 11 -17 6 1 13 -19 15 -49 5 -56 -10 -84 -46
-84 -17 0 -20 9 -22 77 -4 92 -22 108 -26 22 -3 -69 -15 -101 -37 -93 -16 7
-34 58 -32 93 1 13 -4 26 -10 28 -9 3 -13 -7 -14 -29 -5 -93 9 -128 50 -128
25 0 34 -14 35 -59 1 -25 6 -37 17 -39 13 -2 18 8 24 47 4 28 12 52 18 52 7 1
22 3 33 4 39 4 44 14 44 85 0 51 -4 69 -15 74 -8 3 -15 12 -15 21 0 8 -7 15
-15 15 -8 0 -15 -9 -15 -20z"/>
<path d="M190 1031 c0 -39 -4 -72 -9 -75 -20 -13 -41 7 -41 38 -1 17 -7 42
-14 55 -13 24 -14 24 -21 -18 -9 -54 7 -92 48 -112 28 -14 32 -21 35 -60 4
-63 9 -74 27 -59 10 8 15 30 15 61 0 48 1 48 40 60 43 13 47 20 52 94 2 40 0
50 -14 53 -12 2 -18 -7 -23 -40 -10 -68 -15 -78 -36 -78 -16 0 -19 8 -20 50
-1 28 -3 55 -4 60 -1 6 -3 17 -4 25 0 8 -8 15 -16 15 -12 0 -15 -14 -15 -69z"/>
<path d="M394 804 c-4 -15 -4 -69 -1 -120 6 -94 6 -94 -53 -94 -41 0 -60 4
-61 13 -4 114 -3 131 16 141 33 19 45 34 45 55 0 12 -6 21 -15 21 -12 0 -70
-33 -100 -58 -6 -5 -38 -23 -72 -41 -59 -32 -81 -55 -64 -66 12 -7 72 14 93
33 30 25 48 8 48 -46 0 -49 0 -50 -38 -59 -21 -6 -63 -8 -94 -5 -44 3 -56 1
-61 -12 -11 -28 25 -37 104 -25 82 13 88 9 96 -50 5 -36 2 -44 -24 -68 -16
-16 -43 -35 -59 -43 -16 -8 -33 -19 -39 -23 -5 -4 -31 -21 -58 -37 -26 -16
-47 -35 -47 -42 0 -9 3 -8 11 2 8 11 12 12 16 3 8 -22 30 -14 107 37 41 28 78
50 81 50 4 0 4 -79 0 -175 -8 -179 -5 -193 29 -159 13 12 16 38 16 118 0 57 3
137 6 178 7 74 7 75 45 99 45 27 52 59 15 59 -14 0 -28 -4 -31 -10 -13 -22
-25 -8 -25 30 0 40 0 40 58 40 53 0 60 -2 70 -25 7 -14 12 -30 12 -34 0 -5 8
-26 17 -47 14 -32 17 -71 18 -214 0 -138 3 -180 15 -198 8 -12 22 -21 30 -19
15 3 16 12 7 53 -12 48 -17 240 -8 253 8 12 21 3 66 -42 57 -57 91 -75 120
-63 22 8 18 36 -5 36 -11 0 -20 4 -20 9 0 5 -9 12 -20 16 -21 7 -120 100 -120
113 0 11 35 48 56 60 11 6 14 16 10 30 -11 33 -32 33 -66 0 -27 -25 -34 -28
-46 -17 -7 8 -15 30 -16 49 -3 35 -3 35 100 36 56 0 105 4 109 8 4 3 -2 13
-13 21 -13 10 -47 14 -116 15 -98 0 -98 0 -98 44 0 48 10 56 82 56 35 0 38 3
49 41 9 28 10 46 3 57 -19 29 -33 24 -45 -17 -11 -39 -14 -41 -51 -41 -23 0
-39 5 -39 13 -1 6 -3 23 -4 37 -1 14 -3 31 -4 38 -2 23 -31 12 -37 -14z"/>
</g>
</svg>
