<svg version="1.0" xmlns="http://www.w3.org/2000/svg"
 width="72.000000pt" height="89.000000pt" viewBox="0 0 72.000000 89.000000"
 preserveAspectRatio="xMidYMid meet">
<metadata>
Created by potrace 1.15, written by Peter Selinger 2001-2017
</metadata>
<g transform="translate(0.000000,89.000000) scale(0.100000,-0.100000)"
fill="#000000" stroke="none">
<path d="M437 773 c-4 -3 -7 -19 -7 -34 0 -22 -8 -31 -47 -50 -26 -13 -55 -35
-65 -49 -27 -37 -44 -140 -31 -194 9 -42 -6 -289 -23 -358 -5 -22 -3 -28 10
-28 35 0 47 84 50 360 2 140 5 169 20 193 10 15 19 27 20 27 1 0 26 9 56 20
54 20 54 20 97 -1 26 -13 45 -29 48 -42 2 -12 6 -110 9 -217 5 -197 10 -232
49 -297 22 -39 52 -45 44 -10 -3 12 -12 54 -21 92 -11 43 -19 135 -22 240 -4
133 -8 177 -22 205 -19 40 -74 80 -108 80 -21 0 -24 5 -24 35 0 33 -16 46 -33
28z"/>
<path d="M95 619 c-21 -19 -39 -47 -46 -72 -15 -57 -16 -183 -1 -232 16 -52
58 -103 72 -89 8 8 3 24 -15 55 -47 82 -18 136 39 74 21 -23 46 -33 46 -20 0
4 -7 19 -15 36 -17 33 -57 53 -86 44 -16 -5 -19 -1 -19 27 0 46 14 58 53 47
17 -5 35 -13 41 -19 14 -14 26 -13 26 3 0 21 -31 44 -67 52 -39 8 -41 18 -8
50 35 36 70 33 91 -7 24 -47 14 -182 -21 -268 -60 -148 -60 -150 -28 -203 17
-29 35 -47 47 -47 20 0 19 2 -7 74 -15 40 -9 74 28 176 32 85 37 200 11 278
-27 80 -79 95 -141 41z"/>
<path d="M445 615 c-5 -2 -22 -6 -37 -9 -49 -11 -30 -26 31 -26 68 0 91 6 91
26 0 10 -12 14 -37 13 -21 0 -42 -2 -48 -4z"/>
<path d="M465 543 c-75 -6 -105 -14 -105 -27 0 -8 7 -16 15 -20 8 -3 15 -17
15 -31 0 -14 9 -33 20 -42 15 -13 20 -30 20 -66 0 -57 -22 -62 -30 -6 -3 21
-11 34 -20 34 -11 0 -14 -10 -11 -40 4 -52 17 -75 41 -75 11 0 20 -7 20 -15 0
-10 -10 -15 -32 -15 -18 0 -39 -4 -47 -9 -23 -15 -2 -31 39 -31 39 0 39 0 42
-72 2 -60 6 -73 21 -76 15 -3 17 6 17 77 0 81 0 81 33 81 17 0 39 5 47 10 13
9 13 11 0 20 -8 5 -30 10 -47 10 -38 0 -43 12 -10 27 32 15 62 74 53 107 -9
38 -30 27 -37 -18 -6 -34 -21 -55 -41 -56 -5 0 -8 23 -8 50 0 39 4 50 16 50 9
0 25 23 40 55 14 30 30 57 35 60 15 10 0 25 -24 23 -12 -1 -40 -3 -62 -5z m20
-43 c8 -13 -13 -50 -29 -50 -20 0 -39 27 -32 45 6 17 51 21 61 5z"/>
</g>
</svg>
