<svg version="1.0" xmlns="http://www.w3.org/2000/svg"
 width="70.000000pt" height="94.000000pt" viewBox="0 0 70.000000 94.000000"
 preserveAspectRatio="xMidYMid meet">
<metadata>
Created by potrace 1.15, written by Peter Selinger 2001-2017
</metadata>
<g transform="translate(0.000000,94.000000) scale(0.100000,-0.100000)"
fill="#000000" stroke="none">
<path d="M442 692 c-10 -28 -11 -28 -96 -30 -68 0 -88 2 -95 15 -10 18 -31 9
-31 -13 0 -9 -11 -14 -32 -14 -18 0 -40 -5 -48 -10 -24 -16 8 -32 50 -26 33 5
36 3 53 -38 10 -23 31 -53 47 -65 30 -22 30 -22 30 -171 0 -169 8 -154 -96
-165 -119 -13 -112 -42 11 -47 80 -3 80 -3 89 -51 5 -26 13 -47 17 -47 8 0 19
37 19 68 0 26 32 42 88 42 45 0 82 9 82 20 0 5 -36 12 -80 16 -79 7 -79 7 -82
164 -3 158 -3 158 29 176 36 19 59 48 68 87 4 16 17 28 37 33 36 11 38 28 4
32 -16 2 -26 11 -30 28 -8 32 -22 30 -34 -4z m-22 -75 c0 -7 -11 -25 -25 -40
-35 -37 -86 -38 -105 -2 -18 34 -7 43 60 48 30 2 58 4 63 5 4 1 7 -4 7 -11z"/>
<path d="M486 525 c-9 -13 -16 -42 -16 -64 0 -33 -5 -43 -30 -61 -16 -12 -30
-26 -30 -31 0 -15 36 -10 50 6 15 18 60 20 60 2 0 -7 -20 -28 -45 -47 -69 -52
-52 -73 19 -25 44 30 46 30 39 5 -3 -11 -21 -33 -39 -50 -19 -16 -34 -32 -34
-35 0 -11 33 -4 58 13 15 10 35 22 45 25 52 19 42 112 -19 171 -31 30 -34 38
-29 69 8 43 -7 55 -29 22z"/>
<path d="M177 470 c-3 -22 -19 -60 -35 -85 -43 -64 -49 -111 -21 -141 19 -20
73 -44 102 -44 15 0 6 31 -10 37 -29 10 -63 45 -63 64 0 28 18 32 49 10 16
-12 34 -21 40 -21 18 0 13 28 -7 42 -17 12 -42 49 -42 62 0 12 37 6 56 -9 41
-31 47 -8 9 37 -14 16 -25 37 -25 47 0 20 -19 41 -36 41 -6 0 -14 -18 -17 -40z"/>
</g>
</svg>
