<svg version="1.0" xmlns="http://www.w3.org/2000/svg"
 width="67.000000pt" height="84.000000pt" viewBox="0 0 67.000000 84.000000"
 preserveAspectRatio="xMidYMid meet">
<metadata>
Created by potrace 1.15, written by Peter Selinger 2001-2017
</metadata>
<g transform="translate(0.000000,84.000000) scale(0.100000,-0.100000)"
fill="#000000" stroke="none">
<path d="M275 790 c-3 -6 -3 -19 0 -30 4 -12 -3 -33 -19 -57 -14 -21 -26 -43
-26 -49 0 -16 44 -54 63 -54 24 0 21 11 -10 36 -17 14 -24 26 -20 37 8 21 40
22 57 2 15 -18 50 -20 50 -2 0 7 -14 21 -31 31 -24 14 -29 23 -25 41 11 41
-20 76 -39 45z"/>
<path d="M530 715 c-6 -8 -9 -19 -5 -25 13 -21 -6 -28 -35 -12 -45 26 -48 6
-6 -37 27 -27 37 -45 32 -57 -6 -15 -8 -16 -24 0 -10 9 -24 16 -30 16 -24 0
-11 -29 26 -58 28 -23 34 -33 26 -42 -9 -9 -17 -9 -32 -1 -44 23 -58 4 -20
-27 12 -9 33 -28 46 -41 24 -22 26 -23 39 -5 9 12 13 52 13 123 0 58 3 123 6
144 5 29 3 37 -8 37 -9 0 -21 -7 -28 -15z"/>
<path d="M87 693 c-8 -13 -12 -281 -5 -289 9 -8 28 5 28 19 0 7 18 20 40 29
68 28 46 49 -24 22 -12 -5 -16 0 -16 19 0 18 8 28 30 37 17 7 30 17 30 22 0 6
-13 8 -30 5 -25 -6 -30 -3 -30 13 0 13 12 26 35 37 46 22 45 37 -1 28 -35 -6
-36 -5 -30 18 6 24 -17 57 -27 40z"/>
<path d="M383 611 c-3 -11 -15 -22 -26 -25 -37 -10 -106 -7 -127 6 -27 17 -32
7 -21 -43 12 -52 32 -69 83 -69 64 0 105 23 111 61 3 19 9 46 12 62 6 21 4 27
-10 27 -9 0 -19 -9 -22 -19z m-13 -68 c-1 -25 -20 -34 -66 -31 -37 2 -50 7
-52 21 -3 15 5 17 57 17 34 0 61 -3 61 -7z"/>
<path d="M263 453 c-80 -4 -109 -18 -61 -31 21 -5 21 -6 -7 -28 -33 -26 -29
-40 9 -30 14 3 30 19 38 36 18 41 40 40 36 -2 -2 -27 -8 -33 -34 -39 -17 -3
-36 -9 -44 -14 -18 -11 -6 -82 20 -118 20 -27 21 -30 6 -45 -14 -15 -19 -13
-50 17 -25 24 -36 45 -41 80 -9 57 -13 65 -30 51 -8 -7 -11 -25 -7 -55 4 -37
0 -52 -22 -85 -14 -22 -26 -44 -26 -50 0 -16 30 -12 36 5 11 28 41 37 67 20
13 -8 27 -12 30 -8 4 3 7 -15 7 -40 0 -68 23 -87 101 -87 56 0 64 3 95 34 24
24 34 43 34 65 0 30 -6 38 -45 66 -18 12 -19 15 -4 27 45 36 64 109 37 136 -9
9 -8 12 5 12 9 0 17 7 17 15 0 8 -9 15 -20 15 -23 0 -27 25 -5 34 29 11 15 26
-22 24 -21 -1 -75 -4 -120 -5z m98 -54 c28 -30 28 -30 -9 -27 -32 3 -37 7 -40
31 -4 36 13 35 49 -4z m19 -74 c0 -10 -11 -15 -35 -15 -24 0 -35 5 -35 15 0
10 11 15 35 15 24 0 35 -5 35 -15z m-105 -5 c-3 -5 -15 -10 -26 -10 -10 0 -19
5 -19 10 0 6 12 10 26 10 14 0 23 -4 19 -10z m93 -42 c-3 -8 -28 -14 -65 -16
-47 -2 -62 1 -66 13 -5 13 5 15 64 15 52 0 70 -3 67 -12z m-38 -53 c0 -16 -55
-22 -64 -6 -8 13 5 21 36 21 18 0 28 -5 28 -15z m-42 -72 c-2 -11 -14 -19 -31
-21 -30 -4 -36 12 -9 27 26 16 44 13 40 -6z m87 -3 c0 -9 -11 -16 -27 -18 -23
-3 -26 0 -21 18 7 24 48 25 48 0z m-89 -61 c3 -6 2 -15 -4 -21 -11 -11 -52 6
-52 22 0 14 47 13 56 -1z m84 3 c0 -12 -23 -32 -37 -32 -7 0 -13 9 -13 20 0
15 7 20 25 20 14 0 25 -4 25 -8z"/>
<path d="M473 368 c-6 -7 -11 -30 -11 -51 -1 -23 -11 -50 -27 -71 -14 -18 -25
-38 -25 -44 0 -15 26 -16 35 -2 9 15 46 12 66 -6 20 -18 49 -12 49 10 0 8 -13
24 -30 36 -28 20 -30 26 -30 81 0 58 -8 71 -27 47z"/>
</g>
</svg>
