<svg version="1.0" xmlns="http://www.w3.org/2000/svg"
 width="67.000000pt" height="88.000000pt" viewBox="0 0 67.000000 88.000000"
 preserveAspectRatio="xMidYMid meet">
<metadata>
Created by potrace 1.15, written by Peter Selinger 2001-2017
</metadata>
<g transform="translate(0.000000,88.000000) scale(0.100000,-0.100000)"
fill="#000000" stroke="none">
<path d="M304 776 c-3 -9 -4 -22 -1 -30 7 -18 -9 -31 -46 -40 -16 -4 -40 -18
-54 -32 -20 -20 -28 -23 -34 -12 -5 7 -9 18 -9 25 0 7 -9 17 -20 23 -30 16
-48 -27 -30 -71 25 -59 116 -78 265 -54 118 19 138 33 139 97 1 36 -2 43 -19
43 -13 0 -21 -9 -25 -31 -4 -17 -10 -36 -14 -42 -10 -16 -104 80 -108 110 -4
27 -35 36 -44 14z m76 -116 c14 -10 22 -22 18 -25 -3 -4 -41 -11 -83 -17 -57
-8 -80 -7 -88 2 -9 8 -8 13 3 20 8 5 24 16 35 24 28 21 85 19 115 -4z"/>
<path d="M471 562 c-9 -16 -26 -18 -162 -19 -148 -1 -180 -8 -164 -33 6 -9 29
-11 81 -7 76 6 84 2 84 -43 0 -13 -13 -21 -49 -31 -32 -8 -64 -26 -95 -55 -46
-42 -46 -42 -46 -116 0 -41 -5 -100 -11 -131 -11 -51 -10 -60 6 -77 34 -38 45
-9 45 116 0 132 13 171 69 202 52 29 104 37 120 18 7 -8 36 -22 65 -30 85 -25
90 -35 91 -188 1 -137 8 -160 39 -116 21 30 23 223 2 273 -14 32 -65 65 -102
65 -7 0 -25 5 -41 11 -34 13 -20 23 44 34 49 8 68 27 77 78 10 57 -29 93 -53
49z m-7 -61 c7 -11 -29 -35 -65 -44 -30 -8 -55 13 -45 38 6 17 100 22 110 6z"/>
<path d="M317 323 c-4 -3 -7 -19 -7 -35 0 -35 -31 -39 -54 -7 -15 23 -46 20
-46 -3 0 -33 31 -58 71 -58 26 0 39 -4 39 -14 0 -9 -17 -15 -55 -18 -30 -3
-58 -7 -61 -11 -15 -15 12 -27 62 -27 30 0 54 -4 54 -8 0 -19 -27 -32 -64 -32
-47 0 -72 -12 -61 -30 5 -8 23 -10 60 -5 53 6 54 6 57 -22 4 -38 31 -41 45 -4
9 25 17 30 49 33 27 2 40 8 42 21 3 14 -4 17 -43 17 -39 0 -46 3 -43 18 2 12
15 18 46 20 61 5 57 30 -5 34 -36 2 -49 7 -51 21 -3 13 4 17 32 17 54 0 88 50
53 79 -16 13 -27 5 -27 -21 0 -12 -7 -18 -24 -18 -18 0 -25 7 -29 30 -6 28
-25 39 -40 23z"/>
</g>
</svg>
