<svg version="1.0" xmlns="http://www.w3.org/2000/svg"
 width="67.000000pt" height="71.000000pt" viewBox="0 0 67.000000 71.000000"
 preserveAspectRatio="xMidYMid meet">
<metadata>
Created by potrace 1.15, written by Peter Selinger 2001-2017
</metadata>
<g transform="translate(0.000000,71.000000) scale(0.100000,-0.100000)"
fill="#000000" stroke="none">
<path d="M377 573 c-4 -3 -7 -20 -7 -37 0 -19 -14 -52 -35 -84 -43 -63 -52
-100 -31 -127 15 -19 15 -18 16 18 0 51 43 98 67 74 19 -18 12 -43 -24 -83
-59 -66 -78 -135 -49 -179 20 -30 40 -31 84 -5 30 19 33 24 30 63 -2 30 -8 43
-20 45 -13 2 -16 -1 -12 -12 3 -9 3 -28 0 -42 -5 -20 -12 -25 -34 -22 -22 2
-28 9 -30 34 -2 24 4 38 28 60 34 32 80 105 80 127 0 7 -11 24 -25 37 -15 14
-21 27 -16 34 30 39 10 131 -22 99z"/>
<path d="M534 543 c-3 -16 -17 -52 -30 -81 -28 -61 -30 -92 -8 -133 14 -28 14
-34 -6 -86 -19 -50 -19 -58 -6 -78 30 -46 85 -38 120 18 12 19 -9 67 -33 75
-11 4 -12 -3 -7 -31 6 -30 3 -38 -13 -46 -15 -8 -23 -7 -35 5 -9 8 -16 18 -16
21 0 14 44 75 80 111 43 43 49 65 24 100 -23 33 -45 29 -38 -8 7 -34 -13 -93
-30 -87 -20 6 -18 81 4 131 21 50 27 116 10 116 -5 0 -12 -12 -16 -27z"/>
<path d="M165 527 c4 -19 -1 -67 -12 -113 -32 -141 -19 -277 37 -364 16 -25
21 -4 9 41 -28 109 -33 198 -15 287 24 126 21 182 -11 182 -10 0 -12 -8 -8
-33z"/>
<path d="M250 500 c0 -27 -7 -51 -20 -67 -26 -33 -20 -39 19 -19 35 18 49 56
35 94 -15 43 -34 39 -34 -8z"/>
<path d="M90 460 c0 -28 -23 -70 -54 -99 -14 -14 -26 -28 -26 -33 0 -19 29 -5
73 35 48 45 60 80 35 105 -18 18 -28 15 -28 -8z"/>
<path d="M226 317 c-23 -61 -21 -134 7 -187 25 -50 53 -68 44 -29 -3 13 -13
44 -22 69 -16 45 -17 119 0 168 14 41 -12 23 -29 -21z"/>
<path d="M59 289 c-18 -34 -7 -160 17 -192 22 -30 50 -37 39 -9 -20 48 -26 90
-23 150 3 70 -11 92 -33 51z"/>
</g>
</svg>
