<svg version="1.0" xmlns="http://www.w3.org/2000/svg"
 width="73.000000pt" height="111.000000pt" viewBox="0 0 73.000000 111.000000"
 preserveAspectRatio="xMidYMid meet">
<metadata>
Created by potrace 1.15, written by Peter Selinger 2001-2017
</metadata>
<g transform="translate(0.000000,111.000000) scale(0.100000,-0.100000)"
fill="#000000" stroke="none">
<path d="M250 1043 c-14 -2 -38 -14 -53 -26 -25 -20 -27 -30 -33 -119 -7 -98
-7 -98 -70 -98 -58 0 -64 -2 -64 -21 0 -19 5 -20 63 -18 62 2 62 2 59 -94 -1
-53 0 -97 4 -97 3 0 14 5 25 10 17 9 19 20 16 90 -1 43 1 82 6 86 4 4 30 9 57
10 57 4 73 10 67 27 -2 7 -28 12 -63 12 -59 0 -59 0 -56 85 4 89 8 96 54 106
15 4 29 13 32 21 6 16 -1 34 -12 32 -4 -1 -18 -4 -32 -6z"/>
<path d="M30 971 c0 -14 82 -141 91 -141 31 0 9 59 -44 116 -30 34 -47 43 -47
25z"/>
<path d="M273 925 c-13 -19 -23 -41 -23 -48 0 -7 -5 -18 -11 -24 -6 -6 -8 -17
-4 -23 5 -9 14 -5 29 11 28 31 59 96 51 109 -10 17 -19 11 -42 -25z"/>
<path d="M347 954 c-3 -3 -3 -12 0 -20 3 -9 21 -14 53 -14 27 0 51 -4 54 -8 3
-5 -5 -19 -17 -33 -78 -86 -107 -124 -107 -140 0 -38 34 -14 97 69 31 39 49
41 56 5 6 -30 -9 -51 -107 -158 -47 -50 -55 -68 -34 -81 6 -4 25 9 45 32 61
68 86 94 95 94 4 0 8 -20 8 -44 0 -33 -5 -48 -20 -59 -11 -7 -47 -45 -81 -83
-68 -77 -79 -85 -79 -54 0 42 -28 79 -65 86 -55 10 -163 0 -179 -16 -24 -25
-36 -198 -20 -290 11 -62 63 -100 136 -100 47 0 72 16 106 67 18 25 22 45 22
112 0 81 0 81 28 81 19 0 33 8 45 28 28 46 95 117 103 109 5 -4 3 -37 -3 -73
-9 -51 -20 -76 -52 -118 -29 -38 -41 -63 -41 -87 0 -19 -4 -41 -9 -49 -6 -8
-7 -19 -3 -25 4 -5 5 -35 4 -65 -3 -65 8 -90 32 -71 12 10 16 34 16 102 0 77
3 95 26 136 15 26 32 51 39 55 7 4 18 21 25 38 9 21 19 30 35 30 15 0 36 16
59 45 42 51 56 56 56 19 0 -53 -25 -122 -72 -193 -47 -72 -48 -75 -48 -152 0
-72 13 -129 30 -129 21 0 30 34 29 113 -1 73 2 91 20 116 12 16 21 34 21 39 0
6 8 17 18 24 34 25 41 78 46 320 2 131 7 242 10 247 4 5 2 12 -4 16 -5 3 -10
14 -10 24 0 10 -11 28 -24 40 -18 17 -33 22 -70 20 -26 -2 -49 -6 -52 -10 -10
-17 10 -39 37 -39 44 0 37 -31 -16 -74 -25 -21 -46 -34 -47 -29 -1 4 -2 33 -2
64 -2 80 -13 89 -106 89 -42 0 -79 -3 -83 -6z m323 -162 c0 -26 -7 -45 -21
-58 -11 -10 -38 -36 -59 -58 -21 -21 -43 -35 -49 -32 -6 4 -11 32 -11 62 0 52
1 54 26 54 18 0 36 11 57 35 39 47 57 46 57 -3z m0 -148 c0 -29 -10 -48 -50
-94 -27 -32 -50 -63 -50 -69 0 -6 -2 -11 -4 -11 -2 0 -11 -3 -20 -6 -26 -10
-22 87 4 112 11 10 39 38 62 62 23 23 45 42 50 42 4 0 8 -16 8 -36z m-529
-156 c0 -7 2 -24 3 -38 5 -37 -3 -50 -30 -50 -22 0 -24 4 -24 50 0 47 2 50 25
50 14 0 25 -6 26 -12z m115 0 c22 -31 -6 -91 -39 -86 -17 2 -23 11 -25 36 -2
19 -1 40 2 48 7 17 50 18 62 2z m-1 -212 c-4 -62 -14 -85 -36 -86 -11 0 -29
77 -29 123 0 42 2 46 28 49 15 2 30 -1 34 -7 4 -5 6 -41 3 -79z m-105 15 c0
-48 -4 -72 -15 -81 -27 -22 -45 11 -45 84 0 66 0 66 30 66 30 0 30 0 30 -69z"/>
<path d="M62 675 c-18 -36 -32 -68 -32 -71 0 -3 10 -4 22 -2 14 2 29 17 41 43
11 22 24 48 29 58 5 10 6 22 3 27 -14 23 -33 6 -63 -55z"/>
<path d="M242 713 c26 -60 64 -106 80 -97 16 10 8 35 -24 79 -38 52 -75 63
-56 18z"/>
</g>
</svg>
