<svg version="1.0" xmlns="http://www.w3.org/2000/svg"
 width="70.000000pt" height="83.000000pt" viewBox="0 0 70.000000 83.000000"
 preserveAspectRatio="xMidYMid meet">
<metadata>
Created by potrace 1.15, written by Peter Selinger 2001-2017
</metadata>
<g transform="translate(0.000000,83.000000) scale(0.100000,-0.100000)"
fill="#000000" stroke="none">
<path d="M203 613 c-65 -3 -73 -6 -73 -23 0 -18 7 -20 94 -20 98 0 126 11 91
37 -11 7 -24 12 -29 11 -6 -1 -44 -4 -83 -5z"/>
<path d="M462 552 c-13 -31 -20 -65 -17 -73 5 -15 47 -37 97 -53 21 -6 37 -61
30 -105 -3 -24 -21 -50 -58 -88 -59 -58 -70 -98 -36 -129 36 -33 126 -85 139
-80 31 12 12 43 -44 71 -90 45 -91 52 -25 121 27 27 54 59 60 71 16 30 15 96
-2 138 -12 29 -23 36 -70 50 -31 9 -56 18 -56 21 0 2 9 24 21 49 11 24 18 49
14 55 -14 23 -31 7 -53 -48z"/>
<path d="M315 519 c-22 -4 -86 -8 -142 -8 -96 -1 -103 -2 -103 -21 0 -16 7
-20 35 -20 35 0 35 0 35 -105 0 -104 0 -105 -26 -111 -63 -16 -73 -176 -14
-229 23 -21 104 -26 199 -11 59 9 64 12 77 42 16 38 18 131 5 167 -6 16 -24
30 -46 38 -36 13 -36 13 -33 119 3 105 3 105 38 110 21 3 35 11 35 19 0 18
-11 20 -60 10z m-51 -55 c11 -29 6 -34 -39 -34 -37 0 -45 3 -45 18 0 26 9 32
46 32 20 0 34 -6 38 -16z m-4 -85 c0 -29 -2 -30 -37 -27 -65 5 -48 55 20 57
12 1 17 -7 17 -30z m0 -79 c0 -28 -2 -30 -40 -30 -33 0 -40 3 -40 20 0 22 25
39 58 40 18 0 22 -5 22 -30z m78 -83 c16 -19 24 -88 14 -122 -11 -38 -52 -54
-144 -54 -83 -1 -98 15 -98 100 0 79 11 86 141 88 52 1 80 -3 87 -12z"/>
<path d="M145 180 c-3 -5 0 -13 8 -16 23 -9 152 0 152 11 0 14 -151 19 -160 5z"/>
<path d="M181 111 c-30 -5 -32 -8 -19 -19 9 -7 28 -10 42 -7 14 3 37 7 51 10
14 3 25 10 25 15 0 11 -44 11 -99 1z"/>
<path d="M430 365 c-27 -33 17 -74 48 -43 16 16 15 23 -4 42 -19 20 -28 20
-44 1z"/>
</g>
</svg>
