<svg version="1.0" xmlns="http://www.w3.org/2000/svg"
 width="73.000000pt" height="109.000000pt" viewBox="0 0 73.000000 109.000000"
 preserveAspectRatio="xMidYMid meet">
<metadata>
Created by potrace 1.15, written by Peter Selinger 2001-2017
</metadata>
<g transform="translate(0.000000,109.000000) scale(0.100000,-0.100000)"
fill="#000000" stroke="none">
<path d="M142 1038 c-8 -8 -12 -55 -12 -140 0 -121 -1 -128 -20 -128 -23 0
-22 -4 -20 118 1 50 -2 92 -7 92 -31 -1 -36 -26 -34 -172 1 -68 1 -68 41 -93
48 -31 51 -53 9 -88 -45 -37 -58 -100 -66 -319 -6 -174 -5 -188 12 -194 11 -5
21 -1 27 10 5 9 10 109 11 222 2 168 5 207 17 214 8 6 18 10 22 10 4 0 7 -115
7 -256 0 -141 2 -259 5 -261 3 -3 12 -3 21 0 12 5 15 26 17 104 2 167 6 326 8
378 2 50 2 50 15 20 9 -18 14 -63 13 -115 -2 -307 5 -370 38 -325 10 13 12 68
8 244 -6 226 -6 226 -42 261 -21 20 -38 47 -40 61 -2 22 2 27 27 32 45 9 62
52 66 162 3 85 2 94 -16 98 -10 3 -21 2 -24 -2 -2 -5 -7 -52 -11 -105 -6 -87
-9 -96 -27 -96 -19 0 -19 5 -14 129 5 99 3 132 -7 140 -9 7 -16 7 -24 -1z"/>
<path d="M351 1016 c-12 -14 -5 -46 9 -46 12 0 19 -53 9 -72 -5 -10 -16 -18
-23 -18 -8 0 -24 -9 -37 -19 -19 -15 -21 -22 -12 -32 15 -15 79 1 111 30 33
28 30 99 -4 140 -29 35 -36 37 -53 17z"/>
<path d="M557 921 c-71 -15 -70 -7 -68 -516 1 -190 -5 -233 -31 -207 -6 6 -25
12 -40 12 -25 0 -28 3 -28 34 0 28 6 38 30 53 25 14 30 24 31 58 1 61 -2 119
-8 129 -10 15 -23 -18 -23 -60 0 -22 -7 -49 -15 -60 -13 -17 -14 -10 -15 71 0
80 2 92 20 103 26 16 29 106 5 116 -12 4 -14 10 -5 25 16 30 -1 125 -23 129
-14 3 -17 -4 -17 -44 0 -57 -17 -73 -77 -74 -35 0 -43 -3 -43 -19 0 -25 20
-31 78 -24 47 5 49 4 54 -21 7 -36 -21 -69 -77 -90 -55 -22 -54 -40 3 -44 42
-3 42 -3 42 -133 0 -71 -4 -129 -8 -129 -12 0 -32 47 -27 62 3 7 7 43 9 80 3
66 -9 99 -32 84 -14 -9 -3 -237 13 -252 21 -22 123 -56 145 -49 19 6 20 2 20
-57 0 -58 11 -88 31 -88 15 0 29 65 29 131 0 69 0 69 49 69 31 0 53 5 61 15 7
8 16 49 20 91 7 70 18 93 43 94 4 0 7 9 7 21 0 20 -4 20 -79 16 -43 -3 -83 -2
-89 2 -7 4 -11 26 -9 52 2 43 3 44 40 47 20 2 37 7 37 13 0 5 9 9 20 9 16 0
20 7 21 33 2 30 3 43 7 90 1 11 10 17 26 17 23 0 41 22 29 34 -4 3 -46 6 -95
6 -99 0 -100 1 -78 80 11 38 48 60 104 60 21 0 27 4 24 18 -4 20 -49 25 -111
13z m43 -266 c0 -38 -3 -44 -26 -49 -36 -9 -46 3 -42 50 2 31 8 39 28 45 35 8
40 3 40 -46z m7 -285 c1 -14 -1 -42 -4 -63 -5 -35 -8 -38 -36 -35 -34 3 -42
26 -32 94 6 40 7 41 38 35 25 -5 32 -12 34 -31z"/>
</g>
</svg>
