<svg version="1.0" xmlns="http://www.w3.org/2000/svg"
 width="69.000000pt" height="86.000000pt" viewBox="0 0 69.000000 86.000000"
 preserveAspectRatio="xMidYMid meet">
<metadata>
Created by potrace 1.15, written by Peter Selinger 2001-2017
</metadata>
<g transform="translate(0.000000,86.000000) scale(0.100000,-0.100000)"
fill="#000000" stroke="none">
<path d="M427 714 c-4 -4 -7 -27 -7 -51 0 -42 -1 -43 -33 -43 -27 0 -35 5 -44
31 -22 56 -37 30 -46 -76 -4 -54 -5 -101 -1 -104 10 -10 44 40 44 64 0 24 17
35 56 35 20 0 24 -5 24 -29 0 -24 -8 -34 -40 -52 -22 -12 -42 -30 -45 -38 -7
-26 -23 -177 -30 -291 -6 -89 -5 -108 9 -119 8 -7 19 -10 24 -7 5 3 12 83 16
177 4 102 11 182 19 198 18 38 68 64 101 51 45 -17 43 -38 -8 -83 -47 -42 -47
-42 -36 -101 20 -101 132 -230 184 -210 27 10 18 27 -49 94 -63 63 -105 136
-90 159 3 6 24 20 44 31 67 34 62 97 -11 145 -32 21 -39 31 -36 53 3 24 7 27
43 27 38 0 40 -1 48 -42 5 -27 16 -47 29 -54 34 -18 43 2 29 64 -8 39 -9 61 0
85 27 79 -24 114 -61 41 -19 -36 -24 -40 -53 -37 -29 3 -32 7 -37 43 -5 38
-25 56 -43 39z"/>
<path d="M203 690 c-29 -12 -50 -46 -58 -97 -4 -24 -11 -43 -15 -43 -5 0 -18
14 -30 30 -12 17 -28 30 -36 30 -27 0 -14 -41 29 -88 43 -46 44 -48 38 -102
-6 -54 -6 -54 -31 -7 -18 35 -31 47 -47 47 -13 0 -23 -6 -23 -13 0 -27 32 -78
66 -105 29 -23 33 -31 28 -57 -8 -44 -46 -159 -54 -165 -11 -8 -33 -70 -27
-76 29 -29 112 118 127 227 7 51 13 61 59 104 51 47 64 75 37 75 -8 0 -28 -11
-44 -25 -17 -14 -33 -25 -36 -25 -3 0 -6 17 -6 38 0 32 7 43 50 80 48 41 64
72 38 72 -7 0 -22 -7 -32 -15 -11 -8 -26 -15 -34 -15 -25 0 -5 62 28 90 49 40
33 64 -27 40z"/>
</g>
</svg>
