<svg version="1.0" xmlns="http://www.w3.org/2000/svg"
 width="83.000000pt" height="121.000000pt" viewBox="0 0 83.000000 121.000000"
 preserveAspectRatio="xMidYMid meet">
<metadata>
Created by potrace 1.15, written by Peter Selinger 2001-2017
</metadata>
<g transform="translate(0.000000,121.000000) scale(0.100000,-0.100000)"
fill="#000000" stroke="none">
<path d="M550 1115 c-19 -7 -49 -14 -66 -14 -19 -1 -34 -7 -38 -17 -8 -21 24
-74 46 -74 25 0 30 -14 39 -108 6 -64 4 -92 -5 -111 -14 -28 -31 -192 -31
-306 0 -116 27 -394 40 -411 16 -22 49 -11 63 22 17 37 14 149 -6 229 -16 62
-17 90 -9 255 7 117 14 189 22 196 7 7 34 15 61 19 76 10 108 23 139 55 26 27
27 34 23 88 -6 56 -27 113 -52 137 -6 6 -32 21 -58 33 -54 25 -115 27 -168 7z
m158 -94 c14 -11 24 -35 28 -63 7 -52 -6 -67 -65 -75 -40 -5 -40 -5 -70 58
-45 92 -43 97 40 98 31 1 53 -5 67 -18z"/>
<path d="M270 988 c-11 -12 -20 -29 -20 -39 0 -20 -16 -34 -50 -44 -55 -16
-90 -38 -90 -56 0 -16 8 -19 58 -19 32 0 63 5 68 10 8 8 15 6 24 -5 11 -13 11
-24 1 -58 -20 -66 -24 -70 -80 -98 -64 -31 -80 -54 -57 -77 13 -14 21 -14 49
-4 18 7 40 12 49 12 20 0 97 76 110 109 11 28 15 63 19 178 2 59 -1 76 -16 93
-23 26 -39 25 -65 -2z"/>
<path d="M80 391 c-17 -33 -13 -263 6 -300 40 -81 213 -93 276 -19 30 36 33
55 29 203 -3 94 -16 135 -42 135 -14 0 -19 -7 -19 -27 0 -42 -10 -50 -65 -58
-27 -3 -62 -9 -77 -11 -24 -5 -29 -1 -45 34 -22 51 -48 69 -63 43z m218 -141
c26 -25 26 -32 3 -89 -18 -45 -49 -70 -87 -71 -44 0 -87 144 -46 156 9 3 24 9
32 14 27 16 76 11 98 -10z"/>
</g>
</svg>
