<svg version="1.0" xmlns="http://www.w3.org/2000/svg"
 width="71.000000pt" height="123.000000pt" viewBox="0 0 71.000000 123.000000"
 preserveAspectRatio="xMidYMid meet">
<metadata>
Created by potrace 1.15, written by Peter Selinger 2001-2017
</metadata>
<g transform="translate(0.000000,123.000000) scale(0.100000,-0.100000)"
fill="#000000" stroke="none">
<path d="M450 1081 c0 -41 0 -41 -39 -41 -64 0 -137 -21 -151 -43 -8 -14 -13
-80 -16 -211 -5 -304 -14 -514 -25 -613 -11 -95 -8 -113 15 -113 21 0 26 39
32 285 4 136 11 235 17 243 6 8 25 12 46 10 31 -3 36 -7 39 -30 3 -22 -1 -28
-17 -28 -30 0 -33 -16 -6 -28 14 -7 25 -19 25 -27 0 -21 -24 -45 -44 -45 -9 0
-17 -8 -17 -17 -1 -10 -3 -29 -5 -43 -9 -62 -11 -256 -3 -277 20 -53 29 -8 29
146 0 151 5 181 32 181 4 0 8 -88 8 -196 0 -150 3 -195 12 -192 21 7 28 68 21
173 -11 184 -1 256 33 211 11 -15 14 -57 14 -180 0 -166 6 -200 30 -172 9 12
11 47 6 143 -10 207 -12 219 -51 237 -54 26 -41 50 31 56 86 8 104 3 104 -30
0 -19 -6 -31 -19 -35 -25 -8 -34 -70 -33 -234 1 -112 9 -157 28 -139 7 8 6
192 -1 269 -4 43 -2 59 10 69 8 7 18 10 21 7 4 -3 7 -43 8 -89 1 -106 20 -115
23 -10 2 105 1 102 18 102 23 0 28 -42 23 -195 -5 -152 -1 -179 26 -153 13 13
15 42 12 174 -3 177 -12 214 -51 214 -19 0 -25 5 -25 23 0 22 46 67 70 67 6 0
10 24 10 55 0 43 -5 59 -20 73 -11 9 -29 25 -40 35 -23 20 -26 47 -5 47 8 0
26 5 40 12 23 10 25 17 25 70 0 50 -3 58 -18 58 -15 0 -19 -8 -20 -36 -1 -37
-18 -68 -32 -59 -4 2 -5 32 -3 66 4 75 -6 89 -61 89 -51 0 -76 -14 -58 -32 6
-6 12 -29 12 -49 0 -74 11 -100 47 -116 32 -13 34 -15 21 -35 -12 -17 -24 -21
-70 -21 -30 1 -65 4 -77 8 -26 8 -29 45 -3 45 10 0 29 11 41 24 20 21 22 29
14 67 -12 59 -39 61 -35 3 2 -28 -2 -45 -13 -54 -8 -7 -17 -11 -18 -9 -13 17
-22 79 -16 103 13 47 -5 68 -54 64 -48 -3 -55 -21 -11 -28 28 -5 29 -7 32 -73
3 -62 1 -68 -15 -65 -14 2 -19 14 -21 51 -2 35 -7 47 -19 47 -11 0 -14 -6 -9
-22 3 -13 6 -37 6 -55 0 -25 6 -34 30 -45 40 -17 39 -45 -2 -56 -43 -11 -47
-30 -6 -34 28 -2 33 -7 33 -28 0 -29 -34 -39 -69 -21 -20 11 -21 19 -20 149 1
136 7 185 27 210 7 9 57 12 188 12 165 0 209 7 177 26 -13 8 -20 9 -105 12
-52 2 -52 2 -55 40 -3 32 -7 37 -30 40 -27 3 -28 1 -28 -37z m130 -221 c0 -47
-3 -60 -15 -60 -11 0 -15 12 -15 44 0 24 -3 51 -6 60 -4 12 0 16 15 16 19 0
21 -6 21 -60z m-6 -195 c13 -34 -4 -45 -71 -45 -76 0 -103 11 -96 40 5 18 14
20 83 20 60 0 79 -3 84 -15z m76 -31 c0 -31 -23 -28 -28 4 -2 15 2 22 12 22
11 0 16 -9 16 -26z m-96 -40 c9 -3 16 -17 16 -30 0 -23 -2 -24 -80 -24 -77 0
-80 1 -80 23 0 13 3 27 7 30 8 9 116 9 137 1z m76 -24 c0 -5 -2 -10 -4 -10 -3
0 -8 5 -11 10 -3 6 -1 10 4 10 6 0 11 -4 11 -10z"/>
<path d="M43 1000 c-30 -27 -36 -81 -31 -281 4 -147 7 -172 21 -181 9 -5 17
-20 17 -33 0 -18 5 -25 20 -25 11 0 20 5 20 10 0 6 9 10 20 10 18 0 19 -8 19
-187 -1 -226 -1 -213 11 -213 17 0 22 46 23 232 2 155 5 187 19 208 16 23 17
48 14 220 -4 198 -12 242 -41 254 -34 13 -91 6 -112 -14z m95 -28 c19 -12 27
-79 12 -97 -14 -17 -99 -21 -101 -5 -1 6 -1 19 -1 30 0 48 3 58 25 68 27 13
48 14 65 4z m20 -190 c4 -53 -10 -72 -52 -72 -42 0 -52 9 -59 50 -10 53 9 71
73 67 34 -2 35 -4 38 -45z m-20 -98 c18 -5 22 -13 21 -43 -3 -75 -12 -94 -48
-104 -40 -10 -52 3 -62 68 -10 65 -2 76 56 84 6 0 20 -2 33 -5z"/>
<path d="M45 428 c-4 -13 -9 -92 -12 -175 -5 -151 0 -180 25 -130 11 23 25
289 15 313 -8 21 -20 17 -28 -8z"/>
<path d="M583 162 c-17 -39 -12 -137 7 -137 12 0 16 16 18 74 3 81 -7 106 -25
63z"/>
</g>
</svg>
