<svg version="1.0" xmlns="http://www.w3.org/2000/svg"
 width="67.000000pt" height="123.000000pt" viewBox="0 0 67.000000 123.000000"
 preserveAspectRatio="xMidYMid meet">
<metadata>
Created by potrace 1.15, written by Peter Selinger 2001-2017
</metadata>
<g transform="translate(0.000000,123.000000) scale(0.100000,-0.100000)"
fill="#000000" stroke="none">
<path d="M27 1053 c-13 -13 -7 -28 16 -38 21 -10 22 -15 22 -135 0 -69 -4
-170 -7 -225 -4 -55 -10 -216 -14 -357 -5 -252 -5 -258 14 -258 11 0 23 7 26
16 3 9 6 93 6 188 1 94 3 194 5 221 2 28 7 151 11 275 4 124 11 235 15 248 9
24 33 29 45 10 4 -6 6 -225 5 -485 -1 -260 1 -478 4 -483 5 -8 11 -7 20 0 11
9 14 93 15 438 1 235 2 457 3 493 3 91 -6 99 -103 99 -42 0 -80 -3 -83 -7z"/>
<path d="M335 1027 c-57 -35 -62 -54 -59 -232 9 -520 17 -771 24 -779 5 -4 14
-5 21 -1 12 8 9 376 -7 752 -9 219 1 233 161 233 122 0 128 -12 127 -270 0
-85 0 -189 0 -230 0 -73 -1 -85 -4 -132 -3 -53 15 -344 22 -352 5 -4 14 -5 20
-1 10 6 11 51 5 194 -9 219 -9 519 1 644 8 107 -9 159 -59 176 -41 15 -227 13
-252 -2z"/>
<path d="M356 862 c-3 -5 2 -16 12 -25 24 -22 197 -10 197 13 0 12 -19 16
-102 18 -56 1 -104 -1 -107 -6z"/>
<path d="M510 666 c0 -46 -3 -56 -20 -61 -41 -13 -60 3 -60 51 0 37 -3 44 -20
44 -19 0 -20 -7 -20 -149 0 -237 17 -278 115 -272 46 3 66 108 53 284 -10 150
-12 157 -33 157 -12 0 -15 -12 -15 -54z m2 -188 c6 -119 -1 -143 -37 -143 -27
0 -30 4 -37 40 -9 52 -10 170 -1 178 3 4 21 7 39 7 32 0 32 0 36 -82z"/>
</g>
</svg>
