<svg version="1.0" xmlns="http://www.w3.org/2000/svg"
 width="71.000000pt" height="108.000000pt" viewBox="0 0 71.000000 108.000000"
 preserveAspectRatio="xMidYMid meet">
<metadata>
Created by potrace 1.15, written by Peter Selinger 2001-2017
</metadata>
<g transform="translate(0.000000,108.000000) scale(0.100000,-0.100000)"
fill="#000000" stroke="none">
<path d="M103 1023 c-7 -3 -13 -11 -13 -19 0 -14 13 -18 90 -29 52 -7 70 -20
70 -49 0 -28 -52 -56 -139 -76 -56 -13 -65 -19 -63 -35 5 -27 4 -26 43 -15 43
13 116 13 123 1 11 -16 -5 -40 -35 -53 -16 -7 -29 -16 -29 -20 0 -5 -11 -8
-25 -8 -28 0 -75 -19 -75 -31 0 -23 36 -26 84 -7 140 55 166 81 131 134 -9 14
-15 27 -13 28 2 1 15 10 31 19 50 32 23 126 -42 145 -42 13 -120 21 -138 15z"/>
<path d="M383 982 c-25 -2 -33 -8 -33 -23 0 -18 8 -19 104 -19 131 0 172 -15
182 -65 6 -36 -3 -126 -14 -135 -4 -3 -12 -14 -18 -24 -6 -11 -19 -24 -30 -30
-10 -6 -22 -15 -26 -21 -11 -16 -20 1 -20 40 0 67 -61 92 -160 64 -70 -19 -39
-42 43 -32 58 7 69 -2 69 -57 0 -33 -4 -37 -53 -58 -28 -12 -58 -22 -64 -22
-16 0 -17 -26 -2 -36 6 -4 36 -1 65 6 30 7 57 11 60 8 3 -3 5 -132 5 -287 -1
-276 -1 -281 19 -281 21 0 45 43 34 62 -3 5 -8 125 -10 267 -4 258 -4 258 21
269 41 19 86 65 111 114 19 37 24 63 24 120 -1 112 -27 133 -175 139 -55 2
-115 3 -132 1z"/>
<path d="M353 873 c-22 -8 -14 -32 13 -39 28 -7 184 3 194 12 3 3 -4 12 -15
20 -14 10 -43 14 -100 13 -44 -1 -86 -4 -92 -6z"/>
<path d="M235 710 c-4 -6 -5 -27 -3 -47 3 -37 3 -37 -82 -80 -47 -23 -93 -42
-102 -43 -21 0 -25 -39 -5 -41 29 -3 61 4 72 15 7 6 32 20 56 30 101 42 114
51 117 80 2 16 1 39 -2 52 -7 27 -41 50 -51 34z"/>
<path d="M623 553 c-30 -11 -6 -463 27 -496 4 -5 16 -7 26 -5 16 3 18 12 16
48 -1 24 -6 49 -11 54 -16 22 -34 215 -28 299 7 86 -1 111 -30 100z"/>
<path d="M157 514 c-4 -4 -7 -88 -7 -186 0 -153 -2 -179 -16 -185 -29 -11 -35
13 -35 150 0 146 -3 167 -25 167 -13 0 -20 -46 -16 -100 1 -8 2 -55 2 -105 2
-120 8 -153 31 -160 38 -12 178 -13 194 -1 30 21 8 46 -41 46 -44 0 -44 0 -44
54 0 53 0 54 34 60 48 9 59 28 67 110 7 69 0 102 -25 118 -23 16 -26 6 -26
-75 0 -77 -9 -107 -32 -107 -9 0 -18 47 -26 141 -6 67 -18 90 -35 73z"/>
<path d="M368 503 c-1 -5 -2 -71 -3 -148 -1 -77 -5 -175 -10 -218 -8 -73 -7
-77 12 -77 22 0 29 21 39 110 3 25 8 52 11 60 3 8 5 20 3 25 -1 6 -4 60 -7
120 -3 61 -10 116 -15 123 -12 13 -27 16 -30 5z"/>
</g>
</svg>
