<svg version="1.0" xmlns="http://www.w3.org/2000/svg"
 width="63.000000pt" height="92.000000pt" viewBox="0 0 63.000000 92.000000"
 preserveAspectRatio="xMidYMid meet">
<metadata>
Created by potrace 1.15, written by Peter Selinger 2001-2017
</metadata>
<g transform="translate(0.000000,92.000000) scale(0.100000,-0.100000)"
fill="#000000" stroke="none">
<path d="M276 720 c6 -47 5 -50 -15 -50 -26 0 -72 23 -90 44 -19 23 -41 20
-41 -5 0 -31 50 -72 104 -87 43 -11 56 -32 20 -32 -23 0 -83 -43 -88 -65 -10
-35 -6 -74 9 -111 24 -57 84 -72 202 -48 54 11 74 66 57 154 -6 27 -16 36 -60
57 -30 13 -54 28 -54 32 0 13 24 31 42 31 27 0 98 38 105 56 10 27 -6 27 -67
0 -34 -14 -66 -26 -71 -26 -5 0 -9 15 -9 34 0 47 -9 66 -31 66 -18 0 -19 -5
-13 -50z m95 -180 c32 -18 23 -40 -16 -40 -27 0 -35 4 -35 18 0 33 17 40 51
22z m-93 -21 c2 -12 -7 -18 -34 -23 -43 -9 -49 -5 -34 24 14 25 63 25 68 -1z
m-12 -67 c15 -10 24 -51 12 -58 -28 -17 -89 30 -73 56 7 12 45 13 61 2z m124
-6 c0 -21 -28 -46 -51 -46 -13 0 -19 7 -19 23 0 31 7 37 42 37 18 0 28 -5 28
-14z"/>
<path d="M505 608 c-29 -87 -31 -134 -10 -215 23 -88 35 -113 56 -113 25 0 24
23 -3 78 -23 49 -30 153 -15 225 6 30 5 37 -8 37 -9 0 -17 -6 -20 -12z"/>
<path d="M66 572 c-3 -5 4 -27 15 -48 28 -53 21 -148 -17 -211 -14 -24 -23
-47 -19 -51 14 -14 41 18 68 79 22 51 27 74 23 112 -8 75 -51 149 -70 119z"/>
<path d="M173 303 c-38 -7 -28 -33 13 -33 27 0 35 -4 31 -14 -3 -8 -9 -32 -12
-53 -8 -44 -34 -122 -48 -140 -10 -13 -2 -33 14 -33 17 0 49 63 75 148 26 82
26 82 64 82 38 0 38 0 50 -72 7 -40 21 -92 33 -115 34 -71 73 -49 42 23 -20
45 -45 132 -45 155 0 11 12 18 41 23 25 4 39 11 36 19 -2 9 -42 12 -138 13
-74 1 -144 0 -156 -3z"/>
</g>
</svg>
