<svg version="1.0" xmlns="http://www.w3.org/2000/svg"
 width="66.000000pt" height="87.000000pt" viewBox="0 0 66.000000 87.000000"
 preserveAspectRatio="xMidYMid meet">
<metadata>
Created by potrace 1.15, written by Peter Selinger 2001-2017
</metadata>
<g transform="translate(0.000000,87.000000) scale(0.100000,-0.100000)"
fill="#000000" stroke="none">
<path d="M430 715 c-7 -9 -9 -27 -5 -47 6 -33 6 -33 -14 -8 -11 14 -21 31 -21
38 0 6 -4 12 -9 12 -33 0 -20 -77 14 -90 13 -5 29 -18 35 -30 14 -26 40 -26
40 0 0 13 7 20 20 20 27 0 70 43 70 69 0 35 -22 36 -49 2 -14 -17 -29 -31 -32
-31 -4 0 -10 16 -13 35 -8 41 -19 50 -36 30z"/>
<path d="M214 681 c-7 -47 -29 -55 -44 -16 -12 32 -28 32 -36 0 -9 -36 -2 -47
42 -70 51 -26 56 -51 12 -63 -53 -13 -42 -36 20 -40 85 -5 66 -21 -58 -50 -22
-5 -36 -15 -38 -26 -4 -17 1 -18 45 -11 26 4 75 18 107 31 33 13 67 24 77 24
9 0 52 -18 94 -40 84 -44 103 -48 111 -25 10 25 -13 42 -74 55 -32 6 -69 20
-82 31 -25 19 -25 19 50 19 82 0 106 9 97 35 -6 14 -18 15 -91 9 -84 -7 -84
-7 -91 25 -9 40 -38 39 -43 -2 -2 -15 -6 -27 -10 -27 -4 0 -17 -3 -29 -6 -19
-5 -23 -2 -23 17 0 29 9 43 32 52 17 6 34 60 23 77 -10 16 -23 12 -30 -11 -8
-25 -22 -14 -27 20 -5 42 -27 36 -34 -8z"/>
<path d="M227 374 c-31 -20 -37 -30 -31 -47 13 -44 30 -52 117 -52 91 0 152
17 167 46 21 38 -29 86 -76 75 -30 -8 -31 -18 -1 -31 49 -22 10 -42 -85 -44
-63 -1 -75 11 -28 28 32 11 37 20 18 39 -18 18 -40 15 -81 -14z"/>
<path d="M507 313 c-4 -3 -7 -19 -7 -34 0 -25 -4 -28 -42 -34 -24 -3 -90 -5
-148 -3 -103 3 -105 3 -118 31 -14 29 -26 34 -39 15 -4 -7 -8 -69 -8 -137 -1
-95 2 -124 13 -128 23 -9 35 14 43 82 10 79 13 85 45 85 29 0 32 -25 4 -40
-11 -6 -20 -20 -20 -31 0 -19 4 -20 103 -13 56 4 110 11 120 16 21 11 22 28 2
28 -10 0 -15 10 -15 30 0 26 3 30 29 30 24 0 29 -5 35 -31 3 -17 6 -56 6 -85
0 -47 2 -54 20 -54 24 0 23 -4 20 140 -2 121 -15 161 -43 133z m-107 -132 c0
-28 -60 -45 -75 -21 -14 22 4 40 40 40 28 0 35 -4 35 -19z"/>
</g>
</svg>
