<svg version="1.0" xmlns="http://www.w3.org/2000/svg"
 width="66.000000pt" height="84.000000pt" viewBox="0 0 66.000000 84.000000"
 preserveAspectRatio="xMidYMid meet">
<metadata>
Created by potrace 1.15, written by Peter Selinger 2001-2017
</metadata>
<g transform="translate(0.000000,84.000000) scale(0.100000,-0.100000)"
fill="#000000" stroke="none">
<path d="M367 693 c-4 -3 -7 -23 -7 -43 0 -42 28 -85 63 -96 12 -4 25 -11 28
-16 4 -6 28 5 55 24 47 33 49 36 49 84 0 46 -2 49 -25 49 -22 0 -25 -4 -25
-34 0 -45 -23 -53 -27 -9 -2 25 -8 33 -23 33 -16 0 -21 -8 -23 -37 -2 -21 -7
-38 -12 -38 -9 0 -13 10 -24 63 -6 26 -16 34 -29 20z"/>
<path d="M197 684 c-3 -4 -4 -26 0 -49 6 -49 -13 -73 -23 -28 -12 57 -16 63
-34 63 -36 0 -41 -67 -7 -103 12 -13 39 -29 60 -36 32 -10 39 -10 53 3 8 9 21
16 28 16 39 0 61 85 33 125 -20 27 -40 10 -33 -29 6 -35 -6 -62 -23 -52 -6 4
-11 20 -11 36 0 50 -21 76 -43 54z"/>
<path d="M307 520 c-6 -30 -7 -30 -76 -30 -82 0 -101 -6 -101 -31 0 -17 8 -19
70 -19 81 0 88 -10 35 -53 -19 -15 -35 -34 -35 -42 0 -22 35 -18 67 8 33 26
69 47 81 47 5 0 23 -14 40 -30 32 -30 72 -40 72 -19 0 7 -16 27 -36 46 -20 19
-34 37 -31 40 4 3 35 7 69 8 82 3 78 2 78 25 0 17 -8 20 -92 22 -89 3 -92 4
-98 28 -9 37 -36 37 -43 0z"/>
<path d="M120 405 c-16 -19 -6 -99 15 -131 11 -18 26 -24 62 -26 48 -3 48 -3
51 -82 2 -44 -1 -83 -6 -88 -5 -5 -32 -11 -60 -15 -40 -4 -52 -10 -52 -23 0
-33 81 -38 293 -18 111 11 127 15 127 30 0 15 -9 18 -62 18 -63 0 -63 0 -63
92 0 99 4 106 67 107 16 1 33 10 42 23 17 24 21 94 7 117 -13 21 -41 5 -41
-23 0 -14 -4 -36 -9 -49 -9 -22 -18 -25 -108 -35 -115 -13 -190 -6 -202 17 -5
9 -12 35 -16 59 -7 44 -23 53 -45 27z m252 -230 c9 -94 4 -107 -35 -103 -32 3
-32 3 -35 77 -4 92 0 103 35 99 27 -3 28 -6 35 -73z"/>
<path d="M499 223 c-16 -43 -8 -107 15 -111 25 -5 36 14 36 68 0 67 -32 94
-51 43z"/>
<path d="M129 191 c-10 -34 -9 -44 5 -66 19 -28 29 -31 45 -11 17 21 1 110
-21 114 -12 2 -20 -8 -29 -37z"/>
</g>
</svg>
