<svg version="1.0" xmlns="http://www.w3.org/2000/svg"
 width="59.000000pt" height="123.000000pt" viewBox="0 0 59.000000 123.000000"
 preserveAspectRatio="xMidYMid meet">
<metadata>
Created by potrace 1.15, written by Peter Selinger 2001-2017
</metadata>
<g transform="translate(0.000000,123.000000) scale(0.100000,-0.100000)"
fill="#000000" stroke="none">
<path d="M56 1098 c-27 -96 -28 -214 -3 -373 19 -120 36 -163 83 -212 36 -37
36 -37 30 -117 -13 -170 -5 -235 39 -300 13 -20 21 -36 18 -36 -11 0 31 -29
43 -30 13 0 74 56 74 69 0 5 6 16 13 23 21 22 48 119 53 193 7 98 24 167 46
186 10 9 18 22 18 28 0 13 20 49 37 68 28 31 46 128 45 238 -1 61 2 137 7 170
9 64 -1 95 -30 95 -14 0 -99 -120 -99 -141 0 -5 -4 -9 -8 -9 -5 0 -32 -29 -62
-65 -53 -66 -53 -66 -96 -18 -24 26 -43 51 -44 54 0 3 -9 17 -20 30 -24 26
-57 79 -80 124 -16 31 -57 47 -64 23z m436 -236 c0 -70 -18 -162 -38 -193 -8
-13 -104 79 -104 100 0 12 48 78 84 113 7 7 21 26 31 41 10 15 20 25 22 23 3
-3 5 -41 5 -84z m-301 -3 c86 -89 86 -87 40 -155 -59 -87 -69 -97 -83 -91 -24
9 -42 127 -39 255 1 57 20 55 82 -9z m152 -178 c9 -16 30 -43 47 -61 34 -36
36 -43 17 -62 -7 -7 -21 -25 -31 -40 -19 -29 -69 -45 -105 -33 -31 9 -81 54
-81 72 0 24 100 153 119 153 9 0 24 -13 34 -29z m-6 -273 c22 -28 23 -106 3
-170 -18 -57 -58 -118 -79 -118 -12 0 -29 40 -40 98 -10 49 -9 64 14 158 3 11
62 43 81 44 6 0 16 -6 21 -12z"/>
<path d="M405 783 c8 -35 9 -35 29 -27 9 3 16 17 16 30 0 19 -5 24 -26 24 -24
0 -25 -3 -19 -27z"/>
<path d="M146 781 c-3 -5 3 -20 13 -32 19 -23 20 -23 38 -6 17 18 17 19 -1 33
-23 16 -42 18 -50 5z"/>
<path d="M282 611 c-22 -13 6 -61 35 -61 31 0 40 26 18 50 -20 22 -33 24 -53
11z"/>
<path d="M283 343 c-8 -3 -13 -23 -13 -49 0 -37 3 -44 19 -44 20 0 31 19 31
55 0 25 -19 45 -37 38z"/>
</g>
</svg>
