<svg version="1.0" xmlns="http://www.w3.org/2000/svg"
 width="65.000000pt" height="127.000000pt" viewBox="0 0 65.000000 127.000000"
 preserveAspectRatio="xMidYMid meet">
<metadata>
Created by potrace 1.15, written by Peter Selinger 2001-2017
</metadata>
<g transform="translate(0.000000,127.000000) scale(0.100000,-0.100000)"
fill="#000000" stroke="none">
<path d="M362 1072 c-7 -22 -12 -51 -12 -66 0 -51 -32 -28 -51 37 -11 39 -17
47 -34 45 -30 -5 -23 -43 29 -152 32 -65 43 -101 38 -114 -9 -25 -67 -73 -84
-70 -7 2 -14 -7 -16 -19 -6 -37 -32 -28 -30 10 4 75 -2 129 -14 125 -17 -6
-27 -93 -34 -289 -5 -136 -4 -160 11 -189 30 -58 33 -85 19 -140 -12 -48 -12
-55 7 -93 12 -22 28 -47 35 -55 8 -8 12 -23 9 -33 -8 -25 6 -24 41 3 67 52 78
73 88 170 7 58 12 71 37 92 16 14 29 29 29 35 0 6 4 11 9 11 13 0 71 56 71 69
0 7 6 14 14 17 25 10 45 96 48 206 3 95 -2 131 -17 116 -3 -2 -8 -45 -11 -94
-9 -135 -25 -185 -75 -238 -23 -25 -47 -46 -54 -46 -6 0 -24 27 -41 61 -29 61
-29 61 36 120 36 32 74 58 86 59 17 0 20 5 16 30 -2 17 -10 30 -16 30 -7 0
-23 18 -36 41 -14 22 -31 47 -37 54 -19 20 -16 55 5 74 25 22 82 128 82 152 0
10 5 19 10 19 6 0 10 5 10 11 0 6 -7 9 -17 7 -9 -2 -35 -36 -57 -77 -23 -41
-47 -76 -53 -79 -20 -6 -16 43 7 90 24 50 24 52 6 45 -11 -4 -16 3 -18 25 -4
45 -23 45 -36 0z m67 -340 c17 -27 31 -51 31 -54 0 -9 -71 -78 -98 -96 -29
-19 -31 -15 -63 77 -22 65 -22 65 7 88 29 23 29 23 36 -5 4 -15 5 -42 2 -59
-4 -20 -2 -33 4 -33 12 0 22 24 22 55 0 13 5 27 10 30 6 3 10 15 10 26 0 28 4
24 39 -29z m-176 -59 c4 -10 13 -36 21 -58 24 -62 20 -79 -25 -116 -23 -19
-45 -35 -50 -37 -10 -4 -12 149 -3 197 5 24 12 31 29 31 13 0 25 -8 28 -17z
m97 -233 c16 -33 30 -62 30 -65 0 -8 -73 -75 -82 -75 -4 0 -8 -7 -8 -15 0 -8
7 -15 15 -15 26 0 20 -91 -8 -123 -12 -15 -26 -27 -30 -27 -5 0 -17 20 -28 44
-14 33 -18 56 -13 85 4 23 10 41 15 41 15 0 10 31 -9 58 -29 42 -32 59 -14 79
22 23 85 72 94 73 4 0 21 -27 38 -60z"/>
<path d="M216 614 c-9 -24 -7 -62 4 -69 11 -7 15 3 24 53 4 23 2 32 -8 32 -8
0 -17 -7 -20 -16z"/>
<path d="M279 411 c-13 -43 -6 -75 14 -69 15 5 23 108 8 108 -6 0 -15 -18 -22
-39z"/>
<path d="M436 574 c-9 -24 -7 -86 3 -80 5 3 11 18 13 33 3 16 9 36 13 46 5 12
3 17 -8 17 -8 0 -18 -7 -21 -16z"/>
</g>
</svg>
