<svg version="1.0" xmlns="http://www.w3.org/2000/svg"
 width="41.000000pt" height="63.000000pt" viewBox="0 0 41.000000 63.000000"
 preserveAspectRatio="xMidYMid meet">
<metadata>
Created by potrace 1.15, written by Peter Selinger 2001-2017
</metadata>
<g transform="translate(0.000000,63.000000) scale(0.100000,-0.100000)"
fill="#000000" stroke="none">
<path d="M124 458 c3 -29 6 -75 6 -103 0 -39 6 -56 25 -79 22 -26 24 -35 19
-78 -6 -45 -4 -52 25 -88 17 -21 31 -48 31 -59 0 -18 3 -19 18 -10 9 6 30 27
45 47 26 34 28 43 26 112 -2 41 2 84 8 95 11 22 24 190 15 200 -3 3 -22 -11
-43 -31 -35 -34 -62 -39 -55 -11 1 7 1 9 -1 5 -4 -7 -69 25 -87 43 -6 5 -16 9
-24 9 -12 0 -14 -11 -8 -52z m87 -55 c13 -34 11 -43 -6 -37 -8 4 -15 1 -15 -5
0 -6 -4 -11 -10 -11 -5 0 -10 20 -10 45 0 36 3 43 16 38 8 -3 20 -17 25 -30z
m6 -105 c-3 -7 -5 -2 -5 12 0 14 2 19 5 13 2 -7 2 -19 0 -25z m77 18 c-9 -24
-34 -28 -34 -6 0 13 7 20 20 20 13 0 17 -5 14 -14z m-14 -123 c0 -53 -10 -83
-27 -83 -11 0 -12 8 -7 36 5 26 3 39 -7 45 -11 7 -10 11 6 23 30 23 35 20 35
-21z"/>
</g>
</svg>
