<svg version="1.0" xmlns="http://www.w3.org/2000/svg"
 width="57.000000pt" height="99.000000pt" viewBox="0 0 57.000000 99.000000"
 preserveAspectRatio="xMidYMid meet">
<metadata>
Created by potrace 1.15, written by Peter Selinger 2001-2017
</metadata>
<g transform="translate(0.000000,99.000000) scale(0.100000,-0.100000)"
fill="#000000" stroke="none">
<path d="M440 690 c-12 -87 -17 -103 -41 -126 -25 -24 -29 -25 -35 -10 -4 9
-4 36 -1 58 4 32 1 48 -14 70 -11 15 -24 28 -29 28 -12 0 -20 -54 -21 -143 -1
-73 -3 -78 -29 -97 -16 -11 -31 -20 -34 -20 -3 0 -6 49 -6 109 0 92 -3 110
-16 115 -9 4 -18 5 -19 4 -15 -20 -25 -92 -25 -179 0 -68 -4 -110 -11 -115 -8
-5 -8 -8 0 -13 13 -9 51 -107 51 -133 0 -28 45 -98 62 -98 5 0 8 10 8 23 0 12
6 31 14 42 42 60 58 103 66 177 9 80 21 108 45 108 7 0 28 15 47 33 28 25 37
42 42 82 4 28 9 68 12 91 5 30 2 48 -11 68 -31 47 -42 33 -55 -74z m-148 -316
c-2 -16 -8 -47 -14 -69 -12 -46 -22 -35 -33 36 -6 40 -4 49 12 58 27 16 38 8
35 -25z"/>
<path d="M82 538 c-7 -7 -12 -39 -12 -76 0 -39 -4 -61 -10 -57 -5 3 -10 1 -10
-4 0 -6 5 -11 10 -11 6 0 10 -18 10 -40 0 -50 36 -164 64 -205 30 -43 102
-115 117 -115 20 0 187 174 192 200 32 170 34 198 11 207 -20 7 -31 -10 -39
-62 -16 -110 -25 -129 -88 -198 -34 -37 -69 -67 -77 -67 -8 0 -36 33 -61 73
-47 72 -47 72 -52 201 -5 108 -9 132 -24 148 -15 14 -21 16 -31 6z"/>
</g>
</svg>
