<svg version="1.0" xmlns="http://www.w3.org/2000/svg"
 width="43.000000pt" height="69.000000pt" viewBox="0 0 43.000000 69.000000"
 preserveAspectRatio="xMidYMid meet">
<metadata>
Created by potrace 1.15, written by Peter Selinger 2001-2017
</metadata>
<g transform="translate(0.000000,69.000000) scale(0.100000,-0.100000)"
fill="#000000" stroke="none">
<path d="M103 418 c6 -77 9 -85 37 -108 26 -21 31 -33 33 -78 4 -60 9 -67 54
-77 38 -8 36 -13 57 151 15 117 10 179 -14 179 -12 0 -16 -18 -18 -80 -1 -44
-5 -86 -8 -94 -10 -29 -35 13 -36 62 0 42 -11 67 -23 55 -5 -5 -13 -46 -14
-71 -2 -34 -21 -6 -21 30 0 52 -21 113 -38 113 -13 0 -14 -13 -9 -82z m135
-183 c-4 -33 -22 -33 -26 0 -2 18 1 25 13 25 12 0 15 -7 13 -25z"/>
<path d="M330 338 c-2 -50 -19 -220 -22 -224 -3 -2 -39 -6 -81 -8 -101 -6
-110 2 -101 93 5 59 4 68 -15 85 -12 11 -23 17 -24 15 -8 -10 9 -196 20 -214
11 -20 44 -22 201 -16 27 1 38 25 45 101 3 30 9 72 13 93 4 25 2 47 -6 63 -14
26 -30 32 -30 12z"/>
</g>
</svg>
