<svg version="1.0" xmlns="http://www.w3.org/2000/svg"
 width="75.000000pt" height="125.000000pt" viewBox="0 0 75.000000 125.000000"
 preserveAspectRatio="xMidYMid meet">
<metadata>
Created by potrace 1.15, written by Peter Selinger 2001-2017
</metadata>
<g transform="translate(0.000000,125.000000) scale(0.100000,-0.100000)"
fill="#000000" stroke="none">
<path d="M353 1134 c-6 -18 3 -159 16 -249 6 -33 17 -125 25 -205 9 -80 21
-155 26 -168 6 -13 10 -33 10 -44 0 -12 4 -35 9 -52 5 -17 15 -51 22 -76 34
-131 57 -164 88 -136 18 17 18 21 5 59 -8 23 -21 51 -28 62 -7 11 -19 52 -26
90 -8 39 -17 75 -21 80 -5 6 -10 36 -13 67 -5 51 -3 60 22 90 15 18 30 35 35
36 4 2 7 8 7 13 0 10 47 74 88 119 13 14 30 39 39 55 9 17 24 37 34 46 12 10
19 30 19 54 0 42 -18 44 -37 4 -7 -14 -24 -38 -38 -53 -14 -15 -25 -31 -25
-36 0 -4 -3 -10 -8 -12 -10 -4 -81 -94 -116 -146 -16 -23 -33 -39 -37 -35 -10
11 -39 275 -39 359 0 69 -10 94 -37 94 -8 0 -16 -7 -20 -16z"/>
<path d="M203 1063 c-10 -40 -6 -93 22 -278 26 -173 27 -175 34 -175 3 0 6
-12 7 -27 0 -16 3 -37 6 -48 3 -11 9 -39 13 -62 4 -24 11 -43 14 -43 4 0 8
-17 8 -37 1 -21 6 -39 12 -41 6 -2 11 -21 11 -43 0 -22 5 -39 11 -39 6 0 9 -8
7 -18 -3 -10 1 -23 9 -30 7 -7 13 -27 13 -45 0 -31 15 -57 32 -57 11 0 10 87
-1 124 -5 17 -14 49 -20 71 -27 102 -55 182 -73 208 -12 17 -15 27 -7 27 12 0
9 40 -11 145 -22 113 -31 175 -39 266 -7 81 -22 139 -35 139 -2 0 -8 -17 -13
-37z"/>
<path d="M80 866 c-14 -28 -7 -300 11 -396 5 -30 12 -77 15 -105 2 -27 9 -66
14 -85 5 -19 14 -67 21 -107 20 -121 70 -152 256 -160 163 -8 239 23 257 102
4 17 11 47 16 68 31 119 31 151 1 174 -20 14 -29 -4 -30 -59 -1 -37 -22 -113
-44 -156 -6 -13 -32 -36 -57 -50 -42 -25 -53 -27 -146 -25 -191 4 -207 25
-249 328 -8 56 -15 181 -15 283 0 145 -3 186 -14 198 -19 18 -20 18 -36 -10z"/>
</g>
</svg>
