<svg version="1.0" xmlns="http://www.w3.org/2000/svg"
 width="53.000000pt" height="91.000000pt" viewBox="0 0 53.000000 91.000000"
 preserveAspectRatio="xMidYMid meet">
<metadata>
Created by potrace 1.15, written by Peter Selinger 2001-2017
</metadata>
<g transform="translate(0.000000,91.000000) scale(0.100000,-0.100000)"
fill="#000000" stroke="none">
<path d="M267 773 c-4 -3 -7 -17 -7 -29 0 -26 -17 -42 -22 -20 -2 10 -9 11
-26 5 -23 -9 -23 -9 -1 -50 11 -23 30 -51 40 -63 11 -11 18 -28 16 -37 -3 -9
1 -57 9 -105 7 -49 13 -117 14 -152 0 -53 3 -63 16 -60 15 3 50 91 105 268 12
36 24 72 28 80 9 17 -6 70 -20 70 -5 0 -13 -10 -18 -22 -31 -76 -36 -88 -42
-88 -3 0 -18 14 -33 32 -20 25 -26 43 -26 82 0 78 -13 110 -33 89z m81 -266
c2 -10 1 -25 -2 -34 -9 -23 -36 3 -36 34 0 18 5 24 17 21 10 -2 19 -11 21 -21z"/>
<path d="M87 463 c3 -32 9 -74 14 -93 5 -19 9 -81 9 -138 0 -102 0 -102 33
-122 17 -11 40 -20 50 -20 9 0 17 -4 17 -8 0 -12 92 -31 167 -35 74 -4 70 -14
78 173 4 100 2 130 -9 145 -8 11 -17 17 -20 14 -3 -3 -10 -65 -15 -137 -5 -72
-12 -136 -16 -142 -15 -24 -189 7 -231 41 -12 10 -14 222 -2 234 4 4 3 17 -2
28 -5 12 -11 34 -14 49 -6 26 -41 68 -57 68 -4 0 -5 -26 -2 -57z"/>
</g>
</svg>
