<svg version="1.0" xmlns="http://www.w3.org/2000/svg"
 width="53.000000pt" height="97.000000pt" viewBox="0 0 53.000000 97.000000"
 preserveAspectRatio="xMidYMid meet">
<metadata>
Created by potrace 1.15, written by Peter Selinger 2001-2017
</metadata>
<g transform="translate(0.000000,97.000000) scale(0.100000,-0.100000)"
fill="#000000" stroke="none">
<path d="M396 774 c-3 -9 -6 -50 -6 -93 0 -70 -3 -80 -25 -101 -14 -13 -28
-21 -31 -17 -4 3 -6 36 -6 72 0 36 -4 68 -9 71 -5 3 -9 12 -9 20 0 16 -23 44
-36 44 -4 0 -5 -58 -2 -130 6 -127 5 -129 -18 -145 -38 -25 -44 -19 -44 48 -1
104 -31 187 -67 187 -13 0 -14 -14 -9 -92 9 -152 24 -225 50 -255 6 -6 29 -34
51 -61 38 -47 81 -77 89 -64 2 4 4 29 5 56 0 27 5 54 11 60 7 7 10 4 10 -10 0
-11 12 -44 26 -72 26 -53 26 -53 -10 -107 -20 -30 -36 -57 -36 -60 0 -3 -8
-15 -18 -25 -18 -20 -19 -19 -78 16 -32 19 -61 38 -64 40 -3 3 -7 50 -10 103
-4 73 -10 102 -22 114 -38 38 -44 23 -52 -126 -4 -96 -4 -99 22 -127 15 -15
56 -42 92 -60 36 -18 68 -37 71 -42 10 -16 79 27 79 49 0 4 16 26 35 48 19 22
37 47 40 56 3 9 15 19 25 22 30 8 25 56 -12 132 -26 52 -39 68 -65 77 -62 23
-53 103 14 129 38 14 63 67 63 130 0 83 -36 159 -54 113z m-110 -346 c-3 -13
-6 -26 -6 -30 0 -14 -23 -8 -36 9 -15 22 -1 43 28 43 16 0 19 -5 14 -22z"/>
</g>
</svg>
