<svg version="1.0" xmlns="http://www.w3.org/2000/svg"
 width="47.000000pt" height="65.000000pt" viewBox="0 0 47.000000 65.000000"
 preserveAspectRatio="xMidYMid meet">
<metadata>
Created by potrace 1.15, written by Peter Selinger 2001-2017
</metadata>
<g transform="translate(0.000000,65.000000) scale(0.100000,-0.100000)"
fill="#000000" stroke="none">
<path d="M309 498 c-1 -13 -2 -36 -3 -52 -1 -17 -12 -37 -26 -48 -25 -20 -25
-20 -28 36 -3 54 -14 72 -25 42 -8 -20 -11 -275 -4 -282 9 -9 27 6 27 22 0 8
13 32 30 52 17 22 32 55 36 81 5 30 16 51 37 70 48 42 57 52 57 62 0 15 -16
10 -35 -11 -28 -31 -45 -25 -45 15 0 38 -19 49 -21 13z m-19 -148 c0 -21 -24
-60 -37 -60 -26 0 3 69 30 70 4 0 7 -4 7 -10z"/>
<path d="M149 243 c-2 -58 -7 -93 -19 -126 -14 -42 -13 -47 14 -47 14 0 28 -5
31 -11 5 -7 14 -6 28 3 24 15 67 13 67 -3 0 -24 31 -6 37 21 3 17 9 30 13 30
4 0 10 24 13 53 3 28 8 60 12 70 5 13 2 17 -14 17 -15 0 -21 -6 -21 -22 0 -12
-5 -38 -11 -57 -25 -78 -25 -79 -61 -76 -18 2 -41 3 -50 4 -14 1 -18 10 -18
40 0 22 4 51 10 65 10 28 -2 76 -20 76 -5 0 -11 -17 -11 -37z"/>
</g>
</svg>
