<svg version="1.0" xmlns="http://www.w3.org/2000/svg"
 width="47.000000pt" height="73.000000pt" viewBox="0 0 47.000000 73.000000"
 preserveAspectRatio="xMidYMid meet">
<metadata>
Created by potrace 1.15, written by Peter Selinger 2001-2017
</metadata>
<g transform="translate(0.000000,73.000000) scale(0.100000,-0.100000)"
fill="#000000" stroke="none">
<path d="M201 536 c-8 -9 -8 -22 0 -46 9 -25 9 -37 0 -51 -6 -10 -11 -26 -11
-34 0 -8 -4 -15 -10 -15 -5 0 -10 6 -10 14 0 27 -40 107 -50 101 -6 -4 -7 -13
-1 -23 4 -9 11 -42 14 -72 3 -30 8 -63 12 -72 4 -11 3 -18 -4 -18 -6 0 -11 7
-11 15 0 8 -4 15 -9 15 -11 0 -18 -97 -11 -170 5 -51 7 -55 43 -74 28 -15 36
-24 31 -38 -4 -15 0 -18 30 -18 28 0 36 4 36 18 0 10 12 25 28 33 38 20 51 39
52 77 0 17 5 32 10 32 6 0 10 16 10 35 0 59 -39 119 -41 63 0 -13 -2 -32 -4
-43 -2 -11 -7 -35 -10 -54 -8 -41 -45 -101 -63 -101 -7 0 -29 12 -48 28 -33
26 -34 29 -33 92 1 58 2 62 12 39 14 -30 41 -59 56 -59 19 0 33 121 18 160 -9
23 -7 31 11 50 27 30 55 88 47 100 -10 16 -25 11 -25 -8 0 -10 -6 -26 -13 -37
-13 -16 -15 -14 -21 23 -7 46 -18 58 -35 38z"/>
</g>
</svg>
