<svg version="1.0" xmlns="http://www.w3.org/2000/svg"
 width="45.000000pt" height="75.000000pt" viewBox="0 0 45.000000 75.000000"
 preserveAspectRatio="xMidYMid meet">
<metadata>
Created by potrace 1.15, written by Peter Selinger 2001-2017
</metadata>
<g transform="translate(0.000000,75.000000) scale(0.100000,-0.100000)"
fill="#000000" stroke="none">
<path d="M255 570 c-6 -71 -9 -80 -27 -80 -19 0 -20 4 -14 48 4 33 2 54 -7 67
-26 35 -35 7 -36 -117 -2 -104 1 -129 20 -175 26 -63 39 -70 43 -20 1 6 9 19
19 28 11 10 22 45 29 93 7 42 17 76 23 76 15 0 85 73 85 88 0 13 -16 17 -22 5
-1 -5 -18 -18 -35 -31 -33 -23 -33 -23 -33 0 0 33 -20 98 -29 98 -5 0 -12 -36
-16 -80z m-5 -134 c0 -14 -5 -37 -11 -53 -10 -26 -12 -27 -19 -8 -13 31 -11
73 3 78 23 10 27 7 27 -17z"/>
<path d="M290 342 c0 -15 5 -33 11 -39 9 -9 6 -26 -11 -70 -29 -73 -26 -70
-49 -45 -10 12 -23 22 -28 22 -5 0 -19 9 -31 20 -18 17 -21 28 -17 58 6 36 -7
73 -21 60 -11 -11 -25 -100 -18 -120 3 -10 11 -18 18 -18 20 0 106 -84 106
-103 0 -10 8 -17 18 -17 12 0 22 14 31 47 8 27 17 50 20 53 3 3 14 19 23 36
20 35 11 86 -21 123 -24 28 -31 27 -31 -7z"/>
</g>
</svg>
