<svg version="1.0" xmlns="http://www.w3.org/2000/svg"
 width="47.000000pt" height="79.000000pt" viewBox="0 0 47.000000 79.000000"
 preserveAspectRatio="xMidYMid meet">
<metadata>
Created by potrace 1.15, written by Peter Selinger 2001-2017
</metadata>
<g transform="translate(0.000000,79.000000) scale(0.100000,-0.100000)"
fill="#000000" stroke="none">
<path d="M210 505 c0 -63 -12 -72 -26 -19 -15 59 -29 44 -32 -35 -3 -85 28
-185 56 -179 15 3 42 75 42 114 0 21 38 64 56 64 16 0 81 66 89 89 10 33 -19
26 -61 -13 -54 -51 -71 -52 -92 -5 -9 21 -20 39 -24 39 -5 0 -8 -25 -8 -55z
m0 -125 c0 -5 -4 -10 -10 -10 -5 0 -10 5 -10 10 0 6 5 10 10 10 6 0 10 -4 10
-10z"/>
<path d="M105 280 c-3 -5 -8 -38 -12 -73 -6 -64 -5 -64 26 -83 17 -10 31 -21
31 -25 0 -4 9 -9 21 -12 16 -4 19 -11 14 -26 -5 -15 -2 -21 9 -21 9 0 16 4 16
8 0 4 18 28 40 52 22 24 40 52 40 61 0 9 2 29 5 45 3 16 1 36 -5 44 -9 13 -11
13 -20 0 -5 -8 -10 -30 -10 -47 0 -21 -10 -43 -27 -63 -28 -31 -28 -31 -66 3
-35 30 -38 36 -32 69 10 54 -10 100 -30 68z"/>
</g>
</svg>
