<svg version="1.0" xmlns="http://www.w3.org/2000/svg"
 width="65.000000pt" height="113.000000pt" viewBox="0 0 65.000000 113.000000"
 preserveAspectRatio="xMidYMid meet">
<metadata>
Created by potrace 1.15, written by Peter Selinger 2001-2017
</metadata>
<g transform="translate(0.000000,113.000000) scale(0.100000,-0.100000)"
fill="#000000" stroke="none">
<path d="M523 928 c-6 -13 -16 -47 -23 -76 -14 -51 -40 -92 -61 -92 -6 0 -10
25 -9 63 3 103 2 107 -20 107 -29 0 -40 -37 -41 -143 -1 -92 -1 -92 -39 -125
-45 -38 -60 -35 -60 12 0 30 -15 56 -32 56 -4 0 -8 -46 -8 -102 0 -113 22
-202 71 -293 32 -59 55 -77 69 -55 28 45 50 178 55 347 2 47 19 82 42 83 30 1
83 99 83 152 0 10 5 27 12 37 9 15 9 23 -1 35 -18 22 -26 20 -38 -6z m-155
-452 c-4 -48 -10 -97 -14 -109 -6 -19 -8 -17 -23 14 -22 46 -39 105 -46 159
-5 45 -5 45 37 65 43 20 43 20 49 -10 3 -17 2 -70 -3 -119z"/>
<path d="M515 640 c-5 -8 1 -302 7 -328 3 -15 -14 -78 -25 -93 -20 -27 -88
-69 -111 -69 -12 0 -34 13 -51 28 -16 15 -43 36 -60 46 -70 44 -85 66 -85 126
0 31 -3 60 -7 63 -3 4 -8 39 -10 79 -2 39 -10 83 -17 97 -13 24 -14 24 -24 5
-7 -14 -8 -39 -1 -80 5 -32 12 -97 16 -144 6 -97 20 -123 88 -170 24 -16 64
-51 90 -77 47 -47 47 -47 99 -20 64 33 124 91 133 126 10 40 7 361 -4 404 -5
18 -28 23 -38 7z"/>
</g>
</svg>
