<svg version="1.0" xmlns="http://www.w3.org/2000/svg"
 width="71.000000pt" height="89.000000pt" viewBox="0 0 71.000000 89.000000"
 preserveAspectRatio="xMidYMid meet">
<metadata>
Created by potrace 1.15, written by Peter Selinger 2001-2017
</metadata>
<g transform="translate(0.000000,89.000000) scale(0.100000,-0.100000)"
fill="#000000" stroke="none">
<path d="M206 664 c-10 -26 -7 -184 4 -184 18 0 30 39 30 97 0 87 -17 131 -34
87z"/>
<path d="M486 629 c-3 -8 -6 -23 -8 -33 -5 -29 -20 -29 -62 -1 -20 14 -41 25
-46 25 -35 0 38 -75 83 -85 37 -9 34 -24 -13 -70 -37 -37 -40 -38 -58 -22 -27
24 -32 21 -22 -13 7 -23 5 -32 -8 -40 -16 -9 -16 -11 1 -20 25 -16 24 -151 -3
-221 -10 -29 -17 -56 -14 -61 10 -15 42 22 60 68 16 42 18 44 35 28 11 -10 19
-20 19 -24 0 -4 7 -24 15 -44 14 -32 18 -35 36 -25 11 6 30 33 41 60 12 27 23
47 26 44 3 -3 13 -26 21 -52 17 -48 51 -79 37 -32 -16 53 -37 203 -32 225 4
15 14 24 26 24 24 0 25 4 4 36 -16 24 -16 26 6 49 21 23 22 25 5 25 -10 0 -26
-7 -36 -16 -16 -14 -20 -13 -55 19 -42 38 -41 61 3 78 76 30 93 40 93 54 0 12
-7 14 -27 9 -16 -4 -36 -11 -45 -15 -25 -13 -48 -11 -48 5 0 7 -7 19 -15 26
-12 10 -16 10 -19 -1z m57 -204 c20 -13 22 -22 21 -92 -1 -76 -2 -78 -28 -81
-24 -3 -26 0 -26 32 0 26 5 36 20 41 11 3 20 10 20 15 0 4 -9 10 -20 13 -16 4
-20 14 -20 46 0 46 2 47 33 26z m-63 -28 c0 -27 -6 -36 -27 -46 -26 -12 -26
-12 -4 -27 33 -23 25 -68 -11 -72 -26 -3 -28 -1 -28 36 0 22 -3 53 -6 70 -6
27 -2 33 27 51 45 28 49 27 49 -12z m45 -187 c7 -11 -20 -60 -33 -60 -13 1
-43 50 -37 60 8 13 62 13 70 0z"/>
<path d="M120 581 c0 -52 -17 -94 -46 -116 -15 -11 -16 -16 -7 -26 10 -10 18
-8 38 11 49 46 69 116 45 161 -18 33 -30 21 -30 -30z"/>
<path d="M295 610 c-8 -13 3 -87 17 -112 8 -17 48 -26 48 -10 0 4 -9 21 -20
37 -14 22 -18 39 -14 63 5 25 3 32 -9 32 -9 0 -19 -5 -22 -10z"/>
<path d="M257 494 c-4 -4 -7 -14 -7 -23 0 -9 -33 -35 -73 -59 -93 -55 -122
-102 -115 -181 4 -35 -1 -70 -13 -108 -24 -70 -24 -76 1 -63 31 17 39 40 50
155 5 59 15 114 21 121 6 8 39 28 73 45 79 40 98 57 94 88 -3 25 -19 37 -31
25z"/>
<path d="M205 328 c-3 -13 -4 -78 -3 -146 4 -174 22 -158 26 23 2 93 -1 145
-8 145 -5 0 -12 -10 -15 -22z"/>
<path d="M145 283 c0 -27 -5 -61 -9 -77 -7 -22 -6 -28 5 -24 23 8 44 93 31
123 -17 38 -27 30 -27 -22z"/>
<path d="M278 325 c-11 -11 4 -130 18 -145 12 -12 14 -5 14 51 0 60 -17 109
-32 94z"/>
</g>
</svg>
