<svg version="1.0" xmlns="http://www.w3.org/2000/svg"
 width="65.000000pt" height="119.000000pt" viewBox="0 0 65.000000 119.000000"
 preserveAspectRatio="xMidYMid meet">
<metadata>
Created by potrace 1.15, written by Peter Selinger 2001-2017
</metadata>
<g transform="translate(0.000000,119.000000) scale(0.100000,-0.100000)"
fill="#000000" stroke="none">
<path d="M245 1058 c-155 -16 -173 -22 -184 -66 -10 -39 -18 -138 -26 -342
-11 -277 -17 -367 -26 -400 -5 -19 -9 -68 -9 -108 0 -64 2 -73 17 -70 34 6 46
93 59 408 4 80 9 172 13 205 6 60 6 60 116 66 61 3 116 3 122 1 16 -5 13 -50
-4 -63 -7 -6 -44 -26 -84 -45 -39 -19 -84 -48 -100 -65 -28 -30 -47 -74 -36
-85 9 -9 47 16 86 55 38 38 55 49 134 89 47 24 49 24 95 7 79 -29 102 -40 102
-47 0 -5 6 -8 13 -8 7 0 28 -13 47 -30 40 -33 55 -37 64 -14 10 25 7 32 -16
54 -26 24 -62 42 -131 64 -75 25 -107 45 -107 66 0 26 6 28 84 32 68 3 69 3
83 37 20 46 18 137 -2 168 -18 27 -35 22 -35 -11 0 -23 -2 -23 -159 -29 -87
-4 -182 -4 -210 0 -45 5 -51 9 -51 29 0 27 6 31 50 39 18 3 37 8 41 11 4 2 94
5 199 5 104 1 193 5 195 9 4 7 -17 37 -28 41 -19 6 -238 4 -312 -3z m261 -191
c4 -3 4 -17 0 -30 -5 -22 -13 -25 -73 -31 -107 -11 -306 -14 -326 -4 -10 5
-17 20 -17 38 0 29 0 29 73 32 116 5 337 2 343 -5z"/>
<path d="M437 512 c-13 -15 -17 -39 -17 -114 0 -99 -18 -168 -43 -168 -15 0
-37 114 -37 195 0 44 -4 57 -22 69 -12 9 -28 16 -34 16 -19 0 -91 -73 -98
-100 -4 -14 -11 -34 -15 -45 -24 -60 -32 -97 -38 -157 -5 -58 -3 -68 12 -74
23 -9 32 8 39 75 12 102 36 188 61 211 13 12 28 19 33 16 5 -3 13 -38 16 -77
4 -39 11 -79 16 -88 4 -9 13 -34 20 -56 13 -40 78 -110 113 -121 9 -3 17 -10
17 -15 0 -5 9 -9 20 -9 11 0 20 -3 20 -8 0 -10 75 -42 100 -42 14 0 20 7 20
23 0 19 -10 28 -42 42 -24 10 -61 27 -84 36 -63 28 -70 41 -50 93 10 25 18 83
21 136 4 98 13 122 40 100 8 -7 15 -19 15 -26 0 -8 3 -14 8 -14 6 0 43 -110
56 -170 9 -39 22 -54 41 -46 13 5 16 14 12 44 -11 80 -21 110 -70 210 -15 31
-33 49 -61 63 -49 23 -49 23 -69 1z"/>
</g>
</svg>
