<svg version="1.0" xmlns="http://www.w3.org/2000/svg"
 width="68.000000pt" height="78.000000pt" viewBox="0 0 68.000000 78.000000"
 preserveAspectRatio="xMidYMid meet">
<metadata>
Created by potrace 1.15, written by Peter Selinger 2001-2017
</metadata>
<g transform="translate(0.000000,78.000000) scale(0.100000,-0.100000)"
fill="#000000" stroke="none">
<path d="M565 718 c-2 -7 -5 -24 -7 -38 -3 -24 -5 -25 -95 -28 -92 -3 -92 -3
-95 30 -5 54 -31 42 -40 -18 -4 -28 -17 -73 -28 -99 -11 -26 -18 -50 -15 -53
10 -10 42 29 55 68 10 31 18 40 36 40 13 0 28 -9 34 -19 14 -28 13 -41 -5 -41
-9 0 -27 -11 -40 -25 -22 -21 -25 -33 -25 -90 0 -57 3 -69 25 -90 27 -27 73
-32 136 -15 62 17 79 42 79 115 0 67 -20 105 -55 105 -10 0 -15 10 -15 31 0
27 3 30 27 27 22 -2 31 -11 43 -46 20 -53 45 -81 61 -65 9 9 6 19 -11 43 -15
22 -24 52 -29 102 -3 43 -11 73 -18 76 -7 2 -15 -2 -18 -10z m-85 -128 c0 -11
-7 -20 -15 -20 -8 0 -15 9 -15 20 0 11 7 20 15 20 8 0 15 -9 15 -20z m8 -86
c2 -20 14 -42 33 -58 16 -14 29 -30 29 -35 0 -19 -20 -22 -42 -7 -28 20 -58
20 -84 1 -28 -21 -54 -19 -54 5 0 13 12 28 30 38 20 11 34 30 42 55 14 47 42
47 46 1z m-68 9 c0 -20 -28 -53 -47 -53 -16 0 -17 24 -3 51 13 24 50 26 50 2z
m120 -4 c13 -24 8 -34 -15 -26 -16 7 -21 47 -5 47 5 0 14 -9 20 -21z m-56
-128 c3 -5 -4 -11 -17 -15 -33 -9 -67 -7 -67 3 0 17 75 28 84 12z"/>
<path d="M65 650 c-23 -25 -25 -87 -4 -101 7 -5 26 -12 41 -15 26 -6 26 -8 33
-110 9 -125 3 -157 -28 -152 -20 3 -22 9 -25 78 -3 95 -9 120 -27 120 -11 0
-15 -12 -15 -42 0 -24 -3 -66 -6 -95 -6 -46 -4 -54 19 -77 22 -22 35 -26 82
-26 40 0 57 -4 61 -15 9 -22 -31 -70 -86 -106 -52 -34 -60 -46 -35 -55 44 -17
165 101 165 160 0 29 -18 46 -48 46 -20 0 -23 4 -20 32 2 26 8 33 35 40 18 5
38 18 44 30 11 20 8 122 -4 134 -15 15 -27 -12 -27 -61 0 -44 -4 -56 -20 -65
-27 -15 -32 -1 -28 85 3 69 3 69 43 89 34 18 40 26 43 58 4 51 -23 68 -109 68
-54 0 -69 -4 -84 -20z m151 -31 c18 -20 18 -21 -6 -40 -48 -36 -150 -14 -124
28 22 35 102 43 130 12z"/>
<path d="M580 316 c0 -43 -22 -57 -49 -32 -27 24 -131 20 -131 -5 0 -5 17 -9
38 -9 43 0 77 -16 52 -24 -64 -20 -116 -6 -145 38 -15 23 -45 36 -45 20 0 -17
36 -63 66 -83 29 -20 42 -23 89 -18 55 6 55 6 66 -36 6 -22 8 -53 5 -68 -6
-32 6 -81 22 -87 26 -8 35 43 23 128 -12 82 -12 82 26 115 37 33 38 34 23 61
-23 42 -40 42 -40 0z"/>
<path d="M318 152 c-17 -2 -28 -9 -28 -18 0 -12 16 -14 93 -12 74 2 92 6 92
18 0 12 -14 15 -65 15 -36 0 -77 -1 -92 -3z"/>
</g>
</svg>
