<svg version="1.0" xmlns="http://www.w3.org/2000/svg"
 width="68.000000pt" height="130.000000pt" viewBox="0 0 68.000000 130.000000"
 preserveAspectRatio="xMidYMid meet">
<metadata>
Created by potrace 1.15, written by Peter Selinger 2001-2017
</metadata>
<g transform="translate(0.000000,130.000000) scale(0.100000,-0.100000)"
fill="#000000" stroke="none">
<path d="M145 1190 c-4 -6 -1 -27 5 -46 24 -73 -20 -214 -91 -288 -42 -45 -48
-61 -23 -70 18 -7 69 41 111 105 44 66 68 211 44 257 -5 9 -12 25 -15 35 -6
19 -21 23 -31 7z"/>
<path d="M343 1158 c-13 -6 -23 -16 -23 -21 0 -6 -7 -19 -16 -28 -14 -15 -15
-26 -6 -59 10 -42 6 -80 -9 -80 -5 0 -9 -7 -9 -15 0 -8 -4 -15 -9 -15 -5 0
-13 -9 -16 -20 -4 -11 -22 -37 -41 -58 -32 -35 -46 -82 -24 -82 15 0 90 80 90
96 0 8 3 14 8 14 4 0 20 20 35 45 28 44 48 54 76 36 9 -6 11 -18 6 -39 -8 -38
-42 -111 -60 -129 -7 -7 -15 -18 -17 -24 -2 -7 -20 -12 -39 -11 -56 2 -105
-15 -116 -41 -6 -13 -12 -91 -12 -173 -2 -171 9 -213 60 -239 30 -16 30 -16
24 -115 -3 -54 -10 -113 -15 -131 -8 -25 -6 -37 4 -47 24 -24 43 32 51 148 4
58 9 108 11 111 6 10 69 20 86 14 14 -6 31 -84 43 -207 7 -61 29 -93 46 -67 5
8 7 30 4 49 -2 19 -8 82 -11 140 -7 106 -7 106 21 124 45 30 54 69 54 227 -1
135 -7 172 -33 191 -5 3 -36 10 -68 13 -32 4 -58 9 -58 11 0 6 24 48 31 54 13
11 49 90 49 109 0 35 -20 66 -53 80 -45 20 -67 41 -67 66 0 24 17 45 38 45 13
0 42 23 42 34 0 10 -54 5 -77 -6z m130 -438 c12 -12 14 -69 4 -73 -22 -8 -251
3 -260 12 -16 16 1 59 26 64 28 6 224 4 230 -3z m17 -129 c0 -10 -3 -33 -6
-51 -7 -32 -7 -32 -134 -28 -69 2 -131 8 -138 12 -7 4 -12 22 -12 41 0 41 2
42 168 44 113 1 122 0 122 -18z m-52 -120 c42 -1 42 -1 42 -46 0 -54 -26 -76
-100 -83 -79 -7 -135 5 -150 33 -7 14 -19 25 -27 25 -15 0 -17 16 -3 25 6 4 9
14 8 23 -2 14 8 18 57 22 33 3 76 4 95 3 19 -1 54 -2 78 -2z"/>
<path d="M495 1114 c-8 -63 0 -145 18 -177 26 -46 80 -108 107 -122 38 -20 47
-19 53 5 3 14 -11 34 -52 74 -89 86 -86 80 -85 183 0 82 -2 93 -17 93 -14 0
-19 -12 -24 -56z"/>
</g>
</svg>
