<svg version="1.0" xmlns="http://www.w3.org/2000/svg"
 width="95.000000pt" height="151.000000pt" viewBox="0 0 95.000000 151.000000"
 preserveAspectRatio="xMidYMid meet">
<metadata>
Created by potrace 1.15, written by Peter Selinger 2001-2017
</metadata>
<g transform="translate(0.000000,151.000000) scale(0.100000,-0.100000)"
fill="#000000" stroke="none">
<path d="M421 1351 c-26 -26 -156 -91 -216 -107 -27 -8 -69 -14 -93 -14 -36 0
-43 -3 -40 -17 3 -15 17 -18 86 -21 75 -3 90 0 148 28 85 40 110 40 118 -1 3
-17 6 -48 6 -69 0 -35 -2 -38 -60 -64 -99 -44 -146 -56 -210 -57 -64 -1 -84
-15 -61 -43 17 -20 116 -39 140 -27 11 6 26 11 34 11 18 0 37 -50 37 -99 0
-37 0 -37 -97 -60 -53 -12 -102 -29 -110 -36 -9 -9 -13 -41 -13 -98 0 -72 3
-86 17 -91 10 -3 29 -13 43 -21 14 -8 48 -15 77 -15 28 0 54 -4 57 -9 3 -4 -1
-37 -8 -72 -12 -61 -12 -66 11 -101 12 -21 23 -40 23 -44 0 -8 21 -28 53 -49
27 -17 28 -20 25 -93 -3 -73 -4 -77 -34 -94 -17 -10 -52 -19 -78 -19 -49 -2
-66 -13 -48 -31 10 -10 98 -11 462 -2 80 2 157 4 173 4 30 1 36 20 12 40 -8 7
-49 16 -92 21 -42 5 -79 13 -83 19 -3 6 -12 40 -20 77 -11 59 -11 67 4 75 50
28 98 169 77 228 -20 58 -15 77 22 84 19 3 43 15 55 26 12 11 26 20 32 20 5 0
10 4 10 9 0 5 7 17 16 26 20 20 22 71 3 113 -18 40 -69 61 -159 65 -65 2 -65
2 -68 47 -5 78 5 92 72 94 65 2 85 19 59 48 -11 13 -31 18 -64 18 -26 0 -51 5
-54 10 -3 6 -19 10 -36 10 -31 0 -112 34 -127 53 -24 30 -22 127 3 127 6 0 27
-8 45 -17 43 -21 94 -32 194 -43 94 -10 108 -6 104 29 -3 28 -7 29 -148 50
-83 12 -188 50 -215 77 -29 29 -58 31 -84 5z m79 -321 c14 -11 37 -20 52 -20
50 0 59 -9 52 -47 -4 -20 -7 -56 -8 -81 -1 -46 -1 -46 -102 -50 -102 -3 -102
-3 -113 61 -17 101 -16 109 27 133 47 28 61 28 92 4z m-194 -322 c-4 -34 -10
-66 -12 -70 -3 -4 -30 -8 -60 -8 -48 0 -56 3 -63 23 -5 13 -6 38 -2 56 7 37
38 55 103 58 41 3 41 3 34 -59z m202 50 c9 -9 12 -9 12 0 0 7 4 12 10 12 5 0
7 -8 4 -17 -5 -17 -5 -17 6 0 13 20 36 22 54 4 23 -23 47 -78 44 -100 -3 -20
-10 -22 -78 -27 -41 -3 -103 -3 -137 -2 -69 4 -68 0 -42 105 10 37 10 37 62
37 29 0 58 -5 65 -12z m326 -10 c21 -30 20 -47 -6 -75 -16 -17 -32 -23 -64
-23 -38 0 -44 4 -58 32 -9 17 -16 44 -16 60 0 28 0 28 64 28 56 0 67 -3 80
-22z m-160 -200 c24 -46 17 -128 -15 -193 -13 -26 -127 -50 -186 -40 -48 9
-98 42 -113 74 -12 26 -15 154 -5 171 4 6 65 10 147 9 77 0 143 2 146 5 8 9
10 8 26 -26z m-60 -335 c21 -119 24 -109 -36 -116 -29 -4 -70 -7 -90 -7 -38 0
-38 0 -38 64 0 96 0 96 85 96 73 0 73 0 79 -37z"/>
</g>
</svg>
