<svg version="1.0" xmlns="http://www.w3.org/2000/svg"
 width="85.000000pt" height="159.000000pt" viewBox="0 0 85.000000 159.000000"
 preserveAspectRatio="xMidYMid meet">
<metadata>
Created by potrace 1.15, written by Peter Selinger 2001-2017
</metadata>
<g transform="translate(0.000000,159.000000) scale(0.100000,-0.100000)"
fill="#000000" stroke="none">
<path d="M408 1485 c-3 -3 -3 -26 0 -50 5 -44 4 -45 -34 -61 -72 -30 -259
-126 -266 -138 -27 -40 39 -34 131 13 42 21 93 41 114 44 33 5 37 3 38 -16 2
-41 -3 -82 -12 -98 -12 -23 -193 -109 -229 -109 -38 0 -60 -9 -60 -26 0 -14
45 -20 121 -16 42 2 49 -7 56 -75 5 -47 5 -48 -88 -43 -28 1 -39 -4 -52 -24
-10 -14 -17 -32 -17 -41 0 -8 -4 -15 -8 -15 -13 0 -36 -121 -26 -137 5 -8 23
-22 39 -31 17 -9 32 -20 33 -24 2 -5 24 -8 48 -8 24 0 44 -2 44 -5 0 -3 -11
-28 -25 -55 -14 -27 -25 -56 -25 -65 0 -8 -4 -15 -10 -15 -6 0 -10 -26 -10
-57 0 -72 23 -113 87 -153 26 -17 51 -36 55 -43 4 -7 4 -39 1 -70 -6 -57 -6
-57 -53 -57 -26 0 -50 -3 -54 -7 -7 -8 -12 -9 -53 -11 -32 -3 -29 -30 4 -44
18 -7 121 -13 279 -16 219 -3 255 -2 283 12 17 9 29 21 26 26 -13 20 -72 40
-120 40 -58 0 -65 7 -65 63 0 48 11 77 27 77 26 0 113 48 138 77 50 57 19 199
-59 278 -31 31 -33 45 -7 45 10 0 24 7 31 15 7 8 30 18 52 21 32 6 41 12 53
42 8 19 15 54 15 79 0 39 -5 49 -50 96 -45 46 -52 51 -70 39 -29 -18 -87 -15
-94 4 -4 9 -1 22 5 30 6 7 8 22 4 33 -9 28 3 31 72 17 56 -12 64 -12 78 4 8 9
15 19 15 23 0 14 -118 57 -156 57 -12 0 -24 4 -26 8 -1 4 -28 20 -59 34 -56
26 -56 26 -47 90 6 35 11 64 12 65 2 2 21 -6 44 -17 22 -11 45 -20 50 -20 5 0
35 -12 66 -26 64 -29 106 -27 106 6 0 15 -17 28 -67 51 -196 90 -203 94 -203
114 0 39 -61 90 -82 70z m74 -387 c43 -25 48 -35 48 -102 0 -66 0 -66 -88 -66
-88 0 -88 0 -104 34 -9 19 -14 43 -11 54 2 11 0 23 -6 27 -14 8 29 45 52 45 9
0 19 5 22 10 9 14 61 12 87 -2z m51 -235 c3 -4 8 -36 12 -70 8 -72 15 -68
-121 -78 -82 -6 -82 -6 -77 42 8 86 10 90 50 100 51 12 130 16 136 6z m175
-29 c15 -10 22 -24 22 -45 0 -32 -4 -35 -70 -44 -45 -5 -46 -5 -58 28 -14 38
-15 70 -4 81 10 11 83 -2 110 -20z m-437 -50 c-1 -63 -8 -78 -22 -51 -6 10
-22 17 -40 17 -46 0 -79 40 -44 54 8 3 15 12 15 20 0 10 13 16 43 18 23 2 44
2 46 1 2 -1 3 -28 2 -59z m320 -176 c13 -18 29 -39 36 -46 18 -19 59 -110 66
-150 14 -70 -27 -97 -169 -113 -134 -15 -215 0 -249 46 -14 17 -25 44 -25 58
0 14 -5 38 -10 53 -8 19 -8 30 0 38 5 5 10 20 10 32 0 12 6 27 14 33 8 6 19
25 26 41 12 29 12 29 134 33 66 1 126 4 133 5 6 1 22 -13 34 -30z m-106 -433
c0 -60 0 -60 -57 -63 -58 -3 -58 -3 -58 29 0 18 5 48 12 66 12 32 14 34 58 31
45 -3 45 -3 45 -63z"/>
</g>
</svg>
