<svg version="1.0" xmlns="http://www.w3.org/2000/svg"
 width="77.000000pt" height="109.000000pt" viewBox="0 0 77.000000 109.000000"
 preserveAspectRatio="xMidYMid meet">
<metadata>
Created by potrace 1.15, written by Peter Selinger 2001-2017
</metadata>
<g transform="translate(0.000000,109.000000) scale(0.100000,-0.100000)"
fill="#000000" stroke="none">
<path d="M312 920 c-12 -27 -27 -50 -34 -50 -7 0 -49 -18 -93 -40 -44 -22 -85
-40 -91 -40 -7 0 -15 -7 -18 -15 -9 -23 21 -30 68 -16 101 29 132 39 149 46
14 6 17 2 17 -19 0 -14 -4 -26 -10 -26 -5 0 -10 -9 -10 -21 0 -24 -17 -58 -40
-79 -9 -8 -27 -31 -40 -50 -13 -19 -39 -52 -57 -73 -33 -38 -41 -61 -23 -72 5
-3 20 -1 32 6 12 6 36 14 54 16 26 4 32 0 38 -19 8 -33 8 -38 -7 -38 -7 0 -30
-9 -52 -20 -22 -11 -45 -20 -51 -20 -15 0 -34 -53 -34 -93 0 -32 42 -87 67
-87 7 0 31 -6 53 -12 36 -12 40 -16 40 -47 0 -25 -4 -32 -14 -28 -8 3 -31 9
-50 13 -38 7 -48 -6 -24 -30 25 -23 186 -96 215 -96 31 0 145 76 156 103 9 24
-12 37 -39 25 -13 -6 -24 -15 -24 -20 0 -4 -7 -8 -16 -8 -11 0 -14 5 -10 16 3
9 6 26 6 39 0 35 23 52 82 60 67 9 135 41 155 72 16 24 13 87 -7 124 -12 21
-97 49 -152 49 -34 0 -38 3 -38 25 0 14 3 26 8 26 4 1 17 3 30 4 12 1 25 5 28
7 13 14 -24 67 -100 143 -79 79 -106 118 -91 133 3 3 14 1 24 -5 10 -6 35 -15
55 -18 29 -6 36 -4 36 8 0 17 -37 57 -52 57 -24 0 -69 48 -79 82 -5 21 -16 38
-23 38 -7 0 -23 -22 -34 -50z m93 -275 c25 -25 45 -50 45 -55 0 -10 -52 -18
-147 -23 -41 -2 -60 1 -56 8 6 10 58 78 78 102 17 21 33 14 80 -32z m43 -151
c2 -16 -5 -23 -36 -32 -22 -7 -54 -12 -72 -12 -25 0 -31 3 -26 16 3 9 6 22 6
29 0 9 16 15 48 18 70 5 77 4 80 -19z m2 -144 c0 -76 -20 -100 -84 -100 -43 0
-43 0 -50 46 -11 87 -10 90 37 101 23 6 54 11 70 12 27 1 27 0 27 -59z m210
28 c13 -25 13 -30 -2 -55 -12 -20 -30 -30 -70 -40 -99 -23 -98 -23 -98 57 0
71 0 71 77 68 72 -3 78 -5 93 -30z m-391 -90 c1 -43 -9 -47 -63 -24 -58 24
-56 89 2 102 15 3 32 7 37 8 12 3 22 -34 24 -86z m146 -140 c-10 -79 -8 -78
-52 -63 -40 14 -50 35 -39 80 6 23 23 31 74 34 22 1 22 -1 17 -51z"/>
</g>
</svg>
