<svg version="1.0" xmlns="http://www.w3.org/2000/svg"
 width="68.000000pt" height="89.000000pt" viewBox="0 0 68.000000 89.000000"
 preserveAspectRatio="xMidYMid meet">
<metadata>
Created by potrace 1.15, written by Peter Selinger 2001-2017
</metadata>
<g transform="translate(0.000000,89.000000) scale(0.100000,-0.100000)"
fill="#000000" stroke="none">
<path d="M508 783 c-34 -5 -78 -46 -78 -73 0 -18 -6 -20 -54 -20 -51 0 -55 2
-75 35 -21 36 -21 36 -98 33 -61 -2 -78 -6 -78 -18 0 -11 16 -16 60 -20 51 -4
60 -8 63 -26 2 -16 -7 -25 -38 -39 -62 -28 -84 -77 -76 -169 4 -39 3 -91 -2
-116 -5 -25 -5 -57 -1 -72 4 -15 2 -48 -3 -73 -7 -34 -7 -50 2 -58 18 -18 36
14 50 88 7 36 16 65 20 65 20 0 100 -150 100 -187 0 -24 31 -63 51 -63 21 0
33 20 44 70 4 19 23 68 42 108 19 40 32 80 29 88 -9 23 -17 13 -66 -80 -24
-47 -47 -86 -50 -86 -4 0 -13 12 -20 28 -36 72 -87 143 -112 153 -27 11 -28
14 -28 91 0 100 16 165 45 184 18 11 53 14 161 12 139 -3 139 -3 139 -33 0
-29 0 -29 -105 -42 -118 -14 -180 -29 -180 -43 0 -6 25 -10 55 -10 52 0 55 -1
55 -25 0 -27 -33 -99 -50 -110 -12 -7 -13 -35 -2 -35 5 0 26 15 46 33 30 25
40 43 47 81 10 57 16 62 80 71 25 4 61 15 79 26 29 18 32 23 26 57 -9 48 -38
72 -87 72 -21 0 -39 3 -39 8 0 13 46 50 83 68 60 29 46 39 -35 27z"/>
<path d="M435 480 c-3 -5 16 -26 41 -47 47 -38 47 -38 41 -127 -5 -76 -3 -99
18 -166 23 -72 53 -118 68 -103 13 12 7 42 -15 85 -20 38 -23 58 -23 171 0
129 0 129 -28 152 -33 26 -95 47 -102 35z"/>
<path d="M324 295 c-18 -14 -17 -14 13 -15 37 0 63 9 63 21 0 14 -54 10 -76
-6z"/>
</g>
</svg>
