<svg version="1.0" xmlns="http://www.w3.org/2000/svg"
 width="69.000000pt" height="83.000000pt" viewBox="0 0 69.000000 83.000000"
 preserveAspectRatio="xMidYMid meet">
<metadata>
Created by potrace 1.15, written by Peter Selinger 2001-2017
</metadata>
<g transform="translate(0.000000,83.000000) scale(0.100000,-0.100000)"
fill="#000000" stroke="none">
<path d="M315 764 c-22 -13 -57 -33 -77 -44 -20 -11 -53 -41 -73 -66 -35 -47
-35 -47 -36 -163 -1 -64 -3 -127 -5 -141 -11 -98 -26 -185 -39 -226 -18 -61
-19 -97 -3 -92 16 6 35 81 54 208 13 93 17 127 29 300 7 85 7 85 53 120 26 19
49 37 52 40 3 4 22 14 43 24 36 17 77 14 77 -5 0 -5 6 -9 14 -9 20 0 90 -39
128 -71 32 -26 32 -26 39 -155 4 -71 10 -142 13 -159 24 -106 67 -204 94 -213
17 -5 15 18 -7 64 -30 63 -61 207 -70 327 -10 130 -18 154 -61 190 -25 22
-172 99 -182 96 -2 0 -21 -11 -43 -25z"/>
<path d="M362 658 c3 -51 2 -53 -27 -61 -77 -24 -72 -15 -80 -142 -5 -73 -4
-120 2 -126 7 -7 12 8 16 43 7 60 24 78 73 78 31 0 33 -2 40 -45 3 -25 10 -48
15 -51 5 -3 9 -15 9 -27 0 -31 150 -237 172 -237 17 0 6 25 -34 79 -24 31 -46
58 -50 61 -3 3 -22 37 -42 76 -36 73 -57 154 -39 154 6 0 24 12 41 28 32 28
52 68 52 105 0 21 -4 22 -59 19 -59 -4 -59 -4 -56 30 4 45 -3 68 -22 68 -12 0
-14 -11 -11 -52z m118 -98 c0 -16 -43 -50 -63 -50 -13 0 -17 5 -13 16 3 9 6
22 6 30 0 9 11 14 35 14 19 0 35 -4 35 -10z m-110 -35 c0 -33 -2 -35 -35 -35
-28 0 -35 4 -35 19 0 11 7 27 16 35 8 9 24 16 35 16 15 0 19 -7 19 -35z"/>
</g>
</svg>
