<svg version="1.0" xmlns="http://www.w3.org/2000/svg"
 width="61.000000pt" height="115.000000pt" viewBox="0 0 61.000000 115.000000"
 preserveAspectRatio="xMidYMid meet">
<metadata>
Created by potrace 1.15, written by Peter Selinger 2001-2017
</metadata>
<g transform="translate(0.000000,115.000000) scale(0.100000,-0.100000)"
fill="#000000" stroke="none">
<path d="M310 1005 c0 -27 -66 -99 -159 -173 -43 -34 -59 -72 -22 -53 28 15
31 -2 24 -121 -4 -68 -2 -100 4 -93 21 21 33 81 33 166 0 89 0 89 40 114 22
14 43 25 48 25 4 0 14 9 22 20 8 11 19 20 25 20 18 0 124 -109 130 -133 3 -12
1 -28 -4 -36 -8 -12 -15 -8 -38 19 -15 18 -32 40 -37 49 -14 23 -33 41 -38 35
-3 -2 -2 -24 3 -47 4 -23 8 -45 9 -48 0 -3 -13 -20 -29 -36 -45 -47 -54 -71
-52 -137 2 -89 -35 -202 -71 -217 -41 -17 -45 -44 -11 -79 33 -36 37 -36 91
-10 22 11 48 20 56 20 8 0 18 5 21 10 3 6 15 10 27 10 18 0 19 -4 13 -52 -7
-56 -21 -111 -37 -141 -15 -30 1 -33 25 -7 29 31 42 66 62 160 31 140 31 130
-2 130 -16 0 -41 -10 -56 -22 -28 -23 -147 -71 -155 -63 -6 5 60 64 81 70 9 4
17 9 17 13 0 4 18 18 39 32 44 27 64 77 54 138 -4 23 0 39 12 52 21 23 35 26
35 6 0 -7 6 -26 14 -40 14 -27 14 -27 20 -1 4 14 1 74 -5 133 -12 107 -12 107
-78 172 -39 39 -70 80 -76 100 -12 42 -35 52 -35 15z m106 -333 c-10 -10 -29
15 -21 28 6 9 10 8 17 -4 6 -10 7 -20 4 -24z m41 -4 c-3 -8 -6 -5 -6 6 -1 11
2 17 5 13 3 -3 4 -12 1 -19z m-123 -22 c-6 -15 -24 -23 -24 -11 0 8 24 34 28
30 1 -1 0 -10 -4 -19z m37 -98 c2 -40 -2 -52 -29 -75 -31 -26 -41 -14 -22 25
7 15 17 37 23 50 6 12 14 22 19 22 4 0 9 -10 9 -22z"/>
</g>
</svg>
