<svg version="1.0" xmlns="http://www.w3.org/2000/svg"
 width="65.000000pt" height="85.000000pt" viewBox="0 0 65.000000 85.000000"
 preserveAspectRatio="xMidYMid meet">
<metadata>
Created by potrace 1.15, written by Peter Selinger 2001-2017
</metadata>
<g transform="translate(0.000000,85.000000) scale(0.100000,-0.100000)"
fill="#000000" stroke="none">
<path d="M163 671 c-89 -7 -99 -11 -89 -37 4 -11 13 -14 29 -10 12 3 62 6 110
6 86 0 88 1 85 23 -4 26 -15 27 -135 18z"/>
<path d="M420 640 c0 -33 -4 -42 -25 -52 -50 -23 -69 -111 -39 -184 22 -54 28
-165 9 -190 -13 -18 -14 -16 -15 19 0 48 -16 48 -24 -1 -14 -86 -3 -122 36
-122 30 0 38 35 38 169 0 110 2 131 15 131 13 0 15 -27 15 -179 0 -180 6 -211
35 -180 9 11 10 50 2 183 -9 170 -9 170 16 188 26 19 27 48 3 48 -7 0 -17 18
-23 40 -10 38 -9 40 12 40 12 0 30 -9 39 -19 16 -18 17 -30 6 -153 -6 -73 -16
-143 -22 -155 -15 -31 -1 -90 24 -104 27 -15 64 5 85 44 17 34 11 108 -11 126
-11 9 -14 2 -19 -35 -5 -46 -20 -74 -34 -61 -7 7 7 113 33 249 18 98 6 131
-56 149 -35 11 -39 15 -42 48 -3 31 -7 36 -30 39 -27 3 -28 1 -28 -38z m3
-147 c-4 -25 -10 -33 -25 -33 -17 0 -19 4 -13 27 15 61 47 65 38 6z"/>
<path d="M103 571 c-28 -4 -55 -9 -58 -13 -15 -15 9 -28 49 -28 44 0 44 0 39
-44 -4 -35 -2 -46 14 -57 29 -21 40 -112 17 -147 -17 -26 -17 -26 -26 -2 -5
14 -6 41 -3 60 5 28 1 42 -14 61 -19 24 -19 24 -47 3 -39 -29 -42 -45 -7 -42
34 4 36 0 27 -58 -8 -53 7 -75 50 -77 22 -2 26 -7 26 -30 0 -28 -1 -29 -47
-25 -48 3 -48 3 -48 -57 0 -53 3 -61 25 -72 14 -7 56 -13 93 -13 59 0 71 3 92
25 21 20 25 34 25 85 0 53 -2 60 -20 60 -10 0 -24 -9 -30 -20 -6 -11 -20 -20
-30 -20 -15 0 -20 7 -20 30 0 26 4 30 36 36 46 9 62 39 46 91 -14 44 -7 57 24
49 29 -8 33 13 6 37 -42 39 -70 7 -74 -83 -2 -41 -7 -55 -18 -55 -25 0 -17
141 10 170 11 12 23 38 27 58 3 23 12 39 24 42 23 8 25 31 3 39 -19 7 -119 6
-191 -3z m117 -72 c0 -24 -4 -29 -24 -29 -39 0 -51 56 -13 62 31 6 37 1 37
-33z m38 -386 c-6 -31 -115 -45 -138 -18 -21 25 -1 35 71 35 61 0 70 -2 67
-17z"/>
</g>
</svg>
