<svg version="1.0" xmlns="http://www.w3.org/2000/svg"
 width="72.000000pt" height="81.000000pt" viewBox="0 0 72.000000 81.000000"
 preserveAspectRatio="xMidYMid meet">
<metadata>
Created by potrace 1.15, written by Peter Selinger 2001-2017
</metadata>
<g transform="translate(0.000000,81.000000) scale(0.100000,-0.100000)"
fill="#000000" stroke="none">
<path d="M450 640 c-63 -16 -67 -28 -75 -240 -7 -194 -4 -219 28 -207 11 4 16
45 21 194 6 157 10 190 24 201 9 7 21 11 27 9 10 -4 8 -284 -4 -395 -6 -57 -6
-57 -49 -63 -81 -11 -83 -49 -2 -49 49 0 49 0 52 -37 2 -30 7 -38 23 -38 15 0
21 10 28 42 8 43 8 43 62 43 30 0 57 5 60 10 13 22 -17 40 -66 40 -49 0 -49 0
-49 133 0 74 3 175 6 225 6 76 10 92 23 92 37 0 41 -19 41 -206 0 -101 4 -185
9 -188 5 -4 16 -3 25 0 14 5 16 32 16 195 0 181 -1 189 -22 214 -19 20 -34 26
-83 30 -33 2 -76 0 -95 -5z"/>
<path d="M193 631 c-87 -6 -99 -11 -90 -36 9 -22 235 -22 243 0 9 23 -15 45
-45 43 -14 -1 -63 -4 -108 -7z"/>
<path d="M196 520 c-103 -7 -135 -18 -120 -42 6 -10 245 -10 260 0 6 4 16 17
23 30 13 25 27 24 -163 12z"/>
<path d="M183 413 c-85 -3 -93 -6 -93 -23 0 -19 7 -20 114 -20 121 0 146 4
146 25 0 16 -24 26 -53 23 -12 -1 -64 -4 -114 -5z"/>
<path d="M121 289 c-20 -8 -21 -12 -10 -25 18 -22 195 -17 209 6 5 8 6 18 4
22 -7 11 -174 9 -203 -3z"/>
<path d="M185 190 c-43 -6 -64 -14 -77 -30 -28 -35 -23 -74 14 -105 30 -25 37
-27 91 -21 69 7 88 16 106 49 16 30 8 70 -19 97 -21 21 -23 21 -115 10z m74
-54 c26 -32 -14 -61 -75 -54 -32 3 -43 30 -24 53 16 19 84 19 99 1z"/>
</g>
</svg>
