<svg version="1.0" xmlns="http://www.w3.org/2000/svg"
 width="74.000000pt" height="122.000000pt" viewBox="0 0 74.000000 122.000000"
 preserveAspectRatio="xMidYMid meet">
<metadata>
Created by potrace 1.15, written by Peter Selinger 2001-2017
</metadata>
<g transform="translate(0.000000,122.000000) scale(0.100000,-0.100000)"
fill="#000000" stroke="none">
<path d="M86 1051 c-20 -38 -22 -141 -3 -141 8 0 22 -18 32 -40 20 -45 18 -51
-43 -104 -63 -56 -79 -123 -43 -182 20 -33 60 -48 100 -37 12 3 21 1 21 -6 0
-14 -45 -87 -59 -95 -32 -20 -51 -121 -35 -184 6 -22 68 -62 97 -62 25 0 73
53 86 95 23 72 33 95 45 95 27 1 48 29 42 54 -3 15 -11 26 -18 26 -18 0 -98
-70 -98 -86 0 -8 -4 -22 -9 -32 -5 -9 -16 -32 -23 -50 -10 -24 -19 -32 -38
-32 -57 0 -66 58 -20 130 16 25 37 59 46 75 9 17 23 34 30 38 18 10 17 57 0
80 -15 19 -41 23 -51 7 -9 -14 -48 -13 -63 2 -7 7 -12 31 -12 54 0 39 4 46 51
83 44 35 57 40 91 37 22 -2 44 -8 51 -15 6 -6 17 -11 23 -11 16 0 44 -56 44
-86 0 -26 -28 -64 -46 -64 -14 0 -27 45 -19 69 3 11 -4 26 -20 41 -24 23 -24
23 -35 -4 -14 -38 -1 -106 26 -133 28 -28 75 -30 105 -5 24 20 49 75 49 109 0
48 -84 143 -127 143 -55 0 -69 11 -102 74 -28 55 -32 71 -29 122 2 49 0 59
-14 62 -11 2 -23 -8 -32 -27z"/>
<path d="M453 984 c-18 -9 -33 -24 -33 -34 0 -9 -9 -28 -21 -41 -19 -21 -21
-32 -16 -93 6 -68 24 -105 46 -92 6 4 9 40 8 86 -2 104 11 119 102 121 44 1
66 -3 72 -12 11 -19 -8 -29 -57 -29 -52 0 -57 -9 -58 -120 -2 -85 -2 -85 -31
-95 -17 -5 -39 -19 -50 -30 -40 -40 -45 -79 -45 -352 0 -223 2 -262 15 -273
23 -19 39 1 38 47 0 21 -1 132 -3 248 -1 116 -1 212 0 215 1 3 4 19 6 35 7 38
8 39 72 53 76 17 109 15 130 -8 28 -30 42 -151 42 -365 0 -197 6 -229 37 -209
16 10 18 25 15 125 -5 179 -10 220 -28 234 -17 12 -10 40 7 30 13 -9 11 96 -2
153 -11 46 -46 91 -71 93 -7 0 -26 8 -43 18 -28 16 -30 23 -33 79 -3 62 -3 62
38 62 37 0 40 -2 40 -29 0 -33 19 -91 29 -91 20 0 32 49 27 116 -7 89 -16 114
-56 147 -26 22 -41 27 -88 27 -32 0 -72 -8 -89 -16z"/>
<path d="M577 563 c-4 -3 -7 -24 -7 -46 0 -26 -6 -44 -17 -52 -25 -18 -43 -7
-43 27 0 31 -23 63 -40 53 -11 -7 -12 -248 0 -300 10 -44 39 -73 79 -81 24 -5
35 -1 56 21 27 26 27 26 21 158 -8 161 -12 202 -21 216 -7 12 -19 14 -28 4z
m-3 -190 c5 -40 2 -131 -5 -135 -33 -21 -50 -27 -44 -19 3 6 0 11 -7 11 -17 0
-12 161 5 172 28 18 45 8 51 -29z"/>
</g>
</svg>
