<svg version="1.0" xmlns="http://www.w3.org/2000/svg"
 width="64.000000pt" height="83.000000pt" viewBox="0 0 64.000000 83.000000"
 preserveAspectRatio="xMidYMid meet">
<metadata>
Created by potrace 1.15, written by Peter Selinger 2001-2017
</metadata>
<g transform="translate(0.000000,83.000000) scale(0.100000,-0.100000)"
fill="#000000" stroke="none">
<path d="M396 694 c-3 -9 -6 -33 -6 -53 0 -47 -39 -90 -125 -138 -50 -27 -56
-43 -17 -43 20 0 47 14 81 40 54 43 83 46 122 12 20 -17 85 -43 114 -45 14 -1
20 4 20 17 0 15 -16 25 -73 44 -85 28 -96 43 -82 106 5 25 7 52 4 60 -8 21
-30 20 -38 0z"/>
<path d="M55 644 c-25 -27 -25 -27 -25 -259 0 -128 -3 -247 -6 -264 -5 -24 -3
-31 9 -31 19 0 27 23 35 108 7 67 7 67 45 70 37 3 37 3 37 -68 0 -38 -6 -79
-12 -90 -17 -27 4 -50 30 -34 15 10 17 38 20 282 2 270 2 270 -24 291 -37 29
-79 27 -109 -5z m83 -36 c7 -7 12 -40 12 -80 0 -68 0 -68 -40 -68 -40 0 -40 0
-40 64 0 35 3 71 6 80 7 19 45 21 62 4z m12 -244 c0 -55 0 -55 -37 -52 -36 3
-38 5 -41 42 -5 55 2 66 43 66 35 0 35 0 35 -56z"/>
<path d="M498 633 c-58 -9 -19 -33 54 -33 39 0 59 17 37 31 -14 9 -42 9 -91 2z"/>
<path d="M260 620 c-24 -16 7 -32 49 -26 41 6 50 14 31 26 -20 13 -61 12 -80
0z"/>
<path d="M450 419 c0 -40 0 -40 -37 -37 -33 3 -39 7 -43 33 -7 38 -34 40 -38
3 -4 -31 -35 -40 -46 -13 -9 25 -36 18 -36 -10 0 -17 10 -31 30 -44 31 -18 31
-18 5 -49 -14 -17 -35 -34 -45 -37 -21 -7 -28 -35 -10 -35 28 0 89 43 113 79
25 38 31 41 72 41 38 0 45 -3 45 -19 0 -34 107 -108 126 -88 14 14 -9 47 -31
47 -13 0 -36 12 -50 28 -25 27 -25 27 -3 30 51 6 67 13 73 31 7 25 -4 51 -22
51 -9 0 -13 -6 -10 -14 6 -14 -13 -27 -45 -31 -14 -1 -18 6 -18 37 0 27 -4 38
-15 38 -11 0 -15 -11 -15 -41z"/>
<path d="M401 287 c-6 -6 -11 -17 -11 -24 0 -7 -12 -15 -27 -19 -48 -10 -74
-24 -67 -35 3 -6 17 -8 30 -5 34 9 30 -2 -21 -59 -43 -48 -54 -84 -29 -92 10
-4 62 60 106 130 18 27 42 35 53 18 8 -13 -24 -80 -57 -119 -31 -36 -36 -62
-14 -62 30 0 141 165 130 194 -3 8 -19 18 -36 21 -25 6 -29 11 -24 30 7 26
-15 40 -33 22z"/>
</g>
</svg>
