<svg version="1.0" xmlns="http://www.w3.org/2000/svg"
 width="83.000000pt" height="131.000000pt" viewBox="0 0 83.000000 131.000000"
 preserveAspectRatio="xMidYMid meet">
<metadata>
Created by potrace 1.15, written by Peter Selinger 2001-2017
</metadata>
<g transform="translate(0.000000,131.000000) scale(0.100000,-0.100000)"
fill="#000000" stroke="none">
<path d="M291 1120 c3 -67 21 -108 51 -112 18 -2 23 -10 24 -36 1 -18 -2 -35
-6 -37 -4 -3 -30 -1 -56 4 -35 7 -51 6 -56 -2 -12 -20 23 -47 61 -47 48 0 57
-8 65 -55 3 -22 9 -59 12 -82 13 -86 44 -28 44 82 0 29 4 33 35 39 19 4 35 11
35 15 0 12 -46 41 -65 41 -11 0 -15 11 -15 40 0 36 2 40 25 40 18 0 28 7 36
27 12 33 14 112 3 123 -5 4 -51 10 -102 12 -93 3 -93 3 -91 -52z m153 -12 c14
-52 9 -58 -44 -57 -27 1 -50 5 -50 9 0 4 -3 22 -6 39 -6 31 -6 31 44 31 43 0
50 -3 56 -22z"/>
<path d="M168 1152 c-6 -20 3 -77 19 -134 14 -50 28 -30 28 42 0 57 -4 73 -21
91 -21 20 -21 20 -26 1z"/>
<path d="M550 1070 c0 -69 18 -160 31 -160 5 0 9 30 9 68 0 37 4 73 9 81 12
19 -14 71 -34 71 -12 0 -15 -14 -15 -60z"/>
<path d="M463 771 c-15 -83 12 -192 30 -118 3 12 10 40 16 62 12 48 1 109 -20
113 -10 2 -17 -14 -26 -57z"/>
<path d="M564 774 c3 -9 6 -18 6 -20 0 -2 7 -4 16 -4 11 0 14 -5 10 -16 -3 -9
-6 -29 -6 -45 0 -19 -6 -32 -17 -36 -10 -4 -27 -15 -37 -25 -11 -10 -26 -18
-33 -18 -7 0 -13 -4 -13 -8 0 -4 -14 -16 -30 -26 -17 -9 -42 -29 -55 -42 -23
-23 -27 -24 -52 -10 -16 8 -40 26 -54 39 -14 13 -35 30 -47 36 -18 10 -22 21
-22 61 0 43 3 49 22 52 29 4 35 33 11 47 -22 11 -113 -5 -113 -20 0 -5 9 -18
20 -29 17 -17 20 -33 20 -111 0 -50 7 -118 15 -150 15 -55 14 -62 -2 -89 -9
-17 -20 -30 -24 -30 -7 0 -16 40 -27 130 -7 58 -26 100 -38 87 -22 -21 0 -218
28 -252 16 -19 7 -69 -20 -114 -44 -73 -56 -100 -48 -108 9 -9 45 31 79 90 18
30 33 45 40 41 27 -15 50 -40 59 -64 10 -25 10 -25 19 -1 8 20 3 34 -26 78
-38 58 -43 87 -19 114 12 13 22 15 42 9 52 -15 210 -31 248 -25 84 14 114 36
114 87 1 21 2 22 14 5 15 -19 11 -46 -18 -130 -17 -47 -17 -93 0 -52 4 11 11
22 16 26 4 3 16 22 26 43 19 38 19 38 55 -38 20 -42 41 -76 46 -76 20 0 20 20
1 66 -12 26 -19 53 -16 60 3 8 -1 17 -8 21 -26 16 -38 68 -26 109 15 51 10
109 -10 109 -9 0 -16 -11 -18 -25 -1 -14 -5 -35 -8 -48 -4 -21 -5 -21 -29 -6
-23 15 -25 22 -24 88 1 101 13 189 27 194 7 2 12 12 12 23 0 16 -7 19 -56 19
-47 0 -55 -3 -50 -16z m22 -286 c-1 -61 -5 -103 -12 -105 -5 -2 -36 17 -67 41
-32 24 -63 46 -70 49 -12 4 59 77 75 77 5 0 18 9 30 20 40 37 45 27 44 -82z
m-274 -2 c22 -16 22 -16 -7 -46 -16 -17 -34 -29 -39 -27 -10 3 -36 124 -28
131 2 3 15 -6 28 -19 13 -13 33 -30 46 -39z m142 -85 c59 -40 59 -40 25 -45
-19 -4 -47 -4 -64 -2 -16 2 -39 4 -50 5 -11 1 -27 6 -35 11 -12 9 -9 15 20 40
19 16 37 30 40 30 3 0 32 -18 64 -39z"/>
</g>
</svg>
