<svg version="1.0" xmlns="http://www.w3.org/2000/svg"
 width="66.000000pt" height="92.000000pt" viewBox="0 0 66.000000 92.000000"
 preserveAspectRatio="xMidYMid meet">
<metadata>
Created by potrace 1.15, written by Peter Selinger 2001-2017
</metadata>
<g transform="translate(0.000000,92.000000) scale(0.100000,-0.100000)"
fill="#000000" stroke="none">
<path d="M177 713 c-4 -3 -7 -28 -7 -56 0 -49 0 -49 -39 -42 -56 9 -81 -17
-81 -84 0 -62 7 -81 31 -81 12 0 19 7 19 20 0 13 7 20 20 20 20 0 26 -16 12
-37 -4 -6 -25 -13 -47 -15 -28 -2 -41 -8 -43 -20 -3 -16 5 -18 57 -18 66 0 81
12 81 65 0 36 34 30 38 -7 4 -37 24 -50 69 -46 47 4 53 30 8 38 -28 5 -30 9
-27 42 3 46 -17 54 -93 37 -30 -7 -57 -10 -60 -7 -13 13 10 38 42 44 32 6 121
-1 131 -10 2 -2 6 -23 9 -45 3 -23 10 -44 16 -48 17 -10 37 29 37 72 0 55 -22
75 -83 75 -40 0 -47 3 -47 19 0 17 8 20 48 23 39 3 47 6 47 23 0 17 -6 20 -44
18 -27 -1 -49 3 -58 12 -16 16 -26 19 -36 8z"/>
<path d="M430 711 c-52 -6 -57 -9 -51 -40 0 -4 33 -11 73 -14 68 -6 98 -21 79
-40 -5 -5 -41 -4 -81 3 -76 13 -95 7 -88 -26 2 -15 15 -20 57 -24 31 -3 56
-10 59 -17 2 -7 -3 -13 -11 -13 -8 0 -26 -11 -41 -25 -25 -24 -26 -27 -26
-149 0 -138 4 -156 31 -156 26 0 33 36 26 152 -5 91 -4 100 16 118 18 17 44
26 48 18 1 -2 7 -102 13 -223 10 -210 12 -220 31 -220 19 0 20 8 23 110 2 61
-2 165 -8 232 -9 86 -10 127 -2 135 16 19 25 82 17 118 -8 34 -56 71 -90 68
-11 -1 -45 -4 -75 -7z"/>
<path d="M230 386 c0 -8 13 -19 29 -24 32 -11 34 -18 46 -139 7 -69 3 -74 -60
-83 -27 -3 -40 -10 -40 -20 0 -11 14 -16 53 -18 28 -2 52 -7 52 -11 0 -9 -72
-21 -121 -21 -38 0 -38 -26 -1 -33 38 -8 273 4 295 15 35 18 15 28 -59 28 -56
0 -75 3 -72 13 3 6 24 14 49 17 48 6 69 15 69 32 0 7 -19 9 -55 5 -39 -4 -55
-2 -55 6 0 7 -5 54 -10 106 -7 75 -13 98 -31 117 -26 27 -89 34 -89 10z"/>
<path d="M97 372 c-30 -33 -37 -74 -37 -213 0 -119 2 -141 16 -146 25 -9 31
12 38 136 10 165 14 181 47 200 41 23 37 41 -9 41 -24 0 -45 -7 -55 -18z"/>
<path d="M157 324 c-11 -12 -8 -101 5 -129 13 -30 41 -39 83 -27 37 10 52 53
39 114 -10 48 -34 60 -49 26 -14 -31 -43 -35 -47 -7 -3 23 -19 35 -31 23z m81
-101 c-2 -10 -10 -18 -18 -18 -8 0 -16 8 -18 18 -2 12 3 17 18 17 15 0 20 -5
18 -17z"/>
</g>
</svg>
