<svg version="1.0" xmlns="http://www.w3.org/2000/svg"
 width="63.000000pt" height="135.000000pt" viewBox="0 0 63.000000 135.000000"
 preserveAspectRatio="xMidYMid meet">
<metadata>
Created by potrace 1.15, written by Peter Selinger 2001-2017
</metadata>
<g transform="translate(0.000000,135.000000) scale(0.100000,-0.100000)"
fill="#000000" stroke="none">
<path d="M425 1246 c-2 -6 -6 -29 -10 -51 -5 -30 -19 -52 -58 -90 -58 -57
-135 -114 -190 -140 -20 -9 -37 -21 -37 -25 0 -5 -13 -21 -30 -37 -17 -15 -30
-32 -30 -36 0 -4 -9 -17 -19 -29 -24 -25 -33 -79 -23 -133 11 -59 36 -54 40 9
4 63 58 146 96 146 1 0 20 -16 41 -36 22 -20 41 -31 43 -26 2 6 -3 35 -11 66
-16 60 -13 68 40 95 30 15 43 14 50 -6 12 -31 78 -103 94 -103 18 0 8 47 -21
104 -31 58 -31 58 -3 93 40 50 93 142 93 162 0 9 -5 23 -10 31 -11 18 -50 22
-55 6z"/>
<path d="M534 768 c8 -64 -17 -218 -42 -256 -15 -23 -15 -23 -50 18 -26 29
-43 40 -64 40 -15 0 -28 -2 -28 -5 0 -3 16 -25 35 -51 38 -50 43 -64 20 -64
-8 0 -15 -3 -15 -8 0 -4 -17 -13 -37 -20 -67 -23 -137 -44 -166 -49 -32 -6
-35 -18 -6 -34 25 -13 70 -8 152 15 32 9 64 16 70 16 10 0 13 -33 12 -133 0
-72 2 -145 5 -162 6 -29 6 -29 17 0 12 30 17 60 30 163 3 28 9 52 13 52 4 0
10 15 13 33 15 86 22 104 49 129 41 38 68 118 68 201 0 72 -8 96 -46 134 -32
32 -36 29 -30 -19z"/>
<path d="M256 751 c-63 -13 -83 -21 -99 -43 -24 -32 -17 -74 16 -84 44 -14
139 -8 152 9 7 10 16 17 21 17 12 0 54 63 54 81 0 22 -21 39 -44 38 -12 -1
-57 -9 -100 -18z"/>
</g>
</svg>
