<svg version="1.0" xmlns="http://www.w3.org/2000/svg"
 width="67.000000pt" height="91.000000pt" viewBox="0 0 67.000000 91.000000"
 preserveAspectRatio="xMidYMid meet">
<metadata>
Created by potrace 1.15, written by Peter Selinger 2001-2017
</metadata>
<g transform="translate(0.000000,91.000000) scale(0.100000,-0.100000)"
fill="#000000" stroke="none">
<path d="M292 688 c-7 -7 -12 -23 -12 -37 0 -25 -34 -51 -67 -51 -18 0 -93
-69 -93 -85 0 -27 27 -22 99 18 59 32 75 37 82 26 15 -23 5 -43 -34 -68 -21
-14 -40 -35 -43 -48 -8 -32 20 -73 50 -73 32 0 50 -24 42 -55 -4 -17 -13 -25
-29 -25 -29 1 -98 32 -116 53 -16 20 -35 22 -49 4 -15 -17 66 -81 135 -107 47
-18 48 -19 45 -57 -2 -21 -12 -64 -24 -96 -21 -62 -16 -82 18 -75 11 2 21 17
27 38 4 19 13 53 18 75 6 22 11 53 12 69 2 23 9 31 42 44 73 28 135 73 135 99
0 27 -12 30 -31 7 -15 -19 -102 -64 -123 -64 -14 0 -33 67 -21 78 3 4 20 11
38 17 28 9 32 15 35 51 3 41 2 42 -42 64 -39 18 -46 26 -46 50 0 16 4 31 9 34
4 3 44 -17 87 -44 66 -40 81 -46 93 -35 9 9 10 18 4 29 -11 20 -102 86 -118
86 -7 0 -20 9 -29 19 -10 11 -24 17 -32 14 -9 -3 -14 2 -14 14 0 18 -17 43
-30 43 -3 0 -11 -5 -18 -12z m86 -250 c3 -25 0 -27 -44 -34 -39 -6 -49 -4 -61
12 -7 10 -13 21 -13 25 0 12 53 28 85 26 25 -2 31 -7 33 -29z"/>
</g>
</svg>
