<svg version="1.0" xmlns="http://www.w3.org/2000/svg"
 width="65.000000pt" height="82.000000pt" viewBox="0 0 65.000000 82.000000"
 preserveAspectRatio="xMidYMid meet">
<metadata>
Created by potrace 1.15, written by Peter Selinger 2001-2017
</metadata>
<g transform="translate(0.000000,82.000000) scale(0.100000,-0.100000)"
fill="#000000" stroke="none">
<path d="M190 735 c-7 -8 -25 -15 -41 -15 -18 0 -32 -7 -39 -19 -11 -22 -14
-94 -3 -104 11 -11 33 14 33 37 0 24 17 46 36 46 6 0 14 -18 18 -41 8 -48 26
-48 38 0 10 36 40 40 46 6 7 -42 11 -48 27 -35 34 28 9 110 -34 110 -9 0 -26
7 -37 15 -24 18 -29 18 -44 0z"/>
<path d="M407 717 c-40 -11 -51 -32 -45 -81 4 -37 22 -33 28 6 3 21 11 34 23
36 17 4 21 -2 31 -50 9 -39 22 -35 30 8 6 31 10 35 34 32 20 -2 28 -9 30 -28
6 -46 11 -54 27 -40 9 8 15 30 15 56 0 37 -4 46 -22 53 -41 15 -112 19 -151 8z"/>
<path d="M121 565 c-31 -14 -33 -18 -27 -47 3 -18 11 -37 17 -43 5 -5 65 -12
131 -15 85 -3 123 -9 126 -17 3 -10 -27 -13 -127 -13 -121 0 -157 -7 -136 -28
4 -4 65 -9 135 -10 122 -4 129 -5 132 -25 4 -31 44 -47 121 -47 60 0 68 2 65
18 -2 13 -17 18 -67 22 -88 7 -96 30 -11 30 63 0 105 14 95 31 -4 5 -42 9 -86
9 -60 0 -80 3 -77 13 3 7 32 14 79 17 66 4 74 7 74 25 0 18 -7 20 -70 20 -56
0 -70 3 -70 15 0 11 14 16 55 18 30 1 62 5 70 8 29 10 -21 34 -71 34 -58 0
-99 -17 -99 -40 0 -35 -25 -42 -129 -38 -55 1 -103 7 -107 11 -16 16 22 27 94
27 55 0 72 3 72 14 0 8 -7 17 -16 20 -29 11 -139 5 -173 -9z"/>
<path d="M117 343 c-4 -3 -7 -12 -7 -20 0 -10 21 -13 88 -13 76 0 91 -3 107
-20 18 -20 17 -20 -81 -20 -99 0 -132 -8 -120 -29 5 -7 49 -11 125 -11 87 0
122 -4 130 -13 18 -23 2 -27 -104 -27 -88 0 -106 -3 -128 -20 -32 -25 -41 -53
-27 -80 15 -29 28 -25 44 15 15 35 15 35 138 35 123 0 123 0 185 -60 34 -33
67 -60 72 -60 28 0 18 27 -25 71 -48 49 -48 49 3 49 51 0 74 13 56 31 -5 5
-37 12 -71 15 -34 4 -67 13 -73 20 -9 12 -1 14 48 14 66 0 111 21 83 40 -8 5
-50 10 -94 10 -72 0 -80 2 -98 25 -33 43 -70 55 -161 55 -46 0 -87 -3 -90 -7z"/>
</g>
</svg>
