<svg version="1.0" xmlns="http://www.w3.org/2000/svg"
 width="60.000000pt" height="76.000000pt" viewBox="0 0 60.000000 76.000000"
 preserveAspectRatio="xMidYMid meet">
<metadata>
Created by potrace 1.15, written by Peter Selinger 2001-2017
</metadata>
<g transform="translate(0.000000,76.000000) scale(0.100000,-0.100000)"
fill="#000000" stroke="none">
<path d="M233 691 c-103 -13 -153 -67 -127 -135 17 -45 180 -64 322 -38 63 12
74 17 87 42 36 69 6 130 -64 130 -21 0 -65 2 -97 4 -32 3 -87 1 -121 -3z m207
-52 c44 -15 52 -22 45 -41 -10 -25 -53 -38 -166 -50 -125 -13 -172 -5 -177 31
-4 28 22 58 62 71 39 12 189 5 236 -11z"/>
<path d="M212 613 c-28 -3 -42 -9 -39 -16 5 -17 39 -20 155 -12 78 5 102 10
102 21 0 11 -18 14 -87 12 -49 -1 -107 -3 -131 -5z"/>
<path d="M132 470 c-41 -17 -52 -67 -59 -266 -6 -181 -3 -205 25 -171 6 6 12
67 14 134 1 67 6 125 10 129 4 3 91 9 192 12 185 5 185 5 188 -139 3 -120 5
-144 18 -144 13 0 16 30 20 190 3 105 2 203 -3 218 -5 16 -20 33 -34 38 -31
12 -341 11 -371 -1z m158 -39 c0 -8 -79 -21 -132 -21 -31 0 -38 16 -10 23 31
8 142 7 142 -2z m190 -1 c0 -6 -32 -10 -75 -10 -43 0 -75 4 -75 10 0 6 32 10
75 10 43 0 75 -4 75 -10z m-192 -67 c-3 -15 -15 -18 -83 -18 -68 0 -80 3 -83
18 -3 15 6 17 83 17 77 0 86 -2 83 -17z m212 2 c0 -19 -33 -27 -105 -23 -48 2
-60 7 -63 21 -3 15 6 17 82 17 69 0 86 -3 86 -15z"/>
<path d="M154 258 c-13 -21 15 -28 109 -27 117 2 158 8 165 27 3 11 -22 13
-133 10 -75 -2 -139 -6 -141 -10z"/>
<path d="M140 190 c-26 -17 8 -30 78 -30 34 0 62 -4 62 -9 0 -15 -23 -28 -62
-35 -29 -5 -39 -13 -44 -32 -12 -48 9 -57 122 -51 125 8 154 18 154 52 0 34
-40 59 -80 50 -43 -9 -39 -35 6 -35 24 0 34 -4 32 -12 -3 -9 -35 -14 -102 -16
-66 -2 -96 1 -91 8 3 5 15 10 26 10 31 0 59 19 59 38 0 33 22 42 97 42 58 0
73 3 73 15 0 13 -24 15 -157 15 -87 0 -165 -5 -173 -10z"/>
</g>
</svg>
