<svg version="1.0" xmlns="http://www.w3.org/2000/svg"
 width="70.000000pt" height="85.000000pt" viewBox="0 0 70.000000 85.000000"
 preserveAspectRatio="xMidYMid meet">
<metadata>
Created by potrace 1.15, written by Peter Selinger 2001-2017
</metadata>
<g transform="translate(0.000000,85.000000) scale(0.100000,-0.100000)"
fill="#000000" stroke="none">
<path d="M401 753 c3 -48 3 -48 -36 -51 -121 -7 -142 -34 -34 -42 64 -5 64 -5
-10 -59 -41 -30 -69 -57 -63 -59 14 -4 117 52 150 82 19 17 26 18 40 8 23 -16
98 -51 128 -58 43 -11 26 16 -23 37 -93 40 -101 69 -20 69 21 0 48 6 60 13 19
10 11 13 -63 17 -85 5 -85 5 -85 45 0 34 -3 40 -23 43 -22 3 -23 1 -21 -45z"/>
<path d="M145 643 c-16 -27 -32 -52 -34 -58 -2 -5 -17 -27 -33 -49 -30 -42
-36 -66 -15 -66 30 0 129 132 141 188 12 51 -23 42 -59 -15z"/>
<path d="M410 589 c-60 -24 -78 -71 -40 -109 25 -25 66 -25 108 0 26 16 32 26
32 54 0 54 -43 78 -100 55z m58 -56 c3 -17 -3 -26 -23 -33 -32 -12 -65 2 -65
29 0 26 10 32 50 29 28 -2 36 -8 38 -25z"/>
<path d="M164 478 c-42 -49 -84 -107 -84 -117 0 -23 28 -9 59 29 47 59 55 53
47 -36 -7 -84 -48 -183 -92 -225 -25 -24 -32 -59 -11 -59 15 1 94 107 125 168
18 38 22 62 22 138 0 51 -3 99 -6 108 -9 23 -37 20 -60 -6z"/>
<path d="M490 443 c0 -5 -9 -23 -21 -42 -20 -34 -20 -34 -58 3 -20 20 -40 36
-44 36 -11 0 -97 -81 -97 -91 0 -16 23 -9 57 17 38 29 62 26 92 -12 15 -19 22
-22 28 -12 4 7 22 26 40 42 32 28 32 28 59 7 27 -21 64 -28 64 -13 0 15 -78
72 -99 72 -12 0 -21 -3 -21 -7z"/>
<path d="M350 322 c0 -5 9 -17 21 -28 30 -27 49 -68 49 -104 0 -28 -2 -30 -39
-30 -45 0 -49 4 -59 62 -6 33 -14 46 -40 61 -41 24 -51 16 -23 -19 13 -16 21
-41 21 -64 0 -22 8 -47 19 -61 18 -23 25 -24 137 -24 117 0 117 0 136 -35 11
-19 26 -41 33 -49 12 -13 15 -12 21 2 8 23 -12 69 -41 97 -16 15 -41 24 -74
28 -50 4 -50 5 -45 36 9 52 11 54 74 86 33 17 60 35 60 41 0 15 -54 4 -103
-21 -48 -25 -49 -25 -93 5 -38 26 -54 31 -54 17z"/>
</g>
</svg>
