<svg version="1.0" xmlns="http://www.w3.org/2000/svg"
 width="67.000000pt" height="79.000000pt" viewBox="0 0 67.000000 79.000000"
 preserveAspectRatio="xMidYMid meet">
<metadata>
Created by potrace 1.15, written by Peter Selinger 2001-2017
</metadata>
<g transform="translate(0.000000,79.000000) scale(0.100000,-0.100000)"
fill="#000000" stroke="none">
<path d="M540 690 c-8 -5 -66 -10 -127 -10 -91 0 -113 -3 -113 -14 0 -22 17
-24 137 -18 109 5 112 4 107 -15 -6 -21 -58 -33 -147 -33 -48 0 -95 -24 -107
-54 -5 -13 -14 -86 -20 -162 -10 -129 -40 -277 -61 -298 -11 -13 -12 -46 -1
-46 21 0 45 44 58 102 8 35 23 137 33 227 11 90 23 167 28 172 15 15 131 39
187 39 60 0 76 13 76 64 0 51 -17 67 -50 46z"/>
<path d="M66 628 c-24 -34 -19 -58 20 -95 37 -34 37 -34 32 -134 -3 -54 -8
-102 -11 -105 -3 -4 -13 -4 -22 -1 -12 5 -15 23 -15 86 0 81 -9 102 -34 81
-10 -8 -13 -32 -11 -83 3 -92 9 -105 51 -112 19 -3 50 -8 70 -11 26 -4 34 -9
32 -22 -2 -9 -12 -18 -22 -20 -39 -8 -96 -54 -96 -78 0 -27 30 -94 42 -94 17
0 29 40 18 60 -17 33 -2 60 45 80 65 28 72 76 14 100 -23 10 -29 19 -29 41 0
25 6 32 39 45 46 18 66 57 56 103 -9 41 -25 30 -25 -18 0 -42 -14 -61 -44 -61
-19 0 -21 6 -21 61 0 50 3 62 20 71 35 19 65 51 65 70 0 37 -36 58 -99 58 -51
0 -62 -3 -75 -22z m122 -30 c9 -9 8 -16 -5 -30 -31 -35 -105 -13 -89 27 7 18
76 21 94 3z"/>
<path d="M545 543 c-56 -7 -76 -14 -70 -23 3 -6 17 -10 31 -10 31 0 32 -27 2
-32 -47 -6 -16 -23 44 -23 66 0 90 18 38 28 -35 7 -39 22 -10 37 18 10 20 32
2 29 -4 -1 -20 -4 -37 -6z"/>
<path d="M350 520 c-12 -8 -12 -10 3 -16 24 -9 21 -31 -4 -37 -33 -9 -12 -27
30 -27 42 0 73 23 46 34 -22 8 -18 36 6 36 11 0 17 5 14 10 -8 13 -75 13 -95
0z"/>
<path d="M340 400 c-11 -7 -9 -11 14 -19 34 -13 32 -43 -3 -51 -14 -3 -26 -11
-29 -18 -6 -18 79 -16 104 3 16 12 16 14 3 15 -21 0 -31 47 -13 54 8 3 14 10
14 16 0 12 -70 13 -90 0z"/>
<path d="M523 403 c-45 -4 -57 -21 -23 -30 27 -7 25 -31 -2 -35 -47 -6 -15
-23 45 -23 48 0 62 3 62 15 0 9 -11 16 -27 18 -35 4 -37 30 -3 34 14 2 27 8
28 13 2 11 -20 14 -80 8z"/>
<path d="M512 278 c-6 -7 -13 -30 -17 -50 -14 -76 -55 -90 -55 -19 0 43 -14
61 -48 61 -27 0 -51 -46 -56 -108 -2 -21 -9 -55 -16 -76 -8 -27 -9 -41 -2 -48
19 -19 40 10 47 65 13 109 17 127 30 127 8 0 16 -17 20 -42 3 -24 11 -55 17
-70 12 -33 69 -78 97 -78 34 0 34 19 1 38 -18 9 -41 24 -52 32 -19 15 -19 16
16 53 20 21 36 47 36 58 0 34 19 20 25 -18 15 -101 21 -118 35 -118 12 0 14
12 12 60 -6 106 -54 176 -90 133z"/>
</g>
</svg>
