<svg version="1.0" xmlns="http://www.w3.org/2000/svg"
 width="71.000000pt" height="126.000000pt" viewBox="0 0 71.000000 126.000000"
 preserveAspectRatio="xMidYMid meet">
<metadata>
Created by potrace 1.15, written by Peter Selinger 2001-2017
</metadata>
<g transform="translate(0.000000,126.000000) scale(0.100000,-0.100000)"
fill="#000000" stroke="none">
<path d="M276 1148 c-3 -7 -7 -25 -10 -39 -5 -24 -13 -28 -88 -43 -110 -23
-118 -26 -118 -38 0 -10 75 -7 130 6 14 3 42 8 62 11 45 7 61 32 52 80 -6 35
-21 46 -28 23z"/>
<path d="M631 1118 c-8 -22 -17 -26 -72 -31 -34 -4 -95 -7 -135 -7 -76 0 -99
-11 -64 -30 16 -8 30 -9 53 -1 26 10 34 8 50 -8 28 -28 13 -41 -49 -41 -52 0
-68 -10 -41 -27 6 -4 34 -8 62 -8 41 0 50 -3 53 -20 6 -28 32 -44 69 -45 18 0
44 -5 58 -12 20 -9 25 -19 26 -52 1 -23 3 -54 5 -71 7 -58 7 -71 1 -161 -7
-95 2 -123 32 -105 20 13 11 385 -10 406 -8 8 -43 18 -79 22 -56 7 -65 11 -68
29 -3 20 3 22 58 26 78 6 95 21 91 85 -1 27 -8 54 -16 62 -12 13 -15 11 -24
-11z m-11 -78 c0 -11 -6 -20 -12 -20 -7 -1 -29 -3 -49 -6 -39 -6 -53 4 -43 30
4 12 20 16 55 16 42 0 49 -3 49 -20z"/>
<path d="M270 1000 c-20 -22 -40 -30 -100 -39 -94 -16 -110 -20 -110 -32 0
-13 42 -11 139 6 93 17 111 26 111 61 0 34 -12 35 -40 4z"/>
<path d="M267 905 c-11 -23 -25 -36 -44 -41 -15 -3 -39 -9 -53 -14 -14 -5 -47
-11 -73 -13 -53 -5 -62 -10 -52 -28 6 -8 27 -10 72 -6 64 6 64 6 59 -21 -3
-15 -8 -62 -12 -104 -6 -73 -8 -78 -29 -78 -30 0 -39 36 -27 102 7 34 6 53 -3
64 -20 28 -32 8 -39 -65 -6 -74 4 -115 33 -126 25 -10 196 -14 210 -5 26 15
-1 30 -55 30 -55 0 -55 0 -52 33 3 29 8 33 51 46 47 15 47 15 47 61 0 26 -3
50 -7 53 -7 8 -33 -38 -33 -59 0 -8 -11 -14 -26 -14 -24 0 -26 3 -20 31 3 17
6 40 6 50 0 13 15 26 44 40 43 20 68 50 47 57 -6 2 -11 12 -11 23 0 29 -15 23
-33 -16z"/>
<path d="M480 879 c0 -12 -5 -38 -12 -56 -17 -46 -42 -40 -46 10 -4 50 -35 49
-40 -2 -4 -43 22 -74 59 -69 22 4 25 1 21 -19 -4 -20 -10 -23 -54 -23 -35 0
-48 -4 -45 -12 4 -13 10 -15 65 -17 27 -1 32 -5 32 -26 0 -23 -4 -24 -62 -27
-40 -2 -63 -8 -66 -16 -3 -11 8 -13 49 -9 71 6 79 1 79 -40 0 -27 4 -34 18
-31 11 2 18 14 20 36 2 17 7 33 13 33 5 1 14 3 19 4 6 1 28 3 50 4 28 1 40 5
40 16 0 11 -12 15 -49 15 -28 0 -53 5 -57 12 -8 13 24 40 38 32 13 -8 58 4 58
16 0 6 -20 10 -44 10 -24 0 -48 6 -55 13 -14 17 -4 27 25 27 26 0 54 34 54 67
0 33 -17 37 -32 6 -7 -16 -23 -29 -35 -31 -19 -3 -21 1 -20 44 1 30 -3 48 -10
51 -8 3 -13 -4 -13 -18z"/>
<path d="M355 510 c-4 -6 -9 -55 -11 -107 -5 -96 -5 -96 -72 -159 -36 -35 -72
-64 -79 -64 -7 0 -13 -4 -13 -10 0 -5 -6 -10 -13 -10 -7 0 -22 -8 -33 -18 -11
-9 -43 -29 -70 -43 -27 -14 -49 -32 -49 -40 0 -21 54 -12 97 17 21 13 42 24
48 24 6 0 22 11 36 25 14 14 28 25 32 25 4 0 33 25 66 56 32 30 59 54 61 52 1
-2 8 -14 15 -28 26 -50 101 -127 145 -150 25 -13 45 -26 45 -30 0 -10 47 -30
70 -30 45 0 17 38 -60 81 -57 32 -144 114 -169 162 -15 27 -20 48 -15 75 3 20
6 68 7 107 2 58 -1 70 -15 73 -9 2 -19 -2 -23 -8z"/>
<path d="M516 502 c-9 -14 -8 -74 2 -117 14 -63 42 -114 79 -142 31 -24 35
-25 50 -10 15 15 13 19 -25 56 -55 53 -63 72 -65 144 -2 56 -9 76 -29 77 -4 0
-9 -4 -12 -8z"/>
<path d="M193 488 c-6 -7 -13 -33 -17 -58 -7 -48 -44 -111 -85 -147 -29 -26
-24 -37 12 -28 35 9 83 57 101 99 20 48 25 146 7 146 -5 0 -13 -6 -18 -12z"/>
</g>
</svg>
