<svg version="1.0" xmlns="http://www.w3.org/2000/svg"
 width="62.000000pt" height="86.000000pt" viewBox="0 0 62.000000 86.000000"
 preserveAspectRatio="xMidYMid meet">
<metadata>
Created by potrace 1.15, written by Peter Selinger 2001-2017
</metadata>
<g transform="translate(0.000000,86.000000) scale(0.100000,-0.100000)"
fill="#000000" stroke="none">
<path d="M143 663 c-7 -3 -13 -18 -13 -33 0 -42 26 -52 159 -59 120 -7 141
-12 141 -36 0 -26 -38 -35 -155 -35 -64 0 -125 -5 -136 -10 -16 -9 -19 -22
-19 -78 0 -40 5 -75 13 -84 17 -21 71 -38 123 -38 31 0 44 -4 44 -14 0 -11
-22 -16 -87 -21 -49 -4 -95 -11 -104 -16 -21 -11 -41 -102 -37 -164 2 -42 6
-50 23 -50 18 0 20 7 21 65 1 84 1 83 23 107 13 13 38 22 74 26 30 4 62 10 70
13 10 4 16 -3 19 -24 4 -30 4 -30 -64 -37 -48 -4 -68 -10 -68 -20 0 -8 13 -15
32 -17 33 -3 33 -3 33 -58 0 -42 3 -55 15 -55 11 0 16 14 18 58 3 58 3 58 50
55 47 -3 47 -3 50 -55 3 -45 6 -53 23 -53 16 0 19 7 19 54 0 54 0 54 35 60 21
4 35 13 35 21 0 12 -16 15 -75 15 -73 0 -75 1 -75 25 0 24 2 25 64 25 59 0 67
-3 95 -31 34 -34 34 -34 32 -99 -2 -52 10 -76 33 -67 14 5 15 18 10 79 -9 104
-29 132 -101 147 -31 6 -71 11 -90 11 -18 0 -33 5 -33 10 0 6 23 10 50 10 64
0 100 30 100 84 0 32 -3 35 -47 50 -53 18 -127 20 -204 6 -43 -8 -56 -7 -67 4
-27 27 -4 34 96 30 124 -6 193 10 206 49 11 31 -7 72 -39 90 -11 6 -71 13
-134 15 -99 4 -114 7 -118 23 -5 20 -21 28 -40 22z m286 -285 c11 -11 18 -24
16 -28 -10 -16 -117 -33 -176 -27 -48 4 -67 11 -87 30 -25 25 -25 25 19 35 24
5 81 10 126 11 72 1 85 -2 102 -21z"/>
</g>
</svg>
