<svg version="1.0" xmlns="http://www.w3.org/2000/svg"
 width="71.000000pt" height="82.000000pt" viewBox="0 0 71.000000 82.000000"
 preserveAspectRatio="xMidYMid meet">
<metadata>
Created by potrace 1.15, written by Peter Selinger 2001-2017
</metadata>
<g transform="translate(0.000000,82.000000) scale(0.100000,-0.100000)"
fill="#000000" stroke="none">
<path d="M498 726 c-4 -34 -13 -51 -39 -75 -19 -17 -44 -34 -56 -37 -23 -6
-33 -34 -12 -34 5 0 39 16 75 35 66 34 66 34 116 -6 28 -22 58 -39 66 -37 26
5 25 27 -2 37 -38 15 -106 81 -106 103 0 23 -17 58 -29 58 -5 0 -11 -20 -13
-44z"/>
<path d="M194 748 c-4 -7 -10 -52 -12 -100 -4 -79 -6 -87 -26 -92 -13 -3 -35
-17 -49 -30 -23 -22 -27 -33 -27 -84 0 -68 11 -82 68 -91 36 -6 36 -6 33 -136
-1 -72 -5 -133 -7 -137 -9 -14 16 -47 31 -42 12 5 15 33 15 160 0 154 0 154
28 160 56 12 62 16 68 40 10 39 -1 124 -18 141 -9 8 -31 18 -49 22 -34 7 -34
7 -30 72 7 112 6 122 -6 126 -6 2 -15 -2 -19 -9z m74 -234 c6 -2 12 -12 12
-23 0 -18 -5 -19 -69 -14 -48 4 -70 2 -76 -6 -11 -19 -3 -21 74 -28 44 -4 71
-10 71 -17 0 -25 -26 -36 -87 -36 -52 0 -64 3 -73 20 -14 26 -9 78 10 95 23
21 86 25 138 9z"/>
<path d="M277 698 c5 -61 25 -107 51 -116 9 -3 10 13 6 60 -7 73 -22 111 -46
116 -14 3 -16 -5 -11 -60z"/>
<path d="M70 716 c0 -7 7 -27 15 -42 21 -40 19 -46 -16 -82 -24 -24 -27 -32
-14 -32 9 0 30 13 46 29 35 35 38 77 8 115 -22 29 -39 34 -39 12z"/>
<path d="M501 570 c-7 -23 -16 -30 -35 -30 -15 0 -26 5 -26 10 0 6 -6 10 -14
10 -11 0 -15 -25 -18 -112 -3 -91 -8 -121 -26 -154 -21 -41 -20 -54 4 -54 12
0 36 62 49 127 8 38 53 56 70 27 5 -9 20 -29 33 -44 12 -15 22 -33 22 -40 0
-6 -22 -33 -50 -60 -62 -61 -65 -88 -14 -153 36 -46 65 -59 80 -35 4 6 -1 17
-12 24 -26 18 -74 67 -74 76 0 13 62 78 75 78 18 0 65 39 65 55 0 7 -16 32
-35 55 -40 48 -41 64 -2 68 30 4 57 36 57 69 0 28 -36 53 -76 53 -27 0 -32 4
-37 30 -4 17 -11 30 -16 30 -5 0 -14 -13 -20 -30z m-1 -89 c0 -21 -6 -32 -20
-36 -28 -9 -39 1 -32 28 11 45 52 51 52 8z m90 0 c0 -17 -18 -31 -41 -31 -5 0
-9 11 -9 25 0 20 5 25 25 25 18 0 25 -5 25 -19z"/>
<path d="M286 324 c-10 -26 -5 -146 7 -188 14 -45 40 -67 58 -49 9 9 9 17 -3
35 -26 41 -41 115 -34 168 5 40 4 50 -8 50 -7 0 -17 -7 -20 -16z"/>
<path d="M86 293 c13 -60 7 -124 -16 -155 -25 -35 -25 -48 0 -48 47 0 80 166
44 218 -24 35 -37 28 -28 -15z"/>
</g>
</svg>
