<svg version="1.0" xmlns="http://www.w3.org/2000/svg"
 width="65.000000pt" height="68.000000pt" viewBox="0 0 65.000000 68.000000"
 preserveAspectRatio="xMidYMid meet">
<metadata>
Created by potrace 1.15, written by Peter Selinger 2001-2017
</metadata>
<g transform="translate(0.000000,68.000000) scale(0.100000,-0.100000)"
fill="#000000" stroke="none">
<path d="M161 591 c-10 -7 -12 -28 -6 -100 6 -81 5 -92 -10 -98 -34 -12 -50
10 -55 78 -4 48 -9 64 -20 64 -12 0 -15 -14 -14 -67 1 -76 16 -102 65 -113 28
-6 29 -9 29 -66 0 -59 0 -59 -30 -59 -24 0 -33 6 -40 26 -18 47 -35 22 -38
-59 -3 -90 6 -113 55 -133 29 -12 45 -13 90 -4 69 15 100 45 109 108 11 75
-21 155 -36 90 -4 -16 -13 -23 -30 -23 -24 0 -25 4 -28 62 -3 62 -3 62 32 68
45 9 66 33 73 84 8 56 -3 91 -27 91 -18 0 -20 -5 -14 -54 6 -46 4 -56 -15 -75
-42 -42 -51 -29 -51 67 0 92 -13 129 -39 113z m99 -416 c0 -14 -11 -37 -25
-50 -19 -20 -34 -25 -74 -25 -56 0 -81 17 -81 55 0 34 25 44 108 45 71 0 72 0
72 -25z"/>
<path d="M427 590 c-72 -14 -72 -11 -75 -296 -3 -242 -2 -256 15 -252 15 3 19
16 23 78 5 75 5 75 88 78 82 3 82 3 82 -41 0 -64 10 -107 26 -107 29 0 34 41
34 264 0 214 -1 227 -20 246 -39 39 -87 47 -173 30z m131 -58 c13 -17 17 -177
6 -244 -7 -38 -7 -38 -84 -38 -78 0 -78 0 -85 41 -4 22 -4 85 0 140 6 86 10
102 29 115 26 19 115 10 134 -14z"/>
<path d="M474 495 c-10 -25 -11 -172 -1 -181 4 -4 12 -3 19 4 16 16 17 167 1
183 -10 10 -14 8 -19 -6z"/>
</g>
</svg>
