<svg version="1.0" xmlns="http://www.w3.org/2000/svg"
 width="69.000000pt" height="85.000000pt" viewBox="0 0 69.000000 85.000000"
 preserveAspectRatio="xMidYMid meet">
<metadata>
Created by potrace 1.15, written by Peter Selinger 2001-2017
</metadata>
<g transform="translate(0.000000,85.000000) scale(0.100000,-0.100000)"
fill="#000000" stroke="none">
<path d="M245 598 c-15 -42 -35 -137 -35 -166 0 -49 15 -70 60 -83 76 -23 101
-71 50 -96 -29 -13 -167 -20 -192 -9 -25 11 -23 -9 3 -33 28 -26 98 -36 154
-22 24 6 51 11 59 11 22 0 20 -36 -5 -76 -26 -43 -71 -55 -161 -45 -38 4 -68
4 -68 0 0 -3 19 -19 41 -34 35 -23 48 -26 83 -21 35 6 91 27 146 55 38 20 57
98 36 151 -4 9 8 30 28 53 89 100 61 249 -51 264 -52 7 -93 -3 -93 -21 0 -8
25 -24 57 -36 71 -26 79 -33 86 -70 7 -30 -13 -102 -29 -107 -5 -1 -40 26 -77
60 -69 63 -69 63 -58 141 6 43 9 82 5 87 -8 13 -34 11 -39 -3z"/>
</g>
</svg>
