<svg version="1.0" xmlns="http://www.w3.org/2000/svg"
 width="61.000000pt" height="131.000000pt" viewBox="0 0 61.000000 131.000000"
 preserveAspectRatio="xMidYMid meet">
<metadata>
Created by potrace 1.15, written by Peter Selinger 2001-2017
</metadata>
<g transform="translate(0.000000,131.000000) scale(0.100000,-0.100000)"
fill="#000000" stroke="none">
<path d="M322 1274 c-41 -45 -55 -86 -55 -165 0 -44 5 -90 10 -102 6 -12 18
-47 28 -77 10 -30 24 -65 31 -77 20 -32 17 -53 -11 -75 -27 -21 -55 -77 -55
-110 0 -11 -9 -33 -21 -49 -17 -24 -27 -29 -62 -29 -40 1 -77 17 -77 36 0 5
-7 18 -15 28 -15 20 -15 20 -30 0 -8 -10 -15 -38 -15 -61 0 -33 6 -48 32 -73
30 -30 34 -32 107 -30 42 1 81 2 87 1 6 -1 17 -22 24 -48 12 -49 16 -60 44
-125 9 -21 23 -55 32 -75 9 -21 21 -47 27 -58 18 -33 44 -88 56 -118 6 -15 15
-27 21 -27 12 0 13 52 2 65 -21 23 -51 125 -56 185 -2 36 -8 77 -11 91 -6 24
-4 27 42 38 79 20 113 39 124 68 9 24 7 30 -11 45 -29 23 -58 23 -115 -2 -37
-16 -49 -17 -65 -8 -30 19 -47 72 -40 125 5 48 7 49 78 79 48 20 52 34 22 91
-94 183 -129 308 -111 392 12 59 5 88 -17 65z"/>
</g>
</svg>
