<svg version="1.0" xmlns="http://www.w3.org/2000/svg"
 width="121.000000pt" height="187.000000pt" viewBox="0 0 121.000000 187.000000"
 preserveAspectRatio="xMidYMid meet">
<metadata>
Created by potrace 1.15, written by Peter Selinger 2001-2017
</metadata>
<g transform="translate(0.000000,187.000000) scale(0.100000,-0.100000)"
fill="#000000" stroke="none">
<path d="M909 1856 c25 -14 61 -11 61 5 0 5 -19 9 -42 9 -41 -1 -42 -1 -19
-14z"/>
<path d="M109 1783 c-1 -5 0 -25 1 -45 1 -21 -3 -82 -10 -135 -35 -316 -36
-330 -50 -648 -5 -132 -12 -260 -14 -285 -9 -90 26 -163 90 -189 27 -10 37
-10 60 2 37 20 64 52 64 77 0 50 45 92 65 60 3 -5 16 -10 29 -10 34 0 84 -28
91 -51 12 -37 -6 -83 -50 -125 -47 -45 -72 -53 -180 -61 -38 -2 -73 -8 -78
-12 -4 -4 1 -17 11 -28 15 -18 30 -21 99 -22 45 0 85 4 88 9 3 6 19 10 35 10
27 0 67 18 126 57 25 16 26 15 51 -13 13 -16 32 -41 41 -57 9 -15 20 -27 24
-27 4 0 8 -6 8 -14 0 -23 103 -111 165 -140 87 -41 90 -42 210 -65 116 -22
185 -27 185 -12 0 11 -68 42 -130 61 -95 28 -176 77 -252 154 -32 32 -118 161
-118 176 0 5 -9 26 -21 47 -14 25 -22 58 -23 102 -6 137 -41 206 -134 265 -71
45 -232 91 -232 66 0 -5 24 -21 52 -36 73 -36 115 -79 138 -141 24 -64 26
-108 6 -100 -43 17 -151 47 -167 47 -23 0 -39 29 -39 74 0 19 -4 46 -9 59 -5
13 -12 53 -16 88 -3 35 -10 109 -15 164 -6 55 -14 179 -20 275 -13 234 -29
359 -52 408 -11 21 -27 30 -29 15z"/>
</g>
</svg>
