<svg version="1.0" xmlns="http://www.w3.org/2000/svg"
 width="49.000000pt" height="65.000000pt" viewBox="0 0 49.000000 65.000000"
 preserveAspectRatio="xMidYMid meet">
<metadata>
Created by potrace 1.15, written by Peter Selinger 2001-2017
</metadata>
<g transform="translate(0.000000,65.000000) scale(0.100000,-0.100000)"
fill="#000000" stroke="none">
<path d="M266 473 c-3 -3 -6 -21 -6 -38 0 -28 -4 -32 -25 -32 -20 0 -25 5 -25
23 0 28 -15 32 -25 7 -3 -10 -9 -56 -12 -102 -5 -69 -4 -83 8 -79 8 3 18 28
23 61 5 31 12 57 16 57 15 0 18 -65 5 -92 -7 -15 -16 -42 -20 -60 -7 -33 -7
-33 22 -5 30 28 43 27 43 -3 0 -9 7 -25 16 -36 14 -18 15 -14 10 45 -2 35 -9
67 -15 70 -6 4 -7 12 -1 21 12 19 13 157 1 164 -4 3 -11 3 -15 -1z"/>
</g>
</svg>
