<svg version="1.0" xmlns="http://www.w3.org/2000/svg"
 width="57.000000pt" height="99.000000pt" viewBox="0 0 57.000000 99.000000"
 preserveAspectRatio="xMidYMid meet">
<metadata>
Created by potrace 1.15, written by Peter Selinger 2001-2017
</metadata>
<g transform="translate(0.000000,99.000000) scale(0.100000,-0.100000)"
fill="#000000" stroke="none">
<path d="M430 775 c0 -74 0 -75 -41 -115 -62 -62 -65 -59 -49 52 9 64 0 118
-20 118 -23 0 -50 -116 -50 -215 0 -78 -6 -95 -59 -157 -47 -55 -108 -348 -73
-348 8 0 16 23 42 120 7 25 16 56 20 70 4 14 13 44 20 67 7 23 25 57 40 75 28
33 28 33 38 8 5 -14 15 -50 22 -80 16 -69 29 -95 41 -83 6 6 4 54 -6 128 -15
118 -15 118 10 151 27 36 63 60 73 49 3 -3 8 -36 10 -73 5 -77 12 -90 36 -66
16 15 17 32 10 158 -6 124 -10 145 -31 178 -13 21 -25 38 -28 38 -3 0 -5 -34
-5 -75z"/>
</g>
</svg>
