<svg version="1.0" xmlns="http://www.w3.org/2000/svg"
 width="47.000000pt" height="89.000000pt" viewBox="0 0 47.000000 89.000000"
 preserveAspectRatio="xMidYMid meet">
<metadata>
Created by potrace 1.15, written by Peter Selinger 2001-2017
</metadata>
<g transform="translate(0.000000,89.000000) scale(0.100000,-0.100000)"
fill="#000000" stroke="none">
<path d="M276 843 c-3 -4 -6 -44 -6 -89 0 -66 -4 -90 -21 -118 -12 -20 -25
-33 -30 -30 -12 7 -11 111 1 134 7 13 6 27 -2 44 -22 49 -29 33 -50 -114 -8
-58 -7 -85 3 -120 7 -25 11 -49 9 -55 -26 -80 -46 -464 -24 -466 18 -1 34 99
34 213 0 110 11 168 32 168 4 0 8 -7 8 -16 0 -19 57 -104 70 -104 11 0 14 43
3 53 -3 4 -18 42 -33 85 -27 79 -27 106 2 130 12 10 17 -1 28 -71 22 -138 53
-155 46 -25 -3 40 -7 127 -11 193 -3 66 -12 131 -18 145 -15 32 -33 51 -41 43z"/>
</g>
</svg>
