<svg version="1.0" xmlns="http://www.w3.org/2000/svg"
 width="35.000000pt" height="111.000000pt" viewBox="0 0 35.000000 111.000000"
 preserveAspectRatio="xMidYMid meet">
<metadata>
Created by potrace 1.15, written by Peter Selinger 2001-2017
</metadata>
<g transform="translate(0.000000,111.000000) scale(0.100000,-0.100000)"
fill="#000000" stroke="none">
<path d="M230 775 c0 -57 -5 -83 -21 -112 -29 -53 -36 -58 -48 -35 -11 20 -5
66 20 165 11 40 6 58 -11 41 -13 -13 -60 -144 -60 -167 0 -10 7 -40 16 -67 15
-45 15 -53 0 -96 -27 -81 -17 -303 15 -338 5 -6 9 50 9 130 0 163 9 191 39
120 12 -26 21 -52 21 -57 0 -5 5 -9 10 -9 6 0 10 5 10 11 0 14 -18 95 -32 141
-10 33 -8 44 12 83 13 25 26 45 31 45 4 0 10 -19 13 -42 13 -103 19 -128 27
-134 20 -12 -5 353 -26 387 -16 25 -25 2 -25 -66z"/>
</g>
</svg>
