<svg version="1.0" xmlns="http://www.w3.org/2000/svg"
 width="75.000000pt" height="131.000000pt" viewBox="0 0 75.000000 131.000000"
 preserveAspectRatio="xMidYMid meet">
<metadata>
Created by potrace 1.15, written by Peter Selinger 2001-2017
</metadata>
<g transform="translate(0.000000,131.000000) scale(0.100000,-0.100000)"
fill="#000000" stroke="none">
<path d="M163 1198 c-5 -7 -16 -33 -23 -58 -8 -25 -21 -56 -30 -70 -10 -14
-28 -49 -41 -77 -13 -29 -27 -53 -30 -53 -13 0 12 -96 29 -108 9 -7 24 -18 33
-25 29 -23 74 -52 102 -67 16 -8 40 -28 54 -44 23 -28 24 -30 6 -36 -10 -4
-64 -7 -120 -8 -117 0 -132 -5 -106 -34 31 -35 54 -40 182 -45 112 -3 128 -6
143 -24 24 -29 39 -81 49 -169 25 -228 26 -233 65 -350 4 -12 7 -12 13 -1 5 7
14 10 21 6 6 -4 17 1 25 11 16 22 21 175 6 202 -5 9 -14 78 -21 152 -6 74 -16
148 -22 163 -13 34 0 47 45 47 15 0 27 3 27 8 0 4 18 18 39 32 22 13 46 35 53
49 7 15 21 38 31 52 20 29 33 120 23 171 -10 56 -90 143 -174 190 -21 11 -41
24 -47 28 -5 4 -28 10 -50 12 -36 3 -40 1 -40 -21 0 -13 9 -29 20 -35 25 -14
135 -124 135 -136 0 -5 8 -16 17 -26 12 -12 17 -34 18 -76 0 -60 0 -60 -59
-114 -32 -30 -67 -54 -77 -54 -10 0 -31 13 -46 28 -16 16 -44 39 -63 52 -19
14 -45 34 -57 45 -12 11 -40 31 -62 44 -40 24 -40 26 -35 69 3 24 9 65 15 91
23 110 23 119 -2 156 -26 38 -32 41 -46 23z"/>
</g>
</svg>
