<svg version="1.0" xmlns="http://www.w3.org/2000/svg"
 width="85.000000pt" height="169.000000pt" viewBox="0 0 85.000000 169.000000"
 preserveAspectRatio="xMidYMid meet">
<metadata>
Created by potrace 1.15, written by Peter Selinger 2001-2017
</metadata>
<g transform="translate(0.000000,169.000000) scale(0.100000,-0.100000)"
fill="#000000" stroke="none">
<path d="M210 1567 c0 -2 6 -17 14 -33 8 -16 22 -47 31 -69 26 -62 40 -90 45
-95 3 -3 26 -45 51 -95 47 -90 47 -90 17 -165 -17 -41 -32 -101 -35 -132 -5
-51 -3 -61 21 -93 33 -43 51 -44 99 -2 36 31 37 34 37 98 0 39 -8 90 -20 125
-11 32 -20 67 -20 76 0 21 70 168 90 188 23 23 70 140 70 175 0 26 -11 12 -51
-65 -18 -36 -36 -67 -39 -70 -3 -3 -25 -43 -49 -90 -24 -47 -46 -87 -48 -89
-4 -5 -27 25 -45 59 -7 14 -24 43 -38 65 -14 22 -45 79 -69 128 -24 48 -48 87
-52 87 -5 0 -9 -2 -9 -3z m231 -482 c6 -11 9 -54 7 -95 -3 -70 -5 -75 -26 -78
-63 -9 -69 63 -14 188 9 22 16 30 19 20 2 -8 9 -24 14 -35z"/>
<path d="M629 1048 c-1 -46 -1 -87 0 -91 2 -10 -36 -121 -52 -152 -17 -34 -51
-66 -86 -81 -42 -17 -41 -17 -41 2 0 27 -23 94 -32 94 -4 0 -8 -25 -8 -55 0
-30 -2 -55 -4 -55 -24 0 -81 38 -107 72 -18 24 -36 45 -39 48 -5 5 -10 15 -60
123 -18 38 -34 66 -37 63 -8 -7 26 -113 59 -183 34 -70 112 -150 157 -159 36
-8 42 -28 30 -104 -7 -46 -5 -79 11 -160 11 -56 21 -120 21 -143 1 -23 5 -55
9 -72 8 -30 8 -30 10 5 1 19 2 37 2 40 0 3 4 75 9 159 4 87 4 160 0 165 -9 11
-14 44 -12 84 1 15 7 22 22 22 11 0 40 18 64 41 69 65 105 175 105 324 0 57
-4 95 -10 95 -6 0 -11 -35 -11 -82z"/>
<path d="M360 78 c-98 -6 -157 -13 -162 -21 -11 -18 12 -38 35 -31 22 7 21 7
330 19 191 8 207 10 207 27 0 17 -10 18 -127 17 -71 -1 -198 -6 -283 -11z"/>
</g>
</svg>
