<svg version="1.0" xmlns="http://www.w3.org/2000/svg"
 width="47.000000pt" height="79.000000pt" viewBox="0 0 47.000000 79.000000"
 preserveAspectRatio="xMidYMid meet">
<metadata>
Created by potrace 1.15, written by Peter Selinger 2001-2017
</metadata>
<g transform="translate(0.000000,79.000000) scale(0.100000,-0.100000)"
fill="#000000" stroke="none">
<path d="M284 565 c-18 -39 -43 -45 -62 -15 -13 21 -52 28 -52 10 0 -6 11 -28
25 -48 25 -37 25 -40 12 -98 -13 -56 -15 -59 -41 -56 -26 3 -27 2 -15 -20 6
-13 18 -27 25 -31 8 -4 14 -13 14 -20 0 -7 9 -30 21 -51 13 -25 19 -52 17 -79
-3 -41 -4 -42 -46 -47 -42 -5 -42 -6 -23 -22 14 -12 42 -17 105 -19 47 -2 89
1 93 5 12 12 -27 36 -59 36 -15 0 -28 6 -29 13 0 6 -2 32 -5 55 -4 40 0 49 42
104 46 61 46 61 14 55 -30 -7 -31 -6 -26 21 4 15 2 50 -3 77 -8 42 -7 56 10
88 21 41 24 63 10 72 -6 3 -17 -10 -27 -30z m-34 -195 c0 -22 -4 -40 -10 -40
-11 0 -14 63 -3 73 11 12 13 8 13 -33z"/>
</g>
</svg>
