<svg version="1.0" xmlns="http://www.w3.org/2000/svg"
 width="43.000000pt" height="81.000000pt" viewBox="0 0 43.000000 81.000000"
 preserveAspectRatio="xMidYMid meet">
<metadata>
Created by potrace 1.15, written by Peter Selinger 2001-2017
</metadata>
<g transform="translate(0.000000,81.000000) scale(0.100000,-0.100000)"
fill="#000000" stroke="none">
<path d="M140 604 c0 -3 16 -26 35 -51 19 -25 35 -50 35 -55 0 -4 -12 -27 -26
-49 -26 -41 -26 -42 -8 -80 9 -22 21 -39 26 -39 4 0 8 -9 8 -20 0 -25 -8 -25
-40 0 -26 20 -70 27 -70 10 0 -11 40 -50 52 -50 13 0 78 -73 78 -87 0 -9 -15
-13 -45 -13 -48 0 -58 -12 -25 -30 27 -14 192 -18 197 -4 4 12 -39 34 -66 34
-13 0 -20 10 -25 31 -9 45 -9 43 29 89 19 23 35 46 35 51 0 17 -30 9 -42 -11
-7 -11 -18 -20 -25 -20 -19 0 -16 57 5 77 43 43 44 49 22 87 -23 42 -25 59 -8
86 19 29 -1 38 -22 10 -19 -25 -19 -25 -37 -4 -27 31 -83 57 -83 38z m110
-164 c0 -12 -8 -30 -19 -41 -16 -17 -19 -18 -24 -5 -4 9 0 22 8 30 8 8 15 19
15 25 0 6 5 11 10 11 6 0 10 -9 10 -20z"/>
</g>
</svg>
