<svg version="1.0" xmlns="http://www.w3.org/2000/svg"
 width="49.000000pt" height="89.000000pt" viewBox="0 0 49.000000 89.000000"
 preserveAspectRatio="xMidYMid meet">
<metadata>
Created by potrace 1.15, written by Peter Selinger 2001-2017
</metadata>
<g transform="translate(0.000000,89.000000) scale(0.100000,-0.100000)"
fill="#000000" stroke="none">
<path d="M166 692 c-3 -5 6 -31 20 -58 25 -49 25 -49 4 -85 -25 -46 -25 -74 0
-127 11 -23 20 -61 20 -88 0 -44 -1 -46 -18 -31 -13 12 -22 13 -32 6 -11 -8
-12 -12 -2 -16 6 -2 12 -9 12 -14 0 -5 12 -27 26 -48 16 -25 24 -50 22 -68 -3
-25 -7 -28 -45 -31 -35 -3 -43 -7 -43 -23 0 -17 7 -19 79 -19 130 0 182 20 92
35 -33 5 -40 11 -45 37 -11 54 -7 68 34 129 43 62 36 78 -12 32 -28 -27 -28
-27 -28 23 0 27 7 73 15 103 14 53 11 105 -7 128 -6 7 -2 27 11 54 35 72 21
92 -19 26 -19 -30 -19 -30 -40 6 -22 37 -34 45 -44 29z m67 -199 c-6 -46 -18
-55 -28 -22 -8 24 14 84 26 72 4 -4 5 -27 2 -50z"/>
</g>
</svg>
