<svg version="1.0" xmlns="http://www.w3.org/2000/svg"
 width="68.000000pt" height="85.000000pt" viewBox="0 0 68.000000 85.000000"
 preserveAspectRatio="xMidYMid meet">
<metadata>
Created by potrace 1.15, written by Peter Selinger 2001-2017
</metadata>
<g transform="translate(0.000000,85.000000) scale(0.100000,-0.100000)"
fill="#000000" stroke="none">
<path d="M305 626 c-38 -25 -130 -77 -183 -101 -57 -27 -71 -47 -52 -70 19
-23 32 -19 89 30 29 25 56 45 59 45 4 0 5 -49 4 -108 -4 -124 4 -142 64 -142
29 0 34 -3 34 -24 0 -21 -5 -24 -55 -28 -31 -3 -60 -9 -65 -14 -5 -5 -17 -40
-26 -77 -18 -71 -12 -96 20 -84 12 5 16 21 16 62 0 50 2 56 26 65 14 6 41 10
60 10 34 0 34 0 34 -80 0 -64 3 -80 15 -80 17 0 24 24 27 100 3 55 3 55 53 55
50 0 50 0 55 -69 3 -41 10 -71 17 -73 21 -7 35 38 31 95 -6 72 -29 92 -104 92
-51 0 -54 1 -54 25 0 22 4 25 33 25 23 0 41 8 60 28 25 26 27 34 27 115 0 48
2 87 5 87 2 0 21 -11 41 -25 39 -26 69 -32 79 -15 9 15 -12 38 -54 57 -20 10
-56 32 -81 49 -49 35 -113 64 -139 64 -9 0 -25 -6 -36 -14z m101 -56 c70 -49
61 -60 -51 -60 -78 0 -97 3 -102 16 -6 16 19 38 67 61 36 16 37 16 86 -17z
m38 -116 c9 -8 16 -22 16 -30 0 -11 -20 -14 -100 -14 -100 0 -100 0 -100 30 0
30 0 30 84 30 64 0 88 -4 100 -16z m-4 -86 c0 -6 -7 -20 -17 -30 -22 -25 -148
-27 -157 -2 -16 41 -9 44 84 44 62 0 90 -4 90 -12z"/>
</g>
</svg>
