<svg version="1.0" xmlns="http://www.w3.org/2000/svg"
 width="79.000000pt" height="155.000000pt" viewBox="0 0 79.000000 155.000000"
 preserveAspectRatio="xMidYMid meet">
<metadata>
Created by potrace 1.15, written by Peter Selinger 2001-2017
</metadata>
<g transform="translate(0.000000,155.000000) scale(0.100000,-0.100000)"
fill="#000000" stroke="none">
<path d="M399 1442 c-38 -40 -71 -63 -101 -69 -16 -3 -28 -9 -28 -13 0 -4 -21
-13 -47 -20 -148 -38 -173 -49 -173 -72 0 -22 11 -22 131 -2 36 6 36 6 42 -72
4 -42 7 -112 7 -155 0 -75 -1 -78 -29 -95 -32 -19 -51 -52 -51 -88 0 -44 77
-145 160 -207 63 -48 86 -71 73 -76 -7 -2 -27 -15 -45 -27 -18 -12 -58 -35
-88 -52 -59 -31 -100 -63 -100 -76 0 -11 47 -10 54 1 3 5 16 11 28 14 13 2 30
8 39 11 36 15 43 -88 10 -152 -5 -9 -15 -30 -22 -46 -8 -16 -40 -56 -71 -90
-57 -61 -57 -61 -33 -85 20 -21 26 -22 39 -11 9 7 16 18 16 25 0 7 22 33 49
58 45 42 52 46 88 41 62 -9 63 -10 63 -59 0 -56 14 -85 40 -85 19 0 26 19 32
95 3 27 7 30 40 33 32 3 41 -2 83 -47 31 -34 56 -51 71 -51 32 0 30 11 -7 51
-55 59 -71 107 -65 194 3 42 13 89 21 105 13 26 18 28 41 20 32 -13 84 -13 84
-1 0 13 -47 44 -90 61 -39 15 -120 58 -134 70 -4 5 4 19 19 32 15 12 40 34 55
48 15 14 36 32 46 41 59 50 88 102 80 143 -6 32 -24 47 -73 61 -23 6 -23 9
-23 164 0 121 3 162 14 177 12 16 18 17 34 7 31 -18 92 -27 92 -13 0 13 -25
40 -37 40 -15 0 -63 25 -63 33 0 4 -5 7 -11 7 -17 0 -132 81 -172 121 -21 22
-43 39 -50 39 -7 -1 -24 -13 -38 -28z m94 -89 c88 -80 97 -91 97 -121 0 -50
-13 -53 -166 -45 -139 8 -139 8 -135 63 4 59 8 64 79 101 24 13 45 26 48 31
11 17 36 7 77 -29z m80 -233 c5 -4 7 -20 5 -36 -3 -29 -3 -29 -78 -28 -41 0
-88 3 -105 7 -16 3 -47 6 -67 6 -31 1 -39 5 -44 25 -11 46 -2 49 145 41 75 -4
140 -10 144 -15z m-8 -126 c12 -5 14 -14 9 -38 -3 -17 -7 -32 -8 -33 -4 -4
-256 16 -265 22 -6 3 -11 20 -11 37 0 31 0 31 129 25 71 -4 137 -10 146 -13z
m23 -139 c30 -8 57 -16 59 -18 2 -2 4 -21 5 -41 1 -31 -6 -43 -55 -91 -31 -30
-62 -55 -71 -55 -8 0 -18 -4 -21 -10 -8 -12 -49 -13 -73 -1 -9 5 -30 15 -47
22 -35 16 -38 18 -89 61 -43 36 -66 81 -66 129 0 32 0 32 152 25 83 -4 176
-14 206 -21z m-28 -365 c11 0 13 -24 4 -69 -6 -31 -6 -31 -98 -31 -89 0 -91 1
-103 27 -21 44 -16 66 22 91 19 12 42 22 50 22 8 0 15 4 15 10 0 5 23 -4 50
-20 28 -17 55 -30 60 -30z m-13 -208 c-4 -47 -4 -47 -88 -50 -89 -2 -121 7
-102 30 6 7 13 24 15 38 4 30 31 37 120 32 59 -4 59 -4 55 -50z"/>
</g>
</svg>
