<svg version="1.0" xmlns="http://www.w3.org/2000/svg"
 width="71.000000pt" height="94.000000pt" viewBox="0 0 71.000000 94.000000"
 preserveAspectRatio="xMidYMid meet">
<metadata>
Created by potrace 1.15, written by Peter Selinger 2001-2017
</metadata>
<g transform="translate(0.000000,94.000000) scale(0.100000,-0.100000)"
fill="#000000" stroke="none">
<path d="M318 764 c-9 -18 -40 -39 -115 -74 -66 -31 -103 -54 -103 -64 0 -18
35 -22 45 -6 5 9 69 40 81 40 2 0 4 -26 4 -58 0 -50 -3 -60 -30 -85 -33 -31
-39 -67 -15 -91 33 -32 243 -33 305 -1 53 28 47 92 -11 110 -16 5 -19 17 -19
66 0 32 3 59 7 59 3 0 28 -14 54 -31 47 -30 69 -31 69 -5 0 16 -76 65 -157
102 -35 16 -64 36 -66 46 -7 26 -36 22 -49 -8z m67 -60 c17 -11 25 -26 25 -44
0 -26 -3 -27 -62 -34 -68 -7 -84 1 -75 36 5 19 39 42 85 57 1 1 14 -6 27 -15z
m35 -134 c0 -30 0 -30 -75 -30 -73 0 -75 1 -75 24 0 26 12 30 113 34 35 2 37
0 37 -28z m58 -87 c4 -30 -19 -40 -118 -48 -122 -10 -177 18 -117 60 17 12 44
15 127 13 99 -3 105 -4 108 -25z"/>
<path d="M397 345 c-25 -19 -52 -35 -60 -35 -7 0 -26 14 -42 30 -40 41 -74 40
-125 -6 -40 -36 -52 -64 -27 -64 8 0 24 12 38 26 36 39 55 46 79 32 26 -17 25
-35 -2 -44 -32 -9 -58 -34 -58 -55 0 -23 37 -49 71 -49 44 0 41 -12 -10 -46
-54 -37 -81 -69 -81 -96 0 -30 26 -20 54 21 24 34 61 61 86 61 5 0 10 -21 12
-47 2 -35 7 -48 18 -48 10 0 17 14 20 45 7 60 34 65 82 16 37 -39 65 -46 75
-20 10 27 -57 85 -105 91 -52 7 -54 19 -3 33 44 12 91 45 91 65 0 20 -40 45
-73 45 -26 0 -28 2 -17 16 30 35 50 37 80 9 29 -28 60 -29 60 -2 0 16 -70 57
-97 57 -11 0 -41 -16 -66 -35z m42 -90 c20 -20 -125 -52 -172 -39 -26 8 -16
26 24 41 31 12 135 10 148 -2z"/>
</g>
</svg>
