<svg version="1.0" xmlns="http://www.w3.org/2000/svg"
 width="89.000000pt" height="205.000000pt" viewBox="0 0 89.000000 205.000000"
 preserveAspectRatio="xMidYMid meet">
<metadata>
Created by potrace 1.15, written by Peter Selinger 2001-2017
</metadata>
<g transform="translate(0.000000,205.000000) scale(0.100000,-0.100000)"
fill="#000000" stroke="none">
<path d="M533 1917 c-20 -9 -23 -18 -23 -62 0 -50 -2 -54 -40 -79 -22 -14 -42
-26 -44 -26 -3 0 -25 -13 -49 -30 -25 -16 -49 -30 -55 -30 -6 0 -12 -3 -14 -7
-1 -5 -23 -19 -48 -33 -25 -13 -54 -32 -64 -42 -11 -10 -26 -18 -33 -18 -7 0
-13 -9 -13 -20 0 -32 65 -27 124 11 65 41 76 35 69 -38 -3 -32 -9 -73 -13 -92
-5 -18 -6 -46 -3 -62 10 -52 -2 -73 -52 -88 -25 -7 -45 -16 -45 -20 0 -4 -14
-15 -30 -24 -17 -10 -30 -27 -30 -38 0 -10 -3 -19 -8 -19 -4 0 -13 -18 -20
-41 -15 -48 1 -109 28 -109 8 0 20 -8 27 -18 14 -23 94 -62 125 -62 13 0 28
-8 35 -19 10 -15 8 -22 -10 -38 -50 -43 -135 -103 -145 -103 -7 0 -12 -4 -12
-10 0 -5 -6 -10 -14 -10 -8 0 -28 -16 -45 -36 -57 -64 -4 -76 84 -19 17 11 32
22 35 25 15 18 68 48 74 43 3 -3 6 -83 6 -178 0 -172 -4 -195 -38 -195 -22 0
-90 -60 -106 -94 -8 -17 -19 -81 -26 -143 -10 -97 -9 -115 5 -142 8 -17 22
-31 29 -31 20 0 36 77 36 178 0 89 18 152 42 152 6 0 19 6 27 14 9 7 46 16 82
20 58 5 68 4 74 -11 5 -10 10 -90 13 -177 3 -120 8 -163 19 -174 12 -13 16
-12 28 4 11 14 14 55 15 166 0 87 4 149 10 153 6 3 10 15 10 26 0 15 7 19 38
18 20 0 57 -8 81 -17 63 -24 90 -80 97 -198 6 -98 18 -139 41 -149 21 -7 21
-7 33 55 12 66 13 124 1 164 -5 17 -15 49 -21 71 -15 50 -68 123 -95 130 -80
24 -75 14 -75 162 0 156 -9 150 104 73 41 -27 77 -46 80 -42 9 15 -21 58 -70
103 -92 83 -194 187 -194 198 0 6 11 11 24 11 12 0 36 4 52 9 16 5 41 12 55
15 45 10 106 75 114 123 6 38 -11 94 -34 113 -3 3 -11 14 -17 25 -6 11 -20 24
-32 30 -12 5 -22 13 -22 17 0 5 -10 8 -21 8 -18 0 -20 4 -15 33 3 17 10 81 16
142 6 60 12 111 14 112 1 1 32 -18 69 -42 36 -25 73 -45 82 -45 31 0 15 39
-27 68 -24 16 -63 48 -87 71 -24 22 -49 41 -55 41 -6 0 -20 12 -31 27 -11 15
-35 44 -53 65 -32 35 -33 40 -27 91 8 62 -5 81 -42 64z m17 -185 c0 -4 18 -26
40 -50 47 -50 53 -88 15 -98 -13 -3 -62 -2 -107 2 -83 9 -83 9 -86 44 -2 31 2
38 35 60 21 14 44 31 51 37 15 14 52 18 52 5z m18 -219 c28 -3 52 -8 52 -12 0
-3 -3 -16 -6 -29 -6 -22 -10 -23 -105 -21 -99 3 -99 3 -99 42 0 40 0 40 53 33
28 -4 76 -9 105 -13z m37 -163 c0 -34 -1 -35 -35 -33 -19 2 -63 5 -98 7 -35 2
-65 6 -68 9 -3 2 -2 17 2 31 6 27 6 27 103 24 96 -3 96 -3 96 -38z m21 -118
c103 -33 138 -74 114 -133 -7 -17 -24 -38 -37 -46 -37 -25 -155 -42 -216 -32
-164 27 -195 34 -222 53 -37 25 -54 46 -55 67 0 26 49 84 78 91 15 4 42 11 60
15 39 10 234 -1 278 -15z m-87 -364 c46 -45 52 -55 47 -81 -3 -16 -6 -35 -6
-42 0 -16 -91 -26 -145 -17 -40 7 -40 7 -45 67 -5 58 -5 60 29 92 19 18 42 33
51 33 8 0 39 -23 69 -52z m51 -238 c0 -41 0 -41 -92 -38 -93 3 -93 3 -96 41
-3 37 -3 37 92 37 96 0 96 0 96 -40z m0 -125 c0 -29 -6 -32 -75 -39 -27 -3
-67 -8 -87 -12 -35 -6 -38 -5 -38 15 0 53 14 61 110 61 90 0 90 0 90 -25z"/>
</g>
</svg>
