<svg version="1.0" xmlns="http://www.w3.org/2000/svg"
 width="73.000000pt" height="121.000000pt" viewBox="0 0 73.000000 121.000000"
 preserveAspectRatio="xMidYMid meet">
<metadata>
Created by potrace 1.15, written by Peter Selinger 2001-2017
</metadata>
<g transform="translate(0.000000,121.000000) scale(0.100000,-0.100000)"
fill="#000000" stroke="none">
<path d="M186 1103 c-3 -10 -6 -72 -8 -138 -1 -66 -4 -131 -8 -144 -6 -25 -6
-25 -28 -3 -20 20 -22 31 -19 113 2 79 -1 93 -16 103 -28 18 -36 -8 -36 -118
0 -120 13 -153 61 -158 32 -3 33 -5 33 -48 0 -41 -2 -45 -27 -48 -40 -5 -64
-65 -72 -182 -19 -285 -19 -340 -3 -340 28 0 34 31 41 200 7 185 23 273 50
278 16 3 17 -9 11 -175 -3 -98 -8 -219 -11 -270 -5 -90 0 -109 25 -94 22 14
27 70 30 296 1 121 6 224 11 228 28 29 51 -135 45 -315 -6 -152 1 -183 33
-142 12 16 13 55 8 232 -5 225 -17 282 -56 282 -25 0 -37 20 -36 60 1 31 4 35
36 41 18 4 39 14 46 23 12 17 26 219 17 243 -13 33 -28 1 -34 -68 -9 -98 -26
-159 -45 -159 -14 0 -15 21 -12 157 3 141 1 158 -14 161 -9 2 -19 -5 -22 -15z"/>
<path d="M503 1063 c-8 -3 -13 -21 -13 -44 0 -39 0 -39 -43 -39 -43 0 -77 -21
-77 -48 0 -7 -4 -12 -8 -12 -14 0 -14 -119 0 -150 14 -34 45 -50 93 -50 19 0
35 -4 35 -10 0 -5 -21 -34 -46 -65 -71 -88 -76 -108 -77 -362 -2 -166 1 -225
11 -234 6 -7 12 -21 12 -31 0 -23 27 -24 34 0 3 9 3 31 0 47 -16 94 -24 215
-20 321 4 125 22 185 66 224 36 32 55 76 65 148 10 78 16 86 68 97 15 3 27 10
27 15 0 6 -43 10 -105 10 -58 0 -105 -4 -105 -8 0 -16 24 -32 47 -32 29 0 38
-20 26 -57 -8 -23 -15 -27 -39 -25 -41 5 -64 38 -64 93 0 83 59 119 175 105
72 -8 81 -13 95 -47 13 -31 7 -104 -11 -126 -6 -7 -26 -15 -45 -19 -44 -8 -44
-30 2 -38 26 -5 44 -2 67 11 32 19 32 20 35 104 2 75 0 87 -20 111 -21 25 -58
36 -120 38 -14 0 -18 8 -18 34 0 34 -18 48 -47 39z"/>
<path d="M549 627 c-19 -15 -71 -92 -87 -130 -23 -53 -10 -104 29 -119 11 -4
19 -31 28 -95 11 -80 33 -161 64 -235 17 -41 47 -37 47 5 0 19 -3 37 -7 41
-12 11 -33 80 -33 107 0 15 -7 46 -15 70 -18 49 -13 89 11 89 18 0 49 31 88
88 23 34 27 45 17 55 -10 9 -17 7 -32 -13 -43 -55 -74 -90 -81 -90 -24 0 13
87 63 151 29 36 38 69 20 69 -16 0 -67 -57 -81 -89 -7 -17 -16 -31 -21 -31 -5
0 -9 -7 -9 -15 0 -8 -8 -30 -17 -49 -15 -32 -18 -34 -29 -18 -23 30 -15 61 36
136 43 65 51 87 31 86 -3 0 -13 -6 -22 -13z"/>
</g>
</svg>
