<svg version="1.0" xmlns="http://www.w3.org/2000/svg"
 width="68.000000pt" height="74.000000pt" viewBox="0 0 68.000000 74.000000"
 preserveAspectRatio="xMidYMid meet">
<metadata>
Created by potrace 1.15, written by Peter Selinger 2001-2017
</metadata>
<g transform="translate(0.000000,74.000000) scale(0.100000,-0.100000)"
fill="#000000" stroke="none">
<path d="M420 620 c-8 -5 -68 -10 -133 -10 -132 0 -172 -12 -183 -57 -9 -35 3
-248 17 -296 15 -55 44 -65 117 -42 152 48 141 46 146 22 2 -12 9 -46 15 -75
6 -30 11 -57 11 -61 0 -4 -83 -11 -185 -14 -182 -5 -211 -9 -200 -28 7 -10
553 -13 579 -3 26 10 18 32 -15 39 -17 4 -55 4 -84 0 -50 -6 -53 -5 -59 18 -5
21 -46 289 -46 303 0 2 24 4 53 4 57 0 82 10 75 31 -3 10 -24 14 -69 14 -64 0
-64 0 -67 53 -3 52 -3 52 35 52 35 0 63 13 63 30 0 5 -45 30 -53 30 -1 0 -9
-5 -17 -10z m-70 -104 c0 -53 0 -53 -91 -59 -50 -4 -95 -4 -100 -1 -15 9 -10
76 8 96 13 15 31 18 100 18 83 0 83 0 83 -54z m13 -133 c4 -21 9 -50 13 -64 6
-25 3 -27 -78 -53 -45 -14 -90 -26 -100 -26 -16 0 -29 40 -43 138 -7 42 -7 42
98 42 104 0 104 0 110 -37z"/>
</g>
</svg>
