<svg version="1.0" xmlns="http://www.w3.org/2000/svg"
 width="64.000000pt" height="77.000000pt" viewBox="0 0 64.000000 77.000000"
 preserveAspectRatio="xMidYMid meet">
<metadata>
Created by potrace 1.15, written by Peter Selinger 2001-2017
</metadata>
<g transform="translate(0.000000,77.000000) scale(0.100000,-0.100000)"
fill="#000000" stroke="none">
<path d="M185 503 c-84 -4 -106 -13 -87 -36 9 -11 45 -13 177 -9 142 4 165 2
171 -11 3 -8 1 -25 -6 -36 -10 -20 -19 -21 -148 -21 -199 0 -187 12 -187 -190
0 -165 0 -165 190 -167 198 -3 229 2 209 34 -7 10 -19 17 -29 16 -11 0 -14 4
-11 14 3 8 6 39 6 69 0 54 0 54 36 54 28 0 35 3 32 18 -2 9 -13 18 -25 20 -12
2 -29 14 -37 28 -20 30 -44 31 -48 2 -3 -22 -6 -23 -140 -26 -138 -3 -138 -3
-138 31 0 31 4 35 31 41 17 3 75 6 128 6 111 1 180 12 192 31 5 8 9 33 9 56 0
33 -5 46 -26 62 -28 22 -65 24 -299 14z m235 -353 c0 -71 0 -71 -133 -68 -132
3 -132 3 -135 65 -4 74 -11 70 151 72 117 1 117 1 117 -69z"/>
<path d="M235 181 c-26 -4 -40 -11 -40 -21 0 -12 16 -16 68 -18 66 -3 68 -2
65 20 -3 26 -25 30 -93 19z"/>
</g>
</svg>
