<svg version="1.0" xmlns="http://www.w3.org/2000/svg"
 width="75.000000pt" height="92.000000pt" viewBox="0 0 75.000000 92.000000"
 preserveAspectRatio="xMidYMid meet">
<metadata>
Created by potrace 1.15, written by Peter Selinger 2001-2017
</metadata>
<g transform="translate(0.000000,92.000000) scale(0.100000,-0.100000)"
fill="#000000" stroke="none">
<path d="M416 656 c-51 -103 -56 -136 -26 -173 11 -14 20 -36 20 -48 0 -35 21
-46 73 -39 58 8 71 23 64 74 -3 27 -1 43 9 51 8 6 14 25 14 41 0 24 -11 41
-50 76 -43 39 -50 50 -45 73 14 61 -16 33 -59 -55z m104 -69 c0 -7 -14 -12
-37 -12 -51 0 -54 -19 -3 -23 22 -2 40 -7 40 -11 0 -19 -31 -32 -67 -29 -33 3
-38 6 -41 31 -2 17 7 46 24 74 27 47 27 47 55 15 16 -18 29 -38 29 -45z m-5
-117 c12 -20 -15 -51 -43 -48 -21 2 -28 9 -30 31 -3 25 -1 27 32 27 19 0 38
-4 41 -10z"/>
<path d="M187 614 c5 -40 3 -48 -23 -77 -37 -40 -94 -114 -94 -121 0 -33 125
76 156 135 15 29 15 34 -2 70 -25 56 -45 52 -37 -7z"/>
<path d="M196 471 c-4 -5 -4 -16 0 -24 3 -9 -21 -44 -63 -92 -37 -42 -68 -84
-68 -93 0 -25 24 -26 34 0 12 30 69 84 78 74 9 -8 8 -58 -2 -182 -7 -85 2
-124 30 -124 18 0 19 14 4 42 -8 15 -8 46 1 117 8 66 8 110 1 140 -8 38 -7 46
10 64 20 21 24 43 13 71 -7 17 -29 21 -38 7z"/>
<path d="M576 405 c-9 -13 -16 -31 -16 -40 0 -12 -13 -15 -60 -15 -48 0 -68 5
-100 26 -51 34 -76 21 -30 -16 32 -26 32 -26 -19 -50 -28 -14 -51 -29 -51 -34
0 -5 25 -6 55 -3 47 5 57 3 65 -13 16 -30 12 -37 -29 -53 -36 -15 -83 -64
-110 -115 -25 -47 -4 -42 38 8 42 50 90 80 128 80 11 0 27 -15 38 -37 16 -29
35 -44 94 -71 49 -22 77 -30 83 -24 13 13 2 32 -18 32 -38 0 -136 72 -146 107
-2 7 17 22 42 35 56 28 70 56 70 135 0 70 -10 84 -34 48z m-27 -116 c-20 -29
-66 -56 -78 -44 -5 6 -13 22 -16 38 -7 27 -7 27 50 27 56 0 57 -1 44 -21z"/>
</g>
</svg>
