<svg version="1.0" xmlns="http://www.w3.org/2000/svg"
 width="69.000000pt" height="124.000000pt" viewBox="0 0 69.000000 124.000000"
 preserveAspectRatio="xMidYMid meet">
<metadata>
Created by potrace 1.15, written by Peter Selinger 2001-2017
</metadata>
<g transform="translate(0.000000,124.000000) scale(0.100000,-0.100000)"
fill="#000000" stroke="none">
<path d="M296 1145 c-3 -8 -3 -22 0 -30 4 -8 4 -26 0 -39 -5 -21 -10 -23 -62
-20 -41 2 -67 -2 -95 -16 -21 -11 -47 -20 -58 -20 -13 0 -26 -12 -37 -36 -14
-30 -15 -48 -8 -117 16 -156 4 -739 -17 -779 -14 -27 -10 -48 9 -48 41 0 58
87 67 332 3 98 8 184 11 192 4 10 15 13 32 10 24 -4 55 0 144 22 27 6 27 6 30
-52 2 -45 7 -60 20 -62 24 -5 44 69 25 95 -14 19 13 39 73 53 83 19 100 27
100 50 0 11 -3 20 -6 20 -13 0 -90 -22 -111 -32 -34 -16 -56 -3 -49 28 9 36
44 63 82 64 16 0 38 6 48 13 16 12 16 14 2 26 -13 11 -25 11 -67 1 -56 -14
-69 -7 -69 38 0 17 6 22 26 22 39 0 124 31 124 45 0 22 -29 25 -73 10 -23 -8
-50 -15 -59 -15 -15 0 -31 26 -27 46 4 23 -3 34 -21 34 -17 0 -20 -7 -20 -48
0 -48 0 -48 -62 -67 -35 -10 -73 -19 -85 -20 -27 -1 -37 -10 -29 -24 8 -12 94
-5 134 10 32 12 45 0 40 -36 -3 -26 -9 -29 -73 -45 -77 -17 -95 -26 -95 -42 0
-10 73 -6 138 7 33 7 33 7 30 -31 -3 -42 -7 -44 -128 -60 -25 -4 -51 -11 -58
-17 -7 -5 -15 -8 -17 -5 -3 3 -8 84 -12 180 -6 173 -6 175 17 196 41 38 288
48 436 17 30 -7 35 -53 34 -297 -1 -221 15 -595 28 -643 5 -19 16 -31 29 -33
26 -4 34 16 23 62 -4 20 -9 94 -9 165 -1 70 -6 152 -10 182 -5 30 -9 171 -9
313 0 317 12 296 -182 312 -74 6 -81 9 -85 30 -3 13 -7 35 -10 49 -4 18 -12
25 -29 25 -13 0 -26 -7 -30 -15z"/>
<path d="M428 488 c-3 -43 -3 -43 -90 -46 -66 -2 -88 0 -89 10 -1 7 -2 21 -3
32 -2 27 -34 45 -46 26 -14 -22 -12 -196 3 -222 18 -33 34 -48 51 -48 8 0 18
-4 21 -10 8 -13 126 -13 161 0 47 18 54 37 53 140 0 112 -12 160 -39 160 -15
0 -19 -9 -22 -42z m1 -92 c8 -5 10 -21 7 -45 -3 -20 -5 -44 -6 -53 0 -12 -15
-20 -54 -29 -49 -11 -58 -10 -88 8 -30 17 -33 24 -36 70 -3 52 -3 52 45 55 72
5 118 2 132 -6z"/>
</g>
</svg>
