<svg version="1.0" xmlns="http://www.w3.org/2000/svg"
 width="60.000000pt" height="85.000000pt" viewBox="0 0 60.000000 85.000000"
 preserveAspectRatio="xMidYMid meet">
<metadata>
Created by potrace 1.15, written by Peter Selinger 2001-2017
</metadata>
<g transform="translate(0.000000,85.000000) scale(0.100000,-0.100000)"
fill="#000000" stroke="none">
<path d="M148 640 c-72 -14 -78 -26 -78 -175 0 -152 5 -165 71 -174 38 -5 44
-9 47 -32 3 -25 0 -26 -60 -35 -45 -6 -63 -13 -63 -24 0 -11 16 -16 60 -20 39
-3 60 -9 59 -17 -1 -7 -2 -20 -2 -28 -1 -8 -28 -28 -60 -43 -32 -15 -58 -35
-60 -44 -5 -25 18 -23 81 8 53 24 68 44 90 115 6 19 95 35 110 20 6 -6 4 -26
-4 -53 -12 -36 -20 -45 -49 -54 -38 -12 -55 -44 -23 -44 25 0 87 23 107 39 8
7 19 35 22 62 6 47 8 49 39 49 28 0 33 -4 39 -31 3 -17 6 -46 6 -64 0 -37 24
-65 42 -47 16 16 6 148 -13 168 -9 8 -38 18 -65 22 -44 6 -49 10 -52 34 -3 24
1 27 35 33 73 12 80 15 91 40 18 39 16 190 -3 205 -13 10 -19 10 -33 -4 -13
-11 -38 -16 -86 -16 -67 0 -67 0 -64 28 3 27 4 27 88 32 77 5 85 7 85 25 0 17
-9 21 -55 27 -73 8 -256 8 -302 -2z m127 -80 c0 -24 -3 -25 -72 -28 -72 -3
-73 -2 -73 22 0 28 18 34 95 32 46 -1 50 -3 50 -26z m185 -94 c0 -8 -7 -17
-16 -20 -27 -10 -312 -7 -319 4 -12 20 43 29 188 29 119 1 147 -2 147 -13z m0
-76 c13 -9 13 -12 -3 -24 -20 -15 -187 -30 -272 -24 -43 3 -50 6 -53 25 -3 20
2 22 55 26 128 8 259 6 273 -3z m-120 -113 c0 -13 -5 -28 -12 -35 -13 -13 -88
-17 -88 -4 0 4 -3 17 -6 29 -7 24 6 30 69 32 32 1 37 -2 37 -22z"/>
</g>
</svg>
