<svg version="1.0" xmlns="http://www.w3.org/2000/svg"
 width="69.000000pt" height="91.000000pt" viewBox="0 0 69.000000 91.000000"
 preserveAspectRatio="xMidYMid meet">
<metadata>
Created by potrace 1.15, written by Peter Selinger 2001-2017
</metadata>
<g transform="translate(0.000000,91.000000) scale(0.100000,-0.100000)"
fill="#000000" stroke="none">
<path d="M179 695 c-46 -15 -46 -15 -53 -67 -8 -68 -8 -192 0 -212 5 -13 23
-16 95 -16 89 0 89 0 89 -115 0 -115 0 -115 -100 -115 -62 0 -100 -4 -100 -10
0 -18 49 -30 126 -30 72 0 74 -1 74 -25 0 -25 0 -25 -95 -25 -78 0 -95 -3 -95
-15 0 -12 17 -15 89 -15 81 0 90 -2 96 -20 8 -26 27 -25 51 1 17 19 26 20 94
14 92 -8 103 0 98 72 -3 48 -3 48 -95 51 -93 3 -93 3 -93 80 0 42 -3 94 -6
115 -7 37 -7 37 78 37 52 0 89 5 96 12 8 8 12 47 12 110 0 89 -2 98 -21 109
-16 8 -23 8 -28 0 -4 -6 -38 -14 -76 -18 -62 -6 -68 -5 -62 11 4 10 7 21 7 26
0 13 91 23 103 11 16 -16 70 -14 93 3 16 12 17 17 6 28 -20 20 -322 22 -383 3z
m128 -51 c8 -22 -14 -34 -67 -34 -53 0 -75 12 -67 34 5 12 21 16 67 16 46 0
62 -4 67 -16z m173 -74 c0 -6 -58 -10 -155 -10 -97 0 -155 4 -155 10 0 6 58
10 155 10 97 0 155 -4 155 -10z m10 -55 c0 -13 -24 -15 -155 -15 -205 0 -207
18 -2 23 83 1 153 4 155 5 1 1 2 -5 2 -13z m-17 -66 c-13 -13 -285 -7 -290 6
-2 6 51 9 148 7 99 -2 149 -6 142 -13z m12 -344 c0 -17 -8 -20 -50 -23 -57 -3
-81 8 -72 32 5 14 18 16 64 14 50 -3 58 -6 58 -23z"/>
<path d="M151 371 c-17 -17 -21 -34 -21 -81 0 -52 3 -62 24 -75 33 -22 120
-17 124 7 3 14 -6 17 -45 20 -61 4 -62 21 -1 28 26 3 50 9 54 12 15 15 -11 28
-57 28 -69 0 -61 24 9 28 38 2 52 7 52 18 0 17 -8 20 -72 29 -39 5 -50 3 -67
-14z"/>
<path d="M414 356 c-22 -17 -12 -23 41 -28 38 -4 30 -23 -10 -23 -20 0 -31 -6
-33 -17 -3 -15 4 -18 37 -18 57 0 61 -18 4 -22 -35 -2 -48 -7 -48 -18 0 -12
15 -16 67 -18 60 -3 68 -1 79 19 13 26 7 102 -11 124 -16 19 -100 20 -126 1z"/>
</g>
</svg>
