<svg version="1.0" xmlns="http://www.w3.org/2000/svg"
 width="73.000000pt" height="92.000000pt" viewBox="0 0 73.000000 92.000000"
 preserveAspectRatio="xMidYMid meet">
<metadata>
Created by potrace 1.15, written by Peter Selinger 2001-2017
</metadata>
<g transform="translate(0.000000,92.000000) scale(0.100000,-0.100000)"
fill="#000000" stroke="none">
<path d="M397 744 c-4 -4 -7 -15 -7 -25 0 -11 -15 -26 -38 -38 -49 -25 -62
-41 -69 -85 -5 -30 -1 -40 25 -66 28 -27 36 -30 94 -30 78 0 108 15 131 64 15
32 16 44 7 67 -15 34 -37 54 -70 62 -14 3 -29 16 -35 28 -11 24 -27 34 -38 23z
m63 -94 c20 -11 41 -62 31 -77 -19 -31 -102 -44 -142 -23 -36 20 -22 75 25 96
37 16 61 17 86 4z"/>
<path d="M384 605 c-8 -21 2 -45 19 -45 20 0 40 27 33 45 -7 19 -45 20 -52 0z"/>
<path d="M193 574 c-8 -23 26 -123 51 -146 12 -10 32 -21 46 -24 70 -15 70
-15 70 -119 0 -73 -3 -97 -14 -101 -26 -10 -53 14 -61 53 -11 58 -42 113 -65
113 -24 0 -25 -17 -5 -56 8 -16 15 -45 15 -64 0 -66 30 -87 149 -110 33 -6 72
-23 102 -45 27 -19 54 -35 59 -35 43 0 -47 117 -98 126 -30 6 -33 9 -30 38 3
31 3 31 65 28 60 -4 133 11 133 27 0 10 -75 21 -141 21 -37 0 -49 4 -49 15 0
11 12 15 49 15 94 0 135 34 107 89 -9 16 -23 31 -31 35 -9 3 -65 6 -123 6
-122 0 -167 17 -178 67 -17 78 -37 104 -51 67z m317 -198 c0 -14 -77 -39 -92
-30 -4 3 -8 14 -8 25 0 16 7 19 50 19 36 0 50 -4 50 -14z"/>
</g>
</svg>
