<svg version="1.0" xmlns="http://www.w3.org/2000/svg"
 width="70.000000pt" height="90.000000pt" viewBox="0 0 70.000000 90.000000"
 preserveAspectRatio="xMidYMid meet">
<metadata>
Created by potrace 1.15, written by Peter Selinger 2001-2017
</metadata>
<g transform="translate(0.000000,90.000000) scale(0.100000,-0.100000)"
fill="#000000" stroke="none">
<path d="M154 665 c-4 -8 0 -23 7 -32 10 -12 13 -43 11 -117 -8 -255 -12 -227
34 -287 53 -69 64 -91 64 -128 0 -42 9 -61 31 -61 25 0 42 36 35 71 -3 16 -23
57 -45 90 -40 61 -40 62 -20 78 17 14 20 26 17 96 -2 63 -6 80 -18 80 -12 0
-16 -17 -18 -82 -2 -64 -6 -83 -17 -83 -23 0 -29 67 -16 172 13 102 8 158 -17
196 -16 25 -40 29 -48 7z"/>
<path d="M358 629 c-13 -7 -18 -23 -18 -57 0 -58 12 -72 62 -72 27 0 38 -4 38
-14 0 -11 -15 -16 -52 -18 -39 -2 -53 -7 -53 -18 0 -11 13 -16 44 -17 24 -2
46 -5 49 -7 2 -3 -18 -16 -45 -30 -52 -26 -80 -52 -69 -63 4 -4 23 2 42 12 36
19 36 19 50 0 20 -27 18 -33 -18 -43 -17 -4 -33 -13 -35 -19 -5 -14 35 -24 64
-17 19 5 23 2 23 -15 0 -18 -6 -21 -45 -21 -32 0 -47 -5 -52 -15 -8 -24 4 -30
52 -28 44 1 44 1 47 -70 3 -69 4 -72 28 -72 24 0 25 2 25 75 0 75 0 75 60 80
52 4 60 8 60 25 0 17 -7 20 -55 21 -75 2 -78 3 -56 19 11 8 35 15 53 15 26 0
33 4 33 20 0 13 7 20 20 20 13 0 20 7 20 19 0 19 -65 64 -119 82 -20 7 -15 8
22 5 58 -4 87 2 87 19 0 18 -23 25 -86 25 -30 0 -54 4 -54 8 0 20 28 32 71 32
58 0 71 14 67 77 -3 48 -3 48 -123 50 -69 2 -127 -2 -137 -8z m62 -59 c0 -32
-26 -43 -36 -15 -9 21 3 45 21 45 10 0 15 -10 15 -30z m80 5 c0 -18 -5 -25
-20 -25 -15 0 -20 7 -20 25 0 18 5 25 20 25 15 0 20 -7 20 -25z m68 3 c-5 -34
-38 -37 -38 -4 0 20 5 26 21 26 15 0 20 -5 17 -22z m-71 -180 c7 -9 6 -24 -3
-45 -8 -18 -15 -33 -17 -33 -2 0 -16 13 -31 29 -28 29 -28 29 0 45 36 19 39
19 51 4z m73 -58 c10 -18 8 -20 -20 -20 -28 0 -30 2 -20 20 6 11 15 20 20 20
5 0 14 -9 20 -20z"/>
<path d="M263 553 c2 -51 7 -68 18 -68 20 0 35 68 23 103 -5 15 -17 28 -26 30
-15 3 -17 -5 -15 -65z"/>
<path d="M86 595 c-7 -19 4 -128 14 -146 5 -6 15 -9 24 -6 23 9 23 129 0 151
-20 20 -30 20 -38 1z"/>
<path d="M87 404 c-4 -4 -7 -31 -7 -61 0 -46 3 -53 20 -53 23 0 33 30 28 81
-3 32 -24 49 -41 33z"/>
</g>
</svg>
