<svg version="1.0" xmlns="http://www.w3.org/2000/svg"
 width="55.000000pt" height="53.000000pt" viewBox="0 0 55.000000 53.000000"
 preserveAspectRatio="xMidYMid meet">
<metadata>
Created by potrace 1.15, written by Peter Selinger 2001-2017
</metadata>
<g transform="translate(0.000000,53.000000) scale(0.100000,-0.100000)"
fill="#000000" stroke="none">
<path d="M84 354 c3 -9 6 -75 6 -149 0 -118 2 -133 18 -137 9 -3 60 -1 112 4
52 5 133 10 180 11 47 2 91 6 97 10 9 5 11 44 9 130 -3 122 -3 122 -47 120
-24 0 -89 -6 -144 -13 -121 -14 -181 -7 -188 20 -3 12 -14 20 -27 20 -16 0
-20 -4 -16 -16z m386 -129 c0 -95 0 -95 -25 -95 -21 0 -25 5 -25 29 0 30 -14
41 -52 41 -31 0 -4 28 30 32 23 3 27 8 29 38 1 19 2 38 2 43 1 4 10 7 21 7 19
0 20 -7 20 -95z m-300 60 c0 -8 -5 -36 -11 -63 -9 -35 -9 -58 -1 -80 10 -29 2
-42 -24 -42 -6 0 -5 162 2 187 6 23 34 21 34 -2z m230 8 c0 -17 -18 -54 -21
-43 -9 34 -6 60 7 60 8 0 14 -8 14 -17z m-179 -6 c-1 -4 -1 -14 -1 -22 0 -8
-4 -15 -10 -15 -5 0 -10 12 -10 26 0 14 5 24 11 22 6 -2 10 -7 10 -11z m104 2
c7 -10 9 -158 3 -164 -2 -2 -20 -6 -40 -10 -37 -7 -37 -7 -28 26 6 19 10 37
10 40 0 12 -50 28 -66 22 -12 -4 -15 -2 -12 8 3 8 16 14 29 14 20 0 24 6 27
38 3 35 5 37 37 37 19 0 37 -5 40 -11z m-95 -150 c0 -22 -5 -29 -20 -29 -15 0
-20 7 -20 29 0 28 16 44 33 34 4 -2 7 -17 7 -34z m154 15 c7 -18 0 -34 -15
-34 -5 0 -9 11 -9 25 0 28 15 34 24 9z"/>
</g>
</svg>
