<svg version="1.0" xmlns="http://www.w3.org/2000/svg"
 width="59.000000pt" height="129.000000pt" viewBox="0 0 59.000000 129.000000"
 preserveAspectRatio="xMidYMid meet">
<metadata>
Created by potrace 1.15, written by Peter Selinger 2001-2017
</metadata>
<g transform="translate(0.000000,129.000000) scale(0.100000,-0.100000)"
fill="#000000" stroke="none">
<path d="M343 1108 c-7 -24 -15 -64 -19 -90 -7 -51 -21 -60 -44 -28 -8 11 -25
20 -38 20 -19 0 -22 4 -17 20 5 14 2 20 -9 20 -9 0 -16 4 -16 9 0 11 -40 22
-52 15 -14 -9 24 -62 85 -120 31 -30 57 -59 57 -65 0 -6 -29 -39 -64 -73 -40
-38 -67 -74 -71 -92 -4 -16 -11 -39 -16 -52 -13 -33 -11 -149 4 -175 6 -12 19
-29 27 -37 69 -70 68 -65 8 -122 -30 -29 -68 -64 -83 -78 -45 -40 -10 -34 55
10 33 22 65 38 71 34 8 -5 9 -41 5 -120 -5 -73 -4 -114 2 -114 12 0 60 150 64
200 2 19 8 35 14 35 13 0 70 -42 93 -67 9 -10 23 -18 32 -18 15 0 14 5 -5 42
-11 24 -40 62 -63 86 -24 23 -43 47 -43 52 0 8 21 27 68 59 41 29 60 97 61
218 1 107 0 114 -29 168 -31 57 -31 57 -8 77 95 82 120 118 83 118 -14 0 -96
-65 -103 -82 -2 -5 -8 -8 -13 -8 -12 0 -11 52 2 106 9 33 9 52 1 70 -16 34
-26 30 -39 -18z m-13 -188 c0 -5 -5 -10 -11 -10 -5 0 -7 5 -4 10 3 6 8 10 11
10 2 0 4 -4 4 -10z m-24 -147 c-15 -127 -13 -123 -60 -123 -24 0 -45 2 -48 5
-12 13 21 82 60 126 24 27 46 49 49 49 3 0 2 -26 -1 -57z m77 37 c7 0 13 -18
15 -41 1 -22 3 -44 3 -47 1 -4 1 -26 0 -49 -1 -38 -4 -43 -25 -43 -13 0 -26
-6 -29 -12 -2 -7 -8 -1 -12 14 -4 15 -2 42 4 59 6 18 11 53 11 79 0 44 10 74
18 51 2 -6 9 -11 15 -11z m-124 -234 c13 -15 5 -93 -11 -102 -22 -14 -78 82
-62 108 8 13 61 9 73 -6z m131 -32 c0 -25 -50 -84 -71 -84 -5 0 -9 -11 -9 -25
0 -14 -4 -25 -10 -25 -5 0 -10 11 -10 25 0 14 4 25 9 25 5 0 13 25 16 55 7 54
8 55 41 55 30 0 34 -3 34 -26z m-215 -44 c3 -5 1 -10 -4 -10 -6 0 -11 5 -11
10 0 6 2 10 4 10 3 0 8 -4 11 -10z"/>
</g>
</svg>
