<svg version="1.0" xmlns="http://www.w3.org/2000/svg"
 width="45.000000pt" height="65.000000pt" viewBox="0 0 45.000000 65.000000"
 preserveAspectRatio="xMidYMid meet">
<metadata>
Created by potrace 1.15, written by Peter Selinger 2001-2017
</metadata>
<g transform="translate(0.000000,65.000000) scale(0.100000,-0.100000)"
fill="#000000" stroke="none">
<path d="M230 451 c0 -45 -12 -58 -33 -36 -17 17 -37 20 -37 5 0 -5 11 -20 25
-34 14 -14 25 -27 25 -29 0 -2 -11 -16 -25 -31 -32 -34 -32 -63 0 -106 28 -38
25 -47 -21 -66 -47 -20 -43 -35 9 -32 37 3 42 0 45 -20 4 -28 26 -24 30 6 4
27 14 28 37 2 17 -18 45 -27 45 -14 0 10 -23 48 -41 67 -18 19 -18 21 1 45 27
33 25 66 -5 110 -22 32 -23 38 -10 52 20 22 20 64 1 57 -10 -4 -16 5 -20 29
-9 46 -26 43 -26 -5z m-19 -174 c-8 -8 -11 -7 -11 4 0 9 3 19 7 23 4 4 9 2 11
-4 3 -7 -1 -17 -7 -23z m46 11 c-3 -8 -6 -5 -6 6 -1 11 2 17 5 13 3 -3 4 -12
1 -19z"/>
</g>
</svg>
