<svg version="1.0" xmlns="http://www.w3.org/2000/svg"
 width="49.000000pt" height="99.000000pt" viewBox="0 0 49.000000 99.000000"
 preserveAspectRatio="xMidYMid meet">
<metadata>
Created by potrace 1.15, written by Peter Selinger 2001-2017
</metadata>
<g transform="translate(0.000000,99.000000) scale(0.100000,-0.100000)"
fill="#000000" stroke="none">
<path d="M208 763 c0 -5 -2 -12 -3 -18 -2 -5 -3 -25 -4 -42 -1 -36 -20 -44
-41 -18 -18 22 -30 18 -30 -10 0 -14 4 -25 9 -25 5 0 12 -8 15 -17 4 -10 15
-34 26 -53 25 -46 25 -53 -6 -89 -37 -45 -47 -88 -26 -111 10 -11 30 -42 45
-71 28 -51 28 -51 2 -90 -31 -47 -45 -102 -24 -94 8 3 20 19 27 35 15 34 32
40 32 11 0 -34 20 -34 31 -1 11 31 11 31 44 -4 28 -31 55 -46 55 -31 0 5 -45
74 -60 92 -17 20 -10 39 41 121 12 18 10 28 -9 68 -18 36 -20 49 -11 60 9 11
8 14 -4 14 -28 0 -47 38 -35 71 5 16 14 29 18 29 10 0 34 69 26 77 -3 3 -20
-7 -38 -22 -33 -28 -33 -28 -40 21 -9 70 -19 104 -29 104 -5 0 -10 -3 -11 -7z
m77 -341 c-8 -8 -25 10 -25 26 0 13 2 13 14 -4 8 -10 13 -21 11 -22z m-71 -18
c9 -3 16 -17 16 -30 0 -28 -15 -32 -24 -6 -3 9 -9 23 -12 30 -6 14 -3 15 20 6z
m76 -43 c0 -6 -4 -13 -10 -16 -5 -3 -10 1 -10 9 0 9 5 16 10 16 6 0 10 -4 10
-9z"/>
</g>
</svg>
