<svg version="1.0" xmlns="http://www.w3.org/2000/svg"
 width="63.000000pt" height="83.000000pt" viewBox="0 0 63.000000 83.000000"
 preserveAspectRatio="xMidYMid meet">
<metadata>
Created by potrace 1.15, written by Peter Selinger 2001-2017
</metadata>
<g transform="translate(0.000000,83.000000) scale(0.100000,-0.100000)"
fill="#000000" stroke="none">
<path d="M415 640 c-13 -14 -16 -29 -12 -53 5 -34 5 -34 -70 -41 -42 -3 -109
-6 -150 -6 -65 0 -73 2 -73 19 0 34 28 46 111 46 77 0 109 11 95 34 -9 14
-163 14 -204 0 -20 -7 -34 -21 -41 -41 -12 -33 -16 -530 -5 -541 3 -3 12 -3
20 0 11 4 14 45 14 223 0 217 0 217 83 223 45 4 114 7 153 7 71 0 71 0 77 -52
4 -28 13 -58 21 -66 13 -13 13 -19 1 -42 -23 -44 -36 -155 -29 -236 6 -70 14
-88 30 -63 3 6 7 65 9 131 2 133 11 156 47 121 19 -20 21 -32 21 -142 0 -67 4
-121 9 -121 26 0 45 142 28 215 -6 28 -24 68 -40 91 -29 41 -29 41 10 60 40
19 53 44 23 44 -9 0 -31 -11 -49 -25 -37 -28 -44 -21 -44 45 0 39 0 39 47 42
36 2 49 7 51 21 3 14 -4 17 -47 17 -43 0 -51 3 -51 18 0 15 13 22 54 31 40 9
53 16 50 26 -9 23 -41 27 -74 10 -26 -13 -30 -13 -30 -1 0 24 -16 27 -35 6z"/>
<path d="M219 447 c-59 -27 -59 -26 -59 -204 0 -137 2 -165 15 -169 8 -4 22
-1 30 6 7 6 48 14 89 17 55 4 76 10 76 19 0 8 -9 14 -19 14 -36 0 -51 12 -51
40 0 22 6 29 28 35 42 10 62 34 62 74 0 50 -24 81 -61 81 -25 0 -29 4 -29 29
0 25 4 29 40 35 22 3 40 10 40 15 0 21 -118 27 -161 8z m51 -58 c0 -27 -3 -30
-27 -27 -49 5 -40 57 10 58 12 0 17 -8 17 -31z m68 -103 c5 -37 -10 -46 -80
-46 -58 0 -58 0 -58 40 0 41 0 41 68 38 66 -3 67 -4 70 -32z m-68 -121 c0 -32
-2 -35 -30 -35 -28 0 -30 3 -30 35 0 32 2 35 30 35 28 0 30 -3 30 -35z"/>
</g>
</svg>
