<svg version="1.0" xmlns="http://www.w3.org/2000/svg"
 width="109.000000pt" height="265.000000pt" viewBox="0 0 109.000000 265.000000"
 preserveAspectRatio="xMidYMid meet">
<metadata>
Created by potrace 1.15, written by Peter Selinger 2001-2017
</metadata>
<g transform="translate(0.000000,265.000000) scale(0.100000,-0.100000)"
fill="#000000" stroke="none">
<path d="M449 2530 c-1 -8 -4 -26 -6 -40 -4 -21 -29 -452 -32 -541 -1 -14 -10
-35 -21 -47 -11 -12 -20 -25 -20 -30 0 -23 -116 -82 -161 -82 -61 0 -74 45
-40 138 11 30 24 59 29 65 18 23 55 236 50 289 -9 106 -79 208 -142 208 -24 0
-19 -15 10 -30 14 -8 38 -35 52 -60 25 -41 27 -54 27 -155 0 -115 -3 -129 -58
-245 -26 -56 -31 -77 -31 -150 -1 -74 2 -89 23 -120 30 -43 83 -94 136 -130
47 -32 193 -57 226 -39 11 5 23 8 28 5 5 -3 14 1 21 9 7 8 20 15 29 15 28 0
111 58 129 90 9 16 20 30 25 30 4 0 7 6 7 13 0 7 9 23 20 34 10 12 22 34 25
50 7 28 7 28 -25 -6 -18 -18 -35 -30 -39 -24 -3 5 -26 15 -51 23 -68 20 -157
69 -174 95 -29 45 -39 111 -27 174 14 73 15 451 1 465 -7 7 -10 5 -11 -4z m30
-679 c37 -45 95 -75 163 -85 26 -4 50 -11 52 -15 6 -9 -33 -47 -79 -78 -58
-39 -189 -55 -259 -33 -17 5 -43 12 -57 15 -36 7 -93 61 -85 80 3 8 15 15 26
15 46 0 190 100 190 132 0 18 19 6 49 -31z"/>
<path d="M110 1590 c-17 -10 -17 -10 32 -33 54 -24 58 -54 19 -132 -33 -67
-40 -128 -20 -168 18 -35 71 -87 89 -87 9 0 20 -3 23 -7 4 -3 21 -8 39 -10 17
-2 34 -6 37 -9 3 -2 6 -71 7 -152 1 -148 4 -170 31 -251 21 -65 42 -102 95
-166 19 -22 51 -62 73 -90 22 -27 43 -51 47 -53 5 -2 8 -10 8 -18 0 -8 7 -17
15 -20 8 -3 62 -52 120 -107 93 -90 136 -128 232 -201 52 -40 31 -5 -42 70
-42 44 -100 104 -128 135 -29 31 -86 92 -128 136 -42 44 -94 107 -115 139 -21
33 -41 61 -44 64 -11 9 -69 134 -85 183 -22 69 -20 105 8 117 60 25 95 85 106
178 6 52 8 55 44 67 21 7 53 16 71 19 37 7 92 63 102 103 6 24 -15 113 -27
113 -4 0 -14 16 -24 36 -18 38 -14 84 9 84 7 0 27 7 45 16 26 13 30 19 20 30
-15 19 -64 18 -94 -2 -14 -9 -26 -12 -26 -8 -1 5 -5 -9 -9 -31 -8 -39 -5 -48
32 -133 15 -36 17 -50 8 -76 -13 -40 -44 -70 -89 -85 -59 -19 -59 -20 -60 96
-1 100 -15 173 -33 173 -10 0 -10 3 -8 -157 1 -122 0 -133 -17 -134 -10 0 -26
-2 -37 -4 -43 -8 -46 1 -40 109 4 67 2 116 -6 146 -12 44 -12 44 -26 20 -9
-17 -13 -62 -14 -143 0 -132 -2 -135 -67 -118 -66 18 -108 52 -111 90 -2 18 1
38 7 44 6 6 11 18 11 27 0 8 9 26 20 40 13 16 20 41 20 69 0 35 -5 48 -27 67
-16 13 -33 24 -40 24 -6 0 -17 2 -25 5 -7 3 -20 1 -28 -5z m380 -457 c0 -59
-64 -183 -94 -183 -3 0 -6 45 -6 99 0 100 0 100 43 104 23 2 45 4 50 5 4 1 7
-10 7 -25z"/>
</g>
</svg>
