<svg version="1.0" xmlns="http://www.w3.org/2000/svg"
 width="60.000000pt" height="74.000000pt" viewBox="0 0 60.000000 74.000000"
 preserveAspectRatio="xMidYMid meet">
<metadata>
Created by potrace 1.15, written by Peter Selinger 2001-2017
</metadata>
<g transform="translate(0.000000,74.000000) scale(0.100000,-0.100000)"
fill="#000000" stroke="none">
<path d="M237 544 c-4 -4 -7 -25 -7 -46 0 -38 0 -38 -59 -38 -44 0 -60 4 -65
16 -3 9 -15 14 -28 12 -21 -3 -23 -9 -26 -84 -2 -60 1 -84 11 -93 10 -8 75
-11 223 -9 199 3 209 4 209 22 0 19 -9 20 -195 20 -195 1 -195 1 -198 30 -2
16 1 33 6 38 6 6 90 9 196 9 161 -1 188 2 193 15 10 27 -18 33 -114 27 -92 -6
-92 -6 -95 38 -2 35 -7 45 -23 47 -12 2 -24 0 -28 -4z"/>
<path d="M184 257 c-2 -7 -4 -22 -3 -32 4 -42 -2 -55 -32 -70 -17 -9 -32 -15
-34 -13 -2 2 -7 23 -12 48 -11 59 -38 66 -47 13 -8 -53 -7 -116 3 -131 11 -18
54 -6 82 24 30 32 39 30 39 -9 0 -18 5 -38 12 -45 18 -18 199 -16 224 2 21 16
18 18 -38 30 -25 6 -28 10 -27 49 0 23 4 50 7 60 7 16 12 14 50 -19 24 -20 54
-59 68 -86 26 -51 47 -59 67 -27 8 13 2 26 -24 60 -63 81 -90 107 -133 130
-64 34 -76 24 -76 -61 0 -83 -11 -110 -45 -110 -33 0 -40 15 -41 95 -1 39 -2
75 -3 81 -2 17 -31 26 -37 11z"/>
</g>
</svg>
