<svg version="1.0" xmlns="http://www.w3.org/2000/svg"
 width="91.000000pt" height="107.000000pt" viewBox="0 0 91.000000 107.000000"
 preserveAspectRatio="xMidYMid meet">
<metadata>
Created by potrace 1.15, written by Peter Selinger 2001-2017
</metadata>
<g transform="translate(0.000000,107.000000) scale(0.100000,-0.100000)"
fill="#000000" stroke="none">
<path d="M330 966 c0 -22 -8 -27 -60 -42 -33 -9 -60 -21 -60 -25 0 -5 -6 -9
-14 -9 -40 0 -157 -157 -143 -194 3 -8 0 -20 -8 -26 -7 -6 -13 -26 -12 -45 1
-48 26 -46 84 5 25 22 52 40 59 40 8 0 14 5 14 10 0 6 9 10 19 10 11 0 23 5
26 10 3 6 17 10 31 10 13 0 24 3 24 8 0 9 71 32 99 32 18 0 31 -18 31 -44 0
-7 -17 -21 -37 -32 -58 -31 -88 -48 -93 -54 -3 -3 -21 -17 -40 -30 -52 -36
-125 -116 -146 -161 -11 -21 -22 -39 -26 -39 -5 0 -8 -8 -8 -18 0 -10 -6 -24
-12 -30 -31 -31 57 -36 93 -6 8 8 19 14 23 14 4 0 16 9 28 20 12 11 27 20 34
20 7 0 40 16 73 35 55 32 131 65 151 65 4 0 13 -13 20 -30 10 -23 19 -30 41
-30 18 0 34 8 41 20 13 21 48 28 48 10 0 -5 9 -10 19 -10 11 0 21 -3 23 -7 2
-5 24 -19 51 -32 26 -13 47 -27 47 -31 0 -4 13 -13 29 -20 16 -6 35 -25 42
-41 7 -19 18 -29 28 -27 25 6 17 113 -14 190 -19 47 -41 77 -85 119 -57 53
-74 89 -50 104 6 3 10 15 10 26 0 30 11 23 70 -46 133 -154 165 -116 98 118
-6 20 -29 55 -51 77 -28 29 -38 46 -34 61 8 29 -2 49 -22 49 -19 0 -33 -22
-55 -85 -15 -46 -29 -47 -85 -9 -41 27 -62 30 -99 10 -75 -39 -83 -41 -92 -26
-6 8 -10 20 -10 27 0 12 -78 83 -92 83 -4 0 -8 -11 -8 -24z m50 -95 c15 -30
12 -58 -7 -64 -40 -12 -141 -50 -181 -69 -24 -10 -46 -17 -48 -15 -9 9 32 98
51 111 24 16 133 55 157 56 10 0 22 -9 28 -19z m225 -13 c14 -6 25 -14 25 -18
0 -4 9 -10 20 -13 24 -6 26 -33 4 -75 -18 -36 -22 -38 -50 -17 -23 18 -55 19
-89 3 -32 -14 -37 -9 -42 45 -5 43 -4 44 39 65 51 25 59 26 93 10z m205 -43
c15 -27 35 -115 27 -115 -8 0 -43 37 -68 70 -20 27 -24 40 -18 58 12 31 38 25
59 -13z m-213 -142 c18 -16 16 -30 -5 -61 -10 -15 -27 -45 -37 -67 -18 -40
-18 -40 -27 -10 -4 17 -12 54 -17 83 -8 50 -7 54 18 71 27 20 32 18 68 -16z
m-147 -80 c0 -36 -3 -39 -53 -61 -88 -40 -102 -47 -107 -52 -3 -3 -29 -18 -59
-34 -53 -28 -53 -28 -46 -5 8 27 111 129 131 129 7 0 14 4 16 9 4 12 80 50
101 51 13 0 17 -8 17 -37z m264 -20 c33 -32 101 -151 91 -161 -4 -5 -169 82
-173 91 -2 4 -10 7 -18 7 -8 0 -14 3 -14 6 0 14 56 93 65 94 6 0 28 -17 49
-37z"/>
<path d="M333 275 c-3 -9 -2 -39 1 -68 4 -29 10 -71 13 -95 8 -62 50 -102 111
-104 97 -3 113 6 144 74 7 16 16 28 20 28 5 0 8 9 8 19 0 11 5 23 10 26 17 10
11 61 -9 79 -20 18 -36 8 -43 -29 -3 -17 -10 -19 -42 -17 -22 2 -50 8 -63 13
-14 5 -35 9 -48 9 -20 0 -26 7 -35 40 -9 33 -15 40 -36 40 -13 0 -27 -7 -31
-15z m177 -137 c45 -14 50 -28 19 -59 -17 -17 -28 -20 -57 -14 -45 8 -42 5
-49 49 -5 34 -4 36 21 36 14 0 44 -6 66 -12z"/>
</g>
</svg>
