<svg version="1.0" xmlns="http://www.w3.org/2000/svg"
 width="71.000000pt" height="137.000000pt" viewBox="0 0 71.000000 137.000000"
 preserveAspectRatio="xMidYMid meet">
<metadata>
Created by potrace 1.15, written by Peter Selinger 2001-2017
</metadata>
<g transform="translate(0.000000,137.000000) scale(0.100000,-0.100000)"
fill="#000000" stroke="none">
<path d="M329 1203 c-1 -5 -1 -16 0 -25 2 -18 -23 -73 -44 -98 -30 -35 -55
-93 -55 -128 0 -31 -6 -41 -40 -66 -53 -39 -89 -93 -91 -136 -3 -56 12 -220
22 -225 14 -9 30 33 27 70 -2 28 4 42 25 63 15 15 36 38 48 52 11 14 18 19 14
12 -4 -7 -7 -45 -7 -85 0 -40 -6 -99 -13 -132 -16 -68 -7 -91 23 -57 11 12 24
22 29 22 6 0 28 21 49 48 21 26 42 49 46 50 5 2 8 10 8 18 0 19 13 18 40 -6
13 -11 26 -20 29 -20 3 0 23 -16 45 -34 44 -39 83 -62 92 -54 12 12 -1 83 -36
203 -4 17 -11 40 -15 53 -4 13 -2 22 4 22 22 0 62 -45 72 -82 18 -69 35 -46
45 62 8 87 -6 120 -81 188 -32 30 -55 59 -55 71 0 11 -33 55 -77 102 -43 44
-81 90 -85 100 -7 19 -17 25 -19 12z m128 -242 c4 -31 0 -41 -31 -70 -36 -35
-36 -35 -79 -13 -25 12 -49 22 -55 22 -15 0 -25 55 -14 77 5 10 19 36 31 58
12 22 25 48 28 58 9 31 114 -85 120 -132z m107 -102 c26 -31 35 -69 16 -69
-13 0 -53 22 -62 35 -4 6 -8 22 -8 38 0 36 22 35 54 -4z m-104 -55 c0 -38 -3
-45 -16 -40 -9 3 -20 6 -25 6 -15 0 -10 29 9 55 25 35 32 31 32 -21z m-230 5
c0 -37 -12 -60 -55 -106 -28 -30 -34 -33 -37 -17 -7 34 14 93 43 124 37 38 49
38 49 -1z m105 1 c32 -34 32 -35 -12 -43 -28 -5 -32 -3 -41 21 -19 57 8 69 53
22z m35 -100 c0 -13 -10 -24 -26 -30 -43 -17 -54 -13 -54 20 0 28 2 30 40 30
33 0 40 -3 40 -20z m94 4 c9 -8 16 -23 16 -33 0 -14 -7 -16 -35 -13 -28 3 -35
8 -35 26 0 39 26 48 54 20z m-134 -100 c0 -9 -9 -27 -20 -41 -20 -26 -20 -26
-20 0 0 14 3 32 6 41 8 21 34 21 34 0z m168 4 c7 -7 12 -20 12 -30 0 -17 -3
-16 -35 4 -19 13 -35 26 -35 31 0 12 45 8 58 -5z"/>
<path d="M535 390 c-3 -5 -3 -15 0 -21 4 -5 4 -21 1 -34 -6 -23 -10 -24 -133
-28 -71 -3 -148 -7 -172 -8 -31 -3 -46 0 -51 11 -22 47 -29 55 -55 62 -36 9
-41 4 -28 -25 22 -46 53 -130 53 -143 0 -8 4 -14 9 -14 5 0 14 -12 21 -27 6
-16 25 -39 42 -52 27 -22 38 -24 129 -23 91 1 169 16 169 33 0 3 13 21 29 39
41 48 55 155 26 210 -16 31 -29 37 -40 20z m-42 -140 c42 0 46 -12 18 -50 -32
-41 -195 -66 -253 -39 -18 8 -58 71 -58 92 0 1 57 1 127 0 71 -1 145 -2 166
-3z"/>
</g>
</svg>
