<svg version="1.0" xmlns="http://www.w3.org/2000/svg"
 width="72.000000pt" height="91.000000pt" viewBox="0 0 72.000000 91.000000"
 preserveAspectRatio="xMidYMid meet">
<metadata>
Created by potrace 1.15, written by Peter Selinger 2001-2017
</metadata>
<g transform="translate(0.000000,91.000000) scale(0.100000,-0.100000)"
fill="#000000" stroke="none">
<path d="M244 725 c9 -13 16 -26 16 -28 0 -2 -18 -12 -40 -22 -39 -18 -51 -37
-29 -50 5 -4 35 5 65 20 55 27 84 28 84 2 0 -31 -40 -51 -118 -57 -127 -10
-186 -52 -162 -115 14 -37 14 -158 0 -205 -14 -48 -13 -80 4 -80 23 0 37 27
49 96 11 65 13 67 54 87 32 16 46 18 54 10 16 -16 4 -41 -23 -52 -13 -5 -31
-19 -41 -31 -18 -22 -18 -22 15 -15 18 4 35 11 38 16 3 4 18 12 33 18 23 9 28
7 37 -10 15 -26 7 -46 -35 -93 -55 -60 -44 -133 27 -179 51 -33 87 -34 138 -5
45 26 60 53 60 109 0 35 -7 48 -50 93 -27 29 -50 57 -50 63 0 5 11 15 24 23
22 11 33 8 110 -30 64 -32 88 -49 92 -67 8 -30 41 -50 57 -34 8 8 8 20 -2 44
-24 57 -35 155 -22 197 16 53 14 69 -11 107 -29 41 -75 60 -172 69 -73 7 -76
8 -60 25 9 10 14 24 11 32 -7 19 -124 87 -149 87 -19 0 -19 -1 -4 -25z m140
-173 c7 -12 -39 -36 -53 -28 -6 4 -11 14 -11 22 0 15 55 20 64 6z m130 -4 c22
-6 47 -16 54 -21 12 -10 18 -147 6 -147 -4 0 -26 12 -50 27 -38 24 -42 30 -37
58 3 21 0 35 -11 44 -15 13 -23 51 -10 51 4 0 25 -5 48 -12z m-269 -7 c3 -5
-4 -16 -16 -24 -13 -10 -23 -30 -26 -56 -5 -33 -12 -45 -34 -56 -15 -8 -32
-15 -38 -15 -12 0 -25 81 -17 108 11 32 116 67 131 43z m58 -63 c-15 -17 -17
-17 -35 -1 -17 15 -17 17 -1 35 15 17 17 17 35 1 17 -15 17 -17 1 -35z m147 1
c0 -14 -42 -21 -54 -9 -16 17 22 44 41 29 7 -6 13 -15 13 -20z m-199 -22 c-1
-12 -15 -9 -19 4 -3 6 1 10 8 8 6 -3 11 -8 11 -12z m118 -1 c17 -20 -17 -39
-42 -24 -18 9 -18 10 0 24 23 17 28 17 42 0z m-63 -38 c4 -6 -3 -19 -16 -30
-21 -17 -25 -17 -39 -4 -14 14 -13 17 4 31 24 18 41 19 51 3z m124 1 c0 -22
-26 -37 -45 -27 -17 10 -16 12 6 24 30 16 39 17 39 3z m98 -44 c20 -14 42 -25
48 -25 6 0 9 -12 6 -30 -2 -17 -7 -30 -11 -28 -3 2 -37 20 -74 42 -55 31 -66
41 -56 52 17 21 46 17 87 -11z m-163 -5 c9 -15 -14 -40 -36 -40 -27 0 -35 21
-14 37 22 16 41 17 50 3z m36 -162 c9 -16 3 -18 -68 -18 -77 0 -77 0 -55 20
12 12 22 25 22 30 0 30 82 4 101 -32z m17 -65 c-3 -15 -15 -18 -83 -18 -68 0
-80 3 -83 18 -3 15 6 17 83 17 77 0 86 -2 83 -17z m-24 -58 c-8 -20 -67 -30
-93 -16 -37 20 -23 31 39 31 48 0 58 -3 54 -15z"/>
<path d="M193 264 c-9 -23 13 -40 32 -24 12 10 13 16 4 26 -15 18 -28 18 -36
-2z"/>
<path d="M464 255 c-9 -23 14 -45 26 -25 5 8 8 19 7 24 -6 17 -27 18 -33 1z"/>
</g>
</svg>
