<svg version="1.0" xmlns="http://www.w3.org/2000/svg"
 width="59.000000pt" height="133.000000pt" viewBox="0 0 59.000000 133.000000"
 preserveAspectRatio="xMidYMid meet">
<metadata>
Created by potrace 1.15, written by Peter Selinger 2001-2017
</metadata>
<g transform="translate(0.000000,133.000000) scale(0.100000,-0.100000)"
fill="#000000" stroke="none">
<path d="M136 1129 c-14 -141 -7 -181 46 -250 24 -31 28 -47 28 -97 0 -60 -6
-92 -19 -92 -3 0 -20 12 -37 28 -28 24 -32 34 -36 90 -4 60 -27 106 -45 89 -8
-9 -6 -149 3 -189 4 -22 18 -34 65 -56 60 -27 60 -27 58 -82 -1 -30 -1 -61 0
-67 2 -24 21 -13 27 15 12 53 36 93 69 115 19 12 35 30 35 40 0 9 5 17 10 17
14 0 13 93 -2 125 -18 41 -28 29 -28 -35 0 -51 -4 -65 -25 -85 -13 -14 -27
-25 -30 -25 -3 0 -5 29 -5 65 0 64 0 65 48 112 68 68 74 82 73 185 0 75 -3 92
-18 103 -10 7 -20 11 -22 9 -2 -2 -3 -44 -2 -93 2 -89 2 -89 -44 -135 -25 -25
-47 -46 -49 -46 -2 0 -9 14 -16 30 -7 17 -16 30 -20 30 -12 0 -22 60 -24 147
-1 61 -5 86 -17 98 -15 15 -17 11 -23 -46z"/>
<path d="M445 1128 c-2 -13 -4 -52 -3 -88 1 -36 -1 -92 -5 -125 -6 -60 -6 -60
50 -118 30 -32 58 -56 60 -53 9 8 -7 43 -32 72 -29 34 -28 27 -25 175 1 64 -1
126 -5 138 -8 28 -33 27 -40 -1z"/>
<path d="M395 731 c-3 -6 -2 -83 1 -173 4 -90 8 -203 9 -253 2 -112 3 -117 14
-111 16 10 23 69 25 219 2 121 5 150 18 164 15 15 19 15 41 0 13 -8 32 -23 41
-33 28 -27 30 -8 5 34 -27 45 -129 162 -140 162 -4 0 -10 -4 -14 -9z"/>
<path d="M316 632 c-2 -4 0 -27 4 -52 7 -34 5 -48 -6 -60 -12 -13 -17 -12 -42
2 -27 16 -27 16 -24 -56 3 -71 3 -74 -29 -106 -33 -33 -33 -33 -52 46 -27 114
-45 127 -40 28 2 -42 8 -85 13 -95 6 -10 10 -30 10 -45 0 -30 41 -157 52 -162
5 -2 8 -12 8 -23 0 -32 28 -21 35 13 4 18 11 38 15 43 5 6 11 39 15 75 9 98
14 118 38 137 44 36 57 69 57 146 0 60 -4 77 -20 95 -23 24 -27 26 -34 14z
m-6 -167 c0 -8 -4 -17 -10 -20 -6 -4 -10 5 -10 20 0 15 4 24 10 20 6 -3 10
-12 10 -20z m-71 -197 c-1 -54 -14 -99 -22 -78 -14 38 -17 92 -6 106 20 24 29
15 28 -28z"/>
</g>
</svg>
