<svg version="1.0" xmlns="http://www.w3.org/2000/svg"
 width="72.000000pt" height="91.000000pt" viewBox="0 0 72.000000 91.000000"
 preserveAspectRatio="xMidYMid meet">
<metadata>
Created by potrace 1.15, written by Peter Selinger 2001-2017
</metadata>
<g transform="translate(0.000000,91.000000) scale(0.100000,-0.100000)"
fill="#000000" stroke="none">
<path d="M507 673 c-3 -5 -8 -35 -13 -68 -7 -60 -7 -60 -35 3 -21 47 -33 62
-49 62 -28 0 -36 -25 -16 -55 22 -34 21 -35 -24 -35 -35 0 -40 3 -40 23 0 40
-18 47 -114 47 -101 0 -128 -9 -107 -34 10 -12 32 -16 87 -16 57 0 74 -3 74
-14 0 -20 -23 -26 -107 -26 -66 0 -74 -2 -71 -17 3 -16 18 -18 112 -21 69 -2
112 1 116 8 4 7 25 8 60 3 53 -8 54 -9 62 -47 10 -46 9 -46 -34 -55 -49 -10
-43 -35 10 -39 42 -3 42 -3 42 -55 0 -52 0 -52 -65 -52 -61 0 -64 1 -67 25 -2
19 -9 25 -27 25 -24 0 -25 -3 -27 -67 -1 -37 -5 -72 -9 -77 -16 -28 -25 -4
-25 70 0 80 0 80 35 94 39 17 55 41 55 82 0 54 -9 58 -122 55 -109 -4 -130
-11 -108 -37 11 -13 26 -15 81 -9 74 7 97 1 78 -22 -8 -10 -34 -14 -85 -14
-42 0 -76 -5 -80 -11 -10 -16 19 -40 57 -48 34 -7 34 -7 34 -106 0 -108 -8
-146 -27 -127 -6 6 -11 48 -12 94 -1 82 -1 83 -26 83 -25 0 -25 0 -28 -109 -2
-68 1 -113 8 -120 6 -6 57 -12 113 -14 85 -3 105 -1 116 12 20 24 -2 44 -51
48 -41 3 -41 3 -2 28 29 18 41 35 48 63 7 26 14 36 24 32 7 -3 36 -5 63 -5 49
0 49 0 43 -100 -6 -89 -5 -100 10 -106 36 -14 51 20 51 114 0 87 0 87 55 92
47 4 55 8 58 27 3 17 -3 24 -23 29 -14 3 -35 4 -47 1 -33 -9 -48 10 -48 59 0
49 13 57 80 52 29 -3 35 0 35 17 0 17 -8 20 -57 23 -32 2 -58 7 -58 11 0 5 7
25 15 45 14 34 24 40 80 48 12 2 21 12 23 26 3 19 -1 22 -34 22 -36 0 -36 1
-30 31 3 18 1 38 -5 45 -12 15 -45 19 -52 7z"/>
</g>
</svg>
