<svg version="1.0" xmlns="http://www.w3.org/2000/svg"
 width="53.000000pt" height="83.000000pt" viewBox="0 0 53.000000 83.000000"
 preserveAspectRatio="xMidYMid meet">
<metadata>
Created by potrace 1.15, written by Peter Selinger 2001-2017
</metadata>
<g transform="translate(0.000000,83.000000) scale(0.100000,-0.100000)"
fill="#000000" stroke="none">
<path d="M260 628 c-16 -85 -17 -88 -33 -88 -8 0 -19 19 -26 43 -46 159 -53
137 -55 -195 -1 -42 -4 -79 -7 -82 -9 -10 10 -124 26 -156 17 -32 30 -42 96
-64 54 -19 96 -20 112 -3 7 6 23 34 37 61 19 39 25 64 24 114 0 35 -5 67 -10
70 -18 13 -33 50 -45 111 -11 53 -11 68 5 118 9 32 20 66 22 76 4 12 0 17 -14
17 -19 0 -42 -36 -42 -68 -1 -25 -24 -52 -45 -52 -16 0 -17 7 -11 64 11 108
-14 133 -34 34z m-21 -146 c13 -24 -1 -77 -20 -77 -14 0 -23 54 -14 83 6 18
23 15 34 -6z m85 -14 c11 -42 7 -58 -14 -58 -17 0 -20 7 -20 40 0 45 23 57 34
18z m30 -120 c32 -71 31 -78 -7 -78 -34 0 -35 1 -39 48 -3 26 -3 50 -1 55 10
17 33 5 47 -25z m-102 -45 c5 -59 1 -73 -23 -73 -23 0 -39 36 -39 86 0 31 3
34 29 34 27 0 29 -3 33 -47z m138 -70 c-2 -20 -27 -100 -37 -118 -16 -27 -29
-11 -37 46 -6 44 -6 46 26 61 37 19 48 21 48 11z m-112 -66 c2 -10 -3 -17 -11
-17 -18 0 -39 24 -30 34 12 12 38 2 41 -17z"/>
</g>
</svg>
