<svg version="1.0" xmlns="http://www.w3.org/2000/svg"
 width="69.000000pt" height="92.000000pt" viewBox="0 0 69.000000 92.000000"
 preserveAspectRatio="xMidYMid meet">
<metadata>
Created by potrace 1.15, written by Peter Selinger 2001-2017
</metadata>
<g transform="translate(0.000000,92.000000) scale(0.100000,-0.100000)"
fill="#000000" stroke="none">
<path d="M495 754 c-85 -14 -109 -30 -122 -82 -9 -37 11 -270 24 -283 6 -6 29
-13 51 -16 36 -5 40 -8 32 -24 -6 -10 -26 -21 -45 -25 -33 -6 -85 -52 -85 -75
0 -17 39 -97 51 -105 24 -14 33 15 16 51 -34 71 -12 103 76 112 49 5 56 3 71
-18 22 -32 21 -34 -16 -57 -44 -26 -76 -86 -60 -113 7 -10 12 -24 12 -30 0
-19 41 -69 56 -69 21 0 17 28 -11 85 -24 50 -24 50 26 100 27 28 49 58 49 67
0 21 -56 68 -81 68 -30 0 -22 18 14 33 59 26 72 49 75 146 4 104 -7 165 -31
169 -13 3 -17 -4 -17 -27 0 -35 -14 -39 -48 -13 -17 14 -23 26 -20 48 3 26 7
29 46 32 33 3 43 7 40 19 -4 22 -11 23 -103 7z m-17 -55 c3 -18 -34 -59 -53
-59 -22 0 -18 37 6 61 22 22 42 21 47 -2z m55 -81 c53 -30 32 -45 -71 -47 -45
-1 -53 2 -50 16 2 9 19 22 38 29 46 16 56 16 83 2z m45 -100 c-3 -21 -9 -23
-85 -26 -77 -3 -83 -1 -83 17 0 24 15 28 103 30 65 1 68 0 65 -21z m2 -67 c0
-5 -7 -17 -16 -26 -12 -12 -32 -15 -78 -13 -55 3 -61 5 -64 26 -3 21 -1 22 77
22 45 0 81 -4 81 -9z"/>
<path d="M215 723 c-49 -6 -83 -23 -100 -50 -14 -20 -18 -66 -24 -237 -4 -116
-12 -220 -18 -231 -15 -28 -27 -105 -16 -105 13 0 52 80 63 130 5 25 10 119
10 210 1 216 3 220 101 241 54 11 75 20 77 32 4 18 -18 20 -93 10z"/>
<path d="M296 586 c-5 -23 -13 -36 -29 -40 -41 -11 -56 -7 -59 17 -2 12 -7 21
-13 19 -15 -4 -11 -177 4 -196 17 -20 90 -21 116 -2 34 25 31 236 -4 236 -5 0
-12 -15 -15 -34z m1 -118 c-6 -43 -30 -71 -57 -66 -10 2 -16 18 -18 50 -3 42
-1 47 20 51 59 11 61 10 55 -35z"/>
</g>
</svg>
