<svg version="1.0" xmlns="http://www.w3.org/2000/svg"
 width="103.000000pt" height="105.000000pt" viewBox="0 0 103.000000 105.000000"
 preserveAspectRatio="xMidYMid meet">
<metadata>
Created by potrace 1.15, written by Peter Selinger 2001-2017
</metadata>
<g transform="translate(0.000000,105.000000) scale(0.100000,-0.100000)"
fill="#000000" stroke="none">
<path d="M150 965 c0 -14 -9 -44 -19 -68 -11 -23 -29 -71 -41 -107 -13 -36
-26 -69 -30 -75 -4 -5 -11 -30 -14 -55 -4 -25 -10 -59 -13 -76 -4 -24 2 -37
26 -63 28 -30 31 -40 31 -96 0 -35 7 -80 16 -101 19 -45 140 -174 163 -174 10
0 29 26 49 71 32 68 33 75 31 177 -2 74 1 107 9 110 7 2 12 12 12 23 0 10 4
19 9 19 4 0 11 16 14 36 8 46 -14 109 -65 193 -23 36 -46 75 -52 86 -46 82
-83 125 -108 125 -13 0 -18 -7 -18 -25z m80 -155 c14 -22 28 -40 31 -40 4 0
12 -14 19 -31 17 -40 4 -49 -71 -49 -48 0 -57 3 -62 20 -5 19 41 140 53 140 3
0 16 -18 30 -40z m80 -209 c0 -21 -6 -43 -12 -49 -7 -5 -47 -13 -88 -17 -76
-7 -76 -7 -95 29 -13 24 -16 39 -9 46 6 6 50 14 100 19 49 4 92 9 97 10 4 0 7
-16 7 -38z m-31 -178 c9 -35 9 -59 1 -97 -19 -85 -17 -84 -71 -26 -64 69 -70
93 -33 125 16 14 35 25 42 25 6 0 12 5 12 10 0 6 8 10 19 10 14 0 22 -12 30
-47z"/>
<path d="M560 888 c-23 -9 -40 -24 -52 -48 -23 -48 -22 -68 8 -107 31 -41 72
-63 120 -63 36 0 36 0 30 -62 -3 -35 -10 -94 -16 -133 -5 -38 -13 -101 -16
-138 -4 -37 -11 -70 -15 -73 -13 -8 -11 -108 3 -162 23 -93 65 -92 60 1 -1 29
-3 68 -5 87 -2 31 2 37 33 52 19 9 53 21 75 27 23 6 60 25 83 43 36 28 42 37
41 68 -1 49 -27 90 -82 125 -51 33 -81 84 -75 131 3 29 3 29 103 30 131 2 135
3 135 12 0 20 -113 44 -202 42 -37 -1 -38 0 -38 33 0 58 19 97 47 97 13 0 32
-4 42 -10 20 -10 91 5 91 20 0 22 -51 32 -188 36 -103 3 -158 0 -182 -8z m115
-60 c3 -13 4 -42 3 -65 -3 -40 -5 -43 -33 -43 -61 0 -75 9 -75 48 0 62 92 115
105 60z m129 -365 c30 -21 43 -59 29 -82 -14 -21 -65 -49 -107 -57 -36 -6 -36
-6 -36 27 0 31 14 105 25 136 5 15 53 2 89 -24z"/>
</g>
</svg>
