<svg version="1.0" xmlns="http://www.w3.org/2000/svg"
 width="59.000000pt" height="95.000000pt" viewBox="0 0 59.000000 95.000000"
 preserveAspectRatio="xMidYMid meet">
<metadata>
Created by potrace 1.15, written by Peter Selinger 2001-2017
</metadata>
<g transform="translate(0.000000,95.000000) scale(0.100000,-0.100000)"
fill="#000000" stroke="none">
<path d="M221 828 c-15 -34 -23 -45 -53 -79 -25 -27 -22 -40 7 -33 14 3 25 3
25 0 0 -3 -14 -31 -31 -61 -20 -36 -35 -52 -45 -48 -19 7 -18 0 5 -40 10 -19
20 -56 21 -83 4 -88 5 -87 -40 -79 -22 4 -40 4 -40 1 0 -3 11 -22 25 -42 14
-21 28 -48 31 -61 4 -13 10 -23 15 -23 5 0 14 -11 19 -25 5 -14 13 -25 17 -25
5 0 21 20 37 45 15 25 37 50 47 56 32 17 23 39 -16 39 -42 0 -44 12 -12 75 20
41 50 59 59 36 2 -5 28 -23 58 -39 74 -41 75 -58 8 -125 -29 -29 -66 -63 -82
-76 -29 -22 -29 -22 -8 -62 12 -23 22 -47 22 -54 0 -14 25 -27 34 -18 3 4 6
15 6 25 0 10 4 18 10 18 5 0 20 16 33 35 25 36 75 80 83 73 5 -6 12 -76 13
-145 1 -65 16 -69 25 -8 9 54 -3 235 -15 235 -4 0 -18 -11 -31 -24 -73 -76
-118 -128 -118 -136 0 -18 -17 -10 -30 15 -12 22 -10 27 20 55 17 16 35 30 40
30 4 0 17 9 29 19 13 11 28 22 34 24 9 3 12 50 12 158 0 169 -9 277 -25 293
-10 10 -14 -24 -15 -134 0 -45 0 -45 -60 -52 -32 -4 -63 -4 -67 0 -9 9 -27
130 -20 137 3 3 16 -2 30 -11 34 -23 38 -11 12 43 -13 26 -26 59 -29 72 -10
36 -24 35 -40 -1z m39 -65 c0 -10 -6 -13 -16 -9 -9 3 -21 6 -27 6 -7 0 -3 7 7
15 21 16 36 11 36 -12z m-28 -140 c3 -33 0 -43 -13 -46 -18 -5 -39 10 -39 26
0 20 33 78 40 70 5 -4 10 -27 12 -50z m174 -109 c10 -55 7 -55 -95 -6 -19 10
-35 22 -35 27 -1 9 100 24 116 17 4 -1 10 -19 14 -38z m-187 2 c10 -11 9 -22
-4 -47 -20 -37 -35 -25 -35 29 0 34 18 43 39 18z m-49 -175 c0 -5 9 -7 20 -4
24 6 26 -9 5 -27 -13 -11 -18 -10 -30 6 -17 23 -19 34 -5 34 6 0 10 -4 10 -9z"/>
</g>
</svg>
