<svg version="1.0" xmlns="http://www.w3.org/2000/svg"
 width="68.000000pt" height="79.000000pt" viewBox="0 0 68.000000 79.000000"
 preserveAspectRatio="xMidYMid meet">
<metadata>
Created by potrace 1.15, written by Peter Selinger 2001-2017
</metadata>
<g transform="translate(0.000000,79.000000) scale(0.100000,-0.100000)"
fill="#000000" stroke="none">
<path d="M417 703 c-4 -3 -7 -17 -7 -30 0 -18 -9 -28 -35 -39 -40 -16 -70 -56
-61 -80 3 -9 20 -21 36 -27 17 -6 30 -14 30 -18 0 -3 -11 -23 -25 -43 -26 -39
-31 -56 -16 -56 10 0 48 44 67 75 13 24 44 13 44 -15 0 -11 -7 -32 -16 -46 -9
-13 -14 -27 -11 -31 11 -10 33 15 52 58 17 37 17 44 4 68 -12 22 -23 26 -64
29 -28 2 -54 7 -59 12 -14 14 11 38 45 45 49 11 81 105 36 105 -8 0 -17 -3
-20 -7z"/>
<path d="M187 662 c-18 -19 -27 -39 -27 -60 0 -22 -6 -35 -17 -39 -81 -27
-112 -51 -97 -74 8 -13 25 -11 58 6 41 22 56 19 56 -10 0 -18 -16 -41 -55 -77
-30 -28 -55 -55 -55 -59 0 -20 41 -7 80 26 24 20 46 34 50 33 4 -2 32 -16 63
-33 63 -33 88 -26 42 12 -77 65 -85 74 -85 98 0 28 23 43 43 27 6 -5 24 -12
40 -16 42 -10 34 18 -10 38 -21 9 -45 21 -53 25 -23 13 -15 63 15 86 14 12 25
26 25 33 0 22 -46 12 -73 -16z"/>
<path d="M571 596 c-40 -41 -54 -113 -27 -135 20 -17 21 -45 0 -61 -28 -24
-33 -47 -44 -179 -5 -72 -12 -142 -16 -156 -4 -18 -2 -25 9 -25 22 0 28 24 37
147 9 122 33 213 56 213 25 0 27 -28 10 -106 -19 -88 -20 -139 -5 -200 11 -43
37 -58 31 -18 -8 51 -3 197 7 207 6 6 11 21 11 33 0 13 5 26 10 29 20 12 10
56 -17 81 -58 51 -73 68 -73 80 0 6 16 35 35 64 19 29 35 54 35 56 0 15 -31
-1 -59 -30z"/>
<path d="M146 365 c-3 -9 -6 -55 -6 -102 0 -48 -3 -83 -7 -79 -5 4 -15 33 -23
64 -12 45 -19 57 -35 57 -18 0 -20 -6 -17 -65 4 -79 19 -95 96 -104 49 -7 55
-10 65 -38 6 -17 11 -39 11 -49 0 -22 11 -24 28 -7 22 22 14 72 -15 100 -16
14 -36 28 -45 31 -28 10 -21 38 12 50 22 8 33 21 40 46 15 54 -9 72 -32 24
-23 -47 -37 -39 -40 23 -3 56 -19 81 -32 49z"/>
<path d="M464 338 c-11 -13 -32 -42 -47 -65 -15 -24 -31 -43 -35 -43 -5 0 -23
23 -41 50 -18 28 -39 50 -47 50 -18 0 -18 -15 2 -45 9 -14 28 -67 43 -118 29
-99 51 -120 62 -57 11 66 42 155 66 193 28 45 27 68 -3 35z"/>
<path d="M362 338 c-21 -21 -14 -48 11 -48 34 0 50 15 42 39 -7 23 -34 28 -53
9z"/>
</g>
</svg>
