<svg version="1.0" xmlns="http://www.w3.org/2000/svg"
 width="65.000000pt" height="86.000000pt" viewBox="0 0 65.000000 86.000000"
 preserveAspectRatio="xMidYMid meet">
<metadata>
Created by potrace 1.15, written by Peter Selinger 2001-2017
</metadata>
<g transform="translate(0.000000,86.000000) scale(0.100000,-0.100000)"
fill="#000000" stroke="none">
<path d="M372 778 c-30 -30 2 -113 47 -123 45 -10 40 -40 -16 -115 -69 -90
-70 -92 -57 -97 7 -2 9 -29 6 -77 -3 -47 0 -81 8 -96 11 -21 17 -22 85 -18 46
3 84 11 100 22 25 16 26 20 23 99 -3 69 -6 82 -20 85 -11 2 -18 -3 -18 -11 0
-20 -22 -27 -80 -27 -38 0 -52 4 -59 19 -8 14 -7 22 5 32 33 28 104 128 104
148 0 24 27 28 54 8 17 -13 18 -18 6 -66 -23 -96 23 -89 57 9 18 50 16 62 -12
92 -19 21 -37 28 -82 33 -98 10 -100 12 -110 52 -9 40 -22 50 -41 31z m151
-430 c-8 -45 -12 -47 -68 -50 -48 -3 -49 -3 -56 32 -4 19 -5 38 -3 42 3 5 34
8 69 8 65 0 65 0 58 -32z"/>
<path d="M133 769 c-6 -6 -8 -37 -5 -80 4 -56 2 -69 -10 -69 -23 0 -38 22 -38
56 0 41 -15 51 -41 28 -22 -20 -23 -26 -8 -77 9 -33 15 -39 54 -49 43 -12 44
-13 27 -31 -9 -11 -36 -33 -59 -49 -24 -16 -43 -35 -43 -43 0 -23 44 -18 66 6
10 12 32 30 47 41 28 20 28 20 77 -6 47 -26 90 -34 90 -17 0 5 -22 24 -50 42
-27 19 -50 39 -50 46 0 7 18 17 40 23 47 13 62 36 58 93 -2 34 -7 42 -23 42
-16 0 -21 -8 -23 -37 -2 -25 -10 -41 -23 -48 -32 -18 -42 -3 -35 52 6 40 3 54
-10 69 -20 22 -26 23 -41 8z"/>
<path d="M112 315 c5 -134 4 -145 -12 -145 -22 0 -40 47 -41 109 -1 64 -12 95
-33 99 -17 4 -18 -3 -14 -102 4 -101 6 -108 34 -137 29 -30 29 -30 189 -24
180 8 252 -1 310 -41 43 -29 65 -31 65 -5 0 26 -92 80 -159 93 -33 6 -105 8
-173 4 -118 -6 -118 -6 -118 45 0 40 5 54 23 69 81 68 97 84 97 96 0 21 -14
17 -63 -16 -25 -16 -48 -30 -51 -30 -3 0 -6 18 -6 39 0 52 -15 91 -36 91 -15
0 -16 -15 -12 -145z"/>
</g>
</svg>
