<svg version="1.0" xmlns="http://www.w3.org/2000/svg"
 width="66.000000pt" height="89.000000pt" viewBox="0 0 66.000000 89.000000"
 preserveAspectRatio="xMidYMid meet">
<metadata>
Created by potrace 1.15, written by Peter Selinger 2001-2017
</metadata>
<g transform="translate(0.000000,89.000000) scale(0.100000,-0.100000)"
fill="#000000" stroke="none">
<path d="M307 714 c-4 -4 -7 -34 -7 -66 0 -64 -6 -69 -68 -47 -22 8 -34 20
-42 45 -12 35 -32 41 -38 11 -2 -9 4 -32 13 -50 25 -52 80 -70 206 -65 108 3
129 -5 107 -45 -9 -18 -19 -19 -151 -12 -139 7 -143 6 -177 -17 -55 -37 -63
-66 -65 -218 -1 -74 -6 -154 -10 -177 -5 -27 -4 -43 2 -43 24 0 35 62 39 210
4 155 4 155 41 189 36 34 36 34 127 27 50 -3 116 -9 147 -12 49 -6 58 -4 83
18 24 21 27 29 21 56 -9 42 -46 66 -104 68 -25 1 -54 3 -63 3 -10 1 -18 8 -18
16 0 11 12 15 45 15 50 0 115 23 115 40 0 7 -29 9 -82 8 -79 -3 -82 -2 -88 21
-6 25 -21 37 -33 25z"/>
<path d="M244 370 c-7 -43 -19 -50 -40 -22 -12 16 -13 16 -20 -1 -4 -13 2 -27
20 -46 14 -15 26 -35 26 -44 0 -23 12 -21 28 3 7 11 18 20 25 20 20 0 56 42
59 69 4 29 -17 39 -25 12 -2 -10 -14 -24 -26 -30 -20 -11 -21 -9 -21 28 0 54
-18 62 -26 11z"/>
<path d="M506 365 c7 -41 5 -42 -38 -15 -48 29 -69 25 -30 -6 17 -14 32 -29
32 -34 0 -5 -18 -10 -40 -12 -55 -4 -38 -30 26 -37 48 -6 48 -6 60 -61 7 -30
13 -79 14 -107 0 -62 12 -67 36 -17 15 31 15 43 5 92 -7 31 -17 72 -23 90 -7
24 -7 37 1 45 16 16 14 44 -5 72 -25 38 -46 33 -38 -10z"/>
<path d="M286 205 c-7 -19 -82 -21 -89 -2 -10 29 -19 -6 -12 -51 7 -54 36 -95
63 -90 24 5 62 78 62 121 0 37 -13 50 -24 22z m-28 -72 c-2 -10 -10 -18 -18
-18 -8 0 -16 8 -18 18 -2 12 3 17 18 17 15 0 20 -5 18 -17z"/>
<path d="M480 206 c-11 -15 -23 -17 -62 -12 -40 6 -48 4 -48 -9 0 -23 39 -95
55 -101 37 -15 82 56 73 116 -3 22 -4 22 -18 6z m-10 -50 c0 -3 -7 -12 -16
-21 -12 -12 -19 -13 -30 -4 -22 18 -16 29 16 29 17 0 30 -2 30 -4z"/>
</g>
</svg>
