<svg version="1.0" xmlns="http://www.w3.org/2000/svg"
 width="105.000000pt" height="89.000000pt" viewBox="0 0 105.000000 89.000000"
 preserveAspectRatio="xMidYMid meet">
<metadata>
Created by potrace 1.15, written by Peter Selinger 2001-2017
</metadata>
<g transform="translate(0.000000,89.000000) scale(0.100000,-0.100000)"
fill="#000000" stroke="none">
<path d="M601 701 c-26 -24 -31 -36 -31 -76 0 -54 12 -81 51 -114 25 -20 29
-31 29 -72 0 -27 -2 -49 -5 -49 -11 0 -62 26 -80 41 -27 22 -66 31 -82 17 -18
-15 62 -92 122 -118 45 -19 45 -19 45 -128 0 -88 3 -112 16 -123 22 -18 34 4
33 61 0 25 3 72 6 106 7 60 7 60 74 95 36 19 68 37 69 42 2 4 12 7 22 7 15 0
30 18 30 37 0 5 -39 1 -142 -14 -33 -4 -38 -3 -38 16 0 11 24 45 55 77 63 64
75 83 75 118 0 24 -44 66 -69 66 -6 0 -11 4 -11 8 0 9 -87 32 -120 32 -10 0
-32 -13 -49 -29z m150 -70 c23 -19 24 -19 5 -40 -13 -14 -31 -21 -58 -21 -44
0 -54 14 -39 53 13 33 57 37 92 8z"/>
<path d="M170 605 c0 -12 24 -55 32 -55 4 0 8 -17 8 -39 0 -34 -3 -40 -32 -51
-63 -23 -128 -53 -128 -60 0 -14 26 -30 49 -30 15 0 48 7 75 15 27 8 50 14 51
13 12 -23 25 -63 25 -75 0 -24 36 -93 66 -128 14 -16 34 -47 45 -67 24 -46 37
-54 56 -35 14 14 14 19 -2 54 -10 21 -29 52 -42 69 -12 17 -23 41 -23 52 0 12
-4 22 -8 22 -12 0 -32 108 -32 176 -1 66 -8 80 -64 118 -34 23 -76 35 -76 21z"/>
<path d="M925 391 c-3 -6 -3 -16 1 -23 10 -16 5 -112 -7 -116 -5 -2 -9 -10 -9
-18 0 -8 -6 -24 -12 -37 -16 -28 -90 -121 -100 -125 -5 -2 -8 -12 -8 -23 0
-14 7 -19 25 -19 36 0 125 93 163 171 55 114 63 157 34 175 -28 18 -79 26 -87
15z"/>
</g>
</svg>
