<svg version="1.0" xmlns="http://www.w3.org/2000/svg"
 width="67.000000pt" height="89.000000pt" viewBox="0 0 67.000000 89.000000"
 preserveAspectRatio="xMidYMid meet">
<metadata>
Created by potrace 1.15, written by Peter Selinger 2001-2017
</metadata>
<g transform="translate(0.000000,89.000000) scale(0.100000,-0.100000)"
fill="#000000" stroke="none">
<path d="M386 699 c-19 -16 -38 -39 -41 -49 -7 -23 9 -90 36 -145 28 -60 33
-99 16 -113 -22 -19 -39 -7 -72 51 -20 34 -38 53 -53 55 -15 2 -22 -2 -22 -14
0 -20 58 -110 89 -138 12 -11 21 -22 21 -26 0 -15 -74 -116 -134 -184 -33 -38
-77 -76 -96 -85 -35 -16 -35 -16 2 -19 53 -5 119 49 208 168 68 91 73 95 123
107 76 17 147 50 147 68 0 19 -8 19 -82 -1 -75 -19 -91 -14 -78 21 12 30 -2
99 -32 158 -48 96 31 159 133 107 36 -19 38 -23 28 -43 -6 -12 -28 -36 -48
-54 -29 -26 -33 -33 -20 -38 9 -3 33 0 52 9 29 12 38 22 47 58 23 84 -28 138
-131 138 -51 0 -63 -4 -93 -31z"/>
<path d="M145 700 c-3 -5 -1 -17 4 -27 51 -97 51 -100 -39 -199 -60 -66 -89
-127 -76 -160 6 -15 9 -15 31 6 14 13 25 30 25 37 0 20 51 91 99 137 55 53 61
86 24 139 -15 23 -31 50 -35 60 -8 19 -23 22 -33 7z"/>
<path d="M197 333 c-3 -5 -8 -27 -12 -51 -9 -55 -50 -93 -127 -116 -25 -7 -23
-36 2 -36 30 0 91 33 122 67 38 41 64 109 48 128 -14 16 -26 19 -33 8z"/>
<path d="M485 234 c-70 -54 -103 -141 -74 -195 19 -36 39 -4 39 62 0 57 1 58
50 101 46 39 63 68 41 68 -4 0 -29 -16 -56 -36z"/>
</g>
</svg>
