<svg version="1.0" xmlns="http://www.w3.org/2000/svg"
 width="70.000000pt" height="91.000000pt" viewBox="0 0 70.000000 91.000000"
 preserveAspectRatio="xMidYMid meet">
<metadata>
Created by potrace 1.15, written by Peter Selinger 2001-2017
</metadata>
<g transform="translate(0.000000,91.000000) scale(0.100000,-0.100000)"
fill="#000000" stroke="none">
<path d="M455 753 c-11 -2 -56 -7 -100 -11 -65 -6 -80 -10 -83 -24 -3 -16 5
-18 67 -18 64 0 71 -2 71 -20 0 -20 -16 -27 -74 -32 -16 -2 -31 -8 -33 -15 -3
-8 14 -13 54 -15 44 -2 59 -7 61 -19 3 -14 -10 -19 -70 -25 -56 -7 -74 -13
-76 -26 -3 -16 8 -17 135 -12 169 6 185 9 181 32 -3 14 -14 17 -66 14 -57 -3
-62 -1 -62 18 0 15 7 20 26 20 32 0 66 18 59 31 -4 5 -24 9 -46 9 -35 0 -39 3
-39 25 0 22 4 25 33 25 38 0 73 22 63 38 -7 11 -58 14 -101 5z"/>
<path d="M130 676 c0 -8 5 -18 10 -21 24 -15 8 -53 -45 -105 -50 -49 -70 -90
-46 -90 16 0 69 50 91 85 25 41 50 46 50 11 0 -36 -14 -66 -54 -119 -36 -47
-47 -82 -24 -75 18 6 127 160 128 179 0 28 -30 92 -58 122 -28 29 -52 35 -52
13z"/>
<path d="M370 497 c-31 -11 -35 -16 -34 -47 1 -19 6 -50 12 -68 16 -49 -7 -52
-77 -8 -62 38 -81 44 -81 24 0 -19 50 -58 108 -85 28 -13 52 -28 52 -32 0 -31
-92 -165 -136 -200 -15 -12 -24 -24 -21 -27 12 -13 50 10 105 64 47 46 62 68
77 115 9 32 22 60 29 62 6 1 37 8 68 15 46 9 65 19 95 50 43 46 86 131 73 144
-15 15 -38 -1 -56 -41 -41 -86 -84 -123 -146 -123 -29 0 -35 4 -46 38 -27 76
-26 81 4 92 15 6 33 9 41 6 15 -6 18 -42 3 -51 -18 -11 -10 -26 12 -23 12 2
29 15 38 30 14 26 13 29 -5 48 -26 26 -71 33 -115 17z"/>
<path d="M494 291 c-44 -27 -71 -65 -91 -127 -14 -45 -14 -60 -4 -94 7 -23 18
-40 26 -40 12 0 15 15 15 71 0 91 18 130 76 164 25 14 42 30 39 36 -9 14 -27
11 -61 -10z"/>
</g>
</svg>
