<svg version="1.0" xmlns="http://www.w3.org/2000/svg"
 width="66.000000pt" height="85.000000pt" viewBox="0 0 66.000000 85.000000"
 preserveAspectRatio="xMidYMid meet">
<metadata>
Created by potrace 1.15, written by Peter Selinger 2001-2017
</metadata>
<g transform="translate(0.000000,85.000000) scale(0.100000,-0.100000)"
fill="#000000" stroke="none">
<path d="M84 691 c-26 -41 -29 -71 -6 -79 7 -2 17 9 22 25 14 39 44 57 71 43
17 -9 19 -17 13 -43 -7 -36 -44 -83 -82 -109 -56 -37 -46 -75 11 -39 75 46
117 110 117 176 0 42 -29 65 -82 65 -33 0 -41 -5 -64 -39z"/>
<path d="M323 713 c-7 -2 -13 -11 -13 -19 0 -10 15 -14 61 -14 60 0 60 0 57
-27 -3 -26 -7 -28 -53 -33 -36 -4 -50 -9 -50 -20 0 -11 14 -16 58 -18 57 -3
58 -4 55 -30 -3 -25 -7 -27 -63 -32 -47 -4 -61 -9 -63 -22 -3 -16 7 -18 100
-18 124 0 178 8 178 26 0 8 -16 14 -47 16 -43 3 -48 6 -51 29 -3 24 1 27 37
33 66 10 50 46 -20 46 -24 0 -29 4 -29 24 0 21 5 24 50 28 56 6 72 14 50 28
-15 10 -235 12 -257 3z"/>
<path d="M158 429 c-13 -16 -38 -48 -56 -69 -20 -23 -31 -44 -26 -51 5 -8 25
8 60 47 28 32 55 56 58 53 3 -3 8 -30 9 -60 4 -53 -11 -109 -47 -174 -9 -16
-16 -37 -16 -45 0 -8 -7 -24 -15 -34 -17 -22 -20 -66 -6 -66 10 0 51 53 51 65
0 3 11 30 25 60 52 114 67 222 40 275 -20 39 -47 38 -77 -1z"/>
<path d="M336 431 c-19 -30 67 -91 129 -91 42 0 88 -18 88 -35 0 -15 -84 -54
-117 -55 -20 0 -39 -11 -62 -36 -28 -29 -34 -43 -34 -80 0 -50 25 -107 43
-101 8 2 11 26 9 73 -4 82 -2 85 83 108 83 23 102 34 115 67 27 65 -10 101
-108 105 -53 1 -68 6 -91 28 -28 27 -46 32 -55 17z"/>
</g>
</svg>
