<svg version="1.0" xmlns="http://www.w3.org/2000/svg"
 width="113.000000pt" height="163.000000pt" viewBox="0 0 113.000000 163.000000"
 preserveAspectRatio="xMidYMid meet">
<metadata>
Created by potrace 1.15, written by Peter Selinger 2001-2017
</metadata>
<g transform="translate(0.000000,163.000000) scale(0.100000,-0.100000)"
fill="#000000" stroke="none">
<path d="M646 1534 c-3 -8 -3 -26 0 -39 5 -22 3 -23 -58 -28 -77 -5 -368 2
-381 10 -5 3 -34 11 -65 18 -32 6 -65 15 -74 20 -25 10 -33 -17 -22 -74 9 -45
10 -46 44 -43 65 5 105 6 195 3 50 -1 152 1 228 5 138 7 138 7 135 -46 -3 -54
-5 -57 -58 -78 -35 -13 -183 -43 -260 -52 -36 -5 -113 -14 -172 -20 -71 -9
-108 -17 -108 -25 0 -7 11 -24 25 -40 20 -20 31 -25 48 -20 40 13 240 56 332
71 91 15 154 30 190 44 11 5 44 11 74 15 62 7 85 17 124 53 24 23 27 33 27 91
0 60 -2 67 -24 77 -13 6 -49 9 -80 7 -52 -4 -56 -3 -56 18 0 38 -52 65 -64 33z
m147 -120 c11 -4 17 -17 17 -35 0 -24 -4 -29 -24 -29 -13 0 -31 -3 -40 -6 -13
-5 -16 2 -16 34 0 39 13 55 35 46 6 -2 18 -7 28 -10z"/>
<path d="M849 1166 c-2 -2 -47 -7 -99 -11 -52 -4 -107 -14 -122 -21 -25 -13
-28 -20 -28 -68 0 -39 6 -60 21 -79 20 -26 22 -27 112 -21 124 7 129 9 156 45
33 45 32 103 -2 135 -27 25 -31 27 -38 20z m-11 -75 c26 -2 10 -32 -28 -51
-38 -19 -102 -26 -134 -14 -18 7 -22 39 -5 49 15 10 100 22 129 19 14 -1 31
-3 38 -3z"/>
<path d="M1010 1140 c0 -5 5 -10 10 -10 6 0 10 5 10 10 0 6 -4 10 -10 10 -5 0
-10 -4 -10 -10z"/>
<path d="M334 963 c-4 -60 -8 -133 -9 -163 -3 -97 1 -94 -57 -50 -67 50 -79
30 -19 -32 23 -22 41 -49 41 -58 0 -9 8 -25 18 -36 14 -15 20 -43 26 -119 3
-55 9 -124 13 -152 6 -53 6 -53 -31 -53 -35 0 -44 12 -37 53 2 12 -28 67 -37
67 -36 -1 -42 -84 -16 -225 19 -104 22 -111 66 -140 34 -22 51 -27 109 -27 82
0 165 25 180 55 7 11 20 30 31 41 15 17 18 30 13 61 -3 22 -10 81 -15 130 -9
100 -21 156 -32 155 -5 0 -13 0 -19 0 -6 0 -10 -24 -9 -62 3 -106 9 -98 -69
-98 -67 0 -69 1 -76 27 -4 16 -9 62 -12 103 -2 41 -8 91 -13 110 -4 19 -6 75
-5 124 4 86 5 90 52 160 26 39 51 73 56 74 4 2 7 12 7 23 0 18 -1 18 -37 -2
-21 -12 -44 -26 -52 -33 -12 -9 -13 -3 -7 43 4 30 9 66 12 80 5 22 1 29 -21
39 -14 7 -30 12 -35 12 -4 0 -12 -48 -16 -107z m199 -712 c14 -1 17 -11 17
-66 0 -65 0 -65 -36 -80 -46 -19 -137 -19 -173 0 -21 10 -30 24 -35 52 -4 21
-9 45 -12 54 -3 12 8 18 48 27 78 17 112 20 191 13z"/>
<path d="M650 854 c-25 -8 -41 -24 -59 -56 -25 -44 -25 -44 -2 -76 29 -41 74
-66 131 -72 42 -5 45 -7 45 -35 -1 -16 -4 -47 -8 -67 -7 -34 -6 -38 11 -38 15
0 25 15 43 65 23 65 23 65 119 59 84 -6 98 -4 114 11 9 10 13 22 9 26 -5 5
-47 14 -93 20 -47 7 -89 15 -93 19 -4 4 -5 25 -1 48 6 41 6 41 83 39 83 -2
144 16 139 41 -2 12 -31 15 -158 19 -85 2 -175 5 -200 6 -25 1 -61 -3 -80 -9z
m142 -56 c3 -7 3 -30 0 -51 -4 -36 -6 -38 -31 -33 -14 3 -41 8 -59 12 -18 3
-35 10 -37 15 -3 4 20 22 52 38 67 35 69 35 75 19z"/>
</g>
</svg>
