<svg version="1.0" xmlns="http://www.w3.org/2000/svg"
 width="109.000000pt" height="255.000000pt" viewBox="0 0 109.000000 255.000000"
 preserveAspectRatio="xMidYMid meet">
<metadata>
Created by potrace 1.15, written by Peter Selinger 2001-2017
</metadata>
<g transform="translate(0.000000,255.000000) scale(0.100000,-0.100000)"
fill="#000000" stroke="none">
<path d="M825 2241 c-51 -32 -241 -226 -271 -276 -35 -60 -36 -115 -3 -170 13
-22 26 -42 30 -45 11 -8 29 -58 29 -81 0 -15 -7 -19 -33 -19 -44 0 -167 43
-183 64 -15 21 -29 20 -31 -3 -5 -60 -28 -108 -80 -162 -43 -45 -65 -60 -104
-70 -27 -7 -49 -16 -49 -21 0 -4 27 -8 60 -8 33 0 60 4 60 10 0 6 6 10 13 10
29 0 127 110 127 142 1 34 16 40 51 20 44 -25 166 -47 216 -39 80 13 120 24
154 42 19 10 44 23 56 29 23 11 31 26 14 26 -4 0 -57 -11 -116 -24 -59 -14
-113 -22 -121 -19 -8 3 -14 20 -14 42 0 20 -14 63 -30 96 -35 69 -37 105 -12
143 11 15 30 44 43 64 29 46 39 48 39 9 0 -17 5 -33 10 -36 6 -3 10 -14 10
-23 1 -21 53 -81 96 -110 39 -26 122 -48 135 -35 6 6 -14 21 -55 42 -56 28
-94 61 -147 128 -5 7 -9 19 -9 27 0 8 -4 18 -10 21 -23 14 -5 41 80 124 50 49
90 96 90 105 0 21 -8 20 -45 -3z"/>
<path d="M889 1634 c-19 -23 -83 -54 -148 -71 -68 -18 -227 -21 -243 -5 -7 7
-18 12 -25 12 -7 0 -23 10 -35 23 -23 22 -23 22 -26 -27 -3 -43 -9 -55 -46
-93 -47 -46 -87 -67 -153 -78 -24 -4 -46 -11 -49 -17 -11 -17 127 -4 169 16
50 25 117 91 117 117 0 12 5 19 13 17 6 -2 32 -10 57 -17 45 -14 45 -14 48
-106 3 -93 3 -93 -25 -98 -19 -4 -31 -1 -38 9 -23 35 -42 51 -72 62 -65 22
-123 -24 -123 -97 0 -44 75 -93 95 -61 7 11 45 14 45 4 0 -3 -16 -25 -35 -49
-29 -34 -67 -66 -124 -101 -1 -2 0 -7 3 -12 20 -32 181 98 192 156 7 33 21 41
68 39 27 -2 30 -8 58 -92 59 -180 64 -275 22 -403 -23 -72 -120 -243 -153
-272 -3 -3 -40 -43 -81 -90 -41 -47 -136 -147 -210 -223 -74 -76 -136 -142
-138 -148 -7 -18 16 -9 45 19 17 15 63 56 104 92 103 90 249 237 284 285 17
22 32 42 35 45 3 3 16 22 30 42 14 21 28 38 31 38 4 0 12 14 19 30 7 17 15 30
19 30 3 0 12 15 19 33 8 17 28 61 45 96 31 63 32 69 30 180 -1 63 -6 124 -11
136 -13 28 -49 143 -57 183 -7 32 -7 32 48 32 52 0 55 -1 60 -29 6 -30 63 -91
85 -91 6 0 12 -4 12 -10 0 -5 9 -10 20 -10 11 0 20 -4 20 -8 0 -6 28 -16 112
-38 29 -8 30 16 1 27 -15 5 -41 17 -57 25 -16 8 -33 14 -38 14 -10 0 -16 5
-75 56 -38 32 -43 41 -43 78 0 54 23 88 57 84 33 -4 52 -32 38 -54 -12 -19
-30 -20 -30 -2 0 31 -54 16 -55 -15 0 -9 55 -67 65 -67 4 0 20 9 36 21 25 17
29 27 29 66 0 34 -5 50 -22 64 -40 36 -107 19 -139 -36 -20 -34 -23 -35 -80
-35 -58 0 -58 0 -69 40 -6 23 -9 49 -6 58 3 10 2 32 -3 50 -10 32 -10 32 30
32 64 0 198 57 241 102 37 39 47 58 29 58 -5 0 -14 -7 -22 -16z m-437 -324
c10 -13 14 -28 10 -42 -6 -21 -7 -21 -12 7 -4 24 -11 31 -33 33 -16 2 -35 -2
-43 -9 -17 -14 -18 -5 -3 23 13 24 55 18 81 -12z"/>
<path d="M1015 1214 c-13 -10 -15 -14 -4 -14 20 0 43 16 32 23 -4 3 -17 -1
-28 -9z"/>
</g>
</svg>
