<svg version="1.0" xmlns="http://www.w3.org/2000/svg"
 width="71.000000pt" height="100.000000pt" viewBox="0 0 71.000000 100.000000"
 preserveAspectRatio="xMidYMid meet">
<metadata>
Created by potrace 1.15, written by Peter Selinger 2001-2017
</metadata>
<g transform="translate(0.000000,100.000000) scale(0.100000,-0.100000)"
fill="#000000" stroke="none">
<path d="M330 811 c-31 -9 -33 -35 -2 -39 19 -3 22 -10 22 -44 0 -35 -2 -39
-15 -28 -8 7 -15 21 -15 32 0 11 -5 18 -12 15 -8 -2 -12 -16 -9 -33 4 -39 8
-44 37 -44 19 0 24 -5 24 -25 0 -19 -7 -26 -32 -33 -46 -12 -48 -32 -4 -32 29
0 36 -4 36 -19 0 -13 -9 -20 -30 -24 -36 -8 -40 -27 -6 -27 14 0 27 -4 30 -9
10 -15 -5 -40 -25 -43 -25 -4 -26 -22 -2 -26 35 -7 36 -21 4 -57 -31 -36 -31
-36 -31 -150 0 -70 4 -115 10 -115 6 0 10 39 10 98 0 72 4 103 15 118 14 17
15 8 14 -99 -1 -65 1 -121 4 -124 19 -19 27 20 27 134 0 110 2 124 15 113 12
-10 15 -37 15 -121 0 -59 4 -110 9 -113 16 -10 21 23 21 128 0 105 -13 146
-46 146 -8 0 -14 9 -14 20 0 17 7 20 43 20 23 0 52 3 65 6 18 5 22 2 22 -18 0
-14 -11 -35 -25 -48 -23 -22 -25 -30 -25 -124 0 -108 7 -149 22 -140 5 3 6 46
2 103 -5 79 -4 103 9 127 15 27 16 20 17 -139 0 -130 3 -168 13 -164 9 3 11
43 9 168 -4 164 -4 164 17 144 17 -17 21 -38 27 -137 5 -84 11 -118 19 -118
21 0 23 21 18 136 -6 109 -6 109 -44 146 -49 47 -50 70 -4 87 19 7 35 16 35
21 0 4 11 18 25 31 28 27 31 39 11 39 -7 0 -16 14 -20 31 -5 24 -14 34 -46 46
-45 18 -52 33 -16 33 14 0 32 7 40 16 27 27 15 117 -13 100 -6 -4 -11 -17 -11
-29 0 -33 -11 -67 -21 -67 -5 0 -9 19 -9 43 0 79 -23 113 -57 85 -13 -10 -13
-14 2 -24 20 -15 34 -104 16 -104 -6 0 -18 17 -28 38 -13 30 -17 33 -20 16 -6
-33 14 -74 37 -74 41 0 18 -17 -45 -32 -65 -15 -65 -15 -65 13 0 20 5 29 16
29 17 0 48 65 38 81 -8 14 -34 -9 -34 -32 0 -10 -5 -21 -12 -25 -8 -5 -9 7 -5
46 4 33 2 59 -4 67 -12 14 -13 14 -49 4z m177 -258 c-3 -3 -33 -7 -66 -10 -56
-5 -61 -4 -61 14 0 23 35 41 90 45 30 3 35 0 38 -20 2 -13 1 -26 -1 -29z m61
14 c2 -12 -3 -17 -17 -17 -15 0 -21 6 -21 21 0 25 33 22 38 -4z m-58 -71 c0
-21 -6 -24 -52 -29 -52 -7 -78 3 -78 28 0 16 21 22 83 24 43 1 47 -1 47 -23z
m58 12 c-6 -18 -28 -21 -28 -4 0 9 7 16 16 16 9 0 14 -5 12 -12z"/>
<path d="M120 700 c-50 -51 -50 -51 -50 -203 0 -84 4 -158 9 -166 6 -8 16 -11
31 -6 36 11 42 -14 10 -41 -64 -55 -64 -135 2 -167 56 -28 96 -13 128 47 25
47 25 47 -7 106 -18 32 -33 69 -33 81 0 21 1 21 18 6 44 -40 52 -17 52 164 0
129 -1 137 -25 170 -29 39 -53 59 -72 59 -8 0 -36 -23 -63 -50z m103 -16 c38
-35 35 -78 -5 -82 -28 -3 -28 -3 -28 -149 0 -123 3 -149 17 -165 9 -10 18 -41
21 -72 4 -47 2 -55 -19 -70 -34 -24 -64 -20 -84 10 -15 23 -16 33 -5 68 6 23
20 48 30 56 17 13 19 32 21 170 2 155 2 155 -27 160 -36 7 -34 32 4 73 32 33
40 34 75 1z m-73 -219 c0 -63 -4 -115 -9 -115 -37 0 -41 11 -41 121 0 109 0
109 25 109 25 0 25 0 25 -115z m100 26 c0 -78 -6 -101 -26 -101 -11 0 -14 19
-14 85 0 78 2 85 20 85 18 0 20 -7 20 -69z"/>
<path d="M135 201 c-3 -5 -2 -12 2 -14 13 -7 73 4 73 14 0 12 -67 12 -75 0z"/>
</g>
</svg>
