<svg version="1.0" xmlns="http://www.w3.org/2000/svg"
 width="63.000000pt" height="82.000000pt" viewBox="0 0 63.000000 82.000000"
 preserveAspectRatio="xMidYMid meet">
<metadata>
Created by potrace 1.15, written by Peter Selinger 2001-2017
</metadata>
<g transform="translate(0.000000,82.000000) scale(0.100000,-0.100000)"
fill="#000000" stroke="none">
<path d="M290 530 c0 -82 0 -82 -27 -76 -16 4 -49 29 -74 57 -47 51 -59 51
-59 0 0 -25 58 -77 108 -96 37 -15 42 -21 42 -50 0 -30 -4 -35 -74 -69 -41
-20 -78 -36 -83 -36 -19 0 -93 -34 -93 -42 0 -17 166 18 194 41 6 5 22 11 36
13 27 3 36 -16 26 -58 -5 -18 -13 -24 -35 -24 -16 0 -31 6 -35 15 -3 8 -12 15
-20 15 -41 0 -51 -122 -13 -165 18 -21 34 -27 89 -32 80 -7 154 10 170 40 6
12 8 51 6 93 -5 74 -5 74 21 66 62 -17 152 7 100 26 -83 31 -183 61 -187 57
-3 -3 8 -19 24 -36 19 -21 25 -33 17 -36 -7 -3 -13 -16 -13 -29 0 -25 -20 -31
-68 -18 -21 6 -23 11 -20 63 3 47 7 57 27 67 13 7 26 16 30 21 20 27 74 53
110 53 41 0 65 16 37 25 -9 3 -23 7 -32 10 -13 4 -13 9 6 35 29 40 39 100 17
100 -10 0 -20 -14 -26 -38 -6 -21 -24 -50 -40 -66 -24 -23 -36 -27 -72 -24
-44 3 -44 3 -49 88 -4 70 -8 85 -22 88 -16 3 -18 -6 -18 -78z m60 -150 c0 -5
-5 -10 -11 -10 -5 0 -7 5 -4 10 3 6 8 10 11 10 2 0 4 -4 4 -10z m48 -262 c-17
-25 -45 -35 -98 -37 -42 -1 -82 23 -74 44 5 12 26 15 96 15 90 0 90 0 76 -22z"/>
<path d="M387 583 c-9 -8 -9 -108 0 -116 14 -15 33 18 33 58 0 40 -19 73 -33
58z"/>
</g>
</svg>
