<svg version="1.0" xmlns="http://www.w3.org/2000/svg"
 width="69.000000pt" height="87.000000pt" viewBox="0 0 69.000000 87.000000"
 preserveAspectRatio="xMidYMid meet">
<metadata>
Created by potrace 1.15, written by Peter Selinger 2001-2017
</metadata>
<g transform="translate(0.000000,87.000000) scale(0.100000,-0.100000)"
fill="#000000" stroke="none">
<path d="M457 813 c-4 -3 -7 -21 -7 -40 0 -27 -4 -33 -21 -33 -12 0 -23 8 -26
20 -3 11 -14 20 -24 20 -14 0 -19 -7 -19 -27 0 -38 10 -51 44 -55 19 -2 32
-11 37 -25 8 -22 6 -23 -40 -23 -34 0 -51 5 -55 15 -8 22 -44 18 -51 -5 -5
-15 -17 -20 -63 -22 -49 -3 -57 -6 -57 -23 0 -17 8 -20 58 -23 39 -2 57 -7 57
-16 0 -9 -21 -15 -67 -19 -74 -6 -93 4 -93 49 0 12 -7 27 -15 34 -21 17 -40
-27 -31 -74 11 -55 36 -67 128 -60 66 6 78 5 78 -8 0 -19 -30 -28 -98 -28 -79
0 -92 -10 -92 -73 0 -29 5 -58 12 -65 8 -8 37 -10 96 -5 70 5 84 4 80 -8 -3
-8 -22 -16 -44 -19 -47 -7 -64 -16 -64 -36 0 -11 13 -14 58 -12 57 3 57 3 60
-107 1 -60 7 -114 11 -118 5 -5 18 -4 30 3 20 10 21 16 15 119 -7 108 -7 108
32 114 72 12 144 8 144 -7 0 -10 -16 -17 -47 -21 -27 -4 -56 -9 -65 -12 -21
-5 -33 -43 -24 -78 6 -23 11 -25 66 -25 59 0 59 0 62 -32 4 -45 34 -50 43 -9
3 17 4 39 0 50 -7 22 -53 41 -99 41 -24 0 -27 3 -16 10 8 5 32 10 53 10 44 0
77 28 77 64 0 42 -34 56 -137 56 -51 0 -93 4 -93 9 0 13 22 18 100 26 98 9
117 20 125 66 10 61 -2 69 -109 69 -86 0 -129 10 -113 26 4 4 46 10 94 14 71
6 89 11 104 28 25 32 34 91 15 110 -23 23 -46 8 -46 -32 0 -25 -6 -38 -19 -46
-28 -15 -29 -14 -33 27 -2 28 3 43 24 65 14 16 37 28 50 28 33 0 48 18 48 57
0 25 -4 33 -18 33 -11 0 -24 -12 -31 -26 -14 -32 -35 -26 -39 12 -5 35 -28 55
-45 37z m-37 -227 c0 -17 -49 -31 -63 -17 -15 15 2 31 34 31 18 0 29 -5 29
-14z m97 -163 c8 -23 -33 -30 -194 -37 -142 -7 -163 -6 -163 8 0 24 16 29 129
36 145 10 224 8 228 -7z"/>
<path d="M155 788 c-2 -7 -5 -24 -7 -37 -4 -29 -28 -41 -28 -14 0 22 -18 43
-37 43 -8 0 -13 -13 -13 -34 0 -48 9 -66 32 -66 11 0 35 -7 54 -16 29 -14 37
-14 51 -3 9 8 30 18 47 24 27 9 31 15 34 53 3 36 0 42 -17 42 -14 0 -21 -8
-23 -27 -2 -20 -9 -29 -25 -31 -19 -3 -22 2 -25 35 -2 27 -8 39 -21 41 -9 2
-19 -2 -22 -10z"/>
<path d="M96 285 c-11 -30 -6 -83 10 -99 9 -10 33 -16 61 -16 53 0 55 -20 2
-33 -19 -4 -40 -16 -46 -25 -16 -19 -17 -88 -3 -97 18 -11 40 15 40 46 0 24 5
29 36 35 45 8 68 42 59 84 -7 31 -18 37 -80 42 -26 3 -31 8 -35 38 -5 37 -33
53 -44 25z"/>
</g>
</svg>
