<svg version="1.0" xmlns="http://www.w3.org/2000/svg"
 width="74.000000pt" height="78.000000pt" viewBox="0 0 74.000000 78.000000"
 preserveAspectRatio="xMidYMid meet">
<metadata>
Created by potrace 1.15, written by Peter Selinger 2001-2017
</metadata>
<g transform="translate(0.000000,78.000000) scale(0.100000,-0.100000)"
fill="#000000" stroke="none">
<path d="M509 733 c-1 -4 -2 -53 -3 -108 -1 -91 -3 -100 -20 -100 -15 0 -24
17 -42 79 -23 78 -35 96 -63 96 -13 0 -13 -13 4 -82 6 -23 0 -35 -44 -81 -28
-30 -51 -59 -51 -65 0 -23 25 -12 67 30 30 29 46 39 53 32 8 -8 -9 -35 -55
-90 -36 -43 -65 -82 -65 -86 0 -22 32 -2 80 48 29 30 54 53 57 50 13 -13 -13
-63 -72 -136 -36 -44 -65 -83 -65 -85 0 -3 9 -5 19 -5 11 0 41 24 68 55 26 30
51 55 55 55 20 0 -71 -198 -128 -277 -15 -21 -15 -23 0 -29 23 -9 40 8 89 94
60 106 77 164 77 266 0 84 1 86 24 86 21 0 24 -5 30 -71 3 -39 2 -77 -3 -83
-10 -12 -23 -79 -42 -205 -10 -69 -9 -85 2 -91 27 -17 39 10 39 89 1 82 22
153 34 116 26 -78 82 -165 105 -165 33 0 34 18 2 57 -17 21 -31 44 -31 52 0 7
-9 29 -21 47 -11 18 -24 48 -29 66 -8 27 -6 36 12 55 12 13 27 23 34 23 7 0
26 11 41 24 22 19 25 27 16 37 -10 10 -23 6 -63 -19 -28 -18 -53 -32 -56 -32
-2 0 -4 22 -4 50 0 49 0 49 68 52 61 3 67 5 70 26 4 24 5 24 -85 22 -56 -1
-63 1 -63 18 0 15 9 21 34 26 55 10 86 41 86 85 0 42 -21 78 -38 67 -7 -4 -12
-24 -12 -45 0 -43 -14 -61 -48 -61 -23 0 -24 3 -20 58 3 53 1 57 -19 60 -13 2
-24 0 -24 -5z"/>
<path d="M112 683 c-28 -5 -40 -32 -21 -44 8 -5 31 -9 52 -9 20 0 37 -3 37 -7
0 -3 -12 -21 -26 -40 -20 -26 -29 -56 -40 -130 -8 -53 -13 -102 -10 -109 7
-19 -24 -154 -45 -196 -22 -43 -24 -64 -7 -74 37 -23 94 150 104 316 7 119 26
190 51 190 12 0 14 -38 11 -262 -3 -229 -1 -263 12 -263 12 0 15 18 17 95 2
52 7 178 13 279 11 213 10 219 -66 245 -26 9 -50 15 -53 15 -3 -1 -16 -4 -29
-6z"/>
</g>
</svg>
