<svg version="1.0" xmlns="http://www.w3.org/2000/svg"
 width="68.000000pt" height="109.000000pt" viewBox="0 0 68.000000 109.000000"
 preserveAspectRatio="xMidYMid meet">
<metadata>
Created by potrace 1.15, written by Peter Selinger 2001-2017
</metadata>
<g transform="translate(0.000000,109.000000) scale(0.100000,-0.100000)"
fill="#000000" stroke="none">
<path d="M370 1009 c0 -24 15 -55 41 -83 19 -19 26 -66 11 -66 -4 0 -18 -18
-32 -40 -14 -22 -28 -40 -32 -40 -5 0 -8 -9 -8 -20 0 -27 28 -26 52 3 26 29
56 89 52 102 -2 6 5 16 15 22 27 17 121 -5 121 -28 0 -16 -62 -79 -78 -79 -5
0 -17 -18 -27 -40 -16 -36 -21 -39 -64 -42 -42 -3 -46 -5 -46 -28 0 -22 5 -25
43 -28 42 -3 42 -3 42 -52 0 -39 -4 -52 -20 -60 -45 -24 -64 -103 -32 -141 20
-24 86 -56 133 -64 59 -10 64 -22 67 -160 4 -125 14 -158 43 -139 16 9 6 258
-11 297 -11 21 -27 31 -78 47 -35 11 -70 20 -77 20 -6 0 -22 9 -34 19 -21 18
-22 22 -8 41 21 30 67 52 95 45 30 -7 104 12 120 33 18 24 15 83 -8 120 -21
34 -54 52 -95 52 -13 0 -26 4 -30 9 -6 10 40 61 54 61 4 0 18 8 29 19 17 14
22 30 22 64 0 43 -2 46 -42 65 -24 11 -69 25 -100 32 -33 6 -58 17 -58 24 0
15 -37 56 -50 56 -6 0 -10 -9 -10 -21z m156 -348 c16 -5 41 -12 57 -15 24 -6
27 -11 27 -44 0 -34 -4 -39 -33 -50 -38 -14 -76 -16 -78 -4 -4 23 -8 122 -5
122 2 0 16 -4 32 -9z"/>
<path d="M200 993 c-1 -5 -2 -41 -4 -81 -4 -80 -6 -85 -30 -76 -12 5 -16 20
-16 68 0 57 -11 86 -32 86 -4 0 -8 -33 -8 -74 0 -80 -4 -86 -60 -86 -60 0 -41
-46 21 -52 34 -3 34 -3 37 -70 3 -67 3 -68 -23 -68 -49 0 -75 -45 -75 -128 0
-51 4 -63 26 -86 15 -14 38 -26 51 -26 25 0 25 0 20 -152 -4 -84 -9 -170 -13
-190 -6 -34 -4 -38 13 -38 19 0 21 9 29 103 11 137 10 133 12 210 2 58 4 67
21 67 16 0 20 -10 26 -78 4 -42 6 -82 4 -87 -5 -23 14 -155 24 -155 5 0 4 -7
-3 -15 -10 -12 -10 -18 0 -30 26 -32 32 -14 29 87 -4 103 -4 103 41 125 74 36
100 105 65 172 -16 33 -33 41 -81 41 -38 0 -40 6 -28 93 6 40 10 47 45 63 39
17 39 17 39 95 0 45 -5 81 -11 85 -6 3 -9 15 -6 25 4 16 0 19 -34 17 -21 -1
-41 1 -44 4 -2 2 0 20 5 39 13 41 -5 119 -26 119 -8 0 -14 -3 -14 -7z m70
-219 c6 -14 10 -42 10 -63 0 -30 -4 -40 -20 -44 -14 -4 -20 0 -20 11 -1 10 -2
41 -3 70 -3 57 16 72 33 26z m-73 -47 c3 -58 -10 -92 -26 -68 -5 8 -9 38 -10
67 0 45 3 54 17 54 14 0 17 -10 19 -53z m-7 -202 c0 -41 -3 -75 -7 -75 -21 1
-28 21 -29 83 -1 58 2 67 18 67 16 0 18 -9 18 -75z m-79 38 c3 -66 2 -104 -4
-109 -3 -4 -17 -4 -30 0 -21 5 -26 13 -29 48 -3 35 0 47 19 65 29 30 43 29 44
-4z m190 -163 c28 -15 24 -59 -8 -92 -33 -34 -53 -36 -53 -4 0 13 -3 38 -6 55
-5 26 -3 32 17 40 31 13 27 13 50 1z"/>
</g>
</svg>
