<svg version="1.0" xmlns="http://www.w3.org/2000/svg"
 width="65.000000pt" height="84.000000pt" viewBox="0 0 65.000000 84.000000"
 preserveAspectRatio="xMidYMid meet">
<metadata>
Created by potrace 1.15, written by Peter Selinger 2001-2017
</metadata>
<g transform="translate(0.000000,84.000000) scale(0.100000,-0.100000)"
fill="#000000" stroke="none">
<path d="M193 631 c-73 -6 -101 -19 -88 -41 5 -9 30 -10 87 -5 93 8 118 -5
118 -61 0 -33 0 -33 -117 -36 -97 -2 -118 -6 -118 -18 0 -12 22 -15 124 -18
122 -3 123 -3 117 -25 -3 -12 -6 -27 -6 -34 0 -8 -26 -10 -94 -6 -104 6 -146
0 -146 -22 0 -12 15 -15 73 -15 74 0 74 0 84 -35 14 -43 6 -49 -55 -40 -51 7
-112 -9 -96 -25 5 -5 56 -11 114 -12 105 -3 105 -3 108 -34 4 -38 -10 -44
-118 -44 -77 0 -108 -9 -96 -29 5 -7 47 -11 117 -11 109 0 109 0 109 -38 0
-47 15 -65 42 -51 16 9 18 17 13 51 -7 41 -7 41 87 35 99 -5 125 0 115 27 -5
13 -24 16 -112 16 -105 0 -105 0 -105 36 0 36 0 36 105 33 58 -1 108 0 111 4
4 4 1 13 -6 22 -9 10 -31 15 -76 15 -69 0 -72 3 -57 59 6 23 8 23 80 17 60 -5
73 -3 73 9 0 25 -37 35 -135 35 -96 0 -96 0 -93 28 3 27 3 27 91 23 110 -4
117 1 117 83 0 74 -16 104 -47 88 -18 -10 -20 -19 -18 -67 3 -55 3 -55 -71
-55 -74 0 -74 0 -74 65 0 70 -13 87 -62 83 -13 -1 -55 -4 -95 -7z m185 -318
c-3 -36 -5 -38 -41 -41 -43 -4 -66 16 -67 56 0 20 5 22 56 22 55 0 55 0 52
-37z"/>
</g>
</svg>
