<svg version="1.0" xmlns="http://www.w3.org/2000/svg"
 width="61.000000pt" height="147.000000pt" viewBox="0 0 61.000000 147.000000"
 preserveAspectRatio="xMidYMid meet">
<metadata>
Created by potrace 1.15, written by Peter Selinger 2001-2017
</metadata>
<g transform="translate(0.000000,147.000000) scale(0.100000,-0.100000)"
fill="#000000" stroke="none">
<path d="M280 1240 c-8 -5 -48 -42 -87 -82 -73 -73 -90 -108 -54 -108 18 0 51
33 120 118 18 23 37 42 41 42 6 0 30 -179 30 -224 0 -19 -1 -19 -20 2 -12 12
-25 22 -30 22 -18 0 -10 -31 26 -101 20 -38 33 -76 30 -84 -3 -9 -24 -42 -46
-75 -22 -32 -40 -64 -40 -69 0 -19 30 -12 56 14 14 14 29 25 34 25 14 0 12
-27 -2 -34 -10 -5 -10 -7 0 -12 14 -6 17 -85 4 -100 -19 -20 -44 -126 -36
-144 14 -29 39 -4 55 54 8 27 20 51 26 53 23 8 43 -53 43 -128 0 -142 31 -308
59 -317 9 -3 10 44 5 185 -6 183 -7 190 -36 248 -17 33 -39 72 -49 87 -20 27
-25 92 -10 116 6 9 14 3 32 -22 23 -34 49 -48 49 -26 0 17 -34 90 -42 90 -5 0
-8 5 -8 11 0 6 -9 24 -20 39 -12 17 -24 59 -31 104 -8 64 -8 79 5 91 8 8 18
24 21 35 3 11 11 20 16 20 5 0 9 5 9 12 0 6 11 26 25 44 28 37 32 54 11 54
-15 0 -69 -49 -84 -77 -10 -16 -12 -15 -21 10 -6 16 -11 36 -11 45 0 9 -5 34
-11 55 -10 38 -28 46 -59 27z"/>
</g>
</svg>
