<svg version="1.0" xmlns="http://www.w3.org/2000/svg"
 width="73.000000pt" height="93.000000pt" viewBox="0 0 73.000000 93.000000"
 preserveAspectRatio="xMidYMid meet">
<metadata>
Created by potrace 1.15, written by Peter Selinger 2001-2017
</metadata>
<g transform="translate(0.000000,93.000000) scale(0.100000,-0.100000)"
fill="#000000" stroke="none">
<path d="M385 850 c-45 -7 -116 -48 -160 -94 -16 -17 -33 -31 -37 -31 -3 0
-10 -3 -14 -7 -4 -5 -15 -8 -25 -8 -21 0 -99 -41 -99 -52 0 -9 29 -4 100 19
59 18 92 34 110 53 8 9 31 27 50 40 19 13 37 27 40 30 3 3 20 12 38 19 25 11
39 11 57 3 28 -13 65 -67 65 -95 0 -17 -6 -18 -62 -13 -63 6 -63 6 -14 -19 28
-14 55 -25 61 -25 27 0 45 -80 25 -110 -8 -13 -15 -12 -54 8 -24 13 -51 22
-60 20 -14 -2 -13 -7 6 -28 13 -14 35 -31 51 -39 15 -8 27 -22 27 -31 0 -17
-40 -58 -100 -102 -19 -14 -46 -35 -59 -47 -22 -19 -22 -21 -5 -21 11 0 36 15
55 33 20 17 46 38 60 46 79 47 72 45 113 26 68 -33 78 -61 72 -205 -3 -69 -7
-140 -9 -157 -2 -18 0 -33 3 -33 15 0 30 55 30 108 0 31 5 75 11 96 17 60 -4
142 -52 205 -22 28 -39 58 -39 67 0 8 27 42 61 76 71 70 71 89 1 29 -69 -57
-76 -55 -68 21 4 43 11 65 25 74 19 14 35 54 22 54 -5 0 -16 -9 -26 -20 -24
-26 -29 -25 -46 8 -25 49 -70 100 -92 104 -12 2 -40 1 -62 -2z"/>
</g>
</svg>
