<svg version="1.0" xmlns="http://www.w3.org/2000/svg"
 width="63.000000pt" height="153.000000pt" viewBox="0 0 63.000000 153.000000"
 preserveAspectRatio="xMidYMid meet">
<metadata>
Created by potrace 1.15, written by Peter Selinger 2001-2017
</metadata>
<g transform="translate(0.000000,153.000000) scale(0.100000,-0.100000)"
fill="#000000" stroke="none">
<path d="M440 1451 c0 -23 21 -52 32 -45 7 5 9 2 5 -9 -3 -9 -2 -19 3 -22 15
-9 12 -82 -5 -114 -8 -16 -22 -32 -32 -35 -15 -6 -15 -8 -3 -16 11 -7 11 -10
2 -10 -7 0 -37 25 -67 55 -59 59 -80 65 -145 42 -57 -20 -96 -48 -116 -81 -10
-17 -17 -32 -16 -33 1 -2 0 -8 -3 -15 -13 -42 -25 -127 -24 -176 0 -47 24
-189 29 -172 0 3 3 41 6 85 3 44 10 82 15 85 5 3 10 46 12 95 4 108 23 156 72
179 48 23 89 20 124 -9 36 -31 47 -65 56 -167 5 -64 3 -78 -8 -78 -8 0 -20 7
-28 16 -7 8 -25 22 -41 30 -25 13 -29 13 -34 -1 -6 -14 51 -92 91 -125 23 -19
19 -75 -7 -102 -13 -13 -29 -35 -37 -50 -8 -16 -18 -28 -23 -28 -4 0 -8 -5 -8
-12 0 -6 -11 -26 -25 -44 -14 -18 -25 -41 -25 -51 1 -10 11 1 25 28 23 44 81
109 97 109 14 0 25 -41 26 -93 1 -36 -8 -65 -38 -127 -22 -43 -40 -82 -40 -86
0 -4 -10 -18 -22 -31 -12 -13 -18 -26 -15 -29 4 -4 16 5 28 20 44 56 69 70 84
45 4 -6 6 -101 6 -212 -2 -222 9 -264 15 -57 2 73 6 136 10 141 3 5 4 87 3
182 -2 95 -3 196 -2 225 1 28 -2 50 -6 47 -5 -2 -6 7 -3 20 6 34 32 32 67 -5
16 -17 35 -28 42 -26 7 3 10 -1 7 -8 -3 -7 2 -16 10 -19 22 -9 21 24 -1 45
-74 70 -123 160 -123 227 0 33 18 100 31 111 3 3 11 19 17 35 7 17 24 43 37
59 33 38 41 88 22 129 -18 37 -77 97 -77 78z m-30 -902 c0 -6 -4 -7 -10 -4 -5
3 -10 11 -10 16 0 6 5 7 10 4 6 -3 10 -11 10 -16z"/>
</g>
</svg>
