<svg version="1.0" xmlns="http://www.w3.org/2000/svg"
 width="45.000000pt" height="115.000000pt" viewBox="0 0 45.000000 115.000000"
 preserveAspectRatio="xMidYMid meet">
<metadata>
Created by potrace 1.15, written by Peter Selinger 2001-2017
</metadata>
<g transform="translate(0.000000,115.000000) scale(0.100000,-0.100000)"
fill="#000000" stroke="none">
<path d="M234 955 c3 -19 9 -51 12 -70 4 -21 2 -35 -4 -35 -5 0 -12 -17 -15
-37 -3 -21 -8 -49 -11 -63 -3 -14 -8 -47 -11 -73 -5 -39 -15 -57 -55 -100 -27
-29 -50 -55 -50 -59 0 -16 38 -7 55 12 10 11 22 20 27 20 12 0 10 -56 -7 -144
-8 -44 -13 -81 -11 -84 8 -7 66 90 66 110 0 21 9 22 31 5 13 -10 14 -24 9 -79
-12 -116 20 -298 52 -298 10 0 4 183 -7 200 -3 5 -3 15 0 20 4 6 11 40 16 76
11 76 -2 112 -51 141 -25 15 -30 23 -30 57 0 40 0 40 53 -12 49 -49 77 -64 77
-43 0 5 -7 16 -15 25 -8 8 -15 19 -15 23 0 5 -8 18 -18 29 -41 45 -62 84 -62
117 0 20 6 37 13 40 10 4 10 7 0 18 -23 24 -14 59 26 102 22 23 42 39 46 35 4
-3 14 -39 24 -80 12 -48 23 -73 32 -73 20 0 17 83 -5 160 -10 33 -20 62 -22
64 -2 2 -22 -9 -44 -24 -33 -23 -42 -25 -55 -15 -8 7 -15 20 -15 29 0 18 -18
41 -33 41 -5 0 -6 -16 -3 -35z"/>
</g>
</svg>
