<svg version="1.0" xmlns="http://www.w3.org/2000/svg"
 width="35.000000pt" height="99.000000pt" viewBox="0 0 35.000000 99.000000"
 preserveAspectRatio="xMidYMid meet">
<metadata>
Created by potrace 1.15, written by Peter Selinger 2001-2017
</metadata>
<g transform="translate(0.000000,99.000000) scale(0.100000,-0.100000)"
fill="#000000" stroke="none">
<path d="M214 740 c-4 -16 -10 -30 -15 -30 -4 0 -10 -8 -13 -18 -4 -10 -26
-40 -51 -66 -25 -25 -45 -49 -45 -51 0 -3 10 -5 23 -5 15 0 29 -12 44 -40 13
-21 23 -44 23 -49 0 -6 -15 -25 -33 -44 -42 -41 -52 -75 -30 -99 11 -12 17
-45 21 -110 5 -99 15 -126 38 -107 18 15 19 141 2 204 -9 32 -9 51 -2 62 21
33 31 22 43 -44 14 -78 23 -99 41 -88 9 6 11 25 5 74 -15 138 -15 188 3 207
21 22 48 101 39 110 -9 9 -37 -15 -37 -32 0 -7 -5 -16 -11 -20 -9 -5 -10 9 -5
52 8 70 -1 124 -20 124 -8 0 -17 -13 -20 -30z m-4 -143 c0 -41 -8 -51 -26 -32
-17 17 -18 37 -2 53 20 20 28 14 28 -21z"/>
</g>
</svg>
