<svg version="1.0" xmlns="http://www.w3.org/2000/svg"
 width="95.000000pt" height="129.000000pt" viewBox="0 0 95.000000 129.000000"
 preserveAspectRatio="xMidYMid meet">
<metadata>
Created by potrace 1.15, written by Peter Selinger 2001-2017
</metadata>
<g transform="translate(0.000000,129.000000) scale(0.100000,-0.100000)"
fill="#000000" stroke="none">
<path d="M282 1173 c2 -5 14 -30 27 -58 13 -27 27 -58 32 -68 8 -14 4 -19 -18
-28 -16 -6 -45 -11 -67 -12 -36 -2 -39 1 -65 47 -29 54 -73 106 -90 106 -17 0
-13 -35 8 -83 37 -79 71 -166 71 -179 0 -7 7 -25 14 -40 49 -93 33 -250 -35
-353 -14 -22 -29 -52 -33 -67 -6 -25 -4 -28 19 -28 14 0 25 3 25 8 0 4 9 18
18 30 18 24 19 24 95 11 70 -12 77 -15 71 -33 -3 -12 -12 -26 -20 -32 -20 -16
-17 -24 9 -24 38 0 82 58 108 141 12 41 29 85 38 98 17 27 24 184 9 240 -15
61 -86 211 -100 211 -4 0 -18 20 -29 44 -12 24 -34 51 -49 60 -30 17 -43 20
-38 9z m106 -230 c22 -33 43 -127 45 -204 2 -49 0 -54 -18 -51 -11 2 -36 17
-56 33 -20 16 -41 29 -47 29 -12 0 -22 24 -22 54 0 13 -3 26 -7 29 -3 4 -8 21
-10 39 -2 17 -8 37 -15 45 -13 16 -12 18 32 37 52 23 76 20 98 -11z m-30 -300
c43 -23 52 -32 52 -55 0 -15 -5 -39 -12 -54 -12 -25 -15 -26 -70 -22 -62 5
-86 18 -72 40 13 20 34 81 34 101 0 23 6 22 68 -10z"/>
<path d="M767 997 c-14 -17 -36 -43 -48 -57 -13 -13 -29 -34 -35 -45 -13 -25
-7 -83 12 -112 17 -27 18 -90 2 -159 -11 -48 -14 -51 -54 -63 -58 -17 -70 -33
-44 -56 16 -14 23 -16 32 -7 15 15 68 15 105 1 37 -14 93 -68 93 -91 0 -20
-44 -26 -55 -8 -9 15 -88 13 -83 -2 4 -11 9 -15 58 -37 14 -7 33 -25 42 -42
23 -40 10 -61 -59 -91 -54 -23 -67 -37 -35 -39 22 -2 21 -2 63 6 35 7 36 6 63
-47 15 -29 37 -61 48 -71 36 -31 43 -8 28 103 -11 82 -11 105 0 124 8 17 10
37 4 63 -4 21 -8 48 -9 60 -1 28 -51 89 -90 111 -60 34 -63 43 -44 131 10 50
10 50 55 33 40 -15 46 -15 59 -1 23 22 11 42 -48 80 -59 38 -76 56 -77 83 0
19 40 99 53 104 10 5 9 50 -2 56 -5 3 -20 -9 -34 -27z"/>
</g>
</svg>
