<svg version="1.0" xmlns="http://www.w3.org/2000/svg"
 width="57.000000pt" height="89.000000pt" viewBox="0 0 57.000000 89.000000"
 preserveAspectRatio="xMidYMid meet">
<metadata>
Created by potrace 1.15, written by Peter Selinger 2001-2017
</metadata>
<g transform="translate(0.000000,89.000000) scale(0.100000,-0.100000)"
fill="#000000" stroke="none">
<path d="M277 743 c-11 -10 -8 -171 5 -261 13 -95 6 -109 -69 -143 -24 -11
-43 -23 -43 -28 0 -4 -12 -13 -27 -20 -46 -20 -93 -55 -93 -68 0 -17 60 -17
97 -1 15 7 48 25 72 40 25 16 50 28 57 28 11 0 29 -108 33 -202 1 -23 24 -23
45 1 14 16 16 35 13 130 -5 136 -4 138 111 181 26 10 32 18 32 41 0 16 -3 29
-7 29 -10 0 -74 -21 -108 -36 -16 -7 -31 -11 -34 -9 -2 3 -5 29 -7 59 -3 60 0
64 94 149 64 58 50 77 -28 37 -52 -26 -77 -26 -85 3 -20 67 -39 90 -58 70z"/>
</g>
</svg>
