<svg version="1.0" xmlns="http://www.w3.org/2000/svg"
 width="65.000000pt" height="86.000000pt" viewBox="0 0 65.000000 86.000000"
 preserveAspectRatio="xMidYMid meet">
<metadata>
Created by potrace 1.15, written by Peter Selinger 2001-2017
</metadata>
<g transform="translate(0.000000,86.000000) scale(0.100000,-0.100000)"
fill="#000000" stroke="none">
<path d="M128 378 c2 -161 5 -294 7 -296 2 -3 11 -2 20 1 13 6 15 44 15 291 0
293 0 296 -38 296 -4 0 -6 -131 -4 -292z"/>
<path d="M216 568 c3 -51 8 -95 10 -97 2 -2 10 2 19 9 11 9 15 32 15 80 0 82
-6 100 -32 100 -18 0 -19 -5 -12 -92z"/>
<path d="M57 643 c-4 -3 -7 -44 -7 -90 0 -75 2 -84 18 -81 14 3 17 16 20 79 2
55 -1 79 -11 87 -8 7 -17 9 -20 5z"/>
<path d="M411 616 c-27 -28 -38 -33 -52 -26 -10 6 -22 10 -28 10 -16 0 -13
-30 3 -36 11 -4 8 -11 -10 -31 -44 -48 -20 -62 28 -16 28 27 28 27 58 -2 28
-27 29 -30 14 -46 -9 -10 -41 -35 -70 -55 -51 -35 -70 -64 -41 -64 7 0 43 20
80 45 37 25 73 45 81 45 7 0 21 -9 32 -21 17 -19 19 -40 22 -198 3 -197 5
-209 27 -191 12 10 15 45 15 194 0 182 0 182 -34 219 -34 37 -34 37 -7 52 47
24 56 41 37 70 -15 22 -77 68 -110 81 -6 2 -27 -11 -45 -30z m72 -42 c27 -26
27 -48 1 -58 -18 -7 -42 5 -67 32 -17 18 -17 21 -2 36 23 22 38 20 68 -10z"/>
<path d="M46 333 c-3 -3 -6 -51 -6 -105 0 -89 2 -99 18 -96 18 4 30 54 31 140
1 36 -3 50 -18 57 -10 6 -21 7 -25 4z"/>
<path d="M437 313 c-4 -3 -7 -17 -7 -30 0 -12 -6 -23 -12 -23 -7 0 -23 -3 -35
-6 -20 -6 -23 -3 -23 25 0 33 -23 44 -34 15 -8 -20 -8 -168 0 -188 9 -24 105
-22 127 2 22 24 24 183 4 201 -8 6 -17 8 -20 4z m-9 -135 c3 -43 1 -48 -22
-54 -36 -9 -46 2 -46 50 0 50 6 58 40 54 22 -3 25 -8 28 -50z"/>
<path d="M220 285 c-13 -33 -13 -162 -1 -170 5 -3 17 2 26 11 12 13 15 33 13
97 -3 85 -19 111 -38 62z"/>
</g>
</svg>
