<svg version="1.0" xmlns="http://www.w3.org/2000/svg"
 width="63.000000pt" height="113.000000pt" viewBox="0 0 63.000000 113.000000"
 preserveAspectRatio="xMidYMid meet">
<metadata>
Created by potrace 1.15, written by Peter Selinger 2001-2017
</metadata>
<g transform="translate(0.000000,113.000000) scale(0.100000,-0.100000)"
fill="#000000" stroke="none">
<path d="M190 881 c0 -16 -5 -42 -11 -58 -6 -15 -13 -113 -15 -218 -8 -361 -7
-339 -30 -349 -30 -13 -46 -42 -35 -63 5 -10 14 -30 21 -45 15 -32 42 -52 83
-62 28 -7 28 -6 -11 31 -21 21 -45 48 -51 61 -14 25 -7 57 9 47 5 -3 18 -2 27
3 10 5 27 6 38 1 19 -8 19 -8 -2 -15 -13 -3 -23 -10 -23 -14 0 -20 68 -26 105
-10 19 9 19 9 -2 16 -13 3 -23 8 -23 10 0 14 49 75 70 88 48 29 92 75 87 90
-6 14 57 66 81 66 15 0 35 37 27 50 -3 6 -12 10 -19 10 -8 0 -21 11 -30 25
-22 33 -49 34 -40 1 5 -22 2 -24 -33 -27 -76 -8 -96 12 -48 48 14 10 27 32 31
48 7 37 -13 61 -77 94 -60 30 -109 75 -109 100 0 11 4 31 10 45 11 30 4 56
-16 56 -9 0 -14 -11 -14 -29z m43 -153 c38 -37 67 -58 93 -70 23 -11 36 -58
16 -58 -5 0 -14 -15 -22 -34 -12 -31 -17 -34 -64 -39 -28 -3 -54 -3 -58 0 -6
3 -6 94 1 206 1 22 5 22 34 -5z m120 -279 c15 -22 27 -44 27 -49 0 -6 -25 -37
-55 -70 -30 -33 -55 -64 -55 -70 0 -14 -26 -12 -58 4 -27 14 -27 14 -24 119 3
106 3 106 50 109 71 5 85 0 115 -43z m96 5 c-27 -28 -47 -30 -65 -6 -23 30
-16 37 37 33 51 -3 51 -3 28 -27z"/>
</g>
</svg>
