<svg version="1.0" xmlns="http://www.w3.org/2000/svg"
 width="67.000000pt" height="101.000000pt" viewBox="0 0 67.000000 101.000000"
 preserveAspectRatio="xMidYMid meet">
<metadata>
Created by potrace 1.15, written by Peter Selinger 2001-2017
</metadata>
<g transform="translate(0.000000,101.000000) scale(0.100000,-0.100000)"
fill="#000000" stroke="none">
<path d="M509 923 c-1 -10 -2 -41 -3 -70 0 -30 -7 -60 -16 -70 -8 -10 -26 -34
-40 -53 -43 -61 -83 -100 -102 -100 -22 0 -22 -2 0 -42 19 -33 19 -33 -65 -33
-45 0 -83 3 -83 7 0 3 16 12 35 18 42 14 37 30 -10 30 -32 0 -145 -56 -145
-72 0 -4 9 -12 21 -18 11 -7 39 -29 61 -51 58 -56 75 -52 38 9 -20 32 -20 32
13 33 64 2 112 -3 118 -12 3 -5 13 -7 22 -3 25 9 21 -14 -8 -52 -27 -35 -33
-66 -12 -59 24 9 176 -195 178 -240 1 -16 3 -34 4 -40 2 -5 3 -16 4 -22 0 -7
7 -13 15 -13 19 0 25 76 18 258 -5 139 -3 154 14 173 17 19 17 22 3 33 -14 9
-17 42 -22 191 -5 177 -10 215 -28 215 -5 0 -10 -8 -10 -17z m1 -278 c0 -95 0
-95 -37 -95 -36 0 -83 31 -83 54 0 6 23 35 50 63 28 29 50 57 50 63 0 5 5 10
10 10 6 0 10 -38 10 -95z m0 -279 c0 -131 0 -131 -20 -106 -11 14 -20 30 -20
37 0 6 -3 13 -8 15 -4 2 -27 26 -51 55 -43 52 -43 52 -16 85 31 37 69 58 97
50 16 -4 18 -16 18 -136z"/>
</g>
</svg>
