<svg version="1.0" xmlns="http://www.w3.org/2000/svg"
 width="75.000000pt" height="117.000000pt" viewBox="0 0 75.000000 117.000000"
 preserveAspectRatio="xMidYMid meet">
<metadata>
Created by potrace 1.15, written by Peter Selinger 2001-2017
</metadata>
<g transform="translate(0.000000,117.000000) scale(0.100000,-0.100000)"
fill="#000000" stroke="none">
<path d="M425 913 c-27 -14 -51 -30 -53 -35 -2 -4 -10 -8 -18 -8 -8 0 -25 -10
-39 -22 -26 -22 -33 -48 -14 -48 15 0 78 30 111 52 14 10 29 18 32 18 3 0 6
-19 6 -42 0 -41 -15 -96 -45 -163 -60 -139 -63 -143 -112 -131 -26 7 -26 7 18
52 24 24 49 44 56 44 7 0 13 5 13 10 0 21 -42 9 -141 -40 -75 -37 -113 -50
-145 -50 -24 0 -44 -4 -44 -9 0 -18 55 -49 98 -56 46 -7 51 -12 122 -99 25
-30 51 -55 58 -56 6 0 12 2 12 4 0 11 -55 112 -64 119 -8 5 -6 10 4 17 22 14
40 12 40 -4 0 -8 6 -21 13 -28 7 -7 24 -29 37 -48 13 -19 42 -52 63 -73 39
-37 39 -37 36 -119 -4 -85 7 -109 28 -61 26 63 33 114 28 222 -5 111 -5 111
20 111 14 0 33 -4 43 -9 45 -24 94 -42 100 -37 9 10 -36 52 -78 72 -22 10 -40
22 -40 25 0 3 27 18 61 34 33 16 63 34 66 39 10 15 -97 -4 -139 -25 -22 -11
-42 -18 -45 -15 -3 2 -6 87 -6 188 -2 165 -7 200 -27 197 -3 0 -27 -12 -55
-26z m37 -375 c-6 -14 -52 -9 -52 5 0 7 10 33 22 58 23 44 23 44 28 -6 3 -27
4 -53 2 -57z m8 -108 c0 -33 -2 -60 -5 -60 -11 0 -50 45 -64 73 -8 15 -18 27
-23 27 -5 0 -6 5 -3 10 3 6 26 10 51 10 44 0 44 0 44 -60z"/>
</g>
</svg>
