<svg version="1.0" xmlns="http://www.w3.org/2000/svg"
 width="65.000000pt" height="95.000000pt" viewBox="0 0 65.000000 95.000000"
 preserveAspectRatio="xMidYMid meet">
<metadata>
Created by potrace 1.15, written by Peter Selinger 2001-2017
</metadata>
<g transform="translate(0.000000,95.000000) scale(0.100000,-0.100000)"
fill="#000000" stroke="none">
<path d="M330 720 c0 -17 -4 -38 -9 -48 -60 -119 -81 -166 -81 -182 0 -17 -7
-20 -45 -20 -25 0 -45 3 -45 6 0 3 14 19 30 34 17 15 30 35 30 44 0 13 -5 13
-37 -5 -44 -25 -92 -58 -112 -77 -11 -11 -11 -15 5 -27 11 -8 29 -15 41 -15
12 0 24 -8 28 -19 3 -11 19 -34 36 -53 30 -33 30 -33 24 2 -4 19 -11 39 -16
45 -5 5 -9 13 -9 17 0 9 84 11 93 2 3 -4 -3 -24 -13 -45 -27 -51 -26 -89 0
-89 11 0 20 -4 20 -10 0 -5 6 -10 14 -10 8 0 38 -23 66 -50 41 -40 50 -53 41
-64 -10 -11 -5 -16 23 -26 18 -6 44 -20 56 -30 37 -32 41 -13 8 43 -29 49 -30
55 -19 95 6 23 11 67 11 97 0 65 9 68 60 25 57 -49 71 -34 20 20 -16 18 -30
35 -30 39 0 4 17 24 37 44 47 47 35 60 -16 19 -22 -18 -47 -32 -55 -32 -22 0
-36 32 -36 82 0 40 -52 168 -72 176 -4 2 -8 12 -8 23 0 12 -7 19 -20 19 -16 0
-20 -7 -20 -30z m58 -144 c12 -40 22 -78 22 -84 0 -17 -65 -41 -90 -35 -23 6
-57 62 -43 72 12 9 48 74 57 104 11 36 32 15 54 -57z m27 -146 c3 -5 2 -17 -3
-26 -8 -14 -10 -14 -21 0 -13 15 -8 36 9 36 5 0 12 -4 15 -10z m-15 -90 c15
-8 20 -21 20 -50 0 -45 -13 -58 -36 -36 -8 9 -37 30 -62 48 -26 17 -49 33 -51
35 -5 3 17 49 33 72 8 10 17 6 43 -22 18 -20 41 -41 53 -47z"/>
</g>
</svg>
