<svg version="1.0" xmlns="http://www.w3.org/2000/svg"
 width="91.000000pt" height="187.000000pt" viewBox="0 0 91.000000 187.000000"
 preserveAspectRatio="xMidYMid meet">
<metadata>
Created by potrace 1.15, written by Peter Selinger 2001-2017
</metadata>
<g transform="translate(0.000000,187.000000) scale(0.100000,-0.100000)"
fill="#000000" stroke="none">
<path d="M350 1739 c0 -20 28 -67 57 -97 7 -7 13 -16 13 -20 0 -4 14 -22 30
-41 17 -18 30 -37 30 -42 0 -4 6 -14 13 -21 30 -34 49 -88 29 -88 -5 0 -14
-24 -21 -52 -12 -48 -63 -211 -78 -248 -4 -8 -8 -27 -10 -41 -1 -15 -19 -44
-39 -64 -32 -33 -35 -41 -29 -73 8 -42 32 -82 50 -82 7 0 15 -3 17 -8 2 -4 27
-27 56 -52 105 -87 107 -133 12 -273 -31 -46 -39 -82 -18 -75 6 2 16 13 22 24
6 10 27 35 46 54 46 46 60 80 60 146 0 68 -29 114 -119 193 -33 29 -63 62 -66
73 -9 27 19 56 69 69 23 6 50 15 61 19 11 5 32 11 46 14 35 8 62 33 88 84 19
36 21 53 16 100 -15 128 -43 200 -124 321 -20 29 -40 60 -46 69 -22 35 -137
132 -157 132 -4 0 -8 -9 -8 -21z m248 -416 c7 -27 17 -62 22 -79 13 -41 12
-76 -3 -94 -17 -22 -85 -60 -106 -60 -9 0 -22 -5 -28 -11 -6 -6 -18 -9 -26 -7
-13 2 -9 18 19 93 19 50 39 98 44 107 6 10 10 25 10 33 0 15 38 65 50 65 3 0
11 -21 18 -47z"/>
<path d="M780 541 c-5 -11 -10 -32 -10 -48 -1 -37 -51 -137 -70 -140 -9 -2
-27 18 -45 47 -28 48 -63 70 -52 33 30 -104 31 -111 18 -127 -22 -26 -142 -20
-189 10 -2 1 3 16 12 32 13 25 13 32 2 41 -15 13 -20 10 -51 -34 -14 -19 -16
-19 -52 21 -57 62 -67 76 -93 122 -33 59 -70 56 -51 -4 5 -16 12 -40 15 -55 6
-27 50 -84 104 -135 17 -17 32 -35 32 -40 0 -5 -11 -31 -24 -59 -101 -211 -97
-239 13 -99 18 22 51 94 51 109 0 8 6 15 13 16 6 0 48 2 92 3 44 1 99 6 121
10 41 8 42 8 53 -27 13 -39 87 -147 101 -147 21 0 19 42 -6 111 -14 41 -28 82
-31 92 -6 20 35 117 49 117 4 0 8 7 8 15 0 8 10 35 22 59 19 40 20 48 8 71
-16 30 -26 31 -40 6z"/>
</g>
</svg>
