<svg version="1.0" xmlns="http://www.w3.org/2000/svg"
 width="68.000000pt" height="82.000000pt" viewBox="0 0 68.000000 82.000000"
 preserveAspectRatio="xMidYMid meet">
<metadata>
Created by potrace 1.15, written by Peter Selinger 2001-2017
</metadata>
<g transform="translate(0.000000,82.000000) scale(0.100000,-0.100000)"
fill="#000000" stroke="none">
<path d="M165 651 c-46 -7 -62 -36 -51 -94 8 -45 34 -54 114 -41 79 13 81 34
3 34 -49 0 -62 4 -70 19 -7 13 -6 23 3 36 10 14 33 18 128 23 143 6 204 -2
211 -27 6 -26 -24 -39 -101 -44 -81 -4 -91 -18 -92 -114 0 -73 0 -73 -55 -73
-42 0 -55 -3 -55 -15 0 -12 13 -15 55 -15 54 0 55 0 55 -29 0 -28 -2 -30 -47
-33 -66 -4 -70 -28 -4 -28 51 0 51 0 51 -32 0 -33 0 -33 -61 -30 -48 3 -60 1
-57 -10 3 -8 25 -14 61 -16 57 -3 57 -3 57 -52 0 -45 13 -71 27 -56 3 3 8 28
11 56 5 50 5 50 47 50 24 0 50 3 59 6 30 12 5 24 -50 24 -53 0 -54 0 -54 29 0
27 3 30 38 33 20 2 37 8 37 13 0 6 -17 11 -37 13 -34 3 -38 6 -38 32 0 25 4
29 33 32 44 4 40 22 -6 26 -38 3 -38 3 -35 75 3 72 3 72 91 77 101 6 120 19
115 80 -5 53 -28 60 -198 58 -80 0 -163 -4 -185 -7z"/>
<path d="M155 453 c-52 -7 -55 -19 -55 -230 0 -193 0 -193 23 -193 22 0 22 0
22 175 0 200 2 205 82 215 34 3 48 10 48 20 0 16 -58 22 -120 13z"/>
<path d="M411 451 c-24 -15 -2 -30 44 -28 77 3 89 -33 76 -223 -8 -130 -1
-184 22 -161 8 8 13 67 15 189 3 169 2 179 -18 205 -18 23 -29 27 -73 27 -29
0 -58 -4 -66 -9z"/>
</g>
</svg>
