<svg version="1.0" xmlns="http://www.w3.org/2000/svg"
 width="64.000000pt" height="98.000000pt" viewBox="0 0 64.000000 98.000000"
 preserveAspectRatio="xMidYMid meet">
<metadata>
Created by potrace 1.15, written by Peter Selinger 2001-2017
</metadata>
<g transform="translate(0.000000,98.000000) scale(0.100000,-0.100000)"
fill="#000000" stroke="none">
<path d="M114 706 c-15 -12 -17 -17 -6 -28 9 -9 17 -10 30 -2 10 6 49 9 90 6
72 -4 72 -4 72 -38 0 -34 0 -34 -78 -34 -82 0 -112 -14 -112 -53 0 -24 22 -67
34 -68 6 -1 44 -2 83 -3 40 -1 76 -6 80 -10 13 -12 3 -230 -10 -238 -7 -5 -22
-6 -34 -3 -24 6 -53 -3 -53 -16 0 -5 23 -9 50 -9 48 0 50 -1 50 -29 0 -25 -4
-29 -37 -35 -21 -3 -51 -6 -68 -7 -29 -1 -30 -1 -5 -9 34 -11 260 -12 260 -1
0 5 -23 11 -50 13 -60 6 -63 8 -54 42 5 22 11 26 45 26 21 0 39 4 39 10 0 13
-44 23 -69 15 -21 -6 -21 -3 -21 124 0 158 -2 161 -98 162 -37 0 -75 4 -85 7
-16 7 -16 10 -3 27 13 18 30 20 174 25 180 6 202 14 202 75 0 61 -15 65 -221
65 -145 0 -189 -3 -205 -14z m382 -40 c12 -10 16 -18 9 -24 -14 -13 -97 -32
-139 -32 -34 0 -36 2 -36 35 0 35 0 35 73 35 48 0 80 -5 93 -14z"/>
<path d="M437 503 c4 -10 20 -30 36 -46 17 -17 26 -34 23 -43 -3 -9 -6 -20 -6
-25 0 -6 -20 6 -45 26 -60 50 -76 36 -25 -22 25 -29 37 -50 31 -56 -11 -11
-46 -1 -66 20 -9 8 -18 13 -21 10 -11 -11 15 -43 51 -62 35 -18 38 -18 50 -2
19 26 27 8 41 -97 13 -93 9 -145 -10 -158 -7 -5 -6 -8 3 -8 20 0 49 37 56 71
7 31 -6 102 -32 180 -15 43 -15 50 0 82 29 61 24 77 -39 120 -47 31 -56 33
-47 10z"/>
<path d="M121 419 c-15 -43 -14 -74 3 -107 13 -25 12 -34 -5 -82 -27 -79 -24
-180 6 -180 8 0 14 28 18 87 8 114 14 132 37 126 33 -9 128 72 108 92 -1 2
-25 -12 -53 -31 -81 -55 -87 -44 -19 34 30 35 43 57 37 63 -9 9 -68 -47 -101
-97 -11 -16 -12 -8 -7 54 5 76 -5 94 -24 41z"/>
</g>
</svg>
