<svg version="1.0" xmlns="http://www.w3.org/2000/svg"
 width="51.000000pt" height="67.000000pt" viewBox="0 0 51.000000 67.000000"
 preserveAspectRatio="xMidYMid meet">
<metadata>
Created by potrace 1.15, written by Peter Selinger 2001-2017
</metadata>
<g transform="translate(0.000000,67.000000) scale(0.100000,-0.100000)"
fill="#000000" stroke="none">
<path d="M271 484 c-85 -85 -85 -85 -83 -152 4 -145 21 -154 107 -57 60 69 59
63 40 150 -7 30 -7 30 16 -2 36 -49 53 -44 45 14 -3 26 -10 49 -14 52 -13 9
-21 50 -11 57 5 3 9 9 9 15 0 24 -32 2 -109 -77z m19 -99 c5 -14 6 -33 3 -42
-6 -15 -8 -14 -13 7 -4 16 -13 24 -24 24 -16 -2 -16 -1 0 17 22 24 23 24 34
-6z m-20 -64 c0 -5 -7 -14 -15 -21 -13 -10 -15 -9 -15 9 0 12 6 21 15 21 8 0
15 -4 15 -9z"/>
<path d="M121 292 c-6 -15 -13 -59 -14 -97 -2 -68 -1 -71 36 -110 20 -21 37
-43 37 -47 0 -13 42 -31 49 -20 3 5 30 22 59 37 66 35 82 64 82 154 0 102 -39
112 -41 11 -1 -62 -7 -73 -61 -114 -46 -35 -46 -35 -83 10 -34 41 -36 47 -26
76 14 39 14 84 1 109 -15 26 -26 24 -39 -9z"/>
</g>
</svg>
