<svg version="1.0" xmlns="http://www.w3.org/2000/svg"
 width="73.000000pt" height="95.000000pt" viewBox="0 0 73.000000 95.000000"
 preserveAspectRatio="xMidYMid meet">
<metadata>
Created by potrace 1.15, written by Peter Selinger 2001-2017
</metadata>
<g transform="translate(0.000000,95.000000) scale(0.100000,-0.100000)"
fill="#000000" stroke="none">
<path d="M495 758 c-4 -18 -16 -43 -28 -55 -25 -28 -16 -41 15 -19 37 26 57
19 23 -9 -23 -19 -27 -27 -18 -36 10 -10 17 -8 33 6 24 22 36 15 21 -13 -27
-51 -5 -56 28 -7 28 41 23 75 -14 99 -16 10 -25 26 -25 41 0 37 -27 31 -35 -7z"/>
<path d="M150 752 c0 -16 -13 -46 -30 -68 -16 -21 -30 -49 -30 -61 0 -22 42
-63 65 -63 8 0 5 -25 -11 -87 -24 -96 -41 -338 -25 -362 20 -30 28 5 35 146 7
171 14 222 27 202 8 -11 14 -9 30 10 24 29 42 17 37 -25 -2 -23 -9 -30 -30
-32 -27 -3 -41 -32 -16 -32 6 0 4 -7 -5 -18 -21 -23 -21 -32 -3 -32 8 0 24 12
35 26 21 27 21 27 21 -10 0 -31 -3 -36 -24 -36 -13 0 -31 -3 -40 -6 -29 -11
-16 -24 24 -24 39 0 40 -1 40 -35 0 -49 18 -82 51 -94 40 -14 36 -32 -16 -80
-25 -23 -45 -44 -45 -46 0 -17 40 0 70 30 37 36 37 36 89 0 56 -37 81 -44 81
-22 0 8 -20 24 -45 36 -41 20 -75 54 -75 73 0 5 11 8 23 8 13 0 31 8 39 18 22
24 44 100 32 112 -5 5 -41 5 -84 0 -77 -9 -107 -5 -52 6 43 9 41 24 -3 24 -31
0 -35 3 -35 26 0 24 1 24 22 10 12 -9 28 -16 35 -16 24 0 13 19 -19 37 -31 16
-31 18 -10 21 30 5 28 22 -3 22 -20 0 -25 5 -25 25 0 39 19 62 46 57 26 -5 32
11 12 27 -68 56 -82 65 -85 54 -8 -24 -67 -97 -70 -87 -7 22 28 83 66 113 25
20 44 46 54 74 10 30 20 43 35 45 18 3 22 -2 22 -21 0 -41 9 -54 61 -88 83
-53 94 -84 144 -393 15 -91 25 -114 44 -102 15 10 14 71 -3 153 -8 37 -17 97
-21 133 -4 35 -14 83 -22 105 -14 40 -78 115 -98 115 -6 0 -23 13 -38 28 -33
34 -37 79 -7 84 12 2 21 8 20 13 0 15 -189 19 -206 4 -22 -18 -16 -29 16 -29
22 0 30 -5 30 -17 0 -25 -37 -83 -52 -83 -7 0 -21 -11 -33 -25 -20 -25 -20
-25 -50 -1 -35 28 -30 42 9 25 35 -16 47 -2 17 22 -27 22 -22 36 7 20 27 -14
32 -14 32 4 0 8 -9 19 -21 25 -12 7 -18 17 -15 27 7 19 -3 63 -15 63 -5 0 -9
-13 -9 -28z m125 -242 c-5 -8 -11 -8 -17 -2 -6 6 -7 16 -3 22 5 8 11 8 17 2 6
-6 7 -16 3 -22z m145 -269 c0 -14 -27 -21 -76 -21 -24 0 -44 -4 -44 -10 0 -5
24 -10 53 -10 48 -1 50 -2 33 -15 -25 -19 -56 -19 -84 1 -34 23 -29 52 11 57
63 8 107 7 107 -2z"/>
<path d="M427 534 c-4 -4 -7 -28 -7 -53 -1 -25 -7 -57 -15 -71 -23 -41 -19
-68 15 -85 17 -9 30 -20 30 -25 0 -6 9 -10 20 -10 33 0 24 36 -15 60 -19 12
-35 22 -35 23 0 1 9 33 20 72 16 57 18 72 7 82 -7 8 -16 10 -20 7z"/>
<path d="M370 488 c0 -23 -3 -54 -6 -68 -6 -24 -6 -24 12 -8 21 21 27 108 7
115 -9 3 -13 -8 -13 -39z"/>
<path d="M212 449 c-15 -24 -10 -34 13 -26 15 6 22 47 7 47 -4 0 -13 -9 -20
-21z"/>
<path d="M300 456 c0 -16 28 -42 36 -33 8 7 -14 47 -26 47 -6 0 -10 -6 -10
-14z"/>
<path d="M461 446 c-13 -16 -5 -60 14 -76 23 -19 39 14 25 55 -13 38 -21 43
-39 21z"/>
<path d="M233 119 c-38 -24 -42 -39 -12 -39 32 0 59 19 59 40 0 25 -7 25 -47
-1z"/>
<path d="M420 127 c0 -12 52 -37 78 -37 26 0 10 19 -28 34 -49 19 -50 19 -50
3z"/>
</g>
</svg>
