<svg version="1.0" xmlns="http://www.w3.org/2000/svg"
 width="68.000000pt" height="83.000000pt" viewBox="0 0 68.000000 83.000000"
 preserveAspectRatio="xMidYMid meet">
<metadata>
Created by potrace 1.15, written by Peter Selinger 2001-2017
</metadata>
<g transform="translate(0.000000,83.000000) scale(0.100000,-0.100000)"
fill="#000000" stroke="none">
<path d="M123 592 c-29 -3 -42 -19 -28 -34 9 -9 78 7 82 18 5 15 -14 20 -54
16z"/>
<path d="M485 584 c-11 -2 -46 -6 -77 -9 -61 -7 -77 -21 -31 -27 22 -2 33 -13
50 -50 13 -27 30 -48 38 -48 19 0 19 23 -1 61 -8 17 -13 33 -10 36 13 13 46
-12 67 -52 13 -25 30 -45 36 -45 18 0 16 49 -2 56 -8 4 -15 17 -15 29 0 19
-25 60 -33 54 -1 -1 -11 -3 -22 -5z"/>
<path d="M280 570 c0 -5 5 -10 10 -10 6 0 10 5 10 10 0 6 -4 10 -10 10 -5 0
-10 -4 -10 -10z"/>
<path d="M555 570 c4 -6 11 -8 16 -5 14 9 11 15 -7 15 -8 0 -12 -5 -9 -10z"/>
<path d="M190 555 c0 -8 5 -15 10 -15 6 0 10 7 10 15 0 8 -4 15 -10 15 -5 0
-10 -7 -10 -15z"/>
<path d="M290 531 c0 -7 -9 -20 -20 -29 -22 -19 -13 -49 13 -39 17 6 29 58 16
72 -6 5 -9 4 -9 -4z"/>
<path d="M340 482 c0 -21 18 -42 37 -42 11 0 11 4 1 23 -7 12 -11 25 -10 30 1
4 -5 7 -13 7 -8 0 -15 -8 -15 -18z"/>
<path d="M122 483 c-83 -5 -81 -28 3 -28 55 0 59 -2 66 -28 6 -24 4 -28 -19
-32 -15 -3 -38 -11 -52 -18 -25 -13 -25 -15 -31 -167 -3 -85 -1 -159 3 -165
17 -20 28 21 29 110 4 201 2 187 38 207 22 13 37 15 49 9 20 -10 72 -3 72 10
0 5 -13 9 -29 9 -22 0 -30 5 -33 24 -3 14 -1 30 3 38 9 14 -8 39 -25 36 -6 -1
-39 -3 -74 -5z"/>
<path d="M408 393 c-10 -3 -18 -9 -18 -14 0 -12 37 -12 45 0 7 12 -5 19 -27
14z"/>
<path d="M485 390 c-3 -5 3 -10 14 -10 11 0 23 5 26 10 3 6 -3 10 -14 10 -11
0 -23 -4 -26 -10z"/>
<path d="M565 370 c3 -5 8 -10 11 -10 2 0 4 5 4 10 0 6 -5 10 -11 10 -5 0 -7
-4 -4 -10z"/>
<path d="M287 343 c-4 -3 -7 -11 -7 -17 0 -6 5 -5 12 2 6 6 9 14 7 17 -3 3 -9
2 -12 -2z"/>
<path d="M196 332 c-3 -6 -7 -70 -9 -144 -2 -113 0 -133 13 -133 12 0 15 23
18 134 2 122 -5 170 -22 143z"/>
<path d="M350 331 c0 -6 5 -13 10 -16 6 -3 10 1 10 9 0 9 -4 16 -10 16 -5 0
-10 -4 -10 -9z"/>
<path d="M550 326 c0 -8 5 -18 10 -21 6 -3 10 3 10 14 0 12 -4 21 -10 21 -5 0
-10 -6 -10 -14z"/>
<path d="M430 320 c0 -5 7 -10 15 -10 8 0 15 5 15 10 0 6 -7 10 -15 10 -8 0
-15 -4 -15 -10z"/>
<path d="M281 239 c2 -35 1 -68 -2 -74 -8 -13 1 -85 10 -85 4 0 12 14 18 31
15 38 37 34 40 -7 0 -16 2 -35 2 -41 2 -32 20 -8 27 35 4 26 12 50 18 55 7 5
5 11 -6 18 -22 13 -23 45 -2 53 9 3 29 6 45 6 61 0 18 33 -46 35 -36 1 -45 -9
-45 -52 0 -35 -23 -46 -34 -17 -10 25 -7 34 9 34 8 0 15 4 15 9 0 5 -7 11 -15
15 -8 3 -15 12 -15 20 0 8 -5 18 -11 22 -8 4 -10 -13 -8 -57z"/>
<path d="M543 266 c-4 -7 -15 -16 -23 -19 -8 -3 -1 -5 15 -6 17 0 41 -1 54 -3
33 -4 37 16 6 30 -33 15 -42 15 -52 -2z"/>
<path d="M400 195 c0 -8 5 -15 10 -15 6 0 10 7 10 15 0 8 -4 15 -10 15 -5 0
-10 -7 -10 -15z"/>
<path d="M557 196 c-6 -15 22 -46 41 -46 17 0 14 11 -7 38 -22 26 -27 27 -34
8z"/>
<path d="M490 155 c-7 -9 -10 -18 -7 -21 6 -7 47 18 47 28 0 14 -27 9 -40 -7z"/>
<path d="M552 103 c3 -54 18 -60 32 -14 6 21 5 35 -4 46 -22 27 -31 16 -28
-32z"/>
<path d="M491 94 c0 -11 3 -14 6 -6 3 7 2 16 -1 19 -3 4 -6 -2 -5 -13z"/>
<path d="M400 81 c0 -6 5 -13 10 -16 6 -3 10 1 10 9 0 9 -4 16 -10 16 -5 0
-10 -4 -10 -9z"/>
</g>
</svg>
