<svg version="1.0" xmlns="http://www.w3.org/2000/svg"
 width="66.000000pt" height="81.000000pt" viewBox="0 0 66.000000 81.000000"
 preserveAspectRatio="xMidYMid meet">
<metadata>
Created by potrace 1.15, written by Peter Selinger 2001-2017
</metadata>
<g transform="translate(0.000000,81.000000) scale(0.100000,-0.100000)"
fill="#000000" stroke="none">
<path d="M314 685 c-32 -51 -55 -56 -124 -29 -38 15 -70 14 -70 -3 0 -4 36
-23 80 -42 48 -20 80 -40 80 -49 0 -8 -13 -30 -30 -48 -17 -19 -38 -62 -47
-95 -16 -52 -23 -64 -54 -80 -36 -18 -99 -87 -99 -108 0 -18 8 -13 53 34 24
25 51 45 60 45 30 0 31 -45 2 -105 -27 -58 -27 -78 -1 -56 16 13 56 123 56
154 0 12 13 24 39 34 22 8 44 26 50 39 12 27 5 31 -18 10 -25 -22 -60 -29 -66
-14 -3 7 8 42 25 76 32 66 55 79 77 43 18 -28 39 -189 28 -205 -69 -93 -89
-159 -66 -219 17 -44 31 -22 31 50 0 50 5 72 21 94 11 16 26 29 32 28 7 0 39
-31 72 -67 32 -37 78 -84 102 -105 57 -52 66 -30 19 50 -26 45 -45 64 -75 78
-23 10 -50 32 -61 49 -19 31 -19 31 9 61 40 41 48 86 21 110 -20 18 -20 18
-20 -22 0 -21 -6 -47 -13 -58 -15 -20 -37 -13 -37 12 0 9 -4 30 -9 47 -5 17
-15 56 -22 86 -6 30 -14 61 -16 68 -4 9 11 12 56 12 69 0 79 -14 36 -48 -14
-11 -25 -23 -25 -26 0 -16 42 -3 70 21 32 26 32 26 61 -5 62 -67 68 -25 6 44
-23 27 -48 61 -54 76 -13 28 -59 65 -70 55 -3 -3 7 -21 22 -39 28 -33 28 -33
-41 -44 -38 -7 -73 -9 -77 -4 -5 4 3 36 17 70 30 74 30 70 12 70 -7 0 -26 -20
-42 -45z"/>
</g>
</svg>
