<svg version="1.0" xmlns="http://www.w3.org/2000/svg"
 width="55.000000pt" height="55.000000pt" viewBox="0 0 55.000000 55.000000"
 preserveAspectRatio="xMidYMid meet">
<metadata>
Created by potrace 1.15, written by Peter Selinger 2001-2017
</metadata>
<g transform="translate(0.000000,55.000000) scale(0.100000,-0.100000)"
fill="#000000" stroke="none">
<path d="M114 456 c-10 -27 2 -137 18 -152 11 -11 42 -15 129 -15 168 -1 153
-6 144 44 -3 23 -9 58 -12 77 -3 19 -9 40 -15 46 -5 8 -54 12 -133 13 -101 2
-126 -1 -131 -13z m186 -39 c53 -11 55 -14 58 -46 3 -31 2 -33 -20 -27 -13 3
-50 6 -83 6 -71 0 -80 5 -90 48 -7 32 -7 32 37 31 24 0 68 -6 98 -12z"/>
<path d="M110 230 c0 -11 4 -20 8 -20 5 0 15 -26 21 -57 20 -89 17 -85 55 -78
18 4 68 1 109 -5 90 -15 120 -9 135 25 17 37 15 107 -4 133 -15 21 -21 22
-170 22 -147 0 -154 -1 -154 -20z m286 -65 c3 -14 4 -32 0 -40 -6 -16 -26 -21
-26 -7 0 5 -37 9 -81 11 -45 1 -86 4 -90 7 -5 3 -9 16 -9 30 0 24 1 24 100 24
98 0 100 0 106 -25z"/>
</g>
</svg>
