<svg version="1.0" xmlns="http://www.w3.org/2000/svg"
 width="79.000000pt" height="219.000000pt" viewBox="0 0 79.000000 219.000000"
 preserveAspectRatio="xMidYMid meet">
<metadata>
Created by potrace 1.15, written by Peter Selinger 2001-2017
</metadata>
<g transform="translate(0.000000,219.000000) scale(0.100000,-0.100000)"
fill="#000000" stroke="none">
<path d="M110 2062 c0 -4 18 -26 41 -47 65 -63 80 -90 84 -148 13 -193 16
-267 10 -267 -35 0 -75 65 -75 124 0 17 -9 56 -20 86 -11 30 -20 56 -20 57 0
2 -7 3 -16 3 -15 0 -16 -10 -10 -85 11 -140 40 -196 119 -236 32 -17 38 -25
35 -47 -2 -16 -11 -28 -23 -32 -38 -10 -102 -64 -114 -95 -35 -97 32 -245 110
-245 14 0 28 -2 31 -6 7 -6 -29 -83 -48 -102 -8 -7 -23 -33 -34 -57 -11 -24
-24 -47 -30 -50 -5 -3 -17 -21 -26 -40 -29 -63 7 -90 46 -35 15 21 30 30 49
30 30 0 28 11 43 -175 1 -11 1 -57 0 -101 -2 -81 -2 -81 -56 -88 -61 -7 -86
-14 -86 -26 0 -13 60 -30 106 -30 44 0 44 0 44 -164 0 -163 0 -163 -37 -170
-21 -3 -52 -6 -70 -6 -35 0 -51 -16 -35 -32 11 -11 279 -12 307 -1 35 13 -1
35 -75 47 -33 5 -36 17 -38 162 -2 82 -5 151 -8 155 -2 4 21 13 51 19 30 6 55
14 55 18 0 12 -52 32 -82 32 -28 0 -28 0 -28 180 0 180 0 180 26 180 14 0 37
-9 51 -20 47 -37 77 -18 45 28 -11 15 -29 44 -41 65 -11 20 -30 53 -41 72 -11
20 -20 42 -20 49 0 8 -11 21 -25 30 -37 25 -31 33 30 38 61 5 105 35 105 72 1
12 9 38 18 58 18 37 18 37 65 6 27 -17 47 -38 47 -48 0 -26 -90 -118 -128
-131 -43 -15 -44 -44 -1 -35 44 9 100 37 128 64 13 13 25 22 26 20 2 -2 -1
-82 -6 -178 -6 -96 -13 -270 -16 -385 -5 -208 -5 -211 20 -266 25 -58 79 -119
103 -119 8 0 14 -4 14 -10 0 -5 9 -10 20 -10 32 0 23 21 -30 72 -27 26 -50 56
-50 67 0 11 -4 22 -8 25 -18 11 -22 264 -9 471 5 72 10 200 12 286 2 86 8 174
13 195 14 56 13 102 -5 164 -32 113 -67 168 -98 156 -13 -5 -12 -12 9 -53 35
-71 60 -183 52 -237 -7 -44 -18 -57 -31 -36 -4 6 -24 19 -46 31 -31 15 -44 17
-54 9 -11 -9 -16 0 -25 43 -6 32 -20 63 -33 74 -21 19 -80 54 -92 53 -21 -1
-25 2 -25 17 0 9 17 33 38 53 47 46 83 147 88 245 4 87 -1 105 -30 105 -21 0
-24 -6 -30 -61 -3 -34 -6 -77 -6 -95 0 -39 -37 -144 -51 -144 -5 0 -9 53 -9
121 0 170 -8 194 -90 273 -40 39 -76 66 -89 66 -11 0 -21 -4 -21 -8z m265
-657 c14 -13 25 -34 25 -45 0 -18 -5 -21 -37 -18 -37 3 -38 4 -41 46 -4 50 15
56 53 17z m-110 -15 c9 -40 1 -49 -40 -47 -40 3 -55 14 -31 23 9 3 16 12 16
20 0 12 26 33 42 34 3 0 9 -13 13 -30z m-9 -116 c-3 -9 -6 -29 -6 -45 0 -36
-11 -37 -52 -1 -42 39 -34 62 23 62 33 0 40 -3 35 -16z m134 -11 c0 -31 -35
-73 -62 -73 -14 0 -18 8 -18 34 0 54 8 66 46 66 30 0 34 -3 34 -27z m-95 -271
c10 -7 35 -48 35 -57 0 -3 -22 -5 -50 -5 -27 0 -50 3 -50 6 0 10 41 64 48 64
4 0 12 -4 17 -8z"/>
<path d="M343 789 c-10 -10 4 -69 20 -85 4 -4 7 -16 7 -26 0 -32 44 -107 63
-108 22 0 22 30 1 90 -9 25 -18 58 -20 73 -2 16 -14 37 -26 47 -27 23 -31 23
-45 9z"/>
<path d="M164 772 c-5 -4 -16 -27 -24 -52 -7 -25 -22 -62 -32 -82 -10 -21 -18
-49 -18 -64 0 -28 0 -28 30 1 17 16 30 35 30 42 0 7 4 13 8 13 15 0 32 49 32
88 0 42 -11 64 -26 54z"/>
<path d="M357 366 c-4 -11 60 -111 100 -157 13 -14 29 -34 37 -44 8 -11 19
-16 30 -12 15 6 15 9 1 34 -25 44 -58 95 -90 140 -29 40 -71 61 -78 39z"/>
<path d="M131 286 c-44 -91 -50 -123 -25 -133 16 -6 25 3 74 77 29 45 35 74
24 118 -11 40 -32 23 -73 -62z"/>
</g>
</svg>
