<svg version="1.0" xmlns="http://www.w3.org/2000/svg"
 width="61.000000pt" height="83.000000pt" viewBox="0 0 61.000000 83.000000"
 preserveAspectRatio="xMidYMid meet">
<metadata>
Created by potrace 1.15, written by Peter Selinger 2001-2017
</metadata>
<g transform="translate(0.000000,83.000000) scale(0.100000,-0.100000)"
fill="#000000" stroke="none">
<path d="M351 713 c-6 -20 -8 -40 -5 -45 8 -12 -26 -49 -37 -42 -5 3 -9 16 -9
30 0 28 -28 44 -41 23 -5 -8 -9 -27 -9 -42 0 -26 -2 -28 -37 -25 -36 3 -38 5
-41 40 -3 36 -26 67 -39 54 -11 -11 -15 -118 -6 -176 11 -70 36 -77 41 -12 3
43 3 43 45 40 42 -3 42 -3 45 -125 3 -123 3 -123 -40 -123 -45 0 -48 4 -72 73
-9 26 -31 15 -29 -14 6 -85 17 -156 25 -172 12 -24 28 -21 28 6 0 41 21 58 63
51 36 -6 37 -8 37 -49 0 -53 8 -75 26 -75 9 0 14 11 14 30 0 23 5 30 19 30 11
0 23 5 26 10 13 22 32 8 45 -33 25 -80 50 -90 50 -22 0 26 -9 65 -20 87 -11
23 -20 49 -20 57 0 19 24 88 32 97 4 3 2 17 -4 30 -15 33 -44 31 -51 -3 -12
-53 -23 -59 -51 -32 -23 22 -26 31 -26 107 0 45 2 82 4 82 2 0 11 3 19 6 11 4
16 -2 19 -23 2 -16 10 -29 20 -31 13 -3 18 8 23 53 5 34 16 67 29 83 29 37 51
81 43 88 -4 4 -19 -1 -33 -11 -25 -16 -28 -16 -39 -1 -19 25 -33 19 -44 -21z
m-11 -436 c0 -23 -16 -55 -23 -47 -2 3 -2 22 1 42 4 39 22 43 22 5z"/>
</g>
</svg>
