<svg version="1.0" xmlns="http://www.w3.org/2000/svg"
 width="61.000000pt" height="84.000000pt" viewBox="0 0 61.000000 84.000000"
 preserveAspectRatio="xMidYMid meet">
<metadata>
Created by potrace 1.15, written by Peter Selinger 2001-2017
</metadata>
<g transform="translate(0.000000,84.000000) scale(0.100000,-0.100000)"
fill="#000000" stroke="none">
<path d="M147 763 c-4 -3 -7 -16 -7 -27 0 -13 -16 -33 -40 -50 -60 -45 -46
-80 16 -40 23 16 26 16 38 -1 14 -19 36 -13 36 11 0 9 11 14 30 14 38 0 38 13
1 41 -16 12 -32 30 -34 40 -5 19 -27 25 -40 12z"/>
<path d="M380 750 c-6 -11 -24 -27 -40 -35 -17 -9 -30 -23 -30 -31 0 -16 12
-16 52 1 13 5 20 0 28 -20 10 -26 30 -26 30 0 0 23 16 26 60 10 81 -29 70 7
-20 65 -55 35 -66 37 -80 10z"/>
<path d="M265 640 c-10 -17 3 -26 60 -39 120 -29 114 -95 -11 -124 -142 -33
-202 -86 -191 -169 9 -70 30 -82 156 -88 61 -3 113 -8 116 -12 3 -3 -1 -12 -9
-20 -9 -10 -44 -17 -97 -21 -77 -5 -85 -4 -112 19 -16 13 -32 24 -37 24 -21 0
-20 -24 2 -48 14 -15 31 -49 38 -75 14 -54 32 -67 88 -67 50 0 101 34 117 80
24 69 35 90 44 90 6 0 29 -25 52 -56 27 -36 44 -53 51 -46 14 14 -22 79 -66
121 -34 33 -39 34 -155 45 -68 7 -126 18 -135 25 -9 7 -16 28 -16 47 0 47 46
79 161 110 51 13 94 26 94 27 1 1 11 15 23 31 12 16 22 40 22 53 0 36 -50 79
-102 86 -24 4 -53 9 -64 13 -12 3 -25 1 -29 -6z m85 -518 c0 -4 -7 -18 -16
-30 -20 -30 -88 -31 -104 -3 -19 36 -12 41 55 41 36 0 65 -3 65 -8z"/>
<path d="M170 588 c0 -25 23 -38 68 -38 64 0 49 -21 -26 -36 -78 -16 -141 -57
-142 -91 0 -20 16 -15 62 17 30 21 60 32 98 37 74 8 110 27 110 58 0 30 -12
37 -75 47 -27 4 -60 10 -72 14 -16 4 -23 2 -23 -8z"/>
<path d="M475 480 c-15 -25 -91 -62 -143 -70 -42 -7 -63 -16 -79 -35 -27 -31
-28 -35 -9 -61 13 -16 27 -19 111 -19 97 0 97 0 130 -40 19 -22 37 -36 41 -33
15 15 -8 59 -43 83 -33 22 -48 25 -120 25 -118 0 -121 24 -5 49 93 19 166 70
147 101 -8 13 -22 13 -30 0z"/>
</g>
</svg>
