<svg version="1.0" xmlns="http://www.w3.org/2000/svg"
 width="68.000000pt" height="114.000000pt" viewBox="0 0 68.000000 114.000000"
 preserveAspectRatio="xMidYMid meet">
<metadata>
Created by potrace 1.15, written by Peter Selinger 2001-2017
</metadata>
<g transform="translate(0.000000,114.000000) scale(0.100000,-0.100000)"
fill="#000000" stroke="none">
<path d="M135 1078 c-3 -13 -4 -58 -2 -101 1 -42 -1 -77 -4 -77 -3 0 -7 -30
-8 -67 -2 -53 -6 -70 -22 -81 -24 -17 -24 -28 1 -35 32 -8 26 -57 -10 -89 -17
-15 -34 -28 -39 -30 -5 -2 -11 -42 -14 -90 -2 -47 -7 -90 -10 -95 -3 -5 -8
-66 -12 -137 -3 -71 -8 -132 -10 -137 -9 -14 7 -39 25 -39 16 0 19 16 25 168
3 92 11 183 16 202 5 19 9 51 9 71 0 42 25 73 36 44 7 -17 -1 -285 -12 -442
-6 -89 3 -106 31 -54 9 19 15 57 15 103 -1 137 13 398 20 398 15 0 48 -67 40
-80 -5 -8 -6 -34 -3 -59 8 -75 8 -141 2 -236 -6 -96 1 -135 25 -135 21 0 28
32 22 93 -3 28 -8 136 -12 238 -7 187 -7 187 -45 210 -21 13 -39 29 -39 36 0
6 -3 18 -6 27 -4 11 4 17 31 22 28 5 40 14 55 45 26 50 26 85 0 92 -21 5 -37
-23 -25 -43 12 -19 -16 -40 -53 -40 -33 0 -34 1 -20 18 23 25 35 322 13 322
-8 0 -17 -10 -20 -22z"/>
<path d="M44 1027 c-2 -7 -3 -69 -2 -137 3 -107 5 -125 20 -128 14 -3 16 12
17 137 0 119 -2 141 -15 141 -8 0 -17 -6 -20 -13z"/>
<path d="M395 1030 c-7 -12 34 -30 53 -23 18 8 14 25 -5 21 -10 -1 -23 1 -30
5 -6 4 -14 3 -18 -3z"/>
<path d="M520 1029 c0 -7 -10 -9 -25 -7 -17 4 -25 1 -25 -8 0 -10 15 -14 50
-14 63 0 79 -13 70 -56 -10 -45 -17 -53 -40 -47 -11 3 -28 2 -37 -2 -10 -4
-40 -8 -67 -10 -47 -4 -74 -21 -57 -38 4 -4 19 -4 32 1 13 5 57 10 98 11 89 3
106 16 115 89 6 48 5 52 -14 52 -11 0 -20 7 -20 15 0 8 -8 15 -17 16 -10 0
-28 2 -40 5 -13 2 -23 -1 -23 -7z"/>
<path d="M225 976 c-4 -27 -2 -52 5 -66 10 -18 9 -24 -1 -31 -18 -11 -6 -21
15 -13 22 9 24 154 2 154 -10 0 -17 -15 -21 -44z"/>
<path d="M330 845 c-8 -10 -13 -78 -17 -212 -2 -109 -5 -207 -5 -218 -1 -11
-1 -38 0 -60 0 -22 0 -107 -1 -190 -2 -131 0 -150 14 -153 9 -2 19 4 22 13 5
12 9 271 6 355 -1 27 11 273 14 276 6 6 116 11 124 5 8 -5 9 -69 4 -173 -1
-32 -26 -59 -47 -51 -10 4 -14 16 -12 39 2 34 -15 64 -29 50 -15 -15 -5 -291
12 -332 11 -26 20 -32 65 -41 53 -11 100 -2 127 24 7 6 13 33 14 60 1 26 5 53
10 58 4 6 6 64 6 130 -2 105 -4 120 -19 123 -15 3 -18 -5 -18 -52 0 -54 -1
-56 -32 -64 -43 -12 -48 -8 -37 31 5 17 9 48 8 67 0 19 -1 56 0 81 1 46 1 46
61 53 40 5 60 11 60 20 0 15 -58 28 -66 15 -3 -5 -16 -3 -29 3 -18 8 -25 19
-25 38 0 31 -23 66 -37 57 -11 -7 -5 -55 9 -74 12 -15 -39 -25 -107 -21 -50 3
-50 3 -49 56 1 28 -2 52 -7 52 -6 0 -5 8 1 19 5 11 10 22 10 25 0 11 -18 6
-30 -9z m259 -469 c8 -19 -2 -167 -11 -170 -2 -1 -12 -6 -22 -12 -24 -13 -105
6 -117 28 -8 14 -13 75 -10 131 1 33 24 44 99 46 47 1 54 -2 61 -23z"/>
</g>
</svg>
