<svg version="1.0" xmlns="http://www.w3.org/2000/svg"
 width="75.000000pt" height="97.000000pt" viewBox="0 0 75.000000 97.000000"
 preserveAspectRatio="xMidYMid meet">
<metadata>
Created by potrace 1.15, written by Peter Selinger 2001-2017
</metadata>
<g transform="translate(0.000000,97.000000) scale(0.100000,-0.100000)"
fill="#000000" stroke="none">
<path d="M333 728 c2 -43 2 -43 -63 -54 -78 -13 -98 -22 -139 -70 -23 -26 -29
-40 -22 -47 8 -8 19 -3 38 15 42 39 107 68 153 68 40 0 40 0 40 -99 0 -140 -4
-155 -51 -177 -22 -9 -60 -39 -85 -66 -37 -40 -45 -55 -41 -76 6 -33 -17 -160
-32 -175 -16 -16 -14 -37 3 -37 35 0 76 101 76 185 0 45 4 52 49 96 60 58 98
69 145 40 38 -24 50 -50 65 -140 12 -74 45 -147 72 -162 26 -13 37 15 16 39
-28 31 -47 90 -47 144 0 61 -18 93 -81 148 -42 36 -42 36 -47 167 -5 131 -5
131 70 138 90 8 124 29 114 69 -7 28 -30 35 -43 12 -12 -20 -63 -44 -103 -48
-31 -3 -35 0 -38 22 -5 30 -20 50 -38 50 -9 0 -12 -13 -11 -42z"/>
<path d="M463 625 c-16 -18 -16 -38 -1 -53 20 -20 48 -14 60 13 19 43 -29 75
-59 40z"/>
<path d="M538 576 c-15 -18 -32 -44 -39 -59 -15 -34 -20 -34 -48 4 -13 17 -25
29 -27 26 -8 -7 41 -107 53 -107 6 0 22 15 34 33 13 17 27 35 31 38 16 11 58
73 58 86 0 24 -35 12 -62 -21z"/>
<path d="M225 580 c-9 -14 3 -47 20 -53 18 -7 38 17 33 40 -4 20 -42 30 -53
13z"/>
<path d="M170 535 c0 -3 9 -15 19 -26 10 -11 24 -41 30 -65 14 -55 45 -62 55
-12 4 18 18 50 31 70 24 37 25 38 5 38 -12 0 -25 -10 -32 -25 -6 -14 -17 -25
-23 -25 -7 0 -20 11 -29 25 -14 21 -56 36 -56 20z"/>
</g>
</svg>
