<svg version="1.0" xmlns="http://www.w3.org/2000/svg"
 width="64.000000pt" height="89.000000pt" viewBox="0 0 64.000000 89.000000"
 preserveAspectRatio="xMidYMid meet">
<metadata>
Created by potrace 1.15, written by Peter Selinger 2001-2017
</metadata>
<g transform="translate(0.000000,89.000000) scale(0.100000,-0.100000)"
fill="#000000" stroke="none">
<path d="M283 718 c-5 -7 -13 -21 -16 -30 -5 -14 -18 -18 -52 -18 -40 0 -47 3
-55 26 -19 49 -35 22 -32 -55 3 -103 10 -111 82 -111 51 0 62 3 75 23 31 48
30 206 -2 165z m-13 -103 c0 -30 -29 -47 -73 -43 -25 2 -33 8 -35 27 -5 30 12
41 66 41 38 0 42 -2 42 -25z"/>
<path d="M510 705 c-12 -14 -27 -17 -83 -12 -70 5 -70 5 -64 -56 3 -33 11 -64
19 -68 15 -10 99 -12 123 -3 38 15 58 102 32 138 -12 17 -14 17 -27 1z m0 -75
c0 -33 -22 -44 -81 -38 -29 2 -34 7 -34 28 0 21 6 26 35 31 74 13 80 11 80
-21z"/>
<path d="M308 508 c-3 -33 -3 -33 -108 -43 -82 -8 -105 -13 -105 -25 0 -13 16
-14 103 -11 98 3 102 3 102 -18 0 -15 -6 -21 -20 -21 -54 0 -123 -64 -139
-128 -14 -55 -22 -225 -12 -241 19 -29 28 3 34 114 5 104 8 121 32 157 33 49
82 72 153 69 58 -2 94 -18 90 -40 -2 -8 -26 -24 -55 -36 -52 -21 -93 -50 -93
-68 0 -5 10 -29 21 -53 19 -37 34 -49 115 -91 75 -39 95 -46 106 -35 16 16 -2
33 -62 56 -55 21 -118 63 -131 88 -15 27 6 56 49 67 52 15 82 38 82 65 0 38
-30 66 -80 74 -35 6 -45 12 -45 27 0 16 10 21 55 28 79 11 93 5 110 -49 16
-48 37 -58 32 -14 -2 14 -6 56 -8 93 -4 46 -10 67 -17 64 -7 -2 -14 -12 -16
-23 -5 -28 -19 -34 -87 -34 -60 0 -62 1 -67 30 -9 41 -35 39 -39 -2z"/>
</g>
</svg>
