<svg version="1.0" xmlns="http://www.w3.org/2000/svg"
 width="59.000000pt" height="95.000000pt" viewBox="0 0 59.000000 95.000000"
 preserveAspectRatio="xMidYMid meet">
<metadata>
Created by potrace 1.15, written by Peter Selinger 2001-2017
</metadata>
<g transform="translate(0.000000,95.000000) scale(0.100000,-0.100000)"
fill="#000000" stroke="none">
<path d="M203 796 c-18 -6 -35 -15 -39 -19 -4 -4 -17 -7 -29 -7 -28 0 -45 -20
-55 -65 -9 -39 -3 -75 12 -75 6 0 33 11 61 25 28 14 56 24 64 21 20 -8 16 -69
-9 -115 -22 -41 -22 -41 15 -76 20 -19 37 -39 37 -45 0 -19 -32 -90 -41 -90
-26 0 11 -147 42 -166 16 -10 9 31 -12 75 -17 36 -18 45 -7 52 19 13 22 11 33
-13 6 -12 16 -24 24 -26 11 -4 12 4 7 34 -23 129 -26 123 61 106 44 -8 91 -12
106 -8 23 5 27 11 27 45 0 44 -8 53 -65 72 -107 37 -122 61 -85 136 19 40 19
41 0 79 -34 71 -73 87 -147 60z m77 -40 c0 -25 -12 -46 -25 -46 -19 0 -36 25
-29 44 8 20 54 22 54 2z m-120 -41 c0 -8 -10 -19 -22 -26 -18 -10 -20 -9 -15
6 4 9 7 21 7 26 0 5 7 9 15 9 8 0 15 -7 15 -15z m164 -27 c-11 -38 -25 -50
-41 -37 -11 10 -10 16 8 36 28 29 42 30 33 1z m-24 -128 c0 -31 -11 -50 -30
-50 -24 0 -33 30 -20 64 8 23 13 25 30 16 11 -6 20 -19 20 -30z m40 -81 c0 -5
-7 -9 -15 -9 -15 0 -20 12 -9 23 8 8 24 -1 24 -14z m65 -19 c3 -5 -1 -10 -10
-10 -9 0 -13 5 -10 10 3 6 8 10 10 10 2 0 7 -4 10 -10z"/>
<path d="M343 305 c-3 -9 -3 -34 0 -55 5 -37 3 -40 -19 -40 -29 0 -30 -10 -4
-43 17 -21 19 -34 14 -69 -7 -42 -7 -43 13 -25 19 17 43 78 43 110 0 9 11 27
25 41 14 14 25 34 25 46 0 22 -10 26 -27 9 -7 -7 -15 -2 -27 15 -19 30 -34 33
-43 11z"/>
<path d="M136 269 c-4 -23 0 -39 15 -61 16 -22 20 -37 14 -64 -11 -60 16 -105
28 -46 4 15 11 34 17 42 9 13 11 13 20 0 6 -10 12 -12 20 -4 7 7 3 19 -15 40
-14 16 -25 34 -25 39 0 6 -9 16 -20 23 -11 7 -20 18 -20 26 0 7 -6 19 -14 25
-11 9 -15 5 -20 -20z"/>
</g>
</svg>
