<svg version="1.0" xmlns="http://www.w3.org/2000/svg"
 width="78.000000pt" height="92.000000pt" viewBox="0 0 78.000000 92.000000"
 preserveAspectRatio="xMidYMid meet">
<metadata>
Created by potrace 1.15, written by Peter Selinger 2001-2017
</metadata>
<g transform="translate(0.000000,92.000000) scale(0.100000,-0.100000)"
fill="#000000" stroke="none">
<path d="M257 743 c-13 -12 -7 -40 11 -56 14 -13 38 -17 93 -17 76 0 99 -9 99
-40 0 -31 -19 -42 -83 -50 -118 -14 -167 -54 -137 -109 10 -19 20 -21 122 -21
62 0 126 -5 145 -12 28 -10 36 -10 49 3 30 31 -8 44 -150 49 -81 3 -129 9
-127 15 2 6 47 18 100 28 53 10 101 24 107 30 6 7 16 27 22 45 9 27 9 40 -3
62 -19 36 -42 44 -130 45 -58 0 -70 3 -73 18 -3 17 -32 24 -45 10z"/>
<path d="M157 693 c-10 -21 -7 -403 3 -423 6 -12 28 -28 48 -37 36 -15 36 -15
-1 -49 -44 -42 -55 -75 -34 -108 20 -29 69 -50 102 -42 37 9 31 23 -20 47 -29
13 -45 28 -45 39 0 30 28 31 81 4 40 -20 54 -23 65 -13 19 16 3 34 -42 49 -34
12 -43 31 -25 59 8 12 18 13 47 5 46 -11 74 -59 74 -124 0 -51 19 -88 40 -75
17 11 8 116 -15 174 -21 51 -58 71 -132 71 -61 0 -95 9 -90 24 5 15 101 27
160 20 49 -6 49 -6 78 -71 16 -36 29 -76 29 -89 0 -23 24 -43 37 -31 3 4 -2
47 -12 96 -25 130 -33 136 -186 136 -106 -1 -135 4 -111 18 4 3 62 8 129 12
120 7 122 7 146 -17 13 -13 27 -42 31 -64 16 -89 26 -114 46 -114 16 0 20 7
20 35 0 65 -31 154 -64 182 -30 25 -32 25 -171 22 -140 -4 -140 -4 -143 64 -2
42 2 74 9 83 8 10 37 14 104 14 65 0 96 4 104 13 6 8 8 17 4 20 -3 4 -55 7
-115 7 -100 0 -108 1 -108 19 0 30 -11 51 -25 51 -8 0 -16 -3 -18 -7z"/>
</g>
</svg>
