<svg version="1.0" xmlns="http://www.w3.org/2000/svg"
 width="73.000000pt" height="93.000000pt" viewBox="0 0 73.000000 93.000000"
 preserveAspectRatio="xMidYMid meet">
<metadata>
Created by potrace 1.15, written by Peter Selinger 2001-2017
</metadata>
<g transform="translate(0.000000,93.000000) scale(0.100000,-0.100000)"
fill="#000000" stroke="none">
<path d="M340 745 c0 -9 12 -26 26 -38 26 -22 26 -22 5 -49 -42 -52 -14 -68
32 -18 47 49 55 39 32 -37 -11 -36 16 -28 44 12 31 45 45 35 38 -27 -7 -53 13
-112 41 -123 25 -9 25 2 2 50 -15 31 -20 54 -15 73 18 74 18 80 -7 96 -13 8
-53 24 -90 36 -37 11 -70 25 -73 30 -10 16 -35 12 -35 -5z"/>
<path d="M205 708 c20 -63 18 -74 -24 -122 -35 -40 -41 -54 -41 -92 0 -31 6
-50 20 -64 27 -27 44 -26 35 3 -17 53 -17 77 -3 77 8 0 23 -9 33 -20 10 -12
25 -18 32 -16 21 9 15 -7 -32 -81 -45 -70 -45 -70 -24 -152 18 -71 19 -89 9
-132 -20 -84 6 -81 34 4 20 60 20 104 1 151 -17 41 -8 46 30 14 24 -21 26 -30
28 -103 1 -44 -2 -92 -7 -107 -13 -45 8 -32 33 18 18 38 21 56 16 99 -6 48 -5
54 14 60 25 7 27 27 6 45 -23 19 -18 40 10 40 28 0 33 21 10 40 -8 6 -17 38
-21 71 -4 32 -13 64 -21 70 -21 18 -27 3 -13 -30 14 -35 6 -81 -15 -81 -21 0
-26 16 -14 44 9 20 9 32 1 51 -13 29 -32 33 -32 8 -1 -14 -6 -11 -25 12 -14
17 -25 36 -25 43 0 21 31 26 60 8 16 -9 33 -16 39 -16 22 0 10 29 -19 50 -24
17 -30 29 -30 59 0 41 -23 71 -54 71 -14 0 -17 -5 -11 -22z m90 -343 c17 -13
17 -17 4 -30 -16 -16 -59 -10 -59 9 0 12 20 36 30 36 3 0 14 -7 25 -15z"/>
<path d="M416 469 c21 -41 30 -130 15 -157 -6 -12 -14 -47 -17 -79 -6 -61 13
-115 49 -137 26 -17 31 1 8 30 -11 15 -21 40 -21 57 0 28 1 29 18 15 9 -9 27
-19 40 -23 12 -3 29 -21 37 -41 14 -33 39 -53 52 -40 4 3 0 18 -8 33 -11 20
-11 27 -1 30 18 7 15 21 -8 28 -25 8 -26 23 -2 41 16 13 16 15 -7 32 -24 19
-24 19 0 26 24 6 24 6 2 25 -44 37 -28 47 36 23 8 -3 12 1 9 14 -1 10 -14 21
-27 24 -15 3 -31 21 -44 50 -27 54 -52 67 -42 21 11 -49 -20 -40 -44 14 -14
33 -26 45 -41 45 -20 0 -20 -1 -4 -31z m92 -101 c17 -17 15 -28 -7 -28 -19 0
-35 23 -24 34 9 9 18 7 31 -6z m0 -75 c2 -8 -5 -13 -17 -13 -12 0 -21 6 -21
16 0 18 31 15 38 -3z m-2 -55 c9 -14 -2 -21 -25 -13 -28 8 -28 35 -1 28 11 -3
23 -10 26 -15z"/>
</g>
</svg>
