<svg version="1.0" xmlns="http://www.w3.org/2000/svg"
 width="97.000000pt" height="143.000000pt" viewBox="0 0 97.000000 143.000000"
 preserveAspectRatio="xMidYMid meet">
<metadata>
Created by potrace 1.15, written by Peter Selinger 2001-2017
</metadata>
<g transform="translate(0.000000,143.000000) scale(0.100000,-0.100000)"
fill="#000000" stroke="none">
<path d="M410 1300 c-25 -27 -50 -49 -55 -50 -7 0 -9 15 -7 36 4 32 -7 53 -28
54 -5 0 -21 -34 -34 -72 -3 -10 -12 -18 -20 -18 -8 0 -38 -13 -66 -30 -28 -16
-53 -30 -56 -30 -2 0 -16 -7 -30 -16 -18 -12 -22 -20 -14 -29 9 -11 17 -10 43
3 34 18 100 43 103 39 1 -1 4 -46 8 -99 6 -85 5 -98 -8 -98 -9 0 -16 -4 -16
-8 0 -4 -15 -16 -32 -27 -46 -26 -100 -85 -128 -140 -19 -37 -24 -60 -22 -108
2 -54 6 -65 30 -85 56 -46 72 -65 72 -81 0 -9 4 -21 9 -26 9 -11 31 -116 31
-152 0 -13 -17 -60 -39 -106 -46 -98 -62 -153 -55 -184 9 -34 31 -28 39 9 4
18 14 45 23 60 16 27 16 27 38 2 24 -25 64 -33 64 -11 0 7 -6 22 -14 33 -20
28 -31 110 -16 119 6 4 17 2 23 -4 16 -16 57 -14 57 3 0 8 -15 29 -34 47 -31
29 -35 38 -41 110 -4 44 -11 82 -16 85 -5 3 -9 13 -9 23 0 22 33 30 151 38 77
4 77 4 87 -26 14 -41 35 -48 77 -25 30 16 37 16 59 4 15 -7 26 -20 26 -28 0
-33 25 -82 41 -82 10 0 19 -10 22 -27 3 -16 12 -55 21 -88 8 -33 15 -90 16
-127 0 -69 9 -88 29 -64 18 21 16 173 -2 236 -9 30 -19 66 -23 79 -4 15 -2 26
7 31 16 11 2 59 -21 70 -8 5 -36 19 -62 31 -27 13 -48 27 -48 31 0 5 -7 8 -16
8 -9 0 -25 10 -35 21 -20 23 -33 24 -131 14 -66 -7 -69 -2 -44 70 17 48 30 53
148 54 80 1 89 -1 112 -24 17 -17 36 -25 60 -25 43 0 96 -55 96 -100 0 -21 10
-40 33 -63 26 -24 37 -47 46 -92 7 -33 17 -76 22 -96 5 -20 9 -48 9 -62 0 -35
18 -44 26 -12 8 31 -4 133 -19 160 -5 11 -10 59 -9 106 0 87 0 87 -29 101 -30
15 -129 122 -129 139 0 17 -43 48 -65 49 -11 0 -30 -7 -42 -15 -12 -9 -40 -15
-65 -14 -24 1 -75 -2 -114 -6 -72 -8 -72 -8 -77 41 -3 27 -8 63 -12 79 -7 33
-3 36 100 63 111 29 140 40 140 53 0 10 -16 15 -52 17 -50 3 -53 5 -53 30 0
35 -23 99 -43 123 -16 18 -15 21 3 54 20 36 27 75 12 75 -4 0 -27 -22 -52 -50z
m15 -141 c20 -24 25 -41 23 -68 -3 -33 -6 -36 -43 -44 -22 -4 -52 -10 -67 -14
-31 -6 -34 2 -29 86 4 54 17 70 58 71 23 0 38 -8 58 -31z m-126 -252 c7 -13
13 -43 14 -67 2 -43 2 -43 -53 -55 -104 -23 -140 -25 -140 -7 0 19 134 152
154 152 7 0 18 -10 25 -23z m11 -172 c0 -8 -10 -35 -22 -60 -22 -43 -24 -44
-71 -45 -56 0 -107 29 -107 61 0 15 7 19 32 19 30 0 53 5 123 28 42 14 45 14
45 -3z"/>
</g>
</svg>
