<svg version="1.0" xmlns="http://www.w3.org/2000/svg"
 width="69.000000pt" height="90.000000pt" viewBox="0 0 69.000000 90.000000"
 preserveAspectRatio="xMidYMid meet">
<metadata>
Created by potrace 1.15, written by Peter Selinger 2001-2017
</metadata>
<g transform="translate(0.000000,90.000000) scale(0.100000,-0.100000)"
fill="#000000" stroke="none">
<path d="M190 780 c0 -5 19 -19 42 -31 36 -18 40 -23 26 -33 -21 -15 -36 -80
-17 -74 8 2 23 19 34 36 16 25 27 31 55 31 52 1 132 -23 144 -41 15 -24 0 -33
-29 -18 -20 11 -28 11 -38 1 -19 -19 -12 -120 11 -172 19 -41 26 -47 72 -59
50 -14 50 -14 50 -77 0 -38 -4 -63 -11 -63 -13 0 -108 46 -134 66 -14 11 -21
30 -25 71 -7 79 -30 84 -30 6 0 -71 -14 -88 -103 -127 -71 -32 -79 -32 -75 -4
2 16 18 30 54 48 56 27 84 47 84 61 0 17 -31 9 -68 -16 -40 -27 -72 -33 -72
-12 0 6 26 24 58 39 68 32 88 63 97 157 7 63 7 63 -35 56 -44 -7 -113 -36
-141 -57 -13 -11 -17 -47 -23 -208 -4 -107 -12 -215 -17 -240 -21 -100 -22
-110 -11 -110 22 0 55 99 64 190 2 19 13 28 53 43 27 10 71 34 97 53 27 19 51
34 54 34 3 0 20 -11 38 -25 18 -13 57 -31 86 -38 55 -14 55 -14 72 -88 9 -41
17 -86 18 -100 0 -15 7 -32 15 -39 24 -20 27 8 10 90 -28 133 -30 244 -6 341
11 48 21 93 21 101 0 23 -33 48 -63 48 -33 0 -40 12 -25 45 19 42 3 49 -157
71 -27 4 -72 18 -100 31 -54 25 -75 29 -75 13z m344 -190 c28 -10 36 -47 12
-56 -16 -6 -126 41 -126 54 0 25 51 26 114 2z m-256 -27 c2 -16 -6 -24 -38
-37 -96 -38 -108 -2 -15 47 36 19 49 17 53 -10z m255 -62 c15 -8 27 -21 27
-27 0 -19 -28 -36 -49 -29 -29 9 -84 63 -76 74 7 13 62 3 98 -18z m-273 -21
c-24 -34 -49 -50 -79 -50 -37 0 -23 29 27 54 65 34 78 33 52 -4z"/>
<path d="M422 388 c6 -17 67 -52 76 -44 8 8 -48 55 -66 56 -8 0 -12 -6 -10
-12z"/>
<path d="M279 235 c-31 -10 -49 -23 -57 -40 -30 -64 -5 -106 78 -129 50 -15
58 -15 100 1 25 9 51 21 59 27 36 28 37 117 1 136 -34 18 -132 21 -181 5z
m171 -40 c6 -15 6 -35 -1 -54 -10 -27 -15 -30 -72 -36 -34 -3 -70 -9 -79 -11
-23 -7 -58 34 -58 67 0 36 52 58 138 58 57 1 63 -1 72 -24z"/>
<path d="M338 167 c-35 -9 -45 -15 -39 -25 6 -10 20 -11 47 -7 62 11 74 15 74
31 0 16 -17 16 -82 1z"/>
</g>
</svg>
