<svg version="1.0" xmlns="http://www.w3.org/2000/svg"
 width="93.000000pt" height="161.000000pt" viewBox="0 0 93.000000 161.000000"
 preserveAspectRatio="xMidYMid meet">
<metadata>
Created by potrace 1.15, written by Peter Selinger 2001-2017
</metadata>
<g transform="translate(0.000000,161.000000) scale(0.100000,-0.100000)"
fill="#000000" stroke="none">
<path d="M526 1553 c-6 -14 -5 -15 5 -6 7 7 10 15 7 18 -3 3 -9 -2 -12 -12z"/>
<path d="M294 1549 c-6 -11 36 -79 49 -79 4 0 7 -7 7 -16 0 -8 5 -12 10 -9 6
3 10 -3 10 -14 0 -16 -6 -21 -24 -21 -37 0 -76 -18 -76 -34 0 -21 34 -29 112
-29 39 1 71 -4 77 -10 18 -22 34 -142 32 -246 -1 -98 -29 -253 -50 -274 -4 -4
-13 12 -20 35 -7 24 -17 53 -22 66 -5 13 -9 60 -9 106 0 78 -1 83 -25 94 -13
6 -26 8 -29 4 -2 -4 -40 -9 -83 -10 -87 -2 -135 -15 -179 -50 -29 -24 -29 -24
-26 -216 3 -158 1 -203 -13 -250 -13 -45 -15 -64 -6 -83 6 -13 16 -21 21 -18
15 9 37 65 45 114 8 49 35 71 103 82 134 23 186 29 193 22 7 -7 -35 -81 -102
-180 -15 -21 -47 -60 -73 -87 -25 -28 -46 -51 -46 -53 0 -2 9 -3 21 -3 27 0
99 60 135 113 16 23 31 44 34 47 3 3 17 21 30 40 13 19 25 37 27 39 4 5 43
-40 43 -49 0 -4 16 -25 35 -46 19 -22 35 -41 35 -44 0 -14 100 -81 129 -86 47
-10 40 19 -13 55 -24 17 -56 45 -70 63 -14 18 -30 38 -35 44 -24 30 -71 130
-71 151 0 60 68 71 172 28 35 -15 70 -29 80 -32 9 -3 19 -17 23 -31 6 -24 37
-74 60 -97 15 -16 94 -39 102 -31 4 4 -16 29 -44 55 -61 56 -83 117 -64 172 6
18 11 49 11 70 0 21 5 41 10 44 27 16 3 125 -37 171 -29 34 -111 69 -205 89
-25 5 -28 10 -28 48 0 23 -9 73 -19 111 -18 63 -26 75 -97 147 -76 77 -127
109 -140 88z m371 -472 c61 -17 85 -50 85 -113 0 -42 8 -42 -115 4 -80 29 -80
29 -80 79 0 51 0 51 35 46 19 -2 53 -9 75 -16z m-335 -70 c0 -53 0 -53 -62
-66 -35 -7 -71 -17 -80 -22 -10 -5 -34 -9 -54 -9 -37 0 -37 0 -32 50 8 83 29
96 161 99 67 1 67 1 67 -52z m330 -94 c74 -24 90 -38 90 -82 0 -39 -22 -72
-35 -51 -3 5 -16 10 -29 10 -12 0 -26 3 -30 7 -3 4 -35 16 -69 28 -60 20 -62
22 -61 53 4 69 19 73 134 35z m-303 -74 c14 -59 11 -69 -22 -69 -13 0 -50 -6
-82 -14 -32 -8 -77 -18 -100 -21 -43 -7 -43 -7 -43 40 0 25 6 52 13 59 7 7 41
20 76 29 35 9 66 19 69 22 3 3 22 5 41 5 35 0 37 -1 48 -51z"/>
<path d="M776 304 c-14 -13 -50 -15 -248 -14 -128 1 -284 3 -346 6 -63 2 -118
2 -123 -1 -5 -4 -5 -13 0 -23 17 -31 51 -112 51 -119 0 -5 15 -23 32 -42 20
-22 28 -36 20 -39 -7 -2 -12 -8 -12 -14 0 -6 6 -6 15 2 12 10 22 9 49 -4 51
-24 119 -37 235 -43 200 -10 324 42 380 163 18 38 31 118 20 127 -16 15 -59
15 -73 1z m-19 -77 c17 -18 -37 -117 -64 -117 -6 0 -25 -8 -44 -17 -44 -23
-262 -31 -323 -13 -104 31 -156 69 -156 114 0 9 -4 16 -10 16 -17 0 -11 18 8
23 24 6 583 0 589 -6z"/>
</g>
</svg>
