<svg version="1.0" xmlns="http://www.w3.org/2000/svg"
 width="43.000000pt" height="87.000000pt" viewBox="0 0 43.000000 87.000000"
 preserveAspectRatio="xMidYMid meet">
<metadata>
Created by potrace 1.15, written by Peter Selinger 2001-2017
</metadata>
<g transform="translate(0.000000,87.000000) scale(0.100000,-0.100000)"
fill="#000000" stroke="none">
<path d="M281 736 c-9 -11 -9 -20 -2 -34 19 -36 16 -87 -8 -121 -13 -17 -28
-30 -35 -28 -6 2 -31 37 -56 77 -25 40 -50 75 -56 77 -20 7 -25 -28 -9 -59 13
-27 13 -34 -5 -71 -37 -75 -18 -104 26 -39 21 30 22 30 38 13 9 -10 16 -25 16
-35 0 -17 -17 -56 -29 -66 -13 -11 -31 -51 -31 -70 0 -12 7 -35 16 -52 20 -39
14 -110 -15 -161 -23 -41 -11 -60 19 -32 34 31 62 105 56 147 -3 21 -9 55 -12
77 -5 31 -1 47 22 82 36 56 101 129 108 121 18 -17 -16 -112 -49 -134 -5 -4
-10 -47 -11 -95 -1 -80 -12 -162 -30 -220 -5 -17 -2 -23 9 -23 36 0 100 207
77 249 -15 29 -12 62 6 76 21 15 44 80 44 125 0 19 -14 73 -30 120 -16 47 -30
86 -30 88 0 7 -19 0 -29 -12z"/>
</g>
</svg>
