<svg version="1.0" xmlns="http://www.w3.org/2000/svg"
 width="39.000000pt" height="65.000000pt" viewBox="0 0 39.000000 65.000000"
 preserveAspectRatio="xMidYMid meet">
<metadata>
Created by potrace 1.15, written by Peter Selinger 2001-2017
</metadata>
<g transform="translate(0.000000,65.000000) scale(0.100000,-0.100000)"
fill="#000000" stroke="none">
<path d="M210 461 c0 -6 4 -11 9 -11 5 0 16 -15 24 -32 16 -32 15 -34 -6 -50
-30 -24 -34 -23 -54 20 -33 71 -66 83 -45 16 10 -34 9 -37 -24 -66 -19 -17
-34 -34 -34 -39 0 -13 44 -11 57 2 8 8 11 -7 12 -56 0 -75 26 -155 48 -155 10
0 13 6 9 16 -3 9 -8 52 -11 97 -6 90 1 109 47 120 26 7 26 7 27 -68 1 -90 8
-125 27 -125 11 0 14 19 12 87 -1 49 0 107 1 131 3 36 -2 50 -26 80 -29 35
-73 55 -73 33z"/>
</g>
</svg>
