<svg version="1.0" xmlns="http://www.w3.org/2000/svg"
 width="55.000000pt" height="71.000000pt" viewBox="0 0 55.000000 71.000000"
 preserveAspectRatio="xMidYMid meet">
<metadata>
Created by potrace 1.15, written by Peter Selinger 2001-2017
</metadata>
<g transform="translate(0.000000,71.000000) scale(0.100000,-0.100000)"
fill="#000000" stroke="none">
<path d="M206 532 c-4 -10 -22 -45 -41 -77 -43 -71 -44 -95 -6 -118 26 -15 48
-58 37 -75 -10 -17 -10 -176 1 -179 13 -5 21 13 39 87 22 90 18 131 -16 170
-33 40 -36 55 -15 76 13 14 18 12 41 -15 14 -17 34 -31 44 -31 11 0 25 -14 35
-36 15 -32 16 -47 6 -123 -6 -47 -13 -96 -17 -108 -10 -35 13 -28 32 9 9 18
25 67 36 109 19 81 16 112 -16 138 -14 12 -23 51 -12 51 3 0 25 -21 50 -47 70
-74 80 -26 11 54 -31 37 -35 47 -29 78 5 29 3 35 -11 35 -9 0 -19 -9 -22 -20
-3 -11 -9 -20 -14 -20 -5 0 -9 -9 -9 -20 0 -11 -4 -20 -9 -20 -5 0 -11 -10
-14 -21 -5 -19 -8 -20 -20 -7 -27 26 -45 73 -40 101 4 22 2 27 -15 27 -11 0
-23 -8 -26 -18z"/>
</g>
</svg>
