<svg version="1.0" xmlns="http://www.w3.org/2000/svg"
 width="69.000000pt" height="87.000000pt" viewBox="0 0 69.000000 87.000000"
 preserveAspectRatio="xMidYMid meet">
<metadata>
Created by potrace 1.15, written by Peter Selinger 2001-2017
</metadata>
<g transform="translate(0.000000,87.000000) scale(0.100000,-0.100000)"
fill="#000000" stroke="none">
<path d="M160 693 c0 -22 24 -33 73 -33 20 0 27 -5 27 -20 0 -18 -7 -20 -59
-20 -41 0 -62 -5 -71 -15 -21 -26 0 -34 95 -37 76 -3 90 -6 93 -20 3 -13 -12
-24 -53 -43 -57 -25 -57 -25 -82 -5 -52 41 -82 13 -34 -32 17 -16 31 -33 31
-39 0 -5 -19 -8 -42 -7 -58 4 -59 -22 -1 -40 60 -19 62 -38 5 -47 -57 -8 -63
-12 -55 -30 3 -10 20 -15 54 -15 45 0 49 -2 55 -27 3 -16 8 -36 10 -45 3 -10
-3 -30 -14 -45 -57 -84 -72 -111 -72 -131 0 -38 27 -24 65 33 20 30 40 55 45
55 4 0 16 -20 25 -44 17 -43 37 -62 56 -50 13 8 11 31 -5 57 -21 33 -70 187
-62 195 4 3 32 7 63 7 54 0 56 -1 75 -37 17 -33 18 -42 7 -75 -8 -21 -19 -47
-26 -58 -20 -30 -16 -55 7 -55 14 0 27 14 42 45 12 25 26 45 31 45 5 0 27 -16
49 -36 39 -34 67 -41 75 -17 3 7 -21 36 -52 64 -49 46 -95 105 -95 122 0 3 21
9 48 12 68 10 82 15 82 31 0 11 -17 14 -80 14 -71 0 -80 2 -80 19 0 13 14 24
45 35 48 19 62 33 48 47 -6 6 -28 3 -57 -7 -52 -18 -51 -18 -60 14 -6 19 -4
22 19 22 27 0 99 33 110 50 3 5 1 19 -5 30 -10 18 -8 20 24 20 39 0 54 14 36
34 -8 10 -27 13 -70 9 -51 -5 -60 -3 -60 10 0 15 14 21 65 29 12 2 20 11 20
23 0 15 -8 21 -33 23 -40 4 -102 -38 -102 -69 0 -14 -7 -19 -30 -19 -26 0 -30
3 -30 29 0 39 -19 52 -90 58 -55 5 -60 4 -60 -14z m295 -123 c8 -14 -40 -42
-67 -38 -31 4 -36 35 -6 41 42 8 67 7 73 -3z m-122 -152 c2 -29 3 -56 0 -60
-2 -5 -26 -8 -54 -8 -47 0 -49 1 -49 28 0 57 21 78 91 91 4 0 9 -23 12 -51z"/>
</g>
</svg>
