<svg version="1.0" xmlns="http://www.w3.org/2000/svg"
 width="103.000000pt" height="155.000000pt" viewBox="0 0 103.000000 155.000000"
 preserveAspectRatio="xMidYMid meet">
<metadata>
Created by potrace 1.15, written by Peter Selinger 2001-2017
</metadata>
<g transform="translate(0.000000,155.000000) scale(0.100000,-0.100000)"
fill="#000000" stroke="none">
<path d="M276 1393 c-3 -3 -3 -17 0 -32 5 -27 -5 -44 -73 -122 -41 -45 -47
-93 -8 -56 7 6 34 31 59 55 25 23 49 42 54 42 13 0 112 -171 112 -192 0 -15
-10 -18 -62 -18 -80 0 -105 -7 -111 -31 -7 -28 9 -34 96 -33 77 2 77 2 77 -27
0 -36 -22 -48 -93 -50 -30 -1 -67 -7 -83 -14 -29 -12 -29 -12 8 -29 27 -13 55
-17 105 -14 68 3 68 3 71 -75 2 -78 15 -117 56 -179 17 -27 17 -27 -61 -51
-75 -24 -78 -26 -75 -54 2 -16 -2 -42 -8 -58 -11 -29 -11 -29 -83 43 -76 76
-98 87 -95 50 0 -13 -11 -58 -26 -100 -27 -81 -35 -163 -14 -156 6 2 16 13 22
24 6 10 13 21 16 24 11 10 30 62 30 80 0 36 19 30 73 -22 55 -53 55 -53 35
-128 -25 -96 -25 -102 -11 -107 12 -4 63 84 63 109 0 19 48 39 68 28 10 -4 43
-18 75 -31 59 -22 59 -22 53 -63 -18 -113 -18 -136 -3 -136 20 0 47 70 47 121
0 41 0 41 81 36 44 -3 85 -9 89 -13 5 -5 4 -38 -2 -76 -9 -51 -9 -73 0 -93 22
-47 36 -24 46 73 9 92 9 92 88 92 43 0 78 4 78 9 0 18 -28 30 -80 33 -55 3
-55 3 -58 67 -2 35 1 67 5 71 4 4 35 2 68 -5 61 -13 88 -10 83 7 -2 6 -19 15
-38 22 -93 32 -100 38 -100 83 0 44 -17 93 -32 93 -14 0 -26 -40 -27 -92 -1
-28 -1 -28 -83 15 -81 43 -103 68 -63 75 18 4 65 44 65 57 0 11 -48 4 -100
-15 -55 -20 -55 -20 -78 7 -31 38 -25 54 31 83 44 23 47 27 45 60 -3 30 -6 35
-26 33 -12 -2 -36 -13 -52 -25 -45 -33 -61 -8 -46 75 2 16 6 31 9 33 2 3 33 7
68 10 78 6 92 11 87 27 -3 7 -33 14 -84 17 -62 4 -79 8 -82 21 -6 34 25 49
103 49 81 0 105 6 105 25 0 18 -33 25 -119 25 -74 0 -74 0 -67 32 6 32 32 68
48 68 5 0 24 15 42 33 42 40 74 67 82 67 3 0 18 -12 32 -28 34 -34 82 -72 93
-72 22 0 6 39 -31 75 -30 30 -40 47 -42 78 -2 22 -8 42 -13 44 -6 2 -49 -34
-97 -79 -101 -97 -137 -128 -147 -128 -11 0 -34 33 -71 103 -19 37 -38 67 -42
67 -5 0 -8 6 -8 13 0 24 -60 64 -74 50z m303 -873 c37 -31 37 -15 -1 -172 -9
-38 -31 -50 -54 -30 -5 5 -25 15 -44 22 -84 31 -90 34 -90 59 0 37 40 111 64
121 30 11 80 28 86 29 3 0 20 -13 39 -29z m153 -83 c21 -7 40 -16 44 -19 3 -3
2 -38 -2 -77 -8 -81 -8 -81 -103 -59 -51 11 -51 11 -45 62 12 106 28 120 106
93z"/>
</g>
</svg>
