<svg version="1.0" xmlns="http://www.w3.org/2000/svg"
 width="103.000000pt" height="217.000000pt" viewBox="0 0 103.000000 217.000000"
 preserveAspectRatio="xMidYMid meet">
<metadata>
Created by potrace 1.15, written by Peter Selinger 2001-2017
</metadata>
<g transform="translate(0.000000,217.000000) scale(0.100000,-0.100000)"
fill="#000000" stroke="none">
<path d="M675 2063 c-22 -25 -47 -55 -55 -67 -36 -52 -99 -106 -125 -106 -27
0 -106 72 -164 150 -30 40 -41 50 -58 50 -19 0 -16 -14 12 -46 30 -34 32 -61
7 -83 -23 -20 -132 -150 -132 -156 0 -3 5 -5 11 -5 10 0 25 14 107 103 27 29
52 47 66 47 14 0 44 -22 80 -60 58 -60 58 -60 60 -133 1 -72 1 -72 -179 -77
-187 -5 -223 -12 -190 -37 22 -15 77 -17 91 -3 7 7 62 10 145 8 134 -3 134 -3
134 -68 0 -65 0 -65 -185 -71 -102 -3 -187 -6 -190 -7 -2 -1 1 -7 7 -13 7 -7
54 -11 128 -10 64 1 144 -1 176 -5 60 -7 60 -7 55 -43 -5 -32 -13 -261 -18
-522 -2 -103 6 -134 27 -105 9 12 20 15 39 10 34 -8 33 -16 -10 -49 -35 -26
-36 -27 -57 -8 -41 35 -106 108 -107 119 0 12 -49 59 -100 94 -19 13 -37 27
-40 31 -8 9 -47 29 -59 29 -21 0 -10 -19 44 -75 30 -32 55 -61 55 -66 0 -10
-63 -111 -82 -130 -19 -21 -97 -135 -104 -153 -4 -10 -1 -16 7 -16 8 0 34 30
59 68 24 37 66 91 92 120 26 30 48 58 48 63 0 23 32 4 89 -50 33 -32 61 -61
61 -65 0 -11 -147 -294 -169 -325 -18 -25 -19 -31 -7 -31 8 0 28 21 43 48 15
26 31 52 35 57 15 18 88 136 88 141 0 3 11 17 25 32 25 27 25 27 79 -31 53
-58 53 -58 32 -110 -43 -101 -61 -137 -68 -137 -5 0 -8 -5 -8 -10 0 -6 -9 -30
-20 -52 -22 -46 -26 -72 -9 -66 9 3 52 77 130 225 13 23 29 45 37 48 18 7 119
-83 121 -108 1 -9 -17 -56 -39 -103 -22 -47 -40 -90 -40 -94 0 -4 -13 -34 -30
-65 -16 -31 -30 -64 -30 -72 0 -29 23 -6 54 53 27 53 39 79 76 169 42 104 33
102 123 26 45 -39 96 -86 114 -105 32 -36 53 -46 53 -26 0 6 -9 20 -20 32 -11
12 -20 28 -20 35 0 7 -15 23 -34 35 -18 13 -59 46 -90 75 -62 58 -68 78 -36
130 18 31 18 63 -1 63 -5 0 -18 -20 -29 -44 -11 -25 -24 -47 -29 -50 -10 -7
-70 39 -96 73 -18 24 -18 24 16 54 19 16 62 55 96 87 59 55 64 58 103 53 43
-6 51 2 23 23 -17 12 -16 15 10 37 31 28 38 70 10 60 -10 -4 -20 -9 -23 -12
-3 -3 -23 -19 -46 -34 -38 -26 -44 -27 -85 -16 -24 6 -59 13 -76 16 -18 3 -33
11 -33 18 0 7 21 31 47 52 28 24 43 44 39 51 -14 23 -41 11 -94 -38 -45 -42
-57 -49 -80 -44 -15 4 -31 11 -37 15 -15 15 -32 95 -24 117 4 11 8 91 9 178 1
88 3 179 5 204 2 25 4 59 4 76 1 32 1 32 79 38 199 17 213 19 209 30 -2 7 -49
10 -139 9 -156 -2 -153 -4 -142 84 6 53 6 53 155 53 126 0 149 2 149 15 0 8
-3 15 -7 15 -5 0 -72 1 -150 1 -143 1 -143 1 -143 83 0 78 1 84 30 111 17 16
30 33 30 37 0 11 46 58 57 58 9 0 52 -35 112 -87 20 -18 45 -33 56 -32 15 0 0
19 -58 73 -78 74 -78 74 -62 105 8 17 20 31 25 31 6 0 10 11 10 25 0 35 -9 31
-55 -22z m18 -1289 c37 -9 67 -21 67 -26 0 -9 -65 -75 -113 -115 -31 -26 -57
-30 -57 -9 0 7 -10 21 -22 30 -69 47 -68 42 -13 91 28 24 55 45 60 45 6 0 40
-7 78 -16z"/>
<path d="M837 1513 c-13 -12 -7 -23 12 -23 26 0 35 16 15 24 -19 7 -19 7 -27
-1z"/>
</g>
</svg>
