<svg version="1.0" xmlns="http://www.w3.org/2000/svg"
 width="111.000000pt" height="127.000000pt" viewBox="0 0 111.000000 127.000000"
 preserveAspectRatio="xMidYMid meet">
<metadata>
Created by potrace 1.15, written by Peter Selinger 2001-2017
</metadata>
<g transform="translate(0.000000,127.000000) scale(0.100000,-0.100000)"
fill="#000000" stroke="none">
<path d="M215 1153 c-9 -23 -19 -131 -19 -214 1 -64 0 -65 -22 -55 -12 6 -32
30 -43 53 -11 24 -28 43 -36 43 -8 0 -15 -2 -15 -4 0 -14 37 -104 70 -171 39
-79 43 -104 41 -215 -1 -39 -7 -51 -49 -95 -66 -69 -116 -145 -94 -145 4 0 32
23 62 50 30 27 61 50 68 50 8 0 13 -17 14 -47 0 -27 2 -59 4 -73 1 -14 5 -77
9 -140 6 -110 9 -129 20 -118 8 8 19 156 19 270 1 106 1 106 34 71 17 -20 32
-41 32 -48 0 -8 4 -15 8 -17 4 -1 23 -33 42 -70 25 -51 39 -68 54 -68 15 0 17
3 8 12 -7 7 -12 19 -12 28 0 20 -73 164 -91 180 -3 3 -19 26 -36 51 -31 44
-31 48 -32 164 -1 105 1 122 18 140 55 57 101 114 101 124 0 20 31 61 46 61
18 0 18 27 0 46 -25 24 -42 16 -66 -33 -26 -51 -87 -119 -98 -108 -4 4 -7 70
-7 147 0 96 -4 142 -11 145 -6 2 -15 -4 -19 -14z"/>
<path d="M842 1138 c-8 -8 -12 -58 -12 -160 0 -118 -3 -148 -14 -148 -23 0
-61 46 -102 125 -39 75 -73 103 -59 48 13 -52 97 -212 115 -218 9 -3 23 -17
30 -30 7 -14 17 -25 22 -25 13 0 9 -203 -4 -233 -7 -15 -16 -27 -20 -27 -5 0
-8 -6 -8 -12 -1 -7 -14 -29 -30 -48 -17 -19 -30 -40 -30 -46 0 -15 -25 -25
-47 -18 -15 5 -15 4 -3 -4 17 -13 5 -41 -41 -90 -34 -36 -36 -43 -10 -39 10 2
57 42 104 90 47 48 87 87 91 87 3 0 5 -21 4 -47 -2 -93 11 -283 21 -300 10
-17 11 -16 17 5 3 12 9 22 13 22 7 0 8 106 0 114 -2 3 -4 45 -2 93 1 48 2 98
3 111 0 33 25 27 70 -18 22 -22 45 -40 50 -40 6 0 10 -4 10 -10 0 -5 9 -10 20
-10 11 0 20 6 20 13 0 7 -9 18 -20 25 -11 7 -20 17 -20 24 0 16 -89 98 -107
98 -23 0 -31 40 -27 135 6 132 10 150 50 187 39 36 88 123 79 138 -7 12 -36
-15 -59 -55 -10 -16 -29 -38 -42 -48 -24 -18 -24 -18 -26 10 -1 15 -3 82 -4
148 -2 157 -3 165 -12 165 -4 0 -13 -5 -20 -12z"/>
<path d="M479 993 c-1 -5 -1 -11 0 -15 0 -4 1 -29 2 -57 2 -49 0 -52 -54 -107
-62 -62 -77 -102 -54 -138 12 -18 22 -22 46 -18 36 5 39 18 11 42 -25 22 -17
51 22 80 16 12 31 20 34 18 2 -2 6 -21 10 -42 3 -21 7 -47 9 -58 3 -11 4 -91
4 -177 0 -235 1 -246 21 -246 11 0 16 14 18 58 3 57 3 58 46 78 45 21 79 52
89 82 4 9 2 17 -3 17 -6 0 -10 6 -10 14 0 8 -9 18 -20 21 -11 3 -20 11 -20 16
0 5 -8 9 -18 9 -10 0 -30 6 -45 13 -26 12 -27 14 -21 72 4 33 8 62 10 64 1 1
-1 13 -6 26 -14 36 9 49 59 34 23 -7 42 -17 42 -23 3 -24 -4 -41 -17 -49 -17
-10 -18 -37 -1 -38 53 -5 77 13 77 57 0 38 -34 84 -61 84 -10 0 -21 5 -24 10
-3 6 -16 10 -29 10 -40 0 -60 24 -62 75 -4 72 -12 95 -34 95 -11 0 -21 -3 -21
-7z m129 -469 c12 -8 22 -22 22 -30 0 -18 -48 -64 -66 -64 -18 0 -19 81 -2 98
15 15 19 15 46 -4z"/>
<path d="M530 145 c0 -15 4 -24 10 -20 6 3 10 12 10 20 0 8 -4 17 -10 20 -6 4
-10 -5 -10 -20z"/>
</g>
</svg>
