<svg version="1.0" xmlns="http://www.w3.org/2000/svg"
 width="68.000000pt" height="95.000000pt" viewBox="0 0 68.000000 95.000000"
 preserveAspectRatio="xMidYMid meet">
<metadata>
Created by potrace 1.15, written by Peter Selinger 2001-2017
</metadata>
<g transform="translate(0.000000,95.000000) scale(0.100000,-0.100000)"
fill="#000000" stroke="none">
<path d="M153 746 c4 -13 45 -23 100 -25 37 -1 37 -1 37 -51 0 -48 -1 -50 -29
-50 -36 0 -110 -26 -133 -47 -23 -21 -23 -55 1 -84 16 -20 30 -24 95 -27 76
-4 76 -4 76 -48 0 -44 0 -44 -40 -44 -47 0 -124 -36 -159 -74 -24 -26 -22 -49
3 -31 52 39 72 48 127 61 68 16 79 11 79 -33 0 -12 5 -25 11 -29 15 -9 29 14
29 47 0 25 3 26 67 32 75 7 143 44 143 76 0 58 -41 81 -145 81 -75 0 -75 0
-75 44 0 44 0 44 54 48 74 6 126 44 126 93 0 56 -21 63 -208 68 -120 4 -162 2
-159 -7z m316 -50 c26 -31 -27 -66 -101 -66 -26 0 -28 3 -28 40 0 40 0 40 59
40 37 0 63 -5 70 -14z m-173 -130 c3 -13 4 -35 2 -47 -3 -22 -9 -24 -65 -27
-55 -3 -63 -1 -74 19 -10 20 -8 25 17 45 28 23 48 30 91 33 16 1 24 -6 29 -23z
m195 -106 c23 -13 25 -43 4 -60 -8 -7 -44 -15 -80 -18 -65 -5 -65 -5 -65 42 0
46 0 46 61 46 33 0 69 -5 80 -10z"/>
<path d="M386 684 c-4 -10 -2 -22 3 -27 14 -14 43 0 39 20 -4 24 -34 28 -42 7z"/>
<path d="M214 555 c-7 -18 3 -35 22 -35 20 0 30 30 13 41 -20 12 -29 11 -35
-6z"/>
<path d="M398 444 c-10 -9 3 -42 19 -48 18 -7 43 10 43 29 0 19 -48 34 -62 19z"/>
<path d="M250 283 c-8 -13 -23 -23 -33 -23 -25 0 -56 -17 -89 -48 -36 -33 -38
-84 -6 -106 27 -19 89 -21 107 -3 10 10 17 7 34 -14 30 -36 71 -55 135 -62 97
-11 114 15 21 32 -106 18 -134 52 -147 174 -7 68 -8 71 -22 50z m-20 -83 c0
-46 -3 -51 -27 -61 -33 -12 -57 -1 -61 29 -2 14 9 29 40 51 24 16 44 30 46 31
1 0 2 -23 2 -50z"/>
<path d="M379 293 c0 -5 0 -31 1 -58 1 -31 -6 -68 -19 -98 -22 -52 -13 -61 26
-25 17 16 36 22 77 22 43 1 60 6 80 25 55 51 20 111 -65 111 -54 0 -59 -14 -9
-25 31 -7 56 -38 45 -55 -3 -6 -24 -10 -46 -10 -36 0 -39 2 -39 29 0 41 -20
91 -36 91 -8 0 -14 -3 -15 -7z"/>
</g>
</svg>
