<svg version="1.0" xmlns="http://www.w3.org/2000/svg"
 width="67.000000pt" height="87.000000pt" viewBox="0 0 67.000000 87.000000"
 preserveAspectRatio="xMidYMid meet">
<metadata>
Created by potrace 1.15, written by Peter Selinger 2001-2017
</metadata>
<g transform="translate(0.000000,87.000000) scale(0.100000,-0.100000)"
fill="#000000" stroke="none">
<path d="M459 703 c0 -16 -8 -57 -18 -93 -16 -62 -19 -65 -46 -63 -63 5 -84
21 -90 72 -11 82 -14 91 -35 91 -18 0 -20 -7 -20 -66 0 -60 -3 -69 -27 -90
-52 -44 -73 -23 -73 73 0 34 -22 69 -38 59 -8 -5 1 -137 18 -261 6 -44 14
-111 18 -150 8 -70 32 -130 61 -152 17 -13 101 -18 101 -5 0 4 17 18 39 31 21
13 45 36 54 50 8 14 25 37 36 50 12 13 21 28 21 33 0 19 -24 5 -77 -47 -66
-64 -114 -83 -150 -60 -26 17 -28 23 -47 165 -14 105 -14 105 12 127 15 13 33
23 40 23 6 0 12 5 12 10 0 18 96 12 120 -8 22 -18 22 -18 -1 -57 -13 -22 -31
-49 -41 -59 -10 -11 -18 -32 -18 -47 0 -28 0 -28 29 -11 16 9 42 38 58 64 15
26 33 48 38 48 6 0 35 -37 65 -83 66 -99 69 -130 23 -198 -40 -58 -52 -99 -29
-99 9 0 24 10 34 21 9 12 22 27 29 34 26 28 53 87 52 118 0 18 -10 52 -22 77
-26 54 -78 143 -88 150 -21 16 -36 67 -27 90 6 14 16 52 23 85 11 51 11 63 -1
83 -20 30 -34 28 -35 -5z"/>
</g>
</svg>
