<svg version="1.0" xmlns="http://www.w3.org/2000/svg"
 width="77.000000pt" height="125.000000pt" viewBox="0 0 77.000000 125.000000"
 preserveAspectRatio="xMidYMid meet">
<metadata>
Created by potrace 1.15, written by Peter Selinger 2001-2017
</metadata>
<g transform="translate(0.000000,125.000000) scale(0.100000,-0.100000)"
fill="#000000" stroke="none">
<path d="M121 1097 c-7 -10 -11 -120 -12 -359 0 -329 1 -347 20 -389 49 -103
119 -147 259 -162 76 -9 38 31 -52 52 -85 21 -140 58 -151 104 -7 27 -7 27 98
27 97 0 106 2 104 19 -1 17 -12 19 -104 23 -66 3 -108 10 -118 18 -15 13 -17
46 -14 325 1 170 1 320 1 333 -2 25 -14 28 -31 9z"/>
<path d="M335 1003 c4 -60 10 -184 14 -278 6 -168 6 -170 29 -173 13 -2 28 0
35 5 7 5 32 15 57 22 70 20 90 30 90 42 0 12 -8 11 -108 -10 -23 -4 -45 -5
-47 0 -3 4 -5 29 -5 56 0 26 0 55 1 63 0 62 -14 236 -23 285 -13 68 -24 95
-40 95 -8 0 -9 -30 -3 -107z"/>
<path d="M590 998 c0 -29 9 -123 20 -208 26 -202 27 -308 3 -317 -10 -3 -47
-26 -82 -51 -55 -39 -62 -47 -45 -53 25 -9 75 0 95 17 40 35 61 6 38 -53 -19
-47 -34 -78 -39 -83 -3 -3 -17 -21 -30 -40 -13 -19 -45 -54 -70 -77 -45 -43
-45 -43 -16 -43 18 0 40 10 55 25 14 13 50 45 79 71 28 25 52 51 52 58 0 6 9
22 20 36 25 32 27 162 4 340 -20 148 -32 251 -40 340 -6 63 -17 90 -35 90 -5
0 -9 -24 -9 -52z"/>
</g>
</svg>
