<svg version="1.0" xmlns="http://www.w3.org/2000/svg"
 width="71.000000pt" height="88.000000pt" viewBox="0 0 71.000000 88.000000"
 preserveAspectRatio="xMidYMid meet">
<metadata>
Created by potrace 1.15, written by Peter Selinger 2001-2017
</metadata>
<g transform="translate(0.000000,88.000000) scale(0.100000,-0.100000)"
fill="#000000" stroke="none">
<path d="M472 798 c-7 -7 -12 -20 -12 -30 0 -10 -19 -28 -45 -44 -25 -14 -45
-32 -45 -40 0 -18 21 -18 46 1 29 22 42 18 46 -12 4 -34 16 -32 24 3 8 37 25
39 83 10 57 -29 74 -32 69 -12 -2 8 -32 30 -68 49 -39 21 -66 42 -68 53 -6 28
-16 36 -30 22z"/>
<path d="M164 756 c-3 -14 -29 -40 -60 -61 -30 -21 -54 -44 -54 -51 0 -19 5
-18 55 12 50 29 65 25 65 -17 0 -19 5 -29 15 -29 11 0 15 11 15 40 0 45 5 47
55 23 25 -12 38 -14 46 -6 7 7 -3 18 -35 37 -26 15 -53 38 -62 51 -20 31 -32
32 -40 1z"/>
<path d="M235 618 c-2 -7 -5 -26 -7 -42 -4 -42 -22 -42 -47 0 -12 20 -25 33
-29 29 -4 -3 -5 -46 -4 -95 4 -81 2 -92 -27 -151 -39 -80 -33 -89 61 -89 70 0
70 0 63 -42 -9 -51 -43 -123 -81 -167 -31 -37 -22 -60 14 -35 23 16 102 131
102 148 0 6 7 30 16 53 16 40 19 43 56 43 22 0 40 -5 42 -12 2 -7 9 -39 16
-71 9 -43 23 -72 54 -110 47 -57 83 -76 71 -35 -4 12 -11 25 -15 28 -21 15
-70 140 -70 181 0 25 3 27 72 35 39 5 73 14 75 21 5 14 -105 27 -187 21 -60
-4 -60 -4 -60 34 0 37 1 38 35 38 32 0 35 -2 35 -30 0 -42 26 -39 34 4 9 47
42 55 64 15 28 -47 35 -34 28 48 -3 42 -6 103 -6 135 0 61 -12 70 -30 22 -13
-33 -39 -30 -51 6 -13 37 -36 39 -45 4 -8 -32 -47 -30 -52 4 -5 32 -28 27 -41
-8 -6 -19 -17 -30 -29 -30 -14 0 -21 9 -25 30 -7 30 -24 40 -32 18z m173 -126
c3 -39 1 -42 -22 -42 -23 0 -26 4 -26 33 0 34 17 60 35 54 5 -2 11 -22 13 -45z
m-88 -3 c0 -36 -2 -40 -22 -37 -40 5 -37 78 2 78 17 0 20 -6 20 -41z m178 9
c2 -19 -3 -30 -17 -38 -20 -10 -21 -8 -21 30 0 34 3 41 18 38 10 -2 18 -14 20
-30z m-268 -14 c0 -8 -7 -14 -15 -14 -15 0 -21 21 -9 33 10 9 24 -2 24 -19z
m-11 -68 c7 -8 11 -34 9 -58 -3 -43 -3 -43 -45 -46 -42 -3 -42 -3 -24 40 10
24 21 51 24 61 8 21 21 22 36 3z m101 -56 c0 -39 -1 -40 -34 -40 -33 0 -33 0
-23 40 9 32 16 40 34 40 20 0 23 -5 23 -40z"/>
</g>
</svg>
