<svg version="1.0" xmlns="http://www.w3.org/2000/svg"
 width="79.000000pt" height="123.000000pt" viewBox="0 0 79.000000 123.000000"
 preserveAspectRatio="xMidYMid meet">
<metadata>
Created by potrace 1.15, written by Peter Selinger 2001-2017
</metadata>
<g transform="translate(0.000000,123.000000) scale(0.100000,-0.100000)"
fill="#000000" stroke="none">
<path d="M241 1216 c-12 -14 -11 -109 3 -302 7 -92 7 -92 -31 -96 -21 -3 -41
-4 -44 -2 -3 2 -9 37 -13 79 -4 41 -13 89 -21 107 -14 33 -14 33 -29 -2 -11
-28 -15 -89 -16 -285 -2 -363 -3 -343 21 -350 31 -10 40 5 44 78 4 74 11 93
28 79 7 -5 25 -7 41 -5 29 4 29 4 23 -44 -3 -26 -2 -64 2 -83 6 -30 11 -35 36
-35 30 0 30 0 30 82 -1 82 -1 82 47 81 48 0 48 0 48 -56 1 -60 16 -92 44 -92
16 0 16 3 21 112 2 38 7 41 54 33 41 -7 41 -7 41 -75 0 -55 3 -69 17 -74 21
-9 43 18 44 53 3 102 4 106 24 109 32 5 80 30 97 49 33 39 29 127 -10 170 -19
21 -63 40 -102 45 -24 3 -25 6 -32 108 -17 258 -23 290 -57 290 -19 0 -22 -39
-11 -140 14 -143 13 -250 -2 -250 -47 1 -55 11 -62 76 -6 62 -23 114 -36 114
-20 0 -30 -31 -30 -97 0 -73 0 -73 -45 -73 -61 0 -65 13 -66 203 -1 84 -4 163
-8 177 -8 29 -33 37 -50 16z m0 -458 c0 -2 3 -40 6 -85 5 -81 5 -82 -20 -88
-56 -14 -62 -7 -62 80 0 76 1 79 25 86 27 8 50 10 51 7z m163 -4 c13 -5 16
-23 16 -90 0 -73 -2 -84 -17 -86 -89 -7 -95 -1 -86 100 6 72 10 78 55 81 9 0
23 -2 32 -5z m146 -21 c7 -6 13 -131 7 -147 -4 -10 -15 -12 -38 -7 -32 6 -32
6 -31 86 1 44 1 81 2 83 0 3 54 -10 60 -15z m117 -9 c28 -8 41 -71 21 -110
-14 -29 -43 -52 -53 -43 -3 4 -8 41 -11 83 -6 81 -4 83 43 70z"/>
<path d="M272 259 c-58 -8 -68 -20 -38 -49 22 -19 29 -21 53 -12 15 6 72 11
126 11 103 1 117 4 117 25 0 32 -124 44 -258 25z"/>
<path d="M130 95 c-11 -13 -11 -18 2 -31 13 -13 41 -16 154 -15 325 3 371 6
388 20 37 31 0 36 -268 39 -232 3 -264 2 -276 -13z"/>
</g>
</svg>
