<svg version="1.0" xmlns="http://www.w3.org/2000/svg"
 width="99.000000pt" height="147.000000pt" viewBox="0 0 99.000000 147.000000"
 preserveAspectRatio="xMidYMid meet">
<metadata>
Created by potrace 1.15, written by Peter Selinger 2001-2017
</metadata>
<g transform="translate(0.000000,147.000000) scale(0.100000,-0.100000)"
fill="#000000" stroke="none">
<path d="M326 1288 c-5 -24 -16 -246 -16 -330 0 -48 0 -48 -50 -48 -50 0 -50
0 -50 120 0 100 -3 122 -15 127 -9 3 -17 4 -19 2 -2 -2 -7 -49 -10 -104 -9
-132 -13 -145 -41 -145 -31 0 -55 -10 -55 -22 0 -16 32 -37 57 -38 26 0 30 -9
25 -61 -4 -39 -4 -39 -51 -34 -88 9 -84 -30 7 -54 40 -11 42 -13 42 -51 0 -33
3 -40 20 -40 14 0 22 11 31 40 11 38 14 40 51 40 38 0 38 0 38 -39 0 -44 25
-75 41 -50 5 8 9 25 9 39 0 41 13 52 56 48 36 -3 40 -6 48 -40 6 -25 15 -38
26 -38 17 0 40 38 40 64 0 14 21 26 46 26 9 0 14 -11 14 -34 0 -18 7 -39 15
-46 23 -19 45 5 45 51 0 29 4 39 15 39 30 0 73 30 89 60 12 24 12 37 4 63 -13
37 -22 46 -60 66 -26 14 -28 18 -27 80 1 36 6 89 11 116 9 52 -7 185 -23 185
-19 0 -27 -43 -33 -175 -10 -197 -9 -195 -57 -195 -39 0 -39 0 -39 55 0 58
-16 105 -36 105 -18 0 -24 -24 -24 -91 0 -60 0 -60 -42 -57 -43 3 -43 3 -41
48 7 162 6 298 0 318 -5 12 -15 22 -22 22 -8 0 -17 -10 -19 -22z m-22 -485
c-8 -60 -10 -63 -39 -63 -47 0 -55 9 -55 61 0 49 0 49 51 49 50 0 50 0 43 -47z
m141 -4 c-6 -62 -10 -69 -40 -69 -44 0 -55 10 -55 50 0 61 7 70 56 70 44 0 44
0 39 -51z m129 4 c-8 -57 -5 -52 -35 -55 -22 -3 -24 1 -27 41 -4 47 6 61 46
61 22 0 23 -3 16 -47z m118 14 c18 -29 7 -45 -37 -53 -23 -4 -25 -2 -25 37 0
40 1 41 27 34 15 -3 31 -12 35 -18z"/>
<path d="M774 677 c-2 -7 2 -27 11 -43 17 -33 19 -72 5 -94 -8 -12 -15 -9 -44
19 -22 21 -41 31 -50 28 -23 -9 -20 -33 9 -61 53 -53 17 -71 -117 -60 -74 7
-78 6 -78 -13 0 -38 24 -46 135 -45 58 0 105 0 105 -1 0 -28 24 -184 33 -217
13 -50 76 -120 106 -120 10 0 22 -8 25 -17 5 -11 10 -13 17 -6 7 7 3 29 -11
69 -20 55 -33 96 -62 199 -6 22 -17 59 -24 81 -14 45 -10 73 18 119 21 35 23
64 6 102 -27 60 -72 92 -84 60z"/>
<path d="M138 493 c-26 -6 -22 -32 6 -42 27 -11 165 -14 214 -5 23 5 32 12 32
25 0 16 -8 19 -47 20 -27 0 -79 2 -118 3 -38 2 -78 1 -87 -1z"/>
<path d="M160 361 c-36 -5 -46 -10 -48 -28 -3 -19 2 -22 35 -25 21 -2 87 -1
148 2 92 4 110 8 113 22 2 12 -7 18 -35 22 -72 10 -168 14 -213 7z"/>
</g>
</svg>
