<svg version="1.0" xmlns="http://www.w3.org/2000/svg"
 width="66.000000pt" height="84.000000pt" viewBox="0 0 66.000000 84.000000"
 preserveAspectRatio="xMidYMid meet">
<metadata>
Created by potrace 1.15, written by Peter Selinger 2001-2017
</metadata>
<g transform="translate(0.000000,84.000000) scale(0.100000,-0.100000)"
fill="#000000" stroke="none">
<path d="M270 594 c-19 -8 -37 -17 -40 -20 -3 -3 -7 -42 -10 -87 -5 -82 -5
-82 -46 -85 -41 -3 -41 -3 -50 50 -7 44 -13 54 -31 56 -32 5 -36 -21 -31 -215
4 -214 7 -218 125 -249 49 -13 72 -13 178 0 68 7 136 20 151 27 53 25 68 76
72 242 5 181 -1 219 -31 215 -19 -3 -22 -10 -25 -55 -3 -53 -3 -53 -41 -53
-43 0 -51 12 -51 87 0 55 -7 71 -41 88 -36 19 -84 18 -129 -1z m118 -115 c3
-74 -1 -79 -80 -79 -38 0 -38 0 -31 63 7 78 16 89 67 85 41 -3 41 -3 44 -69z
m0 -165 c3 -41 3 -41 -49 -48 -61 -8 -72 -1 -67 45 3 30 7 35 38 40 66 12 75
8 78 -37z m126 40 c10 -4 16 -18 16 -40 0 -33 -1 -34 -39 -34 -47 0 -53 7 -45
49 7 32 29 40 68 25z m-296 -52 c3 -43 3 -43 -45 -40 -44 3 -48 5 -51 31 -6
49 3 58 50 55 43 -3 43 -3 46 -46z m170 -141 c4 -63 -4 -71 -65 -71 -43 0 -43
0 -43 59 0 60 0 60 33 64 69 9 72 7 75 -52z m142 26 c0 -43 -17 -65 -57 -73
-33 -6 -33 -6 -33 38 0 53 13 68 57 68 31 0 33 -2 33 -33z m-306 -8 c3 -17 6
-45 6 -62 0 -29 -1 -29 -42 -23 -54 9 -55 10 -63 57 -8 48 1 59 56 59 33 0 37
-3 43 -31z"/>
</g>
</svg>
