<svg version="1.0" xmlns="http://www.w3.org/2000/svg"
 width="121.000000pt" height="157.000000pt" viewBox="0 0 121.000000 157.000000"
 preserveAspectRatio="xMidYMid meet">
<metadata>
Created by potrace 1.15, written by Peter Selinger 2001-2017
</metadata>
<g transform="translate(0.000000,157.000000) scale(0.100000,-0.100000)"
fill="#000000" stroke="none">
<path d="M756 1378 c-3 -7 -6 -39 -9 -71 -2 -36 -9 -62 -18 -68 -8 -4 -37 -7
-66 -6 -52 2 -52 2 -64 60 -19 85 -49 74 -49 -19 0 -44 0 -44 -69 -44 -78 0
-79 0 -85 84 -4 55 -10 64 -31 46 -10 -8 -15 -31 -15 -71 0 -58 0 -58 -37 -68
-60 -17 -63 -15 -63 32 0 53 -23 121 -43 125 -12 2 -16 -15 -22 -86 -7 -88 -7
-88 -56 -107 -62 -24 -91 -50 -107 -96 -16 -46 -15 -69 3 -105 21 -43 57 -74
91 -78 69 -10 67 -6 62 -146 -4 -90 -2 -133 7 -150 12 -23 12 -23 29 10 9 18
16 54 16 80 0 26 3 75 6 109 7 61 7 61 65 61 59 0 59 0 59 -53 0 -30 3 -56 6
-60 3 -3 6 -62 6 -131 0 -83 4 -128 11 -134 7 -4 62 -5 122 0 61 4 184 10 274
13 169 6 236 19 236 45 0 12 -13 15 -55 15 -30 0 -66 -3 -80 -7 -14 -4 -31 -4
-38 1 -17 10 -30 325 -13 335 6 4 35 10 64 13 52 5 52 5 65 -58 17 -80 24 -93
52 -97 22 -4 22 -2 18 85 -3 88 -3 88 37 91 74 4 105 13 105 27 0 19 -33 26
-98 22 -29 -2 -55 -1 -57 3 -2 3 -5 52 -7 108 -3 111 1 122 51 122 31 0 91 21
91 32 0 4 -33 8 -74 8 -83 0 -86 3 -86 75 0 50 -21 75 -45 55 -10 -8 -15 -31
-15 -70 0 -57 0 -57 -37 -64 -78 -12 -78 -13 -94 66 -13 66 -33 97 -43 66z
m-8 -304 c3 -111 3 -111 -29 -118 -17 -3 -49 -6 -70 -6 -39 0 -39 0 -39 108 0
108 0 108 38 119 20 6 51 10 67 9 30 -1 30 -1 33 -112z m195 9 c3 -60 4 -109
4 -110 -1 -1 -29 -3 -62 -5 -67 -3 -61 -18 -68 160 -2 62 -2 62 59 62 61 0 61
0 67 -107z m-387 -5 c-2 -51 -4 -101 -5 -110 -1 -15 -11 -18 -60 -18 -70 0
-69 -3 -69 122 0 98 -3 95 85 97 52 1 52 1 49 -91z m-203 16 c17 -135 16 -144
-8 -150 -12 -3 -39 -4 -61 -2 -39 3 -39 3 -41 73 -1 39 1 84 3 102 4 28 9 32
42 36 56 5 56 5 65 -59z m-170 -34 c4 -44 4 -87 1 -95 -8 -19 -44 -19 -72 1
-49 34 -16 174 42 174 22 0 23 -5 29 -80z m576 -225 c6 -85 6 -263 0 -269 -8
-8 -304 -10 -317 -2 -6 4 -11 56 -11 140 0 74 -1 138 -2 143 -5 28 4 33 60 33
59 0 59 0 64 -77 7 -107 10 -126 24 -130 17 -6 33 62 33 145 0 73 0 73 73 70
72 -3 72 -3 76 -53z"/>
<path d="M757 363 c-13 -12 -7 -49 13 -91 11 -22 20 -46 20 -52 0 -17 57 -96
105 -146 49 -52 91 -61 81 -18 -4 15 -14 33 -22 41 -33 33 -66 84 -104 159
-53 107 -72 129 -93 107z"/>
<path d="M442 348 c-5 -7 -29 -49 -52 -93 -24 -44 -51 -92 -61 -107 -11 -14
-19 -32 -19 -38 0 -7 -13 -26 -30 -42 -33 -31 -39 -58 -14 -58 17 0 90 76 142
149 47 64 84 145 80 173 -3 26 -30 35 -46 16z"/>
</g>
</svg>
