<svg version="1.0" xmlns="http://www.w3.org/2000/svg"
 width="73.000000pt" height="120.000000pt" viewBox="0 0 73.000000 120.000000"
 preserveAspectRatio="xMidYMid meet">
<metadata>
Created by potrace 1.15, written by Peter Selinger 2001-2017
</metadata>
<g transform="translate(0.000000,120.000000) scale(0.100000,-0.100000)"
fill="#000000" stroke="none">
<path d="M325 1094 c-60 -51 -115 -105 -115 -113 0 -15 26 -40 60 -58 49 -27
61 -56 53 -137 -6 -67 -6 -67 -62 -60 -31 3 -58 9 -61 11 -7 6 62 62 78 63 13
0 16 29 4 46 -15 22 -129 94 -149 94 -27 0 -113 -96 -113 -126 0 -17 12 -30
40 -46 24 -14 43 -33 47 -48 7 -28 7 -265 0 -383 -5 -74 -18 -146 -38 -213
-16 -52 -12 -94 9 -94 45 0 69 122 81 400 6 154 6 154 59 153 108 -2 102 0
102 -33 0 -24 -7 -35 -31 -48 -81 -45 -117 -95 -95 -136 35 -64 48 -76 82 -74
44 3 47 -3 21 -34 -12 -15 -30 -36 -39 -47 -25 -30 -22 -53 9 -82 82 -72 132
-66 189 25 16 25 39 50 51 57 13 7 23 21 23 31 0 14 -8 18 -32 18 -28 0 -42
-10 -87 -60 -54 -60 -76 -71 -99 -48 -23 23 -13 55 24 79 20 12 48 33 62 45
14 13 29 24 34 24 5 0 6 5 3 10 -6 10 5 13 42 10 13 -1 27 7 35 19 30 48 37
29 54 -154 14 -151 17 -165 35 -170 10 -4 23 -3 29 0 13 8 13 80 0 168 -6 37
-12 114 -15 172 -4 88 -3 107 10 111 20 8 19 21 -5 51 -16 21 -18 29 -8 41 7
8 13 26 14 41 1 14 3 26 4 26 3 0 10 50 10 79 1 22 28 66 52 84 19 14 25 72 8
72 -5 0 -27 17 -49 39 -57 56 -80 59 -124 14 -20 -20 -39 -44 -42 -54 -4 -11
-11 -19 -16 -19 -23 0 -6 -46 29 -77 20 -19 29 -32 20 -29 -10 3 -20 1 -23 -4
-9 -14 -71 -12 -83 3 -6 6 -12 41 -13 77 -3 62 -2 66 25 78 40 20 96 77 96
100 0 10 -13 31 -30 45 -16 15 -30 32 -30 37 0 6 -6 10 -13 10 -8 0 -22 9 -32
20 -24 27 -54 25 -90 -6z m73 -63 c12 -11 22 -26 22 -35 0 -9 6 -16 13 -16 22
-1 -37 -40 -60 -40 -26 0 -73 37 -73 57 0 8 8 17 18 20 9 4 23 13 30 20 17 17
22 16 50 -6z m-226 -188 c26 -25 27 -28 11 -45 -22 -24 -42 -23 -78 6 -30 24
-30 24 -6 45 31 27 39 26 73 -6z m458 -24 c0 -4 -11 -19 -23 -33 -24 -26 -40
-26 -30 0 3 9 -2 14 -16 14 -28 0 -27 27 1 51 21 19 22 19 45 -3 13 -12 23
-25 23 -29z m-201 -148 c38 -3 66 -11 69 -18 3 -10 -34 -13 -162 -13 -158 0
-186 5 -171 30 7 11 160 12 264 1z m109 -119 c-5 -45 -19 -53 -67 -36 -23 8
-53 11 -66 8 -22 -6 -25 -3 -25 24 0 30 0 30 81 30 80 1 80 1 77 -26z m-90
-79 c24 -18 32 -32 32 -54 0 -29 -1 -30 -32 -24 -18 4 -34 11 -36 15 -2 5 -11
18 -21 29 -16 18 -17 26 -8 45 12 26 15 26 65 -11z m-105 -35 c2 -13 7 -30 11
-38 9 -23 -66 -45 -94 -28 -29 18 -25 44 10 60 17 7 30 16 30 20 0 19 38 6 43
-14z"/>
</g>
</svg>
