<svg version="1.0" xmlns="http://www.w3.org/2000/svg"
 width="68.000000pt" height="82.000000pt" viewBox="0 0 68.000000 82.000000"
 preserveAspectRatio="xMidYMid meet">
<metadata>
Created by potrace 1.15, written by Peter Selinger 2001-2017
</metadata>
<g transform="translate(0.000000,82.000000) scale(0.100000,-0.100000)"
fill="#000000" stroke="none">
<path d="M377 618 c-99 -21 -96 -115 4 -130 38 -5 31 -39 -13 -60 -42 -20 -65
-49 -74 -95 -5 -25 -2 -34 17 -47 13 -9 36 -16 52 -16 41 0 43 -24 7 -80 -17
-27 -30 -59 -28 -71 8 -54 152 -83 212 -44 36 24 60 78 46 104 -14 28 -69 71
-89 71 -31 0 -32 -13 -5 -41 52 -54 8 -118 -63 -93 -38 13 -42 52 -8 84 14 13
25 34 25 46 0 20 6 24 51 30 40 5 55 13 74 38 31 41 32 55 12 94 -20 36 -51
52 -103 52 -54 0 -43 26 14 34 82 11 118 74 66 115 -30 23 -109 27 -197 9z
m127 -34 c9 -3 16 -14 16 -24 0 -20 -36 -30 -111 -30 -51 0 -68 12 -49 35 15
18 112 31 144 19z m35 -196 c12 -32 2 -57 -25 -64 -38 -10 -54 2 -54 39 0 41
5 47 42 47 20 0 31 -6 37 -22z m-119 -32 c0 -24 -19 -37 -46 -34 -23 2 -29 8
-29 28 0 34 44 57 63 33 6 -9 12 -22 12 -27z"/>
<path d="M128 610 c-55 -10 -71 -17 -62 -32 4 -5 33 -8 68 -6 61 3 61 3 61
-27 0 -29 -2 -30 -51 -35 -67 -7 -84 -22 -84 -75 0 -56 18 -70 89 -70 56 0 56
0 63 -55 9 -76 9 -205 1 -214 -11 -11 -33 74 -33 131 0 45 -4 55 -25 69 -33
22 -55 15 -82 -25 -19 -28 -23 -46 -22 -105 2 -100 10 -131 34 -131 19 0 20 6
16 103 -3 97 -2 102 17 102 25 0 32 -18 32 -78 0 -26 5 -64 11 -84 9 -35 13
-38 44 -38 26 0 39 6 51 25 15 22 16 44 10 158 -4 75 -14 146 -22 165 -14 35
-14 35 -73 28 -54 -6 -60 -5 -66 14 -10 31 -1 37 65 43 78 7 90 17 90 78 0 69
-20 78 -132 59z"/>
</g>
</svg>
