<svg version="1.0" xmlns="http://www.w3.org/2000/svg"
 width="68.000000pt" height="88.000000pt" viewBox="0 0 68.000000 88.000000"
 preserveAspectRatio="xMidYMid meet">
<metadata>
Created by potrace 1.15, written by Peter Selinger 2001-2017
</metadata>
<g transform="translate(0.000000,88.000000) scale(0.100000,-0.100000)"
fill="#000000" stroke="none">
<path d="M173 683 c-7 -2 -13 -22 -13 -43 0 -35 -3 -39 -30 -45 -87 -19 -93
-155 -7 -155 33 0 17 -43 -20 -52 -65 -17 -56 -100 15 -133 23 -11 42 -25 42
-32 0 -7 -18 -17 -40 -23 -46 -12 -60 -36 -60 -98 0 -45 13 -67 34 -59 11 4
16 19 16 45 0 42 21 79 38 68 7 -4 12 -33 12 -67 0 -42 4 -59 13 -59 25 0 37
25 37 76 0 90 39 85 41 -5 1 -36 6 -54 16 -58 22 -9 33 15 33 72 0 63 -20 95
-61 95 -40 0 -41 35 -1 45 52 13 72 33 72 73 0 46 -14 62 -56 62 -17 0 -42 8
-55 18 -22 19 -22 19 23 30 37 10 49 18 62 46 10 21 14 45 10 60 -7 30 -40 66
-59 66 -10 0 -15 11 -15 34 0 22 -6 36 -16 40 -9 3 -16 6 -17 5 -1 0 -8 -3
-14 -6z m64 -149 c11 -28 -11 -49 -56 -52 -46 -3 -71 10 -71 38 0 23 13 28 73
29 35 1 49 -3 54 -15z m12 -183 c19 -12 7 -39 -24 -51 -41 -15 -101 -12 -116
6 -11 14 -10 19 10 35 25 20 104 26 130 10z"/>
<path d="M495 603 c-16 -1 -58 -6 -92 -9 -53 -5 -63 -9 -63 -24 0 -15 9 -19
48 -22 43 -3 47 -5 47 -28 0 -21 -6 -26 -39 -31 -49 -8 -57 -21 -54 -94 2 -48
7 -60 21 -63 11 -2 17 3 17 15 0 10 5 35 11 56 8 30 15 37 34 37 22 0 25 -4
25 -40 0 -42 5 -46 75 -52 30 -3 30 -3 33 -160 2 -125 5 -158 16 -158 34 0 41
31 39 166 -3 174 -17 204 -94 204 -27 0 -30 3 -27 28 3 24 9 28 56 37 80 16
105 63 61 119 -21 26 -35 29 -114 19z m85 -53 c0 -19 -40 -50 -65 -50 -20 0
-25 5 -25 24 0 13 6 27 13 29 22 10 77 7 77 -3z"/>
<path d="M385 253 c-22 -6 -36 -23 -29 -35 7 -11 106 -10 123 1 8 5 11 16 8
25 -6 16 -56 20 -102 9z"/>
<path d="M395 141 c-61 -9 -54 -35 11 -39 57 -3 108 12 102 31 -5 14 -54 18
-113 8z"/>
</g>
</svg>
