<svg version="1.0" xmlns="http://www.w3.org/2000/svg"
 width="81.000000pt" height="167.000000pt" viewBox="0 0 81.000000 167.000000"
 preserveAspectRatio="xMidYMid meet">
<metadata>
Created by potrace 1.15, written by Peter Selinger 2001-2017
</metadata>
<g transform="translate(0.000000,167.000000) scale(0.100000,-0.100000)"
fill="#000000" stroke="none">
<path d="M405 1559 c-4 -5 -7 -80 -7 -166 0 -86 -4 -167 -9 -180 -8 -21 -14
-23 -78 -23 -106 0 -101 -6 -101 129 0 64 -4 121 -8 127 -13 20 -48 25 -62 9
-13 -15 -12 -97 5 -375 3 -52 7 -171 9 -265 2 -93 7 -178 11 -187 11 -27 45
-23 46 5 1 12 2 29 3 37 2 8 3 47 4 86 2 71 2 71 75 77 130 9 123 18 116 -141
-4 -75 -7 -138 -8 -139 -6 -13 -77 -75 -100 -89 -17 -10 -31 -22 -31 -26 0 -4
-7 -8 -16 -8 -19 0 -43 28 -44 51 0 8 -26 42 -58 74 -57 59 -57 59 -60 25 -2
-25 9 -60 38 -119 41 -85 41 -85 -14 -134 -52 -46 -70 -77 -45 -77 5 0 37 14
69 31 53 29 60 31 74 16 9 -8 16 -19 16 -23 0 -7 77 -114 90 -124 3 -3 17 -21
30 -40 29 -43 67 -80 82 -80 25 0 -39 162 -84 214 -10 11 -18 26 -18 33 0 7
-4 13 -9 13 -5 0 -14 14 -22 31 -12 30 -11 33 12 50 33 26 77 69 120 118 29
33 38 52 43 99 11 87 15 367 7 457 -4 52 -3 83 4 87 16 12 25 9 25 -8 0 -10 6
-13 19 -9 21 6 81 -44 81 -69 0 -9 4 -16 9 -16 5 0 11 -8 14 -17 4 -10 13 -36
21 -58 24 -63 18 -141 -14 -165 -13 -10 -40 -55 -40 -67 0 -16 28 -17 61 -1
31 15 89 99 89 130 0 39 -30 169 -46 202 -9 17 -29 43 -46 58 -34 31 -32 51 8
104 13 17 24 34 24 38 0 4 9 16 20 28 11 12 20 28 20 35 0 7 4 13 8 13 13 0
32 71 32 118 0 31 -5 45 -22 56 -28 20 -32 15 -47 -59 -15 -67 -44 -134 -72
-164 -11 -11 -19 -25 -19 -32 0 -20 -54 -59 -82 -59 -59 0 -58 -3 -58 186 0
161 -1 174 -19 184 -25 13 -38 13 -46 -1z m-12 -428 c4 -4 11 -53 15 -110 9
-121 7 -124 -104 -135 -85 -8 -98 1 -88 60 4 22 6 44 6 49 -1 6 -4 33 -7 60
-7 59 1 74 46 85 36 9 119 3 132 -9z"/>
<path d="M603 596 c-7 -8 -22 -36 -35 -63 -20 -41 -23 -63 -23 -158 1 -99 3
-116 28 -167 31 -63 41 -74 80 -83 35 -9 35 5 2 68 -23 42 -26 61 -27 160 -1
70 3 120 10 134 16 30 15 91 -2 109 -17 17 -18 17 -33 0z"/>
</g>
</svg>
