<svg version="1.0" xmlns="http://www.w3.org/2000/svg"
 width="51.000000pt" height="83.000000pt" viewBox="0 0 51.000000 83.000000"
 preserveAspectRatio="xMidYMid meet">
<metadata>
Created by potrace 1.15, written by Peter Selinger 2001-2017
</metadata>
<g transform="translate(0.000000,83.000000) scale(0.100000,-0.100000)"
fill="#000000" stroke="none">
<path d="M295 590 c-3 -11 -4 -39 -1 -62 3 -24 8 -71 11 -105 3 -39 11 -70 22
-84 27 -32 67 -69 75 -69 15 0 8 35 -12 60 -20 26 -27 60 -12 60 5 0 17 -18
27 -40 10 -22 25 -40 33 -40 10 0 12 5 7 18 -4 9 -11 33 -15 53 -3 19 -10 41
-14 47 -8 13 -17 91 -17 150 0 36 -23 45 -32 12 -3 -11 -10 -20 -15 -20 -6 0
-14 9 -17 20 -8 26 -32 26 -40 0z m70 -122 c4 -23 3 -38 -3 -38 -9 0 -22 45
-22 78 0 28 18 -1 25 -40z"/>
<path d="M196 555 c-3 -9 -6 -51 -6 -93 -1 -47 -6 -87 -15 -102 -14 -24 -14
-24 -9 15 3 22 7 48 9 58 6 31 -21 18 -33 -16 -16 -46 -15 -93 4 -122 12 -18
14 -37 9 -80 -5 -37 -3 -65 6 -87 11 -27 14 -29 20 -12 4 10 8 41 8 67 1 48 1
48 38 45 29 -2 39 -8 41 -23 6 -37 25 -76 33 -68 4 4 4 28 -2 52 -14 62 -14
128 0 145 8 10 9 16 1 21 -5 3 -10 19 -10 35 0 37 -9 60 -25 60 -9 0 -11 -15
-7 -52 5 -48 3 -52 -11 -40 -13 11 -17 36 -19 110 -2 59 -7 97 -14 99 -6 2
-14 -3 -18 -12z m42 -271 c-13 -28 -23 -31 -32 -8 -16 43 6 78 31 47 9 -11 9
-21 1 -39z"/>
</g>
</svg>
