<svg version="1.0" xmlns="http://www.w3.org/2000/svg"
 width="87.000000pt" height="93.000000pt" viewBox="0 0 87.000000 93.000000"
 preserveAspectRatio="xMidYMid meet">
<metadata>
Created by potrace 1.15, written by Peter Selinger 2001-2017
</metadata>
<g transform="translate(0.000000,93.000000) scale(0.100000,-0.100000)"
fill="#000000" stroke="none">
<path d="M597 854 c-4 -4 -7 -28 -7 -54 0 -25 -5 -51 -11 -57 -14 -14 -14
-149 0 -186 6 -16 11 -42 11 -58 0 -16 3 -29 8 -29 20 0 57 152 48 198 -4 15
-8 58 -11 96 -4 65 -22 106 -38 90z"/>
<path d="M299 833 c-1 -10 -2 -31 -4 -48 -1 -16 -3 -58 -4 -92 -1 -63 -1 -63
-45 -63 -50 0 -48 -3 -67 96 -9 50 -16 64 -35 73 -20 9 -26 8 -30 -4 -4 -8 -2
-21 4 -28 24 -29 38 -321 19 -404 -7 -28 -15 -55 -19 -58 -11 -11 10 -45 28
-45 8 0 19 11 24 25 7 20 16 25 42 25 54 0 64 -13 39 -48 -11 -17 -21 -33 -21
-37 0 -12 -127 -135 -139 -135 -17 0 -13 -20 5 -27 23 -8 110 36 153 77 25 24
42 53 51 86 7 27 17 54 22 60 5 7 9 25 9 40 1 16 5 99 10 184 15 259 14 298
-6 320 -22 25 -35 25 -36 3z m-21 -272 c8 -4 12 -19 10 -32 -6 -47 -88 -31
-88 17 0 20 55 30 78 15z m-8 -161 c0 -31 -4 -40 -17 -41 -10 0 -28 -2 -40 -5
-20 -3 -22 -1 -17 29 9 53 12 57 44 57 28 0 30 -2 30 -40z"/>
<path d="M670 435 c0 -54 -3 -65 -16 -65 -9 0 -22 7 -29 17 -11 15 -14 15 -36
0 -41 -30 -49 -23 -47 40 2 46 0 58 -13 61 -13 2 -18 -7 -23 -40 -4 -24 -11
-50 -16 -58 -9 -15 -13 -14 -82 15 -37 15 -18 -25 23 -47 33 -19 39 -27 36
-48 -8 -42 -48 -183 -58 -201 -6 -11 -5 -20 1 -24 15 -9 27 2 57 53 15 26 33
50 39 55 18 11 44 66 44 94 0 22 3 23 66 23 38 0 63 -4 59 -9 -3 -5 -1 -12 5
-16 5 -3 10 -17 10 -31 0 -31 33 -101 65 -138 14 -16 25 -33 25 -38 0 -4 6 -8
14 -8 22 0 20 113 -4 178 -27 70 -25 84 10 110 23 18 30 30 30 57 0 19 -2 35
-5 35 -3 0 -18 -14 -35 -32 -33 -34 -40 -33 -44 8 -3 26 -46 74 -67 74 -5 0
-9 -29 -9 -65z"/>
</g>
</svg>
