<svg version="1.0" xmlns="http://www.w3.org/2000/svg"
 width="61.000000pt" height="103.000000pt" viewBox="0 0 61.000000 103.000000"
 preserveAspectRatio="xMidYMid meet">
<metadata>
Created by potrace 1.15, written by Peter Selinger 2001-2017
</metadata>
<g transform="translate(0.000000,103.000000) scale(0.100000,-0.100000)"
fill="#000000" stroke="none">
<path d="M446 718 c-7 -50 -43 -108 -68 -108 -4 0 -8 31 -8 69 0 50 -4 70 -14
74 -8 3 -17 3 -20 0 -3 -4 -6 -60 -6 -125 0 -72 -4 -118 -10 -118 -5 0 -10 7
-10 15 0 8 -9 19 -21 25 -19 11 -21 9 -18 -22 3 -51 0 -70 -11 -63 -6 4 -10
57 -10 126 0 95 -3 119 -14 119 -20 0 -26 -23 -26 -98 -1 -60 -14 -102 -34
-102 -3 0 -6 18 -6 40 0 52 -12 51 -28 -2 -12 -43 -25 -340 -15 -365 11 -28
21 -10 27 52 8 80 14 95 32 88 19 -7 19 36 -1 63 -12 18 -12 26 -2 48 17 36
27 33 27 -9 0 -37 8 -43 28 -23 9 9 12 7 12 -10 0 -12 -4 -22 -9 -22 -13 0
-21 -27 -14 -46 3 -9 13 -14 24 -11 20 5 29 -17 29 -80 0 -44 13 -64 24 -37
10 25 7 124 -4 145 -8 14 -6 34 6 75 9 30 17 54 19 52 1 -2 5 -40 8 -86 3 -46
8 -86 12 -90 8 -8 25 18 25 41 0 9 6 17 13 17 7 0 23 9 35 20 12 11 25 20 30
20 13 0 22 -35 22 -85 0 -40 0 -40 20 -15 16 20 19 34 15 70 -3 25 -8 122 -11
215 -5 155 -12 195 -34 195 -4 0 -11 -24 -14 -52z m4 -149 c0 -20 -10 -41 -30
-62 -16 -18 -30 -35 -30 -39 0 -5 -4 -8 -10 -8 -5 0 -10 18 -10 40 0 32 7 47
33 74 37 38 47 37 47 -5z m0 -109 c0 -23 -4 -30 -20 -30 -11 0 -20 -4 -20 -10
0 -5 -4 -10 -10 -10 -5 0 -10 4 -10 9 0 10 48 71 56 71 2 0 4 -13 4 -30z"/>
</g>
</svg>
