<svg version="1.0" xmlns="http://www.w3.org/2000/svg"
 width="105.000000pt" height="129.000000pt" viewBox="0 0 105.000000 129.000000"
 preserveAspectRatio="xMidYMid meet">
<metadata>
Created by potrace 1.15, written by Peter Selinger 2001-2017
</metadata>
<g transform="translate(0.000000,129.000000) scale(0.100000,-0.100000)"
fill="#000000" stroke="none">
<path d="M674 1105 c-4 -9 -4 -40 -1 -70 4 -37 1 -59 -8 -72 -26 -33 -16 -149
14 -173 4 -3 12 -27 19 -55 15 -57 17 -60 33 -50 7 5 9 22 6 49 -5 31 -1 47
13 66 29 37 27 107 -4 143 -17 20 -27 46 -31 85 -3 32 -7 63 -8 71 -3 21 -26
25 -33 6z"/>
<path d="M54 965 c-4 -9 -3 -44 0 -78 4 -34 10 -149 14 -255 8 -217 11 -226
69 -191 21 13 41 18 55 14 56 -16 78 -28 78 -46 0 -10 4 -20 9 -23 9 -6 -10
-76 -21 -76 -5 0 -8 -7 -8 -15 0 -33 -116 -125 -157 -125 -25 0 -29 -10 -11
-28 24 -24 81 -14 132 23 47 33 96 92 96 114 0 6 5 11 10 11 6 0 10 11 10 23
0 13 3 27 7 31 4 3 7 14 8 24 27 276 27 284 14 345 -7 34 -13 96 -13 137 0 78
-10 102 -43 101 -34 -1 -118 -10 -149 -16 -22 -4 -35 -1 -44 10 -24 29 -50 38
-56 20z m202 -73 c14 -9 28 -162 15 -162 -10 0 -35 10 -99 37 -18 8 -36 21
-39 29 -8 22 16 71 40 80 12 4 31 10 42 14 27 11 28 11 41 2z m-31 -214 c53
-14 73 -48 82 -135 5 -45 3 -55 -8 -50 -8 3 -39 13 -70 23 -70 22 -99 59 -99
127 0 43 2 47 25 47 14 0 45 -5 70 -12z"/>
<path d="M994 718 c6 -54 -12 -182 -29 -205 -20 -27 -31 -8 -44 77 -21 130
-63 136 -54 9 5 -64 4 -69 -14 -69 -22 0 -43 37 -43 74 0 27 -45 80 -60 71
-17 -11 1 -117 30 -175 15 -32 40 -64 58 -75 17 -11 34 -27 37 -35 4 -8 10
-84 14 -167 4 -84 11 -156 14 -160 24 -24 36 73 30 239 -5 138 -5 138 19 147
13 5 30 17 38 26 32 38 52 223 30 266 -18 33 -31 22 -26 -23z"/>
<path d="M544 659 c-4 -7 -9 -43 -12 -80 -2 -38 -8 -69 -12 -69 -4 0 -18 25
-31 55 -13 30 -27 55 -30 55 -17 0 -27 -87 -16 -136 13 -57 30 -82 64 -95 35
-13 41 -41 42 -195 1 -106 5 -142 16 -153 8 -8 18 -12 22 -8 4 4 6 79 4 165
-2 158 -2 158 37 202 54 63 59 75 63 160 3 61 1 75 -11 75 -8 0 -19 -13 -24
-30 -16 -54 -42 -100 -58 -103 -20 -4 -28 26 -28 106 0 58 -10 77 -26 51z"/>
</g>
</svg>
