<svg version="1.0" xmlns="http://www.w3.org/2000/svg"
 width="83.000000pt" height="105.000000pt" viewBox="0 0 83.000000 105.000000"
 preserveAspectRatio="xMidYMid meet">
<metadata>
Created by potrace 1.15, written by Peter Selinger 2001-2017
</metadata>
<g transform="translate(0.000000,105.000000) scale(0.100000,-0.100000)"
fill="#000000" stroke="none">
<path d="M255 858 c-7 -51 -9 -54 -60 -85 -29 -18 -55 -33 -58 -33 -3 0 -8 11
-11 25 -10 40 -36 31 -37 -12 -2 -95 3 -429 7 -435 10 -16 34 -8 34 11 0 38
23 40 73 8 26 -18 47 -36 47 -42 0 -11 -63 -89 -97 -119 -50 -44 -3 -65 51
-23 61 46 102 95 114 136 23 74 -2 575 -30 608 -19 23 -26 14 -33 -39z m2
-195 c6 -38 10 -69 9 -70 -2 -3 -43 -5 -77 -4 -35 1 -37 3 -42 39 -5 41 6 62
32 62 10 0 26 9 37 19 10 11 22 20 25 20 3 1 10 -29 16 -66z m-3 -139 c13 -5
16 -22 16 -85 0 -43 -2 -79 -5 -79 -11 0 -115 70 -116 77 -4 44 -5 70 -1 81 4
13 78 17 106 6z"/>
<path d="M536 759 c-2 -8 -9 -32 -15 -54 -7 -22 -13 -63 -14 -90 -2 -28 -6
-55 -10 -61 -6 -11 13 -87 26 -100 4 -4 7 -16 7 -26 0 -10 3 -18 6 -18 13 0
36 32 45 62 11 40 10 196 -2 204 -5 3 -9 20 -9 38 0 36 -26 70 -34 45z"/>
<path d="M388 336 c1 -39 8 -81 14 -93 8 -16 7 -37 -5 -82 -15 -61 -15 -61 7
-61 31 0 46 19 46 56 0 36 13 44 70 44 21 0 42 5 45 10 10 16 -21 40 -49 40
-31 0 -33 10 -6 30 24 17 26 36 4 48 -23 13 -52 4 -59 -19 -10 -31 -25 -21
-25 17 0 39 -13 69 -32 77 -10 3 -12 -12 -10 -67z"/>
<path d="M730 358 c-1 -13 -7 -34 -14 -46 -13 -24 -13 -24 -30 2 -17 27 -46
35 -46 14 0 -7 7 -26 15 -42 8 -15 15 -33 15 -38 0 -17 -43 -49 -57 -44 -18 7
-25 -10 -9 -23 11 -9 19 -9 36 1 28 17 37 2 46 -75 4 -31 10 -57 14 -57 11 0
28 48 34 95 3 22 10 65 16 95 22 111 23 122 9 131 -22 14 -29 11 -29 -13z"/>
</g>
</svg>
