<svg version="1.0" xmlns="http://www.w3.org/2000/svg"
 width="125.000000pt" height="139.000000pt" viewBox="0 0 125.000000 139.000000"
 preserveAspectRatio="xMidYMid meet">
<metadata>
Created by potrace 1.15, written by Peter Selinger 2001-2017
</metadata>
<g transform="translate(0.000000,139.000000) scale(0.100000,-0.100000)"
fill="#000000" stroke="none">
<path d="M905 1213 c-8 -22 -7 -344 1 -425 7 -59 13 -68 32 -45 12 14 17 72
28 303 6 138 6 141 -17 162 -28 27 -35 27 -44 5z"/>
<path d="M430 1041 c0 -16 -63 -48 -108 -55 -38 -6 -45 -3 -66 21 -23 26 -23
26 -43 7 -17 -16 -22 -36 -27 -114 -9 -147 -23 -280 -36 -330 -15 -58 -4 -160
17 -160 20 0 38 20 46 52 7 25 9 26 44 16 20 -5 53 -20 73 -33 37 -23 37 -24
29 -74 -8 -55 -34 -101 -55 -101 -8 0 -14 -4 -14 -9 0 -5 -8 -11 -17 -14 -10
-4 -37 -18 -61 -32 -23 -14 -47 -25 -53 -25 -22 0 -109 -45 -114 -59 -12 -30
52 -43 79 -16 8 8 19 15 23 15 5 0 28 9 51 20 22 11 45 20 49 20 4 0 22 14 40
30 18 17 36 30 41 30 14 0 72 58 72 73 1 16 18 129 30 197 6 30 12 111 15 180
3 69 10 149 16 179 13 63 15 162 5 179 -9 14 -36 16 -36 3z m-33 -107 c13 -12
14 -30 9 -100 -11 -130 -9 -129 -99 -87 -58 28 -58 28 -55 92 3 64 3 64 48 87
53 28 76 30 97 8z m-78 -260 c60 -36 65 -43 63 -99 -1 -32 -14 -85 -21 -85 -4
0 -35 18 -69 39 -60 39 -60 39 -61 110 -1 85 3 86 88 35z"/>
<path d="M621 912 c-5 -10 -12 -51 -15 -92 -4 -41 -13 -147 -22 -235 -12 -117
-13 -164 -5 -177 6 -10 11 -61 11 -113 0 -76 -4 -104 -20 -135 -11 -22 -20
-51 -20 -65 0 -18 5 -25 20 -25 11 0 20 7 20 15 0 17 38 97 50 105 8 5 18 51
27 118 4 38 8 42 33 42 15 0 42 -5 59 -11 24 -8 39 -9 57 0 24 11 33 31 13 31
-27 0 -119 32 -136 48 -10 9 -24 29 -30 43 -9 21 -8 30 8 50 10 13 19 28 19
33 0 4 10 29 23 55 13 25 22 52 19 59 -6 18 -32 15 -39 -5 -4 -10 -14 -26 -24
-36 -15 -17 -17 -16 -22 20 -4 22 0 62 8 93 18 67 20 171 3 188 -17 17 -26 15
-37 -6z"/>
<path d="M1115 833 c44 -109 47 -231 9 -342 -3 -11 -9 -8 -21 10 -21 30 -44
48 -61 49 -13 0 -12 -35 4 -102 6 -25 3 -28 -18 -28 -14 0 -47 11 -74 25 -75
38 -91 31 -57 -26 21 -35 58 -49 129 -49 49 0 54 -2 60 -25 3 -14 9 -25 13
-25 5 0 14 -19 22 -42 7 -24 19 -49 26 -56 7 -7 16 -25 19 -40 7 -29 22 -52
34 -52 22 0 16 63 -17 155 -45 131 -47 139 -31 156 20 20 49 119 55 186 3 44
-1 75 -18 128 -25 76 -38 95 -64 95 -12 0 -15 -5 -10 -17z"/>
</g>
</svg>
