<svg version="1.0" xmlns="http://www.w3.org/2000/svg"
 width="115.000000pt" height="117.000000pt" viewBox="0 0 115.000000 117.000000"
 preserveAspectRatio="xMidYMid meet">
<metadata>
Created by potrace 1.15, written by Peter Selinger 2001-2017
</metadata>
<g transform="translate(0.000000,117.000000) scale(0.100000,-0.100000)"
fill="#000000" stroke="none">
<path d="M716 1048 c-10 -38 -7 -284 5 -340 15 -74 17 -78 32 -72 27 10 48
106 26 119 -7 5 -8 27 -4 64 10 90 5 163 -15 208 -21 48 -35 54 -44 21z"/>
<path d="M146 923 c-31 -31 -36 -81 -36 -332 0 -305 12 -454 41 -517 12 -24
26 -44 31 -44 6 0 8 29 6 71 -3 82 -3 83 90 91 34 3 52 1 52 -6 0 -6 9 -22 20
-36 19 -25 19 -25 28 0 5 14 8 70 6 125 -9 247 -10 406 -2 411 14 9 9 207 -6
227 -7 9 -16 17 -19 17 -10 0 -27 -73 -27 -117 0 -43 0 -43 -46 -43 -83 0
-114 28 -114 104 0 53 -7 66 -24 49z m151 -221 c6 -4 14 -44 18 -90 8 -82 8
-82 -43 -82 -60 0 -82 7 -82 26 0 8 -3 14 -8 14 -4 0 -12 17 -19 37 -12 38 -4
64 27 90 16 14 88 17 107 5z m6 -244 c26 -18 27 -23 27 -100 0 -94 -10 -107
-77 -108 -37 0 -43 4 -63 38 -15 25 -24 60 -28 105 -4 58 -2 70 14 82 24 18
89 9 127 -17z"/>
<path d="M1035 751 c3 -5 2 -35 -1 -65 -8 -63 -18 -69 -72 -36 -37 23 -72 26
-72 8 0 -7 20 -32 45 -56 38 -36 43 -47 35 -63 -17 -30 -64 -49 -125 -49 -61
0 -71 -11 -25 -30 27 -11 128 -17 159 -9 10 3 18 -13 27 -56 7 -33 18 -78 24
-100 6 -22 15 -58 18 -80 7 -39 7 -39 25 -12 14 22 16 38 11 80 -8 62 -9 67
-17 90 -4 9 -9 24 -12 32 -8 26 15 191 35 244 18 51 18 51 -10 81 -26 27 -59
43 -45 21z"/>
<path d="M532 681 c-12 -10 -22 -24 -22 -30 0 -7 -7 -19 -15 -27 -34 -34 -26
-118 15 -161 49 -53 52 -65 54 -230 1 -87 5 -164 10 -171 11 -18 34 -15 40 6
18 58 23 215 10 269 -6 23 -4 25 15 20 26 -6 91 10 91 23 0 6 -10 10 -23 10
-13 0 -27 4 -33 9 -5 5 -20 11 -34 13 -17 2 -26 10 -28 25 -4 25 26 72 46 73
6 0 12 4 12 9 0 5 9 13 20 16 26 8 26 35 1 35 -22 0 -73 -18 -81 -28 -3 -4
-20 -15 -38 -25 -25 -14 -36 -16 -47 -7 -16 13 -3 70 26 112 19 26 26 78 11
78 -5 0 -19 -8 -30 -19z"/>
</g>
</svg>
