<svg version="1.0" xmlns="http://www.w3.org/2000/svg"
 width="65.000000pt" height="99.000000pt" viewBox="0 0 65.000000 99.000000"
 preserveAspectRatio="xMidYMid meet">
<metadata>
Created by potrace 1.15, written by Peter Selinger 2001-2017
</metadata>
<g transform="translate(0.000000,99.000000) scale(0.100000,-0.100000)"
fill="#000000" stroke="none">
<path d="M520 825 c-7 -13 -13 -48 -14 -77 -1 -42 -5 -53 -18 -56 -15 -3 -18
5 -19 50 -1 29 -1 61 0 71 2 11 -5 17 -19 17 -21 0 -21 -2 -17 -187 4 -184 9
-238 27 -278 5 -11 16 -45 25 -75 16 -57 69 -148 78 -133 3 4 -2 26 -10 48
-35 94 -36 110 -14 151 20 39 20 39 27 7 3 -18 11 -33 17 -33 10 0 7 45 -13
160 -8 53 -20 244 -20 338 0 29 -13 28 -30 -3z m-10 -207 c1 -18 7 -62 14 -97
12 -55 12 -69 -1 -108 -8 -24 -17 -42 -19 -40 -2 2 -11 30 -19 61 -19 71 -20
202 -2 209 23 10 27 7 27 -25z"/>
<path d="M276 798 c-3 -7 -10 -52 -17 -99 -11 -81 -31 -131 -46 -116 -3 4 -1
17 4 30 12 26 2 54 -16 43 -6 -4 -11 -20 -11 -36 0 -16 -4 -32 -10 -35 -5 -3
-10 -21 -10 -40 0 -31 -17 -83 -30 -95 -17 -15 -31 -76 -38 -169 -10 -138 -9
-183 4 -188 13 -4 30 97 33 197 1 36 6 82 12 103 12 45 26 39 54 -23 10 -22
22 -40 26 -40 11 0 0 66 -18 118 -14 39 -14 44 1 60 9 10 16 24 16 30 0 19 18
14 25 -7 3 -11 12 -18 19 -15 7 3 19 -3 27 -12 12 -14 10 -23 -14 -65 -15 -27
-27 -54 -27 -59 0 -20 21 -9 38 20 9 16 20 30 23 30 10 0 30 -161 31 -241 0
-42 4 -82 9 -90 11 -17 11 -6 10 161 -1 69 -6 151 -12 183 -5 31 -7 62 -3 69
13 21 12 137 -1 155 -12 16 -14 14 -20 -20 -4 -21 -5 -56 -1 -77 7 -45 -1 -50
-28 -19 -16 19 -17 33 -12 108 4 47 8 99 9 115 2 30 -19 49 -27 24z"/>
</g>
</svg>
