<svg version="1.0" xmlns="http://www.w3.org/2000/svg"
 width="62.000000pt" height="86.000000pt" viewBox="0 0 62.000000 86.000000"
 preserveAspectRatio="xMidYMid meet">
<metadata>
Created by potrace 1.15, written by Peter Selinger 2001-2017
</metadata>
<g transform="translate(0.000000,86.000000) scale(0.100000,-0.100000)"
fill="#000000" stroke="none">
<path d="M276 718 c-3 -13 -6 -35 -6 -50 0 -19 -10 -34 -30 -50 -22 -16 -30
-30 -30 -54 0 -34 33 -84 56 -84 17 0 18 -16 2 -29 -7 -6 -29 -24 -49 -41 -20
-16 -41 -30 -47 -30 -14 0 -69 64 -77 89 -6 20 9 61 23 61 4 0 16 -7 26 -15
42 -32 49 -8 11 37 -37 44 -32 74 17 120 30 27 39 41 31 49 -17 17 -98 -35
-113 -71 -7 -17 -10 -42 -7 -57 3 -18 -1 -36 -14 -51 -26 -33 -35 -88 -19
-118 10 -18 11 -30 2 -49 -20 -43 -15 -99 10 -122 28 -25 62 -43 82 -43 25 0
19 14 -13 33 -32 19 -56 75 -46 107 4 14 15 20 34 20 35 0 57 -17 79 -60 15
-31 22 -35 59 -38 65 -5 109 19 124 66 10 35 9 43 -7 65 -11 14 -29 30 -41 36
-33 15 -29 44 7 58 50 19 53 106 3 127 -16 8 -23 22 -28 63 -7 56 -28 72 -39
31z m50 -126 c17 -11 22 -35 12 -54 -13 -26 -64 -24 -78 3 -20 35 31 75 66 51z
m2 -204 c17 -17 15 -54 -4 -72 -32 -32 -94 -10 -94 34 0 41 68 68 98 38z"/>
<path d="M474 642 c4 -26 1 -45 -9 -58 -23 -31 -19 -44 14 -38 16 3 31 2 35
-4 12 -20 -7 -71 -40 -108 -39 -42 -40 -44 -16 -44 10 0 39 22 65 48 53 54 62
95 27 127 -12 11 -20 31 -20 50 0 32 -25 65 -50 65 -9 0 -11 -10 -6 -38z"/>
<path d="M517 403 c-4 -3 -7 -17 -7 -31 0 -15 -13 -37 -35 -58 -19 -18 -35
-36 -35 -40 0 -11 70 4 96 21 17 11 24 25 24 46 0 48 -24 82 -43 62z"/>
<path d="M246 223 c-27 -7 -128 -62 -146 -79 -12 -12 -12 -14 1 -14 9 0 30 7
48 16 43 21 63 12 59 -27 -3 -29 -9 -33 -67 -54 -35 -13 -68 -28 -74 -34 -21
-21 4 -24 60 -8 32 9 104 23 160 31 107 15 146 34 173 82 16 28 0 58 -40 79
-28 14 -130 19 -174 8z m66 -68 c11 -41 4 -55 -31 -55 -26 0 -29 4 -33 38 -5
40 5 54 36 50 12 -2 23 -14 28 -33z m79 25 c34 -19 18 -70 -23 -70 -14 0 -18
8 -18 40 0 41 8 47 41 30z"/>
</g>
</svg>
