<svg version="1.0" xmlns="http://www.w3.org/2000/svg"
 width="79.000000pt" height="96.000000pt" viewBox="0 0 79.000000 96.000000"
 preserveAspectRatio="xMidYMid meet">
<metadata>
Created by potrace 1.15, written by Peter Selinger 2001-2017
</metadata>
<g transform="translate(0.000000,96.000000) scale(0.100000,-0.100000)"
fill="#000000" stroke="none">
<path d="M200 755 c0 -2 9 -19 20 -37 28 -47 26 -58 -25 -108 -50 -49 -47 -72
5 -50 23 9 34 10 42 2 10 -10 -25 -49 -114 -127 -23 -20 -34 -63 -19 -78 10
-9 21 -2 49 31 20 23 40 42 45 42 14 0 7 -60 -14 -112 -17 -44 -19 -64 -14
-120 4 -38 11 -71 16 -74 5 -3 9 -14 9 -25 0 -26 29 -69 46 -69 18 0 18 27 -2
81 -18 51 -13 191 8 217 8 9 12 41 11 85 -1 57 2 75 19 98 18 25 20 34 11 63
-6 19 -8 54 -6 78 4 37 1 49 -22 76 -15 18 -35 32 -46 32 -10 0 -19 -2 -19 -5z"/>
<path d="M426 750 c-58 -11 -86 -48 -86 -113 0 -47 -16 -135 -35 -194 -5 -15
-3 -23 4 -23 19 0 52 86 58 148 7 73 18 92 49 92 33 0 29 -33 -4 -38 -26 -4
-27 -10 -5 -34 15 -17 15 -20 -6 -48 -34 -47 0 -38 42 10 39 46 65 50 95 15
24 -27 62 -34 62 -11 0 8 -5 18 -10 21 -6 4 -8 16 -5 27 5 14 1 21 -14 25 -29
8 -26 21 6 25 38 4 41 27 4 41 -36 13 -40 27 -11 34 12 3 19 11 17 17 -4 13
-106 17 -161 6z m84 -40 c0 -5 -7 -10 -15 -10 -8 0 -15 5 -15 10 0 6 7 10 15
10 8 0 15 -4 15 -10z m-70 -10 c0 -5 -9 -10 -21 -10 -11 0 -17 5 -14 10 3 6
13 10 21 10 8 0 14 -4 14 -10z m68 -57 c-5 -25 -28 -28 -28 -4 0 12 6 21 16
21 9 0 14 -7 12 -17z"/>
<path d="M453 523 c-41 -8 -46 -28 -17 -62 47 -56 61 -58 105 -15 38 37 47 58
32 67 -13 8 -97 15 -120 10z m67 -43 c0 -19 -31 -23 -48 -6 -15 15 -14 16 16
16 18 0 32 -5 32 -10z"/>
<path d="M571 425 c-17 -20 -31 -40 -31 -45 0 -6 -18 -10 -40 -10 -34 0 -42 4
-50 25 -10 26 -72 61 -78 44 -2 -5 6 -21 17 -35 22 -28 20 -44 -5 -44 -25 0
-15 -25 27 -65 72 -71 114 -176 44 -111 -35 33 -83 52 -97 38 -7 -7 4 -20 36
-43 55 -41 59 -59 11 -59 -30 0 -38 6 -59 39 -14 22 -28 52 -32 68 -10 38 -33
73 -50 73 -19 0 -18 -7 11 -64 13 -27 27 -63 30 -80 4 -17 15 -42 25 -56 20
-27 16 -26 196 -21 78 3 125 -13 144 -49 14 -27 30 -25 30 3 0 54 -60 97 -137
97 -48 1 -48 1 -4 41 52 46 48 60 -9 30 -33 -17 -40 -18 -40 -6 0 32 29 84 71
126 41 41 42 44 22 47 -30 4 -29 26 2 46 27 18 34 46 11 46 -8 0 -28 -16 -45
-35z m-46 -110 c-26 -21 -32 -23 -49 -11 -38 25 -30 36 26 36 53 -1 53 -1 23
-25z"/>
</g>
</svg>
