<svg version="1.0" xmlns="http://www.w3.org/2000/svg"
 width="71.000000pt" height="131.000000pt" viewBox="0 0 71.000000 131.000000"
 preserveAspectRatio="xMidYMid meet">
<metadata>
Created by potrace 1.15, written by Peter Selinger 2001-2017
</metadata>
<g transform="translate(0.000000,131.000000) scale(0.100000,-0.100000)"
fill="#000000" stroke="none">
<path d="M454 1289 c-3 -6 -3 -21 0 -35 4 -14 11 -59 16 -101 10 -74 9 -79
-16 -116 -14 -21 -37 -51 -50 -66 -13 -15 -31 -36 -39 -47 -13 -17 -14 -14
-15 40 0 51 4 65 35 107 19 27 35 57 35 67 0 9 -10 47 -22 85 -17 51 -26 67
-40 67 -14 0 -18 -5 -14 -17 40 -138 40 -135 21 -170 -10 -18 -21 -33 -25 -33
-15 0 -30 -54 -30 -110 0 -33 -3 -60 -7 -60 -16 0 -53 71 -53 100 0 16 9 44
20 62 11 18 20 46 20 61 0 45 -30 127 -47 127 -11 0 -13 -6 -9 -22 13 -42 19
-106 12 -133 -4 -14 -17 -35 -31 -46 -13 -12 -29 -34 -35 -50 -7 -16 -17 -29
-22 -29 -9 0 -9 17 8 168 7 65 -7 68 -24 5 -7 -27 -17 -62 -22 -79 -13 -41
-13 -71 2 -111 10 -27 10 -38 0 -53 -24 -39 -15 -76 29 -117 177 -165 199
-196 199 -279 0 -42 -4 -49 -56 -97 -31 -29 -61 -54 -67 -56 -35 -13 -56 -68
-57 -148 0 -69 7 -77 44 -51 17 12 45 35 61 50 17 15 36 28 43 28 6 0 12 4 12
8 0 5 12 15 28 23 15 8 34 23 44 34 34 41 33 6 -3 -178 -12 -62 -11 -87 1 -87
6 0 10 15 10 33 0 20 9 42 22 57 18 19 23 37 24 89 1 36 7 86 14 110 13 54 2
72 -32 48 -13 -9 -50 -37 -83 -62 -33 -24 -75 -52 -92 -62 -18 -9 -33 -20 -33
-25 0 -4 -4 -8 -10 -8 -5 0 -10 20 -10 44 0 48 -4 44 128 146 57 45 58 46 41
149 -12 68 -12 68 32 132 23 35 46 66 51 67 4 2 8 9 8 15 0 7 18 35 39 64 56
73 63 89 56 127 -4 21 -2 43 6 57 28 51 39 97 38 159 -2 76 -6 90 -25 90 -11
0 -14 -19 -14 -85 0 -78 -13 -135 -30 -135 -9 0 -12 14 -37 152 -16 90 -33
123 -49 97z m56 -300 c0 -4 -18 -25 -40 -48 -36 -37 -52 -71 -32 -71 4 0 24
14 45 31 21 17 40 29 43 26 5 -5 -28 -59 -46 -77 -8 -8 -64 -102 -90 -152 -15
-28 -27 -42 -31 -35 -3 7 -9 48 -12 93 -6 78 1 107 33 134 3 3 30 33 60 68 38
44 56 59 62 50 4 -7 8 -16 8 -19z m-289 -46 c8 -16 16 -30 19 -33 3 -3 19 -27
35 -55 29 -48 51 -155 33 -155 -5 0 -18 12 -31 27 -12 14 -30 33 -39 41 -9 9
-14 20 -11 25 6 10 -17 89 -28 97 -14 10 -15 80 -1 80 5 0 15 -12 23 -27z
m-43 -98 c11 -24 10 -25 -8 -15 -11 6 -20 17 -20 25 0 23 16 17 28 -10z"/>
</g>
</svg>
