<svg version="1.0" xmlns="http://www.w3.org/2000/svg"
 width="55.000000pt" height="117.000000pt" viewBox="0 0 55.000000 117.000000"
 preserveAspectRatio="xMidYMid meet">
<metadata>
Created by potrace 1.15, written by Peter Selinger 2001-2017
</metadata>
<g transform="translate(0.000000,117.000000) scale(0.100000,-0.100000)"
fill="#000000" stroke="none">
<path d="M429 950 c0 -8 -2 -37 -4 -63 -1 -26 -5 -51 -9 -54 -9 -10 -55 37
-58 60 -6 40 -25 27 -43 -29 -11 -34 -15 -71 -12 -96 6 -47 -10 -91 -31 -83
-7 3 -17 5 -22 5 -16 0 -19 30 -5 56 22 43 28 102 15 135 -16 38 -34 38 -25
-1 6 -27 4 -30 -19 -30 -15 0 -31 -8 -38 -20 -20 -31 -28 -24 -28 25 0 32 -5
47 -15 52 -9 3 -18 3 -20 1 -3 -2 -7 -42 -9 -89 -3 -46 -10 -103 -17 -126 -11
-40 -10 -45 16 -79 15 -19 35 -38 44 -41 37 -14 50 -33 40 -63 -16 -43 -7
-101 16 -114 39 -21 65 -57 65 -87 0 -35 -11 -31 -49 14 -14 16 -29 35 -35 41
-6 7 -16 20 -22 31 -5 10 -21 25 -33 34 -23 15 -24 15 -18 -19 3 -19 10 -53
17 -75 6 -22 15 -60 19 -85 12 -69 61 -154 61 -105 0 8 -5 35 -12 60 -7 24 -9
47 -6 50 3 3 23 -5 43 -20 47 -31 49 -31 63 0 21 46 15 110 -14 144 -14 17
-30 31 -36 31 -5 0 -16 7 -25 15 -13 13 -13 21 -1 58 12 35 22 46 65 68 100
51 113 70 139 194 22 109 28 195 15 208 -8 8 -11 7 -12 -3z m-54 -200 c-4 -11
-12 -20 -20 -20 -15 0 -31 92 -19 112 11 18 47 -67 39 -92z m-159 15 c-17 -35
-30 -43 -41 -25 -6 9 46 72 54 65 2 -3 -4 -20 -13 -40z m154 -80 c0 -19 -92
-113 -97 -99 -7 20 59 114 78 114 11 0 19 -7 19 -15z m-185 -1 c23 -6 45 -46
45 -81 0 -27 -16 -29 -50 -6 -41 28 -50 40 -50 67 0 27 13 32 55 20z"/>
</g>
</svg>
