<svg version="1.0" xmlns="http://www.w3.org/2000/svg"
 width="89.000000pt" height="163.000000pt" viewBox="0 0 89.000000 163.000000"
 preserveAspectRatio="xMidYMid meet">
<metadata>
Created by potrace 1.15, written by Peter Selinger 2001-2017
</metadata>
<g transform="translate(0.000000,163.000000) scale(0.100000,-0.100000)"
fill="#000000" stroke="none">
<path d="M730 1498 c-6 -18 -14 -64 -17 -102 -6 -70 -6 -70 -33 -38 -14 18
-32 32 -38 32 -7 0 -12 4 -12 8 0 9 -44 32 -60 32 -15 0 -12 -37 5 -54 8 -8
15 -18 15 -23 0 -4 10 -20 23 -35 89 -107 86 -104 80 -144 -4 -22 -19 -70 -35
-108 -15 -38 -28 -74 -28 -80 0 -7 -14 -34 -31 -60 -16 -27 -28 -50 -25 -53
12 -12 101 95 135 163 39 77 39 77 50 38 17 -62 13 -112 -11 -147 -26 -37 -96
-107 -107 -107 -4 0 -21 -11 -37 -25 -16 -14 -34 -25 -41 -25 -6 0 -13 -4 -15
-8 -3 -8 -93 -72 -101 -72 -3 0 -7 7 -11 15 -4 12 45 108 65 125 17 15 61 125
74 185 18 84 19 131 4 211 -12 72 -29 110 -68 155 -45 51 -55 30 -29 -66 43
-164 39 -284 -12 -393 -17 -36 -33 -63 -35 -60 -8 8 16 111 29 127 13 17 13
170 0 179 -5 4 -10 43 -11 86 -2 116 -27 148 -105 138 -27 -3 -38 -9 -38 -21
0 -12 -5 -10 -20 9 -22 27 -22 27 -58 -35 -17 -30 -17 -30 -22 22 -7 70 -50
122 -64 76 -21 -74 -38 -275 -23 -289 3 -3 -8 -34 -24 -69 -32 -70 -39 -168
-18 -222 23 -57 60 -129 78 -149 20 -24 92 -64 116 -64 8 0 15 -4 15 -10 0 -5
9 -10 19 -10 25 0 33 -24 25 -79 -8 -54 -49 -98 -191 -206 -7 -5 -16 -24 -19
-42 -6 -28 -3 -34 25 -51 25 -15 40 -17 83 -11 88 13 99 12 89 -8 -74 -144
-83 -183 -43 -183 27 0 87 77 103 130 7 25 25 64 41 87 34 50 34 58 5 77 -23
16 -97 12 -97 -5 0 -11 -68 -29 -85 -22 -12 4 -12 7 0 19 7 8 17 14 22 14 10
0 122 82 142 103 22 24 41 88 41 140 0 45 1 48 40 64 22 10 40 21 40 25 0 5 5
8 11 8 14 0 118 76 180 132 51 44 85 99 94 151 8 44 -11 180 -31 223 -11 24
-14 48 -10 81 16 126 17 171 7 211 -14 50 -35 54 -51 10z m-340 -343 c12 -32
5 -155 -10 -155 -4 0 -11 19 -14 43 -4 23 -9 58 -12 78 -3 20 -1 45 4 55 6 12
7 40 1 77 -5 32 -6 64 -2 70 5 7 11 -22 14 -63 4 -41 12 -88 19 -105z m-93 95
c-2 -25 -7 -36 -21 -38 -32 -6 -36 12 -14 56 24 47 38 40 35 -18z m-24 -172
c16 -146 37 -269 49 -283 4 -5 8 -26 8 -47 0 -31 -4 -38 -20 -38 -11 0 -20 4
-20 9 0 5 -9 11 -20 14 -25 7 -95 152 -104 217 -9 64 6 81 32 38 54 -88 87
-103 78 -35 -10 62 -28 127 -37 133 -17 10 -10 44 10 44 15 0 20 -10 24 -52z"/>
</g>
</svg>
