<svg version="1.0" xmlns="http://www.w3.org/2000/svg"
 width="69.000000pt" height="85.000000pt" viewBox="0 0 69.000000 85.000000"
 preserveAspectRatio="xMidYMid meet">
<metadata>
Created by potrace 1.15, written by Peter Selinger 2001-2017
</metadata>
<g transform="translate(0.000000,85.000000) scale(0.100000,-0.100000)"
fill="#000000" stroke="none">
<path d="M431 671 c-6 -11 -11 -31 -11 -45 0 -22 -5 -25 -42 -28 -73 -5 -77
-18 -84 -279 -6 -173 -4 -228 5 -233 7 -5 15 -5 19 -1 4 4 9 109 12 235 3 126
8 232 13 236 10 10 48 -12 70 -42 18 -24 18 -26 -2 -67 -13 -27 -26 -91 -36
-174 -19 -154 -17 -218 5 -218 12 0 16 28 23 158 8 151 24 227 46 227 15 0 24
-141 19 -276 -3 -68 -2 -124 2 -124 28 0 32 35 27 202 -3 95 -9 187 -12 203
-6 26 -1 36 26 63 29 28 34 30 42 16 8 -14 3 -164 -16 -469 -1 -21 3 -30 13
-30 36 0 45 51 48 293 4 274 3 279 -75 284 -48 3 -48 3 -48 43 0 45 -26 61
-44 26z m58 -110 c25 -7 25 -7 1 -29 -29 -27 -42 -28 -58 -2 -22 36 -1 47 57
31z"/>
<path d="M136 638 c-2 -7 -7 -138 -10 -290 -6 -266 -1 -315 23 -270 15 27 17
565 3 570 -7 2 -14 -2 -16 -10z"/>
<path d="M47 539 c-7 -98 -4 -117 19 -98 20 16 20 189 0 189 -9 0 -15 -24 -19
-91z"/>
<path d="M225 607 c-3 -7 -5 -49 -3 -93 2 -62 6 -79 18 -79 12 0 15 17 15 89
0 63 -4 91 -12 93 -7 3 -15 -2 -18 -10z"/>
<path d="M41 337 c-8 -10 -11 -50 -9 -123 2 -89 6 -109 18 -109 21 0 36 213
16 233 -10 11 -15 11 -25 -1z"/>
<path d="M207 334 c-10 -11 -9 -244 2 -244 22 0 30 33 32 135 2 91 0 110 -12
113 -8 1 -18 0 -22 -4z"/>
</g>
</svg>
