<svg version="1.0" xmlns="http://www.w3.org/2000/svg"
 width="64.000000pt" height="76.000000pt" viewBox="0 0 64.000000 76.000000"
 preserveAspectRatio="xMidYMid meet">
<metadata>
Created by potrace 1.15, written by Peter Selinger 2001-2017
</metadata>
<g transform="translate(0.000000,76.000000) scale(0.100000,-0.100000)"
fill="#000000" stroke="none">
<path d="M416 589 c-27 -21 -33 -60 -20 -127 8 -40 29 -46 99 -32 74 15 85 29
85 100 0 70 -11 80 -88 80 -35 0 -57 -6 -76 -21z m103 -23 c7 -8 11 -34 9 -58
-3 -43 -3 -43 -53 -43 -50 0 -50 0 -53 48 -3 41 0 48 20 56 34 14 64 13 77 -3z"/>
<path d="M123 589 c-37 -11 -42 -32 -17 -68 16 -23 16 -24 -7 -42 -24 -18 -24
-21 -29 -216 -5 -194 -5 -198 -27 -201 -24 -4 -50 -29 -40 -39 11 -10 140 11
144 24 2 6 -6 13 -19 15 -21 3 -23 8 -26 79 -3 76 -3 76 29 83 79 15 78 16 81
-86 3 -93 3 -93 56 -96 42 -2 52 0 52 12 0 11 -10 16 -34 16 -31 0 -34 3 -40
37 -3 21 -6 57 -6 81 0 39 2 42 28 42 50 0 53 8 50 126 -3 109 -3 109 -31 122
-29 14 -29 14 -3 41 28 30 33 50 14 69 -14 14 -128 15 -175 1z m137 -42 c0
-30 -31 -57 -65 -57 -24 0 -39 7 -49 22 -20 29 -20 35 2 41 40 11 112 7 112
-6z m4 -108 c14 -11 26 -29 26 -40 0 -18 -6 -20 -92 -17 -78 3 -93 6 -96 20
-10 53 107 80 162 37z m26 -123 c0 -53 -6 -56 -101 -56 -89 0 -89 0 -89 33 0
19 3 37 7 40 3 4 46 7 95 7 86 0 88 0 88 -24z"/>
<path d="M405 340 c-17 -34 -21 -222 -5 -264 9 -25 13 -26 94 -26 60 0 87 4
95 14 19 23 -4 29 -80 22 -69 -7 -69 -7 -79 20 -22 56 -12 68 68 80 39 6 75
14 79 18 4 3 9 33 11 65 4 54 2 59 -23 79 -21 17 -41 22 -86 22 -55 0 -59 -2
-74 -30z m139 -41 c5 -14 6 -38 2 -53 -6 -24 -10 -26 -66 -26 -60 0 -60 0 -60
43 0 56 14 69 70 65 38 -3 46 -7 54 -29z"/>
</g>
</svg>
