<svg version="1.0" xmlns="http://www.w3.org/2000/svg"
 width="68.000000pt" height="96.000000pt" viewBox="0 0 68.000000 96.000000"
 preserveAspectRatio="xMidYMid meet">
<metadata>
Created by potrace 1.15, written by Peter Selinger 2001-2017
</metadata>
<g transform="translate(0.000000,96.000000) scale(0.100000,-0.100000)"
fill="#000000" stroke="none">
<path d="M238 718 c-21 -24 -46 -55 -54 -70 -19 -35 -28 -35 -54 2 -12 17 -28
30 -36 30 -26 0 -14 -39 24 -79 34 -35 37 -44 34 -84 -3 -35 -9 -47 -29 -58
-13 -7 -29 -22 -35 -33 -12 -23 -19 -366 -7 -366 21 0 30 50 31 159 0 65 -2
127 -6 137 -9 30 30 86 57 82 23 -3 24 -11 11 -75 -4 -20 0 -43 10 -64 14 -28
14 -37 2 -73 -8 -22 -17 -78 -21 -123 -6 -73 -5 -83 9 -83 11 0 16 9 16 29 0
42 17 81 35 81 16 0 25 -30 22 -70 -1 -16 3 -25 13 -25 11 0 16 14 20 50 4 42
8 50 25 50 16 0 21 -8 25 -39 5 -43 25 -58 35 -28 8 26 -23 162 -42 184 -14
16 -14 20 1 42 9 14 16 37 16 51 0 32 -41 75 -72 75 -13 0 -29 4 -37 9 -23 15
-2 31 39 31 40 0 80 29 80 56 0 21 -40 52 -74 59 -74 15 -77 19 -50 60 16 25
16 25 45 1 28 -24 85 -43 96 -33 10 11 -9 28 -58 52 -43 22 -48 28 -39 45 5
10 15 22 20 25 14 8 13 35 -1 35 -6 0 -29 -19 -51 -42z m36 -178 c51 -19 27
-50 -40 -50 -31 0 -34 3 -34 30 0 25 4 30 24 30 14 0 36 -4 50 -10z m4 -156
c28 -19 28 -55 1 -80 -19 -17 -23 -17 -47 -3 -37 20 -44 75 -10 88 31 13 31
13 56 -5z m1 -133 c9 -6 10 -11 2 -15 -6 -4 -11 -16 -11 -27 0 -26 -14 -24
-29 5 -20 37 3 59 38 37z m36 -72 c-10 -15 -25 -10 -19 6 4 8 10 12 15 9 5 -3
7 -10 4 -15z m-77 -7 c2 -7 -3 -12 -12 -12 -9 0 -16 7 -16 16 0 17 22 14 28
-4z"/>
<path d="M466 721 c-4 -6 -1 -38 6 -70 6 -33 9 -64 5 -68 -4 -3 -26 -9 -49
-12 -60 -8 -62 -31 -4 -31 31 0 48 -5 52 -14 7 -18 -17 -65 -68 -133 -42 -58
-44 -63 -24 -63 8 0 32 22 53 50 47 60 68 64 82 13 6 -21 11 -48 11 -60 0 -24
-56 -134 -102 -201 -17 -24 -27 -46 -23 -50 11 -11 38 13 70 61 16 25 33 46
37 46 3 1 16 -15 28 -34 25 -40 51 -58 74 -49 25 9 19 31 -14 56 -17 12 -37
33 -46 46 -14 22 -14 28 6 78 20 49 21 59 10 99 -7 25 -23 56 -36 70 -18 19
-22 32 -17 55 6 31 6 31 90 34 12 1 28 7 35 14 19 19 -6 32 -63 32 -46 0 -46
0 -53 48 -6 50 -47 105 -60 83z"/>
</g>
</svg>
