<svg version="1.0" xmlns="http://www.w3.org/2000/svg"
 width="61.000000pt" height="121.000000pt" viewBox="0 0 61.000000 121.000000"
 preserveAspectRatio="xMidYMid meet">
<metadata>
Created by potrace 1.15, written by Peter Selinger 2001-2017
</metadata>
<g transform="translate(0.000000,121.000000) scale(0.100000,-0.100000)"
fill="#000000" stroke="none">
<path d="M301 1103 c-35 -74 -51 -96 -107 -155 -70 -72 -74 -80 -103 -167 -47
-143 -8 -251 89 -251 16 0 30 -4 30 -8 0 -4 12 -15 28 -24 38 -23 72 -54 72
-66 0 -6 -29 -36 -65 -67 -36 -32 -65 -61 -65 -66 0 -15 26 -10 53 11 14 11
31 20 39 20 7 0 27 17 45 37 32 38 32 38 60 8 56 -58 115 -161 163 -282 13
-35 30 -35 30 0 0 68 -124 304 -182 345 -12 9 -16 18 -10 25 18 25 35 98 29
131 -5 30 -1 40 24 67 16 17 32 43 35 58 4 14 10 31 14 36 5 6 14 38 21 72 22
105 -12 166 -116 212 -37 16 -44 24 -47 52 -4 42 -21 47 -37 12z m62 -113 c27
0 63 -45 77 -96 23 -81 -7 -84 -187 -18 -42 15 -42 15 15 73 33 34 61 54 67
50 5 -5 18 -9 28 -9z m-118 -165 c11 -6 52 -18 90 -25 39 -8 76 -18 83 -23 20
-16 14 -42 -21 -81 -32 -38 -32 -38 -71 -22 -21 9 -47 16 -57 16 -10 0 -34 9
-54 20 -20 11 -41 20 -48 20 -7 0 -18 4 -26 9 -11 7 -10 18 9 60 21 46 26 50
49 45 14 -4 35 -12 46 -19z m-43 -155 c23 -11 50 -20 59 -20 24 0 49 -11 49
-21 0 -15 -71 -39 -116 -39 -49 0 -74 24 -74 72 0 35 23 37 82 8z m153 -132
c-11 -50 -20 -54 -61 -23 -37 28 -37 28 -8 41 16 7 39 13 52 13 21 1 23 -2 17
-31z"/>
</g>
</svg>
