<svg version="1.0" xmlns="http://www.w3.org/2000/svg"
 width="55.000000pt" height="99.000000pt" viewBox="0 0 55.000000 99.000000"
 preserveAspectRatio="xMidYMid meet">
<metadata>
Created by potrace 1.15, written by Peter Selinger 2001-2017
</metadata>
<g transform="translate(0.000000,99.000000) scale(0.100000,-0.100000)"
fill="#000000" stroke="none">
<path d="M170 837 c0 -32 51 -150 76 -175 18 -18 11 -89 -15 -143 -12 -23 -21
-49 -21 -56 0 -7 -3 -13 -7 -13 -9 0 -33 -48 -33 -64 0 -6 -9 -22 -20 -36 -40
-51 -22 -66 128 -106 7 -2 12 -14 10 -26 -3 -31 12 -108 22 -108 11 0 20 53
20 121 0 62 2 60 -67 74 -40 8 -41 15 -4 46 49 42 71 98 71 187 0 78 0 78 38
107 48 36 73 73 100 150 28 78 19 87 -55 49 -71 -36 -79 -54 -24 -54 40 0 40
0 19 -37 -23 -38 -74 -93 -88 -93 -23 0 -102 112 -88 125 3 3 22 -3 42 -14 20
-12 36 -16 36 -10 0 20 -106 109 -129 109 -6 0 -11 -15 -11 -33z m126 -309
c-2 -18 -4 -44 -5 -58 -1 -30 -42 -80 -65 -80 -20 0 -21 -4 14 68 17 34 30 66
30 70 0 7 20 32 26 32 1 0 1 -15 0 -32z"/>
</g>
</svg>
