<svg version="1.0" xmlns="http://www.w3.org/2000/svg"
 width="39.000000pt" height="109.000000pt" viewBox="0 0 39.000000 109.000000"
 preserveAspectRatio="xMidYMid meet">
<metadata>
Created by potrace 1.15, written by Peter Selinger 2001-2017
</metadata>
<g transform="translate(0.000000,109.000000) scale(0.100000,-0.100000)"
fill="#000000" stroke="none">
<path d="M168 823 c-6 -116 0 -133 47 -133 38 0 43 -10 24 -57 -22 -53 -27
-68 -43 -122 -9 -29 -16 -59 -16 -66 0 -7 -16 -32 -35 -56 -27 -34 -35 -53
-35 -86 0 -45 14 -93 28 -93 5 0 28 18 51 40 23 22 47 40 52 40 12 0 7 -138
-6 -177 -12 -37 11 -26 31 15 14 27 20 66 22 140 4 101 4 102 -20 102 -14 0
-38 -15 -61 -40 -44 -47 -57 -50 -57 -11 0 21 15 43 58 87 72 73 84 103 82
196 -3 97 -3 95 24 102 23 6 23 9 20 86 -1 44 -6 89 -9 101 -10 30 -30 17 -33
-21 -2 -19 -12 -46 -23 -61 -24 -34 -24 -39 1 -39 11 0 20 6 20 13 0 19 20
-15 20 -35 0 -15 -9 -18 -50 -18 -50 0 -50 0 -50 50 0 44 3 50 21 50 19 0 18
3 -12 45 -18 25 -36 45 -40 45 -3 0 -9 -44 -11 -97z m78 -309 c-4 -14 -9 -24
-12 -21 -3 2 -2 17 2 31 3 15 9 25 11 22 3 -3 2 -17 -1 -32z"/>
</g>
</svg>
