<svg version="1.0" xmlns="http://www.w3.org/2000/svg"
 width="39.000000pt" height="89.000000pt" viewBox="0 0 39.000000 89.000000"
 preserveAspectRatio="xMidYMid meet">
<metadata>
Created by potrace 1.15, written by Peter Selinger 2001-2017
</metadata>
<g transform="translate(0.000000,89.000000) scale(0.100000,-0.100000)"
fill="#000000" stroke="none">
<path d="M125 715 c-10 -22 -21 -48 -26 -57 -19 -38 -1 -193 24 -209 5 -4 27
-4 48 -2 37 5 39 4 39 -20 0 -14 -5 -29 -10 -32 -6 -3 -10 -19 -10 -34 0 -15
-4 -31 -9 -37 -5 -5 -12 -20 -16 -34 -5 -20 2 -15 40 25 47 50 47 50 40 15
-13 -66 -17 -215 -5 -245 18 -48 30 -12 30 96 0 52 4 99 10 105 15 15 25 104
12 104 -14 0 -42 57 -42 86 0 28 -16 33 -58 21 -42 -13 -56 0 -47 42 4 17 11
31 16 31 5 0 9 9 9 20 0 23 -10 26 -28 8 -9 -9 -12 -5 -12 19 0 18 4 34 9 37
13 9 22 66 12 84 -8 13 -12 9 -26 -23z"/>
<path d="M250 716 c0 -8 5 -18 10 -21 14 -8 13 -42 -2 -47 -14 -5 -4 -51 17
-72 8 -8 15 -32 15 -55 0 -57 16 -51 29 9 14 64 14 150 1 150 -6 0 -16 11 -22
25 -12 27 -48 35 -48 11z"/>
</g>
</svg>
