<svg version="1.0" xmlns="http://www.w3.org/2000/svg"
 width="37.000000pt" height="37.000000pt" viewBox="0 0 37.000000 37.000000"
 preserveAspectRatio="xMidYMid meet">
<metadata>
Created by potrace 1.15, written by Peter Selinger 2001-2017
</metadata>
<g transform="translate(0.000000,37.000000) scale(0.100000,-0.100000)"
fill="#000000" stroke="none">
<path d="M76 257 c-13 -9 -17 -25 -17 -57 1 -37 7 -130 10 -163 1 -11 190 -6
217 6 32 14 44 49 44 127 0 92 -11 100 -140 100 -63 0 -102 -4 -114 -13z m195
-49 c10 -16 23 -117 16 -124 -3 -3 -34 -6 -68 -6 -119 -1 -109 -8 -109 76 0
74 0 74 77 70 47 -2 80 -8 84 -16z"/>
</g>
</svg>
