<svg version="1.0" xmlns="http://www.w3.org/2000/svg"
 width="71.000000pt" height="71.000000pt" viewBox="0 0 71.000000 71.000000"
 preserveAspectRatio="xMidYMid meet">
<metadata>
Created by potrace 1.15, written by Peter Selinger 2001-2017
</metadata>
<g transform="translate(0.000000,71.000000) scale(0.100000,-0.100000)"
fill="#000000" stroke="none">
<path d="M292 474 c-40 -27 -22 -74 28 -74 48 0 66 42 32 73 -23 21 -32 21
-60 1z"/>
<path d="M252 247 c-38 -12 -99 -75 -108 -113 -9 -36 19 -92 53 -105 46 -18
200 -5 255 20 57 28 67 39 75 85 7 45 -26 98 -72 115 -38 13 -158 13 -203 -2z
m192 -48 c30 -24 36 -78 11 -103 -16 -15 -94 -34 -155 -38 -33 -1 -92 22 -104
41 -14 21 7 68 37 87 62 36 172 43 211 13z"/>
</g>
</svg>
