<svg version="1.0" xmlns="http://www.w3.org/2000/svg"
 width="35.000000pt" height="37.000000pt" viewBox="0 0 35.000000 37.000000"
 preserveAspectRatio="xMidYMid meet">
<metadata>
Created by potrace 1.15, written by Peter Selinger 2001-2017
</metadata>
<g transform="translate(0.000000,37.000000) scale(0.100000,-0.100000)"
fill="#000000" stroke="none">
<path d="M105 231 c-30 -6 -30 -6 -33 -105 -3 -99 -3 -99 85 -92 48 3 98 6
111 6 30 0 45 40 39 103 -6 69 -59 111 -95 75 -9 -9 -16 -8 -30 5 -19 18 -28
19 -77 8z m130 -58 c4 -10 9 -33 10 -50 3 -32 2 -33 -32 -33 -22 0 -41 -7 -49
-17 -13 -17 -13 -17 -14 0 0 9 -6 17 -14 17 -19 0 -30 54 -16 79 15 28 104 31
115 4z"/>
</g>
</svg>
