<svg version="1.0" xmlns="http://www.w3.org/2000/svg"
 width="51.000000pt" height="59.000000pt" viewBox="0 0 51.000000 59.000000"
 preserveAspectRatio="xMidYMid meet">
<metadata>
Created by potrace 1.15, written by Peter Selinger 2001-2017
</metadata>
<g transform="translate(0.000000,59.000000) scale(0.100000,-0.100000)"
fill="#000000" stroke="none">
<path d="M160 459 c-66 -13 -90 -45 -90 -119 0 -33 5 -72 11 -87 29 -71 66
-136 94 -162 33 -33 79 -49 89 -32 4 6 22 11 40 11 23 0 39 8 57 28 32 36 49
68 49 92 0 11 3 20 8 20 8 0 30 42 43 84 6 20 5 44 -3 70 -24 80 -69 106 -177
105 -42 -1 -96 -5 -121 -10z"/>
<path d="M452 213 c3 -19 48 -32 48 -14 0 6 -7 11 -15 11 -8 0 -15 5 -15 10 0
6 -5 10 -11 10 -6 0 -9 -8 -7 -17z"/>
</g>
</svg>
