<svg version="1.0" xmlns="http://www.w3.org/2000/svg"
 width="59.000000pt" height="71.000000pt" viewBox="0 0 59.000000 71.000000"
 preserveAspectRatio="xMidYMid meet">
<metadata>
Created by potrace 1.15, written by Peter Selinger 2001-2017
</metadata>
<g transform="translate(0.000000,71.000000) scale(0.100000,-0.100000)"
fill="#000000" stroke="none">
<path d="M205 576 c-49 -5 -93 -14 -97 -20 -12 -18 -9 -76 6 -109 7 -18 21
-61 29 -97 35 -143 55 -209 73 -233 20 -26 73 -57 100 -57 27 0 90 74 124 145
31 67 38 82 59 123 30 59 36 80 36 133 0 49 -4 61 -25 79 -14 12 -36 27 -50
32 -34 14 -145 15 -255 4z"/>
</g>
</svg>
