<svg version="1.0" xmlns="http://www.w3.org/2000/svg"
 width="33.000000pt" height="39.000000pt" viewBox="0 0 33.000000 39.000000"
 preserveAspectRatio="xMidYMid meet">
<metadata>
Created by potrace 1.15, written by Peter Selinger 2001-2017
</metadata>
<g transform="translate(0.000000,39.000000) scale(0.100000,-0.100000)"
fill="#000000" stroke="none">
<path d="M230 270 c0 -5 -13 -7 -29 -4 -45 9 -90 -20 -120 -78 -12 -23 -12
-34 -1 -68 17 -51 39 -70 88 -77 33 -4 44 -1 74 26 49 42 56 86 28 157 -20 48
-40 71 -40 44z m-7 -81 c7 -12 7 -26 -2 -47 -14 -34 -39 -47 -71 -37 -26 8
-28 72 -2 91 22 18 62 14 75 -7z"/>
</g>
</svg>
