<svg version="1.0" xmlns="http://www.w3.org/2000/svg"
 width="64.000000pt" height="89.000000pt" viewBox="0 0 64.000000 89.000000"
 preserveAspectRatio="xMidYMid meet">
<metadata>
Created by potrace 1.15, written by Peter Selinger 2001-2017
</metadata>
<g transform="translate(0.000000,89.000000) scale(0.100000,-0.100000)"
fill="#000000" stroke="none">
<path d="M296 805 c-3 -9 -6 -34 -6 -55 0 -20 -3 -52 -6 -69 -5 -26 -11 -31
-34 -31 -33 0 -84 39 -106 81 -20 40 -34 36 -34 -8 0 -30 8 -44 45 -80 31 -29
54 -43 73 -43 66 -1 72 -51 7 -61 -22 -3 -66 -17 -98 -30 -80 -33 -91 -61 -88
-223 1 -66 4 -122 6 -125 16 -15 27 28 32 125 8 162 32 198 144 211 49 6 49 6
49 -23 0 -16 4 -35 9 -43 14 -21 31 -3 31 33 0 33 0 33 83 40 91 7 130 27 135
68 5 42 -29 62 -121 68 -64 4 -82 8 -82 20 0 11 17 16 67 21 72 6 84 11 73 29
-5 7 -31 10 -74 8 -66 -3 -66 -3 -71 46 -5 50 -22 71 -34 41z m186 -223 c23
-23 -11 -42 -72 -42 -86 0 -110 15 -77 49 14 15 133 9 149 -7z"/>
<path d="M466 491 c-3 -5 1 -15 10 -22 21 -17 42 -61 37 -76 -3 -9 -24 1 -63
27 -41 28 -61 36 -66 28 -4 -7 7 -24 29 -42 21 -17 37 -34 37 -38 0 -14 -35
-8 -68 12 -39 24 -42 24 -42 6 0 -25 59 -66 96 -66 30 0 39 -7 35 -32 0 -3 6
-43 14 -89 15 -86 51 -150 89 -157 20 -4 22 25 3 47 -26 30 -47 102 -54 177
-6 69 -4 76 15 90 33 23 28 66 -12 108 -34 36 -50 44 -60 27z"/>
<path d="M135 394 c-19 -46 -19 -54 1 -83 24 -33 27 -144 6 -204 -12 -37 -13
-50 -4 -59 9 -9 15 -9 27 3 19 18 39 123 31 162 -10 47 2 72 40 86 32 12 93
76 82 87 -3 3 -23 -6 -43 -21 -21 -14 -42 -25 -46 -25 -14 0 -10 27 6 40 17
14 20 40 6 40 -5 0 -26 -19 -46 -42 -37 -43 -37 -43 -32 -1 7 55 -8 64 -28 17z"/>
<path d="M308 273 c-16 -2 -28 -9 -28 -14 0 -15 83 -6 88 9 4 12 -7 13 -60 5z"/>
<path d="M368 210 c-17 -38 -35 -70 -39 -70 -5 0 -20 21 -33 48 -56 109 -88
112 -37 3 17 -37 37 -91 44 -120 19 -82 43 -62 66 57 6 29 20 70 31 92 22 44
25 60 9 60 -5 0 -24 -31 -41 -70z"/>
</g>
</svg>
