<svg version="1.0" xmlns="http://www.w3.org/2000/svg"
 width="69.000000pt" height="103.000000pt" viewBox="0 0 69.000000 103.000000"
 preserveAspectRatio="xMidYMid meet">
<metadata>
Created by potrace 1.15, written by Peter Selinger 2001-2017
</metadata>
<g transform="translate(0.000000,103.000000) scale(0.100000,-0.100000)"
fill="#000000" stroke="none">
<path d="M360 883 c-27 -43 -54 -83 -59 -90 -6 -6 -19 -27 -30 -46 -10 -18
-37 -58 -60 -88 -22 -30 -41 -62 -41 -71 0 -10 -4 -18 -10 -18 -5 0 -10 -9
-10 -19 0 -11 -4 -23 -10 -26 -5 -3 -10 -13 -10 -22 0 -9 -7 -24 -16 -34 -9
-10 -18 -37 -21 -61 -3 -24 -9 -47 -13 -53 -12 -17 -20 -120 -13 -170 5 -37
15 -57 47 -91 23 -24 49 -44 58 -44 9 0 18 -5 20 -11 5 -16 270 -17 276 -1 2
7 15 12 28 12 21 0 60 15 74 30 3 3 17 11 33 19 15 8 27 22 27 32 0 10 5 21
10 24 12 7 12 142 0 195 -5 19 -14 60 -20 90 -14 65 -32 123 -41 130 -4 3 -9
21 -12 40 -7 47 -41 168 -50 176 -4 4 -7 33 -7 65 0 52 -3 60 -31 83 -49 41
-63 35 -119 -51z m78 -105 c8 -18 22 -50 33 -71 10 -22 19 -47 19 -56 0 -9 4
-21 9 -27 9 -8 51 -182 51 -207 0 -10 -169 -3 -300 11 -58 6 -65 9 -62 27 5
28 83 192 116 240 24 36 103 114 116 115 3 0 11 -15 18 -32z m-31 -442 c34 -4
80 -2 102 3 55 12 65 -2 58 -80 -8 -96 -41 -130 -149 -155 -79 -19 -153 -11
-230 23 -47 21 -59 31 -66 57 -9 34 -9 72 0 96 4 8 9 27 12 41 6 27 6 27 108
24 57 -2 131 -6 165 -9z"/>
</g>
</svg>
