<svg version="1.0" xmlns="http://www.w3.org/2000/svg"
 width="43.000000pt" height="67.000000pt" viewBox="0 0 43.000000 67.000000"
 preserveAspectRatio="xMidYMid meet">
<metadata>
Created by potrace 1.15, written by Peter Selinger 2001-2017
</metadata>
<g transform="translate(0.000000,67.000000) scale(0.100000,-0.100000)"
fill="#000000" stroke="none">
<path d="M214 533 c-5 -15 -58 -129 -95 -205 -28 -57 8 -184 59 -208 54 -25
86 -30 117 -19 45 16 57 53 52 146 -7 104 -16 142 -38 156 -11 7 -19 19 -19
29 0 9 -9 23 -20 31 -11 8 -23 28 -26 46 -8 38 -22 49 -30 24z m67 -150 c11
-23 22 -63 26 -88 6 -45 5 -46 -18 -41 -13 3 -50 8 -81 11 -35 4 -58 11 -58
18 0 19 27 91 51 136 21 41 22 41 41 24 11 -10 28 -37 39 -60z m12 -169 c21
-7 22 -30 1 -52 -28 -27 -84 -19 -116 17 -42 47 -37 54 35 46 34 -3 70 -9 80
-11z"/>
</g>
</svg>
