<svg version="1.0" xmlns="http://www.w3.org/2000/svg"
 width="45.000000pt" height="59.000000pt" viewBox="0 0 45.000000 59.000000"
 preserveAspectRatio="xMidYMid meet">
<metadata>
Created by potrace 1.15, written by Peter Selinger 2001-2017
</metadata>
<g transform="translate(0.000000,59.000000) scale(0.100000,-0.100000)"
fill="#000000" stroke="none">
<path d="M229 476 c-1 -3 -2 -9 -3 -13 -1 -5 -5 -25 -10 -47 -4 -21 -16 -48
-27 -59 -10 -11 -19 -27 -19 -34 0 -7 -4 -13 -10 -13 -5 0 -10 -9 -10 -19 0
-11 -4 -22 -8 -25 -5 -3 -15 -30 -22 -61 -12 -50 -12 -60 2 -83 24 -39 55 -52
131 -52 48 0 79 6 107 20 49 25 52 30 51 95 0 61 -47 167 -98 222 -15 17 -33
39 -39 49 -11 18 -43 32 -45 20z m71 -157 c12 -23 20 -42 18 -44 -11 -9 -65
-13 -78 -5 -12 7 -12 12 -2 22 6 6 12 19 12 28 0 14 18 40 27 40 1 0 12 -18
23 -41z m53 -123 c8 -21 -19 -53 -51 -59 -29 -6 -94 11 -113 30 -5 5 -7 17 -3
26 5 14 21 17 84 17 57 0 79 -4 83 -14z"/>
</g>
</svg>
