<svg version="1.0" xmlns="http://www.w3.org/2000/svg"
 width="76.000000pt" height="85.000000pt" viewBox="0 0 76.000000 85.000000"
 preserveAspectRatio="xMidYMid meet">
<metadata>
Created by potrace 1.15, written by Peter Selinger 2001-2017
</metadata>
<g transform="translate(0.000000,85.000000) scale(0.100000,-0.100000)"
fill="#000000" stroke="none">
<path d="M430 645 c-12 -25 -40 -60 -61 -77 -66 -53 -43 -69 26 -18 86 64 124
68 185 16 37 -30 69 -41 82 -28 8 8 -9 23 -53 51 -35 23 -68 41 -74 41 -5 0
-18 14 -27 30 -25 44 -52 39 -78 -15z"/>
<path d="M176 640 c-35 -42 -41 -88 -28 -215 14 -129 4 -244 -29 -337 -11 -33
-19 -61 -16 -64 7 -8 56 36 62 56 3 10 15 22 26 25 40 13 94 95 87 132 -2 10
-16 20 -33 24 -17 4 -25 7 -18 8 19 2 51 63 58 114 7 47 7 47 -39 47 -25 0
-46 2 -46 5 0 2 18 23 40 45 40 41 58 80 45 99 -3 6 -21 11 -40 11 -37 0 -54
15 -36 33 13 13 15 47 2 47 -5 0 -21 -14 -35 -30z m74 -92 c-1 -21 -26 -48
-44 -48 -22 0 -21 36 2 49 24 14 42 13 42 -1z m-22 -230 c-33 -25 -38 -23 -38
16 0 26 7 39 28 54 27 21 27 21 30 -16 3 -28 -2 -40 -20 -54z m12 -120 c0 -21
-35 -68 -52 -68 -4 0 -8 18 -8 39 0 40 0 40 53 50 4 0 7 -9 7 -21z"/>
<path d="M433 523 c-46 -9 -66 -70 -34 -102 31 -31 133 -30 155 1 21 30 20 71
-2 91 -18 16 -67 20 -119 10z m87 -47 c0 -13 -6 -28 -13 -34 -16 -14 -58 -5
-74 15 -21 26 -4 43 43 43 40 0 44 -2 44 -24z"/>
<path d="M440 353 c-85 -13 -91 -23 -101 -156 -5 -77 -11 -105 -28 -127 -26
-36 -12 -47 23 -19 32 26 59 109 51 164 -5 34 -2 45 22 72 23 27 37 33 83 38
30 3 61 2 68 -3 12 -8 29 -64 52 -181 13 -60 37 -101 60 -101 15 0 13 12 -14
71 -14 34 -25 84 -29 134 -8 100 -23 116 -106 114 -31 -1 -67 -3 -81 -6z"/>
<path d="M440 262 c-31 -25 -20 -76 20 -97 16 -8 33 -15 38 -15 16 0 52 40 58
66 14 54 -66 86 -116 46z m80 -41 c0 -22 -37 -38 -52 -23 -17 17 -1 42 27 42
18 0 25 -5 25 -19z"/>
</g>
</svg>
