<svg version="1.0" xmlns="http://www.w3.org/2000/svg"
 width="66.000000pt" height="78.000000pt" viewBox="0 0 66.000000 78.000000"
 preserveAspectRatio="xMidYMid meet">
<metadata>
Created by potrace 1.15, written by Peter Selinger 2001-2017
</metadata>
<g transform="translate(0.000000,78.000000) scale(0.100000,-0.100000)"
fill="#000000" stroke="none">
<path d="M395 701 c-91 -6 -120 -15 -110 -32 7 -10 196 -12 233 -3 38 11 19
48 -21 42 -7 -1 -52 -4 -102 -7z"/>
<path d="M52 385 c2 -167 8 -308 12 -312 13 -13 40 13 41 40 0 21 9 31 45 49
58 30 73 66 43 106 -14 19 -30 28 -56 30 -47 4 -49 28 -4 37 47 10 67 32 67
75 0 32 -4 38 -35 53 -20 9 -45 17 -55 17 -38 0 -21 31 28 51 54 23 88 69 72
99 -10 19 -59 40 -96 40 -13 0 -26 5 -29 10 -3 6 -13 10 -22 10 -14 0 -15 -32
-11 -305z m108 235 c12 -7 11 -13 -10 -34 -35 -38 -60 -34 -60 9 0 32 3 35 28
35 15 0 34 -5 42 -10z m-26 -180 c33 -12 34 -44 1 -66 -32 -21 -45 -11 -45 37
0 42 4 44 44 29z m10 -186 c23 -9 20 -40 -6 -58 -33 -23 -38 -20 -38 24 0 41
9 47 44 34z"/>
<path d="M515 594 c-16 -2 -78 -6 -137 -9 -86 -6 -106 -10 -101 -21 4 -10 23
-14 64 -14 32 0 59 -4 59 -9 0 -5 -15 -46 -34 -92 -18 -46 -37 -99 -41 -116
-8 -40 -30 -43 -39 -7 -5 19 1 43 20 81 24 51 25 56 10 71 -22 22 -33 9 -56
-74 -27 -92 -26 -101 14 -138 33 -31 33 -31 23 -103 -12 -87 -3 -146 21 -141
14 3 18 20 24 93 16 187 49 323 98 403 19 31 21 32 94 32 76 0 97 10 76 35
-12 14 -26 16 -95 9z"/>
<path d="M455 463 c-33 -8 -42 -23 -17 -29 26 -7 26 -10 7 -89 -8 -33 -18
-105 -21 -161 -6 -86 -5 -102 9 -107 28 -11 35 16 39 153 4 134 16 186 41 177
8 -3 12 -45 13 -143 0 -180 -1 -174 29 -174 25 0 25 1 24 78 -2 136 -14 271
-25 282 -13 13 -71 21 -99 13z"/>
</g>
</svg>
