<svg version="1.0" xmlns="http://www.w3.org/2000/svg"
 width="72.000000pt" height="103.000000pt" viewBox="0 0 72.000000 103.000000"
 preserveAspectRatio="xMidYMid meet">
<metadata>
Created by potrace 1.15, written by Peter Selinger 2001-2017
</metadata>
<g transform="translate(0.000000,103.000000) scale(0.100000,-0.100000)"
fill="#000000" stroke="none">
<path d="M552 978 c-7 -7 -12 -27 -12 -44 0 -20 -7 -38 -18 -46 -28 -21 -62
-69 -62 -89 0 -24 28 -25 37 -2 9 22 35 53 45 53 5 0 8 -29 8 -65 0 -50 3 -65
14 -65 18 0 23 20 24 89 1 29 3 56 6 58 9 10 56 -30 62 -53 6 -25 30 -39 39
-23 16 25 -8 68 -55 101 -37 25 -50 40 -52 62 -3 33 -18 42 -36 24z"/>
<path d="M311 961 c-6 -10 -8 -21 -5 -24 3 -3 -11 -29 -30 -57 -52 -76 -47
-137 5 -70 13 16 28 30 32 30 4 0 7 -32 6 -70 -2 -77 0 -84 25 -74 14 5 16 19
15 81 -1 40 1 76 4 80 4 3 20 -9 35 -27 29 -32 52 -34 52 -4 0 8 -20 34 -45
57 -31 30 -45 52 -45 70 0 20 -5 27 -20 27 -10 0 -24 -8 -29 -19z"/>
<path d="M18 868 c-3 -7 -4 -92 -2 -188 2 -174 2 -174 31 -197 65 -53 193 -6
167 61 -4 9 -1 16 6 16 10 0 10 3 1 14 -9 10 -11 58 -9 158 3 139 2 143 -18
146 -19 3 -23 -4 -30 -55 -8 -49 -12 -58 -34 -63 -14 -3 -35 -4 -47 -2 -19 4
-22 11 -25 60 -2 43 -7 58 -19 60 -9 2 -19 -3 -21 -10z m143 -190 c4 -156 -3
-181 -53 -171 -29 6 -36 25 -45 126 -7 80 -2 87 52 87 45 0 45 0 46 -42z"/>
<path d="M251 646 c-18 -21 -2 -26 94 -26 100 0 94 26 85 -384 0 -28 -23 -5
-38 41 -8 21 -17 47 -21 58 -27 69 -29 85 -14 115 20 41 9 82 -28 104 -42 25
-60 8 -30 -30 11 -15 21 -30 21 -34 0 -4 -18 -30 -40 -56 -35 -43 -40 -55 -40
-99 0 -28 5 -56 11 -62 6 -6 11 -32 12 -59 3 -51 32 -114 54 -114 17 0 28 49
14 63 -6 6 -11 26 -11 44 0 18 -3 33 -7 33 -15 0 -33 54 -33 97 0 36 3 43 20
43 15 0 20 -7 20 -29 0 -17 4 -33 10 -36 5 -3 17 -29 25 -58 22 -75 30 -85 55
-69 19 12 20 10 20 -57 0 -69 0 -69 -32 -77 -18 -4 -83 -7 -144 -6 -121 1
-152 -8 -119 -33 11 -9 30 -13 45 -10 14 2 43 5 65 5 148 2 329 3 382 1 65 -2
84 9 62 36 -10 12 -23 14 -59 8 -47 -7 -141 -7 -149 0 -5 6 -8 117 -3 133 2 6
10 12 17 12 17 0 42 55 62 135 17 69 28 80 42 42 15 -40 2 -128 -30 -190 -34
-69 -34 -67 -13 -67 37 0 79 90 88 190 5 62 -7 94 -48 131 -46 40 -48 72 -6
91 17 7 30 21 30 30 0 39 -73 8 -96 -40 -14 -31 -14 -35 1 -52 13 -14 16 -28
11 -52 -4 -18 -10 -53 -15 -78 -11 -60 -29 -103 -40 -96 -9 6 -5 336 4 364 3
8 32 12 95 12 82 0 91 2 88 18 -3 15 -22 17 -205 19 -156 2 -203 -1 -212 -11z"/>
</g>
</svg>
