<svg version="1.0" xmlns="http://www.w3.org/2000/svg"
 width="66.000000pt" height="80.000000pt" viewBox="0 0 66.000000 80.000000"
 preserveAspectRatio="xMidYMid meet">
<metadata>
Created by potrace 1.15, written by Peter Selinger 2001-2017
</metadata>
<g transform="translate(0.000000,80.000000) scale(0.100000,-0.100000)"
fill="#000000" stroke="none">
<path d="M378 674 c-54 -29 -25 -84 44 -84 54 0 46 -21 -18 -41 -44 -14 -49
-19 -52 -47 -3 -31 -2 -32 35 -32 21 0 58 -9 82 -20 51 -24 51 -24 51 -6 0 19
-44 46 -77 46 -38 0 -73 10 -73 21 0 5 26 16 58 25 31 9 64 23 72 31 13 13 12
17 -13 39 -21 18 -40 24 -73 24 -24 0 -44 5 -44 10 0 14 44 30 80 30 16 0 32
5 35 10 10 16 -76 11 -107 -6z"/>
<path d="M147 673 c-16 -15 -5 -23 31 -23 78 0 83 -33 8 -59 -62 -20 -77 -42
-52 -70 14 -15 31 -21 64 -21 44 0 45 0 28 -19 -10 -11 -38 -29 -62 -41 -25
-11 -50 -31 -56 -45 -17 -38 0 -43 28 -8 13 17 37 34 54 38 98 21 108 117 11
101 -24 -4 -42 -2 -46 4 -11 18 14 38 55 45 74 12 89 61 29 92 -26 14 -81 17
-92 6z"/>
<path d="M310 422 c0 -10 43 -41 94 -67 56 -29 66 -51 73 -157 7 -112 15 -138
44 -138 18 0 20 4 14 23 -4 12 -11 66 -14 120 -6 98 -6 98 -46 135 -22 21 -65
50 -96 65 -60 29 -69 31 -69 19z"/>
<path d="M290 354 c-25 -7 -58 -13 -73 -13 -35 -1 -110 -39 -102 -51 8 -13 38
-13 52 1 5 5 39 17 74 25 35 8 74 16 87 19 12 3 22 12 22 20 0 17 1 17 -60 -1z"/>
<path d="M375 301 c-22 -11 -55 -25 -74 -32 -50 -19 -88 -55 -102 -97 -6 -20
-15 -39 -19 -42 -14 -9 -16 -83 -3 -87 14 -5 33 34 57 119 18 61 16 60 149
116 26 12 47 26 47 31 0 15 -9 14 -55 -8z"/>
<path d="M376 202 c-35 -19 -56 -40 -72 -69 -12 -23 -31 -55 -43 -71 -27 -38
-26 -42 3 -42 19 0 28 10 46 54 26 66 66 112 108 127 18 6 32 15 32 20 0 15
-23 10 -74 -19z"/>
</g>
</svg>
