<svg version="1.0" xmlns="http://www.w3.org/2000/svg"
 width="64.000000pt" height="85.000000pt" viewBox="0 0 64.000000 85.000000"
 preserveAspectRatio="xMidYMid meet">
<metadata>
Created by potrace 1.15, written by Peter Selinger 2001-2017
</metadata>
<g transform="translate(0.000000,85.000000) scale(0.100000,-0.100000)"
fill="#000000" stroke="none">
<path d="M484 728 c-35 -33 -64 -65 -64 -70 0 -15 39 -8 72 14 35 23 98 93 98
109 0 27 -49 2 -106 -53z"/>
<path d="M55 767 c-11 -26 1 -58 37 -99 35 -40 74 -55 98 -38 13 9 11 13 -10
30 -32 25 -32 26 -79 80 -33 38 -40 42 -46 27z"/>
<path d="M232 773 c-13 -3 -26 -11 -29 -19 -6 -16 33 -64 53 -64 30 0 21 -31
-21 -67 -57 -50 -130 -161 -145 -221 -20 -79 -23 -119 -10 -127 19 -12 30 7
50 92 17 71 62 163 80 163 4 0 22 -5 39 -11 33 -12 33 -12 -3 -48 -43 -45 -58
-83 -50 -128 5 -29 14 -38 48 -52 41 -18 41 -18 9 -35 -18 -9 -37 -25 -43 -35
-26 -50 4 -111 55 -111 32 0 32 14 -1 53 -22 26 -23 32 -11 44 8 8 32 17 55
20 34 5 42 2 52 -17 11 -20 8 -26 -24 -59 -27 -28 -36 -45 -36 -71 0 -44 12
-63 33 -54 18 6 32 39 23 53 -3 5 10 28 29 51 49 58 44 93 -18 130 -31 19 -31
19 0 30 79 28 83 120 8 190 -26 25 -26 25 1 46 18 15 25 27 20 39 -6 16 -16
17 -83 11 -77 -6 -77 -6 -43 29 19 19 39 35 45 35 5 0 33 -16 62 -35 79 -53
110 -114 122 -240 5 -61 9 -70 26 -70 28 0 31 56 10 152 -19 83 -52 129 -134
185 -48 34 -49 31 37 99 36 29 -11 50 -111 48 -40 -1 -82 -4 -95 -6z m128 -41
c0 -5 -11 -15 -25 -22 -23 -12 -28 -12 -48 8 -21 22 -21 22 26 22 26 0 47 -4
47 -8z m-12 -279 c2 -9 -8 -13 -33 -13 -33 0 -36 2 -25 15 15 18 51 16 58 -2z
m32 -57 c0 -9 -20 -15 -67 -19 -73 -7 -78 -6 -70 18 8 20 137 22 137 1z m-16
-55 c7 -11 -27 -21 -71 -21 -35 0 -53 16 -26 23 32 8 92 7 97 -2z"/>
</g>
</svg>
