<svg version="1.0" xmlns="http://www.w3.org/2000/svg"
 width="89.000000pt" height="199.000000pt" viewBox="0 0 89.000000 199.000000"
 preserveAspectRatio="xMidYMid meet">
<metadata>
Created by potrace 1.15, written by Peter Selinger 2001-2017
</metadata>
<g transform="translate(0.000000,199.000000) scale(0.100000,-0.100000)"
fill="#000000" stroke="none">
<path d="M288 1862 c-1 -5 -30 -26 -63 -48 -95 -63 -134 -139 -180 -358 -13
-60 5 -117 51 -163 24 -23 48 -43 54 -43 24 0 20 32 -9 74 -32 46 -38 66 -21
66 6 0 10 -4 10 -8 0 -12 46 -32 71 -32 11 0 22 7 25 15 7 16 -17 45 -38 45
-7 1 -28 14 -46 29 -34 29 -34 29 -19 72 8 24 19 45 25 47 6 2 23 -11 38 -28
26 -29 83 -70 98 -70 3 0 6 6 6 14 0 17 -92 116 -108 116 -20 0 -22 17 -7 66
11 38 31 64 95 126 44 43 80 80 80 83 0 9 -58 5 -62 -3z"/>
<path d="M670 1756 c0 -7 7 -19 14 -26 15 -12 76 -102 76 -112 0 -9 -34 -43
-73 -71 -61 -46 -22 -65 54 -26 57 28 71 20 67 -38 -3 -46 -3 -46 -77 -73 -41
-14 -76 -31 -78 -37 -5 -13 30 -23 48 -13 8 4 35 10 62 13 44 6 47 5 47 -16 0
-12 -9 -37 -21 -56 -11 -18 -18 -36 -15 -38 9 -9 54 25 73 53 23 36 25 194 1
249 -19 46 -31 78 -32 85 -1 3 -11 16 -23 30 -13 13 -23 27 -23 31 0 8 -81 59
-93 59 -4 0 -7 -6 -7 -14z"/>
<path d="M445 1634 c-69 -7 -155 -26 -155 -35 0 -5 7 -9 15 -9 9 0 18 -8 22
-17 3 -10 12 -25 18 -33 7 -8 18 -39 25 -68 23 -98 -9 -172 -83 -194 -23 -6
-57 -20 -75 -30 -18 -10 -42 -18 -54 -18 -19 0 -20 -2 -6 -17 18 -22 38 -315
38 -560 0 -90 3 -163 8 -163 4 0 13 9 20 20 10 16 12 94 11 323 -1 229 1 309
11 327 22 41 53 66 100 80 83 25 83 25 76 187 -7 161 -7 163 72 163 44 0 38
23 62 -200 14 -134 13 -132 90 -171 58 -29 70 -39 78 -69 6 -19 12 -165 13
-325 2 -263 10 -355 30 -355 20 0 32 497 15 664 -7 69 -12 84 -35 105 -15 15
-49 32 -75 39 -69 18 -76 28 -76 117 0 42 -5 97 -12 122 -11 45 -11 46 22 73
24 19 29 29 20 35 -14 9 -118 14 -175 9z"/>
<path d="M440 1113 c-30 -8 -71 -18 -90 -22 -29 -6 -35 -11 -33 -31 1 -14 4
-143 7 -287 4 -249 5 -264 26 -292 11 -17 30 -37 41 -45 18 -12 19 -17 7 -37
-7 -13 -15 -26 -18 -29 -29 -26 -63 -120 -44 -120 8 0 44 40 44 49 0 3 14 22
31 41 17 19 35 45 40 58 13 34 39 39 61 13 25 -32 23 -56 -11 -99 -30 -39 -61
-117 -61 -155 0 -12 16 -40 35 -62 19 -22 35 -45 35 -51 0 -12 47 -40 55 -32
4 3 -8 34 -25 69 -16 34 -30 68 -30 75 0 7 -5 14 -11 16 -19 6 -1 62 31 97 38
41 46 73 33 133 -8 38 -6 58 7 96 15 43 20 87 39 345 3 51 2 92 -3 98 -16 15
-33 10 -33 -8 1 -52 -4 -83 -12 -83 -6 0 -22 12 -37 28 -23 23 -27 36 -29 92
-3 82 -2 80 -20 80 -11 0 -14 -13 -13 -52 1 -68 -14 -103 -51 -123 -17 -8 -32
-15 -34 -15 -7 0 -5 167 2 177 3 5 33 15 66 22 102 21 140 35 143 54 3 14 -4
17 -45 16 -26 -1 -73 -8 -103 -16z m85 -293 c3 -5 15 -10 26 -10 16 0 19 -7
19 -40 0 -27 -5 -42 -17 -48 -28 -15 -130 -23 -158 -12 -22 8 -25 16 -25 54 0
43 2 46 33 55 44 13 114 13 122 1z m23 -187 c-3 -38 -3 -38 -68 -44 -99 -10
-130 10 -98 61 11 17 24 20 91 20 78 0 78 0 75 -37z m0 -95 c-2 -6 -21 -25
-41 -41 -32 -26 -41 -29 -68 -21 -36 10 -55 34 -46 58 5 13 21 16 83 16 54 0
75 -3 72 -12z"/>
<path d="M275 378 c-11 -6 -22 -14 -25 -17 -3 -4 -22 -17 -42 -31 -40 -26 -52
-52 -35 -69 19 -19 14 -22 124 81 12 12 19 27 16 34 -6 17 -12 17 -38 2z"/>
<path d="M645 358 c-9 -24 31 -163 47 -166 22 -4 28 20 19 77 -11 72 -52 127
-66 89z"/>
</g>
</svg>
