<svg version="1.0" xmlns="http://www.w3.org/2000/svg"
 width="111.000000pt" height="175.000000pt" viewBox="0 0 111.000000 175.000000"
 preserveAspectRatio="xMidYMid meet">
<metadata>
Created by potrace 1.15, written by Peter Selinger 2001-2017
</metadata>
<g transform="translate(0.000000,175.000000) scale(0.100000,-0.100000)"
fill="#000000" stroke="none">
<path d="M720 1649 c-36 -5 -110 -16 -165 -24 -55 -8 -116 -15 -136 -15 -20 0
-49 -4 -65 -9 -16 -5 -55 -17 -87 -26 -33 -10 -56 -22 -54 -29 4 -12 99 -13
182 -1 48 7 51 6 63 -19 6 -14 14 -54 18 -89 6 -58 4 -65 -20 -94 -31 -36
-121 -83 -176 -90 -34 -5 -45 -1 -77 26 -59 50 -95 71 -118 71 -26 0 -23 -5
46 -83 43 -49 43 -49 -19 -108 -34 -33 -62 -66 -62 -74 0 -14 25 -20 59 -15
19 2 101 69 101 82 0 16 28 38 48 38 34 0 84 22 166 74 81 51 81 51 161 48 44
-1 84 -7 89 -12 6 -6 18 -10 28 -10 10 0 40 -10 66 -21 94 -42 108 -47 143
-54 47 -9 71 15 44 45 -17 19 -16 21 29 71 53 58 62 95 21 85 -14 -4 -42 -22
-62 -41 -46 -44 -88 -58 -138 -47 -37 7 -40 11 -57 67 -10 33 -21 85 -24 116
-6 56 -6 56 64 67 39 7 80 12 92 12 12 0 29 7 37 16 40 40 -63 63 -197 43z
m-59 -106 c8 -170 3 -183 -66 -164 -32 9 -44 19 -57 49 -19 40 -23 89 -10 109
7 11 41 19 100 22 24 1 32 -3 33 -16z"/>
<path d="M574 1160 c-11 -4 -56 -14 -100 -21 -44 -7 -107 -25 -141 -42 -55
-26 -63 -34 -69 -63 -15 -78 32 -155 94 -154 50 1 90 -12 113 -36 21 -23 22
-33 25 -206 6 -337 9 -393 22 -415 16 -29 44 -44 62 -33 11 7 12 14 2 35 -14
30 -16 94 -3 113 4 8 26 16 48 19 34 4 44 1 66 -21 59 -59 45 -123 -46 -208
-34 -32 -66 -58 -70 -58 -5 0 -33 -7 -63 -16 -46 -13 -53 -18 -43 -30 8 -9 31
-14 73 -13 61 1 61 1 139 87 43 48 85 98 92 112 8 14 15 55 15 95 0 39 5 88
10 110 13 51 32 279 35 410 1 68 -2 109 -11 127 -8 15 -14 36 -14 46 0 11 -7
26 -16 33 -14 11 -19 10 -34 -8 -14 -18 -24 -21 -59 -16 -33 5 -48 1 -79 -20
-76 -53 -168 -70 -221 -42 -25 12 -30 22 -33 61 -4 49 7 69 40 77 33 9 138 26
194 32 63 7 81 21 53 42 -21 15 -50 16 -81 3z m156 -235 c32 -17 38 -43 21
-88 -11 -29 -48 -40 -105 -32 -89 14 -97 64 -18 108 56 31 64 32 102 12z m17
-207 c20 -21 12 -56 -21 -91 -26 -28 -29 -28 -121 -12 -11 2 -26 4 -32 4 -30
2 -8 105 24 115 37 10 133 0 150 -16z m-102 -159 c51 -14 75 -35 75 -66 0 -38
-17 -60 -56 -73 -41 -14 -93 2 -96 29 0 9 -2 28 -3 42 -1 14 -6 32 -10 39 -5
8 -1 18 10 27 23 16 29 16 80 2z"/>
<path d="M905 414 c4 -11 11 -32 16 -49 5 -16 14 -41 20 -55 7 -14 16 -35 22
-47 35 -77 108 -86 90 -11 -3 12 -14 35 -25 50 -10 14 -18 30 -18 35 -1 17
-66 81 -89 88 -21 6 -23 5 -16 -11z"/>
<path d="M297 370 c-45 -49 -84 -110 -93 -145 -7 -27 11 -75 28 -75 13 0 57
52 58 68 0 6 5 12 10 12 6 0 10 7 10 15 0 15 34 82 51 100 13 13 11 34 -5 51
-20 19 -19 19 -59 -26z"/>
</g>
</svg>
