<svg version="1.0" xmlns="http://www.w3.org/2000/svg"
 width="115.000000pt" height="279.000000pt" viewBox="0 0 115.000000 279.000000"
 preserveAspectRatio="xMidYMid meet">
<metadata>
Created by potrace 1.15, written by Peter Selinger 2001-2017
</metadata>
<g transform="translate(0.000000,279.000000) scale(0.100000,-0.100000)"
fill="#000000" stroke="none">
<path d="M588 2705 c-3 -3 -79 -8 -169 -10 -148 -5 -239 -18 -239 -34 0 -4 7
-17 16 -29 11 -16 25 -22 53 -22 36 0 40 -3 60 -45 12 -25 21 -49 21 -55 0 -6
4 -18 9 -28 5 -9 13 -28 19 -42 23 -58 46 -109 78 -173 46 -91 44 -115 -13
-174 -13 -13 -23 -28 -23 -34 0 -5 -20 -30 -45 -55 -25 -24 -45 -48 -45 -53 0
-5 -7 -12 -16 -15 -16 -6 -43 18 -44 37 0 15 -86 120 -129 160 -25 23 -49 37
-61 35 -19 -3 -18 -5 8 -45 15 -23 40 -55 54 -72 31 -34 58 -87 78 -148 11
-36 11 -44 -3 -57 -9 -9 -19 -16 -24 -16 -18 -1 -45 -52 -39 -76 9 -35 35 -30
86 16 24 22 49 40 55 40 6 0 21 11 32 24 11 13 25 25 29 27 10 5 74 85 74 93
0 3 24 31 53 62 52 56 52 56 117 15 36 -23 84 -51 108 -63 23 -12 42 -26 42
-30 0 -4 7 -8 15 -8 9 0 33 -9 55 -20 22 -11 53 -20 69 -20 16 0 33 -4 36 -10
3 -5 19 -10 36 -10 16 0 29 -4 29 -10 0 -5 23 -10 50 -10 43 0 50 3 50 19 0
12 -12 25 -30 33 -16 7 -30 17 -30 21 0 11 62 101 72 105 4 2 8 10 8 19 0 8 7
21 15 29 17 18 19 42 5 64 -9 13 -12 12 -21 -5 -16 -28 -167 -175 -180 -175
-6 0 -25 6 -42 14 -18 8 -70 31 -116 51 -110 49 -160 84 -161 112 0 12 -4 25
-10 28 -5 3 -10 15 -10 26 0 10 5 19 10 19 6 0 10 5 10 12 0 6 20 52 44 102
25 50 56 129 71 176 39 124 54 150 86 150 30 0 45 25 28 46 -8 10 -40 14 -119
14 -58 0 -109 -2 -112 -5z m75 -85 c3 -11 2 -22 -3 -25 -4 -3 -10 -19 -13 -37
-9 -55 -18 -92 -28 -115 -5 -13 -13 -33 -18 -45 -4 -13 -18 -43 -31 -68 -13
-25 -28 -55 -34 -67 -6 -13 -14 -23 -17 -23 -9 0 -69 118 -69 136 0 8 -3 14
-8 14 -4 0 -13 19 -21 43 -22 66 -50 171 -51 184 0 12 20 14 221 20 59 2 67 0
72 -17z"/>
<path d="M522 1819 c-41 -12 -35 -23 22 -38 66 -16 110 -14 130 7 15 18 15 19
-9 30 -30 14 -96 14 -143 1z"/>
<path d="M791 1781 c-12 -16 -21 -34 -21 -39 0 -6 -3 -12 -8 -14 -4 -1 -32
-52 -62 -111 -65 -130 -79 -135 -125 -44 -36 71 -121 162 -171 183 -51 21 -64
4 -22 -28 67 -52 114 -106 146 -167 12 -23 22 -45 22 -47 0 -2 -34 -4 -76 -4
-72 0 -111 -10 -126 -34 -4 -5 -4 -14 -2 -18 7 -11 105 -10 189 3 39 6 119 10
179 11 103 0 110 -1 133 -25 24 -24 26 -31 31 -183 5 -157 5 -157 -24 -137
-16 12 -38 30 -50 40 -11 10 -27 23 -36 28 -8 6 -40 27 -70 48 -55 38 -55 38
-94 13 -22 -14 -44 -29 -49 -33 -6 -5 -33 -24 -60 -43 -73 -51 -105 -81 -105
-100 0 -9 -8 -32 -17 -51 -25 -49 -31 -363 -9 -507 17 -110 34 -151 80 -193
29 -26 29 -26 8 -49 -32 -35 -52 -84 -52 -130 0 -23 -8 -55 -17 -71 -15 -25
-23 -29 -64 -29 -31 0 -55 7 -72 20 -34 27 -59 26 -55 -2 6 -43 113 -79 192
-64 43 8 76 56 76 110 0 46 30 115 53 122 61 19 124 -30 113 -90 -8 -44 6 -63
37 -49 35 16 44 83 19 132 -20 38 -19 61 2 61 16 0 94 74 123 116 41 58 83
201 83 282 0 21 5 43 12 50 6 6 12 26 13 44 2 18 6 50 10 71 4 21 9 57 11 80
2 23 8 89 14 147 13 127 16 321 5 372 -11 56 -25 63 -134 63 -111 0 -109 -5
-60 104 39 87 70 144 83 153 6 4 5 12 -3 22 -19 22 -27 20 -50 -13z m-117
-601 c18 0 54 -28 128 -102 63 -62 68 -70 68 -110 -1 -67 -16 -80 -86 -73 -33
3 -115 8 -184 12 -152 7 -170 15 -170 80 0 47 -2 44 85 118 17 14 34 25 39 25
5 0 16 8 25 18 23 26 54 42 69 37 8 -3 19 -5 26 -5z m4 -341 c172 0 172 0 172
-34 0 -29 -20 -134 -36 -187 -5 -18 -61 -19 -351 -9 -33 1 -33 1 -33 115 0
122 3 130 50 120 14 -3 103 -5 198 -5z m110 -304 c10 -10 -12 -68 -34 -90 -13
-13 -24 -28 -24 -32 0 -10 -56 -53 -91 -71 -55 -29 -170 37 -184 105 -4 15
-10 38 -15 50 -20 48 -12 50 173 46 94 -2 173 -6 175 -8z"/>
<path d="M141 297 c-8 -11 -7 -18 7 -30 15 -14 37 -16 115 -14 98 2 123 11
111 40 -5 14 -23 17 -114 17 -78 0 -111 -4 -119 -13z"/>
<path d="M777 223 c-8 -13 27 -75 48 -87 10 -6 26 -17 33 -24 8 -7 21 -11 29
-8 8 3 17 6 19 6 17 0 -3 36 -42 74 -42 42 -76 57 -87 39z"/>
</g>
</svg>
