<svg version="1.0" xmlns="http://www.w3.org/2000/svg"
 width="63.000000pt" height="125.000000pt" viewBox="0 0 63.000000 125.000000"
 preserveAspectRatio="xMidYMid meet">
<metadata>
Created by potrace 1.15, written by Peter Selinger 2001-2017
</metadata>
<g transform="translate(0.000000,125.000000) scale(0.100000,-0.100000)"
fill="#000000" stroke="none">
<path d="M56 1138 c-3 -13 -8 -176 -11 -363 -6 -421 -11 -527 -30 -635 -18
-104 -18 -100 -1 -100 21 0 47 63 52 128 9 116 15 178 20 210 3 18 0 48 -6 67
-8 25 -8 38 0 52 10 16 22 18 84 15 81 -4 97 -16 95 -72 -3 -66 13 -294 22
-317 5 -14 9 -35 9 -49 0 -14 7 -27 15 -31 31 -11 32 0 16 147 -7 58 -15 112
-18 120 -10 29 -12 246 -3 395 16 264 19 299 29 352 11 58 7 83 -15 83 -18 0
-30 -31 -39 -103 -7 -57 -7 -57 -97 -57 -91 0 -91 0 -84 70 4 39 4 79 1 90 -9
27 -34 25 -39 -2z m210 -290 c-4 -51 -10 -136 -13 -188 -3 -52 -6 -96 -8 -98
-2 -2 -38 -4 -81 -5 -78 -2 -78 -2 -75 178 2 105 7 185 13 193 7 8 39 12 91
12 80 0 80 0 73 -92z"/>
<path d="M121 786 c-15 -18 5 -26 65 -26 37 0 44 3 44 20 0 17 -7 20 -49 20
-29 0 -53 -6 -60 -14z"/>
<path d="M556 1088 c-66 -38 -206 -214 -206 -258 0 -16 41 -8 50 10 4 8 14 28
21 45 19 39 106 125 152 150 27 14 37 26 35 40 -4 23 -25 29 -52 13z"/>
<path d="M543 845 c-7 -8 -13 -18 -13 -23 0 -5 -7 -15 -16 -22 -18 -15 -68
-113 -78 -153 -3 -15 -11 -27 -16 -27 -6 0 -10 -9 -10 -19 0 -11 -4 -23 -10
-26 -11 -7 -14 -48 -4 -58 14 -13 34 7 34 34 0 16 4 29 8 29 5 0 14 18 21 40
6 22 15 40 19 40 4 0 13 15 21 33 8 17 31 55 52 83 43 56 47 69 23 78 -19 7
-16 8 -31 -9z"/>
<path d="M551 528 c-12 -29 -31 -72 -42 -96 -10 -23 -19 -53 -19 -65 0 -12 -7
-54 -16 -92 -31 -137 -37 -265 -13 -265 22 0 29 42 44 280 1 24 8 46 14 48 6
2 11 12 11 23 0 27 57 149 81 176 24 25 18 43 -15 43 -18 0 -27 -11 -45 -52z"/>
</g>
</svg>
