<svg version="1.0" xmlns="http://www.w3.org/2000/svg"
 width="53.000000pt" height="75.000000pt" viewBox="0 0 53.000000 75.000000"
 preserveAspectRatio="xMidYMid meet">
<metadata>
Created by potrace 1.15, written by Peter Selinger 2001-2017
</metadata>
<g transform="translate(0.000000,75.000000) scale(0.100000,-0.100000)"
fill="#000000" stroke="none">
<path d="M186 601 c-4 -6 -4 -31 -1 -54 6 -40 4 -46 -30 -81 -35 -36 -41 -56
-18 -63 6 -2 18 3 26 12 17 16 37 20 37 6 0 -5 -16 -26 -36 -47 -30 -33 -34
-44 -29 -69 4 -16 10 -63 13 -103 4 -40 12 -72 17 -72 14 -1 21 86 12 142 -8
46 -6 49 28 83 19 20 35 40 35 45 0 6 7 10 15 10 11 0 15 -11 15 -41 0 -46 18
-128 33 -146 14 -18 35 -16 67 7 16 11 34 18 42 15 7 -3 20 -1 28 5 12 7 12
14 2 43 -7 18 -12 61 -12 95 0 68 -21 116 -68 157 -36 32 -48 31 -64 -5 -7
-16 -16 -30 -20 -30 -5 0 -8 -6 -8 -14 0 -15 -18 -31 -26 -24 -2 3 -11 32 -20
64 -16 63 -28 82 -38 65z m175 -113 c21 -24 26 -53 7 -42 -29 18 -57 48 -52
56 9 14 26 9 45 -14z m-51 -38 c0 -5 -4 -10 -10 -10 -5 0 -10 5 -10 10 0 6 5
10 10 10 6 0 10 -4 10 -10z m55 -50 c3 -5 -1 -10 -9 -10 -8 0 -18 5 -21 10 -3
6 1 10 9 10 8 0 18 -4 21 -10z m-40 -40 c3 -5 1 -10 -4 -10 -6 0 -11 5 -11 10
0 6 2 10 4 10 3 0 8 -4 11 -10z m57 -47 c25 -23 23 -30 -17 -49 -45 -21 -53
-13 -32 31 19 40 23 41 49 18z"/>
</g>
</svg>
