<svg version="1.0" xmlns="http://www.w3.org/2000/svg"
 width="68.000000pt" height="128.000000pt" viewBox="0 0 68.000000 128.000000"
 preserveAspectRatio="xMidYMid meet">
<metadata>
Created by potrace 1.15, written by Peter Selinger 2001-2017
</metadata>
<g transform="translate(0.000000,128.000000) scale(0.100000,-0.100000)"
fill="#000000" stroke="none">
<path d="M327 1092 c-10 -10 -17 -30 -17 -44 0 -24 -3 -25 -71 -32 -38 -3 -85
-12 -102 -20 -61 -25 -61 -27 -69 -295 -9 -304 -13 -369 -34 -598 -7 -71 1
-90 23 -60 29 38 41 172 50 602 3 149 9 272 14 273 5 2 9 10 9 17 0 39 205 57
350 31 124 -23 130 -27 130 -88 1 -342 9 -819 15 -840 4 -16 11 -28 16 -28 21
0 26 43 18 175 -4 77 -8 280 -8 452 -1 312 -1 312 -38 338 -26 17 -51 25 -80
25 -23 0 -45 5 -48 10 -3 6 -28 10 -56 10 -48 0 -49 1 -49 29 0 16 -7 37 -16
45 -19 20 -17 20 -37 -2z"/>
<path d="M150 853 c0 -4 10 -13 23 -18 25 -11 27 -33 13 -240 -26 -416 -27
-455 -6 -455 23 0 29 37 29 192 1 169 17 464 27 479 3 5 14 9 25 9 19 0 20 -5
14 -92 -8 -129 -16 -368 -16 -528 -1 -113 1 -135 14 -138 23 -5 25 15 25 233
0 110 3 265 8 345 9 160 8 199 -1 208 -10 10 -155 15 -155 5z"/>
<path d="M366 822 c-13 -13 -4 -21 27 -24 30 -3 32 -6 38 -46 6 -50 -8 -72
-47 -72 -33 0 -38 -26 -38 -202 -1 -146 -1 -148 24 -165 44 -31 143 -35 172
-6 18 18 19 34 19 174 0 85 -1 164 -3 177 -4 28 -24 42 -61 42 -27 0 -28 1
-25 48 3 47 3 47 61 50 65 3 76 18 20 25 -51 7 -180 7 -187 -1z m158 -183 c7
-39 8 -229 1 -229 -3 0 -18 9 -33 20 -27 20 -27 20 -24 130 3 107 4 110 26
110 18 0 25 -7 30 -31z m-91 -91 c-2 -97 -5 -115 -22 -132 -11 -11 -24 -17
-28 -13 -5 6 -8 123 -4 209 1 20 27 48 44 48 9 0 12 -30 10 -112z m37 -141 c0
-8 9 -22 20 -32 38 -34 20 -55 -45 -55 -18 0 -38 7 -45 15 -11 13 -9 20 11 43
39 44 59 54 59 29z"/>
</g>
</svg>
