<svg version="1.0" xmlns="http://www.w3.org/2000/svg"
 width="79.000000pt" height="121.000000pt" viewBox="0 0 79.000000 121.000000"
 preserveAspectRatio="xMidYMid meet">
<metadata>
Created by potrace 1.15, written by Peter Selinger 2001-2017
</metadata>
<g transform="translate(0.000000,121.000000) scale(0.100000,-0.100000)"
fill="#000000" stroke="none">
<path d="M317 1058 c-59 -93 -70 -111 -120 -208 -28 -52 -54 -96 -59 -98 -4
-2 -8 -8 -8 -14 0 -5 -13 -29 -30 -53 -16 -24 -30 -51 -30 -59 0 -9 -4 -16
-10 -16 -14 0 -13 -67 2 -76 15 -9 57 40 88 103 13 27 26 50 30 53 3 3 14 22
24 43 27 59 69 74 214 78 102 3 125 1 138 -13 24 -24 11 -35 -49 -43 -51 -7
-77 -19 -77 -36 0 -5 8 -9 18 -9 11 0 23 -10 29 -23 10 -21 8 -22 -38 -23 -27
-1 -55 -7 -64 -14 -10 -8 -15 -9 -15 -1 0 14 -89 15 -125 1 -23 -9 -25 -13
-15 -25 7 -8 23 -15 35 -15 34 0 55 -10 55 -26 0 -8 4 -14 9 -14 5 0 13 -9 16
-20 4 -11 18 -32 31 -45 24 -25 24 -25 -36 -85 -33 -33 -63 -60 -67 -60 -12 0
-83 -70 -83 -81 0 -5 11 -14 25 -21 19 -8 28 -8 40 2 18 15 17 16 45 -34 23
-41 17 -56 -22 -56 -10 0 -18 -4 -18 -10 0 -5 -9 -10 -21 -10 -31 0 -20 -34
13 -38 41 -5 118 37 181 100 59 58 59 58 52 15 -4 -23 -11 -46 -15 -52 -20
-25 -22 -84 -4 -114 17 -29 23 -31 72 -31 58 0 112 27 112 57 0 13 -9 14 -52
9 -66 -9 -60 -9 -80 -7 -22 1 -23 29 -3 51 20 23 44 116 34 132 -17 27 -8 45
31 63 22 10 40 21 40 25 0 3 16 14 36 23 30 15 34 21 28 40 -14 44 -69 77
-130 77 -34 0 -42 8 -25 26 5 5 14 26 21 47 10 32 16 37 41 37 22 0 29 5 29
20 0 11 -6 20 -13 20 -23 0 -67 25 -67 38 0 8 12 12 33 11 52 -2 87 -10 87
-20 0 -5 12 -27 26 -49 43 -65 88 -48 55 20 -30 59 -61 112 -77 127 -7 8 -26
35 -41 61 -15 26 -39 58 -53 72 -15 14 -37 44 -49 67 -13 22 -37 51 -52 62
-16 12 -29 27 -29 35 0 13 -41 36 -65 36 -8 0 -29 -24 -48 -52z m114 -75 c27
-32 59 -94 54 -104 -8 -12 -182 -12 -189 0 -7 11 31 85 61 118 25 26 43 22 74
-14z m53 -395 c-8 -29 -33 -58 -50 -58 -7 0 -20 14 -28 32 -20 38 -10 48 47
48 35 0 38 -2 31 -22z m95 -152 c16 -20 -6 -55 -39 -63 -14 -3 -30 -10 -36
-14 -12 -10 -50 29 -64 67 -9 24 -9 24 59 24 47 0 72 -4 80 -14z m-163 -87
c18 -35 13 -65 -14 -97 -25 -29 -34 -28 -60 8 -28 38 -28 52 4 89 33 39 49 39
70 0z"/>
</g>
</svg>
