<svg version="1.0" xmlns="http://www.w3.org/2000/svg"
 width="95.000000pt" height="155.000000pt" viewBox="0 0 95.000000 155.000000"
 preserveAspectRatio="xMidYMid meet">
<metadata>
Created by potrace 1.15, written by Peter Selinger 2001-2017
</metadata>
<g transform="translate(0.000000,155.000000) scale(0.100000,-0.100000)"
fill="#000000" stroke="none">
<path d="M283 1452 c-53 -2 -73 -7 -73 -16 0 -25 79 -61 154 -70 21 -3 43 -9
47 -13 5 -5 10 -67 12 -139 2 -129 2 -129 -133 -125 -74 2 -141 8 -147 13 -7
6 -13 25 -13 44 0 44 -19 84 -40 84 -14 0 -20 -16 -29 -72 -23 -141 -27 -204
-16 -238 15 -45 29 -48 51 -11 10 17 22 31 26 31 4 0 8 16 8 36 0 37 0 37 103
29 56 -4 111 -9 122 -10 11 -1 33 -3 49 -4 29 -1 29 -1 22 -88 -3 -49 -6 -97
-7 -108 0 -22 -46 -111 -71 -139 -10 -11 -18 -25 -18 -32 0 -7 -8 -15 -17 -19
-10 -3 -33 -38 -52 -78 -19 -40 -42 -83 -53 -96 -30 -40 -22 -84 27 -137 11
-12 27 -30 36 -40 21 -25 73 -70 129 -114 25 -19 47 -37 50 -40 10 -11 56 -29
86 -34 28 -4 37 1 87 56 31 33 69 86 83 117 15 31 31 64 35 73 17 34 10 146
-11 190 -11 23 -20 45 -20 50 0 13 -31 50 -107 124 -73 72 -73 72 -66 192 6
120 6 120 62 116 115 -10 120 -12 126 -47 9 -57 25 -162 25 -169 0 -24 23 -2
40 38 24 55 25 110 5 224 -23 131 -30 155 -47 158 -12 2 -19 -12 -28 -62 -13
-64 -13 -64 -89 -59 -42 3 -78 8 -81 10 -3 3 -7 65 -10 139 -6 151 -14 137 81
134 48 -1 83 19 73 43 -15 40 -210 68 -411 59z m219 -809 c10 -16 32 -44 51
-63 41 -42 66 -88 82 -150 10 -38 9 -57 -6 -118 -10 -40 -27 -85 -37 -100 -10
-15 -22 -35 -25 -44 -6 -18 -47 -26 -47 -9 0 5 -11 12 -25 15 -14 4 -25 10
-25 14 0 5 -35 44 -77 88 -98 100 -110 121 -92 163 8 17 17 31 21 31 5 0 8 6
8 13 0 7 8 22 18 33 10 10 28 35 41 54 27 40 82 100 91 100 3 0 13 -12 22 -27z"/>
<path d="M121 867 c-11 -15 -25 -103 -36 -232 -6 -72 -5 -82 14 -104 19 -22
23 -23 37 -10 15 16 21 61 30 232 4 68 2 103 -7 113 -14 17 -23 18 -38 1z"/>
<path d="M834 712 c-6 -4 -14 -20 -17 -37 -9 -53 48 -328 67 -322 13 4 39 52
55 103 11 35 11 51 -2 100 -8 33 -25 81 -38 109 -24 49 -43 63 -65 47z"/>
</g>
</svg>
