<svg version="1.0" xmlns="http://www.w3.org/2000/svg"
 width="65.000000pt" height="82.000000pt" viewBox="0 0 65.000000 82.000000"
 preserveAspectRatio="xMidYMid meet">
<metadata>
Created by potrace 1.15, written by Peter Selinger 2001-2017
</metadata>
<g transform="translate(0.000000,82.000000) scale(0.100000,-0.100000)"
fill="#000000" stroke="none">
<path d="M186 568 c-44 -5 -86 -14 -93 -20 -17 -13 -18 -269 -2 -300 10 -18
17 -20 70 -14 57 7 59 6 59 -16 0 -38 -13 -47 -70 -50 -49 -3 -55 -6 -58 -27
-4 -22 -2 -23 40 -15 78 13 83 12 83 -21 0 -30 0 -30 -57 -30 -61 0 -74 -6
-65 -30 5 -11 21 -15 66 -15 92 0 91 -1 91 213 0 100 -4 188 -9 195 -4 8 -33
17 -62 20 -52 7 -54 8 -54 37 0 29 2 30 60 37 33 5 130 7 215 6 155 -3 180 3
129 29 -28 15 -221 15 -343 1z m30 -164 c9 -34 -6 -46 -52 -42 -36 3 -39 6
-42 36 -3 32 -3 32 42 32 41 0 46 -3 52 -26z m-1 -96 c-9 -40 -21 -49 -60 -46
-23 2 -31 9 -33 26 -6 42 4 52 53 52 47 0 47 0 40 -32z"/>
<path d="M423 501 c-5 -18 -13 -21 -59 -21 -60 0 -78 -14 -39 -32 21 -9 31 -9
46 0 30 19 49 15 49 -12 0 -22 -6 -26 -47 -32 -62 -9 -73 -18 -73 -64 0 -45 9
-50 95 -50 62 0 62 0 69 -37 8 -49 8 -167 0 -187 -3 -9 -15 -16 -25 -16 -15 0
-19 7 -19 34 0 19 -4 37 -9 41 -6 3 -7 36 -4 76 6 70 6 70 -23 63 -16 -3 -39
-13 -52 -21 -21 -13 -23 -20 -20 -91 3 -77 3 -77 33 -77 23 -1 31 -6 33 -22 6
-39 31 -50 102 -44 50 5 66 10 68 23 2 11 -5 18 -20 20 -26 4 -38 38 -13 38
30 0 65 46 65 85 0 42 -44 95 -79 95 -12 0 -21 5 -21 10 0 6 9 10 21 10 36 0
58 19 65 57 9 46 -11 63 -73 63 -36 0 -43 3 -43 19 0 17 8 20 52 23 74 4 77
28 4 28 -42 0 -56 4 -56 14 0 24 -21 30 -27 7z m27 -151 c0 -23 -5 -30 -19
-30 -11 0 -23 5 -26 10 -11 18 6 50 26 50 14 0 19 -7 19 -30z m85 10 c9 -27
-1 -40 -32 -40 -19 0 -24 4 -19 16 3 9 6 22 6 30 0 22 38 17 45 -6z m-155 -15
c0 -18 -5 -25 -19 -25 -11 0 -23 5 -26 10 -11 18 3 40 25 40 15 0 20 -7 20
-25z m154 -164 c-7 -38 -20 -61 -35 -61 -10 0 -12 113 -2 123 3 4 15 0 25 -10
14 -13 17 -24 12 -52z m-147 -5 c-2 -52 -5 -66 -20 -69 -36 -10 -52 80 -20
115 31 35 42 23 40 -46z"/>
</g>
</svg>
