<svg version="1.0" xmlns="http://www.w3.org/2000/svg"
 width="75.000000pt" height="107.000000pt" viewBox="0 0 75.000000 107.000000"
 preserveAspectRatio="xMidYMid meet">
<metadata>
Created by potrace 1.15, written by Peter Selinger 2001-2017
</metadata>
<g transform="translate(0.000000,107.000000) scale(0.100000,-0.100000)"
fill="#000000" stroke="none">
<path d="M367 903 c-4 -6 -8 -65 -9 -132 -2 -66 -6 -121 -9 -121 -4 0 -12 14
-20 32 -22 53 -119 143 -119 110 0 -15 25 -62 33 -62 4 0 7 -8 7 -17 0 -10 9
-29 20 -43 11 -14 20 -30 20 -37 0 -6 16 -41 34 -76 19 -36 35 -73 35 -84 -1
-10 2 -75 6 -145 7 -128 7 -128 -56 -123 -35 3 -78 8 -96 10 -17 2 -34 1 -37
-2 -7 -8 23 -43 37 -43 5 0 21 -9 36 -19 15 -11 51 -21 86 -24 33 -3 87 -10
120 -16 164 -27 200 -27 188 5 -7 20 -85 54 -122 54 -16 0 -42 5 -60 11 -31
11 -31 11 -31 174 0 164 0 164 42 202 106 98 138 135 138 161 0 42 -15 34
-134 -75 -51 -47 -58 -35 -51 95 2 60 0 108 -5 115 -6 7 -18 23 -28 36 -11 14
-21 20 -25 14z"/>
<path d="M117 531 c4 -9 8 -52 9 -96 1 -110 0 -108 28 -101 13 3 45 -1 72 -9
27 -8 50 -15 52 -15 6 0 25 59 32 105 5 28 11 60 15 72 11 36 -30 54 -130 57
-77 3 -85 2 -78 -13z m121 -100 c3 -32 2 -33 -25 -26 -35 8 -32 5 -26 38 4 22
10 27 27 25 16 -2 22 -11 24 -37z"/>
<path d="M477 470 c-3 -11 -1 -23 4 -26 5 -3 9 -39 9 -81 0 -75 0 -75 28 -70
15 3 44 0 64 -8 49 -16 59 -5 75 89 15 91 8 100 -76 97 -33 -1 -62 3 -66 9
-10 17 -32 11 -38 -10z m123 -100 c0 -15 -7 -20 -25 -20 -20 0 -25 5 -25 23 0
13 3 27 6 30 12 11 44 -13 44 -33z"/>
</g>
</svg>
