<svg version="1.0" xmlns="http://www.w3.org/2000/svg"
 width="70.000000pt" height="123.000000pt" viewBox="0 0 70.000000 123.000000"
 preserveAspectRatio="xMidYMid meet">
<metadata>
Created by potrace 1.15, written by Peter Selinger 2001-2017
</metadata>
<g transform="translate(0.000000,123.000000) scale(0.100000,-0.100000)"
fill="#000000" stroke="none">
<path d="M478 1014 c-3 -57 -3 -57 -56 -70 -55 -14 -82 -32 -82 -56 -1 -7 -7
-24 -14 -38 -14 -24 -14 -23 -21 25 -13 96 -27 130 -57 133 -34 4 -37 -20 -8
-58 17 -22 20 -41 20 -147 0 -116 1 -123 20 -123 16 0 20 7 21 38 0 20 4 45 8
55 6 17 8 16 19 -7 6 -14 16 -26 21 -26 10 0 23 41 27 89 4 41 12 50 61 68 29
10 50 10 90 2 29 -6 61 -8 72 -4 15 4 20 -1 26 -27 13 -64 16 -143 6 -170 -9
-24 -15 -27 -78 -30 -87 -5 -93 -2 -93 37 0 40 22 60 83 76 34 10 47 18 47 31
0 27 -44 23 -110 -10 -64 -31 -58 13 -61 -479 -1 -216 1 -286 11 -298 23 -27
41 1 39 60 -1 28 1 56 4 62 4 6 34 13 67 15 44 3 66 10 82 25 19 20 20 25 9
69 -12 46 -11 50 10 67 12 9 19 21 15 25 -4 4 -49 7 -99 7 -92 0 -92 0 -95 48
-3 47 -3 47 30 47 44 0 100 16 110 32 4 7 5 43 1 81 -5 63 -5 67 14 67 13 0
23 -8 26 -21 3 -12 12 -19 19 -17 10 4 14 42 16 155 3 151 3 151 -29 177 -24
20 -41 26 -79 26 -49 0 -49 0 -52 57 -2 45 -7 59 -20 61 -14 3 -17 -6 -20 -54z
m80 -442 c4 -66 -9 -84 -57 -80 -36 3 -36 3 -39 58 -4 63 13 83 63 78 29 -3
30 -5 33 -56z m22 -299 c0 -48 -8 -59 -47 -67 -52 -12 -73 0 -73 39 0 58 7 65
66 65 54 0 54 0 54 -37z"/>
<path d="M120 1053 c0 -5 10 -33 22 -63 17 -45 21 -76 21 -165 0 -60 -3 -123
-8 -140 -24 -98 -27 -291 -5 -370 5 -16 11 -52 15 -78 4 -27 14 -56 23 -65 10
-10 16 -25 14 -35 -4 -19 14 -47 29 -47 20 0 18 50 -4 115 -58 165 -65 286
-27 490 19 104 22 168 9 230 -13 63 -34 115 -53 127 -14 10 -36 10 -36 1z"/>
<path d="M24 975 c-3 -8 6 -29 20 -46 29 -34 33 -81 15 -174 -22 -120 -23
-125 -6 -125 31 0 67 90 67 170 0 86 -44 188 -83 190 -4 0 -10 -7 -13 -15z"/>
<path d="M230 525 c-12 -33 -13 -102 -1 -141 5 -16 14 -49 21 -74 21 -76 34
-100 52 -100 24 0 23 24 -3 96 -16 42 -22 85 -23 149 -2 76 -4 90 -19 93 -11
2 -21 -6 -27 -23z"/>
<path d="M36 509 c-24 -121 17 -366 68 -408 29 -24 29 11 0 95 -24 69 -28 95
-28 204 -1 113 -6 139 -27 140 -4 0 -9 -14 -13 -31z"/>
</g>
</svg>
