<svg version="1.0" xmlns="http://www.w3.org/2000/svg"
 width="59.000000pt" height="75.000000pt" viewBox="0 0 59.000000 75.000000"
 preserveAspectRatio="xMidYMid meet">
<metadata>
Created by potrace 1.15, written by Peter Selinger 2001-2017
</metadata>
<g transform="translate(0.000000,75.000000) scale(0.100000,-0.100000)"
fill="#000000" stroke="none">
<path d="M310 706 c0 -14 5 -28 10 -31 6 -3 10 -11 10 -17 0 -6 -9 -3 -19 6
-11 10 -25 15 -30 11 -12 -7 -15 -65 -3 -65 12 0 31 -49 21 -56 -5 -3 -9 -16
-9 -30 0 -14 -4 -22 -10 -19 -5 3 -10 19 -10 34 0 31 -24 59 -35 41 -14 -22
-25 -8 -25 33 0 30 -6 49 -18 60 -26 24 -42 4 -42 -51 0 -51 12 -78 49 -112
37 -33 61 -81 59 -116 -1 -16 2 -41 6 -56 7 -22 5 -28 -8 -28 -9 0 -19 13 -24
33 -11 43 -36 42 -40 -2 -4 -38 13 -79 41 -99 9 -7 17 -20 17 -28 0 -8 10 -35
21 -60 27 -57 51 -56 62 4 4 23 11 61 15 85 9 42 9 42 16 12 12 -47 59 -145
69 -145 13 0 0 76 -32 181 -13 43 -14 89 -1 109 12 19 14 15 31 -49 21 -81 39
-78 39 7 0 50 -4 73 -15 82 -13 11 -18 10 -31 -6 -17 -21 -16 -18 2 74 6 33
-10 106 -28 127 -4 5 -8 23 -8 40 0 23 -7 33 -27 43 -40 18 -53 15 -53 -12z
m60 -167 c0 -22 -5 -50 -11 -61 -6 -12 -12 -58 -13 -102 0 -69 -4 -85 -23
-105 -22 -25 -22 -25 -33 3 -13 35 -13 36 5 30 12 -5 15 5 15 54 0 34 5 64 10
67 6 3 10 24 10 46 0 46 21 120 32 113 4 -3 8 -23 8 -45z"/>
<path d="M441 629 c-6 -18 -6 -41 1 -70 13 -54 14 -55 33 -39 21 17 19 80 -5
110 -19 25 -19 25 -29 -1z"/>
<path d="M345 170 c-15 -24 23 -130 46 -130 10 0 0 98 -13 123 -10 19 -24 22
-33 7z"/>
</g>
</svg>
