<svg version="1.0" xmlns="http://www.w3.org/2000/svg"
 width="71.000000pt" height="107.000000pt" viewBox="0 0 71.000000 107.000000"
 preserveAspectRatio="xMidYMid meet">
<metadata>
Created by potrace 1.15, written by Peter Selinger 2001-2017
</metadata>
<g transform="translate(0.000000,107.000000) scale(0.100000,-0.100000)"
fill="#000000" stroke="none">
<path d="M413 918 c2 -29 12 -84 21 -122 12 -53 13 -79 6 -107 -6 -21 -14 -39
-18 -41 -4 -2 -18 -23 -31 -48 -13 -25 -32 -61 -42 -80 -29 -56 -27 -95 21
-335 5 -22 11 -57 15 -78 5 -21 13 -37 21 -37 23 0 26 45 9 131 -10 46 -21
115 -26 153 -4 38 -10 75 -13 82 -7 18 16 74 31 74 7 0 13 9 13 21 0 26 35
102 53 118 22 17 29 75 17 122 -6 23 -15 66 -20 97 -17 100 -65 143 -57 50z"/>
<path d="M301 921 c-13 -24 -15 -128 -2 -135 4 -3 13 12 20 33 22 74 8 151
-18 102z"/>
<path d="M181 828 c-7 -35 -19 -83 -28 -108 -8 -25 -21 -67 -28 -95 -14 -50
-14 -50 20 -83 41 -39 43 -48 49 -167 3 -49 5 -92 5 -94 1 -3 14 8 31 24 21
20 31 41 36 74 3 25 15 98 25 161 21 126 24 190 10 190 -12 0 -18 -20 -26 -85
-8 -62 -24 -115 -35 -115 -4 0 -4 17 1 38 10 44 12 126 2 135 -10 11 -32 -26
-33 -55 0 -35 -17 -78 -30 -78 -12 0 -13 54 -1 78 40 79 59 168 47 216 -11 46
-31 29 -45 -36z"/>
<path d="M533 803 c-13 -46 -7 -149 10 -173 23 -33 28 -11 21 99 -7 101 -17
125 -31 74z"/>
<path d="M614 638 c-4 -7 -9 -63 -10 -126 -3 -113 -11 -142 -40 -142 -10 0
-14 13 -14 39 0 40 -23 76 -41 66 -5 -4 -10 -30 -11 -58 -1 -46 -2 -47 -5 -12
-4 43 -21 85 -35 85 -4 0 -8 -54 -8 -119 0 -69 -4 -122 -10 -126 -15 -10 -12
-35 5 -35 9 0 17 -14 21 -38 3 -20 12 -45 19 -55 34 -46 85 48 85 155 0 45 2
49 29 54 16 3 34 16 40 28 16 29 11 288 -6 293 -6 2 -15 -2 -19 -9z"/>
<path d="M237 243 c-16 -15 9 -173 27 -173 19 1 44 44 40 70 -9 58 -18 86 -33
97 -19 14 -25 16 -34 6z"/>
</g>
</svg>
