<svg version="1.0" xmlns="http://www.w3.org/2000/svg"
 width="51.000000pt" height="107.000000pt" viewBox="0 0 51.000000 107.000000"
 preserveAspectRatio="xMidYMid meet">
<metadata>
Created by potrace 1.15, written by Peter Selinger 2001-2017
</metadata>
<g transform="translate(0.000000,107.000000) scale(0.100000,-0.100000)"
fill="#000000" stroke="none">
<path d="M150 962 c0 -11 7 -25 16 -32 18 -16 11 -80 -13 -117 -18 -28 -11
-83 15 -106 28 -25 91 -57 112 -57 26 0 25 -8 -6 -53 -25 -38 -25 -38 -5 -77
17 -33 19 -44 9 -65 -6 -14 -15 -25 -20 -25 -4 0 -8 -5 -8 -11 0 -6 -8 -23
-19 -37 -32 -46 -62 -104 -56 -110 3 -3 19 7 35 23 29 28 29 28 24 -26 -4 -30
-20 -81 -37 -114 -17 -33 -38 -76 -48 -95 -16 -33 -16 -56 0 -46 4 3 21 24 37
48 16 24 34 49 41 56 13 13 17 5 25 -52 2 -11 8 -18 13 -15 6 2 9 44 7 104 -2
55 0 110 5 122 8 21 11 18 32 -32 36 -83 51 -73 33 22 -8 43 -20 92 -26 108
-11 26 -10 36 11 77 13 26 31 51 39 56 18 10 8 42 -13 42 -9 0 -21 -7 -27 -15
-7 -10 -16 -12 -25 -6 -23 15 5 41 42 41 24 0 28 3 19 12 -18 18 -15 42 8 58
26 18 25 50 -1 101 -15 31 -20 59 -20 118 0 79 -15 121 -37 107 -8 -5 -10 -30
-5 -81 5 -61 3 -75 -8 -75 -20 0 -53 60 -50 91 2 28 -30 59 -76 73 -19 6 -23
3 -23 -12z m123 -168 c17 -6 24 -34 9 -34 -11 0 -52 35 -52 45 0 3 6 4 13 1 6
-3 20 -9 30 -12z m-25 -53 c22 -19 30 -41 14 -41 -9 0 -52 46 -52 55 0 10 15
4 38 -14z m86 -27 c11 -27 7 -37 -9 -24 -16 14 -20 40 -6 40 5 0 12 -7 15 -16z"/>
</g>
</svg>
