<svg version="1.0" xmlns="http://www.w3.org/2000/svg"
 width="71.000000pt" height="91.000000pt" viewBox="0 0 71.000000 91.000000"
 preserveAspectRatio="xMidYMid meet">
<metadata>
Created by potrace 1.15, written by Peter Selinger 2001-2017
</metadata>
<g transform="translate(0.000000,91.000000) scale(0.100000,-0.100000)"
fill="#000000" stroke="none">
<path d="M443 720 c-78 -7 -107 -23 -117 -66 -9 -33 27 -114 50 -114 17 0 16
13 -2 77 -4 16 0 24 16 33 12 7 26 8 30 3 6 -7 50 -118 50 -127 0 -2 -20 -6
-45 -8 -61 -7 -75 -21 -75 -74 0 -49 17 -64 69 -64 21 0 31 -5 31 -15 0 -9 -9
-15 -24 -15 -40 0 -54 -10 -67 -47 -10 -30 -9 -39 8 -62 19 -26 19 -26 -4 -60
-37 -54 -29 -163 11 -148 12 5 16 20 16 56 0 50 20 86 44 78 6 -2 15 -34 20
-71 7 -54 12 -66 25 -64 12 2 17 17 19 66 2 34 5 62 8 62 20 0 44 -25 44 -44
0 -52 12 -86 31 -86 23 0 31 30 27 96 -3 47 -5 50 -48 72 -38 19 -40 22 -19
22 34 0 59 29 59 67 0 35 -17 53 -62 62 -51 11 -45 29 12 37 52 7 70 23 70 62
0 32 -37 70 -72 74 -26 3 -31 7 -33 33 -1 17 -10 45 -19 62 -20 39 -20 43 -2
43 7 0 19 -14 26 -31 15 -35 81 -82 105 -73 24 10 18 22 -25 50 -43 28 -52 54
-21 54 56 0 66 26 20 53 -32 18 -39 18 -156 7z m118 -250 c10 -6 19 -14 19
-19 0 -30 -175 -45 -186 -16 -12 30 15 45 83 45 35 0 73 -5 84 -10z m-11 -180
c9 -17 5 -23 -30 -45 -50 -32 -60 -31 -94 4 -43 45 -30 61 48 61 55 0 67 -3
76 -20z"/>
<path d="M153 698 c-11 -18 -22 -621 -12 -633 6 -6 15 -3 25 7 14 14 17 56 22
293 5 255 6 277 23 286 11 5 20 8 21 7 1 -2 5 -136 8 -298 5 -287 6 -295 25
-295 20 0 20 8 23 303 1 197 -1 310 -8 322 -9 16 -21 20 -65 20 -32 0 -57 -5
-62 -12z"/>
</g>
</svg>
