<svg version="1.0" xmlns="http://www.w3.org/2000/svg"
 width="79.000000pt" height="175.000000pt" viewBox="0 0 79.000000 175.000000"
 preserveAspectRatio="xMidYMid meet">
<metadata>
Created by potrace 1.15, written by Peter Selinger 2001-2017
</metadata>
<g transform="translate(0.000000,175.000000) scale(0.100000,-0.100000)"
fill="#000000" stroke="none">
<path d="M140 1536 c0 -7 7 -19 15 -26 8 -7 15 -17 15 -22 0 -13 157 -164 193
-186 25 -15 27 -21 27 -84 0 -37 -2 -68 -5 -68 -6 0 -65 40 -75 50 -11 11 -87
59 -132 84 -43 23 -48 24 -48 8 0 -20 24 -55 55 -81 11 -9 34 -31 52 -48 17
-18 34 -33 38 -33 3 0 11 -4 18 -10 7 -5 27 -21 45 -36 43 -35 41 -52 -11 -65
-54 -13 -127 -80 -146 -134 -22 -61 -16 -178 12 -229 31 -57 38 -63 113 -97
51 -23 68 -37 79 -62 15 -37 22 -117 11 -135 -9 -15 -71 -16 -99 0 -12 6 -55
11 -96 11 -118 -2 -111 -17 34 -68 55 -19 112 -35 128 -35 22 0 27 -4 27 -26
0 -19 -4 -25 -15 -20 -12 4 -14 0 -9 -19 9 -38 -46 -109 -108 -137 -35 -16
-36 -36 -3 -44 17 -4 32 -1 44 10 10 9 22 16 27 16 16 1 118 104 138 140 11
19 26 41 34 49 7 7 11 20 8 28 -7 16 20 28 123 54 79 19 99 35 76 58 -16 17
-79 18 -98 3 -7 -5 -31 -12 -54 -15 -43 -5 -43 -5 -43 35 0 21 -4 48 -10 58
-5 10 -7 25 -4 34 6 15 89 69 109 71 37 3 64 20 73 43 27 77 32 106 32 185 0
112 -16 140 -110 185 -36 17 -76 32 -88 32 -12 0 -22 3 -22 6 0 13 44 45 69
51 14 3 37 14 50 25 13 10 29 18 35 18 19 0 86 64 86 83 0 20 -1 20 -37 6 -15
-6 -38 -15 -50 -20 -13 -5 -33 -13 -45 -19 -25 -10 -98 -30 -111 -30 -5 0 -6
35 -3 77 5 75 6 77 48 115 24 21 57 51 73 66 17 15 47 38 67 52 20 13 39 33
42 44 4 16 0 18 -36 13 -23 -3 -44 -9 -47 -14 -12 -17 -123 -83 -140 -83 -5 0
-12 29 -16 65 -7 64 -14 77 -47 82 -14 2 -18 -4 -18 -30 0 -17 -3 -55 -6 -83
-6 -46 -9 -51 -27 -46 -12 3 -39 24 -62 46 -46 46 -82 76 -91 76 -3 0 -17 9
-31 20 -30 23 -53 26 -53 6z m375 -597 c5 -5 17 -9 26 -9 10 0 29 -15 43 -33
22 -28 26 -45 28 -113 2 -83 -5 -105 -49 -151 -12 -13 -33 -27 -46 -32 -26
-10 -159 -3 -167 9 -3 4 -21 15 -41 24 -20 9 -41 27 -46 39 -18 39 -33 93 -33
117 0 28 21 91 35 105 20 21 71 53 90 57 32 6 149 -3 160 -13z"/>
</g>
</svg>
