<svg version="1.0" xmlns="http://www.w3.org/2000/svg"
 width="121.000000pt" height="161.000000pt" viewBox="0 0 121.000000 161.000000"
 preserveAspectRatio="xMidYMid meet">
<metadata>
Created by potrace 1.15, written by Peter Selinger 2001-2017
</metadata>
<g transform="translate(0.000000,161.000000) scale(0.100000,-0.100000)"
fill="#000000" stroke="none">
<path d="M351 1439 c-15 -16 -21 -36 -21 -68 1 -59 16 -125 30 -129 15 -5 50
-44 50 -55 0 -17 -85 5 -118 32 -91 71 -125 75 -95 11 36 -75 88 -105 206
-117 65 -7 81 -21 90 -85 5 -31 2 -37 -16 -42 -37 -9 -99 6 -169 42 -62 31
-98 37 -98 14 0 -30 122 -112 165 -112 8 0 39 -8 69 -17 54 -17 54 -17 31 -34
-12 -10 -44 -26 -71 -35 -50 -16 -205 -91 -214 -103 -3 -4 -26 -18 -53 -31
-26 -14 -47 -31 -47 -37 0 -18 50 -28 69 -14 17 12 101 53 161 78 19 8 43 19
52 24 10 5 24 9 33 9 8 0 31 8 51 17 34 17 36 17 50 -1 7 -11 12 -33 11 -50
-2 -24 -10 -35 -37 -48 -19 -9 -42 -17 -51 -18 -20 0 -31 -14 -49 -58 -11 -28
-10 -40 5 -87 18 -60 45 -87 103 -106 44 -15 53 -24 70 -70 19 -57 16 -79 -13
-79 -40 0 -125 37 -125 55 0 19 -40 65 -56 65 -12 0 -15 -11 -13 -48 3 -66 29
-112 63 -112 9 0 16 -4 16 -9 0 -5 15 -11 33 -14 107 -17 127 -35 84 -75 -33
-31 -81 -44 -160 -43 -38 1 -72 -1 -77 -4 -17 -10 2 -34 35 -45 45 -15 153
-16 168 -1 6 6 20 11 31 11 34 0 86 37 86 61 0 29 31 99 44 99 5 0 34 15 63
32 63 38 85 85 64 137 -13 30 -51 50 -51 26 0 -29 -74 -135 -93 -135 -5 0 -14
49 -22 115 -4 37 -2 42 28 62 98 63 77 211 -35 245 -45 13 -55 29 -54 78 1 35
1 35 61 37 33 2 85 -3 115 -10 86 -20 104 -64 114 -287 5 -90 34 -185 71 -231
28 -35 109 -88 144 -95 24 -5 32 -2 37 11 8 20 -30 58 -92 91 -68 38 -75 55
-79 195 -7 243 -27 326 -81 346 -58 22 -130 41 -179 47 -83 11 -105 17 -105
29 0 12 26 44 111 135 21 23 39 48 39 55 0 6 9 23 20 37 34 43 18 110 -28 122
-17 5 -20 -2 -25 -43 -5 -42 -38 -125 -56 -139 -3 -3 -11 -14 -17 -24 -12 -22
-40 -43 -48 -35 -3 3 -7 14 -9 25 -1 10 -6 25 -11 32 -12 19 -12 132 0 140 19
12 31 45 39 99 6 44 3 58 -14 87 -12 18 -30 36 -42 39 -18 5 -20 2 -13 -26 4
-18 7 -58 6 -90 -2 -86 -30 -110 -75 -64 -47 47 -63 81 -65 137 -3 66 -13 79
-41 49z m276 -838 c31 -36 31 -88 0 -100 -57 -22 -137 -17 -166 10 -28 26 -26
77 4 93 11 6 22 14 25 18 7 9 59 14 90 9 14 -2 35 -16 47 -30z"/>
</g>
</svg>
