<svg version="1.0" xmlns="http://www.w3.org/2000/svg"
 width="45.000000pt" height="91.000000pt" viewBox="0 0 45.000000 91.000000"
 preserveAspectRatio="xMidYMid meet">
<metadata>
Created by potrace 1.15, written by Peter Selinger 2001-2017
</metadata>
<g transform="translate(0.000000,91.000000) scale(0.100000,-0.100000)"
fill="#000000" stroke="none">
<path d="M230 741 c0 -6 -18 -29 -41 -52 -42 -42 -62 -101 -75 -219 -5 -45 -5
-45 13 -24 12 13 25 54 33 103 12 73 16 82 34 79 34 -5 26 -64 -17 -127 -21
-29 -37 -57 -37 -62 0 -16 22 -9 41 13 19 21 19 21 19 -10 0 -18 4 -32 10 -32
19 0 40 73 40 141 0 57 3 69 17 69 14 0 15 -12 10 -105 -4 -63 -2 -105 4 -105
14 0 11 -70 -5 -86 -20 -19 -26 -18 -26 6 0 11 -4 20 -10 20 -5 0 -10 -15 -10
-34 0 -44 -16 -55 -24 -16 -9 47 -23 35 -28 -22 -3 -29 -8 -60 -12 -69 -4 -8
1 -24 11 -36 10 -12 23 -29 29 -39 14 -23 31 -11 39 29 4 17 13 36 19 40 8 6
8 10 -1 14 -24 9 -14 47 17 65 28 16 30 21 30 72 0 30 -5 56 -11 58 -7 2 -7
12 0 31 6 16 11 49 11 75 0 26 5 64 11 85 9 33 7 43 -18 90 -19 35 -35 53 -50
55 -13 2 -23 -1 -23 -7z m34 -82 c-7 -11 -25 -11 -43 0 -12 8 -13 12 -1 25 12
15 14 15 31 0 10 -9 16 -21 13 -25z m-34 -436 c0 -5 -5 -15 -10 -23 -8 -12
-10 -11 -10 8 0 12 5 22 10 22 6 0 10 -3 10 -7z"/>
</g>
</svg>
