<svg version="1.0" xmlns="http://www.w3.org/2000/svg"
 width="53.000000pt" height="85.000000pt" viewBox="0 0 53.000000 85.000000"
 preserveAspectRatio="xMidYMid meet">
<metadata>
Created by potrace 1.15, written by Peter Selinger 2001-2017
</metadata>
<g transform="translate(0.000000,85.000000) scale(0.100000,-0.100000)"
fill="#000000" stroke="none">
<path d="M250 648 c0 -41 -3 -45 -65 -93 -71 -55 -75 -62 -79 -156 -2 -35 -7
-88 -11 -118 -7 -44 -6 -53 6 -49 22 7 40 53 50 126 5 36 11 68 14 70 2 2 17
1 33 -3 29 -6 29 -6 31 -143 2 -142 15 -226 35 -219 7 3 10 31 10 76 -1 39 1
71 4 71 3 0 14 -7 24 -16 30 -28 32 6 4 69 -28 59 -33 106 -15 138 7 13 16 18
28 14 26 -8 72 15 69 34 -3 13 -24 17 -117 21 -114 5 -114 5 -74 33 49 34 100
38 139 10 16 -11 38 -22 49 -25 17 -3 20 -11 19 -63 -1 -99 -14 -268 -24 -305
-10 -35 -3 -55 15 -42 22 15 36 70 45 171 5 58 15 134 22 169 8 45 9 68 2 80
-6 9 -42 33 -79 52 -65 33 -70 38 -85 85 -22 67 -50 74 -50 13z"/>
</g>
</svg>
