<svg version="1.0" xmlns="http://www.w3.org/2000/svg"
 width="43.000000pt" height="113.000000pt" viewBox="0 0 43.000000 113.000000"
 preserveAspectRatio="xMidYMid meet">
<metadata>
Created by potrace 1.15, written by Peter Selinger 2001-2017
</metadata>
<g transform="translate(0.000000,113.000000) scale(0.100000,-0.100000)"
fill="#000000" stroke="none">
<path d="M206 913 c-11 -36 -46 -87 -72 -108 -30 -24 -30 -11 5 -170 10 -49
20 -92 20 -95 1 -3 5 1 9 8 12 17 42 4 42 -18 0 -10 4 -20 8 -22 4 -1 15 -19
24 -38 12 -25 14 -37 6 -42 -9 -5 -7 -28 6 -87 14 -66 15 -84 4 -101 -7 -11
-16 -20 -19 -20 -3 0 -12 28 -19 63 -15 72 -19 82 -30 70 -12 -11 10 -253 25
-282 12 -23 12 -23 35 25 13 27 32 61 42 76 11 16 17 32 13 38 -8 13 23 72 46
88 28 19 24 75 -10 141 -16 31 -35 89 -42 129 -7 40 -16 75 -21 78 -9 6 -11
69 -2 102 10 36 29 25 42 -25 7 -27 18 -66 24 -88 6 -22 12 -46 14 -52 2 -7 7
-13 12 -13 13 0 24 61 13 74 -5 6 -11 25 -14 41 -4 17 -9 46 -13 65 -6 28 -44
90 -74 120 -3 3 -11 17 -19 33 -16 30 -46 36 -55 10z m48 -73 c14 -30 14 -30
-25 -30 -44 0 -43 -1 -27 35 15 33 33 32 52 -5z m-24 -92 c0 -29 -30 -108 -41
-108 -4 0 -11 17 -14 38 -4 20 -10 47 -16 60 -13 32 -13 32 31 32 35 0 40 -3
40 -22z m20 -158 c0 -10 5 -22 10 -25 12 -7 13 -25 2 -25 -4 0 -13 15 -20 33
-15 41 -15 50 -2 42 6 -3 10 -15 10 -25z m40 -110 c0 -17 9 -50 20 -72 11 -23
20 -49 20 -59 0 -15 -27 -47 -33 -38 -12 18 -28 85 -27 112 1 17 2 44 2 60 1
37 18 34 18 -3z"/>
</g>
</svg>
