<svg version="1.0" xmlns="http://www.w3.org/2000/svg"
 width="55.000000pt" height="111.000000pt" viewBox="0 0 55.000000 111.000000"
 preserveAspectRatio="xMidYMid meet">
<metadata>
Created by potrace 1.15, written by Peter Selinger 2001-2017
</metadata>
<g transform="translate(0.000000,111.000000) scale(0.100000,-0.100000)"
fill="#000000" stroke="none">
<path d="M278 890 c-16 -17 -28 -33 -28 -36 0 -4 -37 -52 -105 -136 -29 -35
-33 -59 -39 -241 -4 -148 -3 -188 7 -184 19 6 36 120 37 244 0 61 3 114 8 116
4 3 30 -7 57 -22 58 -31 58 -33 42 -161 -11 -92 4 -309 25 -356 22 -48 30 -24
26 76 -2 55 0 100 4 100 4 0 15 -13 25 -30 9 -16 21 -30 25 -30 4 0 8 -6 8
-13 0 -18 24 -67 33 -67 20 0 -7 78 -63 188 -33 63 -38 82 -32 107 7 25 13 29
35 27 38 -5 35 23 -3 37 -25 8 -30 15 -30 43 0 42 15 58 49 52 14 -2 33 0 41
5 13 9 12 12 -5 25 -22 17 -100 36 -145 36 -59 0 -78 23 -40 50 11 8 20 19 20
25 0 13 79 105 90 105 5 0 11 -8 14 -17 4 -10 20 -34 37 -53 83 -93 83 -93 80
-198 -2 -102 21 -288 39 -306 13 -13 13 -17 14 214 1 195 1 195 -33 232 -19
21 -41 48 -50 60 -15 22 -40 52 -91 110 -25 28 -25 28 -52 -2z"/>
</g>
</svg>
