<svg version="1.0" xmlns="http://www.w3.org/2000/svg"
 width="72.000000pt" height="90.000000pt" viewBox="0 0 72.000000 90.000000"
 preserveAspectRatio="xMidYMid meet">
<metadata>
Created by potrace 1.15, written by Peter Selinger 2001-2017
</metadata>
<g transform="translate(0.000000,90.000000) scale(0.100000,-0.100000)"
fill="#000000" stroke="none">
<path d="M328 656 c-19 -38 -108 -110 -186 -150 -55 -28 -72 -50 -54 -68 12
-12 118 47 210 119 54 41 77 51 84 36 6 -14 86 -72 134 -98 52 -28 104 -33
104 -11 0 18 -15 29 -85 65 -82 40 -144 87 -155 116 -13 35 -33 31 -52 -9z"/>
<path d="M241 501 c-27 -17 1 -31 63 -31 94 0 156 10 156 26 0 11 -23 14 -102
14 -57 0 -109 -4 -117 -9z"/>
<path d="M144 389 c-11 -19 18 -29 83 -29 53 0 63 -3 68 -20 8 -27 1 -37 -45
-60 -53 -27 -63 -49 -58 -131 3 -59 8 -73 31 -96 25 -26 31 -27 129 -27 168 0
190 19 192 166 1 66 -17 92 -72 105 -30 7 -38 14 -40 36 -3 26 -2 27 47 27 59
0 81 7 81 26 0 12 -36 14 -204 14 -140 0 -207 -4 -212 -11z m244 -62 c3 -25 0
-28 -20 -25 -17 2 -24 11 -26 31 -3 25 0 28 20 25 17 -2 24 -11 26 -31z m-4
-73 c10 -4 16 -18 16 -36 0 -22 10 -39 37 -64 20 -19 41 -34 45 -34 4 0 8 -7
8 -15 0 -26 -53 -13 -88 22 -21 21 -70 15 -106 -12 -37 -28 -46 -31 -46 -12 0
6 19 23 41 37 22 14 42 34 44 47 3 13 7 34 10 48 6 26 12 29 39 19z m-84 -23
c0 -20 -36 -71 -51 -71 -5 0 -9 16 -9 35 0 28 5 38 23 45 33 13 37 12 37 -9z
m193 -14 c14 -44 -5 -55 -37 -20 -34 36 -34 55 1 51 19 -2 29 -11 36 -31z
m-104 -131 c9 -11 5 -15 -20 -20 -57 -11 -64 -9 -44 14 21 23 48 26 64 6z"/>
</g>
</svg>
