<svg version="1.0" xmlns="http://www.w3.org/2000/svg"
 width="41.000000pt" height="93.000000pt" viewBox="0 0 41.000000 93.000000"
 preserveAspectRatio="xMidYMid meet">
<metadata>
Created by potrace 1.15, written by Peter Selinger 2001-2017
</metadata>
<g transform="translate(0.000000,93.000000) scale(0.100000,-0.100000)"
fill="#000000" stroke="none">
<path d="M191 598 c2 -132 2 -132 -42 -143 -54 -13 -60 -38 -10 -43 31 -3 33
-5 28 -35 -7 -49 38 -307 54 -307 24 0 21 78 -7 243 -4 24 -2 37 5 37 6 0 11
-4 11 -9 0 -14 93 -151 102 -151 13 0 -1 48 -34 116 -39 82 -41 116 -8 125 47
12 70 21 70 30 0 14 -37 29 -74 29 -36 0 -36 0 -36 62 0 77 -29 178 -50 178
-8 0 -11 -42 -9 -132z"/>
</g>
</svg>
