<svg version="1.0" xmlns="http://www.w3.org/2000/svg"
 width="51.000000pt" height="127.000000pt" viewBox="0 0 51.000000 127.000000"
 preserveAspectRatio="xMidYMid meet">
<metadata>
Created by potrace 1.15, written by Peter Selinger 2001-2017
</metadata>
<g transform="translate(0.000000,127.000000) scale(0.100000,-0.100000)"
fill="#000000" stroke="none">
<path d="M194 1189 c-3 -6 -3 -59 0 -118 5 -89 4 -110 -8 -120 -22 -18 -56 -4
-56 22 0 26 -35 87 -50 87 -19 0 -7 -205 16 -283 10 -34 29 -11 39 49 8 50 13
59 33 62 22 3 22 3 23 -187 1 -105 2 -194 3 -198 2 -5 6 -30 10 -58 9 -56 26
-115 38 -130 4 -5 8 -17 8 -27 0 -10 5 -18 10 -18 6 0 10 -4 10 -10 0 -5 13
-38 28 -72 16 -35 32 -76 36 -93 7 -27 9 -28 18 -11 16 28 2 96 -41 209 -50
129 -63 198 -59 317 3 81 5 91 15 70 12 -26 30 -51 74 -103 34 -40 62 -33 49
12 -8 29 -39 91 -51 101 -11 10 -65 96 -77 122 -8 19 -9 36 -2 54 9 22 15 25
47 22 34 -3 38 -6 41 -33 7 -82 21 -95 48 -44 16 32 15 81 -3 178 -15 81 -63
80 -63 -1 0 -36 -2 -38 -32 -38 -33 0 -33 0 -35 101 -2 72 -7 109 -18 125 -16
25 -39 31 -51 13z"/>
</g>
</svg>
