<svg version="1.0" xmlns="http://www.w3.org/2000/svg"
 width="49.000000pt" height="103.000000pt" viewBox="0 0 49.000000 103.000000"
 preserveAspectRatio="xMidYMid meet">
<metadata>
Created by potrace 1.15, written by Peter Selinger 2001-2017
</metadata>
<g transform="translate(0.000000,103.000000) scale(0.100000,-0.100000)"
fill="#000000" stroke="none">
<path d="M226 902 c-3 -5 -8 -40 -11 -78 -9 -105 -12 -114 -38 -114 -34 0 -47
19 -47 68 0 43 -14 82 -29 82 -4 0 -11 -46 -15 -102 -5 -57 -9 -116 -11 -133
-5 -49 7 -136 18 -132 16 5 35 67 36 115 1 40 2 42 32 42 36 0 35 18 6 -235
-12 -97 -11 -117 3 -170 9 -33 26 -79 38 -102 12 -23 22 -49 22 -57 0 -19 13
-27 27 -18 8 5 7 22 -4 62 -20 68 -38 242 -29 267 6 14 16 2 46 -56 22 -41 44
-79 50 -85 5 -5 10 -18 10 -27 0 -17 27 -46 35 -37 10 9 -20 124 -37 142 -10
11 -18 26 -18 33 0 7 -9 28 -20 48 -11 20 -20 44 -20 55 0 10 -4 22 -10 25
-14 9 -12 111 3 123 6 6 24 8 40 5 31 -6 43 -35 34 -86 -3 -18 0 -46 7 -62 12
-29 12 -29 29 22 9 29 17 68 17 87 0 19 4 38 10 41 5 3 8 20 6 38 -3 18 -5 48
-5 67 -1 19 -6 42 -11 50 -9 13 -11 13 -20 0 -6 -8 -15 -32 -20 -52 -9 -33
-15 -38 -40 -38 -32 0 -43 10 -31 28 4 7 4 39 0 73 -10 88 -35 140 -53 111z"/>
</g>
</svg>
