<svg version="1.0" xmlns="http://www.w3.org/2000/svg"
 width="49.000000pt" height="91.000000pt" viewBox="0 0 49.000000 91.000000"
 preserveAspectRatio="xMidYMid meet">
<metadata>
Created by potrace 1.15, written by Peter Selinger 2001-2017
</metadata>
<g transform="translate(0.000000,91.000000) scale(0.100000,-0.100000)"
fill="#000000" stroke="none">
<path d="M217 713 c-3 -8 -1 -88 3 -108 6 -26 -2 -35 -34 -35 -29 0 -34 4 -42
32 -11 36 -30 47 -35 21 -3 -10 -3 -53 -1 -96 4 -85 20 -100 36 -34 9 35 12
37 48 37 33 0 38 -3 38 -24 0 -21 -74 -183 -89 -196 -14 -12 -53 -92 -47 -97
8 -8 33 23 81 102 60 98 66 90 31 -40 -9 -32 -16 -74 -16 -92 0 -17 -5 -35
-10 -38 -15 -9 -12 -35 3 -35 17 0 47 62 47 96 0 14 4 33 10 43 5 10 15 77 21
149 12 126 14 132 35 132 18 0 23 -7 29 -40 7 -42 19 -51 29 -24 8 20 8 128 0
148 -10 26 -31 18 -40 -16 -16 -54 -38 -41 -46 24 -4 32 -12 67 -18 78 -11 20
-26 26 -33 13z"/>
</g>
</svg>
