<svg version="1.0" xmlns="http://www.w3.org/2000/svg"
 width="41.000000pt" height="75.000000pt" viewBox="0 0 41.000000 75.000000"
 preserveAspectRatio="xMidYMid meet">
<metadata>
Created by potrace 1.15, written by Peter Selinger 2001-2017
</metadata>
<g transform="translate(0.000000,75.000000) scale(0.100000,-0.100000)"
fill="#000000" stroke="none">
<path d="M220 562 c0 -17 -4 -43 -10 -57 -8 -22 -15 -26 -41 -23 -28 3 -32 7
-36 37 -4 40 -10 48 -23 35 -15 -15 -25 -180 -11 -188 6 -4 11 -1 11 8 0 9 5
16 10 16 6 0 10 8 10 19 0 18 41 32 68 23 30 -10 -11 -128 -64 -185 -13 -14
-24 -30 -24 -35 0 -5 -9 -17 -20 -27 -11 -10 -20 -25 -20 -33 0 -8 22 9 50 39
48 52 49 53 50 27 0 -16 -4 -28 -10 -28 -5 0 -10 -8 -10 -17 0 -10 -9 -33 -21
-52 -24 -39 -19 -50 14 -28 29 19 58 77 69 137 4 25 11 70 17 100 18 108 19
110 61 110 37 0 39 -1 42 -37 5 -62 26 -51 33 19 12 114 -8 182 -29 97 -8 -33
-11 -36 -45 -35 -35 1 -36 2 -39 43 -4 52 -32 83 -32 35z"/>
</g>
</svg>
