<svg version="1.0" xmlns="http://www.w3.org/2000/svg"
 width="61.000000pt" height="131.000000pt" viewBox="0 0 61.000000 131.000000"
 preserveAspectRatio="xMidYMid meet">
<metadata>
Created by potrace 1.15, written by Peter Selinger 2001-2017
</metadata>
<g transform="translate(0.000000,131.000000) scale(0.100000,-0.100000)"
fill="#000000" stroke="none">
<path d="M330 1008 c3 -199 2 -208 -12 -212 -7 -2 -40 -12 -73 -21 -74 -22
-85 -30 -59 -50 14 -12 34 -15 81 -11 35 3 65 1 68 -4 6 -10 -24 -72 -37 -78
-5 -2 -8 -9 -8 -16 0 -7 -8 -21 -17 -32 -10 -10 -30 -35 -44 -54 -15 -19 -41
-51 -58 -70 -18 -19 -36 -43 -42 -52 -8 -16 -5 -18 24 -18 41 0 55 11 95 76
17 27 42 60 55 72 24 22 24 22 14 -30 -5 -29 -18 -78 -29 -108 -25 -73 -114
-254 -151 -308 -16 -24 -26 -46 -23 -50 13 -12 73 30 97 68 13 22 27 40 32 40
4 0 7 9 7 20 0 11 4 20 8 20 5 0 19 24 32 53 13 28 32 65 43 81 23 32 42 116
58 246 6 47 12 104 15 127 5 42 5 42 74 49 69 6 86 17 74 49 -9 23 -70 38
-106 26 -17 -6 -32 -10 -33 -9 -2 2 -8 73 -16 158 -11 132 -16 158 -32 173
-11 9 -24 17 -29 17 -6 0 -9 -63 -8 -152z"/>
</g>
</svg>
