<svg version="1.0" xmlns="http://www.w3.org/2000/svg"
 width="61.000000pt" height="97.000000pt" viewBox="0 0 61.000000 97.000000"
 preserveAspectRatio="xMidYMid meet">
<metadata>
Created by potrace 1.15, written by Peter Selinger 2001-2017
</metadata>
<g transform="translate(0.000000,97.000000) scale(0.100000,-0.100000)"
fill="#000000" stroke="none">
<path d="M291 758 c2 -81 0 -93 -15 -96 -33 -7 -66 8 -66 28 0 28 -22 71 -34
67 -15 -5 -10 -175 5 -204 17 -31 37 -29 41 5 3 23 8 27 39 30 35 3 37 1 43
-33 6 -29 1 -46 -22 -88 -50 -90 -74 -132 -81 -137 -19 -15 -70 -99 -62 -104
16 -10 102 67 118 106 21 53 43 50 36 -4 -3 -24 -9 -59 -14 -78 -5 -19 -9 -48
-9 -64 0 -27 -10 -69 -31 -123 -4 -12 -4 -25 0 -28 13 -7 19 2 82 127 5 10 9
33 9 51 0 19 4 47 9 63 7 22 19 199 21 302 0 7 13 12 29 12 30 0 41 -14 41
-56 0 -26 10 -30 28 -12 18 18 16 189 -2 214 -18 24 -38 9 -42 -32 -5 -44 -13
-56 -36 -52 -20 3 -24 13 -35 87 -13 81 -25 111 -45 111 -5 0 -8 -40 -7 -92z"/>
</g>
</svg>
