<svg version="1.0" xmlns="http://www.w3.org/2000/svg"
 width="62.000000pt" height="79.000000pt" viewBox="0 0 62.000000 79.000000"
 preserveAspectRatio="xMidYMid meet">
<metadata>
Created by potrace 1.15, written by Peter Selinger 2001-2017
</metadata>
<g transform="translate(0.000000,79.000000) scale(0.100000,-0.100000)"
fill="#000000" stroke="none">
<path d="M25 640 c-3 -5 4 -23 15 -38 21 -28 21 -31 6 -60 -18 -36 -21 -75 -6
-103 8 -14 7 -33 -5 -71 -10 -35 -15 -95 -15 -189 0 -138 6 -163 35 -139 10 9
14 50 17 171 3 147 5 162 23 175 11 8 34 14 50 12 49 -5 65 -50 65 -189 0
-100 3 -120 19 -140 18 -22 20 -23 27 -6 4 10 5 81 2 156 -4 107 -9 145 -23
168 -16 28 -16 31 4 68 25 47 26 68 6 85 -20 17 -19 33 5 55 11 10 20 26 20
37 0 29 -38 22 -67 -12 -19 -23 -33 -30 -61 -30 -43 0 -55 7 -71 38 -12 23
-35 29 -46 12z m157 -117 c10 -9 18 -26 18 -39 0 -47 -119 -53 -137 -8 -8 23
40 64 74 64 15 0 35 -7 45 -17z"/>
<path d="M330 594 c-30 -69 -27 -82 25 -105 45 -20 45 -20 45 -69 0 -27 5 -61
12 -75 10 -23 7 -29 -50 -89 -65 -68 -77 -96 -40 -96 13 0 39 20 69 52 46 52
48 52 63 33 25 -33 19 -49 -44 -118 -33 -36 -60 -68 -60 -71 0 -3 12 -6 27 -6
19 0 39 14 75 52 69 76 74 122 23 222 -45 89 -44 146 4 131 15 -4 25 -23 37
-63 17 -60 40 -95 56 -86 9 6 8 30 -7 99 -3 17 -8 40 -11 53 -3 16 -19 29 -52
43 -47 21 -47 21 -14 48 33 28 41 54 20 67 -7 5 -29 -12 -57 -43 -40 -44 -49
-49 -70 -42 -17 7 -21 14 -16 27 4 9 9 32 12 50 9 51 -23 42 -47 -14z"/>
</g>
</svg>
