<svg version="1.0" xmlns="http://www.w3.org/2000/svg"
 width="71.000000pt" height="125.000000pt" viewBox="0 0 71.000000 125.000000"
 preserveAspectRatio="xMidYMid meet">
<metadata>
Created by potrace 1.15, written by Peter Selinger 2001-2017
</metadata>
<g transform="translate(0.000000,125.000000) scale(0.100000,-0.100000)"
fill="#000000" stroke="none">
<path d="M330 1064 c-6 -15 -13 -60 -17 -100 -6 -74 -6 -74 -64 -74 -59 0 -59
0 -59 30 0 17 -4 30 -10 30 -5 0 -10 9 -10 20 0 22 -34 29 -45 9 -26 -42 6
-369 36 -369 22 0 32 37 31 115 -1 85 -1 85 43 85 77 0 75 3 75 -139 0 -69 4
-142 9 -161 5 -19 14 -62 21 -95 20 -97 114 -274 187 -352 16 -18 43 -16 43 2
0 21 -34 87 -80 155 -30 45 -80 167 -80 196 0 4 35 -29 78 -74 43 -45 84 -82
90 -82 29 0 -6 92 -56 145 -36 38 -92 120 -92 134 0 6 -4 11 -8 11 -5 0 -16
16 -25 35 -12 26 -17 62 -17 130 0 95 0 95 55 95 59 0 75 -14 75 -64 0 -27 19
-76 30 -76 3 0 14 16 24 36 31 67 1 304 -39 304 -23 0 -35 -25 -35 -72 0 -48
0 -48 -50 -48 -50 0 -50 0 -50 36 0 19 5 44 10 54 8 15 5 31 -11 65 -24 51
-45 57 -59 19z"/>
</g>
</svg>
