<svg version="1.0" xmlns="http://www.w3.org/2000/svg"
 width="57.000000pt" height="107.000000pt" viewBox="0 0 57.000000 107.000000"
 preserveAspectRatio="xMidYMid meet">
<metadata>
Created by potrace 1.15, written by Peter Selinger 2001-2017
</metadata>
<g transform="translate(0.000000,107.000000) scale(0.100000,-0.100000)"
fill="#000000" stroke="none">
<path d="M217 843 c-4 -3 -7 -49 -7 -100 0 -94 0 -94 -52 -91 -42 2 -53 0 -53
-12 0 -14 21 -23 76 -34 25 -5 26 -9 38 -123 7 -65 17 -131 22 -147 5 -16 9
-39 9 -51 0 -36 77 -193 104 -210 35 -22 31 16 -14 139 -19 52 -41 146 -35
146 1 0 22 -16 46 -35 24 -19 52 -35 61 -35 9 0 20 -5 23 -10 4 -6 10 -8 15
-5 16 10 -3 47 -49 94 -129 133 -131 136 -119 173 10 34 11 35 59 30 45 -4 49
-3 49 17 0 13 -6 21 -17 21 -9 0 -31 5 -49 12 -27 9 -34 19 -43 54 -6 24 -11
66 -11 94 0 60 -28 99 -53 73z"/>
</g>
</svg>
