<svg version="1.0" xmlns="http://www.w3.org/2000/svg"
 width="51.000000pt" height="97.000000pt" viewBox="0 0 51.000000 97.000000"
 preserveAspectRatio="xMidYMid meet">
<metadata>
Created by potrace 1.15, written by Peter Selinger 2001-2017
</metadata>
<g transform="translate(0.000000,97.000000) scale(0.100000,-0.100000)"
fill="#000000" stroke="none">
<path d="M356 742 c-3 -5 -6 -41 -8 -80 -2 -70 -3 -72 -28 -72 -22 0 -28 7
-39 45 -7 25 -11 51 -8 59 6 16 -11 36 -30 36 -10 0 -13 -21 -13 -80 0 -80 0
-80 -40 -80 -41 0 -49 7 -28 28 9 9 9 12 0 12 -7 0 -12 15 -12 39 0 42 -21 70
-36 49 -5 -7 -8 -79 -6 -160 2 -113 6 -148 16 -148 8 0 16 24 22 68 9 67 9 67
52 70 38 3 42 1 43 -20 0 -13 2 -38 5 -57 3 -26 -7 -54 -46 -127 -60 -111 -52
-123 20 -35 11 13 22 22 25 19 7 -7 -24 -199 -36 -220 -23 -43 1 -53 28 -12
35 53 53 161 53 315 0 147 0 147 25 151 26 6 28 3 29 -51 1 -53 21 -47 35 11
15 65 11 240 -6 245 -6 2 -14 0 -17 -5z"/>
</g>
</svg>
