<svg version="1.0" xmlns="http://www.w3.org/2000/svg"
 width="47.000000pt" height="65.000000pt" viewBox="0 0 47.000000 65.000000"
 preserveAspectRatio="xMidYMid meet">
<metadata>
Created by potrace 1.15, written by Peter Selinger 2001-2017
</metadata>
<g transform="translate(0.000000,65.000000) scale(0.100000,-0.100000)"
fill="#000000" stroke="none">
<path d="M304 490 c-11 -4 -37 -27 -57 -51 -33 -38 -37 -49 -37 -99 0 -31 5
-61 11 -67 6 -6 9 -21 7 -34 -4 -24 -4 -24 -16 4 -9 22 -18 27 -45 27 -18 0
-42 -7 -53 -15 -16 -13 -17 -16 -4 -25 8 -5 24 -10 35 -10 21 0 51 -37 39 -48
-4 -4 -9 -1 -11 6 -3 6 -17 12 -33 12 -35 0 -49 -29 -23 -47 10 -7 23 -17 30
-23 22 -19 51 -10 87 26 27 27 36 44 36 70 0 19 5 34 10 34 6 0 10 8 10 17 0
9 -3 13 -7 10 -15 -16 -33 18 -33 64 0 37 4 49 15 49 11 0 15 -11 15 -40 0
-66 64 -105 103 -62 32 35 17 53 -25 31 -25 -13 -29 -10 -38 43 -5 24 -12 51
-15 60 -5 13 0 20 19 28 16 6 26 17 26 30 0 21 -12 24 -46 10z"/>
<path d="M400 405 c-14 -17 -40 -20 -40 -5 0 6 -7 10 -15 10 -21 0 -19 -24 4
-44 23 -21 56 -14 72 16 14 26 -3 45 -21 23z"/>
</g>
</svg>
