<svg version="1.0" xmlns="http://www.w3.org/2000/svg"
 width="68.000000pt" height="77.000000pt" viewBox="0 0 68.000000 77.000000"
 preserveAspectRatio="xMidYMid meet">
<metadata>
Created by potrace 1.15, written by Peter Selinger 2001-2017
</metadata>
<g transform="translate(0.000000,77.000000) scale(0.100000,-0.100000)"
fill="#000000" stroke="none">
<path d="M483 714 c-3 -9 3 -24 15 -36 20 -20 20 -20 -9 -64 -30 -43 -30 -43
-68 -1 -21 23 -42 52 -45 65 -8 25 -43 30 -52 8 -3 -8 2 -29 12 -45 18 -31 18
-31 -25 -75 -29 -29 -42 -50 -38 -60 10 -25 28 -19 74 26 36 35 44 39 58 28 8
-7 15 -16 15 -20 0 -4 -22 -31 -50 -60 -54 -57 -59 -67 -33 -77 19 -8 96 72
119 125 8 17 20 32 26 32 7 0 29 16 49 36 37 36 59 38 59 6 0 -9 -20 -48 -45
-85 -46 -71 -55 -97 -32 -97 19 0 71 67 103 133 26 53 27 56 11 81 -10 14 -32
33 -50 42 -17 9 -38 25 -45 35 -16 23 -41 25 -49 3z"/>
<path d="M73 664 c-9 -23 15 -34 75 -34 28 0 52 -4 52 -9 0 -5 -25 -19 -56
-31 -59 -24 -95 -63 -76 -82 8 -8 20 -3 42 16 17 14 50 29 72 33 72 11 104 74
56 107 -32 23 -156 22 -165 0z"/>
<path d="M115 450 c-12 -4 -26 -14 -31 -21 -16 -20 -26 -153 -14 -184 19 -49
35 -23 40 66 5 80 6 84 33 97 44 21 56 4 50 -71 -6 -76 -37 -132 -99 -184 -49
-41 -56 -76 -17 -81 16 -2 35 13 78 65 31 37 58 79 61 93 3 14 10 35 15 48 5
13 9 50 9 82 0 47 -4 64 -20 80 -21 21 -68 26 -105 10z"/>
<path d="M556 386 c-8 -49 -26 -66 -70 -66 -23 0 -25 4 -28 48 -3 39 -6 47
-23 47 -19 0 -20 -8 -23 -107 -3 -107 -3 -108 -27 -108 -35 0 -55 36 -55 97 0
46 -3 53 -19 53 -25 0 -29 -14 -24 -80 6 -73 21 -109 47 -115 37 -7 90 -16
141 -23 48 -7 50 -8 53 -42 6 -60 46 -84 58 -35 15 61 -31 125 -91 125 -32 0
-35 2 -35 29 0 16 -2 35 -5 43 -4 10 13 17 62 26 82 15 95 29 91 97 -3 42 -6
50 -24 53 -19 3 -23 -3 -28 -42z"/>
</g>
</svg>
