<svg version="1.0" xmlns="http://www.w3.org/2000/svg"
 width="68.000000pt" height="75.000000pt" viewBox="0 0 68.000000 75.000000"
 preserveAspectRatio="xMidYMid meet">
<metadata>
Created by potrace 1.15, written by Peter Selinger 2001-2017
</metadata>
<g transform="translate(0.000000,75.000000) scale(0.100000,-0.100000)"
fill="#000000" stroke="none">
<path d="M520 637 c0 -13 9 -32 21 -43 19 -17 20 -26 14 -82 -6 -52 -3 -69 15
-106 21 -43 43 -62 61 -50 12 7 11 41 -2 50 -6 3 -19 20 -29 37 -18 29 -18 31
2 84 20 55 20 55 -18 94 -43 44 -64 49 -64 16z"/>
<path d="M180 617 c-14 -17 -31 -44 -39 -59 -8 -15 -33 -47 -57 -72 -24 -24
-44 -49 -44 -55 0 -47 136 66 178 148 37 71 9 99 -38 38z"/>
<path d="M300 625 c-11 -13 -9 -20 13 -43 24 -25 25 -33 24 -112 -1 -90 18
-150 49 -150 25 0 27 26 5 68 -19 38 -20 43 -5 91 18 60 12 88 -26 130 -33 35
-42 38 -60 16z"/>
<path d="M416 623 c-4 -9 2 -25 14 -38 17 -18 20 -33 18 -86 -2 -51 2 -73 21
-111 16 -31 31 -48 43 -48 24 0 23 13 -7 76 -24 51 -25 55 -9 93 15 39 15 41
-11 85 -28 47 -57 60 -69 29z"/>
<path d="M134 391 c-105 -80 -119 -96 -89 -107 8 -3 38 13 70 40 60 49 73 54
81 33 7 -20 -52 -200 -81 -247 -27 -43 -26 -60 5 -60 28 0 74 94 104 211 28
106 26 128 -14 149 -27 15 -33 13 -76 -19z"/>
<path d="M518 264 c-36 -37 -36 -37 -71 -15 -19 11 -39 21 -46 21 -18 0 -13
-25 9 -45 26 -23 25 -31 -5 -71 -46 -61 -24 -81 33 -29 22 19 45 35 52 35 7 0
26 -11 42 -25 53 -45 78 -13 29 36 -17 17 -31 32 -31 34 0 2 12 16 26 30 25
25 29 55 9 62 -6 2 -27 -13 -47 -33z"/>
<path d="M296 275 c-3 -9 -6 -61 -6 -114 0 -144 -3 -142 224 -125 111 9 138
21 97 44 -15 8 -45 7 -108 -1 -56 -7 -101 -8 -123 -2 -35 9 -35 9 -40 108 -4
82 -8 100 -21 103 -9 2 -19 -4 -23 -13z"/>
</g>
</svg>
