<svg version="1.0" xmlns="http://www.w3.org/2000/svg"
 width="73.000000pt" height="103.000000pt" viewBox="0 0 73.000000 103.000000"
 preserveAspectRatio="xMidYMid meet">
<metadata>
Created by potrace 1.15, written by Peter Selinger 2001-2017
</metadata>
<g transform="translate(0.000000,103.000000) scale(0.100000,-0.100000)"
fill="#000000" stroke="none">
<path d="M456 973 c-23 -23 44 -103 86 -103 19 0 48 -36 48 -60 0 -8 -22 -37
-50 -63 -55 -53 -86 -102 -70 -112 6 -4 35 7 64 23 54 29 55 29 60 8 3 -12 3
-31 0 -43 -4 -12 -1 -44 4 -70 6 -26 16 -76 23 -110 18 -86 31 -66 34 54 2 54
5 158 7 231 4 127 4 134 -18 155 -12 12 -39 28 -60 36 -22 8 -41 17 -44 20
-10 12 -78 40 -84 34z"/>
<path d="M170 940 c0 -5 5 -10 10 -10 6 0 10 -6 10 -14 0 -7 27 -41 59 -74 42
-41 61 -70 65 -93 6 -32 3 -36 -51 -74 -31 -22 -61 -45 -67 -51 -6 -6 -22 -16
-35 -23 -26 -15 -18 -28 19 -31 45 -4 54 0 100 41 41 36 46 38 57 22 7 -9 13
-35 14 -57 2 -74 8 -115 19 -136 6 -12 13 -20 15 -18 3 2 6 71 8 153 4 148 4
151 -24 211 -25 54 -50 83 -115 133 -36 29 -84 40 -84 21z"/>
<path d="M122 750 c-25 -41 -10 -77 27 -65 27 8 34 34 16 61 -19 29 -27 30
-43 4z"/>
<path d="M192 458 c-48 -53 -62 -67 -105 -103 -20 -16 -37 -33 -37 -37 0 -25
106 11 131 43 10 13 20 22 22 19 3 -3 10 -30 16 -60 23 -110 31 -130 50 -130
34 0 34 10 5 225 -8 55 -20 85 -35 85 -5 0 -26 -19 -47 -42z"/>
<path d="M454 326 c-3 -9 -3 -24 1 -33 10 -22 13 -37 19 -90 3 -24 8 -54 12
-68 9 -37 -20 -44 -54 -12 -31 28 -72 44 -72 27 0 -14 29 -70 44 -86 19 -18
76 -32 163 -39 89 -8 123 -2 123 21 0 28 -27 43 -81 46 -54 3 -54 3 -57 41 -2
28 0 37 12 37 35 0 109 104 89 124 -11 11 -18 7 -57 -29 -21 -19 -44 -35 -50
-35 -7 0 -19 19 -27 42 -18 49 -55 80 -65 54z"/>
</g>
</svg>
