<svg version="1.0" xmlns="http://www.w3.org/2000/svg"
 width="65.000000pt" height="103.000000pt" viewBox="0 0 65.000000 103.000000"
 preserveAspectRatio="xMidYMid meet">
<metadata>
Created by potrace 1.15, written by Peter Selinger 2001-2017
</metadata>
<g transform="translate(0.000000,103.000000) scale(0.100000,-0.100000)"
fill="#000000" stroke="none">
<path d="M370 854 c0 -33 39 -83 93 -119 29 -19 34 -43 15 -78 -12 -24 -43
-54 -61 -60 -16 -5 2 -27 23 -27 10 0 28 12 39 27 12 14 24 24 27 21 3 -3 8
-38 11 -77 4 -46 10 -71 18 -71 25 0 33 27 33 116 1 50 2 95 3 100 1 5 1 14 0
20 -1 13 -66 84 -77 84 -5 0 -27 18 -49 40 -41 40 -75 52 -75 24z"/>
<path d="M170 821 c0 -18 44 -86 82 -126 21 -22 38 -44 38 -50 0 -5 -15 -20
-34 -32 -18 -11 -47 -40 -65 -62 -33 -41 -33 -41 -4 -41 16 0 38 8 49 19 11
10 30 23 41 29 18 10 22 8 27 -11 3 -12 6 -46 6 -74 0 -29 4 -53 9 -53 22 0
30 34 32 132 2 105 2 105 -82 192 -81 83 -99 97 -99 77z"/>
<path d="M84 625 c-20 -30 -14 -40 18 -31 37 9 51 23 45 40 -10 24 -44 19 -63
-9z"/>
<path d="M85 396 c-45 -39 -41 -56 8 -38 52 19 57 16 58 -30 0 -24 6 -58 13
-77 11 -31 13 -32 29 -17 12 13 14 22 7 42 -6 14 -10 43 -10 64 0 95 -37 114
-105 56z"/>
<path d="M403 373 c-7 -3 -13 -17 -13 -31 -1 -15 -7 -40 -13 -56 -13 -29 -13
-29 -50 7 -20 20 -43 37 -52 37 -24 0 16 -71 59 -107 36 -29 36 -29 14 -59
-11 -16 -36 -41 -54 -54 -18 -14 -34 -29 -34 -34 0 -7 17 -6 105 9 92 16 165
59 193 115 6 14 17 33 24 42 10 14 10 20 1 29 -9 9 -23 2 -60 -34 -26 -26 -54
-47 -60 -47 -7 0 -13 -4 -13 -10 0 -5 -5 -10 -11 -10 -7 0 -8 31 -5 94 6 95
-1 120 -31 109z"/>
</g>
</svg>
