<svg version="1.0" xmlns="http://www.w3.org/2000/svg"
 width="79.000000pt" height="113.000000pt" viewBox="0 0 79.000000 113.000000"
 preserveAspectRatio="xMidYMid meet">
<metadata>
Created by potrace 1.15, written by Peter Selinger 2001-2017
</metadata>
<g transform="translate(0.000000,113.000000) scale(0.100000,-0.100000)"
fill="#000000" stroke="none">
<path d="M240 990 c-13 -8 -12 -11 5 -24 11 -9 26 -16 33 -17 23 -3 27 -5 75
-33 32 -19 49 -36 53 -54 3 -15 10 -37 15 -50 22 -56 -2 -57 -48 -2 -42 49
-57 51 -48 8 7 -36 59 -88 87 -88 14 0 18 -8 18 -40 0 -49 -17 -52 -69 -11
-40 32 -81 48 -81 32 0 -25 63 -80 105 -92 44 -13 44 -13 50 -69 10 -88 16
-111 28 -107 13 4 26 61 26 120 1 41 7 49 59 86 41 29 82 66 82 75 0 14 -54 5
-69 -12 -9 -11 -28 -22 -43 -26 -25 -6 -28 -4 -28 18 0 17 8 27 30 36 16 7 34
18 40 25 15 19 17 87 3 92 -7 3 -13 -2 -13 -10 0 -8 -15 -26 -32 -41 -33 -27
-33 -27 -42 6 -5 18 -17 51 -27 72 -10 22 -15 44 -12 49 3 6 1 7 -6 3 -7 -5
-19 0 -29 12 -17 20 -98 52 -130 52 -9 0 -24 -5 -32 -10z"/>
<path d="M130 624 c0 -7 39 -64 57 -82 16 -16 28 -61 19 -69 -4 -4 -18 5 -32
20 -14 15 -26 27 -27 27 -1 0 -17 4 -35 9 -26 8 -32 7 -32 -5 0 -18 99 -114
117 -114 9 0 13 -15 13 -45 0 -25 -5 -45 -10 -45 -6 0 -25 15 -43 34 -49 51
-103 74 -90 39 8 -24 91 -103 107 -103 24 0 32 -40 25 -122 -7 -75 1 -118 22
-118 16 0 29 59 29 129 0 77 0 77 57 117 58 39 80 74 48 74 -9 0 -33 -11 -53
-25 -37 -25 -37 -25 -40 -4 -5 32 7 69 22 69 12 0 106 84 106 95 0 16 -50 0
-80 -25 -34 -29 -34 -29 -45 14 -6 24 -21 56 -33 71 -32 40 -102 81 -102 59z"/>
<path d="M558 490 c47 -47 52 -55 52 -96 0 -50 -6 -52 -52 -24 -41 25 -73 27
-64 4 3 -9 6 -18 6 -20 0 -2 5 -4 10 -4 6 0 16 -5 23 -11 7 -5 27 -19 45 -29
26 -16 32 -26 32 -55 0 -43 -9 -44 -53 -6 -35 31 -114 64 -122 51 -3 -4 13
-22 35 -40 21 -17 49 -40 61 -51 12 -10 35 -24 51 -31 29 -13 29 -13 26 -90
-2 -76 6 -109 17 -72 4 10 11 27 16 36 5 10 9 40 9 67 0 47 2 52 52 95 29 25
56 46 60 46 5 0 8 7 8 15 0 22 -16 18 -65 -15 -24 -16 -46 -30 -49 -30 -3 0
-6 16 -6 35 0 27 6 38 28 52 15 10 30 23 35 30 4 7 14 19 23 28 14 13 14 15
-3 15 -11 0 -23 -4 -28 -9 -6 -5 -20 -12 -33 -16 -21 -6 -22 -4 -21 43 2 45
-2 54 -32 85 -23 24 -47 37 -74 42 -40 6 -40 6 13 -45z"/>
</g>
</svg>
