<svg version="1.0" xmlns="http://www.w3.org/2000/svg"
 width="67.000000pt" height="88.000000pt" viewBox="0 0 67.000000 88.000000"
 preserveAspectRatio="xMidYMid meet">
<metadata>
Created by potrace 1.15, written by Peter Selinger 2001-2017
</metadata>
<g transform="translate(0.000000,88.000000) scale(0.100000,-0.100000)"
fill="#000000" stroke="none">
<path d="M419 678 c-7 -17 -39 -57 -71 -89 -32 -32 -58 -63 -58 -69 0 -20 43
0 83 38 35 34 38 35 54 19 16 -15 15 -19 -16 -62 -18 -25 -37 -62 -43 -81 -18
-67 -47 -122 -84 -163 -20 -23 -34 -44 -31 -47 8 -8 60 30 92 67 26 32 26 32
65 0 21 -17 43 -31 48 -31 4 0 16 -6 26 -13 15 -11 16 -16 5 -28 -8 -8 -21
-28 -29 -44 -20 -39 -44 -39 -48 0 -4 36 -26 55 -64 55 -34 0 -44 -17 -63
-112 -22 -103 -22 -103 -5 -103 14 0 31 37 50 113 13 50 24 53 38 12 6 -16 22
-35 36 -42 22 -9 29 -8 46 7 12 11 28 34 37 52 23 50 40 42 54 -28 11 -58 29
-89 51 -89 6 0 8 9 3 23 -4 12 -13 51 -20 87 -8 38 -21 69 -32 78 -10 7 -17
18 -15 23 1 5 -14 17 -33 26 -64 30 -26 50 42 22 40 -16 56 -3 24 20 -80 56
-90 96 -20 85 48 -8 52 9 9 31 -16 9 -30 22 -30 30 0 11 8 13 30 9 46 -10 38
17 -15 46 -25 14 -45 26 -45 28 0 2 11 18 25 36 14 18 25 37 25 42 0 16 -75
84 -92 84 -8 0 -21 -14 -29 -32z m67 -53 c4 -8 1 -22 -6 -30 -11 -14 -15 -14
-31 1 -14 13 -16 20 -8 31 15 17 38 17 45 -2z m2 -129 c3 -13 -1 -17 -14 -14
-11 2 -20 11 -22 22 -3 13 1 17 14 14 11 -2 20 -11 22 -22z m-20 -69 c-2 -17
-9 -21 -30 -19 -31 3 -34 -4 -13 -32 31 -40 5 -65 -28 -28 -15 16 -14 22 8 70
22 48 26 52 45 42 14 -7 20 -19 18 -33z"/>
<path d="M107 623 c-5 -4 7 -20 25 -35 29 -23 31 -29 20 -45 -31 -44 -46 -95
-54 -188 -10 -107 -23 -167 -46 -203 -16 -25 -11 -38 12 -29 33 13 56 83 66
202 16 183 72 266 73 108 1 -37 -5 -124 -12 -193 -13 -127 -7 -210 16 -217 8
-3 11 35 12 134 0 80 7 171 16 216 17 90 19 145 6 180 -15 39 -114 91 -134 70z"/>
</g>
</svg>
