<svg version="1.0" xmlns="http://www.w3.org/2000/svg"
 width="103.000000pt" height="119.000000pt" viewBox="0 0 103.000000 119.000000"
 preserveAspectRatio="xMidYMid meet">
<metadata>
Created by potrace 1.15, written by Peter Selinger 2001-2017
</metadata>
<g transform="translate(0.000000,119.000000) scale(0.100000,-0.100000)"
fill="#000000" stroke="none">
<path d="M328 1015 c-2 -2 -30 -5 -63 -8 -106 -10 -155 -25 -155 -46 0 -16
121 -33 177 -26 32 5 94 7 138 6 44 -1 86 3 94 8 25 16 4 38 -46 49 -50 11
-140 21 -145 17z"/>
<path d="M780 953 c-30 -6 -117 -71 -154 -116 -57 -68 -90 -188 -72 -260 7
-31 39 -67 60 -67 32 0 28 -30 -18 -119 -25 -49 -46 -92 -46 -95 0 -15 39 -4
45 13 3 10 29 41 57 69 40 39 55 49 65 40 15 -12 18 -110 3 -137 -11 -22 -30
-199 -23 -218 11 -28 27 -4 43 64 9 40 24 82 32 95 15 22 23 56 34 143 6 42
-5 60 -65 108 -19 15 -21 24 -16 65 3 26 10 49 15 50 6 2 10 10 10 17 0 7 27
42 61 76 33 35 68 77 76 93 22 42 33 86 22 86 -11 0 -43 -31 -57 -56 -9 -17
-11 -17 -27 -1 -9 10 -30 24 -46 32 -33 18 -34 21 -14 42 12 12 40 16 115 16
92 1 98 2 89 20 -6 10 -21 22 -35 27 -32 12 -121 20 -154 13z m-7 -166 c15
-10 27 -23 27 -28 0 -14 -55 -69 -70 -69 -20 0 -80 72 -80 95 0 29 37 46 70
32 14 -6 37 -19 53 -30z m-96 -161 c-8 -9 -26 -17 -39 -18 -19 -3 -24 2 -26
26 -2 15 -1 40 3 54 6 25 6 25 42 -10 33 -33 35 -38 20 -52z"/>
<path d="M299 839 c-8 -5 -26 -9 -41 -9 -39 0 -121 -23 -136 -37 -11 -11 -10
-14 5 -19 54 -18 79 -30 90 -44 20 -25 73 -127 73 -140 0 -16 -77 -5 -136 20
-43 19 -44 19 -44 0 0 -11 4 -20 9 -20 5 0 12 -8 16 -19 6 -19 70 -56 117 -67
26 -6 26 -8 32 -102 4 -54 11 -119 16 -145 6 -27 10 -64 10 -83 0 -19 4 -34
10 -34 19 0 32 88 31 224 0 141 0 141 37 166 53 36 114 99 109 113 -5 15 -35
10 -54 -9 -19 -19 -82 -48 -90 -41 -3 3 9 27 26 53 17 26 31 51 31 56 0 5 11
25 24 46 17 27 36 42 65 52 48 15 60 28 40 41 -18 12 -222 10 -240 -2z m91
-64 c0 -17 -18 -51 -37 -72 -6 -7 -15 -22 -18 -33 -3 -11 -10 -20 -14 -20 -12
0 -62 100 -56 110 4 6 23 10 43 10 20 0 44 5 52 10 21 14 30 12 30 -5z"/>
</g>
</svg>
