<svg version="1.0" xmlns="http://www.w3.org/2000/svg"
 width="63.000000pt" height="85.000000pt" viewBox="0 0 63.000000 85.000000"
 preserveAspectRatio="xMidYMid meet">
<metadata>
Created by potrace 1.15, written by Peter Selinger 2001-2017
</metadata>
<g transform="translate(0.000000,85.000000) scale(0.100000,-0.100000)"
fill="#000000" stroke="none">
<path d="M302 768 c-7 -7 -12 -20 -12 -29 0 -19 -41 -33 -70 -24 -27 9 -98
-31 -121 -68 -18 -29 -20 -42 -13 -132 14 -198 5 -335 -28 -401 -14 -29 -6
-68 14 -72 24 -5 36 30 49 147 14 123 15 126 33 112 9 -7 40 -11 78 -9 57 3
63 1 63 -17 0 -12 -9 -21 -24 -25 -13 -3 -37 -21 -52 -40 -23 -29 -29 -46 -31
-100 -3 -54 0 -65 14 -68 13 -2 18 7 23 45 10 78 14 92 35 113 41 41 50 28 50
-69 0 -50 4 -92 9 -96 18 -11 31 34 31 109 0 74 1 76 25 76 33 0 56 -37 64
-102 4 -38 10 -53 21 -53 15 0 15 3 12 84 -3 55 -39 105 -82 111 -56 8 -47 28
17 35 70 8 83 12 83 24 0 5 -19 12 -42 15 -99 13 -97 12 -61 21 42 10 75 46
76 86 3 44 -19 47 -33 4 -9 -26 -21 -39 -47 -50 -45 -19 -43 -19 -43 8 0 16 9
28 25 35 13 6 31 27 39 45 10 25 22 36 45 40 32 7 41 21 19 29 -7 3 -78 2
-158 -1 -120 -5 -145 -9 -145 -21 0 -10 12 -16 32 -18 24 -2 34 -10 41 -32 6
-16 20 -33 31 -40 13 -6 21 -21 21 -36 0 -24 0 -24 -30 -9 -17 9 -35 27 -40
40 -11 28 -37 33 -47 9 -8 -22 47 -85 88 -100 34 -12 34 -12 -28 -13 -34 -1
-68 -3 -76 -6 -11 -5 -15 17 -21 122 -11 213 -1 223 219 223 136 0 136 0 151
-35 9 -23 14 -73 14 -152 1 -128 15 -355 26 -397 4 -17 13 -26 26 -26 20 0 20
4 14 78 -4 42 -10 167 -15 277 -10 266 -18 281 -149 300 -68 9 -77 13 -82 34
-7 29 -21 36 -38 19z m78 -263 c0 -11 -46 -45 -61 -45 -19 0 -49 25 -49 41 0
5 25 9 55 9 30 0 55 -2 55 -5z"/>
<path d="M295 631 c-71 -5 -90 -9 -90 -21 0 -12 18 -16 90 -18 50 -1 96 2 104
7 14 9 9 43 -6 39 -4 -1 -48 -4 -98 -7z"/>
</g>
</svg>
