<svg version="1.0" xmlns="http://www.w3.org/2000/svg"
 width="70.000000pt" height="91.000000pt" viewBox="0 0 70.000000 91.000000"
 preserveAspectRatio="xMidYMid meet">
<metadata>
Created by potrace 1.15, written by Peter Selinger 2001-2017
</metadata>
<g transform="translate(0.000000,91.000000) scale(0.100000,-0.100000)"
fill="#000000" stroke="none">
<path d="M100 665 c-21 -25 -1 -35 74 -35 73 0 107 14 91 40 -10 16 -150 13
-165 -5z"/>
<path d="M314 656 c-10 -27 6 -39 47 -32 37 6 39 5 39 -20 0 -25 -2 -26 -41
-20 -32 5 -46 3 -60 -10 -16 -14 -34 -16 -121 -12 -116 6 -128 4 -128 -23 0
-14 9 -21 30 -25 26 -6 30 -11 30 -38 0 -36 15 -56 42 -56 14 0 18 -8 18 -32
0 -42 -13 -63 -34 -55 -11 4 -16 19 -16 47 0 27 -4 40 -14 40 -16 0 -26 -30
-26 -81 0 -37 4 -41 72 -63 19 -6 25 -46 8 -46 -6 0 -19 5 -30 12 -27 17 -32
8 -38 -70 -4 -64 -3 -70 19 -86 14 -9 43 -16 71 -16 68 0 88 22 88 98 0 67
-10 87 -39 79 -16 -4 -21 -1 -21 14 0 14 7 19 29 19 16 0 37 7 45 16 20 19 22
107 3 123 -17 14 -27 4 -27 -26 0 -32 -17 -63 -34 -63 -15 0 -31 79 -19 91 4
4 17 9 28 11 16 2 21 12 23 46 2 32 7 42 21 42 9 0 22 5 28 11 7 7 59 11 139
10 139 0 164 3 164 24 0 16 -22 25 -61 25 -45 0 -38 28 9 32 30 2 38 7 40 26
3 22 1 23 -60 20 -63 -3 -63 -3 -66 -35 -2 -18 -7 -33 -11 -33 -4 0 -11 15
-16 33 -10 31 -12 32 -68 35 -44 2 -59 -1 -63 -12z m-109 -161 c0 -14 -8 -21
-27 -23 -22 -3 -28 1 -28 16 0 25 10 33 35 30 12 -2 20 -10 20 -23z m13 -337
c3 -27 1 -28 -37 -28 -36 0 -41 3 -41 23 0 32 9 38 45 35 24 -2 31 -8 33 -30z"/>
<path d="M323 513 c-20 -7 -17 -89 3 -97 22 -8 77 -7 91 2 22 14 27 61 8 82
-17 19 -71 26 -102 13z m75 -45 c3 -14 -3 -18 -27 -18 -25 0 -31 4 -31 21 0
16 5 20 27 17 17 -2 29 -10 31 -20z"/>
<path d="M462 508 c-7 -7 -12 -29 -12 -49 0 -33 3 -37 31 -43 57 -11 88 -7 99
13 16 31 12 69 -9 81 -27 14 -94 13 -109 -2z m86 -40 c3 -14 -3 -18 -27 -18
-25 0 -31 4 -31 21 0 16 5 20 27 17 17 -2 29 -10 31 -20z"/>
<path d="M415 391 c-46 -21 -68 -43 -63 -66 3 -13 8 -13 42 5 21 12 41 19 44
15 11 -10 -18 -30 -60 -40 -39 -9 -43 -14 -50 -50 -13 -60 -6 -247 9 -252 7
-3 18 7 24 21 12 25 15 25 123 28 91 2 111 6 111 18 0 9 -11 16 -30 18 -82 7
-103 33 -39 49 47 11 48 27 2 31 -50 4 -49 22 1 22 25 0 41 5 45 15 6 18 -22
35 -58 35 -46 0 -27 19 22 22 39 3 47 6 47 23 0 17 -8 20 -48 23 -41 3 -48 6
-42 20 18 42 17 55 0 68 -24 18 -32 17 -80 -5z m23 -138 c-4 -23 -58 -31 -58
-9 0 15 14 24 43 25 12 1 17 -5 15 -16z m-3 -63 c4 -6 -8 -10 -30 -10 -22 0
-34 4 -30 10 3 6 17 10 30 10 13 0 27 -4 30 -10z m-11 -56 c35 -13 11 -44 -35
-44 -12 0 -19 7 -19 18 0 31 19 40 54 26z"/>
</g>
</svg>
