<svg version="1.0" xmlns="http://www.w3.org/2000/svg"
 width="71.000000pt" height="91.000000pt" viewBox="0 0 71.000000 91.000000"
 preserveAspectRatio="xMidYMid meet">
<metadata>
Created by potrace 1.15, written by Peter Selinger 2001-2017
</metadata>
<g transform="translate(0.000000,91.000000) scale(0.100000,-0.100000)"
fill="#000000" stroke="none">
<path d="M116 677 c-12 -9 -17 -20 -13 -31 8 -21 114 -23 143 -2 27 21 10 33
-56 41 -40 5 -60 3 -74 -8z"/>
<path d="M376 677 c-13 -10 -15 -16 -8 -21 24 -14 11 -26 -28 -26 -33 0 -40
-3 -40 -20 0 -19 7 -20 149 -20 82 0 155 -2 163 -5 7 -3 22 1 33 9 16 12 17
16 6 30 -7 9 -26 16 -42 16 -19 0 -30 6 -34 20 -4 13 -15 20 -31 20 -19 0 -24
-5 -24 -25 0 -18 -7 -26 -24 -31 -45 -11 -70 -1 -76 30 -6 35 -19 41 -44 23z"/>
<path d="M143 573 c-70 -4 -73 -5 -73 -28 0 -18 5 -25 20 -25 14 0 21 -9 26
-36 4 -21 16 -41 30 -51 14 -9 24 -25 24 -39 0 -24 -11 -30 -70 -36 -44 -5
-30 -32 20 -38 42 -5 45 -7 45 -35 0 -26 -4 -30 -30 -33 -46 -6 -55 -19 -55
-82 0 -56 1 -58 31 -69 18 -6 58 -11 91 -11 67 0 72 5 73 85 0 47 -2 51 -33
65 -27 13 -32 20 -30 45 3 25 9 31 41 38 44 11 44 31 0 35 -22 2 -33 10 -37
25 -9 35 -8 37 25 49 31 11 49 41 49 83 0 13 6 26 13 29 21 9 -24 36 -57 34
-17 -1 -64 -4 -103 -5z m97 -71 c0 -52 -51 -72 -72 -28 -16 37 -4 56 37 56 32
0 35 -3 35 -28z m-26 -288 c10 -4 16 -18 16 -40 0 -34 0 -34 -50 -34 -50 0
-50 0 -50 40 0 39 1 40 34 40 19 0 41 -3 50 -6z"/>
<path d="M337 553 c-12 -11 -8 -78 5 -91 7 -7 31 -12 55 -12 32 0 45 5 53 19
27 52 0 91 -64 91 -23 0 -46 -3 -49 -7z m71 -51 c3 -18 -1 -22 -22 -22 -19 0
-26 5 -26 18 0 39 43 43 48 4z"/>
<path d="M491 546 c-7 -8 -11 -32 -9 -53 3 -38 3 -38 65 -41 59 -3 63 -2 69
22 9 36 -4 66 -33 77 -36 13 -79 11 -92 -5z m67 -48 c3 -13 -3 -18 -22 -18
-20 0 -26 5 -26 21 0 15 5 20 22 17 13 -2 24 -11 26 -20z"/>
<path d="M337 403 c-17 -16 16 -30 63 -25 46 4 50 3 50 -17 0 -18 -6 -21 -39
-21 -61 0 -66 -13 -66 -174 0 -134 1 -141 20 -141 16 0 21 8 23 38 3 39 3 39
115 36 99 -3 112 -2 115 13 3 14 -7 17 -55 20 -51 3 -58 6 -61 26 -3 20 0 22
47 22 39 0 51 4 51 15 0 11 -12 15 -50 15 -43 0 -50 3 -50 20 0 17 7 20 50 20
38 0 50 4 50 15 0 11 -12 15 -50 15 -37 0 -50 4 -50 14 0 11 14 16 47 18 42 3
49 6 57 30 8 22 6 32 -9 48 -16 18 -30 20 -135 20 -64 0 -120 -3 -123 -7z
m213 -37 c0 -18 -39 -31 -52 -18 -15 15 0 32 28 32 14 0 24 -6 24 -14z m-102
-68 c-7 -20 -48 -23 -48 -4 0 11 9 16 26 16 16 0 24 -5 22 -12z m2 -68 c0 -15
-7 -20 -24 -20 -27 0 -41 14 -31 30 3 6 17 10 31 10 17 0 24 -5 24 -20z m0
-70 c0 -16 -7 -20 -30 -20 -23 0 -30 4 -30 20 0 16 7 20 30 20 23 0 30 -4 30
-20z"/>
</g>
</svg>
