<svg version="1.0" xmlns="http://www.w3.org/2000/svg"
 width="63.000000pt" height="84.000000pt" viewBox="0 0 63.000000 84.000000"
 preserveAspectRatio="xMidYMid meet">
<metadata>
Created by potrace 1.15, written by Peter Selinger 2001-2017
</metadata>
<g transform="translate(0.000000,84.000000) scale(0.100000,-0.100000)"
fill="#000000" stroke="none">
<path d="M112 632 c-27 -8 -30 -23 -9 -36 24 -15 172 6 172 24 0 12 -15 15
-70 17 -38 1 -80 -2 -93 -5z"/>
<path d="M327 633 c-19 -19 -4 -32 41 -35 45 -3 47 -5 50 -34 3 -28 0 -32 -29
-38 -17 -3 -42 -6 -55 -6 -27 0 -33 -24 -8 -34 9 -3 33 -6 55 -6 36 0 39 -2
39 -29 0 -31 -18 -41 -73 -41 -22 0 -28 -4 -25 -17 2 -14 15 -19 57 -21 30 -2
58 1 63 6 4 4 12 28 16 53 6 38 11 44 35 47 27 3 27 2 27 -52 0 -49 2 -56 20
-56 26 0 33 32 34 148 1 120 -1 122 -139 122 -56 0 -105 -3 -108 -7z m188 -49
c9 -9 15 -26 13 -38 -2 -17 -10 -21 -38 -21 -33 0 -35 2 -31 30 1 17 5 33 8
38 7 12 31 8 48 -9z"/>
<path d="M81 531 c-8 -5 -11 -16 -8 -25 9 -22 168 -23 187 -1 10 12 8 16 -15
25 -32 12 -145 13 -164 1z"/>
<path d="M105 423 c-22 -6 -36 -23 -29 -35 12 -19 184 -3 184 17 0 21 -98 32
-155 18z"/>
<path d="M311 313 c-8 -16 -26 -18 -129 -18 -66 0 -124 -3 -127 -7 -4 -4 -5
-14 -1 -23 5 -14 23 -16 128 -13 123 3 123 3 123 -92 0 -88 1 -95 20 -95 18 0
20 8 23 90 2 49 7 92 13 96 6 3 43 4 84 1 85 -5 125 2 125 23 0 22 -42 29
-131 21 -72 -6 -79 -5 -89 14 -13 25 -26 26 -39 3z"/>
<path d="M130 190 c-29 -29 -30 -140 -1 -140 20 0 31 25 31 73 0 25 3 27 45
27 49 0 67 18 45 45 -19 23 -95 20 -120 -5z"/>
<path d="M422 203 c-28 -5 -40 -31 -21 -44 8 -5 34 -8 59 -7 44 3 45 3 42 -27
-6 -72 21 -97 53 -49 25 39 13 90 -28 114 -31 19 -56 22 -105 13z"/>
</g>
</svg>
