<svg version="1.0" xmlns="http://www.w3.org/2000/svg"
 width="63.000000pt" height="81.000000pt" viewBox="0 0 63.000000 81.000000"
 preserveAspectRatio="xMidYMid meet">
<metadata>
Created by potrace 1.15, written by Peter Selinger 2001-2017
</metadata>
<g transform="translate(0.000000,81.000000) scale(0.100000,-0.100000)"
fill="#000000" stroke="none">
<path d="M397 674 c-4 -4 -7 -18 -7 -31 0 -21 -4 -23 -59 -23 -33 0 -62 -4
-66 -9 -12 -20 27 -41 76 -41 41 0 49 -3 49 -19 0 -15 -10 -20 -50 -25 -62 -8
-70 -22 -70 -115 0 -70 0 -70 63 -73 56 -3 62 -5 65 -25 3 -20 -1 -23 -31 -23
-49 0 -66 -8 -82 -41 -19 -36 -20 -149 -2 -149 26 0 37 25 37 81 0 53 8 69 36
69 2 0 4 -34 4 -76 0 -72 1 -75 23 -72 20 3 22 9 25 74 2 62 6 73 22 77 18 5
20 0 20 -63 0 -77 6 -100 26 -100 11 0 14 18 14 81 0 71 2 80 18 77 14 -3 17
-16 20 -86 3 -79 4 -82 26 -82 30 0 36 16 36 99 0 85 -16 102 -95 109 -50 4
-55 7 -55 28 0 23 4 24 59 24 77 0 91 13 91 88 0 82 -17 102 -86 102 -47 0
-54 2 -54 20 0 18 7 20 74 20 78 0 97 10 75 37 -11 12 -27 14 -76 10 -65 -5
-78 1 -85 38 -3 20 -28 31 -41 19z m134 -190 c10 -13 10 -17 -2 -25 -22 -15
-73 -6 -77 13 -5 27 58 37 79 12z m-136 -14 c0 -10 -12 -16 -37 -18 -37 -3
-51 12 -31 32 13 13 68 2 68 -14z m5 -70 c0 -17 -7 -20 -45 -20 -38 0 -45 3
-45 20 0 17 7 20 45 20 38 0 45 -3 45 -20z m143 0 c-4 -17 -14 -20 -54 -20
-42 0 -49 3 -49 20 0 18 7 20 54 20 49 0 54 -2 49 -20z"/>
<path d="M92 643 c-7 -3 -19 -18 -27 -33 -12 -24 -15 -79 -15 -287 0 -147 4
-264 10 -273 7 -11 14 -12 26 -4 16 9 17 34 15 255 -1 134 1 252 5 262 10 27
42 41 61 26 13 -11 14 -51 12 -283 -3 -280 1 -306 36 -252 14 21 16 59 13 294
-3 306 -2 302 -77 301 -25 0 -52 -3 -59 -6z"/>
</g>
</svg>
