<svg version="1.0" xmlns="http://www.w3.org/2000/svg"
 width="71.000000pt" height="73.000000pt" viewBox="0 0 71.000000 73.000000"
 preserveAspectRatio="xMidYMid meet">
<metadata>
Created by potrace 1.15, written by Peter Selinger 2001-2017
</metadata>
<g transform="translate(0.000000,73.000000) scale(0.100000,-0.100000)"
fill="#000000" stroke="none">
<path d="M114 648 c-7 -10 15 -33 40 -41 6 -2 -6 -20 -27 -39 -40 -38 -40 -39
-42 -173 -1 -119 -18 -199 -50 -236 -28 -35 -32 -57 -10 -65 19 -8 41 10 70
56 33 53 37 73 44 227 6 138 7 143 33 170 17 17 31 24 37 18 5 -6 5 -52 0
-110 -11 -141 -11 -333 1 -356 7 -12 21 -19 40 -19 57 0 89 102 97 314 6 139
8 150 31 178 33 39 66 35 70 -8 2 -25 -6 -41 -44 -83 -47 -53 -54 -76 -12 -47
27 19 58 21 58 4 0 -16 -28 -57 -57 -86 -40 -39 -24 -57 22 -26 23 15 25 15
31 0 11 -29 -4 -60 -56 -113 -27 -29 -50 -55 -50 -58 0 -12 26 -3 57 21 19 14
37 23 41 19 4 -4 7 -43 7 -88 0 -75 2 -82 20 -82 18 0 20 8 23 83 2 49 7 82
13 82 6 0 22 -9 36 -20 60 -47 58 -9 -4 55 -38 40 -47 56 -46 83 1 45 8 49 44
28 23 -14 34 -15 42 -7 9 9 0 22 -36 52 -69 59 -63 101 11 78 39 -11 39 -11
45 -158 3 -80 10 -160 17 -178 10 -28 47 -63 66 -63 7 0 1 53 -16 145 -6 37
-8 115 -4 200 6 135 5 141 -18 174 -41 61 -71 76 -158 79 -79 4 -79 4 -121
-35 -42 -40 -42 -40 -50 -209 -5 -93 -11 -185 -14 -204 -8 -43 -34 -100 -46
-100 -14 0 -11 163 6 314 17 156 10 192 -44 220 -35 19 -87 21 -97 4z m433
-54 c23 -6 43 -49 43 -90 0 -29 -3 -29 -51 -2 -39 22 -57 54 -45 83 6 16 18
18 53 9z"/>
</g>
</svg>
