<svg version="1.0" xmlns="http://www.w3.org/2000/svg"
 width="70.000000pt" height="124.000000pt" viewBox="0 0 70.000000 124.000000"
 preserveAspectRatio="xMidYMid meet">
<metadata>
Created by potrace 1.15, written by Peter Selinger 2001-2017
</metadata>
<g transform="translate(0.000000,124.000000) scale(0.100000,-0.100000)"
fill="#000000" stroke="none">
<path d="M147 1153 c-3 -5 -8 -54 -12 -110 -6 -87 -10 -103 -24 -103 -30 0
-39 20 -34 78 4 63 -8 95 -29 74 -14 -14 -27 -346 -14 -359 2 -2 11 -1 20 3
13 5 16 21 16 84 0 80 9 97 44 84 14 -5 14 -38 0 -287 -7 -113 -8 -118 -28
-115 -19 3 -22 11 -26 75 -5 67 -20 107 -33 86 -13 -21 -26 -477 -14 -490 20
-20 31 25 35 142 4 123 5 125 29 131 13 4 27 4 30 0 7 -7 5 -156 -4 -246 -10
-113 -9 -134 8 -138 30 -6 35 35 44 373 8 323 15 463 25 543 13 99 12 156 -2
170 -14 14 -25 15 -31 5z"/>
<path d="M226 1092 c-2 -4 -1 -14 3 -21 6 -10 57 -14 207 -16 110 -1 206 -6
215 -9 23 -10 32 19 11 36 -13 12 -61 15 -224 17 -114 1 -209 -2 -212 -7z"/>
<path d="M430 1023 c-8 -3 -17 -9 -20 -12 -3 -3 -36 -30 -75 -58 -38 -29 -75
-57 -82 -63 -7 -5 -17 -10 -23 -10 -6 0 -15 -12 -20 -26 -13 -34 -13 -34 10
-34 10 0 42 23 69 50 28 28 54 50 58 50 4 0 24 14 43 30 19 16 39 30 43 30 12
0 68 -40 88 -62 9 -10 20 -18 25 -18 5 0 29 -18 54 -40 48 -44 61 -48 80 -25
10 11 9 18 -3 30 -9 8 -20 15 -24 15 -5 0 -18 8 -29 18 -10 9 -39 31 -63 47
-25 17 -58 42 -75 58 -32 29 -32 29 -56 20z"/>
<path d="M330 860 c-13 -8 -13 -12 2 -26 15 -15 29 -16 120 -8 81 7 103 12
103 24 0 10 -9 14 -30 13 -47 -3 -56 -3 -120 2 -34 2 -67 0 -75 -5z"/>
<path d="M280 791 c-5 -11 -10 -27 -10 -35 0 -9 -4 -16 -10 -16 -13 0 -13 -23
1 -53 12 -28 47 -47 84 -47 30 0 45 -46 45 -140 0 -72 -10 -90 -49 -90 -40 0
-53 13 -49 51 3 29 7 34 33 37 49 6 58 42 10 42 -19 0 -28 9 -39 35 -8 19 -22
35 -30 35 -12 0 -14 -23 -14 -131 0 -82 -4 -135 -11 -142 -6 -6 -11 -27 -11
-47 0 -20 -4 -40 -9 -46 -5 -5 -12 -35 -16 -66 -6 -47 -5 -58 7 -58 9 0 20 20
28 50 14 50 14 50 57 50 24 0 43 4 43 8 0 15 -24 32 -47 32 -21 0 -23 4 -23
50 0 50 0 50 40 52 22 0 46 1 52 2 14 1 29 -69 17 -81 -4 -4 -9 -26 -12 -48
-11 -79 -17 -108 -26 -119 -5 -6 -11 -23 -13 -36 -2 -14 -7 -30 -11 -37 -17
-27 13 -21 33 8 49 68 68 172 76 426 6 161 6 161 -21 179 -15 10 -43 20 -63
24 -34 5 -37 9 -35 35 1 17 8 40 15 53 10 19 9 25 -2 32 -22 14 -28 12 -40 -9z"/>
<path d="M522 703 c-35 -89 -41 -128 -49 -303 -7 -165 7 -232 73 -352 15 -28
54 -39 54 -15 0 7 -14 45 -31 85 -28 69 -46 146 -54 236 -5 62 21 271 39 307
9 17 16 38 16 44 0 7 7 18 15 25 11 9 12 17 4 31 -18 35 -36 20 -67 -58z"/>
<path d="M602 603 c-15 -29 -36 -190 -27 -209 4 -11 10 -39 12 -64 6 -54 29
-103 46 -97 16 5 13 46 -8 127 -16 63 -16 86 1 206 6 45 -9 67 -24 37z"/>
</g>
</svg>
