<svg version="1.0" xmlns="http://www.w3.org/2000/svg"
 width="71.000000pt" height="123.000000pt" viewBox="0 0 71.000000 123.000000"
 preserveAspectRatio="xMidYMid meet">
<metadata>
Created by potrace 1.15, written by Peter Selinger 2001-2017
</metadata>
<g transform="translate(0.000000,123.000000) scale(0.100000,-0.100000)"
fill="#000000" stroke="none">
<path d="M109 1028 c-6 -54 6 -126 23 -151 26 -36 20 -56 -22 -80 -42 -23 -80
-66 -80 -89 0 -9 -5 -29 -12 -43 -9 -20 -8 -31 2 -50 7 -13 18 -21 23 -18 6 4
8 0 4 -9 -3 -9 2 -23 13 -33 17 -15 21 -15 49 0 18 9 36 13 42 9 21 -13 1 -73
-38 -114 -45 -49 -83 -113 -83 -141 0 -49 51 -107 98 -112 15 -2 33 -6 39 -10
32 -20 63 47 63 134 0 21 9 40 28 57 15 15 28 35 30 45 4 21 -24 23 -45 2 -18
-18 -53 -111 -53 -140 0 -48 -61 -61 -98 -22 -39 41 -27 85 40 150 68 65 91
158 50 200 -20 19 -22 19 -46 4 -48 -32 -86 -16 -86 35 0 46 27 86 72 108 69
33 100 27 147 -26 34 -39 41 -54 41 -90 0 -77 -36 -68 -66 17 -10 27 -23 48
-29 46 -16 -6 -18 -44 -2 -58 8 -7 12 -20 10 -29 -2 -8 6 -30 17 -47 16 -27
26 -33 55 -33 35 0 35 0 35 -87 0 -111 14 -199 35 -220 11 -10 33 -16 61 -15
32 0 44 -4 44 -14 0 -19 38 -94 48 -94 4 0 18 -10 32 -23 50 -44 150 -86 150
-61 0 20 -26 45 -71 69 -76 39 -95 65 -70 90 5 6 11 50 12 100 3 115 10 135
47 135 15 0 33 -5 40 -12 15 -15 16 -54 2 -63 -5 -3 -10 -24 -10 -45 0 -32 -4
-39 -22 -42 -32 -4 -29 -32 4 -36 49 -6 61 29 63 184 2 157 -5 175 -70 179
-42 3 -58 24 -45 60 4 11 8 25 8 30 1 6 15 13 32 16 52 11 70 35 70 95 0 29
-3 60 -6 69 -9 24 -58 45 -102 45 -46 0 -53 10 -43 67 9 47 -2 73 -30 73 -18
0 -20 -5 -16 -52 6 -75 1 -84 -51 -99 -54 -15 -63 -22 -81 -65 -24 -61 10
-144 60 -144 45 0 51 -12 43 -76 -4 -33 -7 -123 -7 -201 2 -143 2 -143 -28
-143 -24 0 -31 6 -44 36 -8 20 -15 56 -15 80 0 42 1 44 30 44 41 0 40 28 0 37
-30 6 -31 7 -28 57 3 47 5 51 36 60 17 5 32 12 32 17 0 17 -20 19 -60 5 -42
-14 -42 -14 -38 22 5 35 -8 82 -21 82 -4 0 -7 10 -8 22 -2 23 -21 41 -85 84
-21 13 -38 32 -38 42 0 9 -9 28 -20 42 -13 17 -20 41 -20 76 0 46 -12 74 -32
74 -4 0 -9 -6 -9 -12z m360 -240 c-3 -66 -13 -77 -57 -62 -29 10 -34 30 -21
78 7 24 18 37 37 44 15 5 31 7 35 5 4 -3 7 -32 6 -65z m82 29 c2 -23 2 -83 -1
-132 -3 -50 -3 -119 0 -155 8 -103 -13 -330 -31 -330 -5 0 -9 82 -9 199 0 131
-4 202 -11 206 -7 5 -8 31 -4 74 16 182 16 181 35 181 14 0 19 -10 21 -43z
m100 16 c3 -74 -9 -103 -41 -103 -15 0 -19 10 -22 61 -1 33 -1 63 1 65 2 2 17
4 33 4 24 0 28 -4 29 -27z m5 -297 c8 -14 14 -35 12 -48 -2 -19 -10 -23 -45
-26 -43 -3 -43 -3 -43 32 0 19 3 41 6 50 9 25 51 19 70 -8z"/>
</g>
</svg>
