<svg version="1.0" xmlns="http://www.w3.org/2000/svg"
 width="62.000000pt" height="124.000000pt" viewBox="0 0 62.000000 124.000000"
 preserveAspectRatio="xMidYMid meet">
<metadata>
Created by potrace 1.15, written by Peter Selinger 2001-2017
</metadata>
<g transform="translate(0.000000,124.000000) scale(0.100000,-0.100000)"
fill="#000000" stroke="none">
<path d="M140 1080 c0 -98 -2 -110 -17 -110 -42 1 -67 44 -58 103 4 29 2 48
-8 61 -14 18 -15 17 -27 -18 -13 -41 -8 -112 12 -157 8 -18 25 -32 50 -40 32
-10 38 -17 38 -40 0 -40 10 -59 31 -59 16 0 19 8 19 50 0 48 1 49 35 56 27 5
39 14 50 38 20 44 26 152 9 174 -22 28 -34 -3 -34 -90 0 -76 -1 -78 -24 -78
-32 0 -39 23 -30 108 7 73 -4 112 -31 112 -12 0 -15 -20 -15 -110z"/>
<path d="M449 1118 c-3 -143 -5 -161 -16 -165 -22 -8 -43 42 -46 111 -1 53 -5
66 -17 64 -20 -4 -25 -110 -8 -163 10 -32 20 -42 46 -50 23 -7 32 -15 32 -31
0 -55 35 -76 46 -26 10 48 12 50 41 54 43 5 70 53 71 131 1 48 -3 67 -13 71
-20 7 -33 -21 -30 -69 1 -26 -5 -50 -18 -68 -33 -48 -42 -29 -42 84 0 100 -1
104 -22 107 -21 3 -23 -1 -24 -50z"/>
<path d="M228 833 c-26 -4 -40 -31 -18 -34 64 -8 86 -38 73 -101 -5 -25 -10
-28 -48 -28 -32 0 -48 6 -69 26 -14 15 -26 34 -26 43 -1 45 -60 71 -60 27 0
-14 4 -27 9 -30 4 -3 11 -18 14 -33 11 -56 61 -93 126 -93 22 0 43 -5 46 -10
4 -6 1 -35 -5 -66 -12 -56 -12 -56 -68 -50 -49 6 -62 12 -89 43 -18 20 -33 44
-33 53 0 18 -35 60 -50 60 -18 0 -10 -56 15 -107 36 -75 77 -103 153 -103 75
0 82 -9 82 -107 0 -78 19 -124 78 -186 42 -43 81 -67 112 -67 11 0 30 -9 42
-20 26 -24 86 -27 94 -5 8 20 -13 45 -37 45 -11 0 -29 5 -42 12 -12 6 -30 15
-39 20 -58 27 -111 73 -136 116 -10 18 -28 150 -24 179 1 9 97 32 136 33 48 0
90 41 110 104 20 64 16 89 -15 84 -15 -2 -27 -18 -41 -56 -26 -69 -62 -94
-133 -90 -38 2 -49 7 -47 18 2 8 6 36 9 62 5 44 8 48 32 48 28 0 105 32 114
47 3 5 8 34 12 64 5 43 3 58 -9 68 -19 16 -36 6 -36 -21 0 -37 -23 -88 -42
-93 -10 -3 -26 -7 -37 -10 -24 -7 -34 15 -36 78 -1 26 -8 54 -16 62 -17 15
-63 24 -101 18z"/>
</g>
</svg>
