<svg version="1.0" xmlns="http://www.w3.org/2000/svg"
 width="60.000000pt" height="73.000000pt" viewBox="0 0 60.000000 73.000000"
 preserveAspectRatio="xMidYMid meet">
<metadata>
Created by potrace 1.15, written by Peter Selinger 2001-2017
</metadata>
<g transform="translate(0.000000,73.000000) scale(0.100000,-0.100000)"
fill="#000000" stroke="none">
<path d="M102 600 c-69 -42 -70 -155 -1 -179 37 -13 37 -31 2 -31 -38 0 -57
-14 -49 -35 5 -13 14 -16 40 -11 31 6 34 4 40 -25 14 -73 1 -169 -24 -169 -5
0 -10 20 -10 44 0 27 -6 48 -15 56 -27 22 -38 -2 -33 -71 6 -82 18 -91 123
-87 78 3 80 4 80 28 0 22 -4 25 -35 25 -28 0 -36 4 -38 21 -3 18 5 25 40 37
42 14 43 15 41 57 -3 62 -9 75 -28 60 -8 -7 -15 -22 -15 -34 0 -21 -17 -46
-31 -46 -4 0 -10 18 -14 40 -8 49 6 70 47 70 23 0 29 4 26 18 -2 12 -15 18
-46 20 -52 4 -54 18 -6 31 55 15 74 37 74 86 0 47 -11 65 -60 94 -44 26 -66
26 -108 1z m111 -50 c5 -4 7 -23 5 -41 -4 -40 -40 -59 -86 -43 -35 12 -45 70
-15 92 18 13 79 9 96 -8z"/>
<path d="M115 520 c-3 -6 0 -13 9 -16 22 -8 59 -1 64 14 5 15 -64 17 -73 2z"/>
<path d="M306 588 c5 -18 7 -92 5 -164 -3 -137 3 -165 41 -192 18 -13 17 -15
-12 -48 -36 -41 -39 -83 -9 -125 20 -28 59 -40 59 -18 0 6 -9 22 -20 36 -23
29 -26 63 -6 63 7 0 25 -9 39 -20 36 -29 46 -6 13 29 -32 34 -33 51 -2 51 29
0 81 -41 102 -81 21 -42 48 -39 39 3 -12 54 -22 65 -97 103 -86 44 -98 53 -98
72 0 11 10 13 48 8 53 -8 87 -26 118 -63 12 -15 26 -22 32 -18 43 26 -59 108
-150 121 -71 11 -60 28 15 23 44 -2 72 -10 94 -26 39 -28 55 -28 51 0 -5 38
-72 68 -152 68 -68 0 -68 0 -61 81 8 89 -4 129 -37 129 -17 0 -19 -4 -12 -32z"/>
<path d="M396 607 c-23 -17 -13 -37 19 -37 48 0 75 -18 75 -49 0 -31 -14 -41
-60 -41 -15 0 -32 -6 -39 -13 -17 -22 8 -37 60 -37 40 0 51 4 73 31 26 30 31
55 20 95 -11 42 -112 77 -148 51z"/>
<path d="M394 525 c-4 -9 -2 -21 4 -27 15 -15 44 -1 40 19 -4 23 -36 29 -44 8z"/>
</g>
</svg>
