<svg version="1.0" xmlns="http://www.w3.org/2000/svg"
 width="68.000000pt" height="91.000000pt" viewBox="0 0 68.000000 91.000000"
 preserveAspectRatio="xMidYMid meet">
<metadata>
Created by potrace 1.15, written by Peter Selinger 2001-2017
</metadata>
<g transform="translate(0.000000,91.000000) scale(0.100000,-0.100000)"
fill="#000000" stroke="none">
<path d="M144 760 c3 -18 6 -41 6 -52 0 -11 14 -27 34 -39 50 -29 52 -45 6
-74 -47 -30 -65 -82 -56 -161 3 -28 1 -87 -5 -130 -5 -44 -12 -95 -15 -114 -2
-19 -14 -61 -26 -93 -21 -60 -16 -86 15 -74 28 11 80 223 72 297 -6 62 11 180
28 197 24 24 149 -20 132 -46 -3 -6 -17 -8 -29 -5 -18 4 -29 -2 -50 -26 -32
-38 -34 -85 -6 -137 28 -52 26 -119 -5 -189 -29 -65 -31 -84 -10 -84 22 0 42
37 61 110 19 75 14 126 -17 185 -27 52 -20 67 49 96 66 29 144 35 165 14 23
-22 21 -32 -8 -51 -22 -15 -29 -15 -53 -3 -15 7 -30 15 -34 17 -5 2 -8 -5 -8
-17 0 -26 36 -51 74 -51 29 0 96 35 96 50 0 5 3 15 6 23 6 17 -51 87 -72 87
-17 0 -18 16 -2 26 6 4 25 10 42 13 19 4 32 14 34 25 4 17 -1 18 -41 14 -34
-4 -57 -15 -88 -42 -24 -20 -46 -36 -49 -36 -4 0 -20 11 -36 25 -47 41 -88 57
-118 45 -15 -5 -26 -6 -26 -1 0 17 65 29 188 35 83 5 134 12 157 23 49 23 39
39 -23 35 -67 -5 -70 15 -7 46 41 20 45 25 45 57 0 40 -20 47 -35 13 -13 -31
-49 -30 -53 0 -5 31 -26 23 -30 -11 -4 -34 -25 -35 -40 -1 -15 31 -32 23 -32
-15 0 -19 9 -34 30 -49 47 -35 40 -52 -22 -52 -29 0 -62 -3 -73 -5 -11 -3 -26
-1 -33 3 -10 7 -2 19 28 50 29 28 40 48 38 63 -4 32 -26 35 -38 5 -14 -38 -50
-35 -50 4 0 20 -5 30 -15 30 -10 0 -15 -11 -15 -35 0 -52 -42 -44 -52 10 -2
11 -12 21 -22 23 -16 4 -18 0 -12 -28z"/>
<path d="M372 282 c2 -9 16 -23 32 -30 25 -13 27 -17 21 -50 -3 -21 -16 -61
-27 -89 -24 -60 -19 -77 15 -45 22 21 47 107 47 160 0 17 6 22 28 22 34 0 47
-22 57 -96 9 -60 30 -104 50 -104 18 0 21 50 4 67 -5 5 -12 29 -14 52 -9 90
-37 112 -158 124 -51 5 -58 4 -55 -11z"/>
</g>
</svg>
