<svg version="1.0" xmlns="http://www.w3.org/2000/svg"
 width="69.000000pt" height="81.000000pt" viewBox="0 0 69.000000 81.000000"
 preserveAspectRatio="xMidYMid meet">
<metadata>
Created by potrace 1.15, written by Peter Selinger 2001-2017
</metadata>
<g transform="translate(0.000000,81.000000) scale(0.100000,-0.100000)"
fill="#000000" stroke="none">
<path d="M390 555 c0 -45 0 -45 -47 -46 -58 -1 -94 -10 -95 -24 -1 -19 66 -45
105 -41 37 4 37 4 37 -147 0 -84 3 -162 6 -175 6 -22 5 -22 -79 -22 -81 0
-137 -13 -137 -31 0 -19 46 -29 162 -35 137 -8 218 0 218 20 0 13 -58 42 -95
48 -15 2 -20 11 -19 31 0 15 1 90 2 167 2 140 2 140 45 140 89 0 85 44 -5 56
-49 7 -50 7 -45 38 6 39 -8 66 -33 66 -17 0 -20 -7 -20 -45z"/>
<path d="M288 406 c-10 -23 -15 -24 -59 -19 -30 4 -54 1 -62 -6 -11 -8 -19 -5
-37 14 -24 25 -50 33 -50 15 0 -5 16 -35 36 -67 20 -31 50 -85 66 -120 16 -36
34 -63 43 -63 25 0 105 188 105 248 0 30 -27 29 -42 -2z m-31 -92 c-7 -39 -24
-67 -38 -59 -4 3 -22 26 -38 50 -30 45 -30 45 26 45 56 0 56 0 50 -36z"/>
</g>
</svg>
