<svg version="1.0" xmlns="http://www.w3.org/2000/svg"
 width="71.000000pt" height="83.000000pt" viewBox="0 0 71.000000 83.000000"
 preserveAspectRatio="xMidYMid meet">
<metadata>
Created by potrace 1.15, written by Peter Selinger 2001-2017
</metadata>
<g transform="translate(0.000000,83.000000) scale(0.100000,-0.100000)"
fill="#000000" stroke="none">
<path d="M513 623 c-13 -52 -9 -385 6 -428 18 -55 54 -129 66 -137 25 -18 25
15 1 67 -22 48 -46 147 -46 193 0 6 9 12 20 12 54 0 100 49 100 106 0 35 -42
74 -80 74 -32 0 -32 0 -30 58 3 77 2 82 -15 82 -8 0 -18 -12 -22 -27z m88
-153 c29 -16 25 -65 -6 -86 -35 -23 -55 -12 -55 30 0 64 17 79 61 56z"/>
<path d="M425 628 c-3 -7 -4 -35 -3 -63 3 -47 2 -49 -27 -58 -47 -15 -59 -22
-74 -49 -26 -45 4 -104 60 -115 22 -4 30 -12 35 -38 9 -49 -32 -170 -74 -218
-21 -24 -1 -47 23 -27 70 58 125 308 104 472 -11 83 -32 129 -44 96z m10 -182
c4 -20 2 -43 -5 -56 -10 -18 -17 -21 -43 -16 -63 13 -62 75 3 99 31 11 39 6
45 -27z"/>
<path d="M170 561 c0 -66 -2 -71 -21 -71 -12 0 -36 16 -54 36 -29 31 -55 39
-55 16 0 -18 59 -72 93 -86 29 -12 37 -21 37 -40 0 -16 -7 -27 -20 -31 -10 -3
-33 -24 -50 -45 -25 -32 -33 -54 -42 -123 -12 -88 -8 -117 16 -117 17 0 26 30
26 95 0 97 35 170 67 143 13 -11 15 -32 10 -128 -4 -63 -3 -130 1 -149 7 -30
9 -32 21 -17 10 11 15 59 19 156 4 108 8 140 18 140 8 0 16 -12 20 -27 3 -16
10 -41 15 -57 5 -16 9 -48 9 -72 0 -45 16 -66 32 -43 12 18 4 99 -17 167 -14
45 -22 56 -51 68 -47 20 -44 53 7 77 27 14 73 102 65 124 -10 24 -30 9 -37
-26 -8 -36 -44 -80 -56 -67 -4 4 -10 38 -13 74 -4 53 -9 67 -22 70 -16 3 -18
-5 -18 -67z"/>
</g>
</svg>
