<svg version="1.0" xmlns="http://www.w3.org/2000/svg"
 width="83.000000pt" height="121.000000pt" viewBox="0 0 83.000000 121.000000"
 preserveAspectRatio="xMidYMid meet">
<metadata>
Created by potrace 1.15, written by Peter Selinger 2001-2017
</metadata>
<g transform="translate(0.000000,121.000000) scale(0.100000,-0.100000)"
fill="#000000" stroke="none">
<path d="M321 1037 c-6 -16 -11 -45 -11 -66 0 -45 -14 -61 -56 -61 -27 0 -32
4 -38 31 -3 17 -6 44 -6 60 0 16 -4 29 -10 29 -5 0 -10 -18 -10 -39 0 -61 -15
-91 -50 -97 -41 -9 -38 -24 4 -24 37 0 46 -12 46 -62 0 -20 -9 -39 -29 -57
-41 -38 -45 -85 -12 -138 14 -24 29 -43 34 -43 20 0 3 -18 -23 -23 -18 -4 -30
-13 -30 -22 0 -13 12 -15 72 -13 44 2 73 -1 73 -7 2 -31 40 -125 49 -122 15 5
8 66 -10 91 -23 34 -16 43 36 48 28 3 53 8 57 11 10 10 -18 37 -38 37 -29 0
-23 17 10 28 25 9 31 17 36 55 8 49 -1 104 -19 122 -6 7 -24 15 -39 19 -26 6
-28 10 -22 39 8 35 29 57 57 57 30 0 21 30 -12 37 -28 5 -30 9 -31 52 0 25 -4
55 -9 66 -7 19 -9 18 -19 -8z m-31 -190 c0 -26 -6 -37 -25 -47 -29 -15 -30
-15 -39 22 -7 30 14 58 45 58 15 0 19 -7 19 -33z m68 -89 c7 -7 12 -25 12 -41
0 -27 -1 -28 -47 -25 -46 3 -48 4 -51 36 -3 30 -1 33 16 27 11 -3 23 -1 27 5
8 13 28 13 43 -2z m-128 -42 c0 -19 -6 -25 -32 -29 -45 -6 -48 0 -15 29 35 30
47 30 47 0z m4 -82 c13 -33 -16 -39 -52 -10 -11 8 -10 11 5 17 29 12 40 10 47
-7z m114 4 c-3 -7 -16 -20 -31 -28 -30 -17 -52 -4 -41 23 8 21 78 25 72 5z"/>
<path d="M670 945 c0 -95 0 -95 -29 -95 -37 0 -91 -19 -91 -32 0 -7 22 -9 60
-5 60 5 60 5 60 -27 0 -28 -4 -33 -40 -44 -22 -6 -49 -12 -60 -12 -11 0 -20
-7 -20 -15 0 -13 9 -15 48 -9 56 7 72 -5 69 -51 -2 -27 -7 -30 -56 -40 -30 -6
-56 -16 -59 -23 -4 -13 -5 -13 55 -16 23 -1 45 -5 48 -8 3 -3 1 -44 -6 -91
-12 -84 -8 -124 10 -113 5 3 11 23 15 43 3 21 8 56 11 78 12 78 15 85 38 85
12 0 31 7 41 15 16 12 17 17 6 30 -7 8 -25 15 -40 15 -25 0 -27 3 -24 33 1 17
3 35 3 40 1 4 14 7 29 7 16 0 32 3 35 7 12 11 -14 33 -39 33 -21 0 -24 5 -24
40 0 37 2 40 29 40 16 0 34 7 41 15 10 12 6 15 -29 21 -33 5 -41 11 -42 28 -2
60 -9 127 -14 136 -17 28 -25 1 -25 -85z"/>
<path d="M410 1005 c0 -2 10 -26 21 -52 12 -27 25 -57 29 -68 5 -11 14 -36 21
-55 16 -42 15 -335 -1 -390 -5 -19 -10 -48 -9 -65 0 -30 0 -30 10 -5 6 14 20
43 32 65 20 37 22 56 22 224 2 185 2 185 29 192 36 10 61 33 77 70 11 27 10
33 -10 52 -19 19 -31 22 -101 20 -44 -1 -82 2 -85 7 -6 10 -35 14 -35 5z m180
-55 c0 -24 -76 -78 -90 -64 -5 5 -10 22 -12 39 -3 26 1 30 27 36 58 13 75 10
75 -11z"/>
<path d="M217 503 c-4 -3 -7 -14 -7 -23 0 -9 -7 -31 -16 -49 -20 -41 -14 -57
12 -34 31 27 43 55 37 86 -5 27 -13 33 -26 20z"/>
<path d="M370 474 c0 -32 21 -94 31 -94 26 0 13 86 -16 110 -13 11 -15 8 -15
-16z"/>
<path d="M116 454 c-8 -20 -8 -89 0 -97 9 -9 29 14 37 42 11 44 -22 94 -37 55z"/>
<path d="M295 345 c-5 -2 -27 -6 -47 -10 -62 -10 -43 -25 32 -25 56 0 70 3 70
15 0 8 -4 15 -9 15 -5 0 -15 2 -23 4 -7 3 -17 3 -23 1z"/>
<path d="M588 337 c-51 -11 -57 -17 -33 -37 18 -15 141 -8 158 9 29 29 -47 46
-125 28z"/>
<path d="M285 250 c-33 -4 -69 -10 -80 -13 -11 -3 -32 -6 -47 -6 -16 -1 -28
-6 -28 -12 0 -11 129 -7 227 7 32 5 49 2 70 -13 27 -19 117 -50 158 -54 26 -3
103 10 138 23 62 24 13 41 -76 27 -73 -12 -137 -5 -188 22 -47 23 -97 29 -174
19z"/>
<path d="M183 113 c-18 -2 -33 -8 -33 -14 0 -5 15 -10 33 -10 159 -7 199 -1
141 21 -25 10 -77 11 -141 3z"/>
<path d="M532 77 c-36 -20 -15 -27 85 -27 86 0 93 1 93 20 0 18 -7 20 -77 20
-44 -1 -88 -6 -101 -13z"/>
</g>
</svg>
