<svg version="1.0" xmlns="http://www.w3.org/2000/svg"
 width="66.000000pt" height="87.000000pt" viewBox="0 0 66.000000 87.000000"
 preserveAspectRatio="xMidYMid meet">
<metadata>
Created by potrace 1.15, written by Peter Selinger 2001-2017
</metadata>
<g transform="translate(0.000000,87.000000) scale(0.100000,-0.100000)"
fill="#000000" stroke="none">
<path d="M163 693 c-43 -4 -70 -24 -58 -44 5 -7 24 -9 54 -5 52 7 75 -3 69
-30 -3 -16 -15 -20 -66 -24 -60 -5 -89 -21 -75 -42 2 -5 37 -8 76 -6 60 3 72
0 75 -14 2 -13 -8 -18 -52 -23 -113 -14 -112 -59 1 -48 35 3 63 2 63 -3 -1
-26 -23 -37 -89 -44 -80 -9 -86 -12 -77 -35 5 -14 17 -15 76 -9 70 7 70 7 70
-24 0 -33 0 -33 -110 -44 -14 -2 -25 -9 -25 -18 0 -12 16 -16 68 -18 69 -3 69
-3 65 -119 -2 -83 0 -117 9 -120 21 -8 33 34 40 141 6 106 6 106 50 106 45 0
45 0 42 -117 -4 -121 3 -141 37 -112 13 11 15 30 10 119 -7 105 -7 105 44 129
30 13 56 33 62 47 15 33 34 30 47 -6 12 -36 37 -48 57 -28 21 20 3 56 -42 86
-32 21 -34 25 -28 60 8 49 -11 65 -85 72 -41 4 -57 9 -59 22 -3 13 10 17 73
23 41 4 78 12 81 17 14 22 -18 33 -86 29 -70 -3 -70 -3 -61 21 7 19 17 24 54
26 50 3 82 27 52 38 -9 4 -44 4 -78 1 -65 -6 -87 -22 -87 -64 0 -16 -7 -24
-24 -29 -30 -7 -46 1 -46 25 0 29 -39 71 -63 69 -12 -1 -41 -3 -64 -5z m186
-142 c21 -13 4 -31 -30 -31 -22 0 -29 5 -29 20 0 21 33 28 59 11z m151 -86
c22 -27 4 -45 -45 -45 -40 0 -45 2 -45 23 0 13 3 27 7 30 12 13 71 7 83 -8z
m-142 -22 c-4 -33 -33 -42 -62 -20 -30 22 -14 47 29 47 34 0 36 -2 33 -27z m2
-93 c0 -23 -5 -31 -25 -36 -35 -9 -55 2 -55 29 0 31 7 37 47 37 30 0 33 -3 33
-30z m115 19 c11 -16 -24 -48 -46 -42 -18 5 -26 33 -12 46 10 11 51 8 58 -4z"/>
<path d="M500 218 c0 -24 -3 -67 -6 -95 -6 -45 -4 -54 11 -59 37 -14 76 90 46
121 -5 6 -11 23 -13 40 -2 19 -9 31 -20 33 -15 3 -18 -4 -18 -40z"/>
<path d="M100 136 c0 -69 3 -86 15 -86 28 0 46 45 43 107 -3 55 -4 58 -30 61
-28 3 -28 3 -28 -82z"/>
</g>
</svg>
