<svg version="1.0" xmlns="http://www.w3.org/2000/svg"
 width="71.000000pt" height="86.000000pt" viewBox="0 0 71.000000 86.000000"
 preserveAspectRatio="xMidYMid meet">
<metadata>
Created by potrace 1.15, written by Peter Selinger 2001-2017
</metadata>
<g transform="translate(0.000000,86.000000) scale(0.100000,-0.100000)"
fill="#000000" stroke="none">
<path d="M220 641 c0 -53 -2 -61 -19 -61 -22 0 -45 25 -36 40 11 18 -5 50 -26
50 -15 0 -19 -7 -19 -39 0 -32 5 -43 29 -60 16 -12 41 -21 55 -21 22 0 26 -4
26 -30 0 -29 -1 -30 -49 -30 -59 0 -81 -7 -81 -26 0 -11 16 -14 65 -14 36 0
65 -4 65 -9 0 -5 3 -16 6 -25 5 -13 -7 -16 -73 -18 -61 -2 -78 -6 -78 -18 0
-12 16 -16 70 -18 62 -3 84 -11 85 -33 0 -4 -31 -10 -70 -14 -50 -5 -70 -11
-70 -21 0 -11 17 -14 70 -14 71 0 71 0 64 -52 -9 -67 -35 -120 -74 -148 -33
-24 -40 -50 -12 -50 22 1 53 26 80 67 16 22 24 54 29 108 6 77 6 77 57 71 28
-3 77 -6 110 -6 56 0 58 -1 52 -22 -11 -44 57 -209 93 -223 15 -6 41 12 41 28
0 6 -18 32 -41 59 -41 49 -59 91 -59 140 0 23 6 29 33 36 22 5 36 17 46 40 10
22 21 32 37 32 23 0 48 22 37 33 -3 4 -17 7 -30 7 -17 0 -23 6 -23 21 0 37
-18 56 -60 63 -39 6 -41 8 -38 38 3 28 8 34 41 41 30 7 42 17 58 48 15 30 17
44 9 59 -14 27 -30 25 -30 -3 0 -26 -33 -67 -55 -67 -8 0 -15 13 -17 33 -4 46
-33 44 -33 -3 0 -32 -3 -35 -32 -38 -33 -3 -36 0 -45 62 -2 11 -9 21 -15 24
-15 4 -18 -84 -4 -106 4 -8 27 -16 50 -19 37 -5 41 -8 41 -34 0 -29 0 -29
-110 -29 -110 0 -110 0 -110 29 0 25 5 31 30 36 37 8 50 31 50 84 0 30 -4 41
-15 41 -11 0 -15 -11 -15 -39 0 -39 -11 -51 -46 -51 -11 0 -14 12 -12 52 3 43
0 53 -14 56 -16 3 -18 -5 -18 -57z m260 -216 c0 -25 0 -25 -110 -25 -110 0
-110 0 -110 25 0 25 0 25 110 25 110 0 110 0 110 -25z m71 15 c30 -17 24 -40
-11 -40 -25 0 -30 4 -30 25 0 27 10 31 41 15z m9 -78 c0 -12 -23 -32 -37 -32
-7 0 -13 9 -13 20 0 15 7 20 25 20 14 0 25 -4 25 -8z m-80 -21 c0 -16 -10 -20
-65 -26 -57 -6 -155 0 -155 10 0 2 3 10 6 19 5 13 25 16 110 16 96 0 104 -1
104 -19z"/>
<path d="M547 224 c-18 -18 -3 -33 40 -42 26 -6 51 -8 55 -6 14 9 8 33 -9 38
-44 12 -80 16 -86 10z"/>
<path d="M108 209 c-34 -13 -37 -39 -4 -39 35 0 87 21 83 34 -5 15 -45 17 -79
5z"/>
</g>
</svg>
