<svg version="1.0" xmlns="http://www.w3.org/2000/svg"
 width="69.000000pt" height="91.000000pt" viewBox="0 0 69.000000 91.000000"
 preserveAspectRatio="xMidYMid meet">
<metadata>
Created by potrace 1.15, written by Peter Selinger 2001-2017
</metadata>
<g transform="translate(0.000000,91.000000) scale(0.100000,-0.100000)"
fill="#000000" stroke="none">
<path d="M410 731 c0 -10 7 -24 15 -31 27 -22 16 -53 -31 -90 -55 -43 -36 -51
36 -15 58 30 74 26 58 -13 -6 -15 -16 -43 -23 -62 -12 -31 -18 -36 -57 -42
-23 -3 -69 -7 -100 -7 -68 -1 -70 3 -36 81 21 49 21 51 3 85 -23 42 -70 83
-96 83 -23 0 -25 -13 -4 -30 8 -7 15 -18 15 -26 0 -19 -59 -84 -76 -84 -16 0
-19 -16 -4 -25 13 -8 48 11 88 49 47 44 58 21 25 -53 -14 -31 -29 -66 -33 -77
-6 -14 -21 -24 -44 -28 -55 -10 -40 -36 20 -36 13 0 24 -6 24 -12 0 -26 -18
-40 -59 -45 -27 -4 -41 -11 -41 -21 0 -12 10 -14 50 -10 43 4 50 3 50 -13 0
-12 -15 -23 -47 -35 -58 -21 -77 -34 -65 -46 4 -4 29 -1 56 8 26 9 49 14 52
11 8 -8 -55 -127 -71 -134 -18 -6 -20 -33 -3 -33 7 0 29 16 49 36 38 37 38 37
43 3 3 -19 7 -45 8 -59 2 -14 10 -26 21 -28 15 -3 17 5 17 62 0 36 3 66 6 66
3 0 15 -5 26 -11 13 -7 24 -7 30 -1 6 6 -5 24 -34 50 -33 32 -40 43 -31 53 14
14 193 21 193 7 0 -15 -31 -71 -61 -109 -16 -20 -29 -40 -29 -43 0 -17 29 -1
65 35 25 25 41 36 43 27 2 -7 8 -40 15 -73 7 -33 16 -58 22 -55 6 3 10 38 10
78 0 39 3 72 8 72 4 0 25 -11 47 -25 45 -29 60 -31 60 -10 0 15 -94 95 -111
95 -5 0 -9 5 -9 10 0 6 6 10 14 10 8 0 28 12 46 26 29 25 32 25 49 10 10 -9
23 -16 29 -16 21 0 13 28 -15 50 -23 18 -28 30 -28 63 0 38 -4 44 -34 59 -55
27 -56 32 -27 91 14 30 26 61 26 70 0 9 -16 29 -36 44 -20 15 -51 40 -69 56
-39 32 -45 33 -45 8z m35 -311 c0 -16 -31 -24 -135 -34 -66 -7 -70 -6 -70 13
0 25 58 40 145 38 45 -2 60 -6 60 -17z m95 0 c8 -14 8 -20 0 -20 -20 0 -51 21
-45 31 10 16 34 10 45 -11z m-90 -84 c0 -26 -18 -37 -47 -30 -10 3 -51 1 -90
-4 -68 -8 -73 -7 -73 10 0 10 7 21 15 24 21 8 112 21 158 23 33 1 37 -2 37
-23z m85 14 c10 -16 -16 -43 -28 -31 -11 11 -2 41 12 41 5 0 13 -5 16 -10z"/>
</g>
</svg>
