<svg version="1.0" xmlns="http://www.w3.org/2000/svg"
 width="78.000000pt" height="119.000000pt" viewBox="0 0 78.000000 119.000000"
 preserveAspectRatio="xMidYMid meet">
<metadata>
Created by potrace 1.15, written by Peter Selinger 2001-2017
</metadata>
<g transform="translate(0.000000,119.000000) scale(0.100000,-0.100000)"
fill="#000000" stroke="none">
<path d="M462 1148 c-5 -7 -11 -22 -13 -33 -2 -11 -18 -27 -34 -35 -17 -8 -56
-30 -89 -48 -52 -30 -57 -35 -44 -48 13 -13 21 -12 64 15 27 16 64 32 82 36
29 6 32 4 32 -17 0 -13 -4 -27 -8 -33 -9 -13 -93 -55 -109 -55 -7 0 -13 -4
-13 -10 0 -5 -9 -10 -20 -10 -15 0 -20 -7 -20 -25 0 -25 0 -25 36 -10 53 22
64 19 64 -15 0 -28 -2 -29 -39 -26 -36 3 -41 0 -60 -34 -12 -21 -20 -48 -18
-61 5 -29 40 -57 83 -65 36 -7 42 -19 21 -44 -14 -18 -52 -40 -67 -40 -6 0
-25 -13 -43 -30 -47 -42 -65 -127 -47 -219 17 -88 30 -112 82 -146 24 -16 52
-38 63 -49 20 -22 33 -66 18 -66 -23 -1 -146 -21 -154 -25 -4 -3 -6 -11 -3
-18 3 -9 70 -12 272 -11 258 0 267 1 267 20 0 12 -7 19 -20 19 -11 0 -24 3
-30 6 -5 4 -41 7 -79 7 -80 0 -96 10 -72 46 9 15 21 26 27 26 6 0 24 9 40 21
48 34 59 76 59 218 0 141 -8 160 -80 199 -59 31 -51 81 12 82 29 0 68 40 68
71 0 50 -42 89 -94 89 -27 0 -39 28 -24 54 9 16 12 16 33 2 30 -20 75 -21 75
-3 0 20 -30 43 -75 57 -79 26 -96 35 -101 57 -13 51 22 51 114 1 56 -31 72
-30 72 5 0 24 -13 31 -122 68 -49 16 -68 28 -68 40 0 42 -19 60 -38 37z m45
-223 c19 -13 20 -19 11 -55 -10 -39 -12 -41 -47 -38 -35 3 -36 4 -39 50 -2 38
0 47 15 51 32 8 38 7 60 -8z m-105 -163 c6 -42 0 -52 -32 -52 -35 0 -54 22
-46 55 5 20 12 25 40 25 29 0 34 -4 38 -28z m106 -11 c4 -43 -7 -55 -40 -42
-21 8 -26 16 -26 46 0 35 1 36 32 33 27 -3 31 -7 34 -37z m116 17 c15 -25 -4
-53 -35 -53 -21 0 -24 5 -27 38 -3 37 -2 38 24 35 15 -2 32 -11 38 -20z m-114
-113 c6 -8 9 -19 5 -25 -4 -6 4 -27 17 -45 17 -25 30 -35 50 -35 31 0 52 -26
63 -79 6 -29 5 -33 -10 -28 -9 4 -43 7 -76 7 -52 0 -59 2 -59 20 0 18 7 20 55
20 30 0 55 3 55 6 0 18 -36 38 -66 36 -35 -3 -37 -1 -48 51 -4 18 -13 27 -26
27 -17 0 -20 -7 -20 -40 0 -40 0 -40 -44 -40 -41 0 -74 -19 -59 -33 3 -4 26
-7 50 -7 24 0 43 -4 43 -8 0 -22 -30 -40 -74 -46 -27 -3 -52 -8 -54 -11 -14
-14 21 -17 173 -16 165 1 165 1 164 -57 0 -86 -17 -123 -67 -150 -44 -25 -62
-48 -72 -97 -4 -21 -12 -31 -28 -33 -33 -5 -52 15 -52 54 0 26 -7 39 -33 58
-19 15 -40 26 -47 26 -13 0 -41 28 -66 66 -22 33 -25 181 -3 224 9 19 17 39
17 44 1 6 25 17 54 26 43 13 56 22 71 50 9 19 24 34 31 32 8 -1 17 2 21 8 9
14 20 13 35 -5z"/>
<path d="M531 370 c-30 -26 -106 -28 -119 -3 -18 31 -42 8 -42 -41 0 -91 31
-114 136 -101 35 4 57 12 63 23 15 30 22 90 11 97 -5 3 -10 15 -10 26 0 24 -9
24 -39 -1z m-1 -68 c0 -19 -27 -32 -67 -32 -36 0 -43 3 -43 20 0 18 7 20 55
20 30 0 55 -4 55 -8z"/>
<path d="M210 982 c0 -44 -10 -52 -65 -52 -32 0 -34 2 -37 38 -2 29 -7 37 -23
37 -17 0 -20 -7 -22 -50 -1 -27 -4 -81 -8 -120 -5 -69 -5 -70 26 -94 19 -15
49 -26 78 -29 44 -4 50 -2 70 26 20 28 21 41 19 154 -3 108 -5 123 -20 126
-15 3 -18 -4 -18 -36z m-21 -92 c19 0 21 -6 21 -58 0 -64 -11 -82 -50 -82 -40
0 -48 11 -51 78 -4 68 9 89 42 71 10 -5 27 -9 38 -9z"/>
</g>
</svg>
