<svg version="1.0" xmlns="http://www.w3.org/2000/svg"
 width="63.000000pt" height="90.000000pt" viewBox="0 0 63.000000 90.000000"
 preserveAspectRatio="xMidYMid meet">
<metadata>
Created by potrace 1.15, written by Peter Selinger 2001-2017
</metadata>
<g transform="translate(0.000000,90.000000) scale(0.100000,-0.100000)"
fill="#000000" stroke="none">
<path d="M300 723 c0 -14 -15 -24 -57 -37 -92 -30 -173 -68 -173 -83 0 -17 28
-16 60 2 33 19 40 18 40 -4 0 -11 -21 -32 -55 -55 -31 -20 -53 -41 -50 -46 10
-16 24 -12 70 20 49 34 67 37 85 15 14 -16 50 -21 50 -6 0 5 -16 23 -36 39
-43 36 -40 64 8 81 56 20 58 18 58 -63 0 -73 0 -73 -54 -84 -74 -15 -202 -80
-188 -94 8 -8 33 -1 89 25 43 20 93 39 111 43 29 6 32 4 32 -19 0 -21 -7 -28
-37 -38 -21 -6 -40 -15 -43 -20 -3 -4 -27 -16 -54 -26 -27 -10 -51 -24 -54
-32 -7 -21 71 -7 133 23 63 32 103 32 190 0 98 -36 115 -39 115 -21 0 14 -48
37 -165 80 -31 12 -40 20 -40 38 0 29 2 29 129 -22 54 -21 100 -39 102 -39 2
0 4 8 4 18 0 19 -23 30 -152 77 -78 28 -78 28 -78 91 0 63 1 64 27 64 15 0 41
-5 59 -12 33 -12 33 -12 2 -35 -18 -12 -40 -25 -50 -29 -10 -3 -18 -12 -18
-20 0 -17 2 -17 50 -3 34 10 42 9 68 -10 17 -11 37 -21 46 -21 28 0 17 27 -19
49 -19 11 -35 27 -35 36 0 19 14 19 45 -1 26 -17 45 -12 45 12 0 19 -47 37
-167 64 -41 9 -52 16 -55 33 -4 28 -38 36 -38 10z"/>
<path d="M235 313 c-84 -19 -96 -25 -120 -61 -47 -69 -20 -205 45 -223 14 -4
81 -7 149 -8 115 -1 127 1 167 24 48 28 64 62 64 140 0 85 -14 111 -65 124
-43 11 -200 13 -240 4z m228 -40 c37 -10 50 -113 23 -177 -10 -25 -22 -35 -46
-40 -42 -8 -208 -8 -249 0 -40 8 -61 46 -61 108 0 62 31 97 101 112 50 11 190
9 232 -3z"/>
<path d="M242 233 c-33 -7 -59 -64 -44 -98 15 -33 49 -45 131 -45 80 0 96 10
111 69 11 42 10 46 -12 63 -17 13 -40 17 -93 16 -38 0 -80 -3 -93 -5z m157
-47 c9 -11 10 -20 1 -35 -9 -18 -20 -21 -80 -21 -55 0 -71 3 -79 17 -7 13 -5
23 6 35 21 23 134 26 152 4z"/>
</g>
</svg>
