<svg version="1.0" xmlns="http://www.w3.org/2000/svg"
 width="71.000000pt" height="122.000000pt" viewBox="0 0 71.000000 122.000000"
 preserveAspectRatio="xMidYMid meet">
<metadata>
Created by potrace 1.15, written by Peter Selinger 2001-2017
</metadata>
<g transform="translate(0.000000,122.000000) scale(0.100000,-0.100000)"
fill="#000000" stroke="none">
<path d="M338 1103 c-3 -24 -9 -28 -68 -41 -36 -8 -67 -18 -70 -22 -3 -3 -20
-12 -38 -18 -18 -6 -45 -20 -60 -30 -15 -10 -35 -22 -44 -25 -24 -9 -23 -34 2
-42 13 -4 43 8 92 37 66 39 96 53 166 73 22 6 22 6 22 -105 0 -96 -2 -111 -17
-116 -10 -4 -40 -17 -68 -29 -27 -13 -68 -31 -90 -40 -74 -30 -125 -64 -119
-80 11 -28 23 -23 194 64 76 39 79 41 89 41 10 0 22 -77 14 -96 -3 -8 -22 -21
-42 -30 -20 -9 -53 -24 -74 -35 -22 -10 -45 -19 -53 -19 -8 0 -14 -3 -14 -8 0
-4 -18 -13 -41 -20 -56 -17 -89 -41 -82 -58 8 -22 28 -17 137 35 126 61 192
84 220 75 11 -4 57 -24 100 -45 44 -22 83 -39 89 -39 5 0 29 -14 54 -30 48
-32 63 -32 62 3 0 22 -72 62 -237 133 -65 28 -75 42 -75 106 0 39 7 42 45 23
18 -10 42 -22 52 -28 48 -24 113 -62 139 -81 26 -19 28 -19 45 -2 16 16 16 18
-2 31 -11 8 -70 40 -133 72 -62 31 -113 59 -113 62 0 3 19 19 41 35 36 25 44
27 66 17 14 -7 35 -23 46 -37 12 -16 27 -24 41 -22 31 4 25 19 -25 56 -24 18
-52 40 -62 48 -9 8 -25 14 -35 14 -24 -1 -95 -69 -88 -85 3 -9 0 -12 -8 -9
-17 7 -23 204 -5 204 13 0 103 -37 197 -82 63 -30 106 -32 83 -4 -14 17 -175
96 -195 96 -9 0 -16 4 -16 9 0 5 -13 11 -30 14 -21 5 -31 14 -36 32 -9 37 -51
35 -56 -2z"/>
<path d="M150 889 c-30 -32 -56 -61 -58 -63 -1 -2 4 -9 13 -16 13 -10 23 -4
64 39 49 51 49 51 80 16 33 -38 55 -44 65 -20 6 18 -75 105 -96 105 -7 -1 -38
-28 -68 -61z"/>
<path d="M199 468 c-48 -27 -58 -46 -71 -140 -9 -61 -9 -91 0 -124 7 -25 12
-55 12 -69 0 -14 5 -25 10 -25 6 0 10 -6 10 -13 0 -8 9 -22 20 -32 16 -14 22
-15 35 -5 16 13 9 35 -22 66 -15 14 -18 35 -18 113 0 53 3 108 7 122 18 64 75
89 200 89 157 0 179 -22 179 -181 0 -83 -4 -108 -22 -146 -27 -57 -49 -65
-175 -67 -91 -1 -100 -3 -96 -18 2 -10 9 -18 16 -18 6 0 47 -3 91 -6 68 -5 87
-3 128 15 81 35 93 59 109 212 12 117 2 184 -31 212 -27 23 -117 37 -234 36
-92 -1 -118 -4 -148 -21z"/>
<path d="M324 363 c-34 -7 -54 -36 -61 -90 -7 -62 6 -88 54 -108 50 -21 86
-19 127 8 34 22 35 23 36 89 0 62 -2 68 -29 87 -28 20 -72 25 -127 14z m104
-58 c37 -81 -22 -139 -101 -102 -22 10 -27 19 -27 50 0 62 13 77 69 77 42 0
49 -3 59 -25z"/>
</g>
</svg>
