<svg version="1.0" xmlns="http://www.w3.org/2000/svg"
 width="67.000000pt" height="130.000000pt" viewBox="0 0 67.000000 130.000000"
 preserveAspectRatio="xMidYMid meet">
<metadata>
Created by potrace 1.15, written by Peter Selinger 2001-2017
</metadata>
<g transform="translate(0.000000,130.000000) scale(0.100000,-0.100000)"
fill="#000000" stroke="none">
<path d="M158 1122 c-99 -6 -82 -62 20 -62 55 0 55 0 48 -32 -3 -17 -11 -37
-17 -45 -14 -17 -103 -43 -146 -43 -25 0 -33 -4 -33 -18 0 -33 30 -41 106 -28
108 19 134 40 153 122 14 60 23 64 151 64 74 0 78 -1 84 -24 3 -14 2 -36 -4
-50 -9 -25 -13 -26 -89 -26 -79 0 -81 -1 -96 -30 -8 -16 -15 -51 -15 -78 0
-71 -13 -83 -101 -92 -99 -11 -113 -17 -126 -48 -11 -27 -21 -129 -29 -302 -2
-52 -8 -120 -14 -150 -5 -30 -12 -93 -15 -140 -3 -46 -8 -86 -10 -88 -9 -10
17 -42 34 -42 38 0 48 58 56 325 12 361 14 379 64 393 34 9 282 7 389 -3 82
-8 82 -8 82 18 0 14 -3 28 -8 31 -4 2 -57 7 -117 11 -164 9 -157 7 -149 63 3
26 11 52 18 59 6 7 44 15 84 19 100 9 107 16 104 100 -4 106 -2 105 -206 102
-94 -2 -192 -4 -218 -6z"/>
</g>
</svg>
