<svg version="1.0" xmlns="http://www.w3.org/2000/svg"
 width="73.000000pt" height="83.000000pt" viewBox="0 0 73.000000 83.000000"
 preserveAspectRatio="xMidYMid meet">
<metadata>
Created by potrace 1.15, written by Peter Selinger 2001-2017
</metadata>
<g transform="translate(0.000000,83.000000) scale(0.100000,-0.100000)"
fill="#000000" stroke="none">
<path d="M174 716 c7 -45 7 -45 -41 -48 -35 -2 -48 -7 -48 -18 0 -11 14 -16
50 -20 50 -5 50 -5 53 -42 3 -38 3 -38 -51 -38 -97 0 -99 -46 -2 -52 44 -3 50
-6 47 -23 -2 -11 -22 -45 -44 -77 -41 -58 -41 -58 -43 -170 -1 -73 -7 -121
-15 -134 -15 -25 -7 -54 14 -54 33 0 65 116 66 236 0 60 4 77 26 109 14 21 32
55 40 75 23 56 74 60 74 5 0 -11 6 -29 14 -40 26 -39 36 -92 39 -226 3 -143
10 -169 48 -169 23 0 23 3 3 60 -13 36 -15 68 -10 155 5 87 3 115 -9 135 -26
46 -37 75 -39 105 -1 26 3 30 32 35 44 7 41 24 -5 30 -37 5 -38 7 -41 48 -3
42 -3 42 53 42 48 0 56 3 53 18 -2 13 -15 18 -55 20 -52 3 -52 3 -46 34 5 26
3 30 -13 26 -11 -2 -20 -13 -23 -28 -4 -29 -17 -40 -48 -40 -17 0 -24 7 -29
28 -12 56 -16 62 -36 62 -18 0 -20 -4 -14 -44z m114 -123 c-2 -30 -8 -39 -25
-41 -17 -2 -23 3 -28 27 -8 38 0 51 31 51 23 0 25 -3 22 -37z"/>
<path d="M585 713 c-12 -52 -49 -118 -97 -175 -45 -53 -58 -78 -40 -78 4 0 34
23 65 51 90 80 153 229 98 229 -12 0 -21 -10 -26 -27z"/>
<path d="M617 577 c-8 -18 -17 -42 -21 -53 -3 -11 -33 -43 -66 -72 -85 -76
-81 -113 5 -51 53 38 117 131 119 172 2 42 -21 45 -37 4z"/>
<path d="M635 435 c-8 -14 -22 -37 -31 -51 -8 -14 -31 -43 -50 -64 -29 -31
-36 -50 -41 -93 -3 -30 -2 -76 1 -101 6 -36 11 -46 27 -46 17 0 19 8 19 85 0
82 1 86 33 122 48 55 63 83 71 131 7 48 -5 55 -29 17z"/>
<path d="M229 381 c-6 -18 -20 -32 -35 -35 -32 -8 -32 -36 1 -36 21 0 25 -5
25 -30 0 -24 -6 -33 -26 -40 -14 -6 -24 -16 -21 -23 7 -21 78 -27 115 -11 34
16 35 34 1 34 -15 0 -19 7 -19 38 0 32 5 41 27 53 26 14 26 14 -3 19 -23 4
-30 11 -32 33 -4 35 -20 35 -33 -2z"/>
</g>
</svg>
