<svg version="1.0" xmlns="http://www.w3.org/2000/svg"
 width="61.000000pt" height="73.000000pt" viewBox="0 0 61.000000 73.000000"
 preserveAspectRatio="xMidYMid meet">
<metadata>
Created by potrace 1.15, written by Peter Selinger 2001-2017
</metadata>
<g transform="translate(0.000000,73.000000) scale(0.100000,-0.100000)"
fill="#000000" stroke="none">
<path d="M335 628 c-111 -79 -169 -127 -186 -154 -17 -28 -19 -51 -19 -218 0
-186 0 -186 -45 -186 -50 0 -69 -20 -43 -46 12 -13 25 -13 84 -3 38 6 134 12
214 13 80 1 151 6 158 10 7 4 12 17 12 28 0 20 -4 21 -72 14 -40 -3 -112 -9
-160 -13 -88 -6 -88 -6 -88 56 0 61 0 61 31 61 35 0 131 26 170 46 22 11 28
22 33 68 8 60 -8 107 -43 126 -11 5 -58 10 -105 10 -47 0 -86 4 -86 9 0 12 87
91 101 91 7 0 41 -12 76 -26 62 -24 128 -29 128 -10 0 5 -31 19 -69 30 -38 12
-71 27 -74 34 -2 8 8 26 22 41 41 43 13 56 -39 19z m32 -254 c21 -29 16 -78
-11 -104 -24 -22 -82 -39 -138 -40 -28 0 -28 0 -28 79 0 80 0 80 38 84 67 8
125 0 139 -19z"/>
<path d="M241 337 c-37 -19 -30 -32 19 -35 52 -3 76 9 67 32 -8 19 -52 21 -86
3z"/>
</g>
</svg>
