<svg version="1.0" xmlns="http://www.w3.org/2000/svg"
 width="83.000000pt" height="129.000000pt" viewBox="0 0 83.000000 129.000000"
 preserveAspectRatio="xMidYMid meet">
<metadata>
Created by potrace 1.15, written by Peter Selinger 2001-2017
</metadata>
<g transform="translate(0.000000,129.000000) scale(0.100000,-0.100000)"
fill="#000000" stroke="none">
<path d="M268 1040 c-22 -17 -22 -17 3 -31 67 -38 141 -47 234 -31 34 6 40 11
43 35 5 38 -27 47 -154 46 -84 -1 -108 -4 -126 -19z"/>
<path d="M605 899 c-22 -4 -76 -8 -120 -9 -44 0 -123 -5 -175 -11 -52 -5 -115
-12 -138 -14 -51 -6 -62 -11 -62 -31 0 -27 67 -46 134 -40 34 4 96 9 139 12
73 5 79 4 84 -15 3 -12 9 -21 13 -21 5 0 11 -8 15 -19 3 -10 17 -31 30 -47 14
-16 25 -36 26 -44 3 -68 42 -285 52 -291 5 -4 4 -9 -2 -13 -6 -4 -11 -31 -11
-60 0 -66 -16 -100 -55 -115 -16 -7 -38 -17 -48 -22 -9 -5 -62 -14 -116 -21
-90 -10 -104 -10 -140 6 -51 24 -85 59 -111 119 -24 54 -21 86 10 120 11 11
20 26 20 33 0 7 14 18 30 26 17 7 30 16 30 20 0 5 13 8 28 8 15 0 33 5 40 12
16 16 52 -17 52 -49 0 -41 60 -117 78 -98 10 10 3 104 -9 127 -23 43 -64 68
-113 68 -77 0 -187 -73 -224 -150 -47 -96 17 -223 149 -295 41 -22 56 -24 130
-21 91 4 202 30 220 52 6 8 19 14 28 14 54 0 88 106 71 220 -5 36 -10 92 -10
125 -1 69 -20 156 -50 230 -26 63 -40 108 -36 112 2 3 42 7 88 10 46 4 98 12
116 20 95 39 -31 80 -163 52z"/>
</g>
</svg>
