<svg version="1.0" xmlns="http://www.w3.org/2000/svg"
 width="43.000000pt" height="53.000000pt" viewBox="0 0 43.000000 53.000000"
 preserveAspectRatio="xMidYMid meet">
<metadata>
Created by potrace 1.15, written by Peter Selinger 2001-2017
</metadata>
<g transform="translate(0.000000,53.000000) scale(0.100000,-0.100000)"
fill="#000000" stroke="none">
<path d="M180 410 c-18 -11 -11 -19 36 -35 37 -12 37 -12 2 -19 -20 -3 -48 -2
-63 4 -42 16 -52 0 -37 -57 16 -58 15 -57 39 -42 13 8 38 9 75 5 55 -7 56 -7
62 -46 9 -55 0 -72 -38 -68 -40 4 -48 33 -11 42 40 10 24 31 -27 34 -45 3 -45
3 -46 -45 0 -26 4 -54 10 -61 7 -7 36 -12 78 -12 67 0 67 0 72 48 2 26 1 79
-2 117 -5 70 -5 70 -37 73 -37 4 -43 17 -13 27 27 9 25 24 -6 35 -32 12 -74
13 -94 0z m33 -97 c-7 -2 -21 -2 -30 0 -10 3 -4 5 12 5 17 0 24 -2 18 -5z"/>
</g>
</svg>
