<svg version="1.0" xmlns="http://www.w3.org/2000/svg"
 width="105.000000pt" height="167.000000pt" viewBox="0 0 105.000000 167.000000"
 preserveAspectRatio="xMidYMid meet">
<metadata>
Created by potrace 1.15, written by Peter Selinger 2001-2017
</metadata>
<g transform="translate(0.000000,167.000000) scale(0.100000,-0.100000)"
fill="#000000" stroke="none">
<path d="M511 1541 c-9 -6 -11 -18 -8 -33 4 -14 3 -28 -1 -32 -4 -4 -7 -107
-8 -228 0 -237 -2 -243 -54 -232 -51 10 -186 26 -225 27 -39 0 -159 -23 -169
-33 -2 -3 4 -16 14 -30 18 -24 24 -25 182 -32 197 -8 246 -15 252 -37 3 -9 8
-97 11 -196 5 -159 25 -386 41 -453 3 -15 1 -21 -6 -17 -5 3 -10 1 -10 -4 0
-6 5 -11 10 -11 6 0 10 -7 10 -16 0 -24 122 -138 173 -162 47 -22 190 -34 216
-18 18 12 -26 56 -55 56 -22 0 -40 6 -111 37 -128 55 -173 195 -180 558 -2
136 0 226 6 235 8 12 44 15 196 17 186 2 220 8 209 38 -7 18 -58 25 -239 32
-88 3 -162 7 -164 9 -3 3 -7 116 -9 252 -3 234 -4 248 -24 265 -22 19 -36 21
-57 8z"/>
<path d="M807 1510 c-7 -28 2 -180 13 -214 6 -16 10 -50 10 -76 0 -33 5 -50
15 -54 42 -16 56 27 35 105 -7 24 -7 66 -1 120 10 90 4 110 -36 128 -31 14
-30 14 -36 -9z"/>
<path d="M153 1490 c-27 -11 -28 -18 -8 -44 11 -15 13 -44 10 -130 -5 -120 4
-146 50 -146 30 0 32 13 29 169 -4 161 -13 178 -81 151z"/>
<path d="M825 790 c-4 -12 -2 -27 4 -34 6 -8 10 -33 8 -57 -4 -37 5 -116 27
-249 10 -61 19 -80 37 -80 11 0 21 9 25 24 9 36 -16 376 -29 397 -16 26 -64
25 -72 -1z"/>
<path d="M181 771 c-19 -12 -19 -334 -1 -356 17 -20 26 -19 51 6 18 18 20 28
14 87 -4 37 -8 109 -9 160 -2 67 -7 97 -17 103 -17 11 -21 11 -38 0z"/>
<path d="M50 732 c0 -18 -1 -35 -2 -39 -1 -5 7 -10 17 -12 15 -3 17 2 11 30
-9 47 -26 61 -26 21z"/>
<path d="M330 740 c0 -5 5 -10 11 -10 5 0 7 5 4 10 -3 6 -8 10 -11 10 -2 0 -4
-4 -4 -10z"/>
<path d="M50 660 c0 -5 5 -10 10 -10 6 0 10 5 10 10 0 6 -4 10 -10 10 -5 0
-10 -4 -10 -10z"/>
<path d="M55 280 c3 -5 8 -10 11 -10 2 0 4 5 4 10 0 6 -5 10 -11 10 -5 0 -7
-4 -4 -10z"/>
</g>
</svg>
