<svg version="1.0" xmlns="http://www.w3.org/2000/svg"
 width="53.000000pt" height="107.000000pt" viewBox="0 0 53.000000 107.000000"
 preserveAspectRatio="xMidYMid meet">
<metadata>
Created by potrace 1.15, written by Peter Selinger 2001-2017
</metadata>
<g transform="translate(0.000000,107.000000) scale(0.100000,-0.100000)"
fill="#000000" stroke="none">
<path d="M141 826 c-31 -65 -39 -106 -21 -106 13 0 50 41 50 56 0 34 20 17 49
-39 32 -62 32 -62 -8 -139 -43 -82 -53 -119 -34 -125 11 -4 93 107 93 126 0
19 19 12 35 -13 14 -21 15 -32 4 -83 -16 -73 -21 -195 -9 -253 43 -222 55
-226 45 -17 -4 103 -3 168 5 202 26 109 24 138 -9 187 -17 25 -31 50 -31 54 0
17 45 94 54 94 6 0 23 -12 38 -27 21 -20 31 -24 40 -15 9 9 6 22 -12 57 -13
25 -27 45 -32 45 -4 0 -8 6 -8 14 0 20 -25 37 -44 30 -9 -3 -16 -15 -16 -25 0
-23 -43 -101 -56 -101 -5 -1 -18 17 -29 38 -31 59 -59 104 -66 104 -4 0 -21
-29 -38 -64z"/>
</g>
</svg>
