<svg version="1.0" xmlns="http://www.w3.org/2000/svg"
 width="69.000000pt" height="115.000000pt" viewBox="0 0 69.000000 115.000000"
 preserveAspectRatio="xMidYMid meet">
<metadata>
Created by potrace 1.15, written by Peter Selinger 2001-2017
</metadata>
<g transform="translate(0.000000,115.000000) scale(0.100000,-0.100000)"
fill="#000000" stroke="none">
<path d="M413 987 c-12 -17 -29 -49 -39 -69 -10 -21 -21 -38 -25 -38 -3 0 -12
-13 -19 -30 -7 -16 -16 -30 -20 -30 -9 0 -30 -46 -30 -65 0 -8 6 -15 13 -15
15 0 87 88 87 106 0 8 4 14 9 14 5 0 12 8 16 18 3 9 19 33 35 52 26 32 29 34
36 15 4 -11 10 -22 13 -25 4 -3 26 -30 51 -60 25 -30 60 -70 78 -89 31 -32 34
-33 50 -18 15 15 14 18 -6 40 -12 13 -22 26 -22 29 0 4 -29 36 -64 72 -36 36
-73 79 -82 96 -24 40 -53 39 -81 -3z"/>
<path d="M180 983 c-24 -3 -49 -8 -55 -13 -5 -4 -21 -10 -35 -12 -62 -8 -70
-44 -69 -288 1 -194 2 -211 24 -257 19 -41 29 -51 64 -63 29 -9 45 -10 52 -3
6 6 19 9 28 6 17 -4 18 -17 15 -143 -3 -107 -1 -140 10 -149 28 -23 34 13 35
214 3 310 -4 492 -19 510 -9 11 -32 15 -86 15 -82 0 -85 3 -60 64 19 46 49 64
118 72 46 5 58 10 58 24 0 14 -26 36 -33 28 -1 -1 -22 -3 -47 -5z m6 -228 c15
-4 23 -62 14 -95 -6 -23 -11 -25 -73 -27 -67 -1 -67 -1 -67 62 0 52 3 64 18
67 17 4 86 0 108 -7z m-1 -164 c17 -7 19 -16 16 -107 -1 -54 -5 -101 -7 -103
-2 -3 -10 1 -16 7 -7 7 -23 12 -37 12 -15 0 -33 6 -42 13 -16 12 -51 154 -42
170 2 4 14 5 26 2 13 -4 34 -2 47 4 30 12 30 12 55 2z"/>
<path d="M360 760 c0 -18 7 -20 74 -20 77 0 126 12 126 30 0 6 -38 10 -100 10
-93 0 -100 -1 -100 -20z"/>
<path d="M315 670 c-11 -17 6 -31 33 -29 48 4 61 -1 67 -22 12 -36 -12 -75
-55 -89 -39 -13 -63 -48 -56 -80 16 -77 33 -88 151 -96 39 -3 76 -7 83 -9 26
-9 41 -73 58 -253 6 -59 10 -72 23 -70 13 3 16 18 15 93 0 115 -10 179 -37
233 -24 49 -29 51 -152 55 -90 2 -90 2 -88 46 1 24 4 46 7 48 3 3 42 7 87 9
45 2 84 6 87 9 3 3 16 5 29 5 17 0 28 10 40 34 14 30 14 40 2 80 -13 46 -13
46 -151 46 -80 0 -139 -4 -143 -10z m245 -70 c0 -40 0 -40 -50 -40 -46 0 -50
2 -50 24 0 47 10 56 56 56 44 0 44 0 44 -40z"/>
</g>
</svg>
