<svg version="1.0" xmlns="http://www.w3.org/2000/svg"
 width="75.000000pt" height="83.000000pt" viewBox="0 0 75.000000 83.000000"
 preserveAspectRatio="xMidYMid meet">
<metadata>
Created by potrace 1.15, written by Peter Selinger 2001-2017
</metadata>
<g transform="translate(0.000000,83.000000) scale(0.100000,-0.100000)"
fill="#000000" stroke="none">
<path d="M468 708 c-3 -21 -9 -23 -65 -26 -89 -4 -98 -18 -107 -169 -12 -199
-38 -395 -61 -445 -4 -11 -3 -18 4 -18 32 0 64 154 84 403 8 97 18 172 25 179
6 6 67 15 139 20 141 10 157 13 148 28 -3 5 -33 10 -66 10 -52 0 -59 2 -59 20
0 29 -38 27 -42 -2z"/>
<path d="M226 695 c-8 -9 -21 -43 -28 -75 -10 -51 -15 -60 -34 -60 -15 0 -29
12 -43 35 -19 33 -41 46 -41 25 0 -5 5 -29 11 -52 11 -42 3 -83 -36 -170 -14
-34 15 -19 43 22 27 39 50 48 86 34 25 -10 22 -100 -3 -114 -32 -17 -48 -12
-61 20 -18 44 -30 37 -30 -19 0 -26 -11 -82 -24 -122 -13 -41 -22 -76 -20 -78
8 -8 34 23 46 55 11 31 16 34 50 34 21 0 38 -1 38 -3 0 -17 -37 -122 -57 -161
-15 -29 -19 -46 -12 -44 29 10 87 131 100 208 5 30 13 69 18 86 5 17 6 91 4
165 -5 109 -3 141 11 173 9 21 16 42 16 47 0 14 -17 11 -34 -6z m-28 -179 c10
-11 -12 -26 -39 -26 -23 0 -29 4 -29 21 0 19 4 21 32 15 17 -3 33 -8 36 -10z
m-10 -233 c-2 -12 -14 -19 -36 -21 -34 -3 -35 -2 -26 22 9 23 67 22 62 -1z"/>
<path d="M567 633 c-4 -3 -7 -21 -7 -40 0 -39 -16 -43 -32 -8 -11 25 -28 34
-28 15 0 -22 31 -70 45 -70 12 0 15 -16 15 -80 0 -79 0 -79 -37 -85 -89 -13
-129 -27 -150 -53 -50 -61 -34 -149 33 -177 69 -29 191 -11 240 36 44 41 22
128 -43 177 -14 10 -17 26 -14 92 2 73 5 83 32 109 28 28 37 60 22 75 -4 3
-12 -8 -17 -26 -14 -42 -36 -49 -36 -11 0 31 -13 57 -23 46z m38 -328 c46 -45
24 -137 -36 -149 -91 -18 -184 6 -195 51 -8 31 26 82 68 104 18 9 57 17 86 18
44 1 57 -3 77 -24z"/>
<path d="M437 282 c-24 -26 -21 -49 8 -77 32 -33 78 -33 110 0 49 48 20 95
-57 95 -31 0 -50 -6 -61 -18z m103 -27 c17 -21 4 -35 -35 -35 -36 0 -50 12
-41 35 7 19 60 19 76 0z"/>
<path d="M410 583 c-1 -48 -1 -48 -30 -13 -22 25 -30 30 -30 17 0 -24 29 -67
46 -67 11 0 14 -17 14 -71 0 -52 3 -70 13 -67 7 3 13 28 15 63 3 47 8 63 28
81 13 13 24 34 24 49 0 31 -17 34 -22 3 -5 -35 -25 -32 -32 6 -10 54 -26 54
-26 -1z"/>
<path d="M624 515 c-14 -22 -15 -31 -4 -71 7 -25 19 -48 27 -51 22 -9 24 2 7
36 -11 22 -14 45 -10 72 7 45 3 49 -20 14z"/>
<path d="M527 478 c-19 -41 -22 -68 -8 -68 14 0 33 56 29 82 -4 21 -6 20 -21
-14z"/>
<path d="M362 465 c-7 -16 -17 -38 -22 -47 -14 -25 -12 -38 5 -38 20 0 37 45
33 84 -4 31 -4 31 -16 1z"/>
<path d="M455 481 c-9 -16 4 -67 21 -82 22 -18 27 -4 13 38 -16 47 -25 58 -34
44z"/>
</g>
</svg>
