<svg version="1.0" xmlns="http://www.w3.org/2000/svg"
 width="67.000000pt" height="80.000000pt" viewBox="0 0 67.000000 80.000000"
 preserveAspectRatio="xMidYMid meet">
<metadata>
Created by potrace 1.15, written by Peter Selinger 2001-2017
</metadata>
<g transform="translate(0.000000,80.000000) scale(0.100000,-0.100000)"
fill="#000000" stroke="none">
<path d="M400 648 c-84 -41 -84 -41 -120 -21 -39 23 -113 38 -130 28 -17 -11
8 -35 36 -35 29 0 104 -47 104 -66 0 -8 -20 -15 -57 -19 -145 -16 -163 -48
-30 -53 67 -2 87 -6 87 -17 0 -16 -30 -35 -54 -35 -9 0 -32 -10 -51 -22 -47
-30 -58 -73 -49 -188 6 -76 4 -97 -11 -130 -21 -46 -14 -61 15 -35 33 30 53
116 42 173 -18 81 1 127 61 159 40 20 57 11 57 -31 0 -35 -1 -35 -47 -38 -60
-4 -59 -22 2 -26 40 -3 45 -6 45 -26 0 -26 -17 -36 -59 -36 -15 0 -31 -3 -34
-7 -14 -14 17 -33 54 -33 39 0 39 0 39 -59 0 -39 5 -63 15 -71 25 -20 35 -1
35 65 0 70 -2 68 75 80 40 6 40 6 57 -43 20 -57 53 -102 74 -102 20 0 17 29
-6 73 -16 30 -20 56 -20 140 0 138 -23 170 -123 172 -101 3 -69 34 48 46 95
10 105 13 105 35 0 11 -20 14 -105 14 -63 0 -105 4 -105 10 0 15 77 67 118 81
42 13 74 38 66 50 -11 18 -51 8 -134 -33z m39 -253 c32 -16 41 -33 41 -78 0
-70 -7 -77 -71 -77 -56 0 -59 1 -59 25 0 24 8 28 89 38 8 1 16 8 19 15 3 9
-12 12 -52 12 -56 0 -56 0 -56 33 0 19 3 37 7 40 11 12 53 8 82 -8z"/>
</g>
</svg>
