<svg version="1.0" xmlns="http://www.w3.org/2000/svg"
 width="63.000000pt" height="86.000000pt" viewBox="0 0 63.000000 86.000000"
 preserveAspectRatio="xMidYMid meet">
<metadata>
Created by potrace 1.15, written by Peter Selinger 2001-2017
</metadata>
<g transform="translate(0.000000,86.000000) scale(0.100000,-0.100000)"
fill="#000000" stroke="none">
<path d="M310 624 c0 -63 -1 -65 -22 -58 -45 14 -64 23 -97 48 -34 25 -51 26
-51 3 0 -15 85 -80 135 -104 25 -12 35 -23 35 -40 0 -22 -3 -23 -37 -17 -21 4
-53 13 -72 20 -96 39 -63 -10 35 -53 44 -19 64 -33 64 -45 0 -11 -7 -18 -19
-18 -10 0 -38 -3 -62 -6 -42 -5 -45 -4 -62 27 -25 44 -40 26 -22 -26 19 -53
19 -125 -1 -203 -17 -68 -14 -83 12 -61 19 16 34 51 43 99 4 19 12 35 19 34 6
-1 30 -2 52 -2 40 -2 40 -2 40 -97 0 -74 3 -95 14 -95 14 0 26 60 26 134 0 23
5 47 12 54 7 7 38 12 69 12 57 0 57 0 69 -47 13 -55 52 -109 69 -98 9 5 9 12
-2 28 -37 58 -46 190 -21 300 9 40 -11 34 -33 -10 -20 -38 -21 -38 -86 -41
-66 -3 -67 -3 -67 23 0 18 7 28 26 35 14 6 45 25 67 43 23 17 51 37 62 43 11
6 21 18 23 27 2 11 -17 4 -70 -23 -100 -52 -118 -57 -118 -32 0 13 16 30 43
46 57 35 112 84 104 92 -4 4 -29 -5 -56 -19 -27 -15 -59 -27 -71 -27 -20 0
-22 5 -20 48 3 65 2 72 -15 72 -12 0 -15 -14 -15 -66z m138 -300 c15 -4 22
-14 22 -30 0 -23 -3 -24 -60 -24 -60 0 -60 0 -60 30 0 28 2 30 38 30 20 0 47
-3 60 -6z m-150 -31 c-3 -26 -7 -28 -55 -31 -53 -3 -53 -3 -53 27 0 31 0 31
56 31 54 0 55 0 52 -27z"/>
</g>
</svg>
