<svg version="1.0" xmlns="http://www.w3.org/2000/svg"
 width="53.000000pt" height="71.000000pt" viewBox="0 0 53.000000 71.000000"
 preserveAspectRatio="xMidYMid meet">
<metadata>
Created by potrace 1.15, written by Peter Selinger 2001-2017
</metadata>
<g transform="translate(0.000000,71.000000) scale(0.100000,-0.100000)"
fill="#000000" stroke="none">
<path d="M230 554 c0 -46 0 -46 -31 -19 -50 41 -59 15 -13 -35 22 -23 39 -46
39 -51 0 -5 -16 -17 -35 -28 -28 -14 -36 -25 -38 -52 -2 -18 -12 -44 -23 -57
-22 -29 -25 -98 -8 -167 16 -65 29 -45 29 46 0 46 4 79 10 79 6 0 10 -4 10
-10 0 -5 11 -10 24 -10 34 0 43 -17 45 -85 1 -33 5 -69 8 -80 6 -20 6 -20 14
0 4 11 8 46 8 78 1 47 4 57 19 57 34 0 82 38 82 65 0 35 15 31 30 -7 6 -18 16
-41 21 -50 5 -10 9 -27 9 -38 0 -11 5 -20 10 -20 6 0 10 21 10 48 0 53 -27
107 -59 117 -14 4 -21 15 -21 30 0 29 -23 53 -67 72 -41 17 -42 37 -2 74 18
16 29 33 25 36 -3 4 -12 1 -18 -5 -17 -17 -49 -15 -42 2 6 17 -12 56 -26 56
-6 0 -10 -21 -10 -46z m2 -179 c4 -21 1 -25 -18 -25 -29 0 -34 36 -6 43 9 3
18 5 18 6 1 0 4 -10 6 -24z m96 -7 c3 -14 -4 -18 -31 -18 -31 0 -34 3 -30 21
7 26 56 23 61 -3z m2 -76 c0 -16 -28 -41 -47 -42 -8 0 -13 13 -13 33 0 32 2
33 30 29 18 -3 30 -10 30 -20z m-100 -3 c0 -14 -5 -19 -17 -17 -26 5 -29 38
-4 38 15 0 21 -6 21 -21z"/>
</g>
</svg>
