<svg version="1.0" xmlns="http://www.w3.org/2000/svg"
 width="73.000000pt" height="103.000000pt" viewBox="0 0 73.000000 103.000000"
 preserveAspectRatio="xMidYMid meet">
<metadata>
Created by potrace 1.15, written by Peter Selinger 2001-2017
</metadata>
<g transform="translate(0.000000,103.000000) scale(0.100000,-0.100000)"
fill="#000000" stroke="none">
<path d="M345 920 c-3 -5 -3 -48 1 -96 8 -98 12 -96 -71 -34 -46 35 -95 58
-95 46 0 -10 96 -102 132 -126 35 -23 38 -29 38 -71 0 -46 -1 -47 -47 -70 -36
-18 -54 -36 -73 -71 -19 -36 -32 -48 -62 -57 -43 -13 -45 -16 -58 -73 -5 -24
-13 -62 -19 -85 -7 -28 -8 -51 -1 -68 9 -23 12 -25 25 -11 8 8 15 30 15 48 1
44 22 121 39 142 20 24 33 19 63 -25 16 -22 47 -48 72 -61 45 -21 45 -21 52
-112 5 -50 9 -94 10 -98 1 -5 2 -20 3 -35 1 -19 4 -24 12 -16 6 6 12 59 14
119 3 99 6 109 27 126 13 10 28 18 33 18 9 0 20 12 60 66 12 17 64 22 84 10 5
-4 12 -21 16 -39 13 -63 27 -97 41 -97 17 0 18 39 2 112 -13 57 -21 68 -55 68
-39 0 -71 22 -88 60 -12 27 -31 46 -61 62 -35 18 -45 30 -50 55 -9 49 2 75 46
107 22 17 40 34 40 38 0 5 11 20 25 34 54 54 17 52 -40 -3 -16 -15 -39 -28
-50 -28 -17 0 -21 9 -26 56 -6 56 -28 119 -41 119 -4 0 -10 -4 -13 -10z m115
-418 c26 -32 25 -76 0 -117 -20 -33 -46 -50 -53 -37 -3 4 -5 48 -6 99 -2 88
-1 91 19 86 11 -3 29 -17 40 -31z m-110 -68 c0 -94 0 -95 -22 -88 -54 16 -86
75 -66 121 18 43 39 63 65 63 23 0 23 -2 23 -96z"/>
</g>
</svg>
