<svg version="1.0" xmlns="http://www.w3.org/2000/svg"
 width="61.000000pt" height="113.000000pt" viewBox="0 0 61.000000 113.000000"
 preserveAspectRatio="xMidYMid meet">
<metadata>
Created by potrace 1.15, written by Peter Selinger 2001-2017
</metadata>
<g transform="translate(0.000000,113.000000) scale(0.100000,-0.100000)"
fill="#000000" stroke="none">
<path d="M187 963 c-14 -13 -6 -24 28 -39 29 -12 35 -20 35 -43 0 -25 -5 -30
-27 -33 -37 -4 -45 -38 -10 -38 37 0 86 -28 83 -48 -2 -9 -17 -26 -34 -37 -30
-19 -32 -24 -31 -75 2 -109 1 -112 -51 -169 -47 -51 -62 -81 -41 -81 5 0 16 6
23 13 7 7 34 27 59 45 45 30 47 34 54 92 6 54 9 60 30 60 39 0 48 -23 42 -106
-4 -52 -2 -74 5 -72 13 5 38 81 38 116 0 19 5 22 40 22 40 0 40 0 40 -43 0
-86 -28 -134 -93 -159 -47 -18 -58 -54 -48 -155 5 -48 14 -100 20 -115 15 -39
48 -35 92 10 34 34 37 42 43 115 3 42 2 77 -2 77 -17 0 -32 -25 -32 -52 0 -33
-18 -75 -35 -82 -8 -3 -17 11 -24 39 -18 71 -14 100 14 115 14 7 25 17 25 22
0 4 6 8 14 8 22 0 55 62 63 116 3 26 12 59 19 73 19 36 0 61 -67 88 -49 20
-55 25 -60 58 -3 21 -12 40 -18 45 -7 4 -11 18 -9 31 3 21 9 24 50 27 25 2 52
9 58 17 10 12 4 17 -29 31 -45 18 -46 21 -29 59 7 16 19 25 35 25 37 0 27 26
-16 38 -41 13 -243 17 -254 5z m201 -58 c1 -1 -2 -14 -7 -29 -8 -20 -17 -26
-40 -26 -23 0 -30 5 -34 27 -3 16 -3 31 0 36 4 6 71 0 81 -8z m-38 -215 c12
-8 12 -10 -4 -16 -11 -4 -24 0 -34 10 -15 15 -15 16 3 16 11 0 27 -4 35 -10z"/>
</g>
</svg>
