<svg version="1.0" xmlns="http://www.w3.org/2000/svg"
 width="61.000000pt" height="125.000000pt" viewBox="0 0 61.000000 125.000000"
 preserveAspectRatio="xMidYMid meet">
<metadata>
Created by potrace 1.15, written by Peter Selinger 2001-2017
</metadata>
<g transform="translate(0.000000,125.000000) scale(0.100000,-0.100000)"
fill="#000000" stroke="none">
<path d="M144 1124 c-70 -34 -93 -87 -79 -179 5 -38 15 -55 51 -88 147 -135
134 -106 133 -315 0 -103 -4 -207 -7 -232 -7 -45 -7 -45 -72 -42 -102 5 -100
1 -100 229 0 186 -1 193 -20 193 -15 0 -20 -7 -21 -27 -1 -16 -3 -57 -4 -93
-2 -36 -6 -111 -9 -168 -3 -64 -1 -112 5 -126 17 -37 79 -66 140 -66 81 0 230
-25 268 -45 38 -19 101 -79 101 -95 0 -6 11 -23 25 -38 25 -26 27 -26 40 -8
12 16 11 24 -10 67 -29 57 -83 114 -116 122 -169 43 -164 40 -167 96 -3 42 0
52 15 57 10 3 26 10 35 15 10 5 29 9 42 9 42 0 76 21 76 47 0 12 5 23 10 23 6
0 10 43 10 110 0 92 -3 112 -16 117 -16 6 -37 -15 -28 -29 8 -12 -19 -182 -31
-193 -15 -15 -63 -35 -85 -35 -17 0 -19 11 -22 171 -3 171 -3 171 -47 210 -25
21 -60 46 -78 54 -36 17 -73 67 -73 98 0 43 73 121 122 131 56 11 164 -5 190
-28 50 -45 63 -127 29 -183 -15 -24 -34 -36 -78 -50 -45 -14 -58 -22 -58 -38
0 -44 102 -22 163 35 34 32 44 67 37 129 -12 98 -33 125 -125 159 -56 20 -209
24 -246 6z"/>
</g>
</svg>
