<svg version="1.0" xmlns="http://www.w3.org/2000/svg"
 width="59.000000pt" height="77.000000pt" viewBox="0 0 59.000000 77.000000"
 preserveAspectRatio="xMidYMid meet">
<metadata>
Created by potrace 1.15, written by Peter Selinger 2001-2017
</metadata>
<g transform="translate(0.000000,77.000000) scale(0.100000,-0.100000)"
fill="#000000" stroke="none">
<path d="M520 701 c-5 -11 -10 -37 -10 -59 0 -39 0 -39 -42 -40 -85 -2 -198
-14 -198 -21 0 -18 48 -31 127 -32 48 -1 94 -6 101 -12 14 -11 16 -85 3 -105
-6 -10 -51 -16 -166 -21 -87 -4 -173 -5 -191 -3 -34 4 -34 4 -34 64 0 69 -21
117 -51 118 -32 1 -43 -304 -14 -403 20 -68 49 -115 80 -129 14 -6 25 -15 25
-19 0 -8 51 -17 128 -23 88 -7 199 36 219 83 25 58 43 124 58 212 20 115 24
354 6 387 -14 27 -27 28 -41 3z m-28 -402 c-3 -58 -12 -90 -45 -158 -29 -59
-67 -75 -167 -69 -87 6 -145 30 -159 67 -14 36 -24 173 -13 189 6 8 63 15 188
20 98 5 184 8 189 7 6 -1 9 -25 7 -56z"/>
</g>
</svg>
