<svg version="1.0" xmlns="http://www.w3.org/2000/svg"
 width="33.000000pt" height="53.000000pt" viewBox="0 0 33.000000 53.000000"
 preserveAspectRatio="xMidYMid meet">
<metadata>
Created by potrace 1.15, written by Peter Selinger 2001-2017
</metadata>
<g transform="translate(0.000000,53.000000) scale(0.100000,-0.100000)"
fill="#000000" stroke="none">
<path d="M237 303 c-4 -3 -7 -41 -7 -83 0 -71 -2 -78 -28 -103 -31 -30 -59
-34 -86 -14 -23 17 -17 41 10 43 10 0 34 1 52 2 19 1 32 7 32 16 0 10 -15 13
-57 12 -58 -1 -58 -1 -61 62 -3 61 -15 80 -27 43 -6 -19 2 -162 11 -192 7 -24
65 -40 118 -33 62 9 76 35 76 143 0 98 -10 128 -33 104z"/>
<path d="M127 264 c-12 -12 4 -24 34 -24 19 0 29 5 29 15 0 15 -50 22 -63 9z"/>
</g>
</svg>
