<svg version="1.0" xmlns="http://www.w3.org/2000/svg"
 width="35.000000pt" height="51.000000pt" viewBox="0 0 35.000000 51.000000"
 preserveAspectRatio="xMidYMid meet">
<metadata>
Created by potrace 1.15, written by Peter Selinger 2001-2017
</metadata>
<g transform="translate(0.000000,51.000000) scale(0.100000,-0.100000)"
fill="#000000" stroke="none">
<path d="M188 249 c-17 -10 -8 -17 30 -25 25 -5 32 -3 32 9 0 17 -42 28 -62
16z"/>
<path d="M136 215 c-3 -9 -6 -32 -6 -50 0 -19 -4 -45 -9 -59 -14 -36 7 -50 63
-42 27 4 47 3 51 -4 12 -19 25 -10 40 26 20 49 20 104 -1 104 -9 0 -18 -9 -21
-20 -4 -16 -14 -20 -49 -20 -41 0 -44 2 -44 28 0 37 -15 60 -24 37z m89 -105
c3 -6 -4 -10 -17 -10 -18 0 -20 2 -8 10 19 12 18 12 25 0z"/>
</g>
</svg>
