<svg version="1.0" xmlns="http://www.w3.org/2000/svg"
 width="75.000000pt" height="93.000000pt" viewBox="0 0 75.000000 93.000000"
 preserveAspectRatio="xMidYMid meet">
<metadata>
Created by potrace 1.15, written by Peter Selinger 2001-2017
</metadata>
<g transform="translate(0.000000,93.000000) scale(0.100000,-0.100000)"
fill="#000000" stroke="none">
<path d="M637 853 c-3 -5 -1 -75 4 -158 6 -93 5 -153 -1 -159 -5 -5 -46 -10
-92 -11 -95 -1 -138 -11 -138 -31 0 -15 10 -18 130 -35 47 -6 91 -16 98 -22 7
-5 12 -32 12 -61 0 -51 0 -51 -207 -48 -283 4 -269 0 -277 65 -18 157 -25 257
-20 303 5 40 3 54 -11 68 -12 11 -21 14 -28 7 -26 -26 -47 -239 -28 -293 6
-17 7 -36 3 -42 -11 -14 2 -186 17 -244 7 -23 16 -42 21 -42 6 0 10 -10 10
-22 0 -25 36 -71 59 -76 8 -2 33 -12 55 -24 30 -15 67 -22 139 -26 88 -4 105
-2 170 22 84 31 96 39 125 87 43 70 54 156 55 409 2 297 -8 339 -80 340 -6 0
-14 -3 -16 -7z m-105 -599 c113 -7 122 -15 89 -86 -30 -67 -63 -94 -122 -102
-91 -12 -249 10 -249 35 0 4 -8 10 -18 13 -24 8 -52 95 -43 136 2 8 240 11
343 4z"/>
</g>
</svg>
