<svg version="1.0" xmlns="http://www.w3.org/2000/svg"
 width="43.000000pt" height="49.000000pt" viewBox="0 0 43.000000 49.000000"
 preserveAspectRatio="xMidYMid meet">
<metadata>
Created by potrace 1.15, written by Peter Selinger 2001-2017
</metadata>
<g transform="translate(0.000000,49.000000) scale(0.100000,-0.100000)"
fill="#000000" stroke="none">
<path d="M89 323 c-1 -10 -1 -63 1 -118 2 -106 17 -154 48 -156 76 -4 189 4
200 16 8 7 15 39 17 71 2 33 7 87 10 122 6 52 4 63 -10 68 -24 9 -28 1 -34
-73 -7 -76 9 -66 -143 -86 -48 -7 -48 -7 -48 71 0 47 -5 83 -12 90 -17 17 -28
15 -29 -5z m241 -200 c0 -2 -6 -11 -14 -19 -10 -9 -37 -14 -83 -14 -94 0 -112
15 -37 30 32 7 63 13 68 14 14 3 66 -6 66 -11z m-213 -25 c-3 -8 -6 -5 -6 6
-1 11 2 17 5 13 3 -3 4 -12 1 -19z"/>
<path d="M156 235 c-16 -12 -17 -17 -6 -30 15 -18 31 -19 83 -4 26 7 37 15 37
29 0 17 -7 20 -47 20 -27 0 -57 -7 -67 -15z"/>
</g>
</svg>
