<svg version="1.0" xmlns="http://www.w3.org/2000/svg"
 width="64.000000pt" height="76.000000pt" viewBox="0 0 64.000000 76.000000"
 preserveAspectRatio="xMidYMid meet">
<metadata>
Created by potrace 1.15, written by Peter Selinger 2001-2017
</metadata>
<g transform="translate(0.000000,76.000000) scale(0.100000,-0.100000)"
fill="#000000" stroke="none">
<path d="M315 547 c-3 -7 -4 -56 -3 -108 3 -91 4 -94 30 -107 15 -7 57 -15 93
-19 65 -6 65 -6 65 -53 0 -47 0 -47 -97 -53 -54 -4 -130 -7 -169 -7 -71 0 -71
0 -78 77 -3 42 -6 107 -6 145 0 61 -2 69 -18 66 -15 -3 -17 -19 -16 -168 2
-131 6 -178 21 -230 20 -65 20 -65 96 -74 84 -10 223 10 254 36 33 27 43 77
50 246 6 177 2 222 -22 222 -11 0 -15 -19 -17 -82 -3 -83 -3 -83 -40 -86 -20
-2 -55 2 -77 8 -41 11 -41 11 -41 100 0 81 -12 122 -25 87z m181 -392 c12 -31
-16 -74 -60 -89 -58 -21 -179 -30 -221 -16 -40 13 -47 28 -39 81 7 39 7 39
161 39 128 0 155 -3 159 -15z"/>
</g>
</svg>
