<svg version="1.0" xmlns="http://www.w3.org/2000/svg"
 width="73.000000pt" height="345.000000pt" viewBox="0 0 73.000000 345.000000"
 preserveAspectRatio="xMidYMid meet">
<metadata>
Created by potrace 1.15, written by Peter Selinger 2001-2017
</metadata>
<g transform="translate(0.000000,345.000000) scale(0.100000,-0.100000)"
fill="#000000" stroke="none">
<path d="M85 3353 c-4 -10 -6 -171 -4 -358 5 -430 5 -360 -4 -1544 -9 -1057
-9 -1069 35 -1191 46 -126 89 -190 148 -217 99 -45 103 -46 176 -40 105 9 139
27 200 106 23 30 34 54 34 78 0 19 4 42 9 51 9 17 25 231 23 307 0 22 -3 249
-6 505 -2 256 -8 634 -12 840 -10 456 -10 645 1 1082 8 354 4 403 -34 396 -14
-3 -16 -23 -18 -138 -1 -74 -5 -193 -8 -265 -7 -159 -7 -443 0 -665 3 -91 8
-302 10 -470 3 -168 7 -418 10 -556 5 -294 22 -264 -145 -264 -98 0 -144 -10
-128 -26 13 -13 134 -33 200 -34 37 0 69 -4 72 -8 7 -12 9 -382 2 -389 -8 -8
-493 -5 -520 4 -19 5 -19 18 -12 437 14 873 28 2044 26 2231 -1 110 -8 145
-30 145 -10 0 -21 -8 -25 -17z m480 -2860 c80 -8 80 -8 80 -108 -1 -120 -26
-238 -61 -278 -51 -59 -180 -72 -281 -27 -92 40 -125 91 -154 238 -21 102 -24
158 -10 166 5 3 46 7 90 8 45 0 84 4 86 8 5 8 129 4 250 -7z"/>
</g>
</svg>
