<svg version="1.0" xmlns="http://www.w3.org/2000/svg"
 width="76.000000pt" height="84.000000pt" viewBox="0 0 76.000000 84.000000"
 preserveAspectRatio="xMidYMid meet">
<metadata>
Created by potrace 1.15, written by Peter Selinger 2001-2017
</metadata>
<g transform="translate(0.000000,84.000000) scale(0.100000,-0.100000)"
fill="#000000" stroke="none">
<path d="M510 786 c0 -7 7 -19 15 -26 27 -22 18 -48 -21 -60 -21 -7 -44 -25
-55 -44 -19 -29 -20 -43 -14 -176 8 -182 -5 -299 -40 -352 -29 -44 -32 -61 -7
-56 33 6 72 99 85 205 11 90 14 98 35 101 17 3 22 -2 22 -18 0 -12 14 -34 32
-50 32 -30 32 -30 0 -63 -50 -51 -36 -129 28 -162 68 -35 81 -6 20 44 -22 17
-40 40 -40 50 0 10 16 31 35 45 46 36 49 79 6 104 -17 9 -35 27 -40 39 -9 20
-7 25 21 39 26 13 32 14 39 3 5 -8 19 -32 32 -54 14 -24 31 -41 45 -43 27 -4
28 2 2 38 -11 16 -27 48 -35 71 -14 37 -14 44 0 59 18 20 19 79 1 103 -9 11
-27 17 -54 17 -47 0 -52 5 -45 41 4 24 10 27 55 31 65 7 80 22 40 42 -17 9
-45 16 -62 16 -22 0 -30 5 -30 18 0 23 -30 52 -53 52 -9 0 -17 -6 -17 -14z
m23 -160 c-3 -34 -1 -33 -36 -41 -23 -6 -27 -4 -27 16 0 28 29 61 49 56 11 -2
15 -12 14 -31z m-8 -91 c0 -14 -8 -21 -27 -23 -24 -3 -28 0 -28 23 0 23 4 26
28 23 19 -2 27 -9 27 -23z m105 10 c19 -23 5 -48 -22 -40 -31 10 -52 31 -44
44 10 16 51 13 66 -4z m-105 -100 c0 -23 -5 -31 -22 -33 -20 -3 -23 1 -23 33
0 32 3 36 23 33 17 -2 22 -10 22 -33z m75 15 c0 -12 -28 -25 -36 -17 -9 9 6
27 22 27 8 0 14 -5 14 -10z"/>
<path d="M165 751 c-3 -5 6 -22 20 -37 29 -31 32 -44 10 -44 -8 0 -24 -9 -35
-20 -16 -16 -20 -33 -20 -89 0 -68 0 -68 -41 -74 -79 -11 -78 -47 2 -47 49 0
49 0 49 -35 0 -32 -5 -39 -50 -67 -31 -19 -50 -38 -50 -50 0 -32 26 -31 59 3
18 17 35 29 38 26 15 -16 -25 -136 -69 -207 -45 -73 -50 -104 -11 -80 43 28
103 163 112 255 7 75 22 80 79 27 43 -39 43 -39 7 -75 -23 -23 -35 -44 -35
-63 0 -35 45 -130 65 -138 25 -9 30 22 8 47 -11 12 -25 36 -32 54 -15 36 -7
55 39 101 40 40 38 56 -10 83 -22 13 -40 27 -40 33 0 6 18 21 40 34 22 12 40
27 40 33 0 6 17 27 37 45 33 31 35 34 15 34 -16 0 -27 11 -39 35 -11 23 -25
36 -44 40 -28 6 -46 36 -34 55 3 5 24 13 46 16 22 4 50 15 62 25 33 28 7 41
-65 35 -35 -4 -58 -2 -58 4 0 33 -79 66 -95 41z m63 -143 c-2 -15 -11 -24 -25
-26 -27 -4 -29 5 -6 30 22 24 35 23 31 -4z m7 -68 c12 -20 -6 -50 -31 -50 -20
0 -24 5 -24 30 0 25 4 30 24 30 14 0 28 -5 31 -10z m73 -23 c2 -12 -3 -17 -17
-17 -15 0 -21 6 -21 21 0 25 33 22 38 -4z m2 -65 c0 -13 -23 -32 -37 -32 -11
0 -11 5 -3 20 10 19 40 28 40 12z m-92 -29 c-3 -30 -25 -42 -34 -19 -9 22 2
46 21 46 12 0 15 -8 13 -27z"/>
</g>
</svg>
