<svg version="1.0" xmlns="http://www.w3.org/2000/svg"
 width="66.000000pt" height="85.000000pt" viewBox="0 0 66.000000 85.000000"
 preserveAspectRatio="xMidYMid meet">
<metadata>
Created by potrace 1.15, written by Peter Selinger 2001-2017
</metadata>
<g transform="translate(0.000000,85.000000) scale(0.100000,-0.100000)"
fill="#000000" stroke="none">
<path d="M445 708 c-31 -19 -88 -18 -109 3 -16 15 -33 10 -39 -11 -3 -13 -14
-20 -30 -20 -32 0 -117 -36 -117 -50 0 -13 1 -13 43 5 45 19 110 20 105 3 -3
-7 -18 -17 -34 -22 -54 -16 -104 -39 -104 -48 0 -11 4 -10 61 8 50 17 84 13
77 -8 -2 -6 -39 -24 -81 -39 -83 -29 -127 -53 -127 -69 0 -15 9 -12 47 11 35
22 148 51 158 41 3 -3 5 -13 5 -23 0 -32 20 -31 31 0 10 29 14 31 60 31 51 0
95 17 119 45 19 23 3 31 -28 13 -37 -21 -84 -30 -116 -22 -40 10 -26 28 32 39
62 12 77 25 31 26 -44 1 -87 13 -74 21 6 3 26 8 46 12 35 6 99 59 82 69 -4 2
-21 -4 -38 -15z"/>
<path d="M480 482 c74 -51 82 -98 10 -57 -14 8 -34 14 -45 15 -17 0 -15 -5 13
-26 17 -14 32 -32 32 -40 0 -19 -54 -18 -70 1 -14 17 -40 20 -40 6 0 -21 59
-51 99 -51 41 0 41 0 41 -66 0 -77 24 -171 51 -198 25 -27 36 -12 20 27 -33
82 -43 238 -19 303 10 29 9 36 -7 54 -20 22 -77 50 -99 49 -6 0 0 -8 14 -17z"/>
<path d="M141 421 c-26 -25 -31 -36 -30 -73 2 -109 -14 -243 -32 -267 -19 -24
-26 -61 -11 -61 30 1 52 55 62 155 12 113 22 135 62 135 19 0 41 9 55 22 23
21 23 21 23 0 0 -11 4 -24 10 -27 6 -4 4 -17 -5 -35 -20 -39 -19 -47 11 -75
28 -26 25 -45 -7 -45 -22 0 -59 54 -59 88 0 12 -4 22 -10 22 -5 0 -10 -17 -10
-39 0 -50 30 -88 75 -97 48 -9 46 -34 -2 -34 -41 0 -72 -14 -59 -27 13 -13
233 -10 247 4 12 12 -6 17 -81 25 -14 2 -26 10 -28 21 -3 13 3 17 26 17 37 0
71 36 79 85 4 28 3 36 -5 31 -7 -4 -12 -14 -12 -22 0 -20 -54 -74 -74 -74 -22
0 -20 23 4 45 24 21 26 67 5 85 -22 18 -19 29 11 36 17 4 22 10 16 16 -7 7
-23 6 -46 -2 -32 -10 -39 -9 -67 10 -26 19 -35 21 -55 11 -14 -6 -27 -11 -29
-11 -11 0 -4 25 12 42 27 30 5 34 -26 4 -40 -38 -58 -25 -30 20 28 46 20 52
-20 15z m209 -181 c0 -16 -19 -30 -41 -30 -13 0 -11 44 3 58 15 15 38 -2 38
-28z"/>
</g>
</svg>
