<svg version="1.0" xmlns="http://www.w3.org/2000/svg"
 width="41.000000pt" height="45.000000pt" viewBox="0 0 41.000000 45.000000"
 preserveAspectRatio="xMidYMid meet">
<metadata>
Created by potrace 1.15, written by Peter Selinger 2001-2017
</metadata>
<g transform="translate(0.000000,45.000000) scale(0.100000,-0.100000)"
fill="#000000" stroke="none">
<path d="M122 338 c-8 -8 -12 -47 -12 -115 0 -102 0 -102 31 -119 20 -10 60
-17 105 -17 83 -2 104 9 87 45 -7 16 -7 44 0 89 8 52 7 72 -4 95 -14 29 -16
29 -104 32 -62 2 -94 -1 -103 -10z m87 -40 c13 -34 2 -58 -26 -58 -23 0 -24 3
-18 33 12 54 29 64 44 25z m91 -23 c0 -38 -3 -45 -20 -45 -17 0 -20 7 -20 39
0 29 5 41 18 44 9 3 18 5 20 6 1 0 2 -19 2 -44z m-90 -115 c0 -27 -3 -30 -30
-30 -27 0 -30 3 -30 30 0 27 3 30 30 30 27 0 30 -3 30 -30z m80 -5 c0 -20 -5
-25 -26 -25 -20 0 -25 4 -20 16 3 9 6 20 6 25 0 5 9 9 20 9 15 0 20 -7 20 -25z"/>
</g>
</svg>
