<svg version="1.0" xmlns="http://www.w3.org/2000/svg"
 width="41.000000pt" height="49.000000pt" viewBox="0 0 41.000000 49.000000"
 preserveAspectRatio="xMidYMid meet">
<metadata>
Created by potrace 1.15, written by Peter Selinger 2001-2017
</metadata>
<g transform="translate(0.000000,49.000000) scale(0.100000,-0.100000)"
fill="#000000" stroke="none">
<path d="M90 188 c0 -57 4 -108 8 -113 4 -6 19 -12 35 -13 15 -1 35 -2 45 -3
9 0 47 0 85 2 79 4 83 9 72 103 -7 74 -10 78 -58 105 -29 16 -55 21 -112 21
-75 0 -75 0 -75 -102z m64 66 c10 -4 16 -18 16 -35 0 -22 -5 -29 -20 -29 -16
0 -20 7 -20 35 0 38 0 38 24 29z m136 -34 c0 -22 -5 -30 -17 -29 -34 1 -56 15
-60 37 -2 20 2 22 37 22 38 0 40 -2 40 -30z m-9 -60 c5 0 9 -16 9 -35 0 -32
-3 -35 -29 -35 -42 0 -58 23 -36 56 10 16 22 23 32 20 8 -3 19 -6 24 -6z
m-111 -36 c0 -20 -4 -25 -16 -20 -9 3 -18 6 -20 6 -2 0 -4 9 -4 20 0 13 7 20
20 20 15 0 20 -7 20 -26z"/>
</g>
</svg>
