<svg version="1.0" xmlns="http://www.w3.org/2000/svg"
 width="35.000000pt" height="37.000000pt" viewBox="0 0 35.000000 37.000000"
 preserveAspectRatio="xMidYMid meet">
<metadata>
Created by potrace 1.15, written by Peter Selinger 2001-2017
</metadata>
<g transform="translate(0.000000,37.000000) scale(0.100000,-0.100000)"
fill="#000000" stroke="none">
<path d="M102 283 c-29 -4 -33 -8 -29 -26 3 -12 9 -62 12 -110 8 -89 8 -89 65
-82 37 4 66 3 79 -4 12 -7 21 -8 22 -4 0 4 2 28 5 53 2 25 4 52 5 60 1 8 1 34
1 56 -2 40 -3 42 -46 53 -45 11 -53 11 -114 4z m68 -63 c0 -25 -4 -30 -25 -30
-14 0 -28 7 -31 15 -10 25 4 45 31 45 21 0 25 -5 25 -30z m70 -1 c0 -26 -3
-30 -22 -27 -17 2 -24 11 -26 31 -3 23 0 27 22 27 22 0 26 -4 26 -31z m-7 -62
c3 -7 3 -26 0 -41 -7 -33 -36 -32 -41 2 -5 36 29 69 41 39z m-65 -34 c3 -31 1
-33 -27 -33 -27 0 -31 3 -31 28 0 35 8 44 35 40 15 -2 21 -12 23 -35z"/>
</g>
</svg>
