<svg version="1.0" xmlns="http://www.w3.org/2000/svg"
 width="31.000000pt" height="27.000000pt" viewBox="0 0 31.000000 27.000000"
 preserveAspectRatio="xMidYMid meet">
<metadata>
Created by potrace 1.15, written by Peter Selinger 2001-2017
</metadata>
<g transform="translate(0.000000,27.000000) scale(0.100000,-0.100000)"
fill="#000000" stroke="none">
<path d="M86 188 c-18 -26 -22 -138 -6 -169 11 -20 19 -20 107 4 42 11 42 11
50 81 12 93 2 106 -78 106 -48 0 -60 -4 -73 -22z m114 -38 c0 -11 -7 -20 -15
-20 -8 0 -15 9 -15 20 0 11 7 20 15 20 8 0 15 -9 15 -20z m0 -75 c0 -8 -4 -15
-9 -15 -13 0 -22 16 -14 24 11 11 23 6 23 -9z m-50 -10 c0 -8 -7 -15 -15 -15
-16 0 -20 12 -8 23 11 12 23 8 23 -8z"/>
</g>
</svg>
