<svg version="1.0" xmlns="http://www.w3.org/2000/svg"
 width="59.000000pt" height="79.000000pt" viewBox="0 0 59.000000 79.000000"
 preserveAspectRatio="xMidYMid meet">
<metadata>
Created by potrace 1.15, written by Peter Selinger 2001-2017
</metadata>
<g transform="translate(0.000000,79.000000) scale(0.100000,-0.100000)"
fill="#000000" stroke="none">
<path d="M283 643 c-9 -38 -9 -38 -88 -41 -100 -3 -112 -7 -94 -28 10 -13 30
-15 96 -12 70 2 83 1 83 -13 0 -23 -36 -52 -127 -99 -77 -41 -97 -60 -73 -75
11 -7 66 20 139 69 29 20 61 36 71 36 9 0 62 -25 117 -55 56 -30 106 -55 112
-55 7 0 11 11 9 27 -2 21 -10 29 -36 35 -28 8 -86 36 -145 72 -11 7 -17 20
-15 36 3 24 6 25 93 28 50 2 94 7 99 12 21 21 -9 30 -98 30 -92 0 -92 0 -101
32 -14 45 -31 45 -42 1z"/>
<path d="M380 541 c0 -14 59 -60 85 -67 27 -7 48 3 40 17 -6 8 -109 59 -120
59 -3 0 -5 -4 -5 -9z"/>
<path d="M128 514 c-49 -25 -64 -54 -28 -54 27 0 100 49 100 66 0 20 -18 17
-72 -12z"/>
<path d="M232 381 c-46 -12 -69 -36 -90 -95 -26 -69 -36 -250 -16 -267 27 -22
37 7 50 147 15 163 22 174 105 178 77 4 109 -3 109 -24 0 -12 -10 -21 -27 -25
-47 -11 -108 -51 -117 -77 -15 -43 1 -74 63 -121 86 -64 188 -87 179 -40 -2
10 -17 22 -33 26 -99 30 -184 89 -172 120 3 7 31 21 64 31 32 9 65 21 73 25
20 11 18 87 -3 108 -18 18 -133 27 -185 14z"/>
</g>
</svg>
