<svg version="1.0" xmlns="http://www.w3.org/2000/svg"
 width="101.000000pt" height="135.000000pt" viewBox="0 0 101.000000 135.000000"
 preserveAspectRatio="xMidYMid meet">
<metadata>
Created by potrace 1.15, written by Peter Selinger 2001-2017
</metadata>
<g transform="translate(0.000000,135.000000) scale(0.100000,-0.100000)"
fill="#000000" stroke="none">
<path d="M422 1238 c-6 -25 -4 -41 8 -63 45 -81 31 -170 -37 -233 -55 -50 -61
-51 -121 -30 -42 15 -57 16 -63 7 -18 -30 46 -69 113 -69 13 0 28 -4 34 -10 5
-5 43 -10 84 -12 74 -3 75 -3 72 -28 -2 -14 -8 -26 -13 -28 -5 -2 -9 -13 -9
-25 0 -20 -14 -69 -31 -112 -17 -42 -31 -122 -29 -171 1 -60 -5 -66 -83 -83
-45 -10 -57 -16 -55 -29 3 -14 16 -17 68 -17 62 0 65 -1 68 -25 2 -14 12 -55
23 -91 10 -36 19 -76 19 -89 0 -24 35 -80 51 -80 12 0 12 63 0 75 -5 6 -12 37
-15 70 -3 33 -10 80 -15 104 -11 55 -6 71 25 71 13 0 33 6 44 13 17 10 22 9
29 -2 7 -11 10 -9 15 7 4 12 19 23 35 27 16 3 39 17 51 30 19 21 22 31 16 72
-11 74 -34 150 -49 156 -7 2 -25 23 -41 45 -21 31 -26 46 -20 64 4 13 7 28 6
34 -1 7 21 17 50 24 29 7 65 19 80 26 15 8 38 14 53 14 20 0 25 5 25 26 0 23
-3 25 -22 19 -44 -14 -88 -17 -101 -7 -6 5 -34 22 -62 38 -97 53 -112 69 -118
127 -8 69 -24 143 -37 167 -16 30 -38 24 -48 -12z m68 -300 c0 31 120 -12 120
-45 0 -16 -73 -26 -136 -18 -52 6 -66 24 -21 26 16 1 17 3 5 6 -16 4 -16 6 0
23 12 15 18 16 24 7 6 -9 8 -9 8 1z m103 -280 c30 -31 57 -87 57 -118 0 -7
-10 -22 -23 -34 -29 -27 -118 -86 -129 -86 -4 0 -8 27 -8 61 0 33 4 58 9 55 5
-4 7 3 4 13 -7 27 29 141 45 141 7 0 27 -15 45 -32z"/>
<path d="M610 1115 c0 -9 8 -18 18 -21 9 -4 32 -13 50 -21 18 -8 52 -16 75
-19 23 -3 56 -8 72 -13 17 -4 46 -7 65 -7 30 1 35 5 38 27 3 29 12 26 -133 45
-27 3 -58 10 -67 15 -9 5 -39 9 -67 9 -39 0 -51 -4 -51 -15z"/>
<path d="M300 1101 c-8 -4 -46 -13 -85 -20 -97 -17 -145 -32 -145 -47 0 -24
76 -33 134 -14 17 5 52 12 78 15 26 3 57 14 70 24 19 16 20 21 9 35 -15 17
-37 20 -61 7z"/>
</g>
</svg>
