<svg version="1.0" xmlns="http://www.w3.org/2000/svg"
 width="71.000000pt" height="125.000000pt" viewBox="0 0 71.000000 125.000000"
 preserveAspectRatio="xMidYMid meet">
<metadata>
Created by potrace 1.15, written by Peter Selinger 2001-2017
</metadata>
<g transform="translate(0.000000,125.000000) scale(0.100000,-0.100000)"
fill="#000000" stroke="none">
<path d="M483 1084 c-17 -36 14 -96 67 -129 50 -31 90 -34 83 -5 -3 11 -9 20
-14 20 -5 0 -9 7 -9 16 0 9 -15 31 -32 51 -18 19 -41 43 -50 54 -24 25 -31 24
-45 -7z"/>
<path d="M330 1067 c0 -12 -9 -39 -20 -59 -18 -34 -18 -41 -6 -100 15 -68 22
-91 39 -126 9 -18 8 -25 -3 -33 -21 -13 -109 1 -145 23 -39 23 -90 25 -81 2 3
-9 6 -17 6 -19 0 -13 96 -65 120 -65 16 0 31 -4 34 -9 3 -5 15 -7 27 -4 12 3
25 0 29 -7 10 -17 2 -109 -15 -175 -7 -27 -16 -62 -19 -77 -5 -21 -18 -33 -55
-48 -48 -21 -71 -50 -71 -91 0 -35 30 -68 68 -76 21 -4 40 -8 45 -9 4 -1 27
-2 52 -3 44 -1 45 -2 39 -28 -4 -16 -12 -35 -20 -43 -7 -8 -16 -27 -19 -42
-17 -65 81 -11 116 65 21 45 22 51 8 75 -14 26 -18 27 -99 27 -47 1 -95 4
-107 9 -31 10 -29 46 3 71 28 21 39 25 141 48 63 15 77 23 106 67 15 23 15 31
2 78 -13 53 -25 73 -56 102 -10 9 -19 26 -20 39 -3 19 3 25 41 38 25 8 57 24
72 34 14 11 29 19 33 19 15 0 35 30 35 54 0 31 2 31 -47 7 -21 -11 -58 -27
-83 -36 -25 -10 -51 -20 -59 -23 -11 -4 -12 5 -6 49 12 83 7 125 -20 185 -14
30 -25 63 -25 73 0 10 -7 22 -16 25 -23 9 -24 8 -24 -17z m95 -517 c14 -22 25
-53 25 -69 0 -35 -33 -71 -66 -71 -20 0 -22 4 -18 38 6 48 26 142 30 142 2 0
15 -18 29 -40z"/>
<path d="M416 493 c-11 -11 -6 -23 9 -23 8 0 15 4 15 9 0 13 -16 22 -24 14z"/>
<path d="M159 1053 c-8 -14 -26 -39 -41 -56 -35 -37 -38 -71 -5 -62 12 4 43
21 69 38 36 24 48 38 48 58 0 51 -47 67 -71 22z"/>
</g>
</svg>
