<svg version="1.0" xmlns="http://www.w3.org/2000/svg"
 width="71.000000pt" height="89.000000pt" viewBox="0 0 71.000000 89.000000"
 preserveAspectRatio="xMidYMid meet">
<metadata>
Created by potrace 1.15, written by Peter Selinger 2001-2017
</metadata>
<g transform="translate(0.000000,89.000000) scale(0.100000,-0.100000)"
fill="#000000" stroke="none">
<path d="M434 718 c-4 -6 -10 -25 -13 -41 -4 -17 -13 -33 -21 -37 -86 -41 -90
-44 -100 -79 -5 -20 -10 -90 -11 -156 -2 -139 -22 -272 -50 -326 -18 -36 -15
-55 8 -41 27 18 54 97 65 194 6 57 13 105 14 107 2 2 10 -2 19 -9 22 -18 28
-7 14 23 -6 14 -9 33 -5 42 5 15 9 15 36 -2 38 -22 35 -39 -21 -131 -30 -51
-39 -76 -39 -111 0 -25 5 -53 10 -61 16 -24 31 8 24 51 -5 36 15 86 56 134 22
26 40 100 40 164 0 84 -48 106 -107 49 -33 -32 -33 -32 -33 1 0 18 5 41 10 52
30 54 180 80 232 40 31 -25 48 -110 48 -242 1 -97 17 -189 41 -227 29 -46 38
-20 16 44 -8 23 -17 109 -20 212 -8 220 -20 248 -115 273 -24 7 -45 17 -47 23
-2 6 -6 23 -9 39 -7 28 -29 36 -42 15z m-4 -280 c0 -41 0 -41 -25 -18 -29 28
-32 45 -8 59 26 14 33 5 33 -41z"/>
<path d="M191 635 c-18 -21 -33 -52 -37 -75 -4 -22 -11 -43 -16 -46 -5 -4 -24
8 -42 25 -29 28 -56 40 -56 25 0 -3 20 -29 45 -57 34 -39 45 -60 45 -84 0 -43
-12 -42 -54 4 -19 21 -38 35 -41 31 -8 -8 27 -62 62 -97 24 -23 24 -26 20
-150 -3 -69 -7 -137 -9 -150 -1 -13 2 -26 9 -28 20 -7 45 96 49 207 3 95 6
106 26 120 45 31 63 49 55 56 -4 4 -21 0 -36 -9 -38 -22 -39 -22 -37 11 1 17
18 49 45 81 49 58 49 78 0 37 -17 -15 -34 -25 -36 -22 -10 10 20 77 48 107 16
17 29 35 29 40 0 22 -41 6 -69 -26z"/>
<path d="M460 526 c0 -8 6 -16 13 -19 8 -3 18 -37 25 -81 12 -75 11 -78 -14
-115 -33 -50 -26 -74 38 -148 55 -63 72 -77 90 -71 7 3 -6 24 -28 49 -93 102
-104 135 -58 165 71 47 80 189 15 224 -29 15 -81 13 -81 -4z m95 -106 c-12
-63 -25 -57 -25 11 1 59 2 63 16 44 10 -14 13 -31 9 -55z"/>
</g>
</svg>
