<svg version="1.0" xmlns="http://www.w3.org/2000/svg"
 width="49.000000pt" height="107.000000pt" viewBox="0 0 49.000000 107.000000"
 preserveAspectRatio="xMidYMid meet">
<metadata>
Created by potrace 1.15, written by Peter Selinger 2001-2017
</metadata>
<g transform="translate(0.000000,107.000000) scale(0.100000,-0.100000)"
fill="#000000" stroke="none">
<path d="M166 806 c-4 -19 -22 -54 -41 -79 -44 -58 -48 -95 -5 -46 33 38 70
107 70 132 0 31 -18 26 -24 -7z"/>
<path d="M210 811 c0 -7 7 -25 14 -40 16 -30 11 -70 -8 -72 -6 -1 -19 -2 -28
-3 -28 -2 -26 -21 2 -24 49 -6 51 -9 33 -47 -10 -20 -24 -35 -34 -35 -29 0
-30 -16 -3 -30 14 -8 22 -19 19 -28 -3 -7 -8 -31 -11 -53 -6 -33 -4 -38 9 -33
10 3 18 -2 22 -15 13 -43 26 -20 19 36 -5 52 -4 56 11 43 11 -9 15 -25 13 -48
-3 -30 0 -35 20 -37 17 -1 22 4 22 21 0 13 -4 26 -10 29 -13 8 -13 68 1 82 8
8 8 13 0 17 -6 4 -11 23 -11 42 0 33 1 34 40 34 22 0 40 5 40 10 0 6 -11 10
-25 10 -24 0 -25 2 -19 43 3 23 15 50 26 60 20 17 20 17 -1 17 -12 0 -21 6
-21 15 0 8 -4 15 -10 15 -5 0 -10 -13 -10 -30 0 -18 -7 -33 -19 -39 -24 -13
-31 -5 -24 30 4 22 2 29 -10 29 -8 0 -22 3 -31 6 -9 3 -16 1 -16 -5z m60 -209
c0 -13 -12 -22 -22 -16 -10 6 -1 24 13 24 5 0 9 -4 9 -8z"/>
<path d="M122 638 c-7 -7 -12 -19 -12 -28 0 -9 -4 -20 -9 -25 -5 -6 -12 -20
-16 -32 -5 -17 -2 -23 9 -23 13 0 16 -15 16 -90 0 -94 13 -121 24 -47 7 55 11
245 5 252 -3 2 -11 -1 -17 -7z"/>
<path d="M237 324 c-4 -4 -7 -31 -7 -60 0 -59 -17 -75 -46 -43 -9 10 -21 19
-26 19 -12 0 -10 -19 4 -35 7 -7 24 -32 38 -54 32 -55 50 -53 50 4 0 32 5 47
15 51 21 8 67 89 63 110 -2 13 -11 5 -33 -27 -30 -44 -30 -44 -33 -9 -4 37
-14 55 -25 44z"/>
</g>
</svg>
