<svg version="1.0" xmlns="http://www.w3.org/2000/svg"
 width="55.000000pt" height="113.000000pt" viewBox="0 0 55.000000 113.000000"
 preserveAspectRatio="xMidYMid meet">
<metadata>
Created by potrace 1.15, written by Peter Selinger 2001-2017
</metadata>
<g transform="translate(0.000000,113.000000) scale(0.100000,-0.100000)"
fill="#000000" stroke="none">
<path d="M314 815 c-31 -46 -36 -61 -32 -93 6 -39 -9 -72 -31 -72 -18 0 -41
26 -41 46 0 40 -25 96 -56 124 -52 47 -70 36 -39 -24 20 -37 19 -38 -10 -24
-39 18 -40 4 -4 -49 30 -44 33 -53 31 -113 -3 -66 -3 -66 37 -98 49 -39 51
-59 12 -99 -34 -36 -48 -87 -31 -108 10 -12 4 -24 -29 -66 -22 -28 -38 -55
-35 -60 9 -15 34 -10 57 12 22 20 22 20 25 -6 2 -15 -4 -45 -13 -67 -21 -53
-10 -61 24 -20 32 38 51 93 51 149 0 46 28 81 48 61 7 -7 12 -24 12 -40 0 -60
52 -218 72 -218 11 0 10 51 -3 88 -6 17 -9 44 -7 61 3 31 3 31 32 6 39 -34 52
-20 37 39 -6 25 -11 72 -11 105 0 61 0 61 30 61 17 0 30 3 30 6 0 12 -51 54
-66 54 -7 0 -14 5 -14 10 0 6 -10 10 -21 10 -20 0 -21 -4 -15 -50 8 -58 -6
-66 -32 -20 -9 16 -20 30 -24 30 -17 0 -6 39 23 85 26 41 30 56 26 92 -4 37
-1 47 24 73 48 50 34 81 -18 40 -36 -28 -40 -18 -15 33 51 102 35 131 -24 42z
m-12 -191 c8 -7 -40 -104 -52 -104 -11 0 -80 59 -80 69 0 3 4 13 10 21 8 12
14 12 45 -3 45 -21 45 -21 45 3 0 19 19 27 32 14z m-32 -228 c0 -8 -9 -17 -19
-21 -10 -3 -21 -15 -24 -25 -6 -23 -37 -27 -37 -5 0 21 41 64 63 64 9 1 17 -5
17 -13z m40 -36 c0 -5 -4 -10 -10 -10 -5 0 -10 5 -10 10 0 6 5 10 10 10 6 0
10 -4 10 -10z m80 -114 c0 -6 -9 0 -21 13 -15 16 -19 29 -14 49 7 27 7 26 21
-13 7 -22 14 -44 14 -49z"/>
<path d="M381 667 c-14 -35 -14 -64 -1 -72 6 -3 10 -14 10 -23 1 -21 76 -110
85 -100 3 3 -3 24 -14 47 -12 23 -24 60 -27 84 -4 24 -14 54 -24 68 -19 24
-19 24 -29 -4z"/>
</g>
</svg>
