<svg version="1.0" xmlns="http://www.w3.org/2000/svg"
 width="67.000000pt" height="123.000000pt" viewBox="0 0 67.000000 123.000000"
 preserveAspectRatio="xMidYMid meet">
<metadata>
Created by potrace 1.15, written by Peter Selinger 2001-2017
</metadata>
<g transform="translate(0.000000,123.000000) scale(0.100000,-0.100000)"
fill="#000000" stroke="none">
<path d="M575 1200 c-3 -5 -14 -10 -24 -10 -32 0 -59 -42 -73 -113 -14 -75
-10 -72 -110 -82 -57 -6 -57 -6 -79 40 -12 25 -24 45 -28 45 -3 0 -18 11 -32
24 -31 29 -103 47 -94 24 3 -7 23 -24 44 -37 22 -14 46 -40 55 -59 9 -19 16
-35 14 -36 -17 -9 -79 -26 -96 -26 -12 0 -22 -4 -22 -10 0 -12 43 -24 87 -24
19 0 35 -6 38 -14 9 -24 -5 -52 -26 -52 -26 0 -99 -23 -99 -32 0 -10 56 -20
92 -16 31 3 34 0 44 -37 17 -65 23 -73 75 -96 27 -13 49 -27 49 -32 0 -5 -16
-23 -36 -40 -48 -43 -66 -88 -69 -177 -1 -41 -5 -82 -9 -91 -4 -10 -3 -20 3
-24 6 -3 11 -17 11 -30 0 -38 28 -39 47 -1 9 19 28 40 42 48 14 7 32 19 39 26
18 16 25 15 52 -8 13 -11 34 -23 47 -26 13 -4 26 -16 29 -30 7 -26 31 -50 41
-40 11 10 5 159 -7 190 -5 15 -10 45 -10 66 0 32 -7 46 -35 75 -21 20 -46 35
-59 35 -40 0 -40 28 -1 47 39 19 69 70 69 123 1 34 2 35 54 43 40 7 52 13 52
27 0 18 -35 30 -91 30 -26 0 -29 4 -29 30 0 28 3 30 36 30 45 0 75 16 68 35
-4 10 -21 15 -55 15 -49 0 -49 0 -49 39 0 40 7 51 53 86 15 11 27 27 27 36 0
22 -26 44 -35 29z m-199 -275 c8 -32 1 -39 -37 -41 -25 -1 -29 2 -29 26 0 45
55 57 66 15z m99 15 c11 -18 -6 -50 -26 -50 -14 0 -19 7 -19 30 0 23 5 30 19
30 11 0 23 -5 26 -10z m15 -127 c-1 -31 -19 -60 -40 -65 -9 -2 -14 10 -16 39
-3 33 0 43 14 46 36 10 42 7 42 -20z m-107 -30 c0 -24 -3 -43 -6 -43 -4 0 -11
0 -16 0 -19 0 -41 32 -41 61 0 28 2 30 32 27 30 -3 31 -5 31 -45z m115 -230
c21 -21 3 -30 -76 -39 -68 -7 -82 -2 -66 24 27 42 106 51 142 15z m35 -125 c3
-24 3 -45 1 -48 -13 -12 -59 28 -65 58 -6 31 -5 32 26 32 31 0 33 -2 38 -42z
m-133 3 c0 -11 -13 -29 -29 -40 -25 -18 -30 -19 -35 -5 -10 26 -7 32 22 47 37
20 42 20 42 -2z"/>
<path d="M165 764 c-103 -71 -127 -127 -41 -94 29 11 86 67 86 85 0 20 -24 24
-45 9z"/>
<path d="M180 612 c-14 -17 -55 -46 -94 -67 -10 -5 -19 -14 -20 -20 -1 -14 44
-19 57 -6 21 21 29 11 23 -26 -14 -86 -18 -143 -10 -143 11 0 54 62 54 78 0
11 21 62 52 128 5 12 8 32 6 45 -4 30 -46 37 -68 11z"/>
<path d="M430 245 c0 -19 5 -35 10 -35 6 0 10 -15 10 -34 0 -19 5 -38 10 -41
10 -6 14 -45 4 -45 -8 0 -48 22 -54 29 -8 10 -74 40 -78 36 -8 -7 37 -70 60
-85 62 -39 177 -53 227 -27 38 19 30 32 -26 37 -59 6 -59 6 -68 40 -4 19 0 33
19 55 28 33 38 62 25 71 -6 3 -18 -4 -28 -15 -25 -28 -45 -26 -62 7 -27 52
-49 56 -49 7z"/>
</g>
</svg>
