<svg version="1.0" xmlns="http://www.w3.org/2000/svg"
 width="57.000000pt" height="121.000000pt" viewBox="0 0 57.000000 121.000000"
 preserveAspectRatio="xMidYMid meet">
<metadata>
Created by potrace 1.15, written by Peter Selinger 2001-2017
</metadata>
<g transform="translate(0.000000,121.000000) scale(0.100000,-0.100000)"
fill="#000000" stroke="none">
<path d="M110 1059 c0 -11 7 -27 15 -35 26 -26 16 -36 -14 -15 -29 21 -61 28
-61 14 0 -5 27 -32 59 -61 55 -50 59 -56 54 -91 -4 -30 0 -43 21 -68 14 -17
26 -35 26 -40 0 -6 -16 -24 -35 -41 -39 -36 -52 -71 -36 -100 24 -45 14 -78
-40 -125 -60 -52 -52 -69 12 -26 24 16 48 29 53 29 17 0 -4 -113 -24 -132 -10
-10 -22 -39 -26 -65 -6 -43 -5 -48 22 -70 16 -12 34 -23 40 -23 6 0 19 -9 28
-19 15 -16 17 -30 11 -79 -5 -48 -4 -61 10 -72 21 -17 31 -4 40 53 6 32 11 37
28 35 19 -3 21 1 19 24 -2 17 5 40 17 57 21 29 28 61 14 61 -5 0 -18 -16 -31
-35 -12 -19 -27 -35 -32 -35 -15 0 -13 127 3 133 6 3 -1 4 -18 3 -26 -1 -30
-6 -38 -44 -12 -63 -49 -53 -59 17 -4 25 1 39 19 59 23 25 29 64 24 167 -2 29
4 46 19 63 11 12 24 22 28 22 18 0 40 -60 47 -124 4 -38 12 -81 17 -95 40
-101 53 -95 45 19 -6 92 -1 105 29 75 17 -16 62 -31 70 -22 3 3 -20 29 -50 59
-54 52 -55 55 -46 89 16 56 12 68 -36 117 -46 45 -46 45 -25 85 12 21 21 53
21 70 0 24 11 42 40 71 60 59 54 75 -12 30 -43 -30 -58 -28 -28 4 20 22 27 62
11 62 -5 0 -23 -17 -40 -37 -23 -27 -31 -48 -31 -75 0 -21 -4 -38 -8 -38 -15
0 -52 40 -52 56 0 28 -69 114 -92 114 -4 0 -8 -9 -8 -21z m135 -181 c29 -13
32 -32 9 -55 -14 -15 -18 -14 -40 9 -16 15 -22 30 -18 41 7 20 15 21 49 5z
m45 -175 c42 -28 51 -50 25 -59 -9 -4 -24 4 -37 21 -21 27 -21 27 -48 -4 -33
-37 -40 -39 -40 -7 0 15 11 32 28 45 33 25 41 25 72 4z"/>
</g>
</svg>
