<svg version="1.0" xmlns="http://www.w3.org/2000/svg"
 width="68.000000pt" height="87.000000pt" viewBox="0 0 68.000000 87.000000"
 preserveAspectRatio="xMidYMid meet">
<metadata>
Created by potrace 1.15, written by Peter Selinger 2001-2017
</metadata>
<g transform="translate(0.000000,87.000000) scale(0.100000,-0.100000)"
fill="#000000" stroke="none">
<path d="M136 660 c-60 -11 -77 -40 -74 -119 3 -58 5 -66 23 -66 17 0 21 8 25
60 6 67 23 81 55 45 17 -19 17 -21 2 -38 -18 -19 -23 -42 -9 -42 4 0 20 7 36
15 27 14 30 14 53 -11 23 -25 26 -25 41 -11 15 15 14 19 -6 46 -20 28 -20 30
-3 45 10 9 24 16 33 16 20 0 43 -49 28 -64 -16 -16 -12 -36 8 -36 10 0 23 5
30 12 9 9 19 6 41 -16 49 -47 83 -16 42 36 -23 29 -18 68 10 68 24 0 32 -16
39 -70 4 -32 10 -46 22 -48 40 -8 47 118 9 152 -33 30 -298 47 -405 26z m98
-65 c-4 -8 -10 -15 -14 -15 -4 0 -10 7 -14 15 -4 10 1 15 14 15 13 0 18 -5 14
-15z m166 5 c0 -5 -4 -10 -9 -10 -6 0 -13 5 -16 10 -3 6 1 10 9 10 9 0 16 -4
16 -10z"/>
<path d="M157 463 c-4 -3 -7 -15 -7 -25 0 -11 -13 -23 -34 -32 -39 -16 -56
-42 -56 -84 0 -31 33 -62 65 -62 12 0 15 -15 15 -84 0 -97 5 -116 31 -116 17
0 19 8 19 94 0 94 0 94 31 106 70 29 76 105 12 142 -19 12 -39 32 -44 44 -9
24 -20 30 -32 17z m-7 -128 c0 -49 -1 -50 -31 -35 -23 13 -24 37 -2 62 25 28
33 22 33 -27z m68 33 c15 -15 15 -51 0 -66 -21 -21 -28 -13 -28 33 0 46 7 54
28 33z"/>
<path d="M426 460 c-50 -5 -84 -13 -94 -24 -18 -17 -29 -136 -18 -181 10 -41
58 -58 148 -53 78 5 78 5 78 -84 0 -80 2 -88 19 -88 23 0 28 13 37 107 6 68 5
73 -19 97 -18 18 -37 26 -62 26 -24 0 -35 4 -35 15 0 11 12 15 48 15 53 0 63
5 55 26 -3 9 -21 14 -54 14 -27 0 -49 5 -49 10 0 6 19 10 43 10 23 0 48 4 56
9 25 16 1 31 -50 31 -43 0 -50 3 -47 18 2 13 16 18 53 22 37 4 51 9 53 23 4
19 -19 20 -162 7z m4 -55 c0 -11 -11 -15 -36 -15 -31 0 -35 2 -24 15 7 8 23
15 36 15 15 0 24 -6 24 -15z m-2 -67 c-7 -20 -68 -23 -68 -4 0 12 10 16 36 16
24 0 34 -4 32 -12z m12 -67 c0 -9 -34 -21 -62 -21 -10 0 -18 7 -18 15 0 11 11
15 40 15 22 0 40 -4 40 -9z"/>
<path d="M358 165 c-14 -31 0 -80 22 -80 17 0 25 44 16 81 -8 31 -23 30 -38
-1z"/>
<path d="M483 169 c4 -13 7 -41 7 -61 0 -28 4 -38 15 -38 13 0 15 11 13 57 -2
47 -6 58 -22 61 -15 3 -18 0 -13 -19z"/>
<path d="M287 174 c-11 -12 -8 -102 4 -110 18 -10 27 8 31 61 2 39 0 50 -12
53 -9 1 -19 0 -23 -4z"/>
<path d="M426 164 c-10 -25 -7 -49 8 -70 23 -30 40 -5 31 45 -7 42 -28 55 -39
25z"/>
</g>
</svg>
