<svg version="1.0" xmlns="http://www.w3.org/2000/svg"
 width="53.000000pt" height="99.000000pt" viewBox="0 0 53.000000 99.000000"
 preserveAspectRatio="xMidYMid meet">
<metadata>
Created by potrace 1.15, written by Peter Selinger 2001-2017
</metadata>
<g transform="translate(0.000000,99.000000) scale(0.100000,-0.100000)"
fill="#000000" stroke="none">
<path d="M235 910 c-3 -11 -10 -20 -14 -20 -5 0 -14 -13 -21 -30 -7 -16 -16
-30 -20 -30 -4 0 -13 -15 -20 -32 -7 -18 -21 -54 -31 -80 -13 -31 -20 -77 -22
-132 -2 -83 -1 -85 28 -110 17 -14 44 -29 62 -32 29 -5 50 -35 38 -54 -2 -4
-36 -10 -74 -13 -108 -9 -105 -3 -108 -161 -3 -117 -1 -139 13 -153 15 -16 17
-16 30 2 9 11 14 44 14 83 0 85 16 137 47 151 34 16 70 14 77 -5 9 -24 7 -36
-6 -28 -6 4 -4 -3 5 -17 12 -17 17 -45 17 -99 0 -90 8 -108 39 -89 19 12 21
24 22 109 1 52 2 104 3 115 1 15 9 21 33 23 27 3 35 -2 57 -35 23 -33 26 -48
26 -128 0 -97 7 -119 36 -113 21 4 22 30 9 220 -8 109 -11 112 -104 122 -24 3
-48 9 -54 15 -12 12 6 44 38 65 14 9 37 35 52 59 26 41 26 43 14 114 -13 77
-31 117 -101 230 -46 73 -73 90 -85 53z m75 -179 c0 -11 5 -23 10 -26 18 -11
11 -27 -9 -20 -11 3 -22 2 -24 -2 -3 -5 -26 -7 -51 -5 -42 4 -46 6 -40 25 4
11 20 43 36 70 30 48 30 48 54 13 13 -19 24 -44 24 -55z m40 -155 c0 -48 -8
-57 -61 -73 -57 -16 -95 11 -105 76 -7 41 -7 41 80 41 86 0 86 0 86 -44z"/>
</g>
</svg>
