<svg version="1.0" xmlns="http://www.w3.org/2000/svg"
 width="71.000000pt" height="87.000000pt" viewBox="0 0 71.000000 87.000000"
 preserveAspectRatio="xMidYMid meet">
<metadata>
Created by potrace 1.15, written by Peter Selinger 2001-2017
</metadata>
<g transform="translate(0.000000,87.000000) scale(0.100000,-0.100000)"
fill="#000000" stroke="none">
<path d="M321 709 c-21 -8 -23 -14 -18 -48 5 -40 -3 -51 -39 -51 -19 0 -18 49
1 56 21 9 19 21 -6 27 -37 10 -49 -2 -49 -49 0 -37 -3 -44 -20 -44 -21 0 -29
33 -10 45 21 13 9 25 -26 25 -36 0 -36 -1 -30 -33 3 -19 7 -68 7 -110 1 -46 6
-83 14 -94 19 -25 23 -17 28 62 6 83 4 75 20 75 24 0 57 -68 57 -119 0 -27 7
-65 16 -86 11 -28 14 -54 9 -100 -8 -67 8 -135 32 -135 9 0 11 14 7 53 -5 52
-5 52 18 26 13 -15 31 -36 40 -48 19 -23 38 -28 38 -10 0 13 -34 63 -67 99
-13 14 -23 30 -23 35 0 22 26 44 55 45 49 3 55 1 55 -19 0 -11 5 -23 10 -26 6
-3 10 -16 11 -28 1 -27 30 -79 48 -85 11 -4 13 3 8 27 -6 26 -4 31 13 31 27 0
25 9 -14 54 -19 21 -36 50 -39 65 -3 14 -8 36 -12 48 -6 18 -2 23 18 28 35 9
43 3 77 -65 16 -32 34 -62 40 -65 18 -11 24 3 12 28 -6 12 -18 44 -28 70 -19
52 -48 75 -99 75 -155 0 -174 2 -169 17 8 19 94 105 106 105 5 0 8 6 5 13 -2
7 -20 12 -41 11 -29 -1 -36 2 -32 13 3 8 6 26 6 39 0 15 6 24 16 24 19 0 13
24 -7 27 -8 1 -25 -2 -38 -8z m-41 -149 c0 -5 -7 -10 -15 -10 -8 0 -15 5 -15
10 0 6 7 10 15 10 8 0 15 -4 15 -10z m116 -150 c14 0 21 -30 7 -31 -5 0 -28
-2 -52 -5 -41 -4 -60 5 -61 28 0 8 58 16 78 11 8 -1 20 -3 28 -3z"/>
</g>
</svg>
