<svg version="1.0" xmlns="http://www.w3.org/2000/svg"
 width="67.000000pt" height="90.000000pt" viewBox="0 0 67.000000 90.000000"
 preserveAspectRatio="xMidYMid meet">
<metadata>
Created by potrace 1.15, written by Peter Selinger 2001-2017
</metadata>
<g transform="translate(0.000000,90.000000) scale(0.100000,-0.100000)"
fill="#000000" stroke="none">
<path d="M405 740 c-3 -6 10 -30 30 -54 30 -37 34 -47 25 -63 -11 -16 -59 -58
-115 -97 -15 -11 -17 -18 -9 -26 16 -16 82 19 140 75 46 45 66 53 93 36 12 -8
8 -16 -18 -46 -56 -64 -59 -80 -24 -118 38 -40 56 -74 49 -93 -8 -22 -19 -17
-70 31 -27 25 -54 45 -61 45 -7 0 -18 7 -25 15 -14 17 -56 20 -65 6 -3 -5 30
-36 72 -68 82 -61 102 -96 64 -108 -26 -8 -57 2 -93 28 -15 11 -34 17 -43 14
-14 -6 -14 -9 1 -32 15 -23 88 -65 112 -65 5 0 23 7 38 15 27 14 30 14 45 -4
9 -12 21 -57 27 -107 12 -89 21 -112 41 -100 24 15 6 195 -25 243 -12 18 -12
23 0 30 19 12 36 48 36 78 0 14 -15 46 -35 71 -29 39 -32 49 -22 65 6 10 15
19 19 19 3 0 16 16 28 35 30 49 20 72 -48 103 -32 14 -73 38 -92 54 -35 29
-64 36 -75 18z"/>
<path d="M167 712 c-3 -15 -22 -45 -41 -66 -20 -20 -36 -44 -36 -52 0 -33 30
-85 55 -94 34 -13 32 -24 -9 -49 -38 -24 -46 -38 -46 -84 0 -42 8 -52 52 -70
21 -9 38 -23 38 -32 0 -8 -21 -28 -47 -43 -71 -41 -107 -76 -100 -95 10 -25
20 -21 78 28 29 25 56 45 61 45 4 0 8 -28 8 -62 0 -70 13 -104 30 -78 5 8 10
36 10 61 0 25 3 48 6 52 3 3 24 -1 46 -9 79 -27 80 -8 3 41 -43 28 -55 41 -55
61 0 18 8 27 27 35 48 18 63 39 63 85 0 34 -5 47 -26 63 -15 12 -35 21 -45 21
-32 0 -21 25 17 39 23 8 40 24 51 46 15 31 15 35 -3 67 -12 20 -32 37 -52 43
-23 6 -32 15 -32 30 0 46 -44 61 -53 17z m71 -98 c15 -10 22 -24 20 -37 -3
-19 -10 -22 -48 -22 -38 0 -45 3 -48 22 -2 13 5 27 20 37 28 20 28 20 56 0z
m22 -209 c10 -12 10 -21 2 -40 -9 -20 -19 -25 -47 -25 -43 0 -75 15 -75 35 0
37 94 61 120 30z"/>
</g>
</svg>
