<svg version="1.0" xmlns="http://www.w3.org/2000/svg"
 width="79.000000pt" height="93.000000pt" viewBox="0 0 79.000000 93.000000"
 preserveAspectRatio="xMidYMid meet">
<metadata>
Created by potrace 1.15, written by Peter Selinger 2001-2017
</metadata>
<g transform="translate(0.000000,93.000000) scale(0.100000,-0.100000)"
fill="#000000" stroke="none">
<path d="M215 809 c-70 -34 -132 -111 -152 -188 -10 -40 -8 -51 10 -91 33 -73
63 -100 114 -100 43 0 43 0 43 -54 0 -30 3 -62 7 -72 4 -11 2 -15 -4 -11 -6 4
-8 -3 -5 -18 2 -14 7 -25 11 -25 4 0 13 -22 20 -49 7 -27 21 -57 32 -67 10 -9
19 -25 19 -35 0 -25 64 -53 114 -51 32 1 47 8 71 34 41 43 55 103 55 227 0 60
4 102 10 102 44 6 125 43 147 68 12 14 25 45 29 68 8 56 -31 141 -84 181 -20
15 -39 29 -42 32 -31 31 -160 44 -160 16 0 -17 80 -66 108 -66 29 0 92 -61
106 -105 18 -51 8 -75 -40 -101 -63 -35 -89 -37 -103 -11 -7 13 -23 24 -37 25
-26 2 -26 2 -17 -101 11 -139 7 -257 -9 -273 -12 -12 -43 -18 -80 -15 -10 1
-27 24 -44 59 -25 53 -27 66 -28 197 -1 122 -4 140 -18 143 -9 2 -27 -3 -40
-12 -23 -14 -66 -15 -88 -1 -6 4 -20 20 -29 37 -16 25 -17 34 -6 65 18 52 103
123 148 123 13 0 47 30 47 42 0 12 -39 48 -51 48 -8 -1 -32 -10 -54 -21z"/>
<path d="M236 631 c-3 -5 1 -12 10 -15 22 -8 25 -4 9 11 -8 7 -16 9 -19 4z"/>
</g>
</svg>
