<svg version="1.0" xmlns="http://www.w3.org/2000/svg"
 width="49.000000pt" height="67.000000pt" viewBox="0 0 49.000000 67.000000"
 preserveAspectRatio="xMidYMid meet">
<metadata>
Created by potrace 1.15, written by Peter Selinger 2001-2017
</metadata>
<g transform="translate(0.000000,67.000000) scale(0.100000,-0.100000)"
fill="#000000" stroke="none">
<path d="M86 598 c-3 -13 -7 -58 -10 -101 -6 -84 -1 -104 42 -150 18 -19 23
-30 16 -37 -8 -8 -15 -6 -24 5 -13 16 -50 21 -50 7 0 -5 17 -27 39 -48 36 -37
38 -43 43 -117 5 -71 11 -97 22 -86 3 2 9 42 15 87 7 54 18 93 31 112 11 15
20 35 20 44 0 19 -21 21 -38 4 -20 -20 -15 26 6 49 23 26 56 39 48 18 -3 -8
-1 -15 5 -15 15 0 34 21 53 58 9 18 19 32 21 32 3 0 5 -18 5 -39 0 -32 -3 -38
-17 -35 -13 4 -24 -7 -41 -38 -30 -59 -29 -75 4 -53 25 16 25 16 -1 -31 -14
-26 -24 -53 -20 -62 3 -8 -6 -29 -20 -48 -14 -18 -25 -40 -25 -49 0 -13 8 -10
36 13 40 33 64 73 64 107 0 12 7 29 17 36 15 13 16 10 10 -35 -4 -27 -16 -65
-27 -83 -11 -19 -20 -36 -20 -39 0 -12 23 -1 48 24 38 36 59 122 43 177 -13
49 -14 128 -2 169 28 91 33 116 28 130 -13 32 -41 -1 -62 -71 -3 -13 -12 -23
-19 -23 -8 0 -19 -13 -26 -29 -24 -58 -38 -45 -47 42 -6 62 -12 82 -23 82 -12
0 -16 -18 -18 -87 -2 -61 -7 -90 -17 -98 -13 -11 -15 -6 -15 31 0 45 -13 79
-26 66 -4 -4 -9 -32 -12 -62 -6 -75 -22 -59 -22 23 0 80 -9 142 -21 142 -5 0
-11 -10 -13 -22z"/>
</g>
</svg>
