<svg version="1.0" xmlns="http://www.w3.org/2000/svg"
 width="51.000000pt" height="97.000000pt" viewBox="0 0 51.000000 97.000000"
 preserveAspectRatio="xMidYMid meet">
<metadata>
Created by potrace 1.15, written by Peter Selinger 2001-2017
</metadata>
<g transform="translate(0.000000,97.000000) scale(0.100000,-0.100000)"
fill="#000000" stroke="none">
<path d="M252 661 c5 -144 -2 -202 -17 -150 -3 13 -17 47 -30 74 -12 28 -30
66 -39 85 -9 19 -27 49 -41 65 -26 30 -26 30 -19 -30 3 -33 10 -64 15 -69 15
-16 10 -35 -16 -74 -31 -46 -18 -65 24 -34 33 24 41 20 41 -19 0 -23 -6 -30
-27 -35 -56 -13 -72 -44 -23 -44 34 0 39 -19 18 -77 -13 -34 -1 -102 27 -161
7 -15 21 -44 30 -64 17 -37 44 -55 30 -20 -4 9 -16 53 -27 97 -21 86 -19 131
9 190 21 43 50 46 83 8 20 -23 24 -42 30 -132 7 -102 25 -181 42 -181 11 0 11
5 8 149 -2 100 -6 130 -21 158 -25 45 -24 53 9 53 54 0 56 17 3 30 -51 12 -51
12 -51 51 0 21 5 39 10 39 6 0 10 -4 10 -9 0 -16 64 -41 75 -30 7 7 -7 26 -42
57 -48 44 -51 51 -58 107 -8 75 -23 115 -42 115 -13 0 -15 -21 -11 -149z"/>
</g>
</svg>
