<svg version="1.0" xmlns="http://www.w3.org/2000/svg"
 width="89.000000pt" height="53.000000pt" viewBox="0 0 89.000000 53.000000"
 preserveAspectRatio="xMidYMid meet">
<metadata>
Created by potrace 1.15, written by Peter Selinger 2001-2017
</metadata>
<g transform="translate(0.000000,53.000000) scale(0.100000,-0.100000)"
fill="#000000" stroke="none">
<path d="M73 358 c-31 -8 -43 -16 -43 -29 0 -12 7 -19 20 -19 11 0 20 -4 20
-9 0 -18 199 -36 542 -47 171 -5 179 -5 208 16 33 24 39 54 13 65 -42 19 -700
38 -760 23z"/>
<path d="M70 137 c-14 -6 -26 -12 -28 -13 -1 0 0 -8 4 -17 7 -20 29 -29 79
-33 22 -2 69 -6 105 -10 36 -4 85 -6 110 -4 59 3 307 -4 380 -12 8 0 40 0 71
0 48 2 57 5 69 27 22 41 1 51 -140 63 -171 14 -618 14 -650 -1z"/>
</g>
</svg>
