<svg version="1.0" xmlns="http://www.w3.org/2000/svg"
 width="63.000000pt" height="93.000000pt" viewBox="0 0 63.000000 93.000000"
 preserveAspectRatio="xMidYMid meet">
<metadata>
Created by potrace 1.15, written by Peter Selinger 2001-2017
</metadata>
<g transform="translate(0.000000,93.000000) scale(0.100000,-0.100000)"
fill="#000000" stroke="none">
<path d="M403 716 c-28 -7 -63 -20 -76 -29 -22 -14 -27 -14 -45 -1 -27 19
-182 38 -196 24 -19 -19 13 -34 85 -39 53 -4 75 -11 83 -23 5 -9 8 -20 4 -23
-3 -4 -40 -9 -82 -12 -63 -5 -80 -10 -91 -27 -15 -21 -20 -91 -9 -121 8 -19
55 -45 84 -45 11 0 20 -7 20 -15 0 -10 -10 -15 -31 -15 -36 0 -72 -17 -64 -31
4 -5 26 -9 51 -9 60 0 59 -24 -1 -39 -34 -9 -46 -17 -51 -35 -19 -75 9 -86
227 -86 190 0 197 2 213 57 15 47 -20 83 -80 83 -43 0 -21 25 27 30 30 3 44
10 44 20 0 11 -10 14 -42 12 -36 -2 -43 1 -43 17 0 12 9 20 28 24 16 3 39 15
52 25 21 17 23 24 15 48 -12 34 -36 41 -138 43 -50 1 -68 4 -65 14 3 8 32 13
88 15 80 3 116 14 104 33 -3 5 -49 9 -102 9 -96 1 -97 1 -74 19 12 11 56 27
97 37 75 18 95 36 53 48 -27 7 -20 7 -85 -8z m-138 -147 c11 -16 -2 -23 -57
-29 -77 -8 -75 -30 2 -30 58 0 61 -1 58 -22 -4 -27 -36 -34 -105 -23 -35 5
-44 11 -49 31 -10 41 3 72 34 77 56 8 111 7 117 -4z m199 -68 c17 -26 -101
-55 -129 -31 -34 28 -18 40 54 40 39 0 72 -4 75 -9z m-94 -96 c0 -13 -11 -15
-62 -13 -38 2 -63 8 -66 16 -3 9 14 12 62 12 53 0 66 -3 66 -15z m-6 -64 c-5
-5 -35 -11 -66 -13 -44 -4 -58 -1 -58 9 0 9 18 13 67 13 39 0 63 -4 57 -9z
m104 -77 c4 -28 -32 -34 -201 -34 -106 0 -129 3 -134 15 -3 9 -3 18 -1 21 10
9 156 22 243 20 83 -1 90 -3 93 -22z"/>
<path d="M353 162 c-70 -8 -73 -10 -82 -53 -10 -49 -31 -49 -31 0 0 29 -5 44
-16 48 -21 8 -34 -13 -34 -54 0 -28 -3 -33 -25 -33 -19 0 -25 5 -25 23 0 33
-23 62 -44 54 -22 -9 -20 -91 3 -111 24 -21 134 -28 287 -20 102 5 137 10 141
21 9 23 -5 28 -90 30 -118 2 -117 2 -117 18 0 24 35 35 115 35 59 0 77 3 82
15 3 9 3 18 1 21 -9 9 -103 12 -165 6z"/>
</g>
</svg>
