<svg version="1.0" xmlns="http://www.w3.org/2000/svg"
 width="101.000000pt" height="249.000000pt" viewBox="0 0 101.000000 249.000000"
 preserveAspectRatio="xMidYMid meet">
<metadata>
Created by potrace 1.15, written by Peter Selinger 2001-2017
</metadata>
<g transform="translate(0.000000,249.000000) scale(0.100000,-0.100000)"
fill="#000000" stroke="none">
<path d="M368 2434 c-100 -12 -148 -38 -179 -96 -21 -41 -26 -124 -7 -130 17
-6 11 -656 -8 -848 -24 -237 -33 -312 -44 -370 -5 -30 -14 -80 -20 -110 -5
-30 -14 -75 -20 -100 -6 -25 -13 -60 -16 -78 -4 -18 -11 -35 -15 -38 -11 -7
-12 -54 -1 -54 20 0 61 130 81 260 7 41 16 91 21 110 66 268 74 354 72 789 -2
362 -1 383 15 376 105 -44 357 -43 441 1 15 8 30 14 33 14 17 0 26 -179 29
-548 1 -200 16 -411 41 -597 6 -44 14 -109 18 -145 9 -66 39 -194 72 -304 5
-16 9 -42 9 -57 0 -33 19 -79 33 -79 10 0 5 82 -12 175 -5 28 -16 93 -25 145
-9 52 -21 118 -26 145 -15 74 -38 258 -45 355 -4 47 -11 113 -16 147 -5 33
-11 184 -14 335 -2 150 -7 328 -11 396 -4 83 -3 122 5 122 5 0 13 16 17 37 17
92 -71 149 -241 155 -55 2 -139 -2 -187 -8z m301 -40 c45 -9 81 -49 81 -90 0
-40 -2 -41 -39 -13 -35 26 -158 34 -306 21 -110 -10 -165 -30 -185 -68 -12
-21 -15 -23 -23 -9 -18 33 32 115 83 138 14 7 88 14 165 17 77 3 152 7 166 8
15 1 40 -1 58 -4z m19 -136 c13 -7 22 -20 22 -34 0 -68 -277 -102 -442 -54
-31 9 -38 16 -38 35 0 48 38 59 209 65 175 6 216 4 249 -12z"/>
<path d="M554 2037 c7 -76 10 -73 -71 -80 -53 -4 -53 -4 -53 42 -1 39 -17 81
-31 81 -2 0 -5 -35 -6 -78 -2 -87 10 -144 39 -185 18 -25 25 -28 66 -25 43 3
47 6 68 48 26 50 29 99 13 186 -17 86 -33 94 -25 11z m-4 -139 c0 -90 -98 -90
-116 0 -6 32 -6 32 55 32 61 0 61 0 61 -32z"/>
<path d="M590 1783 c-29 -59 -57 -123 -62 -142 -5 -20 -12 -49 -16 -65 -7 -29
-7 -29 -22 -5 -9 13 -22 42 -29 64 -8 22 -27 59 -42 83 -16 24 -29 46 -29 50
0 4 -18 28 -40 52 -40 46 -56 46 -20 0 11 -14 20 -31 20 -37 0 -7 3 -13 8 -13
7 0 47 -80 90 -181 21 -47 42 -143 42 -190 0 -30 -16 -36 -135 -45 -76 -6 -88
-10 -59 -20 10 -3 29 -10 41 -16 12 -6 34 -7 50 -3 15 4 45 9 66 11 37 5 37 5
37 -34 0 -39 0 -39 -69 -51 -39 -6 -85 -11 -103 -11 -33 0 -33 0 -8 -20 20
-16 41 -20 104 -20 79 0 79 0 73 -282 -16 -712 -18 -842 -9 -828 16 26 32 219
32 400 0 96 5 281 10 410 5 129 10 249 10 266 0 33 29 54 74 54 31 0 86 20 86
31 0 5 -34 9 -75 9 -75 0 -75 0 -75 40 0 39 0 39 60 52 79 16 73 34 -9 30 -63
-4 -63 -4 -59 100 4 102 27 191 35 141 3 -13 9 -23 14 -23 5 0 9 -6 9 -13 0
-8 28 -47 62 -88 33 -41 63 -76 65 -78 1 -2 5 -2 8 1 3 3 -13 33 -35 67 -23
35 -48 78 -56 96 -7 19 -25 45 -39 59 -27 27 -30 37 -16 64 43 78 83 192 68
192 -2 0 -27 -48 -57 -107z"/>
<path d="M387 1643 c-3 -10 -13 -29 -21 -43 -17 -28 -96 -192 -96 -200 0 -3
14 11 30 30 36 41 110 184 110 211 0 24 -16 25 -23 2z"/>
<path d="M350 940 c0 -5 5 -10 10 -10 6 0 10 5 10 10 0 6 -4 10 -10 10 -5 0
-10 -4 -10 -10z"/>
</g>
</svg>
