<svg version="1.0" xmlns="http://www.w3.org/2000/svg"
 width="103.000000pt" height="137.000000pt" viewBox="0 0 103.000000 137.000000"
 preserveAspectRatio="xMidYMid meet">
<metadata>
Created by potrace 1.15, written by Peter Selinger 2001-2017
</metadata>
<g transform="translate(0.000000,137.000000) scale(0.100000,-0.100000)"
fill="#000000" stroke="none">
<path d="M743 1248 c-19 -42 -33 -94 -33 -124 0 -17 -5 -35 -10 -40 -7 -7 -10
-51 -8 -110 4 -122 21 -132 83 -52 34 44 47 185 24 257 -32 100 -38 107 -56
69z"/>
<path d="M213 1024 c3 -27 8 -62 12 -77 6 -21 3 -31 -11 -42 -27 -20 -52 -18
-64 6 -9 15 -19 19 -43 17 -37 -3 -37 7 -2 -148 27 -124 30 -175 15 -232 -9
-31 -8 -42 6 -64 16 -24 19 -25 31 -9 11 16 15 16 30 4 32 -25 43 -37 43 -48
0 -14 -66 -62 -119 -85 -78 -36 -23 -52 77 -24 23 7 42 16 42 20 0 4 6 8 13 8
17 0 79 67 97 105 8 17 17 32 20 35 3 3 15 37 27 75 18 59 20 79 12 130 -5 33
-13 69 -18 80 -34 77 -41 94 -41 101 0 26 -75 156 -102 175 -30 22 -30 22 -25
-27z m77 -220 c11 -25 20 -57 20 -70 0 -22 -4 -24 -50 -24 -45 0 -52 3 -60 26
-6 14 -10 40 -10 58 0 29 5 35 33 44 17 5 36 10 40 11 4 1 17 -20 27 -45z m21
-181 c2 -52 -5 -83 -27 -121 -4 -7 -60 27 -78 46 -14 16 -17 29 -11 61 7 41 7
41 61 41 52 0 54 -1 55 -27z"/>
<path d="M442 955 c-17 -46 -17 -197 0 -226 7 -12 21 -31 31 -41 19 -20 22
-44 7 -53 -5 -3 -10 -15 -10 -26 0 -10 -6 -28 -12 -39 -13 -21 -1 -57 17 -54
12 3 50 73 59 107 4 18 13 27 26 27 10 0 22 5 25 10 3 6 16 10 28 10 12 0 45
8 72 18 43 16 54 17 80 6 17 -7 49 -13 73 -14 41 0 43 -1 69 -55 15 -30 31
-55 35 -55 11 0 28 36 20 44 -4 4 -11 31 -17 60 -9 45 -8 55 7 70 28 30 48 82
48 126 0 53 -15 80 -43 80 -22 0 -23 -5 -25 -72 -3 -86 -15 -104 -42 -68 -11
14 -20 30 -20 36 0 15 -36 24 -48 12 -6 -6 -3 -27 9 -59 11 -27 19 -54 19 -59
0 -17 -28 -11 -82 17 -51 27 -51 27 -98 0 -39 -22 -100 -37 -100 -24 0 2 11
26 25 55 23 47 25 82 5 82 -14 0 -70 -73 -70 -92 0 -22 -19 -33 -33 -19 -8 8
-11 48 -9 122 3 101 2 109 -15 109 -13 0 -23 -12 -31 -35z"/>
<path d="M581 564 c-6 -14 -15 -76 -20 -137 -10 -126 -1 -188 37 -234 20 -24
22 -35 16 -78 -7 -57 -7 -53 -5 -79 2 -35 38 10 52 65 10 39 18 50 41 58 26 9
30 8 38 -15 6 -14 10 -34 10 -45 0 -33 28 -79 45 -73 15 6 17 19 17 119 0 28
13 104 29 169 16 65 29 130 29 143 0 13 4 32 10 42 6 12 6 31 0 53 -10 35 -10
35 -53 25 -23 -5 -50 -13 -59 -18 -10 -5 -29 -9 -43 -9 -34 0 -115 22 -115 32
0 17 -17 7 -29 -18z m103 -116 c-7 -11 -51 -10 -59 1 -3 5 0 21 6 35 12 26 12
26 35 -1 13 -15 21 -30 18 -35z m136 43 c0 -33 -11 -51 -31 -51 -25 0 -26 45
-1 59 25 15 32 13 32 -8z m-130 -131 c0 -28 -2 -30 -40 -30 -35 0 -40 3 -40
23 0 31 7 37 47 37 30 0 33 -3 33 -30z m106 22 c20 -13 -3 -54 -28 -50 -28 4
-33 21 -13 42 18 18 25 19 41 8z m-116 -133 c0 -15 -5 -20 -22 -17 -34 5 -37
38 -4 38 20 0 26 -5 26 -21z m78 1 c-7 -11 -16 -20 -20 -20 -5 0 -8 9 -8 20 0
13 7 20 20 20 18 0 19 -2 8 -20z"/>
</g>
</svg>
