<svg version="1.0" xmlns="http://www.w3.org/2000/svg"
 width="99.000000pt" height="123.000000pt" viewBox="0 0 99.000000 123.000000"
 preserveAspectRatio="xMidYMid meet">
<metadata>
Created by potrace 1.15, written by Peter Selinger 2001-2017
</metadata>
<g transform="translate(0.000000,123.000000) scale(0.100000,-0.100000)"
fill="#000000" stroke="none">
<path d="M585 1098 c-3 -7 -10 -31 -17 -53 -8 -24 -22 -44 -35 -50 -13 -5 -23
-13 -23 -17 0 -5 -8 -8 -18 -8 -23 0 -56 -35 -47 -49 9 -15 58 -14 74 2 11 10
12 6 7 -20 -18 -96 -17 -95 -40 -89 -11 4 -52 9 -91 13 -74 6 -85 13 -85 54 0
14 -17 53 -39 86 -29 45 -50 65 -85 81 -79 38 -90 20 -19 -33 44 -32 70 -69
90 -125 22 -60 22 -60 -82 -60 -52 0 -95 -4 -95 -8 0 -17 72 -42 120 -42 41 0
50 -3 50 -17 0 -24 -63 -101 -105 -130 -19 -13 -35 -30 -35 -38 0 -25 45 -17
85 15 21 17 41 30 45 30 8 0 59 79 71 110 9 22 40 26 137 18 214 -16 253 -31
295 -113 48 -94 68 -370 32 -445 -33 -69 -39 -76 -87 -108 -77 -51 -209 -58
-353 -19 -22 6 -44 14 -49 19 -13 11 -53 10 -61 -1 -3 -5 2 -17 11 -25 44 -45
134 -66 278 -66 116 0 146 9 209 61 69 58 81 75 102 140 36 116 16 459 -27
459 -22 0 7 140 43 212 5 10 9 29 9 44 0 25 2 26 43 22 23 -3 50 -8 60 -12 29
-13 20 19 -10 40 -37 23 -64 54 -57 65 8 14 -6 49 -20 49 -8 0 -19 -13 -26
-30 -11 -27 -17 -30 -59 -31 -25 0 -54 -3 -63 -7 -24 -10 -9 -29 27 -35 59
-10 64 -15 54 -55 -19 -74 -32 -112 -41 -112 -4 0 -8 -11 -8 -25 0 -21 -5 -25
-29 -25 -17 0 -32 4 -35 9 -3 4 -32 14 -64 21 -59 12 -59 12 -52 49 9 44 20
71 29 71 4 0 16 -7 27 -15 21 -16 74 -20 74 -5 0 12 -16 26 -59 51 -30 18 -33
23 -27 54 20 112 20 105 -3 105 -12 0 -24 -6 -26 -12z"/>
<path d="M425 558 c-70 -42 -90 -63 -120 -123 -55 -113 -72 -248 -36 -294 17
-23 22 -24 92 -18 41 4 88 11 104 16 17 5 42 12 58 15 44 10 140 116 155 170
21 80 16 140 -18 200 -33 59 -51 67 -139 65 -33 0 -61 -9 -96 -31z m167 -45
c35 -31 51 -73 45 -120 -2 -24 -7 -46 -10 -49 -7 -7 -42 12 -93 50 -23 17 -51
37 -62 45 -34 24 -47 57 -30 74 31 31 115 31 150 0z m-170 -95 c12 -7 27 -17
32 -21 81 -60 121 -87 128 -87 20 0 5 -39 -23 -63 -31 -25 -31 -25 -92 10 -34
20 -78 44 -97 55 -19 11 -36 21 -38 22 -4 5 21 70 32 83 14 16 31 16 58 1z
m-59 -160 c12 -7 24 -16 27 -19 3 -3 21 -14 40 -25 35 -18 35 -18 5 -25 -16
-4 -51 -7 -77 -8 -48 -1 -48 -1 -48 37 0 54 11 63 53 40z"/>
</g>
</svg>
