<svg version="1.0" xmlns="http://www.w3.org/2000/svg"
 width="71.000000pt" height="81.000000pt" viewBox="0 0 71.000000 81.000000"
 preserveAspectRatio="xMidYMid meet">
<metadata>
Created by potrace 1.15, written by Peter Selinger 2001-2017
</metadata>
<g transform="translate(0.000000,81.000000) scale(0.100000,-0.100000)"
fill="#000000" stroke="none">
<path d="M123 696 c-18 -5 -33 -14 -33 -18 0 -15 42 -29 69 -23 34 7 41 -9 41
-102 0 -55 -3 -64 -22 -74 -34 -17 -108 -95 -108 -113 0 -9 -4 -16 -10 -16
-14 0 -12 -74 2 -88 19 -19 28 -14 28 18 0 17 5 30 10 30 6 0 10 6 10 14 0 18
57 76 75 76 13 0 15 -16 14 -97 -1 -54 1 -109 6 -123 9 -30 94 -115 124 -125
12 -3 21 -11 21 -16 0 -5 7 -9 15 -9 30 0 14 29 -37 70 -28 22 -57 49 -64 59
-8 11 -14 63 -16 137 -3 114 -2 119 17 116 32 -6 65 -43 65 -73 0 -14 7 -32
15 -39 19 -16 22 -12 25 20 5 59 0 70 -52 110 -29 22 -58 44 -65 50 -15 12 -6
162 11 172 6 4 19 5 28 2 9 -3 35 0 58 6 39 10 50 23 31 35 -18 10 -226 12
-258 1z"/>
<path d="M607 697 c-3 -8 -3 -33 0 -56 7 -48 -8 -71 -44 -71 -53 0 -113 -53
-113 -100 0 -64 32 -89 123 -96 73 -6 98 -43 57 -84 -11 -11 -31 -20 -45 -20
-14 0 -45 -9 -70 -21 -36 -17 -47 -28 -55 -58 -14 -51 -13 -55 19 -90 24 -26
36 -31 76 -31 49 0 72 9 111 43 23 20 24 26 24 146 -1 69 -8 173 -16 231 -8
58 -18 130 -22 160 -5 39 -12 56 -23 58 -9 2 -19 -3 -22 -11z m20 -180 c2 -3
7 -22 10 -42 5 -30 2 -41 -12 -51 -23 -17 -56 -18 -90 -2 -34 16 -36 77 -2 95
20 10 83 10 94 0z m23 -310 c0 -74 -80 -123 -135 -83 -16 11 -17 19 -9 46 10
36 51 58 112 59 27 1 32 -3 32 -22z"/>
</g>
</svg>
