<svg version="1.0" xmlns="http://www.w3.org/2000/svg"
 width="72.000000pt" height="92.000000pt" viewBox="0 0 72.000000 92.000000"
 preserveAspectRatio="xMidYMid meet">
<metadata>
Created by potrace 1.15, written by Peter Selinger 2001-2017
</metadata>
<g transform="translate(0.000000,92.000000) scale(0.100000,-0.100000)"
fill="#000000" stroke="none">
<path d="M208 694 c-5 -4 -8 -16 -8 -26 0 -23 37 -38 91 -38 39 0 89 -23 89
-41 0 -5 -58 -9 -129 -9 -133 0 -164 -9 -126 -37 13 -9 54 -13 141 -13 85 0
125 -4 131 -12 24 -30 66 -190 79 -302 21 -175 25 -191 49 -191 18 0 20 7 22
90 1 88 -1 101 -52 275 -7 25 -20 59 -29 75 -9 17 -16 41 -16 54 0 23 1 24 64
18 67 -6 93 5 76 32 -6 10 -25 13 -74 9 -52 -5 -66 -3 -66 8 0 22 38 54 63 54
31 0 62 24 52 39 -10 17 -87 5 -128 -19 -30 -19 -31 -19 -73 6 -43 25 -142 43
-156 28z"/>
<path d="M214 453 c-6 -4 -11 -26 -11 -48 0 -22 -5 -69 -11 -105 -14 -79 -15
-259 -2 -280 8 -13 11 -13 24 0 11 11 18 58 25 178 11 170 19 202 51 202 11 0
21 -1 22 -2 0 -2 4 -88 7 -193 5 -160 8 -190 21 -190 12 0 16 29 23 169 10
193 6 228 -28 250 -29 19 -105 31 -121 19z"/>
</g>
</svg>
