<svg version="1.0" xmlns="http://www.w3.org/2000/svg"
 width="72.000000pt" height="91.000000pt" viewBox="0 0 72.000000 91.000000"
 preserveAspectRatio="xMidYMid meet">
<metadata>
Created by potrace 1.15, written by Peter Selinger 2001-2017
</metadata>
<g transform="translate(0.000000,91.000000) scale(0.100000,-0.100000)"
fill="#000000" stroke="none">
<path d="M294 733 c-11 -16 -28 -47 -39 -71 -16 -38 -17 -48 -6 -75 7 -18 19
-53 27 -78 14 -44 14 -49 -11 -102 -28 -62 -34 -166 -14 -228 14 -40 79 -149
89 -149 19 0 15 19 -18 93 -48 109 -51 195 -9 275 33 66 34 86 2 158 -25 56
-25 56 -6 112 11 32 23 65 26 75 11 28 -19 21 -41 -10z"/>
<path d="M537 670 c-47 -30 -47 -30 -87 -5 -22 14 -50 25 -62 25 -21 0 -20 -2
10 -32 39 -41 62 -96 62 -148 0 -38 -2 -40 -30 -40 -42 0 -40 -28 3 -32 32 -3
32 -3 39 -85 4 -55 15 -98 32 -136 14 -29 26 -60 26 -66 0 -21 33 -71 47 -71
18 0 16 15 -12 85 -28 72 -54 250 -38 266 6 6 32 13 59 17 34 5 49 12 49 22 0
11 -15 16 -64 18 -63 3 -63 3 -59 53 5 44 12 57 52 98 69 70 57 83 -27 31z"/>
<path d="M132 548 c2 -163 -18 -283 -78 -477 -7 -25 -7 -25 24 -3 80 58 138
422 90 568 -7 21 -19 39 -25 42 -10 3 -12 -28 -11 -130z"/>
</g>
</svg>
