<svg version="1.0" xmlns="http://www.w3.org/2000/svg"
 width="69.000000pt" height="81.000000pt" viewBox="0 0 69.000000 81.000000"
 preserveAspectRatio="xMidYMid meet">
<metadata>
Created by potrace 1.15, written by Peter Selinger 2001-2017
</metadata>
<g transform="translate(0.000000,81.000000) scale(0.100000,-0.100000)"
fill="#000000" stroke="none">
<path d="M397 673 c-4 -3 -7 -48 -7 -100 0 -90 -1 -93 -22 -93 -47 0 -69 -12
-66 -34 3 -18 10 -21 47 -21 44 0 44 0 77 -123 39 -140 51 -168 101 -223 38
-41 54 -47 72 -25 8 10 5 22 -14 50 -14 20 -25 39 -25 42 0 2 -13 22 -29 44
-31 44 -85 196 -79 226 3 16 15 20 73 24 62 4 70 7 70 25 0 21 -7 22 -95 14
-43 -4 -44 -3 -54 29 -5 18 -6 36 -2 40 4 4 33 9 64 12 56 5 57 5 60 39 2 18
-1 38 -6 43 -13 13 -42 -2 -42 -23 0 -15 -7 -19 -35 -19 -33 0 -35 2 -35 34 0
37 -32 61 -53 39z"/>
<path d="M200 604 c-8 -1 -41 -6 -72 -9 -64 -7 -76 -25 -38 -58 19 -16 20 -29
20 -251 0 -198 2 -235 15 -246 32 -27 37 3 38 256 2 249 2 249 27 249 25 0 25
0 28 -241 2 -202 5 -244 18 -254 33 -28 37 2 36 270 -1 298 -1 300 -72 284z"/>
</g>
</svg>
