<svg version="1.0" xmlns="http://www.w3.org/2000/svg"
 width="70.000000pt" height="133.000000pt" viewBox="0 0 70.000000 133.000000"
 preserveAspectRatio="xMidYMid meet">
<metadata>
Created by potrace 1.15, written by Peter Selinger 2001-2017
</metadata>
<g transform="translate(0.000000,133.000000) scale(0.100000,-0.100000)"
fill="#000000" stroke="none">
<path d="M36 1111 c-10 -15 2 -31 22 -31 41 -1 44 -11 32 -131 -25 -260 -42
-428 -51 -499 -9 -73 -11 -97 -24 -245 -6 -74 3 -102 29 -92 11 4 17 20 18 47
1 22 3 52 4 68 2 15 5 61 8 102 3 41 8 93 11 115 3 22 8 78 11 125 3 46 7 87
9 90 2 4 7 44 10 91 4 69 17 194 29 294 2 14 10 20 27 20 32 0 34 -18 20 -190
-6 -77 -13 -221 -16 -320 -2 -99 -7 -250 -11 -335 -6 -150 -6 -155 15 -167 17
-11 22 -10 30 5 5 10 10 137 10 286 1 148 3 271 5 275 2 3 7 89 11 191 4 101
8 187 10 190 2 4 7 27 10 52 8 56 4 58 -121 65 -62 4 -93 2 -98 -6z"/>
<path d="M311 1091 c-18 -34 -13 -132 9 -168 20 -34 73 -56 110 -46 31 8 50
65 50 148 0 57 -3 74 -16 79 -23 9 -24 8 -24 -12 0 -24 -19 -42 -46 -42 -35 0
-54 11 -54 30 0 27 -17 34 -29 11z m117 -108 c5 -33 -15 -63 -43 -63 -18 0
-26 8 -35 36 -14 43 -3 56 45 52 22 -2 31 -9 33 -25z"/>
<path d="M512 1075 c-7 -14 -12 -54 -12 -89 0 -55 3 -65 26 -85 41 -36 84 -38
122 -6 31 26 32 29 32 105 0 62 -3 79 -16 84 -26 10 -32 7 -38 -20 -6 -22 -11
-25 -44 -22 -28 2 -38 8 -40 23 -6 33 -18 37 -30 10z m108 -116 c0 -35 -3 -39
-26 -39 -32 0 -54 21 -54 53 0 29 11 35 52 29 25 -4 28 -8 28 -43z"/>
<path d="M343 809 c-33 -17 -48 -65 -47 -152 1 -91 3 -94 94 -140 57 -28 65
-36 68 -64 4 -39 -17 -48 -95 -38 -36 4 -59 3 -69 -5 -27 -24 -13 -30 64 -30
47 0 83 -5 90 -12 8 -8 12 -62 12 -179 0 -138 3 -168 15 -173 8 -3 22 2 31 11
14 14 15 29 10 87 -4 38 -9 109 -13 157 -6 85 -5 87 18 95 13 4 53 8 88 8 42
1 66 5 68 14 3 6 1 12 -4 13 -4 0 -36 2 -71 4 -89 5 -102 11 -102 45 0 36 21
57 65 66 59 11 80 52 80 156 0 82 -2 89 -28 115 -26 27 -32 28 -140 30 -66 2
-121 -2 -134 -8z m115 -57 c5 -33 -15 -52 -53 -52 -65 0 -83 24 -48 62 12 14
28 18 57 16 34 -2 42 -7 44 -26z m97 22 c8 -4 23 -20 31 -37 18 -33 8 -47 -33
-47 -38 0 -53 11 -53 39 0 41 21 58 55 45z m-109 -118 c1 0 5 -22 8 -48 7 -48
7 -48 -43 -48 -56 0 -71 15 -71 69 0 26 4 30 33 34 26 3 67 -1 73 -7z m146 -8
c10 -27 -13 -79 -37 -88 -40 -15 -55 -3 -55 44 0 24 3 46 7 49 11 12 81 7 85
-5z"/>
</g>
</svg>
