<svg version="1.0" xmlns="http://www.w3.org/2000/svg"
 width="66.000000pt" height="74.000000pt" viewBox="0 0 66.000000 74.000000"
 preserveAspectRatio="xMidYMid meet">
<metadata>
Created by potrace 1.15, written by Peter Selinger 2001-2017
</metadata>
<g transform="translate(0.000000,74.000000) scale(0.100000,-0.100000)"
fill="#000000" stroke="none">
<path d="M142 648 c-9 -9 -12 -89 -12 -297 0 -158 3 -296 6 -309 4 -14 13 -22
23 -20 14 3 16 31 19 238 3 237 -4 400 -17 400 -4 0 -12 -5 -19 -12z"/>
<path d="M456 634 c-3 -9 -6 -29 -6 -45 0 -23 -4 -29 -22 -29 -32 0 -44 10
-52 43 -3 15 -13 27 -21 27 -22 0 -31 -49 -14 -79 12 -21 23 -27 62 -29 43 -3
48 -5 45 -25 -2 -18 -11 -23 -52 -28 -31 -3 -53 -12 -62 -24 -16 -22 -18 -85
-4 -136 9 -32 14 -36 58 -45 41 -8 47 -13 50 -35 3 -25 0 -27 -52 -33 -39 -5
-56 -12 -56 -22 0 -10 14 -14 55 -14 55 0 55 0 55 -40 0 -40 0 -40 -47 -40
-57 0 -78 -11 -69 -35 5 -15 14 -17 53 -11 25 3 54 6 64 6 30 0 49 28 49 75 0
38 3 44 27 50 36 9 53 -15 53 -71 0 -46 9 -58 35 -47 15 5 17 16 12 70 -2 35
-8 67 -12 71 -3 4 -32 9 -63 12 -52 5 -57 7 -60 31 -3 24 1 27 44 33 72 9 84
26 84 112 0 86 -12 104 -71 104 -36 0 -40 2 -37 22 2 18 12 24 40 29 63 10 92
51 72 103 -11 28 -31 17 -43 -24 -10 -35 -16 -40 -41 -40 -24 0 -30 4 -30 23
-1 21 -21 57 -33 57 -2 0 -8 -7 -11 -16z m102 -196 c14 -14 16 -96 3 -117 -8
-13 -166 -34 -183 -25 -10 6 -20 101 -13 123 7 22 28 27 121 30 35 0 65 -4 72
-11z"/>
<path d="M407 379 c-29 -17 -9 -29 48 -29 63 0 85 7 85 26 0 17 -105 19 -133
3z"/>
<path d="M50 615 c-18 -22 -20 -189 -2 -206 21 -22 29 2 35 98 5 102 -6 140
-33 108z"/>
<path d="M227 623 c-4 -3 -7 -46 -7 -93 0 -65 4 -91 15 -100 8 -6 19 -9 25 -5
14 9 13 178 -2 193 -14 14 -22 15 -31 5z"/>
<path d="M230 331 c-5 -11 -10 -74 -10 -140 0 -95 3 -123 16 -135 8 -9 20 -16
25 -16 5 0 9 66 9 155 0 129 -2 155 -15 155 -8 0 -19 -9 -25 -19z"/>
<path d="M50 330 c-12 -7 -15 -36 -15 -139 0 -128 8 -163 34 -147 13 8 16 282
3 290 -4 2 -14 1 -22 -4z"/>
</g>
</svg>
