<svg version="1.0" xmlns="http://www.w3.org/2000/svg"
 width="69.000000pt" height="92.000000pt" viewBox="0 0 69.000000 92.000000"
 preserveAspectRatio="xMidYMid meet">
<metadata>
Created by potrace 1.15, written by Peter Selinger 2001-2017
</metadata>
<g transform="translate(0.000000,92.000000) scale(0.100000,-0.100000)"
fill="#000000" stroke="none">
<path d="M340 810 c-92 -10 -121 -20 -149 -56 -44 -56 -4 -115 83 -122 55 -4
56 -5 56 -36 0 -41 -16 -56 -57 -56 -43 0 -108 -33 -125 -63 -7 -12 -15 -81
-19 -162 -5 -109 -11 -152 -28 -193 -11 -29 -21 -59 -21 -67 0 -22 38 -18 50
4 10 20 38 184 42 255 3 35 8 42 43 60 38 20 48 34 77 101 12 26 18 30 53 30
36 0 40 -3 49 -33 13 -48 49 -82 86 -82 33 0 41 17 13 27 -32 11 -63 46 -63
70 0 17 6 23 23 23 68 -1 87 -27 87 -125 0 -88 21 -315 31 -342 8 -23 33 -31
43 -14 3 4 -4 39 -15 77 -15 54 -20 99 -20 211 0 129 -2 145 -22 174 -22 33
-42 42 -129 54 -27 3 -48 10 -48 15 0 5 21 11 48 15 63 8 95 18 99 31 6 19
-25 24 -76 12 -27 -6 -57 -8 -66 -4 -28 10 1 36 42 36 23 0 42 8 59 25 47 47
19 73 -81 73 -63 0 -137 -19 -143 -37 -4 -12 11 -13 87 -8 50 3 91 2 91 -2 0
-25 -190 -30 -210 -6 -7 8 -10 20 -7 28 7 18 144 60 194 59 24 0 45 4 48 8 6
9 -27 31 -42 29 -4 -1 -42 -5 -83 -9z m-88 -336 c-4 -20 -50 -74 -64 -74 -4 0
-8 16 -8 35 0 27 6 37 28 49 33 18 48 15 44 -10z"/>
<path d="M320 452 c0 -10 -13 -36 -30 -57 -16 -21 -30 -48 -30 -61 0 -14 12
-32 30 -46 17 -12 30 -25 30 -28 0 -4 -15 -11 -32 -16 -43 -13 -76 -72 -84
-152 -6 -53 -4 -63 10 -68 29 -11 41 13 41 81 0 74 14 95 74 115 39 13 91 8
91 -9 0 -5 -14 -14 -31 -21 -43 -18 -59 -37 -59 -71 0 -51 109 -105 118 -59 2
10 -10 20 -32 28 -19 7 -37 19 -40 27 -5 14 28 45 50 45 20 0 46 38 42 62 -2
13 -11 24 -23 27 -11 2 -31 8 -44 13 -24 9 -24 9 2 36 36 38 34 55 -12 91 -22
18 -41 41 -43 53 -4 27 -28 36 -28 10z m51 -82 c15 -9 17 -15 9 -30 -15 -27
-80 -29 -80 -2 0 37 33 52 71 32z"/>
</g>
</svg>
