<svg version="1.0" xmlns="http://www.w3.org/2000/svg"
 width="63.000000pt" height="69.000000pt" viewBox="0 0 63.000000 69.000000"
 preserveAspectRatio="xMidYMid meet">
<metadata>
Created by potrace 1.15, written by Peter Selinger 2001-2017
</metadata>
<g transform="translate(0.000000,69.000000) scale(0.100000,-0.100000)"
fill="#000000" stroke="none">
<path d="M263 574 c-3 -9 -9 -30 -12 -48 -5 -22 -13 -32 -30 -34 -13 -2 -28 1
-34 7 -12 12 -77 15 -77 5 0 -10 41 -43 61 -49 11 -4 19 -11 19 -16 0 -5 14
-18 30 -28 31 -18 31 -18 -17 -41 -67 -31 -127 -95 -142 -150 -27 -99 -22
-190 10 -190 10 0 24 8 31 18 25 35 98 58 98 31 0 -16 68 -79 86 -79 21 0 66
24 87 47 9 11 23 43 29 71 7 29 18 52 25 52 25 0 100 53 110 79 6 14 16 55 23
91 7 36 16 67 20 70 8 5 13 33 11 57 -1 8 -22 5 -68 -12 -38 -13 -86 -28 -108
-34 -22 -6 -50 -13 -62 -16 -17 -5 -23 -2 -23 9 0 9 4 16 9 16 16 0 93 79 86
90 -10 16 -37 12 -65 -10 -33 -26 -50 -25 -50 3 0 27 -21 77 -33 77 -4 0 -10
-7 -14 -16z m247 -206 c0 -37 -24 -92 -50 -115 -14 -13 -28 -23 -31 -23 -8 0
-20 120 -13 131 3 5 16 9 29 9 13 0 27 5 30 10 11 18 35 10 35 -12z m-160 -60
c6 -24 13 -48 15 -54 2 -7 -2 -46 -8 -87 -9 -55 -18 -82 -34 -96 -28 -27 -38
-26 -57 1 -19 27 -21 122 -5 200 14 63 24 78 55 78 19 0 25 -8 34 -42z m-144
-72 c-8 -76 -11 -80 -59 -98 -43 -16 -43 -16 -37 33 5 38 15 58 40 84 50 52
64 47 56 -19z"/>
</g>
</svg>
