<svg version="1.0" xmlns="http://www.w3.org/2000/svg"
 width="67.000000pt" height="103.000000pt" viewBox="0 0 67.000000 103.000000"
 preserveAspectRatio="xMidYMid meet">
<metadata>
Created by potrace 1.15, written by Peter Selinger 2001-2017
</metadata>
<g transform="translate(0.000000,103.000000) scale(0.100000,-0.100000)"
fill="#000000" stroke="none">
<path d="M284 888 c-5 -7 -7 -41 -6 -75 2 -50 0 -63 -12 -63 -8 0 -20 13 -27
29 -16 35 -40 51 -68 44 -20 -5 -20 -6 9 -48 17 -24 30 -46 30 -50 0 -4 13
-26 30 -50 17 -24 30 -48 30 -54 0 -6 5 -11 10 -11 15 0 12 -116 -3 -128 -7
-6 -52 -12 -101 -14 -56 -2 -91 -7 -98 -16 -15 -18 17 -288 43 -359 14 -39 29
-25 29 25 0 53 15 69 74 74 26 3 31 -2 45 -37 15 -41 36 -64 58 -65 22 0 82
124 83 171 0 9 45 51 99 95 55 43 100 86 100 95 1 27 -51 40 -165 42 -109 2
-109 2 -112 45 -3 38 2 50 39 98 23 30 61 70 83 89 30 25 38 37 30 45 -17 17
-56 3 -100 -35 -21 -19 -42 -31 -46 -27 -4 4 -8 48 -10 97 -2 74 -6 90 -20 93
-9 2 -20 -3 -24 -10z m195 -467 c10 -7 4 -15 -25 -35 -28 -19 -41 -23 -51 -14
-17 13 -17 45 0 51 20 9 61 7 76 -2z m-234 -38 c-4 -16 -9 -52 -12 -80 -4 -41
-9 -53 -21 -53 -10 0 -27 -3 -39 -6 -19 -5 -22 0 -33 48 -22 96 -10 113 84
117 26 1 28 -1 21 -26z m104 -73 c1 -59 -20 -145 -32 -134 -4 4 -7 17 -7 29 0
11 -5 26 -11 32 -19 19 -16 117 4 137 9 10 17 23 17 29 1 7 7 1 15 -13 8 -14
14 -50 14 -80z"/>
</g>
</svg>
