<svg version="1.0" xmlns="http://www.w3.org/2000/svg"
 width="49.000000pt" height="63.000000pt" viewBox="0 0 49.000000 63.000000"
 preserveAspectRatio="xMidYMid meet">
<metadata>
Created by potrace 1.15, written by Peter Selinger 2001-2017
</metadata>
<g transform="translate(0.000000,63.000000) scale(0.100000,-0.100000)"
fill="#000000" stroke="none">
<path d="M210 490 c0 -22 5 -40 10 -40 6 0 10 -7 10 -15 0 -24 -17 -18 -54 20
-32 31 -76 47 -76 27 0 -4 18 -31 39 -60 22 -29 43 -61 46 -72 4 -11 11 -20
16 -20 5 0 9 -14 9 -31 0 -33 -32 -68 -61 -69 -29 0 -40 -23 -29 -61 6 -18 10
-48 10 -65 0 -18 6 -34 13 -36 19 -7 87 3 87 13 0 5 14 9 31 9 80 0 115 57 96
157 -12 66 -30 81 -57 48 -7 -8 -21 -15 -32 -15 -16 0 -19 5 -14 23 3 12 6 27
6 34 0 11 40 54 85 91 15 13 12 32 -5 32 -5 0 -25 -14 -45 -31 -28 -25 -36
-28 -41 -16 -3 8 -5 21 -3 28 1 8 1 31 0 52 -1 30 -5 37 -21 37 -17 0 -20 -7
-20 -40z m113 -297 c4 -33 2 -43 -9 -43 -10 0 -14 14 -14 52 0 60 15 54 23 -9z
m-118 -33 c7 -33 1 -50 -21 -50 -10 0 -14 12 -14 40 0 48 25 56 35 10z m52
-12 c-3 -8 -6 -5 -6 6 -1 11 2 17 5 13 3 -3 4 -12 1 -19z"/>
</g>
</svg>
