<svg version="1.0" xmlns="http://www.w3.org/2000/svg"
 width="63.000000pt" height="85.000000pt" viewBox="0 0 63.000000 85.000000"
 preserveAspectRatio="xMidYMid meet">
<metadata>
Created by potrace 1.15, written by Peter Selinger 2001-2017
</metadata>
<g transform="translate(0.000000,85.000000) scale(0.100000,-0.100000)"
fill="#000000" stroke="none">
<path d="M366 680 c-4 -28 -11 -60 -15 -73 -9 -21 -9 -21 -16 -2 -21 63 -59
101 -75 76 -9 -15 13 -84 59 -183 11 -26 21 -57 21 -69 0 -19 -4 -21 -37 -14
-76 14 -208 22 -230 14 -30 -11 -20 -32 22 -48 38 -13 155 -140 155 -166 0
-14 14 -44 33 -69 4 -6 17 -26 30 -45 31 -48 44 -49 63 -4 27 63 30 68 48 71
25 5 57 -36 50 -63 -8 -34 13 -39 33 -8 12 18 21 59 26 123 15 164 14 191 -6
204 -14 9 -21 7 -32 -7 -10 -13 -24 -17 -52 -15 -38 3 -38 3 -37 45 0 22 7 48
15 56 44 45 69 79 75 102 5 20 3 25 -13 25 -11 0 -28 -9 -38 -20 -28 -31 -34
-24 -34 40 1 64 -5 80 -25 80 -8 0 -16 -19 -20 -50z m-96 -340 c12 -7 12 -12
3 -21 -9 -9 -16 -9 -28 1 -29 24 -9 42 25 20z m103 -66 c7 -32 -12 -95 -29
-101 -10 -3 -44 57 -44 79 0 6 9 26 21 44 17 28 23 32 34 21 7 -7 15 -26 18
-43z m102 1 c0 -44 -2 -50 -20 -47 -25 5 -21 -2 -28 55 -5 47 -4 48 22 45 24
-3 26 -6 26 -53z"/>
</g>
</svg>
