<svg version="1.0" xmlns="http://www.w3.org/2000/svg"
 width="63.000000pt" height="82.000000pt" viewBox="0 0 63.000000 82.000000"
 preserveAspectRatio="xMidYMid meet">
<metadata>
Created by potrace 1.15, written by Peter Selinger 2001-2017
</metadata>
<g transform="translate(0.000000,82.000000) scale(0.100000,-0.100000)"
fill="#000000" stroke="none">
<path d="M177 537 c7 -96 -3 -122 -47 -132 -53 -12 -60 -34 -60 -190 0 -132 8
-180 27 -161 4 4 7 58 6 119 -3 160 3 187 52 212 47 25 53 42 54 153 1 75 -1
82 -19 82 -18 0 -19 -5 -13 -83z"/>
<path d="M448 597 c-45 -12 -50 -27 -9 -27 21 0 30 -6 35 -22 11 -43 7 -56
-14 -51 -11 3 -20 14 -20 24 0 11 -4 19 -10 19 -19 0 -11 -55 10 -68 25 -15
25 -42 0 -92 -25 -50 -10 -61 21 -15 13 19 27 35 31 35 4 0 16 -13 28 -30 12
-16 26 -30 31 -30 17 0 9 33 -16 66 -33 43 -32 52 7 56 50 5 48 28 -2 28 -39
0 -42 2 -36 23 3 12 6 29 6 39 0 9 13 21 31 27 71 25 -12 41 -93 18z"/>
<path d="M90 540 c0 -33 4 -60 10 -60 6 0 10 13 10 29 0 16 3 43 6 60 5 24 3
31 -10 31 -13 0 -16 -11 -16 -60z"/>
<path d="M285 590 c-3 -6 2 -13 12 -17 24 -9 33 -23 33 -51 0 -31 -34 -26 -38
6 -5 33 -22 27 -22 -8 0 -19 7 -34 20 -42 25 -16 25 -36 0 -68 -11 -14 -20
-31 -20 -37 0 -23 26 -14 38 12 6 14 18 25 25 25 8 0 19 -11 25 -25 12 -26 32
-34 32 -12 0 7 -7 22 -15 33 -19 25 -19 64 0 64 22 0 18 18 -5 25 -27 9 -25
41 5 69 13 13 22 26 18 29 -10 11 -101 8 -108 -3z"/>
<path d="M177 304 c-4 -4 -7 -65 -7 -136 0 -99 3 -129 13 -126 8 3 13 40 15
128 2 113 -4 151 -21 134z"/>
<path d="M270 290 c-34 -21 10 -28 153 -23 115 5 147 9 147 19 0 11 -29 14
-142 14 -79 0 -150 -5 -158 -10z"/>
<path d="M357 213 c-41 -4 -49 -8 -58 -30 -5 -15 -9 -49 -7 -77 3 -42 7 -53
28 -64 32 -17 187 -11 217 9 43 26 57 104 27 147 -13 20 -23 22 -87 20 -40 -1
-94 -3 -120 -5z m172 -42 c15 -27 -2 -31 -114 -31 -97 0 -124 11 -90 37 13 8
49 13 107 13 76 0 89 -3 97 -19z m11 -68 c-1 -22 -22 -31 -88 -38 -77 -8 -132
5 -132 31 0 11 23 14 110 14 61 0 110 -3 110 -7z"/>
</g>
</svg>
