<svg version="1.0" xmlns="http://www.w3.org/2000/svg"
 width="99.000000pt" height="109.000000pt" viewBox="0 0 99.000000 109.000000"
 preserveAspectRatio="xMidYMid meet">
<metadata>
Created by potrace 1.15, written by Peter Selinger 2001-2017
</metadata>
<g transform="translate(0.000000,109.000000) scale(0.100000,-0.100000)"
fill="#000000" stroke="none">
<path d="M510 1038 c-1 -2 -2 -43 -3 -93 -3 -105 -8 -119 -40 -104 -23 11 -77
79 -77 98 0 6 -11 11 -25 11 -31 0 -31 -1 3 -63 28 -53 88 -116 110 -117 9 0
12 -27 12 -99 0 -99 0 -99 -30 -106 -28 -6 -35 -2 -70 38 -46 52 -87 73 -151
80 -53 5 -84 -7 -59 -23 8 -5 23 -10 33 -11 60 -5 127 -45 127 -76 0 -14 -21
-20 -100 -28 -97 -10 -143 -20 -147 -32 -8 -23 42 -32 141 -26 83 5 96 4 96
-10 0 -18 -77 -87 -97 -87 -18 0 -53 -32 -53 -48 0 -10 7 -12 23 -7 12 4 36 9
52 12 30 5 95 63 128 116 15 23 24 27 61 27 50 0 52 -3 55 -82 2 -50 0 -58
-16 -58 -10 0 -34 -13 -54 -29 -28 -23 -38 -42 -49 -88 -7 -32 -17 -66 -22
-75 -11 -22 1 -70 16 -65 6 3 10 10 9 16 -3 11 26 92 36 101 4 3 19 22 34 43
16 21 33 37 39 35 5 -2 11 -46 13 -97 3 -69 8 -98 20 -110 26 -26 35 2 35 112
0 98 0 98 32 95 30 -3 33 -7 56 -78 33 -100 43 -120 59 -120 33 0 -14 185 -59
235 -10 10 -33 24 -51 30 -30 9 -32 13 -38 70 -8 79 2 90 84 90 61 0 62 0 67
-30 13 -80 84 -135 172 -135 41 0 49 3 46 17 -2 10 -16 20 -33 23 -65 14 -100
38 -113 81 -16 50 -10 59 37 59 36 0 91 19 91 31 0 13 -54 29 -100 29 -28 0
-50 4 -50 8 0 20 78 72 109 72 25 0 47 25 30 36 -44 27 -182 -35 -193 -86 -6
-32 -19 -39 -98 -47 -59 -6 -59 -6 -56 88 3 93 3 93 40 113 36 18 78 84 78
120 0 8 5 16 12 18 16 6 2 38 -16 38 -8 0 -23 -18 -32 -40 -19 -43 -60 -78
-75 -63 -5 5 -9 47 -10 93 -1 51 -6 88 -13 92 -11 8 -26 10 -26 6z"/>
</g>
</svg>
