<svg version="1.0" xmlns="http://www.w3.org/2000/svg"
 width="57.000000pt" height="91.000000pt" viewBox="0 0 57.000000 91.000000"
 preserveAspectRatio="xMidYMid meet">
<metadata>
Created by potrace 1.15, written by Peter Selinger 2001-2017
</metadata>
<g transform="translate(0.000000,91.000000) scale(0.100000,-0.100000)"
fill="#000000" stroke="none">
<path d="M205 750 c-3 -11 -12 -20 -19 -20 -8 0 -19 -7 -26 -15 -16 -19 3 -45
31 -45 35 0 19 -19 -18 -22 -30 -2 -39 -7 -41 -25 -3 -17 3 -24 25 -28 48 -11
53 -14 53 -30 0 -11 -10 -15 -35 -15 -19 0 -35 -3 -35 -8 0 -4 9 -38 20 -76
21 -74 42 -106 72 -106 12 0 18 -7 18 -21 0 -34 -18 -57 -50 -64 -35 -8 -37
-15 -11 -39 11 -10 25 -40 31 -67 7 -27 16 -52 21 -55 5 -3 9 -13 9 -22 0 -9
5 -24 10 -32 15 -23 27 2 28 57 1 25 3 47 5 49 2 3 19 -2 38 -10 20 -8 41 -11
48 -7 18 11 18 78 0 120 -11 27 -11 35 -1 38 14 5 16 39 2 48 -5 3 -10 24 -10
45 0 57 -17 87 -61 104 -31 13 -39 21 -39 41 0 25 13 31 44 19 9 -3 16 -12 16
-20 0 -20 41 -54 65 -54 29 0 65 28 59 45 -4 9 -19 15 -35 15 -39 0 -37 13 6
33 51 24 46 47 -10 47 -43 0 -45 1 -45 29 0 30 14 41 56 41 13 0 24 6 24 13 0
19 -36 34 -92 41 -48 6 -48 6 -54 -34 -7 -40 -30 -61 -41 -35 -3 9 -3 25 0 36
11 41 -45 68 -58 29z m105 -325 c0 -14 -4 -25 -9 -25 -5 0 -11 11 -13 25 -4
17 -1 25 8 25 8 0 14 -11 14 -25z m34 -111 c10 -27 -3 -30 -26 -6 -22 22 -22
22 -1 22 11 0 24 -7 27 -16z"/>
</g>
</svg>
