<svg version="1.0" xmlns="http://www.w3.org/2000/svg"
 width="51.000000pt" height="85.000000pt" viewBox="0 0 51.000000 85.000000"
 preserveAspectRatio="xMidYMid meet">
<metadata>
Created by potrace 1.15, written by Peter Selinger 2001-2017
</metadata>
<g transform="translate(0.000000,85.000000) scale(0.100000,-0.100000)"
fill="#000000" stroke="none">
<path d="M210 730 c0 -33 -3 -40 -20 -40 -12 0 -20 -7 -20 -18 0 -9 9 -23 20
-30 13 -8 20 -23 20 -42 0 -37 -4 -37 -36 -4 -44 44 -60 30 -55 -51 3 -74 29
-135 57 -135 16 0 34 -39 34 -73 0 -14 13 -30 35 -45 21 -13 35 -30 35 -42 0
-27 -15 -25 -49 8 -34 32 -78 58 -86 50 -3 -3 -1 -34 5 -69 6 -35 13 -80 16
-99 5 -42 24 -90 34 -90 14 0 21 51 14 96 -8 56 5 57 47 4 38 -47 56 -51 64
-12 3 15 10 44 16 65 9 32 7 44 -10 73 -26 43 -26 47 -1 39 11 -4 20 -2 20 4
0 6 -4 11 -9 11 -12 0 -51 84 -51 110 0 11 -7 32 -16 46 -18 26 -14 41 7 28
13 -7 100 -6 108 2 9 9 -23 33 -47 36 -22 2 -26 7 -24 28 5 34 8 35 38 21 14
-6 29 -9 34 -6 14 8 1 33 -21 40 -51 17 -59 65 -10 65 36 0 71 11 71 21 0 4
-17 11 -37 15 -21 4 -50 13 -65 20 -37 19 -38 18 -38 -18 0 -18 -4 -40 -10
-48 -7 -11 -11 -9 -19 13 -6 16 -11 37 -11 48 0 12 -7 19 -20 19 -17 0 -20 -7
-20 -40z"/>
</g>
</svg>
