<svg version="1.0" xmlns="http://www.w3.org/2000/svg"
 width="65.000000pt" height="94.000000pt" viewBox="0 0 65.000000 94.000000"
 preserveAspectRatio="xMidYMid meet">
<metadata>
Created by potrace 1.15, written by Peter Selinger 2001-2017
</metadata>
<g transform="translate(0.000000,94.000000) scale(0.100000,-0.100000)"
fill="#000000" stroke="none">
<path d="M76 711 c-10 -16 1 -29 45 -51 24 -13 41 -30 45 -45 13 -53 -28 -61
-67 -14 -27 33 -49 33 -49 -2 0 -29 32 -55 78 -63 23 -3 42 -10 42 -15 0 -25
-14 -41 -36 -41 -58 0 -92 -36 -80 -85 6 -23 49 -45 87 -45 32 0 21 -36 -20
-70 -22 -17 -48 -45 -59 -63 -27 -45 -58 -185 -44 -199 20 -20 39 0 46 47 8
53 28 102 59 151 21 32 47 46 47 25 0 -5 15 -42 34 -83 31 -67 86 -138 107
-138 23 0 16 25 -21 68 -36 43 -80 139 -80 174 0 7 17 24 38 38 37 25 37 25
-6 28 -34 3 -43 7 -40 20 2 12 15 18 48 20 43 3 46 1 65 -34 19 -35 23 -85 13
-149 -5 -32 25 -24 34 10 13 46 0 150 -23 180 -18 22 -28 25 -80 25 -52 0 -59
2 -59 20 0 16 7 20 31 20 91 0 145 43 121 96 -14 29 -75 58 -108 50 -54 -14
-32 43 26 68 19 8 43 17 53 20 11 4 17 13 15 23 -6 31 -76 22 -109 -15 -27
-30 -27 -30 -55 -1 -31 31 -87 48 -98 30z m232 -198 c3 -21 0 -23 -47 -23 -48
0 -51 2 -51 26 0 24 2 25 48 22 40 -3 47 -6 50 -25z m-150 -90 c-3 -29 -23
-39 -48 -24 -12 8 -12 13 4 30 27 30 48 27 44 -6z"/>
<path d="M567 654 c-3 -3 -25 -10 -49 -15 -66 -15 -88 -34 -88 -73 0 -33 15
-55 65 -91 20 -14 20 -14 -4 -57 -13 -24 -35 -60 -49 -81 -14 -20 -22 -40 -18
-44 10 -10 55 38 87 94 41 71 53 69 46 -7 -7 -61 -22 -91 -85 -169 -31 -38
-32 -41 -12 -41 45 0 130 122 144 206 11 65 -11 106 -65 122 -109 33 -103 92
10 102 44 4 57 9 59 24 5 24 -25 46 -41 30z"/>
</g>
</svg>
