<svg version="1.0" xmlns="http://www.w3.org/2000/svg"
 width="31.000000pt" height="45.000000pt" viewBox="0 0 31.000000 45.000000"
 preserveAspectRatio="xMidYMid meet">
<metadata>
Created by potrace 1.15, written by Peter Selinger 2001-2017
</metadata>
<g transform="translate(0.000000,45.000000) scale(0.100000,-0.100000)"
fill="#000000" stroke="none">
<path d="M150 253 c-30 -3 -37 -9 -45 -36 -6 -18 -9 -54 -7 -80 3 -38 8 -47
20 -45 9 2 22 15 29 29 7 15 19 31 26 37 19 16 55 -11 59 -45 2 -14 9 -28 15
-31 10 -3 11 15 7 75 -7 79 -20 105 -53 101 -9 -1 -32 -3 -51 -5z m40 -23 c0
-5 -4 -10 -10 -10 -5 0 -10 5 -10 10 0 6 5 10 10 10 6 0 10 -4 10 -10z"/>
</g>
</svg>
