<svg version="1.0" xmlns="http://www.w3.org/2000/svg"
 width="67.000000pt" height="82.000000pt" viewBox="0 0 67.000000 82.000000"
 preserveAspectRatio="xMidYMid meet">
<metadata>
Created by potrace 1.15, written by Peter Selinger 2001-2017
</metadata>
<g transform="translate(0.000000,82.000000) scale(0.100000,-0.100000)"
fill="#000000" stroke="none">
<path d="M223 629 c-24 -6 -60 -26 -85 -48 -43 -39 -43 -39 -49 -257 -4 -121
-10 -232 -14 -247 -7 -25 -5 -28 11 -25 37 7 47 69 48 279 1 147 4 200 14 212
31 38 148 54 280 41 57 -6 62 -9 72 -38 6 -17 16 -101 21 -186 5 -85 13 -173
18 -195 5 -22 12 -55 16 -72 7 -33 31 -45 40 -20 3 6 1 44 -5 82 -5 39 -15
144 -21 235 -11 182 -18 201 -76 225 -44 19 -214 28 -270 14z"/>
<path d="M310 534 c-6 -14 -10 -67 -10 -119 0 -94 0 -94 -60 -146 -33 -29 -60
-56 -60 -60 0 -22 49 -5 95 31 46 36 51 38 70 25 47 -34 125 -58 125 -37 0 4
-20 19 -43 34 -78 49 -82 58 -83 172 -1 55 -2 107 -3 114 -2 21 -21 13 -31
-14z"/>
<path d="M420 516 c-23 -61 -23 -97 0 -147 13 -27 29 -49 37 -49 17 0 16 16
-3 74 -11 32 -15 64 -11 97 6 52 -7 67 -23 25z"/>
<path d="M215 468 c-4 -9 -4 -22 0 -28 4 -6 -1 -33 -11 -60 -21 -59 -13 -73
22 -39 35 35 42 87 16 119 -18 22 -21 23 -27 8z"/>
</g>
</svg>
