<svg version="1.0" xmlns="http://www.w3.org/2000/svg"
 width="71.000000pt" height="84.000000pt" viewBox="0 0 71.000000 84.000000"
 preserveAspectRatio="xMidYMid meet">
<metadata>
Created by potrace 1.15, written by Peter Selinger 2001-2017
</metadata>
<g transform="translate(0.000000,84.000000) scale(0.100000,-0.100000)"
fill="#000000" stroke="none">
<path d="M207 660 c-122 -8 -145 -16 -133 -46 6 -15 18 -16 110 -11 57 4 111
10 120 13 15 6 17 0 14 -42 -3 -49 -3 -49 -43 -54 -53 -8 -114 -39 -138 -71
-25 -34 -36 -89 -47 -231 -9 -121 -2 -168 25 -168 12 0 18 32 31 183 7 77 7
77 130 77 67 0 157 5 199 11 42 6 80 8 83 5 3 -3 7 -64 10 -135 3 -99 8 -131
19 -135 27 -11 35 43 29 179 -8 172 -23 242 -57 267 -14 11 -57 24 -95 30 -96
15 -94 13 -94 53 0 32 2 35 30 35 68 0 180 23 180 36 0 16 -157 17 -373 4z
m305 -185 c19 -7 38 -48 38 -80 0 -25 -1 -25 -85 -25 -85 0 -85 0 -85 61 0 62
0 62 58 56 32 -4 66 -9 74 -12z m-192 -49 c0 -55 0 -55 -42 -61 -24 -4 -61 -5
-83 -3 -36 3 -40 5 -37 28 6 43 28 66 74 77 86 21 88 20 88 -41z"/>
</g>
</svg>
