<svg version="1.0" xmlns="http://www.w3.org/2000/svg"
 width="53.000000pt" height="77.000000pt" viewBox="0 0 53.000000 77.000000"
 preserveAspectRatio="xMidYMid meet">
<metadata>
Created by potrace 1.15, written by Peter Selinger 2001-2017
</metadata>
<g transform="translate(0.000000,77.000000) scale(0.100000,-0.100000)"
fill="#000000" stroke="none">
<path d="M63 673 c-3 -7 2 -22 11 -32 13 -14 14 -21 5 -26 -11 -7 -10 -55 5
-200 3 -27 8 -84 11 -125 19 -250 17 -242 36 -223 6 6 11 61 11 134 0 108 3
130 23 169 12 25 28 57 35 73 7 15 17 27 22 27 4 0 8 6 8 13 0 18 24 67 33 67
4 0 7 -5 7 -11 0 -6 13 -29 28 -52 16 -23 40 -62 53 -87 13 -25 27 -47 30 -50
17 -14 49 -98 49 -129 0 -60 16 -69 29 -16 12 49 13 436 0 456 -4 7 -57 11
-150 11 -79 0 -166 4 -192 8 -38 6 -50 4 -54 -7z m159 -49 c5 -5 -4 -41 -23
-89 -4 -11 -13 -36 -20 -56 -14 -41 -36 -75 -44 -67 -3 3 -7 44 -8 92 -1 47
-5 86 -9 86 -5 0 -8 9 -8 20 0 18 7 20 53 20 30 0 56 -3 59 -6z m208 -129 c0
-69 -4 -125 -8 -125 -5 0 -24 30 -42 68 -18 37 -41 78 -50 92 -10 14 -21 40
-25 58 -7 32 -7 32 59 32 66 0 66 0 66 -125z"/>
</g>
</svg>
