<svg version="1.0" xmlns="http://www.w3.org/2000/svg"
 width="73.000000pt" height="84.000000pt" viewBox="0 0 73.000000 84.000000"
 preserveAspectRatio="xMidYMid meet">
<metadata>
Created by potrace 1.15, written by Peter Selinger 2001-2017
</metadata>
<g transform="translate(0.000000,84.000000) scale(0.100000,-0.100000)"
fill="#000000" stroke="none">
<path d="M463 704 c-37 -16 -53 -41 -53 -83 0 -41 30 -69 80 -77 62 -10 75
-41 76 -184 0 -64 6 -128 12 -143 7 -16 12 -38 12 -50 0 -24 43 -112 66 -137
11 -11 17 -11 26 -2 9 9 3 28 -22 84 -32 69 -35 82 -42 223 -11 229 -8 221
-108 256 -36 13 -46 21 -48 42 -3 21 3 31 27 45 61 35 41 56 -26 26z"/>
<path d="M243 676 c44 -36 34 -64 -36 -99 -81 -41 -85 -54 -85 -232 0 -161 -8
-203 -57 -277 -28 -43 -30 -48 -12 -48 6 0 26 18 44 39 48 57 66 140 65 296 0
152 5 166 77 190 59 19 71 32 78 84 5 36 3 41 -25 55 -17 9 -41 16 -54 16 -23
-1 -22 -1 5 -24z"/>
<path d="M346 534 c-3 -9 -6 -69 -6 -135 0 -143 -8 -168 -79 -231 -49 -44 -63
-68 -40 -68 10 0 24 10 98 68 16 12 33 22 38 22 5 0 31 -16 56 -36 33 -26 58
-37 83 -38 48 -1 54 18 13 39 -17 9 -50 34 -74 56 -43 39 -43 39 -49 157 -8
134 -15 182 -26 182 -4 0 -11 -7 -14 -16z"/>
<path d="M482 503 c-21 -8 -42 -60 -42 -107 0 -36 6 -52 31 -81 17 -19 40 -35
50 -35 26 0 24 7 -11 47 -32 36 -41 95 -19 134 13 25 8 47 -9 42z"/>
<path d="M215 480 c-4 -6 5 -24 19 -41 34 -40 33 -71 -5 -113 -42 -49 -32 -64
16 -26 74 59 81 108 23 162 -32 30 -43 34 -53 18z"/>
</g>
</svg>
