<svg version="1.0" xmlns="http://www.w3.org/2000/svg"
 width="68.000000pt" height="83.000000pt" viewBox="0 0 68.000000 83.000000"
 preserveAspectRatio="xMidYMid meet">
<metadata>
Created by potrace 1.15, written by Peter Selinger 2001-2017
</metadata>
<g transform="translate(0.000000,83.000000) scale(0.100000,-0.100000)"
fill="#000000" stroke="none">
<path d="M170 655 c0 -32 -2 -35 -29 -35 -55 0 -61 -7 -61 -70 0 -65 9 -77 60
-82 24 -2 36 -9 38 -20 3 -15 -4 -18 -37 -18 -46 0 -55 -16 -49 -86 3 -35 6
-39 41 -47 41 -10 47 -32 15 -48 -10 -5 -26 -13 -35 -18 -35 -17 -26 -210 10
-198 8 3 11 24 9 70 -4 73 3 107 22 107 10 0 15 -26 18 -90 3 -50 8 -93 11
-96 16 -17 27 15 27 81 0 82 6 105 26 105 21 0 34 -42 34 -106 0 -47 3 -55 18
-52 14 3 17 16 20 85 3 93 -8 113 -64 113 -29 0 -34 3 -34 24 0 22 5 25 43 28
42 3 42 3 42 63 0 60 0 60 -43 63 -34 3 -43 7 -40 20 2 11 15 18 38 20 48 5
70 27 70 71 0 58 -20 86 -60 86 -32 1 -35 4 -38 33 -3 26 -8 32 -28 32 -21 0
-24 -5 -24 -35z m93 -85 c5 -4 7 -18 5 -31 -3 -22 -8 -24 -69 -27 -72 -3 -92
8 -83 45 4 15 16 23 38 26 38 5 98 -3 109 -13z m2 -190 c3 -5 1 -19 -5 -30 -9
-17 -21 -20 -71 -20 -63 0 -84 15 -59 45 14 17 125 21 135 5z"/>
<path d="M430 633 c-60 -6 -82 -13 -77 -26 2 -8 37 -14 98 -17 94 -5 94 -5 94
-40 0 -35 0 -35 -85 -38 -65 -2 -88 -6 -97 -19 -9 -12 -13 -71 -13 -208 0
-173 2 -194 18 -208 28 -25 84 -22 110 6 20 21 22 34 22 144 0 97 3 122 15
126 19 8 29 -10 31 -58 3 -115 18 -266 27 -272 5 -3 16 1 24 9 12 13 13 37 2
182 -12 157 -14 169 -35 183 -30 19 -79 9 -99 -20 -11 -16 -15 -51 -15 -144 0
-123 0 -123 -24 -123 -31 0 -36 26 -36 199 0 93 4 141 12 149 7 7 42 12 85 12
60 0 77 4 93 20 29 29 27 94 -5 125 -25 25 -47 28 -145 18z"/>
</g>
</svg>
