<svg version="1.0" xmlns="http://www.w3.org/2000/svg"
 width="97.000000pt" height="113.000000pt" viewBox="0 0 97.000000 113.000000"
 preserveAspectRatio="xMidYMid meet">
<metadata>
Created by potrace 1.15, written by Peter Selinger 2001-2017
</metadata>
<g transform="translate(0.000000,113.000000) scale(0.100000,-0.100000)"
fill="#000000" stroke="none">
<path d="M516 1013 c-3 -4 -6 -71 -6 -150 0 -144 0 -144 -147 -142 -161 2
-240 -6 -261 -28 -8 -8 -13 -15 -11 -17 67 -50 58 -48 238 -40 95 4 170 3 173
-2 3 -5 1 -66 -5 -137 -11 -127 -11 -127 -47 -137 -19 -5 -49 -10 -66 -10 -57
0 -196 -28 -249 -51 -11 -4 -31 -10 -45 -11 -25 -4 -24 -4 10 -26 53 -34 76
-36 169 -17 47 10 115 21 151 25 36 4 73 11 83 15 10 4 28 3 40 -2 12 -6 36
-17 52 -24 17 -8 33 -18 37 -23 8 -12 -1 -37 -22 -56 -25 -24 -52 -89 -45
-110 14 -44 52 -18 123 83 29 41 36 42 131 17 52 -13 102 -5 95 15 -7 17 -67
57 -114 75 -19 7 -37 15 -38 16 -2 1 4 19 13 38 12 24 16 49 12 73 -7 39 -17
55 -24 35 -3 -7 -11 -18 -18 -25 -7 -7 -20 -28 -29 -46 -22 -43 -36 -46 -79
-21 -55 33 -67 66 -67 191 0 123 -9 112 101 124 53 6 119 35 119 53 0 19 -55
32 -130 32 -47 0 -80 4 -80 10 0 6 12 32 26 58 21 39 36 53 85 76 66 31 72 37
63 61 -5 12 -13 15 -28 10 -34 -10 -89 -26 -112 -32 -17 -4 -25 4 -45 46 -23
49 -40 66 -53 54z"/>
<path d="M210 579 c-14 -6 -37 -11 -52 -11 -46 -2 -69 -40 -66 -106 3 -54 5
-57 40 -76 35 -18 43 -18 125 -6 79 13 91 17 121 48 70 75 18 163 -95 161 -26
0 -59 -5 -73 -10z m138 -71 c5 -27 -54 -58 -110 -58 -47 0 -48 1 -48 30 0 38
25 50 100 47 43 -2 56 -6 58 -19z"/>
</g>
</svg>
