<svg version="1.0" xmlns="http://www.w3.org/2000/svg"
 width="41.000000pt" height="59.000000pt" viewBox="0 0 41.000000 59.000000"
 preserveAspectRatio="xMidYMid meet">
<metadata>
Created by potrace 1.15, written by Peter Selinger 2001-2017
</metadata>
<g transform="translate(0.000000,59.000000) scale(0.100000,-0.100000)"
fill="#000000" stroke="none">
<path d="M204 402 c-28 -31 -56 -73 -62 -92 -15 -50 -20 -172 -6 -177 10 -3
23 45 39 149 6 38 48 98 68 98 6 0 24 -15 40 -32 23 -27 27 -39 22 -68 -3 -19
-8 -70 -12 -112 -6 -82 4 -102 26 -50 16 38 19 220 5 230 -6 4 -24 31 -39 60
-15 28 -28 52 -29 52 0 0 -24 -26 -52 -58z"/>
<path d="M196 321 c-4 -5 -2 -13 4 -16 6 -4 8 -15 5 -24 -11 -34 5 -51 46 -51
36 0 39 2 39 28 0 16 -6 35 -12 44 -16 20 -74 33 -82 19z"/>
<path d="M174 166 c-3 -13 -4 -36 -2 -52 2 -22 10 -30 38 -37 40 -10 60 8 60
54 0 51 -84 82 -96 35z m56 -37 c0 -6 -4 -7 -10 -4 -5 3 -10 11 -10 16 0 6 5
7 10 4 6 -3 10 -11 10 -16z"/>
</g>
</svg>
