<svg version="1.0" xmlns="http://www.w3.org/2000/svg"
 width="49.000000pt" height="91.000000pt" viewBox="0 0 49.000000 91.000000"
 preserveAspectRatio="xMidYMid meet">
<metadata>
Created by potrace 1.15, written by Peter Selinger 2001-2017
</metadata>
<g transform="translate(0.000000,91.000000) scale(0.100000,-0.100000)"
fill="#000000" stroke="none">
<path d="M266 732 c-8 -25 -40 -62 -54 -62 -5 0 -15 14 -21 31 -13 39 -33 33
-44 -12 -43 -176 -45 -224 -14 -293 37 -81 42 -126 19 -173 -42 -83 -53 -101
-67 -113 -17 -14 -20 -50 -5 -50 5 0 25 16 44 35 20 19 38 35 41 35 3 0 5 -12
5 -27 0 -46 15 -59 34 -32 9 13 16 31 16 41 0 28 23 21 50 -17 14 -19 28 -35
33 -35 16 0 5 30 -33 89 -48 73 -51 108 -13 136 89 65 93 72 93 146 0 74 21
168 45 206 9 13 15 36 13 51 -3 24 -8 27 -40 28 -37 1 -50 -9 -25 -19 8 -4 9
-8 2 -14 -6 -4 -12 -21 -13 -36 -1 -15 -6 -36 -12 -46 -5 -10 -12 -62 -16
-115 -6 -83 -10 -100 -31 -124 -25 -27 -25 -27 -19 8 3 19 9 85 12 145 4 85
11 120 27 152 17 33 19 47 11 60 -15 25 -31 27 -38 5z m-59 -227 c-1 -52 -5
-95 -9 -95 -11 0 -27 71 -24 105 5 52 18 95 27 89 5 -2 7 -47 6 -99z"/>
</g>
</svg>
