<svg version="1.0" xmlns="http://www.w3.org/2000/svg"
 width="61.000000pt" height="84.000000pt" viewBox="0 0 61.000000 84.000000"
 preserveAspectRatio="xMidYMid meet">
<metadata>
Created by potrace 1.15, written by Peter Selinger 2001-2017
</metadata>
<g transform="translate(0.000000,84.000000) scale(0.100000,-0.100000)"
fill="#000000" stroke="none">
<path d="M496 741 c-9 -10 -16 -25 -16 -34 0 -24 -52 -47 -104 -47 -38 0 -43
2 -39 19 6 24 -13 61 -32 61 -11 0 -15 -12 -15 -40 0 -50 -10 -54 -93 -46 -58
7 -64 10 -74 37 -6 16 -16 29 -22 29 -16 0 -14 -36 4 -70 15 -28 18 -29 98
-32 82 -3 82 -3 85 -41 3 -38 3 -38 -75 -35 -77 3 -78 3 -81 31 -4 30 -19 32
-36 5 -7 -12 -6 -25 2 -43 12 -27 12 -27 195 -23 212 4 230 9 225 66 -4 50
-35 58 -40 10 -3 -31 -6 -33 -55 -42 -71 -12 -83 -5 -83 44 0 40 0 40 55 40
61 0 105 18 129 52 32 46 7 98 -28 59z"/>
<path d="M93 453 c-7 -2 -13 -11 -13 -19 0 -11 16 -14 65 -14 50 0 65 -3 65
-15 0 -8 -15 -18 -35 -24 -19 -5 -48 -19 -64 -30 -25 -18 -30 -30 -36 -81 -9
-81 4 -230 20 -230 17 0 25 55 25 176 0 113 2 117 65 129 49 8 75 30 75 62 0
20 5 23 35 23 28 0 37 -5 50 -30 9 -18 26 -32 43 -36 119 -26 125 -36 116
-187 -5 -85 -4 -116 5 -122 27 -16 36 16 36 128 0 140 -11 170 -69 191 -22 8
-50 16 -61 18 -11 2 -21 11 -23 21 -3 15 5 17 56 17 64 0 92 6 92 21 0 9 -425
11 -447 2z"/>
<path d="M215 303 c-52 -8 -57 -19 -53 -105 2 -56 8 -82 18 -89 9 -6 60 -8
123 -6 129 4 139 10 145 94 3 47 0 63 -15 82 -18 22 -29 25 -104 27 -46 1 -97
0 -114 -3z m179 -42 c30 -33 11 -41 -100 -41 -82 0 -104 3 -104 14 0 31 35 43
126 45 49 1 64 -3 78 -18z m16 -80 c0 -5 -13 -19 -29 -30 -52 -37 -171 -22
-179 22 -3 15 8 17 102 17 59 0 106 -4 106 -9z"/>
</g>
</svg>
