<svg version="1.0" xmlns="http://www.w3.org/2000/svg"
 width="63.000000pt" height="111.000000pt" viewBox="0 0 63.000000 111.000000"
 preserveAspectRatio="xMidYMid meet">
<metadata>
Created by potrace 1.15, written by Peter Selinger 2001-2017
</metadata>
<g transform="translate(0.000000,111.000000) scale(0.100000,-0.100000)"
fill="#000000" stroke="none">
<path d="M355 953 c4 -10 14 -54 22 -98 14 -77 14 -80 -8 -120 -13 -22 -31
-48 -40 -58 -16 -18 -22 -38 -36 -114 -3 -18 -9 -33 -13 -33 -5 0 -20 24 -35
54 -21 44 -25 62 -20 97 4 24 12 50 17 57 30 35 -11 212 -49 212 -9 0 -13 -7
-10 -17 30 -112 30 -115 18 -186 -7 -40 -17 -86 -22 -104 -13 -42 18 -109 72
-158 21 -19 39 -40 39 -46 0 -7 -18 -44 -40 -82 -57 -99 -30 -119 30 -22 12
19 25 35 30 35 5 0 11 -18 15 -40 4 -22 11 -42 15 -45 16 -10 28 29 25 74 -4
43 -4 43 28 15 18 -16 33 -32 35 -36 4 -9 32 -11 32 -3 0 18 -34 66 -64 93
-20 17 -36 33 -36 36 0 2 16 21 35 42 19 22 35 43 35 48 0 4 6 6 14 3 8 -3 31
9 51 26 34 30 36 36 40 104 2 40 6 77 10 82 7 13 -14 99 -27 107 -17 10 -19
-2 -23 -117 -3 -114 -3 -114 -36 -139 -17 -14 -53 -47 -80 -74 -48 -49 -48
-49 -42 10 5 49 11 65 39 94 30 31 34 42 34 88 0 29 5 73 11 96 9 37 8 49 -7
77 -24 48 -77 85 -59 42z"/>
<path d="M68 368 c-5 -176 7 -273 38 -305 16 -17 72 -29 144 -32 36 -1 72 -3
80 -3 54 -4 81 5 111 33 19 18 45 35 59 39 31 8 43 66 29 142 -5 29 -12 74
-16 101 -3 30 -10 47 -19 47 -11 0 -14 -19 -14 -80 0 -80 0 -80 -179 -80 -179
0 -179 0 -185 35 -4 20 -4 40 -1 45 13 21 -6 116 -26 128 -18 12 -19 8 -21
-70z m415 -189 c-6 -53 -14 -69 -33 -69 -11 0 -20 -4 -20 -8 0 -16 -87 -33
-141 -27 -147 16 -137 13 -148 52 -6 20 -8 40 -5 44 2 4 48 6 102 4 53 -2 111
1 127 5 116 33 121 33 118 -1z"/>
</g>
</svg>
