<svg version="1.0" xmlns="http://www.w3.org/2000/svg"
 width="72.000000pt" height="95.000000pt" viewBox="0 0 72.000000 95.000000"
 preserveAspectRatio="xMidYMid meet">
<metadata>
Created by potrace 1.15, written by Peter Selinger 2001-2017
</metadata>
<g transform="translate(0.000000,95.000000) scale(0.100000,-0.100000)"
fill="#000000" stroke="none">
<path d="M254 740 c-43 -10 -104 -48 -104 -65 0 -25 20 -27 56 -6 44 26 52 27
30 2 -30 -33 2 -35 43 -2 62 49 87 38 29 -12 -38 -33 -23 -32 59 4 53 23 53
23 93 0 40 -22 60 -21 60 4 0 20 -48 51 -109 69 -58 17 -105 19 -157 6z"/>
<path d="M272 598 c-69 -15 -77 -37 -77 -201 0 -139 0 -139 31 -167 68 -61
219 -45 269 28 16 24 25 51 25 77 1 40 1 40 25 12 29 -33 30 -45 10 -94 -19
-44 -19 -43 4 -43 35 0 77 80 111 211 14 54 0 92 -46 128 -52 41 -72 20 -29
-31 14 -17 25 -42 25 -59 0 -35 -6 -36 -37 -7 -36 34 -38 13 -3 -31 20 -24 30
-46 26 -56 -5 -14 -9 -13 -35 6 -16 12 -34 18 -40 15 -8 -5 -11 13 -11 56 0
96 -15 137 -55 154 -38 16 -128 17 -193 2z m180 -32 c21 -16 36 -76 19 -76 -6
0 -11 14 -11 31 0 41 -24 33 -28 -9 -4 -43 -22 -41 -22 2 0 19 -5 38 -10 41
-10 6 -14 -1 -24 -47 -9 -40 -26 -34 -26 8 0 28 -3 35 -17 32 -12 -2 -19 -14
-21 -36 -4 -40 -18 -41 -27 -1 -8 36 -29 33 -33 -4 -2 -15 -8 -27 -13 -27 -15
0 0 41 23 67 11 12 30 24 42 26 48 10 132 6 148 -7z m-202 -171 c0 -19 -4 -35
-10 -35 -5 0 -10 16 -10 35 0 19 5 35 10 35 6 0 10 -16 10 -35z m60 0 c0 -19
-4 -35 -10 -35 -5 0 -10 16 -10 35 0 19 5 35 10 35 6 0 10 -16 10 -35z m120 5
c0 -16 -4 -30 -10 -30 -5 0 -10 14 -10 30 0 17 5 30 10 30 6 0 10 -13 10 -30z
m58 3 c-4 -39 -28 -42 -28 -4 0 21 5 31 16 31 11 0 14 -8 12 -27z m-118 -8 c0
-14 -4 -25 -10 -25 -5 0 -10 11 -10 25 0 14 5 25 10 25 6 0 10 -11 10 -25z
m110 -86 c0 -12 -14 -34 -31 -50 -27 -26 -38 -29 -93 -29 -69 0 -98 12 -78 32
6 6 12 22 12 35 0 13 5 23 10 23 6 0 10 -11 10 -25 0 -14 5 -25 10 -25 6 0 15
11 20 25 13 34 30 32 30 -4 0 -17 5 -33 11 -37 14 -8 29 14 29 44 0 12 5 22
10 22 6 0 10 -9 10 -20 0 -28 18 -25 26 5 8 30 24 33 24 4z m-221 -44 c0 -20
0 -20 -9 0 -5 11 -9 29 -9 40 0 20 0 20 9 0 5 -11 9 -29 9 -40z"/>
<path d="M100 538 c-36 -59 -52 -127 -54 -220 -1 -90 -1 -90 34 -119 58 -49
82 -33 35 23 -14 16 -25 41 -25 56 0 25 0 25 23 4 13 -12 29 -22 35 -22 22 0
12 24 -25 62 -20 21 -34 41 -30 45 4 4 13 1 19 -5 12 -12 48 -17 48 -7 0 3
-12 23 -26 45 -26 40 -26 40 0 95 15 30 25 59 21 65 -12 19 -35 10 -55 -22z"/>
<path d="M356 145 c-46 -41 -52 -42 -111 -13 -46 23 -67 19 -49 -10 18 -27
135 -82 178 -82 58 0 156 64 156 102 0 27 -24 22 -48 -12 -31 -42 -48 -38 -22
6 33 53 15 54 -34 1 -24 -26 -51 -47 -60 -47 -22 0 -21 4 14 38 28 29 39 52
23 52 -5 -1 -26 -16 -47 -35z"/>
</g>
</svg>
