<svg version="1.0" xmlns="http://www.w3.org/2000/svg"
 width="64.000000pt" height="81.000000pt" viewBox="0 0 64.000000 81.000000"
 preserveAspectRatio="xMidYMid meet">
<metadata>
Created by potrace 1.15, written by Peter Selinger 2001-2017
</metadata>
<g transform="translate(0.000000,81.000000) scale(0.100000,-0.100000)"
fill="#000000" stroke="none">
<path d="M302 533 c-28 -40 -36 -94 -22 -153 17 -72 36 -80 174 -71 136 9 140
13 132 121 -9 123 -5 120 -157 128 -106 4 -106 4 -127 -25z m106 -61 c3 -34
-3 -37 -45 -26 -28 8 -32 50 -5 57 35 10 47 2 50 -31z m114 8 c-4 -33 -16 -43
-41 -35 -26 8 -29 51 -3 58 33 9 47 2 44 -23z m-116 -86 c-3 -9 -6 -20 -6 -25
0 -6 -12 -9 -27 -7 -20 2 -29 9 -31 26 -3 19 1 22 33 22 30 0 36 -3 31 -16z
m114 5 c0 -22 -22 -49 -40 -49 -24 0 -31 11 -23 38 4 16 13 22 34 22 16 0 29
-5 29 -11z"/>
<path d="M103 541 c-58 -7 -68 -13 -60 -36 5 -11 21 -15 64 -14 89 2 117 11
121 37 3 20 -1 22 -35 21 -21 -1 -61 -5 -90 -8z"/>
<path d="M145 411 c-66 -7 -85 -15 -85 -37 0 -11 15 -14 66 -14 36 0 74 5 85
10 21 12 26 51 7 48 -7 0 -40 -4 -73 -7z"/>
<path d="M312 247 c-49 -12 -55 -40 -9 -45 25 -3 27 -7 27 -47 0 -76 2 -75
-130 -75 -66 0 -121 -3 -123 -7 -3 -5 -1 -18 4 -30 8 -22 8 -22 241 -16 171 4
237 9 247 18 30 28 26 169 -5 200 -18 18 -181 19 -252 2z m116 -71 c2 -16 1
-44 -3 -63 -5 -28 -10 -34 -28 -31 -19 3 -21 8 -18 58 3 64 7 72 29 68 10 -2
18 -15 20 -32z m86 28 c11 -4 16 -19 16 -44 0 -54 -8 -70 -36 -70 -22 0 -24 4
-24 48 0 26 5 53 12 60 14 14 12 14 32 6z"/>
<path d="M60 235 c-7 -8 -9 -22 -6 -31 5 -13 18 -15 84 -9 76 7 111 23 98 44
-11 18 -161 14 -176 -4z"/>
</g>
</svg>
