<svg version="1.0" xmlns="http://www.w3.org/2000/svg"
 width="66.000000pt" height="77.000000pt" viewBox="0 0 66.000000 77.000000"
 preserveAspectRatio="xMidYMid meet">
<metadata>
Created by potrace 1.15, written by Peter Selinger 2001-2017
</metadata>
<g transform="translate(0.000000,77.000000) scale(0.100000,-0.100000)"
fill="#000000" stroke="none">
<path d="M391 640 c-82 -9 -99 -20 -108 -73 -7 -44 6 -63 50 -73 18 -3 40 -11
50 -16 16 -8 14 -13 -21 -38 -22 -16 -42 -32 -45 -37 -3 -4 -7 -87 -8 -183 -4
-158 -2 -175 13 -178 27 -5 36 50 30 190 -5 126 -5 126 23 153 25 26 28 26 43
11 14 -14 17 -42 17 -188 1 -134 4 -173 14 -176 27 -9 32 27 29 218 -3 195 -3
195 33 198 36 3 36 3 42 -65 4 -37 7 -123 7 -191 0 -102 3 -124 16 -129 8 -3
22 1 30 8 11 12 13 49 7 208 -7 228 -7 227 -94 217 -42 -4 -60 -2 -68 8 -7 8
-36 17 -67 21 -55 7 -55 7 -52 38 3 32 3 32 126 35 101 2 124 5 129 18 13 34
-39 40 -196 24z"/>
<path d="M62 564 c-22 -15 -22 -19 -22 -235 0 -206 1 -220 20 -239 28 -28 90
-27 116 1 17 19 19 41 22 234 3 205 2 215 -17 234 -25 25 -87 28 -119 5z m96
-204 c1 -96 0 -185 -3 -197 -7 -31 -41 -48 -61 -32 -13 11 -15 42 -12 197 3
169 5 185 23 198 46 34 50 21 53 -166z"/>
</g>
</svg>
