<svg version="1.0" xmlns="http://www.w3.org/2000/svg"
 width="74.000000pt" height="82.000000pt" viewBox="0 0 74.000000 82.000000"
 preserveAspectRatio="xMidYMid meet">
<metadata>
Created by potrace 1.15, written by Peter Selinger 2001-2017
</metadata>
<g transform="translate(0.000000,82.000000) scale(0.100000,-0.100000)"
fill="#000000" stroke="none">
<path d="M347 673 c-3 -5 -10 -37 -17 -73 -18 -100 -24 -110 -65 -110 -40 0
-42 7 -24 90 7 31 7 56 2 61 -15 15 -48 -17 -50 -48 -3 -51 -23 -127 -49 -188
-38 -87 -84 -178 -101 -197 -8 -9 -13 -25 -11 -35 8 -33 69 46 128 165 55 111
55 111 94 112 29 0 37 -3 33 -14 -3 -8 -11 -32 -16 -53 -10 -35 -94 -206 -152
-310 -24 -43 -18 -74 7 -38 58 80 74 109 125 220 5 11 13 27 18 35 23 37 61
121 61 134 0 24 20 29 41 10 24 -22 24 -65 0 -140 -23 -70 -79 -204 -93 -221
-13 -16 -1 -34 18 -26 18 7 50 66 80 148 12 33 33 92 48 130 14 39 26 79 26
90 0 31 -27 63 -60 70 -29 6 -30 8 -24 48 3 23 10 59 16 79 9 30 8 39 -5 52
-17 18 -24 19 -30 9z"/>
<path d="M665 628 c-2 -7 -6 -42 -7 -78 -3 -65 -3 -65 -68 -65 -75 0 -85 13
-54 70 9 18 14 40 11 49 -10 26 -50 16 -58 -14 -4 -14 -7 -118 -8 -231 -1
-240 -1 -240 80 -246 66 -5 107 17 133 70 14 31 16 66 14 244 -3 189 -5 208
-21 211 -9 2 -19 -2 -22 -10z m-5 -220 c0 -18 -5 -73 -10 -123 -10 -99 -27
-125 -79 -125 -46 0 -51 14 -51 152 0 128 0 128 70 128 70 0 70 0 70 -32z"/>
</g>
</svg>
