<svg version="1.0" xmlns="http://www.w3.org/2000/svg"
 width="45.000000pt" height="101.000000pt" viewBox="0 0 45.000000 101.000000"
 preserveAspectRatio="xMidYMid meet">
<metadata>
Created by potrace 1.15, written by Peter Selinger 2001-2017
</metadata>
<g transform="translate(0.000000,101.000000) scale(0.100000,-0.100000)"
fill="#000000" stroke="none">
<path d="M185 853 c-44 -94 -55 -132 -55 -199 0 -58 6 -83 33 -141 8 -18 6
-32 -10 -65 -25 -52 -43 -126 -43 -173 0 -19 -5 -55 -12 -80 -9 -34 -9 -48 -1
-56 20 -20 53 48 53 106 0 71 33 185 53 185 5 0 20 -13 34 -30 23 -28 63 -41
63 -21 0 6 -13 35 -29 66 -18 34 -27 64 -23 77 3 11 31 48 64 81 53 55 58 65
58 104 0 26 -5 43 -12 43 -14 0 -56 -47 -105 -119 -34 -49 -38 -52 -50 -35 -7
10 -13 31 -13 48 0 30 4 48 35 143 18 55 17 114 -1 120 -6 2 -24 -22 -39 -54z"/>
</g>
</svg>
