<svg version="1.0" xmlns="http://www.w3.org/2000/svg"
 width="37.000000pt" height="91.000000pt" viewBox="0 0 37.000000 91.000000"
 preserveAspectRatio="xMidYMid meet">
<metadata>
Created by potrace 1.15, written by Peter Selinger 2001-2017
</metadata>
<g transform="translate(0.000000,91.000000) scale(0.100000,-0.100000)"
fill="#000000" stroke="none">
<path d="M217 724 c-11 -11 -8 -83 4 -105 5 -11 9 -37 7 -57 -3 -37 -3 -37
-27 1 -13 21 -28 36 -35 34 -14 -5 -9 -57 8 -77 33 -40 38 -66 22 -98 -8 -16
-21 -36 -28 -44 -22 -23 -40 -60 -33 -66 3 -3 16 0 28 7 12 8 30 19 39 25 9 5
20 7 24 3 4 -4 11 -51 15 -104 4 -54 9 -100 10 -103 6 -20 18 94 18 183 1 81
5 114 17 132 16 24 15 39 -10 208 -3 22 -50 70 -59 61z"/>
</g>
</svg>
