<svg version="1.0" xmlns="http://www.w3.org/2000/svg"
 width="65.000000pt" height="95.000000pt" viewBox="0 0 65.000000 95.000000"
 preserveAspectRatio="xMidYMid meet">
<metadata>
Created by potrace 1.15, written by Peter Selinger 2001-2017
</metadata>
<g transform="translate(0.000000,95.000000) scale(0.100000,-0.100000)"
fill="#000000" stroke="none">
<path d="M98 854 c-18 -17 -5 -24 45 -24 48 0 114 -19 179 -51 32 -17 68 -87
68 -135 0 -35 -1 -36 -27 -30 -50 13 -207 17 -223 7 -21 -15 -9 -21 51 -27 76
-7 130 -25 156 -51 22 -22 22 -22 -4 -68 -33 -60 -84 -93 -164 -106 -35 -6
-65 -12 -68 -14 -2 -3 9 -10 25 -16 28 -11 100 0 144 21 8 4 29 14 45 21 17 8
37 23 46 34 16 19 17 18 28 -20 6 -22 11 -47 11 -56 0 -24 59 -140 91 -179 44
-52 46 -54 64 -90 22 -42 35 -27 25 30 -15 79 -42 185 -50 190 -4 3 -9 16 -12
30 -7 30 -36 112 -57 160 -8 19 -17 69 -18 110 -2 41 -9 93 -16 115 -15 50
-64 100 -123 125 -48 21 -203 38 -216 24z"/>
</g>
</svg>
