<svg version="1.0" xmlns="http://www.w3.org/2000/svg"
 width="47.000000pt" height="99.000000pt" viewBox="0 0 47.000000 99.000000"
 preserveAspectRatio="xMidYMid meet">
<metadata>
Created by potrace 1.15, written by Peter Selinger 2001-2017
</metadata>
<g transform="translate(0.000000,99.000000) scale(0.100000,-0.100000)"
fill="#000000" stroke="none">
<path d="M190 815 c0 -14 12 -45 61 -153 35 -78 14 -127 -27 -64 -32 49 -74
76 -74 47 0 -8 4 -15 8 -15 10 0 72 -117 72 -136 0 -7 -11 -33 -24 -56 -64
-115 -79 -148 -73 -155 11 -10 52 33 77 83 13 24 26 44 30 44 9 0 30 -158 30
-223 0 -25 4 -48 9 -51 17 -11 21 58 15 224 -6 146 -5 170 9 191 20 28 21 46
4 79 -7 14 -19 46 -26 73 -8 26 -18 47 -22 47 -5 0 -9 7 -9 15 0 23 -30 65
-46 65 -8 0 -14 -7 -14 -15z"/>
</g>
</svg>
