<svg version="1.0" xmlns="http://www.w3.org/2000/svg"
 width="33.000000pt" height="77.000000pt" viewBox="0 0 33.000000 77.000000"
 preserveAspectRatio="xMidYMid meet">
<metadata>
Created by potrace 1.15, written by Peter Selinger 2001-2017
</metadata>
<g transform="translate(0.000000,77.000000) scale(0.100000,-0.100000)"
fill="#000000" stroke="none">
<path d="M190 577 c0 -19 5 -71 11 -116 16 -120 1 -160 -35 -90 -14 28 -84 85
-93 76 -3 -4 3 -17 15 -30 12 -13 22 -29 22 -35 0 -7 4 -12 9 -12 5 0 18 -20
30 -45 21 -44 21 -44 -12 -97 -17 -29 -36 -56 -42 -60 -5 -4 -6 -10 -2 -14 4
-4 15 2 24 12 10 11 29 28 42 37 24 16 25 16 38 -14 7 -17 13 -45 13 -63 1
-17 7 -44 14 -61 13 -30 13 -30 20 21 6 40 3 68 -14 125 -15 50 -19 74 -11 77
6 2 11 12 11 22 0 10 5 22 11 26 25 15 -12 251 -42 269 -5 4 -9 -9 -9 -28z"/>
</g>
</svg>
