<svg version="1.0" xmlns="http://www.w3.org/2000/svg"
 width="85.000000pt" height="145.000000pt" viewBox="0 0 85.000000 145.000000"
 preserveAspectRatio="xMidYMid meet">
<metadata>
Created by potrace 1.15, written by Peter Selinger 2001-2017
</metadata>
<g transform="translate(0.000000,145.000000) scale(0.100000,-0.100000)"
fill="#000000" stroke="none">
<path d="M133 1377 c-23 -7 -45 -15 -49 -19 -4 -5 -16 -8 -27 -8 -11 0 -17 -3
-13 -7 8 -8 11 -8 184 -12 78 -2 128 -9 162 -21 51 -19 140 -93 140 -117 0 -7
4 -21 9 -31 18 -32 30 -107 24 -148 -6 -46 -8 -46 -75 0 -16 10 -65 31 -110
47 -75 26 -96 29 -215 29 -73 0 -133 -4 -133 -8 0 -14 76 -33 123 -32 23 1 53
-1 67 -4 14 -3 39 -8 55 -12 53 -11 146 -63 189 -107 73 -73 72 -69 36 -133
-53 -98 -132 -151 -205 -139 -44 6 -85 33 -85 54 0 7 -9 21 -20 33 -20 22 -20
22 -20 -8 0 -31 32 -91 59 -111 14 -11 63 -23 116 -28 24 -3 94 33 115 59 72
89 76 84 83 -107 9 -226 38 -299 162 -414 96 -89 114 -83 64 21 -11 22 -19 47
-19 56 0 9 -4 20 -9 25 -17 18 -55 218 -66 343 -8 100 -9 104 -16 117 -3 6 -7
32 -8 59 -2 28 -12 69 -23 92 -18 39 -19 50 -9 113 18 113 14 200 -10 241 -27
46 -103 115 -156 141 -47 23 -176 49 -238 48 -22 -1 -59 -6 -82 -12z"/>
</g>
</svg>
