<svg version="1.0" xmlns="http://www.w3.org/2000/svg"
 width="35.000000pt" height="67.000000pt" viewBox="0 0 35.000000 67.000000"
 preserveAspectRatio="xMidYMid meet">
<metadata>
Created by potrace 1.15, written by Peter Selinger 2001-2017
</metadata>
<g transform="translate(0.000000,67.000000) scale(0.100000,-0.100000)"
fill="#000000" stroke="none">
<path d="M190 425 c0 -11 11 -33 25 -49 24 -28 32 -56 19 -69 -3 -3 -24 5 -45
19 -54 34 -71 30 -26 -7 20 -17 37 -35 37 -40 0 -17 -55 -88 -77 -98 -13 -6
-23 -15 -23 -21 0 -21 28 -9 73 30 25 22 50 40 56 40 6 0 14 -13 18 -30 3 -16
9 -30 14 -30 4 0 9 -19 11 -42 2 -25 7 -41 13 -38 16 8 9 92 -13 142 -12 28
-17 50 -12 53 14 8 12 52 -2 78 -6 12 -24 35 -39 52 -25 26 -29 28 -29 10z"/>
</g>
</svg>
