<svg version="1.0" xmlns="http://www.w3.org/2000/svg"
 width="37.000000pt" height="75.000000pt" viewBox="0 0 37.000000 75.000000"
 preserveAspectRatio="xMidYMid meet">
<metadata>
Created by potrace 1.15, written by Peter Selinger 2001-2017
</metadata>
<g transform="translate(0.000000,75.000000) scale(0.100000,-0.100000)"
fill="#000000" stroke="none">
<path d="M263 583 c-16 -6 -17 -54 -1 -88 9 -21 8 -32 -6 -62 -17 -36 -17 -36
-65 11 -63 62 -77 44 -22 -29 44 -59 45 -70 2 -116 -26 -28 -52 -77 -44 -82
11 -7 36 13 57 46 10 15 22 27 27 27 5 0 9 -36 9 -79 0 -79 6 -111 20 -111 6
0 19 109 25 225 2 22 12 56 24 75 26 43 26 66 2 129 -13 35 -15 51 -7 55 6 2
7 4 1 4 -5 0 -16 -2 -22 -5z"/>
<path d="M40 480 c0 -5 13 -10 29 -10 17 0 33 5 36 10 4 6 -8 10 -29 10 -20 0
-36 -4 -36 -10z"/>
</g>
</svg>
