<svg version="1.0" xmlns="http://www.w3.org/2000/svg"
 width="45.000000pt" height="67.000000pt" viewBox="0 0 45.000000 67.000000"
 preserveAspectRatio="xMidYMid meet">
<metadata>
Created by potrace 1.15, written by Peter Selinger 2001-2017
</metadata>
<g transform="translate(0.000000,67.000000) scale(0.100000,-0.100000)"
fill="#000000" stroke="none">
<path d="M216 502 c-2 -4 3 -32 13 -62 18 -54 13 -110 -9 -110 -5 0 -24 21
-41 48 -33 48 -50 64 -58 57 -6 -6 30 -85 39 -85 3 0 14 -16 23 -35 16 -33 16
-38 1 -68 -9 -18 -25 -44 -35 -59 -28 -39 -24 -54 9 -32 15 9 34 26 43 36 27
30 42 21 84 -52 22 -38 41 -67 44 -65 3 4 -21 72 -56 158 -15 34 -15 40 2 77
16 35 16 45 5 87 -21 78 -51 126 -64 105z"/>
</g>
</svg>
