<svg version="1.0" xmlns="http://www.w3.org/2000/svg"
 width="45.000000pt" height="51.000000pt" viewBox="0 0 45.000000 51.000000"
 preserveAspectRatio="xMidYMid meet">
<metadata>
Created by potrace 1.15, written by Peter Selinger 2001-2017
</metadata>
<g transform="translate(0.000000,51.000000) scale(0.100000,-0.100000)"
fill="#000000" stroke="none">
<path d="M160 402 c0 -4 12 -29 26 -56 14 -26 23 -51 19 -54 -3 -4 -9 -2 -13
4 -10 15 -49 27 -56 16 -2 -4 11 -20 30 -35 38 -31 41 -46 17 -88 -22 -36 -8
-52 18 -20 17 21 22 22 33 10 7 -8 21 -41 31 -74 10 -33 20 -54 23 -46 6 18
-18 153 -30 166 -4 5 -8 27 -8 50 -1 41 -10 63 -46 108 -21 26 -44 36 -44 19z"/>
</g>
</svg>
