<svg version="1.0" xmlns="http://www.w3.org/2000/svg"
 width="63.000000pt" height="86.000000pt" viewBox="0 0 63.000000 86.000000"
 preserveAspectRatio="xMidYMid meet">
<metadata>
Created by potrace 1.15, written by Peter Selinger 2001-2017
</metadata>
<g transform="translate(0.000000,86.000000) scale(0.100000,-0.100000)"
fill="#000000" stroke="none">
<path d="M480 677 c0 -13 7 -32 15 -43 21 -27 18 -54 -10 -110 -31 -62 -31
-91 0 -156 30 -63 30 -62 4 -141 -18 -54 -19 -70 -9 -105 7 -27 16 -42 27 -42
12 0 14 6 8 28 -17 71 -17 92 4 125 11 18 23 51 27 73 5 34 2 45 -21 72 -15
18 -29 49 -32 70 -4 33 -1 44 26 74 35 40 37 54 15 83 -8 11 -19 36 -25 57
-11 42 -29 51 -29 15z"/>
<path d="M297 684 c-4 -4 -7 -69 -7 -145 0 -138 0 -138 -29 -153 -49 -26 -74
-102 -51 -160 13 -35 67 -67 100 -60 56 13 108 45 120 75 26 62 -10 140 -71
153 -25 5 -29 10 -29 40 0 18 -3 48 -6 65 -6 28 -4 31 18 31 13 0 32 6 42 13
15 11 15 15 4 24 -7 6 -24 13 -38 15 -22 3 -25 9 -28 48 -3 46 -13 66 -25 54z
m85 -341 c21 -19 25 -85 6 -101 -7 -6 -33 -18 -57 -28 -44 -17 -44 -17 -73 14
-39 45 -38 84 5 111 39 25 94 27 119 4z"/>
<path d="M135 623 c17 -39 18 -126 2 -157 -65 -130 -71 -175 -36 -257 27 -62
22 -114 -16 -163 -31 -40 -25 -45 21 -17 30 18 64 74 64 105 0 9 -11 44 -25
78 -14 34 -25 77 -25 96 0 38 46 151 69 168 18 14 8 99 -14 124 -8 9 -15 22
-15 28 0 7 -7 12 -16 12 -12 0 -14 -5 -9 -17z"/>
</g>
</svg>
