<svg version="1.0" xmlns="http://www.w3.org/2000/svg"
 width="49.000000pt" height="69.000000pt" viewBox="0 0 49.000000 69.000000"
 preserveAspectRatio="xMidYMid meet">
<metadata>
Created by potrace 1.15, written by Peter Selinger 2001-2017
</metadata>
<g transform="translate(0.000000,69.000000) scale(0.100000,-0.100000)"
fill="#000000" stroke="none">
<path d="M431 613 c-8 -3 -46 -38 -84 -76 -37 -39 -71 -67 -75 -61 -4 5 -19
15 -34 23 -16 8 -28 18 -28 23 0 4 -5 8 -10 8 -6 0 -25 16 -42 36 -25 28 -37
34 -62 32 -25 -2 -31 -8 -31 -26 0 -17 11 -29 40 -45 22 -12 48 -30 59 -39 11
-10 24 -18 29 -18 17 0 37 -29 37 -52 0 -14 -10 -34 -22 -46 -55 -52 -58 -58
-58 -115 0 -80 29 -126 79 -127 22 0 23 -3 18 -39 -6 -45 4 -66 27 -58 11 4
16 19 16 46 0 34 6 46 41 78 31 30 42 48 46 81 7 49 -20 118 -49 128 -12 3
-18 16 -18 35 0 21 14 44 55 86 78 83 95 104 95 120 0 14 -6 15 -29 6z"/>
</g>
</svg>
