<svg version="1.0" xmlns="http://www.w3.org/2000/svg"
 width="64.000000pt" height="81.000000pt" viewBox="0 0 64.000000 81.000000"
 preserveAspectRatio="xMidYMid meet">
<metadata>
Created by potrace 1.15, written by Peter Selinger 2001-2017
</metadata>
<g transform="translate(0.000000,81.000000) scale(0.100000,-0.100000)"
fill="#000000" stroke="none">
<path d="M437 684 c-4 -4 -7 -15 -7 -25 0 -14 -14 -18 -82 -25 -73 -8 -83 -11
-83 -29 0 -19 6 -20 83 -18 83 1 83 1 80 -24 -2 -22 -12 -29 -58 -45 -64 -21
-90 -48 -90 -93 0 -41 20 -58 79 -65 34 -4 47 -10 49 -23 7 -35 -41 -138 -94
-205 -53 -66 -67 -102 -40 -102 58 0 186 214 186 313 0 45 -24 65 -85 69 -90
6 -60 57 44 74 37 6 42 10 51 46 16 57 9 152 -10 156 -9 1 -19 0 -23 -4z"/>
<path d="M551 666 c-8 -9 -11 -97 -9 -302 3 -289 3 -289 28 -289 25 0 25 0 28
289 2 280 -1 316 -28 316 -4 0 -13 -6 -19 -14z"/>
<path d="M186 528 c-3 -7 -6 -22 -8 -33 -2 -16 -12 -21 -44 -23 -38 -3 -42 0
-48 23 -5 20 -12 26 -28 23 -32 -4 -43 -65 -27 -152 11 -62 16 -69 45 -83 24
-12 43 -14 80 -7 69 13 85 47 82 169 -3 85 -4 90 -26 93 -12 2 -24 -3 -26 -10z
m4 -134 c0 -46 -17 -64 -60 -64 -40 0 -40 0 -40 38 0 21 3 42 7 45 3 4 26 7
50 7 40 0 43 -2 43 -26z"/>
</g>
</svg>
