<svg version="1.0" xmlns="http://www.w3.org/2000/svg"
 width="107.000000pt" height="133.000000pt" viewBox="0 0 107.000000 133.000000"
 preserveAspectRatio="xMidYMid meet">
<metadata>
Created by potrace 1.15, written by Peter Selinger 2001-2017
</metadata>
<g transform="translate(0.000000,133.000000) scale(0.100000,-0.100000)"
fill="#000000" stroke="none">
<path d="M365 1190 c-3 -5 1 -26 9 -47 7 -21 21 -63 30 -93 16 -51 16 -55 -1
-67 -9 -7 -33 -13 -54 -13 -21 0 -47 -8 -62 -20 -14 -11 -37 -20 -50 -20 -14
0 -29 -4 -32 -10 -3 -5 -18 -10 -33 -10 -16 -1 -42 -14 -64 -33 -44 -39 -83
-104 -65 -110 9 -3 9 -8 -1 -19 -9 -11 -10 -18 -2 -23 7 -4 10 -121 10 -351 0
-344 0 -344 25 -344 28 0 26 -15 30 197 2 67 6 127 10 134 5 6 7 39 6 73 -1
34 -2 66 -2 71 0 6 2 24 5 40 3 17 7 61 10 100 4 38 11 74 16 79 6 6 10 17 10
26 0 31 35 56 110 79 41 13 84 27 96 33 11 5 36 8 54 6 31 -3 33 -6 36 -43 1
-22 7 -56 13 -75 6 -19 14 -73 17 -120 6 -81 5 -88 -25 -150 -29 -59 -54 -91
-171 -218 -22 -23 -40 -49 -40 -57 0 -24 35 -17 64 12 179 187 186 193 226
193 30 0 40 -5 45 -20 3 -11 10 -20 14 -20 5 0 14 -13 21 -30 7 -16 16 -30 20
-30 4 0 27 -21 51 -46 37 -38 91 -74 114 -74 10 0 5 48 -10 83 -8 20 -23 38
-32 41 -19 6 -107 87 -133 121 -19 26 -42 83 -45 112 -1 13 -5 26 -8 30 -4 3
-7 32 -7 64 0 32 -4 61 -10 64 -5 3 -10 13 -10 20 0 8 -13 36 -30 62 -16 26
-30 49 -30 52 0 24 122 42 135 21 3 -5 15 -10 26 -10 10 0 19 -4 19 -10 0 -5
14 -10 30 -10 17 0 30 -4 30 -9 0 -5 13 -11 29 -14 16 -4 41 -18 55 -32 14
-14 30 -25 35 -25 6 0 13 -12 16 -27 4 -16 13 -41 22 -56 8 -16 13 -37 10 -47
-3 -11 -1 -20 4 -22 4 -2 9 -18 11 -35 1 -18 5 -33 8 -33 9 0 35 -248 33 -308
-2 -29 2 -52 8 -52 11 0 7 -58 -5 -78 -4 -7 -4 -17 0 -24 4 -6 10 -24 13 -39
6 -27 8 -28 31 -16 20 10 27 24 37 77 6 36 10 67 8 70 -2 3 -7 60 -10 125 -4
66 -11 137 -16 158 -6 22 -12 82 -14 135 -1 54 -6 115 -10 137 -7 39 -48 95
-69 95 -6 0 -26 16 -43 35 -18 19 -41 35 -52 35 -11 0 -30 10 -43 23 -15 16
-45 27 -88 35 -133 25 -147 32 -172 82 -12 25 -30 57 -40 72 -10 14 -18 32
-18 40 0 35 -89 84 -105 58z"/>
</g>
</svg>
