<svg version="1.0" xmlns="http://www.w3.org/2000/svg"
 width="63.000000pt" height="167.000000pt" viewBox="0 0 63.000000 167.000000"
 preserveAspectRatio="xMidYMid meet">
<metadata>
Created by potrace 1.15, written by Peter Selinger 2001-2017
</metadata>
<g transform="translate(0.000000,167.000000) scale(0.100000,-0.100000)"
fill="#000000" stroke="none">
<path d="M355 1598 c-2 -7 -6 -38 -7 -68 -3 -55 -3 -55 -67 -58 -64 -3 -64 -3
-57 57 6 55 5 60 -15 66 -35 11 -42 -7 -35 -87 18 -199 14 -183 61 -233 48
-50 50 -57 60 -225 3 -52 7 -112 10 -134 6 -39 -9 -144 -24 -181 -24 -58 -38
-84 -65 -120 -31 -41 -43 -53 -109 -110 -22 -19 -34 -36 -28 -40 6 -3 17 -2
25 2 27 15 124 110 136 132 6 13 27 39 46 59 60 63 66 89 62 247 -3 77 -3 146
-1 153 3 6 16 12 29 12 63 0 114 61 114 134 0 57 -19 63 -128 40 -32 -7 -33
-6 -21 20 7 14 16 26 20 26 16 0 29 67 29 147 0 46 5 94 11 105 8 15 8 27 0
44 -11 26 -39 32 -46 12z m-22 -216 c-1 -23 -9 -49 -17 -57 -36 -36 -86 -1
-86 61 0 41 6 45 60 42 45 -3 45 -3 43 -46z m117 -191 c0 -39 -43 -81 -84 -81
-31 0 -32 1 -28 35 4 36 19 50 71 66 40 11 41 11 41 -20z"/>
<path d="M520 822 c0 -4 5 -13 12 -20 7 -7 17 -33 24 -59 10 -40 10 -52 -3
-77 -14 -26 -17 -28 -27 -13 -7 9 -18 35 -25 59 -19 64 -25 73 -55 76 -29 4
-33 -4 -13 -27 14 -17 47 -113 47 -137 0 -19 -57 -18 -76 0 -8 8 -14 19 -14
24 0 13 -28 24 -34 13 -3 -4 5 -26 16 -48 20 -39 52 -63 83 -63 22 0 19 -12
-19 -93 -52 -109 -59 -127 -71 -190 -10 -50 -9 -69 5 -120 18 -67 57 -137 78
-137 19 0 14 27 -14 78 -21 37 -27 61 -27 112 -1 72 14 121 69 231 54 107 54
107 54 128 0 19 18 38 54 56 19 9 21 20 24 95 3 77 1 87 -19 103 -21 17 -69
24 -69 9z"/>
</g>
</svg>
