<svg version="1.0" xmlns="http://www.w3.org/2000/svg"
 width="69.000000pt" height="89.000000pt" viewBox="0 0 69.000000 89.000000"
 preserveAspectRatio="xMidYMid meet">
<metadata>
Created by potrace 1.15, written by Peter Selinger 2001-2017
</metadata>
<g transform="translate(0.000000,89.000000) scale(0.100000,-0.100000)"
fill="#000000" stroke="none">
<path d="M293 697 c4 -13 9 -36 13 -51 6 -23 -2 -36 -54 -90 -68 -70 -92 -118
-92 -182 0 -96 49 -135 174 -142 70 -4 88 -1 130 19 40 19 56 35 79 77 24 45
28 61 23 96 -4 23 -15 56 -26 73 -20 33 -86 76 -132 87 -44 10 -35 -20 12 -44
93 -47 118 -162 49 -224 -33 -29 -33 -29 -56 -2 -27 31 -28 39 -9 55 10 9 20
9 40 0 35 -16 45 -4 18 23 -21 22 -21 22 -1 55 23 37 15 41 -30 16 -28 -17
-32 -17 -47 -2 -15 15 -15 19 0 41 21 32 10 42 -25 21 -22 -13 -32 -14 -40 -6
-9 9 -5 20 15 43 29 36 32 58 12 115 -10 28 -21 41 -36 43 -20 3 -22 0 -17
-21z m4 -213 c3 -8 -1 -22 -9 -30 -12 -12 -17 -12 -33 -1 -23 17 -14 47 15 47
11 0 23 -7 27 -16z m-47 -79 c0 -7 -9 -23 -20 -36 -19 -24 -19 -24 -20 8 0 47
9 66 26 52 8 -6 14 -17 14 -24z m116 -4 c-11 -18 -36 -13 -36 7 0 10 3 22 7
26 10 10 37 -20 29 -33z m-52 -47 c15 -39 -43 -80 -72 -50 -14 14 -14 18 8 41
27 28 55 33 64 9z m67 -54 c31 -17 22 -30 -21 -30 -41 0 -49 7 -28 28 15 15
24 15 49 2z"/>
<path d="M152 174 c-13 -9 -12 -12 4 -19 25 -10 305 -19 338 -11 36 9 32 24
-6 30 -68 11 -321 11 -336 0z"/>
<path d="M136 67 c-33 -25 0 -31 191 -35 139 -3 187 -1 198 8 31 26 -5 33
-187 38 -149 3 -187 1 -202 -11z"/>
</g>
</svg>
