<svg version="1.0" xmlns="http://www.w3.org/2000/svg"
 width="70.000000pt" height="72.000000pt" viewBox="0 0 70.000000 72.000000"
 preserveAspectRatio="xMidYMid meet">
<metadata>
Created by potrace 1.15, written by Peter Selinger 2001-2017
</metadata>
<g transform="translate(0.000000,72.000000) scale(0.100000,-0.100000)"
fill="#000000" stroke="none">
<path d="M582 644 c-13 -9 -34 -33 -48 -55 -13 -21 -31 -39 -40 -39 -9 0 -29
-7 -44 -17 -29 -16 -51 -69 -66 -156 -9 -53 -42 -97 -102 -136 -32 -21 -52
-41 -52 -52 0 -24 -1 -24 54 7 70 39 124 106 131 162 12 87 16 99 46 128 42
40 51 23 32 -61 -30 -134 -88 -216 -217 -308 -102 -73 -104 -76 -87 -87 23
-14 86 25 166 102 109 104 164 201 180 316 4 28 10 52 13 52 13 0 29 -15 41
-38 30 -56 -44 -224 -144 -327 -36 -37 -65 -72 -65 -76 0 -5 10 -9 21 -9 13 0
47 26 88 68 59 60 72 81 109 172 56 139 57 187 6 234 -31 28 -35 36 -25 54 6
11 24 25 41 30 32 12 40 36 14 46 -23 9 -27 8 -52 -10z"/>
<path d="M50 590 c0 -13 12 -28 30 -38 33 -19 37 -37 15 -66 -17 -23 -21 -137
-5 -166 26 -48 161 -50 208 -3 24 24 24 29 20 119 -5 94 -5 94 28 119 37 28
42 42 19 51 -8 3 -34 -10 -59 -31 -44 -36 -47 -36 -103 -29 -45 5 -63 13 -84
35 -32 35 -69 39 -69 9z m204 -89 c7 -11 -31 -61 -47 -61 -15 0 -57 41 -57 57
0 15 95 19 104 4z m-93 -73 c9 -17 7 -25 -10 -42 -19 -18 -23 -19 -31 -6 -11
17 -13 63 -4 73 10 9 34 -4 45 -25z m129 -12 c0 -43 -12 -52 -35 -26 -17 19
-17 21 0 40 26 29 35 25 35 -14z m-58 -53 c25 -23 23 -30 -14 -36 -50 -7 -60
0 -41 29 18 28 30 30 55 7z"/>
</g>
</svg>
