<svg version="1.0" xmlns="http://www.w3.org/2000/svg"
 width="68.000000pt" height="84.000000pt" viewBox="0 0 68.000000 84.000000"
 preserveAspectRatio="xMidYMid meet">
<metadata>
Created by potrace 1.15, written by Peter Selinger 2001-2017
</metadata>
<g transform="translate(0.000000,84.000000) scale(0.100000,-0.100000)"
fill="#000000" stroke="none">
<path d="M380 749 c0 -7 15 -35 33 -63 40 -63 42 -123 5 -182 -48 -75 -56
-106 -62 -226 -4 -82 -10 -128 -22 -150 -17 -33 -17 -33 -30 12 -19 63 -36
240 -32 335 3 80 3 80 51 89 73 13 52 30 -49 39 -97 9 -249 -4 -267 -22 -20
-20 14 -32 75 -27 80 8 78 23 37 -277 -5 -37 -20 -97 -34 -133 -29 -78 -29
-74 -11 -74 22 0 44 42 60 116 9 38 25 109 36 157 11 49 20 115 20 147 0 43 4
59 15 64 9 3 18 0 20 -7 2 -6 6 -86 8 -177 3 -141 7 -173 26 -222 13 -33 21
-73 19 -94 -4 -45 12 -53 42 -22 45 46 76 154 89 303 6 73 13 98 35 133 15 24
33 68 39 98 11 51 10 56 -24 121 -25 50 -40 69 -57 71 -12 2 -22 -2 -22 -9z"/>
<path d="M525 718 c17 -56 26 -106 25 -138 -1 -31 -9 -52 -49 -127 -21 -39
-39 -132 -39 -199 0 -82 -31 -157 -79 -192 -23 -17 -26 -23 -15 -34 11 -11 20
-5 53 32 56 63 74 111 89 229 11 83 16 101 29 99 9 -2 22 -16 30 -33 11 -23
12 -38 3 -72 -18 -66 -15 -144 8 -196 23 -51 37 -64 52 -49 6 6 4 25 -6 56
-20 59 -20 111 -1 166 26 72 20 105 -26 155 -39 42 -40 44 -25 72 25 50 31
144 11 184 -32 62 -76 96 -60 47z"/>
<path d="M64 689 c-15 -24 19 -33 126 -34 76 0 113 4 122 13 10 11 10 15 -2
22 -21 14 -237 13 -246 -1z"/>
</g>
</svg>
