<svg version="1.0" xmlns="http://www.w3.org/2000/svg"
 width="68.000000pt" height="84.000000pt" viewBox="0 0 68.000000 84.000000"
 preserveAspectRatio="xMidYMid meet">
<metadata>
Created by potrace 1.15, written by Peter Selinger 2001-2017
</metadata>
<g transform="translate(0.000000,84.000000) scale(0.100000,-0.100000)"
fill="#000000" stroke="none">
<path d="M437 631 c-4 -16 -18 -41 -32 -55 -35 -35 -35 -97 0 -124 14 -11 25
-27 25 -36 0 -13 -13 -16 -80 -16 -66 0 -80 3 -80 16 0 8 13 20 29 25 27 10
51 44 51 74 0 7 -16 32 -35 55 -19 23 -35 46 -35 51 0 5 -7 9 -15 9 -8 0 -15
-6 -15 -12 0 -7 -13 -24 -30 -38 -43 -36 -50 -81 -16 -115 34 -34 34 -49 -1
-41 -41 10 -71 49 -78 103 -9 64 -13 75 -25 68 -13 -8 -13 -114 1 -154 12 -35
70 -71 114 -71 26 0 26 -1 -19 -52 -25 -29 -46 -57 -46 -63 0 -22 52 -64 86
-71 30 -5 40 -2 65 22 37 35 36 51 -2 103 -17 24 -29 44 -27 46 2 1 38 5 81 7
83 4 102 -9 50 -34 -38 -18 -44 -82 -13 -116 44 -47 130 -12 130 54 0 33 -28
74 -51 74 -5 0 -7 5 -3 11 8 14 65 3 76 -14 13 -21 9 -95 -9 -131 -23 -49 -27
-50 -270 -81 -53 -6 -100 -34 -113 -66 -7 -16 -10 -32 -7 -35 2 -3 28 9 56 26
37 23 71 35 124 41 204 27 225 35 252 102 21 51 20 151 -2 172 -20 21 -57 35
-89 35 -37 0 -27 32 17 54 14 7 30 29 39 53 14 41 13 43 -10 68 -13 14 -30 25
-37 25 -7 0 -16 14 -19 30 -8 38 -30 39 -37 1z m51 -73 c21 -21 14 -58 -14
-68 -35 -14 -42 -13 -53 9 -8 14 -6 25 10 45 22 28 39 32 57 14z m-184 -20
c14 -23 -3 -52 -33 -56 -42 -6 -67 38 -39 66 17 17 58 11 72 -10z m-28 -264
c8 -29 -9 -46 -41 -42 -26 4 -32 38 -9 55 27 20 43 16 50 -13z m199 -9 c0 -25
-4 -31 -27 -33 -22 -3 -29 2 -34 22 -8 34 3 48 34 44 23 -2 27 -8 27 -33z"/>
</g>
</svg>
