<svg version="1.0" xmlns="http://www.w3.org/2000/svg"
 width="51.000000pt" height="73.000000pt" viewBox="0 0 51.000000 73.000000"
 preserveAspectRatio="xMidYMid meet">
<metadata>
Created by potrace 1.15, written by Peter Selinger 2001-2017
</metadata>
<g transform="translate(0.000000,73.000000) scale(0.100000,-0.100000)"
fill="#000000" stroke="none">
<path d="M205 590 c-4 -6 -3 -35 0 -65 7 -55 7 -55 -34 -55 -22 0 -41 -4 -41
-8 0 -16 25 -32 50 -32 20 0 28 -7 37 -31 11 -28 10 -36 -7 -59 -11 -16 -20
-33 -20 -39 0 -14 37 -14 46 0 4 8 10 6 17 -6 7 -13 5 -20 -7 -27 -9 -5 -16
-22 -16 -39 0 -30 -30 -55 -38 -31 -5 16 -32 15 -32 -1 0 -7 11 -29 25 -49 14
-20 25 -40 25 -43 0 -10 27 -35 38 -35 5 0 12 30 16 66 7 65 19 103 38 115 6
4 1 24 -11 47 -27 54 -27 63 8 103 16 18 27 37 25 41 -3 4 -20 10 -39 14 -20
3 -35 12 -35 20 0 8 5 14 10 14 6 0 10 6 10 14 0 7 14 27 30 44 35 37 36 42
12 42 -10 0 -28 -11 -40 -25 -29 -33 -42 -32 -42 5 0 30 -13 40 -25 20z"/>
</g>
</svg>
