<svg version="1.0" xmlns="http://www.w3.org/2000/svg"
 width="68.000000pt" height="85.000000pt" viewBox="0 0 68.000000 85.000000"
 preserveAspectRatio="xMidYMid meet">
<metadata>
Created by potrace 1.15, written by Peter Selinger 2001-2017
</metadata>
<g transform="translate(0.000000,85.000000) scale(0.100000,-0.100000)"
fill="#000000" stroke="none">
<path d="M443 713 c-30 -6 -53 -40 -53 -79 0 -37 1 -36 -136 -55 -100 -14
-124 -10 -124 20 0 23 10 26 114 41 72 9 93 20 81 40 -13 21 -194 -7 -225 -35
-24 -21 -27 -77 -5 -95 22 -18 88 -24 142 -12 26 6 71 13 98 14 44 3 50 1 50
-17 0 -16 -9 -22 -45 -28 -25 -4 -65 -12 -90 -17 -25 -5 -62 -11 -83 -15 -63
-10 -70 -33 -73 -214 -1 -86 -5 -173 -9 -193 -6 -30 -4 -38 8 -38 33 0 39 28
44 206 6 176 6 176 48 194 45 19 196 43 207 32 3 -4 8 -20 10 -37 3 -28 8 -31
60 -44 55 -13 57 -15 72 -59 9 -25 16 -70 16 -100 0 -45 3 -53 18 -50 22 4 28
64 12 138 -16 73 -34 100 -68 100 -50 0 -72 11 -72 35 0 26 17 35 65 35 37 0
55 17 34 31 -8 5 -34 8 -59 7 -38 -3 -45 0 -45 16 0 15 14 22 64 35 94 23 95
45 2 39 -68 -5 -71 -4 -71 17 0 32 31 55 73 55 39 0 58 17 36 31 -14 9 -56 10
-96 2z"/>
<path d="M323 433 c-16 -6 -18 -295 -3 -324 10 -17 7 -19 -23 -19 -56 0 -62
17 -60 154 3 132 -1 156 -23 156 -11 0 -14 -15 -14 -62 0 -35 -3 -99 -6 -143
-6 -77 -6 -82 21 -113 25 -30 31 -32 93 -32 86 0 282 21 282 30 0 4 -7 13 -15
20 -12 10 -35 10 -115 0 -55 -8 -102 -11 -105 -8 -3 2 -1 30 3 62 7 58 7 58
52 75 27 10 46 24 48 35 4 16 -1 18 -33 12 -20 -4 -42 -9 -49 -12 -15 -6 -26
43 -26 118 0 48 -6 59 -27 51z"/>
</g>
</svg>
