<svg version="1.0" xmlns="http://www.w3.org/2000/svg"
 width="119.000000pt" height="181.000000pt" viewBox="0 0 119.000000 181.000000"
 preserveAspectRatio="xMidYMid meet">
<metadata>
Created by potrace 1.15, written by Peter Selinger 2001-2017
</metadata>
<g transform="translate(0.000000,181.000000) scale(0.100000,-0.100000)"
fill="#000000" stroke="none">
<path d="M1025 1685 c-32 -49 -83 -92 -135 -113 -49 -21 -49 -21 -55 -1 -4 11
-4 31 -1 45 7 28 -9 64 -28 64 -8 0 -16 -12 -19 -27 -3 -16 -11 -50 -17 -78
-6 -27 -12 -93 -13 -145 -2 -94 -2 -94 -87 -107 -47 -6 -93 -12 -102 -13 -10
0 -18 -5 -18 -10 0 -19 53 -32 135 -33 80 -2 80 -2 86 -72 3 -38 13 -96 22
-128 10 -32 17 -71 17 -87 0 -16 5 -32 10 -35 6 -3 10 -17 10 -31 0 -13 4 -32
8 -42 53 -107 54 -112 48 -149 -14 -84 -18 -165 -8 -175 6 -6 19 9 37 46 24
50 45 72 45 48 0 -13 31 -46 63 -66 27 -18 27 -18 27 10 0 16 -10 41 -23 56
-63 75 -60 66 -46 121 6 29 15 57 19 62 14 17 22 82 12 89 -10 6 -66 -51 -74
-75 -8 -24 -24 0 -45 68 -31 98 -63 272 -63 340 0 43 0 43 79 43 77 0 79 -1
118 -37 22 -21 48 -50 57 -65 10 -16 23 -28 28 -28 11 0 1 74 -15 105 -5 11
-13 27 -17 35 -12 26 -99 49 -187 50 -94 0 -93 -1 -64 77 20 56 41 83 64 83 8
0 41 17 74 39 65 42 87 77 81 132 -3 34 -3 34 -23 4z"/>
<path d="M220 1499 c-30 -4 -73 -9 -95 -10 -56 -2 -75 -8 -75 -24 0 -9 21 -15
68 -20 108 -10 107 -9 120 -62 6 -26 12 -104 14 -173 3 -142 7 -137 -99 -139
-51 -1 -103 -17 -103 -32 0 -6 22 -11 110 -23 14 -1 44 -4 68 -4 42 -2 42 -2
42 -159 0 -179 -8 -206 -73 -236 -33 -16 -38 -16 -71 0 -20 9 -36 20 -36 25 0
4 -9 8 -20 8 -18 0 -20 -5 -16 -42 5 -59 11 -70 52 -96 46 -30 116 -37 224
-23 146 18 181 34 214 98 19 39 22 127 4 121 -7 -3 -14 -14 -16 -26 -2 -13
-17 -28 -38 -38 -30 -15 -41 -15 -74 -4 -50 17 -63 33 -78 95 -9 40 -17 203
-13 263 1 8 19 12 56 12 56 0 125 21 125 38 0 15 -25 21 -103 28 -40 4 -78 11
-84 16 -15 12 -17 334 -2 344 5 3 35 8 67 10 31 3 67 7 79 10 26 5 55 32 48
45 -7 11 -218 10 -295 -2z"/>
<path d="M657 510 c-8 -32 32 -227 79 -382 4 -13 -9 -21 -63 -38 -78 -25 -108
-43 -98 -61 6 -8 28 -10 79 -4 126 12 149 14 276 19 69 3 133 5 143 5 26 1 21
30 -8 41 -25 9 -77 18 -148 24 -21 2 -40 6 -44 9 -3 4 8 36 26 72 23 50 31 79
30 118 -2 91 -26 134 -40 72 -9 -38 -41 -123 -58 -154 -13 -24 -13 -24 -27 0
-7 13 -13 34 -14 46 0 12 -4 25 -10 28 -5 3 -10 15 -10 26 0 11 -13 40 -29 63
-17 24 -35 64 -42 90 -12 48 -33 61 -42 26z"/>
</g>
</svg>
