<svg version="1.0" xmlns="http://www.w3.org/2000/svg"
 width="105.000000pt" height="169.000000pt" viewBox="0 0 105.000000 169.000000"
 preserveAspectRatio="xMidYMid meet">
<metadata>
Created by potrace 1.15, written by Peter Selinger 2001-2017
</metadata>
<g transform="translate(0.000000,169.000000) scale(0.100000,-0.100000)"
fill="#000000" stroke="none">
<path d="M539 1563 c-7 -17 -8 -60 -5 -108 3 -44 9 -135 12 -201 7 -121 7
-121 -32 -128 -74 -13 -169 -38 -179 -47 -5 -5 -16 -9 -25 -9 -27 0 -225 -106
-225 -121 0 -17 55 -26 64 -10 4 5 29 15 56 22 28 6 58 15 67 20 10 5 27 9 37
9 11 0 23 5 26 10 3 6 19 10 34 10 15 0 31 4 36 8 14 11 73 29 120 37 40 6 40
6 51 -41 11 -46 10 -46 -20 -65 -17 -10 -36 -23 -43 -28 -7 -6 -16 -11 -21
-11 -4 0 -17 -8 -28 -17 -27 -25 -111 -83 -119 -83 -3 0 -15 -9 -26 -19 -12
-11 -46 -33 -77 -50 -66 -35 -132 -90 -132 -109 0 -17 79 -7 95 11 15 17 123
87 135 87 5 0 10 5 10 10 0 6 6 10 13 10 7 0 22 8 33 18 10 10 44 32 74 49 30
16 71 40 90 51 19 12 38 22 42 22 4 0 17 -32 28 -71 12 -38 29 -89 39 -112 38
-89 38 -87 -44 -172 -41 -43 -75 -74 -76 -69 -1 12 -6 35 -26 131 -17 76 -40
123 -62 123 -16 0 -20 -69 -11 -183 4 -62 5 -134 1 -162 -6 -49 -6 -49 -41 -5
-40 50 -60 86 -60 106 0 8 -4 14 -8 14 -4 0 -16 14 -25 30 -20 33 -47 40 -47
13 1 -66 56 -179 118 -241 59 -59 73 -69 155 -114 12 -7 24 -15 27 -18 10 -10
112 -70 119 -70 4 0 25 -8 47 -19 47 -22 124 -34 143 -22 7 5 9 11 5 14 -48
28 -87 47 -99 47 -8 0 -15 3 -15 8 0 4 -13 13 -28 19 -15 7 -55 31 -89 53 -34
22 -65 40 -67 40 -3 0 -17 10 -31 22 -43 37 -29 82 53 168 19 19 46 51 60 70
24 31 61 70 67 70 2 0 22 -29 45 -64 23 -36 50 -75 61 -87 10 -12 19 -25 19
-29 0 -3 25 -32 55 -63 60 -62 95 -74 95 -33 0 13 -4 26 -8 28 -4 1 -23 23
-42 48 -19 24 -44 55 -55 67 -11 13 -29 40 -40 60 -11 21 -28 47 -37 57 -26
28 -93 170 -121 256 -29 88 -61 245 -53 258 3 5 35 3 78 -5 153 -30 171 -31
188 -15 11 12 12 16 2 20 -6 2 -12 10 -12 18 0 8 -8 14 -18 14 -10 0 -22 4
-27 8 -6 5 -30 14 -55 21 -25 7 -59 17 -76 22 -17 5 -38 9 -47 9 -22 0 -21 9
1 29 10 9 29 32 42 51 13 19 37 49 52 65 15 17 28 35 28 41 0 6 7 17 15 24 18
15 65 113 65 135 0 8 5 15 11 15 6 0 9 12 7 27 -4 39 -32 41 -48 3 -7 -16 -16
-30 -21 -30 -5 0 -9 -6 -9 -13 0 -7 -8 -22 -18 -33 -10 -10 -30 -40 -45 -66
-29 -50 -114 -148 -128 -148 -5 0 -9 17 -9 38 0 60 -61 302 -76 302 -3 0 -9
-12 -15 -27z"/>
</g>
</svg>
