<svg version="1.0" xmlns="http://www.w3.org/2000/svg"
 width="45.000000pt" height="83.000000pt" viewBox="0 0 45.000000 83.000000"
 preserveAspectRatio="xMidYMid meet">
<metadata>
Created by potrace 1.15, written by Peter Selinger 2001-2017
</metadata>
<g transform="translate(0.000000,83.000000) scale(0.100000,-0.100000)"
fill="#000000" stroke="none">
<path d="M270 613 c0 -10 -12 -26 -26 -36 -23 -17 -27 -18 -43 -3 -26 23 -31
20 -31 -18 0 -56 -8 -66 -50 -66 -22 0 -42 -5 -45 -10 -12 -19 16 -40 52 -40
29 0 36 -5 48 -32 8 -21 10 -39 4 -50 -13 -25 -12 -28 16 -28 31 0 37 -14 27
-59 -9 -43 -29 -52 -34 -14 -2 16 -10 29 -20 31 -21 4 -32 -42 -23 -102 12
-78 99 -144 100 -75 1 32 37 78 100 127 30 22 30 23 8 28 -24 7 -31 28 -13 39
6 3 10 17 10 31 0 21 -19 37 -20 17 0 -5 -7 -17 -15 -27 -14 -19 -15 -19 -39
9 -19 21 -22 33 -15 46 12 24 11 29 -5 29 -8 0 -18 5 -21 11 -5 7 12 9 49 8
31 -1 59 1 63 4 10 11 -28 35 -74 46 -24 6 -43 16 -43 21 0 6 4 10 8 10 5 0
15 12 23 27 8 14 26 31 41 38 26 10 27 12 12 33 -18 26 -44 29 -44 5z m10
-347 c0 -3 -4 -8 -10 -11 -5 -3 -10 -1 -10 4 0 6 5 11 10 11 6 0 10 -2 10 -4z"/>
</g>
</svg>
