<svg version="1.0" xmlns="http://www.w3.org/2000/svg"
 width="65.000000pt" height="92.000000pt" viewBox="0 0 65.000000 92.000000"
 preserveAspectRatio="xMidYMid meet">
<metadata>
Created by potrace 1.15, written by Peter Selinger 2001-2017
</metadata>
<g transform="translate(0.000000,92.000000) scale(0.100000,-0.100000)"
fill="#000000" stroke="none">
<path d="M321 666 c-8 -9 -8 -28 -1 -66 5 -29 10 -54 10 -55 0 -2 -20 -6 -45
-9 -72 -11 -75 -19 -75 -170 0 -89 4 -136 12 -144 8 -8 50 -12 125 -12 155 0
153 -3 146 166 -6 147 -13 161 -76 166 -42 3 -42 3 -42 58 -1 31 -5 61 -9 68
-10 16 -31 15 -45 -2z m111 -185 c3 -3 8 -24 10 -46 3 -40 3 -40 -87 -46 -49
-4 -93 -5 -97 -2 -10 5 -10 65 0 79 17 26 48 34 107 28 33 -3 63 -9 67 -13z
m3 -176 c0 -40 0 -40 -79 -48 -101 -10 -108 -7 -104 40 3 37 4 38 48 44 25 4
65 6 90 5 45 -1 45 -1 45 -41z"/>
<path d="M70 630 c-11 -7 -12 -61 -7 -280 5 -243 8 -274 24 -292 17 -20 26
-20 242 -15 190 4 226 8 240 22 33 33 -9 40 -239 40 -215 0 -215 0 -218 261
-2 270 -5 287 -42 264z"/>
</g>
</svg>
