<svg version="1.0" xmlns="http://www.w3.org/2000/svg"
 width="63.000000pt" height="85.000000pt" viewBox="0 0 63.000000 85.000000"
 preserveAspectRatio="xMidYMid meet">
<metadata>
Created by potrace 1.15, written by Peter Selinger 2001-2017
</metadata>
<g transform="translate(0.000000,85.000000) scale(0.100000,-0.100000)"
fill="#000000" stroke="none">
<path d="M394 775 c-4 -8 -3 -30 0 -49 5 -24 2 -37 -9 -46 -16 -13 -21 -40 -6
-40 4 0 20 10 35 21 21 16 30 19 39 10 9 -9 9 -16 -1 -29 -34 -48 -27 -65 13
-28 16 15 32 26 36 26 20 0 7 -36 -23 -67 -31 -32 -31 -33 -9 -33 26 0 91 60
91 83 0 17 -57 70 -99 92 -19 9 -32 26 -36 45 -7 32 -22 39 -31 15z"/>
<path d="M210 750 c0 -14 -24 -46 -65 -85 -36 -35 -65 -72 -65 -83 0 -20 49
-72 68 -72 15 0 15 9 -3 40 -8 14 -14 33 -15 44 0 19 1 19 63 -1 22 -7 22 14
0 39 -13 14 -14 21 -5 30 9 9 20 8 47 -5 20 -9 38 -17 40 -17 11 0 4 25 -12
43 -10 10 -18 33 -18 50 0 22 -5 33 -17 35 -13 2 -18 -3 -18 -18z"/>
<path d="M268 603 c-33 -3 -48 -9 -48 -19 0 -7 5 -14 10 -14 6 0 10 -25 10
-55 0 -54 0 -54 -41 -66 -68 -21 -77 -39 -108 -234 -7 -38 -19 -89 -28 -113
-12 -33 -13 -46 -4 -55 31 -31 68 70 87 239 9 83 17 95 43 63 17 -20 19 -33
14 -72 -4 -31 -1 -57 7 -72 10 -19 10 -30 1 -54 -26 -62 39 -99 124 -70 39 14
40 16 41 59 0 25 6 62 13 83 7 20 10 49 7 65 -3 18 3 42 19 72 23 45 23 45 39
8 11 -25 16 -69 16 -135 0 -129 9 -203 25 -203 22 0 24 22 15 176 -9 189 -20
219 -84 235 -46 11 -46 11 -46 60 0 27 5 58 12 69 7 10 10 21 7 24 -8 8 -81
13 -131 9z m72 -54 c0 -16 -5 -20 -27 -17 -17 2 -29 10 -31 21 -3 13 3 17 27
17 25 0 31 -4 31 -21z m0 -74 c0 -21 -5 -25 -30 -25 -25 0 -30 4 -30 25 0 21
5 25 30 25 25 0 30 -4 30 -25z m70 -64 c0 -14 -32 -51 -44 -51 -7 0 -23 11
-36 25 -13 14 -29 25 -36 25 -6 0 -19 -11 -28 -25 -18 -27 -38 -32 -54 -12
-26 31 -18 42 38 47 66 6 160 1 160 -9z m-90 -60 c8 -16 6 -21 -11 -26 -28 -9
-46 9 -29 30 17 20 27 19 40 -4z m38 -90 c5 -34 -16 -51 -64 -51 -37 0 -46 4
-56 24 -19 43 -6 54 59 52 51 -3 58 -6 61 -25z m-35 -101 c13 0 17 -6 15 -22
-2 -18 -10 -24 -39 -26 -44 -4 -69 19 -48 44 7 9 21 13 33 10 12 -3 29 -6 39
-6z"/>
<path d="M265 241 c-3 -5 0 -13 5 -16 15 -9 60 3 60 15 0 13 -57 13 -65 1z"/>
</g>
</svg>
