<svg version="1.0" xmlns="http://www.w3.org/2000/svg"
 width="109.000000pt" height="183.000000pt" viewBox="0 0 109.000000 183.000000"
 preserveAspectRatio="xMidYMid meet">
<metadata>
Created by potrace 1.15, written by Peter Selinger 2001-2017
</metadata>
<g transform="translate(0.000000,183.000000) scale(0.100000,-0.100000)"
fill="#000000" stroke="none">
<path d="M320 1757 c-14 -6 -27 -12 -29 -14 -8 -5 42 -53 55 -53 22 0 120
-103 148 -156 31 -57 29 -86 -6 -105 -33 -18 -128 -38 -179 -39 -47 0 -47 0
-53 54 -8 59 -48 111 -83 104 -20 -4 -23 -44 -11 -130 8 -48 8 -48 -22 -48
-17 0 -30 -4 -30 -9 0 -12 56 -52 62 -45 3 2 54 6 114 8 60 2 122 9 137 15 16
6 39 11 53 11 14 0 43 9 66 20 40 19 41 19 57 1 35 -40 130 -79 246 -101 28
-6 61 -12 75 -16 14 -3 33 1 45 9 16 13 17 17 6 31 -7 9 -20 16 -27 16 -16 0
-19 16 -5 24 19 12 23 95 5 131 -28 59 -45 44 -68 -57 -10 -43 -22 -78 -27
-78 -4 0 -18 4 -31 9 -13 5 -50 20 -83 32 -66 26 -105 55 -105 78 0 31 26 86
53 115 15 16 27 33 27 37 0 22 37 49 65 49 37 0 83 20 90 39 7 18 -13 41 -36
41 -10 0 -20 4 -23 9 -9 14 -77 21 -273 25 -127 3 -196 1 -213 -7z m293 -84
c20 -3 37 -11 37 -17 0 -15 -79 -104 -80 -90 0 7 -13 26 -30 44 -17 18 -30 43
-30 57 0 24 3 25 33 18 17 -3 49 -9 70 -12z"/>
<path d="M473 1257 c-51 -12 -55 -28 -10 -48 49 -23 113 -24 137 -1 23 21 15
34 -30 47 -45 12 -55 12 -97 2z"/>
<path d="M475 1115 c-93 -6 -187 -10 -208 -8 -48 3 -84 -11 -124 -50 -28 -26
-33 -38 -33 -78 0 -64 32 -103 99 -119 50 -12 50 -12 50 -88 0 -142 12 -235
34 -267 25 -38 75 -83 105 -95 21 -9 22 -11 8 -38 -11 -21 -12 -39 -5 -76 10
-56 12 -59 39 -63 16 -2 20 5 26 46 10 79 35 95 49 31 7 -34 -20 -100 -41
-100 -8 0 -19 -12 -24 -26 -11 -28 -2 -52 32 -88 11 -12 26 -35 34 -53 14 -29
41 -49 51 -39 9 9 5 79 -5 85 -6 3 -13 26 -16 51 -6 39 -3 51 23 89 24 35 28
51 24 85 -2 22 -9 46 -15 54 -13 15 -14 14 35 36 46 21 85 78 97 142 5 27 16
83 24 124 19 90 20 121 4 155 -15 34 -41 32 -55 -6 -10 -26 -16 -30 -35 -24
-56 18 -69 26 -78 49 -9 26 -38 46 -64 46 -11 0 -16 -9 -16 -28 0 -37 -28 -52
-100 -55 -55 -2 -55 -2 -56 51 -1 56 -17 97 -42 107 -9 3 -20 -1 -24 -10 -9
-15 -53 -20 -82 -9 -39 15 3 72 68 94 35 11 66 11 396 -1 84 -4 100 0 100 24
0 24 -19 38 -75 54 -18 5 -100 4 -200 -2z m155 -385 c33 -9 40 -15 40 -35 0
-25 -1 -25 -102 -27 -117 -2 -207 0 -225 7 -7 2 -13 21 -13 41 0 36 1 36 33
30 22 -4 56 2 102 18 70 23 70 23 98 0 15 -13 46 -28 67 -34z m-77 -125 c95
-7 97 -8 97 -33 0 -25 0 -25 -147 -18 -80 4 -150 9 -155 12 -4 3 -8 13 -8 22
0 21 70 27 213 17z m61 -129 c-7 -17 -56 -36 -94 -36 -35 0 -130 30 -130 42 0
4 52 8 115 8 95 0 113 -2 109 -14z"/>
<path d="M923 632 c-21 -13 -20 -62 1 -62 8 0 40 -14 71 -31 31 -17 62 -28 69
-26 21 8 7 55 -25 81 -16 14 -29 29 -29 35 0 12 -69 15 -87 3z"/>
<path d="M75 488 c-36 -35 -65 -66 -65 -70 0 -5 13 -8 29 -8 43 0 125 69 137
114 11 47 -31 32 -101 -36z"/>
<path d="M820 381 c0 -20 128 -128 171 -143 29 -11 43 9 40 55 0 9 -8 17 -16
17 -9 0 -18 7 -21 15 -6 14 -22 23 -97 54 -33 13 -77 15 -77 2z"/>
<path d="M165 288 c-120 -41 -167 -73 -137 -91 17 -11 205 33 235 56 23 17 11
57 -17 56 -11 0 -48 -10 -81 -21z"/>
<path d="M830 100 c0 -5 5 -10 11 -10 5 0 7 5 4 10 -3 6 -8 10 -11 10 -2 0 -4
-4 -4 -10z"/>
</g>
</svg>
