<svg version="1.0" xmlns="http://www.w3.org/2000/svg"
 width="119.000000pt" height="197.000000pt" viewBox="0 0 119.000000 197.000000"
 preserveAspectRatio="xMidYMid meet">
<metadata>
Created by potrace 1.15, written by Peter Selinger 2001-2017
</metadata>
<g transform="translate(0.000000,197.000000) scale(0.100000,-0.100000)"
fill="#000000" stroke="none">
<path d="M967 1873 c3 -21 10 -42 14 -47 5 -6 9 -20 9 -32 0 -17 -14 -28 -67
-52 -68 -30 -68 -30 -40 -41 16 -6 40 -11 53 -11 29 0 54 -21 54 -44 0 -12
-10 -16 -34 -16 -19 0 -38 -4 -41 -10 -3 -5 -15 -10 -26 -10 -10 0 -19 -4 -19
-9 0 -14 41 -21 83 -14 21 3 37 1 37 -4 0 -14 -49 -53 -86 -69 -55 -23 -38
-44 34 -44 42 1 56 10 93 60 34 45 42 96 29 167 -5 32 -13 88 -16 124 -5 58
-8 68 -30 78 -44 20 -53 15 -47 -26z"/>
<path d="M90 1733 c0 -149 28 -210 104 -231 59 -15 136 2 136 30 0 15 -9 18
-55 18 -55 0 -105 16 -105 33 0 5 12 6 28 3 15 -4 51 -10 80 -13 47 -5 52 -4
52 14 0 16 -15 24 -80 44 -69 20 -80 27 -78 44 3 18 9 20 81 16 72 -3 79 -2
75 15 -3 18 -27 27 -133 50 -28 6 -41 15 -43 29 -6 28 -21 45 -43 45 -17 0
-19 -9 -19 -97z"/>
<path d="M605 1757 c-88 -5 -164 -12 -168 -16 -12 -12 98 -32 183 -34 137 -2
170 2 170 19 0 36 -19 39 -185 31z"/>
<path d="M543 1641 c-148 -7 -183 -20 -109 -42 45 -13 46 -14 46 -54 0 -68
-24 -82 -151 -89 -58 -3 -118 -10 -133 -16 -15 -5 -37 -10 -50 -10 -15 0 -34
-16 -59 -49 -34 -44 -37 -54 -37 -112 0 -35 -5 -98 -10 -139 -6 -41 -12 -151
-15 -243 -2 -93 -7 -172 -9 -176 -9 -13 14 -81 27 -81 7 0 20 7 30 14 16 12
18 41 21 323 5 345 7 358 73 402 22 14 55 25 82 26 25 2 100 7 166 11 219 14
379 6 471 -21 45 -14 87 -32 94 -40 7 -8 20 -15 30 -15 38 0 43 -33 56 -444 3
-100 8 -136 22 -159 9 -17 22 -32 28 -34 17 -6 32 44 38 125 3 40 8 77 11 83
4 5 0 40 -8 77 -8 37 -16 92 -16 122 -2 51 -11 123 -27 210 -7 41 -81 115
-122 123 -15 3 -53 12 -85 21 -32 9 -84 16 -116 16 -67 0 -72 4 -90 75 -11 45
-10 51 6 63 17 13 17 14 -1 28 -11 8 -22 13 -25 12 -3 -1 -65 -4 -138 -7z m94
-98 c6 -27 8 -51 4 -55 -3 -4 -26 -8 -51 -10 -45 -3 -45 -3 -42 32 5 47 27 80
55 80 19 0 24 -8 34 -47z"/>
<path d="M315 1336 c-44 -7 -95 -18 -112 -25 -33 -13 -33 -13 -33 -81 0 -38 4
-80 10 -95 5 -14 12 -67 16 -118 3 -51 10 -110 16 -132 5 -22 12 -50 15 -63 4
-15 -1 -28 -16 -41 -31 -27 -25 -79 15 -118 18 -18 59 -16 75 3 11 14 10 19
-9 34 -12 10 -23 28 -24 41 -5 45 89 52 112 9 7 -14 7 -33 -1 -66 -9 -36 -21
-53 -53 -76 -23 -16 -52 -34 -66 -40 -47 -18 -51 -26 -29 -64 10 -19 19 -40
19 -46 0 -6 11 -26 25 -44 39 -51 73 -27 42 29 -6 12 -16 25 -20 28 -5 3 -5
17 -2 31 6 25 35 51 86 77 15 7 32 25 39 40 7 14 16 34 21 43 13 26 11 95 -3
119 -11 17 -10 23 8 38 38 31 44 56 44 180 0 113 11 171 32 171 4 0 8 9 8 20
0 30 -44 26 -64 -5 -13 -20 -22 -24 -39 -20 -40 12 -77 30 -77 37 0 16 -56 7
-80 -12 -37 -29 -41 -25 -38 28 3 47 3 47 133 52 147 6 188 18 183 53 -3 20
-8 22 -78 23 -41 1 -111 -4 -155 -10z m73 -219 c15 -7 22 -19 22 -38 0 -32 -7
-35 -97 -44 -63 -7 -63 -7 -63 24 0 24 8 36 36 55 36 24 57 25 102 3z m13
-137 c23 -13 25 -50 3 -95 -23 -49 -83 -57 -122 -18 -15 15 -36 92 -27 101 17
17 120 25 146 12z"/>
<path d="M880 1201 c5 -11 10 -29 10 -40 0 -40 32 -91 57 -91 27 0 29 17 9 75
-8 24 -26 47 -43 57 -36 23 -46 23 -33 -1z"/>
<path d="M744 1194 c11 -26 7 -241 -4 -289 -16 -68 -12 -148 11 -204 12 -28
25 -51 29 -51 4 0 13 -13 20 -29 7 -17 26 -36 45 -45 68 -32 78 -13 25 45 -22
24 -48 60 -57 79 -21 43 -29 166 -14 212 6 18 12 76 13 129 2 103 -9 136 -54
160 -19 10 -20 9 -14 -7z"/>
<path d="M616 1111 c-17 -33 -21 -67 -8 -75 16 -9 63 42 65 71 2 22 -3 29 -20
31 -16 2 -26 -5 -37 -27z"/>
<path d="M890 816 c0 -96 2 -105 25 -130 29 -31 61 -31 58 -1 -21 176 -39 235
-73 235 -6 0 -10 -44 -10 -104z"/>
<path d="M565 720 c-8 -12 4 -119 14 -124 16 -10 31 13 37 59 6 40 4 50 -11
61 -22 17 -32 17 -40 4z"/>
<path d="M850 411 c-25 -4 -58 -14 -75 -23 -16 -8 -55 -21 -85 -28 -30 -7 -62
-16 -70 -20 -31 -15 -157 -22 -216 -11 -32 6 -91 27 -131 46 -40 19 -80 35
-88 35 -30 0 -15 -40 25 -66 22 -15 40 -33 40 -40 0 -16 -60 -128 -72 -132
-15 -7 -8 -22 11 -22 19 0 79 62 109 112 18 32 44 32 90 1 20 -13 23 -21 19
-56 -3 -23 -10 -63 -17 -89 -11 -47 -19 -53 -70 -63 -40 -8 -60 -16 -60 -25 0
-19 48 -20 180 -7 127 14 197 12 272 -8 19 -5 32 -2 43 9 21 20 13 33 -27 42
-56 12 -76 31 -87 85 -6 28 -11 68 -11 89 0 39 1 40 53 54 104 29 113 29 133
3 31 -38 56 -48 76 -30 16 14 16 18 2 45 -14 27 -14 32 0 53 17 25 21 56 9 54
-5 -1 -28 -5 -53 -8z m-292 -185 c13 -30 -1 -46 -40 -46 -31 0 -33 6 -18 44
12 33 43 34 58 2z m32 -117 c7 -11 10 -22 8 -24 -2 -1 -36 -6 -75 -9 -69 -7
-73 -6 -73 13 0 27 26 40 82 41 38 0 50 -4 58 -21z"/>
</g>
</svg>
