<svg version="1.0" xmlns="http://www.w3.org/2000/svg"
 width="73.000000pt" height="118.000000pt" viewBox="0 0 73.000000 118.000000"
 preserveAspectRatio="xMidYMid meet">
<metadata>
Created by potrace 1.15, written by Peter Selinger 2001-2017
</metadata>
<g transform="translate(0.000000,118.000000) scale(0.100000,-0.100000)"
fill="#000000" stroke="none">
<path d="M203 1113 c-9 -3 -13 -30 -13 -83 0 -57 -4 -81 -15 -90 -25 -21 -45
5 -45 60 0 48 -20 74 -37 47 -9 -15 -5 -75 8 -107 9 -24 49 -50 76 -50 8 0 13
-12 13 -30 0 -25 -4 -30 -25 -30 -38 0 -73 -20 -80 -47 -3 -14 -8 -54 -11 -90
-10 -119 23 -151 149 -139 112 10 113 13 108 198 -1 48 -25 71 -67 66 -37 -4
-44 5 -37 45 4 21 14 29 47 39 57 16 64 25 72 91 6 54 6 57 -15 57 -18 0 -21
-6 -21 -38 0 -43 -29 -82 -60 -82 -18 0 -20 7 -20 95 0 52 -3 95 -7 94 -5 0
-14 -3 -20 -6z m85 -360 c-3 -38 -3 -38 -73 -41 -88 -3 -113 10 -94 51 12 26
15 27 91 27 79 0 79 0 76 -37z m4 -81 c16 -16 -2 -60 -30 -71 -43 -17 -122
-17 -133 0 -19 29 -22 62 -7 73 18 13 156 12 170 -2z"/>
<path d="M474 1048 c-11 -13 -30 -39 -44 -58 -13 -19 -27 -37 -30 -40 -4 -3
-26 -30 -49 -60 -37 -46 -41 -56 -26 -59 10 -1 22 4 27 13 5 9 16 22 24 29 34
27 73 70 96 102 12 19 26 35 30 35 9 0 46 -29 62 -49 6 -7 33 -36 60 -62 57
-58 86 -64 86 -19 0 19 -5 30 -14 30 -7 0 -27 14 -44 30 -18 17 -36 30 -40 30
-5 0 -31 22 -58 50 -27 27 -52 50 -55 50 -3 0 -14 -10 -25 -22z"/>
<path d="M383 823 c-7 -2 -13 -11 -13 -19 0 -10 13 -14 45 -14 25 0 45 -3 45
-6 0 -10 -21 -45 -38 -63 -32 -34 -72 -93 -72 -106 0 -3 8 -5 18 -4 9 0 36 23
60 50 23 28 42 43 42 34 0 -14 -18 -53 -30 -65 -17 -16 -80 -117 -80 -128 0
-22 26 -12 41 16 8 15 16 29 19 32 3 3 13 17 23 33 20 31 37 35 37 8 0 -15
-79 -144 -99 -161 -16 -13 -43 -112 -33 -122 7 -7 23 17 51 74 22 47 50 93 61
103 20 18 20 18 20 -16 0 -30 -12 -60 -57 -144 -24 -45 -33 -96 -33 -183 0
-85 1 -92 20 -92 19 0 20 7 20 100 0 110 20 182 62 227 21 23 23 33 22 144 -1
88 2 119 11 119 7 0 20 11 28 24 9 13 30 39 46 57 23 25 31 29 31 16 0 -19
-17 -53 -38 -75 -20 -23 -53 -102 -46 -113 10 -16 39 17 54 61 14 42 40 55 40
19 0 -20 -27 -88 -40 -99 -6 -6 -39 -73 -69 -142 -26 -59 -28 -93 -5 -84 9 3
18 6 20 6 2 0 4 10 4 23 0 23 70 177 81 177 15 0 16 -30 4 -89 -11 -52 -25
-81 -55 -111 -27 -27 -53 -131 -41 -162 5 -13 12 -34 15 -48 3 -14 15 -40 27
-59 18 -31 22 -33 31 -18 11 20 2 75 -16 96 -6 8 -11 42 -11 75 0 62 14 92 67
150 14 15 18 39 20 95 2 64 1 242 -1 344 -1 27 -2 27 -70 27 -39 0 -73 -5 -76
-11 -5 -7 -12 -6 -23 4 -18 15 -98 29 -119 20z m207 -44 c0 -17 -54 -89 -67
-89 -7 0 -10 11 -9 28 2 15 4 35 5 44 1 10 12 18 29 21 15 2 30 5 35 6 4 0 7
-4 7 -10z"/>
<path d="M40 470 c-7 -4 -9 -13 -5 -20 5 -9 24 -11 61 -6 54 6 54 6 54 -34 0
-41 1 -41 57 -65 1 0 -3 -17 -10 -36 -23 -67 -70 -125 -129 -157 -37 -21 -50
-52 -21 -52 20 0 85 41 120 76 38 38 83 116 83 144 0 31 -26 70 -46 70 -11 0
-14 8 -12 28 3 26 5 27 71 30 48 2 67 7 64 15 -4 14 -265 20 -287 7z"/>
</g>
</svg>
