<svg version="1.0" xmlns="http://www.w3.org/2000/svg"
 width="72.000000pt" height="126.000000pt" viewBox="0 0 72.000000 126.000000"
 preserveAspectRatio="xMidYMid meet">
<metadata>
Created by potrace 1.15, written by Peter Selinger 2001-2017
</metadata>
<g transform="translate(0.000000,126.000000) scale(0.100000,-0.100000)"
fill="#000000" stroke="none">
<path d="M204 1118 c-4 -6 -7 -38 -7 -70 0 -52 3 -62 32 -92 31 -32 32 -36 38
-143 7 -132 -2 -223 -23 -223 -17 0 -16 -9 -14 158 1 125 -5 162 -29 162 -3 0
-7 -78 -8 -173 -4 -268 -12 -364 -34 -390 -18 -22 -19 -17 -18 256 1 274 -3
307 -32 307 -5 0 -9 -72 -9 -159 0 -88 -4 -162 -9 -165 -5 -3 -17 7 -27 22
-16 22 -19 46 -19 142 0 157 6 182 55 214 39 26 40 28 40 84 0 32 -3 61 -6 65
-13 13 -34 -7 -34 -33 0 -42 -17 -80 -49 -111 -34 -32 -41 -61 -48 -198 -6
-129 6 -179 58 -230 38 -37 38 -37 38 -285 0 -137 1 -250 3 -252 2 -1 9 1 16
5 9 5 15 49 19 132 6 117 8 125 33 149 52 49 62 73 59 149 -2 68 -1 72 30 101
17 17 36 28 41 25 17 -10 366 -8 385 2 25 14 12 47 -15 40 -15 -4 -24 2 -35
21 -8 15 -33 47 -55 72 -22 24 -40 50 -40 56 0 7 -5 14 -11 16 -10 3 -3 25 44
128 7 14 14 27 17 30 3 3 13 19 22 35 9 17 26 31 37 33 23 4 29 28 9 34 -12 3
-85 3 -276 0 -74 -2 -83 -4 -80 -19 2 -11 14 -19 29 -21 21 -2 35 -18 69 -80
23 -42 51 -89 62 -105 19 -27 19 -27 -12 -71 -16 -25 -30 -47 -30 -51 0 -3
-12 -22 -27 -41 -32 -42 -61 -60 -75 -46 -6 6 -11 75 -12 159 -2 151 -9 184
-48 227 -10 11 -19 23 -19 28 -1 4 -3 13 -4 18 -1 6 -3 30 -4 55 -1 44 -12 57
-27 33z m376 -124 c0 -2 -4 -12 -8 -22 -51 -104 -69 -136 -77 -139 -11 -3 -75
123 -75 149 0 13 14 16 80 16 44 1 80 -1 80 -4z m-51 -307 c11 -18 29 -42 41
-52 36 -33 25 -40 -65 -43 -47 -2 -85 1 -85 6 0 15 30 69 45 82 8 7 15 19 15
26 0 26 28 14 49 -19z"/>
<path d="M350 460 c-7 -13 -10 -75 -9 -168 2 -147 2 -147 33 -175 29 -28 33
-29 112 -25 61 3 89 10 117 27 37 23 37 23 37 181 0 123 -3 160 -14 169 -16
14 -21 8 -31 -36 -3 -18 -12 -36 -18 -40 -7 -4 -51 -9 -99 -11 -88 -3 -88 -3
-89 25 -1 15 -2 37 -3 47 -1 27 -23 31 -36 6z m250 -185 c0 -123 -21 -148
-115 -139 -73 8 -94 22 -96 62 -1 15 -2 47 -3 72 -4 74 -1 76 113 78 101 2
101 2 101 -73z"/>
</g>
</svg>
