<svg version="1.0" xmlns="http://www.w3.org/2000/svg"
 width="83.000000pt" height="151.000000pt" viewBox="0 0 83.000000 151.000000"
 preserveAspectRatio="xMidYMid meet">
<metadata>
Created by potrace 1.15, written by Peter Selinger 2001-2017
</metadata>
<g transform="translate(0.000000,151.000000) scale(0.100000,-0.100000)"
fill="#000000" stroke="none">
<path d="M417 1303 c-10 -10 -8 -33 2 -33 6 0 26 -10 46 -21 37 -22 37 -22 -4
-60 -23 -22 -41 -43 -41 -49 0 -16 29 -12 58 8 83 56 91 54 186 -43 57 -58 70
-78 95 -137 17 -41 34 -194 27 -247 -3 -28 -9 -74 -12 -101 -4 -28 -11 -53
-15 -56 -5 -3 -9 -14 -9 -25 0 -10 -4 -27 -9 -37 -5 -9 -24 -46 -41 -81 -18
-35 -40 -73 -49 -84 -30 -36 -120 -127 -126 -127 -10 0 -35 -28 -35 -39 0 -6
4 -11 9 -11 21 0 129 91 168 141 59 77 123 185 123 208 0 11 4 21 9 23 26 9
41 293 21 383 -21 94 -34 135 -42 135 -4 0 -8 5 -8 11 0 17 -55 92 -99 135
-47 45 -78 62 -171 93 -72 23 -74 24 -83 14z"/>
<path d="M260 1205 c-7 -8 -18 -15 -25 -15 -19 0 -78 -32 -102 -54 -35 -34
-63 -89 -63 -125 0 -41 39 -112 75 -135 14 -10 30 -27 34 -39 7 -18 2 -24 -33
-43 -59 -31 -81 -74 -80 -154 1 -85 21 -122 89 -166 55 -35 55 -35 56 -92 0
-31 2 -66 4 -77 2 -11 6 -56 10 -100 7 -97 23 -155 42 -155 9 0 12 7 9 18 -5
18 -13 119 -22 286 -2 55 0 151 6 215 6 64 13 159 16 211 2 52 9 151 15 220
15 188 6 250 -31 205z m-30 -180 c-5 -44 -8 -90 -5 -103 7 -40 -22 -38 -60 4
-39 43 -45 81 -20 131 16 32 74 68 87 55 5 -5 3 -44 -2 -87z m-20 -385 c0 -98
-2 -110 -17 -109 -67 2 -103 81 -71 156 14 34 47 62 71 63 15 0 17 -12 17
-110z"/>
<path d="M497 1083 c-4 -3 -7 -16 -7 -28 0 -17 -9 -25 -40 -34 -22 -6 -40 -15
-40 -19 0 -4 20 -14 45 -21 33 -10 45 -18 45 -32 0 -17 -16 -24 -42 -20 -5 0
-8 -3 -8 -8 0 -5 -9 -11 -19 -14 -30 -8 -63 -82 -63 -141 1 -28 6 -52 11 -54
6 -2 11 -9 11 -15 0 -16 40 -61 67 -75 12 -7 33 -12 47 -12 24 0 26 -4 26 -40
0 -36 -3 -40 -25 -40 -27 0 -75 -19 -75 -31 0 -11 57 -21 79 -14 17 5 22 -1
31 -34 6 -23 15 -41 19 -41 11 0 21 25 21 54 0 21 18 35 63 50 25 8 10 29 -16
22 -11 -3 -29 -1 -39 5 -23 13 -24 58 0 65 44 13 89 45 106 75 19 35 23 105 7
137 -5 10 -14 29 -21 43 -12 27 -79 69 -110 69 -10 0 -20 7 -24 15 -7 18 19
45 45 45 12 0 19 7 19 20 0 15 -7 20 -25 20 -18 0 -31 9 -43 30 -17 29 -32 37
-45 23z m10 -245 c4 -48 4 -48 -42 -48 -46 0 -47 0 -40 27 3 15 10 30 14 33 4
3 10 13 14 23 4 12 15 17 29 15 18 -2 22 -11 25 -50z m114 29 c14 -12 29 -34
33 -49 6 -28 6 -28 -49 -28 -55 0 -55 0 -55 50 0 45 2 50 23 50 12 0 34 -10
48 -23z m-100 -167 c8 -56 5 -62 -29 -49 -39 15 -62 39 -62 64 0 30 9 36 50
33 33 -3 35 -5 41 -48z m139 33 c0 -26 -11 -38 -52 -61 -41 -24 -48 -18 -48
44 0 34 0 34 50 34 41 0 50 -3 50 -17z"/>
</g>
</svg>
