<svg version="1.0" xmlns="http://www.w3.org/2000/svg"
 width="66.000000pt" height="85.000000pt" viewBox="0 0 66.000000 85.000000"
 preserveAspectRatio="xMidYMid meet">
<metadata>
Created by potrace 1.15, written by Peter Selinger 2001-2017
</metadata>
<g transform="translate(0.000000,85.000000) scale(0.100000,-0.100000)"
fill="#000000" stroke="none">
<path d="M374 635 c-9 -22 1 -104 15 -118 20 -20 32 8 29 69 -2 47 -7 59 -21
62 -9 2 -20 -4 -23 -13z"/>
<path d="M523 639 c-13 -13 -7 -107 8 -123 5 -5 15 -4 24 4 22 18 17 123 -5
128 -9 1 -21 -3 -27 -9z"/>
<path d="M247 633 c-9 -8 -9 -80 -1 -110 7 -26 29 -30 38 -7 3 9 6 33 6 54 0
21 -3 45 -6 54 -6 16 -26 21 -37 9z"/>
<path d="M70 574 c-20 -51 -6 -144 20 -144 10 0 21 7 24 16 8 20 8 118 0 138
-9 24 -33 19 -44 -10z"/>
<path d="M192 437 c-36 -20 -16 -27 80 -27 88 0 88 0 88 -57 0 -32 3 -102 7
-155 6 -98 6 -98 -39 -98 -55 0 -56 2 -72 150 -9 82 -14 105 -26 105 -22 0
-22 -263 0 -290 13 -16 29 -17 170 -13 107 4 164 10 181 19 22 13 17 14 -66
19 -90 5 -90 5 -90 55 0 53 -5 50 85 70 33 7 55 40 64 93 5 34 3 44 -10 49
-20 7 -30 -8 -38 -58 -5 -32 -11 -40 -34 -45 -15 -3 -35 -8 -44 -10 -26 -7
-39 29 -36 99 3 62 3 62 97 72 59 6 96 15 99 23 5 18 -383 17 -416 -1z"/>
<path d="M64 318 c-10 -16 -11 -202 -1 -240 4 -16 14 -28 22 -28 29 0 36 41
28 160 -7 95 -11 115 -25 118 -9 2 -20 -3 -24 -10z"/>
</g>
</svg>
