<svg version="1.0" xmlns="http://www.w3.org/2000/svg"
 width="64.000000pt" height="81.000000pt" viewBox="0 0 64.000000 81.000000"
 preserveAspectRatio="xMidYMid meet">
<metadata>
Created by potrace 1.15, written by Peter Selinger 2001-2017
</metadata>
<g transform="translate(0.000000,81.000000) scale(0.100000,-0.100000)"
fill="#000000" stroke="none">
<path d="M223 610 c-6 -21 -69 -60 -98 -60 -10 0 -15 10 -15 30 0 29 -21 42
-35 20 -3 -5 -10 -126 -15 -268 -5 -142 -14 -271 -20 -287 -13 -34 -7 -41 24
-27 28 13 36 46 36 158 0 93 -8 83 92 122 50 20 62 54 69 187 4 66 4 126 2
133 -8 19 -34 14 -40 -8z m-3 -99 c0 -23 -49 -61 -79 -61 -16 0 -21 6 -21 25
0 19 8 29 33 39 46 21 67 19 67 -3z m-5 -92 c12 -18 -16 -69 -46 -84 -43 -23
-59 -19 -59 13 0 34 8 45 45 64 37 19 52 21 60 7z"/>
<path d="M336 612 c-3 -9 -2 -77 3 -150 10 -149 7 -145 99 -183 48 -20 52 -24
52 -54 0 -54 22 -134 38 -140 28 -11 34 11 17 69 -14 48 -15 82 -8 229 4 95 8
183 8 196 0 37 -21 36 -35 -1 -8 -18 -15 -35 -16 -36 -7 -10 -125 55 -130 70
-7 23 -21 23 -28 0z m117 -100 c33 -14 37 -19 37 -54 0 -21 -2 -38 -4 -38 -2
0 -29 11 -60 25 -53 23 -56 27 -56 61 0 39 4 40 83 6z m5 -124 c24 -15 32 -27
32 -49 0 -24 -4 -29 -26 -29 -14 0 -34 5 -46 11 -19 10 -48 65 -48 90 0 15 45
3 88 -23z"/>
<path d="M275 299 c-5 -7 -12 -34 -15 -59 -5 -44 -6 -45 -42 -48 -22 -2 -38
-8 -38 -16 0 -7 17 -17 38 -22 35 -8 37 -12 40 -51 3 -41 3 -41 -65 -48 -82
-8 -96 -12 -88 -25 8 -13 354 -13 375 0 28 18 -4 29 -90 32 -85 3 -85 3 -88
42 -4 46 7 56 61 56 55 0 49 26 -8 34 -37 6 -45 11 -46 29 0 12 -6 38 -13 56
-10 27 -14 32 -21 20z"/>
</g>
</svg>
