<svg version="1.0" xmlns="http://www.w3.org/2000/svg"
 width="65.000000pt" height="97.000000pt" viewBox="0 0 65.000000 97.000000"
 preserveAspectRatio="xMidYMid meet">
<metadata>
Created by potrace 1.15, written by Peter Selinger 2001-2017
</metadata>
<g transform="translate(0.000000,97.000000) scale(0.100000,-0.100000)"
fill="#000000" stroke="none">
<path d="M319 733 c-6 -16 -19 -46 -29 -68 -21 -48 -37 -106 -44 -160 -3 -22
-33 -94 -66 -160 -62 -124 -95 -215 -78 -215 5 0 23 30 39 67 47 108 94 195
104 197 5 0 18 -23 30 -51 25 -66 39 -68 31 -5 -20 147 -23 131 38 195 31 31
56 66 56 77 0 28 -5 26 -52 -22 -22 -24 -43 -38 -45 -32 -2 6 8 45 22 87 27
80 31 117 15 117 -6 0 -15 -12 -21 -27z"/>
<path d="M524 679 c5 -29 -12 -109 -25 -109 -3 0 -14 9 -24 20 -10 11 -26 20
-36 20 -16 0 -14 -8 16 -63 38 -68 38 -62 -24 -220 -6 -16 -11 -35 -11 -43 0
-13 2 -13 14 -2 16 17 56 97 56 114 0 6 7 17 15 24 17 14 15 21 45 -158 12
-68 24 -130 27 -139 13 -34 20 14 12 92 -16 167 -21 201 -40 242 -24 53 -24
64 1 115 13 28 17 45 10 52 -5 5 -10 27 -10 48 0 28 -4 38 -16 38 -13 0 -15
-7 -10 -31z"/>
</g>
</svg>
