<svg version="1.0" xmlns="http://www.w3.org/2000/svg"
 width="53.000000pt" height="93.000000pt" viewBox="0 0 53.000000 93.000000"
 preserveAspectRatio="xMidYMid meet">
<metadata>
Created by potrace 1.15, written by Peter Selinger 2001-2017
</metadata>
<g transform="translate(0.000000,93.000000) scale(0.100000,-0.100000)"
fill="#000000" stroke="none">
<path d="M227 723 c-78 -151 -97 -197 -97 -238 0 -19 -4 -35 -8 -35 -24 0 -35
-107 -33 -322 2 -119 37 -38 45 102 3 47 9 96 14 110 10 25 10 25 17 -5 12
-47 47 -125 56 -125 20 0 12 117 -12 183 -10 28 -19 55 -19 59 0 4 22 29 50
56 45 44 48 51 36 68 -14 18 -15 18 -33 1 -34 -30 -47 -16 -15 19 34 38 57
103 47 134 -9 28 -31 25 -48 -7z"/>
<path d="M381 736 c-9 -10 -10 -41 -5 -103 6 -88 6 -88 -21 -55 -50 58 -91 27
-46 -36 10 -15 22 -41 25 -58 6 -26 1 -38 -34 -80 -22 -27 -40 -54 -40 -61 0
-24 32 -13 72 22 21 20 43 33 47 30 5 -2 11 -19 14 -37 11 -71 44 -171 52
-158 12 20 6 139 -11 198 -14 47 -14 57 0 97 8 25 13 55 10 68 -3 12 -7 45
-10 72 -7 61 -23 115 -34 115 -4 0 -13 -6 -19 -14z"/>
</g>
</svg>
