<svg version="1.0" xmlns="http://www.w3.org/2000/svg"
 width="77.000000pt" height="123.000000pt" viewBox="0 0 77.000000 123.000000"
 preserveAspectRatio="xMidYMid meet">
<metadata>
Created by potrace 1.15, written by Peter Selinger 2001-2017
</metadata>
<g transform="translate(0.000000,123.000000) scale(0.100000,-0.100000)"
fill="#000000" stroke="none">
<path d="M342 1010 c-6 -11 -12 -30 -12 -43 0 -23 -12 -50 -69 -153 -26 -48
-28 -56 -19 -104 5 -30 6 -56 1 -59 -17 -12 -50 -67 -71 -120 -18 -44 -22 -74
-22 -160 0 -102 9 -147 24 -122 4 6 5 14 3 19 -3 4 -1 53 3 108 7 79 14 113
35 153 14 29 30 49 35 46 5 -3 12 -30 15 -60 7 -57 24 -85 26 -43 1 13 0 61 0
108 -1 85 -1 85 46 120 27 19 54 41 61 48 17 15 32 16 32 0 0 -6 21 -52 46
-101 52 -103 52 -99 -7 -225 -22 -47 -38 -87 -35 -89 12 -12 45 27 74 88 18
39 37 67 42 64 5 -3 17 -23 27 -43 9 -20 24 -42 31 -48 8 -6 16 -30 18 -55 7
-79 52 -259 53 -209 2 111 -35 294 -66 331 -28 33 -34 81 -17 135 19 61 11
185 -16 249 -4 11 -17 43 -27 70 -11 28 -27 51 -35 53 -18 3 -15 -19 14 -108
36 -108 40 -131 36 -179 -3 -28 -8 -54 -12 -58 -7 -8 -38 24 -56 58 -7 13 -26
40 -41 60 -20 25 -29 48 -29 73 0 42 -25 50 -39 14 -11 -29 -91 -109 -103
-102 -13 8 -9 33 10 67 9 18 19 34 22 37 11 10 50 96 56 123 7 29 -2 77 -14
77 -4 0 -13 -9 -20 -20z"/>
<path d="M291 414 c0 -11 3 -14 6 -6 3 7 2 16 -1 19 -3 4 -6 -2 -5 -13z"/>
</g>
</svg>
