<svg version="1.0" xmlns="http://www.w3.org/2000/svg"
 width="83.000000pt" height="131.000000pt" viewBox="0 0 83.000000 131.000000"
 preserveAspectRatio="xMidYMid meet">
<metadata>
Created by potrace 1.15, written by Peter Selinger 2001-2017
</metadata>
<g transform="translate(0.000000,131.000000) scale(0.100000,-0.100000)"
fill="#000000" stroke="none">
<path d="M533 1145 c-7 -21 24 -105 60 -158 17 -25 18 -34 6 -118 -6 -49 -15
-92 -19 -94 -4 -2 -18 16 -31 42 -28 55 -80 113 -86 96 -5 -15 22 -75 59 -130
15 -23 28 -49 28 -57 0 -9 5 -16 11 -16 7 0 9 -12 6 -32 -6 -38 -61 -245 -72
-270 -4 -10 -3 -18 2 -18 12 0 73 123 73 146 0 29 23 84 35 81 13 -4 48 -116
69 -222 17 -79 33 -146 44 -175 4 -10 7 -7 10 10 5 30 -17 221 -28 235 -4 6
-13 33 -19 60 -7 28 -27 78 -43 113 -22 46 -28 71 -23 90 9 37 24 127 31 187
6 45 2 60 -37 142 -44 92 -65 116 -76 88z"/>
<path d="M305 1068 c-10 -24 -26 -62 -36 -85 -11 -24 -19 -48 -19 -53 0 -6 -9
-30 -20 -52 -24 -50 -25 -100 -5 -158 14 -41 14 -44 -13 -93 -15 -28 -32 -57
-39 -64 -13 -14 -16 -25 -32 -98 -29 -135 -43 -396 -22 -409 12 -8 21 39 31
169 13 150 20 206 30 230 25 61 64 134 74 138 6 3 26 -28 45 -69 19 -41 38
-74 42 -74 11 0 12 63 1 76 -5 5 -15 29 -22 54 -8 25 -18 51 -23 57 -9 13 -2
27 31 61 6 7 12 17 12 21 0 4 15 23 34 43 19 20 39 45 45 57 11 20 15 71 6 71
-7 0 -72 -67 -122 -125 -28 -32 -36 -37 -43 -25 -13 20 -13 87 0 95 6 3 10 15
10 26 0 10 4 27 9 37 23 44 60 185 53 198 -6 11 -13 4 -27 -28z"/>
</g>
</svg>
