<svg version="1.0" xmlns="http://www.w3.org/2000/svg"
 width="71.000000pt" height="123.000000pt" viewBox="0 0 71.000000 123.000000"
 preserveAspectRatio="xMidYMid meet">
<metadata>
Created by potrace 1.15, written by Peter Selinger 2001-2017
</metadata>
<g transform="translate(0.000000,123.000000) scale(0.100000,-0.100000)"
fill="#000000" stroke="none">
<path d="M255 1143 c-23 -5 -88 -137 -130 -266 -29 -90 -31 -114 -10 -164 20
-47 19 -75 -3 -115 -29 -51 -42 -119 -42 -215 0 -93 24 -315 39 -354 7 -21 9
-20 15 14 4 20 6 89 6 154 -2 106 -4 120 -22 134 -17 14 -18 17 -6 30 9 9 18
47 22 93 10 115 32 147 56 84 7 -18 20 -51 30 -73 9 -22 23 -56 30 -76 7 -20
21 -47 31 -60 19 -24 19 -24 19 0 0 14 -4 38 -10 55 -5 17 -23 76 -40 131 -18
55 -36 105 -41 111 -12 14 17 72 59 118 27 30 32 43 32 86 0 72 -19 64 -65
-25 -22 -41 -42 -75 -45 -75 -28 0 -38 58 -19 107 6 15 15 37 19 48 25 66 64
152 75 165 12 15 35 75 35 91 0 5 -3 8 -7 8 -5 -1 -17 -4 -28 -6z"/>
<path d="M454 1135 c-9 -23 2 -54 41 -119 19 -32 35 -64 35 -72 0 -7 5 -16 11
-20 12 -7 6 -115 -7 -135 -3 -5 -15 -1 -27 11 -78 72 -100 83 -111 54 -10 -26
-8 -30 53 -92 73 -74 85 -95 71 -121 -5 -11 -10 -31 -10 -45 0 -14 -3 -26 -7
-26 -5 0 -19 -35 -31 -78 -13 -42 -28 -87 -33 -100 -24 -61 1 -55 32 8 13 27
27 50 32 50 4 0 7 6 7 13 0 8 6 27 14 43 8 16 20 42 26 58 6 18 14 26 20 20
15 -15 32 -159 39 -316 3 -80 9 -149 13 -153 10 -10 22 118 22 230 0 106 -27
299 -44 320 -7 8 -10 65 -9 147 3 132 2 134 -27 183 -17 28 -36 65 -43 83 -7
17 -17 32 -21 32 -4 0 -10 9 -13 20 -6 24 -25 26 -33 5z"/>
</g>
</svg>
