<svg version="1.0" xmlns="http://www.w3.org/2000/svg"
 width="87.000000pt" height="93.000000pt" viewBox="0 0 87.000000 93.000000"
 preserveAspectRatio="xMidYMid meet">
<metadata>
Created by potrace 1.15, written by Peter Selinger 2001-2017
</metadata>
<g transform="translate(0.000000,93.000000) scale(0.100000,-0.100000)"
fill="#000000" stroke="none">
<path d="M450 830 c-11 -11 -20 -30 -20 -43 0 -12 -8 -30 -17 -39 -10 -10 -26
-26 -36 -37 -11 -11 -42 -25 -70 -32 -29 -6 -70 -20 -92 -30 -22 -10 -55 -22
-74 -26 -19 -5 -36 -14 -39 -21 -5 -15 109 -17 136 -3 9 6 46 15 82 20 36 6
66 15 68 21 2 5 12 10 22 10 10 0 21 4 24 9 14 22 57 21 93 -2 21 -13 65 -29
98 -36 33 -7 74 -16 90 -21 30 -9 88 -6 106 5 15 10 10 33 -8 39 -10 2 -38 7
-63 11 -117 16 -200 56 -200 96 0 10 -4 21 -10 24 -5 3 -10 16 -10 29 0 46
-45 61 -80 26z"/>
<path d="M572 383 c3 -145 2 -150 -22 -186 -14 -20 -28 -37 -32 -37 -5 0 -8
-9 -8 -20 0 -12 7 -20 16 -20 27 0 84 40 84 60 0 10 7 30 15 46 10 20 13 56
12 126 -1 68 1 97 9 94 6 -2 37 -7 68 -11 58 -8 58 -8 54 20 -2 22 -12 30 -58
47 -30 12 -74 23 -98 25 -43 5 -43 5 -40 -144z"/>
<path d="M185 480 c-71 -10 -95 -19 -95 -35 0 -20 8 -23 85 -30 38 -3 70 -7
72 -8 1 -2 5 -43 8 -92 14 -223 60 -288 205 -287 69 0 150 17 150 31 0 17 -54
31 -121 31 -94 0 -123 16 -142 77 -8 27 -15 91 -16 143 -1 52 -7 114 -13 138
-12 40 -14 42 -48 41 -19 -1 -58 -5 -85 -9z"/>
</g>
</svg>
