<svg version="1.0" xmlns="http://www.w3.org/2000/svg"
 width="49.000000pt" height="83.000000pt" viewBox="0 0 49.000000 83.000000"
 preserveAspectRatio="xMidYMid meet">
<metadata>
Created by potrace 1.15, written by Peter Selinger 2001-2017
</metadata>
<g transform="translate(0.000000,83.000000) scale(0.100000,-0.100000)"
fill="#000000" stroke="none">
<path d="M234 608 c-4 -13 -24 -44 -46 -70 -55 -66 -16 -80 45 -15 28 30 28
30 68 -12 63 -64 90 -50 50 27 -45 84 -101 118 -117 70z"/>
<path d="M188 445 c-58 -45 -74 -75 -40 -75 9 0 30 11 46 25 16 13 32 22 37
19 16 -9 22 -76 9 -97 -49 -79 -61 -120 -42 -142 5 -6 15 -29 22 -52 15 -50
31 -54 65 -17 18 19 25 38 25 65 0 22 -4 39 -10 39 -5 0 -10 -6 -10 -14 0 -16
-28 -42 -36 -33 -11 11 -7 101 4 105 7 2 12 9 12 15 0 7 13 27 29 46 24 28 31
32 49 22 29 -15 28 -15 24 23 -2 19 -12 42 -22 51 -16 14 -19 14 -33 0 -22
-21 -27 -19 -27 13 0 29 -16 52 -34 52 -6 0 -37 -20 -68 -45z"/>
</g>
</svg>
