<svg version="1.0" xmlns="http://www.w3.org/2000/svg"
 width="51.000000pt" height="103.000000pt" viewBox="0 0 51.000000 103.000000"
 preserveAspectRatio="xMidYMid meet">
<metadata>
Created by potrace 1.15, written by Peter Selinger 2001-2017
</metadata>
<g transform="translate(0.000000,103.000000) scale(0.100000,-0.100000)"
fill="#000000" stroke="none">
<path d="M209 793 c-6 -16 -21 -50 -34 -78 -13 -27 -27 -63 -31 -79 -7 -28 -7
-28 18 -12 13 9 35 35 48 58 13 24 25 45 27 47 2 3 24 -17 49 -43 54 -57 78
-51 45 10 -18 36 -94 124 -106 124 -3 0 -10 -12 -16 -27z"/>
<path d="M305 560 c-3 -6 -3 -29 0 -53 6 -39 4 -44 -34 -82 -29 -27 -41 -34
-41 -23 0 21 -61 158 -71 158 -7 0 -39 -78 -60 -145 -6 -22 -16 -45 -21 -52
-5 -7 -6 -17 -2 -24 5 -8 18 1 40 27 19 21 34 42 34 46 0 5 4 8 10 8 5 0 15
-18 21 -40 10 -32 10 -61 -1 -135 -13 -101 -4 -155 27 -155 8 0 28 -9 44 -21
41 -29 69 -21 96 26 28 50 29 77 3 100 -17 15 -24 16 -45 7 -27 -12 -42 -38
-31 -50 4 -3 15 -1 25 5 25 15 33 6 19 -21 -21 -40 -36 -49 -53 -33 -8 9 -20
17 -26 19 -8 3 -11 27 -10 70 2 75 13 122 35 143 8 8 24 27 35 41 17 22 23 24
36 14 8 -7 15 -17 15 -22 0 -13 26 -38 33 -32 3 3 4 11 1 17 -2 7 -8 42 -13
79 -13 95 -46 160 -66 128z"/>
</g>
</svg>
