<svg version="1.0" xmlns="http://www.w3.org/2000/svg"
 width="71.000000pt" height="89.000000pt" viewBox="0 0 71.000000 89.000000"
 preserveAspectRatio="xMidYMid meet">
<metadata>
Created by potrace 1.15, written by Peter Selinger 2001-2017
</metadata>
<g transform="translate(0.000000,89.000000) scale(0.100000,-0.100000)"
fill="#000000" stroke="none">
<path d="M370 668 c-71 -74 -68 -106 5 -48 44 35 45 35 76 11 57 -44 136 -64
142 -36 1 5 -13 19 -31 30 -18 11 -54 37 -78 58 -25 20 -49 37 -55 37 -5 0
-31 -23 -59 -52z"/>
<path d="M153 664 c-15 -19 -40 -42 -55 -50 -30 -15 -45 -51 -30 -66 7 -7 22
3 47 31 45 49 76 59 111 36 27 -18 54 -14 54 8 0 12 -76 77 -91 77 -5 0 -21
-16 -36 -36z"/>
<path d="M413 554 c-3 -9 -3 -49 0 -90 5 -67 4 -74 -13 -74 -12 0 -22 12 -30
34 -11 34 -46 74 -55 64 -3 -3 2 -31 12 -63 16 -52 22 -60 56 -73 56 -23 50
-47 -38 -140 -41 -44 -75 -83 -75 -86 0 -19 37 0 85 44 30 28 59 50 64 50 4 0
11 -38 14 -85 7 -96 12 -112 33 -94 10 8 14 35 14 95 0 46 2 84 5 84 3 0 35
-13 70 -30 35 -16 71 -30 80 -30 35 0 11 31 -58 73 -116 73 -131 100 -67 122
37 12 40 16 65 93 13 40 15 56 6 65 -15 15 -26 2 -48 -58 -14 -36 -24 -51 -40
-53 -18 -3 -23 3 -28 35 -20 122 -23 133 -36 133 -5 0 -12 -7 -16 -16z"/>
<path d="M140 515 c0 -3 7 -17 16 -30 27 -41 11 -104 -42 -168 -48 -59 -56
-98 -28 -145 22 -38 91 -85 112 -77 15 6 14 9 -8 27 -36 29 -60 69 -60 101 0
32 14 34 65 10 50 -24 55 -9 10 37 -37 38 -38 39 -21 64 19 29 51 33 80 11 22
-17 56 -20 56 -6 0 5 -16 19 -35 31 -39 24 -55 48 -55 80 0 25 -46 70 -71 70
-11 0 -19 -2 -19 -5z"/>
</g>
</svg>
