<svg version="1.0" xmlns="http://www.w3.org/2000/svg"
 width="68.000000pt" height="88.000000pt" viewBox="0 0 68.000000 88.000000"
 preserveAspectRatio="xMidYMid meet">
<metadata>
Created by potrace 1.15, written by Peter Selinger 2001-2017
</metadata>
<g transform="translate(0.000000,88.000000) scale(0.100000,-0.100000)"
fill="#000000" stroke="none">
<path d="M64 629 c-11 -19 13 -26 113 -33 101 -7 127 0 103 29 -10 12 -34 15
-111 15 -61 0 -100 -4 -105 -11z"/>
<path d="M340 596 c0 -21 23 -26 113 -26 45 0 88 -4 95 -9 8 -4 14 -33 16 -73
4 -91 -6 -101 -119 -123 -124 -23 -132 -27 -145 -74 -10 -38 -1 -140 16 -185
21 -55 312 -62 302 -7 -3 14 -17 16 -109 12 -118 -4 -140 3 -159 49 -15 36 -7
129 12 142 24 15 83 28 131 28 27 0 57 5 69 11 31 16 58 86 58 151 0 46 -5 62
-26 87 -26 31 -26 31 -140 31 -91 0 -114 -3 -114 -14z"/>
<path d="M353 523 c-13 -2 -23 -11 -23 -18 0 -7 10 -15 23 -17 29 -4 29 -30 0
-43 -13 -5 -23 -15 -23 -22 0 -20 55 -16 73 5 20 22 22 73 5 90 -12 12 -16 13
-55 5z"/>
<path d="M434 519 c-7 -12 12 -29 34 -29 21 0 13 -29 -13 -46 -14 -9 -25 -20
-25 -24 0 -18 42 -21 65 -6 31 20 35 81 8 102 -22 16 -59 18 -69 3z"/>
<path d="M122 512 c-68 -2 -92 -6 -89 -15 2 -7 27 -13 62 -15 58 -3 58 -3 52
-180 -3 -97 -10 -193 -15 -212 -11 -43 -6 -60 17 -60 38 0 41 17 41 237 0 213
0 213 44 213 38 0 67 13 55 24 -9 8 -82 11 -167 8z"/>
<path d="M71 332 c0 -76 -5 -129 -17 -171 -19 -71 -12 -88 21 -49 29 34 37 84
33 218 -3 91 -5 105 -21 108 -15 3 -17 -7 -16 -106z"/>
<path d="M232 423 c-31 -60 -16 -347 17 -341 17 4 17 5 5 179 -4 66 -2 94 10
123 9 21 13 42 10 47 -9 15 -33 10 -42 -8z"/>
<path d="M392 274 c-29 -20 -30 -72 -2 -102 24 -26 52 -28 70 -7 11 13 8 17
-19 26 -40 14 -44 55 -6 65 14 3 25 12 25 20 0 19 -40 18 -68 -2z"/>
<path d="M508 273 c-10 -2 -20 -19 -24 -40 -6 -32 -3 -40 20 -60 30 -26 77
-30 95 -9 14 17 -2 32 -39 38 -14 1 -26 11 -28 20 -2 12 5 17 30 20 47 4 45
32 -2 35 -19 0 -43 -1 -52 -4z"/>
</g>
</svg>
