<svg version="1.0" xmlns="http://www.w3.org/2000/svg"
 width="47.000000pt" height="83.000000pt" viewBox="0 0 47.000000 83.000000"
 preserveAspectRatio="xMidYMid meet">
<metadata>
Created by potrace 1.15, written by Peter Selinger 2001-2017
</metadata>
<g transform="translate(0.000000,83.000000) scale(0.100000,-0.100000)"
fill="#000000" stroke="none">
<path d="M234 418 c6 -240 13 -328 26 -328 11 0 17 19 25 83 4 32 10 57 14 57
19 0 91 83 91 104 0 26 -58 91 -90 101 -26 8 -33 36 -25 95 8 58 1 86 -27 101
-20 11 -20 10 -14 -213z m79 -42 c22 -17 22 -49 -1 -69 -24 -22 -32 -13 -32
40 0 46 5 50 33 29z"/>
<path d="M143 598 c-9 -11 -9 -40 -2 -85 4 -24 -5 -45 -36 -86 -27 -35 -35
-55 -35 -86 0 -35 5 -43 41 -68 40 -28 40 -28 35 -88 -3 -33 -8 -77 -12 -97
-5 -31 -3 -38 10 -38 41 0 52 82 47 360 -2 146 -22 221 -48 188z m7 -248 c0
-38 -1 -39 -20 -28 -23 14 -26 38 -8 56 21 21 28 13 28 -28z"/>
</g>
</svg>
