<svg version="1.0" xmlns="http://www.w3.org/2000/svg"
 width="65.000000pt" height="101.000000pt" viewBox="0 0 65.000000 101.000000"
 preserveAspectRatio="xMidYMid meet">
<metadata>
Created by potrace 1.15, written by Peter Selinger 2001-2017
</metadata>
<g transform="translate(0.000000,101.000000) scale(0.100000,-0.100000)"
fill="#000000" stroke="none">
<path d="M189 893 c-117 -4 -117 -4 -114 -136 2 -73 4 -135 4 -140 2 -12 74
-77 94 -83 15 -5 18 -12 13 -37 -27 -155 -26 -177 4 -137 18 24 40 20 40 -7 0
-8 -10 -33 -22 -54 -12 -21 -18 -42 -13 -46 4 -5 10 -2 12 5 3 6 13 12 24 12
13 0 19 -7 19 -24 0 -32 10 -56 22 -56 5 0 9 37 9 88 -1 48 1 116 5 152 8 88
-25 172 -52 129 -3 -6 -1 -16 5 -22 16 -16 15 -100 -1 -94 -9 2 -12 19 -10 49
3 41 0 47 -30 72 -95 76 -86 59 -87 182 0 111 0 111 76 118 42 3 136 6 210 6
133 0 133 0 133 -102 0 -101 -1 -104 -31 -138 -29 -34 -30 -38 -26 -107 4 -51
1 -77 -8 -90 -20 -27 -33 -7 -37 57 -2 43 -7 56 -20 58 -16 3 -18 -5 -18 -57
0 -34 4 -69 9 -79 25 -49 30 -77 35 -191 3 -68 7 -125 10 -128 15 -15 26 16
26 73 0 35 3 64 6 64 4 0 17 -12 30 -27 13 -16 24 -26 24 -23 0 13 -31 104
-46 135 -14 30 -14 40 -4 66 13 31 13 31 32 -7 10 -21 18 -44 18 -51 0 -7 5
-13 10 -13 13 0 13 9 -6 77 -42 153 -43 188 -6 228 27 29 27 31 24 149 -2 81
-7 123 -15 128 -11 7 -92 7 -348 1z"/>
<path d="M305 768 c-22 -5 -52 -7 -67 -4 -33 6 -34 -2 -14 -104 9 -49 17 -66
30 -68 10 -2 23 1 29 7 6 6 19 11 29 11 9 0 29 5 43 12 23 10 25 17 25 73 0
54 -12 87 -29 84 -4 -1 -24 -5 -46 -11z m40 -78 c0 -31 -3 -35 -35 -41 -38 -8
-50 1 -50 38 0 26 26 44 60 40 21 -2 25 -7 25 -37z"/>
</g>
</svg>
