<svg version="1.0" xmlns="http://www.w3.org/2000/svg"
 width="66.000000pt" height="95.000000pt" viewBox="0 0 66.000000 95.000000"
 preserveAspectRatio="xMidYMid meet">
<metadata>
Created by potrace 1.15, written by Peter Selinger 2001-2017
</metadata>
<g transform="translate(0.000000,95.000000) scale(0.100000,-0.100000)"
fill="#000000" stroke="none">
<path d="M154 685 c-4 -9 -3 -19 1 -23 8 -9 195 -5 285 5 118 14 68 28 -110
31 -147 2 -171 0 -176 -13z"/>
<path d="M295 593 c-56 -4 -85 -15 -85 -34 0 -5 19 -30 43 -57 76 -86 87 -146
25 -140 -30 3 -37 11 -76 83 -53 99 -65 113 -86 95 -21 -16 -20 -22 5 -51 12
-13 33 -48 46 -77 25 -52 25 -52 -6 -94 -34 -46 -39 -84 -16 -128 22 -42 53
-60 106 -60 74 0 81 -5 73 -55 -4 -28 -2 -45 5 -50 20 -12 40 15 43 58 3 36 6
42 28 45 46 5 105 25 127 45 64 57 51 158 -24 181 -29 9 -29 22 0 65 61 94 74
131 49 131 -15 0 -81 -99 -93 -139 -11 -37 -15 -41 -45 -41 -18 0 -36 5 -39
10 -12 19 15 76 60 124 50 55 51 58 29 80 -16 16 -32 17 -169 9z m89 -39 c9
-3 16 -10 16 -14 0 -12 -50 -70 -60 -70 -4 0 -20 16 -35 36 -22 29 -25 38 -14
45 16 10 70 12 93 3z m-70 -230 c13 -5 16 -22 16 -81 0 -76 0 -76 -52 -70 -63
8 -91 32 -90 78 1 39 12 50 60 65 47 15 47 15 66 8z m168 -5 c11 -6 26 -26 34
-45 13 -30 13 -37 -2 -59 -18 -27 -46 -37 -103 -39 -36 -1 -36 -1 -39 68 -2
49 1 72 10 77 19 12 76 11 100 -2z"/>
</g>
</svg>
