<svg version="1.0" xmlns="http://www.w3.org/2000/svg"
 width="68.000000pt" height="120.000000pt" viewBox="0 0 68.000000 120.000000"
 preserveAspectRatio="xMidYMid meet">
<metadata>
Created by potrace 1.15, written by Peter Selinger 2001-2017
</metadata>
<g transform="translate(0.000000,120.000000) scale(0.100000,-0.100000)"
fill="#000000" stroke="none">
<path d="M136 1101 c-3 -5 -6 -33 -5 -62 0 -30 -2 -65 -5 -79 -2 -14 -5 -30
-5 -37 -1 -7 -19 -17 -40 -23 -39 -10 -60 -38 -46 -60 3 -5 1 -10 -4 -10 -6 0
-10 -10 -10 -22 1 -13 -1 -73 -5 -135 -5 -90 -3 -111 7 -107 24 9 36 67 38
176 2 100 4 107 25 117 15 7 25 7 29 0 7 -10 7 -119 1 -184 -2 -22 -7 -83 -10
-135 -4 -52 -9 -124 -12 -160 -2 -36 -7 -134 -10 -218 -5 -132 -4 -152 10
-152 8 0 17 4 20 8 8 13 15 121 22 307 3 94 9 184 13 200 4 17 8 100 10 185 1
85 6 158 9 162 26 27 55 -73 42 -144 -11 -61 -12 -458 -1 -458 23 0 30 39 36
220 14 370 10 416 -42 422 -28 3 -28 3 -24 101 3 92 2 97 -17 97 -12 0 -23 -4
-26 -9z"/>
<path d="M378 953 c-31 -5 -70 -41 -74 -69 -12 -68 -18 -217 -19 -389 0 -173
2 -205 18 -238 10 -21 26 -41 35 -43 9 -3 25 -10 34 -15 10 -5 54 -9 98 -9 61
0 90 5 120 20 65 33 72 51 70 192 -1 68 0 137 2 153 6 56 3 320 -5 347 -4 15
-15 32 -25 37 -19 10 -213 21 -254 14z m227 -53 c8 -7 15 -23 15 -36 0 -12 5
-26 10 -29 6 -4 8 -10 6 -14 -4 -6 -14 -159 -15 -243 -1 -37 -14 -35 -42 4
-23 31 -23 31 -1 71 21 39 21 57 0 57 -6 0 -16 -7 -22 -15 -18 -23 -46 3 -35
33 7 18 16 22 49 22 34 0 41 3 38 18 -2 11 -14 18 -33 19 -17 0 -36 2 -42 2
-26 2 -12 28 20 37 24 8 32 15 32 34 0 13 -6 25 -12 28 -7 2 -13 -4 -13 -13 0
-14 -7 -16 -40 -10 -40 7 -40 7 -40 -34 0 -41 0 -41 -61 -41 -52 0 -60 -2 -57
-17 2 -14 15 -18 61 -19 32 -1 60 -3 62 -5 2 -2 6 -24 10 -48 3 -23 10 -54 15
-66 5 -14 5 -37 0 -54 -6 -22 -5 -33 6 -42 11 -9 15 -8 20 4 5 13 9 13 32 1
15 -8 33 -14 40 -14 9 0 12 -28 12 -105 0 -120 -13 -160 -58 -172 -48 -12
-167 -9 -195 6 -45 24 -49 51 -43 283 6 234 15 331 34 350 27 27 217 33 247 8z"/>
<path d="M480 901 c0 -6 5 -13 10 -16 6 -3 10 1 10 9 0 9 -4 16 -10 16 -5 0
-10 -4 -10 -9z"/>
<path d="M381 693 c-31 -27 -38 -109 -12 -150 24 -39 46 -41 82 -10 22 19 26
31 27 85 2 70 -10 92 -51 92 -14 0 -34 -8 -46 -17z m64 -86 c-7 -37 -24 -51
-50 -41 -24 10 -19 70 7 88 32 23 52 1 43 -47z"/>
<path d="M495 510 c-4 -7 -8 -22 -9 -33 -1 -19 -7 -21 -70 -22 -46 0 -71 -4
-73 -12 -3 -9 12 -13 54 -14 32 -1 64 -1 71 0 8 1 12 -13 12 -41 0 -24 7 -52
15 -62 8 -10 12 -23 9 -28 -3 -4 2 -11 11 -15 25 -9 33 13 23 60 -5 23 -12 69
-15 102 -5 63 -15 85 -28 65z"/>
<path d="M13 528 c-6 -7 -11 -63 -12 -124 -1 -96 1 -113 15 -118 9 -4 18 -5
20 -3 2 2 6 47 9 101 8 130 -3 181 -32 144z"/>
</g>
</svg>
