<svg version="1.0" xmlns="http://www.w3.org/2000/svg"
 width="65.000000pt" height="131.000000pt" viewBox="0 0 65.000000 131.000000"
 preserveAspectRatio="xMidYMid meet">
<metadata>
Created by potrace 1.15, written by Peter Selinger 2001-2017
</metadata>
<g transform="translate(0.000000,131.000000) scale(0.100000,-0.100000)"
fill="#000000" stroke="none">
<path d="M162 1171 c-6 -4 -12 -42 -14 -85 -3 -79 -3 -79 -38 -91 -43 -14 -59
-45 -71 -134 -11 -93 -13 -621 -1 -633 25 -25 30 28 34 332 3 264 7 321 21
353 11 25 22 37 36 37 23 0 30 -19 27 -77 -1 -24 2 -43 7 -43 5 0 5 -6 -1 -12
-5 -7 -11 -57 -11 -110 -1 -54 -5 -108 -10 -120 -12 -32 -14 -558 -3 -558 23
0 30 35 36 175 7 176 15 340 22 445 3 41 5 80 5 85 0 6 0 46 0 90 -1 128 0
130 33 128 16 -1 30 -4 33 -7 5 -5 4 -68 -3 -286 -12 -368 -11 -430 7 -430 24
0 31 24 34 110 5 109 15 252 20 280 2 13 0 29 -6 36 -6 7 -8 18 -5 23 12 19 7
257 -5 285 -8 18 -25 30 -53 38 -23 7 -43 16 -46 20 -3 4 -5 39 -3 77 2 60 0
70 -16 74 -10 2 -24 2 -29 -2z"/>
<path d="M484 1153 c-11 -24 -12 -30 -13 -96 -1 -56 -2 -58 -31 -64 -17 -3
-33 -10 -36 -14 -3 -5 -11 -6 -17 -3 -7 4 -9 4 -5 -1 4 -4 2 -17 -4 -28 -12
-23 -23 -312 -21 -541 2 -148 9 -184 35 -158 11 11 14 106 17 584 1 96 1 98
26 104 14 4 28 4 31 2 2 -3 4 -108 2 -234 -1 -126 -1 -259 0 -296 1 -37 -2
-69 -7 -73 -6 -3 -8 -11 -5 -18 4 -12 10 -123 13 -244 1 -40 5 -53 16 -53 27
0 32 40 34 265 2 322 10 647 15 653 3 2 17 1 32 -2 26 -7 26 -7 18 -269 -12
-344 -11 -394 4 -409 40 -39 47 55 47 608 0 99 -12 124 -57 124 -42 0 -48 12
-47 89 1 52 -3 76 -12 82 -20 13 -26 11 -35 -8z"/>
</g>
</svg>
