<svg version="1.0" xmlns="http://www.w3.org/2000/svg"
 width="69.000000pt" height="85.000000pt" viewBox="0 0 69.000000 85.000000"
 preserveAspectRatio="xMidYMid meet">
<metadata>
Created by potrace 1.15, written by Peter Selinger 2001-2017
</metadata>
<g transform="translate(0.000000,85.000000) scale(0.100000,-0.100000)"
fill="#000000" stroke="none">
<path d="M416 676 c-14 -25 -26 -49 -26 -55 0 -16 15 -13 30 4 17 21 48 19 93
-5 40 -22 77 -19 77 5 0 7 -13 18 -28 23 -16 5 -45 24 -64 41 -20 17 -40 31
-46 31 -5 0 -22 -20 -36 -44z"/>
<path d="M220 680 c0 -6 -34 -46 -75 -89 -43 -45 -71 -82 -66 -86 6 -3 43 21
82 55 71 61 71 61 95 39 14 -13 29 -19 40 -15 15 6 14 10 -8 34 -14 15 -31 37
-37 50 -12 22 -31 30 -31 12z"/>
<path d="M440 493 c-15 -49 -53 -107 -104 -160 -57 -61 -22 -56 46 6 54 50 54
50 65 -42 13 -107 48 -193 96 -233 44 -37 47 -13 8 61 -17 31 -33 73 -36 93
-4 21 -11 58 -17 85 -11 53 -4 97 16 97 7 0 27 -7 44 -16 40 -19 83 -23 89 -7
3 7 -6 17 -19 22 -37 14 -126 88 -133 111 -11 34 -42 25 -55 -17z"/>
<path d="M148 389 c-42 -43 -74 -80 -70 -83 12 -13 33 -5 67 25 24 21 39 29
46 22 13 -13 -34 -253 -57 -293 -20 -32 -12 -50 14 -34 32 21 65 107 85 225
18 106 22 117 38 108 22 -12 66 -12 73 0 3 5 -16 26 -44 47 -27 20 -51 43 -54
51 -3 7 -9 12 -13 12 -4 -1 -42 -37 -85 -80z"/>
</g>
</svg>
