<svg version="1.0" xmlns="http://www.w3.org/2000/svg"
 width="41.000000pt" height="117.000000pt" viewBox="0 0 41.000000 117.000000"
 preserveAspectRatio="xMidYMid meet">
<metadata>
Created by potrace 1.15, written by Peter Selinger 2001-2017
</metadata>
<g transform="translate(0.000000,117.000000) scale(0.100000,-0.100000)"
fill="#000000" stroke="none">
<path d="M150 1070 c0 -11 -12 -45 -27 -77 -43 -94 -62 -192 -52 -271 11 -92
17 -109 61 -174 21 -31 38 -60 38 -64 0 -4 -11 -31 -25 -61 -49 -102 -52 -205
-10 -296 53 -116 101 -131 171 -54 23 25 44 59 47 74 3 15 8 41 12 58 8 36
-12 148 -36 195 -9 19 -26 44 -38 54 -26 24 -27 69 -2 104 10 15 22 41 26 57
13 50 17 177 7 199 -5 12 -15 39 -22 61 -7 22 -21 52 -31 67 -11 14 -19 32
-19 40 -1 21 -69 108 -85 108 -8 0 -15 -9 -15 -20z m81 -172 c45 -105 22 -314
-34 -306 -56 8 -80 195 -39 298 6 14 13 33 16 43 10 32 33 17 57 -35z m48
-541 c30 -61 40 -175 20 -215 -17 -33 -34 -52 -47 -52 -29 0 -89 141 -75 177
3 8 6 22 7 31 1 10 8 39 16 65 19 63 45 61 79 -6z"/>
</g>
</svg>
