<svg version="1.0" xmlns="http://www.w3.org/2000/svg"
 width="65.000000pt" height="121.000000pt" viewBox="0 0 65.000000 121.000000"
 preserveAspectRatio="xMidYMid meet">
<metadata>
Created by potrace 1.15, written by Peter Selinger 2001-2017
</metadata>
<g transform="translate(0.000000,121.000000) scale(0.100000,-0.100000)"
fill="#000000" stroke="none">
<path d="M209 1052 c-66 -45 -79 -77 -86 -209 -4 -75 -9 -103 -19 -103 -22 0
-27 20 -26 116 0 78 -3 96 -19 110 -17 15 -18 15 -25 -11 -4 -15 -4 -72 -1
-127 6 -105 16 -131 64 -149 21 -8 22 -13 17 -91 -6 -106 -13 -148 -23 -148
-17 0 -31 64 -31 141 0 72 -2 79 -20 79 -16 0 -20 -7 -21 -37 -5 -143 11 -206
56 -223 28 -11 27 3 25 -236 -1 -113 2 -143 14 -153 27 -23 34 19 30 201 -3
178 -3 178 24 184 66 13 84 46 90 162 4 78 4 82 -17 82 -20 0 -21 -5 -21 -75
0 -85 -18 -125 -54 -125 -21 0 -22 3 -19 98 5 126 8 142 34 142 11 0 34 13 50
30 29 29 30 30 27 127 -3 84 -5 98 -20 101 -16 3 -18 -6 -18 -75 0 -83 -14
-126 -44 -131 -16 -4 -17 3 -13 80 6 97 16 148 28 148 5 0 9 7 9 15 0 9 13 24
30 33 31 18 40 46 16 55 -7 3 -24 -2 -37 -11z"/>
<path d="M395 926 c-56 -21 -67 -33 -81 -87 -17 -64 -18 -146 -3 -277 13 -122
26 -138 119 -150 55 -8 67 -7 77 7 24 32 15 41 -42 41 -89 0 -103 11 -110 89
-14 133 -13 135 20 141 17 3 42 4 57 2 23 -3 27 -10 33 -50 9 -58 29 -94 66
-116 40 -24 52 -51 45 -101 -8 -51 -30 -80 -79 -100 -44 -18 -48 -25 -68 -105
-16 -65 -16 -65 -114 -65 -67 0 -100 -4 -102 -12 -9 -27 38 -33 229 -30 183 3
193 4 193 23 0 17 -8 19 -78 20 -42 0 -80 4 -83 7 -4 3 -2 28 2 54 9 45 12 50
64 76 60 30 76 54 86 124 9 67 -9 114 -56 143 -30 19 -43 35 -51 63 -17 64 -7
77 60 77 66 0 75 5 60 32 -9 17 -19 19 -67 16 -54 -3 -57 -2 -60 21 -2 14 -1
48 3 77 6 52 6 52 56 51 55 0 62 3 53 27 -5 13 -22 16 -103 15 -53 -1 -109 -7
-126 -13z m68 -58 c2 -7 2 -38 -1 -69 -4 -57 -4 -57 -51 -62 -25 -3 -50 -3
-54 0 -15 9 3 116 21 130 22 16 79 17 85 1z"/>
</g>
</svg>
