<svg version="1.0" xmlns="http://www.w3.org/2000/svg"
 width="95.000000pt" height="129.000000pt" viewBox="0 0 95.000000 129.000000"
 preserveAspectRatio="xMidYMid meet">
<metadata>
Created by potrace 1.15, written by Peter Selinger 2001-2017
</metadata>
<g transform="translate(0.000000,129.000000) scale(0.100000,-0.100000)"
fill="#000000" stroke="none">
<path d="M690 1208 c0 -29 -5 -82 -10 -118 -5 -36 -11 -112 -14 -169 -3 -56
-10 -109 -17 -117 -16 -20 -47 -17 -53 4 -10 33 -20 167 -17 212 3 25 5 76 5
115 1 56 -2 70 -15 73 -14 2 -17 -14 -22 -105 -3 -59 -4 -153 -1 -209 5 -100
5 -101 -21 -112 -14 -7 -35 -12 -46 -12 -26 0 -59 -18 -59 -32 0 -11 139 -6
172 7 22 9 36 -44 38 -147 1 -75 0 -78 -22 -79 -13 -1 -30 -2 -38 -3 -8 -2
-25 -3 -37 -4 -26 -2 -31 -29 -8 -38 9 -4 33 -2 55 4 22 5 42 6 45 2 2 -4 7
-83 11 -176 3 -93 7 -173 7 -179 1 -5 -36 -16 -83 -23 -136 -21 -165 -31 -144
-52 7 -7 25 -7 60 1 88 19 226 31 352 31 111 -1 123 1 120 16 -3 15 -17 17
-130 13 -126 -3 -126 -3 -132 55 -3 33 -9 119 -12 192 -6 132 -6 132 56 132
53 0 61 2 58 18 -3 13 -14 17 -55 17 -28 0 -54 3 -56 5 -3 3 -7 53 -10 113 -5
107 -5 107 118 107 121 0 151 8 127 32 -6 6 -53 10 -106 9 -96 -1 -96 -1 -97
26 -1 16 -3 42 -4 58 -3 45 4 55 39 55 68 0 106 39 106 110 0 14 7 48 16 73
16 46 13 97 -5 97 -5 0 -12 -8 -16 -17 -13 -32 -34 -127 -35 -155 0 -32 -33
-58 -73 -58 -29 0 -29 0 -22 48 13 98 14 216 2 224 -23 15 -27 8 -27 -44z"/>
<path d="M237 1065 c-59 -57 -117 -107 -127 -110 -27 -9 -26 -45 0 -45 11 0
20 4 20 9 0 5 8 12 18 15 11 4 52 39 93 80 41 40 87 81 102 91 27 18 35 55 12
61 -5 2 -59 -44 -118 -101z"/>
<path d="M331 981 c-13 -15 -44 -40 -68 -55 -24 -16 -46 -33 -51 -40 -4 -6
-32 -31 -62 -56 -30 -25 -63 -52 -72 -60 -23 -19 -23 -40 0 -40 17 0 51 24
124 89 21 19 42 31 45 27 4 -4 12 -107 18 -229 15 -305 4 -350 -114 -477 -28
-30 -63 -67 -77 -82 -33 -37 -22 -55 17 -27 39 27 169 158 169 169 0 5 6 15
13 22 31 32 37 94 36 390 -1 163 2 301 5 307 4 6 12 11 18 11 17 0 49 43 43
58 -3 7 -5 16 -5 18 0 11 -17 0 -39 -25z"/>
</g>
</svg>
