<svg version="1.0" xmlns="http://www.w3.org/2000/svg"
 width="67.000000pt" height="108.000000pt" viewBox="0 0 67.000000 108.000000"
 preserveAspectRatio="xMidYMid meet">
<metadata>
Created by potrace 1.15, written by Peter Selinger 2001-2017
</metadata>
<g transform="translate(0.000000,108.000000) scale(0.100000,-0.100000)"
fill="#000000" stroke="none">
<path d="M363 876 c-29 -6 -57 -15 -62 -21 -6 -6 -12 -155 -15 -370 -2 -198
-8 -381 -11 -407 -5 -40 -4 -48 10 -48 18 0 21 8 30 70 12 80 15 140 15 437 1
264 3 293 18 297 42 13 148 25 169 20 39 -10 133 5 133 22 0 12 -21 14 -117
13 -65 -1 -141 -7 -170 -13z"/>
<path d="M69 817 c-15 -12 -28 -36 -36 -67 -7 -29 -6 -317 1 -328 4 -7 25 -21
46 -31 37 -18 42 -18 74 -3 58 26 70 65 74 225 4 145 -7 197 -44 211 -27 10
-98 6 -115 -7z m110 -54 c6 -16 12 -48 13 -73 3 -45 3 -45 -57 -52 -33 -5 -65
-6 -71 -4 -7 3 -8 24 -3 66 8 69 25 89 75 90 25 0 34 -6 43 -27z m11 -213 c0
-96 -30 -135 -93 -123 -22 4 -26 12 -35 71 -14 96 -5 106 96 111 32 1 32 1 32
-59z"/>
<path d="M450 759 c-14 -4 -38 -11 -53 -14 -16 -3 -27 -11 -24 -18 4 -12 12
-12 130 -1 49 5 61 3 72 -13 21 -26 18 -74 -6 -130 -21 -47 -21 -48 -32 -23
-21 45 -33 51 -99 48 -50 -2 -63 -6 -66 -20 -3 -16 5 -18 55 -18 55 0 59 -1
72 -31 12 -28 12 -33 -6 -50 -10 -11 -43 -32 -73 -47 -96 -50 -68 -73 34 -28
54 24 54 24 64 -2 6 -15 15 -79 22 -142 13 -135 31 -250 39 -250 24 1 33 21
27 61 -3 24 -9 68 -12 97 -4 29 -10 55 -15 58 -5 3 -9 29 -9 59 0 30 -4 56 -9
59 -5 3 -9 35 -9 70 0 51 3 68 19 82 10 9 19 23 19 31 0 7 4 13 9 13 8 0 12
18 28 118 3 19 -1 46 -11 67 -17 35 -18 35 -79 34 -34 -1 -73 -5 -87 -10z"/>
</g>
</svg>
