<svg version="1.0" xmlns="http://www.w3.org/2000/svg"
 width="68.000000pt" height="99.000000pt" viewBox="0 0 68.000000 99.000000"
 preserveAspectRatio="xMidYMid meet">
<metadata>
Created by potrace 1.15, written by Peter Selinger 2001-2017
</metadata>
<g transform="translate(0.000000,99.000000) scale(0.100000,-0.100000)"
fill="#000000" stroke="none">
<path d="M440 722 c0 -10 11 -25 25 -32 14 -7 25 -21 25 -30 0 -10 7 -23 15
-30 10 -8 15 -30 15 -61 0 -38 -5 -53 -25 -74 -14 -14 -29 -25 -34 -25 -4 0
-7 29 -7 64 0 50 -6 75 -29 120 -34 68 -47 80 -75 71 -28 -9 -78 -119 -86
-192 -6 -47 -10 -54 -27 -51 -13 2 -25 17 -35 45 -24 64 2 130 69 177 31 22
17 31 -23 16 -69 -28 -108 -87 -108 -165 0 -51 35 -100 87 -121 18 -8 33 -18
33 -23 0 -11 -92 -101 -103 -101 -17 0 -67 -42 -67 -56 0 -31 44 -11 136 61
53 41 100 75 104 75 21 0 20 -24 -1 -47 -35 -37 -139 -118 -176 -137 -18 -9
-33 -23 -33 -31 0 -23 47 -19 60 5 6 11 17 20 24 20 8 0 19 7 27 16 11 14 59
46 142 98 29 18 47 14 47 -9 0 -17 -126 -131 -177 -159 -23 -13 -39 -30 -41
-44 -4 -29 21 -29 56 -1 80 62 189 139 199 139 20 0 25 -37 9 -68 -21 -40 -75
-79 -129 -93 -49 -12 -64 -30 -41 -50 12 -10 26 -8 72 11 79 32 117 63 141
115 37 78 26 118 -53 195 -25 24 -46 47 -46 51 0 4 18 10 41 14 52 9 83 39
103 99 30 92 14 157 -50 200 -45 31 -64 33 -64 8z m-44 -111 c6 -31 6 -31 -36
-31 -42 0 -42 0 -36 32 3 17 14 39 24 48 16 16 18 16 30 -1 7 -10 15 -32 18
-48z m17 -93 c2 -18 3 -36 0 -40 -8 -14 -123 -9 -123 5 1 38 13 56 44 60 73 9
73 9 79 -25z"/>
</g>
</svg>
