<svg version="1.0" xmlns="http://www.w3.org/2000/svg"
 width="67.000000pt" height="96.000000pt" viewBox="0 0 67.000000 96.000000"
 preserveAspectRatio="xMidYMid meet">
<metadata>
Created by potrace 1.15, written by Peter Selinger 2001-2017
</metadata>
<g transform="translate(0.000000,96.000000) scale(0.100000,-0.100000)"
fill="#000000" stroke="none">
<path d="M255 810 c-3 -5 3 -26 13 -47 20 -37 20 -37 -16 -81 -20 -24 -46 -48
-59 -53 -26 -10 -31 -39 -7 -39 28 0 111 50 133 81 23 31 52 37 70 15 10 -12
7 -18 -16 -32 -15 -10 -44 -32 -64 -50 -24 -21 -51 -34 -82 -38 -112 -17 -161
-143 -63 -162 47 -8 73 2 81 33 8 33 -12 56 -26 31 -12 -21 -49 -24 -49 -5 0
25 45 55 92 62 48 7 48 7 43 -40 -3 -41 -10 -52 -46 -84 -23 -20 -51 -42 -61
-49 -10 -7 -18 -17 -18 -23 0 -20 41 -7 86 27 35 27 49 33 55 23 11 -18 -3
-40 -61 -93 -49 -43 -57 -66 -23 -66 9 0 31 16 49 36 20 21 41 34 52 32 13 -3
0 -21 -55 -79 -40 -42 -73 -81 -73 -87 0 -28 24 -19 71 25 52 48 52 48 45 18
-3 -16 -19 -54 -33 -82 -21 -41 -24 -56 -15 -65 18 -18 46 14 73 80 34 86 36
88 94 42 46 -36 85 -51 85 -32 0 4 -31 42 -70 85 -65 73 -70 81 -70 124 0 26
-9 80 -21 120 -25 91 -19 103 53 103 59 0 88 -13 88 -41 0 -27 -28 -36 -44
-14 -26 36 -49 -12 -26 -56 12 -22 56 -25 80 -6 26 20 50 60 50 82 0 40 -78
84 -152 85 -46 0 -50 18 -8 27 34 6 50 28 50 66 0 31 -16 44 -77 62 -27 8 -61
28 -78 45 -31 32 -40 36 -50 20z"/>
</g>
</svg>
