<svg version="1.0" xmlns="http://www.w3.org/2000/svg"
 width="64.000000pt" height="88.000000pt" viewBox="0 0 64.000000 88.000000"
 preserveAspectRatio="xMidYMid meet">
<metadata>
Created by potrace 1.15, written by Peter Selinger 2001-2017
</metadata>
<g transform="translate(0.000000,88.000000) scale(0.100000,-0.100000)"
fill="#000000" stroke="none">
<path d="M173 753 c-7 -2 -13 -11 -13 -19 0 -11 27 -14 149 -14 157 0 181 3
181 26 0 11 -28 14 -152 13 -84 0 -159 -3 -165 -6z"/>
<path d="M267 640 c-152 -6 -192 -11 -205 -23 -14 -15 -14 -17 1 -23 9 -3 53
-4 97 -3 79 4 79 4 85 -36 4 -25 16 -48 31 -61 24 -20 24 -20 -58 -100 -46
-43 -98 -87 -116 -96 -30 -16 -45 -48 -21 -48 25 0 157 97 208 152 56 60 56
60 83 27 16 -18 28 -39 28 -46 0 -7 -27 -45 -60 -84 -85 -101 -89 -135 -30
-222 38 -57 44 -61 70 -47 28 15 26 26 -20 80 -57 68 -54 89 25 171 55 57 65
73 65 102 0 47 -37 90 -106 123 -47 22 -54 29 -54 55 0 38 23 43 161 36 86 -4
110 -3 119 9 7 7 10 21 6 29 -6 17 1 17 -309 5z"/>
</g>
</svg>
