<svg version="1.0" xmlns="http://www.w3.org/2000/svg"
 width="81.000000pt" height="125.000000pt" viewBox="0 0 81.000000 125.000000"
 preserveAspectRatio="xMidYMid meet">
<metadata>
Created by potrace 1.15, written by Peter Selinger 2001-2017
</metadata>
<g transform="translate(0.000000,125.000000) scale(0.100000,-0.100000)"
fill="#000000" stroke="none">
<path d="M316 1069 c-238 -17 -308 -52 -208 -103 28 -14 50 -16 120 -11 48 3
105 10 127 15 22 5 77 11 121 13 45 3 97 12 115 20 19 8 49 20 67 27 20 8 32
19 32 31 0 18 -9 19 -132 18 -73 -1 -182 -5 -242 -10z"/>
<path d="M180 900 c-69 -8 -84 -15 -101 -46 -17 -33 -2 -58 37 -61 93 -6 135
-21 192 -73 19 -17 22 -109 7 -222 -9 -73 8 -182 45 -278 16 -41 37 -100 47
-130 16 -47 23 -55 47 -58 54 -7 72 66 40 158 -9 25 -21 83 -26 130 -13 107
-21 300 -13 300 4 0 25 -13 48 -29 40 -27 92 -58 146 -87 42 -22 78 14 60 62
-4 12 -31 33 -60 49 -79 41 -90 48 -122 75 -32 28 -60 74 -50 84 4 3 46 6 94
6 48 0 91 5 94 10 3 6 17 10 30 10 19 0 22 4 17 23 -12 38 -26 52 -62 63 -42
13 -61 8 -53 -12 3 -9 -1 -14 -11 -14 -9 0 -19 6 -22 14 -9 24 -258 40 -384
26z"/>
</g>
</svg>
