<svg version="1.0" xmlns="http://www.w3.org/2000/svg"
 width="71.000000pt" height="80.000000pt" viewBox="0 0 71.000000 80.000000"
 preserveAspectRatio="xMidYMid meet">
<metadata>
Created by potrace 1.15, written by Peter Selinger 2001-2017
</metadata>
<g transform="translate(0.000000,80.000000) scale(0.100000,-0.100000)"
fill="#000000" stroke="none">
<path d="M309 653 c-1 -4 0 -66 1 -137 2 -139 0 -146 -53 -146 -26 0 -28 3
-25 32 2 25 9 34 28 38 34 8 32 34 -2 38 -33 4 -37 19 -6 24 31 4 34 26 4 34
-34 8 -33 22 1 26 17 2 29 10 31 21 3 13 -3 17 -28 17 -18 0 -33 6 -36 15 -8
19 -33 20 -40 1 -3 -8 -14 -16 -25 -19 -25 -7 -24 -27 1 -34 23 -6 27 -28 5
-37 -21 -8 -19 -24 5 -31 29 -9 25 -23 -7 -27 -17 -2 -28 -9 -28 -18 0 -9 11
-16 28 -18 21 -3 27 -9 27 -27 0 -27 -24 -39 -50 -25 -14 7 -20 26 -25 77 -3
38 -7 77 -8 88 -1 13 -9 20 -22 20 -19 0 -20 -6 -17 -90 6 -145 -8 -138 254
-134 266 5 250 -4 246 144 -3 92 -5 100 -23 100 -15 0 -21 -8 -25 -35 -3 -23
-8 -31 -13 -22 -5 6 -17 12 -28 12 -29 0 -23 17 11 28 21 8 28 16 24 26 -3 9
-14 16 -23 16 -9 0 -21 10 -26 23 -6 12 -17 22 -25 22 -8 0 -16 -10 -18 -22
-2 -13 -9 -23 -16 -23 -8 0 -19 -7 -26 -15 -10 -12 -8 -16 14 -25 30 -11 32
-17 10 -42 -16 -16 -16 -18 0 -24 22 -9 20 -31 -4 -39 -26 -8 -26 -22 1 -30
14 -5 19 -14 17 -28 -2 -17 -11 -23 -37 -25 -33 -3 -33 -3 -30 135 4 137 4
138 -18 141 -13 2 -24 0 -24 -5z m211 -180 c0 -66 -9 -83 -41 -83 -37 0 -39
26 -4 42 30 14 32 28 5 35 -11 3 -20 11 -20 18 0 12 9 16 53 24 4 0 7 -16 7
-36z"/>
<path d="M84 299 c-3 -6 -2 -15 2 -19 5 -5 107 -10 227 -11 214 -3 250 2 233
30 -10 15 -452 15 -462 0z"/>
<path d="M285 245 c-21 -9 -43 -21 -47 -28 -14 -22 -9 -58 13 -88 33 -47 21
-59 -64 -59 -75 0 -108 -14 -92 -40 8 -13 464 -3 479 11 5 5 4 14 -4 24 -9 11
-32 15 -86 15 -63 0 -73 3 -79 19 -3 11 3 33 15 53 26 43 25 64 -4 83 -35 23
-85 27 -131 10z m105 -40 c11 -13 10 -21 -7 -43 -36 -48 -109 -37 -115 17 -2
19 3 26 22 32 43 12 87 10 100 -6z m-35 -115 c3 -5 -3 -10 -14 -10 -12 0 -21
5 -21 10 0 6 6 10 14 10 8 0 18 -4 21 -10z"/>
<path d="M310 194 c-11 -12 -10 -18 3 -32 16 -15 18 -15 34 0 13 14 14 20 3
32 -7 9 -16 16 -20 16 -4 0 -13 -7 -20 -16z"/>
</g>
</svg>
