<svg version="1.0" xmlns="http://www.w3.org/2000/svg"
 width="70.000000pt" height="92.000000pt" viewBox="0 0 70.000000 92.000000"
 preserveAspectRatio="xMidYMid meet">
<metadata>
Created by potrace 1.15, written by Peter Selinger 2001-2017
</metadata>
<g transform="translate(0.000000,92.000000) scale(0.100000,-0.100000)"
fill="#000000" stroke="none">
<path d="M120 701 c0 -5 11 -29 25 -52 33 -58 31 -75 -7 -113 -42 -40 -78 -91
-78 -111 0 -24 11 -18 55 32 29 32 46 45 58 40 37 -14 -11 -144 -75 -208 -38
-37 -48 -59 -27 -59 18 0 91 69 116 108 22 35 22 35 42 1 27 -44 27 -53 -9
-124 -33 -67 -41 -153 -16 -174 18 -15 26 5 26 63 0 30 11 64 36 111 42 79 41
105 -6 164 -28 34 -31 45 -28 92 3 50 5 54 27 54 21 0 26 -7 36 -51 12 -52 48
-114 67 -114 5 0 7 6 4 13 -47 112 -44 182 12 290 2 4 -1 7 -8 7 -15 0 -60
-49 -71 -77 -6 -17 -17 -23 -38 -23 -34 0 -49 15 -57 59 -8 41 -84 106 -84 72z"/>
<path d="M480 648 c0 -8 5 -19 10 -24 8 -8 6 -48 -4 -135 -17 -133 -36 -212
-60 -244 -17 -22 -21 -45 -7 -45 4 0 20 18 35 39 31 45 62 152 71 250 9 93 13
103 38 99 24 -3 24 0 15 -308 -3 -115 -1 -129 20 -172 13 -27 30 -48 38 -48 8
0 14 1 14 3 0 1 -7 24 -15 51 -20 66 -20 273 0 372 15 68 14 77 -1 109 -9 20
-26 37 -38 39 -11 3 -34 7 -51 10 -16 2 -38 8 -47 11 -12 5 -18 2 -18 -7z"/>
</g>
</svg>
