<svg version="1.0" xmlns="http://www.w3.org/2000/svg"
 width="68.000000pt" height="78.000000pt" viewBox="0 0 68.000000 78.000000"
 preserveAspectRatio="xMidYMid meet">
<metadata>
Created by potrace 1.15, written by Peter Selinger 2001-2017
</metadata>
<g transform="translate(0.000000,78.000000) scale(0.100000,-0.100000)"
fill="#000000" stroke="none">
<path d="M145 684 c-47 -17 -65 -38 -65 -74 0 -60 42 -64 144 -15 73 35 110
43 120 26 8 -12 -12 -26 -55 -40 -48 -15 -65 -36 -79 -93 -12 -47 -13 -48 -51
-48 -32 0 -39 3 -39 20 0 20 9 24 43 21 27 -3 20 28 -9 40 -30 11 -60 4 -86
-19 -25 -21 -22 -49 8 -79 22 -22 32 -25 70 -20 42 4 44 3 38 -17 -4 -11 -7
-21 -8 -22 0 0 -21 -6 -45 -13 -82 -23 -118 -93 -71 -136 27 -25 71 -10 84 27
13 36 1 46 -24 23 -19 -18 -20 -17 -20 3 0 18 46 52 70 52 4 0 10 -27 13 -60
6 -74 27 -108 78 -128 26 -10 39 -21 39 -34 0 -26 -42 -23 -77 5 -36 29 -77
47 -108 47 -28 0 -55 -34 -55 -68 0 -26 41 -72 65 -72 17 0 21 35 5 45 -6 3
-10 15 -10 26 0 27 32 24 68 -6 38 -32 99 -58 115 -49 36 21 57 50 57 81 0 36
-18 52 -83 73 -45 14 -59 37 -55 93 3 41 3 42 38 39 45 -4 81 -27 74 -47 -8
-20 -40 -19 -48 2 -10 26 -30 -1 -22 -31 8 -32 48 -35 85 -7 19 15 22 23 16
50 -7 35 -46 60 -105 70 -29 5 -35 11 -35 31 0 23 3 25 42 22 88 -5 158 53
118 98 -10 11 -30 20 -44 20 -32 0 -71 -25 -71 -46 0 -17 -16 -19 -26 -3 -14
24 20 59 79 81 67 24 95 55 78 87 -24 44 -123 36 -198 -15 -20 -14 -43 -23
-52 -22 -32 6 -20 28 29 53 76 38 50 60 -35 29z m198 -211 c11 -10 -13 -33
-34 -33 -21 0 -26 26 -6 33 18 8 33 8 40 0z"/>
<path d="M460 660 c0 -5 6 -10 13 -10 7 0 23 -7 35 -16 22 -15 22 -16 5 -46
-10 -17 -33 -40 -50 -50 -32 -20 -43 -38 -23 -38 19 0 84 37 104 59 25 27 36
27 36 -2 0 -26 -29 -57 -76 -80 -35 -18 -80 -79 -94 -126 -11 -40 -7 -134 9
-189 6 -23 26 -58 42 -77 28 -32 36 -35 84 -35 78 0 98 20 103 104 5 70 -3 80
-33 46 -28 -31 -54 -25 -72 17 -20 50 -12 114 21 161 20 29 25 46 20 68 -4 22
0 34 15 48 25 23 28 74 6 115 -10 20 -29 34 -62 45 -53 18 -83 20 -83 6z m80
-229 c0 -5 -11 -34 -25 -65 -54 -123 -9 -244 82 -221 16 4 23 1 23 -9 0 -19
-48 -56 -72 -56 -32 0 -75 53 -93 114 -15 50 -15 67 -5 123 8 40 22 75 37 94
24 28 53 39 53 20z"/>
</g>
</svg>
