<svg version="1.0" xmlns="http://www.w3.org/2000/svg"
 width="63.000000pt" height="84.000000pt" viewBox="0 0 63.000000 84.000000"
 preserveAspectRatio="xMidYMid meet">
<metadata>
Created by potrace 1.15, written by Peter Selinger 2001-2017
</metadata>
<g transform="translate(0.000000,84.000000) scale(0.100000,-0.100000)"
fill="#000000" stroke="none">
<path d="M165 614 c-9 -9 -14 -23 -11 -30 3 -9 -7 -15 -32 -19 -67 -10 -87
-20 -90 -43 -4 -27 -1 -27 108 -2 84 19 84 19 132 -2 26 -11 54 -18 62 -15 15
6 26 -20 26 -64 0 -30 38 -69 67 -69 43 0 38 -56 -6 -67 -34 -8 -81 -43 -81
-60 0 -24 29 -26 56 -4 36 28 104 29 104 2 0 -21 -19 -31 -55 -31 -35 0 -55
-36 -55 -97 0 -70 22 -85 112 -81 56 3 63 5 66 25 3 21 -1 22 -65 25 -65 3
-68 4 -71 29 -4 35 22 59 64 59 37 0 74 28 74 58 0 24 -35 79 -59 91 -27 15
-16 45 22 62 31 14 32 15 31 78 -1 47 -5 67 -18 76 -9 7 -16 17 -16 24 0 6 -7
11 -16 11 -14 0 -15 -7 -9 -42 11 -69 11 -101 -2 -105 -8 -3 -13 4 -13 16 0
11 -4 30 -9 43 -5 13 -15 43 -21 68 -15 50 -47 87 -63 71 -7 -7 -2 -33 16 -78
32 -81 43 -133 30 -133 -15 0 -43 34 -43 52 0 28 -11 48 -27 48 -8 0 -29 11
-46 23 -18 13 -47 30 -64 37 -18 7 -33 18 -33 26 0 11 -29 34 -44 34 -2 0 -12
-7 -21 -16z"/>
<path d="M188 461 c-124 -8 -131 -14 -122 -121 8 -99 20 -118 81 -122 48 -3
48 -3 45 -52 -6 -77 6 -138 26 -134 14 3 18 20 22 97 5 94 5 94 40 106 31 10
36 18 47 61 6 27 12 70 12 96 1 38 -3 50 -21 62 -12 9 -25 15 -28 14 -3 -1
-49 -4 -102 -7z m112 -70 c5 -11 10 -22 10 -25 0 -8 -154 -8 -174 0 -9 3 -16
15 -16 25 0 17 8 19 85 19 73 0 86 -3 95 -19z m-15 -91 c-15 -29 -17 -30 -90
-30 -73 0 -75 1 -75 25 0 23 3 24 68 28 37 2 77 4 90 5 22 2 22 1 7 -28z"/>
<path d="M94 186 c-3 -7 -4 -42 -2 -77 3 -58 5 -64 26 -67 21 -3 22 0 22 65 0
64 -10 93 -32 93 -5 0 -11 -6 -14 -14z"/>
<path d="M286 185 c-7 -20 3 -117 15 -136 17 -29 30 8 27 77 -2 54 -6 69 -19
72 -9 2 -19 -4 -23 -13z"/>
</g>
</svg>
