<svg version="1.0" xmlns="http://www.w3.org/2000/svg"
 width="68.000000pt" height="91.000000pt" viewBox="0 0 68.000000 91.000000"
 preserveAspectRatio="xMidYMid meet">
<metadata>
Created by potrace 1.15, written by Peter Selinger 2001-2017
</metadata>
<g transform="translate(0.000000,91.000000) scale(0.100000,-0.100000)"
fill="#000000" stroke="none">
<path d="M207 694 c-4 -4 -7 -27 -7 -50 0 -43 0 -43 -62 -46 -48 -2 -63 -7
-63 -18 0 -22 263 -26 272 -4 8 21 -1 27 -50 33 -40 6 -42 8 -47 46 -5 38 -25
56 -43 39z"/>
<path d="M406 692 c-2 -4 9 -27 25 -51 16 -24 29 -55 29 -68 0 -21 -4 -23 -50
-23 -38 0 -50 -4 -50 -15 0 -11 12 -15 50 -15 40 0 50 -3 50 -17 0 -19 -38
-100 -50 -108 -5 -3 -14 -29 -21 -59 -9 -44 -9 -67 5 -133 20 -98 43 -156 59
-150 16 5 13 38 -8 112 -23 81 -17 196 13 245 12 19 24 42 28 50 13 36 23 45
50 53 87 26 102 59 65 142 -24 54 -58 65 -47 15 3 -16 9 -43 12 -60 5 -25 2
-31 -20 -41 -32 -15 -56 2 -56 40 0 52 -64 115 -84 83z"/>
<path d="M180 491 c-49 -10 -58 -17 -75 -58 -20 -47 -10 -127 18 -154 24 -22
110 -25 167 -6 33 11 35 15 43 72 9 67 3 118 -16 133 -17 14 -96 22 -137 13z
m95 -47 c53 -35 16 -64 -80 -64 -30 0 -57 4 -60 10 -10 17 11 43 46 55 48 18
66 17 94 -1z m15 -114 c0 -26 -29 -40 -82 -40 -50 0 -63 7 -72 38 -7 22 -6 22
73 22 74 0 81 -2 81 -20z"/>
<path d="M546 442 c-8 -15 -20 -55 -27 -88 -10 -50 -10 -69 4 -123 9 -35 28
-82 42 -103 22 -33 28 -37 45 -28 26 14 25 17 -10 69 -53 78 -61 134 -30 221
11 30 19 61 20 68 0 23 -29 12 -44 -16z"/>
<path d="M123 193 c-54 -3 -63 -7 -63 -23 0 -26 41 -36 80 -20 40 17 50 7 50
-54 0 -57 20 -100 36 -75 5 8 11 41 14 74 5 60 5 60 45 65 46 7 68 17 60 31
-6 9 -87 9 -222 2z"/>
</g>
</svg>
