<svg version="1.0" xmlns="http://www.w3.org/2000/svg"
 width="68.000000pt" height="91.000000pt" viewBox="0 0 68.000000 91.000000"
 preserveAspectRatio="xMidYMid meet">
<metadata>
Created by potrace 1.15, written by Peter Selinger 2001-2017
</metadata>
<g transform="translate(0.000000,91.000000) scale(0.100000,-0.100000)"
fill="#000000" stroke="none">
<path d="M207 672 c-9 -10 -42 -36 -72 -58 -89 -64 -63 -76 39 -19 35 19 69
35 77 35 8 0 30 -13 49 -30 39 -33 73 -40 68 -13 -4 22 -104 103 -127 103 -10
0 -25 -8 -34 -18z"/>
<path d="M483 683 c-8 -3 -13 -24 -13 -58 0 -53 0 -53 -46 -60 -56 -8 -54 -29
4 -33 38 -3 42 -6 42 -30 0 -19 -10 -35 -34 -54 -30 -24 -35 -35 -45 -105 -7
-43 -15 -131 -18 -197 -6 -112 -5 -118 13 -114 17 3 20 17 26 158 4 85 11 169
16 185 9 32 42 55 80 55 33 0 35 -19 7 -74 -30 -60 -30 -66 -4 -152 31 -103
57 -154 80 -154 34 0 33 29 -3 83 -51 75 -51 75 -55 134 -4 47 -1 57 27 92 37
46 32 66 -24 96 -51 28 -47 91 5 83 17 -2 25 -11 30 -36 8 -42 15 -48 33 -33
11 10 14 32 11 96 -4 90 -8 105 -31 105 -9 0 -14 -11 -14 -34 0 -36 -24 -70
-44 -63 -6 2 -10 20 -8 43 3 41 -15 75 -35 67z"/>
<path d="M157 525 c-35 -20 -47 -51 -47 -124 0 -63 9 -77 57 -90 40 -11 37
-41 -7 -55 -43 -14 -61 -48 -68 -133 -4 -59 -3 -63 16 -63 18 0 21 8 27 75 6
58 12 78 26 85 36 20 39 12 39 -95 0 -83 3 -105 14 -105 21 0 26 23 26 115 0
88 12 113 37 80 8 -12 13 -47 13 -93 0 -64 2 -73 17 -70 13 2 20 17 25 53 13
86 -10 145 -63 164 -37 13 -38 37 -1 44 55 11 66 29 70 109 5 96 -4 107 -88
113 -48 4 -72 1 -93 -10z m112 -31 c25 -5 31 -11 29 -28 -3 -19 -10 -21 -75
-24 -67 -3 -73 -1 -73 17 0 36 47 49 119 35z m29 -99 c11 -10 -17 -36 -46 -45
-52 -14 -78 -12 -96 6 -20 19 -20 19 1 39 13 14 27 15 77 10 34 -4 62 -8 64
-10z"/>
</g>
</svg>
