<svg version="1.0" xmlns="http://www.w3.org/2000/svg"
 width="45.000000pt" height="79.000000pt" viewBox="0 0 45.000000 79.000000"
 preserveAspectRatio="xMidYMid meet">
<metadata>
Created by potrace 1.15, written by Peter Selinger 2001-2017
</metadata>
<g transform="translate(0.000000,79.000000) scale(0.100000,-0.100000)"
fill="#000000" stroke="none">
<path d="M276 535 c-8 -43 -25 -54 -46 -29 -9 10 -26 25 -37 31 -25 14 -30 10
-49 -42 -6 -16 -14 -37 -18 -45 -3 -8 -2 -21 3 -29 8 -12 12 -12 25 2 9 8 16
22 16 30 0 8 7 20 16 28 13 10 17 10 25 -2 14 -22 11 -29 -11 -29 -24 0 -26
-13 -5 -30 20 -17 19 -38 -5 -88 -11 -22 -20 -50 -20 -61 0 -11 -4 -23 -10
-26 -12 -7 -14 -55 -2 -55 4 0 14 9 22 20 10 14 17 17 27 8 10 -8 20 -3 43 23
46 52 37 13 -15 -64 -50 -73 -41 -92 18 -37 32 30 32 30 37 -3 3 -20 11 -32
20 -32 12 0 16 18 18 88 2 77 0 94 -22 137 -24 47 -26 80 -5 80 12 0 11 38 -1
42 -11 3 9 68 21 68 11 0 39 -30 39 -41 0 -5 7 -9 15 -9 8 0 15 5 15 11 0 19
-20 49 -34 49 -7 0 -21 9 -31 20 -26 29 -42 25 -49 -15z m-47 -252 c-7 -21
-14 -32 -17 -25 -4 14 18 75 25 68 3 -3 -1 -22 -8 -43z"/>
</g>
</svg>
