<svg version="1.0" xmlns="http://www.w3.org/2000/svg"
 width="55.000000pt" height="117.000000pt" viewBox="0 0 55.000000 117.000000"
 preserveAspectRatio="xMidYMid meet">
<metadata>
Created by potrace 1.15, written by Peter Selinger 2001-2017
</metadata>
<g transform="translate(0.000000,117.000000) scale(0.100000,-0.100000)"
fill="#000000" stroke="none">
<path d="M302 990 c-6 -11 -12 -26 -12 -34 0 -7 -6 -19 -14 -25 -8 -6 -19 -33
-26 -58 -11 -47 -11 -47 -36 -4 -13 24 -24 46 -24 50 0 11 -61 81 -71 81 -12
0 -12 -36 1 -60 5 -10 10 -54 11 -97 1 -100 13 -119 73 -116 40 1 44 -1 60
-35 18 -36 18 -36 -11 -60 -121 -99 -149 -146 -138 -230 4 -31 7 -66 7 -77 0
-31 -17 -97 -31 -124 -15 -28 -7 -96 14 -125 21 -27 29 -13 16 25 -22 64 -8
96 18 38 20 -46 36 -21 17 26 -22 52 -20 56 7 15 19 -31 22 -33 25 -14 2 12
-6 38 -17 58 -11 19 -21 55 -22 78 -1 24 -6 64 -11 89 -7 36 -6 55 6 83 8 20
19 36 23 36 5 0 17 -17 28 -37 10 -21 26 -49 35 -63 9 -14 25 -51 34 -82 22
-72 36 -82 36 -28 0 51 -51 164 -92 202 -26 24 -27 28 -12 42 21 22 30 20 56
-9 12 -14 25 -25 30 -25 13 0 9 29 -9 56 -16 25 -16 27 7 44 20 15 26 16 37 5
15 -15 17 -66 4 -81 -5 -5 -19 -26 -30 -47 -21 -38 -21 -38 1 -35 17 2 24 -4
31 -27 6 -16 13 -39 18 -50 4 -11 11 -33 15 -50 7 -29 8 -29 12 -5 5 30 -16
129 -31 148 -7 9 -6 25 3 55 8 23 15 44 16 45 6 9 73 -63 84 -89 11 -25 30
-40 30 -24 0 11 -43 89 -56 103 -8 7 -14 16 -14 20 0 4 -16 23 -35 43 -32 35
-33 39 -24 74 8 28 8 44 -2 61 -8 16 -10 46 -5 97 6 73 0 157 -13 157 -3 0
-12 -9 -19 -20z m-6 -196 c-4 -13 -13 -24 -21 -24 -19 0 -19 11 0 36 8 10 15
28 16 39 1 17 2 16 6 -4 3 -12 2 -34 -1 -47z m-106 34 c0 -7 3 -23 6 -35 5
-17 2 -23 -10 -23 -12 0 -16 9 -16 35 0 19 5 35 10 35 6 0 10 -6 10 -12z"/>
</g>
</svg>
