<svg version="1.0" xmlns="http://www.w3.org/2000/svg"
 width="67.000000pt" height="89.000000pt" viewBox="0 0 67.000000 89.000000"
 preserveAspectRatio="xMidYMid meet">
<metadata>
Created by potrace 1.15, written by Peter Selinger 2001-2017
</metadata>
<g transform="translate(0.000000,89.000000) scale(0.100000,-0.100000)"
fill="#000000" stroke="none">
<path d="M176 656 c-41 -38 -45 -66 -20 -120 19 -38 12 -103 -10 -112 -15 -6
-52 -81 -44 -90 5 -4 64 69 98 122 13 20 13 28 1 56 -8 18 -16 52 -18 75 -5
40 -3 44 31 64 20 11 36 25 36 30 0 20 -41 7 -74 -25z"/>
<path d="M316 630 c14 -14 77 -29 126 -30 20 0 43 -3 52 -6 25 -10 19 -42 -11
-56 -15 -7 -27 -17 -26 -23 4 -18 48 -16 81 5 42 26 45 71 5 97 -33 22 -247
34 -227 13z"/>
<path d="M360 512 c0 -27 6 -56 13 -66 12 -17 167 -70 176 -61 12 12 -14 35
-56 50 -26 9 -60 22 -75 27 -19 7 -28 18 -28 32 0 32 -11 66 -21 66 -5 0 -9
-22 -9 -48z"/>
<path d="M235 389 c-27 -22 -54 -46 -59 -54 -6 -7 -37 -29 -68 -49 -62 -39
-72 -56 -35 -56 27 0 85 38 149 97 26 23 53 44 60 44 26 3 43 -3 63 -20 51
-45 224 -131 263 -131 23 0 -13 37 -43 44 -14 4 -44 20 -69 36 -24 17 -47 30
-50 30 -3 0 -37 22 -76 50 -39 28 -74 50 -78 50 -4 0 -30 -18 -57 -41z"/>
<path d="M245 280 c-31 -13 -64 -48 -71 -75 -10 -42 5 -110 30 -134 25 -24 75
-41 120 -41 21 0 40 11 69 42 37 39 39 44 34 88 -8 63 -23 92 -58 113 -32 18
-90 22 -124 7z m109 -29 c27 -30 36 -87 22 -129 -10 -29 -19 -38 -45 -43 -48
-10 -94 6 -114 40 -31 53 -19 98 36 131 41 25 79 25 101 1z"/>
<path d="M280 171 c0 -26 17 -36 35 -21 18 15 8 40 -16 40 -12 0 -19 -7 -19
-19z"/>
</g>
</svg>
