<svg version="1.0" xmlns="http://www.w3.org/2000/svg"
 width="64.000000pt" height="85.000000pt" viewBox="0 0 64.000000 85.000000"
 preserveAspectRatio="xMidYMid meet">
<metadata>
Created by potrace 1.15, written by Peter Selinger 2001-2017
</metadata>
<g transform="translate(0.000000,85.000000) scale(0.100000,-0.100000)"
fill="#000000" stroke="none">
<path d="M272 616 c-35 -19 -59 -63 -73 -133 -15 -74 -34 -97 -55 -68 -20 27
-17 72 7 112 16 25 18 38 11 45 -16 16 -34 -2 -62 -62 -23 -48 -23 -53 -9 -93
12 -33 23 -44 47 -51 40 -11 43 -43 6 -77 -38 -35 -44 -51 -54 -139 -10 -85
-6 -110 15 -110 9 0 16 20 20 58 18 149 40 161 50 25 7 -90 14 -112 39 -113 5
0 5 23 1 53 -9 60 -11 185 -2 193 3 3 14 3 24 0 21 -7 38 -61 48 -148 5 -43
10 -58 22 -58 13 0 15 11 9 73 -12 121 -31 160 -87 171 -22 4 -25 9 -21 36 3
24 10 32 32 37 31 6 60 40 84 98 19 45 20 55 3 55 -7 0 -26 -25 -42 -55 -32
-60 -65 -75 -65 -30 0 32 17 70 57 126 46 65 44 83 -5 55z"/>
<path d="M437 623 c-14 -13 -6 -20 32 -31 70 -21 78 -62 20 -102 -33 -24 -40
-71 -14 -100 13 -14 12 -20 -12 -56 -14 -21 -37 -51 -50 -66 -14 -14 -23 -34
-21 -44 3 -16 8 -13 38 16 20 19 45 48 57 65 18 25 23 27 37 16 31 -26 18 -56
-49 -120 -36 -35 -65 -65 -65 -67 0 -2 7 -4 16 -4 8 0 42 25 74 56 60 57 76
59 61 7 -14 -47 -30 -73 -79 -125 -52 -56 -44 -61 24 -15 69 46 109 127 99
200 -6 42 -15 59 -56 102 -27 29 -49 61 -49 72 0 12 19 39 41 61 37 36 41 42
32 68 -15 44 -112 92 -136 67z"/>
</g>
</svg>
