<svg version="1.0" xmlns="http://www.w3.org/2000/svg"
 width="66.000000pt" height="91.000000pt" viewBox="0 0 66.000000 91.000000"
 preserveAspectRatio="xMidYMid meet">
<metadata>
Created by potrace 1.15, written by Peter Selinger 2001-2017
</metadata>
<g transform="translate(0.000000,91.000000) scale(0.100000,-0.100000)"
fill="#000000" stroke="none">
<path d="M203 511 c-62 -37 -71 -60 -80 -201 -7 -128 14 -233 54 -267 26 -22
35 -23 133 -21 94 3 110 6 152 30 69 41 81 81 76 250 -3 120 -6 137 -27 166
-30 43 -79 62 -176 68 -76 5 -83 4 -132 -25z m239 -32 c17 -12 37 -37 44 -55
16 -38 18 -140 4 -233 -7 -52 -14 -69 -37 -87 -38 -31 -113 -48 -182 -41 -74
8 -96 32 -105 119 -10 100 -3 118 62 158 105 66 106 66 161 36 49 -26 81 -33
81 -18 0 5 -32 30 -71 56 -71 47 -71 47 -120 1 -50 -47 -94 -73 -106 -62 -3 4
-2 28 3 54 8 41 15 51 49 70 56 32 173 33 217 2z"/>
<path d="M285 321 c-49 -20 -72 -74 -55 -126 15 -46 44 -65 98 -65 55 0 75 11
102 55 44 70 0 146 -84 144 -22 0 -50 -4 -61 -8z m99 -36 c54 -54 -2 -140 -78
-121 -23 6 -46 43 -46 73 0 9 10 27 22 40 25 27 79 31 102 8z"/>
<path d="M295 240 c-8 -27 1 -40 30 -40 24 0 42 30 30 50 -11 18 -53 11 -60
-10z"/>
</g>
</svg>
