<svg version="1.0" xmlns="http://www.w3.org/2000/svg"
 width="71.000000pt" height="92.000000pt" viewBox="0 0 71.000000 92.000000"
 preserveAspectRatio="xMidYMid meet">
<metadata>
Created by potrace 1.15, written by Peter Selinger 2001-2017
</metadata>
<g transform="translate(0.000000,92.000000) scale(0.100000,-0.100000)"
fill="#000000" stroke="none">
<path d="M465 695 c-3 -8 -7 -21 -9 -29 -3 -8 -29 -33 -58 -56 -80 -63 -74
-83 11 -35 23 14 45 25 47 25 2 0 4 -26 4 -57 0 -57 0 -57 -28 -30 -35 34 -55
34 -76 2 -9 -14 -27 -27 -41 -31 -14 -3 -25 -10 -25 -15 0 -13 64 -11 77 2 14
14 53 2 53 -15 0 -7 -18 -27 -40 -45 -22 -17 -40 -36 -40 -41 0 -19 33 -10 70
20 44 35 50 36 50 11 0 -25 10 -51 20 -51 5 0 11 18 15 39 7 39 7 39 72 10 36
-16 68 -27 70 -25 9 9 -9 26 -46 45 -20 11 -43 27 -51 36 -11 14 -10 19 7 37
21 21 21 21 51 -1 53 -38 59 -20 10 31 -33 33 -33 33 0 36 17 2 32 6 32 10 0
4 -31 23 -68 43 -54 28 -68 40 -70 61 -4 30 -30 46 -37 23z m65 -105 c18 -10
18 -12 -7 -56 -14 -25 -26 -44 -27 -42 -4 6 6 108 11 108 2 0 13 -4 23 -10z"/>
<path d="M280 685 c-7 -8 -15 -41 -19 -72 -4 -32 -15 -71 -24 -88 -16 -30 -16
-30 -17 45 0 89 -7 120 -26 120 -11 0 -14 -22 -14 -104 0 -58 -4 -107 -9 -110
-18 -12 -30 22 -33 94 -2 62 -6 75 -21 78 -15 3 -17 -5 -17 -70 0 -58 5 -83
25 -122 25 -50 25 -56 -5 -91 -13 -14 -21 -54 -30 -140 -7 -66 -19 -132 -27
-147 -17 -34 -16 -38 2 -38 29 0 71 129 77 234 2 28 8 51 15 54 10 3 12 -28
10 -130 -2 -126 7 -178 31 -178 4 0 7 82 7 182 0 115 4 183 10 183 6 0 10 -57
11 -150 0 -105 4 -159 14 -180 13 -28 15 -16 22 137 8 144 7 172 -7 198 -19
36 -2 40 21 5 14 -21 15 -43 9 -150 -5 -91 -4 -133 5 -155 20 -48 30 -35 30
40 0 39 4 70 10 70 5 0 25 14 45 32 32 28 38 29 51 16 13 -13 11 -18 -20 -42
-20 -15 -40 -36 -46 -46 -17 -32 13 -25 55 11 30 27 37 29 51 18 15 -12 11
-19 -37 -61 -29 -26 -50 -50 -47 -54 12 -11 55 5 88 33 31 26 33 26 59 10 52
-33 70 -39 88 -32 16 6 15 9 -11 28 -77 58 -74 49 -33 97 20 24 37 52 37 63 0
40 -99 113 -100 75 -1 -7 -12 -26 -25 -43 -24 -29 -24 -29 -50 -5 -24 22 -28
23 -38 9 -7 -8 -24 -31 -39 -50 -28 -34 -28 -34 -28 40 0 87 -25 141 -65 141
-34 0 -38 14 -10 40 28 26 55 109 55 168 0 45 -11 59 -30 37z m276 -409 c7
-19 -23 -76 -41 -76 -8 0 -19 9 -25 21 -9 16 -8 26 5 45 17 26 52 32 61 10z"/>
</g>
</svg>
