<svg version="1.0" xmlns="http://www.w3.org/2000/svg"
 width="68.000000pt" height="124.000000pt" viewBox="0 0 68.000000 124.000000"
 preserveAspectRatio="xMidYMid meet">
<metadata>
Created by potrace 1.15, written by Peter Selinger 2001-2017
</metadata>
<g transform="translate(0.000000,124.000000) scale(0.100000,-0.100000)"
fill="#000000" stroke="none">
<path d="M140 998 c0 -73 0 -73 -40 -98 -57 -35 -74 -77 -66 -163 3 -38 11
-78 17 -89 7 -13 7 -29 1 -46 -27 -74 -52 -216 -52 -293 0 -31 24 -49 41 -32
5 5 11 63 14 129 5 109 18 174 34 174 3 0 12 -9 19 -20 27 -43 51 -6 26 41
-12 24 -13 34 -3 45 19 23 43 16 67 -21 31 -49 38 -88 18 -104 -9 -8 -16 -18
-16 -23 0 -5 -15 -27 -32 -49 -30 -38 -32 -46 -33 -117 0 -42 5 -90 11 -107 7
-16 22 -64 35 -105 25 -81 41 -105 64 -96 16 6 13 29 -8 78 -31 71 -37 90 -37
109 0 10 -4 27 -9 37 -26 52 -32 92 -20 130 15 42 43 86 76 120 38 38 26 103
-31 169 -19 23 -19 23 23 62 40 37 42 41 40 92 -1 30 -7 62 -13 71 -6 9 -7 21
-3 25 5 4 12 1 16 -6 12 -19 49 -8 83 24 15 14 32 25 38 25 15 0 12 20 -4 26
-16 6 -76 -25 -76 -38 0 -4 -7 -8 -15 -8 -8 0 -15 5 -15 11 0 11 -17 10 -82
-6 -27 -7 -27 -7 -30 56 -2 51 -6 64 -20 67 -16 3 -18 -5 -18 -70z m84 -148
c16 -50 16 -52 -5 -81 -32 -45 -44 -32 -47 54 -3 71 -2 77 16 77 15 0 24 -13
36 -50z m-86 -156 c-5 -7 -18 -14 -28 -17 -16 -4 -21 1 -26 21 -3 15 -9 38
-13 52 -10 33 3 77 31 107 23 25 23 25 34 -64 5 -48 6 -93 2 -99z"/>
<path d="M522 1042 c-13 -2 -21 -9 -19 -15 3 -8 24 -11 59 -9 74 4 80 -5 80
-119 0 -91 0 -91 -37 -129 -35 -36 -37 -42 -31 -79 3 -23 16 -52 28 -66 26
-31 58 -33 58 -5 0 11 -4 20 -9 20 -5 0 -16 16 -26 36 -16 34 -16 37 2 57 10
12 26 28 36 35 14 11 17 30 17 130 0 64 -4 123 -8 129 -8 13 -105 22 -150 15z"/>
<path d="M303 1033 c-13 -2 -23 -11 -23 -20 0 -13 9 -14 53 -9 115 13 101 21
111 -71 10 -96 1 -168 -23 -191 -10 -9 -41 -37 -70 -62 -49 -43 -71 -90 -35
-76 9 3 18 6 20 6 2 0 4 6 4 14 0 8 14 24 31 37 18 13 48 39 68 57 20 19 43
31 53 29 14 -4 74 38 132 93 4 4 4 15 -1 24 -7 13 -18 7 -62 -34 -49 -45 -74
-58 -72 -37 1 4 1 14 1 22 0 8 6 15 13 15 8 0 27 11 43 25 16 14 33 25 37 25
18 0 46 36 37 49 -7 12 -11 12 -24 -2 -9 -9 -30 -24 -46 -34 -17 -9 -30 -21
-30 -25 0 -4 -9 -8 -20 -8 -15 0 -20 7 -20 26 0 14 4 23 9 20 14 -9 110 47
117 67 11 33 -5 30 -59 -12 -30 -22 -57 -41 -60 -41 -4 0 -7 16 -7 35 0 19 -5
46 -12 60 -10 23 -16 25 -77 24 -36 -1 -76 -4 -88 -6z"/>
<path d="M343 889 c-24 -22 -43 -42 -43 -44 0 -3 9 -5 20 -5 11 0 20 3 20 8 0
4 18 18 40 32 22 14 40 30 40 37 0 25 -35 12 -77 -28z"/>
<path d="M395 833 c-16 -9 -32 -19 -35 -23 -3 -4 -19 -15 -37 -24 -21 -11 -30
-21 -27 -31 8 -19 14 -19 44 5 14 11 30 20 35 20 15 0 65 46 65 59 0 15 -9 13
-45 -6z"/>
<path d="M460 685 c0 -26 -23 -65 -43 -71 -28 -9 -117 -98 -117 -117 0 -26 15
-20 52 21 44 49 76 62 151 62 93 0 110 -19 124 -137 14 -112 5 -155 -35 -172
-56 -25 -104 -76 -117 -127 -11 -45 -6 -106 10 -122 11 -12 25 22 25 65 0 49
11 80 36 108 21 22 69 53 96 62 28 9 36 72 25 197 -8 76 -18 109 -41 131 -16
15 -78 35 -109 35 -19 0 -25 4 -21 15 9 23 -5 65 -21 65 -8 0 -15 -7 -15 -15z"/>
<path d="M470 543 c-121 -78 -131 -86 -174 -128 -30 -29 -30 -30 -9 -33 13 -2
32 6 45 18 26 25 129 99 164 118 25 14 33 42 12 41 -7 0 -24 -7 -38 -16z"/>
<path d="M515 467 c-16 -6 -56 -29 -89 -52 -32 -22 -66 -45 -76 -50 -10 -6
-30 -25 -45 -43 -21 -26 -25 -36 -16 -45 9 -9 20 -3 49 26 43 43 155 117 179
117 19 0 55 39 47 51 -6 11 -10 10 -49 -4z"/>
<path d="M546 388 c-56 -32 -199 -176 -218 -219 -7 -16 -16 -29 -20 -29 -5 0
-8 -11 -8 -24 0 -38 34 -21 61 30 23 45 130 164 147 164 5 0 22 11 38 25 16
14 35 25 42 25 6 0 12 9 12 20 0 22 -24 26 -54 8z"/>
</g>
</svg>
