<svg version="1.0" xmlns="http://www.w3.org/2000/svg"
 width="64.000000pt" height="81.000000pt" viewBox="0 0 64.000000 81.000000"
 preserveAspectRatio="xMidYMid meet">
<metadata>
Created by potrace 1.15, written by Peter Selinger 2001-2017
</metadata>
<g transform="translate(0.000000,81.000000) scale(0.100000,-0.100000)"
fill="#000000" stroke="none">
<path d="M102 524 c-22 -15 -22 -19 -22 -234 0 -156 3 -221 12 -226 6 -4 57
-9 112 -10 135 -5 141 0 150 106 10 109 9 110 -120 110 -97 0 -104 1 -104 20
0 19 7 20 98 20 63 0 102 4 110 12 18 18 15 94 -4 112 -12 12 -37 16 -110 16
-87 0 -94 1 -94 20 0 24 19 29 130 32 72 3 85 6 88 21 3 15 -7 17 -110 17 -87
0 -119 -4 -136 -16z m172 -120 c24 -9 19 -41 -6 -48 -13 -3 -49 -6 -80 -6 -58
0 -58 0 -58 30 0 30 0 30 64 30 35 0 71 -3 80 -6z m-72 -170 c3 -3 4 -14 1
-25 -8 -27 -73 -28 -73 0 0 11 6 22 13 24 17 7 53 8 59 1z m96 -22 c3 -18 -1
-22 -22 -22 -19 0 -26 5 -26 18 0 39 43 43 48 4z m-110 -58 c25 -7 30 -41 7
-50 -8 -4 -26 -3 -40 0 -18 5 -25 13 -25 31 0 26 13 30 58 19z m110 -26 c-2
-15 -11 -24 -25 -26 -19 -3 -23 1 -23 22 0 21 5 26 26 26 21 0 25 -4 22 -22z"/>
<path d="M424 519 c-10 -17 8 -28 55 -31 25 -2 46 -7 48 -13 7 -23 -18 -40
-69 -45 -53 -5 -53 -5 -53 -47 4 -309 5 -333 20 -333 8 0 19 9 25 19 12 24 13
141 0 236 -10 81 -2 98 44 93 31 -3 31 -3 32 -183 1 -164 3 -180 19 -183 10
-2 21 2 26 10 5 7 9 110 9 228 0 260 0 260 -90 260 -32 0 -62 -5 -66 -11z"/>
</g>
</svg>
