<svg version="1.0" xmlns="http://www.w3.org/2000/svg"
 width="61.000000pt" height="78.000000pt" viewBox="0 0 61.000000 78.000000"
 preserveAspectRatio="xMidYMid meet">
<metadata>
Created by potrace 1.15, written by Peter Selinger 2001-2017
</metadata>
<g transform="translate(0.000000,78.000000) scale(0.100000,-0.100000)"
fill="#000000" stroke="none">
<path d="M207 584 c-4 -4 -7 -22 -7 -41 0 -33 0 -33 -71 -33 -67 0 -70 -1 -67
-22 2 -19 10 -24 41 -26 36 -3 37 -5 36 -40 -2 -96 -15 -147 -43 -175 -27 -27
-28 -31 -25 -112 3 -49 9 -89 16 -96 7 -7 50 -15 98 -17 142 -7 175 21 175
148 0 65 -2 71 -25 82 -24 11 -25 14 -25 109 0 98 0 98 27 101 17 2 29 10 31
21 3 15 -5 17 -60 17 -63 0 -63 0 -63 42 0 30 -4 43 -15 46 -9 1 -19 0 -23 -4z
m46 -124 c13 0 17 -9 17 -40 0 -40 0 -40 -46 -40 -43 0 -46 2 -40 23 3 12 6
33 6 46 0 19 4 22 23 17 12 -3 30 -6 40 -6z m11 -147 c-8 -49 -15 -55 -55 -51
-36 3 -46 20 -35 64 6 21 12 24 52 24 45 0 45 0 38 -37z m29 -95 c11 -9 15
-21 11 -35 -5 -18 -14 -23 -40 -23 -31 0 -34 3 -34 28 0 16 3 32 7 35 10 11
38 8 56 -5z m-105 -25 c-3 -32 -44 -46 -54 -19 -10 26 4 46 31 46 23 0 26 -4
23 -27z m2 -70 c-1 -28 -15 -53 -30 -53 -23 0 -44 26 -36 45 5 15 66 22 66 8z
m105 -23 c0 -21 -5 -26 -32 -28 -31 -3 -33 -1 -33 28 0 29 2 31 33 28 27 -2
32 -7 32 -28z"/>
<path d="M421 536 c-7 -9 -11 -41 -9 -83 3 -68 3 -68 57 -73 49 -4 55 -8 62
-31 6 -25 -11 -215 -27 -302 -6 -33 -4 -37 14 -37 33 0 42 30 52 168 17 235
14 247 -66 247 -34 0 -50 5 -58 18 -20 31 4 51 67 57 61 6 72 12 64 35 -9 21
-139 22 -156 1z"/>
<path d="M415 348 c-2 -7 -6 -69 -9 -138 -3 -69 -7 -134 -8 -145 -2 -11 4 -21
14 -23 19 -4 20 2 37 171 7 74 7 115 0 128 -11 22 -28 25 -34 7z"/>
</g>
</svg>
