<svg version="1.0" xmlns="http://www.w3.org/2000/svg"
 width="68.000000pt" height="89.000000pt" viewBox="0 0 68.000000 89.000000"
 preserveAspectRatio="xMidYMid meet">
<metadata>
Created by potrace 1.15, written by Peter Selinger 2001-2017
</metadata>
<g transform="translate(0.000000,89.000000) scale(0.100000,-0.100000)"
fill="#000000" stroke="none">
<path d="M154 703 c5 -23 -2 -46 -30 -99 -33 -62 -37 -79 -42 -161 -3 -59 -1
-93 6 -93 13 0 22 25 22 61 0 26 3 29 20 24 27 -8 27 21 0 50 -29 31 -11 53
24 30 36 -24 44 -12 22 30 -14 26 -16 39 -8 62 10 28 10 28 21 0 15 -39 14
-103 -3 -140 -63 -140 -76 -195 -76 -325 0 -62 3 -83 13 -80 6 3 14 20 17 38
5 34 6 34 50 32 71 -5 133 27 80 41 -18 5 -20 14 -20 111 0 88 -3 106 -15 106
-11 0 -15 -12 -15 -45 0 -40 -3 -47 -26 -55 -26 -10 -25 -30 2 -30 10 0 14
-12 14 -45 0 -43 -1 -45 -30 -45 -28 0 -30 3 -30 36 0 59 29 151 72 231 35 65
39 80 34 116 -4 25 -18 53 -33 69 -14 15 -29 44 -32 65 -4 26 -12 39 -25 41
-15 3 -17 -1 -12 -25z"/>
<path d="M332 698 c3 -7 20 -15 39 -18 65 -10 42 -49 -29 -50 -34 0 -17 -18
23 -26 66 -12 53 -44 -18 -44 -27 0 -37 -4 -34 -12 5 -16 246 -19 250 -3 1 6
-22 11 -50 13 -44 3 -53 6 -53 21 0 21 19 31 56 31 13 0 24 4 24 9 0 12 -25
21 -57 21 -18 0 -24 5 -21 18 2 13 15 18 51 20 47 3 61 15 31 26 -9 3 -61 6
-116 6 -75 0 -99 -3 -96 -12z"/>
<path d="M362 467 c-38 -40 -25 -109 24 -127 38 -15 28 -29 -23 -32 -50 -3
-62 -21 -18 -26 35 -5 33 -38 -6 -85 -17 -21 -29 -41 -25 -44 11 -11 55 39 67
76 15 48 23 55 47 40 22 -14 62 -86 62 -111 0 -9 -9 -27 -20 -41 -11 -14 -20
-29 -20 -35 0 -5 -9 -17 -20 -27 -29 -26 -25 -38 8 -21 37 19 102 103 102 131
0 12 -16 38 -36 59 -19 20 -33 40 -30 45 4 5 29 12 56 16 69 9 63 25 -9 25
-33 0 -62 4 -66 10 -3 5 12 18 35 30 37 19 40 24 40 60 0 58 -26 80 -93 80
-43 0 -58 -5 -75 -23z m126 -20 c8 -9 7 -20 -1 -37 -25 -49 -117 -54 -117 -6
0 14 7 32 16 40 19 19 87 21 102 3z"/>
<path d="M420 415 c-20 -24 4 -45 26 -24 13 14 13 17 1 27 -11 10 -17 9 -27
-3z"/>
<path d="M410 208 c-30 -47 -80 -131 -80 -134 0 -2 6 -4 14 -4 16 0 96 121 96
145 0 22 -13 19 -30 -7z"/>
<path d="M450 158 c0 -7 -15 -27 -32 -46 -27 -28 -29 -33 -13 -30 10 2 30 18
42 37 25 37 29 51 13 51 -5 0 -10 -5 -10 -12z"/>
</g>
</svg>
