<svg version="1.0" xmlns="http://www.w3.org/2000/svg"
 width="99.000000pt" height="141.000000pt" viewBox="0 0 99.000000 141.000000"
 preserveAspectRatio="xMidYMid meet">
<metadata>
Created by potrace 1.15, written by Peter Selinger 2001-2017
</metadata>
<g transform="translate(0.000000,141.000000) scale(0.100000,-0.100000)"
fill="#000000" stroke="none">
<path d="M705 1339 c-49 -4 -144 -12 -210 -18 -66 -6 -151 -13 -190 -16 -96
-7 -174 -20 -186 -32 -12 -12 198 -7 291 7 36 5 103 12 150 15 185 12 267 26
255 46 -4 5 -9 8 -13 8 -4 -1 -47 -5 -97 -10z"/>
<path d="M84 1203 c-6 -32 2 -393 11 -503 2 -19 6 -102 9 -185 6 -129 11 -220
21 -325 1 -14 3 -47 5 -75 3 -50 3 -50 10 10 3 33 3 107 -1 165 -4 58 -9 196
-13 306 -6 202 -6 202 30 209 83 15 154 90 154 161 0 71 -28 125 -93 184 -28
24 -28 24 -26 -5 2 -22 -9 -46 -41 -88 -24 -31 -44 -56 -46 -54 -2 1 -4 55 -5
120 -1 64 -3 117 -5 117 -2 0 -6 -17 -10 -37z m156 -118 c10 -12 10 -19 2 -27
-7 -7 -12 -20 -12 -30 0 -10 -4 -18 -8 -18 -4 0 -16 -14 -26 -32 -21 -34 -69
-88 -80 -88 -3 0 -6 20 -6 45 0 25 4 45 9 45 16 0 67 54 82 88 16 36 21 39 39
17z m25 -157 c-14 -30 -101 -98 -125 -98 -5 0 -10 -5 -10 -11 0 -5 -4 -7 -10
-4 -23 14 -9 45 32 69 43 25 94 91 105 135 6 24 8 22 16 -16 6 -32 4 -51 -8
-75z"/>
<path d="M622 1218 c-7 -7 -12 -18 -12 -25 0 -7 -4 -13 -9 -13 -15 0 -46 -62
-60 -122 -35 -147 41 -260 184 -272 28 -3 55 4 88 20 59 30 123 81 114 91 -7
6 -77 -29 -77 -39 0 -15 -37 -8 -53 10 -22 24 -21 32 6 62 58 63 71 151 25
163 -26 7 -78 -3 -78 -14 0 -5 -6 -9 -12 -9 -7 0 -26 -11 -42 -25 -29 -25 -29
-25 -54 -3 -33 32 -54 75 -47 99 4 11 17 31 31 46 24 26 31 43 16 43 -4 0 -13
-5 -20 -12z m-6 -183 c36 -36 36 -36 2 -65 -18 -16 -36 -30 -40 -30 -5 0 -8
29 -8 65 0 36 2 65 5 65 3 0 22 -16 41 -35z m214 22 c0 -18 -24 -67 -32 -67
-5 0 -8 -6 -8 -12 -1 -21 -34 -58 -45 -50 -23 15 -57 74 -49 82 49 48 134 78
134 47z m-126 -121 c14 -19 26 -39 26 -45 0 -17 -42 -61 -58 -61 -15 0 -72 37
-84 55 -8 11 59 83 78 84 7 1 23 -14 38 -33z m75 -90 c9 -11 6 -14 -18 -18
-26 -4 -29 -2 -20 14 12 22 23 23 38 4z"/>
<path d="M526 683 c-4 -4 -41 -10 -84 -13 -77 -5 -77 -5 -74 -60 11 -202 48
-310 119 -352 25 -14 42 -15 105 -10 24 3 53 36 78 89 19 40 21 61 19 199 -2
154 -2 154 -79 154 -42 0 -80 -3 -84 -7z m128 -58 c14 -51 14 -52 -112 -59
-144 -8 -154 -6 -150 43 3 36 3 36 70 42 38 3 70 8 73 10 2 3 29 0 59 -5 42
-8 56 -15 60 -31z m11 -96 c4 -6 4 -30 1 -54 -7 -43 -7 -43 -119 -47 -62 -2
-117 -3 -123 -1 -15 6 -24 74 -12 90 7 8 49 13 121 16 62 1 115 4 119 5 4 1
10 -3 13 -9z m-11 -144 c6 -18 -20 -85 -41 -100 -10 -8 -38 -15 -63 -15 -37 0
-52 6 -83 33 -41 35 -52 83 -20 89 46 9 203 4 207 -7z"/>
</g>
</svg>
