<svg version="1.0" xmlns="http://www.w3.org/2000/svg"
 width="65.000000pt" height="117.000000pt" viewBox="0 0 65.000000 117.000000"
 preserveAspectRatio="xMidYMid meet">
<metadata>
Created by potrace 1.15, written by Peter Selinger 2001-2017
</metadata>
<g transform="translate(0.000000,117.000000) scale(0.100000,-0.100000)"
fill="#000000" stroke="none">
<path d="M473 1103 c-9 -3 -13 -29 -13 -84 0 -78 0 -78 -47 -92 -37 -11 -49
-19 -51 -36 -3 -21 -1 -22 41 -16 38 6 46 4 51 -12 3 -10 2 -31 -2 -48 -7 -27
-14 -31 -61 -39 -45 -8 -52 -12 -49 -30 3 -18 10 -21 52 -21 46 0 50 -2 58
-30 10 -38 1 -46 -53 -50 -24 -1 -49 -3 -55 -4 -7 0 -14 -10 -17 -21 -5 -19 0
-20 110 -19 63 1 117 -2 121 -6 12 -12 7 -109 -7 -143 -17 -40 -33 -37 -44 10
-9 40 -30 48 -116 48 -59 0 -74 -9 -56 -33 10 -14 24 -17 65 -15 53 3 53 3 66
-36 16 -46 8 -61 -38 -70 -103 -20 -125 -35 -97 -63 13 -13 68 -1 112 23 34
19 44 13 53 -31 3 -20 10 -38 15 -41 5 -3 9 -16 9 -30 0 -13 4 -32 9 -42 5 -9
15 -37 22 -62 25 -85 67 -136 81 -98 5 12 -41 150 -63 190 -5 10 -9 26 -9 36
0 10 -4 22 -9 27 -5 6 -13 27 -16 47 -6 31 -3 41 17 60 37 35 68 122 68 188 0
49 -3 58 -23 69 -13 7 -39 13 -58 14 -33 2 -34 3 -37 48 -3 41 0 47 23 57 14
7 34 12 44 12 32 0 50 33 55 100 3 36 8 81 11 101 8 44 -8 79 -35 79 -17 0
-20 -7 -20 -40 0 -35 -4 -42 -27 -51 -39 -14 -53 9 -53 87 0 63 -5 75 -27 67z
m100 -241 c-1 -38 -18 -62 -43 -62 -34 0 -36 63 -3 88 29 21 48 10 46 -26z"/>
<path d="M98 1072 c-23 -2 -38 -8 -38 -16 0 -29 28 -37 125 -34 79 2 100 6
109 20 5 9 7 20 3 24 -7 8 -135 11 -199 6z"/>
<path d="M150 943 c-74 -2 -139 -8 -144 -13 -14 -14 11 -38 42 -42 22 -2 28
-9 33 -38 7 -46 23 -74 52 -93 19 -12 24 -25 26 -69 1 -30 -2 -65 -7 -78 -9
-23 -9 -23 -30 -2 -17 17 -22 34 -22 72 0 57 -22 78 -47 44 -15 -21 -12 -99 6
-133 12 -22 54 -51 75 -51 19 0 28 -90 10 -109 -17 -19 -42 -7 -46 21 -2 15
-10 23 -22 23 -26 0 -27 -11 -26 -167 0 -80 2 -89 26 -113 31 -31 64 -45 105
-45 75 0 99 44 103 183 2 56 -1 112 -5 125 -11 29 -37 28 -49 -2 -16 -42 -30
-40 -30 4 0 47 24 90 50 90 36 0 50 28 50 100 0 49 -4 69 -14 73 -21 8 -26 -2
-26 -53 0 -49 -13 -70 -42 -70 -17 0 -19 8 -16 72 3 72 3 72 40 92 35 18 37
22 40 75 3 50 6 56 28 61 16 4 26 14 28 28 3 19 -1 22 -25 20 -15 -1 -89 -4
-163 -5z m83 -65 c17 -26 -7 -68 -37 -68 -42 0 -56 10 -56 41 0 21 6 32 23 39
31 13 58 8 70 -12z m-15 -527 c23 -14 23 -86 1 -110 -23 -24 -83 -29 -103 -8
-15 14 -37 107 -30 119 7 11 115 10 132 -1z"/>
</g>
</svg>
