<svg version="1.0" xmlns="http://www.w3.org/2000/svg"
 width="113.000000pt" height="121.000000pt" viewBox="0 0 113.000000 121.000000"
 preserveAspectRatio="xMidYMid meet">
<metadata>
Created by potrace 1.15, written by Peter Selinger 2001-2017
</metadata>
<g transform="translate(0.000000,121.000000) scale(0.100000,-0.100000)"
fill="#000000" stroke="none">
<path d="M325 999 c-16 -5 -85 -9 -152 -10 -136 0 -143 -4 -122 -68 15 -45 15
-114 0 -316 -17 -215 -5 -385 32 -465 41 -87 113 -117 277 -112 83 2 161 33
257 103 84 62 99 88 108 184 11 125 21 140 59 90 10 -14 34 -35 53 -46 33 -21
33 -21 14 -47 -10 -15 -33 -42 -50 -60 -34 -35 -55 -78 -42 -86 14 -9 64 24
113 76 49 50 49 50 111 20 85 -42 101 -44 105 -10 3 23 -6 33 -57 70 -49 35
-60 47 -55 63 30 97 -3 186 -75 201 -87 17 -86 16 -89 66 -4 54 -5 53 108 63
42 3 83 11 90 16 27 17 -18 39 -84 40 -102 2 -108 5 -124 79 -15 67 -34 100
-60 100 -12 0 -13 -27 -11 -170 4 -170 4 -170 -36 -170 -22 0 -48 -7 -58 -15
-18 -13 -18 -14 5 -27 35 -19 99 -38 135 -38 17 0 54 -5 82 -12 40 -9 51 -16
53 -32 1 -24 -2 -70 -6 -73 -1 -2 -21 6 -44 17 -22 11 -59 22 -82 24 -27 2
-50 12 -69 30 -29 28 -57 35 -48 12 3 -7 1 -32 -5 -55 -10 -39 -13 -42 -41
-39 -17 2 -35 11 -41 23 -24 43 -48 75 -56 75 -5 0 -15 -18 -21 -40 -9 -30 -9
-63 0 -142 6 -56 15 -105 20 -108 20 -13 29 -45 17 -62 -20 -27 -137 -43 -203
-28 -110 24 -159 58 -189 128 -28 67 -3 509 34 609 15 41 23 49 57 59 22 7 66
13 98 13 71 1 97 14 97 46 0 20 -5 25 -24 25 -13 0 -30 2 -38 4 -7 2 -26 0
-43 -5z m325 -698 c0 -46 -20 -92 -39 -89 -21 4 -29 97 -9 109 28 18 48 10 48
-20z"/>
<path d="M526 881 c-9 -16 -16 -48 -16 -71 0 -39 -1 -40 -35 -42 -19 -1 -43
-2 -52 -2 -12 -1 -20 12 -28 40 -16 64 -45 90 -72 63 -7 -7 -8 -21 -2 -42 5
-20 5 -35 -1 -41 -6 -6 -10 -44 -10 -85 0 -73 11 -120 39 -169 8 -15 10 -38 6
-63 -7 -38 -8 -39 -46 -39 -22 0 -39 5 -39 11 0 20 -41 69 -58 69 -15 0 -17
-14 -20 -101 -4 -116 14 -187 55 -219 31 -24 55 -25 104 -3 42 18 53 36 68
111 14 70 14 109 -3 157 -16 46 -13 55 18 55 37 0 92 27 115 56 29 36 40 85
42 179 2 67 -1 86 -20 120 -13 22 -25 42 -26 43 -2 2 -11 -10 -19 -27z m-25
-207 c28 -33 -16 -98 -59 -88 -41 10 -52 23 -52 60 0 29 4 34 33 42 37 10 62
6 78 -14z m-160 -321 c3 -43 -9 -113 -20 -113 -4 0 -16 6 -26 14 -25 18 -24
84 1 103 25 18 44 16 45 -4z"/>
</g>
</svg>
