<svg version="1.0" xmlns="http://www.w3.org/2000/svg"
 width="62.000000pt" height="83.000000pt" viewBox="0 0 62.000000 83.000000"
 preserveAspectRatio="xMidYMid meet">
<metadata>
Created by potrace 1.15, written by Peter Selinger 2001-2017
</metadata>
<g transform="translate(0.000000,83.000000) scale(0.100000,-0.100000)"
fill="#000000" stroke="none">
<path d="M230 729 c0 -7 8 -21 17 -31 16 -18 16 -20 -12 -44 -17 -13 -43 -31
-58 -40 -29 -16 -32 -37 -6 -42 9 -1 46 20 83 48 54 40 75 50 100 48 43 -4 40
-29 -4 -40 -19 -5 -44 -19 -55 -32 -12 -14 -36 -26 -59 -29 -59 -9 -84 -40
-100 -124 -7 -39 -24 -88 -36 -108 -16 -27 -20 -39 -12 -47 17 -17 42 10 82
86 24 48 41 68 64 77 17 7 39 19 49 27 15 14 22 12 68 -13 35 -18 54 -24 61
-17 15 15 4 28 -47 52 -58 28 -59 44 -2 35 48 -8 63 -23 78 -80 17 -68 30 -94
61 -120 31 -26 68 -33 68 -13 0 7 -12 22 -27 34 -21 17 -33 41 -48 100 -19 73
-23 80 -60 101 -26 14 -48 20 -67 16 -16 -3 -28 -1 -28 5 0 5 14 12 32 16 42
8 68 33 68 66 0 31 -27 47 -105 61 -27 5 -62 12 -77 15 -19 4 -28 2 -28 -7z
m18 -225 c-14 -15 -32 -24 -39 -22 -17 6 25 48 48 48 14 0 13 -5 -9 -26z"/>
<path d="M271 408 c-16 -24 -48 -63 -70 -88 -27 -29 -38 -47 -31 -54 7 -7 27
6 62 39 29 28 56 56 61 63 12 18 20 15 61 -17 49 -39 123 -68 138 -53 8 8 -5
20 -43 45 -30 19 -74 51 -97 71 -24 20 -46 36 -47 36 -2 0 -17 -19 -34 -42z"/>
<path d="M285 307 c-3 -12 -23 -31 -43 -42 -31 -17 -42 -32 -69 -100 -35 -87
-41 -125 -19 -125 16 0 42 50 51 101 9 46 20 63 35 54 12 -8 9 -77 -6 -132 -4
-16 -2 -23 8 -23 15 0 38 53 38 87 0 23 21 36 44 27 8 -3 19 -24 25 -48 10
-40 45 -86 57 -74 3 4 -4 36 -15 73 -39 125 -20 170 25 60 26 -63 49 -95 71
-95 18 0 16 14 -7 52 -11 18 -25 51 -31 73 -14 52 -34 73 -79 85 -24 6 -40 17
-43 30 -7 27 -35 25 -42 -3z m48 -88 c-8 -29 -33 -36 -49 -14 -18 24 -9 35 26
35 24 0 27 -3 23 -21z"/>
</g>
</svg>
