<svg version="1.0" xmlns="http://www.w3.org/2000/svg"
 width="64.000000pt" height="86.000000pt" viewBox="0 0 64.000000 86.000000"
 preserveAspectRatio="xMidYMid meet">
<metadata>
Created by potrace 1.15, written by Peter Selinger 2001-2017
</metadata>
<g transform="translate(0.000000,86.000000) scale(0.100000,-0.100000)"
fill="#000000" stroke="none">
<path d="M303 583 c-8 -3 -13 -24 -13 -53 0 -49 0 -49 -77 -52 -64 -2 -78 -6
-81 -20 -3 -15 7 -18 75 -20 78 -3 78 -3 81 -32 2 -16 -2 -34 -8 -40 -6 -6
-57 -13 -113 -16 -94 -5 -102 -7 -102 -25 0 -18 5 -20 69 -16 75 4 86 -3 86
-51 0 -20 -7 -28 -31 -37 -18 -6 -40 -11 -50 -11 -26 0 -39 -31 -39 -93 0 -90
3 -91 232 -83 129 5 195 11 200 19 5 7 7 46 6 87 -3 75 -3 75 -66 83 -63 9
-63 9 -60 50 3 42 3 42 78 42 70 0 75 1 78 23 3 22 2 22 -113 22 -116 0 -116
0 -113 38 3 37 3 37 91 40 77 2 88 5 85 20 -3 14 -18 18 -83 22 -80 5 -80 5
-77 47 3 33 0 44 -17 52 -11 6 -21 11 -23 10 -2 0 -9 -3 -15 -6z m55 -328 c4
-76 14 -87 71 -83 46 3 46 3 46 -32 0 -34 -2 -35 -45 -42 -25 -3 -94 -7 -153
-7 -108 -1 -108 -1 -105 36 3 37 4 38 48 43 45 5 45 5 50 65 6 75 14 87 53 83
32 -3 32 -4 35 -63z"/>
</g>
</svg>
