<svg version="1.0" xmlns="http://www.w3.org/2000/svg"
 width="67.000000pt" height="88.000000pt" viewBox="0 0 67.000000 88.000000"
 preserveAspectRatio="xMidYMid meet">
<metadata>
Created by potrace 1.15, written by Peter Selinger 2001-2017
</metadata>
<g transform="translate(0.000000,88.000000) scale(0.100000,-0.100000)"
fill="#000000" stroke="none">
<path d="M475 649 c-4 -5 -4 -61 0 -124 7 -114 7 -114 49 -127 37 -12 41 -16
44 -50 3 -38 3 -38 -30 -31 -55 11 -72 9 -76 -10 -3 -12 5 -19 27 -23 16 -4
37 -15 47 -25 15 -17 14 -21 -30 -72 -25 -30 -46 -59 -46 -66 0 -21 31 -11 57
19 34 41 43 38 43 -13 0 -24 6 -52 14 -62 12 -17 16 -17 31 -5 12 10 15 23 11
49 -18 109 -18 126 3 181 12 30 21 67 21 83 0 36 -32 67 -70 67 -23 0 -31 5
-36 25 -11 43 3 71 38 81 23 7 33 16 33 29 0 17 -6 19 -37 17 -34 -3 -38 -1
-38 20 0 38 -39 64 -55 37z"/>
<path d="M286 634 c-19 -18 -20 -61 -3 -90 38 -66 118 -127 140 -105 7 7 -3
25 -35 59 -50 53 -71 86 -61 96 3 3 24 6 45 6 41 0 63 24 37 41 -24 15 -106
10 -123 -7z"/>
<path d="M65 630 c-12 -19 16 -40 51 -40 24 0 34 -5 34 -15 0 -24 -25 -67 -54
-94 -31 -29 -34 -51 -7 -51 38 0 121 117 121 171 0 10 -9 23 -19 29 -26 13
-118 13 -126 0z"/>
<path d="M217 504 c-4 -4 -7 -18 -7 -30 0 -17 -16 -34 -60 -64 -33 -22 -65
-50 -72 -63 -12 -23 -30 -281 -21 -305 9 -22 47 -9 54 18 4 14 7 77 8 141 1
115 1 115 34 147 60 58 171 52 204 -11 10 -21 19 -75 24 -156 8 -121 16 -150
38 -137 23 14 3 296 -24 332 -6 9 -35 27 -65 39 -43 18 -55 29 -64 56 -10 32
-34 48 -49 33z"/>
<path d="M300 315 c-8 -22 -16 -25 -55 -25 -33 0 -45 4 -45 15 0 8 -7 15 -15
15 -12 0 -15 -15 -15 -78 0 -97 12 -112 87 -112 44 0 53 4 69 28 23 34 32 145
14 167 -18 21 -29 19 -40 -10z m0 -89 c0 -32 -19 -45 -53 -39 -59 11 -48 63
13 63 35 0 40 -3 40 -24z"/>
</g>
</svg>
