<svg version="1.0" xmlns="http://www.w3.org/2000/svg"
 width="66.000000pt" height="90.000000pt" viewBox="0 0 66.000000 90.000000"
 preserveAspectRatio="xMidYMid meet">
<metadata>
Created by potrace 1.15, written by Peter Selinger 2001-2017
</metadata>
<g transform="translate(0.000000,90.000000) scale(0.100000,-0.100000)"
fill="#000000" stroke="none">
<path d="M396 721 c-9 -13 -4 -182 5 -222 10 -39 27 -49 87 -49 25 0 32 -4 32
-19 0 -29 -25 -43 -72 -39 -34 2 -43 0 -46 -15 -3 -13 5 -22 26 -29 31 -12 31
-12 1 -52 -44 -63 -70 -246 -34 -246 20 0 35 40 36 93 0 23 6 56 12 73 15 38
53 91 61 83 9 -9 26 -107 26 -150 0 -21 4 -49 10 -64 9 -23 12 -24 31 -14 21
11 22 16 16 113 -4 67 -12 115 -23 140 -15 30 -16 41 -6 57 7 11 15 39 19 64
6 49 3 52 -82 57 -35 3 -40 6 -43 31 -3 25 -1 27 32 27 54 0 76 28 76 95 0 43
-4 56 -19 65 -29 15 -30 14 -33 -47 -3 -52 -5 -58 -27 -61 -28 -4 -41 12 -41
51 0 47 -28 84 -44 58z"/>
<path d="M180 615 c0 -105 0 -105 -54 -159 -35 -34 -58 -67 -65 -92 -14 -52
-14 -291 0 -300 22 -13 29 15 38 155 9 153 15 171 73 214 32 24 69 17 104 -18
23 -24 24 -28 24 -195 0 -160 1 -170 19 -170 27 0 31 25 31 203 0 176 3 168
-85 228 -35 24 -35 24 -35 112 0 91 -10 127 -35 127 -12 0 -15 -19 -15 -105z"/>
<path d="M293 703 c-9 -3 -13 -34 -13 -104 0 -82 3 -101 16 -106 26 -10 34 16
34 108 0 87 -9 112 -37 102z"/>
<path d="M80 580 c0 -84 3 -110 13 -110 28 0 37 25 37 106 0 95 -5 114 -31
114 -17 0 -19 -9 -19 -110z"/>
<path d="M235 378 c-2 -7 -5 -26 -7 -43 -2 -22 -9 -31 -24 -33 -18 -3 -22 4
-28 38 -5 32 -10 41 -23 38 -16 -3 -17 -17 -14 -128 3 -140 12 -160 65 -160
37 0 49 7 65 37 12 23 15 179 5 232 -6 31 -31 43 -39 19z m5 -161 c0 -50 -19
-83 -44 -74 -12 5 -16 20 -16 62 0 54 0 55 30 55 29 0 30 -2 30 -43z"/>
</g>
</svg>
