<svg version="1.0" xmlns="http://www.w3.org/2000/svg"
 width="53.000000pt" height="59.000000pt" viewBox="0 0 53.000000 59.000000"
 preserveAspectRatio="xMidYMid meet">
<metadata>
Created by potrace 1.15, written by Peter Selinger 2001-2017
</metadata>
<g transform="translate(0.000000,59.000000) scale(0.100000,-0.100000)"
fill="#000000" stroke="none">
<path d="M356 440 c-16 -3 -31 -10 -33 -16 -4 -12 44 -37 57 -29 15 9 26 -27
24 -74 -2 -34 -9 -51 -31 -71 -57 -53 -70 -56 -130 -25 -53 28 -53 28 -53 87
0 51 2 58 19 58 11 0 23 5 26 10 9 15 -79 51 -109 46 -51 -9 -62 -30 -22 -40
46 -11 55 -31 55 -114 -1 -139 1 -159 19 -181 22 -27 114 -38 136 -15 17 16
82 19 91 3 4 -5 14 -9 23 -7 14 3 16 25 18 162 1 98 6 162 13 169 17 17 14 24
-16 35 -30 11 -40 11 -87 2z m49 -240 c3 -6 3 -19 0 -30 -5 -17 -10 -18 -28
-9 -32 17 -32 18 -11 34 23 17 31 18 39 5z m-171 -27 c7 -18 -12 -46 -25 -37
-5 3 -9 18 -9 34 0 21 4 28 14 24 8 -3 17 -13 20 -21z m86 -43 c22 -13 5 -23
-27 -16 -21 6 -24 9 -12 17 18 11 20 11 39 -1z"/>
</g>
</svg>
