<svg version="1.0" xmlns="http://www.w3.org/2000/svg"
 width="79.000000pt" height="59.000000pt" viewBox="0 0 79.000000 59.000000"
 preserveAspectRatio="xMidYMid meet">
<metadata>
Created by potrace 1.15, written by Peter Selinger 2001-2017
</metadata>
<g transform="translate(0.000000,59.000000) scale(0.100000,-0.100000)"
fill="#000000" stroke="none">
<path d="M586 511 c-3 -5 -9 -41 -12 -80 -8 -86 -1 -83 -174 -79 -125 3 -125
3 -128 61 -3 58 -9 65 -40 47 -9 -5 -51 -24 -92 -43 -78 -35 -104 -55 -92 -73
16 -24 57 -23 101 1 24 14 47 25 51 25 4 0 10 -51 12 -112 4 -117 14 -150 60
-204 42 -47 163 -59 258 -24 103 38 129 102 109 269 -7 55 -10 104 -6 107 4 4
17 -2 30 -14 12 -11 34 -23 48 -27 52 -13 42 15 -29 86 -69 68 -85 78 -96 60z
m-72 -214 c-5 -15 -78 -77 -89 -77 -14 0 -84 74 -75 80 5 3 46 7 90 9 66 2 79
0 74 -12z m65 -129 c-7 -32 -18 -58 -24 -58 -14 0 -85 59 -85 70 0 5 26 30 58
56 57 47 57 47 60 19 2 -16 -2 -55 -9 -87z m-254 56 c25 -25 45 -49 45 -54 0
-4 -16 -20 -36 -35 -34 -26 -36 -26 -49 -9 -14 18 -22 144 -10 144 3 0 26 -21
50 -46z m126 -115 c16 -11 27 -25 24 -30 -8 -11 -135 -12 -135 -1 0 5 11 15
25 22 14 7 25 17 25 22 0 15 31 8 61 -13z"/>
</g>
</svg>
