<svg version="1.0" xmlns="http://www.w3.org/2000/svg"
 width="65.000000pt" height="61.000000pt" viewBox="0 0 65.000000 61.000000"
 preserveAspectRatio="xMidYMid meet">
<metadata>
Created by potrace 1.15, written by Peter Selinger 2001-2017
</metadata>
<g transform="translate(0.000000,61.000000) scale(0.100000,-0.100000)"
fill="#000000" stroke="none">
<path d="M77 403 c-12 -12 15 -33 44 -33 35 0 36 -4 45 -167 8 -151 -2 -141
108 -123 34 5 91 12 129 15 93 9 97 14 91 134 -4 80 -2 102 11 114 23 24 19
27 -40 27 -55 0 -73 -13 -35 -25 46 -15 17 -68 -60 -112 -34 -19 -58 -17 -80
8 -3 3 -21 13 -41 22 -46 21 -58 67 -28 109 10 15 19 30 19 33 0 7 -155 6
-163 -2z m174 -194 c35 -24 36 -32 7 -59 -36 -33 -48 -26 -48 30 0 28 3 50 6
50 3 0 19 -9 35 -21z m199 -9 c0 -23 -5 -30 -19 -30 -17 0 -49 26 -40 34 10 8
45 25 52 26 4 0 7 -13 7 -30z m-105 -60 c-3 -5 -13 -10 -21 -10 -8 0 -14 5
-14 10 0 6 9 10 21 10 11 0 17 -4 14 -10z"/>
</g>
</svg>
