<svg version="1.0" xmlns="http://www.w3.org/2000/svg"
 width="75.000000pt" height="93.000000pt" viewBox="0 0 75.000000 93.000000"
 preserveAspectRatio="xMidYMid meet">
<metadata>
Created by potrace 1.15, written by Peter Selinger 2001-2017
</metadata>
<g transform="translate(0.000000,93.000000) scale(0.100000,-0.100000)"
fill="#000000" stroke="none">
<path d="M537 832 c-45 -5 -30 -34 28 -51 58 -18 65 -25 65 -69 0 -43 -11 -63
-73 -127 -29 -30 -76 -81 -106 -114 -29 -34 -58 -61 -65 -61 -6 0 -21 13 -33
28 -13 15 -41 48 -63 73 -40 46 -40 46 -40 141 0 96 0 96 32 102 30 6 31 7 15
24 -14 13 -34 17 -98 16 -88 -1 -118 -15 -85 -40 11 -8 33 -14 48 -14 16 0 30
-6 33 -12 2 -7 7 -107 10 -223 12 -345 19 -406 49 -433 53 -47 123 -45 323 7
56 15 97 60 100 108 1 21 5 161 9 312 6 255 8 274 25 278 51 14 -6 50 -86 54
-33 2 -73 3 -88 1z m93 -274 c0 -13 4 -30 9 -38 6 -8 7 -19 3 -25 -4 -5 -8
-59 -8 -120 -2 -155 -3 -165 -14 -165 -24 0 -189 137 -190 158 0 6 25 39 56
72 31 32 64 69 72 82 18 26 53 57 65 58 4 0 7 -10 7 -22z m-290 -201 c-1 -16
-57 -83 -64 -77 -3 3 -8 44 -12 90 -7 85 -7 85 34 42 23 -24 42 -49 42 -55z
m81 -64 c12 -10 38 -32 58 -49 20 -17 55 -45 79 -62 23 -17 38 -33 33 -37 -33
-20 -118 -35 -199 -35 -90 0 -93 1 -102 26 -14 37 -1 77 44 129 44 50 55 53
87 28z"/>
<path d="M730 650 c0 -11 5 -20 10 -20 6 0 10 9 10 20 0 11 -4 20 -10 20 -5 0
-10 -9 -10 -20z"/>
</g>
</svg>
