<svg version="1.0" xmlns="http://www.w3.org/2000/svg"
 width="95.000000pt" height="97.000000pt" viewBox="0 0 95.000000 97.000000"
 preserveAspectRatio="xMidYMid meet">
<metadata>
Created by potrace 1.15, written by Peter Selinger 2001-2017
</metadata>
<g transform="translate(0.000000,97.000000) scale(0.100000,-0.100000)"
fill="#000000" stroke="none">
<path d="M682 917 c-7 -8 -9 -42 -6 -87 2 -41 7 -129 11 -196 7 -155 11 -151
-154 -147 -65 1 -149 3 -186 3 -69 0 -69 0 -62 78 4 42 13 127 20 187 7 61 10
115 8 121 -6 18 -57 38 -61 25 -2 -6 -10 -11 -18 -11 -7 0 -17 -12 -20 -27 -9
-33 -22 -50 -111 -141 -40 -41 -73 -77 -73 -82 0 -4 6 -13 13 -19 22 -18 70 3
116 49 23 23 43 41 45 39 2 -2 0 -29 -5 -59 -14 -86 -15 -438 -1 -452 7 -7 12
-20 12 -30 0 -10 3 -18 8 -18 4 0 13 -12 20 -27 14 -32 88 -84 146 -103 59
-19 202 -9 254 18 61 31 100 75 107 119 4 21 10 52 15 68 5 17 9 70 10 120 1
49 5 94 10 100 6 7 5 16 -3 24 -8 8 -12 53 -11 147 0 74 3 136 5 138 2 2 22 1
44 -3 22 -4 58 -6 78 -3 37 4 38 5 20 24 -10 11 -37 29 -60 40 -23 11 -62 42
-87 69 -46 50 -65 59 -84 36z m-92 -527 c7 -11 5 -18 -6 -25 -9 -5 -29 -20
-44 -32 -15 -13 -34 -23 -41 -23 -18 1 -63 41 -78 68 -10 19 -8 21 31 24 86 7
129 3 138 -12z m-266 -45 c8 -8 19 -15 23 -15 5 0 18 -8 29 -18 11 -10 32 -27
46 -36 27 -18 27 -18 -1 -42 -16 -13 -33 -24 -37 -24 -5 0 -20 -9 -34 -20 -14
-11 -28 -20 -31 -20 -8 0 -23 42 -39 107 -9 42 -9 55 2 67 17 19 23 19 42 1z
m358 -61 c-7 -14 -12 -36 -12 -49 0 -24 0 -24 -45 2 -25 14 -45 29 -43 33 2 5
23 24 48 43 42 33 46 34 54 16 6 -12 5 -28 -2 -45z m-129 -96 c18 -11 43 -32
56 -46 28 -29 21 -36 -53 -52 -50 -11 -100 -6 -150 15 -28 12 -28 12 6 33 18
12 47 32 63 46 36 31 39 32 78 4z"/>
</g>
</svg>
