<svg version="1.0" xmlns="http://www.w3.org/2000/svg"
 width="76.000000pt" height="70.000000pt" viewBox="0 0 76.000000 70.000000"
 preserveAspectRatio="xMidYMid meet">
<metadata>
Created by potrace 1.15, written by Peter Selinger 2001-2017
</metadata>
<g transform="translate(0.000000,70.000000) scale(0.100000,-0.100000)"
fill="#000000" stroke="none">
<path d="M510 521 c0 -91 0 -91 -61 -122 -57 -28 -64 -30 -108 -19 -26 6 -60
22 -76 35 -28 22 -30 28 -30 92 0 63 -2 68 -22 71 -22 3 -23 0 -23 -62 0 -36
-2 -66 -5 -66 -4 0 -18 6 -33 14 -15 7 -39 16 -55 20 -50 12 -29 -18 36 -49
62 -31 62 -31 59 -145 -4 -183 30 -247 136 -258 55 -5 144 13 179 35 34 22 43
66 43 209 0 132 0 132 33 152 17 11 43 23 57 27 31 7 56 43 42 57 -6 6 -30 -1
-68 -21 -59 -31 -59 -31 -64 41 -4 59 -8 73 -22 76 -16 3 -18 -6 -18 -87z
m-227 -161 c20 -8 37 -17 37 -20 0 -11 -84 -60 -91 -52 -8 9 1 94 10 90 3 -2
23 -10 44 -18z m225 -19 c3 -33 3 -34 -29 -27 -50 10 -58 24 -29 46 35 28 54
21 58 -19z m-76 -52 c71 -27 85 -41 63 -63 -23 -22 -265 -24 -265 -2 0 17 40
47 90 69 47 20 51 20 112 -4z m64 -123 c17 -44 -50 -79 -149 -80 -52 -1 -61 2
-83 28 -45 51 -20 63 134 65 72 1 94 -2 98 -13z"/>
</g>
</svg>
