<svg version="1.0" xmlns="http://www.w3.org/2000/svg"
 width="89.000000pt" height="119.000000pt" viewBox="0 0 89.000000 119.000000"
 preserveAspectRatio="xMidYMid meet">
<metadata>
Created by potrace 1.15, written by Peter Selinger 2001-2017
</metadata>
<g transform="translate(0.000000,119.000000) scale(0.100000,-0.100000)"
fill="#000000" stroke="none">
<path d="M635 1120 c-4 -6 -2 -34 5 -63 6 -29 15 -69 19 -89 4 -20 5 -41 2
-47 -4 -6 -86 -13 -199 -17 -192 -7 -192 -7 -192 77 0 88 -8 109 -42 109 -14
0 -18 -8 -18 -38 0 -35 -4 -40 -41 -60 -22 -12 -48 -22 -56 -22 -19 0 -43 -25
-43 -45 0 -13 9 -16 48 -14 26 2 57 9 70 17 22 14 22 14 22 -36 0 -28 -5 -63
-11 -79 -6 -15 -11 -72 -12 -125 -1 -160 32 -209 178 -259 56 -19 90 -23 170
-22 153 1 206 28 255 130 31 66 25 157 -21 298 -11 33 -24 74 -29 91 -16 48
-13 67 8 59 29 -13 82 -18 82 -8 0 14 -44 53 -60 53 -7 0 -26 16 -43 36 -36
42 -83 69 -92 54z m-89 -326 c-54 -51 -57 -51 -124 6 -34 28 -34 28 34 29 37
0 69 3 72 6 3 3 19 5 36 5 31 0 31 0 -18 -46z m-249 22 c10 -8 33 -27 51 -42
19 -15 38 -38 43 -50 6 -17 13 -22 26 -17 16 6 17 5 3 -13 -8 -10 -25 -27 -38
-37 -12 -10 -28 -24 -35 -30 -28 -28 -71 -57 -82 -57 -18 0 -36 50 -30 85 11
71 36 175 41 175 2 0 12 -6 21 -14z m431 -79 c23 -72 30 -167 13 -167 -5 0
-11 3 -13 8 -5 11 -58 47 -108 72 -42 21 -59 36 -60 51 0 22 103 109 129 109
11 0 23 -23 39 -73z m-207 -106 c11 -10 56 -38 100 -61 44 -24 78 -48 76 -54
-2 -6 -26 -19 -53 -29 -56 -21 -228 -27 -247 -8 -6 6 -23 11 -38 11 -43 0 -44
18 -4 53 20 18 56 49 79 69 47 43 59 46 87 19z"/>
<path d="M817 1076 c-4 -10 -5 -21 -2 -24 9 -9 17 6 13 25 -3 17 -4 17 -11 -1z"/>
<path d="M747 383 c-26 -25 -324 -40 -417 -20 -74 16 -100 12 -100 -13 0 -20
11 -25 90 -46 61 -17 224 -20 261 -5 13 5 42 13 64 19 113 29 140 39 140 52 0
16 -27 25 -38 13z"/>
<path d="M675 239 c-71 -37 -84 -53 -84 -99 0 -65 40 -90 142 -90 76 0 97 9
97 43 0 15 -4 17 -17 11 -28 -13 -108 -10 -127 5 -9 7 -16 24 -16 37 0 21 33
50 105 90 10 6 21 16 23 22 7 23 -63 12 -123 -19z"/>
<path d="M167 243 c-17 -17 -3 -29 46 -41 29 -6 66 -12 82 -12 17 0 45 -9 63
-20 29 -18 33 -25 27 -48 -9 -35 -16 -39 -94 -47 -85 -8 -101 -13 -101 -31 0
-11 19 -14 95 -14 105 0 141 12 169 54 41 63 4 121 -98 150 -54 16 -177 22
-189 9z"/>
</g>
</svg>
