<svg version="1.0" xmlns="http://www.w3.org/2000/svg"
 width="91.000000pt" height="67.000000pt" viewBox="0 0 91.000000 67.000000"
 preserveAspectRatio="xMidYMid meet">
<metadata>
Created by potrace 1.15, written by Peter Selinger 2001-2017
</metadata>
<g transform="translate(0.000000,67.000000) scale(0.100000,-0.100000)"
fill="#000000" stroke="none">
<path d="M143 572 c-41 -8 -73 -20 -73 -26 0 -21 23 -36 56 -36 17 0 34 -6 36
-12 3 -7 6 -67 6 -133 3 -248 34 -292 225 -325 70 -12 136 -10 257 5 136 18
177 100 180 355 0 58 4 106 9 108 4 1 17 9 27 17 19 15 19 15 -1 31 -15 11
-31 14 -65 8 -25 -3 -56 -7 -70 -9 -14 -1 -33 -3 -42 -3 -10 -1 -18 -8 -18
-16 0 -16 21 -26 55 -26 12 0 26 -7 29 -16 9 -25 7 -102 -4 -109 -5 -3 -127
-8 -270 -12 -261 -6 -261 -6 -258 68 3 73 3 73 41 82 42 10 56 29 38 51 -14
17 -65 16 -158 -2z m618 -274 c2 -60 -3 -111 -12 -135 -10 -27 -39 -31 -39 -5
0 15 -12 44 -52 125 -14 29 8 47 58 47 43 0 44 -1 45 -32z m-191 8 c9 -12 8
-23 -5 -53 -31 -71 -58 -123 -65 -123 -3 0 -17 24 -29 53 -13 28 -30 67 -38
86 -13 28 -13 35 -2 42 23 15 125 11 139 -5z m-230 -7 c0 -17 -32 -89 -40 -89
-4 0 -10 -9 -13 -20 -3 -11 -9 -20 -14 -20 -14 0 -43 73 -43 106 0 29 1 30 55
30 30 1 55 -3 55 -7z m61 -89 c5 0 9 -7 9 -15 0 -8 11 -35 25 -60 26 -45 26
-45 -12 -45 -38 0 -113 17 -113 26 0 6 24 48 31 54 3 3 14 21 25 40 13 26 19
31 22 18 2 -10 8 -18 13 -18z m247 -45 c12 -25 22 -47 22 -49 0 -2 -15 -6 -32
-9 -18 -3 -41 -8 -50 -12 -14 -6 -18 -2 -18 19 0 24 38 96 51 96 3 0 15 -20
27 -45z"/>
</g>
</svg>
