<svg version="1.0" xmlns="http://www.w3.org/2000/svg"
 width="55.000000pt" height="61.000000pt" viewBox="0 0 55.000000 61.000000"
 preserveAspectRatio="xMidYMid meet">
<metadata>
Created by potrace 1.15, written by Peter Selinger 2001-2017
</metadata>
<g transform="translate(0.000000,61.000000) scale(0.100000,-0.100000)"
fill="#000000" stroke="none">
<path d="M102 463 c-16 -6 3 -33 23 -33 10 0 12 -37 7 -170 -4 -129 -2 -173 8
-185 22 -26 304 -15 333 14 7 7 6 16 -5 28 -13 14 -16 43 -17 134 -1 111 0
117 20 122 13 4 19 12 17 24 -3 16 -12 18 -68 15 -36 -2 -68 -6 -72 -8 -15
-10 5 -33 30 -36 22 -2 28 -9 30 -34 3 -35 -10 -49 -82 -89 -48 -27 -50 -27
-80 -10 -52 30 -66 54 -66 117 0 53 2 58 25 64 48 12 22 35 -55 47 -19 3 -41
3 -48 0z m310 -282 c-2 -28 -8 -51 -12 -51 -14 0 -70 51 -70 64 0 11 70 47 80
41 3 -2 3 -26 2 -54z m-182 9 c0 -17 -34 -42 -44 -33 -8 8 -8 58 0 66 10 9 44
-16 44 -33z m90 -49 c16 -30 14 -31 -47 -31 -58 0 -58 0 -29 25 35 30 62 32
76 6z"/>
</g>
</svg>
