<svg version="1.0" xmlns="http://www.w3.org/2000/svg"
 width="43.000000pt" height="53.000000pt" viewBox="0 0 43.000000 53.000000"
 preserveAspectRatio="xMidYMid meet">
<metadata>
Created by potrace 1.15, written by Peter Selinger 2001-2017
</metadata>
<g transform="translate(0.000000,53.000000) scale(0.100000,-0.100000)"
fill="#000000" stroke="none">
<path d="M102 319 c-39 -12 -37 -32 3 -39 32 -6 42 -28 44 -97 1 -30 -4 -45
-16 -52 -44 -26 41 -38 152 -22 46 7 48 8 25 18 -22 9 -25 16 -25 64 0 30 -4
61 -8 71 -6 12 -1 20 20 30 39 19 31 33 -19 33 -43 0 -43 0 -40 -42 3 -42 2
-43 -27 -43 -28 0 -30 3 -33 43 -3 47 -17 53 -76 36z"/>
</g>
</svg>
