<svg version="1.0" xmlns="http://www.w3.org/2000/svg"
 width="109.000000pt" height="91.000000pt" viewBox="0 0 109.000000 91.000000"
 preserveAspectRatio="xMidYMid meet">
<metadata>
Created by potrace 1.15, written by Peter Selinger 2001-2017
</metadata>
<g transform="translate(0.000000,91.000000) scale(0.100000,-0.100000)"
fill="#000000" stroke="none">
<path d="M901 876 c-15 -17 4 -53 31 -62 14 -4 18 -16 18 -53 0 -48 0 -48 -42
-56 -24 -4 -59 -9 -78 -11 -19 -1 -64 -6 -100 -10 -79 -10 -168 -9 -369 1
-153 8 -153 8 -149 82 4 58 2 75 -10 82 -21 12 -104 0 -121 -17 -13 -13 -11
-18 17 -41 33 -26 33 -26 37 -216 5 -212 27 -376 56 -417 11 -14 19 -29 19
-32 0 -10 43 -56 53 -56 5 0 21 -8 35 -18 15 -11 55 -25 89 -32 78 -16 285
-19 304 -4 8 6 41 17 74 24 105 23 146 54 194 141 21 40 31 71 32 105 0 27 5
63 9 79 5 17 11 66 15 110 25 322 25 327 48 373 16 33 -3 42 -84 42 -46 0 -70
-5 -78 -14z m49 -333 c0 -94 -16 -224 -28 -233 -4 -3 -8 -14 -10 -25 -8 -55
-58 -119 -111 -141 -31 -13 -35 -12 -60 9 -15 12 -47 46 -72 75 -24 29 -52 62
-61 72 -16 17 -16 19 3 36 10 9 19 21 19 25 0 12 26 43 85 104 28 28 61 68 75
88 15 23 33 37 46 37 11 0 24 3 28 8 7 7 64 30 79 31 4 1 7 -38 7 -86z m-675
69 c6 -4 17 -20 25 -37 21 -42 70 -115 97 -145 13 -14 23 -28 23 -31 0 -3 11
-19 24 -34 13 -15 30 -39 37 -52 11 -21 9 -27 -19 -56 -18 -18 -32 -37 -32
-42 0 -16 -71 -95 -85 -95 -25 0 -90 62 -98 93 -4 18 -14 113 -21 212 -13 184
-12 195 24 195 8 0 20 -4 25 -8z m307 -2 c127 0 136 -2 131 -19 -2 -10 -17
-32 -31 -48 -39 -43 -72 -91 -72 -103 0 -5 -7 -10 -15 -10 -8 0 -15 -4 -15 -8
0 -11 -39 -57 -43 -51 -2 2 -14 20 -27 39 -13 19 -38 50 -56 68 -18 19 -38 47
-44 63 -7 16 -16 29 -20 29 -11 0 -21 30 -15 41 3 5 20 7 38 4 18 -2 93 -5
169 -5z m-32 -378 c0 -5 8 -17 18 -28 27 -31 83 -104 80 -104 -2 -1 -37 -7
-78 -14 -75 -13 -140 -6 -140 14 0 6 3 10 8 10 4 0 27 29 51 65 39 59 61 79
61 57z"/>
</g>
</svg>
