<svg version="1.0" xmlns="http://www.w3.org/2000/svg"
 width="67.000000pt" height="80.000000pt" viewBox="0 0 67.000000 80.000000"
 preserveAspectRatio="xMidYMid meet">
<metadata>
Created by potrace 1.15, written by Peter Selinger 2001-2017
</metadata>
<g transform="translate(0.000000,80.000000) scale(0.100000,-0.100000)"
fill="#000000" stroke="none">
<path d="M215 710 c-9 -14 -5 -17 37 -38 42 -22 52 -62 14 -62 -44 0 -74 -18
-98 -59 -13 -22 -33 -45 -46 -51 -31 -14 -25 -44 10 -48 39 -5 39 -28 0 -103
-25 -48 -34 -80 -36 -119 -2 -81 19 -74 38 13 21 93 39 121 73 112 22 -5 25
-3 20 15 -6 24 18 40 62 40 42 0 39 -15 -6 -39 -49 -25 -96 -74 -91 -97 2 -14
11 -10 51 24 70 61 84 62 183 13 84 -42 122 -77 143 -134 13 -33 41 -36 41 -4
0 34 -36 102 -66 126 -15 12 -50 28 -78 36 -91 27 -93 36 -13 60 41 12 68 38
54 51 -4 4 -28 -2 -55 -14 -57 -26 -84 -31 -89 -16 -2 7 12 15 33 19 22 4 49
19 66 37 19 20 41 32 68 35 50 7 48 27 -3 31 -41 4 -54 32 -14 32 27 0 44 11
49 29 2 11 -17 14 -104 12 -104 -2 -116 1 -100 26 8 13 88 43 115 43 10 0 17
6 15 13 -7 20 -74 20 -122 -2 -44 -19 -46 -19 -69 -1 -31 25 -73 35 -82 20z
m82 -157 c4 -9 7 -34 7 -56 1 -38 0 -40 -44 -53 -52 -16 -70 -12 -70 14 0 14
9 21 30 26 17 3 30 10 30 16 0 5 -13 10 -30 10 -33 0 -37 8 -17 32 24 31 84
38 94 11z m153 3 c0 -8 -10 -16 -22 -18 -25 -4 -37 -28 -14 -28 22 0 20 -17
-3 -30 -39 -20 -60 -12 -67 25 -10 55 -1 65 56 65 37 0 50 -4 50 -14z"/>
<path d="M274 264 c-36 -19 -74 -79 -74 -117 0 -62 12 -85 55 -108 39 -21 46
-22 103 -9 77 16 112 37 137 83 18 34 18 40 5 79 -21 59 -57 81 -133 85 -42 2
-72 -2 -93 -13z m163 -46 c31 -35 35 -57 16 -90 -21 -36 -70 -58 -127 -58 -62
0 -86 21 -86 76 0 66 35 91 131 93 35 1 50 -4 66 -21z"/>
<path d="M325 175 c-5 -2 -22 -6 -37 -9 -53 -12 -28 -26 46 -26 73 0 104 13
75 31 -14 8 -64 11 -84 4z"/>
</g>
</svg>
