<svg version="1.0" xmlns="http://www.w3.org/2000/svg"
 width="61.000000pt" height="83.000000pt" viewBox="0 0 61.000000 83.000000"
 preserveAspectRatio="xMidYMid meet">
<metadata>
Created by potrace 1.15, written by Peter Selinger 2001-2017
</metadata>
<g transform="translate(0.000000,83.000000) scale(0.100000,-0.100000)"
fill="#000000" stroke="none">
<path d="M450 701 c-8 -5 -34 -11 -58 -15 -24 -4 -54 -14 -68 -22 -22 -15 -27
-15 -61 2 -49 23 -156 26 -160 4 -3 -14 44 -32 130 -47 54 -10 26 -23 -50 -23
-81 0 -108 -9 -101 -31 3 -10 28 -12 101 -10 79 2 97 0 97 -12 0 -11 -19 -16
-77 -19 -98 -7 -114 -22 -112 -112 1 -33 -3 -83 -9 -111 -13 -61 -15 -282 -3
-289 20 -13 29 28 35 172 3 85 8 158 11 163 3 4 24 -1 45 -12 27 -14 53 -20
80 -17 39 3 40 3 40 -29 0 -32 -1 -33 -40 -33 -36 0 -40 2 -40 26 0 41 -33 27
-44 -19 -7 -28 -5 -50 7 -91 24 -75 58 -88 167 -65 28 6 62 21 75 32 23 21 24
26 18 95 -6 77 -19 91 -43 47 -20 -37 -54 -30 -58 11 -3 30 -1 32 40 38 121
19 113 30 116 -147 2 -135 5 -159 19 -164 10 -4 21 1 30 13 11 15 13 46 8 154
-4 74 -11 151 -16 170 -6 23 -5 53 2 87 17 77 9 83 -112 83 -85 0 -99 2 -99
16 0 15 12 16 100 12 89 -4 102 -3 110 12 16 30 -12 43 -74 36 -30 -4 -71 -4
-90 0 -56 10 -29 28 64 43 79 13 93 24 68 49 -14 14 -27 15 -48 3z m-170 -225
c0 -30 -16 -36 -90 -36 -43 0 -59 4 -64 15 -6 18 1 22 64 34 79 15 90 14 90
-13z m208 2 c-4 -27 -35 -33 -115 -23 -34 4 -53 11 -53 20 0 19 16 23 98 24
71 1 73 0 70 -21z m-28 -72 c0 -18 -18 -24 -86 -32 -53 -7 -54 -6 -54 20 0 26
1 26 70 26 53 0 70 -3 70 -14z m-190 0 c0 -2 3 -11 6 -20 10 -25 -86 -22 -117
4 -24 19 -24 19 44 20 37 0 67 -2 67 -4z m120 -210 c0 -22 -6 -26 -52 -35 -79
-16 -99 -9 -113 37 -6 22 -5 22 79 22 84 0 86 0 86 -24z"/>
</g>
</svg>
