<svg version="1.0" xmlns="http://www.w3.org/2000/svg"
 width="71.000000pt" height="181.000000pt" viewBox="0 0 71.000000 181.000000"
 preserveAspectRatio="xMidYMid meet">
<metadata>
Created by potrace 1.15, written by Peter Selinger 2001-2017
</metadata>
<g transform="translate(0.000000,181.000000) scale(0.100000,-0.100000)"
fill="#000000" stroke="none">
<path d="M275 1540 c-7 -12 11 -130 26 -165 4 -11 9 -35 11 -54 3 -39 4 -38
-102 -48 -36 -3 -67 -7 -69 -9 -4 -3 -5 -24 -17 -209 -13 -209 -10 -369 9
-363 8 3 14 51 19 165 3 89 11 171 18 182 11 22 42 26 113 14 38 -6 38 -6 32
-67 -9 -92 -14 -609 -5 -599 10 11 38 171 45 258 3 39 8 144 11 235 3 90 6
165 7 166 1 1 40 5 86 9 84 7 84 7 78 -132 -4 -76 -4 -175 0 -218 8 -89 9 -86
33 70 22 143 29 470 10 489 -6 6 -47 13 -90 15 -44 1 -80 7 -80 12 0 5 11 33
25 64 14 30 28 68 31 85 4 16 10 30 15 30 5 0 9 18 9 41 0 49 -21 49 -31 0 -4
-18 -15 -42 -26 -54 -11 -12 -28 -41 -38 -64 -23 -54 -41 -55 -49 -3 -15 92
-54 177 -71 150z m51 -372 c-3 -34 -8 -63 -10 -65 -5 -5 -42 -7 -98 -5 -48 2
-48 2 -48 55 0 65 14 75 104 76 59 1 59 1 52 -61z m211 -8 c2 -70 2 -70 -38
-64 -22 4 -59 7 -82 8 -42 1 -42 1 -44 41 -5 82 -2 85 85 85 77 0 77 0 79 -70z"/>
<path d="M130 468 c-1 -13 -1 -104 -1 -203 0 -175 1 -180 22 -195 60 -40 123
-47 221 -27 76 16 94 35 107 111 17 95 14 251 -4 266 -19 16 -24 -8 -27 -120
-3 -85 -3 -85 -143 -85 -140 0 -140 0 -141 110 -1 97 -13 165 -29 165 -3 0 -5
-10 -5 -22z m308 -330 c-3 -28 -9 -35 -43 -46 -44 -15 -183 -9 -216 9 -18 9
-26 49 -12 62 3 4 67 7 140 7 134 0 134 0 131 -32z"/>
</g>
</svg>
