<svg version="1.0" xmlns="http://www.w3.org/2000/svg"
 width="53.000000pt" height="107.000000pt" viewBox="0 0 53.000000 107.000000"
 preserveAspectRatio="xMidYMid meet">
<metadata>
Created by potrace 1.15, written by Peter Selinger 2001-2017
</metadata>
<g transform="translate(0.000000,107.000000) scale(0.100000,-0.100000)"
fill="#000000" stroke="none">
<path d="M216 871 c-4 -5 -2 -20 4 -33 25 -59 41 -148 29 -169 -9 -18 -18 -20
-77 -17 -67 3 -67 3 -64 -32 3 -39 18 -136 33 -217 6 -29 15 -53 20 -53 14 0
22 46 15 84 -7 38 0 48 30 40 14 -4 24 -20 33 -52 24 -88 28 -97 37 -95 5 2
10 39 12 83 3 77 4 80 27 80 42 0 55 -10 55 -45 0 -19 4 -36 8 -39 33 -20 42
68 18 173 -15 67 -26 81 -63 81 -36 0 -35 15 2 88 33 66 46 132 25 132 -5 0
-21 -22 -35 -49 -13 -27 -29 -52 -34 -55 -5 -3 -18 16 -30 44 -22 51 -36 67
-45 51z m7 -301 c7 -28 5 -36 -9 -47 -24 -18 -51 0 -57 39 -6 42 -1 50 31 46
20 -2 28 -11 35 -38z m121 24 c3 -9 6 -29 6 -45 0 -29 -2 -30 -37 -27 -33 3
-38 7 -41 31 -2 16 -1 35 2 43 7 19 62 18 70 -2z"/>
<path d="M376 292 c7 -47 6 -48 -106 -57 -75 -6 -75 -6 -92 24 -25 46 -41 40
-33 -13 4 -24 7 -60 8 -81 1 -27 8 -41 28 -55 22 -17 39 -19 120 -14 138 7
132 2 127 92 -4 77 -22 132 -46 140 -9 3 -11 -6 -6 -36z m14 -110 c0 -23 -30
-32 -102 -32 -61 0 -78 3 -78 14 0 15 31 21 128 24 28 1 52 -2 52 -6z"/>
</g>
</svg>
