<svg version="1.0" xmlns="http://www.w3.org/2000/svg"
 width="53.000000pt" height="105.000000pt" viewBox="0 0 53.000000 105.000000"
 preserveAspectRatio="xMidYMid meet">
<metadata>
Created by potrace 1.15, written by Peter Selinger 2001-2017
</metadata>
<g transform="translate(0.000000,105.000000) scale(0.100000,-0.100000)"
fill="#000000" stroke="none">
<path d="M276 855 c-3 -9 -6 -37 -6 -61 0 -24 -3 -44 -6 -44 -8 0 -27 21 -47
53 -20 31 -47 36 -47 8 0 -10 14 -45 30 -76 17 -32 28 -60 25 -63 -3 -3 -24
-5 -48 -4 -68 3 -71 -2 -68 -120 1 -57 4 -111 7 -121 6 -18 6 -18 20 0 7 10
14 26 14 36 0 23 34 35 79 27 34 -5 36 -8 35 -40 -7 -199 -8 -188 8 -172 15
15 36 111 37 163 1 41 11 49 60 41 33 -5 33 -5 27 -49 -4 -32 -3 -44 6 -41 16
6 46 58 47 81 1 9 4 17 9 17 4 0 7 26 8 57 0 70 -22 103 -72 103 -18 0 -44 4
-58 10 -24 9 -25 13 -28 106 -2 61 -7 99 -14 101 -6 2 -14 -3 -18 -12z m-18
-261 c6 -2 12 -13 12 -24 0 -18 -6 -20 -54 -20 -49 0 -54 2 -58 25 -3 13 0 26
6 28 11 4 70 -1 94 -9z m152 -24 c0 -29 -1 -30 -50 -30 -46 0 -50 2 -50 24 0
22 5 25 43 29 23 2 45 4 50 5 4 1 7 -11 7 -28z"/>
<path d="M94 285 c-8 -32 13 -184 28 -202 8 -10 14 -11 22 -3 13 13 179 13
192 0 20 -20 36 10 46 81 9 62 8 80 -6 112 -14 32 -19 37 -31 27 -8 -7 -15
-21 -15 -31 0 -17 -8 -19 -82 -19 -86 1 -118 12 -118 44 0 25 -29 19 -36 -9z
m192 -105 c27 0 34 -4 34 -19 0 -21 -34 -31 -107 -31 -36 0 -45 4 -52 23 -13
33 -3 40 47 33 25 -3 60 -6 78 -6z"/>
</g>
</svg>
