<svg version="1.0" xmlns="http://www.w3.org/2000/svg"
 width="51.000000pt" height="89.000000pt" viewBox="0 0 51.000000 89.000000"
 preserveAspectRatio="xMidYMid meet">
<metadata>
Created by potrace 1.15, written by Peter Selinger 2001-2017
</metadata>
<g transform="translate(0.000000,89.000000) scale(0.100000,-0.100000)"
fill="#000000" stroke="none">
<path d="M200 742 c0 -5 7 -17 15 -28 26 -34 19 -52 -25 -59 -21 -4 -49 -4
-60 0 -22 7 -22 6 -19 -152 1 -87 6 -162 10 -168 3 -5 10 -39 13 -75 14 -141
18 -169 30 -179 6 -5 34 -13 61 -16 58 -7 103 -14 127 -21 9 -3 26 5 37 17 18
19 21 35 21 108 0 89 -14 161 -30 161 -6 0 -10 -25 -10 -55 0 -54 0 -54 -31
-50 -17 2 -32 5 -33 7 -1 2 0 70 3 153 6 149 6 149 49 162 60 17 72 10 72 -45
0 -28 4 -42 9 -36 11 11 14 37 12 120 -1 55 -3 62 -26 72 -14 7 -47 12 -72 12
-45 0 -45 0 -39 30 6 34 -13 43 -21 10 -7 -27 -18 -25 -51 10 -29 30 -42 37
-42 22z m70 -144 c0 -29 0 -29 -67 -26 -66 3 -68 4 -71 30 -3 26 -2 27 55 30
76 4 83 1 83 -34z m158 7 c3 -30 3 -30 -57 -32 -57 -2 -61 -1 -67 22 -9 38 3
46 64 43 55 -3 57 -4 60 -33z m-160 -222 c3 -153 3 -153 -33 -153 -19 0 -38
-1 -42 -1 -21 -4 -45 107 -47 213 -1 87 -1 87 34 91 91 10 85 21 88 -150z
m102 -244 c0 -57 11 -53 -100 -34 -57 10 -80 26 -80 54 0 26 1 26 90 28 90 3
90 3 90 -48z"/>
</g>
</svg>
