<svg version="1.0" xmlns="http://www.w3.org/2000/svg"
 width="62.000000pt" height="89.000000pt" viewBox="0 0 62.000000 89.000000"
 preserveAspectRatio="xMidYMid meet">
<metadata>
Created by potrace 1.15, written by Peter Selinger 2001-2017
</metadata>
<g transform="translate(0.000000,89.000000) scale(0.100000,-0.100000)"
fill="#000000" stroke="none">
<path d="M421 661 c-11 -7 -12 -27 -7 -95 7 -82 6 -86 -14 -86 -19 0 -20 4
-14 55 6 51 5 55 -14 55 -25 0 -29 -12 -38 -112 -9 -104 -1 -138 43 -181 36
-37 36 -37 29 -152 -6 -99 -5 -116 9 -121 35 -14 45 14 45 127 0 109 0 109 34
126 50 23 59 54 54 183 -2 84 -7 113 -18 120 -21 13 -28 1 -32 -50 -2 -32 -7
-45 -18 -45 -12 0 -16 19 -20 89 -5 89 -12 104 -39 87z m-1 -276 c0 -30 -4
-55 -8 -55 -19 0 -32 27 -32 67 0 36 3 43 20 43 18 0 20 -7 20 -55z m80 6 c0
-28 -6 -53 -13 -60 -21 -16 -27 -3 -27 56 0 46 3 53 20 53 17 0 20 -7 20 -49z"/>
<path d="M72 619 c-35 -14 -21 -33 29 -39 64 -7 65 -33 2 -50 -57 -15 -71 -26
-56 -41 8 -8 20 -9 43 -1 17 6 37 9 45 6 31 -12 13 -33 -42 -51 -31 -11 -59
-25 -61 -31 -6 -20 26 -25 59 -8 41 21 49 20 49 -3 0 -23 -37 -71 -55 -71 -18
0 -35 -31 -35 -62 0 -13 16 -65 36 -116 27 -67 42 -92 54 -92 29 0 29 21 -1
95 -43 105 -46 132 -19 155 13 11 26 20 30 20 4 0 15 15 24 34 11 24 16 62 16
130 0 83 -3 99 -20 116 -21 21 -60 25 -98 9z"/>
<path d="M200 616 c0 -15 21 -26 51 -26 31 0 22 -26 -17 -50 -27 -15 -34 -24
-26 -32 9 -9 18 -8 37 0 35 16 35 16 35 -14 0 -19 -8 -28 -35 -40 -19 -8 -35
-18 -35 -24 0 -15 21 -23 33 -11 6 6 17 11 24 11 24 0 13 -30 -25 -73 -22 -23
-42 -53 -46 -67 -8 -30 34 -220 49 -220 16 0 35 22 35 40 0 9 -9 35 -20 57
-11 22 -22 58 -25 79 -6 35 -2 44 30 81 39 46 55 107 55 215 0 47 -4 59 -22
72 -29 20 -98 22 -98 2z"/>
</g>
</svg>
