<svg version="1.0" xmlns="http://www.w3.org/2000/svg"
 width="55.000000pt" height="105.000000pt" viewBox="0 0 55.000000 105.000000"
 preserveAspectRatio="xMidYMid meet">
<metadata>
Created by potrace 1.15, written by Peter Selinger 2001-2017
</metadata>
<g transform="translate(0.000000,105.000000) scale(0.100000,-0.100000)"
fill="#000000" stroke="none">
<path d="M287 863 c-4 -70 -7 -156 -7 -190 0 -68 -15 -93 -56 -93 -24 0 -24 0
-9 36 18 44 20 163 3 213 -19 57 -67 121 -88 121 -28 0 -26 -35 5 -71 46 -56
64 -162 41 -242 -15 -51 -19 -57 -49 -61 -121 -19 -114 -15 -96 -47 7 -14 14
-17 23 -10 6 5 65 13 131 16 66 4 165 9 220 12 92 5 121 14 109 35 -3 4 -45 8
-95 8 -80 0 -89 2 -89 18 0 13 12 23 38 31 82 25 94 62 17 53 -25 -2 -46 -3
-47 -1 0 2 -4 69 -7 149 -5 121 -9 145 -22 148 -14 2 -17 -16 -22 -125z"/>
<path d="M435 928 c11 -56 11 -177 1 -205 -11 -30 13 -31 37 -3 21 24 22 92 5
185 -10 53 -16 65 -32 65 -17 0 -18 -5 -11 -42z"/>
<path d="M272 498 c2 -6 11 -15 19 -18 57 -27 74 -41 74 -60 0 -15 -10 -26
-33 -35 -31 -14 -33 -13 -49 13 -20 32 -50 62 -81 80 -44 25 -72 7 -32 -21 22
-15 51 -67 45 -78 -6 -9 -136 27 -145 40 -7 13 -40 4 -40 -10 0 -15 84 -56
143 -68 66 -14 83 -33 97 -107 23 -134 29 -161 39 -186 6 -16 14 -28 17 -28 6
0 4 49 -12 245 -5 61 -5 61 28 73 79 28 111 89 68 127 -38 35 -147 61 -138 33z"/>
</g>
</svg>
