<svg version="1.0" xmlns="http://www.w3.org/2000/svg"
 width="65.000000pt" height="132.000000pt" viewBox="0 0 65.000000 132.000000"
 preserveAspectRatio="xMidYMid meet">
<metadata>
Created by potrace 1.15, written by Peter Selinger 2001-2017
</metadata>
<g transform="translate(0.000000,132.000000) scale(0.100000,-0.100000)"
fill="#000000" stroke="none">
<path d="M174 1155 c-41 -25 -41 -25 -53 -117 -7 -51 -11 -102 -10 -113 6 -53
-1 -85 -19 -85 -27 0 -43 56 -35 121 10 88 9 103 -8 107 -23 4 -28 -16 -30
-106 -1 -96 6 -127 37 -147 14 -9 22 -20 19 -25 -4 -6 4 -10 15 -10 21 0 22
-3 18 -117 -3 -128 -16 -153 -44 -87 -15 36 -15 79 1 150 5 24 3 33 -9 37 -23
9 -33 -17 -41 -103 -8 -91 2 -123 48 -145 33 -15 33 -15 29 -245 -4 -201 -3
-230 11 -230 8 0 18 7 21 16 3 9 7 109 7 221 1 187 3 207 20 224 10 10 26 19
34 19 30 0 48 48 49 132 1 112 -17 111 -31 -2 -13 -101 -17 -110 -43 -110 -27
0 -31 22 -20 123 5 51 10 99 10 109 0 9 13 21 29 26 16 6 34 19 39 29 17 32
33 135 22 148 -6 7 -6 15 1 22 16 16 7 67 -13 71 -15 3 -18 -5 -19 -55 -1
-111 -17 -173 -45 -173 -14 0 -15 11 -11 88 8 128 19 175 42 187 50 26 56 32
49 48 -8 23 -21 21 -70 -8z"/>
<path d="M370 1104 c-71 -14 -100 -42 -94 -94 1 -14 3 -35 3 -47 2 -36 39 -63
87 -63 47 0 52 -9 45 -82 -3 -34 -6 -38 -31 -38 -29 0 -40 15 -40 55 0 24 -25
52 -33 38 -3 -4 -3 -30 0 -56 5 -40 11 -50 34 -62 15 -8 39 -15 54 -15 18 0
25 -5 25 -20 0 -17 -7 -20 -42 -20 -48 0 -74 -12 -64 -29 9 -13 262 -15 270
-2 11 18 -22 31 -67 27 -35 -4 -47 -1 -52 11 -7 21 5 33 41 39 16 2 40 13 54
23 39 28 38 100 -1 101 -3 0 -11 -18 -18 -40 -9 -29 -18 -41 -37 -46 -36 -9
-47 6 -39 59 7 45 7 45 65 52 55 6 60 9 75 42 20 43 16 123 -7 147 -17 16
-175 30 -228 20z m86 -42 c11 -7 23 -52 27 -102 2 -20 -3 -26 -23 -28 -21 -2
-27 3 -37 37 -19 60 -17 101 5 101 9 0 22 -4 28 -8z m102 -2 c8 0 12 -16 12
-48 0 -43 -12 -72 -30 -72 -7 0 -24 52 -35 104 -5 26 -4 28 17 22 13 -3 29 -6
36 -6z m-187 -22 c1 -25 3 -37 14 -80 6 -23 4 -28 -12 -28 -31 0 -53 23 -59
62 -7 40 9 67 39 68 11 0 17 -8 18 -22z"/>
<path d="M333 604 c-28 -7 -56 -86 -47 -133 11 -52 53 -72 137 -66 38 3 79 8
92 11 36 9 55 46 55 106 0 42 -4 56 -20 66 -21 13 -178 24 -217 16z m175 -40
c18 -4 22 -11 22 -44 0 -62 -25 -80 -108 -80 -40 0 -73 5 -80 12 -20 20 -15
95 8 111 19 13 98 14 158 1z"/>
<path d="M282 345 c-17 -20 -32 -42 -32 -50 0 -8 -4 -15 -8 -15 -5 0 -14 -26
-21 -57 -7 -32 -16 -65 -20 -73 -10 -21 -2 -50 13 -50 21 0 36 23 36 55 0 36
35 131 56 152 20 20 44 9 44 -20 0 -33 37 -141 49 -145 6 -2 11 -10 11 -17 0
-25 161 -121 186 -111 27 10 10 30 -53 61 -34 17 -66 38 -72 47 -12 20 0 134
20 184 10 27 12 28 23 10 6 -10 21 -29 34 -42 12 -13 22 -27 22 -32 0 -8 39
-93 47 -102 2 -2 8 2 13 9 16 27 -33 140 -82 189 -61 62 -91 54 -101 -29 -4
-24 -8 -56 -10 -72 -6 -51 -24 -54 -37 -6 -20 79 -41 129 -60 139 -25 13 -21
15 -58 -25z"/>
</g>
</svg>
