<svg version="1.0" xmlns="http://www.w3.org/2000/svg"
 width="55.000000pt" height="115.000000pt" viewBox="0 0 55.000000 115.000000"
 preserveAspectRatio="xMidYMid meet">
<metadata>
Created by potrace 1.15, written by Peter Selinger 2001-2017
</metadata>
<g transform="translate(0.000000,115.000000) scale(0.100000,-0.100000)"
fill="#000000" stroke="none">
<path d="M262 1063 c-21 -39 -32 -126 -25 -198 4 -52 3 -75 -5 -75 -6 0 -15 6
-19 14 -19 33 -133 146 -147 146 -40 0 -4 -77 73 -160 24 -25 50 -56 59 -70 9
-14 24 -30 33 -37 12 -9 18 -38 23 -120 3 -59 8 -123 11 -141 2 -19 7 -100 10
-180 5 -128 8 -172 14 -204 2 -15 41 -8 41 7 0 8 7 15 15 15 8 0 17 14 21 35
6 36 0 202 -14 355 -4 47 -8 117 -7 156 0 72 0 72 52 123 72 71 109 128 111
174 3 43 -7 46 -40 15 -32 -32 -125 -108 -131 -108 -3 0 -7 21 -10 48 -21 187
-41 251 -65 205z"/>
</g>
</svg>
