<svg version="1.0" xmlns="http://www.w3.org/2000/svg"
 width="57.000000pt" height="77.000000pt" viewBox="0 0 57.000000 77.000000"
 preserveAspectRatio="xMidYMid meet">
<metadata>
Created by potrace 1.15, written by Peter Selinger 2001-2017
</metadata>
<g transform="translate(0.000000,77.000000) scale(0.100000,-0.100000)"
fill="#000000" stroke="none">
<path d="M110 482 c0 -5 13 -15 30 -22 16 -7 52 -36 80 -66 43 -45 49 -57 40
-73 -31 -59 13 -131 80 -131 11 0 37 -18 59 -40 22 -22 44 -40 50 -40 5 0 14
-6 18 -14 7 -12 11 -12 25 -2 14 10 18 32 20 118 3 101 2 106 -25 142 -33 42
-88 81 -138 97 -79 26 -239 46 -239 31z m266 -109 c20 -27 17 -37 -16 -51 -16
-8 -30 -18 -30 -23 0 -5 14 -9 30 -9 25 0 30 -4 30 -23 0 -35 -17 -46 -52 -36
-17 4 -35 6 -39 3 -12 -7 -11 12 2 61 24 95 45 117 75 78z m114 -136 c-1 -23
-6 -55 -13 -71 -13 -29 -13 -29 -42 -4 -26 23 -28 28 -17 54 6 16 14 49 18 74
6 44 6 44 30 17 17 -20 24 -40 24 -70z"/>
</g>
</svg>
