<svg version="1.0" xmlns="http://www.w3.org/2000/svg"
 width="69.000000pt" height="111.000000pt" viewBox="0 0 69.000000 111.000000"
 preserveAspectRatio="xMidYMid meet">
<metadata>
Created by potrace 1.15, written by Peter Selinger 2001-2017
</metadata>
<g transform="translate(0.000000,111.000000) scale(0.100000,-0.100000)"
fill="#000000" stroke="none">
<path d="M393 888 c-61 -53 -163 -162 -189 -204 -10 -16 -22 -31 -26 -34 -10
-8 -108 -206 -108 -219 0 -6 -4 -19 -9 -29 -15 -27 -31 -107 -31 -155 0 -88
41 -152 127 -196 35 -17 60 -21 145 -21 100 0 208 17 208 32 0 5 7 8 15 8 22
0 125 49 125 60 0 16 -18 21 -42 11 -52 -21 -165 -51 -191 -51 -22 0 -27 4
-27 26 0 14 -5 45 -11 70 -16 64 -1 94 67 130 67 35 84 59 84 122 0 38 -5 53
-22 68 -33 28 -65 44 -87 44 -23 0 -29 30 -32 156 -3 91 -3 91 39 141 23 27
42 55 42 61 0 23 -39 12 -77 -20z m-63 -235 c0 -27 3 -57 5 -68 3 -11 1 -26
-3 -33 -9 -13 -133 -44 -142 -35 -2 2 1 13 8 23 7 11 18 30 25 42 6 13 19 30
28 38 9 8 24 30 33 48 25 49 46 42 46 -15z m125 -202 c12 -39 -36 -101 -80
-101 -8 0 -23 -4 -33 -9 -23 -12 -220 -36 -229 -28 -11 12 19 86 41 100 41 25
163 54 238 56 47 1 58 -2 63 -18z m-137 -220 c7 -21 12 -61 12 -90 0 -48 -1
-51 -26 -51 -62 0 -137 34 -188 86 -27 26 -18 41 37 59 28 9 59 21 67 26 8 4
31 9 51 9 33 0 37 -3 47 -39z"/>
<path d="M670 885 c0 -8 5 -15 10 -15 6 0 10 7 10 15 0 8 -4 15 -10 15 -5 0
-10 -7 -10 -15z"/>
</g>
</svg>
