<svg version="1.0" xmlns="http://www.w3.org/2000/svg"
 width="55.000000pt" height="61.000000pt" viewBox="0 0 55.000000 61.000000"
 preserveAspectRatio="xMidYMid meet">
<metadata>
Created by potrace 1.15, written by Peter Selinger 2001-2017
</metadata>
<g transform="translate(0.000000,61.000000) scale(0.100000,-0.100000)"
fill="#000000" stroke="none">
<path d="M110 397 c0 -24 12 -42 68 -105 17 -20 34 -46 36 -57 3 -11 7 -32 11
-47 4 -20 13 -29 33 -34 15 -3 37 -10 48 -16 12 -5 31 -7 41 -4 12 4 25 0 33
-9 7 -8 25 -15 40 -15 24 0 28 4 33 39 8 62 -3 126 -28 155 -28 33 -155 93
-224 106 -80 15 -91 13 -91 -13z m129 -73 c3 -16 1 -17 -13 -5 -19 16 -21 34
-3 29 6 -3 14 -13 16 -24z m75 -13 c10 -16 -6 -111 -20 -111 -22 0 -25 16 -12
69 11 49 21 61 32 42z m86 -86 c15 -53 8 -67 -20 -39 -16 15 -19 27 -14 52 9
44 19 40 34 -13z"/>
</g>
</svg>
