<svg version="1.0" xmlns="http://www.w3.org/2000/svg"
 width="63.000000pt" height="107.000000pt" viewBox="0 0 63.000000 107.000000"
 preserveAspectRatio="xMidYMid meet">
<metadata>
Created by potrace 1.15, written by Peter Selinger 2001-2017
</metadata>
<g transform="translate(0.000000,107.000000) scale(0.100000,-0.100000)"
fill="#000000" stroke="none">
<path d="M105 933 c-4 -10 -11 -61 -16 -113 -4 -52 -13 -124 -18 -160 -44
-286 -50 -383 -30 -468 15 -65 48 -130 70 -137 11 -4 19 -11 19 -16 0 -5 8 -9
18 -9 10 0 24 -6 31 -12 8 -9 48 -13 124 -13 111 0 114 1 171 35 66 40 87 65
110 134 27 80 31 131 12 171 -21 45 -43 45 -62 0 -11 -26 -20 -35 -38 -35 -43
0 -57 40 -42 117 6 35 3 56 -19 115 -15 40 -40 90 -56 110 -16 20 -29 41 -29
45 0 5 -9 15 -20 23 -11 8 -20 20 -20 27 0 8 -14 16 -32 20 -35 7 -108 76
-108 103 0 26 -30 80 -45 80 -7 0 -16 -8 -20 -17z m76 -200 c12 -10 31 -27 42
-37 20 -19 20 -19 -29 -32 -66 -17 -65 -18 -54 12 6 14 10 36 10 50 0 29 3 29
31 7z m116 -159 c39 -18 48 -34 57 -99 8 -65 -7 -92 -64 -121 -101 -52 -200
-21 -200 63 0 57 27 145 47 157 45 27 104 27 160 0z m103 -309 c18 -18 36 -34
39 -33 21 3 71 -17 71 -28 0 -33 -51 -98 -92 -120 -31 -16 -193 -20 -203 -4
-3 6 -13 10 -22 10 -32 0 -83 85 -83 139 0 25 2 26 46 22 45 -3 88 6 164 34
19 7 37 13 41 14 3 1 20 -15 39 -34z"/>
<path d="M188 489 c-11 -6 -18 -22 -18 -41 0 -56 66 -79 95 -34 19 28 9 58
-25 76 -23 12 -30 12 -52 -1z"/>
</g>
</svg>
