<svg version="1.0" xmlns="http://www.w3.org/2000/svg"
 width="70.000000pt" height="81.000000pt" viewBox="0 0 70.000000 81.000000"
 preserveAspectRatio="xMidYMid meet">
<metadata>
Created by potrace 1.15, written by Peter Selinger 2001-2017
</metadata>
<g transform="translate(0.000000,81.000000) scale(0.100000,-0.100000)"
fill="#000000" stroke="none">
<path d="M190 592 c0 -32 -3 -62 -6 -65 -14 -14 -44 15 -44 42 0 32 -22 56
-45 47 -19 -7 -19 -37 -1 -80 10 -24 25 -38 55 -49 37 -15 41 -20 41 -52 0
-30 -3 -35 -23 -35 -27 0 -47 17 -47 42 0 18 -33 42 -44 31 -3 -3 -6 -19 -6
-35 0 -34 32 -68 64 -68 40 0 56 -11 56 -36 0 -21 -5 -24 -39 -24 -37 0 -40
-3 -52 -37 -14 -44 -6 -220 11 -237 7 -7 50 -11 111 -11 133 0 133 1 124 150
-4 61 -12 116 -17 123 -6 6 -28 12 -50 12 -35 0 -39 2 -36 23 2 18 11 23 45
28 52 7 73 24 73 59 0 35 -27 61 -41 39 -5 -8 -9 -20 -9 -27 0 -17 -50 -36
-62 -24 -5 5 -8 22 -6 38 3 25 9 30 46 37 48 9 65 36 60 91 -4 42 -30 40 -44
-2 -12 -39 -49 -69 -60 -50 -4 7 -8 37 -8 67 -1 50 -3 56 -23 59 -22 3 -23 0
-23 -56z m89 -335 c17 -22 3 -27 -71 -27 -61 0 -68 2 -68 20 0 18 7 20 64 20
41 0 68 -5 75 -13z m11 -76 c0 -13 -37 -21 -97 -21 -49 0 -63 7 -46 23 10 10
143 8 143 -2z m0 -81 c0 -23 -51 -36 -107 -27 -43 7 -45 9 -37 31 5 13 20 16
75 16 62 0 69 -2 69 -20z"/>
<path d="M442 600 c-45 -19 -59 -133 -21 -171 18 -18 30 -21 77 -17 66 6 78
19 88 94 9 78 -10 104 -74 103 -26 0 -57 -4 -70 -9z m96 -78 c5 -45 -13 -64
-57 -60 -39 3 -49 24 -36 75 5 21 10 24 48 21 40 -3 42 -5 45 -36z"/>
<path d="M442 343 c-12 -2 -26 -12 -31 -21 -4 -9 -11 -77 -14 -150 -7 -165 -6
-167 97 -157 101 10 132 30 85 56 -14 7 -43 9 -80 5 -59 -7 -59 -7 -59 32 0
51 16 69 69 75 54 7 67 20 76 74 6 37 3 46 -19 68 -25 25 -61 30 -124 18z m76
-45 c17 -17 15 -55 -4 -62 -9 -3 -27 -6 -40 -6 -21 0 -24 5 -24 34 0 28 4 35
23 39 12 2 24 5 28 6 3 0 10 -4 17 -11z"/>
</g>
</svg>
