<svg version="1.0" xmlns="http://www.w3.org/2000/svg"
 width="64.000000pt" height="95.000000pt" viewBox="0 0 64.000000 95.000000"
 preserveAspectRatio="xMidYMid meet">
<metadata>
Created by potrace 1.15, written by Peter Selinger 2001-2017
</metadata>
<g transform="translate(0.000000,95.000000) scale(0.100000,-0.100000)"
fill="#000000" stroke="none">
<path d="M270 788 c-73 -62 -80 -71 -80 -97 0 -14 11 -57 25 -96 21 -61 22
-72 9 -86 -22 -24 -17 -56 14 -84 37 -35 60 -40 83 -19 24 21 25 71 2 96 -15
17 -15 20 7 43 18 19 21 31 16 59 -4 20 -18 44 -31 55 -14 10 -25 26 -25 34 0
9 -5 19 -10 22 -12 7 -4 25 11 25 5 0 18 -14 28 -30 15 -26 20 -28 30 -16 9
11 10 20 2 35 -6 11 -11 31 -11 45 0 43 -30 49 -70 14z m-12 -124 c-10 -10
-28 6 -28 24 0 15 1 15 17 -1 9 -9 14 -19 11 -23z m46 -50 c7 -19 -10 -44 -31
-44 -17 0 -27 24 -19 45 7 20 42 19 50 -1z m-9 -131 c0 -30 -17 -40 -34 -19
-9 11 -8 17 4 30 23 23 31 20 30 -11z"/>
<path d="M420 731 c-5 -11 -10 -39 -10 -62 0 -23 -10 -61 -22 -85 -23 -47 -18
-72 8 -36 8 12 19 22 25 22 18 0 9 -22 -21 -50 -49 -46 -30 -72 23 -30 27 22
47 26 47 10 0 -5 -18 -29 -40 -52 -30 -30 -38 -44 -30 -52 8 -8 24 -4 58 15
38 21 50 34 61 68 12 37 11 44 -5 69 -37 54 -53 101 -47 137 9 53 -25 86 -47
46z"/>
<path d="M85 700 c-3 -6 -1 -26 5 -45 13 -38 6 -88 -16 -120 -32 -45 -7 -108
47 -120 50 -11 60 10 21 46 -32 30 -40 53 -23 63 4 3 19 -6 31 -19 13 -14 29
-25 37 -25 23 0 14 33 -19 67 -33 34 -32 56 2 35 33 -20 37 8 5 34 -16 13 -36
37 -44 55 -17 35 -35 47 -46 29z"/>
<path d="M335 379 c-6 -18 -23 -42 -38 -53 -36 -27 -61 -13 -65 38 -4 42 -15
46 -38 10 -14 -21 -15 -31 -6 -61 8 -28 8 -40 -3 -57 -7 -11 -16 -50 -20 -86
-4 -36 -11 -82 -17 -104 -12 -49 4 -72 30 -41 16 20 24 20 157 14 135 -6 189
1 168 22 -5 5 -38 14 -74 21 -64 11 -64 11 -32 22 42 14 42 29 1 37 -26 5 -22
7 24 8 31 0 60 6 64 13 12 19 -27 38 -80 39 -51 2 -51 2 -4 8 26 4 50 10 54
14 15 15 -17 30 -70 35 -31 2 -61 11 -67 18 -9 11 -8 14 3 14 8 0 27 13 42 29
24 25 27 33 19 58 -14 40 -37 40 -48 2z m-45 -119 c0 -5 -7 -10 -16 -10 -8 0
-12 5 -9 10 3 6 10 10 16 10 5 0 9 -4 9 -10z m2 -60 c-18 -4 -36 -11 -40 -14
-9 -10 19 -26 45 -26 12 0 24 -4 27 -9 3 -4 -11 -8 -32 -7 -43 1 -54 -27 -12
-32 36 -5 50 -22 18 -22 -14 0 -40 -3 -58 -7 -33 -6 -33 -6 -26 52 3 32 9 62
12 66 3 5 26 9 52 8 45 -1 46 -1 14 -9z"/>
<path d="M250 361 c0 -16 6 -21 26 -21 33 0 30 33 -4 38 -17 3 -22 -2 -22 -17z"/>
</g>
</svg>
