<svg version="1.0" xmlns="http://www.w3.org/2000/svg"
 width="67.000000pt" height="93.000000pt" viewBox="0 0 67.000000 93.000000"
 preserveAspectRatio="xMidYMid meet">
<metadata>
Created by potrace 1.15, written by Peter Selinger 2001-2017
</metadata>
<g transform="translate(0.000000,93.000000) scale(0.100000,-0.100000)"
fill="#000000" stroke="none">
<path d="M400 745 c-5 -14 -13 -38 -16 -53 -8 -31 -20 -42 -50 -42 -16 0 -24
10 -32 39 -13 42 -35 66 -52 56 -7 -4 -5 -14 5 -28 19 -28 19 -47 -1 -47 -21
0 -84 49 -84 66 0 18 -20 28 -32 16 -7 -7 -1 -25 16 -55 24 -41 39 -52 99 -71
9 -3 17 -14 17 -25 0 -25 -27 -33 -90 -29 -36 2 -45 0 -48 -14 -3 -16 5 -18
67 -18 71 0 71 0 71 -30 0 -26 -5 -30 -42 -41 -73 -19 -83 -36 -108 -179 -20
-119 -43 -178 -80 -207 -12 -9 -12 -14 -3 -24 42 -42 123 118 123 244 0 66 14
94 59 117 22 11 42 20 45 20 2 0 10 -16 16 -35 23 -70 85 -65 110 9 10 31 16
36 56 42 60 9 89 33 80 67 -9 38 -33 57 -71 57 -55 0 -58 40 -4 59 33 11 76
88 65 116 -6 17 -7 17 -26 0 -11 -10 -22 -26 -25 -36 -4 -11 -13 -19 -21 -19
-12 0 -12 4 -4 21 7 11 9 27 6 35 -9 23 -36 16 -46 -11z m-30 -150 c0 -21 -24
-29 -49 -15 -32 16 -25 30 14 30 25 0 35 -4 35 -15z m10 -64 c0 -28 -14 -41
-46 -41 -26 0 -34 4 -34 18 0 10 3 22 7 25 10 10 73 8 73 -2z m89 0 c19 -12 4
-31 -25 -31 -17 0 -24 5 -24 20 0 21 24 27 49 11z m-99 -90 c0 -5 -8 -19 -19
-32 -16 -20 -21 -21 -35 -10 -9 7 -16 22 -16 32 0 15 7 19 35 19 19 0 35 -4
35 -9z"/>
<path d="M414 408 c-4 -7 2 -18 14 -26 31 -21 28 -55 -14 -130 -42 -75 -42
-110 2 -167 29 -39 78 -70 94 -60 20 12 9 32 -35 65 -45 34 -64 68 -50 90 4 7
22 -4 48 -29 22 -23 49 -41 59 -41 27 0 22 15 -17 44 -43 33 -69 71 -60 86 5
8 16 4 34 -13 41 -38 79 -59 92 -51 8 5 -5 23 -40 55 -50 46 -51 49 -45 89 6
36 3 45 -22 71 -30 31 -48 36 -60 17z"/>
<path d="M217 384 c-3 -4 0 -22 8 -41 20 -49 18 -71 -10 -118 -34 -55 -33
-102 5 -153 17 -23 34 -42 39 -42 21 0 20 20 -2 47 -35 41 -48 69 -41 88 6 14
13 10 44 -20 51 -50 73 -36 25 16 -19 21 -35 46 -35 53 0 25 19 28 46 7 27
-21 54 -28 54 -13 0 4 -16 20 -35 35 -19 15 -35 34 -35 43 0 19 -40 104 -49
104 -4 0 -10 -3 -14 -6z"/>
</g>
</svg>
