<svg version="1.0" xmlns="http://www.w3.org/2000/svg"
 width="59.000000pt" height="121.000000pt" viewBox="0 0 59.000000 121.000000"
 preserveAspectRatio="xMidYMid meet">
<metadata>
Created by potrace 1.15, written by Peter Selinger 2001-2017
</metadata>
<g transform="translate(0.000000,121.000000) scale(0.100000,-0.100000)"
fill="#000000" stroke="none">
<path d="M345 1128 c-6 -12 -23 -29 -39 -38 -16 -9 -31 -21 -34 -28 -5 -15 30
-16 46 0 8 8 14 5 22 -17 6 -15 9 -29 8 -30 -16 -14 -97 -53 -102 -48 -3 3 -9
28 -12 54 -7 49 -28 80 -43 63 -17 -18 -61 -105 -61 -119 0 -24 14 -17 34 16
33 56 43 9 30 -146 -5 -64 -8 -73 -35 -90 -16 -11 -29 -26 -29 -32 0 -16 9
-16 40 2 33 19 37 19 43 -5 8 -33 26 -23 29 17 3 39 28 60 28 24 0 -21 -13
-84 -33 -156 -13 -47 -50 -105 -104 -160 -39 -40 -39 -40 -16 -88 31 -64 52
-125 68 -204 14 -65 37 -113 55 -113 13 0 13 37 0 45 -10 6 -14 55 -5 55 3 0
15 -9 26 -19 27 -25 59 -33 59 -15 0 8 -4 14 -8 14 -5 0 -34 25 -64 55 -41 41
-59 68 -68 103 -7 26 -17 51 -21 57 -5 5 -9 17 -9 26 0 10 -5 19 -10 21 -13 4
171 198 187 198 9 0 12 -22 10 -77 -1 -59 3 -87 17 -115 19 -40 70 -98 86 -98
16 0 12 19 -10 42 -20 22 -60 100 -60 118 0 21 16 8 42 -33 30 -48 65 -83 74
-75 8 9 -71 166 -91 180 -5 4 -9 37 -8 73 2 75 -5 80 -57 35 -43 -37 -52 -38
-44 -2 6 28 20 97 29 144 3 17 22 39 54 61 70 51 80 114 27 186 -20 26 -22 38
-16 74 11 58 -14 91 -35 45z m45 -196 c0 -29 -6 -44 -26 -61 -34 -30 -51 -21
-56 28 -4 48 13 71 54 71 26 0 28 -3 28 -38z m-110 -61 c0 -38 -14 -61 -37
-61 -21 0 -17 87 4 99 25 14 33 5 33 -38z"/>
</g>
</svg>
