<svg version="1.0" xmlns="http://www.w3.org/2000/svg"
 width="83.000000pt" height="167.000000pt" viewBox="0 0 83.000000 167.000000"
 preserveAspectRatio="xMidYMid meet">
<metadata>
Created by potrace 1.15, written by Peter Selinger 2001-2017
</metadata>
<g transform="translate(0.000000,167.000000) scale(0.100000,-0.100000)"
fill="#000000" stroke="none">
<path d="M630 1612 c0 -4 -14 -24 -31 -45 -30 -37 -30 -37 -80 3 -28 22 -55
40 -61 40 -17 0 1 -51 36 -106 28 -41 32 -54 23 -70 -6 -10 -11 -80 -11 -161
-1 -79 -3 -143 -6 -143 -13 0 -70 41 -70 50 0 17 -25 11 -44 -12 -19 -21 -19
-21 -37 3 -15 21 -17 37 -12 124 5 83 3 98 -8 88 -7 -7 -18 -27 -23 -45 -15
-43 -28 -44 -50 -7 -14 24 -19 53 -20 113 -1 83 -16 112 -28 54 -3 -18 -11
-34 -17 -36 -5 -2 -7 -10 -4 -18 3 -8 1 -14 -5 -14 -5 0 -15 15 -22 33 -32 82
-35 87 -57 87 -34 0 -37 -16 -11 -88 22 -64 38 -89 101 -155 16 -16 40 -53 54
-83 14 -30 29 -57 34 -60 14 -8 11 -62 -5 -93 -8 -15 -26 -36 -40 -46 -34 -26
-70 -116 -61 -152 9 -40 54 -83 85 -83 27 0 27 0 23 -158 -2 -86 -9 -197 -15
-247 -18 -142 -21 -256 -8 -298 6 -22 14 -36 18 -32 4 3 7 43 8 88 2 128 1
123 22 104 10 -10 24 -17 30 -17 20 0 14 31 -20 106 -12 26 4 184 19 184 3 0
22 -14 43 -30 26 -20 41 -27 45 -19 8 12 -11 54 -37 83 -35 39 -46 79 -42 150
2 37 7 73 10 78 4 6 23 8 43 5 20 -3 56 -2 80 3 52 9 71 4 71 -20 0 -9 8 -32
18 -51 15 -29 17 -58 14 -204 -8 -414 -8 -440 7 -440 10 0 15 20 18 75 3 41 6
76 8 78 2 2 12 -1 23 -7 24 -13 122 -15 122 -3 0 4 -12 13 -27 19 -16 7 -35
16 -43 21 -8 5 -24 14 -35 19 -14 8 -19 19 -17 39 11 118 18 163 25 170 4 4
23 0 42 -9 20 -9 38 -17 40 -17 14 0 1 27 -27 60 -65 74 -68 79 -68 130 0 27
-5 62 -11 77 -22 55 -34 78 -43 85 -15 10 12 36 45 43 16 4 43 18 60 32 29 24
30 29 24 72 -10 68 -31 96 -95 125 -57 27 -57 27 -64 84 -4 31 -8 64 -8 72 -2
36 15 205 21 210 6 5 27 47 44 90 5 14 13 33 18 42 12 23 11 38 -1 38 -5 0
-10 -3 -10 -8z m-133 -556 c3 -3 6 -141 4 -171 -1 -13 -79 -35 -121 -35 -30 0
-30 0 -30 74 0 41 -3 81 -6 89 -3 8 5 24 17 36 19 17 31 20 77 16 30 -3 57 -7
59 -9z m103 -36 c0 -5 3 -9 8 -9 31 5 42 -3 42 -30 0 -29 -21 -56 -34 -43 -4
4 -6 0 -4 -8 2 -9 -6 -16 -18 -18 -18 -3 -22 3 -26 34 -6 51 1 84 18 84 8 0
14 -4 14 -10z m-314 -156 c-6 -15 -36 -8 -48 10 -15 22 -7 60 20 95 27 36 27
36 30 -28 2 -35 1 -70 -2 -77z"/>
</g>
</svg>
