<svg version="1.0" xmlns="http://www.w3.org/2000/svg"
 width="49.000000pt" height="87.000000pt" viewBox="0 0 49.000000 87.000000"
 preserveAspectRatio="xMidYMid meet">
<metadata>
Created by potrace 1.15, written by Peter Selinger 2001-2017
</metadata>
<g transform="translate(0.000000,87.000000) scale(0.100000,-0.100000)"
fill="#000000" stroke="none">
<path d="M276 770 c-3 -8 -6 -48 -8 -87 -3 -55 0 -73 9 -73 7 0 13 -4 13 -10
0 -15 -36 -12 -50 5 -8 9 -11 32 -8 59 5 45 -6 81 -23 71 -5 -4 -9 -15 -9 -26
0 -25 -27 -25 -35 1 -3 11 -10 20 -15 20 -11 0 -1 -38 22 -78 10 -18 18 -39
18 -47 0 -8 5 -15 10 -15 15 0 12 -22 -6 -59 -11 -21 -14 -44 -10 -67 8 -38
16 -41 52 -18 27 18 48 10 24 -9 -8 -7 -32 -38 -52 -69 -33 -50 -38 -65 -38
-117 0 -33 5 -63 10 -66 6 -3 10 -18 10 -32 0 -27 38 -103 52 -103 4 0 8 9 8
20 0 11 5 20 10 20 6 0 10 -4 10 -10 0 -5 7 -10 15 -10 24 0 18 15 -20 54 -26
28 -35 45 -35 71 0 20 5 35 12 35 6 0 19 7 29 16 16 14 19 11 40 -35 22 -50
39 -65 39 -36 0 8 9 15 20 15 29 0 25 13 -9 28 -33 14 -47 52 -31 82 6 11 6
21 1 24 -13 8 -61 -11 -61 -25 0 -11 -39 -48 -52 -49 -5 0 -8 11 -8 25 0 24
24 75 61 127 11 14 19 31 19 37 0 6 5 11 10 11 6 0 10 11 10 25 0 15 7 28 17
32 48 19 81 80 62 116 -9 16 -17 18 -47 12 -37 -7 -37 -7 -15 17 29 31 41 78
20 78 -8 0 -18 -7 -21 -16 -8 -21 -26 -8 -26 19 0 12 -4 29 -10 37 -8 13 -10
13 -14 0z m74 -176 c0 -8 -5 -12 -10 -9 -6 4 -8 11 -5 16 9 14 15 11 15 -7z
m-40 -34 c0 -5 -5 -10 -11 -10 -5 0 -7 5 -4 10 3 6 8 10 11 10 2 0 4 -4 4 -10z
m-50 -40 c0 -12 -35 -31 -44 -23 -11 11 -6 21 12 26 29 8 32 7 32 -3z"/>
</g>
</svg>
