<svg version="1.0" xmlns="http://www.w3.org/2000/svg"
 width="79.000000pt" height="96.000000pt" viewBox="0 0 79.000000 96.000000"
 preserveAspectRatio="xMidYMid meet">
<metadata>
Created by potrace 1.15, written by Peter Selinger 2001-2017
</metadata>
<g transform="translate(0.000000,96.000000) scale(0.100000,-0.100000)"
fill="#000000" stroke="none">
<path d="M432 632 c-33 -29 -45 -48 -54 -88 -12 -51 -12 -51 -38 -14 -35 53
-85 92 -112 88 -38 -5 -31 -25 26 -68 61 -46 71 -70 30 -70 -33 0 -64 -17 -64
-35 0 -12 15 -15 71 -15 38 0 68 -4 65 -9 -3 -5 -30 -21 -61 -36 -76 -37 -145
-121 -145 -176 0 -21 3 -39 8 -39 4 0 22 16 41 35 19 19 37 33 39 30 3 -2 11
-39 18 -82 12 -69 18 -82 50 -110 29 -26 45 -33 78 -32 97 1 158 55 171 154 4
28 12 58 17 68 5 10 8 23 6 29 -7 20 -48 -35 -62 -83 -8 -26 -20 -57 -26 -69
-16 -30 -70 -50 -113 -43 -30 5 -38 11 -48 40 -6 19 -9 36 -6 39 2 2 43 9 91
16 76 9 86 13 86 31 0 19 -4 20 -78 14 -43 -3 -85 -9 -93 -12 -10 -4 -20 6
-32 30 -11 23 -24 35 -37 35 -19 0 -19 0 -1 31 16 27 79 79 95 79 4 0 6 -9 6
-19 0 -11 5 -42 12 -70 22 -95 52 -50 48 72 -1 34 -2 67 -1 74 1 6 28 14 65
18 69 8 92 17 82 34 -4 6 -38 11 -82 11 -73 0 -75 1 -69 23 16 52 42 93 75
115 45 30 49 42 13 42 -18 0 -43 -13 -71 -38z"/>
<path d="M560 609 c-14 -11 -42 -29 -62 -40 -45 -23 -49 -39 -9 -39 33 0 114
56 119 83 5 23 -17 21 -48 -4z"/>
<path d="M440 391 c0 -5 17 -15 38 -22 39 -13 103 -50 139 -82 11 -10 32 -17
45 -15 22 3 21 5 -22 52 -25 27 -59 55 -77 62 -37 16 -123 19 -123 5z"/>
</g>
</svg>
