<svg version="1.0" xmlns="http://www.w3.org/2000/svg"
 width="51.000000pt" height="95.000000pt" viewBox="0 0 51.000000 95.000000"
 preserveAspectRatio="xMidYMid meet">
<metadata>
Created by potrace 1.15, written by Peter Selinger 2001-2017
</metadata>
<g transform="translate(0.000000,95.000000) scale(0.100000,-0.100000)"
fill="#000000" stroke="none">
<path d="M236 791 c-3 -4 -1 -22 3 -39 11 -37 7 -42 -35 -42 -26 0 -33 4 -36
25 -3 14 -1 28 3 31 21 13 6 24 -33 24 -59 0 -77 -13 -48 -33 17 -11 21 -22
17 -39 -4 -13 0 -36 8 -52 8 -16 15 -38 15 -51 0 -35 42 -88 78 -99 49 -14 43
-42 -10 -52 -60 -11 -61 -11 -84 -12 -11 -1 -29 -8 -39 -16 -16 -12 -17 -16
-6 -30 7 -9 22 -16 32 -16 15 0 19 -8 19 -40 0 -42 -26 -80 -55 -80 -8 0 -15
-4 -15 -9 0 -13 25 -20 49 -14 17 4 21 1 22 -21 2 -45 4 -49 17 -53 8 -3 12 8
12 35 0 40 0 40 72 44 51 2 76 -1 85 -11 15 -14 7 -30 -18 -35 -97 -22 -100
-26 -86 -118 14 -92 26 -90 42 5 3 20 9 37 13 38 4 0 14 2 22 4 8 2 28 6 44 9
16 3 33 11 38 18 11 18 10 86 -1 93 -6 3 8 22 29 43 37 35 39 40 42 107 3 70
3 70 -74 67 -47 -2 -78 1 -78 7 0 12 28 41 41 41 39 0 109 126 109 196 0 18 8
38 20 49 25 22 12 35 -37 35 -32 0 -57 -20 -35 -28 18 -6 15 -49 -4 -56 -30
-11 -72 -6 -78 10 -3 8 -1 25 5 36 8 16 8 23 -2 29 -18 11 -56 11 -63 0z m153
-127 c9 -8 -21 -32 -46 -37 -49 -9 -74 20 -35 42 15 9 69 6 81 -5z m-139 -19
c0 -22 -4 -25 -40 -25 -36 0 -40 3 -40 25 0 23 4 25 40 25 36 0 40 -2 40 -25z
m65 -75 c-3 -5 -11 -10 -16 -10 -6 0 -7 5 -4 10 3 6 11 10 16 10 6 0 7 -4 4
-10z m-65 -10 c0 -5 -6 -10 -14 -10 -8 0 -18 5 -21 10 -3 6 3 10 14 10 12 0
21 -4 21 -10z m131 -157 c13 -35 11 -48 -8 -71 -44 -50 -78 -30 -89 52 -6 41
-5 45 17 48 43 6 70 -4 80 -29z m-135 -36 c6 -23 14 -50 19 -59 6 -16 1 -18
-43 -18 -53 0 -74 14 -67 46 2 10 6 31 9 46 5 20 13 28 34 30 35 4 34 5 48
-45z"/>
<path d="M322 391 c-15 -9 -5 -41 13 -41 7 0 18 6 24 14 10 12 8 17 -6 25 -11
5 -25 6 -31 2z"/>
<path d="M191 376 c-18 -22 4 -62 25 -45 18 15 18 33 0 48 -10 9 -16 8 -25 -3z"/>
</g>
</svg>
