<svg version="1.0" xmlns="http://www.w3.org/2000/svg"
 width="62.000000pt" height="75.000000pt" viewBox="0 0 62.000000 75.000000"
 preserveAspectRatio="xMidYMid meet">
<metadata>
Created by potrace 1.15, written by Peter Selinger 2001-2017
</metadata>
<g transform="translate(0.000000,75.000000) scale(0.100000,-0.100000)"
fill="#000000" stroke="none">
<path d="M320 600 c-41 -4 -110 -8 -152 -9 -56 -1 -81 -5 -93 -17 -32 -32 -13
-39 93 -35 102 3 102 3 102 -42 0 -45 0 -45 -119 -52 -86 -5 -121 -11 -125
-21 -9 -24 17 -29 132 -25 112 3 112 3 112 -57 0 -57 1 -60 30 -72 17 -7 53
-14 80 -15 68 -3 80 -16 80 -81 0 -44 -4 -55 -21 -64 -29 -16 -260 -33 -301
-22 -33 8 -33 9 -36 75 -3 64 -2 68 23 77 15 6 44 10 66 10 27 0 42 5 46 16
11 28 -12 37 -78 29 -93 -11 -109 -31 -109 -135 0 -111 5 -115 148 -123 122
-7 150 -5 230 21 72 22 84 38 90 121 4 63 3 71 -20 94 -17 17 -40 26 -80 30
-93 11 -108 20 -108 66 0 39 0 39 98 46 124 8 152 13 152 30 0 21 -18 23 -131
18 -106 -6 -106 -6 -113 32 -4 20 -5 39 -3 42 3 2 38 6 78 9 113 8 139 13 139
30 0 32 -55 38 -210 24z"/>
</g>
</svg>
