<svg version="1.0" xmlns="http://www.w3.org/2000/svg"
 width="33.000000pt" height="59.000000pt" viewBox="0 0 33.000000 59.000000"
 preserveAspectRatio="xMidYMid meet">
<metadata>
Created by potrace 1.15, written by Peter Selinger 2001-2017
</metadata>
<g transform="translate(0.000000,59.000000) scale(0.100000,-0.100000)"
fill="#000000" stroke="none">
<path d="M92 420 c-18 -4 -35 -10 -38 -13 -9 -9 53 -37 81 -37 23 0 26 -4 23
-27 -3 -25 -8 -29 -46 -34 -49 -6 -67 -20 -58 -44 5 -14 15 -16 55 -10 49 7
49 7 56 -72 13 -158 45 -164 45 -8 0 110 2 115 56 115 13 0 24 4 24 8 0 10
-45 32 -65 32 -10 0 -15 10 -15 30 0 27 3 30 30 30 37 0 39 13 5 28 -29 13
-102 14 -153 2z"/>
</g>
</svg>
