<svg version="1.0" xmlns="http://www.w3.org/2000/svg"
 width="91.000000pt" height="161.000000pt" viewBox="0 0 91.000000 161.000000"
 preserveAspectRatio="xMidYMid meet">
<metadata>
Created by potrace 1.15, written by Peter Selinger 2001-2017
</metadata>
<g transform="translate(0.000000,161.000000) scale(0.100000,-0.100000)"
fill="#000000" stroke="none">
<path d="M80 1475 c-7 -9 -11 -17 -9 -19 20 -17 94 -26 205 -26 134 0 134 0
134 -24 0 -13 3 -32 6 -41 6 -15 -8 -16 -153 -14 -160 2 -183 -1 -183 -25 0
-18 78 -28 210 -27 58 0 113 -2 123 -5 15 -5 17 -19 17 -104 0 -94 11 -182 30
-225 4 -11 13 -47 20 -80 7 -33 16 -76 21 -95 14 -55 10 -268 -5 -343 -16 -74
-51 -149 -99 -212 -49 -64 -130 -136 -159 -142 -16 -3 -28 -9 -28 -13 0 -4 -9
-10 -20 -13 -21 -5 -29 -47 -9 -47 32 0 142 62 173 98 6 7 20 23 31 35 41 46
82 103 106 147 13 25 27 47 32 48 4 2 7 14 7 27 0 13 4 26 9 29 25 16 38 280
17 371 -2 11 -7 45 -11 75 -3 30 -12 75 -20 100 -27 90 -36 147 -42 246 -6
102 -6 102 128 108 152 8 198 13 219 26 32 20 -10 25 -175 22 -173 -3 -173 -3
-177 35 -3 21 -3 40 -1 43 6 7 159 18 260 19 80 1 111 13 82 32 -8 5 -174 9
-370 9 -307 0 -358 -2 -369 -15z"/>
</g>
</svg>
