<svg version="1.0" xmlns="http://www.w3.org/2000/svg"
 width="61.000000pt" height="67.000000pt" viewBox="0 0 61.000000 67.000000"
 preserveAspectRatio="xMidYMid meet">
<metadata>
Created by potrace 1.15, written by Peter Selinger 2001-2017
</metadata>
<g transform="translate(0.000000,67.000000) scale(0.100000,-0.100000)"
fill="#000000" stroke="none">
<path d="M415 570 c-16 -5 -66 -18 -110 -30 -228 -61 -239 -66 -215 -95 16
-19 58 -19 101 -1 19 7 49 17 67 21 32 7 32 7 32 -34 0 -44 0 -44 -81 -70 -19
-6 -43 -11 -52 -11 -29 0 -67 -23 -67 -40 0 -22 42 -31 84 -18 82 26 96 27 96
8 0 -28 -92 -123 -145 -150 -25 -13 -62 -38 -82 -55 -37 -32 -37 -32 -6 -47
29 -15 34 -14 92 14 34 16 61 33 61 39 0 5 8 9 18 9 10 0 26 13 35 30 10 16
23 30 29 30 18 0 55 50 68 94 22 75 28 81 83 94 29 7 62 12 74 12 31 0 73 21
73 36 0 26 -81 30 -172 8 -27 -6 -28 -5 -28 39 0 42 2 45 31 51 17 3 46 6 63
6 17 0 39 7 49 14 49 38 -15 68 -98 46z"/>
</g>
</svg>
