<svg version="1.0" xmlns="http://www.w3.org/2000/svg"
 width="43.000000pt" height="61.000000pt" viewBox="0 0 43.000000 61.000000"
 preserveAspectRatio="xMidYMid meet">
<metadata>
Created by potrace 1.15, written by Peter Selinger 2001-2017
</metadata>
<g transform="translate(0.000000,61.000000) scale(0.100000,-0.100000)"
fill="#000000" stroke="none">
<path d="M143 443 c-19 -7 -16 -30 5 -38 9 -5 32 -9 51 -11 18 -2 35 -5 37 -7
3 -2 5 -28 7 -58 2 -54 2 -54 -31 -51 -18 1 -42 -3 -53 -9 -33 -17 -5 -39 52
-39 53 0 50 4 64 -85 9 -58 15 -75 27 -75 7 0 9 25 5 78 -7 85 0 102 39 102
12 0 29 3 38 6 28 11 6 24 -38 24 -37 0 -45 4 -50 23 -8 31 -7 87 2 88 4 1 22
2 40 4 53 4 61 22 16 33 -44 11 -193 22 -211 15z"/>
</g>
</svg>
