<svg version="1.0" xmlns="http://www.w3.org/2000/svg"
 width="71.000000pt" height="99.000000pt" viewBox="0 0 71.000000 99.000000"
 preserveAspectRatio="xMidYMid meet">
<metadata>
Created by potrace 1.15, written by Peter Selinger 2001-2017
</metadata>
<g transform="translate(0.000000,99.000000) scale(0.100000,-0.100000)"
fill="#000000" stroke="none">
<path d="M349 846 c-3 -4 -42 -7 -87 -8 -92 -1 -113 -8 -93 -32 11 -13 34 -16
108 -16 96 0 96 0 89 -32 -4 -18 -10 -53 -13 -78 -3 -25 -10 -51 -15 -57 -7
-9 -7 -13 1 -13 6 0 11 -5 11 -11 0 -7 -45 -10 -135 -8 -75 1 -139 -1 -143 -5
-25 -25 94 -52 182 -41 28 4 62 2 76 -3 24 -9 24 -12 22 -83 -6 -133 41 -409
70 -409 8 0 9 22 4 73 -20 210 -27 400 -15 412 4 4 95 11 187 14 12 1 22 5 22
10 0 17 -63 31 -139 31 -76 0 -76 0 -73 77 4 117 5 120 54 127 104 16 85 49
-30 54 -42 2 -80 1 -83 -2z"/>
</g>
</svg>
