<svg version="1.0" xmlns="http://www.w3.org/2000/svg"
 width="70.000000pt" height="86.000000pt" viewBox="0 0 70.000000 86.000000"
 preserveAspectRatio="xMidYMid meet">
<metadata>
Created by potrace 1.15, written by Peter Selinger 2001-2017
</metadata>
<g transform="translate(0.000000,86.000000) scale(0.100000,-0.100000)"
fill="#000000" stroke="none">
<path d="M322 728 c-9 -34 -16 -40 -81 -59 -57 -17 -97 -51 -110 -92 -5 -18
-12 -70 -16 -117 -18 -249 -22 -272 -56 -347 -33 -73 -33 -73 -16 -73 20 0 82
135 100 215 8 39 18 124 21 190 8 143 14 153 120 185 82 26 157 23 209 -7 53
-31 54 -33 72 -338 5 -88 59 -245 85 -245 21 0 19 23 -4 75 -36 77 -47 163
-41 312 6 153 -3 180 -79 231 -38 25 -59 32 -96 32 -46 0 -49 1 -60 35 -14 44
-37 45 -48 3z"/>
<path d="M397 549 c-21 -17 -44 -44 -52 -60 -12 -22 -22 -29 -46 -29 -16 0
-31 6 -33 13 -2 6 -8 30 -12 52 -6 25 -15 41 -26 43 -14 3 -16 -3 -11 -35 12
-89 17 -97 59 -109 36 -10 39 -14 45 -55 4 -24 10 -54 14 -67 7 -20 -5 -35
-81 -107 -49 -48 -81 -85 -72 -85 18 0 118 72 165 118 17 18 34 32 37 32 2 0
14 -14 26 -30 19 -26 20 -35 10 -65 -7 -20 -31 -51 -61 -76 -49 -41 -60 -59
-36 -59 24 0 125 99 137 134 13 42 -3 88 -45 126 -64 59 -69 120 -10 120 38 0
72 -35 82 -82 8 -40 23 -45 23 -8 0 54 -27 97 -76 121 -38 18 -44 25 -38 43 7
23 32 56 52 69 6 4 12 12 12 17 0 19 -26 10 -63 -21z"/>
</g>
</svg>
