<svg version="1.0" xmlns="http://www.w3.org/2000/svg"
 width="109.000000pt" height="160.000000pt" viewBox="0 0 109.000000 160.000000"
 preserveAspectRatio="xMidYMid meet">
<metadata>
Created by potrace 1.15, written by Peter Selinger 2001-2017
</metadata>
<g transform="translate(0.000000,160.000000) scale(0.100000,-0.100000)"
fill="#000000" stroke="none">
<path d="M685 1420 c-8 -16 -15 -44 -15 -62 0 -32 -2 -34 -62 -52 -34 -10 -89
-22 -123 -27 -33 -4 -73 -11 -88 -14 -35 -7 -67 2 -67 19 0 7 -6 20 -13 30
-17 23 -47 11 -47 -19 0 -13 -8 -43 -19 -67 -10 -24 -22 -62 -26 -85 -3 -23
-13 -49 -20 -60 -8 -10 -15 -26 -15 -35 0 -9 -13 -43 -30 -75 -33 -64 -38
-101 -14 -110 18 -7 64 33 64 56 0 9 9 27 20 41 11 14 20 35 20 47 0 24 12 29
90 36 25 3 88 12 140 21 273 47 269 47 317 1 48 -46 105 -75 132 -68 12 3 21
8 21 10 0 9 -62 63 -72 63 -5 0 -36 27 -68 60 -64 66 -88 128 -76 201 8 52 -3
119 -20 119 -7 0 -20 -13 -29 -30z m-34 -172 c31 -9 39 -16 39 -34 0 -13 5
-26 10 -29 6 -3 10 -9 10 -13 0 -12 -79 -31 -150 -36 -73 -6 -170 -21 -215
-34 -16 -5 -36 -7 -42 -5 -15 5 -17 39 -3 48 6 3 10 17 10 30 0 32 27 45 94
45 52 0 118 11 176 30 14 4 27 8 29 9 2 1 21 -4 42 -11z"/>
<path d="M646 951 c-3 -4 -43 -9 -88 -10 -121 -2 -238 -20 -245 -38 -10 -26
19 -34 98 -27 76 6 76 6 87 -23 7 -15 13 -39 14 -53 3 -21 -2 -26 -37 -33
-102 -22 -196 -48 -210 -58 -6 -4 -12 -58 -13 -122 -1 -92 1 -116 12 -120 24
-9 39 20 43 85 6 108 26 126 172 159 62 13 71 7 71 -52 0 -38 -34 -100 -93
-165 -19 -21 -61 -68 -92 -104 -32 -36 -62 -64 -68 -62 -5 2 -7 -4 -4 -12 4
-9 2 -18 -3 -21 -13 -8 -13 -25 1 -25 35 0 237 187 265 246 25 52 49 61 71 27
46 -69 55 -151 24 -211 -21 -40 -126 -152 -142 -152 -11 0 -23 -9 -71 -53 -17
-15 -35 -27 -39 -27 -5 0 -9 -4 -9 -10 0 -21 97 -5 120 20 3 3 18 12 35 20 16
8 46 32 67 53 21 20 42 37 47 37 21 0 52 63 68 138 16 76 16 82 -1 124 -10 23
-22 50 -27 58 -69 121 -95 177 -86 187 3 3 31 11 61 18 60 14 76 7 76 -31 0
-11 4 -34 9 -50 5 -16 20 -63 32 -104 23 -74 38 -100 58 -100 15 0 23 36 13
57 -20 39 -51 151 -56 202 -8 75 -29 105 -69 97 -144 -25 -136 -25 -151 8 -33
73 -31 76 40 77 91 2 104 7 104 40 0 16 -7 19 -39 19 -22 0 -42 -4 -45 -9z"/>
</g>
</svg>
