<svg version="1.0" xmlns="http://www.w3.org/2000/svg"
 width="65.000000pt" height="89.000000pt" viewBox="0 0 65.000000 89.000000"
 preserveAspectRatio="xMidYMid meet">
<metadata>
Created by potrace 1.15, written by Peter Selinger 2001-2017
</metadata>
<g transform="translate(0.000000,89.000000) scale(0.100000,-0.100000)"
fill="#000000" stroke="none">
<path d="M131 661 c-8 -5 -11 -16 -8 -25 6 -14 30 -16 182 -16 152 0 176 2
182 16 3 9 0 20 -8 25 -18 11 -330 11 -348 0z"/>
<path d="M270 573 c-109 -2 -199 -8 -204 -13 -16 -16 12 -35 52 -35 33 0 38
-3 48 -35 11 -32 16 -36 60 -42 27 -3 90 -7 140 -7 85 -1 114 -10 114 -34 0
-6 -66 -7 -173 -3 -160 7 -174 6 -188 -11 -18 -20 -45 -268 -34 -303 8 -24 40
-27 49 -4 3 9 6 68 6 133 0 78 4 121 12 129 7 7 39 12 76 12 60 0 63 -1 60
-22 -2 -19 -10 -24 -43 -26 -60 -4 -70 -9 -55 -27 7 -9 29 -15 51 -15 32 0 39
-4 39 -19 0 -11 5 -23 10 -26 18 -11 11 -37 -25 -85 -36 -49 -46 -90 -21 -90
18 0 49 43 67 93 16 45 33 62 54 53 21 -8 19 -39 -6 -93 -11 -25 -18 -52 -14
-60 5 -14 9 -12 30 7 27 26 65 100 65 129 0 27 -37 51 -78 51 -26 0 -33 4 -30
18 3 14 15 17 80 17 76 0 76 0 81 -36 2 -19 2 -68 -1 -107 -4 -69 -4 -72 17
-72 14 0 25 9 31 26 23 58 2 365 -26 394 -10 11 -46 15 -149 16 -137 3 -159 7
-152 27 2 8 48 11 154 8 152 -3 193 4 193 33 0 18 -24 27 -63 24 -18 -2 -120
-4 -227 -5z m198 -219 c14 -4 22 -14 22 -28 0 -20 -3 -21 -77 -16 -71 5 -78 7
-81 28 -3 21 0 22 55 22 32 0 68 -3 81 -6z"/>
</g>
</svg>
