<svg version="1.0" xmlns="http://www.w3.org/2000/svg"
 width="75.000000pt" height="95.000000pt" viewBox="0 0 75.000000 95.000000"
 preserveAspectRatio="xMidYMid meet">
<metadata>
Created by potrace 1.15, written by Peter Selinger 2001-2017
</metadata>
<g transform="translate(0.000000,95.000000) scale(0.100000,-0.100000)"
fill="#000000" stroke="none">
<path d="M255 767 c-63 -46 -88 -74 -110 -123 -22 -49 -22 -53 -9 -150 8 -54
21 -119 29 -144 22 -64 31 -150 16 -150 -18 0 -71 124 -82 188 -9 61 -20 78
-43 69 -14 -5 -15 -18 -9 -79 7 -84 30 -142 73 -188 17 -18 30 -36 30 -41 0
-4 -16 -20 -35 -35 -38 -29 -45 -66 -13 -72 23 -4 135 108 144 144 4 17 -4 71
-21 143 -15 64 -29 143 -32 176 -5 67 10 126 29 107 7 -7 28 -9 54 -5 56 7 67
-13 31 -56 -55 -66 -66 -133 -38 -236 6 -22 11 -65 11 -96 0 -74 20 -99 82
-106 68 -8 88 16 88 102 0 51 6 77 25 113 43 81 33 163 -32 249 -24 33 -24 33
1 44 19 9 32 9 56 -1 48 -20 58 0 21 43 -33 36 -79 63 -128 73 -23 5 -37 -1
-72 -30 -24 -20 -48 -36 -54 -36 -6 0 -19 -7 -29 -17 -10 -9 -18 -11 -18 -5 0
6 25 36 55 65 30 29 55 59 55 65 0 19 -42 12 -75 -11z m154 -91 c17 -20 -14
-49 -43 -40 -32 10 -33 14 -7 35 28 23 35 23 50 5z m-19 -126 c19 -10 43 -67
34 -81 -3 -5 -27 -9 -55 -9 -57 0 -63 14 -26 67 25 37 22 36 47 23z m45 -156
c15 -15 15 -18 0 -34 -21 -23 -79 -34 -104 -20 -22 11 -36 44 -26 60 10 17
111 12 130 -6z m-35 -159 c0 -35 -24 -69 -44 -62 -15 5 -20 88 -6 97 26 16 50
-1 50 -35z"/>
<path d="M500 772 c0 -4 16 -23 35 -42 45 -44 59 -88 51 -162 -5 -54 -17 -86
-70 -183 -24 -45 -20 -131 10 -224 25 -78 46 -103 74 -86 15 9 12 28 -10 80
-20 48 -20 48 12 80 54 52 101 150 102 213 1 42 -3 57 -17 66 -21 13 -37 -5
-37 -45 0 -28 -41 -139 -65 -176 -9 -13 -21 -21 -26 -17 -19 11 0 90 41 172
74 151 74 197 -1 285 -31 36 -47 47 -70 47 -16 0 -29 -4 -29 -8z"/>
</g>
</svg>
