<svg version="1.0" xmlns="http://www.w3.org/2000/svg"
 width="75.000000pt" height="84.000000pt" viewBox="0 0 75.000000 84.000000"
 preserveAspectRatio="xMidYMid meet">
<metadata>
Created by potrace 1.15, written by Peter Selinger 2001-2017
</metadata>
<g transform="translate(0.000000,84.000000) scale(0.100000,-0.100000)"
fill="#000000" stroke="none">
<path d="M308 699 c-19 -11 -25 -49 -8 -49 19 0 10 -43 -15 -76 -57 -74 -69
-182 -26 -228 17 -18 20 -28 12 -52 -5 -16 -12 -58 -15 -93 -5 -57 -4 -67 16
-88 44 -47 139 -21 157 45 14 50 14 65 -5 112 -9 22 -13 47 -10 57 6 14 8 14
20 -3 14 -18 17 -17 76 24 34 23 66 40 71 36 18 -11 9 -44 -24 -87 -38 -50
-62 -124 -53 -162 8 -31 54 -85 73 -85 22 0 26 28 8 56 -26 41 -15 103 27 156
73 89 74 112 13 204 -47 69 -56 114 -34 155 15 29 2 61 -24 57 -46 -6 -71
-119 -43 -193 17 -44 17 -44 -25 -82 -23 -21 -44 -39 -48 -40 -3 -2 -6 27 -6
65 0 56 -5 76 -31 122 -17 30 -34 72 -37 93 -10 61 -31 78 -69 56z m56 -181
c26 -37 20 -48 -24 -48 -45 0 -46 0 -25 40 19 36 29 37 49 8z m26 -104 c0 -26
-20 -54 -39 -54 -29 0 -65 34 -58 53 9 24 97 24 97 1z m-20 -123 c14 -28 13
-104 -3 -125 -7 -10 -22 -16 -33 -14 -16 3 -19 12 -18 59 2 82 30 124 54 80z"/>
<path d="M110 655 c-9 -11 -8 -20 9 -44 32 -44 28 -102 -8 -138 -41 -41 -74
-109 -65 -136 4 -12 27 -46 50 -75 53 -65 56 -96 14 -137 -36 -34 -40 -65 -9
-65 30 0 87 63 95 105 8 46 -1 78 -36 127 -43 58 -38 125 5 78 21 -24 55 -26
55 -5 0 9 -10 29 -22 45 -21 29 -21 30 -3 89 19 65 14 94 -27 146 -22 28 -40
32 -58 10z"/>
</g>
</svg>
