<svg version="1.0" xmlns="http://www.w3.org/2000/svg"
 width="70.000000pt" height="83.000000pt" viewBox="0 0 70.000000 83.000000"
 preserveAspectRatio="xMidYMid meet">
<metadata>
Created by potrace 1.15, written by Peter Selinger 2001-2017
</metadata>
<g transform="translate(0.000000,83.000000) scale(0.100000,-0.100000)"
fill="#000000" stroke="none">
<path d="M281 648 c-28 -24 -64 -53 -81 -66 -31 -24 -38 -46 -19 -57 6 -4 48
19 94 50 76 52 86 57 103 44 11 -8 38 -29 62 -46 43 -33 83 -42 96 -22 3 6 -2
19 -12 29 -37 34 -157 110 -175 110 -10 0 -41 -19 -68 -42z"/>
<path d="M304 569 c-11 -18 12 -31 52 -27 27 2 40 8 42 21 3 14 -4 17 -42 17
-25 0 -48 -5 -52 -11z"/>
<path d="M450 500 c-11 -21 -17 -22 -118 -19 -107 4 -107 4 -103 -41 1 -25 9
-63 17 -85 7 -22 14 -46 14 -54 0 -8 8 -23 17 -33 15 -17 15 -22 0 -72 -30
-95 -22 -119 44 -131 37 -7 76 6 91 29 11 16 10 86 -2 126 -9 31 -8 37 12 53
32 26 54 84 62 158 6 52 4 68 -8 78 -12 10 -17 8 -26 -9z m-30 -75 c20 -24 1
-35 -64 -35 -60 0 -64 1 -68 25 -5 25 -4 25 57 25 43 0 66 -5 75 -15z m-10
-81 c0 -13 -46 -43 -67 -44 -19 0 -43 25 -43 44 0 3 25 6 55 6 30 0 55 -3 55
-6z m-47 -156 c7 -56 -1 -75 -29 -64 -14 5 -16 15 -10 52 11 82 30 88 39 12z"/>
<path d="M546 451 c-9 -27 -16 -57 -16 -66 0 -9 -12 -37 -26 -61 -22 -38 -26
-54 -22 -102 7 -92 59 -175 90 -144 10 10 8 23 -14 65 -34 67 -41 92 -33 118
6 16 9 18 22 8 8 -7 21 -25 29 -40 17 -34 52 -55 66 -41 14 14 1 48 -33 83
-35 35 -41 67 -9 47 14 -9 22 -10 31 -1 8 8 4 21 -15 51 -18 29 -24 52 -23 83
2 33 -2 44 -14 47 -12 2 -21 -11 -33 -47z"/>
<path d="M66 401 c-10 -15 2 -31 31 -42 18 -6 24 -15 21 -32 -2 -18 -11 -23
-43 -27 -32 -4 -41 -9 -43 -27 -3 -21 1 -23 41 -23 44 0 44 0 39 -104 -5 -110
4 -134 36 -102 12 12 18 42 22 109 4 82 7 92 25 95 23 5 45 21 45 33 0 5 -15
12 -32 17 -43 11 -51 47 -14 62 25 9 34 24 19 33 -20 12 -141 18 -147 8z"/>
</g>
</svg>
