<svg version="1.0" xmlns="http://www.w3.org/2000/svg"
 width="68.000000pt" height="88.000000pt" viewBox="0 0 68.000000 88.000000"
 preserveAspectRatio="xMidYMid meet">
<metadata>
Created by potrace 1.15, written by Peter Selinger 2001-2017
</metadata>
<g transform="translate(0.000000,88.000000) scale(0.100000,-0.100000)"
fill="#000000" stroke="none">
<path d="M80 639 c-22 -9 -23 -12 -9 -22 11 -8 66 -12 165 -12 125 0 149 3
149 15 0 11 -17 17 -60 21 -92 10 -217 9 -245 -2z"/>
<path d="M468 620 c-15 -9 -16 -36 -13 -288 4 -326 1 -292 20 -292 12 0 15 13
15 55 0 55 0 55 43 55 24 0 48 5 55 12 16 16 15 129 -1 152 -7 10 -32 20 -55
23 -43 6 -43 6 -40 57 3 51 3 51 40 54 49 4 68 31 68 98 0 79 -4 84 -64 84
-28 0 -59 -5 -68 -10z m83 -47 c6 -15 8 -42 4 -60 -5 -28 -10 -33 -35 -33 -30
0 -30 1 -30 54 0 53 6 63 38 65 7 1 17 -11 23 -26z m7 -317 c6 -53 -5 -76 -38
-76 -30 0 -30 1 -30 56 0 55 0 55 33 52 27 -3 33 -7 35 -32z"/>
<path d="M170 531 c-95 -6 -95 -6 -95 -231 0 -193 2 -225 15 -225 13 0 15 30
18 201 2 147 6 205 15 212 7 6 57 12 111 13 86 1 101 -1 113 -17 10 -13 13
-69 13 -232 0 -191 2 -213 16 -208 9 3 18 6 20 6 2 0 4 103 4 229 0 291 23
266 -230 252z"/>
<path d="M122 428 c3 -9 34 -14 102 -16 76 -2 97 0 94 10 -3 9 -34 14 -102 16
-76 2 -97 0 -94 -10z"/>
<path d="M198 355 c-48 -26 -47 -57 5 -133 27 -40 30 -72 8 -72 -6 0 -18 11
-27 25 -18 28 -34 24 -34 -9 0 -29 18 -46 48 -46 22 0 24 -3 18 -36 -6 -31 -5
-35 11 -32 11 2 20 15 23 32 4 23 12 32 37 38 34 9 58 40 49 64 -8 20 -26 17
-26 -5 0 -10 -7 -21 -15 -25 -20 -7 -45 3 -45 20 0 7 -11 34 -25 61 -34 62
-30 87 13 91 39 4 51 -17 35 -59 -9 -23 -8 -29 3 -29 18 0 34 32 34 69 0 53
-56 76 -112 46z"/>
</g>
</svg>
