<svg version="1.0" xmlns="http://www.w3.org/2000/svg"
 width="93.000000pt" height="249.000000pt" viewBox="0 0 93.000000 249.000000"
 preserveAspectRatio="xMidYMid meet">
<metadata>
Created by potrace 1.15, written by Peter Selinger 2001-2017
</metadata>
<g transform="translate(0.000000,249.000000) scale(0.100000,-0.100000)"
fill="#000000" stroke="none">
<path d="M467 2423 c-2 -5 -7 -21 -11 -37 -4 -15 -12 -33 -19 -40 -20 -18 -89
-52 -137 -66 -25 -7 -49 -17 -55 -22 -5 -4 -19 -8 -31 -8 -50 0 -144 -49 -144
-75 0 -3 16 -5 36 -5 66 0 69 -11 66 -209 -2 -97 -8 -198 -13 -225 -5 -27 -9
-68 -9 -92 0 -44 -17 -94 -31 -94 -15 0 -39 -46 -55 -106 -26 -102 -11 -237
41 -349 30 -66 43 -218 45 -509 0 -115 3 -213 6 -218 3 -5 2 -38 -1 -74 -7
-61 -9 -65 -29 -59 -11 4 -34 9 -51 12 -30 6 -30 6 -10 -17 24 -27 59 -45 105
-55 19 -4 37 -10 40 -14 3 -3 20 -12 38 -18 17 -7 47 -19 65 -25 17 -7 34 -15
37 -18 3 -3 17 -11 33 -19 15 -8 27 -19 27 -25 1 -6 15 -20 33 -31 30 -19 34
-20 60 -5 15 8 29 22 32 31 3 9 16 22 30 29 13 7 22 17 19 22 -3 4 2 8 11 8 9
0 47 18 84 40 37 22 70 40 74 40 4 0 19 8 33 17 14 9 37 18 51 19 32 4 48 18
38 34 -7 11 -37 10 -96 -5 -23 -6 -26 -3 -36 32 -7 21 -9 63 -6 93 3 30 8 183
10 339 4 254 6 287 22 310 66 94 85 186 67 326 -13 108 -32 155 -77 192 -29
25 -29 25 -29 327 0 290 1 304 20 321 11 10 20 24 20 30 0 7 -35 25 -77 40
-112 39 -183 97 -183 150 0 15 -35 21 -43 8z m50 -118 c3 -9 35 -29 71 -46 37
-16 70 -35 74 -42 4 -7 8 -44 8 -83 0 -71 0 -71 -137 -77 -76 -3 -167 -4 -203
-2 -36 2 -73 4 -82 4 -11 1 -18 9 -18 22 0 11 -4 28 -9 37 -4 9 -11 32 -14 49
-6 30 -4 33 21 38 15 3 40 12 55 20 16 8 35 15 43 15 8 0 17 6 20 14 3 8 13
12 22 10 9 -3 40 9 67 25 57 34 73 37 82 16z m44 -295 c107 0 107 0 112 -57 4
-51 2 -61 -19 -82 -25 -27 -32 -28 -219 -31 -153 -3 -163 -2 -183 21 -22 23
-33 71 -25 112 7 36 47 48 148 42 44 -3 128 -5 186 -5z m-156 -230 c60 7 253
6 263 -2 13 -11 16 -97 6 -159 -6 -35 -6 -35 -63 -32 -31 2 -92 8 -135 14 -44
6 -122 11 -172 11 -63 0 -96 4 -103 12 -19 22 1 109 30 133 24 20 83 32 124
27 22 -3 45 -5 50 -4z m115 -240 c96 -9 186 -22 200 -27 50 -21 97 -162 87
-258 -8 -76 -17 -106 -48 -151 -52 -77 -60 -79 -266 -78 -106 0 -187 4 -195
10 -7 6 -32 16 -55 24 -23 7 -57 25 -75 40 -42 34 -61 110 -62 245 -1 85 1 95
22 113 12 11 22 24 22 30 0 6 14 19 30 29 17 9 30 21 30 25 0 4 17 8 38 8 20
0 44 5 52 10 8 5 22 7 30 4 8 -3 94 -14 190 -24z m-35 -567 c136 -3 202 -9
207 -16 10 -16 10 -179 0 -194 -18 -29 -70 -35 -281 -34 -118 0 -216 2 -217 4
-11 10 -2 153 10 180 5 9 6 26 3 37 -3 13 0 20 9 20 8 0 14 5 14 11 0 7 10 9
28 4 15 -4 117 -9 227 -12z m209 -294 c3 -3 6 -53 7 -112 3 -154 2 -155 -271
-155 -247 1 -237 -5 -239 143 -2 94 0 105 19 118 17 12 63 14 250 13 126 -1
231 -4 234 -7z m-332 -310 c29 1 60 1 68 2 8 1 70 1 138 1 122 -2 122 -2 122
-75 0 -43 -5 -80 -12 -89 -7 -9 -49 -35 -93 -58 -44 -23 -84 -46 -89 -51 -15
-14 -35 -11 -95 17 -31 14 -73 33 -93 42 -21 9 -38 20 -38 25 0 4 -8 7 -18 7
-31 0 -42 22 -42 81 0 52 3 60 31 83 19 17 38 24 49 21 10 -3 42 -6 72 -6z"/>
<path d="M350 1436 c-93 -26 -120 -59 -120 -144 0 -92 27 -139 101 -177 39
-20 57 -23 131 -20 89 3 115 8 158 28 56 27 70 57 70 149 0 87 -19 125 -76
154 -48 23 -198 29 -264 10z m205 -41 c17 -4 40 -16 52 -27 29 -27 48 -105 33
-142 -20 -53 -55 -71 -165 -86 -100 -13 -149 0 -182 50 -41 60 -24 179 25 180
9 0 42 9 72 20 54 19 100 20 165 5z"/>
</g>
</svg>
