<svg version="1.0" xmlns="http://www.w3.org/2000/svg"
 width="57.000000pt" height="115.000000pt" viewBox="0 0 57.000000 115.000000"
 preserveAspectRatio="xMidYMid meet">
<metadata>
Created by potrace 1.15, written by Peter Selinger 2001-2017
</metadata>
<g transform="translate(0.000000,115.000000) scale(0.100000,-0.100000)"
fill="#000000" stroke="none">
<path d="M302 845 c-6 -14 -16 -25 -22 -25 -5 0 -10 -7 -10 -15 0 -8 -4 -15
-8 -15 -16 0 -44 -72 -33 -83 6 -6 12 -9 14 -6 2 2 18 25 36 52 18 26 34 47
36 47 3 0 12 -15 21 -32 9 -18 20 -35 24 -38 7 -5 30 -45 30 -53 0 -3 -34 -3
-76 -2 -79 3 -100 -8 -75 -39 7 -8 11 -36 9 -62 -3 -47 -3 -47 -80 -45 -43 1
-78 -1 -78 -5 0 -4 8 -16 17 -27 12 -13 20 -42 23 -91 5 -67 7 -71 30 -74 40
-6 50 -21 50 -73 0 -48 -1 -49 -29 -49 -17 0 -33 5 -36 10 -11 18 -42 11 -48
-11 -4 -15 1 -22 21 -30 25 -9 101 -85 102 -101 0 -9 30 -38 40 -38 4 0 45 36
90 80 86 82 89 95 24 88 -28 -3 -29 -2 -26 37 4 64 6 65 73 65 62 0 62 0 43
21 -19 21 -21 64 -3 86 7 7 6 14 -1 18 -5 3 -10 20 -10 36 0 25 -5 30 -29 35
-26 6 -29 11 -34 58 -5 45 -3 54 18 72 27 25 25 48 -10 104 -12 19 -29 51 -38
71 -25 54 -41 64 -55 34z m25 -221 c-3 -3 -12 -4 -19 -1 -8 3 -5 6 6 6 11 1
17 -2 13 -5z m11 -98 c3 -13 -1 -17 -14 -14 -11 2 -20 11 -22 22 -3 13 1 17
14 14 11 -2 20 -11 22 -22z m42 -66 c14 -3 27 -15 29 -26 2 -10 8 -22 15 -26
8 -6 8 -10 0 -15 -6 -5 -14 -16 -17 -26 -7 -20 -17 -20 -179 -1 -56 6 -56 6
-60 53 -3 25 -3 49 -1 53 4 8 173 -1 213 -12z m-86 -146 c9 -3 16 -13 16 -21
0 -10 -6 -13 -16 -9 -9 3 -22 6 -29 6 -7 0 -15 7 -19 15 -6 16 18 20 48 9z
m-6 -76 c19 -19 14 -28 -13 -28 -18 0 -25 5 -25 20 0 22 20 26 38 8z m32 -77
c0 -8 -53 -61 -62 -61 -10 0 -39 56 -32 63 7 7 94 6 94 -2z"/>
</g>
</svg>
