<svg version="1.0" xmlns="http://www.w3.org/2000/svg"
 width="72.000000pt" height="113.000000pt" viewBox="0 0 72.000000 113.000000"
 preserveAspectRatio="xMidYMid meet">
<metadata>
Created by potrace 1.15, written by Peter Selinger 2001-2017
</metadata>
<g transform="translate(0.000000,113.000000) scale(0.100000,-0.100000)"
fill="#000000" stroke="none">
<path d="M169 1008 c0 -2 -2 -129 -4 -282 -4 -286 -12 -352 -47 -434 -46 -105
-70 -157 -76 -162 -13 -10 -42 -68 -42 -84 0 -53 67 29 127 154 26 55 50 100
53 100 3 0 12 -17 19 -37 32 -95 92 -214 105 -210 20 7 9 62 -33 155 -22 51
-46 114 -52 140 -6 26 -12 178 -13 343 -1 162 -6 301 -10 307 -6 10 -25 17
-27 10z"/>
<path d="M500 995 c-8 -9 -11 -40 -9 -87 4 -69 3 -73 -18 -76 -28 -4 -56 38
-57 86 -1 27 -6 38 -19 40 -25 5 -31 -23 -18 -81 15 -67 30 -86 72 -91 30 -3
34 -7 34 -32 0 -28 -2 -29 -42 -26 -26 2 -43 -1 -43 -7 0 -6 -5 -11 -11 -11
-50 0 -70 -140 -26 -184 15 -15 41 -25 75 -30 48 -6 52 -9 52 -34 0 -24 -8
-32 -49 -53 -61 -30 -66 -46 -75 -254 -3 -50 -8 -100 -11 -112 -5 -16 -3 -25
9 -29 9 -4 19 -5 21 -3 6 7 35 222 39 290 4 78 9 89 42 89 23 0 24 -2 25 -82
1 -46 0 -134 -1 -195 -1 -62 2 -113 7 -113 30 1 33 19 33 203 1 187 1 187 29
187 19 0 31 -7 39 -22 11 -24 25 -142 28 -243 3 -117 2 -115 25 -115 21 0 22
2 17 163 -6 192 -12 210 -83 247 -34 17 -51 33 -53 48 -3 17 2 22 20 22 30 0
91 22 112 40 42 34 58 108 34 153 -21 41 -35 47 -103 47 -57 0 -66 2 -63 17 3
16 11 22 81 54 34 16 57 60 57 111 0 30 -4 38 -19 38 -14 0 -20 -10 -24 -41
-6 -42 -34 -79 -62 -79 -12 0 -15 14 -15 78 0 92 -19 125 -50 87z m-12 -383
c3 -82 3 -82 -28 -82 -30 0 -42 21 -20 35 6 3 10 32 10 64 0 32 3 61 7 65 19
18 28 -7 31 -82z m82 29 c0 -15 4 -40 8 -56 12 -40 5 -55 -24 -55 -23 0 -24 2
-24 78 0 43 3 82 7 86 11 11 33 -25 33 -53z m-140 1 c-5 -2 -12 -26 -16 -53
-4 -27 -10 -49 -14 -49 -15 0 -32 59 -27 96 7 48 27 61 49 31 9 -12 13 -23 8
-25z m234 31 c9 -28 -3 -96 -19 -112 -12 -13 -16 -11 -25 13 -5 15 -10 47 -10
72 0 40 2 44 24 44 15 0 27 -7 30 -17z"/>
<path d="M77 893 c-10 -10 -8 -483 2 -483 23 0 29 40 33 243 4 193 3 219 -12
232 -9 8 -20 12 -23 8z"/>
<path d="M276 893 c-9 -9 -7 -481 2 -487 27 -16 31 16 32 229 0 121 1 227 0
236 0 18 -24 32 -34 22z"/>
</g>
</svg>
