<svg version="1.0" xmlns="http://www.w3.org/2000/svg"
 width="65.000000pt" height="99.000000pt" viewBox="0 0 65.000000 99.000000"
 preserveAspectRatio="xMidYMid meet">
<metadata>
Created by potrace 1.15, written by Peter Selinger 2001-2017
</metadata>
<g transform="translate(0.000000,99.000000) scale(0.100000,-0.100000)"
fill="#000000" stroke="none">
<path d="M405 818 c-12 -35 -26 -146 -25 -192 3 -96 1 -116 -14 -116 -8 0 -21
6 -28 13 -7 7 -38 28 -68 46 -70 44 -80 56 -80 102 0 42 -25 73 -41 48 -5 -8
-9 -27 -8 -44 0 -16 -3 -130 -7 -252 -5 -166 -4 -223 4 -223 7 0 12 9 12 20 0
11 5 20 10 20 6 0 10 20 10 44 0 42 2 44 33 49 63 11 112 24 136 36 14 8 27 9
32 4 15 -15 20 -256 6 -265 -7 -4 -31 -8 -54 -8 -24 0 -43 -4 -43 -9 0 -15 48
-41 78 -41 20 0 33 -7 42 -25 16 -30 34 -28 38 3 2 12 7 22 12 22 10 0 123
111 117 116 -2 2 -29 -7 -60 -21 -35 -15 -59 -21 -62 -14 -4 5 -7 72 -8 148
-2 155 4 171 58 171 45 0 95 11 95 21 0 16 -45 32 -95 33 -50 1 -50 1 -53 60
-3 50 -1 58 13 52 22 -8 104 11 121 29 8 7 18 36 23 62 5 26 13 56 16 66 12
30 -2 19 -38 -32 -24 -33 -47 -53 -71 -61 -20 -6 -36 -17 -36 -23 0 -7 -9 2
-20 18 -14 22 -20 47 -20 93 0 36 -4 62 -10 62 -6 0 -13 -6 -15 -12z m-145
-318 c30 -27 63 -49 73 -50 49 -1 -12 -40 -63 -40 -16 0 -32 -4 -35 -10 -13
-21 -43 -10 -47 18 -5 37 2 132 10 132 4 0 32 -22 62 -50z"/>
</g>
</svg>
