<svg version="1.0" xmlns="http://www.w3.org/2000/svg"
 width="65.000000pt" height="105.000000pt" viewBox="0 0 65.000000 105.000000"
 preserveAspectRatio="xMidYMid meet">
<metadata>
Created by potrace 1.15, written by Peter Selinger 2001-2017
</metadata>
<g transform="translate(0.000000,105.000000) scale(0.100000,-0.100000)"
fill="#000000" stroke="none">
<path d="M240 741 c-25 -8 -25 -8 13 -30 45 -28 60 -52 51 -86 -7 -29 -26 -31
-68 -10 -15 8 -34 15 -41 15 -24 0 -45 31 -45 67 0 35 -1 36 -19 19 -22 -20
-36 -66 -33 -106 4 -44 36 -160 44 -160 4 0 8 -9 8 -20 0 -11 5 -20 11 -20 8
0 10 15 7 45 -4 28 -2 42 4 39 6 -4 38 -6 73 -5 42 1 66 -3 74 -13 14 -17 19
-154 6 -164 -19 -13 -35 -52 -35 -81 0 -21 11 -41 38 -68 20 -21 42 -51 47
-67 6 -16 14 -29 20 -29 5 1 22 32 38 70 27 66 27 69 11 101 -10 17 -20 32
-24 32 -16 0 -30 55 -30 115 0 35 -5 67 -10 70 -8 5 -7 11 1 21 8 10 35 14 90
14 57 0 79 4 79 13 0 15 -107 68 -137 67 -34 0 -54 27 -51 69 3 34 5 36 35 33
74 -7 32 52 -45 61 -26 4 -56 9 -67 11 -11 2 -31 1 -45 -3z m-60 -138 c14 -10
50 -30 80 -45 55 -27 55 -27 20 -28 -19 0 -52 -5 -74 -11 -47 -13 -54 -7 -62
54 -7 51 -1 56 36 30z m212 -355 c15 -25 13 -58 -4 -58 -16 0 -37 32 -38 58 0
12 6 22 14 22 7 0 20 -10 28 -22z"/>
</g>
</svg>
