<svg version="1.0" xmlns="http://www.w3.org/2000/svg"
 width="59.000000pt" height="81.000000pt" viewBox="0 0 59.000000 81.000000"
 preserveAspectRatio="xMidYMid meet">
<metadata>
Created by potrace 1.15, written by Peter Selinger 2001-2017
</metadata>
<g transform="translate(0.000000,81.000000) scale(0.100000,-0.100000)"
fill="#000000" stroke="none">
<path d="M198 639 c-12 -6 -18 -22 -18 -46 0 -28 -3 -34 -16 -29 -9 3 -22 6
-30 6 -8 0 -19 12 -24 26 -17 44 -58 9 -46 -39 6 -25 10 -27 62 -27 71 0 70
-23 -2 -30 -49 -5 -49 -5 -52 -238 -2 -233 -2 -233 20 -230 23 3 23 4 23 173
0 170 0 170 168 173 167 3 167 3 167 -37 0 -22 -4 -43 -10 -46 -15 -9 -58 24
-62 48 -6 41 -33 25 -38 -23 -6 -58 -30 -61 -46 -5 -13 48 -35 52 -46 9 -13
-50 -37 -51 -44 -4 -8 48 -27 52 -44 10 -24 -59 28 -113 72 -74 18 17 20 17
29 2 19 -34 97 -31 121 6 5 8 13 7 28 -1 28 -18 43 -16 68 7 25 23 29 72 9 91
-11 11 -10 16 5 31 23 23 25 93 2 102 -9 3 -36 6 -60 6 -32 0 -44 4 -44 15 0
11 12 15 45 15 51 0 68 20 63 73 -4 47 -35 49 -44 3 -5 -31 -10 -36 -35 -36
-24 0 -29 4 -29 24 0 39 -35 56 -110 56 -36 0 -73 -5 -82 -11z m130 -61 c3
-15 -4 -18 -47 -18 -36 0 -51 4 -51 13 0 23 12 28 55 25 29 -2 41 -8 43 -20z
m12 -63 c0 -12 -13 -15 -55 -15 -51 0 -65 7 -48 23 3 4 28 7 55 7 36 0 48 -4
48 -15z m-162 -77 c-2 -18 -11 -24 -35 -26 -30 -3 -33 -1 -33 22 0 23 4 26 36
26 31 0 35 -3 32 -22z m172 7 c0 -18 -8 -21 -72 -29 -46 -5 -48 -5 -48 19 0
24 3 25 60 25 47 0 60 -3 60 -15z m95 -5 c0 -9 -11 -16 -27 -18 -23 -3 -28 1
-28 18 0 17 5 21 28 18 16 -2 27 -9 27 -18z"/>
<path d="M168 219 c-23 -14 6 -29 58 -29 47 0 54 -2 54 -20 0 -18 -7 -20 -65
-20 -51 0 -65 -3 -65 -15 0 -12 14 -15 64 -15 66 0 76 -6 76 -50 0 -30 32 -40
125 -40 68 0 87 3 92 15 9 25 -4 30 -75 31 -93 2 -92 2 -92 24 0 17 8 19 73
22 72 3 72 3 75 46 2 28 -1 44 -10 47 -22 7 -299 11 -310 4z m251 -38 c24 -15
1 -31 -45 -31 -37 0 -44 3 -44 20 0 16 7 20 38 20 20 0 43 -4 51 -9z"/>
</g>
</svg>
