<svg version="1.0" xmlns="http://www.w3.org/2000/svg"
 width="67.000000pt" height="85.000000pt" viewBox="0 0 67.000000 85.000000"
 preserveAspectRatio="xMidYMid meet">
<metadata>
Created by potrace 1.15, written by Peter Selinger 2001-2017
</metadata>
<g transform="translate(0.000000,85.000000) scale(0.100000,-0.100000)"
fill="#000000" stroke="none">
<path d="M390 683 c-62 -21 -70 -30 -70 -73 0 -33 6 -44 51 -82 51 -44 51 -44
56 -155 5 -97 4 -111 -11 -116 -33 -13 -53 10 -65 75 -13 65 -29 113 -35 107
-2 -2 -1 -43 3 -91 6 -78 9 -90 36 -118 26 -28 35 -31 67 -26 24 4 49 0 72
-10 33 -16 42 -31 76 -121 12 -33 30 -45 30 -20 0 7 -9 44 -19 82 -20 72 -47
104 -87 105 -25 0 -34 18 -34 65 0 30 3 33 36 40 76 14 104 58 88 140 -8 43
-20 38 -28 -12 -11 -62 -27 -93 -52 -99 -35 -9 -44 3 -44 54 0 72 -8 89 -61
127 -76 54 -63 100 31 111 46 5 59 3 79 -13 27 -22 22 -58 -10 -68 -24 -8 -25
-25 -1 -25 25 0 52 31 52 59 0 37 -18 60 -58 71 -46 12 -47 12 -102 -7z"/>
<path d="M125 649 c-4 -5 -5 -38 -3 -72 3 -62 3 -62 -32 -65 -19 -2 -38 -9
-42 -15 -9 -14 -10 -182 -2 -214 14 -50 145 -57 191 -10 21 21 25 35 26 88 2
84 -25 142 -68 149 -26 4 -30 10 -33 41 -3 35 -2 36 37 43 57 9 62 26 8 26
-36 0 -46 4 -50 20 -6 22 -22 26 -32 9z m40 -193 c-26 -35 -26 -35 -61 -14
-54 32 -45 38 64 46 23 2 23 2 -3 -32z m65 -10 c0 -19 -47 -59 -59 -51 -8 4
-5 16 9 35 11 15 20 34 20 40 0 10 3 10 15 0 8 -7 15 -18 15 -24z m-131 -32
c22 -16 22 -16 0 -40 -26 -27 -39 -18 -39 29 0 31 7 33 39 11z m141 -55 c0
-17 -8 -44 -17 -60 -15 -26 -23 -29 -68 -29 -38 0 -55 5 -68 20 -20 24 -22 40
-5 40 6 0 22 10 35 22 33 31 42 13 10 -20 -15 -16 -27 -31 -27 -35 0 -14 24
-7 46 14 22 21 22 21 33 0 7 -12 16 -21 21 -21 14 0 12 34 -2 48 -9 9 -7 16 7
32 25 28 35 25 35 -11z"/>
</g>
</svg>
