<svg version="1.0" xmlns="http://www.w3.org/2000/svg"
 width="73.000000pt" height="119.000000pt" viewBox="0 0 73.000000 119.000000"
 preserveAspectRatio="xMidYMid meet">
<metadata>
Created by potrace 1.15, written by Peter Selinger 2001-2017
</metadata>
<g transform="translate(0.000000,119.000000) scale(0.100000,-0.100000)"
fill="#000000" stroke="none">
<path d="M534 939 c-32 -39 -67 -80 -77 -92 -10 -12 -26 -34 -35 -49 -9 -16
-20 -28 -24 -28 -4 0 -8 -9 -8 -20 0 -11 -8 -34 -18 -52 -10 -18 -24 -53 -32
-78 -13 -42 -44 -98 -62 -110 -14 -11 -48 -96 -48 -125 0 -16 -7 -38 -14 -48
-12 -15 -14 -3 -21 85 -5 57 -7 112 -6 123 2 11 30 75 64 142 33 68 57 126 53
130 -12 13 -44 -34 -104 -152 -55 -110 -55 -110 -44 -225 7 -63 9 -126 5 -139
-7 -27 13 -44 36 -31 10 5 19 3 27 -8 14 -18 12 -20 28 32 6 18 54 51 62 43 4
-3 1 -32 -6 -64 -6 -32 -14 -73 -17 -91 -3 -18 -9 -35 -14 -38 -14 -8 -10 -44
5 -50 8 -3 25 4 38 15 79 71 100 85 109 70 5 -8 6 -20 3 -28 -8 -22 38 -101
58 -101 22 0 22 -2 -2 56 -17 40 -19 53 -9 83 17 56 33 91 41 91 5 0 8 11 8
24 0 14 5 28 10 31 5 3 10 -1 10 -9 0 -9 3 -16 8 -16 4 0 18 -23 31 -50 14
-28 28 -50 32 -50 3 0 9 28 13 62 3 35 9 89 12 121 4 35 3 57 -4 57 -5 0 -15
14 -22 30 -7 17 -16 30 -20 30 -4 0 -13 14 -20 30 -7 17 -16 30 -21 30 -12 0
-11 73 1 105 6 15 19 34 29 44 23 19 43 143 30 179 -5 13 -9 41 -9 62 0 21 -4
41 -8 44 -5 3 -35 -27 -68 -65z m53 -46 c-3 -10 -8 -40 -12 -67 -7 -51 -8 -53
-107 -145 -35 -32 -36 -33 -47 -13 -13 24 12 74 61 126 15 16 42 48 60 72 34
45 53 56 45 27z m-62 -265 c-9 -50 -18 -58 -53 -49 -37 10 -37 26 -1 60 47 45
62 41 54 -11z m-134 -25 c-8 -15 -10 -15 -11 -2 0 17 10 32 18 25 2 -3 -1 -13
-7 -23z m23 -74 c8 -40 -2 -59 -31 -59 -24 0 -24 2 -18 43 4 23 9 45 11 49 9
15 32 -5 38 -33z m80 10 c21 -10 35 -34 36 -61 0 -5 -18 -8 -40 -8 -40 0 -40
0 -40 40 0 43 5 46 44 29z m129 -111 c8 -4 7 -11 -1 -20 -6 -7 -12 -36 -14
-63 -3 -50 -3 -50 -21 -17 -11 19 -18 52 -17 80 0 26 -2 61 -6 77 -6 29 -6 29
21 -10 15 -22 32 -43 38 -47z m-303 27 c0 -36 -6 -51 -29 -75 -15 -17 -32 -30
-37 -30 -4 0 -3 5 4 12 7 7 12 20 12 30 0 10 5 18 10 18 6 0 10 14 10 30 0 17
5 30 10 30 6 0 10 7 10 15 0 8 2 15 5 15 3 0 5 -20 5 -45z m87 -23 c7 -4 9
-24 6 -55 -5 -41 -8 -47 -29 -47 -22 0 -24 4 -24 55 0 46 3 55 18 55 9 0 22
-4 29 -8z m124 -14 c4 -47 -23 -98 -52 -98 -26 0 -31 14 -23 65 6 43 8 45 40
45 20 0 34 -5 35 -12z m-137 -123 c18 -13 18 -16 2 -40 -24 -36 -36 -31 -36
15 0 43 5 47 34 25z m72 -32 c-11 -11 -19 6 -11 24 8 17 8 17 12 0 3 -10 2
-21 -1 -24z"/>
<path d="M163 778 c-6 -7 -13 -24 -16 -38 -3 -14 -9 -35 -12 -47 -5 -15 -3
-23 4 -23 12 0 51 81 51 106 0 17 -14 18 -27 2z"/>
<path d="M276 658 c-2 -7 -10 -34 -19 -60 -13 -39 -13 -48 -3 -48 17 0 46 59
46 94 0 26 -18 36 -24 14z"/>
<path d="M85 471 c-8 -14 -9 -91 0 -129 12 -58 25 -34 25 47 0 74 -10 106 -25
82z"/>
</g>
</svg>
