<svg version="1.0" xmlns="http://www.w3.org/2000/svg"
 width="67.000000pt" height="127.000000pt" viewBox="0 0 67.000000 127.000000"
 preserveAspectRatio="xMidYMid meet">
<metadata>
Created by potrace 1.15, written by Peter Selinger 2001-2017
</metadata>
<g transform="translate(0.000000,127.000000) scale(0.100000,-0.100000)"
fill="#000000" stroke="none">
<path d="M357 1138 c-2 -7 -1 -22 3 -33 4 -11 4 -24 0 -30 -4 -5 -10 -36 -13
-69 -3 -32 -8 -61 -11 -64 -3 -2 -48 -8 -99 -13 -122 -10 -149 -17 -145 -38 4
-18 52 -20 166 -6 60 7 62 7 62 -14 0 -31 -31 -121 -41 -121 -5 0 -9 -5 -9
-11 0 -28 -107 -159 -130 -159 -4 0 -20 -11 -36 -25 -16 -14 -34 -25 -40 -25
-14 0 -44 -33 -44 -48 0 -13 46 -17 52 -4 2 4 29 23 61 42 66 39 161 137 182
186 16 40 42 49 86 30 52 -22 73 -51 72 -96 -2 -38 -33 -113 -53 -125 -5 -3
-10 -15 -10 -26 0 -10 -4 -19 -8 -19 -8 0 -20 -23 -64 -115 -5 -11 -50 -51
-99 -90 -49 -38 -89 -72 -89 -75 0 -3 -21 -27 -45 -55 -48 -53 -64 -90 -47
-107 10 -10 62 33 62 52 0 5 10 19 22 32 13 13 45 49 72 80 27 32 54 58 60 58
6 0 18 9 26 20 25 34 44 24 75 -43 21 -44 50 -83 104 -135 75 -73 113 -94 133
-74 14 14 1 50 -21 57 -71 22 -201 172 -201 231 0 28 4 35 27 41 16 3 49 19
76 35 26 15 54 28 62 28 8 0 17 5 20 10 3 6 17 10 30 10 13 0 27 5 30 10 9 14
-4 50 -18 50 -12 0 -137 -60 -147 -70 -10 -11 -63 -31 -67 -26 -6 6 27 62 57
96 39 45 72 131 66 170 -6 41 -84 118 -129 127 -28 6 -28 8 -23 52 2 25 5 47
5 48 2 5 107 23 135 23 33 0 34 -1 46 -62 14 -76 47 -138 72 -138 24 0 23 30
0 72 -11 18 -24 68 -30 111 -11 72 -10 83 8 124 25 56 25 65 1 80 -15 9 -21 9
-29 0 -13 -17 -31 -97 -26 -112 5 -13 -10 -17 -107 -30 -38 -6 -47 -4 -53 10
-3 9 -4 20 -1 25 2 4 8 42 11 84 6 76 6 76 -19 76 -14 0 -27 -6 -30 -12z"/>
</g>
</svg>
