<svg version="1.0" xmlns="http://www.w3.org/2000/svg"
 width="51.000000pt" height="107.000000pt" viewBox="0 0 51.000000 107.000000"
 preserveAspectRatio="xMidYMid meet">
<metadata>
Created by potrace 1.15, written by Peter Selinger 2001-2017
</metadata>
<g transform="translate(0.000000,107.000000) scale(0.100000,-0.100000)"
fill="#000000" stroke="none">
<path d="M297 953 c-4 -3 -7 -21 -7 -38 0 -17 -3 -34 -6 -38 -3 -3 -24 12 -46
34 -72 70 -77 14 -7 -78 37 -47 40 -56 37 -104 -3 -52 -3 -52 -52 -10 -26 23
-53 40 -59 38 -17 -5 -19 -23 -5 -38 7 -8 33 -38 57 -67 43 -53 43 -53 42
-153 -1 -54 -4 -106 -7 -114 -7 -18 -110 -21 -116 -4 -3 8 -10 8 -26 -2 -25
-16 -37 -40 -24 -48 10 -7 32 -143 32 -199 0 -21 5 -43 12 -50 8 -8 53 -12
138 -12 126 0 127 0 138 25 7 15 12 75 12 139 0 117 -9 144 -42 131 -8 -3 -26
-1 -40 4 -25 9 -25 10 -21 113 5 103 5 103 64 160 32 31 59 59 59 62 0 14 -44
4 -71 -15 -29 -20 -29 -20 -29 10 0 23 11 42 43 74 48 48 97 104 97 112 0 3
-12 5 -26 5 -17 0 -38 -14 -65 -42 -38 -43 -38 -43 -39 15 0 74 -20 114 -43
90z m-59 -670 c3 -33 3 -33 -42 -33 -46 0 -46 0 -46 36 0 35 0 35 43 32 39 -3
42 -5 45 -35z m106 31 c18 -7 23 -84 6 -84 -30 0 -60 25 -60 51 0 33 21 46 54
33z m-114 -154 c0 -28 -2 -30 -40 -30 -38 0 -40 2 -40 30 0 28 2 30 40 30 38
0 40 -2 40 -30z m138 -14 c3 -38 3 -38 -35 -31 -48 8 -53 13 -46 48 5 25 9 28
42 25 34 -3 36 -5 39 -42z"/>
</g>
</svg>
