<svg version="1.0" xmlns="http://www.w3.org/2000/svg"
 width="57.000000pt" height="117.000000pt" viewBox="0 0 57.000000 117.000000"
 preserveAspectRatio="xMidYMid meet">
<metadata>
Created by potrace 1.15, written by Peter Selinger 2001-2017
</metadata>
<g transform="translate(0.000000,117.000000) scale(0.100000,-0.100000)"
fill="#000000" stroke="none">
<path d="M195 1030 c-6 -9 11 -49 25 -60 3 -3 13 -21 23 -40 9 -19 28 -47 42
-62 20 -22 25 -37 25 -78 0 -27 -4 -50 -10 -50 -5 0 -10 4 -10 8 0 16 -88 102
-104 102 -9 0 -16 -3 -16 -7 0 -11 81 -125 108 -152 21 -21 23 -30 18 -69 -3
-25 -6 -74 -6 -109 0 -65 0 -65 -67 -63 -38 1 -74 2 -81 1 -15 -1 -16 -188 0
-303 10 -77 10 -77 56 -87 26 -5 50 -7 54 -5 4 3 17 0 28 -6 16 -8 24 -8 35 3
17 18 132 22 151 6 23 -19 27 11 25 194 -1 129 -5 184 -14 189 -7 4 -43 8 -81
8 -69 0 -69 0 -64 85 6 95 21 125 98 202 36 35 40 44 26 49 -11 4 -31 -5 -56
-25 -44 -36 -55 -29 -45 30 7 43 32 73 89 108 20 13 36 26 36 31 0 20 -23 20
-56 1 -20 -12 -40 -19 -45 -16 -5 4 -9 30 -9 60 0 86 -28 80 -45 -10 -8 -44 0
-49 -82 49 -23 27 -38 32 -48 16z m249 -675 c-3 -81 2 -76 -61 -69 -32 4 -59
8 -61 9 -1 1 1 22 4 48 6 42 9 46 38 50 73 10 81 6 80 -38z m-170 27 c2 -4 2
-27 -1 -50 -6 -42 -6 -42 -49 -42 -44 0 -44 0 -44 50 0 50 0 50 44 50 25 0 47
-4 50 -8z m-6 -209 c-3 -57 -4 -58 -35 -61 -39 -4 -52 16 -45 76 4 42 5 42 44
42 39 0 39 0 36 -57z m182 8 c0 -57 -6 -61 -86 -61 -59 0 -60 0 -48 73 7 37 7
37 70 37 64 0 64 0 64 -49z"/>
</g>
</svg>
