<svg version="1.0" xmlns="http://www.w3.org/2000/svg"
 width="109.000000pt" height="141.000000pt" viewBox="0 0 109.000000 141.000000"
 preserveAspectRatio="xMidYMid meet">
<metadata>
Created by potrace 1.15, written by Peter Selinger 2001-2017
</metadata>
<g transform="translate(0.000000,141.000000) scale(0.100000,-0.100000)"
fill="#000000" stroke="none">
<path d="M275 1210 c-4 -6 -6 -65 -5 -133 2 -148 2 -147 -8 -147 -12 0 -50 31
-97 79 -23 24 -47 41 -53 37 -12 -7 -4 -46 9 -46 5 0 9 -6 9 -12 0 -24 75 -96
113 -109 39 -14 40 -16 40 -124 0 -107 -2 -117 -25 -109 -12 3 -42 26 -67 50
-25 24 -53 51 -62 59 -47 44 -53 -19 -8 -76 17 -21 37 -39 44 -39 7 0 20 -11
28 -24 9 -14 32 -28 54 -33 38 -9 38 -9 39 -86 1 -58 -3 -87 -17 -115 -11 -20
-19 -51 -19 -69 0 -35 18 -83 32 -83 13 0 10 -64 -4 -78 -7 -7 -23 -12 -37
-12 -28 -1 -78 -36 -67 -47 9 -10 119 -13 208 -6 67 5 77 9 86 29 16 33 -4 45
-66 37 -52 -6 -52 -6 -52 56 0 50 4 63 20 73 33 21 18 101 -22 113 -16 6 -18
15 -14 93 5 94 11 122 30 122 19 0 80 55 126 115 49 64 47 86 -3 31 -18 -20
-37 -36 -41 -36 -4 0 -22 -11 -39 -24 -66 -48 -67 -47 -67 67 0 103 0 103 53
158 45 47 137 171 137 184 0 3 -8 5 -17 5 -11 0 -35 -26 -58 -60 -22 -33 -43
-60 -47 -60 -4 0 -21 -14 -37 -31 -16 -16 -32 -26 -34 -22 -3 5 -8 56 -11 114
-3 57 -8 119 -12 137 -6 31 -26 42 -39 22z"/>
<path d="M790 1181 c-83 -52 -105 -93 -88 -162 19 -71 41 -89 112 -89 77 0
127 18 177 62 36 33 39 39 39 90 0 48 -4 59 -34 91 -32 35 -37 37 -97 37 -53
0 -72 -5 -109 -29z m165 -25 c8 -7 16 -37 18 -65 6 -70 -10 -88 -91 -102 -87
-15 -109 -8 -122 42 -14 52 -7 72 38 109 31 25 45 30 90 30 32 0 59 -6 67 -14z"/>
<path d="M910 813 c-43 -8 -114 -30 -168 -53 -38 -16 -52 -28 -52 -42 0 -14 5
-18 16 -14 40 15 60 -3 87 -82 15 -43 27 -84 27 -93 0 -8 -16 -30 -35 -49 -39
-38 -44 -74 -25 -167 5 -26 12 -95 14 -153 5 -123 3 -110 20 -110 22 0 26 49
20 221 -6 160 -6 160 29 192 49 45 101 87 109 87 16 0 98 85 98 101 0 10 5 21
10 24 6 3 10 20 10 37 0 34 -41 81 -86 98 -26 10 -31 10 -74 3z m67 -69 c54
-41 42 -91 -36 -149 -41 -30 -71 -33 -71 -7 0 10 -4 22 -9 28 -14 15 -34 102
-27 119 15 40 96 45 143 9z"/>
</g>
</svg>
