<svg version="1.0" xmlns="http://www.w3.org/2000/svg"
 width="53.000000pt" height="137.000000pt" viewBox="0 0 53.000000 137.000000"
 preserveAspectRatio="xMidYMid meet">
<metadata>
Created by potrace 1.15, written by Peter Selinger 2001-2017
</metadata>
<g transform="translate(0.000000,137.000000) scale(0.100000,-0.100000)"
fill="#000000" stroke="none">
<path d="M204 1176 c-3 -8 6 -43 20 -78 14 -36 26 -70 26 -76 0 -7 4 -12 10
-12 12 0 30 -66 30 -113 0 -22 7 -63 15 -92 15 -49 15 -55 -5 -104 -17 -45
-18 -52 -5 -57 8 -4 15 -17 15 -30 0 -24 0 -24 -37 -3 -21 12 -40 25 -43 29
-3 5 -18 12 -33 15 -41 11 -35 -21 14 -71 24 -24 39 -49 36 -57 -3 -7 -36 -30
-75 -50 -66 -35 -105 -66 -86 -68 32 -4 72 6 109 27 43 23 43 23 49 1 3 -12 6
-33 6 -46 0 -29 40 -121 52 -121 20 0 5 -37 -21 -53 -15 -9 -52 -40 -80 -69
-41 -41 -49 -54 -36 -56 10 -2 20 0 24 5 3 5 22 20 41 33 19 14 50 39 68 57
49 49 63 43 87 -39 18 -62 40 -80 30 -25 -3 17 -7 46 -10 62 -2 17 -10 70 -19
120 -9 50 -16 107 -16 128 0 33 3 37 24 37 14 0 36 -4 50 -10 21 -8 26 -6 26
6 0 8 -8 18 -17 21 -10 4 -27 15 -38 25 -11 10 -30 26 -41 36 -27 21 -42 112
-20 112 8 0 17 -11 20 -25 4 -14 10 -25 15 -25 12 0 23 29 15 41 -10 17 7 31
23 18 13 -11 14 -7 8 37 -4 27 -11 56 -15 64 -13 24 -30 164 -30 238 0 37 -4
73 -9 81 -16 25 -31 1 -31 -50 0 -27 -4 -49 -8 -49 -9 0 -32 80 -32 111 0 15
-5 19 -16 15 -17 -7 -32 6 -53 47 -16 30 -29 35 -37 13z m151 -246 c3 -5 2
-10 -4 -10 -5 0 -13 5 -16 10 -3 6 -2 10 4 10 5 0 13 -4 16 -10z m8 -70 c4
-14 2 -31 -2 -39 -12 -19 -31 17 -31 60 0 29 2 31 14 19 7 -8 16 -26 19 -40z
m-10 -164 c6 -16 -2 -28 -14 -20 -12 7 -11 34 0 34 5 0 11 -6 14 -14z m-29
-253 c3 -38 8 -86 11 -108 3 -22 2 -33 -1 -25 -4 8 -10 17 -14 20 -12 9 -41
142 -35 161 4 10 12 19 19 19 9 0 15 -22 20 -67z"/>
</g>
</svg>
