<svg version="1.0" xmlns="http://www.w3.org/2000/svg"
 width="68.000000pt" height="85.000000pt" viewBox="0 0 68.000000 85.000000"
 preserveAspectRatio="xMidYMid meet">
<metadata>
Created by potrace 1.15, written by Peter Selinger 2001-2017
</metadata>
<g transform="translate(0.000000,85.000000) scale(0.100000,-0.100000)"
fill="#000000" stroke="none">
<path d="M430 674 c0 -28 -4 -35 -17 -32 -9 2 -20 13 -23 26 -6 28 -19 32 -33
10 -16 -24 7 -68 43 -81 34 -13 40 -27 11 -27 -35 0 -51 -12 -51 -36 0 -41 33
-64 91 -64 65 0 55 -17 -15 -25 -29 -4 -59 -10 -66 -15 -23 -14 1 -30 48 -31
47 -1 47 -1 -2 -14 -27 -8 -53 -18 -59 -24 -16 -16 18 -25 61 -16 20 4 48 8
62 9 28 1 27 4 45 -216 8 -91 18 -108 36 -60 14 33 3 285 -12 314 -8 14 -8 23
0 31 17 17 13 52 -7 70 -13 12 -37 17 -81 17 -85 0 -77 22 12 34 45 6 67 14
67 23 0 8 -12 13 -32 14 -33 0 -33 0 0 17 33 16 49 49 38 77 -8 22 -33 18 -39
-5 -8 -29 -27 -24 -38 10 -15 43 -39 39 -39 -6z"/>
<path d="M197 694 c-4 -4 -7 -20 -7 -36 0 -33 -15 -37 -30 -8 -13 24 -33 26
-50 5 -17 -21 11 -62 48 -71 15 -4 34 -13 44 -21 14 -13 18 -12 35 5 10 10 26
22 36 25 21 8 42 50 34 71 -9 23 -22 20 -37 -9 -18 -34 -38 -31 -42 7 -3 31
-17 45 -31 32z"/>
<path d="M155 526 c-16 -11 -20 -30 -23 -90 -3 -61 -1 -76 10 -76 8 0 18 4 23
9 6 5 34 12 64 16 42 6 52 4 49 -6 -2 -7 -17 -17 -34 -22 -113 -35 -129 -61
-121 -205 5 -107 13 -129 43 -118 15 6 16 19 11 120 -6 129 -2 138 66 157 19
5 46 18 59 28 20 17 23 28 23 93 0 106 -2 108 -83 108 -43 0 -75 -5 -87 -14z
m124 -30 c-12 -10 -79 -16 -79 -6 0 5 19 10 42 10 23 0 39 -2 37 -4z m-1 -58
c-5 -15 -108 -24 -108 -10 0 17 14 22 63 22 34 0 47 -4 45 -12z"/>
<path d="M395 305 c-5 -2 -45 -6 -87 -10 -54 -5 -78 -11 -78 -20 0 -23 32 -26
130 -14 88 10 121 21 109 34 -8 7 -62 15 -74 10z"/>
<path d="M365 240 c-16 -4 -55 -8 -86 -9 -37 -1 -61 -6 -69 -16 -17 -21 7 -29
70 -23 50 5 50 5 50 -79 0 -75 2 -84 18 -81 14 3 17 16 20 84 3 81 3 81 60 90
40 6 57 13 57 24 0 17 -70 23 -120 10z"/>
<path d="M423 129 c6 -67 9 -74 32 -66 31 12 12 127 -21 127 -14 0 -16 -9 -11
-61z"/>
<path d="M240 151 c-14 -26 -13 -98 2 -107 16 -10 38 25 38 62 0 60 -20 82
-40 45z"/>
</g>
</svg>
