<svg version="1.0" xmlns="http://www.w3.org/2000/svg"
 width="64.000000pt" height="131.000000pt" viewBox="0 0 64.000000 131.000000"
 preserveAspectRatio="xMidYMid meet">
<metadata>
Created by potrace 1.15, written by Peter Selinger 2001-2017
</metadata>
<g transform="translate(0.000000,131.000000) scale(0.100000,-0.100000)"
fill="#000000" stroke="none">
<path d="M270 1177 c0 -13 9 -33 21 -46 22 -24 22 -42 -1 -130 -12 -48 -6 -93
18 -129 8 -12 13 -24 11 -26 -2 -2 -32 -6 -65 -8 -61 -4 -61 -4 -67 59 -4 41
-1 78 8 110 30 98 11 164 -50 175 -17 2 -19 -2 -16 -27 1 -16 8 -33 13 -36 7
-5 4 -37 -11 -98 -24 -102 -24 -100 5 -157 19 -37 20 -45 8 -74 -8 -18 -13
-54 -12 -81 2 -48 4 -50 47 -71 36 -17 63 -22 126 -21 137 1 199 31 214 105 6
27 2 39 -18 65 -14 18 -34 33 -43 33 -9 0 -20 5 -23 10 -3 6 -24 10 -47 10
-35 0 -39 2 -28 15 10 12 10 24 1 54 -14 47 -14 98 -1 106 25 15 -4 145 -33
145 -7 0 -18 9 -25 20 -16 27 -32 25 -32 -3z m150 -407 c8 -15 8 -27 -2 -48
-12 -24 -20 -27 -68 -30 -76 -5 -140 6 -147 25 -12 31 33 58 110 64 39 3 77 6
84 7 7 1 17 -7 23 -18z"/>
<path d="M416 1182 c-3 -5 6 -24 20 -44 14 -19 25 -43 24 -54 0 -10 -3 -47 -6
-82 -3 -34 -2 -68 4 -75 5 -7 12 -25 16 -40 9 -37 47 -55 75 -35 21 15 21 15
-9 62 -30 46 -39 99 -20 111 6 3 10 25 10 48 0 37 -5 45 -40 71 -22 17 -40 33
-40 38 0 11 -27 10 -34 0z"/>
<path d="M85 590 c-3 -5 -17 -10 -31 -10 -16 0 -24 -6 -24 -16 0 -33 29 -41
128 -37 94 4 94 4 89 -29 -2 -18 -1 -41 4 -50 10 -18 -8 -38 -20 -22 -7 11
-84 10 -123 0 -72 -20 -78 -147 -8 -176 15 -6 109 -11 216 -12 211 -1 187 8
224 -83 4 -11 13 -45 19 -77 12 -56 27 -73 56 -62 20 8 19 32 -7 122 -15 56
-30 87 -55 112 -31 33 -38 35 -113 40 -44 3 -92 2 -107 -1 -37 -7 -194 10
-210 23 -7 6 -13 18 -13 28 0 37 25 43 173 42 163 -1 233 7 229 27 -2 8 3 11
11 8 23 -9 47 30 47 76 0 23 -4 47 -8 52 -13 19 -88 35 -164 35 -45 0 -79 5
-86 12 -10 10 -17 10 -32 0 -19 -11 -161 -9 -181 3 -4 3 -10 1 -14 -5z m394
-79 c21 -14 4 -48 -31 -60 -32 -11 -101 -15 -110 -6 -3 3 0 21 6 40 11 34 12
35 66 35 30 0 61 -4 69 -9z"/>
</g>
</svg>
