<svg version="1.0" xmlns="http://www.w3.org/2000/svg"
 width="65.000000pt" height="98.000000pt" viewBox="0 0 65.000000 98.000000"
 preserveAspectRatio="xMidYMid meet">
<metadata>
Created by potrace 1.15, written by Peter Selinger 2001-2017
</metadata>
<g transform="translate(0.000000,98.000000) scale(0.100000,-0.100000)"
fill="#000000" stroke="none">
<path d="M60 646 c0 -25 97 -103 165 -132 54 -24 65 -32 65 -52 0 -40 -68
-141 -157 -234 -46 -47 -83 -91 -83 -97 0 -36 33 -14 129 87 59 62 109 112
111 112 3 0 4 -66 1 -146 -3 -117 -1 -146 10 -142 19 6 38 102 39 196 0 45 2
82 5 82 3 0 33 -27 68 -60 58 -56 225 -165 236 -154 3 2 -26 32 -65 67 -38 34
-106 97 -151 141 -83 80 -83 80 -83 135 0 56 0 56 68 89 76 38 162 97 162 112
0 18 -28 10 -97 -28 -37 -22 -95 -44 -128 -51 -55 -10 -65 -9 -102 9 -23 11
-49 20 -58 20 -9 0 -36 14 -60 30 -47 32 -75 38 -75 16z"/>
</g>
</svg>
