<svg version="1.0" xmlns="http://www.w3.org/2000/svg"
 width="49.000000pt" height="69.000000pt" viewBox="0 0 49.000000 69.000000"
 preserveAspectRatio="xMidYMid meet">
<metadata>
Created by potrace 1.15, written by Peter Selinger 2001-2017
</metadata>
<g transform="translate(0.000000,69.000000) scale(0.100000,-0.100000)"
fill="#000000" stroke="none">
<path d="M170 647 c0 -17 -23 -127 -30 -142 -8 -18 -19 -64 -21 -82 -2 -21 21
-10 37 16 19 32 44 42 44 18 0 -8 -9 -40 -21 -73 -35 -99 -39 -314 -5 -314 10
0 15 31 19 122 5 91 13 143 31 198 16 49 25 66 25 48 1 -15 -4 -39 -9 -54 -9
-22 -8 -31 4 -43 14 -13 17 -11 31 22 8 20 15 41 15 47 0 6 5 8 10 5 14 -8 13
-105 -1 -105 -6 0 -9 -12 -7 -27 2 -20 9 -28 23 -28 14 0 21 -8 23 -25 12
-126 16 -136 37 -107 10 14 12 37 8 80 -4 34 -6 113 -6 175 -1 61 -4 112 -8
112 -3 0 -12 -6 -19 -14 -20 -26 -39 -7 -42 42 -2 26 -7 47 -13 47 -5 0 -17
-21 -25 -47 -15 -47 -15 -47 -37 -20 -18 22 -23 40 -23 90 0 55 -2 62 -20 62
-11 0 -20 -1 -20 -3z"/>
</g>
</svg>
