<svg version="1.0" xmlns="http://www.w3.org/2000/svg"
 width="75.000000pt" height="125.000000pt" viewBox="0 0 75.000000 125.000000"
 preserveAspectRatio="xMidYMid meet">
<metadata>
Created by potrace 1.15, written by Peter Selinger 2001-2017
</metadata>
<g transform="translate(0.000000,125.000000) scale(0.100000,-0.100000)"
fill="#000000" stroke="none">
<path d="M576 1184 c-21 -20 -32 -64 -18 -73 5 -3 15 -25 22 -48 11 -36 11
-44 -3 -57 -9 -9 -18 -16 -21 -16 -3 0 -40 -22 -82 -50 -42 -27 -81 -50 -86
-50 -5 0 -28 -13 -51 -28 -23 -15 -55 -34 -72 -42 -16 -8 -32 -17 -35 -20 -3
-3 -23 -15 -45 -27 -118 -65 27 -56 155 9 30 15 61 28 70 28 13 0 55 -73 62
-108 5 -22 -83 -65 -260 -129 -41 -14 -57 -43 -32 -58 9 -6 226 62 288 91 18
8 36 12 41 9 14 -8 56 -147 76 -247 14 -74 36 -259 33 -277 -2 -11 14 -41 22
-41 21 0 36 235 20 325 -27 159 -32 183 -52 240 -21 59 -21 59 0 73 12 8 31
22 43 33 12 10 26 19 30 19 4 0 17 15 28 34 43 69 27 148 -75 374 -25 56 -34
61 -58 36z m58 -277 c10 -67 -38 -162 -70 -139 -40 29 -45 109 -9 136 14 10
33 25 42 32 27 20 30 18 37 -29z"/>
<path d="M50 416 c0 -30 18 -85 57 -174 30 -69 130 -141 196 -142 33 0 73 24
107 65 14 16 33 36 43 44 9 9 17 18 17 22 0 4 8 24 17 45 19 42 24 145 8 156
-21 16 -36 7 -52 -31 -10 -23 -26 -42 -38 -45 -16 -4 -207 -9 -251 -7 -5 1
-18 18 -27 39 -14 32 -50 62 -72 62 -3 0 -5 -15 -5 -34z m297 -135 c48 -1 51
-2 45 -23 -10 -42 -52 -68 -107 -68 -55 1 -87 20 -97 58 -8 28 17 40 71 36 20
-2 59 -3 88 -3z"/>
</g>
</svg>
