<svg version="1.0" xmlns="http://www.w3.org/2000/svg"
 width="83.000000pt" height="127.000000pt" viewBox="0 0 83.000000 127.000000"
 preserveAspectRatio="xMidYMid meet">
<metadata>
Created by potrace 1.15, written by Peter Selinger 2001-2017
</metadata>
<g transform="translate(0.000000,127.000000) scale(0.100000,-0.100000)"
fill="#000000" stroke="none">
<path d="M412 1158 c-44 -55 -119 -134 -254 -270 -82 -81 -148 -151 -148 -157
0 -37 52 -6 170 99 24 22 48 40 53 40 4 0 25 -8 45 -19 115 -58 115 -58 84
-88 -122 -117 -162 -153 -192 -173 -49 -34 -80 -62 -80 -72 0 -4 12 -8 26 -8
27 0 64 22 124 74 20 17 49 40 64 51 16 11 53 44 83 73 54 52 54 52 98 32 102
-46 159 -196 164 -435 2 -99 14 -138 58 -192 48 -60 63 -74 74 -68 12 8 12 62
-1 70 -5 3 -10 14 -10 23 0 9 -9 28 -20 42 -11 14 -20 35 -20 47 0 12 -4 24
-8 27 -9 5 -21 112 -28 231 -5 98 -41 193 -94 245 -25 25 -61 53 -79 63 -36
19 -36 15 -7 117 21 73 20 119 -4 182 -14 37 -29 58 -50 70 -30 17 -31 17 -48
-4z m46 -151 c13 -44 11 -55 -21 -129 -7 -16 -18 -28 -25 -28 -15 0 -97 54
-107 70 -7 11 111 130 129 130 7 0 17 -19 24 -43z"/>
<path d="M434 599 c-3 -6 -1 -15 4 -22 5 -7 13 -34 16 -62 4 -27 9 -61 11 -75
6 -40 -7 -49 -70 -52 -59 -3 -59 -3 -67 32 -15 75 -21 89 -36 95 -20 7 -45
-23 -37 -44 3 -7 10 -44 15 -80 11 -81 43 -183 67 -215 10 -14 37 -30 61 -37
41 -11 45 -11 85 19 42 30 42 30 42 119 -1 147 -15 286 -31 305 -19 20 -52 29
-60 17z m36 -291 c0 -73 -41 -130 -78 -107 -40 25 -58 113 -24 122 9 3 36 5
60 6 37 1 42 -2 42 -21z"/>
</g>
</svg>
