<svg version="1.0" xmlns="http://www.w3.org/2000/svg"
 width="89.000000pt" height="145.000000pt" viewBox="0 0 89.000000 145.000000"
 preserveAspectRatio="xMidYMid meet">
<metadata>
Created by potrace 1.15, written by Peter Selinger 2001-2017
</metadata>
<g transform="translate(0.000000,145.000000) scale(0.100000,-0.100000)"
fill="#000000" stroke="none">
<path d="M582 1168 c-7 -7 -12 -15 -12 -19 0 -9 -62 -111 -71 -119 -3 -3 -28
-39 -54 -80 -49 -75 -49 -75 -53 -187 -4 -112 -4 -112 -33 -125 -16 -7 -29
-16 -29 -20 0 -5 -7 -8 -15 -8 -23 0 -76 -51 -91 -87 -8 -18 -14 -66 -14 -108
0 -61 -3 -75 -15 -75 -9 0 -18 -7 -21 -15 -5 -12 -11 -11 -34 6 -22 17 -29 32
-34 73 -10 81 -12 104 -14 135 -2 29 -45 91 -56 81 -16 -17 -22 -245 -10 -398
10 -122 48 -143 304 -162 80 -6 190 -15 245 -20 61 -6 122 -6 155 -1 33 5 56
5 58 0 15 -38 62 41 62 103 0 26 4 49 8 52 4 2 9 60 10 128 2 68 8 138 13 156
6 18 8 45 4 60 -6 26 -7 26 -21 8 -8 -11 -14 -30 -14 -43 0 -13 -4 -31 -9 -41
-16 -33 -31 -89 -31 -120 0 -17 -3 -33 -7 -35 -5 -2 -57 0 -118 5 -60 5 -177
12 -260 16 -126 6 -149 9 -146 22 10 41 23 98 28 125 6 38 31 71 60 79 19 6
23 2 32 -31 6 -21 11 -52 11 -70 0 -35 18 -83 32 -83 4 0 8 9 8 19 0 11 5 23
10 26 6 3 10 48 10 99 0 90 1 93 25 104 14 7 32 12 40 12 8 0 15 5 15 10 0 6
9 10 19 10 11 0 21 4 23 8 4 9 76 52 87 52 5 0 14 -13 20 -30 6 -16 16 -43 22
-60 15 -38 22 -38 37 3 16 46 15 103 -5 157 -9 25 -19 63 -23 85 -5 22 -15 66
-24 98 -9 32 -16 66 -16 76 0 9 -8 26 -17 37 -10 11 -28 37 -40 59 -24 45 -33
51 -51 33z m38 -190 c6 -18 19 -49 27 -70 8 -20 13 -42 11 -50 -3 -7 -1 -24 4
-37 10 -27 -5 -51 -31 -51 -9 0 -27 -9 -41 -20 -14 -11 -33 -20 -42 -20 -10 0
-18 -4 -18 -10 0 -15 -47 -12 -53 3 -2 6 -3 27 -1 45 3 25 0 32 -13 32 -14 0
-13 3 5 16 12 8 22 22 22 30 0 13 18 52 30 64 3 3 21 26 40 52 19 26 38 48 41
48 4 0 12 -15 19 -32z m-107 -738 c26 -6 83 -10 125 -10 42 0 94 -3 115 -6 34
-6 37 -9 37 -40 0 -59 -25 -73 -122 -69 -46 2 -139 6 -208 10 -194 8 -310 25
-331 46 -20 20 -26 75 -9 81 22 7 348 -3 393 -12z"/>
</g>
</svg>
