<svg version="1.0" xmlns="http://www.w3.org/2000/svg"
 width="107.000000pt" height="109.000000pt" viewBox="0 0 107.000000 109.000000"
 preserveAspectRatio="xMidYMid meet">
<metadata>
Created by potrace 1.15, written by Peter Selinger 2001-2017
</metadata>
<g transform="translate(0.000000,109.000000) scale(0.100000,-0.100000)"
fill="#000000" stroke="none">
<path d="M483 1003 c-7 -2 -13 -11 -13 -19 0 -8 -4 -14 -10 -14 -5 0 -10 -12
-10 -26 0 -24 -64 -158 -93 -194 -57 -72 -275 -219 -325 -220 -24 0 -8 -35 18
-38 14 -2 29 -8 35 -13 5 -5 17 -9 27 -9 14 0 18 -8 19 -32 1 -53 10 -281 12
-306 3 -31 34 -49 53 -30 12 12 13 47 5 218 -10 203 -10 203 17 227 15 12 30
23 34 23 10 0 63 46 102 89 79 86 126 131 136 131 6 0 43 -31 82 -70 40 -38
76 -70 80 -70 5 0 19 -9 30 -20 12 -11 45 -28 74 -37 37 -11 56 -23 64 -42 8
-16 14 -91 16 -201 2 -96 7 -201 10 -233 6 -50 10 -58 31 -63 13 -4 27 -3 30
0 4 4 6 117 6 252 -1 246 -1 246 20 239 12 -4 39 -10 60 -12 36 -5 38 -4 35
18 -4 28 -52 57 -95 58 -37 1 -59 9 -170 63 -139 68 -220 158 -238 264 -13 76
-15 79 -42 67z"/>
<path d="M646 454 c-3 -9 -6 -35 -6 -59 0 -24 -4 -46 -9 -50 -19 -11 -166 -17
-201 -8 -30 8 -36 14 -41 46 -3 20 -12 43 -19 53 -13 15 -16 14 -31 -5 -14
-18 -16 -35 -12 -99 10 -145 48 -225 121 -253 32 -12 119 -11 127 1 3 6 17 10
30 10 40 0 63 47 90 182 10 49 11 84 5 125 -6 32 -10 61 -10 66 0 14 -38 7
-44 -9z m-28 -183 c18 -1 15 -29 -9 -79 -28 -56 -55 -69 -111 -53 -53 16 -64
28 -73 79 -7 44 -11 41 58 55 7 2 105 0 135 -2z"/>
</g>
</svg>
