<svg version="1.0" xmlns="http://www.w3.org/2000/svg"
 width="83.000000pt" height="87.000000pt" viewBox="0 0 83.000000 87.000000"
 preserveAspectRatio="xMidYMid meet">
<metadata>
Created by potrace 1.15, written by Peter Selinger 2001-2017
</metadata>
<g transform="translate(0.000000,87.000000) scale(0.100000,-0.100000)"
fill="#000000" stroke="none">
<path d="M363 763 c-7 -2 -13 -18 -13 -35 0 -16 -6 -36 -14 -43 -17 -17 -91
-51 -131 -60 -16 -3 -53 -17 -80 -31 -76 -37 -81 -54 -91 -321 -6 -167 -5
-194 9 -207 28 -29 47 -9 47 50 0 84 20 307 29 329 5 11 14 34 21 51 9 24 24
37 68 56 31 14 68 29 82 33 14 4 31 12 39 19 21 17 142 9 210 -14 33 -11 73
-20 90 -20 19 0 34 -8 44 -24 18 -28 37 -128 37 -199 0 -27 5 -57 10 -68 6
-10 12 -63 14 -116 2 -54 5 -101 5 -105 1 -5 12 -8 25 -8 47 0 49 13 42 255
-4 124 -11 237 -15 252 -8 32 -76 74 -126 79 -50 5 -167 34 -197 50 -16 8 -36
30 -45 49 -16 33 -31 40 -60 28z"/>
<path d="M523 493 c-8 -3 -13 -23 -13 -53 0 -63 -14 -73 -108 -76 -80 -2 -98
5 -115 49 -10 28 -34 20 -41 -14 -8 -40 -8 -173 0 -222 15 -85 118 -135 206
-100 44 18 86 63 94 101 3 15 9 45 14 67 23 106 33 214 21 229 -13 16 -40 25
-58 19z m-33 -196 c0 -1 -6 -33 -14 -70 -19 -91 -54 -116 -119 -86 -35 16 -49
48 -44 100 4 44 4 44 48 50 47 6 129 11 129 6z"/>
</g>
</svg>
