<svg version="1.0" xmlns="http://www.w3.org/2000/svg"
 width="129.000000pt" height="135.000000pt" viewBox="0 0 129.000000 135.000000"
 preserveAspectRatio="xMidYMid meet">
<metadata>
Created by potrace 1.15, written by Peter Selinger 2001-2017
</metadata>
<g transform="translate(0.000000,135.000000) scale(0.100000,-0.100000)"
fill="#000000" stroke="none">
<path d="M1086 1178 c-9 -12 -16 -28 -16 -34 0 -7 -4 -14 -8 -16 -4 -1 -20
-24 -35 -50 -15 -26 -33 -53 -40 -60 -7 -7 -26 -30 -42 -52 -29 -38 -29 -38
-37 -10 -5 19 -3 33 7 44 19 21 19 50 1 50 -15 0 -26 42 -26 101 0 57 -14 47
-29 -21 -7 -33 -20 -65 -27 -71 -10 -8 -37 -9 -87 -5 -39 4 -88 8 -107 9 -28
2 -38 8 -49 32 -8 16 -15 25 -17 20 -1 -6 -5 -22 -8 -37 -6 -28 -6 -28 -95
-28 -109 0 -121 4 -121 40 0 15 -6 43 -14 61 -14 34 -14 34 -21 -6 -15 -91
-16 -95 -36 -95 -10 0 -19 7 -19 15 0 30 -54 115 -64 104 -2 -2 1 -27 7 -55
12 -61 6 -84 -26 -84 -52 0 -38 -35 19 -46 30 -5 34 -10 34 -38 1 -17 3 -47 6
-67 5 -36 5 -36 -53 -42 -72 -6 -157 -41 -130 -52 10 -4 48 -5 83 -2 69 7 110
-5 118 -32 12 -41 18 -239 7 -245 -6 -4 -36 31 -73 89 -35 52 -69 95 -75 95
-7 0 -13 -3 -13 -6 0 -13 82 -174 95 -187 7 -8 25 -37 40 -65 32 -61 30 -66
-52 -119 -52 -33 -133 -104 -133 -116 0 -4 9 -7 20 -7 11 0 20 5 20 10 0 6 6
10 13 10 7 0 22 9 34 19 17 16 99 61 111 61 2 0 1 -21 -2 -47 -3 -27 -9 -81
-12 -121 -10 -123 25 -78 46 58 20 133 15 129 64 63 76 -103 148 -164 119
-100 -6 12 -16 33 -22 47 -16 35 -52 94 -61 100 -11 7 -60 107 -60 123 0 7 45
59 100 115 55 56 100 104 100 107 0 22 -79 -28 -154 -97 -52 -50 -57 -42 -54
94 3 123 3 123 58 126 30 1 83 0 116 -3 62 -6 62 -6 69 -68 10 -87 9 -143 -4
-212 -6 -33 -14 -89 -17 -123 -6 -58 -5 -64 11 -60 18 3 21 11 56 171 13 59
13 59 31 35 9 -12 18 -29 18 -35 0 -7 4 -13 9 -13 5 0 11 -10 13 -21 2 -12 13
-28 25 -36 21 -14 23 -14 30 3 6 16 -68 180 -88 194 -9 6 -28 85 -29 118 0 21
3 22 84 22 47 0 88 -4 91 -10 3 -5 22 -10 41 -10 27 0 34 -4 34 -20 0 -21 -17
-25 -92 -21 -22 2 -38 -2 -38 -8 0 -16 61 -52 85 -50 44 3 53 -2 64 -32 12
-36 9 -42 -51 -97 -42 -38 -50 -63 -18 -55 11 3 20 9 20 14 0 5 6 9 13 9 8 0
22 9 32 20 25 27 33 25 43 -12 4 -17 18 -38 30 -46 22 -14 22 -14 22 32 0 43
2 46 25 46 14 0 45 -9 67 -20 23 -11 44 -18 46 -15 9 9 -38 52 -81 74 -60 32
-73 43 -80 72 -6 22 -2 27 31 38 39 13 72 27 135 56 38 18 97 90 97 119 0 9 4
16 8 16 5 0 14 25 21 56 11 46 11 61 0 80 -7 13 -15 24 -19 24 -3 0 -12 -21
-19 -47 -8 -27 -17 -52 -21 -58 -4 -5 -13 -26 -20 -45 -22 -58 -59 -99 -113
-125 -51 -25 -117 -33 -117 -15 0 6 9 10 20 10 29 0 25 26 -10 60 -16 16 -30
36 -30 45 0 12 83 130 110 155 6 6 18 33 46 99 10 24 31 57 46 73 22 24 26 34
17 44 -16 19 -25 18 -43 -8z m-532 -179 c11 -10 -6 -178 -18 -182 -6 -2 -55 1
-109 6 -99 10 -99 10 -93 46 3 20 9 54 12 77 5 32 12 43 32 50 29 10 167 12
176 3z m275 -5 c5 -5 12 -53 15 -107 7 -99 7 -99 -113 -95 -69 2 -125 8 -131
14 -7 7 -9 41 -4 104 7 92 7 92 43 87 20 -2 45 0 56 4 25 11 123 6 134 -7z"/>
</g>
</svg>
