<svg version="1.0" xmlns="http://www.w3.org/2000/svg"
 width="61.000000pt" height="85.000000pt" viewBox="0 0 61.000000 85.000000"
 preserveAspectRatio="xMidYMid meet">
<metadata>
Created by potrace 1.15, written by Peter Selinger 2001-2017
</metadata>
<g transform="translate(0.000000,85.000000) scale(0.100000,-0.100000)"
fill="#000000" stroke="none">
<path d="M277 684 c-4 -4 -7 -30 -7 -57 0 -49 0 -49 -52 -42 -29 4 -54 11 -56
15 -19 49 -62 50 -62 1 0 -44 25 -63 77 -59 39 3 43 1 41 -17 -2 -16 -12 -21
-53 -23 -27 -2 -55 -8 -62 -14 -15 -12 -19 -414 -4 -437 21 -33 31 4 31 118 0
83 4 122 13 129 7 6 81 12 172 14 160 3 160 3 163 -25 3 -25 1 -27 -32 -27
-26 0 -36 4 -36 16 0 26 -23 10 -45 -30 -19 -38 -19 -38 -31 -4 -15 46 -28 41
-35 -12 -5 -45 -5 -45 -14 -2 -11 58 -29 54 -22 -5 5 -44 -8 -93 -24 -93 -4 0
-10 34 -14 75 -8 81 -25 103 -25 31 0 -46 -13 -68 -24 -40 -3 9 -6 27 -6 40 0
15 -6 24 -16 24 -12 0 -14 -8 -9 -47 9 -67 12 -73 34 -73 21 0 33 -37 28 -90
-3 -37 27 -33 31 4 2 16 10 35 18 43 7 8 19 22 26 32 17 24 96 62 104 50 3 -5
-11 -32 -30 -59 -36 -50 -44 -70 -27 -70 23 0 42 15 62 46 17 28 24 32 35 23
8 -6 14 -17 14 -25 0 -18 20 -28 32 -16 8 8 4 22 -14 49 -25 38 -25 38 -3 71
22 32 22 32 29 -55 6 -88 15 -111 35 -99 12 8 14 219 2 271 -6 30 -7 30 -76
30 -65 0 -70 2 -73 22 -3 21 1 22 65 25 68 3 68 3 71 37 2 19 1 45 -3 59 -6
23 -9 24 -65 20 -55 -4 -59 -3 -63 19 -4 21 -1 23 39 23 58 0 86 27 82 78 -2
29 -7 37 -23 37 -15 0 -21 -8 -25 -35 -5 -34 -7 -35 -63 -44 -31 -5 -60 -6
-64 -2 -4 4 -10 28 -13 53 -5 44 -18 62 -33 47z m53 -160 c0 -23 -3 -25 -32
-22 -25 2 -34 8 -36 26 -3 19 1 22 32 22 32 0 36 -3 36 -26z m10 -64 c0 -21
-27 -40 -59 -40 -17 0 -21 6 -21 30 0 28 2 30 40 30 33 0 40 -3 40 -20z m118
-7 c3 -21 -1 -23 -42 -23 -43 0 -46 2 -46 26 0 23 3 25 43 22 35 -2 43 -7 45
-25z m-238 -3 c0 -38 -83 -41 -88 -2 -3 20 1 22 42 22 39 0 46 -3 46 -20z m0
-84 c0 -26 -16 -36 -61 -36 -24 0 -29 4 -29 23 0 32 7 37 52 37 33 0 38 -3 38
-24z m110 -1 c0 -22 -4 -25 -35 -25 -31 0 -35 3 -35 25 0 22 4 25 35 25 31 0
35 -3 35 -25z m90 -150 c-7 -8 -16 -12 -21 -9 -13 8 -1 24 18 24 13 0 13 -3 3
-15z"/>
</g>
</svg>
