<svg version="1.0" xmlns="http://www.w3.org/2000/svg"
 width="67.000000pt" height="84.000000pt" viewBox="0 0 67.000000 84.000000"
 preserveAspectRatio="xMidYMid meet">
<metadata>
Created by potrace 1.15, written by Peter Selinger 2001-2017
</metadata>
<g transform="translate(0.000000,84.000000) scale(0.100000,-0.100000)"
fill="#000000" stroke="none">
<path d="M455 688 c-2 -7 -6 -35 -7 -63 -3 -50 -3 -50 -53 -55 -98 -10 -103
-38 -7 -42 67 -3 67 -3 67 -43 0 -39 -1 -40 -42 -50 -53 -13 -73 -30 -45 -39
20 -7 221 10 230 19 2 2 2 11 -1 19 -5 12 -16 14 -52 9 -46 -6 -46 -6 -43 43
3 49 3 49 58 59 37 7 55 15 55 25 0 12 -14 15 -60 15 -60 0 -60 0 -60 55 0 44
-3 55 -18 58 -9 2 -19 -2 -22 -10z"/>
<path d="M128 634 c-4 -3 -4 -35 -1 -70 6 -64 6 -64 -25 -70 -36 -7 -59 -28
-43 -39 6 -3 19 -1 30 5 36 18 51 12 51 -21 0 -23 -12 -43 -50 -83 -27 -29
-50 -56 -50 -59 0 -15 33 -5 64 18 79 60 98 15 55 -131 -11 -37 -10 -47 11
-99 21 -51 43 -76 55 -63 3 3 -4 31 -15 64 -22 61 -22 134 0 173 18 34 11 69
-21 106 -30 34 -31 36 -16 72 8 20 19 39 24 40 6 2 20 -24 32 -57 21 -56 43
-82 58 -67 3 4 -2 24 -11 47 -18 46 -21 141 -5 171 6 12 8 28 4 37 -6 15 -10
13 -31 -11 -13 -15 -24 -39 -24 -53 0 -17 -5 -24 -20 -24 -22 0 -40 28 -40 62
0 27 -22 63 -32 52z"/>
<path d="M573 342 c-6 -4 -15 -20 -18 -35 -7 -25 -11 -27 -55 -27 -26 0 -61
-3 -79 -6 -27 -6 -32 -3 -41 20 -10 27 -24 33 -36 15 -3 -6 -3 -45 1 -87 6
-65 11 -80 36 -105 28 -27 34 -29 94 -25 49 3 70 9 88 26 34 32 49 91 41 162
-7 63 -12 73 -31 62z m-15 -125 c2 -10 -1 -31 -8 -47 -10 -24 -19 -29 -63 -34
-48 -7 -54 -5 -74 19 -22 25 -30 65 -16 79 4 4 41 5 82 4 64 -3 76 -6 79 -21z"/>
</g>
</svg>
