<svg version="1.0" xmlns="http://www.w3.org/2000/svg"
 width="97.000000pt" height="83.000000pt" viewBox="0 0 97.000000 83.000000"
 preserveAspectRatio="xMidYMid meet">
<metadata>
Created by potrace 1.15, written by Peter Selinger 2001-2017
</metadata>
<g transform="translate(0.000000,83.000000) scale(0.100000,-0.100000)"
fill="#000000" stroke="none">
<path d="M556 742 c-10 -17 -5 -226 6 -267 36 -125 147 -197 311 -203 50 -2
77 0 77 7 0 6 -9 11 -19 11 -11 0 -21 5 -23 11 -2 6 -22 13 -43 15 -90 6 -237
99 -250 157 -2 12 -6 58 -8 102 -5 110 -32 198 -51 167z"/>
<path d="M349 688 c0 -13 0 -51 1 -85 1 -33 -3 -78 -9 -100 -10 -36 -73 -113
-93 -113 -5 0 -16 -6 -24 -14 -14 -14 -77 -40 -124 -50 -34 -8 -56 -23 -46
-33 12 -12 111 -7 149 7 95 37 124 54 147 87 66 96 69 108 49 217 -12 66 -28
106 -41 106 -4 0 -8 -10 -9 -22z"/>
<path d="M367 260 c-16 -5 -35 -14 -42 -20 -8 -7 -19 -9 -25 -5 -6 4 -10 -5
-10 -22 0 -16 -5 -34 -10 -39 -14 -14 26 -91 60 -116 32 -23 126 -47 159 -41
14 2 44 16 67 30 31 20 45 38 62 82 38 99 36 103 -78 127 -72 15 -140 17 -183
4z m215 -64 c17 -25 3 -62 -38 -103 -51 -51 -156 -22 -183 50 -12 32 19 64 69
70 52 7 144 -3 152 -17z"/>
</g>
</svg>
