<svg version="1.0" xmlns="http://www.w3.org/2000/svg"
 width="59.000000pt" height="77.000000pt" viewBox="0 0 59.000000 77.000000"
 preserveAspectRatio="xMidYMid meet">
<metadata>
Created by potrace 1.15, written by Peter Selinger 2001-2017
</metadata>
<g transform="translate(0.000000,77.000000) scale(0.100000,-0.100000)"
fill="#000000" stroke="none">
<path d="M506 710 c-10 -18 -25 -40 -32 -47 -35 -35 -54 -194 -34 -279 7 -30
11 -56 9 -58 -2 -2 -57 -6 -122 -10 -118 -6 -118 -6 -116 52 4 98 -20 179 -64
224 -46 47 -63 49 -39 6 34 -62 45 -114 40 -185 -6 -77 -22 -119 -48 -126 -13
-3 -20 -19 -25 -57 -6 -44 -4 -56 14 -81 12 -15 21 -33 21 -39 0 -19 48 -60
96 -80 93 -40 264 -14 324 50 33 36 42 71 37 149 -2 40 -9 58 -25 71 -33 27
-69 259 -42 275 6 3 10 21 10 39 0 17 5 37 11 43 6 6 9 28 7 49 -3 39 -3 39
-22 4z m-12 -445 c19 -20 20 -43 2 -110 -18 -70 -42 -82 -163 -84 -144 -2
-169 10 -193 98 -20 74 2 91 125 100 181 14 212 13 229 -4z"/>
</g>
</svg>
