<svg version="1.0" xmlns="http://www.w3.org/2000/svg"
 width="61.000000pt" height="51.000000pt" viewBox="0 0 61.000000 51.000000"
 preserveAspectRatio="xMidYMid meet">
<metadata>
Created by potrace 1.15, written by Peter Selinger 2001-2017
</metadata>
<g transform="translate(0.000000,51.000000) scale(0.100000,-0.100000)"
fill="#000000" stroke="none">
<path d="M555 458 c-26 -15 -60 -54 -75 -87 -7 -14 -16 -33 -20 -41 -6 -12
-32 -16 -126 -18 -119 -2 -119 -2 -148 43 -30 48 -74 79 -100 69 -9 -3 -16
-10 -16 -14 0 -10 43 -93 52 -100 3 -3 11 -52 17 -109 11 -110 21 -135 74
-175 22 -16 42 -20 111 -20 47 1 98 7 114 13 45 19 70 86 71 189 0 57 6 97 20
130 10 26 24 62 31 80 7 17 16 32 21 32 5 0 9 5 9 10 0 13 -10 12 -35 -2z
m-109 -211 c3 -2 -1 -37 -7 -76 -14 -85 -38 -111 -101 -111 -80 0 -138 51
-138 122 0 52 13 62 82 68 68 6 157 5 164 -3z"/>
</g>
</svg>
