<svg version="1.0" xmlns="http://www.w3.org/2000/svg"
 width="81.000000pt" height="119.000000pt" viewBox="0 0 81.000000 119.000000"
 preserveAspectRatio="xMidYMid meet">
<metadata>
Created by potrace 1.15, written by Peter Selinger 2001-2017
</metadata>
<g transform="translate(0.000000,119.000000) scale(0.100000,-0.100000)"
fill="#000000" stroke="none">
<path d="M526 998 c-8 -64 -9 -225 0 -287 18 -135 123 -264 245 -304 9 -3 22
-2 29 3 9 6 -10 31 -69 90 -44 46 -81 89 -81 97 0 7 -4 13 -8 13 -5 0 -15 19
-22 43 -7 23 -16 53 -21 67 -13 42 -29 165 -29 232 0 58 -11 88 -31 88 -4 0
-9 -19 -13 -42z"/>
<path d="M248 1016 c-19 -14 -24 -46 -8 -46 6 0 10 -44 10 -112 0 -102 -8
-155 -31 -200 -5 -10 -9 -23 -9 -28 0 -6 -9 -30 -20 -52 -11 -23 -20 -46 -20
-50 0 -5 -4 -14 -10 -21 -59 -72 -117 -157 -107 -157 2 0 17 6 33 14 16 8 41
19 57 25 30 12 106 120 130 187 37 99 41 131 42 275 0 137 -2 149 -20 163 -24
19 -26 19 -47 2z"/>
<path d="M390 373 c-14 -2 -29 -9 -34 -14 -6 -5 -18 -9 -27 -9 -25 0 -88 -77
-95 -118 -14 -72 30 -170 83 -189 85 -30 95 -32 156 -22 84 14 117 28 117 49
0 10 4 20 10 22 14 4 50 106 50 140 0 27 -14 60 -36 84 -37 41 -155 71 -224
57z m158 -88 c16 -18 22 -36 22 -68 0 -37 -6 -50 -40 -85 -39 -41 -40 -42
-108 -42 -88 0 -109 15 -118 85 -5 42 -2 54 16 77 19 24 60 49 98 60 37 10
108 -5 130 -27z"/>
</g>
</svg>
