<svg version="1.0" xmlns="http://www.w3.org/2000/svg"
 width="63.000000pt" height="91.000000pt" viewBox="0 0 63.000000 91.000000"
 preserveAspectRatio="xMidYMid meet">
<metadata>
Created by potrace 1.15, written by Peter Selinger 2001-2017
</metadata>
<g transform="translate(0.000000,91.000000) scale(0.100000,-0.100000)"
fill="#000000" stroke="none">
<path d="M175 803 c11 -130 12 -174 4 -179 -5 -3 -9 -21 -9 -40 0 -19 -4 -34
-10 -34 -5 0 -10 -9 -10 -20 0 -11 -4 -20 -10 -20 -5 0 -10 -7 -10 -15 0 -8
-9 -24 -19 -34 -22 -22 -41 -55 -41 -70 0 -19 58 -12 78 10 32 34 80 140 91
204 15 84 16 232 1 250 -7 8 -26 15 -42 15 -29 0 -29 0 -23 -67z"/>
<path d="M398 822 c-9 -15 -19 -43 -22 -62 -9 -50 17 -249 37 -289 9 -19 17
-38 17 -43 0 -5 24 -34 54 -65 44 -44 63 -56 95 -60 28 -4 41 -2 41 6 0 13
-43 60 -70 77 -17 10 -49 56 -67 94 -12 26 -17 52 -33 175 -14 110 -26 185
-31 190 -3 2 -12 -8 -21 -23z"/>
<path d="M265 338 c-81 -26 -135 -63 -135 -91 0 -9 -5 -19 -10 -22 -25 -15 -4
-155 23 -155 6 0 21 -9 33 -21 12 -11 36 -21 53 -21 18 -1 34 -5 37 -10 7 -11
91 -10 137 3 94 26 142 131 98 217 -41 81 -151 128 -236 100z m131 -84 c60
-28 67 -74 23 -136 -16 -21 -28 -28 -55 -28 -19 0 -34 -4 -34 -9 0 -14 -104
18 -118 36 -6 9 -12 34 -12 56 0 29 7 45 29 68 25 25 37 29 81 29 29 0 67 -7
86 -16z"/>
</g>
</svg>
