<svg version="1.0" xmlns="http://www.w3.org/2000/svg"
 width="68.000000pt" height="80.000000pt" viewBox="0 0 68.000000 80.000000"
 preserveAspectRatio="xMidYMid meet">
<metadata>
Created by potrace 1.15, written by Peter Selinger 2001-2017
</metadata>
<g transform="translate(0.000000,80.000000) scale(0.100000,-0.100000)"
fill="#000000" stroke="none">
<path d="M128 684 c-12 -12 -9 -79 4 -92 7 -7 22 -12 35 -12 32 0 29 -17 -7
-35 -32 -17 -50 -43 -50 -74 0 -30 12 -25 35 12 11 18 35 38 52 46 58 26 53
72 -8 85 -44 9 -31 30 21 34 51 4 60 -6 60 -65 0 -38 -4 -44 -50 -77 -76 -55
-86 -77 -94 -213 -5 -88 -10 -119 -21 -126 -8 -4 -15 -18 -15 -31 0 -13 -7
-29 -15 -36 -22 -18 -20 -80 3 -80 50 1 80 78 93 242 12 168 17 179 91 217 37
18 46 42 47 121 1 79 -5 84 -96 88 -43 2 -81 0 -85 -4z"/>
<path d="M386 677 c-49 -36 -20 -179 42 -211 54 -28 72 -61 72 -132 0 -34 7
-91 15 -126 18 -78 71 -188 91 -188 25 0 27 28 5 62 -42 67 -52 104 -62 226
-10 133 -18 155 -61 173 -49 20 -88 68 -88 109 0 20 5 41 12 48 14 14 67 16
88 2 13 -8 13 -10 -1 -10 -22 0 -49 -32 -49 -57 0 -25 16 -39 54 -49 16 -4 36
-19 45 -35 19 -35 41 -38 41 -6 0 26 -33 61 -67 72 -32 9 -29 33 4 37 17 2 33
13 42 30 14 24 14 28 -3 47 -16 18 -31 21 -91 21 -43 0 -78 -5 -89 -13z"/>
<path d="M330 461 c0 -11 14 -29 30 -41 17 -12 30 -28 30 -36 0 -16 -31 -19
-47 -3 -5 5 -34 9 -64 7 -46 -3 -55 -7 -69 -30 -20 -37 -6 -59 51 -77 65 -21
78 -45 29 -55 -40 -8 -82 -50 -78 -78 2 -12 19 -33 38 -46 31 -21 42 -23 100
-17 102 10 144 49 115 105 -17 33 -21 35 -76 44 -29 5 -38 12 -43 32 -5 18
-20 31 -52 45 -82 37 -25 59 73 28 34 -10 44 -10 57 0 29 25 19 57 -33 100
-55 47 -61 49 -61 22z m80 -281 c13 -8 13 -11 -2 -26 -22 -22 -112 -31 -134
-13 -14 11 -13 15 8 31 25 19 103 24 128 8z"/>
</g>
</svg>
