<svg version="1.0" xmlns="http://www.w3.org/2000/svg"
 width="89.000000pt" height="99.000000pt" viewBox="0 0 89.000000 99.000000"
 preserveAspectRatio="xMidYMid meet">
<metadata>
Created by potrace 1.15, written by Peter Selinger 2001-2017
</metadata>
<g transform="translate(0.000000,99.000000) scale(0.100000,-0.100000)"
fill="#000000" stroke="none">
<path d="M548 758 c-3 -111 -3 -111 -33 -115 -16 -1 -47 -5 -67 -7 -43 -5 -41
-9 -38 90 2 74 -19 139 -42 132 -16 -6 -21 -157 -6 -185 15 -29 8 -35 -50 -44
-26 -3 -61 -10 -78 -14 -29 -6 -32 -5 -38 22 -4 15 -7 60 -8 98 -1 69 -13 115
-30 115 -8 0 -12 -25 -10 -70 6 -162 5 -202 -4 -208 -44 -30 -83 -170 -64
-230 15 -44 57 -92 81 -92 26 0 29 -10 30 -96 0 -100 8 -144 24 -144 15 0 25
42 32 135 2 39 8 73 11 77 4 3 35 9 68 13 71 7 70 9 80 -110 6 -72 21 -118 36
-109 4 3 8 50 8 105 0 112 5 122 63 132 38 6 74 -14 61 -34 -3 -6 -1 -15 5
-22 5 -7 11 -47 12 -90 2 -79 13 -103 43 -91 12 5 16 19 16 58 0 28 -4 57 -8
64 -11 17 2 112 16 121 6 4 33 4 59 1 48 -5 48 -5 60 -60 6 -30 12 -76 12
-101 1 -32 6 -49 16 -53 26 -10 34 27 28 134 -4 82 -9 111 -24 132 -19 27 -19
29 2 115 24 103 40 154 51 168 13 15 9 30 -11 54 -16 19 -20 38 -19 111 0 94
-4 110 -29 110 -12 0 -15 -14 -13 -82 2 -46 2 -90 1 -99 -2 -23 -44 -39 -105
-39 -50 0 -54 2 -61 28 -4 15 -9 54 -11 87 -5 69 -20 105 -45 105 -16 0 -19
-12 -21 -112z m99 -162 c-3 -8 -9 -32 -12 -53 -9 -47 -64 -215 -76 -227 -4 -5
-30 -12 -56 -17 -36 -5 -52 -4 -63 7 -10 10 -10 14 -2 14 7 0 12 7 12 15 0 9
7 27 16 40 8 13 18 39 20 57 12 89 28 121 73 150 49 30 97 38 88 14z m158 -13
c-3 -16 -9 -46 -12 -68 -3 -22 -9 -44 -14 -49 -5 -6 -9 -18 -9 -28 0 -10 -4
-26 -9 -36 -5 -9 -13 -29 -19 -43 -8 -21 -20 -28 -68 -37 -63 -13 -70 -11 -59
15 5 10 10 31 12 46 2 16 13 49 24 73 10 25 19 51 19 57 0 6 9 30 21 54 20 42
22 43 71 43 50 0 50 0 43 -27z m-350 -25 c-26 -141 -61 -257 -79 -270 -6 -4
-35 -8 -65 -8 -51 0 -53 1 -46 23 4 12 12 41 18 65 5 23 14 42 17 42 9 0 25
41 40 100 14 53 43 79 88 80 32 0 33 -1 27 -32z m-165 -14 c0 -31 -20 -105
-32 -118 -4 -6 -8 -17 -8 -25 0 -9 -9 -27 -20 -41 -11 -14 -20 -33 -20 -42 0
-26 -24 -22 -60 9 -31 25 -32 28 -25 82 11 88 72 157 143 160 17 1 22 -4 22
-25z"/>
</g>
</svg>
