<svg version="1.0" xmlns="http://www.w3.org/2000/svg"
 width="81.000000pt" height="99.000000pt" viewBox="0 0 81.000000 99.000000"
 preserveAspectRatio="xMidYMid meet">
<metadata>
Created by potrace 1.15, written by Peter Selinger 2001-2017
</metadata>
<g transform="translate(0.000000,99.000000) scale(0.100000,-0.100000)"
fill="#000000" stroke="none">
<path d="M695 858 c-3 -7 -6 -65 -7 -128 -3 -115 -3 -115 -70 -118 -68 -3 -68
-3 -68 86 0 75 -3 92 -19 106 -19 17 -20 17 -30 -3 -6 -11 -11 -41 -12 -68 0
-26 -3 -66 -7 -88 -7 -37 -10 -40 -47 -48 -86 -17 -80 -22 -77 75 3 86 -13
148 -38 148 -9 0 -21 -62 -21 -110 -1 -14 -3 -50 -6 -82 -5 -55 -5 -56 -40
-63 -19 -3 -41 -9 -49 -12 -11 -4 -13 0 -5 19 10 27 8 174 -4 201 -4 9 -16 17
-26 17 -17 0 -19 -9 -21 -77 -1 -97 -2 -100 -10 -108 -4 -4 -2 -18 5 -32 8
-18 8 -29 -1 -44 -7 -10 -12 -23 -12 -29 0 -6 -8 -23 -17 -37 -10 -15 -23 -54
-29 -87 -10 -54 -9 -65 7 -98 21 -40 54 -68 81 -68 16 0 23 -11 19 -32 -3 -24
23 -107 36 -112 28 -11 35 5 28 63 -8 68 -1 76 68 83 47 6 47 6 47 -43 0 -46
16 -99 30 -99 20 0 30 31 30 92 0 68 0 68 38 68 20 0 47 3 60 6 20 6 22 3 22
-28 0 -19 5 -39 12 -46 8 -8 8 -15 -2 -27 -10 -12 -9 -20 4 -41 29 -43 41 -25
41 60 0 86 6 96 68 96 34 0 37 -2 37 -29 0 -17 5 -33 11 -37 6 -3 8 -16 4 -28
-14 -48 -14 -59 1 -74 32 -32 41 16 44 252 1 81 5 158 9 169 8 22 -4 85 -20
102 -5 5 -9 57 -9 115 0 101 -1 107 -25 128 -18 16 -27 19 -30 10z m-81 -306
c3 -5 -11 -53 -29 -108 -19 -54 -35 -111 -35 -125 0 -23 -5 -27 -39 -33 -49
-8 -74 1 -66 23 4 9 11 36 17 61 33 147 34 148 78 172 37 19 66 23 74 10z
m115 -109 c-2 -137 -11 -155 -77 -151 -47 3 -47 3 -44 38 2 19 13 53 23 74 10
22 19 50 19 63 0 13 5 23 10 23 6 0 10 5 10 12 0 16 31 48 46 48 11 0 14 -24
13 -107z m-299 68 c0 -15 -4 -41 -9 -57 -5 -16 -19 -63 -32 -106 -22 -76 -22
-76 -68 -80 -25 -3 -47 -4 -49 -3 -1 1 5 33 14 71 8 38 18 83 20 99 10 57 36
94 69 98 16 2 36 5 43 5 7 1 12 -10 12 -27z m-170 -48 c0 -16 -5 -44 -10 -63
-34 -133 -35 -135 -58 -138 -13 -2 -29 1 -36 8 -19 15 -31 99 -17 113 6 6 11
19 11 28 0 18 75 79 97 79 8 0 13 -11 13 -27z"/>
</g>
</svg>
