<svg version="1.0" xmlns="http://www.w3.org/2000/svg"
 width="91.000000pt" height="215.000000pt" viewBox="0 0 91.000000 215.000000"
 preserveAspectRatio="xMidYMid meet">
<metadata>
Created by potrace 1.15, written by Peter Selinger 2001-2017
</metadata>
<g transform="translate(0.000000,215.000000) scale(0.100000,-0.100000)"
fill="#000000" stroke="none">
<path d="M603 1919 c-1 -55 -21 -109 -63 -173 -31 -48 -49 -146 -37 -201 11
-48 49 -135 60 -135 10 0 9 -64 -2 -76 -11 -13 -31 -118 -31 -169 0 -84 65
-175 125 -175 8 0 15 -4 15 -9 0 -10 -89 -18 -280 -25 -94 -4 -109 -3 -81 6
24 9 37 21 48 47 7 20 18 44 23 53 25 45 4 166 -44 253 -14 25 -26 52 -26 59
0 7 13 37 29 67 43 80 55 145 41 216 -16 82 -29 114 -62 149 -19 20 -26 36
-22 48 7 18 -22 106 -36 106 -10 0 -20 -26 -20 -53 0 -43 -21 -95 -50 -128
-73 -82 -75 -209 -8 -346 29 -60 30 -64 15 -95 -41 -89 -47 -113 -47 -196 0
-100 19 -140 82 -168 50 -22 41 -32 -25 -26 -57 4 -117 -17 -117 -42 0 -31 48
-40 223 -38 95 0 199 4 232 7 33 3 92 5 132 5 70 -1 72 -1 87 29 22 41 20 50
-9 63 -30 14 -31 22 -5 50 17 18 20 36 20 103 0 92 -11 131 -51 191 -34 50
-43 89 -24 108 8 7 24 42 35 77 18 53 20 69 11 105 -6 24 -11 58 -11 76 0 23
-10 45 -30 68 -26 32 -29 42 -30 106 0 60 -3 74 -23 92 -34 32 -42 27 -44 -29z
m-328 -201 c32 -94 36 -179 11 -230 -31 -65 -55 -43 -86 79 -11 44 -11 59 0
95 13 40 43 78 60 78 4 0 11 -10 15 -22z m377 -34 c10 -27 18 -68 18 -91 0
-46 -36 -123 -57 -123 -36 0 -60 180 -30 233 28 51 46 46 69 -19z m-358 -429
c52 -102 44 -216 -16 -223 -64 -8 -91 120 -47 227 12 28 25 51 28 51 4 0 19
-25 35 -55z m374 28 c63 -92 53 -245 -15 -227 -13 4 -23 13 -23 20 0 8 -3 14
-7 14 -15 0 -33 54 -33 96 0 40 35 124 51 124 4 0 16 -12 27 -27z m44 -305
c-9 -9 -15 -9 -24 0 -9 9 -7 12 12 12 19 0 21 -3 12 -12z"/>
<path d="M213 775 c-24 -30 -43 -61 -43 -69 0 -9 -4 -16 -10 -16 -5 0 -10 -9
-10 -20 0 -11 -4 -20 -9 -20 -11 0 -22 -83 -15 -119 3 -16 24 -49 45 -72 36
-40 52 -89 29 -89 -14 0 -46 -75 -55 -128 -9 -58 1 -95 39 -136 26 -29 40 -36
69 -36 24 0 43 7 55 20 9 10 28 31 41 45 20 23 23 34 19 88 -4 56 -30 134 -50
148 -7 5 10 67 22 79 15 15 30 84 30 136 0 45 -7 73 -30 119 -16 33 -30 67
-30 76 0 13 -41 51 -52 48 -2 0 -22 -24 -45 -54z m71 -115 c21 -43 24 -101 7
-142 -14 -37 -52 -38 -71 -3 -26 48 -12 154 24 177 17 12 20 10 40 -32z m-5
-354 c6 -7 14 -33 17 -58 7 -53 -18 -118 -46 -118 -42 0 -54 111 -18 160 24
34 31 36 47 16z"/>
<path d="M595 688 c-22 -5 -49 -10 -59 -12 -29 -4 -31 -23 -4 -39 33 -21 196
-10 211 15 27 42 -46 60 -148 36z"/>
<path d="M627 438 c-7 -4 -26 -8 -43 -8 -17 0 -37 -7 -44 -15 -11 -13 -10 -18
6 -30 27 -20 200 -21 207 -1 8 20 -3 56 -17 57 -47 4 -100 3 -109 -3z"/>
</g>
</svg>
