<svg version="1.0" xmlns="http://www.w3.org/2000/svg"
 width="67.000000pt" height="91.000000pt" viewBox="0 0 67.000000 91.000000"
 preserveAspectRatio="xMidYMid meet">
<metadata>
Created by potrace 1.15, written by Peter Selinger 2001-2017
</metadata>
<g transform="translate(0.000000,91.000000) scale(0.100000,-0.100000)"
fill="#000000" stroke="none">
<path d="M296 688 c-18 -63 -30 -98 -33 -98 -12 0 -33 31 -33 48 0 23 -35 56
-49 47 -26 -15 -11 -65 32 -110 55 -57 62 -66 81 -103 15 -30 15 -34 0 -57
-22 -34 -31 -32 -52 13 -14 30 -23 36 -42 34 -14 -1 -28 -6 -33 -11 -12 -12 3
-42 21 -39 10 2 32 -21 59 -62 55 -83 58 -132 13 -203 -36 -56 -36 -57 -10
-57 11 0 20 5 20 10 0 20 39 10 42 -10 4 -29 22 -30 26 -2 4 26 17 28 38 7 21
-20 34 -19 34 4 0 11 -16 33 -36 49 -28 24 -36 38 -38 68 -1 22 -6 48 -10 59
-30 76 -30 70 13 129 23 31 57 72 76 91 31 31 34 37 23 55 -13 21 -48 28 -48
9 0 -6 -10 -25 -22 -41 -21 -31 -21 -31 -40 -8 -10 12 -18 31 -18 41 0 22 20
69 38 88 11 11 10 17 -1 35 -17 25 -45 33 -51 14z"/>
</g>
</svg>
