<svg version="1.0" xmlns="http://www.w3.org/2000/svg"
 width="76.000000pt" height="95.000000pt" viewBox="0 0 76.000000 95.000000"
 preserveAspectRatio="xMidYMid meet">
<metadata>
Created by potrace 1.15, written by Peter Selinger 2001-2017
</metadata>
<g transform="translate(0.000000,95.000000) scale(0.100000,-0.100000)"
fill="#000000" stroke="none">
<path d="M332 678 c-7 -7 -12 -33 -12 -59 0 -46 -12 -69 -68 -128 -15 -16 -32
-55 -32 -75 0 -7 11 -29 24 -49 25 -36 25 -36 0 -80 -36 -65 -54 -134 -54
-209 0 -75 13 -94 42 -58 13 16 18 39 18 87 0 67 17 116 48 132 9 5 36 12 60
16 50 8 56 -8 17 -45 -43 -40 -28 -82 54 -155 54 -48 62 -51 83 -25 22 27 19
32 -34 60 -88 45 -97 70 -43 113 40 32 44 56 15 82 -16 14 -30 17 -75 12 -70
-7 -77 15 -9 32 48 12 91 49 100 87 9 34 -17 77 -56 95 -35 17 -35 17 -32 83
5 81 -15 115 -46 84z m52 -209 c31 -37 32 -39 5 -73 -25 -32 -70 -35 -99 -6
-25 25 -25 28 5 73 31 45 55 47 89 6z"/>
<path d="M470 633 c0 -70 11 -93 37 -77 25 15 30 96 8 118 -32 32 -45 20 -45
-41z"/>
<path d="M192 603 c3 -50 6 -58 23 -58 16 0 21 8 23 43 3 45 -10 72 -35 72
-11 0 -13 -13 -11 -57z"/>
</g>
</svg>
