<svg version="1.0" xmlns="http://www.w3.org/2000/svg"
 width="71.000000pt" height="97.000000pt" viewBox="0 0 71.000000 97.000000"
 preserveAspectRatio="xMidYMid meet">
<metadata>
Created by potrace 1.15, written by Peter Selinger 2001-2017
</metadata>
<g transform="translate(0.000000,97.000000) scale(0.100000,-0.100000)"
fill="#000000" stroke="none">
<path d="M145 750 c-4 -7 -4 -42 -1 -79 9 -86 3 -101 -40 -101 -47 0 -44 -23
6 -43 41 -16 41 -16 38 -104 -3 -87 -3 -87 -47 -95 -55 -9 -61 -16 -36 -34 16
-12 38 -14 105 -8 112 8 127 21 48 38 -28 6 -28 7 -28 94 0 95 4 106 38 116
30 10 28 19 -8 35 -30 13 -31 13 -28 88 3 67 1 77 -19 90 -15 10 -23 11 -28 3z"/>
<path d="M465 728 c-107 -12 -135 -30 -135 -88 0 -63 34 -150 58 -150 11 0 13
12 7 68 -3 37 -2 78 3 92 9 25 9 25 26 -7 9 -18 16 -37 16 -43 0 -23 33 -80
46 -80 26 0 25 22 -4 73 -45 82 -46 87 -13 87 23 0 31 -6 40 -30 13 -38 49
-90 62 -90 17 0 9 52 -12 87 -12 19 -20 35 -18 36 36 19 44 26 44 38 0 18 -12
18 -120 7z"/>
<path d="M305 507 c-17 -42 29 -113 96 -148 22 -11 39 -25 39 -33 0 -7 -21
-27 -47 -44 -58 -38 -153 -126 -153 -141 0 -19 14 -12 67 34 45 39 89 65 112
65 4 0 5 -43 3 -96 -4 -89 -3 -96 14 -92 22 4 33 51 33 151 1 80 15 87 64 31
91 -102 106 -118 113 -111 8 8 -19 73 -45 103 -22 27 -96 74 -116 74 -9 0 -15
9 -15 24 0 18 7 25 29 29 16 4 39 17 51 29 25 26 54 87 45 96 -3 3 -27 -15
-53 -41 -26 -26 -51 -47 -55 -47 -4 0 -7 17 -7 38 0 25 -7 45 -18 55 -28 26
-31 21 -25 -38 5 -46 3 -55 -10 -55 -26 0 -78 51 -97 94 -14 33 -19 38 -25 23z"/>
</g>
</svg>
