<svg version="1.0" xmlns="http://www.w3.org/2000/svg"
 width="107.000000pt" height="169.000000pt" viewBox="0 0 107.000000 169.000000"
 preserveAspectRatio="xMidYMid meet">
<metadata>
Created by potrace 1.15, written by Peter Selinger 2001-2017
</metadata>
<g transform="translate(0.000000,169.000000) scale(0.100000,-0.100000)"
fill="#000000" stroke="none">
<path d="M341 1589 c-34 -21 -67 -39 -72 -39 -6 0 -21 -11 -35 -25 -14 -14
-29 -25 -34 -25 -4 0 -42 -34 -84 -76 -82 -82 -101 -122 -87 -184 12 -55 27
-76 71 -99 50 -26 62 -11 31 40 -26 42 -27 91 -3 112 24 22 25 22 61 -12 59
-55 85 -11 29 46 -36 37 -34 50 13 86 25 18 25 18 71 -27 25 -26 55 -46 67
-46 11 0 21 2 21 5 0 13 -43 95 -56 105 -11 10 -10 18 7 51 11 22 30 44 43 49
32 12 56 38 56 61 0 29 -27 23 -99 -22z"/>
<path d="M976 1529 c-22 -10 -52 -19 -67 -19 -43 0 -125 -35 -152 -65 -27 -28
-47 -82 -47 -121 0 -33 -21 -47 -35 -24 -3 6 -21 10 -39 10 -44 0 -59 16 -80
82 -16 56 -31 77 -44 64 -3 -4 -5 -68 -4 -142 2 -105 6 -139 18 -151 22 -23
44 1 44 48 0 39 0 39 48 39 85 0 89 -7 85 -165 -3 -149 -6 -157 -61 -181 -45
-19 -45 -19 -65 16 -10 16 -24 30 -32 30 -17 0 -21 -31 -17 -147 3 -80 6 -93
21 -93 26 0 41 20 41 54 0 36 36 71 82 81 16 4 30 5 32 3 1 -1 16 -46 33 -98
31 -95 31 -95 11 -140 -39 -87 -47 -105 -62 -150 -27 -77 -16 -154 16 -122 13
13 88 200 88 219 0 8 12 13 28 13 43 0 56 -36 59 -160 1 -58 5 -120 9 -138 7
-36 31 -53 44 -32 13 20 1 315 -13 342 -18 33 -49 80 -67 100 -22 24 -44 88
-34 98 5 4 42 3 83 -2 71 -10 121 -2 121 19 -1 25 -25 35 -111 45 -52 6 -98
15 -103 19 -19 17 12 55 58 74 25 11 49 27 52 37 3 10 10 18 15 18 19 0 76 50
104 90 38 54 30 80 -35 110 -50 24 -50 24 -49 139 1 112 9 141 38 141 24 0 61
25 61 41 0 32 -31 39 -74 18z m-81 -183 c4 -46 5 -89 1 -94 -6 -11 -54 -4 -62
9 -3 5 -14 9 -25 9 -16 0 -19 7 -19 40 0 60 38 120 76 120 21 0 23 -6 29 -84z
m-41 -157 c73 -24 107 -40 124 -57 18 -17 -12 -54 -75 -94 -27 -17 -50 -34
-53 -38 -7 -9 -51 -33 -54 -28 -4 4 -26 192 -26 217 0 26 9 26 84 0z"/>
<path d="M280 1195 c-8 -10 -12 -55 -11 -145 2 -138 5 -160 27 -160 18 0 43
38 37 58 -8 32 19 52 77 58 83 8 100 13 100 29 0 19 -34 27 -95 22 -67 -6 -85
4 -85 52 0 31 -24 101 -35 101 -1 0 -8 -7 -15 -15z"/>
<path d="M495 760 c-3 -5 -1 -10 4 -10 6 0 11 5 11 10 0 6 -2 10 -4 10 -3 0
-8 -4 -11 -10z"/>
<path d="M280 665 c-5 -13 -9 -60 -9 -104 0 -91 27 -163 69 -184 20 -10 26
-24 37 -92 7 -44 17 -89 22 -100 17 -41 31 -92 31 -117 0 -35 25 -55 46 -37
17 14 16 49 -6 139 -6 25 -14 73 -17 107 -5 62 -5 63 23 73 40 15 72 48 95 94
24 50 26 121 3 130 -22 8 -24 8 -24 -9 0 -8 -9 -30 -20 -50 -11 -20 -20 -40
-20 -46 0 -16 -26 -39 -44 -39 -22 0 -21 51 2 81 28 35 35 85 16 104 -9 9 -21
13 -28 10 -6 -3 -18 -8 -28 -11 -9 -3 -18 -20 -21 -37 -3 -18 -11 -54 -17 -80
-10 -40 -14 -46 -26 -36 -10 8 -14 35 -14 91 0 83 -18 138 -46 138 -8 0 -19
-11 -24 -25z"/>
<path d="M960 674 c0 -8 5 -12 10 -9 6 3 10 10 10 16 0 5 -4 9 -10 9 -5 0 -10
-7 -10 -16z"/>
</g>
</svg>
