<svg version="1.0" xmlns="http://www.w3.org/2000/svg"
 width="111.000000pt" height="163.000000pt" viewBox="0 0 111.000000 163.000000"
 preserveAspectRatio="xMidYMid meet">
<metadata>
Created by potrace 1.15, written by Peter Selinger 2001-2017
</metadata>
<g transform="translate(0.000000,163.000000) scale(0.100000,-0.100000)"
fill="#000000" stroke="none">
<path d="M245 1553 c-4 -21 -9 -104 -12 -184 -4 -144 -4 -146 24 -199 28 -55
80 -100 114 -100 27 0 23 29 -6 52 -29 23 -55 68 -55 96 0 16 7 18 59 14 47
-3 59 -1 64 12 4 11 0 19 -11 23 -39 13 -107 47 -114 57 -17 24 -5 29 62 23
41 -3 72 -2 76 4 9 16 -16 39 -42 39 -14 0 -32 4 -42 9 -9 5 -29 14 -44 22
-24 10 -28 18 -28 53 0 48 -17 116 -29 116 -5 0 -12 -17 -16 -37z"/>
<path d="M788 1465 c-3 -3 -46 -10 -96 -16 -50 -5 -110 -16 -134 -22 -41 -12
-43 -15 -49 -57 -4 -25 -12 -76 -19 -115 -15 -86 -9 -199 13 -241 18 -36 86
-78 138 -87 19 -3 47 -10 62 -16 26 -10 28 -14 25 -63 -3 -53 -3 -53 -53 -58
-57 -6 -146 -49 -181 -88 -54 -59 -92 -162 -61 -162 18 0 57 29 57 43 0 17 80
100 110 114 14 6 37 14 53 17 15 3 38 9 52 12 25 6 25 6 25 -73 0 -80 0 -80
-55 -93 -64 -15 -100 -47 -109 -93 -9 -55 -10 -192 0 -189 45 13 44 11 44 92
0 74 2 80 31 109 19 20 41 31 58 31 26 0 29 -4 35 -43 3 -23 9 -104 13 -179 5
-125 8 -138 25 -138 17 0 18 12 19 198 0 108 0 239 -1 290 -2 86 0 93 17 90
10 -2 17 -9 16 -14 -1 -5 17 -8 40 -6 67 5 84 11 89 30 6 22 -28 37 -109 48
-56 7 -65 20 -55 82 4 28 6 30 45 27 23 -2 63 -4 89 -4 47 -1 47 -1 60 -48 11
-40 18 -49 40 -51 24 -3 27 1 33 40 3 24 8 54 11 68 5 30 -33 95 -56 95 -8 0
-16 -10 -18 -22 -3 -21 -9 -23 -60 -22 -31 0 -77 4 -102 7 -45 7 -45 7 -47 67
-2 33 0 84 3 113 6 54 6 54 77 47 119 -10 124 -12 141 -54 15 -39 35 -55 53
-43 17 12 31 132 19 164 -17 44 -66 50 -66 8 0 -29 -26 -36 -126 -32 -92 3
-92 3 -99 47 -3 24 -3 60 1 80 6 35 6 35 85 35 72 0 79 2 79 20 0 11 -10 26
-22 34 -24 14 -131 30 -140 21z m-90 -88 c6 -7 12 -39 14 -71 3 -60 3 -60 -56
-57 -53 2 -106 14 -106 24 0 16 27 75 42 93 22 24 89 31 106 11z m20 -297 c2
-125 0 -127 -76 -90 -22 11 -45 20 -50 20 -5 0 -21 12 -36 27 -24 24 -27 32
-24 92 3 66 3 66 83 71 44 3 85 2 91 -3 7 -4 12 -48 12 -117z"/>
<path d="M194 885 c-3 -7 -1 -30 5 -52 6 -21 11 -59 11 -84 0 -46 0 -46 -55
-41 -92 8 -73 -13 65 -72 44 -18 60 -38 60 -72 0 -43 -10 -47 -62 -29 -42 14
-128 21 -128 9 0 -13 29 -33 93 -63 71 -34 79 -47 47 -76 -19 -18 -37 -17
-147 2 -27 4 -33 2 -33 -12 0 -42 66 -73 152 -71 67 2 67 2 77 -59 6 -34 11
-80 11 -102 0 -43 24 -113 39 -113 18 0 22 40 11 117 -6 45 -9 129 -5 198 3
66 7 150 9 188 2 49 -1 70 -11 79 -26 21 -43 66 -43 113 0 45 0 45 53 46 28 0
78 0 110 -1 51 -1 57 1 57 19 0 30 -25 38 -130 43 -71 3 -107 9 -138 25 -34
16 -44 18 -48 8z"/>
</g>
</svg>
