<svg version="1.0" xmlns="http://www.w3.org/2000/svg"
 width="63.000000pt" height="82.000000pt" viewBox="0 0 63.000000 82.000000"
 preserveAspectRatio="xMidYMid meet">
<metadata>
Created by potrace 1.15, written by Peter Selinger 2001-2017
</metadata>
<g transform="translate(0.000000,82.000000) scale(0.100000,-0.100000)"
fill="#000000" stroke="none">
<path d="M140 557 c-37 -15 -63 -34 -78 -57 -24 -34 -24 -39 -20 -212 5 -173
5 -177 32 -212 38 -50 77 -59 242 -55 248 7 263 28 256 360 -2 111 -3 118 -28
143 -37 36 -80 46 -224 51 -113 4 -130 2 -180 -18z m335 -50 c33 -11 40 -18
46 -47 9 -43 2 -293 -9 -335 -13 -48 -85 -67 -237 -63 -128 4 -160 14 -175 53
-17 44 -24 248 -11 303 15 62 39 84 99 93 78 11 244 8 287 -4z"/>
<path d="M205 458 c-25 -19 -27 -26 -22 -69 3 -27 2 -51 -4 -54 -14 -9 -11
-45 5 -45 8 0 26 14 39 30 33 39 57 39 57 1 0 -16 2 -36 5 -43 4 -11 -9 -18
-50 -27 -34 -8 -59 -19 -65 -31 -16 -31 -11 -68 13 -91 21 -20 29 -21 132 -15
120 6 158 22 162 67 5 43 -30 70 -96 76 -54 5 -59 8 -51 24 6 10 10 29 10 43
0 34 22 34 55 0 14 -14 31 -24 38 -21 19 6 21 46 2 53 -15 6 -15 8 1 25 11 12
14 27 9 48 -8 37 -47 51 -146 51 -53 0 -72 -4 -94 -22z m203 -45 c3 -22 1 -23
-87 -23 -82 0 -91 2 -91 18 0 30 10 33 95 30 74 -3 80 -5 83 -25z m-70 -231
c3 -39 1 -42 -22 -42 -23 0 -26 4 -26 38 0 43 7 54 30 50 10 -2 16 -17 18 -46z
m-88 -2 c0 -30 -3 -38 -14 -34 -20 8 -30 55 -14 65 23 15 28 10 28 -31z m171
21 c24 -20 24 -20 4 -35 -32 -25 -45 -19 -45 19 0 40 8 43 41 16z"/>
</g>
</svg>
