<svg version="1.0" xmlns="http://www.w3.org/2000/svg"
 width="65.000000pt" height="83.000000pt" viewBox="0 0 65.000000 83.000000"
 preserveAspectRatio="xMidYMid meet">
<metadata>
Created by potrace 1.15, written by Peter Selinger 2001-2017
</metadata>
<g transform="translate(0.000000,83.000000) scale(0.100000,-0.100000)"
fill="#000000" stroke="none">
<path d="M60 547 c0 -31 22 -34 228 -29 176 4 209 2 220 -10 7 -9 10 -23 6
-32 -5 -13 -24 -16 -125 -16 -108 0 -120 -2 -131 -20 -10 -16 -24 -20 -63 -20
-111 0 -115 -9 -115 -219 0 -132 3 -161 16 -172 27 -23 34 8 34 167 0 109 4
154 12 161 7 6 34 13 61 15 41 5 47 3 47 -13 0 -14 -7 -19 -28 -19 -42 0 -54
-46 -50 -190 2 -94 6 -115 18 -115 12 0 15 22 18 124 3 121 13 164 35 142 5
-5 9 -66 8 -136 -2 -117 -1 -126 16 -123 16 3 18 20 23 180 3 97 9 180 13 185
5 4 61 10 125 11 134 5 152 13 152 72 0 69 -6 70 -278 70 -192 0 -242 -3 -242
-13z"/>
<path d="M443 383 c-8 -3 -13 -23 -13 -49 0 -44 0 -44 -42 -44 -24 0 -49 -4
-57 -9 -25 -16 -1 -31 50 -31 49 0 49 0 49 -59 0 -59 0 -59 -55 -63 -64 -5
-77 -14 -51 -34 26 -18 246 -20 264 -2 27 27 13 38 -48 38 -60 0 -60 0 -60 48
0 26 4 52 8 57 4 6 27 10 52 10 39 0 45 3 48 23 3 22 2 23 -47 16 -51 -7 -51
-7 -51 38 0 24 -5 49 -12 56 -13 13 -16 13 -35 5z"/>
</g>
</svg>
