<svg version="1.0" xmlns="http://www.w3.org/2000/svg"
 width="70.000000pt" height="107.000000pt" viewBox="0 0 70.000000 107.000000"
 preserveAspectRatio="xMidYMid meet">
<metadata>
Created by potrace 1.15, written by Peter Selinger 2001-2017
</metadata>
<g transform="translate(0.000000,107.000000) scale(0.100000,-0.100000)"
fill="#000000" stroke="none">
<path d="M419 968 c-2 -42 -7 -139 -12 -203 -3 -50 -3 -50 -83 -57 -43 -4 -85
-6 -92 -3 -10 4 -13 36 -10 142 3 127 2 138 -16 141 -31 6 -41 -16 -46 -106
-5 -86 -5 -87 -32 -90 -30 -4 -30 -3 -32 102 -1 32 -25 53 -50 43 -14 -5 -16
-24 -16 -125 0 -81 -4 -122 -12 -131 -11 -11 -10 -14 0 -18 7 -3 12 -23 12
-53 0 -27 4 -51 9 -54 31 -19 62 38 60 108 -2 51 9 70 37 64 17 -3 19 -17 24
-153 7 -204 5 -215 -31 -215 -26 0 -29 4 -31 33 0 17 0 44 1 58 2 32 -29 72
-47 61 -9 -6 -14 -47 -17 -133 -3 -68 -9 -160 -13 -204 -9 -96 -6 -115 17
-115 24 0 40 34 45 100 3 30 9 67 15 82 10 28 48 55 59 43 4 -4 7 -68 7 -143
0 -137 0 -137 28 -140 27 -3 27 -3 27 112 0 71 4 116 10 116 6 0 10 -7 10 -15
0 -12 18 -15 98 -16 318 -1 320 -1 306 34 -5 14 -21 17 -85 17 -79 0 -79 0
-77 203 3 202 3 202 88 203 50 0 88 -4 92 -10 5 -6 8 -2 8 10 0 11 -6 29 -14
39 -11 16 -22 17 -80 12 -36 -3 -73 -4 -81 -1 -12 5 -15 31 -15 138 0 136 -5
156 -42 156 -13 0 -18 -8 -19 -32z m-89 -318 c78 0 78 0 83 -27 9 -51 7 -348
-2 -362 -12 -18 -126 -26 -164 -12 -27 11 -27 11 -26 213 1 112 4 207 7 212 3
5 9 1 14 -8 7 -13 25 -16 88 -16z"/>
</g>
</svg>
