<svg version="1.0" xmlns="http://www.w3.org/2000/svg"
 width="49.000000pt" height="93.000000pt" viewBox="0 0 49.000000 93.000000"
 preserveAspectRatio="xMidYMid meet">
<metadata>
Created by potrace 1.15, written by Peter Selinger 2001-2017
</metadata>
<g transform="translate(0.000000,93.000000) scale(0.100000,-0.100000)"
fill="#000000" stroke="none">
<path d="M135 843 c-4 -16 -11 -48 -16 -73 -14 -62 -12 -300 4 -346 6 -20 19
-40 27 -44 8 -4 29 -14 45 -21 38 -17 45 -27 45 -61 0 -23 -4 -28 -25 -28 -14
0 -25 4 -25 8 0 5 -12 14 -27 21 -15 7 -33 21 -41 32 -16 23 -40 25 -48 4 -3
-8 4 -44 15 -79 12 -36 21 -71 21 -79 0 -23 59 -137 71 -137 14 0 8 53 -15
134 -10 32 -15 60 -12 63 2 3 35 -11 71 -31 66 -35 105 -45 105 -27 0 6 -9 16
-21 24 -17 13 -20 24 -18 81 2 58 6 71 30 97 15 16 29 29 32 29 3 0 8 -24 11
-52 14 -109 18 -128 31 -128 19 0 27 72 19 179 -10 135 -32 180 -145 292 -77
77 -90 95 -86 117 5 25 -12 52 -32 52 -6 0 -13 -12 -16 -27z m90 -174 c36 -40
36 -41 30 -105 -8 -66 -1 -114 15 -114 5 0 12 10 15 23 19 68 45 103 45 60 0
-33 -43 -153 -55 -153 -6 0 -22 11 -35 25 -13 14 -29 25 -36 25 -19 0 -23 22
-30 155 -5 84 -4 125 3 125 6 0 27 -18 48 -41z"/>
</g>
</svg>
