<svg version="1.0" xmlns="http://www.w3.org/2000/svg"
 width="63.000000pt" height="88.000000pt" viewBox="0 0 63.000000 88.000000"
 preserveAspectRatio="xMidYMid meet">
<metadata>
Created by potrace 1.15, written by Peter Selinger 2001-2017
</metadata>
<g transform="translate(0.000000,88.000000) scale(0.100000,-0.100000)"
fill="#000000" stroke="none">
<path d="M273 564 c5 -144 9 -180 23 -195 15 -17 15 -20 -5 -48 -29 -40 -79
-70 -164 -96 -77 -23 -92 -39 -55 -55 45 -21 240 78 260 132 11 28 37 33 58
12 16 -16 21 -42 27 -149 7 -121 9 -130 28 -130 18 0 20 8 23 85 3 102 -11
204 -32 225 -8 9 -30 22 -48 30 -70 29 -73 39 -71 211 3 154 3 154 -24 154
-26 0 -26 0 -20 -176z"/>
<path d="M507 723 c-4 -3 -7 -15 -7 -25 0 -16 -9 -18 -66 -18 -57 0 -65 -2
-62 -17 3 -15 16 -19 71 -21 68 -3 68 -3 65 -30 -3 -26 -6 -27 -71 -32 -89 -7
-91 -24 -4 -28 64 -3 68 -4 65 -25 -2 -17 -12 -24 -48 -30 -25 -5 -55 -11 -68
-13 -38 -8 -19 -29 28 -32 57 -4 79 2 113 33 26 25 27 29 27 135 0 100 -2 110
-18 110 -10 0 -22 -3 -25 -7z"/>
<path d="M77 703 c-3 -10 -2 -65 1 -123 7 -98 8 -105 32 -117 29 -15 126 -17
135 -4 8 15 -15 25 -70 31 -71 7 -68 31 5 47 30 6 57 12 59 12 2 1 -2 8 -9 16
-10 12 -24 14 -61 9 -49 -7 -49 -7 -49 24 0 33 17 42 83 42 26 0 37 4 37 15 0
12 -13 15 -55 15 -50 0 -56 2 -65 25 -11 29 -36 33 -43 8z"/>
</g>
</svg>
