<svg version="1.0" xmlns="http://www.w3.org/2000/svg"
 width="72.000000pt" height="86.000000pt" viewBox="0 0 72.000000 86.000000"
 preserveAspectRatio="xMidYMid meet">
<metadata>
Created by potrace 1.15, written by Peter Selinger 2001-2017
</metadata>
<g transform="translate(0.000000,86.000000) scale(0.100000,-0.100000)"
fill="#000000" stroke="none">
<path d="M154 591 c-5 -23 -13 -33 -33 -37 -54 -12 -57 -15 -31 -29 14 -8 33
-14 43 -15 30 0 16 -34 -15 -38 -39 -5 -50 -25 -56 -101 -5 -79 6 -108 45
-113 24 -2 28 -8 28 -33 0 -26 -5 -30 -37 -38 -49 -12 -48 -25 2 -33 37 -6 40
-9 40 -38 0 -46 11 -76 26 -76 10 0 14 15 14 55 0 55 0 55 40 61 22 4 40 10
40 14 0 4 -18 10 -40 14 -38 6 -40 8 -40 41 0 28 4 35 20 35 41 0 60 34 60
108 0 71 -9 90 -52 105 -32 11 -20 36 22 47 50 14 51 28 3 32 -33 3 -39 7 -43
32 -7 41 -29 45 -36 7z m-4 -191 c0 -27 -3 -30 -30 -30 -34 0 -34 -1 -20 34
14 38 50 35 50 -4z m70 11 c16 -31 12 -41 -15 -41 -21 0 -25 5 -25 30 0 35 23
41 40 11z m-70 -90 c0 -24 -13 -33 -34 -25 -27 10 -20 44 9 44 18 0 25 -5 25
-19z m70 0 c0 -10 -7 -22 -16 -25 -23 -9 -24 -8 -24 19 0 18 5 25 20 25 13 0
20 -7 20 -19z"/>
<path d="M350 565 c-17 -20 -6 -23 123 -28 109 -4 141 5 115 31 -19 19 -222
16 -238 -3z"/>
<path d="M340 481 c-14 -4 -25 -13 -25 -21 0 -12 26 -16 144 -18 148 -3 176 3
151 33 -10 12 -35 15 -129 14 -64 -1 -127 -4 -141 -8z"/>
<path d="M325 376 c-15 -11 -20 -34 -26 -132 -5 -65 -10 -133 -13 -151 -5 -33
14 -60 34 -48 5 3 10 35 10 71 0 64 0 64 34 64 33 0 33 -1 39 -52 4 -33 2 -57
-5 -65 -9 -11 -8 -18 4 -30 32 -32 38 -6 38 166 0 116 -4 171 -12 179 -16 16
-80 15 -103 -2z m69 -22 c9 -3 16 -17 16 -30 0 -21 -5 -24 -34 -24 -41 0 -51
12 -36 40 11 21 26 25 54 14z m16 -119 c0 -22 -4 -25 -40 -25 -36 0 -40 3 -40
25 0 23 4 25 40 25 36 0 40 -2 40 -25z"/>
<path d="M583 333 c0 -32 -3 -105 -7 -163 -6 -83 -5 -109 6 -123 19 -25 52
-12 43 17 -15 43 -17 189 -4 228 14 45 4 91 -23 96 -13 3 -16 -7 -15 -55z"/>
<path d="M495 268 c-9 -157 -4 -228 17 -242 28 -17 33 1 14 53 -15 42 -16 59
-6 133 13 96 10 160 -6 165 -8 3 -14 -31 -19 -109z"/>
</g>
</svg>
