<svg version="1.0" xmlns="http://www.w3.org/2000/svg"
 width="65.000000pt" height="81.000000pt" viewBox="0 0 65.000000 81.000000"
 preserveAspectRatio="xMidYMid meet">
<metadata>
Created by potrace 1.15, written by Peter Selinger 2001-2017
</metadata>
<g transform="translate(0.000000,81.000000) scale(0.100000,-0.100000)"
fill="#000000" stroke="none">
<path d="M340 630 c-36 -3 -71 -10 -78 -14 -28 -17 -7 -26 61 -26 72 0 72 0
75 -88 5 -144 3 -137 37 -138 111 -2 115 -3 115 -27 0 -22 -6 -24 -72 -33 -82
-10 -79 -2 -50 -112 28 -108 44 -116 41 -19 -4 88 2 97 64 97 34 0 37 -2 37
-27 0 -16 5 -35 10 -43 9 -13 11 -13 20 0 13 20 12 44 -1 170 -11 96 -28 144
-45 127 -4 -4 -7 -24 -8 -44 -1 -38 -1 -38 -48 -41 -48 -3 -48 -3 -48 73 0 42
-5 85 -10 95 -8 14 -6 21 6 28 9 5 14 14 10 21 -8 12 -15 12 -116 1z"/>
<path d="M266 523 c-3 -21 -6 -59 -6 -85 0 -48 0 -48 -39 -54 -52 -8 -69 -20
-54 -35 15 -15 112 -15 141 0 22 12 31 41 12 41 -6 0 -10 31 -10 73 0 66 -10
97 -31 97 -3 0 -9 -17 -13 -37z"/>
<path d="M107 370 c3 -63 1 -116 -4 -123 -15 -18 -4 -97 13 -97 8 0 14 10 14
24 0 14 5 37 10 52 8 21 14 24 22 16 7 -7 38 -12 69 -12 57 0 57 0 62 -42 3
-24 9 -57 12 -74 7 -31 6 -32 -37 -39 -56 -10 -61 -13 -42 -32 13 -13 32 -15
122 -9 59 3 125 11 146 17 36 10 38 12 21 22 -11 6 -55 13 -97 15 -63 4 -78 8
-79 21 -6 176 -10 185 -71 177 -21 -3 -56 -9 -78 -12 -40 -6 -40 -6 -40 74 0
88 -11 132 -34 132 -12 0 -14 -18 -9 -110z"/>
</g>
</svg>
