<svg version="1.0" xmlns="http://www.w3.org/2000/svg"
 width="53.000000pt" height="81.000000pt" viewBox="0 0 53.000000 81.000000"
 preserveAspectRatio="xMidYMid meet">
<metadata>
Created by potrace 1.15, written by Peter Selinger 2001-2017
</metadata>
<g transform="translate(0.000000,81.000000) scale(0.100000,-0.100000)"
fill="#000000" stroke="none">
<path d="M333 643 c5 -51 -17 -127 -36 -120 -15 5 -44 59 -49 88 -1 12 -9 25
-17 27 -22 7 -7 -63 22 -101 13 -18 27 -37 30 -44 5 -7 -20 -39 -64 -82 -40
-39 -69 -74 -65 -78 4 -5 16 2 26 15 10 12 22 22 28 22 5 0 23 14 41 30 17 17
31 29 31 28 -1 -38 -24 -126 -36 -139 -23 -26 -54 -25 -54 1 0 16 -7 20 -30
20 -34 0 -45 -17 -36 -54 4 -17 14 -26 34 -28 27 -4 27 -4 -21 -50 -26 -25
-44 -49 -38 -52 5 -4 16 1 24 9 22 21 40 19 34 -4 -2 -10 -1 -24 3 -31 5 -8
16 10 30 48 24 65 40 72 40 19 0 -18 4 -38 9 -45 5 -9 10 16 13 65 5 76 31
163 49 163 5 0 9 -6 9 -12 1 -17 39 -66 40 -50 0 7 -9 32 -21 56 -12 27 -19
59 -17 83 3 34 6 38 31 39 23 1 27 -3 27 -27 0 -19 8 -34 25 -45 35 -23 50
-13 50 32 0 35 -3 39 -27 42 -33 4 -34 9 -9 31 10 9 22 32 26 51 8 35 8 35
-40 -18 -34 -38 -50 -50 -56 -41 -4 7 -3 21 2 30 5 10 9 29 9 43 0 15 8 30 20
36 14 8 20 21 20 45 0 19 -4 35 -10 35 -5 0 -10 -7 -10 -15 0 -8 -4 -15 -10
-15 -5 0 -10 9 -10 20 0 11 -5 20 -11 20 -8 0 -10 -16 -6 -47z"/>
<path d="M115 550 c-7 -23 3 -62 19 -72 6 -4 21 -8 34 -8 35 0 31 53 -7 79
-36 26 -38 26 -46 1z m45 -44 c0 -3 -4 -8 -10 -11 -5 -3 -10 -1 -10 4 0 6 5
11 10 11 6 0 10 -2 10 -4z"/>
<path d="M270 212 c0 -21 3 -41 6 -45 11 -11 52 15 58 37 11 40 7 46 -29 46
-34 0 -35 -1 -35 -38z m40 -2 c0 -5 -4 -10 -10 -10 -5 0 -10 5 -10 10 0 6 5
10 10 10 6 0 10 -4 10 -10z"/>
</g>
</svg>
