<svg version="1.0" xmlns="http://www.w3.org/2000/svg"
 width="49.000000pt" height="87.000000pt" viewBox="0 0 49.000000 87.000000"
 preserveAspectRatio="xMidYMid meet">
<metadata>
Created by potrace 1.15, written by Peter Selinger 2001-2017
</metadata>
<g transform="translate(0.000000,87.000000) scale(0.100000,-0.100000)"
fill="#000000" stroke="none">
<path d="M262 648 c-7 -7 -12 -18 -12 -25 0 -7 -11 -23 -26 -35 -24 -21 -24
-23 -7 -36 15 -11 16 -14 4 -21 -8 -5 -20 -7 -27 -4 -6 2 -15 0 -19 -6 -3 -6
-15 -11 -26 -11 -22 0 -26 -27 -6 -54 18 -25 67 -6 67 26 1 23 1 23 16 3 28
-37 -10 -132 -48 -119 -10 3 -25 0 -33 -6 -8 -6 -23 -9 -35 -5 -17 5 -20 2
-20 -25 0 -31 19 -60 39 -60 5 0 32 22 60 49 37 36 51 45 55 34 12 -31 5 -56
-29 -100 -47 -62 -47 -87 1 -42 23 22 23 22 28 -2 3 -13 7 -39 8 -58 2 -19 9
-36 16 -39 9 -3 12 13 12 57 0 56 10 76 25 51 11 -18 26 -10 20 10 -5 15 0 26
18 40 27 22 28 45 4 80 -9 14 -17 31 -17 40 0 8 -9 30 -20 48 -11 18 -20 34
-20 35 0 1 15 2 32 2 25 0 35 6 46 27 17 37 1 68 -35 68 -27 0 -27 0 0 28 31
33 27 43 -14 35 -22 -4 -29 -2 -29 11 0 19 -11 21 -28 4z m31 -138 c-3 -11 -7
-20 -9 -20 -2 0 -4 9 -4 20 0 11 4 20 9 20 5 0 7 -9 4 -20z m11 -146 c18 -17
13 -34 -10 -34 -8 0 -14 10 -14 25 0 29 3 30 24 9z"/>
</g>
</svg>
