<svg version="1.0" xmlns="http://www.w3.org/2000/svg"
 width="67.000000pt" height="115.000000pt" viewBox="0 0 67.000000 115.000000"
 preserveAspectRatio="xMidYMid meet">
<metadata>
Created by potrace 1.15, written by Peter Selinger 2001-2017
</metadata>
<g transform="translate(0.000000,115.000000) scale(0.100000,-0.100000)"
fill="#000000" stroke="none">
<path d="M340 969 c-19 -4 -47 -11 -62 -15 -50 -12 -29 -44 28 -44 24 0 24 -1
25 -97 0 -54 3 -115 7 -136 4 -21 5 -67 4 -103 -3 -55 -6 -64 -23 -64 -12 0
-21 9 -25 25 -3 14 -15 30 -25 36 -14 7 -18 16 -13 34 5 19 2 25 -10 25 -11 0
-16 9 -16 28 0 28 14 40 63 56 13 4 17 16 17 51 0 25 -4 45 -9 45 -5 0 -11 12
-13 28 -2 19 -9 28 -25 30 -20 3 -22 0 -17 -27 6 -28 4 -31 -20 -31 -15 0 -34
7 -43 16 -25 25 -40 2 -25 -39 7 -18 12 -53 12 -76 0 -43 0 -43 -36 -37 -35 7
-35 7 -20 -23 9 -16 20 -33 26 -36 18 -11 11 -21 -26 -38 -19 -10 -34 -23 -31
-30 6 -19 75 -21 94 -2 15 15 18 14 44 -17 31 -35 33 -41 22 -52 -4 -4 -8 -15
-8 -23 0 -30 -21 -23 -38 12 -9 19 -23 35 -32 35 -12 0 -15 -17 -15 -94 0
-103 3 -110 62 -121 54 -10 80 1 78 33 -4 61 1 122 10 122 5 0 18 -10 30 -22
31 -34 24 -90 -17 -136 -7 -7 -13 -17 -13 -22 0 -5 -11 -20 -25 -34 -26 -27
-34 -66 -12 -66 14 0 58 28 69 44 15 22 23 -9 21 -80 -1 -67 1 -74 18 -74 10
0 19 3 20 8 0 4 2 43 5 86 4 91 14 108 44 81 14 -13 24 -15 31 -8 15 15 2 55
-29 88 -61 67 -70 218 -17 272 20 19 25 5 25 -66 1 -68 22 -132 35 -100 4 11
19 16 50 16 53 0 60 5 47 30 -7 12 -7 25 -1 36 7 11 6 37 0 74 -6 31 -11 58
-11 60 0 2 -9 3 -19 3 -22 0 -33 -21 -21 -41 6 -8 4 -16 -3 -21 -19 -12 -37
-9 -37 6 0 7 -7 19 -15 26 -21 18 -19 26 17 60 21 20 41 31 58 29 76 -4 95 17
39 46 -23 13 -29 21 -24 36 5 15 1 25 -14 35 -12 9 -21 24 -21 35 0 18 -25 37
-35 27 -2 -2 -9 -37 -16 -77 -8 -55 -19 -84 -42 -116 -18 -24 -35 -44 -38 -44
-3 -1 -10 54 -17 122 -6 67 -14 132 -17 144 -6 17 0 24 29 38 70 33 35 56 -54
34z m-90 -209 c0 -5 -4 -10 -10 -10 -5 0 -10 5 -10 10 0 6 5 10 10 10 6 0 10
-4 10 -10z m284 -258 c8 -13 -11 -35 -23 -28 -16 10 -14 36 3 36 8 0 17 -4 20
-8z"/>
<path d="M390 893 c0 -10 4 -25 9 -32 6 -9 6 -22 0 -33 -10 -18 7 -98 21 -98
16 0 30 27 30 56 0 18 5 36 10 39 6 3 10 19 10 36 0 22 -5 29 -20 29 -11 0
-20 5 -20 10 0 6 -9 10 -20 10 -12 0 -20 -7 -20 -17z"/>
</g>
</svg>
