<svg version="1.0" xmlns="http://www.w3.org/2000/svg"
 width="57.000000pt" height="77.000000pt" viewBox="0 0 57.000000 77.000000"
 preserveAspectRatio="xMidYMid meet">
<metadata>
Created by potrace 1.15, written by Peter Selinger 2001-2017
</metadata>
<g transform="translate(0.000000,77.000000) scale(0.100000,-0.100000)"
fill="#000000" stroke="none">
<path d="M286 599 c-3 -17 -6 -42 -6 -55 0 -33 -7 -30 -45 14 -18 20 -36 34
-40 30 -13 -13 4 -55 40 -94 34 -38 41 -55 29 -67 -11 -11 -34 5 -34 25 0 13
-5 18 -14 15 -8 -3 -22 3 -32 14 -18 20 -39 25 -48 11 -3 -5 8 -23 24 -42 28
-33 28 -33 8 -50 -25 -20 -15 -44 14 -35 10 4 30 4 44 1 21 -6 24 -12 24 -58
0 -43 -4 -54 -27 -74 -16 -13 -34 -24 -40 -24 -7 0 -13 -4 -13 -9 0 -5 -9 -11
-20 -14 -21 -5 -28 -37 -8 -37 6 0 26 11 44 25 50 39 54 34 48 -52 -4 -57 -3
-74 5 -63 6 8 11 24 11 36 0 26 20 84 28 84 4 0 18 -16 32 -35 23 -31 50 -46
50 -27 0 9 -48 80 -70 104 -18 20 -15 88 4 88 6 0 17 9 24 21 14 21 51 23 95
4 12 -5 17 -3 17 9 0 8 -12 19 -26 22 -14 4 -23 12 -21 18 19 44 19 46 3 46
-9 0 -16 8 -16 20 0 37 -20 21 -31 -25 -6 -26 -20 -50 -30 -56 -17 -9 -19 -6
-19 29 0 31 7 48 35 78 35 38 35 38 77 -6 40 -44 41 -44 34 -15 -4 16 -11 32
-14 35 -4 3 -13 17 -21 33 -17 32 -31 34 -56 7 -29 -32 -35 -24 -35 40 0 64
-13 80 -24 29z"/>
<path d="M130 287 c0 -31 16 -45 46 -39 52 10 37 62 -17 62 -24 0 -29 -4 -29
-23z"/>
<path d="M325 260 c-3 -6 -4 -23 0 -39 13 -60 90 -42 83 19 -3 21 -9 25 -40
28 -20 2 -39 -2 -43 -8z"/>
</g>
</svg>
