<svg version="1.0" xmlns="http://www.w3.org/2000/svg"
 width="49.000000pt" height="93.000000pt" viewBox="0 0 49.000000 93.000000"
 preserveAspectRatio="xMidYMid meet">
<metadata>
Created by potrace 1.15, written by Peter Selinger 2001-2017
</metadata>
<g transform="translate(0.000000,93.000000) scale(0.100000,-0.100000)"
fill="#000000" stroke="none">
<path d="M250 804 c0 -3 5 -25 11 -50 11 -41 10 -47 -11 -69 -27 -29 -21 -42
9 -23 18 11 23 11 32 -2 15 -24 -14 -232 -30 -213 -5 4 -16 34 -25 66 -21 68
-42 77 -32 15 6 -40 12 -62 37 -143 8 -26 5 -33 -33 -72 -27 -28 -37 -43 -27
-43 9 0 24 9 34 20 29 32 38 24 31 -22 -14 -88 -17 -138 -6 -138 8 0 15 53 8
63 -4 6 23 37 32 37 4 0 11 -10 15 -23 7 -21 8 -20 14 8 5 26 11 30 45 33 37
3 38 4 32 34 -3 17 -6 39 -6 50 0 15 -5 18 -20 13 -13 -4 -22 -1 -26 9 -11 29
-24 16 -24 -24 0 -22 -4 -40 -10 -40 -18 0 -12 104 8 126 21 23 52 71 52 80 0
3 -12 -1 -26 -11 -27 -17 -27 -17 -19 31 4 27 8 84 9 126 1 66 4 80 25 102 24
26 24 26 3 26 -12 0 -22 -4 -22 -10 0 -24 -38 -8 -50 20 -11 26 -30 41 -30 24z
m100 -504 c0 -5 -5 -10 -11 -10 -5 0 -7 5 -4 10 3 6 8 10 11 10 2 0 4 -4 4
-10z"/>
<path d="M340 693 c0 -10 3 -42 6 -70 7 -53 7 -53 46 -53 39 0 39 0 36 68 -3
65 -17 87 -28 42 -7 -28 -24 -27 -30 1 -7 28 -30 37 -30 12z m60 -73 c0 -5 -7
-10 -15 -10 -8 0 -15 5 -15 10 0 6 7 10 15 10 8 0 15 -4 15 -10z"/>
<path d="M148 659 c-11 -32 -11 -32 -25 -4 -10 18 -18 24 -25 17 -7 -7 -6 -17
1 -31 7 -12 10 -33 9 -49 -2 -17 2 -27 10 -26 6 1 23 2 36 3 27 1 38 34 29 88
-7 42 -21 42 -35 2z m2 -54 c0 -9 -6 -12 -15 -9 -8 4 -15 10 -15 15 0 5 7 9
15 9 8 0 15 -7 15 -15z"/>
<path d="M94 396 c9 -76 13 -85 47 -84 29 1 29 1 29 70 0 52 -3 68 -14 68 -8
0 -18 -9 -21 -20 -3 -11 -11 -20 -16 -20 -5 0 -9 9 -9 20 0 11 -5 20 -11 20
-8 0 -10 -17 -5 -54z"/>
</g>
</svg>
