<svg version="1.0" xmlns="http://www.w3.org/2000/svg"
 width="43.000000pt" height="75.000000pt" viewBox="0 0 43.000000 75.000000"
 preserveAspectRatio="xMidYMid meet">
<metadata>
Created by potrace 1.15, written by Peter Selinger 2001-2017
</metadata>
<g transform="translate(0.000000,75.000000) scale(0.100000,-0.100000)"
fill="#000000" stroke="none">
<path d="M311 583 c-21 -4 -23 -9 -18 -49 3 -32 0 -49 -10 -60 -19 -19 -31
-10 -41 28 -8 33 -32 51 -32 24 0 -9 -5 -16 -10 -16 -6 0 -10 6 -9 13 4 35 -3
38 -28 11 -26 -28 -26 -28 -36 -6 -15 33 -30 27 -23 -9 3 -17 6 -42 6 -54 0
-13 11 -30 25 -39 23 -15 27 -15 40 -2 8 8 15 26 15 40 0 47 33 25 43 -29 4
-16 3 -48 -1 -70 -10 -53 -36 -59 -52 -11 -6 20 -16 36 -22 36 -6 0 -8 -7 -4
-15 3 -9 0 -15 -8 -15 -9 0 -13 -13 -13 -39 0 -22 -7 -46 -15 -55 -9 -9 -15
-29 -13 -48 2 -18 3 -41 4 -50 1 -23 12 -23 39 2 24 23 30 78 10 98 -18 18 7
40 30 26 25 -16 27 -65 2 -91 -26 -28 -26 -46 0 -38 18 6 20 2 20 -44 0 -27 5
-53 10 -56 6 -4 10 16 10 53 0 32 3 62 6 65 7 7 44 -30 44 -45 0 -4 4 -8 9 -8
13 0 1 40 -20 71 -10 14 -18 34 -19 45 -3 71 1 129 10 138 5 5 10 20 10 31 0
12 11 32 25 45 21 20 25 21 31 6 12 -30 27 -17 21 19 -3 19 -1 37 4 40 5 4 9
19 9 36 0 29 -3 31 -49 22z m19 -33 c0 -5 -5 -10 -11 -10 -5 0 -7 5 -4 10 3 6
8 10 11 10 2 0 4 -4 4 -10z m-160 -75 c0 -18 -5 -25 -20 -25 -20 0 -28 28 -13
43 15 16 33 6 33 -18z m-20 -255 c0 -5 -7 -10 -15 -10 -8 0 -15 5 -15 10 0 6
7 10 15 10 8 0 15 -4 15 -10z"/>
<path d="M285 350 c-8 -24 2 -60 16 -60 27 0 49 22 49 50 0 26 -3 30 -29 30
-21 0 -32 -6 -36 -20z"/>
</g>
</svg>
