<svg version="1.0" xmlns="http://www.w3.org/2000/svg"
 width="66.000000pt" height="81.000000pt" viewBox="0 0 66.000000 81.000000"
 preserveAspectRatio="xMidYMid meet">
<metadata>
Created by potrace 1.15, written by Peter Selinger 2001-2017
</metadata>
<g transform="translate(0.000000,81.000000) scale(0.100000,-0.100000)"
fill="#000000" stroke="none">
<path d="M230 736 c0 -21 28 -40 77 -51 24 -5 45 -14 46 -20 1 -5 -18 -15 -42
-22 -46 -13 -91 -47 -91 -68 0 -7 9 -24 21 -39 18 -23 28 -26 78 -26 62 0 100
23 87 55 -11 31 -94 46 -103 18 -3 -7 9 -13 29 -15 47 -4 36 -23 -13 -23 -29
0 -45 5 -53 17 -14 23 -3 34 64 57 29 10 57 26 62 36 15 26 -18 55 -62 55 -22
0 -48 8 -63 20 -30 24 -37 25 -37 6z"/>
<path d="M468 634 c-63 -40 -43 -60 27 -27 33 16 37 16 70 0 43 -21 55 -21 55
-3 0 15 -76 56 -101 55 -8 0 -31 -11 -51 -25z"/>
<path d="M110 604 c-6 -15 -21 -40 -34 -55 -31 -37 -49 -92 -43 -132 8 -50 33
-109 50 -118 19 -11 34 8 18 24 -14 14 -14 54 -1 62 16 10 48 -4 55 -25 3 -11
-4 -38 -16 -61 -38 -76 -10 -206 46 -218 14 -2 16 1 10 15 -28 68 -39 135 -28
171 25 81 51 145 55 133 3 -10 8 -10 25 0 26 16 53 7 53 -19 0 -12 -9 -21 -25
-25 -14 -4 -25 -11 -25 -16 0 -6 11 -15 25 -20 37 -14 31 -38 -10 -46 -44 -8
-46 -32 -2 -36 32 -3 32 -3 32 -83 0 -73 2 -80 20 -80 18 0 20 8 23 82 3 81 3
81 33 92 34 12 30 31 -7 31 -29 0 -33 26 -6 46 16 13 16 15 0 28 -22 16 -23
39 -3 56 12 10 18 10 30 0 23 -19 31 -3 10 20 -15 16 -16 22 -5 35 10 13 11
18 1 28 -10 9 -17 7 -32 -12 -11 -13 -24 -31 -29 -40 -8 -14 -14 -11 -38 19
-32 37 -47 35 -47 -7 0 -46 -20 -34 -33 19 -6 28 -23 63 -36 77 -13 14 -26 37
-28 50 -4 35 -26 38 -38 5z m50 -85 c18 -33 12 -40 -27 -33 -49 9 -49 9 -29
38 18 28 40 26 56 -5z m6 -84 c21 -32 10 -50 -19 -30 -12 8 -32 15 -44 15 -16
0 -23 6 -23 20 0 31 64 28 86 -5z"/>
<path d="M465 546 c-38 -31 -26 -45 20 -23 44 21 58 21 96 1 38 -19 50 -10 22
17 -12 13 -38 23 -64 26 -36 3 -49 0 -74 -21z"/>
<path d="M487 493 c-4 -3 -7 -17 -7 -31 0 -21 -3 -23 -25 -18 -34 9 -33 -12 2
-39 33 -27 23 -50 -18 -41 -40 8 -39 -18 1 -39 24 -12 30 -22 28 -42 -4 -38
21 -41 28 -4 4 17 17 37 30 46 30 19 31 35 3 35 -30 0 -20 27 19 51 32 21 32
21 32 -25 0 -58 -23 -116 -49 -123 -31 -8 -81 -78 -81 -113 0 -42 27 -103 42
-97 14 4 15 33 3 82 -6 28 -1 36 50 86 63 61 74 92 75 197 0 55 -2 62 -20 62
-11 0 -20 -6 -20 -14 0 -7 -8 -16 -17 -20 -10 -3 -24 -9 -30 -12 -8 -3 -13 2
-13 14 0 40 -16 62 -33 45z"/>
</g>
</svg>
