<svg version="1.0" xmlns="http://www.w3.org/2000/svg"
 width="83.000000pt" height="161.000000pt" viewBox="0 0 83.000000 161.000000"
 preserveAspectRatio="xMidYMid meet">
<metadata>
Created by potrace 1.15, written by Peter Selinger 2001-2017
</metadata>
<g transform="translate(0.000000,161.000000) scale(0.100000,-0.100000)"
fill="#000000" stroke="none">
<path d="M180 1448 c-17 -233 -14 -257 29 -258 34 -1 51 -27 59 -86 7 -55 9
-59 37 -65 17 -4 50 -7 75 -8 46 -1 46 -1 63 -59 23 -77 22 -83 -8 -78 -15 3
-24 0 -22 -7 1 -7 -3 -11 -9 -10 -7 1 -15 -8 -18 -21 -5 -20 -15 -26 -65 -34
-82 -15 -201 2 -201 29 0 47 -42 16 -53 -38 -7 -38 13 -62 32 -39 12 14 41 15
72 2 9 -4 58 -8 108 -9 50 -1 91 -2 91 -2 0 0 -9 -25 -20 -55 -31 -84 -24
-318 11 -355 15 -15 11 -24 -19 -39 -41 -21 -143 -8 -230 31 -18 8 -40 12 -48
9 -21 -8 -18 -79 6 -107 19 -24 19 -24 26 9 3 17 13 32 20 32 8 0 14 -4 14 -9
0 -18 156 -29 235 -16 50 8 50 8 10 -34 -39 -41 -39 -41 -113 -41 -84 0 -96
-18 -24 -35 42 -11 42 -11 2 -50 -22 -21 -40 -43 -40 -47 0 -17 31 -7 63 22
19 17 38 30 42 30 3 0 5 -21 4 -48 -3 -36 0 -47 11 -47 11 0 17 18 24 65 10
74 30 105 137 210 55 53 69 74 78 113 12 48 11 56 -20 167 -14 51 -13 173 1
178 6 2 10 10 10 18 0 31 47 94 58 78 13 -18 65 -54 78 -54 25 0 15 21 -26 59
-22 20 -40 39 -40 41 0 3 19 4 43 2 42 -3 42 -3 14 22 -15 14 -40 29 -55 32
-67 16 -68 44 -2 44 28 0 50 4 50 9 0 11 -83 51 -106 51 -26 0 -54 20 -54 39
0 18 38 41 69 41 46 0 112 55 96 80 -4 6 1 17 9 26 21 21 21 73 0 81 -9 3 -31
-1 -48 -9 -124 -60 -224 -49 -292 34 -6 7 -26 24 -44 38 -19 14 -43 35 -54 48
-11 12 -30 22 -43 22 -13 0 -23 -1 -23 -2z m84 -120 c-15 -23 -48 5 -39 32 7
23 7 23 25 -1 10 -13 16 -27 14 -31z m79 -50 c27 -14 47 -34 47 -46 0 -5 -7
-23 -15 -38 -10 -19 -13 -42 -9 -67 6 -38 6 -38 -28 -35 -32 3 -33 4 -34 54
-1 27 -6 60 -13 71 -7 15 -8 30 -1 47 11 29 21 32 53 14z m-93 -23 c0 -17 -2
-18 -24 -9 -23 9 -20 24 4 24 11 0 20 -7 20 -15z m220 -94 c0 -20 -7 -45 -15
-55 -14 -19 -15 -19 -35 4 -24 28 -25 39 -3 85 16 33 18 34 35 18 11 -10 18
-30 18 -52z m150 60 c0 -15 -30 -42 -58 -52 -32 -12 -54 -4 -50 18 5 25 108
58 108 34z m-88 -265 c26 -28 22 -63 -12 -134 -16 -34 -30 -69 -30 -77 0 -8
-4 -15 -10 -15 -21 0 -11 -102 21 -206 5 -17 10 -56 10 -88 1 -47 -2 -61 -22
-82 -29 -31 -84 -31 -84 1 0 11 -3 25 -7 31 -4 6 -13 52 -19 102 -13 91 -2
209 22 254 5 10 9 24 9 31 0 7 18 31 40 52 40 39 40 40 40 115 1 61 3 71 12
55 6 -11 20 -29 30 -39z"/>
</g>
</svg>
