<svg version="1.0" xmlns="http://www.w3.org/2000/svg"
 width="81.000000pt" height="102.000000pt" viewBox="0 0 81.000000 102.000000"
 preserveAspectRatio="xMidYMid meet">
<metadata>
Created by potrace 1.15, written by Peter Selinger 2001-2017
</metadata>
<g transform="translate(0.000000,102.000000) scale(0.100000,-0.100000)"
fill="#000000" stroke="none">
<path d="M407 734 c-4 -4 -29 -7 -56 -8 -50 -2 -91 -25 -91 -51 0 -6 -17 -17
-37 -24 -42 -13 -103 -63 -103 -85 0 -30 54 -34 129 -9 34 10 55 13 61 7 14
-14 -35 -78 -77 -104 -56 -33 -33 -56 25 -26 38 20 67 55 83 99 14 39 14 39
31 17 30 -38 23 -74 -24 -119 -24 -22 -47 -41 -53 -41 -5 0 -23 -11 -40 -24
-26 -21 -28 -25 -13 -31 20 -8 90 25 125 58 13 11 26 17 30 12 5 -4 2 -10 -5
-12 -7 -3 -18 -11 -25 -19 -7 -8 -17 -21 -24 -28 -21 -24 -40 -80 -47 -141 -5
-41 -18 -76 -38 -108 -24 -38 -28 -51 -19 -60 10 -9 18 -5 38 18 35 43 54 90
64 164 14 95 59 154 59 77 0 -66 32 -138 85 -193 53 -55 72 -64 81 -38 4 10
-11 33 -39 64 -55 58 -73 92 -82 152 -9 61 6 69 42 24 27 -35 70 -65 93 -65 5
0 10 11 10 25 0 15 -6 25 -14 25 -7 0 -25 15 -39 33 -14 18 -44 42 -67 52 -42
19 -42 19 -37 76 4 46 1 64 -15 90 -17 28 -18 36 -7 56 7 14 26 31 41 39 27
14 29 13 38 -10 5 -14 12 -48 16 -76 6 -45 23 -70 48 -70 11 0 5 36 -19 105
-13 38 -22 71 -20 73 2 2 12 1 23 -2 21 -7 42 -64 42 -115 0 -39 27 -43 36 -4
7 27 -11 119 -29 141 -6 8 -6 12 2 12 18 0 12 29 -8 40 -21 11 -164 14 -174 4z
m90 -44 c-29 -23 -67 -26 -67 -6 0 14 21 22 69 25 24 1 24 1 -2 -19z m-103 -6
c17 -43 -10 -84 -54 -84 -40 0 -55 23 -40 59 6 17 19 32 28 34 36 10 60 6 66
-9z m-129 -73 c7 -12 -1 -17 -42 -26 -38 -8 -44 7 -10 23 28 14 44 14 52 3z"/>
<path d="M314 655 c-7 -18 3 -35 21 -35 21 0 28 19 15 35 -16 19 -29 19 -36 0z"/>
<path d="M438 615 c-3 -4 0 -22 8 -40 8 -19 14 -57 14 -85 0 -36 4 -50 14 -50
20 0 26 37 15 92 -11 48 -39 95 -51 83z"/>
</g>
</svg>
