<svg version="1.0" xmlns="http://www.w3.org/2000/svg"
 width="79.000000pt" height="135.000000pt" viewBox="0 0 79.000000 135.000000"
 preserveAspectRatio="xMidYMid meet">
<metadata>
Created by potrace 1.15, written by Peter Selinger 2001-2017
</metadata>
<g transform="translate(0.000000,135.000000) scale(0.100000,-0.100000)"
fill="#000000" stroke="none">
<path d="M260 1224 c-6 -14 -10 -31 -10 -38 0 -15 -56 -153 -68 -170 -25 -34
-37 -109 -36 -236 1 -154 10 -188 74 -250 35 -35 38 -41 33 -79 -7 -55 17 -56
51 -3 19 30 35 42 70 52 26 7 49 17 52 21 3 5 23 8 45 7 44 -1 49 -15 27 -74
-11 -31 -16 -34 -79 -44 -37 -6 -76 -18 -86 -26 -17 -13 -17 -15 6 -34 13 -11
35 -20 50 -20 25 -1 25 -2 -18 -40 -24 -22 -52 -40 -62 -40 -11 0 -19 -4 -19
-8 0 -4 -32 -14 -72 -21 -88 -16 -120 -30 -116 -50 2 -10 17 -15 46 -17 53 -3
60 -9 39 -32 -16 -17 -23 -52 -12 -52 7 0 27 17 53 42 26 25 92 50 116 44 13
-3 27 -19 35 -41 24 -68 42 -32 34 66 -6 61 -6 61 37 100 49 45 48 44 78 23
39 -27 56 5 27 49 -13 20 -12 29 5 86 19 59 19 65 4 97 -9 18 -24 36 -35 39
-10 4 -19 14 -19 23 0 28 41 101 61 107 10 4 19 11 19 16 0 5 4 9 9 9 5 0 32
10 60 23 43 19 51 26 51 50 0 31 -5 32 -80 12 -71 -19 -79 -19 -79 3 1 9 -2
27 -6 39 -5 16 -2 23 17 28 12 4 25 11 28 14 3 4 22 15 42 24 43 20 66 53 49
70 -9 9 -67 -6 -143 -38 -13 -5 -20 0 -28 20 -6 15 -9 28 -8 29 41 24 110 87
117 108 16 46 4 44 -116 -22 -46 -26 -48 -25 -93 40 -13 19 -33 42 -43 50 -11
8 -33 27 -50 43 -37 34 -45 34 -57 1z m129 -187 c-27 -18 -139 -41 -139 -29 0
18 30 80 46 97 16 16 20 15 57 -24 22 -23 38 -43 36 -44z m49 -99 c11 -26 9
-27 -51 -56 -121 -58 -179 -83 -183 -79 -3 2 -2 22 2 45 5 29 13 43 33 53 14
8 43 25 64 38 38 24 107 43 118 32 3 -3 10 -18 17 -33z m32 -151 c0 -44 -1
-45 -47 -62 -27 -10 -63 -27 -82 -37 -19 -11 -56 -22 -82 -25 -49 -6 -49 -6
-49 25 0 23 6 32 21 37 12 4 49 25 82 46 33 22 68 39 79 39 10 0 18 4 18 8 0
4 14 9 30 10 29 2 30 1 30 -41z m0 -124 c0 -15 -52 -73 -66 -73 -7 0 -14 -3
-14 -7 0 -11 -50 -33 -75 -33 -11 0 -31 7 -44 16 -23 17 -23 17 15 30 21 7 40
18 42 24 2 5 11 10 20 10 10 1 33 9 52 19 36 19 70 26 70 14z"/>
</g>
</svg>
