<svg version="1.0" xmlns="http://www.w3.org/2000/svg"
 width="71.000000pt" height="85.000000pt" viewBox="0 0 71.000000 85.000000"
 preserveAspectRatio="xMidYMid meet">
<metadata>
Created by potrace 1.15, written by Peter Selinger 2001-2017
</metadata>
<g transform="translate(0.000000,85.000000) scale(0.100000,-0.100000)"
fill="#000000" stroke="none">
<path d="M520 654 c-6 -14 -10 -32 -10 -40 0 -9 -11 -14 -33 -14 -28 0 -36 5
-50 35 -22 47 -39 45 -31 -4 5 -33 3 -39 -15 -44 -27 -7 -27 -27 -1 -27 16 0
20 -7 20 -35 0 -28 -4 -35 -19 -35 -28 0 -52 -11 -45 -21 3 -5 16 -9 30 -9 13
0 24 -5 24 -10 0 -18 -30 -84 -47 -102 -9 -10 -12 -18 -6 -18 16 0 54 45 77
92 19 40 25 43 64 46 40 3 43 1 57 -31 14 -33 96 -117 115 -117 13 0 13 17 0
25 -15 9 -66 87 -74 112 -6 18 -3 22 20 25 42 5 43 28 1 28 -50 0 -68 52 -22
64 31 8 33 24 3 28 -19 2 -24 10 -26 41 -4 43 -18 48 -32 11z m-10 -118 c0
-26 -20 -39 -45 -30 -15 6 -20 35 -8 47 3 4 17 7 30 7 18 0 23 -6 23 -24z"/>
<path d="M294 628 c-13 -25 -14 -38 -5 -68 15 -52 16 -51 -36 -48 -36 2 -49 7
-51 21 -2 9 4 19 12 22 52 16 52 17 31 25 -11 5 -47 6 -80 3 -48 -4 -63 -2
-74 11 -25 30 -33 18 -26 -39 6 -47 5 -55 -9 -55 -9 0 -16 -4 -16 -10 0 -5 28
-10 62 -12 52 -2 63 -6 66 -22 5 -23 -14 -36 -50 -36 -15 0 -30 -4 -33 -10 -4
-6 10 -10 34 -10 30 0 43 -5 51 -19 22 -42 12 -68 -45 -117 -31 -26 -53 -49
-50 -52 2 -3 29 11 60 31 51 35 75 44 75 32 0 -18 -34 -66 -74 -105 -42 -40
-58 -70 -38 -70 10 0 83 69 110 104 26 33 52 29 52 -9 0 -27 -32 -98 -57 -127
-8 -9 -12 -22 -8 -28 18 -29 84 77 100 160 5 28 1 43 -17 70 -29 43 -68 110
-68 116 0 2 15 10 33 18 32 14 32 14 0 21 -30 7 -49 28 -38 45 2 4 30 10 60
12 69 6 79 14 64 57 -6 18 -9 52 -6 77 5 52 -6 57 -29 12z m-124 -98 c0 -16
-7 -20 -35 -20 -28 0 -35 4 -35 20 0 16 7 20 35 20 28 0 35 -4 35 -20z"/>
<path d="M418 369 c-27 -27 -30 -34 -25 -74 4 -29 1 -53 -9 -74 -18 -35 -12
-65 19 -98 20 -23 20 -23 -26 -23 -49 0 -63 -13 -24 -24 30 -8 172 -7 220 2
52 10 47 26 -8 30 -25 2 -45 6 -45 9 0 3 11 18 25 35 31 36 31 57 4 92 -20 25
-20 28 -5 45 22 24 20 67 -4 91 -31 31 -85 27 -122 -11z m109 -5 c10 -26 -10
-68 -38 -81 -35 -17 -68 -6 -76 25 -5 20 0 30 23 49 34 27 82 31 91 7z m-7
-133 c28 -53 -4 -101 -66 -101 -23 0 -34 6 -42 25 -17 36 -15 45 10 72 28 29
83 32 98 4z"/>
<path d="M454 346 c-8 -22 3 -49 19 -43 6 2 12 14 12 27 0 27 -22 39 -31 16z"/>
<path d="M444 195 c-4 -9 -2 -21 4 -27 15 -15 44 -1 40 19 -4 23 -36 29 -44 8z"/>
</g>
</svg>
