<svg version="1.0" xmlns="http://www.w3.org/2000/svg"
 width="75.000000pt" height="121.000000pt" viewBox="0 0 75.000000 121.000000"
 preserveAspectRatio="xMidYMid meet">
<metadata>
Created by potrace 1.15, written by Peter Selinger 2001-2017
</metadata>
<g transform="translate(0.000000,121.000000) scale(0.100000,-0.100000)"
fill="#000000" stroke="none">
<path d="M140 1063 c-56 -8 -70 -14 -70 -27 0 -8 -6 -16 -12 -19 -9 -2 -13
-27 -12 -81 1 -93 17 -115 88 -123 46 -6 46 -6 46 -60 0 -51 -3 -58 -38 -90
-20 -19 -53 -41 -72 -49 -44 -18 -68 -51 -44 -61 14 -5 69 18 84 36 3 4 21 15
41 25 42 22 94 17 126 -13 32 -30 84 -54 94 -44 21 21 3 39 -100 99 -32 19
-37 26 -42 75 -4 30 -10 62 -14 72 -6 14 -1 17 34 17 31 0 48 7 69 28 29 26
29 29 23 105 -8 101 -24 118 -115 116 -33 -1 -72 -3 -86 -6z m32 -100 c5 -100
0 -123 -23 -123 -16 0 -18 5 -13 25 5 22 11 81 13 143 1 12 5 22 10 22 5 0 11
-30 13 -67z m73 -20 c0 -76 -2 -88 -17 -91 -16 -3 -18 6 -18 81 0 46 3 87 7
90 21 22 28 1 28 -80z m58 8 c-1 -64 -8 -85 -24 -75 -10 6 -11 131 -2 147 13
22 27 -19 26 -72z m-190 -14 c-4 -41 -10 -57 -21 -57 -12 0 -14 11 -8 61 3 33
9 65 12 71 14 22 23 -20 17 -75z"/>
<path d="M659 1038 c-19 -11 -35 -24 -37 -28 -2 -5 -12 -18 -22 -30 -21 -24
-21 -39 5 -166 16 -76 10 -108 -21 -123 -14 -6 -29 -21 -34 -33 -9 -23 -9 -23
-9 0 -1 34 -32 82 -53 82 -29 0 -24 48 7 60 27 10 55 57 55 93 0 29 -33 73
-60 82 -11 4 -20 14 -20 24 0 9 -7 26 -15 37 -19 25 -34 6 -29 -37 3 -24 -1
-31 -21 -39 -54 -21 -56 -107 -4 -160 32 -32 31 -42 -7 -72 -50 -40 -38 -115
22 -137 31 -11 40 -10 74 7 22 11 40 17 40 14 0 -14 -43 -190 -50 -207 -5 -11
-16 -42 -25 -68 -8 -26 -29 -75 -46 -108 -31 -60 -30 -87 3 -74 16 7 69 115
92 190 39 129 46 155 46 174 0 11 5 23 10 26 6 3 10 20 10 36 0 39 29 86 42
67 13 -20 3 -101 -44 -353 -5 -27 -11 -65 -15 -83 -3 -18 -9 -35 -14 -38 -5
-3 -9 -14 -9 -24 0 -11 -9 -35 -20 -55 -34 -61 -18 -102 23 -57 24 27 77 231
92 357 4 28 9 57 12 65 3 8 7 33 9 55 9 109 16 145 27 145 44 0 34 -160 -29
-474 -25 -119 -23 -145 9 -133 8 3 17 18 20 34 22 105 28 136 37 203 15 107
23 213 22 303 -1 81 -9 97 -62 127 -9 5 -17 32 -22 72 -4 34 -10 86 -13 113
-7 50 -7 51 34 84 61 50 54 87 -10 49z m-163 -133 c8 -45 -8 -65 -51 -65 -55
0 -65 62 -12 85 48 21 55 19 63 -20z m-11 -206 c4 -5 4 -21 1 -35 -6 -21 -12
-25 -39 -22 -22 2 -33 9 -36 22 -6 33 57 63 74 35z"/>
<path d="M257 788 c-10 -35 41 -108 75 -108 24 0 23 22 -1 44 -11 10 -27 33
-36 52 -18 39 -30 43 -38 12z"/>
<path d="M107 780 c-9 -14 -17 -29 -17 -35 0 -5 -14 -22 -32 -37 -26 -21 -30
-29 -21 -39 9 -9 18 -9 42 0 38 16 63 67 53 106 -8 29 -8 29 -25 5z"/>
<path d="M183 578 c-7 -8 -11 -70 -12 -155 0 -123 -3 -149 -22 -192 -12 -28
-24 -51 -28 -51 -4 0 -14 -13 -23 -28 -9 -15 -30 -43 -47 -62 -36 -41 -38 -50
-11 -50 21 0 110 81 110 100 0 12 20 49 38 68 10 11 14 11 27 -2 8 -8 15 -22
15 -30 0 -9 4 -16 9 -16 5 0 16 -15 25 -32 9 -18 29 -46 46 -62 27 -26 32 -28
45 -15 13 13 9 21 -30 69 -56 67 -90 126 -98 170 -14 66 -19 187 -10 193 12 8
1 83 -14 98 -6 6 -14 5 -20 -3z"/>
<path d="M261 521 c-10 -7 -12 -28 -7 -97 12 -156 17 -174 42 -153 12 10 14
35 11 124 -4 131 -10 148 -46 126z"/>
<path d="M80 453 c0 -38 -4 -95 -9 -128 -10 -69 -7 -79 19 -65 13 7 20 26 24
62 17 147 12 198 -19 198 -11 0 -15 -14 -15 -67z"/>
</g>
</svg>
