<svg version="1.0" xmlns="http://www.w3.org/2000/svg"
 width="67.000000pt" height="90.000000pt" viewBox="0 0 67.000000 90.000000"
 preserveAspectRatio="xMidYMid meet">
<metadata>
Created by potrace 1.15, written by Peter Selinger 2001-2017
</metadata>
<g transform="translate(0.000000,90.000000) scale(0.100000,-0.100000)"
fill="#000000" stroke="none">
<path d="M121 738 c-7 -24 -24 -57 -37 -75 -37 -49 -30 -78 28 -116 27 -17 27
-17 8 -50 -10 -17 -22 -59 -26 -92 -4 -33 -15 -80 -26 -104 -21 -49 -19 -57
10 -42 26 14 33 32 42 115 9 80 21 95 93 117 52 15 52 15 48 84 -3 61 -1 67
14 62 9 -4 25 -7 36 -7 29 0 27 -75 -3 -100 -21 -17 -19 -17 86 -22 127 -6
137 -12 161 -102 16 -65 29 -86 45 -70 5 5 6 24 0 49 -5 22 -12 53 -15 68 -8
41 -51 77 -91 77 -32 0 -34 2 -34 33 0 42 74 133 85 105 5 -12 -3 -29 -24 -53
-17 -20 -31 -38 -31 -40 0 -12 21 -3 50 21 38 32 48 26 24 -15 -25 -42 -10
-51 26 -16 38 36 38 53 -1 101 -17 22 -36 51 -41 66 -10 29 -28 29 -28 0 0 -9
-14 -37 -30 -62 -30 -45 -30 -45 -30 6 0 44 -4 53 -30 72 -22 17 -43 22 -89
22 -56 0 -61 -2 -89 -37 -29 -37 -30 -37 -56 -20 -14 10 -28 28 -32 42 -9 38
-29 30 -43 -17z m294 -14 c12 -13 15 -33 13 -98 -3 -80 -3 -81 -30 -84 -27 -3
-28 -2 -28 42 0 25 5 46 12 48 7 3 8 10 3 17 -6 10 -23 12 -68 6 -53 -6 -59
-4 -53 10 3 9 6 23 6 30 0 43 109 64 145 29z m-212 -52 c23 -24 27 -37 27 -85
0 -55 -1 -57 -27 -57 -18 0 -40 13 -65 37 -41 40 -45 52 -26 71 9 9 20 4 50
-25 46 -45 49 -34 8 30 -16 26 -30 50 -30 52 0 16 40 1 63 -23z"/>
<path d="M318 703 c-34 -9 -17 -23 27 -23 45 0 60 12 29 24 -17 6 -29 6 -56
-1z"/>
<path d="M222 470 c-28 -12 -20 -30 14 -30 33 0 30 -17 -11 -57 -29 -28 -35
-41 -35 -76 0 -39 19 -82 44 -99 6 -4 30 -8 54 -8 64 0 57 -29 -20 -81 -77
-52 -73 -48 -65 -55 9 -9 61 14 107 47 22 16 44 29 50 29 22 0 8 -40 -27 -74
-59 -57 -15 -64 46 -6 39 36 42 81 6 112 -28 24 -24 38 10 38 18 0 32 12 51
39 33 51 26 89 -23 130 -34 28 -37 51 -7 51 25 0 15 18 -17 29 -46 16 -151 22
-177 11z m136 -47 c-4 -20 -45 -30 -60 -15 -16 16 1 32 33 32 24 0 30 -4 27
-17z m57 -76 c18 -28 10 -84 -14 -96 -47 -24 -161 -20 -161 5 0 11 20 14 85
14 81 0 110 11 63 24 -37 9 -73 7 -117 -9 -40 -14 -41 -14 -47 10 -14 54 16
73 113 74 55 1 64 -2 78 -22z"/>
<path d="M288 343 c-37 -10 -16 -23 37 -23 30 0 55 5 55 10 0 6 -11 10 -24 10
-13 0 -30 2 -38 4 -7 2 -21 2 -30 -1z"/>
<path d="M487 254 c-26 -27 13 -111 46 -99 21 9 22 19 2 35 -8 7 -15 18 -15
24 0 18 -25 48 -33 40z"/>
<path d="M135 185 c-5 -46 -12 -59 -36 -77 -34 -25 -37 -38 -10 -38 26 0 78
51 87 84 6 26 -11 86 -26 86 -4 0 -11 -25 -15 -55z"/>
<path d="M148 3 c6 -2 18 -2 25 0 6 3 1 5 -13 5 -14 0 -19 -2 -12 -5z"/>
</g>
</svg>
