<svg version="1.0" xmlns="http://www.w3.org/2000/svg"
 width="69.000000pt" height="90.000000pt" viewBox="0 0 69.000000 90.000000"
 preserveAspectRatio="xMidYMid meet">
<metadata>
Created by potrace 1.15, written by Peter Selinger 2001-2017
</metadata>
<g transform="translate(0.000000,90.000000) scale(0.100000,-0.100000)"
fill="#000000" stroke="none">
<path d="M238 738 c-3 -30 -6 -33 -45 -39 -24 -3 -45 -8 -49 -11 -14 -15 10
-28 52 -28 43 0 45 -1 42 -27 -3 -24 -9 -28 -61 -38 -64 -13 -77 -24 -77 -71
0 -36 12 -44 73 -44 53 0 70 -11 65 -41 -2 -18 -10 -25 -33 -27 -74 -7 -94
-59 -80 -207 7 -76 7 -76 50 -97 38 -18 45 -27 50 -60 9 -53 39 -49 43 5 3 40
8 42 85 50 34 3 37 1 37 -23 0 -14 6 -33 14 -42 17 -23 36 -5 36 36 1 26 7 34
43 51 35 17 45 28 60 69 25 69 15 155 -23 196 -25 27 -35 30 -87 30 -32 0 -82
3 -110 6 -43 6 -53 10 -53 25 0 16 8 19 59 19 51 0 61 -3 66 -20 8 -26 22 -26
30 0 5 16 15 20 50 20 53 0 98 16 92 33 -2 8 -26 12 -68 12 -62 0 -64 1 -67
28 -3 25 -1 27 32 27 24 0 43 8 61 25 45 46 25 93 -46 110 -34 8 -45 16 -49
35 -8 36 -44 34 -48 -2 -3 -21 -9 -28 -25 -28 -12 0 -32 -3 -44 -6 -19 -5 -23
-2 -23 18 0 52 -47 66 -52 16z m145 -98 c-4 -16 -14 -20 -49 -20 -37 0 -44 3
-44 20 0 17 7 20 49 20 44 0 49 -2 44 -20z m123 8 c9 -15 -25 -40 -51 -36 -12
2 -21 12 -23 26 -3 19 1 22 32 22 19 0 38 -5 42 -12z m-116 -108 c0 -28 -2
-30 -39 -30 -55 0 -71 8 -71 36 0 22 4 24 55 24 54 0 55 0 55 -30z m-150 5 c0
-17 -46 -39 -67 -31 -19 8 -16 34 5 39 38 10 62 7 62 -8z m229 -174 c8 -5 11
-16 8 -25 -5 -13 -22 -16 -80 -16 -41 0 -109 -3 -151 -6 -70 -6 -76 -6 -70 11
12 31 63 44 174 44 58 1 111 -3 119 -8z m41 -84 c0 -7 -6 -22 -14 -33 -13 -17
-30 -19 -166 -22 -84 -2 -156 0 -161 5 -4 4 -6 19 -2 31 5 20 10 23 42 18 28
-4 225 5 289 12 6 1 12 -4 12 -11z m-9 -96 c-16 -29 -58 -39 -190 -47 -112 -6
-119 -6 -130 13 -5 11 -7 23 -4 27 3 3 68 6 144 6 81 0 140 4 144 10 3 6 15
10 26 10 16 0 18 -3 10 -19z"/>
</g>
</svg>
