<svg version="1.0" xmlns="http://www.w3.org/2000/svg"
 width="70.000000pt" height="93.000000pt" viewBox="0 0 70.000000 93.000000"
 preserveAspectRatio="xMidYMid meet">
<metadata>
Created by potrace 1.15, written by Peter Selinger 2001-2017
</metadata>
<g transform="translate(0.000000,93.000000) scale(0.100000,-0.100000)"
fill="#000000" stroke="none">
<path d="M245 758 c20 -66 19 -72 -6 -64 -58 18 -79 19 -79 2 0 -15 22 -28 96
-57 18 -6 21 -13 15 -41 -6 -28 -12 -34 -44 -39 -38 -6 -117 -39 -117 -50 0
-3 6 -14 14 -24 13 -19 15 -18 56 9 23 15 51 26 63 24 20 -3 19 -6 -15 -39
-41 -39 -46 -49 -23 -49 9 0 37 23 64 51 47 49 51 51 114 56 64 6 64 6 75 -26
12 -33 54 -81 72 -81 16 0 12 22 -9 44 -10 12 -22 31 -26 44 -6 20 -3 22 34
22 30 0 44 6 55 22 36 51 12 94 -60 113 -49 12 -49 12 -46 59 3 37 0 46 -12
46 -11 0 -20 -16 -28 -45 -11 -39 -16 -45 -39 -45 -14 0 -40 -3 -57 -6 -29 -6
-31 -4 -37 30 -7 33 -36 66 -58 66 -5 0 -6 -10 -2 -22z m185 -142 c0 -38 -12
-46 -71 -46 -38 0 -39 1 -39 34 0 34 1 35 43 39 23 2 48 4 55 5 7 1 12 -11 12
-32z m109 9 c19 -19 8 -41 -24 -47 -28 -6 -45 14 -45 52 0 19 4 21 28 15 15
-3 33 -12 41 -20z"/>
<path d="M315 454 c-51 -19 -65 -33 -86 -90 -23 -59 -16 -95 26 -133 33 -30
33 -30 15 -91 -10 -34 -26 -73 -35 -87 -23 -34 -7 -50 32 -32 33 16 72 89 73
137 0 30 3 33 27 30 23 -3 29 -11 43 -55 17 -60 32 -78 54 -70 22 8 20 37 -4
67 -26 33 -25 62 4 89 30 28 50 99 42 145 -9 48 -38 80 -84 94 -48 15 -57 14
-107 -4z m134 -40 c10 -3 12 -22 9 -80 -4 -87 -17 -104 -77 -104 -32 0 -109
35 -100 45 2 2 25 -1 52 -6 48 -9 97 1 97 20 0 15 -64 24 -114 17 -43 -7 -43
-6 -50 26 -6 29 -2 37 29 66 33 31 39 32 88 27 28 -4 58 -9 66 -11z"/>
<path d="M292 368 c7 -19 60 -29 96 -17 47 16 29 29 -39 29 -43 0 -59 -4 -57
-12z"/>
</g>
</svg>
