<svg version="1.0" xmlns="http://www.w3.org/2000/svg"
 width="65.000000pt" height="85.000000pt" viewBox="0 0 65.000000 85.000000"
 preserveAspectRatio="xMidYMid meet">
<metadata>
Created by potrace 1.15, written by Peter Selinger 2001-2017
</metadata>
<g transform="translate(0.000000,85.000000) scale(0.100000,-0.100000)"
fill="#000000" stroke="none">
<path d="M185 591 c-78 -6 -81 -8 -76 -41 0 -6 75 -10 200 -10 130 0 202 -4
206 -11 4 -5 4 -21 1 -34 -6 -23 -6 -23 -190 -27 -228 -4 -219 2 -235 -139
-14 -122 -14 -296 -1 -304 5 -3 19 -1 30 5 19 10 20 20 20 183 0 95 5 179 10
187 8 12 46 16 212 20 202 5 202 5 209 30 12 43 10 105 -5 125 -12 17 -29 19
-157 21 -79 1 -180 -1 -224 -5z"/>
<path d="M355 388 c-2 -7 -5 -22 -7 -33 -3 -18 -12 -20 -88 -23 -146 -5 -135
-42 13 -42 88 0 88 0 85 -37 -3 -38 -3 -38 -63 -43 -52 -4 -61 -8 -71 -30 -24
-52 -25 -93 -3 -120 20 -24 26 -25 161 -28 174 -4 188 2 188 81 0 28 -6 63
-13 77 -12 23 -19 25 -77 25 -65 0 -65 0 -68 38 -3 37 -3 37 51 37 33 0 59 5
66 13 17 21 3 27 -61 27 -51 0 -58 2 -58 19 0 33 -11 51 -31 51 -11 0 -21 -6
-24 -12z m150 -263 c0 -40 0 -40 -120 -40 -120 0 -120 0 -120 35 0 31 4 36 30
41 17 4 71 6 120 5 90 -1 90 -1 90 -41z"/>
</g>
</svg>
