<svg version="1.0" xmlns="http://www.w3.org/2000/svg"
 width="65.000000pt" height="165.000000pt" viewBox="0 0 65.000000 165.000000"
 preserveAspectRatio="xMidYMid meet">
<metadata>
Created by potrace 1.15, written by Peter Selinger 2001-2017
</metadata>
<g transform="translate(0.000000,165.000000) scale(0.100000,-0.100000)"
fill="#000000" stroke="none">
<path d="M470 1471 c0 -70 -2 -81 -17 -81 -10 0 -32 -9 -50 -20 -18 -10 -61
-27 -95 -36 -79 -20 -95 -32 -71 -50 20 -15 53 -18 53 -6 0 7 58 25 158 49 24
6 24 4 26 -96 1 -45 -1 -47 -54 -69 -14 -5 -46 -19 -72 -31 -26 -12 -55 -21
-64 -21 -9 0 -43 -12 -76 -27 -47 -21 -56 -28 -43 -35 20 -12 137 14 205 44
19 9 52 19 74 22 38 5 38 5 32 -36 -8 -49 -38 -94 -69 -103 -12 -4 -41 -15
-64 -26 -24 -10 -51 -19 -60 -19 -29 0 -149 -97 -163 -130 -9 -22 -10 -51 -5
-98 11 -94 15 -550 5 -576 -5 -13 -2 -31 6 -48 15 -30 28 -35 40 -17 4 6 7
163 7 348 0 336 0 336 32 384 35 52 83 90 127 101 15 3 61 23 103 42 94 46 95
49 94 284 0 207 -15 323 -41 328 -16 3 -18 -6 -18 -77z"/>
<path d="M424 799 c1 -40 -3 -73 -9 -77 -20 -13 -80 -32 -102 -32 -13 0 -23
-4 -23 -9 0 -16 33 -22 87 -15 53 6 53 6 53 -81 0 -77 2 -86 18 -83 14 3 17
17 20 96 3 92 3 92 41 92 43 0 76 25 47 36 -9 4 -32 4 -51 1 -38 -6 -35 -14
-41 88 -1 17 -2 36 -3 43 0 6 -10 12 -20 12 -17 0 -19 -7 -17 -71z"/>
<path d="M550 536 c0 -39 -5 -67 -12 -73 -14 -11 -125 -23 -145 -16 -8 3 -13
21 -13 42 0 36 -30 88 -42 75 -11 -10 2 -163 17 -204 19 -55 32 -66 87 -74
119 -18 158 25 166 181 4 80 2 96 -13 113 -33 37 -45 25 -45 -44z m-16 -122
c24 -9 19 -49 -6 -66 -57 -36 -113 -31 -121 10 -6 32 10 44 68 53 22 3 41 7
42 7 1 1 8 -1 17 -4z"/>
</g>
</svg>
