<svg version="1.0" xmlns="http://www.w3.org/2000/svg"
 width="83.000000pt" height="97.000000pt" viewBox="0 0 83.000000 97.000000"
 preserveAspectRatio="xMidYMid meet">
<metadata>
Created by potrace 1.15, written by Peter Selinger 2001-2017
</metadata>
<g transform="translate(0.000000,97.000000) scale(0.100000,-0.100000)"
fill="#000000" stroke="none">
<path d="M660 899 c-6 -11 -10 -39 -8 -62 3 -42 3 -42 -36 -45 -33 -3 -43 1
-71 32 -34 37 -54 46 -56 24 -2 -37 3 -149 12 -273 15 -201 52 -325 96 -325 7
0 13 -4 13 -10 0 -5 15 -10 33 -10 62 0 82 -18 96 -84 17 -80 30 -113 47 -120
25 -9 28 23 10 99 -9 40 -21 108 -27 151 -5 44 -14 111 -20 149 -5 39 -14 138
-19 220 -15 244 -20 274 -52 275 -4 0 -12 -9 -18 -21z m-7 -171 c17 -13 40
-139 30 -165 -9 -22 -131 -8 -134 15 -5 40 -4 121 3 134 4 9 23 19 41 21 17 2
35 5 38 5 3 1 13 -4 22 -10z m-44 -231 c17 -7 47 -35 66 -63 28 -39 35 -58 35
-96 0 -43 -2 -47 -30 -53 -41 -9 -69 2 -82 33 -36 90 -48 130 -48 159 0 37 10
40 59 20z"/>
<path d="M95 798 c46 -152 67 -513 35 -623 -23 -78 -23 -85 -5 -105 37 -40 65
-21 65 44 0 77 34 116 100 116 21 0 41 12 74 44 54 54 65 101 48 215 -6 42
-16 126 -22 186 -6 61 -16 115 -23 121 -27 27 -53 25 -85 -6 -17 -16 -44 -32
-59 -36 -15 -4 -33 -11 -40 -16 -18 -15 -33 0 -33 33 0 22 -6 32 -26 39 -35
14 -37 13 -29 -12z m238 -128 c3 -28 4 -56 1 -63 -2 -7 -28 -25 -56 -39 -67
-35 -91 -27 -99 33 -6 37 -3 47 15 64 17 17 99 52 127 54 3 1 9 -22 12 -49z
m28 -218 c6 -30 -2 -71 -21 -112 -9 -19 -67 -59 -97 -66 -43 -11 -53 1 -53 66
0 101 42 150 125 147 36 -2 40 -5 46 -35z"/>
</g>
</svg>
