<svg version="1.0" xmlns="http://www.w3.org/2000/svg"
 width="72.000000pt" height="79.000000pt" viewBox="0 0 72.000000 79.000000"
 preserveAspectRatio="xMidYMid meet">
<metadata>
Created by potrace 1.15, written by Peter Selinger 2001-2017
</metadata>
<g transform="translate(0.000000,79.000000) scale(0.100000,-0.100000)"
fill="#000000" stroke="none">
<path d="M187 704 c-4 -4 -7 -52 -7 -106 0 -78 -3 -98 -14 -98 -21 0 -66 58
-66 85 0 34 -18 41 -30 10 -13 -33 17 -97 58 -122 61 -39 57 -60 -33 -154 -41
-43 -75 -83 -75 -89 0 -23 29 -7 80 45 84 85 85 84 71 -94 -9 -103 -7 -131 10
-131 16 0 29 77 29 178 0 69 4 102 11 102 7 0 34 -13 61 -30 26 -16 53 -30 58
-30 21 0 8 21 -27 43 -73 46 -103 82 -103 121 0 29 4 36 20 36 24 0 90 85 90
116 0 32 -12 30 -33 -6 -24 -40 -45 -60 -64 -60 -13 0 -14 15 -12 92 4 85 -3
112 -24 92z"/>
<path d="M443 685 c-21 -9 -35 -23 -39 -40 -10 -39 13 -105 51 -146 36 -40 55
-117 55 -222 0 -62 -9 -68 -63 -48 -21 8 -25 18 -31 74 -8 71 -52 157 -81 157
-21 0 -19 -10 9 -51 16 -24 29 -63 37 -118 14 -93 36 -121 94 -121 52 0 93
-20 115 -55 11 -18 20 -39 20 -46 0 -25 31 -62 43 -50 7 7 3 31 -12 78 -17 53
-29 73 -55 91 -18 12 -38 22 -45 22 -9 0 -11 8 -7 22 3 13 6 42 6 66 0 39 2
42 28 42 46 0 80 45 98 129 8 41 12 76 10 79 -12 11 -34 -21 -51 -73 -17 -55
-48 -105 -66 -105 -5 0 -12 18 -15 40 -4 25 -26 68 -55 110 -27 38 -49 75 -49
83 0 28 39 51 88 51 44 1 47 -1 50 -26 3 -22 -3 -30 -30 -45 -33 -18 -33 -18
-4 -21 35 -4 86 40 86 75 0 52 -112 81 -187 48z"/>
</g>
</svg>
