<svg version="1.0" xmlns="http://www.w3.org/2000/svg"
 width="101.000000pt" height="213.000000pt" viewBox="0 0 101.000000 213.000000"
 preserveAspectRatio="xMidYMid meet">
<metadata>
Created by potrace 1.15, written by Peter Selinger 2001-2017
</metadata>
<g transform="translate(0.000000,213.000000) scale(0.100000,-0.100000)"
fill="#000000" stroke="none">
<path d="M647 1923 c5 -36 26 -107 33 -113 3 -3 11 -21 17 -39 16 -43 -1 -74
-52 -98 -30 -14 -35 -22 -35 -50 0 -18 2 -33 4 -33 2 0 23 9 47 20 48 21 89
26 89 10 0 -5 -4 -10 -10 -10 -5 0 -10 -8 -10 -17 -1 -10 -19 -36 -40 -58 -27
-27 -40 -49 -40 -67 0 -29 14 -45 25 -28 3 6 25 20 48 31 22 12 47 28 55 36
36 35 53 -67 18 -106 -20 -22 -35 -111 -19 -111 12 0 43 36 71 83 34 59 30
133 -14 235 -8 17 -21 49 -30 70 -9 20 -24 55 -34 77 -82 180 -91 195 -109
195 -14 0 -17 -6 -14 -27z"/>
<path d="M300 1819 c-14 -4 -51 -12 -82 -19 -121 -24 -189 -144 -189 -330 1
-673 3 -790 11 -795 6 -3 10 -15 10 -26 0 -12 7 -19 18 -19 15 0 20 13 29 75
7 49 7 90 1 117 -7 31 -6 43 4 50 10 6 10 10 1 16 -8 5 -12 72 -13 237 -2 207
0 235 18 282 27 71 61 98 145 114 69 12 94 32 66 50 -8 5 -58 6 -112 2 -97 -6
-97 -6 -91 43 10 77 46 108 156 133 49 12 103 21 119 21 23 0 30 4 27 17 -4
21 -83 43 -118 32z"/>
<path d="M173 1370 c-1 -43 -5 -105 -8 -136 -8 -92 43 -164 116 -164 67 0 149
161 149 290 0 51 -19 53 -51 5 -22 -31 -29 -35 -69 -35 -52 1 -74 14 -83 51
-6 22 -38 69 -48 69 -2 0 -5 -36 -6 -80z m165 -92 c26 -26 8 -102 -36 -146
-22 -23 -22 -23 -51 -3 -35 25 -50 86 -31 132 11 26 17 29 59 29 26 0 52 -5
59 -12z"/>
<path d="M515 1358 c-30 -49 -45 -106 -45 -170 0 -36 -5 -58 -12 -61 -10 -4
-10 -8 -1 -14 6 -4 13 -35 15 -67 3 -56 2 -60 -22 -67 -14 -4 -53 -7 -87 -8
-49 -1 -65 3 -75 17 -30 42 -39 36 -37 -25 2 -61 21 -113 42 -113 7 0 25 14
40 30 25 26 36 30 83 30 52 0 53 -1 44 -24 -10 -28 5 -99 30 -136 9 -14 27
-60 41 -102 13 -43 29 -78 36 -78 16 0 77 63 103 108 18 28 23 51 22 100 -1
64 -15 125 -35 150 -15 19 4 29 70 37 56 7 83 -3 83 -32 0 -28 30 -72 45 -67
12 5 15 31 15 144 0 134 -1 138 -22 144 -37 10 -38 8 -38 -49 0 -64 -15 -79
-92 -89 -47 -7 -47 -7 -47 76 1 69 -3 90 -21 123 -63 111 -80 144 -80 159 0
28 -35 17 -55 -16z m74 -144 c43 -124 16 -235 -49 -194 -23 15 -19 213 5 240
10 11 19 19 20 18 1 -2 12 -30 24 -64z m29 -329 c21 -45 15 -143 -10 -177 -21
-30 -21 -30 -39 -7 -10 13 -19 29 -19 36 0 6 -6 13 -12 16 -18 5 -17 119 1
140 21 27 66 22 79 -8z"/>
<path d="M406 528 c-21 -78 23 -172 94 -204 55 -25 85 -38 88 -40 2 -1 7 -45
12 -97 7 -83 23 -137 41 -137 11 0 29 102 29 167 0 72 3 76 72 113 44 23 64
63 73 141 5 51 4 57 -14 62 -25 6 -31 0 -31 -30 0 -13 -4 -31 -9 -41 -5 -9
-14 -28 -20 -42 -7 -14 -21 -31 -32 -38 -29 -18 -59 16 -59 67 0 35 -3 39 -30
43 -30 5 -30 5 -30 -64 0 -61 -2 -68 -20 -68 -31 0 -94 69 -110 120 -13 41
-31 70 -43 70 -3 0 -7 -10 -11 -22z"/>
</g>
</svg>
