<svg version="1.0" xmlns="http://www.w3.org/2000/svg"
 width="68.000000pt" height="93.000000pt" viewBox="0 0 68.000000 93.000000"
 preserveAspectRatio="xMidYMid meet">
<metadata>
Created by potrace 1.15, written by Peter Selinger 2001-2017
</metadata>
<g transform="translate(0.000000,93.000000) scale(0.100000,-0.100000)"
fill="#000000" stroke="none">
<path d="M449 748 c-1 -2 -7 -30 -13 -63 -12 -56 -13 -58 -23 -35 -6 14 -14
34 -18 44 -6 19 -6 19 -27 -1 -19 -20 -20 -25 -8 -54 9 -20 26 -37 47 -45 18
-8 33 -18 33 -23 0 -5 2 -16 5 -23 4 -9 -7 -20 -27 -30 -48 -23 -138 -97 -138
-114 0 -15 35 -19 45 -5 3 5 33 30 66 55 62 46 62 46 118 15 31 -18 67 -40 80
-50 30 -24 47 -24 55 -2 10 24 -43 66 -115 92 -56 21 -56 21 -46 55 7 22 20
37 39 44 16 6 34 25 45 46 16 34 16 38 1 53 -23 22 -46 10 -50 -28 -3 -34 -28
-54 -28 -22 0 31 -20 93 -30 93 -6 0 -10 -1 -11 -2z"/>
<path d="M205 688 c-9 -65 -13 -72 -31 -57 -10 8 -13 22 -9 40 5 22 2 30 -16
39 -17 10 -23 9 -30 -1 -24 -39 5 -113 48 -124 33 -8 43 -21 43 -58 0 -22 4
-28 18 -25 12 2 18 15 20 44 2 33 8 44 28 52 13 7 34 32 46 57 19 40 20 47 8
55 -26 17 -36 11 -46 -27 -12 -49 -34 -56 -34 -10 0 83 -35 93 -45 15z"/>
<path d="M217 454 c-4 -4 -7 -15 -7 -25 0 -11 -11 -20 -30 -24 -36 -8 -50 0
-50 26 0 32 -34 19 -41 -16 -11 -51 -10 -170 2 -206 20 -58 38 -72 89 -66 65
7 90 42 89 122 -2 120 -13 190 -29 193 -9 1 -19 0 -23 -4z m-1 -156 c-5 -56
-12 -77 -28 -91 -31 -26 -44 -7 -52 75 -8 80 -4 88 53 88 34 0 34 0 27 -72z"/>
<path d="M410 393 c-32 -6 -52 -22 -44 -35 4 -7 34 -8 81 -4 83 8 127 21 118
36 -6 10 -106 12 -155 3z"/>
<path d="M484 296 c-28 -6 -59 -17 -68 -25 -31 -26 -14 -117 39 -200 28 -46
50 -60 68 -42 8 8 1 30 -25 84 -20 40 -38 87 -40 103 -3 28 -2 29 55 35 67 7
87 20 67 44 -14 17 -25 17 -96 1z"/>
</g>
</svg>
