<svg version="1.0" xmlns="http://www.w3.org/2000/svg"
 width="76.000000pt" height="123.000000pt" viewBox="0 0 76.000000 123.000000"
 preserveAspectRatio="xMidYMid meet">
<metadata>
Created by potrace 1.15, written by Peter Selinger 2001-2017
</metadata>
<g transform="translate(0.000000,123.000000) scale(0.100000,-0.100000)"
fill="#000000" stroke="none">
<path d="M469 1073 c-1 -5 0 -56 1 -115 2 -129 -6 -153 -72 -196 -26 -18 -48
-37 -48 -42 0 -6 -6 -10 -13 -10 -7 0 -18 -5 -24 -11 -12 -12 -6 -49 9 -49 12
0 102 61 106 72 2 4 8 8 14 8 5 0 22 8 36 19 32 22 39 20 128 -42 72 -49 104
-54 104 -16 0 13 -21 33 -62 59 -35 21 -78 52 -95 69 -33 29 -33 29 -33 133 0
103 -7 128 -37 128 -7 0 -14 -3 -14 -7z"/>
<path d="M355 1050 c-3 -10 -2 -27 4 -37 11 -21 0 -89 -22 -143 -17 -41 -13
-60 13 -60 47 0 87 204 48 243 -22 22 -35 21 -43 -3z"/>
<path d="M577 1063 c-17 -16 2 -157 24 -173 3 -3 14 -21 24 -40 21 -41 31 -49
55 -43 30 8 31 29 2 60 -41 45 -49 64 -57 136 -6 54 -11 67 -24 67 -10 0 -21
-3 -24 -7z"/>
<path d="M48 1033 c-16 -2 -28 -11 -28 -19 0 -17 14 -24 56 -28 29 -3 29 -3
27 -82 -2 -44 -7 -144 -13 -224 -6 -80 -15 -219 -20 -310 -4 -91 -10 -203 -13
-250 -3 -51 -1 -90 5 -97 16 -20 37 -15 43 10 6 27 14 209 21 462 2 105 7 197
10 205 4 8 9 70 13 137 7 125 15 149 44 137 34 -13 40 -77 32 -334 -5 -135 -9
-279 -10 -320 -1 -41 -3 -118 -4 -170 -2 -52 -2 -101 -2 -107 2 -22 37 -14 49
10 14 26 25 659 15 830 -8 141 -12 147 -118 151 -44 2 -92 1 -107 -1z"/>
<path d="M485 630 c-4 -12 -6 -85 -5 -163 2 -162 -4 -209 -31 -233 -10 -9 -19
-21 -19 -26 0 -5 -18 -28 -40 -50 -22 -23 -40 -45 -40 -49 0 -4 -14 -16 -30
-26 -23 -13 -30 -24 -28 -42 2 -14 8 -26 14 -28 13 -4 80 61 123 117 14 19 32
41 39 48 6 8 17 22 22 33 15 28 32 23 58 -15 26 -39 104 -114 145 -141 61 -39
56 33 -5 76 -41 29 -45 33 -88 89 -19 25 -37 47 -41 50 -13 11 -20 69 -25 209
-5 134 -13 171 -35 171 -4 0 -11 -9 -14 -20z"/>
<path d="M614 615 c-13 -33 1 -230 19 -264 9 -19 17 -40 17 -48 0 -7 7 -25 16
-39 13 -19 20 -22 30 -13 16 13 19 50 5 64 -26 28 -51 135 -51 217 0 68 -3 87
-15 92 -9 3 -18 -1 -21 -9z"/>
<path d="M365 600 c-4 -7 -9 -63 -11 -124 -2 -80 -8 -128 -23 -173 -22 -66
-20 -93 9 -93 52 0 97 325 52 381 -15 17 -21 19 -27 9z"/>
</g>
</svg>
