<svg version="1.0" xmlns="http://www.w3.org/2000/svg"
 width="103.000000pt" height="153.000000pt" viewBox="0 0 103.000000 153.000000"
 preserveAspectRatio="xMidYMid meet">
<metadata>
Created by potrace 1.15, written by Peter Selinger 2001-2017
</metadata>
<g transform="translate(0.000000,153.000000) scale(0.100000,-0.100000)"
fill="#000000" stroke="none">
<path d="M362 1498 c-6 -7 -28 -22 -49 -33 -42 -22 -114 -88 -132 -122 -6 -12
-11 -31 -11 -42 0 -17 -6 -21 -30 -21 -16 0 -35 7 -42 16 -37 45 -51 55 -59
47 -6 -6 -6 -19 -1 -34 6 -13 16 -44 23 -69 7 -25 17 -51 22 -57 14 -19 38
-15 44 7 6 21 36 35 53 25 15 -9 12 -81 -3 -94 -8 -6 -32 -9 -55 -7 -56 6 -64
-7 -41 -76 25 -78 37 -98 54 -92 11 4 15 21 15 56 0 49 0 49 38 46 33 -3 37
-6 40 -33 8 -87 67 -187 103 -178 20 6 26 37 9 48 -5 3 -10 19 -10 35 0 27 2
29 73 40 93 16 99 18 95 33 -3 8 -35 14 -93 17 -85 5 -90 6 -96 30 -11 40 -10
50 6 50 8 0 15 4 15 8 0 5 11 12 25 18 32 12 134 95 135 110 0 15 -29 38 -65
53 -19 7 -39 27 -53 54 -30 57 -28 83 6 99 20 10 27 20 27 43 0 32 -24 45 -43
23z m-66 -182 c20 -20 18 -26 -11 -26 -27 0 -28 1 -19 24 8 20 12 20 30 2z
m78 -92 c9 -3 16 -10 16 -15 0 -12 -100 -60 -111 -53 -5 3 -9 18 -9 34 0 26 4
29 38 33 20 2 40 4 44 5 3 1 13 -1 22 -4z"/>
<path d="M555 1391 c-6 -20 13 -61 27 -61 18 0 6 -55 -22 -94 -25 -37 -27 -46
-16 -61 16 -23 44 -9 82 40 29 38 47 43 70 20 16 -16 11 -32 -68 -193 -37 -75
-40 -85 -26 -98 14 -14 18 -13 42 11 14 14 26 29 26 33 0 17 26 62 35 61 6 0
24 -8 40 -18 28 -17 30 -22 29 -73 -1 -41 -9 -69 -33 -112 -36 -67 -80 -131
-110 -163 -25 -26 -26 -33 -7 -33 8 0 17 -6 19 -12 3 -8 22 5 50 35 25 26 49
47 55 47 6 0 20 -20 32 -45 30 -63 71 -103 137 -135 69 -34 91 -22 43 22 -16
15 -30 30 -30 33 0 2 -20 25 -44 51 -27 28 -51 65 -61 96 -15 48 -15 52 3 92
11 22 22 70 26 106 8 79 -10 119 -72 165 -22 17 -41 32 -41 35 0 3 8 15 18 27
19 22 19 22 72 3 69 -26 119 -27 119 -2 0 15 -40 42 -63 42 -30 0 -212 105
-258 149 -30 28 -57 51 -61 51 -4 0 -9 -9 -13 -19z"/>
<path d="M429 851 c-19 -22 -49 -58 -67 -80 -34 -41 -34 -41 -75 -13 -110 73
-152 73 -141 1 2 -19 7 -61 9 -94 8 -104 17 -148 36 -169 53 -59 69 -86 69
-118 0 -44 -5 -49 -38 -32 -46 22 -89 26 -96 8 -6 -15 17 -43 35 -44 4 0 23
-7 44 -15 30 -13 35 -18 25 -30 -7 -8 -21 -15 -32 -15 -22 0 -98 -37 -98 -48
0 -24 55 -43 74 -25 3 4 21 12 40 18 33 12 33 12 33 -42 0 -59 18 -88 46 -77
12 4 17 18 17 48 1 64 26 236 36 245 5 5 23 12 40 15 31 7 31 7 47 -56 9 -35
21 -90 28 -122 14 -73 46 -123 66 -103 11 10 12 27 5 70 -5 31 -7 57 -5 57 2
0 23 -9 45 -20 44 -21 83 -26 93 -11 7 13 -20 39 -58 55 -18 8 -41 21 -51 29
-19 14 -19 16 18 51 22 20 43 36 48 36 5 0 8 10 6 23 -4 32 -41 33 -81 3 -19
-14 -39 -26 -45 -26 -23 0 -12 39 23 80 30 36 35 49 35 93 -1 29 -5 72 -11 97
-13 56 -26 121 -36 179 -5 27 -16 49 -29 58 -20 12 -24 10 -55 -26z m29 -103
c-2 -14 -14 -26 -30 -32 -38 -13 -44 -2 -17 28 30 31 51 33 47 4z m-194 -29
c37 -17 40 -37 6 -44 -16 -4 -34 -4 -40 0 -11 7 -14 38 -3 48 8 9 8 9 37 -4z
m224 -80 c2 -13 -13 -20 -74 -34 -42 -9 -92 -17 -111 -18 -18 -1 -33 -5 -33
-9 0 -4 -4 -8 -10 -8 -16 0 -11 19 10 38 22 18 150 52 190 49 14 -1 26 -9 28
-18z m-18 -121 c0 -7 -11 -25 -24 -40 -21 -25 -30 -28 -83 -28 -47 0 -64 4
-78 20 -10 11 -16 23 -12 26 9 9 117 31 160 33 24 1 37 -3 37 -11z"/>
</g>
</svg>
