<svg version="1.0" xmlns="http://www.w3.org/2000/svg"
 width="57.000000pt" height="123.000000pt" viewBox="0 0 57.000000 123.000000"
 preserveAspectRatio="xMidYMid meet">
<metadata>
Created by potrace 1.15, written by Peter Selinger 2001-2017
</metadata>
<g transform="translate(0.000000,123.000000) scale(0.100000,-0.100000)"
fill="#000000" stroke="none">
<path d="M75 1122 c-16 -14 -20 -29 -20 -82 0 -36 -4 -87 -8 -115 -23 -145
-25 -209 -6 -250 10 -23 29 -47 43 -55 14 -7 26 -17 26 -22 0 -4 5 -8 11 -8 5
0 46 -14 90 -32 62 -24 83 -28 92 -19 23 23 -2 44 -115 97 -86 40 -90 48 -82
138 8 89 7 89 134 92 114 2 120 3 120 12 0 13 -63 32 -105 32 -21 0 -58 10
-83 21 -44 22 -44 22 -41 93 3 66 -10 117 -29 116 -4 -1 -16 -8 -27 -18z"/>
<path d="M283 739 c-19 -6 -33 -16 -33 -25 0 -9 6 -14 13 -11 7 3 24 -4 38
-14 13 -10 30 -19 37 -19 6 0 12 -4 12 -8 0 -4 20 -14 45 -21 57 -17 80 -58
64 -116 -15 -53 -48 -70 -144 -71 -119 -2 -125 -3 -125 -14 0 -5 11 -17 25
-26 19 -12 28 -14 39 -5 11 9 15 8 20 -5 5 -14 16 -16 66 -11 33 4 70 3 84 -3
29 -11 36 -44 42 -210 4 -92 9 -120 24 -140 19 -25 19 -25 30 4 7 19 9 82 6
180 -3 83 -2 207 3 276 5 86 4 129 -3 137 -10 10 -87 54 -153 87 -13 6 -23 14
-23 19 0 9 -26 8 -67 -4z"/>
</g>
</svg>
