<svg version="1.0" xmlns="http://www.w3.org/2000/svg"
 width="73.000000pt" height="122.000000pt" viewBox="0 0 73.000000 122.000000"
 preserveAspectRatio="xMidYMid meet">
<metadata>
Created by potrace 1.15, written by Peter Selinger 2001-2017
</metadata>
<g transform="translate(0.000000,122.000000) scale(0.100000,-0.100000)"
fill="#000000" stroke="none">
<path d="M168 1118 c-3 -55 3 -80 37 -150 19 -38 -4 -61 -88 -88 -98 -32 -86
-57 20 -40 75 13 73 13 73 -7 -1 -29 -22 -49 -65 -62 -97 -31 -115 -46 -69
-57 28 -7 109 17 152 44 20 13 23 22 20 73 -2 42 2 62 14 76 20 22 13 79 -12
108 -17 18 -21 31 -36 103 -6 30 -43 30 -46 0z"/>
<path d="M484 1108 c-4 -6 -9 -65 -10 -132 -4 -121 -4 -121 -36 -148 -18 -15
-40 -28 -48 -28 -29 -2 -75 -37 -78 -58 -4 -29 11 -28 67 6 72 44 118 63 135
56 9 -3 16 -10 16 -15 0 -5 9 -9 21 -9 11 0 37 -13 57 -29 20 -16 52 -31 70
-33 28 -4 32 -2 32 19 0 15 -6 23 -18 23 -10 0 -22 4 -28 9 -5 5 -36 24 -69
42 -33 18 -63 37 -67 43 -4 5 -5 62 -3 125 1 63 1 121 -2 128 -6 16 -29 17
-39 1z"/>
<path d="M350 1047 c0 -19 -3 -67 -6 -108 -6 -83 5 -115 30 -89 14 14 20 82
17 188 -1 35 -4 42 -21 42 -16 0 -20 -7 -20 -33z"/>
<path d="M590 965 c0 -86 3 -107 15 -112 9 -3 19 -2 23 2 11 10 2 188 -10 202
-22 27 -28 9 -28 -92z"/>
<path d="M210 709 c0 -29 -44 -65 -97 -81 -24 -7 -43 -16 -43 -20 0 -4 -10 -8
-22 -8 -31 0 -52 -15 -43 -30 7 -12 35 -10 98 5 27 7 27 7 27 -184 -1 -105 -5
-193 -10 -196 -5 -3 -16 2 -24 11 -16 16 -19 44 -17 199 1 89 -4 115 -23 115
-13 0 -26 -117 -26 -235 0 -70 24 -129 50 -122 11 3 21 0 22 -5 5 -14 53 -19
106 -12 55 7 57 31 3 40 -33 5 -40 11 -43 33 -7 55 2 79 35 92 61 24 66 34 65
118 -1 42 -5 81 -10 87 -5 7 -7 17 -6 24 2 7 -2 14 -8 17 -15 5 -24 -30 -24
-97 0 -74 -8 -100 -31 -100 -17 0 -19 9 -19 99 0 75 -4 101 -15 111 -18 15
-11 30 14 30 10 0 32 7 49 16 25 12 32 22 32 45 0 34 -16 69 -30 69 -6 0 -10
-10 -10 -21z"/>
<path d="M373 663 c-24 -16 -43 -36 -43 -45 0 -9 -4 -20 -10 -23 -14 -9 -13
-138 2 -153 9 -9 11 -49 8 -140 -7 -251 -6 -277 10 -277 22 0 28 38 29 197 1
148 1 148 46 141 59 -8 61 19 3 44 -16 7 -28 19 -28 26 0 17 64 87 79 87 17 0
13 27 -4 34 -8 3 -15 2 -15 -2 0 -4 -13 -16 -30 -27 -16 -11 -35 -30 -41 -42
-17 -31 -26 -29 -33 10 -10 61 5 97 59 135 28 19 50 39 50 45 0 22 -40 17 -82
-10z"/>
<path d="M510 679 c0 -8 15 -21 33 -28 72 -32 112 -111 93 -186 -9 -35 -18
-31 -39 15 -22 48 -73 88 -90 71 -9 -9 -5 -17 14 -34 14 -12 32 -39 40 -60 13
-37 13 -38 -15 -61 -31 -24 -29 -46 4 -46 26 0 32 -38 34 -204 0 -74 4 -138 8
-141 4 -4 14 0 23 8 12 13 15 46 15 191 0 159 2 176 19 188 10 7 22 28 25 46
4 17 12 32 17 32 5 0 9 14 9 31 0 16 -4 28 -9 25 -5 -3 -12 6 -16 22 -14 55
-82 123 -138 137 -19 5 -27 3 -27 -6z"/>
</g>
</svg>
