<svg version="1.0" xmlns="http://www.w3.org/2000/svg"
 width="64.000000pt" height="78.000000pt" viewBox="0 0 64.000000 78.000000"
 preserveAspectRatio="xMidYMid meet">
<metadata>
Created by potrace 1.15, written by Peter Selinger 2001-2017
</metadata>
<g transform="translate(0.000000,78.000000) scale(0.100000,-0.100000)"
fill="#000000" stroke="none">
<path d="M404 686 c-3 -14 -3 -29 0 -34 10 -17 -28 -49 -86 -73 -56 -22 -77
-49 -39 -49 19 0 120 38 135 51 5 4 23 0 40 -9 75 -40 136 -52 136 -28 0 13
-114 76 -137 76 -5 0 -9 19 -9 42 1 32 -3 43 -16 46 -12 2 -19 -5 -24 -22z"/>
<path d="M210 675 c-8 -10 -31 -15 -66 -15 -62 0 -84 -21 -84 -82 0 -32 4 -40
26 -48 14 -6 43 -10 65 -10 39 0 39 0 39 -45 0 -45 0 -45 -35 -45 -29 0 -37 5
-45 25 -10 27 -24 32 -37 13 -4 -7 -11 -60 -15 -118 -3 -58 -10 -144 -14 -191
-5 -66 -4 -88 6 -94 18 -11 40 22 40 61 0 33 13 44 52 44 29 0 16 24 -16 28
-25 3 -27 6 -24 45 3 41 4 42 42 45 38 3 38 3 32 -80 -4 -46 -12 -102 -18
-126 -12 -48 -5 -63 18 -40 25 24 43 138 50 314 7 162 7 162 -19 188 -20 20
-36 26 -67 26 -37 0 -41 2 -38 23 3 19 11 23 55 27 49 5 103 38 103 62 0 14
-37 9 -50 -7z m-24 -297 c-3 -13 -6 -31 -6 -40 0 -14 -9 -18 -41 -18 -38 0
-41 2 -35 23 3 12 6 27 6 34 0 10 18 16 69 22 9 1 11 -6 7 -21z"/>
<path d="M288 654 c-27 -14 -39 -44 -18 -44 24 0 90 34 90 46 0 18 -37 17 -72
-2z"/>
<path d="M490 651 c0 -15 42 -41 67 -41 31 0 31 35 1 44 -34 9 -68 7 -68 -3z"/>
<path d="M470 533 c0 -3 15 -19 33 -34 39 -33 31 -47 -13 -24 -42 22 -50 11
-17 -23 15 -16 27 -31 27 -35 0 -4 -19 -4 -41 -1 -54 9 -50 -13 9 -41 23 -11
44 -26 47 -34 3 -8 9 -79 12 -158 5 -124 8 -143 22 -141 14 3 16 27 16 183 0
128 4 187 13 203 11 20 11 27 -4 50 -23 38 -55 62 -81 62 -13 0 -23 -3 -23 -7z"/>
<path d="M304 515 c-44 -19 -57 -40 -51 -77 3 -18 1 -100 -4 -183 -10 -158 -7
-195 15 -195 15 0 26 88 26 218 0 76 1 82 20 82 31 0 80 28 80 46 0 11 -5 14
-17 9 -10 -4 -24 -9 -30 -12 -27 -11 -12 17 17 32 17 9 30 20 30 25 0 19 -20
20 -52 0 -39 -24 -48 -25 -48 -5 0 8 20 23 45 34 25 11 45 25 45 30 0 15 -38
12 -76 -4z"/>
<path d="M397 259 c-10 -133 -9 -209 3 -209 21 0 31 57 28 173 -4 150 -22 171
-31 36z"/>
<path d="M324 303 c-7 -36 3 -65 21 -67 6 0 11 20 13 45 2 34 -1 48 -12 52
-11 5 -17 -3 -22 -30z"/>
<path d="M466 314 c-9 -23 -7 -62 3 -68 17 -11 33 22 26 54 -7 33 -19 39 -29
14z"/>
<path d="M327 184 c-11 -12 -8 -82 4 -90 14 -8 29 14 29 42 0 24 -23 58 -33
48z"/>
<path d="M466 168 c-11 -41 -7 -100 6 -96 26 9 35 118 9 118 -5 0 -11 -10 -15
-22z"/>
</g>
</svg>
