<svg version="1.0" xmlns="http://www.w3.org/2000/svg"
 width="75.000000pt" height="120.000000pt" viewBox="0 0 75.000000 120.000000"
 preserveAspectRatio="xMidYMid meet">
<metadata>
Created by potrace 1.15, written by Peter Selinger 2001-2017
</metadata>
<g transform="translate(0.000000,120.000000) scale(0.100000,-0.100000)"
fill="#000000" stroke="none">
<path d="M96 1038 c-27 -15 -18 -28 19 -28 28 0 35 -4 35 -20 0 -11 -4 -20
-10 -20 -5 0 -10 -9 -10 -20 0 -11 -5 -20 -12 -20 -17 0 -68 -61 -68 -82 0 -9
-4 -18 -9 -20 -5 -1 -11 -16 -13 -33 -2 -24 1 -31 18 -33 19 -3 20 -9 21 -142
0 -178 16 -219 91 -235 32 -7 32 -7 32 -97 0 -91 0 -91 -70 -160 -39 -38 -68
-74 -65 -79 13 -20 38 -7 92 46 31 30 59 55 62 55 3 0 30 -23 59 -50 60 -57
97 -69 97 -31 0 17 -10 30 -35 44 -19 10 -50 35 -67 54 -32 35 -33 37 -33 129
0 84 2 94 18 94 50 0 84 96 76 217 -4 61 -3 63 20 63 13 0 26 3 28 8 2 4 23
18 48 31 25 13 55 33 68 44 12 11 22 16 22 11 0 -5 10 -14 23 -20 70 -36 93
-49 103 -62 6 -8 19 -13 30 -10 15 2 20 13 22 53 3 48 -13 150 -27 174 -4 6
-35 14 -69 17 -56 6 -62 9 -62 30 0 31 27 44 89 44 44 0 51 3 51 20 0 19 -5
20 -102 16 -160 -6 -219 -16 -216 -35 2 -12 18 -17 66 -19 52 -2 63 -6 58 -18
-3 -9 -6 -20 -6 -25 0 -5 -11 -9 -25 -9 -54 0 -95 -41 -95 -96 0 -12 -6 -36
-14 -54 -13 -33 -13 -33 -27 -4 -10 21 -25 32 -52 38 -20 5 -37 13 -37 18 0
20 31 67 59 91 47 39 54 105 13 123 -25 11 -177 13 -196 2z m178 -44 c10 -25
8 -29 -34 -75 -22 -24 -44 -57 -48 -73 -7 -25 -16 -32 -57 -43 -28 -7 -53 -13
-57 -13 -17 0 37 102 69 130 19 18 39 45 45 61 8 24 16 29 43 29 21 0 35 -6
39 -16z m340 -120 c23 -9 23 -124 0 -124 -18 0 -53 18 -71 36 -14 13 -18 76
-6 87 8 9 56 9 77 1z m-136 -39 c2 -23 -5 -38 -32 -64 -50 -48 -71 -38 -62 31
9 67 11 70 54 66 33 -3 37 -6 40 -33z m-308 -91 c0 -27 -24 -53 -47 -54 -8 0
-13 13 -13 34 0 34 9 44 43 45 12 1 17 -7 17 -25z m110 9 c0 -10 3 -28 6 -40
5 -20 2 -23 -19 -23 -28 0 -57 32 -57 62 0 14 8 18 35 18 27 0 35 -4 35 -17z
m-47 -85 c51 -36 57 -45 57 -81 0 -20 -6 -37 -12 -40 -24 -8 -48 6 -53 29 -3
13 -7 35 -10 49 -7 33 -25 32 -25 -1 0 -40 -44 -104 -71 -104 -14 0 -29 37
-29 72 0 33 16 49 85 86 26 15 22 15 58 -10z m15 -157 c25 -22 29 -66 6 -75
-9 -3 -40 -6 -69 -6 -72 0 -81 22 -28 67 44 37 59 40 91 14z"/>
<path d="M468 603 c-3 -88 -3 -88 -38 -91 -37 -4 -87 -42 -54 -42 9 0 55 5
103 11 62 8 94 8 114 0 24 -9 27 -15 27 -61 0 -54 -8 -62 -28 -30 -10 16 -23
20 -69 20 -31 0 -70 -4 -87 -10 -17 -5 -43 -12 -58 -15 -20 -4 -26 -10 -21
-21 4 -12 14 -14 42 -9 81 15 152 17 166 5 23 -19 18 -37 -12 -52 -16 -8 -37
-19 -48 -25 -11 -6 -45 -18 -77 -27 -31 -9 -59 -24 -62 -33 -6 -14 1 -15 51
-9 32 4 82 18 112 31 29 14 59 25 66 25 14 0 35 -42 35 -70 0 -10 5 -22 10
-25 6 -3 10 -21 10 -38 0 -31 17 -89 33 -114 11 -18 34 -16 41 3 7 17 -30 151
-46 168 -4 6 -8 18 -8 28 0 11 -7 32 -15 49 -14 27 -14 33 0 61 19 40 20 146
0 172 -11 14 -26 18 -67 18 -66 -2 -83 8 -74 41 5 23 12 26 81 32 54 5 75 11
75 21 0 11 -19 14 -80 14 -80 0 -80 0 -80 30 0 23 -4 30 -20 30 -17 0 -19 -8
-22 -87z"/>
<path d="M80 351 c-5 -11 -10 -56 -10 -100 0 -79 1 -81 25 -81 24 0 24 1 23
83 0 90 -5 117 -18 117 -5 0 -14 -9 -20 -19z"/>
<path d="M284 348 c-8 -27 -8 -154 1 -168 4 -6 13 -5 25 2 16 11 18 22 15 83
-3 73 -11 105 -25 105 -5 0 -12 -10 -16 -22z"/>
</g>
</svg>
