<svg version="1.0" xmlns="http://www.w3.org/2000/svg"
 width="37.000000pt" height="87.000000pt" viewBox="0 0 37.000000 87.000000"
 preserveAspectRatio="xMidYMid meet">
<metadata>
Created by potrace 1.15, written by Peter Selinger 2001-2017
</metadata>
<g transform="translate(0.000000,87.000000) scale(0.100000,-0.100000)"
fill="#000000" stroke="none">
<path d="M176 675 c-3 -9 -6 -28 -6 -41 0 -31 -21 -31 -51 1 -13 13 -27 25
-30 25 -3 0 -4 -89 -3 -197 3 -186 12 -270 36 -336 15 -39 37 -31 115 40 9 8
13 33 12 70 -2 68 28 145 42 108 4 -11 8 -32 8 -47 1 -17 7 -28 15 -28 22 0
28 33 15 81 -11 39 -16 90 -18 157 -1 30 -30 41 -47 18 -21 -30 -32 -9 -28 52
5 61 -10 105 -37 110 -9 2 -19 -4 -23 -13z m-28 -133 c-4 -37 -25 -38 -30 -2
-5 35 -2 41 19 33 8 -3 13 -16 11 -31z m63 -89 c0 -10 1 -34 2 -54 1 -26 -2
-35 -10 -32 -7 3 -13 9 -13 14 0 5 -7 9 -15 9 -8 0 -15 -4 -15 -9 0 -5 7 -14
15 -21 17 -14 20 -65 6 -75 -31 -19 -52 127 -24 163 22 26 53 29 54 5z m44
-43 c3 -5 2 -10 -4 -10 -5 0 -13 5 -16 10 -3 6 -2 10 4 10 5 0 13 -4 16 -10z
m-72 -226 c7 -8 -13 -54 -25 -54 -9 0 -10 7 -2 38 6 22 15 27 27 16z"/>
</g>
</svg>
