<svg version="1.0" xmlns="http://www.w3.org/2000/svg"
 width="66.000000pt" height="81.000000pt" viewBox="0 0 66.000000 81.000000"
 preserveAspectRatio="xMidYMid meet">
<metadata>
Created by potrace 1.15, written by Peter Selinger 2001-2017
</metadata>
<g transform="translate(0.000000,81.000000) scale(0.100000,-0.100000)"
fill="#000000" stroke="none">
<path d="M80 671 c-32 -22 12 -29 210 -33 222 -5 250 -11 250 -54 0 -25 -1
-25 -42 -17 -46 9 -403 7 -427 -2 -42 -16 27 -24 232 -26 227 -3 227 -3 207
-24 -19 -19 -33 -20 -229 -20 -115 0 -212 -3 -216 -7 -18 -17 49 -29 202 -34
136 -5 177 -3 217 10 27 8 53 13 58 10 4 -3 8 -64 8 -136 0 -115 -2 -129 -16
-124 -9 3 -37 6 -63 6 -40 0 -50 4 -61 25 -13 25 -46 42 -58 30 -3 -3 -1 -15
6 -26 19 -29 4 -31 -159 -20 -79 5 -148 6 -152 1 -5 -4 -2 -14 7 -22 11 -12
51 -16 176 -20 100 -3 165 -9 172 -16 6 -6 15 -37 19 -69 7 -53 26 -83 51 -83
13 0 9 35 -8 86 -21 62 -15 74 42 74 47 0 47 0 40 -69 -8 -76 2 -95 35 -65 17
16 19 31 18 193 0 97 -5 199 -10 226 -13 63 -13 73 -4 110 9 41 -17 73 -70 86
-58 14 -417 23 -435 10z"/>
<path d="M153 402 c-18 -11 -35 -63 -29 -88 7 -25 32 -34 97 -34 53 0 79 21
79 63 0 43 -32 67 -87 67 -27 0 -53 -4 -60 -8z m100 -39 c13 -7 8 -31 -9 -37
-27 -10 -72 -7 -77 7 -8 22 23 47 52 40 14 -3 29 -8 34 -10z"/>
<path d="M335 399 c-8 -12 11 -29 33 -29 6 0 12 -9 12 -19 0 -13 -9 -21 -31
-26 -57 -13 -26 -30 59 -33 69 -2 82 0 82 13 0 9 -12 18 -30 22 -41 8 -36 34
8 47 18 5 31 14 29 20 -5 15 -153 20 -162 5z"/>
<path d="M83 133 c-10 -26 12 -31 141 -32 108 0 136 2 146 14 7 9 11 17 9 19
-2 3 -69 6 -148 8 -105 2 -145 0 -148 -9z"/>
</g>
</svg>
