<svg version="1.0" xmlns="http://www.w3.org/2000/svg"
 width="68.000000pt" height="73.000000pt" viewBox="0 0 68.000000 73.000000"
 preserveAspectRatio="xMidYMid meet">
<metadata>
Created by potrace 1.15, written by Peter Selinger 2001-2017
</metadata>
<g transform="translate(0.000000,73.000000) scale(0.100000,-0.100000)"
fill="#000000" stroke="none">
<path d="M167 549 c6 -59 5 -61 -17 -57 -16 2 -27 14 -35 38 -16 48 -45 53
-45 8 0 -44 22 -74 65 -88 19 -6 35 -17 35 -24 0 -23 -37 -120 -74 -191 -48
-95 -53 -123 -26 -157 11 -15 39 -33 61 -39 34 -11 41 -10 60 7 12 10 28 34
36 53 13 31 13 35 -7 56 -12 13 -35 29 -51 35 -33 14 -32 11 -19 45 8 22 13
24 30 15 33 -18 79 -2 101 33 26 44 25 52 -21 94 -22 21 -40 44 -40 51 0 7 13
20 29 30 30 17 41 45 41 108 0 58 -36 36 -42 -25 -3 -38 -28 -56 -28 -22 0 34
-28 91 -44 91 -11 0 -13 -12 -9 -61z m71 -191 c21 -21 14 -57 -13 -70 -36 -16
-47 -1 -34 45 10 38 26 46 47 25z m-68 -218 c11 -11 20 -24 20 -30 0 -5 -9
-14 -20 -20 -27 -15 -60 4 -60 34 0 41 27 49 60 16z"/>
<path d="M370 580 c0 -18 7 -20 89 -20 62 0 92 4 100 13 18 23 2 27 -96 27
-86 0 -93 -1 -93 -20z"/>
<path d="M425 501 c-60 -4 -109 -9 -107 -13 1 -5 2 -12 2 -18 0 -5 19 -10 43
-11 23 -1 53 -4 66 -8 33 -9 39 -31 9 -31 -14 0 -38 -14 -56 -31 -28 -28 -32
-38 -32 -85 0 -30 5 -54 10 -54 6 0 12 6 14 13 30 107 39 117 101 117 37 0 73
-27 101 -75 19 -32 36 -7 24 35 -12 43 -45 77 -82 85 -42 10 -29 29 25 37 25
3 51 9 57 13 18 11 -9 35 -39 33 -14 -1 -75 -4 -136 -7z"/>
<path d="M435 350 c-4 -6 3 -26 15 -45 12 -19 20 -45 18 -57 -3 -21 -9 -23
-68 -26 -73 -3 -95 -16 -67 -37 13 -9 35 -12 71 -8 53 5 53 5 60 -46 5 -36 15
-61 36 -84 35 -39 49 -30 26 18 -10 20 -16 52 -14 73 3 37 4 37 53 42 70 7 69
32 -2 44 -51 9 -53 10 -53 42 0 20 -10 44 -26 63 -27 33 -39 38 -49 21z"/>
</g>
</svg>
