<svg version="1.0" xmlns="http://www.w3.org/2000/svg"
 width="51.000000pt" height="75.000000pt" viewBox="0 0 51.000000 75.000000"
 preserveAspectRatio="xMidYMid meet">
<metadata>
Created by potrace 1.15, written by Peter Selinger 2001-2017
</metadata>
<g transform="translate(0.000000,75.000000) scale(0.100000,-0.100000)"
fill="#000000" stroke="none">
<path d="M213 643 c-15 -36 -52 -97 -104 -173 -35 -51 -39 -63 -28 -76 12 -14
25 -100 45 -291 4 -35 10 -63 14 -63 16 0 17 90 3 243 -13 154 -13 158 7 179
11 12 20 26 20 31 0 10 29 41 34 36 15 -19 13 -59 -4 -79 -27 -31 -25 -49 9
-101 34 -50 31 -68 -4 -26 -13 15 -31 27 -40 27 -8 0 -15 -1 -15 -2 0 -16 56
-108 75 -123 17 -14 25 -35 30 -72 7 -51 7 -51 -27 -58 -45 -10 -51 -15 -37
-31 18 -22 112 -18 170 7 27 12 49 25 49 30 0 5 -26 9 -58 9 -58 0 -58 0 -57
43 1 39 26 101 68 168 22 35 -3 31 -36 -6 -38 -43 -57 -34 -32 14 20 39 20
117 0 125 -21 7 -19 43 3 71 19 23 19 23 45 2 21 -18 29 -38 41 -107 38 -215
51 -270 65 -270 11 0 13 17 8 88 -3 48 -11 100 -16 116 -6 15 -11 58 -11 96 0
68 0 68 -57 117 -32 26 -60 50 -63 53 -16 18 -64 50 -74 50 -6 0 -17 -12 -23
-27z m57 -68 c0 -22 -22 -40 -34 -28 -10 10 -7 38 6 51 15 15 28 6 28 -23z
m-5 -166 c4 -11 4 -23 1 -26 -8 -9 -36 17 -36 33 0 22 28 16 35 -7z"/>
</g>
</svg>
