<svg version="1.0" xmlns="http://www.w3.org/2000/svg"
 width="107.000000pt" height="133.000000pt" viewBox="0 0 107.000000 133.000000"
 preserveAspectRatio="xMidYMid meet">
<metadata>
Created by potrace 1.15, written by Peter Selinger 2001-2017
</metadata>
<g transform="translate(0.000000,133.000000) scale(0.100000,-0.100000)"
fill="#000000" stroke="none">
<path d="M488 1203 c-1 -10 -2 -25 -3 -33 -6 -58 -23 -69 -140 -94 -150 -31
-208 -53 -242 -92 -40 -45 -47 -90 -39 -227 3 -56 7 -169 8 -252 2 -150 9
-185 38 -185 34 0 37 31 34 284 -3 207 -2 254 11 279 8 17 15 35 15 42 0 25
38 43 125 60 100 19 230 51 245 60 10 6 81 -14 90 -26 3 -3 19 -9 35 -12 121
-23 214 -53 239 -76 29 -28 43 -95 51 -241 3 -63 7 -164 10 -225 5 -89 9 -113
24 -129 11 -10 23 -16 29 -12 16 10 35 94 28 128 -3 18 -10 132 -15 253 -5
121 -12 228 -16 238 -4 10 -31 32 -59 50 -84 53 -135 73 -211 83 -71 9 -130
38 -175 87 -22 23 -40 45 -40 49 0 17 -40 7 -42 -9z"/>
<path d="M630 878 c-30 -16 -65 -36 -78 -44 -20 -13 -27 -12 -66 5 -68 32
-135 53 -146 46 -6 -3 -10 -12 -10 -19 0 -18 59 -65 90 -73 40 -10 53 -28 39
-55 -7 -13 -15 -25 -18 -28 -28 -24 -55 -138 -46 -202 10 -70 16 -81 69 -114
33 -21 45 -36 49 -59 2 -16 7 -38 12 -47 5 -13 3 -18 -10 -18 -30 0 -85 45
-152 124 -23 26 -53 26 -53 0 0 -24 68 -122 102 -145 18 -13 34 -27 36 -31 2
-4 19 -12 38 -18 26 -9 34 -17 34 -35 0 -32 -17 -42 -90 -54 -107 -17 -107
-37 1 -66 49 -13 87 -16 140 -12 151 12 179 22 179 62 0 28 -17 35 -85 35 -73
0 -86 33 -27 75 101 73 172 166 141 186 -21 13 -26 12 -66 -24 -21 -18 -55
-45 -75 -60 -38 -28 -38 -28 -38 8 0 30 8 45 43 78 60 59 96 175 74 240 -20
61 -32 87 -39 87 -9 0 -48 41 -48 51 0 4 16 17 35 29 43 27 71 73 52 87 -26
21 -34 20 -87 -9z m-59 -198 c16 -16 29 -38 30 -47 0 -10 2 -37 4 -60 2 -24
-1 -43 -6 -43 -5 0 -9 -15 -9 -34 0 -41 -10 -50 -49 -41 -65 14 -82 138 -30
217 13 21 26 38 28 38 2 0 17 -13 32 -30z"/>
</g>
</svg>
