<svg version="1.0" xmlns="http://www.w3.org/2000/svg"
 width="62.000000pt" height="89.000000pt" viewBox="0 0 62.000000 89.000000"
 preserveAspectRatio="xMidYMid meet">
<metadata>
Created by potrace 1.15, written by Peter Selinger 2001-2017
</metadata>
<g transform="translate(0.000000,89.000000) scale(0.100000,-0.100000)"
fill="#000000" stroke="none">
<path d="M180 666 c0 -22 24 -26 148 -26 116 0 151 8 138 29 -5 7 -55 11 -147
11 -112 0 -139 -3 -139 -14z"/>
<path d="M91 567 c-17 -21 -2 -28 75 -35 64 -5 64 -5 64 -43 0 -39 0 -39 -70
-39 -56 0 -70 -3 -70 -15 0 -8 1 -15 3 -16 1 0 98 -3 215 -6 204 -5 214 -4
210 13 -3 14 -12 19 -38 19 -19 -1 -45 -4 -57 -9 -22 -7 -23 -5 -23 43 0 51 0
51 49 51 44 0 61 10 61 35 0 2 -78 4 -173 4 -94 1 -186 4 -203 7 -20 4 -34 1
-43 -9z m267 -84 c3 -43 3 -43 -42 -43 -46 0 -46 0 -46 46 0 45 0 45 43 42 42
-3 42 -3 45 -45z"/>
<path d="M208 378 c-2 -15 -16 -29 -38 -39 -28 -14 -37 -25 -47 -65 -7 -27
-13 -91 -13 -142 0 -74 3 -94 15 -99 25 -9 30 4 30 70 1 176 3 187 32 198 34
13 52 37 53 72 0 33 -27 37 -32 5z"/>
<path d="M324 305 c3 -9 6 -19 6 -21 0 -2 36 -4 81 -4 71 0 80 2 77 18 -3 14
-17 17 -87 20 -74 3 -83 1 -77 -13z"/>
<path d="M282 209 c11 -17 20 -19 48 -15 19 3 63 6 98 6 48 0 62 3 62 15 0 12
-19 15 -110 15 -109 0 -110 0 -98 -21z"/>
<path d="M251 131 c-34 -22 4 -31 130 -31 119 0 130 2 127 18 -3 15 -18 17
-123 20 -66 1 -126 -2 -134 -7z"/>
</g>
</svg>
