<svg version="1.0" xmlns="http://www.w3.org/2000/svg"
 width="69.000000pt" height="86.000000pt" viewBox="0 0 69.000000 86.000000"
 preserveAspectRatio="xMidYMid meet">
<metadata>
Created by potrace 1.15, written by Peter Selinger 2001-2017
</metadata>
<g transform="translate(0.000000,86.000000) scale(0.100000,-0.100000)"
fill="#000000" stroke="none">
<path d="M154 596 c-31 -14 -31 -14 -43 -157 -7 -79 -11 -200 -9 -269 2 -105
6 -125 19 -128 25 -5 29 26 29 250 0 282 -19 262 254 266 163 3 206 6 206 16
0 22 -34 26 -235 31 -149 4 -197 2 -221 -9z"/>
<path d="M260 460 c-35 -35 -25 -186 14 -212 6 -4 37 -8 69 -8 51 0 58 -3 66
-23 5 -13 7 -60 4 -104 -6 -83 3 -107 28 -76 8 9 16 51 19 102 5 85 5 85 50
98 67 20 73 29 74 128 1 115 2 115 -171 115 -120 0 -135 -2 -153 -20z m278
-47 c3 -23 2 -23 -122 -23 -118 0 -126 1 -126 19 0 27 12 30 135 28 106 -2
110 -3 113 -24z m-8 -67 c0 -2 3 -11 6 -19 10 -28 -24 -47 -85 -47 -102 0
-152 11 -161 34 -4 12 -6 24 -3 29 4 7 243 10 243 3z"/>
<path d="M237 173 c-20 -3 -27 -9 -25 -21 2 -12 16 -18 47 -20 62 -5 91 4 91
28 0 17 -6 20 -42 19 -24 -1 -56 -4 -71 -6z"/>
<path d="M562 163 c-53 -3 -63 -7 -60 -21 2 -13 16 -18 55 -20 59 -3 95 11 87
33 -4 8 -9 14 -13 13 -3 -1 -34 -3 -69 -5z"/>
</g>
</svg>
