<svg version="1.0" xmlns="http://www.w3.org/2000/svg"
 width="73.000000pt" height="91.000000pt" viewBox="0 0 73.000000 91.000000"
 preserveAspectRatio="xMidYMid meet">
<metadata>
Created by potrace 1.15, written by Peter Selinger 2001-2017
</metadata>
<g transform="translate(0.000000,91.000000) scale(0.100000,-0.100000)"
fill="#000000" stroke="none">
<path d="M199 718 c-5 -13 -16 -34 -25 -48 -8 -14 -13 -41 -12 -60 3 -29 11
-40 58 -73 43 -30 57 -47 68 -80 20 -66 10 -110 -38 -164 -73 -82 -86 -137
-49 -203 21 -37 63 -69 75 -57 3 3 -7 25 -23 49 -16 24 -32 50 -35 59 -8 22
24 89 57 119 47 44 68 96 60 154 -10 80 -37 130 -76 146 -74 29 -82 60 -33
127 13 17 24 36 24 42 0 21 -40 11 -51 -11z"/>
<path d="M441 727 c-25 -7 -46 -18 -49 -25 -3 -10 9 -12 57 -6 101 11 122 -31
49 -96 -53 -48 -46 -67 31 -87 62 -15 99 -10 80 13 -6 8 -20 14 -30 14 -10 0
-30 5 -45 10 -27 11 -27 11 16 50 38 35 42 43 36 72 -12 63 -54 79 -145 55z"/>
<path d="M307 723 c-7 -12 9 -46 35 -73 12 -13 30 -41 40 -61 30 -67 25 -211
-10 -270 -20 -35 -11 -55 28 -64 31 -7 31 -7 -5 -46 -38 -43 -43 -65 -21 -108
15 -29 92 -88 102 -78 3 3 -10 27 -30 53 -37 48 -47 94 -22 94 8 0 27 -16 42
-35 14 -19 35 -35 45 -35 12 0 19 -7 19 -20 0 -11 4 -20 8 -20 14 0 32 48 32
84 0 74 -46 130 -123 150 -20 5 -27 13 -27 32 0 54 61 43 124 -23 49 -51 66
-52 46 -3 -19 45 -84 100 -120 100 -33 0 -40 19 -14 41 24 20 95 -21 123 -72
25 -43 57 -55 45 -16 -24 79 -54 111 -119 130 -45 13 -51 17 -56 48 -3 19 -9
44 -13 55 -5 18 0 26 29 44 43 27 38 40 -14 33 -35 -5 -43 -2 -75 31 -35 34
-60 45 -69 29z m203 -513 c24 -34 29 -110 5 -90 -20 16 -65 95 -65 113 0 23
37 9 60 -23z"/>
<path d="M122 544 c3 -11 13 -36 22 -56 16 -38 16 -38 -9 -38 -33 0 -32 -10 7
-41 40 -33 34 -62 -12 -53 -39 8 -39 -9 0 -33 36 -21 37 -33 5 -101 -27 -58
-30 -72 -16 -72 10 0 81 124 81 142 0 6 16 26 35 44 19 17 35 39 35 49 0 16
-2 16 -25 1 -13 -9 -29 -16 -34 -16 -13 0 -1 40 22 72 24 33 18 44 -14 27 -13
-6 -24 -8 -26 -3 -19 55 -85 127 -71 78z"/>
</g>
</svg>
