<svg version="1.0" xmlns="http://www.w3.org/2000/svg"
 width="65.000000pt" height="108.000000pt" viewBox="0 0 65.000000 108.000000"
 preserveAspectRatio="xMidYMid meet">
<metadata>
Created by potrace 1.15, written by Peter Selinger 2001-2017
</metadata>
<g transform="translate(0.000000,108.000000) scale(0.100000,-0.100000)"
fill="#000000" stroke="none">
<path d="M119 988 c0 -7 -1 -51 -2 -98 -2 -83 -2 -85 -27 -85 -23 0 -25 4 -28
57 -3 59 -25 95 -41 69 -8 -12 -2 -342 5 -350 3 -3 11 2 20 11 11 10 16 38 18
89 2 70 4 74 26 74 32 0 39 -30 41 -179 2 -175 2 -175 -23 -185 -36 -13 -45
-4 -46 49 -1 56 -7 70 -27 70 -11 0 -13 -37 -13 -205 1 -191 3 -205 20 -205
20 0 19 -3 22 125 2 101 7 115 40 115 30 0 34 -23 36 -184 1 -135 7 -157 35
-130 16 16 17 32 10 183 -4 91 -8 297 -10 458 -2 160 -6 301 -10 312 -7 23
-45 29 -46 9z"/>
<path d="M525 969 c-16 -4 -91 -7 -166 -8 -110 -1 -138 -4 -142 -16 -4 -8 -2
-17 3 -20 11 -6 356 -5 388 2 12 3 22 11 22 17 0 17 -69 33 -105 25z"/>
<path d="M373 862 c-82 -2 -114 -6 -123 -17 -10 -12 -8 -16 11 -23 26 -9 295
1 306 12 12 12 -16 30 -49 30 -18 1 -83 0 -145 -2z"/>
<path d="M230 761 c-26 -3 -42 -19 -34 -33 3 -4 29 -8 59 -8 56 0 65 -8 65
-54 0 -22 52 -76 73 -76 4 0 7 -17 5 -37 -3 -35 -6 -38 -36 -41 -51 -5 -82 20
-82 67 0 42 -25 75 -39 52 -10 -16 -3 -99 10 -126 11 -22 71 -45 119 -45 29 0
30 -1 30 -49 0 -31 -5 -51 -13 -54 -21 -8 -67 4 -67 18 0 11 -20 25 -36 25 -2
0 -4 -55 -3 -122 2 -196 26 -228 175 -228 71 0 120 15 134 40 6 10 10 84 10
163 0 116 -3 147 -15 157 -21 18 -45 5 -45 -25 0 -25 -3 -26 -42 -23 -43 3
-43 3 -46 49 -3 52 6 59 79 59 51 0 68 23 71 100 3 54 0 65 -14 68 -13 2 -18
-7 -23 -42 -9 -61 -23 -76 -70 -79 -39 -2 -40 -2 -40 33 0 28 5 37 26 47 38
18 52 39 58 86 6 39 8 42 41 45 57 5 67 11 44 27 -16 11 -59 13 -195 12 -96
-1 -185 -4 -199 -6z m255 -41 c3 -5 3 -25 -1 -45 -6 -34 -8 -35 -52 -35 -31 0
-49 5 -58 18 -14 17 -18 54 -9 64 10 10 114 8 120 -2z m59 -416 c7 -19 8 -132
0 -159 -8 -32 -40 -46 -104 -46 -95 -1 -111 18 -115 134 -2 83 1 85 126 86 70
1 88 -2 93 -15z"/>
<path d="M351 236 c-17 -21 14 -28 104 -24 54 2 70 6 70 18 0 22 -157 27 -174
6z"/>
</g>
</svg>
