<svg version="1.0" xmlns="http://www.w3.org/2000/svg"
 width="66.000000pt" height="91.000000pt" viewBox="0 0 66.000000 91.000000"
 preserveAspectRatio="xMidYMid meet">
<metadata>
Created by potrace 1.15, written by Peter Selinger 2001-2017
</metadata>
<g transform="translate(0.000000,91.000000) scale(0.100000,-0.100000)"
fill="#000000" stroke="none">
<path d="M245 688 c-8 -19 -17 -22 -47 -20 -21 2 -38 0 -38 -5 0 -33 79 -45
118 -17 26 18 29 49 6 58 -24 9 -29 8 -39 -16z"/>
<path d="M70 671 c0 -10 16 -33 35 -50 25 -21 35 -39 35 -59 0 -32 16 -52 42
-52 10 0 18 -7 18 -15 0 -29 -62 -10 -88 27 -19 26 -44 23 -40 -4 2 -17 20
-31 65 -53 34 -16 62 -33 62 -37 2 -17 -48 -7 -83 17 -37 25 -66 32 -66 17 0
-11 50 -57 78 -71 32 -17 30 -64 -3 -79 -14 -7 -35 -12 -45 -12 -27 0 -25 -23
3 -56 26 -30 65 -28 53 2 -9 25 26 49 91 63 85 19 102 27 109 57 10 39 -7 59
-55 62 -52 4 -52 15 -2 30 44 14 80 57 62 75 -9 9 -17 5 -34 -15 -26 -30 -67
-44 -67 -22 0 8 10 14 23 14 30 0 47 18 47 50 0 18 9 31 31 44 23 14 29 24 27
44 -4 35 -38 36 -54 3 -17 -34 -32 -41 -91 -41 -47 0 -54 3 -74 33 -27 38 -38
47 -61 47 -11 0 -18 -8 -18 -19z m200 -111 c0 -28 -43 -37 -75 -16 -38 25 -30
36 25 36 43 0 50 -3 50 -20z m-45 -180 c10 -16 -16 -43 -28 -31 -11 11 -2 41
12 41 5 0 13 -5 16 -10z m65 -4 c0 -16 -18 -31 -27 -22 -8 8 5 36 17 36 5 0
10 -6 10 -14z"/>
<path d="M395 679 c-5 -7 0 -19 13 -30 30 -24 27 -35 -9 -43 -44 -8 -31 -31
17 -30 28 1 43 8 59 28 11 14 26 26 33 26 22 0 13 -19 -17 -34 -42 -22 -109
-103 -121 -145 -26 -94 1 -131 94 -131 39 0 47 -4 58 -27 7 -14 18 -28 25 -30
16 -6 26 49 14 80 -10 27 -11 27 -81 21 -50 -5 -70 -4 -70 5 0 7 21 11 59 11
68 0 91 6 91 26 0 14 -11 13 -127 -1 -18 -2 -33 0 -33 5 0 40 70 130 102 130
27 0 12 -19 -28 -36 -62 -26 -36 -74 40 -74 45 0 66 9 66 27 0 11 -10 14 -42
11 -55 -4 -59 14 -6 32 36 12 44 20 46 44 4 29 3 29 -40 23 -43 -5 -38 0 25
23 32 11 35 38 8 71 -16 20 -30 24 -94 27 -53 3 -77 0 -82 -9z"/>
<path d="M225 268 c-55 -14 -68 -21 -80 -45 -5 -12 -21 -24 -35 -26 -17 -4
-31 -18 -43 -42 -23 -49 -21 -82 8 -110 21 -22 33 -25 92 -25 90 0 143 10 143
26 0 20 -36 26 -109 19 -76 -8 -95 3 -89 51 4 34 25 43 30 13 4 -30 49 -42
120 -31 37 5 53 12 53 22 0 12 -14 15 -60 15 -49 0 -60 3 -63 18 -3 14 5 17
51 17 66 0 87 7 87 28 0 12 -11 14 -70 8 -56 -5 -70 -3 -70 8 0 14 42 26 92
26 23 0 29 4 26 18 -4 20 -29 23 -83 10z"/>
<path d="M365 269 c-11 -17 2 -23 58 -29 37 -4 52 -9 52 -20 0 -11 -14 -16
-52 -18 -38 -2 -53 -7 -53 -18 0 -10 14 -14 56 -14 40 0 55 -4 52 -12 -3 -7
-15 -14 -29 -16 -94 -10 -117 -26 -55 -38 51 -9 97 5 128 38 28 30 28 30 29 2
1 -32 -1 -57 -6 -62 -2 -2 -41 -5 -87 -7 -46 -2 -86 -4 -90 -4 -5 -1 -8 -8 -8
-16 0 -21 38 -28 126 -23 65 3 79 7 95 27 10 13 19 38 19 57 0 36 -18 84 -32
84 -5 0 -22 14 -37 31 -37 40 -149 66 -166 38z"/>
</g>
</svg>
