<svg version="1.0" xmlns="http://www.w3.org/2000/svg"
 width="57.000000pt" height="103.000000pt" viewBox="0 0 57.000000 103.000000"
 preserveAspectRatio="xMidYMid meet">
<metadata>
Created by potrace 1.15, written by Peter Selinger 2001-2017
</metadata>
<g transform="translate(0.000000,103.000000) scale(0.100000,-0.100000)"
fill="#000000" stroke="none">
<path d="M336 792 c-13 -21 -26 -52 -28 -68 -3 -27 -8 -30 -63 -42 -82 -18
-105 -29 -105 -48 0 -14 11 -15 90 -9 90 7 90 7 90 -16 1 -94 14 -365 20 -414
8 -66 1 -85 -34 -85 -11 0 -28 -4 -35 -9 -12 -8 -9 -12 13 -22 22 -10 39 -10
89 0 34 7 65 15 70 18 13 8 -13 33 -34 33 -17 0 -19 10 -20 120 -1 66 -2 123
-3 128 -1 4 -6 60 -10 125 -9 129 -4 147 43 147 14 0 32 4 39 8 17 11 -28 32
-69 32 -39 0 -46 22 -20 59 25 34 26 54 7 71 -12 9 -19 4 -40 -28z"/>
<path d="M176 562 c-3 -5 -28 -12 -55 -16 -73 -10 -82 -32 -19 -45 27 -6 38
-16 60 -61 26 -52 27 -60 21 -152 -5 -95 0 -148 15 -148 15 0 32 66 33 130 0
36 5 83 10 105 14 62 32 119 40 130 4 6 9 21 11 35 3 24 0 25 -54 28 -31 2
-59 -1 -62 -6z m36 -67 c-7 -36 -15 -35 -27 3 -6 20 -4 23 12 20 12 -2 17 -11
15 -23z"/>
</g>
</svg>
