<svg version="1.0" xmlns="http://www.w3.org/2000/svg"
 width="123.000000pt" height="115.000000pt" viewBox="0 0 123.000000 115.000000"
 preserveAspectRatio="xMidYMid meet">
<metadata>
Created by potrace 1.15, written by Peter Selinger 2001-2017
</metadata>
<g transform="translate(0.000000,115.000000) scale(0.100000,-0.100000)"
fill="#000000" stroke="none">
<path d="M824 1032 c-18 -13 -43 -76 -60 -155 -17 -76 -17 -76 -110 -70 -92 6
-112 0 -81 -25 16 -13 129 -52 150 -52 13 0 17 -9 17 -42 0 -24 8 -76 17 -117
14 -60 25 -82 60 -121 48 -53 49 -58 29 -103 -8 -18 -16 -42 -19 -54 -4 -19
-2 -21 19 -11 13 6 26 19 29 28 10 30 43 62 56 54 7 -4 29 -11 48 -15 20 -4
60 -14 90 -23 91 -26 119 11 37 49 -17 7 -49 19 -72 25 -22 7 -51 20 -63 30
-24 17 -24 17 -2 76 19 53 19 60 5 82 -21 31 -36 17 -54 -48 -16 -60 -20 -64
-47 -45 -34 24 -63 98 -63 161 0 57 0 57 79 51 43 -2 84 -1 91 3 24 15 2 37
-42 44 -136 23 -123 16 -120 66 3 49 21 70 59 70 66 0 147 88 110 119 -12 9
-20 5 -40 -22 -28 -37 -97 -66 -97 -41 0 8 7 28 15 44 14 27 14 30 -4 40 -23
12 -23 12 -37 2z"/>
<path d="M98 959 c-26 -15 -22 -26 14 -38 40 -14 82 -58 129 -136 47 -77 47
-77 53 -232 7 -142 3 -163 -25 -163 -17 0 -48 -15 -108 -52 -37 -22 -52 -71
-39 -126 15 -66 28 -92 63 -127 55 -55 118 -71 218 -57 52 8 64 14 104 55 42
44 45 50 48 109 4 90 -3 113 -45 157 -32 33 -47 40 -93 46 -55 7 -55 7 -61 74
-3 36 -6 112 -5 168 0 102 0 102 36 138 19 19 37 35 40 35 2 0 16 14 30 30 13
17 29 30 34 30 5 0 25 10 44 23 36 23 47 60 22 70 -27 10 -442 7 -459 -4z
m275 -65 c20 -3 37 -10 37 -15 0 -12 -83 -88 -97 -89 -7 0 -21 20 -31 44 -11
24 -25 47 -31 50 -6 4 -11 12 -11 18 0 10 21 9 133 -8z m60 -560 c61 -31 77
-53 77 -106 0 -27 -7 -62 -15 -77 -17 -34 -79 -73 -109 -69 -20 3 -21 9 -24
136 -3 128 -2 132 18 132 12 0 35 -7 53 -16z m-125 -121 c2 -74 -1 -123 -7
-123 -29 0 -91 46 -106 80 -18 39 -14 120 6 120 5 0 9 7 9 15 0 19 36 35 70
32 25 -2 25 -2 28 -124z"/>
<path d="M90 617 c0 -85 14 -127 42 -127 10 0 18 3 19 8 12 106 13 162 2 173
-5 4 -20 11 -35 14 -28 7 -28 7 -28 -68z"/>
<path d="M503 664 c-7 -20 5 -146 16 -157 5 -5 18 -4 30 2 17 10 21 21 21 62
0 71 -49 139 -67 93z"/>
</g>
</svg>
