<svg version="1.0" xmlns="http://www.w3.org/2000/svg"
 width="53.000000pt" height="109.000000pt" viewBox="0 0 53.000000 109.000000"
 preserveAspectRatio="xMidYMid meet">
<metadata>
Created by potrace 1.15, written by Peter Selinger 2001-2017
</metadata>
<g transform="translate(0.000000,109.000000) scale(0.100000,-0.100000)"
fill="#000000" stroke="none">
<path d="M120 960 c-12 -7 -12 -12 -2 -22 9 -9 40 -12 105 -10 90 2 93 1 124
-28 40 -37 48 -63 33 -101 -12 -29 -12 -29 -131 -29 -71 0 -119 -4 -119 -10 0
-5 10 -12 23 -15 39 -8 131 -26 165 -32 17 -3 32 -9 32 -14 0 -5 7 -9 15 -9
21 0 40 -71 26 -97 -9 -19 -22 -21 -127 -25 -114 -3 -116 -4 -141 -33 -24 -27
-25 -33 -19 -104 9 -100 38 -133 129 -151 120 -23 138 -40 109 -99 -15 -32
-15 -32 -109 -30 -60 2 -98 -2 -105 -9 -9 -9 -6 -12 14 -12 15 0 29 -4 32 -9
3 -4 35 -11 72 -14 57 -4 70 -9 99 -37 34 -33 34 -33 46 -7 7 15 19 27 28 27
23 1 59 31 44 37 -7 2 -24 14 -39 25 -26 21 -26 21 -20 132 3 61 11 131 16
156 20 96 27 166 29 286 2 108 0 129 -15 145 -9 11 -22 29 -28 41 -22 43 -63
56 -171 57 -55 0 -107 -4 -115 -9z m189 -440 c38 -11 60 -35 61 -67 0 -24 -17
-28 -127 -23 -25 1 -43 -3 -43 -9 0 -6 15 -11 33 -11 17 0 43 -9 57 -20 14
-11 33 -20 43 -20 27 0 20 -16 -12 -30 -23 -9 -38 -9 -68 0 -82 26 -92 33 -98
72 -9 50 -1 69 38 95 36 24 66 28 116 13z"/>
</g>
</svg>
