<svg version="1.0" xmlns="http://www.w3.org/2000/svg"
 width="63.000000pt" height="79.000000pt" viewBox="0 0 63.000000 79.000000"
 preserveAspectRatio="xMidYMid meet">
<metadata>
Created by potrace 1.15, written by Peter Selinger 2001-2017
</metadata>
<g transform="translate(0.000000,79.000000) scale(0.100000,-0.100000)"
fill="#000000" stroke="none">
<path d="M312 745 c-8 -16 -32 -34 -69 -51 -91 -40 -119 -73 -134 -158 -7 -39
-16 -79 -21 -89 -14 -27 1 -41 22 -22 11 10 23 43 30 84 6 36 14 71 18 76 20
29 78 65 128 80 55 16 56 16 107 -9 28 -15 59 -26 68 -26 33 0 69 -23 76 -49
3 -13 0 -79 -7 -146 -13 -124 -10 -178 17 -297 13 -62 35 -99 50 -85 3 4 -1
30 -10 58 -20 61 -22 162 -6 349 11 125 10 134 -8 159 -25 33 -70 56 -155 77
-59 15 -67 20 -70 42 -4 34 -22 38 -36 7z"/>
<path d="M262 599 c-38 -15 -15 -29 46 -28 73 2 114 11 120 27 5 15 -129 16
-166 1z"/>
<path d="M260 531 c-49 -6 -61 -24 -20 -29 49 -7 46 -21 -20 -87 -67 -68 -73
-92 -14 -60 34 18 34 18 59 -5 19 -18 25 -34 25 -66 0 -46 -10 -54 -61 -54
-36 0 -72 -17 -64 -31 4 -5 15 -9 26 -9 27 0 24 -19 -5 -30 -52 -19 -41 -57
13 -45 23 5 37 17 52 46 25 50 39 42 39 -21 0 -54 -7 -60 -75 -60 -48 0 -63
-11 -40 -30 17 -14 227 -5 258 11 30 17 9 29 -49 29 -55 0 -55 0 -52 52 3 52
22 76 35 41 11 -33 36 -53 64 -53 36 0 47 18 17 29 -13 5 -30 16 -37 25 -11
13 -10 17 13 26 42 16 30 29 -31 32 -58 3 -58 3 -61 44 -2 32 2 48 21 70 24
28 24 28 71 0 83 -48 80 -25 -6 49 -45 39 -83 76 -86 83 -2 8 8 12 30 12 48 0
78 10 78 26 0 15 -88 17 -180 5z m80 -127 c0 -24 -38 -37 -61 -21 -20 15 -20
15 7 36 20 16 30 18 40 10 8 -6 14 -17 14 -25z"/>
<path d="M218 316 c-33 -41 -34 -46 -10 -46 25 0 66 45 59 64 -9 23 -19 20
-49 -18z"/>
<path d="M350 325 c0 -19 35 -55 54 -55 21 0 46 11 46 20 0 5 -16 14 -35 20
-19 6 -35 16 -35 21 0 5 -7 9 -15 9 -8 0 -15 -7 -15 -15z"/>
</g>
</svg>
