<svg version="1.0" xmlns="http://www.w3.org/2000/svg"
 width="71.000000pt" height="122.000000pt" viewBox="0 0 71.000000 122.000000"
 preserveAspectRatio="xMidYMid meet">
<metadata>
Created by potrace 1.15, written by Peter Selinger 2001-2017
</metadata>
<g transform="translate(0.000000,122.000000) scale(0.100000,-0.100000)"
fill="#000000" stroke="none">
<path d="M177 1094 c-37 -52 -57 -133 -45 -184 10 -47 10 -130 0 -130 -20 0
-32 51 -34 140 -3 81 -6 95 -21 98 -15 3 -17 -7 -17 -101 0 -133 21 -192 73
-210 15 -5 17 -229 2 -233 -29 -10 -40 17 -45 111 -4 67 -10 99 -20 105 -28
17 -33 -2 -26 -99 9 -120 24 -157 71 -176 35 -15 35 -15 37 -168 1 -83 2 -166
2 -184 1 -39 20 -63 38 -45 9 9 12 66 10 207 -1 155 1 195 11 195 8 0 24 11
37 25 20 21 24 37 28 125 4 90 3 102 -14 115 -10 7 -22 11 -26 9 -4 -2 -5 -47
-3 -99 2 -72 0 -97 -11 -106 -8 -7 -17 -10 -19 -7 -3 2 -7 55 -9 117 -5 112
-5 112 30 128 22 11 34 24 34 37 1 12 3 66 5 122 4 105 -2 131 -29 121 -13 -5
-16 -24 -16 -105 0 -91 -8 -122 -31 -122 -3 0 -7 34 -8 76 -1 42 -4 81 -7 86
-3 5 -2 27 1 50 5 30 18 52 47 80 33 32 38 41 28 53 -21 25 -39 17 -73 -31z"/>
<path d="M594 1106 c8 -44 -9 -82 -45 -96 -82 -34 -48 -76 35 -44 23 9 21 -42
-1 -60 -10 -8 -33 -27 -51 -41 -17 -15 -30 -31 -26 -36 8 -13 41 -11 64 3 27
17 34 5 23 -39 -7 -33 -16 -41 -63 -64 -64 -31 -83 -46 -75 -60 4 -5 18 -9 32
-9 25 0 26 -1 19 -54 -6 -51 -41 -136 -57 -136 -11 0 -17 37 -25 142 -8 113
-3 139 33 172 25 23 25 25 9 42 -17 16 -19 16 -39 -7 -43 -49 -48 -67 -46
-172 2 -111 24 -393 38 -497 13 -92 25 -124 45 -128 16 -3 17 3 13 55 -3 32
-9 78 -15 103 -5 25 -13 89 -17 143 -6 90 -6 97 12 97 34 0 81 92 95 188 14
93 28 115 28 44 0 -34 9 -70 26 -107 29 -66 27 -96 -14 -140 -44 -48 -55 -79
-50 -132 5 -49 37 -133 50 -133 5 0 8 -6 8 -13 0 -18 80 -108 91 -101 17 10 9
45 -19 87 -24 37 -43 73 -84 163 -7 15 -4 30 13 60 12 21 28 51 36 65 7 15 20
32 28 39 23 19 17 61 -15 104 -27 35 -30 47 -30 111 0 39 5 76 11 82 15 15 19
82 6 110 -8 19 -8 26 3 33 16 10 8 89 -12 101 -10 7 -10 11 0 21 15 15 16 110
0 126 -25 25 -41 14 -34 -22z"/>
<path d="M289 1099 c-10 -6 -10 -11 1 -24 11 -13 24 -16 53 -12 30 4 42 1 57
-16 39 -41 16 -101 -52 -136 -16 -8 -28 -22 -28 -32 0 -10 -5 -21 -10 -24 -10
-6 -5 -459 5 -475 2 -4 5 -86 6 -183 2 -124 6 -180 14 -187 39 -32 47 73 26
345 -21 284 -25 451 -11 484 7 18 32 43 60 60 39 24 48 35 53 66 9 54 -2 93
-32 114 -28 20 -122 33 -142 20z"/>
</g>
</svg>
