<svg version="1.0" xmlns="http://www.w3.org/2000/svg"
 width="109.000000pt" height="189.000000pt" viewBox="0 0 109.000000 189.000000"
 preserveAspectRatio="xMidYMid meet">
<metadata>
Created by potrace 1.15, written by Peter Selinger 2001-2017
</metadata>
<g transform="translate(0.000000,189.000000) scale(0.100000,-0.100000)"
fill="#000000" stroke="none">
<path d="M626 1752 c-7 -47 -7 -165 2 -264 7 -68 5 -78 -9 -78 -18 0 -42 25
-54 55 -10 27 -34 181 -35 225 0 26 -3 31 -10 20 -14 -21 -12 -185 2 -232 6
-22 27 -55 46 -74 30 -30 39 -34 66 -28 50 10 95 43 117 86 28 55 38 204 15
233 -14 19 -15 16 -16 -43 0 -84 -17 -149 -49 -192 -26 -35 -26 -35 -32 95
-10 201 -28 284 -43 197z"/>
<path d="M310 1496 c0 -230 -1 -239 -22 -269 -31 -44 -132 -142 -168 -164 -16
-9 -30 -21 -30 -25 0 -14 26 -8 46 10 10 10 42 33 69 52 28 18 67 48 88 67 20
18 42 33 47 33 23 0 2 498 -21 525 -5 5 -9 -96 -9 -229z"/>
<path d="M825 1349 c-44 -4 -132 -12 -195 -18 -153 -14 -188 -21 -194 -38 -9
-22 3 -34 27 -28 47 11 206 31 332 41 80 6 80 6 81 -137 0 -133 3 -151 30
-232 17 -48 38 -97 47 -108 9 -10 17 -22 17 -25 0 -9 51 -56 56 -51 3 2 -11
32 -31 66 -58 98 -68 146 -69 316 -1 83 1 166 4 185 6 40 8 40 -105 29z"/>
<path d="M821 1188 c-31 -102 -69 -167 -91 -153 -6 4 -16 18 -21 32 -10 26 3
56 38 91 20 21 34 50 25 56 -4 2 -43 0 -87 -5 -149 -16 -159 -24 -94 -67 29
-20 87 -101 89 -124 0 -5 -15 -8 -33 -8 -55 0 -118 48 -168 128 -24 39 -48 71
-52 72 -10 0 3 -74 14 -78 5 -2 9 -9 9 -16 0 -19 82 -102 123 -125 21 -12 56
-21 78 -21 25 0 42 -5 45 -14 3 -8 1 -51 -4 -96 -12 -99 -56 -193 -120 -257
-48 -48 -42 -58 10 -15 66 55 113 119 129 177 24 85 37 162 32 188 -4 22 2 34
29 61 36 35 55 84 65 166 7 61 0 64 -16 8z m-123 -33 c-10 -23 -48 -36 -48
-16 0 5 -10 12 -22 16 -21 7 -20 8 12 15 66 14 71 13 58 -15z"/>
<path d="M295 1025 c-22 -13 -73 -58 -114 -100 -41 -41 -77 -75 -80 -75 -4 0
-12 -9 -19 -20 -12 -19 -11 -20 8 -8 11 7 20 16 20 20 0 5 9 8 19 8 11 0 21 4
23 8 2 5 32 28 68 52 36 24 67 47 68 52 12 27 21 -4 25 -84 3 -51 7 -111 11
-133 8 -59 -13 -370 -30 -443 -14 -60 -43 -155 -59 -195 -4 -9 -3 -17 1 -17 9
0 18 17 52 110 18 49 34 105 31 112 0 2 4 16 10 31 32 83 42 178 37 354 -5
201 -16 353 -25 353 -3 0 -24 -11 -46 -25z"/>
<path d="M827 717 c-9 -14 -17 -31 -17 -37 0 -5 -4 -10 -9 -10 -4 0 -16 -28
-26 -62 -17 -58 -23 -87 -44 -193 -7 -40 -7 -40 -33 15 -15 30 -29 72 -33 92
-10 63 -26 56 -20 -9 17 -172 102 -340 195 -387 40 -20 38 -7 -10 50 -22 27
-40 54 -40 61 0 7 -4 13 -9 13 -5 0 -11 8 -15 18 -24 68 -25 77 -10 127 29 92
34 111 34 136 0 26 22 94 47 146 8 17 13 40 11 49 -3 15 -6 14 -21 -9z"/>
<path d="M486 391 c6 -62 14 -86 56 -181 22 -47 91 -120 114 -120 8 0 14 -3
14 -8 0 -35 215 -47 310 -16 57 19 71 48 18 36 -18 -3 -85 -7 -148 -7 -93 0
-123 4 -155 19 -44 21 -105 81 -105 102 0 8 -4 14 -10 14 -5 0 -10 6 -10 14 0
8 -13 40 -30 71 -16 31 -30 62 -30 69 -1 6 -7 25 -15 41 -14 29 -14 27 -9 -34z"/>
</g>
</svg>
