<svg version="1.0" xmlns="http://www.w3.org/2000/svg"
 width="68.000000pt" height="77.000000pt" viewBox="0 0 68.000000 77.000000"
 preserveAspectRatio="xMidYMid meet">
<metadata>
Created by potrace 1.15, written by Peter Selinger 2001-2017
</metadata>
<g transform="translate(0.000000,77.000000) scale(0.100000,-0.100000)"
fill="#000000" stroke="none">
<path d="M466 676 c-7 -18 -28 -43 -45 -55 -17 -12 -31 -27 -31 -32 0 -15 23
-10 50 11 31 24 59 25 121 3 38 -14 51 -15 61 -5 9 9 2 16 -33 32 -53 24 -73
39 -82 63 -10 26 -25 20 -41 -17z"/>
<path d="M263 649 c-41 -12 -51 -28 -27 -46 18 -13 19 -33 24 -286 7 -362 23
-359 30 5 5 250 6 273 23 276 16 3 17 -14 17 -258 0 -250 5 -300 30 -300 6 0
10 112 10 294 0 254 -2 297 -16 310 -17 18 -43 19 -91 5z"/>
<path d="M80 607 c-14 -7 -33 -29 -43 -50 -25 -49 -13 -88 30 -101 38 -12 43
-34 43 -188 0 -89 -3 -108 -15 -108 -8 0 -15 3 -16 8 0 4 -2 54 -4 110 -2 57
-6 107 -10 110 -14 15 -40 -17 -43 -53 -5 -52 15 -195 29 -211 15 -19 83 -18
120 1 31 17 31 35 -2 35 -14 0 -19 7 -19 30 0 23 4 30 20 30 36 0 53 44 54
137 1 61 -3 87 -11 90 -10 4 -13 -14 -13 -66 0 -78 -12 -121 -35 -121 -12 0
-15 16 -15 93 0 91 1 94 30 122 77 74 -3 181 -100 132z m80 -57 c17 -32 -4
-60 -44 -60 -44 0 -63 22 -48 55 15 33 76 36 92 5z"/>
<path d="M498 564 c48 -21 35 -39 -28 -39 -33 0 -55 -5 -57 -12 -3 -9 6 -13
29 -13 39 0 63 -13 54 -29 -4 -6 -28 -17 -54 -25 -47 -15 -47 -15 -2 -15 28
-1 57 6 77 19 26 15 43 18 78 13 56 -7 60 9 5 27 -33 11 -40 18 -40 40 0 36
-17 50 -59 49 -36 -1 -36 -1 -3 -15z"/>
<path d="M506 394 c-3 -9 -6 -28 -6 -44 0 -34 -26 -47 -40 -20 -5 10 -10 26
-10 34 0 17 -25 22 -35 6 -3 -5 1 -25 9 -45 11 -26 23 -37 46 -41 36 -8 39
-21 6 -34 -36 -13 -44 -35 -48 -130 -2 -70 0 -85 12 -85 12 0 15 16 16 83 1
61 5 87 17 99 27 28 37 6 37 -86 0 -92 5 -108 26 -90 10 8 11 32 7 95 -5 73
-4 84 10 84 17 0 22 -12 41 -109 7 -38 16 -56 26 -56 9 0 14 8 12 20 -1 11 -5
45 -9 75 -8 74 -27 110 -58 110 -37 0 -31 27 10 44 35 15 53 50 41 81 -9 23
-23 18 -31 -12 -12 -51 -45 -72 -45 -30 0 54 -21 85 -34 51z"/>
</g>
</svg>
