<svg version="1.0" xmlns="http://www.w3.org/2000/svg"
 width="71.000000pt" height="91.000000pt" viewBox="0 0 71.000000 91.000000"
 preserveAspectRatio="xMidYMid meet">
<metadata>
Created by potrace 1.15, written by Peter Selinger 2001-2017
</metadata>
<g transform="translate(0.000000,91.000000) scale(0.100000,-0.100000)"
fill="#000000" stroke="none">
<path d="M186 761 c-4 -6 -4 -51 -1 -100 5 -54 4 -91 -2 -94 -15 -9 -74 69
-67 87 7 19 -23 33 -38 18 -14 -14 41 -124 71 -139 50 -24 53 -60 10 -104 -44
-45 -69 -105 -69 -166 0 -89 33 -60 46 38 7 59 29 103 46 93 11 -7 8 -102 -8
-286 -6 -66 -5 -78 8 -78 35 0 41 53 35 271 -6 209 -6 209 21 241 16 18 36 44
45 58 18 25 23 70 9 70 -15 0 -32 -24 -32 -46 0 -12 -6 -27 -14 -33 -22 -18
-29 3 -27 78 1 44 -3 72 -12 85 -10 13 -16 16 -21 7z"/>
<path d="M459 723 c-1 -5 -1 -11 0 -15 1 -10 -59 -58 -74 -58 -7 0 -18 -7 -25
-15 -10 -13 -9 -15 11 -15 13 0 37 7 53 15 40 21 61 19 117 -12 36 -21 51 -25
60 -16 16 16 6 27 -51 54 -33 16 -53 32 -56 47 -6 20 -32 32 -35 15z"/>
<path d="M388 564 c-23 -20 -45 -41 -47 -46 -4 -11 38 -1 53 13 17 16 26 10
26 -16 0 -24 -22 -40 -82 -59 -10 -3 -18 -12 -18 -20 0 -12 6 -12 33 -4 67 22
107 41 123 59 10 11 23 19 30 19 12 0 34 29 34 44 0 12 -65 46 -87 46 -11 0
-41 -16 -65 -36z m102 -11 c0 -10 -32 -43 -42 -43 -9 0 -11 54 -2 63 7 7 44
-10 44 -20z"/>
<path d="M510 473 c-28 -10 -172 -117 -162 -121 6 -2 27 4 47 12 46 20 51 20
59 1 4 -11 -9 -22 -44 -40 -49 -25 -71 -45 -50 -45 15 0 145 67 182 94 34 24
41 42 26 69 -17 34 -30 40 -58 30z m30 -63 c0 -8 -10 -21 -22 -29 -19 -12 -23
-11 -35 5 -18 24 -17 27 14 46 29 17 43 10 43 -22z"/>
<path d="M220 422 c0 -5 8 -24 17 -43 9 -19 20 -60 24 -92 8 -64 12 -73 30
-62 17 11 3 91 -28 153 -24 47 -43 66 -43 44z"/>
<path d="M504 253 c-13 -14 -27 -37 -31 -51 -5 -23 -6 -22 -27 15 -12 22 -30
39 -43 41 -36 5 -103 -99 -103 -160 0 -36 23 -12 42 43 17 49 53 93 69 83 3
-2 12 -24 19 -49 7 -25 17 -48 21 -51 5 -3 16 -21 25 -40 19 -39 39 -53 56
-36 12 12 -23 76 -47 86 -17 6 -16 22 3 45 7 9 21 27 32 41 22 30 39 20 49
-30 3 -17 11 -31 16 -31 17 1 17 44 0 84 -19 45 -45 49 -81 10z"/>
</g>
</svg>
