<svg version="1.0" xmlns="http://www.w3.org/2000/svg"
 width="63.000000pt" height="101.000000pt" viewBox="0 0 63.000000 101.000000"
 preserveAspectRatio="xMidYMid meet">
<metadata>
Created by potrace 1.15, written by Peter Selinger 2001-2017
</metadata>
<g transform="translate(0.000000,101.000000) scale(0.100000,-0.100000)"
fill="#000000" stroke="none">
<path d="M210 743 c0 -38 -4 -74 -8 -81 -10 -14 -115 -34 -137 -25 -9 3 -15
-1 -15 -8 0 -16 65 -39 111 -39 32 0 32 0 26 -102 -3 -57 -11 -119 -17 -138
-12 -42 1 -60 22 -28 15 22 20 49 34 166 4 28 9 52 13 51 3 0 16 -12 28 -27
19 -25 20 -33 11 -81 -11 -61 -6 -270 8 -321 17 -62 29 -13 29 120 0 69 4 155
9 191 7 50 5 74 -5 98 -8 17 -17 31 -21 31 -5 0 -8 9 -8 20 0 16 7 20 38 20
20 0 42 -4 48 -8 6 -4 16 -43 23 -87 7 -44 16 -102 21 -130 5 -27 17 -92 26
-142 13 -72 20 -93 33 -93 14 0 14 -2 1 -10 -8 -5 -31 -10 -51 -10 -20 0 -42
-7 -49 -15 -7 -8 -16 -12 -21 -9 -5 3 -9 1 -9 -4 0 -26 95 -23 162 6 32 13 35
17 21 27 -17 13 -43 79 -43 112 0 12 -7 47 -15 78 -8 31 -17 84 -20 118 -3 34
-11 79 -17 100 -14 45 -3 57 49 57 35 0 53 17 32 31 -8 5 -26 9 -40 9 -38 0
-58 20 -62 66 -5 46 -1 57 26 67 58 21 -42 56 -106 37 -44 -13 -44 -33 -1 -40
27 -5 29 -9 34 -59 4 -33 2 -55 -5 -57 -5 -2 -32 0 -60 4 -50 7 -50 7 -50 73
-1 63 -14 99 -36 99 -5 0 -9 -30 -9 -67z"/>
</g>
</svg>
