<svg version="1.0" xmlns="http://www.w3.org/2000/svg"
 width="75.000000pt" height="131.000000pt" viewBox="0 0 75.000000 131.000000"
 preserveAspectRatio="xMidYMid meet">
<metadata>
Created by potrace 1.15, written by Peter Selinger 2001-2017
</metadata>
<g transform="translate(0.000000,131.000000) scale(0.100000,-0.100000)"
fill="#000000" stroke="none">
<path d="M267 1216 c-3 -8 -9 -73 -13 -145 -8 -150 -7 -148 -104 -139 -59 6
-80 -3 -61 -26 9 -10 30 -16 57 -16 24 0 44 -4 44 -10 0 -5 9 -10 20 -10 24 0
25 -7 6 -51 -12 -30 -26 -81 -56 -216 -13 -55 -13 -133 0 -133 6 0 10 9 10 19
0 11 4 23 10 26 5 3 10 16 10 29 0 12 3 26 7 30 13 13 33 81 33 114 0 32 36
122 49 122 3 0 20 -20 38 -43 32 -43 32 -43 7 -142 -14 -55 -30 -116 -36 -135
-24 -84 -31 -241 -13 -325 1 -5 5 -28 9 -50 22 -117 38 -50 30 121 -8 157 6
234 70 377 14 32 26 69 26 82 0 25 -22 69 -66 134 -30 44 -22 49 71 42 70 -6
70 -6 72 -106 1 -55 5 -116 8 -135 3 -19 11 -82 16 -140 5 -58 12 -121 15
-140 6 -36 6 -36 -45 -50 -82 -22 -63 -38 70 -61 86 -14 134 -5 134 26 0 19
-13 24 -85 39 -25 5 -25 6 -25 118 0 62 -3 181 -7 265 -5 83 -5 159 -2 167 4
11 19 16 42 16 40 0 122 28 122 41 0 20 -45 31 -101 25 -61 -7 -59 -8 -63 37
-1 6 8 12 19 13 41 2 45 4 45 24 0 29 -76 60 -146 60 -45 0 -54 -3 -54 -18 0
-23 19 -42 42 -42 14 0 18 -8 18 -35 0 -35 0 -35 -50 -37 -140 -4 -124 -19
-131 127 -6 126 -12 165 -29 165 -4 0 -10 -6 -13 -14z"/>
</g>
</svg>
