<svg version="1.0" xmlns="http://www.w3.org/2000/svg"
 width="65.000000pt" height="93.000000pt" viewBox="0 0 65.000000 93.000000"
 preserveAspectRatio="xMidYMid meet">
<metadata>
Created by potrace 1.15, written by Peter Selinger 2001-2017
</metadata>
<g transform="translate(0.000000,93.000000) scale(0.100000,-0.100000)"
fill="#000000" stroke="none">
<path d="M214 835 c-6 -14 -4 -35 12 -136 3 -20 2 -39 -3 -42 -5 -3 -30 -1
-57 5 -39 8 -51 7 -63 -5 -13 -13 -11 -16 18 -31 17 -9 46 -16 64 -16 40 0 45
-5 35 -38 -4 -15 -14 -47 -21 -72 -7 -25 -17 -51 -22 -57 -5 -7 -6 -20 -3 -29
9 -22 31 -3 58 50 27 53 26 53 43 30 16 -22 20 -77 6 -103 -24 -45 -25 -321
-1 -321 13 0 30 69 30 125 0 44 16 145 36 227 7 32 -9 87 -34 114 -10 11 -21
30 -24 42 -6 23 -5 23 50 16 31 -3 58 -8 60 -9 3 -2 32 -376 32 -413 0 -17 -8
-26 -30 -33 -16 -6 -30 -14 -30 -18 0 -13 24 -31 40 -31 9 0 21 -5 27 -11 24
-24 153 -12 153 15 0 7 -22 18 -48 25 -49 12 -49 12 -60 124 -7 62 -14 165
-17 229 -6 117 -6 117 42 120 66 4 65 28 -2 49 -50 16 -50 16 -53 67 -3 55 -4
54 63 64 11 2 20 10 20 18 0 12 -21 16 -100 20 -55 3 -106 4 -112 2 -24 -8
-13 -21 26 -32 36 -9 39 -13 45 -56 10 -78 12 -75 -51 -72 -58 3 -58 3 -69 85
-9 76 -24 113 -46 113 -5 0 -11 -7 -14 -15z"/>
</g>
</svg>
