<svg version="1.0" xmlns="http://www.w3.org/2000/svg"
 width="69.000000pt" height="101.000000pt" viewBox="0 0 69.000000 101.000000"
 preserveAspectRatio="xMidYMid meet">
<metadata>
Created by potrace 1.15, written by Peter Selinger 2001-2017
</metadata>
<g transform="translate(0.000000,101.000000) scale(0.100000,-0.100000)"
fill="#000000" stroke="none">
<path d="M248 933 c-1 -5 -2 -62 -2 -127 -1 -120 -1 -120 -34 -127 -18 -3 -35
-3 -38 2 -8 14 -86 11 -82 -3 2 -6 11 -15 19 -18 8 -4 24 -12 36 -18 13 -7 36
-12 53 -12 35 0 36 -6 11 -68 -26 -67 -41 -116 -41 -136 0 -33 32 -11 58 39
44 89 50 99 60 103 22 7 44 -65 38 -125 -12 -114 -18 -244 -12 -260 6 -14 8
-14 21 3 8 10 15 35 15 54 0 19 9 70 20 114 28 110 25 172 -10 206 -12 11 -28
58 -23 64 12 12 112 6 120 -6 4 -7 11 -56 15 -108 4 -52 14 -153 22 -225 9
-72 16 -135 16 -142 0 -6 -12 -13 -27 -15 -16 -2 -27 -7 -27 -13 2 -18 78 -48
123 -49 48 -1 67 18 28 28 -40 10 -53 43 -60 151 -4 55 -13 138 -22 185 -8 47
-15 111 -15 143 0 56 1 57 28 57 34 0 43 7 35 26 -3 8 -18 14 -33 14 -16 0
-31 3 -34 8 -2 4 -8 40 -11 80 -8 72 -8 72 24 72 22 0 31 5 31 16 0 10 -6 14
-14 11 -7 -3 -19 0 -26 6 -9 9 -14 9 -17 1 -2 -8 -16 -5 -41 8 -66 34 -111 7
-49 -30 37 -21 47 -49 47 -129 0 -45 0 -45 -67 -39 -38 3 -69 6 -70 6 -2 0 -3
47 -3 105 0 65 -4 105 -10 105 -6 0 -15 11 -20 25 -9 24 -28 34 -32 18z"/>
</g>
</svg>
