<svg version="1.0" xmlns="http://www.w3.org/2000/svg"
 width="55.000000pt" height="83.000000pt" viewBox="0 0 55.000000 83.000000"
 preserveAspectRatio="xMidYMid meet">
<metadata>
Created by potrace 1.15, written by Peter Selinger 2001-2017
</metadata>
<g transform="translate(0.000000,83.000000) scale(0.100000,-0.100000)"
fill="#000000" stroke="none">
<path d="M343 628 c1 -14 -6 -26 -22 -34 -19 -10 -20 -13 -8 -20 21 -13 37
-49 37 -84 0 -25 -3 -31 -16 -26 -9 3 -42 6 -75 6 -54 0 -60 2 -69 24 -5 13
-19 31 -32 40 -20 14 -23 14 -26 2 -2 -8 4 -26 13 -40 16 -23 15 -25 -7 -28
-40 -5 -33 -33 12 -47 22 -6 38 -16 35 -21 -10 -16 -35 -201 -29 -211 10 -17
22 1 45 69 25 77 27 81 38 63 5 -7 2 -25 -6 -43 -30 -58 -22 -265 7 -218 6 8
10 44 10 80 0 46 6 76 20 103 24 45 25 74 4 116 -18 36 -12 66 12 57 9 -3 28
-6 42 -6 21 0 27 -5 28 -22 1 -51 17 -154 25 -169 10 -20 -18 -49 -49 -49 -29
0 -37 -17 -12 -25 35 -11 90 -14 90 -4 0 5 18 9 40 9 22 0 40 5 40 10 0 6 -9
10 -20 10 -44 0 -56 29 -58 138 -2 102 -2 102 38 102 29 0 40 4 40 15 0 17
-39 35 -76 35 -23 0 -25 3 -22 43 3 36 6 42 28 45 27 4 50 19 50 33 0 5 -6 9
-12 9 -37 0 -86 22 -91 40 -7 27 -27 25 -24 -2z"/>
</g>
</svg>
