<svg version="1.0" xmlns="http://www.w3.org/2000/svg"
 width="71.000000pt" height="91.000000pt" viewBox="0 0 71.000000 91.000000"
 preserveAspectRatio="xMidYMid meet">
<metadata>
Created by potrace 1.15, written by Peter Selinger 2001-2017
</metadata>
<g transform="translate(0.000000,91.000000) scale(0.100000,-0.100000)"
fill="#000000" stroke="none">
<path d="M320 742 c0 -5 7 -15 15 -22 25 -21 19 -57 -11 -64 -22 -6 -32 -1
-54 26 -16 18 -31 30 -36 26 -4 -5 0 -16 9 -26 25 -27 21 -32 -23 -32 -44 0
-50 -11 -25 -47 23 -33 86 -46 188 -39 48 4 99 12 112 18 29 13 61 86 46 101
-8 8 -15 7 -23 -1 -7 -7 -28 -12 -47 -12 -35 0 -35 0 -8 28 48 50 27 59 -26
12 -19 -16 -39 -30 -43 -30 -5 0 -16 15 -25 33 -15 30 -49 50 -49 29z m170
-116 c0 -17 -25 -23 -117 -32 -81 -8 -146 1 -140 19 4 13 78 23 190 25 51 2
67 -1 67 -12z"/>
<path d="M379 540 c-170 -17 -189 -21 -204 -43 -9 -15 -17 -81 -25 -202 -5
-99 -13 -197 -16 -219 -5 -30 -3 -37 7 -34 18 6 27 68 37 262 8 148 11 161 32
178 12 10 36 19 54 19 177 7 241 15 241 29 0 18 -24 20 -126 10z"/>
<path d="M385 484 c-111 -22 -126 -27 -140 -47 -21 -30 -19 -79 5 -105 18 -19
32 -22 113 -23 123 -1 141 -7 145 -45 4 -39 -19 -49 -137 -63 -54 -6 -93 -16
-110 -28 -44 -32 -94 -152 -59 -141 7 3 19 25 26 50 7 25 20 52 30 61 14 13
182 47 232 47 20 0 50 41 50 68 0 15 -7 38 -16 50 -14 20 -23 22 -114 22 -122
0 -150 11 -150 56 0 29 5 36 34 48 19 8 64 17 100 21 36 4 73 13 83 21 16 12
13 13 -27 13 -25 -1 -54 -3 -65 -5z"/>
<path d="M412 429 c-80 -9 -122 -21 -122 -37 1 -27 24 -35 131 -42 63 -4 116
-6 119 -3 9 8 -26 23 -57 23 -41 0 -63 9 -63 26 0 9 11 14 33 14 41 0 77 10
77 21 0 10 -1 10 -118 -2z m-32 -39 c0 -5 -12 -10 -26 -10 -14 0 -23 4 -19 10
3 6 15 10 26 10 10 0 19 -4 19 -10z"/>
<path d="M230 289 c0 -4 20 -12 45 -18 25 -6 45 -15 45 -20 0 -11 -25 -21 -55
-21 -14 0 -29 -9 -35 -20 -12 -22 -4 -25 32 -11 13 5 59 14 102 21 44 6 85 14
93 17 19 7 16 31 -4 42 -21 10 -223 20 -223 10z m190 -29 c0 -5 -15 -10 -32
-10 -25 0 -29 3 -18 10 20 13 50 13 50 0z"/>
<path d="M307 143 c-27 -4 -28 -6 -22 -46 9 -58 34 -77 104 -77 74 0 117 26
126 74 4 19 4 39 0 45 -6 11 -147 13 -208 4z m183 -35 c-1 -34 -46 -58 -110
-58 -29 0 -43 6 -54 22 -30 43 -22 48 74 48 65 0 90 -3 90 -12z"/>
<path d="M337 94 c-18 -18 -3 -25 48 -22 30 2 56 8 58 13 2 11 -95 20 -106 9z"/>
</g>
</svg>
