<svg version="1.0" xmlns="http://www.w3.org/2000/svg"
 width="93.000000pt" height="177.000000pt" viewBox="0 0 93.000000 177.000000"
 preserveAspectRatio="xMidYMid meet">
<metadata>
Created by potrace 1.15, written by Peter Selinger 2001-2017
</metadata>
<g transform="translate(0.000000,177.000000) scale(0.100000,-0.100000)"
fill="#000000" stroke="none">
<path d="M498 1596 c-9 -18 -31 -50 -49 -70 -32 -37 -32 -37 -55 -13 -48 52
-218 114 -277 102 -17 -4 -36 -10 -40 -12 -9 -6 56 -53 72 -53 24 0 148 -45
174 -62 15 -11 27 -26 27 -35 0 -13 -9 -15 -47 -10 -144 18 -173 19 -173 8 0
-36 62 -60 168 -64 46 -2 87 -8 92 -13 4 -5 10 -31 12 -59 3 -50 3 -50 -62
-47 -36 1 -93 8 -126 14 -67 12 -97 7 -88 -16 7 -17 94 -56 127 -56 21 0 85
-17 96 -26 4 -3 -52 -75 -91 -117 -16 -17 -28 -33 -28 -37 0 -3 -27 -34 -60
-68 -33 -34 -60 -69 -60 -77 0 -8 -4 -15 -10 -15 -5 0 -10 -9 -10 -20 0 -15 7
-20 25 -20 14 0 25 5 25 10 0 6 11 16 25 22 14 6 25 17 25 24 0 7 9 16 20 19
11 3 20 10 20 15 0 12 39 70 65 95 11 11 36 40 55 63 49 60 114 95 160 87 87
-17 185 -58 200 -84 16 -32 38 -104 45 -153 3 -26 10 -50 16 -53 5 -4 7 -11 3
-16 -3 -5 0 -16 6 -24 7 -9 12 -57 12 -132 0 -65 4 -123 9 -129 5 -6 7 -34 6
-63 -2 -51 12 -76 38 -67 10 3 10 100 -1 221 -3 39 -8 131 -10 205 -6 185 -16
225 -65 256 -21 13 -43 24 -49 24 -5 0 -10 3 -10 8 0 9 -49 32 -68 32 -11 0
-139 40 -151 47 -2 2 30 37 72 78 79 77 90 101 61 130 -15 15 -21 11 -74 -44
-32 -34 -62 -61 -68 -61 -5 0 -12 13 -15 29 -5 22 3 48 28 99 40 79 57 162 33
162 -8 0 -22 -15 -30 -34z"/>
<path d="M422 1076 c-18 -5 -31 -15 -29 -20 3 -10 8 -13 58 -36 31 -14 109
-86 109 -100 0 -21 -50 -56 -106 -75 -32 -10 -61 -22 -64 -25 -3 -3 -21 -13
-40 -24 -55 -29 -100 -60 -100 -69 0 -4 -9 -17 -20 -29 -11 -12 -20 -30 -20
-41 0 -10 -5 -28 -11 -39 -19 -36 8 -93 73 -154 43 -39 67 -54 88 -54 16 0 32
-5 36 -11 12 -19 237 -6 270 16 27 18 27 18 3 36 -16 12 -32 16 -49 11 -33 -9
-130 -8 -205 3 -51 7 -65 14 -92 44 -18 19 -33 43 -33 52 0 10 -4 21 -10 24
-5 3 -9 18 -7 33 3 45 112 136 192 162 78 25 91 31 115 53 36 32 50 62 50 106
0 35 -5 43 -52 81 -43 34 -116 75 -122 69 0 -1 -16 -7 -34 -13z"/>
<path d="M380 948 c-19 -11 -41 -26 -49 -33 -24 -23 12 -30 74 -15 54 13 69
27 59 55 -8 20 -42 18 -84 -7z"/>
<path d="M444 731 c-17 -10 -40 -39 -53 -66 -29 -61 -22 -109 17 -129 40 -21
98 -30 106 -17 4 6 33 11 65 11 65 0 111 17 111 42 0 19 -31 40 -52 36 -7 -2
-13 3 -12 10 1 6 2 26 3 42 0 20 6 30 17 30 8 0 22 7 31 15 29 30 1 41 -104
44 -81 1 -103 -2 -129 -18z m86 -91 c0 -23 -4 -30 -20 -30 -23 0 -27 29 -8 48
19 19 28 14 28 -18z"/>
<path d="M331 267 c-1 -99 1 -119 20 -155 12 -22 33 -46 48 -52 14 -7 34 -16
43 -21 21 -10 132 -12 141 -2 4 3 19 8 33 9 56 6 89 84 82 196 -2 47 -9 73
-22 87 -26 28 -46 27 -46 -4 0 -27 -9 -31 -100 -39 -79 -6 -134 5 -139 29 -5
28 -31 65 -46 65 -10 0 -13 -28 -14 -113z m284 -49 c12 -12 -10 -72 -37 -99
-34 -34 -68 -37 -128 -13 -32 13 -42 23 -51 55 -19 63 -5 72 113 67 54 -3 100
-7 103 -10z"/>
</g>
</svg>
