<svg version="1.0" xmlns="http://www.w3.org/2000/svg"
 width="81.000000pt" height="179.000000pt" viewBox="0 0 81.000000 179.000000"
 preserveAspectRatio="xMidYMid meet">
<metadata>
Created by potrace 1.15, written by Peter Selinger 2001-2017
</metadata>
<g transform="translate(0.000000,179.000000) scale(0.100000,-0.100000)"
fill="#000000" stroke="none">
<path d="M346 1623 c37 -75 44 -97 44 -150 0 -50 -3 -62 -17 -66 -27 -5 -70
19 -89 51 -9 16 -25 34 -35 40 -17 11 -19 9 -19 -18 0 -44 70 -110 117 -110
35 0 35 0 28 -77 -4 -43 -12 -82 -19 -86 -28 -20 -153 18 -185 57 -7 8 -15 35
-19 58 -5 41 -48 98 -74 98 -27 0 24 -152 63 -189 30 -28 122 -70 169 -77 29
-5 40 -11 40 -24 0 -28 -19 -37 -122 -55 -94 -17 -118 -29 -81 -41 10 -3 26
-10 35 -15 25 -13 62 -11 76 3 9 9 12 4 12 -25 0 -34 -2 -36 -37 -42 -85 -14
-123 -29 -123 -48 0 -18 5 -19 48 -12 112 19 272 8 272 -17 0 -5 9 -8 20 -8
11 0 20 -4 20 -8 0 -4 14 -16 30 -25 57 -34 31 -110 -53 -154 -19 -9 -58 -15
-110 -15 -135 0 -206 -46 -231 -151 -8 -34 8 -97 32 -125 10 -11 49 -35 88
-52 38 -18 79 -37 91 -42 26 -13 158 -16 169 -5 13 12 -13 24 -69 30 -28 4
-55 11 -61 17 -5 5 -20 10 -33 10 -28 0 -112 43 -133 67 -9 10 -22 37 -29 61
-14 43 -14 43 15 69 16 15 39 35 51 46 18 16 44 22 119 28 113 8 164 30 164
68 0 20 3 22 12 13 20 -20 35 -14 47 19 22 65 1 156 -39 166 -11 3 -20 9 -20
14 0 5 -7 9 -16 9 -20 0 -43 28 -44 52 0 9 5 29 12 43 13 30 48 33 96 9 36
-18 92 -81 92 -104 0 -9 4 -20 9 -25 5 -6 12 -35 15 -65 9 -95 14 -120 26
-135 30 -36 40 -10 28 75 -4 36 -10 79 -12 95 -6 49 -52 138 -88 170 -31 28
-144 75 -180 75 -15 0 -38 27 -38 44 0 3 19 6 42 6 38 0 106 17 118 30 3 4 21
14 40 23 58 28 120 95 120 130 0 9 5 17 10 19 13 4 26 118 14 118 -21 -1 -44
-29 -45 -56 -1 -41 -20 -96 -45 -126 -34 -43 -148 -86 -210 -80 -31 3 -32 4
-27 45 10 82 22 113 50 128 41 21 93 80 93 105 0 12 3 30 6 38 5 12 2 15 -10
10 -9 -3 -16 -14 -16 -24 0 -22 -70 -100 -90 -100 -12 0 -15 15 -16 63 -1 45
-9 76 -28 113 -14 29 -26 56 -26 60 0 19 -48 64 -67 64 -19 0 -17 -8 23 -87z
m55 -590 c-5 -10 -14 -31 -20 -46 -9 -23 -16 -28 -39 -25 -23 3 -27 8 -30 40
-3 40 4 45 66 47 28 1 31 -1 23 -16z"/>
<path d="M176 841 c-4 -6 -20 -11 -37 -11 -23 0 -29 -4 -29 -21 0 -18 5 -20
43 -17 37 3 42 0 45 -19 3 -18 -4 -23 -52 -34 -31 -7 -56 -15 -56 -19 0 -21
196 -17 266 6 68 22 74 26 74 55 0 46 -35 61 -149 67 -67 3 -100 1 -105 -7z
m159 -45 c30 -13 30 -13 5 -26 -13 -7 -39 -16 -57 -20 -30 -7 -32 -6 -22 12 6
11 8 26 5 34 -7 18 27 18 69 0z"/>
<path d="M405 550 c-157 -25 -155 -23 -155 -75 1 -36 15 -56 53 -73 64 -28
252 -2 265 36 2 8 -14 12 -53 12 -48 0 -56 3 -51 16 3 9 6 26 6 39 0 17 6 25
22 27 12 2 23 9 26 16 4 13 -31 14 -113 2z m5 -80 c0 -39 -1 -40 -36 -40 -19
0 -44 5 -55 10 -43 23 -9 70 52 70 39 0 39 0 39 -40z"/>
<path d="M60 273 c0 -10 7 -27 15 -37 8 -11 15 -28 15 -37 0 -19 38 -97 57
-117 6 -7 33 -22 60 -35 42 -19 64 -22 166 -21 128 1 151 8 202 60 54 55 74
95 72 144 -2 40 -32 64 -50 39 -32 -41 -56 -46 -187 -38 -157 10 -235 22 -282
43 -48 21 -68 20 -68 -1z m285 -83 c33 -6 95 -13 138 -17 42 -3 77 -9 77 -13
0 -11 -52 -63 -78 -77 -32 -19 -200 -17 -247 3 -63 26 -105 90 -78 118 8 8
102 1 188 -14z"/>
<path d="M277 153 c-4 -3 -7 -15 -7 -25 0 -13 8 -18 28 -19 15 0 46 -2 70 -5
37 -5 42 -4 42 14 0 14 -8 22 -27 26 -74 13 -100 16 -106 9z"/>
</g>
</svg>
