<svg version="1.0" xmlns="http://www.w3.org/2000/svg"
 width="69.000000pt" height="86.000000pt" viewBox="0 0 69.000000 86.000000"
 preserveAspectRatio="xMidYMid meet">
<metadata>
Created by potrace 1.15, written by Peter Selinger 2001-2017
</metadata>
<g transform="translate(0.000000,86.000000) scale(0.100000,-0.100000)"
fill="#000000" stroke="none">
<path d="M277 680 c-32 -4 -60 -10 -63 -13 -15 -15 13 -27 62 -27 54 0 54 0
54 -30 0 -31 0 -31 -82 -28 -81 3 -81 3 -92 41 -13 44 -30 50 -34 11 -5 -39
17 -83 45 -91 41 -10 284 4 328 19 35 12 40 17 48 57 6 28 5 47 -2 54 -16 16
-39 -9 -43 -46 -3 -32 -3 -32 -65 -35 -62 -3 -63 -2 -63 23 0 18 5 25 19 25
31 0 75 20 65 29 -14 13 -113 19 -177 11z"/>
<path d="M275 499 c-91 -11 -105 -14 -105 -29 0 -6 30 -10 75 -10 61 0 75 -3
75 -15 0 -21 -41 -35 -105 -35 -59 0 -82 -15 -39 -26 36 -9 280 3 323 16 56
16 65 42 26 84 -22 24 -30 26 -97 25 -40 -1 -109 -6 -153 -10z m215 -39 c23
-15 1 -27 -62 -35 -54 -6 -58 -5 -58 13 0 11 6 23 13 25 21 9 91 7 107 -3z"/>
<path d="M275 349 c-122 -14 -132 -17 -145 -48 -16 -39 0 -66 41 -75 17 -3 76
-6 130 -6 89 0 99 -2 109 -21 18 -32 5 -47 -42 -51 -30 -2 -43 -7 -43 -18 0
-11 15 -16 62 -18 60 -3 63 -4 79 -37 9 -19 23 -35 30 -35 17 0 19 31 3 47
-15 15 -3 33 21 33 18 0 34 23 23 34 -4 3 -23 6 -43 6 -30 0 -39 5 -48 25 -18
39 -15 45 19 45 17 0 39 5 50 10 39 22 18 30 -68 28 -83 -3 -88 -2 -91 18 -4
27 19 34 111 34 50 0 67 3 67 14 0 7 -10 16 -22 20 -30 8 -155 5 -243 -5z m35
-58 c0 -24 -19 -31 -78 -31 -52 0 -83 13 -67 29 9 9 32 12 123 19 16 1 22 -3
22 -17z"/>
<path d="M170 160 c-41 -41 -18 -128 38 -144 28 -8 36 -6 57 14 36 34 31 116
-9 142 -21 14 -66 8 -86 -12z m74 -36 c19 -18 19 -16 6 -48 -16 -44 -70 -28
-70 21 0 12 8 27 18 32 23 14 28 14 46 -5z"/>
<path d="M315 70 c-11 -17 4 -28 47 -35 34 -6 44 -4 54 10 8 10 11 22 8 26 -7
12 -101 11 -109 -1z"/>
</g>
</svg>
