<svg version="1.0" xmlns="http://www.w3.org/2000/svg"
 width="62.000000pt" height="91.000000pt" viewBox="0 0 62.000000 91.000000"
 preserveAspectRatio="xMidYMid meet">
<metadata>
Created by potrace 1.15, written by Peter Selinger 2001-2017
</metadata>
<g transform="translate(0.000000,91.000000) scale(0.100000,-0.100000)"
fill="#000000" stroke="none">
<path d="M281 720 c-9 -5 -12 -18 -8 -36 6 -29 6 -29 -94 -26 -81 3 -99 1 -99
-11 0 -20 31 -27 123 -27 77 0 77 0 77 -26 0 -27 0 -27 -83 -20 -88 7 -117 2
-117 -19 0 -15 65 -21 308 -31 146 -6 162 -5 162 10 0 9 -1 17 -2 17 -2 1 -50
4 -108 8 -104 6 -105 6 -105 31 0 25 1 25 93 28 72 2 92 6 92 17 0 11 -21 15
-97 17 -98 3 -98 3 -101 30 -4 32 -23 50 -41 38z"/>
<path d="M118 459 c-38 -28 -38 -69 1 -92 25 -14 57 -17 205 -17 167 0 176 1
186 21 6 11 8 33 5 50 -12 53 -33 59 -210 59 -145 -1 -162 -2 -187 -21z m159
-39 c6 -35 -11 -41 -77 -31 -72 12 -77 15 -60 36 18 22 134 17 137 -5z m179
-5 c29 -22 2 -35 -73 -35 -54 0 -63 2 -63 18 0 10 3 22 7 25 13 13 109 7 129
-8z"/>
<path d="M367 313 c-4 -6 0 -17 9 -24 14 -12 44 -61 44 -74 0 -3 -11 -5 -24
-5 -31 0 -52 21 -61 60 -6 29 -19 39 -28 23 -8 -14 12 -68 33 -91 15 -16 32
-22 64 -22 43 0 43 0 57 -77 14 -77 24 -91 43 -60 6 10 3 34 -10 76 -20 61
-20 61 3 83 28 26 30 69 5 91 -30 27 -42 21 -31 -15 15 -55 -6 -56 -54 -3 -26
29 -46 44 -50 38z"/>
<path d="M96 294 c-3 -9 -6 -50 -6 -93 0 -94 18 -121 79 -121 57 0 73 24 79
118 3 63 1 80 -12 91 -14 12 -17 10 -22 -18 -6 -30 -9 -32 -48 -29 -28 2 -40
7 -38 17 4 18 -7 51 -18 51 -4 0 -11 -7 -14 -16z m114 -124 c0 -36 -30 -56
-60 -40 -13 7 -20 21 -20 40 0 28 2 30 40 30 38 0 40 -2 40 -30z"/>
<path d="M297 113 c-30 -8 -13 -28 28 -31 51 -4 85 5 85 23 0 11 -12 15 -47
14 -27 -1 -56 -3 -66 -6z"/>
</g>
</svg>
