<svg version="1.0" xmlns="http://www.w3.org/2000/svg"
 width="65.000000pt" height="93.000000pt" viewBox="0 0 65.000000 93.000000"
 preserveAspectRatio="xMidYMid meet">
<metadata>
Created by potrace 1.15, written by Peter Selinger 2001-2017
</metadata>
<g transform="translate(0.000000,93.000000) scale(0.100000,-0.100000)"
fill="#000000" stroke="none">
<path d="M160 706 c0 -22 57 -65 93 -70 18 -2 71 -9 119 -14 48 -5 94 -15 103
-22 8 -7 19 -29 25 -50 22 -81 -22 -115 -161 -126 -101 -8 -163 -36 -199 -90
-43 -64 -26 -159 33 -184 12 -5 60 -14 107 -20 156 -19 154 -18 194 -66 61
-73 92 -52 36 24 -41 57 -74 71 -192 82 -123 12 -148 28 -148 96 0 66 30 94
116 110 246 45 254 49 262 138 4 49 1 60 -21 90 -27 35 -31 36 -232 62 -53 6
-105 28 -105 44 0 6 -7 10 -15 10 -8 0 -15 -6 -15 -14z"/>
<path d="M117 623 c-4 -3 -7 -10 -7 -14 0 -12 55 -39 79 -39 22 0 36 -30 27
-58 -4 -10 -29 -29 -56 -42 -28 -13 -50 -29 -50 -37 0 -17 -3 -17 83 11 40 13
105 27 143 31 79 9 104 19 104 43 -1 41 -26 54 -136 68 -59 8 -121 21 -137 29
-34 17 -41 18 -50 8z m277 -85 c32 -17 1 -32 -74 -36 -69 -4 -70 -4 -70 21 0
16 6 27 18 29 25 6 104 -3 126 -14z"/>
<path d="M380 363 c-49 -9 -124 -33 -147 -48 -29 -19 -30 -56 -2 -81 17 -15
40 -20 113 -22 78 -3 96 -7 123 -28 31 -23 63 -32 63 -16 -1 17 -40 57 -71 71
-25 12 -35 24 -37 45 -4 36 7 47 54 55 21 3 39 12 42 19 4 12 -79 15 -138 5z
m10 -72 c0 -24 -5 -29 -32 -35 -42 -8 -98 3 -98 20 0 17 16 26 60 35 65 13 70
11 70 -20z"/>
</g>
</svg>
