<svg version="1.0" xmlns="http://www.w3.org/2000/svg"
 width="66.000000pt" height="90.000000pt" viewBox="0 0 66.000000 90.000000"
 preserveAspectRatio="xMidYMid meet">
<metadata>
Created by potrace 1.15, written by Peter Selinger 2001-2017
</metadata>
<g transform="translate(0.000000,90.000000) scale(0.100000,-0.100000)"
fill="#000000" stroke="none">
<path d="M462 703 c-39 -4 -45 -8 -58 -38 -19 -45 -18 -129 1 -145 8 -6 32
-14 54 -17 53 -7 91 16 91 55 0 60 -51 91 -96 58 -18 -14 -17 -15 19 -30 48
-21 47 -36 -3 -36 -35 0 -40 3 -46 27 -4 16 -2 37 7 52 13 23 22 26 75 29 57
3 61 1 72 -23 16 -34 15 -128 0 -143 -8 -8 -48 -12 -115 -12 -103 0 -103 0
-103 83 0 84 -9 115 -29 103 -7 -5 -11 -52 -11 -135 0 -151 8 -169 78 -178 41
-6 43 -7 40 -37 -3 -29 -6 -31 -48 -34 -89 -7 -83 -52 7 -52 43 0 43 0 43 -40
0 -44 -6 -47 -85 -52 -32 -2 -40 -7 -40 -23 0 -19 6 -20 138 -18 138 1 172 9
161 38 -4 10 -21 12 -65 8 -59 -6 -59 -6 -59 28 0 47 8 55 65 65 33 6 50 14
50 24 0 8 -7 16 -15 17 -88 11 -90 12 -90 48 0 34 1 35 39 35 33 0 43 5 62 31
19 27 23 48 27 150 5 115 4 121 -18 144 -24 26 -38 27 -148 18z m110 -285 c-8
-8 -45 -13 -105 -13 -78 0 -92 2 -95 17 -3 15 8 18 95 20 101 3 126 -3 105
-24z"/>
<path d="M140 666 c0 -7 7 -30 15 -49 21 -50 19 -123 -6 -198 -18 -54 -20 -82
-16 -181 2 -65 9 -123 14 -130 6 -7 14 -28 18 -45 8 -40 35 -45 35 -7 0 14 -4
34 -10 44 -22 42 -30 153 -15 235 8 44 14 86 15 93 0 6 9 12 19 12 10 0 33 16
50 35 25 29 31 45 31 81 0 64 -35 126 -54 96 -3 -5 2 -28 10 -52 17 -50 11
-96 -16 -110 -29 -16 -30 -14 -30 55 0 73 -21 135 -44 135 -9 0 -16 -6 -16
-14z"/>
<path d="M66 591 c-3 -5 1 -25 9 -45 13 -31 13 -40 -1 -82 -17 -49 -14 -60 11
-50 24 9 48 74 41 110 -10 53 -45 92 -60 67z"/>
<path d="M206 358 c-15 -57 2 -187 29 -224 24 -33 29 -6 11 66 -11 47 -14 87
-10 125 6 45 4 55 -8 55 -9 0 -18 -10 -22 -22z"/>
<path d="M51 310 c-22 -103 -4 -241 33 -248 16 -4 18 0 11 30 -9 37 -9 186 0
236 5 27 3 32 -14 32 -15 0 -22 -11 -30 -50z"/>
</g>
</svg>
