<svg version="1.0" xmlns="http://www.w3.org/2000/svg"
 width="70.000000pt" height="87.000000pt" viewBox="0 0 70.000000 87.000000"
 preserveAspectRatio="xMidYMid meet">
<metadata>
Created by potrace 1.15, written by Peter Selinger 2001-2017
</metadata>
<g transform="translate(0.000000,87.000000) scale(0.100000,-0.100000)"
fill="#000000" stroke="none">
<path d="M355 699 c-10 -15 6 -137 19 -148 6 -5 25 -11 41 -13 28 -3 30 -6 30
-43 0 -39 -1 -40 -37 -43 -82 -7 -16 -42 74 -39 40 1 62 -3 71 -13 9 -11 11
-56 7 -185 -5 -144 -3 -172 10 -183 31 -27 40 12 40 181 0 206 -8 226 -95 239
-16 3 -20 11 -20 43 0 40 0 40 45 43 27 2 50 9 58 19 17 23 15 98 -3 113 -22
18 -38 2 -31 -33 7 -36 -8 -57 -41 -57 -25 0 -25 2 -21 50 4 39 1 53 -13 66
-17 16 -19 15 -29 -11 -5 -14 -8 -31 -4 -36 9 -16 -7 -69 -21 -69 -26 0 -45
31 -45 75 0 42 -21 68 -35 44z"/>
<path d="M176 693 c-3 -4 -6 -30 -6 -58 0 -58 -3 -65 -30 -58 -15 4 -18 14
-17 48 1 24 -3 49 -10 56 -21 21 -38 -6 -41 -60 -2 -60 20 -91 68 -91 28 0 30
-3 30 -35 0 -33 -2 -35 -34 -35 -57 0 -61 -12 -61 -213 0 -126 3 -181 11 -184
22 -8 34 61 34 198 0 160 -1 159 98 159 38 0 64 5 71 13 15 19 4 27 -39 27
-45 0 -48 2 -42 39 3 24 10 30 40 36 55 10 71 22 78 60 9 48 -2 85 -25 85 -16
0 -19 -7 -18 -46 0 -49 -13 -66 -48 -62 -16 3 -20 11 -21 48 -1 25 -2 50 -2
56 -2 14 -27 25 -36 17z"/>
<path d="M246 357 c-13 -9 -18 -29 -19 -76 -2 -68 2 -74 56 -86 25 -5 28 -10
25 -38 -3 -31 -4 -32 -55 -35 -54 -3 -64 -11 -39 -31 20 -17 242 -13 256 4 17
20 -12 36 -61 33 -44 -3 -44 -3 -44 32 0 30 4 36 25 38 39 6 58 30 65 85 7 45
5 53 -15 69 -27 22 -165 26 -194 5z m157 -59 c8 -50 -10 -62 -74 -51 -46 7
-55 12 -57 31 -7 44 4 52 67 52 59 0 59 0 64 -32z"/>
</g>
</svg>
