<svg version="1.0" xmlns="http://www.w3.org/2000/svg"
 width="81.000000pt" height="131.000000pt" viewBox="0 0 81.000000 131.000000"
 preserveAspectRatio="xMidYMid meet">
<metadata>
Created by potrace 1.15, written by Peter Selinger 2001-2017
</metadata>
<g transform="translate(0.000000,131.000000) scale(0.100000,-0.100000)"
fill="#000000" stroke="none">
<path d="M576 1193 c-38 -13 -74 -30 -80 -38 -6 -7 -30 -21 -53 -29 -24 -9
-62 -23 -85 -32 -24 -9 -73 -17 -110 -18 -69 -1 -81 -9 -50 -32 20 -16 65 -18
112 -4 25 7 36 7 43 -3 13 -19 -1 -215 -19 -241 -19 -31 -134 -65 -216 -66
-45 0 -56 -14 -26 -34 26 -18 85 -20 143 -5 104 28 98 31 92 -57 -3 -44 -12
-117 -20 -164 -29 -169 -29 -172 -10 -168 23 4 42 62 53 158 5 41 15 109 24
150 8 41 15 89 15 106 1 29 5 32 59 47 71 21 91 32 76 47 -7 7 -27 7 -64 0
-29 -6 -54 -9 -56 -7 -2 1 0 61 3 133 6 130 6 130 52 144 44 12 120 48 131 61
10 13 49 19 54 10 12 -19 -21 -77 -66 -116 -24 -22 -48 -49 -52 -60 -28 -67
-6 -142 34 -117 11 6 29 12 39 12 11 0 23 5 26 10 3 6 15 10 26 10 16 0 19 -7
19 -54 0 -50 -3 -56 -45 -100 -25 -25 -51 -46 -59 -46 -36 0 -56 -101 -78
-405 -11 -150 -8 -215 10 -215 18 0 40 124 47 263 5 94 30 270 42 291 11 20
80 74 104 81 10 4 19 15 19 26 0 10 4 19 9 19 6 0 10 17 10 38 0 20 4 60 9 89
6 35 5 56 -2 63 -16 16 -63 12 -98 -10 -84 -51 -90 -7 -10 69 58 57 82 109 82
180 0 25 -4 29 -33 33 -18 2 -64 -7 -101 -19z"/>
</g>
</svg>
