<svg version="1.0" xmlns="http://www.w3.org/2000/svg"
 width="55.000000pt" height="71.000000pt" viewBox="0 0 55.000000 71.000000"
 preserveAspectRatio="xMidYMid meet">
<metadata>
Created by potrace 1.15, written by Peter Selinger 2001-2017
</metadata>
<g transform="translate(0.000000,71.000000) scale(0.100000,-0.100000)"
fill="#000000" stroke="none">
<path d="M360 573 c-8 -3 -23 -14 -32 -23 -9 -10 -36 -21 -60 -25 -45 -8 -71
-27 -76 -58 -3 -16 1 -18 30 -12 18 4 38 8 43 9 13 1 7 -85 -7 -101 -6 -7 -19
-13 -29 -13 -11 0 -19 -4 -19 -8 0 -4 -13 -16 -30 -25 -16 -10 -30 -22 -30
-27 0 -15 36 -21 64 -10 25 9 27 8 21 -12 -10 -36 -74 -160 -97 -190 -11 -14
-17 -31 -14 -36 11 -18 73 25 81 55 3 15 14 38 24 52 15 23 26 46 74 149 6 12
26 32 44 43 40 25 44 52 7 47 -24 -3 -26 0 -28 40 -2 39 2 49 40 90 50 54 48
75 -6 55z"/>
</g>
</svg>
