<svg version="1.0" xmlns="http://www.w3.org/2000/svg"
 width="47.000000pt" height="59.000000pt" viewBox="0 0 47.000000 59.000000"
 preserveAspectRatio="xMidYMid meet">
<metadata>
Created by potrace 1.15, written by Peter Selinger 2001-2017
</metadata>
<g transform="translate(0.000000,59.000000) scale(0.100000,-0.100000)"
fill="#000000" stroke="none">
<path d="M211 434 c-57 -18 -68 -28 -48 -48 9 -9 20 -16 26 -16 6 0 11 -13 11
-29 0 -25 -5 -30 -44 -41 -46 -13 -65 -35 -46 -54 7 -7 19 -5 39 7 36 21 41
21 41 2 0 -23 -30 -65 -46 -65 -8 0 -14 -3 -15 -7 -1 -15 -7 -38 -14 -54 -11
-29 12 -31 39 -4 14 14 26 30 26 34 0 4 9 18 20 31 11 13 23 41 26 62 4 21 11
38 17 38 5 0 25 11 43 25 18 14 35 25 39 25 8 0 -14 -40 -35 -62 -27 -29 -84
-147 -76 -156 9 -8 51 41 69 81 6 15 15 27 19 27 5 0 8 6 8 14 0 8 14 27 30
43 24 23 30 36 30 71 0 40 -2 43 -22 37 -23 -6 -23 -6 0 11 31 23 28 37 -7 29
-17 -3 -32 -2 -36 4 -8 14 -39 12 -94 -5z m65 -64 c-10 -49 -19 -60 -31 -40
-11 17 6 79 24 83 9 3 16 5 17 6 0 0 -4 -21 -10 -49z"/>
</g>
</svg>
