<svg version="1.0" xmlns="http://www.w3.org/2000/svg"
 width="49.000000pt" height="79.000000pt" viewBox="0 0 49.000000 79.000000"
 preserveAspectRatio="xMidYMid meet">
<metadata>
Created by potrace 1.15, written by Peter Selinger 2001-2017
</metadata>
<g transform="translate(0.000000,79.000000) scale(0.100000,-0.100000)"
fill="#000000" stroke="none">
<path d="M259 586 c-2 -3 -29 -7 -59 -11 -65 -7 -83 -20 -56 -40 13 -10 33
-12 61 -8 38 5 43 3 48 -18 12 -44 8 -87 -9 -93 -9 -3 -42 -6 -74 -6 -39 0
-62 -5 -70 -15 -18 -22 32 -38 98 -32 52 6 52 5 52 -23 0 -16 -7 -55 -16 -87
-31 -114 -34 -134 -25 -150 7 -13 14 -5 33 38 14 30 30 72 36 94 6 22 17 61
24 87 10 38 18 50 42 58 16 5 37 10 47 10 11 0 19 3 19 8 -1 21 -21 34 -53 34
-40 0 -53 18 -37 49 6 11 8 23 5 28 -11 19 8 41 36 41 22 0 29 5 29 20 0 18
-7 20 -63 20 -35 0 -66 -2 -68 -4z"/>
</g>
</svg>
