<svg version="1.0" xmlns="http://www.w3.org/2000/svg"
 width="71.000000pt" height="120.000000pt" viewBox="0 0 71.000000 120.000000"
 preserveAspectRatio="xMidYMid meet">
<metadata>
Created by potrace 1.15, written by Peter Selinger 2001-2017
</metadata>
<g transform="translate(0.000000,120.000000) scale(0.100000,-0.100000)"
fill="#000000" stroke="none">
<path d="M155 1113 c4 -21 8 -39 8 -39 1 -1 26 -16 55 -34 50 -31 54 -35 48
-64 -6 -34 -60 -86 -88 -86 -42 0 -118 -54 -118 -84 0 -27 20 -28 54 -3 47 37
104 67 124 67 26 0 72 55 79 94 6 41 -3 86 -18 86 -5 0 -15 5 -22 11 -7 5 -27
19 -44 29 -20 12 -33 28 -33 40 0 15 -7 20 -26 20 -25 0 -26 -2 -19 -37z"/>
<path d="M377 1004 c-32 -33 74 -57 209 -48 84 6 108 16 101 39 -4 11 -299 20
-310 9z"/>
<path d="M605 927 c-2 -6 -6 -37 -9 -67 -3 -30 -8 -86 -12 -124 -7 -74 5 -129
39 -178 37 -55 69 -22 39 40 -22 43 -46 148 -38 161 13 20 25 112 20 140 -7
31 -32 50 -39 28z"/>
<path d="M376 903 c10 -35 7 -105 -5 -112 -5 -3 -14 -26 -21 -51 -6 -25 -16
-52 -20 -62 -11 -20 8 -138 26 -157 11 -12 15 -11 30 3 14 14 15 22 5 42 -19
42 -14 154 8 191 30 48 42 102 29 127 -27 51 -66 64 -52 19z"/>
<path d="M492 878 c0 -29 -5 -71 -12 -93 -22 -70 -23 -143 -5 -201 17 -55 33
-66 55 -39 10 12 9 22 -3 52 -28 71 -30 115 -8 167 24 54 27 123 7 149 -23 30
-34 19 -34 -35z"/>
<path d="M240 780 c0 -5 -5 -10 -11 -10 -23 0 -88 -64 -110 -108 -13 -26 -26
-49 -29 -52 -3 -3 -12 -25 -20 -49 -8 -24 -22 -54 -32 -66 -20 -26 -23 -48 -8
-76 15 -27 23 -24 38 14 7 17 18 40 23 49 5 10 9 29 9 43 0 14 5 25 10 25 6 0
10 8 10 18 0 18 56 102 68 102 4 0 17 -16 30 -36 22 -34 23 -39 11 -80 -8 -24
-17 -44 -21 -44 -4 0 -8 -6 -8 -14 0 -7 -9 -34 -20 -59 -22 -48 -27 -89 -36
-253 -5 -86 -3 -106 11 -128 14 -21 20 -24 31 -15 11 9 14 49 14 179 0 145 3
173 19 207 81 164 82 167 67 204 -8 19 -24 43 -35 53 -16 15 -18 22 -10 33 6
7 17 13 24 13 19 0 36 25 29 44 -7 17 -54 23 -54 6z"/>
<path d="M519 485 c-3 -2 -53 -6 -112 -8 -58 -2 -109 -6 -113 -10 -4 -3 -4
-13 -1 -22 5 -11 22 -15 67 -15 60 0 60 0 61 -42 4 -151 11 -138 -75 -138 -91
0 -106 -5 -106 -36 0 -24 1 -24 108 -25 59 -1 143 -3 187 -5 98 -4 155 4 155
22 0 18 -8 22 -75 28 -123 13 -115 5 -115 108 0 91 0 91 80 86 45 -3 83 -1 85
3 9 14 -5 34 -32 47 -26 12 -105 17 -114 7z"/>
</g>
</svg>
