<svg version="1.0" xmlns="http://www.w3.org/2000/svg"
 width="77.000000pt" height="93.000000pt" viewBox="0 0 77.000000 93.000000"
 preserveAspectRatio="xMidYMid meet">
<metadata>
Created by potrace 1.15, written by Peter Selinger 2001-2017
</metadata>
<g transform="translate(0.000000,93.000000) scale(0.100000,-0.100000)"
fill="#000000" stroke="none">
<path d="M346 821 c-11 -16 2 -31 27 -31 38 0 101 -27 128 -53 19 -18 28 -41
33 -78 9 -65 -1 -76 -45 -50 -19 12 -41 21 -50 21 -9 0 -30 7 -45 15 -37 19
-64 19 -64 0 0 -8 7 -15 15 -15 8 0 15 -4 15 -10 0 -5 6 -10 13 -10 22 0 131
-47 135 -58 6 -18 -82 -102 -107 -102 -12 0 -30 -4 -39 -9 -10 -5 -41 -11 -69
-13 -57 -4 -75 -14 -53 -28 46 -29 195 7 255 61 20 19 40 33 43 32 8 -3 18
-67 27 -168 7 -69 14 -101 40 -160 15 -33 99 -125 115 -125 12 0 14 27 3 32
-14 6 -52 91 -68 153 -9 33 -25 105 -35 161 -10 55 -25 116 -33 136 -9 22 -12
41 -6 49 13 21 11 83 -6 120 -35 82 -68 110 -141 122 -21 4 -49 10 -60 13 -12
3 -25 1 -28 -5z"/>
<path d="M372 340 c-6 -11 -24 -22 -39 -26 -16 -3 -37 -9 -48 -14 -11 -4 -40
-13 -65 -20 -25 -7 -55 -16 -68 -21 -13 -5 -32 -9 -42 -9 -11 0 -20 -5 -20
-11 0 -8 19 -10 60 -6 60 5 60 5 60 -47 0 -56 -12 -76 -46 -76 -29 0 -86 -24
-77 -33 10 -11 73 -8 123 6 88 23 169 79 199 135 16 31 23 113 10 128 -16 19
-32 17 -47 -6z m12 -66 c3 -9 6 -19 6 -22 0 -13 -47 -62 -54 -55 -8 8 -8 78 1
86 12 13 41 7 47 -9z m-96 -66 c-2 -41 -7 -54 -20 -56 -15 -3 -18 4 -18 33 0
39 15 75 31 75 6 0 9 -22 7 -52z"/>
</g>
</svg>
