<svg version="1.0" xmlns="http://www.w3.org/2000/svg"
 width="72.000000pt" height="117.000000pt" viewBox="0 0 72.000000 117.000000"
 preserveAspectRatio="xMidYMid meet">
<metadata>
Created by potrace 1.15, written by Peter Selinger 2001-2017
</metadata>
<g transform="translate(0.000000,117.000000) scale(0.100000,-0.100000)"
fill="#000000" stroke="none">
<path d="M120 903 c0 -161 -5 -194 -25 -187 -18 7 -28 71 -27 177 0 83 -9 112
-22 65 -3 -13 -6 -73 -6 -134 0 -107 1 -112 26 -138 15 -14 31 -26 35 -26 20
0 7 -51 -20 -78 -21 -21 -31 -42 -36 -78 -4 -27 -11 -62 -16 -78 -15 -46 -12
-329 4 -324 8 3 13 34 14 99 1 52 7 128 13 169 6 41 13 92 17 113 3 20 10 40
15 43 7 4 9 -27 8 -87 -5 -186 0 -399 9 -399 19 0 29 141 31 423 0 48 4 87 8
87 17 0 33 -139 33 -293 0 -127 3 -157 14 -157 8 0 17 15 21 35 3 19 12 35 20
35 7 0 30 20 50 45 21 24 43 46 50 49 6 2 25 -15 40 -40 16 -25 36 -44 46 -44
26 0 23 14 -17 71 -19 28 -37 67 -41 87 -4 19 -4 179 0 353 5 232 3 319 -5
325 -6 3 -15 0 -20 -7 -4 -8 -8 -147 -9 -311 0 -163 -3 -312 -6 -330 -8 -43
-30 -92 -49 -108 -8 -7 -15 -19 -15 -26 0 -13 -4 -16 -31 -18 -8 -1 -12 20
-11 59 0 100 -16 273 -29 297 -7 13 -20 29 -31 36 -28 21 -23 49 12 55 44 9
59 49 67 176 3 60 3 117 -1 127 -11 28 -25 4 -26 -46 -3 -92 -21 -178 -41
-196 -20 -18 -20 -18 -18 66 4 182 0 260 -16 260 -13 0 -15 -24 -15 -147z"/>
<path d="M475 1012 c-12 -12 -3 -21 29 -32 21 -7 36 -19 40 -33 8 -29 7 -172
0 -220 -11 -62 -29 -37 -30 39 0 38 -3 76 -7 84 -3 8 -7 29 -9 45 -2 17 -7 29
-13 27 -11 -3 -12 -191 -2 -233 4 -15 18 -29 36 -36 28 -10 30 -14 26 -54 -2
-24 -8 -45 -14 -47 -5 -2 -18 -11 -30 -21 -17 -15 -22 -37 -31 -132 -5 -63
-10 -154 -10 -202 0 -49 -5 -97 -10 -108 -14 -25 -3 -44 15 -29 20 16 26 62
32 225 2 83 9 154 14 159 5 6 9 20 9 32 0 13 5 26 10 29 7 4 10 -58 10 -179 0
-142 3 -186 13 -186 9 0 9 -2 -1 -9 -10 -6 -12 -23 -9 -55 6 -52 10 -61 26
-51 7 4 11 90 11 252 0 135 2 248 5 251 9 10 40 -41 47 -78 4 -19 7 -85 7
-147 1 -156 23 -255 51 -227 7 7 5 37 -5 93 -9 46 -17 131 -19 189 -1 59 -5
118 -9 132 -6 24 -52 70 -69 70 -4 0 -8 20 -8 44 0 41 2 44 30 50 44 8 62 57
63 170 1 96 -7 146 -23 146 -6 0 -10 -45 -10 -110 0 -116 -15 -170 -46 -170
-13 0 -15 17 -11 123 6 150 -4 180 -63 195 -22 5 -42 7 -45 4z"/>
<path d="M272 781 c-9 -6 -13 -52 -13 -171 1 -152 3 -181 16 -168 18 18 34
331 17 342 -4 2 -14 1 -20 -3z"/>
<path d="M406 763 c-9 -24 -5 -322 4 -328 15 -9 20 41 20 187 0 136 -8 183
-24 141z"/>
</g>
</svg>
