<svg version="1.0" xmlns="http://www.w3.org/2000/svg"
 width="70.000000pt" height="87.000000pt" viewBox="0 0 70.000000 87.000000"
 preserveAspectRatio="xMidYMid meet">
<metadata>
Created by potrace 1.15, written by Peter Selinger 2001-2017
</metadata>
<g transform="translate(0.000000,87.000000) scale(0.100000,-0.100000)"
fill="#000000" stroke="none">
<path d="M336 711 c-8 -12 11 -50 48 -100 30 -41 33 -79 9 -112 -23 -31 -41
-60 -50 -78 -4 -8 3 -42 15 -76 39 -108 39 -253 0 -229 -30 19 -48 93 -52 225
-5 144 -17 193 -48 210 -27 15 -34 4 -18 -28 8 -17 16 -85 20 -174 5 -122 10
-152 29 -192 13 -26 26 -47 29 -47 4 0 15 -7 26 -15 17 -13 17 -15 2 -37 -20
-28 -20 -38 -2 -38 21 0 72 63 86 106 16 47 7 150 -19 224 -19 54 -19 54 9 87
32 36 46 87 36 136 -8 37 -110 155 -120 138z"/>
<path d="M567 679 c-59 -44 -70 -115 -31 -191 20 -38 13 -106 -15 -151 -28
-45 -28 -122 -1 -180 24 -50 94 -127 115 -127 22 0 18 23 -7 50 -27 29 -51 72
-67 122 -15 44 -2 101 35 160 23 35 24 43 13 76 -6 20 -22 57 -35 81 -32 59
-30 81 11 120 55 52 41 84 -18 40z"/>
<path d="M119 573 c-53 -78 -53 -78 -55 -233 -1 -134 -4 -161 -22 -201 -11
-26 -25 -50 -31 -53 -15 -10 -14 -36 2 -36 7 0 28 15 46 34 42 43 50 83 51
249 0 138 3 150 57 210 26 29 33 46 31 69 -2 17 -8 33 -14 35 -7 2 -36 -31
-65 -74z"/>
<path d="M176 458 c14 -55 8 -84 -25 -134 -22 -34 -31 -59 -31 -89 0 -80 63
-122 111 -74 17 17 20 28 14 57 -8 46 -12 52 -31 52 -12 0 -13 -8 -8 -35 5
-28 3 -36 -11 -41 -21 -8 -35 11 -35 48 0 18 13 42 36 68 40 44 41 67 8 145
-18 45 -39 47 -28 3z"/>
</g>
</svg>
