<svg version="1.0" xmlns="http://www.w3.org/2000/svg"
 width="70.000000pt" height="87.000000pt" viewBox="0 0 70.000000 87.000000"
 preserveAspectRatio="xMidYMid meet">
<metadata>
Created by potrace 1.15, written by Peter Selinger 2001-2017
</metadata>
<g transform="translate(0.000000,87.000000) scale(0.100000,-0.100000)"
fill="#000000" stroke="none">
<path d="M410 653 c0 -16 5 -55 11 -87 8 -46 7 -67 -5 -110 -20 -69 -20 -109
1 -212 15 -71 16 -91 5 -144 -15 -70 -9 -86 19 -52 41 51 48 129 23 231 -16
61 -16 72 0 151 16 84 16 86 -7 164 -25 83 -47 110 -47 59z"/>
<path d="M516 661 c-4 -5 0 -38 9 -71 15 -58 15 -64 -6 -132 -22 -74 -21 -86
5 -198 15 -64 13 -98 -10 -193 -6 -25 -4 -28 12 -25 13 2 20 13 22 33 2 17 8
35 13 42 26 31 28 76 8 162 -25 103 -25 91 1 168 19 55 20 69 10 115 -11 55
-52 118 -64 99z"/>
<path d="M202 616 c-70 -15 -97 -34 -111 -80 -5 -17 -12 -106 -15 -198 -4
-119 -10 -179 -22 -208 -28 -70 7 -126 40 -63 19 39 37 184 40 341 2 73 8 137
12 141 12 11 119 31 165 31 39 0 58 15 41 32 -16 16 -82 18 -150 4z"/>
<path d="M206 543 c-13 -14 -4 -24 34 -39 22 -9 40 -21 40 -28 0 -20 -30 -56
-60 -71 -40 -21 -60 -63 -60 -130 0 -104 42 -156 97 -120 24 16 25 20 18 73
-9 74 -23 93 -55 72 -12 -7 -12 -12 4 -29 21 -23 18 -76 -4 -76 -12 0 -15 15
-15 73 0 61 3 76 19 88 28 20 43 18 73 -12 26 -26 26 -26 20 -160 -6 -135 -1
-158 28 -134 12 10 15 42 15 148 0 136 0 136 -32 169 -32 33 -32 33 -15 69 20
41 16 66 -16 86 -26 17 -82 30 -91 21z"/>
</g>
</svg>
