<svg version="1.0" xmlns="http://www.w3.org/2000/svg"
 width="45.000000pt" height="93.000000pt" viewBox="0 0 45.000000 93.000000"
 preserveAspectRatio="xMidYMid meet">
<metadata>
Created by potrace 1.15, written by Peter Selinger 2001-2017
</metadata>
<g transform="translate(0.000000,93.000000) scale(0.100000,-0.100000)"
fill="#000000" stroke="none">
<path d="M145 563 c5 -28 1 -49 -14 -78 -22 -41 -29 -135 -11 -135 6 0 10 -9
10 -20 0 -11 5 -20 10 -20 6 0 10 9 10 19 0 48 10 51 51 13 21 -20 39 -41 39
-46 0 -5 -9 1 -20 14 -25 29 -39 19 -57 -43 -17 -56 -16 -92 2 -127 18 -34 45
-40 45 -10 0 23 12 25 40 8 30 -19 54 1 58 48 3 36 -12 106 -29 129 -4 6 9 28
28 50 35 40 35 40 28 -12 -7 -57 3 -69 23 -26 16 36 15 85 -3 119 -12 22 -14
45 -9 92 4 39 3 62 -4 62 -11 0 -20 -39 -30 -130 -8 -71 -16 -90 -37 -90 -24
0 -27 20 -6 46 30 38 28 104 -2 132 -28 27 -37 28 -37 4 0 -20 -22 -72 -30
-72 -3 0 -12 23 -20 52 -18 63 -43 79 -35 21z m89 -131 c-17 -37 -17 -37 -27
-9 -7 23 -5 32 15 52 30 32 37 9 12 -43z m-67 -34 c-3 -8 -6 -5 -6 6 -1 11 2
17 5 13 3 -3 4 -12 1 -19z m43 -148 c0 -16 -4 -32 -10 -35 -6 -4 -10 10 -10
35 0 25 4 39 10 35 6 -3 10 -19 10 -35z m62 -29 c-5 -26 -5 -26 -15 2 -5 15
-6 35 -2 45 7 15 8 15 14 -2 4 -11 5 -31 3 -45z"/>
</g>
</svg>
