<svg version="1.0" xmlns="http://www.w3.org/2000/svg"
 width="45.000000pt" height="95.000000pt" viewBox="0 0 45.000000 95.000000"
 preserveAspectRatio="xMidYMid meet">
<metadata>
Created by potrace 1.15, written by Peter Selinger 2001-2017
</metadata>
<g transform="translate(0.000000,95.000000) scale(0.100000,-0.100000)"
fill="#000000" stroke="none">
<path d="M341 793 c-14 -48 -14 -70 -1 -78 15 -9 12 -31 -10 -77 -24 -50 -24
-48 -4 -48 9 0 18 9 21 20 10 38 26 21 19 -20 -8 -51 8 -53 29 -4 20 49 19 70
-6 106 -16 22 -21 43 -20 84 1 62 -13 71 -28 17z"/>
<path d="M110 804 c0 -3 5 -14 10 -24 10 -19 -5 -70 -20 -70 -4 0 -13 -14 -20
-30 -11 -26 -10 -37 9 -81 11 -29 21 -62 21 -75 0 -13 5 -24 10 -24 6 0 10 25
10 55 0 59 3 63 27 40 24 -24 25 -14 4 45 -14 39 -16 61 -10 78 14 37 1 92
-22 92 -11 0 -19 -3 -19 -6z"/>
<path d="M190 756 c0 -8 5 -18 10 -21 13 -8 13 -71 0 -96 -6 -11 -8 -24 -5
-29 8 -13 35 -1 35 15 0 8 5 17 11 20 15 10 0 -186 -16 -204 -11 -11 -14 -10
-20 8 -4 12 -15 21 -27 21 -19 0 -20 -4 -13 -47 9 -66 31 -87 83 -78 29 4 42
13 51 31 20 45 11 85 -15 63 -20 -16 -36 -2 -24 21 5 10 10 34 10 52 0 18 5
51 11 72 13 47 -1 102 -38 154 -25 33 -53 43 -53 18z m90 -350 c0 -18 -15 -36
-30 -36 -24 0 -46 26 -28 33 16 7 58 9 58 3z"/>
<path d="M117 291 c-10 -32 -24 -62 -32 -65 -8 -3 -15 -16 -15 -29 0 -31 20
-90 34 -99 18 -12 234 -9 242 3 10 17 6 93 -5 97 -6 2 -11 27 -11 55 0 64 -9
97 -24 97 -14 0 -52 -79 -61 -128 -7 -37 -37 -59 -53 -39 -9 11 -19 59 -26
132 -5 53 -30 41 -49 -24z m181 -77 c-5 -42 -28 -43 -28 -1 0 18 3 37 7 41 12
12 25 -11 21 -40z m-152 -31 c-11 -11 -19 6 -11 24 8 17 8 17 12 0 3 -10 2
-21 -1 -24z m21 -44 c8 -8 17 -8 31 0 19 10 112 16 112 7 0 -2 3 -11 6 -19 5
-13 -8 -15 -93 -12 -79 3 -99 7 -101 19 -4 19 28 22 45 5z"/>
</g>
</svg>
