<svg version="1.0" xmlns="http://www.w3.org/2000/svg"
 width="123.000000pt" height="175.000000pt" viewBox="0 0 123.000000 175.000000"
 preserveAspectRatio="xMidYMid meet">
<metadata>
Created by potrace 1.15, written by Peter Selinger 2001-2017
</metadata>
<g transform="translate(0.000000,175.000000) scale(0.100000,-0.100000)"
fill="#000000" stroke="none">
<path d="M990 1610 c0 -80 0 -80 -50 -80 -27 0 -50 -4 -50 -10 0 -5 -7 -10
-16 -10 -8 0 -12 -4 -9 -10 3 -5 24 -10 45 -10 22 0 51 -5 65 -12 23 -10 25
-17 25 -71 0 -60 0 -60 -65 -123 -86 -84 -89 -104 -9 -59 25 14 49 25 54 25
17 0 11 -64 -10 -108 -11 -22 -20 -47 -20 -55 0 -7 -5 -18 -12 -25 -9 -9 -7
-12 8 -12 22 0 84 69 84 92 0 8 5 19 10 24 11 11 13 204 5 392 -4 102 -13 132
-41 132 -11 0 -14 -19 -14 -80z"/>
<path d="M225 1658 c-3 -13 -9 -100 -12 -194 -5 -159 -4 -174 17 -235 39 -110
104 -179 170 -179 37 0 38 12 3 30 -37 19 -113 97 -113 116 0 13 11 15 75 9
75 -7 125 -2 125 14 0 16 -65 39 -132 46 -38 4 -73 13 -79 21 -7 8 -12 47 -13
87 -1 84 -14 79 144 52 52 -9 101 -17 108 -18 10 0 12 -10 7 -33 -5 -31 11
-108 36 -175 11 -27 37 -54 77 -76 32 -19 118 -17 126 3 9 24 9 24 -31 24 -58
0 -119 37 -133 81 -16 47 -8 59 40 59 41 0 90 17 90 32 0 9 -7 10 -76 8 -33
-1 -55 3 -60 11 -4 7 -7 56 -6 109 2 101 -13 165 -38 165 -12 0 -16 -16 -18
-74 -3 -74 -3 -74 -65 -67 -191 21 -201 26 -194 101 7 73 -30 139 -48 83z"/>
<path d="M1053 962 c-11 -9 -25 -27 -31 -39 -14 -25 -16 -113 -3 -113 8 0 12
-14 24 -100 9 -59 20 -194 19 -215 -1 -11 2 -27 8 -35 9 -13 11 -13 21 0 7 10
8 62 4 150 -6 136 -6 136 51 135 32 0 59 5 61 10 1 6 -25 21 -59 34 -80 30
-92 44 -73 82 16 31 20 95 6 103 -4 3 -17 -2 -28 -12z"/>
<path d="M749 955 c-4 -3 -73 -7 -155 -8 -131 -3 -149 -5 -152 -20 -2 -9 3
-17 10 -17 7 0 20 -9 28 -20 8 -11 22 -20 31 -20 10 0 19 -11 23 -31 9 -47 9
-48 -27 -83 -18 -17 -39 -46 -46 -64 -20 -49 -18 -207 4 -260 29 -71 104 -106
222 -104 63 1 78 5 116 31 26 18 49 43 56 63 7 18 17 41 22 50 13 25 10 125
-4 178 -14 49 -44 111 -59 121 -5 3 -8 30 -6 60 3 49 5 54 28 58 34 4 47 24
32 49 -9 13 -113 28 -123 17z m1 -112 c0 -46 -1 -48 -27 -48 -16 -1 -47 -4
-70 -9 -43 -8 -43 -8 -43 32 0 54 20 68 103 71 37 1 37 1 37 -46z m-48 -92
c29 -1 46 -10 79 -40 22 -22 38 -45 34 -50 -8 -13 -273 -15 -293 -2 -46 29 59
107 128 95 8 -1 32 -3 52 -3z m116 -146 c6 -3 12 -20 12 -39 0 -26 -5 -35 -22
-40 -35 -9 -291 -7 -306 3 -20 12 -11 64 14 76 20 10 271 10 302 0z m-2 -127
c11 -12 -12 -55 -38 -72 -13 -8 -57 -17 -98 -20 -89 -6 -154 16 -170 59 -6 15
-10 28 -10 30 0 11 305 14 316 3z"/>
<path d="M150 906 c0 -13 9 -35 21 -50 26 -33 20 -49 -36 -108 -25 -27 -45
-50 -45 -53 0 -15 63 6 80 26 6 7 47 29 54 29 11 0 5 -45 -14 -115 -11 -38
-20 -80 -20 -91 0 -12 -11 -47 -25 -78 -20 -45 -23 -61 -14 -77 14 -27 33 -19
37 14 2 15 8 27 13 27 5 0 9 9 9 20 0 10 5 32 11 47 6 15 15 37 19 48 15 39
30 131 32 195 1 59 -2 70 -33 117 -28 43 -63 73 -84 73 -3 0 -5 -11 -5 -24z"/>
<path d="M396 258 c-18 -14 -18 -16 0 -67 19 -54 79 -127 124 -151 17 -10 65
-14 155 -14 119 -1 133 1 161 21 17 12 37 37 43 55 7 18 21 53 32 77 29 65 17
73 -113 76 -56 2 -166 6 -243 10 -113 6 -144 4 -159 -7z m242 -76 c8 -17 9
-28 2 -30 -5 -2 -10 -13 -10 -25 -1 -28 -23 -57 -44 -57 -26 0 -90 46 -109 79
-29 49 -16 61 72 61 73 0 76 -1 89 -28z m207 8 c3 -9 -2 -31 -11 -49 -16 -32
-63 -61 -125 -76 -25 -6 -27 -4 -31 35 -4 42 9 72 41 98 23 19 119 13 126 -8z"/>
</g>
</svg>
