<svg version="1.0" xmlns="http://www.w3.org/2000/svg"
 width="61.000000pt" height="129.000000pt" viewBox="0 0 61.000000 129.000000"
 preserveAspectRatio="xMidYMid meet">
<metadata>
Created by potrace 1.15, written by Peter Selinger 2001-2017
</metadata>
<g transform="translate(0.000000,129.000000) scale(0.100000,-0.100000)"
fill="#000000" stroke="none">
<path d="M128 1128 c-3 -81 -4 -83 -29 -86 -30 -4 -50 29 -42 71 3 15 2 35 -2
44 -6 17 -7 17 -21 -1 -10 -14 -12 -34 -7 -75 7 -62 22 -80 67 -81 29 0 29 0
23 -53 -6 -61 4 -90 25 -69 7 7 12 35 11 67 -1 55 -1 55 38 61 50 8 56 17 64
89 10 100 -27 119 -39 21 -7 -53 -26 -84 -44 -72 -6 3 -8 38 -6 78 4 68 -2 87
-28 88 -4 0 -8 -37 -10 -82z"/>
<path d="M449 1188 c-2 -13 -5 -65 -8 -121 -1 -25 -5 -28 -28 -25 -26 3 -28 6
-31 60 -3 58 -20 80 -41 54 -8 -9 -8 -29 -1 -67 11 -55 37 -88 71 -89 20 0 29
-20 29 -66 0 -24 5 -34 15 -34 8 0 16 6 16 13 1 6 3 19 4 27 1 8 3 25 4 38 1
16 7 22 26 22 14 0 25 5 25 10 0 6 7 10 15 10 18 0 45 62 45 104 0 20 -7 36
-20 44 -19 12 -20 10 -20 -35 0 -56 -27 -100 -54 -90 -14 6 -17 19 -15 70 1
35 -1 69 -5 75 -10 16 -26 15 -27 0z"/>
<path d="M255 980 c-9 -29 4 -97 22 -116 12 -12 33 -14 95 -11 91 4 118 -6 99
-41 -15 -28 -53 -37 -107 -25 -24 6 -80 11 -125 12 -63 2 -80 -1 -77 -11 3 -9
33 -15 88 -20 46 -4 105 -12 131 -19 66 -17 121 -1 141 42 34 69 -4 101 -111
92 -37 -4 -72 -1 -90 7 -26 10 -30 18 -33 58 -3 48 -22 67 -33 32z"/>
<path d="M92 750 c-27 -44 -28 -129 -2 -158 22 -24 29 -26 140 -41 179 -25
259 -22 240 9 -7 11 -41 16 -142 21 -141 7 -185 14 -205 35 -15 14 -18 95 -4
110 5 5 12 19 16 32 10 34 -21 28 -43 -8z"/>
<path d="M170 692 c0 -18 35 -24 175 -28 147 -5 177 -12 192 -48 17 -36 15
-177 -2 -221 -9 -22 -18 -47 -21 -56 -8 -25 -131 -79 -179 -79 -10 0 -28 -12
-41 -27 -44 -51 -60 -204 -22 -211 14 -3 18 10 24 77 9 107 30 131 133 151 72
14 117 46 141 103 18 41 21 66 19 150 -3 118 -10 145 -47 172 -24 18 -46 20
-199 23 -106 2 -173 0 -173 -6z"/>
<path d="M75 509 c-4 -6 -7 -46 -6 -88 2 -109 16 -121 142 -126 139 -5 157 0
169 44 15 55 13 158 -4 164 -18 7 -26 -1 -26 -25 0 -20 -25 -23 -160 -19 -82
3 -91 6 -84 25 7 18 -22 41 -31 25z m233 -88 c37 -1 42 -4 42 -23 0 -13 -7
-32 -16 -43 -13 -17 -26 -20 -103 -19 -97 0 -121 12 -121 58 0 33 -1 32 198
27z"/>
</g>
</svg>
