<svg version="1.0" xmlns="http://www.w3.org/2000/svg"
 width="68.000000pt" height="75.000000pt" viewBox="0 0 68.000000 75.000000"
 preserveAspectRatio="xMidYMid meet">
<metadata>
Created by potrace 1.15, written by Peter Selinger 2001-2017
</metadata>
<g transform="translate(0.000000,75.000000) scale(0.100000,-0.100000)"
fill="#000000" stroke="none">
<path d="M192 636 c-91 -19 -89 -14 -85 -313 5 -245 6 -259 25 -276 16 -13 24
-15 34 -6 12 9 13 50 7 225 -5 169 -4 214 6 214 7 0 26 9 42 21 24 17 33 19
45 9 13 -11 12 -15 -6 -27 -24 -17 -27 -65 -4 -87 8 -9 31 -16 51 -16 47 0 39
-22 -12 -32 -48 -10 -65 -24 -65 -54 0 -34 26 -54 71 -54 28 0 39 -4 39 -15 0
-8 -7 -15 -15 -15 -9 0 -29 -7 -44 -15 -35 -18 -52 -89 -27 -114 20 -19 25
-13 34 40 5 31 13 45 26 47 24 5 36 -14 36 -60 0 -34 14 -57 27 -44 3 3 8 29
11 57 5 54 18 67 51 49 15 -8 21 -20 21 -46 0 -28 4 -35 18 -32 12 2 18 15 20
45 4 55 -22 83 -78 83 -48 0 -53 15 -7 23 66 11 87 24 87 56 0 42 -23 61 -76
61 -32 0 -44 4 -44 15 0 10 10 15 33 15 51 0 79 25 75 68 -3 36 -4 37 -53 42
-46 5 -50 7 -55 35 -7 41 -34 40 -38 -2 -4 -39 -20 -42 -44 -9 -17 23 -16 25
10 60 21 27 34 35 60 36 21 0 32 -5 32 -15 0 -7 8 -18 17 -24 17 -9 16 -11 -1
-30 -25 -28 -14 -37 25 -21 27 12 36 11 65 -5 42 -22 55 -13 25 19 -19 20 -20
24 -6 36 26 21 32 -21 39 -267 3 -127 9 -239 12 -247 8 -21 30 -20 39 2 3 9 1
136 -6 281 -11 232 -15 267 -31 283 -16 16 -36 18 -175 17 -87 -1 -182 -6
-211 -13z m305 -28 c-5 -15 -46 -13 -61 2 -7 7 3 10 28 10 26 0 36 -4 33 -12z
m-224 -20 c-20 -20 -25 -20 -48 -8 -31 17 -16 30 35 30 34 0 34 0 13 -22z
m-78 -53 c0 -28 -29 -25 -33 3 -3 19 0 23 15 20 10 -2 18 -12 18 -23z m255
-80 c15 -18 -11 -26 -101 -28 -51 -2 -64 1 -64 13 0 28 143 41 165 15z m6
-138 c4 -3 4 -13 0 -22 -8 -22 -171 -18 -171 5 0 8 11 17 25 22 29 8 136 5
146 -5z"/>
</g>
</svg>
