<svg version="1.0" xmlns="http://www.w3.org/2000/svg"
 width="63.000000pt" height="85.000000pt" viewBox="0 0 63.000000 85.000000"
 preserveAspectRatio="xMidYMid meet">
<metadata>
Created by potrace 1.15, written by Peter Selinger 2001-2017
</metadata>
<g transform="translate(0.000000,85.000000) scale(0.100000,-0.100000)"
fill="#000000" stroke="none">
<path d="M211 781 c-10 -7 -12 -21 -7 -55 7 -44 5 -49 -24 -76 -18 -16 -51
-34 -73 -40 -71 -18 -96 -42 -49 -48 41 -6 129 27 168 63 35 33 36 37 32 86
-6 55 -24 84 -47 70z"/>
<path d="M468 743 c-9 -10 -33 -67 -53 -128 -42 -127 -57 -279 -33 -325 24
-44 131 -38 180 10 53 53 33 150 -34 164 -13 3 -40 8 -60 11 -64 10 -39 55 31
55 40 0 72 16 95 47 18 24 18 27 2 59 -9 20 -30 41 -50 51 -24 11 -36 24 -38
41 -4 32 -20 38 -40 15z m57 -99 c14 -15 25 -31 25 -37 0 -18 -34 -36 -68 -37
-30 0 -32 2 -26 28 20 80 31 87 69 46z m3 -226 c16 -16 15 -60 -1 -81 -17 -24
-86 -35 -98 -16 -10 16 -12 93 -2 102 11 12 88 8 101 -5z"/>
<path d="M94 520 c-60 -9 -74 -16 -74 -35 0 -11 19 -13 104 -8 111 6 125 1
100 -36 -19 -27 -53 -41 -119 -50 -65 -8 -70 -35 -7 -39 42 -3 42 -3 42 -68 0
-57 -2 -64 -20 -64 -23 0 -40 28 -40 65 0 20 -4 26 -17 23 -14 -2 -19 -15 -21
-54 -4 -78 15 -90 165 -97 152 -7 222 -31 260 -88 30 -46 56 -48 61 -5 3 20
-4 36 -24 57 -42 44 -102 67 -209 79 -54 6 -101 12 -103 15 -13 12 12 35 47
45 61 16 100 77 69 108 -19 19 -38 14 -38 -11 0 -34 -28 -67 -56 -67 -21 0
-24 4 -24 39 0 33 4 40 29 51 38 15 57 38 65 76 6 27 3 35 -20 53 -29 22 -72
25 -170 11z"/>
</g>
</svg>
