<svg version="1.0" xmlns="http://www.w3.org/2000/svg"
 width="59.000000pt" height="81.000000pt" viewBox="0 0 59.000000 81.000000"
 preserveAspectRatio="xMidYMid meet">
<metadata>
Created by potrace 1.15, written by Peter Selinger 2001-2017
</metadata>
<g transform="translate(0.000000,81.000000) scale(0.100000,-0.100000)"
fill="#000000" stroke="none">
<path d="M45 657 c-32 -24 -8 -37 71 -37 66 0 75 -2 72 -17 -3 -15 -17 -19
-76 -23 -48 -3 -76 -10 -82 -20 -16 -26 1 -31 81 -24 73 6 79 5 79 -12 0 -12
-19 -30 -52 -49 -76 -44 -90 -69 -99 -172 -13 -151 -11 -273 5 -273 33 0 45
52 64 264 8 90 12 102 36 123 15 13 37 23 49 23 20 0 97 -44 97 -56 0 -2 -7
-21 -16 -42 -22 -52 -28 -160 -12 -192 24 -45 195 -92 266 -74 39 11 18 28
-49 40 -151 27 -167 33 -179 68 -12 39 3 133 25 155 12 13 21 13 48 3 51 -18
77 -16 77 8 0 11 -4 20 -8 20 -5 0 -16 6 -26 13 -17 13 -15 17 33 65 32 32 51
60 51 74 -1 53 -35 68 -154 68 -96 0 -96 0 -102 28 -3 15 -7 33 -10 40 -5 17
-164 17 -189 -1z m365 -113 c42 -9 48 -29 19 -60 -51 -55 -76 -67 -113 -54
-37 12 -86 46 -86 59 0 5 11 20 25 35 20 21 33 26 73 26 27 0 64 -3 82 -6z"/>
</g>
</svg>
