<svg version="1.0" xmlns="http://www.w3.org/2000/svg"
 width="89.000000pt" height="163.000000pt" viewBox="0 0 89.000000 163.000000"
 preserveAspectRatio="xMidYMid meet">
<metadata>
Created by potrace 1.15, written by Peter Selinger 2001-2017
</metadata>
<g transform="translate(0.000000,163.000000) scale(0.100000,-0.100000)"
fill="#000000" stroke="none">
<path d="M390 1530 c-36 -4 -80 -12 -98 -18 -18 -6 -39 -9 -46 -6 -20 8 -52
-36 -84 -117 -12 -29 3 -103 32 -159 20 -39 76 -80 110 -80 12 0 26 -4 32 -9
5 -5 20 -11 34 -13 22 -3 26 -9 30 -48 6 -57 1 -110 -12 -110 -5 0 -28 9 -50
20 -23 11 -45 20 -49 20 -5 0 -27 13 -51 29 -55 37 -88 47 -88 28 0 -15 35
-64 60 -84 22 -18 152 -87 175 -93 22 -6 28 -43 41 -236 9 -145 -7 -229 -52
-271 -19 -18 -39 -33 -44 -33 -6 0 -10 -4 -10 -8 0 -5 -19 -19 -42 -32 -47
-27 -88 -60 -88 -72 0 -4 11 -8 25 -8 26 0 52 12 94 43 13 9 30 17 38 17 24 0
83 51 102 89 26 51 33 112 36 316 2 179 2 179 49 199 26 10 49 17 51 14 2 -2
-5 -31 -17 -63 -18 -52 -20 -65 -9 -104 11 -40 46 -102 62 -109 3 -1 14 -9 24
-16 17 -12 17 -15 -8 -48 -15 -19 -27 -40 -27 -46 0 -6 -5 -12 -11 -14 -6 -2
-12 -31 -13 -68 -1 -54 3 -71 24 -100 13 -19 29 -38 35 -43 13 -9 -24 -39 -84
-68 -59 -27 -77 -47 -62 -62 9 -9 28 -3 83 25 71 38 71 38 65 -29 -5 -73 4
-113 27 -113 15 0 28 55 30 131 0 22 3 39 6 39 7 0 49 -50 78 -92 27 -41 29
-43 52 -28 13 8 12 15 -8 54 -13 24 -31 53 -40 63 -10 11 -23 29 -29 41 -15
25 -17 72 -5 72 13 0 40 68 47 115 5 32 0 51 -25 99 -30 60 -39 106 -20 106 6
0 10 28 10 65 0 72 -20 125 -71 183 -41 46 -41 44 31 100 21 17 23 22 10 37
-18 21 -51 15 -136 -26 -36 -17 -80 -33 -99 -36 -34 -6 -34 -6 -33 51 1 31 5
56 10 56 4 0 8 9 8 20 0 15 7 20 26 20 65 0 176 80 201 145 28 72 12 176 -34
217 -47 43 -168 63 -293 48z m150 -54 c25 -8 55 -17 66 -21 55 -18 70 -150 22
-198 -70 -70 -216 -90 -322 -43 -61 27 -76 48 -81 113 -6 71 23 113 91 132
116 32 162 35 224 17z m162 -708 c15 -70 1 -115 -31 -99 -10 6 -28 27 -40 46
-19 32 -20 40 -9 83 7 26 17 50 23 54 18 13 45 -27 57 -84z m16 -230 c26 -26
9 -167 -22 -190 -12 -8 -38 2 -53 21 -21 28 1 123 39 165 16 19 21 19 36 4z"/>
</g>
</svg>
