<svg version="1.0" xmlns="http://www.w3.org/2000/svg"
 width="97.000000pt" height="121.000000pt" viewBox="0 0 97.000000 121.000000"
 preserveAspectRatio="xMidYMid meet">
<metadata>
Created by potrace 1.15, written by Peter Selinger 2001-2017
</metadata>
<g transform="translate(0.000000,121.000000) scale(0.100000,-0.100000)"
fill="#000000" stroke="none">
<path d="M634 1068 c-20 -24 -44 -63 -54 -87 -16 -42 -22 -47 -81 -68 -75 -27
-89 -28 -89 -8 0 22 -30 65 -45 65 -20 0 -35 -25 -39 -66 -3 -22 -14 -99 -25
-172 -11 -73 -18 -139 -15 -147 9 -24 50 -18 68 10 9 13 16 38 16 55 0 49 23
63 123 77 37 5 37 5 37 -50 0 -52 -2 -55 -39 -80 -60 -40 -102 -89 -89 -104 7
-9 16 -10 28 -3 9 5 30 11 45 14 16 3 33 10 39 16 18 18 47 11 73 -20 13 -16
31 -30 39 -30 16 0 16 0 5 58 -8 39 -6 44 13 52 11 5 36 14 54 22 35 14 40 31
17 54 -12 12 -28 14 -70 9 -55 -7 -55 -7 -55 32 0 22 2 42 5 45 5 5 100 -14
128 -26 22 -10 47 -1 47 18 0 14 -45 39 -93 51 -15 4 -30 11 -33 16 -3 5 -16
9 -30 9 -27 0 -28 5 -14 47 9 24 20 32 61 43 28 8 52 18 55 22 3 4 15 8 28 8
27 0 46 18 46 42 0 14 -8 18 -39 18 -22 0 -52 -5 -67 -10 -15 -6 -29 -9 -31
-6 -4 4 17 46 28 56 27 23 30 80 4 80 -8 0 -30 -19 -51 -42z m-93 -235 c-6
-21 -18 -31 -57 -45 -61 -22 -94 -23 -94 -2 0 8 6 21 13 27 14 14 129 55 139
50 3 -2 3 -15 -1 -30z"/>
<path d="M845 593 c-22 -19 -60 -52 -85 -72 -25 -20 -51 -41 -58 -48 -6 -6
-22 -15 -35 -18 -12 -3 -31 -10 -42 -15 -40 -18 -134 -40 -167 -40 -19 0 -57
6 -84 14 -27 8 -61 17 -75 20 -35 8 -69 39 -69 63 0 24 -25 77 -44 92 -20 17
-27 2 -34 -72 -5 -55 -9 -66 -42 -97 -33 -32 -60 -70 -60 -84 0 -18 56 -2 83
24 25 23 41 30 72 30 22 -1 48 -7 57 -14 22 -17 52 -130 43 -165 -8 -31 -13
-68 -14 -98 -1 -17 -7 -23 -23 -23 -39 0 -89 -23 -86 -40 3 -12 18 -14 88 -11
47 2 153 7 237 10 99 4 156 10 164 18 10 10 8 14 -7 18 -10 4 -27 11 -36 16
-10 5 -26 9 -37 9 -31 0 -39 21 -40 109 -1 59 3 90 13 106 17 26 55 36 83 23
17 -9 17 -9 0 5 -20 16 -15 22 46 56 55 31 69 27 96 -25 31 -57 82 -114 104
-114 24 0 21 20 -11 71 -38 60 -62 113 -62 136 0 10 27 44 60 76 33 31 60 61
60 67 0 24 -56 8 -95 -27z m-355 -270 c2 -2 5 -33 5 -69 0 -35 3 -64 8 -64 10
0 9 -38 -3 -61 -9 -16 -22 -19 -80 -19 -70 0 -70 0 -70 78 0 115 33 159 110
144 14 -3 27 -7 30 -9z"/>
</g>
</svg>
