<svg version="1.0" xmlns="http://www.w3.org/2000/svg"
 width="74.000000pt" height="92.000000pt" viewBox="0 0 74.000000 92.000000"
 preserveAspectRatio="xMidYMid meet">
<metadata>
Created by potrace 1.15, written by Peter Selinger 2001-2017
</metadata>
<g transform="translate(0.000000,92.000000) scale(0.100000,-0.100000)"
fill="#000000" stroke="none">
<path d="M373 718 c-6 -7 -14 -24 -18 -38 -5 -23 -11 -25 -66 -27 -72 -2 -117
-25 -141 -73 -15 -29 -17 -63 -17 -225 1 -181 0 -193 -24 -252 -25 -62 -23
-88 5 -55 53 63 70 153 66 352 -2 98 1 152 9 166 21 36 84 46 253 40 150 -5
200 -2 200 14 0 15 -35 22 -132 27 -92 6 -98 7 -98 28 0 11 -6 29 -13 39 -11
15 -15 15 -24 4z"/>
<path d="M527 544 c-4 -4 -7 -32 -7 -62 0 -55 0 -55 -25 -32 -14 13 -25 30
-25 39 0 11 -3 12 -11 4 -12 -12 13 -83 30 -83 6 0 13 -11 17 -25 7 -27 24
-34 24 -10 0 8 7 15 15 15 26 0 95 70 95 96 0 13 -4 24 -10 24 -5 0 -10 -4
-10 -9 0 -14 -48 -61 -62 -61 -9 0 -12 13 -9 46 3 44 -8 72 -22 58z"/>
<path d="M310 511 c0 -35 -13 -46 -30 -26 -13 16 -30 20 -30 8 0 -5 10 -23 23
-42 12 -19 27 -44 34 -55 12 -20 12 -20 21 5 6 14 17 31 27 39 22 18 47 68 42
83 -2 7 -15 -6 -28 -28 -24 -40 -24 -40 -33 3 -10 48 -26 56 -26 13z"/>
<path d="M328 304 c-88 -47 -73 -209 23 -264 47 -26 87 -25 141 1 81 40 111
132 72 228 -13 33 -21 39 -52 45 -65 10 -156 6 -184 -10z m194 -34 c10 -12 18
-26 18 -31 0 -5 -52 -9 -115 -9 -63 0 -115 3 -115 8 0 21 34 51 63 55 69 10
130 1 149 -23z m18 -92 c0 -22 -3 -23 -113 -23 -109 0 -126 4 -127 33 0 9 31
12 120 12 118 0 120 0 120 -22z m-10 -58 c0 -17 -38 -49 -65 -56 -56 -14 -135
17 -135 53 0 10 23 13 100 13 60 0 100 -4 100 -10z"/>
</g>
</svg>
