<svg version="1.0" xmlns="http://www.w3.org/2000/svg"
 width="70.000000pt" height="85.000000pt" viewBox="0 0 70.000000 85.000000"
 preserveAspectRatio="xMidYMid meet">
<metadata>
Created by potrace 1.15, written by Peter Selinger 2001-2017
</metadata>
<g transform="translate(0.000000,85.000000) scale(0.100000,-0.100000)"
fill="#000000" stroke="none">
<path d="M314 681 c-17 -4 -36 -11 -42 -15 -17 -10 -15 -186 2 -208 17 -23 33
-23 41 1 4 14 19 22 51 27 55 8 80 37 65 76 -11 30 -29 38 -82 38 -32 0 -39 4
-39 19 0 16 10 21 52 28 38 6 54 13 56 26 3 14 -4 17 -35 16 -21 -1 -52 -4
-69 -8z m63 -127 c7 -19 -4 -29 -39 -38 -25 -6 -28 -3 -28 17 0 13 3 27 7 30
12 13 54 7 60 -9z"/>
<path d="M90 667 c-19 -7 -35 -19 -35 -27 0 -12 14 -15 70 -15 56 0 70 -3 70
-15 0 -11 -15 -17 -51 -21 -67 -8 -74 -13 -74 -54 0 -44 29 -65 91 -65 28 0
49 -5 51 -12 3 -7 12 -9 22 -5 16 6 18 18 14 96 -4 108 -18 131 -82 130 -23 0
-57 -5 -76 -12z m108 -129 c-4 -28 -45 -38 -55 -13 -7 19 12 35 40 35 13 0 18
-6 15 -22z"/>
<path d="M480 663 c-22 -8 -40 -34 -40 -57 0 -47 20 -93 46 -104 31 -15 109
-16 135 -2 22 12 25 38 5 46 -22 8 -26 29 -15 70 8 28 8 39 -3 45 -14 9 -104
11 -128 2z m75 -78 c0 -26 -4 -30 -31 -33 -27 -3 -33 1 -38 23 -9 36 0 47 37
43 28 -3 32 -7 32 -33z"/>
<path d="M535 449 c-83 -19 -82 -16 -77 -147 4 -117 4 -117 -82 -119 -70 -2
-86 0 -86 13 0 16 39 34 76 34 30 0 41 25 50 114 9 91 -1 96 -163 86 -160 -11
-163 -13 -163 -98 0 -89 11 -103 86 -111 51 -5 59 -9 62 -28 3 -22 1 -23 -76
-23 -57 0 -83 -4 -92 -15 -24 -29 -1 -38 81 -32 79 6 79 6 79 -23 0 -35 16
-80 29 -80 22 0 41 33 41 71 0 38 1 39 38 39 20 1 56 5 79 9 39 7 44 6 59 -17
16 -24 19 -25 92 -18 72 6 96 17 89 41 -2 6 -29 11 -59 13 -63 3 -75 12 -80
62 -3 34 -2 34 47 45 28 5 56 14 63 18 18 12 15 96 -6 137 -19 39 -29 42 -87
29z m29 -52 c12 -9 17 -23 14 -47 -3 -31 -6 -35 -35 -38 -32 -3 -33 -2 -33 35
0 35 13 63 30 63 3 0 14 -6 24 -13z m-200 -14 c8 -19 -9 -33 -41 -33 -25 0
-37 15 -29 35 8 21 62 19 70 -2z m-134 -13 c0 -17 -7 -20 -45 -20 -32 0 -45 4
-45 14 0 16 19 23 63 25 21 1 27 -4 27 -19z m8 -87 c3 -21 -1 -23 -36 -23 -45
0 -76 25 -51 41 8 5 30 8 49 7 28 -2 36 -8 38 -25z m120 10 c-2 -12 -14 -19
-36 -21 -27 -3 -32 0 -32 17 0 17 6 21 36 21 28 0 35 -3 32 -17z"/>
</g>
</svg>
