<svg version="1.0" xmlns="http://www.w3.org/2000/svg"
 width="69.000000pt" height="114.000000pt" viewBox="0 0 69.000000 114.000000"
 preserveAspectRatio="xMidYMid meet">
<metadata>
Created by potrace 1.15, written by Peter Selinger 2001-2017
</metadata>
<g transform="translate(0.000000,114.000000) scale(0.100000,-0.100000)"
fill="#000000" stroke="none">
<path d="M375 978 c-14 -40 -26 -238 -24 -403 1 -156 4 -193 17 -207 8 -10 20
-18 27 -18 7 0 20 -9 29 -19 17 -19 17 -20 -21 -30 -21 -5 -47 -11 -58 -13
-34 -5 -55 -64 -55 -154 0 -82 15 -124 39 -110 8 5 10 33 5 94 -7 97 5 146 34
140 13 -2 20 -21 30 -73 18 -98 37 -150 53 -150 18 0 16 26 -17 209 -5 27 -4
37 4 32 6 -3 18 1 27 10 15 15 18 15 40 -6 29 -27 44 -67 85 -228 13 -49 33
-52 38 -5 3 31 -34 143 -47 143 -5 0 -11 17 -15 39 -8 51 -64 114 -127 142
-44 20 -49 26 -49 55 0 43 27 51 102 30 27 -8 87 -89 123 -168 17 -38 41 -50
51 -25 6 16 -47 121 -79 157 -36 41 -78 70 -101 70 -11 0 -38 5 -58 11 -30 8
-38 15 -38 33 0 29 8 32 84 35 54 2 61 0 93 -31 19 -18 41 -47 49 -65 16 -32
38 -48 55 -37 18 11 8 33 -33 81 -48 56 -82 73 -152 74 -28 1 -62 4 -75 8 -23
6 -24 10 -21 71 1 36 3 90 4 120 1 40 5 55 16 57 118 16 117 15 85 25 -16 5
-42 6 -57 4 -23 -5 -29 -1 -34 18 -3 13 -5 30 -4 37 5 30 -1 59 -10 59 -6 0
-13 -6 -15 -12z"/>
<path d="M165 955 c-22 -8 -47 -17 -56 -21 -23 -8 -37 -44 -33 -79 3 -17 7
-54 11 -82 5 -50 25 -84 40 -69 4 3 2 42 -4 87 -13 100 -9 116 30 125 37 8 57
-13 57 -60 1 -34 39 -117 57 -123 13 -5 27 28 16 36 -13 9 -53 114 -53 138 0
15 7 23 23 25 12 2 22 10 22 18 0 20 -59 23 -110 5z"/>
<path d="M443 963 c-7 -2 -13 -12 -13 -20 0 -12 13 -15 68 -13 98 4 92 8 92
-64 0 -73 -3 -76 -82 -76 -59 0 -77 -16 -78 -68 0 -49 45 -73 132 -69 37 2 70
6 74 9 16 17 -13 28 -75 28 -69 0 -91 10 -91 42 0 25 27 36 94 40 68 4 79 18
73 100 -6 74 -36 98 -119 97 -35 0 -69 -3 -75 -6z"/>
<path d="M144 628 c-9 -63 -9 -63 -59 -66 -59 -3 -75 -8 -75 -22 0 -6 25 -10
59 -10 33 0 63 -5 67 -11 6 -11 12 -208 6 -214 -2 -2 -6 -64 -8 -138 -4 -99
-2 -137 7 -143 27 -16 39 28 39 140 0 95 2 176 9 334 1 27 5 32 25 32 32 0 76
17 76 29 0 6 -24 11 -52 13 -53 3 -53 3 -54 38 -2 70 -4 80 -17 80 -9 0 -17
-22 -23 -62z"/>
</g>
</svg>
