<svg version="1.0" xmlns="http://www.w3.org/2000/svg"
 width="39.000000pt" height="75.000000pt" viewBox="0 0 39.000000 75.000000"
 preserveAspectRatio="xMidYMid meet">
<metadata>
Created by potrace 1.15, written by Peter Selinger 2001-2017
</metadata>
<g transform="translate(0.000000,75.000000) scale(0.100000,-0.100000)"
fill="#000000" stroke="none">
<path d="M170 525 c0 -14 9 -45 20 -67 21 -45 22 -37 -20 -164 -24 -71 -26
-116 -6 -108 14 5 27 28 47 79 9 22 13 25 16 13 2 -9 -3 -28 -11 -41 -13 -18
-14 -34 -7 -70 9 -52 39 -104 51 -91 5 5 11 43 13 84 7 93 16 148 28 156 18
10 9 54 -21 102 -16 27 -30 52 -30 56 0 10 -62 76 -72 76 -4 0 -8 -11 -8 -25z"/>
</g>
</svg>
