<svg version="1.0" xmlns="http://www.w3.org/2000/svg"
 width="39.000000pt" height="81.000000pt" viewBox="0 0 39.000000 81.000000"
 preserveAspectRatio="xMidYMid meet">
<metadata>
Created by potrace 1.15, written by Peter Selinger 2001-2017
</metadata>
<g transform="translate(0.000000,81.000000) scale(0.100000,-0.100000)"
fill="#000000" stroke="none">
<path d="M150 697 c0 -7 9 -37 20 -67 13 -36 18 -66 14 -85 -9 -41 -53 -127
-73 -142 -14 -11 -13 -12 7 -13 26 0 39 11 64 55 9 17 23 30 30 30 22 0 21
-35 -3 -55 -19 -18 -21 -26 -15 -76 3 -30 13 -71 21 -91 8 -19 15 -50 15 -67
0 -46 11 -76 26 -76 29 0 14 156 -20 208 -11 18 12 70 35 77 10 4 19 13 19 22
0 19 -21 94 -30 108 -4 6 -13 39 -21 73 -9 41 -22 73 -38 88 -26 26 -51 32
-51 11z"/>
</g>
</svg>
