<svg version="1.0" xmlns="http://www.w3.org/2000/svg"
 width="75.000000pt" height="155.000000pt" viewBox="0 0 75.000000 155.000000"
 preserveAspectRatio="xMidYMid meet">
<metadata>
Created by potrace 1.15, written by Peter Selinger 2001-2017
</metadata>
<g transform="translate(0.000000,155.000000) scale(0.100000,-0.100000)"
fill="#000000" stroke="none">
<path d="M343 1392 c-10 -41 -7 -72 8 -72 5 0 9 -5 9 -11 0 -5 -4 -8 -9 -5
-11 7 -21 -52 -21 -122 0 -53 0 -53 -92 -50 -74 2 -92 6 -90 17 6 27 -37 201
-49 201 -12 0 -17 -25 -13 -71 1 -24 5 -110 9 -190 5 -145 24 -252 49 -277 6
-7 21 -14 32 -16 10 -2 31 -9 46 -15 15 -6 52 -10 82 -9 65 2 80 -8 96 -65 16
-58 17 -236 2 -264 -7 -12 -12 -40 -12 -62 0 -22 -5 -43 -10 -46 -6 -3 -10
-15 -10 -26 0 -10 -4 -19 -9 -19 -5 0 -11 -13 -14 -29 -3 -16 -12 -35 -19 -42
-18 -19 -118 -158 -118 -164 0 -15 24 1 71 48 72 72 83 86 110 137 13 25 30
51 36 58 7 7 13 17 13 21 0 4 17 13 38 20 104 35 182 86 182 118 0 7 3 12 8
12 37 -6 65 47 60 117 -3 41 -7 50 -32 64 -33 18 -151 19 -184 1 -31 -16 -62
20 -62 72 0 47 13 67 43 67 10 0 31 8 45 18 15 10 35 22 44 25 9 3 29 30 44
59 28 53 28 53 25 273 -2 179 -5 224 -18 244 -24 37 -32 10 -31 -106 1 -134
-8 -150 -89 -155 -32 -1 -70 -2 -85 0 -29 3 -34 16 -41 109 -2 24 -6 46 -10
50 -4 3 -7 30 -7 59 0 64 -14 78 -27 26z m-232 -169 c-12 -20 -14 -14 -5 12 4
9 9 14 11 11 3 -2 0 -13 -6 -23z m463 -129 c13 -5 16 -22 16 -85 0 -50 -4 -79
-11 -79 -6 0 -9 -11 -7 -24 4 -31 -45 -71 -91 -74 -42 -3 -54 -10 -47 -28 6
-15 -9 -20 -18 -5 -3 5 -43 10 -89 13 -63 3 -92 10 -119 26 -40 25 -44 36 -54
143 -6 75 -6 75 47 88 30 7 117 15 194 18 77 3 142 7 144 9 6 6 17 5 35 -2z
m109 -479 c4 -8 -1 -38 -10 -67 -11 -39 -27 -64 -61 -95 -25 -24 -54 -43 -63
-43 -10 0 -19 -5 -21 -10 -2 -6 -19 -11 -38 -13 -19 -1 -38 -6 -41 -11 -8 -11
-39 -1 -39 13 0 5 11 11 24 15 21 5 23 11 24 68 1 94 11 138 30 139 40 1 117
11 121 15 11 11 69 3 74 -11z m-233 -115 c0 -5 -4 -10 -10 -10 -5 0 -10 5 -10
10 0 6 5 10 10 10 6 0 10 -4 10 -10z"/>
</g>
</svg>
