<svg version="1.0" xmlns="http://www.w3.org/2000/svg"
 width="71.000000pt" height="83.000000pt" viewBox="0 0 71.000000 83.000000"
 preserveAspectRatio="xMidYMid meet">
<metadata>
Created by potrace 1.15, written by Peter Selinger 2001-2017
</metadata>
<g transform="translate(0.000000,83.000000) scale(0.100000,-0.100000)"
fill="#000000" stroke="none">
<path d="M357 684 c-4 -4 -7 -15 -7 -25 0 -10 -9 -33 -20 -51 -26 -43 -25 -52
7 -82 26 -25 26 -25 10 -68 -19 -48 -22 -108 -7 -108 6 0 10 -9 10 -19 0 -39
46 -34 61 8 10 24 12 25 23 9 7 -10 20 -18 29 -18 15 0 36 -45 26 -54 -2 -2
-24 -17 -48 -33 -44 -30 -44 -30 -118 29 -62 50 -73 64 -73 90 0 26 2 29 15
18 38 -31 64 40 30 84 -19 25 -35 12 -36 -32 -1 -37 -1 -37 -14 -7 -8 17 -14
43 -15 58 0 58 -22 115 -56 150 -35 35 -64 40 -64 10 0 -8 13 -31 29 -51 29
-37 30 -42 48 -217 5 -49 12 -67 39 -97 36 -40 36 -38 0 -138 -20 -56 -20 -70
-1 -70 8 0 15 4 15 9 0 5 6 11 13 14 14 5 176 -8 226 -19 34 -7 34 -7 28 64
-5 60 -3 74 14 93 16 18 18 32 13 84 -6 59 -5 62 23 80 60 39 93 98 93 166 0
56 -12 63 -30 17 -6 -18 -16 -40 -21 -48 -5 -8 -14 -24 -20 -35 -10 -19 -89
-85 -102 -85 -3 0 -16 10 -27 22 -21 22 -21 22 -45 -7 -18 -22 -24 -26 -25
-13 0 9 6 23 13 30 6 7 27 37 44 66 35 56 34 70 -5 115 -8 9 -20 27 -26 39
-12 23 -37 34 -49 22z m46 -120 c-3 -8 -9 -14 -13 -14 -14 0 -22 20 -16 37 5
12 9 13 21 3 7 -6 11 -18 8 -26z m-65 -374 c18 -11 50 -20 72 -20 30 0 40 -4
40 -16 0 -13 -7 -15 -31 -10 -17 3 -53 6 -80 6 -48 0 -49 1 -49 30 0 35 4 36
48 10z"/>
<path d="M300 490 c0 -5 5 -10 11 -10 5 0 7 5 4 10 -3 6 -8 10 -11 10 -2 0 -4
-4 -4 -10z"/>
</g>
</svg>
