<svg version="1.0" xmlns="http://www.w3.org/2000/svg"
 width="47.000000pt" height="115.000000pt" viewBox="0 0 47.000000 115.000000"
 preserveAspectRatio="xMidYMid meet">
<metadata>
Created by potrace 1.15, written by Peter Selinger 2001-2017
</metadata>
<g transform="translate(0.000000,115.000000) scale(0.100000,-0.100000)"
fill="#000000" stroke="none">
<path d="M205 960 c-7 -11 -27 -90 -43 -170 -6 -30 -14 -68 -18 -85 -3 -16 -8
-51 -11 -77 -4 -38 -9 -48 -24 -48 -27 0 -56 -37 -62 -78 -3 -21 -8 -54 -12
-75 -4 -23 -2 -43 5 -51 6 -8 8 -26 4 -42 -6 -25 -5 -27 17 -20 13 4 45 9 70
12 46 4 46 4 58 -43 26 -103 29 -93 -28 -93 -51 0 -51 0 -51 60 0 53 -2 60
-20 60 -15 0 -20 -7 -22 -27 0 -16 -3 -39 -5 -53 -11 -79 1 -148 31 -178 44
-45 225 -46 246 -2 35 72 52 141 42 175 -11 39 -22 38 -36 -5 -10 -32 -14 -35
-46 -32 -19 2 -37 5 -39 7 -1 2 8 19 21 37 13 18 32 51 42 74 16 37 22 42 64
50 31 6 47 14 47 24 0 8 5 18 10 22 6 5 6 8 -1 8 -16 0 -24 51 -12 74 9 17 6
24 -21 47 -28 23 -33 34 -36 80 -2 30 -13 76 -24 102 -12 27 -21 57 -21 68 0
27 -45 122 -76 158 -27 33 -39 38 -49 21z m36 -237 c-1 -75 -3 -139 -5 -141
-3 -2 -14 -1 -25 3 -18 6 -20 12 -16 78 2 40 9 101 15 137 5 36 10 69 10 75 0
5 5 4 12 -3 8 -8 11 -55 9 -149z m76 -55 c27 -101 24 -120 -16 -99 -16 9 -17
16 -10 53 4 24 5 53 2 66 -10 41 13 22 24 -20z m-20 -155 c34 -5 65 -12 69
-15 4 -4 7 -24 7 -45 1 -43 20 -36 -163 -61 -41 -6 -85 -14 -97 -18 -22 -6
-22 -5 -21 77 2 84 2 84 72 77 39 -4 99 -11 133 -15z m-27 -198 c0 -28 -24
-34 -34 -9 -10 26 -7 34 14 34 15 0 20 -7 20 -25z m39 -191 c2 -2 -2 -15 -9
-29 -12 -22 -20 -25 -73 -25 -67 0 -121 28 -110 57 5 13 19 15 97 9 50 -4 92
-9 95 -12z"/>
</g>
</svg>
