<svg version="1.0" xmlns="http://www.w3.org/2000/svg"
 width="70.000000pt" height="94.000000pt" viewBox="0 0 70.000000 94.000000"
 preserveAspectRatio="xMidYMid meet">
<metadata>
Created by potrace 1.15, written by Peter Selinger 2001-2017
</metadata>
<g transform="translate(0.000000,94.000000) scale(0.100000,-0.100000)"
fill="#000000" stroke="none">
<path d="M298 770 c-60 -37 -63 -64 -13 -119 36 -39 36 -39 -22 -46 -87 -9
-103 -14 -103 -30 0 -13 26 -15 168 -14 189 0 247 7 247 29 0 12 -16 16 -72
18 -40 2 -73 6 -73 10 0 4 11 25 25 47 42 69 25 76 -41 15 -38 -35 -74 -52
-74 -34 0 3 20 24 45 46 45 40 58 68 31 68 -8 0 -31 -16 -52 -35 -39 -35 -64
-44 -64 -24 0 5 16 25 36 43 21 19 34 39 30 45 -10 16 -15 14 -68 -19z"/>
<path d="M296 527 c-59 -33 -63 -46 -31 -95 15 -22 24 -45 21 -51 -4 -5 -38
-13 -76 -17 -49 -4 -70 -11 -70 -20 0 -8 12 -17 26 -20 45 -11 387 1 413 15
34 19 15 30 -67 37 -60 6 -72 10 -72 25 0 10 9 21 20 24 54 17 46 80 -13 108
-48 23 -105 21 -151 -6z m135 -34 c7 -7 5 -15 -6 -27 -22 -22 -123 -23 -131
-1 -12 31 17 47 73 43 30 -3 58 -9 64 -15z m-43 -100 c-2 -12 -12 -18 -28 -18
-16 0 -26 6 -28 18 -3 13 3 17 28 17 25 0 31 -4 28 -17z"/>
<path d="M200 286 c0 -7 7 -19 15 -26 25 -21 73 -97 96 -153 29 -70 43 -84 63
-67 9 7 16 19 16 27 0 18 50 120 84 170 26 38 33 63 18 63 -4 0 -13 -5 -19
-11 -5 -5 -58 -12 -116 -14 -82 -2 -109 0 -118 11 -15 18 -39 18 -39 0z m192
-96 c-15 -27 -29 -50 -32 -50 -6 0 -60 76 -60 83 0 5 36 11 97 15 23 2 23 2
-5 -48z"/>
</g>
</svg>
