<svg version="1.0" xmlns="http://www.w3.org/2000/svg"
 width="67.000000pt" height="159.000000pt" viewBox="0 0 67.000000 159.000000"
 preserveAspectRatio="xMidYMid meet">
<metadata>
Created by potrace 1.15, written by Peter Selinger 2001-2017
</metadata>
<g transform="translate(0.000000,159.000000) scale(0.100000,-0.100000)"
fill="#000000" stroke="none">
<path d="M319 1493 c-24 -6 -29 -33 -29 -170 0 -68 -4 -123 -9 -123 -10 0 -63
42 -107 85 -48 48 -73 65 -92 65 -32 0 -32 -11 -2 -54 46 -66 134 -139 182
-151 20 -5 28 -16 37 -50 6 -24 11 -57 11 -73 0 -26 -4 -31 -32 -35 -142 -25
-153 -31 -187 -103 -31 -64 -26 -163 12 -244 30 -66 83 -95 176 -95 64 0 64 0
68 -85 3 -79 1 -87 -22 -114 -20 -23 -35 -30 -65 -32 -46 -2 -46 -2 -55 55
-18 121 -75 99 -75 -29 0 -66 32 -178 64 -225 30 -43 55 -62 105 -76 53 -15
189 -17 199 -3 4 5 21 16 37 23 49 20 75 86 82 212 9 169 -7 226 -57 199 -13
-7 -19 -27 -24 -73 -7 -62 -8 -64 -41 -74 -57 -18 -68 2 -81 144 -5 53 -3 64
15 82 13 13 34 21 54 21 18 0 42 8 53 18 11 9 29 22 39 28 10 6 23 19 29 30 6
10 14 22 19 25 4 3 12 45 18 92 10 82 9 90 -12 133 -18 39 -31 50 -76 70 -35
16 -72 24 -107 24 -52 0 -54 1 -60 31 -13 68 -8 76 85 147 32 24 62 56 69 72
7 17 16 30 20 30 11 0 34 116 26 129 -15 24 -51 12 -65 -21 -40 -98 -56 -126
-92 -160 -45 -44 -59 -47 -59 -15 -2 84 -20 281 -27 286 -4 4 -15 6 -24 4z
m217 -589 c42 -20 49 -43 41 -136 -8 -99 -33 -117 -194 -137 -54 -7 -135 -3
-168 7 -3 1 -9 2 -15 2 -5 0 -10 7 -10 15 0 8 -4 15 -9 15 -15 0 -33 56 -34
107 -2 59 17 109 46 118 12 5 81 11 152 15 72 3 136 7 143 8 8 1 29 -5 48 -14z
m12 -678 c5 -55 -14 -84 -72 -112 -63 -30 -172 -34 -204 -6 -19 16 -52 96 -52
126 0 20 78 32 210 31 115 0 115 0 118 -39z"/>
<path d="M317 829 c-68 -8 -80 -17 -72 -52 21 -81 205 -65 205 18 0 24 -1 25
-65 39 -5 1 -36 -1 -68 -5z"/>
</g>
</svg>
