<svg version="1.0" xmlns="http://www.w3.org/2000/svg"
 width="47.000000pt" height="119.000000pt" viewBox="0 0 47.000000 119.000000"
 preserveAspectRatio="xMidYMid meet">
<metadata>
Created by potrace 1.15, written by Peter Selinger 2001-2017
</metadata>
<g transform="translate(0.000000,119.000000) scale(0.100000,-0.100000)"
fill="#000000" stroke="none">
<path d="M294 1083 c4 -32 13 -101 20 -153 11 -84 11 -98 -4 -124 -25 -45 -35
-41 -37 16 -1 29 -3 94 -5 143 -2 50 -7 91 -13 93 -5 2 -18 -23 -28 -54 -15
-46 -16 -63 -7 -82 12 -27 15 -187 4 -215 -11 -29 -22 -19 -29 26 -4 23 -16
79 -27 124 -20 82 -20 82 1 149 21 64 22 94 3 94 -5 0 -17 -21 -26 -47 -10
-27 -22 -58 -28 -69 -5 -12 -8 -48 -5 -80 5 -67 57 -275 74 -296 8 -9 8 -27 2
-58 -5 -25 -13 -67 -18 -95 -5 -27 -14 -70 -20 -95 -14 -59 -14 -70 2 -70 12
0 37 44 37 67 0 7 5 13 10 13 6 0 10 15 10 33 0 17 6 52 13 75 13 44 13 44 28
21 14 -21 14 -32 -3 -113 -28 -139 -21 -356 13 -356 5 0 10 24 11 53 6 186 16
284 29 293 21 12 9 105 -21 164 -43 85 -40 110 20 178 28 31 50 62 50 69 0 7
5 22 12 33 10 15 8 46 -11 157 -13 76 -28 144 -33 151 -23 27 -31 12 -24 -45z"/>
<path d="M110 299 c0 -5 5 -7 10 -4 6 3 10 8 10 11 0 2 -4 4 -10 4 -5 0 -10
-5 -10 -11z"/>
</g>
</svg>
