<svg version="1.0" xmlns="http://www.w3.org/2000/svg"
 width="109.000000pt" height="219.000000pt" viewBox="0 0 109.000000 219.000000"
 preserveAspectRatio="xMidYMid meet">
<metadata>
Created by potrace 1.15, written by Peter Selinger 2001-2017
</metadata>
<g transform="translate(0.000000,219.000000) scale(0.100000,-0.100000)"
fill="#000000" stroke="none">
<path d="M246 1973 c3 -76 8 -142 12 -147 5 -9 10 -80 28 -362 7 -112 7 -112
-85 -200 -50 -49 -91 -96 -91 -104 0 -11 3 -11 12 -2 7 7 19 12 28 12 10 0 43
27 74 60 32 33 62 60 68 60 13 0 5 -327 -11 -460 -6 -47 -16 -125 -22 -175 -6
-49 -13 -101 -14 -115 -2 -14 -8 -61 -14 -104 -6 -44 -10 -81 -8 -83 2 -1 14
32 26 75 13 42 25 84 28 92 2 8 7 51 9 95 10 165 35 337 49 324 4 -5 25 -104
46 -224 12 -69 48 -192 74 -250 7 -16 16 -39 19 -49 13 -39 18 -5 6 43 -6 27
-9 59 -5 70 4 13 2 21 -5 21 -12 0 -28 36 -40 95 -5 22 -15 67 -23 100 -8 33
-20 98 -27 145 -7 47 -19 109 -26 139 -18 70 -29 261 -16 261 6 0 12 -3 14 -8
7 -16 127 -72 133 -62 4 6 1 17 -5 25 -11 14 -24 21 -111 67 -36 19 -36 19
-43 101 -13 171 -46 525 -55 597 -6 41 -10 81 -10 88 -1 6 -6 12 -11 12 -7 0
-8 -48 -4 -137z"/>
<path d="M660 2020 c-14 -4 -46 -8 -72 -9 -26 -1 -67 -5 -90 -11 -24 -5 -69
-15 -100 -21 -63 -13 -78 -36 -30 -45 35 -7 52 -21 82 -64 13 -19 27 -37 31
-40 5 -4 28 -68 59 -165 5 -16 11 -67 12 -112 3 -82 11 -102 23 -63 3 11 11
20 17 20 25 0 84 110 102 190 11 50 22 55 50 27 14 -14 35 -28 46 -32 11 -3
20 -10 20 -15 0 -4 8 -10 18 -13 9 -4 35 -13 56 -21 36 -14 85 -19 146 -17 33
1 16 15 -44 35 -84 29 -136 56 -136 72 0 11 -5 14 -17 10 -18 -7 -76 27 -126
76 -28 26 -32 28 -36 12 -2 -10 2 -20 8 -22 16 -5 14 -22 -3 -22 -14 0 -26
-49 -26 -107 0 -18 -12 -58 -27 -90 -27 -58 -27 -58 -34 -8 -12 75 -26 146
-37 185 -22 73 -25 80 -33 80 -5 0 -9 5 -9 10 0 6 -9 20 -20 32 -11 12 -20 25
-20 29 0 17 71 29 267 45 61 6 72 10 77 27 3 11 3 24 0 29 -6 10 -120 9 -154
-2z"/>
<path d="M728 1465 c-3 -3 -47 -10 -99 -15 -52 -5 -121 -13 -154 -16 -57 -7
-85 -21 -85 -43 0 -17 43 -23 74 -12 15 6 69 11 120 11 51 0 106 4 122 10 16
5 52 11 79 13 61 6 85 15 85 34 0 11 -13 14 -58 12 -33 -1 -63 1 -69 4 -6 4
-12 4 -15 2z"/>
<path d="M595 1347 c-8 -13 -22 -50 -30 -81 -27 -102 -13 -165 14 -68 12 40
46 118 57 131 7 8 74 -50 74 -65 0 -7 5 -14 10 -14 6 0 10 -7 10 -15 0 -8 4
-23 9 -33 20 -39 43 -293 28 -309 -4 -3 -2 -12 5 -20 6 -8 15 -69 20 -136 23
-333 73 -685 95 -664 5 6 -9 129 -38 317 -11 69 -19 154 -19 190 0 36 -4 126
-10 200 -6 74 -14 202 -19 284 -5 81 -14 153 -20 159 -6 6 -11 19 -11 29 0 24
-75 98 -99 98 -11 0 -23 5 -26 10 -11 17 -34 11 -50 -13z"/>
<path d="M641 1108 c-7 -35 -21 -88 -31 -118 -10 -30 -22 -71 -26 -90 -7 -35
-7 -35 -40 39 -19 40 -39 90 -45 110 -12 42 -48 94 -49 72 0 -16 33 -116 55
-166 7 -16 16 -41 20 -55 10 -35 60 -134 82 -161 41 -52 102 -113 107 -109 5
6 -23 71 -34 80 -4 3 -24 32 -46 65 -37 55 -39 62 -28 85 7 14 18 53 24 85 12
63 23 125 35 188 5 21 4 37 -2 37 -5 0 -15 -28 -22 -62z"/>
<path d="M190 519 c0 -5 5 -7 10 -4 6 3 10 8 10 11 0 2 -4 4 -10 4 -5 0 -10
-5 -10 -11z"/>
<path d="M455 360 c-27 -5 -72 -13 -100 -19 -27 -5 -90 -15 -138 -22 -86 -12
-88 -13 -85 -38 4 -31 10 -32 183 -7 263 38 372 66 348 90 -9 8 -147 5 -208
-4z"/>
</g>
</svg>
