<svg version="1.0" xmlns="http://www.w3.org/2000/svg"
 width="74.000000pt" height="88.000000pt" viewBox="0 0 74.000000 88.000000"
 preserveAspectRatio="xMidYMid meet">
<metadata>
Created by potrace 1.15, written by Peter Selinger 2001-2017
</metadata>
<g transform="translate(0.000000,88.000000) scale(0.100000,-0.100000)"
fill="#000000" stroke="none">
<path d="M137 739 c-14 -8 -16 -18 -11 -52 8 -47 17 -57 57 -57 17 0 27 -5 27
-15 0 -10 -10 -15 -33 -15 -40 0 -57 -15 -57 -50 0 -35 17 -50 58 -50 36 0 41
-22 6 -29 -10 -1 -27 -10 -37 -19 -17 -15 -18 -30 -12 -202 8 -189 15 -230 39
-211 10 9 12 47 8 170 -2 87 -2 170 2 185 9 36 35 33 43 -4 3 -16 8 -30 12
-30 17 1 30 18 33 44 2 24 9 31 36 38 37 10 38 29 2 38 -36 9 -35 28 2 38 29
7 33 12 33 43 0 31 -3 35 -38 43 -44 11 -44 27 1 38 28 8 32 13 32 43 0 53
-20 65 -108 65 -42 0 -85 -5 -95 -11z m148 -49 c0 -11 -14 -16 -52 -18 -40 -2
-53 0 -53 11 0 23 12 28 60 25 32 -2 45 -7 45 -18z m15 -130 c24 -16 -6 -30
-65 -30 -54 0 -82 11 -71 29 9 14 115 14 136 1z"/>
<path d="M428 733 c-19 -3 -30 -12 -34 -28 -10 -40 -1 -59 34 -69 41 -12 41
-22 -3 -40 -24 -10 -35 -22 -35 -35 0 -27 34 -61 60 -61 11 0 20 -4 20 -10 0
-9 -18 -15 -65 -22 -11 -2 -21 -11 -23 -21 -3 -14 4 -17 42 -17 41 0 45 -2 48
-27 4 -37 20 -38 40 -2 12 19 24 29 35 27 16 -3 18 -21 19 -193 1 -110 6 -191
11 -192 6 -2 16 3 23 12 16 19 27 382 12 403 -5 8 -28 16 -51 19 -55 7 -53 29
3 37 40 6 56 19 56 47 0 20 -42 49 -70 49 -16 0 -30 4 -30 9 0 10 34 21 67 21
28 0 38 32 21 67 -12 26 -17 28 -83 29 -39 1 -82 -1 -97 -3z m125 -48 c1 -6
-25 -11 -60 -13 -58 -3 -74 4 -56 22 11 10 113 3 116 -9z m12 -124 c6 -11 -56
-31 -97 -31 -26 0 -37 17 -21 33 10 11 111 8 118 -2z"/>
<path d="M307 403 c-17 -16 -3 -23 47 -23 58 0 86 7 86 21 0 10 -123 12 -133
2z"/>
<path d="M245 346 c-18 -14 -8 -15 120 -16 110 0 136 3 127 12 -8 8 -52 14
-120 16 -85 3 -111 0 -127 -12z"/>
<path d="M233 304 c-7 -3 -13 -10 -13 -15 0 -6 64 -8 158 -7 202 4 209 22 10
25 -79 1 -149 -1 -155 -3z"/>
<path d="M268 249 c-21 -12 -24 -49 -6 -67 7 -7 27 -12 46 -12 54 0 33 -24
-26 -30 -28 -3 -57 -11 -63 -17 -13 -13 -13 -12 36 -28 10 -3 15 -17 15 -40 0
-23 5 -35 14 -35 15 0 26 21 26 50 0 20 17 36 27 26 3 -3 9 -23 12 -43 9 -54
35 -51 39 4 3 38 6 43 28 43 20 0 24 -5 24 -29 0 -28 24 -60 33 -44 2 4 7 24
11 44 5 28 12 38 32 43 46 12 13 26 -62 26 -59 0 -74 3 -74 15 0 11 11 15 38
15 51 0 75 18 70 55 -3 30 -3 30 -103 32 -56 2 -108 -2 -117 -8z m180 -31 c-3
-9 -31 -14 -81 -16 -64 -2 -77 0 -77 13 0 12 15 15 81 15 60 0 80 -3 77 -12z"/>
</g>
</svg>
