<svg version="1.0" xmlns="http://www.w3.org/2000/svg"
 width="59.000000pt" height="105.000000pt" viewBox="0 0 59.000000 105.000000"
 preserveAspectRatio="xMidYMid meet">
<metadata>
Created by potrace 1.15, written by Peter Selinger 2001-2017
</metadata>
<g transform="translate(0.000000,105.000000) scale(0.100000,-0.100000)"
fill="#000000" stroke="none">
<path d="M242 918 c-7 -7 -12 -27 -12 -46 0 -18 -4 -41 -10 -51 -6 -12 -6 -30
0 -51 7 -26 6 -38 -9 -59 -42 -60 -79 -221 -51 -221 6 0 10 5 10 12 0 17 73
168 81 168 4 0 17 -16 29 -35 38 -62 47 -30 18 67 -9 30 -8 39 5 52 24 24 27
20 27 -39 0 -30 5 -76 11 -102 6 -27 14 -61 18 -78 4 -16 12 -30 19 -30 7 0
17 -7 22 -15 8 -13 13 -13 31 -2 17 11 23 11 29 1 9 -13 2 -39 -9 -39 -4 0
-16 -8 -27 -18 -34 -31 -112 -82 -127 -82 -19 0 -63 45 -70 71 -3 12 3 30 17
46 22 26 22 26 49 -1 14 -14 31 -26 37 -26 15 0 3 59 -16 78 -8 7 -14 16 -14
20 0 4 -4 13 -9 21 -10 16 -8 18 -79 -63 -23 -27 -42 -57 -42 -67 0 -11 -7
-19 -17 -20 -15 0 -15 -2 2 -8 11 -5 35 -28 54 -51 33 -42 33 -42 -23 -99 -48
-49 -56 -62 -56 -94 0 -49 15 -77 41 -77 20 0 149 121 149 140 0 22 -28 7 -77
-41 -42 -41 -54 -48 -59 -35 -11 29 6 60 57 104 56 47 63 47 118 -9 23 -22 31
-40 31 -66 0 -35 0 -35 -31 -8 -65 54 -60 -15 6 -93 32 -38 40 -39 56 -9 39
72 26 163 -33 220 -39 37 -39 37 -16 60 13 12 49 39 80 60 49 32 58 43 58 67
0 44 -20 129 -32 137 -11 6 -34 -16 -71 -67 -17 -25 -17 -25 -12 25 5 54 -8
245 -22 309 -8 38 -35 67 -49 54 -4 -4 -8 -25 -9 -47 -1 -22 -9 -47 -19 -56
-18 -19 -19 -18 -20 49 -1 50 -13 65 -34 44z"/>
</g>
</svg>
