<svg version="1.0" xmlns="http://www.w3.org/2000/svg"
 width="65.000000pt" height="79.000000pt" viewBox="0 0 65.000000 79.000000"
 preserveAspectRatio="xMidYMid meet">
<metadata>
Created by potrace 1.15, written by Peter Selinger 2001-2017
</metadata>
<g transform="translate(0.000000,79.000000) scale(0.100000,-0.100000)"
fill="#000000" stroke="none">
<path d="M417 673 c-4 -3 -7 -15 -7 -25 0 -15 -8 -18 -42 -18 -57 0 -88 -9
-88 -26 0 -11 16 -14 64 -14 65 0 65 0 71 -42 3 -24 5 -110 3 -193 -3 -150 -3
-150 -27 -153 -42 -6 -51 20 -51 154 0 97 -3 124 -15 134 -10 8 -19 9 -25 4
-4 -5 -6 -77 -3 -161 6 -147 6 -151 30 -162 46 -21 233 -9 233 15 0 8 -17 14
-47 16 -48 3 -48 3 -51 41 -3 40 -2 41 60 51 20 4 39 14 42 23 4 8 9 55 13
104 6 91 -2 119 -33 119 -11 0 -14 -20 -14 -86 0 -101 -9 -124 -51 -124 -30 0
-30 0 -27 128 3 127 3 127 58 132 42 4 56 9 58 23 3 14 -5 17 -53 17 -50 0
-56 2 -65 25 -9 25 -21 31 -33 18z"/>
<path d="M185 640 c-5 -17 -15 -20 -59 -20 -53 0 -94 -19 -83 -37 4 -7 32 -9
72 -5 65 5 65 5 65 -31 0 -42 -14 -49 -90 -45 -35 2 -45 0 -48 -14 -3 -14 3
-18 25 -18 36 0 53 -16 53 -51 0 -19 -6 -30 -20 -34 -47 -15 -50 -28 -50 -188
0 -150 7 -187 30 -172 8 5 11 48 9 154 -2 80 0 152 4 159 13 19 55 14 67 -9 6
-11 14 -76 17 -145 8 -158 4 -154 158 -153 171 2 250 11 250 29 0 13 -24 14
-167 11 -124 -3 -172 0 -183 9 -11 9 -15 34 -16 89 0 106 -12 168 -37 194 -32
33 -30 94 2 108 31 14 46 49 46 105 0 69 -30 111 -45 64z"/>
</g>
</svg>
