<svg version="1.0" xmlns="http://www.w3.org/2000/svg"
 width="71.000000pt" height="120.000000pt" viewBox="0 0 71.000000 120.000000"
 preserveAspectRatio="xMidYMid meet">
<metadata>
Created by potrace 1.15, written by Peter Selinger 2001-2017
</metadata>
<g transform="translate(0.000000,120.000000) scale(0.100000,-0.100000)"
fill="#000000" stroke="none">
<path d="M549 983 c-1 -5 -3 -41 -5 -82 -3 -84 -17 -106 -76 -122 -53 -14
-232 -13 -256 2 -14 9 -22 34 -32 101 -13 89 -28 114 -52 90 -13 -13 6 -172
23 -205 6 -10 26 -25 44 -33 58 -24 62 -33 65 -151 6 -178 1 -496 -7 -504 -4
-4 -52 -9 -105 -10 -110 -3 -124 -7 -105 -32 11 -16 31 -16 247 -7 129 6 255
10 280 10 25 -1 66 2 93 5 38 6 47 11 47 27 0 19 -5 19 -114 14 -113 -5 -113
-5 -120 77 -3 45 -6 191 -6 325 0 242 0 242 23 242 33 0 74 22 88 46 13 25 18
159 7 192 -7 20 -36 32 -39 15z m-138 -335 c0 -40 2 -109 4 -153 3 -44 5 -114
5 -155 1 -41 6 -80 11 -86 7 -8 7 -19 1 -31 -5 -10 -8 -38 -7 -63 2 -70 -8
-90 -49 -90 -70 0 -66 -21 -66 325 0 240 3 315 13 318 6 3 29 6 50 6 37 1 37
1 38 -71z"/>
<path d="M541 651 c-12 -8 -13 -88 -1 -468 0 -18 37 -16 44 2 8 23 -4 423 -14
451 -11 27 -10 27 -29 15z"/>
<path d="M121 636 c-9 -10 -10 -46 -5 -133 4 -65 8 -165 9 -223 2 -139 1 -133
26 -119 21 11 21 15 17 235 -3 185 -6 227 -19 239 -14 14 -17 14 -28 1z"/>
</g>
</svg>
