<svg version="1.0" xmlns="http://www.w3.org/2000/svg"
 width="72.000000pt" height="80.000000pt" viewBox="0 0 72.000000 80.000000"
 preserveAspectRatio="xMidYMid meet">
<metadata>
Created by potrace 1.15, written by Peter Selinger 2001-2017
</metadata>
<g transform="translate(0.000000,80.000000) scale(0.100000,-0.100000)"
fill="#000000" stroke="none">
<path d="M210 625 c0 -75 0 -75 -30 -75 -29 0 -30 1 -30 48 0 27 -3 52 -7 55
-14 14 -33 -17 -33 -54 0 -37 0 -38 -42 -41 -35 -2 -43 -7 -43 -23 0 -17 6
-20 41 -18 39 1 42 0 48 -29 3 -17 6 -59 6 -94 0 -66 -1 -64 58 -100 1 -1 -12
-25 -30 -54 -30 -49 -33 -59 -33 -139 0 -70 3 -86 15 -86 11 0 17 18 23 70 14
123 17 134 42 162 21 25 25 26 38 13 25 -26 48 -112 42 -160 -7 -50 5 -76 29
-67 19 7 20 49 6 146 -6 41 -16 71 -29 85 -24 26 -27 46 -7 46 27 0 39 32 45
118 6 85 7 87 31 87 24 0 25 -2 30 -90 6 -100 10 -112 48 -126 27 -11 27 -11
-1 -33 -34 -27 -47 -71 -47 -158 0 -51 3 -68 14 -68 16 0 26 43 26 115 0 41 5
56 23 73 51 48 77 12 85 -115 4 -75 7 -83 24 -83 19 0 20 5 16 97 -4 86 -7 98
-26 111 -26 17 -28 39 -7 62 17 18 45 135 45 186 0 32 0 32 46 26 41 -4 46 -3
42 14 -2 14 -13 20 -46 22 -40 3 -42 4 -42 37 0 18 -3 40 -6 49 -12 32 -24 15
-24 -35 0 -49 -1 -50 -27 -47 -27 3 -28 5 -31 76 -4 99 -26 94 -30 -6 -3 -69
-4 -72 -27 -72 -21 0 -25 5 -25 29 0 16 -3 36 -6 45 -12 31 -24 16 -24 -29 0
-41 -2 -45 -24 -45 -20 0 -25 6 -30 45 -9 57 -24 58 -28 3 -3 -39 -6 -43 -30
-46 -28 -3 -28 -3 -28 72 0 61 -3 76 -15 76 -12 0 -15 -15 -15 -75z m-2 -163
c3 -57 -8 -82 -39 -82 -17 0 -19 8 -19 71 0 70 0 70 28 67 25 -3 27 -6 30 -56z
m82 -1 c0 -33 -5 -63 -10 -66 -21 -13 -40 17 -40 65 0 51 4 60 32 60 15 0 18
-8 18 -59z m168 6 c3 -49 -9 -77 -34 -77 -11 0 -14 17 -14 66 0 62 1 65 23 62
19 -3 22 -10 25 -51z m90 -12 c-2 -35 -7 -68 -12 -72 -16 -16 -46 38 -46 82 0
44 7 53 44 54 16 1 18 -6 14 -64z m-298 -127 c-27 -22 -53 -23 -70 -3 -7 9
-11 16 -9 18 57 33 64 34 82 18 18 -15 18 -16 -3 -33z m249 38 c9 -11 10 -20
1 -35 -14 -26 -31 -27 -61 -1 -24 20 -24 20 -5 35 25 19 50 19 65 1z"/>
</g>
</svg>
