<svg version="1.0" xmlns="http://www.w3.org/2000/svg"
 width="95.000000pt" height="113.000000pt" viewBox="0 0 95.000000 113.000000"
 preserveAspectRatio="xMidYMid meet">
<metadata>
Created by potrace 1.15, written by Peter Selinger 2001-2017
</metadata>
<g transform="translate(0.000000,113.000000) scale(0.100000,-0.100000)"
fill="#000000" stroke="none">
<path d="M245 930 c4 -26 3 -40 -4 -40 -6 0 -11 -14 -11 -31 0 -18 -12 -53
-28 -78 -15 -25 -34 -58 -41 -73 -8 -15 -22 -36 -31 -46 -9 -9 -19 -26 -22
-37 -3 -11 -9 -28 -13 -37 -5 -14 -2 -18 14 -18 12 0 21 5 21 11 0 5 4 8 9 5
11 -7 33 19 56 63 9 19 28 46 41 60 13 14 27 34 30 44 6 18 20 23 26 9 2 -4
49 -31 105 -60 99 -51 153 -65 153 -39 -1 16 -25 47 -36 47 -5 0 -17 8 -26 18
-8 9 -29 27 -44 39 -90 67 -143 121 -151 153 -8 32 -22 50 -40 50 -12 0 -13
-8 -8 -40z"/>
<path d="M753 878 c3 -40 8 -91 12 -114 6 -35 3 -47 -26 -90 -18 -27 -37 -51
-42 -53 -5 -2 -24 -18 -42 -37 -39 -38 -68 -43 -135 -19 -66 23 -87 20 -95
-15 -8 -37 2 -71 26 -88 11 -7 19 -24 19 -37 0 -13 5 -27 10 -30 13 -8 13 -85
0 -85 -5 0 -10 -9 -10 -19 0 -11 -9 -36 -21 -56 -12 -19 -18 -42 -15 -50 8
-21 45 -19 53 3 4 9 14 28 22 42 29 44 41 94 41 166 0 51 4 73 13 77 8 3 50 3
94 0 88 -5 116 8 75 35 -28 18 -28 35 1 65 12 13 30 33 39 45 10 12 21 22 26
22 10 0 53 -186 59 -257 6 -70 -23 -133 -93 -200 -31 -29 -58 -53 -60 -53 -21
0 -42 -48 -28 -62 7 -8 60 20 90 47 115 103 147 147 158 217 7 43 -8 212 -22
260 -6 18 -18 67 -28 108 -34 146 -82 250 -116 250 -5 0 -7 -33 -5 -72z"/>
<path d="M175 520 c-3 -5 -12 -10 -19 -10 -14 0 -136 -109 -136 -121 0 -9 44
-2 95 15 22 8 43 11 46 8 4 -4 18 -44 32 -90 35 -112 48 -134 130 -220 54 -57
147 -88 147 -48 0 6 -32 43 -70 81 -97 94 -126 148 -141 260 -8 64 -18 96 -32
113 -22 23 -42 28 -52 12z"/>
</g>
</svg>
