<svg version="1.0" xmlns="http://www.w3.org/2000/svg"
 width="105.000000pt" height="109.000000pt" viewBox="0 0 105.000000 109.000000"
 preserveAspectRatio="xMidYMid meet">
<metadata>
Created by potrace 1.15, written by Peter Selinger 2001-2017
</metadata>
<g transform="translate(0.000000,109.000000) scale(0.100000,-0.100000)"
fill="#000000" stroke="none">
<path d="M485 969 c-10 -60 38 -175 105 -250 22 -24 40 -47 40 -51 0 -11 32
-10 49 1 20 13 7 51 -29 92 -19 22 -40 66 -58 122 -28 93 -50 127 -82 127 -14
0 -20 -10 -25 -41z"/>
<path d="M249 903 c-32 -64 -73 -102 -151 -142 -28 -15 -54 -63 -43 -80 9 -15
52 -13 99 3 53 18 162 134 176 186 13 49 0 80 -34 80 -17 0 -29 -12 -47 -47z"/>
<path d="M922 838 c-15 -15 -16 -144 -1 -154 7 -4 8 -9 0 -17 -7 -7 -7 -16 0
-29 5 -10 7 -23 4 -29 -4 -5 -9 -33 -12 -62 -6 -59 -8 -61 -118 -118 -120 -63
-145 -91 -109 -126 12 -12 20 -13 37 -5 35 17 156 44 167 37 14 -8 3 -68 -22
-122 -13 -29 -29 -45 -51 -53 -18 -6 -40 -16 -49 -21 -10 -5 -27 -9 -38 -9
-11 0 -20 -4 -20 -10 0 -5 -7 -10 -15 -10 -25 0 -122 -40 -150 -62 -39 -31
-18 -42 79 -40 95 1 149 13 204 44 41 24 122 103 122 120 0 5 8 22 18 36 25
38 39 87 47 162 4 36 9 81 11 100 5 38 -11 214 -27 297 -7 35 -18 58 -32 68
-26 18 -30 18 -45 3z"/>
<path d="M497 621 c-2 -10 -1 -23 4 -28 7 -7 16 -74 24 -183 4 -47 -14 -164
-30 -204 -16 -37 -40 -61 -78 -75 -21 -8 -28 -17 -25 -34 2 -13 9 -21 18 -20
72 9 165 57 190 97 12 19 14 99 6 250 0 18 5 32 17 37 9 5 25 13 35 18 28 14
8 91 -24 91 -5 0 -22 13 -39 29 -40 38 -90 50 -98 22z"/>
<path d="M130 595 c-83 -41 -94 -54 -74 -83 16 -23 48 -29 59 -12 3 5 12 7 20
3 11 -4 15 -21 15 -62 1 -72 24 -194 39 -199 6 -2 8 -8 5 -13 -7 -11 19 -70
48 -111 11 -17 29 -28 42 -28 20 0 23 5 24 45 2 35 -6 62 -35 117 -34 67 -38
81 -45 192 -4 67 -6 136 -3 154 8 42 -8 41 -95 -3z"/>
</g>
</svg>
