<svg version="1.0" xmlns="http://www.w3.org/2000/svg"
 width="75.000000pt" height="95.000000pt" viewBox="0 0 75.000000 95.000000"
 preserveAspectRatio="xMidYMid meet">
<metadata>
Created by potrace 1.15, written by Peter Selinger 2001-2017
</metadata>
<g transform="translate(0.000000,95.000000) scale(0.100000,-0.100000)"
fill="#000000" stroke="none">
<path d="M297 863 c-4 -3 -7 -25 -7 -47 0 -59 -41 -119 -129 -186 -46 -35 -61
-50 -61 -61 0 -15 57 -10 70 6 7 8 17 15 22 15 5 0 15 6 22 13 8 6 23 19 36
27 12 8 35 28 51 43 29 28 29 28 63 2 55 -42 124 -73 151 -67 41 7 30 28 -35
63 -67 36 -130 109 -130 150 0 37 -33 63 -53 42z"/>
<path d="M662 808 c-6 -35 -14 -93 -18 -131 -5 -51 -13 -77 -35 -107 -37 -50
-36 -60 1 -60 31 0 31 0 25 -90 -6 -103 -21 -135 -83 -181 -43 -31 -69 -32
-53 -1 5 10 5 40 -2 73 -14 80 -9 89 51 82 41 -4 50 -2 56 12 9 24 -4 37 -64
65 -27 13 -52 31 -55 40 -3 10 -14 25 -24 34 -15 14 -21 15 -27 5 -4 -7 -7
-96 -6 -198 1 -172 0 -187 -20 -223 -12 -21 -28 -38 -35 -38 -19 0 -27 -28
-13 -45 25 -30 114 34 125 91 5 32 9 34 44 34 48 0 130 60 144 107 3 10 12 36
20 58 11 28 17 102 21 254 5 204 4 216 -15 248 -11 18 -22 33 -24 33 -2 0 -8
-28 -13 -62z"/>
<path d="M206 476 c-28 -24 -52 -32 -129 -43 -28 -4 -37 -9 -33 -20 3 -8 6
-17 6 -19 0 -2 11 -4 24 -4 14 0 28 -4 31 -10 3 -5 22 -10 41 -10 30 0 34 -3
34 -27 3 -183 33 -313 72 -313 19 0 20 3 12 52 -11 65 -7 263 7 342 8 47 8 61
-3 67 -20 13 -30 10 -62 -15z"/>
</g>
</svg>
