<svg version="1.0" xmlns="http://www.w3.org/2000/svg"
 width="83.000000pt" height="131.000000pt" viewBox="0 0 83.000000 131.000000"
 preserveAspectRatio="xMidYMid meet">
<metadata>
Created by potrace 1.15, written by Peter Selinger 2001-2017
</metadata>
<g transform="translate(0.000000,131.000000) scale(0.100000,-0.100000)"
fill="#000000" stroke="none">
<path d="M448 1127 c-43 -68 -97 -121 -181 -177 -20 -14 -37 -28 -37 -31 0 -4
-13 -12 -30 -19 -17 -7 -30 -16 -30 -20 0 -4 -8 -10 -17 -13 -43 -14 -110 -64
-99 -74 14 -14 183 63 194 90 2 4 9 7 16 7 7 0 34 20 62 45 27 24 52 44 55 45
3 0 19 11 35 25 16 14 34 25 39 25 10 0 27 -23 50 -66 34 -65 272 -314 301
-314 34 0 24 31 -28 83 -197 200 -248 275 -248 361 0 34 -24 76 -43 76 -7 0
-24 -19 -39 -43z"/>
<path d="M283 757 c-12 -7 -44 -33 -72 -59 -28 -27 -55 -48 -59 -48 -15 -1
-54 -37 -45 -43 10 -6 76 22 81 35 2 4 9 8 15 8 7 0 25 11 41 25 53 46 54 41
26 -169 -7 -49 -9 -102 -6 -118 8 -42 41 -84 75 -96 50 -17 54 1 11 48 -22 25
-43 59 -46 78 -7 34 5 130 26 212 20 80 23 110 10 125 -15 18 -28 18 -57 2z"/>
<path d="M456 719 c-3 -17 -6 -82 -6 -144 0 -91 -4 -123 -20 -160 -11 -26 -20
-55 -20 -66 0 -74 77 91 84 181 3 36 9 79 12 97 6 31 6 31 55 -18 27 -27 52
-49 57 -49 4 0 25 -16 45 -35 36 -34 77 -47 77 -24 0 13 -209 222 -238 238
-32 17 -39 14 -46 -20z"/>
<path d="M557 433 c-4 -3 -7 -41 -7 -83 0 -114 -6 -135 -44 -148 -18 -7 -67
-12 -110 -12 -78 0 -122 -12 -110 -31 4 -6 53 -10 128 -8 121 2 121 2 118 -26
-8 -70 -50 -88 -194 -80 -38 2 -68 1 -68 -4 0 -19 58 -31 152 -31 97 0 102 1
124 27 18 21 24 43 29 102 3 42 9 112 14 156 4 45 6 95 3 113 -4 30 -20 41
-35 25z"/>
</g>
</svg>
