<svg version="1.0" xmlns="http://www.w3.org/2000/svg"
 width="61.000000pt" height="99.000000pt" viewBox="0 0 61.000000 99.000000"
 preserveAspectRatio="xMidYMid meet">
<metadata>
Created by potrace 1.15, written by Peter Selinger 2001-2017
</metadata>
<g transform="translate(0.000000,99.000000) scale(0.100000,-0.100000)"
fill="#000000" stroke="none">
<path d="M378 805 c-3 -4 -27 -9 -54 -13 -26 -4 -49 -13 -52 -21 -3 -10 8 -12
54 -10 58 4 58 4 67 -35 8 -30 7 -42 -4 -50 -55 -43 -91 -145 -79 -225 5 -37
25 -53 28 -24 1 10 4 45 7 78 7 65 22 105 40 105 10 0 25 -59 42 -172 3 -21 9
-38 14 -38 13 0 11 88 -2 171 -11 63 -8 92 7 77 11 -12 36 -124 43 -191 8 -89
27 -88 23 1 -5 117 -9 139 -30 183 -19 37 -20 47 -9 86 15 57 3 77 -49 81 -22
2 -42 0 -46 -3z"/>
<path d="M210 457 c0 -50 -6 -85 -17 -108 -11 -22 -19 -66 -21 -126 -4 -82 3
-171 13 -162 2 2 9 59 15 126 12 115 25 164 36 136 14 -32 68 -96 72 -84 2 7
-1 18 -7 24 -6 6 -11 23 -11 38 0 15 -4 31 -10 34 -5 3 -10 26 -10 50 0 24 5
47 10 50 6 3 10 21 10 38 -1 29 -2 30 -14 15 -18 -25 -23 -23 -29 12 -4 18
-13 30 -22 30 -12 0 -15 -14 -15 -73z"/>
</g>
</svg>
