<svg version="1.0" xmlns="http://www.w3.org/2000/svg"
 width="69.000000pt" height="90.000000pt" viewBox="0 0 69.000000 90.000000"
 preserveAspectRatio="xMidYMid meet">
<metadata>
Created by potrace 1.15, written by Peter Selinger 2001-2017
</metadata>
<g transform="translate(0.000000,90.000000) scale(0.100000,-0.100000)"
fill="#000000" stroke="none">
<path d="M314 725 c-6 -32 -9 -35 -61 -45 -56 -12 -104 -46 -127 -92 -7 -14
-13 -84 -14 -178 -3 -200 -8 -233 -45 -302 -36 -67 -28 -88 14 -38 59 69 71
111 79 280 4 85 11 172 15 193 8 42 54 87 88 87 12 0 39 3 60 6 35 6 37 5 37
-21 0 -20 12 -39 39 -64 29 -27 37 -41 31 -51 -7 -12 -12 -12 -28 3 -37 34
-57 13 -27 -30 14 -20 13 -21 -20 -27 -20 -4 -44 -2 -56 5 -21 11 -21 11 11
40 40 37 32 49 -15 24 -43 -24 -60 -11 -22 17 15 11 27 26 27 34 0 19 -10 18
-35 -6 -20 -18 -23 -19 -35 -5 -38 45 -41 -20 -4 -93 17 -34 34 -54 49 -58 23
-6 23 -7 8 -42 -8 -20 -26 -52 -39 -71 -30 -44 -30 -84 -3 -136 28 -54 44 -69
64 -61 15 5 14 10 -9 37 -18 21 -26 42 -26 70 0 45 11 48 55 19 17 -11 36 -20
43 -20 24 0 11 20 -28 45 -59 37 -54 57 13 49 58 -7 57 3 -4 35 -39 21 -55 71
-22 71 10 0 36 3 58 6 33 6 38 4 28 -7 -18 -19 -16 -46 7 -95 21 -42 21 -42 0
-80 -11 -22 -20 -51 -20 -65 0 -33 35 -79 61 -79 24 0 24 6 -1 37 -26 33 -25
41 5 85 32 47 31 64 -2 112 -22 34 -25 43 -15 68 8 23 8 28 -5 28 -14 0 -14 3
0 23 8 12 18 43 22 67 8 48 21 80 33 80 23 0 35 -72 37 -219 2 -128 6 -165 23
-206 41 -103 53 -125 67 -125 20 0 19 8 -11 76 -25 55 -27 73 -33 254 -7 203
-13 232 -58 272 -25 23 -87 48 -118 48 -22 0 -30 8 -42 40 -20 49 -40 51 -49
5z m154 -110 c10 -10 -12 -45 -29 -45 -22 0 -59 34 -59 54 0 11 8 12 42 4 23
-5 44 -11 46 -13z"/>
</g>
</svg>
