<svg version="1.0" xmlns="http://www.w3.org/2000/svg"
 width="77.000000pt" height="137.000000pt" viewBox="0 0 77.000000 137.000000"
 preserveAspectRatio="xMidYMid meet">
<metadata>
Created by potrace 1.15, written by Peter Selinger 2001-2017
</metadata>
<g transform="translate(0.000000,137.000000) scale(0.100000,-0.100000)"
fill="#000000" stroke="none">
<path d="M76 1268 c-3 -7 -7 -69 -9 -138 -8 -220 -17 -343 -28 -383 -7 -27 -7
-43 0 -50 16 -16 38 -1 44 33 8 35 54 96 98 129 30 22 30 22 67 -5 20 -16 43
-34 50 -40 6 -7 21 -15 31 -19 17 -5 27 -23 45 -77 3 -10 13 -18 22 -18 13 0
15 7 10 33 -11 61 -25 242 -20 260 3 9 1 17 -5 17 -7 0 -11 23 -11 58 0 70
-18 182 -31 198 -16 20 -45 5 -86 -43 -21 -25 -41 -51 -46 -57 -5 -7 -14 -3
-28 14 -78 94 -96 109 -103 88z m236 -138 c1 -33 0 -60 -5 -60 -10 0 -67 55
-67 65 0 14 42 55 56 55 8 0 13 -21 16 -60z m-164 20 c23 -29 23 -29 1 -55
-13 -14 -26 -25 -31 -25 -4 0 -8 25 -8 55 0 30 3 55 8 54 4 0 17 -13 30 -29z
m115 -100 c15 -13 27 -28 27 -33 0 -5 -18 -27 -41 -49 -40 -39 -40 -39 -82 -2
-23 21 -43 41 -45 44 -1 4 16 26 40 48 36 35 44 39 58 28 8 -7 27 -24 43 -36z
m80 -220 c-2 -2 -7 0 -11 5 -4 6 -24 23 -44 38 -51 38 -49 48 12 90 25 18 25
18 36 -55 7 -40 10 -75 7 -78z m-174 74 c1 -5 -15 -26 -35 -45 -35 -32 -36
-33 -31 -9 4 14 7 44 7 68 0 44 0 44 29 20 17 -13 30 -28 30 -34z"/>
<path d="M662 1108 c-12 -23 -11 -86 3 -259 10 -127 0 -157 -81 -236 -35 -34
-64 -67 -64 -72 0 -21 19 -20 47 2 15 12 49 37 74 54 46 32 46 32 57 -18 16
-66 15 -181 0 -216 -12 -26 -30 -45 -111 -114 -16 -14 -28 -31 -25 -39 3 -10
7 -10 18 1 8 8 31 25 50 39 61 42 108 95 119 137 12 44 6 208 -9 248 -6 15
-10 40 -10 56 0 17 -4 38 -9 47 -5 9 -12 71 -16 137 -3 66 -8 140 -10 165 -2
25 -3 55 -4 68 -1 12 -5 22 -9 22 -5 0 -14 -10 -20 -22z"/>
<path d="M200 690 c-63 -3 -123 -10 -132 -14 -27 -12 -22 -35 10 -42 32 -8 40
-19 83 -98 36 -68 32 -76 -43 -76 -34 0 -48 -4 -48 -14 0 -20 23 -26 79 -19
50 6 50 6 50 -96 1 -102 1 -102 -42 -99 -40 3 -42 5 -44 37 -4 80 -35 112 -48
50 -10 -42 4 -194 20 -233 17 -41 60 -71 113 -80 61 -9 111 19 159 91 17 25
21 219 5 235 -19 19 -32 -3 -32 -53 0 -49 0 -49 -49 -49 -56 0 -53 -12 -35
141 6 55 6 55 58 67 28 7 59 12 69 12 9 0 17 4 17 10 0 5 -30 10 -67 12 -66 3
-68 4 -64 28 8 60 79 150 118 150 20 0 43 24 32 34 -11 9 -106 12 -209 6z m78
-57 c-26 -53 -44 -83 -51 -83 -11 0 -28 19 -45 49 -12 20 -12 25 0 32 16 11
101 12 96 2z m52 -455 c0 -20 -24 -82 -40 -107 -12 -18 -25 -23 -62 -23 -70
-1 -98 21 -98 77 0 45 0 45 63 46 34 1 76 5 92 9 44 11 45 11 45 -2z"/>
</g>
</svg>
