<svg version="1.0" xmlns="http://www.w3.org/2000/svg"
 width="55.000000pt" height="83.000000pt" viewBox="0 0 55.000000 83.000000"
 preserveAspectRatio="xMidYMid meet">
<metadata>
Created by potrace 1.15, written by Peter Selinger 2001-2017
</metadata>
<g transform="translate(0.000000,83.000000) scale(0.100000,-0.100000)"
fill="#000000" stroke="none">
<path d="M276 565 c-3 -9 -3 -44 0 -79 6 -63 -8 -98 -21 -56 -3 11 -10 20 -14
20 -5 0 -14 14 -21 30 -7 17 -16 30 -21 30 -4 0 -9 15 -11 33 -4 32 -4 31 -32
-28 -15 -32 -36 -71 -47 -86 -20 -29 -25 -59 -10 -59 11 0 42 43 59 83 13 31
31 31 47 1 6 -10 25 -39 43 -63 17 -24 32 -53 32 -63 0 -10 -25 -57 -55 -103
-30 -47 -55 -90 -55 -97 0 -15 47 33 74 75 29 44 46 35 46 -25 0 -29 5 -60 10
-68 7 -11 10 2 10 43 0 31 3 57 7 57 4 0 26 -19 49 -41 67 -66 70 -41 4 33
-58 64 -60 68 -60 121 0 54 2 57 52 106 29 28 55 51 59 51 3 0 11 -12 18 -27
8 -16 17 -36 22 -45 5 -10 9 -24 9 -32 0 -7 7 -19 15 -26 12 -10 13 -6 8 27
-3 21 -16 62 -29 91 -22 49 -25 52 -45 42 -11 -7 -38 -27 -59 -46 -20 -19 -40
-34 -43 -34 -3 0 -7 32 -9 72 -3 68 -18 99 -32 63z"/>
</g>
</svg>
