<svg version="1.0" xmlns="http://www.w3.org/2000/svg"
 width="57.000000pt" height="81.000000pt" viewBox="0 0 57.000000 81.000000"
 preserveAspectRatio="xMidYMid meet">
<metadata>
Created by potrace 1.15, written by Peter Selinger 2001-2017
</metadata>
<g transform="translate(0.000000,81.000000) scale(0.100000,-0.100000)"
fill="#000000" stroke="none">
<path d="M284 578 c-7 -11 -13 -83 -14 -172 0 -30 0 -30 -21 -8 -11 13 -27 38
-34 57 -8 18 -19 37 -25 40 -16 10 -40 -14 -40 -39 0 -11 -9 -32 -20 -46 -11
-14 -20 -32 -20 -40 0 -9 -5 -21 -12 -28 -8 -8 -9 -15 -2 -22 7 -7 22 0 48 24
20 19 42 33 49 30 6 -2 25 -29 41 -58 30 -55 30 -55 -10 -101 -21 -26 -43 -53
-49 -61 -17 -24 3 -27 40 -5 20 11 40 21 46 21 5 0 9 -22 9 -50 0 -61 14 -64
32 -8 14 42 14 42 37 4 13 -20 28 -35 35 -33 23 7 16 45 -18 95 -37 55 -39 63
-37 129 1 33 8 50 33 78 18 19 38 35 43 35 6 0 17 -20 24 -45 13 -45 25 -56
34 -32 14 38 -26 188 -51 187 -4 0 -17 -20 -28 -43 -12 -23 -25 -41 -30 -40
-5 2 -10 27 -12 57 -2 37 -9 59 -21 71 -15 13 -21 14 -27 3z"/>
</g>
</svg>
