<svg version="1.0" xmlns="http://www.w3.org/2000/svg"
 width="55.000000pt" height="63.000000pt" viewBox="0 0 55.000000 63.000000"
 preserveAspectRatio="xMidYMid meet">
<metadata>
Created by potrace 1.15, written by Peter Selinger 2001-2017
</metadata>
<g transform="translate(0.000000,63.000000) scale(0.100000,-0.100000)"
fill="#000000" stroke="none">
<path d="M146 457 c-20 -49 -32 -212 -17 -222 17 -10 24 0 25 37 1 18 6 39 13
45 6 7 14 18 17 25 5 11 7 10 12 0 3 -7 17 -26 31 -42 25 -30 25 -30 -26 -97
-47 -64 -63 -103 -42 -103 5 0 20 15 32 32 47 67 59 72 59 26 0 -44 19 -110
30 -103 4 3 11 29 15 58 10 75 18 84 40 50 21 -32 41 -53 49 -53 15 0 -3 59
-24 80 -3 3 -11 17 -19 33 -8 15 -18 27 -23 27 -4 0 -8 19 -8 43 0 36 5 47 28
64 27 20 27 20 52 -34 38 -80 67 -69 36 14 -8 21 -20 59 -27 86 -7 26 -16 47
-19 47 -3 0 -19 -22 -35 -50 -36 -59 -55 -64 -55 -14 0 37 -15 74 -29 74 -5 0
-12 -24 -16 -52 -5 -29 -10 -45 -12 -35 -3 9 -8 17 -13 17 -4 0 -13 13 -20 30
-21 51 -37 56 -54 17z"/>
</g>
</svg>
