<svg version="1.0" xmlns="http://www.w3.org/2000/svg"
 width="72.000000pt" height="127.000000pt" viewBox="0 0 72.000000 127.000000"
 preserveAspectRatio="xMidYMid meet">
<metadata>
Created by potrace 1.15, written by Peter Selinger 2001-2017
</metadata>
<g transform="translate(0.000000,127.000000) scale(0.100000,-0.100000)"
fill="#000000" stroke="none">
<path d="M124 1109 c-6 -10 -2 -26 27 -123 14 -45 11 -153 -7 -236 -8 -41 -19
-93 -23 -115 -4 -23 -10 -45 -13 -50 -5 -9 -10 -37 -21 -125 -3 -24 13 -200
24 -270 12 -72 35 -118 51 -102 10 10 4 60 -27 202 -15 71 -15 112 -1 250 5
41 11 69 36 155 22 74 31 156 27 225 -9 140 -45 234 -73 189z"/>
<path d="M480 1066 c0 -14 -4 -36 -10 -50 -8 -23 -15 -25 -82 -28 -60 -2 -73
-6 -76 -20 -2 -12 3 -18 16 -18 21 0 32 -18 32 -50 0 -12 -10 -21 -30 -25 -16
-4 -30 -13 -30 -20 0 -7 14 -16 30 -20 30 -7 38 -19 20 -30 -14 -9 -12 -73 4
-120 14 -39 55 -75 86 -75 13 0 16 -15 18 -70 3 -68 2 -70 -21 -70 -31 0 -52
25 -66 78 -13 45 -30 56 -32 20 -4 -93 19 -134 82 -147 19 -4 34 -11 33 -16 0
-6 -22 -21 -47 -34 -28 -15 -52 -35 -59 -53 -7 -15 -16 -28 -19 -28 -14 0 -39
-173 -32 -214 12 -60 34 -14 53 109 17 110 37 144 88 145 23 0 23 0 16 -154
-5 -116 -4 -155 5 -161 25 -15 34 16 36 132 2 65 3 133 4 151 1 39 27 44 58 9
28 -31 35 -57 42 -172 5 -82 9 -100 23 -103 22 -4 25 20 15 148 -10 124 -24
154 -87 187 -25 13 -46 28 -48 33 -3 8 41 23 93 32 12 2 21 13 23 28 2 14 8
30 13 36 12 14 -5 69 -21 69 -8 0 -18 -15 -23 -34 -11 -43 -29 -61 -62 -61
-26 0 -26 1 -23 68 3 67 3 67 86 70 79 3 83 4 80 25 -3 21 -8 22 -93 23 -49 0
-100 1 -113 2 -25 2 -76 47 -68 60 2 4 51 9 108 10 108 3 128 11 128 46 0 31
20 54 50 58 37 5 32 32 -7 36 -26 3 -32 8 -35 30 -2 16 -10 28 -20 30 -14 3
-18 -3 -18 -27 0 -28 -3 -31 -30 -31 -23 0 -30 -4 -30 -20 0 -13 7 -20 19 -20
25 0 34 -14 26 -40 -4 -14 -15 -20 -36 -20 -29 0 -29 0 -29 85 0 61 4 85 13
86 6 1 46 0 88 -1 80 -2 101 8 79 36 -10 10 -32 14 -87 12 -76 -2 -98 8 -86
39 3 7 2 24 -1 38 -9 34 -46 35 -46 1z m-2 -208 c3 -88 3 -88 -38 -88 -28 0
-40 4 -40 14 0 8 -3 21 -6 30 -4 10 2 17 20 22 32 8 37 44 6 44 -15 0 -20 7
-20 25 0 14 -6 26 -12 26 -21 2 45 17 67 15 18 -1 20 -9 23 -88z"/>
<path d="M233 1054 c-3 -8 -1 -45 5 -82 11 -75 7 -180 -9 -231 -9 -26 -8 -35
2 -42 21 -13 23 -12 38 22 15 34 21 287 7 327 -9 25 -34 29 -43 6z"/>
<path d="M40 1032 c0 -10 5 -23 12 -30 20 -20 23 -163 3 -221 -9 -29 -14 -58
-11 -66 9 -24 33 -6 40 28 3 18 9 46 12 62 4 17 7 66 7 110 1 71 -2 84 -23
108 -27 31 -40 34 -40 9z"/>
<path d="M35 613 c-15 -37 -35 -160 -35 -218 0 -51 9 -108 37 -223 3 -12 9
-25 14 -28 18 -11 20 25 3 87 -19 73 -22 258 -5 302 21 55 8 132 -14 80z"/>
<path d="M215 593 c-41 -102 -45 -218 -11 -316 25 -74 38 -93 56 -82 13 8 6
54 -18 105 -23 51 -27 138 -8 212 9 35 16 72 16 81 0 22 -26 22 -35 0z"/>
</g>
</svg>
