<svg version="1.0" xmlns="http://www.w3.org/2000/svg"
 width="67.000000pt" height="82.000000pt" viewBox="0 0 67.000000 82.000000"
 preserveAspectRatio="xMidYMid meet">
<metadata>
Created by potrace 1.15, written by Peter Selinger 2001-2017
</metadata>
<g transform="translate(0.000000,82.000000) scale(0.100000,-0.100000)"
fill="#000000" stroke="none">
<path d="M423 753 c-7 -3 -13 -20 -13 -39 0 -34 0 -34 -45 -34 -41 0 -45 2
-45 24 0 13 -8 27 -17 30 -28 11 -36 -9 -19 -48 15 -35 16 -36 71 -36 75 0 69
-22 -8 -34 -31 -4 -57 -12 -57 -17 0 -5 59 -10 132 -11 94 -2 133 -7 136 -15
3 -10 -21 -13 -98 -13 -157 0 -180 -21 -180 -165 0 -81 9 -103 27 -70 7 12 39
15 162 17 110 2 156 7 158 15 3 9 -18 13 -73 15 -102 4 -115 26 -18 30 43 2
69 8 72 16 3 9 -13 12 -55 12 -110 0 -113 37 -3 42 88 4 82 22 -8 26 -86 3
-95 23 -16 33 59 7 94 18 94 27 -1 15 -40 52 -65 62 -14 5 -42 10 -61 10 -19
0 -34 5 -34 10 0 6 26 10 58 10 44 0 63 5 75 18 20 22 22 43 5 60 -20 20 -35
14 -47 -18 -9 -27 -14 -30 -50 -30 -38 0 -41 2 -41 29 0 31 -17 51 -37 44z m5
-236 c3 -14 -5 -17 -48 -17 -45 0 -51 2 -40 14 23 28 83 30 88 3z m2 -62 c0
-12 -13 -15 -60 -15 -47 0 -60 3 -60 15 0 12 13 15 60 15 47 0 60 -3 60 -15z
m0 -65 c0 -18 -7 -20 -60 -20 -43 0 -60 4 -60 13 0 23 11 27 67 27 46 0 53 -2
53 -20z"/>
<path d="M52 692 c-16 -16 -20 -40 -25 -163 -11 -243 -9 -385 7 -398 7 -6 21
-9 30 -5 12 5 16 0 16 -23 0 -45 70 -78 124 -57 21 8 21 34 0 34 -26 0 -14 54
13 58 14 2 25 12 29 26 3 12 4 131 2 263 -4 262 -7 273 -59 273 -35 0 -36 -5
-5 -33 24 -22 25 -26 31 -247 6 -200 5 -227 -9 -239 -15 -12 -16 5 -16 195 0
202 -4 254 -20 254 -4 0 -10 -118 -14 -262 -3 -144 -8 -263 -10 -266 -3 -2
-10 -1 -17 3 -9 6 -10 63 -5 239 4 127 10 241 13 254 3 15 1 22 -10 22 -17 0
-23 -53 -33 -288 -5 -111 -10 -162 -18 -159 -14 5 -18 162 -9 342 8 140 8 140
41 154 39 18 37 35 -6 39 -20 2 -37 -3 -50 -16z"/>
<path d="M340 313 c-60 -8 -61 -12 -76 -200 -7 -93 -3 -116 22 -106 13 5 15
15 9 59 -3 29 -3 74 0 99 7 40 10 45 34 45 35 0 69 25 73 53 2 16 11 23 31 25
23 3 27 0 27 -21 0 -33 16 -44 75 -54 50 -9 50 -9 46 -91 -3 -69 -1 -83 13
-88 10 -4 25 1 36 11 20 18 20 45 4 182 -8 62 -43 81 -165 87 -52 2 -110 2
-129 -1z m28 -50 c-2 -11 -14 -19 -31 -21 -33 -4 -36 15 -4 28 33 13 39 12 35
-7z m206 -3 c16 -16 0 -22 -38 -15 -22 5 -36 13 -36 22 0 12 7 14 32 9 18 -3
37 -11 42 -16z"/>
<path d="M350 134 c0 -61 5 -64 112 -64 63 0 68 2 74 24 3 13 4 38 2 56 -3 34
-3 34 -95 34 -93 1 -93 1 -93 -50z m142 0 c21 -13 -17 -34 -63 -34 -46 0 -49
1 -49 26 0 26 1 26 52 20 28 -4 56 -10 60 -12z"/>
</g>
</svg>
