<svg version="1.0" xmlns="http://www.w3.org/2000/svg"
 width="99.000000pt" height="95.000000pt" viewBox="0 0 99.000000 95.000000"
 preserveAspectRatio="xMidYMid meet">
<metadata>
Created by potrace 1.15, written by Peter Selinger 2001-2017
</metadata>
<g transform="translate(0.000000,95.000000) scale(0.100000,-0.100000)"
fill="#000000" stroke="none">
<path d="M397 841 c-10 -17 -37 -43 -61 -59 -43 -29 -44 -29 -57 -10 -44 65
-42 64 -77 24 -42 -48 -44 -98 -6 -122 23 -15 32 -16 75 -5 44 12 52 11 68 -3
25 -23 79 -20 118 7 30 20 33 27 33 72 0 34 -7 58 -20 75 -11 14 -20 31 -20
38 0 23 -36 12 -53 -17z m57 -63 c20 -56 -47 -123 -96 -97 -25 13 -53 39 -47
42 2 2 17 9 33 17 15 8 38 27 50 42 26 33 47 32 60 -4z m-185 -30 c21 -48 13
-68 -25 -68 -34 0 -48 32 -34 75 15 47 37 44 59 -7z"/>
<path d="M837 833 c-4 -11 -30 -51 -57 -88 -28 -36 -50 -69 -50 -73 0 -10 -38
-42 -50 -42 -6 0 -10 -4 -10 -10 0 -5 -7 -10 -16 -10 -15 0 -16 10 -11 80 4
44 3 80 -1 80 -14 0 -32 -66 -32 -118 0 -51 -1 -52 -40 -69 -42 -19 -51 -32
-22 -34 23 -2 24 -2 45 6 13 5 17 2 17 -12 0 -49 56 -233 71 -233 4 0 10 -11
13 -25 7 -29 -16 -78 -49 -106 -11 -10 -17 -20 -14 -23 3 -4 26 12 51 34 26
22 49 40 52 40 4 0 23 -15 42 -32 20 -18 52 -42 72 -53 21 -11 40 -24 43 -28
4 -5 15 -7 25 -5 17 4 17 6 2 12 -27 12 -148 132 -148 148 0 7 6 22 14 33 52
77 92 185 68 185 -5 0 -13 -8 -17 -17 -17 -46 -92 -162 -103 -163 -8 0 -16 9
-19 20 -3 11 -8 20 -12 20 -15 0 -47 105 -53 174 -3 38 -3 38 57 57 33 11 76
22 97 26 52 8 48 23 -7 23 -25 0 -45 3 -45 6 0 7 63 88 73 92 4 2 7 13 7 23 0
11 5 29 11 40 5 11 9 30 7 42 -4 22 -4 22 -11 0z"/>
<path d="M303 619 c-18 -5 -33 -14 -33 -19 0 -6 10 -6 26 1 31 11 37 7 40 -24
2 -31 -14 -47 -46 -47 -15 0 -41 -5 -59 -11 -18 -6 -34 -9 -37 -6 -7 6 17 57
28 57 4 0 8 4 8 9 0 5 -18 0 -40 -12 -35 -19 -40 -25 -35 -47 15 -63 17 -83 7
-103 -24 -53 -32 -80 -32 -108 0 -16 -4 -37 -9 -47 -12 -21 -51 -130 -51 -140
1 -21 40 47 40 70 0 15 4 30 10 33 5 3 10 15 10 26 0 10 4 19 8 19 4 0 14 21
21 48 29 105 46 138 65 123 6 -5 31 -16 56 -24 36 -12 46 -20 48 -41 3 -22 0
-26 -23 -26 -30 0 -65 -16 -65 -30 0 -6 11 -10 25 -10 16 0 25 -6 25 -16 0 -8
5 -12 10 -9 11 7 70 -15 70 -26 0 -9 76 -32 91 -27 8 3 -3 13 -26 23 -62 29
-86 50 -72 64 6 6 19 11 28 11 10 0 21 5 24 10 4 6 -8 10 -29 10 -29 0 -36 4
-36 19 0 22 16 36 53 45 15 3 27 11 27 17 0 13 25 39 39 39 12 0 24 -34 27
-75 9 -122 21 -215 27 -222 11 -10 6 164 -5 197 -12 36 -20 108 -19 164 1 55
-20 90 -50 81 -9 -3 -20 -1 -24 5 -8 12 -78 12 -122 -1z m131 -24 c31 -13 35
-18 26 -34 -7 -14 -18 -18 -46 -16 -20 2 -38 5 -40 8 -3 3 18 57 22 57 1 0 18
-7 38 -15z m16 -86 c0 -21 -53 -79 -72 -79 -17 0 -19 5 -15 36 3 20 11 41 19
45 19 12 68 11 68 -2z m-120 -39 c0 -22 -5 -40 -10 -40 -6 0 -29 12 -53 27
-42 26 -42 26 -12 39 17 7 40 13 53 14 19 0 22 -5 22 -40z"/>
<path d="M211 235 c-24 -19 -48 -35 -54 -35 -6 0 -8 -3 -4 -6 10 -11 117 53
117 70 0 13 -17 4 -59 -29z"/>
<path d="M407 184 c-3 -3 -3 -12 0 -20 7 -20 -22 -61 -60 -85 -29 -19 -29 -20
-7 -15 14 3 31 6 38 6 16 0 52 59 52 87 0 22 -13 37 -23 27z"/>
<path d="M283 173 c-45 -3 -53 -7 -53 -24 0 -10 5 -19 10 -19 6 0 10 -7 10
-16 0 -16 28 -50 35 -42 7 6 -18 58 -27 58 -20 0 -5 20 15 20 12 0 45 7 72 14
53 15 45 16 -62 9z"/>
<path d="M520 140 c0 -5 5 -10 10 -10 6 0 10 5 10 10 0 6 -4 10 -10 10 -5 0
-10 -4 -10 -10z"/>
</g>
</svg>
