<svg version="1.0" xmlns="http://www.w3.org/2000/svg"
 width="64.000000pt" height="124.000000pt" viewBox="0 0 64.000000 124.000000"
 preserveAspectRatio="xMidYMid meet">
<metadata>
Created by potrace 1.15, written by Peter Selinger 2001-2017
</metadata>
<g transform="translate(0.000000,124.000000) scale(0.100000,-0.100000)"
fill="#000000" stroke="none">
<path d="M164 1175 c10 -66 -1 -125 -24 -125 -30 0 -43 26 -36 73 5 33 3 47
-8 56 -26 22 -37 -18 -25 -85 11 -58 27 -84 51 -84 22 0 38 -22 38 -52 0 -21
5 -28 20 -28 16 0 20 7 20 35 0 25 5 38 18 42 9 4 23 12 29 19 7 7 17 14 23
16 13 4 24 90 16 122 -11 44 -36 32 -37 -16 -1 -60 -12 -92 -32 -96 -14 -3
-17 9 -19 80 -3 72 -5 83 -22 86 -17 4 -18 -1 -12 -43z"/>
<path d="M460 1122 c0 -55 -3 -71 -16 -76 -27 -10 -43 23 -38 76 4 37 2 48
-10 48 -18 0 -26 -22 -26 -74 0 -45 25 -86 52 -86 22 0 36 -20 40 -59 3 -33 4
-34 21 -17 9 10 17 28 17 41 0 24 17 35 52 35 18 0 55 31 59 49 9 38 4 83 -12
97 -18 16 -19 16 -19 -8 0 -42 -28 -98 -49 -98 -13 0 -19 7 -19 23 1 51 -18
112 -35 115 -15 3 -17 -6 -17 -66z"/>
<path d="M260 944 c0 -9 9 -29 21 -45 20 -29 22 -29 115 -29 107 0 131 -11
120 -55 -6 -25 -6 -25 -137 -25 -173 0 -199 -13 -199 -99 0 -27 7 -44 25 -61
24 -22 31 -23 162 -22 80 1 149 -3 165 -9 51 -21 66 -136 26 -195 -24 -35 -26
-36 -126 -64 -100 -28 -126 -64 -138 -190 -12 -117 -11 -134 7 -138 20 -4 34
43 38 121 4 95 21 139 61 159 19 9 46 17 60 18 35 1 96 23 127 46 41 31 53
164 22 245 -17 43 -46 50 -197 43 -166 -7 -192 -1 -192 50 0 22 6 37 18 42 9
5 84 11 166 14 150 5 150 5 159 39 5 19 6 49 3 67 -6 28 -11 32 -49 38 -23 3
-75 7 -115 9 -64 2 -76 6 -98 30 -28 31 -44 35 -44 11z"/>
<path d="M143 512 c-55 -3 -63 -6 -63 -22 0 -19 8 -20 209 -20 202 0 240 5
215 30 -9 9 -255 17 -361 12z"/>
</g>
</svg>
