<svg version="1.0" xmlns="http://www.w3.org/2000/svg"
 width="77.000000pt" height="89.000000pt" viewBox="0 0 77.000000 89.000000"
 preserveAspectRatio="xMidYMid meet">
<metadata>
Created by potrace 1.15, written by Peter Selinger 2001-2017
</metadata>
<g transform="translate(0.000000,89.000000) scale(0.100000,-0.100000)"
fill="#000000" stroke="none">
<path d="M335 677 c-10 -7 -25 -18 -33 -24 -7 -7 -32 -22 -55 -33 -72 -34
-158 -91 -152 -100 5 -8 65 9 75 21 3 4 23 15 45 26 22 11 67 37 100 57 60 37
60 37 66 -21 4 -32 7 -101 8 -155 2 -96 2 -96 -70 -112 -39 -9 -80 -14 -90
-11 -18 6 -19 2 -18 -50 1 -30 6 -58 11 -61 4 -3 8 -20 9 -37 0 -18 8 -59 18
-92 14 -50 20 -59 36 -57 11 2 65 10 120 17 124 16 246 42 258 54 6 6 6 58 2
130 -9 148 -7 146 -140 136 -92 -7 -92 -7 -99 36 -8 61 -10 208 -2 216 3 4 39
1 79 -6 121 -22 147 -24 147 -13 0 6 -9 14 -20 17 -11 3 -20 10 -20 14 0 4
-15 5 -34 3 -18 -2 -37 1 -40 7 -4 6 -17 11 -30 11 -12 0 -26 3 -30 7 -10 11
-79 33 -101 32 -11 0 -29 -6 -40 -12z m283 -355 c5 -9 10 -60 11 -114 3 -112
13 -102 -124 -118 -49 -6 -112 -15 -140 -19 -27 -5 -57 -8 -65 -6 -17 2 -31
65 -23 106 3 14 -2 40 -11 57 -20 39 -13 58 25 66 16 3 43 9 60 12 21 5 34 2
39 -7 7 -11 13 -9 30 6 20 18 73 30 152 32 27 1 41 -3 46 -15z"/>
</g>
</svg>
