<svg version="1.0" xmlns="http://www.w3.org/2000/svg"
 width="45.000000pt" height="69.000000pt" viewBox="0 0 45.000000 69.000000"
 preserveAspectRatio="xMidYMid meet">
<metadata>
Created by potrace 1.15, written by Peter Selinger 2001-2017
</metadata>
<g transform="translate(0.000000,69.000000) scale(0.100000,-0.100000)"
fill="#000000" stroke="none">
<path d="M176 493 c-3 -4 -6 -16 -6 -27 0 -12 -11 -43 -25 -70 -24 -48 -32
-86 -18 -86 4 0 17 10 29 21 26 24 24 26 38 -61 3 -19 9 -47 12 -63 6 -25 4
-27 -24 -27 -24 0 -34 7 -51 35 -32 55 -44 45 -36 -27 4 -35 12 -74 18 -87 21
-43 125 -65 184 -39 47 21 55 35 56 102 2 50 -2 68 -17 85 -30 33 -38 26 -30
-26 6 -41 5 -45 -10 -40 -10 4 -24 7 -32 7 -9 0 -14 12 -14 36 0 19 -5 44 -10
54 -15 28 -2 70 21 70 10 0 23 -9 29 -20 11 -21 46 -29 36 -7 -3 6 -9 19 -12
28 -3 8 -19 23 -35 33 -16 9 -29 24 -29 32 0 8 -4 14 -9 14 -5 0 -14 13 -21
29 -12 29 -33 45 -44 34z m74 -355 c17 -11 22 -10 30 2 5 8 12 11 17 7 4 -5
-3 -17 -17 -28 -32 -25 -113 -23 -118 3 -2 12 5 18 25 21 15 2 31 5 36 6 4 0
16 -5 27 -11z"/>
</g>
</svg>
