<svg version="1.0" xmlns="http://www.w3.org/2000/svg"
 width="45.000000pt" height="69.000000pt" viewBox="0 0 45.000000 69.000000"
 preserveAspectRatio="xMidYMid meet">
<metadata>
Created by potrace 1.15, written by Peter Selinger 2001-2017
</metadata>
<g transform="translate(0.000000,69.000000) scale(0.100000,-0.100000)"
fill="#000000" stroke="none">
<path d="M206 526 c7 -19 -30 -102 -66 -148 -48 -59 -36 -79 18 -33 50 42 48
48 42 -167 0 -5 -15 -8 -34 -8 -29 0 -36 5 -45 30 -5 17 -17 40 -27 53 -15 21
-16 17 -10 -78 5 -70 11 -104 23 -117 8 -10 20 -15 25 -12 5 3 16 0 24 -7 21
-17 141 -14 159 5 25 25 35 64 35 139 -1 65 -14 107 -34 107 -3 0 -6 -23 -6
-50 0 -45 -3 -52 -25 -60 -39 -15 -56 -3 -50 34 2 17 7 57 10 89 2 32 7 63 11
68 3 6 20 1 40 -12 58 -36 62 -16 6 40 -35 35 -52 60 -52 77 0 14 -5 34 -10
45 -12 22 -42 26 -34 5z m104 -410 c0 -39 -97 -61 -155 -34 -28 13 -30 19 -13
36 18 18 168 16 168 -2z"/>
</g>
</svg>
