<svg version="1.0" xmlns="http://www.w3.org/2000/svg"
 width="66.000000pt" height="94.000000pt" viewBox="0 0 66.000000 94.000000"
 preserveAspectRatio="xMidYMid meet">
<metadata>
Created by potrace 1.15, written by Peter Selinger 2001-2017
</metadata>
<g transform="translate(0.000000,94.000000) scale(0.100000,-0.100000)"
fill="#000000" stroke="none">
<path d="M231 538 c1 -57 4 -128 7 -158 6 -46 10 -55 27 -55 16 0 21 8 23 43
2 33 7 42 22 42 19 0 30 -19 30 -52 0 -13 6 -18 18 -16 13 3 17 13 17 48 0 45
0 45 -45 50 -42 5 -45 7 -45 35 0 26 4 30 32 33 41 4 55 22 51 69 -4 47 -20
49 -29 4 -13 -62 -59 -71 -59 -12 0 52 -8 71 -31 71 -17 0 -19 -8 -18 -102z"/>
<path d="M427 634 c-13 -13 -8 -219 6 -237 6 -9 30 -17 52 -19 37 -3 40 -5 46
-40 3 -21 4 -40 1 -42 -2 -3 -19 2 -37 11 -35 17 -69 11 -63 -10 3 -6 13 -14
24 -16 53 -10 58 -46 8 -67 -46 -19 -39 -40 13 -36 46 2 46 2 59 -95 5 -42 10
-53 25 -53 34 0 37 55 8 127 -11 26 -11 42 0 85 24 104 24 115 1 148 -18 25
-28 30 -61 30 -37 0 -39 2 -39 29 0 28 3 30 43 33 39 3 43 5 51 39 7 28 5 41
-9 63 -24 37 -40 28 -41 -23 -1 -41 -20 -69 -36 -53 -4 4 -8 34 -10 67 -2 44
-7 61 -18 63 -9 1 -19 0 -23 -4z"/>
<path d="M63 608 c4 -12 7 -31 7 -40 0 -10 16 -28 35 -40 35 -23 46 -55 23
-62 -7 -3 -25 -7 -40 -10 -24 -5 -28 -12 -28 -39 0 -47 10 -77 26 -77 9 0 14
12 14 33 0 17 4 38 9 46 14 21 31 3 31 -32 0 -41 14 -62 34 -54 14 6 15 24 10
144 -4 76 -11 142 -16 148 -12 14 -28 -13 -28 -48 0 -22 -4 -28 -17 -25 -13 2
-18 13 -18 38 0 29 -4 36 -24 38 -21 3 -23 1 -18 -20z"/>
<path d="M102 251 c-43 -8 -46 -25 -4 -29 32 -3 32 -3 32 -68 0 -64 0 -64 -34
-64 -37 0 -55 -15 -38 -32 7 -7 50 -6 133 1 159 14 174 24 174 108 0 88 -7 93
-129 92 -55 -1 -116 -4 -134 -8z m208 -31 c22 -13 18 -90 -6 -107 -24 -18 -51
-16 -58 3 -8 21 -8 99 1 107 9 10 46 8 63 -3z m-111 -14 c7 -8 11 -36 9 -63
-3 -41 -6 -48 -25 -51 -26 -4 -27 4 -17 82 7 48 14 55 33 32z"/>
</g>
</svg>
