<svg version="1.0" xmlns="http://www.w3.org/2000/svg"
 width="59.000000pt" height="88.000000pt" viewBox="0 0 59.000000 88.000000"
 preserveAspectRatio="xMidYMid meet">
<metadata>
Created by potrace 1.15, written by Peter Selinger 2001-2017
</metadata>
<g transform="translate(0.000000,88.000000) scale(0.100000,-0.100000)"
fill="#000000" stroke="none">
<path d="M402 693 c-31 -16 -61 -40 -73 -60 -21 -33 -21 -33 1 -64 12 -17 33
-34 46 -40 21 -7 23 -11 12 -28 -14 -23 -70 -51 -103 -51 -27 0 -28 4 -60 153
-16 75 -18 78 -43 75 -25 -3 -27 -6 -23 -43 1 -22 9 -58 16 -80 7 -22 15 -61
19 -86 5 -43 3 -48 -17 -53 -36 -9 -85 -61 -96 -102 -6 -22 -11 -85 -11 -140
0 -79 3 -104 15 -114 30 -25 39 4 41 123 2 143 16 180 71 189 17 2 27 -7 46
-42 84 -156 112 -197 178 -257 32 -30 58 -44 87 -49 64 -10 54 13 -31 75 -50
36 -87 74 -114 115 -51 77 -95 164 -88 175 2 5 20 12 39 15 19 4 58 22 86 41
40 27 57 33 80 28 22 -4 30 -2 30 9 0 16 -41 58 -56 58 -17 0 -94 40 -94 48 0
15 44 48 93 70 49 23 55 30 35 50 -17 17 -25 15 -86 -15z"/>
</g>
</svg>
