<svg version="1.0" xmlns="http://www.w3.org/2000/svg"
 width="62.000000pt" height="83.000000pt" viewBox="0 0 62.000000 83.000000"
 preserveAspectRatio="xMidYMid meet">
<metadata>
Created by potrace 1.15, written by Peter Selinger 2001-2017
</metadata>
<g transform="translate(0.000000,83.000000) scale(0.100000,-0.100000)"
fill="#000000" stroke="none">
<path d="M326 709 c-3 -8 -6 -23 -8 -34 -3 -16 -14 -21 -62 -27 -64 -8 -71
-11 -61 -27 3 -6 33 -11 66 -11 56 0 59 -1 59 -24 0 -22 -5 -25 -60 -31 -33
-4 -63 -12 -66 -17 -12 -19 21 -29 74 -23 52 6 52 6 52 -22 0 -42 -12 -54 -65
-61 -82 -12 -63 -42 28 -42 34 0 37 -2 37 -29 0 -36 -11 -44 -69 -51 -68 -8
-64 -28 6 -32 58 -3 58 -3 56 -37 -2 -39 -11 -47 -70 -56 -27 -4 -43 -11 -40
-18 5 -15 181 -22 229 -9 50 13 42 36 -12 40 -48 3 -70 21 -70 58 0 17 8 24
33 29 17 4 40 12 51 17 25 13 4 28 -41 28 -26 0 -34 5 -39 25 -9 38 2 55 36
55 17 0 45 7 61 16 53 27 56 19 64 -140 4 -81 11 -149 16 -151 4 -3 13 4 20
17 8 16 10 57 4 152 -4 72 -8 174 -9 226 -1 94 -1 95 -30 109 -16 7 -58 16
-93 19 -51 4 -63 8 -63 22 0 24 -28 47 -34 29z m167 -106 c13 -3 17 -13 15
-31 -3 -29 -11 -30 -105 -17 -37 5 -43 10 -43 30 0 13 6 26 13 28 12 6 87 -1
120 -10z m-48 -95 c14 -6 25 -15 25 -19 0 -10 -46 -34 -82 -43 -26 -6 -28 -4
-28 24 0 22 6 33 23 40 30 12 32 12 62 -2z"/>
<path d="M90 529 c0 -100 2 -110 18 -107 15 3 17 18 20 111 3 102 2 107 -18
107 -19 0 -20 -6 -20 -111z"/>
<path d="M90 305 c-10 -12 -11 -41 -6 -121 4 -59 10 -112 12 -119 12 -30 68
-40 224 -39 155 0 206 10 197 37 -3 9 -50 11 -179 8 -176 -4 -176 -4 -193 22
-12 18 -17 54 -20 124 -4 98 -11 117 -35 88z"/>
</g>
</svg>
