<svg version="1.0" xmlns="http://www.w3.org/2000/svg"
 width="69.000000pt" height="86.000000pt" viewBox="0 0 69.000000 86.000000"
 preserveAspectRatio="xMidYMid meet">
<metadata>
Created by potrace 1.15, written by Peter Selinger 2001-2017
</metadata>
<g transform="translate(0.000000,86.000000) scale(0.100000,-0.100000)"
fill="#000000" stroke="none">
<path d="M484 626 c-8 -20 -30 -27 -99 -33 -43 -3 -71 1 -98 13 -35 16 -39 16
-54 1 -15 -15 -13 -20 35 -65 29 -27 52 -52 52 -56 0 -4 -49 -5 -109 -1 -103
7 -110 6 -120 -13 -20 -37 5 -43 142 -36 125 7 125 7 177 -42 52 -49 52 -49
22 -74 -36 -30 -58 -72 -66 -125 -7 -46 3 -69 30 -63 14 2 21 16 27 55 8 50
42 103 67 103 18 0 50 -89 50 -140 0 -45 -2 -48 -31 -54 -17 -3 -108 -9 -202
-12 -164 -6 -207 -13 -207 -34 0 -27 44 -30 242 -18 198 12 203 12 232 39 28
25 31 33 31 91 0 47 -6 74 -23 107 -24 45 -24 45 2 64 22 16 24 22 15 39 -9
17 -18 20 -54 15 -36 -5 -46 -3 -65 18 -23 25 -23 25 59 25 62 0 82 3 79 13
-9 25 -53 37 -128 35 -69 -2 -79 0 -113 26 -20 16 -37 32 -37 37 0 5 35 8 79
7 66 -3 82 0 100 16 25 23 27 39 5 60 -19 20 -33 20 -40 2z"/>
<path d="M207 403 c-4 -3 -7 -21 -7 -39 0 -33 0 -33 -57 -36 -57 -3 -58 -3
-58 -33 0 -30 1 -30 53 -29 52 2 52 2 52 -36 0 -36 20 -70 40 -70 22 0 40 34
40 76 0 44 0 44 39 44 75 0 76 46 1 52 -39 3 -45 6 -48 28 -6 41 -35 64 -55
43z"/>
</g>
</svg>
