<svg version="1.0" xmlns="http://www.w3.org/2000/svg"
 width="62.000000pt" height="78.000000pt" viewBox="0 0 62.000000 78.000000"
 preserveAspectRatio="xMidYMid meet">
<metadata>
Created by potrace 1.15, written by Peter Selinger 2001-2017
</metadata>
<g transform="translate(0.000000,78.000000) scale(0.100000,-0.100000)"
fill="#000000" stroke="none">
<path d="M360 681 c-5 -11 -10 -36 -10 -55 0 -35 0 -35 -137 -38 -115 -3 -138
-6 -138 -18 0 -12 24 -16 139 -20 139 -5 139 -5 151 -53 7 -29 25 -61 44 -81
31 -32 31 -32 31 -204 0 -159 1 -172 18 -172 36 0 42 19 37 124 -3 56 -8 121
-10 144 -5 44 -5 44 46 37 45 -6 50 -5 47 10 -3 19 -16 28 -63 42 -28 8 -30
12 -30 53 0 51 -21 62 -41 22 -12 -24 -12 -24 -28 -1 -9 13 -16 36 -16 51 0
28 0 28 71 28 62 0 70 2 67 18 -3 14 -16 18 -76 20 -62 2 -72 5 -72 21 0 14
11 19 51 24 54 7 79 20 79 44 0 24 -30 27 -50 5 -21 -22 -58 -20 -67 4 -8 20
-31 17 -43 -5z"/>
<path d="M223 488 c-4 -7 -9 -109 -11 -226 -3 -214 -3 -214 20 -210 23 3 23 3
26 203 1 110 0 210 -3 223 -6 24 -20 29 -32 10z"/>
<path d="M100 407 c-13 -7 -30 -24 -37 -37 -16 -32 -17 -125 0 -138 22 -18 71
-22 91 -7 23 17 15 31 -24 38 -25 5 -30 11 -30 34 0 52 10 71 42 77 21 4 29
11 26 23 -4 22 -35 27 -68 10z"/>
<path d="M293 413 c-20 -8 -15 -23 11 -33 41 -15 41 -120 0 -120 -24 0 -12
-35 13 -38 12 -2 31 6 44 19 19 19 21 28 15 78 -5 43 -12 61 -32 79 -26 23
-30 24 -51 15z"/>
</g>
</svg>
