<svg version="1.0" xmlns="http://www.w3.org/2000/svg"
 width="63.000000pt" height="82.000000pt" viewBox="0 0 63.000000 82.000000"
 preserveAspectRatio="xMidYMid meet">
<metadata>
Created by potrace 1.15, written by Peter Selinger 2001-2017
</metadata>
<g transform="translate(0.000000,82.000000) scale(0.100000,-0.100000)"
fill="#000000" stroke="none">
<path d="M233 733 c-17 -6 -16 -33 2 -57 8 -11 15 -32 15 -48 0 -28 0 -28 -94
-28 -109 0 -126 -4 -126 -32 0 -20 4 -20 85 -14 50 4 85 3 85 -2 0 -5 -7 -29
-15 -52 -8 -23 -15 -64 -15 -91 0 -48 0 -49 -32 -50 -50 -2 -83 -13 -83 -29 0
-12 14 -15 60 -15 60 0 60 0 57 -61 -4 -65 7 -86 33 -64 10 8 15 31 15 66 0
57 1 58 70 66 14 2 26 10 28 21 3 14 -4 17 -49 17 -52 0 -52 0 -45 61 3 34 6
80 6 101 0 37 2 39 27 36 25 -3 29 -9 40 -61 7 -32 25 -76 39 -99 27 -42 82
-166 91 -204 4 -16 -3 -24 -29 -36 -36 -17 -167 -37 -263 -41 -48 -2 -60 -5
-63 -19 -3 -16 7 -18 99 -18 112 0 219 15 261 36 39 20 43 18 63 -27 30 -65
74 -87 96 -48 9 18 6 26 -19 53 -55 57 -63 85 -46 150 9 36 14 90 12 149 -3
85 -5 92 -24 95 -27 4 -34 -19 -34 -123 0 -98 -12 -124 -34 -74 -45 101 -84
196 -89 214 -2 11 -8 28 -12 38 -7 16 2 17 113 17 89 0 122 4 131 14 21 25
-13 39 -79 33 -32 -3 -61 -3 -64 0 -3 3 8 23 25 44 32 40 36 84 9 84 -8 0 -33
-27 -55 -60 -36 -53 -45 -60 -78 -63 -27 -2 -37 1 -37 11 0 23 -39 104 -52
109 -7 3 -19 3 -25 1z"/>
</g>
</svg>
