<svg version="1.0" xmlns="http://www.w3.org/2000/svg"
 width="63.000000pt" height="123.000000pt" viewBox="0 0 63.000000 123.000000"
 preserveAspectRatio="xMidYMid meet">
<metadata>
Created by potrace 1.15, written by Peter Selinger 2001-2017
</metadata>
<g transform="translate(0.000000,123.000000) scale(0.100000,-0.100000)"
fill="#000000" stroke="none">
<path d="M276 1063 c-3 -4 -6 -16 -6 -29 0 -18 -86 -163 -109 -184 -4 -3 -17
-24 -30 -48 -21 -40 -23 -51 -18 -155 6 -111 22 -241 33 -258 15 -25 23 9 19
79 -12 186 -12 268 -1 295 6 15 13 27 16 27 3 0 5 -36 5 -80 1 -86 9 -106 30
-75 8 11 19 26 26 33 13 16 5 111 -13 150 -12 23 -11 31 2 57 8 16 19 33 23
36 5 4 14 17 21 30 6 13 18 25 26 26 8 2 50 -30 93 -71 78 -74 78 -74 82 -263
3 -103 8 -204 13 -223 8 -35 8 -35 14 10 12 86 10 398 -3 421 -16 31 -216 229
-223 222z"/>
<path d="M314 883 c4 -16 7 -35 7 -43 0 -15 -15 -97 -22 -115 -1 -5 0 -27 4
-47 7 -32 4 -42 -18 -67 -22 -24 -27 -40 -29 -93 -3 -101 3 -107 58 -53 20 19
39 35 42 35 9 0 -7 -64 -17 -71 -5 -3 -11 -31 -14 -62 -4 -64 -10 -77 -30 -77
-9 0 -16 15 -20 38 -13 79 -40 89 -39 14 0 -45 24 -142 47 -189 12 -25 39 -30
55 -10 6 7 14 43 18 81 4 37 13 73 20 81 23 22 70 115 59 115 -3 0 -18 -14
-34 -31 -33 -34 -53 -23 -28 15 18 27 41 141 32 156 -14 22 -50 9 -73 -25 -28
-43 -42 -45 -42 -4 0 31 17 52 68 86 29 20 31 58 1 50 -26 -7 -35 16 -20 49
13 30 31 23 31 -13 0 -15 7 -27 18 -29 17 -5 42 -47 42 -71 0 -7 5 -13 10 -13
13 0 13 15 0 120 -13 105 -18 120 -36 120 -9 0 -14 -11 -15 -32 -1 -30 -2 -29
-14 15 -15 53 -40 97 -56 97 -7 0 -9 -10 -5 -27z m6 -659 c0 -8 -4 -14 -10
-14 -5 0 -10 9 -10 21 0 11 5 17 10 14 6 -3 10 -13 10 -21z"/>
</g>
</svg>
