<svg version="1.0" xmlns="http://www.w3.org/2000/svg"
 width="65.000000pt" height="97.000000pt" viewBox="0 0 65.000000 97.000000"
 preserveAspectRatio="xMidYMid meet">
<metadata>
Created by potrace 1.15, written by Peter Selinger 2001-2017
</metadata>
<g transform="translate(0.000000,97.000000) scale(0.100000,-0.100000)"
fill="#000000" stroke="none">
<path d="M295 807 c-15 -23 -41 -56 -59 -72 -41 -40 -78 -90 -93 -127 -17 -40
-18 -414 -2 -424 6 -3 15 -1 19 7 11 17 24 104 22 144 -4 73 -1 184 6 225 13
80 38 43 41 -60 1 -25 10 -59 21 -78 11 -18 20 -50 20 -73 0 -35 6 -46 40 -76
29 -26 40 -44 40 -65 0 -15 -4 -28 -8 -28 -10 0 -52 43 -52 54 0 7 -37 62 -57
83 -23 26 -36 15 -28 -24 4 -21 10 -42 15 -48 7 -10 14 -50 26 -145 3 -25 8
-47 10 -50 9 -8 22 21 28 62 6 39 6 39 42 -4 59 -70 62 -67 65 60 3 91 3 91
-34 123 -48 41 -51 70 -4 37 17 -12 43 -33 56 -46 13 -13 25 -21 28 -18 4 4
-23 53 -37 66 -14 14 -32 60 -28 76 2 15 14 20 48 22 24 2 50 8 57 14 18 15
17 116 -1 134 -21 21 -26 18 -26 -16 0 -38 -24 -40 -42 -3 -19 39 -38 41 -38
4 0 -17 -4 -31 -8 -31 -22 0 -32 29 -32 95 0 40 -5 76 -11 82 -16 16 -4 43 18
43 16 0 50 -25 136 -100 29 -26 29 -26 32 -158 3 -131 22 -302 34 -302 3 0 11
12 18 28 11 28 11 87 -2 302 -8 125 -8 125 -69 185 -34 33 -84 79 -112 103
-51 42 -51 42 -79 -1z m-6 -134 c-1 -10 -4 -31 -8 -47 -6 -28 -6 -28 -30 -9
-24 20 -24 20 -1 46 27 31 40 34 39 10z"/>
</g>
</svg>
