<svg version="1.0" xmlns="http://www.w3.org/2000/svg"
 width="53.000000pt" height="53.000000pt" viewBox="0 0 53.000000 53.000000"
 preserveAspectRatio="xMidYMid meet">
<metadata>
Created by potrace 1.15, written by Peter Selinger 2001-2017
</metadata>
<g transform="translate(0.000000,53.000000) scale(0.100000,-0.100000)"
fill="#000000" stroke="none">
<path d="M255 273 c4 -38 2 -94 -3 -126 -10 -64 -3 -78 25 -45 10 13 31 31 46
41 15 10 31 25 34 33 6 17 -37 110 -67 142 -35 37 -42 28 -35 -45z m55 -73 c0
-10 -4 -22 -10 -25 -6 -4 -10 7 -10 25 0 18 4 29 10 25 6 -3 10 -15 10 -25z"/>
</g>
</svg>
