<svg version="1.0" xmlns="http://www.w3.org/2000/svg"
 width="45.000000pt" height="61.000000pt" viewBox="0 0 45.000000 61.000000"
 preserveAspectRatio="xMidYMid meet">
<metadata>
Created by potrace 1.15, written by Peter Selinger 2001-2017
</metadata>
<g transform="translate(0.000000,61.000000) scale(0.100000,-0.100000)"
fill="#000000" stroke="none">
<path d="M197 494 c-4 -4 -7 -13 -7 -20 0 -7 -13 -33 -30 -57 -16 -25 -30 -48
-30 -51 0 -3 -16 -31 -37 -63 -36 -57 -36 -57 -12 -72 13 -9 40 -30 59 -46 19
-17 47 -37 63 -44 15 -8 27 -18 27 -22 0 -5 14 -16 30 -24 28 -14 31 -14 36 0
4 9 -1 23 -9 33 -10 11 -17 45 -20 102 -5 82 -16 158 -34 229 -8 34 -23 48
-36 35z m13 -178 c0 -39 -6 -31 -14 19 -5 29 -4 36 3 25 6 -8 11 -28 11 -44z
m-40 -57 c0 -31 -9 -36 -28 -17 -16 16 -15 45 1 51 20 7 27 -2 27 -34z"/>
</g>
</svg>
