<svg version="1.0" xmlns="http://www.w3.org/2000/svg"
 width="45.000000pt" height="91.000000pt" viewBox="0 0 45.000000 91.000000"
 preserveAspectRatio="xMidYMid meet">
<metadata>
Created by potrace 1.15, written by Peter Selinger 2001-2017
</metadata>
<g transform="translate(0.000000,91.000000) scale(0.100000,-0.100000)"
fill="#000000" stroke="none">
<path d="M218 686 c-43 -15 -87 -59 -124 -122 -21 -35 -25 -56 -26 -125 -1
-77 2 -89 32 -144 18 -33 46 -79 62 -102 15 -23 28 -44 28 -48 0 -3 15 -22 34
-42 62 -66 91 -17 36 62 -30 44 -30 44 -30 260 0 216 0 216 30 221 38 8 60 32
39 45 -19 12 -37 11 -81 -5z m-48 -241 c0 -69 -2 -125 -6 -125 -3 0 -16 24
-29 54 -25 55 -23 95 6 169 21 52 29 26 29 -98z"/>
</g>
</svg>
