<svg version="1.0" xmlns="http://www.w3.org/2000/svg"
 width="55.000000pt" height="69.000000pt" viewBox="0 0 55.000000 69.000000"
 preserveAspectRatio="xMidYMid meet">
<metadata>
Created by potrace 1.15, written by Peter Selinger 2001-2017
</metadata>
<g transform="translate(0.000000,69.000000) scale(0.100000,-0.100000)"
fill="#000000" stroke="none">
<path d="M283 422 c-46 -48 -83 -92 -83 -99 0 -7 15 -27 33 -45 17 -18 49 -54
71 -80 22 -28 47 -48 58 -48 19 0 19 1 -2 35 -12 19 -19 43 -16 52 9 34 11
148 1 153 -5 3 -14 -15 -21 -40 -12 -45 -12 -45 -13 -7 -1 47 16 76 41 69 14
-3 18 1 18 19 0 13 7 33 15 43 20 26 19 36 -2 36 -10 -1 -55 -40 -100 -88z
m-13 -102 c0 -5 -4 -10 -10 -10 -5 0 -10 5 -10 10 0 6 5 10 10 10 6 0 10 -4
10 -10z"/>
<path d="M90 330 c-16 -30 -3 -60 25 -60 29 0 41 31 23 59 -16 27 -34 27 -48
1z"/>
</g>
</svg>
