<svg version="1.0" xmlns="http://www.w3.org/2000/svg"
 width="63.000000pt" height="153.000000pt" viewBox="0 0 63.000000 153.000000"
 preserveAspectRatio="xMidYMid meet">
<metadata>
Created by potrace 1.15, written by Peter Selinger 2001-2017
</metadata>
<g transform="translate(0.000000,153.000000) scale(0.100000,-0.100000)"
fill="#000000" stroke="none">
<path d="M248 1248 c-3 -29 -16 -109 -31 -178 -33 -159 -45 -331 -35 -490 8
-111 16 -185 48 -405 5 -36 5 -66 -1 -77 -15 -29 17 -22 50 9 38 37 81 102 81
122 0 9 9 34 19 54 11 21 23 57 26 80 4 23 11 48 15 57 48 98 65 366 28 450
-8 19 -20 56 -26 83 -7 26 -20 66 -31 90 -10 23 -29 68 -41 100 -12 31 -26 60
-31 63 -5 3 -9 13 -9 23 0 20 -36 71 -50 71 -4 0 -10 -24 -12 -52z m62 -134
c0 -9 9 -35 19 -58 55 -119 68 -161 82 -271 9 -75 4 -208 -11 -265 -34 -138
-96 -310 -110 -310 -9 0 -35 150 -50 282 -19 182 -8 443 21 500 5 10 9 36 9
58 0 39 17 80 32 80 5 0 8 -7 8 -16z"/>
<path d="M299 798 c0 -40 -1 -93 -2 -118 -4 -54 10 -128 28 -154 12 -16 14
-13 22 30 12 73 7 224 -9 268 -24 67 -39 57 -39 -26z"/>
</g>
</svg>
