<svg version="1.0" xmlns="http://www.w3.org/2000/svg"
 width="43.000000pt" height="73.000000pt" viewBox="0 0 43.000000 73.000000"
 preserveAspectRatio="xMidYMid meet">
<metadata>
Created by potrace 1.15, written by Peter Selinger 2001-2017
</metadata>
<g transform="translate(0.000000,73.000000) scale(0.100000,-0.100000)"
fill="#000000" stroke="none">
<path d="M205 544 c-10 -16 -25 -35 -32 -42 -7 -7 -29 -41 -49 -75 -29 -49
-37 -72 -37 -110 1 -27 6 -54 12 -60 6 -6 11 -17 11 -24 0 -8 10 -24 23 -37
12 -13 49 -53 81 -90 63 -69 83 -81 72 -43 -13 46 -26 167 -31 292 -3 72 -11
150 -18 174 -13 43 -13 43 -32 15z m41 -363 c7 -42 6 -43 -15 -32 -11 7 -21
15 -21 19 0 4 -13 22 -29 41 -17 19 -40 55 -52 79 -23 44 -23 44 9 106 18 33
42 73 55 88 22 27 22 27 34 -115 6 -78 15 -162 19 -186z"/>
<path d="M167 368 c-6 -46 1 -98 13 -98 4 0 10 13 13 28 7 33 -2 112 -13 112
-4 0 -10 -19 -13 -42z"/>
</g>
</svg>
