<svg version="1.0" xmlns="http://www.w3.org/2000/svg"
 width="71.000000pt" height="89.000000pt" viewBox="0 0 71.000000 89.000000"
 preserveAspectRatio="xMidYMid meet">
<metadata>
Created by potrace 1.15, written by Peter Selinger 2001-2017
</metadata>
<g transform="translate(0.000000,89.000000) scale(0.100000,-0.100000)"
fill="#000000" stroke="none">
<path d="M150 773 c-44 -13 -43 -13 -30 -28 8 -10 31 -15 71 -15 69 0 68 1 88
-120 7 -41 17 -94 22 -117 5 -23 9 -63 9 -90 0 -26 5 -66 10 -88 8 -35 15
-157 11 -192 -1 -15 -54 -29 -141 -38 -36 -4 -76 -11 -89 -16 -35 -14 -9 -39
41 -39 58 0 272 53 288 71 3 3 25 19 50 36 55 37 76 60 127 138 46 69 62 125
58 210 -3 85 -27 175 -46 175 -5 0 -9 6 -9 13 0 19 -91 75 -141 86 -47 11
-294 22 -319 14z m303 -59 c73 -10 116 -58 152 -168 39 -121 -36 -302 -157
-379 -35 -22 -34 -22 -55 9 -12 19 -20 60 -25 133 -4 58 -12 131 -17 161 -26
146 -33 221 -21 235 13 16 51 19 123 9z"/>
<path d="M466 561 c-9 -14 4 -107 18 -126 22 -30 36 -3 27 54 -8 53 -33 92
-45 72z"/>
</g>
</svg>
