<svg version="1.0" xmlns="http://www.w3.org/2000/svg"
 width="45.000000pt" height="79.000000pt" viewBox="0 0 45.000000 79.000000"
 preserveAspectRatio="xMidYMid meet">
<metadata>
Created by potrace 1.15, written by Peter Selinger 2001-2017
</metadata>
<g transform="translate(0.000000,79.000000) scale(0.100000,-0.100000)"
fill="#000000" stroke="none">
<path d="M162 623 c-51 -129 -57 -202 -31 -367 12 -80 12 -91 -4 -118 -21 -36
-21 -48 -3 -48 19 0 155 155 172 196 32 76 15 152 -56 257 -16 25 -30 52 -30
62 0 15 -22 45 -33 45 -3 0 -9 -12 -15 -27z m45 -90 c4 -10 19 -38 35 -62 49
-78 36 -164 -37 -237 -25 -25 -25 -25 -25 3 0 15 -7 67 -15 115 -14 80 -14 93
0 143 17 56 30 69 42 38z"/>
<path d="M194 447 c-7 -19 1 -110 11 -127 13 -21 25 10 25 66 0 34 -5 56 -15
64 -12 10 -16 9 -21 -3z"/>
</g>
</svg>
