<svg version="1.0" xmlns="http://www.w3.org/2000/svg"
 width="72.000000pt" height="77.000000pt" viewBox="0 0 72.000000 77.000000"
 preserveAspectRatio="xMidYMid meet">
<metadata>
Created by potrace 1.15, written by Peter Selinger 2001-2017
</metadata>
<g transform="translate(0.000000,77.000000) scale(0.100000,-0.100000)"
fill="#000000" stroke="none">
<path d="M470 615 c0 -36 -1 -37 -27 -30 -16 4 -28 7 -28 8 0 10 -24 42 -33
45 -17 5 -15 -40 4 -66 14 -20 24 -22 103 -22 72 0 91 3 104 18 21 23 22 48 1
56 -25 10 -31 7 -37 -14 -8 -32 -45 -26 -49 7 -2 17 -10 29 -20 31 -15 3 -18
-4 -18 -33z"/>
<path d="M207 633 c-4 -3 -7 -19 -7 -35 0 -23 -4 -28 -24 -28 -15 0 -32 11
-44 28 -27 35 -49 19 -35 -25 9 -27 11 -28 94 -31 46 -2 94 0 105 2 26 7 40
52 23 72 -17 20 -27 17 -31 -8 -2 -14 -11 -24 -24 -26 -17 -2 -23 4 -27 27 -6
30 -17 38 -30 24z"/>
<path d="M131 476 c-8 -9 -11 -41 -9 -88 3 -73 3 -73 61 -76 57 -3 57 -3 57
-52 0 -50 0 -50 -41 -50 -38 0 -41 2 -35 24 6 24 -14 52 -27 39 -14 -13 -7
-150 7 -162 21 -17 336 -3 336 14 0 21 -19 22 -163 12 -117 -9 -140 -8 -148 4
-5 8 -7 19 -6 24 2 6 70 12 162 15 114 4 160 8 163 18 5 15 2 15 -118 16 -95
1 -95 1 -98 54 -3 52 -3 52 41 52 44 0 45 -1 54 -37 9 -38 9 -38 98 -38 89 0
89 0 97 -45 13 -70 1 -119 -30 -131 -15 -6 -107 -11 -204 -12 -169 -1 -178 -2
-178 -21 0 -19 6 -19 213 -13 258 8 247 2 247 142 0 70 -4 96 -15 105 -10 8
-43 11 -102 9 -88 -4 -88 -4 -88 21 0 25 1 25 100 30 100 5 100 5 103 64 5 86
-8 96 -120 96 -72 0 -88 -3 -88 -15 0 -12 13 -15 59 -15 52 0 83 -12 69 -25
-2 -3 -90 -8 -194 -11 -184 -6 -189 -6 -171 12 12 13 37 21 80 24 89 7 77 24
-19 28 -61 2 -84 -1 -93 -12z m404 -89 c31 -24 1 -30 -181 -40 -189 -11 -211
-8 -194 22 11 22 41 26 246 29 79 1 115 -2 129 -11z"/>
</g>
</svg>
