<svg version="1.0" xmlns="http://www.w3.org/2000/svg"
 width="109.000000pt" height="117.000000pt" viewBox="0 0 109.000000 117.000000"
 preserveAspectRatio="xMidYMid meet">
<metadata>
Created by potrace 1.15, written by Peter Selinger 2001-2017
</metadata>
<g transform="translate(0.000000,117.000000) scale(0.100000,-0.100000)"
fill="#000000" stroke="none">
<path d="M154 1038 c4 -18 11 -76 15 -128 11 -127 36 -206 75 -246 12 -12 71
-44 81 -44 14 0 2 22 -25 48 -48 47 -41 62 30 62 60 0 60 0 60 -174 0 -175 0
-175 -32 -174 -18 1 -48 -2 -67 -7 -34 -8 -34 -8 -16 22 18 30 15 63 -4 63
-25 0 -59 -55 -70 -114 -23 -118 -26 -125 -108 -214 -48 -52 -41 -70 16 -45
20 8 41 17 46 19 6 2 22 22 35 44 24 39 43 50 55 30 10 -16 81 -12 95 5 15 18
17 17 -40 35 -34 11 -46 21 -48 38 -5 32 31 69 71 74 18 3 39 7 47 9 12 3 16
-8 18 -54 2 -41 8 -60 19 -64 19 -8 30 9 38 64 6 43 6 43 64 43 32 0 99 -3
149 -6 91 -7 91 -7 98 -60 4 -32 11 -54 19 -54 17 0 35 44 35 85 0 40 -1 39
54 23 63 -19 74 -34 46 -64 -13 -13 -32 -24 -42 -24 -10 0 -18 -4 -18 -9 0
-15 26 -20 66 -11 43 10 53 2 54 -40 1 -31 50 -132 68 -138 17 -5 15 27 -9
121 -12 45 -21 109 -20 142 0 66 -19 119 -50 135 -29 16 -39 4 -27 -36 11 -42
5 -53 -22 -36 -11 7 -38 12 -61 12 -42 0 -42 0 -35 123 4 67 10 148 13 180 6
57 6 57 48 57 23 0 44 -3 48 -6 12 -12 -16 -53 -45 -65 -36 -15 -33 -40 5 -53
25 -9 31 -7 57 24 28 33 30 40 30 125 0 55 8 122 20 173 24 99 24 102 6 102
-19 0 -39 -34 -60 -102 -17 -55 -19 -57 -54 -60 -50 -4 -49 -29 1 -41 52 -13
46 -39 -12 -51 -50 -11 -61 -1 -61 55 0 40 -21 65 -45 55 -12 -4 -14 -15 -9
-46 6 -35 4 -40 -12 -40 -11 -1 -50 -5 -88 -9 -37 -5 -92 -7 -122 -4 -54 6
-54 6 -60 44 -12 71 -56 79 -68 12 -13 -71 -15 -73 -56 -73 -44 0 -91 15 -102
33 -23 36 6 107 43 107 12 0 19 5 16 13 -2 8 -18 11 -45 9 -38 -3 -42 -2 -48
25 -12 56 -16 68 -30 91 -22 33 -37 28 -30 -10z m564 -318 c32 0 32 0 32 -64
0 -64 0 -64 -67 -76 -38 -6 -101 -10 -142 -8 -75 3 -75 3 -72 68 1 36 4 66 5
67 8 8 119 20 161 17 28 -2 65 -3 83 -4z m0 -210 c32 0 32 0 32 -65 0 -65 0
-65 -150 -65 -151 0 -151 0 -149 43 3 66 20 85 81 90 29 2 76 3 103 1 28 -2
65 -4 83 -4z"/>
</g>
</svg>
