<svg version="1.0" xmlns="http://www.w3.org/2000/svg"
 width="68.000000pt" height="84.000000pt" viewBox="0 0 68.000000 84.000000"
 preserveAspectRatio="xMidYMid meet">
<metadata>
Created by potrace 1.15, written by Peter Selinger 2001-2017
</metadata>
<g transform="translate(0.000000,84.000000) scale(0.100000,-0.100000)"
fill="#000000" stroke="none">
<path d="M466 774 c-3 -9 -6 -31 -6 -50 0 -30 -3 -34 -26 -34 -19 0 -29 7 -37
30 -13 35 -40 37 -45 3 -5 -36 15 -63 48 -63 41 0 60 -10 60 -31 0 -15 -9 -18
-52 -21 -39 -2 -53 -7 -53 -18 0 -13 19 -15 120 -12 132 3 165 7 165 22 0 6
-29 10 -66 10 -62 0 -65 1 -62 23 2 15 11 23 28 25 61 7 69 12 81 53 11 35 10
42 -5 57 -16 16 -18 16 -31 -1 -7 -11 -11 -25 -8 -33 8 -20 -15 -44 -43 -44
-19 0 -24 5 -24 28 0 61 -28 97 -44 56z"/>
<path d="M177 751 c-3 -13 -17 -21 -46 -26 -55 -9 -56 -35 -1 -35 36 0 40 -2
40 -25 0 -19 -5 -25 -22 -25 -44 0 -69 -13 -83 -41 -33 -62 -2 -139 55 -139
16 0 32 -5 35 -10 13 -21 -17 -39 -68 -42 -71 -4 -61 -22 15 -28 60 -5 62 -6
35 -18 -16 -7 -35 -12 -42 -12 -24 0 -45 -43 -45 -91 0 -68 6 -77 56 -85 33
-5 44 -11 44 -24 0 -14 -12 -19 -65 -25 -36 -3 -65 -10 -65 -15 0 -11 38 -20
87 -20 38 0 42 -3 45 -27 4 -38 27 -41 34 -5 6 31 31 42 90 42 13 0 24 4 24 9
0 13 -27 21 -71 21 -32 0 -39 3 -39 20 0 13 7 20 20 20 29 0 76 26 84 45 11
30 6 90 -9 112 -9 12 -31 25 -50 29 -19 3 -35 10 -35 14 0 11 26 20 55 20 43
0 36 19 -10 25 -62 10 -58 45 5 45 28 0 60 47 60 89 0 49 -22 77 -65 85 -30 6
-36 11 -33 29 2 15 11 23 28 25 14 2 31 5 39 8 23 7 -7 34 -39 34 -19 0 -29 6
-33 20 -7 25 -23 26 -30 1z m-9 -163 c-2 -18 -11 -24 -35 -26 -23 -2 -33 1
-33 10 0 21 21 38 48 38 19 0 23 -5 20 -22z m89 6 c6 -16 -12 -34 -34 -34 -7
0 -13 11 -13 25 0 18 5 25 20 25 11 0 23 -7 27 -16z m-87 -71 c-1 -36 -72 -45
-78 -10 -3 14 4 17 37 17 23 0 41 -3 41 -7z m98 -10 c-2 -11 -14 -19 -31 -21
-22 -3 -27 1 -27 17 0 17 6 21 31 21 24 0 30 -4 27 -17z m-118 -213 c0 -27 -3
-30 -29 -30 -17 0 -33 4 -36 10 -11 18 15 50 40 50 21 0 25 -5 25 -30z m98 18
c7 -7 12 -20 12 -31 0 -15 -6 -18 -32 -15 -28 2 -34 8 -36 31 -3 23 0 27 20
27 13 0 29 -5 36 -12z m-98 -99 c0 -17 -5 -20 -32 -17 -22 2 -34 9 -36 21 -3
14 4 17 32 17 30 0 36 -4 36 -21z m110 11 c0 -12 -33 -30 -54 -30 -9 0 -16 9
-16 20 0 16 7 20 35 20 19 0 35 -4 35 -10z"/>
<path d="M367 512 c-22 -24 -22 -65 1 -85 15 -13 39 -17 113 -17 119 0 142 12
137 73 -3 42 -3 42 -119 45 -102 2 -117 0 -132 -16z m202 -21 c16 -30 -12 -45
-90 -49 -71 -4 -99 6 -99 35 0 21 37 32 112 32 56 1 69 -2 77 -18z"/>
<path d="M350 350 c-18 -18 -20 -33 -20 -155 0 -113 2 -135 15 -135 20 0 25
26 28 160 2 94 5 115 17 115 12 0 16 -23 20 -125 3 -69 9 -131 13 -137 10 -15
154 -18 177 -3 27 17 -2 29 -75 32 -62 3 -70 5 -70 23 0 14 8 21 30 25 38 7
55 40 55 107 0 28 3 58 6 67 13 34 24 1 25 -72 0 -42 4 -85 8 -95 14 -36 33 9
38 91 7 95 -4 122 -48 122 -61 0 -69 -12 -69 -100 0 -68 -3 -81 -19 -90 -11
-5 -22 -10 -25 -10 -3 0 -6 40 -6 90 0 78 -2 91 -19 100 -30 16 -59 12 -81
-10z"/>
</g>
</svg>
