<svg version="1.0" xmlns="http://www.w3.org/2000/svg"
 width="70.000000pt" height="91.000000pt" viewBox="0 0 70.000000 91.000000"
 preserveAspectRatio="xMidYMid meet">
<metadata>
Created by potrace 1.15, written by Peter Selinger 2001-2017
</metadata>
<g transform="translate(0.000000,91.000000) scale(0.100000,-0.100000)"
fill="#000000" stroke="none">
<path d="M400 674 c-6 -14 -10 -33 -10 -43 0 -33 -18 -39 -78 -27 -54 11 -57
14 -60 43 -3 33 -27 50 -47 33 -7 -6 -15 -34 -18 -63 -5 -48 -14 -80 -35 -117
-64 -113 -77 -179 -29 -148 12 9 27 24 32 34 6 11 20 33 32 51 23 31 23 31
130 -4 60 -19 138 -46 176 -60 72 -27 97 -25 97 6 0 15 -13 23 -57 36 -32 10
-87 28 -123 40 -36 13 -91 31 -122 41 -60 18 -74 34 -58 63 11 22 33 19 197
-28 62 -18 120 -31 130 -29 28 5 28 36 1 42 -13 3 -47 10 -76 17 -59 13 -57 8
-36 93 5 19 2 31 -7 37 -22 14 -29 11 -39 -17z"/>
<path d="M205 371 c-28 -12 -58 -48 -50 -60 9 -16 30 -13 45 4 14 17 66 20 75
5 11 -18 -5 -48 -60 -115 -29 -36 -57 -80 -61 -97 -6 -28 -2 -36 30 -65 50
-46 93 -45 135 2 37 43 39 68 6 100 -44 45 -81 28 -38 -17 28 -29 28 -29 3
-48 -32 -25 -57 -25 -70 -1 -17 32 -12 48 30 96 76 88 90 132 54 174 -26 32
-57 39 -99 22z"/>
<path d="M395 360 c-3 -5 5 -29 19 -53 32 -55 32 -75 1 -137 -31 -61 -32 -90
-2 -118 40 -37 97 -21 126 35 17 34 13 57 -14 83 -30 28 -54 16 -36 -18 17
-32 13 -52 -11 -61 -27 -10 -48 -4 -48 13 0 6 9 30 21 51 11 22 23 66 26 97 5
54 4 59 -25 87 -32 32 -47 38 -57 21z"/>
</g>
</svg>
