<svg version="1.0" xmlns="http://www.w3.org/2000/svg"
 width="79.000000pt" height="137.000000pt" viewBox="0 0 79.000000 137.000000"
 preserveAspectRatio="xMidYMid meet">
<metadata>
Created by potrace 1.15, written by Peter Selinger 2001-2017
</metadata>
<g transform="translate(0.000000,137.000000) scale(0.100000,-0.100000)"
fill="#000000" stroke="none">
<path d="M382 1238 c-9 -9 -12 -82 -12 -265 0 -205 -3 -253 -13 -253 -41 0
-287 -87 -287 -101 0 -5 -8 -9 -17 -9 -13 0 -14 -3 -5 -12 9 -9 17 -9 34 -1
23 12 44 17 128 33 41 8 73 16 138 35 20 7 22 4 22 -34 0 -33 -4 -41 -18 -41
-10 0 -22 -3 -25 -7 -4 -3 -24 -8 -45 -10 -20 -2 -41 -8 -47 -14 -5 -5 -18 -9
-29 -9 -26 0 -88 -22 -104 -37 -7 -7 -18 -13 -23 -13 -5 0 -9 -7 -9 -15 0 -17
13 -19 38 -6 9 5 44 15 77 21 33 7 69 16 80 21 74 31 344 51 454 34 49 -7 53
-6 49 11 -4 25 -63 34 -230 35 -128 2 -128 2 -128 34 0 27 5 35 28 43 39 13
219 8 265 -7 53 -18 72 1 26 25 -19 9 -37 21 -40 27 -4 5 -65 9 -143 9 -136
-1 -136 -1 -136 96 0 53 4 135 9 182 5 47 6 103 2 125 -4 22 -3 50 2 62 7 16
6 27 -3 38 -15 18 -22 19 -38 3z"/>
<path d="M558 458 c-15 -31 -29 -81 -33 -119 -7 -66 -7 -66 -59 -73 -94 -11
-136 -8 -136 11 0 37 -27 90 -66 131 -23 23 -44 42 -48 42 -15 0 -4 -30 23
-57 37 -39 49 -80 50 -175 2 -102 20 -144 74 -168 65 -30 109 -26 151 13 45
42 58 91 45 165 -6 31 -9 74 -6 96 4 44 37 139 50 144 4 2 7 12 7 23 0 36 -27
19 -52 -33z m-34 -254 c13 -33 5 -63 -23 -93 -30 -32 -56 -37 -119 -25 -33 7
-52 41 -52 95 0 31 11 34 126 37 48 2 63 -2 68 -14z"/>
<path d="M40 480 c0 -5 5 -10 10 -10 6 0 10 5 10 10 0 6 -4 10 -10 10 -5 0
-10 -4 -10 -10z"/>
</g>
</svg>
