<svg version="1.0" xmlns="http://www.w3.org/2000/svg"
 width="67.000000pt" height="117.000000pt" viewBox="0 0 67.000000 117.000000"
 preserveAspectRatio="xMidYMid meet">
<metadata>
Created by potrace 1.15, written by Peter Selinger 2001-2017
</metadata>
<g transform="translate(0.000000,117.000000) scale(0.100000,-0.100000)"
fill="#000000" stroke="none">
<path d="M319 1073 c-8 -25 -10 -82 -7 -178 5 -142 5 -142 -107 -152 -120 -11
-155 -23 -155 -52 0 -26 10 -28 140 -25 63 2 120 -2 126 -7 11 -9 10 -54 -1
-90 -4 -11 -29 -20 -90 -29 -90 -14 -116 -29 -96 -54 10 -12 55 -14 257 -12
253 2 287 8 254 41 -11 10 -46 15 -115 18 -113 5 -119 9 -130 95 -5 42 -5 42
43 43 89 1 147 10 162 25 13 14 13 17 -4 30 -11 8 -36 15 -55 16 -20 1 -43 2
-51 4 -8 1 -35 2 -58 3 -44 1 -44 1 -38 59 3 31 8 79 12 105 4 31 2 53 -5 60
-6 6 -11 25 -11 42 0 39 -27 95 -45 95 -7 0 -19 -16 -26 -37z"/>
<path d="M449 363 c-1 -10 -2 -31 -3 -47 -1 -29 -2 -30 -61 -32 -33 -1 -66 -3
-74 -5 -9 -3 -17 8 -22 29 -8 38 -23 57 -37 48 -15 -9 -33 -93 -24 -118 4 -13
7 -39 6 -58 -1 -19 3 -56 8 -82 8 -42 14 -49 52 -67 48 -24 91 -26 147 -9 64
19 69 30 75 172 5 109 3 130 -13 156 -19 33 -52 40 -54 13z m-10 -142 c17 -11
16 -118 -1 -138 -15 -19 -98 -16 -120 4 -14 12 -18 31 -18 80 0 63 0 63 63 63
34 0 68 -4 76 -9z"/>
</g>
</svg>
