<svg version="1.0" xmlns="http://www.w3.org/2000/svg"
 width="77.000000pt" height="117.000000pt" viewBox="0 0 77.000000 117.000000"
 preserveAspectRatio="xMidYMid meet">
<metadata>
Created by potrace 1.15, written by Peter Selinger 2001-2017
</metadata>
<g transform="translate(0.000000,117.000000) scale(0.100000,-0.100000)"
fill="#000000" stroke="none">
<path d="M355 1069 c-4 -12 -4 -61 0 -110 7 -89 7 -89 -46 -89 -30 0 -90 -7
-134 -15 -44 -8 -81 -14 -82 -15 -2 0 -3 -6 -3 -14 0 -21 73 -30 184 -21 94 7
94 7 100 -47 17 -153 24 -142 -104 -148 -63 -3 -121 -9 -128 -13 -18 -12 -15
-45 5 -50 45 -13 92 -17 97 -9 3 5 37 9 75 10 71 2 71 2 71 -33 0 -40 25 -85
46 -85 18 0 34 41 34 86 0 34 0 34 140 34 140 0 140 0 140 27 0 14 -3 24 -6
20 -4 -3 -13 1 -22 9 -12 13 -36 14 -138 10 -68 -3 -124 -2 -125 2 -6 68 -8
172 -2 173 5 1 55 3 113 4 105 1 105 1 103 29 -1 16 -5 31 -8 34 -3 3 -57 8
-120 10 -115 5 -115 5 -115 96 -1 98 -11 126 -48 126 -12 0 -23 -9 -27 -21z"/>
<path d="M656 461 c-3 -5 -3 -46 0 -90 5 -78 5 -81 -18 -89 -13 -5 -97 -8
-187 -7 -183 1 -179 -1 -180 74 -1 33 -34 76 -51 66 -17 -11 3 -285 21 -285 5
0 9 -8 9 -18 0 -19 46 -65 91 -91 40 -24 184 -26 244 -4 46 17 53 24 87 88 20
39 37 78 37 87 1 9 7 23 15 30 11 11 11 17 1 31 -7 10 -12 48 -13 86 0 68 -16
121 -39 128 -6 2 -14 0 -17 -6z m-32 -240 c23 -9 24 -12 13 -48 -6 -22 -29
-56 -54 -80 -44 -43 -45 -43 -117 -43 -63 0 -78 4 -118 29 -52 33 -65 64 -59
139 1 15 295 17 335 3z"/>
</g>
</svg>
