<svg version="1.0" xmlns="http://www.w3.org/2000/svg"
 width="61.000000pt" height="85.000000pt" viewBox="0 0 61.000000 85.000000"
 preserveAspectRatio="xMidYMid meet">
<metadata>
Created by potrace 1.15, written by Peter Selinger 2001-2017
</metadata>
<g transform="translate(0.000000,85.000000) scale(0.100000,-0.100000)"
fill="#000000" stroke="none">
<path d="M299 808 c0 -2 -2 -52 -3 -111 -2 -78 -7 -112 -17 -123 -8 -7 -51
-18 -94 -24 -130 -16 -136 -18 -122 -41 8 -14 20 -18 37 -15 14 3 62 8 108 12
83 6 83 6 80 -37 -3 -44 -3 -44 -88 -55 -91 -11 -130 -21 -130 -33 0 -29 64
-41 116 -21 16 6 107 11 205 11 133 1 182 4 196 14 17 13 17 15 1 31 -15 15
-34 17 -118 16 -55 -1 -100 -1 -101 0 0 2 -2 22 -5 45 -6 41 -6 41 48 47 29 3
68 7 87 9 20 1 39 9 45 20 17 28 -10 39 -79 32 -122 -13 -110 -21 -113 70 -2
75 -20 136 -42 150 -6 3 -10 5 -11 3z"/>
<path d="M528 353 c-12 -3 -18 -14 -18 -33 0 -25 -6 -30 -47 -44 -27 -8 -64
-15 -83 -14 -19 1 -51 -1 -71 -5 -33 -6 -39 -3 -68 33 -42 52 -66 54 -56 4 11
-59 74 -196 109 -237 32 -37 82 -37 126 0 53 45 100 93 100 102 0 4 11 21 25
37 14 16 25 34 25 41 0 6 8 19 17 29 16 16 16 18 -5 34 -12 10 -22 28 -22 39
0 21 -2 22 -32 14z m-58 -152 c0 -6 -4 -13 -10 -16 -5 -3 -10 -16 -10 -27 0
-12 -3 -19 -6 -15 -8 7 -54 -38 -54 -53 0 -7 -9 -9 -22 -4 -34 10 -47 23 -64
62 -13 32 -13 36 3 48 21 15 163 19 163 5z"/>
</g>
</svg>
