<svg version="1.0" xmlns="http://www.w3.org/2000/svg"
 width="93.000000pt" height="241.000000pt" viewBox="0 0 93.000000 241.000000"
 preserveAspectRatio="xMidYMid meet">
<metadata>
Created by potrace 1.15, written by Peter Selinger 2001-2017
</metadata>
<g transform="translate(0.000000,241.000000) scale(0.100000,-0.100000)"
fill="#000000" stroke="none">
<path d="M393 2208 c-21 -40 -43 -86 -51 -103 -7 -16 -16 -32 -20 -35 -10 -6
-43 -63 -89 -150 -20 -36 -40 -72 -47 -80 -15 -21 -36 -57 -59 -105 -11 -22
-27 -49 -37 -60 -23 -27 -31 -72 -14 -86 19 -16 61 -3 69 21 3 11 11 20 16 20
5 0 9 5 9 12 0 6 8 21 18 32 10 12 29 46 42 76 32 70 37 76 91 90 24 7 51 16
60 20 9 5 45 14 80 21 35 6 88 20 117 30 29 11 60 19 68 19 9 0 47 -31 86 -70
59 -59 76 -70 104 -70 27 0 34 4 34 19 0 29 -5 34 -314 353 -26 26 -46 49 -46
52 0 9 -62 66 -71 66 -5 0 -26 -33 -46 -72z m144 -145 c78 -82 87 -72 -111
-122 -44 -11 -82 -18 -84 -16 -3 3 7 23 22 45 14 22 26 44 26 50 0 5 4 10 9
10 5 0 19 22 32 50 13 27 28 50 33 50 5 0 38 -30 73 -67z"/>
<path d="M810 1621 c0 -5 -37 -11 -82 -14 -75 -6 -103 -10 -203 -32 -16 -3
-57 -18 -90 -32 -33 -13 -70 -27 -82 -30 -13 -3 -23 -9 -23 -14 0 -5 -7 -9
-16 -9 -18 0 -68 -48 -100 -95 -35 -51 -47 -195 -41 -485 7 -316 15 -365 64
-391 54 -29 137 -9 320 77 39 19 78 34 86 34 8 0 28 14 45 30 18 17 36 30 42
30 5 0 10 4 10 8 0 5 11 15 25 22 14 7 25 17 25 22 0 5 14 26 31 47 36 46 39
69 43 326 4 200 15 355 26 355 12 0 19 50 8 56 -5 3 -6 14 -3 25 5 13 -3 28
-24 49 -28 29 -61 40 -61 21z m-64 -101 c42 -14 45 -26 47 -182 3 -164 -2
-174 -101 -220 -42 -20 -106 -45 -142 -56 -36 -12 -102 -37 -147 -56 -112 -48
-148 -54 -162 -28 -20 38 -3 253 22 278 4 4 7 20 7 36 0 57 103 142 241 200
107 45 163 51 235 28z m43 -459 c11 -7 13 -26 8 -89 -6 -78 -20 -124 -44 -150
-7 -7 -13 -17 -13 -20 0 -14 -80 -92 -94 -92 -8 0 -16 -4 -18 -9 -1 -4 -43
-30 -93 -56 -123 -65 -230 -92 -252 -62 -14 17 -32 112 -36 184 -3 59 -1 64
27 91 17 16 49 36 71 45 22 8 75 31 118 51 42 20 83 36 90 36 7 0 17 4 23 9 5
5 25 14 44 19 53 16 109 37 116 45 10 10 36 8 53 -2z"/>
<path d="M786 439 c-3 -17 -6 -44 -6 -60 0 -26 -3 -28 -52 -34 -29 -3 -99 -7
-155 -8 -101 -2 -101 -2 -113 36 -13 44 -41 50 -58 12 -7 -14 -12 -68 -12
-120 0 -94 0 -94 43 -146 23 -29 49 -55 57 -59 8 -4 25 -12 37 -18 13 -7 65
-12 118 -12 95 0 95 0 139 44 30 31 46 56 50 83 7 45 7 270 0 296 -9 30 -41
21 -48 -14z m-12 -168 c11 -17 -22 -116 -46 -134 -20 -17 -34 -19 -103 -14
-124 9 -145 25 -145 109 0 37 0 37 98 40 53 2 118 4 144 5 26 2 49 -1 52 -6z"/>
</g>
</svg>
