<svg version="1.0" xmlns="http://www.w3.org/2000/svg"
 width="101.000000pt" height="129.000000pt" viewBox="0 0 101.000000 129.000000"
 preserveAspectRatio="xMidYMid meet">
<metadata>
Created by potrace 1.15, written by Peter Selinger 2001-2017
</metadata>
<g transform="translate(0.000000,129.000000) scale(0.100000,-0.100000)"
fill="#000000" stroke="none">
<path d="M632 1158 c3 -92 3 -92 -95 -93 -113 0 -121 5 -112 77 5 40 2 50 -17
67 -12 12 -23 19 -26 17 -2 -3 -7 -38 -10 -78 -8 -82 12 -70 -154 -99 -53 -10
-68 -16 -68 -30 0 -25 21 -29 124 -24 92 5 93 5 104 -20 7 -14 12 -34 12 -43
0 -10 14 -35 32 -56 34 -42 31 -50 -30 -62 -18 -3 -35 -10 -38 -15 -3 -5 -15
-9 -27 -9 -24 0 -80 -19 -114 -38 -29 -16 -20 -47 11 -37 11 4 50 11 86 15 36
4 93 14 128 22 63 15 63 15 60 -20 -3 -33 -6 -36 -61 -53 -31 -10 -73 -26 -92
-35 -35 -16 -35 -16 -35 -95 0 -67 12 -121 30 -139 3 -3 10 -14 16 -25 6 -10
36 -33 67 -50 31 -16 57 -33 57 -37 0 -4 -11 -18 -24 -31 -34 -34 -76 -117
-76 -150 0 -26 2 -27 23 -16 12 7 34 26 49 43 15 17 37 43 50 58 40 46 62 45
91 -4 14 -24 46 -67 73 -96 46 -50 74 -65 74 -39 0 14 -69 120 -82 125 -4 2
-8 9 -8 16 0 7 -8 21 -17 32 -22 25 -43 61 -43 73 0 6 17 15 38 21 51 13 71
33 111 109 27 50 34 75 33 118 -1 99 -37 146 -94 122 -22 -9 -38 -9 -69 0 -37
11 -39 14 -39 51 0 33 3 40 20 40 11 0 28 -4 38 -9 9 -5 42 -19 72 -32 30 -13
58 -28 61 -33 8 -10 64 7 63 20 -1 5 -35 27 -78 49 -121 64 -119 62 -96 104
10 20 21 53 25 73 3 21 10 40 16 44 10 6 169 7 214 1 15 -1 21 5 23 25 4 30
-4 33 -128 43 -41 4 -82 8 -91 11 -15 4 -30 63 -30 119 0 11 -7 30 -15 42 -28
44 -36 27 -32 -69z m-16 -236 c-25 -49 -46 -64 -75 -57 -32 8 -101 79 -101
105 0 17 9 20 93 22 88 3 92 2 95 -19 2 -12 -4 -35 -12 -51z m-116 -336 c0
-25 -5 -48 -11 -51 -10 -7 -119 -9 -124 -3 -8 8 9 58 19 58 6 0 22 9 36 20 14
11 37 20 53 20 25 0 27 -3 27 -44z m150 14 c3 -4 13 -9 23 -13 12 -5 17 -15
15 -29 -3 -20 -10 -23 -59 -26 -57 -3 -57 -3 -61 43 -2 26 -2 48 0 50 4 4 76
-18 82 -25z m-150 -159 c0 -9 3 -27 7 -40 6 -23 5 -24 -43 -16 -56 8 -74 19
-74 46 0 11 6 19 13 20 36 2 58 6 63 12 10 10 34 -5 34 -22z m154 -4 c-4 -12
-74 -50 -80 -44 -2 1 -5 15 -8 30 -5 26 -4 27 44 27 37 0 48 -3 44 -13z"/>
</g>
</svg>
