<svg version="1.0" xmlns="http://www.w3.org/2000/svg"
 width="66.000000pt" height="79.000000pt" viewBox="0 0 66.000000 79.000000"
 preserveAspectRatio="xMidYMid meet">
<metadata>
Created by potrace 1.15, written by Peter Selinger 2001-2017
</metadata>
<g transform="translate(0.000000,79.000000) scale(0.100000,-0.100000)"
fill="#000000" stroke="none">
<path d="M227 664 c-4 -4 -7 -16 -7 -26 0 -14 -8 -18 -39 -18 -37 0 -68 -19
-54 -33 3 -4 25 -7 48 -7 39 0 43 -2 49 -30 4 -22 15 -35 37 -44 30 -13 30
-13 7 -27 -13 -8 -45 -26 -71 -39 -58 -30 -125 -85 -115 -95 4 -4 40 11 80 33
40 22 85 45 100 51 42 16 45 -6 4 -26 -41 -19 -76 -80 -76 -132 0 -38 46 -91
79 -91 12 0 21 -4 21 -8 0 -5 -27 -34 -60 -66 -33 -32 -57 -62 -54 -67 13 -21
45 -5 97 48 57 58 57 58 110 5 56 -55 68 -60 86 -38 10 12 9 18 -6 30 -83 72
-97 88 -83 93 8 3 31 23 51 44 48 49 54 89 20 134 -24 31 -41 42 -93 59 -10 3
-18 13 -18 21 0 18 6 17 101 -17 36 -12 64 -30 78 -49 36 -48 78 -32 46 18
-19 28 -150 93 -189 93 -36 0 -41 17 -7 23 19 4 32 16 41 37 13 31 14 31 66
25 45 -6 54 -5 63 12 14 28 -4 43 -54 43 -29 0 -44 5 -53 20 -16 27 -26 25
-40 -5 -11 -24 -16 -26 -69 -23 -51 3 -58 6 -63 27 -6 25 -21 37 -33 25z m146
-109 c-8 -30 -103 -29 -103 1 0 12 11 14 53 12 28 -2 51 -7 50 -13z m21 -196
c36 -29 33 -39 -14 -39 -35 0 -40 3 -40 23 0 42 15 47 54 16z m-94 -14 c0 -15
-6 -25 -14 -25 -24 0 -30 22 -11 37 25 17 25 17 25 -12z m125 -75 c7 -11 -26
-38 -57 -45 -26 -7 -28 -5 -28 27 0 33 0 33 40 30 22 -2 42 -8 45 -12z m-120
0 c10 -16 -5 -50 -22 -50 -19 0 -55 39 -47 51 7 12 61 11 69 -1z"/>
</g>
</svg>
