<svg version="1.0" xmlns="http://www.w3.org/2000/svg"
 width="85.000000pt" height="173.000000pt" viewBox="0 0 85.000000 173.000000"
 preserveAspectRatio="xMidYMid meet">
<metadata>
Created by potrace 1.15, written by Peter Selinger 2001-2017
</metadata>
<g transform="translate(0.000000,173.000000) scale(0.100000,-0.100000)"
fill="#000000" stroke="none">
<path d="M782 1598 c-6 -8 -12 -31 -14 -51 -2 -30 -6 -37 -23 -37 -12 0 -26 5
-32 11 -6 6 -16 8 -23 4 -14 -9 11 -51 51 -83 26 -21 29 -30 29 -83 0 -56 -1
-59 -19 -49 -11 5 -26 16 -33 24 -14 13 -72 46 -83 46 -14 0 -1 -21 39 -63 25
-25 56 -70 71 -101 22 -47 24 -59 14 -78 -7 -13 -11 -24 -10 -26 5 -6 -44 -58
-76 -81 -32 -22 -32 -22 -38 6 -17 89 -31 128 -77 221 -28 56 -54 102 -57 102
-46 -1 -131 -196 -131 -302 0 -26 -5 -50 -11 -54 -6 -3 -33 4 -61 17 -38 18
-54 33 -69 63 -28 59 -25 91 11 113 41 24 35 48 -10 47 -42 0 -50 9 -50 62 0
39 3 42 50 68 66 36 66 56 -1 56 -41 0 -54 5 -69 23 -10 12 -21 19 -25 15 -10
-9 -7 -217 4 -252 49 -160 57 -180 89 -212 19 -19 43 -34 53 -34 11 0 34 -10
53 -22 28 -18 36 -32 46 -78 17 -74 24 -88 82 -141 42 -38 49 -49 40 -65 -5
-11 -12 -66 -16 -124 -7 -127 -10 -130 -117 -130 -67 0 -78 2 -84 19 -3 10 -5
23 -4 27 5 21 -15 64 -35 78 -26 16 -96 32 -96 21 0 -4 11 -20 25 -36 24 -29
48 -95 40 -109 -2 -4 -33 -10 -67 -13 -35 -3 -72 -9 -82 -13 -17 -6 -17 -8 5
-20 16 -8 43 -11 82 -7 55 6 57 5 57 -18 0 -13 -9 -35 -20 -49 -22 -28 -26
-76 -7 -83 20 -7 62 45 76 95 16 57 38 68 136 68 75 0 75 0 75 -32 0 -80 51
-211 104 -265 40 -43 40 -43 126 -43 90 1 126 14 114 43 -5 13 -21 16 -79 16
-97 -1 -140 22 -171 91 -16 35 -34 124 -34 170 0 39 0 39 73 42 56 2 72 6 72
18 0 12 -16 16 -73 18 -73 3 -73 3 -69 85 6 113 19 160 56 202 42 48 61 97 61
156 0 47 3 52 60 109 112 112 125 159 114 420 -7 182 -17 228 -42 198z m-247
-405 c29 -61 43 -110 52 -179 5 -42 5 -42 -44 -52 -26 -6 -64 -13 -83 -14 -35
-3 -35 -3 -33 117 1 74 6 121 12 123 6 2 11 9 11 16 0 17 39 58 49 51 5 -2 21
-31 36 -62z m68 -310 c-13 -95 -51 -129 -114 -103 -36 16 -59 46 -59 80 0 24
5 27 63 39 34 7 67 14 72 16 35 12 43 5 38 -32z"/>
</g>
</svg>
