<svg version="1.0" xmlns="http://www.w3.org/2000/svg"
 width="87.000000pt" height="183.000000pt" viewBox="0 0 87.000000 183.000000"
 preserveAspectRatio="xMidYMid meet">
<metadata>
Created by potrace 1.15, written by Peter Selinger 2001-2017
</metadata>
<g transform="translate(0.000000,183.000000) scale(0.100000,-0.100000)"
fill="#000000" stroke="none">
<path d="M320 1660 c-14 -4 -45 -13 -70 -21 -57 -16 -122 -60 -155 -103 -47
-62 -27 -136 60 -222 74 -73 139 -124 156 -124 7 0 28 -10 46 -22 33 -23 33
-23 33 -140 0 -65 -3 -118 -6 -118 -9 0 -85 60 -114 90 -14 14 -47 41 -75 60
-27 19 -56 40 -63 47 -18 17 -62 17 -62 -1 0 -7 26 -33 58 -57 31 -24 63 -50
71 -57 8 -7 45 -38 82 -68 69 -55 78 -67 59 -79 -22 -13 -11 -104 20 -165 30
-59 38 -104 21 -114 -7 -5 -13 -22 -27 -85 -6 -29 -91 -287 -125 -377 -24 -66
-21 -94 10 -94 17 0 52 39 57 65 2 6 17 64 34 130 17 66 38 151 46 190 13 56
43 135 60 154 2 2 94 -68 114 -89 3 -3 21 -17 42 -32 20 -15 42 -34 50 -41 7
-7 33 -24 58 -38 25 -13 46 -27 48 -31 5 -11 82 -10 82 1 0 9 -52 51 -63 51
-6 0 -109 62 -117 70 -3 3 -25 21 -50 40 -72 55 -130 112 -130 127 0 60 206
145 310 129 41 -6 74 13 64 38 -5 13 -21 16 -82 16 -42 0 -92 -5 -111 -11 -77
-24 -157 -68 -188 -104 -12 -14 -25 -25 -28 -25 -3 0 -14 15 -25 33 -26 42
-26 107 0 135 11 12 20 26 20 31 0 21 75 41 169 45 110 5 131 11 131 37 0 12
-11 21 -32 27 -35 9 -150 5 -209 -8 -37 -7 -37 -7 -43 44 -3 28 -6 74 -6 101
0 54 5 59 105 115 80 45 172 139 214 219 31 59 32 63 20 99 -22 70 -72 104
-188 128 -71 15 -230 18 -271 4z m50 -109 c0 -32 3 -71 6 -87 6 -29 6 -29 -53
-32 -32 -1 -82 -8 -111 -14 -84 -18 -95 6 -50 107 5 11 21 26 36 32 15 6 36
14 47 19 18 7 100 30 118 33 4 0 7 -25 7 -58z m254 39 c44 -11 85 -25 93 -31
18 -16 15 -78 -6 -114 -16 -27 -23 -30 -74 -31 -32 -1 -60 2 -63 7 -3 5 -31 9
-63 9 -52 0 -59 2 -65 23 -10 36 -7 104 6 132 9 21 18 25 52 25 23 0 77 -9
120 -20z m-243 -217 c5 -5 9 -41 7 -81 -3 -71 -3 -71 -43 -53 -47 21 -135 97
-135 115 0 8 23 17 63 22 75 11 94 11 108 -3z m194 -5 c28 -6 54 -13 58 -15
14 -8 -43 -61 -91 -83 -25 -12 -51 -28 -59 -36 -27 -27 -33 -14 -33 71 0 96
-9 92 125 63z"/>
</g>
</svg>
