<svg version="1.0" xmlns="http://www.w3.org/2000/svg"
 width="74.000000pt" height="110.000000pt" viewBox="0 0 74.000000 110.000000"
 preserveAspectRatio="xMidYMid meet">
<metadata>
Created by potrace 1.15, written by Peter Selinger 2001-2017
</metadata>
<g transform="translate(0.000000,110.000000) scale(0.100000,-0.100000)"
fill="#000000" stroke="none">
<path d="M418 1023 c-3 -56 1 -95 11 -107 17 -22 22 -73 9 -87 -23 -23 -78
-107 -78 -118 0 -6 -3 -11 -8 -11 -9 0 -32 -72 -32 -100 0 -11 6 -20 14 -20 7
0 20 -10 28 -22 11 -17 24 -22 54 -21 54 2 64 -10 64 -78 0 -65 10 -59 -112
-74 -48 -6 -67 -29 -30 -37 43 -9 335 -2 339 8 5 13 -36 30 -94 39 -38 6 -43
10 -44 33 -4 96 8 112 85 112 43 0 56 4 56 15 0 19 -31 35 -67 35 -44 0 -57
13 -43 41 7 13 25 36 41 50 61 56 56 128 -12 174 -21 14 -43 25 -49 25 -5 0
-10 5 -10 10 0 6 -6 10 -14 10 -7 0 -25 12 -39 26 -20 20 -27 38 -29 77 -2 40
-7 53 -20 55 -14 3 -18 -4 -20 -35z m136 -194 c13 -6 26 -19 29 -28 3 -9 8
-23 11 -31 4 -9 -5 -28 -20 -45 -14 -16 -38 -50 -52 -75 -33 -57 -37 -60 -95
-60 -49 0 -49 0 -46 43 2 23 8 51 13 62 16 30 116 145 126 145 5 0 20 -5 34
-11z"/>
<path d="M112 1022 c-16 -11 7 -36 55 -61 45 -23 60 -52 49 -96 -10 -38 -48
-70 -115 -94 -54 -21 -59 -25 -50 -42 13 -24 39 -24 97 1 26 11 61 19 77 17
26 -2 30 1 27 21 -2 13 4 34 12 47 9 14 16 46 16 73 0 42 -4 53 -32 78 -42 38
-116 68 -136 56z"/>
<path d="M243 709 c-26 -32 -57 -61 -87 -82 -49 -34 -86 -151 -106 -332 -14
-133 -13 -167 5 -191 15 -19 15 -19 30 0 11 15 15 51 16 153 2 152 1 149 12
159 4 4 7 15 7 24 0 25 49 110 63 110 32 -1 39 -20 49 -141 6 -68 14 -125 19
-127 5 -2 9 -9 9 -16 0 -34 132 -111 209 -122 65 -9 139 -45 184 -88 46 -45
67 -47 67 -6 0 21 -11 41 -38 68 -37 37 -64 48 -240 97 -66 18 -115 47 -142
85 -17 24 -20 44 -20 134 0 102 -1 106 -27 131 -15 14 -35 25 -43 25 -9 0 3
16 28 39 28 26 42 47 42 64 0 36 -16 42 -37 16z"/>
</g>
</svg>
