<svg version="1.0" xmlns="http://www.w3.org/2000/svg"
 width="77.000000pt" height="141.000000pt" viewBox="0 0 77.000000 141.000000"
 preserveAspectRatio="xMidYMid meet">
<metadata>
Created by potrace 1.15, written by Peter Selinger 2001-2017
</metadata>
<g transform="translate(0.000000,141.000000) scale(0.100000,-0.100000)"
fill="#000000" stroke="none">
<path d="M377 1283 c-4 -3 -4 -65 0 -136 6 -129 6 -129 -28 -122 -47 10 -92
56 -108 109 -7 25 -20 51 -28 58 -14 11 -15 6 -8 -42 11 -93 23 -115 79 -148
28 -16 63 -33 79 -36 27 -6 27 -6 27 -111 0 -105 0 -105 -38 -105 -48 0 -72
24 -104 105 -13 33 -28 59 -34 57 -13 -4 -8 -100 7 -131 24 -45 45 -60 142
-99 27 -12 27 -12 21 -154 -7 -135 -8 -145 -33 -174 -53 -63 -61 -74 -61 -84
0 -6 -4 -10 -10 -10 -5 0 -10 -6 -10 -12 -1 -7 -14 -29 -30 -48 -17 -19 -30
-38 -30 -42 0 -23 36 0 99 64 38 40 72 70 74 68 3 -3 7 -49 9 -103 5 -89 17
-131 34 -115 3 4 8 55 11 115 3 59 7 110 9 112 2 2 22 -8 44 -23 22 -14 43
-26 48 -26 5 0 17 -9 27 -20 10 -11 24 -20 31 -20 7 0 14 -5 16 -12 5 -15 28
-1 28 17 0 18 -39 54 -91 86 -22 13 -52 34 -67 46 -15 13 -30 23 -34 23 -7 0
-1 287 7 299 3 5 28 21 56 36 28 14 61 36 73 49 29 28 51 112 35 132 -17 21
-29 17 -29 -11 0 -14 -4 -25 -10 -25 -5 0 -10 -7 -10 -16 0 -22 -64 -84 -87
-84 -39 0 -44 13 -40 103 4 95 6 98 85 147 52 32 82 84 82 144 0 25 -4 46 -10
46 -5 0 -10 -6 -10 -13 0 -29 -41 -95 -74 -120 -64 -50 -74 -38 -81 94 -6 111
-29 162 -58 132z"/>
</g>
</svg>
