<svg version="1.0" xmlns="http://www.w3.org/2000/svg"
 width="45.000000pt" height="79.000000pt" viewBox="0 0 45.000000 79.000000"
 preserveAspectRatio="xMidYMid meet">
<metadata>
Created by potrace 1.15, written by Peter Selinger 2001-2017
</metadata>
<g transform="translate(0.000000,79.000000) scale(0.100000,-0.100000)"
fill="#000000" stroke="none">
<path d="M342 638 c-7 -7 -12 -37 -12 -68 0 -53 -20 -103 -35 -88 -4 3 -10 30
-14 60 -8 61 -16 78 -36 78 -11 0 -15 -20 -17 -86 -3 -86 -3 -86 -30 -59 -16
15 -28 38 -28 52 0 36 -24 103 -35 100 -6 -2 -9 -37 -9 -82 2 -76 3 -80 35
-107 19 -15 39 -28 45 -28 24 0 33 -27 27 -83 -3 -31 -11 -57 -17 -57 -28 -1
-47 -31 -57 -87 -9 -50 -8 -67 6 -99 12 -30 18 -36 25 -24 5 8 10 29 10 45 0
53 12 105 24 105 7 0 11 -23 11 -63 0 -35 6 -72 14 -85 14 -23 14 -23 28 -2
11 15 13 35 7 77 -8 64 9 68 20 5 8 -51 33 -112 47 -112 13 0 3 131 -14 175
-6 17 -22 40 -35 53 -23 22 -24 28 -17 80 3 31 7 65 8 75 1 9 10 20 22 23 47
15 55 32 55 126 0 87 -5 99 -28 76z"/>
</g>
</svg>
