<svg version="1.0" xmlns="http://www.w3.org/2000/svg"
 width="68.000000pt" height="78.000000pt" viewBox="0 0 68.000000 78.000000"
 preserveAspectRatio="xMidYMid meet">
<metadata>
Created by potrace 1.15, written by Peter Selinger 2001-2017
</metadata>
<g transform="translate(0.000000,78.000000) scale(0.100000,-0.100000)"
fill="#000000" stroke="none">
<path d="M450 631 c-15 -90 -28 -96 -55 -25 -9 24 -23 44 -31 44 -17 0 -17
-10 0 -73 9 -37 20 -54 45 -69 48 -31 38 -52 -29 -58 -67 -6 -86 -16 -69 -36
8 -10 29 -13 68 -11 68 3 77 -18 19 -45 -60 -28 -71 -54 -80 -191 -5 -71 -4
-125 1 -130 20 -20 42 41 50 137 6 70 13 102 26 116 41 46 50 25 59 -137 5
-105 10 -120 33 -101 13 11 15 33 10 146 -5 133 -5 133 16 119 29 -19 34 -31
46 -126 6 -46 18 -95 26 -108 28 -43 73 -44 46 -1 -7 11 -15 64 -18 117 -3 53
-11 105 -19 117 -7 12 -34 32 -59 44 -37 18 -43 25 -34 36 6 8 26 14 44 14 53
0 95 12 95 26 0 11 -18 14 -74 14 -58 0 -75 3 -80 16 -9 23 -1 31 36 38 18 4
43 15 55 25 40 33 68 131 42 146 -16 10 -59 -35 -59 -62 0 -26 -32 -63 -55
-63 -11 0 -15 18 -17 77 -4 104 -22 106 -38 4z"/>
<path d="M282 683 c-17 -8 -44 -28 -60 -43 -42 -42 -59 -44 -84 -9 -13 17 -38
37 -57 45 -42 18 -41 18 -41 -6 0 -11 14 -29 30 -42 38 -28 38 -53 0 -73 -41
-21 -45 -50 -19 -136 25 -81 31 -222 11 -270 -14 -34 -5 -69 18 -69 10 0 24
16 36 42 26 59 27 222 0 262 -10 15 -20 52 -23 81 -5 49 -4 54 21 70 14 9 44
21 67 26 47 11 69 0 69 -36 0 -27 -45 -49 -82 -40 -34 9 -44 -10 -16 -29 34
-24 82 -20 117 10 37 31 41 69 9 109 -22 28 -22 28 14 60 19 18 41 34 48 37
16 5 5 28 -13 28 -7 0 -27 -8 -45 -17z"/>
</g>
</svg>
