<svg version="1.0" xmlns="http://www.w3.org/2000/svg"
 width="64.000000pt" height="93.000000pt" viewBox="0 0 64.000000 93.000000"
 preserveAspectRatio="xMidYMid meet">
<metadata>
Created by potrace 1.15, written by Peter Selinger 2001-2017
</metadata>
<g transform="translate(0.000000,93.000000) scale(0.100000,-0.100000)"
fill="#000000" stroke="none">
<path d="M426 682 c-2 -4 4 -32 14 -62 35 -102 20 -134 -35 -76 -18 20 -37 36
-40 36 -9 0 3 -68 16 -92 5 -10 24 -21 42 -26 17 -5 33 -16 35 -25 3 -14 -4
-17 -36 -17 -22 0 -47 -3 -56 -6 -32 -12 -15 -24 33 -24 39 0 50 -4 53 -17 3
-15 -8 -20 -65 -28 -37 -5 -67 -14 -65 -20 2 -5 31 -10 66 -10 53 0 62 -3 62
-18 0 -10 -10 -21 -23 -26 -38 -15 -49 -37 -58 -123 -10 -89 -7 -111 14 -102
9 3 16 28 20 67 12 127 30 129 49 4 10 -68 17 -92 28 -92 12 0 16 19 18 92 2
72 6 93 17 93 20 0 27 -15 50 -98 11 -40 25 -72 30 -70 6 2 8 8 6 13 -2 6 -8
39 -13 75 -17 112 -17 110 -53 126 -23 9 -35 21 -35 34 0 17 7 20 50 20 42 0
50 3 50 19 0 24 -18 31 -69 24 -33 -5 -41 -3 -41 10 0 20 30 37 64 37 16 0 26
6 26 15 0 11 -12 15 -45 15 -54 0 -60 20 -12 41 42 19 59 54 51 113 -8 56 -19
59 -27 9 -7 -43 -34 -86 -48 -78 -5 4 -9 25 -9 49 0 24 -5 57 -11 75 -11 31
-43 58 -53 43z"/>
<path d="M81 669 c-33 -13 -10 -40 28 -33 33 7 50 -10 58 -59 5 -30 2 -36 -29
-54 -44 -26 -82 -100 -73 -142 4 -21 17 -33 45 -46 28 -13 41 -25 45 -46 14
-62 -26 -148 -85 -182 -32 -19 -39 -37 -15 -37 46 0 146 104 162 168 10 39
-15 99 -52 129 -62 50 -39 105 48 120 20 3 48 3 62 -1 22 -6 24 -9 15 -26 -6
-10 -32 -29 -58 -40 -42 -19 -45 -22 -28 -32 23 -13 82 3 120 33 37 29 34 62
-9 96 -22 17 -35 37 -35 51 0 22 43 72 61 72 5 0 9 9 9 20 0 13 -7 20 -18 20
-25 0 -92 -76 -92 -105 0 -13 -4 -26 -9 -30 -12 -7 -31 26 -31 54 0 28 -48 81
-73 80 -12 0 -33 -5 -46 -10z"/>
</g>
</svg>
