<svg version="1.0" xmlns="http://www.w3.org/2000/svg"
 width="73.000000pt" height="161.000000pt" viewBox="0 0 73.000000 161.000000"
 preserveAspectRatio="xMidYMid meet">
<metadata>
Created by potrace 1.15, written by Peter Selinger 2001-2017
</metadata>
<g transform="translate(0.000000,161.000000) scale(0.100000,-0.100000)"
fill="#000000" stroke="none">
<path d="M364 1429 c-4 -6 -8 -71 -10 -143 -2 -72 -10 -164 -17 -205 -12 -74
-12 -74 -66 -92 -64 -21 -81 -11 -81 45 0 75 -33 322 -47 352 -10 23 -19 30
-33 27 -29 -8 -44 -66 -36 -142 12 -112 25 -213 37 -288 10 -60 9 -80 -3 -120
-9 -26 -21 -83 -28 -126 -13 -75 -12 -78 10 -102 25 -27 117 -73 164 -82 17
-3 50 -19 74 -35 36 -25 42 -34 42 -63 0 -40 -15 -47 -95 -41 -70 4 -99 14
-116 38 -8 12 -28 38 -45 57 -28 31 -34 34 -49 21 -11 -9 -14 -21 -10 -39 24
-96 78 -136 197 -147 109 -10 115 -18 93 -126 -9 -46 -18 -84 -20 -86 -8 -9
-120 -2 -153 9 -20 7 -51 28 -69 48 -17 20 -35 33 -39 28 -13 -13 27 -124 50
-136 24 -12 124 -39 146 -40 8 0 33 -5 55 -11 22 -6 58 -13 80 -14 56 -5 256
18 282 32 27 15 52 63 44 84 -5 15 -10 15 -46 1 -72 -27 -139 -35 -184 -23
-41 11 -41 11 -42 63 -3 95 -1 108 20 131 13 13 45 28 79 36 72 17 100 31 133
67 35 38 41 59 22 78 -14 14 -18 14 -39 0 -13 -8 -34 -21 -46 -29 -32 -20
-106 -38 -127 -31 -39 12 -37 99 2 108 40 10 97 33 109 45 7 7 20 12 29 12 23
0 79 69 79 97 0 12 5 25 10 28 6 3 10 46 10 94 0 88 0 89 -29 101 -57 23 -61
34 -45 134 8 49 12 96 10 105 -3 9 -8 59 -11 111 -7 108 -19 150 -45 150 -25
0 -33 -56 -35 -255 -2 -189 -4 -192 -67 -161 -17 9 -42 16 -55 16 -17 0 -23 6
-24 23 -7 181 -22 357 -30 357 -5 0 -9 9 -9 19 0 24 -16 36 -26 20z m161 -523
c60 -27 105 -68 105 -97 0 -9 6 -19 13 -22 25 -8 -28 -117 -58 -117 -7 0 -19
-8 -29 -18 -29 -32 -136 -46 -245 -32 -90 12 -121 24 -121 50 0 6 -7 19 -16
27 -26 26 -4 142 34 182 54 57 217 70 317 27z"/>
<path d="M356 806 c-23 -19 -27 -29 -22 -50 3 -14 13 -26 21 -26 8 0 15 -4 15
-10 0 -14 76 -12 87 3 21 25 22 62 3 85 -24 29 -67 28 -104 -2z"/>
</g>
</svg>
