<svg version="1.0" xmlns="http://www.w3.org/2000/svg"
 width="61.000000pt" height="95.000000pt" viewBox="0 0 61.000000 95.000000"
 preserveAspectRatio="xMidYMid meet">
<metadata>
Created by potrace 1.15, written by Peter Selinger 2001-2017
</metadata>
<g transform="translate(0.000000,95.000000) scale(0.100000,-0.100000)"
fill="#000000" stroke="none">
<path d="M476 862 c-3 -20 -6 -59 -6 -85 0 -48 0 -48 -57 -45 -58 3 -58 3 -61
52 -4 61 -39 119 -55 91 -5 -9 -7 -49 -6 -88 4 -72 4 -72 -36 -74 -22 -1 -50
-5 -62 -8 -22 -5 -23 -2 -23 45 0 59 -24 109 -51 110 -4 0 -10 -36 -13 -81 -5
-54 -15 -96 -32 -129 -38 -75 -32 -144 16 -204 18 -22 126 -76 152 -76 29 0
48 -25 48 -63 0 -35 0 -35 -72 -40 -105 -8 -145 -17 -163 -37 -16 -17 -15 -19
6 -30 21 -12 79 -10 185 6 41 6 41 6 54 -40 18 -65 12 -73 -59 -75 -64 -1
-131 -25 -139 -50 -4 -11 31 -13 217 -8 130 4 230 11 242 18 20 10 20 11 2 24
-12 10 -46 14 -100 15 -91 0 -103 8 -103 69 0 44 19 56 91 59 88 4 133 15 137
33 4 24 -36 36 -127 38 -46 1 -88 4 -92 7 -13 7 -2 76 13 86 7 4 21 8 30 8 17
0 62 23 113 56 52 34 74 152 43 224 -21 50 -38 104 -38 123 0 29 -24 96 -36
101 -7 3 -14 -11 -18 -32z m6 -192 c19 0 38 -53 38 -106 0 -34 -46 -94 -72
-94 -8 0 -18 -4 -24 -9 -26 -25 -227 -14 -271 14 -20 13 -23 24 -23 74 0 35 5
62 13 68 41 31 236 68 302 57 11 -2 28 -4 37 -4z"/>
<path d="M273 583 c-53 -11 -6 -73 55 -73 45 0 95 41 74 62 -12 12 -93 19
-129 11z"/>
</g>
</svg>
