<svg version="1.0" xmlns="http://www.w3.org/2000/svg"
 width="57.000000pt" height="77.000000pt" viewBox="0 0 57.000000 77.000000"
 preserveAspectRatio="xMidYMid meet">
<metadata>
Created by potrace 1.15, written by Peter Selinger 2001-2017
</metadata>
<g transform="translate(0.000000,77.000000) scale(0.100000,-0.100000)"
fill="#000000" stroke="none">
<path d="M105 719 c-9 -28 -14 -53 -11 -56 4 -4 -8 -21 -25 -39 -45 -47 -49
-102 -12 -174 27 -51 31 -55 93 -75 51 -17 66 -27 71 -46 16 -56 13 -59 -49
-59 -65 0 -97 -16 -86 -43 5 -14 19 -17 71 -17 64 0 64 0 61 -57 -3 -58 -3
-58 -90 -63 -88 -5 -123 -19 -101 -41 14 -14 492 -23 513 -9 12 7 12 13 4 27
-9 15 -28 18 -110 20 -146 4 -144 3 -144 68 0 55 0 55 119 55 95 0 120 3 125
15 11 30 -33 45 -137 45 -98 0 -98 0 -95 41 3 43 7 47 66 68 111 39 114 41
133 119 9 40 10 61 2 85 -6 18 -14 65 -18 105 -4 39 -11 75 -17 78 -16 10 -37
-29 -38 -67 0 -45 -15 -52 -66 -34 -33 11 -39 18 -40 42 -2 60 -3 63 -33 63
-31 0 -41 -18 -41 -73 0 -26 -2 -28 -37 -25 -31 2 -39 8 -44 28 -21 86 -40 92
-64 19z m313 -123 c17 -10 15 -87 -4 -125 -21 -43 -52 -53 -154 -50 -142 4
-179 32 -154 116 16 56 36 71 99 75 56 4 198 -6 213 -16z"/>
<path d="M245 533 c-23 -6 -45 -22 -45 -33 0 -4 13 -13 29 -20 23 -9 37 -9 65
1 69 25 26 70 -49 52z"/>
</g>
</svg>
