<svg version="1.0" xmlns="http://www.w3.org/2000/svg"
 width="77.000000pt" height="153.000000pt" viewBox="0 0 77.000000 153.000000"
 preserveAspectRatio="xMidYMid meet">
<metadata>
Created by potrace 1.15, written by Peter Selinger 2001-2017
</metadata>
<g transform="translate(0.000000,153.000000) scale(0.100000,-0.100000)"
fill="#000000" stroke="none">
<path d="M332 1426 c-22 -11 -23 -14 -19 -111 3 -55 8 -114 12 -132 7 -30 5
-32 -31 -42 -78 -22 -80 -20 -99 72 -9 45 -19 98 -22 117 -11 70 -56 82 -73
19 -10 -34 -8 -50 9 -102 26 -76 27 -134 2 -189 -47 -108 -52 -165 -20 -233
25 -53 125 -150 203 -196 59 -36 60 -37 71 -146 7 -61 7 -61 -62 -68 -168 -15
-224 -24 -238 -35 -21 -17 -19 -30 4 -30 11 0 23 -5 27 -11 7 -12 222 -7 256
6 25 10 42 -53 32 -118 -4 -29 -8 -65 -8 -82 -1 -29 -1 -29 -116 -45 -63 -9
-123 -20 -132 -25 -27 -11 -22 -41 9 -53 51 -19 68 -21 138 -12 39 5 97 12
129 15 33 3 65 9 70 13 6 4 62 7 123 7 88 0 116 4 128 16 20 20 9 49 -19 49
-11 1 -61 1 -109 1 -76 1 -91 4 -112 22 -22 20 -25 32 -28 109 -2 48 -1 91 2
96 8 11 104 32 145 32 43 0 86 21 86 42 0 20 -58 40 -93 32 -44 -10 -136 -14
-140 -7 -8 15 11 147 22 151 6 2 11 9 11 16 0 7 23 36 51 65 48 49 109 157
109 192 0 8 4 19 9 25 15 15 30 117 20 136 -5 9 -9 25 -9 35 0 10 -11 31 -25
47 -25 29 -25 33 -20 142 5 104 4 115 -17 148 -13 19 -30 35 -39 36 -22 0 -29
-40 -29 -171 0 -109 0 -109 -42 -109 -74 0 -83 7 -98 62 -7 28 -13 85 -14 127
-3 102 -8 110 -54 87z m186 -347 c58 -12 72 -34 72 -109 0 -35 -8 -65 -31
-107 -17 -32 -45 -83 -61 -114 -17 -32 -41 -62 -55 -68 -45 -21 -104 -11 -139
23 -6 6 -32 30 -57 53 -62 57 -77 89 -77 163 0 94 20 120 105 139 152 32 178
34 243 20z"/>
<path d="M340 955 c-45 -16 -57 -36 -42 -69 13 -30 77 -60 109 -51 12 3 28 15
34 28 7 12 16 25 21 28 5 3 1 21 -10 40 -21 39 -53 46 -112 24z"/>
</g>
</svg>
