<svg version="1.0" xmlns="http://www.w3.org/2000/svg"
 width="66.000000pt" height="83.000000pt" viewBox="0 0 66.000000 83.000000"
 preserveAspectRatio="xMidYMid meet">
<metadata>
Created by potrace 1.15, written by Peter Selinger 2001-2017
</metadata>
<g transform="translate(0.000000,83.000000) scale(0.100000,-0.100000)"
fill="#000000" stroke="none">
<path d="M289 681 c-11 -30 -12 -31 -77 -31 -91 0 -114 -7 -110 -34 3 -19 11
-21 88 -26 85 -5 85 -5 88 -47 3 -43 3 -43 -60 -43 -69 0 -94 -10 -85 -33 7
-19 148 -31 261 -22 92 8 112 15 103 39 -5 11 -24 16 -79 18 -73 3 -73 3 -76
44 -3 41 -2 41 35 47 21 4 59 7 84 7 47 0 77 19 64 40 -3 5 -43 10 -90 10 -81
0 -84 1 -97 27 -19 38 -37 40 -49 4z"/>
<path d="M98 393 c-6 -16 -13 -89 -16 -164 -6 -183 3 -198 94 -163 40 15 43
15 71 -4 40 -30 136 -45 202 -32 30 5 55 10 57 10 2 0 4 9 4 20 0 17 -7 20
-49 20 -65 0 -81 7 -81 36 0 17 6 24 20 24 37 0 87 32 104 67 22 46 22 185 0
204 -23 19 -34 -4 -34 -71 0 -95 -20 -139 -62 -140 -14 0 -18 8 -18 39 0 83
-13 163 -28 168 -25 10 -32 -19 -32 -142 0 -133 -5 -165 -26 -165 -25 0 -34
48 -34 176 0 104 -3 126 -16 131 -30 11 -38 -16 -42 -138 -4 -114 -6 -121 -29
-136 -37 -25 -45 -4 -39 107 6 116 -1 180 -21 180 -7 0 -18 -12 -25 -27z"/>
</g>
</svg>
