<svg version="1.0" xmlns="http://www.w3.org/2000/svg"
 width="68.000000pt" height="90.000000pt" viewBox="0 0 68.000000 90.000000"
 preserveAspectRatio="xMidYMid meet">
<metadata>
Created by potrace 1.15, written by Peter Selinger 2001-2017
</metadata>
<g transform="translate(0.000000,90.000000) scale(0.100000,-0.100000)"
fill="#000000" stroke="none">
<path d="M316 657 c-35 -26 -14 -45 43 -39 41 4 52 1 57 -12 12 -30 -15 -46
-77 -46 -57 0 -84 -14 -58 -31 8 -5 37 -9 66 -9 54 0 67 -8 57 -34 -4 -12 -19
-16 -53 -16 -26 0 -56 -6 -66 -14 -18 -13 -18 -14 3 -25 11 -6 39 -11 61 -11
30 0 43 -5 51 -20 14 -26 7 -37 -30 -45 -53 -12 -67 -45 -72 -182 -6 -136 1
-162 33 -124 17 21 19 33 14 72 -7 52 2 168 15 189 9 14 134 26 174 16 14 -3
26 -13 26 -21 0 -16 -71 -40 -107 -36 -28 3 -73 -40 -73 -69 0 -40 19 -58 100
-90 44 -18 83 -36 86 -41 10 -16 34 -9 34 10 0 23 -44 52 -119 77 -29 11 -56
25 -58 32 -8 18 16 42 41 42 51 0 123 30 134 55 16 35 15 42 -8 65 -15 15 -33
20 -70 20 -46 0 -50 2 -50 24 0 21 5 24 67 30 77 8 88 13 72 32 -7 9 -32 14
-69 14 -51 0 -58 3 -63 22 -8 28 7 38 59 38 52 0 74 29 74 95 0 41 -2 45 -25
45 -22 0 -25 -4 -25 -39 0 -44 -12 -58 -55 -63 -29 -3 -30 -2 -35 47 -5 50 -5
50 -70 53 -44 2 -71 -2 -84 -11z"/>
<path d="M103 645 c-28 -20 -31 -45 -37 -342 -4 -199 -2 -244 10 -260 13 -17
15 -17 27 -1 11 13 15 82 20 279 4 215 8 264 20 277 9 8 23 12 32 9 14 -6 16
-36 15 -278 -2 -273 3 -310 33 -280 9 9 12 81 12 291 0 312 2 303 -70 314 -28
5 -46 2 -62 -9z"/>
</g>
</svg>
