<svg version="1.0" xmlns="http://www.w3.org/2000/svg"
 width="73.000000pt" height="96.000000pt" viewBox="0 0 73.000000 96.000000"
 preserveAspectRatio="xMidYMid meet">
<metadata>
Created by potrace 1.15, written by Peter Selinger 2001-2017
</metadata>
<g transform="translate(0.000000,96.000000) scale(0.100000,-0.100000)"
fill="#000000" stroke="none">
<path d="M341 732 c-9 -16 -17 -18 -83 -10 -90 9 -135 2 -149 -25 -8 -13 -9
-63 -4 -151 4 -81 3 -155 -4 -191 -6 -33 -17 -103 -26 -155 -8 -52 -18 -105
-20 -117 -11 -47 22 -22 50 40 36 76 54 212 55 404 0 91 4 134 12 139 6 4 47
10 90 12 78 5 78 5 78 -81 0 -90 12 -116 37 -81 10 14 13 47 11 124 -3 89 -6
105 -20 108 -9 2 -21 -5 -27 -16z"/>
<path d="M430 700 c0 -9 62 -30 92 -30 9 0 20 -6 25 -12 4 -7 8 -103 8 -213 0
-194 5 -236 36 -297 5 -10 9 -24 9 -31 0 -17 28 -75 40 -82 18 -11 18 14 0 76
-31 102 -45 294 -32 427 14 142 10 157 -54 166 -68 9 -124 7 -124 -4z"/>
<path d="M202 629 c-38 -15 -15 -29 48 -29 62 0 83 12 51 29 -24 13 -68 13
-99 0z"/>
<path d="M420 631 c-25 -7 -25 -7 -3 -19 27 -15 90 -16 99 -1 15 24 -40 36
-96 20z"/>
<path d="M185 556 c-18 -13 -18 -14 2 -24 26 -14 133 -4 133 13 0 7 -7 16 -16
19 -28 11 -100 6 -119 -8z"/>
<path d="M405 560 c-8 -12 36 -30 75 -30 38 0 45 14 14 29 -31 14 -81 14 -89
1z"/>
<path d="M232 450 c-15 -25 -16 -185 -1 -228 7 -20 21 -34 41 -41 33 -12 32
-2 12 -116 -10 -55 13 -42 31 17 8 28 15 62 15 75 0 18 6 23 24 23 24 0 36
-21 36 -65 0 -25 45 -83 56 -72 4 4 2 22 -4 40 -17 47 -15 71 8 92 19 17 20
29 18 129 -2 79 -7 111 -16 114 -7 2 -16 -5 -19 -17 -4 -17 -8 -19 -19 -10 -8
6 -14 20 -14 30 0 16 8 19 50 19 49 0 66 12 34 24 -9 3 -66 6 -127 6 -101 0
-113 -2 -125 -20z m102 -22 c-12 -22 -47 -58 -56 -58 -4 0 -8 11 -8 25 0 17 7
29 23 35 32 13 49 12 41 -2z m27 -96 c-93 -4 -105 4 -46 32 50 23 50 23 80 -3
30 -26 30 -26 -34 -29z m67 -49 c-3 -15 -16 -18 -81 -21 -60 -2 -77 0 -77 11
0 24 11 27 87 27 66 0 74 -2 71 -17z m-13 -63 c-3 -5 -35 -10 -71 -10 -36 0
-64 4 -64 10 0 6 30 10 71 10 44 0 68 -4 64 -10z"/>
</g>
</svg>
