<svg version="1.0" xmlns="http://www.w3.org/2000/svg"
 width="53.000000pt" height="67.000000pt" viewBox="0 0 53.000000 67.000000"
 preserveAspectRatio="xMidYMid meet">
<metadata>
Created by potrace 1.15, written by Peter Selinger 2001-2017
</metadata>
<g transform="translate(0.000000,67.000000) scale(0.100000,-0.100000)"
fill="#000000" stroke="none">
<path d="M270 594 c0 -54 -2 -58 -60 -122 -50 -55 -57 -68 -43 -73 12 -4 29 6
55 33 20 21 39 38 42 38 22 0 -23 -194 -64 -272 -18 -34 -18 -68 -1 -68 10 0
71 104 86 147 14 40 14 39 34 -34 24 -94 35 -123 43 -123 19 0 1 145 -25 195
-12 23 -19 163 -8 169 4 3 20 -7 37 -22 37 -34 101 -68 110 -59 7 7 -65 80
-123 125 -21 15 -33 33 -33 48 0 32 -21 74 -37 74 -9 0 -13 -16 -13 -56z"/>
</g>
</svg>
