<svg version="1.0" xmlns="http://www.w3.org/2000/svg"
 width="69.000000pt" height="85.000000pt" viewBox="0 0 69.000000 85.000000"
 preserveAspectRatio="xMidYMid meet">
<metadata>
Created by potrace 1.15, written by Peter Selinger 2001-2017
</metadata>
<g transform="translate(0.000000,85.000000) scale(0.100000,-0.100000)"
fill="#000000" stroke="none">
<path d="M314 646 c-4 -9 -4 -30 -2 -46 5 -30 5 -30 -84 -30 -117 0 -130 -12
-126 -108 3 -67 3 -67 45 -70 41 -3 41 -3 52 -66 14 -79 14 -211 1 -237 -6
-10 -17 -19 -25 -19 -12 0 -15 25 -17 128 -3 123 -4 127 -25 130 -27 4 -25 13
-23 -143 2 -141 9 -155 77 -155 59 0 63 14 63 219 0 181 -4 195 -52 191 -46
-4 -51 -1 -43 27 10 43 24 53 70 53 41 0 43 -1 49 -37 3 -21 6 -131 6 -245 0
-201 1 -208 20 -208 19 0 20 7 20 244 0 239 5 275 31 249 5 -5 13 -116 16
-247 4 -139 10 -239 16 -243 6 -3 16 2 23 12 10 13 12 67 7 244 -7 255 -10
243 67 232 42 -6 45 -8 45 -36 0 -26 -4 -30 -30 -33 -54 -6 -55 -10 -49 -185
7 -220 3 -207 69 -207 43 0 56 4 65 19 13 25 13 207 0 232 -22 40 -30 17 -30
-90 0 -109 0 -109 -26 -115 -15 -4 -28 -5 -31 -3 -2 3 -7 66 -10 140 -7 147
-1 167 40 160 37 -6 50 11 55 74 6 86 -8 97 -109 90 -42 -3 -82 -2 -88 3 -7 4
-11 23 -9 46 3 36 1 39 -25 42 -18 2 -29 -2 -33 -12z"/>
</g>
</svg>
