<svg version="1.0" xmlns="http://www.w3.org/2000/svg"
 width="41.000000pt" height="93.000000pt" viewBox="0 0 41.000000 93.000000"
 preserveAspectRatio="xMidYMid meet">
<metadata>
Created by potrace 1.15, written by Peter Selinger 2001-2017
</metadata>
<g transform="translate(0.000000,93.000000) scale(0.100000,-0.100000)"
fill="#000000" stroke="none">
<path d="M189 775 c-1 -5 -1 -18 0 -27 1 -9 -9 -24 -23 -34 -15 -9 -26 -21
-26 -28 1 -22 -55 -125 -68 -126 -7 0 -11 -4 -8 -9 4 -5 1 -11 -4 -13 -11 -3
6 -68 17 -68 11 0 46 46 61 83 9 20 23 37 30 37 25 0 4 -100 -29 -142 -29 -37
-30 -40 -32 -178 -3 -121 3 -177 15 -160 17 24 28 95 28 184 0 99 2 108 20
113 11 3 20 9 20 14 0 17 29 9 34 -8 2 -10 7 -58 11 -108 10 -165 17 -214 31
-226 24 -19 28 17 16 120 -7 53 -12 126 -12 163 0 70 -14 118 -35 118 -15 0
-26 36 -18 56 4 11 9 12 19 3 8 -6 14 -17 14 -25 0 -17 61 -114 71 -114 5 0 9
7 9 16 0 25 -75 176 -99 202 -19 20 -22 30 -16 75 5 39 3 57 -9 72 -8 11 -16
16 -17 10z"/>
</g>
</svg>
