<svg version="1.0" xmlns="http://www.w3.org/2000/svg"
 width="49.000000pt" height="79.000000pt" viewBox="0 0 49.000000 79.000000"
 preserveAspectRatio="xMidYMid meet">
<metadata>
Created by potrace 1.15, written by Peter Selinger 2001-2017
</metadata>
<g transform="translate(0.000000,79.000000) scale(0.100000,-0.100000)"
fill="#000000" stroke="none">
<path d="M214 484 c5 -42 3 -55 -14 -74 -11 -13 -20 -26 -20 -30 0 -3 -20 -26
-45 -51 -24 -24 -45 -47 -45 -51 0 -20 33 -4 71 33 22 22 43 38 45 36 3 -3 -4
-25 -16 -51 -11 -25 -29 -66 -40 -91 -11 -25 -20 -54 -20 -65 0 -18 2 -19 21
-8 12 7 29 30 39 50 19 43 17 44 56 -49 18 -44 44 -58 44 -25 0 24 -39 143
-52 159 -12 15 10 103 26 103 5 0 18 -10 30 -23 28 -29 96 -81 96 -73 0 11
-22 49 -34 61 -6 6 -32 25 -57 43 -42 28 -47 36 -52 78 -2 25 -13 53 -22 63
-16 15 -17 13 -11 -35z"/>
</g>
</svg>
