<svg version="1.0" xmlns="http://www.w3.org/2000/svg"
 width="39.000000pt" height="79.000000pt" viewBox="0 0 39.000000 79.000000"
 preserveAspectRatio="xMidYMid meet">
<metadata>
Created by potrace 1.15, written by Peter Selinger 2001-2017
</metadata>
<g transform="translate(0.000000,79.000000) scale(0.100000,-0.100000)"
fill="#000000" stroke="none">
<path d="M190 590 c0 -29 -14 -68 -30 -80 -11 -9 -42 -82 -36 -87 3 -3 17 2
30 11 31 20 36 20 36 1 0 -8 -5 -15 -10 -15 -15 0 -50 -85 -50 -120 0 -16 -4
-32 -10 -35 -12 -7 -14 -155 -2 -155 10 0 39 100 48 165 3 28 11 58 16 68 21
41 28 12 28 -118 0 -111 3 -135 14 -135 20 0 31 70 31 192 0 64 -4 101 -12
110 -15 14 -17 48 -4 48 6 0 16 -8 23 -18 24 -34 40 -37 32 -5 -4 15 -11 31
-17 34 -5 4 -21 42 -36 85 -28 83 -51 107 -51 54z"/>
</g>
</svg>
