<svg version="1.0" xmlns="http://www.w3.org/2000/svg"
 width="55.000000pt" height="95.000000pt" viewBox="0 0 55.000000 95.000000"
 preserveAspectRatio="xMidYMid meet">
<metadata>
Created by potrace 1.15, written by Peter Selinger 2001-2017
</metadata>
<g transform="translate(0.000000,95.000000) scale(0.100000,-0.100000)"
fill="#000000" stroke="none">
<path d="M109 859 c-7 -51 -4 -183 5 -197 4 -6 18 -12 31 -12 22 0 40 -24 30
-40 -8 -12 -8 -113 -1 -136 5 -18 13 -20 74 -16 70 4 98 16 73 31 -11 7 -12
17 -2 54 6 25 11 66 11 91 0 54 -19 146 -30 146 -16 0 -29 -27 -32 -70 -4 -61
-22 -57 -26 5 -4 90 -11 115 -32 115 -17 0 -20 -7 -20 -44 0 -24 -3 -51 -6
-60 -8 -22 -34 -20 -32 2 5 61 -4 122 -20 143 -19 22 -19 22 -23 -12z m159
-296 c-2 -35 -7 -48 -18 -48 -10 0 -16 12 -18 33 -4 43 3 62 23 62 13 0 15
-10 13 -47z"/>
<path d="M350 407 c0 -92 -8 -117 -36 -117 -7 0 -16 20 -20 45 -3 25 -10 48
-15 51 -5 3 -9 14 -9 25 0 20 -15 26 -25 9 -3 -6 -6 -46 -6 -90 0 -49 -4 -78
-9 -75 -6 4 -10 24 -10 47 0 46 -26 108 -45 108 -24 0 -33 -282 -10 -306 26
-27 47 -31 88 -17 42 14 42 14 42 73 0 70 19 99 53 81 17 -9 24 -7 41 15 18
23 21 41 21 119 0 76 -3 95 -18 108 -36 33 -42 22 -42 -76z"/>
</g>
</svg>
