<svg version="1.0" xmlns="http://www.w3.org/2000/svg"
 width="66.000000pt" height="85.000000pt" viewBox="0 0 66.000000 85.000000"
 preserveAspectRatio="xMidYMid meet">
<metadata>
Created by potrace 1.15, written by Peter Selinger 2001-2017
</metadata>
<g transform="translate(0.000000,85.000000) scale(0.100000,-0.100000)"
fill="#000000" stroke="none">
<path d="M227 693 c-4 -3 -7 -64 -7 -135 0 -121 -1 -128 -20 -128 -28 0 -40
30 -40 99 0 67 -6 91 -25 91 -17 0 -30 -151 -16 -179 6 -11 25 -30 42 -42 30
-21 36 -21 201 -14 94 3 177 9 184 12 41 16 -2 23 -131 23 -135 0 -145 1 -145
19 0 16 12 19 108 24 129 7 146 12 161 43 27 60 0 93 -75 95 -27 1 -60 4 -73
8 -39 11 -3 31 71 39 46 5 63 11 63 22 0 12 -14 15 -73 14 -91 -2 -125 -21
-120 -67 4 -40 35 -57 105 -57 28 0 55 -5 59 -11 14 -24 -23 -37 -123 -44
-103 -7 -103 -7 -103 82 0 56 -4 93 -12 101 -14 14 -22 15 -31 5z"/>
<path d="M237 324 c-4 -4 -7 -63 -7 -131 0 -123 0 -123 -25 -123 -30 0 -34 14
-38 135 -2 83 -4 90 -22 90 -18 0 -20 -8 -23 -100 -4 -124 0 -141 40 -161 28
-15 55 -16 213 -10 166 7 205 14 205 37 0 5 -69 8 -152 6 -138 -2 -153 0 -156
16 -3 15 5 17 65 18 122 1 184 13 204 38 26 31 24 57 -6 87 -23 23 -29 24 -90
18 -55 -6 -66 -4 -71 10 -4 9 -4 19 -1 22 3 3 41 8 85 11 86 6 109 14 97 33
-8 14 -148 6 -191 -10 -26 -10 -38 -41 -30 -75 6 -22 12 -24 79 -27 69 -3 72
-4 72 -28 0 -22 -6 -25 -49 -33 -27 -4 -74 -7 -105 -5 -56 3 -56 3 -61 92 -5
82 -14 108 -33 90z"/>
</g>
</svg>
