<svg version="1.0" xmlns="http://www.w3.org/2000/svg"
 width="64.000000pt" height="80.000000pt" viewBox="0 0 64.000000 80.000000"
 preserveAspectRatio="xMidYMid meet">
<metadata>
Created by potrace 1.15, written by Peter Selinger 2001-2017
</metadata>
<g transform="translate(0.000000,80.000000) scale(0.100000,-0.100000)"
fill="#000000" stroke="none">
<path d="M276 625 c-16 -12 -17 -18 -8 -27 7 -7 12 -34 12 -60 0 -48 0 -48
-81 -48 -104 0 -119 -8 -119 -63 0 -81 -2 -81 241 -78 185 2 216 4 227 18 14
19 17 99 3 107 -4 3 -35 8 -67 11 -156 15 -144 9 -144 74 0 76 -22 98 -64 66z
m208 -185 c29 -11 34 -35 10 -44 -27 -10 -342 -7 -349 4 -3 6 -3 19 0 30 6 19
15 20 160 20 85 0 165 -4 179 -10z"/>
<path d="M64 589 c-3 -6 1 -18 10 -27 12 -13 32 -16 84 -14 71 4 88 11 79 36
-5 13 -23 16 -86 16 -47 0 -83 -4 -87 -11z"/>
<path d="M437 593 c-48 -3 -58 -7 -55 -21 3 -14 17 -18 78 -20 86 -3 120 3
120 22 0 17 -23 27 -58 24 -15 -1 -53 -3 -85 -5z"/>
<path d="M153 291 c-72 -6 -101 -19 -88 -41 5 -8 33 -9 97 -4 114 9 117 -9 8
-46 -41 -14 -75 -31 -78 -38 -8 -24 27 -23 87 2 70 30 71 30 71 13 0 -7 -33
-28 -72 -46 -99 -43 -103 -46 -103 -62 0 -28 53 -21 110 15 30 20 58 36 62 36
3 0 3 -15 0 -34 -7 -46 14 -67 43 -41 17 16 20 31 20 117 0 55 -5 108 -10 119
-11 20 -16 21 -147 10z"/>
<path d="M420 291 c-49 -5 -65 -10 -65 -21 0 -11 13 -16 49 -18 48 -3 48 -3
-5 -35 -29 -18 -54 -38 -57 -44 -8 -28 31 -24 94 7 35 18 67 30 70 27 15 -15
-8 -34 -71 -57 -67 -25 -87 -42 -68 -61 9 -9 40 0 125 36 13 5 15 2 11 -14 -3
-11 -2 -37 1 -56 8 -43 41 -49 56 -9 13 34 13 210 0 235 -11 20 -18 21 -140
10z"/>
</g>
</svg>
