<svg version="1.0" xmlns="http://www.w3.org/2000/svg"
 width="68.000000pt" height="88.000000pt" viewBox="0 0 68.000000 88.000000"
 preserveAspectRatio="xMidYMid meet">
<metadata>
Created by potrace 1.15, written by Peter Selinger 2001-2017
</metadata>
<g transform="translate(0.000000,88.000000) scale(0.100000,-0.100000)"
fill="#000000" stroke="none">
<path d="M260 653 c-29 -24 -31 -30 -29 -77 3 -44 0 -55 -23 -79 -16 -17 -29
-45 -33 -70 -13 -82 -25 -117 -42 -117 -11 0 -14 6 -9 23 3 12 9 48 13 80 6
54 4 60 -22 87 -23 24 -26 32 -16 44 17 20 -2 80 -32 101 -32 23 -39 18 -22
-15 22 -42 19 -73 -12 -130 -32 -57 -28 -70 30 -109 32 -21 37 -30 37 -63 0
-21 -5 -38 -10 -38 -6 0 -15 -11 -21 -24 -10 -20 -8 -30 10 -54 17 -24 21 -45
21 -107 0 -56 3 -76 12 -73 15 5 26 40 27 93 2 33 7 43 34 60 37 23 49 73 23
95 -19 15 -21 81 -4 98 7 7 22 12 33 12 27 0 61 36 70 72 5 20 1 38 -14 63
-29 49 -26 78 9 113 17 17 30 33 30 36 0 14 -31 4 -60 -21z m-150 -209 c0 -46
-15 -50 -40 -9 -17 28 -19 38 -10 55 11 21 12 21 31 4 11 -10 19 -30 19 -50z
m150 25 c0 -31 -22 -58 -47 -59 -17 0 -16 10 2 54 19 45 45 48 45 5z m-95
-209 c15 -16 15 -22 5 -35 -15 -18 -51 -20 -68 -3 -16 16 -15 23 4 42 21 21
37 20 59 -4z"/>
<path d="M376 651 c-60 -7 -71 -26 -19 -34 56 -8 226 6 230 19 7 21 -98 29
-211 15z"/>
<path d="M504 564 c-42 -35 -42 -35 -90 -4 -70 44 -80 37 -24 -16 28 -26 50
-53 50 -60 0 -7 -15 -15 -32 -19 -82 -17 -104 -52 -118 -180 -14 -126 -25
-162 -63 -203 -41 -43 -17 -42 26 2 40 40 67 124 67 209 0 82 41 147 92 147
40 0 39 -37 -1 -51 -41 -14 -66 -80 -57 -147 5 -36 1 -64 -14 -107 -23 -68
-23 -65 -10 -65 23 0 42 53 51 146 9 94 29 151 49 139 6 -4 10 -61 10 -128 0
-127 6 -171 21 -161 5 3 9 72 9 155 0 143 7 174 28 132 5 -10 12 -63 15 -118
6 -102 19 -159 43 -185 18 -19 18 -1 -1 43 -10 24 -15 70 -15 134 0 121 -5
140 -41 159 -21 10 -29 22 -29 40 0 20 4 25 16 20 9 -3 21 -6 27 -6 7 0 22
-15 33 -33 18 -27 23 -52 27 -152 5 -127 26 -205 54 -205 11 0 13 5 8 18 -19
44 -35 145 -35 230 0 61 -5 103 -14 121 -16 30 -53 51 -91 51 -45 0 -22 52 40
90 19 12 35 26 35 31 0 18 -26 8 -66 -27z"/>
</g>
</svg>
