<svg version="1.0" xmlns="http://www.w3.org/2000/svg"
 width="65.000000pt" height="81.000000pt" viewBox="0 0 65.000000 81.000000"
 preserveAspectRatio="xMidYMid meet">
<metadata>
Created by potrace 1.15, written by Peter Selinger 2001-2017
</metadata>
<g transform="translate(0.000000,81.000000) scale(0.100000,-0.100000)"
fill="#000000" stroke="none">
<path d="M396 648 c-3 -7 -7 -29 -10 -49 -4 -20 -15 -44 -26 -54 -24 -22 -26
-62 -4 -93 18 -26 44 -28 83 -7 28 14 56 68 45 86 -10 17 -33 9 -36 -13 -2
-17 -11 -24 -31 -26 -36 -4 -45 20 -18 54 13 17 21 41 21 65 0 37 -16 62 -24
37z"/>
<path d="M216 586 c-3 -14 -20 -41 -36 -60 -40 -45 -40 -85 0 -115 21 -15 38
-20 53 -15 31 9 67 44 67 65 0 50 -36 69 -42 22 -2 -22 -8 -28 -28 -28 -32 0
-37 26 -11 62 23 32 32 84 15 90 -7 2 -14 -7 -18 -21z"/>
<path d="M550 523 c0 -5 -19 -29 -43 -54 -45 -49 -67 -57 -225 -79 -133 -19
-186 -60 -211 -163 -12 -49 -7 -92 9 -82 4 3 17 36 29 74 14 48 28 74 46 85
39 26 47 19 25 -24 -11 -21 -20 -50 -20 -64 0 -45 52 -76 92 -55 59 30 75 71
40 102 -28 26 -40 20 -38 -15 1 -29 -2 -33 -26 -36 -28 -3 -38 14 -19 34 5 5
14 26 21 47 6 20 19 41 28 46 25 12 121 21 127 11 3 -4 -6 -28 -20 -52 -33
-57 -31 -71 9 -93 29 -16 38 -17 64 -6 45 19 69 48 56 68 -16 26 -32 26 -36 1
-3 -23 -28 -34 -54 -24 -13 5 -13 11 5 40 12 18 21 45 21 58 0 19 8 29 29 38
43 18 128 120 116 140 -7 12 -25 13 -25 3z"/>
<path d="M544 369 c-6 -8 -16 -39 -22 -69 -16 -84 -28 -107 -69 -135 -27 -17
-59 -27 -103 -31 -128 -12 -220 -52 -220 -94 0 -29 21 -35 39 -13 28 36 64 48
161 53 86 5 101 9 146 38 69 43 86 83 82 186 -2 60 -6 76 -14 65z"/>
</g>
</svg>
