<svg version="1.0" xmlns="http://www.w3.org/2000/svg"
 width="71.000000pt" height="87.000000pt" viewBox="0 0 71.000000 87.000000"
 preserveAspectRatio="xMidYMid meet">
<metadata>
Created by potrace 1.15, written by Peter Selinger 2001-2017
</metadata>
<g transform="translate(0.000000,87.000000) scale(0.100000,-0.100000)"
fill="#000000" stroke="none">
<path d="M500 631 c-31 -31 -38 -67 -20 -102 8 -14 21 -19 49 -19 39 0 39 0
45 -52 3 -29 7 -123 8 -208 1 -156 7 -190 32 -190 23 0 26 25 26 224 0 233 -5
252 -66 268 -54 15 -60 43 -13 60 38 13 36 42 -4 46 -20 2 -36 -5 -57 -27z"/>
<path d="M96 634 c-10 -27 -7 -109 6 -122 7 -7 17 -8 30 -1 14 7 18 21 18 59
0 61 -7 80 -30 80 -10 0 -21 -7 -24 -16z"/>
<path d="M297 644 c-4 -4 -4 -29 -1 -56 6 -46 6 -48 -18 -48 -20 0 -26 7 -34
43 -13 60 -38 57 -42 -6 -4 -54 9 -77 43 -77 47 0 55 -9 55 -62 0 -45 -2 -49
-22 -46 -14 2 -25 15 -33 38 -7 19 -20 37 -29 38 -16 4 -17 -2 -11 -50 8 -59
16 -68 63 -68 48 0 44 -33 -7 -48 -52 -16 -63 -45 -59 -158 3 -84 4 -89 26
-92 22 -3 22 -1 22 95 0 98 7 123 37 123 10 0 13 -26 13 -107 0 -118 10 -151
35 -119 11 15 15 47 15 123 0 83 3 103 14 103 25 0 30 -21 28 -111 -2 -66 1
-89 13 -99 12 -10 18 -10 31 1 13 10 14 27 9 98 -9 125 -18 148 -61 156 -43 8
-44 38 -2 43 30 4 68 44 68 73 0 58 -44 70 -54 14 -12 -62 -39 -58 -51 7 -7
35 -5 38 26 51 50 20 61 39 57 94 -4 66 -29 66 -42 1 -5 -27 -15 -48 -22 -48
-14 0 -27 32 -28 70 -1 24 -24 38 -39 24z"/>
<path d="M496 453 c-2 -10 -6 -99 -8 -198 -3 -169 -2 -180 16 -183 10 -2 22 2
27 10 5 7 9 97 9 201 0 178 -1 187 -19 187 -11 0 -22 -8 -25 -17z"/>
<path d="M94 427 c-3 -8 -4 -45 -2 -83 3 -58 6 -69 22 -72 10 -2 22 2 27 10
12 18 11 115 -1 139 -12 22 -38 25 -46 6z"/>
<path d="M111 206 c-18 -21 -27 -152 -12 -170 25 -30 39 -6 46 76 6 64 4 83
-7 95 -13 12 -16 12 -27 -1z"/>
</g>
</svg>
