<svg version="1.0" xmlns="http://www.w3.org/2000/svg"
 width="64.000000pt" height="85.000000pt" viewBox="0 0 64.000000 85.000000"
 preserveAspectRatio="xMidYMid meet">
<metadata>
Created by potrace 1.15, written by Peter Selinger 2001-2017
</metadata>
<g transform="translate(0.000000,85.000000) scale(0.100000,-0.100000)"
fill="#000000" stroke="none">
<path d="M302 728 c-5 -7 -12 -24 -14 -38 -3 -24 -6 -25 -93 -31 -49 -3 -100
-9 -113 -13 -32 -11 -21 -32 14 -27 62 7 363 5 432 -3 63 -8 72 -7 72 7 0 21
-21 26 -155 35 -110 7 -110 7 -107 33 3 32 -20 56 -36 37z"/>
<path d="M114 576 c-3 -8 -4 -29 -2 -48 3 -33 3 -33 83 -33 80 0 80 0 98 37
10 21 16 42 12 48 -10 16 -185 13 -191 -4z m154 -23 c-2 -9 -14 -20 -28 -24
-35 -10 -100 -11 -100 -1 1 26 28 36 103 41 22 1 28 -3 25 -16z"/>
<path d="M367 583 c-12 -11 -8 -68 5 -81 13 -13 95 -16 147 -6 34 7 48 36 36
73 -6 19 -14 21 -94 21 -48 0 -91 -3 -94 -7z m149 -27 c18 -14 18 -15 -9 -25
-58 -22 -126 -9 -114 23 8 21 95 22 123 2z"/>
<path d="M170 463 c-87 -4 -110 -10 -110 -29 0 -13 7 -15 33 -11 17 4 65 9
106 13 74 7 74 7 69 -50 -3 -32 -11 -61 -18 -66 -7 -4 -42 -11 -77 -15 -71 -7
-93 -23 -93 -66 0 -41 37 -55 105 -40 28 6 58 12 68 13 10 2 18 8 17 13 0 12
-83 13 -121 1 -20 -6 -28 -4 -33 10 -9 24 6 31 79 39 35 3 70 12 78 18 20 16
37 71 37 118 0 40 -20 61 -57 57 -10 -1 -47 -3 -83 -5z"/>
<path d="M345 450 c-3 -6 5 -14 18 -19 39 -15 41 -30 8 -49 -38 -21 -39 -36
-5 -67 26 -24 26 -24 -5 -40 -17 -8 -31 -20 -31 -25 0 -12 43 -3 80 15 21 11
31 9 76 -13 49 -24 84 -25 84 -3 0 6 -19 20 -42 32 -54 27 -52 24 -37 48 20
30 4 36 -31 11 -26 -19 -36 -21 -56 -11 -32 14 -30 24 10 43 32 16 36 15 75
-4 23 -11 49 -17 59 -13 14 5 12 10 -18 35 -30 24 -32 30 -21 44 21 25 6 31
-38 16 -30 -10 -47 -10 -72 -1 -39 14 -46 14 -54 1z"/>
<path d="M135 411 c-27 -4 -56 -10 -63 -14 -21 -14 -2 -28 35 -25 22 2 38 -2
40 -9 3 -9 -6 -13 -25 -13 -40 0 -62 -9 -62 -26 0 -17 8 -17 105 -3 77 12 94
24 50 35 -14 3 -25 10 -25 15 0 5 11 11 25 15 14 3 25 12 25 20 0 15 -18 16
-105 5z"/>
<path d="M352 180 c-38 -35 -56 -37 -97 -10 -47 31 -68 25 -124 -33 -81 -83
-63 -110 20 -32 56 53 50 54 174 -30 72 -48 88 -51 93 -18 2 15 -7 26 -33 39
-43 23 -45 33 -12 58 29 22 46 15 119 -45 45 -37 78 -44 78 -15 0 17 -87 80
-138 99 -23 10 -43 17 -45 17 -1 0 -17 -14 -35 -30z"/>
</g>
</svg>
