<svg version="1.0" xmlns="http://www.w3.org/2000/svg"
 width="65.000000pt" height="88.000000pt" viewBox="0 0 65.000000 88.000000"
 preserveAspectRatio="xMidYMid meet">
<metadata>
Created by potrace 1.15, written by Peter Selinger 2001-2017
</metadata>
<g transform="translate(0.000000,88.000000) scale(0.100000,-0.100000)"
fill="#000000" stroke="none">
<path d="M346 734 c-3 -9 -6 -28 -6 -43 0 -25 -3 -27 -75 -38 -139 -22 -146
-33 -165 -238 -12 -127 -33 -258 -51 -313 -13 -39 -6 -64 15 -56 24 9 39 77
81 384 9 63 18 125 20 137 8 35 57 46 240 50 94 3 175 9 180 15 7 6 3 14 -10
24 -15 11 -40 14 -95 12 -68 -3 -75 -1 -78 17 -8 54 -13 65 -31 65 -10 0 -22
-7 -25 -16z"/>
<path d="M211 572 c-15 -11 -11 -14 49 -32 44 -13 80 -36 80 -50 0 -4 -20 -13
-46 -20 -37 -11 -49 -20 -65 -51 -12 -24 -29 -41 -45 -45 -33 -8 -25 -29 12
-29 24 -1 30 -5 32 -27 2 -15 -3 -37 -10 -50 -16 -28 -39 -208 -29 -226 14
-26 28 11 35 91 3 43 11 88 17 100 12 21 12 21 40 -13 34 -41 49 -33 26 15
-18 38 -17 40 35 50 34 6 39 5 47 -16 7 -20 2 -31 -29 -65 -56 -61 -90 -184
-51 -184 5 0 13 10 17 23 15 48 53 123 71 139 18 16 21 14 72 -53 56 -73 76
-89 110 -89 36 0 23 28 -40 87 -81 76 -88 91 -58 114 13 10 33 19 43 21 11 2
21 9 24 15 7 24 -30 26 -73 5 -43 -21 -55 -20 -55 4 0 18 100 88 135 94 41 7
40 34 -2 38 -38 4 -42 16 -13 32 34 18 12 30 -56 30 -35 0 -64 4 -64 10 0 12
33 31 89 51 25 8 47 21 49 29 7 21 -90 6 -139 -22 -33 -18 -43 -20 -57 -10
-43 31 -127 50 -151 34z m269 -142 c0 -13 -10 -24 -26 -31 -25 -9 -26 -11 -10
-22 16 -12 16 -14 2 -26 -29 -24 -46 -6 -46 49 0 50 0 50 40 50 33 0 40 -3 40
-20z m-116 -21 c15 -76 6 -89 -60 -89 -42 0 -44 17 -4 32 36 12 34 32 -3 36
-51 6 -25 52 29 52 27 0 32 -4 38 -31z"/>
</g>
</svg>
