<svg version="1.0" xmlns="http://www.w3.org/2000/svg"
 width="97.000000pt" height="245.000000pt" viewBox="0 0 97.000000 245.000000"
 preserveAspectRatio="xMidYMid meet">
<metadata>
Created by potrace 1.15, written by Peter Selinger 2001-2017
</metadata>
<g transform="translate(0.000000,245.000000) scale(0.100000,-0.100000)"
fill="#000000" stroke="none">
<path d="M470 2300 c0 -5 5 -10 10 -10 6 0 10 5 10 10 0 6 -4 10 -10 10 -5 0
-10 -4 -10 -10z"/>
<path d="M455 2244 c-7 -40 2 -61 12 -26 3 12 12 22 19 22 20 0 17 18 -5 29
-16 9 -20 6 -26 -25z"/>
<path d="M451 2038 c-1 -84 -5 -163 -8 -177 -4 -17 -2 -22 6 -17 6 4 11 2 11
-3 0 -6 -5 -11 -11 -11 -7 0 -9 -11 -6 -30 5 -21 3 -28 -6 -24 -25 9 -217
-100 -217 -123 0 -7 -6 -10 -13 -7 -16 6 -59 -38 -55 -57 2 -7 -3 -13 -10 -14
-17 0 -51 -45 -52 -67 0 -10 -4 -18 -10 -18 -5 0 -10 -9 -10 -20 0 -11 3 -20
6 -20 12 0 33 35 34 55 0 15 10 24 32 30 17 6 36 19 42 30 6 11 26 34 44 51
23 22 30 33 20 37 -10 4 -10 6 1 6 8 1 20 9 27 19 13 16 14 16 7 -2 -4 -12 -3
-17 4 -13 5 3 19 -2 30 -13 11 -10 29 -20 39 -22 11 -2 27 -12 36 -23 10 -11
17 -15 18 -8 0 6 -5 13 -12 15 -9 3 -9 6 0 12 20 12 26 -23 7 -44 -10 -11 -22
-20 -27 -20 -21 0 -88 -56 -88 -73 0 -10 -4 -16 -8 -13 -5 3 -16 -3 -24 -13
-9 -11 -24 -23 -34 -29 -15 -8 -18 -22 -18 -66 1 -30 -2 -54 -6 -51 -8 5 -8 7
-10 -152 -1 -98 3 -141 14 -168 9 -21 13 -42 10 -47 -4 -6 -1 -9 6 -6 20 6 38
40 24 45 -6 2 -9 14 -7 27 3 13 -2 30 -11 39 -16 16 -23 42 -8 33 4 -2 6 32 6
77 -2 74 3 103 38 217 10 34 39 70 56 70 5 0 15 11 22 25 7 14 15 23 18 21 4
-5 17 4 51 35 10 9 24 18 31 21 20 6 20 51 -1 71 -10 9 -21 17 -24 17 -9 0
-55 52 -55 61 0 5 7 9 15 9 8 0 15 6 15 13 0 11 10 12 48 5 69 -13 74 -14 105
-27 16 -6 33 -11 38 -11 26 0 2 -21 -53 -49 -35 -16 -57 -30 -50 -31 8 0 13
-10 12 -22 -4 -40 0 -50 14 -45 16 6 40 -16 29 -26 -3 -4 1 -7 10 -7 9 0 17
-4 17 -8 0 -5 10 -21 23 -35 26 -31 60 -132 76 -227 7 -36 14 -76 18 -90 19
-82 17 -439 -3 -471 -2 -4 0 -10 5 -13 6 -4 6 -19 0 -40 -5 -19 -7 -52 -4 -73
4 -21 9 -57 12 -80 3 -24 8 -43 12 -43 4 0 13 -21 20 -47 8 -27 17 -52 21 -58
3 -5 12 -29 20 -52 7 -24 17 -43 22 -43 4 0 8 -7 8 -15 0 -8 10 -31 22 -52 12
-21 32 -59 44 -85 26 -53 41 -66 50 -44 3 8 -7 34 -23 58 -16 24 -35 59 -43
78 -7 19 -17 39 -22 44 -4 6 -8 17 -8 26 0 9 -12 41 -27 71 -28 59 -37 91 -59
219 -14 82 -14 158 0 610 1 47 -1 92 -5 100 -7 15 -23 91 -34 161 -3 23 -15
44 -30 55 -14 10 -25 24 -25 30 0 7 -27 29 -60 50 -33 22 -60 42 -60 45 0 8
39 26 72 33 15 3 34 13 43 22 16 17 34 10 61 -25 7 -8 16 -11 24 -6 9 5 11 4
6 -3 -4 -7 -1 -12 8 -12 8 0 13 -6 11 -12 -5 -15 38 -68 55 -68 6 0 9 -4 5
-10 -3 -5 -2 -17 3 -27 11 -20 27 -58 37 -88 7 -18 8 -18 15 6 9 31 2 79 -11
79 -5 0 -9 7 -9 15 0 8 -4 15 -9 15 -5 0 -11 10 -15 23 -6 24 -71 97 -87 97
-5 0 -9 6 -9 13 0 6 -17 23 -38 37 -20 14 -39 28 -42 31 -14 17 -94 51 -98 40
-6 -17 -22 -13 -22 7 0 9 -13 26 -30 37 -16 11 -25 22 -20 25 14 9 20 58 7 64
-9 3 -8 7 1 14 17 12 26 186 10 176 -7 -5 -9 1 -5 16 3 13 1 30 -5 37 -8 10
-6 13 7 13 13 0 16 -6 13 -25 -3 -13 -1 -22 3 -19 5 3 9 19 9 36 0 23 -4 29
-15 24 -8 -3 -15 -1 -15 4 0 5 8 11 18 13 16 4 16 5 0 6 -10 0 -18 6 -18 11 0
6 -4 10 -9 10 -5 0 -10 -68 -10 -152z m-244 -850 c-3 -8 -6 -5 -6 6 -1 11 2
17 5 13 3 -3 4 -12 1 -19z"/>
<path d="M213 858 c-1 -39 1 -76 4 -82 8 -13 11 -126 4 -126 -3 0 -5 -34 -3
-75 2 -48 7 -73 14 -69 6 4 14 0 19 -7 10 -17 13 9 9 91 -3 59 -5 102 -8 248
-2 80 -4 92 -19 92 -15 0 -18 -11 -20 -72z"/>
<path d="M230 471 c0 -10 -3 -21 -7 -25 -8 -7 -10 -28 -14 -101 -1 -27 -6 -58
-11 -69 -7 -13 -6 -21 1 -26 9 -5 8 -10 -3 -20 -9 -7 -13 -16 -11 -20 3 -5 -3
-24 -14 -43 -10 -19 -25 -45 -33 -58 -7 -13 -20 -29 -28 -35 -33 -26 -60 -52
-60 -58 0 -16 39 -3 71 24 71 58 121 196 134 366 4 58 2 73 -10 78 -10 3 -15
-1 -15 -13z"/>
</g>
</svg>
