<svg version="1.0" xmlns="http://www.w3.org/2000/svg"
 width="89.000000pt" height="131.000000pt" viewBox="0 0 89.000000 131.000000"
 preserveAspectRatio="xMidYMid meet">
<metadata>
Created by potrace 1.15, written by Peter Selinger 2001-2017
</metadata>
<g transform="translate(0.000000,131.000000) scale(0.100000,-0.100000)"
fill="#000000" stroke="none">
<path d="M400 1218 c-132 -18 -188 -42 -246 -103 -50 -53 -64 -98 -64 -206 0
-46 -4 -100 -10 -118 -17 -61 36 -88 60 -31 16 38 48 61 125 90 33 12 77 28
99 36 21 8 43 13 49 11 6 -2 12 -33 14 -70 4 -66 4 -66 -24 -73 -31 -8 -105
-43 -113 -54 -3 -3 -13 -9 -22 -13 -28 -10 -21 -27 10 -22 15 2 54 6 88 9 61
5 61 5 67 -82 8 -109 0 -186 -24 -234 -11 -21 -28 -56 -39 -78 -23 -45 -26
-80 -7 -80 14 0 67 54 67 67 0 5 11 22 25 38 25 30 25 30 82 -33 32 -34 61
-62 66 -62 10 0 9 57 -1 62 -19 8 -90 127 -100 170 -7 26 -12 89 -12 141 0 93
0 93 80 89 64 -3 80 -1 80 10 0 8 -36 31 -80 51 -80 38 -80 38 -80 101 0 77 4
80 122 61 131 -21 142 -26 152 -69 8 -29 14 -36 30 -34 18 3 21 10 20 53 -4
146 -8 202 -16 225 -13 36 -80 120 -95 120 -7 0 -13 4 -13 8 0 12 -118 32
-176 31 -27 -1 -78 -6 -114 -11z m267 -91 c21 -13 43 -35 49 -48 26 -55 34
-82 34 -114 0 -35 0 -35 -48 -35 -26 0 -52 4 -58 9 -5 4 -44 14 -87 21 -67 11
-78 16 -74 31 3 9 1 39 -4 66 -13 65 -5 91 29 96 53 9 120 -2 159 -26z m-263
6 c2 -10 7 -53 11 -95 6 -70 5 -79 -12 -84 -10 -3 -50 -19 -90 -35 -39 -16
-83 -29 -97 -29 -14 0 -28 -4 -31 -10 -3 -5 -14 -10 -24 -10 -15 0 -17 7 -13
58 7 95 63 173 144 201 71 25 105 26 112 4z"/>
<path d="M542 1055 c-10 -12 -7 -17 17 -30 40 -20 91 -20 91 1 0 9 -9 18 -20
21 -11 3 -20 9 -20 14 0 14 -54 10 -68 -6z"/>
<path d="M268 1048 c-9 -7 -19 -23 -23 -35 -6 -21 -3 -23 39 -23 37 0 46 4 52
22 4 15 1 25 -12 35 -22 16 -36 16 -56 1z"/>
<path d="M70 1200 c0 -5 5 -10 10 -10 6 0 10 5 10 10 0 6 -4 10 -10 10 -5 0
-10 -4 -10 -10z"/>
<path d="M118 513 c-3 -65 9 -326 17 -361 7 -29 63 -82 86 -82 9 0 24 -3 33
-6 29 -11 17 20 -17 42 -61 41 -89 137 -34 119 33 -11 77 -14 77 -6 0 10 -56
51 -69 51 -10 0 -14 12 -25 77 -5 31 -5 31 56 26 58 -6 60 -5 49 14 -6 12 -23
24 -38 28 -51 12 -69 30 -71 71 -3 44 -25 84 -46 84 -10 0 -15 -17 -18 -57z"/>
<path d="M767 523 c-3 -5 -5 -33 -4 -62 3 -58 0 -62 -61 -81 -47 -15 -64 -30
-34 -30 10 0 22 -3 26 -7 4 -5 24 -8 44 -8 36 0 37 -1 40 -43 3 -34 -1 -43
-15 -48 -50 -16 -92 -38 -87 -45 7 -12 61 -11 84 1 27 14 31 0 11 -40 -10 -21
-31 -42 -56 -55 -22 -11 -49 -28 -59 -37 -19 -18 -19 -18 17 -18 19 0 39 5 42
10 3 6 15 10 25 10 10 0 35 20 56 45 37 45 37 45 36 148 0 56 -5 129 -12 162
-12 61 -42 116 -53 98z"/>
</g>
</svg>
