<svg version="1.0" xmlns="http://www.w3.org/2000/svg"
 width="62.000000pt" height="82.000000pt" viewBox="0 0 62.000000 82.000000"
 preserveAspectRatio="xMidYMid meet">
<metadata>
Created by potrace 1.15, written by Peter Selinger 2001-2017
</metadata>
<g transform="translate(0.000000,82.000000) scale(0.100000,-0.100000)"
fill="#000000" stroke="none">
<path d="M447 564 c-4 -4 -7 -36 -7 -71 0 -49 -3 -63 -15 -63 -12 0 -15 14
-15 66 0 57 -2 65 -17 62 -15 -3 -19 -16 -21 -66 -2 -45 -7 -62 -17 -62 -10 0
-15 16 -17 58 -2 43 -7 57 -18 57 -11 0 -16 -14 -18 -58 -2 -44 -8 -60 -23
-70 -24 -15 -24 -24 1 -32 19 -6 20 -15 20 -159 0 -105 4 -156 12 -164 13 -13
125 -15 168 -3 14 4 26 14 28 24 3 14 -9 17 -80 19 -83 3 -83 3 -83 142 0 103
3 140 13 144 9 3 12 -26 12 -122 0 -143 3 -149 68 -124 24 9 38 21 39 33 1 11
5 63 8 117 6 83 9 97 26 101 25 7 24 27 -1 34 -16 4 -20 15 -22 71 -2 51 -7
68 -18 70 -9 1 -19 0 -23 -4z m-9 -274 c-2 -56 -7 -85 -15 -88 -10 -3 -13 19
-13 86 0 49 3 92 7 95 16 17 24 -16 21 -93z"/>
<path d="M125 553 c-41 -6 -55 -20 -55 -53 0 -41 10 -60 36 -71 28 -10 31 -27
7 -36 -25 -9 -33 -23 -33 -58 0 -35 15 -55 43 -55 24 0 17 -24 -9 -28 -34 -6
-44 -32 -44 -118 0 -80 10 -108 31 -87 5 5 12 42 17 83 10 108 30 104 34 -7 2
-70 6 -88 18 -88 12 0 16 19 20 88 3 48 10 88 15 90 6 1 13 -27 16 -63 10
-120 39 -120 39 0 0 84 -12 110 -51 110 -28 0 -23 14 10 27 23 8 31 19 36 47
9 44 -6 66 -46 66 -39 0 -37 23 4 41 26 11 33 20 35 50 2 21 -2 40 -10 46 -17
14 -74 22 -113 16z m78 -50 c13 -12 -15 -33 -44 -33 -29 0 -44 13 -34 30 7 11
68 14 78 3z m2 -163 c0 -18 -62 -27 -77 -12 -18 18 3 33 40 30 25 -2 37 -8 37
-18z"/>
</g>
</svg>
