<svg version="1.0" xmlns="http://www.w3.org/2000/svg"
 width="69.000000pt" height="113.000000pt" viewBox="0 0 69.000000 113.000000"
 preserveAspectRatio="xMidYMid meet">
<metadata>
Created by potrace 1.15, written by Peter Selinger 2001-2017
</metadata>
<g transform="translate(0.000000,113.000000) scale(0.100000,-0.100000)"
fill="#000000" stroke="none">
<path d="M95 889 c-4 -5 0 -18 8 -27 17 -21 37 -98 44 -171 4 -49 32 -109 55
-119 4 -2 8 -12 8 -23 0 -26 31 -24 57 4 53 56 62 88 61 214 0 65 -2 121 -4
125 -8 13 -34 -4 -34 -22 0 -58 -37 -69 -42 -13 -2 27 -8 39 -20 41 -14 3 -18
-3 -18 -26 0 -45 -25 -47 -65 -7 -36 38 -41 40 -50 24z m115 -129 c0 -16 -4
-30 -10 -30 -5 0 -10 14 -10 30 0 17 5 30 10 30 6 0 10 -13 10 -30z m78 -13
c2 -10 -3 -17 -12 -17 -10 0 -16 9 -16 21 0 24 23 21 28 -4z m2 -88 c0 -11 -7
-27 -15 -35 -13 -14 -15 -12 -15 19 0 18 3 37 6 40 11 11 24 -3 24 -24z m-76
-1 c9 -34 7 -38 -9 -32 -16 6 -21 54 -6 54 5 0 11 -10 15 -22z"/>
<path d="M497 813 c-4 -3 -7 -24 -7 -45 0 -44 -3 -45 -32 -18 -12 11 -28 20
-35 20 -24 0 -13 -28 27 -68 22 -21 40 -44 40 -50 0 -14 -33 -32 -59 -32 -22
0 -61 -36 -61 -57 0 -19 38 -16 68 5 36 25 60 33 67 23 3 -5 7 -39 9 -75 4
-67 4 -67 -42 -87 -80 -36 -92 -42 -92 -51 0 -14 40 -9 80 12 22 11 46 20 55
20 8 0 15 -9 15 -20 0 -11 -3 -20 -8 -20 -4 0 -18 -18 -32 -40 -14 -22 -28
-40 -31 -40 -4 0 -18 -24 -33 -53 -22 -46 -24 -58 -15 -90 10 -39 33 -67 52
-66 9 0 8 2 0 6 -7 2 -13 16 -13 29 0 13 -5 33 -12 43 -9 15 -7 24 10 49 12
16 22 35 22 42 0 6 20 31 45 56 49 51 62 78 45 99 -8 9 -11 49 -9 112 2 108 5
119 24 103 21 -18 28 20 8 44 -10 12 -21 23 -24 26 -8 6 -24 71 -21 83 3 11
-17 47 -27 47 -4 0 -11 -3 -14 -7z"/>
</g>
</svg>
