<svg version="1.0" xmlns="http://www.w3.org/2000/svg"
 width="61.000000pt" height="82.000000pt" viewBox="0 0 61.000000 82.000000"
 preserveAspectRatio="xMidYMid meet">
<metadata>
Created by potrace 1.15, written by Peter Selinger 2001-2017
</metadata>
<g transform="translate(0.000000,82.000000) scale(0.100000,-0.100000)"
fill="#000000" stroke="none">
<path d="M147 623 c-4 -3 -7 -16 -7 -29 0 -27 -22 -36 -67 -28 -31 6 -35 4
-31 -12 3 -18 19 -19 258 -25 140 -3 257 -4 259 -3 2 2 1 10 -2 19 -5 12 -23
15 -82 15 -68 0 -91 9 -65 25 15 10 12 32 -6 39 -20 8 -43 -10 -55 -41 -7 -19
-16 -23 -53 -23 -55 0 -96 15 -96 34 0 9 -9 20 -19 26 -23 12 -26 12 -34 3z"/>
<path d="M96 454 c-12 -31 -7 -224 7 -229 6 -3 95 -7 195 -8 143 -3 186 -7
194 -18 5 -8 7 -47 5 -87 -2 -40 0 -75 4 -78 5 -2 17 4 29 16 16 16 20 32 19
87 -1 110 1 108 -120 108 -97 0 -104 1 -104 20 0 19 5 20 78 16 64 -2 77 0 77
12 0 22 -16 25 -92 19 -68 -5 -68 -5 -68 28 0 33 0 33 74 28 78 -5 104 1 91
22 -6 9 -28 11 -82 6 -62 -5 -75 -3 -80 10 -9 25 16 34 100 34 58 0 78 3 75
13 -4 9 -55 13 -200 15 -172 2 -196 0 -202 -14z m179 -39 c0 -17 -8 -20 -59
-23 -62 -3 -83 6 -72 33 5 13 18 15 68 13 55 -3 63 -5 63 -23z m12 -61 c12
-33 -20 -47 -91 -39 -55 5 -66 10 -66 25 0 24 13 28 88 29 48 1 64 -3 69 -15z
m-7 -73 c0 -5 3 -17 7 -27 6 -16 0 -17 -67 -10 -82 7 -85 9 -77 31 5 11 22 15
72 15 36 0 65 -4 65 -9z"/>
<path d="M207 194 c-10 -10 -9 -122 1 -128 21 -13 33 13 30 69 -3 54 -14 75
-31 59z"/>
<path d="M297 186 c-4 -10 -7 -42 -7 -72 0 -39 4 -54 14 -54 8 0 17 7 20 16
11 28 6 90 -7 108 -13 18 -14 18 -20 2z"/>
<path d="M101 110 c1 -70 3 -81 17 -78 26 5 25 151 0 156 -15 3 -17 -6 -17
-78z"/>
<path d="M387 145 c-6 -54 1 -87 17 -82 15 5 15 119 0 124 -7 2 -13 -15 -17
-42z"/>
</g>
</svg>
