<svg version="1.0" xmlns="http://www.w3.org/2000/svg"
 width="68.000000pt" height="92.000000pt" viewBox="0 0 68.000000 92.000000"
 preserveAspectRatio="xMidYMid meet">
<metadata>
Created by potrace 1.15, written by Peter Selinger 2001-2017
</metadata>
<g transform="translate(0.000000,92.000000) scale(0.100000,-0.100000)"
fill="#000000" stroke="none">
<path d="M225 680 c-6 -44 -10 -50 -30 -50 -13 0 -30 -3 -39 -6 -13 -5 -16 2
-16 45 0 44 -3 51 -20 51 -23 0 -38 -59 -24 -99 9 -24 15 -26 67 -27 32 -1 60
-4 63 -7 4 -3 2 -18 -3 -34 -8 -24 -16 -28 -50 -31 -28 -2 -48 -11 -64 -28
-24 -25 -24 -28 -24 -234 0 -115 3 -211 7 -215 22 -22 28 17 28 184 0 224 7
246 76 254 67 7 74 21 74 144 0 95 -2 103 -19 103 -15 0 -20 -10 -26 -50z"/>
<path d="M377 714 c-12 -13 -8 -209 5 -222 7 -7 36 -12 64 -12 43 0 54 -3 59
-19 3 -11 7 -110 9 -220 1 -110 5 -204 9 -207 4 -4 14 -1 23 7 15 12 16 34 10
209 -4 107 -10 205 -13 218 -7 28 -51 52 -96 52 -37 0 -52 18 -42 51 5 14 16
19 46 19 22 0 51 7 64 16 21 14 25 24 25 65 0 42 -3 49 -20 49 -16 0 -20 -7
-20 -34 0 -56 -8 -66 -51 -66 -38 0 -38 0 -41 47 -3 44 -15 62 -31 47z"/>
<path d="M186 431 c-10 -15 4 -18 119 -25 90 -5 140 3 124 19 -4 3 -58 8 -121
12 -82 4 -117 3 -122 -6z"/>
<path d="M212 348 c-7 -7 -12 -32 -12 -55 0 -34 6 -49 26 -68 20 -19 25 -31
22 -62 -3 -38 -3 -38 -43 -35 -42 3 -72 -9 -62 -25 7 -11 297 -26 322 -17 26
10 -2 34 -40 34 -25 0 -34 5 -39 23 -12 44 -6 73 19 95 29 26 34 81 9 106 -19
20 -183 23 -202 4z m176 -35 c7 -12 5 -24 -5 -40 -27 -41 -153 -27 -153 17 0
5 7 16 16 24 23 23 130 22 142 -1z m-48 -153 c0 -36 -3 -40 -25 -40 -23 0 -25
4 -25 43 0 51 6 60 31 46 14 -7 19 -21 19 -49z"/>
</g>
</svg>
