<svg version="1.0" xmlns="http://www.w3.org/2000/svg"
 width="61.000000pt" height="131.000000pt" viewBox="0 0 61.000000 131.000000"
 preserveAspectRatio="xMidYMid meet">
<metadata>
Created by potrace 1.15, written by Peter Selinger 2001-2017
</metadata>
<g transform="translate(0.000000,131.000000) scale(0.100000,-0.100000)"
fill="#000000" stroke="none">
<path d="M325 1243 c-72 -5 -95 -11 -95 -28 0 -15 5 -17 112 -36 97 -16 172 3
150 38 -10 17 -59 33 -90 31 -15 -1 -49 -3 -77 -5z"/>
<path d="M260 1076 c-36 -6 -74 -17 -86 -23 -34 -19 -68 -98 -68 -159 -1 -50
2 -57 34 -85 19 -17 47 -33 62 -36 35 -7 42 -40 33 -142 -5 -60 -12 -81 -31
-101 -26 -28 -24 -66 5 -74 9 -3 65 -6 124 -7 59 -2 130 -7 158 -13 42 -8 52
-7 66 7 16 16 16 18 -2 32 -11 8 -25 15 -31 15 -16 0 -25 48 -31 173 -4 101
-4 107 15 107 30 0 77 28 91 54 13 24 12 52 -7 131 -17 73 -20 75 -127 116
-56 21 -110 23 -205 5z m210 -57 c28 -9 43 -21 59 -51 25 -47 27 -103 6 -124
-22 -23 -230 -22 -307 1 -58 16 -58 16 -58 63 0 51 24 88 70 109 33 15 182 16
230 2z m-26 -271 c3 -13 6 -40 6 -61 0 -38 0 -38 -72 -35 -68 3 -73 5 -76 27
-2 13 -1 39 3 57 6 34 6 34 69 34 58 0 64 -2 70 -22z m4 -186 c3 -38 0 -43
-23 -52 -28 -11 -114 -14 -138 -4 -15 5 -14 10 9 92 3 9 23 12 76 10 73 -3 73
-3 76 -46z"/>
<path d="M246 942 c-3 -5 3 -19 13 -31 15 -17 31 -21 104 -23 100 -3 126 9 81
39 -31 20 -187 33 -198 15z"/>
<path d="M116 380 c-26 -40 -35 -106 -17 -126 22 -24 20 -62 -4 -98 -26 -38
-32 -70 -16 -81 10 -6 61 14 61 24 1 3 10 17 21 30 15 18 23 21 31 13 17 -17
68 -15 68 1 0 8 -14 26 -30 41 -32 28 -31 46 4 76 25 20 20 43 -6 35 -13 -4
-27 -11 -33 -16 -13 -13 -43 -11 -48 4 -3 6 -2 40 1 75 2 34 3 62 0 62 -3 0
-17 -18 -32 -40z"/>
<path d="M577 394 c-4 -4 -7 -18 -7 -30 0 -13 -9 -40 -21 -61 -35 -63 -38 -65
-70 -46 -16 10 -29 21 -29 25 0 4 -5 8 -11 8 -8 0 -9 -16 -5 -51 7 -52 7 -52
-43 -47 -28 3 -48 1 -45 -4 5 -7 66 -37 105 -51 9 -3 24 -22 34 -44 17 -37 40
-63 57 -63 4 0 8 38 8 84 0 67 4 92 20 119 11 18 23 53 26 78 6 45 -6 96 -19
83z"/>
</g>
</svg>
