<svg version="1.0" xmlns="http://www.w3.org/2000/svg"
 width="89.000000pt" height="157.000000pt" viewBox="0 0 89.000000 157.000000"
 preserveAspectRatio="xMidYMid meet">
<metadata>
Created by potrace 1.15, written by Peter Selinger 2001-2017
</metadata>
<g transform="translate(0.000000,157.000000) scale(0.100000,-0.100000)"
fill="#000000" stroke="none">
<path d="M234 1496 c24 -58 56 -203 56 -255 0 -50 0 -50 -97 -53 -91 -3 -96
-4 -73 -17 14 -8 42 -18 63 -23 93 -20 115 -26 155 -43 40 -16 44 -16 68 0 26
17 26 17 -5 47 -30 30 -39 53 -23 60 5 2 27 39 50 82 32 61 39 83 31 98 -14
25 -25 23 -38 -10 -7 -15 -24 -41 -39 -57 -27 -29 -27 -29 -39 10 -6 22 -12
50 -12 63 -1 31 -17 60 -54 100 -42 44 -62 43 -43 -2z"/>
<path d="M613 1428 c3 -13 15 -59 27 -103 13 -44 25 -102 27 -129 5 -45 4 -48
-13 -40 -11 4 -50 10 -88 12 -64 3 -69 2 -56 -13 24 -28 159 -85 243 -100 31
-6 37 -4 37 10 0 9 -8 29 -19 43 -10 15 -21 46 -25 69 -6 40 -5 43 26 59 41
21 48 31 48 69 0 41 -19 107 -29 100 -5 -2 -12 -20 -15 -38 -3 -18 -19 -46
-35 -61 -31 -30 -37 -27 -62 32 -8 17 -17 32 -21 32 -5 0 -8 7 -8 15 0 21 -22
65 -33 65 -5 0 -7 -10 -4 -22z"/>
<path d="M351 984 c-87 -32 -121 -72 -121 -145 0 -85 63 -179 128 -192 38 -8
48 -25 57 -103 7 -62 7 -62 -77 -57 -82 4 -117 -4 -104 -26 4 -6 16 -11 26
-11 10 0 22 -4 25 -10 4 -6 73 -10 175 -10 93 0 191 -5 219 -12 55 -12 94 -1
106 30 8 21 2 24 -54 30 -49 4 -49 4 -60 67 -16 92 -14 104 22 139 38 36 57
85 57 148 0 38 -6 51 -32 80 -31 32 -42 39 -113 68 -49 21 -203 23 -254 4z
m173 -34 c63 -10 132 -41 153 -68 17 -23 16 -103 -1 -138 -21 -39 -67 -55
-162 -55 -118 -1 -179 23 -210 83 -16 31 -19 98 -4 98 6 0 10 6 10 13 0 19 43
57 76 67 40 11 69 12 138 0z m74 -342 c3 -16 -5 -18 -62 -18 -60 0 -66 2 -66
20 0 19 5 21 62 18 50 -2 63 -6 66 -20z m17 -99 c9 -26 8 -26 -40 -29 -82 -5
-105 -1 -105 18 0 28 8 32 76 32 55 0 63 -3 69 -21z"/>
<path d="M435 845 c-22 -8 -41 -15 -42 -15 -2 0 -3 -7 -3 -15 0 -42 132 -45
146 -3 4 15 1 26 -12 35 -22 16 -38 16 -89 -2z"/>
<path d="M820 354 c0 -69 -22 -120 -57 -129 -34 -8 -37 -3 -39 56 -2 48 -23
89 -47 89 -5 0 -8 -30 -7 -67 4 -98 5 -96 -30 -78 -25 13 -30 21 -30 53 0 34
-27 82 -47 82 -8 0 7 -118 19 -145 11 -24 36 -40 81 -49 26 -6 27 -9 27 -69 0
-60 19 -111 35 -95 4 3 8 41 10 83 3 77 3 77 53 100 59 27 80 54 88 117 7 50
-5 81 -36 98 -19 10 -20 7 -20 -46z"/>
<path d="M150 304 c0 -70 2 -78 29 -105 16 -15 50 -34 76 -41 46 -12 46 -13
40 -48 -7 -43 16 -83 36 -63 7 7 12 27 11 45 -2 45 8 56 51 61 56 6 77 34 77
105 0 46 -4 63 -20 77 -20 18 -20 17 -20 -43 0 -67 -15 -92 -56 -92 -22 0 -24
4 -24 48 -1 47 -39 130 -53 115 -4 -3 -7 -42 -7 -85 0 -43 -3 -78 -6 -78 -3 0
-21 7 -39 16 -33 15 -55 54 -55 95 0 24 -21 69 -32 69 -4 0 -8 -34 -8 -76z"/>
</g>
</svg>
