<svg version="1.0" xmlns="http://www.w3.org/2000/svg"
 width="99.000000pt" height="143.000000pt" viewBox="0 0 99.000000 143.000000"
 preserveAspectRatio="xMidYMid meet">
<metadata>
Created by potrace 1.15, written by Peter Selinger 2001-2017
</metadata>
<g transform="translate(0.000000,143.000000) scale(0.100000,-0.100000)"
fill="#000000" stroke="none">
<path d="M630 1384 c-10 -26 -5 -105 17 -257 6 -44 -4 -107 -17 -107 -31 0
-100 125 -100 181 0 24 -4 30 -17 27 -15 -3 -19 -16 -21 -65 -3 -66 14 -115
58 -161 43 -46 13 -68 -93 -71 -39 -1 -52 3 -67 21 -17 21 -17 23 1 52 26 43
27 156 1 179 -26 24 -32 13 -32 -64 0 -49 -5 -73 -18 -88 -17 -22 -17 -22 -40
-1 -13 13 -22 33 -23 53 -1 114 -11 243 -19 251 -5 5 -16 6 -24 3 -13 -5 -16
-25 -16 -106 0 -81 -3 -100 -16 -105 -9 -3 -19 -4 -24 -1 -14 9 -44 79 -60
140 -13 49 -20 61 -38 63 -22 3 -23 1 -16 -50 13 -107 32 -145 115 -231 73
-75 77 -82 72 -116 -3 -20 -12 -48 -19 -62 -7 -15 -20 -46 -28 -69 -12 -36
-12 -46 0 -77 17 -39 100 -133 119 -133 26 0 45 -37 45 -88 0 -42 -3 -52 -16
-52 -9 0 -30 -13 -45 -30 -26 -27 -29 -37 -29 -95 0 -74 -17 -93 -51 -58 -16
16 -20 34 -21 109 -1 86 -7 103 -35 104 -18 0 -36 -105 -28 -171 5 -46 13 -65
35 -86 51 -50 79 -73 89 -73 5 0 13 -24 16 -53 8 -66 28 -96 50 -77 13 11 15
25 10 70 -7 57 -7 57 54 112 34 30 61 63 61 72 0 28 -28 29 -61 2 -32 -27 -54
-33 -64 -17 -8 15 12 92 28 109 21 20 140 39 262 41 100 2 101 2 113 -24 28
-61 3 -110 -43 -85 -23 13 -82 17 -92 6 -7 -6 29 -54 47 -62 8 -4 40 -10 70
-13 54 -6 54 -6 65 -50 19 -78 55 -64 55 21 0 41 4 49 33 69 17 13 37 29 44
35 26 25 53 86 53 120 0 39 -52 150 -84 177 -19 17 -21 18 -24 2 -2 -10 6 -47
18 -83 32 -94 18 -172 -31 -172 -13 0 -26 15 -41 46 -22 49 -61 74 -113 74
-23 0 -25 4 -25 42 0 77 21 118 97 190 46 44 58 78 48 136 -6 37 -43 92 -62
92 -5 0 -19 9 -31 20 -19 18 -21 27 -15 88 6 66 7 68 64 122 36 35 59 66 63
85 8 41 -6 137 -21 142 -18 6 -43 -50 -43 -95 0 -82 -72 -91 -83 -10 -18 125
-36 157 -57 102z m50 -514 c43 -1 53 -14 52 -65 -3 -55 -14 -80 -55 -118 -49
-46 -78 -55 -183 -62 -99 -7 -99 -7 -147 30 -56 44 -64 68 -48 140 9 39 18 55
34 61 27 10 181 20 262 17 33 -1 71 -2 85 -3z m-78 -345 c5 -21 5 -42 0 -47
-5 -5 -45 -11 -90 -15 -82 -6 -82 -6 -82 45 0 51 0 51 73 54 96 5 90 7 99 -37z"/>
<path d="M475 796 c-5 -2 -36 -9 -67 -16 -32 -7 -58 -16 -58 -20 0 -32 86 -46
189 -32 123 18 133 57 16 66 -39 3 -74 4 -80 2z"/>
</g>
</svg>
