<svg version="1.0" xmlns="http://www.w3.org/2000/svg"
 width="65.000000pt" height="85.000000pt" viewBox="0 0 65.000000 85.000000"
 preserveAspectRatio="xMidYMid meet">
<metadata>
Created by potrace 1.15, written by Peter Selinger 2001-2017
</metadata>
<g transform="translate(0.000000,85.000000) scale(0.100000,-0.100000)"
fill="#000000" stroke="none">
<path d="M401 782 c-6 -11 -11 -31 -11 -44 -1 -22 -1 -22 -16 5 -16 30 -32 35
-40 13 -7 -17 20 -72 38 -79 7 -2 0 -8 -15 -12 -34 -9 -30 -29 6 -33 31 -4 37
-32 8 -32 -30 0 -35 -19 -8 -29 13 -5 27 -17 30 -25 9 -22 24 -20 32 3 3 12
17 21 33 23 36 4 36 32 0 36 -41 5 -34 20 10 24 52 4 51 31 -3 38 -33 5 -36 7
-19 13 34 12 57 43 49 67 -9 28 -37 22 -46 -10 -7 -25 -7 -25 -8 1 -1 14 -7
34 -15 44 -13 18 -14 18 -25 -3z"/>
<path d="M175 755 c-3 -8 -7 -22 -10 -30 -7 -23 -22 -18 -29 10 -7 27 -33 34
-42 11 -8 -21 24 -76 44 -76 9 -1 2 -7 -16 -15 -39 -17 -34 -34 11 -36 29 -2
29 -2 -8 -8 -27 -4 -41 -12 -43 -23 -3 -15 4 -18 36 -18 38 0 40 -2 46 -36 8
-42 30 -41 34 2 2 16 13 37 25 46 22 17 22 17 -3 26 -24 9 -24 9 -2 21 26 14
28 28 5 34 -15 4 -14 6 5 12 25 8 57 59 47 75 -11 17 -25 11 -35 -15 -5 -14
-17 -25 -26 -25 -12 0 -14 6 -9 30 5 24 3 30 -10 30 -8 0 -18 -7 -20 -15z"/>
<path d="M287 643 c-4 -3 -7 -20 -7 -37 0 -37 -30 -89 -62 -110 -16 -10 -36
-13 -60 -10 -29 5 -39 12 -47 36 -13 37 -35 32 -39 -10 -3 -24 2 -34 24 -49
24 -16 51 -18 199 -18 145 0 175 3 197 17 32 21 44 54 28 73 -18 22 -29 18
-36 -11 -7 -28 -44 -47 -71 -37 -10 3 -35 22 -55 41 -28 26 -39 46 -44 79 -6
41 -13 51 -27 36z m37 -154 c-3 -5 -21 -9 -41 -9 -36 0 -36 0 -13 25 22 23 25
24 41 9 10 -9 16 -21 13 -25z"/>
<path d="M191 400 c-75 -16 -90 -42 -97 -157 -2 -40 -13 -100 -24 -133 -21
-61 -20 -80 4 -80 36 0 52 56 72 243 5 52 9 60 37 78 28 16 51 19 179 19 137
0 174 7 153 28 -10 11 -274 12 -324 2z"/>
<path d="M258 333 c-25 -3 -38 -9 -38 -19 0 -12 21 -13 133 -8 72 4 134 8 136
10 24 21 -103 30 -231 17z"/>
<path d="M335 263 c-71 -2 -136 -6 -144 -8 -30 -11 9 -28 69 -30 33 -2 63 -4
65 -6 2 -2 5 -24 7 -49 3 -45 3 -45 -37 -45 -32 0 -40 4 -43 20 -11 57 -52 48
-52 -11 0 -58 28 -68 175 -61 125 5 125 5 125 -19 0 -27 24 -33 34 -8 3 9 6
36 6 60 0 64 -24 84 -100 84 -53 0 -60 2 -60 20 0 18 7 20 70 20 66 0 120 14
120 32 0 4 -24 7 -52 6 -29 -1 -111 -4 -183 -5z m163 -130 c3 -21 -1 -23 -41
-23 -59 0 -77 8 -77 32 0 17 6 19 58 16 50 -3 57 -6 60 -25z"/>
</g>
</svg>
