<svg version="1.0" xmlns="http://www.w3.org/2000/svg"
 width="72.000000pt" height="95.000000pt" viewBox="0 0 72.000000 95.000000"
 preserveAspectRatio="xMidYMid meet">
<metadata>
Created by potrace 1.15, written by Peter Selinger 2001-2017
</metadata>
<g transform="translate(0.000000,95.000000) scale(0.100000,-0.100000)"
fill="#000000" stroke="none">
<path d="M187 702 c-3 -48 -13 -96 -26 -125 -44 -97 -8 -197 71 -197 34 0 36
13 5 37 -25 19 -47 54 -47 74 0 11 16 9 53 -6 26 -11 22 18 -8 53 -28 34 -25
67 6 58 11 -3 28 -9 39 -12 30 -10 24 11 -15 49 -30 29 -35 41 -35 79 0 40
-13 68 -31 68 -3 0 -9 -35 -12 -78z"/>
<path d="M401 771 c-11 -7 -12 -13 -3 -23 9 -11 7 -24 -9 -56 -12 -23 -25 -42
-29 -42 -12 0 -20 -29 -10 -35 6 -3 32 15 59 40 54 50 71 51 71 4 0 -39 -39
-79 -78 -79 -16 0 -46 -7 -66 -15 -31 -13 -36 -20 -36 -49 0 -52 18 -92 48
-106 27 -12 27 -12 0 -34 -57 -45 -23 -49 41 -6 25 17 49 29 55 27 25 -8 15
-37 -22 -64 -124 -90 -184 -170 -70 -94 44 29 88 47 88 36 0 -3 -12 -21 -26
-40 -40 -53 -47 -195 -9 -195 11 0 15 12 16 43 2 56 12 100 24 104 6 2 16 -24
22 -58 12 -61 35 -109 53 -109 14 0 12 31 -4 76 -23 68 -29 114 -13 114 17 0
53 -65 62 -112 11 -56 25 -46 25 17 0 71 -28 129 -69 143 -16 6 -32 19 -35 30
-10 31 33 88 77 103 49 16 71 56 62 109 -9 54 -43 82 -106 88 -51 5 -51 5 -15
38 26 24 36 41 36 63 0 60 -91 112 -139 82z m160 -241 c43 -23 11 -120 -40
-120 -24 0 -45 25 -37 45 3 8 1 27 -4 41 -6 14 -8 30 -4 35 7 12 61 11 85 -1z
m-126 -42 c-4 -17 -14 -38 -21 -46 -13 -12 -18 -12 -39 2 -28 18 -30 28 -15
57 8 13 21 19 46 19 35 0 35 -1 29 -32z"/>
</g>
</svg>
