<svg version="1.0" xmlns="http://www.w3.org/2000/svg"
 width="74.000000pt" height="117.000000pt" viewBox="0 0 74.000000 117.000000"
 preserveAspectRatio="xMidYMid meet">
<metadata>
Created by potrace 1.15, written by Peter Selinger 2001-2017
</metadata>
<g transform="translate(0.000000,117.000000) scale(0.100000,-0.100000)"
fill="#000000" stroke="none">
<path d="M154 1045 c-3 -14 -4 -37 -1 -51 3 -20 -3 -30 -32 -52 -33 -25 -91
-80 -91 -87 0 -14 14 -35 24 -35 6 0 36 23 65 50 30 28 60 50 67 50 7 0 35
-18 64 -41 30 -24 58 -38 66 -35 20 8 14 36 -11 50 -11 6 -27 18 -35 26 -8 8
-24 20 -35 26 -12 7 -21 24 -23 50 -7 71 -44 102 -58 49z"/>
<path d="M603 1023 c-47 -5 -76 -29 -52 -44 8 -5 22 -9 32 -9 25 0 21 -12 -13
-40 -16 -14 -30 -30 -30 -37 0 -14 36 -18 42 -5 2 4 20 23 41 42 44 41 57 33
57 -37 0 -33 -4 -43 -20 -48 -27 -8 -100 -94 -100 -116 0 -31 23 -22 63 26 21
25 43 45 48 45 17 0 9 -31 -16 -55 -38 -39 -58 -90 -52 -135 5 -39 5 -39 -23
-25 -19 10 -30 25 -34 50 -7 34 -29 55 -43 41 -3 -3 -9 -22 -12 -43 -9 -52
-31 -56 -31 -4 0 41 15 86 37 109 29 31 34 54 27 140 -9 109 -28 142 -82 141
-105 -1 -161 -33 -81 -45 41 -7 42 -8 22 -23 -25 -21 -46 -58 -35 -65 15 -9
92 44 92 65 0 10 3 19 8 19 21 -1 30 -20 33 -70 4 -53 3 -55 -23 -58 -16 -2
-34 -14 -44 -30 -9 -15 -24 -34 -33 -42 -24 -23 -42 -60 -36 -70 11 -18 30
-10 47 18 20 32 76 88 83 81 2 -3 -8 -31 -24 -61 -16 -31 -33 -77 -36 -103 -7
-42 -5 -47 14 -52 11 -3 21 -9 21 -14 0 -10 -43 -54 -67 -68 -17 -10 -17 -12
1 -26 11 -8 27 -15 35 -15 9 0 24 -7 34 -14 17 -13 17 -15 -7 -33 -48 -38 -64
-82 -66 -184 -5 -207 -5 -209 20 -209 17 0 20 7 20 49 0 48 0 48 68 56 37 5
104 9 149 10 46 1 86 4 89 8 4 4 1 14 -7 23 -10 12 -24 15 -60 11 -60 -7 -89
1 -89 23 0 23 25 32 79 29 49 -3 61 6 38 28 -11 12 -31 16 -66 14 -27 -1 -52
2 -55 8 -7 11 47 31 85 31 27 0 47 15 35 27 -3 3 -31 6 -63 7 -58 1 -58 1 -61
35 -3 32 -2 33 25 27 15 -4 37 -16 49 -27 24 -23 47 -24 63 -5 10 12 7 18 -18
30 -16 9 -37 16 -46 16 -26 0 -16 27 15 40 60 25 61 59 2 81 -23 9 -24 11 -8
28 9 10 16 35 16 60 0 40 26 94 54 113 7 4 11 55 11 128 0 116 -1 123 -24 141
-13 10 -31 18 -40 17 -9 -1 -35 -3 -58 -5z m-51 -475 c38 -22 60 -46 53 -57
-10 -17 -45 -13 -45 5 0 8 -7 23 -16 31 -13 14 -17 14 -25 2 -5 -8 -9 -22 -9
-31 0 -12 -8 -18 -24 -18 -58 0 -32 49 42 79 1 1 12 -5 24 -11z m-42 -188 c0
-15 -7 -20 -25 -20 -24 0 -34 18 -18 33 15 15 43 7 43 -13z m-5 -85 c0 -5 -17
-11 -37 -13 -36 -3 -47 5 -31 22 11 10 68 3 68 -9z m8 -67 c9 -27 -6 -38 -49
-38 -32 0 -44 4 -44 15 0 29 83 50 93 23z"/>
<path d="M627 909 c-19 -11 -67 -82 -67 -99 0 -5 7 -10 15 -10 8 0 15 4 15 10
0 5 16 25 35 44 47 47 48 82 2 55z"/>
<path d="M383 863 c-50 -55 -40 -90 11 -40 13 12 33 30 45 39 27 23 27 38 -1
37 -13 0 -37 -16 -55 -36z"/>
<path d="M160 853 c0 -5 -2 -66 -3 -138 -2 -130 -2 -130 -37 -131 -49 -1 -80
-13 -80 -30 0 -11 15 -14 60 -14 60 0 60 0 60 -230 0 -219 7 -280 32 -280 11
0 11 -7 9 264 -1 183 2 242 11 248 7 4 31 8 53 8 22 0 47 5 55 10 13 9 12 12
-4 25 -11 8 -29 12 -43 9 -12 -4 -35 -3 -49 0 -25 7 -26 9 -24 74 1 37 2 95 1
130 -1 55 -3 62 -21 62 -11 0 -20 -3 -20 -7z"/>
<path d="M60 775 c0 -19 5 -35 11 -35 5 0 7 -4 4 -10 -6 -10 19 -117 30 -128
3 -3 13 2 22 11 15 14 15 22 5 50 -7 18 -12 43 -12 56 0 35 -27 91 -44 91 -12
0 -16 -10 -16 -35z"/>
<path d="M266 798 c-7 -22 -19 -111 -20 -148 -2 -59 25 -43 50 30 27 78 30
116 8 124 -24 9 -34 7 -38 -6z"/>
<path d="M251 511 c-7 -12 -7 -30 -1 -52 6 -19 10 -107 10 -196 0 -159 0 -163
21 -163 21 0 21 1 14 192 -8 218 -18 268 -44 219z"/>
<path d="M78 443 c-4 -215 2 -337 17 -352 8 -8 16 -13 19 -10 7 7 17 388 10
414 -4 16 -13 25 -25 25 -17 0 -19 -9 -21 -77z"/>
</g>
</svg>
