<svg version="1.0" xmlns="http://www.w3.org/2000/svg"
 width="71.000000pt" height="95.000000pt" viewBox="0 0 71.000000 95.000000"
 preserveAspectRatio="xMidYMid meet">
<metadata>
Created by potrace 1.15, written by Peter Selinger 2001-2017
</metadata>
<g transform="translate(0.000000,95.000000) scale(0.100000,-0.100000)"
fill="#000000" stroke="none">
<path d="M506 739 c-2 -8 -7 -26 -10 -41 -5 -23 -12 -28 -35 -28 -40 0 -88
-43 -101 -88 -5 -20 -10 -118 -10 -217 0 -119 -5 -204 -15 -250 -15 -73 -5
-114 15 -59 6 16 15 40 20 54 17 45 29 153 31 295 3 158 12 189 62 210 18 7
65 17 105 20 40 4 75 12 79 17 8 15 -17 28 -54 28 -22 0 -33 6 -38 19 -3 10
-14 26 -25 36 -16 14 -20 15 -24 4z"/>
<path d="M163 683 c3 -10 11 -33 18 -50 11 -26 11 -42 1 -78 -14 -53 -16 -103
-3 -90 5 6 16 34 26 64 19 58 16 108 -10 147 -18 28 -40 32 -32 7z"/>
<path d="M268 612 c3 -48 0 -78 -12 -106 -36 -86 -4 -62 41 32 25 52 25 53 8
97 -26 69 -43 59 -37 -23z"/>
<path d="M84 655 c-4 -9 1 -24 11 -35 14 -16 17 -31 12 -76 -3 -30 -11 -62
-17 -69 -12 -14 -6 -35 9 -35 13 0 51 95 51 127 0 31 -30 95 -48 101 -7 2 -15
-4 -18 -13z"/>
<path d="M469 531 c-38 -39 -37 -66 6 -104 42 -37 45 -64 9 -77 -25 -10 -25
-30 0 -30 8 0 16 -29 24 -84 11 -86 44 -174 69 -183 24 -9 27 5 10 44 -26 59
-38 132 -31 180 6 38 9 43 33 43 14 0 32 4 40 9 22 14 3 31 -35 31 -19 0 -34
3 -34 8 0 4 16 27 35 51 50 63 45 109 -16 130 -51 18 -78 13 -110 -18z m100
-30 c31 -20 -26 -89 -63 -75 -26 10 -33 55 -11 71 21 15 54 17 74 4z"/>
<path d="M260 399 c-7 -11 -14 -45 -17 -75 -5 -45 -2 -64 16 -99 33 -67 46
-68 35 -4 -5 30 -9 87 -8 127 1 74 -7 88 -26 51z"/>
<path d="M179 368 c-21 -39 -15 -147 11 -203 26 -55 77 -125 91 -125 17 0 9
25 -26 74 -41 57 -60 137 -50 211 7 58 -6 80 -26 43z"/>
<path d="M96 323 c-16 -21 -18 -36 -12 -97 3 -39 12 -88 19 -109 12 -34 41
-66 60 -67 12 0 8 29 -7 53 -20 32 -37 146 -30 200 7 53 -2 59 -30 20z"/>
</g>
</svg>
