<svg version="1.0" xmlns="http://www.w3.org/2000/svg"
 width="70.000000pt" height="79.000000pt" viewBox="0 0 70.000000 79.000000"
 preserveAspectRatio="xMidYMid meet">
<metadata>
Created by potrace 1.15, written by Peter Selinger 2001-2017
</metadata>
<g transform="translate(0.000000,79.000000) scale(0.100000,-0.100000)"
fill="#000000" stroke="none">
<path d="M170 681 c-15 -4 -26 -15 -28 -29 -3 -22 -1 -22 65 -16 64 5 70 4 96
-21 32 -31 37 -80 8 -90 -10 -3 -26 -14 -36 -25 -21 -23 -8 -47 28 -52 19 -3
22 -8 19 -48 -2 -24 -5 -46 -8 -49 -3 -3 -53 -7 -110 -9 -80 -3 -107 -8 -111
-19 -9 -24 6 -28 110 -28 102 0 102 0 100 -44 -1 -25 -7 -57 -14 -73 -12 -28
-94 -96 -141 -116 -33 -14 -37 -42 -8 -42 53 0 170 90 193 148 8 20 17 58 21
85 7 47 7 47 117 47 102 0 109 1 109 20 0 33 -33 42 -132 34 -91 -7 -91 -7
-85 37 4 31 13 49 31 62 33 24 33 46 0 72 -24 19 -26 25 -17 51 12 35 36 48
128 67 47 9 70 18 70 28 0 10 -18 15 -69 17 -61 3 -73 0 -107 -24 -39 -27 -39
-27 -77 0 -39 27 -95 33 -152 17z"/>
</g>
</svg>
