<svg version="1.0" xmlns="http://www.w3.org/2000/svg"
 width="73.000000pt" height="134.000000pt" viewBox="0 0 73.000000 134.000000"
 preserveAspectRatio="xMidYMid meet">
<metadata>
Created by potrace 1.15, written by Peter Selinger 2001-2017
</metadata>
<g transform="translate(0.000000,134.000000) scale(0.100000,-0.100000)"
fill="#000000" stroke="none">
<path d="M84 1135 c-14 -37 13 -45 147 -45 129 0 129 0 129 -31 0 -30 0 -30
-62 -29 -93 2 -98 1 -98 -17 0 -15 -1 -15 -13 1 -13 18 -15 18 -39 2 -27 -17
-32 -33 -48 -146 -22 -149 -23 -165 -8 -178 21 -17 48 5 57 48 5 23 13 34 22
32 8 -2 30 -6 49 -8 19 -2 49 -6 66 -9 30 -5 66 17 51 31 -11 11 -78 22 -127
20 -50 -1 -50 -1 -50 57 0 56 12 95 34 109 12 8 78 9 129 2 37 -6 37 -6 37
-55 0 -27 -4 -49 -10 -49 -5 0 -10 6 -10 14 0 18 -19 23 -88 25 -39 1 -54 -3
-58 -14 -12 -31 15 -45 92 -45 73 0 73 0 71 -90 -2 -103 13 -94 -149 -91 -82
2 -88 1 -88 -18 0 -11 4 -22 8 -25 5 -3 103 -8 217 -10 217 -6 235 -3 235 35
0 17 -9 19 -90 19 -82 0 -107 8 -80 25 6 3 10 23 10 43 0 37 0 37 90 34 49 -2
90 0 90 5 -1 29 -20 35 -99 32 -82 -4 -82 -4 -79 25 3 29 3 29 86 27 62 -2 82
1 82 11 0 29 -16 36 -87 34 -39 0 -74 1 -76 4 -3 3 -3 17 0 33 5 27 7 27 79
27 73 0 75 -1 94 -32 17 -29 20 -51 20 -170 0 -115 2 -138 15 -138 27 0 39 44
43 167 4 117 3 124 -22 167 -25 44 -26 44 -93 51 -147 15 -138 12 -129 51 7
26 7 26 79 20 183 -16 195 -16 201 1 14 35 -14 42 -204 52 -307 16 -419 15
-426 -4z"/>
<path d="M34 539 c-3 -6 1 -18 10 -27 13 -14 34 -16 116 -14 133 5 140 2 140
-54 0 -41 2 -45 36 -59 20 -8 47 -15 60 -15 79 0 22 -157 -98 -270 -32 -31
-35 -37 -24 -52 7 -10 20 -18 28 -18 18 0 65 50 125 131 100 135 101 213 4
255 -61 26 -66 30 -69 54 -4 23 -4 23 150 18 84 -3 161 -9 170 -13 11 -4 20 0
28 16 19 34 -5 45 -117 53 -155 10 -551 7 -559 -5z"/>
</g>
</svg>
