<svg version="1.0" xmlns="http://www.w3.org/2000/svg"
 width="99.000000pt" height="161.000000pt" viewBox="0 0 99.000000 161.000000"
 preserveAspectRatio="xMidYMid meet">
<metadata>
Created by potrace 1.15, written by Peter Selinger 2001-2017
</metadata>
<g transform="translate(0.000000,161.000000) scale(0.100000,-0.100000)"
fill="#000000" stroke="none">
<path d="M475 1552 c-38 -2 -74 -7 -79 -13 -6 -5 -18 -9 -28 -9 -10 0 -18 -4
-18 -10 0 -6 50 -10 130 -10 121 0 130 1 130 19 0 22 -30 27 -135 23z"/>
<path d="M431 1359 c-30 -5 -60 -14 -68 -21 -7 -6 -16 -8 -20 -5 -3 4 -12 2
-20 -4 -9 -9 -13 -8 -13 0 0 8 -5 9 -19 1 -11 -5 -29 -10 -40 -10 -11 0 -26
-7 -35 -15 -8 -8 -21 -15 -28 -15 -23 0 -60 -40 -53 -58 3 -9 3 -13 -1 -9 -12
11 -35 -31 -39 -71 -2 -20 -7 -57 -10 -82 -3 -25 -9 -110 -12 -190 -5 -137 -4
-144 12 -129 14 13 18 39 21 120 8 214 22 318 45 332 11 7 19 20 19 29 0 10 7
18 16 18 9 0 26 10 37 23 14 15 21 18 24 9 4 -10 8 -10 20 0 18 15 131 12 150
-4 10 -8 13 -59 13 -218 0 -199 1 -208 20 -213 11 -3 22 -2 24 1 2 4 7 77 11
162 14 316 12 305 57 314 62 12 190 6 229 -11 66 -29 76 -61 118 -378 10 -75
19 -105 33 -105 11 0 8 48 -11 200 -21 166 -26 188 -55 250 -18 41 -38 54
-116 78 -42 13 -233 13 -309 1z"/>
<path d="M595 1220 c-15 -25 51 -50 131 -50 86 0 68 23 -31 40 -27 5 -60 12
-71 16 -12 3 -25 1 -29 -6z"/>
<path d="M278 1157 c-38 -38 -62 -67 -77 -96 -14 -25 -14 -44 -1 -36 6 3 10 1
10 -4 0 -18 32 7 64 50 17 21 35 39 42 39 13 0 27 56 18 71 -9 15 -21 10 -56
-24z"/>
<path d="M585 999 c-7 -10 8 -19 70 -43 63 -24 125 -32 125 -17 0 13 -82 51
-110 51 -10 0 -21 4 -24 9 -7 11 -55 11 -61 0z"/>
<path d="M285 964 c-32 -16 -62 -46 -83 -82 -10 -18 -10 -22 3 -22 18 0 84 33
85 42 0 4 11 18 25 32 44 44 27 60 -30 30z"/>
<path d="M607 614 c-4 -4 -91 -7 -195 -6 -184 1 -189 0 -218 -23 -26 -21 -27
-24 -10 -31 10 -4 27 -2 37 4 10 7 37 9 61 7 24 -3 61 -7 83 -9 39 -3 40 -5
52 -51 7 -27 10 -51 8 -55 -3 -4 -61 -11 -130 -15 -69 -4 -125 -11 -125 -16 0
-10 37 -12 168 -9 92 2 92 2 92 -80 0 -82 0 -82 -65 -145 -35 -35 -81 -76
-100 -91 -43 -32 -33 -54 12 -27 79 48 133 90 145 113 7 14 15 27 18 30 10 9
29 85 33 134 3 27 11 52 18 57 8 5 67 9 132 9 71 0 117 4 117 10 0 6 -8 10
-17 11 -23 2 -88 4 -180 7 -73 2 -73 2 -73 61 0 33 4 62 9 65 5 3 47 6 95 7
47 1 89 5 92 10 3 5 14 9 25 9 12 0 19 5 17 13 -5 13 -89 23 -101 11z"/>
</g>
</svg>
