<svg version="1.0" xmlns="http://www.w3.org/2000/svg"
 width="61.000000pt" height="121.000000pt" viewBox="0 0 61.000000 121.000000"
 preserveAspectRatio="xMidYMid meet">
<metadata>
Created by potrace 1.15, written by Peter Selinger 2001-2017
</metadata>
<g transform="translate(0.000000,121.000000) scale(0.100000,-0.100000)"
fill="#000000" stroke="none">
<path d="M103 1023 c-14 -33 -18 -259 -5 -267 12 -7 32 62 32 111 0 22 3 55 6
72 7 31 8 32 58 29 48 -3 51 -4 54 -33 2 -16 8 -35 13 -42 7 -7 6 -14 -1 -18
-6 -4 -10 -35 -9 -76 3 -130 25 -81 38 86 6 80 6 80 66 80 60 0 60 0 61 -101
2 -205 29 -230 38 -36 3 61 8 123 12 137 4 16 2 25 -6 25 -7 0 -9 8 -5 19 8
25 -13 38 -28 17 -12 -15 -26 -17 -205 -17 -76 0 -84 2 -89 21 -7 27 -16 25
-30 -7z"/>
<path d="M70 627 c0 -7 19 -18 43 -24 97 -26 427 -44 427 -24 0 9 -14 11 -150
30 -36 5 -92 14 -125 20 -86 15 -195 14 -195 -2z"/>
<path d="M306 533 c-6 -28 -6 -28 -117 -25 -88 3 -110 1 -107 -10 6 -17 83
-44 152 -52 32 -4 56 -13 57 -19 7 -153 22 -287 35 -320 3 -10 12 -16 18 -14
7 3 11 56 11 173 0 169 0 169 45 166 55 -5 150 7 150 18 0 16 -82 40 -141 40
-59 0 -60 0 -75 35 -8 19 -16 35 -18 35 -3 0 -7 -12 -10 -27z"/>
<path d="M176 358 c-2 -7 -7 -52 -10 -99 -5 -75 -4 -88 10 -93 9 -4 20 -4 23
0 3 3 6 49 6 101 0 68 -4 97 -12 100 -7 3 -15 -1 -17 -9z"/>
<path d="M447 313 c-7 -12 -18 -102 -19 -151 0 -41 6 -61 17 -50 12 12 35 153
30 180 -6 27 -19 36 -28 21z"/>
</g>
</svg>
