<svg version="1.0" xmlns="http://www.w3.org/2000/svg"
 width="89.000000pt" height="149.000000pt" viewBox="0 0 89.000000 149.000000"
 preserveAspectRatio="xMidYMid meet">
<metadata>
Created by potrace 1.15, written by Peter Selinger 2001-2017
</metadata>
<g transform="translate(0.000000,149.000000) scale(0.100000,-0.100000)"
fill="#000000" stroke="none">
<path d="M569 1456 c-2 -2 -53 -7 -114 -10 -191 -13 -273 -21 -281 -29 -17
-17 14 -42 57 -47 42 -5 44 -6 50 -45 4 -22 9 -66 11 -97 5 -63 3 -65 -77 -74
-67 -8 -106 -24 -103 -42 4 -22 59 -32 136 -25 62 6 62 6 61 -58 -2 -68 -8
-79 -51 -79 -23 0 -28 4 -28 26 0 60 -42 86 -61 37 -16 -41 11 -324 32 -347 5
-6 9 -18 9 -29 0 -33 63 -118 99 -133 60 -25 261 -11 261 18 0 5 8 8 17 8 17
0 83 65 83 82 0 5 9 28 21 51 17 35 21 67 25 186 3 80 7 147 9 150 1 3 -3 37
-10 76 -16 85 -44 115 -106 115 -34 0 -41 4 -50 28 -12 32 -3 149 13 158 6 4
20 7 32 8 15 1 22 9 24 28 3 22 -2 30 -23 38 -30 11 -30 11 -36 6z m-88 -93
c1 -5 2 -45 3 -91 2 -65 0 -82 -10 -78 -7 3 -15 2 -18 -2 -3 -5 -22 -9 -43
-10 -39 -3 -39 -3 -51 83 -7 47 -10 90 -7 95 7 12 124 14 126 3z m7 -320 c-3
-68 -3 -68 -48 -69 -45 -1 -45 -1 -56 55 -13 68 -2 81 63 81 44 0 44 0 41 -67z
m145 53 c3 -7 8 -34 12 -59 8 -50 6 -51 -65 -59 -24 -3 -25 -1 -28 65 -3 67
-3 67 36 67 25 0 42 -5 45 -14z m17 -240 c0 -39 -5 -67 -12 -73 -22 -17 -356
-49 -374 -36 -7 4 -15 33 -19 64 -7 55 -7 55 47 67 73 16 127 23 238 31 52 4
101 8 108 9 8 2 12 -17 12 -62z m-30 -166 c0 -34 -49 -100 -100 -133 -27 -17
-94 -22 -150 -11 -37 7 -66 33 -81 72 -19 50 -21 49 111 70 66 10 220 12 220
2z"/>
<path d="M570 389 c-258 -15 -385 -41 -378 -78 4 -21 134 -20 283 2 61 9 142
17 181 17 41 0 75 5 82 12 14 14 16 48 3 48 -5 0 -15 1 -23 3 -7 2 -74 0 -148
-4z"/>
<path d="M562 238 c-40 -40 22 -127 104 -143 45 -9 176 -7 186 3 16 16 -16 31
-70 33 -29 2 -55 6 -58 11 -3 4 -16 8 -29 8 -27 0 -91 51 -100 81 -7 22 -16
24 -33 7z"/>
<path d="M310 215 c0 -51 -74 -117 -150 -134 -51 -11 -56 -16 -40 -36 14 -17
65 -20 75 -5 3 6 16 10 28 10 12 0 33 9 47 20 14 11 30 20 36 20 19 0 54 46
54 71 0 26 -25 69 -41 69 -5 0 -9 -7 -9 -15z"/>
</g>
</svg>
