<svg version="1.0" xmlns="http://www.w3.org/2000/svg"
 width="81.000000pt" height="97.000000pt" viewBox="0 0 81.000000 97.000000"
 preserveAspectRatio="xMidYMid meet">
<metadata>
Created by potrace 1.15, written by Peter Selinger 2001-2017
</metadata>
<g transform="translate(0.000000,97.000000) scale(0.100000,-0.100000)"
fill="#000000" stroke="none">
<path d="M304 722 c-27 -20 -50 -40 -52 -44 -2 -5 -30 -8 -63 -8 -65 0 -75
-11 -28 -30 30 -13 30 -13 -12 -56 -40 -41 -48 -73 -11 -46 9 7 31 21 47 32
30 20 30 20 35 -23 3 -23 9 -42 15 -42 5 0 15 29 22 65 9 45 20 70 36 82 23
18 47 23 47 11 0 -5 7 -53 15 -107 8 -55 13 -101 11 -104 -3 -2 -15 5 -27 17
-27 25 -38 26 -45 6 -6 -14 24 -61 62 -100 16 -15 15 -20 -14 -75 -22 -41 -28
-61 -21 -66 11 -6 48 31 49 49 0 5 4 6 9 3 5 -4 12 -39 16 -80 11 -115 31
-130 44 -32 9 69 17 78 42 46 48 -60 53 -64 57 -52 4 13 -58 146 -91 195 -10
15 -16 35 -13 43 3 9 2 23 -4 33 -10 20 8 53 47 84 13 10 30 25 38 33 8 9 19
12 25 9 13 -8 13 -95 0 -95 -5 0 -10 -18 -10 -40 0 -51 13 -51 33 -1 9 22 20
42 25 45 9 6 52 -52 65 -86 3 -10 11 -18 17 -18 11 0 8 30 -6 82 -3 9 -1 19 5
22 14 9 1 45 -19 51 -20 6 -80 70 -80 85 0 5 -11 12 -23 15 -19 5 -33 -4 -73
-44 -27 -28 -51 -51 -55 -51 -3 0 -11 35 -18 78 -7 42 -17 85 -22 94 -5 10 -9
24 -9 32 0 28 -18 25 -66 -12z"/>
</g>
</svg>
