<svg version="1.0" xmlns="http://www.w3.org/2000/svg"
 width="89.000000pt" height="173.000000pt" viewBox="0 0 89.000000 173.000000"
 preserveAspectRatio="xMidYMid meet">
<metadata>
Created by potrace 1.15, written by Peter Selinger 2001-2017
</metadata>
<g transform="translate(0.000000,173.000000) scale(0.100000,-0.100000)"
fill="#000000" stroke="none">
<path d="M234 1577 c-23 -29 -48 -63 -55 -77 -12 -22 -93 -123 -126 -158 -6
-6 -15 -21 -18 -32 -3 -11 -10 -20 -15 -20 -9 0 -25 -59 -17 -66 2 -3 24 14
47 38 37 38 41 40 36 18 -12 -56 -17 -210 -7 -210 6 0 11 10 11 23 0 13 4 27
10 33 5 5 14 43 21 84 16 106 19 111 36 61 8 -23 26 -62 39 -85 14 -22 27 -49
31 -58 7 -22 23 -24 23 -2 0 24 -21 106 -35 139 -18 41 -38 116 -37 137 0 10
12 33 26 51 14 19 26 37 26 41 0 16 49 58 62 53 14 -5 58 -88 108 -202 12 -27
28 -63 36 -80 19 -42 34 -127 34 -196 0 -63 -7 -72 -30 -38 -8 12 -29 39 -47
61 -17 21 -35 47 -38 58 -5 14 -15 20 -37 20 -31 0 -31 0 -18 -45 2 -5 0 -28
-5 -50 -6 -29 -22 -54 -61 -92 -29 -29 -57 -53 -63 -53 -6 0 -11 -4 -11 -9 0
-20 21 -21 62 -2 43 20 43 20 46 -5 5 -35 30 -30 40 8 8 33 8 33 35 -26 29
-62 33 -86 17 -86 -5 0 -10 -6 -10 -13 0 -8 -8 -22 -19 -31 -29 -26 -34 -95
-11 -166 23 -72 47 -125 73 -163 21 -31 22 -20 -15 -207 -10 -55 -20 -89 -33
-122 -5 -13 -2 -18 11 -18 19 0 54 49 54 76 0 8 4 22 9 32 5 9 15 37 22 62 17
60 26 68 40 37 14 -30 33 -37 25 -9 -3 9 -8 34 -12 55 -3 20 -10 40 -15 43
-13 8 -11 109 3 139 15 33 23 32 40 -5 7 -17 16 -30 20 -30 5 0 8 35 8 79 0
90 8 143 21 135 5 -3 27 -30 49 -59 77 -104 126 -135 86 -54 -9 18 -16 38 -16
46 0 7 -4 13 -9 13 -5 0 -12 8 -16 19 -3 10 -17 31 -31 47 -14 16 -39 49 -56
73 -34 48 -35 57 -43 248 -2 62 -9 130 -14 150 -18 63 -13 89 31 155 50 75 65
91 78 83 15 -9 23 -75 12 -98 -14 -31 -31 -97 -34 -131 -5 -46 19 -42 43 8 12
25 24 46 28 46 10 0 23 -27 57 -117 26 -69 50 -99 40 -50 -3 12 -8 49 -11 82
-6 60 -6 60 29 20 35 -40 35 -40 36 -12 0 30 0 31 -60 98 -26 31 -49 72 -65
119 -14 40 -30 79 -36 86 -26 32 -69 9 -120 -66 -13 -19 -27 -39 -32 -45 -4
-5 -14 -19 -21 -29 -12 -18 -14 -17 -29 14 -10 18 -17 39 -17 47 0 7 -4 13
-10 13 -5 0 -10 4 -10 10 0 18 -102 181 -123 195 -12 8 -24 15 -27 15 -3 -1
-24 -24 -46 -53z m157 -578 c84 -72 79 -63 79 -142 0 -39 5 -100 10 -135 9
-55 8 -66 -8 -90 -10 -15 -27 -44 -37 -64 -11 -21 -23 -38 -27 -38 -9 0 -30
49 -47 111 -13 47 -13 47 28 110 23 35 41 70 41 78 0 9 3 26 6 39 5 16 2 22
-10 22 -9 0 -16 -4 -16 -10 0 -5 -4 -10 -10 -10 -5 0 -10 18 -10 39 0 22 -4
41 -8 43 -8 3 -25 68 -18 68 1 0 14 -9 27 -21z"/>
</g>
</svg>
