<svg version="1.0" xmlns="http://www.w3.org/2000/svg"
 width="73.000000pt" height="85.000000pt" viewBox="0 0 73.000000 85.000000"
 preserveAspectRatio="xMidYMid meet">
<metadata>
Created by potrace 1.15, written by Peter Selinger 2001-2017
</metadata>
<g transform="translate(0.000000,85.000000) scale(0.100000,-0.100000)"
fill="#000000" stroke="none">
<path d="M455 698 c-3 -7 -6 -29 -7 -48 -3 -29 1 -35 19 -38 26 -4 38 25 28
68 -7 30 -32 41 -40 18z"/>
<path d="M205 689 c-9 -13 4 -119 14 -119 32 0 46 112 15 124 -21 8 -22 8 -29
-5z"/>
<path d="M380 674 c-6 -14 -10 -57 -10 -95 0 -38 -3 -69 -6 -69 -18 0 -53 56
-48 76 6 24 -3 64 -14 64 -9 0 -26 -41 -43 -98 -14 -48 -100 -149 -118 -138
-22 14 -3 176 21 176 5 0 8 14 8 30 0 39 -27 40 -41 3 -6 -16 -16 -35 -24 -43
-19 -22 -28 -121 -15 -169 7 -28 23 -51 51 -73 69 -55 81 -96 58 -196 -22 -92
11 -109 38 -19 29 97 10 189 -50 237 -18 15 -19 20 -8 34 7 9 24 16 37 16 17
0 23 -6 26 -27 2 -22 8 -27 25 -25 12 2 24 -2 28 -8 15 -24 21 -7 15 44 -8 75
-3 83 31 50 36 -35 39 -95 8 -151 -28 -51 -27 -51 -40 -14 -15 41 -33 35 -37
-14 -3 -36 14 -95 27 -95 3 0 17 9 31 20 14 11 30 20 36 20 13 0 24 -45 24
-100 0 -20 3 -40 7 -43 13 -13 33 16 33 49 0 33 21 47 35 24 3 -5 10 -10 16
-10 12 0 12 37 -1 45 -5 3 -10 13 -10 22 0 8 -8 27 -19 41 -10 15 -21 51 -23
80 -5 56 5 77 51 101 27 15 37 6 48 -41 21 -98 62 105 45 222 -5 31 -12 46
-24 48 -13 3 -20 -9 -29 -57 -10 -49 -20 -68 -51 -97 -38 -36 -38 -36 -38 69
0 83 -3 109 -16 121 -21 21 -23 20 -34 -10z"/>
<path d="M125 228 c-3 -24 -2 -56 3 -73 9 -30 9 -30 21 -2 15 39 14 92 -3 106
-12 10 -16 5 -21 -31z"/>
</g>
</svg>
