<svg version="1.0" xmlns="http://www.w3.org/2000/svg"
 width="75.000000pt" height="167.000000pt" viewBox="0 0 75.000000 167.000000"
 preserveAspectRatio="xMidYMid meet">
<metadata>
Created by potrace 1.15, written by Peter Selinger 2001-2017
</metadata>
<g transform="translate(0.000000,167.000000) scale(0.100000,-0.100000)"
fill="#000000" stroke="none">
<path d="M520 1584 c-6 -14 -10 -32 -10 -40 0 -8 -3 -14 -8 -14 -4 0 -13 -15
-20 -32 -8 -18 -31 -70 -53 -115 -31 -66 -39 -93 -39 -140 0 -57 -1 -58 -18
-35 -9 12 -37 60 -61 107 -43 83 -66 103 -77 68 -3 -10 -10 -26 -15 -35 -5
-10 -9 -28 -9 -40 -1 -26 -22 -58 -38 -58 -16 0 -113 -100 -107 -110 10 -16
21 -12 65 25 23 19 43 35 45 35 2 0 -1 -17 -6 -37 -27 -108 -20 -136 17 -68
22 41 31 44 43 12 5 -13 16 -29 25 -36 14 -12 16 -11 16 5 0 11 -7 53 -16 94
-15 72 -12 140 5 140 5 0 37 -57 72 -127 34 -71 66 -131 71 -134 12 -8 28
-114 28 -189 -1 -50 -6 -75 -25 -110 -14 -25 -28 -53 -31 -62 -4 -10 -10 -18
-15 -18 -5 0 -9 -9 -9 -19 0 -11 -5 -23 -10 -26 -6 -3 -10 -18 -10 -32 0 -26
1 -25 37 17 21 24 42 53 46 64 9 21 9 21 17 1 4 -11 11 -48 15 -82 9 -80 25
-82 25 -3 0 33 3 60 6 60 8 0 34 -27 34 -37 0 -4 11 -21 25 -38 13 -16 33 -41
44 -55 10 -14 22 -22 26 -19 6 7 -45 128 -64 151 -56 66 -64 90 -69 215 -4 98
-2 129 11 155 9 18 21 47 27 63 12 30 12 30 28 -19 16 -48 15 -51 -11 -126
-15 -41 -27 -79 -27 -83 0 -18 20 -4 40 28 27 43 38 41 55 -8 25 -73 65 -88
45 -17 -6 19 -10 43 -10 53 0 17 2 17 31 -4 20 -14 34 -18 40 -12 12 12 -75
113 -97 113 -8 0 -14 10 -15 23 -1 27 -49 119 -66 124 -6 2 -21 -14 -34 -36
-12 -23 -25 -41 -29 -41 -7 0 -30 143 -30 187 0 33 97 243 112 243 21 0 1
-130 -31 -214 -7 -16 -9 -32 -5 -35 8 -8 31 25 52 72 9 20 19 37 23 37 3 0 16
-22 29 -50 30 -64 44 -64 35 1 -7 51 -7 51 33 24 74 -49 71 -22 -6 56 -48 49
-77 89 -88 119 -34 96 -47 109 -64 64z"/>
<path d="M269 908 c-5 -13 -23 -45 -39 -73 -52 -88 -63 -118 -62 -170 1 -27 6
-51 12 -53 5 -2 10 -8 10 -14 0 -6 23 -44 51 -86 51 -75 51 -75 38 -116 -7
-22 -16 -45 -19 -51 -4 -5 -13 -32 -20 -60 -7 -27 -16 -54 -20 -60 -5 -5 -15
-30 -23 -55 -9 -25 -18 -53 -22 -62 -5 -12 -2 -18 8 -18 15 0 55 48 74 90 6
14 22 50 36 80 51 109 71 190 47 190 -5 0 -10 5 -10 11 0 6 -27 51 -60 100
-41 60 -60 98 -60 119 0 16 5 30 10 30 6 0 10 7 10 16 0 9 8 28 18 42 10 15
24 41 31 57 8 17 18 40 24 52 11 24 4 53 -13 53 -6 0 -15 -10 -21 -22z"/>
<path d="M87 848 c-19 -77 -37 -165 -37 -175 0 -7 7 -13 15 -13 18 0 31 30 51
113 11 46 11 61 2 77 -16 26 -24 25 -31 -2z"/>
<path d="M323 818 c-9 -13 -21 -38 -42 -91 -13 -34 -14 -77 -2 -77 13 0 51 55
51 73 0 9 5 19 10 22 12 8 13 85 1 85 -5 0 -13 -6 -18 -12z"/>
<path d="M120 471 c-5 -11 -10 -55 -10 -99 0 -61 3 -81 15 -86 23 -8 35 26 35
103 0 96 -15 128 -40 82z"/>
<path d="M496 454 c-9 -24 -7 -81 5 -130 23 -90 51 -64 45 41 -3 39 -8 78 -11
88 -9 21 -31 22 -39 1z"/>
<path d="M363 370 c-16 -25 -17 -101 -1 -135 14 -32 20 -31 36 2 18 39 15 107
-5 132 -18 22 -18 22 -30 1z"/>
<path d="M452 281 c4 -13 18 -16 19 -4 0 4 -5 9 -11 12 -7 2 -11 -2 -8 -8z"/>
</g>
</svg>
