<svg version="1.0" xmlns="http://www.w3.org/2000/svg"
 width="75.000000pt" height="113.000000pt" viewBox="0 0 75.000000 113.000000"
 preserveAspectRatio="xMidYMid meet">
<metadata>
Created by potrace 1.15, written by Peter Selinger 2001-2017
</metadata>
<g transform="translate(0.000000,113.000000) scale(0.100000,-0.100000)"
fill="#000000" stroke="none">
<path d="M482 928 c-6 -6 -12 -16 -12 -21 0 -5 -8 -17 -18 -26 -49 -44 -98
-136 -107 -199 -4 -29 -11 -54 -15 -57 -4 -3 -25 28 -45 68 -59 114 -95 156
-95 110 0 -16 -13 -63 -30 -108 -5 -11 -14 -36 -21 -55 -7 -19 -20 -44 -29
-55 -36 -42 -100 -145 -100 -159 0 -23 13 -19 35 11 55 73 52 74 47 -15 -3
-54 -1 -82 6 -82 12 0 18 17 27 75 14 88 25 96 52 38 9 -21 20 -40 23 -43 4
-3 9 -13 13 -22 3 -10 11 -18 17 -18 13 0 4 59 -11 74 -5 6 -9 16 -9 23 0 7
-11 31 -25 52 -25 38 -25 38 4 127 23 71 31 85 38 69 4 -11 29 -58 55 -105 44
-80 47 -90 49 -165 3 -152 1 -165 -35 -236 -38 -77 -31 -101 11 -40 16 22 31
40 34 41 7 0 29 -111 29 -143 0 -9 4 -17 9 -17 11 0 25 75 16 90 -13 22 12 8
40 -21 53 -57 40 -4 -19 78 -17 23 -25 52 -30 105 -4 40 -9 89 -12 108 -5 28
1 44 25 80 17 25 31 53 31 63 0 34 30 16 51 -30 18 -40 21 -59 16 -123 -3 -41
-11 -89 -18 -107 -7 -18 -10 -36 -5 -40 13 -13 46 36 52 79 4 22 12 37 18 35
9 -3 33 -43 49 -82 2 -5 17 2 32 17 26 27 27 28 6 28 -12 0 -21 6 -21 15 0 11
8 13 30 9 45 -9 36 10 -16 37 -48 24 -54 33 -123 175 -16 33 -36 66 -44 72
-15 13 -24 4 -56 -60 -31 -61 -41 -10 -19 97 12 62 84 184 103 175 6 -3 9 -36
7 -77 -3 -73 9 -99 23 -46 6 27 6 27 20 -2 7 -17 16 -38 19 -48 11 -34 26 -7
19 35 -6 41 -6 41 25 35 43 -9 40 3 -8 32 -37 23 -60 61 -60 100 0 9 -8 26
-18 39 -14 18 -20 20 -30 10z"/>
</g>
</svg>
