<svg version="1.0" xmlns="http://www.w3.org/2000/svg"
 width="66.000000pt" height="79.000000pt" viewBox="0 0 66.000000 79.000000"
 preserveAspectRatio="xMidYMid meet">
<metadata>
Created by potrace 1.15, written by Peter Selinger 2001-2017
</metadata>
<g transform="translate(0.000000,79.000000) scale(0.100000,-0.100000)"
fill="#000000" stroke="none">
<path d="M166 529 c-76 -8 -111 -22 -100 -40 3 -5 52 -9 110 -9 104 0 104 0
104 -65 0 -65 0 -65 -39 -65 -22 0 -46 -3 -55 -6 -11 -4 -16 -1 -16 11 0 23
-54 75 -79 75 -27 0 -27 -22 0 -46 26 -24 49 -67 49 -93 0 -11 -16 -36 -35
-57 -35 -37 -42 -63 -19 -71 19 -6 69 52 82 96 13 41 13 41 62 41 50 0 50 0
50 -95 0 -68 -4 -97 -13 -101 -7 -2 -55 -8 -107 -12 -86 -6 -95 -9 -95 -27 0
-20 6 -20 250 -17 199 3 253 6 265 18 29 29 -3 37 -130 35 -120 -2 -120 -2
-120 98 0 101 0 101 70 101 66 0 70 -1 71 -22 1 -42 35 -123 52 -126 29 -6 31
27 6 100 -18 55 -20 73 -11 86 32 45 43 75 33 85 -14 14 -59 -17 -71 -49 -9
-22 -14 -24 -80 -24 -71 0 -71 0 -68 63 3 62 3 62 106 65 84 2 104 6 109 19
13 34 -24 43 -166 42 -75 -1 -171 -5 -215 -10z"/>
</g>
</svg>
