<svg version="1.0" xmlns="http://www.w3.org/2000/svg"
 width="47.000000pt" height="109.000000pt" viewBox="0 0 47.000000 109.000000"
 preserveAspectRatio="xMidYMid meet">
<metadata>
Created by potrace 1.15, written by Peter Selinger 2001-2017
</metadata>
<g transform="translate(0.000000,109.000000) scale(0.100000,-0.100000)"
fill="#000000" stroke="none">
<path d="M155 911 c-3 -6 -3 -17 2 -23 4 -7 6 -40 5 -73 -1 -33 1 -65 5 -71 8
-11 105 -26 158 -24 17 0 43 1 58 1 21 0 30 6 38 26 13 36 16 140 4 151 -15
14 -262 26 -270 13z m160 -36 c102 -4 94 1 83 -52 -14 -72 -16 -77 -31 -65 -7
6 -46 12 -85 13 -40 1 -75 6 -79 12 -10 16 -10 81 0 95 6 7 18 10 31 6 11 -4
48 -8 81 -9z"/>
<path d="M250 620 c0 -38 -4 -70 -8 -70 -15 0 -52 -124 -52 -173 0 -42 -5 -53
-31 -78 -17 -16 -34 -29 -38 -29 -26 0 -40 -103 -19 -133 12 -16 16 -15 50 8
20 14 41 25 46 25 5 0 15 7 22 15 22 27 30 16 30 -44 0 -92 17 -117 40 -61 8
20 10 52 5 100 -6 59 -10 70 -26 70 -18 0 -84 -33 -104 -51 -16 -16 -27 -10
-23 13 2 16 19 30 62 51 35 17 60 35 63 48 5 16 11 19 33 14 20 -4 29 -2 34
10 3 9 4 21 1 26 -3 5 -8 23 -11 41 -3 18 -10 58 -15 88 -5 30 -12 84 -15 120
-6 59 -15 79 -36 80 -5 0 -8 -31 -8 -70z m24 -182 c7 -59 6 -62 -21 -84 -15
-13 -31 -23 -35 -24 -11 0 -10 54 1 66 4 5 14 30 21 57 7 26 16 47 20 47 4 0
11 -28 14 -62z"/>
</g>
</svg>
