<svg version="1.0" xmlns="http://www.w3.org/2000/svg"
 width="62.000000pt" height="119.000000pt" viewBox="0 0 62.000000 119.000000"
 preserveAspectRatio="xMidYMid meet">
<metadata>
Created by potrace 1.15, written by Peter Selinger 2001-2017
</metadata>
<g transform="translate(0.000000,119.000000) scale(0.100000,-0.100000)"
fill="#000000" stroke="none">
<path d="M226 1068 c-22 -6 -51 -22 -65 -37 -24 -23 -26 -32 -25 -103 1 -86
12 -104 84 -135 35 -15 150 -16 180 -2 8 4 29 13 47 19 42 16 58 57 57 147 -1
74 -7 85 -52 111 -26 15 -170 15 -226 0z m159 -39 c22 -6 43 -16 47 -23 4 -6
8 -37 8 -69 0 -54 -2 -58 -32 -77 -48 -29 -179 -29 -208 0 -29 29 -28 110 3
136 45 39 112 51 182 33z"/>
<path d="M255 727 c-179 -10 -210 -16 -210 -42 0 -18 6 -20 70 -18 39 1 91 5
116 8 46 7 46 7 52 -36 3 -24 3 -56 0 -71 -5 -26 -9 -28 -52 -29 -97 -1 -149
-45 -151 -125 -1 -92 70 -131 241 -134 59 0 119 -4 135 -9 32 -8 63 -58 64
-103 0 -15 4 -29 9 -32 5 -3 9 -29 9 -56 1 -58 23 -91 51 -73 12 8 15 23 12
64 -1 30 -7 59 -11 64 -4 6 -10 25 -14 43 -3 17 -9 46 -12 62 -14 68 -101 100
-272 100 -95 0 -111 2 -130 20 -12 12 -22 27 -22 34 0 28 23 77 40 86 17 9
170 30 200 27 43 -4 150 17 164 32 26 29 39 98 25 139 -22 67 -15 66 -314 49z
m255 -52 c14 -9 12 -77 -3 -97 -10 -12 -32 -18 -88 -20 -74 -3 -74 -3 -77 56
-2 40 1 62 10 68 14 9 141 4 158 -7z"/>
</g>
</svg>
