<svg version="1.0" xmlns="http://www.w3.org/2000/svg"
 width="77.000000pt" height="173.000000pt" viewBox="0 0 77.000000 173.000000"
 preserveAspectRatio="xMidYMid meet">
<metadata>
Created by potrace 1.15, written by Peter Selinger 2001-2017
</metadata>
<g transform="translate(0.000000,173.000000) scale(0.100000,-0.100000)"
fill="#000000" stroke="none">
<path d="M139 1559 c-17 -10 -28 -83 -29 -182 0 -87 0 -88 28 -97 15 -6 36
-15 46 -21 100 -58 109 -61 153 -55 25 3 50 9 56 13 6 4 24 8 40 10 15 2 36 7
46 12 10 6 23 6 31 1 9 -6 19 -3 29 9 9 10 28 26 44 35 32 21 35 36 7 36 -19
0 -20 7 -20 110 0 106 -1 110 -22 114 -13 2 -49 10 -81 16 -59 12 -309 11
-328 -1z m251 -49 c115 0 118 -2 122 -68 1 -32 2 -73 0 -93 -3 -36 -5 -37 -65
-54 -34 -10 -85 -20 -113 -22 -47 -4 -57 -1 -108 32 -30 21 -58 45 -60 54 -3
9 -4 45 -3 81 3 59 5 65 27 70 14 4 42 5 63 2 26 -3 37 -1 37 9 0 10 3 10 12
1 7 -7 42 -12 88 -12z"/>
<path d="M290 1087 c0 -13 7 -32 15 -43 17 -22 19 -75 6 -122 -5 -18 -12 -56
-16 -85 -3 -28 -10 -77 -15 -107 -4 -30 -13 -98 -19 -150 -6 -52 -14 -115 -17
-140 -3 -25 -7 -96 -8 -158 -2 -106 0 -115 21 -138 21 -23 51 -25 37 -3 -6 11
17 69 28 69 5 0 8 9 8 20 0 12 7 20 16 20 15 0 54 35 54 49 0 3 10 17 23 31
26 29 113 145 126 169 5 9 12 14 15 11 10 -11 8 -227 -3 -268 -14 -51 2 -156
22 -149 7 3 11 10 9 16 -1 7 2 20 7 29 9 18 26 235 24 312 -2 69 -15 180 -20
180 -7 0 -37 -34 -72 -80 -14 -19 -28 -37 -31 -40 -3 -3 -21 -25 -40 -50 -19
-25 -38 -46 -42 -48 -4 -2 -8 -9 -8 -15 0 -7 -28 -41 -62 -77 -62 -65 -62 -65
-69 -5 -6 50 -4 63 11 80 20 22 53 75 74 120 8 17 26 42 40 57 14 15 26 29 26
32 0 9 59 66 68 66 28 0 19 63 -20 150 -37 80 -79 184 -89 217 -17 57 -99 98
-99 50z m100 -239 c0 -8 4 -18 9 -23 17 -19 43 -103 37 -122 -3 -10 -24 -39
-46 -63 -22 -25 -40 -49 -40 -53 0 -11 -30 -40 -35 -35 -3 2 0 21 6 41 5 20
12 69 15 109 5 85 13 158 20 176 3 11 7 10 19 -2 8 -8 15 -21 15 -28z"/>
</g>
</svg>
