<svg version="1.0" xmlns="http://www.w3.org/2000/svg"
 width="63.000000pt" height="137.000000pt" viewBox="0 0 63.000000 137.000000"
 preserveAspectRatio="xMidYMid meet">
<metadata>
Created by potrace 1.15, written by Peter Selinger 2001-2017
</metadata>
<g transform="translate(0.000000,137.000000) scale(0.100000,-0.100000)"
fill="#000000" stroke="none">
<path d="M90 1195 c0 -3 4 -13 9 -23 13 -24 31 -105 31 -139 0 -35 20 -81 39
-88 8 -3 23 2 33 12 13 11 22 14 26 6 4 -5 39 -13 77 -16 39 -4 78 -8 89 -9
10 -2 22 4 26 12 4 8 12 25 18 37 16 31 15 148 -1 161 -32 27 -108 43 -224 48
-68 3 -123 2 -123 -1z m203 -61 c60 -6 70 -9 78 -31 15 -39 11 -93 -6 -93 -8
0 -15 -6 -15 -12 0 -10 -2 -10 -8 -1 -4 6 -39 14 -78 18 -70 7 -70 7 -82 51
-19 72 -17 86 16 80 15 -3 58 -8 95 -12z"/>
<path d="M267 848 c-10 -116 -38 -342 -43 -350 -12 -19 28 -84 71 -115 24 -18
49 -33 55 -33 5 0 10 -4 10 -10 0 -5 12 -21 27 -35 24 -22 25 -25 9 -25 -11 0
-27 6 -35 14 -28 23 -141 79 -148 73 -3 -4 -1 -24 5 -46 7 -21 12 -48 12 -60
0 -11 9 -30 20 -41 21 -21 27 -50 10 -50 -18 0 -11 -56 10 -78 36 -38 42 -28
38 58 -2 44 -1 80 4 80 5 0 26 -9 46 -19 21 -11 54 -22 75 -26 20 -4 41 -13
48 -21 18 -21 29 -7 29 37 0 48 -28 106 -70 145 -16 16 -30 37 -30 47 0 37
-23 106 -41 126 -10 11 -19 27 -19 36 0 24 -24 95 -32 95 -5 0 -7 50 -7 110 1
74 -3 115 -11 125 -21 25 -28 17 -33 -37z m64 -372 c17 -36 18 -65 1 -40 -4 6
-17 16 -30 23 -18 9 -21 17 -16 39 9 38 17 49 22 32 3 -8 13 -33 23 -54z m-41
-356 c0 -5 -2 -10 -4 -10 -3 0 -8 5 -11 10 -3 6 -1 10 4 10 6 0 11 -4 11 -10z"/>
</g>
</svg>
