<svg version="1.0" xmlns="http://www.w3.org/2000/svg"
 width="51.000000pt" height="119.000000pt" viewBox="0 0 51.000000 119.000000"
 preserveAspectRatio="xMidYMid meet">
<metadata>
Created by potrace 1.15, written by Peter Selinger 2001-2017
</metadata>
<g transform="translate(0.000000,119.000000) scale(0.100000,-0.100000)"
fill="#000000" stroke="none">
<path d="M226 999 c4 -19 11 -40 17 -46 9 -12 3 -175 -7 -191 -2 -4 -7 -77
-10 -162 -7 -155 -9 -178 -26 -215 -35 -76 -46 -122 -38 -154 6 -21 5 -45 -1
-64 -14 -40 -15 -38 13 -70 35 -41 69 -34 77 14 3 23 19 49 42 73 20 20 37 41
37 47 0 11 25 39 35 39 4 0 5 -26 4 -57 -3 -57 -1 -59 31 -54 6 0 10 36 10 82
0 44 5 89 11 100 8 17 6 27 -13 55 -26 38 -53 47 -43 14 4 -11 2 -20 -4 -20
-6 0 -11 -7 -11 -16 0 -22 -95 -144 -112 -144 -11 0 -10 37 1 44 7 5 41 111
46 146 2 8 14 46 29 83 14 38 24 73 20 78 -3 5 4 25 15 44 17 30 19 42 11 92
-6 32 -10 77 -10 100 0 23 -4 44 -9 47 -4 3 -11 18 -14 33 -3 16 -29 52 -57
82 -50 54 -50 54 -44 20z m74 -244 c14 -16 7 -45 -11 -45 -6 0 -9 7 -6 15 4 8
2 17 -3 20 -12 8 -13 25 -1 25 5 0 14 -7 21 -15z m-13 -92 c-3 -10 -5 -4 -5
12 0 17 2 24 5 18 2 -7 2 -21 0 -30z"/>
</g>
</svg>
