<svg version="1.0" xmlns="http://www.w3.org/2000/svg"
 width="72.000000pt" height="93.000000pt" viewBox="0 0 72.000000 93.000000"
 preserveAspectRatio="xMidYMid meet">
<metadata>
Created by potrace 1.15, written by Peter Selinger 2001-2017
</metadata>
<g transform="translate(0.000000,93.000000) scale(0.100000,-0.100000)"
fill="#000000" stroke="none">
<path d="M331 731 c-6 -11 -11 -26 -11 -33 0 -7 -33 -32 -74 -55 -70 -41 -169
-133 -195 -181 -10 -19 -9 -23 5 -29 12 -5 32 10 71 55 30 34 61 62 69 62 25
0 15 -54 -18 -100 -28 -37 -33 -53 -33 -98 0 -50 3 -57 36 -86 35 -31 35 -32
23 -71 -34 -110 -3 -165 94 -165 77 0 128 18 162 57 34 39 37 60 14 127 -16
46 -16 49 3 74 11 15 26 44 34 65 12 33 11 44 -4 86 -22 63 -23 111 -1 111 15
0 34 -18 83 -80 15 -19 22 -22 31 -14 20 20 2 51 -76 128 -48 48 -90 80 -118
91 -36 14 -46 23 -48 44 -4 32 -33 40 -47 12z m84 -106 c54 -24 57 -27 50 -53
-4 -15 -9 -46 -12 -70 -4 -37 -10 -45 -42 -62 -20 -11 -43 -25 -51 -31 -11 -8
-30 -4 -73 15 -52 23 -57 28 -47 46 6 11 9 43 8 71 -3 51 -3 51 51 80 30 16
55 29 56 29 1 0 28 -11 60 -25z m59 -221 c12 -31 6 -61 -18 -83 -23 -22 -23
-22 -49 12 -26 34 -26 34 1 60 30 30 57 35 66 11z m-211 -6 c43 -22 47 -39 18
-75 -29 -37 -65 -43 -81 -14 -11 22 -14 84 -3 94 10 11 42 8 66 -5z m121 -107
c42 -57 69 -126 60 -153 -14 -47 -131 -76 -185 -48 -26 14 -25 77 1 133 18 37
75 117 85 117 2 0 19 -22 39 -49z"/>
</g>
</svg>
