<svg version="1.0" xmlns="http://www.w3.org/2000/svg"
 width="66.000000pt" height="92.000000pt" viewBox="0 0 66.000000 92.000000"
 preserveAspectRatio="xMidYMid meet">
<metadata>
Created by potrace 1.15, written by Peter Selinger 2001-2017
</metadata>
<g transform="translate(0.000000,92.000000) scale(0.100000,-0.100000)"
fill="#000000" stroke="none">
<path d="M310 801 c0 -51 -66 -143 -126 -174 -16 -9 -45 -29 -64 -46 -35 -30
-35 -30 -5 -31 33 0 153 65 193 105 24 24 24 24 64 -6 38 -27 122 -59 155 -59
19 0 16 20 -4 27 -52 17 -105 48 -142 82 -35 33 -41 44 -41 79 0 31 -4 42 -15
42 -8 0 -15 -8 -15 -19z"/>
<path d="M225 579 c-13 -19 6 -24 87 -22 87 3 118 9 118 24 0 13 -197 12 -205
-2z"/>
<path d="M170 500 c0 -5 11 -17 25 -26 28 -18 32 -45 11 -64 -12 -9 -21 -7
-43 8 -15 11 -38 23 -50 27 -36 10 -28 -19 12 -46 21 -15 40 -40 50 -66 25
-66 1 -84 -53 -38 -51 43 -72 23 -31 -29 15 -19 30 -26 53 -26 33 0 33 0 39
-79 4 -61 10 -86 28 -110 12 -17 29 -31 36 -31 16 0 16 0 -3 40 -23 45 -32
170 -13 170 26 0 70 45 83 85 8 22 12 42 10 44 -2 3 -19 -12 -38 -32 -44 -48
-63 -48 -68 1 -4 31 0 41 24 64 28 26 33 43 22 73 -11 29 -94 60 -94 35z"/>
<path d="M470 461 c0 -30 -5 -53 -14 -61 -12 -9 -19 -3 -38 36 -23 49 -51 74
-65 61 -4 -5 5 -30 20 -57 15 -26 27 -53 27 -60 0 -6 -15 -30 -34 -51 -24 -29
-40 -62 -54 -117 -11 -42 -23 -85 -27 -94 -4 -11 -3 -18 4 -18 12 0 61 98 61
123 1 7 12 26 26 42 25 30 25 30 17 -25 -11 -79 -10 -163 3 -167 7 -2 13 25
17 78 7 90 19 114 47 99 11 -6 20 -27 25 -56 8 -53 30 -94 51 -94 17 0 18 12
2 28 -7 7 -15 43 -18 80 -5 66 -6 67 -42 85 -46 22 -47 36 -8 65 40 30 58 94
35 128 -24 37 -35 29 -35 -25z"/>
</g>
</svg>
