<svg version="1.0" xmlns="http://www.w3.org/2000/svg"
 width="70.000000pt" height="92.000000pt" viewBox="0 0 70.000000 92.000000"
 preserveAspectRatio="xMidYMid meet">
<metadata>
Created by potrace 1.15, written by Peter Selinger 2001-2017
</metadata>
<g transform="translate(0.000000,92.000000) scale(0.100000,-0.100000)"
fill="#000000" stroke="none">
<path d="M225 689 c-4 -6 -4 -30 -1 -54 7 -44 7 -44 -36 -47 -30 -2 -43 -7
-43 -18 0 -10 13 -16 43 -18 42 -3 42 -3 42 -63 0 -59 0 -59 -38 -59 -43 0
-83 -23 -67 -39 6 -5 30 -11 55 -13 45 -3 45 -3 48 -54 2 -29 -4 -89 -13 -135
-24 -123 -24 -144 0 -144 16 0 22 11 32 60 6 33 14 108 18 168 7 102 8 107 30
107 12 0 43 3 69 6 46 7 46 7 46 -88 0 -117 14 -197 40 -222 11 -11 22 -17 25
-14 4 3 1 75 -5 158 -12 166 -9 180 39 180 37 0 70 25 54 40 -8 9 -24 9 -56 2
-45 -9 -45 -9 -50 52 -2 34 -2 64 0 69 2 4 21 7 43 7 23 0 40 5 43 14 8 20 -2
26 -45 26 -38 0 -38 0 -38 45 0 33 -4 45 -15 45 -18 0 -35 -31 -35 -65 0 -29
-4 -32 -82 -38 -58 -6 -58 -6 -58 49 0 47 -3 54 -19 54 -11 0 -23 -5 -26 -11z
m183 -183 c2 -27 0 -52 -5 -56 -4 -5 -36 -11 -70 -15 -63 -7 -63 -7 -63 53 0
61 0 61 38 65 20 2 51 4 67 3 29 -1 30 -3 33 -50z"/>
</g>
</svg>
