<svg version="1.0" xmlns="http://www.w3.org/2000/svg"
 width="59.000000pt" height="101.000000pt" viewBox="0 0 59.000000 101.000000"
 preserveAspectRatio="xMidYMid meet">
<metadata>
Created by potrace 1.15, written by Peter Selinger 2001-2017
</metadata>
<g transform="translate(0.000000,101.000000) scale(0.100000,-0.100000)"
fill="#000000" stroke="none">
<path d="M421 759 c-6 -18 -11 -65 -11 -105 0 -74 0 -74 -85 -74 -81 0 -85 1
-85 23 -2 70 -12 163 -20 171 -19 19 -30 -7 -25 -62 3 -31 2 -76 -1 -100 -6
-43 -6 -43 -75 -36 -58 5 -69 4 -69 -8 0 -24 21 -35 79 -41 30 -4 58 -10 62
-14 5 -5 5 -34 2 -66 -6 -57 -6 -57 -65 -57 -43 0 -60 -4 -64 -15 -11 -29 16
-45 74 -45 55 0 55 0 47 -38 -14 -68 -5 -202 14 -202 13 0 31 99 31 171 0 69
0 69 85 69 85 0 85 0 85 -87 0 -100 9 -125 34 -100 12 12 16 36 16 96 0 81 0
81 28 81 15 0 33 4 41 9 20 13 5 41 -22 41 -44 0 -56 33 -41 109 5 24 12 31
30 31 20 0 24 5 24 29 0 23 -5 30 -22 33 -22 3 -23 6 -19 81 3 74 -10 137 -29
137 -5 0 -13 -14 -19 -31z m-19 -304 c-1 -33 -6 -62 -10 -65 -4 -3 -40 -4 -80
-2 -73 4 -73 4 -68 65 3 34 5 63 6 65 0 2 35 2 78 0 77 -3 77 -3 74 -63z"/>
</g>
</svg>
