<svg version="1.0" xmlns="http://www.w3.org/2000/svg"
 width="73.000000pt" height="101.000000pt" viewBox="0 0 73.000000 101.000000"
 preserveAspectRatio="xMidYMid meet">
<metadata>
Created by potrace 1.15, written by Peter Selinger 2001-2017
</metadata>
<g transform="translate(0.000000,101.000000) scale(0.100000,-0.100000)"
fill="#000000" stroke="none">
<path d="M284 690 c5 -85 3 -112 -7 -116 -7 -2 -44 7 -82 20 -70 24 -85 25
-85 3 0 -25 124 -107 160 -107 15 0 20 -7 20 -28 0 -28 0 -28 -95 -39 -92 -11
-131 -25 -119 -44 3 -5 16 -9 29 -9 13 0 27 -5 31 -11 4 -7 32 -10 73 -7 66 3
66 3 63 -37 -2 -22 -8 -44 -13 -49 -5 -6 -9 -17 -9 -25 0 -9 -7 -29 -15 -45
-21 -41 -3 -57 21 -20 10 16 21 31 24 34 11 11 50 93 50 105 0 21 29 45 55 45
20 0 27 -9 46 -70 12 -39 26 -73 30 -76 5 -3 9 -13 9 -22 0 -9 9 -32 21 -51
50 -82 38 54 -17 193 -6 17 -3 18 32 12 82 -13 144 -18 144 -12 0 28 -28 47
-96 68 -43 12 -80 30 -85 39 -8 15 0 18 66 24 41 4 75 11 75 15 0 17 -40 41
-76 46 -89 12 -84 7 -84 82 1 37 5 87 10 112 6 34 5 48 -5 59 -12 12 -15 11
-23 -10 -5 -13 -17 -68 -27 -122 -14 -80 -21 -97 -34 -95 -13 3 -17 21 -22 93
-8 116 -25 155 -66 155 -3 0 -2 -50 1 -110z m116 -241 c0 -15 -5 -20 -22 -17
-34 5 -37 38 -4 38 20 0 26 -5 26 -21z"/>
</g>
</svg>
