<svg version="1.0" xmlns="http://www.w3.org/2000/svg"
 width="66.000000pt" height="117.000000pt" viewBox="0 0 66.000000 117.000000"
 preserveAspectRatio="xMidYMid meet">
<metadata>
Created by potrace 1.15, written by Peter Selinger 2001-2017
</metadata>
<g transform="translate(0.000000,117.000000) scale(0.100000,-0.100000)"
fill="#000000" stroke="none">
<path d="M72 1033 c-33 -6 -16 -23 23 -23 64 0 65 -1 65 -122 0 -99 -2 -109
-17 -106 -19 3 -30 38 -32 101 -1 26 -6 37 -16 37 -12 0 -15 -14 -15 -66 0
-61 3 -69 30 -95 16 -16 34 -29 39 -29 7 0 8 -50 2 -81 0 -3 -17 -14 -36 -25
-43 -23 -52 -47 -59 -159 -3 -49 -10 -148 -15 -220 -5 -72 -6 -134 -2 -138 18
-18 32 26 37 114 20 349 25 379 60 379 15 0 18 -17 15 -85 -14 -445 -14 -475
1 -475 25 0 28 22 27 203 0 95 4 183 8 197 5 14 8 55 7 93 -2 59 0 67 16 67
10 0 22 -9 25 -20 4 -11 7 -117 9 -235 1 -118 5 -217 8 -221 21 -21 28 18 28
166 0 136 2 159 15 154 8 -3 28 4 44 15 16 12 32 21 36 21 9 0 -2 -223 -14
-295 -4 -27 -15 -70 -24 -95 -11 -31 -13 -48 -6 -55 38 -38 82 163 88 404 2
57 6 78 19 87 35 26 44 -4 44 -142 -1 -132 13 -214 53 -318 13 -33 23 -46 37
-46 18 0 19 4 13 37 -3 20 -15 55 -24 77 -10 23 -23 54 -30 69 -12 31 -16 267
-3 267 4 0 27 -14 52 -30 50 -33 50 -33 68 -22 22 15 1 42 -52 69 -28 14 -69
39 -91 56 -22 17 -41 31 -42 32 -7 2 -13 117 -8 147 6 35 9 38 40 38 19 0 37
-4 40 -10 3 -5 2 -10 -4 -10 -5 0 -7 -15 -5 -32 2 -18 7 -52 10 -76 6 -44 29
-66 44 -42 4 6 3 28 -3 49 -16 55 -21 250 -7 266 14 17 4 55 -15 55 -18 0 -28
-44 -34 -147 -1 -7 -14 -13 -30 -13 -30 0 -30 0 -26 91 2 50 7 99 10 109 7 22
-23 50 -34 31 -5 -7 -11 -60 -14 -118 -3 -58 -7 -107 -9 -108 -2 -2 -12 -5
-23 -7 -17 -3 -21 4 -25 50 -3 28 -2 52 2 52 5 0 3 9 -4 20 -22 35 -28 22 -29
-57 0 -43 -6 -119 -12 -170 -12 -91 -12 -113 2 -113 9 0 30 86 35 140 3 29 7
36 30 38 26 3 26 3 26 -90 0 -90 -1 -95 -27 -120 -16 -14 -41 -34 -58 -44 -16
-10 -35 -26 -42 -34 -10 -12 -12 -3 -13 48 0 72 -24 118 -63 124 -19 3 -22 9
-22 48 0 42 2 45 29 50 35 6 50 42 59 140 6 72 -3 104 -25 82 -8 -8 -11 -34
-10 -70 4 -85 -5 -112 -34 -112 -25 0 -25 0 -18 113 7 112 6 114 -17 130 -22
16 -58 19 -107 10z"/>
</g>
</svg>
