<svg version="1.0" xmlns="http://www.w3.org/2000/svg"
 width="75.000000pt" height="121.000000pt" viewBox="0 0 75.000000 121.000000"
 preserveAspectRatio="xMidYMid meet">
<metadata>
Created by potrace 1.15, written by Peter Selinger 2001-2017
</metadata>
<g transform="translate(0.000000,121.000000) scale(0.100000,-0.100000)"
fill="#000000" stroke="none">
<path d="M599 1068 c-8 -32 -7 -92 0 -107 6 -11 8 -27 4 -37 -10 -27 -32 43
-25 83 3 24 0 34 -12 39 -9 4 -20 3 -24 0 -9 -9 -11 -316 -3 -316 4 0 15 -14
25 -30 9 -17 37 -40 61 -51 44 -21 95 -23 96 -4 1 10 -8 16 -54 34 -26 10 -28
14 -25 64 3 47 5 52 28 55 37 5 40 12 40 78 0 104 -3 119 -25 119 -19 0 -20
-6 -17 -82 2 -49 -1 -83 -6 -83 -16 0 -18 19 -16 120 1 94 -6 120 -32 120 -8
0 -14 -1 -15 -2z m2 -229 c1 -102 -1 -116 -11 -97 -10 16 -2 164 7 154 2 -2 4
-28 4 -57z"/>
<path d="M117 1053 c-4 -3 -7 -38 -7 -77 0 -68 -2 -73 -38 -112 -24 -26 -42
-60 -50 -90 -14 -56 -15 -251 -1 -260 5 -3 9 -14 9 -25 0 -11 14 -33 31 -49
18 -16 33 -41 35 -57 2 -15 8 -75 14 -133 16 -169 31 -240 50 -240 13 0 18 46
12 119 -4 66 -3 70 22 86 36 24 56 75 56 146 0 52 3 62 30 88 34 32 50 76 50
137 0 34 4 43 25 52 14 7 35 12 46 12 27 0 86 40 99 68 13 30 13 72 -1 72 -8
0 -7 5 1 15 16 20 15 213 -2 232 -24 29 -29 7 -27 -138 1 -101 -2 -154 -10
-162 -14 -14 -12 -28 -15 145 -2 100 -7 152 -16 163 -17 20 -31 9 -24 -20 3
-13 0 -33 -7 -46 -9 -17 -9 -24 0 -27 13 -4 16 -122 2 -122 -20 0 -32 32 -31
82 3 85 1 98 -14 98 -21 0 -26 -23 -26 -111 0 -79 0 -79 38 -96 30 -15 38 -24
40 -51 4 -40 -9 -58 -47 -64 -28 -4 -29 -3 -40 64 -7 44 -22 84 -42 115 -25
40 -30 58 -29 103 2 77 1 90 -8 90 -4 0 -13 -13 -20 -30 -22 -49 -8 -180 20
-180 4 0 8 -9 8 -20 0 -11 4 -20 9 -20 12 0 31 -79 31 -128 0 -21 -5 -54 -12
-73 -12 -34 -12 -34 -19 11 -4 25 -8 75 -8 112 -1 57 -4 69 -21 78 -24 13 -21
41 -24 -260 -1 -118 -6 -229 -10 -247 -7 -28 -32 -51 -43 -40 -3 4 -15 178
-14 202 0 6 3 59 5 119 3 60 8 130 11 156 5 37 2 51 -11 64 -9 10 -20 14 -25
9 -4 -4 -9 -53 -10 -108 -2 -147 -10 -215 -24 -215 -22 0 -35 51 -35 139 0
101 13 148 63 217 37 52 55 134 41 188 -6 25 -23 34 -37 19z"/>
<path d="M373 578 c-13 -6 -23 -14 -23 -18 0 -11 38 -18 80 -15 19 1 86 2 148
3 88 2 112 5 112 16 0 8 -7 17 -16 20 -27 10 -278 5 -301 -6z"/>
<path d="M509 485 c-3 -2 -28 -6 -56 -8 -67 -5 -87 -25 -87 -86 0 -50 25 -96
57 -104 14 -4 17 -17 17 -75 0 -42 -5 -74 -11 -78 -10 -6 -58 -11 -131 -13
-33 -1 -38 -26 -7 -36 11 -4 109 -7 217 -7 197 0 197 0 200 27 3 25 2 26 -50
23 -53 -3 -53 -3 -54 32 0 20 -5 44 -10 53 -13 22 -6 77 10 77 6 0 23 11 39
24 23 20 27 31 27 72 0 27 -7 57 -15 68 -17 23 -131 47 -146 31z m67 -55 c33
0 34 -1 34 -38 0 -55 -12 -62 -107 -62 -83 0 -83 0 -83 49 0 50 0 50 48 54 26
2 53 2 60 0 8 -2 29 -3 48 -3z m-26 -230 c0 -72 -2 -80 -19 -80 -30 0 -41 23
-39 86 1 60 9 74 41 74 15 0 17 -10 17 -80z"/>
</g>
</svg>
