<svg version="1.0" xmlns="http://www.w3.org/2000/svg"
 width="69.000000pt" height="79.000000pt" viewBox="0 0 69.000000 79.000000"
 preserveAspectRatio="xMidYMid meet">
<metadata>
Created by potrace 1.15, written by Peter Selinger 2001-2017
</metadata>
<g transform="translate(0.000000,79.000000) scale(0.100000,-0.100000)"
fill="#000000" stroke="none">
<path d="M264 731 c-62 -15 -72 -38 -24 -59 44 -20 37 -32 -18 -32 -44 0 -48
2 -59 31 -21 54 -38 31 -38 -52 -1 -83 -12 -158 -27 -176 -10 -13 -3 -33 12
-33 16 0 50 81 56 134 6 54 6 54 58 60 28 3 106 6 173 6 122 0 122 0 128 -57
3 -32 7 -65 8 -73 1 -8 13 -17 26 -18 24 -4 24 -3 19 70 -3 40 -2 82 2 94 5
12 6 40 3 63 -8 55 -37 58 -50 4 -8 -37 -10 -38 -63 -44 -30 -3 -57 -4 -59 -2
-3 2 11 17 30 33 33 29 33 30 15 45 -21 16 -134 19 -192 6z m106 -56 c-28 -29
-37 -31 -62 -8 -29 26 -22 33 34 33 51 0 51 0 28 -25z"/>
<path d="M345 573 c-100 -4 -121 -9 -129 -30 -5 -12 4 -26 30 -48 37 -32 37
-32 -3 -48 -23 -9 -48 -26 -57 -39 -21 -29 -20 -87 0 -116 14 -21 14 -26 0
-63 -18 -43 -23 -204 -7 -214 5 -3 17 2 25 11 12 11 16 35 16 88 0 40 3 76 6
79 4 3 19 -7 34 -23 30 -33 60 -39 60 -14 0 9 -16 35 -36 59 -36 45 -38 65 -4
65 10 0 22 4 25 10 11 19 33 10 39 -15 4 -15 18 -30 34 -37 59 -23 94 -44 102
-58 4 -8 11 -38 15 -67 13 -100 62 -88 52 12 -8 81 -31 112 -100 137 -33 12
-61 28 -64 36 -7 17 13 32 43 32 29 0 74 37 74 61 0 10 6 19 14 19 21 0 31 21
15 31 -8 5 -42 9 -76 9 -76 0 -81 14 -26 59 31 25 36 34 27 48 -12 20 -9 20
-109 16z m24 -65 c-12 -18 -24 -35 -26 -37 -2 -3 -17 8 -33 24 -36 34 -27 45
38 45 43 0 43 0 21 -32z m-39 -132 c0 -43 0 -44 -45 -56 -25 -7 -48 -10 -52
-6 -3 3 -7 25 -7 48 -1 41 0 43 34 49 70 13 70 13 70 -35z m120 24 c0 -38 -74
-56 -85 -20 -9 30 2 40 46 40 32 0 39 -3 39 -20z"/>
</g>
</svg>
