<svg version="1.0" xmlns="http://www.w3.org/2000/svg"
 width="97.000000pt" height="181.000000pt" viewBox="0 0 97.000000 181.000000"
 preserveAspectRatio="xMidYMid meet">
<metadata>
Created by potrace 1.15, written by Peter Selinger 2001-2017
</metadata>
<g transform="translate(0.000000,181.000000) scale(0.100000,-0.100000)"
fill="#000000" stroke="none">
<path d="M517 1563 c2 -179 12 -235 38 -213 11 9 15 33 15 85 0 71 1 73 27 78
41 8 51 -1 60 -51 14 -73 3 -402 -13 -402 -20 0 -62 35 -78 64 -18 34 -63 73
-72 63 -3 -2 14 -41 37 -85 41 -81 41 -81 10 -120 -52 -67 -67 -133 -39 -186
18 -35 71 -86 90 -86 33 0 20 -39 -29 -88 -57 -58 -83 -91 -83 -109 0 -24 23
-13 96 46 72 60 72 60 76 -12 4 -75 -6 -137 -22 -137 -13 0 -31 -75 -23 -96 4
-11 15 -25 25 -32 22 -16 26 -120 5 -127 -6 -3 -42 -6 -78 -8 -73 -4 -89 -10
-89 -36 0 -25 26 -30 123 -26 80 4 143 -8 159 -30 5 -6 8 -6 8 2 0 8 21 11 63
11 68 0 107 16 107 44 0 17 -7 20 -70 34 -37 9 -46 10 -122 12 -48 2 -48 2
-48 53 0 38 5 56 18 68 27 23 42 55 42 91 0 23 -6 33 -24 40 -22 8 -25 15 -28
85 -5 115 -2 117 71 45 57 -56 101 -68 101 -27 -1 25 -22 57 -38 57 -15 0
-122 105 -122 119 0 6 9 11 20 11 23 0 69 42 89 83 8 15 18 27 23 27 10 0 11
137 1 142 -9 3 -53 64 -53 73 0 3 8 14 18 24 58 65 67 87 47 118 -16 23 -17
24 -30 6 -8 -10 -15 -24 -15 -30 0 -7 -4 -13 -9 -13 -5 0 -13 -9 -16 -20 -4
-12 -16 -30 -28 -40 -45 -42 -46 -35 -47 216 0 175 -3 239 -12 248 -7 6 -39
18 -70 26 -58 13 -58 13 -58 59 0 36 -6 54 -27 80 -28 33 -28 33 -26 -136z
m133 -618 c0 -55 0 -55 -50 -55 -56 0 -63 11 -34 56 15 23 58 53 77 54 4 0 7
-25 7 -55z m104 34 c26 -20 56 -68 56 -89 0 -5 -22 -10 -50 -10 -50 0 -50 0
-50 60 0 33 4 60 9 60 4 0 20 -9 35 -21z m-106 -186 c3 -47 -6 -53 -51 -32
-27 12 -51 54 -41 70 3 6 25 9 47 7 42 -3 42 -3 45 -45z m132 29 c0 -9 -36
-44 -57 -56 -9 -5 -13 3 -13 28 0 34 2 36 35 36 19 0 35 -4 35 -8z"/>
<path d="M290 1633 c0 -9 -64 -87 -97 -119 -13 -12 -23 -26 -23 -31 0 -6 -17
-26 -38 -44 -39 -34 -58 -74 -41 -85 5 -3 31 17 57 45 49 52 73 61 104 37 30
-22 33 -55 33 -301 0 -240 0 -240 -90 -246 -123 -9 -153 -23 -100 -47 14 -7
61 -12 103 -12 77 0 77 0 74 -307 -1 -170 -5 -327 -8 -350 -5 -42 -6 -43 -43
-43 -47 0 -151 -20 -151 -30 0 -21 56 -28 191 -23 160 6 199 14 179 38 -8 10
-31 15 -64 15 -51 0 -51 0 -49 263 2 490 -5 432 58 446 30 7 55 16 55 20 0 16
-25 29 -60 33 -35 3 -35 3 -37 93 -1 50 -5 164 -9 253 -6 161 -5 164 17 188
27 29 50 30 74 4 18 -20 62 -29 51 -11 -4 5 -1 11 6 13 8 3 5 12 -10 28 -12
13 -22 28 -22 32 0 5 -13 23 -30 41 -16 18 -30 35 -30 39 0 9 -79 68 -92 68
-4 0 -8 -3 -8 -7z m67 -126 c-5 -16 -55 -30 -82 -23 -34 9 -31 30 8 60 32 26
32 26 55 0 13 -14 21 -31 19 -37z"/>
<path d="M366 1268 c3 -18 9 -49 14 -68 5 -19 12 -56 15 -82 7 -55 38 -99 52
-73 16 27 -17 193 -46 232 -24 34 -41 29 -35 -9z"/>
<path d="M161 1243 c-8 -27 -22 -66 -32 -87 -22 -46 -24 -72 -7 -82 14 -9 36
21 65 93 25 61 31 93 20 111 -16 24 -33 11 -46 -35z"/>
<path d="M350 536 c0 -13 19 -61 61 -153 10 -24 19 -47 19 -51 0 -10 33 -42
43 -42 15 0 6 59 -17 106 -13 27 -29 65 -36 84 -18 49 -70 90 -70 56z"/>
<path d="M144 498 c-19 -54 -39 -103 -44 -108 -14 -14 -50 -98 -50 -117 0 -35
33 -29 49 10 43 98 72 164 81 179 14 24 13 37 -4 54 -19 19 -19 19 -32 -18z"/>
</g>
</svg>
