<svg version="1.0" xmlns="http://www.w3.org/2000/svg"
 width="157.000000pt" height="269.000000pt" viewBox="0 0 157.000000 269.000000"
 preserveAspectRatio="xMidYMid meet">
<metadata>
Created by potrace 1.15, written by Peter Selinger 2001-2017
</metadata>
<g transform="translate(0.000000,269.000000) scale(0.100000,-0.100000)"
fill="#000000" stroke="none">
<path d="M143 2529 c-14 -14 6 -39 30 -39 9 0 17 -5 19 -11 3 -10 142 -20 273
-20 80 -1 205 31 205 51 0 17 -13 18 -270 24 -180 5 -249 3 -257 -5z"/>
<path d="M90 2373 c-14 -3 -29 -8 -33 -13 -15 -13 46 -47 98 -53 54 -7 52 -5
160 -142 33 -42 55 -79 55 -95 0 -14 3 -36 7 -49 6 -22 4 -23 -28 -16 -63 12
-94 29 -142 77 -53 54 -77 61 -77 23 0 -81 119 -166 238 -170 19 0 32 -25 32
-61 0 -37 -15 -44 -102 -44 -31 0 -60 -4 -63 -10 -3 -5 -13 -10 -22 -10 -18 0
-78 -62 -100 -104 -12 -23 -14 -47 -8 -113 4 -45 11 -83 16 -83 5 0 9 -7 9
-15 0 -8 5 -15 10 -15 6 0 10 -5 10 -11 0 -23 72 -73 120 -84 45 -10 165 -10
210 0 56 12 190 112 190 142 0 7 4 21 9 31 16 32 32 91 37 139 3 26 9 70 14
97 12 73 7 79 -59 72 -197 -20 -201 -20 -201 5 0 13 -3 34 -6 46 -5 17 0 22
25 28 17 3 33 11 36 16 4 5 14 9 23 9 16 1 82 53 82 65 0 3 14 19 30 37 34 35
38 53 14 62 -30 11 -42 6 -90 -40 -42 -39 -110 -84 -129 -84 -3 0 -5 19 -5 43
0 28 11 66 30 105 17 34 30 66 30 70 0 4 11 20 24 35 14 16 26 33 28 37 2 5
23 11 48 14 77 9 101 17 98 34 -2 9 -14 18 -28 22 -27 7 -550 9 -590 3z m337
-104 c-7 -55 -18 -64 -54 -46 -34 18 -48 33 -57 65 -7 21 -5 22 55 22 62 0 62
0 56 -41z m208 -576 c-8 -106 -15 -126 -54 -161 -26 -22 -26 -22 -34 10 -11
42 -26 122 -34 171 -3 20 -9 40 -14 43 -16 10 -10 23 14 27 12 2 46 5 76 6 53
1 53 1 46 -96z m-210 67 c6 -10 11 -36 26 -135 4 -33 13 -80 18 -105 6 -27 6
-49 0 -54 -9 -10 -111 -26 -118 -20 -7 6 -11 287 -5 307 6 19 68 25 79 7z
m-165 -52 c1 -13 3 -71 6 -130 6 -126 -3 -136 -56 -65 -30 40 -31 45 -27 115
3 56 8 76 23 87 29 22 54 19 54 -7z"/>
<path d="M1154 2237 c-6 -7 -31 -31 -56 -54 -25 -22 -52 -50 -59 -61 -8 -10
-38 -46 -66 -78 -29 -33 -59 -67 -68 -76 -8 -10 -15 -22 -15 -27 0 -5 -3 -11
-8 -13 -14 -6 -72 -82 -72 -95 0 -14 67 -6 88 10 19 15 190 11 208 -4 13 -11
14 -41 8 -198 -3 -102 -10 -196 -15 -209 -5 -13 -9 -40 -9 -61 0 -38 0 -38
-52 -49 -29 -6 -62 -10 -73 -10 -66 4 -95 -2 -95 -21 0 -10 8 -22 18 -26 25
-10 143 -35 168 -35 20 0 20 -4 16 -197 -2 -109 -5 -204 -7 -210 -3 -10 -37
-13 -125 -13 -66 0 -120 -4 -120 -8 0 -35 83 -60 270 -81 58 -7 128 -17 155
-22 70 -15 149 -8 153 12 2 11 -9 21 -30 29 -18 6 -42 16 -53 20 -11 4 -47 13
-80 20 -102 21 -105 24 -105 95 0 34 4 75 9 91 6 16 12 79 15 139 3 61 5 111
6 112 0 1 50 5 110 8 61 4 113 12 116 16 3 5 3 17 0 27 -7 21 -93 42 -170 42
-48 0 -48 0 -41 108 11 162 31 299 51 347 15 38 31 45 98 45 59 0 66 -2 84
-27 10 -16 22 -36 25 -47 5 -11 13 -16 23 -12 9 3 20 6 25 6 13 0 11 67 -3 92
-7 12 -20 30 -30 41 -9 10 -31 46 -48 79 -18 34 -39 68 -46 77 -42 52 -84 113
-84 121 0 6 -4 10 -10 10 -5 0 -10 13 -10 28 0 51 -67 92 -96 59z m125 -247
c8 -7 51 -86 51 -95 0 -9 -122 0 -185 14 -27 6 -68 14 -90 17 -66 9 -68 11
-50 36 8 13 50 60 91 105 77 82 77 82 127 5 27 -42 52 -79 56 -82z m-89 -1230
c0 -5 -2 -10 -4 -10 -3 0 -8 5 -11 10 -3 6 -1 10 4 10 6 0 11 -4 11 -10z"/>
<path d="M1285 1500 c-14 -23 15 -65 58 -84 23 -11 51 -21 61 -23 11 -2 24 -7
30 -12 6 -5 29 -11 51 -13 31 -2 40 1 43 14 6 33 -17 54 -95 85 -96 40 -138
49 -148 33z"/>
<path d="M250 1282 c0 -11 30 -48 66 -83 36 -35 72 -76 80 -91 15 -29 19 -98
6 -98 -4 0 -28 13 -53 28 -45 29 -101 52 -125 52 -25 0 -15 -36 19 -66 32 -29
102 -67 145 -79 32 -9 27 -22 -15 -41 -77 -36 -163 -129 -163 -176 0 -10 -5
-18 -11 -18 -7 0 -9 -14 -5 -37 3 -21 8 -58 11 -83 4 -34 16 -56 48 -91 48
-52 98 -89 121 -89 24 0 20 -10 -26 -55 -68 -65 -148 -155 -148 -166 0 -11 6
-11 53 2 25 7 60 33 105 76 67 67 67 67 72 -43 3 -64 1 -112 -5 -116 -5 -4
-30 -10 -55 -13 -25 -4 -54 -13 -65 -21 -19 -15 -19 -16 -2 -29 50 -37 347
-25 347 14 0 27 -29 42 -83 44 -67 2 -65 0 -68 117 -2 131 -4 129 69 78 54
-38 150 -88 169 -88 23 0 14 31 -19 62 -17 16 -56 46 -87 66 -88 58 -100 75
-58 87 71 21 111 52 141 112 29 57 18 235 -17 278 -5 6 -16 24 -26 40 -10 17
-29 35 -42 41 -52 24 -75 33 -94 37 -15 2 -3 12 43 35 35 18 66 40 69 50 3 9
15 27 25 39 20 21 20 21 0 32 -24 13 -50 5 -73 -21 -9 -10 -33 -25 -53 -33
-34 -15 -36 -14 -36 4 0 42 -41 130 -71 153 -17 13 -37 29 -44 36 -14 12 -129
72 -139 72 -3 0 -6 -8 -6 -18z m335 -463 c29 -14 65 -71 65 -103 0 -27 0 -27
-77 -24 -78 3 -78 3 -81 75 -3 72 -3 72 35 67 21 -3 47 -10 58 -15z m-168 -62
c2 -67 2 -67 -63 -67 -50 0 -64 3 -64 15 0 42 84 131 115 121 6 -1 11 -33 12
-69z m238 -163 c-9 -53 -23 -70 -74 -93 -82 -36 -83 -36 -87 46 -4 80 -10 76
125 81 43 2 43 2 36 -34z m-231 4 c5 -22 9 -128 4 -128 -2 0 -25 8 -52 18 -60
21 -86 54 -79 100 5 32 6 32 63 32 51 0 58 -2 64 -22z"/>
<path d="M1277 1016 c-6 -15 54 -86 73 -86 7 0 20 -8 29 -18 24 -26 133 -79
154 -75 9 3 17 12 17 21 -1 18 -43 72 -57 72 -4 0 -24 14 -43 31 -65 58 -161
88 -173 55z"/>
<path d="M730 70 c0 -5 5 -10 10 -10 6 0 10 5 10 10 0 6 -4 10 -10 10 -5 0
-10 -4 -10 -10z"/>
</g>
</svg>
