<svg version="1.0" xmlns="http://www.w3.org/2000/svg"
 width="68.000000pt" height="83.000000pt" viewBox="0 0 68.000000 83.000000"
 preserveAspectRatio="xMidYMid meet">
<metadata>
Created by potrace 1.15, written by Peter Selinger 2001-2017
</metadata>
<g transform="translate(0.000000,83.000000) scale(0.100000,-0.100000)"
fill="#000000" stroke="none">
<path d="M427 653 c-32 -3 -47 -8 -44 -16 2 -8 30 -12 83 -12 64 0 79 3 79 15
0 16 -33 20 -118 13z"/>
<path d="M151 621 c-16 -12 -22 -24 -18 -35 9 -22 33 -20 51 5 15 22 15 22 40
-7 14 -16 26 -32 26 -36 0 -5 5 -8 11 -8 14 0 4 43 -18 76 -19 29 -58 31 -92
5z"/>
<path d="M425 581 c-62 -5 -80 -9 -80 -21 0 -9 11 -16 28 -18 22 -3 27 -7 22
-23 -5 -14 0 -22 19 -31 33 -15 34 -44 1 -52 -33 -8 -39 -5 -39 23 -1 37 -22
36 -30 -1 -8 -41 11 -58 66 -58 21 0 38 -4 38 -8 0 -15 -24 -32 -45 -32 -12 0
-31 -11 -44 -24 -25 -27 -27 -86 -3 -125 12 -20 20 -23 54 -18 32 4 38 3 34
-10 -3 -8 -6 -19 -6 -24 0 -5 -13 -9 -29 -9 -36 0 -86 -18 -77 -27 4 -4 28
-10 54 -13 32 -3 48 -10 50 -21 2 -13 -9 -18 -54 -25 -32 -5 -59 -14 -61 -20
-3 -8 37 -11 142 -9 81 2 149 5 152 9 3 3 3 12 0 20 -5 12 -16 14 -49 10 -30
-4 -49 -1 -63 9 -25 19 -17 27 31 31 22 2 42 4 47 5 4 1 7 8 7 16 0 11 -11 15
-39 15 -22 0 -46 3 -55 6 -24 9 -19 34 7 34 29 0 87 36 87 54 0 8 -8 20 -17
25 -17 10 -17 10 -1 11 25 0 31 18 18 51 -12 27 -23 33 -75 41 -33 5 -23 32
15 39 34 7 70 40 70 64 0 7 -6 18 -14 24 -12 10 -18 7 -30 -17 -24 -47 -66
-54 -66 -11 0 10 7 19 14 19 8 0 21 12 28 27 9 19 23 30 43 33 18 3 30 11 30
20 0 17 -51 20 -180 11z m62 -48 c5 -13 -32 -27 -47 -18 -15 10 -12 23 8 28
23 6 35 3 39 -10z m-37 -218 c0 -18 -37 -38 -57 -31 -22 9 -11 39 17 46 30 8
40 4 40 -15z m88 8 c-2 -10 -13 -19 -26 -21 -17 -3 -22 2 -22 17 0 16 6 21 26
21 19 0 25 -5 22 -17z m-6 -75 c-12 -12 -54 -7 -59 8 -2 6 10 8 33 6 23 -3 32
-8 26 -14z m-82 -7 c0 -26 -19 -31 -53 -14 -35 17 -26 33 19 33 27 0 34 -4 34
-19z"/>
<path d="M97 546 c-17 -25 -27 -70 -31 -131 -1 -11 6 -21 17 -23 13 -3 17 4
18 30 3 78 -3 73 69 70 36 -2 68 -7 72 -11 4 -3 11 -24 16 -46 15 -76 52 -38
38 39 -7 39 -49 60 -100 51 -46 -9 -74 1 -78 28 -3 20 -4 20 -21 -7z"/>
<path d="M210 446 c0 -9 5 -16 10 -16 6 0 10 4 10 9 0 6 -4 13 -10 16 -5 3
-10 -1 -10 -9z"/>
<path d="M165 439 c-4 -5 -4 -21 -1 -35 9 -36 -9 -62 -47 -66 -42 -4 -44 -32
-2 -36 40 -5 57 -20 49 -44 -5 -15 -2 -19 13 -16 11 2 19 13 21 30 3 23 8 27
40 30 50 4 51 32 2 36 -47 4 -53 12 -52 66 1 44 -9 59 -23 35z"/>
<path d="M252 185 c-1 -68 10 -83 30 -40 8 18 8 28 -1 39 -8 10 -9 16 -1 21
18 11 12 45 -9 45 -16 0 -18 -9 -19 -65z"/>
<path d="M70 197 c0 -35 23 -77 35 -65 7 6 9 45 6 86 -1 6 -10 12 -21 12 -16
0 -20 -7 -20 -33z"/>
<path d="M167 223 c-4 -3 -7 -39 -7 -79 0 -77 -5 -84 -57 -84 -18 0 -24 -5
-21 -18 3 -14 15 -17 80 -17 81 0 119 15 88 36 -8 5 -23 7 -32 5 -23 -5 -44
19 -24 27 10 4 13 17 10 44 -10 85 -18 105 -37 86z"/>
</g>
</svg>
