<svg version="1.0" xmlns="http://www.w3.org/2000/svg"
 width="47.000000pt" height="81.000000pt" viewBox="0 0 47.000000 81.000000"
 preserveAspectRatio="xMidYMid meet">
<metadata>
Created by potrace 1.15, written by Peter Selinger 2001-2017
</metadata>
<g transform="translate(0.000000,81.000000) scale(0.100000,-0.100000)"
fill="#000000" stroke="none">
<path d="M202 690 c-6 -11 -12 -28 -12 -37 0 -10 -25 -43 -56 -73 -57 -57 -80
-88 -70 -97 5 -6 61 33 101 70 20 18 20 18 23 -49 3 -59 -1 -76 -29 -133 -55
-114 -54 -112 -42 -119 5 -4 13 -45 17 -91 3 -46 12 -95 19 -109 24 -48 32
-19 28 101 -3 98 0 126 14 158 10 21 21 39 25 39 14 0 28 -54 44 -165 21 -150
27 -175 39 -175 6 0 7 29 3 83 -3 45 -9 120 -12 167 -3 46 -8 87 -12 90 -5 3
-17 19 -28 35 -17 25 -20 44 -18 110 2 44 3 81 3 83 2 7 123 -63 128 -74 7
-20 33 -26 33 -7 0 24 -82 99 -122 112 -32 11 -37 16 -43 56 -7 50 -14 55 -33
25z"/>
<path d="M270 500 c0 -12 9 -30 20 -42 11 -12 20 -28 20 -35 0 -7 4 -13 9 -13
5 0 14 -13 21 -30 26 -62 42 -17 18 51 -11 33 -61 89 -79 89 -5 0 -9 -9 -9
-20z"/>
<path d="M132 470 c-20 -21 -62 -97 -62 -111 0 -5 6 -9 13 -9 12 1 87 112 87
130 0 16 -18 11 -38 -10z"/>
</g>
</svg>
