<svg version="1.0" xmlns="http://www.w3.org/2000/svg"
 width="77.000000pt" height="105.000000pt" viewBox="0 0 77.000000 105.000000"
 preserveAspectRatio="xMidYMid meet">
<metadata>
Created by potrace 1.15, written by Peter Selinger 2001-2017
</metadata>
<g transform="translate(0.000000,105.000000) scale(0.100000,-0.100000)"
fill="#000000" stroke="none">
<path d="M250 961 c-5 -11 -10 -44 -10 -75 0 -59 -13 -106 -30 -106 -5 0 -10
9 -10 20 0 11 -4 20 -10 20 -5 0 -10 6 -10 13 0 14 -55 48 -64 39 -10 -9 -7
-30 7 -44 49 -49 48 -96 -3 -137 -43 -35 -54 -71 -20 -71 11 0 20 4 20 9 0 5
9 11 20 14 19 5 21 1 19 -39 -2 -24 -6 -44 -11 -44 -4 0 -8 -9 -8 -20 0 -22
-28 -27 -61 -10 -36 20 -43 -1 -10 -30 38 -33 39 -48 5 -101 -23 -37 -26 -69
-7 -69 13 0 63 50 63 63 0 7 4 6 10 -3 12 -18 3 -216 -11 -242 -12 -22 -12
-108 0 -108 38 0 89 283 61 336 -8 13 -11 27 -8 30 4 3 2 20 -3 37 -6 23 -5
45 5 77 8 25 20 78 26 118 10 58 17 76 35 88 18 12 28 13 44 4 12 -6 21 -14
22 -18 0 -4 2 -49 5 -101 2 -52 6 -96 8 -98 2 -3 -7 -29 -20 -60 -23 -50 -24
-67 -25 -222 -1 -172 8 -221 40 -221 33 0 46 17 34 42 -33 70 -46 301 -19 353
14 27 14 27 31 -4 35 -69 75 -93 75 -46 0 14 -4 25 -10 25 -5 0 -10 9 -10 20
0 11 -3 20 -8 20 -4 0 -12 15 -18 34 -10 32 -8 35 23 60 39 31 41 41 11 57
-16 9 -23 9 -26 0 -2 -6 -12 -11 -23 -11 -16 0 -19 7 -19 56 0 53 1 55 23 49
12 -4 26 -11 31 -16 6 -5 20 -9 33 -9 37 0 27 27 -22 62 -25 18 -45 36 -45 41
0 5 14 37 31 70 28 55 29 61 14 76 -15 15 -18 14 -40 -13 -13 -16 -26 -41 -29
-55 -9 -44 -23 -58 -43 -45 -15 10 -18 24 -15 94 2 78 -6 110 -29 110 -5 0
-13 -9 -19 -19z"/>
<path d="M623 867 c-23 -17 -42 -37 -43 -43 0 -6 -9 -19 -20 -29 -10 -9 -24
-33 -30 -51 -10 -30 -9 -38 11 -66 13 -18 27 -35 31 -39 7 -5 -21 -111 -44
-169 -10 -24 -17 -42 -41 -100 -5 -14 -18 -41 -28 -61 -11 -20 -19 -42 -19
-49 0 -6 -9 -25 -21 -41 -23 -32 -22 -72 2 -77 8 -1 21 9 30 25 8 15 16 30 19
33 12 12 50 93 50 106 0 8 5 14 10 14 6 0 10 9 10 19 0 11 9 40 20 66 11 26
21 61 23 79 1 17 8 37 14 44 7 7 16 25 19 40 12 58 14 59 49 19 18 -21 35 -49
38 -63 5 -26 -16 -141 -33 -179 -5 -11 -14 -38 -20 -60 -6 -22 -15 -49 -20
-60 -49 -121 -80 -203 -80 -214 0 -8 7 -10 23 -5 12 3 22 7 22 8 0 0 10 22 23
49 12 26 22 54 22 62 0 8 5 15 11 15 8 0 9 11 5 33 -4 22 -3 27 3 17 8 -11 12
-9 21 15 14 38 50 168 62 225 18 91 20 108 9 114 -6 4 -11 15 -11 24 0 24 -39
66 -80 87 -65 34 -88 55 -82 78 7 31 30 55 79 83 44 26 56 44 47 69 -9 23 -35
18 -81 -18z"/>
</g>
</svg>
