<svg version="1.0" xmlns="http://www.w3.org/2000/svg"
 width="63.000000pt" height="83.000000pt" viewBox="0 0 63.000000 83.000000"
 preserveAspectRatio="xMidYMid meet">
<metadata>
Created by potrace 1.15, written by Peter Selinger 2001-2017
</metadata>
<g transform="translate(0.000000,83.000000) scale(0.100000,-0.100000)"
fill="#000000" stroke="none">
<path d="M150 549 c0 -57 -1 -60 -22 -57 -19 2 -24 11 -28 48 -4 37 -9 45 -25
45 -18 0 -20 -6 -18 -59 1 -33 6 -63 11 -68 5 -5 28 -12 51 -15 22 -3 41 -10
41 -14 0 -14 28 -10 37 5 4 8 24 18 43 23 37 10 47 29 49 94 1 25 -4 39 -15
43 -24 9 -24 9 -24 -30 0 -42 -15 -74 -35 -74 -11 0 -15 13 -15 48 0 48 -12
72 -37 72 -9 0 -13 -18 -13 -61z"/>
<path d="M420 568 c0 -56 -13 -77 -37 -62 -10 6 -19 22 -21 35 -6 45 -11 53
-27 39 -18 -15 -19 -45 -4 -88 8 -25 18 -33 45 -38 19 -3 34 -12 34 -19 0 -10
-13 -12 -54 -8 -55 6 -116 -11 -206 -57 -72 -37 -80 -56 -80 -197 0 -102 3
-125 15 -130 9 -3 19 -2 23 2 4 4 7 61 7 127 0 120 0 120 30 143 17 13 61 35
99 50 62 25 73 26 122 17 29 -6 75 -21 101 -34 48 -23 48 -23 53 -163 5 -131
6 -140 25 -140 27 0 36 53 25 135 -5 36 -10 88 -10 116 0 58 -23 91 -71 101
-38 7 -42 15 -23 41 10 15 26 22 49 22 41 0 58 24 53 78 -4 50 -34 57 -46 10
-6 -23 -14 -33 -28 -33 -15 0 -20 9 -24 45 -4 37 -9 46 -27 48 -21 3 -23 -1
-23 -40z"/>
<path d="M288 323 c-3 -38 -3 -38 -60 -47 -65 -10 -82 -36 -24 -36 18 0 48 -3
65 -6 31 -6 31 -6 31 -100 0 -74 3 -94 14 -94 21 0 26 23 26 111 0 86 -2 84
75 91 19 2 31 9 33 21 3 14 -5 17 -52 17 -53 0 -56 1 -56 24 0 37 -10 56 -30
56 -14 0 -20 -9 -22 -37z"/>
<path d="M212 178 c-6 -18 -13 -45 -16 -60 -3 -14 -9 -33 -12 -42 -8 -20 28
-22 44 -4 8 10 32 112 32 135 0 2 -9 3 -19 3 -13 0 -23 -11 -29 -32z"/>
<path d="M382 198 c-22 -22 -13 -43 39 -87 40 -35 53 -41 60 -30 16 26 9 43
-33 86 -46 47 -49 48 -66 31z"/>
</g>
</svg>
