<svg version="1.0" xmlns="http://www.w3.org/2000/svg"
 width="69.000000pt" height="129.000000pt" viewBox="0 0 69.000000 129.000000"
 preserveAspectRatio="xMidYMid meet">
<metadata>
Created by potrace 1.15, written by Peter Selinger 2001-2017
</metadata>
<g transform="translate(0.000000,129.000000) scale(0.100000,-0.100000)"
fill="#000000" stroke="none">
<path d="M98 1115 c-3 -3 -3 -37 0 -75 4 -60 1 -76 -19 -115 -13 -25 -27 -45
-31 -45 -12 0 -48 -135 -48 -183 0 -77 21 -144 56 -182 32 -36 32 -36 27 -244
-4 -162 -3 -210 7 -216 23 -14 37 23 45 111 6 77 10 89 35 113 20 18 30 39 35
71 3 25 8 65 12 90 4 36 11 49 36 65 41 26 57 59 57 118 0 45 1 48 22 41 13
-4 41 -7 63 -8 36 -1 40 -4 43 -28 3 -25 -1 -28 -43 -39 -67 -17 -77 -41 -90
-236 -5 -75 -3 -97 9 -115 15 -21 15 -21 27 8 6 16 14 81 19 144 4 63 11 122
14 131 12 29 224 37 241 10 2 -4 5 -74 6 -156 1 -114 5 -153 16 -164 13 -12
16 -12 30 1 12 13 15 43 14 168 -1 98 -6 159 -14 172 -16 26 -70 48 -117 48
-39 0 -55 16 -44 45 5 12 25 15 90 15 77 0 84 2 84 20 0 20 -24 31 -65 31
-115 -2 -291 -16 -297 -24 -3 -5 -6 1 -5 14 0 13 -3 57 -7 98 -7 68 -28 119
-60 142 -13 10 -9 80 8 120 16 37 8 66 -16 56 -18 -6 -51 -141 -42 -170 3 -12
17 -44 29 -72 20 -42 24 -68 26 -170 3 -120 -4 -165 -22 -165 -6 0 -9 56 -7
150 2 110 -1 153 -10 162 -24 24 -32 -14 -32 -167 -1 -261 -12 -365 -36 -365
-8 0 -1 322 9 400 10 73 2 130 -17 130 -20 0 -32 -56 -35 -160 -2 -109 -7
-131 -25 -124 -18 7 -35 63 -34 114 1 78 36 180 61 180 7 0 22 22 35 49 25 55
23 106 -5 174 -15 36 -24 43 -35 32z"/>
<path d="M470 1053 c-127 -88 -153 -141 -109 -220 29 -53 48 -72 91 -94 55
-28 91 -23 136 19 7 6 17 12 21 12 15 0 51 38 51 54 0 26 -44 19 -97 -14 -49
-31 -91 -38 -111 -18 -9 9 -8 16 5 30 9 10 20 18 24 18 9 0 77 50 133 97 23
19 27 28 20 41 -16 25 -27 24 -60 -5 -115 -105 -149 -133 -159 -133 -7 0 -17
12 -24 26 -10 22 -8 32 11 65 12 21 30 41 40 45 10 3 18 10 18 15 0 5 8 9 18
9 26 1 54 26 50 47 -4 24 -28 27 -58 6z"/>
<path d="M452 467 c-18 -18 -36 -44 -39 -58 -10 -35 -15 -389 -6 -389 24 1 32
23 37 105 16 276 23 315 57 315 16 0 19 -8 20 -57 0 -32 2 -92 4 -133 1 -41 4
-105 5 -142 3 -75 11 -94 34 -85 14 6 16 32 15 218 -1 227 -1 229 -54 249 -37
14 -37 14 -73 -23z"/>
</g>
</svg>
