<svg version="1.0" xmlns="http://www.w3.org/2000/svg"
 width="77.000000pt" height="115.000000pt" viewBox="0 0 77.000000 115.000000"
 preserveAspectRatio="xMidYMid meet">
<metadata>
Created by potrace 1.15, written by Peter Selinger 2001-2017
</metadata>
<g transform="translate(0.000000,115.000000) scale(0.100000,-0.100000)"
fill="#000000" stroke="none">
<path d="M218 1070 c0 -22 -2 -62 -3 -90 -1 -57 -9 -69 -33 -54 -11 7 -18 27
-20 54 -4 51 -24 77 -42 55 -8 -10 -10 -31 -6 -62 10 -69 16 -83 32 -83 8 0
14 -4 14 -10 0 -5 9 -10 20 -10 21 0 40 -27 40 -59 0 -12 7 -21 15 -21 17 0
35 38 28 57 -3 7 11 22 30 33 49 29 67 61 67 120 0 43 -3 50 -20 50 -14 0 -20
-7 -20 -22 0 -49 -20 -98 -40 -98 -18 0 -20 7 -20 78 0 72 -9 102 -32 102 -4
0 -9 -18 -10 -40z"/>
<path d="M530 1085 c-6 -15 -8 -53 -6 -85 3 -38 1 -64 -8 -75 -12 -17 -14 -17
-33 2 -12 12 -22 40 -26 73 -7 60 -22 84 -38 60 -13 -21 0 -131 18 -152 8 -9
34 -22 59 -29 38 -12 44 -17 44 -41 0 -21 5 -28 20 -28 16 0 20 7 20 30 0 26
5 31 29 36 16 4 40 17 52 30 19 20 22 34 21 90 -1 73 -4 79 -27 71 -10 -4 -15
-20 -15 -46 0 -52 -18 -91 -42 -91 -15 0 -19 6 -17 28 4 44 -12 131 -27 143
-11 9 -16 5 -24 -16z"/>
<path d="M536 755 c-6 -25 -7 -25 -121 -25 -92 0 -115 3 -115 14 0 13 -20 26
-40 26 -5 0 -11 -9 -15 -19 -6 -21 -62 -35 -125 -33 -19 1 -42 -3 -50 -8 -29
-19 11 -31 95 -28 80 3 80 3 90 -96 7 -71 14 -101 25 -106 8 -4 26 -13 39 -20
14 -7 58 -12 108 -11 69 0 87 4 105 21 12 11 25 20 29 20 17 0 30 64 27 128
-3 71 -3 71 26 76 16 3 53 6 82 6 41 0 54 4 54 15 0 12 -14 15 -69 15 -60 0
-72 3 -92 25 -30 31 -45 31 -53 0z m-47 -83 c-6 -10 -25 -24 -42 -32 -27 -12
-35 -11 -66 6 -61 33 -52 44 38 44 76 0 80 -1 70 -18z m-143 -38 c19 -15 34
-34 34 -43 0 -14 -56 -61 -73 -61 -4 0 -7 29 -7 65 0 36 3 65 6 65 3 0 21 -12
40 -26z m194 -24 c0 -62 -17 -73 -56 -36 -28 25 -28 25 7 55 19 17 37 31 42
31 4 0 7 -23 7 -50z m-84 -73 c39 -34 24 -47 -52 -47 -35 0 -64 2 -64 4 0 16
14 36 25 36 7 0 18 7 25 15 17 21 35 19 66 -8z"/>
<path d="M559 406 c-2 -3 -76 -8 -164 -12 -264 -11 -320 -17 -320 -34 0 -13
18 -15 113 -13 114 3 114 3 109 -60 -5 -74 -31 -177 -58 -230 -24 -48 -24 -47
4 -47 39 0 64 38 77 120 23 132 31 177 35 198 5 20 11 22 65 22 60 0 60 0 60
-58 0 -32 4 -62 9 -68 4 -5 14 -31 20 -58 7 -27 22 -63 34 -80 48 -68 58 -75
86 -57 12 8 12 14 1 43 -8 18 -16 35 -20 38 -3 3 -16 28 -29 55 -13 28 -27 57
-31 65 -4 9 -11 39 -15 68 -7 52 -7 52 47 53 29 1 68 0 85 -1 70 -4 96 24 46
48 -25 11 -144 17 -154 8z"/>
</g>
</svg>
