<svg version="1.0" xmlns="http://www.w3.org/2000/svg"
 width="61.000000pt" height="85.000000pt" viewBox="0 0 61.000000 85.000000"
 preserveAspectRatio="xMidYMid meet">
<metadata>
Created by potrace 1.15, written by Peter Selinger 2001-2017
</metadata>
<g transform="translate(0.000000,85.000000) scale(0.100000,-0.100000)"
fill="#000000" stroke="none">
<path d="M284 685 c-15 -24 -21 -25 -105 -25 -54 0 -90 -4 -95 -11 -12 -20 19
-28 78 -22 58 6 58 6 96 -36 20 -22 44 -41 51 -41 8 0 35 17 60 38 36 29 56
38 98 42 80 8 69 25 -17 28 -98 3 -117 8 -123 32 -7 27 -23 25 -43 -5z m76
-63 c0 -5 -9 -17 -20 -27 -19 -17 -21 -17 -40 0 -11 10 -17 22 -14 26 7 12 74
12 74 1z"/>
<path d="M380 522 c-50 -48 -50 -48 -50 -168 0 -118 7 -153 29 -140 7 5 11 48
11 122 0 117 3 124 41 104 18 -10 19 -23 19 -210 0 -135 4 -201 11 -206 23
-14 29 27 29 218 0 192 1 197 22 212 12 9 26 16 30 16 5 0 8 -88 8 -196 0
-150 3 -195 12 -192 21 7 26 47 27 214 1 214 0 218 -61 249 -27 14 -56 25 -64
25 -8 0 -37 -22 -64 -48z m91 -2 c24 -20 24 -20 1 -40 -19 -15 -28 -17 -43 -9
-29 15 -34 38 -13 54 25 19 28 19 55 -5z"/>
<path d="M83 520 c-50 -39 -50 -39 -56 -167 -11 -211 -9 -263 9 -270 9 -3 20
0 25 8 5 8 9 94 9 192 0 147 2 177 14 177 8 0 22 -10 30 -22 13 -19 16 -58 16
-225 0 -124 4 -203 10 -203 24 0 30 48 30 229 0 190 0 190 28 211 27 22 27 22
32 -112 4 -109 8 -133 20 -133 12 0 15 22 18 130 1 72 0 139 -2 151 -7 27 -75
74 -108 74 -15 0 -46 -17 -75 -40z m101 4 c20 -8 20 -23 -1 -46 -19 -22 -41
-23 -67 -3 -19 14 -19 15 -1 35 18 20 41 25 69 14z"/>
<path d="M234 149 c-12 -19 19 -30 69 -24 56 7 77 14 77 26 0 13 -137 11 -146
-2z"/>
<path d="M278 83 c-42 -3 -58 -8 -58 -18 0 -17 54 -19 124 -7 47 8 62 33 19
30 -15 -1 -54 -3 -85 -5z"/>
</g>
</svg>
