<svg version="1.0" xmlns="http://www.w3.org/2000/svg"
 width="74.000000pt" height="108.000000pt" viewBox="0 0 74.000000 108.000000"
 preserveAspectRatio="xMidYMid meet">
<metadata>
Created by potrace 1.15, written by Peter Selinger 2001-2017
</metadata>
<g transform="translate(0.000000,108.000000) scale(0.100000,-0.100000)"
fill="#000000" stroke="none">
<path d="M429 1038 c-3 -80 -6 -108 -11 -114 -13 -12 -48 8 -48 27 0 11 -7 19
-16 19 -14 0 -16 -8 -10 -55 4 -41 3 -57 -6 -60 -7 -3 -78 -8 -158 -12 -129
-7 -145 -10 -148 -26 -3 -15 0 -18 17 -12 12 3 30 3 41 0 17 -5 20 -15 20 -63
0 -50 4 -62 30 -90 27 -30 30 -40 30 -98 0 -55 -2 -64 -18 -64 -25 0 -46 42
-46 93 -1 35 -4 42 -21 42 -19 0 -20 -5 -16 -75 2 -41 8 -81 13 -87 6 -7 28
-18 49 -25 39 -11 39 -11 39 -100 0 -80 -2 -88 -19 -88 -24 0 -36 17 -36 50 0
18 -5 25 -20 25 -19 0 -20 -8 -23 -117 -3 -142 8 -173 64 -184 59 -11 126 3
152 32 23 24 24 32 23 151 -2 132 -4 143 -26 143 -9 0 -15 -14 -17 -43 -3 -37
-6 -42 -28 -42 -24 0 -25 2 -28 81 -3 80 -3 80 47 102 48 22 50 25 57 75 11
68 6 109 -13 124 -25 19 -36 4 -29 -38 9 -57 -3 -116 -24 -122 -32 -8 -39 7
-37 83 2 74 2 75 29 78 32 4 37 18 41 104 2 58 2 58 38 58 33 0 89 -19 89 -31
0 -3 -13 -26 -30 -52 -26 -41 -30 -57 -30 -115 0 -78 8 -114 24 -109 7 2 11
36 11 93 1 94 15 134 46 134 17 0 33 -26 24 -40 -3 -4 -6 -28 -6 -53 -3 -55
17 -107 41 -107 28 0 31 11 10 38 -24 30 -25 70 -5 119 15 36 15 38 -10 60
-34 32 -32 40 15 53 52 14 51 28 -2 32 -38 3 -43 6 -43 28 0 20 7 26 38 33 44
11 44 30 1 37 -29 5 -29 7 -29 70 0 53 -3 65 -17 68 -14 3 -18 -4 -19 -30z
m-11 -181 c3 -21 -1 -27 -16 -27 -19 0 -37 42 -24 55 14 14 37 -3 40 -28z
m-179 -66 c10 -22 12 -73 3 -87 -9 -15 -41 -20 -69 -10 -20 6 -23 14 -23 61 0
43 3 54 18 57 29 6 62 -4 71 -21z m23 -584 c13 -21 9 -102 -8 -125 -11 -16
-25 -22 -55 -22 -67 0 -79 12 -79 80 0 91 3 94 73 86 34 -3 64 -12 69 -19z"/>
<path d="M623 1052 c-6 -4 -9 -20 -7 -37 8 -66 -24 -118 -41 -65 -14 43 -25
16 -25 -59 0 -79 0 -79 30 -93 35 -15 38 -37 9 -64 -37 -34 -60 -91 -57 -142
2 -34 7 -47 18 -47 12 0 15 13 15 55 0 75 23 110 70 110 32 0 35 -3 35 -27 0
-16 -9 -39 -20 -53 -27 -34 -25 -67 6 -107 22 -29 27 -31 40 -18 13 13 12 17
-6 35 -25 25 -26 55 0 82 37 40 21 128 -24 128 -9 0 -16 4 -16 8 0 17 25 32
53 32 40 0 29 24 -14 30 -29 4 -35 9 -37 35 -4 33 18 55 56 55 13 0 20 4 17
10 -3 6 -19 10 -35 10 -34 0 -45 23 -35 79 6 39 -8 58 -32 43z m-7 -178 c-3
-9 -6 -22 -6 -30 0 -8 -4 -14 -10 -14 -5 0 -10 14 -10 30 0 21 5 30 16 30 11
0 14 -5 10 -16z"/>
<path d="M225 985 c-5 -3 -39 -6 -75 -7 -106 -5 -76 -23 43 -26 100 -2 108 -1
105 15 -3 17 -48 28 -73 18z"/>
<path d="M506 475 c-11 -31 -6 -100 10 -123 12 -18 25 -22 65 -22 49 0 49 0
49 -40 0 -40 0 -40 -100 -40 -112 0 -102 -13 -105 137 -1 60 -15 83 -40 63
-12 -10 -15 -42 -15 -189 0 -176 0 -176 31 -214 30 -37 30 -37 117 -36 64 0
95 5 117 18 30 18 30 18 30 222 0 175 -2 204 -15 204 -10 0 -17 -13 -20 -35
-5 -32 -8 -35 -40 -35 -35 0 -35 0 -40 50 -4 35 -10 51 -21 53 -9 2 -19 -4
-23 -13z m122 -336 c3 -67 3 -67 -29 -78 -18 -6 -58 -11 -90 -11 -70 0 -79 11
-79 100 0 61 0 61 98 58 97 -3 97 -3 100 -69z"/>
</g>
</svg>
