<svg version="1.0" xmlns="http://www.w3.org/2000/svg"
 width="65.000000pt" height="88.000000pt" viewBox="0 0 65.000000 88.000000"
 preserveAspectRatio="xMidYMid meet">
<metadata>
Created by potrace 1.15, written by Peter Selinger 2001-2017
</metadata>
<g transform="translate(0.000000,88.000000) scale(0.100000,-0.100000)"
fill="#000000" stroke="none">
<path d="M129 653 c-1 -5 0 -45 1 -90 1 -68 -1 -83 -13 -83 -20 0 -31 50 -23
105 5 33 3 44 -9 48 -35 14 -42 -1 -37 -81 5 -81 13 -102 42 -102 24 0 52 -34
44 -54 -3 -9 -17 -16 -31 -16 -13 0 -33 -5 -44 -10 -17 -10 -19 -23 -19 -150
0 -142 8 -173 37 -135 9 13 13 53 13 131 0 103 2 112 20 117 11 3 22 2 24 -2
2 -3 1 -64 -2 -135 -5 -96 -4 -130 5 -133 28 -11 33 11 33 138 0 122 1 129 20
129 19 0 20 -7 20 -129 0 -72 4 -132 8 -135 4 -2 14 -1 22 4 12 8 14 35 12
147 -2 75 -8 143 -13 149 -6 7 -23 14 -37 16 -21 2 -27 8 -27 28 0 21 5 26 33
28 26 3 35 10 47 39 20 46 20 137 0 153 -26 22 -38 1 -31 -56 8 -66 1 -84 -32
-84 -25 0 -25 0 -19 75 5 66 3 76 -13 85 -22 12 -30 13 -31 3z"/>
<path d="M312 618 c-7 -7 -12 -41 -12 -83 0 -90 16 -117 68 -113 34 3 37 1 40
-24 3 -28 3 -28 -62 -28 -64 0 -92 -14 -65 -31 8 -5 67 -9 131 -9 117 0 117 0
124 -36 5 -30 2 -117 -8 -214 -2 -17 3 -25 15 -28 30 -6 47 55 47 165 0 130
-9 146 -80 153 -47 4 -55 8 -55 25 0 16 8 21 35 23 19 2 45 13 58 24 18 18 22
32 22 88 0 94 -8 100 -141 100 -68 0 -109 -4 -117 -12z m192 -24 c9 -3 16 -15
16 -25 0 -17 -8 -19 -90 -19 -82 0 -90 2 -90 19 0 11 6 22 13 24 18 8 133 8
151 1z m16 -99 c0 -23 -34 -35 -104 -35 -65 0 -83 9 -72 35 8 22 176 22 176 0z"/>
<path d="M307 304 c-10 -10 -9 -222 1 -228 4 -2 14 -1 20 3 9 5 12 38 10 116
-3 100 -11 129 -31 109z"/>
<path d="M387 304 c-4 -4 -7 -56 -7 -116 0 -83 3 -109 13 -106 8 3 13 36 15
108 3 95 -4 131 -21 114z"/>
<path d="M456 298 c-10 -30 -14 -218 -5 -224 6 -3 17 0 25 7 19 16 16 220 -3
227 -7 2 -15 -2 -17 -10z"/>
</g>
</svg>
