<svg version="1.0" xmlns="http://www.w3.org/2000/svg"
 width="66.000000pt" height="89.000000pt" viewBox="0 0 66.000000 89.000000"
 preserveAspectRatio="xMidYMid meet">
<metadata>
Created by potrace 1.15, written by Peter Selinger 2001-2017
</metadata>
<g transform="translate(0.000000,89.000000) scale(0.100000,-0.100000)"
fill="#000000" stroke="none">
<path d="M276 664 c-3 -9 -6 -27 -6 -40 0 -24 0 -24 -107 -24 -101 0 -106 -1
-90 -17 14 -15 49 -18 244 -23 126 -4 236 -10 246 -14 13 -6 17 -4 17 13 0 34
-33 43 -131 35 -89 -7 -89 -7 -89 23 0 50 -68 88 -84 47z"/>
<path d="M113 513 c-44 -6 -55 -23 -51 -85 2 -40 7 -54 20 -56 14 -3 17 6 20
45 3 48 3 48 41 51 37 3 37 3 37 -42 0 -45 0 -45 43 -50 101 -12 203 -16 217
-7 30 20 -6 30 -109 33 -73 2 -106 7 -109 16 -3 9 19 12 85 12 76 0 91 3 106
20 20 24 72 27 81 4 3 -9 6 -28 6 -44 0 -41 10 -60 30 -60 29 0 39 22 33 72
-7 63 -29 81 -103 86 -51 4 -63 1 -93 -22 -26 -20 -45 -26 -83 -26 -44 0 -51
3 -66 30 -18 31 -26 33 -105 23z"/>
<path d="M100 313 c-40 -15 -50 -45 -50 -156 0 -97 2 -108 17 -105 21 4 31 36
32 106 1 53 1 53 55 47 47 -6 57 -4 76 15 15 15 20 29 16 46 -6 23 -4 24 36
24 51 0 63 -7 73 -40 12 -42 25 -50 76 -50 38 0 49 4 49 16 0 12 -7 14 -31 9
-33 -8 -49 4 -49 38 0 13 8 17 40 17 53 0 64 -22 65 -135 0 -76 3 -90 17 -93
26 -5 33 39 21 141 -7 58 -16 94 -27 105 -14 15 -45 17 -209 19 -106 1 -199 0
-207 -4z m100 -37 c0 -20 -24 -36 -64 -43 -36 -6 -46 6 -28 33 16 25 92 33 92
10z"/>
<path d="M200 161 c-31 -8 -49 -67 -34 -109 10 -27 11 -27 100 -27 114 0 144
16 144 75 0 59 -18 70 -108 69 -42 -1 -88 -4 -102 -8z m158 -38 c6 -9 12 -20
12 -25 0 -18 -54 -40 -101 -42 -58 -1 -76 14 -65 57 5 21 13 27 44 30 55 6 95
-1 110 -20z"/>
</g>
</svg>
