<svg version="1.0" xmlns="http://www.w3.org/2000/svg"
 width="65.000000pt" height="92.000000pt" viewBox="0 0 65.000000 92.000000"
 preserveAspectRatio="xMidYMid meet">
<metadata>
Created by potrace 1.15, written by Peter Selinger 2001-2017
</metadata>
<g transform="translate(0.000000,92.000000) scale(0.100000,-0.100000)"
fill="#000000" stroke="none">
<path d="M345 785 c-10 -50 -17 -56 -128 -123 -100 -60 -131 -92 -89 -92 9 0
32 9 50 20 35 22 46 20 62 -10 9 -16 6 -22 -18 -34 -42 -22 -132 -207 -132
-273 0 -9 -10 -27 -21 -39 -22 -23 -20 -59 3 -52 24 8 48 55 68 132 41 155 82
208 206 270 101 50 129 101 70 127 -13 6 -26 23 -29 38 -3 14 -12 35 -21 46
-14 19 -15 19 -21 -10z m45 -105 c8 -16 6 -24 -10 -40 -22 -22 -34 -20 -50 10
-9 16 -6 22 17 34 16 8 29 15 30 16 1 0 7 -9 13 -20z m-76 -53 c8 -14 8 -20
-4 -27 -25 -16 -48 -11 -55 11 -12 38 37 52 59 16z"/>
<path d="M450 540 c-14 -4 -55 -8 -92 -9 -36 -1 -73 -4 -82 -7 -26 -10 -18
-24 12 -24 21 0 32 -7 40 -25 18 -39 15 -44 -25 -47 -57 -5 -41 -23 22 -26 77
-4 75 -27 -4 -36 -70 -8 -107 -36 -48 -36 20 0 38 -4 41 -9 3 -5 -19 -30 -49
-56 -102 -87 -50 -76 58 13 29 23 58 42 65 42 7 0 42 -27 77 -60 62 -58 95
-74 95 -47 0 7 -20 27 -44 44 -25 18 -50 41 -56 52 -10 20 -8 21 32 21 49 0
78 14 63 29 -6 5 -39 11 -75 13 -50 2 -65 7 -65 18 0 11 13 16 48 18 55 4 62
17 12 26 -19 4 -35 10 -35 15 0 19 45 52 80 57 63 10 47 45 -18 43 -15 -1 -38
-5 -52 -9z m-10 -49 c0 -12 -40 -61 -49 -61 -8 0 -31 44 -31 60 0 6 18 10 40
10 22 0 40 -4 40 -9z"/>
<path d="M400 255 c0 -3 5 -14 12 -25 16 -25 3 -38 -22 -22 -21 13 -50 16 -50
6 0 -3 9 -19 20 -35 21 -28 21 -28 -6 -35 -18 -5 -38 -2 -56 9 -26 15 -28 15
-28 -1 1 -41 42 -59 96 -42 41 14 50 7 61 -42 10 -51 26 -31 20 26 -4 38 -1
60 8 73 20 26 18 50 -5 73 -18 18 -50 28 -50 15z"/>
</g>
</svg>
