<svg version="1.0" xmlns="http://www.w3.org/2000/svg"
 width="68.000000pt" height="77.000000pt" viewBox="0 0 68.000000 77.000000"
 preserveAspectRatio="xMidYMid meet">
<metadata>
Created by potrace 1.15, written by Peter Selinger 2001-2017
</metadata>
<g transform="translate(0.000000,77.000000) scale(0.100000,-0.100000)"
fill="#000000" stroke="none">
<path d="M227 550 c-37 -39 -72 -70 -77 -70 -14 0 -40 30 -40 46 0 8 9 23 20
34 19 19 27 40 15 40 -4 0 -19 -7 -34 -15 -33 -16 -41 -33 -41 -80 0 -29 6
-37 38 -55 45 -25 92 -95 92 -137 0 -30 -1 -31 -61 -37 -71 -8 -91 -15 -83
-27 3 -5 34 -9 70 -9 51 0 64 -3 64 -15 0 -29 -28 -70 -74 -108 -44 -37 -56
-60 -37 -71 5 -4 37 22 72 56 62 62 62 62 78 38 29 -45 73 -90 87 -90 8 0 14
2 14 5 0 16 -32 63 -59 89 -24 23 -31 38 -31 67 0 38 0 38 50 41 68 4 64 22
-5 26 -49 3 -55 5 -55 25 0 12 -3 31 -5 42 -4 14 3 26 23 40 36 25 106 104 99
111 -2 3 -30 -15 -61 -40 -60 -50 -80 -55 -108 -29 -17 15 -14 20 62 90 75 70
97 103 68 103 -7 0 -44 -32 -81 -70z"/>
<path d="M480 562 c-13 -64 -37 -94 -126 -158 -37 -27 -29 -37 19 -22 33 10
40 9 60 -10 23 -22 23 -22 -11 -93 -27 -59 -34 -87 -39 -160 -5 -76 -4 -89 9
-89 11 0 18 13 21 37 20 152 45 243 67 243 17 0 47 -114 56 -210 5 -47 11 -70
20 -70 7 0 16 4 19 10 11 18 -27 234 -46 262 -26 35 -24 54 7 74 24 16 28 16
60 1 42 -21 44 -21 44 -2 0 8 -12 22 -27 32 -16 9 -43 30 -60 47 -29 26 -33
36 -33 81 0 28 -6 60 -14 70 -13 18 -15 14 -26 -43z m44 -135 c18 -13 18 -15
-5 -35 -28 -27 -31 -27 -54 -2 -33 36 18 67 59 37z"/>
</g>
</svg>
