<svg version="1.0" xmlns="http://www.w3.org/2000/svg"
 width="70.000000pt" height="80.000000pt" viewBox="0 0 70.000000 80.000000"
 preserveAspectRatio="xMidYMid meet">
<metadata>
Created by potrace 1.15, written by Peter Selinger 2001-2017
</metadata>
<g transform="translate(0.000000,80.000000) scale(0.100000,-0.100000)"
fill="#000000" stroke="none">
<path d="M474 616 c-18 -14 -18 -15 9 -25 16 -6 34 -11 42 -11 28 0 25 -20 -4
-26 -16 -4 -39 -16 -50 -28 -18 -20 -19 -31 -14 -226 6 -196 7 -205 29 -227
18 -18 34 -23 76 -23 60 0 84 11 75 34 -5 12 -20 16 -62 16 -50 0 -56 2 -65
26 -18 45 -13 51 45 59 90 11 84 45 -8 45 -47 0 -48 1 -45 27 3 26 7 28 53 33
36 4 50 9 50 20 0 11 -13 16 -45 18 -50 4 -70 16 -70 42 0 19 27 30 71 30 27
0 54 22 42 33 -3 4 -28 7 -55 7 -49 0 -49 0 -46 32 3 29 9 34 48 48 39 13 45
20 48 47 2 23 -3 35 -20 47 -28 20 -78 21 -104 2z"/>
<path d="M57 599 c-24 -14 -5 -39 29 -39 29 0 34 -37 7 -47 -52 -18 -53 -23
-53 -230 0 -239 3 -248 86 -259 44 -5 59 -3 72 9 22 22 10 31 -51 37 -50 5
-52 6 -55 38 -3 31 -2 32 32 32 48 0 56 19 56 139 0 119 -4 131 -40 131 -30 0
-60 22 -60 45 0 7 17 22 38 32 31 15 37 24 40 53 1 19 -2 41 -6 48 -12 17 -73
25 -95 11z m67 -246 c14 -51 17 -89 11 -130 -5 -38 -9 -44 -28 -41 -20 3 -22
10 -25 82 -2 44 -1 85 2 93 8 19 34 16 40 -4z"/>
<path d="M220 599 c-24 -10 -24 -11 -6 -25 11 -8 23 -14 28 -14 4 0 8 -11 8
-24 0 -17 -7 -26 -26 -30 -14 -4 -24 -12 -21 -19 5 -14 191 -11 220 4 26 15
20 29 -13 29 -24 0 -30 4 -30 23 0 14 9 26 23 32 12 6 22 15 22 20 0 14 -173
17 -205 4z m120 -58 c0 -24 -13 -33 -34 -25 -27 10 -20 44 9 44 18 0 25 -5 25
-19z"/>
<path d="M256 409 c-26 -20 -26 -21 -26 -168 0 -147 5 -171 37 -171 9 0 13 17
13 55 0 50 2 55 23 55 12 0 29 5 37 10 13 9 13 11 0 20 -8 5 -25 10 -37 10
-19 0 -23 5 -23 34 0 36 12 46 56 46 21 0 24 -5 24 -34 0 -18 3 -61 6 -94 7
-60 6 -62 -20 -71 -30 -12 -33 -23 -11 -41 23 -19 63 12 71 54 3 20 1 93 -5
163 -8 101 -14 130 -28 140 -26 20 -87 16 -117 -8z m99 -49 c0 -22 -5 -25 -37
-28 -35 -3 -38 -1 -38 22 0 27 13 36 50 33 19 -2 25 -8 25 -27z"/>
</g>
</svg>
