<svg version="1.0" xmlns="http://www.w3.org/2000/svg"
 width="123.000000pt" height="119.000000pt" viewBox="0 0 123.000000 119.000000"
 preserveAspectRatio="xMidYMid meet">
<metadata>
Created by potrace 1.15, written by Peter Selinger 2001-2017
</metadata>
<g transform="translate(0.000000,119.000000) scale(0.100000,-0.100000)"
fill="#000000" stroke="none">
<path d="M436 1052 c17 -105 3 -284 -29 -371 -9 -25 -14 -48 -11 -53 3 -4 -3
-22 -12 -39 -25 -49 -20 -236 8 -292 31 -65 155 -146 175 -115 3 7 -2 17 -12
22 -11 6 -40 32 -66 58 -64 62 -76 105 -59 213 7 44 16 103 20 130 4 28 15 87
24 133 23 114 24 293 2 327 -26 40 -48 33 -40 -13z"/>
<path d="M754 1049 c29 -147 29 -220 -1 -319 -10 -35 -18 -106 -20 -191 -4
-124 -2 -141 17 -183 12 -25 26 -46 31 -46 5 0 9 -6 9 -14 0 -20 50 -66 71
-66 25 0 24 14 -3 42 -23 23 -32 39 -62 113 -28 68 -22 196 15 345 22 87 24
147 7 239 -12 70 -20 86 -51 103 -18 9 -19 8 -13 -23z"/>
<path d="M607 1034 c-11 -38 1 -236 15 -245 25 -16 28 -8 28 84 0 60 4 97 12
105 10 10 6 19 -19 43 -28 28 -31 30 -36 13z"/>
<path d="M220 1015 c-20 -6 -37 -20 -39 -30 -3 -16 2 -17 37 -12 56 10 61 0
54 -107 -1 -20 -16 -42 -48 -73 -25 -23 -50 -43 -55 -43 -6 0 -15 -5 -22 -10
-7 -6 -21 -17 -32 -25 -17 -12 -18 -16 -6 -24 16 -10 144 51 174 83 18 20 32
62 43 134 12 79 -38 131 -106 107z"/>
<path d="M1046 1005 c-77 -31 -97 -52 -103 -106 -8 -82 61 -153 156 -161 37
-3 55 18 24 28 -10 3 -26 10 -35 15 -10 5 -23 9 -30 9 -6 0 -25 12 -40 27 -56
54 -31 110 70 158 25 12 42 27 42 38 0 23 -13 21 -84 -8z"/>
<path d="M1060 555 c-74 -13 -115 -28 -126 -46 -11 -18 -5 -137 9 -168 13 -29
57 -72 100 -98 15 -10 27 -20 27 -24 0 -12 70 -31 88 -24 14 5 12 11 -17 35
-18 16 -41 32 -52 35 -10 4 -19 10 -19 14 0 4 -11 13 -25 19 -28 13 -55 70
-55 118 0 51 34 83 104 97 63 13 77 25 49 43 -13 7 -37 7 -83 -1z"/>
<path d="M550 496 c0 -55 8 -78 48 -134 28 -38 67 -45 56 -9 -4 12 -10 24 -14
27 -19 12 -50 84 -50 113 0 31 -14 57 -32 57 -4 0 -8 -24 -8 -54z"/>
<path d="M148 523 c-10 -2 -18 -8 -18 -12 0 -4 -9 -16 -19 -28 -24 -26 -52
-79 -45 -86 10 -9 73 34 79 54 14 42 44 17 72 -61 27 -73 18 -102 -70 -233
-33 -48 -57 -90 -55 -93 10 -9 143 130 167 174 14 27 14 114 -1 166 -14 49
-64 126 -81 125 -7 -1 -20 -3 -29 -6z"/>
</g>
</svg>
