<svg version="1.0" xmlns="http://www.w3.org/2000/svg"
 width="73.000000pt" height="111.000000pt" viewBox="0 0 73.000000 111.000000"
 preserveAspectRatio="xMidYMid meet">
<metadata>
Created by potrace 1.15, written by Peter Selinger 2001-2017
</metadata>
<g transform="translate(0.000000,111.000000) scale(0.100000,-0.100000)"
fill="#000000" stroke="none">
<path d="M164 1048 c-4 -7 -9 -78 -11 -158 -1 -80 -4 -154 -5 -165 -1 -11 1
-36 5 -55 6 -27 10 -32 17 -20 5 8 10 29 10 47 0 17 3 38 6 47 19 50 42 -30
25 -89 -7 -25 -7 -43 -1 -50 6 -7 6 -15 0 -21 -11 -11 -18 -95 -25 -322 -4
-132 -3 -153 10 -159 9 -3 19 -3 22 1 3 3 8 57 9 118 3 125 13 314 18 368 3
19 7 65 11 102 8 66 7 67 -26 100 -33 33 -33 33 -30 139 2 83 -1 108 -13 118
-11 9 -16 9 -22 -1z"/>
<path d="M314 1007 c-10 -12 -27 -183 -26 -252 1 -16 1 -52 0 -80 -5 -261 2
-406 26 -521 5 -26 28 -64 38 -64 16 0 17 23 3 97 -30 162 -36 389 -17 662 12
165 7 194 -24 158z"/>
<path d="M514 989 c-56 -16 -62 -34 -65 -193 -3 -141 8 -208 37 -239 23 -25
24 -33 4 -82 -4 -11 -13 -47 -20 -80 -7 -33 -16 -69 -21 -80 -9 -21 -33 -139
-44 -217 -6 -40 -4 -49 10 -54 29 -11 43 18 55 111 10 79 33 206 47 258 4 14
13 17 46 15 40 -3 42 -4 41 -35 -2 -34 -24 -93 -36 -93 -6 0 -22 -71 -22 -95
1 -36 19 -86 39 -106 73 -77 135 -100 135 -50 0 12 -18 31 -46 50 -83 54 -97
126 -44 226 40 76 40 109 -2 135 -18 11 -45 20 -60 20 -16 0 -28 5 -28 10 0 6
5 10 10 10 6 0 10 6 10 13 0 8 18 19 40 26 65 19 74 43 81 216 8 201 -1 225
-96 238 -22 2 -54 1 -71 -4z m107 -76 c5 -15 8 -37 5 -49 -5 -19 -12 -21 -63
-20 -55 1 -58 2 -61 28 -6 48 13 68 64 68 39 0 46 -3 55 -27z m9 -143 c0 -32
-2 -33 -80 -33 -55 0 -60 3 -60 26 0 34 6 37 77 37 63 0 63 0 63 -30z m-20
-90 c19 -10 18 -34 -3 -77 -7 -17 -19 -23 -42 -23 -37 0 -52 14 -65 59 -7 25
-5 33 8 41 22 12 78 13 102 0z"/>
<path d="M77 927 c-3 -7 -6 -63 -7 -123 -1 -60 -2 -114 -3 -119 0 -6 3 -23 7
-38 4 -16 2 -27 -4 -27 -17 0 -11 -47 6 -54 9 -4 19 -5 21 -2 8 8 14 215 7
294 -6 77 -15 100 -27 69z"/>
<path d="M376 898 c-3 -12 -8 -97 -10 -187 -7 -189 6 -291 35 -291 15 0 16 10
11 108 -3 59 -5 166 -4 238 2 105 -1 134 -13 144 -12 10 -15 8 -19 -12z"/>
<path d="M156 605 c4 -8 2 -21 -3 -28 -9 -11 -27 -90 -37 -167 -3 -19 -9 -55
-15 -80 -5 -25 -14 -63 -19 -86 -5 -23 -21 -65 -35 -95 -30 -59 -33 -79 -14
-79 39 0 79 98 106 260 25 148 35 290 22 290 -6 0 -8 -7 -5 -15z"/>
<path d="M44 485 c-3 -20 -4 -39 0 -42 12 -12 37 21 34 45 -5 40 -26 38 -34
-3z"/>
</g>
</svg>
