<svg version="1.0" xmlns="http://www.w3.org/2000/svg"
 width="62.000000pt" height="75.000000pt" viewBox="0 0 62.000000 75.000000"
 preserveAspectRatio="xMidYMid meet">
<metadata>
Created by potrace 1.15, written by Peter Selinger 2001-2017
</metadata>
<g transform="translate(0.000000,75.000000) scale(0.100000,-0.100000)"
fill="#000000" stroke="none">
<path d="M391 641 c-8 -5 -11 -16 -8 -25 5 -12 21 -16 72 -16 65 0 65 0 65
-30 0 -23 -5 -31 -22 -34 -114 -24 -103 3 -103 -256 0 -228 1 -235 20 -235 19
0 20 8 23 158 3 158 3 158 40 155 37 -3 37 -3 37 -152 1 -125 3 -151 17 -159
8 -6 22 -8 30 -4 14 5 15 33 11 204 -2 109 -6 204 -9 211 -2 7 -14 12 -26 10
-17 -2 -24 -11 -26 -31 -3 -25 -7 -28 -35 -25 -28 3 -32 7 -32 33 0 29 2 30
54 37 29 3 58 11 65 18 6 6 11 36 11 66 0 72 -15 84 -104 84 -36 0 -72 -4 -80
-9z"/>
<path d="M139 631 c-83 -9 -89 -17 -89 -125 0 -102 7 -116 56 -116 66 0 88
-62 24 -68 -54 -5 -59 -21 -60 -169 0 -107 3 -133 14 -133 28 0 35 29 38 141
3 110 4 114 26 117 21 3 22 1 22 -93 0 -131 3 -135 94 -135 49 0 77 4 85 13
18 22 -8 37 -66 37 -53 0 -53 0 -53 35 0 32 3 35 38 41 48 8 72 30 72 65 0 55
-18 77 -71 84 -43 6 -49 10 -49 30 0 24 9 28 90 38 8 1 20 13 27 27 13 25 17
138 7 176 -11 41 -64 50 -205 35z m31 -76 c0 -21 -5 -25 -30 -25 -25 0 -30 4
-30 25 0 21 5 25 30 25 25 0 30 -4 30 -25z m118 3 c-2 -17 -11 -24 -30 -26
-24 -3 -28 0 -28 22 0 22 4 26 31 26 26 0 30 -3 27 -22z m-118 -98 c0 -28 -3
-30 -35 -30 -30 0 -35 3 -35 23 0 31 7 37 42 37 24 0 28 -4 28 -30z m125 20
c11 -18 -15 -50 -40 -50 -21 0 -25 5 -25 30 0 27 3 30 29 30 17 0 33 -4 36
-10z m-20 -226 c0 -22 -5 -30 -22 -32 -20 -3 -23 1 -23 26 0 29 13 43 35 38 6
-2 10 -16 10 -32z"/>
</g>
</svg>
