<svg version="1.0" xmlns="http://www.w3.org/2000/svg"
 width="70.000000pt" height="87.000000pt" viewBox="0 0 70.000000 87.000000"
 preserveAspectRatio="xMidYMid meet">
<metadata>
Created by potrace 1.15, written by Peter Selinger 2001-2017
</metadata>
<g transform="translate(0.000000,87.000000) scale(0.100000,-0.100000)"
fill="#000000" stroke="none">
<path d="M315 601 c-77 -52 -277 -275 -273 -305 4 -30 25 -30 49 -2 29 33 41
33 62 -3 25 -42 21 -60 -23 -116 -41 -52 -52 -95 -25 -95 22 0 108 82 178 170
32 41 74 91 92 111 62 68 68 95 30 145 -18 23 -24 43 -22 71 2 31 -1 38 -18
41 -11 1 -33 -7 -50 -17z m30 -112 c9 -27 -2 -84 -18 -97 -15 -13 -30 -5 -46
25 -17 33 -13 60 11 77 30 22 45 20 53 -5z m-92 -123 c17 -35 17 -40 2 -62 -8
-13 -19 -24 -23 -24 -39 1 -69 89 -40 118 20 20 42 9 61 -32z"/>
<path d="M470 553 c0 -10 15 -31 32 -48 17 -16 37 -45 44 -63 13 -29 12 -36
-7 -74 -12 -23 -68 -93 -125 -155 -57 -63 -104 -119 -104 -124 0 -5 7 -12 16
-16 11 -4 48 27 125 103 59 59 111 105 115 101 4 -4 11 -55 15 -114 5 -60 11
-114 14 -121 3 -8 16 -12 32 -10 32 3 33 10 15 143 -6 44 -16 129 -21 188 -9
93 -14 113 -37 143 -42 55 -114 85 -114 47z"/>
</g>
</svg>
