<svg version="1.0" xmlns="http://www.w3.org/2000/svg"
 width="67.000000pt" height="89.000000pt" viewBox="0 0 67.000000 89.000000"
 preserveAspectRatio="xMidYMid meet">
<metadata>
Created by potrace 1.15, written by Peter Selinger 2001-2017
</metadata>
<g transform="translate(0.000000,89.000000) scale(0.100000,-0.100000)"
fill="#000000" stroke="none">
<path d="M384 686 c-56 -51 -69 -87 -21 -56 68 43 76 45 94 32 72 -51 103 -64
103 -42 0 8 -107 120 -114 120 -2 0 -29 -24 -62 -54z"/>
<path d="M154 688 c-9 -18 -23 -38 -30 -46 -18 -17 -18 -42 -1 -42 8 0 24 11
37 25 27 29 42 31 60 10 14 -17 50 -20 50 -4 0 19 -64 89 -82 89 -10 0 -25
-14 -34 -32z"/>
<path d="M205 570 c-11 -4 -32 -21 -48 -37 -36 -38 -57 -145 -50 -251 4 -54 1
-96 -11 -140 -26 -104 -18 -121 23 -49 23 38 25 54 27 172 2 130 15 217 36
242 6 8 33 23 59 35 27 11 46 24 43 29 -6 11 -52 11 -79 -1z"/>
<path d="M450 574 c0 -4 16 -25 36 -47 37 -40 37 -40 30 -156 -8 -132 6 -255
31 -283 26 -29 35 -7 22 53 -8 35 -10 104 -6 202 4 84 2 158 -3 172 -10 27
-64 65 -92 65 -10 0 -18 -3 -18 -6z"/>
<path d="M247 473 c-4 -3 -7 -12 -7 -20 0 -10 20 -13 83 -13 105 0 157 9 157
26 0 11 -24 14 -113 14 -63 0 -117 -3 -120 -7z"/>
<path d="M246 393 c-3 -4 -4 -33 0 -65 4 -34 3 -58 -3 -58 -5 0 -17 -16 -26
-35 -13 -28 -14 -35 -3 -35 7 0 19 7 26 15 18 22 28 19 44 -14 14 -26 14 -30
-1 -42 -19 -17 -63 -85 -63 -99 0 -21 22 -9 67 37 46 48 46 48 61 25 17 -25
104 -92 121 -92 24 0 9 29 -34 64 -69 57 -73 71 -32 113 40 39 62 85 53 109
-9 23 -27 13 -49 -27 -10 -19 -29 -45 -42 -58 -23 -23 -23 -23 -41 4 -18 28
-18 28 24 65 32 29 42 45 42 69 0 17 -3 31 -6 31 -3 0 -25 -21 -48 -47 -42
-47 -42 -47 -56 0 -12 46 -19 54 -34 40z"/>
</g>
</svg>
