<svg version="1.0" xmlns="http://www.w3.org/2000/svg"
 width="64.000000pt" height="123.000000pt" viewBox="0 0 64.000000 123.000000"
 preserveAspectRatio="xMidYMid meet">
<metadata>
Created by potrace 1.15, written by Peter Selinger 2001-2017
</metadata>
<g transform="translate(0.000000,123.000000) scale(0.100000,-0.100000)"
fill="#000000" stroke="none">
<path d="M140 1080 c-8 -5 -31 -10 -51 -10 -42 0 -67 -21 -46 -38 9 -8 47 -9
123 -3 107 8 311 8 318 0 14 -14 15 -57 2 -74 -15 -21 -73 -31 -236 -40 -129
-8 -183 -32 -195 -89 -13 -66 -17 -96 -18 -141 -2 -41 1 -50 17 -53 27 -6 33
10 35 90 1 41 8 80 17 92 23 37 106 56 237 56 168 0 227 32 227 121 0 31 -14
64 -36 86 -15 16 -370 18 -394 3z"/>
<path d="M420 780 c-8 -5 -24 -10 -36 -10 -29 0 -70 -21 -86 -45 -10 -15 -13
-72 -13 -240 0 -341 7 -459 26 -463 24 -4 27 33 21 260 -2 109 -2 198 2 198
27 0 156 -101 156 -122 0 -3 -21 -11 -47 -19 -88 -24 -95 -67 -8 -52 87 15 89
14 92 -47 7 -144 24 -203 52 -186 13 8 12 180 -1 201 -3 6 -9 27 -13 48 -6 31
-3 44 19 77 66 101 -15 249 -136 250 -57 0 -50 -29 13 -59 65 -31 89 -57 89
-97 0 -74 -20 -81 -70 -26 -21 22 -53 43 -80 52 -63 20 -70 30 -70 99 0 94 10
108 89 120 36 6 94 12 128 15 35 3 67 7 73 11 15 9 12 32 -6 39 -25 10 -178 7
-194 -4z"/>
<path d="M130 620 c-19 -16 -38 -29 -42 -30 -17 0 -58 -45 -58 -61 0 -10 -5
-21 -11 -25 -15 -9 -5 -93 16 -137 12 -27 13 -40 5 -63 -12 -31 -20 -171 -13
-221 5 -33 29 -51 46 -34 5 5 9 61 9 124 1 63 4 121 9 128 6 11 14 11 42 1 43
-15 59 -15 81 1 18 13 18 14 0 35 -12 15 -25 20 -41 16 -28 -7 -54 11 -46 32
7 18 63 75 89 90 24 14 31 52 10 60 -10 4 -37 -16 -81 -61 -37 -37 -69 -64
-73 -60 -4 4 -6 28 -5 53 1 42 6 51 45 84 24 20 55 42 71 49 16 7 27 19 27 30
0 29 -40 24 -80 -11z"/>
</g>
</svg>
