<svg version="1.0" xmlns="http://www.w3.org/2000/svg"
 width="69.000000pt" height="86.000000pt" viewBox="0 0 69.000000 86.000000"
 preserveAspectRatio="xMidYMid meet">
<metadata>
Created by potrace 1.15, written by Peter Selinger 2001-2017
</metadata>
<g transform="translate(0.000000,86.000000) scale(0.100000,-0.100000)"
fill="#000000" stroke="none">
<path d="M317 674 c-4 -4 -7 -20 -7 -36 0 -15 -6 -28 -12 -28 -173 -5 -169 -5
-188 -27 -16 -21 -18 -42 -13 -275 2 -139 6 -259 9 -266 2 -7 14 -12 26 -10
23 3 23 3 23 253 0 249 0 249 45 262 26 8 110 14 200 16 147 2 155 3 155 22 0
18 -8 20 -75 23 -106 3 -118 7 -122 39 -3 27 -26 41 -41 27z"/>
<path d="M403 520 c-14 -36 -58 -43 -68 -10 -8 25 -35 26 -42 1 -5 -20 -30
-31 -75 -31 -32 0 -44 -15 -27 -36 8 -10 27 -14 58 -12 44 3 46 2 49 -25 2
-18 12 -32 27 -39 13 -6 25 -21 28 -34 4 -20 0 -24 -22 -24 -35 0 -69 25 -73
53 -2 13 -11 23 -24 25 -30 4 -38 -34 -16 -73 17 -29 29 -34 120 -51 19 -4 22
-11 22 -47 0 -38 -6 -48 -50 -92 -48 -48 -64 -85 -36 -85 7 0 39 24 70 54 56
54 56 54 96 4 22 -28 40 -54 40 -58 0 -14 32 -20 46 -9 24 20 15 47 -26 80
-48 38 -90 98 -90 126 0 21 23 33 68 33 12 0 34 7 47 16 20 13 25 25 25 58 0
49 -12 71 -34 63 -10 -4 -16 -19 -16 -41 0 -40 -24 -59 -68 -54 -37 4 -42 40
-8 56 14 6 27 23 31 41 7 34 25 44 69 35 41 -7 66 17 45 42 -10 12 -23 14 -61
9 -43 -6 -48 -5 -48 12 0 21 -18 43 -35 43 -6 0 -16 -13 -22 -30z m-5 -72 c17
-17 15 -35 -4 -42 -25 -10 -54 3 -54 24 0 28 37 39 58 18z"/>
<path d="M268 233 c-45 -50 -55 -138 -13 -103 18 15 55 87 55 107 0 19 -24 16
-42 -4z"/>
<path d="M470 233 c1 -28 55 -85 76 -81 30 5 28 36 -4 68 -34 34 -72 40 -72
13z"/>
</g>
</svg>
