<svg version="1.0" xmlns="http://www.w3.org/2000/svg"
 width="66.000000pt" height="85.000000pt" viewBox="0 0 66.000000 85.000000"
 preserveAspectRatio="xMidYMid meet">
<metadata>
Created by potrace 1.15, written by Peter Selinger 2001-2017
</metadata>
<g transform="translate(0.000000,85.000000) scale(0.100000,-0.100000)"
fill="#000000" stroke="none">
<path d="M410 698 c-123 -11 -140 -25 -122 -95 14 -53 37 -93 53 -93 16 0 22
30 11 53 -25 53 -19 77 20 77 13 0 22 -16 35 -60 15 -51 22 -60 41 -60 33 0
36 21 12 68 -23 44 -20 62 9 62 22 0 41 -19 41 -42 0 -27 54 -83 73 -75 24 9
21 19 -13 62 -36 46 -37 51 -5 59 30 8 44 34 24 47 -16 10 -48 10 -179 -3z"/>
<path d="M130 360 c0 -282 2 -330 15 -330 27 0 35 73 35 330 0 291 -4 330 -31
330 -18 0 -19 -14 -19 -330z"/>
<path d="M216 674 c-8 -21 -8 -153 0 -193 5 -21 12 -31 25 -31 17 0 19 9 19
104 0 111 -5 136 -25 136 -7 0 -16 -7 -19 -16z"/>
<path d="M35 658 c-3 -8 -4 -59 -3 -114 3 -91 5 -99 23 -99 19 0 20 7 20 110
0 97 -2 110 -18 113 -9 2 -19 -3 -22 -10z"/>
<path d="M348 459 c-28 -16 -22 -29 37 -84 56 -51 56 -51 53 -156 -3 -104 -3
-104 -33 -104 -30 0 -30 0 -40 110 -8 87 -13 110 -25 110 -13 0 -15 -20 -15
-123 0 -137 0 -136 71 -147 23 -3 45 -12 48 -20 7 -19 35 -19 42 -1 3 7 23 16
45 20 72 11 80 29 77 164 -3 113 -4 117 -25 120 -22 3 -23 1 -23 -92 0 -114
-10 -146 -45 -146 -25 0 -25 0 -25 110 0 109 0 109 60 157 41 33 60 55 60 71
0 22 -2 22 -122 22 -68 0 -131 -5 -140 -11z m172 -37 c0 -5 -9 -17 -20 -27
-16 -15 -26 -17 -48 -9 -15 5 -28 17 -30 27 -3 14 5 17 47 17 28 0 51 -4 51
-8z"/>
<path d="M215 335 c-10 -86 -2 -242 12 -256 26 -26 33 4 33 156 0 130 -2 154
-16 159 -9 3 -17 6 -19 6 -2 0 -7 -29 -10 -65z"/>
<path d="M45 358 c-3 -13 -7 -84 -8 -158 -2 -129 -1 -135 18 -135 19 0 20 9
27 145 6 139 2 170 -23 170 -5 0 -11 -10 -14 -22z"/>
</g>
</svg>
