<svg version="1.0" xmlns="http://www.w3.org/2000/svg"
 width="73.000000pt" height="136.000000pt" viewBox="0 0 73.000000 136.000000"
 preserveAspectRatio="xMidYMid meet">
<metadata>
Created by potrace 1.15, written by Peter Selinger 2001-2017
</metadata>
<g transform="translate(0.000000,136.000000) scale(0.100000,-0.100000)"
fill="#000000" stroke="none">
<path d="M225 1298 c-3 -7 -8 -38 -13 -68 -7 -55 -7 -55 -82 -60 -61 -4 -75
-8 -78 -23 -5 -25 18 -30 87 -19 33 5 64 5 68 1 5 -5 6 -32 3 -61 -5 -53 -5
-53 -60 -56 -63 -4 -75 -11 -65 -42 7 -21 11 -22 64 -16 31 3 91 9 134 12 72
6 78 9 75 28 -2 16 -10 21 -36 22 -18 1 -37 5 -43 11 -14 14 -19 103 -5 104 6
1 34 2 61 3 43 1 50 4 50 21 0 17 -8 21 -55 25 -55 5 -55 5 -53 40 1 19 -3 47
-9 63 -11 28 -35 36 -43 15z"/>
<path d="M502 1265 c-49 -21 -66 -43 -66 -83 0 -35 5 -41 76 -97 26 -20 33
-55 29 -139 -1 -27 -3 -28 -33 -22 -47 9 -62 29 -68 89 -4 37 -9 52 -20 52
-11 0 -16 -14 -18 -58 -4 -69 12 -111 48 -128 34 -15 219 -29 273 -20 4 0 7
13 7 27 0 25 -2 26 -52 24 -80 -4 -80 -4 -76 32 3 31 6 34 51 42 54 9 70 29
65 79 -4 45 -31 47 -47 2 -10 -29 -17 -35 -41 -35 -23 0 -31 6 -41 33 -6 17
-33 50 -60 71 -27 22 -49 46 -49 53 0 28 28 43 82 43 61 0 72 -6 83 -38 7 -25
-17 -62 -42 -62 -22 0 -14 -17 11 -24 49 -12 83 14 92 71 5 33 2 44 -19 68
-21 25 -32 29 -88 32 -41 2 -76 -2 -97 -12z"/>
<path d="M330 814 c-19 -8 -42 -17 -51 -20 -8 -3 -26 -23 -39 -45 -14 -21 -28
-39 -32 -39 -5 0 -8 -15 -8 -34 0 -19 -4 -38 -10 -41 -6 -4 -10 -54 -10 -116
0 -91 3 -111 16 -116 26 -10 34 16 34 115 0 71 3 92 14 92 16 0 73 -67 98
-115 24 -46 36 -51 48 -21 10 28 -10 89 -39 116 -32 30 -79 60 -95 60 -22 0
-20 14 9 60 24 37 38 45 75 41 23 -3 94 -80 119 -129 22 -44 30 -49 48 -31 26
26 -38 142 -90 162 -50 19 40 41 112 28 28 -6 53 -19 70 -37 24 -26 26 -35 25
-111 -1 -61 -7 -94 -23 -128 -24 -51 -71 -111 -104 -132 -26 -17 -80 -98 -98
-146 -23 -62 -25 -144 -5 -192 17 -40 30 -44 46 -15 8 16 8 33 -3 71 -8 27
-11 52 -6 55 5 3 9 18 9 34 0 43 31 91 109 172 38 39 74 82 80 95 26 55 31 71
41 132 8 47 8 77 0 115 -16 73 -27 91 -70 115 -32 18 -53 21 -136 20 -61 0
-112 -6 -134 -15z"/>
</g>
</svg>
