<svg version="1.0" xmlns="http://www.w3.org/2000/svg"
 width="101.000000pt" height="157.000000pt" viewBox="0 0 101.000000 157.000000"
 preserveAspectRatio="xMidYMid meet">
<metadata>
Created by potrace 1.15, written by Peter Selinger 2001-2017
</metadata>
<g transform="translate(0.000000,157.000000) scale(0.100000,-0.100000)"
fill="#000000" stroke="none">
<path d="M517 1433 c-2 -5 -5 -30 -6 -58 -3 -70 -16 -98 -54 -114 -181 -75
-247 -106 -278 -134 -80 -70 -110 -192 -107 -432 1 -82 -1 -223 -3 -312 -2
-89 0 -165 3 -169 14 -14 35 17 46 68 14 60 19 149 27 423 4 105 11 208 16
230 15 58 47 124 72 148 25 25 28 26 185 93 20 9 54 24 75 35 42 21 82 25 92
9 3 -5 20 -10 37 -10 63 0 159 -40 187 -78 12 -15 26 -33 32 -40 16 -20 38
-184 54 -422 9 -126 41 -380 51 -415 9 -26 37 -47 45 -33 7 11 2 119 -7 153
-3 11 -9 133 -14 270 -8 229 -14 284 -42 400 -5 22 -12 52 -15 66 -6 31 -34
64 -88 104 -48 36 -81 55 -95 55 -6 0 -30 9 -52 20 -23 11 -50 20 -60 20 -13
0 -19 11 -24 50 -4 28 -10 50 -15 50 -5 0 -9 7 -9 15 0 15 -45 22 -53 8z"/>
<path d="M405 973 c4 -21 12 -44 18 -51 11 -14 -4 -31 -28 -32 -12 -1 -65 -46
-65 -56 0 -3 32 -4 70 -2 63 3 70 2 70 -15 0 -27 -28 -63 -125 -162 -47 -48
-85 -91 -85 -96 0 -13 37 -11 63 3 12 6 50 39 85 72 35 34 69 62 76 64 17 4
84 -61 97 -95 17 -44 13 -112 -7 -134 -17 -19 -18 -19 -50 17 -27 29 -39 35
-65 32 -18 -2 -34 -8 -36 -13 -2 -6 13 -28 32 -49 57 -63 42 -89 -59 -104 -42
-6 -76 -28 -76 -50 0 -11 8 -13 33 -8 17 3 50 9 72 12 22 4 48 11 59 16 27 15
36 0 43 -78 9 -106 63 -201 110 -192 22 4 19 50 -6 88 -27 39 -39 79 -46 157
-6 70 -5 73 28 120 45 64 69 127 60 161 -6 26 -60 116 -85 144 -47 51 -44 94
6 83 113 -24 176 -13 176 31 0 27 -13 31 -110 37 -81 4 -129 27 -189 89 -57
60 -76 63 -66 11z"/>
</g>
</svg>
