<svg version="1.0" xmlns="http://www.w3.org/2000/svg"
 width="73.000000pt" height="123.000000pt" viewBox="0 0 73.000000 123.000000"
 preserveAspectRatio="xMidYMid meet">
<metadata>
Created by potrace 1.15, written by Peter Selinger 2001-2017
</metadata>
<g transform="translate(0.000000,123.000000) scale(0.100000,-0.100000)"
fill="#000000" stroke="none">
<path d="M383 1173 c-8 -3 -13 -24 -13 -54 0 -89 -18 -137 -74 -194 -73 -73
-142 -94 -176 -52 -10 12 -21 19 -25 15 -4 -4 -7 -56 -6 -115 1 -98 -6 -230
-25 -446 -5 -56 -4 -77 5 -77 12 0 26 30 43 90 10 36 23 171 34 362 7 107 7
107 45 113 33 6 77 28 165 85 19 12 24 11 40 -4 24 -24 60 -37 124 -45 51 -6
55 -8 53 -31 -1 -14 -2 -110 -3 -215 0 -222 20 -355 55 -355 15 0 12 74 -6
190 -6 36 -10 146 -9 245 3 220 5 205 -23 205 -36 0 -171 40 -179 53 -4 7 -6
26 -3 42 10 65 14 150 9 172 -6 23 -10 25 -31 16z"/>
<path d="M445 832 c-17 -12 -33 -48 -40 -88 -14 -83 -17 -94 -30 -94 -7 0 -23
32 -37 76 -14 41 -29 76 -34 77 -5 1 -10 -34 -12 -78 -3 -75 0 -85 34 -155 52
-106 82 -230 55 -230 -4 0 -29 23 -55 51 -32 35 -51 48 -58 41 -12 -12 30 -92
70 -135 27 -28 27 -28 2 -47 -15 -12 -41 -20 -67 -20 -47 0 -63 -14 -34 -29
24 -13 111 -15 111 -2 0 5 8 11 18 15 9 3 23 9 30 12 17 8 16 -43 -3 -97 -17
-46 -7 -73 17 -48 24 26 38 85 42 185 5 93 -10 199 -34 259 -15 36 -22 65 -14
65 4 0 17 -10 29 -22 24 -26 63 -58 69 -58 2 0 7 7 10 17 4 9 -3 31 -17 52
-37 58 -50 97 -43 138 20 129 20 136 -9 115z"/>
</g>
</svg>
