<svg version="1.0" xmlns="http://www.w3.org/2000/svg"
 width="69.000000pt" height="82.000000pt" viewBox="0 0 69.000000 82.000000"
 preserveAspectRatio="xMidYMid meet">
<metadata>
Created by potrace 1.15, written by Peter Selinger 2001-2017
</metadata>
<g transform="translate(0.000000,82.000000) scale(0.100000,-0.100000)"
fill="#000000" stroke="none">
<path d="M330 513 c-26 -6 -226 -334 -212 -347 14 -14 43 -4 59 22 29 46 42
52 127 52 45 1 101 5 126 10 49 10 42 14 106 -66 15 -20 25 -25 42 -20 31 10
28 26 -18 84 -22 27 -40 54 -40 60 0 5 -17 29 -38 53 -21 24 -53 65 -71 91
-33 50 -56 67 -81 61z m51 -105 c19 -24 36 -45 39 -48 11 -10 42 -62 38 -64
-9 -8 -218 -14 -223 -6 -3 4 6 21 19 37 13 15 31 44 41 63 21 42 35 60 45 60
5 0 23 -19 41 -42z"/>
<path d="M214 75 c-13 -33 6 -38 124 -32 63 3 119 10 124 15 24 24 -7 32 -123
32 -95 0 -121 -3 -125 -15z"/>
</g>
</svg>
