<svg version="1.0" xmlns="http://www.w3.org/2000/svg"
 width="45.000000pt" height="59.000000pt" viewBox="0 0 45.000000 59.000000"
 preserveAspectRatio="xMidYMid meet">
<metadata>
Created by potrace 1.15, written by Peter Selinger 2001-2017
</metadata>
<g transform="translate(0.000000,59.000000) scale(0.100000,-0.100000)"
fill="#000000" stroke="none">
<path d="M237 470 c-3 -8 -11 -33 -17 -55 -6 -22 -15 -49 -20 -60 -23 -57 -64
-154 -77 -182 -28 -61 -6 -57 30 5 20 35 37 67 37 73 0 10 21 12 44 3 12 -5
16 -20 16 -64 0 -57 -1 -59 -30 -65 -16 -4 -30 -10 -30 -15 0 -13 53 -19 74
-8 18 10 18 18 12 122 -8 127 -30 268 -39 246z m-1 -176 c-3 -8 -10 -14 -16
-14 -14 0 -13 27 2 53 13 22 13 22 16 -1 2 -13 1 -30 -2 -38z"/>
</g>
</svg>
