<svg version="1.0" xmlns="http://www.w3.org/2000/svg"
 width="77.000000pt" height="81.000000pt" viewBox="0 0 77.000000 81.000000"
 preserveAspectRatio="xMidYMid meet">
<metadata>
Created by potrace 1.15, written by Peter Selinger 2001-2017
</metadata>
<g transform="translate(0.000000,81.000000) scale(0.100000,-0.100000)"
fill="#000000" stroke="none">
<path d="M344 772 c-16 -10 -54 -74 -54 -91 0 -13 -64 -186 -90 -246 -5 -11
-15 -38 -22 -60 -7 -22 -15 -42 -18 -45 -3 -3 -15 -25 -26 -50 -12 -25 -33
-71 -48 -103 -29 -60 -29 -100 -1 -111 11 -4 25 15 51 72 20 42 45 89 55 104
11 14 19 33 19 42 0 9 9 26 20 38 11 12 20 28 20 35 0 17 180 18 244 2 37 -9
47 -17 66 -55 12 -25 20 -47 17 -50 -2 -2 -35 -7 -73 -9 -81 -6 -114 -13 -114
-23 1 -26 23 -33 119 -39 75 -4 107 -11 121 -23 11 -10 20 -22 20 -27 0 -5 6
-21 13 -36 12 -28 70 -63 75 -47 2 5 -19 56 -46 112 -27 57 -66 139 -87 182
-20 44 -43 85 -50 93 -8 7 -17 23 -20 36 -17 59 -70 162 -124 245 -42 63 -47
67 -67 54z m75 -197 c70 -150 70 -149 -28 -142 -44 3 -84 8 -90 11 -9 6 1 35
56 166 14 35 14 35 33 10 11 -14 23 -34 29 -45z"/>
</g>
</svg>
