<svg version="1.0" xmlns="http://www.w3.org/2000/svg"
 width="49.000000pt" height="71.000000pt" viewBox="0 0 49.000000 71.000000"
 preserveAspectRatio="xMidYMid meet">
<metadata>
Created by potrace 1.15, written by Peter Selinger 2001-2017
</metadata>
<g transform="translate(0.000000,71.000000) scale(0.100000,-0.100000)"
fill="#000000" stroke="none">
<path d="M208 403 c-24 -36 -40 -68 -69 -140 -8 -18 -17 -33 -21 -33 -5 0 -8
-7 -8 -15 0 -9 -9 -34 -21 -56 -37 -74 -16 -79 30 -6 30 47 48 66 58 63 8 -3
43 -6 79 -6 63 0 63 0 97 -53 19 -30 38 -63 42 -75 3 -12 11 -19 17 -16 13 9
3 59 -20 92 -10 15 -24 45 -30 67 -14 49 -89 197 -105 207 -19 12 -23 10 -49
-29z m42 -56 c0 -7 9 -23 20 -37 11 -14 20 -33 20 -43 0 -15 -7 -17 -46 -13
-25 3 -49 7 -52 10 -8 9 40 106 50 100 4 -3 8 -11 8 -17z"/>
<path d="M190 151 c-24 -7 -23 -8 15 -19 22 -7 50 -12 62 -12 21 0 40 16 30
27 -10 9 -82 12 -107 4z"/>
</g>
</svg>
