<svg version="1.0" xmlns="http://www.w3.org/2000/svg"
 width="55.000000pt" height="71.000000pt" viewBox="0 0 55.000000 71.000000"
 preserveAspectRatio="xMidYMid meet">
<metadata>
Created by potrace 1.15, written by Peter Selinger 2001-2017
</metadata>
<g transform="translate(0.000000,71.000000) scale(0.100000,-0.100000)"
fill="#000000" stroke="none">
<path d="M335 530 c7 -21 -11 -56 -48 -95 -10 -11 -32 -39 -48 -62 -17 -24
-33 -43 -37 -43 -5 0 -21 -20 -37 -46 -16 -25 -37 -54 -47 -66 -17 -19 -16
-38 1 -38 4 0 18 9 31 20 28 24 21 24 78 -2 26 -12 75 -24 110 -26 58 -4 64
-3 60 14 -5 29 -75 59 -135 59 -29 0 -53 4 -53 8 0 4 13 22 28 38 27 29 31 30
68 20 21 -6 51 -11 65 -11 28 0 59 -27 59 -52 0 -25 38 -108 50 -108 6 0 10
26 10 63 0 52 -7 80 -41 158 -22 52 -45 98 -50 104 -5 5 -9 16 -9 25 0 16 -39
60 -54 60 -4 0 -4 -9 -1 -20z m35 -118 c0 -10 5 -23 11 -29 18 -18 1 -34 -29
-27 -42 10 -44 14 -22 45 24 33 40 37 40 11z"/>
</g>
</svg>
