<svg version="1.0" xmlns="http://www.w3.org/2000/svg"
 width="47.000000pt" height="75.000000pt" viewBox="0 0 47.000000 75.000000"
 preserveAspectRatio="xMidYMid meet">
<metadata>
Created by potrace 1.15, written by Peter Selinger 2001-2017
</metadata>
<g transform="translate(0.000000,75.000000) scale(0.100000,-0.100000)"
fill="#000000" stroke="none">
<path d="M222 435 c-17 -28 -36 -55 -42 -62 -5 -7 -10 -19 -10 -27 0 -8 -3
-16 -7 -18 -13 -5 -51 -90 -63 -138 -7 -25 -16 -61 -22 -81 -18 -63 -3 -66 25
-5 15 32 27 65 27 72 0 8 5 14 10 14 6 0 10 7 10 15 0 8 5 26 12 40 11 25 14
26 87 23 76 -3 76 -3 98 -43 12 -22 22 -48 22 -57 2 -33 21 -19 21 15 -1 51
-16 103 -36 125 -11 12 -25 41 -32 65 -8 25 -26 60 -41 78 -29 34 -29 34 -59
-16z m53 -61 c24 -58 21 -64 -35 -64 -50 0 -50 0 -35 25 8 14 22 36 30 50 9
14 18 25 20 25 3 0 12 -16 20 -36z"/>
<path d="M203 213 c-18 -2 -33 -8 -33 -12 0 -14 24 -31 44 -31 30 0 126 24
126 31 0 3 -17 9 -37 13 -39 6 -43 6 -100 -1z"/>
</g>
</svg>
