<svg version="1.0" xmlns="http://www.w3.org/2000/svg"
 width="73.000000pt" height="133.000000pt" viewBox="0 0 73.000000 133.000000"
 preserveAspectRatio="xMidYMid meet">
<metadata>
Created by potrace 1.15, written by Peter Selinger 2001-2017
</metadata>
<g transform="translate(0.000000,133.000000) scale(0.100000,-0.100000)"
fill="#000000" stroke="none">
<path d="M603 1153 c-10 -3 -13 -40 -13 -136 0 -116 -3 -136 -21 -166 -32 -52
-42 -59 -99 -62 -54 -4 -54 -4 -56 121 -1 69 4 140 9 158 12 36 1 67 -24 67
-25 0 -42 -77 -48 -215 -6 -135 -6 -135 -81 -131 -80 3 -120 24 -120 62 0 10
-4 21 -10 24 -5 3 -10 16 -10 29 0 12 -5 27 -11 33 -13 13 -20 49 -24 132 -5
86 -19 97 -45 37 -16 -37 -20 -69 -20 -147 0 -55 5 -110 11 -121 14 -26 55
-68 66 -68 5 0 26 -9 48 -20 22 -11 48 -20 60 -20 11 -1 45 -9 75 -19 54 -19
54 -19 55 -233 0 -153 4 -226 14 -259 14 -44 13 -48 -8 -78 -23 -32 -23 -32
-97 -25 -53 5 -78 3 -89 -6 -39 -32 12 -100 76 -100 21 0 41 5 44 10 4 7 47 9
118 6 76 -3 132 0 172 10 33 7 71 16 85 19 30 6 57 22 49 29 -9 10 -142 26
-211 26 -65 0 -68 1 -75 28 -8 32 -8 85 1 127 10 52 7 340 -5 374 -15 43 4 91
36 91 29 0 107 33 122 51 6 8 20 31 32 52 19 33 21 54 21 182 0 80 -3 145 -7
144 -5 0 -14 -3 -20 -6z"/>
</g>
</svg>
