<svg version="1.0" xmlns="http://www.w3.org/2000/svg"
 width="63.000000pt" height="91.000000pt" viewBox="0 0 63.000000 91.000000"
 preserveAspectRatio="xMidYMid meet">
<metadata>
Created by potrace 1.15, written by Peter Selinger 2001-2017
</metadata>
<g transform="translate(0.000000,91.000000) scale(0.100000,-0.100000)"
fill="#000000" stroke="none">
<path d="M234 789 c-3 -6 -2 -14 3 -18 10 -7 37 -210 29 -219 -9 -8 -45 38
-66 83 -11 22 -34 56 -52 76 -35 38 -78 60 -78 39 0 -18 67 -156 83 -172 28
-27 117 -172 117 -189 0 -10 4 -20 9 -23 4 -3 11 -36 15 -73 4 -37 9 -85 13
-105 6 -38 6 -38 -39 -38 -25 0 -48 -3 -52 -7 -4 -4 -25 -7 -48 -8 -47 0 -58
-14 -26 -34 28 -17 303 -17 324 0 7 6 17 8 22 5 13 -8 35 21 27 34 -4 7 -29
11 -59 9 -112 -5 -103 -18 -104 138 -1 151 -3 142 72 228 46 51 76 121 69 158
-6 29 -18 46 -34 47 -4 0 -12 -15 -20 -32 -7 -18 -15 -35 -18 -38 -12 -11 -31
-50 -31 -65 0 -8 -4 -15 -10 -15 -5 0 -10 -8 -10 -18 0 -19 -18 -42 -32 -42
-4 0 -8 50 -8 110 0 111 0 111 -35 145 -36 37 -49 42 -61 24z"/>
</g>
</svg>
