<svg version="1.0" xmlns="http://www.w3.org/2000/svg"
 width="65.000000pt" height="82.000000pt" viewBox="0 0 65.000000 82.000000"
 preserveAspectRatio="xMidYMid meet">
<metadata>
Created by potrace 1.15, written by Peter Selinger 2001-2017
</metadata>
<g transform="translate(0.000000,82.000000) scale(0.100000,-0.100000)"
fill="#000000" stroke="none">
<path d="M214 648 c-5 -7 7 -24 28 -43 42 -36 73 -117 65 -167 -18 -105 -21
-109 -72 -89 -18 7 -20 16 -17 73 3 58 1 68 -23 96 -16 20 -36 32 -51 32 -31
0 -31 -23 1 -44 23 -15 25 -22 22 -79 -3 -79 16 -112 73 -127 37 -10 40 -14
40 -44 0 -39 -14 -46 -97 -46 -90 0 -61 -37 32 -42 60 -3 60 -3 63 -41 3 -33
0 -38 -25 -48 -15 -5 -56 -13 -90 -16 -65 -6 -74 -12 -48 -33 12 -10 42 -10
143 -1 70 6 143 13 162 14 23 1 35 7 35 17 0 12 -15 16 -67 18 -72 3 -73 4
-62 60 5 26 13 32 56 44 27 7 50 18 51 23 1 6 -24 11 -55 13 -58 3 -58 3 -58
40 0 36 2 39 58 65 61 27 112 83 112 123 1 38 -45 194 -57 194 -22 0 -24 -20
-7 -87 24 -95 21 -120 -17 -159 -42 -43 -74 -46 -65 -6 33 134 6 204 -101 260
-17 9 -24 9 -29 0z"/>
</g>
</svg>
