<svg version="1.0" xmlns="http://www.w3.org/2000/svg"
 width="72.000000pt" height="79.000000pt" viewBox="0 0 72.000000 79.000000"
 preserveAspectRatio="xMidYMid meet">
<metadata>
Created by potrace 1.15, written by Peter Selinger 2001-2017
</metadata>
<g transform="translate(0.000000,79.000000) scale(0.100000,-0.100000)"
fill="#000000" stroke="none">
<path d="M216 614 c-3 -26 -6 -80 -6 -120 0 -40 -4 -75 -9 -78 -20 -13 -40 8
-60 64 -31 86 -77 114 -53 33 6 -21 14 -55 17 -75 7 -48 27 -66 76 -74 37 -6
39 -8 39 -44 0 -37 0 -37 -50 -46 -28 -5 -51 -13 -51 -19 0 -5 20 -14 45 -19
46 -8 46 -8 46 -51 0 -43 0 -43 -55 -51 -57 -9 -70 -21 -42 -38 10 -7 52 -6
124 3 123 15 133 18 133 37 0 10 -14 13 -52 11 -53 -2 -53 -2 -53 43 0 44 0
44 43 53 48 9 57 27 13 27 -50 0 -61 9 -61 51 0 24 5 39 13 39 6 1 24 11 39
23 34 28 96 183 79 200 -16 16 -26 2 -50 -68 -12 -34 -33 -70 -48 -84 -28 -24
-28 -24 -33 90 -5 109 -11 139 -29 139 -5 0 -11 -21 -15 -46z"/>
<path d="M472 455 c-54 -23 -30 -39 49 -32 38 3 71 2 73 -2 6 -10 -73 -116
-86 -116 -6 0 -18 20 -28 45 -16 41 -43 71 -54 59 -3 -2 6 -36 21 -74 19 -54
26 -96 31 -182 4 -101 7 -113 23 -113 21 0 25 14 33 114 3 38 10 74 16 80 5 5
10 21 10 34 0 31 14 57 66 119 24 28 44 57 44 65 0 20 -154 22 -198 3z"/>
</g>
</svg>
