<svg version="1.0" xmlns="http://www.w3.org/2000/svg"
 width="75.000000pt" height="110.000000pt" viewBox="0 0 75.000000 110.000000"
 preserveAspectRatio="xMidYMid meet">
<metadata>
Created by potrace 1.15, written by Peter Selinger 2001-2017
</metadata>
<g transform="translate(0.000000,110.000000) scale(0.100000,-0.100000)"
fill="#000000" stroke="none">
<path d="M93 978 c-21 -10 -23 -18 -23 -100 0 -52 4 -88 10 -88 6 0 10 -7 10
-15 0 -9 12 -18 29 -21 33 -7 31 31 14 -327 -5 -113 -3 -137 8 -137 10 0 10
-3 3 -8 -7 -4 -13 -16 -15 -27 -3 -14 -12 -20 -33 -20 -28 0 -28 0 -27 160 1
88 7 184 13 213 8 40 8 59 -1 79 -11 25 -13 25 -29 9 -13 -13 -19 -44 -25
-139 -15 -252 -16 -292 -4 -319 13 -31 51 -50 103 -53 19 -1 38 -5 41 -9 3 -3
32 -6 64 -6 41 0 58 4 63 15 9 26 -23 47 -68 43 -41 -3 -41 -3 -42 58 -1 61
-1 61 42 72 35 9 43 17 47 39 10 51 2 282 -10 294 -19 19 -25 -8 -30 -144 -5
-152 -6 -156 -30 -153 -16 3 -18 16 -20 132 -1 71 0 151 4 177 5 43 9 49 34
54 28 5 50 40 50 79 1 129 -15 154 -100 153 -31 0 -66 -5 -78 -11z m123 -45
c7 -10 14 -40 14 -67 0 -59 -17 -75 -77 -76 -36 0 -43 3 -43 19 0 11 -5 21
-11 23 -9 3 -9 9 0 25 6 12 11 33 11 46 0 41 80 64 106 30z"/>
<path d="M443 934 c-52 -55 -52 -55 -18 -90 19 -19 39 -34 44 -34 16 0 21 -29
21 -119 0 -54 -5 -92 -12 -99 -17 -17 -63 -15 -78 3 -9 10 -9 15 -1 15 6 0 11
7 11 15 0 20 20 55 44 77 24 23 16 40 -37 77 -44 30 -44 30 -76 -4 -40 -44
-39 -70 4 -124 26 -32 33 -50 29 -67 -4 -15 -2 -24 5 -24 7 0 5 -10 -5 -26
-13 -19 -18 -53 -21 -127 -5 -168 -11 -239 -21 -296 -9 -52 -6 -91 7 -91 25 1
34 31 45 150 2 25 7 80 11 122 4 43 12 78 19 80 6 2 52 2 102 0 90 -3 90 -3
103 -105 21 -173 33 -236 48 -241 8 -3 16 1 20 10 6 16 -1 103 -12 144 -7 26
-9 384 -2 410 10 40 40 97 60 113 22 17 22 17 -3 37 -68 52 -79 60 -87 60 -6
0 -28 -18 -51 -41 -46 -45 -45 -54 11 -109 15 -15 27 -32 27 -39 0 -16 -49
-33 -76 -27 -28 7 -35 35 -28 121 6 68 7 71 55 116 27 25 49 53 49 61 0 14
-30 48 -42 48 -3 0 -20 14 -38 30 -18 17 -37 30 -44 30 -6 0 -35 -25 -63 -56z
m106 -28 c22 -23 22 -25 6 -50 -10 -14 -22 -26 -27 -26 -8 0 -36 17 -76 46 -2
1 4 14 13 28 22 33 55 33 84 2z m-139 -171 c13 -14 19 -25 13 -25 -6 0 -13 -9
-16 -20 -7 -27 -20 -25 -53 5 -27 25 -27 25 -4 45 29 25 32 25 60 -5z m246 1
c16 -17 19 -52 4 -61 -6 -3 -23 3 -40 15 -26 18 -28 24 -17 41 14 23 33 24 53
5z m-43 -213 c7 -38 -1 -96 -16 -105 -7 -4 -51 -8 -98 -8 -94 0 -99 3 -99 58
1 74 8 78 131 81 76 1 77 1 82 -26z"/>
</g>
</svg>
