<svg version="1.0" xmlns="http://www.w3.org/2000/svg"
 width="57.000000pt" height="91.000000pt" viewBox="0 0 57.000000 91.000000"
 preserveAspectRatio="xMidYMid meet">
<metadata>
Created by potrace 1.15, written by Peter Selinger 2001-2017
</metadata>
<g transform="translate(0.000000,91.000000) scale(0.100000,-0.100000)"
fill="#000000" stroke="none">
<path d="M260 825 c-8 -25 -10 -80 -5 -183 4 -81 9 -150 12 -154 9 -16 -34 -7
-72 15 -22 13 -48 26 -58 30 -32 12 0 -32 48 -65 44 -31 44 -31 22 -50 -80
-67 -93 -88 -57 -88 11 0 20 3 20 8 0 4 18 18 40 32 22 14 40 28 40 32 0 5 9
8 20 8 11 0 20 -4 20 -10 0 -10 13 -28 71 -93 25 -28 41 -38 52 -34 26 10 20
31 -18 66 -43 38 -45 56 -7 47 87 -20 94 -20 91 0 -3 14 -24 25 -76 42 -40 13
-73 28 -73 33 0 4 17 23 37 41 78 70 90 88 58 88 -8 0 -15 -4 -15 -9 0 -5 -9
-13 -20 -16 -11 -3 -27 -13 -35 -21 -8 -9 -19 -13 -23 -10 -5 3 -12 58 -16
123 -7 120 -22 203 -36 203 -5 0 -14 -16 -20 -35z"/>
<path d="M360 695 c0 -28 4 -35 20 -35 10 0 25 10 31 22 10 18 8 24 -7 35 -31
22 -44 16 -44 -22z"/>
<path d="M134 675 c-4 -8 -3 -27 0 -41 5 -19 12 -25 29 -22 29 4 35 44 10 63
-23 18 -32 18 -39 0z"/>
<path d="M445 520 c-11 -18 6 -30 44 -30 37 0 68 19 54 33 -10 11 -91 8 -98
-3z"/>
<path d="M35 420 c-23 -24 -26 -32 -15 -44 11 -14 15 -14 33 -1 12 8 29 15 38
15 9 0 24 9 33 19 44 48 -43 59 -89 11z"/>
<path d="M492 258 c-8 -31 -12 -34 -64 -42 -67 -11 -85 -5 -99 31 -12 28 -12
28 -20 -1 -11 -39 0 -135 18 -163 21 -31 69 -53 118 -53 53 0 68 13 90 82 23
69 13 170 -17 176 -12 2 -20 -6 -26 -30z m3 -89 c22 -34 -45 -107 -86 -94 -20
7 -59 60 -59 82 0 18 135 30 145 12z"/>
</g>
</svg>
