<svg version="1.0" xmlns="http://www.w3.org/2000/svg"
 width="73.000000pt" height="109.000000pt" viewBox="0 0 73.000000 109.000000"
 preserveAspectRatio="xMidYMid meet">
<metadata>
Created by potrace 1.15, written by Peter Selinger 2001-2017
</metadata>
<g transform="translate(0.000000,109.000000) scale(0.100000,-0.100000)"
fill="#000000" stroke="none">
<path d="M325 1018 c-3 -18 -6 -68 -6 -112 0 -79 0 -79 -67 -73 -79 7 -113 14
-121 24 -3 5 -18 27 -34 51 -15 23 -32 42 -37 42 -19 0 -10 -76 13 -111 31
-46 55 -56 158 -64 81 -7 89 -9 91 -29 2 -30 -3 -130 -7 -134 -2 -2 -29 -6
-61 -8 -32 -3 -60 -7 -63 -9 -11 -12 15 -20 72 -25 62 -5 62 -5 65 -48 4 -47
19 -60 51 -42 16 8 21 20 21 54 0 43 0 43 80 61 45 10 83 22 86 27 3 5 10 6
15 2 12 -7 57 21 86 54 29 34 43 90 47 192 3 47 7 99 11 116 6 26 3 33 -19 47
-53 35 -56 29 -56 -112 0 -208 -26 -239 -236 -288 -20 -5 -21 -2 -17 44 9 101
12 113 36 113 28 1 89 31 94 47 3 8 -7 9 -38 2 -69 -16 -82 -10 -84 36 -1 22
-4 47 -7 55 -3 8 -11 33 -18 55 -22 71 -43 84 -55 33z"/>
<path d="M464 1016 c-7 -17 20 -66 36 -66 5 0 13 8 18 18 7 13 3 22 -19 40
-25 20 -30 21 -35 8z"/>
<path d="M165 980 c-8 -13 42 -63 55 -55 16 10 12 37 -7 51 -22 16 -40 18 -48
4z"/>
<path d="M477 281 c-8 -37 -38 -47 -143 -50 -77 -2 -81 -1 -92 23 -13 29 -27
33 -36 11 -9 -23 4 -141 19 -178 20 -48 78 -77 153 -77 77 0 104 12 131 60 29
51 33 175 8 214 -22 34 -33 33 -40 -3z m-10 -107 c3 -8 1 -33 -6 -54 -13 -43
-34 -55 -91 -51 -53 3 -80 25 -80 66 0 31 3 35 33 39 116 19 136 19 144 0z"/>
</g>
</svg>
