<svg version="1.0" xmlns="http://www.w3.org/2000/svg"
 width="65.000000pt" height="109.000000pt" viewBox="0 0 65.000000 109.000000"
 preserveAspectRatio="xMidYMid meet">
<metadata>
Created by potrace 1.15, written by Peter Selinger 2001-2017
</metadata>
<g transform="translate(0.000000,109.000000) scale(0.100000,-0.100000)"
fill="#000000" stroke="none">
<path d="M348 952 c-2 -41 -5 -128 -7 -211 -1 -73 -1 -73 -33 -67 -62 12 -75
29 -90 113 -10 58 -18 79 -31 81 -14 3 -17 -5 -17 -45 0 -79 44 -173 80 -173
8 0 32 -5 53 -11 38 -10 38 -10 33 -156 -5 -154 -2 -173 20 -173 15 0 16 12
19 205 2 124 -1 117 48 115 99 -6 139 -1 135 16 -2 13 -18 17 -88 18 -85 1
-85 1 -82 129 4 140 0 172 -23 181 -11 4 -15 -2 -17 -22z"/>
<path d="M269 955 c-1 -5 0 -44 1 -85 2 -77 11 -103 31 -83 14 14 2 136 -17
160 -7 10 -14 14 -15 8z"/>
<path d="M449 923 c0 -16 -2 -41 -4 -58 -3 -37 4 -75 15 -75 16 0 34 108 24
143 -8 28 -34 20 -35 -10z"/>
<path d="M206 532 c-8 -15 -46 -61 -85 -101 -39 -40 -69 -77 -66 -82 9 -14 35
4 95 68 81 85 111 124 104 134 -11 18 -34 9 -48 -19z"/>
<path d="M430 541 c0 -28 141 -141 178 -141 25 0 10 20 -50 67 -35 26 -69 55
-76 65 -13 18 -52 25 -52 9z"/>
<path d="M430 394 c-6 -22 -14 -63 -17 -91 -7 -60 -19 -69 -82 -58 -36 6 -39
9 -44 49 -7 51 -23 96 -34 96 -5 0 -7 -64 -5 -142 4 -194 17 -217 115 -218 85
0 89 7 88 143 0 62 5 138 11 170 9 50 9 61 -5 74 -14 14 -16 12 -27 -23z m-15
-226 c3 -24 2 -56 -3 -73 -7 -25 -14 -30 -43 -33 -53 -5 -79 23 -79 85 0 27 3
53 7 56 3 4 30 7 59 7 53 0 53 0 59 -42z"/>
</g>
</svg>
