<svg version="1.0" xmlns="http://www.w3.org/2000/svg"
 width="75.000000pt" height="99.000000pt" viewBox="0 0 75.000000 99.000000"
 preserveAspectRatio="xMidYMid meet">
<metadata>
Created by potrace 1.15, written by Peter Selinger 2001-2017
</metadata>
<g transform="translate(0.000000,99.000000) scale(0.100000,-0.100000)"
fill="#000000" stroke="none">
<path d="M386 868 c-4 -13 -9 -80 -13 -149 -6 -127 -6 -127 -52 -136 -64 -13
-71 -9 -71 43 0 45 -32 124 -50 124 -6 0 -10 -2 -10 -4 0 -3 -5 -38 -10 -80
-16 -112 10 -197 81 -265 36 -36 37 -39 21 -53 -9 -8 -34 -22 -54 -32 -41 -18
-51 -46 -17 -46 38 0 114 23 143 43 23 16 30 17 37 6 10 -14 5 -76 -6 -87 -3
-3 -19 -1 -36 5 -27 11 -31 9 -38 -11 -5 -12 -16 -28 -25 -35 -23 -19 -20 -62
7 -92 32 -37 100 -69 148 -69 35 0 46 6 75 37 18 21 34 46 34 55 0 9 5 18 12
20 7 3 -20 20 -60 39 -72 34 -72 34 -66 69 4 19 8 37 10 39 2 2 31 -2 64 -7
47 -9 66 -8 81 1 41 26 10 50 -96 76 -27 7 -50 13 -51 14 -1 1 -5 45 -8 97 -6
95 -6 95 86 140 86 42 208 131 208 151 0 16 -58 10 -72 -8 -7 -10 -25 -24 -40
-32 -16 -8 -28 -18 -28 -23 0 -4 -4 -8 -10 -8 -5 0 -32 -13 -60 -30 -28 -16
-61 -32 -74 -36 -24 -6 -24 -6 -21 108 3 109 -4 158 -24 158 -5 0 -12 -10 -15
-22z m4 -398 c0 -44 -4 -80 -8 -80 -26 0 -71 35 -91 70 -19 34 -21 43 -10 57
17 20 47 32 82 32 27 1 27 1 27 -79z m0 -308 c0 -4 20 -14 45 -21 61 -18 58
-44 -4 -52 -39 -5 -48 -2 -75 21 -26 24 -28 30 -17 44 14 16 51 22 51 8z"/>
<path d="M515 808 c-31 -96 -22 -134 21 -85 28 32 31 59 8 81 -19 19 -23 20
-29 4z"/>
<path d="M300 721 c-9 -22 -9 -38 1 -70 15 -50 29 -48 48 6 13 37 13 44 -2 67
-22 33 -32 33 -47 -3z"/>
<path d="M146 607 c3 -10 9 -15 12 -12 3 3 0 11 -7 18 -10 9 -11 8 -5 -6z"/>
<path d="M574 494 c-5 -29 -2 -40 17 -60 13 -14 34 -24 51 -24 25 0 28 3 28
33 -1 35 -13 55 -48 75 -33 19 -41 15 -48 -24z"/>
<path d="M66 409 c-42 -33 -33 -41 47 -38 80 3 97 7 97 21 0 41 -99 53 -144
17z"/>
</g>
</svg>
