<svg version="1.0" xmlns="http://www.w3.org/2000/svg"
 width="69.000000pt" height="107.000000pt" viewBox="0 0 69.000000 107.000000"
 preserveAspectRatio="xMidYMid meet">
<metadata>
Created by potrace 1.15, written by Peter Selinger 2001-2017
</metadata>
<g transform="translate(0.000000,107.000000) scale(0.100000,-0.100000)"
fill="#000000" stroke="none">
<path d="M217 1003 c-10 -10 -8 -75 3 -135 12 -61 71 -248 83 -263 4 -5 23
-35 42 -65 38 -62 33 -68 -36 -50 -61 17 -113 72 -149 160 -44 106 -70 131
-70 66 0 -41 14 -87 47 -149 19 -37 23 -57 19 -83 -4 -19 -11 -34 -15 -34 -5
0 -14 -13 -21 -30 -7 -16 -16 -30 -21 -30 -5 0 -9 -9 -9 -19 0 -11 -4 -21 -9
-23 -14 -4 -18 -60 -5 -65 11 -4 54 29 54 42 0 10 92 145 99 145 3 0 14 -7 25
-15 16 -12 18 -21 11 -62 -15 -91 -8 -251 14 -291 6 -11 11 -26 11 -33 0 -35
98 -78 145 -62 57 19 95 139 95 301 0 82 -3 101 -16 106 -39 15 -44 8 -44 -64
0 -70 0 -70 -79 -70 -44 0 -82 4 -85 8 -7 11 19 109 33 126 7 9 50 15 123 19
166 9 218 30 172 68 -12 10 -25 10 -62 1 -26 -7 -63 -14 -84 -16 -40 -5 -58 9
-96 76 -19 34 -20 39 -6 67 9 17 21 34 28 38 38 24 70 103 87 216 12 83 5 107
-32 107 -14 0 -19 -7 -19 -30 0 -31 -19 -107 -45 -181 -15 -44 -47 -89 -63
-89 -12 0 -63 166 -68 223 -8 77 -32 115 -57 90z m247 -782 c9 -14 -14 -123
-29 -137 -7 -8 -29 -14 -48 -14 -41 0 -57 27 -57 100 0 42 3 49 23 53 42 8
106 7 111 -2z"/>
</g>
</svg>
