<svg version="1.0" xmlns="http://www.w3.org/2000/svg"
 width="87.000000pt" height="125.000000pt" viewBox="0 0 87.000000 125.000000"
 preserveAspectRatio="xMidYMid meet">
<metadata>
Created by potrace 1.15, written by Peter Selinger 2001-2017
</metadata>
<g transform="translate(0.000000,125.000000) scale(0.100000,-0.100000)"
fill="#000000" stroke="none">
<path d="M591 1188 c-26 -9 -27 -26 -2 -47 10 -9 24 -40 31 -68 12 -47 12 -57
-3 -88 -16 -34 -19 -35 -70 -35 -53 0 -53 0 -53 48 0 54 -25 99 -62 113 -35
13 -42 4 -42 -55 0 -30 -7 -70 -15 -90 -14 -34 -18 -36 -59 -36 -43 0 -44 1
-61 48 -9 26 -19 59 -22 74 -12 60 -82 90 -161 69 -56 -15 -53 -31 4 -31 84 0
98 -65 39 -179 -20 -38 -35 -82 -35 -101 0 -50 35 -93 97 -120 45 -19 53 -27
53 -49 0 -18 -12 -36 -37 -56 -51 -42 -93 -84 -93 -93 0 -11 69 -2 76 9 3 5
21 9 40 9 31 0 34 -3 34 -29 0 -15 5 -43 11 -60 10 -27 15 -31 33 -26 48 15
66 17 66 6 0 -5 -6 -8 -14 -5 -55 21 -124 -224 -84 -299 18 -34 60 -66 96 -73
46 -9 118 1 135 18 63 62 80 202 37 291 -13 27 -29 51 -36 54 -14 5 -37 -13
-47 -37 -4 -13 -6 -12 -6 1 -1 9 8 26 19 39 16 18 27 22 54 17 36 -6 36 -5 66
68 10 26 9 31 -10 47 -17 14 -26 15 -36 7 -7 -5 -27 -9 -45 -7 -33 3 -33 3 12
45 24 24 49 43 55 43 6 0 17 -13 24 -29 6 -16 19 -32 28 -35 9 -3 37 -17 62
-31 45 -24 90 -33 90 -16 0 5 -10 16 -22 24 -78 52 -135 138 -123 184 10 40
104 52 206 28 39 -10 47 21 14 51 -14 13 -30 24 -35 24 -4 0 -10 4 -12 10 -2
5 -41 14 -88 19 -85 10 -85 10 5 7 50 -2 98 -7 108 -11 15 -6 17 -1 17 34 0
38 -3 43 -30 52 -26 10 -28 13 -18 32 6 12 14 29 18 37 4 8 21 16 39 18 36 4
39 19 10 51 -18 19 -29 22 -59 18 -33 -4 -39 -2 -49 20 -6 13 -11 30 -11 38 0
34 -93 70 -139 53z m99 -64 c6 -14 10 -45 10 -70 0 -49 11 -55 50 -24 14 11
34 20 45 20 16 0 13 -4 -12 -20 -17 -10 -37 -28 -43 -39 -6 -13 -21 -21 -35
-21 -23 0 -24 -3 -21 -39 4 -39 4 -39 -93 -45 -292 -20 -305 -19 -331 2 -14
11 -22 23 -19 27 4 3 14 -1 22 -10 42 -42 168 14 151 68 -3 10 -3 39 1 64 5
38 9 42 21 32 12 -10 14 -26 9 -74 -6 -50 -4 -65 10 -78 9 -10 20 -15 24 -13
4 3 36 6 71 7 40 2 70 8 82 18 27 23 44 112 30 160 -16 51 -15 61 3 61 9 0 20
-12 25 -26z m-489 -141 c-9 -15 -10 -12 -10 17 0 29 1 32 10 18 7 -12 7 -24 0
-35z m-9 -200 c13 -13 34 -16 89 -15 39 0 69 -1 67 -4 -9 -8 -119 -34 -147
-34 -32 0 -77 31 -86 60 -4 11 3 33 17 54 23 35 23 35 33 -4 6 -22 18 -47 27
-57z m144 47 c95 -1 82 -16 -22 -26 -59 -5 -72 -4 -91 12 -17 14 -21 25 -17
42 7 24 7 24 29 -2 20 -24 29 -26 101 -26z m267 13 c-7 -2 -21 -2 -30 0 -10 3
-4 5 12 5 17 0 24 -2 18 -5z m66 -53 c-26 -3 -53 -11 -61 -17 -11 -9 -16 -8
-26 7 -14 23 -2 27 77 21 56 -5 56 -5 10 -11z m-128 -47 c17 -17 -2 -20 -86
-13 -76 6 -85 16 -20 22 53 5 95 2 106 -9z m-126 -63 c-16 -4 -44 -8 -62 -9
-26 -1 -35 -7 -48 -36 -19 -38 -65 -88 -74 -80 -3 4 -1 9 5 13 19 12 34 50 34
84 0 33 0 33 88 34 54 0 76 -2 57 -6z m112 -7 c5 -12 -8 -30 -45 -63 -45 -40
-52 -52 -52 -83 0 -39 15 -48 70 -44 16 1 26 -4 28 -15 3 -15 -4 -18 -45 -18
-27 0 -54 -5 -61 -12 -8 -8 -15 -8 -27 2 -10 8 -29 10 -56 6 -35 -6 -40 -4
-35 10 3 8 6 20 6 25 0 5 21 9 48 9 47 0 47 0 48 41 0 36 5 46 37 71 38 31 46
55 25 76 -9 9 -5 12 20 12 21 0 35 -6 39 -17z m63 -18 c0 -8 -2 -15 -4 -15 -2
0 -6 7 -10 15 -3 8 -1 15 4 15 6 0 10 -7 10 -15z m-204 -51 c-14 -15 -26 -37
-26 -50 0 -21 -5 -24 -40 -24 -41 0 -41 0 -5 35 19 20 35 40 35 45 0 5 8 11
18 13 39 11 44 6 18 -19z m219 16 c3 -5 1 -10 -4 -10 -6 0 -11 5 -11 10 0 6 2
10 4 10 3 0 8 -4 11 -10z m-199 -247 c-11 -11 -17 4 -9 23 7 18 8 18 11 1 2
-10 1 -21 -2 -24z m-85 -70 c-10 -17 -10 -16 -11 3 0 23 13 41 18 25 2 -6 -1
-18 -7 -28z m49 -19 c0 -19 -4 -34 -10 -34 -5 0 -10 18 -10 41 0 24 4 38 10
34 6 -3 10 -22 10 -41z m74 4 c6 -31 4 -38 -9 -38 -17 0 -18 4 -9 49 8 38 9
37 18 -11z m63 15 c14 -56 7 -136 -18 -183 -22 -42 -27 -45 -68 -48 -55 -4
-81 2 -109 26 -19 16 -22 29 -21 83 0 72 17 131 18 67 1 -42 1 -42 80 -38 73
3 94 16 86 56 -10 57 18 89 32 37z"/>
<path d="M310 162 c0 -46 64 -92 109 -77 23 7 45 39 55 78 6 27 6 27 -79 27
-85 0 -85 0 -85 -28z m97 -28 c-3 -3 -12 -4 -19 -1 -8 3 -5 6 6 6 11 1 17 -2
13 -5z"/>
</g>
</svg>
