<svg version="1.0" xmlns="http://www.w3.org/2000/svg"
 width="95.000000pt" height="133.000000pt" viewBox="0 0 95.000000 133.000000"
 preserveAspectRatio="xMidYMid meet">
<metadata>
Created by potrace 1.15, written by Peter Selinger 2001-2017
</metadata>
<g transform="translate(0.000000,133.000000) scale(0.100000,-0.100000)"
fill="#000000" stroke="none">
<path d="M230 1195 c0 -9 -18 -47 -40 -84 -22 -37 -40 -73 -40 -79 0 -7 -14
-41 -30 -76 -26 -55 -31 -77 -32 -148 -1 -101 16 -132 93 -168 47 -23 49 -25
49 -66 0 -67 -20 -96 -105 -154 -27 -18 -52 -35 -55 -37 -2 -2 2 -8 10 -13 17
-11 37 -6 97 21 24 10 47 19 52 19 5 0 12 -61 16 -135 7 -134 16 -167 34 -123
11 26 31 277 31 386 0 64 2 71 22 78 36 11 93 76 108 124 22 67 18 166 -10
220 -12 24 -29 50 -37 58 -8 8 -22 27 -31 41 -9 14 -22 33 -29 41 -6 8 -27 35
-45 59 -36 48 -58 62 -58 36z m118 -235 c23 -39 42 -75 42 -80 0 -6 -11 -11
-25 -11 -14 -1 -31 -2 -37 -3 -12 -1 -17 19 -32 132 -3 17 -2 32 2 32 5 0 27
-32 50 -70z m-118 -30 c0 -80 0 -80 -36 -80 -32 0 -35 2 -29 23 6 23 58 137
63 137 1 0 2 -36 2 -80z m153 -146 c13 -13 -41 -84 -65 -84 -9 0 -11 74 -1 83
8 9 58 9 66 1z m-145 -39 c6 -14 9 -32 6 -40 -5 -13 -11 -11 -38 7 -40 28 -48
41 -33 50 24 16 54 8 65 -17z"/>
<path d="M586 954 c-8 -22 3 -147 19 -209 12 -50 12 -50 -21 -64 -19 -7 -34
-17 -34 -22 0 -5 -5 -9 -11 -9 -6 0 -24 -9 -40 -21 -26 -18 -29 -26 -29 -74 0
-29 7 -66 15 -81 11 -21 13 -46 9 -94 -6 -58 -4 -67 15 -84 12 -11 24 -16 28
-12 4 4 13 35 20 68 7 34 16 65 20 69 5 5 36 15 71 23 62 14 62 14 62 -31 0
-31 -12 -70 -38 -126 -92 -195 -94 -204 -67 -227 12 -10 18 -10 30 0 8 7 15
19 15 27 0 7 8 22 18 33 57 61 127 255 118 327 -5 36 -2 44 15 54 11 6 36 25
55 43 29 27 35 41 43 101 15 106 -8 122 -126 89 -106 -29 -106 -29 -118 110
-4 39 -11 83 -17 99 -12 30 -42 37 -52 11z m246 -291 c3 -46 -5 -79 -24 -95
-32 -28 -51 -21 -75 27 -21 40 -32 87 -17 73 3 -3 17 -2 32 2 48 15 82 12 84
-7z m-185 -50 c3 -10 15 -31 26 -46 10 -16 18 -30 16 -31 -35 -31 -147 -59
-150 -38 -11 65 2 98 46 118 41 18 54 17 62 -3z"/>
</g>
</svg>
