<svg version="1.0" xmlns="http://www.w3.org/2000/svg"
 width="72.000000pt" height="91.000000pt" viewBox="0 0 72.000000 91.000000"
 preserveAspectRatio="xMidYMid meet">
<metadata>
Created by potrace 1.15, written by Peter Selinger 2001-2017
</metadata>
<g transform="translate(0.000000,91.000000) scale(0.100000,-0.100000)"
fill="#000000" stroke="none">
<path d="M215 760 c-4 -6 -4 -24 0 -40 8 -38 -16 -42 -33 -5 -6 14 -18 25 -26
25 -52 0 -32 -92 23 -103 38 -8 33 -32 -10 -41 -25 -5 -29 -10 -29 -38 0 -18
9 -48 20 -66 25 -40 25 -39 -6 -46 -17 -5 -24 -12 -22 -24 3 -13 12 -16 39
-14 22 2 40 -2 48 -12 10 -12 7 -17 -16 -28 -33 -15 -43 -58 -18 -78 9 -7 33
-17 53 -21 37 -7 37 -7 1 -8 -19 0 -44 -7 -54 -15 -16 -12 -17 -17 -6 -45 12
-27 18 -31 55 -32 41 0 41 0 -6 -15 -53 -16 -71 -39 -66 -87 5 -56 57 -46 58
10 0 18 25 43 43 43 2 0 7 -19 10 -41 10 -73 49 -78 57 -8 5 41 7 44 35 44 25
0 31 -4 33 -27 4 -30 26 -53 42 -43 15 9 12 78 -4 100 -11 15 -24 19 -60 16
-25 -1 -46 2 -46 7 0 5 12 9 28 9 48 1 82 20 82 47 0 36 -23 49 -75 44 -25 -3
-45 -2 -45 3 0 5 20 9 45 9 37 0 47 4 61 25 14 21 15 31 6 50 -10 22 -18 25
-62 25 -36 0 -52 4 -56 15 -8 21 -42 19 -47 -2 -4 -15 -5 -15 -6 -2 0 9 6 22
14 29 12 10 20 9 40 -4 49 -32 86 -8 44 28 -22 19 -23 24 -12 46 15 30 17 75
3 101 -8 14 -21 19 -55 19 -25 0 -45 4 -45 9 0 11 25 21 50 21 26 0 39 21 46
74 7 48 7 48 -22 44 -26 -3 -29 -6 -26 -35 3 -25 -1 -33 -13 -33 -12 0 -15 6
-10 20 13 40 -40 83 -60 50z m93 -208 c2 -7 -3 -12 -12 -12 -9 0 -16 7 -16 16
0 17 22 14 28 -4z m-78 -7 c0 -8 -9 -15 -20 -15 -11 0 -20 7 -20 15 0 8 9 15
20 15 11 0 20 -7 20 -15z m27 -61 c3 -8 1 -20 -6 -27 -8 -8 -15 -6 -26 9 -20
26 -19 34 5 34 11 0 23 -7 27 -16z m123 -144 c25 -16 -3 -31 -69 -37 -58 -5
-91 5 -91 27 0 19 134 27 160 10z m8 -117 c-3 -15 -16 -18 -81 -21 -42 -2 -77
1 -77 6 0 22 29 32 93 32 60 0 68 -2 65 -17z"/>
<path d="M406 757 c-14 -10 -16 -21 -11 -48 10 -51 20 -63 56 -64 38 0 50 -20
18 -30 -15 -5 -26 -2 -34 9 -30 40 -61 -8 -44 -68 10 -35 10 -35 77 -38 55 -3
67 -6 70 -21 3 -16 1 -17 -16 -8 -39 21 -112 11 -112 -15 0 -10 12 -14 39 -14
54 0 60 -16 11 -31 -54 -16 -45 -34 16 -34 46 0 49 -2 55 -30 4 -16 7 -89 8
-161 1 -104 4 -134 16 -144 12 -10 18 -10 31 1 15 12 16 28 8 139 -5 69 -8
171 -6 227 2 93 1 104 -19 124 -18 18 -28 20 -70 14 -33 -5 -49 -3 -49 4 0 6
22 12 53 12 109 3 111 4 115 22 3 14 -4 17 -37 17 -30 0 -41 4 -41 15 0 11 12
15 44 15 53 0 66 22 41 70 -17 33 -58 43 -54 13 3 -33 -1 -43 -16 -43 -9 0
-15 9 -15 23 0 30 -30 59 -49 48 -10 -6 -12 -19 -8 -41 6 -28 5 -31 -16 -28
-18 2 -23 10 -25 41 -3 40 -9 44 -36 24z"/>
</g>
</svg>
