<svg version="1.0" xmlns="http://www.w3.org/2000/svg"
 width="70.000000pt" height="112.000000pt" viewBox="0 0 70.000000 112.000000"
 preserveAspectRatio="xMidYMid meet">
<metadata>
Created by potrace 1.15, written by Peter Selinger 2001-2017
</metadata>
<g transform="translate(0.000000,112.000000) scale(0.100000,-0.100000)"
fill="#000000" stroke="none">
<path d="M130 978 c3 -265 0 -278 -37 -221 -15 22 -18 49 -18 138 0 104 -1
110 -21 113 -19 3 -22 -3 -26 -45 -2 -26 -2 -86 1 -133 7 -99 26 -137 71 -147
27 -5 30 -9 30 -44 0 -33 -4 -40 -25 -45 -63 -16 -95 -133 -95 -351 0 -117 3
-143 14 -143 21 0 36 56 34 130 -1 104 19 269 37 296 18 28 35 31 35 7 1 -10
2 -127 3 -260 1 -178 5 -245 14 -255 9 -8 16 -9 23 -2 12 12 20 304 9 354 -5
19 -4 39 1 46 6 6 7 13 4 17 -8 8 7 117 17 117 4 0 17 -10 29 -22 18 -20 20
-35 20 -182 0 -170 15 -261 41 -261 12 0 13 23 10 135 -3 135 -3 135 80 136
46 1 125 2 174 3 50 2 96 1 103 -1 8 -1 19 5 25 15 18 26 -6 37 -85 37 -65 0
-67 1 -73 29 -3 15 -6 46 -6 67 0 21 0 83 0 137 0 54 1 100 3 102 2 2 22 5 43
6 50 2 105 18 105 30 0 18 -53 30 -109 25 -31 -3 -94 -8 -141 -12 -79 -6 -106
-16 -94 -36 3 -4 36 -8 74 -8 68 0 68 0 68 -166 0 -193 4 -186 -111 -177 -67
6 -67 6 -68 57 -1 63 -24 106 -70 127 -19 9 -34 22 -33 28 1 6 2 22 3 36 1 19
10 29 39 40 47 19 62 61 62 174 0 104 -8 143 -29 139 -13 -3 -17 -24 -21 -126
-6 -125 -11 -141 -49 -142 -10 0 -13 30 -11 158 3 204 5 192 -26 192 -25 0
-25 0 -24 -112z"/>
</g>
</svg>
