<svg version="1.0" xmlns="http://www.w3.org/2000/svg"
 width="75.000000pt" height="131.000000pt" viewBox="0 0 75.000000 131.000000"
 preserveAspectRatio="xMidYMid meet">
<metadata>
Created by potrace 1.15, written by Peter Selinger 2001-2017
</metadata>
<g transform="translate(0.000000,131.000000) scale(0.100000,-0.100000)"
fill="#000000" stroke="none">
<path d="M570 1160 c-30 -4 -131 -9 -225 -10 -206 -3 -300 -17 -300 -46 0 -18
7 -19 143 -15 142 4 142 4 142 -27 0 -30 0 -30 -77 -37 -146 -12 -152 -13
-167 -50 -13 -29 -37 -212 -36 -269 0 -12 7 -30 15 -40 12 -16 17 -17 30 -6
12 10 15 38 15 139 0 92 4 132 14 146 17 24 190 49 206 29 6 -6 13 -62 17
-124 6 -112 6 -112 -126 -241 -73 -71 -136 -129 -140 -129 -18 0 -51 -39 -51
-60 0 -19 4 -21 25 -16 24 6 35 14 133 104 48 43 66 50 78 31 5 -8 36 -10 103
-6 111 7 133 13 129 36 -3 13 -20 16 -102 19 -99 3 -99 3 -71 32 20 21 38 30
61 30 36 0 84 -18 84 -32 0 -4 5 -8 10 -8 6 0 58 -31 115 -70 109 -73 135 -83
135 -50 0 13 -27 38 -90 80 -49 33 -94 60 -100 60 -5 0 -10 3 -10 8 0 4 -17
15 -38 25 -20 10 -52 31 -70 47 -27 23 -32 33 -26 54 6 25 8 26 89 26 68 0 84
3 89 17 10 25 -7 29 -76 23 -76 -8 -98 -3 -98 20 0 14 15 18 82 26 69 7 83 12
86 28 4 17 -1 18 -64 14 -38 -3 -76 -7 -84 -9 -12 -3 -14 4 -12 31 2 19 6 37
8 40 3 2 37 4 75 4 61 -1 74 -4 95 -25 27 -28 44 -101 44 -196 0 -70 15 -89
47 -58 15 16 16 28 5 136 -7 65 -17 129 -23 143 -17 36 -56 48 -166 49 -97 2
-98 2 -98 26 0 22 7 26 60 37 35 7 96 10 148 8 82 -5 87 -4 87 15 0 20 -36 52
-55 50 -5 -1 -35 -5 -65 -9z"/>
<path d="M182 903 c-13 -2 -26 -11 -29 -19 -11 -29 11 -35 86 -22 55 9 71 16
69 28 -3 15 -76 23 -126 13z"/>
<path d="M140 790 c0 -18 7 -20 85 -20 78 0 85 2 85 20 0 18 -7 20 -85 20 -78
0 -85 -2 -85 -20z"/>
<path d="M350 495 c-69 -7 -137 -15 -152 -20 -24 -6 -26 -10 -17 -27 10 -18
19 -20 82 -16 72 3 72 3 73 -27 1 -37 -12 -55 -39 -55 -11 0 -37 -5 -58 -11
-88 -27 -83 -168 6 -185 19 -3 88 -1 153 6 115 11 120 11 158 -10 51 -29 70
-46 106 -97 34 -51 48 -54 48 -13 0 17 -4 30 -8 30 -4 0 -16 14 -26 30 -9 17
-41 48 -70 70 -52 39 -52 39 -205 42 -134 3 -155 5 -165 20 -27 43 27 65 220
88 55 7 107 18 116 24 22 16 30 62 18 106 -17 65 -25 66 -240 45z m178 -71 c3
-35 -2 -39 -70 -49 -44 -7 -46 -6 -56 23 -16 47 0 58 83 57 37 0 40 -2 43 -31z"/>
</g>
</svg>
