<svg version="1.0" xmlns="http://www.w3.org/2000/svg"
 width="73.000000pt" height="123.000000pt" viewBox="0 0 73.000000 123.000000"
 preserveAspectRatio="xMidYMid meet">
<metadata>
Created by potrace 1.15, written by Peter Selinger 2001-2017
</metadata>
<g transform="translate(0.000000,123.000000) scale(0.100000,-0.100000)"
fill="#000000" stroke="none">
<path d="M571 878 c3 -193 3 -193 -106 -230 -103 -34 -182 -46 -219 -32 -11 4
-16 19 -16 43 0 37 -32 137 -49 154 -24 24 -28 -43 -14 -233 10 -136 20 -206
31 -230 38 -79 52 -62 52 61 0 92 1 99 20 99 11 0 25 9 32 20 8 12 24 20 40
20 15 0 30 5 33 10 3 6 34 10 69 10 34 0 66 4 71 9 6 5 25 12 43 16 25 5 32 3
32 -9 0 -9 3 -16 8 -16 4 0 7 -36 7 -79 0 -44 -3 -83 -7 -87 -5 -4 -8 -25 -8
-46 0 -35 -7 -46 -69 -107 -61 -61 -86 -78 -166 -111 -37 -16 -140 -48 -192
-61 -60 -14 -70 -29 -20 -29 69 0 286 56 349 91 10 5 26 9 35 9 10 0 39 19 65
43 38 34 51 56 73 120 23 65 25 82 16 109 -6 17 -11 58 -11 92 0 34 -4 76 -10
94 -11 42 -22 185 -24 317 -1 106 -14 145 -49 145 -18 0 -19 -11 -16 -192z"/>
</g>
</svg>
