<svg version="1.0" xmlns="http://www.w3.org/2000/svg"
 width="37.000000pt" height="71.000000pt" viewBox="0 0 37.000000 71.000000"
 preserveAspectRatio="xMidYMid meet">
<metadata>
Created by potrace 1.15, written by Peter Selinger 2001-2017
</metadata>
<g transform="translate(0.000000,71.000000) scale(0.100000,-0.100000)"
fill="#000000" stroke="none">
<path d="M225 569 c7 -20 8 -32 21 -145 7 -62 7 -62 -34 -69 -52 -8 -62 -2
-62 41 0 28 -4 34 -21 34 -21 0 -22 -3 -16 -72 7 -77 19 -102 35 -71 8 15 23
20 64 22 53 2 53 2 56 -68 2 -69 2 -69 -70 -80 -40 -7 -80 -16 -89 -21 -10 -5
-20 -5 -25 0 -5 5 -15 5 -24 0 -25 -16 5 -28 89 -36 55 -5 87 -3 116 7 40 14
40 14 43 79 2 36 -2 99 -8 140 -27 187 -33 216 -43 238 -14 29 -41 30 -32 1z
m-75 -229 c0 -5 -4 -10 -10 -10 -5 0 -10 5 -10 10 0 6 5 10 10 10 6 0 10 -4
10 -10z"/>
</g>
</svg>
