<svg version="1.0" xmlns="http://www.w3.org/2000/svg"
 width="67.000000pt" height="77.000000pt" viewBox="0 0 67.000000 77.000000"
 preserveAspectRatio="xMidYMid meet">
<metadata>
Created by potrace 1.15, written by Peter Selinger 2001-2017
</metadata>
<g transform="translate(0.000000,77.000000) scale(0.100000,-0.100000)"
fill="#000000" stroke="none">
<path d="M462 706 c-55 -9 -79 -19 -98 -38 -31 -30 -47 -103 -38 -165 6 -40 4
-43 -20 -53 -38 -14 -25 -27 34 -35 28 -4 50 -10 50 -14 0 -5 -25 -28 -55 -52
-59 -47 -72 -76 -30 -65 24 6 25 5 25 -43 0 -68 12 -95 53 -114 41 -20 74 -21
114 -6 28 11 28 11 5 29 -12 10 -28 20 -35 23 -8 2 -2 20 21 56 37 60 37 61
18 61 -8 0 -27 -17 -42 -37 -53 -72 -66 -84 -81 -72 -7 6 -13 31 -13 55 0 29
-5 46 -16 52 -13 7 -8 14 27 40 53 40 76 40 117 3 17 -17 32 -31 32 -33 13
-149 20 -188 40 -221 12 -20 26 -37 31 -37 17 0 22 30 8 47 -10 11 -14 48 -14
125 0 108 0 110 -28 134 -15 13 -34 24 -42 24 -20 0 -65 22 -65 32 0 4 19 8
43 9 80 1 122 12 122 34 0 19 -6 20 -126 17 -126 -4 -126 -4 -132 44 -3 27 0
64 6 84 11 31 19 37 77 57 36 12 86 22 111 23 51 0 77 18 57 38 -14 14 -59 14
-156 -2z"/>
<path d="M125 655 c-10 -31 -15 -40 -63 -118 -23 -36 -23 -39 -8 -83 14 -42
14 -47 -4 -77 -11 -18 -20 -44 -20 -58 0 -26 30 -61 63 -72 30 -11 17 -49 -22
-68 -33 -15 -61 -44 -61 -61 0 -15 31 -8 52 12 12 11 30 20 40 20 16 0 17 -6
12 -54 -4 -36 -3 -56 5 -61 23 -13 41 16 41 66 0 54 10 60 66 39 57 -22 37 25
-22 51 -24 10 -44 25 -44 33 0 15 26 46 38 46 4 0 18 16 30 34 17 25 22 41 17
58 -15 46 -45 45 -45 -2 0 -20 -9 -35 -29 -49 -32 -23 -53 -26 -82 -11 -32 18
-22 37 51 96 39 31 73 67 76 79 9 34 1 59 -19 63 -12 3 -17 -3 -17 -21 0 -30
-44 -80 -68 -75 -12 2 -18 15 -20 40 -3 32 3 44 37 81 42 45 50 74 29 95 -16
16 -28 15 -33 -3z"/>
<path d="M536 620 c-21 -4 -42 -13 -47 -21 -12 -20 -22 -96 -15 -115 9 -23 23
-9 29 32 9 52 23 64 76 64 50 0 89 19 77 38 -8 13 -59 14 -120 2z"/>
</g>
</svg>
