<svg version="1.0" xmlns="http://www.w3.org/2000/svg"
 width="70.000000pt" height="85.000000pt" viewBox="0 0 70.000000 85.000000"
 preserveAspectRatio="xMidYMid meet">
<metadata>
Created by potrace 1.15, written by Peter Selinger 2001-2017
</metadata>
<g transform="translate(0.000000,85.000000) scale(0.100000,-0.100000)"
fill="#000000" stroke="none">
<path d="M182 588 c3 -42 3 -43 -32 -46 -52 -5 -60 -17 -60 -88 0 -77 13 -117
38 -112 14 3 17 13 14 67 -3 67 7 91 39 91 17 0 19 -9 19 -115 0 -114 0 -114
-67 -117 -53 -2 -68 -6 -68 -18 0 -10 12 -16 35 -18 35 -3 35 -3 32 -98 -4
-105 7 -136 35 -99 12 16 13 37 8 108 -7 87 -7 87 34 87 41 0 41 0 41 -104 0
-105 7 -129 30 -101 9 11 11 42 7 111 -5 90 -4 97 14 101 34 9 14 28 -32 31
-44 3 -44 3 -41 115 3 117 12 139 44 110 15 -14 17 -26 12 -78 -5 -44 -3 -65
5 -70 20 -12 24 1 29 83 5 89 -7 112 -58 112 -27 0 -29 3 -32 43 -2 35 -7 43
-26 45 -21 3 -22 0 -20 -40z"/>
<path d="M490 588 c0 -24 4 -48 8 -55 4 -6 32 -13 62 -15 49 -3 55 -1 55 17 0
16 -8 21 -43 23 -35 3 -42 6 -38 19 10 25 -3 53 -25 53 -16 0 -19 -7 -19 -42z"/>
<path d="M385 587 c6 -32 5 -35 -25 -41 -50 -9 -32 -31 26 -31 49 0 49 0 49
50 0 47 -1 50 -28 53 -27 3 -28 2 -22 -31z"/>
<path d="M367 462 c-13 -14 -17 -38 -17 -89 0 -71 0 -71 31 -82 47 -16 165
-14 199 4 29 15 30 19 30 80 0 93 -15 105 -135 105 -76 0 -95 -3 -108 -18z
m193 -22 c25 -16 -1 -45 -44 -48 -33 -3 -36 -1 -36 22 0 18 6 26 23 29 37 7
41 7 57 -3z m-112 -22 c-2 -19 -10 -24 -40 -26 -27 -2 -38 1 -38 10 0 22 22
38 53 38 24 0 28 -4 25 -22z m10 -80 c3 -14 -4 -18 -32 -18 -36 0 -52 12 -41
31 11 17 69 6 73 -13z m110 5 c-2 -13 -14 -19 -41 -21 -32 -3 -37 0 -37 17 0
18 6 21 41 21 33 0 40 -3 37 -17z"/>
<path d="M380 230 c-16 -16 -20 -33 -20 -95 0 -100 11 -109 134 -96 110 11
126 23 126 98 0 30 -7 67 -15 83 -16 30 -16 30 -110 30 -82 0 -98 -3 -115 -20z
m202 -60 c14 -79 3 -88 -119 -93 -65 -2 -88 8 -77 36 4 13 23 17 82 19 61 2
77 6 77 18 0 12 -14 14 -77 12 -63 -3 -78 -1 -78 11 0 31 46 45 140 43 45 -1
45 -1 52 -46z"/>
</g>
</svg>
