<svg version="1.0" xmlns="http://www.w3.org/2000/svg"
 width="45.000000pt" height="77.000000pt" viewBox="0 0 45.000000 77.000000"
 preserveAspectRatio="xMidYMid meet">
<metadata>
Created by potrace 1.15, written by Peter Selinger 2001-2017
</metadata>
<g transform="translate(0.000000,77.000000) scale(0.100000,-0.100000)"
fill="#000000" stroke="none">
<path d="M290 595 c0 -11 -8 -13 -30 -8 -26 5 -30 3 -30 -16 0 -11 -5 -21 -11
-21 -6 0 -10 -10 -9 -22 1 -13 2 -34 1 -48 -1 -24 -2 -23 -32 13 -26 32 -59
49 -59 31 0 -9 34 -68 44 -75 4 -4 2 -31 -4 -61 -7 -30 -10 -71 -6 -92 3 -20
9 -53 12 -74 4 -20 11 -43 16 -49 6 -7 7 -24 4 -37 -8 -34 12 -43 99 -45 66
-2 68 -1 53 16 -10 12 -13 25 -8 38 10 27 2 45 -20 45 -21 0 -46 27 -35 38 4
4 10 1 12 -5 3 -7 9 -13 14 -13 16 0 10 38 -11 76 -23 40 -20 56 5 30 9 -9 21
-16 26 -16 13 0 11 48 -3 52 -6 2 -13 26 -14 54 -2 27 -6 73 -8 101 -3 29 0
55 5 58 12 8 12 45 -1 45 -5 0 -10 -7 -10 -15z m-62 -295 c-1 -66 -5 -90 -14
-90 -19 0 -24 13 -27 73 -2 51 16 107 34 107 5 0 8 -40 7 -90z m36 -145 c4
-10 -1 -15 -14 -15 -11 0 -20 7 -20 15 0 8 6 15 14 15 8 0 16 -7 20 -15z"/>
</g>
</svg>
