<svg version="1.0" xmlns="http://www.w3.org/2000/svg"
 width="73.000000pt" height="78.000000pt" viewBox="0 0 73.000000 78.000000"
 preserveAspectRatio="xMidYMid meet">
<metadata>
Created by potrace 1.15, written by Peter Selinger 2001-2017
</metadata>
<g transform="translate(0.000000,78.000000) scale(0.100000,-0.100000)"
fill="#000000" stroke="none">
<path d="M370 641 c-51 -5 -66 -10 -68 -23 -3 -15 4 -18 37 -18 37 0 41 -2 41
-25 0 -22 -4 -25 -34 -25 -44 0 -66 -9 -66 -26 0 -19 41 -27 91 -17 43 8 44
10 47 51 3 42 3 42 72 42 101 0 110 -33 14 -51 -57 -11 -64 -17 -73 -61 -5
-22 -13 -34 -26 -36 -34 -4 -99 -25 -112 -35 -19 -14 -18 -360 1 -376 8 -7 66
-12 153 -14 150 -2 193 8 193 46 0 17 -6 19 -72 16 -70 -4 -73 -3 -76 20 -2
12 -1 34 2 47 6 21 12 24 50 24 27 0 48 6 56 15 19 23 2 33 -60 37 -51 3 -55
5 -55 28 0 21 5 25 35 28 84 6 101 12 98 35 -3 21 -7 22 -70 18 -68 -3 -68 -3
-68 33 0 35 0 35 68 38 59 3 67 5 67 23 0 18 -8 20 -68 23 -58 2 -68 6 -65 20
3 16 23 23 104 38 12 2 32 13 45 23 24 20 24 20 4 58 -12 22 -30 40 -45 44
-29 8 -128 8 -220 0z m61 -263 c-6 -30 -10 -33 -50 -36 -53 -4 -65 6 -52 41 9
24 16 27 59 27 49 0 49 0 43 -32z m-3 -125 c3 -33 3 -33 -47 -33 -49 0 -51 1
-51 28 0 38 7 43 55 40 37 -3 40 -5 43 -35z m7 -93 c3 -5 3 -25 -1 -45 -6 -34
-8 -35 -49 -35 -41 0 -43 1 -48 37 -4 20 -4 40 -1 45 7 11 91 10 99 -2z"/>
<path d="M196 604 c-3 -9 -6 -26 -6 -39 0 -24 -25 -45 -54 -45 -10 0 -16 13
-18 43 -2 34 -7 42 -23 42 -20 0 -20 -7 -20 -270 0 -326 0 -325 94 -325 57 0
59 1 70 31 12 35 15 398 4 512 -5 55 -9 67 -23 67 -10 0 -21 -7 -24 -16z m-2
-165 c8 -40 8 -332 0 -353 -8 -21 -50 -21 -58 0 -3 9 -6 99 -6 200 0 184 0
184 29 184 24 0 29 -5 35 -31z"/>
</g>
</svg>
