<svg version="1.0" xmlns="http://www.w3.org/2000/svg"
 width="70.000000pt" height="85.000000pt" viewBox="0 0 70.000000 85.000000"
 preserveAspectRatio="xMidYMid meet">
<metadata>
Created by potrace 1.15, written by Peter Selinger 2001-2017
</metadata>
<g transform="translate(0.000000,85.000000) scale(0.100000,-0.100000)"
fill="#000000" stroke="none">
<path d="M420 629 c-8 -13 -9 -46 -5 -95 7 -74 7 -74 -19 -74 -35 0 -33 -19 3
-26 26 -5 31 -13 41 -58 7 -28 23 -85 36 -126 13 -41 24 -80 24 -87 0 -8 -16
-21 -35 -30 -20 -9 -34 -22 -32 -27 4 -12 63 -14 87 -3 12 6 20 -3 31 -35 11
-30 22 -43 35 -43 29 0 29 32 -1 87 -25 45 -26 53 -16 93 20 78 13 145 -15
145 -9 0 -14 -12 -14 -34 0 -19 -4 -38 -10 -41 -11 -7 -36 48 -46 100 -3 18
-13 37 -22 41 -11 6 6 10 48 14 62 5 65 6 68 32 3 28 3 28 -45 22 -26 -4 -52
-11 -57 -15 -24 -22 -37 -9 -34 34 3 41 4 42 52 54 57 14 61 17 52 39 -6 16
-18 16 -58 -1 -13 -5 -20 -1 -27 18 -14 35 -28 41 -41 16z"/>
<path d="M112 589 c-35 -13 -17 -29 33 -29 51 0 59 -9 51 -56 -6 -29 -11 -34
-36 -34 -34 0 -60 -9 -60 -21 0 -5 37 -9 83 -9 45 0 88 -4 95 -9 8 -5 12 -21
10 -37 -3 -29 -3 -29 -78 -26 -41 1 -80 -1 -86 -5 -19 -15 -34 -113 -34 -223
0 -106 9 -139 28 -103 5 10 12 76 16 147 4 72 9 133 12 138 3 4 39 8 81 8 87
0 102 11 103 73 0 59 -14 77 -60 77 -39 0 -40 1 -40 34 0 38 12 46 70 46 35 0
58 18 43 34 -10 10 -206 6 -231 -5z"/>
<path d="M366 255 c6 -35 6 -35 -56 -35 -53 0 -63 3 -67 20 -8 28 -31 25 -39
-6 -9 -36 5 -157 19 -167 16 -11 147 1 164 14 9 8 13 38 13 94 0 92 -5 115
-27 115 -11 0 -12 -8 -7 -35z m-2 -102 c-9 -52 -10 -53 -58 -53 -51 0 -66 13
-66 57 0 33 0 33 65 33 66 0 66 0 59 -37z"/>
</g>
</svg>
