<svg version="1.0" xmlns="http://www.w3.org/2000/svg"
 width="91.000000pt" height="181.000000pt" viewBox="0 0 91.000000 181.000000"
 preserveAspectRatio="xMidYMid meet">
<metadata>
Created by potrace 1.15, written by Peter Selinger 2001-2017
</metadata>
<g transform="translate(0.000000,181.000000) scale(0.100000,-0.100000)"
fill="#000000" stroke="none">
<path d="M705 1653 c-11 -3 -29 -13 -40 -23 -11 -9 -27 -20 -36 -23 -9 -3 -27
-27 -39 -53 -21 -43 -22 -51 -11 -92 11 -42 36 -75 64 -85 8 -3 1 -26 -20 -68
-18 -35 -41 -84 -52 -109 -28 -64 -44 -80 -83 -86 -24 -4 -44 0 -73 17 -48 28
-125 103 -125 121 0 8 13 30 30 49 37 46 48 105 26 150 -15 32 -31 43 -99 68
-43 17 -112 -5 -158 -49 -37 -35 -39 -40 -39 -98 0 -86 35 -125 131 -146 25
-5 169 -131 169 -146 0 -4 -12 -10 -27 -13 -41 -8 -96 -49 -113 -82 -8 -17
-16 -62 -18 -100 -3 -58 0 -80 19 -119 12 -26 29 -50 38 -54 9 -3 18 -8 21
-12 17 -21 96 -48 130 -45 44 5 49 -5 42 -72 -4 -40 -6 -43 -41 -48 -84 -14
-110 -38 -76 -72 12 -12 24 -13 62 -4 26 5 49 9 50 8 1 -1 3 -45 4 -97 2 -95
2 -95 -29 -98 -27 -3 -32 1 -38 25 -9 36 -28 55 -48 47 -49 -19 23 -270 82
-288 39 -12 120 -14 141 -3 56 29 119 228 88 279 -18 29 -61 20 -65 -13 -2
-20 -10 -28 -30 -32 -15 -3 -31 -3 -36 0 -11 7 2 163 15 179 5 7 26 15 47 19
41 8 52 18 45 46 -4 15 -15 19 -55 19 -49 0 -49 0 -42 57 3 32 8 61 10 64 2 4
26 15 54 25 27 10 50 21 50 25 0 4 9 11 20 14 29 9 80 67 80 91 0 11 5 25 12
32 7 7 11 40 10 83 -1 63 -5 77 -29 107 -24 30 -69 61 -108 76 -6 2 -5 12 5
27 8 13 24 43 37 67 55 108 76 132 131 152 83 31 101 58 104 148 1 50 -2 63
-23 85 -37 41 -110 63 -164 50z m106 -101 c23 -20 24 -43 4 -82 -22 -43 -68
-64 -107 -51 -38 13 -57 38 -58 72 0 35 36 79 65 79 13 0 27 5 30 10 7 11 33
0 66 -28z m-566 -98 c44 -29 30 -130 -22 -153 -41 -19 -60 -13 -84 26 -33 53
-32 64 2 106 34 41 64 47 104 21z m408 -435 c15 -16 27 -35 27 -43 0 -24 -45
-45 -106 -48 -59 -3 -59 -3 -62 39 -4 51 10 80 40 86 40 8 72 -3 101 -34z
m-223 -53 c0 -74 2 -73 -100 -78 -65 -3 -65 -3 -68 27 -2 20 4 39 17 53 25 30
89 61 124 62 27 0 27 -1 27 -64z m240 -112 c0 -18 -67 -84 -86 -84 -7 0 -14
-4 -16 -9 -1 -5 -14 -11 -27 -13 -22 -3 -25 1 -27 32 -4 52 15 69 82 79 33 5
62 9 67 10 4 0 7 -6 7 -15z m-229 -69 c-1 -27 -5 -54 -8 -58 -11 -18 -97 6
-130 36 -35 32 -45 64 -17 53 9 -4 22 -2 28 3 11 9 73 19 111 17 18 -1 20 -7
16 -51z m129 -591 c0 -53 -48 -98 -93 -89 -18 4 -38 12 -45 18 -17 13 -46 76
-39 84 3 3 41 9 84 13 43 4 81 8 86 9 4 0 7 -15 7 -35z"/>
</g>
</svg>
