<svg version="1.0" xmlns="http://www.w3.org/2000/svg"
 width="73.000000pt" height="82.000000pt" viewBox="0 0 73.000000 82.000000"
 preserveAspectRatio="xMidYMid meet">
<metadata>
Created by potrace 1.15, written by Peter Selinger 2001-2017
</metadata>
<g transform="translate(0.000000,82.000000) scale(0.100000,-0.100000)"
fill="#000000" stroke="none">
<path d="M450 686 c0 -37 -16 -60 -65 -92 -43 -28 -62 -79 -68 -189 -7 -106
-33 -178 -83 -232 -17 -18 -21 -30 -14 -37 27 -27 120 125 120 196 0 61 10 78
42 78 30 0 30 -1 24 -42 -3 -24 -8 -77 -12 -118 -4 -56 -14 -88 -35 -127 -34
-63 -35 -63 -9 -63 13 0 26 13 38 37 34 68 43 111 50 235 7 123 7 123 37 123
26 0 30 -3 27 -25 -12 -95 -5 -199 17 -265 25 -71 74 -135 104 -135 27 0 28
17 2 34 -47 31 -73 113 -89 278 -7 67 -1 88 25 88 15 0 19 -7 19 -38 0 -106
83 -292 116 -259 4 3 -3 23 -14 44 -26 48 -49 158 -61 290 -5 55 -14 110 -20
121 -10 19 -47 38 -86 44 -15 2 -21 13 -25 43 -3 27 -10 41 -22 43 -15 3 -18
-4 -18 -32z m-4 -148 c-7 -43 -41 -89 -80 -110 -18 -10 -19 -7 -13 40 6 56 29
98 55 105 42 11 45 9 38 -35z m108 20 c8 -13 18 -43 22 -67 7 -43 7 -43 -22
-27 -54 29 -64 42 -64 80 0 32 3 36 25 36 14 0 31 -9 39 -22z"/>
<path d="M252 660 c-23 -17 -42 -37 -42 -45 0 -24 -34 -17 -61 11 -35 38 -78
59 -93 44 -8 -8 -2 -18 24 -40 35 -29 35 -29 5 -60 -36 -37 -40 -95 -11 -150
31 -60 48 -130 41 -169 -11 -61 -35 -125 -61 -158 -29 -38 -29 -43 -6 -43 10
0 31 21 48 48 71 107 82 216 33 309 -33 62 -35 82 -14 122 21 42 71 53 130 31
21 -8 26 -16 23 -38 -3 -24 -8 -27 -43 -30 -71 -4 -88 -11 -75 -27 15 -18 79
-20 113 -4 25 11 47 47 47 75 0 9 -14 29 -30 44 -31 29 -31 29 10 61 22 18 40
36 40 41 0 17 -39 7 -78 -22z"/>
</g>
</svg>
