<svg version="1.0" xmlns="http://www.w3.org/2000/svg"
 width="63.000000pt" height="97.000000pt" viewBox="0 0 63.000000 97.000000"
 preserveAspectRatio="xMidYMid meet">
<metadata>
Created by potrace 1.15, written by Peter Selinger 2001-2017
</metadata>
<g transform="translate(0.000000,97.000000) scale(0.100000,-0.100000)"
fill="#000000" stroke="none">
<path d="M421 761 c-6 -11 -11 -28 -11 -38 0 -11 -11 -23 -29 -30 -36 -13 -58
-46 -67 -100 -5 -36 -3 -45 18 -66 13 -13 32 -28 43 -34 19 -11 19 -12 1 -32
-11 -12 -24 -21 -30 -21 -6 0 -24 -11 -41 -25 -28 -22 -28 -24 -9 -25 12 0 46
16 75 36 45 30 57 34 76 25 13 -6 23 -16 23 -22 0 -15 -38 -46 -80 -65 -41
-18 -110 -82 -151 -141 -48 -69 -33 -72 27 -5 65 73 109 101 118 76 10 -27 7
-53 -14 -91 -21 -40 -26 -111 -11 -141 5 -9 12 -25 15 -34 3 -10 10 -18 16
-18 13 0 13 36 -1 75 -14 36 -5 83 16 91 8 3 32 -12 57 -36 52 -51 74 -66 111
-74 39 -9 34 10 -10 33 -33 16 -54 38 -117 120 -9 12 2 13 73 7 67 -6 82 -5
79 6 -6 17 -72 36 -131 37 -41 1 -49 4 -57 27 -16 41 -12 48 34 67 24 10 52
27 62 39 19 20 18 21 -18 53 -45 38 -47 45 -12 45 16 0 39 13 61 35 31 31 35
40 30 71 -9 51 -30 80 -77 100 -30 13 -40 24 -40 40 0 31 -17 39 -29 15z m84
-117 c22 -21 26 -31 21 -57 -8 -41 -39 -67 -81 -67 -73 0 -115 39 -101 94 14
56 113 75 161 30z"/>
<path d="M412 618 c-7 -7 -12 -17 -12 -24 0 -19 32 -26 48 -10 13 12 13 18 2
30 -15 19 -22 20 -38 4z"/>
<path d="M93 653 c-28 -18 -43 -36 -47 -56 -10 -49 -7 -86 9 -117 14 -27 14
-34 0 -66 -28 -67 -19 -112 33 -178 13 -16 20 -36 17 -44 -3 -8 -10 -45 -15
-81 -8 -55 -7 -68 7 -83 25 -28 36 -10 29 45 -7 64 8 119 49 177 17 25 40 67
50 93 17 46 17 51 2 101 -17 51 -16 55 3 97 26 59 25 75 -9 110 -37 37 -74 37
-128 2z m106 -16 c20 -24 23 -71 7 -92 -15 -20 -15 -20 -31 3 -23 31 -49 28
-66 -10 -20 -45 -37 -46 -45 -3 -8 46 16 83 67 101 45 16 54 17 68 1z m-34
-127 c7 -21 -5 -49 -28 -68 -11 -10 -17 -9 -26 2 -9 11 -9 22 3 50 16 39 41
47 51 16z m35 -122 c0 -42 -56 -150 -74 -145 -27 9 -51 61 -51 112 0 62 8 75
33 52 25 -22 31 -21 54 8 25 33 38 24 38 -27z"/>
</g>
</svg>
