<svg version="1.0" xmlns="http://www.w3.org/2000/svg"
 width="69.000000pt" height="92.000000pt" viewBox="0 0 69.000000 92.000000"
 preserveAspectRatio="xMidYMid meet">
<metadata>
Created by potrace 1.15, written by Peter Selinger 2001-2017
</metadata>
<g transform="translate(0.000000,92.000000) scale(0.100000,-0.100000)"
fill="#000000" stroke="none">
<path d="M471 752 c-6 -11 -11 -27 -11 -35 0 -28 -40 -66 -73 -69 -29 -3 -32
-6 -35 -42 -5 -53 23 -111 64 -136 19 -10 34 -24 34 -29 0 -5 -19 -21 -43 -34
-24 -14 -49 -33 -57 -41 -22 -28 20 -19 69 14 41 28 61 31 61 10 0 -6 -30 -33
-67 -62 -44 -35 -61 -54 -51 -56 9 -2 37 13 63 32 52 40 65 44 65 18 0 -27
-28 -60 -68 -82 -20 -10 -50 -30 -67 -44 -52 -44 1 -32 68 15 32 23 60 39 63
36 15 -14 -21 -103 -63 -157 -50 -65 -52 -85 -5 -50 81 60 128 261 84 362 -21
46 -21 46 6 53 50 12 71 34 86 88 28 100 27 107 -24 126 -35 13 -47 23 -56 49
-15 47 -30 59 -43 34z m59 -104 c45 -22 47 -25 43 -58 -9 -66 -23 -89 -63
-101 -32 -10 -44 -9 -77 7 -36 18 -38 22 -41 72 -2 37 1 52 10 52 7 0 27 11
43 25 17 13 32 24 34 25 2 0 25 -10 51 -22z"/>
<path d="M462 591 c-20 -12 -10 -46 13 -46 14 0 20 7 20 24 0 27 -13 35 -33
22z"/>
<path d="M262 648 c-11 -13 -26 -44 -33 -70 -12 -45 -15 -48 -45 -48 -27 0
-34 5 -43 31 -16 47 -15 48 39 55 33 4 50 11 50 20 0 11 -17 14 -80 12 -85 -2
-93 -8 -66 -51 7 -12 16 -33 19 -47 5 -21 1 -28 -23 -39 -40 -17 -45 -46 -21
-121 12 -35 21 -72 21 -82 0 -10 4 -26 9 -36 37 -74 52 -118 54 -162 4 -88 38
-55 58 56 6 32 29 108 51 168 22 61 42 121 45 134 6 27 -12 52 -39 52 -17 0
-19 5 -13 33 4 17 18 49 31 69 13 21 24 40 24 43 0 12 -18 4 -38 -17z m-66
-183 c-15 -42 -26 -55 -26 -29 0 10 -3 29 -6 42 -5 18 -2 22 19 22 24 0 24 -1
13 -35z m74 12 c0 -12 -9 -47 -21 -77 -11 -30 -31 -86 -44 -124 -39 -111 -44
-111 -69 4 -8 36 -21 89 -29 117 -16 56 -13 93 8 93 15 0 29 -32 49 -110 15
-58 19 -56 35 21 17 76 29 99 51 99 14 0 20 -7 20 -23z"/>
<path d="M586 463 c-15 -55 -15 -84 -2 -125 15 -41 14 -48 -1 -79 -16 -31 -15
-36 8 -103 13 -38 30 -71 36 -74 23 -7 26 28 8 85 -15 48 -16 63 -6 104 11 42
10 52 -5 77 -14 25 -15 37 -6 73 6 23 9 46 6 51 -9 14 -33 8 -38 -9z"/>
</g>
</svg>
