<svg version="1.0" xmlns="http://www.w3.org/2000/svg"
 width="70.000000pt" height="112.000000pt" viewBox="0 0 70.000000 112.000000"
 preserveAspectRatio="xMidYMid meet">
<metadata>
Created by potrace 1.15, written by Peter Selinger 2001-2017
</metadata>
<g transform="translate(0.000000,112.000000) scale(0.100000,-0.100000)"
fill="#000000" stroke="none">
<path d="M394 1018 c-68 -39 -87 -55 -80 -73 8 -21 42 -12 78 23 15 14 30 23
33 20 3 -3 7 -40 9 -83 4 -83 -2 -93 -50 -81 -22 6 -25 11 -23 41 4 39 -10 59
-34 49 -22 -8 -21 -50 2 -89 12 -21 31 -34 62 -44 24 -8 46 -15 48 -17 7 -6
-21 -34 -35 -34 -14 0 -94 -72 -94 -84 0 -4 -7 -14 -15 -22 -8 -8 -12 -21 -9
-28 8 -20 43 -8 62 22 32 49 68 83 83 77 10 -4 14 -25 14 -80 0 -71 -1 -74
-25 -80 -26 -7 -89 -69 -91 -89 0 -6 -2 -22 -3 -36 -2 -14 -6 -89 -11 -168 -6
-126 -5 -145 10 -169 18 -26 18 -26 30 -3 9 16 12 66 10 164 -5 209 11 248
106 261 38 5 56 3 74 -9 46 -30 26 -64 -45 -80 -47 -11 -54 -21 -51 -79 1 -22
8 -31 36 -43 19 -7 45 -14 58 -14 49 0 93 -94 80 -173 -3 -20 -2 -49 2 -64 7
-28 7 -28 26 -5 15 20 18 36 15 92 -6 88 -16 142 -30 156 -19 18 -53 34 -75
34 -29 0 -71 21 -71 36 0 13 11 18 68 29 71 14 81 101 18 150 -18 14 -46 25
-62 25 -29 0 -29 0 -26 75 4 75 4 75 30 69 15 -4 48 -29 74 -55 49 -51 88 -64
88 -30 0 30 -50 75 -122 112 -38 19 -68 39 -68 45 0 14 23 24 54 24 34 0 63
39 68 91 6 50 -5 79 -27 79 -11 0 -15 -12 -15 -43 0 -46 -29 -87 -62 -87 -22
0 -26 15 -22 99 3 59 0 79 -13 93 -21 23 -30 23 -79 -4z"/>
<path d="M85 1003 c8 -33 23 -53 39 -53 24 0 66 -25 65 -40 0 -20 -57 -56
-103 -64 -26 -5 -36 -12 -36 -26 0 -10 5 -22 11 -26 12 -7 85 13 107 29 9 7
17 6 24 -1 17 -17 -5 -57 -41 -76 -17 -9 -44 -23 -61 -32 -36 -19 -46 -32 -32
-46 7 -7 28 -2 67 16 32 14 59 26 61 26 3 0 9 -12 14 -26 14 -35 1 -45 -92
-75 -55 -17 -78 -29 -78 -40 0 -23 21 -29 63 -19 35 7 35 7 42 -44 3 -28 8
-117 11 -198 5 -123 3 -148 -9 -148 -8 0 -22 9 -33 21 -17 19 -19 38 -19 172
0 135 -2 152 -17 155 -26 5 -30 -28 -25 -184 5 -150 14 -182 54 -201 40 -19
167 -17 183 2 17 21 4 33 -40 37 -33 4 -35 6 -38 46 -3 40 -1 43 28 53 17 6
35 20 40 30 6 10 10 68 9 127 -2 96 -4 110 -21 121 -11 7 -23 10 -26 6 -4 -3
-5 -58 -3 -121 2 -96 0 -114 -13 -114 -17 0 -23 35 -30 178 -4 92 -4 92 27
109 18 9 35 21 39 27 10 14 -2 79 -15 87 -5 4 -6 20 -2 37 4 22 1 40 -11 61
-16 28 -16 29 5 52 32 35 28 75 -11 99 -18 11 -45 22 -61 26 -15 3 -33 14 -40
25 -19 30 -41 24 -32 -8z"/>
</g>
</svg>
