<svg version="1.0" xmlns="http://www.w3.org/2000/svg"
 width="91.000000pt" height="133.000000pt" viewBox="0 0 91.000000 133.000000"
 preserveAspectRatio="xMidYMid meet">
<metadata>
Created by potrace 1.15, written by Peter Selinger 2001-2017
</metadata>
<g transform="translate(0.000000,133.000000) scale(0.100000,-0.100000)"
fill="#000000" stroke="none">
<path d="M830 1098 c-11 -13 -31 -36 -45 -52 -14 -16 -25 -25 -26 -20 0 5 -11
-40 -24 -101 -22 -98 -24 -133 -23 -325 2 -231 0 -243 -50 -287 -40 -35 -113
-47 -265 -45 -76 1 -142 4 -147 7 -5 3 -12 32 -16 65 -5 45 -12 64 -33 83 -73
68 -119 68 -52 -1 32 -33 40 -49 45 -96 7 -56 7 -56 -68 -56 -58 0 -76 -3 -76
-14 0 -19 23 -26 90 -26 32 0 62 -5 65 -11 13 -20 -6 -79 -35 -113 -19 -21
-47 -38 -75 -46 -36 -10 -43 -15 -34 -26 15 -19 33 -18 77 5 62 32 106 94 114
161 3 25 3 25 173 31 169 6 225 13 225 30 0 5 6 9 13 9 6 0 29 16 50 35 37 33
39 37 46 122 9 95 9 129 -2 139 -11 11 -8 138 4 233 18 138 29 168 82 223 49
51 55 66 35 86 -17 17 -24 15 -48 -10z"/>
<path d="M299 1053 c-1 -85 -6 -101 -41 -132 -19 -16 -36 -37 -37 -46 -6 -35
-3 -116 7 -200 13 -108 20 -135 40 -158 15 -17 68 -47 84 -47 4 0 25 -16 45
-36 21 -19 50 -38 66 -41 15 -3 30 -10 33 -14 3 -5 19 -9 35 -9 48 0 33 30
-22 44 -25 7 -56 21 -68 33 -22 20 -22 20 11 34 60 24 118 103 118 159 0 16 4
39 10 52 16 38 28 171 17 194 -10 25 -47 44 -81 44 -21 0 -24 5 -28 64 -6 72
-12 88 -32 80 -9 -3 -17 -29 -21 -65 -7 -60 -7 -60 -54 -57 -51 3 -46 -6 -49
96 -2 30 -6 42 -17 42 -11 0 -15 -11 -16 -37z m125 -194 c-1 -54 -13 -89 -29
-89 -20 0 -45 52 -45 95 0 36 1 36 38 33 35 -3 37 -4 36 -39z m110 25 c20 -8
23 -138 3 -158 -24 -24 -56 -36 -96 -36 -48 0 -53 15 -16 50 14 13 25 31 25
41 0 10 5 21 10 24 6 3 10 21 10 39 0 18 3 36 7 39 8 9 36 9 57 1z m-240 -54
c3 -22 17 -50 31 -64 27 -27 42 -71 27 -79 -10 -7 -48 3 -76 19 -23 14 -32 95
-14 135 17 39 24 36 32 -11z m55 -187 c3 -2 7 -30 9 -63 4 -55 3 -60 -16 -60
-29 0 -50 25 -57 68 -4 20 -9 45 -12 55 -4 16 0 17 34 11 21 -4 40 -8 42 -11z
m181 8 c0 -44 -66 -131 -100 -131 -17 0 -20 8 -21 45 -1 25 -2 51 -3 58 -1 7
22 17 54 24 72 15 70 14 70 4z"/>
<path d="M830 974 c0 -8 5 -12 10 -9 6 3 10 10 10 16 0 5 -4 9 -10 9 -5 0 -10
-7 -10 -16z"/>
</g>
</svg>
