<svg version="1.0" xmlns="http://www.w3.org/2000/svg"
 width="73.000000pt" height="93.000000pt" viewBox="0 0 73.000000 93.000000"
 preserveAspectRatio="xMidYMid meet">
<metadata>
Created by potrace 1.15, written by Peter Selinger 2001-2017
</metadata>
<g transform="translate(0.000000,93.000000) scale(0.100000,-0.100000)"
fill="#000000" stroke="none">
<path d="M235 615 c-27 -7 -58 -16 -67 -20 -29 -12 -58 -86 -58 -148 0 -57 0
-57 -34 -57 -39 0 -62 -20 -44 -38 7 -7 27 -12 45 -12 33 0 33 0 33 -133 0
-97 4 -138 14 -152 13 -18 14 -18 26 5 9 17 11 60 8 152 -5 128 -5 128 54 128
60 0 60 0 57 -155 -1 -85 0 -158 4 -161 4 -4 13 -1 22 6 12 10 15 40 15 160 0
165 -3 160 79 160 34 0 34 0 28 -160 -6 -165 -1 -189 31 -156 14 13 17 44 20
161 4 145 4 145 48 145 44 0 44 0 44 -150 0 -141 1 -150 19 -150 28 0 31 18
31 171 0 139 0 139 23 139 13 0 27 3 30 7 10 10 -13 33 -33 33 -14 0 -18 12
-23 66 -9 98 -31 135 -92 156 -59 21 -203 23 -280 3z m173 -39 c4 -4 9 -48 10
-97 4 -89 4 -89 -55 -89 -58 0 -58 0 -55 103 3 104 3 104 48 97 24 -4 48 -10
52 -14z m-138 -91 c0 -95 0 -95 -54 -95 -54 0 -54 0 -59 43 -5 52 33 134 67
140 47 9 46 11 46 -88z m258 83 c8 -10 32 -141 32 -174 0 -2 -22 -4 -50 -4
-50 0 -50 0 -50 95 0 95 0 95 29 95 16 0 33 -6 39 -12z"/>
</g>
</svg>
