<svg version="1.0" xmlns="http://www.w3.org/2000/svg"
 width="83.000000pt" height="63.000000pt" viewBox="0 0 83.000000 63.000000"
 preserveAspectRatio="xMidYMid meet">
<metadata>
Created by potrace 1.15, written by Peter Selinger 2001-2017
</metadata>
<g transform="translate(0.000000,63.000000) scale(0.100000,-0.100000)"
fill="#000000" stroke="none">
<path d="M360 531 c0 -78 0 -78 -105 -80 -100 -1 -105 0 -105 20 0 11 -14 34
-30 51 -50 50 -56 33 -53 -149 2 -87 -2 -193 -8 -235 -10 -67 -9 -79 5 -93 14
-14 18 -14 41 1 14 9 25 26 25 38 0 55 9 63 68 70 32 3 62 6 67 6 32 -1 98
-10 102 -13 2 -3 5 -33 6 -68 2 -62 3 -64 30 -67 27 -3 27 -3 27 63 0 53 3 67
18 73 31 13 225 8 230 -6 2 -7 10 -19 18 -26 8 -8 14 -21 14 -28 0 -18 52 -68
69 -68 17 0 11 36 -23 125 -14 39 -28 89 -30 112 -2 23 -7 46 -10 51 -8 14 -9
178 -1 225 7 40 -13 77 -41 77 -23 0 -44 -43 -44 -92 0 -45 -1 -48 -27 -49
-16 0 -61 -3 -100 -5 -73 -5 -73 -5 -73 59 0 59 -2 65 -25 75 -14 7 -30 12
-35 12 -6 0 -10 -35 -10 -79z m-16 -141 c25 -9 26 -14 26 -79 0 -63 -2 -72
-22 -82 -26 -14 -138 -24 -174 -15 -23 6 -24 10 -24 80 0 48 5 77 13 84 7 6
42 13 77 15 36 2 68 4 72 5 4 1 18 -2 32 -8z m226 -1 c59 1 59 1 70 -56 6 -32
13 -67 15 -77 8 -38 -12 -46 -115 -46 -114 0 -110 -4 -110 105 0 74 0 74 33
77 17 2 36 2 41 -1 4 -2 34 -3 66 -2z"/>
</g>
</svg>
