<svg version="1.0" xmlns="http://www.w3.org/2000/svg"
 width="105.000000pt" height="97.000000pt" viewBox="0 0 105.000000 97.000000"
 preserveAspectRatio="xMidYMid meet">
<metadata>
Created by potrace 1.15, written by Peter Selinger 2001-2017
</metadata>
<g transform="translate(0.000000,97.000000) scale(0.100000,-0.100000)"
fill="#000000" stroke="none">
<path d="M549 878 c0 -18 0 -68 1 -110 1 -78 1 -78 -59 -78 -61 0 -61 0 -61
58 0 46 -4 63 -19 76 -30 28 -41 11 -41 -65 0 -65 -2 -70 -26 -79 -14 -6 -39
-10 -55 -10 -25 0 -29 4 -29 28 0 47 -11 72 -31 72 -23 0 -39 -36 -39 -86 0
-27 -4 -34 -20 -34 -11 0 -20 -4 -20 -10 0 -5 -8 -10 -18 -10 -10 0 -26 -8
-35 -17 -9 -10 -27 -30 -41 -44 -23 -25 -29 -54 -27 -123 1 -21 17 -44 61 -87
60 -58 61 -60 51 -95 -11 -41 3 -74 31 -74 18 0 34 41 37 97 1 14 45 9 95 -10
29 -11 29 -11 23 -102 -6 -105 3 -132 32 -98 13 15 20 47 25 102 7 81 7 81 64
75 86 -9 81 -2 77 -111 -5 -114 -1 -133 26 -133 21 0 22 4 24 105 2 95 11 115
50 115 59 0 65 -7 65 -67 0 -42 4 -59 17 -69 29 -20 43 2 43 67 0 59 0 59 40
59 52 0 64 -22 55 -100 -8 -66 -1 -100 21 -100 22 0 35 47 36 133 1 74 3 79
27 92 44 23 80 68 87 110 25 153 7 212 -79 268 -26 17 -27 20 -27 106 0 93
-11 118 -44 105 -13 -5 -16 -21 -16 -79 0 -41 -4 -76 -9 -79 -5 -3 -23 -3 -40
0 -27 6 -31 11 -37 50 -6 44 -25 71 -42 60 -6 -3 -13 -26 -16 -51 -7 -45 -7
-45 -52 -45 -44 0 -44 0 -44 85 0 62 -4 93 -16 110 -23 36 -44 32 -45 -7z m-6
-275 c3 -16 3 -41 0 -58 -3 -16 -7 -79 -10 -138 -5 -108 -5 -108 -67 -101 -33
3 -64 9 -67 13 -7 6 6 203 16 268 6 33 16 38 91 42 27 1 32 -3 37 -26z m151 0
c0 -13 -1 -88 -2 -167 -2 -160 -3 -162 -68 -150 -34 6 -34 6 -33 167 0 89 3
165 6 170 3 4 26 7 51 5 41 -3 47 -6 46 -25z m-343 -99 c-1 -62 -6 -127 -10
-145 -6 -30 -10 -34 -36 -31 -17 2 -34 8 -39 13 -6 5 -18 9 -28 9 -15 0 -16 9
-11 88 3 48 10 95 14 104 5 9 9 28 9 42 0 20 6 25 33 29 75 10 72 15 68 -109z
m489 76 c3 -19 3 -93 0 -165 -5 -130 -5 -130 -47 -133 -43 -3 -43 -3 -43 106
0 60 3 137 6 171 7 62 7 62 43 59 33 -3 36 -6 41 -38z m-668 -62 c-6 -141 -15
-159 -60 -119 -25 21 -30 86 -11 124 10 21 58 67 69 67 3 0 4 -33 2 -72z m772
25 c22 -30 34 -117 17 -127 -6 -4 -11 -20 -11 -36 0 -17 -9 -38 -22 -50 -23
-21 -23 -21 -28 33 -5 49 -5 85 -1 180 1 34 20 34 45 0z"/>
<path d="M760 435 c0 -8 5 -15 10 -15 6 0 10 7 10 15 0 8 -4 15 -10 15 -5 0
-10 -7 -10 -15z"/>
</g>
</svg>
