<svg version="1.0" xmlns="http://www.w3.org/2000/svg"
 width="65.000000pt" height="108.000000pt" viewBox="0 0 65.000000 108.000000"
 preserveAspectRatio="xMidYMid meet">
<metadata>
Created by potrace 1.15, written by Peter Selinger 2001-2017
</metadata>
<g transform="translate(0.000000,108.000000) scale(0.100000,-0.100000)"
fill="#000000" stroke="none">
<path d="M133 953 c5 -28 17 -47 47 -71 57 -48 55 -76 -7 -96 -27 -8 -67 -18
-90 -21 -28 -4 -43 -12 -43 -21 0 -11 16 -14 75 -12 41 1 77 -1 80 -3 2 -3 2
-15 -2 -27 -6 -26 -60 -57 -116 -67 -44 -8 -55 -21 -27 -28 21 -5 36 -4 107 8
41 7 41 7 31 -33 -11 -43 -27 -54 -136 -88 -30 -9 -52 -22 -52 -30 0 -16 36
-19 45 -4 3 6 17 10 31 10 13 0 24 5 24 11 0 5 4 8 8 5 18 -11 114 28 122 50
5 12 8 67 6 123 -2 95 -1 102 21 118 40 30 21 113 -25 113 -7 0 -12 5 -12 10
0 6 -8 10 -18 10 -13 0 -18 9 -20 31 -3 41 -9 49 -34 49 -18 0 -20 -4 -15 -37z"/>
<path d="M425 873 c-32 -2 -64 -8 -71 -14 -19 -15 -33 -115 -40 -284 -3 -88
-7 -180 -9 -205 -1 -25 -3 -81 -5 -125 -1 -44 -8 -114 -15 -155 -13 -75 -8
-103 13 -77 17 21 33 109 38 217 2 52 6 104 9 115 2 11 7 90 11 175 4 85 12
189 18 230 12 75 12 75 139 78 70 1 127 7 127 12 0 5 -10 16 -22 24 -22 16
-52 17 -193 9z"/>
<path d="M415 740 c-12 -19 7 -29 60 -31 74 -3 101 -26 109 -92 4 -29 4 -61 0
-70 -8 -23 -31 -21 -39 3 -11 34 -76 80 -113 80 -26 0 -33 -4 -30 -17 2 -10
13 -19 25 -21 34 -5 85 -57 81 -83 -3 -23 -14 -31 -62 -45 -46 -14 -36 -29 21
-32 52 -3 52 -3 58 -65 4 -34 4 -120 2 -192 -5 -130 1 -165 28 -165 15 0 19
27 15 116 -1 23 -3 106 -4 184 -3 143 -3 143 26 168 69 62 54 208 -26 246 -46
22 -141 32 -151 16z"/>
<path d="M138 328 c-6 -154 -12 -181 -37 -176 -14 3 -16 20 -13 141 3 94 0
137 -7 137 -6 0 -10 -3 -9 -7 1 -5 -3 -17 -9 -29 -7 -12 -15 -68 -18 -126 -6
-103 -6 -104 21 -131 24 -24 34 -27 99 -27 53 0 74 4 78 14 8 19 -1 26 -34 26
-22 0 -30 6 -35 25 -9 35 2 55 35 68 16 6 34 21 40 34 14 30 14 138 1 164 -20
37 -31 20 -29 -44 1 -43 -3 -73 -15 -96 -28 -53 -39 -26 -34 78 4 80 2 91 -13
91 -14 0 -17 -18 -21 -142z"/>
</g>
</svg>
