<svg version="1.0" xmlns="http://www.w3.org/2000/svg"
 width="69.000000pt" height="84.000000pt" viewBox="0 0 69.000000 84.000000"
 preserveAspectRatio="xMidYMid meet">
<metadata>
Created by potrace 1.15, written by Peter Selinger 2001-2017
</metadata>
<g transform="translate(0.000000,84.000000) scale(0.100000,-0.100000)"
fill="#000000" stroke="none">
<path d="M166 683 c-4 -9 -2 -31 5 -50 14 -45 -5 -75 -66 -102 -32 -14 -45
-26 -45 -40 0 -25 26 -27 54 -6 26 20 76 20 76 0 0 -8 -8 -22 -17 -30 -10 -8
-36 -31 -59 -50 -45 -38 -84 -122 -84 -181 0 -48 27 -46 35 4 9 53 34 107 61
133 29 27 35 22 41 -35 5 -37 1 -50 -22 -80 -34 -44 -42 -99 -21 -149 9 -20
21 -37 26 -37 6 0 10 -7 10 -15 0 -27 37 -16 69 20 16 19 46 68 66 108 35 74
35 74 35 254 0 141 3 183 14 192 7 6 71 16 142 21 114 9 158 19 143 35 -3 2
-64 8 -135 11 -129 7 -129 7 -161 -20 -49 -41 -57 -80 -50 -236 8 -152 -3
-219 -46 -292 -34 -59 -55 -77 -68 -57 -5 8 -12 29 -15 48 -7 34 -6 36 60 158
23 43 14 81 -23 99 -24 12 -24 12 7 28 42 22 56 50 44 85 -5 15 -8 39 -5 54 3
15 -4 44 -15 69 -11 24 -23 51 -26 61 -7 22 -22 22 -30 0z"/>
<path d="M520 596 c0 -7 7 -19 15 -26 15 -13 31 -77 22 -87 -4 -3 -32 17 -62
46 -31 28 -61 51 -66 51 -16 0 -9 -26 12 -46 23 -20 49 -66 49 -85 0 -18 -51
-1 -81 27 -30 29 -39 30 -39 6 0 -29 29 -62 71 -79 21 -8 39 -19 39 -23 0 -5
-14 -20 -30 -33 -38 -32 -54 -71 -40 -98 6 -10 17 -19 26 -19 39 0 94 -42 126
-96 34 -58 61 -84 74 -71 4 4 -11 42 -33 84 -27 54 -49 83 -69 93 -88 45 -89
55 -13 90 42 20 49 27 49 53 0 16 9 40 20 54 36 46 22 107 -35 155 -25 21 -35
22 -35 4z"/>
</g>
</svg>
