<svg version="1.0" xmlns="http://www.w3.org/2000/svg"
 width="91.000000pt" height="115.000000pt" viewBox="0 0 91.000000 115.000000"
 preserveAspectRatio="xMidYMid meet">
<metadata>
Created by potrace 1.15, written by Peter Selinger 2001-2017
</metadata>
<g transform="translate(0.000000,115.000000) scale(0.100000,-0.100000)"
fill="#000000" stroke="none">
<path d="M564 1003 c-74 -37 -93 -101 -54 -178 11 -22 20 -48 20 -58 0 -47
173 -70 240 -32 19 11 40 25 46 30 15 15 27 70 26 132 0 60 -28 106 -75 123
-55 19 -147 11 -203 -17z m126 -23 c0 -5 11 -10 24 -10 13 0 35 -12 50 -26 22
-23 26 -35 26 -84 0 -63 -9 -77 -64 -96 -41 -13 -77 -1 -121 42 -27 26 -36 43
-39 78 -3 27 1 51 8 62 21 28 116 56 116 34z"/>
<path d="M673 897 c-38 -11 -41 -22 -14 -37 30 -16 71 -13 71 6 0 29 -22 41
-57 31z"/>
<path d="M177 1013 c-16 -4 -17 -13 -11 -79 4 -46 3 -84 -4 -97 -66 -140 -77
-194 -61 -294 8 -49 23 -97 41 -129 34 -61 44 -132 28 -194 -7 -25 -14 -60
-17 -78 -3 -18 -9 -35 -14 -38 -17 -10 -9 -34 10 -34 23 0 30 9 54 75 34 90
39 131 29 208 -6 40 -13 80 -17 89 -7 18 12 27 69 31 25 2 31 -3 39 -28 32
-103 67 -102 67 1 0 24 5 44 10 44 14 0 13 37 -1 42 -7 2 -14 34 -16 71 -5 65
-4 67 24 79 55 24 57 48 4 48 -37 0 -39 2 -47 38 -4 20 -8 54 -9 74 0 21 -8
45 -18 55 -28 29 -40 3 -38 -85 1 -80 1 -80 -45 -84 -25 -2 -50 -1 -55 2 -5 4
0 30 11 60 24 66 26 159 5 200 -9 17 -17 29 -18 29 -1 -1 -10 -3 -20 -6z m131
-415 c3 -78 3 -78 -61 -78 -81 0 -98 15 -90 82 4 36 10 48 27 54 50 17 72 22
96 21 24 -2 25 -5 28 -79z"/>
<path d="M647 603 c-1 -1 -34 -4 -72 -8 -61 -5 -84 -15 -85 -37 0 -8 72 -21
130 -22 39 -1 45 -4 48 -25 5 -30 -8 -37 -68 -40 -46 -1 -135 -40 -152 -65
-14 -21 9 -26 58 -12 27 8 75 18 107 21 57 7 57 7 57 -34 0 -22 -1 -41 -2 -42
-2 0 -39 -6 -83 -12 -72 -11 -80 -14 -83 -36 -4 -22 -2 -23 40 -17 23 4 102
10 175 14 138 7 168 17 143 47 -8 9 -21 13 -32 9 -10 -3 -37 -3 -58 1 -39 7
-40 8 -40 46 0 37 2 39 33 41 17 0 37 2 42 3 6 2 18 3 28 4 11 1 17 9 17 26 0
23 -4 24 -62 27 -60 3 -63 4 -66 29 -3 25 0 27 50 33 69 9 86 19 69 40 -10 12
-32 15 -103 13 -49 -1 -90 -3 -91 -4z"/>
</g>
</svg>
