<svg version="1.0" xmlns="http://www.w3.org/2000/svg"
 width="109.000000pt" height="135.000000pt" viewBox="0 0 109.000000 135.000000"
 preserveAspectRatio="xMidYMid meet">
<metadata>
Created by potrace 1.15, written by Peter Selinger 2001-2017
</metadata>
<g transform="translate(0.000000,135.000000) scale(0.100000,-0.100000)"
fill="#000000" stroke="none">
<path d="M740 1284 c-22 -39 1 -175 35 -211 14 -16 25 -40 26 -58 0 -16 8 -42
17 -57 9 -14 29 -46 43 -70 26 -45 26 -45 -3 -43 -15 1 -28 -1 -28 -5 0 -13
-56 -34 -97 -36 -42 -1 -42 -1 -45 45 -4 56 -31 66 -36 14 -2 -18 -7 -33 -13
-33 -5 0 -9 -6 -9 -14 0 -19 -34 -10 -56 15 -19 21 -49 25 -59 8 -10 -15 66
-78 94 -79 19 0 22 -4 17 -22 -3 -13 -9 -40 -12 -60 -4 -21 -10 -38 -15 -38
-5 0 -9 -7 -9 -15 0 -18 -43 -20 -89 -4 -75 26 -75 -18 0 -52 27 -13 49 -24
49 -26 0 -2 -14 -22 -31 -43 -32 -39 -34 -70 -5 -70 8 0 34 27 58 59 26 36 51
60 62 60 11 1 33 5 50 11 17 5 63 19 101 30 69 20 115 39 125 51 3 3 15 11 27
17 16 9 22 9 25 0 8 -22 -8 -96 -23 -109 -19 -18 -70 -49 -91 -56 -10 -3 -18
-9 -18 -14 0 -5 -6 -9 -13 -9 -18 0 -75 -28 -82 -41 -4 -5 -14 -9 -24 -9 -28
0 -44 -50 -36 -107 3 -27 8 -62 10 -78 3 -29 -10 -99 -25 -140 -24 -62 -17
-80 17 -42 41 45 52 87 55 207 3 126 -10 109 140 182 10 4 23 8 29 8 6 0 30
14 55 31 66 45 88 115 59 193 -26 71 -69 155 -77 150 -4 -3 -8 2 -8 11 0 19
-36 93 -57 117 -8 9 -12 21 -9 26 3 6 0 12 -8 15 -7 3 -16 29 -20 61 -3 31
-11 78 -17 104 -36 154 -51 179 -79 126z m160 -493 c0 -9 7 -26 15 -37 17 -22
20 -38 5 -29 -5 3 -10 2 -10 -3 0 -19 -245 -121 -258 -107 -3 3 -1 26 6 50 7
25 12 54 12 64 0 23 18 31 78 32 33 0 61 9 92 28 48 30 60 30 60 2z"/>
<path d="M141 1196 c-38 -8 -56 -17 -61 -31 -11 -32 -20 -101 -11 -87 7 11 10
10 15 -3 3 -9 6 -27 6 -39 0 -12 16 -38 38 -58 42 -42 93 -57 188 -58 59 0 63
2 88 34 32 42 38 79 14 84 -11 2 -22 -5 -28 -20 -25 -60 -59 -70 -160 -47 -48
11 -100 52 -100 79 0 9 -5 21 -12 28 -9 9 -9 12 0 12 7 0 12 9 12 19 0 24 12
32 70 48 62 17 119 15 160 -5 31 -15 35 -22 38 -60 2 -23 7 -42 12 -42 4 0 15
-3 23 -6 21 -8 30 39 16 85 -18 60 -65 81 -170 80 -46 -1 -108 -7 -138 -13z"/>
<path d="M272 1086 c-19 -10 -21 -14 -10 -24 14 -11 58 -13 58 -2 0 3 -6 14
-12 23 -11 13 -17 14 -36 3z"/>
<path d="M298 815 c-3 -3 -20 -7 -38 -10 -56 -7 -68 -45 -14 -45 23 0 24 -2
24 -80 0 -88 -21 -146 -66 -185 -24 -21 -32 -45 -15 -45 15 0 62 27 81 48 24
26 50 103 50 150 0 20 3 54 6 74 6 32 10 37 38 40 41 4 42 32 1 36 -16 2 -34
8 -39 13 -11 10 -20 11 -28 4z"/>
</g>
</svg>
