<svg version="1.0" xmlns="http://www.w3.org/2000/svg"
 width="49.000000pt" height="89.000000pt" viewBox="0 0 49.000000 89.000000"
 preserveAspectRatio="xMidYMid meet">
<metadata>
Created by potrace 1.15, written by Peter Selinger 2001-2017
</metadata>
<g transform="translate(0.000000,89.000000) scale(0.100000,-0.100000)"
fill="#000000" stroke="none">
<path d="M370 643 c0 -49 -4 -93 -9 -98 -14 -16 -51 -129 -51 -158 0 -14 -5
-38 -12 -52 -13 -30 -39 -34 -31 -5 4 16 0 20 -17 20 -19 0 -21 4 -16 28 4 15
9 56 11 92 3 36 9 85 14 110 22 104 22 127 2 133 -27 7 -48 -8 -34 -25 11 -13
5 -106 -16 -239 -14 -89 -18 -98 -53 -107 -36 -9 -37 -24 0 -36 15 -5 30 -14
35 -20 5 -7 12 -5 21 7 7 9 19 17 27 17 10 0 10 -3 1 -12 -14 -14 -16 -68 -2
-68 6 0 10 -9 10 -20 0 -11 -5 -20 -11 -20 -18 0 -4 -23 15 -26 11 -2 40 18
70 47 28 27 54 49 59 49 8 0 5 -29 -14 -123 -9 -47 -6 -67 10 -67 12 0 31 48
31 77 0 15 4 40 9 57 24 82 28 116 15 127 -8 6 -15 8 -16 3 -1 -5 -5 81 -8
191 -4 180 -7 200 -22 203 -16 3 -18 -6 -18 -85z m0 -232 c0 -26 -5 -41 -15
-45 -13 -5 -15 0 -9 32 12 65 24 71 24 13z m-30 -131 c-19 -17 -41 -30 -50
-30 -9 1 -2 12 20 30 19 17 41 30 50 30 9 -1 2 -12 -20 -30z"/>
</g>
</svg>
