<svg version="1.0" xmlns="http://www.w3.org/2000/svg"
 width="69.000000pt" height="87.000000pt" viewBox="0 0 69.000000 87.000000"
 preserveAspectRatio="xMidYMid meet">
<metadata>
Created by potrace 1.15, written by Peter Selinger 2001-2017
</metadata>
<g transform="translate(0.000000,87.000000) scale(0.100000,-0.100000)"
fill="#000000" stroke="none">
<path d="M410 631 c0 -42 -13 -51 -72 -51 -16 0 -28 -4 -28 -10 0 -14 35 -30
68 -30 26 0 31 -4 37 -37 4 -21 9 -41 12 -46 10 -17 33 17 33 49 0 33 0 33 62
36 50 2 63 7 66 20 3 14 -7 17 -60 20 -63 3 -63 3 -63 33 0 38 -11 55 -36 55
-15 0 -19 -7 -19 -39z"/>
<path d="M149 653 c-1 -5 -2 -147 -3 -316 -1 -302 -1 -308 19 -305 19 3 20 13
25 303 3 165 1 306 -4 313 -9 13 -35 17 -37 5z"/>
<path d="M57 606 c-33 -33 -29 -158 6 -180 27 -17 37 8 37 95 0 84 -15 113
-43 85z"/>
<path d="M246 608 c-2 -7 -7 -53 -10 -101 -5 -73 -4 -89 9 -93 8 -4 22 -1 30
6 13 10 15 32 13 104 -3 77 -6 91 -21 94 -9 2 -19 -2 -21 -10z"/>
<path d="M332 487 c-14 -17 -5 -28 41 -52 20 -11 37 -22 37 -25 0 -3 -22 -23
-50 -43 -85 -64 -53 -81 40 -22 30 19 58 35 63 35 5 0 27 -16 48 -35 44 -40
51 -41 73 -19 24 24 20 33 -28 54 -24 10 -46 22 -49 27 -3 5 12 20 34 34 40
25 48 51 16 57 -9 2 -34 -10 -54 -27 -21 -17 -44 -31 -51 -31 -8 0 -30 14 -49
30 -37 33 -55 37 -71 17z"/>
<path d="M62 348 c-8 -8 -12 -54 -12 -139 0 -109 2 -128 17 -133 9 -4 20 -3
24 1 10 11 15 255 5 271 -9 15 -19 15 -34 0z"/>
<path d="M240 335 c-5 -14 -10 -75 -10 -134 0 -113 10 -141 45 -127 13 5 15
27 13 143 -3 122 -5 138 -20 141 -12 2 -21 -6 -28 -23z"/>
<path d="M380 283 c-40 -15 -50 -35 -50 -105 0 -97 13 -108 126 -108 122 0
124 2 124 110 0 89 0 89 -37 99 -40 11 -137 13 -163 4z m146 -46 c4 -3 4 -13
1 -22 -8 -20 -147 -22 -147 -2 0 28 25 39 82 35 32 -2 60 -7 64 -11z m2 -94
c-2 -13 -17 -20 -48 -24 -63 -9 -100 -1 -100 22 0 17 8 19 76 19 66 0 75 -2
72 -17z"/>
</g>
</svg>
