<svg version="1.0" xmlns="http://www.w3.org/2000/svg"
 width="95.000000pt" height="129.000000pt" viewBox="0 0 95.000000 129.000000"
 preserveAspectRatio="xMidYMid meet">
<metadata>
Created by potrace 1.15, written by Peter Selinger 2001-2017
</metadata>
<g transform="translate(0.000000,129.000000) scale(0.100000,-0.100000)"
fill="#000000" stroke="none">
<path d="M356 1084 c-9 -8 -28 -36 -43 -62 -14 -26 -34 -56 -44 -67 -10 -11
-23 -31 -29 -45 -5 -14 -24 -50 -41 -80 -72 -128 -109 -204 -109 -224 0 -12
-4 -26 -9 -32 -10 -11 -39 -135 -43 -184 -3 -45 10 -128 23 -135 5 -4 9 -16 9
-29 0 -12 9 -32 20 -44 11 -12 20 -25 20 -30 0 -11 75 -62 90 -62 5 0 10 -4
10 -10 0 -5 11 -10 24 -10 14 0 27 -4 30 -9 3 -5 20 -11 38 -14 18 -3 44 -7
57 -11 60 -14 215 47 279 112 49 49 99 136 122 213 24 80 26 192 5 233 -8 15
-15 37 -15 48 0 19 -17 58 -29 68 -3 3 -14 20 -24 38 -21 37 -19 38 53 45 57
6 186 40 197 51 7 8 -105 3 -187 -8 -19 -3 -69 -8 -110 -11 -286 -20 -356 -26
-370 -30 -8 -2 -22 0 -30 5 -12 7 -11 16 10 57 13 26 33 62 45 78 11 17 28 44
35 60 8 17 23 37 32 46 19 18 24 44 9 54 -5 3 -16 -2 -25 -11z m214 -319 c0
-7 -21 -56 -79 -187 -10 -24 -25 -65 -33 -93 -9 -27 -18 -49 -22 -47 -3 1 -19
5 -36 8 -16 4 -30 10 -30 14 0 4 -15 13 -32 21 -18 7 -35 14 -36 15 -2 1 3 15
11 31 17 32 24 49 67 161 32 82 32 82 111 82 44 0 79 -2 79 -5z m105 -60 c44
-85 55 -130 55 -227 0 -88 -19 -158 -43 -158 -6 0 -30 12 -52 25 -22 14 -47
25 -56 25 -21 0 -99 38 -99 49 0 14 52 156 61 165 5 6 9 18 9 28 0 10 4 18 9
18 4 0 18 32 30 71 28 87 43 87 86 4z m-315 52 c0 -8 -33 -105 -46 -134 -16
-37 -47 -107 -49 -110 -3 -6 -112 40 -124 52 -11 11 -12 20 -4 37 80 168 66
153 148 156 41 1 75 1 75 -1z m-157 -269 c32 -16 37 -23 32 -41 -19 -64 -31
-95 -47 -119 -10 -14 -18 -31 -18 -38 0 -6 -11 -27 -24 -46 -23 -34 -23 -34
-40 11 -21 53 -23 180 -4 231 10 29 15 33 37 27 14 -3 43 -14 64 -25z m152
-68 c66 -30 66 -31 60 -63 -4 -17 -11 -36 -15 -42 -4 -5 -24 -53 -44 -105 -49
-127 -49 -127 -80 -112 -14 7 -38 18 -53 25 -62 27 -68 59 -25 128 15 24 34
64 42 89 19 60 39 110 45 110 2 0 34 -14 70 -30z m250 -105 c17 -8 42 -18 57
-24 26 -10 26 -10 5 -54 -24 -50 -118 -127 -154 -127 -12 0 -24 -4 -28 -9 -3
-6 -27 -13 -53 -17 -44 -8 -58 -8 -82 -5 -5 0 7 36 26 79 46 99 50 109 65 157
6 22 13 43 15 47 4 6 92 -21 149 -47z"/>
</g>
</svg>
