<svg version="1.0" xmlns="http://www.w3.org/2000/svg"
 width="49.000000pt" height="93.000000pt" viewBox="0 0 49.000000 93.000000"
 preserveAspectRatio="xMidYMid meet">
<metadata>
Created by potrace 1.15, written by Peter Selinger 2001-2017
</metadata>
<g transform="translate(0.000000,93.000000) scale(0.100000,-0.100000)"
fill="#000000" stroke="none">
<path d="M425 656 c-16 -6 -36 -17 -44 -24 -7 -7 -31 -20 -52 -29 -22 -8 -39
-18 -39 -22 0 -3 -14 -12 -30 -20 -48 -21 -190 -167 -190 -194 0 -10 -3 -17
-8 -17 -19 0 -57 -130 -53 -180 5 -61 62 -132 116 -146 14 -3 28 -10 30 -15 9
-13 107 1 152 23 45 22 78 75 108 174 23 74 21 245 -3 316 -19 57 -19 57 25
74 30 12 42 22 38 31 -3 8 -5 21 -5 29 0 16 -4 16 -45 0z m-71 -148 c24 -122
26 -143 9 -155 -9 -7 -28 -23 -43 -35 -25 -22 -83 -58 -93 -58 -2 0 -21 25
-42 56 -46 70 -42 80 59 159 39 30 76 59 81 64 15 13 22 5 29 -31z m-214 -235
c33 -46 33 -46 9 -65 -13 -10 -28 -22 -34 -26 -5 -4 -18 -11 -27 -15 -16 -5
-18 0 -18 37 0 37 23 116 33 116 2 0 19 -21 37 -47z m225 -20 c-5 -21 -11 -56
-14 -78 -5 -32 -11 -41 -28 -43 -13 -2 -23 1 -23 7 0 5 -6 16 -12 23 -31 34
-39 58 -24 73 8 8 20 15 26 15 7 0 23 9 37 20 38 29 46 25 38 -17z m-109 -150
c4 -12 4 -30 0 -38 -11 -30 -113 -10 -144 28 -11 12 -11 17 0 26 7 5 29 24 48
40 35 30 35 30 63 -1 15 -17 30 -42 33 -55z"/>
</g>
</svg>
