<svg version="1.0" xmlns="http://www.w3.org/2000/svg"
 width="49.000000pt" height="83.000000pt" viewBox="0 0 49.000000 83.000000"
 preserveAspectRatio="xMidYMid meet">
<metadata>
Created by potrace 1.15, written by Peter Selinger 2001-2017
</metadata>
<g transform="translate(0.000000,83.000000) scale(0.100000,-0.100000)"
fill="#000000" stroke="none">
<path d="M232 514 c5 -71 4 -75 -15 -72 -11 2 -27 17 -36 35 -9 17 -24 36 -33
42 -26 16 -34 -28 -14 -67 19 -37 20 -84 5 -187 -12 -76 -12 -76 22 -118 18
-23 41 -48 51 -55 10 -7 18 -24 18 -38 0 -32 21 -31 73 5 96 66 129 134 129
261 0 47 -5 98 -11 113 -6 16 -11 43 -11 61 0 38 -18 96 -30 96 -19 0 -27 -73
-15 -128 8 -33 8 -33 -31 -30 -39 3 -39 3 -45 56 -7 53 -31 102 -51 102 -7 0
-9 -24 -6 -76z m149 -135 c3 -5 5 -28 4 -51 -1 -43 -1 -43 -41 -39 -21 1 -42
5 -46 8 -10 5 -10 65 0 79 15 23 68 25 83 3z m-131 -39 c0 -49 -1 -50 -30 -50
-27 0 -29 3 -26 28 7 50 18 72 37 72 16 0 19 -8 19 -50z m130 -107 c0 -37 -61
-123 -86 -123 -10 0 -12 14 -8 53 9 80 5 76 82 86 6 0 12 -7 12 -16z m-126 -2
c7 -11 -5 -111 -13 -111 -5 0 -56 83 -69 113 -5 10 76 9 82 -2z"/>
</g>
</svg>
