<svg version="1.0" xmlns="http://www.w3.org/2000/svg"
 width="53.000000pt" height="89.000000pt" viewBox="0 0 53.000000 89.000000"
 preserveAspectRatio="xMidYMid meet">
<metadata>
Created by potrace 1.15, written by Peter Selinger 2001-2017
</metadata>
<g transform="translate(0.000000,89.000000) scale(0.100000,-0.100000)"
fill="#000000" stroke="none">
<path d="M415 638 c-7 -25 -13 -40 -44 -110 -12 -26 -21 -58 -21 -71 0 -13 -3
-26 -6 -29 -11 -12 -73 16 -85 39 -11 21 -10 30 9 66 22 42 30 97 14 97 -5 0
-20 -21 -33 -47 -13 -27 -27 -49 -31 -51 -5 -2 -8 -10 -8 -18 0 -20 -27 -29
-45 -14 -19 16 -19 40 0 76 19 38 19 74 0 74 -8 0 -15 -7 -15 -15 0 -8 -4 -23
-9 -33 -21 -40 -61 -148 -61 -164 0 -10 12 -43 26 -73 22 -47 26 -65 21 -110
-3 -30 -9 -60 -14 -67 -4 -7 -6 -21 -4 -32 1 -10 -3 -22 -11 -27 -10 -7 -10
-12 4 -25 14 -14 38 -18 130 -19 62 -1 124 -5 138 -9 41 -11 60 32 63 146 2
80 -1 99 -20 137 -13 25 -23 58 -23 73 0 29 40 120 67 150 13 14 13 20 -2 47
-18 37 -31 39 -40 9z m-253 -179 c22 -10 44 -44 75 -117 14 -34 14 -34 -14
-31 -40 4 -52 16 -79 76 -36 78 -32 95 18 72z m166 -80 c23 -10 40 -27 53 -57
28 -60 20 -78 -23 -52 -18 11 -41 20 -50 20 -10 0 -18 8 -18 18 -1 9 -7 35
-15 56 -15 42 -9 69 9 44 6 -8 26 -21 44 -29z m-79 -123 c12 -8 15 -83 5 -110
-4 -12 -20 -16 -56 -16 -44 0 -49 2 -43 18 4 9 9 42 12 73 6 56 6 56 38 49 18
-4 38 -10 44 -14z m115 -26 c22 -8 26 -15 26 -52 0 -60 -9 -71 -51 -60 -33 8
-34 10 -35 58 0 27 1 52 3 57 6 10 27 9 57 -3z"/>
</g>
</svg>
