<svg version="1.0" xmlns="http://www.w3.org/2000/svg"
 width="69.000000pt" height="99.000000pt" viewBox="0 0 69.000000 99.000000"
 preserveAspectRatio="xMidYMid meet">
<metadata>
Created by potrace 1.15, written by Peter Selinger 2001-2017
</metadata>
<g transform="translate(0.000000,99.000000) scale(0.100000,-0.100000)"
fill="#000000" stroke="none">
<path d="M242 941 c-12 -7 -12 -12 0 -30 10 -18 20 -21 43 -17 120 20 145 28
145 47 0 11 -170 12 -188 0z"/>
<path d="M447 834 c-2 -2 -63 -4 -136 -5 -73 0 -144 -5 -159 -10 -26 -10 -26
-10 7 -30 20 -12 40 -17 50 -13 9 4 30 8 48 11 32 3 32 3 32 -51 -1 -30 2 -59
5 -65 4 -5 9 -110 12 -233 3 -123 10 -239 15 -258 13 -52 11 -70 -8 -70 -21 0
-70 66 -85 113 -5 17 -14 70 -19 117 -16 166 -19 177 -60 224 -34 39 -83 65
-96 52 -3 -2 13 -24 35 -48 53 -58 58 -70 71 -160 6 -43 16 -112 22 -153 12
-88 28 -123 74 -164 37 -32 44 -34 247 -51 95 -8 133 -8 149 0 37 20 8 29
-130 39 -74 5 -137 13 -141 18 -5 4 -10 59 -11 122 -4 114 -4 114 33 125 21 6
47 19 59 29 20 17 21 25 14 117 -8 115 3 163 42 182 31 15 42 38 18 38 -31 0
-74 -40 -85 -78 -5 -20 -10 -73 -10 -117 0 -44 -6 -91 -13 -105 -11 -22 -61
-50 -71 -39 -2 2 -7 76 -11 164 -3 88 -8 179 -10 202 -3 23 -1 44 3 47 4 2 39
6 77 7 74 3 125 15 125 30 0 5 -8 9 -17 10 -10 0 -30 2 -45 4 -14 2 -28 1 -31
-1z"/>
</g>
</svg>
