<svg version="1.0" xmlns="http://www.w3.org/2000/svg"
 width="37.000000pt" height="63.000000pt" viewBox="0 0 37.000000 63.000000"
 preserveAspectRatio="xMidYMid meet">
<metadata>
Created by potrace 1.15, written by Peter Selinger 2001-2017
</metadata>
<g transform="translate(0.000000,63.000000) scale(0.100000,-0.100000)"
fill="#000000" stroke="none">
<path d="M150 490 c0 -56 10 -75 26 -49 7 12 84 8 115 -5 13 -6 18 0 21 26 3
18 8 40 12 49 10 23 -39 39 -115 39 -59 0 -59 0 -59 -60z m134 19 c5 -4 6 -15
2 -24 -4 -12 -17 -15 -53 -13 -44 3 -48 5 -51 30 -3 28 -3 28 45 22 26 -4 52
-10 57 -15z"/>
<path d="M251 248 c3 -48 -5 -68 -27 -68 -9 0 -14 10 -14 28 -1 30 -21 62 -40
62 -8 0 -9 -6 -4 -17 4 -10 8 -40 9 -68 0 -60 -20 -70 -50 -25 -11 16 -28 30
-37 30 -23 0 -23 0 15 -61 39 -65 87 -113 100 -100 5 5 9 33 9 64 1 53 2 55
32 64 30 9 31 10 31 68 0 40 -4 60 -13 63 -10 3 -13 -7 -11 -40z"/>
</g>
</svg>
