<svg version="1.0" xmlns="http://www.w3.org/2000/svg"
 width="37.000000pt" height="73.000000pt" viewBox="0 0 37.000000 73.000000"
 preserveAspectRatio="xMidYMid meet">
<metadata>
Created by potrace 1.15, written by Peter Selinger 2001-2017
</metadata>
<g transform="translate(0.000000,73.000000) scale(0.100000,-0.100000)"
fill="#000000" stroke="none">
<path d="M172 632 c-83 -3 -83 -3 -77 -35 25 -123 36 -133 111 -110 94 28 94
28 94 75 0 71 -7 74 -128 70z m88 -67 c0 -33 -2 -35 -34 -35 -19 0 -38 -4 -41
-10 -12 -20 -31 -9 -43 23 -20 55 -18 57 53 57 65 0 65 0 65 -35z"/>
<path d="M297 414 c-4 -4 -7 -23 -7 -41 0 -43 -21 -40 -32 6 -12 43 -28 30
-28 -22 0 -31 -5 -45 -19 -54 -24 -15 -31 -8 -31 31 0 30 -15 65 -23 56 -9
-10 -17 -214 -11 -275 7 -65 7 -65 40 -40 18 14 44 29 58 35 30 11 29 10 26
113 -2 79 -3 78 40 81 11 1 15 14 15 55 0 50 -11 72 -28 55z m-52 -204 c6 -53
6 -56 -23 -72 -29 -17 -30 -17 -36 5 -3 12 -6 41 -6 64 0 32 5 46 22 57 29 20
35 13 43 -54z"/>
</g>
</svg>
