<svg version="1.0" xmlns="http://www.w3.org/2000/svg"
 width="51.000000pt" height="101.000000pt" viewBox="0 0 51.000000 101.000000"
 preserveAspectRatio="xMidYMid meet">
<metadata>
Created by potrace 1.15, written by Peter Selinger 2001-2017
</metadata>
<g transform="translate(0.000000,101.000000) scale(0.100000,-0.100000)"
fill="#000000" stroke="none">
<path d="M109 793 c-1 -5 -1 -47 0 -95 1 -53 -3 -88 -9 -88 -25 0 -8 -39 24
-54 40 -19 42 -19 123 -5 63 11 63 11 63 113 -1 68 -5 107 -14 119 -19 24 -26
21 -26 -12 0 -17 -3 -32 -7 -34 -16 -7 -113 15 -113 26 0 14 -39 42 -41 30z
m159 -145 c3 -38 3 -38 -47 -38 -51 0 -51 0 -51 41 0 40 0 40 48 37 47 -3 47
-3 50 -40z"/>
<path d="M335 388 c-9 -70 -24 -120 -36 -113 -5 4 -9 14 -9 24 0 20 -28 81
-37 81 -3 0 -3 -51 1 -112 10 -172 20 -200 46 -133 8 19 17 35 20 35 3 0 12
16 20 35 8 20 30 45 50 59 41 27 55 70 43 139 -8 51 -23 47 -23 -6 0 -39 -13
-67 -31 -67 -5 0 -9 23 -11 52 -4 70 -24 74 -33 6z"/>
</g>
</svg>
