<svg version="1.0" xmlns="http://www.w3.org/2000/svg"
 width="57.000000pt" height="89.000000pt" viewBox="0 0 57.000000 89.000000"
 preserveAspectRatio="xMidYMid meet">
<metadata>
Created by potrace 1.15, written by Peter Selinger 2001-2017
</metadata>
<g transform="translate(0.000000,89.000000) scale(0.100000,-0.100000)"
fill="#000000" stroke="none">
<path d="M256 671 c-4 -6 -24 -10 -44 -9 -37 3 -37 3 -35 -62 5 -120 8 -127
56 -135 23 -3 71 -9 107 -11 36 -3 71 -11 78 -17 22 -18 32 11 32 91 0 46 -5
78 -12 86 -17 16 -87 36 -126 36 -18 0 -35 7 -40 16 -7 12 -11 13 -16 5z m141
-93 c5 -7 9 -26 8 -43 -2 -28 -5 -30 -36 -27 -19 1 -45 2 -59 3 -50 0 -80 19
-80 50 0 29 0 29 79 29 51 0 82 -4 88 -12z"/>
<path d="M94 416 c-8 -21 74 -96 149 -136 22 -12 34 -28 40 -51 29 -120 47
-159 72 -159 10 0 15 11 15 34 0 19 5 38 10 41 6 3 10 17 10 30 0 13 5 27 10
30 6 3 10 22 10 41 0 19 9 54 20 77 18 36 18 43 6 56 -20 19 -46 -1 -46 -35 0
-32 -21 -76 -34 -69 -6 3 -18 8 -27 11 -17 6 -29 45 -29 95 0 31 -18 48 -30
29 -5 -7 -6 -28 -3 -47 3 -18 3 -33 0 -33 -16 0 -85 45 -110 71 -30 31 -54 37
-63 15z m262 -202 c-3 -9 -6 -22 -6 -30 0 -9 -4 -12 -10 -9 -17 10 -12 55 6
55 11 0 14 -5 10 -16z"/>
</g>
</svg>
