<svg version="1.0" xmlns="http://www.w3.org/2000/svg"
 width="69.000000pt" height="105.000000pt" viewBox="0 0 69.000000 105.000000"
 preserveAspectRatio="xMidYMid meet">
<metadata>
Created by potrace 1.15, written by Peter Selinger 2001-2017
</metadata>
<g transform="translate(0.000000,105.000000) scale(0.100000,-0.100000)"
fill="#000000" stroke="none">
<path d="M520 990 c-36 -5 -103 -13 -150 -19 -47 -5 -110 -13 -140 -18 -30 -4
-83 -7 -118 -6 -34 0 -62 -1 -62 -3 0 -1 4 -14 10 -29 5 -14 11 -69 12 -122 2
-96 2 -96 34 -109 22 -9 41 -11 57 -5 24 9 271 26 385 26 60 0 62 1 71 30 11
36 35 244 29 251 -10 9 -67 11 -128 4z m86 -104 c-19 -151 -9 -136 -86 -136
-38 0 -91 -4 -117 -9 -26 -6 -98 -12 -160 -16 -108 -5 -112 -5 -124 17 -11 20
-16 154 -7 164 3 2 29 6 59 8 30 2 128 9 218 15 91 6 166 13 169 15 2 3 15 0
28 -6 22 -10 24 -16 20 -52z"/>
<path d="M550 635 c0 -74 -17 -121 -58 -162 -37 -37 -37 -37 -43 65 -5 94 -11
123 -24 110 -3 -3 -8 -52 -11 -109 -3 -57 -7 -114 -9 -125 -5 -21 -99 -94
-122 -94 -7 0 -14 27 -18 68 -3 37 -12 81 -20 97 -13 28 -14 21 -14 -82 -1
-74 3 -113 10 -113 6 0 8 -8 4 -20 -7 -23 10 -94 28 -112 6 -7 23 -33 36 -58
33 -61 61 -79 61 -40 0 11 4 28 9 38 5 9 14 37 21 62 7 25 16 53 21 62 5 10 9
37 9 62 0 81 9 102 53 127 47 25 87 67 87 88 0 8 5 29 12 47 9 26 9 42 -2 76
-20 64 -30 68 -30 13z m-160 -331 c0 -14 -4 -33 -9 -43 -5 -9 -12 -42 -14 -71
-2 -30 -9 -56 -14 -57 -16 -6 -65 77 -70 117 -5 35 -3 38 38 58 57 28 69 28
69 -4z"/>
</g>
</svg>
