<svg version="1.0" xmlns="http://www.w3.org/2000/svg"
 width="35.000000pt" height="61.000000pt" viewBox="0 0 35.000000 61.000000"
 preserveAspectRatio="xMidYMid meet">
<metadata>
Created by potrace 1.15, written by Peter Selinger 2001-2017
</metadata>
<g transform="translate(0.000000,61.000000) scale(0.100000,-0.100000)"
fill="#000000" stroke="none">
<path d="M110 471 c0 -35 5 -63 13 -69 6 -6 37 -12 67 -13 55 -3 55 -3 58 71
2 60 0 72 -10 62 -14 -14 -108 -16 -108 -2 0 6 -4 10 -10 10 -6 0 -10 -26 -10
-59z m115 -11 c0 -22 -5 -25 -42 -28 -44 -3 -51 5 -37 43 5 12 17 15 43 13 31
-3 36 -6 36 -28z"/>
<path d="M170 261 c0 -52 -4 -70 -15 -75 -18 -6 -45 2 -45 15 0 5 -4 9 -10 9
-25 0 10 -82 61 -143 27 -32 27 -32 27 9 0 57 19 112 42 119 11 3 30 21 42 38
12 18 25 34 29 37 4 3 11 18 14 33 10 39 -9 34 -42 -12 -15 -22 -36 -44 -45
-50 -15 -10 -18 -7 -18 13 0 29 -20 76 -32 76 -4 0 -8 -31 -8 -69z"/>
</g>
</svg>
