<svg version="1.0" xmlns="http://www.w3.org/2000/svg"
 width="81.000000pt" height="157.000000pt" viewBox="0 0 81.000000 157.000000"
 preserveAspectRatio="xMidYMid meet">
<metadata>
Created by potrace 1.15, written by Peter Selinger 2001-2017
</metadata>
<g transform="translate(0.000000,157.000000) scale(0.100000,-0.100000)"
fill="#000000" stroke="none">
<path d="M358 1431 c-64 -3 -119 -9 -123 -13 -21 -20 15 -28 133 -28 136 0
202 12 202 35 0 16 5 16 -212 6z"/>
<path d="M757 1359 c-9 -6 -21 -8 -26 -5 -4 3 -68 -1 -142 -9 -74 -8 -195 -16
-269 -19 -74 -3 -157 -7 -183 -10 -54 -4 -107 -24 -107 -38 0 -11 138 -6 157
5 12 8 104 -33 133 -58 8 -7 28 -15 45 -17 29 -3 30 -6 44 -78 11 -61 11 -97
2 -195 -10 -93 -10 -131 0 -170 6 -27 13 -93 15 -145 7 -243 12 -539 8 -543
-3 -3 -22 0 -44 5 -48 12 -65 47 -55 110 14 87 17 351 5 398 -22 81 -34 115
-52 142 -10 14 -18 31 -18 37 0 6 -7 11 -15 11 -8 0 -15 6 -15 14 0 7 -9 16
-20 19 -28 7 -26 -2 22 -94 22 -44 46 -104 52 -132 12 -62 13 -293 2 -395 -16
-130 22 -189 113 -178 25 2 91 9 146 14 106 10 145 23 145 48 0 13 -14 14
-104 8 -102 -6 -103 -6 -110 17 -4 13 -10 114 -13 223 -5 185 -4 200 13 213
10 7 26 13 36 13 26 0 60 37 76 81 15 44 16 126 1 204 -11 61 0 164 23 208 24
46 28 57 28 70 0 7 18 23 40 37 22 14 40 33 40 42 0 25 -14 23 -61 -9 -75 -49
-129 -200 -115 -320 18 -155 18 -174 6 -206 -19 -46 -40 -67 -67 -67 -22 0
-23 3 -23 70 0 39 4 70 9 70 26 0 48 149 23 158 -6 2 -8 10 -5 18 3 8 -2 21
-11 27 -14 10 -17 31 -18 112 0 169 -2 160 38 175 19 8 43 27 52 42 18 31 63
48 125 48 39 0 71 12 94 36 17 16 3 25 -20 13z"/>
</g>
</svg>
