<svg version="1.0" xmlns="http://www.w3.org/2000/svg"
 width="62.000000pt" height="83.000000pt" viewBox="0 0 62.000000 83.000000"
 preserveAspectRatio="xMidYMid meet">
<metadata>
Created by potrace 1.15, written by Peter Selinger 2001-2017
</metadata>
<g transform="translate(0.000000,83.000000) scale(0.100000,-0.100000)"
fill="#000000" stroke="none">
<path d="M275 487 c-4 -13 -5 -41 -3 -63 3 -35 6 -39 32 -42 15 -2 41 2 58 9
27 11 29 15 26 63 -3 51 -3 51 -55 54 -48 3 -53 1 -58 -21z m80 -37 c0 -18 -6
-26 -23 -28 -13 -2 -25 3 -28 12 -10 26 4 48 28 44 17 -2 23 -10 23 -28z"/>
<path d="M425 487 c-4 -14 -5 -38 -3 -53 3 -26 7 -29 42 -32 22 -2 50 -1 63 3
22 5 24 10 21 53 -3 47 -3 47 -60 50 -54 3 -58 1 -63 -21z m85 -33 c0 -21 -4
-25 -22 -22 -15 2 -24 11 -26 26 -3 18 1 22 22 22 21 0 26 -5 26 -26z"/>
<path d="M50 451 c0 -27 3 -63 6 -80 6 -27 10 -31 40 -31 34 0 34 0 34 -126 0
-114 -2 -125 -17 -122 -16 3 -18 17 -21 106 -2 81 -6 102 -17 102 -8 0 -17
-11 -21 -25 -8 -31 -1 -211 8 -220 12 -12 189 6 185 19 -2 6 -21 13 -43 16
-31 4 -40 10 -42 28 -3 18 1 22 26 22 44 0 53 19 50 96 -2 55 -6 69 -20 72
-14 3 -18 -7 -20 -64 -4 -87 -23 -95 -31 -15 -9 78 0 121 24 121 35 0 50 28
47 89 -2 44 -7 57 -20 59 -11 2 -18 -3 -18 -12 0 -22 -98 -23 -106 -1 -4 8
-15 15 -25 15 -16 0 -19 -8 -19 -49z m136 -11 c22 0 16 -38 -6 -50 -31 -17
-84 -9 -88 13 -6 30 18 49 51 43 16 -3 36 -6 43 -6z"/>
<path d="M447 353 c-15 -4 -17 -13 -15 -51 3 -47 3 -47 54 -50 56 -3 64 5 64
69 0 36 -40 48 -103 32z m57 -32 c9 -14 -4 -41 -19 -41 -18 0 -28 17 -21 35 6
17 32 20 40 6z"/>
<path d="M298 343 c-20 -5 -31 -38 -26 -74 3 -22 9 -24 61 -27 57 -3 57 -3 57
53 0 55 0 55 -37 54 -21 -1 -46 -3 -55 -6z m66 -39 c8 -21 -1 -34 -24 -34 -22
0 -34 15 -26 35 7 20 42 19 50 -1z"/>
<path d="M402 228 c-7 -7 -12 -18 -12 -25 0 -9 -16 -13 -50 -13 -42 0 -50 -3
-50 -19 0 -16 6 -17 50 -13 29 2 50 0 50 -5 0 -5 -21 -25 -47 -43 -27 -18 -50
-35 -52 -36 -6 -5 20 -34 30 -34 5 0 26 16 48 35 21 19 42 35 46 35 4 0 28
-16 52 -36 44 -36 73 -39 73 -9 0 9 -15 22 -34 30 -18 8 -41 26 -50 40 -16 25
-16 25 31 25 27 0 54 4 62 9 26 17 -1 31 -58 31 -48 0 -59 3 -57 16 1 21 -16
28 -32 12z"/>
</g>
</svg>
