<svg version="1.0" xmlns="http://www.w3.org/2000/svg"
 width="65.000000pt" height="81.000000pt" viewBox="0 0 65.000000 81.000000"
 preserveAspectRatio="xMidYMid meet">
<metadata>
Created by potrace 1.15, written by Peter Selinger 2001-2017
</metadata>
<g transform="translate(0.000000,81.000000) scale(0.100000,-0.100000)"
fill="#000000" stroke="none">
<path d="M509 645 c-1 -3 -2 -10 -3 -17 0 -6 -14 -16 -31 -21 -16 -6 -33 -14
-36 -19 -3 -4 -16 3 -29 17 -20 21 -32 25 -85 25 -40 0 -68 -6 -84 -16 -22
-16 -23 -22 -19 -106 4 -111 14 -123 100 -114 32 3 67 11 78 18 15 10 22 10
32 0 13 -13 86 -16 104 -4 23 15 34 53 34 121 0 84 -12 121 -40 121 -11 0 -21
-2 -21 -5z m-209 -85 c0 -13 -7 -20 -20 -20 -19 0 -27 20 -13 33 13 14 33 6
33 -13z m80 -6 c0 -16 -16 -19 -25 -4 -8 13 4 32 16 25 5 -4 9 -13 9 -21z
m104 10 c22 -9 20 -34 -3 -34 -10 0 -24 -7 -31 -15 -11 -13 -8 -16 20 -21 32
-7 50 -29 34 -43 -5 -5 -25 -11 -44 -14 -35 -5 -35 -5 -32 52 5 83 11 92 56
75z m-104 -84 c0 -11 -4 -20 -10 -20 -5 0 -10 9 -10 20 0 11 5 20 10 20 6 0
10 -9 10 -20z m-72 -12 c-2 -13 -10 -23 -18 -23 -8 0 -16 10 -18 23 -3 17 2
22 18 22 16 0 21 -5 18 -22z"/>
<path d="M56 614 c-3 -9 -6 -58 -6 -109 0 -75 3 -97 18 -115 18 -22 21 -22 63
-9 52 17 56 30 12 41 -44 11 -44 40 -1 56 33 12 30 27 -7 34 -33 6 -29 33 7
43 42 13 44 39 3 43 -16 2 -34 10 -38 18 -11 19 -43 18 -51 -2z"/>
<path d="M180 349 c-30 -5 -66 -18 -80 -28 -24 -17 -25 -23 -28 -148 -2 -109
0 -132 12 -136 33 -13 46 20 46 121 0 104 2 109 40 135 20 14 49 17 151 17
203 0 188 11 191 -144 3 -126 4 -131 25 -134 33 -5 39 21 35 166 -4 132 -4
132 -39 147 -40 17 -258 19 -353 4z"/>
<path d="M186 283 c-3 -3 -6 -45 -6 -93 0 -74 3 -89 21 -109 32 -34 61 -41
174 -41 93 0 105 2 115 20 17 31 -17 41 -128 38 -127 -4 -132 0 -132 98 0 61
-3 75 -19 83 -10 6 -21 7 -25 4z"/>
<path d="M285 266 c-11 -16 -15 -41 -13 -78 3 -53 3 -53 90 -53 93 0 114 8 83
31 -14 11 -34 14 -65 10 -48 -6 -34 1 48 23 42 12 43 13 40 49 -3 37 -3 37
-85 40 -78 3 -83 1 -98 -22z m115 -31 c0 -11 -11 -15 -40 -15 -38 0 -49 8 -33
23 3 4 21 7 40 7 23 0 33 -5 33 -15z"/>
</g>
</svg>
