<svg version="1.0" xmlns="http://www.w3.org/2000/svg"
 width="70.000000pt" height="133.000000pt" viewBox="0 0 70.000000 133.000000"
 preserveAspectRatio="xMidYMid meet">
<metadata>
Created by potrace 1.15, written by Peter Selinger 2001-2017
</metadata>
<g transform="translate(0.000000,133.000000) scale(0.100000,-0.100000)"
fill="#000000" stroke="none">
<path d="M201 1072 c-2 -89 6 -120 43 -174 35 -53 23 -318 -15 -318 -4 0 -8
66 -8 147 0 117 -3 149 -15 161 -23 23 -25 10 -30 -183 -2 -93 -8 -197 -14
-230 -9 -63 -27 -115 -38 -115 -6 0 -1 166 12 428 3 52 1 92 -4 92 -20 0 -30
-27 -36 -90 -12 -147 -19 -199 -27 -194 -5 3 -9 22 -9 42 0 20 -4 54 -9 75 -5
21 -5 50 -1 65 5 15 14 45 21 67 6 22 25 59 41 83 29 42 50 127 41 163 -9 32
-17 21 -38 -46 -10 -36 -23 -65 -27 -65 -4 0 -8 -6 -8 -13 0 -7 -8 -22 -19
-33 -39 -43 -44 -65 -45 -216 -1 -89 3 -152 9 -156 20 -14 45 -71 49 -113 3
-24 5 -115 5 -202 1 -144 3 -159 21 -177 29 -29 41 -16 36 38 -3 26 -8 75 -12
109 -6 58 -4 65 20 94 31 37 56 92 56 124 0 30 23 73 49 91 48 34 69 129 59
264 -7 92 -11 110 -38 154 -28 44 -31 57 -30 120 2 98 2 96 -19 96 -16 0 -19
-9 -20 -88z"/>
<path d="M427 1076 c-61 -23 -66 -36 -67 -171 0 -134 13 -170 70 -203 55 -31
43 -58 -77 -175 -77 -76 -104 -109 -100 -121 10 -25 29 -11 134 94 63 64 97
91 108 86 38 -14 26 -36 -71 -128 -54 -51 -113 -107 -131 -125 -61 -58 -29
-75 41 -20 22 17 83 74 133 126 91 92 93 94 113 76 16 -15 18 -21 8 -34 -30
-39 -177 -198 -212 -230 -22 -20 -47 -43 -55 -52 -9 -8 -31 -26 -48 -38 -33
-22 -42 -44 -23 -56 5 -3 31 9 57 26 53 36 223 203 269 265 47 63 54 69 64 54
12 -20 0 -80 -25 -125 -30 -52 -175 -205 -229 -242 -61 -41 -67 -48 -53 -62 6
-6 18 -11 27 -11 20 0 83 46 127 92 198 209 193 202 193 307 0 79 0 81 -38
118 -21 21 -57 54 -81 73 -39 32 -47 48 -42 88 0 6 14 12 29 12 56 0 92 81 92
208 0 81 -13 133 -40 157 -27 24 -121 30 -173 11z m139 -67 c8 -6 14 -24 14
-40 0 -28 -1 -29 -52 -29 -29 -1 -70 -3 -90 -6 -38 -6 -38 -5 -38 29 0 53 36
76 102 66 28 -5 56 -13 64 -20z m-33 -128 c46 -1 47 -2 47 -33 0 -54 -11 -78
-41 -93 -37 -20 -69 -18 -95 3 -30 25 -44 56 -44 95 0 35 0 35 43 32 23 -1 63
-3 90 -4z"/>
</g>
</svg>
