<svg version="1.0" xmlns="http://www.w3.org/2000/svg"
 width="74.000000pt" height="91.000000pt" viewBox="0 0 74.000000 91.000000"
 preserveAspectRatio="xMidYMid meet">
<metadata>
Created by potrace 1.15, written by Peter Selinger 2001-2017
</metadata>
<g transform="translate(0.000000,91.000000) scale(0.100000,-0.100000)"
fill="#000000" stroke="none">
<path d="M257 724 c-3 -3 -3 -20 0 -38 5 -30 0 -37 -42 -71 -33 -28 -57 -60
-82 -112 -36 -76 -37 -110 -1 -60 24 33 33 34 54 2 16 -24 15 -26 -15 -60 -54
-62 -101 -175 -73 -175 5 0 37 42 72 93 62 91 150 187 171 187 20 0 0 -74 -26
-95 -13 -11 -52 -42 -85 -69 -34 -28 -60 -57 -60 -67 0 -11 2 -19 4 -19 2 0
28 16 58 35 29 19 55 30 56 25 6 -17 -18 -69 -71 -154 -33 -53 -45 -82 -38
-89 15 -15 122 93 156 158 34 63 40 62 81 -23 38 -77 149 -181 171 -159 3 3
-18 34 -46 69 -28 35 -55 68 -59 73 -12 16 -62 125 -62 135 0 16 12 12 80 -29
44 -27 68 -36 75 -30 12 13 -45 64 -127 115 -52 32 -58 39 -58 69 0 19 -5 46
-10 61 -7 18 -7 30 1 40 16 19 3 47 -40 87 -25 23 -41 48 -45 71 -6 33 -23 46
-39 30z m58 -144 c17 -19 17 -21 0 -47 -18 -27 -18 -27 -27 -3 -5 14 -16 29
-24 33 -12 7 -13 12 -3 23 16 19 33 18 54 -6z m-78 -56 c3 -9 14 -19 25 -23
18 -6 18 -8 -5 -29 -23 -22 -23 -22 -46 9 -12 17 -20 37 -17 45 7 19 35 18 43
-2z"/>
<path d="M466 680 c-14 -17 -26 -38 -26 -46 0 -8 -7 -26 -16 -40 -35 -53 14
-129 113 -177 31 -15 46 -18 54 -10 8 8 -3 22 -36 49 -26 22 -53 51 -61 66
-18 35 -18 89 1 135 21 50 5 62 -29 23z"/>
</g>
</svg>
