<svg version="1.0" xmlns="http://www.w3.org/2000/svg"
 width="69.000000pt" height="90.000000pt" viewBox="0 0 69.000000 90.000000"
 preserveAspectRatio="xMidYMid meet">
<metadata>
Created by potrace 1.15, written by Peter Selinger 2001-2017
</metadata>
<g transform="translate(0.000000,90.000000) scale(0.100000,-0.100000)"
fill="#000000" stroke="none">
<path d="M358 857 c-41 -33 -48 -65 -48 -215 0 -75 -5 -189 -11 -252 -5 -63
-10 -155 -10 -205 0 -129 2 -125 -80 -125 -74 0 -96 -15 -66 -44 12 -12 38
-14 145 -10 72 3 139 7 149 9 10 2 69 4 131 4 92 1 114 4 119 16 8 22 -2 29
-46 29 -22 1 -42 4 -46 8 -4 3 -6 170 -6 370 2 363 2 363 -29 401 -31 36 -32
37 -103 37 -60 0 -77 -4 -99 -23z m162 -37 c11 -7 15 -31 15 -97 0 -88 0 -88
-81 -89 -45 -1 -87 1 -93 5 -9 6 -9 25 -1 77 14 92 18 102 38 107 32 9 107 7
122 -3z m-8 -251 c-1 -9 4 -19 13 -23 12 -4 15 -23 15 -86 0 -80 0 -80 -95
-80 -95 0 -95 0 -95 100 0 99 0 99 63 103 93 5 102 4 99 -14z m22 -274 c3 -13
3 -69 0 -125 -8 -117 -4 -113 -124 -108 -75 3 -75 3 -72 73 5 102 11 166 18
176 3 5 43 9 89 9 80 0 83 -1 89 -25z"/>
<path d="M36 764 c-10 -25 -7 -266 4 -323 15 -80 67 -119 138 -105 19 4 34 16
42 33 7 14 16 33 21 42 4 9 8 86 9 170 2 211 3 199 -20 199 -20 0 -23 -8 -21
-65 2 -44 -8 -53 -67 -61 -52 -7 -52 -7 -52 60 0 63 -1 66 -24 66 -13 0 -27
-7 -30 -16z m171 -246 c-7 -101 -12 -116 -43 -124 -42 -11 -72 3 -83 38 -13
43 -12 151 3 160 6 4 38 8 70 8 59 0 59 0 53 -82z"/>
</g>
</svg>
