<svg version="1.0" xmlns="http://www.w3.org/2000/svg"
 width="55.000000pt" height="121.000000pt" viewBox="0 0 55.000000 121.000000"
 preserveAspectRatio="xMidYMid meet">
<metadata>
Created by potrace 1.15, written by Peter Selinger 2001-2017
</metadata>
<g transform="translate(0.000000,121.000000) scale(0.100000,-0.100000)"
fill="#000000" stroke="none">
<path d="M317 1014 c-11 -11 -8 -84 3 -84 14 0 32 38 28 62 -3 22 -19 33 -31
22z"/>
<path d="M241 947 c-6 -16 -11 -36 -11 -45 0 -9 -7 -42 -16 -72 -39 -142 -44
-163 -44 -200 0 -30 5 -42 21 -51 16 -8 20 -17 14 -37 -33 -135 -35 -162 -17
-200 9 -20 27 -41 39 -47 24 -10 24 -11 58 -143 13 -51 26 -96 29 -99 11 -11
18 27 12 60 -4 17 -9 54 -12 82 -3 27 -14 66 -25 87 -18 35 -18 37 -2 31 10
-3 37 -19 60 -35 67 -45 67 -14 0 47 -55 49 -66 70 -49 91 14 15 32 89 32 130
0 67 12 70 63 13 26 -29 47 -56 47 -60 0 -22 30 -6 44 23 9 17 16 32 16 33 0
1 -11 0 -23 -2 -19 -4 -35 8 -83 62 -83 93 -86 101 -63 147 20 39 26 118 9
118 -5 0 -10 -6 -10 -14 0 -23 -26 -26 -44 -5 -9 11 -16 34 -16 52 0 17 -4 39
-10 47 -7 11 -11 9 -19 -13z m49 -151 c0 -28 -12 -34 -28 -13 -7 9 -9 41 -3
65 1 2 8 -3 16 -12 8 -8 15 -26 15 -40z m-20 -88 c0 -24 -30 -69 -41 -62 -13
7 -11 48 3 78 9 20 14 23 25 15 7 -6 13 -20 13 -31z m12 -211 c-4 -7 -14 -31
-22 -54 -14 -45 -17 -48 -37 -35 -14 9 14 126 40 163 9 13 18 33 19 44 1 11 3
-9 5 -43 2 -35 0 -69 -5 -75z"/>
<path d="M130 882 c0 -15 -4 -41 -9 -59 -7 -23 -5 -37 4 -50 11 -15 14 -16 18
-3 14 41 17 74 11 106 -7 41 -24 45 -24 6z"/>
<path d="M442 757 c-5 -6 -12 -38 -14 -70 -4 -48 -2 -60 12 -67 26 -14 30 -3
30 71 0 68 -9 90 -28 66z"/>
</g>
</svg>
