<svg version="1.0" xmlns="http://www.w3.org/2000/svg"
 width="67.000000pt" height="122.000000pt" viewBox="0 0 67.000000 122.000000"
 preserveAspectRatio="xMidYMid meet">
<metadata>
Created by potrace 1.15, written by Peter Selinger 2001-2017
</metadata>
<g transform="translate(0.000000,122.000000) scale(0.100000,-0.100000)"
fill="#000000" stroke="none">
<path d="M95 1120 c-4 -6 -5 -49 -4 -96 3 -75 1 -88 -16 -100 -10 -8 -24 -14
-31 -14 -19 0 -23 -50 -29 -330 -2 -146 -7 -304 -11 -352 -5 -76 -4 -89 10
-94 9 -4 19 -4 22 -2 8 9 16 169 16 342 0 93 2 174 4 180 3 7 31 11 72 11 67
0 67 0 63 -266 -3 -247 -2 -266 14 -273 10 -3 21 -4 24 0 3 3 6 85 7 182 0 98
4 265 8 372 7 195 7 195 -17 223 -13 15 -31 27 -40 27 -29 0 -47 12 -47 31 0
19 37 41 53 32 15 -9 57 7 57 22 0 11 -12 15 -49 15 -49 0 -49 0 -56 40 -7 41
-37 71 -50 50z m98 -262 c18 -48 14 -118 -9 -135 -10 -7 -42 -13 -72 -13 -54
0 -54 0 -47 78 4 42 9 79 11 81 4 4 66 18 91 20 7 0 18 -14 26 -31z"/>
<path d="M300 1073 c0 -10 -2 -57 -4 -105 -3 -85 -3 -89 25 -118 16 -16 32
-30 35 -30 3 0 25 9 50 20 30 14 44 27 44 40 0 10 5 22 10 25 11 7 6 137 -6
168 -13 36 -44 12 -44 -33 0 -20 -19 -30 -56 -30 -21 0 -24 4 -19 20 9 27 -3
60 -21 60 -8 0 -14 -8 -14 -17z m116 -104 c14 -23 14 -71 0 -85 -18 -17 -53
-18 -69 -1 -7 6 -13 29 -14 49 -3 31 1 37 20 41 41 8 56 7 63 -4z"/>
<path d="M588 1063 c-2 -22 -9 -29 -30 -31 -22 -3 -28 1 -28 16 0 17 -27 39
-35 30 -2 -2 -5 -44 -6 -95 -4 -82 -2 -94 19 -122 28 -39 69 -41 101 -7 20 22
23 35 23 113 0 125 0 123 -21 123 -14 0 -21 -8 -23 -27z m4 -110 c7 -49 -1
-64 -30 -61 -21 2 -28 9 -30 31 -5 41 4 57 32 57 18 0 25 -6 28 -27z"/>
<path d="M383 777 c-65 -13 -73 -29 -73 -146 0 -84 2 -91 28 -119 16 -17 42
-34 58 -37 51 -12 54 -14 54 -45 0 -33 2 -32 -117 -35 -59 -1 -71 -8 -53 -30
11 -13 27 -15 92 -9 78 7 78 7 79 -112 1 -66 1 -140 0 -165 -2 -30 2 -49 12
-58 25 -20 29 1 34 168 4 136 7 158 23 175 15 15 22 17 33 8 8 -7 25 -10 38
-8 13 3 32 5 42 5 9 1 17 8 17 17 0 9 -6 14 -13 11 -7 -3 -40 0 -73 7 -53 11
-59 14 -62 39 -3 22 1 27 20 27 28 1 47 15 72 55 16 24 19 46 17 123 -2 106
-8 117 -67 125 -89 14 -111 14 -161 4z m64 -77 c0 -40 0 -40 -48 -40 -55 0
-64 8 -48 44 8 17 21 26 43 29 17 2 36 5 42 5 7 1 11 -14 11 -38z m97 30 c18
-7 26 -17 26 -34 0 -25 -16 -36 -56 -36 -21 0 -24 5 -24 34 0 19 6 37 13 39 6
3 13 6 14 6 1 1 13 -3 27 -9z m-101 -130 c5 -4 7 -20 5 -36 -4 -34 -36 -44
-74 -23 -26 14 -34 63 -11 72 15 7 69 -2 80 -13z m127 0 c0 -32 -21 -68 -43
-74 -30 -8 -37 1 -37 44 0 40 7 46 58 49 16 1 22 -5 22 -19z"/>
</g>
</svg>
