<svg version="1.0" xmlns="http://www.w3.org/2000/svg"
 width="68.000000pt" height="79.000000pt" viewBox="0 0 68.000000 79.000000"
 preserveAspectRatio="xMidYMid meet">
<metadata>
Created by potrace 1.15, written by Peter Selinger 2001-2017
</metadata>
<g transform="translate(0.000000,79.000000) scale(0.100000,-0.100000)"
fill="#000000" stroke="none">
<path d="M163 686 c-43 -19 -56 -72 -23 -98 48 -39 170 -7 170 45 0 12 -7 33
-16 45 -18 26 -80 30 -131 8z m88 -26 c26 -15 24 -36 -6 -56 -21 -14 -31 -15
-51 -6 -30 14 -40 37 -24 57 14 17 53 20 81 5z"/>
<path d="M487 645 c-49 -34 -56 -66 -24 -109 40 -51 43 -77 13 -106 -26 -23
-26 -23 -26 1 0 28 -25 68 -35 57 -4 -4 -2 -23 5 -43 12 -36 9 -140 -5 -198
-6 -23 -5 -26 10 -21 23 9 35 46 35 112 0 46 4 60 20 70 19 12 20 10 20 -71 0
-86 -21 -170 -61 -249 -38 -74 -15 -81 30 -9 32 53 71 220 71 306 0 45 0 45
36 27 36 -17 36 -17 30 -77 -4 -33 -14 -81 -23 -107 -17 -47 -14 -66 6 -53 31
18 67 191 58 271 -5 52 -30 85 -48 67 -9 -9 -9 -19 1 -43 33 -81 -44 -35 -86
52 -35 71 -33 88 16 113 17 9 30 20 30 25 0 18 -35 10 -73 -15z"/>
<path d="M150 523 c-31 -26 -32 -28 -28 -99 3 -64 7 -77 33 -104 68 -71 155
-8 155 114 0 69 -6 83 -41 101 -43 23 -83 18 -119 -12z m110 -18 c11 -13 5
-15 -45 -15 -50 0 -56 2 -45 15 7 8 27 15 45 15 18 0 38 -7 45 -15z m20 -70
c0 -24 -2 -25 -70 -25 -69 0 -76 3 -64 34 5 12 21 16 70 16 62 0 64 -1 64 -25z
m-12 -77 c-20 -30 -73 -36 -99 -12 -31 28 -23 34 47 34 66 0 66 0 52 -22z"/>
<path d="M350 424 c0 -84 -6 -99 -62 -164 -37 -42 -39 -47 -33 -90 9 -56 31
-100 50 -100 19 0 19 21 0 46 -14 19 -21 94 -9 94 4 0 24 -16 45 -35 64 -57
83 -43 24 18 -40 41 -43 59 -15 94 17 22 20 41 20 119 0 56 -4 94 -10 94 -6 0
-10 -32 -10 -76z"/>
<path d="M58 444 c-17 -17 -7 -101 17 -152 31 -65 31 -78 -1 -125 -14 -21 -23
-42 -19 -45 9 -9 65 54 65 74 0 19 20 14 33 -8 14 -21 2 -61 -28 -96 -29 -34
-31 -42 -11 -42 8 0 28 16 45 35 48 55 42 101 -24 175 -23 25 -62 124 -67 168
-2 13 -6 20 -10 16z"/>
</g>
</svg>
