<svg version="1.0" xmlns="http://www.w3.org/2000/svg"
 width="45.000000pt" height="89.000000pt" viewBox="0 0 45.000000 89.000000"
 preserveAspectRatio="xMidYMid meet">
<metadata>
Created by potrace 1.15, written by Peter Selinger 2001-2017
</metadata>
<g transform="translate(0.000000,89.000000) scale(0.100000,-0.100000)"
fill="#000000" stroke="none">
<path d="M230 659 c0 -13 -27 -50 -68 -93 -75 -79 -77 -83 -117 -233 -8 -30
11 -30 21 -1 6 20 8 18 26 -19 10 -22 39 -64 63 -92 42 -49 44 -54 38 -100 -4
-40 -2 -49 12 -55 24 -9 32 6 40 78 8 68 13 79 49 121 14 17 37 43 50 60 24
30 24 30 33 -4 5 -19 15 -37 23 -39 10 -4 12 6 5 49 -4 30 -7 66 -7 81 1 14
-5 32 -13 38 -8 7 -15 19 -15 26 0 18 -36 81 -71 123 -16 20 -29 41 -29 48 0
7 -9 17 -20 23 -17 9 -20 8 -20 -11z m48 -108 c30 -31 58 -78 51 -85 -2 -2
-43 -1 -91 2 -89 5 -100 11 -75 42 14 17 76 70 83 70 2 0 16 -13 32 -29z m-84
-127 c13 -5 16 -22 16 -85 0 -43 -4 -79 -9 -79 -5 0 -21 20 -35 44 -23 40 -56
64 -79 58 -5 -1 -7 1 -5 5 29 60 32 63 64 63 18 0 39 -3 48 -6z m161 -35 c7
-23 -18 -59 -42 -59 -8 0 -24 -9 -36 -21 -22 -20 -22 -20 -25 27 -5 67 1 74
52 74 36 0 46 -4 51 -21z"/>
</g>
</svg>
