<svg version="1.0" xmlns="http://www.w3.org/2000/svg"
 width="37.000000pt" height="73.000000pt" viewBox="0 0 37.000000 73.000000"
 preserveAspectRatio="xMidYMid meet">
<metadata>
Created by potrace 1.15, written by Peter Selinger 2001-2017
</metadata>
<g transform="translate(0.000000,73.000000) scale(0.100000,-0.100000)"
fill="#000000" stroke="none">
<path d="M107 423 c-34 -32 -64 -59 -66 -60 -2 -1 -1 -10 3 -19 6 -15 9 -15
29 5 38 35 87 23 87 -22 0 -14 -5 -18 -20 -14 -30 8 -34 -9 -11 -42 15 -21 21
-45 21 -85 0 -31 4 -56 9 -56 10 0 21 24 21 49 0 9 12 41 26 70 15 28 23 55
19 59 -4 4 -10 1 -12 -5 -9 -24 -23 -13 -23 17 0 36 24 40 51 8 32 -36 34 -11
2 40 -16 26 -36 62 -44 80 -7 17 -18 32 -22 32 -5 0 -36 -26 -70 -57z m73 3
c0 -2 3 -11 6 -20 5 -13 -1 -16 -25 -16 -33 0 -39 8 -19 28 11 11 38 17 38 8z"/>
</g>
</svg>
