<svg version="1.0" xmlns="http://www.w3.org/2000/svg"
 width="35.000000pt" height="79.000000pt" viewBox="0 0 35.000000 79.000000"
 preserveAspectRatio="xMidYMid meet">
<metadata>
Created by potrace 1.15, written by Peter Selinger 2001-2017
</metadata>
<g transform="translate(0.000000,79.000000) scale(0.100000,-0.100000)"
fill="#000000" stroke="none">
<path d="M150 590 c0 -11 -4 -28 -9 -38 -20 -39 -44 -100 -57 -142 -15 -49
-19 -120 -6 -120 15 0 41 -84 47 -153 2 -21 6 -41 10 -45 8 -9 24 16 32 51 3
15 9 27 13 27 7 0 60 103 60 115 0 11 -29 4 -32 -7 -2 -6 -9 -8 -15 -5 -13 8
-6 116 8 131 4 5 17 -7 29 -28 12 -20 26 -33 31 -30 9 5 8 81 -2 99 -3 6 -12
29 -19 53 -12 39 -66 112 -83 112 -4 0 -7 -9 -7 -20z m35 -119 c-9 -16 -25 -3
-18 15 4 10 9 12 15 6 6 -6 7 -15 3 -21z m-35 -95 c0 -42 -12 -86 -24 -86 -30
0 -34 22 -14 71 21 50 38 56 38 15z"/>
</g>
</svg>
