<svg version="1.0" xmlns="http://www.w3.org/2000/svg"
 width="70.000000pt" height="116.000000pt" viewBox="0 0 70.000000 116.000000"
 preserveAspectRatio="xMidYMid meet">
<metadata>
Created by potrace 1.15, written by Peter Selinger 2001-2017
</metadata>
<g transform="translate(0.000000,116.000000) scale(0.100000,-0.100000)"
fill="#000000" stroke="none">
<path d="M630 976 c0 -19 -4 -37 -8 -40 -4 -2 -45 -10 -90 -17 -69 -11 -82
-16 -82 -32 0 -21 17 -21 138 -1 38 6 42 5 42 -14 0 -11 -6 -24 -12 -29 -27
-17 -85 -33 -120 -33 -47 0 -68 -8 -68 -27 0 -13 13 -15 83 -11 108 6 157 29
157 73 0 17 -6 37 -12 44 -10 11 -10 14 0 18 12 5 17 60 6 87 -12 30 -34 18
-34 -18z"/>
<path d="M275 981 c-3 -6 -7 -31 -10 -58 -2 -26 -6 -59 -10 -73 -11 -46 -7
-278 5 -317 29 -89 42 -119 61 -142 17 -21 22 -22 30 -10 5 7 9 22 9 33 0 14
5 17 25 12 18 -5 27 -2 31 9 4 8 15 15 26 15 26 0 49 27 72 82 40 94 48 107
69 108 13 0 8 -54 -13 -128 -24 -87 -25 -118 -4 -126 26 -10 34 2 34 49 0 25
11 79 25 120 34 100 27 122 -37 117 -10 -1 -18 2 -18 7 0 10 14 15 67 26 47 9
72 85 28 85 -7 0 -16 -9 -20 -19 -8 -26 -25 -31 -133 -40 -93 -8 -133 -25
-118 -50 8 -13 43 -15 50 -3 3 5 19 9 36 10 46 1 43 -26 -17 -155 -14 -29 -30
-53 -36 -53 -22 0 -57 107 -57 171 0 42 -25 72 -40 49 -14 -23 -2 -106 31
-214 11 -35 4 -44 -19 -30 -21 13 -61 124 -63 173 -1 20 4 77 11 126 25 180
26 194 18 214 -8 22 -23 27 -33 12z"/>
<path d="M194 938 c-5 -7 -7 -26 -5 -42 1 -16 -2 -38 -7 -50 -18 -40 -35 -106
-29 -113 11 -10 57 38 57 59 0 10 5 18 10 18 16 0 12 116 -4 129 -11 9 -16 9
-22 -1z"/>
<path d="M357 933 c-4 -3 -7 -32 -7 -63 0 -31 -4 -60 -9 -66 -4 -5 -11 -24
-15 -42 -5 -28 -3 -33 11 -30 26 5 53 64 57 125 2 31 2 62 -1 70 -5 14 -25 17
-36 6z"/>
<path d="M161 706 c-20 -24 -5 -147 25 -211 21 -45 41 -68 53 -60 13 7 14 47
3 60 -22 25 -53 125 -51 163 3 49 -11 71 -30 48z"/>
<path d="M125 470 c-9 -15 3 -61 24 -97 25 -40 73 -63 133 -63 48 0 48 0 48
-109 0 -109 0 -109 -97 -106 -54 2 -122 6 -150 10 -48 6 -53 5 -53 -13 0 -26
34 -33 195 -38 72 -2 171 -8 220 -15 120 -15 240 -9 240 11 0 15 -5 16 -149
19 -58 1 -58 1 -53 79 4 42 6 88 7 102 1 40 15 53 62 56 24 1 49 2 55 3 16 1
60 71 63 97 4 35 0 44 -18 44 -13 0 -23 -13 -32 -39 -19 -60 -45 -67 -229 -63
-152 3 -155 4 -177 29 -22 26 -37 53 -48 86 -6 19 -31 23 -41 7z m316 -177 c1
-10 0 -45 -1 -78 -1 -33 -3 -78 -4 -100 -1 -38 -3 -40 -34 -43 -33 -3 -33 -3
-31 65 2 118 10 154 33 163 31 13 36 12 37 -7z"/>
<path d="M214 277 c-3 -8 -4 -45 -2 -82 3 -69 18 -93 36 -58 13 24 23 117 16
137 -7 20 -43 21 -50 3z"/>
<path d="M561 253 c-13 -46 -14 -140 -2 -147 18 -12 29 22 33 98 3 89 -13 115
-31 49z"/>
</g>
</svg>
