<svg version="1.0" xmlns="http://www.w3.org/2000/svg"
 width="70.000000pt" height="87.000000pt" viewBox="0 0 70.000000 87.000000"
 preserveAspectRatio="xMidYMid meet">
<metadata>
Created by potrace 1.15, written by Peter Selinger 2001-2017
</metadata>
<g transform="translate(0.000000,87.000000) scale(0.100000,-0.100000)"
fill="#000000" stroke="none">
<path d="M160 791 c0 -57 85 -127 170 -141 39 -6 50 -29 25 -54 -22 -21 -58
-20 -79 2 -9 11 -43 27 -76 37 -33 10 -65 24 -71 32 -12 14 -49 18 -49 5 0
-19 28 -42 75 -63 50 -23 50 -23 -37 -32 -64 -7 -88 -13 -88 -23 0 -11 22 -14
102 -14 114 0 116 -5 26 -49 -58 -29 -94 -70 -84 -96 5 -15 13 -11 49 22 24
22 64 48 90 58 25 9 53 28 62 41 11 18 25 24 50 24 31 0 35 -3 35 -25 0 -53
-47 -112 -139 -174 -20 -14 -41 -32 -48 -40 -48 -61 47 -251 125 -251 18 0 32
3 32 7 0 4 -20 28 -44 53 -35 36 -46 55 -51 93 -8 55 0 59 44 21 31 -26 111
-45 111 -27 0 5 -17 19 -38 31 -21 11 -47 30 -57 42 -18 20 -18 21 2 42 21 21
21 21 51 0 32 -23 112 -41 112 -25 0 6 -25 27 -55 47 -30 20 -55 39 -55 42 0
2 10 18 23 35 18 25 23 48 27 122 4 74 8 92 20 90 8 -1 32 -4 53 -8 58 -9 65
-37 72 -259 4 -167 7 -191 27 -234 21 -43 69 -84 83 -71 3 3 -8 36 -25 72 -27
59 -30 77 -31 169 0 57 -5 150 -10 208 -10 101 -11 106 -44 138 -23 21 -45 32
-64 32 -62 0 -49 27 38 83 43 28 51 47 19 47 -27 0 -82 -37 -115 -77 -18 -22
-30 -27 -62 -27 -50 2 -120 41 -141 79 -20 37 -60 47 -60 16z"/>
</g>
</svg>
