<svg version="1.0" xmlns="http://www.w3.org/2000/svg"
 width="61.000000pt" height="151.000000pt" viewBox="0 0 61.000000 151.000000"
 preserveAspectRatio="xMidYMid meet">
<metadata>
Created by potrace 1.15, written by Peter Selinger 2001-2017
</metadata>
<g transform="translate(0.000000,151.000000) scale(0.100000,-0.100000)"
fill="#000000" stroke="none">
<path d="M370 1361 c0 -6 -17 -11 -40 -11 -22 0 -40 -3 -40 -8 0 -4 -17 -15
-37 -24 -67 -29 -114 -85 -134 -160 -16 -61 4 -168 32 -168 10 0 21 9 24 20 9
27 22 25 29 -5 8 -31 45 -75 63 -75 7 0 27 14 45 30 41 39 60 39 56 0 -3 -28
-10 -34 -88 -66 -124 -52 -128 -52 -141 -15 -8 21 -17 31 -28 29 -20 -4 -26
-41 -13 -87 31 -110 38 -127 50 -140 12 -12 15 -12 23 0 14 22 10 66 -7 83
-14 14 -14 18 0 31 8 8 26 15 39 15 14 0 27 5 29 12 10 28 26 -7 33 -69 4 -36
12 -76 17 -89 9 -18 6 -27 -14 -46 -36 -37 -64 -41 -83 -12 -18 27 -43 31 -52
9 -3 -9 2 -39 11 -68 31 -99 82 -154 70 -74 -5 28 -2 34 25 50 17 10 36 23 43
30 18 18 61 47 69 47 6 0 2 -24 -22 -125 -19 -83 -7 -167 31 -205 3 -3 10 -14
16 -25 29 -53 41 -71 68 -102 16 -18 35 -33 43 -33 7 0 13 -4 13 -10 0 -5 4
-10 9 -10 8 0 -8 37 -50 110 -8 14 -21 32 -29 40 -24 23 -63 153 -57 186 13
68 19 90 27 109 36 90 44 215 27 423 -5 60 -4 92 2 92 22 0 43 61 35 103 -6
36 -10 87 -13 173 -1 14 -9 23 -23 27 -13 2 -31 8 -40 12 -11 4 -18 3 -18 -4z
m34 -62 c9 -47 7 -197 -3 -179 -8 15 -31 154 -31 190 0 32 27 23 34 -11z m-89
-79 c35 -128 39 -158 22 -174 -9 -9 -22 -16 -30 -16 -8 0 -17 -7 -21 -15 -12
-32 -26 -13 -26 38 0 67 -9 97 -28 97 -8 0 -21 -8 -28 -17 -12 -16 -13 -15
-14 15 0 48 19 81 65 109 32 20 47 11 60 -37z m71 -366 c4 -14 4 -58 1 -97 -5
-59 -10 -74 -29 -89 -21 -16 -23 -16 -32 0 -6 9 -12 53 -14 98 -4 76 -3 82 19
98 33 23 48 20 55 -10z"/>
</g>
</svg>
