<svg version="1.0" xmlns="http://www.w3.org/2000/svg"
 width="63.000000pt" height="101.000000pt" viewBox="0 0 63.000000 101.000000"
 preserveAspectRatio="xMidYMid meet">
<metadata>
Created by potrace 1.15, written by Peter Selinger 2001-2017
</metadata>
<g transform="translate(0.000000,101.000000) scale(0.100000,-0.100000)"
fill="#000000" stroke="none">
<path d="M182 898 c-17 -17 -17 -231 1 -226 6 3 16 14 22 26 11 24 43 30 50
10 2 -7 5 -48 8 -90 3 -68 1 -80 -19 -105 -18 -22 -25 -26 -35 -15 -14 13 -69
17 -69 5 0 -4 12 -19 26 -34 25 -26 25 -28 9 -53 -22 -33 -13 -43 22 -27 25
12 29 10 50 -16 13 -15 23 -23 24 -18 3 27 -4 51 -18 62 -14 11 -14 15 2 40
36 55 43 57 65 21 32 -53 27 -99 -16 -142 -33 -33 -38 -35 -54 -21 -35 32 -61
9 -35 -31 16 -24 15 -26 -4 -43 -26 -23 -28 -46 -3 -36 40 17 47 12 45 -33 -2
-51 17 -53 32 -4 5 18 13 32 17 32 4 0 28 -20 52 -45 25 -25 54 -45 65 -45 30
0 103 43 112 66 4 12 5 32 2 45 -6 26 -70 89 -90 89 -24 0 -13 -38 17 -63 33
-29 38 -48 14 -67 -25 -21 -69 -16 -97 12 -34 34 -50 65 -37 73 5 3 10 15 10
26 0 10 3 19 8 19 11 0 32 51 32 79 0 43 -20 100 -51 149 -38 61 -37 89 6 136
19 21 35 43 35 48 0 13 -32 81 -40 88 -4 3 -12 15 -19 28 -17 32 -31 27 -31
-11 0 -37 -15 -57 -42 -57 -15 0 -18 9 -18 48 0 55 -27 101 -48 80z m148 -152
c0 -13 -7 -29 -15 -36 -12 -10 -15 -9 -15 8 0 27 10 52 21 52 5 0 9 -11 9 -24z"/>
</g>
</svg>
