<svg version="1.0" xmlns="http://www.w3.org/2000/svg"
 width="83.000000pt" height="167.000000pt" viewBox="0 0 83.000000 167.000000"
 preserveAspectRatio="xMidYMid meet">
<metadata>
Created by potrace 1.15, written by Peter Selinger 2001-2017
</metadata>
<g transform="translate(0.000000,167.000000) scale(0.100000,-0.100000)"
fill="#000000" stroke="none">
<path d="M300 1485 c-6 -8 -9 -19 -5 -24 3 -6 8 -38 10 -72 6 -94 37 -109 49
-24 8 49 8 49 34 36 9 -5 37 -17 62 -26 71 -27 75 -30 78 -67 3 -33 1 -35 -63
-67 -36 -18 -67 -32 -68 -30 -2 2 -7 17 -12 33 -9 27 -39 56 -48 46 -2 -3 -7
-40 -10 -82 -5 -66 -3 -81 13 -100 19 -23 19 -23 52 8 18 16 57 41 85 54 30
13 55 32 59 43 3 11 9 15 13 10 3 -5 14 -12 24 -16 10 -4 17 -17 17 -34 1 -28
46 -91 57 -79 4 3 -3 35 -15 70 -12 35 -22 69 -22 75 0 27 18 6 50 -61 39 -81
43 -125 17 -181 -17 -35 -21 -38 -50 -31 -32 7 -67 25 -67 34 1 13 17 28 34
31 28 6 43 35 30 56 -15 25 -34 28 -34 5 0 -17 -10 -20 -82 -25 -46 -4 -118
-7 -161 -7 -74 0 -78 1 -87 26 -6 14 -10 36 -10 50 0 31 -27 74 -47 74 -12 0
-14 -13 -9 -71 6 -72 6 -72 -58 -66 -35 3 -67 3 -70 0 -10 -10 44 -53 73 -59
14 -3 32 -7 39 -10 18 -5 15 -56 -8 -105 -26 -59 -26 -78 0 -54 11 10 20 24
20 32 0 7 3 13 8 13 4 0 18 21 32 48 31 60 37 64 83 56 21 -3 67 0 103 7 49
10 67 10 73 1 3 -6 3 -58 -2 -114 -9 -105 -5 -244 9 -287 7 -23 6 -23 -47 -16
-30 4 -69 15 -87 26 -18 10 -42 19 -53 19 -10 0 -19 3 -19 8 0 4 -10 12 -22
17 -21 9 -22 15 -20 90 3 71 1 83 -17 100 -28 24 -49 8 -32 -24 9 -16 8 -32
-2 -68 -14 -46 -16 -48 -48 -45 -19 2 -42 8 -51 13 -20 11 -58 12 -58 2 1 -24
62 -63 100 -63 11 0 20 -5 20 -12 0 -20 -52 -118 -63 -118 -8 0 -8 -3 0 -11 8
-8 19 -6 42 5 17 9 31 20 31 24 0 4 10 19 23 35 22 27 22 27 82 -2 96 -47 183
-71 260 -73 38 0 80 2 93 6 26 9 31 -14 7 -34 -8 -7 -15 -20 -15 -30 0 -10 -6
-20 -13 -23 -22 -8 -79 -129 -82 -172 -1 -22 -5 -47 -8 -55 -10 -28 -16 -150
-7 -150 10 0 39 94 39 125 -1 26 42 149 53 153 4 2 8 9 8 16 0 7 8 21 18 32
34 37 79 109 75 121 -2 6 5 16 15 22 18 9 20 19 17 81 -4 73 -22 168 -37 184
-20 24 -6 140 25 205 23 47 13 121 -25 196 -27 53 -34 75 -27 88 6 9 14 17 20
17 29 0 99 98 99 139 0 43 -33 50 -119 23 -36 -12 -78 -24 -93 -27 -16 -3 -28
-12 -28 -20 0 -8 -4 -15 -10 -15 -5 0 -10 5 -10 10 0 6 -10 10 -22 10 -49 0
-162 49 -171 75 -8 19 -21 19 -37 0z m414 -104 c-10 -11 -22 -21 -26 -21 -15
0 -8 39 10 49 26 15 36 -4 16 -28z m-98 -9 c12 -7 17 -31 15 -64 -1 -14 -6
-16 -23 -9 -22 8 -24 17 -19 69 1 14 11 15 27 4z m-10 -454 c24 -8 32 -17 32
-35 0 -20 -4 -24 -22 -19 -11 3 -31 6 -43 6 -19 0 -23 6 -23 30 0 33 8 36 56
18z m47 -121 c13 -20 13 -24 0 -36 -12 -10 -17 -11 -22 -2 -5 7 -12 11 -17 10
-5 -1 -21 -1 -36 0 -23 1 -28 6 -28 26 0 23 4 25 44 25 34 0 47 -5 59 -23z
m21 -89 c30 -42 22 -49 -51 -46 -60 3 -68 5 -71 24 -3 20 7 24 100 43 4 0 14
-9 22 -21z m26 -97 c0 -36 -28 -53 -84 -49 -44 3 -51 6 -54 26 -3 17 2 22 20
22 13 0 30 5 38 10 8 5 30 10 48 10 25 0 32 -4 32 -19z"/>
</g>
</svg>
