<svg version="1.0" xmlns="http://www.w3.org/2000/svg"
 width="57.000000pt" height="109.000000pt" viewBox="0 0 57.000000 109.000000"
 preserveAspectRatio="xMidYMid meet">
<metadata>
Created by potrace 1.15, written by Peter Selinger 2001-2017
</metadata>
<g transform="translate(0.000000,109.000000) scale(0.100000,-0.100000)"
fill="#000000" stroke="none">
<path d="M293 949 c5 -38 4 -40 -16 -35 -26 6 -35 1 -65 -38 -22 -29 -22 -29
-22 13 0 22 -4 41 -8 41 -14 0 -32 -23 -32 -42 0 -10 -4 -18 -8 -18 -9 0 -32
-80 -32 -111 0 -29 67 -119 90 -119 4 0 15 -24 25 -52 16 -50 16 -57 1 -116
-9 -35 -16 -74 -16 -87 0 -28 20 -75 32 -75 16 0 8 -154 -12 -210 -30 -88 10
-98 53 -13 31 62 38 107 27 184 -5 35 -7 66 -4 71 9 14 44 -12 44 -33 0 -27
22 -20 36 12 15 30 7 89 -12 89 -8 0 -14 -4 -14 -10 0 -13 -40 -13 -60 0 -15
9 -16 42 -4 121 5 32 8 35 30 31 13 -2 24 -11 24 -19 0 -18 30 -63 42 -63 5 0
6 19 2 46 -6 41 -4 46 15 51 23 6 28 19 9 26 -10 3 -8 12 5 36 11 18 17 34 15
37 -3 2 -23 -12 -46 -32 -35 -30 -47 -35 -73 -29 -33 7 -49 35 -49 86 0 34 2
35 38 9 15 -10 39 -22 55 -26 27 -6 27 -6 27 44 0 60 -7 82 -26 82 -9 0 -14
-12 -14 -35 0 -38 -2 -40 -30 -25 -16 8 -18 22 -18 86 1 51 4 71 10 60 18 -32
29 -16 24 37 -3 28 -5 55 -5 60 -1 4 -11 7 -22 7 -19 0 -21 -4 -16 -41z m-24
-158 c1 -11 -4 -10 -18 3 -17 15 -18 21 -8 37 12 19 12 19 19 -3 3 -13 6 -29
7 -37z m-64 -77 c3 -20 4 -39 1 -42 -10 -9 -35 31 -36 56 0 36 27 26 35 -14z
m45 -34 c0 -5 -4 -10 -10 -10 -5 0 -10 5 -10 10 0 6 5 10 10 10 6 0 10 -4 10
-10z"/>
</g>
</svg>
