<svg version="1.0" xmlns="http://www.w3.org/2000/svg"
 width="67.000000pt" height="82.000000pt" viewBox="0 0 67.000000 82.000000"
 preserveAspectRatio="xMidYMid meet">
<metadata>
Created by potrace 1.15, written by Peter Selinger 2001-2017
</metadata>
<g transform="translate(0.000000,82.000000) scale(0.100000,-0.100000)"
fill="#000000" stroke="none">
<path d="M306 712 c-3 -5 -57 -34 -119 -65 -114 -56 -138 -77 -116 -103 17
-20 35 -17 77 11 37 25 37 25 51 5 7 -11 22 -20 31 -20 29 0 50 -11 50 -26 0
-10 -25 -14 -107 -16 -100 -3 -108 -4 -108 -23 0 -19 8 -20 108 -23 108 -3
108 -3 105 -85 -3 -82 -3 -82 -103 -90 -55 -5 -101 -10 -104 -12 -2 -2 -1 -11
2 -20 5 -12 25 -15 106 -15 81 0 100 -3 105 -16 11 -29 7 -133 -6 -141 -7 -4
-49 -7 -93 -6 -100 3 -117 -2 -113 -30 3 -21 6 -22 133 -18 254 7 340 15 340
31 0 12 -19 16 -102 18 -103 3 -103 3 -103 82 0 44 5 82 10 85 6 4 53 9 105
12 68 4 95 10 95 19 0 20 -35 26 -129 23 -86 -4 -86 -4 -89 78 -3 95 -11 89
121 96 42 2 80 7 84 10 3 4 0 14 -7 23 -12 13 -28 15 -107 9 -89 -7 -93 -6
-93 13 0 21 24 32 73 32 15 0 27 6 27 13 1 32 16 39 48 23 39 -20 82 -21 82
-2 0 21 -68 68 -168 115 -46 22 -77 27 -86 13z m52 -78 c35 -24 27 -41 -24
-48 -72 -10 -94 -8 -94 9 0 14 62 54 85 55 6 0 21 -7 33 -16z"/>
<path d="M455 433 c-22 -2 -51 -12 -64 -22 -20 -15 -23 -24 -17 -55 8 -42 31
-51 102 -43 89 10 82 47 -8 47 -68 0 -60 16 12 24 33 4 62 11 66 17 8 14 -15
39 -35 37 -9 -1 -34 -3 -56 -5z"/>
<path d="M83 423 c-15 -3 -23 -12 -23 -24 0 -17 8 -19 70 -19 55 0 70 -3 70
-15 0 -11 -16 -15 -67 -17 -53 -2 -68 -6 -68 -18 0 -22 161 -22 175 0 13 20
12 57 0 81 -9 16 -21 19 -73 18 -34 -1 -72 -4 -84 -6z"/>
<path d="M415 203 c-11 -3 -26 -10 -32 -15 -17 -14 -16 -53 1 -67 34 -29 156
-25 156 4 0 12 -14 15 -60 15 -80 0 -83 23 -5 36 31 5 57 14 58 19 2 11 -85
17 -118 8z"/>
<path d="M74 185 c-10 -26 5 -34 61 -28 46 5 55 3 55 -10 0 -12 -13 -17 -57
-19 -44 -2 -59 -7 -61 -19 -2 -9 5 -20 15 -23 26 -10 122 4 139 21 17 18 19
64 2 81 -18 18 -147 16 -154 -3z"/>
</g>
</svg>
