<svg version="1.0" xmlns="http://www.w3.org/2000/svg"
 width="69.000000pt" height="82.000000pt" viewBox="0 0 69.000000 82.000000"
 preserveAspectRatio="xMidYMid meet">
<metadata>
Created by potrace 1.15, written by Peter Selinger 2001-2017
</metadata>
<g transform="translate(0.000000,82.000000) scale(0.100000,-0.100000)"
fill="#000000" stroke="none">
<path d="M293 618 c-76 -55 -233 -196 -233 -210 0 -4 10 -8 22 -8 25 0 61 27
167 122 42 37 80 68 86 68 5 0 64 -41 130 -90 66 -50 127 -89 135 -87 29 5 23
36 -11 55 -18 9 -48 31 -68 48 -20 17 -56 44 -80 60 -24 16 -55 37 -70 46 -34
23 -40 23 -78 -4z"/>
<path d="M283 501 c-28 -4 -55 -9 -58 -13 -13 -13 6 -28 36 -28 25 0 29 -4 29
-29 0 -32 -18 -41 -81 -41 -42 0 -53 -8 -38 -27 7 -8 33 -13 66 -13 53 0 54 0
51 -27 -3 -26 -7 -28 -53 -31 -71 -3 -95 -10 -95 -27 0 -12 14 -15 65 -15 36
0 65 -4 65 -8 0 -5 -25 -30 -55 -56 -53 -45 -62 -66 -28 -66 8 0 33 16 56 35
24 21 45 31 50 26 5 -5 5 -29 2 -55 -7 -46 -7 -46 -74 -46 -79 0 -111 -8 -111
-25 0 -22 27 -24 215 -17 150 6 180 9 180 22 0 12 -16 15 -82 15 -83 -1 -83
-1 -83 72 0 40 2 73 4 73 3 0 32 -18 66 -40 33 -23 65 -38 70 -35 16 10 11 35
-7 42 -10 4 -36 18 -58 32 -40 25 -40 25 23 36 89 14 83 29 -14 33 -80 3 -82
3 -87 30 -7 38 -2 42 57 42 33 0 58 5 65 14 20 24 -9 36 -68 29 -53 -6 -53 -6
-49 23 3 24 9 30 45 39 50 12 63 23 43 35 -16 11 -66 11 -147 1z"/>
</g>
</svg>
