<svg version="1.0" xmlns="http://www.w3.org/2000/svg"
 width="117.000000pt" height="425.000000pt" viewBox="0 0 117.000000 425.000000"
 preserveAspectRatio="xMidYMid meet">
<metadata>
Created by potrace 1.15, written by Peter Selinger 2001-2017
</metadata>
<g transform="translate(0.000000,425.000000) scale(0.100000,-0.100000)"
fill="#000000" stroke="none">
<path d="M555 4067 c-19 -10 -30 -18 -58 -42 -21 -18 -105 -75 -111 -75 -3 0
-23 -16 -43 -35 -20 -19 -40 -35 -44 -35 -4 0 -31 -19 -61 -43 -29 -23 -74
-54 -100 -67 -26 -14 -50 -30 -52 -36 -8 -20 53 -84 80 -84 16 0 24 6 24 18 0
9 16 28 35 41 32 21 40 23 73 13 20 -6 63 -18 94 -27 31 -9 78 -20 105 -23 48
-7 48 -7 53 -57 6 -63 -3 -1502 -10 -1508 -3 -3 -61 -8 -130 -12 -69 -3 -143
-10 -165 -15 -22 -5 -55 -10 -72 -10 -46 0 -66 -32 -50 -82 15 -49 41 -60 114
-48 32 6 112 10 179 10 121 0 121 0 126 -362 3 -200 2 -442 -3 -538 -4 -96 -8
-326 -9 -510 0 -184 -3 -352 -6 -372 -7 -38 -7 -38 -53 -38 -49 0 -101 16
-188 56 -30 13 -57 24 -62 24 -4 0 -17 10 -29 23 -33 35 -41 123 -40 420 2
318 -5 360 -64 419 -38 38 -58 47 -58 28 0 -5 4 -10 9 -10 5 0 14 -13 21 -30
7 -16 15 -30 19 -30 11 0 30 -82 36 -155 3 -38 7 -206 10 -371 4 -314 5 -322
53 -395 16 -25 35 -40 65 -49 23 -7 66 -24 95 -38 51 -24 57 -24 220 -19 253
9 359 48 420 155 20 35 31 202 32 450 0 208 8 292 31 334 5 10 9 23 9 29 0 6
14 30 30 54 30 43 39 75 21 75 -23 0 -83 -86 -95 -135 -28 -121 -35 -181 -37
-312 -3 -165 -15 -298 -32 -357 -14 -48 -69 -106 -128 -137 -44 -23 -197 -50
-230 -42 -23 6 -26 52 -22 338 2 127 6 511 9 855 3 344 9 628 13 632 3 4 85 8
181 9 161 2 176 4 193 22 20 24 22 65 3 89 -15 20 -43 25 -286 43 -85 7 -85 7
-82 750 3 805 3 812 54 813 13 0 50 8 83 18 33 9 79 19 102 21 39 5 46 2 83
-36 23 -23 47 -41 55 -41 18 0 65 40 65 55 0 15 -58 75 -100 105 -55 38 -131
102 -171 143 -21 20 -41 37 -46 37 -4 0 -21 12 -38 28 -69 63 -100 81 -120 69z
m65 -147 c12 -16 56 -57 98 -91 105 -85 103 -82 57 -75 -38 7 -243 26 -275 27
-8 0 -50 -3 -92 -7 -43 -4 -78 -3 -78 0 0 11 27 36 38 36 6 0 12 4 14 8 3 9
123 92 133 92 3 0 15 9 27 20 30 28 53 25 78 -10z"/>
<path d="M273 3419 c-9 -9 -6 -21 12 -49 37 -59 56 -127 71 -255 18 -157 17
-286 -2 -360 -8 -33 -19 -79 -24 -101 -5 -23 -18 -67 -29 -98 -11 -31 -18 -56
-16 -56 3 0 21 26 42 58 76 113 110 288 100 512 -10 218 -18 325 -25 332 -4 4
-29 8 -57 10 -27 1 -53 6 -56 10 -3 4 -10 3 -16 -3z"/>
<path d="M820 3377 c0 -12 -14 -74 -31 -137 -27 -104 -48 -243 -50 -341 -3
-96 27 -247 56 -285 8 -10 15 -26 15 -34 0 -19 46 -77 55 -69 3 4 -3 23 -14
42 -41 73 -55 145 -55 282 0 240 52 427 142 506 17 15 32 33 32 38 0 12 -43
21 -102 20 -42 -1 -48 -3 -48 -22z"/>
<path d="M715 1780 c-3 -5 -1 -10 4 -10 6 0 11 5 11 10 0 6 -2 10 -4 10 -3 0
-8 -4 -11 -10z"/>
<path d="M804 1255 c3 -9 -1 -30 -10 -48 -39 -75 -54 -153 -61 -326 -6 -148 4
-212 57 -393 11 -37 63 -102 73 -92 5 6 -19 82 -43 139 -22 52 -33 141 -33
270 0 145 6 175 49 271 25 53 96 134 119 134 7 0 15 7 19 15 8 22 -39 41 -113
44 -55 2 -63 0 -57 -14z"/>
<path d="M235 1251 c-17 -7 -17 -9 -3 -17 20 -12 51 -73 80 -160 21 -62 23
-87 23 -249 -1 -157 -4 -190 -23 -255 -13 -41 -27 -84 -32 -95 -28 -64 -16
-90 17 -37 10 15 20 29 23 32 15 15 49 102 59 150 31 166 34 202 26 317 -5 65
-9 158 -11 207 -1 64 -5 91 -15 96 -22 12 -122 20 -144 11z"/>
</g>
</svg>
