<svg version="1.0" xmlns="http://www.w3.org/2000/svg"
 width="97.000000pt" height="163.000000pt" viewBox="0 0 97.000000 163.000000"
 preserveAspectRatio="xMidYMid meet">
<metadata>
Created by potrace 1.15, written by Peter Selinger 2001-2017
</metadata>
<g transform="translate(0.000000,163.000000) scale(0.100000,-0.100000)"
fill="#000000" stroke="none">
<path d="M466 1384 c-6 -52 -60 -169 -93 -202 -7 -8 -26 -30 -41 -50 -15 -20
-70 -81 -122 -135 -92 -96 -110 -122 -82 -122 12 0 48 29 140 113 41 38 77 50
103 33 10 -6 27 -11 37 -11 30 0 42 -81 42 -291 0 -189 0 -189 -99 -189 -55 0
-102 -4 -106 -9 -10 -17 32 -31 94 -31 33 0 63 -5 66 -10 4 -6 10 -8 15 -5 5
3 16 -2 24 -11 12 -11 16 -32 14 -72 -1 -31 2 -105 6 -164 10 -130 6 -138 -79
-138 -56 0 -95 -12 -95 -30 0 -5 94 -9 220 -9 133 0 220 4 220 9 0 6 -7 11
-15 11 -8 1 -18 2 -22 3 -5 1 -30 5 -58 10 -105 16 -127 53 -120 193 3 54 5
117 5 141 -1 23 3 42 7 43 77 7 142 7 176 0 28 -7 46 -6 54 1 23 19 14 28 -27
28 -31 0 -40 4 -40 18 0 10 -3 13 -8 6 -8 -12 -150 -1 -162 13 -10 11 -21 455
-11 471 4 7 23 12 42 10 28 -2 47 -16 109 -79 74 -76 116 -106 128 -94 3 3 1
14 -6 23 -7 9 -15 23 -19 31 -4 8 -22 28 -40 44 -51 45 -194 263 -220 337 -7
19 -13 63 -13 97 0 79 -15 90 -24 17z m9 -172 c16 -11 76 -134 69 -141 -8 -8
-172 -7 -180 1 -10 11 4 41 36 78 16 19 30 40 30 47 0 6 6 14 13 16 17 8 21 8
32 -1z"/>
<path d="M315 848 c-9 -51 -25 -84 -60 -120 -26 -28 -123 -78 -150 -78 -19 0
-19 -16 -1 -23 32 -12 153 40 195 83 36 38 60 104 53 148 -6 46 -29 40 -37
-10z"/>
<path d="M610 808 c0 -43 28 -118 52 -141 30 -29 135 -97 150 -97 31 0 28 34
-3 35 -3 0 -30 20 -61 45 -52 43 -83 91 -104 164 -14 48 -34 44 -34 -6z"/>
<path d="M654 395 c-12 -31 39 -159 79 -199 48 -46 134 -104 165 -111 40 -8
42 6 5 31 -16 9 -64 54 -109 98 -64 64 -83 91 -95 129 -16 56 -35 78 -45 52z"/>
<path d="M350 371 c0 -37 -93 -144 -168 -192 -29 -19 -63 -42 -75 -51 -22 -17
-22 -17 0 -18 21 0 72 18 83 30 3 3 25 21 50 40 120 94 184 195 134 214 -23 9
-24 8 -24 -23z"/>
</g>
</svg>
