<svg version="1.0" xmlns="http://www.w3.org/2000/svg"
 width="85.000000pt" height="113.000000pt" viewBox="0 0 85.000000 113.000000"
 preserveAspectRatio="xMidYMid meet">
<metadata>
Created by potrace 1.15, written by Peter Selinger 2001-2017
</metadata>
<g transform="translate(0.000000,113.000000) scale(0.100000,-0.100000)"
fill="#000000" stroke="none">
<path d="M524 992 c-5 -4 -15 -17 -21 -29 -32 -57 -39 -68 -51 -81 -7 -8 -21
-33 -32 -56 -10 -24 -26 -49 -35 -56 -8 -7 -15 -19 -15 -26 0 -8 -4 -14 -10
-14 -5 0 -10 -7 -10 -15 0 -9 -9 -25 -20 -37 -27 -29 -28 -88 -1 -88 11 0 23
12 31 30 17 40 28 48 86 55 50 7 50 7 50 -31 0 -22 2 -69 5 -106 2 -36 1 -69
-3 -73 -3 -4 -26 -9 -50 -11 -82 -9 -108 -15 -108 -24 0 -15 66 -42 97 -40 15
1 33 2 39 1 21 -2 23 -65 6 -154 -18 -88 -18 -88 -67 -117 -28 -16 -58 -30
-67 -30 -25 0 -22 -17 4 -31 33 -18 337 -16 349 2 14 22 11 26 -23 39 -120 45
-128 56 -128 182 0 110 -1 108 90 108 60 0 79 3 84 15 12 33 -4 42 -85 49 -80
7 -80 7 -74 79 4 40 11 87 17 105 10 32 10 32 76 32 49 0 76 -5 100 -20 33
-20 62 -26 62 -12 0 9 -48 81 -67 100 -7 7 -13 17 -13 22 0 4 -15 23 -33 42
-18 18 -52 56 -75 85 -69 84 -98 112 -108 105z m110 -215 c21 -21 37 -39 35
-41 -7 -7 -33 -8 -127 -7 -93 1 -93 1 -60 48 17 26 41 58 51 70 20 22 20 22
41 -5 11 -15 38 -44 60 -65z"/>
<path d="M143 519 c-28 -8 -33 -14 -33 -39 0 -28 3 -30 35 -30 47 0 85 26 85
56 0 20 -5 24 -27 23 -16 0 -43 -5 -60 -10z"/>
<path d="M178 249 c-53 -27 -51 -54 3 -63 27 -4 46 -2 56 5 20 17 44 65 36 73
-12 12 -58 5 -95 -15z"/>
</g>
</svg>
