<svg version="1.0" xmlns="http://www.w3.org/2000/svg"
 width="75.000000pt" height="109.000000pt" viewBox="0 0 75.000000 109.000000"
 preserveAspectRatio="xMidYMid meet">
<metadata>
Created by potrace 1.15, written by Peter Selinger 2001-2017
</metadata>
<g transform="translate(0.000000,109.000000) scale(0.100000,-0.100000)"
fill="#000000" stroke="none">
<path d="M401 834 c-29 -29 -77 -70 -107 -91 -29 -21 -53 -41 -54 -44 0 -9 34
-17 110 -25 36 -3 67 -8 70 -11 2 -2 6 -46 8 -98 4 -95 4 -95 -73 -95 -64 0
-146 -13 -164 -27 -2 -1 2 -9 9 -18 10 -12 36 -15 123 -15 110 0 110 0 103
-40 -3 -22 -9 -74 -13 -115 -6 -72 -8 -77 -42 -104 -20 -16 -53 -36 -74 -44
-42 -18 -47 -32 -14 -40 29 -7 407 0 414 7 10 9 -18 36 -38 36 -17 0 -45 9
-99 34 -57 25 -70 56 -70 158 0 46 4 88 8 93 4 6 47 10 95 11 49 0 93 6 99 12
15 15 -65 54 -105 51 -18 -1 -47 -1 -65 0 -32 1 -32 2 -31 49 0 26 7 71 15
100 15 52 15 52 114 52 58 0 100 4 100 10 0 12 -58 70 -107 106 -21 16 -57 45
-81 66 -24 20 -51 36 -61 35 -10 0 -41 -25 -70 -53z m141 -64 c43 -40 43 -40
-55 -40 -53 0 -97 3 -96 8 0 10 82 70 96 71 7 1 32 -17 55 -39z"/>
<path d="M77 593 c-20 -10 -27 -21 -25 -36 7 -47 144 -38 163 11 15 39 -79 56
-138 25z"/>
<path d="M148 271 c-7 -2 -23 -14 -37 -27 -21 -19 -22 -25 -12 -38 15 -18 91
-22 91 -6 0 6 10 10 23 10 12 0 31 7 41 15 19 14 19 15 -4 35 -21 18 -65 23
-102 11z"/>
</g>
</svg>
