<svg version="1.0" xmlns="http://www.w3.org/2000/svg"
 width="43.000000pt" height="77.000000pt" viewBox="0 0 43.000000 77.000000"
 preserveAspectRatio="xMidYMid meet">
<metadata>
Created by potrace 1.15, written by Peter Selinger 2001-2017
</metadata>
<g transform="translate(0.000000,77.000000) scale(0.100000,-0.100000)"
fill="#000000" stroke="none">
<path d="M104 602 c-19 -13 -22 -38 -14 -98 16 -117 20 -133 72 -304 23 -75
64 -150 83 -150 11 0 1 64 -13 87 -8 13 -18 37 -22 55 -5 18 -12 42 -15 54 -5
16 -2 21 12 21 75 -1 92 3 98 26 3 12 11 32 17 45 17 33 -13 53 -59 40 -19 -5
-43 -6 -54 -3 -11 4 -26 2 -33 -4 -10 -9 -15 -8 -20 5 -4 10 8 30 34 56 22 23
40 45 40 50 0 17 -31 20 -55 4 -24 -16 -24 -15 -34 22 -6 20 -11 49 -11 64 0
29 -10 41 -26 30z m161 -282 c-3 -5 -13 -10 -21 -10 -8 0 -14 5 -14 10 0 6 9
10 21 10 11 0 17 -4 14 -10z"/>
</g>
</svg>
