<svg version="1.0" xmlns="http://www.w3.org/2000/svg"
 width="43.000000pt" height="83.000000pt" viewBox="0 0 43.000000 83.000000"
 preserveAspectRatio="xMidYMid meet">
<metadata>
Created by potrace 1.15, written by Peter Selinger 2001-2017
</metadata>
<g transform="translate(0.000000,83.000000) scale(0.100000,-0.100000)"
fill="#000000" stroke="none">
<path d="M226 702 c-3 -5 6 -30 20 -56 25 -47 25 -47 -1 -40 -36 9 -41 -16
-11 -60 33 -48 39 -95 32 -243 -4 -94 -3 -123 7 -123 24 0 38 40 36 109 -1 38
2 74 6 81 4 6 11 61 16 121 10 125 3 149 -54 193 -37 28 -43 30 -51 18z"/>
<path d="M204 473 c-9 -47 -11 -55 -12 -70 -1 -7 -14 -13 -29 -13 -26 0 -28 3
-30 46 -2 51 -16 75 -34 57 -11 -11 -14 -197 -4 -214 4 -5 33 -9 65 -9 47 0
60 3 63 18 6 22 24 99 31 131 5 27 -17 91 -32 91 -6 0 -13 -17 -18 -37z m-16
-140 c-4 -20 -35 -30 -50 -15 -15 15 0 32 28 32 19 0 25 -5 22 -17z"/>
</g>
</svg>
