<svg version="1.0" xmlns="http://www.w3.org/2000/svg"
 width="75.000000pt" height="105.000000pt" viewBox="0 0 75.000000 105.000000"
 preserveAspectRatio="xMidYMid meet">
<metadata>
Created by potrace 1.15, written by Peter Selinger 2001-2017
</metadata>
<g transform="translate(0.000000,105.000000) scale(0.100000,-0.100000)"
fill="#000000" stroke="none">
<path d="M506 1033 c-3 -4 -6 -30 -6 -60 0 -51 -2 -55 -57 -109 -56 -56 -56
-56 -240 -55 -178 2 -183 2 -183 -18 0 -18 6 -21 39 -21 35 0 39 -3 45 -31 3
-17 6 -41 6 -53 0 -13 13 -32 30 -44 29 -22 30 -26 30 -97 0 -40 -5 -77 -10
-80 -6 -4 -22 1 -35 9 -22 15 -25 23 -25 82 0 56 -2 65 -16 60 -9 -3 -18 -6
-20 -6 -2 0 -4 -29 -4 -64 0 -69 24 -116 59 -116 10 0 26 -9 36 -20 14 -16 17
-30 12 -76 -3 -31 -8 -58 -10 -60 -11 -11 -36 11 -39 33 -3 25 -31 53 -42 42
-3 -3 -8 -61 -12 -130 -5 -123 -5 -125 20 -152 22 -24 32 -27 89 -27 102 0
124 32 130 193 3 72 0 103 -10 117 -20 28 -33 25 -33 -8 0 -34 -23 -68 -38
-58 -21 13 -15 103 8 126 11 11 26 20 33 20 17 0 51 47 57 78 3 15 3 44 1 65
-2 29 -7 37 -20 35 -12 -2 -18 -19 -22 -66 -7 -68 -17 -86 -45 -80 -19 3 -20
12 -15 138 1 17 10 29 29 37 33 15 55 61 50 105 -2 22 1 33 10 32 6 -1 18 -2
26 -2 8 -1 18 -11 21 -22 10 -32 28 -24 79 35 26 30 52 52 58 49 7 -4 8 -31 5
-73 -6 -56 -11 -70 -35 -91 -37 -32 -64 -52 -87 -66 -46 -26 -16 -55 34 -34
16 6 50 32 75 56 26 24 50 44 54 44 5 0 17 -8 28 -17 92 -82 141 -105 164 -78
17 21 6 32 -85 80 -92 48 -105 65 -105 141 0 33 3 64 6 67 12 11 48 -15 105
-74 30 -33 59 -56 62 -52 20 19 -5 89 -36 99 -10 3 -36 21 -56 39 -20 17 -43
34 -51 37 -11 3 -15 20 -15 58 0 45 -3 54 -22 61 -11 4 -24 5 -27 2z m-266
-301 c0 -32 -5 -41 -26 -51 -48 -21 -88 22 -68 73 4 11 19 16 50 16 44 0 44 0
44 -38z m12 -542 c9 -79 -10 -110 -70 -110 -61 0 -72 13 -72 85 0 76 10 86 85
82 50 -2 50 -2 57 -57z"/>
<path d="M93 943 c-14 -5 -18 -42 -5 -44 4 -1 51 -3 106 -5 102 -3 126 4 126
40 0 14 -16 16 -107 15 -60 0 -114 -3 -120 -6z"/>
<path d="M498 545 c-3 -4 -21 -9 -40 -11 -48 -7 -58 -12 -58 -28 0 -17 49 -23
150 -16 58 4 75 9 78 21 2 12 -7 18 -35 22 -21 4 -49 9 -63 13 -14 3 -28 3
-32 -1z"/>
<path d="M408 422 c-52 -2 -68 -6 -68 -17 0 -12 14 -15 60 -15 60 0 60 0 58
-42 -3 -45 -3 -46 85 -84 37 -16 37 -16 37 -78 0 -33 -7 -83 -15 -110 -20 -64
-19 -66 10 -66 20 0 26 7 34 38 42 168 42 186 -5 229 -20 18 -44 33 -54 33
-27 0 -43 26 -36 56 7 27 7 27 97 22 81 -5 89 -4 89 12 0 16 -12 19 -82 23
-46 3 -96 4 -113 4 -16 -1 -60 -3 -97 -5z"/>
</g>
</svg>
