<svg version="1.0" xmlns="http://www.w3.org/2000/svg"
 width="63.000000pt" height="103.000000pt" viewBox="0 0 63.000000 103.000000"
 preserveAspectRatio="xMidYMid meet">
<metadata>
Created by potrace 1.15, written by Peter Selinger 2001-2017
</metadata>
<g transform="translate(0.000000,103.000000) scale(0.100000,-0.100000)"
fill="#000000" stroke="none">
<path d="M425 910 c-3 -11 -12 -26 -19 -32 -6 -7 -27 -36 -45 -65 -36 -56 -41
-56 -80 -10 -14 16 -31 35 -38 42 -7 8 -13 25 -13 40 0 19 -5 26 -16 23 -9 -2
-20 -10 -24 -18 -46 -96 -70 -153 -66 -157 11 -11 37 8 57 42 12 19 25 35 31
35 22 0 88 -93 83 -118 -2 -10 -4 -23 -4 -31 -1 -11 -7 -9 -23 6 -27 25 -64
37 -72 25 -3 -5 8 -24 24 -41 17 -17 39 -47 50 -67 21 -37 27 -99 10 -109 -6
-3 -10 -14 -10 -24 0 -9 -6 -25 -13 -35 -12 -16 -17 -12 -50 45 -20 34 -37 67
-37 74 0 17 -24 65 -32 65 -5 0 -8 -7 -8 -15 0 -8 -8 -29 -19 -47 -23 -41 -32
-83 -38 -176 -4 -60 -1 -80 17 -118 29 -58 98 -125 170 -163 77 -41 110 -40
155 4 19 20 35 40 35 46 0 6 6 17 14 24 13 13 33 72 56 165 5 19 12 62 15 95
3 33 8 84 12 113 7 59 -5 68 -26 20 -14 -31 -49 -87 -62 -98 -3 -3 -16 -25
-30 -50 -13 -25 -28 -48 -34 -52 -6 -4 -21 17 -36 50 -20 44 -26 71 -24 119 1
55 5 65 28 83 15 12 27 26 27 31 0 5 9 19 20 31 39 43 18 52 -28 13 -39 -33
-45 -32 -37 6 10 44 71 154 86 154 7 0 19 -24 28 -52 27 -91 43 -53 19 44 -14
60 -31 103 -40 103 -4 0 -10 -9 -13 -20z m-238 -522 c12 -24 24 -51 27 -60 13
-41 56 -7 71 55 4 15 11 27 16 27 10 0 49 -83 49 -104 0 -7 5 -17 11 -23 12
-12 24 -4 85 56 19 19 34 30 34 23 0 -43 -75 -207 -115 -250 -24 -26 -24 -26
-65 6 -22 18 -59 47 -82 65 -62 46 -87 78 -94 115 -10 52 15 150 35 138 4 -3
17 -24 28 -48z"/>
</g>
</svg>
