<svg version="1.0" xmlns="http://www.w3.org/2000/svg"
 width="65.000000pt" height="89.000000pt" viewBox="0 0 65.000000 89.000000"
 preserveAspectRatio="xMidYMid meet">
<metadata>
Created by potrace 1.15, written by Peter Selinger 2001-2017
</metadata>
<g transform="translate(0.000000,89.000000) scale(0.100000,-0.100000)"
fill="#000000" stroke="none">
<path d="M370 735 c-13 -14 -28 -25 -34 -24 -28 3 -38 -6 -76 -70 -22 -38 -47
-76 -55 -84 -13 -13 -12 -16 3 -22 12 -5 29 7 59 40 42 47 42 47 53 4 28 -106
31 -121 28 -125 -3 -2 -18 2 -35 8 -16 6 -39 8 -49 4 -17 -7 -12 -14 35 -56
53 -47 55 -50 42 -77 -33 -69 -74 -143 -81 -143 -9 0 -30 63 -30 91 0 28 -25
69 -43 69 -15 0 -138 -248 -137 -277 0 -26 6 -28 25 -9 13 13 24 30 76 124 39
70 41 69 73 -50 21 -79 38 -100 45 -56 1 13 6 25 10 28 3 3 18 26 31 53 14 26
28 47 32 47 5 0 8 6 8 14 0 7 6 19 14 25 11 9 14 0 19 -50 3 -34 10 -66 16
-72 6 -6 11 -25 11 -43 0 -18 6 -34 13 -37 15 -6 69 54 62 71 -2 6 2 12 9 12
8 0 16 9 19 20 7 29 30 25 25 -3 -3 -18 2 -28 24 -40 28 -16 28 -16 26 33 -1
28 -6 50 -10 50 -4 0 -8 22 -8 49 0 31 -5 53 -15 61 -19 16 -14 21 -61 -73
-21 -42 -43 -76 -48 -74 -14 5 -35 111 -35 180 -1 44 2 57 14 57 8 0 15 4 15
10 0 5 11 20 25 34 30 30 31 36 5 36 -11 0 -20 -4 -20 -8 0 -8 -43 -32 -55
-32 -14 0 -2 64 17 97 22 37 62 83 73 83 3 0 5 -14 5 -31 0 -39 21 -112 34
-121 21 -14 27 22 12 73 -9 29 -19 81 -22 116 -4 41 -11 62 -18 59 -6 -2 -18
-7 -27 -11 -13 -5 -20 2 -29 29 -14 43 -37 47 -70 11z m35 -132 c-10 -18 -22
-33 -26 -33 -4 0 -13 16 -19 36 -11 32 -10 38 11 60 23 25 23 25 37 -3 13 -24
13 -30 -3 -60z"/>
</g>
</svg>
