<svg version="1.0" xmlns="http://www.w3.org/2000/svg"
 width="83.000000pt" height="131.000000pt" viewBox="0 0 83.000000 131.000000"
 preserveAspectRatio="xMidYMid meet">
<metadata>
Created by potrace 1.15, written by Peter Selinger 2001-2017
</metadata>
<g transform="translate(0.000000,131.000000) scale(0.100000,-0.100000)"
fill="#000000" stroke="none">
<path d="M539 1175 c-3 -2 -43 -6 -90 -9 -157 -8 -210 -17 -207 -35 3 -12 18
-17 63 -19 85 -4 85 -4 85 -69 0 -44 -3 -54 -12 -45 -7 7 -20 12 -29 12 -9 0
-37 11 -60 25 -50 28 -79 32 -79 10 0 -8 -3 -15 -7 -15 -9 0 -33 -49 -33 -67
0 -21 16 -15 30 11 7 14 18 27 25 30 15 5 85 -16 85 -26 0 -5 8 -8 18 -9 9 0
31 -8 47 -18 25 -15 30 -25 33 -63 3 -43 0 -49 -45 -95 -56 -58 -79 -117 -62
-160 25 -62 34 -79 52 -100 17 -20 18 -26 7 -53 -7 -16 -16 -30 -20 -30 -4 0
-10 -15 -13 -32 -3 -18 -9 -45 -12 -60 -4 -16 -1 -48 6 -74 11 -38 24 -55 67
-87 28 -22 52 -45 52 -52 0 -7 6 -18 14 -25 8 -6 16 -28 18 -48 2 -27 8 -38
22 -40 17 -4 18 1 12 67 -6 60 -5 72 9 77 39 16 77 152 56 207 -6 15 -32 48
-58 73 -29 29 -43 48 -35 51 6 3 12 11 12 19 0 8 6 17 14 20 8 3 26 23 40 45
36 54 36 116 0 153 -15 14 -31 26 -37 26 -5 0 -20 11 -33 26 -20 20 -24 36
-24 84 0 66 8 76 83 100 34 11 41 10 60 -7 31 -28 54 -34 67 -17 7 8 8 14 3
14 -6 0 -27 16 -47 35 -41 39 -50 41 -86 20 -34 -20 -86 -19 -94 1 -3 9 -6 31
-6 50 0 42 24 54 104 54 29 0 61 6 72 14 18 14 18 15 -9 25 -30 12 -51 14 -58
6z m-96 -417 c36 -19 67 -61 67 -91 0 -46 -67 -131 -95 -121 -16 6 -61 73 -76
111 -18 48 20 110 69 112 7 1 23 -4 35 -11z m38 -329 c41 -29 61 -117 37 -162
-29 -50 -68 -50 -114 -1 -29 30 -34 43 -34 83 0 33 6 53 20 69 11 12 20 26 20
32 0 14 36 4 71 -21z"/>
<path d="M77 783 c-3 -4 -8 -30 -12 -56 -7 -48 -7 -48 19 -35 24 10 27 17 24
52 -3 36 -20 58 -31 39z"/>
<path d="M650 750 c0 -11 5 -20 10 -20 6 0 10 -7 10 -15 0 -8 5 -15 10 -15 6
0 10 -5 10 -11 0 -18 30 -41 45 -35 19 7 6 33 -39 84 -34 37 -46 40 -46 12z"/>
<path d="M658 458 c7 -7 12 -20 12 -30 0 -10 4 -18 8 -18 5 0 28 -16 51 -36
27 -23 46 -33 52 -27 19 19 -83 123 -121 123 -11 0 -11 -3 -2 -12z"/>
<path d="M146 414 c-19 -41 -22 -98 -4 -92 7 3 21 27 30 54 22 59 22 60 4 67
-8 3 -19 -8 -30 -29z"/>
</g>
</svg>
