<svg version="1.0" xmlns="http://www.w3.org/2000/svg"
 width="77.000000pt" height="129.000000pt" viewBox="0 0 77.000000 129.000000"
 preserveAspectRatio="xMidYMid meet">
<metadata>
Created by potrace 1.15, written by Peter Selinger 2001-2017
</metadata>
<g transform="translate(0.000000,129.000000) scale(0.100000,-0.100000)"
fill="#000000" stroke="none">
<path d="M475 1220 c-11 -4 -85 -10 -165 -12 -173 -6 -209 -18 -238 -82 -17
-37 -19 -74 -20 -406 -2 -201 -5 -384 -8 -408 -6 -42 6 -72 30 -72 22 0 36
105 36 274 0 160 15 475 25 542 3 17 14 41 24 53 18 20 26 21 253 21 169 0
237 3 246 12 37 37 -15 80 -102 83 -34 1 -70 -1 -81 -5z"/>
<path d="M614 1076 c-3 -8 2 -28 11 -46 13 -25 14 -35 4 -46 -6 -8 -16 -14
-21 -14 -17 0 -118 -78 -118 -92 0 -18 68 -6 125 22 33 17 61 30 62 30 5 0 3
-47 -3 -77 -3 -17 -17 -43 -30 -59 -14 -15 -22 -34 -19 -42 3 -7 5 -16 5 -18
0 -2 10 -4 23 -4 22 0 77 46 77 65 0 5 6 16 14 24 24 27 20 151 -5 151 -5 0
-9 6 -9 14 0 61 -98 138 -116 92z"/>
<path d="M252 1050 c-30 -28 -28 -48 6 -61 36 -14 150 -20 158 -8 3 6 14 7 24
4 48 -15 22 42 -32 71 -42 22 -130 18 -156 -6z"/>
<path d="M232 898 c-39 -39 15 -70 114 -66 79 4 101 22 70 57 -16 18 -31 21
-96 21 -46 0 -81 -5 -88 -12z"/>
<path d="M411 756 c-15 -17 -4 -44 20 -51 50 -16 101 -97 102 -162 0 -51 -26
-90 -44 -63 -5 8 -12 28 -16 43 -10 46 -156 159 -184 141 -16 -10 37 -94 59
-94 18 0 62 -65 62 -90 0 -22 -2 -23 -62 -16 -34 3 -67 11 -72 16 -6 6 -23 10
-38 10 -21 0 -28 -5 -28 -19 0 -32 54 -57 165 -78 16 -3 34 -11 40 -17 12 -12
49 -226 47 -267 -1 -15 5 -32 13 -39 8 -7 15 -23 15 -36 0 -20 33 -44 45 -32
10 10 8 119 -4 178 -6 36 -14 95 -17 132 -6 71 -2 80 41 104 11 6 24 20 30 32
5 12 13 22 17 22 5 0 8 22 8 50 0 56 -33 125 -90 189 -52 57 -88 73 -109 47z"/>
</g>
</svg>
