<svg version="1.0" xmlns="http://www.w3.org/2000/svg"
 width="89.000000pt" height="193.000000pt" viewBox="0 0 89.000000 193.000000"
 preserveAspectRatio="xMidYMid meet">
<metadata>
Created by potrace 1.15, written by Peter Selinger 2001-2017
</metadata>
<g transform="translate(0.000000,193.000000) scale(0.100000,-0.100000)"
fill="#000000" stroke="none">
<path d="M290 1810 c0 -5 5 -22 11 -37 22 -53 27 -68 39 -113 7 -25 16 -58 21
-74 5 -16 9 -81 9 -145 0 -100 -4 -126 -26 -186 -27 -72 -42 -121 -50 -165 -7
-33 -19 -87 -44 -193 -22 -91 -34 -284 -19 -322 4 -11 19 -58 34 -105 15 -47
34 -101 42 -120 22 -52 85 -174 92 -180 10 -8 51 -94 51 -107 0 -7 5 -13 10
-13 6 0 10 10 10 22 0 22 -21 89 -31 98 -6 6 -49 97 -49 105 0 2 -13 33 -29
67 -16 35 -43 104 -60 154 -36 106 -41 200 -15 299 8 33 19 78 24 100 16 74
27 114 56 215 11 39 44 80 63 80 28 0 81 30 81 46 0 8 3 14 8 14 14 0 32 54
32 96 0 59 -29 120 -88 184 -49 53 -69 99 -89 202 -8 42 -83 113 -83 78z m176
-362 c42 -81 35 -125 -28 -184 -31 -29 -31 -29 -24 1 4 17 9 72 13 123 3 50 9
92 14 92 5 0 16 -14 25 -32z"/>
<path d="M147 1783 c-3 -5 0 -19 6 -33 6 -14 20 -54 33 -89 26 -74 25 -75 -50
-150 -45 -44 -66 -98 -66 -168 0 -60 37 -144 82 -184 17 -15 17 -22 7 -65 -6
-27 -15 -58 -19 -69 -18 -48 -30 -106 -30 -148 0 -25 -4 -56 -8 -69 -14 -38 4
-236 27 -308 12 -36 27 -83 33 -105 14 -47 146 -314 164 -332 11 -12 44 -18
44 -10 0 7 -84 172 -90 177 -24 20 -79 167 -116 310 -24 93 -11 386 19 416 4
4 7 18 7 31 0 13 4 23 8 23 5 0 9 18 10 40 1 22 9 57 18 78 54 124 70 354 33
477 -32 106 -43 133 -67 158 -26 28 -38 33 -45 20z m83 -353 c0 -79 -32 -210
-51 -210 -15 0 -49 73 -55 120 -7 54 5 82 55 126 42 38 51 31 51 -36z"/>
<path d="M515 1136 c-40 -12 -40 -12 -43 -93 -2 -67 1 -90 19 -127 37 -79 88
-103 195 -91 66 7 66 7 105 67 33 51 39 69 39 112 -1 28 -9 67 -18 86 -15 31
-24 36 -72 47 -72 15 -175 15 -225 -1z m103 -93 c3 -43 3 -43 -30 -43 -78 0
-97 23 -56 67 16 17 31 23 53 21 28 -3 30 -6 33 -45z m140 35 c7 -7 12 -27 12
-46 0 -33 0 -33 -47 -30 -44 3 -48 5 -51 31 -2 16 -1 35 2 43 7 17 67 19 84 2z
m-8 -147 c-1 -14 -37 -49 -58 -56 -22 -6 -23 -4 -20 26 2 26 9 35 28 39 26 7
50 3 50 -9z m-135 -26 c0 -38 -28 -45 -61 -14 -13 12 -24 26 -24 30 0 10 29
17 60 16 21 -2 25 -7 25 -32z"/>
</g>
</svg>
