<svg version="1.0" xmlns="http://www.w3.org/2000/svg"
 width="105.000000pt" height="113.000000pt" viewBox="0 0 105.000000 113.000000"
 preserveAspectRatio="xMidYMid meet">
<metadata>
Created by potrace 1.15, written by Peter Selinger 2001-2017
</metadata>
<g transform="translate(0.000000,113.000000) scale(0.100000,-0.100000)"
fill="#000000" stroke="none">
<path d="M760 933 c-1 -49 -1 -95 -1 -103 2 -133 1 -152 -15 -182 -9 -18 -21
-36 -26 -39 -5 -3 -9 -32 -9 -63 0 -45 4 -62 23 -85 23 -26 24 -34 21 -146 -3
-77 -8 -122 -17 -130 -7 -7 -35 -15 -62 -18 -98 -11 -133 -24 -106 -41 12 -7
114 -8 247 -2 138 6 195 14 195 27 0 14 -60 25 -164 28 -28 1 -28 1 -23 137 6
122 8 138 27 151 11 8 20 24 20 35 0 11 7 26 16 32 14 11 13 16 -7 51 -13 22
-29 45 -35 50 -8 7 -14 68 -18 175 -7 168 -17 210 -50 210 -11 0 -15 -20 -16
-87z"/>
<path d="M305 998 c-3 -7 -4 -61 -2 -120 3 -58 1 -111 -3 -118 -7 -11 -78 50
-116 101 -28 37 -66 60 -83 49 -12 -7 -7 -16 22 -45 20 -20 37 -41 37 -46 0
-5 33 -42 73 -82 74 -73 74 -73 71 -144 -3 -74 -20 -122 -52 -145 -21 -14
-117 -96 -172 -145 -26 -24 -32 -35 -24 -43 17 -18 44 -5 94 43 49 47 124 107
134 107 3 0 6 -68 6 -151 0 -144 12 -239 31 -239 5 0 9 7 9 15 0 8 4 15 8 15
10 0 34 338 26 351 -14 23 27 5 63 -28 66 -61 136 -106 147 -96 17 17 -3 45
-105 145 -112 109 -112 109 -105 175 4 36 12 73 19 83 7 9 45 45 85 80 64 55
92 87 92 104 0 10 -48 7 -52 -3 -4 -12 -124 -91 -138 -91 -6 0 -10 34 -10 89
0 117 -7 151 -32 151 -10 0 -21 -6 -23 -12z"/>
</g>
</svg>
