<svg version="1.0" xmlns="http://www.w3.org/2000/svg"
 width="68.000000pt" height="90.000000pt" viewBox="0 0 68.000000 90.000000"
 preserveAspectRatio="xMidYMid meet">
<metadata>
Created by potrace 1.15, written by Peter Selinger 2001-2017
</metadata>
<g transform="translate(0.000000,90.000000) scale(0.100000,-0.100000)"
fill="#000000" stroke="none">
<path d="M447 666 c-4 -10 -7 -29 -7 -42 0 -32 -27 -31 -42 1 -13 29 -26 32
-35 9 -6 -17 30 -60 59 -70 10 -3 18 -14 18 -24 0 -18 -26 -30 -67 -30 -22 0
-31 -14 -15 -23 16 -10 215 8 219 20 3 8 -12 13 -44 15 -58 4 -71 28 -25 47
30 13 52 47 52 81 0 27 -21 36 -34 14 -11 -18 -12 -24 -15 -51 -2 -24 -31 -14
-31 10 0 13 -6 31 -13 41 -13 18 -14 18 -20 2z"/>
<path d="M196 655 c-3 -9 -3 -27 0 -40 3 -13 3 -28 0 -34 -11 -17 -36 -1 -36
23 0 28 -15 50 -29 42 -27 -17 1 -87 39 -96 16 -4 25 -13 25 -25 0 -16 -9 -21
-45 -25 -25 -3 -45 -9 -45 -15 0 -13 77 -18 145 -8 63 9 73 27 18 31 -21 2
-38 8 -38 13 0 6 16 25 35 43 35 33 43 59 26 85 -12 19 -31 5 -31 -23 0 -13
-6 -29 -14 -35 -12 -11 -15 -6 -18 30 -3 44 -21 62 -32 34z"/>
<path d="M400 433 c-37 -14 -50 -36 -50 -87 0 -64 16 -122 35 -130 28 -11 12
-140 -23 -179 -17 -19 -11 -32 12 -24 24 10 50 68 56 127 4 47 8 55 28 58 19
3 22 -1 23 -35 2 -64 23 -138 39 -138 11 0 14 10 12 39 -2 22 -8 48 -13 57
-18 34 -10 75 21 107 27 29 30 38 30 100 0 96 -13 112 -93 111 -34 0 -69 -3
-77 -6z m104 -29 c9 -3 16 -12 16 -20 0 -11 -16 -14 -64 -14 -67 0 -89 11 -59
29 20 12 83 14 107 5z m26 -73 c0 -16 -10 -21 -54 -26 -65 -8 -91 -4 -91 15 0
17 34 28 98 29 40 1 47 -2 47 -18z m-13 -57 c8 -22 -14 -34 -68 -34 -32 0 -49
5 -53 15 -3 10 2 16 17 20 12 2 31 6 42 8 40 9 56 7 62 -9z"/>
<path d="M280 395 c-15 -18 -120 -21 -138 -3 -9 9 -15 9 -23 1 -8 -8 -5 -20
14 -45 27 -36 57 -128 57 -175 0 -16 3 -32 6 -36 10 -10 34 4 34 21 0 25 18
78 59 176 23 52 26 76 12 76 -5 0 -14 -7 -21 -15z m-40 -67 c-1 -7 -7 -26 -14
-43 -14 -30 -14 -30 -25 -2 -17 44 -14 57 14 57 14 0 25 -6 25 -12z"/>
</g>
</svg>
