<svg version="1.0" xmlns="http://www.w3.org/2000/svg"
 width="107.000000pt" height="171.000000pt" viewBox="0 0 107.000000 171.000000"
 preserveAspectRatio="xMidYMid meet">
<metadata>
Created by potrace 1.15, written by Peter Selinger 2001-2017
</metadata>
<g transform="translate(0.000000,171.000000) scale(0.100000,-0.100000)"
fill="#000000" stroke="none">
<path d="M246 1604 c-3 -9 -4 -20 -1 -25 3 -4 -7 -28 -22 -51 -15 -24 -40 -68
-56 -98 -16 -30 -35 -62 -42 -70 -7 -8 -16 -32 -20 -52 -6 -33 -5 -38 12 -38
12 0 30 17 48 46 16 25 37 50 47 55 10 5 18 16 18 24 0 8 4 15 8 15 4 0 19 22
33 50 13 27 29 50 34 50 14 0 114 -97 155 -150 19 -25 41 -51 48 -59 7 -7 16
-26 19 -42 3 -16 10 -32 14 -35 5 -3 9 -25 9 -48 0 -48 17 -43 -220 -62 -79
-6 -100 -12 -100 -29 0 -13 25 -15 159 -15 159 0 159 0 166 -76 4 -41 5 -78 2
-80 -3 -3 -76 -12 -163 -20 -235 -21 -258 -28 -194 -54 20 -8 50 -10 88 -6 31
4 102 9 157 13 101 5 101 5 114 -73 7 -44 17 -92 22 -108 13 -41 11 -56 -6
-56 -15 0 -55 -19 -65 -31 -3 -3 -21 -11 -40 -18 -38 -12 -44 -26 -69 -146
-11 -54 -21 -242 -14 -262 8 -21 19 -15 38 21 21 39 51 56 98 56 18 0 47 4 66
10 39 11 51 1 72 -63 7 -20 16 -37 21 -37 4 0 8 -10 8 -22 1 -32 37 -75 52
-60 8 8 8 20 -2 44 -18 49 -31 81 -41 100 -5 10 -9 31 -9 46 0 25 8 33 55 57
64 32 111 76 131 124 13 31 14 95 5 234 -1 10 -65 9 -77 -2 -8 -9 -119 -31
-154 -31 -12 0 -16 20 -18 110 -3 110 -3 110 125 110 126 0 168 9 148 29 -14
14 -134 31 -222 31 -73 0 -73 0 -73 79 0 80 0 80 43 85 23 3 89 8 146 11 105
6 121 9 121 25 0 14 -56 21 -185 23 -120 2 -120 2 -120 72 -1 66 1 73 39 125
49 67 106 121 126 117 8 -1 29 -22 48 -47 18 -25 49 -63 68 -85 18 -22 41 -54
49 -72 12 -24 23 -33 40 -33 14 0 25 6 25 13 0 18 -24 67 -32 67 -5 0 -8 5 -8
11 0 6 -17 37 -38 68 -22 31 -44 72 -50 91 -13 38 -62 90 -85 90 -8 0 -36 -26
-63 -57 -27 -32 -62 -72 -79 -89 -16 -17 -40 -43 -52 -57 -21 -25 -53 -37 -53
-19 0 4 -16 25 -35 47 -19 22 -35 43 -35 47 0 16 -194 198 -210 198 -10 0 -21
-7 -24 -16z m578 -1046 c7 -52 1 -87 -24 -143 -22 -49 -37 -63 -87 -80 -36
-12 -38 -12 -51 14 -13 25 -21 206 -9 217 4 4 127 31 153 33 7 1 14 -18 18
-41z m-227 -60 c6 -29 11 -85 12 -125 2 -68 1 -73 -21 -77 -53 -11 -98 -14
-118 -9 -19 5 -21 11 -16 47 11 90 19 115 37 132 10 9 19 25 19 36 0 15 41 43
70 47 3 1 10 -23 17 -51z"/>
<path d="M430 650 c0 -5 5 -10 10 -10 6 0 10 5 10 10 0 6 -4 10 -10 10 -5 0
-10 -4 -10 -10z"/>
</g>
</svg>
