<svg version="1.0" xmlns="http://www.w3.org/2000/svg"
 width="137.000000pt" height="203.000000pt" viewBox="0 0 137.000000 203.000000"
 preserveAspectRatio="xMidYMid meet">
<metadata>
Created by potrace 1.15, written by Peter Selinger 2001-2017
</metadata>
<g transform="translate(0.000000,203.000000) scale(0.100000,-0.100000)"
fill="#000000" stroke="none">
<path d="M847 1934 c-1 -2 -46 -5 -100 -9 -53 -3 -139 -10 -189 -16 -51 -5
-101 -10 -110 -10 -25 0 -41 -35 -35 -73 11 -71 51 -179 73 -202 34 -33 127
-74 170 -74 31 0 35 -3 29 -17 -4 -10 -9 -34 -11 -53 -4 -41 -17 -69 -59 -125
-32 -43 -105 -114 -117 -115 -5 0 -8 -6 -8 -13 0 -8 -12 -20 -27 -28 -15 -8
-39 -26 -54 -41 -14 -16 -31 -28 -37 -28 -6 0 -15 -6 -19 -14 -4 -7 -26 -23
-49 -34 -22 -11 -46 -28 -53 -36 -8 -9 -20 -16 -27 -16 -8 0 -14 -4 -14 -10 0
-5 -7 -10 -15 -10 -24 0 -85 -39 -85 -54 0 -9 29 -7 64 3 85 25 111 34 116 40
3 4 48 28 100 54 52 27 109 59 125 72 17 14 34 25 38 25 5 0 36 27 69 60 73
74 88 76 88 14 0 -50 -9 -72 -43 -106 -12 -13 -31 -34 -42 -48 -11 -14 -35
-37 -54 -50 -18 -14 -57 -46 -85 -71 -115 -105 -132 -119 -143 -119 -7 0 -13
-4 -13 -8 0 -4 -12 -15 -27 -25 -16 -9 -48 -35 -71 -57 -24 -22 -48 -40 -52
-40 -5 0 -15 -6 -22 -12 -19 -18 -69 -48 -90 -55 -10 -3 -18 -9 -18 -14 0 -12
47 -11 55 1 3 6 13 10 21 10 8 0 33 9 57 19 69 32 85 34 95 14 9 -18 19 -67
28 -138 2 -22 9 -51 14 -65 16 -41 22 -99 24 -230 2 -117 17 -200 36 -200 4 0
15 15 23 33 9 18 30 51 47 72 17 21 38 55 48 74 9 20 26 45 37 57 12 12 29 43
39 70 37 102 22 94 177 94 137 0 137 0 158 -45 12 -25 21 -52 21 -60 0 -8 5
-15 10 -15 6 0 10 -7 10 -15 0 -8 4 -15 9 -15 4 0 14 -20 21 -45 7 -25 15 -45
19 -45 3 0 12 -12 19 -27 7 -16 26 -43 41 -61 23 -27 34 -32 51 -27 19 6 21
12 15 39 -4 17 -7 36 -6 41 1 25 21 187 31 250 5 39 13 90 16 115 3 25 9 54
14 65 5 11 10 29 12 40 4 23 32 31 62 17 11 -6 33 -13 49 -16 23 -6 27 -3 27
16 0 22 -37 49 -135 98 -16 8 -56 40 -88 72 -33 32 -61 58 -64 58 -2 0 -18 13
-36 30 -18 16 -38 30 -44 30 -7 0 -13 6 -13 13 0 7 -22 36 -48 65 -74 80 -101
136 -94 200 5 54 5 54 66 -10 33 -35 86 -83 116 -108 30 -25 57 -47 60 -51 15
-17 138 -94 180 -111 132 -55 90 55 -49 130 -80 43 -217 180 -291 292 -63 95
-80 135 -80 190 0 32 4 39 29 50 68 28 118 120 127 234 2 27 6 57 9 67 8 24
-37 48 -88 46 -21 -1 -39 -2 -40 -3z m23 -152 c0 -41 -4 -51 -35 -79 -43 -39
-57 -47 -116 -61 -35 -9 -55 -9 -80 0 -63 21 -103 54 -118 93 -12 34 -11 39 5
55 21 21 128 37 262 39 82 1 82 1 82 -47z m-109 -764 c8 -7 32 -34 52 -60 34
-43 37 -52 37 -111 0 -89 -13 -98 -137 -101 -34 0 -64 1 -67 4 -3 4 -8 49 -12
100 -6 95 -6 95 34 119 22 14 46 33 53 43 16 21 20 22 40 6z m-251 -172 c0 -2
5 -28 10 -57 14 -70 14 -280 0 -325 -5 -19 -15 -51 -22 -71 -14 -49 -59 -116
-69 -106 -5 5 -15 69 -24 143 -8 74 -22 167 -30 207 -20 97 -19 109 11 130 14
10 35 27 48 39 32 30 76 54 76 40z m520 -83 c30 -20 60 -42 66 -48 15 -15 -8
-232 -42 -384 -7 -30 -16 -20 -42 49 -62 166 -90 420 -45 420 5 0 33 -17 63
-37z m-207 -122 c20 -8 26 -18 29 -50 4 -49 -2 -52 -137 -50 -95 1 -95 1 -95
44 0 42 1 44 34 50 19 4 43 4 53 1 14 -4 75 5 90 13 1 1 13 -3 26 -8z"/>
</g>
</svg>
