<svg version="1.0" xmlns="http://www.w3.org/2000/svg"
 width="72.000000pt" height="114.000000pt" viewBox="0 0 72.000000 114.000000"
 preserveAspectRatio="xMidYMid meet">
<metadata>
Created by potrace 1.15, written by Peter Selinger 2001-2017
</metadata>
<g transform="translate(0.000000,114.000000) scale(0.100000,-0.100000)"
fill="#000000" stroke="none">
<path d="M279 960 c-52 -9 -83 -31 -106 -74 -31 -58 15 -112 102 -118 32 -2
52 -9 59 -20 15 -24 -3 -52 -35 -56 -114 -13 -279 -99 -279 -146 0 -26 30 -18
84 23 64 48 62 47 143 76 96 35 180 34 264 -4 35 -15 82 -34 104 -40 22 -7 50
-17 62 -23 26 -13 36 -8 28 14 -11 29 -227 118 -287 118 -18 0 -29 7 -33 20
-10 32 3 40 60 40 95 0 132 24 141 92 5 37 3 46 -20 67 -39 37 -169 51 -287
31z m227 -51 c27 -25 31 -61 10 -82 -29 -28 -249 -32 -283 -4 -7 5 -13 22 -13
37 0 19 7 30 28 39 15 8 34 17 42 21 8 4 55 8 104 9 79 2 91 -1 112 -20z"/>
<path d="M315 565 c-5 -2 -37 -11 -70 -20 -33 -10 -68 -26 -77 -37 -28 -32
-48 -120 -48 -216 0 -169 26 -223 125 -258 60 -21 217 -28 260 -12 50 19 93
58 104 91 15 49 14 329 -1 363 -26 59 -46 69 -161 79 -37 3 -80 8 -95 10 -15
2 -31 2 -37 0z m207 -66 c34 -35 43 -82 42 -221 -1 -160 -9 -178 -82 -209 -37
-16 -62 -19 -117 -16 -156 11 -178 30 -189 162 -4 48 -4 123 0 167 7 78 7 80
43 103 52 32 63 34 182 31 77 -2 111 -6 121 -17z"/>
<path d="M297 416 c-38 -34 -38 -34 -35 -118 3 -83 3 -83 42 -102 21 -10 58
-21 81 -24 37 -4 47 -1 67 21 43 47 55 184 19 220 -11 11 -93 36 -122 37 -8 0
-32 -15 -52 -34z m145 -72 c4 -16 6 -41 2 -55 -11 -54 -76 -83 -119 -55 -35
23 -36 102 -2 133 45 43 104 31 119 -23z"/>
</g>
</svg>
