<svg version="1.0" xmlns="http://www.w3.org/2000/svg"
 width="75.000000pt" height="101.000000pt" viewBox="0 0 75.000000 101.000000"
 preserveAspectRatio="xMidYMid meet">
<metadata>
Created by potrace 1.15, written by Peter Selinger 2001-2017
</metadata>
<g transform="translate(0.000000,101.000000) scale(0.100000,-0.100000)"
fill="#000000" stroke="none">
<path d="M227 995 c-9 -6 -17 -17 -17 -24 0 -11 31 -85 51 -123 17 -32 10 -48
-18 -49 -89 -2 -162 -10 -187 -21 -28 -11 -28 -11 -5 -29 20 -15 43 -19 126
-19 143 0 144 -1 167 -100 10 -45 14 -85 10 -90 -9 -8 -70 -15 -219 -26 -86
-6 -125 -20 -125 -45 0 -20 -4 -20 180 -26 47 -1 104 -3 128 -4 23 -1 44 -5
47 -9 8 -14 -22 -115 -47 -162 -29 -52 -97 -105 -195 -154 -52 -25 -73 -41
-73 -54 0 -25 12 -31 63 -33 35 -2 52 6 102 41 34 23 64 42 68 42 8 0 68 59
104 103 13 15 23 37 23 50 0 13 4 27 8 33 12 13 32 87 32 118 0 28 -7 26 115
31 90 4 155 16 155 29 0 24 -51 36 -149 35 -54 -1 -103 1 -108 4 -6 4 -16 28
-22 54 -7 27 -16 62 -21 79 -6 17 -10 40 -10 52 0 11 -4 24 -10 27 -5 3 -10
16 -10 29 0 12 -4 26 -8 31 -5 6 -15 30 -22 55 -13 43 -40 90 -67 118 -7 7
-13 17 -13 22 0 19 -35 29 -53 15z"/>
</g>
</svg>
