<svg version="1.0" xmlns="http://www.w3.org/2000/svg"
 width="61.000000pt" height="84.000000pt" viewBox="0 0 61.000000 84.000000"
 preserveAspectRatio="xMidYMid meet">
<metadata>
Created by potrace 1.15, written by Peter Selinger 2001-2017
</metadata>
<g transform="translate(0.000000,84.000000) scale(0.100000,-0.100000)"
fill="#000000" stroke="none">
<path d="M417 803 c-4 -3 -7 -21 -7 -40 0 -18 -4 -33 -9 -33 -12 0 -38 25 -43
42 -2 6 -10 8 -16 4 -14 -9 -16 -45 -3 -66 7 -10 2 -19 -20 -32 -31 -19 -49
-53 -49 -93 0 -44 -24 -55 -116 -55 -49 0 -84 -4 -84 -10 0 -5 0 -13 0 -17 0
-4 45 -6 100 -4 100 3 100 3 100 -42 0 -44 0 -44 -52 -49 -34 -4 -56 -12 -65
-24 -19 -26 -16 -84 7 -122 20 -33 19 -70 -1 -73 -30 -5 -34 -2 -34 30 0 42
-21 52 -36 18 -17 -36 -4 -74 32 -92 27 -14 29 -19 23 -49 -3 -19 -1 -43 6
-56 18 -33 40 -7 40 46 0 38 3 44 20 44 23 0 70 45 70 66 0 8 -7 14 -15 14 -8
0 -15 -3 -15 -8 0 -9 -40 -35 -46 -29 -3 2 0 16 7 30 11 24 17 26 98 29 75 3
88 1 104 -16 21 -22 6 -49 -15 -28 -16 16 -48 15 -48 -2 0 -18 22 -36 57 -45
29 -8 48 -35 58 -83 6 -30 29 -37 39 -12 10 27 7 89 -6 103 -11 10 -9 15 5 26
36 26 46 125 12 125 -16 0 -25 -22 -25 -60 0 -41 -13 -44 -39 -9 -20 27 -21
31 -6 51 8 13 15 37 15 55 0 46 -30 73 -79 73 -50 0 -75 23 -66 59 4 14 9 28
12 31 2 3 53 7 111 10 86 4 107 8 107 20 0 12 -18 14 -111 11 -69 -2 -114 1
-118 7 -11 19 12 94 33 109 12 8 19 19 16 24 -4 5 7 9 24 9 16 0 31 -6 33 -12
3 -9 18 -5 52 12 53 27 81 61 72 85 -8 23 -23 18 -38 -12 -7 -14 -19 -28 -25
-31 -13 -4 -17 3 -27 51 -6 25 -24 35 -39 20z m-139 -445 c-2 -18 -10 -24 -38
-26 -19 -1 -41 2 -49 7 -25 16 6 41 51 41 35 0 39 -2 36 -22z m116 16 c24 -9
19 -33 -8 -40 -38 -9 -61 -1 -64 24 -3 19 1 22 26 22 17 0 37 -3 46 -6z m-114
-94 c0 -14 -7 -20 -22 -20 -37 0 -66 11 -72 26 -4 11 6 14 44 14 43 0 50 -3
50 -20z m118 8 c-3 -7 -21 -14 -41 -16 -28 -2 -37 1 -37 12 0 12 11 16 41 16
28 0 39 -4 37 -12z"/>
<path d="M150 746 c0 -44 -20 -48 -48 -8 -17 22 -23 25 -33 15 -22 -22 1 -66
39 -74 17 -3 39 -12 47 -19 13 -11 19 -9 38 9 13 11 31 21 40 21 22 0 40 36
33 66 -9 33 -34 31 -38 -3 -4 -39 -36 -43 -40 -6 -2 17 -10 29 -20 31 -15 3
-18 -4 -18 -32z"/>
<path d="M427 626 c-53 -32 -64 -44 -45 -51 17 -7 109 44 116 63 6 19 -29 13
-71 -12z"/>
<path d="M120 617 c0 -12 69 -49 95 -51 24 -2 7 28 -25 45 -41 22 -70 24 -70
6z"/>
<path d="M138 444 c-65 -33 -85 -54 -53 -54 20 0 138 65 143 79 6 18 -19 11
-90 -25z"/>
<path d="M396 471 c-7 -10 102 -91 121 -91 22 0 14 38 -8 45 -12 4 -37 18 -56
31 -39 26 -49 29 -57 15z"/>
</g>
</svg>
