<svg version="1.0" xmlns="http://www.w3.org/2000/svg"
 width="64.000000pt" height="92.000000pt" viewBox="0 0 64.000000 92.000000"
 preserveAspectRatio="xMidYMid meet">
<metadata>
Created by potrace 1.15, written by Peter Selinger 2001-2017
</metadata>
<g transform="translate(0.000000,92.000000) scale(0.100000,-0.100000)"
fill="#000000" stroke="none">
<path d="M190 669 c0 -45 0 -45 -67 -18 -42 17 -53 5 -19 -22 14 -11 32 -26
39 -33 6 -7 19 -17 28 -22 23 -13 7 -58 -18 -50 -49 14 -91 17 -98 6 -13 -21
16 -39 68 -42 52 -3 52 -3 55 -81 4 -100 -10 -170 -48 -251 -35 -77 -37 -86
-10 -86 22 0 35 19 45 70 8 41 27 90 35 90 7 0 43 -94 50 -130 6 -31 50 -42
50 -13 0 11 -4 23 -9 29 -4 5 -22 44 -40 86 -27 68 -31 88 -31 172 0 96 0 96
55 121 49 21 76 47 63 61 -3 2 -18 -2 -34 -11 -37 -19 -73 -19 -80 0 -8 21 12
42 45 50 33 7 71 40 71 60 0 19 -36 19 -47 1 -4 -8 -21 -18 -37 -22 -27 -6
-29 -5 -23 16 7 28 -8 60 -28 60 -11 0 -15 -12 -15 -41z"/>
<path d="M411 654 c-21 -15 -23 -23 -19 -76 5 -68 14 -78 74 -78 63 0 89 26
88 86 -1 36 -6 52 -24 66 -28 22 -88 23 -119 2z m102 -37 c3 -7 3 -25 0 -40
-4 -21 -13 -28 -38 -33 -19 -3 -38 -3 -44 1 -12 7 -15 68 -4 78 12 13 81 7 86
-6z"/>
<path d="M286 374 c-10 -79 -8 -94 14 -94 18 0 20 7 20 70 0 52 -3 70 -14 70
-8 0 -16 -17 -20 -46z"/>
<path d="M455 413 c-57 -5 -79 -19 -52 -34 11 -6 17 -22 17 -44 0 -27 -5 -37
-27 -47 -27 -13 -28 -16 -31 -99 -4 -113 7 -127 109 -145 41 -7 78 -9 83 -4
16 16 -3 39 -38 44 -20 4 -51 8 -70 11 -22 4 -37 13 -41 24 -8 27 -9 107 -1
120 4 6 28 11 54 12 78 2 95 10 109 54 6 22 12 50 12 62 1 28 -25 53 -52 51
-12 -1 -44 -3 -72 -5z m65 -49 c10 -11 11 -23 4 -42 -7 -21 -16 -27 -39 -27
-27 0 -30 3 -27 30 1 17 5 36 7 43 6 17 40 15 55 -4z"/>
<path d="M80 331 c0 -44 4 -82 9 -86 18 -11 32 35 29 98 -2 49 -6 62 -20 65
-16 3 -18 -6 -18 -77z"/>
</g>
</svg>
