<svg version="1.0" xmlns="http://www.w3.org/2000/svg"
 width="73.000000pt" height="87.000000pt" viewBox="0 0 73.000000 87.000000"
 preserveAspectRatio="xMidYMid meet">
<metadata>
Created by potrace 1.15, written by Peter Selinger 2001-2017
</metadata>
<g transform="translate(0.000000,87.000000) scale(0.100000,-0.100000)"
fill="#000000" stroke="none">
<path d="M627 790 c-10 -18 -17 -46 -17 -62 0 -57 -14 -68 -85 -68 -82 0 -95
6 -95 41 0 35 -22 109 -32 109 -16 0 -28 -81 -28 -187 0 -113 0 -113 -89 -113
-62 0 -94 4 -103 14 -9 8 -15 42 -16 92 -4 94 -18 154 -36 154 -22 0 -27 -42
-31 -230 -2 -96 -11 -222 -20 -280 -26 -170 -27 -174 -10 -194 15 -20 15 -20
30 0 8 10 15 28 15 39 1 38 15 45 110 54 130 12 140 9 140 -42 0 -18 4 -38 9
-46 14 -22 41 -5 41 26 0 15 4 33 8 40 7 12 174 25 200 15 6 -2 12 -17 12 -33
0 -30 19 -79 30 -79 19 0 32 32 26 62 -11 54 -25 148 -35 238 -9 78 -8 120 4
250 16 163 17 195 2 214 -13 18 -15 18 -30 -14z m-39 -232 c-3 -43 -3 -43 -78
-43 -75 0 -75 0 -78 34 -2 19 1 37 6 40 6 3 43 7 82 9 71 3 71 3 68 -40z
m-235 -145 c11 -82 8 -171 -5 -180 -7 -4 -56 -8 -109 -8 -97 0 -97 0 -91 105
3 60 10 108 16 112 6 4 50 8 98 8 86 0 86 0 91 -37z m224 25 c6 -7 13 -42 16
-78 3 -36 8 -74 12 -85 9 -34 -9 -45 -91 -54 -105 -12 -108 -10 -102 99 7 121
14 130 92 130 39 0 67 -5 73 -12z"/>
</g>
</svg>
