<svg version="1.0" xmlns="http://www.w3.org/2000/svg"
 width="64.000000pt" height="123.000000pt" viewBox="0 0 64.000000 123.000000"
 preserveAspectRatio="xMidYMid meet">
<metadata>
Created by potrace 1.15, written by Peter Selinger 2001-2017
</metadata>
<g transform="translate(0.000000,123.000000) scale(0.100000,-0.100000)"
fill="#000000" stroke="none">
<path d="M218 1142 c-15 -9 -29 -29 -33 -46 -8 -31 -8 -31 -14 -1 -5 23 -12
31 -33 33 -42 5 -108 -16 -108 -35 0 -12 7 -14 38 -10 34 6 38 4 50 -23 9 -20
22 -30 40 -32 25 -3 22 -6 -30 -36 -56 -31 -76 -62 -40 -62 9 0 31 9 48 19 43
26 88 31 92 10 3 -16 -22 -28 -63 -29 -11 0 -33 -12 -50 -25 -29 -24 -30 -27
-29 -108 1 -94 16 -127 67 -154 24 -12 37 -13 66 -4 54 16 168 20 186 7 26
-19 -4 -48 -56 -55 -55 -8 -66 -29 -73 -135 -3 -43 -8 -81 -10 -84 -9 -8 -36
20 -36 37 0 20 -56 111 -68 111 -5 0 -22 11 -38 25 -35 30 -54 32 -54 5 0 -11
4 -20 9 -20 5 0 22 -25 37 -55 22 -46 28 -76 35 -174 4 -66 5 -151 0 -191 -13
-126 22 -89 38 41 12 90 24 111 63 107 31 -3 31 -3 34 -101 4 -106 7 -117 30
-117 12 0 15 14 14 73 -3 140 -4 134 38 141 42 7 61 -10 63 -53 1 -40 32 -124
48 -129 10 -3 12 6 7 44 -4 27 -9 90 -12 139 -5 76 -3 99 15 145 12 30 21 62
21 71 0 9 9 24 21 35 19 17 49 65 49 79 0 13 -23 3 -46 -20 -14 -14 -29 -25
-35 -25 -5 0 -30 -20 -55 -45 -38 -39 -50 -45 -86 -45 -41 0 -41 0 -34 38 3
20 6 42 6 47 0 6 20 17 45 24 48 14 100 64 89 84 -24 42 -37 47 -119 47 -82 0
-82 0 -78 25 6 31 11 32 173 46 74 6 141 16 148 22 43 35 52 157 16 232 -21
44 -39 46 -30 3 20 -103 20 -105 -10 -111 -73 -15 -293 -29 -339 -22 -50 8
-50 8 -15 17 92 24 113 34 136 61 13 16 24 35 24 42 0 19 -41 106 -60 127 -22
24 -62 29 -92 10z m66 -38 c9 -8 16 -27 15 -42 0 -27 0 -27 -12 -2 -14 31 -29
42 -41 30 -15 -15 3 -60 24 -60 11 0 20 -5 20 -11 0 -6 -12 -9 -27 -7 -24 3
-28 8 -31 40 -3 34 12 67 30 68 4 0 14 -7 22 -16z m-19 -144 c3 -5 1 -10 -4
-10 -6 0 -11 5 -11 10 0 6 2 10 4 10 3 0 8 -4 11 -10z m314 -119 c-11 -32 -22
-35 -189 -47 -52 -4 -100 -10 -106 -15 -7 -5 -19 1 -32 16 -22 25 -42 33 -42
16 0 -4 5 -23 11 -40 9 -25 9 -38 -1 -57 -29 -53 -50 -20 -50 77 0 56 0 56
162 58 89 1 169 6 177 11 9 5 30 10 48 10 31 0 32 -1 22 -29z m-189 -446 c0
-22 -46 -30 -65 -12 -23 23 -19 27 25 27 29 0 40 -4 40 -15z m8 -77 c3 -14 -4
-18 -31 -18 -21 0 -37 6 -40 14 -7 19 -4 21 35 21 23 0 34 -5 36 -17z m-118
-3 c0 -9 -9 -15 -25 -15 -16 0 -25 6 -25 15 0 9 9 15 25 15 16 0 25 -6 25 -15z"/>
</g>
</svg>
