<svg version="1.0" xmlns="http://www.w3.org/2000/svg"
 width="41.000000pt" height="65.000000pt" viewBox="0 0 41.000000 65.000000"
 preserveAspectRatio="xMidYMid meet">
<metadata>
Created by potrace 1.15, written by Peter Selinger 2001-2017
</metadata>
<g transform="translate(0.000000,65.000000) scale(0.100000,-0.100000)"
fill="#000000" stroke="none">
<path d="M378 513 c-3 -4 -10 -27 -18 -50 -9 -29 -19 -43 -32 -44 -10 -1 -24
-2 -30 -3 -9 -1 -12 11 -10 37 2 22 -1 37 -7 37 -6 0 -11 -9 -11 -19 0 -11 -4
-22 -8 -25 -5 -3 -17 -35 -27 -71 -17 -65 -17 -65 -61 -65 -44 0 -44 0 -44 48
0 27 -6 56 -13 65 -10 14 -12 1 -13 -80 -1 -54 -5 -129 -9 -167 -5 -50 -4 -67
4 -62 6 4 11 20 11 35 0 39 15 47 79 47 46 -1 56 -4 60 -21 8 -28 44 -85 53
-85 11 0 10 38 -1 42 -5 2 -13 20 -16 41 -7 36 -6 39 16 35 19 -2 26 -13 38
-61 17 -63 37 -78 27 -19 -15 93 -18 176 -8 210 25 88 39 213 20 175z m-46
-193 c-5 -87 -6 -90 -36 -90 -34 0 -46 19 -46 75 0 63 21 97 58 93 27 -3 27
-3 24 -78z m-114 -42 c22 -22 14 -45 -19 -52 -62 -12 -69 -9 -69 29 0 34 1 35
38 35 21 0 43 -5 50 -12z"/>
</g>
</svg>
