<svg version="1.0" xmlns="http://www.w3.org/2000/svg"
 width="33.000000pt" height="67.000000pt" viewBox="0 0 33.000000 67.000000"
 preserveAspectRatio="xMidYMid meet">
<metadata>
Created by potrace 1.15, written by Peter Selinger 2001-2017
</metadata>
<g transform="translate(0.000000,67.000000) scale(0.100000,-0.100000)"
fill="#000000" stroke="none">
<path d="M167 503 c-3 -5 -9 -32 -12 -59 -5 -34 -13 -54 -26 -62 -18 -11 -19
-8 -19 53 0 36 -4 65 -9 65 -10 0 -24 -235 -19 -325 3 -59 3 -60 17 -30 23 53
27 59 39 63 8 2 12 -11 12 -40 1 -42 1 -43 15 -18 8 14 14 34 15 46 0 11 6 28
13 39 20 27 28 7 32 -81 3 -69 8 -94 19 -83 13 12 9 399 -4 399 -6 0 -10 -27
-10 -60 0 -57 -1 -60 -25 -60 -24 0 -24 2 -22 70 3 68 -4 102 -16 83z m-28
-259 c-20 -25 -29 -15 -29 32 0 33 5 51 18 60 15 11 17 8 20 -33 2 -24 -2 -51
-9 -59z m81 67 c0 -10 -7 -21 -15 -25 -15 -5 -22 24 -8 37 12 13 23 7 23 -12z"/>
</g>
</svg>
