<svg version="1.0" xmlns="http://www.w3.org/2000/svg"
 width="51.000000pt" height="71.000000pt" viewBox="0 0 51.000000 71.000000"
 preserveAspectRatio="xMidYMid meet">
<metadata>
Created by potrace 1.15, written by Peter Selinger 2001-2017
</metadata>
<g transform="translate(0.000000,71.000000) scale(0.100000,-0.100000)"
fill="#000000" stroke="none">
<path d="M246 568 c-3 -29 -6 -88 -6 -130 0 -68 -3 -79 -21 -88 -11 -6 -30
-10 -42 -8 -20 3 -23 11 -28 83 -7 85 -16 125 -29 125 -4 0 -11 10 -15 23 -8
22 -8 22 -12 0 -2 -12 2 -32 9 -45 8 -16 14 -85 16 -220 3 -157 7 -198 18
-198 9 0 14 17 16 58 3 57 3 57 50 60 43 3 49 0 59 -22 15 -31 29 -24 29 14 0
32 22 45 51 30 14 -8 20 -8 23 2 2 7 8 27 14 43 5 17 10 62 11 100 2 39 4 83
6 99 4 34 -10 79 -18 56 -9 -28 -27 -133 -27 -162 0 -26 -3 -28 -40 -28 -40 0
-40 0 -40 130 0 132 -12 172 -24 78z m78 -244 c25 -10 19 -34 -8 -34 -29 0
-44 19 -25 31 17 11 14 10 33 3z m-83 -14 c15 0 10 -27 -7 -34 -22 -9 -72 -7
-78 2 -12 20 31 45 62 36 8 -2 18 -4 23 -4z"/>
</g>
</svg>
