<svg version="1.0" xmlns="http://www.w3.org/2000/svg"
 width="49.000000pt" height="89.000000pt" viewBox="0 0 49.000000 89.000000"
 preserveAspectRatio="xMidYMid meet">
<metadata>
Created by potrace 1.15, written by Peter Selinger 2001-2017
</metadata>
<g transform="translate(0.000000,89.000000) scale(0.100000,-0.100000)"
fill="#000000" stroke="none">
<path d="M122 720 c-16 -41 -34 -420 -21 -436 7 -8 7 -14 2 -14 -14 0 -26
-131 -14 -143 12 -12 14 -7 31 81 14 67 20 71 79 51 31 -11 31 -11 31 -100 0
-49 4 -89 9 -89 11 0 31 88 31 138 0 37 0 37 49 37 50 0 50 0 57 -110 7 -100
8 -107 19 -80 13 30 16 77 34 434 6 126 6 201 0 213 -23 42 -39 8 -39 -83 0
-55 0 -55 -45 -78 -25 -12 -49 -19 -55 -16 -5 3 -10 37 -10 74 0 44 -5 74 -15
87 -14 18 -14 18 -15 -6 -4 -88 -17 -241 -22 -245 -3 -4 -23 -3 -43 1 -37 7
-37 7 -32 113 3 58 8 115 11 126 4 12 -1 29 -13 45 -19 24 -19 24 -29 0z m263
-277 c-6 -33 -8 -34 -48 -32 -42 3 -67 14 -67 30 0 15 43 49 62 49 10 0 18 4
18 9 0 5 8 11 18 13 20 4 27 -20 17 -69z m-171 -59 c16 -6 22 -48 10 -77 -4
-12 -11 -12 -42 -2 -32 11 -37 18 -40 49 -3 34 -2 36 27 36 16 0 36 -3 45 -6z
m166 -53 c0 -28 -4 -52 -9 -55 -4 -3 -28 0 -52 7 -41 12 -44 16 -47 49 -3 37
-3 37 45 41 26 2 51 4 56 5 4 1 7 -20 7 -47z"/>
</g>
</svg>
