<svg version="1.0" xmlns="http://www.w3.org/2000/svg"
 width="81.000000pt" height="257.000000pt" viewBox="0 0 81.000000 257.000000"
 preserveAspectRatio="xMidYMid meet">
<metadata>
Created by potrace 1.15, written by Peter Selinger 2001-2017
</metadata>
<g transform="translate(0.000000,257.000000) scale(0.100000,-0.100000)"
fill="#000000" stroke="none">
<path d="M138 2438 c-52 -18 -29 -28 66 -28 53 0 98 -4 101 -10 3 -5 16 -10
27 -10 31 0 86 -46 103 -87 18 -43 19 -112 2 -133 -7 -9 -28 -27 -47 -40 -78
-53 -116 -127 -90 -175 11 -20 21 -25 51 -25 30 0 43 7 74 41 60 66 118 86
160 55 19 -13 19 -15 3 -33 -10 -10 -34 -25 -54 -32 -57 -21 -147 -102 -166
-150 -11 -27 -12 -166 -2 -238 6 -43 6 -43 -54 -43 -67 0 -58 -18 -87 170 -3
19 -8 61 -12 93 -3 31 -9 60 -14 63 -5 3 -9 22 -9 42 0 44 -32 134 -50 140 -9
3 -11 -2 -6 -19 30 -95 59 -353 60 -519 1 -149 -2 -173 -53 -377 -6 -21 -15
-60 -22 -88 -15 -64 -55 -184 -63 -192 -9 -10 -7 -43 3 -43 5 0 11 8 14 18 3
9 12 28 21 42 8 14 24 63 36 110 13 47 29 105 37 130 23 69 34 110 43 165 5
28 15 75 23 105 13 55 13 55 85 58 72 3 72 3 72 -25 0 -20 -15 -47 -48 -86
-27 -32 -55 -70 -62 -85 -7 -15 -16 -35 -21 -44 -18 -35 -10 -93 15 -117 29
-27 112 -34 161 -13 68 29 101 147 53 192 -33 30 -77 26 -121 -12 -30 -27 -37
-40 -37 -70 0 -27 6 -41 22 -52 28 -20 30 -20 56 3 25 21 29 63 9 80 -17 14
-27 4 -27 -26 0 -14 -6 -23 -15 -23 -37 0 -6 63 44 90 22 11 27 10 43 -10 30
-37 19 -92 -28 -135 -39 -36 -119 -31 -146 9 -13 18 10 106 32 126 3 3 17 21
30 40 50 72 55 73 107 25 21 -19 52 -45 68 -59 26 -21 30 -31 30 -74 0 -41 -6
-57 -30 -88 -26 -31 -41 -39 -91 -50 -118 -24 -167 -69 -167 -157 0 -45 6 -63
36 -108 84 -128 96 -170 78 -268 -12 -65 -94 -248 -129 -288 -16 -18 -24 -30
-54 -85 -7 -13 -16 -25 -19 -28 -15 -14 -39 -56 -39 -69 0 -25 85 75 131 152
23 40 50 84 60 99 11 15 19 30 19 34 0 3 8 18 19 32 24 35 61 141 61 175 0 26
15 37 22 18 2 -5 29 -38 60 -73 31 -35 76 -85 100 -111 23 -27 44 -44 46 -39
5 16 -22 63 -57 99 -17 18 -31 36 -31 41 0 4 -32 41 -70 81 -71 73 -96 108
-86 118 9 9 243 -235 277 -290 4 -5 12 -8 18 -6 25 9 -111 173 -281 339 -31
30 -66 75 -77 99 -23 50 -28 137 -8 161 7 9 41 21 76 28 117 24 171 83 171
185 0 52 -3 59 -38 95 -21 22 -52 48 -68 58 -54 35 -64 48 -64 81 0 27 4 33
23 34 12 1 41 3 63 4 41 3 42 3 54 -38 32 -108 76 -225 97 -255 12 -19 30 -60
40 -93 10 -32 21 -59 25 -59 4 0 8 -6 8 -13 0 -17 28 -75 40 -82 20 -13 18 18
-6 91 -14 44 -32 93 -39 109 -50 115 -59 135 -67 135 -4 0 -8 9 -8 20 0 11 -4
20 -10 20 -5 0 -10 10 -10 23 0 13 -4 27 -8 32 -16 19 -32 111 -33 185 -1 92
37 265 90 414 12 33 21 71 21 85 0 25 0 25 -14 5 -13 -18 -43 -105 -66 -194
-19 -70 -53 -185 -61 -205 -4 -11 -9 -31 -11 -45 -5 -43 -34 -35 -97 30 -61
62 -61 62 -61 125 0 104 52 170 170 215 49 18 70 39 70 67 0 46 -99 80 -151
52 -11 -6 -36 -28 -55 -49 -43 -48 -69 -57 -94 -35 -15 14 -16 21 -7 51 6 18
14 34 18 34 4 0 14 6 21 13 18 16 69 47 89 53 34 11 53 151 27 196 -21 36 -73
84 -98 92 -30 8 -191 36 -205 35 -5 0 -22 -5 -37 -11z m302 -900 c0 -4 -6 -8
-14 -8 -15 0 -26 21 -26 47 0 12 5 10 20 -7 11 -13 20 -27 20 -32z m-97 -48
c25 0 37 -4 31 -9 -11 -11 -100 -18 -110 -9 -11 11 7 30 23 24 8 -3 33 -6 56
-6z m197 -5 c0 -12 -14 -15 -65 -15 -67 0 -90 16 -32 23 74 9 97 7 97 -8z"/>
</g>
</svg>
