<svg version="1.0" xmlns="http://www.w3.org/2000/svg"
 width="69.000000pt" height="91.000000pt" viewBox="0 0 69.000000 91.000000"
 preserveAspectRatio="xMidYMid meet">
<metadata>
Created by potrace 1.15, written by Peter Selinger 2001-2017
</metadata>
<g transform="translate(0.000000,91.000000) scale(0.100000,-0.100000)"
fill="#000000" stroke="none">
<path d="M370 750 c-43 -24 -124 -26 -168 -4 -34 16 -62 16 -65 -1 -1 -5 14
-18 32 -27 28 -14 37 -26 47 -64 6 -26 21 -54 32 -63 11 -9 22 -25 24 -35 4
-26 28 -33 28 -8 0 11 16 32 35 46 30 24 35 33 35 70 0 49 11 63 55 68 18 2
30 9 30 18 0 22 -45 22 -85 0z m-34 -65 c9 -21 -3 -62 -19 -68 -27 -10 -62 17
-65 51 -3 31 -2 32 38 32 27 0 43 -5 46 -15z"/>
<path d="M270 660 c0 -13 7 -20 20 -20 13 0 20 7 20 20 0 13 -7 20 -20 20 -13
0 -20 -7 -20 -20z"/>
<path d="M400 651 c0 -51 -17 -78 -73 -115 -60 -40 -73 -65 -53 -105 32 -63
31 -69 -19 -77 -57 -8 -55 -28 3 -32 39 -3 42 -5 42 -33 0 -28 -2 -29 -44 -29
-25 0 -47 -4 -51 -9 -8 -14 27 -30 61 -28 25 2 29 -2 29 -23 0 -22 -5 -26 -44
-30 -62 -7 -65 -28 -4 -32 48 -3 48 -3 53 -43 3 -27 10 -41 23 -43 14 -3 17 4
17 37 0 39 1 40 38 46 55 10 62 13 62 30 0 11 -12 15 -50 15 -42 0 -50 3 -50
19 0 24 18 38 53 43 40 5 34 22 -10 28 -29 4 -39 10 -41 27 -3 18 3 23 39 30
51 10 65 33 21 33 -68 0 -80 22 -27 47 36 17 57 65 37 85 -15 15 -34 -1 -27
-22 8 -26 -27 -45 -55 -30 -11 6 -20 15 -20 20 0 20 13 40 27 40 25 0 92 79
99 116 7 41 0 64 -21 64 -10 0 -15 -10 -15 -29z"/>
<path d="M483 565 c-46 -32 -33 -125 17 -125 30 0 32 16 5 34 -26 17 -33 50
-14 61 5 4 21 4 35 1 20 -5 24 -13 24 -42 0 -20 -8 -46 -19 -59 -34 -44 -46
-136 -32 -248 15 -120 25 -150 49 -145 19 4 20 11 3 121 -19 134 -15 194 19
262 37 75 37 90 1 126 -33 32 -56 36 -88 14z"/>
<path d="M86 508 c-24 -34 -19 -67 19 -144 34 -66 35 -73 30 -144 -3 -41 -11
-94 -17 -117 -11 -47 -6 -73 16 -73 21 0 26 21 33 151 6 122 -1 164 -43 242
-21 39 -10 67 27 67 35 0 48 -23 30 -52 -15 -24 -6 -36 17 -22 24 15 28 71 6
95 -25 28 -98 26 -118 -3z"/>
</g>
</svg>
