<svg version="1.0" xmlns="http://www.w3.org/2000/svg"
 width="71.000000pt" height="95.000000pt" viewBox="0 0 71.000000 95.000000"
 preserveAspectRatio="xMidYMid meet">
<metadata>
Created by potrace 1.15, written by Peter Selinger 2001-2017
</metadata>
<g transform="translate(0.000000,95.000000) scale(0.100000,-0.100000)"
fill="#000000" stroke="none">
<path d="M601 908 c-11 -32 -28 -85 -41 -135 -11 -45 -12 -45 -90 -45 -79 0
-80 0 -80 35 0 34 -33 87 -46 74 -5 -4 -8 -72 -7 -151 2 -164 7 -156 -93 -156
-54 0 -64 8 -64 50 0 11 -6 34 -14 52 -8 18 -22 55 -31 81 -19 54 -62 110 -77
101 -14 -9 -5 -68 22 -139 21 -58 52 -210 43 -219 -5 -5 -15 -157 -14 -214 0
-24 -9 -68 -21 -99 -16 -44 -18 -60 -9 -79 15 -34 27 -30 39 14 6 20 21 65 33
99 22 61 23 62 71 73 27 5 65 10 83 10 35 0 35 0 36 -52 3 -142 55 -141 65 1
2 30 5 55 7 56 1 1 36 5 78 9 76 7 76 7 88 -36 7 -24 17 -57 22 -74 5 -17 9
-37 9 -45 0 -9 11 -26 25 -39 22 -20 25 -21 31 -6 7 17 2 54 -15 121 -5 22
-17 69 -26 105 -9 36 -14 72 -12 81 2 8 -2 24 -9 34 -19 26 -18 161 2 255 8
41 19 95 23 120 4 25 10 50 13 56 9 13 -12 84 -24 84 -5 0 -12 -10 -17 -22z
m-71 -293 c0 -62 -2 -64 -73 -67 -49 -3 -49 -3 -53 46 -7 72 -3 76 66 76 60 0
60 0 60 -55z m-5 -125 c8 -13 34 -154 30 -158 -2 -2 -34 -6 -72 -8 -68 -4 -69
-3 -71 22 -2 22 2 25 18 21 29 -7 44 16 19 31 -11 7 -19 8 -19 2 0 -5 -5 -10
-11 -10 -6 0 -9 19 -7 48 3 45 4 47 38 52 60 9 69 9 75 0z m-184 -90 c4 -85 4
-85 -71 -91 -96 -8 -101 -6 -89 34 5 18 9 53 9 79 0 47 0 47 43 52 38 5 100
12 103 11 1 0 4 -38 5 -85z"/>
</g>
</svg>
