<svg version="1.0" xmlns="http://www.w3.org/2000/svg"
 width="53.000000pt" height="83.000000pt" viewBox="0 0 53.000000 83.000000"
 preserveAspectRatio="xMidYMid meet">
<metadata>
Created by potrace 1.15, written by Peter Selinger 2001-2017
</metadata>
<g transform="translate(0.000000,83.000000) scale(0.100000,-0.100000)"
fill="#000000" stroke="none">
<path d="M266 744 c-3 -26 -6 -109 -6 -184 0 -138 0 -138 -37 -143 -21 -2 -42
-1 -47 3 -4 5 -3 61 3 127 13 136 6 177 -31 171 -29 -4 -37 -37 -39 -167 -1
-109 -10 -169 -48 -341 -26 -119 -26 -122 1 -118 16 2 26 17 42 62 21 60 21
60 86 57 36 -1 67 -4 69 -7 2 -2 5 -36 7 -75 1 -47 6 -74 15 -80 22 -13 27 1
31 81 3 75 3 75 69 78 66 3 66 3 78 -58 12 -61 34 -87 51 -59 5 7 7 16 5 19
-2 3 -5 35 -6 71 -1 35 -5 69 -9 74 -11 15 -29 175 -35 310 -6 137 -14 179
-38 183 -15 3 -17 -7 -17 -73 0 -87 -10 -103 -62 -107 -33 -3 -33 -3 -36 87
-3 124 -33 182 -46 89z m142 -286 c-3 -43 -3 -43 -45 -46 -42 -3 -43 -2 -43
26 0 25 6 32 38 45 52 22 53 22 50 -25z m-16 -107 c32 4 38 -2 38 -40 0 -39 0
-40 -45 -47 -59 -8 -79 0 -71 29 3 12 6 32 6 44 0 16 4 21 15 17 8 -4 15 -1
15 6 0 10 3 10 14 1 8 -7 20 -11 28 -10z m-132 -37 c0 -44 0 -44 -54 -44 -30
0 -57 4 -60 9 -3 5 -3 23 0 39 7 32 18 37 82 39 31 1 32 0 32 -43z"/>
</g>
</svg>
