<svg version="1.0" xmlns="http://www.w3.org/2000/svg"
 width="66.000000pt" height="84.000000pt" viewBox="0 0 66.000000 84.000000"
 preserveAspectRatio="xMidYMid meet">
<metadata>
Created by potrace 1.15, written by Peter Selinger 2001-2017
</metadata>
<g transform="translate(0.000000,84.000000) scale(0.100000,-0.100000)"
fill="#000000" stroke="none">
<path d="M304 707 c-11 -29 0 -665 12 -677 24 -24 29 18 32 260 3 269 -6 421
-25 428 -7 2 -16 -3 -19 -11z"/>
<path d="M523 638 c-4 -7 -13 -24 -18 -37 -7 -16 -24 -28 -50 -36 -49 -13 -54
-39 -7 -43 31 -3 32 -5 32 -47 0 -40 -3 -45 -27 -51 -57 -14 -67 -44 -14 -44
36 0 51 -17 51 -57 0 -28 -4 -34 -27 -38 -66 -14 -75 -37 -20 -46 47 -7 61
-20 76 -69 16 -55 50 -110 67 -110 18 0 18 -1 -6 56 -53 122 -70 399 -31 473
20 36 -5 81 -26 49z"/>
<path d="M94 593 c30 -137 25 -368 -9 -451 -19 -44 -19 -62 1 -62 17 0 42 54
53 114 6 37 10 41 40 46 45 7 54 30 12 30 -30 0 -31 1 -31 50 0 50 0 50 40 50
28 0 40 4 40 14 0 16 -21 26 -55 26 -24 0 -35 22 -35 73 0 25 3 27 41 27 51 0
48 21 -5 33 -28 7 -40 17 -51 43 -18 43 -50 48 -41 7z"/>
</g>
</svg>
