<svg version="1.0" xmlns="http://www.w3.org/2000/svg"
 width="91.000000pt" height="123.000000pt" viewBox="0 0 91.000000 123.000000"
 preserveAspectRatio="xMidYMid meet">
<metadata>
Created by potrace 1.15, written by Peter Selinger 2001-2017
</metadata>
<g transform="translate(0.000000,123.000000) scale(0.100000,-0.100000)"
fill="#000000" stroke="none">
<path d="M365 1093 c-4 -32 -6 -96 -4 -143 1 -47 3 -125 3 -175 1 -89 1 -90
-24 -92 -14 -1 -51 -5 -82 -9 -85 -9 -90 -3 -93 102 -2 118 -16 254 -25 254
-4 0 -10 13 -13 29 -3 16 -14 37 -24 47 -17 17 -18 16 -25 -22 -4 -21 -2 -68
4 -104 6 -38 11 -196 10 -375 0 -273 -3 -320 -20 -394 -15 -63 -18 -91 -10
-112 15 -45 40 -32 51 26 3 17 11 53 17 80 6 28 13 76 17 108 5 57 5 57 114
56 71 -1 109 -5 111 -12 3 -7 6 -68 7 -136 3 -139 12 -181 35 -158 13 13 20
65 31 241 2 38 6 71 9 74 3 2 38 3 78 2 132 -4 129 -3 143 -41 43 -122 137
-269 172 -269 36 0 23 53 -31 133 -14 21 -26 42 -26 47 0 5 -8 24 -18 42 -18
32 -32 73 -37 113 -2 11 -8 33 -14 48 -19 50 -9 311 20 513 11 78 11 83 -10
113 -12 17 -26 31 -31 31 -8 0 -16 -41 -28 -150 -7 -65 -7 -65 -100 -74 -140
-12 -139 -13 -140 86 -1 46 -6 98 -11 116 -9 29 -32 62 -44 62 -3 0 -8 -26
-12 -57z m283 -332 c2 -35 -1 -68 -5 -72 -4 -4 -51 -9 -103 -10 -95 -1 -95 -1
-93 62 2 35 5 70 8 77 3 9 29 12 97 10 93 -3 93 -3 96 -67z m-355 -137 c77 -7
77 -7 77 -90 0 -83 0 -83 -32 -92 -18 -5 -66 -10 -106 -11 -88 -3 -90 0 -72
115 15 95 3 89 133 78z m323 0 c29 -6 29 -6 29 -97 0 -92 0 -92 -95 -94 -95
-1 -95 -1 -98 92 -3 94 -3 94 50 98 29 2 60 4 69 5 9 1 29 -1 45 -4z"/>
<path d="M610 480 c0 -5 4 -10 9 -10 6 0 13 5 16 10 3 6 -1 10 -9 10 -9 0 -16
-4 -16 -10z"/>
<path d="M17 472 c-9 -2 -15 -8 -12 -13 8 -12 45 -12 45 0 0 13 -12 18 -33 13z"/>
</g>
</svg>
