<svg version="1.0" xmlns="http://www.w3.org/2000/svg"
 width="62.000000pt" height="87.000000pt" viewBox="0 0 62.000000 87.000000"
 preserveAspectRatio="xMidYMid meet">
<metadata>
Created by potrace 1.15, written by Peter Selinger 2001-2017
</metadata>
<g transform="translate(0.000000,87.000000) scale(0.100000,-0.100000)"
fill="#000000" stroke="none">
<path d="M440 732 c0 -4 14 -19 30 -34 40 -35 39 -64 -6 -155 -35 -71 -36 -74
-23 -119 8 -25 21 -50 30 -55 42 -22 42 -87 0 -182 -21 -48 -21 -48 4 -102 13
-31 30 -55 39 -55 25 0 26 15 6 56 -11 21 -20 45 -20 54 0 23 25 89 38 102 27
27 9 97 -42 172 -25 37 -36 106 -17 106 4 0 20 17 35 38 35 51 35 109 0 151
-23 28 -74 44 -74 23z"/>
<path d="M288 613 c-3 -108 -3 -108 -36 -113 -66 -10 -36 -25 56 -28 85 -3 93
-1 90 15 -2 12 -14 19 -36 21 -31 3 -32 5 -32 46 0 49 17 60 72 49 26 -5 29
-3 26 13 -2 15 -13 20 -51 22 -42 3 -47 6 -47 27 0 34 -10 55 -26 55 -10 0
-14 -25 -16 -107z"/>
<path d="M136 679 c-36 -42 -39 -64 -20 -134 24 -89 22 -116 -15 -174 -37 -57
-37 -82 0 -169 15 -35 19 -59 15 -94 -6 -57 14 -66 39 -18 20 39 20 45 -15
118 -37 79 -39 120 -5 152 38 36 50 84 33 128 -42 104 -42 114 0 169 22 30 23
53 2 53 -4 0 -20 -14 -34 -31z"/>
<path d="M296 374 c-3 -9 -6 -27 -6 -40 0 -21 -4 -24 -39 -24 -49 0 -71 -8
-71 -26 0 -10 15 -14 55 -14 55 0 55 0 55 -90 0 -70 3 -90 14 -90 18 0 26 31
26 111 0 72 5 79 61 79 19 0 29 5 29 15 0 11 -12 15 -45 15 -44 0 -45 0 -45
34 0 36 -24 56 -34 30z"/>
</g>
</svg>
