<svg version="1.0" xmlns="http://www.w3.org/2000/svg"
 width="39.000000pt" height="67.000000pt" viewBox="0 0 39.000000 67.000000"
 preserveAspectRatio="xMidYMid meet">
<metadata>
Created by potrace 1.15, written by Peter Selinger 2001-2017
</metadata>
<g transform="translate(0.000000,67.000000) scale(0.100000,-0.100000)"
fill="#000000" stroke="none">
<path d="M217 523 c-4 -3 -7 -36 -8 -72 0 -36 -3 -84 -7 -106 -7 -36 -10 -40
-40 -43 -32 -3 -32 -3 -32 97 0 56 -4 101 -8 101 -24 0 -46 -420 -23 -435 15
-8 22 10 28 70 6 53 7 55 34 55 24 0 29 -4 29 -24 0 -37 16 -40 30 -6 19 45
70 35 70 -14 0 -13 3 -17 10 -10 30 30 40 319 10 319 -10 0 -16 -13 -18 -42
-3 -38 -6 -43 -28 -43 -18 0 -24 6 -25 23 -3 54 -10 131 -13 134 -1 2 -6 0 -9
-4z m63 -208 c0 -8 -9 -15 -20 -15 -11 0 -20 7 -20 15 0 8 9 15 20 15 11 0 20
-7 20 -15z m-6 -61 c22 -9 20 -24 -3 -24 -21 0 -34 13 -24 24 8 7 8 7 27 0z
m-84 -14 c0 -5 -11 -10 -25 -10 -14 0 -25 5 -25 10 0 6 11 10 25 10 14 0 25
-4 25 -10z"/>
</g>
</svg>
