<svg version="1.0" xmlns="http://www.w3.org/2000/svg"
 width="69.000000pt" height="97.000000pt" viewBox="0 0 69.000000 97.000000"
 preserveAspectRatio="xMidYMid meet">
<metadata>
Created by potrace 1.15, written by Peter Selinger 2001-2017
</metadata>
<g transform="translate(0.000000,97.000000) scale(0.100000,-0.100000)"
fill="#000000" stroke="none">
<path d="M115 700 c-10 -16 3 -29 48 -49 47 -21 111 -37 177 -45 25 -3 54 -7
65 -10 11 -2 63 -5 115 -7 90 -4 95 -3 92 16 -7 36 -33 45 -202 70 -19 2 -71
11 -115 20 -93 17 -171 19 -180 5z"/>
<path d="M84 479 c-11 -19 35 -46 96 -58 58 -10 271 -30 377 -34 63 -2 63 -2
29 29 -35 32 -53 37 -267 63 -112 14 -226 14 -235 0z"/>
<path d="M50 232 c0 -29 82 -59 198 -73 88 -10 105 -10 114 2 7 11 11 11 15 2
5 -15 188 -19 197 -5 10 17 -25 52 -62 61 -47 13 -270 31 -378 31 -75 0 -84
-2 -84 -18z"/>
</g>
</svg>
