<svg version="1.0" xmlns="http://www.w3.org/2000/svg"
 width="59.000000pt" height="69.000000pt" viewBox="0 0 59.000000 69.000000"
 preserveAspectRatio="xMidYMid meet">
<metadata>
Created by potrace 1.15, written by Peter Selinger 2001-2017
</metadata>
<g transform="translate(0.000000,69.000000) scale(0.100000,-0.100000)"
fill="#000000" stroke="none">
<path d="M387 584 c-8 -8 -89 -21 -187 -29 -80 -7 -142 -25 -137 -39 6 -16
166 -9 257 10 41 9 91 19 110 23 47 9 47 35 0 39 -20 2 -39 0 -43 -4z"/>
<path d="M345 358 c-27 -5 -81 -14 -120 -19 -74 -11 -115 -27 -112 -44 3 -17
113 -6 315 32 55 10 82 20 82 29 0 16 -83 17 -165 2z"/>
<path d="M467 143 c-4 -3 -26 -9 -49 -13 -145 -24 -286 -59 -311 -76 -44 -29
27 -24 221 17 23 5 61 13 85 18 23 4 49 11 57 14 8 3 27 8 43 11 40 9 35 36
-6 36 -19 0 -37 -3 -40 -7z"/>
</g>
</svg>
