<svg version="1.0" xmlns="http://www.w3.org/2000/svg"
 width="117.000000pt" height="97.000000pt" viewBox="0 0 117.000000 97.000000"
 preserveAspectRatio="xMidYMid meet">
<metadata>
Created by potrace 1.15, written by Peter Selinger 2001-2017
</metadata>
<g transform="translate(0.000000,97.000000) scale(0.100000,-0.100000)"
fill="#000000" stroke="none">
<path d="M870 760 c-14 -4 -74 -8 -135 -9 -60 -1 -132 -7 -159 -12 -27 -5 -72
-9 -100 -9 -93 0 -337 -36 -388 -57 -45 -19 -59 -50 -32 -70 22 -16 189 -17
274 -2 30 6 78 14 105 19 61 12 210 38 285 50 30 5 109 12 175 15 66 3 132 11
147 16 71 28 21 71 -80 68 -37 -1 -78 -5 -92 -9z"/>
<path d="M1029 466 c-3 -3 -34 -10 -69 -16 -185 -32 -278 -39 -522 -40 -268 0
-351 -9 -380 -38 -16 -16 -16 -18 1 -37 38 -44 94 -56 171 -36 37 10 137 18
365 27 77 3 152 7 167 10 16 2 58 9 95 14 138 19 179 28 225 49 57 26 67 40
43 58 -18 12 -86 19 -96 9z"/>
<path d="M1000 168 c-47 -11 -107 -24 -135 -30 -27 -6 -54 -14 -60 -18 -5 -3
-109 -8 -230 -9 -488 -6 -498 -7 -509 -38 -9 -22 9 -40 47 -48 50 -11 217 -17
235 -9 26 12 76 12 85 0 5 -8 9 -8 15 0 4 7 75 12 201 13 107 1 203 7 212 12
10 5 33 9 53 9 19 0 37 4 41 10 3 5 12 7 20 4 8 -3 46 4 85 16 78 24 87 40 48
83 -23 24 -23 24 -108 5z"/>
</g>
</svg>
