<svg version="1.0" xmlns="http://www.w3.org/2000/svg"
 width="113.000000pt" height="167.000000pt" viewBox="0 0 113.000000 167.000000"
 preserveAspectRatio="xMidYMid meet">
<metadata>
Created by potrace 1.15, written by Peter Selinger 2001-2017
</metadata>
<g transform="translate(0.000000,167.000000) scale(0.100000,-0.100000)"
fill="#000000" stroke="none">
<path d="M200 1542 c-18 -37 -45 -85 -59 -107 -15 -22 -33 -53 -41 -70 -8 -16
-22 -41 -30 -55 -74 -114 -58 -332 27 -367 40 -16 46 -3 27 52 -8 22 -16 62
-18 89 -4 49 -4 49 53 43 96 -10 91 -3 91 -142 0 -103 3 -124 16 -129 29 -11
44 -6 44 14 0 22 69 93 134 137 22 15 43 31 44 36 2 4 17 7 33 7 21 0 41 -11
68 -37 20 -21 50 -47 65 -57 15 -11 33 -31 41 -45 7 -15 27 -41 44 -58 41 -43
39 -65 -7 -96 -58 -38 -75 -83 -67 -170 5 -40 7 -88 7 -108 -1 -19 4 -44 12
-54 12 -17 18 -18 40 -7 20 9 26 19 27 44 1 18 2 44 3 57 1 17 9 27 29 34 16
5 30 7 32 5 2 -2 7 -46 10 -98 5 -66 16 -121 36 -181 24 -68 31 -106 32 -175
2 -85 3 -89 25 -92 27 -4 52 14 52 37 0 9 8 28 17 41 21 29 27 60 13 60 -6 0
-10 10 -10 23 0 12 -13 49 -30 82 -16 33 -30 68 -30 77 0 9 -4 20 -10 23 -5 3
-10 37 -10 74 0 83 38 168 90 203 18 13 36 30 40 38 33 66 33 68 19 114 -7 25
-17 46 -21 46 -4 0 -8 6 -8 14 0 31 -75 56 -105 36 -31 -21 -47 -18 -79 13
-60 58 -70 94 -33 132 17 18 34 24 75 26 49 3 54 1 67 -24 25 -49 89 -97 129
-97 35 0 35 31 -1 70 -16 17 -33 36 -40 44 -7 8 -14 45 -16 83 -3 37 -12 85
-21 107 -9 21 -16 42 -16 47 0 4 -8 14 -18 21 -11 7 -24 24 -31 37 -11 20
-130 150 -200 218 -32 31 -51 29 -51 -4 0 -26 19 -93 30 -103 6 -6 26 -49 33
-72 3 -9 -2 -23 -12 -32 -18 -16 -51 -22 -51 -8 0 4 -17 18 -38 32 -20 14 -43
31 -50 38 -8 6 -21 16 -31 21 -9 5 -28 30 -41 55 -27 53 -44 58 -58 16 -10
-28 -23 -42 -104 -110 -35 -29 -40 -31 -72 -20 -54 18 -60 30 -46 102 7 35 14
75 17 90 4 19 0 29 -14 37 -18 9 -23 3 -53 -57z m323 -191 c26 3 36 -2 74 -38
52 -49 91 -127 99 -200 7 -57 7 -57 -22 -39 -16 11 -45 28 -66 40 -21 11 -40
27 -43 37 -3 9 -16 19 -30 21 -18 4 -34 -6 -72 -46 -27 -28 -68 -61 -90 -73
-40 -22 -40 -22 -38 15 7 127 35 192 115 270 48 47 55 51 58 33 2 -12 9 -21
15 -20z m-293 -31 c0 -5 6 -10 14 -10 26 0 36 -24 25 -63 -9 -34 -13 -37 -48
-37 -45 0 -99 36 -82 53 6 6 11 17 11 24 0 23 24 42 53 43 15 0 27 -4 27 -10z
m666 -80 c17 -47 6 -66 -57 -99 -37 -19 -59 -26 -60 -18 -2 44 -7 85 -12 102
-5 16 2 24 35 41 48 24 79 16 94 -26z m79 -484 c-5 -39 -26 -51 -42 -23 -18
33 -16 53 10 70 20 13 23 13 28 -2 4 -9 5 -30 4 -45z m-155 -55 c5 -11 10 -26
10 -33 0 -14 -49 -48 -69 -48 -20 0 -12 62 11 81 27 24 35 24 48 0z"/>
<path d="M471 930 c-13 -11 -29 -20 -36 -20 -14 0 -85 -74 -85 -90 0 -5 -3
-10 -8 -10 -12 0 -30 -51 -47 -135 -24 -123 -22 -211 6 -282 12 -29 11 -34
-15 -65 -15 -18 -41 -52 -58 -75 -18 -24 -36 -43 -41 -43 -14 0 -37 -27 -39
-47 -3 -39 3 -64 16 -69 12 -5 86 57 86 72 0 11 94 104 106 104 7 0 15 -21 18
-52 15 -117 18 -129 41 -144 51 -33 70 19 44 121 -6 25 -9 52 -5 60 5 14 11
13 47 -7 23 -13 49 -27 59 -32 9 -5 26 -22 36 -38 21 -31 58 -38 68 -12 7 18
-17 54 -63 98 -17 17 -31 36 -31 43 0 7 -11 18 -24 23 -36 13 -38 23 -15 70
15 31 20 57 17 96 -3 46 0 55 19 65 27 14 45 56 45 103 0 38 -22 106 -34 106
-4 0 -8 6 -8 14 0 7 -9 25 -20 39 -14 18 -20 40 -20 76 0 58 -16 66 -59 31z
m9 -168 c0 -5 11 -22 25 -38 48 -56 19 -114 -58 -114 -67 0 -77 53 -21 118 34
40 54 52 54 34z m6 -263 c3 -5 0 -26 -7 -48 -12 -41 -35 -59 -52 -42 -5 5 -15
7 -23 4 -19 -7 -37 65 -20 82 22 23 89 25 102 4z"/>
</g>
</svg>
