<svg version="1.0" xmlns="http://www.w3.org/2000/svg"
 width="67.000000pt" height="86.000000pt" viewBox="0 0 67.000000 86.000000"
 preserveAspectRatio="xMidYMid meet">
<metadata>
Created by potrace 1.15, written by Peter Selinger 2001-2017
</metadata>
<g transform="translate(0.000000,86.000000) scale(0.100000,-0.100000)"
fill="#000000" stroke="none">
<path d="M340 675 c-6 -8 -9 -23 -5 -34 8 -26 -10 -30 -140 -34 -81 -2 -100
-5 -100 -17 0 -10 12 -16 38 -18 37 -3 37 -3 37 -107 0 -81 3 -107 16 -119 22
-22 281 -23 323 -1 35 17 54 84 49 167 -3 53 -3 53 32 58 23 3 36 11 38 23 4
20 8 20 -137 17 -113 -2 -113 -2 -106 28 5 24 2 33 -13 41 -15 8 -23 7 -32 -4z
m160 -125 c0 -19 -7 -20 -140 -20 -77 0 -140 4 -140 8 0 26 30 32 152 32 121
0 128 -1 128 -20z m10 -80 c0 -19 -7 -20 -145 -20 -114 0 -145 3 -145 13 0 8
3 17 7 20 3 4 69 7 145 7 131 0 138 -1 138 -20z m0 -67 c-1 -34 -117 -53 -233
-39 -47 6 -57 11 -57 27 0 18 8 19 145 19 80 0 145 -3 145 -7z"/>
<path d="M248 291 c-59 -3 -111 -10 -117 -16 -5 -5 -11 -57 -12 -115 -4 -100
-3 -105 16 -105 18 0 20 8 25 93 4 67 9 96 20 102 24 15 337 13 347 -2 4 -7 9
-57 11 -110 4 -87 6 -98 23 -98 28 0 39 32 39 117 0 76 -12 113 -44 135 -12 8
-139 8 -308 -1z"/>
<path d="M222 198 c-21 -21 -13 -27 46 -30 57 -3 57 -3 60 -66 3 -59 5 -63 25
-60 18 2 21 9 19 33 -1 17 0 44 3 62 5 31 8 32 58 35 40 2 53 7 55 21 3 15 -8
17 -125 17 -87 0 -133 -4 -141 -12z"/>
</g>
</svg>
