<svg version="1.0" xmlns="http://www.w3.org/2000/svg"
 width="66.000000pt" height="83.000000pt" viewBox="0 0 66.000000 83.000000"
 preserveAspectRatio="xMidYMid meet">
<metadata>
Created by potrace 1.15, written by Peter Selinger 2001-2017
</metadata>
<g transform="translate(0.000000,83.000000) scale(0.100000,-0.100000)"
fill="#000000" stroke="none">
<path d="M325 688 c-2 -7 -5 -26 -7 -43 -3 -30 -3 -30 -113 -42 -60 -6 -111
-12 -112 -12 -2 -1 -3 -10 -3 -22 0 -19 5 -21 45 -17 46 3 46 3 56 -37 6 -22
12 -78 13 -125 1 -85 1 -85 -26 -82 -32 4 -74 -32 -84 -72 -9 -38 5 -191 20
-211 11 -15 16 -16 35 -5 22 11 23 16 17 83 -4 40 -10 82 -13 94 -3 15 3 30
21 47 25 26 28 26 174 26 191 0 187 4 180 -145 -4 -81 -2 -105 8 -105 30 0 44
43 44 138 0 90 -1 95 -29 123 -16 16 -37 29 -46 29 -13 0 -15 3 -7 13 5 6 15
50 21 97 20 137 18 133 62 126 34 -5 39 -4 39 13 0 26 -85 51 -174 51 -66 0
-66 0 -66 33 0 35 -15 57 -37 57 -8 0 -16 -6 -18 -12z m151 -126 c15 -10 23
-37 16 -49 -4 -6 -58 -12 -124 -14 -118 -4 -118 -4 -118 33 0 38 0 38 108 38
59 0 112 -4 118 -8z m10 -118 c-3 -9 -6 -21 -6 -27 0 -9 -32 -11 -115 -9 -114
3 -115 3 -115 28 0 24 0 24 121 24 106 0 120 -2 115 -16z m-16 -85 c0 -6 -5
-19 -10 -30 -9 -17 -22 -19 -105 -19 -51 0 -97 4 -100 10 -3 5 -1 19 5 30 10
18 21 20 110 20 64 0 100 -4 100 -11z"/>
<path d="M228 224 c-25 -13 -28 -20 -28 -67 0 -58 12 -77 46 -77 31 0 54 26
54 61 0 34 -29 41 -37 9 -8 -30 -23 -24 -23 9 0 26 4 29 38 34 20 2 41 2 45
-1 5 -2 6 -40 2 -84 -7 -80 -7 -80 16 -76 23 3 24 7 27 86 3 82 3 82 40 82 49
0 64 -14 50 -46 -13 -29 -32 -26 -36 4 -6 38 -22 24 -22 -18 0 -44 14 -56 53
-46 49 12 64 103 22 130 -33 22 -207 22 -247 0z"/>
</g>
</svg>
