<svg version="1.0" xmlns="http://www.w3.org/2000/svg"
 width="68.000000pt" height="85.000000pt" viewBox="0 0 68.000000 85.000000"
 preserveAspectRatio="xMidYMid meet">
<metadata>
Created by potrace 1.15, written by Peter Selinger 2001-2017
</metadata>
<g transform="translate(0.000000,85.000000) scale(0.100000,-0.100000)"
fill="#000000" stroke="none">
<path d="M210 709 c-81 -13 -110 -48 -110 -134 0 -35 4 -66 9 -69 22 -14 39 7
43 56 4 35 12 56 24 65 17 12 20 11 26 -9 3 -13 6 -71 7 -130 1 -108 1 -108
-37 -127 -61 -31 -69 -52 -77 -194 -7 -114 -6 -127 9 -133 31 -12 41 14 46
123 5 100 6 107 32 126 40 30 185 57 266 49 67 -7 67 -7 79 -62 6 -30 12 -88
12 -127 1 -64 3 -73 20 -73 40 0 44 22 32 152 -6 67 -16 127 -22 134 -6 7 -29
14 -52 16 -42 3 -42 3 -45 146 -2 136 -2 142 17 142 17 0 21 -9 27 -50 4 -27
13 -58 20 -67 13 -17 15 -17 29 1 20 26 19 62 -4 112 -16 35 -25 43 -64 53
-53 13 -206 13 -287 0z m200 -78 c0 -33 -17 -41 -97 -41 -53 0 -53 0 -53 35 0
35 0 35 75 35 75 0 75 0 75 -29z m-5 -111 c0 -24 -2 -25 -65 -25 -55 0 -65 3
-68 19 -6 27 16 37 78 34 51 -3 55 -5 55 -28z m15 -99 c0 -29 -20 -39 -85 -43
-60 -3 -60 -3 -63 30 -3 32 -3 32 72 32 68 0 76 -2 76 -19z"/>
<path d="M325 268 c-110 -11 -140 -19 -140 -38 0 -11 15 -16 63 -18 62 -3 62
-3 62 -78 0 -59 3 -76 16 -81 28 -10 39 16 39 90 0 69 1 72 25 75 54 7 91 24
88 40 -4 21 -32 22 -153 10z"/>
</g>
</svg>
