<svg version="1.0" xmlns="http://www.w3.org/2000/svg"
 width="68.000000pt" height="120.000000pt" viewBox="0 0 68.000000 120.000000"
 preserveAspectRatio="xMidYMid meet">
<metadata>
Created by potrace 1.15, written by Peter Selinger 2001-2017
</metadata>
<g transform="translate(0.000000,120.000000) scale(0.100000,-0.100000)"
fill="#000000" stroke="none">
<path d="M182 1097 c-20 -24 3 -33 133 -51 97 -13 123 -21 138 -37 53 -64 -34
-151 -164 -165 -30 -3 -85 -9 -124 -12 -52 -5 -70 -11 -70 -22 0 -40 120 -52
238 -24 65 16 68 16 82 -2 18 -23 19 -63 2 -85 -19 -25 -67 -46 -137 -59 -76
-15 -140 -57 -165 -109 -42 -88 -105 -317 -105 -382 0 -32 4 -39 19 -39 16 0
22 11 31 58 6 31 15 75 20 97 9 42 19 90 22 102 5 34 52 140 69 159 13 14 51
31 100 44 79 21 79 21 107 -11 46 -56 55 -79 40 -113 -7 -17 -32 -50 -56 -74
-65 -66 -72 -98 -37 -177 44 -99 289 -225 334 -172 14 17 -8 38 -59 56 -126
46 -224 114 -239 166 -11 42 -1 63 57 119 28 27 56 61 62 77 17 39 -3 95 -49
137 -19 17 -29 32 -23 32 7 0 28 14 47 32 31 27 35 37 35 80 0 26 -3 48 -8 48
-4 0 -13 14 -21 30 -14 33 -5 54 28 65 9 3 22 20 29 38 15 41 16 107 2 107 -5
0 -10 7 -10 14 0 24 -62 63 -110 70 -128 17 -206 18 -218 3z"/>
</g>
</svg>
