<svg version="1.0" xmlns="http://www.w3.org/2000/svg"
 width="37.000000pt" height="73.000000pt" viewBox="0 0 37.000000 73.000000"
 preserveAspectRatio="xMidYMid meet">
<metadata>
Created by potrace 1.15, written by Peter Selinger 2001-2017
</metadata>
<g transform="translate(0.000000,73.000000) scale(0.100000,-0.100000)"
fill="#000000" stroke="none">
<path d="M184 582 c-9 -67 -9 -67 -68 -70 -57 -3 -58 -3 -41 -23 12 -12 31
-19 55 -19 21 0 43 -6 49 -14 8 -9 11 -63 9 -167 -3 -154 -3 -154 -50 -159
-51 -6 -78 -22 -58 -35 6 -4 46 -9 88 -12 131 -9 221 32 115 53 -48 9 -48 9
-50 139 -1 72 1 146 5 165 12 56 34 44 52 -29 8 -36 21 -66 28 -69 10 -3 12
27 10 140 -3 118 -6 143 -18 143 -9 0 -20 -19 -28 -47 -10 -35 -18 -48 -32
-48 -14 0 -20 10 -25 49 -11 81 -30 83 -41 3z"/>
</g>
</svg>
