<svg version="1.0" xmlns="http://www.w3.org/2000/svg"
 width="53.000000pt" height="89.000000pt" viewBox="0 0 53.000000 89.000000"
 preserveAspectRatio="xMidYMid meet">
<metadata>
Created by potrace 1.15, written by Peter Selinger 2001-2017
</metadata>
<g transform="translate(0.000000,89.000000) scale(0.100000,-0.100000)"
fill="#000000" stroke="none">
<path d="M254 698 c30 -147 18 -337 -27 -428 -9 -18 -17 -38 -17 -44 0 -6 -9
-22 -20 -36 -26 -34 -25 -40 9 -40 23 0 36 9 60 42 17 23 31 50 31 59 0 29 27
42 74 37 24 -3 48 -3 53 1 16 12 31 49 38 94 7 44 5 49 -25 77 -18 16 -38 30
-46 30 -32 0 -54 39 -54 93 0 42 -6 63 -30 100 -35 56 -55 62 -46 15z m133
-298 c-8 -64 -12 -70 -48 -70 -22 0 -28 4 -25 18 2 9 7 36 11 60 7 38 10 42
38 42 30 0 30 0 24 -50z"/>
<path d="M150 671 c0 -21 6 -51 14 -65 8 -16 12 -44 9 -70 -4 -31 0 -51 12
-70 38 -57 56 21 19 81 -11 18 -11 22 1 27 8 3 15 14 15 25 0 29 -29 86 -51
99 -17 11 -19 9 -19 -27z"/>
<path d="M156 394 c-11 -28 -6 -109 8 -126 21 -29 39 -22 33 11 -3 15 -1 33 4
38 7 7 7 24 -2 52 -12 42 -32 53 -43 25z"/>
</g>
</svg>
