<svg version="1.0" xmlns="http://www.w3.org/2000/svg"
 width="77.000000pt" height="119.000000pt" viewBox="0 0 77.000000 119.000000"
 preserveAspectRatio="xMidYMid meet">
<metadata>
Created by potrace 1.15, written by Peter Selinger 2001-2017
</metadata>
<g transform="translate(0.000000,119.000000) scale(0.100000,-0.100000)"
fill="#000000" stroke="none">
<path d="M569 1062 c-24 -8 -66 -23 -93 -33 -27 -11 -56 -19 -65 -19 -9 0 -23
-9 -31 -20 -8 -11 -21 -20 -30 -20 -18 0 -60 -62 -60 -88 0 -10 -5 -23 -11
-29 -20 -20 7 -95 42 -115 16 -9 34 -28 40 -40 5 -13 30 -36 55 -52 54 -34 66
-52 88 -132 14 -51 15 -77 7 -149 -14 -117 -46 -169 -137 -223 -51 -30 -75
-37 -179 -51 -66 -9 -121 -28 -112 -38 10 -9 167 -3 217 9 79 19 203 85 227
120 57 86 65 111 67 193 1 44 -1 89 -5 100 -3 11 -15 45 -24 75 -10 30 -22 58
-27 61 -15 10 -11 129 5 146 4 3 7 26 7 50 0 23 4 43 9 43 12 0 23 35 28 89 5
57 28 77 97 85 47 6 53 10 49 26 -3 11 -13 22 -22 24 -27 9 -96 3 -142 -12z
m-82 -169 c-7 -95 -19 -164 -29 -163 -5 0 -14 0 -21 0 -24 0 -59 86 -51 123
10 47 61 117 86 117 19 0 20 -4 15 -77z"/>
<path d="M320 573 c-45 -4 -145 -22 -190 -36 -19 -5 -41 -12 -49 -14 -8 -2
-11 -6 -7 -10 6 -7 72 -16 91 -13 6 1 46 4 90 6 57 4 87 11 105 24 22 17 23
21 10 32 -8 8 -31 12 -50 11z"/>
<path d="M235 424 c-22 -8 -62 -21 -89 -29 -26 -8 -50 -16 -53 -19 -22 -22
222 -16 258 7 21 13 32 35 23 48 -8 14 -95 10 -139 -7z"/>
<path d="M290 293 c-184 -40 -210 -47 -210 -53 0 -16 76 -29 115 -20 22 5 62
10 88 10 49 0 109 20 122 39 9 15 -13 41 -34 40 -9 -1 -45 -8 -81 -16z"/>
</g>
</svg>
