<svg version="1.0" xmlns="http://www.w3.org/2000/svg"
 width="77.000000pt" height="115.000000pt" viewBox="0 0 77.000000 115.000000"
 preserveAspectRatio="xMidYMid meet">
<metadata>
Created by potrace 1.15, written by Peter Selinger 2001-2017
</metadata>
<g transform="translate(0.000000,115.000000) scale(0.100000,-0.100000)"
fill="#000000" stroke="none">
<path d="M621 971 c-17 -17 -31 -34 -31 -39 0 -4 -8 -17 -17 -28 -25 -28 -43
-61 -43 -78 0 -8 -4 -16 -10 -18 -5 -1 -10 -23 -12 -48 -2 -25 -6 -47 -10 -50
-3 -3 -7 -88 -9 -190 -1 -102 -7 -190 -12 -197 -5 -7 -6 -16 -3 -21 6 -10 -24
-103 -41 -124 -5 -7 -20 -34 -33 -61 -13 -26 -29 -47 -37 -47 -7 0 -13 -4 -13
-10 0 -21 52 -10 73 16 12 14 36 43 53 63 57 67 74 99 74 134 0 52 15 84 43
91 30 7 108 80 136 126 28 48 28 105 -2 133 -32 30 -64 47 -79 43 -7 -3 -32
-7 -55 -10 -41 -6 -41 -6 -39 27 4 51 17 107 27 113 5 3 9 16 9 30 0 13 5 24
10 24 6 0 10 9 10 20 0 22 36 91 54 102 8 5 8 10 0 18 -9 9 -20 4 -43 -19z
m49 -385 c0 -8 6 -16 12 -18 9 -3 6 -17 -11 -51 -28 -55 -56 -82 -93 -91 -28
-6 -28 -6 -27 41 0 69 19 116 49 124 43 12 70 10 70 -5z"/>
<path d="M255 762 c-52 -27 -64 -32 -77 -32 -7 0 -24 -9 -38 -20 -14 -11 -33
-20 -42 -20 -9 0 -19 -4 -22 -9 -4 -5 24 -8 62 -6 101 4 218 61 196 96 -8 13
-45 9 -79 -9z"/>
<path d="M275 540 c-3 -5 -17 -10 -31 -10 -13 0 -24 -5 -24 -10 0 -6 -12 -15
-27 -21 -77 -31 -103 -48 -103 -67 0 -6 14 -6 38 0 20 5 52 12 70 15 17 3 32
8 32 12 0 4 20 13 45 20 44 13 72 41 60 61 -8 13 -52 13 -60 0z"/>
<path d="M295 275 c-62 -15 -165 -61 -165 -74 0 -16 141 0 187 20 49 22 59 34
41 52 -11 11 -23 11 -63 2z"/>
</g>
</svg>
