<svg version="1.0" xmlns="http://www.w3.org/2000/svg"
 width="55.000000pt" height="79.000000pt" viewBox="0 0 55.000000 79.000000"
 preserveAspectRatio="xMidYMid meet">
<metadata>
Created by potrace 1.15, written by Peter Selinger 2001-2017
</metadata>
<g transform="translate(0.000000,79.000000) scale(0.100000,-0.100000)"
fill="#000000" stroke="none">
<path d="M210 743 c0 -5 5 -15 10 -23 8 -12 10 -11 10 8 0 12 -4 22 -10 22 -5
0 -10 -3 -10 -7z"/>
<path d="M372 682 c-24 -26 -61 -75 -82 -109 -37 -59 -61 -76 -75 -53 -8 13
-68 13 -99 -1 -24 -11 -25 -14 -42 -125 -6 -37 -4 -43 22 -61 27 -19 48 -26
116 -40 16 -3 31 -15 38 -32 6 -14 26 -44 45 -66 19 -22 35 -43 35 -48 0 -4
12 -20 26 -34 21 -21 28 -23 35 -12 5 8 7 20 4 27 -3 8 -5 19 -5 26 0 7 -8 21
-18 32 -90 97 -128 228 -82 287 11 14 20 28 20 32 0 14 66 102 102 135 26 24
38 44 38 63 0 41 -28 34 -78 -21z m-176 -230 c12 -7 14 -92 3 -92 -4 0 -21 3
-38 6 -27 6 -31 11 -31 38 0 47 32 70 66 48z"/>
<path d="M403 595 c-35 -40 -86 -165 -68 -165 27 0 95 121 95 167 0 17 -12 16
-27 -2z"/>
<path d="M385 430 c-10 -22 -22 -40 -27 -40 -4 0 -8 -9 -8 -19 0 -11 -4 -21
-9 -23 -5 -1 -11 -16 -13 -33 -5 -47 28 -46 48 2 9 21 25 57 35 81 11 23 19
49 19 57 0 29 -27 14 -45 -25z"/>
<path d="M415 319 c-24 -50 -35 -139 -17 -139 15 0 32 24 32 45 0 12 4 25 9
31 13 14 22 102 11 109 -5 3 -21 -18 -35 -46z"/>
</g>
</svg>
