<svg version="1.0" xmlns="http://www.w3.org/2000/svg"
 width="61.000000pt" height="95.000000pt" viewBox="0 0 61.000000 95.000000"
 preserveAspectRatio="xMidYMid meet">
<metadata>
Created by potrace 1.15, written by Peter Selinger 2001-2017
</metadata>
<g transform="translate(0.000000,95.000000) scale(0.100000,-0.100000)"
fill="#000000" stroke="none">
<path d="M335 770 c-4 -6 -3 -15 0 -21 30 -47 48 -324 26 -381 -5 -13 -15 -43
-22 -68 -7 -25 -28 -74 -46 -110 -37 -73 -38 -80 -20 -80 19 0 49 37 87 106
40 75 60 95 115 123 25 12 45 27 45 32 0 19 -29 79 -59 123 -25 36 -31 55 -31
97 0 83 -32 167 -69 180 -11 5 -23 4 -26 -1z m118 -374 c5 -13 -21 -46 -36
-46 -12 0 -8 35 5 48 16 16 25 15 31 -2z"/>
<path d="M250 653 c-24 -10 -131 -124 -127 -137 2 -6 17 -10 33 -9 20 2 44 19
81 59 65 70 71 109 13 87z"/>
<path d="M260 473 c-23 -8 -130 -116 -130 -130 0 -31 53 -8 107 45 73 73 81
106 23 85z"/>
<path d="M225 257 c-62 -64 -109 -132 -100 -146 10 -17 80 24 106 61 13 18 31
42 41 52 10 11 18 24 18 29 0 4 7 15 15 23 21 22 19 34 -7 33 -14 0 -43 -21
-73 -52z"/>
</g>
</svg>
