<svg version="1.0" xmlns="http://www.w3.org/2000/svg"
 width="61.000000pt" height="105.000000pt" viewBox="0 0 61.000000 105.000000"
 preserveAspectRatio="xMidYMid meet">
<metadata>
Created by potrace 1.15, written by Peter Selinger 2001-2017
</metadata>
<g transform="translate(0.000000,105.000000) scale(0.100000,-0.100000)"
fill="#000000" stroke="none">
<path d="M394 898 c25 -128 24 -375 -3 -508 -32 -159 -36 -174 -85 -287 -19
-46 -31 -83 -26 -83 29 0 110 117 110 160 0 11 17 39 38 63 103 114 132 161
151 244 12 48 11 54 -14 106 -15 30 -38 66 -51 80 -13 14 -24 30 -24 35 0 5
-6 15 -14 21 -8 7 -17 42 -21 84 -8 74 -27 117 -52 117 -12 0 -14 -7 -9 -32z
m116 -305 c39 -57 28 -130 -32 -208 -37 -47 -49 -59 -42 -40 5 15 26 186 33
278 2 16 17 5 41 -30z"/>
<path d="M239 808 c-14 -27 -40 -72 -71 -125 -60 -104 -82 -160 -59 -151 12 5
91 98 91 108 0 5 6 15 13 22 21 22 67 120 67 145 0 30 -26 30 -41 1z"/>
<path d="M207 547 c-15 -34 -32 -69 -37 -77 -17 -26 -70 -143 -70 -154 0 -3 6
-6 13 -6 31 0 166 252 153 286 -11 29 -32 12 -59 -49z"/>
<path d="M243 358 c-5 -7 -16 -33 -23 -58 -7 -25 -17 -49 -20 -55 -14 -19 -51
-128 -46 -133 17 -17 40 17 90 130 32 73 32 159 -1 116z"/>
</g>
</svg>
