<svg version="1.0" xmlns="http://www.w3.org/2000/svg"
 width="47.000000pt" height="75.000000pt" viewBox="0 0 47.000000 75.000000"
 preserveAspectRatio="xMidYMid meet">
<metadata>
Created by potrace 1.15, written by Peter Selinger 2001-2017
</metadata>
<g transform="translate(0.000000,75.000000) scale(0.100000,-0.100000)"
fill="#000000" stroke="none">
<path d="M199 572 c-19 -19 -44 -90 -35 -99 6 -6 -52 -96 -66 -101 -4 -2 -8
-23 -8 -47 0 -39 4 -47 38 -72 52 -39 62 -50 62 -65 1 -17 37 -64 45 -57 3 4
-3 46 -14 95 -18 86 -19 204 -1 204 5 0 8 16 8 36 0 19 5 48 12 64 21 51 -6
79 -41 42z"/>
<path d="M277 513 c-13 -24 52 -137 69 -120 10 9 -39 127 -53 127 -6 0 -14 -3
-16 -7z"/>
<path d="M270 352 c0 -23 67 -102 86 -102 30 0 9 59 -35 97 -31 28 -51 29 -51
5z"/>
<path d="M290 217 c0 -19 59 -87 76 -87 21 0 17 12 -18 58 -32 41 -58 54 -58
29z"/>
</g>
</svg>
