<svg version="1.0" xmlns="http://www.w3.org/2000/svg"
 width="65.000000pt" height="84.000000pt" viewBox="0 0 65.000000 84.000000"
 preserveAspectRatio="xMidYMid meet">
<metadata>
Created by potrace 1.15, written by Peter Selinger 2001-2017
</metadata>
<g transform="translate(0.000000,84.000000) scale(0.100000,-0.100000)"
fill="#000000" stroke="none">
<path d="M186 655 c-3 -9 -6 -34 -6 -56 0 -31 -3 -38 -17 -36 -30 4 -43 17
-43 41 0 30 -26 64 -38 51 -14 -14 2 -115 19 -126 8 -5 29 -9 47 -9 17 0 32
-4 32 -10 0 -15 27 -12 33 3 3 9 16 12 34 10 24 -4 31 0 41 22 16 35 15 90 -1
104 -19 15 -27 4 -27 -40 0 -28 -5 -41 -19 -49 -19 -9 -20 -6 -23 47 -3 55
-19 80 -32 48z"/>
<path d="M435 661 c-3 -6 -3 -27 1 -49 7 -44 -5 -59 -35 -42 -12 6 -21 23 -23
42 -2 22 -9 34 -20 36 -15 3 -18 -4 -18 -40 0 -69 14 -80 107 -86 73 -4 83 -2
102 17 16 16 21 32 19 59 -4 49 -31 51 -38 2 -4 -30 -9 -35 -34 -38 -29 -4
-29 -3 -23 41 4 28 2 48 -5 55 -14 14 -25 15 -33 3z"/>
<path d="M110 459 c-13 -6 -28 -15 -32 -22 -4 -7 -8 -85 -8 -174 0 -191 -2
-188 110 -181 87 5 100 16 100 84 0 54 0 54 -91 54 -81 0 -90 2 -87 18 3 14
18 18 88 22 81 5 85 6 98 33 9 18 11 42 7 64 -6 35 -6 35 -96 28 -72 -6 -89
-4 -89 6 0 29 18 37 98 41 85 5 107 12 82 28 -20 13 -148 11 -180 -1z m150
-120 c0 -23 -36 -38 -92 -39 -50 0 -58 3 -58 18 0 10 3 22 7 25 12 12 143 8
143 -4z m-21 -163 c27 -32 -14 -56 -95 -56 -29 0 -34 4 -34 23 0 19 8 26 38
34 53 15 78 15 91 -1z"/>
<path d="M383 463 c-13 -2 -23 -11 -23 -18 0 -11 17 -13 88 -8 95 6 97 7 87
22 -6 11 -106 13 -152 4z"/>
<path d="M425 373 c-96 -4 -126 -16 -82 -32 38 -14 39 -61 2 -61 -15 0 -25 -6
-25 -14 0 -17 22 -26 67 -26 47 0 38 -23 -12 -30 -57 -7 -58 -30 -1 -30 38 0
46 -3 46 -19 0 -15 -10 -20 -51 -25 -63 -9 -61 -30 4 -34 46 -3 47 -4 47 -38
0 -18 5 -34 10 -34 6 0 13 0 18 0 4 -1 9 14 12 32 5 31 8 33 52 38 83 10 79
31 -7 38 -45 4 -55 8 -55 23 0 15 9 18 53 21 65 4 68 22 5 26 -34 2 -48 7 -48
18 0 10 12 14 38 14 79 0 108 23 50 38 -42 11 -48 53 -8 62 14 3 25 12 25 20
0 17 -11 18 -140 13z m49 -55 c-9 -30 -7 -29 -40 -31 -25 -2 -29 2 -32 26 -3
26 -1 27 38 27 38 0 41 -2 34 -22z"/>
</g>
</svg>
