<svg version="1.0" xmlns="http://www.w3.org/2000/svg"
 width="68.000000pt" height="88.000000pt" viewBox="0 0 68.000000 88.000000"
 preserveAspectRatio="xMidYMid meet">
<metadata>
Created by potrace 1.15, written by Peter Selinger 2001-2017
</metadata>
<g transform="translate(0.000000,88.000000) scale(0.100000,-0.100000)"
fill="#000000" stroke="none">
<path d="M250 628 c0 -7 12 -31 25 -53 33 -53 32 -75 -1 -75 -17 0 -40 15 -70
45 -53 55 -77 59 -72 13 2 -19 9 -33 16 -33 32 0 43 -60 12 -68 -25 -6 -60
-80 -59 -127 0 -46 19 -70 56 -70 30 0 30 0 36 -86 8 -137 38 -158 196 -143
53 6 68 12 95 38 31 31 31 31 30 154 0 102 -3 128 -19 155 -31 52 -49 42 -42
-23 3 -33 2 -55 -4 -55 -13 0 -58 49 -75 83 -19 35 -39 34 -54 -3 -7 -17 -24
-40 -39 -51 -26 -21 -26 -21 -32 16 -11 66 -49 74 -49 10 0 -40 -16 -53 -38
-32 -14 15 -14 20 2 54 25 55 68 79 165 91 86 11 120 26 148 68 12 19 14 32 7
52 -14 41 -40 40 -48 -2 -5 -27 -13 -37 -38 -45 -17 -6 -32 -11 -34 -11 -1 0
-12 20 -24 44 -15 31 -30 48 -52 55 -39 14 -38 14 -38 -1z m159 -358 c53 -50
53 -50 -35 -50 -49 0 -99 3 -111 6 -24 7 -32 34 -10 34 9 0 99 52 102 59 1 1
25 -21 54 -49z m39 -105 c6 -3 12 -9 12 -15 0 -6 -40 -10 -105 -10 -58 0 -105
2 -105 4 0 2 -3 12 -6 21 -6 15 3 16 92 10 55 -4 105 -8 112 -10z m-19 -64
c19 -12 5 -18 -60 -26 -57 -7 -106 6 -94 26 8 11 135 12 154 0z"/>
</g>
</svg>
