<svg version="1.0" xmlns="http://www.w3.org/2000/svg"
 width="69.000000pt" height="89.000000pt" viewBox="0 0 69.000000 89.000000"
 preserveAspectRatio="xMidYMid meet">
<metadata>
Created by potrace 1.15, written by Peter Selinger 2001-2017
</metadata>
<g transform="translate(0.000000,89.000000) scale(0.100000,-0.100000)"
fill="#000000" stroke="none">
<path d="M217 766 c-32 -34 -70 -81 -84 -102 -15 -21 -39 -51 -55 -65 -15 -14
-28 -33 -28 -42 0 -8 -6 -17 -12 -19 -10 -4 -10 -10 0 -32 10 -24 18 -27 50
-25 37 2 112 -10 112 -18 0 -10 -41 -82 -50 -88 -5 -3 -17 -23 -26 -43 -8 -20
-20 -45 -25 -54 -11 -21 -12 -108 -1 -108 4 -1 23 -23 42 -50 19 -28 49 -57
67 -65 18 -9 37 -23 43 -33 11 -16 11 -16 6 0 -4 12 -1 15 11 11 26 -10 246
19 283 37 114 56 116 60 99 167 -24 154 -23 213 5 287 24 64 27 106 7 106 -5
0 -14 -13 -21 -30 -7 -16 -16 -30 -21 -30 -5 0 -9 -8 -10 -17 0 -10 -8 -31
-18 -48 -19 -33 -9 -31 -162 -21 -36 3 -85 0 -107 -6 -40 -10 -43 -9 -71 21
-16 17 -35 31 -43 31 -8 0 -18 4 -24 9 -5 5 -22 11 -37 13 -28 3 -28 3 39 98
38 52 76 102 86 111 18 16 25 69 10 69 -4 0 -33 -29 -65 -64z m314 -355 c17
-14 26 -37 35 -92 7 -40 12 -74 11 -75 -1 -1 -36 -7 -77 -12 -73 -9 -262 -7
-307 3 -29 7 -29 33 -2 82 39 69 62 92 94 93 17 0 37 5 45 10 8 5 52 10 96 10
65 0 86 -4 105 -19z m40 -231 c26 -15 24 -25 -12 -50 -31 -23 -94 -32 -224
-34 -63 -1 -135 25 -135 49 0 13 90 25 197 25 34 0 65 5 68 10 8 13 81 13 106
0z"/>
<path d="M343 350 c-11 -16 -9 -23 9 -40 28 -25 53 -25 78 0 17 17 18 23 8 40
-17 27 -78 28 -95 0z"/>
<path d="M404 733 c-36 -33 -91 -78 -112 -93 -12 -8 -22 -20 -22 -26 0 -7 -6
-15 -12 -17 -21 -9 24 -7 63 2 20 5 51 22 69 40 38 36 48 38 57 14 4 -10 12
-23 17 -30 6 -7 17 -19 24 -28 8 -9 19 -14 25 -12 16 5 21 47 8 60 -6 6 -11
19 -11 29 0 10 -4 18 -9 18 -5 0 -14 14 -20 30 -12 35 -46 41 -77 13z"/>
</g>
</svg>
