<svg version="1.0" xmlns="http://www.w3.org/2000/svg"
 width="105.000000pt" height="169.000000pt" viewBox="0 0 105.000000 169.000000"
 preserveAspectRatio="xMidYMid meet">
<metadata>
Created by potrace 1.15, written by Peter Selinger 2001-2017
</metadata>
<g transform="translate(0.000000,169.000000) scale(0.100000,-0.100000)"
fill="#000000" stroke="none">
<path d="M281 1508 c-11 -4 -23 -13 -28 -21 -4 -9 -24 -33 -44 -54 -57 -62
-159 -219 -159 -245 0 -12 26 14 45 44 47 74 89 128 104 133 10 3 27 14 39 25
18 17 25 18 40 9 34 -21 79 -1 116 52 12 18 25 21 88 21 90 -1 136 -19 188
-74 69 -74 83 -117 96 -290 7 -85 0 -93 -48 -65 -76 44 -104 79 -118 149 -21
107 -30 138 -41 138 -7 0 -9 -17 -5 -47 4 -27 6 -65 6 -85 0 -40 35 -119 69
-155 19 -20 70 -47 124 -66 15 -6 17 -20 17 -105 0 -100 -7 -122 -40 -122 -17
0 -85 -42 -132 -82 -15 -13 -41 -34 -59 -48 -48 -37 -81 -74 -68 -79 6 -2 23
8 37 22 75 69 246 167 264 149 12 -12 11 -87 -1 -412 -5 -120 -5 -219 0 -224
5 -6 10 -4 13 5 14 43 26 233 26 413 0 124 4 207 10 211 5 3 31 -9 57 -26 46
-32 71 -55 121 -114 13 -15 26 -25 29 -22 20 21 -67 120 -160 182 -57 38 -57
38 -57 141 0 94 2 103 20 109 11 3 20 10 20 15 0 5 8 11 18 14 50 16 96 183
84 309 -5 48 -29 63 -25 16 2 -35 -16 -168 -30 -214 -13 -46 -41 -75 -72 -75
-19 0 -21 6 -22 58 -2 112 -24 211 -58 257 -62 83 -100 113 -165 134 -67 21
-261 33 -299 19z"/>
</g>
</svg>
