<svg version="1.0" xmlns="http://www.w3.org/2000/svg"
 width="53.000000pt" height="103.000000pt" viewBox="0 0 53.000000 103.000000"
 preserveAspectRatio="xMidYMid meet">
<metadata>
Created by potrace 1.15, written by Peter Selinger 2001-2017
</metadata>
<g transform="translate(0.000000,103.000000) scale(0.100000,-0.100000)"
fill="#000000" stroke="none">
<path d="M217 953 c-4 -3 -7 -22 -7 -42 0 -20 -4 -43 -10 -51 -10 -16 -12 -12
-24 41 -6 29 -27 42 -52 32 -12 -4 -14 -14 -9 -40 11 -62 24 -83 59 -100 35
-16 35 -16 5 -52 -24 -30 -29 -45 -29 -91 -1 -30 -7 -66 -14 -79 -8 -15 -12
-40 -9 -62 4 -24 -1 -54 -11 -80 -12 -29 -14 -45 -7 -52 11 -11 30 6 65 56 15
22 15 22 15 1 1 -11 6 -25 13 -32 9 -9 5 -19 -20 -45 -28 -28 -31 -36 -19 -46
8 -6 22 -9 31 -5 12 4 16 0 16 -15 0 -27 31 -28 55 -1 13 14 31 20 59 20 45 0
48 4 -33 -58 -36 -28 -19 -45 36 -39 45 5 45 5 39 -27 -17 -83 -17 -101 -2
-121 15 -19 17 -19 30 -2 8 10 20 57 27 105 10 68 18 92 36 109 21 20 29 51
24 93 -1 8 -14 25 -29 37 -25 21 -27 28 -27 105 0 75 -3 88 -30 131 -37 58
-64 61 -77 7 -17 -70 -28 -88 -60 -94 -24 -5 -29 -10 -25 -26 4 -15 0 -20 -15
-20 -18 0 -20 4 -15 37 4 21 11 39 17 41 5 2 10 9 10 15 0 7 12 26 27 44 31
38 65 130 57 156 -3 10 -1 23 4 30 14 18 22 71 12 86 -11 19 -40 6 -40 -18 0
-11 -4 -23 -10 -26 -6 -4 -10 8 -10 27 0 45 -31 74 -53 51z m139 -531 c-26
-27 -46 -7 -46 45 0 37 6 55 28 81 27 33 27 33 30 -39 2 -53 -1 -76 -12 -87z
m74 -62 c0 -5 -7 -10 -16 -10 -8 0 -12 5 -9 10 3 6 10 10 16 10 5 0 9 -4 9
-10z"/>
<path d="M155 760 c-3 -5 -1 -10 4 -10 6 0 11 5 11 10 0 6 -2 10 -4 10 -3 0
-8 -4 -11 -10z"/>
</g>
</svg>
