<svg version="1.0" xmlns="http://www.w3.org/2000/svg"
 width="68.000000pt" height="86.000000pt" viewBox="0 0 68.000000 86.000000"
 preserveAspectRatio="xMidYMid meet">
<metadata>
Created by potrace 1.15, written by Peter Selinger 2001-2017
</metadata>
<g transform="translate(0.000000,86.000000) scale(0.100000,-0.100000)"
fill="#000000" stroke="none">
<path d="M475 663 c-50 -5 -61 -16 -39 -37 10 -11 30 -17 53 -16 57 3 61 1 61
-23 0 -36 -30 -57 -83 -57 -25 0 -49 -5 -52 -10 -10 -16 13 -38 43 -42 21 -2
28 -9 30 -29 2 -20 -7 -34 -42 -63 -46 -37 -46 -37 -46 -4 0 63 -40 76 -84 27
-17 -19 -33 -28 -43 -25 -8 3 -19 6 -24 6 -12 0 -11 47 1 71 8 15 21 19 59 19
45 0 84 21 64 33 -12 7 -310 13 -317 6 -4 -3 -4 -14 0 -23 5 -13 20 -16 75
-16 38 0 69 -4 69 -10 0 -5 -11 -35 -25 -66 -41 -93 -28 -135 25 -79 30 32 48
32 56 -2 8 -32 -10 -157 -33 -230 -13 -41 -14 -56 -5 -65 9 -9 17 -7 33 8 31
27 36 47 49 180 11 116 24 164 43 164 10 0 3 -197 -9 -287 -5 -34 -3 -43 9
-43 28 0 36 26 48 151 12 120 14 125 34 121 12 -2 27 4 34 12 14 17 46 21 55
8 3 -5 -7 -28 -21 -53 -21 -37 -24 -52 -18 -94 12 -90 56 -164 90 -151 23 8
18 46 -16 116 -26 55 -29 67 -19 91 7 15 20 35 31 45 25 23 24 43 -5 73 -20
22 -23 32 -17 69 4 32 12 46 31 55 28 14 38 42 39 109 1 67 -12 73 -134 61z"/>
<path d="M104 645 c-4 -8 -3 -22 0 -31 5 -14 21 -15 119 -9 69 5 117 12 126
20 28 27 1 35 -120 35 -97 0 -121 -3 -125 -15z"/>
<path d="M86 421 c-3 -5 -9 -42 -12 -83 -6 -63 -4 -76 13 -97 18 -22 24 -23
77 -17 51 7 57 10 54 29 -2 18 -11 23 -44 25 -41 3 -41 3 -50 74 -8 66 -23 93
-38 69z"/>
</g>
</svg>
