<svg version="1.0" xmlns="http://www.w3.org/2000/svg"
 width="74.000000pt" height="113.000000pt" viewBox="0 0 74.000000 113.000000"
 preserveAspectRatio="xMidYMid meet">
<metadata>
Created by potrace 1.15, written by Peter Selinger 2001-2017
</metadata>
<g transform="translate(0.000000,113.000000) scale(0.100000,-0.100000)"
fill="#000000" stroke="none">
<path d="M166 1091 c-4 -7 -5 -15 -2 -18 9 -9 19 4 14 18 -4 11 -6 11 -12 0z"/>
<path d="M377 1054 c-4 -4 -4 -11 -1 -15 7 -12 284 -12 284 -1 0 15 -270 29
-283 16z"/>
<path d="M156 989 c-3 -34 -6 -87 -6 -118 0 -75 -9 -88 -45 -65 -26 17 -26 18
-20 98 6 85 -5 127 -25 96 -10 -15 -4 -209 6 -220 3 -3 24 -10 47 -15 39 -10
42 -13 42 -45 0 -28 -6 -38 -35 -56 -79 -50 -77 -43 -84 -225 -11 -299 -11
-304 6 -307 9 -2 20 3 24 10 4 7 9 108 9 226 2 201 3 215 23 234 24 25 48 19
53 -14 3 -13 2 -68 -2 -123 -9 -126 -11 -395 -3 -395 24 0 32 35 34 151 4 229
7 364 8 387 2 25 17 29 37 9 18 -19 37 -208 34 -353 -2 -68 0 -126 4 -130 3
-3 13 1 22 9 19 19 19 66 3 292 -11 168 -23 215 -53 215 -21 0 -45 36 -45 69
0 25 6 34 28 42 15 6 33 14 41 18 28 14 53 169 35 215 -3 9 -12 16 -20 16 -11
0 -14 -20 -14 -90 0 -78 -3 -93 -21 -111 -11 -11 -28 -19 -37 -17 -15 3 -17
16 -13 109 3 104 -2 149 -18 149 -5 0 -11 -28 -15 -61z"/>
<path d="M667 1013 c-4 -3 -7 -19 -7 -33 0 -39 -35 -50 -163 -49 -71 1 -112
-3 -122 -11 -29 -24 -35 -89 -35 -406 0 -177 -2 -327 -4 -335 -10 -28 -15
-149 -7 -149 13 0 28 22 34 51 4 14 9 113 12 220 3 107 8 210 10 229 3 20 1
60 -4 89 -10 63 -5 91 17 91 29 0 99 49 111 79 7 16 11 46 9 68 -3 35 -1 38
27 44 44 8 55 1 55 -37 0 -49 28 -46 32 3 2 29 8 39 23 41 34 7 45 23 45 68 0
42 -14 57 -33 37z m-182 -122 c11 -19 -8 -93 -30 -117 -13 -14 -34 -24 -49
-24 -25 0 -26 2 -26 59 0 41 5 65 16 75 17 17 79 22 89 7z"/>
<path d="M609 783 c5 -10 12 -25 15 -34 5 -19 69 -44 91 -35 19 7 8 36 -13 36
-8 0 -30 11 -48 25 -39 30 -58 33 -45 8z"/>
<path d="M499 685 c-29 -16 -59 -56 -59 -80 0 -8 -4 -15 -9 -15 -10 0 -24 -97
-23 -160 0 -58 12 -120 22 -120 13 0 21 70 14 126 -5 46 -4 54 10 54 20 0 55
-34 75 -72 16 -32 51 -38 51 -9 0 18 -92 111 -111 111 -17 0 -9 57 11 75 19
17 21 16 75 -39 42 -44 57 -53 61 -42 10 25 -2 43 -48 76 -24 17 -43 37 -43
43 0 16 83 21 111 7 28 -15 42 -65 33 -115 -5 -22 -8 -55 -8 -73 -1 -37 -24
-72 -93 -144 -45 -47 -48 -52 -48 -104 0 -34 6 -65 17 -82 25 -41 75 -92 90
-92 7 0 13 -4 13 -10 0 -16 47 -12 54 5 5 14 -55 68 -94 83 -31 12 -40 32 -40
84 0 50 4 59 45 107 75 88 95 136 95 231 0 95 -13 132 -55 153 -43 20 -110 22
-146 2z"/>
</g>
</svg>
