<svg version="1.0" xmlns="http://www.w3.org/2000/svg"
 width="68.000000pt" height="82.000000pt" viewBox="0 0 68.000000 82.000000"
 preserveAspectRatio="xMidYMid meet">
<metadata>
Created by potrace 1.15, written by Peter Selinger 2001-2017
</metadata>
<g transform="translate(0.000000,82.000000) scale(0.100000,-0.100000)"
fill="#000000" stroke="none">
<path d="M285 723 c-9 -39 -22 -52 -61 -59 -22 -4 -48 -22 -79 -55 -45 -48
-45 -48 -43 -216 1 -92 -2 -183 -6 -201 -7 -29 -37 -88 -69 -134 -19 -28 5
-45 35 -26 25 16 78 133 78 171 0 12 7 45 15 72 12 37 14 71 9 127 -8 95 1
164 23 172 33 13 45 -53 18 -104 -18 -35 -5 -46 25 -22 30 24 39 96 15 122
-19 21 -13 40 15 40 44 0 67 -92 34 -138 -8 -12 -14 -30 -12 -39 2 -14 11 -10
40 19 50 51 57 88 24 131 -44 58 -31 77 33 46 23 -11 62 -24 87 -28 25 -5 51
-14 57 -20 8 -8 11 -51 10 -129 -3 -129 9 -233 34 -302 18 -51 51 -92 65 -84
11 7 10 10 -22 184 -15 84 -20 145 -18 229 3 113 3 113 -32 142 -23 19 -56 33
-95 40 -73 13 -135 46 -135 71 0 30 -37 22 -45 -9z"/>
<path d="M405 590 c-3 -5 -1 -18 5 -29 16 -32 12 -55 -20 -99 -27 -38 -28 -42
-10 -42 25 0 100 71 100 96 0 38 -60 98 -75 74z"/>
<path d="M273 386 c-63 -12 -69 -31 -13 -40 40 -6 40 -6 40 -70 0 -69 -5 -76
-60 -76 -58 0 -43 -33 20 -44 45 -8 202 15 207 30 4 13 -28 24 -73 24 -38 0
-46 19 -37 91 5 46 8 49 39 55 37 7 53 22 32 28 -33 10 -108 11 -155 2z"/>
</g>
</svg>
