<svg version="1.0" xmlns="http://www.w3.org/2000/svg"
 width="65.000000pt" height="85.000000pt" viewBox="0 0 65.000000 85.000000"
 preserveAspectRatio="xMidYMid meet">
<metadata>
Created by potrace 1.15, written by Peter Selinger 2001-2017
</metadata>
<g transform="translate(0.000000,85.000000) scale(0.100000,-0.100000)"
fill="#000000" stroke="none">
<path d="M157 674 c-4 -4 -7 -33 -7 -65 0 -60 -7 -73 -34 -63 -10 4 -16 18
-16 39 0 47 -9 65 -32 65 -19 0 -20 -4 -13 -57 8 -69 16 -80 61 -89 24 -4 34
-12 34 -25 0 -25 30 -24 37 1 3 13 19 24 44 30 39 11 39 11 39 79 0 49 -4 72
-15 81 -19 15 -23 4 -27 -65 -2 -38 -7 -51 -20 -53 -14 -3 -17 7 -20 59 -3 57
-14 80 -31 63z"/>
<path d="M407 664 c-3 -4 -4 -34 0 -66 6 -59 6 -60 -18 -56 -21 3 -24 9 -27
56 -3 44 -6 52 -23 52 -15 0 -19 -7 -19 -37 0 -21 -3 -47 -6 -59 -7 -28 20
-54 57 -54 19 0 29 -5 29 -15 0 -19 29 -19 54 0 11 8 31 15 45 15 42 0 52 14
58 76 3 42 1 64 -10 78 -20 27 -37 11 -37 -35 0 -26 -7 -46 -21 -60 -28 -28
-37 -16 -41 51 -2 40 -7 56 -18 58 -9 1 -19 0 -23 -4z"/>
<path d="M62 439 c3 -24 3 -24 205 -29 111 -3 205 -8 208 -12 4 -4 5 -14 2
-23 -5 -12 -24 -15 -91 -15 -104 0 -116 -4 -116 -40 0 -16 -3 -31 -7 -33 -5
-3 -35 -2 -68 2 -44 4 -60 10 -60 21 0 10 13 17 40 20 27 3 41 10 43 23 3 15
-5 17 -55 17 -69 0 -76 -4 -91 -49 -15 -42 -15 -37 4 -55 12 -12 36 -16 100
-16 83 0 84 0 84 -25 0 -24 -2 -25 -76 -25 -107 0 -114 -5 -114 -91 0 -67 1
-70 23 -67 19 3 23 10 27 58 5 55 5 55 74 58 68 3 68 3 62 -42 -9 -57 5 -66
109 -66 59 0 77 3 82 16 9 25 -13 37 -77 42 -54 4 -60 7 -60 27 0 20 7 24 54
29 30 4 60 14 67 22 10 12 2 14 -55 14 -59 0 -66 2 -66 20 0 18 7 20 79 20 92
0 91 1 91 -101 0 -79 11 -109 40 -109 19 0 20 7 20 110 0 145 -4 150 -130 150
-73 0 -90 3 -90 15 0 12 18 15 103 15 116 0 127 5 127 61 0 67 -5 69 -245 69
-117 0 -221 3 -230 6 -13 5 -16 2 -13 -17z"/>
</g>
</svg>
