<svg version="1.0" xmlns="http://www.w3.org/2000/svg"
 width="71.000000pt" height="90.000000pt" viewBox="0 0 71.000000 90.000000"
 preserveAspectRatio="xMidYMid meet">
<metadata>
Created by potrace 1.15, written by Peter Selinger 2001-2017
</metadata>
<g transform="translate(0.000000,90.000000) scale(0.100000,-0.100000)"
fill="#000000" stroke="none">
<path d="M98 704 c-9 -20 -9 -30 0 -45 7 -10 12 -27 12 -37 0 -23 19 -42 41
-42 10 0 30 -11 46 -24 26 -22 31 -23 53 -10 14 7 35 13 47 14 24 0 27 7 38
88 6 46 -7 82 -30 82 -10 0 -15 -17 -17 -62 -2 -48 -7 -63 -18 -63 -11 0 -16
15 -20 55 -4 49 -8 55 -29 58 -23 4 -24 2 -17 -36 3 -22 9 -47 12 -56 5 -12 0
-16 -19 -16 -32 0 -51 23 -43 53 6 24 -17 67 -35 67 -5 0 -15 -12 -21 -26z"/>
<path d="M463 713 c-8 -3 -13 -25 -13 -60 0 -46 -3 -54 -17 -51 -13 2 -19 16
-23 48 -4 32 -10 46 -22 48 -15 3 -18 -4 -18 -45 0 -53 21 -93 49 -93 21 0 41
-19 41 -39 0 -12 -25 -13 -170 -7 -146 5 -170 4 -170 -9 0 -26 33 -33 203 -37
108 -3 172 -9 179 -16 18 -18 6 -22 -86 -29 -47 -3 -90 -11 -95 -17 -5 -6 -11
-29 -13 -51 -3 -40 -3 -40 -56 -43 -31 -2 -60 2 -68 9 -21 17 -18 49 5 49 28
0 63 32 52 49 -7 10 -21 12 -55 7 -68 -10 -93 -57 -65 -120 16 -35 59 -50 129
-43 58 5 60 4 60 -19 0 -23 -3 -24 -62 -24 -87 0 -105 -7 -117 -42 -17 -48
-14 -137 4 -144 28 -11 45 16 45 71 0 65 13 77 77 73 48 -3 48 -3 48 -78 0
-65 2 -75 19 -78 27 -6 36 15 36 87 0 63 0 63 58 59 31 -3 68 -1 81 4 13 5 26
7 28 5 2 -3 -1 -33 -6 -68 -9 -54 -8 -66 5 -79 14 -13 17 -13 35 9 16 20 19
39 19 136 0 148 -2 150 -122 141 -91 -6 -104 -1 -93 34 6 17 15 20 73 20 90 0
138 14 146 43 16 61 3 92 -43 99 -33 4 -38 26 -7 34 36 9 58 38 63 86 4 35 1
47 -15 62 -28 24 -42 13 -42 -33 0 -21 -6 -44 -14 -50 -20 -17 -29 2 -21 45 4
22 2 41 -6 50 -12 15 -16 16 -36 7z m57 -478 c0 -32 -2 -35 -19 -25 -11 5 -47
10 -80 10 -58 0 -61 1 -61 25 0 25 1 25 80 25 80 0 80 0 80 -35z"/>
</g>
</svg>
