<svg version="1.0" xmlns="http://www.w3.org/2000/svg"
 width="71.000000pt" height="86.000000pt" viewBox="0 0 71.000000 86.000000"
 preserveAspectRatio="xMidYMid meet">
<metadata>
Created by potrace 1.15, written by Peter Selinger 2001-2017
</metadata>
<g transform="translate(0.000000,86.000000) scale(0.100000,-0.100000)"
fill="#000000" stroke="none">
<path d="M400 676 c-23 -33 -23 -33 -138 -42 -116 -9 -116 -9 -134 23 -21 36
-46 49 -62 33 -8 -8 -7 -15 5 -23 22 -17 39 -51 39 -79 0 -31 -36 -88 -55 -88
-8 0 -15 -9 -15 -20 0 -11 6 -20 14 -20 17 0 82 78 87 105 4 17 16 21 79 27
41 4 94 9 118 11 42 5 42 5 42 -33 0 -22 8 -47 19 -61 24 -29 38 -18 23 16
-19 42 -15 119 8 148 24 30 25 37 6 37 -7 0 -24 -15 -36 -34z"/>
<path d="M497 622 c-35 -37 -35 -74 0 -102 32 -25 77 -23 120 5 45 30 43 79
-6 108 -43 25 -83 22 -114 -11z m91 -24 c29 -29 -2 -68 -54 -68 -23 0 -40 46
-24 65 15 18 61 20 78 3z"/>
<path d="M227 524 c-40 -12 -51 -21 -63 -49 -29 -71 -13 -112 54 -136 18 -6
32 -14 32 -18 0 -4 -13 -20 -30 -36 -16 -16 -30 -32 -30 -37 0 -15 24 -8 46
13 23 22 23 22 54 -5 18 -15 44 -26 61 -26 37 0 37 14 2 32 -88 44 -94 65 -28
92 38 16 46 24 51 53 9 49 -20 109 -59 122 -36 13 -30 13 -90 -5z m97 -40 c22
-21 20 -67 -3 -88 -25 -22 -92 -32 -120 -17 -30 17 -30 84 1 105 29 21 102 21
122 0z"/>
<path d="M232 438 c4 -31 53 -34 53 -3 0 15 -8 21 -28 23 -25 3 -28 0 -25 -20z"/>
<path d="M425 439 c-9 -14 24 -49 47 -49 43 0 30 -53 -24 -98 -18 -16 -26 -28
-20 -34 15 -15 57 18 89 68 29 45 48 53 84 34 27 -15 24 -32 -12 -60 -105 -84
-109 -90 -109 -139 1 -59 31 -99 83 -108 50 -8 49 13 -3 49 -33 23 -40 34 -40
61 0 39 11 54 67 90 61 39 79 69 63 107 -16 39 -30 46 -112 54 -38 4 -72 14
-79 22 -14 17 -25 18 -34 3z"/>
<path d="M96 311 c-6 -9 -3 -24 14 -66 4 -11 11 -33 16 -50 11 -34 33 -43 117
-44 69 -1 77 -13 48 -69 -20 -39 -15 -62 9 -47 14 9 50 81 50 101 0 26 -31 43
-75 44 -22 0 -57 5 -77 10 -38 11 -47 26 -60 105 -3 21 -32 32 -42 16z"/>
</g>
</svg>
