<svg version="1.0" xmlns="http://www.w3.org/2000/svg"
 width="62.000000pt" height="82.000000pt" viewBox="0 0 62.000000 82.000000"
 preserveAspectRatio="xMidYMid meet">
<metadata>
Created by potrace 1.15, written by Peter Selinger 2001-2017
</metadata>
<g transform="translate(0.000000,82.000000) scale(0.100000,-0.100000)"
fill="#000000" stroke="none">
<path d="M471 617 c-6 -6 -11 -26 -11 -44 0 -18 -4 -33 -9 -33 -16 0 -102 -91
-95 -101 10 -17 34 -9 73 26 35 32 41 34 49 19 10 -18 0 -70 -18 -88 -15 -15
-12 -36 4 -36 16 0 62 51 71 79 3 12 -3 37 -15 61 -16 31 -20 52 -15 80 7 40
-11 60 -34 37z"/>
<path d="M167 604 c-4 -4 -7 -47 -7 -96 0 -71 3 -90 15 -95 26 -9 30 4 30 100
0 75 -3 92 -15 95 -9 1 -19 0 -23 -4z"/>
<path d="M274 546 c-3 -7 -4 -33 -2 -57 2 -31 7 -44 18 -44 11 0 16 14 18 58
2 47 0 57 -13 57 -9 0 -18 -6 -21 -14z"/>
<path d="M56 508 c-11 -43 -7 -68 12 -68 24 0 44 35 36 65 -8 32 -39 33 -48 3z"/>
<path d="M131 379 c-25 -5 -48 -13 -51 -19 -4 -6 -10 -64 -13 -128 -4 -64 -10
-138 -13 -164 -6 -40 -4 -48 9 -48 27 0 47 53 47 123 0 64 0 65 31 71 17 3 49
6 70 6 39 0 39 0 40 -57 2 -78 11 -114 31 -127 34 -21 42 5 24 76 -9 37 -16
105 -16 159 0 61 -4 99 -12 107 -14 14 -81 14 -147 1z m109 -59 c6 -12 8 -30
5 -40 -5 -17 -16 -20 -71 -20 -64 0 -64 0 -64 30 0 31 6 35 75 43 17 2 33 5
37 6 4 0 12 -8 18 -19z"/>
<path d="M429 313 c-1 -4 -2 -38 -3 -74 -1 -60 -4 -70 -39 -114 -39 -51 -43
-70 -12 -70 11 0 29 17 45 44 14 25 30 46 36 48 5 2 23 -15 39 -37 17 -22 38
-40 48 -40 28 0 20 37 -14 62 -39 29 -57 70 -61 133 -2 38 -7 51 -20 53 -10 2
-19 0 -19 -5z"/>
<path d="M347 304 c-4 -4 -7 -31 -7 -61 0 -47 2 -53 20 -53 19 0 21 5 18 57
-3 52 -14 73 -31 57z"/>
<path d="M504 284 c-9 -34 7 -79 26 -79 19 0 26 70 9 91 -17 21 -28 17 -35
-12z"/>
</g>
</svg>
