<svg version="1.0" xmlns="http://www.w3.org/2000/svg"
 width="71.000000pt" height="89.000000pt" viewBox="0 0 71.000000 89.000000"
 preserveAspectRatio="xMidYMid meet">
<metadata>
Created by potrace 1.15, written by Peter Selinger 2001-2017
</metadata>
<g transform="translate(0.000000,89.000000) scale(0.100000,-0.100000)"
fill="#000000" stroke="none">
<path d="M408 686 c-54 -13 -63 -20 -46 -33 14 -10 212 -2 224 9 3 4 4 14 1
23 -8 18 -105 19 -179 1z"/>
<path d="M172 673 c-12 -2 -29 -17 -37 -33 -29 -56 -14 -82 52 -89 60 -7 73
-29 73 -123 0 -68 0 -68 -45 -68 -44 0 -60 12 -30 24 20 7 49 70 42 90 -7 19
-47 22 -47 4 0 -7 -9 -24 -20 -38 -19 -25 -19 -25 -31 8 -12 35 -33 42 -43 15
-4 -9 -2 -41 5 -71 12 -59 -2 -232 -23 -277 -13 -29 -4 -57 16 -49 12 5 22 28
52 132 2 6 11 12 20 12 15 0 16 -9 10 -80 -7 -89 2 -101 34 -47 19 31 26 90
14 133 -3 12 -21 28 -40 37 -39 19 -46 52 -14 62 37 12 97 -4 103 -27 6 -23
-9 -237 -19 -262 -7 -19 19 -22 33 -3 13 17 33 224 32 333 -1 185 -21 234 -95
234 -61 0 -55 36 8 49 47 10 52 42 6 40 -18 -1 -43 -4 -56 -6z"/>
<path d="M565 613 c-11 -2 -72 -7 -135 -11 -92 -6 -115 -10 -115 -22 0 -10 13
-16 43 -18 34 -3 42 -7 42 -23 0 -11 5 -29 10 -39 8 -15 4 -30 -18 -67 -42
-73 -53 -117 -59 -250 -6 -134 -2 -163 22 -143 12 10 15 39 15 138 0 93 4 138
16 169 21 53 32 55 36 6 3 -33 7 -38 29 -41 21 -2 28 -10 33 -35 6 -29 2 -36
-34 -67 -41 -35 -52 -60 -27 -60 8 0 27 11 43 25 65 56 76 3 12 -62 -47 -48
-44 -66 7 -39 49 27 66 49 72 94 4 31 0 47 -16 70 -26 38 -26 46 1 64 24 16
17 38 -13 38 -10 0 -19 3 -19 8 0 16 32 52 46 52 9 0 14 6 12 13 -3 6 -16 12
-29 12 -18 0 -29 -10 -44 -42 -26 -54 -45 -56 -45 -4 0 22 -5 41 -11 43 -5 2
-7 11 -3 21 15 39 125 53 144 18 6 -12 10 -99 10 -215 0 -107 4 -197 9 -200
26 -17 34 30 37 229 4 204 4 204 -25 224 -22 16 -45 21 -95 21 -51 0 -68 4
-73 15 -9 25 2 29 97 35 48 3 91 8 94 11 4 3 4 14 0 23 -6 15 -25 18 -69 9z"/>
</g>
</svg>
