<svg version="1.0" xmlns="http://www.w3.org/2000/svg"
 width="31.000000pt" height="73.000000pt" viewBox="0 0 31.000000 73.000000"
 preserveAspectRatio="xMidYMid meet">
<metadata>
Created by potrace 1.15, written by Peter Selinger 2001-2017
</metadata>
<g transform="translate(0.000000,73.000000) scale(0.100000,-0.100000)"
fill="#000000" stroke="none">
<path d="M150 523 c0 -5 10 -29 22 -54 34 -67 31 -138 -9 -222 -18 -37 -33
-72 -33 -79 0 -18 37 20 50 53 18 43 30 36 31 -18 0 -27 6 -66 13 -88 13 -40
13 -40 21 -3 4 21 5 98 2 172 -4 127 -6 138 -34 188 -27 46 -63 76 -63 51z"/>
<path d="M149 439 c-1 -2 -3 -17 -5 -32 -1 -15 -10 -42 -18 -59 -20 -39 -20
-38 2 -38 19 0 52 56 52 89 0 16 -28 51 -31 40z"/>
</g>
</svg>
