<svg version="1.0" xmlns="http://www.w3.org/2000/svg"
 width="39.000000pt" height="103.000000pt" viewBox="0 0 39.000000 103.000000"
 preserveAspectRatio="xMidYMid meet">
<metadata>
Created by potrace 1.15, written by Peter Selinger 2001-2017
</metadata>
<g transform="translate(0.000000,103.000000) scale(0.100000,-0.100000)"
fill="#000000" stroke="none">
<path d="M170 788 c0 -13 21 -65 46 -116 46 -92 46 -92 19 -145 -15 -28 -50
-84 -76 -124 -48 -70 -58 -93 -41 -93 9 0 80 77 121 131 21 26 25 29 33 15 14
-24 -2 -67 -93 -253 -58 -118 -63 -168 -10 -84 19 29 39 58 45 65 13 13 66
118 95 188 17 39 18 53 9 80 -6 18 -15 39 -21 45 -6 9 -4 26 7 53 16 41 16 41
-19 101 -19 33 -35 64 -35 70 0 5 -4 9 -10 9 -5 0 -10 5 -10 11 0 15 -39 69
-51 69 -5 0 -9 -10 -9 -22z"/>
<path d="M122 638 c0 -40 -3 -99 -7 -130 -4 -32 -3 -58 1 -58 5 0 19 19 32 43
38 71 27 217 -16 217 -7 0 -11 -26 -10 -72z"/>
</g>
</svg>
