<svg version="1.0" xmlns="http://www.w3.org/2000/svg"
 width="53.000000pt" height="117.000000pt" viewBox="0 0 53.000000 117.000000"
 preserveAspectRatio="xMidYMid meet">
<metadata>
Created by potrace 1.15, written by Peter Selinger 2001-2017
</metadata>
<g transform="translate(0.000000,117.000000) scale(0.100000,-0.100000)"
fill="#000000" stroke="none">
<path d="M157 1033 c-4 -3 -3 -11 2 -17 5 -6 19 -29 31 -51 13 -22 34 -60 48
-85 92 -162 108 -220 81 -287 -23 -57 -34 -79 -51 -105 -18 -26 -25 -78 -10
-78 10 1 84 105 99 142 10 22 17 28 24 21 12 -12 6 -240 -9 -398 -11 -104 -2
-138 21 -84 12 30 19 65 32 179 1 8 7 48 14 88 7 40 11 111 10 157 -4 74 -7
87 -30 112 -34 36 -49 66 -49 97 0 15 -4 34 -9 44 -5 9 -19 40 -32 67 -13 28
-26 52 -29 55 -3 3 -14 22 -25 43 -37 71 -97 122 -118 100z"/>
<path d="M114 923 c23 -91 28 -129 34 -228 7 -104 14 -135 31 -135 15 0 31 69
31 135 0 104 -20 184 -55 222 -36 40 -49 42 -41 6z"/>
</g>
</svg>
