<svg version="1.0" xmlns="http://www.w3.org/2000/svg"
 width="77.000000pt" height="124.000000pt" viewBox="0 0 77.000000 124.000000"
 preserveAspectRatio="xMidYMid meet">
<metadata>
Created by potrace 1.15, written by Peter Selinger 2001-2017
</metadata>
<g transform="translate(0.000000,124.000000) scale(0.100000,-0.100000)"
fill="#000000" stroke="none">
<path d="M123 1015 c-56 -57 -99 -106 -96 -109 14 -13 61 -5 78 14 18 20 19
20 36 1 10 -10 23 -21 30 -23 19 -6 -12 -45 -52 -67 -18 -10 -37 -30 -42 -45
-12 -35 9 -56 73 -75 80 -23 90 -40 90 -153 0 -95 -1 -98 -24 -104 -54 -13
-75 8 -62 62 5 18 13 24 35 24 30 0 45 19 35 45 -4 9 -19 15 -36 15 -27 0 -30
3 -26 25 7 35 -15 63 -39 49 -16 -10 -18 -28 -21 -145 -1 -74 -7 -150 -12
-169 -6 -19 -10 -54 -10 -77 0 -24 -4 -43 -8 -43 -8 0 -42 -106 -42 -133 0
-20 4 -21 30 -7 12 6 27 38 41 83 11 39 23 74 24 76 2 2 17 -6 33 -18 37 -26
52 -27 52 -2 0 11 -15 30 -33 42 -43 31 -44 32 -37 86 4 43 8 48 32 51 53 6
68 -12 68 -80 0 -64 -15 -175 -30 -218 -5 -14 -11 -38 -15 -53 -5 -25 -3 -28
17 -25 35 5 49 78 69 353 16 217 11 290 -22 300 -10 4 -19 10 -19 14 0 4 -22
18 -50 32 -54 26 -62 46 -29 69 38 26 59 53 59 76 0 14 8 25 20 29 25 8 40 -1
40 -24 0 -32 27 -85 64 -124 43 -44 46 -67 11 -67 -32 0 -33 -5 -40 -240 -2
-107 -6 -211 -7 -230 -2 -25 1 -35 12 -35 23 0 31 61 39 270 6 189 14 235 33
200 10 -17 12 -308 3 -355 -3 -14 -9 -61 -15 -105 -6 -44 -13 -95 -16 -112 -5
-25 -3 -33 8 -33 42 0 52 42 70 295 12 164 12 226 3 317 -8 70 -14 81 -83 140
-43 38 -52 76 -22 100 13 10 20 24 16 33 -4 12 -25 15 -96 15 -49 0 -90 4 -90
9 0 5 11 23 25 39 14 17 25 35 25 41 0 6 5 11 11 11 14 0 94 -55 149 -103 36
-31 50 -38 73 -33 22 5 37 0 59 -19 32 -27 83 -33 135 -15 36 13 53 46 53 104
0 62 -29 86 -104 86 -51 0 -61 -4 -88 -30 -23 -23 -29 -36 -24 -55 3 -13 1
-27 -4 -30 -9 -5 -78 40 -150 98 -22 18 -90 57 -98 57 -4 -1 -53 -48 -109
-105z m522 15 c26 -29 11 -91 -26 -104 -64 -22 -114 27 -84 84 23 44 79 55
110 20z"/>
<path d="M469 784 c-10 -13 -10 -17 2 -25 8 -5 24 -9 36 -9 41 0 53 -11 53
-47 0 -25 -8 -41 -29 -61 -38 -36 -51 -63 -51 -109 0 -41 35 -93 63 -93 45 0
117 -57 117 -93 0 -9 4 -25 9 -35 20 -39 33 -127 29 -210 -3 -81 -2 -87 17
-87 23 0 24 23 12 220 -11 173 -25 200 -123 231 -80 25 -104 68 -64 112 17 18
32 22 79 22 71 0 99 19 108 72 9 58 -4 103 -33 116 -14 7 -67 12 -118 12 -73
0 -96 -3 -107 -16z m186 -36 c44 -20 26 -88 -24 -88 -26 0 -38 42 -22 76 12
28 12 28 46 12z"/>
</g>
</svg>
