<svg version="1.0" xmlns="http://www.w3.org/2000/svg"
 width="61.000000pt" height="63.000000pt" viewBox="0 0 61.000000 63.000000"
 preserveAspectRatio="xMidYMid meet">
<metadata>
Created by potrace 1.15, written by Peter Selinger 2001-2017
</metadata>
<g transform="translate(0.000000,63.000000) scale(0.100000,-0.100000)"
fill="#000000" stroke="none">
<path d="M225 518 c-16 -6 -36 -17 -43 -25 -8 -7 -26 -20 -42 -28 -36 -19 -54
-83 -48 -173 7 -98 47 -164 126 -210 26 -14 185 -1 207 18 25 21 85 180 85
225 0 43 -24 80 -75 113 -11 7 -35 22 -54 35 -91 59 -105 63 -156 45z m106
-68 c47 -17 129 -89 129 -112 0 -17 -27 -7 -48 17 -28 32 -36 32 -72 -6 -22
-24 -30 -42 -30 -68 0 -45 35 -89 73 -94 15 -2 27 -6 27 -10 0 -4 0 -14 0 -22
0 -17 -35 -33 -86 -40 -32 -4 -45 7 -24 20 13 8 13 62 0 70 -5 3 -10 13 -10
21 0 21 -25 44 -47 44 -10 0 -33 -9 -51 -20 -18 -11 -34 -20 -36 -20 -2 0 -6
18 -8 40 -2 22 0 40 3 40 4 0 5 9 2 20 -3 11 0 20 6 20 6 0 11 -6 11 -14 0
-30 92 -37 122 -9 32 29 19 103 -19 103 -9 0 -12 -11 -11 -31 3 -36 -23 -62
-43 -42 -8 8 -8 21 2 50 24 71 31 74 110 43z m-158 -52 c-5 -27 -23 -40 -23
-17 0 13 20 52 25 47 2 -1 1 -15 -2 -30z m257 -118 c31 -27 20 -50 -24 -50
-29 0 -37 4 -42 24 -12 48 24 62 66 26z m-172 -62 c17 -17 15 -48 -4 -69 -15
-16 -18 -17 -39 -3 -32 21 -39 44 -18 65 21 21 44 24 61 7z"/>
</g>
</svg>
