<svg version="1.0" xmlns="http://www.w3.org/2000/svg"
 width="68.000000pt" height="78.000000pt" viewBox="0 0 68.000000 78.000000"
 preserveAspectRatio="xMidYMid meet">
<metadata>
Created by potrace 1.15, written by Peter Selinger 2001-2017
</metadata>
<g transform="translate(0.000000,78.000000) scale(0.100000,-0.100000)"
fill="#000000" stroke="none">
<path d="M403 644 c-59 -61 -74 -84 -54 -84 4 0 21 10 36 21 27 22 27 22 52
-3 25 -26 25 -26 -11 -78 -41 -60 -52 -93 -76 -245 -20 -127 -17 -218 9 -213
13 3 17 19 19 81 3 71 11 92 27 67 24 -38 190 -74 190 -41 0 8 -16 20 -35 26
-27 9 -35 17 -35 36 0 21 5 24 38 27 45 4 45 21 -1 41 -25 11 -32 21 -32 43 0
27 1 27 45 21 38 -5 45 -3 45 11 0 10 -16 23 -40 32 -37 15 -40 19 -40 55 0
44 5 46 54 22 29 -13 38 -14 51 -3 8 7 15 15 15 19 0 4 -29 19 -65 35 -36 15
-65 31 -65 33 0 3 11 16 25 29 34 31 32 68 -4 105 -47 46 -75 40 -148 -37z
m109 9 c24 -21 23 -45 -2 -68 -20 -18 -21 -18 -47 8 -27 26 -27 26 -3 52 28
30 28 30 52 8z m-2 -173 c0 -45 -16 -58 -49 -40 -26 14 -27 34 -1 60 33 33 50
26 50 -20z m-46 -81 c38 -22 42 -32 26 -74 -10 -26 -10 -26 -50 -5 -41 21 -43
27 -24 88 5 16 7 16 48 -9z m-6 -123 c21 -19 31 -69 14 -80 -12 -7 -72 22 -78
39 -4 8 -3 31 0 51 8 38 9 38 64 -10z"/>
<path d="M240 674 c-13 -32 -3 -89 17 -105 20 -17 43 -64 43 -87 0 -21 -26
-49 -36 -39 -4 3 -9 20 -13 37 -10 51 -26 35 -29 -30 -3 -69 -21 -132 -40
-138 -11 -3 -12 16 -6 103 6 90 5 107 -7 103 -8 -3 -15 -13 -17 -24 -10 -68
-18 -77 -45 -49 -22 22 -10 53 40 108 40 43 44 52 41 90 -2 34 -7 42 -22 42
-17 0 -20 -7 -21 -43 -1 -37 -7 -49 -37 -75 -41 -37 -68 -79 -68 -104 0 -35
29 -63 66 -63 34 0 34 0 27 -72 -5 -40 -8 -120 -8 -178 0 -98 1 -105 20 -105
19 0 20 8 23 109 3 110 3 110 41 145 28 27 40 47 46 79 5 32 11 42 25 42 26 0
60 39 60 68 0 13 -18 46 -39 73 -36 46 -39 52 -30 84 15 55 -12 79 -31 29z"/>
</g>
</svg>
