<svg version="1.0" xmlns="http://www.w3.org/2000/svg"
 width="57.000000pt" height="80.000000pt" viewBox="0 0 57.000000 80.000000"
 preserveAspectRatio="xMidYMid meet">
<metadata>
Created by potrace 1.15, written by Peter Selinger 2001-2017
</metadata>
<g transform="translate(0.000000,80.000000) scale(0.100000,-0.100000)"
fill="#000000" stroke="none">
<path d="M443 553 c-41 -5 -55 -30 -51 -91 3 -43 5 -48 36 -57 39 -11 42 -36
7 -59 -25 -16 -25 -16 -25 18 0 22 -6 36 -16 40 -28 11 -34 7 -34 -21 0 -60
-47 -73 -62 -18 -11 40 -5 51 30 58 31 6 42 27 42 83 0 21 -6 34 -17 38 -22 9
-98 -3 -119 -19 -14 -10 -20 -9 -36 7 -22 22 -75 24 -124 3 -34 -14 -34 -14
-32 -252 3 -204 5 -238 18 -238 13 0 15 32 18 217 2 218 2 218 27 224 55 14
55 14 55 -231 0 -139 4 -225 10 -225 5 0 16 13 25 30 11 22 15 64 15 180 0
143 1 150 20 150 15 0 20 -7 20 -28 0 -43 25 -70 68 -74 50 -4 45 -20 -11 -36
-43 -12 -46 -15 -52 -55 -4 -23 -5 -62 -3 -87 2 -37 6 -45 23 -45 18 0 20 8
23 65 3 64 11 80 44 80 14 0 18 -12 20 -68 3 -59 5 -67 23 -67 18 0 21 8 25
70 5 70 5 70 35 70 30 0 30 -1 35 -65 4 -58 7 -65 27 -68 17 -3 24 3 29 23 9
36 -4 137 -19 147 -7 4 -33 8 -59 8 -62 0 -67 25 -8 35 46 8 54 17 55 65 0 27
5 37 23 45 29 13 28 39 -3 53 -30 14 -31 22 -5 45 11 9 20 21 20 27 0 10 -44
32 -58 28 -4 0 -22 -3 -39 -5z m17 -74 c0 -16 -4 -29 -10 -29 -5 0 -10 16 -10
36 0 21 4 33 10 29 6 -3 10 -19 10 -36z m-140 6 c0 -16 -6 -25 -15 -25 -15 0
-21 31 -8 43 13 14 23 6 23 -18z m-72 -19 c3 -26 -10 -45 -30 -46 -5 0 -8 18
-8 41 0 33 3 40 18 37 10 -2 18 -14 20 -32z"/>
</g>
</svg>
