<svg version="1.0" xmlns="http://www.w3.org/2000/svg"
 width="74.000000pt" height="117.000000pt" viewBox="0 0 74.000000 117.000000"
 preserveAspectRatio="xMidYMid meet">
<metadata>
Created by potrace 1.15, written by Peter Selinger 2001-2017
</metadata>
<g transform="translate(0.000000,117.000000) scale(0.100000,-0.100000)"
fill="#000000" stroke="none">
<path d="M125 969 c-28 -56 -55 -107 -60 -113 -25 -26 -47 -88 -36 -99 17 -17
81 52 126 138 22 41 44 74 50 72 5 -2 21 -25 36 -52 31 -56 81 -115 98 -115
26 0 21 32 -16 87 -21 32 -48 70 -61 84 -13 15 -31 42 -41 60 -10 19 -25 35
-32 37 -9 2 -32 -34 -64 -99z"/>
<path d="M455 940 c-11 -5 -37 -9 -57 -9 -47 -1 -68 -10 -68 -27 0 -9 11 -14
29 -14 29 0 29 0 36 -77 3 -43 8 -88 11 -100 5 -24 -1 -26 -47 -23 -30 1 -52
-21 -43 -45 5 -13 16 -16 45 -13 37 3 38 3 45 -37 4 -22 7 -141 6 -264 0 -235
6 -312 24 -318 28 -9 34 51 34 342 0 295 0 295 30 295 20 0 30 5 30 15 0 8 5
15 10 15 6 0 10 -4 10 -10 0 -5 11 -10 25 -10 23 0 24 -2 25 -77 0 -43 2 -91
5 -108 2 -16 7 -62 10 -101 7 -95 54 -326 68 -341 3 -3 10 -2 16 2 15 9 13 66
-4 145 -7 36 -12 67 -9 69 2 2 0 9 -5 15 -12 14 -34 274 -29 346 3 54 3 54 38
55 28 0 36 4 38 21 4 30 -20 47 -51 35 -35 -13 -39 -5 -45 90 -4 79 -4 79 33
79 45 0 73 23 55 45 -15 18 -150 21 -180 5 -13 -7 -21 -7 -25 0 -7 12 -32 12
-60 0z m92 -52 c30 -11 33 -16 34 -58 1 -25 3 -61 5 -82 4 -42 -6 -49 -78 -53
-44 -3 -48 -1 -48 20 0 12 -3 56 -6 98 -7 75 -7 75 22 80 16 2 31 5 33 6 3 0
20 -4 38 -11z"/>
<path d="M197 835 c-70 -15 -82 -24 -63 -50 12 -17 17 -18 40 -7 15 7 42 12
61 12 18 0 35 6 38 13 5 15 -3 47 -12 46 -3 -1 -32 -7 -64 -14z"/>
<path d="M230 713 c-57 -7 -76 -33 -79 -105 -1 -35 -3 -63 -4 -64 -1 -1 -27
-4 -57 -6 -39 -3 -55 -9 -55 -19 0 -10 17 -15 60 -19 51 -4 60 -8 61 -25 0
-11 4 -76 8 -145 4 -69 9 -146 11 -173 4 -58 -9 -67 -89 -67 -57 0 -70 -7 -56
-30 6 -10 23 -11 77 -5 37 4 108 10 158 14 81 5 90 8 90 26 0 18 -6 20 -51 17
-48 -3 -52 -1 -62 25 -6 15 -14 80 -17 143 -3 63 -8 137 -11 164 -7 56 1 66
57 66 25 0 39 5 43 16 9 24 1 29 -54 26 -50 -2 -50 -2 -50 47 0 52 9 64 53 75
19 4 27 12 25 23 -4 19 -11 21 -58 16z"/>
<path d="M251 315 c1 -160 7 -183 44 -169 15 6 16 19 11 119 -3 62 -9 128 -13
146 -6 32 -24 59 -38 59 -3 0 -5 -70 -4 -155z"/>
<path d="M89 424 c-1 -10 -1 -22 -1 -25 1 -4 2 -70 3 -148 1 -108 4 -141 14
-141 26 0 42 43 39 105 -6 132 -16 194 -35 211 -18 16 -19 16 -20 -2z"/>
</g>
</svg>
