<svg version="1.0" xmlns="http://www.w3.org/2000/svg"
 width="63.000000pt" height="81.000000pt" viewBox="0 0 63.000000 81.000000"
 preserveAspectRatio="xMidYMid meet">
<metadata>
Created by potrace 1.15, written by Peter Selinger 2001-2017
</metadata>
<g transform="translate(0.000000,81.000000) scale(0.100000,-0.100000)"
fill="#000000" stroke="none">
<path d="M176 613 c-3 -3 -6 -16 -6 -28 0 -13 -9 -26 -24 -33 -44 -20 -59 -55
-51 -115 10 -70 8 -148 -5 -181 -5 -15 -10 -65 -10 -111 0 -83 5 -95 41 -95 5
0 8 46 7 108 -2 81 1 115 13 142 16 35 16 35 31 -15 11 -38 13 -73 8 -150 -7
-101 -1 -130 23 -106 19 19 15 236 -6 284 -30 70 9 92 47 27 19 -31 21 -52 21
-173 0 -106 2 -137 12 -137 24 0 32 48 26 152 -4 74 -12 120 -29 162 -23 60
-23 60 2 83 24 22 25 28 19 86 -4 34 -9 65 -12 70 -7 12 -37 8 -61 -9 -21 -14
-22 -14 -22 10 0 25 -12 40 -24 29z m72 -85 c15 -15 15 -61 0 -76 -24 -24 -38
-13 -38 31 0 56 12 71 38 45z m-70 -83 c-2 -22 -9 -31 -25 -33 -17 -3 -23 3
-28 28 -6 25 -2 37 16 56 23 25 23 25 32 2 4 -12 7 -36 5 -53z"/>
<path d="M382 591 c-8 -5 -12 -17 -10 -27 3 -15 15 -20 63 -25 100 -9 125 -36
111 -115 -9 -45 -27 -51 -85 -30 -65 23 -101 21 -101 -4 0 -16 7 -20 38 -21
54 -1 86 -13 90 -31 4 -21 -56 -32 -93 -18 -36 14 -55 6 -55 -21 0 -21 3 -21
89 -17 110 5 111 4 102 -115 -7 -91 -11 -103 -36 -94 -11 5 -15 23 -15 76 0
63 -3 72 -23 86 -19 12 -30 13 -54 4 -31 -10 -31 -12 -38 -95 -5 -55 -4 -89 3
-96 19 -19 32 3 32 55 0 76 8 99 34 95 19 -3 21 -8 18 -71 -4 -76 12 -107 53
-107 39 0 58 59 59 175 0 55 -4 112 -8 127 -6 21 -3 33 13 54 24 30 27 88 8
144 -14 40 -52 63 -112 66 -22 1 -47 4 -55 8 -8 3 -21 2 -28 -3z"/>
<path d="M377 493 c-20 -19 -2 -31 54 -37 34 -4 64 -5 67 -2 3 3 -3 15 -13 26
-13 14 -31 20 -60 20 -23 0 -45 -3 -48 -7z"/>
</g>
</svg>
