<svg version="1.0" xmlns="http://www.w3.org/2000/svg"
 width="74.000000pt" height="130.000000pt" viewBox="0 0 74.000000 130.000000"
 preserveAspectRatio="xMidYMid meet">
<metadata>
Created by potrace 1.15, written by Peter Selinger 2001-2017
</metadata>
<g transform="translate(0.000000,130.000000) scale(0.100000,-0.100000)"
fill="#000000" stroke="none">
<path d="M472 1195 c-13 -16 -22 -42 -22 -61 0 -19 -5 -34 -10 -34 -6 0 -29
-12 -53 -27 -75 -48 -87 -54 -107 -43 -10 6 -30 10 -44 10 -25 0 -26 2 -26 59
0 40 -5 65 -15 75 -33 32 -54 -3 -59 -97 -2 -28 -7 -43 -17 -44 -75 -10 -89
-15 -89 -33 0 -18 27 -27 63 -21 37 6 64 -54 30 -65 -54 -18 -73 -28 -73 -40
0 -8 -5 -14 -10 -14 -8 0 -9 -167 -1 -232 2 -13 63 -68 76 -68 16 0 26 -25 19
-44 -8 -20 -50 -36 -94 -36 -29 0 -40 -4 -40 -15 0 -19 46 -38 77 -32 35 7 65
-43 58 -96 -11 -69 5 -267 21 -267 26 0 33 38 36 199 3 147 6 164 23 177 10 8
31 14 47 14 21 0 28 5 28 20 0 17 -7 20 -45 20 -42 0 -45 2 -45 27 0 17 10 35
31 52 19 16 37 47 49 81 14 44 19 51 25 35 3 -11 11 -28 16 -38 7 -12 7 -23 0
-30 -9 -12 -23 -311 -22 -460 1 -75 13 -109 36 -101 12 5 15 25 15 88 1 216
14 453 26 465 2 2 22 5 44 6 44 2 67 16 56 34 -4 6 -19 11 -34 11 -15 0 -34 4
-42 10 -21 13 2 52 41 69 34 15 62 6 107 -33 30 -27 28 -45 -8 -52 -21 -5 -30
-12 -30 -25 0 -16 8 -19 54 -19 52 0 54 -1 60 -31 3 -17 6 -55 6 -85 0 -29 4
-55 9 -58 4 -3 9 -27 10 -53 0 -27 5 -82 10 -123 5 -41 10 -111 11 -154 0 -44
3 -83 6 -88 9 -15 43 -8 48 10 7 21 0 135 -14 242 -5 41 -13 107 -16 145 -3
39 -10 74 -15 79 -13 14 -11 160 2 173 17 17 12 90 -8 125 -33 57 -123 84
-123 38 0 -10 9 -21 19 -25 34 -10 82 -62 75 -79 -9 -23 -22 -20 -52 12 -32
33 -53 43 -107 48 -43 4 -76 -8 -113 -41 -24 -20 -24 -20 -20 15 2 26 10 38
31 48 28 14 38 52 13 52 -30 0 -62 -19 -75 -44 -21 -39 -31 -32 -31 22 0 50
-7 58 -62 76 -11 3 -18 15 -18 31 0 26 1 26 73 23 64 -2 76 0 112 25 51 35 57
34 53 -5 -3 -30 -6 -33 -38 -34 -72 -1 -80 -3 -80 -24 0 -18 7 -20 60 -20 57
0 60 -1 60 -24 0 -13 7 -29 15 -36 20 -17 45 3 45 36 0 23 3 24 65 24 46 0 65
4 65 13 0 7 9 20 20 30 11 9 20 21 20 25 0 18 -36 48 -92 76 -51 27 -57 33
-63 70 -3 23 -12 52 -19 65 -13 23 -13 23 -34 -4z m113 -197 c31 -27 25 -36
-21 -29 -28 5 -38 11 -40 29 -5 29 27 30 61 0z m-349 -176 c5 -32 -11 -51 -28
-34 -6 6 -8 26 -4 48 8 42 24 35 32 -14z m-96 -2 c0 -36 -2 -40 -25 -40 -20 0
-25 5 -25 24 0 37 10 56 31 56 15 0 19 -7 19 -40z m94 -105 c7 -27 -8 -65 -24
-65 -12 0 -12 15 -4 59 8 37 20 40 28 6z m-98 3 c14 -22 13 -56 -2 -75 -14
-17 -14 -17 -29 1 -8 11 -15 35 -15 53 0 26 4 33 19 33 11 0 23 -5 27 -12z"/>
<path d="M382 563 c2 -13 14 -19 40 -21 36 -3 36 -4 40 -53 1 -27 2 -54 0 -59
-8 -22 -20 -8 -26 29 -6 38 -27 67 -39 54 -4 -3 -7 -30 -7 -58 0 -41 5 -56 23
-73 13 -12 31 -22 40 -22 29 0 19 -32 -23 -67 -41 -36 -60 -80 -60 -144 0 -42
21 -67 38 -46 6 7 14 37 18 67 7 59 29 105 38 79 3 -8 7 -47 9 -87 4 -80 16
-103 42 -82 14 11 16 29 12 102 -3 48 -1 88 3 88 13 0 40 -37 40 -55 0 -11 6
-43 12 -72 9 -39 17 -53 28 -51 11 2 16 18 17 53 4 64 -32 154 -66 171 -43 22
-45 40 -7 62 38 23 52 62 43 121 -7 40 -11 45 -32 38 -11 -5 -15 -21 -15 -62
0 -42 -3 -55 -15 -55 -17 0 -18 6 -15 78 3 71 -9 82 -82 82 -51 0 -59 -2 -56
-17z"/>
</g>
</svg>
