<svg version="1.0" xmlns="http://www.w3.org/2000/svg"
 width="68.000000pt" height="95.000000pt" viewBox="0 0 68.000000 95.000000"
 preserveAspectRatio="xMidYMid meet">
<metadata>
Created by potrace 1.15, written by Peter Selinger 2001-2017
</metadata>
<g transform="translate(0.000000,95.000000) scale(0.100000,-0.100000)"
fill="#000000" stroke="none">
<path d="M370 745 c-20 -31 -41 -54 -50 -52 -12 2 -16 -17 -20 -103 -3 -58 -9
-110 -13 -117 -16 -24 -107 5 -107 35 0 37 -59 107 -75 90 -3 -2 2 -36 10 -74
15 -72 39 -104 76 -104 23 0 23 -3 3 -45 -8 -18 -33 -46 -55 -61 -21 -14 -39
-31 -39 -37 0 -16 55 0 96 28 43 29 63 58 64 93 0 19 5 22 45 22 41 0 46 -3
59 -33 16 -39 64 -72 119 -82 30 -6 37 -4 37 8 0 9 -10 19 -22 22 -25 8 -78
53 -78 67 0 14 36 9 94 -13 31 -12 59 -20 61 -17 9 8 -62 77 -90 88 -14 5 -50
10 -79 10 -44 0 -55 3 -59 19 -6 26 11 41 45 41 61 0 108 41 108 94 0 31 -25
35 -40 6 -11 -21 -70 -50 -101 -50 -16 0 -19 8 -19 53 0 51 1 52 40 71 38 18
39 18 80 -3 86 -45 95 -15 16 53 -30 25 -58 46 -63 46 -4 -1 -24 -25 -43 -55z"/>
<path d="M132 727 c-23 -23 -42 -48 -42 -55 0 -21 35 -13 60 13 22 23 24 23
58 10 19 -8 41 -15 48 -15 24 0 15 29 -14 44 -16 8 -34 22 -41 30 -19 22 -22
21 -69 -27z"/>
<path d="M320 351 c0 -6 10 -31 22 -56 17 -34 19 -48 10 -57 -8 -8 -23 -2 -58
25 -51 40 -59 43 -70 26 -3 -6 15 -31 42 -56 49 -46 49 -46 22 -55 -29 -10
-57 1 -111 44 -42 34 -53 10 -16 -35 48 -59 125 -87 155 -57 8 8 20 -2 40 -32
16 -24 32 -51 36 -60 8 -20 38 -25 38 -7 0 6 -9 41 -20 78 -19 62 -20 70 -5
97 22 42 19 59 -16 99 -35 39 -69 62 -69 46z"/>
</g>
</svg>
