<svg version="1.0" xmlns="http://www.w3.org/2000/svg"
 width="61.000000pt" height="87.000000pt" viewBox="0 0 61.000000 87.000000"
 preserveAspectRatio="xMidYMid meet">
<metadata>
Created by potrace 1.15, written by Peter Selinger 2001-2017
</metadata>
<g transform="translate(0.000000,87.000000) scale(0.100000,-0.100000)"
fill="#000000" stroke="none">
<path d="M250 683 c0 -5 9 -19 20 -33 11 -14 20 -28 20 -32 0 -4 -26 -26 -57
-49 -81 -60 -103 -81 -103 -96 0 -26 38 -12 110 42 40 30 78 55 84 55 6 0 44
-32 84 -71 40 -39 76 -69 79 -65 10 9 -26 73 -67 121 -22 26 -40 47 -40 49 0
2 11 16 25 32 14 16 25 32 25 37 0 9 -51 -2 -64 -14 -16 -15 -41 -10 -64 11
-21 20 -52 27 -52 13z"/>
<path d="M274 471 c-70 -52 -178 -161 -168 -171 6 -6 19 -4 34 5 64 36 65 36
52 -47 -11 -71 -7 -88 18 -88 16 0 26 43 46 208 2 22 38 62 55 62 4 0 28 -21
53 -47 46 -48 46 -48 46 -163 0 -188 18 -240 46 -134 8 31 11 74 7 118 -6 66
-5 69 13 61 10 -4 29 -10 42 -12 17 -4 21 -2 16 11 -3 9 -10 16 -15 16 -5 0
-9 6 -9 13 0 14 -174 197 -188 197 -5 0 -27 -13 -48 -29z"/>
</g>
</svg>
