<svg version="1.0" xmlns="http://www.w3.org/2000/svg"
 width="51.000000pt" height="67.000000pt" viewBox="0 0 51.000000 67.000000"
 preserveAspectRatio="xMidYMid meet">
<metadata>
Created by potrace 1.15, written by Peter Selinger 2001-2017
</metadata>
<g transform="translate(0.000000,67.000000) scale(0.100000,-0.100000)"
fill="#000000" stroke="none">
<path d="M153 558 c-23 -11 -46 -69 -37 -93 3 -7 14 -15 25 -18 25 -7 42 24
33 59 -6 22 -4 25 12 22 15 -2 20 -13 22 -51 2 -33 -1 -47 -10 -48 -7 -1 -24
-2 -38 -2 -31 -2 -42 -37 -11 -37 12 0 21 -4 21 -10 0 -5 -5 -10 -11 -10 -15
0 -3 -67 17 -97 15 -23 44 -32 44 -13 0 24 20 7 40 -34 18 -38 20 -51 11 -83
-15 -52 -14 -93 2 -93 8 0 19 22 27 50 7 27 15 50 17 50 2 0 21 -11 41 -25 67
-45 73 -23 10 35 -43 38 -43 38 -29 75 7 20 11 39 8 41 -8 9 -37 -8 -37 -22 0
-8 -4 -14 -8 -14 -12 0 -40 134 -30 145 5 6 16 5 29 -3 16 -10 24 -10 35 -1
17 14 19 92 3 136 -9 28 -15 31 -67 37 -31 4 -65 9 -77 11 -11 2 -30 -1 -42
-7z m143 -64 c-3 -9 -6 -27 -6 -40 0 -15 -6 -24 -15 -24 -10 0 -15 10 -15 33
0 37 6 47 28 47 9 0 12 -6 8 -16z m-82 -120 c9 -3 16 -15 16 -25 0 -17 -3 -18
-20 -7 -11 7 -20 18 -20 25 0 15 2 15 24 7z"/>
<path d="M390 466 c0 -46 21 -78 36 -54 10 17 5 69 -8 86 -19 22 -28 12 -28
-32z"/>
</g>
</svg>
