<svg version="1.0" xmlns="http://www.w3.org/2000/svg"
 width="72.000000pt" height="115.000000pt" viewBox="0 0 72.000000 115.000000"
 preserveAspectRatio="xMidYMid meet">
<metadata>
Created by potrace 1.15, written by Peter Selinger 2001-2017
</metadata>
<g transform="translate(0.000000,115.000000) scale(0.100000,-0.100000)"
fill="#000000" stroke="none">
<path d="M100 1016 c0 -3 13 -33 29 -68 25 -53 30 -81 36 -178 4 -72 2 -134
-5 -165 -6 -27 -13 -77 -16 -109 -3 -32 -9 -67 -14 -77 -13 -24 -13 -236 0
-244 6 -3 10 -16 10 -28 0 -21 36 -54 47 -43 3 2 -2 28 -10 58 -32 114 -30
178 10 368 23 107 23 329 -1 395 -23 68 -43 95 -66 95 -11 0 -20 -2 -20 -4z"/>
<path d="M335 1000 c-3 -5 -1 -56 5 -112 19 -184 18 -627 -2 -691 -22 -74 -38
-139 -38 -157 0 -25 35 -27 45 -2 35 88 57 321 53 574 -2 91 0 169 3 172 10
10 190 20 188 10 -1 -5 -1 -13 0 -19 0 -5 2 -98 4 -205 4 -276 56 -555 103
-555 13 0 18 6 17 20 -6 45 -16 91 -23 100 -9 13 -26 99 -39 195 -25 178 -23
355 5 618 5 40 3 52 -8 52 -19 0 -46 -59 -47 -103 0 -21 -3 -42 -6 -47 -4 -6
-49 -10 -101 -10 -94 0 -94 0 -94 39 0 22 -4 43 -10 46 -5 3 -10 19 -10 34 0
38 -30 66 -45 41z"/>
<path d="M200 992 c0 -4 4 -12 9 -17 21 -23 40 -109 42 -188 1 -47 5 -91 10
-98 25 -42 39 67 24 190 -6 52 -13 71 -35 93 -28 27 -50 36 -50 20z"/>
<path d="M30 935 c0 -3 11 -26 25 -51 21 -38 25 -57 25 -134 0 -71 3 -90 14
-90 21 0 38 92 30 163 -5 39 -14 67 -28 82 -20 22 -66 43 -66 30z"/>
<path d="M520 658 c0 -5 -12 -7 -27 -4 -47 10 -64 -27 -70 -148 -6 -102 -6
-102 26 -129 38 -31 57 -33 91 -10 38 26 40 31 40 126 0 99 -16 164 -42 170
-10 3 -18 1 -18 -5z m14 -74 c13 -33 6 -151 -9 -164 -30 -25 -50 -8 -53 45 -2
28 -1 69 3 93 5 36 10 42 30 42 12 0 26 -7 29 -16z"/>
<path d="M63 553 c-7 -15 -13 -35 -13 -44 0 -10 -5 -21 -11 -25 -19 -12 -4
-241 19 -293 16 -35 21 -39 31 -27 10 11 9 26 -3 67 -21 68 -21 234 -1 269 18
31 19 80 3 80 -7 0 -19 -12 -25 -27z"/>
<path d="M232 558 c-42 -81 -41 -305 1 -356 16 -20 27 16 15 48 -13 33 -11
221 2 234 12 12 14 96 2 96 -5 0 -14 -10 -20 -22z"/>
</g>
</svg>
