<svg version="1.0" xmlns="http://www.w3.org/2000/svg"
 width="68.000000pt" height="122.000000pt" viewBox="0 0 68.000000 122.000000"
 preserveAspectRatio="xMidYMid meet">
<metadata>
Created by potrace 1.15, written by Peter Selinger 2001-2017
</metadata>
<g transform="translate(0.000000,122.000000) scale(0.100000,-0.100000)"
fill="#000000" stroke="none">
<path d="M174 1092 c-14 -9 -28 -67 -25 -105 1 -16 13 -45 26 -65 14 -20 25
-46 25 -57 0 -16 -2 -17 -10 -5 -7 12 -13 12 -27 4 -16 -10 -18 -25 -14 -135
1 -68 5 -144 6 -169 5 -55 -13 -168 -28 -177 -7 -4 -8 68 -5 235 5 196 3 243
-8 252 -7 7 -17 9 -22 6 -11 -6 -24 -132 -24 -223 -1 -60 -9 -80 -21 -49 -9
23 -7 185 3 209 5 12 11 34 14 49 4 15 17 38 29 50 31 31 38 60 25 106 -10 37
-44 79 -55 68 -3 -3 -5 -35 -4 -71 2 -58 -1 -70 -28 -109 -31 -44 -31 -46 -31
-175 0 -129 6 -158 41 -211 12 -18 18 -59 23 -150 9 -179 20 -268 32 -280 6
-6 19 -8 29 -4 16 6 17 16 12 83 -4 42 -9 90 -12 106 -5 25 -2 33 23 49 29 19
52 64 52 103 0 11 7 26 15 33 29 24 43 75 53 198 11 145 -1 228 -40 270 -34
37 -40 58 -28 102 14 53 2 81 -26 62z m44 -428 c0 -50 -4 -98 -9 -105 -5 -8
-8 45 -8 131 1 103 4 133 9 105 5 -22 8 -81 8 -131z"/>
<path d="M504 1083 c-26 -77 -50 -133 -58 -130 -10 3 -11 4 -47 82 -14 29 -32
51 -43 53 -17 4 -18 -1 -14 -47 5 -51 5 -51 -26 -51 -33 0 -56 -15 -56 -37 0
-9 17 -13 59 -13 33 0 63 -5 66 -10 11 -18 -15 -40 -46 -40 -35 0 -49 -28 -49
-94 0 -69 23 -86 126 -99 63 -8 94 -7 118 1 18 7 41 12 52 12 36 0 54 23 63
79 8 49 6 57 -13 76 -11 12 -43 28 -71 35 -75 18 -75 18 -69 35 5 12 23 15 84
15 83 0 107 12 74 37 -14 11 -35 13 -76 9 -32 -3 -58 -2 -58 2 0 4 9 18 20 32
24 30 25 56 4 64 -25 10 -34 7 -40 -11z m-39 -247 c7 -7 17 -30 20 -50 6 -29
4 -36 -8 -36 -16 0 -20 9 -32 68 -7 35 -1 40 20 18z m110 -28 c0 -42 -15 -52
-30 -19 -5 11 -13 21 -17 21 -5 0 -8 9 -8 21 0 16 5 20 28 17 24 -3 27 -7 27
-40z m-190 -4 c19 -45 11 -59 -21 -38 -31 21 -33 74 -2 74 4 0 15 -16 23 -36z"/>
<path d="M416 665 c-11 -8 -31 -15 -45 -15 -61 -1 -88 -57 -91 -190 -4 -148
-2 -170 14 -170 23 0 29 19 27 78 -2 44 1 54 12 49 8 -3 27 7 43 24 15 16 31
29 34 29 3 0 12 -16 20 -35 11 -28 18 -34 33 -29 14 4 4 -14 -32 -57 -61 -76
-91 -136 -91 -184 0 -28 4 -35 19 -35 16 0 22 11 31 54 6 29 20 63 30 74 11
12 20 26 20 31 0 6 32 42 70 82 75 77 83 99 53 147 -32 49 -55 63 -95 58 -37
-4 -87 -45 -130 -107 -17 -24 -17 -24 -17 6 1 40 22 97 40 105 8 4 24 12 36
18 13 7 52 12 88 12 58 0 69 -3 90 -26 23 -25 25 -35 25 -124 0 -117 -10 -150
-58 -187 -63 -47 -93 -77 -107 -103 -16 -31 -24 -162 -10 -166 22 -8 38 17 45
69 9 64 46 127 86 146 16 7 39 18 51 24 33 15 45 59 50 185 5 90 2 121 -11
156 -16 41 -19 44 -74 55 -31 7 -72 19 -90 27 -40 17 -42 17 -66 -1z m92 -157
c19 -19 14 -53 -10 -74 -19 -17 -21 -17 -15 -1 4 12 -2 25 -18 39 -14 12 -25
28 -25 35 0 16 52 17 68 1z"/>
</g>
</svg>
