<svg version="1.0" xmlns="http://www.w3.org/2000/svg"
 width="69.000000pt" height="92.000000pt" viewBox="0 0 69.000000 92.000000"
 preserveAspectRatio="xMidYMid meet">
<metadata>
Created by potrace 1.15, written by Peter Selinger 2001-2017
</metadata>
<g transform="translate(0.000000,92.000000) scale(0.100000,-0.100000)"
fill="#000000" stroke="none">
<path d="M160 695 c0 -8 20 -23 44 -34 45 -19 75 -56 59 -72 -4 -4 -37 -9 -73
-11 -53 -2 -65 -6 -68 -21 -4 -17 2 -18 78 -11 82 7 82 7 66 -24 -10 -20 -30
-36 -61 -47 -43 -17 -62 -45 -30 -45 39 0 112 55 140 105 9 15 25 18 100 19
89 1 89 1 96 -31 6 -31 37 -88 44 -81 2 1 -2 40 -8 86 -9 73 -9 87 6 112 21
36 21 40 -1 40 -12 0 -26 -15 -38 -39 -22 -46 -34 -51 -125 -51 -65 0 -67 1
-79 30 -19 45 -78 90 -117 90 -22 0 -33 -5 -33 -15z"/>
<path d="M306 502 c-3 -5 8 -19 24 -31 44 -32 38 -57 -24 -116 -30 -28 -60
-63 -65 -78 -17 -43 -13 -104 9 -146 28 -55 130 -127 130 -92 0 6 -10 17 -21
25 -28 19 -66 87 -75 131 -7 37 9 97 31 115 11 9 25 3 65 -24 51 -35 90 -46
90 -26 0 5 -14 17 -31 26 -17 9 -42 28 -54 42 -23 27 -23 27 1 55 13 16 24 33
24 39 0 24 -36 68 -63 78 -36 12 -35 12 -41 2z"/>
</g>
</svg>
