<svg version="1.0" xmlns="http://www.w3.org/2000/svg"
 width="51.000000pt" height="109.000000pt" viewBox="0 0 51.000000 109.000000"
 preserveAspectRatio="xMidYMid meet">
<metadata>
Created by potrace 1.15, written by Peter Selinger 2001-2017
</metadata>
<g transform="translate(0.000000,109.000000) scale(0.100000,-0.100000)"
fill="#000000" stroke="none">
<path d="M200 1016 c0 -15 20 -34 53 -51 24 -12 44 -41 35 -50 -4 -4 -32 7
-63 24 -31 17 -61 29 -66 26 -26 -17 9 -62 83 -107 15 -10 28 -21 28 -25 0 -5
-17 -26 -38 -48 -21 -22 -49 -56 -62 -75 -32 -47 -46 -60 -54 -53 -3 4 -6 -6
-6 -20 0 -15 -4 -27 -10 -27 -5 0 -10 -9 -10 -20 0 -11 4 -20 8 -20 9 0 51 44
88 92 25 32 26 31 69 -53 29 -57 29 -57 0 -95 -16 -22 -35 -45 -42 -52 -7 -8
-18 -22 -24 -33 -8 -16 -13 -18 -25 -8 -10 8 -14 8 -14 0 0 -6 5 -11 10 -11 6
0 8 -10 4 -24 -8 -33 10 -40 34 -13 106 120 97 123 98 -40 1 -161 12 -273 26
-273 5 0 9 37 8 82 -1 90 17 335 26 349 14 23 29 159 22 204 -4 27 -5 51 -4
53 2 1 24 -11 49 -28 62 -42 79 -41 55 3 -13 25 -108 117 -120 117 -4 0 -8 14
-8 30 0 51 -36 114 -79 138 -44 25 -71 28 -71 8z m113 -286 c5 -19 11 -50 14
-69 8 -46 -13 -37 -50 22 -24 40 -26 48 -15 67 18 29 41 21 51 -20z"/>
</g>
</svg>
