<svg version="1.0" xmlns="http://www.w3.org/2000/svg"
 width="70.000000pt" height="113.000000pt" viewBox="0 0 70.000000 113.000000"
 preserveAspectRatio="xMidYMid meet">
<metadata>
Created by potrace 1.15, written by Peter Selinger 2001-2017
</metadata>
<g transform="translate(0.000000,113.000000) scale(0.100000,-0.100000)"
fill="#000000" stroke="none">
<path d="M153 1086 c-8 -4 -30 -6 -47 -3 -46 7 -65 -6 -42 -29 17 -17 52 -17
206 0 39 4 40 5 40 26 0 19 -5 21 -70 18 -39 -2 -78 -7 -87 -12z"/>
<path d="M440 1070 c-8 -5 -25 -10 -37 -10 -14 0 -27 -10 -35 -27 -15 -31 -14
-31 -196 -36 -158 -4 -185 -14 -126 -43 35 -17 39 -24 52 -82 9 -42 20 -65 33
-72 16 -9 19 -22 19 -85 0 -73 -1 -75 -24 -75 -32 0 -36 8 -43 76 -5 43 -9 54
-22 52 -13 -3 -15 -15 -13 -62 3 -51 8 -63 33 -87 17 -15 39 -31 50 -34 17 -6
19 -16 19 -86 0 -79 0 -79 -30 -79 -29 0 -30 2 -30 44 0 40 -11 56 -36 56 -2
0 -4 -60 -4 -132 0 -135 14 -206 42 -219 7 -3 23 -11 35 -17 33 -17 110 0 142
32 26 26 26 27 24 168 -3 137 -7 157 -35 158 -5 0 -8 -20 -8 -45 0 -42 -2 -45
-26 -45 -27 0 -27 0 -20 77 4 57 10 80 23 87 9 5 31 25 49 44 46 51 52 152 9
152 -10 0 -14 -11 -14 -32 0 -18 -2 -49 -4 -68 -4 -31 -8 -35 -36 -38 -31 -3
-31 -3 -31 72 0 74 0 74 36 96 40 25 54 54 54 111 0 38 2 40 28 37 24 -3 27
-7 30 -48 4 -78 23 -133 56 -162 28 -24 39 -27 104 -28 102 0 156 26 171 83
13 50 15 71 13 158 -2 57 -6 70 -28 93 -25 24 -33 26 -118 26 -50 0 -98 -5
-106 -10z m50 -40 c0 -5 -5 -10 -11 -10 -13 0 -8 -42 6 -47 6 -2 20 3 30 11
16 12 18 17 8 27 -21 21 -15 30 19 27 42 -4 46 -25 12 -66 -25 -30 -64 -44
-64 -22 0 6 -6 10 -14 10 -8 0 -18 9 -21 20 -3 11 -11 20 -16 20 -18 0 -9 21
14 30 30 12 37 12 37 0z m148 -66 c12 -95 13 -144 2 -144 -14 0 -90 70 -90 83
0 17 62 88 74 84 6 -2 12 -12 14 -23z m-185 -19 c32 -31 34 -54 6 -86 -11 -13
-24 -30 -29 -38 -15 -28 -40 -4 -40 39 0 38 1 40 20 30 11 -6 25 -8 31 -5 14
10 -9 35 -32 35 -12 0 -19 7 -19 18 0 40 24 42 63 7z m-223 -35 c0 -45 -3 -50
-25 -56 -14 -3 -32 -4 -40 0 -20 7 -38 55 -30 83 5 20 12 23 50 23 45 0 45 0
45 -50z m340 -81 c43 -39 44 -42 25 -55 -10 -8 -29 -14 -42 -14 -19 0 -22 4
-18 23 7 28 -8 52 -29 44 -18 -7 -21 -32 -6 -42 6 -3 10 -10 10 -16 0 -11 -57
-12 -64 0 -5 8 63 101 74 101 3 0 25 -18 50 -41z m-320 -515 c0 -79 -13 -110
-51 -118 -31 -6 -88 2 -90 13 0 3 -3 15 -5 26 -10 45 -16 116 -11 129 4 11 25
15 81 14 76 0 76 0 76 -64z"/>
<path d="M584 925 c-7 -18 3 -35 21 -35 15 0 28 27 19 41 -8 14 -34 11 -40 -6z"/>
<path d="M500 641 c-101 -11 -150 -76 -150 -200 0 -39 5 -73 10 -76 6 -3 10
-14 10 -23 1 -27 27 -55 46 -48 13 5 14 9 4 21 -7 8 -10 15 -6 15 3 0 1 12 -6
28 -16 40 -26 112 -16 118 9 6 38 -19 38 -34 0 -5 9 -17 20 -27 11 -10 20 -26
20 -37 0 -11 7 -18 20 -18 40 0 11 70 -62 146 -27 29 -28 32 -13 48 9 9 21 16
27 16 28 0 116 -117 116 -154 0 -12 24 -26 35 -19 10 6 1 57 -16 93 -7 14 -27
40 -44 58 -41 41 -41 52 -2 52 54 0 87 -25 107 -81 15 -44 15 -64 1 -127 -11
-44 -17 -52 -70 -85 -33 -21 -59 -44 -59 -52 0 -8 -4 -15 -8 -15 -15 0 -33
-88 -30 -151 2 -49 7 -64 18 -64 11 0 17 17 22 70 8 91 19 117 64 152 64 49
119 117 110 138 -3 8 -1 17 3 19 11 7 3 103 -12 141 -6 17 -21 40 -33 51 -19
20 -79 56 -86 53 -2 -1 -28 -5 -58 -8z"/>
</g>
</svg>
