<svg version="1.0" xmlns="http://www.w3.org/2000/svg"
 width="49.000000pt" height="85.000000pt" viewBox="0 0 49.000000 85.000000"
 preserveAspectRatio="xMidYMid meet">
<metadata>
Created by potrace 1.15, written by Peter Selinger 2001-2017
</metadata>
<g transform="translate(0.000000,85.000000) scale(0.100000,-0.100000)"
fill="#000000" stroke="none">
<path d="M168 743 c-10 -2 -18 -8 -18 -13 0 -13 29 -20 85 -20 51 0 53 -1 70
-37 48 -106 68 -143 76 -143 19 0 12 27 -32 127 -11 24 -19 48 -19 54 0 26
-30 39 -87 38 -32 -1 -66 -3 -75 -6z"/>
<path d="M130 675 c0 -8 -4 -23 -9 -33 -26 -52 -33 -71 -26 -81 9 -16 21 -6
39 31 18 35 21 98 6 98 -5 0 -10 -7 -10 -15z"/>
<path d="M216 654 c-3 -9 -6 -53 -6 -99 0 -47 -5 -87 -10 -90 -6 -4 -8 -21 -4
-41 5 -27 3 -34 -10 -34 -21 0 -21 -18 0 -41 12 -13 17 -45 21 -121 5 -119 9
-136 25 -120 6 6 11 31 11 55 -2 101 38 89 56 -17 7 -42 17 -76 22 -76 18 0
10 129 -11 172 -18 37 -18 43 -5 58 25 28 17 54 -30 104 -40 43 -44 52 -40 85
14 118 15 181 1 181 -8 0 -17 -7 -20 -16z m54 -289 c18 -19 21 -28 12 -37 -15
-15 -52 16 -52 44 0 25 12 23 40 -7z"/>
<path d="M162 560 c-10 -39 -3 -58 18 -45 12 8 13 85 1 85 -5 0 -13 -18 -19
-40z"/>
<path d="M280 551 c0 -28 -5 -43 -17 -50 -16 -9 -16 -10 3 -11 15 0 26 -12 39
-40 10 -22 24 -40 32 -40 18 0 16 20 -7 58 -11 18 -20 46 -20 63 0 17 -7 37
-15 45 -13 14 -15 11 -15 -25z"/>
<path d="M140 435 c0 -39 16 -47 29 -12 10 27 4 47 -15 47 -9 0 -14 -12 -14
-35z"/>
</g>
</svg>
