<svg version="1.0" xmlns="http://www.w3.org/2000/svg"
 width="75.000000pt" height="103.000000pt" viewBox="0 0 75.000000 103.000000"
 preserveAspectRatio="xMidYMid meet">
<metadata>
Created by potrace 1.15, written by Peter Selinger 2001-2017
</metadata>
<g transform="translate(0.000000,103.000000) scale(0.100000,-0.100000)"
fill="#000000" stroke="none">
<path d="M149 808 c-3 -33 6 -55 50 -116 27 -38 53 -88 60 -114 24 -100 7
-105 -39 -12 -19 36 -50 79 -69 95 -36 30 -36 30 -39 1 -3 -27 52 -146 84
-183 8 -8 14 -19 14 -23 0 -4 14 -21 30 -38 27 -26 30 -36 30 -89 0 -64 -11
-75 -29 -31 -13 30 -87 112 -102 112 -21 0 -6 -42 42 -115 28 -43 57 -84 65
-92 8 -8 16 -24 18 -36 20 -102 29 -137 35 -137 14 0 19 138 14 380 -5 235 -5
235 -34 293 -16 32 -39 69 -52 81 -26 28 -76 43 -78 24z"/>
<path d="M390 801 c0 -18 72 -165 91 -185 5 -6 9 -18 9 -29 0 -16 -5 -14 -37
12 -21 17 -43 31 -50 31 -15 0 -18 -41 -4 -55 5 -6 28 -47 50 -92 30 -59 43
-98 47 -140 2 -32 7 -75 9 -95 3 -21 3 -38 0 -38 -2 0 -25 21 -49 46 -25 25
-51 44 -58 41 -18 -6 -11 -55 13 -80 10 -11 19 -24 19 -29 0 -8 4 -14 74 -97
25 -30 46 -61 46 -68 0 -7 4 -13 9 -13 6 0 13 21 16 47 10 71 10 82 2 153 -10
90 -19 211 -18 235 3 89 -1 141 -13 168 -7 18 -20 48 -27 67 -19 51 -54 100
-86 121 -35 24 -43 24 -43 0z"/>
<path d="M346 535 c-9 -24 6 -144 20 -163 23 -30 36 4 28 77 -8 82 -32 126
-48 86z"/>
<path d="M620 238 c-10 -90 -11 -146 -1 -152 30 -19 71 28 71 81 0 24 -40 73
-60 73 -5 0 -10 -1 -10 -2z"/>
<path d="M141 183 c-16 -56 -14 -110 4 -117 29 -11 46 68 29 132 -9 33 -22 27
-33 -15z"/>
</g>
</svg>
