<svg version="1.0" xmlns="http://www.w3.org/2000/svg"
 width="87.000000pt" height="141.000000pt" viewBox="0 0 87.000000 141.000000"
 preserveAspectRatio="xMidYMid meet">
<metadata>
Created by potrace 1.15, written by Peter Selinger 2001-2017
</metadata>
<g transform="translate(0.000000,141.000000) scale(0.100000,-0.100000)"
fill="#000000" stroke="none">
<path d="M220 1333 c0 -10 49 -53 119 -105 33 -25 47 -44 56 -78 19 -67 35
-182 42 -301 7 -122 10 -119 -99 -119 -87 0 -106 -13 -71 -48 13 -13 35 -17
97 -17 79 0 81 -1 84 -25 8 -51 42 -63 42 -14 0 21 5 24 36 24 90 0 147 -76
142 -188 -3 -65 -4 -67 -31 -70 -16 -2 -34 2 -42 8 -8 7 -15 7 -19 1 -3 -5 0
-11 6 -13 9 -3 13 -34 14 -104 0 -111 7 -137 38 -169 105 -105 201 -24 211
175 5 100 5 99 -76 103 -31 2 -34 5 -37 37 -6 84 -22 189 -32 212 -6 13 -29
35 -51 48 -21 14 -39 28 -39 32 0 5 -13 8 -29 8 -16 0 -43 3 -60 6 -31 7 -31
7 -31 142 0 195 -23 323 -67 366 -46 46 -203 115 -203 89z m554 -1077 c-2 -67
-16 -99 -51 -115 -22 -10 -28 -8 -45 11 -15 17 -18 32 -14 58 3 19 6 49 6 67
0 30 2 32 43 36 62 5 62 5 61 -57z"/>
<path d="M150 1149 c0 -4 10 -13 23 -22 12 -8 31 -23 42 -33 54 -49 135 -72
135 -38 0 22 -54 74 -77 74 -11 0 -23 4 -28 9 -12 11 -95 19 -95 10z"/>
<path d="M170 982 c0 -29 114 -92 167 -92 30 0 33 3 33 29 0 30 1 30 -90 57
-51 15 -110 18 -110 6z"/>
<path d="M205 315 c7 -107 7 -107 -21 -103 -29 3 -29 4 -30 72 -1 60 -4 71
-25 87 -24 18 -24 18 -31 -9 -15 -53 -13 -158 3 -174 21 -22 55 -38 77 -38 16
0 21 -9 27 -46 9 -64 14 -74 36 -74 20 0 27 19 31 84 3 40 8 45 64 67 27 11
31 19 42 73 6 34 9 70 7 81 -15 77 -14 75 -45 75 -31 0 -31 0 -25 -56 5 -56
-17 -130 -35 -119 -4 3 -10 31 -12 62 -5 68 -26 116 -52 121 -17 4 -18 -2 -11
-103z"/>
</g>
</svg>
