<svg version="1.0" xmlns="http://www.w3.org/2000/svg"
 width="91.000000pt" height="167.000000pt" viewBox="0 0 91.000000 167.000000"
 preserveAspectRatio="xMidYMid meet">
<metadata>
Created by potrace 1.15, written by Peter Selinger 2001-2017
</metadata>
<g transform="translate(0.000000,167.000000) scale(0.100000,-0.100000)"
fill="#000000" stroke="none">
<path d="M610 1506 c0 -24 -7 -60 -15 -80 -15 -36 -15 -36 -48 -5 -36 34 -106
74 -115 65 -3 -4 10 -23 30 -44 75 -78 88 -96 88 -119 0 -13 5 -32 12 -43 31
-49 -34 -25 -104 38 -41 37 -41 37 -35 5 10 -49 48 -100 89 -120 26 -12 38
-25 38 -39 0 -28 -17 -41 -65 -49 -84 -14 -190 -36 -194 -41 -15 -15 29 -26
108 -28 50 0 91 -4 91 -9 0 -4 -4 -15 -9 -25 -5 -9 -14 -29 -20 -44 -6 -16
-16 -40 -23 -54 -7 -14 -11 -46 -10 -71 1 -37 8 -51 33 -76 30 -28 35 -29 90
-24 60 5 169 44 169 59 0 17 -28 19 -71 4 -80 -28 -159 -14 -159 28 0 23 22
92 33 102 4 4 7 19 7 34 0 14 12 40 28 58 24 29 37 33 127 49 103 17 145 35
145 60 0 12 -15 13 -87 8 -49 -4 -93 -8 -100 -10 -19 -6 -23 194 -4 225 10 16
15 47 14 84 -2 91 -43 151 -43 62z"/>
<path d="M670 955 c25 -27 25 -27 -14 -60 -49 -41 -33 -53 29 -21 46 25 46 25
86 -11 37 -34 39 -38 39 -97 0 -67 -16 -123 -46 -162 -19 -25 -19 -25 -55 0
-69 48 -110 66 -146 66 -36 0 -36 0 -15 -23 29 -31 28 -42 -8 -64 -41 -24 -38
-33 12 -33 28 0 49 7 63 20 22 21 22 21 58 -2 20 -13 36 -25 37 -28 0 -3 -21
-16 -47 -30 -42 -22 -59 -25 -160 -25 -62 0 -113 -3 -113 -7 0 -5 8 -8 18 -8
10 0 23 -5 30 -12 8 -8 47 -12 105 -13 77 0 99 4 134 22 23 13 47 23 52 23 19
0 22 -39 10 -125 -12 -91 -6 -138 28 -213 21 -47 97 -153 88 -122 -5 14 -9 52
-10 85 -2 70 -14 183 -22 205 -4 8 -8 46 -10 84 -2 37 -8 76 -13 86 -13 24
-13 67 0 75 6 3 10 15 10 26 0 10 4 19 9 19 5 0 11 10 14 23 3 12 13 42 22 66
14 38 14 53 4 95 -12 55 -51 116 -74 116 -7 0 -15 3 -17 8 -9 19 -57 51 -88
57 -35 7 -35 7 -10 -20z"/>
<path d="M37 840 c-29 -100 -36 -219 -16 -274 14 -38 70 -83 121 -97 55 -14
123 0 124 26 1 11 8 34 16 50 22 42 29 84 30 160 0 98 -37 172 -44 88 -3 -38
-3 -38 -100 -41 -98 -3 -98 -3 -98 25 -1 35 -27 85 -33 63z m214 -205 c-5 -71
-33 -104 -89 -104 -58 -1 -87 28 -96 92 -5 45 -4 47 19 47 13 0 27 5 30 10 4
7 35 10 73 8 67 -3 67 -3 63 -53z"/>
</g>
</svg>
