<svg version="1.0" xmlns="http://www.w3.org/2000/svg"
 width="97.000000pt" height="217.000000pt" viewBox="0 0 97.000000 217.000000"
 preserveAspectRatio="xMidYMid meet">
<metadata>
Created by potrace 1.15, written by Peter Selinger 2001-2017
</metadata>
<g transform="translate(0.000000,217.000000) scale(0.100000,-0.100000)"
fill="#000000" stroke="none">
<path d="M150 2088 c0 -5 17 -16 38 -26 20 -9 43 -23 50 -29 7 -7 17 -13 21
-13 5 0 30 -21 56 -47 68 -68 96 -135 97 -237 2 -165 0 -180 -26 -192 -34 -16
-62 11 -71 68 -9 64 -46 130 -62 114 -4 -3 -6 -43 -4 -87 1 -72 5 -86 32 -125
16 -24 36 -44 42 -44 29 0 67 -26 72 -50 5 -28 -10 -266 -20 -317 -6 -26 -4
-33 9 -33 8 0 22 10 30 23 23 36 74 363 77 497 2 70 17 120 35 120 16 0 51 18
71 37 7 6 22 15 34 18 19 6 20 14 18 111 -1 57 -5 106 -9 109 -8 5 -22 -23
-40 -86 -10 -33 -23 -52 -49 -69 -35 -23 -35 -23 -53 0 -10 12 -18 31 -18 42
0 32 -38 95 -72 119 -18 13 -39 29 -46 36 -37 36 -212 86 -212 61z"/>
<path d="M590 1387 c0 -2 9 -21 19 -43 23 -46 34 -154 21 -189 -10 -27 -37
-32 -71 -14 -43 23 -50 5 -14 -36 19 -22 35 -43 35 -47 0 -4 -19 -20 -41 -35
-34 -22 -57 -28 -123 -33 -81 -5 -81 -5 -41 -30 29 -18 58 -26 107 -28 41 -3
68 0 68 6 0 5 13 12 29 15 16 3 36 14 45 23 9 9 18 15 19 13 1 -2 7 -14 14
-25 8 -15 12 -91 11 -245 0 -170 4 -238 15 -280 15 -54 43 -118 56 -129 4 -3
26 -45 51 -95 50 -103 96 -175 111 -175 11 0 6 63 -12 140 -5 25 -14 63 -19
85 -11 52 -44 177 -64 240 -8 28 -23 104 -32 170 -30 209 -33 229 -42 278 -5
26 -19 62 -32 79 -20 27 -21 35 -11 63 26 73 0 199 -56 265 -21 25 -43 39 -43
27z"/>
<path d="M29 1250 c-49 -179 19 -340 144 -340 32 0 41 6 84 61 18 23 42 158
38 217 -3 49 -21 82 -43 82 -6 0 -14 -21 -18 -47 -9 -48 -9 -48 -64 -51 -66
-4 -100 12 -100 47 -1 14 -7 37 -14 51 -14 24 -14 24 -27 -20z m192 -157 c8
-8 8 -20 -1 -47 -22 -69 -93 -86 -116 -29 -30 74 -36 92 -31 100 7 12 133 -9
148 -24z"/>
</g>
</svg>
