<svg version="1.0" xmlns="http://www.w3.org/2000/svg"
 width="66.000000pt" height="115.000000pt" viewBox="0 0 66.000000 115.000000"
 preserveAspectRatio="xMidYMid meet">
<metadata>
Created by potrace 1.15, written by Peter Selinger 2001-2017
</metadata>
<g transform="translate(0.000000,115.000000) scale(0.100000,-0.100000)"
fill="#000000" stroke="none">
<path d="M147 1045 c-83 -18 -81 -25 6 -25 42 0 87 -5 101 -12 24 -10 44 -44
33 -55 -3 -2 -43 -7 -89 -9 -46 -3 -96 -10 -113 -17 -30 -12 -30 -12 5 -17 19
-3 72 -2 117 4 46 5 85 7 88 5 3 -3 0 -17 -7 -30 -13 -27 -123 -78 -174 -80
-25 -1 -24 -2 11 -9 48 -10 146 -2 166 14 33 25 49 66 49 124 0 52 -3 61 -30
87 -36 34 -75 39 -163 20z"/>
<path d="M426 968 c-6 -43 -39 -118 -69 -156 -5 -7 -8 -15 -5 -17 2 -3 25 15
51 39 36 36 47 53 52 90 8 54 27 64 82 44 48 -16 53 -24 47 -68 -10 -76 -11
-77 -65 -91 -31 -8 -66 -26 -87 -46 -35 -32 -35 -33 -22 -72 17 -54 67 -76
148 -68 32 4 66 9 75 13 31 11 7 24 -46 24 -29 0 -69 5 -89 11 -32 8 -38 14
-38 38 0 38 32 65 82 67 66 4 81 27 82 128 1 47 -3 89 -9 94 -5 6 -49 12 -96
14 -87 4 -87 4 -93 -44z"/>
<path d="M107 729 c-45 -26 -48 -54 -49 -362 0 -169 -5 -297 -10 -304 -6 -7
-6 -18 0 -28 7 -13 12 -3 20 42 11 56 24 180 26 255 1 20 4 39 6 42 3 2 28 0
55 -5 28 -5 75 -9 105 -7 55 3 55 3 57 -82 2 -47 7 -107 13 -133 5 -26 10 -65
10 -87 0 -21 4 -41 9 -45 6 -3 10 117 10 316 -1 339 -5 376 -48 399 -25 13
-181 13 -204 -1z m169 -41 c25 -12 26 -15 20 -67 -4 -30 -8 -56 -9 -57 -1 -1
-44 -4 -94 -6 -93 -5 -93 -5 -93 38 0 43 14 81 35 96 16 12 112 9 141 -4z m44
-185 c0 -7 -4 -13 -10 -13 -5 0 -9 -15 -8 -33 2 -51 -7 -59 -60 -53 -26 2 -66
5 -89 5 -50 1 -65 21 -57 73 6 34 6 34 115 34 80 -1 109 -4 109 -13z"/>
<path d="M413 543 c-31 -12 -8 -23 50 -23 37 -1 76 -8 97 -18 31 -15 35 -22
38 -61 5 -68 -3 -79 -36 -49 -38 36 -65 48 -106 48 -53 0 -51 -15 4 -30 28 -8
50 -17 50 -20 0 -4 9 -17 20 -30 25 -28 26 -49 3 -56 -10 -4 -32 -12 -48 -19
-17 -8 -44 -19 -60 -27 -30 -12 -30 -12 13 -16 24 -2 49 1 55 6 7 5 26 13 44
17 38 8 39 4 47 -115 3 -41 9 -93 13 -115 7 -40 7 -40 19 18 6 32 10 100 7
153 -3 74 0 99 12 117 10 14 15 45 15 90 0 64 -2 71 -31 98 -25 23 -41 29 -78
30 -25 0 -62 2 -81 4 -19 2 -41 1 -47 -2z"/>
</g>
</svg>
