<svg version="1.0" xmlns="http://www.w3.org/2000/svg"
 width="59.000000pt" height="89.000000pt" viewBox="0 0 59.000000 89.000000"
 preserveAspectRatio="xMidYMid meet">
<metadata>
Created by potrace 1.15, written by Peter Selinger 2001-2017
</metadata>
<g transform="translate(0.000000,89.000000) scale(0.100000,-0.100000)"
fill="#000000" stroke="none">
<path d="M206 685 c-9 -14 -39 -36 -67 -50 -52 -27 -89 -73 -89 -113 0 -31 28
-72 51 -72 17 0 17 3 5 38 -13 38 -11 72 4 72 5 0 18 -13 30 -30 12 -16 28
-30 36 -30 18 0 18 2 -2 44 -9 19 -14 41 -11 50 10 25 36 19 48 -11 12 -31 37
-63 51 -63 14 0 9 21 -13 52 -18 24 -20 38 -15 78 7 56 -5 71 -28 35z"/>
<path d="M361 603 c-28 -31 -48 -60 -45 -65 5 -8 77 42 89 63 10 15 18 11 69
-31 67 -56 80 -38 24 34 -56 72 -72 72 -137 -1z"/>
<path d="M450 478 c0 -7 9 -26 20 -43 21 -32 27 -80 10 -90 -5 -3 -32 19 -61
49 -82 87 -93 46 -12 -44 37 -42 43 -53 33 -65 -16 -19 -28 -19 -64 0 -35 18
-36 18 -36 0 0 -8 10 -24 23 -35 18 -18 29 -20 66 -15 44 7 44 7 38 -45 -3
-28 -2 -59 3 -68 5 -9 11 -29 15 -44 4 -19 12 -28 25 -28 23 0 24 7 10 46 -17
43 -19 201 -4 222 31 40 8 121 -45 158 -16 12 -21 12 -21 2z"/>
<path d="M158 398 c-3 -30 -7 -34 -45 -42 -56 -13 -57 -36 -3 -36 38 0 40 -2
40 -30 0 -35 -25 -40 -66 -14 -20 13 -28 14 -37 5 -9 -10 -2 -21 36 -53 26
-22 47 -45 47 -52 0 -6 11 -24 23 -40 23 -29 23 -29 54 25 17 30 40 63 52 73
21 19 28 46 12 46 -5 0 -14 -7 -21 -15 -22 -27 -55 -14 -58 22 -3 29 -1 32 29
35 44 4 49 26 7 30 -29 3 -34 7 -38 37 -7 46 -28 52 -32 9z m42 -177 c0 -5 -7
-14 -15 -21 -12 -10 -18 -10 -31 1 -15 12 -14 14 7 20 35 10 39 10 39 0z"/>
</g>
</svg>
