<svg version="1.0" xmlns="http://www.w3.org/2000/svg"
 width="43.000000pt" height="55.000000pt" viewBox="0 0 43.000000 55.000000"
 preserveAspectRatio="xMidYMid meet">
<metadata>
Created by potrace 1.15, written by Peter Selinger 2001-2017
</metadata>
<g transform="translate(0.000000,55.000000) scale(0.100000,-0.100000)"
fill="#000000" stroke="none">
<path d="M201 348 c-5 -13 -19 -57 -32 -98 -12 -41 -26 -79 -31 -84 -4 -6 -8
-18 -8 -28 0 -32 -22 -66 -47 -73 -38 -9 -21 -30 23 -29 82 1 254 17 254 23 0
3 -10 11 -22 16 -17 8 -25 21 -29 55 -9 63 -38 150 -60 182 -11 14 -19 33 -19
42 0 24 -19 19 -29 -6z m39 -140 c7 -24 19 -57 26 -75 8 -17 14 -35 14 -41 0
-9 -121 -25 -129 -16 -2 2 0 14 6 27 6 12 16 37 22 55 37 108 42 112 61 50z"/>
</g>
</svg>
