<svg version="1.0" xmlns="http://www.w3.org/2000/svg"
 width="73.000000pt" height="109.000000pt" viewBox="0 0 73.000000 109.000000"
 preserveAspectRatio="xMidYMid meet">
<metadata>
Created by potrace 1.15, written by Peter Selinger 2001-2017
</metadata>
<g transform="translate(0.000000,109.000000) scale(0.100000,-0.100000)"
fill="#000000" stroke="none">
<path d="M573 874 c5 -124 16 -155 43 -119 15 20 15 57 -1 155 -12 70 -16 80
-31 80 -13 0 -15 -16 -11 -116z"/>
<path d="M307 857 c-22 -45 -57 -120 -79 -167 -22 -47 -45 -96 -51 -110 -6
-14 -19 -37 -29 -52 -19 -28 -24 -101 -9 -140 5 -13 15 -43 22 -68 7 -25 22
-52 33 -60 58 -44 151 -151 151 -174 0 -6 -41 -17 -92 -24 -51 -8 -91 -18 -88
-22 9 -15 171 -32 195 -20 8 5 58 13 110 19 85 11 109 20 110 44 0 4 -34 7
-75 7 -41 0 -75 4 -75 9 0 10 58 102 70 111 13 10 21 55 26 140 2 47 9 108 15
136 13 58 2 87 -57 161 -19 23 -34 46 -34 52 0 6 -4 11 -10 11 -5 0 -10 8 -10
19 0 10 -19 36 -42 56 -39 36 -41 39 -30 70 16 42 15 85 0 85 -7 0 -30 -38
-51 -83z m43 -77 c0 -15 43 -105 52 -108 4 -2 8 -9 8 -15 0 -7 19 -32 42 -56
41 -44 41 -44 39 -140 -1 -53 -4 -116 -7 -141 -6 -41 -28 -97 -43 -110 -3 -3
-14 -22 -23 -42 -10 -21 -23 -38 -30 -38 -7 0 -26 18 -43 40 -16 22 -51 62
-77 88 -34 34 -52 62 -63 99 -16 56 -20 114 -7 128 4 6 14 28 21 50 13 40 31
85 57 139 8 16 14 34 14 40 0 17 39 76 50 76 5 0 10 -5 10 -10z"/>
<path d="M102 829 c-13 -21 -11 -113 4 -239 6 -44 6 -44 25 -20 14 19 18 37
14 75 -2 28 -7 85 -11 128 -4 42 -9 77 -13 77 -3 0 -12 -10 -19 -21z"/>
</g>
</svg>
