<svg version="1.0" xmlns="http://www.w3.org/2000/svg"
 width="51.000000pt" height="73.000000pt" viewBox="0 0 51.000000 73.000000"
 preserveAspectRatio="xMidYMid meet">
<metadata>
Created by potrace 1.15, written by Peter Selinger 2001-2017
</metadata>
<g transform="translate(0.000000,73.000000) scale(0.100000,-0.100000)"
fill="#000000" stroke="none">
<path d="M270 459 c-45 -90 -45 -92 -43 -186 1 -53 4 -106 7 -119 6 -24 5 -24
-63 -24 -69 0 -92 -9 -68 -27 26 -20 94 -34 232 -48 22 -3 51 -7 65 -9 44 -8
56 9 20 28 -18 9 -38 16 -45 16 -6 0 -19 6 -29 13 -17 13 -17 15 5 58 19 36
23 59 24 134 0 86 -17 155 -38 155 -5 0 -8 10 -7 23 4 41 0 77 -7 77 -5 0 -28
-41 -53 -91z m62 -130 c1 -65 -7 -108 -29 -169 -9 -24 -33 79 -33 141 0 31 7
73 16 94 14 34 17 36 30 23 11 -11 16 -38 16 -89z"/>
</g>
</svg>
