<svg version="1.0" xmlns="http://www.w3.org/2000/svg"
 width="64.000000pt" height="80.000000pt" viewBox="0 0 64.000000 80.000000"
 preserveAspectRatio="xMidYMid meet">
<metadata>
Created by potrace 1.15, written by Peter Selinger 2001-2017
</metadata>
<g transform="translate(0.000000,80.000000) scale(0.100000,-0.100000)"
fill="#000000" stroke="none">
<path d="M370 700 c-16 -16 -20 -33 -20 -80 0 -72 10 -80 104 -80 66 0 66 0
68 -242 3 -222 4 -243 21 -246 16 -3 17 17 17 322 0 375 9 346 -104 346 -53 0
-70 -4 -86 -20z m140 -40 c0 -19 -5 -21 -57 -18 -46 2 -59 7 -61 21 -3 15 5
17 57 17 55 0 61 -2 61 -20z m0 -64 c0 -8 -17 -16 -45 -19 -51 -7 -75 -1 -75
19 0 10 15 14 60 14 44 0 60 -4 60 -14z"/>
<path d="M88 693 c-14 -16 -17 -61 -20 -336 -3 -289 -2 -317 13 -317 9 0 20 7
23 16 3 9 6 118 6 244 0 228 0 228 76 235 69 7 76 10 85 33 6 14 9 51 7 81 -3
56 -3 56 -89 59 -71 2 -88 0 -101 -15z m147 -33 c0 -11 -14 -16 -57 -18 -58
-3 -69 3 -46 26 18 18 103 11 103 -8z m-17 -56 c12 -4 22 -13 22 -20 0 -11
-16 -14 -65 -14 -66 0 -85 13 -42 30 27 11 54 12 85 4z"/>
<path d="M360 495 c-18 -10 -46 -12 -102 -8 -56 4 -78 3 -78 -6 0 -6 12 -11
28 -11 15 0 38 -3 52 -7 24 -7 23 -8 -10 -13 -27 -4 -38 -12 -50 -37 -8 -18
-21 -33 -27 -33 -7 0 -13 -4 -13 -10 0 -5 7 -10 15 -10 8 0 15 -7 15 -15 0 -8
7 -15 15 -15 8 0 15 7 15 15 0 8 9 15 20 15 11 0 20 5 20 10 0 6 -9 10 -21 10
-15 0 -20 5 -17 23 2 16 11 23 33 25 30 3 30 3 30 -53 0 -55 0 -55 -43 -55
-31 0 -42 -4 -39 -12 2 -8 23 -13 56 -13 40 0 49 -2 36 -10 -40 -23 -65 -47
-65 -62 0 -12 10 -9 46 12 46 27 46 27 94 6 58 -25 88 -28 71 -7 -7 8 -23 17
-36 20 -32 8 -32 24 0 32 43 11 29 27 -17 20 -43 -7 -43 -7 -10 14 18 11 35
27 38 35 4 9 19 15 35 15 16 0 29 5 29 10 0 6 -11 10 -25 10 -16 0 -25 6 -25
16 0 9 -17 23 -40 32 -22 9 -40 20 -40 24 0 4 18 13 40 19 22 7 40 16 40 21 0
13 -42 9 -70 -7z m20 -85 c25 -20 25 -20 -7 -20 -40 0 -44 -17 -5 -22 27 -3
27 -3 -7 -22 -33 -18 -35 -18 -48 0 -16 21 -16 25 -3 58 11 31 36 33 70 6z"/>
<path d="M250 203 c-25 -10 -39 -36 -40 -73 0 -56 11 -64 90 -68 66 -4 72 -3
95 22 30 33 32 79 5 106 -16 16 -33 20 -77 19 -32 0 -65 -3 -73 -6z m124 -48
c9 -34 2 -42 -42 -55 -49 -15 -92 0 -92 33 0 35 19 47 76 47 47 0 52 -2 58
-25z"/>
<path d="M277 154 c-16 -16 -5 -24 34 -24 28 0 39 4 37 13 -5 13 -60 22 -71
11z"/>
</g>
</svg>
