<svg version="1.0" xmlns="http://www.w3.org/2000/svg"
 width="49.000000pt" height="75.000000pt" viewBox="0 0 49.000000 75.000000"
 preserveAspectRatio="xMidYMid meet">
<metadata>
Created by potrace 1.15, written by Peter Selinger 2001-2017
</metadata>
<g transform="translate(0.000000,75.000000) scale(0.100000,-0.100000)"
fill="#000000" stroke="none">
<path d="M129 578 c-4 -14 -7 -437 -3 -450 9 -32 21 -19 26 27 3 25 11 52 18
60 17 20 50 19 66 -2 22 -31 37 0 41 89 4 73 8 130 12 163 1 6 6 3 11 -5 5 -8
10 -50 10 -92 0 -43 4 -78 9 -78 5 0 15 23 22 50 7 28 16 50 21 50 4 0 8 -49
8 -109 0 -122 7 -174 24 -168 7 2 12 53 13 149 2 140 1 147 -21 171 -15 16
-25 42 -28 72 -7 60 -28 85 -28 33 0 -37 -13 -57 -25 -38 -8 13 -52 13 -60 0
-3 -5 -21 -10 -40 -10 -31 0 -35 3 -45 40 -9 32 -27 61 -31 48z m111 -155 c0
-43 -12 -55 -42 -44 -49 19 -44 71 8 71 30 0 34 -3 34 -27z m-12 -120 c3 -31
1 -33 -27 -33 -31 0 -41 17 -33 53 3 13 12 17 31 15 21 -2 27 -9 29 -35z"/>
<path d="M248 523 c7 -3 16 -2 19 1 4 3 -2 6 -13 5 -11 0 -14 -3 -6 -6z"/>
</g>
</svg>
