<svg version="1.0" xmlns="http://www.w3.org/2000/svg"
 width="51.000000pt" height="69.000000pt" viewBox="0 0 51.000000 69.000000"
 preserveAspectRatio="xMidYMid meet">
<metadata>
Created by potrace 1.15, written by Peter Selinger 2001-2017
</metadata>
<g transform="translate(0.000000,69.000000) scale(0.100000,-0.100000)"
fill="#000000" stroke="none">
<path d="M65 448 c-4 -57 -8 -131 -10 -165 -1 -35 -8 -99 -15 -144 -11 -68
-11 -82 1 -90 8 -5 17 -9 20 -9 13 0 20 52 8 66 -8 10 -7 17 4 29 19 18 98 20
115 3 24 -24 36 9 38 108 2 53 5 99 8 102 4 3 13 -3 21 -14 19 -25 19 -78 0
-94 -21 -17 -19 -27 7 -41 18 -10 24 -8 38 9 17 20 17 20 30 -2 8 -11 23 -37
33 -56 29 -54 40 -61 32 -20 -7 38 -8 42 -54 141 -20 43 -31 83 -31 111 0 40
-13 68 -31 68 -4 0 -7 -16 -6 -35 1 -40 -6 -50 -28 -42 -10 5 -15 20 -15 53 0
47 0 47 -53 41 -57 -6 -80 2 -76 24 4 19 -10 59 -20 59 -5 0 -12 -46 -16 -102z
m110 -63 c0 -50 0 -50 -40 -50 -40 0 -40 0 -37 40 4 61 8 67 44 63 32 -3 33
-4 33 -53z m-5 -141 c0 -54 0 -54 -40 -54 -40 0 -40 0 -40 54 0 53 0 53 40 53
40 0 40 0 40 -53z"/>
</g>
</svg>
