<svg version="1.0" xmlns="http://www.w3.org/2000/svg"
 width="73.000000pt" height="105.000000pt" viewBox="0 0 73.000000 105.000000"
 preserveAspectRatio="xMidYMid meet">
<metadata>
Created by potrace 1.15, written by Peter Selinger 2001-2017
</metadata>
<g transform="translate(0.000000,105.000000) scale(0.100000,-0.100000)"
fill="#000000" stroke="none">
<path d="M350 946 c0 -14 -4 -28 -10 -31 -23 -14 -9 -42 32 -61 63 -29 67 -41
38 -126 -14 -40 -28 -75 -31 -78 -3 -3 -10 -34 -16 -69 -15 -95 -1 -157 47
-202 40 -38 115 -72 186 -84 24 -4 47 -17 61 -33 26 -31 29 -29 38 19 7 36 6
37 -30 43 -72 14 -74 20 -74 246 0 192 0 200 19 200 31 0 24 33 -10 53 -23 14
-30 25 -30 48 0 34 -16 69 -30 69 -6 0 -10 -20 -10 -45 0 -38 -3 -45 -19 -45
-29 0 -121 43 -121 57 0 19 -22 63 -32 63 -4 0 -8 -11 -8 -24z m173 -150 c14
-11 19 -35 24 -130 5 -105 4 -116 -11 -116 -20 0 -55 17 -74 36 -7 8 -20 17
-28 22 -13 7 -13 13 0 53 9 24 16 53 16 64 0 22 35 85 47 85 5 0 16 -7 26 -14z
m-38 -269 c60 -33 60 -33 63 -95 3 -62 3 -62 -26 -62 -37 0 -87 25 -107 53
-15 21 -21 117 -8 130 10 10 13 9 78 -26z"/>
<path d="M145 813 c-31 -64 -54 -169 -54 -251 -1 -31 -9 -70 -20 -93 -24 -49
-37 -119 -22 -119 6 0 25 15 42 33 25 25 33 29 37 17 18 -53 222 -174 222
-132 0 5 -13 18 -30 30 -22 17 -30 31 -30 55 0 18 -4 38 -9 46 -10 16 -31 6
-31 -15 0 -9 -10 -14 -29 -14 -23 0 -32 7 -43 30 -7 17 -16 30 -19 30 -4 0 -9
16 -12 36 -5 28 1 50 23 95 17 32 30 61 30 64 0 3 -11 5 -25 5 -22 0 -25 4
-25 35 0 19 14 61 30 94 26 51 29 63 19 85 -7 14 -15 26 -19 26 -4 0 -20 -26
-35 -57z"/>
<path d="M520 240 c-12 -8 -11 -10 8 -10 12 0 22 5 22 10 0 13 -11 13 -30 0z"/>
<path d="M293 172 c-14 -35 138 -185 169 -166 4 3 8 13 8 23 0 9 14 39 31 65
16 27 29 58 27 69 -3 20 -9 22 -117 22 -82 0 -115 -3 -118 -13z m157 -62 c0
-32 -4 -40 -18 -40 -29 0 -62 29 -62 56 0 21 4 24 40 24 40 0 40 0 40 -40z"/>
</g>
</svg>
