<svg version="1.0" xmlns="http://www.w3.org/2000/svg"
 width="66.000000pt" height="80.000000pt" viewBox="0 0 66.000000 80.000000"
 preserveAspectRatio="xMidYMid meet">
<metadata>
Created by potrace 1.15, written by Peter Selinger 2001-2017
</metadata>
<g transform="translate(0.000000,80.000000) scale(0.100000,-0.100000)"
fill="#000000" stroke="none">
<path d="M506 483 c-3 -4 -6 -28 -6 -55 0 -39 -6 -57 -32 -93 -18 -24 -37 -44
-41 -45 -4 0 -35 14 -67 30 -67 34 -85 31 -110 -14 -7 -14 -17 -26 -22 -26
-21 0 -80 68 -87 100 -5 28 -12 36 -34 38 -27 3 -27 3 -27 -136 0 -181 3 -194
48 -220 32 -17 49 -19 135 -15 54 3 100 10 104 16 13 22 -31 37 -111 37 -45 0
-87 4 -93 8 -23 15 -46 192 -25 192 10 0 43 -36 65 -72 24 -39 42 -35 67 16
35 73 42 74 96 20 48 -47 48 -47 90 0 23 26 44 43 48 38 10 -17 -6 -101 -22
-114 -8 -7 -40 -15 -71 -18 -48 -4 -56 -8 -56 -25 0 -17 8 -20 57 -23 70 -4
124 17 138 53 6 15 10 86 10 159 0 130 0 133 -24 144 -13 6 -27 8 -30 5z"/>
</g>
</svg>
