<svg version="1.0" xmlns="http://www.w3.org/2000/svg"
 width="65.000000pt" height="82.000000pt" viewBox="0 0 65.000000 82.000000"
 preserveAspectRatio="xMidYMid meet">
<metadata>
Created by potrace 1.15, written by Peter Selinger 2001-2017
</metadata>
<g transform="translate(0.000000,82.000000) scale(0.100000,-0.100000)"
fill="#000000" stroke="none">
<path d="M197 574 c-4 -4 -7 -18 -7 -32 0 -14 -10 -41 -22 -61 -23 -36 -23
-36 -26 -1 -4 41 -17 60 -42 60 -15 0 -18 -19 -24 -175 -7 -183 -4 -205 34
-225 26 -14 230 9 230 26 0 25 -29 34 -106 32 -44 -1 -85 1 -91 5 -14 9 -25
69 -17 90 4 13 24 17 87 19 65 2 82 6 82 18 0 12 -17 16 -82 18 -83 3 -83 3
-83 33 0 22 6 32 20 36 10 3 26 16 35 29 21 33 45 30 77 -8 22 -28 30 -31 45
-22 33 20 27 42 -21 71 -35 21 -46 34 -48 58 -3 28 -25 44 -41 29z"/>
<path d="M395 550 c-7 -11 24 -70 36 -70 4 0 11 -9 14 -20 8 -26 -53 -103 -95
-120 -35 -14 -33 -12 -18 -45 21 -47 61 -28 113 55 14 22 31 40 39 40 18 0 27
-119 16 -202 -5 -35 -10 -82 -10 -105 0 -35 3 -43 19 -43 35 0 41 24 47 198 7
171 7 171 -19 210 -27 41 -106 112 -125 112 -6 0 -14 -4 -17 -10z"/>
</g>
</svg>
