<svg version="1.0" xmlns="http://www.w3.org/2000/svg"
 width="41.000000pt" height="79.000000pt" viewBox="0 0 41.000000 79.000000"
 preserveAspectRatio="xMidYMid meet">
<metadata>
Created by potrace 1.15, written by Peter Selinger 2001-2017
</metadata>
<g transform="translate(0.000000,79.000000) scale(0.100000,-0.100000)"
fill="#000000" stroke="none">
<path d="M110 552 c0 -20 15 -43 50 -80 49 -52 49 -52 30 -98 -11 -25 -20 -57
-20 -70 0 -26 33 -99 50 -109 5 -3 10 -15 10 -26 0 -10 4 -19 10 -19 5 0 21
-18 35 -40 22 -35 55 -55 55 -32 0 15 -26 79 -41 102 -8 14 -21 41 -29 60 -7
19 -17 40 -21 45 -4 6 1 38 13 72 20 63 20 63 -3 95 -27 38 -118 128 -130 128
-5 0 -9 -13 -9 -28z"/>
</g>
</svg>
