<svg version="1.0" xmlns="http://www.w3.org/2000/svg"
 width="51.000000pt" height="81.000000pt" viewBox="0 0 51.000000 81.000000"
 preserveAspectRatio="xMidYMid meet">
<metadata>
Created by potrace 1.15, written by Peter Selinger 2001-2017
</metadata>
<g transform="translate(0.000000,81.000000) scale(0.100000,-0.100000)"
fill="#000000" stroke="none">
<path d="M357 627 c-31 -34 -64 -71 -72 -82 -17 -24 -20 -76 -4 -92 6 -6 12
-44 12 -84 2 -73 0 -81 -49 -183 -8 -16 -14 -33 -14 -38 0 -6 -9 -23 -21 -40
-26 -36 -19 -45 22 -28 45 19 82 76 115 176 22 70 25 90 16 105 -7 10 -12 27
-12 37 0 10 -4 22 -9 27 -5 6 -12 26 -16 46 -6 34 -4 39 34 69 23 19 41 42 41
52 0 10 6 18 14 18 15 0 27 45 19 67 -8 20 -14 16 -76 -50z"/>
</g>
</svg>
