<svg version="1.0" xmlns="http://www.w3.org/2000/svg"
 width="43.000000pt" height="87.000000pt" viewBox="0 0 43.000000 87.000000"
 preserveAspectRatio="xMidYMid meet">
<metadata>
Created by potrace 1.15, written by Peter Selinger 2001-2017
</metadata>
<g transform="translate(0.000000,87.000000) scale(0.100000,-0.100000)"
fill="#000000" stroke="none">
<path d="M147 836 c-7 -18 7 -71 28 -102 8 -13 15 -30 15 -39 0 -17 20 -57 34
-67 10 -6 8 -14 -34 -147 -31 -99 -27 -187 11 -263 17 -33 35 -66 40 -72 6 -6
19 -26 29 -43 20 -33 40 -44 40 -21 0 6 -8 37 -19 67 -38 113 -51 164 -51 196
0 40 25 127 51 176 34 65 25 96 -82 286 -24 43 -52 56 -62 29z"/>
</g>
</svg>
