<svg version="1.0" xmlns="http://www.w3.org/2000/svg"
 width="75.000000pt" height="89.000000pt" viewBox="0 0 75.000000 89.000000"
 preserveAspectRatio="xMidYMid meet">
<metadata>
Created by potrace 1.15, written by Peter Selinger 2001-2017
</metadata>
<g transform="translate(0.000000,89.000000) scale(0.100000,-0.100000)"
fill="#000000" stroke="none">
<path d="M405 743 c-40 -6 -55 -20 -55 -52 0 -25 36 -59 82 -76 17 -7 38 -54
38 -87 0 -17 -5 -19 -32 -13 -18 4 -48 16 -67 26 -25 15 -37 17 -45 9 -14 -14
54 -75 102 -91 30 -10 32 -13 32 -60 0 -35 -4 -51 -15 -55 -17 -7 -80 30 -89
51 -8 21 -36 18 -36 -4 0 -25 39 -65 89 -91 40 -20 42 -22 35 -58 -9 -49 -60
-161 -86 -189 -18 -19 -19 -23 -5 -28 48 -19 128 104 152 235 5 29 15 40 58
65 57 34 89 77 71 95 -8 8 -24 0 -58 -29 -26 -23 -51 -41 -57 -41 -5 0 -9 25
-9 55 0 49 3 56 28 69 43 23 98 84 86 96 -14 14 -40 3 -59 -26 -24 -38 -52
-31 -57 14 -4 26 -1 40 10 46 37 22 102 90 102 108 0 11 -11 23 -26 28 -25 10
-130 11 -189 3z m151 -45 c10 -16 -42 -58 -72 -58 -33 0 -84 27 -84 45 0 21
143 34 156 13z"/>
<path d="M97 717 c-4 -10 12 -19 51 -32 78 -24 94 -48 40 -59 -18 -3 -42 -13
-55 -21 -45 -30 -51 -60 -59 -273 -6 -188 -6 -202 11 -208 35 -14 42 18 48
204 3 97 10 191 16 208 11 30 54 60 70 49 4 -2 11 -93 15 -202 8 -252 14 -295
35 -291 13 3 17 20 19 93 5 134 -17 466 -33 490 -7 11 -37 28 -67 38 -66 21
-84 21 -91 4z"/>
</g>
</svg>
