<svg version="1.0" xmlns="http://www.w3.org/2000/svg"
 width="123.000000pt" height="199.000000pt" viewBox="0 0 123.000000 199.000000"
 preserveAspectRatio="xMidYMid meet">
<metadata>
Created by potrace 1.15, written by Peter Selinger 2001-2017
</metadata>
<g transform="translate(0.000000,199.000000) scale(0.100000,-0.100000)"
fill="#000000" stroke="none">
<path d="M604 1818 c-4 -7 -7 -32 -5 -57 2 -41 -1 -47 -26 -58 -15 -7 -43 -13
-62 -13 -56 -1 -204 -25 -227 -38 -65 -35 -76 -84 -62 -272 15 -216 16 -526 0
-640 -19 -139 -32 -212 -44 -240 -20 -48 -27 -66 -49 -130 -12 -35 -30 -78
-39 -95 -27 -48 -33 -85 -15 -85 17 0 55 56 55 83 0 9 4 17 8 17 4 0 14 21 21
47 8 27 17 53 21 58 13 17 42 108 51 158 5 26 13 71 19 100 35 190 40 304 26
645 -6 147 -5 201 5 225 13 35 46 66 69 67 18 0 147 38 176 52 32 15 360 -5
379 -23 5 -5 16 -9 25 -9 9 0 27 -11 39 -24 23 -24 23 -27 15 -163 -4 -76 -8
-169 -7 -208 1 -85 20 -365 28 -420 3 -22 8 -83 9 -135 5 -117 20 -206 40
-225 8 -8 17 -38 21 -67 10 -73 76 -263 101 -288 12 -12 14 -11 14 10 0 14 -9
50 -21 80 -11 30 -27 87 -35 125 -8 39 -20 88 -25 110 -14 55 -27 134 -39 235
-5 47 -14 117 -20 155 -21 144 -30 354 -23 530 9 232 8 251 -6 279 -15 26
-101 59 -201 76 -135 23 -134 23 -152 60 -9 19 -17 45 -18 56 0 12 -7 25 -16
28 -21 8 -22 8 -30 -6z"/>
<path d="M752 1520 c-16 -45 -22 -90 -11 -90 6 0 9 -18 7 -42 -3 -36 -7 -44
-27 -46 -63 -9 -91 24 -91 107 0 30 -5 53 -15 61 -26 22 -37 1 -31 -59 4 -31
3 -69 -2 -86 -8 -28 -12 -30 -58 -30 -49 0 -49 0 -52 55 -4 56 -27 110 -51
118 -10 3 -11 -3 -5 -29 8 -37 8 -44 6 -105 -2 -41 -3 -42 -48 -53 -45 -12
-46 -12 -29 -31 13 -14 31 -20 62 -20 36 0 49 -6 76 -33 103 -106 117 -135
120 -249 2 -93 2 -93 -27 -96 -42 -5 -83 16 -100 51 -8 18 -22 72 -30 121 -15
85 -28 117 -42 103 -6 -6 9 -183 19 -226 10 -39 35 -70 75 -90 41 -21 41 -21
81 -21 28 0 28 -1 27 -54 -1 -30 -3 -52 -5 -50 -2 2 -12 -3 -21 -11 -10 -9
-50 -17 -113 -21 -94 -7 -119 -16 -101 -34 5 -5 63 -10 129 -12 120 -3 120 -3
128 -33 5 -16 14 -39 20 -50 13 -25 10 -197 -5 -232 -30 -76 -40 -91 -75 -124
-53 -48 -151 -113 -195 -130 -41 -14 -49 -34 -18 -42 18 -4 85 31 100 53 3 4
22 15 43 25 20 9 37 21 37 26 0 5 7 9 15 9 8 0 15 4 15 9 0 4 20 19 45 32 25
13 45 27 45 31 0 4 13 26 28 50 63 95 64 122 9 315 -8 28 -12 54 -9 57 3 3 24
6 46 6 56 0 146 22 146 36 0 18 -18 21 -103 18 -42 -2 -84 -1 -91 2 -8 3 -17
28 -21 61 -8 62 1 74 60 80 16 2 34 8 39 13 6 6 17 10 26 10 25 0 60 43 71 87
6 21 12 77 15 125 5 78 3 89 -15 107 -12 12 -25 21 -30 21 -11 0 -21 -49 -12
-55 4 -2 6 -39 5 -82 -1 -92 -23 -139 -75 -165 -50 -25 -66 -22 -78 13 -19 54
-13 130 15 200 52 127 89 181 124 178 26 -2 44 1 59 10 12 8 12 12 2 25 -8 9
-22 16 -32 16 -19 0 -25 32 -19 111 1 16 -9 38 -24 55 -24 29 -24 29 -34 4z
m-62 -230 c0 -3 -6 -21 -14 -40 -43 -115 -35 -107 -68 -69 -16 19 -38 44 -50
57 -18 20 -19 25 -7 33 8 5 10 9 4 10 -18 3 59 14 98 14 20 1 37 -1 37 -5z"/>
</g>
</svg>
