<svg version="1.0" xmlns="http://www.w3.org/2000/svg"
 width="67.000000pt" height="79.000000pt" viewBox="0 0 67.000000 79.000000"
 preserveAspectRatio="xMidYMid meet">
<metadata>
Created by potrace 1.15, written by Peter Selinger 2001-2017
</metadata>
<g transform="translate(0.000000,79.000000) scale(0.100000,-0.100000)"
fill="#000000" stroke="none">
<path d="M427 613 c-27 -4 -52 -34 -40 -47 3 -3 46 -6 95 -6 71 0 90 3 95 16
3 8 1 20 -5 26 -12 12 -100 19 -145 11z"/>
<path d="M138 604 c-11 -3 -18 -15 -18 -28 0 -23 1 -23 93 -19 96 6 120 14 99
35 -13 13 -142 21 -174 12z"/>
<path d="M425 473 c-44 -11 -45 -18 -45 -207 0 -229 1 -231 93 -231 101 0 102
2 102 193 0 157 0 157 -25 157 -25 0 -25 0 -28 -145 -3 -153 -5 -160 -54 -160
-26 0 -26 0 -33 113 -4 61 -5 137 -3 167 3 55 3 55 70 60 75 6 99 20 78 45
-12 15 -106 20 -155 8z"/>
<path d="M121 451 c-15 -27 -5 -31 65 -31 35 0 66 -5 69 -10 4 -6 3 -81 -1
-166 -7 -155 -7 -155 -43 -152 -36 3 -36 3 -39 135 -2 102 -6 134 -18 144 -29
24 -38 -6 -42 -153 -4 -135 -3 -144 17 -165 41 -43 161 -23 175 29 3 13 6 96
6 186 0 199 -1 202 -110 202 -57 0 -71 -3 -79 -19z"/>
</g>
</svg>
