<svg version="1.0" xmlns="http://www.w3.org/2000/svg"
 width="41.000000pt" height="51.000000pt" viewBox="0 0 41.000000 51.000000"
 preserveAspectRatio="xMidYMid meet">
<metadata>
Created by potrace 1.15, written by Peter Selinger 2001-2017
</metadata>
<g transform="translate(0.000000,51.000000) scale(0.100000,-0.100000)"
fill="#000000" stroke="none">
<path d="M130 410 c0 -22 -4 -48 -9 -58 -28 -56 -61 -134 -61 -143 0 -22 26
10 49 58 13 27 27 56 32 65 12 24 11 118 -1 118 -5 0 -10 -18 -10 -40z"/>
<path d="M275 368 c9 -44 55 -138 67 -138 5 0 8 4 6 8 -1 5 -16 43 -33 85 -30
79 -52 103 -40 45z"/>
<path d="M154 244 c-3 -10 -19 -46 -35 -78 -16 -33 -27 -61 -25 -63 2 -2 17
12 34 31 34 39 42 33 42 -35 0 -23 5 -39 11 -39 9 0 10 26 5 93 -7 92 -20 128
-32 91z"/>
<path d="M271 140 c0 -69 17 -134 19 -75 1 28 1 29 15 11 8 -11 17 -17 20 -14
8 8 -23 102 -41 125 -12 16 -13 10 -13 -47z"/>
<path d="M181 24 c0 -11 3 -14 6 -6 3 7 2 16 -1 19 -3 4 -6 -2 -5 -13z"/>
</g>
</svg>
