<svg version="1.0" xmlns="http://www.w3.org/2000/svg"
 width="55.000000pt" height="79.000000pt" viewBox="0 0 55.000000 79.000000"
 preserveAspectRatio="xMidYMid meet">
<metadata>
Created by potrace 1.15, written by Peter Selinger 2001-2017
</metadata>
<g transform="translate(0.000000,79.000000) scale(0.100000,-0.100000)"
fill="#000000" stroke="none">
<path d="M177 548 c-4 -62 -19 -108 -55 -181 -2 -4 3 -4 11 -1 36 13 84 179
69 236 -9 37 -19 16 -25 -54z"/>
<path d="M343 530 c4 -33 14 -61 27 -75 11 -12 20 -27 20 -33 0 -7 5 -12 10
-12 6 0 10 6 10 14 0 8 -4 18 -10 21 -5 3 -10 13 -10 21 0 9 -7 22 -15 30 -8
9 -15 28 -15 44 0 16 -5 32 -12 36 -8 5 -9 -7 -5 -46z"/>
<path d="M205 378 c-4 -13 -13 -36 -20 -53 -31 -74 -35 -87 -35 -100 0 -22 16
-18 27 8 10 20 12 18 23 -25 18 -70 33 -60 23 15 -9 74 -9 124 2 155 4 13 3
22 -3 22 -6 0 -14 -10 -17 -22z"/>
<path d="M310 323 c0 -61 20 -175 32 -188 7 -7 8 15 3 64 -6 68 -5 74 9 61 9
-7 19 -10 22 -7 8 8 -46 117 -57 117 -5 0 -9 -21 -9 -47z"/>
</g>
</svg>
