<svg version="1.0" xmlns="http://www.w3.org/2000/svg"
 width="47.000000pt" height="87.000000pt" viewBox="0 0 47.000000 87.000000"
 preserveAspectRatio="xMidYMid meet">
<metadata>
Created by potrace 1.15, written by Peter Selinger 2001-2017
</metadata>
<g transform="translate(0.000000,87.000000) scale(0.100000,-0.100000)"
fill="#000000" stroke="none">
<path d="M326 713 c-19 -68 -17 -126 5 -181 12 -31 26 -59 29 -62 3 -3 12 -20
20 -39 28 -69 20 -11 -9 69 -27 74 -30 90 -24 156 4 50 2 74 -5 74 -6 0 -13
-8 -16 -17z"/>
<path d="M192 641 c2 -50 -24 -118 -61 -158 -29 -32 -63 -83 -54 -83 15 0 28
14 78 79 49 65 63 105 57 174 -5 55 -22 45 -20 -12z"/>
<path d="M140 373 c-29 -43 -61 -87 -71 -99 -11 -11 -16 -23 -13 -27 8 -7 34
3 34 14 0 10 45 59 54 59 3 0 6 -35 7 -77 0 -102 16 -67 23 52 3 54 11 97 21
111 8 13 15 28 15 34 0 25 -22 4 -70 -67z"/>
<path d="M280 313 c0 -65 3 -143 7 -173 7 -55 7 -55 14 -10 4 25 8 77 8 115 1
70 1 70 25 43 33 -40 38 -35 14 15 -27 55 -36 78 -40 101 -2 11 -9 21 -15 24
-10 3 -13 -24 -13 -115z"/>
</g>
</svg>
