<svg version="1.0" xmlns="http://www.w3.org/2000/svg"
 width="45.000000pt" height="77.000000pt" viewBox="0 0 45.000000 77.000000"
 preserveAspectRatio="xMidYMid meet">
<metadata>
Created by potrace 1.15, written by Peter Selinger 2001-2017
</metadata>
<g transform="translate(0.000000,77.000000) scale(0.100000,-0.100000)"
fill="#000000" stroke="none">
<path d="M253 583 c15 -73 23 -91 56 -132 19 -24 37 -38 39 -32 5 15 -18 71
-28 71 -4 0 -13 14 -19 30 -6 17 -16 44 -22 60 -14 38 -33 39 -26 3z"/>
<path d="M128 565 c-2 -42 -4 -58 -10 -75 -17 -52 -27 -90 -33 -130 -5 -42 -5
-44 9 -25 9 11 20 25 26 32 5 7 10 18 10 26 0 7 6 19 13 26 16 16 16 146 0
163 -10 10 -13 6 -15 -17z"/>
<path d="M274 380 c2 -19 11 -80 20 -135 8 -55 16 -104 16 -110 0 -5 5 -3 10
5 5 8 10 43 10 78 0 59 1 63 20 57 11 -3 20 -3 20 0 0 10 -20 45 -40 68 -10
12 -28 33 -40 47 -21 25 -21 25 -16 -10z"/>
<path d="M180 368 c-29 -71 -60 -156 -60 -166 0 -7 7 -12 15 -12 8 0 15 7 15
16 0 14 22 44 33 44 2 0 6 -38 9 -85 4 -73 12 -109 21 -94 1 2 1 75 -1 162 -3
152 -11 185 -32 135z"/>
</g>
</svg>
