<svg version="1.0" xmlns="http://www.w3.org/2000/svg"
 width="53.000000pt" height="67.000000pt" viewBox="0 0 53.000000 67.000000"
 preserveAspectRatio="xMidYMid meet">
<metadata>
Created by potrace 1.15, written by Peter Selinger 2001-2017
</metadata>
<g transform="translate(0.000000,67.000000) scale(0.100000,-0.100000)"
fill="#000000" stroke="none">
<path d="M174 517 c1 -41 -4 -85 -10 -98 -12 -27 -34 -92 -34 -102 0 -4 6 -7
13 -7 15 0 47 61 47 90 0 10 5 22 10 25 14 9 13 138 -2 153 -22 22 -25 13 -24
-61z"/>
<path d="M260 520 c0 -17 122 -160 137 -160 12 0 -1 33 -24 58 -44 47 -83 96
-83 105 0 11 -30 9 -30 -3z"/>
<path d="M196 338 c-31 -71 -55 -146 -49 -152 11 -11 23 -6 23 9 0 8 4 15 8
15 5 0 15 11 22 25 17 32 30 23 30 -21 0 -64 23 -179 31 -158 24 62 -8 324
-40 324 -3 0 -15 -19 -25 -42z"/>
<path d="M290 338 c0 -17 4 -45 10 -62 5 -17 15 -57 21 -88 14 -79 32 -75 27
7 -3 64 -2 66 20 60 30 -7 28 11 -5 44 -16 15 -35 37 -43 49 -20 31 -30 28
-30 -10z"/>
</g>
</svg>
