<svg version="1.0" xmlns="http://www.w3.org/2000/svg"
 width="105.000000pt" height="143.000000pt" viewBox="0 0 105.000000 143.000000"
 preserveAspectRatio="xMidYMid meet">
<metadata>
Created by potrace 1.15, written by Peter Selinger 2001-2017
</metadata>
<g transform="translate(0.000000,143.000000) scale(0.100000,-0.100000)"
fill="#000000" stroke="none">
<path d="M928 1280 c-46 -50 -46 -50 -131 -51 -85 -1 -85 -1 -98 -32 -8 -18
-14 -45 -14 -62 -1 -16 -9 -74 -19 -129 -18 -98 -18 -98 4 -141 12 -24 35 -52
51 -64 24 -18 29 -29 29 -64 0 -38 -6 -48 -59 -100 -68 -68 -90 -102 -74 -118
8 -8 16 -6 30 7 10 11 39 36 63 57 43 38 43 38 72 10 19 -18 28 -37 28 -57 0
-39 -22 -122 -43 -161 -23 -46 -32 -105 -16 -105 12 0 64 92 89 155 4 11 13
33 19 48 17 42 13 78 -13 133 -13 27 -27 78 -31 112 -7 64 -7 64 54 123 41 41
61 67 61 84 0 13 5 27 10 30 6 3 10 15 10 25 0 11 13 47 30 81 27 57 28 62 13
85 -12 19 -19 22 -29 13 -8 -6 -14 -20 -14 -30 0 -17 -8 -19 -76 -16 -82 2
-111 -14 -52 -28 49 -12 51 -13 77 -14 20 -1 22 -4 16 -28 -9 -36 -6 -34 -43
-23 -90 28 -90 28 -105 13 -9 -10 -23 -13 -37 -8 -18 6 -21 12 -16 37 17 84
65 128 139 128 51 0 87 16 124 57 36 38 40 52 21 71 -18 18 -21 16 -70 -38z
m-63 -302 c14 -6 25 -19 25 -28 0 -19 -39 -72 -40 -54 0 5 -8 19 -17 30 -61
69 -59 64 -25 64 17 0 43 -5 57 -12z m-101 -33 c6 -11 19 -33 30 -48 16 -25
17 -32 6 -53 -18 -32 -28 -30 -72 13 -28 28 -38 45 -38 69 0 18 6 35 13 38 23
9 50 1 61 -19z"/>
<path d="M272 1184 c-69 -41 -106 -145 -75 -211 42 -90 193 -101 273 -21 34
33 40 45 40 82 0 47 -17 104 -36 124 -20 19 -103 52 -132 52 -15 0 -46 -12
-70 -26z m131 -45 c15 -7 28 -26 36 -54 14 -48 10 -71 -20 -109 -17 -22 -29
-26 -70 -26 -68 0 -119 33 -119 77 0 44 16 74 53 101 34 24 82 28 120 11z"/>
<path d="M318 1048 c-20 -25 -21 -28 -9 -47 7 -11 15 -11 45 -1 38 12 46 32
22 56 -20 20 -38 17 -58 -8z"/>
<path d="M351 759 c-31 -77 -26 -116 23 -161 19 -18 19 -19 -4 -43 -19 -21
-24 -36 -24 -88 0 -40 6 -73 17 -94 17 -31 14 -63 -5 -63 -15 0 -68 -40 -68
-51 0 -5 14 -9 31 -9 22 0 32 5 36 20 10 36 33 -4 33 -57 0 -44 12 -73 31 -73
4 0 10 25 14 55 3 30 11 55 16 55 13 0 49 -22 78 -48 25 -21 61 -30 61 -14 0
12 -42 55 -87 91 -47 36 -51 51 -27 96 19 37 21 147 3 181 -10 20 -10 27 5 43
22 24 39 95 31 131 -6 26 -38 48 -104 69 -19 6 -35 11 -36 11 -1 0 -12 -23
-24 -51z m88 -28 c13 -8 13 -16 1 -53 -19 -59 -25 -64 -45 -34 -12 18 -15 36
-11 61 7 36 25 45 55 26z m4 -227 c5 -29 -11 -104 -23 -104 -15 0 -40 49 -34
67 21 65 48 83 57 37z"/>
<path d="M188 747 c-58 -49 -77 -150 -38 -200 11 -14 20 -30 20 -36 0 -14 -20
-50 -39 -70 -12 -13 -11 -16 8 -25 16 -7 25 -5 40 12 26 30 31 28 31 -16 0
-25 -7 -46 -20 -60 -29 -31 -38 -28 -42 16 -2 23 -8 37 -17 37 -20 0 -25 -64
-6 -85 24 -26 2 -78 -60 -142 -55 -56 -55 -56 -15 -51 32 4 40 2 40 -10 0 -20
54 -77 74 -77 13 0 15 7 10 43 -4 23 -11 52 -15 64 -5 14 -4 25 2 29 6 3 8 12
5 19 -2 7 3 16 12 20 11 4 29 -8 58 -39 23 -25 44 -43 48 -39 19 19 -9 82 -56
124 -24 21 -23 28 7 62 22 27 24 35 19 113 -5 75 -3 86 17 114 22 29 22 33 10
93 -7 34 -18 69 -25 77 -7 8 -16 23 -19 33 -8 22 -17 22 -49 -6z m36 -56 c13
-20 9 -103 -5 -112 -21 -13 -25 -11 -37 16 -17 36 -15 61 5 85 19 22 29 25 37
11z"/>
</g>
</svg>
