<svg version="1.0" xmlns="http://www.w3.org/2000/svg"
 width="89.000000pt" height="191.000000pt" viewBox="0 0 89.000000 191.000000"
 preserveAspectRatio="xMidYMid meet">
<metadata>
Created by potrace 1.15, written by Peter Selinger 2001-2017
</metadata>
<g transform="translate(0.000000,191.000000) scale(0.100000,-0.100000)"
fill="#000000" stroke="none">
<path d="M598 1790 c-31 -3 -60 -9 -64 -13 -12 -12 10 -42 35 -45 11 -2 21 -6
21 -10 0 -4 12 -8 28 -9 18 -1 39 -15 65 -45 59 -68 72 -102 70 -188 -2 -101
-35 -176 -91 -208 -22 -12 -47 -22 -56 -22 -30 0 -16 -19 31 -42 82 -41 86
-58 90 -357 4 -300 6 -340 39 -658 4 -35 11 -63 17 -63 7 0 7 35 1 107 -5 60
-9 275 -9 478 0 261 -4 376 -12 390 -6 11 -16 34 -23 51 -6 16 -24 38 -40 48
-29 17 -40 36 -20 36 15 0 58 47 74 82 32 69 45 148 51 308 7 165 7 165 -72
165 -43 1 -104 -2 -135 -5z m155 -57 c3 -5 2 -26 -2 -48 -6 -40 -6 -40 -33 8
-27 47 -27 47 2 47 16 0 31 -3 33 -7z"/>
<path d="M158 1762 c-43 -3 -51 -8 -50 -32 3 -80 26 -308 34 -345 20 -82 39
-108 106 -142 2 -1 -9 -15 -25 -32 -29 -30 -61 -88 -81 -146 -23 -67 -37 -221
-52 -580 -5 -126 -13 -263 -16 -303 -4 -46 -3 -72 3 -72 12 0 20 69 33 282 5
79 12 166 15 193 3 28 10 102 15 165 6 63 15 140 20 171 6 30 10 66 10 79 0
74 92 220 139 220 20 0 35 25 25 41 -3 5 -17 9 -32 9 -70 0 -132 85 -132 180
0 96 88 240 161 261 43 13 64 32 55 48 -6 9 -108 11 -228 3z m92 -58 c0 -4 -9
-14 -20 -24 -11 -9 -32 -44 -47 -76 -28 -59 -28 -59 -31 11 -2 57 0 72 14 82
18 13 84 18 84 7z"/>
<path d="M406 1698 c-9 -24 -21 -51 -27 -60 -5 -10 -9 -23 -9 -30 0 -7 -23
-57 -50 -111 -28 -55 -50 -101 -50 -103 0 -2 6 -4 14 -4 16 0 52 53 85 128 30
64 61 73 61 17 0 -32 -15 -72 -31 -85 -4 -3 -16 -25 -28 -49 -29 -62 -27 -119
5 -167 24 -35 26 -45 21 -107 -3 -38 -10 -74 -15 -80 -5 -7 -15 -33 -22 -60
-20 -76 10 -239 67 -355 39 -81 268 -310 289 -289 3 3 -23 34 -58 69 -61 60
-131 137 -171 187 -28 35 -52 82 -66 131 -7 25 -17 58 -22 74 -5 16 -9 50 -9
75 0 47 23 171 35 190 3 6 9 39 13 72 7 62 7 62 54 74 65 16 78 30 78 81 0 52
-25 121 -68 188 -37 58 -41 86 -12 86 11 0 20 -4 20 -8 0 -4 18 -36 40 -70 22
-33 40 -66 40 -72 0 -5 7 -10 15 -10 22 0 20 5 -31 105 -26 50 -57 110 -69
135 -23 46 -60 90 -73 90 -5 0 -16 -19 -26 -42z m57 -63 c19 -40 11 -49 -36
-43 -25 3 -25 3 -10 41 8 20 18 37 22 37 4 0 15 -16 24 -35z m10 -178 c19 -21
37 -56 37 -72 0 -12 -13 -15 -55 -15 -30 0 -55 3 -55 6 0 3 11 20 25 38 14 18
25 38 25 44 0 16 9 15 23 -1z m57 -143 c0 -47 -19 -64 -74 -64 -35 0 -48 5
-60 22 -31 43 -22 55 52 65 37 6 70 11 75 12 4 0 7 -15 7 -35z"/>
<path d="M468 1126 c-4 -41 -15 -84 -32 -117 -29 -59 -26 -75 7 -38 58 63 82
151 57 200 -18 33 -27 21 -32 -45z"/>
</g>
</svg>
