<svg version="1.0" xmlns="http://www.w3.org/2000/svg"
 width="121.000000pt" height="105.000000pt" viewBox="0 0 121.000000 105.000000"
 preserveAspectRatio="xMidYMid meet">
<metadata>
Created by potrace 1.15, written by Peter Selinger 2001-2017
</metadata>
<g transform="translate(0.000000,105.000000) scale(0.100000,-0.100000)"
fill="#000000" stroke="none">
<path d="M350 941 c-14 -5 -60 -19 -103 -32 -63 -19 -85 -30 -108 -58 -29 -36
-40 -93 -19 -106 5 -3 10 -14 10 -25 0 -10 26 -42 57 -71 101 -96 123 -121
123 -143 0 -8 5 -18 10 -21 16 -10 11 -71 -11 -132 -21 -56 -85 -151 -118
-176 -9 -7 -24 -24 -33 -39 -10 -15 -29 -38 -43 -52 -27 -27 -31 -41 -15 -51
14 -8 50 4 50 16 0 13 75 83 113 106 15 10 27 22 27 28 0 6 8 20 18 31 10 10
33 42 52 69 33 47 35 55 35 135 0 79 -2 88 -31 130 -32 46 -36 78 -22 185 3
17 5 46 6 65 1 26 13 48 42 80 22 24 39 49 37 55 -5 13 -45 16 -77 6z m-60
-123 c0 -17 -4 -45 -10 -62 -5 -17 -12 -44 -15 -60 -6 -29 -6 -29 -32 -5 -41
39 -46 65 -20 102 45 64 77 75 77 25z"/>
<path d="M812 927 c2 -15 17 -29 45 -42 36 -17 46 -28 63 -74 11 -30 23 -73
27 -97 3 -24 10 -44 14 -44 5 0 9 -11 9 -24 0 -14 4 -27 9 -30 25 -16 18 -87
-11 -117 -22 -22 -49 -98 -63 -174 -12 -64 -11 -73 7 -111 21 -45 77 -102 148
-151 60 -41 86 -48 105 -29 13 13 13 16 -1 30 -8 9 -36 28 -62 43 -26 15 -66
46 -90 69 -43 41 -43 42 -41 105 3 78 30 157 78 227 51 74 81 133 81 156 0 8
5 16 12 18 6 2 11 18 11 36 0 18 4 32 8 32 12 0 -11 51 -34 77 -21 24 -136 83
-161 83 -8 0 -17 4 -20 9 -3 4 -25 11 -48 14 -24 3 -53 8 -66 11 -19 4 -23 1
-20 -17z m225 -112 c28 -14 45 -43 47 -85 2 -24 -28 -102 -39 -104 -5 0 -13
24 -16 54 -4 30 -13 74 -21 97 -9 23 -13 45 -10 48 7 7 4 7 39 -10z"/>
<path d="M650 912 c0 -10 -13 -39 -30 -65 -16 -26 -30 -54 -30 -62 0 -8 -4
-15 -10 -15 -5 0 -10 -7 -10 -15 0 -8 -9 -34 -19 -58 -34 -74 -43 -117 -36
-160 13 -86 16 -174 8 -258 -12 -122 4 -163 69 -173 61 -10 92 31 102 134 3
36 8 92 11 125 3 32 9 62 14 65 18 11 39 68 48 125 10 64 2 165 -17 230 -6 22
-14 52 -18 66 -16 59 -82 109 -82 61z m29 -134 c7 -24 17 -57 22 -74 22 -72 8
-87 -71 -76 -31 5 -46 12 -48 24 -3 17 43 132 63 155 16 20 21 15 34 -29z m31
-246 c0 -32 -4 -39 -32 -52 -41 -18 -66 -14 -89 13 -39 46 -12 76 69 77 52 0
52 0 52 -38z m-57 -154 c7 -44 -2 -146 -15 -181 -9 -22 -16 -27 -37 -25 -25 3
-26 6 -25 63 0 33 3 86 8 118 7 54 9 57 35 57 24 0 29 -5 34 -32z"/>
</g>
</svg>
