<svg version="1.0" xmlns="http://www.w3.org/2000/svg"
 width="93.000000pt" height="85.000000pt" viewBox="0 0 93.000000 85.000000"
 preserveAspectRatio="xMidYMid meet">
<metadata>
Created by potrace 1.15, written by Peter Selinger 2001-2017
</metadata>
<g transform="translate(0.000000,85.000000) scale(0.100000,-0.100000)"
fill="#000000" stroke="none">
<path d="M610 683 c0 -47 39 -133 61 -133 6 0 18 -7 26 -16 14 -14 15 -24 4
-82 -16 -82 -32 -133 -48 -150 -17 -18 -16 -31 3 -67 15 -27 23 -114 13 -141
-7 -21 16 -13 27 9 32 62 36 75 26 93 -6 11 -12 35 -14 54 -3 34 -2 35 37 38
50 3 123 39 131 64 10 34 -26 125 -68 168 -22 22 -43 40 -48 40 -15 0 -70 58
-70 74 0 9 -4 16 -10 16 -5 0 -10 7 -10 15 0 28 -24 65 -42 65 -15 0 -18 -8
-18 -47z m199 -242 c30 -42 27 -76 -6 -89 -80 -30 -90 -25 -63 28 11 22 20 51
20 65 0 34 24 32 49 -4z"/>
<path d="M424 689 c-25 -41 -74 -146 -74 -159 0 -9 -5 -21 -11 -27 -11 -11
-15 -175 -4 -193 3 -6 9 -23 11 -38 8 -40 39 -107 70 -147 29 -39 70 -49 59
-15 -3 11 -3 20 2 20 9 0 17 17 62 130 39 99 39 195 0 230 -3 3 -11 21 -19 40
-8 19 -17 37 -21 40 -4 3 -9 20 -12 38 -3 18 -11 40 -17 48 -7 7 -9 14 -5 14
4 0 2 7 -5 15 -15 18 -26 19 -36 4z m26 -125 c0 -8 4 -14 8 -14 10 0 32 -45
32 -65 0 -11 -13 -15 -50 -15 -43 0 -50 3 -50 20 0 11 5 20 10 20 6 0 10 9 10
20 0 25 21 60 32 54 4 -3 8 -12 8 -20z m64 -181 c-1 -45 -21 -73 -53 -73 -60
0 -104 58 -75 99 13 18 24 21 72 18 57 -2 57 -2 56 -44z m-20 -140 c-10 -42
-34 -84 -44 -78 -13 8 -40 66 -40 87 0 15 8 18 45 18 44 0 45 -1 39 -27z"/>
<path d="M177 683 c-4 -3 -7 -16 -7 -27 0 -21 -19 -82 -31 -101 -4 -5 -16 -26
-27 -46 -19 -35 -29 -54 -52 -99 -13 -25 -13 -67 0 -75 6 -3 10 -14 10 -24 0
-22 44 -61 70 -61 40 0 70 -22 70 -52 0 -87 35 -142 100 -154 25 -6 29 -4 24
10 -3 9 -10 16 -15 16 -24 0 -49 66 -49 131 0 53 -4 69 -20 84 -11 10 -20 25
-20 34 0 9 -9 43 -20 75 -25 73 -25 96 -2 138 43 78 46 94 22 128 -21 29 -39
37 -53 23z m3 -339 c13 -41 13 -54 -3 -54 -44 0 -69 74 -39 120 15 25 15 25
24 -5 5 -17 13 -44 18 -61z"/>
</g>
</svg>
