<svg version="1.0" xmlns="http://www.w3.org/2000/svg"
 width="107.000000pt" height="121.000000pt" viewBox="0 0 107.000000 121.000000"
 preserveAspectRatio="xMidYMid meet">
<metadata>
Created by potrace 1.15, written by Peter Selinger 2001-2017
</metadata>
<g transform="translate(0.000000,121.000000) scale(0.100000,-0.100000)"
fill="#000000" stroke="none">
<path d="M698 1135 c-11 -11 12 -135 32 -169 37 -66 50 -83 75 -94 29 -13 42
-56 50 -162 8 -119 5 -182 -12 -217 -10 -22 -13 -48 -10 -80 10 -80 19 -123
28 -129 5 -3 9 -13 9 -23 0 -30 51 -132 63 -128 22 7 19 58 -8 143 -21 65 -26
98 -23 144 4 56 7 63 54 109 32 32 55 66 64 93 7 24 22 53 33 65 20 23 20 23
1 59 -25 47 -81 107 -122 128 -53 28 -121 109 -171 206 -27 52 -48 70 -63 55z
m272 -414 c0 -20 -11 -53 -24 -75 -23 -39 -23 -39 -24 59 -1 98 -1 98 23 75
18 -17 25 -34 25 -59z"/>
<path d="M461 1050 c-17 -19 -36 -58 -50 -103 -12 -39 -30 -99 -41 -132 -10
-33 -24 -99 -30 -147 -11 -84 -11 -89 12 -130 12 -24 27 -46 32 -49 5 -4 8
-45 7 -92 -2 -93 8 -136 56 -227 59 -113 90 -140 119 -103 16 20 56 101 72
148 17 47 24 185 13 234 -9 40 -7 49 15 87 20 34 26 58 27 113 0 39 -4 81 -10
93 -6 13 -21 50 -34 83 -12 33 -26 62 -30 65 -4 3 -22 34 -39 70 -39 77 -68
120 -81 120 -5 0 -22 -14 -38 -30z m69 -150 c0 -6 12 -29 27 -53 26 -40 55
-108 49 -114 -1 -2 -37 -6 -79 -9 -71 -6 -77 -6 -77 12 0 18 42 143 55 164 8
13 25 13 25 0z m84 -287 c-7 -56 -53 -110 -82 -97 -10 4 -31 9 -49 12 -36 5
-57 41 -51 88 3 33 18 38 125 42 63 3 63 3 57 -45z m-35 -180 c10 -11 14 -38
14 -97 0 -75 -13 -116 -50 -165 -1 -2 -13 9 -25 25 -49 61 -71 248 -30 256 29
6 75 -4 91 -19z"/>
<path d="M225 1018 c-4 -18 -9 -51 -10 -73 -3 -40 -9 -47 -91 -115 -48 -39
-84 -101 -90 -157 -8 -64 2 -81 75 -129 33 -21 65 -50 70 -64 12 -27 12 -108
1 -115 -14 -9 6 -175 21 -175 5 0 9 -7 9 -15 0 -21 20 -54 50 -82 29 -26 50
-30 50 -8 0 20 -22 65 -32 65 -4 0 -8 9 -8 19 0 11 -4 22 -9 25 -9 6 -18 43
-27 114 -4 32 0 55 16 90 15 32 20 55 15 76 -13 58 -20 231 -13 289 4 31 17
76 29 99 12 23 23 61 24 83 4 81 -64 143 -80 73z m-35 -333 c0 -58 -4 -105 -8
-105 -5 0 -20 9 -33 21 -20 18 -24 30 -24 79 1 53 4 62 30 84 17 14 31 26 33
26 1 0 2 -47 2 -105z"/>
</g>
</svg>
