<svg version="1.0" xmlns="http://www.w3.org/2000/svg"
 width="79.000000pt" height="101.000000pt" viewBox="0 0 79.000000 101.000000"
 preserveAspectRatio="xMidYMid meet">
<metadata>
Created by potrace 1.15, written by Peter Selinger 2001-2017
</metadata>
<g transform="translate(0.000000,101.000000) scale(0.100000,-0.100000)"
fill="#000000" stroke="none">
<path d="M206 823 c-3 -10 -8 -56 -12 -103 -4 -47 -15 -103 -24 -125 -32 -71
-52 -145 -46 -169 3 -13 18 -32 33 -42 44 -28 49 -36 56 -83 5 -44 5 -44 -48
13 -29 31 -60 56 -69 56 -20 0 -21 -36 -1 -74 8 -15 15 -50 15 -77 0 -31 7
-60 20 -81 20 -33 20 -33 20 42 1 61 3 72 13 60 14 -19 81 -70 90 -70 4 0 13
15 20 33 19 45 5 153 -23 177 -17 14 -20 30 -20 92 0 41 5 101 11 134 16 86
16 198 0 218 -17 21 -28 20 -35 -1z"/>
<path d="M522 818 c-19 -19 -14 -95 8 -140 24 -50 24 -46 3 -51 -13 -3 -8 -7
14 -12 37 -9 41 -22 42 -170 2 -192 59 -342 92 -246 17 49 39 40 40 -16 1 -27
4 -59 9 -73 7 -25 7 -25 14 0 4 14 6 65 4 115 -3 89 -3 90 -28 90 -18 0 -26
-6 -28 -23 -2 -12 -8 -22 -13 -22 -11 0 -12 15 0 38 29 57 35 78 35 125 1 31
-7 68 -18 92 -25 54 -83 142 -97 147 -10 3 -49 109 -49 134 0 19 -15 25 -28
12z m137 -365 c1 -12 -3 -24 -8 -27 -9 -6 -21 52 -20 99 1 29 2 28 14 -10 8
-22 14 -50 14 -62z"/>
<path d="M374 783 c-25 -59 -47 -108 -53 -113 -7 -6 -31 -68 -38 -96 -3 -15 4
-31 25 -50 16 -16 34 -45 40 -64 13 -48 45 -120 53 -120 14 0 43 78 47 127 3
34 11 58 23 69 14 13 19 31 19 70 0 29 -4 56 -10 59 -5 3 -10 13 -10 22 0 9
-8 35 -19 57 -10 23 -21 49 -24 59 -10 29 -37 19 -53 -20z m44 -118 c7 -14 12
-37 12 -50 0 -22 -4 -25 -40 -25 -22 0 -40 2 -40 5 0 11 45 95 50 95 4 0 12
-11 18 -25z"/>
</g>
</svg>
