<svg version="1.0" xmlns="http://www.w3.org/2000/svg"
 width="99.000000pt" height="127.000000pt" viewBox="0 0 99.000000 127.000000"
 preserveAspectRatio="xMidYMid meet">
<metadata>
Created by potrace 1.15, written by Peter Selinger 2001-2017
</metadata>
<g transform="translate(0.000000,127.000000) scale(0.100000,-0.100000)"
fill="#000000" stroke="none">
<path d="M610 1156 c0 -8 5 -18 10 -21 6 -3 10 -15 10 -26 0 -10 4 -19 9 -19
5 0 11 -13 14 -30 4 -16 29 -53 57 -82 59 -61 63 -73 56 -153 -16 -169 -22
-207 -37 -218 -41 -31 -27 -96 36 -167 54 -60 65 -98 65 -217 0 -56 4 -94 11
-99 16 -9 29 15 29 53 0 18 5 44 12 58 16 35 -5 139 -34 169 -30 31 -74 98
-82 122 -4 14 -1 28 9 37 8 9 15 20 15 25 0 12 24 22 51 22 15 0 72 30 109 58
8 6 6 141 -2 136 -4 -3 -15 10 -24 28 -17 33 -89 107 -131 135 -12 8 -45 49
-74 91 -68 98 -109 135 -109 98z m270 -336 c39 -76 29 -117 -37 -147 -26 -12
-49 -18 -51 -13 -2 5 1 26 7 47 6 21 11 57 11 79 0 23 3 56 6 73 6 31 7 31 26
14 11 -10 28 -34 38 -53z"/>
<path d="M442 1128 c-7 -7 -12 -16 -12 -20 0 -5 -9 -18 -20 -30 -11 -12 -20
-28 -20 -35 0 -7 -3 -13 -8 -13 -4 0 -18 -21 -32 -47 -13 -27 -27 -50 -30 -53
-17 -16 -31 -61 -25 -79 5 -17 9 -19 25 -9 10 7 21 20 23 30 6 21 63 26 70 6
4 -12 -37 -97 -52 -108 -16 -12 -49 -67 -55 -93 -10 -41 10 -103 41 -125 24
-18 26 -24 24 -83 -2 -65 27 -170 49 -177 6 -2 10 -9 10 -16 0 -20 20 -34 40
-29 39 10 74 117 75 228 1 39 5 100 9 136 9 71 4 89 -54 189 -15 25 -30 57
-33 72 -7 25 -4 28 27 34 39 7 56 0 56 -22 0 -18 8 -18 26 1 16 16 10 31 -56
138 -16 26 -33 61 -38 79 -9 36 -22 44 -40 26z m46 -133 c12 -19 22 -36 22
-39 0 -2 -17 -6 -37 -9 -21 -3 -53 -9 -71 -13 -33 -7 -33 -7 -10 32 48 82 59
85 96 29z m-24 -219 c9 -19 16 -37 16 -40 0 -3 -20 -6 -45 -6 -43 0 -44 1 -35
25 10 27 31 54 41 55 4 0 14 -15 23 -34z m36 -111 c0 -15 -7 -39 -15 -55 -13
-26 -21 -30 -56 -30 -52 0 -79 15 -79 43 0 32 55 66 108 66 39 1 42 -1 42 -24z
m-42 -148 c32 -38 38 -129 12 -167 -9 -13 -12 -12 -25 4 -10 14 -15 44 -15 98
0 76 7 91 28 65z"/>
<path d="M174 1045 c-3 -19 -10 -35 -14 -35 -8 0 -44 -71 -59 -119 -6 -19 -11
-62 -11 -97 0 -35 -5 -66 -10 -69 -6 -4 -8 -15 -5 -26 4 -10 -1 -33 -9 -51 -9
-17 -16 -49 -16 -70 0 -75 38 -114 133 -138 62 -15 62 -15 65 -125 2 -89 6
-119 24 -155 20 -41 83 -110 100 -110 15 0 8 19 -17 44 -14 14 -25 32 -25 41
0 8 -4 15 -10 15 -18 0 -31 83 -28 185 3 99 2 105 -19 120 -16 11 -23 26 -23
48 0 58 -21 111 -60 152 -24 25 -40 54 -44 78 -9 51 16 136 50 167 57 54 70
121 31 158 -33 31 -45 27 -53 -13z m5 -440 c14 -29 21 -90 12 -104 -13 -20
-83 18 -95 51 -8 22 -5 33 14 61 20 29 27 33 41 24 10 -6 22 -20 28 -32z"/>
</g>
</svg>
