<svg version="1.0" xmlns="http://www.w3.org/2000/svg"
 width="72.000000pt" height="89.000000pt" viewBox="0 0 72.000000 89.000000"
 preserveAspectRatio="xMidYMid meet">
<metadata>
Created by potrace 1.15, written by Peter Selinger 2001-2017
</metadata>
<g transform="translate(0.000000,89.000000) scale(0.100000,-0.100000)"
fill="#000000" stroke="none">
<path d="M276 624 c-14 -13 -16 -53 -16 -282 0 -324 -4 -312 104 -312 50 0 77
4 85 14 15 18 -11 40 -38 31 -12 -3 -41 -3 -66 1 -46 6 -46 6 -43 113 3 106 3
106 46 109 42 3 42 3 42 -88 0 -82 2 -91 18 -88 14 3 18 19 24 93 4 50 5 96 3
103 -3 8 -27 12 -70 12 -66 0 -66 0 -63 28 3 25 7 27 65 34 35 4 67 10 73 13
6 3 10 51 10 110 0 122 -2 125 -99 125 -41 0 -64 -5 -75 -16z m129 -69 c0 -30
-1 -30 -55 -30 -55 0 -55 0 -58 33 -3 33 -3 33 55 30 57 -3 58 -3 58 -33z m7
-95 c-3 -23 -9 -30 -27 -30 -12 0 -37 -3 -54 -6 -30 -6 -31 -6 -31 30 0 36 0
36 58 36 59 0 59 0 54 -30z"/>
<path d="M100 623 c-36 -13 -40 -33 -40 -223 0 -208 4 -220 68 -220 30 0 32
-2 32 -39 0 -42 -13 -51 -75 -51 -35 0 -56 -16 -48 -36 11 -29 143 -6 165 29
4 7 8 128 8 269 0 244 -1 258 -19 268 -21 10 -65 12 -91 3z m65 -218 c0 -170
0 -170 -25 -170 -25 0 -25 0 -28 160 -1 87 0 165 3 173 3 7 15 12 27 10 23 -3
23 -4 23 -173z"/>
<path d="M496 614 c-3 -9 -6 -134 -6 -279 0 -261 0 -264 22 -279 30 -21 131
-22 148 -1 24 29 4 44 -62 47 -63 3 -63 3 -66 39 -3 36 -2 36 39 43 24 4 49
12 56 18 16 13 19 379 3 409 -9 15 -22 19 -69 19 -44 0 -60 -4 -65 -16z m99
-204 c0 -175 0 -175 -32 -178 -33 -3 -33 -3 -33 171 0 95 3 177 7 181 4 4 19
6 33 4 25 -3 25 -3 25 -178z"/>
</g>
</svg>
