<svg version="1.0" xmlns="http://www.w3.org/2000/svg"
 width="59.000000pt" height="107.000000pt" viewBox="0 0 59.000000 107.000000"
 preserveAspectRatio="xMidYMid meet">
<metadata>
Created by potrace 1.15, written by Peter Selinger 2001-2017
</metadata>
<g transform="translate(0.000000,107.000000) scale(0.100000,-0.100000)"
fill="#000000" stroke="none">
<path d="M194 889 c-7 -13 62 -79 82 -79 13 0 24 -22 24 -46 0 -10 -14 -14
-55 -14 -30 0 -55 -4 -55 -8 0 -12 46 -32 74 -32 32 0 50 -23 40 -52 -4 -13
-7 -27 -6 -31 1 -4 -6 -10 -15 -14 -10 -3 -30 -15 -45 -25 -52 -36 -140 -78
-164 -78 -29 0 -32 -16 -4 -25 30 -9 70 2 144 41 36 19 68 34 71 34 3 0 5 -28
4 -62 -2 -37 5 -88 15 -123 17 -57 17 -59 -1 -72 -10 -7 -24 -17 -30 -23 -7
-6 -28 -20 -48 -31 -42 -25 -45 -39 -9 -39 24 0 85 34 92 52 2 4 12 8 23 8 28
0 28 -89 -1 -115 -24 -22 -26 -37 -4 -28 13 5 15 1 10 -15 -19 -66 -18 -68 6
-35 31 43 46 48 60 18 6 -14 15 -25 20 -25 12 0 10 78 -2 85 -16 10 -12 55 10
112 14 37 17 59 11 75 -5 13 -15 43 -22 68 -7 25 -19 55 -27 67 -10 16 -11 27
-2 42 13 25 14 25 34 6 8 -8 30 -18 48 -21 33 -5 33 -5 -12 35 -46 42 -49 63
-5 43 38 -18 38 2 -1 42 -42 43 -39 55 10 32 40 -19 46 -20 46 -6 0 6 -20 25
-45 42 -45 32 -45 32 -21 47 24 15 40 47 30 63 -3 4 -19 8 -35 8 -16 0 -41 7
-54 16 -13 9 -29 13 -35 9 -13 -8 -79 14 -105 36 -32 26 -43 30 -51 18z m180
-243 c5 -34 2 -54 -15 -89 -22 -46 -22 -46 4 -105 32 -71 47 -157 27 -150 -8
2 -20 24 -28 49 -8 24 -19 54 -25 66 -6 13 -7 49 -3 85 4 35 9 91 13 126 3 34
9 62 13 62 4 0 11 -20 14 -44z"/>
</g>
</svg>
