<svg version="1.0" xmlns="http://www.w3.org/2000/svg"
 width="63.000000pt" height="83.000000pt" viewBox="0 0 63.000000 83.000000"
 preserveAspectRatio="xMidYMid meet">
<metadata>
Created by potrace 1.15, written by Peter Selinger 2001-2017
</metadata>
<g transform="translate(0.000000,83.000000) scale(0.100000,-0.100000)"
fill="#000000" stroke="none">
<path d="M202 630 c-24 -3 -48 -13 -53 -21 -21 -32 -31 -96 -25 -159 17 -177
16 -171 51 -186 27 -11 53 -11 142 -2 71 7 122 8 148 2 40 -10 40 -10 48 -69
14 -113 -2 -124 -172 -126 -156 -2 -215 -11 -219 -33 -4 -18 3 -19 189 -12
174 7 196 9 215 27 43 40 55 147 25 222 -9 24 -16 27 -58 27 -27 0 -65 3 -85
6 -33 6 -38 10 -38 35 0 15 4 30 8 33 5 3 46 8 91 12 68 6 81 10 79 23 -3 13
-17 16 -86 13 -82 -3 -82 -3 -82 27 0 28 3 30 43 35 23 3 60 7 82 8 28 2 40 8
40 18 0 12 -17 16 -82 18 -85 3 -92 7 -77 46 5 13 22 16 79 16 76 0 107 14 83
38 -13 13 -270 15 -346 2z m132 -62 c-12 -43 -24 -48 -99 -48 -72 0 -72 0 -67
26 6 33 31 43 110 43 61 1 63 0 56 -21z m-6 -115 c-3 -26 -7 -28 -68 -35 -78
-9 -90 -6 -90 26 0 31 9 34 93 35 68 1 68 1 65 -26z m2 -112 c0 -27 -3 -30
-44 -36 -66 -10 -106 1 -106 30 0 27 13 32 93 34 57 1 57 1 57 -28z"/>
<path d="M170 183 c-14 -3 -31 -9 -37 -15 -29 -24 3 -29 135 -22 148 8 184 14
190 32 3 9 -30 12 -130 11 -73 -1 -144 -4 -158 -6z"/>
</g>
</svg>
