<svg version="1.0" xmlns="http://www.w3.org/2000/svg"
 width="71.000000pt" height="88.000000pt" viewBox="0 0 71.000000 88.000000"
 preserveAspectRatio="xMidYMid meet">
<metadata>
Created by potrace 1.15, written by Peter Selinger 2001-2017
</metadata>
<g transform="translate(0.000000,88.000000) scale(0.100000,-0.100000)"
fill="#000000" stroke="none">
<path d="M183 697 c-33 -7 -45 -17 -58 -43 -14 -29 -14 -48 -4 -146 12 -120
25 -153 65 -168 13 -5 24 -12 24 -15 0 -3 -11 -28 -25 -55 -13 -26 -29 -70
-35 -97 -14 -59 -5 -133 16 -133 16 0 17 2 20 95 2 92 47 195 84 195 8 0 9 -7
5 -18 -50 -119 -68 -219 -46 -261 25 -46 36 -18 33 80 -3 87 -2 98 23 141 26
47 42 64 51 56 2 -3 -6 -42 -17 -89 -17 -67 -20 -94 -13 -139 6 -38 14 -55 24
-55 12 0 14 14 11 83 -3 68 1 92 19 137 23 58 47 79 74 69 20 -8 20 -18 0 -35
-34 -28 -48 -73 -49 -156 0 -65 4 -86 17 -99 16 -16 18 -16 24 -1 3 9 1 31 -5
48 -16 47 -13 95 9 138 33 65 64 88 77 55 3 -10 -8 -29 -31 -53 -34 -34 -37
-42 -31 -75 8 -42 75 -116 105 -116 31 0 24 20 -20 57 -50 43 -51 66 -3 127
35 45 36 48 24 86 -11 36 -16 41 -63 55 -28 8 -64 15 -80 15 -23 0 -28 4 -28
24 0 29 21 36 108 36 55 0 63 2 60 18 -3 14 -16 17 -86 20 -82 3 -82 3 -82 31
0 34 14 41 83 41 66 0 97 9 97 26 0 10 -23 14 -92 16 -93 3 -93 3 -93 33 0 30
0 30 70 33 88 3 115 9 115 26 0 8 -10 16 -22 20 -37 9 -309 5 -355 -7z m135
-69 c-3 -33 -3 -33 -76 -36 -73 -3 -73 -3 -70 25 3 31 26 40 106 42 43 1 43 1
40 -31z m2 -118 c0 -30 0 -30 -75 -30 -75 0 -75 0 -75 30 0 30 0 30 75 30 75
0 75 0 75 -30z m0 -110 c0 -30 0 -30 -59 -30 -51 0 -62 3 -75 22 -9 12 -16 26
-16 30 0 5 34 8 75 8 75 0 75 0 75 -30z"/>
</g>
</svg>
