<svg version="1.0" xmlns="http://www.w3.org/2000/svg"
 width="91.000000pt" height="185.000000pt" viewBox="0 0 91.000000 185.000000"
 preserveAspectRatio="xMidYMid meet">
<metadata>
Created by potrace 1.15, written by Peter Selinger 2001-2017
</metadata>
<g transform="translate(0.000000,185.000000) scale(0.100000,-0.100000)"
fill="#000000" stroke="none">
<path d="M717 1647 c-72 -71 -109 -96 -131 -87 -11 4 -48 14 -81 21 -33 6 -85
18 -115 26 -30 7 -79 16 -108 20 -53 6 -53 6 -51 -59 3 -59 1 -67 -25 -93 -27
-27 -28 -29 -10 -42 24 -18 187 -96 238 -114 52 -19 67 -43 56 -94 -11 -53
-40 -158 -45 -163 -4 -5 -69 33 -88 52 -6 6 -28 23 -47 36 -54 38 -70 53 -70
67 0 16 -16 17 -26 2 -9 -15 -24 9 -24 39 0 45 -83 52 -149 11 -26 -16 -31
-25 -31 -56 0 -41 32 -103 53 -103 18 0 67 23 67 33 0 4 6 7 13 7 7 0 23 9 34
20 19 17 22 18 35 3 7 -9 35 -33 63 -53 27 -21 61 -47 74 -59 13 -11 27 -21
31 -21 18 0 50 -40 50 -63 0 -37 20 -126 37 -167 36 -83 75 -160 88 -173 7 -8
28 -36 45 -63 31 -49 31 -49 8 -56 -35 -9 -132 -9 -164 1 -16 5 -51 15 -79 23
-33 9 -62 25 -86 51 -41 42 -70 46 -101 17 -12 -11 -28 -20 -35 -20 -17 0 -18
-71 -1 -88 17 -17 71 -15 105 4 27 16 32 16 93 -7 54 -20 90 -25 215 -29 150
-5 150 -5 153 -36 2 -25 -5 -39 -40 -75 -24 -24 -60 -55 -81 -69 -36 -25 -47
-40 -27 -40 10 0 23 5 67 28 32 17 43 15 43 -6 0 -25 -55 -75 -118 -107 -29
-15 -55 -31 -58 -37 -14 -22 10 -20 56 5 28 15 50 23 50 18 0 -6 -6 -14 -13
-18 -19 -12 -57 -69 -50 -76 8 -9 40 10 75 44 32 30 48 30 48 -1 0 -24 10 -50
20 -50 15 0 19 29 11 82 -5 29 -6 58 -4 65 8 19 26 16 41 -7 19 -31 35 -14 27
29 -4 20 -12 42 -18 49 -8 10 -7 22 1 45 16 46 19 296 4 324 -7 12 -12 37 -12
55 0 19 -4 38 -10 44 -13 13 -26 204 -13 204 5 0 27 -20 49 -45 21 -24 42 -45
47 -45 4 0 7 12 7 28 0 19 -15 42 -50 79 -48 50 -50 55 -44 93 7 40 7 40 26
18 11 -13 27 -33 35 -45 22 -32 33 -28 33 11 0 25 -11 45 -42 82 -24 27 -45
51 -49 54 -6 5 -29 113 -29 137 0 16 43 -13 87 -59 15 -16 30 -28 35 -28 14 0
9 48 -7 64 -8 8 -15 19 -15 24 0 5 -12 18 -27 27 -14 10 -36 29 -48 43 -22 25
-22 26 -4 46 11 11 19 26 19 33 0 7 3 13 8 13 12 0 32 52 32 84 1 17 7 42 14
55 33 59 -17 87 -67 38z m-352 -87 c3 -5 17 -10 30 -10 13 0 34 -4 47 -9 13
-5 37 -13 53 -16 30 -7 30 -7 6 -16 -63 -24 -90 -43 -101 -69 -7 -16 -9 -34
-5 -39 3 -6 4 -11 2 -11 -6 0 -73 28 -114 47 -34 16 -44 33 -19 33 29 0 39 27
22 61 -9 18 -16 34 -16 36 0 8 89 2 95 -7z m330 -54 c-15 -35 -35 -41 -35 -11
0 14 40 58 47 51 2 -1 -4 -20 -12 -40z m-97 -8 c7 -7 12 -32 12 -57 -1 -42 -4
-49 -44 -78 -24 -18 -53 -33 -64 -33 -34 0 -26 17 12 24 30 6 35 11 45 51 15
58 14 62 -9 85 -20 20 -20 20 8 20 15 0 33 -5 40 -12z m-86 -63 c16 -35 -2
-53 -39 -39 -33 11 -39 27 -18 48 23 23 44 20 57 -9z m120 -141 c4 -32 1 -37
-30 -50 -19 -8 -38 -14 -43 -14 -18 0 -9 49 14 74 32 37 54 34 59 -10z m-502
-68 c0 -22 -16 -36 -41 -36 -13 0 -11 34 3 48 20 20 38 14 38 -12z m528 -59
c7 -18 12 -50 12 -70 0 -32 -5 -40 -40 -62 -22 -14 -44 -25 -50 -25 -5 0 -10
-4 -10 -9 0 -5 -10 -11 -22 -14 -13 -2 -31 -8 -40 -12 -35 -14 -20 99 23 180
15 29 24 33 104 44 6 0 16 -14 23 -32z m-8 -215 c0 -58 -87 -107 -140 -79 -38
20 -30 36 30 60 30 13 64 28 75 35 30 17 35 15 35 -16z m0 -154 c0 -30 14
-105 39 -213 6 -22 9 -40 8 -42 -5 -5 -24 14 -47 47 -13 19 -27 37 -30 40 -9
8 -63 101 -77 134 -17 37 -16 47 1 40 8 -3 27 1 43 10 46 25 63 21 63 -16z
m-402 -229 c2 -10 -6 -19 -20 -22 -28 -8 -32 -4 -23 23 8 24 38 23 43 -1z"/>
</g>
</svg>
