<svg version="1.0" xmlns="http://www.w3.org/2000/svg"
 width="69.000000pt" height="125.000000pt" viewBox="0 0 69.000000 125.000000"
 preserveAspectRatio="xMidYMid meet">
<metadata>
Created by potrace 1.15, written by Peter Selinger 2001-2017
</metadata>
<g transform="translate(0.000000,125.000000) scale(0.100000,-0.100000)"
fill="#000000" stroke="none">
<path d="M342 1083 c-83 -84 -147 -157 -183 -208 -31 -45 -34 -57 -34 -120 0
-90 8 -119 46 -155 24 -22 29 -34 23 -52 -6 -21 -59 -105 -73 -118 -3 -3 -12
-15 -19 -27 -23 -43 8 -23 74 46 67 70 94 80 94 37 0 -12 -8 -31 -18 -42 -28
-30 -92 -127 -87 -132 3 -3 34 27 71 66 70 76 76 77 101 21 10 -23 8 -31 -20
-65 -17 -22 -34 -41 -37 -44 -4 -3 -26 -34 -50 -70 -43 -63 -43 -64 -15 -46
17 10 59 48 94 84 77 79 74 81 126 -86 20 -65 39 -121 41 -127 14 -34 -10 142
-27 195 -33 99 -33 100 -67 170 -38 78 -39 82 -9 71 12 -5 56 -19 97 -31 41
-12 83 -26 93 -31 10 -6 24 -6 33 -1 14 8 12 12 -12 29 -16 11 -67 35 -114 53
-47 18 -89 37 -95 42 -5 4 -17 8 -27 8 -28 0 -21 23 17 60 33 32 39 34 130 40
89 6 116 13 103 26 -3 3 -47 5 -98 5 -91 0 -92 0 -85 22 4 12 9 31 12 43 5 24
53 44 104 44 33 1 69 19 69 35 0 4 -36 6 -79 3 -79 -5 -79 -5 -84 36 -7 48 3
62 46 69 74 12 102 23 105 41 3 15 0 18 -19 12 -13 -3 -49 -9 -80 -12 -55 -6
-55 -6 -67 33 -7 22 -12 59 -12 82 0 22 -5 41 -10 41 -6 0 -31 -21 -58 -47z
m53 -144 c4 -65 3 -109 -3 -113 -10 -6 -61 46 -99 100 -22 31 -22 31 30 86 31
33 55 51 58 44 4 -6 10 -59 14 -117z m-85 -94 c1 -5 18 -27 39 -48 36 -37 37
-41 27 -78 -5 -21 -16 -41 -23 -43 -12 -5 -163 140 -163 156 0 9 22 50 31 58
3 3 9 14 13 25 7 18 10 16 42 -20 19 -22 34 -44 34 -50z m-100 -88 c0 -4 27
-33 60 -64 33 -31 60 -59 60 -63 0 -4 -11 -15 -24 -23 -19 -13 -29 -14 -59 -3
-20 7 -45 20 -56 30 -21 19 -37 101 -26 135 5 17 9 19 26 8 10 -6 19 -15 19
-20z"/>
</g>
</svg>
