<svg version="1.0" xmlns="http://www.w3.org/2000/svg"
 width="81.000000pt" height="115.000000pt" viewBox="0 0 81.000000 115.000000"
 preserveAspectRatio="xMidYMid meet">
<metadata>
Created by potrace 1.15, written by Peter Selinger 2001-2017
</metadata>
<g transform="translate(0.000000,115.000000) scale(0.100000,-0.100000)"
fill="#000000" stroke="none">
<path d="M265 1040 c-12 -20 9 -66 48 -104 46 -44 46 -43 -48 -82 -30 -12 -51
-28 -53 -38 -8 -40 49 -42 114 -4 48 28 78 21 82 -19 2 -24 -3 -39 -20 -56
-32 -32 -108 -67 -145 -67 -26 0 -62 -20 -99 -55 -17 -17 -46 -76 -56 -115 -5
-19 -13 -48 -18 -65 -25 -85 -36 -145 -30 -155 13 -21 42 -6 61 30 20 38 52
51 124 54 39 1 40 0 46 -39 3 -22 15 -60 28 -83 12 -24 20 -49 18 -55 -3 -7
-27 -23 -56 -37 -53 -26 -70 -48 -49 -62 22 -13 57 -9 109 14 50 21 50 21 91
-25 40 -47 71 -59 81 -33 5 14 -11 44 -45 80 -26 28 -23 36 31 88 27 26 55 60
62 77 12 26 20 31 49 32 19 1 40 0 45 -1 6 -2 24 -5 42 -8 26 -3 35 -11 47
-43 31 -77 66 -33 66 82 0 88 -17 203 -37 248 -30 68 -110 124 -203 145 -18 4
-33 21 -53 58 -15 29 -27 58 -27 65 0 6 -19 32 -42 57 -24 24 -58 63 -77 85
-33 40 -72 54 -86 31z m209 -374 c3 -13 8 -31 12 -39 4 -12 -5 -15 -45 -15
-28 0 -51 2 -51 4 0 8 63 74 71 74 4 0 10 -11 13 -24z m174 -32 c12 -8 22 -21
22 -29 0 -8 5 -15 10 -15 6 0 10 -11 10 -25 0 -27 -12 -30 -67 -19 -31 6 -53
45 -53 92 0 19 4 21 28 16 15 -4 37 -13 50 -20z m-342 -41 c-9 -37 -29 -51
-83 -59 -53 -8 -66 1 -35 26 12 10 22 23 22 29 0 11 49 28 84 30 15 1 17 -4
12 -26z m192 -56 c12 -9 18 -117 7 -117 -3 0 -23 9 -44 19 -38 20 -72 19 -99
-2 -7 -5 -15 -7 -18 -4 -5 5 4 97 9 97 1 0 20 7 42 14 40 15 79 12 103 -7z
m-228 -76 c0 -26 -4 -29 -37 -34 -21 -3 -53 -9 -70 -13 -37 -7 -38 -5 -22 29
9 19 23 26 67 34 32 6 58 11 60 12 1 0 2 -12 2 -28z m428 -8 c7 -7 17 -27 22
-44 9 -29 8 -31 -13 -25 -12 3 -46 6 -75 6 -53 0 -53 0 -48 43 2 23 5 43 5 43
5 7 99 -12 109 -23z m-239 -80 c17 -10 31 -26 31 -35 0 -18 -80 -108 -96 -108
-16 0 -44 67 -44 103 0 51 54 71 109 40z"/>
<path d="M10 920 c0 -5 5 -10 11 -10 5 0 7 5 4 10 -3 6 -8 10 -11 10 -2 0 -4
-4 -4 -10z"/>
<path d="M165 255 c-16 -6 -44 -17 -61 -24 -17 -7 -36 -23 -42 -36 -11 -25
-11 -25 41 -25 29 0 57 4 63 9 5 5 20 11 34 13 19 2 26 10 28 32 2 16 -2 32
-10 37 -15 10 -14 10 -53 -6z"/>
<path d="M571 187 c-18 -18 -13 -32 31 -75 47 -47 64 -52 73 -22 4 13 -4 32
-25 59 -34 42 -62 55 -79 38z"/>
</g>
</svg>
