<svg version="1.0" xmlns="http://www.w3.org/2000/svg"
 width="101.000000pt" height="147.000000pt" viewBox="0 0 101.000000 147.000000"
 preserveAspectRatio="xMidYMid meet">
<metadata>
Created by potrace 1.15, written by Peter Selinger 2001-2017
</metadata>
<g transform="translate(0.000000,147.000000) scale(0.100000,-0.100000)"
fill="#000000" stroke="none">
<path d="M330 1362 c-24 -20 -25 -21 -6 -35 20 -15 92 -26 196 -33 30 -1 84
-8 119 -14 52 -9 67 -9 78 3 8 7 11 20 8 29 -9 22 -152 56 -270 63 -92 6 -103
5 -125 -13z"/>
<path d="M144 1212 c-51 -3 -52 -3 -58 -40 -8 -52 -9 -332 -1 -395 9 -70 14
-87 28 -87 30 0 37 41 38 208 0 216 3 222 104 227 38 2 88 0 110 -5 22 -5 44
-5 48 -1 4 4 23 3 42 -3 40 -12 38 -3 35 -222 -1 -93 1 -113 17 -132 10 -12
23 -19 29 -14 17 11 30 99 33 218 3 137 8 144 102 144 67 0 220 -18 229 -26 2
-3 6 -91 8 -197 2 -106 8 -193 13 -195 5 -2 9 -12 9 -23 0 -13 -7 -19 -23 -19
-23 0 -137 -85 -189 -140 -40 -42 -37 -60 11 -60 33 0 43 -5 62 -31 17 -24 45
-94 49 -124 5 -38 14 -65 22 -65 5 0 27 14 48 31 75 60 95 147 69 297 -8 47
-8 67 0 75 17 17 15 476 -3 499 -18 24 -148 55 -236 57 -41 1 -88 6 -105 10
-31 10 -401 19 -491 13z m770 -684 c19 -37 20 -85 2 -116 -13 -24 -13 -24 -29
2 -9 14 -17 34 -17 45 0 11 -4 23 -10 26 -5 3 -14 15 -20 25 -9 16 -6 22 17
34 38 21 39 20 57 -16z"/>
<path d="M295 990 c-35 -36 -37 -42 -27 -65 13 -29 29 -25 72 18 42 42 50 55
44 71 -11 28 -49 17 -89 -24z"/>
<path d="M683 993 c-31 -12 8 -97 57 -123 57 -30 67 36 14 93 -34 36 -46 41
-71 30z"/>
<path d="M313 804 c-33 -35 -43 -53 -43 -80 0 -27 4 -34 19 -34 19 0 30 8 63
48 36 44 47 68 41 90 -8 34 -34 27 -80 -24z"/>
<path d="M641 773 c11 -21 34 -55 52 -77 26 -31 37 -37 55 -32 28 9 28 30 1
81 -23 43 -56 65 -100 65 -26 0 -26 0 -8 -37z"/>
<path d="M370 611 c0 -11 -4 -22 -9 -25 -11 -7 5 -98 29 -161 10 -27 22 -61
25 -74 7 -23 7 -23 -36 0 -24 13 -69 50 -99 82 -31 31 -63 57 -71 57 -20 0
-39 -20 -39 -40 0 -26 157 -179 185 -180 6 0 21 -9 34 -19 23 -18 23 -18 4
-32 -32 -23 -66 -76 -60 -93 11 -29 47 -17 96 34 27 28 53 50 59 50 5 0 23
-13 39 -29 17 -15 38 -33 47 -38 15 -8 10 -13 -31 -32 -89 -42 -133 -87 -104
-106 16 -9 101 16 175 52 60 28 74 32 105 24 109 -29 211 -24 211 9 0 30 -39
48 -127 58 -7 1 -13 14 -13 29 0 46 -40 147 -70 175 -18 16 -49 31 -85 38 -50
10 -60 10 -96 -9 -29 -15 -41 -18 -44 -9 -2 7 -13 40 -24 73 -11 33 -25 84
-32 113 -9 42 -16 55 -36 63 -33 12 -33 12 -33 -10z m289 -318 c31 -31 45 -87
25 -104 -19 -15 -58 -1 -98 36 -43 39 -45 55 -8 77 38 23 48 22 81 -9z"/>
</g>
</svg>
