<svg version="1.0" xmlns="http://www.w3.org/2000/svg"
 width="73.000000pt" height="175.000000pt" viewBox="0 0 73.000000 175.000000"
 preserveAspectRatio="xMidYMid meet">
<metadata>
Created by potrace 1.15, written by Peter Selinger 2001-2017
</metadata>
<g transform="translate(0.000000,175.000000) scale(0.100000,-0.100000)"
fill="#000000" stroke="none">
<path d="M258 1633 c-16 -8 -28 -18 -28 -22 0 -14 64 -22 121 -14 30 4 70 6
89 5 43 -1 65 14 49 35 -16 19 -192 16 -231 -4z"/>
<path d="M245 1501 c-92 -15 -94 -17 -133 -219 -15 -81 -17 -110 -9 -133 6
-16 14 -29 18 -29 12 0 29 52 29 93 1 60 24 160 47 199 13 23 31 37 61 47 66
21 72 14 74 -86 3 -125 3 -133 12 -180 15 -80 46 -40 46 59 1 66 15 206 22
213 5 6 91 -16 104 -27 16 -12 24 -55 34 -181 4 -60 12 -113 18 -119 26 -26
31 6 27 150 -4 147 -4 147 -35 175 -19 17 -42 27 -63 28 -17 0 -41 2 -52 5
-45 10 -153 12 -200 5z"/>
<path d="M214 1336 c-7 -19 13 -56 30 -56 19 0 25 20 15 48 -9 25 -37 30 -45
8z"/>
<path d="M462 1337 c-14 -16 6 -89 22 -84 16 5 24 49 13 75 -12 25 -20 27 -35
9z"/>
<path d="M217 1164 c-4 -4 -7 -22 -7 -41 0 -27 4 -33 21 -33 17 0 20 5 17 37
-3 35 -17 51 -31 37z"/>
<path d="M449 1148 c-4 -40 10 -67 34 -68 10 0 9 38 -3 61 -12 21 -29 25 -31
7z"/>
<path d="M140 983 c-7 -16 -12 -42 -11 -59 2 -24 -3 -33 -24 -42 -14 -7 -32
-12 -40 -12 -8 0 -15 -4 -15 -9 0 -15 24 -29 55 -33 29 -3 29 -4 28 -58 -1
-51 -3 -55 -24 -54 -13 1 -35 5 -48 10 -24 7 -24 6 -17 -43 8 -65 32 -111 62
-125 34 -16 33 -55 -3 -64 -15 -4 -34 -2 -45 5 -15 9 -23 9 -34 0 -36 -30 6
-63 69 -52 19 3 37 1 41 -5 7 -11 -26 -52 -42 -52 -7 0 -19 -12 -29 -26 -24
-38 -4 -136 38 -175 16 -15 29 -33 29 -39 0 -16 -50 -60 -67 -60 -7 0 -13 -4
-13 -10 0 -13 67 -13 75 0 13 22 25 8 25 -30 0 -33 4 -40 19 -40 15 0 19 7 19
36 0 19 2 38 5 40 3 3 23 -4 46 -15 50 -26 71 -27 71 -3 0 12 -17 27 -48 43
-72 36 -75 43 -41 68 16 12 29 28 29 36 0 8 5 15 10 15 6 0 10 20 10 45 0 46
-29 95 -56 95 -18 0 -35 35 -28 54 3 9 22 19 42 22 20 4 43 14 51 22 22 22
-12 44 -56 36 -29 -6 -33 -4 -33 16 0 22 21 50 39 50 14 0 30 32 47 96 12 48
12 57 0 70 -17 17 -38 18 -53 3 -7 -7 -19 -9 -27 -6 -13 5 -15 15 -10 49 4 24
13 49 21 56 18 18 16 39 -3 46 -11 4 -14 13 -10 31 6 23 -20 95 -34 95 -4 0
-13 -12 -20 -27z m90 -307 c0 -22 -26 -66 -46 -77 -22 -11 -29 -11 -52 3 -17
11 -27 25 -27 40 0 19 7 24 40 29 51 8 85 10 85 5z m-85 -402 c0 -51 -13 -60
-32 -23 -18 34 -17 79 2 79 8 0 15 6 16 13 2 32 14 -28 14 -69z m85 -2 c0 -32
-22 -58 -40 -47 -11 7 -12 90 -2 108 8 16 42 -33 42 -61z"/>
<path d="M565 835 c-32 -7 -62 -23 -82 -43 -25 -26 -40 -32 -72 -32 -45 0 -60
-26 -18 -32 20 -3 23 -11 35 -113 34 -299 33 -301 -16 -307 -36 -4 -44 -38 -8
-38 14 0 35 4 48 9 13 5 41 14 63 21 22 7 61 27 87 44 69 45 90 104 87 247 -3
156 -11 205 -39 234 -13 14 -26 25 -29 24 -3 -1 -29 -7 -56 -14z m63 -50 c2
-2 6 -66 9 -143 6 -138 6 -140 -22 -195 -19 -38 -38 -60 -57 -68 -15 -6 -28
-15 -28 -20 0 -5 -7 -9 -15 -9 -8 0 -16 13 -19 33 -16 101 -26 210 -26 286 0
78 2 88 23 101 36 25 117 33 135 15z"/>
<path d="M532 689 c-13 -33 10 -199 27 -199 25 0 40 144 21 191 -15 34 -37 38
-48 8z"/>
</g>
</svg>
