<svg version="1.0" xmlns="http://www.w3.org/2000/svg"
 width="65.000000pt" height="108.000000pt" viewBox="0 0 65.000000 108.000000"
 preserveAspectRatio="xMidYMid meet">
<metadata>
Created by potrace 1.15, written by Peter Selinger 2001-2017
</metadata>
<g transform="translate(0.000000,108.000000) scale(0.100000,-0.100000)"
fill="#000000" stroke="none">
<path d="M245 1004 c-82 -6 -158 -14 -167 -18 -30 -14 -36 -71 -42 -386 -3
-168 -9 -367 -12 -443 -6 -135 -6 -137 15 -137 17 0 21 7 23 35 1 19 3 47 5
63 1 15 5 194 8 397 6 352 12 425 37 425 13 0 68 -56 68 -68 0 -6 -13 -16 -30
-24 -27 -11 -32 -19 -29 -45 1 -15 43 -2 66 19 22 21 22 21 53 -6 37 -30 46
-32 54 -9 4 10 -2 25 -15 39 -21 23 -21 23 0 45 28 30 12 48 -22 26 -21 -13
-29 -14 -51 -4 -25 12 -41 35 -32 45 3 2 72 4 153 5 163 0 220 -12 229 -48 2
-11 6 -110 9 -220 8 -437 18 -670 28 -683 25 -31 31 11 28 205 -1 108 -5 201
-7 205 -10 15 -11 411 -2 461 9 49 9 52 -22 78 -23 21 -46 29 -88 34 -31 3
-68 9 -82 13 -14 4 -92 2 -175 -4z"/>
<path d="M360 930 c0 -6 7 -22 16 -36 16 -23 16 -26 -6 -49 -26 -27 -19 -51
10 -35 30 16 55 12 78 -15 25 -28 40 -32 48 -11 6 16 -7 46 -30 69 -12 12 -11
18 10 42 32 37 16 56 -21 26 -27 -21 -27 -21 -55 -1 -31 22 -50 26 -50 10z"/>
<path d="M327 773 c-4 -3 -7 -17 -7 -31 0 -25 0 -25 -80 -18 -92 8 -120 3
-120 -25 0 -17 8 -19 100 -19 100 0 100 0 100 -34 0 -26 -5 -36 -19 -41 -29
-9 -32 -27 -26 -184 5 -170 10 -181 86 -181 66 0 97 16 104 54 3 17 4 94 3
171 -3 140 -3 140 -55 149 -49 9 -53 12 -53 38 0 28 0 28 80 28 73 0 80 2 80
20 0 18 -7 20 -74 20 -73 0 -73 0 -79 30 -6 28 -25 39 -40 23z m90 -198 c32
-23 19 -51 -27 -59 -58 -9 -88 11 -74 48 10 27 69 33 101 11z m13 -111 c19
-21 -6 -44 -58 -54 -52 -9 -64 -1 -56 38 6 31 9 32 54 32 31 0 52 -5 60 -16z
m-7 -96 c2 -7 2 -28 0 -46 -6 -36 -33 -49 -78 -38 -21 5 -25 12 -25 45 0 22 6
42 13 44 25 11 85 7 90 -5z"/>
<path d="M159 538 c-1 -13 0 -97 1 -187 1 -124 5 -169 16 -186 24 -36 79 -48
200 -42 122 6 146 12 142 36 -3 14 -20 16 -136 13 -193 -5 -182 -17 -182 208
0 173 -1 180 -20 180 -14 0 -20 -7 -21 -22z"/>
</g>
</svg>
