<svg version="1.0" xmlns="http://www.w3.org/2000/svg"
 width="67.000000pt" height="90.000000pt" viewBox="0 0 67.000000 90.000000"
 preserveAspectRatio="xMidYMid meet">
<metadata>
Created by potrace 1.15, written by Peter Selinger 2001-2017
</metadata>
<g transform="translate(0.000000,90.000000) scale(0.100000,-0.100000)"
fill="#000000" stroke="none">
<path d="M391 632 c-8 -6 -11 -17 -8 -26 5 -12 20 -16 61 -16 62 0 89 -19 99
-69 8 -37 -1 -220 -13 -290 -15 -82 17 -187 50 -166 6 4 8 14 4 24 -18 41 -21
138 -8 230 26 186 14 274 -43 300 -37 17 -124 25 -142 13z"/>
<path d="M155 620 c-11 -4 -31 -20 -45 -34 -28 -31 -37 -114 -23 -206 5 -30 6
-94 3 -142 -5 -71 -12 -98 -38 -149 -23 -45 -29 -66 -22 -73 8 -8 17 -4 31 14
60 75 79 165 79 365 0 175 12 195 119 195 35 0 42 3 37 16 -3 9 -6 18 -6 20 0
7 -115 3 -135 -6z"/>
<path d="M278 568 c-25 -19 -30 -20 -53 -8 -30 16 -41 9 -27 -17 8 -14 6 -23
-10 -40 -28 -30 -19 -37 23 -19 29 12 37 12 62 -1 31 -16 48 -10 29 9 -18 18
-14 44 10 60 12 8 18 19 14 26 -10 16 -16 15 -48 -10z"/>
<path d="M360 582 c0 -5 9 -17 20 -27 27 -24 25 -35 -7 -61 -38 -30 -23 -40
28 -20 40 16 44 16 75 0 42 -23 51 -14 28 25 -15 25 -15 32 -4 46 18 22 9 27
-28 13 -28 -11 -35 -10 -61 10 -31 23 -51 28 -51 14z"/>
<path d="M251 441 c-30 -3 -56 -12 -59 -18 -3 -10 32 -13 152 -13 138 0 177 6
149 23 -15 9 -188 15 -242 8z"/>
<path d="M341 342 c-34 -37 -34 -37 -40 -13 -4 14 -12 26 -19 29 -15 5 -17
-120 -2 -149 23 -42 113 -63 174 -39 27 10 40 45 50 138 5 54 -5 67 -25 31
-11 -21 -11 -21 -43 10 -18 17 -38 31 -46 30 -8 0 -30 -17 -49 -37z m101 -39
c51 -49 30 -79 -22 -32 -33 30 -33 30 -70 -6 -37 -36 -37 -36 -44 -13 -9 34
-7 50 4 43 5 -3 26 3 47 14 49 26 52 26 85 -6z m-22 -73 c25 -19 25 -19 -3
-29 -35 -14 -39 -14 -73 -1 -27 11 -27 11 7 29 44 24 40 24 69 1z"/>
<path d="M184 333 c4 -16 8 -48 11 -73 10 -98 19 -124 52 -146 18 -12 57 -25
87 -28 40 -5 64 -15 88 -36 38 -34 58 -38 58 -11 0 36 -80 76 -192 95 -42 8
-47 18 -54 106 -7 77 -21 120 -41 120 -11 0 -13 -7 -9 -27z"/>
</g>
</svg>
