<svg version="1.0" xmlns="http://www.w3.org/2000/svg"
 width="68.000000pt" height="85.000000pt" viewBox="0 0 68.000000 85.000000"
 preserveAspectRatio="xMidYMid meet">
<metadata>
Created by potrace 1.15, written by Peter Selinger 2001-2017
</metadata>
<g transform="translate(0.000000,85.000000) scale(0.100000,-0.100000)"
fill="#000000" stroke="none">
<path d="M385 659 c-49 -4 -126 -7 -170 -8 -48 -1 -86 -6 -93 -13 -9 -9 -12
-90 -12 -304 0 -161 3 -299 6 -308 3 -9 12 -16 20 -16 11 0 14 53 16 303 3
302 3 302 208 313 113 6 207 11 209 12 2 1 -2 9 -9 17 -13 16 -29 16 -175 4z"/>
<path d="M325 591 c-15 -14 1 -21 45 -21 41 0 50 -3 50 -18 0 -15 -6 -17 -35
-14 -53 6 -75 -18 -75 -83 0 -83 10 -90 137 -93 106 -3 149 6 128 27 -7 7 -30
8 -63 2 -41 -6 -52 -5 -52 5 0 9 12 14 36 14 39 0 74 15 74 32 0 7 -18 9 -50
6 -28 -3 -53 -1 -56 3 -3 5 8 9 25 9 41 0 84 17 76 31 -5 7 -25 8 -56 4 -30
-4 -49 -3 -49 3 0 11 34 22 72 22 31 0 45 29 28 60 -10 19 -19 20 -121 18 -60
-1 -112 -4 -114 -7z m200 -31 c0 -10 -12 -16 -32 -18 -32 -3 -45 13 -26 32 13
12 58 2 58 -14z m-105 -60 c0 -5 -17 -10 -37 -10 -28 0 -34 3 -23 10 20 13 60
13 60 0z m5 -50 c4 -6 -12 -10 -40 -10 -28 0 -44 4 -40 10 3 6 21 10 40 10 19
0 37 -4 40 -10z m5 -56 c0 -11 -8 -14 -32 -12 -46 4 -49 28 -4 28 26 0 36 -4
36 -16z"/>
<path d="M197 583 c-4 -3 -7 -130 -7 -281 0 -214 3 -273 13 -270 9 4 13 68 15
266 1 144 6 262 10 262 25 0 32 -64 32 -292 0 -205 2 -238 15 -238 13 0 15 36
15 261 0 160 -4 268 -10 280 -11 19 -68 28 -83 12z"/>
<path d="M387 340 c-27 -3 -53 -13 -58 -21 -12 -19 -11 -71 2 -126 12 -45 12
-45 107 -41 108 3 110 2 111 -80 1 -35 4 -43 18 -40 20 4 38 67 29 102 -13 51
-30 58 -132 50 -68 -5 -94 -4 -94 5 0 7 27 11 80 11 105 0 130 15 130 75 0 23
-6 47 -12 52 -18 14 -122 21 -181 13z m141 -32 c-5 -15 -168 -24 -168 -10 0
18 16 22 93 22 58 0 78 -3 75 -12z m2 -57 c0 -10 -59 -21 -122 -21 -36 0 -48
4 -48 15 0 12 16 15 85 15 47 0 85 -4 85 -9z"/>
<path d="M477 133 c-11 -10 -8 -91 2 -98 15 -8 31 29 31 69 0 34 -15 47 -33
29z"/>
<path d="M406 115 c-9 -25 -7 -75 3 -75 17 0 32 29 29 56 -3 32 -23 43 -32 19z"/>
<path d="M337 113 c-9 -8 -9 -46 -1 -67 12 -31 24 -16 24 29 0 42 -7 54 -23
38z"/>
</g>
</svg>
