<svg version="1.0" xmlns="http://www.w3.org/2000/svg"
 width="99.000000pt" height="211.000000pt" viewBox="0 0 99.000000 211.000000"
 preserveAspectRatio="xMidYMid meet">
<metadata>
Created by potrace 1.15, written by Peter Selinger 2001-2017
</metadata>
<g transform="translate(0.000000,211.000000) scale(0.100000,-0.100000)"
fill="#000000" stroke="none">
<path d="M706 2014 c-3 -9 -4 -19 -1 -24 9 -14 -57 -32 -150 -41 -49 -4 -108
-12 -130 -18 -22 -6 -53 -13 -70 -17 -16 -4 -49 -20 -72 -36 -49 -33 -92 -115
-119 -226 -9 -37 -25 -96 -35 -132 -24 -88 -56 -240 -68 -325 -6 -38 -13 -86
-17 -105 -3 -19 -8 -63 -11 -97 -4 -59 -3 -63 16 -63 18 0 21 6 21 40 0 22 4
40 8 40 7 0 14 32 44 210 6 36 17 90 25 120 8 30 18 71 23 90 4 19 15 61 24
93 9 32 16 68 16 80 0 12 7 31 15 41 14 19 15 19 37 0 13 -10 25 -21 28 -24 8
-9 78 -28 140 -39 57 -11 98 -9 138 4 28 9 29 25 0 25 -12 0 -35 4 -52 9 -17
5 -56 15 -86 22 -45 9 -122 40 -139 55 -2 1 -5 24 -6 49 -3 36 1 50 18 66 33
31 92 59 125 59 15 0 32 4 37 9 6 5 71 11 145 13 115 3 137 6 152 21 18 20 17
80 -3 104 -16 18 -46 16 -53 -3z"/>
<path d="M262 1438 c-17 -21 -30 -87 -37 -185 -4 -56 -3 -93 2 -93 24 0 54 51
64 106 6 32 13 71 16 87 3 15 9 27 14 27 16 0 10 26 -11 48 -24 25 -33 27 -48
10z"/>
<path d="M440 1430 c0 -7 7 -18 16 -24 13 -10 13 -19 4 -61 -6 -28 -10 -75 -8
-105 3 -54 3 -54 -39 -70 -94 -34 -138 -109 -113 -192 18 -63 68 -130 112
-152 26 -13 38 -51 26 -84 -4 -13 -8 -39 -8 -58 0 -20 -9 -72 -19 -117 -10
-45 -24 -109 -31 -142 -13 -68 -20 -92 -49 -186 -21 -67 -28 -149 -13 -149 5
0 24 27 43 60 34 60 49 73 49 45 0 -16 94 -113 148 -153 26 -19 32 -21 32 -8
0 9 -4 16 -10 16 -5 0 -10 6 -10 13 0 7 -15 31 -33 53 -71 85 -107 150 -107
196 0 48 30 178 42 178 4 0 15 -17 25 -37 17 -38 59 -89 121 -150 33 -33 56
-41 66 -24 7 10 -62 118 -92 145 -12 11 -22 23 -22 29 0 5 -8 21 -19 35 -10
15 -22 43 -26 62 -12 58 -17 192 -8 201 9 9 101 -19 155 -47 32 -16 183 -20
173 -4 -3 6 -19 10 -36 10 -16 0 -51 9 -77 21 -92 41 -154 74 -159 85 -2 6 3
24 12 40 8 16 15 35 15 43 0 10 9 12 33 7 17 -3 75 -10 127 -15 52 -6 112 -13
133 -17 29 -5 37 -3 37 8 0 9 -18 19 -47 27 -45 12 -74 17 -211 36 -29 4 -55
11 -57 15 -2 4 5 16 15 28 11 12 20 25 20 30 0 5 51 12 113 15 112 5 147 12
147 28 0 13 -32 18 -156 28 -101 8 -184 30 -184 50 0 3 12 12 28 18 35 16 82
94 82 137 0 40 -30 81 -73 100 -89 39 -167 56 -167 36z m147 -86 c33 -25 39
-46 27 -90 -6 -24 -76 -60 -93 -50 -25 16 -5 166 22 166 5 0 25 -11 44 -26z
m-60 -256 c21 -18 39 -32 40 -33 1 0 -4 -19 -10 -43 -7 -25 -17 -42 -26 -42
-13 0 -46 5 -158 26 -34 6 -29 44 10 81 53 51 93 54 144 11z m-40 -170 c28
-10 32 -15 26 -37 -3 -14 -9 -29 -12 -33 -10 -11 -111 59 -111 76 0 10 63 6
97 -6z"/>
</g>
</svg>
