<svg version="1.0" xmlns="http://www.w3.org/2000/svg"
 width="64.000000pt" height="81.000000pt" viewBox="0 0 64.000000 81.000000"
 preserveAspectRatio="xMidYMid meet">
<metadata>
Created by potrace 1.15, written by Peter Selinger 2001-2017
</metadata>
<g transform="translate(0.000000,81.000000) scale(0.100000,-0.100000)"
fill="#000000" stroke="none">
<path d="M189 583 c-17 -4 -39 -43 -39 -68 0 -8 -9 -15 -20 -15 -14 0 -21 9
-26 36 -5 25 -11 34 -23 32 -29 -6 -21 -168 9 -168 5 0 10 11 10 24 0 30 13
40 40 31 18 -6 20 -15 20 -101 0 -93 -1 -95 -22 -92 -19 2 -24 10 -26 41 -4
49 -32 52 -32 4 0 -19 -3 -75 -6 -125 -6 -81 -5 -92 9 -92 18 0 25 21 29 85 2
32 7 40 23 40 18 0 20 -8 23 -75 3 -94 9 -120 27 -120 12 0 15 40 17 263 3
262 3 262 170 263 92 0 171 3 174 7 4 4 1 13 -6 22 -10 12 -40 15 -174 14 -88
-1 -168 -3 -177 -6z"/>
<path d="M245 509 c-13 -20 13 -31 64 -28 28 2 51 1 51 -3 0 -5 -19 -8 -42 -8
-65 0 -72 -9 -76 -94 -5 -88 2 -126 23 -126 11 0 15 19 17 88 3 87 3 87 45 90
42 3 42 3 45 -85 2 -70 6 -88 18 -88 12 0 16 18 18 88 3 88 3 88 50 85 47 -3
47 -3 50 -78 3 -94 7 -107 27 -90 22 18 21 157 -1 189 -14 20 -23 22 -70 19
-32 -2 -54 1 -54 7 0 6 24 10 52 10 40 0 53 4 53 15 0 12 -23 15 -132 18 -89
2 -134 -1 -138 -9z"/>
<path d="M295 410 c-9 -14 3 -30 24 -30 18 0 41 18 41 32 0 12 -58 10 -65 -2z"/>
<path d="M437 413 c-15 -15 -5 -23 28 -23 24 0 35 5 35 15 0 15 -50 22 -63 8z"/>
<path d="M296 341 c-9 -14 18 -31 42 -24 33 8 28 33 -7 33 -17 0 -32 -4 -35
-9z"/>
<path d="M440 336 c0 -18 39 -31 52 -18 15 15 0 32 -28 32 -14 0 -24 -6 -24
-14z"/>
<path d="M312 233 c-34 -3 -43 -8 -40 -21 3 -15 15 -17 88 -14 47 2 96 -1 110
-6 36 -14 12 -20 -102 -24 -102 -4 -131 -15 -103 -38 12 -10 25 -10 59 -1 60
15 108 14 131 -3 18 -13 17 -14 -15 -31 -25 -13 -48 -16 -91 -12 -59 5 -89 -8
-74 -33 10 -17 181 -13 216 6 23 12 34 13 44 4 34 -28 48 25 15 55 -16 14 -19
26 -14 47 4 19 0 37 -10 53 -15 23 -22 25 -94 23 -42 -1 -96 -3 -120 -5z"/>
</g>
</svg>
