<svg version="1.0" xmlns="http://www.w3.org/2000/svg"
 width="60.000000pt" height="82.000000pt" viewBox="0 0 60.000000 82.000000"
 preserveAspectRatio="xMidYMid meet">
<metadata>
Created by potrace 1.15, written by Peter Selinger 2001-2017
</metadata>
<g transform="translate(0.000000,82.000000) scale(0.100000,-0.100000)"
fill="#000000" stroke="none">
<path d="M270 733 c-60 -5 -140 -24 -140 -33 0 -4 -9 -10 -20 -13 -15 -4 -20
-14 -20 -41 0 -47 18 -85 55 -119 30 -27 30 -27 -6 -60 -47 -42 -55 -58 -68
-144 -20 -133 -7 -279 26 -290 6 -2 13 62 19 174 11 200 20 232 81 273 28 19
52 26 108 28 68 4 71 3 83 -22 6 -14 26 -42 44 -62 55 -60 57 -69 58 -220 0
-105 3 -144 13 -153 29 -23 37 9 37 143 -1 162 -11 208 -56 258 -19 21 -32 43
-29 48 4 6 22 10 41 10 22 0 37 6 41 16 13 34 -11 37 -176 24 -146 -12 -162
-12 -185 4 -14 9 -26 20 -26 25 0 4 64 11 143 15 150 6 198 15 205 34 5 16
-120 16 -258 1 -56 -6 -104 -8 -107 -5 -4 3 -1 17 5 30 13 28 39 33 223 42
125 6 159 14 159 35 0 8 -171 10 -250 2z"/>
<path d="M267 433 c-4 -3 -7 -73 -7 -155 0 -148 0 -148 -24 -148 -22 0 -23 5
-29 75 -4 41 -4 88 -1 105 7 31 -10 65 -27 54 -12 -7 -11 -255 0 -273 13 -20
239 -11 251 10 14 21 1 28 -60 31 -52 3 -55 5 -58 31 -3 26 -1 27 41 27 69 0
81 21 73 117 -8 83 -15 99 -40 90 -13 -5 -16 -23 -16 -82 0 -76 0 -76 -27 -73
-28 3 -28 4 -31 78 -1 41 -4 85 -7 98 -5 21 -24 29 -38 15z"/>
</g>
</svg>
