<svg version="1.0" xmlns="http://www.w3.org/2000/svg"
 width="69.000000pt" height="86.000000pt" viewBox="0 0 69.000000 86.000000"
 preserveAspectRatio="xMidYMid meet">
<metadata>
Created by potrace 1.15, written by Peter Selinger 2001-2017
</metadata>
<g transform="translate(0.000000,86.000000) scale(0.100000,-0.100000)"
fill="#000000" stroke="none">
<path d="M243 662 c-78 -26 -123 -59 -123 -91 0 -6 16 -39 35 -73 40 -74 53
-144 48 -257 -3 -54 0 -87 8 -97 9 -11 8 -14 -3 -14 -17 0 -48 31 -48 49 0 6
-7 26 -16 43 -14 27 -18 29 -30 16 -13 -12 -13 -23 -3 -64 15 -62 23 -71 69
-85 53 -16 127 -3 156 26 41 41 27 166 -16 140 -5 -3 -10 -24 -10 -46 0 -47
-14 -79 -35 -79 -19 0 -27 34 -23 94 3 48 3 48 66 82 35 19 67 32 71 30 5 -3
11 -40 13 -83 9 -123 62 -223 119 -223 36 0 38 20 6 52 -56 55 -83 139 -73
225 5 45 3 63 -9 81 -23 31 -46 28 -114 -19 -62 -43 -81 -44 -81 -4 0 30 55
74 133 105 67 28 86 45 68 63 -9 9 -33 1 -104 -36 -104 -53 -127 -58 -127 -24
0 22 52 54 163 101 41 17 50 46 15 46 -13 0 -64 -21 -115 -47 -96 -50 -123
-50 -108 -3 8 25 48 44 126 60 63 12 96 31 85 48 -11 18 -52 13 -143 -16z"/>
</g>
</svg>
