<svg version="1.0" xmlns="http://www.w3.org/2000/svg"
 width="75.000000pt" height="161.000000pt" viewBox="0 0 75.000000 161.000000"
 preserveAspectRatio="xMidYMid meet">
<metadata>
Created by potrace 1.15, written by Peter Selinger 2001-2017
</metadata>
<g transform="translate(0.000000,161.000000) scale(0.100000,-0.100000)"
fill="#000000" stroke="none">
<path d="M350 1595 c0 -8 4 -15 10 -15 5 0 7 7 4 15 -4 8 -8 15 -10 15 -2 0
-4 -7 -4 -15z"/>
<path d="M610 1473 c4 -91 4 -93 -39 -93 -40 0 -40 0 -38 39 2 71 -49 99 -69
37 -11 -35 3 -186 21 -231 22 -55 90 -71 137 -32 25 20 28 31 37 123 12 115
-1 186 -33 192 -15 3 -17 -3 -16 -35z m0 -178 c0 -19 -5 -46 -12 -60 -23 -52
-67 -18 -68 53 0 42 0 42 40 42 39 0 40 -1 40 -35z"/>
<path d="M353 1336 c6 -144 6 -144 -26 -183 -35 -42 -104 -111 -191 -189 -60
-55 -69 -74 -34 -74 28 0 65 30 168 134 47 47 88 86 93 86 12 0 7 -189 -7
-280 -8 -47 -21 -111 -30 -143 -9 -32 -16 -68 -16 -79 0 -19 -10 -57 -30 -113
-4 -11 -17 -54 -30 -95 -29 -96 -43 -130 -52 -130 -5 0 -8 -7 -8 -15 0 -17
-18 -52 -38 -73 -17 -19 -64 -123 -58 -129 19 -19 152 199 172 282 4 17 10 32
13 35 10 8 31 75 31 98 0 11 5 24 10 27 6 3 10 17 10 31 0 31 30 124 39 124 4
0 25 -53 46 -117 22 -65 54 -150 72 -189 18 -40 33 -77 33 -83 0 -6 4 -11 9
-11 5 0 13 -10 16 -22 4 -13 15 -32 24 -43 10 -11 28 -42 42 -70 13 -27 34
-61 47 -75 19 -21 24 -23 32 -10 5 8 10 20 10 25 -1 12 -46 93 -109 195 -43
70 -121 272 -121 314 0 13 -3 26 -7 29 -3 4 -17 49 -30 99 -19 79 -23 117 -23
253 1 160 1 160 115 41 63 -66 118 -116 121 -113 10 9 -17 68 -43 97 -13 14
-23 28 -23 32 0 4 -10 17 -23 30 -12 13 -30 34 -40 48 -10 14 -38 46 -63 72
-46 48 -46 48 -45 172 2 102 -1 126 -14 140 -9 9 -24 16 -32 16 -14 0 -15 -17
-10 -144z"/>
<path d="M710 1239 c0 -5 5 -7 10 -4 6 3 10 8 10 11 0 2 -4 4 -10 4 -5 0 -10
-5 -10 -11z"/>
<path d="M546 495 c-3 -8 -1 -15 4 -15 6 0 10 7 10 15 0 8 -2 15 -4 15 -2 0
-6 -7 -10 -15z"/>
</g>
</svg>
