<svg version="1.0" xmlns="http://www.w3.org/2000/svg"
 width="97.000000pt" height="133.000000pt" viewBox="0 0 97.000000 133.000000"
 preserveAspectRatio="xMidYMid meet">
<metadata>
Created by potrace 1.15, written by Peter Selinger 2001-2017
</metadata>
<g transform="translate(0.000000,133.000000) scale(0.100000,-0.100000)"
fill="#000000" stroke="none">
<path d="M167 1243 c-21 -21 4 -96 42 -128 33 -27 83 -44 97 -34 19 15 72 -11
89 -43 16 -32 21 -88 7 -88 -4 0 -12 -10 -17 -22 -13 -30 -97 -92 -146 -108
-22 -8 -38 -18 -36 -24 8 -24 167 1 167 26 0 5 5 8 10 8 7 0 9 -69 5 -210 -3
-116 -3 -220 0 -230 10 -31 22 -23 28 18 3 20 10 55 16 77 7 22 16 103 21 180
4 77 11 154 13 170 15 86 19 196 8 223 -14 33 -51 57 -103 67 -21 4 -38 11
-38 16 0 5 -7 9 -16 9 -21 0 -72 36 -103 72 -25 29 -33 33 -44 21z"/>
<path d="M605 1210 c-6 -20 12 -58 42 -88 19 -20 79 -26 112 -12 17 7 43 9 60
5 28 -6 31 -10 31 -44 0 -66 -58 -124 -196 -195 -120 -62 -113 -81 13 -39 48
17 95 33 104 37 14 6 17 -11 21 -161 3 -92 9 -176 13 -185 4 -10 15 -18 26
-18 17 0 18 13 22 163 4 178 12 256 27 271 6 6 10 19 10 31 0 12 4 25 9 31 5
5 11 32 14 60 8 72 -15 88 -163 114 -75 14 -120 29 -120 41 0 17 -19 9 -25
-11z"/>
<path d="M142 643 c10 -41 -41 -165 -88 -214 -61 -64 17 -42 88 24 66 62 88
145 48 180 -20 17 -52 23 -48 10z"/>
<path d="M510 521 c0 -78 1 -80 33 -105 17 -13 44 -28 60 -31 24 -6 27 -12 27
-51 0 -43 0 -44 -34 -44 -19 0 -46 -4 -60 -10 -84 -32 46 -53 199 -32 89 12
100 17 152 67 39 38 43 47 48 103 5 62 -7 108 -26 97 -12 -8 -39 -72 -39 -95
0 -27 -28 -77 -54 -94 -13 -8 -47 -18 -75 -22 -59 -8 -59 -8 -41 101 12 69 -3
160 -28 170 -21 8 -23 3 -26 -52 -3 -61 -11 -74 -39 -69 -25 3 -46 39 -54 94
-6 34 -17 51 -35 52 -5 0 -8 -36 -8 -79z"/>
<path d="M276 423 c-3 -4 -6 -19 -6 -34 0 -15 -4 -31 -10 -34 -5 -3 -10 -15
-10 -25 0 -29 -37 -108 -65 -138 -14 -15 -32 -34 -40 -43 -21 -22 -19 -59 3
-59 9 0 41 23 70 50 50 47 72 55 72 27 1 -16 40 -60 70 -78 65 -40 201 -51
208 -17 2 12 -11 20 -55 33 -66 19 -123 51 -123 68 0 7 -8 17 -18 24 -31 18
-62 97 -62 154 0 47 -19 87 -34 72z"/>
</g>
</svg>
