<svg version="1.0" xmlns="http://www.w3.org/2000/svg"
 width="68.000000pt" height="78.000000pt" viewBox="0 0 68.000000 78.000000"
 preserveAspectRatio="xMidYMid meet">
<metadata>
Created by potrace 1.15, written by Peter Selinger 2001-2017
</metadata>
<g transform="translate(0.000000,78.000000) scale(0.100000,-0.100000)"
fill="#000000" stroke="none">
<path d="M480 725 c0 -9 10 -25 21 -34 22 -17 22 -17 -4 -58 -15 -23 -31 -44
-37 -48 -5 -3 -10 -13 -10 -21 0 -28 29 -13 74 37 26 29 50 49 53 45 4 -4 6
-31 5 -61 -2 -49 0 -55 17 -55 29 0 51 38 51 91 0 53 -14 70 -80 94 -75 28
-90 29 -90 10z"/>
<path d="M305 709 c-4 -5 0 -18 9 -28 21 -23 21 -23 -14 -79 -33 -55 -37 -72
-15 -72 8 0 31 26 52 57 54 80 68 82 59 4 -6 -49 -4 -61 7 -61 22 0 34 20 42
68 9 56 -10 85 -71 106 -56 19 -61 19 -69 5z"/>
<path d="M137 704 c-3 -4 3 -19 15 -34 26 -36 20 -52 -34 -86 -52 -33 -88 -64
-88 -76 0 -14 20 -9 58 17 38 26 76 32 87 15 10 -17 -5 -49 -26 -55 -53 -17
-138 -127 -125 -161 9 -25 24 -15 51 34 14 26 38 56 52 66 25 19 26 19 39 1
19 -26 17 -42 -6 -75 -11 -15 -29 -50 -41 -76 -20 -46 -20 -55 -9 -134 12 -87
33 -136 52 -124 7 5 8 25 2 63 -12 85 -10 173 5 209 7 18 16 32 20 32 11 0 41
56 41 76 0 9 -7 26 -17 36 -15 17 -15 20 2 53 18 32 18 35 2 53 -21 23 -21 31
-1 53 20 23 13 56 -20 92 -24 26 -46 34 -59 21z"/>
<path d="M566 478 c-9 -12 -16 -30 -16 -40 0 -22 -43 -51 -67 -46 -14 3 -18
13 -18 48 0 38 -3 45 -20 45 -18 0 -20 -7 -22 -90 -1 -49 -2 -98 -2 -109 -1
-15 -6 -17 -33 -12 -43 8 -58 30 -58 82 0 47 -13 62 -36 43 -12 -10 -14 -24
-9 -63 14 -101 42 -126 141 -126 30 0 70 -6 88 -14 35 -14 46 -42 46 -111 0
-18 6 -38 14 -44 34 -28 61 95 35 153 -14 30 -65 56 -108 56 -30 0 -31 1 -31
44 0 48 9 56 65 56 43 0 85 47 85 95 0 46 -32 65 -54 33z"/>
</g>
</svg>
