<svg version="1.0" xmlns="http://www.w3.org/2000/svg"
 width="113.000000pt" height="191.000000pt" viewBox="0 0 113.000000 191.000000"
 preserveAspectRatio="xMidYMid meet">
<metadata>
Created by potrace 1.15, written by Peter Selinger 2001-2017
</metadata>
<g transform="translate(0.000000,191.000000) scale(0.100000,-0.100000)"
fill="#000000" stroke="none">
<path d="M850 1753 c0 -15 39 -92 78 -151 67 -103 76 -135 51 -185 -5 -12 -74
-84 -152 -159 -78 -75 -139 -139 -136 -142 8 -8 71 16 93 37 11 9 24 17 29 17
4 0 15 7 23 15 9 8 27 18 42 22 15 3 30 11 34 17 15 23 18 -7 22 -190 3 -177
9 -250 20 -261 14 -14 36 78 36 151 0 44 7 131 15 191 9 61 18 130 21 155 3
25 13 59 23 75 26 45 33 125 15 192 -26 104 -47 135 -114 165 -25 11 -57 29
-72 40 -16 11 -28 15 -28 11z"/>
<path d="M305 1708 c13 -60 53 -125 117 -190 35 -35 73 -76 86 -91 22 -28 30
-77 12 -77 -5 0 -10 -6 -10 -13 0 -7 -9 -23 -20 -35 -11 -12 -20 -25 -20 -30
0 -5 -19 -25 -42 -45 -24 -19 -61 -51 -82 -72 -22 -20 -52 -43 -68 -53 -15 -9
-28 -20 -28 -24 0 -4 -6 -8 -13 -8 -8 0 -24 -11 -37 -25 -23 -25 -23 -25 7
-25 32 0 117 23 168 46 30 13 30 13 41 -81 7 -53 12 -132 13 -177 1 -57 6 -87
16 -97 19 -19 41 -1 50 42 6 29 25 321 25 393 0 20 9 39 25 54 14 13 25 29 25
37 0 7 4 13 8 13 14 0 35 92 35 152 -1 60 -1 60 -124 181 -162 162 -197 185
-184 125z"/>
<path d="M157 1454 c-9 -9 -9 -146 -1 -168 11 -29 44 -18 59 18 8 19 20 36 26
38 8 3 2 22 -18 59 -28 51 -50 69 -66 53z"/>
<path d="M185 860 c-22 -10 -52 -19 -67 -19 -47 -2 -35 -37 21 -63 34 -16 34
-16 32 -160 -2 -143 -2 -143 27 -112 18 19 32 45 35 70 16 108 36 193 49 211
13 16 1 49 -25 73 -25 23 -21 24 -72 0z"/>
<path d="M596 734 c-3 -9 -6 -91 -7 -182 -1 -182 -10 -326 -21 -338 -4 -4 -31
0 -60 10 -29 9 -86 19 -128 22 -75 5 -75 5 -45 -21 33 -28 71 -48 125 -64 104
-31 177 -54 192 -62 10 -5 26 -9 36 -9 10 0 22 -3 25 -7 14 -13 109 -42 123
-36 31 12 8 63 -28 63 -10 0 -18 5 -18 10 0 6 -7 10 -15 10 -8 0 -35 10 -60
22 -46 22 -46 22 -43 88 3 65 3 65 68 71 123 12 164 48 176 155 10 100 -27
203 -66 179 -4 -3 -5 -33 -3 -67 10 -125 -31 -188 -123 -188 -69 0 -74 13 -74
184 0 114 -3 151 -14 162 -19 18 -32 18 -40 -2z m261 -326 c-3 -8 -6 -5 -6 6
-1 11 2 17 5 13 3 -3 4 -12 1 -19z"/>
</g>
</svg>
