<svg version="1.0" xmlns="http://www.w3.org/2000/svg"
 width="69.000000pt" height="87.000000pt" viewBox="0 0 69.000000 87.000000"
 preserveAspectRatio="xMidYMid meet">
<metadata>
Created by potrace 1.15, written by Peter Selinger 2001-2017
</metadata>
<g transform="translate(0.000000,87.000000) scale(0.100000,-0.100000)"
fill="#000000" stroke="none">
<path d="M217 713 c-4 -3 -7 -21 -7 -40 0 -31 -4 -35 -56 -58 -31 -14 -63 -25
-71 -25 -14 0 -29 -27 -20 -36 3 -3 38 4 79 17 50 15 82 31 101 52 32 35 31
30 12 67 -15 30 -26 36 -38 23z"/>
<path d="M486 697 c-22 -16 -14 -37 15 -37 17 0 19 -5 13 -42 -3 -24 -10 -59
-15 -78 -12 -47 -11 -107 1 -115 15 -9 26 30 34 114 9 86 20 121 40 121 20 0
26 -47 19 -159 -5 -90 -4 -101 11 -101 22 0 23 6 31 141 5 102 4 119 -12 137
-24 28 -109 40 -137 19z"/>
<path d="M312 693 c-18 -7 4 -33 29 -33 23 0 22 11 4 -129 -9 -63 -13 -116
-10 -119 14 -14 29 25 41 105 17 114 23 135 34 128 6 -3 10 -56 10 -116 0 -84
3 -110 13 -107 14 5 33 173 23 212 -3 14 -16 32 -29 40 -25 16 -95 28 -115 19z"/>
<path d="M226 581 c-4 -5 -3 -16 0 -24 6 -15 -22 -28 -94 -42 -30 -6 -52 -28
-40 -41 5 -4 95 17 132 32 14 5 17 3 14 -12 -5 -27 -59 -59 -138 -84 -47 -14
-70 -27 -70 -37 0 -11 7 -14 27 -10 16 3 46 8 67 13 39 7 39 7 33 -126 -4 -73
-9 -135 -12 -138 -3 -3 -16 4 -28 16 -19 19 -22 33 -22 99 0 56 -4 78 -14 81
-7 2 -17 -2 -22 -9 -8 -13 -4 -125 7 -176 6 -30 82 -63 146 -63 42 0 49 3 46
17 -2 11 -15 20 -33 23 -25 4 -30 10 -30 34 0 25 5 31 31 38 38 10 50 37 59
128 6 54 4 68 -9 79 -24 20 -29 9 -32 -70 -4 -73 -15 -99 -42 -99 -24 0 -11
181 14 195 39 22 74 64 74 90 0 59 -44 118 -64 86z"/>
<path d="M491 382 c-18 -12 -6 -32 20 -32 26 0 24 -20 -7 -98 -17 -43 -22 -68
-16 -74 17 -17 29 -1 57 77 15 41 31 75 36 75 16 0 22 -53 16 -154 -4 -55 -8
-110 -9 -121 -2 -12 4 -21 14 -23 27 -5 40 65 36 194 -3 100 -6 116 -24 135
-24 23 -100 36 -123 21z"/>
<path d="M305 370 c-9 -15 4 -30 26 -30 27 0 24 -29 -10 -108 -43 -100 -46
-115 -26 -110 10 1 22 10 26 18 19 34 48 108 59 150 16 61 21 66 37 45 15 -22
17 -101 3 -195 -5 -36 -11 -74 -12 -85 -4 -25 28 -32 40 -8 5 10 12 80 16 155
6 137 6 137 -20 157 -29 23 -127 30 -139 11z"/>
</g>
</svg>
