<svg version="1.0" xmlns="http://www.w3.org/2000/svg"
 width="93.000000pt" height="123.000000pt" viewBox="0 0 93.000000 123.000000"
 preserveAspectRatio="xMidYMid meet">
<metadata>
Created by potrace 1.15, written by Peter Selinger 2001-2017
</metadata>
<g transform="translate(0.000000,123.000000) scale(0.100000,-0.100000)"
fill="#000000" stroke="none">
<path d="M550 1155 c0 -7 6 -18 14 -22 7 -4 19 -19 26 -33 7 -13 24 -33 37
-43 33 -26 30 -69 -7 -109 -26 -26 -42 -78 -24 -78 3 0 27 23 54 51 30 31 55
49 63 46 11 -4 16 -33 21 -104 13 -209 19 -233 58 -233 18 0 19 5 14 48 -3 26
-8 99 -11 162 -3 63 -11 126 -18 140 -13 27 -56 70 -71 70 -5 0 -35 27 -68 60
-59 59 -88 74 -88 45z"/>
<path d="M290 1052 c0 -21 18 -42 37 -42 21 0 63 -47 63 -70 0 -27 -17 -55
-64 -104 -39 -41 -39 -41 -11 -44 19 -3 32 3 43 19 25 36 51 59 66 59 13 0 26
-83 31 -200 3 -72 19 -96 45 -65 9 10 10 29 5 62 -4 27 -8 89 -9 138 -2 96 -9
118 -57 170 -16 16 -29 35 -29 40 0 16 -67 55 -95 55 -17 0 -25 -5 -25 -18z"/>
<path d="M156 954 c-3 -8 -8 -41 -11 -72 -6 -57 -6 -57 26 -10 23 35 30 54 25
73 -7 28 -31 33 -40 9z"/>
<path d="M666 500 c-3 -19 -7 -86 -9 -148 -3 -96 -6 -115 -23 -132 -13 -13
-27 -17 -46 -13 -45 9 -60 44 -63 152 -4 150 -26 178 -44 56 -17 -118 -14
-178 10 -209 22 -28 116 -76 150 -76 11 0 28 -4 37 -9 9 -5 52 -12 95 -16 74
-7 77 -7 77 14 0 14 -6 21 -20 21 -22 0 -130 27 -138 34 -2 3 0 24 6 48 6 23
9 45 6 50 -3 4 28 24 70 43 80 38 90 47 99 85 8 31 -2 100 -14 100 -5 0 -9 -6
-9 -12 0 -7 -5 -30 -11 -50 -11 -44 -49 -68 -102 -68 -34 0 -34 0 -39 64 -3
35 -10 72 -16 82 -9 16 -11 14 -16 -16z"/>
<path d="M177 431 c-21 -21 -60 -45 -88 -55 -27 -10 -52 -22 -55 -28 -9 -14
28 -37 46 -28 61 32 143 70 145 68 28 -46 38 -200 13 -224 -21 -21 -128 -74
-149 -74 -26 0 -24 -27 2 -35 20 -7 110 30 117 48 2 4 12 7 22 7 10 0 32 17
49 37 26 32 31 46 31 93 0 57 -33 194 -52 217 -17 21 -41 14 -81 -26z"/>
</g>
</svg>
