<svg version="1.0" xmlns="http://www.w3.org/2000/svg"
 width="67.000000pt" height="88.000000pt" viewBox="0 0 67.000000 88.000000"
 preserveAspectRatio="xMidYMid meet">
<metadata>
Created by potrace 1.15, written by Peter Selinger 2001-2017
</metadata>
<g transform="translate(0.000000,88.000000) scale(0.100000,-0.100000)"
fill="#000000" stroke="none">
<path d="M444 723 c-4 -20 -3 -48 2 -62 15 -42 144 -103 144 -67 0 8 -12 23
-27 33 -53 32 -73 57 -79 95 -8 49 -31 50 -40 1z"/>
<path d="M197 723 c-4 -3 -7 -21 -7 -39 0 -24 -9 -41 -37 -68 -28 -27 -34 -39
-26 -47 9 -9 21 -7 49 8 29 15 41 30 52 62 15 45 9 91 -12 91 -7 0 -16 -3 -19
-7z"/>
<path d="M316 688 c-3 -7 -7 -25 -10 -39 -9 -41 -83 -126 -147 -170 -59 -40
-77 -66 -39 -56 34 9 43 -25 38 -142 -4 -88 -9 -116 -32 -165 -38 -83 -30
-104 16 -41 64 87 87 230 52 326 -14 41 -14 45 2 54 9 6 43 32 76 59 59 49 59
49 87 28 16 -11 61 -37 100 -57 57 -29 71 -41 65 -54 -23 -54 -35 -121 -30
-175 8 -75 52 -176 77 -176 25 0 24 7 -6 66 -21 42 -25 63 -25 140 0 113 12
152 48 156 34 4 40 25 10 37 -204 84 -234 106 -252 194 -7 28 -24 36 -30 15z"/>
<path d="M230 423 c0 -10 16 -54 35 -98 19 -44 42 -103 50 -132 9 -29 21 -53
28 -53 7 0 23 33 36 73 13 39 42 104 63 144 28 51 35 74 27 79 -18 11 -84 -71
-105 -129 -4 -10 -11 -16 -16 -15 -9 3 -58 82 -58 93 0 2 24 5 53 7 38 2 52 7
52 18 0 12 -14 15 -67 15 -36 0 -70 3 -74 8 -13 12 -24 8 -24 -10z"/>
</g>
</svg>
