<svg version="1.0" xmlns="http://www.w3.org/2000/svg"
 width="65.000000pt" height="81.000000pt" viewBox="0 0 65.000000 81.000000"
 preserveAspectRatio="xMidYMid meet">
<metadata>
Created by potrace 1.15, written by Peter Selinger 2001-2017
</metadata>
<g transform="translate(0.000000,81.000000) scale(0.100000,-0.100000)"
fill="#000000" stroke="none">
<path d="M446 598 c10 -65 7 -130 -7 -138 -24 -15 -143 -32 -183 -26 -76 12
-95 62 -53 144 15 31 12 52 -8 52 -20 0 -45 -58 -52 -121 -5 -54 -4 -57 28
-87 28 -27 42 -32 82 -32 26 0 47 -4 47 -9 0 -4 -17 -20 -37 -34 -59 -39 -173
-157 -173 -178 0 -10 2 -19 5 -19 13 0 62 30 74 44 8 9 20 16 28 16 11 0 13
-15 11 -72 -3 -73 -3 -73 -56 -76 -35 -2 -52 -7 -52 -16 0 -8 7 -17 16 -20 28
-11 392 -7 399 4 13 21 -17 42 -52 35 -33 -6 -33 -6 -33 75 0 97 8 104 79 63
41 -22 54 -26 68 -17 32 20 19 38 -48 74 -79 42 -169 106 -169 120 0 5 9 10
19 10 11 0 39 9 64 19 36 16 47 27 57 56 22 68 -8 185 -47 185 -12 0 -13 -9
-7 -52z m-86 -295 c32 -38 32 -38 26 -132 -3 -52 -10 -99 -14 -103 -5 -5 -33
-8 -63 -6 -54 3 -54 3 -57 106 -3 100 -2 104 25 137 15 18 33 34 39 34 6 1 26
-16 44 -36z"/>
<path d="M278 584 c-11 -23 -10 -29 11 -45 29 -24 43 -24 65 0 13 14 14 24 7
45 -15 37 -66 37 -83 0z"/>
</g>
</svg>
