<svg version="1.0" xmlns="http://www.w3.org/2000/svg"
 width="68.000000pt" height="86.000000pt" viewBox="0 0 68.000000 86.000000"
 preserveAspectRatio="xMidYMid meet">
<metadata>
Created by potrace 1.15, written by Peter Selinger 2001-2017
</metadata>
<g transform="translate(0.000000,86.000000) scale(0.100000,-0.100000)"
fill="#000000" stroke="none">
<path d="M325 650 c-4 -7 1 -29 10 -51 16 -34 17 -44 5 -79 -10 -29 -10 -44
-3 -51 18 -18 29 -4 43 55 12 50 11 58 -7 92 -21 41 -37 52 -48 34z"/>
<path d="M457 558 c2 -112 13 -134 39 -72 14 33 14 47 4 94 -12 52 -25 80 -39
80 -3 0 -5 -46 -4 -102z"/>
<path d="M205 603 c4 -15 8 -53 9 -85 1 -63 6 -73 34 -64 14 5 22 19 27 52 8
56 -19 117 -55 122 -20 3 -22 1 -15 -25z"/>
<path d="M294 440 c-5 -5 -43 -18 -84 -29 -110 -28 -132 -38 -128 -59 5 -24
40 -26 79 -4 64 35 67 35 120 -15 49 -46 51 -47 77 -31 15 9 38 32 51 52 13
20 30 36 38 36 7 0 32 -12 54 -26 47 -29 94 -37 94 -15 0 21 -72 55 -168 79
-96 25 -119 26 -133 12z m76 -28 c30 -19 30 -19 9 -45 -19 -26 -53 -36 -61
-19 -1 4 -16 17 -32 30 -28 22 -28 22 -5 30 13 5 31 12 39 15 8 3 16 6 17 6 2
1 16 -7 33 -17z"/>
<path d="M230 287 c0 -8 13 -27 30 -43 16 -16 30 -37 30 -47 0 -16 -5 -18 -42
-12 -24 4 -47 11 -53 16 -37 35 -47 -24 -14 -78 27 -43 118 -103 157 -103 47
0 104 45 140 112 34 63 35 81 2 60 -30 -18 -60 -15 -60 6 0 19 28 54 56 70 18
10 11 32 -10 32 -16 0 -49 -36 -73 -80 -23 -42 -63 -54 -63 -20 0 13 -17 40
-39 61 -40 40 -61 49 -61 26z m220 -144 c-1 -12 -42 -56 -70 -74 -22 -14 -28
-14 -59 -2 -19 8 -50 30 -70 49 -36 34 -36 34 82 34 64 0 117 -3 117 -7z"/>
</g>
</svg>
