<svg version="1.0" xmlns="http://www.w3.org/2000/svg"
 width="71.000000pt" height="131.000000pt" viewBox="0 0 71.000000 131.000000"
 preserveAspectRatio="xMidYMid meet">
<metadata>
Created by potrace 1.15, written by Peter Selinger 2001-2017
</metadata>
<g transform="translate(0.000000,131.000000) scale(0.100000,-0.100000)"
fill="#000000" stroke="none">
<path d="M595 1217 c-3 -6 -6 -43 -7 -82 -3 -69 -3 -69 -43 -92 -36 -20 -188
-73 -210 -73 -14 0 -147 -41 -175 -53 -38 -18 -97 -86 -104 -120 -9 -45 -7
-142 5 -236 14 -110 17 -123 29 -141 16 -25 30 7 30 71 0 39 5 62 18 75 22 25
116 64 154 64 30 0 109 16 143 29 11 5 38 14 60 21 52 17 117 62 140 97 17 25
19 47 17 198 -2 94 -7 186 -12 206 -10 37 -37 59 -45 36z m-5 -311 c0 -83 0
-84 -39 -125 -21 -22 -41 -41 -43 -41 -2 0 -4 24 -4 53 -1 50 -26 124 -48 139
-5 4 3 10 20 14 16 4 43 15 59 25 52 30 55 27 55 -65z m-170 -33 c18 -23 21
-36 16 -73 -8 -55 -22 -70 -69 -72 -69 -2 -107 69 -73 138 14 31 19 34 60 34
37 0 48 -5 66 -27z m-203 -29 c-6 -34 12 -104 35 -128 10 -11 18 -23 18 -27 0
-8 -26 -19 -46 -19 -8 0 -34 -9 -56 -20 -23 -11 -45 -20 -50 -20 -4 0 -8 38
-8 83 0 80 1 85 33 120 40 46 82 52 74 11z"/>
<path d="M587 538 c-10 -35 -8 -114 3 -142 14 -39 37 -32 45 13 13 75 9 101
-17 128 -25 25 -25 25 -31 1z"/>
<path d="M376 519 c-11 -58 -7 -106 13 -130 26 -32 37 -18 45 52 5 48 3 61
-15 83 -27 34 -35 33 -43 -5z"/>
<path d="M192 428 c2 -64 6 -83 17 -83 9 0 20 20 28 53 13 50 12 55 -7 83 -12
16 -26 29 -31 29 -6 0 -9 -34 -7 -82z"/>
<path d="M417 340 c3 -11 9 -17 15 -14 5 3 4 12 -3 20 -16 19 -18 18 -12 -6z"/>
<path d="M218 254 c-3 -5 -5 -54 -4 -109 1 -81 4 -100 16 -103 12 -2 19 12 28
56 7 32 12 70 12 85 0 28 -43 86 -52 71z"/>
<path d="M414 173 c12 -132 25 -152 60 -92 16 27 17 69 3 108 -5 13 -53 61
-61 61 -5 0 -6 -32 -2 -77z"/>
<path d="M611 221 c-6 -10 -7 -28 -4 -41 4 -15 2 -21 -5 -16 -6 3 -13 2 -17
-4 -3 -5 1 -10 9 -10 11 0 16 -10 16 -30 0 -39 26 -90 45 -90 12 0 15 16 15
75 0 76 -12 120 -36 129 -8 3 -18 -3 -23 -13z"/>
</g>
</svg>
