<svg version="1.0" xmlns="http://www.w3.org/2000/svg"
 width="77.000000pt" height="139.000000pt" viewBox="0 0 77.000000 139.000000"
 preserveAspectRatio="xMidYMid meet">
<metadata>
Created by potrace 1.15, written by Peter Selinger 2001-2017
</metadata>
<g transform="translate(0.000000,139.000000) scale(0.100000,-0.100000)"
fill="#000000" stroke="none">
<path d="M555 1297 c-11 -7 -22 -14 -25 -17 -6 -6 -86 -50 -117 -65 -13 -5
-23 -13 -23 -16 0 -3 -22 -16 -50 -29 -27 -13 -50 -27 -50 -32 0 -4 -6 -8 -14
-8 -58 0 -213 -136 -234 -206 -16 -54 -15 -74 3 -115 19 -45 43 -71 79 -87 73
-32 258 -22 340 18 71 36 158 127 180 189 23 66 18 200 -12 276 -11 28 -17 56
-15 63 6 15 -15 42 -31 41 -6 0 -20 -6 -31 -12z m-2 -119 c42 -44 51 -195 17
-258 -17 -31 -19 -32 -20 -11 0 24 -40 152 -50 161 -15 14 -40 61 -40 76 0 36
68 59 93 32z m-120 -140 c65 -103 67 -190 4 -228 -64 -39 -152 -12 -175 54
-15 46 -24 123 -17 147 9 27 92 79 127 79 22 0 34 -10 61 -52z m-263 -85 c0
-45 39 -150 65 -177 14 -13 11 -14 -27 -10 -23 3 -54 14 -70 25 -25 18 -28 27
-28 72 0 34 7 63 20 85 24 39 40 41 40 5z"/>
<path d="M317 963 c-25 -24 11 -93 47 -93 38 0 49 22 32 64 -12 30 -20 36 -44
36 -16 0 -32 -3 -35 -7z"/>
<path d="M570 638 c0 -36 36 -147 54 -166 7 -7 20 -10 30 -6 18 7 18 45 0 119
-18 76 -84 118 -84 53z"/>
<path d="M402 615 c-7 -14 -12 -60 -12 -101 0 -61 4 -79 20 -96 19 -21 20 -21
40 -3 17 15 20 31 20 102 0 46 -5 93 -10 104 -15 27 -45 24 -58 -6z"/>
<path d="M230 612 c-21 -7 -35 -27 -74 -104 -35 -68 -37 -102 -9 -112 23 -9
30 -1 73 86 50 100 53 145 10 130z"/>
<path d="M623 313 c-15 -6 -17 -55 -4 -81 5 -9 24 -50 42 -90 30 -65 36 -73
58 -70 20 2 27 9 29 32 7 61 -76 224 -110 215 -2 0 -9 -3 -15 -6z"/>
<path d="M161 259 c-17 -17 -31 -39 -31 -49 0 -10 -4 -22 -10 -25 -5 -3 -10
-17 -10 -31 0 -13 -3 -24 -8 -24 -10 0 -31 -71 -25 -87 3 -7 11 -13 19 -13 14
0 80 92 107 151 9 20 24 42 32 49 14 12 13 16 -6 37 -29 29 -31 29 -68 -8z"/>
<path d="M389 274 c-13 -16 -15 -44 -11 -166 2 -54 4 -58 26 -58 13 0 28 6 34
13 20 24 36 195 20 215 -15 17 -53 15 -69 -4z"/>
</g>
</svg>
