<svg version="1.0" xmlns="http://www.w3.org/2000/svg"
 width="49.000000pt" height="81.000000pt" viewBox="0 0 49.000000 81.000000"
 preserveAspectRatio="xMidYMid meet">
<metadata>
Created by potrace 1.15, written by Peter Selinger 2001-2017
</metadata>
<g transform="translate(0.000000,81.000000) scale(0.100000,-0.100000)"
fill="#000000" stroke="none">
<path d="M73 574 c-5 -13 62 -104 76 -104 4 0 28 -20 54 -45 52 -49 80 -56 99
-25 7 11 16 20 19 20 3 0 16 -9 29 -20 26 -22 29 -23 48 -11 16 10 33 151 20
168 -12 15 -78 23 -221 28 -94 3 -119 0 -124 -11z m104 -39 c3 -9 3 -19 -1
-22 -7 -7 -36 16 -36 28 0 15 30 10 37 -6z m101 -40 c1 -22 -2 -46 -7 -54 -16
-25 -41 12 -41 59 0 37 2 41 23 38 18 -2 22 -10 25 -43z m100 5 c1 -14 -2 -31
-7 -39 -14 -22 -41 5 -41 41 0 25 4 29 23 26 15 -2 23 -11 25 -28z"/>
<path d="M134 319 c4 -29 12 -62 18 -73 11 -20 12 -19 20 11 11 44 -3 107 -26
111 -17 4 -18 -1 -12 -49z"/>
<path d="M317 353 c-14 -13 -7 -120 8 -133 12 -10 16 -8 23 11 18 48 -8 146
-31 122z"/>
<path d="M210 155 c0 -36 4 -65 9 -65 19 0 33 31 27 57 -4 16 -7 36 -7 45 0 9
-7 19 -15 22 -11 4 -14 -7 -14 -59z"/>
</g>
</svg>
