<svg version="1.0" xmlns="http://www.w3.org/2000/svg"
 width="62.000000pt" height="81.000000pt" viewBox="0 0 62.000000 81.000000"
 preserveAspectRatio="xMidYMid meet">
<metadata>
Created by potrace 1.15, written by Peter Selinger 2001-2017
</metadata>
<g transform="translate(0.000000,81.000000) scale(0.100000,-0.100000)"
fill="#000000" stroke="none">
<path d="M387 563 c-4 -3 -7 -19 -7 -35 0 -27 -2 -28 -51 -28 -64 0 -63 -24 2
-28 51 -4 59 -13 59 -69 0 -43 0 -43 -60 -43 -51 0 -60 -3 -60 -18 0 -16 13
-18 130 -19 102 0 132 2 142 14 19 23 -9 34 -69 27 -53 -6 -53 -6 -53 44 0 51
0 51 45 58 68 10 56 27 -25 36 -20 2 -26 9 -28 36 -3 31 -11 39 -25 25z"/>
<path d="M74 516 c-17 -13 -19 -30 -22 -208 -3 -185 -2 -195 18 -221 17 -22
30 -27 64 -27 79 0 81 4 84 206 4 196 2 209 -28 242 -24 26 -85 30 -116 8z
m104 -100 c3 -56 3 -56 -48 -56 -50 0 -50 0 -50 45 0 36 6 52 25 71 24 24 28
25 48 11 18 -11 23 -26 25 -71z m10 -123 c-3 -38 -3 -38 -55 -41 -53 -3 -53
-3 -53 37 0 41 0 41 56 41 55 0 55 0 52 -37z m0 -119 c4 -58 -23 -91 -64 -77
-27 9 -29 14 -32 67 -3 57 -3 57 45 54 48 -3 48 -3 51 -44z"/>
<path d="M395 266 c-3 -9 -7 -23 -10 -31 -3 -11 -19 -15 -55 -15 -44 0 -51 -3
-48 -17 2 -14 16 -19 53 -23 48 -5 50 -6 53 -37 5 -54 -12 -73 -64 -73 -32 0
-44 -4 -42 -12 6 -16 247 -33 261 -19 18 18 -6 31 -58 31 -54 0 -54 0 -60 44
-9 59 -1 70 45 62 27 -4 41 -2 50 9 19 23 2 35 -51 35 -45 0 -49 2 -49 24 0
29 -18 44 -25 22z"/>
</g>
</svg>
