<svg version="1.0" xmlns="http://www.w3.org/2000/svg"
 width="74.000000pt" height="89.000000pt" viewBox="0 0 74.000000 89.000000"
 preserveAspectRatio="xMidYMid meet">
<metadata>
Created by potrace 1.15, written by Peter Selinger 2001-2017
</metadata>
<g transform="translate(0.000000,89.000000) scale(0.100000,-0.100000)"
fill="#000000" stroke="none">
<path d="M472 648 c3 -37 0 -43 -17 -43 -15 0 -21 8 -25 35 -4 28 -10 36 -29
38 -18 3 -22 0 -18 -11 3 -9 9 -31 12 -51 8 -40 20 -53 55 -58 14 -1 26 -11
28 -20 3 -15 -4 -18 -38 -18 -53 0 -50 -24 3 -28 32 -3 37 -7 37 -28 0 -23 -3
-24 -61 -24 -44 0 -60 -3 -57 -12 4 -10 45 -14 152 -16 116 -2 147 0 144 10
-3 8 -29 15 -69 18 -56 4 -64 8 -64 25 0 17 8 21 58 25 31 3 57 10 57 15 0 6
-26 12 -57 15 -43 4 -58 9 -58 20 0 9 11 16 30 18 75 7 102 34 89 89 -13 53
-54 60 -54 10 0 -38 -30 -73 -55 -64 -9 4 -15 19 -15 41 0 25 -6 38 -19 46
-30 15 -32 13 -29 -32z"/>
<path d="M240 671 c-24 -7 -25 -10 -28 -99 -3 -94 -11 -110 -38 -74 -8 10 -13
45 -14 89 0 39 -4 74 -10 78 -5 3 -19 -4 -31 -16 -20 -20 -21 -28 -15 -97 9
-94 15 -105 65 -122 50 -16 56 -45 12 -55 -49 -10 -52 -22 -49 -166 3 -111 6
-134 18 -134 12 0 16 23 20 123 4 94 9 125 20 132 25 15 28 -9 20 -140 -4 -69
-5 -128 -3 -132 2 -5 11 -8 19 -8 26 0 36 52 32 178 -1 67 -1 122 3 122 22 0
29 -33 29 -146 0 -126 9 -156 37 -119 9 14 13 55 13 143 0 124 0 124 -40 140
-35 13 -41 19 -38 41 2 20 11 28 41 36 21 6 42 17 47 25 15 24 12 106 -5 120
-22 18 -32 5 -38 -51 -7 -59 -10 -64 -32 -56 -10 5 -15 20 -15 51 0 61 15 96
40 96 12 0 30 5 41 11 16 8 18 13 8 25 -12 15 -65 17 -109 5z"/>
<path d="M413 365 c-21 -15 -23 -24 -23 -105 0 -84 2 -91 25 -106 19 -13 25
-25 27 -67 2 -38 7 -52 18 -52 11 0 16 14 18 53 3 48 5 53 25 50 19 -3 23 -11
27 -58 4 -47 8 -55 25 -55 17 0 20 7 20 52 -1 49 1 52 30 60 30 9 30 9 33 104
3 120 0 124 -118 133 -70 6 -89 4 -107 -9z m151 -25 c14 -5 26 -16 26 -25 0
-12 -15 -15 -81 -15 -71 0 -80 2 -77 18 2 11 16 19 38 23 54 10 67 10 94 -1z
m21 -80 c-3 -5 -40 -10 -81 -10 -43 0 -74 4 -74 10 0 6 34 10 81 10 51 0 78
-4 74 -10z m-7 -62 c-3 -21 -8 -23 -73 -23 -65 0 -70 2 -73 23 -3 21 -1 22 73
22 74 0 76 -1 73 -22z"/>
</g>
</svg>
