<svg version="1.0" xmlns="http://www.w3.org/2000/svg"
 width="68.000000pt" height="93.000000pt" viewBox="0 0 68.000000 93.000000"
 preserveAspectRatio="xMidYMid meet">
<metadata>
Created by potrace 1.15, written by Peter Selinger 2001-2017
</metadata>
<g transform="translate(0.000000,93.000000) scale(0.100000,-0.100000)"
fill="#000000" stroke="none">
<path d="M58 634 c-10 -3 -18 -14 -18 -25 0 -18 8 -19 124 -19 68 0 131 -3
140 -6 29 -11 18 -49 -21 -75 -20 -13 -47 -44 -60 -69 -23 -43 -23 -51 -17
-180 3 -74 7 -148 8 -164 1 -37 29 -57 50 -36 13 13 14 30 5 114 -5 54 -8 105
-5 112 4 11 30 14 101 14 76 0 97 3 101 15 4 8 0 22 -7 31 -10 12 -31 14 -103
12 -91 -3 -91 -3 -89 22 5 52 14 66 58 93 29 19 47 38 51 55 3 15 7 33 10 40
2 8 28 12 84 12 85 0 120 10 120 35 0 8 -1 15 -2 16 -12 4 -517 6 -530 3z"/>
</g>
</svg>
