<svg version="1.0" xmlns="http://www.w3.org/2000/svg"
 width="115.000000pt" height="115.000000pt" viewBox="0 0 115.000000 115.000000"
 preserveAspectRatio="xMidYMid meet">
<metadata>
Created by potrace 1.15, written by Peter Selinger 2001-2017
</metadata>
<g transform="translate(0.000000,115.000000) scale(0.100000,-0.100000)"
fill="#000000" stroke="none">
<path d="M975 920 c3 -5 8 -10 11 -10 2 0 4 5 4 10 0 6 -5 10 -11 10 -5 0 -7
-4 -4 -10z"/>
<path d="M726 911 c-3 -5 1 -11 9 -15 8 -3 15 -1 15 4 0 13 -18 22 -24 11z"/>
<path d="M244 898 c-7 -10 45 -67 61 -68 6 0 11 18 12 39 2 38 2 39 -32 39
-19 0 -38 -4 -41 -10z"/>
<path d="M445 827 c-51 -15 -105 -48 -105 -63 0 -17 25 -24 90 -24 80 0 90
-15 90 -134 0 -49 4 -103 9 -120 6 -17 16 -65 22 -106 12 -68 32 -111 45 -97
3 3 6 54 6 114 -1 109 -1 109 68 108 104 0 121 31 33 62 -21 7 -57 13 -80 13
-36 0 -43 3 -43 19 0 11 6 22 13 24 9 4 9 7 -1 15 -9 6 -12 27 -10 63 3 54 3
54 85 54 111 0 121 15 40 57 -50 25 -198 34 -262 15z"/>
</g>
</svg>
