<svg version="1.0" xmlns="http://www.w3.org/2000/svg"
 width="69.000000pt" height="83.000000pt" viewBox="0 0 69.000000 83.000000"
 preserveAspectRatio="xMidYMid meet">
<metadata>
Created by potrace 1.15, written by Peter Selinger 2001-2017
</metadata>
<g transform="translate(0.000000,83.000000) scale(0.100000,-0.100000)"
fill="#000000" stroke="none">
<path d="M470 663 c-129 -5 -127 -4 -135 -68 -7 -54 -7 -54 -144 -57 -113 -3
-136 -6 -136 -18 0 -10 12 -16 37 -18 32 -3 38 -8 48 -37 6 -19 17 -38 25 -42
20 -12 5 -87 -18 -91 -23 -5 -47 15 -47 38 0 18 -23 34 -34 23 -13 -13 -5 -51
14 -68 11 -10 37 -21 58 -24 29 -5 38 -11 40 -30 5 -35 -12 -47 -44 -31 -23
13 -27 13 -41 -5 -11 -15 -13 -35 -9 -78 3 -32 8 -62 11 -66 2 -5 25 -14 49
-21 56 -15 111 -6 140 23 18 20 29 22 89 19 68 -4 68 -4 65 -45 -4 -58 22 -57
42 1 12 34 19 42 40 42 42 0 102 20 97 33 -2 7 -30 13 -70 15 -37 2 -67 7 -67
11 0 15 24 28 62 35 47 9 68 41 68 105 0 74 -19 84 -144 75 -113 -8 -126 -18
-126 -95 0 -67 7 -78 51 -85 32 -5 39 -11 39 -29 0 -22 -5 -24 -65 -27 -65 -3
-65 -3 -65 47 0 28 -4 56 -9 64 -10 16 -31 6 -31 -15 0 -16 -45 -20 -55 -4
-11 18 19 64 48 71 40 11 57 28 57 55 0 32 -24 31 -38 -1 -8 -17 -20 -25 -37
-25 -39 0 -35 54 8 100 18 19 40 47 50 63 23 36 37 34 37 -6 0 -65 12 -70 149
-65 137 6 141 8 141 74 0 49 -12 61 -68 70 -35 5 -42 10 -42 30 0 21 5 23 52
26 41 2 54 7 56 21 3 14 -3 17 -30 15 -18 -1 -71 -3 -118 -5z m10 -58 c0 -16
-6 -25 -15 -25 -9 0 -15 9 -15 25 0 16 6 25 15 25 9 0 15 -9 15 -25z m-62 -12
c3 -20 -1 -23 -27 -23 -23 0 -31 5 -31 18 0 25 10 33 35 30 12 -2 21 -12 23
-25z m160 -80 c2 -24 -2 -34 -18 -43 -32 -17 -50 -5 -50 34 0 36 11 46 45 43
15 -1 21 -11 23 -34z m-161 11 c3 -8 1 -26 -6 -40 -9 -21 -14 -23 -30 -14 -22
11 -36 44 -26 60 10 16 55 12 62 -6z m63 -24 c0 -29 -4 -40 -15 -40 -11 0 -15
11 -15 40 0 29 4 40 15 40 11 0 15 -11 15 -40z m-245 -12 c-10 -33 -29 -50
-48 -42 -36 14 -12 64 31 64 20 0 22 -4 17 -22z m325 -152 c0 -21 -23 -26
-111 -26 -77 0 -79 1 -69 20 9 18 21 20 95 20 66 0 85 -3 85 -14z m0 -71 c0
-25 -40 -37 -107 -33 -60 4 -82 15 -83 41 0 4 43 7 95 7 77 0 95 -3 95 -15z
m-302 -98 c5 -42 -13 -57 -69 -57 -42 0 -51 3 -60 24 -8 17 -8 29 1 45 10 19
18 22 68 19 54 -3 57 -4 60 -31z"/>
<path d="M82 631 c-3 -7 1 -17 9 -22 19 -12 170 -11 189 1 28 18 -4 28 -99 32
-72 2 -95 0 -99 -11z"/>
</g>
</svg>
