<svg version="1.0" xmlns="http://www.w3.org/2000/svg"
 width="65.000000pt" height="93.000000pt" viewBox="0 0 65.000000 93.000000"
 preserveAspectRatio="xMidYMid meet">
<metadata>
Created by potrace 1.15, written by Peter Selinger 2001-2017
</metadata>
<g transform="translate(0.000000,93.000000) scale(0.100000,-0.100000)"
fill="#000000" stroke="none">
<path d="M447 706 c-11 -11 -13 -33 -9 -90 5 -75 5 -75 -39 -78 -32 -2 -45 -8
-47 -20 -3 -14 3 -18 26 -18 59 0 62 -4 62 -101 0 -89 0 -89 -44 -89 -58 0
-76 -8 -76 -32 0 -18 6 -19 83 -18 45 1 112 4 150 7 57 4 67 8 67 24 0 17 -8
19 -65 19 -65 0 -65 0 -65 89 0 97 2 101 73 101 27 0 47 23 33 38 -4 3 -28 9
-54 12 -47 5 -47 5 -48 75 0 39 -2 76 -2 83 -3 16 -27 15 -45 -2z"/>
<path d="M90 680 c-9 -17 -5 -22 31 -41 36 -18 40 -23 27 -35 -7 -8 -34 -20
-58 -27 -47 -13 -65 -42 -35 -53 25 -10 103 25 140 62 32 32 63 43 78 28 10
-10 -25 -64 -56 -86 -44 -32 -55 -64 -54 -158 1 -47 -3 -93 -9 -103 -19 -32
-38 7 -44 92 -4 68 -7 76 -25 76 -19 0 -20 -5 -16 -90 3 -98 12 -125 39 -125
34 0 42 -21 42 -112 0 -70 3 -90 15 -94 32 -13 44 15 47 109 3 91 3 91 35 99
26 7 35 16 43 46 16 53 9 157 -10 157 -11 0 -16 -16 -20 -61 -3 -42 -11 -69
-24 -83 -27 -30 -36 -12 -36 71 0 86 10 111 70 170 49 48 62 84 42 115 -11 17
-58 33 -98 33 -19 0 -51 7 -71 15 -44 19 -40 19 -53 -5z"/>
</g>
</svg>
