<svg version="1.0" xmlns="http://www.w3.org/2000/svg"
 width="70.000000pt" height="86.000000pt" viewBox="0 0 70.000000 86.000000"
 preserveAspectRatio="xMidYMid meet">
<metadata>
Created by potrace 1.15, written by Peter Selinger 2001-2017
</metadata>
<g transform="translate(0.000000,86.000000) scale(0.100000,-0.100000)"
fill="#000000" stroke="none">
<path d="M290 675 c-7 -8 -10 -25 -6 -40 8 -31 3 -33 -98 -38 -82 -4 -99 -14
-76 -42 14 -17 90 -21 90 -4 0 6 17 9 43 7 39 -3 42 -5 45 -35 3 -33 3 -33
-57 -33 -82 0 -93 -12 -86 -98 4 -37 8 -77 11 -88 2 -12 -3 -68 -11 -125 -8
-57 -15 -110 -15 -116 0 -24 28 -13 39 14 14 37 32 190 27 228 -3 16 -8 54
-11 83 -6 52 -6 52 29 52 34 0 34 0 40 -172 3 -95 4 -186 3 -203 -2 -25 2 -31
22 -33 24 -4 24 -4 20 205 -4 208 -4 208 29 211 32 3 32 3 32 -200 0 -204 4
-228 36 -228 6 0 14 14 18 30 5 26 10 30 39 30 55 0 97 11 97 26 0 11 -17 14
-70 14 -67 0 -70 1 -70 24 0 22 5 25 73 33 54 6 72 12 72 23 0 12 -14 15 -76
13 -76 -3 -76 -3 -83 65 -3 37 -6 88 -6 115 0 47 0 47 34 47 34 0 34 0 41
-100 7 -101 18 -127 40 -96 19 25 28 151 15 191 -15 46 -35 55 -120 55 -71 0
-71 0 -68 33 3 32 3 32 108 37 83 4 105 8 105 20 0 20 -58 30 -139 23 -68 -6
-68 -6 -61 26 5 25 3 35 -12 46 -23 18 -28 18 -43 0z"/>
</g>
</svg>
