<svg version="1.0" xmlns="http://www.w3.org/2000/svg"
 width="51.000000pt" height="87.000000pt" viewBox="0 0 51.000000 87.000000"
 preserveAspectRatio="xMidYMid meet">
<metadata>
Created by potrace 1.15, written by Peter Selinger 2001-2017
</metadata>
<g transform="translate(0.000000,87.000000) scale(0.100000,-0.100000)"
fill="#000000" stroke="none">
<path d="M183 738 c-56 -6 -93 -15 -96 -22 -6 -15 18 -165 34 -214 6 -18 18
-39 26 -48 16 -15 38 -103 28 -112 -2 -3 -16 3 -29 12 -46 30 -51 16 -9 -22
41 -36 58 -82 32 -82 -16 0 -69 -40 -69 -52 0 -7 13 -8 35 -5 31 5 35 3 35
-16 -1 -12 -7 -44 -14 -72 -8 -27 -12 -53 -9 -58 7 -13 23 3 23 24 0 10 4 19
8 19 18 0 36 100 36 203 -1 83 2 107 13 107 8 0 13 -10 12 -27 -7 -115 35
-343 63 -343 6 0 7 7 4 17 -13 32 -30 152 -23 159 4 4 18 1 32 -6 14 -7 28
-10 31 -7 7 7 -53 67 -67 67 -21 0 -6 43 26 76 38 37 39 65 2 39 -31 -22 -37
-19 -37 20 0 19 4 35 8 35 14 0 28 40 42 115 7 39 18 94 25 123 18 78 -3 87
-162 70z m120 -60 c-3 -18 -7 -34 -8 -36 -1 -1 -39 -5 -83 -8 -82 -5 -82 -5
-82 25 0 41 21 50 107 51 72 0 72 0 66 -32z m-13 -103 c0 -14 -1 -25 -2 -26
-2 0 -33 -3 -70 -6 -67 -4 -68 -4 -68 21 0 28 12 33 88 35 49 1 52 0 52 -24z
m-20 -77 c0 -7 -11 -26 -24 -43 -23 -29 -23 -29 -55 2 -17 17 -31 36 -31 42 0
7 22 11 55 11 37 0 55 -4 55 -12z"/>
<path d="M469 730 c-20 -33 -36 -92 -44 -160 -4 -30 -8 -64 -10 -75 -2 -11 -4
-39 -4 -63 -1 -35 -8 -50 -41 -86 -44 -48 -40 -69 6 -34 16 13 31 26 32 30 8
17 22 -5 22 -33 0 -39 -51 -145 -78 -162 -7 -5 -9 -13 -6 -19 8 -12 84 68 84
88 0 7 6 14 12 16 9 3 12 36 10 119 -2 140 12 315 28 334 6 8 10 26 8 42 -3
27 -3 27 -19 3z"/>
</g>
</svg>
