<svg version="1.0" xmlns="http://www.w3.org/2000/svg"
 width="85.000000pt" height="131.000000pt" viewBox="0 0 85.000000 131.000000"
 preserveAspectRatio="xMidYMid meet">
<metadata>
Created by potrace 1.15, written by Peter Selinger 2001-2017
</metadata>
<g transform="translate(0.000000,131.000000) scale(0.100000,-0.100000)"
fill="#000000" stroke="none">
<path d="M342 1183 c-6 -11 -14 -55 -18 -99 -8 -94 -28 -123 -136 -196 -78
-52 -108 -77 -108 -90 0 -11 44 -10 55 1 27 25 176 101 187 95 4 -3 8 -111 8
-241 0 -236 0 -236 -41 -317 -23 -44 -45 -83 -48 -86 -8 -6 -91 -165 -91 -174
0 -13 20 -5 49 20 17 14 45 52 63 85 17 33 48 79 68 102 37 42 37 42 71 3 103
-116 190 -196 214 -196 20 0 19 22 -2 46 -10 10 -30 35 -45 54 -14 19 -52 62
-82 95 -31 33 -56 64 -56 68 0 5 -8 19 -18 32 -17 22 -18 43 -15 266 2 134 7
247 12 252 4 4 19 4 32 -1 75 -29 169 -48 169 -34 0 16 -23 30 -75 47 -64 21
-136 56 -141 70 -2 5 -5 50 -7 98 -2 63 -8 92 -19 103 -15 15 -17 15 -26 -3z"/>
<path d="M617 784 c-2 -2 -23 -7 -47 -10 -99 -14 -141 -54 -80 -77 18 -7 32
-20 35 -32 2 -11 8 -45 14 -75 5 -30 15 -91 20 -134 11 -74 10 -80 -9 -93 -11
-8 -20 -21 -20 -29 0 -25 27 -27 67 -6 21 11 51 23 66 27 46 10 120 93 141
157 16 51 16 65 4 150 -13 93 -13 93 -53 106 -38 13 -131 23 -138 16z m90 -76
c37 -41 47 -72 46 -142 0 -65 -2 -70 -34 -100 -19 -17 -47 -37 -63 -44 -36
-16 -46 -5 -46 50 0 20 -4 38 -9 40 -5 2 -11 48 -13 102 -3 99 -3 99 32 104
19 2 37 6 39 8 10 10 29 2 48 -18z"/>
<path d="M640 626 c0 -47 22 -106 40 -106 12 0 13 100 2 115 -4 6 -15 16 -24
24 -17 12 -18 10 -18 -33z"/>
<path d="M201 648 c-17 -24 -34 -47 -38 -53 -5 -5 -22 -36 -38 -67 -23 -43
-27 -60 -18 -69 9 -9 17 -6 35 12 63 62 134 179 124 205 -10 25 -34 15 -65
-28z"/>
</g>
</svg>
