<svg version="1.0" xmlns="http://www.w3.org/2000/svg"
 width="53.000000pt" height="107.000000pt" viewBox="0 0 53.000000 107.000000"
 preserveAspectRatio="xMidYMid meet">
<metadata>
Created by potrace 1.15, written by Peter Selinger 2001-2017
</metadata>
<g transform="translate(0.000000,107.000000) scale(0.100000,-0.100000)"
fill="#000000" stroke="none">
<path d="M325 870 c-8 -16 -15 -46 -16 -67 0 -21 -6 -68 -12 -104 -12 -66 -21
-81 -92 -139 -16 -14 -17 -12 -10 28 5 34 3 46 -14 68 -23 29 -25 42 -12 63 7
12 14 10 36 -8 27 -20 55 -28 55 -14 0 3 -12 30 -26 59 -20 41 -23 57 -15 72
6 12 8 30 3 42 -10 27 -15 22 -71 -82 -46 -85 -50 -118 -21 -156 14 -17 17
-29 10 -36 -5 -5 -10 -24 -10 -41 0 -16 -7 -50 -16 -75 -15 -42 -43 -145 -44
-162 0 -5 4 -8 8 -8 12 0 92 167 92 190 0 5 11 10 25 10 14 0 33 7 42 15 29
24 37 18 34 -28 -4 -70 25 -157 110 -329 5 -10 9 -36 9 -58 0 -49 15 -53 24
-5 8 42 -1 95 -26 154 -10 24 -17 45 -15 47 2 2 20 -1 41 -7 21 -6 40 -8 44
-5 8 8 -29 35 -49 36 -9 0 -19 7 -23 15 -3 8 -13 15 -22 15 -19 0 -17 10 16
86 26 59 22 114 -11 142 -25 22 -24 38 4 38 63 0 97 5 97 12 0 13 -47 32 -77
32 -27 0 -27 0 4 33 50 53 86 107 73 107 -7 0 -35 -20 -61 -45 -26 -25 -52
-45 -57 -45 -4 0 -6 41 -4 90 3 50 2 90 -2 90 -3 0 -12 -13 -21 -30z m25 -359
c-1 -20 -7 -47 -15 -61 -13 -23 -14 -20 -15 49 0 64 2 72 15 61 8 -7 15 -28
15 -49z"/>
</g>
</svg>
