<svg version="1.0" xmlns="http://www.w3.org/2000/svg"
 width="64.000000pt" height="84.000000pt" viewBox="0 0 64.000000 84.000000"
 preserveAspectRatio="xMidYMid meet">
<metadata>
Created by potrace 1.15, written by Peter Selinger 2001-2017
</metadata>
<g transform="translate(0.000000,84.000000) scale(0.100000,-0.100000)"
fill="#000000" stroke="none">
<path d="M132 678 c-7 -7 -12 -32 -12 -57 0 -38 5 -51 36 -82 41 -42 40 -69 0
-69 -81 0 -136 -104 -80 -151 8 -6 14 -21 14 -33 0 -26 -35 -94 -61 -119 -24
-23 -24 -37 1 -37 22 0 97 88 112 133 18 50 43 27 40 -38 -3 -51 -19 -102 -45
-138 -20 -30 -13 -53 14 -42 18 7 65 106 79 168 14 61 5 77 -65 116 -30 17
-55 36 -55 43 0 25 32 47 59 42 21 -4 35 1 59 24 43 40 42 72 -5 117 -24 23
-40 51 -48 82 -13 50 -23 61 -43 41z"/>
<path d="M374 595 c-9 -37 2 -84 32 -128 34 -52 27 -73 -45 -124 -50 -37 -60
-50 -70 -88 -13 -54 -3 -81 36 -96 36 -13 84 4 111 41 30 40 82 50 118 21 15
-12 31 -21 35 -21 19 0 7 40 -17 59 -40 31 -87 27 -148 -14 -66 -44 -86 -45
-86 -6 0 20 9 36 33 54 17 14 51 43 75 65 51 48 54 78 11 126 -21 24 -33 51
-37 83 -8 56 -37 73 -48 28z"/>
</g>
</svg>
