<svg version="1.0" xmlns="http://www.w3.org/2000/svg"
 width="61.000000pt" height="85.000000pt" viewBox="0 0 61.000000 85.000000"
 preserveAspectRatio="xMidYMid meet">
<metadata>
Created by potrace 1.15, written by Peter Selinger 2001-2017
</metadata>
<g transform="translate(0.000000,85.000000) scale(0.100000,-0.100000)"
fill="#000000" stroke="none">
<path d="M120 681 c-26 -4 -35 -11 -35 -26 0 -18 8 -21 80 -25 77 -5 80 -6 83
-31 3 -22 -2 -27 -29 -33 -17 -3 -45 -6 -61 -6 -49 0 -86 -26 -94 -65 -10 -55
11 -72 106 -80 68 -6 79 -10 84 -28 7 -30 -2 -36 -70 -47 -85 -14 -112 -27
-118 -58 -33 -183 -32 -246 7 -240 21 3 22 9 29 113 7 124 20 145 84 145 19 0
50 6 69 14 27 11 35 22 40 49 14 72 -16 97 -115 97 -63 0 -77 9 -61 38 8 15
25 20 82 24 76 6 93 16 106 66 19 77 -58 116 -187 93z"/>
<path d="M420 641 c-62 -11 -69 -41 -70 -293 0 -218 0 -218 25 -234 20 -13 40
-16 91 -11 115 9 127 38 122 309 -3 182 -4 187 -27 212 -26 27 -61 31 -141 17z
m101 -57 c7 -9 10 -74 7 -209 -4 -226 -5 -228 -88 -223 -45 3 -45 3 -43 218 2
174 5 217 16 225 20 14 93 7 108 -11z"/>
</g>
</svg>
