<svg version="1.0" xmlns="http://www.w3.org/2000/svg"
 width="69.000000pt" height="145.000000pt" viewBox="0 0 69.000000 145.000000"
 preserveAspectRatio="xMidYMid meet">
<metadata>
Created by potrace 1.15, written by Peter Selinger 2001-2017
</metadata>
<g transform="translate(0.000000,145.000000) scale(0.100000,-0.100000)"
fill="#000000" stroke="none">
<path d="M337 1260 c-22 -73 -32 -98 -47 -120 -21 -29 -60 -99 -60 -105 0 -14
35 -2 52 17 29 34 38 8 34 -92 -2 -47 -5 -101 -5 -121 -1 -37 -1 -37 -91 -38
-50 -1 -90 1 -90 4 0 2 9 19 20 37 21 34 26 68 11 68 -5 0 -26 -22 -47 -50
-21 -27 -43 -50 -49 -50 -6 0 -16 -13 -22 -30 -10 -27 -9 -30 7 -30 10 0 42
-27 71 -60 29 -33 56 -60 60 -60 24 0 -4 60 -49 108 -7 8 -11 16 -10 18 2 1
45 0 96 -3 92 -6 92 -6 93 -57 3 -96 -3 -149 -22 -204 -24 -68 -24 -94 -1
-157 18 -50 18 -50 -24 -155 -23 -58 -38 -106 -33 -108 10 -4 39 22 39 36 0 5
7 15 16 23 10 8 14 22 10 40 -5 25 -3 27 21 25 15 -2 32 -14 42 -29 8 -15 19
-27 23 -27 15 0 13 76 -2 95 -16 21 -20 53 -8 67 20 21 58 95 58 111 0 8 -14
41 -31 73 -29 54 -32 67 -33 159 -1 95 0 100 19 96 11 -1 59 -3 108 -3 98 1
106 -6 57 -54 -31 -31 -39 -54 -17 -54 21 0 117 97 117 119 0 14 -131 142
-140 136 -10 -6 19 -75 32 -75 4 0 8 -4 8 -10 0 -6 -37 -10 -91 -10 -90 0 -90
0 -87 160 2 88 6 160 10 160 5 0 8 -4 8 -8 0 -12 59 -76 65 -71 9 10 -17 80
-38 102 -12 12 -27 33 -33 47 -6 14 -18 41 -27 60 -10 23 -17 30 -20 20z m13
-848 c0 -52 -13 -69 -28 -37 -16 34 -15 72 1 78 20 7 27 -3 27 -41z"/>
</g>
</svg>
