<svg version="1.0" xmlns="http://www.w3.org/2000/svg"
 width="53.000000pt" height="105.000000pt" viewBox="0 0 53.000000 105.000000"
 preserveAspectRatio="xMidYMid meet">
<metadata>
Created by potrace 1.15, written by Peter Selinger 2001-2017
</metadata>
<g transform="translate(0.000000,105.000000) scale(0.100000,-0.100000)"
fill="#000000" stroke="none">
<path d="M293 893 c-3 -10 -14 -29 -23 -43 -62 -89 -100 -173 -100 -220 0 -22
-7 -52 -16 -65 -32 -48 -44 -127 -44 -282 0 -96 4 -153 10 -153 6 0 11 19 11
43 4 145 32 347 48 347 8 0 20 -22 43 -77 7 -18 17 -33 22 -33 9 0 7 14 -17
99 -14 52 -14 55 7 75 32 32 86 69 92 63 3 -3 6 -99 6 -214 -1 -159 3 -214 13
-233 14 -25 14 -25 15 10 0 19 5 148 10 285 5 138 7 260 3 273 -10 42 -43 21
-43 -28 0 -11 -9 -24 -19 -30 -11 -5 -25 -16 -33 -23 -7 -7 -25 -21 -40 -31
-28 -18 -28 -18 -28 4 0 19 31 74 50 90 3 3 17 21 30 40 13 19 28 38 33 41 13
9 4 72 -10 77 -7 2 -16 -5 -20 -15z"/>
</g>
</svg>
