<svg version="1.0" xmlns="http://www.w3.org/2000/svg"
 width="35.000000pt" height="95.000000pt" viewBox="0 0 35.000000 95.000000"
 preserveAspectRatio="xMidYMid meet">
<metadata>
Created by potrace 1.15, written by Peter Selinger 2001-2017
</metadata>
<g transform="translate(0.000000,95.000000) scale(0.100000,-0.100000)"
fill="#000000" stroke="none">
<path d="M237 803 c-3 -4 -1 -29 5 -54 12 -51 5 -99 -15 -98 -13 0 -77 83 -77
100 0 14 -29 43 -36 36 -4 -3 -8 -66 -10 -139 -5 -150 -11 -198 -24 -198 -6 0
-10 -4 -10 -10 0 -5 6 -10 14 -10 16 0 26 -88 26 -233 0 -63 4 -96 10 -92 5 3
10 17 10 31 0 14 4 33 9 42 8 15 19 168 21 273 0 35 27 79 47 79 10 0 23 -120
23 -207 0 -65 20 -51 22 15 0 31 1 64 0 72 0 8 4 17 9 21 6 3 6 32 -1 78 -8
47 -8 76 -2 84 25 30 31 89 17 145 -15 57 -29 80 -38 65z m-51 -207 c-3 -14
-11 -26 -17 -26 -15 0 -22 27 -14 57 6 24 8 25 22 10 10 -10 13 -24 9 -41z"/>
</g>
</svg>
