<svg version="1.0" xmlns="http://www.w3.org/2000/svg"
 width="55.000000pt" height="77.000000pt" viewBox="0 0 55.000000 77.000000"
 preserveAspectRatio="xMidYMid meet">
<metadata>
Created by potrace 1.15, written by Peter Selinger 2001-2017
</metadata>
<g transform="translate(0.000000,77.000000) scale(0.100000,-0.100000)"
fill="#000000" stroke="none">
<path d="M282 613 c6 -24 -20 -43 -58 -43 -23 0 -25 -3 -20 -26 5 -20 2 -30
-14 -41 -26 -18 -26 -43 0 -50 28 -8 25 -21 -7 -25 -41 -5 -38 -23 6 -43 40
-18 40 -18 36 -74 -14 -177 -15 -243 -2 -239 15 6 43 107 50 184 8 80 16 102
39 110 11 3 21 4 23 2 2 -2 5 -35 6 -73 2 -114 16 -137 37 -62 13 48 18 174 8
198 -5 11 2 26 19 43 30 30 27 56 -5 56 -42 0 -79 28 -82 62 -2 23 -9 34 -22
36 -14 3 -18 -1 -14 -15z m68 -133 c0 -5 -9 -10 -20 -10 -11 0 -20 5 -20 10 0
6 9 10 20 10 11 0 20 -4 20 -10z"/>
</g>
</svg>
