<svg version="1.0" xmlns="http://www.w3.org/2000/svg"
 width="123.000000pt" height="151.000000pt" viewBox="0 0 123.000000 151.000000"
 preserveAspectRatio="xMidYMid meet">
<metadata>
Created by potrace 1.15, written by Peter Selinger 2001-2017
</metadata>
<g transform="translate(0.000000,151.000000) scale(0.100000,-0.100000)"
fill="#000000" stroke="none">
<path d="M530 1425 c0 -23 38 -69 74 -90 44 -26 44 -26 51 -108 3 -45 8 -89
11 -97 2 -10 -12 -23 -40 -38 -88 -47 -101 -150 -36 -298 40 -91 61 -192 60
-291 0 -54 -2 -115 -5 -136 -7 -48 10 -84 29 -64 17 16 27 63 33 155 4 68 6
72 29 72 13 0 32 -4 42 -9 32 -17 167 -54 215 -59 40 -4 46 -2 41 11 -7 18
-21 25 -94 42 -30 7 -93 27 -140 44 -47 17 -86 31 -86 31 -1 0 -7 28 -14 63
-7 34 -17 66 -21 71 -18 20 -8 26 38 26 26 0 65 -8 87 -19 23 -10 72 -32 109
-50 74 -34 141 -42 135 -16 -3 14 -39 33 -145 76 -38 16 -46 44 -36 141 6 70
6 70 52 63 124 -17 168 -17 174 -1 9 24 -43 46 -107 46 -30 0 -58 5 -61 10 -3
6 -15 10 -25 10 -25 0 -88 30 -94 45 -8 21 8 32 79 54 80 26 89 32 110 74 20
40 19 52 -7 101 -26 46 -39 58 -85 81 -37 18 -58 19 -157 12 -73 -6 -119 6
-145 36 -12 15 -71 25 -71 12z m346 -106 c42 -25 54 -47 54 -93 0 -43 -30 -66
-115 -86 -53 -13 -56 -12 -74 9 -25 28 -39 144 -21 166 6 8 34 16 63 18 29 2
54 4 56 5 2 1 19 -7 37 -19z m-131 -295 c17 -14 41 -30 54 -35 23 -9 23 -13
17 -71 -3 -33 -6 -71 -6 -83 0 -31 -39 -37 -103 -18 -55 16 -66 25 -85 66 -25
57 -5 124 46 151 37 21 43 20 77 -10z"/>
<path d="M150 1382 c0 -23 98 -82 177 -106 29 -9 73 3 73 20 0 7 -18 23 -40
34 -22 11 -40 18 -40 15 0 -4 -12 1 -27 9 -26 13 -108 36 -132 36 -6 0 -11 -4
-11 -8z m130 -57 c-7 -8 -16 -12 -21 -9 -13 8 -1 24 18 24 13 0 13 -3 3 -15z"/>
<path d="M0 1213 c0 -12 23 -28 68 -50 90 -42 159 -103 172 -153 16 -61 17
-189 1 -199 -7 -5 -11 -13 -8 -18 3 -5 -3 -51 -13 -103 -9 -52 -16 -100 -13
-106 2 -7 0 -15 -6 -19 -7 -3 -11 -43 -11 -97 0 -82 3 -96 35 -163 32 -68 55
-92 76 -79 15 9 10 31 -21 96 -26 54 -30 72 -30 149 0 48 4 99 9 112 5 13 10
46 12 73 1 27 6 54 9 59 4 6 10 24 13 40 3 17 11 55 17 85 15 79 5 199 -20
225 -11 12 -20 25 -20 31 0 5 -20 26 -45 48 -24 21 -41 44 -39 51 4 9 -1 12
-14 8 -11 -3 -45 2 -75 11 -72 21 -97 21 -97 -1z"/>
<path d="M20 1045 c0 -17 44 -117 60 -135 27 -32 50 -12 50 44 0 35 -5 45 -34
69 -30 23 -76 37 -76 22z"/>
<path d="M426 652 c-12 -36 -10 -196 3 -239 23 -83 68 -41 51 48 -6 28 -10 78
-10 111 0 44 -5 64 -19 79 -19 21 -19 21 -25 1z"/>
<path d="M45 463 c4 -42 11 -84 15 -92 5 -9 11 -24 14 -33 3 -10 11 -15 18
-13 41 16 37 124 -7 181 -40 53 -48 44 -40 -43z"/>
<path d="M290 380 c0 -5 7 -10 15 -10 8 0 15 5 15 10 0 6 -7 10 -15 10 -8 0
-15 -4 -15 -10z"/>
<path d="M1024 330 c-27 -3 -62 -13 -77 -23 -14 -9 -33 -17 -42 -17 -25 0
-295 -92 -295 -101 0 -4 13 -10 29 -14 38 -8 47 -20 55 -72 5 -33 3 -44 -11
-51 -10 -6 -14 -16 -9 -27 7 -19 35 -18 146 8 36 8 101 20 145 27 44 6 91 15
105 20 14 5 37 11 51 14 14 3 35 14 47 25 22 19 22 19 0 25 -13 3 -36 16 -51
29 -25 19 -30 32 -35 92 -7 70 -7 70 -58 65z m0 -112 c45 -89 36 -105 -58
-111 -39 -2 -40 -1 -51 43 -16 67 -9 94 28 107 51 17 54 15 81 -39z m-184 -40
c6 -18 16 -41 21 -50 5 -10 9 -22 9 -27 0 -11 -85 -35 -103 -28 -8 3 -17 27
-20 59 -8 60 5 78 54 78 21 0 29 -7 39 -32z"/>
</g>
</svg>
