<svg version="1.0" xmlns="http://www.w3.org/2000/svg"
 width="49.000000pt" height="67.000000pt" viewBox="0 0 49.000000 67.000000"
 preserveAspectRatio="xMidYMid meet">
<metadata>
Created by potrace 1.15, written by Peter Selinger 2001-2017
</metadata>
<g transform="translate(0.000000,67.000000) scale(0.100000,-0.100000)"
fill="#000000" stroke="none">
<path d="M210 584 c0 -3 5 -14 10 -24 11 -20 18 -315 8 -325 -3 -3 -17 0 -31
6 -36 16 -51 57 -38 105 29 114 34 151 22 187 -16 46 -38 55 -52 20 -5 -15 -8
-31 -6 -37 3 -6 -2 -52 -9 -101 -17 -108 -11 -182 16 -190 21 -7 100 -89 100
-105 0 -24 30 -6 88 53 66 67 80 97 83 180 3 99 -21 227 -43 227 -16 0 -29
-40 -18 -59 5 -11 9 -62 7 -113 -2 -70 -7 -101 -22 -125 -11 -18 -23 -33 -28
-33 -5 0 -7 28 -5 63 3 34 -1 107 -8 162 -7 55 -14 103 -14 108 0 8 -60 10
-60 1z"/>
</g>
</svg>
