<svg version="1.0" xmlns="http://www.w3.org/2000/svg"
 width="45.000000pt" height="65.000000pt" viewBox="0 0 45.000000 65.000000"
 preserveAspectRatio="xMidYMid meet">
<metadata>
Created by potrace 1.15, written by Peter Selinger 2001-2017
</metadata>
<g transform="translate(0.000000,65.000000) scale(0.100000,-0.100000)"
fill="#000000" stroke="none">
<path d="M270 556 c0 -16 -6 -26 -15 -26 -21 0 -19 -18 5 -32 14 -9 20 -24 20
-50 0 -21 -4 -38 -10 -38 -5 0 -33 9 -63 20 -44 16 -54 25 -62 52 -26 84 -55
9 -55 -138 0 -110 11 -142 35 -110 8 11 18 41 21 67 6 47 6 47 61 54 31 4 59
3 64 -2 4 -4 13 -53 18 -108 6 -55 13 -110 17 -123 5 -18 2 -24 -15 -29 -29
-7 -26 -19 9 -35 17 -7 30 -17 30 -22 0 -6 5 -5 12 2 7 7 25 12 40 12 37 0 36
19 -2 33 -35 13 -50 48 -50 121 -1 28 -5 71 -9 95 -12 58 -6 71 33 71 46 0 76
11 76 26 0 10 -15 14 -54 14 -50 0 -54 2 -59 27 -7 38 1 51 31 55 39 4 35 32
-5 36 -24 2 -33 9 -35 25 -5 33 -38 35 -38 3z"/>
<path d="M185 253 c8 -86 14 -105 28 -100 29 9 9 167 -20 167 -12 0 -13 -13
-8 -67z"/>
</g>
</svg>
