<svg version="1.0" xmlns="http://www.w3.org/2000/svg"
 width="85.000000pt" height="99.000000pt" viewBox="0 0 85.000000 99.000000"
 preserveAspectRatio="xMidYMid meet">
<metadata>
Created by potrace 1.15, written by Peter Selinger 2001-2017
</metadata>
<g transform="translate(0.000000,99.000000) scale(0.100000,-0.100000)"
fill="#000000" stroke="none">
<path d="M506 933 c-3 -10 -2 -65 3 -122 4 -58 6 -113 3 -123 -4 -17 -19 -18
-183 -18 -179 0 -179 0 -179 43 0 30 -6 49 -18 60 -17 16 -19 16 -32 -7 -27
-51 7 -562 42 -634 12 -24 37 -30 39 -9 2 17 2 14 -6 99 -7 83 -12 77 139 173
17 10 33 23 34 27 2 4 8 8 14 8 5 0 29 14 53 30 24 17 47 30 50 30 4 0 20 9
36 21 29 20 29 20 39 -6 5 -14 10 -35 10 -46 0 -11 4 -27 9 -37 21 -40 53
-166 45 -178 -5 -6 -25 -34 -44 -60 -19 -27 -42 -57 -51 -68 -14 -15 -15 -22
-6 -37 18 -29 35 -23 70 27 17 25 40 56 50 67 18 22 18 22 46 -11 30 -34 61
-42 61 -17 0 9 -9 33 -20 55 -21 40 -26 70 -12 70 4 0 18 21 32 48 14 26 30
53 37 60 15 16 17 48 4 56 -17 11 -36 -4 -71 -54 -19 -27 -40 -49 -45 -50 -20
0 -64 162 -65 238 0 42 0 42 68 42 125 0 136 49 13 58 -88 6 -110 24 -67 56
44 32 102 89 114 113 14 26 16 63 3 63 -5 0 -11 10 -13 23 -2 16 -11 23 -30
25 -27 3 -28 2 -28 -45 0 -40 -5 -53 -30 -76 -35 -33 -46 -30 -53 15 -12 71
-23 103 -39 106 -9 2 -19 -5 -22 -15z m-68 -333 c39 0 72 -4 72 -9 0 -4 -30
-22 -67 -40 -80 -37 -127 -63 -131 -73 -2 -5 -8 -8 -13 -8 -6 0 -37 -18 -70
-41 -33 -22 -62 -39 -64 -37 -1 1 -5 51 -7 111 -5 108 -5 108 101 102 58 -3
139 -6 179 -5z"/>
<path d="M332 277 c-25 -32 -42 -80 -42 -121 0 -52 12 -64 43 -43 26 17 51
101 42 140 -8 29 -29 41 -43 24z"/>
</g>
</svg>
