<svg version="1.0" xmlns="http://www.w3.org/2000/svg"
 width="111.000000pt" height="129.000000pt" viewBox="0 0 111.000000 129.000000"
 preserveAspectRatio="xMidYMid meet">
<metadata>
Created by potrace 1.15, written by Peter Selinger 2001-2017
</metadata>
<g transform="translate(0.000000,129.000000) scale(0.100000,-0.100000)"
fill="#000000" stroke="none">
<path d="M461 1117 c-14 -43 -15 -330 -1 -377 18 -62 14 -79 -22 -84 -199 -30
-269 -38 -273 -34 -8 8 -14 65 -16 143 -1 120 -31 187 -60 133 -21 -40 -9
-489 15 -579 18 -64 20 -73 42 -164 19 -83 30 -105 49 -105 17 0 20 50 6 96
-13 39 -22 184 -13 184 5 0 17 8 28 18 10 9 53 35 94 56 41 22 104 54 138 73
35 18 67 31 71 29 4 -3 14 -24 21 -48 8 -24 17 -45 20 -48 3 -3 12 -18 20 -35
8 -16 23 -43 33 -58 22 -32 25 -26 -58 -84 -22 -16 -49 -36 -59 -46 -11 -9
-25 -17 -30 -17 -6 0 -17 -9 -24 -20 -7 -11 -19 -20 -28 -20 -20 0 -44 -24
-44 -44 0 -12 10 -16 40 -16 37 0 97 28 172 81 36 26 155 27 184 1 54 -49 126
-93 145 -87 10 4 19 12 19 19 0 13 -71 86 -84 86 -4 0 -14 7 -22 15 -13 13
-13 17 8 38 13 14 30 34 38 47 20 30 59 70 69 70 4 0 21 11 37 25 16 14 34 25
40 25 13 0 24 22 24 46 0 8 -8 14 -18 14 -22 0 -72 -22 -72 -32 0 -5 -9 -8
-20 -8 -11 0 -20 -4 -20 -10 0 -5 -8 -10 -18 -10 -10 0 -22 -4 -27 -8 -20 -18
-124 -54 -145 -50 -21 3 -64 63 -91 128 -6 14 -16 32 -23 40 -8 8 -16 29 -18
45 -3 17 -7 36 -9 44 -2 8 6 15 21 17 28 4 106 19 190 38 46 10 56 16 58 35 2
13 -2 27 -8 31 -15 9 -95 3 -205 -15 -44 -8 -83 -10 -87 -6 -14 13 -22 101 -9
101 6 0 11 7 11 15 0 8 4 15 8 15 4 0 24 15 43 33 19 17 50 44 69 58 19 15 49
39 65 54 17 14 50 40 75 57 62 43 90 69 90 85 0 32 -34 21 -121 -39 -50 -35
-99 -67 -108 -73 -9 -5 -18 -12 -21 -15 -3 -3 -21 -17 -40 -30 -19 -13 -45
-34 -58 -47 -39 -39 -45 -21 -38 102 4 61 4 119 0 128 -11 29 -42 20 -53 -16z
m-21 -552 c0 -7 -101 -55 -115 -55 -8 0 -15 -4 -15 -10 0 -5 -4 -10 -10 -10
-5 0 -33 -14 -61 -31 -59 -34 -69 -30 -69 32 0 42 6 46 83 55 29 4 61 10 72
14 19 8 115 12 115 5z"/>
</g>
</svg>
