<svg version="1.0" xmlns="http://www.w3.org/2000/svg"
 width="60.000000pt" height="80.000000pt" viewBox="0 0 60.000000 80.000000"
 preserveAspectRatio="xMidYMid meet">
<metadata>
Created by potrace 1.15, written by Peter Selinger 2001-2017
</metadata>
<g transform="translate(0.000000,80.000000) scale(0.100000,-0.100000)"
fill="#000000" stroke="none">
<path d="M463 678 c-6 -7 -12 -20 -16 -29 -4 -12 -25 -18 -82 -24 -80 -7 -91
-4 -97 30 -2 12 -11 20 -23 20 -18 0 -20 -8 -23 -81 -3 -82 -3 -82 -34 -88
-17 -3 -34 -6 -39 -6 -5 0 -9 33 -9 74 0 54 -4 77 -15 86 -10 8 -19 9 -24 4
-5 -5 -11 -150 -14 -321 -5 -262 -3 -313 8 -313 24 0 28 20 34 144 6 121 6
121 36 121 30 0 30 0 35 -130 5 -122 6 -130 25 -130 19 0 20 8 23 139 2 93 -1
143 -9 152 -7 8 -30 14 -55 14 -44 0 -44 0 -44 60 0 60 0 60 40 60 33 0 42 -4
54 -29 9 -16 36 -41 62 -56 50 -29 50 -27 25 -120 -14 -53 -14 -222 0 -231 22
-13 34 20 40 114 3 53 12 116 18 140 10 36 16 43 34 40 37 -5 60 -69 67 -183
5 -93 7 -100 27 -103 30 -4 37 24 28 132 -6 84 -32 167 -56 182 -15 9 -10 24
9 24 10 0 27 6 38 14 17 14 18 16 3 31 -15 15 -20 15 -73 -4 -59 -21 -83 -19
-144 13 -18 9 -32 21 -32 26 0 6 56 10 141 10 140 0 140 0 137 23 -3 21 -6 22
-145 25 -143 3 -143 3 -143 37 0 35 0 35 108 35 119 0 142 10 142 61 0 41 -36
64 -57 37z"/>
</g>
</svg>
