<svg version="1.0" xmlns="http://www.w3.org/2000/svg"
 width="55.000000pt" height="85.000000pt" viewBox="0 0 55.000000 85.000000"
 preserveAspectRatio="xMidYMid meet">
<metadata>
Created by potrace 1.15, written by Peter Selinger 2001-2017
</metadata>
<g transform="translate(0.000000,85.000000) scale(0.100000,-0.100000)"
fill="#000000" stroke="none">
<path d="M247 764 c-3 -3 -3 -29 -1 -57 7 -68 0 -76 -59 -70 -38 5 -52 11 -65
32 -21 34 -54 71 -63 71 -11 0 24 -85 44 -104 9 -10 44 -23 77 -29 34 -7 61
-17 62 -24 0 -7 1 -19 2 -25 1 -9 -28 -14 -101 -18 -96 -5 -125 -12 -110 -26
14 -14 312 -21 386 -10 116 18 104 36 -24 36 -106 0 -106 0 -103 27 3 25 8 29
52 36 54 9 62 16 90 70 14 27 16 41 9 48 -8 8 -20 -1 -43 -32 -21 -30 -41 -46
-63 -51 -38 -8 -47 2 -47 55 0 54 -22 91 -43 71z"/>
<path d="M160 461 c0 -10 73 -71 84 -71 14 0 118 72 112 77 -3 4 -28 -4 -55
-17 -50 -23 -50 -23 -86 -1 -39 23 -55 26 -55 12z"/>
<path d="M90 405 c0 -2 21 -19 48 -36 26 -18 61 -45 79 -60 32 -27 32 -27 0
-40 -81 -33 -104 -70 -71 -117 14 -20 71 -33 62 -14 -2 4 -10 19 -17 34 -17
34 -10 53 29 77 45 27 119 8 120 -31 0 -5 -15 -25 -34 -45 -39 -44 -60 -106
-45 -135 13 -24 29 -14 29 17 0 13 14 44 30 67 17 24 37 53 46 64 31 44 3 83
-79 108 -16 5 -12 11 24 41 23 20 51 41 63 47 12 6 16 13 9 15 -6 2 -37 -10
-69 -26 -31 -17 -62 -31 -68 -31 -6 0 -35 16 -65 35 -45 30 -91 45 -91 30z"/>
</g>
</svg>
