<svg version="1.0" xmlns="http://www.w3.org/2000/svg"
 width="127.000000pt" height="129.000000pt" viewBox="0 0 127.000000 129.000000"
 preserveAspectRatio="xMidYMid meet">
<metadata>
Created by potrace 1.15, written by Peter Selinger 2001-2017
</metadata>
<g transform="translate(0.000000,129.000000) scale(0.100000,-0.100000)"
fill="#000000" stroke="none">
<path d="M1041 1163 c-9 -57 -20 -89 -42 -120 -40 -57 -37 -94 12 -147 11 -11
19 -34 19 -52 0 -17 7 -37 15 -44 22 -18 39 6 43 60 2 32 9 50 25 64 30 25 30
107 0 134 -18 15 -21 29 -21 91 0 69 -8 90 -33 91 -3 0 -12 -35 -18 -77z"/>
<path d="M636 1207 c-14 -44 -18 -74 -26 -172 -5 -60 -12 -144 -16 -185 -7
-76 -7 -76 21 -88 16 -7 31 -9 34 -4 8 12 69 32 97 32 14 0 37 17 62 45 43 49
47 65 67 260 5 53 3 64 -16 83 -24 27 -44 24 -44 -6 0 -12 -3 -22 -7 -22 -111
-3 -119 -1 -131 30 -12 32 -35 47 -41 27z m137 -118 c33 -9 37 -13 37 -44 0
-19 -4 -36 -9 -39 -5 -4 -37 -9 -70 -12 -61 -7 -61 -7 -61 44 0 40 4 52 18 55
29 8 46 7 85 -4z m4 -158 c9 -5 8 -15 -7 -38 -26 -43 -64 -67 -95 -59 -27 7
-31 25 -19 84 6 31 7 31 58 25 28 -3 57 -9 63 -12z"/>
<path d="M381 1071 c-15 -34 -29 -38 -131 -41 -73 -1 -75 -1 -102 32 -26 32
-27 33 -42 13 -20 -27 -29 -93 -28 -200 1 -141 12 -236 34 -279 15 -30 19 -52
15 -100 -5 -69 -14 -111 -29 -142 -5 -12 -11 -39 -12 -60 -1 -32 3 -40 20 -42
26 -4 34 15 64 140 13 53 31 106 41 119 15 20 20 22 42 12 19 -9 30 -27 42
-70 10 -32 18 -70 19 -84 2 -35 33 -79 56 -79 26 0 26 27 0 104 -11 33 -20 74
-20 92 0 18 -5 44 -11 57 -9 19 -6 31 12 63 42 74 56 109 68 174 7 36 17 88
23 117 6 30 8 74 4 105 -4 29 -9 62 -10 73 -4 33 -41 31 -55 -4z m-27 -107
c10 -4 16 -18 16 -39 0 -61 -5 -65 -85 -65 -40 0 -87 3 -104 6 -29 6 -31 9
-31 49 0 23 3 45 7 48 8 9 176 9 197 1z m-4 -194 c0 -45 10 -42 -140 -44 -65
-1 -65 -1 -62 34 2 19 9 38 15 42 7 4 51 8 100 8 87 0 87 0 87 -40z m-38 -125
c-9 -49 -60 -69 -115 -44 -21 9 -47 46 -47 65 0 3 37 4 83 2 76 -3 82 -5 79
-23z"/>
<path d="M1157 743 c-10 -9 -8 -81 2 -87 21 -13 23 -167 2 -166 -3 0 -19 18
-35 40 -17 22 -36 40 -43 40 -7 0 -13 5 -13 10 0 6 -7 10 -15 10 -8 0 -15 5
-15 10 0 14 -43 12 -64 -3 -16 -12 -14 -47 4 -47 4 0 34 -24 65 -53 39 -36 56
-58 50 -66 -11 -19 -87 -8 -123 18 -71 50 -112 13 -50 -45 21 -19 60 -39 106
-53 72 -23 72 -23 66 -89 -4 -37 -11 -75 -15 -84 -14 -27 -11 -37 13 -35 24 2
58 51 58 85 0 12 4 30 9 40 5 9 15 45 22 79 6 36 20 70 30 79 11 9 19 23 19
31 0 7 5 13 10 13 6 0 10 26 10 59 0 38 5 61 13 65 10 5 10 7 0 12 -7 3 -13
17 -13 30 0 28 -15 57 -48 90 -24 25 -34 29 -45 17z"/>
<path d="M523 613 c-40 -41 -60 -86 -68 -153 -5 -35 15 -150 26 -150 12 0 11
-69 -3 -168 -10 -73 -9 -85 5 -99 35 -35 48 -6 63 147 6 67 8 69 54 63 23 -3
66 0 96 7 50 12 55 16 52 39 -3 28 -4 28 -95 16 -52 -8 -96 0 -77 13 32 23 99
131 87 143 -12 12 -70 -19 -98 -52 -13 -16 -26 -29 -29 -29 -13 0 -5 110 11
146 19 46 33 113 24 118 -3 2 -25 -16 -48 -41z"/>
</g>
</svg>
