<svg version="1.0" xmlns="http://www.w3.org/2000/svg"
 width="143.000000pt" height="189.000000pt" viewBox="0 0 143.000000 189.000000"
 preserveAspectRatio="xMidYMid meet">
<metadata>
Created by potrace 1.15, written by Peter Selinger 2001-2017
</metadata>
<g transform="translate(0.000000,189.000000) scale(0.100000,-0.100000)"
fill="#000000" stroke="none">
<path d="M175 1743 c-22 -6 -40 -29 -40 -53 -1 -25 22 -40 62 -40 21 0 56 -5
77 -10 35 -8 220 -13 394 -11 54 1 62 3 62 20 0 11 6 21 13 24 8 3 6 10 -8 21
-14 11 -45 16 -110 17 -123 2 -338 19 -405 32 -14 3 -34 3 -45 0z"/>
<path d="M136 1421 c-37 -8 -63 -30 -48 -42 4 -3 27 -12 52 -19 59 -18 75 -32
107 -99 27 -57 76 -135 100 -159 7 -7 13 -14 13 -15 31 -155 37 -237 20 -237
-13 0 -90 50 -90 59 0 3 -13 22 -30 41 -27 31 -38 52 -53 101 -7 21 -57 32
-57 12 0 -18 60 -144 77 -161 7 -7 13 -16 13 -20 1 -23 105 -112 131 -112 24
0 37 -30 42 -101 3 -41 9 -95 13 -120 9 -63 -5 -86 -143 -237 -29 -31 -53 -63
-53 -69 0 -7 -4 -13 -10 -13 -5 0 -10 -9 -10 -20 0 -19 1 -19 37 1 61 34 116
75 140 103 41 47 46 37 59 -118 6 -78 19 -126 35 -126 16 0 30 84 29 173 -1
51 -1 100 -1 109 1 14 7 13 49 -9 26 -14 78 -46 115 -70 37 -24 72 -41 77 -38
22 14 -27 84 -89 127 -58 41 -139 125 -158 166 -13 27 -15 53 -9 135 7 107 14
123 67 154 14 8 37 33 50 54 13 22 26 39 30 39 10 0 47 83 53 121 5 25 2 40
-8 48 -17 14 -15 16 -64 -79 -40 -76 -112 -156 -124 -137 -18 29 -7 125 26
228 41 125 56 159 70 159 6 0 17 14 24 30 10 21 21 30 37 30 27 0 75 19 75 30
0 4 -21 16 -47 28 -39 17 -74 22 -193 26 -128 5 -207 13 -290 29 -14 3 -42 2
-64 -2z m361 -116 c2 -1 -6 -32 -18 -69 -29 -93 -57 -118 -80 -73 -7 12 -15
24 -19 27 -8 7 -70 115 -70 124 0 6 180 -2 187 -9z"/>
<path d="M1006 1338 c-11 -12 -21 -40 -23 -62 -2 -23 -5 -54 -7 -71 -3 -16 -5
-49 -5 -73 -1 -42 -1 -42 -53 -41 -32 2 -53 -2 -56 -9 -2 -7 -10 -12 -18 -12
-8 0 -14 -4 -14 -9 0 -9 41 -30 117 -62 32 -14 32 -14 32 -158 0 -106 4 -147
13 -153 20 -12 38 -9 38 6 0 8 6 16 13 18 8 3 13 37 14 117 1 62 4 115 6 118
3 2 25 -2 49 -10 43 -15 43 -15 44 -74 0 -32 -6 -96 -13 -143 -7 -47 -13 -117
-13 -156 0 -39 -4 -84 -9 -100 -5 -16 -14 -48 -21 -71 -7 -24 -17 -43 -22 -43
-4 0 -8 -5 -8 -11 0 -15 -60 -99 -89 -126 -15 -13 -68 -44 -119 -70 -98 -50
-107 -69 -30 -66 53 3 141 47 199 101 26 24 53 48 61 55 23 18 78 104 78 121
0 8 5 18 10 21 6 3 10 17 10 31 0 13 5 24 11 24 6 0 9 9 6 20 -3 10 1 54 9 97
7 43 14 108 14 145 0 37 5 79 10 94 7 18 7 30 0 39 -8 9 -8 15 0 20 5 3 10 16
10 29 0 22 2 22 80 18 80 -4 80 -4 66 23 -14 27 -109 75 -148 75 -10 0 -18 5
-18 10 0 6 -10 10 -23 10 -31 0 -129 37 -139 52 -4 7 -8 70 -8 140 0 102 -3
130 -16 142 -19 20 -16 20 -38 -6z"/>
</g>
</svg>
