<svg version="1.0" xmlns="http://www.w3.org/2000/svg"
 width="69.000000pt" height="87.000000pt" viewBox="0 0 69.000000 87.000000"
 preserveAspectRatio="xMidYMid meet">
<metadata>
Created by potrace 1.15, written by Peter Selinger 2001-2017
</metadata>
<g transform="translate(0.000000,87.000000) scale(0.100000,-0.100000)"
fill="#000000" stroke="none">
<path d="M497 764 c-3 -3 -62 -12 -132 -20 -199 -22 -226 -46 -240 -214 -4
-47 -9 -105 -11 -130 -4 -45 -20 -94 -55 -161 -36 -69 -13 -97 28 -36 32 47
58 129 72 227 14 102 30 177 44 207 13 29 71 49 180 61 74 8 93 14 114 34 14
14 21 28 15 31 -5 4 -12 4 -15 1z"/>
<path d="M543 730 c-37 -45 -57 -60 -92 -66 -75 -12 -175 -35 -193 -45 -29
-15 -45 -64 -53 -154 -10 -132 -42 -257 -76 -307 -22 -31 -24 -48 -6 -48 19 0
84 115 92 161 7 39 7 39 66 39 69 0 72 -7 34 -76 -14 -25 -25 -54 -25 -65 0
-39 71 -129 101 -129 34 0 30 21 -10 60 -42 41 -55 85 -27 96 8 3 32 -4 55
-15 42 -22 91 -28 91 -11 0 5 -10 14 -22 21 -40 20 -88 72 -88 95 0 17 9 24
44 33 83 21 103 16 126 -29 23 -44 62 -75 85 -66 23 8 18 22 -20 60 -35 35
-35 35 -35 131 0 104 -2 108 -74 160 -38 28 -37 49 4 77 44 30 69 73 53 89 -8
8 -16 6 -30 -11z m-98 -141 c4 -11 24 -37 46 -56 38 -35 39 -37 39 -104 0 -69
0 -69 -51 -69 -51 0 -51 0 -8 51 42 51 42 51 13 47 -22 -2 -36 -14 -59 -50
-16 -26 -36 -49 -43 -52 -8 -4 -31 7 -52 24 -33 26 -80 41 -80 25 0 -3 15 -19
33 -35 32 -29 32 -29 -12 -30 -44 0 -44 0 -38 38 3 20 9 66 13 102 9 83 25
107 77 119 76 16 115 13 122 -10z"/>
<path d="M292 539 c-32 -10 -32 -10 3 -57 50 -68 54 -72 70 -72 7 0 24 15 36
33 12 17 34 44 47 59 14 15 23 31 19 34 -11 11 -141 14 -175 3z m101 -51 c-20
-19 -25 -20 -50 -9 -21 10 -24 14 -12 22 7 5 30 9 49 9 34 0 34 0 13 -22z"/>
</g>
</svg>
