<svg version="1.0" xmlns="http://www.w3.org/2000/svg"
 width="61.000000pt" height="86.000000pt" viewBox="0 0 61.000000 86.000000"
 preserveAspectRatio="xMidYMid meet">
<metadata>
Created by potrace 1.15, written by Peter Selinger 2001-2017
</metadata>
<g transform="translate(0.000000,86.000000) scale(0.100000,-0.100000)"
fill="#000000" stroke="none">
<path d="M220 771 c0 -15 9 -40 20 -54 11 -14 20 -28 20 -31 0 -10 -44 -30
-80 -36 -23 -3 -36 -12 -38 -24 -4 -17 1 -18 46 -14 32 3 61 14 84 31 41 32
78 36 78 9 0 -11 -9 -27 -20 -37 -22 -20 -27 -45 -8 -45 18 0 88 79 88 100 0
24 -33 46 -81 54 -36 6 -61 26 -72 59 -11 29 -37 21 -37 -12z"/>
<path d="M195 551 c-87 -5 -110 -9 -110 -21 0 -23 61 -31 195 -25 168 8 220
15 220 30 0 24 -65 28 -305 16z"/>
<path d="M319 461 c-22 -18 -26 -18 -51 -3 -38 22 -45 9 -17 -33 25 -37 45
-43 71 -22 18 14 48 58 48 69 0 14 -27 8 -51 -11z"/>
<path d="M402 424 c-13 -9 -34 -33 -48 -55 -21 -34 -29 -39 -63 -39 -34 0 -40
4 -49 29 -13 36 -58 69 -74 53 -7 -7 -4 -18 11 -38 11 -15 21 -31 21 -35 0 -5
-24 -9 -54 -9 -63 0 -86 -7 -86 -25 0 -21 24 -24 115 -18 85 6 85 6 85 -19 0
-14 -13 -36 -30 -53 -16 -16 -33 -44 -36 -62 -5 -29 -2 -39 22 -65 34 -35 75
-58 104 -58 31 0 24 26 -15 49 -38 22 -61 60 -52 85 9 22 33 20 67 -4 16 -11
42 -23 59 -26 27 -6 31 -4 31 14 0 14 -14 27 -46 42 -28 14 -49 32 -55 48 -17
46 -7 51 98 54 79 2 98 6 98 18 0 11 -15 16 -55 20 -30 3 -54 9 -53 13 1 4 12
25 25 45 12 20 24 40 26 45 6 13 -23 7 -46 -9z"/>
</g>
</svg>
