<svg version="1.0" xmlns="http://www.w3.org/2000/svg"
 width="70.000000pt" height="79.000000pt" viewBox="0 0 70.000000 79.000000"
 preserveAspectRatio="xMidYMid meet">
<metadata>
Created by potrace 1.15, written by Peter Selinger 2001-2017
</metadata>
<g transform="translate(0.000000,79.000000) scale(0.100000,-0.100000)"
fill="#000000" stroke="none">
<path d="M317 674 c-4 -4 -7 -24 -7 -44 0 -37 0 -37 -106 -44 -59 -4 -110 -4
-114 1 -5 4 -10 22 -12 38 -2 22 -8 30 -23 30 -16 0 -21 -8 -23 -38 -4 -47 11
-67 49 -67 27 0 29 -3 29 -39 0 -40 0 -40 -52 -43 -39 -2 -53 -7 -53 -18 0
-12 18 -16 85 -20 77 -5 85 -7 85 -25 0 -18 -8 -20 -83 -23 -77 -3 -82 -4 -72
-22 7 -12 23 -20 48 -22 37 -3 37 -3 40 -136 2 -90 -1 -131 -8 -127 -6 3 -10
46 -10 98 0 98 -8 124 -34 114 -15 -6 -16 -21 -10 -124 4 -65 11 -124 17 -131
11 -14 52 -9 74 10 9 7 13 50 13 149 0 117 2 139 15 139 13 0 15 -21 15 -131
0 -123 8 -169 30 -169 6 0 10 60 10 150 0 143 1 150 20 150 19 0 20 -7 20
-133 0 -90 4 -137 12 -145 16 -16 73 -15 87 2 16 19 11 238 -6 243 -9 3 -13
-24 -15 -104 -2 -88 -6 -108 -18 -108 -12 0 -15 22 -18 126 -3 127 -3 127 23
133 14 4 25 13 25 21 0 12 -14 15 -65 15 -62 0 -65 1 -65 24 0 22 5 25 63 31
34 3 70 9 80 11 32 10 17 23 -33 30 -49 6 -50 7 -50 40 0 29 3 34 23 34 38 0
59 31 55 81 -3 42 -22 62 -41 43z m-77 -158 c0 -37 -12 -46 -61 -46 -27 0 -29
2 -29 40 0 40 0 40 45 40 44 0 45 0 45 -34z"/>
<path d="M113 654 c-9 -24 8 -34 60 -34 66 0 97 9 97 26 0 17 2 16 -83 19 -49
1 -70 -2 -74 -11z"/>
<path d="M421 661 c-8 -5 -11 -16 -7 -26 5 -15 16 -16 81 -10 61 5 75 4 75 -7
0 -27 -24 -38 -82 -38 -47 0 -59 -4 -68 -20 -7 -12 -9 -105 -8 -257 3 -216 5
-238 20 -241 16 -3 18 13 20 190 3 193 3 193 93 204 50 6 92 12 94 13 2 0 -2
8 -9 16 -9 11 -33 15 -91 15 -63 0 -79 3 -79 15 0 21 32 35 80 35 89 0 130 55
74 99 -22 17 -41 21 -103 21 -42 0 -82 -4 -90 -9z"/>
<path d="M502 378 c-23 -23 -10 -227 16 -236 9 -3 12 20 12 90 0 111 16 141
54 102 12 -12 16 -37 16 -112 -1 -114 -10 -132 -64 -132 -30 0 -37 -3 -34 -17
2 -11 14 -19 32 -21 89 -10 116 32 116 179 0 92 -3 110 -21 133 -17 21 -29 26
-68 26 -26 0 -52 -5 -59 -12z"/>
</g>
</svg>
