<svg version="1.0" xmlns="http://www.w3.org/2000/svg"
 width="73.000000pt" height="85.000000pt" viewBox="0 0 73.000000 85.000000"
 preserveAspectRatio="xMidYMid meet">
<metadata>
Created by potrace 1.15, written by Peter Selinger 2001-2017
</metadata>
<g transform="translate(0.000000,85.000000) scale(0.100000,-0.100000)"
fill="#000000" stroke="none">
<path d="M350 726 c0 -16 -25 -26 -130 -56 -84 -24 -115 -45 -86 -56 10 -4 57
7 110 25 50 17 95 31 99 31 4 0 7 -27 7 -61 0 -52 -2 -60 -17 -57 -9 2 -20 14
-23 27 -9 37 -30 38 -30 2 0 -24 -4 -31 -20 -31 -16 0 -20 7 -20 30 0 20 -5
30 -15 30 -10 0 -15 -10 -15 -30 0 -23 -4 -30 -20 -30 -15 0 -20 7 -20 25 0
30 -26 34 -35 5 -4 -12 -15 -20 -29 -20 -27 0 -54 -26 -40 -40 5 -4 23 -10 39
-12 25 -2 31 -8 33 -33 4 -39 26 -55 77 -55 51 0 80 20 95 65 6 19 18 35 26
35 12 0 14 -13 12 -67 -3 -67 -3 -67 -38 -76 -44 -11 -87 -42 -95 -67 -5 -17
-15 -20 -60 -20 -57 0 -75 -11 -54 -36 8 -10 27 -14 58 -12 41 3 46 1 49 -20
4 -28 58 -69 97 -74 27 -3 30 -7 37 -51 8 -58 12 -64 33 -47 9 7 15 29 15 51
0 38 2 40 55 63 43 19 57 32 69 60 14 34 18 36 60 36 33 0 46 4 46 14 0 17
-22 26 -65 26 -25 0 -38 7 -59 34 -17 22 -38 37 -63 43 -38 9 -38 9 -38 73 0
42 4 65 13 68 8 2 12 -7 12 -26 0 -55 69 -89 123 -61 29 16 37 28 37 61 0 23
5 27 32 30 50 5 51 36 1 40 -31 2 -39 7 -41 26 -4 28 -26 24 -30 -6 -5 -30
-22 -28 -22 2 0 37 -17 40 -29 6 -12 -37 -41 -40 -41 -5 0 14 -4 25 -10 25 -5
0 -12 -11 -16 -25 -3 -14 -12 -25 -20 -25 -17 0 -20 95 -3 106 11 6 57 -5 132
-32 48 -18 87 -18 87 0 0 9 -36 24 -102 42 -56 16 -109 37 -117 46 -18 21 -51
24 -51 4z m-70 -224 c0 -19 -18 -42 -32 -42 -4 0 -8 14 -8 30 0 23 4 30 20 30
13 0 20 -7 20 -18z m210 -12 c0 -32 -26 -43 -36 -15 -9 21 3 45 21 45 10 0 15
-10 15 -30z m50 5 c0 -14 -4 -25 -10 -25 -5 0 -10 11 -10 25 0 14 5 25 10 25
6 0 10 -11 10 -25z m-330 -10 c0 -28 -24 -34 -34 -9 -10 26 -7 34 14 34 15 0
20 -7 20 -25z m140 -165 c0 -29 -2 -30 -45 -30 -25 0 -45 5 -45 10 0 8 71 48
88 50 1 0 2 -13 2 -30z m104 10 c16 -15 -3 -42 -26 -38 -17 2 -24 11 -26 31
-3 26 -1 28 20 22 13 -4 27 -11 32 -15z m-106 -107 c-3 -36 -4 -38 -38 -36
-32 1 -70 30 -70 53 0 9 32 16 83 19 27 1 28 -1 25 -36z m122 23 c0 -17 -46
-56 -66 -56 -14 0 -20 51 -7 63 13 14 73 7 73 -7z"/>
</g>
</svg>
