<svg version="1.0" xmlns="http://www.w3.org/2000/svg"
 width="129.000000pt" height="143.000000pt" viewBox="0 0 129.000000 143.000000"
 preserveAspectRatio="xMidYMid meet">
<metadata>
Created by potrace 1.15, written by Peter Selinger 2001-2017
</metadata>
<g transform="translate(0.000000,143.000000) scale(0.100000,-0.100000)"
fill="#000000" stroke="none">
<path d="M790 1207 c0 -2 14 -31 30 -65 17 -34 30 -68 30 -75 0 -8 -16 -12
-50 -11 -31 1 -54 -4 -61 -12 -6 -8 -21 -11 -39 -8 -31 7 -68 -13 -113 -59
-31 -33 -47 -79 -29 -85 7 -2 12 -10 12 -18 0 -21 30 -77 49 -91 18 -14 89
-17 109 -5 10 7 8 15 -8 35 -12 15 -26 27 -32 27 -11 0 -48 38 -48 50 0 22 77
80 107 80 10 0 24 -10 32 -22 14 -23 17 -107 4 -117 -12 -9 -53 -91 -53 -106
0 -6 -16 -33 -35 -58 -19 -24 -42 -65 -51 -88 -10 -24 -26 -57 -37 -72 -15
-22 -19 -46 -20 -110 0 -93 13 -131 66 -192 44 -50 173 -115 230 -115 9 0 17
-6 17 -12 0 -10 2 -10 9 0 4 8 14 13 22 12 8 -1 24 -2 37 -1 20 1 21 3 10 21
-9 13 -32 24 -70 31 -53 11 -58 14 -76 53 -28 61 -34 107 -22 183 11 68 53
173 71 173 5 0 9 6 9 14 0 8 14 26 30 39 17 14 30 28 30 32 0 7 38 62 63 89
20 23 50 117 50 156 0 14 -3 40 -8 58 -7 29 -5 32 15 32 32 0 100 -41 100 -60
0 -10 -11 -34 -25 -54 -29 -43 -31 -61 -9 -70 26 -10 31 -8 73 37 46 48 50 68
20 117 -39 64 -97 90 -201 90 -78 0 -98 6 -98 30 0 37 -42 111 -73 131 -28 16
-67 26 -67 16z m200 -323 c0 -23 -10 -62 -21 -86 -12 -23 -26 -52 -31 -63 -5
-11 -40 -53 -78 -93 -39 -40 -70 -80 -70 -88 0 -8 -4 -23 -10 -34 -5 -11 -14
-29 -20 -40 -5 -11 -10 -35 -10 -54 0 -19 -4 -46 -10 -60 -6 -17 -6 -27 1 -32
6 -3 6 -10 1 -17 -11 -13 -10 -43 2 -69 4 -9 6 -25 4 -34 -3 -15 -8 -13 -35
10 -71 60 -82 147 -33 267 16 40 33 75 37 78 4 3 19 26 32 51 13 25 37 64 53
87 33 50 61 150 56 204 -3 36 -1 39 22 40 14 1 30 1 37 0 6 -1 15 3 18 9 5 8
15 4 31 -11 18 -17 24 -33 24 -65z"/>
<path d="M243 1028 c-4 -7 -13 -22 -19 -33 -24 -46 -40 -71 -55 -90 -9 -11
-22 -36 -30 -55 -7 -19 -21 -43 -30 -53 -22 -25 -29 -61 -15 -88 17 -35 34
-33 53 5 14 31 22 36 50 36 47 0 54 -27 51 -179 -3 -126 -3 -126 -96 -133 -51
-3 -96 -9 -100 -13 -4 -4 4 -16 18 -27 17 -14 37 -19 70 -17 114 5 106 14 108
-125 2 -124 2 -124 -82 -127 -90 -4 -119 -17 -97 -42 17 -21 101 -41 114 -28
7 7 67 11 154 11 132 0 143 1 153 20 8 15 8 20 -2 21 -7 0 -22 2 -33 5 -11 2
-46 6 -78 8 -32 2 -60 6 -63 9 -3 2 -9 46 -15 97 -7 65 -7 96 0 103 6 6 11 19
11 29 0 19 12 22 95 19 77 -2 115 7 115 28 0 23 -36 31 -136 31 -73 0 -73 0
-76 103 -2 56 -1 123 0 149 4 47 4 47 55 62 51 15 51 15 78 -17 24 -29 29 -30
53 -19 22 10 25 16 20 39 -11 44 -34 73 -206 251 -33 34 -52 40 -65 20z m83
-145 c24 -27 44 -52 44 -58 0 -6 -35 -11 -80 -13 -66 -3 -80 -1 -80 12 0 19
52 105 64 106 4 0 28 -21 52 -47z"/>
<path d="M363 623 c-21 -8 -15 -30 18 -57 31 -27 75 -43 86 -33 3 4 7 22 10
42 3 28 0 35 -14 37 -10 0 -23 2 -30 2 -6 1 -15 5 -19 9 -8 8 -32 8 -51 0z"/>
<path d="M366 294 c-10 -27 -7 -33 29 -50 19 -9 35 -20 35 -25 0 -5 9 -9 20
-9 16 0 20 7 20 34 0 29 -5 37 -32 50 -40 20 -64 20 -72 0z"/>
</g>
</svg>
