<svg version="1.0" xmlns="http://www.w3.org/2000/svg"
 width="65.000000pt" height="84.000000pt" viewBox="0 0 65.000000 84.000000"
 preserveAspectRatio="xMidYMid meet">
<metadata>
Created by potrace 1.15, written by Peter Selinger 2001-2017
</metadata>
<g transform="translate(0.000000,84.000000) scale(0.100000,-0.100000)"
fill="#000000" stroke="none">
<path d="M303 703 c-10 -27 -23 -33 -84 -33 -60 0 -75 -6 -59 -25 7 -9 31 -11
74 -8 43 4 66 2 71 -6 4 -7 5 -14 3 -16 -2 -3 -47 -9 -99 -15 -108 -12 -129
-17 -129 -32 0 -7 24 -8 77 -3 122 13 148 12 148 -5 0 -11 -17 -16 -69 -20
-43 -3 -71 -10 -74 -17 -3 -10 16 -13 72 -13 76 0 102 -14 49 -26 -59 -12
-152 -57 -193 -93 -28 -24 -31 -30 -16 -31 11 0 33 11 50 24 47 36 132 76 161
76 25 0 25 -1 25 -86 0 -85 0 -86 -22 -80 -13 3 -26 6 -30 6 -4 0 -2 13 3 29
13 36 8 83 -8 89 -9 2 -13 -10 -13 -41 0 -29 -5 -47 -14 -50 -17 -7 -36 11
-36 34 0 28 -19 32 -26 5 -6 -24 14 -74 38 -93 7 -6 65 -13 128 -15 156 -4
180 -22 204 -153 8 -46 16 -61 30 -63 17 -4 18 1 13 46 -3 28 -16 72 -29 99
-19 39 -32 52 -73 72 -27 13 -69 26 -93 29 -43 5 -43 5 -40 91 3 83 4 86 28
89 36 6 100 -16 144 -49 45 -33 89 -41 65 -13 -27 33 -91 65 -159 80 -39 9
-70 20 -70 24 0 4 27 10 59 14 36 4 69 15 85 27 21 17 34 19 66 14 32 -5 40
-4 40 8 0 9 -15 19 -37 24 -28 6 -39 14 -41 31 -5 36 -40 52 -114 52 -61 0
-68 2 -68 20 0 25 -28 27 -37 3z m158 -63 c35 -20 19 -30 -46 -30 -58 0 -65 2
-65 20 0 17 7 20 46 20 25 0 54 -5 65 -10z m-3 -65 c10 -10 -6 -16 -57 -22
-41 -5 -51 -3 -51 9 0 8 3 18 8 22 7 8 91 0 100 -9z"/>
<path d="M393 418 c4 -13 -2 -35 -14 -55 -25 -40 -15 -43 23 -6 22 21 31 24
40 15 9 -9 6 -18 -12 -37 -27 -28 -21 -31 19 -10 23 11 41 33 41 49 0 5 -88
66 -95 66 -4 0 -5 -10 -2 -22z"/>
<path d="M194 177 c-29 -33 -74 -105 -74 -117 0 -5 8 -10 18 -10 10 0 31 23
50 55 29 48 62 73 62 46 0 -4 18 -31 40 -59 34 -42 48 -52 87 -60 26 -6 51 -8
55 -6 15 10 8 22 -19 32 -16 6 -39 20 -53 31 -25 20 -25 20 4 50 36 38 46 38
80 4 18 -18 30 -23 37 -16 12 12 -52 73 -76 73 -8 0 -34 -17 -56 -37 -41 -38
-41 -38 -73 0 -36 43 -55 46 -82 14z"/>
</g>
</svg>
