<svg version="1.0" xmlns="http://www.w3.org/2000/svg"
 width="65.000000pt" height="85.000000pt" viewBox="0 0 65.000000 85.000000"
 preserveAspectRatio="xMidYMid meet">
<metadata>
Created by potrace 1.15, written by Peter Selinger 2001-2017
</metadata>
<g transform="translate(0.000000,85.000000) scale(0.100000,-0.100000)"
fill="#000000" stroke="none">
<path d="M447 763 c-4 -3 -7 -21 -7 -40 0 -33 0 -33 -49 -33 -51 0 -75 -15
-50 -31 8 -5 31 -9 52 -9 38 0 38 0 23 -27 -8 -16 -25 -38 -39 -51 -21 -20
-25 -21 -30 -8 -10 25 -36 18 -43 -11 -14 -55 47 -170 96 -180 24 -4 30 -11
30 -30 0 -22 -3 -24 -27 -18 -16 3 -39 17 -54 31 -28 26 -49 31 -49 11 0 -22
66 -82 96 -87 42 -8 39 -23 -11 -49 -48 -25 -95 -91 -95 -133 0 -19 9 -13 58
40 32 34 63 62 69 62 8 0 13 -28 15 -82 2 -66 6 -83 18 -83 12 0 16 17 18 83
2 45 6 82 10 82 3 0 30 -23 59 -52 29 -28 55 -49 59 -45 21 21 -42 114 -97
143 -16 8 -29 19 -29 24 0 5 32 25 70 46 39 20 70 43 70 50 0 20 -12 18 -66
-11 -26 -14 -55 -25 -65 -25 -27 0 -12 37 18 45 37 9 80 44 92 74 21 54 35
141 24 152 -15 15 -43 -16 -44 -49 0 -15 -8 -47 -18 -72 -19 -47 -53 -68 -112
-69 -30 -1 -63 29 -41 37 7 2 22 13 32 25 18 19 21 19 38 4 17 -15 52 -24 52
-13 0 11 -64 106 -71 106 -4 0 -11 -12 -17 -27 -5 -16 -19 -39 -31 -53 -17
-21 -22 -23 -31 -10 -15 24 -12 57 8 64 9 3 33 16 53 30 36 25 36 25 70 -4 62
-53 69 -27 10 38 -39 42 -39 42 13 42 54 0 106 23 76 34 -8 3 -37 7 -65 8 -46
3 -50 5 -53 30 -3 28 -24 52 -35 41z"/>
<path d="M56 691 c-11 -17 32 -51 64 -51 35 0 39 -16 12 -51 -28 -36 -53 -123
-59 -203 -5 -73 -34 -166 -59 -187 -18 -15 -18 -49 0 -49 34 0 99 160 115 285
12 88 45 165 71 165 15 0 12 -123 -6 -241 -21 -140 -13 -239 25 -294 15 -22
37 -41 49 -43 22 -3 22 -3 -5 50 -35 69 -42 204 -19 361 29 196 19 224 -85
246 -29 7 -63 14 -75 17 -12 3 -25 1 -28 -5z"/>
</g>
</svg>
