<svg version="1.0" xmlns="http://www.w3.org/2000/svg"
 width="71.000000pt" height="101.000000pt" viewBox="0 0 71.000000 101.000000"
 preserveAspectRatio="xMidYMid meet">
<metadata>
Created by potrace 1.15, written by Peter Selinger 2001-2017
</metadata>
<g transform="translate(0.000000,101.000000) scale(0.100000,-0.100000)"
fill="#000000" stroke="none">
<path d="M341 961 c-6 -11 -11 -71 -11 -134 0 -114 0 -114 35 -146 19 -17 35
-38 35 -45 0 -7 7 -19 15 -26 14 -12 22 -80 9 -80 -8 0 -64 63 -64 73 0 4 -7
7 -15 7 -17 0 -20 -25 -5 -43 72 -85 110 -162 110 -224 0 -18 5 -33 10 -33 6
0 10 35 10 85 0 85 0 85 80 167 69 70 95 108 74 108 -16 0 -53 -28 -96 -72
-43 -44 -48 -47 -48 -26 0 24 21 62 50 88 9 8 22 25 28 36 13 25 19 224 7 243
-15 25 -35 -48 -35 -128 0 -59 -5 -83 -21 -110 -24 -40 -31 -35 -39 27 -7 63
-34 66 -38 5 -4 -49 -10 -52 -40 -20 -20 21 -22 34 -22 140 0 114 -9 147 -29
108z"/>
<path d="M211 902 c-7 -15 -22 -39 -34 -53 -51 -55 -54 -86 -31 -401 5 -74 4
-79 -25 -122 -17 -24 -31 -52 -31 -60 0 -28 25 -17 53 23 12 18 17 21 21 10 3
-12 37 -160 52 -227 7 -33 24 -26 24 11 0 30 -23 191 -36 247 -4 21 0 18 21
-13 15 -21 38 -63 52 -93 25 -56 38 -70 47 -56 8 14 -30 104 -74 177 -35 56
-38 68 -28 85 7 11 16 20 20 20 5 0 8 9 8 20 0 11 5 20 10 20 6 0 10 14 10 30
0 41 -10 38 -44 -16 -26 -40 -31 -44 -37 -28 -15 37 -8 70 27 142 25 49 33 77
26 84 -6 6 -17 -7 -33 -41 -12 -28 -26 -51 -31 -51 -4 0 -8 35 -8 77 0 69 3
83 32 130 18 29 36 53 40 53 13 0 9 37 -6 49 -11 9 -16 5 -25 -17z"/>
</g>
</svg>
