<svg version="1.0" xmlns="http://www.w3.org/2000/svg"
 width="73.000000pt" height="92.000000pt" viewBox="0 0 73.000000 92.000000"
 preserveAspectRatio="xMidYMid meet">
<metadata>
Created by potrace 1.15, written by Peter Selinger 2001-2017
</metadata>
<g transform="translate(0.000000,92.000000) scale(0.100000,-0.100000)"
fill="#000000" stroke="none">
<path d="M159 683 c0 -4 0 -71 1 -148 1 -121 -2 -150 -21 -210 -12 -38 -30
-81 -39 -95 -26 -37 -56 -101 -64 -132 -5 -21 -3 -28 8 -28 17 0 52 45 86 112
22 42 26 46 41 33 8 -8 26 -38 39 -65 13 -28 30 -50 38 -50 8 0 12 6 9 13 -76
186 -70 157 -67 342 1 94 3 183 4 200 1 21 -4 30 -16 33 -10 2 -18 0 -19 -5z"/>
<path d="M326 631 c-53 -86 -48 -107 12 -48 48 48 48 48 81 6 45 -55 58 -38
27 33 -23 52 -40 68 -70 68 -7 0 -30 -27 -50 -59z"/>
<path d="M532 635 c-7 -14 -12 -31 -12 -37 0 -7 -10 -22 -22 -35 -18 -20 -19
-23 -5 -23 10 0 35 12 57 26 36 24 40 25 62 10 52 -37 52 -4 0 47 -45 44 -65
46 -80 12z"/>
<path d="M216 528 c-7 -96 3 -189 22 -196 8 -2 12 13 13 55 1 32 3 90 4 128 2
65 -6 95 -25 95 -5 0 -11 -37 -14 -82z"/>
<path d="M83 584 c-3 -8 -3 -48 0 -87 4 -51 1 -87 -11 -124 -8 -29 -13 -56 -9
-59 10 -10 36 15 52 50 20 43 24 198 6 219 -17 21 -30 22 -38 1z"/>
<path d="M355 533 c-39 -6 -55 -21 -35 -33 13 -8 98 -3 109 6 7 6 -21 34 -33
33 -6 -1 -24 -4 -41 -6z"/>
<path d="M560 481 c0 -5 7 -14 15 -21 21 -17 39 -90 26 -103 -7 -7 -13 -2 -20
16 -11 29 -58 64 -69 52 -4 -4 -1 -10 6 -12 13 -5 42 -66 42 -89 0 -17 -30
-18 -65 -2 -21 10 -25 18 -25 57 0 25 -3 56 -6 69 -7 24 -24 30 -24 8 0 -20
-19 -31 -33 -17 -19 19 -37 -8 -37 -56 0 -26 6 -51 15 -59 20 -21 19 -46 -5
-77 -27 -34 -25 -40 6 -33 29 8 29 16 11 -138 -3 -28 21 -32 27 -4 23 118 27
165 17 191 -20 51 4 61 51 22 16 -14 40 -25 52 -25 21 0 24 -8 41 -105 16 -95
35 -139 52 -121 4 3 -1 39 -10 79 -22 92 -22 175 -1 198 9 10 18 35 21 56 4
31 -1 45 -26 81 -28 38 -61 56 -61 33z m-135 -109 c0 -31 -19 -28 -23 4 -3 18
0 25 10 22 7 -3 13 -14 13 -26z"/>
<path d="M331 433 c-8 -15 -13 -16 -29 -6 -11 6 -23 9 -26 6 -10 -10 -7 -101
4 -108 17 -11 11 -51 -15 -89 -26 -38 -22 -46 11 -21 10 8 22 15 25 15 16 0
18 -34 4 -67 -20 -48 -20 -123 0 -123 11 0 15 12 15 50 0 27 7 67 16 89 14 36
14 42 0 70 -21 40 -20 58 4 71 17 9 20 21 20 70 0 60 -10 75 -29 43z m-3 -65
c-2 -13 -7 -23 -13 -23 -5 0 -11 10 -13 23 -2 15 2 22 13 22 11 0 15 -7 13
-22z"/>
</g>
</svg>
