<svg version="1.0" xmlns="http://www.w3.org/2000/svg"
 width="70.000000pt" height="83.000000pt" viewBox="0 0 70.000000 83.000000"
 preserveAspectRatio="xMidYMid meet">
<metadata>
Created by potrace 1.15, written by Peter Selinger 2001-2017
</metadata>
<g transform="translate(0.000000,83.000000) scale(0.100000,-0.100000)"
fill="#000000" stroke="none">
<path d="M121 564 c-19 -25 -21 -40 -21 -188 0 -113 4 -166 12 -174 7 -7 36
-12 65 -12 51 0 53 -1 52 -27 -1 -56 -12 -67 -75 -78 -49 -9 -60 -14 -62 -32
-4 -29 27 -37 104 -26 87 12 94 30 94 243 0 91 -4 171 -9 179 -6 9 -32 16 -71
19 -61 4 -61 4 -58 36 3 29 6 31 53 37 28 3 126 2 218 -3 92 -6 175 -7 183 -4
9 4 14 15 12 28 -3 23 -3 23 -240 26 -236 2 -236 2 -257 -24z m117 -176 c3
-26 1 -28 -37 -28 -44 0 -56 10 -46 41 5 16 14 20 43 17 32 -3 37 -7 40 -30z
m6 -94 c14 -35 7 -44 -34 -44 -42 0 -58 15 -46 45 8 21 72 20 80 -1z"/>
<path d="M438 473 c-71 -8 -104 -95 -55 -141 18 -17 36 -22 74 -22 100 0 134
32 113 108 -6 23 -19 46 -30 52 -19 10 -30 10 -102 3z m66 -63 c5 -5 6 -16 3
-24 -9 -23 -85 -22 -94 0 -13 36 60 55 91 24z"/>
<path d="M370 255 c-7 -8 -17 -51 -23 -95 -11 -80 -11 -80 18 -110 27 -28 33
-30 105 -30 87 0 123 16 104 47 -9 15 -25 18 -85 18 -79 0 -101 7 -93 29 4 9
31 15 86 18 54 3 83 9 89 19 12 19 11 62 -1 93 -9 25 -12 26 -99 26 -66 0 -92
-4 -101 -15z m133 -42 c15 -14 -18 -33 -59 -33 -37 0 -44 3 -44 20 0 17 7 20
48 20 27 0 52 -3 55 -7z"/>
</g>
</svg>
