<svg version="1.0" xmlns="http://www.w3.org/2000/svg"
 width="67.000000pt" height="90.000000pt" viewBox="0 0 67.000000 90.000000"
 preserveAspectRatio="xMidYMid meet">
<metadata>
Created by potrace 1.15, written by Peter Selinger 2001-2017
</metadata>
<g transform="translate(0.000000,90.000000) scale(0.100000,-0.100000)"
fill="#000000" stroke="none">
<path d="M110 655 c0 -8 9 -32 20 -52 11 -21 20 -47 20 -58 0 -23 -25 -142
-35 -167 -5 -11 2 -26 20 -44 23 -23 32 -25 66 -20 56 9 51 -15 -8 -46 -47
-24 -113 -96 -113 -124 0 -25 27 -15 51 20 25 36 67 66 93 66 13 0 16 -13 16
-73 0 -46 5 -80 13 -92 13 -17 15 -16 25 15 7 18 12 71 12 118 0 47 5 124 12
170 12 84 12 84 -12 104 -18 14 -34 18 -57 15 -32 -6 -33 -4 -33 27 0 37 15
46 82 46 38 0 57 15 41 31 -6 6 -37 13 -69 16 -47 5 -65 11 -88 34 -31 32 -56
38 -56 14z m143 -235 c7 -26 -17 -50 -49 -50 -20 0 -24 5 -24 28 0 36 6 42 41
42 18 0 28 -6 32 -20z"/>
<path d="M402 615 c-46 -20 -32 -35 32 -35 61 0 84 -18 88 -67 3 -39 -25 -73
-60 -73 -25 0 -82 29 -82 42 0 4 -7 8 -15 8 -24 0 -18 -27 14 -62 22 -25 39
-33 77 -37 47 -6 48 -7 57 -46 7 -36 5 -42 -18 -62 -39 -34 -89 -31 -117 7
-28 39 -43 24 -23 -23 18 -43 40 -57 93 -57 42 0 52 -11 52 -56 0 -30 14 -60
43 -91 43 -48 64 -16 25 38 -27 36 -33 128 -11 171 19 39 16 81 -7 111 -20 26
-20 26 6 52 23 23 26 32 20 68 -5 32 -17 52 -51 85 -47 45 -69 50 -123 27z"/>
<path d="M414 526 c-3 -8 -4 -23 -2 -33 5 -25 51 -25 56 0 7 36 -42 65 -54 33z"/>
<path d="M410 335 c-11 -13 -11 -19 4 -33 20 -20 51 -6 51 24 0 24 -37 30 -55
9z"/>
</g>
</svg>
