<svg version="1.0" xmlns="http://www.w3.org/2000/svg"
 width="125.000000pt" height="129.000000pt" viewBox="0 0 125.000000 129.000000"
 preserveAspectRatio="xMidYMid meet">
<metadata>
Created by potrace 1.15, written by Peter Selinger 2001-2017
</metadata>
<g transform="translate(0.000000,129.000000) scale(0.100000,-0.100000)"
fill="#000000" stroke="none">
<path d="M925 1070 c-22 -5 -60 -16 -84 -24 -24 -9 -58 -16 -77 -16 -18 0 -36
-4 -39 -10 -3 -5 -15 -10 -26 -10 -10 0 -27 -4 -37 -9 -9 -5 -24 -12 -34 -15
-20 -6 -38 -84 -38 -169 0 -66 -16 -156 -51 -277 -11 -41 -24 -100 -29 -130
-4 -31 -10 -65 -13 -75 -3 -11 -8 -36 -11 -55 -10 -64 -55 -190 -68 -190 -4 0
-8 -4 -8 -10 0 -5 9 -10 19 -10 11 0 23 5 26 10 3 6 14 10 24 10 9 0 26 8 37
18 10 10 51 39 89 65 39 26 83 57 100 69 41 32 188 180 200 202 12 21 21 18
170 -74 65 -39 116 -53 132 -36 11 10 -53 66 -121 106 -33 19 -81 57 -107 83
-48 50 -83 60 -99 27 -4 -8 -14 -28 -21 -45 -8 -16 -24 -41 -36 -55 -13 -14
-23 -28 -23 -32 0 -4 -12 -19 -27 -35 -16 -15 -27 -33 -25 -40 2 -7 -5 -13
-14 -13 -9 0 -29 -13 -44 -30 -15 -16 -32 -30 -37 -30 -5 0 -18 -8 -29 -19
-21 -19 -58 -41 -70 -41 -3 0 -3 10 0 23 12 38 28 149 30 204 0 28 5 51 9 50
13 -3 47 109 54 173 3 30 12 64 19 75 8 11 14 28 14 38 0 30 28 31 98 4 137
-52 141 -53 159 -35 14 15 14 18 0 32 -9 9 -20 16 -24 16 -5 0 -28 9 -51 20
-22 11 -45 20 -51 20 -12 0 -93 42 -108 57 -28 26 -15 50 36 67 28 9 60 16 73
16 36 1 162 46 172 63 10 15 2 48 -11 46 -4 -1 -26 -5 -48 -9z"/>
<path d="M213 1056 c-21 -10 -23 -18 -23 -82 0 -39 -3 -73 -6 -77 -4 -3 -27 5
-53 18 -48 26 -81 32 -81 15 0 -13 28 -42 92 -94 40 -32 48 -44 48 -72 0 -37
-2 -38 -99 -52 -58 -8 -77 -26 -39 -38 35 -12 279 -4 311 9 51 22 35 40 -47
52 -46 7 -46 7 -46 49 1 36 6 46 46 81 40 34 74 81 74 100 0 12 -24 3 -65 -25
-24 -16 -46 -30 -49 -30 -3 0 -7 21 -7 48 -2 61 -11 105 -24 107 -5 1 -20 -3
-32 -9z m7 -156 c0 -5 -5 -10 -11 -10 -5 0 -7 5 -4 10 3 6 8 10 11 10 2 0 4
-4 4 -10z"/>
<path d="M132 552 c-56 -1 -102 -6 -102 -11 0 -33 105 -55 192 -41 36 5 73 7
82 4 9 -3 28 -3 42 0 18 5 24 12 22 27 -3 18 -11 21 -68 22 -36 1 -111 1 -168
-1z"/>
<path d="M202 418 c-5 -7 -15 -39 -22 -70 -7 -32 -15 -58 -18 -58 -3 0 -28 25
-57 55 -28 30 -59 55 -68 55 -16 0 -16 -2 -1 -32 9 -18 25 -45 35 -60 11 -14
19 -31 19 -38 0 -6 13 -30 30 -53 30 -42 30 -42 13 -95 -14 -42 -14 -55 -4
-65 10 -10 18 -5 42 21 16 18 29 39 29 47 0 19 66 80 103 96 15 6 27 17 27 24
0 6 14 27 31 45 31 32 31 32 -2 25 -19 -4 -43 -13 -54 -20 -11 -7 -33 -16 -49
-19 -25 -6 -28 -5 -21 11 16 37 18 125 4 134 -19 12 -25 11 -37 -3z"/>
</g>
</svg>
