<svg version="1.0" xmlns="http://www.w3.org/2000/svg"
 width="63.000000pt" height="84.000000pt" viewBox="0 0 63.000000 84.000000"
 preserveAspectRatio="xMidYMid meet">
<metadata>
Created by potrace 1.15, written by Peter Selinger 2001-2017
</metadata>
<g transform="translate(0.000000,84.000000) scale(0.100000,-0.100000)"
fill="#000000" stroke="none">
<path d="M67 663 c-10 -10 -8 -136 2 -152 7 -11 29 -13 112 -8 118 7 129 14
129 81 0 84 -47 92 -52 9 -3 -41 -6 -48 -25 -51 -22 -3 -23 0 -23 56 0 42 -4
61 -14 65 -23 9 -33 -12 -28 -61 3 -36 0 -51 -12 -61 -29 -25 -46 -6 -46 52 0
59 -21 93 -43 70z"/>
<path d="M454 645 c-4 -9 -4 -31 -1 -49 6 -36 -6 -56 -34 -56 -21 0 -28 18
-22 51 3 16 -1 30 -12 39 -24 20 -34 1 -28 -58 5 -46 9 -55 32 -64 32 -12 178
-3 197 13 20 16 17 63 -5 90 -20 24 -20 24 -32 -23 -13 -48 -22 -55 -48 -39
-9 6 -12 24 -10 57 3 40 1 49 -14 52 -9 2 -20 -4 -23 -13z"/>
<path d="M170 430 c-14 -4 -44 -8 -68 -9 -36 -1 -43 -4 -40 -18 3 -16 14 -18
86 -14 81 3 82 3 82 -21 0 -40 -21 -57 -85 -69 -90 -17 -89 -17 -75 -34 10
-12 25 -14 57 -10 140 17 131 14 142 47 18 50 13 87 -14 113 -25 26 -42 29
-85 15z"/>
<path d="M373 415 c-19 -13 -23 -26 -23 -69 0 -76 15 -86 122 -86 60 0 89 4
97 14 23 27 -13 39 -95 33 -82 -7 -92 -1 -80 48 6 24 9 25 86 25 79 0 104 10
81 33 -7 7 -47 13 -89 15 -59 3 -82 -1 -99 -13z"/>
<path d="M130 213 c-56 -9 -71 -14 -67 -26 2 -7 32 -14 78 -17 74 -5 74 -5 77
-36 3 -31 3 -31 -68 -43 -76 -14 -87 -29 -32 -45 39 -11 117 0 137 20 16 16
21 99 7 121 -16 26 -68 36 -132 26z"/>
<path d="M406 200 c-47 -9 -56 -22 -56 -86 0 -75 20 -89 122 -87 83 1 119 17
103 43 -6 9 -31 11 -92 7 -84 -6 -84 -6 -81 36 3 41 4 42 43 45 99 6 125 13
125 33 0 17 -7 19 -62 18 -35 -1 -80 -5 -102 -9z"/>
</g>
</svg>
