<svg version="1.0" xmlns="http://www.w3.org/2000/svg"
 width="65.000000pt" height="67.000000pt" viewBox="0 0 65.000000 67.000000"
 preserveAspectRatio="xMidYMid meet">
<metadata>
Created by potrace 1.15, written by Peter Selinger 2001-2017
</metadata>
<g transform="translate(0.000000,67.000000) scale(0.100000,-0.100000)"
fill="#000000" stroke="none">
<path d="M249 473 c0 -10 -4 -55 -7 -101 -9 -99 -1 -110 77 -116 77 -6 108 13
117 69 11 74 -16 167 -37 133 -5 -7 -9 -25 -9 -40 0 -27 -2 -28 -50 -28 -46 0
-50 2 -50 25 0 47 -39 103 -41 58z m155 -132 c4 -5 3 -17 0 -26 -5 -13 -15
-15 -48 -11 -22 3 -51 5 -64 5 -20 1 -21 3 -10 21 10 16 24 20 65 20 28 0 54
-4 57 -9z"/>
<path d="M37 297 c-3 -8 -2 -52 2 -98 5 -51 4 -89 -2 -97 -18 -23 10 -40 59
-34 39 4 47 2 61 -18 24 -34 33 -8 32 95 -1 84 -14 145 -31 145 -5 0 -8 -15
-8 -34 0 -37 -19 -59 -47 -54 -14 2 -19 15 -23 53 -4 35 -10 51 -21 53 -9 2
-19 -3 -22 -11z m111 -164 c3 -20 -1 -23 -32 -23 -39 0 -41 2 -25 31 14 27 53
21 57 -8z"/>
<path d="M448 218 c-5 -97 4 -113 68 -112 69 2 84 33 58 125 -3 10 -16 16 -36
16 -21 0 -36 7 -46 21 -27 41 -40 27 -44 -50z m85 -22 c23 -18 22 -46 -2 -46
-24 0 -43 23 -35 44 7 19 13 20 37 2z"/>
</g>
</svg>
