<svg version="1.0" xmlns="http://www.w3.org/2000/svg"
 width="63.000000pt" height="131.000000pt" viewBox="0 0 63.000000 131.000000"
 preserveAspectRatio="xMidYMid meet">
<metadata>
Created by potrace 1.15, written by Peter Selinger 2001-2017
</metadata>
<g transform="translate(0.000000,131.000000) scale(0.100000,-0.100000)"
fill="#000000" stroke="none">
<path d="M230 1107 c0 -54 -4 -97 -9 -97 -5 0 -19 13 -32 30 -25 31 -59 40
-59 16 0 -8 26 -38 59 -68 54 -50 58 -58 63 -106 3 -29 1 -52 -4 -52 -14 0
-49 20 -72 41 -21 21 -46 25 -46 9 0 -5 5 -10 10 -10 6 0 10 -5 10 -11 0 -5
27 -35 60 -66 45 -41 60 -62 60 -82 0 -32 -41 -121 -64 -140 -9 -7 -16 -17
-16 -22 0 -5 -15 -24 -34 -43 -30 -29 -86 -125 -86 -148 0 -17 29 -7 35 12 3
11 10 20 15 20 5 0 12 9 15 21 7 19 7 20 21 2 7 -10 14 -25 14 -34 0 -19 26
-33 35 -19 3 4 1 20 -5 35 -5 14 -7 38 -4 53 12 56 13 56 38 33 26 -24 61 -19
51 7 -13 36 -18 102 -6 102 6 0 11 7 11 15 0 24 25 28 60 10 53 -27 119 -139
120 -202 0 -12 6 -48 14 -80 8 -32 22 -94 31 -138 20 -96 31 -125 46 -125 12
0 8 80 -9 170 -5 25 -17 90 -26 145 -29 171 -48 208 -129 259 -35 22 -47 37
-52 63 -3 19 -8 40 -11 46 -2 7 18 41 46 77 53 71 59 85 34 94 -15 6 -43 -18
-44 -37 0 -4 -11 -19 -24 -32 -24 -24 -24 -24 -30 13 -10 62 -7 99 10 112 16
14 44 74 44 96 0 20 -29 17 -37 -3 -7 -19 -28 -43 -36 -43 -3 0 -11 31 -18 70
-7 42 -19 76 -31 86 -17 17 -18 14 -18 -79z"/>
<path d="M247 318 c-7 -22 5 -253 14 -262 13 -15 39 14 39 43 0 16 11 37 30
54 17 16 30 34 30 41 0 8 9 25 21 40 11 15 18 33 15 41 -6 17 -36 21 -36 5 0
-6 -13 -24 -29 -40 -31 -33 -41 -27 -41 28 -1 25 -20 62 -33 62 -3 0 -7 -6
-10 -12z"/>
</g>
</svg>
