<svg version="1.0" xmlns="http://www.w3.org/2000/svg"
 width="63.000000pt" height="117.000000pt" viewBox="0 0 63.000000 117.000000"
 preserveAspectRatio="xMidYMid meet">
<metadata>
Created by potrace 1.15, written by Peter Selinger 2001-2017
</metadata>
<g transform="translate(0.000000,117.000000) scale(0.100000,-0.100000)"
fill="#000000" stroke="none">
<path d="M310 1000 c0 -38 -3 -70 -7 -69 -5 0 -30 11 -58 24 -27 13 -51 20
-53 16 -7 -19 45 -81 80 -95 38 -16 56 -49 44 -81 -6 -18 -52 -11 -74 12 -14
14 -35 17 -45 7 -10 -10 51 -82 81 -96 34 -16 40 -63 16 -110 -14 -28 -67
-102 -84 -118 -10 -10 -60 -90 -60 -97 0 -5 -14 -26 -30 -47 -32 -42 -37 -56
-19 -56 18 0 87 61 93 83 6 21 7 21 22 -5 24 -46 37 -35 31 26 -4 44 -2 59 13
75 18 21 18 21 34 -4 25 -38 36 -22 36 49 0 42 5 67 14 75 14 12 46 5 46 -10
0 -5 7 -9 15 -9 8 0 15 -4 15 -9 0 -5 6 -16 13 -23 19 -21 37 -56 37 -72 0 -8
5 -16 12 -18 13 -5 26 -88 27 -177 1 -94 21 -190 42 -202 26 -13 28 -2 14 71
-17 86 -35 261 -35 332 0 53 -3 60 -37 95 -21 21 -52 50 -70 63 -55 44 -52 61
21 131 37 34 66 68 66 75 0 23 -32 15 -74 -16 -46 -35 -66 -38 -66 -10 0 13
10 24 25 30 34 13 105 88 105 111 0 24 -24 24 -58 0 -15 -10 -39 -20 -53 -23
-26 -5 -27 -3 -32 54 -5 56 -19 88 -38 88 -5 0 -9 -31 -9 -70z"/>
<path d="M339 332 c-14 -9 -49 -32 -77 -51 -29 -19 -52 -37 -52 -41 0 -15 26
-28 60 -32 30 -3 35 -7 38 -31 2 -18 -7 -43 -27 -73 -17 -25 -31 -47 -31 -50
0 -14 31 0 58 26 44 41 62 91 59 157 -1 38 2 58 11 60 6 3 12 16 12 29 0 28
-15 30 -51 6z"/>
</g>
</svg>
