<svg version="1.0" xmlns="http://www.w3.org/2000/svg"
 width="67.000000pt" height="125.000000pt" viewBox="0 0 67.000000 125.000000"
 preserveAspectRatio="xMidYMid meet">
<metadata>
Created by potrace 1.15, written by Peter Selinger 2001-2017
</metadata>
<g transform="translate(0.000000,125.000000) scale(0.100000,-0.100000)"
fill="#000000" stroke="none">
<path d="M287 1174 c-6 -7 11 -71 28 -104 15 -27 35 -87 35 -103 0 -16 -53 3
-86 33 -22 19 -40 27 -53 23 -21 -5 -21 -5 1 -37 12 -17 27 -36 33 -42 13 -13
85 -51 100 -53 6 -1 10 -18 10 -38 0 -36 -2 -38 -29 -35 -16 2 -46 12 -67 23
-67 34 -89 22 -43 -24 16 -16 47 -31 80 -38 54 -12 54 -12 49 -67 -2 -35 -10
-59 -19 -64 -8 -5 -22 -15 -30 -23 -8 -8 -20 -15 -26 -15 -17 0 -121 -73 -158
-111 -35 -36 -62 -110 -62 -168 0 -59 46 -201 70 -221 4 -3 9 -13 13 -22 9
-25 37 -23 37 2 0 11 -4 20 -8 20 -5 0 -20 39 -32 88 -25 91 -30 206 -11 225
6 6 11 17 11 25 0 15 24 42 37 42 4 0 14 9 21 20 7 11 18 20 25 20 7 0 19 9
27 20 8 11 22 20 32 20 9 0 20 5 23 10 11 18 99 11 144 -11 24 -11 63 -40 87
-64 44 -44 44 -44 44 -124 0 -46 -6 -93 -15 -113 -15 -37 -82 -130 -97 -136
-4 -2 -8 -10 -8 -18 0 -15 28 -19 45 -6 30 22 110 165 121 216 15 67 16 118 3
148 -18 46 -94 116 -157 145 -53 24 -53 24 -47 81 11 96 14 106 42 120 15 6
31 12 36 12 14 0 37 27 37 44 0 20 -27 20 -60 1 -36 -20 -40 -19 -40 16 0 29
29 69 50 69 18 0 50 39 44 54 -6 17 -30 22 -36 8 -1 -4 -20 -18 -42 -31 -40
-25 -55 -19 -56 20 0 22 -19 65 -52 116 -29 44 -42 56 -51 47z"/>
<path d="M240 418 c-11 -4 -20 -12 -20 -17 0 -11 49 -27 92 -30 12 -1 16 -11
16 -38 0 -40 -13 -56 -78 -96 -35 -22 -35 -22 -5 -25 42 -4 104 24 117 53 6
14 15 25 19 25 5 0 14 20 20 45 8 32 16 45 29 45 21 0 46 27 36 38 -10 9 -201
9 -226 0z"/>
</g>
</svg>
