<svg version="1.0" xmlns="http://www.w3.org/2000/svg"
 width="77.000000pt" height="117.000000pt" viewBox="0 0 77.000000 117.000000"
 preserveAspectRatio="xMidYMid meet">
<metadata>
Created by potrace 1.15, written by Peter Selinger 2001-2017
</metadata>
<g transform="translate(0.000000,117.000000) scale(0.100000,-0.100000)"
fill="#000000" stroke="none">
<path d="M147 1083 c-14 -14 -5 -31 43 -83 27 -30 52 -62 56 -72 3 -10 10 -18
15 -18 5 0 9 -11 9 -25 0 -24 -2 -25 -40 -19 -43 7 -90 -1 -90 -15 0 -12 44
-34 103 -51 31 -10 49 -22 57 -39 12 -27 -3 -46 -30 -35 -8 4 -39 9 -69 12
-74 7 -65 -11 32 -61 42 -23 73 -43 69 -46 -5 -3 -11 -11 -13 -17 -6 -17 -88
-104 -98 -104 -4 0 -23 -30 -42 -67 -27 -56 -34 -83 -37 -149 -3 -54 -1 -84 7
-88 6 -4 11 -18 11 -31 0 -13 5 -27 11 -31 9 -5 10 15 7 74 -4 64 -2 79 9 75
7 -3 13 -9 13 -14 0 -5 11 -9 25 -9 14 0 25 3 25 6 0 3 -11 19 -25 36 -29 34
-33 83 -8 92 11 5 27 -5 51 -30 23 -24 37 -33 44 -26 7 7 4 17 -10 32 -11 12
-23 38 -27 57 -6 32 -3 38 27 64 65 55 71 56 141 23 71 -33 163 -118 173 -160
4 -16 19 -56 34 -89 15 -33 33 -91 40 -130 17 -95 17 -95 39 -95 19 0 20 5 15
48 -5 46 -16 96 -35 158 -5 17 -9 38 -9 47 0 10 -4 25 -10 35 -5 9 -14 42 -20
72 -10 48 -17 59 -55 87 -24 18 -49 33 -56 33 -6 0 -23 8 -37 18 -15 10 -54
31 -86 47 -59 28 -59 28 2 84 60 54 76 81 50 81 -7 -1 -24 -7 -38 -15 -39 -22
-60 -19 -60 10 0 18 7 28 24 35 30 11 110 115 101 130 -10 16 -24 12 -63 -19
-20 -17 -49 -33 -63 -36 -25 -6 -27 -4 -38 42 -13 51 -54 104 -123 156 -38 29
-41 30 -51 20z"/>
<path d="M430 353 c-65 -4 -160 -24 -160 -33 0 -9 56 -30 80 -30 10 0 23 -13
30 -31 14 -32 6 -58 -29 -96 -22 -24 -61 -80 -61 -87 0 -29 138 51 139 81 1 6
6 13 13 15 7 3 13 24 13 52 1 36 7 54 28 78 43 49 34 58 -53 51z"/>
</g>
</svg>
