<svg version="1.0" xmlns="http://www.w3.org/2000/svg"
 width="75.000000pt" height="147.000000pt" viewBox="0 0 75.000000 147.000000"
 preserveAspectRatio="xMidYMid meet">
<metadata>
Created by potrace 1.15, written by Peter Selinger 2001-2017
</metadata>
<g transform="translate(0.000000,147.000000) scale(0.100000,-0.100000)"
fill="#000000" stroke="none">
<path d="M207 1363 c-8 -14 12 -53 28 -53 8 0 20 -9 27 -20 7 -11 18 -20 24
-20 19 0 33 -44 32 -102 -1 -41 -5 -58 -15 -58 -7 0 -13 4 -13 9 0 5 -8 11
-17 15 -112 38 -123 41 -123 26 0 -11 91 -102 133 -132 19 -13 27 -28 27 -49
0 -34 -22 -39 -60 -11 -36 25 -127 42 -147 27 -14 -10 -6 -19 53 -61 38 -27
78 -57 88 -66 11 -10 23 -18 28 -18 18 0 10 -16 -40 -75 -12 -15 -112 -99
-128 -108 -20 -11 -17 -35 5 -42 24 -7 60 7 93 39 35 34 93 66 119 66 11 0 32
-8 47 -18 15 -11 45 -31 67 -45 95 -62 124 -103 164 -227 50 -156 51 -161 51
-191 0 -15 5 -31 10 -34 6 -3 10 -15 10 -26 0 -15 6 -20 23 -17 20 3 22 8 19
53 -5 88 -34 216 -54 240 -4 5 -8 19 -8 32 0 12 -5 35 -11 50 -19 46 -34 78
-39 83 -3 3 -13 17 -23 33 -10 15 -22 27 -28 27 -5 0 -19 8 -30 19 -11 10 -39
28 -63 40 -41 22 -86 84 -68 95 16 10 98 37 127 42 17 3 34 10 40 15 5 5 19 9
32 9 18 0 23 6 23 25 0 21 -5 25 -27 25 -16 0 -46 -5 -68 -11 -93 -24 -127
-31 -132 -26 -14 14 11 64 42 86 55 37 125 114 125 137 0 22 -18 44 -36 44 -6
0 -24 -12 -41 -27 -26 -25 -67 -53 -76 -53 -1 0 -3 27 -4 60 -4 119 -25 153
-114 185 -49 17 -66 18 -72 8z"/>
<path d="M160 426 c-34 -8 -46 -16 -48 -32 -4 -26 19 -34 81 -27 44 5 44 5 50
-51 7 -73 -6 -110 -56 -155 -132 -118 -126 -110 -90 -111 41 0 78 22 153 93
59 56 59 56 62 144 3 88 3 88 61 97 54 9 73 25 46 42 -19 11 -212 11 -259 0z"/>
</g>
</svg>
