<svg version="1.0" xmlns="http://www.w3.org/2000/svg"
 width="68.000000pt" height="81.000000pt" viewBox="0 0 68.000000 81.000000"
 preserveAspectRatio="xMidYMid meet">
<metadata>
Created by potrace 1.15, written by Peter Selinger 2001-2017
</metadata>
<g transform="translate(0.000000,81.000000) scale(0.100000,-0.100000)"
fill="#000000" stroke="none">
<path d="M319 544 c-11 -13 -10 -19 1 -37 11 -18 10 -23 -5 -32 -10 -5 -32
-22 -49 -36 -17 -15 -56 -41 -86 -57 -30 -17 -55 -36 -55 -44 0 -24 35 -20 68
8 33 28 102 63 125 64 18 0 4 -110 -18 -135 -9 -11 -32 -58 -50 -105 -18 -47
-34 -87 -37 -89 -2 -3 -20 -4 -41 -3 -49 3 -71 -11 -56 -35 6 -10 20 -18 30
-18 10 0 115 4 232 9 222 9 235 12 192 51 -13 11 -27 15 -44 11 -25 -6 -39 10
-88 104 -10 19 -30 55 -43 80 -18 33 -25 60 -25 103 0 58 0 58 53 19 82 -60
126 -84 142 -78 8 3 15 9 15 14 0 8 -147 118 -185 137 -13 7 -19 19 -17 34 6
43 -33 66 -59 35z m72 -360 c16 -36 37 -74 46 -83 15 -15 10 -16 -71 -19 -49
-2 -91 0 -94 3 -9 8 71 165 84 165 2 0 18 -30 35 -66z"/>
</g>
</svg>
