<svg version="1.0" xmlns="http://www.w3.org/2000/svg"
 width="63.000000pt" height="84.000000pt" viewBox="0 0 63.000000 84.000000"
 preserveAspectRatio="xMidYMid meet">
<metadata>
Created by potrace 1.15, written by Peter Selinger 2001-2017
</metadata>
<g transform="translate(0.000000,84.000000) scale(0.100000,-0.100000)"
fill="#000000" stroke="none">
<path d="M300 575 c-7 -8 -10 -22 -6 -30 6 -17 1 -22 -68 -68 -61 -41 -91 -79
-82 -104 7 -16 10 -15 31 10 13 15 28 27 32 27 4 0 22 14 40 30 39 36 53 38
53 6 0 -13 5 -26 11 -28 9 -3 9 -9 1 -25 -13 -23 -7 -33 19 -33 22 0 31 26 25
73 -6 43 6 47 36 12 12 -14 25 -25 30 -25 5 0 21 -15 38 -32 24 -27 32 -31 47
-22 25 15 23 46 -5 60 -12 6 -33 20 -45 31 -12 11 -37 28 -54 39 -22 12 -33
26 -33 40 0 37 -11 54 -35 54 -12 0 -28 -7 -35 -15z m50 -76 c0 -11 -12 -11
-35 -3 -12 5 -14 9 -4 14 14 9 39 2 39 -11z"/>
<path d="M268 338 c17 -8 26 -8 34 0 9 9 4 12 -22 11 -33 0 -34 -1 -12 -11z"/>
<path d="M333 324 c-3 -9 3 -23 16 -35 24 -23 26 -30 9 -47 -9 -9 -9 -12 3
-12 13 0 41 -48 43 -75 1 -5 5 -13 11 -17 19 -14 -13 -30 -84 -41 -39 -6 -71
-14 -71 -19 0 -4 -7 -8 -15 -8 -8 0 -15 5 -15 10 0 6 -5 10 -11 10 -5 0 -7 -5
-3 -12 5 -8 2 -9 -12 -3 -40 17 -80 17 -94 0 -21 -26 5 -37 70 -30 30 3 98 8
150 10 152 8 221 13 227 19 3 3 3 12 -1 21 -4 12 -15 15 -49 11 -23 -3 -47 -2
-52 2 -6 4 -30 58 -55 119 -25 62 -49 113 -53 113 -4 0 -10 -7 -14 -16z"/>
<path d="M183 285 c-39 -36 -46 -46 -35 -57 17 -17 46 1 50 31 2 13 11 21 23
21 14 0 19 7 19 25 0 14 -2 25 -5 25 -2 0 -26 -20 -52 -45z"/>
<path d="M271 266 c-10 -12 -8 -13 9 -9 25 7 37 23 17 23 -8 0 -20 -6 -26 -14z"/>
<path d="M257 213 c-2 -5 -7 -20 -11 -35 -5 -21 -3 -28 8 -28 13 0 26 28 26
58 0 13 -16 17 -23 5z"/>
</g>
</svg>
