<svg version="1.0" xmlns="http://www.w3.org/2000/svg"
 width="57.000000pt" height="147.000000pt" viewBox="0 0 57.000000 147.000000"
 preserveAspectRatio="xMidYMid meet">
<metadata>
Created by potrace 1.15, written by Peter Selinger 2001-2017
</metadata>
<g transform="translate(0.000000,147.000000) scale(0.100000,-0.100000)"
fill="#000000" stroke="none">
<path d="M96 1234 c-22 -21 -11 -34 28 -34 20 0 40 -8 51 -20 15 -17 16 -22 4
-37 -8 -10 -18 -21 -24 -25 -11 -8 -45 19 -45 36 0 6 -9 17 -20 24 -19 11 -20
10 -20 -26 0 -63 54 -100 116 -79 41 14 103 -68 110 -146 2 -28 9 -98 14 -155
11 -101 10 -105 -16 -170 -21 -53 -24 -70 -15 -84 8 -13 8 -24 1 -38 -13 -23
-13 -94 -1 -134 5 -17 17 -62 26 -101 9 -38 19 -83 23 -100 5 -17 16 -31 26
-33 17 -4 18 0 12 34 -28 151 -40 264 -30 264 5 0 25 -24 44 -54 19 -30 38
-52 42 -50 14 9 9 45 -11 72 -10 15 -28 44 -40 66 -22 38 -22 39 -3 60 24 26
35 58 26 80 -7 18 -24 22 -24 5 0 -13 -25 -39 -38 -39 -10 0 18 103 31 116 10
11 8 148 -3 227 -11 72 -7 87 33 133 12 14 32 24 47 24 71 0 95 73 40 125 -16
16 -30 33 -30 38 0 4 -7 15 -16 24 -13 14 -19 14 -41 2 -14 -8 -32 -24 -41
-37 -13 -20 -13 -24 0 -35 8 -7 19 -24 25 -38 10 -22 8 -30 -12 -53 -12 -14
-26 -26 -32 -26 -19 0 -103 100 -103 124 0 35 -46 76 -86 76 -18 0 -40 -7 -48
-16z m354 -105 c0 -6 -4 -7 -10 -4 -5 3 -10 11 -10 16 0 6 5 7 10 4 6 -3 10
-11 10 -16z"/>
</g>
</svg>
