<svg version="1.0" xmlns="http://www.w3.org/2000/svg"
 width="57.000000pt" height="89.000000pt" viewBox="0 0 57.000000 89.000000"
 preserveAspectRatio="xMidYMid meet">
<metadata>
Created by potrace 1.15, written by Peter Selinger 2001-2017
</metadata>
<g transform="translate(0.000000,89.000000) scale(0.100000,-0.100000)"
fill="#000000" stroke="none">
<path d="M290 700 c0 -43 -5 -54 -37 -90 -38 -41 -38 -41 -43 7 -4 34 -9 48
-20 48 -9 0 -15 -10 -16 -25 0 -14 -6 -43 -12 -65 -7 -22 -12 -50 -12 -63 0
-12 -19 -50 -42 -83 -31 -46 -38 -63 -28 -69 13 -8 50 8 50 22 0 5 5 8 10 8 6
0 10 -29 10 -68 0 -65 2 -71 44 -129 25 -34 50 -64 56 -68 26 -16 22 10 -13
81 -20 41 -37 77 -37 79 0 8 29 6 48 -4 9 -5 32 -16 50 -23 32 -13 32 -13 32
-100 0 -49 4 -88 8 -88 20 0 33 117 33 275 -1 116 2 165 10 165 6 0 8 7 5 17
-4 9 5 37 19 64 24 47 33 99 18 99 -5 0 -19 -17 -32 -38 -24 -37 -24 -37 -42
3 -10 22 -18 47 -18 56 -1 16 -20 39 -33 39 -4 0 -8 -22 -8 -50z m28 -130 c12
-39 17 -140 7 -140 -10 0 -94 65 -95 73 0 9 63 107 70 107 3 0 11 -18 18 -40z
m-90 -194 c-3 -44 -4 -46 -21 -33 -16 11 -18 21 -12 61 7 41 9 46 22 33 9 -9
13 -30 11 -61z m85 0 c11 -8 17 -27 17 -50 0 -37 0 -37 -28 -17 -21 14 -29 28
-29 50 0 33 12 38 40 17z"/>
</g>
</svg>
