<svg version="1.0" xmlns="http://www.w3.org/2000/svg"
 width="73.000000pt" height="155.000000pt" viewBox="0 0 73.000000 155.000000"
 preserveAspectRatio="xMidYMid meet">
<metadata>
Created by potrace 1.15, written by Peter Selinger 2001-2017
</metadata>
<g transform="translate(0.000000,155.000000) scale(0.100000,-0.100000)"
fill="#000000" stroke="none">
<path d="M285 1372 c-6 -4 -22 -42 -36 -85 -14 -43 -29 -79 -34 -80 -5 -1 -18
21 -29 48 -11 28 -26 56 -32 63 -7 6 -16 21 -19 32 -7 23 -50 28 -58 7 -2 -7
17 -77 43 -157 48 -145 48 -145 54 -430 3 -157 9 -321 14 -365 10 -90 43 -235
54 -235 11 0 22 49 22 95 -1 22 -6 107 -13 189 -7 81 -10 150 -7 153 3 3 11 1
18 -4 14 -10 104 -33 151 -37 40 -4 42 -10 10 -58 -36 -54 -58 -102 -82 -177
-13 -41 -15 -295 -2 -287 11 7 26 81 46 224 4 29 12 55 16 58 5 3 9 14 9 24 0
23 45 105 85 154 33 41 69 98 86 136 11 25 4 106 -22 259 -7 40 -6 57 3 62 7
4 16 5 21 2 4 -2 35 -2 68 2 54 6 60 9 57 29 -2 16 -13 23 -43 29 -109 23
-100 15 -101 92 -1 87 -9 115 -35 115 -25 0 -39 -37 -39 -105 0 -30 -4 -56 -9
-60 -6 -3 -43 1 -83 10 -91 19 -88 19 -88 -5 0 -24 35 -49 108 -75 80 -29 77
-43 -5 -33 -73 10 -124 22 -160 40 -18 9 -23 20 -23 49 0 21 5 41 10 44 6 3
10 13 10 21 0 8 9 33 19 57 11 23 29 75 42 115 19 62 20 75 8 83 -17 11 -21
11 -34 1z m42 -485 c8 -8 19 -43 23 -78 15 -107 35 -169 54 -169 6 0 3 -5 -7
-11 -14 -8 -21 -7 -30 3 -7 8 -37 20 -67 28 -30 7 -58 18 -62 24 -9 13 -11
220 -2 228 8 9 76 -9 91 -25z m173 -64 c6 -32 14 -75 19 -95 11 -51 -9 -98
-44 -98 -21 0 -25 5 -25 28 0 15 -7 63 -15 107 -21 115 -21 115 19 115 34 0
35 -1 46 -57z"/>
</g>
</svg>
