<svg version="1.0" xmlns="http://www.w3.org/2000/svg"
 width="115.000000pt" height="437.000000pt" viewBox="0 0 115.000000 437.000000"
 preserveAspectRatio="xMidYMid meet">
<metadata>
Created by potrace 1.15, written by Peter Selinger 2001-2017
</metadata>
<g transform="translate(0.000000,437.000000) scale(0.100000,-0.100000)"
fill="#000000" stroke="none">
<path d="M930 4247 c-3 -3 -128 -7 -278 -10 -194 -3 -277 -8 -287 -17 -17 -14
-20 -50 -5 -50 6 0 10 -4 10 -10 0 -5 16 -27 35 -47 106 -113 145 -157 145
-165 0 -10 88 -117 121 -148 9 -8 19 -36 22 -62 7 -48 7 -48 -47 -48 -30 0
-62 3 -71 6 -19 8 -45 55 -45 84 0 11 -6 30 -12 43 -20 34 -116 127 -133 127
-20 0 -19 -29 3 -49 27 -26 62 -79 62 -96 0 -8 5 -15 10 -15 6 0 10 -9 10 -19
0 -36 42 -98 80 -120 24 -13 55 -21 85 -21 55 0 74 -17 75 -67 0 -23 -5 -33
-21 -38 -11 -4 -23 -5 -25 -2 -3 3 -31 -5 -64 -17 -125 -45 -157 -156 -71
-246 31 -33 57 -46 134 -66 4 -1 20 -2 37 -3 29 -1 29 -1 31 -888 2 -946 1
-1545 -3 -1788 -3 -149 -3 -149 -28 -155 -47 -12 -50 -6 -43 113 8 166 -9 212
-95 256 -47 24 -64 22 -38 -4 9 -9 28 -33 43 -52 26 -33 27 -41 27 -147 -1
-61 -2 -158 -4 -216 -4 -123 8 -161 67 -209 31 -25 47 -31 86 -31 119 0 207
62 207 145 0 24 5 54 11 67 7 18 5 52 -10 137 -29 161 -25 229 21 320 10 18
15 37 12 42 -11 18 -41 -11 -69 -68 -29 -56 -30 -63 -29 -193 1 -143 -1 -150
-48 -150 -31 0 -41 21 -43 90 -1 25 -3 646 -5 1380 -2 1335 -2 1335 21 1341
13 4 38 7 54 8 37 1 144 52 170 81 28 31 29 148 2 178 -29 31 -94 58 -175 72
-62 10 -73 15 -78 35 -7 29 3 65 19 65 87 0 187 100 187 185 0 56 40 105 85
105 8 0 15 9 15 20 0 17 -7 20 -49 20 -60 0 -97 -30 -106 -86 -4 -22 -10 -48
-15 -59 -4 -11 -14 -35 -20 -53 -16 -43 -45 -62 -92 -62 -38 0 -38 0 -38 60 0
33 4 60 9 60 5 0 14 14 21 31 23 54 94 159 145 213 31 32 65 83 65 96 0 6 9
23 20 38 18 22 19 27 6 40 -14 14 -96 29 -106 19z m-298 -64 c10 -9 18 -30 18
-48 0 -38 -38 -98 -64 -103 -30 -6 -68 20 -84 58 -7 19 -21 43 -29 52 -9 10
-12 25 -8 37 6 19 14 21 77 21 52 0 76 -4 90 -17z m304 3 c3 -8 -1 -28 -9 -43
-61 -119 -67 -124 -98 -100 -14 10 -69 107 -69 121 0 32 164 53 176 22z m-203
-108 c7 -7 18 -25 26 -40 8 -16 18 -28 21 -28 4 0 13 -13 19 -28 11 -25 9 -34
-10 -68 -24 -40 -56 -74 -71 -74 -4 0 -26 19 -48 42 -49 53 -50 77 -7 151 32
57 49 67 70 45z m177 -609 c51 -12 80 -34 80 -61 0 -15 -8 -18 -47 -19 -27 0
-61 -3 -77 -5 -17 -3 -40 -3 -53 1 -19 4 -23 12 -23 44 0 29 5 41 18 44 29 8
55 7 102 -4z m-190 -14 c32 -39 -16 -75 -112 -82 -56 -5 -58 -4 -58 20 0 29
13 42 66 60 52 19 89 20 104 2z m-2 -137 c7 -7 12 -27 12 -45 0 -32 -1 -33
-45 -33 -59 0 -115 27 -115 55 0 12 3 25 7 28 11 12 128 8 141 -5z m233 -7
c23 -19 23 -19 -11 -40 -19 -11 -51 -21 -70 -21 -19 0 -45 -3 -57 -6 -20 -6
-23 -3 -23 24 0 57 7 62 75 62 47 0 69 -5 86 -19z m-221 -3081 c0 -92 -12
-107 -58 -73 -21 16 -29 32 -34 74 -8 63 4 79 59 79 33 0 33 0 33 -80z m160
25 c0 -73 -20 -105 -66 -105 -34 0 -34 0 -34 74 0 81 0 81 73 85 26 1 27 0 27
-54z"/>
<path d="M390 3311 c0 -4 -13 -22 -30 -39 -16 -18 -30 -37 -30 -44 0 -7 -9
-24 -19 -38 -17 -21 -21 -22 -36 -10 -9 7 -14 19 -11 27 3 8 1 11 -4 8 -5 -3
-21 8 -36 25 -15 16 -33 30 -41 30 -7 0 -13 5 -13 10 0 6 -9 10 -21 10 -20 0
-20 0 0 -29 12 -16 21 -34 21 -40 0 -6 4 -11 8 -11 5 0 15 -12 23 -27 8 -16
22 -37 31 -47 16 -18 16 -20 -2 -47 -11 -15 -20 -32 -20 -38 0 -7 -9 -21 -19
-33 -23 -24 -91 -155 -91 -175 0 -40 60 20 125 127 33 54 85 98 85 72 0 -7 74
-83 140 -144 40 -36 88 -60 95 -48 16 25 -10 63 -100 148 -66 62 -95 97 -95
113 0 24 21 91 31 99 4 3 16 23 27 46 16 31 18 44 9 53 -13 13 -27 15 -27 2z"/>
<path d="M275 2873 c-15 -32 -31 -67 -37 -78 -49 -87 -108 -208 -108 -219 0
-25 18 -28 37 -7 32 35 38 45 73 118 19 40 41 75 48 77 24 10 61 -17 80 -58
31 -65 48 -238 34 -333 -7 -43 -12 -98 -12 -122 0 -53 -10 -141 -50 -431 -17
-118 -35 -253 -41 -300 -5 -47 -14 -114 -19 -150 -19 -132 -22 -158 -32 -295
-17 -245 -21 -543 -8 -630 34 -233 78 -364 123 -365 10 0 9 26 -2 48 -65 128
-87 345 -69 682 20 386 44 632 69 700 10 28 38 248 50 390 15 184 28 296 43
373 24 126 10 362 -26 434 -29 56 -45 81 -78 122 -11 13 -22 39 -26 57 -10 53
-21 50 -49 -13z"/>
<path d="M830 2524 c0 -8 5 -12 10 -9 6 4 8 11 5 16 -9 14 -15 11 -15 -7z"/>
<path d="M895 900 c-3 -5 3 -10 14 -10 12 0 21 5 21 10 0 6 -6 10 -14 10 -8 0
-18 -4 -21 -10z"/>
</g>
</svg>
