<svg version="1.0" xmlns="http://www.w3.org/2000/svg"
 width="64.000000pt" height="91.000000pt" viewBox="0 0 64.000000 91.000000"
 preserveAspectRatio="xMidYMid meet">
<metadata>
Created by potrace 1.15, written by Peter Selinger 2001-2017
</metadata>
<g transform="translate(0.000000,91.000000) scale(0.100000,-0.100000)"
fill="#000000" stroke="none">
<path d="M455 680 c-10 -11 -33 -25 -51 -32 -37 -13 -54 -38 -26 -38 28 1 116
54 120 73 5 23 -21 22 -43 -3z"/>
<path d="M512 652 c-11 -27 -35 -41 -132 -80 -22 -9 -23 -11 -7 -17 42 -17
177 64 177 106 0 29 -23 23 -38 -9z"/>
<path d="M134 649 c-15 -17 -19 -35 -18 -90 2 -69 2 -69 -28 -69 -37 0 -33
-24 5 -28 32 -4 33 -13 7 -66 -30 -63 -51 -279 -34 -343 7 -26 29 -30 38 -7 3
9 6 60 6 115 0 106 22 239 46 277 19 30 54 30 54 -1 0 -12 9 -38 19 -58 30
-55 34 -99 21 -197 -13 -95 -9 -142 14 -142 22 0 26 24 26 158 0 114 -3 132
-25 180 -32 68 -31 80 3 84 15 2 27 8 27 13 0 6 -12 11 -27 13 -36 4 -37 30
-2 72 29 34 27 48 -4 29 -17 -10 -25 -10 -46 4 -29 20 -34 8 -10 -28 18 -27
12 -60 -14 -70 -23 -9 -42 21 -42 68 0 59 12 73 70 81 68 9 63 26 -8 26 -47 0
-63 -4 -78 -21z"/>
<path d="M534 579 c-26 -28 -92 -66 -131 -74 -32 -6 -50 -21 -40 -32 7 -6 101
24 142 46 42 22 75 52 75 68 0 20 -25 16 -46 -8z"/>
<path d="M566 445 c-11 -42 15 -129 41 -140 25 -9 27 1 9 39 -9 19 -16 45 -16
58 0 32 -11 68 -20 68 -4 0 -11 -11 -14 -25z"/>
<path d="M500 411 c0 -23 -7 -58 -15 -78 -18 -44 -12 -54 17 -26 16 16 21 35
22 79 1 37 -3 58 -11 61 -9 3 -13 -8 -13 -36z"/>
<path d="M380 391 c0 -23 -4 -41 -8 -41 -15 0 -32 24 -32 47 0 14 -6 23 -15
23 -29 0 -17 -51 20 -86 33 -31 34 -34 16 -44 -22 -11 -58 -147 -47 -176 11
-28 23 -6 29 52 3 32 13 64 21 73 15 14 16 7 16 -72 0 -48 4 -87 9 -87 15 0
21 29 21 103 0 89 21 79 28 -13 6 -80 26 -74 30 9 3 58 1 64 -28 91 -37 35
-38 43 0 70 22 16 30 29 30 52 0 35 -22 34 -30 -2 -9 -36 -28 -36 -32 1 -5 50
-28 49 -28 0z"/>
<path d="M150 311 c0 -51 0 -51 34 -51 40 0 59 19 54 55 -4 32 -21 34 -28 4
-9 -35 -28 -34 -32 2 -5 56 -28 48 -28 -10z"/>
<path d="M508 237 c-23 -54 -23 -70 2 -92 19 -17 22 -18 55 -2 37 18 47 51 23
75 -21 21 -30 13 -23 -18 5 -23 3 -32 -10 -36 -38 -15 -41 24 -9 104 3 6 0 12
-8 12 -7 0 -21 -19 -30 -43z"/>
</g>
</svg>
