<svg version="1.0" xmlns="http://www.w3.org/2000/svg"
 width="65.000000pt" height="84.000000pt" viewBox="0 0 65.000000 84.000000"
 preserveAspectRatio="xMidYMid meet">
<metadata>
Created by potrace 1.15, written by Peter Selinger 2001-2017
</metadata>
<g transform="translate(0.000000,84.000000) scale(0.100000,-0.100000)"
fill="#000000" stroke="none">
<path d="M285 589 c-147 -10 -155 -12 -155 -35 0 -15 19 -16 192 -13 122 3
192 0 194 -6 10 -30 -15 -36 -187 -42 -96 -3 -182 -10 -192 -15 -30 -15 -35
-46 -38 -226 -3 -125 -1 -174 8 -183 7 -7 16 -9 20 -5 5 4 10 88 13 186 3 98
8 182 12 186 5 4 56 9 114 12 106 5 106 5 102 -19 -3 -22 -9 -25 -81 -33 -64
-7 -77 -11 -75 -25 3 -13 16 -15 81 -13 62 3 77 1 77 -11 0 -23 -21 -34 -79
-40 -30 -4 -60 -12 -67 -19 -8 -8 -13 -56 -16 -130 -3 -107 -2 -118 14 -118
16 0 18 12 18 109 0 123 -1 121 82 121 42 0 49 -3 46 -17 -2 -11 -14 -19 -30
-21 -42 -5 -49 -23 -46 -109 3 -78 3 -78 80 -81 89 -3 96 2 105 92 7 68 -7 96
-48 96 -26 0 -30 3 -27 23 4 26 34 33 81 18 32 -11 32 -11 28 -126 -3 -95 -1
-115 11 -115 23 0 38 68 38 168 0 114 -7 122 -96 122 -57 0 -64 2 -64 20 0 18
7 20 59 20 68 0 91 6 91 26 0 16 -3 17 -107 22 -26 2 -33 6 -33 22 0 18 7 20
65 20 64 0 66 0 82 34 21 44 11 81 -27 101 -31 16 -49 17 -245 4z m153 -422
c3 -28 3 -28 -55 -25 -50 3 -58 6 -58 23 0 15 9 22 35 26 60 11 75 7 78 -24z
m-8 -72 c0 -19 -65 -31 -85 -15 -26 22 -16 30 35 30 37 0 50 -4 50 -15z"/>
</g>
</svg>
