<svg version="1.0" xmlns="http://www.w3.org/2000/svg"
 width="127.000000pt" height="141.000000pt" viewBox="0 0 127.000000 141.000000"
 preserveAspectRatio="xMidYMid meet">
<metadata>
Created by potrace 1.15, written by Peter Selinger 2001-2017
</metadata>
<g transform="translate(0.000000,141.000000) scale(0.100000,-0.100000)"
fill="#000000" stroke="none">
<path d="M229 1389 c-6 -18 -8 -288 -3 -385 6 -121 6 -122 39 -156 36 -39 54
-45 170 -60 109 -14 109 -14 93 -37 -20 -29 -106 -121 -112 -121 -4 0 -28 21
-55 48 -26 26 -61 56 -76 67 -16 11 -41 30 -55 42 -32 26 -70 37 -89 24 -11
-7 -7 -18 20 -52 53 -68 211 -219 236 -225 28 -8 107 73 163 167 39 66 54 79
90 79 19 0 66 -50 91 -97 22 -41 113 -133 132 -133 9 0 25 8 36 17 10 10 27
25 38 33 10 8 34 35 53 60 19 25 38 46 42 48 13 6 9 70 -4 78 -6 4 -19 -3 -30
-17 -10 -13 -21 -28 -26 -34 -4 -5 -14 -21 -23 -35 -44 -67 -73 -85 -83 -52
-3 9 -26 39 -50 67 -25 27 -42 53 -40 57 3 4 18 8 34 8 64 0 183 30 215 54 18
14 35 23 38 20 12 -13 22 99 21 239 -2 137 -3 150 -25 182 -44 64 -74 56 -58
-14 5 -24 8 -108 5 -187 -5 -192 -9 -198 -138 -209 -137 -13 -415 -11 -468 3
-25 7 -62 15 -82 18 -20 4 -38 12 -40 18 -2 6 -1 67 3 136 5 69 9 148 11 177
2 28 6 54 9 57 4 4 73 12 155 17 135 10 201 11 434 6 41 -1 77 2 79 8 3 9 -46
42 -99 67 -62 28 -389 20 -548 -14 -49 -11 -54 -10 -77 12 -14 13 -26 22 -26
19z"/>
<path d="M767 1104 c-3 -3 -59 -7 -124 -8 -124 -2 -167 -14 -161 -44 2 -11 18
-19 43 -24 43 -7 196 -2 229 8 22 7 56 33 56 43 0 9 -37 30 -43 25z"/>
<path d="M633 683 c-4 -10 -21 -34 -39 -53 -39 -42 -126 -162 -151 -207 -26
-51 -43 -45 -112 47 -14 19 -35 45 -46 56 -11 12 -40 44 -65 71 -65 70 -76 77
-99 61 -18 -13 -17 -15 15 -48 19 -19 34 -40 34 -47 0 -7 4 -13 8 -13 4 0 16
-13 25 -30 10 -16 23 -35 30 -42 7 -7 28 -33 47 -58 19 -25 42 -53 51 -63 10
-11 14 -27 11 -39 -6 -25 21 -48 57 -48 21 0 35 15 76 77 28 42 52 81 54 87 2
6 12 18 21 26 25 23 60 77 60 92 0 15 47 65 53 57 2 -2 18 -32 35 -66 46 -91
53 -103 97 -158 52 -65 74 -85 96 -85 22 0 85 60 94 90 3 11 15 20 26 20 12 0
19 7 19 20 0 11 9 34 20 52 11 18 20 50 20 71 0 30 -4 37 -20 37 -11 0 -20 -5
-20 -10 0 -10 -37 -60 -107 -149 -26 -32 -27 -33 -42 -14 -46 58 -68 89 -89
125 -13 22 -38 59 -55 82 -60 77 -91 94 -104 59z"/>
<path d="M87 482 c-14 -3 -16 -10 -10 -45 5 -39 43 -105 43 -78 0 17 10 6 108
-120 102 -132 119 -147 165 -154 34 -6 40 -3 92 51 31 31 72 77 93 103 85 106
72 103 144 25 211 -230 204 -227 269 -132 23 35 62 86 86 114 34 40 43 59 43
88 0 30 -4 36 -21 36 -11 0 -23 -8 -26 -17 -2 -10 -37 -51 -78 -92 -73 -74
-73 -74 -144 -11 -39 34 -71 66 -71 70 0 17 -144 150 -162 150 -12 0 -16 -31
-8 -60 8 -27 5 -35 -23 -64 -18 -18 -56 -58 -85 -90 -63 -67 -101 -94 -110
-79 -12 19 -135 153 -212 232 -49 51 -81 76 -93 73z"/>
</g>
</svg>
