<svg version="1.0" xmlns="http://www.w3.org/2000/svg"
 width="79.000000pt" height="109.000000pt" viewBox="0 0 79.000000 109.000000"
 preserveAspectRatio="xMidYMid meet">
<metadata>
Created by potrace 1.15, written by Peter Selinger 2001-2017
</metadata>
<g transform="translate(0.000000,109.000000) scale(0.100000,-0.100000)"
fill="#000000" stroke="none">
<path d="M214 847 c-10 -12 -35 -42 -54 -67 -19 -25 -52 -62 -72 -84 -41 -41
-47 -60 -23 -70 24 -9 44 4 75 48 16 22 42 56 59 75 26 30 32 33 46 21 9 -7
23 -27 32 -43 8 -17 24 -39 34 -50 10 -12 19 -26 19 -32 0 -19 40 -55 60 -55
11 0 20 7 20 16 0 21 75 130 96 138 9 4 21 0 28 -8 6 -8 33 -44 60 -80 47 -63
76 -83 76 -51 0 8 4 15 9 15 5 0 11 8 14 18 4 9 13 35 21 57 20 51 20 71 0 79
-23 9 -22 10 -35 -36 -21 -72 -27 -73 -72 -15 -23 29 -49 61 -59 71 -10 11
-18 23 -18 28 0 12 -34 10 -48 -4 -7 -7 -12 -19 -12 -27 0 -9 -18 -36 -39 -61
-44 -50 -59 -49 -89 5 -9 16 -27 41 -40 55 -13 14 -26 37 -29 53 -7 33 -32 35
-59 4z"/>
<path d="M488 618 c-13 -18 -40 -59 -60 -90 -40 -61 -53 -70 -63 -39 -3 10
-17 31 -30 47 -14 16 -25 35 -25 42 0 6 -4 12 -9 12 -5 0 -13 9 -16 20 -11 34
-41 23 -79 -29 -20 -27 -36 -55 -36 -63 0 -8 -9 -23 -19 -35 -18 -19 -51 -76
-51 -88 0 -10 42 -5 54 8 7 6 23 32 37 57 13 25 27 47 30 50 3 3 9 14 13 25 6
18 11 15 50 -27 24 -26 51 -67 60 -92 12 -32 24 -46 42 -50 32 -8 44 -1 44 28
0 36 25 89 60 126 36 38 35 39 94 -60 33 -56 56 -71 75 -48 84 101 112 151 94
169 -9 9 -24 -5 -85 -80 -10 -11 -21 -21 -25 -21 -10 0 -73 96 -73 109 0 24
-25 61 -41 61 -10 0 -28 -15 -41 -32z"/>
<path d="M575 620 c3 -5 8 -10 11 -10 2 0 4 5 4 10 0 6 -5 10 -11 10 -5 0 -7
-4 -4 -10z"/>
<path d="M177 353 c-3 -4 1 -37 9 -73 7 -36 14 -74 14 -85 0 -11 7 -33 15 -49
8 -15 15 -36 15 -46 0 -40 28 -47 194 -53 194 -6 218 -3 234 31 15 32 16 138
1 180 -13 38 -19 40 -143 53 -56 5 -108 12 -116 14 -8 3 -49 9 -90 15 -41 5
-87 13 -102 16 -14 3 -28 2 -31 -3z m301 -97 c62 -7 116 -16 119 -20 4 -3 9
-34 11 -67 5 -62 5 -62 -149 -57 -85 3 -161 8 -170 12 -14 6 -39 90 -39 133 0
17 77 17 228 -1z"/>
<path d="M338 233 c-29 -7 -21 -32 15 -46 17 -8 62 -17 98 -20 58 -5 69 -4 85
14 17 19 17 20 -2 34 -11 8 -41 15 -70 15 -28 0 -64 2 -80 4 -16 2 -37 2 -46
-1z"/>
</g>
</svg>
