<svg version="1.0" xmlns="http://www.w3.org/2000/svg"
 width="95.000000pt" height="155.000000pt" viewBox="0 0 95.000000 155.000000"
 preserveAspectRatio="xMidYMid meet">
<metadata>
Created by potrace 1.15, written by Peter Selinger 2001-2017
</metadata>
<g transform="translate(0.000000,155.000000) scale(0.100000,-0.100000)"
fill="#000000" stroke="none">
<path d="M586 1463 c-3 -3 -6 -42 -6 -86 0 -51 -6 -92 -16 -115 -27 -62 -58
-127 -64 -132 -9 -9 -48 -95 -55 -120 -6 -23 -4 -23 22 8 32 37 43 34 43 -15
0 -29 -3 -33 -28 -33 -31 0 -72 -25 -72 -44 0 -26 38 -49 70 -43 20 5 30 3 30
-6 0 -6 11 -25 24 -41 20 -26 30 -30 72 -30 62 0 93 17 101 55 6 29 17 37 28
19 3 -5 19 -10 35 -10 23 0 31 5 36 25 9 35 -17 58 -56 50 -29 -6 -30 -5 -30
27 1 27 2 30 11 16 8 -14 39 -26 39 -15 0 1 -18 39 -40 85 -22 45 -40 85 -40
89 0 4 -16 44 -35 88 -23 55 -37 105 -41 153 -7 70 -14 89 -28 75z m32 -254
c16 -25 15 -25 -21 -34 -21 -6 -27 -4 -27 9 0 16 19 45 30 46 3 0 11 -9 18
-21z m40 -71 c7 -7 12 -22 12 -34 0 -23 -35 -34 -117 -34 -48 0 -52 9 -22 51
18 25 27 29 68 29 26 0 52 -5 59 -12z m16 -94 c20 -8 24 -108 4 -102 -7 3 -12
15 -13 29 0 13 -4 25 -10 26 -5 1 -9 -9 -8 -23 1 -13 -2 -24 -8 -24 -14 0 -11
88 4 93 6 3 13 6 14 6 1 1 8 -2 17 -5z m-78 -21 c7 -10 14 -30 14 -45 0 -21
-6 -29 -25 -34 -39 -10 -55 2 -55 39 0 53 38 76 66 40z m-101 -93 c0 -19 -35
-26 -46 -9 -4 7 -5 17 -2 22 8 14 48 3 48 -13z m98 -22 c-2 -5 -3 -21 -3 -38
0 -16 -5 -30 -11 -30 -7 0 -9 11 -5 30 6 32 -10 42 -21 13 -6 -15 -7 -14 -13
3 -4 10 -2 22 4 27 14 9 52 5 49 -5z m97 -18 c0 -16 -4 -30 -10 -30 -5 0 -10
6 -10 14 0 21 -21 31 -31 15 -7 -11 -9 -11 -9 2 0 22 9 29 37 29 19 0 23 -5
23 -30z m88 12 c2 -7 -3 -12 -12 -12 -9 0 -16 7 -16 16 0 17 22 14 28 -4z"/>
<path d="M555 987 c-4 -10 -5 -21 -1 -24 10 -10 18 4 13 24 -4 17 -4 17 -12 0z"/>
<path d="M294 1369 c10 -67 19 -307 12 -333 -7 -28 -47 -72 -96 -106 -19 -13
-41 -30 -47 -36 -7 -7 -29 -22 -48 -34 -20 -12 -34 -25 -31 -28 8 -7 55 18 86
46 14 12 28 22 31 22 3 0 22 14 40 30 19 17 46 38 61 47 53 33 58 83 30 297
-12 87 -22 131 -31 134 -10 3 -12 -5 -7 -39z"/>
<path d="M290 873 c0 -7 -4 -13 -9 -13 -4 0 -24 -12 -43 -27 -19 -16 -47 -37
-63 -48 -56 -40 -91 -74 -74 -75 8 0 24 8 35 18 30 27 118 78 147 86 27 6 27
6 27 -148 0 -224 -15 -339 -61 -480 -22 -65 -37 -121 -34 -124 6 -6 55 103 55
122 0 7 8 28 17 46 36 74 53 214 52 440 -1 197 -4 219 -30 217 -10 -1 -19 -7
-19 -14z"/>
<path d="M478 814 c-5 -4 -8 -32 -8 -63 0 -62 16 -95 69 -149 29 -28 39 -32
88 -32 61 0 82 15 107 75 18 42 29 145 16 145 -6 0 -13 -13 -16 -30 -7 -33
-14 -36 -32 -18 -11 11 -133 16 -176 7 -14 -3 -21 5 -30 34 -6 22 -14 35 -18
31z m224 -101 c44 -13 -28 -112 -82 -113 -35 0 -64 23 -85 66 -21 44 -12 55
47 64 38 5 55 3 120 -17z"/>
<path d="M570 680 c0 -5 18 -10 40 -10 22 0 40 5 40 10 0 6 -18 10 -40 10 -22
0 -40 -4 -40 -10z"/>
<path d="M490 544 c0 -39 71 -239 90 -254 4 -3 21 -32 38 -65 18 -33 46 -76
63 -95 48 -55 54 -70 28 -70 -31 0 -123 47 -155 78 -53 53 -120 176 -139 255
-4 15 -12 27 -17 27 -6 0 -7 -7 -4 -16 3 -9 9 -28 12 -42 6 -30 12 -45 44
-118 33 -76 141 -177 213 -200 54 -17 61 -17 143 -1 47 9 95 24 107 33 22 16
22 16 -3 10 -14 -4 -49 -11 -78 -15 -52 -8 -55 -7 -85 24 -95 94 -194 295
-147 295 8 0 70 133 70 150 0 6 -4 10 -8 10 -9 0 -52 -84 -52 -103 0 -6 -9
-23 -20 -37 -24 -31 -30 -24 -61 70 -23 70 -39 96 -39 64z"/>
</g>
</svg>
