<svg version="1.0" xmlns="http://www.w3.org/2000/svg"
 width="68.000000pt" height="85.000000pt" viewBox="0 0 68.000000 85.000000"
 preserveAspectRatio="xMidYMid meet">
<metadata>
Created by potrace 1.15, written by Peter Selinger 2001-2017
</metadata>
<g transform="translate(0.000000,85.000000) scale(0.100000,-0.100000)"
fill="#000000" stroke="none">
<path d="M175 670 c-11 -5 -35 -9 -52 -9 -26 -1 -34 -6 -37 -23 -3 -13 -7
-155 -11 -315 -5 -257 -4 -293 9 -293 30 0 36 38 36 229 0 191 0 191 60 191
88 0 100 16 100 125 0 73 -3 86 -19 95 -23 12 -58 12 -86 0z m60 -60 c10 -32
-3 -40 -61 -40 -53 0 -54 0 -54 30 0 30 1 30 54 30 46 0 56 -3 61 -20z m5 -82
c-1 -30 -17 -39 -66 -36 -42 3 -49 6 -52 26 -3 21 0 22 57 22 42 0 61 -4 61
-12z"/>
<path d="M390 673 c-41 -15 -50 -35 -50 -112 0 -112 9 -121 116 -121 85 0 85
0 83 -205 -1 -113 0 -208 4 -211 9 -10 37 4 43 21 4 9 3 145 -1 302 -7 282 -8
287 -31 310 -19 19 -33 23 -86 22 -35 0 -70 -3 -78 -6z m135 -68 c0 -18 -8
-20 -72 -23 -56 -2 -73 0 -73 11 0 28 25 38 85 35 52 -3 60 -6 60 -23z m-1
-68 c13 -10 16 -20 11 -36 -6 -20 -12 -22 -78 -19 -60 3 -72 6 -75 21 -7 38 5
47 66 47 33 0 66 -6 76 -13z"/>
<path d="M205 402 c-62 -15 -27 -27 92 -33 68 -3 125 -8 128 -11 3 -3 3 -12 0
-20 -4 -11 -24 -13 -100 -10 -108 5 -165 -3 -165 -22 0 -11 28 -15 119 -17 66
-2 123 -7 126 -11 4 -4 5 -14 2 -23 -5 -12 -26 -15 -116 -15 -60 0 -112 -4
-115 -9 -12 -19 23 -27 124 -30 113 -2 133 5 142 54 3 16 10 19 36 17 27 -3
32 0 32 18 0 19 -5 22 -29 18 -28 -4 -28 -3 -24 32 4 25 0 40 -11 49 -17 15
-193 24 -241 13z"/>
<path d="M197 173 c-4 -3 -7 -30 -7 -58 0 -78 23 -95 129 -95 45 0 91 5 103
11 23 12 48 66 48 103 0 32 -33 52 -50 31 -18 -21 -177 -21 -200 0 -9 8 -20
12 -23 8z m223 -67 c0 -31 -15 -36 -101 -36 -68 0 -89 3 -89 13 0 8 3 17 7 20
7 7 183 10 183 3z"/>
</g>
</svg>
