<svg version="1.0" xmlns="http://www.w3.org/2000/svg"
 width="49.000000pt" height="83.000000pt" viewBox="0 0 49.000000 83.000000"
 preserveAspectRatio="xMidYMid meet">
<metadata>
Created by potrace 1.15, written by Peter Selinger 2001-2017
</metadata>
<g transform="translate(0.000000,83.000000) scale(0.100000,-0.100000)"
fill="#000000" stroke="none">
<path d="M172 623 c-78 -82 -97 -113 -70 -113 6 0 22 10 35 21 22 21 23 21 29
3 3 -10 11 -32 17 -49 6 -16 10 -73 9 -130 -3 -93 0 -116 34 -235 9 -32 34
-70 45 -70 5 0 6 14 2 30 -7 35 3 38 28 9 11 -12 25 -19 34 -15 24 9 18 23
-22 53 -51 38 -62 53 -63 86 0 35 7 34 50 -6 90 -86 124 -71 40 16 -27 28 -50
55 -50 59 0 14 26 8 46 -11 11 -10 30 -22 41 -25 40 -13 33 13 -17 62 -27 27
-50 53 -50 58 0 4 -10 18 -22 31 -20 21 -20 26 -8 65 7 24 17 47 22 53 14 16
9 75 -12 117 -11 23 -20 50 -20 60 0 10 -4 18 -8 18 -5 0 -45 -39 -90 -87z
m83 -13 c7 -23 -12 -100 -25 -100 -5 0 -16 16 -25 34 -16 33 -16 36 2 60 22
31 39 33 48 6z"/>
</g>
</svg>
