<svg version="1.0" xmlns="http://www.w3.org/2000/svg"
 width="61.000000pt" height="123.000000pt" viewBox="0 0 61.000000 123.000000"
 preserveAspectRatio="xMidYMid meet">
<metadata>
Created by potrace 1.15, written by Peter Selinger 2001-2017
</metadata>
<g transform="translate(0.000000,123.000000) scale(0.100000,-0.100000)"
fill="#000000" stroke="none">
<path d="M373 958 c-21 -18 -40 -35 -43 -38 -3 -3 -21 -17 -40 -30 -19 -13
-37 -27 -40 -30 -9 -12 -159 -110 -168 -110 -5 0 -15 -11 -22 -25 -12 -22 -12
-28 3 -42 10 -11 17 -13 17 -5 0 6 13 18 28 26 29 15 146 100 171 124 19 18
27 4 35 -70 7 -53 6 -57 -19 -75 -95 -66 -136 -122 -154 -213 -11 -55 -20
-380 -11 -380 3 0 13 12 23 25 15 22 18 47 19 173 0 161 9 212 37 212 30 0 59
-115 63 -244 3 -129 17 -162 43 -101 28 67 12 254 -28 335 -32 63 -18 117 39
146 46 24 50 7 49 -234 -1 -231 0 -252 20 -252 14 0 22 39 37 185 17 160 15
255 -5 294 -22 43 -22 58 1 65 24 8 39 70 30 131 -3 28 -7 71 -7 97 -1 36 -6
50 -21 58 -16 8 -26 4 -57 -22z m32 -128 c0 -100 -38 -109 -54 -12 -7 44 -5
53 13 71 29 29 40 12 41 -59z"/>
</g>
</svg>
