<svg version="1.0" xmlns="http://www.w3.org/2000/svg"
 width="97.000000pt" height="143.000000pt" viewBox="0 0 97.000000 143.000000"
 preserveAspectRatio="xMidYMid meet">
<metadata>
Created by potrace 1.15, written by Peter Selinger 2001-2017
</metadata>
<g transform="translate(0.000000,143.000000) scale(0.100000,-0.100000)"
fill="#000000" stroke="none">
<path d="M70 1335 c-14 -17 3 -26 78 -45 40 -10 55 -31 32 -45 -19 -12 -11
-122 12 -170 12 -25 25 -45 28 -45 3 0 15 -6 25 -14 18 -13 17 -15 -11 -60
-16 -25 -32 -46 -35 -46 -3 0 -12 -19 -19 -42 -7 -24 -16 -56 -21 -72 -12 -39
-11 -103 1 -111 6 -3 10 -19 10 -34 0 -43 54 -94 115 -109 28 -7 55 -18 60
-23 14 -14 8 -163 -9 -213 -17 -49 -72 -158 -103 -205 -13 -19 -23 -38 -23
-42 0 -17 29 -9 40 10 5 11 16 25 23 33 7 7 24 29 37 48 45 65 41 65 128 20
44 -22 86 -40 94 -40 8 0 19 -5 26 -12 9 -9 12 -7 12 9 0 14 -10 26 -30 35
-17 7 -30 16 -30 20 0 5 -5 8 -10 8 -6 0 -35 16 -64 36 -52 34 -54 37 -45 67
5 18 9 33 9 34 0 9 42 1 70 -13 32 -16 78 -30 133 -41 19 -4 27 -1 27 9 0 16
-94 68 -123 68 -9 0 -17 3 -17 8 0 4 -14 15 -30 24 -28 16 -30 20 -30 81 0 64
0 64 153 69 164 6 226 23 227 61 0 17 -7 18 -72 13 -40 -3 -122 -8 -181 -12
-108 -7 -108 -7 -106 54 1 34 5 62 8 62 3 1 67 2 141 4 208 5 310 20 310 47 0
17 -57 25 -124 16 -57 -7 -249 -4 -303 4 -16 3 -16 40 0 103 13 49 13 49 142
47 72 -1 160 -4 197 -6 59 -2 71 0 95 21 17 15 24 27 18 32 -6 5 -113 15 -240
21 -190 10 -269 20 -293 36 -1 1 13 25 31 52 34 50 51 119 41 159 -8 32 -90
75 -179 94 -69 15 -211 12 -225 -5z m260 -78 c54 -19 60 -25 60 -65 0 -43 -38
-115 -63 -120 -9 -2 -30 6 -47 18 -27 19 -30 27 -30 75 0 57 16 105 34 105 6
0 27 -6 46 -13z m82 -305 c10 -10 0 -132 -12 -152 -6 -10 -25 -10 -89 0 -45 8
-81 15 -81 16 0 13 30 68 59 107 34 46 38 49 75 44 21 -3 43 -10 48 -15z m-85
-220 c71 -4 77 -13 61 -87 -10 -47 -10 -47 -47 -40 -84 15 -111 42 -111 112 0
30 3 34 18 27 9 -4 45 -10 79 -12z"/>
</g>
</svg>
