<svg version="1.0" xmlns="http://www.w3.org/2000/svg"
 width="59.000000pt" height="79.000000pt" viewBox="0 0 59.000000 79.000000"
 preserveAspectRatio="xMidYMid meet">
<metadata>
Created by potrace 1.15, written by Peter Selinger 2001-2017
</metadata>
<g transform="translate(0.000000,79.000000) scale(0.100000,-0.100000)"
fill="#000000" stroke="none">
<path d="M280 610 c0 -37 -2 -40 -29 -40 -58 0 -62 -7 -35 -55 13 -24 24 -48
24 -54 0 -5 -18 -28 -39 -50 -22 -23 -43 -51 -46 -64 -9 -32 -28 -70 -42 -85
-7 -7 -13 -18 -13 -23 0 -12 27 -12 35 1 13 21 25 8 25 -27 0 -47 9 -83 21
-83 5 0 9 15 9 33 0 58 9 74 36 69 31 -6 31 12 -2 51 -25 30 -27 62 -4 90 5 7
21 27 36 45 37 46 59 43 48 -5 -10 -45 -12 -239 -2 -248 19 -19 28 14 28 103
1 152 35 196 65 83 15 -58 7 -99 -27 -135 -30 -33 -16 -53 16 -21 22 22 26 19
26 -19 0 -44 9 -66 26 -66 10 0 14 14 14 51 0 46 2 50 20 44 26 -8 26 12 1 39
-10 12 -24 50 -31 86 -14 75 -37 112 -80 130 -38 16 -38 30 0 70 40 43 39 60
-5 60 -28 0 -36 4 -41 24 -3 14 -12 27 -20 30 -11 4 -14 -4 -14 -34z m10 -90
c0 -5 -4 -10 -9 -10 -6 0 -13 5 -16 10 -3 6 1 10 9 10 9 0 16 -4 16 -10z"/>
</g>
</svg>
