<svg version="1.0" xmlns="http://www.w3.org/2000/svg"
 width="47.000000pt" height="105.000000pt" viewBox="0 0 47.000000 105.000000"
 preserveAspectRatio="xMidYMid meet">
<metadata>
Created by potrace 1.15, written by Peter Selinger 2001-2017
</metadata>
<g transform="translate(0.000000,105.000000) scale(0.100000,-0.100000)"
fill="#000000" stroke="none">
<path d="M182 728 c-7 -35 -11 -87 -10 -116 2 -31 -2 -56 -8 -60 -21 -13 -47
-77 -66 -161 -20 -95 -22 -121 -9 -121 9 0 61 153 61 179 0 20 41 89 56 95 16
6 44 -31 44 -57 0 -10 -14 -38 -30 -62 -34 -50 -64 -115 -75 -163 -5 -25 -3
-32 9 -32 9 0 16 7 16 16 0 21 56 131 76 152 35 34 51 -45 22 -108 -35 -76
-31 -132 5 -80 14 21 15 21 21 -4 3 -14 9 -53 13 -86 3 -33 10 -60 16 -60 6 0
8 67 4 183 -5 191 -16 247 -60 311 -15 21 -18 33 -10 44 14 23 29 25 46 7 32
-32 39 -1 7 33 -11 12 -20 27 -20 34 0 7 -10 18 -22 23 -14 6 -28 26 -36 53
-19 60 -36 53 -50 -20z m57 -57 c12 -8 12 -12 2 -25 -19 -23 -31 -20 -31 9 0
27 6 30 29 16z"/>
</g>
</svg>
