<svg version="1.0" xmlns="http://www.w3.org/2000/svg"
 width="77.000000pt" height="117.000000pt" viewBox="0 0 77.000000 117.000000"
 preserveAspectRatio="xMidYMid meet">
<metadata>
Created by potrace 1.15, written by Peter Selinger 2001-2017
</metadata>
<g transform="translate(0.000000,117.000000) scale(0.100000,-0.100000)"
fill="#000000" stroke="none">
<path d="M611 1144 c-18 -8 -39 -14 -46 -14 -7 0 -42 -17 -76 -39 -35 -21 -81
-44 -101 -52 -21 -7 -38 -16 -38 -20 0 -4 -8 -10 -17 -14 -32 -10 -146 -122
-133 -130 10 -6 94 28 110 45 12 12 51 30 65 30 8 0 15 5 15 10 0 19 28 10 44
-15 22 -34 21 -38 -21 -60 -75 -41 -116 -93 -151 -195 -18 -52 -32 -102 -32
-111 0 -9 -41 -98 -90 -197 -50 -99 -90 -185 -90 -191 0 -21 22 -11 56 25 50
51 63 41 52 -36 -11 -70 -4 -130 15 -130 9 0 16 39 25 127 11 115 38 239 63
285 5 10 9 34 9 53 0 26 4 35 16 35 35 0 108 -112 126 -195 20 -87 30 -142 36
-199 4 -33 12 -61 19 -63 14 -5 9 226 -8 307 -15 76 -24 91 -92 160 -58 60
-59 62 -53 103 12 73 32 102 89 126 29 12 60 27 69 32 38 20 54 12 94 -46 33
-46 36 -73 61 -477 8 -121 14 -150 30 -134 4 4 6 113 6 244 -2 286 -19 384
-75 433 -25 22 -23 34 10 55 61 40 72 64 72 162 0 94 -9 107 -59 86z m1 -86
c10 -28 -6 -58 -43 -82 -45 -30 -56 -32 -81 -9 -29 26 -22 37 45 70 71 37 74
37 79 21z"/>
</g>
</svg>
