<svg version="1.0" xmlns="http://www.w3.org/2000/svg"
 width="63.000000pt" height="95.000000pt" viewBox="0 0 63.000000 95.000000"
 preserveAspectRatio="xMidYMid meet">
<metadata>
Created by potrace 1.15, written by Peter Selinger 2001-2017
</metadata>
<g transform="translate(0.000000,95.000000) scale(0.100000,-0.100000)"
fill="#000000" stroke="none">
<path d="M285 793 c-77 -4 -90 -11 -80 -42 6 -19 14 -21 77 -21 60 0 72 -3 88
-22 24 -30 11 -38 -63 -38 -86 0 -145 -18 -165 -49 -9 -14 -19 -28 -23 -31
-11 -10 -28 -95 -34 -175 -4 -44 -9 -105 -11 -135 -5 -57 -21 -170 -30 -205
-4 -16 -1 -15 18 8 28 32 42 34 70 7 22 -21 48 -27 48 -11 0 10 -39 62 -58 77
-11 8 -12 18 -2 52 11 43 11 43 41 17 62 -51 66 -19 9 65 -40 58 -40 58 -26
122 10 47 15 58 21 43 4 -11 12 -33 18 -50 6 -16 23 -57 39 -89 15 -33 28 -65
28 -73 0 -7 5 -13 10 -13 6 0 10 -6 10 -14 0 -8 9 -24 20 -37 19 -24 19 -24
20 15 0 22 -5 56 -11 75 -22 69 -52 146 -61 156 -15 17 -8 23 37 27 45 3 55
-4 55 -37 0 -20 62 -155 71 -155 8 0 6 25 -12 139 -6 35 -8 65 -6 67 2 3 18 9
35 13 28 9 31 7 53 -36 12 -24 26 -46 30 -49 5 -2 13 13 18 34 9 32 7 51 -14
117 -14 43 -24 79 -23 79 2 1 20 9 41 19 43 19 61 56 52 103 -9 51 -55 58
-290 47z m220 -55 c30 -13 32 -24 6 -38 -30 -16 -55 -12 -69 10 -23 38 10 52
63 28z m-89 -144 c8 -20 14 -37 12 -39 -2 -1 -13 -7 -25 -14 -38 -20 -51 -14
-58 29 -8 48 -2 60 31 60 19 0 28 -8 40 -36z m-138 -1 c5 -10 12 -33 15 -50 6
-31 5 -33 -22 -33 -16 0 -36 -2 -43 -5 -9 -4 -18 6 -26 28 -16 46 -15 52 11
65 33 16 55 14 65 -5z"/>
</g>
</svg>
