<svg version="1.0" xmlns="http://www.w3.org/2000/svg"
 width="59.000000pt" height="109.000000pt" viewBox="0 0 59.000000 109.000000"
 preserveAspectRatio="xMidYMid meet">
<metadata>
Created by potrace 1.15, written by Peter Selinger 2001-2017
</metadata>
<g transform="translate(0.000000,109.000000) scale(0.100000,-0.100000)"
fill="#000000" stroke="none">
<path d="M400 881 c-25 -9 -46 -19 -48 -23 -2 -5 -10 -8 -18 -8 -8 0 -41 -13
-74 -30 -33 -16 -69 -30 -80 -30 -22 0 -50 -21 -50 -38 0 -23 36 -20 91 8 74
37 96 38 109 4 6 -14 10 -29 10 -34 0 -10 -92 -60 -110 -60 -13 0 -48 -34 -76
-75 -20 -29 -37 -153 -62 -454 -4 -56 11 -66 21 -14 11 60 41 163 46 163 4 0
19 -35 35 -77 67 -180 54 -77 -20 155 -18 57 -18 142 1 190 15 35 69 81 82 68
11 -10 24 -104 34 -241 14 -191 19 -238 30 -249 5 -6 9 58 9 160 0 158 -4 192
-36 329 -4 15 2 23 22 33 43 19 49 15 62 -35 21 -86 52 -276 52 -322 1 -59 23
-207 33 -217 22 -23 -4 383 -35 525 -13 59 -16 96 -10 100 17 11 34 84 30 137
-3 51 -3 51 -48 35z m11 -83 c-7 -52 -29 -57 -48 -11 -12 31 -11 33 15 46 15
7 30 12 33 11 3 -2 3 -22 0 -46z"/>
</g>
</svg>
