<svg version="1.0" xmlns="http://www.w3.org/2000/svg"
 width="103.000000pt" height="135.000000pt" viewBox="0 0 103.000000 135.000000"
 preserveAspectRatio="xMidYMid meet">
<metadata>
Created by potrace 1.15, written by Peter Selinger 2001-2017
</metadata>
<g transform="translate(0.000000,135.000000) scale(0.100000,-0.100000)"
fill="#000000" stroke="none">
<path d="M245 1272 c-27 -1 -60 -5 -73 -7 -32 -8 -81 -62 -91 -104 -29 -111
-37 -171 -33 -242 2 -22 8 -28 40 -35 38 -8 72 -8 131 2 34 5 34 5 27 -63 -11
-122 -14 -455 -4 -593 11 -164 14 -180 33 -180 13 0 14 37 9 269 -5 253 -4
270 13 279 19 10 169 20 176 12 2 -3 7 -92 10 -199 3 -106 10 -198 15 -203 15
-15 45 21 36 46 -11 34 -21 360 -10 367 5 4 46 7 92 8 79 1 84 0 88 -21 10
-48 17 -138 22 -288 2 -85 8 -171 11 -190 6 -35 6 -35 14 5 10 52 12 319 3
418 -7 77 -7 77 59 77 36 0 72 2 80 6 17 6 30 -70 47 -276 14 -172 30 -258 42
-236 9 16 7 101 -5 236 -3 36 -9 112 -12 170 -4 58 -13 137 -21 175 -8 39 -14
93 -14 122 0 28 -4 55 -10 58 -5 3 -10 14 -10 24 0 19 -31 51 -68 71 -16 7
-68 11 -155 9 -73 -1 -151 -1 -174 -1 -24 0 -43 -3 -43 -8 0 -13 -84 -32 -130
-28 -45 3 -45 3 -48 98 -2 52 1 113 5 135 9 39 10 40 58 45 42 4 50 8 50 25 0
17 -7 20 -55 20 -30 0 -77 -1 -105 -3z m7 -191 c-3 -139 -3 -139 -80 -143 -42
-2 -81 -1 -85 3 -12 10 15 173 36 219 18 37 54 57 107 59 25 1 25 1 22 -138z
m404 -139 c6 -4 14 -37 18 -74 3 -38 9 -97 12 -133 7 -65 7 -65 -42 -66 -27 0
-68 -2 -91 -5 -47 -4 -43 -23 -47 228 -1 32 1 33 47 40 27 4 52 9 55 12 8 8
35 7 48 -2z m167 -15 c24 -10 41 -26 48 -44 10 -27 33 -193 27 -198 -2 -1 -35
-5 -73 -9 -71 -7 -71 -7 -83 71 -7 43 -17 97 -22 121 -18 77 -15 85 28 80 20
-3 54 -13 75 -21z m-363 -65 c0 -27 3 -84 7 -126 6 -77 6 -77 -83 -70 -49 3
-92 8 -95 10 -4 2 -6 30 -4 61 2 32 4 79 4 105 1 47 1 47 44 56 23 6 61 10 85
11 42 1 42 1 42 -47z"/>
<path d="M570 170 c0 -11 5 -20 10 -20 6 0 10 9 10 20 0 11 -4 20 -10 20 -5 0
-10 -9 -10 -20z"/>
</g>
</svg>
