<svg version="1.0" xmlns="http://www.w3.org/2000/svg"
 width="81.000000pt" height="195.000000pt" viewBox="0 0 81.000000 195.000000"
 preserveAspectRatio="xMidYMid meet">
<metadata>
Created by potrace 1.15, written by Peter Selinger 2001-2017
</metadata>
<g transform="translate(0.000000,195.000000) scale(0.100000,-0.100000)"
fill="#000000" stroke="none">
<path d="M92 1823 c2 -9 36 -39 76 -65 79 -54 105 -85 100 -120 -2 -18 -15
-27 -61 -42 -32 -10 -56 -24 -54 -30 2 -6 27 -12 55 -14 52 -3 52 -3 27 -49
-14 -25 -33 -52 -41 -60 -77 -77 -57 -306 38 -445 10 -14 18 -33 18 -42 0 -9
9 -35 19 -59 24 -53 30 -76 42 -162 5 -38 14 -101 20 -140 5 -38 14 -167 18
-285 9 -211 18 -282 35 -281 8 1 9 478 1 491 -3 4 -11 69 -20 143 -19 173 -40
254 -103 389 -13 27 -27 59 -32 73 -9 24 -8 25 12 14 12 -6 31 -20 42 -30 11
-11 26 -19 33 -19 7 0 13 -4 13 -9 0 -5 14 -14 30 -21 17 -7 30 -16 30 -20 0
-5 21 -16 48 -26 26 -10 49 -21 52 -25 10 -13 76 -38 118 -44 47 -8 60 12 19
31 -49 23 -174 88 -204 106 -31 19 -32 21 -19 46 36 68 30 68 150 7 59 -31
111 -53 114 -50 10 10 -12 38 -49 62 -19 13 -39 27 -45 31 -5 5 -21 15 -34 22
-43 23 -62 47 -55 69 3 12 12 21 18 21 15 0 101 -43 105 -52 2 -5 14 -8 27 -8
13 0 27 -4 30 -10 6 -10 45 -14 45 -5 0 13 -48 52 -90 75 -25 14 -55 35 -68
46 -23 21 -23 22 -8 53 18 33 36 39 58 19 15 -14 47 -34 90 -55 15 -8 30 -18
33 -24 4 -5 13 -9 21 -9 25 0 15 28 -18 51 -18 13 -34 27 -36 31 -2 4 -8 8
-14 8 -11 0 -161 101 -166 113 -2 4 -10 7 -17 7 -8 0 -49 37 -92 82 -138 144
-148 152 -224 191 -85 42 -92 44 -87 20z m260 -240 c5 -13 114 -93 125 -93 15
0 22 -22 16 -53 -8 -40 -20 -42 -57 -10 -53 45 -73 61 -99 77 -22 15 -23 19
-13 51 10 34 21 44 28 28z m-40 -121 c2 -4 28 -28 58 -52 87 -72 83 -66 68
-100 -15 -36 -18 -36 -49 -9 -73 63 -119 112 -119 128 0 27 33 53 42 33z m-22
-162 c14 -14 42 -36 62 -50 21 -14 38 -29 37 -35 -1 -18 -35 -70 -46 -70 -6 0
-32 18 -58 40 -26 22 -54 44 -61 48 -17 10 -17 29 -3 80 11 42 15 42 69 -13z"/>
<path d="M15 500 c-3 -5 -1 -10 4 -10 6 0 11 5 11 10 0 6 -2 10 -4 10 -3 0 -8
-4 -11 -10z"/>
<path d="M570 280 c0 -5 5 -10 10 -10 6 0 10 5 10 10 0 6 -4 10 -10 10 -5 0
-10 -4 -10 -10z"/>
</g>
</svg>
