<svg version="1.0" xmlns="http://www.w3.org/2000/svg"
 width="47.000000pt" height="89.000000pt" viewBox="0 0 47.000000 89.000000"
 preserveAspectRatio="xMidYMid meet">
<metadata>
Created by potrace 1.15, written by Peter Selinger 2001-2017
</metadata>
<g transform="translate(0.000000,89.000000) scale(0.100000,-0.100000)"
fill="#000000" stroke="none">
<path d="M293 753 c-7 -19 -37 -65 -64 -98 -27 -33 -32 -75 -13 -96 19 -21 21
-129 4 -189 -12 -42 -13 -137 -2 -144 11 -6 24 4 40 31 27 49 44 287 21 295
-6 2 -13 24 -16 49 -4 36 -2 47 11 52 11 4 16 1 16 -12 0 -10 14 -32 30 -49
17 -18 31 -44 31 -59 2 -24 2 -25 6 -5 2 12 9 22 14 22 18 0 8 35 -21 79 -27
39 -30 50 -24 93 6 41 4 48 -10 48 -9 0 -20 -8 -23 -17z"/>
<path d="M81 341 c-6 -11 -11 -78 -11 -154 0 -148 6 -164 57 -154 16 4 48 10
73 15 131 27 181 45 215 79 34 34 35 38 35 108 0 58 -3 74 -16 79 -21 8 -19
12 -34 -61 -13 -63 -13 -63 -59 -64 -25 0 -59 -2 -76 -4 -168 -21 -159 -25
-152 68 5 66 3 88 -8 97 -11 9 -16 7 -24 -9z m299 -199 c0 -4 -37 -16 -82 -27
-130 -29 -167 -33 -178 -20 -17 21 10 32 94 38 43 4 81 9 84 12 8 8 82 6 82
-3z"/>
</g>
</svg>
