<svg version="1.0" xmlns="http://www.w3.org/2000/svg"
 width="49.000000pt" height="93.000000pt" viewBox="0 0 49.000000 93.000000"
 preserveAspectRatio="xMidYMid meet">
<metadata>
Created by potrace 1.15, written by Peter Selinger 2001-2017
</metadata>
<g transform="translate(0.000000,93.000000) scale(0.100000,-0.100000)"
fill="#000000" stroke="none">
<path d="M147 702 c-3 -16 -12 -36 -19 -43 -8 -8 -25 -30 -38 -49 -13 -19 -32
-44 -42 -54 -12 -13 -15 -23 -8 -30 17 -17 56 10 91 63 18 29 37 50 43 48 6
-2 14 -23 19 -48 11 -58 24 -149 22 -149 -1 0 -15 11 -31 25 -27 23 -54 33
-54 19 0 -8 22 -48 29 -54 22 -17 51 -73 51 -98 0 -17 4 -33 9 -36 4 -3 10
-51 13 -106 3 -55 8 -103 12 -107 17 -17 26 30 26 135 0 61 4 112 8 112 10 0
72 123 72 144 0 31 -30 15 -57 -31 -27 -46 -27 -46 -36 -19 -6 19 -6 36 2 52
17 38 29 66 43 107 16 49 35 66 44 41 17 -49 48 -114 56 -114 11 0 10 57 0 64
-8 5 -28 80 -35 131 -1 13 -10 20 -25 20 -19 0 -27 -9 -41 -50 -25 -69 -50
-117 -60 -111 -5 3 -11 22 -15 43 -18 114 -20 118 -47 121 -22 3 -27 -2 -32
-26z"/>
</g>
</svg>
