<svg version="1.0" xmlns="http://www.w3.org/2000/svg"
 width="81.000000pt" height="89.000000pt" viewBox="0 0 81.000000 89.000000"
 preserveAspectRatio="xMidYMid meet">
<metadata>
Created by potrace 1.15, written by Peter Selinger 2001-2017
</metadata>
<g transform="translate(0.000000,89.000000) scale(0.100000,-0.100000)"
fill="#000000" stroke="none">
<path d="M675 837 c-11 -7 -23 -17 -28 -24 -8 -12 -14 -16 -145 -83 -77 -39
-85 -41 -115 -30 -17 7 -49 26 -69 41 -20 16 -48 34 -62 40 -14 7 -26 15 -26
19 0 7 -61 40 -74 40 -10 0 -7 -38 4 -45 19 -12 10 -30 -40 -82 -46 -49 -65
-93 -39 -93 6 0 37 27 70 60 66 66 75 67 143 15 18 -14 37 -25 43 -25 5 0 18
-9 30 -19 17 -16 20 -30 18 -107 -3 -101 14 -94 -167 -78 -49 4 -88 4 -88 0 0
-4 12 -19 26 -33 24 -24 34 -26 119 -28 51 -1 98 -5 104 -9 6 -4 11 -34 11
-70 0 -60 -1 -64 -25 -68 -14 -3 -44 -2 -68 3 -23 4 -63 8 -89 9 -78 0 -97
-16 -58 -50 16 -14 35 -16 118 -12 116 5 123 1 113 -75 -5 -35 -3 -56 5 -68
20 -27 31 -10 39 60 3 36 10 67 15 70 4 2 48 5 97 6 102 1 124 9 104 33 -11
13 -35 16 -112 16 -99 0 -99 0 -99 69 0 39 4 72 8 75 5 3 44 8 88 12 159 14
170 42 17 46 -108 3 -108 3 -109 57 -2 84 27 161 62 161 7 0 14 4 16 8 4 10
94 62 107 62 6 0 37 -27 70 -60 58 -58 91 -75 91 -47 0 8 -11 24 -25 37 -14
13 -25 28 -25 34 0 6 -9 22 -20 36 -25 32 -25 43 3 55 28 13 30 49 2 52 -11 1
-29 -3 -40 -10z"/>
</g>
</svg>
