<svg version="1.0" xmlns="http://www.w3.org/2000/svg"
 width="135.000000pt" height="103.000000pt" viewBox="0 0 135.000000 103.000000"
 preserveAspectRatio="xMidYMid meet">
<metadata>
Created by potrace 1.15, written by Peter Selinger 2001-2017
</metadata>
<g transform="translate(0.000000,103.000000) scale(0.100000,-0.100000)"
fill="#000000" stroke="none">
<path d="M1077 954 c-3 -3 -30 -6 -59 -5 -56 0 -103 -11 -153 -37 -38 -20
-111 -96 -127 -133 -7 -16 -16 -29 -20 -29 -3 0 -9 -13 -13 -30 -10 -44 -24
-46 -41 -5 -43 104 -116 160 -242 185 -31 6 -75 16 -97 21 -52 12 -239 19
-255 9 -18 -11 -24 -115 -10 -180 30 -140 57 -219 83 -243 38 -36 78 -56 118
-58 59 -5 64 19 12 58 -46 34 -54 46 -70 103 -14 51 -1 131 25 153 20 16 128
15 178 -2 22 -7 47 -23 54 -35 30 -47 70 -129 70 -142 0 -8 4 -14 8 -14 4 0
14 -21 21 -47 8 -27 16 -54 19 -60 2 -8 -4 -13 -15 -13 -11 0 -43 -11 -71 -25
-29 -14 -59 -25 -67 -25 -21 0 -19 -19 2 -27 20 -8 86 -73 124 -124 15 -19 47
-56 72 -84 26 -27 54 -65 64 -82 18 -34 34 -45 49 -35 8 6 64 87 99 143 65
103 90 131 163 178 29 18 52 38 52 45 0 23 -42 36 -130 43 -90 6 -90 6 -90 39
0 18 5 36 10 39 6 3 10 25 10 48 1 23 9 56 18 73 19 34 67 94 77 94 3 0 23 11
46 25 22 14 44 23 49 20 4 -3 10 -1 12 4 4 14 109 21 132 9 17 -9 18 -18 12
-85 -6 -69 -37 -159 -58 -174 -14 -10 14 -59 33 -59 57 0 128 64 146 131 7 26
11 93 9 162 -2 117 -2 118 -31 141 -18 15 -49 26 -80 30 -64 8 -130 8 -138 0z"/>
</g>
</svg>
