<svg version="1.0" xmlns="http://www.w3.org/2000/svg"
 width="99.000000pt" height="151.000000pt" viewBox="0 0 99.000000 151.000000"
 preserveAspectRatio="xMidYMid meet">
<metadata>
Created by potrace 1.15, written by Peter Selinger 2001-2017
</metadata>
<g transform="translate(0.000000,151.000000) scale(0.100000,-0.100000)"
fill="#000000" stroke="none">
<path d="M227 1425 c-76 -26 -138 -65 -161 -100 -44 -67 -22 -169 40 -181 46
-8 62 -1 122 56 49 47 56 50 104 50 32 0 68 -8 95 -21 43 -21 43 -21 45 -92 2
-127 0 -308 -4 -313 -3 -2 -27 -7 -54 -10 -67 -8 -116 -31 -112 -52 4 -23 53
-45 113 -52 50 -5 50 -5 50 -115 0 -110 0 -110 -70 -147 -38 -20 -78 -37 -87
-37 -17 -1 -27 -41 -10 -41 4 0 12 -10 18 -23 6 -12 25 -51 43 -87 18 -36 47
-94 65 -130 48 -99 61 -103 106 -28 18 29 46 67 64 84 17 17 55 58 84 92 57
66 62 92 17 92 -14 0 -25 4 -25 8 0 5 -26 24 -59 43 -59 34 -59 34 -60 114 -1
116 6 134 59 152 47 16 89 56 90 85 0 27 -48 58 -92 58 -40 0 -40 0 -33 128 4
74 13 139 21 156 8 16 14 35 14 42 0 7 3 14 7 16 5 2 25 24 46 51 21 26 45 47
53 47 8 0 14 5 14 10 0 17 56 11 73 -8 24 -26 21 -41 -8 -52 -17 -6 -25 -17
-25 -32 1 -27 22 -58 40 -58 22 0 80 23 80 32 0 4 7 8 16 8 42 0 71 70 65 157
-1 28 -53 79 -88 87 -84 20 -95 19 -233 -20 -14 -4 -40 -18 -59 -30 -33 -22
-35 -23 -64 -6 -16 9 -42 28 -57 42 -17 16 -50 30 -87 38 -75 15 -75 15 -156
-13z"/>
</g>
</svg>
