<svg version="1.0" xmlns="http://www.w3.org/2000/svg"
 width="53.000000pt" height="77.000000pt" viewBox="0 0 53.000000 77.000000"
 preserveAspectRatio="xMidYMid meet">
<metadata>
Created by potrace 1.15, written by Peter Selinger 2001-2017
</metadata>
<g transform="translate(0.000000,77.000000) scale(0.100000,-0.100000)"
fill="#000000" stroke="none">
<path d="M139 678 c-1 -1 -3 -33 -4 -69 -2 -37 -7 -75 -13 -85 -5 -11 -12 -38
-16 -61 -9 -58 9 -56 36 4 21 47 21 47 44 -2 30 -62 30 -65 -6 -65 -42 0 -40
-28 3 -32 27 -2 33 -8 35 -30 4 -34 -4 -35 -28 -5 -13 15 -22 19 -29 11 -12
-11 -4 -46 26 -113 8 -19 17 -52 20 -75 6 -49 22 -96 34 -96 5 0 9 33 9 73 0
88 12 133 45 171 29 33 31 46 10 46 -8 0 -15 -4 -15 -10 0 -5 -4 -10 -10 -10
-5 0 -10 9 -10 20 0 16 7 20 35 20 19 0 35 4 35 10 0 5 -16 12 -35 16 -40 7
-42 15 -17 52 10 15 24 42 31 59 15 36 31 35 31 -2 0 -13 5 -27 10 -30 6 -3
10 -17 10 -29 0 -13 7 -30 16 -37 15 -12 16 -9 9 41 -4 30 -11 63 -16 72 -5 9
-9 35 -9 57 0 79 -31 64 -81 -39 -18 -39 -38 -69 -43 -67 -6 2 -17 23 -26 48
-9 24 -22 58 -29 74 -8 17 -16 41 -20 54 -6 21 -28 41 -32 29z"/>
</g>
</svg>
