<svg version="1.0" xmlns="http://www.w3.org/2000/svg"
 width="51.000000pt" height="79.000000pt" viewBox="0 0 51.000000 79.000000"
 preserveAspectRatio="xMidYMid meet">
<metadata>
Created by potrace 1.15, written by Peter Selinger 2001-2017
</metadata>
<g transform="translate(0.000000,79.000000) scale(0.100000,-0.100000)"
fill="#000000" stroke="none">
<path d="M396 621 c-3 -5 -32 -19 -63 -32 -32 -12 -61 -27 -65 -33 -4 -7 -14
-6 -30 1 -13 6 -34 13 -48 16 -14 2 -32 6 -40 8 -12 3 -16 -9 -18 -64 -2 -51
0 -68 9 -65 13 4 23 20 34 53 6 19 8 18 31 -8 22 -26 24 -37 24 -128 0 -54 -3
-99 -7 -99 -5 1 -24 14 -43 30 -35 31 -70 39 -70 18 0 -7 14 -29 30 -48 16
-19 30 -41 30 -47 0 -7 3 -13 8 -13 10 0 32 -50 32 -76 0 -26 24 -48 45 -40 8
3 15 15 15 26 0 31 37 99 82 149 21 25 37 49 35 55 -6 16 -38 8 -63 -15 -11
-10 -24 -19 -30 -19 -5 0 -8 45 -7 104 1 92 4 107 24 130 30 34 37 33 41 -6 2
-28 7 -32 26 -30 12 2 22 -2 22 -7 0 -6 6 -11 14 -11 18 0 28 53 20 112 -6 45
-24 63 -38 39z"/>
</g>
</svg>
