<svg version="1.0" xmlns="http://www.w3.org/2000/svg"
 width="59.000000pt" height="69.000000pt" viewBox="0 0 59.000000 69.000000"
 preserveAspectRatio="xMidYMid meet">
<metadata>
Created by potrace 1.15, written by Peter Selinger 2001-2017
</metadata>
<g transform="translate(0.000000,69.000000) scale(0.100000,-0.100000)"
fill="#000000" stroke="none">
<path d="M270 515 c0 -19 -3 -35 -7 -35 -5 0 -23 14 -42 30 -60 53 -71 32 -16
-29 23 -25 33 -45 29 -55 -10 -26 -20 -19 -34 24 -18 56 -32 50 -29 -12 2 -33
-1 -53 -9 -56 -27 -9 -10 -24 23 -20 23 3 36 -1 40 -10 10 -26 5 -60 -11 -73
-14 -11 -19 -10 -34 9 -24 29 -30 28 -30 -8 0 -16 -4 -30 -9 -30 -11 0 -24 71
-25 142 -1 31 -4 59 -8 63 -13 13 -23 -49 -23 -150 0 -100 0 -100 44 -165 25
-36 56 -75 70 -87 23 -21 26 -21 55 -6 17 9 45 27 62 39 17 13 34 24 38 24 4
0 16 9 28 20 12 11 27 20 32 20 6 0 19 17 29 38 14 30 17 52 12 107 -8 95 -24
155 -42 155 -8 0 -12 -4 -9 -9 3 -4 6 -57 7 -116 2 -107 2 -107 -32 -139 -46
-43 -99 -79 -106 -73 -7 8 16 139 27 152 4 5 12 30 17 55 5 29 14 45 23 45 16
0 27 25 29 63 1 14 -5 22 -15 22 -8 0 -12 -4 -9 -10 3 -5 3 -15 0 -21 -10 -16
-34 21 -35 53 0 31 -19 78 -32 78 -4 0 -8 -16 -8 -35z m20 -159 c0 -33 -20
-62 -33 -49 -11 11 -8 68 5 81 17 17 28 5 28 -32z m-44 -143 c-3 -21 -6 -57
-6 -80 0 -24 -4 -43 -9 -43 -8 0 -81 104 -81 115 0 3 8 5 18 5 9 0 28 9 42 20
36 28 43 25 36 -17z"/>
<path d="M335 271 c-7 -44 1 -66 21 -53 22 14 25 49 5 73 -19 23 -19 23 -26
-20z"/>
</g>
</svg>
