<svg version="1.0" xmlns="http://www.w3.org/2000/svg"
 width="61.000000pt" height="87.000000pt" viewBox="0 0 61.000000 87.000000"
 preserveAspectRatio="xMidYMid meet">
<metadata>
Created by potrace 1.15, written by Peter Selinger 2001-2017
</metadata>
<g transform="translate(0.000000,87.000000) scale(0.100000,-0.100000)"
fill="#000000" stroke="none">
<path d="M278 711 c-22 -22 -23 -31 -3 -31 23 0 18 -16 -10 -34 -31 -20 -32
-20 -38 4 -3 14 -14 20 -31 20 -14 0 -26 -4 -26 -10 0 -5 -6 -10 -14 -10 -12
0 -26 -20 -26 -36 0 -9 39 -4 45 6 3 6 10 10 16 10 16 0 9 -34 -16 -75 -25
-41 -32 -79 -16 -89 5 -3 14 0 20 8 17 20 61 29 77 15 19 -16 18 -93 -2 -146
-18 -47 -14 -64 11 -43 13 11 15 8 15 -23 0 -19 3 -42 6 -51 12 -32 24 -15 24
34 0 47 2 50 25 50 21 0 25 -5 26 -32 1 -18 4 -44 9 -58 9 -32 18 -12 22 50 3
41 6 45 31 48 20 3 27 -1 27 -14 0 -14 -3 -15 -12 -6 -7 7 -16 12 -20 12 -14
0 -9 -75 7 -96 14 -18 14 -18 15 9 0 21 4 27 17 25 14 -2 19 8 25 57 5 38 4
61 -2 63 -6 2 -10 12 -10 22 0 31 -26 43 -80 36 -28 -4 -57 -9 -65 -12 -12 -5
-15 7 -15 69 0 75 0 76 41 116 34 33 40 45 35 66 -5 18 -13 25 -31 25 -14 0
-29 8 -35 20 -13 24 -20 24 -42 1z m1 -133 c0 -7 -4 -22 -8 -33 -8 -19 -8 -19
-20 3 -7 12 -9 27 -6 32 9 14 35 12 34 -2z m171 -198 c8 -15 6 -21 -9 -30 -25
-13 -27 -13 -46 6 -12 13 -19 14 -28 5 -6 -6 -21 -11 -34 -11 -30 0 -30 28 0
34 12 3 31 7 42 9 44 10 65 6 75 -13z"/>
<path d="M176 282 c-8 -14 39 -191 58 -218 14 -18 15 -18 21 8 7 28 28 38 82
38 17 0 54 5 82 12 56 13 60 11 66 -22 5 -26 12 -36 21 -27 8 8 6 166 -2 179
-10 16 -24 -13 -24 -49 0 -39 -6 -43 -83 -53 -34 -5 -81 -11 -104 -15 -48 -8
-49 -7 -78 98 -15 53 -27 68 -39 49z"/>
</g>
</svg>
