<svg version="1.0" xmlns="http://www.w3.org/2000/svg"
 width="41.000000pt" height="117.000000pt" viewBox="0 0 41.000000 117.000000"
 preserveAspectRatio="xMidYMid meet">
<metadata>
Created by potrace 1.15, written by Peter Selinger 2001-2017
</metadata>
<g transform="translate(0.000000,117.000000) scale(0.100000,-0.100000)"
fill="#000000" stroke="none">
<path d="M210 946 c0 -37 -29 -117 -50 -136 -13 -12 -47 -78 -54 -103 -4 -18
0 -39 12 -65 17 -32 18 -41 6 -72 -7 -19 -13 -45 -13 -57 -1 -12 -10 -37 -20
-55 -17 -29 -18 -38 -8 -76 8 -32 8 -50 0 -73 -10 -27 -9 -37 10 -75 12 -24
27 -44 33 -44 19 0 33 47 27 92 -12 95 2 185 33 205 17 11 24 25 24 49 0 18
-4 36 -10 39 -17 11 -11 39 16 70 21 25 27 27 34 15 5 -8 20 -31 33 -50 25
-35 25 -35 1 -83 -24 -45 -25 -97 -3 -97 5 0 9 -9 9 -20 0 -11 -4 -20 -10 -20
-14 0 -12 -78 2 -82 8 -3 5 -18 -10 -49 -28 -57 -28 -60 4 -90 14 -13 30 -33
34 -44 6 -17 10 -15 24 20 9 21 17 55 17 75 0 19 -1 49 -1 65 -1 123 1 137 20
163 20 27 20 28 1 79 -18 51 -47 98 -83 137 -10 11 -18 26 -18 33 0 7 -4 13
-9 13 -4 0 -14 27 -21 60 -7 33 -17 63 -22 66 -4 3 1 17 12 31 30 38 26 123
-6 123 -10 0 -14 -13 -14 -44z m11 -198 c12 -24 11 -52 -3 -66 -20 -20 -28
-14 -28 22 0 19 -4 38 -10 41 -14 9 -13 33 3 50 10 11 13 10 21 -8 4 -12 12
-30 17 -39z m-48 -105 c-9 -23 -27 -9 -34 27 -12 55 2 70 22 26 9 -22 15 -46
12 -53z m-3 -87 c0 -8 -4 -18 -10 -21 -5 -3 -10 3 -10 14 0 12 5 21 10 21 6 0
10 -6 10 -14z m180 -52 c0 -5 -19 -45 -25 -52 -5 -6 -35 11 -35 19 0 17 24 38
43 39 9 0 17 -3 17 -6z m-220 -94 c0 -11 -4 -20 -10 -20 -5 0 -10 9 -10 20 0
11 5 20 10 20 6 0 10 -9 10 -20z m200 -60 c0 -11 -4 -20 -10 -20 -5 0 -10 9
-10 20 0 11 5 20 10 20 6 0 10 -9 10 -20z m-14 -136 c-7 -27 -26 -24 -26 5 0
21 23 47 28 31 2 -6 1 -22 -2 -36z"/>
</g>
</svg>
