<svg version="1.0" xmlns="http://www.w3.org/2000/svg"
 width="101.000000pt" height="189.000000pt" viewBox="0 0 101.000000 189.000000"
 preserveAspectRatio="xMidYMid meet">
<metadata>
Created by potrace 1.15, written by Peter Selinger 2001-2017
</metadata>
<g transform="translate(0.000000,189.000000) scale(0.100000,-0.100000)"
fill="#000000" stroke="none">
<path d="M890 1780 c-59 -33 -155 -64 -250 -80 -41 -7 -100 -19 -130 -27 -30
-9 -70 -18 -87 -20 -48 -7 -176 -76 -189 -101 -6 -12 -14 -19 -17 -15 -4 3 -7
-1 -7 -10 0 -9 -4 -17 -8 -17 -17 0 -44 -76 -52 -150 -5 -42 -10 -80 -11 -86
-1 -5 1 -25 4 -44 19 -97 16 -119 -19 -154 -19 -19 -34 -41 -34 -49 0 -9 -6
-17 -12 -20 -9 -3 -13 -32 -12 -103 1 -80 5 -108 23 -145 22 -46 22 -46 -2
-100 -28 -64 -41 -135 -27 -144 5 -3 10 -14 10 -24 0 -10 11 -39 25 -64 23
-40 25 -77 5 -77 -8 0 -24 -57 -22 -80 5 -62 13 -92 32 -130 29 -56 44 -71 83
-80 18 -4 38 -9 45 -11 8 -2 19 5 25 16 7 11 14 22 17 25 4 3 11 23 18 45 18
64 -3 136 -60 199 -22 25 -25 33 -16 50 6 12 14 23 17 26 15 12 31 64 31 102
0 38 -17 106 -30 118 -23 22 -39 100 -20 100 6 0 10 9 10 19 0 11 4 21 8 23
16 7 52 67 52 88 0 12 5 31 11 42 17 32 12 113 -10 158 -10 21 -16 41 -13 44
3 4 27 6 53 6 49 0 49 0 38 -27 -6 -16 -11 -53 -12 -83 -1 -57 20 -112 69
-175 24 -32 20 -52 -16 -85 -48 -43 -51 -159 -6 -251 27 -57 27 -57 7 -90 -17
-28 -21 -51 -21 -130 0 -74 4 -100 15 -109 8 -7 15 -18 15 -25 0 -22 48 -45
95 -45 42 0 46 2 61 38 21 46 25 195 7 213 -7 7 -13 19 -13 27 0 7 -6 20 -14
28 -15 14 -11 54 5 54 5 0 9 8 9 18 0 9 9 28 20 42 32 41 25 159 -13 205 -5 6
-16 23 -26 39 -16 29 -16 32 11 109 33 94 34 115 8 185 -20 53 -20 53 17 46
21 -4 40 -8 42 -10 2 -2 -2 -22 -9 -45 -19 -55 -1 -117 51 -185 45 -59 47 -70
17 -121 -16 -30 -21 -56 -22 -117 -1 -55 3 -81 12 -84 6 -2 12 -8 12 -14 0 -6
11 -26 25 -44 20 -26 24 -38 16 -52 -45 -83 -54 -194 -20 -248 24 -39 69 -64
114 -64 29 0 37 7 65 51 32 48 33 53 27 126 -5 66 -10 81 -38 117 -18 22 -37
43 -41 44 -12 6 -9 20 10 49 46 71 43 177 -8 246 -31 42 -39 84 -19 104 17 17
7 151 -16 198 -21 45 -62 85 -86 85 -9 0 -19 3 -23 7 -13 14 -120 32 -189 32
-64 1 -68 2 -62 21 4 13 -2 32 -17 53 -32 45 -33 172 0 234 12 23 22 48 22 56
0 7 15 27 33 45 29 28 39 32 90 32 57 0 57 0 57 -31 0 -69 -28 -141 -82 -215
-21 -28 -38 -56 -38 -62 0 -38 100 29 125 83 8 16 28 73 45 125 35 107 47 123
109 152 43 19 141 102 141 119 0 11 -20 11 -40 -1z m-524 -277 c-9 -38 -22
-84 -27 -103 -12 -43 10 -150 40 -190 19 -27 19 -27 -52 -38 -45 -7 -76 -7
-83 -1 -16 13 -37 199 -23 199 5 0 9 16 9 35 0 43 18 81 57 117 30 29 84 60
92 53 2 -3 -4 -35 -13 -72z m126 -464 c21 -42 23 -116 3 -160 -14 -32 -15 -33
-21 -11 -3 12 -9 22 -13 22 -16 0 -41 62 -41 102 0 45 24 92 43 85 7 -2 20
-19 29 -38z m-276 -4 c31 -31 25 -142 -9 -177 -8 -7 -22 -26 -32 -41 -12 -19
-21 -25 -28 -18 -15 15 -22 171 -8 171 6 0 11 6 11 13 0 11 40 66 48 67 2 0
10 -7 18 -15z m509 9 c26 -10 45 -59 45 -119 0 -48 -2 -55 -20 -55 -11 0 -20
5 -20 10 0 6 -7 10 -16 10 -16 0 -44 56 -44 89 0 24 20 71 31 71 4 0 15 -3 24
-6z m80 -348 c24 -32 25 -35 13 -87 -7 -30 -21 -65 -30 -79 -18 -24 -18 -24
-40 -2 -20 20 -23 32 -22 97 2 108 31 134 79 71z m-284 -13 c20 -38 17 -132
-5 -166 -20 -29 -44 -32 -56 -7 -4 8 -12 25 -18 37 -17 33 -15 69 8 112 17 35
30 47 51 50 3 1 12 -11 20 -26z m-341 -89 c10 -29 10 -45 0 -78 -7 -22 -14
-47 -17 -55 -7 -25 -32 9 -36 49 -4 34 21 120 34 120 4 0 13 -16 19 -36z m645
-235 c24 -29 26 -38 23 -108 -3 -76 -3 -76 -35 -79 -58 -6 -77 56 -51 167 6
28 17 51 24 51 7 0 24 -14 39 -31z m-310 -25 c20 -48 20 -147 0 -164 -12 -10
-20 -9 -39 4 -27 17 -36 58 -25 114 7 31 34 82 44 82 3 0 12 -16 20 -36z
m-297 -71 c13 -23 16 -72 6 -97 -3 -9 -16 -16 -29 -16 -40 0 -59 89 -29 135
17 27 29 22 52 -22z"/>
<path d="M195 900 c-3 -5 -1 -10 4 -10 6 0 11 5 11 10 0 6 -2 10 -4 10 -3 0
-8 -4 -11 -10z"/>
<path d="M117 1423 c3 -7 9 -10 14 -7 14 8 11 21 -5 21 -8 0 -12 -6 -9 -14z"/>
<path d="M515 1380 c-3 -5 -1 -10 4 -10 6 0 11 5 11 10 0 6 -2 10 -4 10 -3 0
-8 -4 -11 -10z"/>
</g>
</svg>
