<svg version="1.0" xmlns="http://www.w3.org/2000/svg"
 width="49.000000pt" height="101.000000pt" viewBox="0 0 49.000000 101.000000"
 preserveAspectRatio="xMidYMid meet">
<metadata>
Created by potrace 1.15, written by Peter Selinger 2001-2017
</metadata>
<g transform="translate(0.000000,101.000000) scale(0.100000,-0.100000)"
fill="#000000" stroke="none">
<path d="M209 794 c2 -25 -1 -56 -7 -68 -17 -35 -22 -99 -11 -139 14 -53 30
-46 22 11 -6 47 -6 47 24 20 30 -28 53 -36 53 -18 0 6 -4 10 -10 10 -5 0 -10
6 -10 13 0 7 -9 23 -20 35 -19 20 -27 52 -14 52 4 0 22 -13 41 -30 33 -30 53
-38 53 -22 0 4 -18 26 -40 47 -31 31 -40 47 -40 73 0 21 -7 40 -17 48 -27 20
-28 18 -24 -32z"/>
<path d="M230 495 c0 -18 -18 -51 -42 -80 -26 -31 -33 -78 -14 -94 11 -10 14
-24 10 -55 -5 -37 -3 -44 20 -61 16 -12 26 -30 26 -44 0 -36 15 -15 28 39 10
40 9 48 -9 74 -18 24 -19 32 -9 51 11 20 10 27 -8 49 -17 22 -18 30 -9 51 14
29 28 31 62 9 21 -14 25 -24 25 -69 0 -43 3 -54 17 -57 14 -3 17 -12 15 -46
-3 -28 2 -47 12 -58 9 -9 16 -32 16 -55 0 -33 3 -40 18 -37 25 5 40 140 19
172 -8 12 -14 35 -14 51 0 16 -5 31 -11 33 -6 2 -16 19 -22 38 -6 19 -15 34
-20 34 -5 0 -29 16 -54 35 -52 40 -56 41 -56 20z m-10 -141 c0 -9 -5 -14 -12
-12 -18 6 -21 28 -4 28 9 0 16 -7 16 -16z m147 1 c3 -9 3 -19 -1 -22 -7 -7
-36 16 -36 28 0 15 30 10 37 -6z m23 -95 c0 -16 -4 -30 -10 -30 -5 0 -10 14
-10 30 0 17 5 30 10 30 6 0 10 -13 10 -30z m-160 -10 c0 -11 -4 -20 -10 -20
-5 0 -10 9 -10 20 0 11 5 20 10 20 6 0 10 -9 10 -20z"/>
</g>
</svg>
