<svg version="1.0" xmlns="http://www.w3.org/2000/svg"
 width="71.000000pt" height="95.000000pt" viewBox="0 0 71.000000 95.000000"
 preserveAspectRatio="xMidYMid meet">
<metadata>
Created by potrace 1.15, written by Peter Selinger 2001-2017
</metadata>
<g transform="translate(0.000000,95.000000) scale(0.100000,-0.100000)"
fill="#000000" stroke="none">
<path d="M597 909 c-15 -20 -27 -41 -27 -47 0 -24 -24 -6 -46 33 -32 57 -48
-5 -17 -70 17 -35 16 -37 -10 -90 -31 -64 -32 -73 -13 -110 13 -25 13 -33 -1
-68 -13 -31 -14 -44 -5 -58 15 -24 15 -46 0 -51 -6 -2 -11 -24 -11 -51 0 -30
-5 -47 -12 -47 -7 0 -19 -17 -28 -38 -14 -35 -15 -35 -16 -10 -1 15 4 30 9 33
6 3 10 26 10 51 0 34 -4 44 -16 44 -9 0 -18 -8 -21 -18 -5 -20 -66 -49 -92
-44 -22 4 -51 40 -51 64 0 13 -6 18 -17 16 -15 -3 -18 -15 -18 -81 0 -42 -3
-77 -6 -77 -3 0 -21 14 -38 31 -38 36 -70 34 -50 -3 7 -13 26 -36 42 -51 27
-25 29 -31 18 -53 -12 -28 -15 -104 -3 -104 4 0 14 20 21 45 17 59 32 70 72
56 36 -13 47 -8 30 12 -9 12 -4 15 25 20 21 4 41 4 45 1 14 -8 -1 -29 -31 -42
-40 -18 -38 -32 4 -32 39 0 46 -11 46 -76 0 -24 3 -44 6 -44 19 0 33 41 34 95
0 41 7 74 20 100 11 22 20 52 20 68 0 17 4 26 11 22 6 -4 10 -19 9 -33 -3 -43
-1 -54 10 -47 14 9 12 -8 -5 -41 -28 -55 -16 -71 21 -29 22 26 22 26 40 -32 9
-32 21 -62 26 -68 11 -11 5 113 -7 157 -7 27 12 88 27 88 5 0 8 14 8 30 0 17
-3 30 -6 30 -9 0 -30 -24 -37 -44 -12 -30 -18 -13 -7 22 6 23 5 40 -5 59 -12
22 -11 31 2 65 12 29 13 42 4 51 -14 14 -15 67 -1 67 14 0 12 38 -4 85 -18 51
-12 57 19 20 28 -31 44 -27 28 8 -30 65 -33 77 -20 100 6 12 14 24 17 27 15
15 32 60 28 76 -3 16 -8 13 -31 -17z m-67 -250 c0 -5 -4 -9 -10 -9 -5 0 -10 7
-10 16 0 8 5 12 10 9 6 -3 10 -10 10 -16z m-200 -359 c0 -5 -4 -10 -10 -10 -5
0 -10 5 -10 10 0 6 5 10 10 10 6 0 10 -4 10 -10z"/>
<path d="M326 843 c-3 -3 -19 -8 -37 -12 -32 -6 -32 -6 -34 -84 -1 -74 0 -78
22 -83 19 -5 22 -11 17 -28 -8 -26 -23 -46 -36 -46 -15 0 -68 -40 -68 -51 0
-12 57 -12 65 1 3 6 12 10 20 10 10 0 13 -11 10 -45 -3 -25 -1 -45 4 -45 10 0
41 78 41 104 0 10 12 29 26 41 27 23 25 51 -2 41 -17 -6 -29 17 -19 34 5 8 11
8 20 0 23 -19 35 11 52 123 3 20 1 37 -3 38 -39 5 -74 6 -78 2z m41 -69 c-7
-43 -7 -43 -38 -46 -21 -3 -24 0 -21 27 5 38 19 55 45 55 17 0 19 -5 14 -36z"/>
</g>
</svg>
