<svg version="1.0" xmlns="http://www.w3.org/2000/svg"
 width="69.000000pt" height="88.000000pt" viewBox="0 0 69.000000 88.000000"
 preserveAspectRatio="xMidYMid meet">
<metadata>
Created by potrace 1.15, written by Peter Selinger 2001-2017
</metadata>
<g transform="translate(0.000000,88.000000) scale(0.100000,-0.100000)"
fill="#000000" stroke="none">
<path d="M238 721 c-167 -6 -201 -16 -162 -46 14 -12 34 -14 82 -10 50 5 62 3
62 -9 0 -22 -19 -30 -85 -36 -44 -4 -60 -9 -60 -20 0 -11 14 -16 56 -18 77 -4
107 10 126 58 16 40 16 40 130 40 62 0 113 -4 113 -8 0 -17 -25 -32 -54 -33
-17 0 -47 -5 -66 -12 -28 -10 -36 -19 -46 -52 -11 -40 -11 -40 -155 -50 -117
-8 -144 -13 -144 -25 0 -12 16 -16 73 -18 74 -3 89 -13 50 -33 -13 -7 -25 -15
-28 -18 -3 -3 -14 -11 -25 -17 -21 -12 -27 -36 -45 -181 -6 -46 -13 -90 -17
-99 -4 -12 -1 -15 12 -13 20 4 38 67 50 175 5 52 11 66 38 91 18 17 42 36 55
42 12 7 22 18 22 26 0 24 30 45 65 45 40 0 47 -8 39 -48 -6 -29 -10 -31 -53
-34 -33 -2 -46 -7 -46 -18 0 -8 10 -16 23 -18 12 -2 22 -9 22 -15 0 -17 -58
-77 -74 -77 -8 0 -24 -9 -37 -20 -23 -18 -23 -19 -4 -20 11 0 31 7 45 15 14 8
37 19 52 26 16 6 35 27 45 49 10 22 23 41 29 44 12 5 82 -9 91 -18 11 -11 -8
-36 -46 -60 -31 -20 -40 -32 -43 -58 -3 -33 -3 -33 -80 -36 -43 -2 -78 -7 -78
-12 0 -18 39 -30 93 -30 55 0 55 0 62 -50 6 -46 24 -70 51 -70 6 0 0 53 -12
98 -6 22 -5 22 79 22 79 0 111 10 92 28 -4 4 -45 9 -91 11 -74 3 -84 5 -84 22
0 10 16 31 36 46 90 69 89 68 76 97 -8 19 -21 27 -52 32 -48 8 -63 23 -58 61
3 27 6 28 59 31 50 3 57 1 62 -18 3 -11 21 -27 40 -35 55 -23 53 -15 63 -257
3 -82 10 -148 15 -148 5 0 16 11 25 25 13 20 15 42 11 107 -11 184 -32 278
-60 278 -7 0 -23 9 -37 20 -25 20 -25 20 38 20 44 0 62 4 62 13 0 31 -24 37
-147 37 -117 0 -123 1 -123 20 0 23 24 35 96 46 92 13 122 60 68 103 -21 16
-39 21 -83 19 -31 -1 -127 -4 -213 -7z"/>
</g>
</svg>
