<svg version="1.0" xmlns="http://www.w3.org/2000/svg"
 width="51.000000pt" height="99.000000pt" viewBox="0 0 51.000000 99.000000"
 preserveAspectRatio="xMidYMid meet">
<metadata>
Created by potrace 1.15, written by Peter Selinger 2001-2017
</metadata>
<g transform="translate(0.000000,99.000000) scale(0.100000,-0.100000)"
fill="#000000" stroke="none">
<path d="M143 809 c-49 -56 -65 -89 -44 -89 8 0 61 37 71 51 3 3 15 11 28 18
21 11 24 9 48 -46 14 -32 27 -69 27 -83 2 -24 0 -25 -73 -30 -86 -6 -75 -18
20 -22 57 -3 65 -5 68 -24 2 -13 -12 -38 -34 -65 -38 -45 -31 -68 10 -30 27
25 42 27 50 5 16 -41 2 -66 -65 -116 -12 -10 -20 -20 -17 -23 3 -3 16 3 29 13
13 11 34 22 45 26 18 5 23 2 28 -20 8 -31 -10 -62 -60 -107 -19 -16 -33 -31
-31 -34 2 -2 25 6 51 17 59 25 56 25 56 -3 0 -13 4 -27 9 -33 5 -5 12 -26 15
-46 9 -61 24 -119 31 -126 4 -4 4 9 1 28 -13 80 -29 189 -37 255 -5 39 -13 97
-18 130 -6 33 -9 61 -7 62 1 2 26 -9 54 -24 29 -15 55 -23 59 -19 4 4 0 12 -9
17 -9 5 -23 16 -30 23 -8 7 -28 21 -45 29 -16 9 -37 27 -46 40 -14 22 -14 24
4 35 10 7 28 12 38 12 11 0 23 5 26 10 4 6 -13 10 -44 10 -50 0 -50 0 -61 43
-6 23 -17 56 -25 72 -9 17 -17 41 -20 54 -5 27 -23 51 -39 51 -6 0 -35 -27
-63 -61z"/>
</g>
</svg>
