<svg version="1.0" xmlns="http://www.w3.org/2000/svg"
 width="65.000000pt" height="153.000000pt" viewBox="0 0 65.000000 153.000000"
 preserveAspectRatio="xMidYMid meet">
<metadata>
Created by potrace 1.15, written by Peter Selinger 2001-2017
</metadata>
<g transform="translate(0.000000,153.000000) scale(0.100000,-0.100000)"
fill="#000000" stroke="none">
<path d="M254 1348 c17 -170 18 -198 9 -198 -5 0 -29 23 -52 50 -24 28 -51 50
-62 50 -10 0 -19 -2 -19 -5 0 -13 73 -117 108 -153 35 -36 40 -48 46 -108 5
-51 3 -70 -7 -83 -41 -47 -106 -151 -97 -156 15 -9 45 11 79 52 26 31 33 35
41 23 13 -20 13 -50 0 -50 -5 0 -10 -8 -10 -18 0 -10 -14 -39 -30 -65 -17 -26
-30 -52 -30 -56 0 -5 -7 -22 -15 -37 -21 -41 -19 -78 9 -143 14 -31 30 -87 36
-126 6 -38 15 -90 20 -115 6 -25 12 -62 15 -82 4 -25 11 -38 22 -38 13 0 14
12 9 83 -4 45 -8 110 -10 144 -3 46 -12 77 -35 119 -31 57 -40 117 -21 129 5
3 10 15 10 26 0 10 4 19 8 19 5 0 15 11 22 25 16 31 32 21 61 -39 11 -23 44
-72 74 -111 30 -38 55 -75 55 -82 0 -7 5 -13 10 -13 18 0 11 61 -12 111 -13
27 -26 49 -30 49 -5 0 -8 6 -8 13 0 6 -14 28 -30 47 -16 19 -30 39 -30 43 0 4
-9 20 -21 36 -16 22 -19 39 -17 91 3 63 3 63 60 6 52 -50 88 -70 88 -48 0 4
-16 25 -35 45 -19 20 -35 40 -35 45 0 4 -16 24 -35 46 -19 21 -35 41 -35 45 0
3 18 26 40 51 22 25 40 53 40 62 0 31 -22 30 -56 -3 -18 -18 -37 -29 -41 -26
-9 10 -34 267 -27 279 3 5 13 1 22 -9 24 -25 73 -59 100 -67 47 -15 14 40 -59
100 -8 6 -23 22 -34 35 -21 25 -79 69 -91 69 -4 0 -4 -28 0 -62z"/>
</g>
</svg>
