<svg version="1.0" xmlns="http://www.w3.org/2000/svg"
 width="71.000000pt" height="117.000000pt" viewBox="0 0 71.000000 117.000000"
 preserveAspectRatio="xMidYMid meet">
<metadata>
Created by potrace 1.15, written by Peter Selinger 2001-2017
</metadata>
<g transform="translate(0.000000,117.000000) scale(0.100000,-0.100000)"
fill="#000000" stroke="none">
<path d="M225 901 c-37 -35 -75 -79 -75 -87 0 -3 -12 -20 -26 -36 -15 -19 -21
-35 -16 -40 11 -11 62 11 62 27 0 6 8 20 18 31 10 11 27 32 36 47 31 47 40 38
94 -98 9 -22 28 -62 44 -88 52 -88 37 -112 -62 -104 -53 4 -70 3 -67 -6 2 -7
14 -14 28 -15 13 -2 28 -8 34 -13 5 -5 16 -9 25 -9 23 0 82 -30 78 -40 -2 -4
-27 -27 -57 -50 -35 -28 -60 -58 -73 -88 -26 -58 -35 -122 -18 -122 17 0 39
30 40 55 4 59 87 146 126 131 17 -6 16 -58 -2 -275 -7 -86 5 -92 44 -21 21 37
25 61 29 165 5 105 3 131 -16 196 -50 169 -55 139 32 227 124 126 127 130 121
146 -3 9 -10 16 -14 16 -5 0 -50 -41 -100 -90 -50 -50 -95 -88 -101 -84 -9 5
-23 33 -79 159 -20 46 -56 95 -69 95 -3 0 -19 -13 -36 -29z"/>
</g>
</svg>
