<svg version="1.0" xmlns="http://www.w3.org/2000/svg"
 width="65.000000pt" height="155.000000pt" viewBox="0 0 65.000000 155.000000"
 preserveAspectRatio="xMidYMid meet">
<metadata>
Created by potrace 1.15, written by Peter Selinger 2001-2017
</metadata>
<g transform="translate(0.000000,155.000000) scale(0.100000,-0.100000)"
fill="#000000" stroke="none">
<path d="M272 1347 c-61 -58 -86 -86 -115 -127 -17 -25 -39 -54 -49 -64 -20
-22 -24 -46 -8 -46 6 0 52 42 102 92 93 93 93 93 99 63 12 -54 10 -190 -3
-203 -9 -9 -19 -3 -44 26 -26 29 -35 34 -43 23 -12 -19 -1 -52 48 -144 22 -42
41 -86 41 -97 0 -11 -30 -48 -70 -86 -62 -60 -85 -94 -62 -94 4 0 31 18 61 41
29 22 55 38 58 35 6 -5 -15 -111 -27 -141 -5 -11 -11 -38 -14 -60 -2 -22 -8
-52 -11 -68 -5 -17 -3 -27 4 -27 6 0 14 12 17 27 9 37 55 133 63 133 4 0 14
-12 23 -27 13 -24 15 -57 10 -226 -3 -145 -1 -213 8 -253 24 -100 51 -80 48
36 -1 41 -1 158 1 259 1 101 -2 187 -7 190 -4 3 -23 27 -41 54 -23 34 -31 56
-29 79 5 47 21 44 57 -12 42 -64 55 -73 46 -29 -4 19 -11 38 -16 43 -5 6 -9
19 -9 31 0 12 -5 26 -11 32 -6 6 -11 27 -12 47 0 19 -6 37 -12 40 -14 5 -8
169 6 174 5 2 9 9 9 16 0 7 12 26 28 42 22 25 39 52 70 117 2 4 -3 7 -11 7 -9
0 -34 -19 -56 -42 -23 -23 -42 -39 -44 -37 -2 2 -9 36 -16 74 -23 126 -42 147
-89 102z"/>
<path d="M205 400 c-3 -5 -1 -10 4 -10 6 0 11 5 11 10 0 6 -2 10 -4 10 -3 0
-8 -4 -11 -10z"/>
<path d="M430 320 c0 -5 5 -10 11 -10 5 0 7 5 4 10 -3 6 -8 10 -11 10 -2 0 -4
-4 -4 -10z"/>
</g>
</svg>
