<svg version="1.0" xmlns="http://www.w3.org/2000/svg"
 width="79.000000pt" height="157.000000pt" viewBox="0 0 79.000000 157.000000"
 preserveAspectRatio="xMidYMid meet">
<metadata>
Created by potrace 1.15, written by Peter Selinger 2001-2017
</metadata>
<g transform="translate(0.000000,157.000000) scale(0.100000,-0.100000)"
fill="#000000" stroke="none">
<path d="M303 1433 c-28 -2 -56 -10 -62 -17 -16 -19 -91 -235 -91 -263 0 -13
-6 -34 -14 -46 -22 -34 -76 -187 -66 -187 5 0 19 18 30 39 11 22 24 42 30 46
16 10 56 105 69 165 7 30 16 64 21 75 4 11 13 39 20 62 16 54 44 79 100 92
146 34 224 -22 206 -148 -4 -25 -9 -67 -13 -93 -3 -27 -9 -48 -14 -48 -5 0 -9
4 -9 8 0 5 -12 15 -27 23 -16 8 -37 22 -47 32 -24 21 -46 22 -46 2 0 -16 96
-115 111 -115 5 0 9 -4 9 -9 0 -8 -112 -85 -163 -111 -25 -12 -63 -58 -40 -49
28 13 119 63 123 68 9 12 74 40 82 35 4 -3 6 -15 4 -27 -3 -12 -10 -51 -17
-87 -12 -60 -18 -70 -75 -127 -43 -45 -69 -63 -87 -63 -17 0 -28 -7 -32 -20
-3 -11 -13 -20 -21 -20 -14 0 -18 -15 -14 -57 1 -12 -12 -42 -28 -65 -40 -59
-62 -104 -55 -112 4 -3 32 21 63 54 44 46 63 60 86 60 42 1 74 31 74 72 0 44
34 136 57 154 35 26 56 13 95 -56 35 -62 44 -149 24 -227 -19 -74 -19 -74 -1
-67 9 4 15 0 15 -10 0 -9 -7 -16 -15 -16 -15 0 -16 -6 -18 -145 -1 -109 3
-151 16 -170 12 -15 13 -7 10 61 -4 82 14 239 41 359 22 98 21 167 -5 218 -12
23 -24 44 -28 47 -3 3 -21 21 -39 41 -33 36 -33 36 -16 95 9 32 18 69 21 82 8
34 28 27 70 -28 21 -27 44 -47 51 -45 7 3 11 1 8 -3 -3 -5 6 -20 18 -35 24
-27 46 -36 46 -17 0 6 -3 10 -8 10 -4 0 -16 15 -26 34 -10 19 -40 59 -67 88
-27 29 -49 59 -50 66 -1 6 -2 16 -3 21 -1 12 70 61 89 61 18 0 102 77 93 85
-12 13 -51 -3 -121 -50 -38 -25 -73 -45 -79 -45 -6 0 -7 38 -3 103 7 120 -7
185 -46 203 -27 13 -156 22 -236 17z"/>
</g>
</svg>
