<svg version="1.0" xmlns="http://www.w3.org/2000/svg"
 width="93.000000pt" height="141.000000pt" viewBox="0 0 93.000000 141.000000"
 preserveAspectRatio="xMidYMid meet">
<metadata>
Created by potrace 1.15, written by Peter Selinger 2001-2017
</metadata>
<g transform="translate(0.000000,141.000000) scale(0.100000,-0.100000)"
fill="#000000" stroke="none">
<path d="M229 1308 c-24 -29 -47 -54 -51 -56 -5 -2 -8 -8 -8 -14 0 -9 -66 -93
-107 -136 -18 -18 -16 -22 7 -22 12 0 44 25 78 61 57 61 57 61 128 54 148 -13
194 -47 194 -142 0 -46 -18 -113 -31 -113 -3 0 -30 27 -59 61 -54 62 -96 96
-107 86 -3 -3 2 -13 11 -22 9 -9 16 -19 16 -23 0 -4 27 -36 60 -72 33 -35 60
-67 60 -71 0 -4 -7 -12 -15 -19 -8 -7 -15 -21 -15 -31 0 -12 -12 -24 -32 -33
-37 -15 -118 -82 -118 -97 0 -11 27 -12 32 -1 2 4 23 23 47 42 25 19 59 48 75
64 31 28 31 28 34 0 2 -16 -1 -51 -6 -79 -6 -27 -20 -96 -32 -152 -20 -98 -20
-143 1 -143 12 0 39 66 39 96 0 29 23 105 30 101 3 -1 24 -11 48 -21 24 -10
42 -25 43 -35 0 -15 4 -34 10 -56 2 -10 -2 -23 -22 -73 -5 -13 -9 -32 -9 -42
0 -34 -21 -65 -53 -80 -32 -14 -32 -14 1 -23 32 -10 32 -10 32 -92 0 -45 3
-85 7 -88 3 -4 7 -19 8 -32 1 -32 -8 -34 -153 -38 -68 -1 -111 -6 -110 -12 3
-10 604 -8 620 2 14 8 8 22 -13 34 -16 8 -55 8 -156 -1 -76 -7 -138 -9 -143
-4 -15 15 -29 132 -23 185 5 45 9 51 34 56 36 7 37 16 4 31 -28 13 -27 32 7
135 10 32 16 67 13 78 -9 28 -55 79 -71 79 -27 0 -84 34 -84 50 0 10 4 30 9
46 5 16 12 41 15 57 6 25 30 37 38 20 2 -5 23 -24 48 -44 25 -20 59 -49 75
-63 32 -28 77 -38 56 -12 -6 7 -30 26 -54 42 -54 36 -147 129 -147 146 0 7 37
47 82 89 46 43 80 80 76 84 -7 8 -59 -26 -96 -62 -40 -40 -45 -35 -42 52 1 28
-5 63 -14 80 -19 37 -81 75 -123 75 -17 0 -35 5 -38 10 -3 6 -23 10 -45 10
-55 0 -61 25 -16 67 21 20 33 39 30 48 -10 26 -30 16 -75 -37z"/>
</g>
</svg>
