<svg version="1.0" xmlns="http://www.w3.org/2000/svg"
 width="57.000000pt" height="72.000000pt" viewBox="0 0 57.000000 72.000000"
 preserveAspectRatio="xMidYMid meet">
<metadata>
Created by potrace 1.15, written by Peter Selinger 2001-2017
</metadata>
<g transform="translate(0.000000,72.000000) scale(0.100000,-0.100000)"
fill="#000000" stroke="none">
<path d="M245 568 c-2 -7 -6 -35 -7 -63 -3 -50 -3 -50 -68 -66 -46 -12 -71
-25 -86 -44 -27 -35 -39 -125 -25 -203 6 -31 13 -74 16 -94 9 -61 43 -72 188
-64 157 9 188 22 218 89 21 49 21 57 10 152 -16 142 -45 175 -153 175 -56 0
-56 0 -55 62 2 52 -1 63 -16 66 -9 2 -19 -2 -22 -10z m158 -167 c26 -10 47
-55 47 -101 0 -27 -1 -27 -77 -33 -42 -3 -81 -4 -85 -1 -4 3 -8 36 -8 75 0 69
0 69 49 69 27 0 61 -4 74 -9z m-153 -66 c0 -74 3 -71 -87 -80 -63 -6 -63 -6
-63 21 0 15 5 44 12 65 12 42 38 56 106 58 32 1 32 1 32 -64z m200 -146 c0
-60 -13 -75 -84 -98 -36 -12 -68 -21 -71 -21 -12 0 -5 148 8 153 6 3 42 6 80
6 67 1 67 1 67 -40z m-205 -44 c0 -70 0 -70 -45 -73 -66 -4 -83 12 -88 87 -4
62 -4 62 64 59 69 -3 69 -3 69 -73z"/>
</g>
</svg>
