<svg version="1.0" xmlns="http://www.w3.org/2000/svg"
 width="69.000000pt" height="91.000000pt" viewBox="0 0 69.000000 91.000000"
 preserveAspectRatio="xMidYMid meet">
<metadata>
Created by potrace 1.15, written by Peter Selinger 2001-2017
</metadata>
<g transform="translate(0.000000,91.000000) scale(0.100000,-0.100000)"
fill="#000000" stroke="none">
<path d="M527 683 c-4 -3 -7 -18 -7 -32 0 -14 -4 -32 -9 -39 -10 -16 -71 -31
-128 -32 -39 0 -43 2 -43 24 0 22 5 25 58 31 31 3 64 7 72 8 8 1 15 9 15 17 0
13 -23 15 -150 13 -171 -2 -198 -6 -193 -31 3 -14 17 -18 76 -20 73 -3 73 -3
70 -30 -3 -26 -5 -27 -80 -30 -70 -3 -78 -5 -78 -22 0 -18 7 -20 81 -20 78 0
80 -1 77 -22 -3 -20 -11 -24 -62 -30 -62 -8 -83 -19 -71 -37 4 -8 28 -9 72 -5
54 6 65 5 61 -7 -5 -16 -76 -37 -130 -38 -42 -1 -55 -13 -33 -31 10 -8 40 -11
90 -8 64 3 75 1 75 -13 0 -17 -53 -29 -126 -29 -22 0 -34 -5 -34 -14 0 -20 25
-27 70 -20 42 7 90 -1 90 -15 0 -9 -38 -26 -82 -35 -15 -4 -35 -17 -44 -30
-20 -32 -31 -131 -15 -140 21 -14 41 15 41 59 0 50 22 75 67 75 31 0 31 0 35
-74 4 -80 8 -92 33 -83 12 5 15 24 15 87 0 80 0 80 34 80 43 0 54 -14 58 -75
2 -36 7 -50 18 -50 11 0 16 13 18 50 4 70 -23 112 -78 121 -56 9 -51 30 12 44
29 6 62 20 74 31 33 31 38 12 39 -140 1 -139 10 -166 40 -125 21 29 9 278 -15
320 -15 26 -15 33 -4 49 40 55 -3 80 -119 71 -77 -6 -78 -6 -75 15 2 19 14 25
63 35 33 7 71 13 84 13 30 1 81 56 81 87 0 44 -22 69 -43 47z m-44 -263 c5
-18 0 -20 -53 -20 -32 0 -65 -3 -74 -6 -12 -5 -16 0 -16 20 0 25 1 26 69 26
60 0 69 -2 74 -20z m-40 -67 c15 -14 -18 -33 -59 -33 -37 0 -44 3 -44 20 0 17
7 20 48 20 27 0 52 -3 55 -7z"/>
</g>
</svg>
