<svg version="1.0" xmlns="http://www.w3.org/2000/svg"
 width="64.000000pt" height="115.000000pt" viewBox="0 0 64.000000 115.000000"
 preserveAspectRatio="xMidYMid meet">
<metadata>
Created by potrace 1.15, written by Peter Selinger 2001-2017
</metadata>
<g transform="translate(0.000000,115.000000) scale(0.100000,-0.100000)"
fill="#000000" stroke="none">
<path d="M171 1072 c-6 -11 -11 -45 -11 -76 0 -67 -7 -86 -31 -86 -25 0 -35
42 -21 88 15 48 2 59 -31 27 -23 -24 -25 -32 -20 -78 7 -65 26 -96 63 -103 26
-6 29 -11 32 -48 2 -33 7 -41 23 -41 16 0 21 8 25 40 5 37 8 40 42 46 20 3 43
11 51 17 18 15 30 137 16 164 -16 31 -39 4 -39 -46 0 -31 -6 -48 -23 -64 -13
-12 -28 -22 -33 -22 -6 0 -11 35 -11 84 -1 46 -5 92 -11 102 -9 16 -10 16 -21
-4z"/>
<path d="M484 1079 c-3 -6 -9 -50 -12 -97 -5 -91 -13 -107 -45 -90 -17 9 -19
18 -14 74 6 57 4 64 -12 64 -14 0 -20 -10 -25 -46 -3 -26 -6 -59 -6 -75 0 -37
40 -79 74 -79 23 0 26 -4 26 -33 0 -18 6 -41 13 -51 18 -25 34 -4 39 49 2 31
8 41 23 43 57 8 62 12 74 54 16 56 9 122 -13 126 -12 3 -16 -4 -16 -25 0 -35
-20 -81 -39 -88 -8 -3 -15 -4 -17 -2 -2 2 -6 40 -8 84 -2 45 -7 86 -10 92 -9
14 -23 14 -32 0z"/>
<path d="M195 701 c-13 -8 -28 -25 -34 -38 -16 -34 -14 -181 2 -197 7 -7 43
-19 80 -26 68 -12 68 -12 65 -59 -3 -41 -6 -46 -28 -49 -64 -7 -108 -25 -119
-48 -12 -27 -13 -173 -2 -214 14 -49 57 -62 209 -62 205 1 226 17 226 172 1
100 -10 130 -48 130 -8 0 -18 5 -21 10 -3 6 -40 10 -81 10 -74 0 -74 0 -74 49
0 50 0 50 58 56 31 3 66 8 77 10 42 9 76 141 53 206 -17 49 -41 57 -197 60
-111 3 -147 1 -166 -10z m283 -40 c16 -10 18 -136 3 -155 -10 -12 -95 -23
-216 -30 -51 -2 -75 21 -75 73 0 65 11 102 34 111 27 11 237 12 254 1z m43
-387 c17 -20 18 -150 1 -180 -15 -27 -50 -34 -182 -34 -84 0 -110 3 -120 15
-17 20 -25 143 -11 177 12 33 24 35 177 37 101 1 124 -2 135 -15z"/>
</g>
</svg>
