<svg version="1.0" xmlns="http://www.w3.org/2000/svg"
 width="67.000000pt" height="87.000000pt" viewBox="0 0 67.000000 87.000000"
 preserveAspectRatio="xMidYMid meet">
<metadata>
Created by potrace 1.15, written by Peter Selinger 2001-2017
</metadata>
<g transform="translate(0.000000,87.000000) scale(0.100000,-0.100000)"
fill="#000000" stroke="none">
<path d="M303 571 c-23 -16 -62 -43 -85 -62 -24 -19 -62 -47 -86 -62 -47 -30
-61 -52 -44 -69 8 -8 21 -4 45 15 33 25 35 26 71 9 36 -16 36 -16 36 -89 0
-73 0 -73 -40 -93 -42 -22 -54 -45 -48 -100 2 -24 13 -41 41 -64 38 -30 41
-31 145 -30 129 0 162 13 186 74 9 22 16 49 16 59 0 27 -48 81 -71 81 -17 0
-19 8 -19 79 0 75 1 80 23 83 12 2 22 10 22 18 0 13 -24 15 -149 18 -148 3
-148 3 -85 50 35 26 77 53 93 60 36 16 49 8 147 -92 72 -75 101 -91 113 -60 9
24 -11 52 -52 74 -20 11 -68 45 -106 75 -38 30 -79 55 -90 54 -12 0 -40 -13
-63 -28z m107 -196 c0 -24 -3 -25 -59 -25 -60 0 -77 9 -67 35 4 11 22 15 66
15 57 0 60 -1 60 -25z m0 -94 c0 -32 -5 -35 -82 -46 -48 -6 -48 -6 -48 34 0
41 0 41 65 41 65 0 65 0 65 -29z m41 -91 c39 -22 18 -93 -35 -115 -34 -14
-127 -8 -178 13 -53 22 -43 94 16 105 45 9 178 7 197 -3z"/>
</g>
</svg>
