<svg version="1.0" xmlns="http://www.w3.org/2000/svg"
 width="45.000000pt" height="91.000000pt" viewBox="0 0 45.000000 91.000000"
 preserveAspectRatio="xMidYMid meet">
<metadata>
Created by potrace 1.15, written by Peter Selinger 2001-2017
</metadata>
<g transform="translate(0.000000,91.000000) scale(0.100000,-0.100000)"
fill="#000000" stroke="none">
<path d="M220 804 c-6 -14 -10 -96 -10 -182 -1 -86 -4 -175 -8 -197 -4 -22 -6
-48 -4 -58 3 -15 6 -14 24 8 11 14 29 30 40 36 20 11 21 9 15 -29 -4 -21 -14
-52 -22 -68 -11 -21 -14 -44 -9 -80 4 -33 2 -54 -5 -58 -14 -9 -15 -46 -1 -46
5 0 15 9 22 20 17 27 23 25 38 -10 13 -31 30 -40 30 -16 0 7 -7 29 -15 48 -12
31 -12 38 0 54 19 26 19 99 -1 129 -22 34 -11 79 16 70 31 -10 25 17 -11 51
-30 28 -31 29 -45 9 -44 -66 -46 -66 -40 19 3 43 6 103 6 133 0 72 21 70 43
-6 19 -65 69 -141 92 -141 10 0 2 19 -25 62 -27 41 -40 72 -40 95 0 25 -8 43
-30 65 -24 24 -30 38 -30 74 0 49 -15 58 -30 18z m80 -513 c0 -22 -16 -36 -24
-22 -8 12 3 41 15 41 5 0 9 -9 9 -19z"/>
</g>
</svg>
