<svg version="1.0" xmlns="http://www.w3.org/2000/svg"
 width="85.000000pt" height="111.000000pt" viewBox="0 0 85.000000 111.000000"
 preserveAspectRatio="xMidYMid meet">
<metadata>
Created by potrace 1.15, written by Peter Selinger 2001-2017
</metadata>
<g transform="translate(0.000000,111.000000) scale(0.100000,-0.100000)"
fill="#000000" stroke="none">
<path d="M210 925 c0 -36 -3 -65 -6 -65 -9 0 -67 33 -82 48 -16 14 -32 16 -32
3 0 -11 68 -81 98 -101 26 -17 31 -38 37 -165 2 -49 7 -112 10 -140 3 -27 9
-122 12 -210 3 -88 10 -168 15 -177 20 -40 27 -15 22 75 -10 151 -10 308 1
364 9 53 9 53 60 54 27 0 59 3 70 6 11 3 55 7 98 10 42 3 77 9 77 14 0 5 41 9
91 9 92 0 92 0 85 -30 -3 -19 -2 -29 4 -25 5 3 12 -7 15 -22 3 -15 10 -44 16
-63 5 -19 11 -62 13 -95 5 -75 15 -116 27 -109 11 6 12 111 1 118 -4 2 -8 37
-10 78 -2 92 -19 166 -41 176 -20 10 -287 8 -408 -3 -93 -8 -93 -8 -93 29 0
29 9 45 45 84 64 67 60 77 -14 41 -24 -11 -47 -17 -52 -12 -7 7 -39 143 -39
166 0 4 -4 7 -10 7 -6 0 -10 -28 -10 -65z"/>
<path d="M630 600 c0 -5 5 -10 10 -10 6 0 10 5 10 10 0 6 -4 10 -10 10 -5 0
-10 -4 -10 -10z"/>
<path d="M510 499 c0 -12 -23 -42 -57 -75 -62 -57 -61 -66 5 -34 22 11 43 20
46 20 8 0 22 -84 25 -145 2 -70 -13 -112 -64 -179 -28 -37 -32 -48 -20 -52 14
-6 54 30 55 49 0 4 5 7 11 7 6 0 17 7 25 15 15 14 62 11 74 -5 15 -19 72 -51
87 -48 12 2 -1 18 -44 53 -57 46 -62 53 -63 90 0 22 -6 63 -14 90 -7 28 -11
65 -9 82 5 30 6 30 49 25 24 -2 44 -2 44 2 0 4 -20 16 -45 27 -30 13 -54 33
-70 60 -29 44 -35 48 -35 18z"/>
</g>
</svg>
