<svg version="1.0" xmlns="http://www.w3.org/2000/svg"
 width="49.000000pt" height="75.000000pt" viewBox="0 0 49.000000 75.000000"
 preserveAspectRatio="xMidYMid meet">
<metadata>
Created by potrace 1.15, written by Peter Selinger 2001-2017
</metadata>
<g transform="translate(0.000000,75.000000) scale(0.100000,-0.100000)"
fill="#000000" stroke="none">
<path d="M225 590 c-6 -10 -4 -22 17 -91 10 -35 9 -38 -31 -79 -38 -39 -50
-68 -35 -83 9 -8 84 31 84 43 0 27 29 4 47 -37 40 -94 39 -103 -26 -174 -34
-36 -42 -41 -51 -29 -6 8 -8 32 -4 53 5 30 3 37 -11 37 -35 0 -65 -51 -65
-113 0 -36 4 -46 24 -57 39 -21 75 -4 148 71 82 84 83 95 35 232 -34 93 -34
93 -11 123 23 28 32 64 16 64 -4 0 -14 -9 -22 -20 -15 -21 -50 -28 -50 -10 0
14 -43 80 -52 80 -4 0 -10 -5 -13 -10z"/>
</g>
</svg>
