<svg version="1.0" xmlns="http://www.w3.org/2000/svg"
 width="51.000000pt" height="63.000000pt" viewBox="0 0 51.000000 63.000000"
 preserveAspectRatio="xMidYMid meet">
<metadata>
Created by potrace 1.15, written by Peter Selinger 2001-2017
</metadata>
<g transform="translate(0.000000,63.000000) scale(0.100000,-0.100000)"
fill="#000000" stroke="none">
<path d="M188 418 c-3 -24 -15 -27 -55 -14 -41 13 -26 -23 17 -41 39 -17 40
-19 40 -65 0 -26 -4 -50 -10 -53 -18 -11 -11 -103 10 -149 26 -54 61 -73 95
-50 14 9 25 19 25 23 0 4 8 16 18 27 81 88 57 218 -49 260 -25 11 -38 23 -45
47 -11 39 -41 49 -46 15z m124 -125 c29 -35 36 -85 18 -128 -16 -38 -64 -95
-80 -95 -18 0 -38 40 -45 88 -7 56 -5 59 25 40 34 -21 36 3 3 32 -24 22 -29
31 -20 37 8 4 16 16 20 26 4 11 17 17 35 17 16 0 36 -8 44 -17z"/>
</g>
</svg>
