<svg version="1.0" xmlns="http://www.w3.org/2000/svg"
 width="39.000000pt" height="59.000000pt" viewBox="0 0 39.000000 59.000000"
 preserveAspectRatio="xMidYMid meet">
<metadata>
Created by potrace 1.15, written by Peter Selinger 2001-2017
</metadata>
<g transform="translate(0.000000,59.000000) scale(0.100000,-0.100000)"
fill="#000000" stroke="none">
<path d="M226 411 c7 -61 7 -61 -60 -61 -38 0 -66 -4 -66 -10 0 -16 46 -30 96
-30 45 0 45 0 38 -37 -9 -49 -84 -163 -106 -163 -26 0 -24 55 2 73 21 15 17
27 -10 27 -50 0 -67 -78 -29 -131 17 -24 23 -27 38 -17 10 6 26 23 35 37 8 14
31 44 51 66 25 29 38 56 46 97 10 48 16 59 35 64 31 8 31 24 -1 24 -19 0 -26
7 -31 28 -17 75 -21 86 -32 90 -9 3 -10 -12 -6 -57z"/>
</g>
</svg>
