<svg version="1.0" xmlns="http://www.w3.org/2000/svg"
 width="35.000000pt" height="57.000000pt" viewBox="0 0 35.000000 57.000000"
 preserveAspectRatio="xMidYMid meet">
<metadata>
Created by potrace 1.15, written by Peter Selinger 2001-2017
</metadata>
<g transform="translate(0.000000,57.000000) scale(0.100000,-0.100000)"
fill="#000000" stroke="none">
<path d="M95 441 c-27 -6 -31 -11 -26 -41 3 -20 47 -32 138 -36 51 -2 98 -6
102 -9 14 -8 41 6 41 21 0 22 -44 44 -117 60 -72 15 -90 16 -138 5z"/>
<path d="M110 245 c0 -40 58 -60 158 -56 18 1 22 7 22 31 0 38 -27 50 -116 50
-61 0 -64 -1 -64 -25z"/>
<path d="M97 80 c-20 -4 -40 -10 -44 -13 -12 -12 18 -35 61 -47 52 -14 200
-10 217 7 16 16 2 50 -24 57 -29 8 -162 6 -210 -4z"/>
</g>
</svg>
