<svg version="1.0" xmlns="http://www.w3.org/2000/svg"
 width="109.000000pt" height="153.000000pt" viewBox="0 0 109.000000 153.000000"
 preserveAspectRatio="xMidYMid meet">
<metadata>
Created by potrace 1.15, written by Peter Selinger 2001-2017
</metadata>
<g transform="translate(0.000000,153.000000) scale(0.100000,-0.100000)"
fill="#000000" stroke="none">
<path d="M170 1330 c0 -11 4 -20 8 -20 4 0 15 -12 24 -27 9 -16 27 -39 40 -53
13 -14 31 -35 41 -46 19 -23 47 -119 47 -162 0 -16 8 -32 20 -40 11 -7 20 -19
20 -28 0 -8 7 -29 16 -46 15 -28 14 -34 -2 -77 -29 -78 -72 -169 -83 -176 -26
-16 1 -107 46 -153 6 -6 15 -21 18 -32 3 -11 10 -20 14 -20 5 0 18 -32 31 -71
15 -50 25 -67 31 -58 22 35 -5 133 -60 212 -42 62 -40 74 12 81 124 19 159 30
173 58 8 15 14 49 14 76 0 53 -6 62 -83 126 -30 25 -47 47 -47 61 0 12 -3 25
-7 29 -4 4 -13 33 -19 64 -11 52 -10 60 9 87 12 17 24 32 27 35 11 10 30 50
30 63 0 7 9 31 20 52 19 37 20 85 2 85 -8 0 -32 -36 -75 -115 -49 -88 -43 -89
-152 19 -53 53 -101 96 -106 96 -5 0 -9 -9 -9 -20z m345 -581 c9 -48 -12 -69
-69 -69 -23 0 -45 2 -48 5 -7 7 51 117 66 127 17 11 44 -23 51 -63z"/>
<path d="M222 1071 c-8 -4 -12 -19 -10 -32 2 -19 -3 -24 -30 -30 -22 -4 -43
-2 -60 7 -57 29 -65 13 -31 -64 32 -73 34 -76 63 -86 53 -20 110 51 115 143 3
62 -13 84 -47 62z m-10 -131 c-4 -25 -9 -30 -32 -30 -20 0 -31 6 -35 20 -9 29
2 40 39 40 30 0 32 -2 28 -30z"/>
<path d="M775 998 c3 -13 9 -99 12 -193 6 -170 6 -170 -41 -171 -26 0 -57 -6
-69 -12 -12 -5 -31 -13 -42 -17 -20 -7 -20 -7 0 -15 11 -4 48 -6 81 -3 114 10
210 -29 215 -87 5 -61 1 -65 -31 -31 -17 17 -39 31 -50 31 -25 0 -25 -12 -1
-34 24 -22 33 -54 18 -63 -7 -5 -34 -13 -62 -19 -50 -11 -50 -11 -20 -23 27
-11 50 -10 88 4 11 5 17 -11 27 -72 7 -43 24 -100 37 -128 27 -56 83 -125 101
-125 17 0 16 3 -18 53 -24 36 -30 56 -30 98 0 57 -17 126 -45 178 -15 30 -15
32 11 58 22 22 26 33 21 68 -5 50 -49 104 -101 125 -32 12 -34 16 -40 72 -4
33 -5 62 -3 64 2 2 23 -3 47 -11 82 -29 91 -16 25 33 -46 33 -75 84 -75 131
-1 34 -36 111 -51 111 -7 0 -9 -8 -4 -22z"/>
</g>
</svg>
