<svg version="1.0" xmlns="http://www.w3.org/2000/svg"
 width="93.000000pt" height="173.000000pt" viewBox="0 0 93.000000 173.000000"
 preserveAspectRatio="xMidYMid meet">
<metadata>
Created by potrace 1.15, written by Peter Selinger 2001-2017
</metadata>
<g transform="translate(0.000000,173.000000) scale(0.100000,-0.100000)"
fill="#000000" stroke="none">
<path d="M100 1673 c0 -21 5 -29 50 -84 63 -76 108 -119 124 -119 9 0 16 -4
16 -9 0 -5 21 -19 48 -31 26 -12 49 -25 52 -29 3 -3 14 -11 24 -17 28 -15 45
-45 29 -51 -7 -3 -13 -10 -13 -16 0 -7 -7 -25 -15 -40 -8 -15 -17 -43 -21 -63
-3 -19 -10 -37 -15 -40 -13 -8 -10 -172 4 -224 7 -25 25 -69 40 -98 33 -65 33
-75 4 -91 -24 -13 -46 -50 -66 -113 -7 -22 -11 -93 -10 -180 1 -79 -4 -163
-10 -188 -18 -70 -53 -142 -83 -173 -26 -25 -38 -66 -20 -68 4 0 16 -2 28 -3
14 -2 24 6 32 24 7 14 25 33 40 42 16 10 42 43 59 75 32 61 40 113 49 313 8
193 19 216 120 245 31 9 65 25 77 36 11 10 28 19 38 19 19 0 76 93 85 140 6
28 -12 130 -25 140 -3 3 -26 46 -51 95 -25 50 -47 92 -50 95 -3 3 -12 19 -20
35 -8 17 -17 32 -20 35 -3 3 -11 15 -18 28 -11 20 -9 24 20 41 18 11 39 25 47
32 38 34 103 79 113 79 6 0 18 7 27 15 9 8 29 25 45 38 32 26 30 61 -5 72 -19
6 -179 -60 -179 -74 0 -3 -17 -17 -38 -31 -20 -14 -51 -40 -69 -59 -36 -38
-52 -37 -80 6 -16 24 -67 77 -106 109 -25 21 -74 43 -108 49 -19 3 -47 13 -63
21 -16 7 -35 14 -43 14 -7 0 -13 5 -13 10 0 6 -7 10 -15 10 -8 0 -15 -8 -15
-17z m441 -444 c19 -23 38 -49 43 -58 5 -9 12 -18 15 -21 12 -10 43 -71 52
-103 31 -104 16 -163 -51 -197 -22 -11 -45 -20 -52 -20 -20 0 -78 102 -81 141
-1 19 -6 37 -11 40 -10 8 11 159 27 199 6 14 9 33 8 43 -4 28 14 20 50 -24z"/>
</g>
</svg>
