<svg version="1.0" xmlns="http://www.w3.org/2000/svg"
 width="119.000000pt" height="187.000000pt" viewBox="0 0 119.000000 187.000000"
 preserveAspectRatio="xMidYMid meet">
<metadata>
Created by potrace 1.15, written by Peter Selinger 2001-2017
</metadata>
<g transform="translate(0.000000,187.000000) scale(0.100000,-0.100000)"
fill="#000000" stroke="none">
<path d="M425 1665 c-5 -2 -27 -6 -48 -10 -32 -5 -38 -10 -35 -28 5 -37 52
-51 178 -55 118 -3 194 -17 212 -39 14 -17 6 -19 -126 -33 -59 -6 -118 -16
-129 -23 -43 -25 -70 -55 -63 -72 5 -14 15 -16 59 -10 28 3 80 7 114 9 56 3
62 1 74 -21 15 -28 13 -30 -36 -36 -52 -7 -97 -21 -135 -44 -27 -16 -32 -16
-41 -3 -9 12 -10 12 -5 -3 4 -11 -2 -31 -14 -47 -11 -15 -20 -38 -20 -50 0
-21 36 -81 52 -88 4 -2 8 -13 8 -23 0 -11 4 -18 9 -14 16 9 131 -27 131 -41 0
-16 -58 -140 -81 -174 -9 -14 -20 -47 -24 -73 -6 -38 -4 -48 9 -53 21 -8 46
13 46 38 0 10 11 30 24 43 13 13 34 42 47 64 37 66 55 62 83 -19 20 -58 20
-62 -5 -115 -19 -41 -24 -44 -67 -50 -86 -10 -164 -26 -183 -38 -48 -30 0 -67
87 -67 29 0 55 -4 59 -10 3 -5 -11 -38 -32 -72 -66 -109 -69 -118 -53 -128 8
-6 18 -10 22 -10 11 0 99 97 134 149 35 51 35 51 134 51 91 0 104 -2 139 -25
36 -24 50 -44 66 -90 16 -47 35 -128 35 -150 0 -27 19 -76 34 -87 16 -11 46
16 46 43 0 14 -9 68 -20 120 -11 52 -23 107 -26 123 -13 76 -82 125 -219 153
-38 8 -72 17 -74 19 -4 4 12 63 32 117 7 20 6 40 -2 69 -15 47 -51 108 -66
108 -11 0 -65 44 -65 53 0 3 21 7 48 10 26 3 60 8 75 12 21 6 39 2 65 -12 21
-11 49 -23 64 -27 42 -10 65 -41 72 -99 9 -66 33 -117 56 -117 30 0 43 26 36
72 -4 24 -10 73 -15 109 -7 61 -32 152 -52 191 -5 10 -9 24 -9 31 0 16 -36 49
-70 64 -27 11 -105 44 -157 65 -27 10 -33 18 -33 43 0 44 13 57 70 72 49 12
53 12 80 -9 16 -13 36 -40 46 -61 9 -20 23 -42 31 -48 7 -6 13 -20 13 -30 0
-21 44 -54 60 -44 15 9 2 100 -22 152 -18 38 -37 59 -105 114 -11 9 -44 30
-74 46 -30 17 -70 40 -89 51 -51 31 -142 51 -250 55 -52 3 -99 3 -105 2z m231
-427 c3 -5 3 -29 0 -52 -7 -43 -7 -43 -61 -45 -43 -1 -60 4 -75 19 -28 28 -25
47 12 66 61 32 109 36 124 12z m186 -14 c69 -21 100 -47 115 -96 11 -36 10
-38 -12 -38 -13 0 -49 7 -80 15 -31 8 -62 12 -70 8 -8 -3 -26 -2 -40 1 -29 7
-32 34 -13 97 8 28 16 38 27 35 9 -3 42 -12 73 -22z"/>
<path d="M82 1606 c-6 -14 -14 -69 -18 -123 -5 -77 -3 -107 10 -143 17 -49 24
-181 35 -660 4 -183 10 -284 18 -302 13 -30 31 -36 38 -16 5 13 13 95 14 135
1 15 12 28 34 39 42 22 77 63 77 91 0 12 4 25 10 28 5 3 10 23 10 44 0 20 5
42 12 49 9 10 9 15 -3 27 -13 13 -20 10 -63 -25 -26 -22 -57 -40 -67 -40 -18
0 -19 7 -15 75 3 68 6 77 31 97 46 36 60 55 72 100 20 76 24 145 7 159 -17 14
-16 14 -39 -31 -46 -89 -75 -80 -75 25 0 61 11 96 40 127 11 12 20 26 20 31 0
5 9 21 19 35 12 18 21 54 26 105 9 90 -1 98 -52 42 -35 -38 -67 -45 -78 -17
-5 9 -11 51 -14 92 -5 57 -10 76 -22 78 -9 1 -20 -8 -27 -22z"/>
<path d="M762 480 c-6 -11 -12 -37 -12 -58 0 -21 -5 -43 -12 -50 -17 -17 -14
-95 5 -123 10 -13 17 -40 17 -60 0 -37 0 -37 -82 -36 -51 1 -96 -4 -115 -12
-37 -15 -38 -17 -20 -35 19 -19 66 -27 232 -36 83 -5 178 -12 213 -16 55 -6
122 7 122 23 0 14 -30 31 -65 36 -22 4 -60 11 -85 17 -25 6 -62 13 -82 17 -34
5 -38 9 -38 34 0 16 9 46 21 68 23 46 19 97 -12 130 -10 11 -19 33 -19 49 0
26 -31 72 -48 72 -4 0 -13 -9 -20 -20z"/>
</g>
</svg>
