<svg version="1.0" xmlns="http://www.w3.org/2000/svg"
 width="69.000000pt" height="133.000000pt" viewBox="0 0 69.000000 133.000000"
 preserveAspectRatio="xMidYMid meet">
<metadata>
Created by potrace 1.15, written by Peter Selinger 2001-2017
</metadata>
<g transform="translate(0.000000,133.000000) scale(0.100000,-0.100000)"
fill="#000000" stroke="none">
<path d="M497 1234 c-6 -17 -27 -140 -27 -155 0 -13 -37 -22 -113 -26 -73 -4
-78 -3 -74 14 3 10 8 48 12 84 5 49 3 68 -7 77 -25 20 -38 -4 -50 -91 -11 -81
-13 -87 -34 -87 -32 0 -94 -31 -94 -47 0 -15 6 -16 75 -17 49 -1 49 -1 61 -54
7 -30 22 -64 34 -77 19 -21 20 -24 5 -39 -9 -9 -20 -16 -25 -16 -4 0 -22 -14
-40 -30 -28 -26 -33 -39 -36 -86 -3 -31 0 -73 6 -94 10 -39 59 -100 79 -100
25 0 6 -25 -90 -120 -56 -55 -97 -100 -92 -100 15 0 63 25 63 33 0 4 7 7 15 7
8 0 31 17 52 38 22 20 51 45 67 55 28 19 28 19 24 -90 -3 -59 -8 -116 -12
-125 -6 -13 -4 -18 8 -18 9 0 16 4 16 8 0 5 12 23 26 40 29 34 48 39 88 21 20
-9 29 -9 41 1 13 11 12 15 -10 36 -14 13 -41 31 -60 40 -31 14 -35 21 -35 55
0 32 4 39 19 39 11 0 23 -4 26 -10 3 -5 17 -10 31 -10 13 0 24 -4 24 -8 0 -11
87 -35 99 -28 13 8 3 36 -13 36 -7 0 -22 9 -34 20 -12 11 -24 20 -27 20 -13 0
-95 61 -95 70 0 6 8 10 18 10 19 0 57 31 90 74 44 57 20 168 -45 212 -33 22
-33 22 -2 52 18 18 38 53 49 88 19 63 25 67 103 79 41 7 53 35 15 35 -13 0
-40 5 -62 11 -38 11 -38 11 -32 78 6 58 4 71 -12 91 -19 23 -20 23 -25 4z
m-38 -243 c9 -6 10 -11 2 -15 -6 -4 -11 -19 -11 -34 -1 -92 -130 -102 -145
-11 -4 21 -6 42 -6 46 0 5 31 11 68 14 38 3 70 6 73 7 3 1 11 -2 19 -7z m-143
-269 c16 -98 16 -148 0 -161 -28 -23 -62 18 -69 82 -6 59 0 73 34 91 27 14 32
13 35 -12z m115 15 c20 -16 39 -51 39 -74 0 -10 -14 -35 -31 -56 -35 -42 -65
-50 -55 -14 3 12 6 52 6 90 0 69 8 80 41 54z"/>
<path d="M557 204 c-4 -4 -7 -17 -7 -29 0 -24 -42 -65 -66 -65 -9 0 -32 13
-51 30 -39 34 -73 40 -73 11 0 -28 -37 -70 -77 -86 -20 -8 -39 -15 -43 -15 -4
0 -30 18 -56 40 -27 22 -51 35 -52 30 -7 -20 20 -70 51 -96 25 -21 36 -24 71
-19 23 4 61 19 86 33 35 21 59 27 105 28 33 0 74 6 92 14 37 17 67 64 62 100
-4 24 -28 38 -42 24z"/>
</g>
</svg>
