<svg version="1.0" xmlns="http://www.w3.org/2000/svg"
 width="93.000000pt" height="181.000000pt" viewBox="0 0 93.000000 181.000000"
 preserveAspectRatio="xMidYMid meet">
<metadata>
Created by potrace 1.15, written by Peter Selinger 2001-2017
</metadata>
<g transform="translate(0.000000,181.000000) scale(0.100000,-0.100000)"
fill="#000000" stroke="none">
<path d="M623 1695 c-7 -8 -13 -21 -13 -29 0 -8 -4 -18 -10 -21 -5 -3 -10 -19
-10 -34 0 -48 -18 -54 -134 -46 -105 7 -105 7 -116 61 -15 73 -37 71 -50 -6
-5 -35 -5 -35 -76 -41 -123 -11 -158 -48 -46 -50 111 -2 117 -5 120 -73 2 -33
7 -67 12 -77 6 -10 10 -28 10 -41 0 -13 14 -40 30 -60 30 -37 30 -37 0 -54
-16 -10 -30 -22 -30 -26 0 -4 -6 -8 -12 -8 -14 0 -46 -24 -107 -77 -28 -24
-33 -34 -24 -44 9 -9 23 -6 60 13 54 28 113 61 148 84 18 12 24 12 27 2 8 -22
-12 -52 -52 -80 -21 -15 -46 -38 -55 -52 -21 -32 -32 -106 -16 -106 6 0 11 -7
11 -16 0 -9 23 -37 50 -63 39 -37 50 -54 50 -78 0 -18 -4 -35 -10 -38 -6 -3
-10 -15 -10 -26 0 -10 -4 -19 -9 -19 -5 0 -19 -21 -32 -47 -13 -26 -40 -76
-61 -110 -43 -70 -46 -83 -20 -83 18 1 85 77 114 132 10 18 28 40 40 49 24 19
33 13 57 -33 8 -16 18 -28 23 -28 4 0 8 -5 8 -11 0 -6 19 -33 41 -61 40 -47
42 -48 60 -32 25 22 24 28 -9 77 -64 94 -118 237 -99 256 6 6 15 11 19 11 14
0 103 72 117 95 13 20 13 31 1 82 -11 45 -24 68 -56 101 -23 23 -49 42 -58 42
-21 0 -28 16 -21 50 6 29 6 29 58 -2 29 -17 77 -44 107 -60 30 -16 57 -32 60
-36 11 -14 38 -12 44 4 8 21 -11 44 -35 44 -11 0 -19 4 -19 8 0 21 -59 69
-132 107 -46 24 -52 63 -15 88 26 17 77 115 77 148 0 21 1 22 106 15 95 -7
107 -6 120 11 7 10 14 21 14 25 0 12 -107 38 -159 38 -51 0 -51 0 -45 55 5 38
3 59 -6 70 -15 18 -21 18 -37 0z m-63 -202 c0 -52 -103 -192 -132 -180 -21 8
-72 116 -81 170 -4 28 -4 28 104 26 80 -2 109 -7 109 -16z m-32 -467 c16 -14
22 -30 22 -62 0 -37 -5 -46 -35 -70 -22 -16 -40 -23 -45 -18 -5 5 -6 51 -3
102 6 100 4 98 61 48z m-135 -48 c-3 -40 -7 -74 -8 -76 -7 -8 -34 13 -44 34
-16 35 -14 52 10 85 36 51 49 39 42 -43z"/>
<path d="M404 432 c-21 -13 -36 -84 -39 -175 -1 -51 -5 -99 -9 -107 -10 -24
-46 -42 -91 -47 -22 -2 -46 -4 -52 -5 -17 -2 -48 -37 -40 -45 11 -10 377 -15
422 -6 59 13 51 34 -20 53 -33 9 -74 25 -91 35 -29 18 -32 24 -39 94 -11 107
-13 131 -14 174 -1 37 -6 43 -27 29z"/>
<path d="M526 368 c-12 -61 -14 -102 -6 -124 11 -28 22 -30 45 -8 13 13 15 28
9 72 -9 72 -38 108 -48 60z"/>
<path d="M240 370 c-14 -9 -16 -138 -1 -153 5 -5 18 -3 29 4 17 10 21 23 20
64 0 79 -15 105 -48 85z"/>
</g>
</svg>
