<svg version="1.0" xmlns="http://www.w3.org/2000/svg"
 width="129.000000pt" height="195.000000pt" viewBox="0 0 129.000000 195.000000"
 preserveAspectRatio="xMidYMid meet">
<metadata>
Created by potrace 1.15, written by Peter Selinger 2001-2017
</metadata>
<g transform="translate(0.000000,195.000000) scale(0.100000,-0.100000)"
fill="#000000" stroke="none">
<path d="M777 1802 c-4 -5 -19 -12 -34 -15 -16 -3 -39 -15 -52 -26 -24 -21
-24 -21 -5 -42 10 -11 56 -39 101 -61 46 -23 83 -46 83 -52 0 -6 -18 -19 -39
-29 -50 -23 -95 -70 -134 -138 -28 -48 -31 -62 -30 -131 1 -59 5 -83 20 -105
36 -51 154 -303 179 -381 15 -49 24 -100 24 -143 0 -53 3 -68 17 -73 9 -4 23
0 31 7 11 12 12 28 3 93 -13 86 -27 163 -44 235 -14 64 -6 80 35 72 18 -3 38
-9 43 -13 12 -9 107 -30 135 -30 22 0 28 28 8 34 -7 2 -33 10 -56 17 -34 10
-48 10 -63 1 -25 -16 -34 -15 -20 1 15 19 4 27 -36 27 -26 0 -33 4 -33 20 0
11 4 20 9 20 5 0 16 18 25 40 9 23 23 43 31 47 9 3 43 -6 76 -21 33 -14 69
-26 79 -26 10 0 22 -4 25 -10 10 -16 75 -12 75 4 0 13 -98 66 -122 66 -5 0
-28 9 -50 20 -23 11 -48 20 -55 20 -17 0 -16 19 2 63 14 34 15 35 50 23 19 -7
38 -15 41 -19 4 -4 15 -7 24 -7 8 0 33 -9 55 -20 22 -11 47 -20 57 -20 11 0
18 7 18 20 0 13 -7 20 -19 20 -11 0 -21 3 -23 8 -4 9 -148 72 -165 72 -7 0
-13 2 -13 4 0 2 -3 13 -6 23 -5 15 -4 15 5 3 8 -12 11 -11 16 5 4 11 11 28 16
37 5 10 9 24 9 32 0 32 52 30 100 -4 36 -26 100 -37 100 -18 0 8 -12 21 -27
29 -16 8 -30 17 -33 21 -3 3 -49 27 -104 53 -98 47 -98 47 -72 71 36 34 42 67
20 105 -29 50 -84 72 -185 77 -51 3 -89 0 -92 -6z m191 -63 c2 -5 10 -9 17 -9
7 0 16 -7 19 -17 7 -18 -29 -63 -51 -63 -22 0 -136 81 -126 90 20 20 134 19
141 -1z m-13 -179 c3 -5 14 -10 24 -10 37 0 44 -25 26 -85 -10 -30 -20 -55
-23 -55 -16 0 -72 25 -72 32 0 4 -6 8 -12 8 -7 0 -25 11 -40 24 -28 23 -37 46
-19 46 5 0 16 6 23 13 15 15 58 35 75 36 6 1 15 -3 18 -9z m-125 -139 c3 -4
32 -21 65 -38 58 -31 60 -34 58 -70 -2 -20 -7 -41 -11 -45 -12 -12 -95 8 -154
38 -49 25 -50 26 -43 61 10 55 25 73 55 66 14 -3 27 -9 30 -12z m-10 -194 c84
-29 92 -34 81 -55 -11 -22 -28 -62 -35 -84 -4 -14 -9 -15 -30 -5 -13 7 -33 25
-43 42 -22 38 -54 125 -45 125 4 0 36 -11 72 -23z"/>
<path d="M175 1757 c-22 -5 -58 -28 -82 -50 -38 -36 -43 -45 -43 -85 0 -39 6
-53 46 -110 1 -2 32 -14 69 -27 97 -33 160 -21 218 44 23 26 27 40 27 91 0 54
-4 64 -31 94 -45 50 -119 66 -204 43z m151 -74 c27 -31 30 -53 12 -85 -22 -38
-35 -47 -82 -60 -44 -12 -47 -11 -83 19 -32 25 -39 37 -41 72 -5 66 11 77 117
80 47 1 57 -2 77 -26z"/>
<path d="M140 1359 c-55 -22 -110 -96 -110 -148 0 -44 16 -72 64 -108 55 -42
109 -51 178 -27 71 24 93 45 106 103 10 44 9 53 -11 89 -41 75 -154 120 -227
91z m117 -65 c24 -5 31 -13 42 -50 24 -82 -5 -114 -105 -114 -57 0 -84 25 -84
78 0 45 29 78 75 85 17 2 33 5 36 6 4 0 20 -2 36 -5z"/>
<path d="M170 882 c-13 -31 -48 -92 -78 -136 -59 -87 -74 -129 -47 -139 9 -4
30 0 46 9 17 8 42 14 57 12 50 -6 38 -63 -27 -138 -75 -85 -86 -179 -31 -260
25 -37 35 -78 38 -157 2 -42 22 -63 22 -23 0 11 5 20 10 20 6 0 10 16 10 36 0
56 12 70 62 69 43 -1 43 -1 43 -58 0 -55 14 -85 33 -73 5 3 13 43 17 89 5 71
10 88 33 113 31 33 52 87 52 131 0 35 -38 113 -54 113 -6 0 -28 15 -49 33 -33
28 -37 37 -37 78 0 46 0 46 53 57 28 7 61 13 72 15 27 4 21 28 -18 70 -74 79
-107 118 -123 144 -18 28 -43 53 -53 53 -3 0 -17 -26 -31 -58z m115 -132 c19
-21 19 -22 0 -36 -10 -8 -28 -14 -39 -14 -12 0 -38 -3 -58 -6 -31 -6 -38 -4
-38 10 0 9 5 22 11 29 5 7 19 27 30 45 19 33 19 33 47 14 15 -11 36 -30 47
-42z m-16 -264 c21 -14 48 -38 60 -54 26 -38 28 -82 4 -82 -21 0 -90 23 -99
33 -4 4 -14 7 -21 7 -19 0 -43 25 -43 44 0 14 47 76 57 76 2 0 21 -11 42 -24z
m-61 -158 c45 -25 92 -60 92 -69 0 -3 -13 -12 -30 -19 -33 -14 -71 -8 -94 15
-8 8 -18 15 -22 15 -28 0 -57 64 -38 83 9 9 52 -3 92 -25z"/>
</g>
</svg>
