<svg version="1.0" xmlns="http://www.w3.org/2000/svg"
 width="65.000000pt" height="83.000000pt" viewBox="0 0 65.000000 83.000000"
 preserveAspectRatio="xMidYMid meet">
<metadata>
Created by potrace 1.15, written by Peter Selinger 2001-2017
</metadata>
<g transform="translate(0.000000,83.000000) scale(0.100000,-0.100000)"
fill="#000000" stroke="none">
<path d="M277 748 c-62 -61 -98 -87 -152 -114 -57 -27 -72 -54 -32 -54 23 0
97 43 175 101 43 32 43 32 85 11 83 -41 160 -72 178 -72 53 0 6 47 -71 71 -71
21 -108 42 -119 65 -14 32 -24 30 -64 -8z"/>
<path d="M300 633 c0 -38 -8 -46 -59 -63 -24 -8 -53 -27 -64 -41 -18 -24 -18
-28 -3 -56 18 -36 33 -43 87 -43 39 0 39 0 39 -40 0 -36 3 -41 36 -55 20 -8
60 -15 88 -15 83 0 88 -7 94 -149 3 -67 8 -123 11 -126 4 -2 13 0 21 5 11 7
12 30 3 136 -10 120 -12 130 -37 151 -23 19 -39 23 -95 23 -92 0 -98 13 -11
25 87 12 89 31 3 27 -69 -3 -93 12 -35 23 58 10 82 30 82 68 0 50 -20 70 -76
76 -54 7 -64 23 -19 31 36 6 39 24 5 28 -14 2 -29 8 -34 13 -19 18 -36 9 -36
-18z m118 -95 c11 -11 18 -58 8 -58 -2 0 -27 -5 -57 -10 -63 -12 -149 -3 -156
17 -8 19 24 51 56 56 59 9 138 6 149 -5z"/>
<path d="M237 503 c-18 -18 -1 -24 65 -21 46 2 73 7 76 16 3 9 -15 12 -65 12
-39 0 -73 -3 -76 -7z"/>
<path d="M199 312 c-9 -15 -24 -22 -45 -22 -31 0 -60 -21 -47 -33 3 -4 25 -7
48 -7 35 0 44 -4 53 -25 13 -29 48 -40 98 -30 28 5 39 13 47 35 8 22 18 30 42
32 35 3 37 21 3 26 -13 2 -30 10 -39 18 -14 13 -18 13 -29 -1 -19 -23 -78 -19
-100 7 -17 22 -17 22 -31 0z m119 -64 c-3 -7 -20 -13 -38 -13 -18 0 -35 6 -37
13 -3 8 8 12 37 12 29 0 40 -4 38 -12z"/>
<path d="M424 208 c12 -37 12 -51 0 -55 -6 -2 -16 8 -24 22 -7 14 -19 25 -27
25 -16 0 -16 -5 -2 -32 15 -27 -3 -45 -24 -24 -32 33 -51 9 -23 -30 9 -11 26
-19 43 -19 25 0 28 -4 31 -38 4 -51 26 -43 30 10 2 23 10 47 18 53 16 14 19
63 4 91 -15 27 -34 24 -26 -3z"/>
<path d="M131 171 c-27 -37 -26 -45 4 -69 16 -13 24 -28 23 -43 -4 -33 28 -37
36 -5 4 17 16 28 34 32 33 8 62 32 62 51 0 8 -3 13 -7 11 -5 -2 -20 -10 -36
-17 -32 -17 -46 -8 -29 19 15 25 15 30 -1 30 -8 0 -19 -11 -25 -25 -6 -14 -16
-25 -22 -25 -13 0 -13 27 0 35 15 9 12 35 -4 35 -8 0 -24 -13 -35 -29z"/>
</g>
</svg>
