<svg version="1.0" xmlns="http://www.w3.org/2000/svg"
 width="73.000000pt" height="87.000000pt" viewBox="0 0 73.000000 87.000000"
 preserveAspectRatio="xMidYMid meet">
<metadata>
Created by potrace 1.15, written by Peter Selinger 2001-2017
</metadata>
<g transform="translate(0.000000,87.000000) scale(0.100000,-0.100000)"
fill="#000000" stroke="none">
<path d="M427 713 c-23 -23 7 -66 55 -78 53 -13 54 -30 4 -83 -117 -125 -98
-222 42 -222 52 0 64 4 91 29 59 55 28 137 -55 148 -57 7 -66 -12 -15 -33 63
-25 68 -83 9 -103 -43 -15 -62 -14 -88 7 -37 30 -21 77 51 152 33 34 59 69 57
78 -2 9 -35 37 -73 64 -82 56 -70 50 -78 41z"/>
<path d="M207 650 c-21 -17 -30 -18 -53 -10 -30 12 -54 7 -54 -10 0 -6 12 -15
27 -21 26 -10 26 -10 -10 -47 -21 -21 -37 -42 -37 -48 0 -6 16 -25 35 -44 35
-34 35 -34 4 -67 -32 -32 -32 -32 -27 -197 6 -174 10 -195 34 -175 11 9 14 46
14 174 0 125 3 165 14 174 33 27 56 -67 56 -234 0 -107 9 -140 32 -117 26 26
8 315 -24 379 -8 17 -8 26 2 38 22 26 54 14 67 -26 19 -59 35 -228 28 -299 -7
-71 2 -93 30 -70 31 26 9 321 -30 414 -13 30 -12 32 18 57 28 24 31 30 22 55
-10 29 -86 94 -109 94 -8 0 -25 -9 -39 -20z m62 -45 c33 -17 44 -38 28 -54
-16 -16 -22 -14 -57 15 -24 21 -28 29 -19 40 14 17 14 17 48 -1z m-50 -114
c-30 -26 -40 -26 -67 -1 -28 27 -28 34 5 60 27 21 27 21 57 -9 30 -30 30 -30
5 -50z"/>
<path d="M590 265 c0 -30 -26 -45 -80 -45 -34 0 -42 4 -50 25 -5 14 -16 25
-25 25 -12 0 -15 -16 -15 -93 0 -59 4 -97 12 -105 7 -7 42 -12 88 -12 108 0
120 13 120 123 0 82 -9 107 -37 107 -7 0 -13 -11 -13 -25z m-10 -114 c0 -44
-10 -51 -70 -51 -39 0 -50 11 -50 51 0 23 31 37 83 38 37 1 37 1 37 -38z"/>
</g>
</svg>
