<svg version="1.0" xmlns="http://www.w3.org/2000/svg"
 width="101.000000pt" height="111.000000pt" viewBox="0 0 101.000000 111.000000"
 preserveAspectRatio="xMidYMid meet">
<metadata>
Created by potrace 1.15, written by Peter Selinger 2001-2017
</metadata>
<g transform="translate(0.000000,111.000000) scale(0.100000,-0.100000)"
fill="#000000" stroke="none">
<path d="M690 916 c0 -135 0 -135 -55 -152 -43 -14 -54 -21 -49 -33 13 -28 25
-194 21 -269 -3 -55 0 -77 10 -88 25 -25 30 -16 37 63 7 86 16 101 68 109 36
6 36 6 29 -32 -3 -22 -6 -96 -6 -166 0 -128 0 -128 29 -154 23 -22 30 -24 37
-13 5 8 6 21 3 29 -14 32 -16 168 -4 225 7 33 15 81 17 106 4 36 10 49 29 59
13 8 24 16 24 20 0 4 11 20 25 36 17 20 25 41 25 68 0 24 6 43 16 51 11 8 14
18 9 34 -6 19 -12 22 -38 17 -99 -17 -138 -22 -142 -18 -3 3 -5 32 -5 64 0 70
-45 178 -74 178 -3 0 -6 -61 -6 -134z m178 -201 c1 -11 -9 -33 -24 -49 -27
-28 -27 -28 -41 14 -12 36 -12 44 -1 51 23 16 63 6 66 -16z m-158 -9 c0 -7 9
-25 20 -39 29 -37 25 -52 -19 -65 -21 -7 -42 -12 -47 -12 -10 0 -10 102 0 119
10 16 46 14 46 -3z"/>
<path d="M133 1018 c-53 -26 -33 -68 33 -68 36 0 46 -5 64 -30 19 -27 21 -39
15 -93 -11 -102 -17 -238 -11 -262 19 -76 115 -115 198 -81 41 18 51 29 68 77
12 33 11 41 -9 82 -17 36 -31 49 -69 65 -26 11 -56 22 -67 24 -15 3 -19 10
-18 33 9 106 8 110 -21 165 -17 30 -35 60 -41 66 -33 33 -98 44 -142 22z m262
-374 c39 -18 48 -35 36 -67 -23 -60 -76 -62 -105 -4 -15 31 -16 44 -7 63 12
28 30 30 76 8z"/>
<path d="M214 332 c10 -182 20 -233 53 -259 33 -27 64 -29 122 -8 22 8 41 12
41 8 0 -3 6 0 13 6 23 19 36 82 39 190 2 92 0 105 -17 117 -32 23 -44 16 -51
-27 -7 -41 -7 -41 -62 -36 -30 3 -56 8 -59 11 -3 3 0 19 6 37 10 29 9 35 -11
56 -13 14 -33 23 -51 23 -30 0 -30 0 -23 -118z m198 -117 c-2 -42 -7 -60 -28
-103 -2 -5 -70 23 -81 34 -8 7 -13 37 -13 69 0 56 0 56 63 53 62 -3 62 -3 59
-53z"/>
</g>
</svg>
