<svg version="1.0" xmlns="http://www.w3.org/2000/svg"
 width="65.000000pt" height="71.000000pt" viewBox="0 0 65.000000 71.000000"
 preserveAspectRatio="xMidYMid meet">
<metadata>
Created by potrace 1.15, written by Peter Selinger 2001-2017
</metadata>
<g transform="translate(0.000000,71.000000) scale(0.100000,-0.100000)"
fill="#000000" stroke="none">
<path d="M504 532 c-6 -4 -21 -27 -35 -52 -13 -25 -26 -47 -29 -50 -16 -16
-33 -64 -34 -97 -1 -43 8 -40 -133 -35 -83 3 -89 9 -68 66 10 25 26 55 35 66
18 21 70 28 70 10 0 -5 14 -10 30 -10 51 0 37 41 -23 68 -35 15 -55 15 -71 0
-34 -35 -77 -112 -96 -172 -20 -59 -21 -72 -10 -119 18 -72 56 -157 72 -157
13 0 38 64 38 99 0 24 26 33 83 31 60 -3 65 -1 37 14 -36 19 -128 39 -147 32
-14 -6 -14 -9 5 -29 20 -21 21 -25 6 -45 -13 -18 -19 -21 -30 -11 -8 6 -14 22
-14 35 0 14 -5 33 -12 44 -7 10 -9 22 -5 26 9 9 85 9 177 -1 75 -8 75 -8 108
-78 24 -52 31 -79 26 -100 -5 -26 -4 -28 13 -19 10 5 24 7 32 4 9 -3 11 1 7
15 -4 12 1 24 14 33 28 20 25 28 -12 32 -34 3 -63 39 -70 87 -2 19 3 25 31 35
19 6 36 17 39 23 4 14 -37 33 -73 33 -13 0 -26 3 -29 8 -7 12 55 132 68 132
18 0 36 44 29 69 -6 22 -12 25 -29 13z"/>
<path d="M250 388 c0 -23 65 -60 102 -56 36 3 56 38 21 38 -11 0 -23 4 -28 9
-6 5 -29 12 -52 16 -33 5 -43 4 -43 -7z"/>
</g>
</svg>
