<svg version="1.0" xmlns="http://www.w3.org/2000/svg"
 width="55.000000pt" height="67.000000pt" viewBox="0 0 55.000000 67.000000"
 preserveAspectRatio="xMidYMid meet">
<metadata>
Created by potrace 1.15, written by Peter Selinger 2001-2017
</metadata>
<g transform="translate(0.000000,67.000000) scale(0.100000,-0.100000)"
fill="#000000" stroke="none">
<path d="M331 527 c-5 -14 -7 -34 -4 -46 3 -11 2 -32 -1 -46 -6 -24 -10 -25
-80 -25 -40 0 -75 2 -78 5 -3 3 -2 20 1 38 6 27 11 32 40 35 31 3 61 21 61 37
0 3 -33 5 -72 3 -59 -2 -72 -6 -69 -18 2 -8 5 -76 6 -150 2 -74 4 -138 4 -142
1 -11 83 -10 100 1 11 7 10 11 -7 20 -11 6 -29 11 -40 11 -19 0 -37 35 -26 52
3 4 24 5 46 2 32 -6 40 -4 36 7 -2 8 -21 15 -40 17 -25 2 -37 9 -41 22 -4 16
3 19 56 22 101 5 102 4 102 -146 0 -127 0 -127 -27 -133 -16 -3 -28 -8 -28
-12 0 -9 75 -31 107 -31 74 0 104 36 36 42 -38 3 -38 3 -44 108 -3 58 -9 114
-12 125 -10 30 7 48 50 52 84 8 87 31 6 35 -58 3 -58 3 -61 36 -4 43 12 62 54
62 31 0 53 15 40 27 -3 3 -28 8 -56 11 -46 4 -50 3 -59 -21z"/>
<path d="M200 461 c-18 -12 -13 -17 27 -25 19 -5 34 -3 38 4 9 14 6 17 -25 24
-14 4 -32 2 -40 -3z"/>
</g>
</svg>
