<svg version="1.0" xmlns="http://www.w3.org/2000/svg"
 width="67.000000pt" height="86.000000pt" viewBox="0 0 67.000000 86.000000"
 preserveAspectRatio="xMidYMid meet">
<metadata>
Created by potrace 1.15, written by Peter Selinger 2001-2017
</metadata>
<g transform="translate(0.000000,86.000000) scale(0.100000,-0.100000)"
fill="#000000" stroke="none">
<path d="M207 653 c-4 -3 -7 -30 -7 -60 0 -47 -2 -53 -20 -53 -22 0 -40 34
-40 76 0 18 -5 24 -21 24 -16 0 -19 -4 -14 -17 4 -10 9 -33 12 -51 4 -25 16
-40 44 -58 45 -28 51 -54 14 -54 -14 0 -34 -9 -44 -19 -11 -11 -31 -27 -45
-36 -14 -10 -26 -24 -26 -31 0 -20 8 -18 42 11 41 35 86 57 92 46 3 -5 3 -23
0 -41 -6 -29 -10 -31 -35 -26 -33 6 -41 -16 -11 -33 16 -9 15 -14 -12 -66 -16
-32 -43 -70 -59 -87 -22 -22 -27 -32 -18 -41 16 -16 70 40 112 118 29 56 38
65 62 65 16 0 27 -5 27 -14 0 -18 -39 -105 -61 -138 -47 -66 10 -139 85 -109
16 6 12 11 -27 35 -26 15 -47 30 -47 35 0 7 64 107 95 148 14 19 -14 66 -45
73 -22 5 -25 12 -28 53 -2 26 1 47 5 47 4 0 26 -18 48 -40 22 -21 46 -39 52
-40 7 0 37 12 68 27 61 30 51 31 147 -18 23 -12 55 -11 63 0 7 12 -5 19 -79
46 -61 22 -61 22 -66 126 -7 136 -24 136 -28 1 -3 -103 -3 -103 -45 -122 -56
-26 -61 -25 -100 13 -18 17 -42 37 -53 43 -18 11 -17 12 11 19 17 4 35 8 41
10 17 5 28 95 14 109 -14 14 -30 -9 -30 -46 0 -22 -5 -28 -21 -28 -19 0 -21 4
-15 30 9 47 -15 95 -37 73z"/>
<path d="M351 619 c-22 -9 -23 -13 -19 -74 2 -36 9 -70 14 -75 11 -11 74 -2
74 10 0 4 -9 10 -20 13 -11 3 -20 12 -20 20 0 9 9 19 20 22 26 8 25 23 -2 27
-29 4 -34 25 -8 33 23 7 22 29 -1 32 -8 1 -25 -2 -38 -8z"/>
<path d="M503 624 c-22 -9 -14 -24 12 -24 31 0 35 -35 5 -43 -25 -6 -26 -27
-2 -27 10 0 22 -3 25 -7 11 -10 -13 -33 -34 -33 -24 0 -24 -12 -1 -33 47 -42
74 -7 76 97 1 71 1 71 -34 73 -19 1 -41 0 -47 -3z"/>
<path d="M405 360 c-4 -6 -15 -8 -26 -5 -18 6 -19 1 -19 -73 0 -64 4 -84 20
-105 15 -18 20 -40 20 -81 0 -43 4 -56 15 -56 10 0 16 16 21 50 6 47 8 50 35
50 29 0 29 -1 29 -60 0 -61 8 -72 30 -45 8 10 10 30 5 61 -5 39 -3 50 15 69
36 39 41 185 5 185 -10 0 -15 -15 -17 -52 -3 -53 -3 -53 -75 -56 -60 -2 -73 0
-73 13 0 12 13 15 60 15 33 0 60 4 60 9 0 14 -27 21 -76 21 -37 0 -44 3 -44
20 0 18 7 20 61 20 44 0 60 3 57 13 -6 15 -94 22 -103 7z m115 -165 c0 -22
-115 -22 -124 0 -4 12 6 15 59 15 51 0 65 -3 65 -15z"/>
</g>
</svg>
