<svg version="1.0" xmlns="http://www.w3.org/2000/svg"
 width="70.000000pt" height="85.000000pt" viewBox="0 0 70.000000 85.000000"
 preserveAspectRatio="xMidYMid meet">
<metadata>
Created by potrace 1.15, written by Peter Selinger 2001-2017
</metadata>
<g transform="translate(0.000000,85.000000) scale(0.100000,-0.100000)"
fill="#000000" stroke="none">
<path d="M252 758 c-23 -23 -14 -38 24 -38 48 0 40 -24 -9 -28 -35 -3 -38 -1
-44 28 -7 36 -26 48 -49 29 -18 -15 -11 -57 14 -75 9 -7 41 -16 70 -20 75 -9
64 -24 -17 -24 -73 0 -101 14 -101 49 0 29 -25 44 -40 26 -20 -24 -1 -86 30
-102 14 -7 52 -13 85 -13 60 -1 60 -1 10 -24 -27 -13 -63 -36 -78 -52 -97
-100 -122 -154 -73 -154 19 0 31 12 56 58 49 87 63 91 79 27 6 -25 17 -48 24
-51 7 -2 62 -1 122 3 96 7 110 10 113 27 4 18 -2 18 -108 11 -92 -6 -111 -4
-108 7 3 9 33 15 97 20 99 7 122 16 96 38 -13 11 -27 11 -74 2 -81 -17 -128
-15 -135 4 -3 9 -4 20 -1 25 8 11 73 29 111 29 40 0 149 -37 166 -57 10 -12
14 -76 18 -242 5 -221 5 -226 26 -229 13 -2 24 4 28 13 3 9 1 111 -4 227 -10
246 -10 245 -110 295 -63 31 -63 31 -4 38 32 3 66 10 74 14 22 12 42 58 35 81
-9 30 -35 24 -47 -11 -13 -37 -42 -49 -116 -48 -58 1 -52 7 20 23 31 7 62 55
52 80 -9 24 -42 19 -50 -6 -15 -49 -57 -52 -70 -5 -9 29 -13 32 -54 35 -27 2
-50 -2 -58 -10z"/>
<path d="M360 373 c-8 -3 -39 -14 -67 -25 -62 -23 -69 -46 -26 -90 22 -23 24
-28 10 -33 -8 -4 -28 -5 -44 -3 -26 3 -28 7 -33 53 -4 42 -8 50 -25 50 -19 0
-20 -6 -17 -95 3 -116 14 -159 47 -190 23 -22 29 -23 132 -17 105 6 109 7 136
37 25 28 27 36 26 118 -1 130 -11 186 -31 190 -16 3 -18 -5 -18 -67 0 -71 0
-71 -52 -71 -29 0 -63 -3 -74 -6 -19 -5 -21 -2 -17 19 3 14 0 28 -6 31 -15 10
-14 46 2 46 7 0 28 -16 47 -35 35 -36 60 -45 60 -22 0 8 -9 22 -20 32 -24 21
-26 41 -5 49 8 3 15 12 15 21 0 15 -13 18 -40 8z m94 -191 c3 -5 3 -26 -1 -46
-8 -49 -37 -67 -116 -73 -76 -6 -103 5 -123 52 -23 57 -20 64 39 68 108 7 196
7 201 -1z"/>
<path d="M276 152 c-16 -4 -31 -13 -34 -19 -3 -10 18 -13 82 -13 77 0 110 10
92 27 -9 9 -107 13 -140 5z"/>
</g>
</svg>
