<svg version="1.0" xmlns="http://www.w3.org/2000/svg"
 width="63.000000pt" height="78.000000pt" viewBox="0 0 63.000000 78.000000"
 preserveAspectRatio="xMidYMid meet">
<metadata>
Created by potrace 1.15, written by Peter Selinger 2001-2017
</metadata>
<g transform="translate(0.000000,78.000000) scale(0.100000,-0.100000)"
fill="#000000" stroke="none">
<path d="M397 683 c-3 -5 -8 -27 -12 -51 -7 -41 -8 -43 -38 -40 -24 2 -33 9
-37 27 -12 52 -55 26 -44 -27 7 -33 41 -52 95 -52 25 0 29 -4 29 -29 0 -27 -3
-29 -51 -33 -66 -7 -90 -30 -97 -97 -5 -61 12 -109 42 -116 11 -3 41 -6 66 -7
45 -3 45 -3 45 -128 0 -118 1 -125 20 -125 19 0 20 8 23 126 3 127 3 127 60
134 31 4 63 12 70 17 8 7 12 38 12 89 0 98 -9 109 -91 109 -59 0 -59 0 -59 35
0 35 0 35 48 35 63 0 83 16 89 72 4 35 2 46 -10 51 -20 8 -34 -10 -39 -48 -3
-28 -6 -30 -43 -30 -39 0 -40 1 -40 35 0 47 -23 78 -38 53z m-7 -268 c0 -23
-3 -25 -49 -25 -28 0 -52 4 -56 9 -10 18 26 41 66 41 35 0 39 -3 39 -25z m138
3 c-3 -20 -10 -23 -50 -26 -46 -3 -48 -2 -48 22 0 24 3 26 51 26 47 0 50 -2
47 -22z m-140 -94 c2 -18 -4 -22 -34 -27 -42 -7 -64 5 -64 35 0 17 6 19 48 16
39 -2 48 -7 50 -24z m140 4 c-3 -20 -10 -23 -50 -26 -41 -3 -48 -1 -48 16 0
27 8 32 57 32 40 0 44 -2 41 -22z"/>
<path d="M83 653 c-45 -9 -46 -18 -44 -316 2 -180 6 -286 13 -294 11 -13 84
-18 112 -7 9 3 16 12 16 20 0 13 -15 19 -65 26 -17 3 -21 12 -23 56 -3 55 -3
55 50 66 32 7 48 47 48 122 0 61 -13 74 -74 74 -33 0 -36 2 -36 29 0 26 4 29
41 34 58 8 72 26 77 97 7 90 -20 111 -115 93z m67 -87 c0 -42 -13 -58 -41 -54
-15 2 -27 13 -34 32 -8 24 -6 31 13 46 32 27 62 15 62 -24z m-10 -258 c0 -52
-11 -71 -36 -66 -14 2 -20 13 -22 42 -4 52 3 66 33 66 23 0 25 -4 25 -42z"/>
<path d="M531 216 c-8 -9 -11 -45 -9 -98 3 -75 5 -83 23 -83 18 0 20 8 23 75
4 108 -8 142 -37 106z"/>
<path d="M260 191 c-16 -31 -13 -146 5 -161 29 -24 45 5 45 84 0 87 -24 124
-50 77z"/>
</g>
</svg>
