<svg version="1.0" xmlns="http://www.w3.org/2000/svg"
 width="73.000000pt" height="99.000000pt" viewBox="0 0 73.000000 99.000000"
 preserveAspectRatio="xMidYMid meet">
<metadata>
Created by potrace 1.15, written by Peter Selinger 2001-2017
</metadata>
<g transform="translate(0.000000,99.000000) scale(0.100000,-0.100000)"
fill="#000000" stroke="none">
<path d="M170 758 c0 -20 26 -146 46 -218 22 -83 34 -100 99 -146 45 -30 56
-44 61 -73 3 -20 12 -65 20 -101 8 -36 17 -75 20 -87 5 -26 40 -31 66 -10 23
17 102 187 128 276 22 73 22 73 -3 98 -25 26 -25 26 -41 -5 -9 -17 -16 -40
-16 -50 0 -21 -23 -82 -36 -94 -4 -4 -20 0 -36 10 -29 17 -29 17 -26 132 2 80
-1 125 -11 147 -15 36 -31 35 -31 -2 0 -14 -4 -44 -10 -67 -5 -24 -12 -60 -15
-80 -13 -86 -83 -20 -104 97 -18 99 -32 137 -61 162 -28 25 -50 30 -50 11z
m125 -308 c3 -5 1 -10 -4 -10 -6 0 -11 5 -11 10 0 6 2 10 4 10 3 0 8 -4 11
-10z m184 -159 c11 -7 11 -13 0 -32 -12 -23 -12 -23 -20 -4 -16 41 -9 54 20
36z"/>
<path d="M490 610 c0 -49 3 -60 16 -60 42 0 58 73 24 103 -33 28 -40 20 -40
-43z"/>
<path d="M106 523 c-7 -47 -6 -151 2 -178 4 -11 12 -29 19 -40 11 -20 12 -19
38 5 17 16 25 32 21 45 -2 11 -12 52 -20 90 -16 71 -34 115 -46 115 -4 0 -10
-17 -14 -37z"/>
<path d="M642 300 c-6 -11 -12 -47 -12 -81 0 -33 -5 -70 -11 -82 -9 -16 -9
-22 0 -25 6 -2 11 -13 11 -24 0 -27 31 -20 47 12 24 47 12 220 -14 220 -5 0
-14 -9 -21 -20z"/>
</g>
</svg>
