<svg version="1.0" xmlns="http://www.w3.org/2000/svg"
 width="61.000000pt" height="95.000000pt" viewBox="0 0 61.000000 95.000000"
 preserveAspectRatio="xMidYMid meet">
<metadata>
Created by potrace 1.15, written by Peter Selinger 2001-2017
</metadata>
<g transform="translate(0.000000,95.000000) scale(0.100000,-0.100000)"
fill="#000000" stroke="none">
<path d="M285 771 c-7 -12 2 -179 11 -193 14 -22 34 26 34 82 0 83 -25 143
-45 111z"/>
<path d="M510 732 c0 -7 -9 -21 -20 -32 -11 -11 -20 -31 -20 -44 0 -29 -39
-126 -51 -126 -5 0 -9 22 -9 48 0 28 -6 57 -15 68 -15 19 -15 19 -31 -1 -12
-16 -14 -33 -9 -80 3 -33 9 -70 12 -82 4 -17 -5 -29 -44 -57 -26 -20 -51 -36
-54 -36 -4 0 -9 36 -11 80 -5 82 -18 114 -39 93 -6 -6 -13 -60 -16 -119 -2
-60 -10 -115 -16 -123 -9 -10 -8 -16 4 -25 8 -6 25 -40 38 -76 13 -36 27 -69
32 -74 5 -6 9 -20 9 -33 0 -18 6 -23 25 -23 15 0 28 7 32 18 4 9 18 37 33 62
42 74 65 158 61 223 -2 26 2 39 13 43 9 3 16 10 16 15 0 6 9 19 20 31 11 12
20 28 20 35 0 7 4 13 9 13 27 0 47 178 22 203 -8 8 -11 8 -11 -1z m-154 -430
c-17 -49 -42 -92 -54 -92 -8 0 -32 71 -32 93 0 17 25 40 65 61 27 14 30 14 33
1 2 -8 -4 -37 -12 -63z"/>
<path d="M116 344 c-15 -40 5 -179 29 -196 5 -4 18 0 28 9 14 13 17 28 14 65
-2 27 -7 51 -11 55 -3 3 -6 15 -6 25 0 18 -28 58 -41 58 -4 0 -10 -7 -13 -16z"/>
<path d="M480 321 c-11 -21 -14 -129 -4 -155 6 -16 34 -23 34 -8 0 4 5 38 10
75 7 46 7 74 0 88 -14 24 -26 24 -40 0z"/>
</g>
</svg>
