<svg version="1.0" xmlns="http://www.w3.org/2000/svg"
 width="59.000000pt" height="69.000000pt" viewBox="0 0 59.000000 69.000000"
 preserveAspectRatio="xMidYMid meet">
<metadata>
Created by potrace 1.15, written by Peter Selinger 2001-2017
</metadata>
<g transform="translate(0.000000,69.000000) scale(0.100000,-0.100000)"
fill="#000000" stroke="none">
<path d="M243 478 c3 -76 19 -128 39 -128 5 0 8 45 8 99 0 81 -3 100 -16 105
-32 12 -35 6 -31 -76z"/>
<path d="M450 449 c-16 -28 -80 -99 -91 -99 -5 0 -9 20 -9 43 0 50 -7 62 -27
46 -8 -7 -13 -33 -13 -70 0 -52 -3 -60 -29 -78 -16 -12 -39 -22 -52 -23 -22
-3 -25 2 -34 61 -10 65 -10 65 -28 38 -9 -14 -17 -40 -17 -57 0 -34 31 -132
61 -194 10 -22 19 -47 19 -57 0 -11 6 -16 18 -13 21 6 77 122 87 181 5 33 19
55 71 107 35 36 64 74 64 85 0 11 3 26 6 35 9 24 -14 19 -26 -5z m-155 -221
c-3 -13 -10 -32 -15 -43 -4 -11 -11 -28 -14 -37 -9 -29 -24 -21 -35 19 -8 28
-8 39 2 45 6 3 21 14 32 22 28 22 37 20 30 -6z"/>
<path d="M77 293 c-19 -18 19 -223 42 -223 8 0 6 191 -4 213 -7 17 -26 23 -38
10z"/>
<path d="M417 263 c-10 -9 -8 -166 2 -181 10 -17 28 52 30 119 2 44 -16 78
-32 62z"/>
</g>
</svg>
