<svg version="1.0" xmlns="http://www.w3.org/2000/svg"
 width="47.000000pt" height="71.000000pt" viewBox="0 0 47.000000 71.000000"
 preserveAspectRatio="xMidYMid meet">
<metadata>
Created by potrace 1.15, written by Peter Selinger 2001-2017
</metadata>
<g transform="translate(0.000000,71.000000) scale(0.100000,-0.100000)"
fill="#000000" stroke="none">
<path d="M367 616 c-10 -14 -17 -45 -17 -70 0 -72 -12 -89 -25 -36 -19 77 -42
44 -44 -60 -2 -92 -52 -138 -65 -60 -7 42 -14 48 -34 28 -14 -14 -17 -154 -3
-162 5 -3 9 -24 9 -47 1 -43 49 -154 67 -154 6 0 12 11 13 24 2 14 11 35 19
48 20 30 33 85 39 158 6 84 10 96 39 127 18 20 28 45 35 95 13 89 12 96 -3
117 -13 17 -14 17 -30 -8z m-102 -415 c-7 -24 -8 -22 -22 23 -13 44 -13 49 4
65 17 17 18 16 21 -22 2 -22 0 -52 -3 -66z"/>
<path d="M10 599 c0 -5 5 -7 10 -4 6 3 10 8 10 11 0 2 -4 4 -10 4 -5 0 -10 -5
-10 -11z"/>
<path d="M197 604 c-11 -11 -8 -127 3 -144 9 -13 12 -12 26 5 25 34 -2 166
-29 139z"/>
<path d="M381 362 c-14 -27 -17 -180 -4 -193 32 -32 60 31 43 93 -6 18 -10 50
-10 70 0 42 -14 57 -29 30z"/>
<path d="M130 361 c0 -5 -8 -8 -17 -7 -15 1 -18 -9 -21 -69 -4 -87 3 -115 27
-115 19 0 35 25 26 40 -3 5 -1 20 4 34 7 18 6 33 -5 55 -9 17 -13 40 -9 51 3
11 4 20 1 20 -3 0 -6 -4 -6 -9z"/>
</g>
</svg>
