<svg version="1.0" xmlns="http://www.w3.org/2000/svg"
 width="71.000000pt" height="83.000000pt" viewBox="0 0 71.000000 83.000000"
 preserveAspectRatio="xMidYMid meet">
<metadata>
Created by potrace 1.15, written by Peter Selinger 2001-2017
</metadata>
<g transform="translate(0.000000,83.000000) scale(0.100000,-0.100000)"
fill="#000000" stroke="none">
<path d="M446 633 c-38 -32 -52 -49 -42 -51 9 -2 31 8 49 22 43 33 51 33 120
-5 31 -17 67 -29 79 -27 17 2 7 13 -56 56 -43 28 -81 52 -86 52 -4 0 -33 -21
-64 -47z"/>
<path d="M152 615 c-6 -13 -34 -41 -62 -61 -27 -20 -50 -40 -50 -44 0 -18 20
-20 44 -5 16 11 26 13 31 6 3 -6 19 -11 35 -11 29 0 29 0 24 -67 -7 -98 -14
-133 -24 -133 -5 0 -21 -5 -37 -11 -22 -8 -24 -12 -13 -19 8 -6 27 -10 43 -10
26 0 27 -1 27 -59 0 -32 -3 -79 -6 -105 -7 -45 -7 -46 -44 -46 -23 0 -43 -7
-51 -17 -13 -15 -5 -16 109 -10 68 3 126 8 129 11 11 11 -7 20 -50 25 -42 6
-42 6 -45 103 -3 97 -3 97 25 104 55 12 59 14 43 24 -8 6 -28 10 -43 10 -29 0
-29 0 -25 99 1 55 5 102 8 104 3 3 32 7 64 9 32 2 60 7 63 11 7 11 -14 34 -70
79 -60 47 -107 52 -125 13z m101 -42 c38 -26 38 -27 16 -35 -13 -5 -50 -8 -83
-6 -60 3 -60 3 -27 36 18 17 38 32 44 32 6 0 28 -12 50 -27z"/>
<path d="M409 503 c-19 -22 -25 -214 -9 -254 12 -29 13 -29 92 -29 65 0 85 4
109 21 29 20 29 20 29 139 0 142 2 140 -123 140 -66 0 -88 -4 -98 -17z m174
-30 c19 -12 3 -31 -30 -37 -97 -16 -135 -3 -119 40 5 14 17 15 74 9 37 -4 70
-9 75 -12z m7 -98 c0 -26 0 -26 -77 -23 -72 3 -78 5 -81 26 -3 21 -1 22 77 22
80 0 81 0 81 -25z m-1 -64 c19 -12 7 -39 -21 -50 -13 -4 -45 -5 -73 -2 -38 5
-51 10 -53 25 -2 10 2 22 10 27 17 11 119 11 137 0z"/>
<path d="M107 463 c-4 -3 -7 -21 -7 -38 0 -22 -10 -42 -30 -63 -32 -34 -38
-52 -17 -52 17 1 50 30 71 63 24 39 9 117 -17 90z"/>
<path d="M274 444 c-8 -32 5 -73 28 -88 27 -17 31 -1 10 38 -11 20 -18 46 -15
56 3 11 0 20 -6 20 -6 0 -14 -12 -17 -26z"/>
<path d="M91 183 c-7 -21 -17 -48 -23 -60 -15 -30 -3 -41 20 -19 23 20 47 89
38 105 -12 19 -22 12 -35 -26z"/>
<path d="M250 204 c0 -15 44 -104 51 -104 12 0 12 5 -8 61 -10 27 -23 49 -30
49 -7 0 -13 -3 -13 -6z"/>
<path d="M370 166 c0 -8 10 -16 23 -18 19 -3 22 -8 19 -45 -2 -23 2 -51 8 -63
17 -32 38 -8 42 48 3 47 3 47 43 47 40 0 40 0 43 -52 3 -44 6 -53 21 -53 24 0
31 18 24 68 -5 34 -2 42 16 52 41 21 9 30 -115 30 -101 0 -124 -3 -124 -14z"/>
</g>
</svg>
