<svg version="1.0" xmlns="http://www.w3.org/2000/svg"
 width="55.000000pt" height="105.000000pt" viewBox="0 0 55.000000 105.000000"
 preserveAspectRatio="xMidYMid meet">
<metadata>
Created by potrace 1.15, written by Peter Selinger 2001-2017
</metadata>
<g transform="translate(0.000000,105.000000) scale(0.100000,-0.100000)"
fill="#000000" stroke="none">
<path d="M244 834 c-29 -36 -29 -36 -59 -10 -28 24 -55 34 -55 20 0 -3 14 -19
30 -34 37 -35 37 -47 2 -107 -34 -59 -72 -146 -72 -167 0 -34 17 -13 51 59 19
41 37 75 42 75 4 0 7 8 7 19 0 10 7 25 16 32 18 15 13 20 77 -90 21 -36 45
-83 55 -103 16 -35 42 -59 42 -38 0 16 -52 122 -97 198 -45 74 -48 98 -17 130
12 12 20 52 11 52 -2 0 -17 -16 -33 -36z"/>
<path d="M209 487 c-15 -20 -19 -21 -43 -8 -34 19 -46 6 -19 -20 20 -20 20
-20 -17 -97 -37 -76 -49 -109 -69 -188 -13 -49 -14 -64 -3 -64 8 0 26 39 40
90 20 67 52 144 64 152 7 4 9 8 5 8 -14 0 13 40 28 40 7 0 24 -15 36 -32 13
-18 26 -35 29 -38 3 -3 16 -25 29 -50 14 -25 27 -47 30 -50 4 -3 17 -25 29
-50 28 -55 50 -85 57 -78 8 8 -28 111 -45 128 -12 12 -30 51 -30 64 0 8 -3 16
-8 18 -4 2 -23 23 -42 48 -19 25 -43 54 -52 64 -16 18 -16 20 2 46 11 15 17
30 13 34 -10 10 -17 7 -34 -17z"/>
</g>
</svg>
