<svg version="1.0" xmlns="http://www.w3.org/2000/svg"
 width="62.000000pt" height="87.000000pt" viewBox="0 0 62.000000 87.000000"
 preserveAspectRatio="xMidYMid meet">
<metadata>
Created by potrace 1.15, written by Peter Selinger 2001-2017
</metadata>
<g transform="translate(0.000000,87.000000) scale(0.100000,-0.100000)"
fill="#000000" stroke="none">
<path d="M337 683 c-4 -3 -7 -30 -7 -60 0 -36 -4 -53 -12 -53 -22 0 -76 38
-94 65 -9 14 -23 25 -30 25 -26 0 -14 -35 27 -77 32 -35 47 -43 75 -43 32 0
35 -2 32 -27 -2 -22 -12 -29 -58 -45 -55 -18 -78 -39 -125 -110 -25 -38 -32
-68 -16 -68 4 0 32 28 61 61 48 55 114 99 127 85 13 -13 -23 -64 -72 -106 -30
-25 -50 -49 -45 -53 13 -14 85 29 117 70 31 37 31 37 71 10 40 -28 109 -53
119 -43 10 10 -18 35 -52 46 -33 11 -85 61 -85 81 0 5 21 9 48 9 64 0 96 18
100 55 5 40 -19 55 -90 55 -58 0 -58 0 -58 29 0 27 3 30 37 33 49 4 57 28 9
28 -25 0 -40 6 -48 20 -14 21 -21 24 -31 13z m129 -167 c25 -19 17 -25 -45
-33 -50 -6 -51 -5 -51 21 0 24 4 26 38 26 21 0 47 -6 58 -14z"/>
<path d="M338 313 c-9 -24 -23 -36 -54 -48 -52 -20 -116 -88 -112 -118 3 -24
61 -67 89 -67 27 0 23 19 -5 30 -53 20 -37 83 29 114 39 19 110 21 145 3 37
-19 58 -62 42 -87 -16 -26 -15 -40 2 -40 22 0 50 69 40 98 -12 34 -55 64 -101
71 -31 5 -39 11 -41 31 -6 42 -21 47 -34 13z"/>
<path d="M283 174 c-23 -10 -13 -23 20 -26 31 -3 32 -4 35 -58 6 -98 42 -92
42 7 0 48 2 52 25 55 14 2 27 8 28 13 2 10 -128 18 -150 9z"/>
</g>
</svg>
