<svg version="1.0" xmlns="http://www.w3.org/2000/svg"
 width="62.000000pt" height="79.000000pt" viewBox="0 0 62.000000 79.000000"
 preserveAspectRatio="xMidYMid meet">
<metadata>
Created by potrace 1.15, written by Peter Selinger 2001-2017
</metadata>
<g transform="translate(0.000000,79.000000) scale(0.100000,-0.100000)"
fill="#000000" stroke="none">
<path d="M278 583 c-48 -7 -34 -33 16 -33 35 0 48 -5 60 -22 26 -37 20 -48
-27 -48 -64 0 -67 -12 -67 -256 0 -190 1 -205 18 -202 9 2 18 13 20 26 3 21 6
22 131 22 70 0 131 3 134 7 14 13 -17 33 -53 33 -32 0 -39 4 -44 25 -9 36 -1
45 40 45 48 0 40 24 -9 28 -33 3 -37 6 -37 32 0 26 4 29 38 32 48 4 48 22 1
26 -28 2 -38 8 -43 25 -9 36 -8 37 38 37 42 0 67 12 48 24 -9 5 -113 8 -187 4
-48 -3 -50 -2 -53 24 -4 33 5 36 137 41 77 3 96 7 107 22 20 27 17 68 -6 93
-19 20 -30 22 -128 21 -59 -1 -119 -4 -134 -6z m220 -50 c14 -26 4 -43 -26
-43 -28 0 -62 25 -62 47 0 21 77 17 88 -4z m-78 -208 c0 -24 -3 -25 -60 -25
-46 0 -62 4 -67 16 -9 23 15 34 75 34 49 0 52 -1 52 -25z m0 -85 c0 -30 0 -30
-60 -30 -53 0 -60 2 -60 20 0 26 26 39 78 40 40 0 42 -1 42 -30z m5 -95 c0
-30 0 -30 -60 -30 -50 0 -60 3 -63 18 -8 39 5 48 65 45 57 -3 58 -3 58 -33z"/>
<path d="M60 550 c-29 -29 -32 -55 -28 -227 3 -137 7 -163 25 -199 12 -22 28
-46 37 -53 23 -20 67 -9 90 22 19 26 21 44 24 194 4 161 -5 237 -31 271 -16
20 -94 15 -117 -8z m90 -40 c15 -15 20 -33 20 -70 0 -44 -3 -50 -24 -56 -66
-16 -102 24 -76 86 14 34 36 60 51 60 5 0 18 -9 29 -20z m20 -201 c0 -40 0
-40 -47 -37 -42 3 -48 6 -51 26 -6 42 4 52 53 52 45 0 45 0 45 -41z m-1 -111
c-2 -73 -11 -93 -44 -93 -32 0 -42 20 -44 86 -1 45 3 49 51 49 38 0 38 0 37
-42z"/>
</g>
</svg>
