<svg version="1.0" xmlns="http://www.w3.org/2000/svg"
 width="57.000000pt" height="127.000000pt" viewBox="0 0 57.000000 127.000000"
 preserveAspectRatio="xMidYMid meet">
<metadata>
Created by potrace 1.15, written by Peter Selinger 2001-2017
</metadata>
<g transform="translate(0.000000,127.000000) scale(0.100000,-0.100000)"
fill="#000000" stroke="none">
<path d="M431 1009 c0 -78 -3 -145 -8 -149 -4 -5 -43 -20 -87 -34 -78 -25 -78
-25 -120 -2 -50 28 -86 38 -86 24 0 -14 37 -46 61 -53 11 -4 19 -10 19 -15 0
-11 -57 -30 -91 -30 -29 0 -39 -14 -16 -22 6 -3 37 -2 69 1 56 7 56 7 60 -34
5 -45 -10 -64 -52 -65 -14 -1 -38 -7 -55 -14 -30 -13 -30 -13 -5 -20 14 -4 45
-3 68 2 42 10 42 10 42 -18 0 -16 -3 -30 -7 -32 -13 -5 -55 -69 -50 -75 14
-13 94 71 102 107 6 27 12 30 92 49 48 11 90 18 95 15 16 -10 -9 -127 -36
-169 -8 -12 -44 -36 -79 -54 -61 -29 -136 -98 -137 -125 -1 -6 -5 -43 -9 -81
-10 -84 8 -192 30 -187 28 7 33 24 40 135 4 63 11 123 17 133 18 35 73 75 148
111 41 20 79 44 84 53 10 19 4 236 -7 253 -12 20 -23 290 -12 308 9 14 -16 96
-35 114 -33 33 -37 18 -35 -126z m14 -265 c0 -49 0 -49 -35 -52 -19 -2 -37 -7
-40 -11 -8 -13 -88 -22 -95 -11 -10 17 6 80 21 80 8 0 14 4 14 9 0 5 15 12 33
17 17 4 43 11 57 15 40 11 45 5 45 -47z"/>
</g>
</svg>
