<svg version="1.0" xmlns="http://www.w3.org/2000/svg"
 width="81.000000pt" height="125.000000pt" viewBox="0 0 81.000000 125.000000"
 preserveAspectRatio="xMidYMid meet">
<metadata>
Created by potrace 1.15, written by Peter Selinger 2001-2017
</metadata>
<g transform="translate(0.000000,125.000000) scale(0.100000,-0.100000)"
fill="#000000" stroke="none">
<path d="M465 1132 c-4 -15 -9 -47 -11 -71 -2 -24 -16 -68 -32 -98 -29 -58
-64 -80 -142 -89 -71 -9 -106 39 -119 164 0 6 -10 12 -20 12 -32 0 -34 -21
-15 -150 5 -34 15 -53 42 -77 20 -18 44 -33 53 -33 9 0 19 -6 21 -12 3 -7 6
-82 7 -166 3 -171 -11 -258 -40 -267 -25 -8 -39 2 -39 25 0 26 -53 85 -68 76
-21 -13 -15 -174 8 -225 21 -45 65 -91 88 -91 6 0 12 -4 12 -10 0 -5 25 -10
56 -10 79 0 124 27 124 74 0 14 4 26 9 26 5 0 14 15 21 33 7 17 17 42 23 55 7
16 8 26 1 30 -6 4 -16 22 -23 40 -15 36 -31 37 -46 4 -7 -15 -19 -22 -37 -22
-33 0 -32 -4 -27 200 1 74 3 159 4 188 0 35 4 52 13 52 20 0 92 39 92 50 0 6
7 10 15 10 8 0 15 -9 15 -19 0 -11 4 -22 9 -25 10 -6 19 -69 27 -171 3 -38 8
-77 11 -85 4 -8 7 -31 9 -50 1 -19 7 -48 13 -63 9 -24 14 -26 31 -17 16 8 19
19 16 49 -1 21 -6 43 -10 50 -11 17 82 14 100 -4 22 -22 19 -85 -5 -136 -17
-33 -22 -63 -22 -120 0 -42 4 -85 9 -95 5 -11 16 -39 24 -64 27 -81 63 -58 39
24 -33 111 -34 159 -2 186 18 15 43 76 48 119 4 39 1 57 -17 90 -25 42 -62 63
-142 76 -21 3 -38 11 -38 18 0 7 -3 22 -6 35 -6 20 -3 22 39 22 25 0 59 5 74
11 94 38 113 53 113 87 0 14 7 33 15 42 9 10 18 40 22 67 5 49 5 50 -23 56
-17 3 -38 0 -50 -8 -12 -8 -40 -15 -63 -16 -23 -2 -41 -7 -41 -12 0 -4 -4 -6
-10 -2 -5 3 -25 -1 -45 -10 -33 -13 -40 -13 -66 1 -41 21 -45 39 -21 83 12 21
19 40 16 43 -2 3 3 27 11 52 17 50 13 66 -26 86 -14 8 -18 4 -24 -18z m245
-316 c-4 -18 -11 -39 -15 -46 -12 -20 -72 -40 -120 -40 -45 0 -45 0 -45 35 0
19 -1 38 -2 43 -2 4 11 8 28 10 25 2 33 -1 37 -17 9 -36 77 -9 77 30 0 13 7
19 24 19 22 0 23 -3 16 -34z m-472 -535 c23 -5 44 -5 47 -2 7 12 85 13 85 1 0
-5 -4 -10 -10 -10 -5 0 -10 -7 -10 -15 0 -29 -23 -64 -51 -75 -60 -25 -136 33
-121 93 5 19 2 19 60 8z"/>
<path d="M625 1091 c6 -35 4 -41 -24 -61 -17 -12 -31 -30 -31 -41 0 -23 7 -24
55 -3 27 11 41 12 48 5 16 -16 47 -13 54 4 3 9 -2 24 -11 34 -9 10 -14 24 -12
32 6 17 -11 42 -41 57 -38 21 -45 15 -38 -27z"/>
</g>
</svg>
