<svg version="1.0" xmlns="http://www.w3.org/2000/svg"
 width="85.000000pt" height="111.000000pt" viewBox="0 0 85.000000 111.000000"
 preserveAspectRatio="xMidYMid meet">
<metadata>
Created by potrace 1.15, written by Peter Selinger 2001-2017
</metadata>
<g transform="translate(0.000000,111.000000) scale(0.100000,-0.100000)"
fill="#000000" stroke="none">
<path d="M610 873 c-26 -10 -60 -46 -60 -65 0 -10 -4 -18 -8 -18 -4 0 -13 -19
-20 -43 -13 -43 -40 -65 -100 -82 -28 -8 -78 -56 -93 -87 -5 -13 -16 -34 -24
-48 -30 -52 -14 -93 41 -106 16 -3 61 -17 101 -30 39 -13 79 -21 88 -18 15 6
16 -1 11 -62 -8 -114 -24 -238 -31 -256 -5 -12 -2 -18 7 -18 25 0 48 35 48 71
0 95 34 159 82 159 13 0 41 14 62 31 34 29 37 35 31 68 -4 20 -12 48 -20 63
-12 24 -10 29 16 54 16 15 29 36 29 46 0 10 5 18 10 18 6 0 10 6 10 13 0 8 9
22 20 32 28 25 27 88 -2 115 -30 28 -38 25 -38 -11 0 -28 -3 -31 -22 -25 -13
4 -30 8 -37 10 -8 1 -17 8 -19 14 -2 7 -21 12 -43 12 -44 0 -45 4 -26 68 13
43 48 73 75 64 6 -2 12 3 12 11 0 22 -61 34 -100 20z m15 -213 c3 -5 15 -10
26 -10 10 0 19 -4 19 -8 0 -5 11 -15 25 -22 33 -18 32 -29 -12 -94 -40 -58
-85 -87 -143 -92 -51 -5 -66 12 -75 82 -5 49 -4 63 9 73 9 8 16 19 16 25 1 14
78 55 107 55 12 1 25 -3 28 -9z m-203 -158 c6 -23 9 -45 6 -47 -3 -3 -21 2
-41 10 -46 19 -50 53 -9 94 26 27 27 28 30 7 1 -11 7 -40 14 -64z m264 -137
c12 -48 -38 -73 -73 -37 -10 9 -17 27 -15 40 3 18 10 22 43 22 33 0 40 -4 45
-25z"/>
<path d="M563 593 c-23 -9 -14 -50 13 -68 29 -19 30 -19 42 15 7 20 5 29 -11
43 -21 18 -24 19 -44 10z"/>
<path d="M217 705 c-13 -14 -30 -40 -37 -58 -7 -17 -17 -42 -22 -53 -6 -12 -7
-47 -4 -80 9 -81 9 -133 1 -171 -7 -31 -6 -33 21 -33 19 0 34 8 42 21 12 18
20 20 58 14 26 -4 44 -2 44 4 0 22 -13 41 -29 41 -9 0 -31 15 -49 33 -27 28
-32 41 -32 80 0 26 4 55 9 65 5 9 12 25 15 35 3 9 17 22 31 27 14 5 25 16 25
24 0 8 5 16 11 18 7 2 7 12 -2 31 -16 35 -48 35 -82 2z"/>
<path d="M345 340 c-3 -5 -2 -10 4 -10 5 0 13 5 16 10 3 6 2 10 -4 10 -5 0
-13 -4 -16 -10z"/>
<path d="M68 273 c-4 -7 -3 -84 1 -134 0 -10 17 -33 37 -53 34 -34 40 -36 102
-37 119 -2 132 4 172 88 36 75 37 116 2 121 -13 2 -31 1 -40 -3 -32 -13 -214
-5 -236 11 -23 16 -33 18 -38 7z m248 -77 c20 -20 18 -37 -9 -68 -23 -29 -67
-37 -134 -23 -43 9 -54 25 -44 61 8 33 31 41 119 43 34 1 59 -4 68 -13z"/>
</g>
</svg>
