<svg version="1.0" xmlns="http://www.w3.org/2000/svg"
 width="61.000000pt" height="91.000000pt" viewBox="0 0 61.000000 91.000000"
 preserveAspectRatio="xMidYMid meet">
<metadata>
Created by potrace 1.15, written by Peter Selinger 2001-2017
</metadata>
<g transform="translate(0.000000,91.000000) scale(0.100000,-0.100000)"
fill="#000000" stroke="none">
<path d="M105 900 c4 -6 11 -8 16 -5 14 9 11 15 -7 15 -8 0 -12 -5 -9 -10z"/>
<path d="M507 889 c-3 -13 -3 -41 -1 -61 4 -30 2 -39 -15 -47 -16 -9 -22 -8
-31 8 -5 11 -10 26 -10 34 0 13 -30 47 -42 47 -12 0 -15 -53 -5 -81 13 -33 5
-44 -34 -54 -24 -6 -30 -2 -50 34 -28 51 -54 56 -44 9 4 -18 18 -51 31 -74 37
-63 31 -98 -28 -160 -36 -39 -47 -94 -24 -129 15 -22 23 -25 76 -25 33 0 60
-3 61 -7 0 -5 3 -30 6 -58 3 -37 1 -52 -11 -60 -23 -17 -18 -215 5 -215 25 0
42 53 37 110 -6 59 3 70 57 70 36 0 42 4 55 33 22 49 8 90 -51 148 -26 27 -26
27 37 93 41 43 64 74 64 89 0 30 -10 40 -25 27 -9 -8 -16 -2 -25 20 -15 36
-25 37 -84 8 -37 -18 -47 -19 -60 -8 -25 20 -19 49 12 61 15 6 35 15 44 20 10
5 32 9 49 9 52 0 66 13 68 69 1 43 -3 55 -27 82 -29 32 -29 32 -35 8z m4 -300
c12 -48 -5 -56 -45 -21 -32 28 -34 32 -18 41 28 17 55 8 63 -20z m-75 -61 c8
-25 -17 -48 -52 -48 -31 0 -39 17 -23 46 17 32 65 34 75 2z m-117 -77 c-3 -6
-10 -7 -18 -2 -7 5 -10 14 -6 21 9 14 29 -2 24 -19z m171 -143 c0 -21 -5 -28
-20 -28 -17 0 -20 7 -20 53 0 52 0 52 20 27 11 -14 20 -37 20 -52z"/>
<path d="M135 720 c-3 -5 -16 -10 -27 -10 -11 0 -36 -9 -54 -21 -29 -18 -33
-24 -28 -52 6 -33 24 -78 35 -87 12 -10 46 -86 60 -132 9 -34 19 -48 31 -48
11 0 18 7 18 18 -1 47 -32 138 -63 185 -35 52 -35 52 -6 80 36 34 49 28 49
-24 0 -33 3 -40 18 -37 12 2 18 14 20 40 2 26 9 39 23 43 28 9 24 19 -16 38
-41 20 -51 21 -60 7z"/>
<path d="M66 361 c-9 -14 5 -130 20 -166 20 -49 69 -70 123 -54 23 7 41 13 41
13 0 1 9 26 20 56 25 69 25 101 -1 134 -24 31 -39 33 -39 6 0 -18 -7 -20 -60
-20 -49 0 -62 4 -72 20 -14 22 -24 25 -32 11z m164 -96 c0 -56 -55 -96 -88
-63 -13 13 -17 70 -5 81 3 4 26 7 50 7 39 0 43 -2 43 -25z"/>
</g>
</svg>
