<svg version="1.0" xmlns="http://www.w3.org/2000/svg"
 width="64.000000pt" height="91.000000pt" viewBox="0 0 64.000000 91.000000"
 preserveAspectRatio="xMidYMid meet">
<metadata>
Created by potrace 1.15, written by Peter Selinger 2001-2017
</metadata>
<g transform="translate(0.000000,91.000000) scale(0.100000,-0.100000)"
fill="#000000" stroke="none">
<path d="M221 701 c-57 -6 -79 -27 -39 -35 13 -3 74 -7 136 -9 68 -3 118 -9
127 -17 9 -8 15 -29 15 -56 0 -37 -5 -46 -32 -67 -52 -38 -63 -39 -87 -6 -20
27 -27 29 -84 29 -76 0 -107 -8 -107 -27 0 -11 10 -12 49 -7 59 8 101 -1 101
-20 0 -18 -93 -46 -153 -46 -25 0 -49 -5 -53 -11 -15 -24 15 -28 101 -14 128
21 119 25 112 -46 -4 -47 -2 -62 9 -66 21 -8 23 -4 37 71 12 66 13 68 50 81
52 18 82 47 96 96 16 53 6 93 -27 115 -25 16 -147 44 -182 42 -8 -1 -39 -4
-69 -7z"/>
<path d="M253 620 c-74 -6 -94 -14 -77 -29 10 -9 199 0 209 11 13 13 -6 28
-33 27 -15 -1 -60 -5 -99 -9z"/>
<path d="M395 400 c-11 -17 5 -30 46 -36 43 -7 54 -26 47 -80 -2 -24 -8 -29
-35 -32 -29 -3 -32 -1 -35 30 -2 21 -8 33 -18 33 -11 0 -17 -15 -21 -53 -4
-31 -18 -69 -33 -92 -46 -70 -76 -45 -76 64 0 64 -14 92 -31 65 -5 -8 -9 -24
-9 -36 0 -17 -8 -24 -35 -29 -46 -8 -65 0 -65 30 0 28 58 79 103 90 45 11 33
30 -15 22 -86 -14 -138 -61 -138 -125 0 -43 28 -61 93 -61 56 0 56 0 67 -38
15 -57 44 -77 154 -107 99 -26 146 -27 146 -1 0 15 -18 20 -102 32 -74 10 -81
20 -56 77 17 38 25 47 46 47 55 0 99 21 116 57 21 45 20 65 -5 97 -37 47 -126
75 -144 46z"/>
</g>
</svg>
