<svg version="1.0" xmlns="http://www.w3.org/2000/svg"
 width="71.000000pt" height="109.000000pt" viewBox="0 0 71.000000 109.000000"
 preserveAspectRatio="xMidYMid meet">
<metadata>
Created by potrace 1.15, written by Peter Selinger 2001-2017
</metadata>
<g transform="translate(0.000000,109.000000) scale(0.100000,-0.100000)"
fill="#000000" stroke="none">
<path d="M110 1013 c-61 -11 -95 -86 -64 -144 13 -25 15 -47 10 -103 -14 -152
-1 -194 70 -227 24 -11 44 -26 44 -34 0 -26 -40 -16 -67 15 -32 39 -47 39 -39
0 5 -25 0 -35 -24 -57 -37 -33 -39 -53 -4 -53 24 0 26 -3 19 -27 -25 -93 -11
-328 22 -355 30 -24 35 6 18 100 -9 50 -15 108 -12 129 3 21 9 63 13 93 6 53
36 100 64 100 14 0 13 -4 -15 -66 -14 -30 -25 -63 -25 -74 0 -10 -4 -21 -9
-24 -10 -6 9 -86 24 -102 14 -15 58 -25 71 -16 10 7 17 28 31 110 8 50 18 45
20 -10 2 -52 15 -103 36 -148 17 -35 68 -90 84 -90 32 0 23 53 -16 90 -60 56
-79 183 -41 262 23 48 25 67 8 103 -11 25 -26 30 -85 26 -27 -2 -31 0 -26 18
4 14 13 21 30 21 29 0 83 27 100 49 15 19 17 117 3 126 -11 7 -14 125 -2 125
10 0 32 50 32 74 -1 50 -65 96 -132 96 -62 0 -67 -25 -7 -35 51 -9 100 -48 82
-66 -10 -10 -17 -8 -36 9 -13 12 -34 22 -47 22 -24 0 -23 -1 8 -33 36 -37 42
-67 14 -67 -21 0 -42 -18 -42 -36 0 -8 12 -10 40 -7 36 5 40 4 40 -17 0 -22
-2 -22 -52 -16 -59 8 -58 8 -110 0 -33 -5 -38 -4 -38 14 0 16 6 19 38 18 45
-1 54 27 10 32 -38 4 -37 35 1 63 17 12 27 28 24 35 -7 20 -22 17 -59 -11 -25
-19 -33 -21 -37 -11 -8 21 27 56 55 56 32 0 52 22 36 38 -12 12 -15 13 -58 5z
m130 -288 c0 -3 -8 -15 -19 -26 -19 -20 -19 -20 -47 5 -29 25 -29 25 19 26 26
0 47 -2 47 -5z m62 -51 c5 -40 -7 -53 -28 -32 -12 11 -12 19 -2 41 17 36 25
34 30 -9z m-158 -3 c11 -18 -6 -41 -30 -41 -20 0 -24 5 -24 28 0 16 3 32 6 35
7 7 40 -8 48 -22z m79 -66 c1 -5 -10 -11 -25 -13 -16 -2 -28 1 -28 7 0 20 49
26 53 6z m57 -173 c0 -41 -14 -62 -40 -62 -22 0 -60 -87 -60 -138 0 -29 -20
-28 -21 1 -3 64 15 137 33 137 5 0 8 9 8 19 0 11 5 23 10 26 6 3 10 15 10 25
0 17 14 26 48 29 8 1 12 -13 12 -37z"/>
<path d="M583 999 c-10 -4 -31 -8 -46 -8 -33 -1 -77 -28 -77 -47 0 -8 -4 -14
-10 -14 -5 0 -10 -17 -10 -39 0 -32 6 -44 39 -74 44 -40 61 -80 61 -148 0 -39
-4 -49 -20 -54 -27 -9 -42 3 -34 27 10 32 -5 108 -21 108 -16 0 -20 -16 -30
-95 -20 -173 -38 -290 -53 -345 -8 -30 -17 -68 -19 -85 -3 -16 -10 -35 -14
-41 -6 -7 -3 -16 7 -25 14 -11 19 -10 35 10 11 13 22 35 25 50 3 14 10 36 15
49 5 13 9 34 9 48 0 14 4 33 9 42 5 9 11 54 13 98 6 94 10 104 43 104 32 0 35
-7 25 -65 -4 -28 -14 -97 -20 -155 -12 -99 -26 -173 -49 -264 -11 -43 -6 -66
15 -66 26 0 40 40 70 205 8 44 19 88 25 98 7 13 7 22 -1 32 -8 10 -8 24 -1 52
6 21 11 63 11 94 0 58 11 79 43 79 18 0 19 -6 14 -97 -7 -124 -33 -332 -47
-367 -31 -82 12 -108 48 -28 35 79 40 122 47 437 3 133 2 236 -4 244 -5 8 -16
11 -25 8 -12 -5 -16 -21 -16 -72 0 -63 -1 -65 -25 -65 -23 0 -25 4 -25 43 0
91 -9 114 -61 154 -27 20 -49 45 -49 55 0 20 37 38 118 58 56 13 72 30 52 54
-12 15 -36 17 -67 5z"/>
</g>
</svg>
