<svg version="1.0" xmlns="http://www.w3.org/2000/svg"
 width="63.000000pt" height="84.000000pt" viewBox="0 0 63.000000 84.000000"
 preserveAspectRatio="xMidYMid meet">
<metadata>
Created by potrace 1.15, written by Peter Selinger 2001-2017
</metadata>
<g transform="translate(0.000000,84.000000) scale(0.100000,-0.100000)"
fill="#000000" stroke="none">
<path d="M192 674 c-78 -16 -87 -23 -101 -79 -17 -68 -15 -95 9 -95 15 0 20 7
20 30 0 77 53 111 65 41 7 -43 25 -64 69 -81 37 -14 29 -21 -35 -31 -29 -5
-68 -19 -88 -32 -37 -25 -37 -25 -49 -139 -14 -136 -15 -235 -3 -242 22 -14
32 31 39 167 9 166 14 178 87 196 64 16 75 14 75 -12 0 -17 -9 -27 -32 -38
-27 -12 -34 -20 -36 -51 -3 -31 2 -40 32 -65 30 -23 36 -35 36 -65 0 -20 -5
-40 -11 -43 -18 -12 -55 4 -69 30 -16 30 -40 33 -40 4 0 -35 18 -57 52 -64 61
-12 68 -16 68 -38 0 -29 15 -51 28 -43 6 4 14 22 18 41 6 32 9 35 43 35 59 0
81 22 81 81 0 58 -14 63 -35 12 -18 -42 -30 -53 -62 -53 -20 0 -23 5 -23 39 0
34 5 42 34 59 27 16 35 29 41 61 8 50 -4 69 -48 73 -27 2 -32 7 -32 28 0 20 6
26 29 28 52 6 95 -7 114 -36 13 -21 17 -50 18 -147 1 -133 7 -165 31 -165 13
0 14 19 8 162 -5 112 -11 170 -21 185 -16 26 -70 43 -136 43 -34 0 -48 4 -48
14 0 13 48 26 102 26 42 0 78 38 89 93 4 26 6 54 3 62 -8 20 -34 19 -34 -1 0
-32 -23 -94 -35 -94 -7 0 -15 18 -19 40 -4 26 -14 45 -29 54 -33 21 -133 26
-205 10z m88 -84 c0 -36 -3 -40 -25 -40 -18 0 -26 7 -31 25 -9 36 2 55 31 55
23 0 25 -4 25 -40z m96 15 c23 -36 15 -60 -21 -60 -32 0 -41 18 -31 61 8 31
31 31 52 -1z m-11 -275 c12 -20 -6 -48 -37 -59 -56 -20 -109 37 -55 59 30 12
84 12 92 0z"/>
</g>
</svg>
