<svg version="1.0" xmlns="http://www.w3.org/2000/svg"
 width="83.000000pt" height="183.000000pt" viewBox="0 0 83.000000 183.000000"
 preserveAspectRatio="xMidYMid meet">
<metadata>
Created by potrace 1.15, written by Peter Selinger 2001-2017
</metadata>
<g transform="translate(0.000000,183.000000) scale(0.100000,-0.100000)"
fill="#000000" stroke="none">
<path d="M249 1731 c-109 -42 -136 -89 -118 -201 5 -35 9 -79 7 -97 -3 -38 7
-53 17 -24 3 11 22 43 41 70 19 28 34 59 34 70 0 11 5 23 10 26 6 3 10 25 10
49 0 23 5 47 12 54 16 16 119 15 155 0 54 -25 71 -47 78 -105 4 -31 9 -62 12
-70 8 -22 -60 -16 -91 8 -20 16 -26 29 -26 59 0 27 -7 45 -22 60 -27 25 -42
26 -33 3 3 -10 9 -46 12 -80 4 -46 11 -67 27 -81 24 -22 78 -42 112 -42 22 0
24 -4 24 -45 0 -37 -5 -50 -35 -80 -20 -19 -42 -35 -50 -35 -8 0 -15 -4 -15
-10 0 -5 -5 -10 -10 -10 -21 0 -92 -55 -106 -82 -8 -15 -10 -28 -6 -28 17 0
120 49 127 60 6 10 78 50 91 50 4 0 4 -24 0 -52 -4 -29 -9 -77 -13 -105 -5
-53 -5 -53 -42 -53 -40 -1 -109 -9 -128 -15 -7 -3 -13 -20 -13 -39 0 -19 -5
-38 -11 -42 -7 -4 -9 -23 -4 -53 16 -114 39 -153 110 -187 39 -18 41 -31 28
-167 -6 -67 -6 -67 -39 -67 -71 0 -104 38 -104 119 0 41 -14 61 -43 61 -13 0
-17 -5 -12 -19 3 -10 7 -49 10 -86 5 -86 25 -109 109 -128 61 -14 61 -14 57
-78 -2 -35 -9 -76 -17 -90 -19 -38 -107 -113 -151 -128 -66 -23 -81 -51 -28
-51 36 0 136 42 155 65 7 8 18 15 24 15 36 0 96 132 96 210 0 36 4 38 71 44
84 6 123 28 137 73 30 95 34 146 12 151 -11 2 -20 -12 -30 -45 -7 -26 -22 -56
-32 -67 -10 -11 -18 -23 -18 -27 0 -11 -59 -29 -95 -29 -29 0 -33 4 -38 32 -2
18 -1 35 4 38 5 3 8 17 7 30 -1 14 -1 49 0 78 2 40 6 52 18 52 21 0 69 34 120
84 45 45 68 107 62 171 -4 53 -50 85 -120 85 -48 0 -48 0 -42 103 4 56 8 104
10 106 5 5 83 -47 114 -76 28 -28 67 -46 80 -38 21 13 -14 55 -133 161 -47 42
-57 64 -50 107 5 35 8 37 86 71 52 23 77 76 77 161 0 36 -4 65 -10 65 -20 0
-42 -50 -38 -82 6 -37 -5 -61 -42 -95 -22 -20 -70 -32 -70 -17 0 42 -27 155
-42 176 -10 16 -16 33 -12 39 5 8 3 9 -5 4 -7 -4 -23 -3 -34 3 -58 26 -82 32
-130 31 -29 0 -73 -9 -98 -18z m294 -755 c48 -4 84 -11 93 -20 34 -35 -3 -141
-65 -185 -44 -31 -120 -29 -161 5 -41 35 -60 74 -60 127 0 65 26 88 90 81 14
-2 60 -5 103 -8z"/>
</g>
</svg>
