<svg version="1.0" xmlns="http://www.w3.org/2000/svg"
 width="71.000000pt" height="99.000000pt" viewBox="0 0 71.000000 99.000000"
 preserveAspectRatio="xMidYMid meet">
<metadata>
Created by potrace 1.15, written by Peter Selinger 2001-2017
</metadata>
<g transform="translate(0.000000,99.000000) scale(0.100000,-0.100000)"
fill="#000000" stroke="none">
<path d="M107 763 c5 -122 14 -160 34 -147 5 3 9 24 9 46 0 46 19 117 32 119
43 6 175 -11 213 -27 44 -18 52 -31 62 -101 14 -90 0 -95 -73 -32 -46 40 -92
64 -102 55 -18 -19 122 -166 158 -166 28 0 23 -33 -5 -39 -11 -2 -22 -6 -25
-10 -5 -6 -79 -48 -117 -66 -13 -5 -25 -16 -28 -23 -6 -16 28 -9 113 24 34 13
64 24 67 24 3 0 5 -26 5 -57 0 -62 -15 -88 -89 -161 -18 -18 -31 -35 -28 -38
14 -14 71 12 117 53 50 45 50 45 82 26 38 -22 45 -45 47 -145 1 -51 4 -68 15
-68 21 0 36 55 36 135 0 65 -3 75 -26 99 -15 14 -32 26 -38 26 -28 0 -56 41
-56 80 0 22 3 40 8 40 4 0 34 -13 67 -29 47 -24 61 -27 63 -15 2 7 -2 20 -10
27 -24 23 -76 57 -88 57 -23 0 -42 30 -36 55 4 14 11 25 17 25 26 0 106 111
94 131 -12 18 -32 8 -64 -31 -17 -22 -36 -40 -41 -40 -6 0 -10 27 -10 59 0 69
-12 107 -41 132 -34 29 -120 49 -212 49 -65 0 -86 3 -90 14 -3 8 -20 22 -36
31 -31 15 -31 15 -24 -112z"/>
</g>
</svg>
