<svg version="1.0" xmlns="http://www.w3.org/2000/svg"
 width="70.000000pt" height="124.000000pt" viewBox="0 0 70.000000 124.000000"
 preserveAspectRatio="xMidYMid meet">
<metadata>
Created by potrace 1.15, written by Peter Selinger 2001-2017
</metadata>
<g transform="translate(0.000000,124.000000) scale(0.100000,-0.100000)"
fill="#000000" stroke="none">
<path d="M144 1094 c-9 -4 -6 -23 7 -67 23 -74 31 -310 12 -367 -30 -90 -53
-246 -48 -330 9 -146 55 -306 92 -317 21 -7 26 42 8 77 -42 82 -79 307 -57
355 7 14 12 37 12 51 0 14 4 33 9 42 5 9 12 40 15 67 3 28 11 86 16 130 17
129 14 212 -12 290 -22 67 -31 78 -54 69z"/>
<path d="M456 1035 c-9 -19 -23 -52 -32 -72 -46 -107 -119 -253 -127 -253 -5
0 -6 22 -2 50 15 107 -1 267 -27 284 -28 17 -31 1 -13 -71 17 -68 16 -129 -4
-246 -7 -44 -6 -50 13 -57 12 -5 17 -9 13 -9 -5 -1 -1 -8 7 -17 20 -20 31 -12
57 37 18 36 21 38 35 24 12 -11 39 -15 115 -15 90 0 100 2 97 18 -3 15 -18 17
-111 20 -59 1 -107 4 -107 6 0 10 46 105 61 128 11 14 19 32 19 40 0 8 6 23
14 34 14 19 15 18 35 -5 12 -13 21 -27 21 -30 0 -3 10 -17 23 -31 12 -14 34
-41 47 -60 13 -19 30 -41 37 -48 7 -8 18 -22 23 -33 6 -10 17 -19 25 -19 27 0
16 41 -24 89 -53 63 -120 170 -128 201 -7 31 -30 70 -42 70 -5 0 -16 -16 -25
-35z"/>
<path d="M47 978 c3 -18 11 -39 17 -47 25 -32 6 -244 -26 -288 -11 -14 5 -25
25 -17 16 6 40 57 57 125 22 85 -19 259 -60 259 -17 0 -19 -5 -13 -32z"/>
<path d="M574 589 c-3 -6 -3 -37 1 -70 7 -59 7 -59 -37 -60 -138 -4 -128 -9
-128 62 0 52 -2 60 -17 57 -16 -3 -18 -21 -21 -183 -4 -215 1 -255 34 -295 25
-29 29 -30 102 -30 65 0 81 4 105 23 23 18 29 31 29 62 1 62 -13 409 -17 421
-4 15 -43 25 -51 13z m15 -184 c3 -3 5 -60 5 -125 1 -113 -1 -120 -24 -140
-19 -16 -35 -20 -74 -18 -45 3 -52 6 -66 33 -9 19 -16 71 -18 142 -4 112 -4
112 34 115 52 4 135 0 143 -7z"/>
<path d="M236 568 c-21 -107 -28 -170 -22 -199 4 -19 9 -52 12 -74 3 -22 9
-49 14 -60 4 -11 13 -35 20 -52 8 -22 19 -33 32 -33 18 0 19 4 13 37 -4 21
-14 58 -22 82 -21 64 -26 88 -25 151 0 67 11 128 24 136 12 7 -10 34 -28 34
-8 0 -16 -10 -18 -22z"/>
<path d="M54 543 c-3 -10 -11 -31 -16 -46 -16 -42 -15 -253 1 -312 16 -60 38
-112 51 -120 26 -16 19 54 -13 122 -6 13 -9 75 -8 140 3 170 4 183 13 183 4 0
8 11 8 25 0 29 -27 35 -36 8z"/>
</g>
</svg>
