<svg version="1.0" xmlns="http://www.w3.org/2000/svg"
 width="73.000000pt" height="96.000000pt" viewBox="0 0 73.000000 96.000000"
 preserveAspectRatio="xMidYMid meet">
<metadata>
Created by potrace 1.15, written by Peter Selinger 2001-2017
</metadata>
<g transform="translate(0.000000,96.000000) scale(0.100000,-0.100000)"
fill="#000000" stroke="none">
<path d="M84 899 c-3 -6 -2 -15 2 -19 11 -11 240 -17 250 -8 3 4 4 14 1 23 -5
12 -27 15 -126 15 -76 0 -122 -4 -127 -11z"/>
<path d="M437 904 c-3 -3 -3 -44 0 -90 7 -100 -9 -188 -42 -226 -28 -33 -32
-33 -56 -12 -29 26 -39 8 -39 -69 0 -84 -6 -97 -46 -100 -29 -2 -29 -2 -27 86
2 108 5 117 41 117 35 0 52 31 52 96 0 41 2 45 30 51 17 3 30 12 30 19 0 11
-33 14 -175 14 -149 0 -177 -2 -182 -15 -8 -21 0 -27 44 -34 34 -6 38 -10 41
-39 2 -17 7 -32 11 -32 4 0 7 -10 7 -22 -1 -15 8 -27 26 -36 33 -16 43 -58 34
-145 -7 -70 -16 -83 -44 -68 -27 14 -37 44 -37 111 0 49 -2 55 -22 58 -22 3
-23 1 -23 -75 0 -43 4 -84 8 -91 11 -16 77 -52 97 -52 12 0 15 -13 15 -56 0
-54 0 -55 -27 -52 -22 2 -28 8 -26 24 2 15 -5 24 -19 28 -12 3 -24 3 -26 1 -3
-3 -7 -52 -9 -111 -5 -124 4 -146 67 -165 31 -10 52 -10 94 0 79 18 89 37 84
164 -1 56 -7 105 -13 109 -18 13 -27 9 -22 -11 6 -23 -9 -51 -28 -51 -21 0
-35 33 -35 79 0 38 2 41 39 51 57 15 81 39 87 85 10 72 14 85 30 85 47 0 106
89 98 145 -2 11 2 40 8 65 16 65 11 131 -12 152 -21 20 -24 21 -33 12z m-162
-156 c7 -31 3 -70 -8 -85 -5 -7 -31 -13 -57 -13 -52 0 -60 8 -60 61 0 31 9 38
54 43 14 1 29 6 33 9 14 14 33 6 38 -15z m-4 -545 c5 -57 2 -94 -8 -121 -13
-31 -15 -32 -75 -32 -34 0 -58 3 -55 6 3 4 0 16 -8 27 -14 21 -10 106 6 117
13 9 139 12 140 3z"/>
<path d="M576 879 c-3 -17 -6 -76 -6 -131 0 -102 12 -142 57 -193 22 -24 71
-47 84 -40 20 13 7 39 -41 82 -28 25 -48 48 -45 51 3 3 -2 16 -11 30 -10 15
-13 33 -9 50 4 15 9 50 12 77 2 28 6 56 9 64 5 16 -13 41 -31 41 -7 0 -15 -14
-19 -31z"/>
<path d="M498 508 c-1 -24 0 -70 1 -104 3 -68 -13 -117 -52 -156 -36 -36 -47
-61 -47 -107 0 -39 12 -72 35 -96 30 -30 138 -45 190 -25 49 19 59 38 60 109
0 59 -3 70 -26 93 -28 28 -69 45 -69 29 0 -6 9 -18 19 -28 26 -24 36 -86 21
-122 -32 -77 -166 -56 -185 30 -8 34 4 58 56 111 41 43 42 47 39 163 -1 39 3
82 9 96 11 30 -1 49 -31 49 -14 0 -18 -9 -20 -42z"/>
</g>
</svg>
