<svg version="1.0" xmlns="http://www.w3.org/2000/svg"
 width="71.000000pt" height="125.000000pt" viewBox="0 0 71.000000 125.000000"
 preserveAspectRatio="xMidYMid meet">
<metadata>
Created by potrace 1.15, written by Peter Selinger 2001-2017
</metadata>
<g transform="translate(0.000000,125.000000) scale(0.100000,-0.100000)"
fill="#000000" stroke="none">
<path d="M100 1090 c0 -6 11 -33 25 -60 18 -35 26 -72 31 -132 5 -78 1 -117
-28 -270 -33 -175 16 -528 72 -528 24 0 25 16 6 67 -36 100 -47 170 -46 298 0
69 9 208 16 245 33 189 25 315 -24 373 -16 18 -52 23 -52 7z"/>
<path d="M473 1068 c-6 -7 -27 -38 -48 -68 -21 -30 -45 -62 -54 -70 -21 -20
-41 -56 -41 -75 0 -18 37 -20 42 -3 6 16 69 12 80 -5 11 -18 11 -19 -28 -60
-61 -64 -73 -116 -79 -327 -8 -239 -9 -250 -40 -250 -13 0 -30 -3 -39 -6 -31
-12 -16 -24 29 -24 45 0 45 0 45 -37 0 -62 12 -143 21 -143 12 0 18 32 23 108
2 35 7 67 11 70 4 4 69 7 146 6 76 0 139 3 139 7 0 22 -49 31 -159 28 -64 -2
-122 1 -130 5 -9 6 -12 22 -8 53 2 24 6 46 9 48 2 2 69 7 148 10 80 4 147 9
149 11 14 13 -28 29 -77 29 -57 0 -57 0 -60 49 -4 58 1 62 80 71 40 5 58 11
58 21 0 8 -6 14 -12 15 -7 0 -38 1 -68 2 -55 2 -55 2 -58 45 -3 41 -3 42 30
44 18 0 45 0 61 -1 17 -2 29 4 33 14 10 25 -3 30 -65 27 -59 -3 -59 -3 -66 54
-9 75 -1 81 74 55 73 -25 71 -25 71 -6 0 17 -56 55 -82 55 -10 0 -18 7 -18 15
0 14 34 34 83 49 9 3 17 14 17 24 0 21 -6 27 -107 112 -73 61 -93 70 -110 48z
m81 -78 c52 -35 63 -57 39 -76 -25 -19 -43 -17 -43 5 0 10 -6 23 -13 30 -19
15 -37 -5 -37 -41 0 -33 -26 -38 -65 -12 -24 16 -24 16 -2 47 31 43 60 76 70
76 5 1 28 -12 51 -29z m-59 -247 c-2 -21 -4 -48 -4 -60 -1 -20 -6 -23 -41 -23
-22 0 -40 3 -40 6 0 20 66 114 80 114 5 0 7 -17 5 -37z m-1 -131 c2 -4 2 -26
-1 -49 -5 -41 -5 -41 -47 -38 -22 2 -44 4 -48 4 -13 2 -9 79 5 84 20 9 85 8
91 -1z m-10 -138 c10 -10 15 -30 13 -57 -2 -35 -6 -42 -27 -47 -14 -4 -37 -2
-52 3 -25 8 -28 13 -28 57 0 47 1 49 33 53 17 2 35 5 39 5 4 1 14 -5 22 -14z"/>
<path d="M220 1055 c0 -2 7 -26 16 -52 16 -47 15 -153 -2 -281 -6 -39 -4 -43
12 -40 25 4 33 44 40 190 8 146 -2 188 -42 188 -13 0 -24 -2 -24 -5z"/>
<path d="M35 1003 c4 -10 10 -30 13 -46 2 -15 8 -30 13 -33 13 -7 11 -108 -3
-174 -6 -31 -8 -65 -5 -74 25 -65 65 137 47 234 -14 75 -31 110 -54 110 -13 0
-16 -4 -11 -17z"/>
<path d="M222 548 c-7 -29 -10 -64 -6 -78 3 -14 8 -63 11 -110 6 -87 15 -120
34 -120 8 0 9 25 5 77 -6 76 -8 218 -3 258 1 11 -5 21 -14 23 -12 2 -19 -11
-27 -50z"/>
<path d="M40 560 c-9 -21 -13 -77 -12 -168 1 -137 15 -224 39 -243 24 -20 31
0 17 53 -32 130 -33 320 -1 340 9 5 9 12 1 25 -17 28 -30 26 -44 -7z"/>
</g>
</svg>
