<svg version="1.0" xmlns="http://www.w3.org/2000/svg"
 width="65.000000pt" height="61.000000pt" viewBox="0 0 65.000000 61.000000"
 preserveAspectRatio="xMidYMid meet">
<metadata>
Created by potrace 1.15, written by Peter Selinger 2001-2017
</metadata>
<g transform="translate(0.000000,61.000000) scale(0.100000,-0.100000)"
fill="#000000" stroke="none">
<path d="M414 458 c-16 -4 -64 -10 -109 -13 -162 -12 -190 -18 -193 -42 -4
-29 29 -38 84 -23 55 16 62 10 103 -76 31 -65 31 -65 11 -92 -10 -15 -29 -47
-42 -72 -23 -45 -23 -45 -91 -48 -50 -2 -67 -6 -67 -17 0 -29 64 -43 195 -43
84 0 130 -4 140 -12 11 -9 19 -9 28 -2 7 6 30 12 52 14 56 4 52 28 -7 48 -44
14 -49 19 -78 81 -30 66 -38 109 -20 109 6 0 10 6 10 13 0 8 12 24 26 38 14
13 35 41 45 62 11 21 31 42 44 47 14 5 25 17 25 25 0 14 -11 16 -64 13 -36 -1
-77 -6 -92 -10z m36 -53 c0 -12 -46 -75 -58 -79 -7 -3 -18 8 -26 27 -12 29
-11 33 8 44 21 12 76 18 76 8z m-66 -269 c9 -19 16 -37 16 -40 0 -3 -25 -6
-56 -6 -55 0 -55 0 -27 40 15 22 33 40 39 40 7 0 19 -15 28 -34z"/>
</g>
</svg>
