<svg version="1.0" xmlns="http://www.w3.org/2000/svg"
 width="91.000000pt" height="95.000000pt" viewBox="0 0 91.000000 95.000000"
 preserveAspectRatio="xMidYMid meet">
<metadata>
Created by potrace 1.15, written by Peter Selinger 2001-2017
</metadata>
<g transform="translate(0.000000,95.000000) scale(0.100000,-0.100000)"
fill="#000000" stroke="none">
<path d="M380 920 c0 -5 5 -10 10 -10 6 0 10 5 10 10 0 6 -4 10 -10 10 -5 0
-10 -4 -10 -10z"/>
<path d="M147 858 c-6 -4 -26 -8 -43 -8 -36 0 -45 -6 -37 -26 3 -9 20 -14 43
-14 32 0 44 -6 69 -37 17 -21 31 -43 31 -50 0 -7 4 -13 8 -13 4 0 16 -14 26
-30 9 -17 27 -41 40 -53 12 -12 29 -32 38 -45 8 -12 36 -45 62 -72 47 -50 47
-50 8 -107 -22 -32 -47 -74 -57 -93 -45 -89 -112 -180 -142 -195 -35 -17 -76
-63 -67 -76 2 -5 23 -13 46 -20 32 -8 47 -8 67 2 18 8 93 13 241 14 274 2 328
9 336 41 6 25 -16 63 -71 120 -50 52 -75 84 -75 94 0 6 -4 10 -9 10 -18 0
-151 140 -151 159 0 19 12 39 46 75 21 23 94 135 94 145 0 6 4 11 8 11 5 0 14
11 21 24 7 13 34 40 61 60 36 28 57 36 87 36 48 0 73 21 53 45 -11 13 -63 15
-366 13 -195 -1 -360 -6 -367 -10z m471 -51 c20 -13 14 -46 -13 -73 -14 -14
-25 -33 -25 -42 0 -17 -40 -83 -67 -110 -7 -7 -20 -26 -30 -42 -20 -35 -36
-38 -56 -10 -8 12 -41 49 -73 83 -59 62 -82 104 -91 164 -4 24 -1 32 14 36 30
7 327 2 341 -6z m-128 -425 c38 -45 100 -129 100 -135 0 -10 30 -46 68 -84 17
-17 32 -38 32 -46 0 -20 -97 -31 -175 -20 -33 5 -82 8 -110 8 -63 -2 -78 3
-69 24 3 9 10 36 15 60 11 54 55 147 88 184 29 32 32 33 51 9z"/>
</g>
</svg>
