<svg version="1.0" xmlns="http://www.w3.org/2000/svg"
 width="73.000000pt" height="93.000000pt" viewBox="0 0 73.000000 93.000000"
 preserveAspectRatio="xMidYMid meet">
<metadata>
Created by potrace 1.15, written by Peter Selinger 2001-2017
</metadata>
<g transform="translate(0.000000,93.000000) scale(0.100000,-0.100000)"
fill="#000000" stroke="none">
<path d="M191 685 c-61 -10 -85 -25 -61 -40 6 -4 41 -10 77 -13 67 -7 70 -9
91 -62 5 -14 15 -38 22 -55 7 -16 17 -41 23 -55 5 -14 13 -33 18 -42 5 -10 9
-26 9 -36 0 -22 -22 -72 -32 -72 -5 0 -8 -5 -8 -12 0 -6 -17 -51 -37 -100 -31
-73 -42 -88 -60 -88 -12 0 -44 -5 -72 -12 -38 -9 -51 -16 -51 -30 0 -20 9 -21
280 -18 162 2 220 14 220 45 0 12 -8 16 -27 14 -54 -4 -60 0 -80 59 -12 31
-33 88 -47 127 -26 70 -32 110 -18 117 4 2 16 21 28 43 66 127 83 162 88 178
3 11 16 17 35 17 33 0 81 19 81 32 0 9 -11 10 -245 12 -93 0 -199 -3 -234 -9z
m319 -49 c0 -7 -15 -38 -32 -69 -18 -30 -41 -69 -50 -86 -9 -17 -21 -31 -25
-31 -8 1 -73 148 -73 167 0 6 30 15 68 20 98 15 112 15 112 -1z m-100 -341 c0
-9 18 -51 40 -95 22 -44 40 -82 40 -85 0 -3 -40 -5 -90 -5 -53 0 -90 4 -90 10
0 5 19 50 42 100 39 85 58 109 58 75z"/>
</g>
</svg>
