<svg version="1.0" xmlns="http://www.w3.org/2000/svg"
 width="49.000000pt" height="55.000000pt" viewBox="0 0 49.000000 55.000000"
 preserveAspectRatio="xMidYMid meet">
<metadata>
Created by potrace 1.15, written by Peter Selinger 2001-2017
</metadata>
<g transform="translate(0.000000,55.000000) scale(0.100000,-0.100000)"
fill="#000000" stroke="none">
<path d="M135 460 c-4 -7 4 -23 18 -38 14 -15 28 -38 32 -52 7 -26 21 -63 36
-92 13 -26 11 -40 -11 -86 -11 -22 -20 -45 -20 -51 0 -5 -24 -13 -52 -18 -59
-9 -70 -30 -28 -50 32 -15 329 -23 331 -8 0 6 -23 20 -52 31 -50 20 -53 24
-66 73 -7 29 -18 61 -23 71 -8 15 -6 29 10 59 11 22 20 48 20 56 0 9 14 22 30
28 17 6 30 14 30 18 0 8 -29 18 -80 30 -19 4 -53 12 -75 18 -87 22 -93 23
-100 11z m155 -86 c0 -22 -20 -55 -30 -49 -4 3 -13 18 -18 35 -11 29 -10 30
19 30 20 0 29 -5 29 -16z m-12 -224 c16 -27 6 -43 -21 -34 -30 9 -30 9 -15 33
16 26 20 26 36 1z"/>
</g>
</svg>
