<svg version="1.0" xmlns="http://www.w3.org/2000/svg"
 width="66.000000pt" height="85.000000pt" viewBox="0 0 66.000000 85.000000"
 preserveAspectRatio="xMidYMid meet">
<metadata>
Created by potrace 1.15, written by Peter Selinger 2001-2017
</metadata>
<g transform="translate(0.000000,85.000000) scale(0.100000,-0.100000)"
fill="#000000" stroke="none">
<path d="M193 623 c-57 -3 -73 -7 -73 -19 0 -12 16 -14 93 -12 74 2 92 6 92
18 0 17 -10 18 -112 13z"/>
<path d="M423 595 c-19 -13 -23 -26 -23 -70 0 -43 4 -56 19 -65 31 -16 137
-13 155 5 20 21 31 82 20 114 -9 24 -14 26 -79 29 -51 2 -76 -2 -92 -13z m112
-60 c0 -37 -2 -40 -38 -48 -53 -13 -69 -4 -65 35 3 37 36 60 78 56 22 -3 25
-8 25 -43z"/>
<path d="M296 533 c-4 -5 -53 -10 -109 -13 -82 -4 -102 -8 -102 -20 0 -10 12
-16 33 -18 35 -4 37 -6 47 -66 6 -39 6 -39 -38 -33 -24 4 -47 3 -51 0 -13 -14
19 -33 65 -39 49 -7 49 -7 49 -70 0 -54 -3 -64 -20 -69 -26 -8 -40 1 -40 26 0
22 -11 24 -28 7 -19 -19 -15 -149 4 -177 16 -22 22 -23 106 -19 113 4 118 9
118 124 0 104 -10 113 -54 50 -22 -32 -36 -9 -36 59 0 68 6 75 59 75 33 0 67
23 57 38 -4 7 -23 12 -42 12 -19 0 -34 2 -34 5 0 17 33 80 47 90 9 7 14 19 10
29 -7 17 -28 21 -41 9z m-39 -54 c15 -15 -16 -99 -37 -99 -10 0 -30 63 -30 93
0 19 49 24 67 6z m21 -349 c3 -34 1 -36 -30 -39 -18 -2 -49 -5 -68 -5 -34 -1
-35 0 -38 42 -3 43 -3 43 65 40 68 -3 68 -3 71 -38z"/>
<path d="M460 358 c-74 -16 -80 -27 -80 -137 0 -109 13 -166 39 -181 11 -5 43
-12 72 -16 45 -5 58 -3 78 13 37 30 22 56 -26 46 -21 -4 -54 -8 -73 -8 -34 0
-35 1 -43 53 -5 30 -7 56 -4 58 2 3 33 9 68 15 75 11 89 26 89 87 0 81 -18 92
-120 70z m68 -60 c4 -37 -29 -68 -73 -68 -33 0 -35 2 -35 34 0 35 12 50 45 59
41 10 60 3 63 -25z"/>
</g>
</svg>
