<svg version="1.0" xmlns="http://www.w3.org/2000/svg"
 width="65.000000pt" height="91.000000pt" viewBox="0 0 65.000000 91.000000"
 preserveAspectRatio="xMidYMid meet">
<metadata>
Created by potrace 1.15, written by Peter Selinger 2001-2017
</metadata>
<g transform="translate(0.000000,91.000000) scale(0.100000,-0.100000)"
fill="#000000" stroke="none">
<path d="M298 756 c-27 -6 -48 -15 -48 -21 0 -5 25 -13 57 -16 70 -8 85 -14
101 -39 11 -18 10 -20 -10 -21 -196 -7 -235 -11 -268 -27 -19 -9 -35 -21 -34
-27 1 -15 34 -18 58 -7 11 6 78 12 148 14 127 4 127 4 138 -22 13 -32 29 -151
23 -168 -17 -43 55 -304 89 -326 26 -16 33 0 15 36 -35 73 -46 107 -56 168 -6
35 -8 66 -5 69 2 3 16 -7 29 -21 25 -27 62 -44 73 -34 3 4 -18 30 -46 59 -64
65 -66 92 -9 154 11 13 18 26 15 29 -8 8 -48 -14 -48 -26 0 -16 -27 -11 -34 6
-3 9 -6 31 -6 50 0 33 1 34 39 34 42 0 63 16 40 31 -8 5 -33 9 -56 9 -23 0
-44 4 -48 10 -8 13 33 36 78 44 20 4 37 11 37 17 0 19 -32 22 -86 7 -52 -15
-54 -15 -88 8 -19 13 -39 23 -43 23 -4 -1 -29 -6 -55 -13z"/>
<path d="M370 584 c0 -3 11 -19 25 -36 25 -29 34 -68 16 -68 -6 0 -22 11 -37
25 -26 25 -54 33 -54 17 0 -5 11 -19 25 -32 29 -28 34 -56 8 -45 -33 14 -63
17 -63 8 0 -9 47 -37 81 -47 21 -6 29 -49 29 -157 0 -48 4 -90 10 -94 5 -3 7
-12 3 -21 -7 -19 42 -94 62 -94 14 0 14 4 -1 31 -26 51 -41 128 -48 245 -6 89
-4 116 9 140 22 44 19 67 -18 102 -31 31 -47 39 -47 26z"/>
<path d="M145 529 c-40 -36 -44 -64 -14 -103 19 -24 20 -34 13 -94 -4 -37 -6
-73 -5 -80 1 -7 -9 -36 -22 -65 -34 -73 -43 -117 -23 -117 20 0 61 55 74 100
6 19 13 75 15 125 4 79 8 91 29 107 64 47 81 81 27 53 -30 -16 -30 -16 -15 14
9 16 20 33 26 36 5 3 10 10 10 16 0 17 -22 9 -58 -22 -40 -35 -59 -23 -23 15
22 23 28 46 11 46 -5 0 -25 -14 -45 -31z"/>
<path d="M240 381 c-12 -9 -12 -11 2 -16 23 -9 83 -2 83 10 0 13 -66 18 -85 6z"/>
<path d="M239 316 c-9 -19 -7 -29 6 -50 22 -34 36 -33 64 5 26 35 21 51 -9 24
-17 -15 -22 -16 -36 -4 -16 13 -14 14 16 19 47 7 52 30 6 30 -29 0 -39 -5 -47
-24z"/>
<path d="M321 235 c-32 -36 -32 -36 -62 -10 -37 31 -72 36 -46 7 21 -23 22
-42 2 -42 -22 0 -18 -20 15 -69 17 -24 30 -52 30 -63 0 -27 30 -35 46 -13 8
10 14 27 14 37 0 11 9 39 21 64 14 33 17 49 10 58 -8 9 -6 18 4 32 35 46 9 45
-34 -1z m-7 -87 c-16 -54 -45 -57 -63 -7 -10 29 -10 29 30 29 37 0 40 -2 33
-22z"/>
</g>
</svg>
