<svg version="1.0" xmlns="http://www.w3.org/2000/svg"
 width="64.000000pt" height="81.000000pt" viewBox="0 0 64.000000 81.000000"
 preserveAspectRatio="xMidYMid meet">
<metadata>
Created by potrace 1.15, written by Peter Selinger 2001-2017
</metadata>
<g transform="translate(0.000000,81.000000) scale(0.100000,-0.100000)"
fill="#000000" stroke="none">
<path d="M251 570 c-200 -10 -190 0 -193 -196 -1 -79 -2 -154 -2 -166 -1 -21
4 -23 64 -28 65 -5 65 -5 68 -54 4 -56 -5 -66 -60 -66 -42 0 -68 -8 -68 -21 0
-16 119 -10 145 7 25 16 25 16 25 211 0 194 0 194 -70 187 -70 -7 -70 -7 -70
33 0 40 1 41 42 47 24 4 127 11 231 16 185 9 207 12 207 31 0 10 -82 10 -319
-1z m-66 -179 c12 -38 -14 -61 -72 -61 -20 0 -23 5 -23 40 0 40 0 40 44 40 35
0 46 -4 51 -19z m5 -131 c0 -50 0 -50 -44 -50 -48 0 -56 9 -56 66 0 34 0 34
50 34 50 0 50 0 50 -50z"/>
<path d="M403 490 c-4 -15 -14 -20 -39 -20 -53 0 -74 -28 -74 -97 0 -32 4 -64
9 -72 13 -20 120 -27 187 -12 61 14 84 43 84 106 0 62 -13 75 -75 75 -48 0
-55 2 -55 20 0 12 -7 20 -16 20 -9 0 -18 -9 -21 -20z m7 -75 c0 -23 -4 -25
-45 -25 -42 0 -45 2 -35 19 11 22 25 29 58 30 17 1 22 -5 22 -24z m108 -2 c3
-21 -1 -23 -37 -23 -34 0 -41 3 -41 19 0 38 73 41 78 4z m-108 -67 c0 -33 -11
-38 -49 -23 -50 18 -40 47 16 47 28 0 33 -3 33 -24z m110 5 c0 -18 -25 -31
-62 -31 -13 0 -18 8 -18 25 0 23 4 25 40 25 33 0 40 -4 40 -19z"/>
<path d="M287 234 c-14 -14 6 -24 49 -24 46 0 47 -1 58 -52 6 -25 11 -28 50
-28 29 0 48 -6 59 -18 25 -27 3 -42 -59 -42 -85 0 -144 -11 -144 -27 0 -12 19
-14 109 -11 118 3 143 13 156 65 10 41 -18 63 -82 63 -50 0 -53 2 -53 25 0 23
3 24 78 27 45 2 76 7 75 13 -3 11 -285 20 -296 9z"/>
</g>
</svg>
