<svg version="1.0" xmlns="http://www.w3.org/2000/svg"
 width="65.000000pt" height="91.000000pt" viewBox="0 0 65.000000 91.000000"
 preserveAspectRatio="xMidYMid meet">
<metadata>
Created by potrace 1.15, written by Peter Selinger 2001-2017
</metadata>
<g transform="translate(0.000000,91.000000) scale(0.100000,-0.100000)"
fill="#000000" stroke="none">
<path d="M343 702 c21 -21 34 -41 31 -45 -4 -4 -39 -7 -78 -7 -101 0 -177 -11
-173 -24 2 -7 55 -14 138 -19 73 -5 135 -9 136 -10 7 -7 24 -174 23 -225 -2
-75 16 -165 39 -201 20 -34 101 -107 101 -92 0 6 -15 32 -34 58 -40 57 -65
142 -59 201 6 47 5 46 49 30 17 -6 40 -8 50 -4 16 7 12 11 -21 24 -77 32 -78
36 -34 87 35 39 22 46 -28 15 -33 -20 -33 -20 -35 25 -1 25 -2 53 -2 62 -1 13
13 22 52 32 61 16 68 31 14 31 -21 0 -46 6 -57 13 -17 13 -16 16 19 42 20 15
36 31 36 36 0 11 -44 2 -82 -17 -24 -13 -31 -12 -63 6 -55 31 -63 24 -22 -18z"/>
<path d="M132 525 c-42 -41 -73 -78 -70 -81 8 -7 47 13 75 39 19 16 25 18 38
7 21 -17 19 -47 -3 -54 -10 -4 -31 -20 -47 -36 -25 -26 -27 -33 -17 -54 6 -14
25 -32 42 -41 31 -16 34 -25 31 -87 -2 -32 1 -39 24 -50 31 -14 29 -38 -4 -54
-29 -15 -41 -32 -41 -61 0 -30 13 -29 30 2 8 14 29 35 47 46 40 25 41 39 8 75
-32 35 -32 39 7 50 43 13 47 32 7 36 -47 4 -47 24 0 32 44 7 71 35 71 74 0 29
-51 82 -79 82 -34 0 -24 26 14 37 27 9 37 8 46 -4 15 -18 69 -46 76 -40 15 16
-134 157 -166 157 -8 0 -48 -34 -89 -75z m128 5 c0 -10 -70 -23 -78 -16 -3 4
5 17 18 31 22 23 25 24 42 8 10 -9 18 -19 18 -23z m14 -123 c28 -20 18 -69
-17 -81 -39 -14 -111 11 -115 41 -6 43 88 72 132 40z"/>
<path d="M203 374 c-8 -21 13 -42 28 -27 13 13 5 43 -11 43 -6 0 -13 -7 -17
-16z"/>
<path d="M364 369 c-15 -17 -19 -37 -19 -98 0 -75 -1 -78 -35 -109 -37 -34
-28 -42 20 -17 30 16 30 16 30 -19 0 -28 -7 -40 -30 -58 -34 -25 -39 -48 -11
-48 21 0 75 57 86 89 3 12 -1 55 -11 97 -11 50 -14 94 -10 130 3 30 5 54 3 54
-2 0 -12 -9 -23 -21z"/>
</g>
</svg>
