<svg version="1.0" xmlns="http://www.w3.org/2000/svg"
 width="72.000000pt" height="91.000000pt" viewBox="0 0 72.000000 91.000000"
 preserveAspectRatio="xMidYMid meet">
<metadata>
Created by potrace 1.15, written by Peter Selinger 2001-2017
</metadata>
<g transform="translate(0.000000,91.000000) scale(0.100000,-0.100000)"
fill="#000000" stroke="none">
<path d="M333 722 c-5 -4 -15 -17 -22 -29 -7 -13 -21 -23 -34 -23 -12 0 -38
-5 -58 -10 -43 -12 -59 -42 -59 -111 0 -40 5 -55 26 -76 26 -26 26 -26 173
-21 82 3 157 11 168 17 31 16 41 109 16 159 -17 35 -21 37 -87 47 -39 6 -71
16 -74 23 -5 17 -36 32 -49 24z m145 -98 c6 -2 12 -12 12 -22 0 -18 -11 -20
-117 -26 -65 -4 -126 -10 -135 -12 -13 -4 -18 0 -18 13 0 33 18 47 67 54 45 6
163 2 191 -7z m22 -94 c0 -27 -26 -36 -126 -45 -62 -5 -89 -3 -117 9 -39 16
-49 35 -19 37 9 1 67 5 127 9 61 3 116 7 123 8 6 1 12 -7 12 -18z"/>
<path d="M145 440 c-10 -17 0 -24 90 -64 80 -35 80 -35 -25 -38 -85 -2 -105
-6 -105 -18 0 -12 19 -15 115 -15 109 0 115 -1 118 -21 3 -20 -2 -22 -103 -26
-58 -3 -108 -7 -111 -11 -18 -18 16 -27 107 -27 99 0 99 0 99 -25 0 -24 0 -24
-112 -27 -93 -2 -113 -6 -113 -18 0 -12 21 -16 117 -18 117 -3 117 -3 120 -54
2 -28 8 -53 13 -55 22 -6 39 18 44 64 6 48 6 48 101 53 76 4 95 8 95 20 0 13
-16 15 -97 12 -98 -3 -98 -3 -98 23 0 25 0 25 91 25 81 0 90 2 87 18 -3 14
-17 17 -91 20 -85 3 -88 4 -85 25 3 20 10 22 93 27 71 4 90 8 90 20 0 12 -13
14 -75 11 -89 -4 -87 8 10 55 64 31 71 39 41 49 -12 4 -49 -9 -99 -35 -44 -22
-83 -40 -89 -40 -5 0 -47 16 -93 36 -103 44 -125 49 -135 34z"/>
</g>
</svg>
