<svg version="1.0" xmlns="http://www.w3.org/2000/svg"
 width="77.000000pt" height="143.000000pt" viewBox="0 0 77.000000 143.000000"
 preserveAspectRatio="xMidYMid meet">
<metadata>
Created by potrace 1.15, written by Peter Selinger 2001-2017
</metadata>
<g transform="translate(0.000000,143.000000) scale(0.100000,-0.100000)"
fill="#000000" stroke="none">
<path d="M230 1070 c0 -90 -1 -91 -75 -65 -22 8 -41 15 -42 15 -2 0 -3 -35 -3
-78 0 -64 4 -82 18 -95 10 -10 24 -17 30 -17 7 0 12 -4 12 -10 0 -5 6 -10 13
-10 33 -1 47 -28 52 -101 4 -65 8 -76 32 -96 16 -12 40 -28 55 -35 36 -16 40
-31 32 -95 -7 -58 -13 -62 -52 -35 -15 10 -42 24 -59 31 -18 8 -33 16 -33 20
0 4 -14 8 -31 9 -30 2 -31 1 -25 -25 4 -16 9 -46 11 -68 21 -164 45 -285 55
-285 20 0 22 140 4 258 -5 32 -5 32 33 15 21 -9 52 -27 70 -40 41 -30 49 -29
68 7 11 20 15 59 15 132 0 103 0 103 -58 133 -54 29 -57 32 -60 73 -2 23 1 42
6 42 17 0 72 -57 72 -74 0 -22 13 -20 35 4 10 11 25 20 33 20 10 0 13 8 9 26
-4 20 -1 24 12 18 9 -4 39 -8 68 -10 62 -3 76 -10 70 -35 -3 -10 -1 -35 3 -56
5 -21 14 -83 20 -138 12 -98 27 -155 42 -155 10 0 11 5 9 127 0 56 -7 135 -16
175 -18 87 -18 98 -4 98 18 0 41 30 35 45 -3 8 -16 15 -29 15 -21 0 -25 6 -30
42 -6 45 3 59 32 51 32 -8 39 17 32 112 -4 50 -11 96 -15 103 -11 18 -190 16
-205 -1 -6 -8 -7 -17 -3 -22 4 -4 -4 -4 -17 0 -23 7 -24 6 -17 -31 4 -22 10
-64 14 -94 9 -67 17 -81 45 -79 12 1 34 1 50 1 25 -2 27 -5 27 -46 0 -52 -7
-56 -89 -56 -57 0 -57 0 -58 49 -1 55 -7 71 -29 71 -23 0 -94 51 -95 69 -3
117 -21 171 -56 171 -10 0 -13 -20 -13 -80z m351 0 c69 0 69 0 69 -60 0 -60 0
-60 -54 -60 -30 0 -61 -3 -70 -6 -12 -5 -16 0 -16 17 0 13 -7 46 -15 73 -13
43 -13 47 1 42 9 -3 47 -6 85 -6z m-377 -140 c21 -8 26 -16 26 -45 0 -40 -2
-41 -35 -19 -17 11 -25 26 -25 45 0 33 0 32 34 19z m137 -60 c5 0 9 -13 9 -30
0 -32 -9 -36 -41 -20 -30 17 -23 67 9 55 7 -3 18 -5 23 -5z"/>
</g>
</svg>
