<svg version="1.0" xmlns="http://www.w3.org/2000/svg"
 width="117.000000pt" height="143.000000pt" viewBox="0 0 117.000000 143.000000"
 preserveAspectRatio="xMidYMid meet">
<metadata>
Created by potrace 1.15, written by Peter Selinger 2001-2017
</metadata>
<g transform="translate(0.000000,143.000000) scale(0.100000,-0.100000)"
fill="#000000" stroke="none">
<path d="M285 1250 c-3 -5 1 -22 9 -37 19 -37 30 -114 21 -151 -6 -30 -6 -30
-108 -26 -144 4 -198 -10 -127 -35 29 -9 36 -27 31 -68 -3 -23 20 -94 37 -114
21 -25 86 -60 127 -69 28 -5 31 -10 39 -65 6 -39 5 -98 -2 -170 -7 -68 -8
-113 -2 -119 14 -14 40 13 40 43 0 14 7 62 15 106 9 44 18 104 22 133 6 52 6
52 56 52 49 0 49 0 43 -27 -3 -16 -9 -64 -12 -108 -6 -67 -4 -83 9 -94 14 -11
18 -8 32 25 17 42 53 267 57 362 3 65 -6 82 -44 82 -10 0 -18 4 -18 8 0 5 -24
14 -52 21 -72 18 -80 27 -73 71 13 79 -70 229 -100 180z m-42 -271 c31 -17 37
-29 26 -57 -5 -13 -6 -47 -3 -74 7 -49 7 -49 -32 -33 -21 9 -42 21 -46 28 -8
13 -9 18 -11 95 -2 48 0 52 21 52 13 0 33 -5 45 -11z m214 -42 c27 -9 32 -16
38 -54 3 -24 3 -57 0 -73 -7 -33 -16 -35 -99 -24 -46 7 -46 7 -46 52 0 25 8
63 17 84 18 41 17 40 90 15z"/>
<path d="M813 937 c-33 -7 -55 -17 -58 -27 -3 -8 -18 -24 -35 -33 -34 -21 -38
-54 -17 -142 20 -81 46 -105 117 -105 30 0 42 -5 46 -17 3 -10 10 -26 15 -35
5 -10 9 -43 9 -73 0 -55 0 -55 -55 -55 -82 0 -128 29 -150 94 -13 39 -29 39
-33 1 -5 -43 34 -109 77 -131 20 -10 63 -20 96 -23 60 -6 60 -6 57 -59 -3 -68
-49 -163 -107 -222 -46 -47 -58 -75 -27 -62 34 13 100 67 121 97 11 17 29 40
39 51 19 21 45 110 42 146 -4 39 -1 48 16 48 9 0 43 14 76 32 44 23 63 40 74
66 18 44 18 78 -1 85 -16 7 -20 3 -29 -35 -3 -15 -18 -35 -34 -46 -32 -23
-101 -47 -109 -38 -4 3 -8 38 -10 76 -3 60 0 72 14 77 28 11 74 55 90 87 10
19 15 55 15 98 -1 59 -4 71 -26 93 -14 14 -29 31 -33 39 -11 19 -114 27 -180
13z m145 -65 c31 -16 32 -18 32 -80 0 -84 -22 -109 -95 -106 -27 1 -62 3 -78
3 -52 2 -86 98 -54 154 6 12 13 24 14 25 1 2 19 10 40 17 43 15 94 10 141 -13z"/>
</g>
</svg>
