<svg version="1.0" xmlns="http://www.w3.org/2000/svg"
 width="93.000000pt" height="165.000000pt" viewBox="0 0 93.000000 165.000000"
 preserveAspectRatio="xMidYMid meet">
<metadata>
Created by potrace 1.15, written by Peter Selinger 2001-2017
</metadata>
<g transform="translate(0.000000,165.000000) scale(0.100000,-0.100000)"
fill="#000000" stroke="none">
<path d="M724 1488 c-3 -12 -5 -78 -3 -147 4 -125 4 -125 -51 -154 -30 -16
-60 -37 -67 -46 -19 -24 -34 -86 -35 -141 -1 -41 -5 -50 -27 -62 -14 -7 -28
-16 -31 -19 -3 -3 -15 -11 -27 -18 -37 -19 -29 -40 11 -31 18 4 38 10 44 14
11 6 18 -23 28 -124 4 -36 9 -69 12 -74 6 -11 32 50 32 78 0 12 4 26 10 32 5
5 6 30 2 59 -7 47 -6 51 18 63 14 8 44 20 67 27 48 15 46 16 58 -67 6 -48 -9
-128 -24 -128 -5 0 -14 -12 -20 -27 -11 -28 -90 -92 -156 -126 -35 -19 -35
-19 -37 -115 0 -54 0 -108 1 -121 2 -26 23 -51 41 -51 13 0 40 24 40 37 1 16
188 143 212 143 7 0 8 -24 3 -77 -8 -87 -8 -194 1 -228 3 -13 0 -33 -6 -45 -6
-12 -8 -25 -4 -28 4 -4 9 -1 11 6 3 7 13 21 23 30 11 11 21 46 29 102 6 47 16
110 21 140 10 54 16 218 9 224 -2 2 -16 6 -30 9 -22 6 -28 2 -38 -21 -8 -19
-49 -53 -124 -102 -62 -41 -115 -77 -119 -78 -5 -2 -8 21 -8 51 0 54 0 54 48
77 26 13 56 32 67 42 11 11 36 34 56 51 70 62 90 143 74 292 -7 60 -7 60 32
101 47 49 63 98 63 195 0 62 -4 79 -23 103 -28 34 -44 29 -45 -15 -1 -33 -26
-69 -49 -69 -15 0 -14 -5 -18 94 -3 58 -9 91 -26 122 -25 49 -34 54 -45 22z
m128 -338 c3 -20 -1 -35 -13 -46 -18 -16 -18 -15 -17 22 0 22 3 42 5 47 9 16
21 5 25 -23z m-111 -27 c0 -5 2 -32 5 -60 3 -34 1 -53 -6 -53 -5 0 -31 -10
-56 -21 -29 -14 -49 -18 -55 -12 -15 15 1 89 22 110 11 10 25 23 32 30 13 13
57 17 58 6z"/>
<path d="M128 1178 c2 -62 9 -121 14 -131 5 -9 6 -22 3 -27 -13 -21 6 -50 33
-50 15 0 32 -4 38 -8 16 -10 17 -167 1 -180 -7 -6 -39 -10 -72 -10 -148 0
-145 1 -145 -31 0 -32 14 -37 130 -40 108 -3 100 12 100 -186 0 -96 4 -176 9
-179 24 -15 34 29 37 157 1 73 3 132 4 132 1 0 4 13 6 30 3 16 7 31 8 33 2 1
36 -3 75 -9 57 -10 79 -9 112 1 70 23 32 58 -82 74 -117 16 -109 9 -109 92 0
96 12 122 59 126 31 3 36 7 43 38 14 63 29 220 24 238 -11 31 -55 42 -176 42
-116 0 -116 0 -112 -112z m160 37 c26 -1 51 -3 55 -4 9 -1 -1 -163 -11 -172
-4 -4 -34 -4 -67 -1 -60 7 -60 7 -57 40 1 17 -2 32 -8 32 -6 0 -10 27 -10 60
0 60 0 60 26 54 14 -4 47 -8 72 -9z"/>
</g>
</svg>
