<svg version="1.0" xmlns="http://www.w3.org/2000/svg"
 width="127.000000pt" height="133.000000pt" viewBox="0 0 127.000000 133.000000"
 preserveAspectRatio="xMidYMid meet">
<metadata>
Created by potrace 1.15, written by Peter Selinger 2001-2017
</metadata>
<g transform="translate(0.000000,133.000000) scale(0.100000,-0.100000)"
fill="#000000" stroke="none">
<path d="M797 1114 c-16 -16 -5 -44 29 -70 115 -90 110 -134 -15 -134 -57 0
-101 -19 -101 -43 0 -11 -10 -32 -21 -49 -18 -25 -23 -49 -26 -137 -4 -91 -3
-110 12 -124 25 -25 35 -21 35 17 0 50 25 62 142 73 57 4 57 4 53 -149 -4
-174 -1 -208 26 -237 10 -11 19 -24 19 -28 1 -11 83 -74 126 -97 49 -26 130
-31 138 -9 8 20 -14 36 -71 51 -71 20 -145 77 -182 141 -15 28 -17 264 -2 305
8 18 19 24 58 30 29 4 49 2 51 -4 8 -23 52 -10 67 20 20 39 19 78 -6 152 -23
72 -64 108 -124 108 -29 0 -35 4 -35 21 0 32 -39 95 -66 108 -13 6 -24 17 -24
25 0 8 -3 17 -7 19 -17 10 -69 17 -76 11z m117 -337 c-3 -45 -7 -83 -8 -83 0
-1 -41 -4 -91 -5 -90 -4 -90 -4 -87 56 5 79 22 97 110 111 37 6 71 9 75 6 4
-2 5 -40 1 -85z m155 64 c24 -33 28 -103 9 -119 -7 -5 -34 -13 -60 -16 -48 -7
-48 -7 -48 32 0 22 3 60 6 86 6 44 8 46 40 46 25 0 38 -7 53 -29z"/>
<path d="M223 976 c-74 -16 -97 -42 -97 -108 1 -99 63 -162 152 -154 36 3 45
0 57 -18 15 -24 38 -173 29 -188 -7 -11 -81 -3 -123 14 -53 21 -117 53 -144
71 -23 16 -28 16 -33 3 -3 -8 -3 -20 1 -26 20 -32 216 -120 268 -120 28 0 28
0 21 -67 -8 -83 -47 -165 -116 -244 -35 -41 -49 -64 -46 -81 3 -23 3 -23 28 3
47 48 110 124 110 132 0 4 10 18 21 30 32 34 47 76 55 158 7 74 7 74 71 114
77 48 105 73 98 86 -10 15 -36 10 -54 -10 -20 -23 -96 -62 -105 -54 -3 4 -6
52 -6 107 0 102 0 102 45 115 25 7 45 17 45 22 0 5 6 9 13 9 18 1 57 36 57 52
0 8 5 19 12 26 16 16 -7 85 -40 117 -24 24 -30 25 -146 24 -66 -1 -145 -7
-173 -13z m274 -38 c38 -49 14 -114 -53 -146 -40 -20 -63 -24 -136 -23 -51 1
-97 6 -108 13 -25 16 -41 61 -34 98 6 29 18 36 94 58 53 15 225 15 237 0z"/>
</g>
</svg>
