<svg version="1.0" xmlns="http://www.w3.org/2000/svg"
 width="115.000000pt" height="119.000000pt" viewBox="0 0 115.000000 119.000000"
 preserveAspectRatio="xMidYMid meet">
<metadata>
Created by potrace 1.15, written by Peter Selinger 2001-2017
</metadata>
<g transform="translate(0.000000,119.000000) scale(0.100000,-0.100000)"
fill="#000000" stroke="none">
<path d="M839 1102 c-25 -26 -52 -52 -60 -58 -37 -29 -168 -184 -191 -227 -45
-81 0 -172 113 -226 44 -22 139 -29 139 -11 0 14 -35 30 -64 30 -14 0 -26 3
-26 8 0 13 -62 36 -69 24 -6 -10 -25 4 -29 23 -1 6 -9 28 -18 50 -13 34 -13
46 -2 79 14 44 29 53 50 34 26 -25 164 -97 184 -98 23 0 25 32 3 51 -12 11
-26 19 -30 19 -4 0 -14 6 -21 13 -7 7 -34 23 -60 37 -27 14 -48 31 -48 38 0
13 75 92 87 92 9 0 68 -35 71 -42 2 -5 9 -8 16 -8 7 0 31 -9 54 -20 40 -19 72
-26 72 -14 0 10 -28 34 -40 34 -6 0 -9 4 -6 8 3 5 -7 15 -22 23 -97 49 -113
77 -68 120 13 13 22 29 19 36 -3 7 0 13 6 13 6 0 11 5 11 10 0 22 -27 7 -71
-38z m-89 -262 c0 -5 -4 -10 -10 -10 -5 0 -10 5 -10 10 0 6 5 10 10 10 6 0 10
-4 10 -10z"/>
<path d="M267 1079 c-8 -22 3 -210 15 -257 11 -43 26 -45 36 -5 9 33 8 158 0
198 -10 45 -42 86 -51 64z"/>
<path d="M423 1016 c-29 -34 40 -143 73 -115 22 18 17 58 -12 96 -27 35 -42
40 -61 19z"/>
<path d="M103 983 c-9 -19 -10 -29 -2 -34 7 -4 8 -8 1 -10 -10 -4 -15 -28 -13
-66 2 -33 28 -18 52 28 15 30 18 47 11 72 -10 40 -33 45 -49 10z"/>
<path d="M154 576 c-19 -14 -19 -15 1 -21 11 -4 28 -11 38 -16 11 -6 44 -5 90
1 98 15 102 17 87 35 -17 21 -188 21 -216 1z"/>
<path d="M1075 505 c7 -85 7 -85 -75 -78 -77 6 -82 5 -78 -13 2 -14 17 -22 59
-30 119 -23 109 -15 109 -98 0 -50 -4 -77 -14 -85 -13 -11 -62 -10 -81 1 -6 3
-26 9 -45 13 -31 7 -33 6 -21 -9 7 -8 17 -13 22 -10 5 3 12 -2 15 -10 3 -9 10
-14 14 -11 4 3 13 -2 20 -10 7 -8 19 -15 26 -15 15 0 15 1 19 -50 1 -19 0 -30
-2 -23 -3 9 -12 9 -29 2 -14 -5 -43 -9 -65 -9 -21 0 -39 -4 -39 -10 0 -6 -10
-6 -27 1 -15 6 -41 9 -58 9 -106 -6 -114 3 -65 75 44 64 37 107 -8 50 -11 -14
-25 -25 -31 -25 -6 0 -11 -4 -11 -10 0 -5 -9 -10 -20 -10 -11 0 -20 7 -20 15
0 9 -7 18 -15 21 -10 4 -12 10 -7 18 5 6 12 28 16 48 5 27 19 47 55 79 75 63
76 103 2 58 -45 -27 -76 -15 -85 34 -4 19 -13 40 -21 47 -11 9 -15 5 -20 -22
-6 -32 -1 -123 9 -163 2 -11 10 -52 17 -92 7 -40 16 -70 21 -67 4 3 8 1 8 -5
0 -5 -5 -11 -12 -13 -6 -2 4 -20 24 -40 27 -27 48 -37 85 -43 74 -12 250 -3
293 15 28 12 64 63 53 74 -4 4 -1 11 6 15 21 13 30 85 31 244 0 145 -4 169
-37 204 -22 24 -25 13 -18 -72z m-437 -170 c-3 -3 -9 2 -12 12 -6 14 -5 15 5
6 7 -7 10 -15 7 -18z"/>
<path d="M257 314 c-11 -12 -8 -146 3 -139 6 3 10 2 10 -4 0 -5 -4 -13 -10
-16 -14 -9 -12 -34 4 -50 23 -23 36 4 36 76 0 48 -4 70 -15 79 -13 11 -13 15
-3 21 10 7 10 11 -3 24 -8 8 -18 12 -22 9z"/>
<path d="M99 283 c-5 -16 -14 -40 -21 -56 -6 -15 -10 -38 -10 -52 0 -14 -4
-25 -9 -25 -5 0 -9 -7 -9 -15 0 -20 12 -19 37 3 25 21 55 77 46 86 -4 3 -2 6
4 6 14 0 25 43 17 64 -10 26 -43 19 -55 -11z"/>
<path d="M386 268 c10 -35 61 -105 80 -112 32 -12 36 10 13 63 -23 53 -42 71
-79 71 -18 0 -20 -4 -14 -22z"/>
</g>
</svg>
