<svg version="1.0" xmlns="http://www.w3.org/2000/svg"
 width="62.000000pt" height="82.000000pt" viewBox="0 0 62.000000 82.000000"
 preserveAspectRatio="xMidYMid meet">
<metadata>
Created by potrace 1.15, written by Peter Selinger 2001-2017
</metadata>
<g transform="translate(0.000000,82.000000) scale(0.100000,-0.100000)"
fill="#000000" stroke="none">
<path d="M198 733 c-3 -41 -20 -48 -28 -12 -7 28 -28 36 -36 15 -11 -29 5 -65
31 -72 15 -4 25 -13 25 -24 0 -39 -40 -35 -58 6 -15 32 -32 31 -32 -4 0 -36
16 -52 52 -52 23 0 28 -4 28 -24 0 -46 -57 -40 -73 7 -5 16 -27 -2 -27 -21 0
-10 7 -28 16 -41 14 -19 22 -22 51 -16 30 5 34 4 31 -12 -2 -9 -19 -27 -38
-39 -57 -37 -100 -75 -100 -90 0 -23 22 -16 77 25 28 22 61 44 72 51 42 22 22
-20 -34 -74 -54 -51 -68 -76 -42 -76 20 0 126 107 133 134 4 17 -1 34 -15 55
-12 16 -21 32 -21 36 0 4 20 5 46 2 38 -4 45 -2 42 12 -2 11 -16 17 -41 19
-59 5 -48 52 14 52 22 0 53 44 45 65 -8 22 -30 18 -41 -7 -13 -29 -45 -37 -45
-11 0 11 11 23 30 30 30 11 48 49 36 79 -9 23 -31 11 -34 -19 -5 -37 -20 -34
-24 5 -5 50 -36 51 -40 1z"/>
<path d="M367 734 c-4 -4 -7 -26 -7 -50 0 -34 -4 -43 -21 -47 -38 -10 -11 -24
57 -30 74 -7 79 -9 71 -31 -5 -12 -12 -13 -36 -5 -36 13 -93 8 -98 -8 -3 -7 8
-15 24 -18 15 -4 39 -8 52 -11 37 -8 13 -23 -58 -37 -34 -7 -61 -17 -59 -22 5
-15 112 -8 146 9 30 16 30 16 37 -37 9 -62 20 -87 41 -87 25 0 27 27 4 101
-15 50 -19 83 -15 111 8 47 -6 68 -45 68 -16 0 -35 3 -44 6 -30 12 -16 24 28
24 25 0 48 5 51 10 11 18 -14 38 -53 42 -20 3 -44 8 -53 12 -8 4 -18 3 -22 0z"/>
<path d="M313 443 c-26 -5 -30 -21 -8 -29 25 -10 17 -23 -22 -41 -37 -16 -38
-17 -11 -20 15 -3 36 1 48 7 18 9 20 8 20 -15 0 -23 -4 -25 -44 -25 -52 0 -62
-10 -71 -72 -6 -38 -3 -53 14 -81 20 -34 20 -34 -14 -50 -35 -17 -43 -31 -26
-42 13 -7 83 26 99 48 13 17 32 15 32 -3 0 -5 -27 -25 -60 -46 -93 -57 -75
-75 26 -27 46 21 59 24 73 14 9 -6 24 -14 34 -17 9 -4 17 -10 17 -14 0 -6 52
-30 66 -30 2 0 4 9 4 19 0 13 -17 29 -50 47 -39 21 -50 33 -48 48 2 13 11 21
23 22 60 3 85 37 85 115 0 43 -26 69 -70 69 -41 0 -57 16 -24 24 53 14 68 43
42 79 -13 18 -92 30 -135 20z m97 -42 c0 -11 -39 -25 -47 -18 -3 3 -2 10 2 16
8 13 45 15 45 2z m-115 -131 c-3 -5 -15 -10 -26 -10 -11 0 -17 5 -14 10 3 6
15 10 26 10 11 0 17 -4 14 -10z m165 -10 c0 -24 -3 -24 -40 -5 -39 20 -38 25
5 25 28 0 35 -4 35 -20z m-57 -28 c26 -12 47 -26 47 -32 0 -13 -27 -13 -35 0
-3 6 -20 17 -36 26 -28 14 -33 14 -65 -5 -36 -22 -64 -27 -64 -13 0 8 90 52
100 48 3 -1 26 -12 53 -24z m-40 -47 c1 -5 -16 -11 -38 -13 -40 -2 -40 -2 -15
13 27 16 50 16 53 0z"/>
<path d="M440 120 c0 -12 70 -60 87 -60 7 0 13 9 13 21 0 13 -11 25 -35 35
-40 16 -65 18 -65 4z"/>
</g>
</svg>
