<svg version="1.0" xmlns="http://www.w3.org/2000/svg"
 width="99.000000pt" height="121.000000pt" viewBox="0 0 99.000000 121.000000"
 preserveAspectRatio="xMidYMid meet">
<metadata>
Created by potrace 1.15, written by Peter Selinger 2001-2017
</metadata>
<g transform="translate(0.000000,121.000000) scale(0.100000,-0.100000)"
fill="#000000" stroke="none">
<path d="M228 1028 c-3 -135 8 -124 -150 -140 -26 -2 -45 -24 -32 -37 3 -3 48
-5 100 -3 94 3 94 3 93 -55 0 -32 -4 -94 -8 -138 -8 -86 3 -169 22 -162 17 5
25 58 32 217 4 80 9 147 11 149 4 4 33 6 147 11 4 0 7 9 7 20 0 18 -7 20 -85
20 -85 0 -85 0 -85 104 0 117 -4 136 -31 136 -17 0 -19 -11 -21 -122z"/>
<path d="M658 1043 c-4 -110 -3 -135 4 -185 7 -44 6 -48 -12 -48 -15 0 -20 -7
-20 -25 0 -20 6 -25 38 -30 115 -16 148 -26 164 -47 26 -34 23 -60 -4 -53 -58
13 -184 23 -192 15 -5 -5 3 -20 17 -34 21 -21 36 -26 73 -26 61 0 114 -19 114
-41 0 -22 -56 -31 -72 -11 -10 11 -13 10 -20 -8 -8 -21 -13 -22 -63 -16 -42 5
-55 3 -55 -7 0 -23 54 -45 132 -52 76 -7 76 -7 83 -81 4 -41 5 -86 2 -100 -6
-32 22 -154 47 -204 28 -57 44 -76 57 -63 9 9 9 23 0 55 -35 120 -54 282 -55
458 -1 108 -5 163 -15 181 -15 30 -81 69 -116 69 -30 0 -41 16 -47 71 -6 58 9
69 91 69 52 0 61 3 66 21 4 11 4 24 0 27 -4 4 -43 6 -87 5 -80 -1 -80 -1 -75
42 5 47 -12 85 -39 85 -11 0 -15 -16 -16 -67z"/>
<path d="M390 506 c0 -73 0 -73 -84 -80 -108 -8 -134 1 -128 43 4 31 -19 81
-38 81 -16 0 -13 -301 4 -341 29 -69 73 -99 145 -99 43 0 53 4 85 37 20 21 41
54 46 73 10 41 21 325 13 346 -3 8 -14 14 -24 14 -17 0 -19 -8 -19 -74z m0
-180 c-1 -69 -22 -143 -45 -161 -23 -16 -75 -20 -75 -5 0 6 -9 10 -19 10 -43
0 -84 106 -67 173 5 22 13 25 83 33 118 14 123 12 123 -50z"/>
<path d="M716 235 c-9 -26 -7 -32 5 -12 6 10 9 21 6 23 -2 3 -7 -2 -11 -11z"/>
</g>
</svg>
