<svg version="1.0" xmlns="http://www.w3.org/2000/svg"
 width="66.000000pt" height="85.000000pt" viewBox="0 0 66.000000 85.000000"
 preserveAspectRatio="xMidYMid meet">
<metadata>
Created by potrace 1.15, written by Peter Selinger 2001-2017
</metadata>
<g transform="translate(0.000000,85.000000) scale(0.100000,-0.100000)"
fill="#000000" stroke="none">
<path d="M448 593 c-54 -2 -98 -7 -98 -11 0 -19 27 -32 67 -32 40 0 42 -2 49
-35 9 -47 -2 -82 -34 -113 -27 -27 -27 -27 -30 21 -3 39 -6 48 -20 45 -15 -3
-17 -23 -20 -175 -3 -194 6 -235 54 -253 43 -17 114 -1 146 31 28 28 28 28 26
216 -3 159 -5 188 -18 188 -10 0 -16 -12 -18 -32 -7 -69 -52 -14 -52 63 0 51
0 51 47 60 52 10 73 35 26 32 -15 -1 -72 -4 -125 -5z m76 -214 c22 -18 26 -28
26 -74 0 -54 0 -54 -43 -60 -24 -4 -56 -5 -73 -3 -27 3 -29 6 -32 54 -3 51 -3
52 40 77 52 32 49 32 82 6z m26 -223 c0 -68 -16 -86 -74 -86 -51 0 -66 14 -73
69 -9 65 -3 71 77 71 70 0 70 0 70 -54z"/>
<path d="M87 573 c-19 -19 -4 -32 41 -35 47 -3 47 -3 54 -68 8 -64 8 -65 -25
-95 -32 -29 -32 -29 -35 28 -3 49 -6 58 -20 55 -15 -3 -17 -24 -20 -193 -2
-190 -2 -190 27 -223 26 -28 36 -32 81 -32 62 0 82 10 109 54 19 30 21 48 21
205 0 163 -7 211 -30 211 -6 0 -10 -20 -10 -44 0 -54 -16 -68 -42 -36 -13 16
-18 39 -18 81 0 58 1 59 28 59 42 0 72 11 72 26 0 11 -24 14 -113 14 -63 0
-117 -3 -120 -7z m189 -233 c2 0 4 -27 4 -60 0 -60 0 -60 -80 -60 -80 0 -80 0
-80 48 0 44 3 49 42 74 40 25 44 26 76 12 19 -8 36 -14 38 -14z m2 -210 c-2
-33 -9 -65 -15 -71 -6 -6 -31 -13 -55 -16 -62 -7 -78 11 -78 88 0 59 0 59 76
59 76 0 76 0 72 -60z"/>
</g>
</svg>
