<svg version="1.0" xmlns="http://www.w3.org/2000/svg"
 width="71.000000pt" height="87.000000pt" viewBox="0 0 71.000000 87.000000"
 preserveAspectRatio="xMidYMid meet">
<metadata>
Created by potrace 1.15, written by Peter Selinger 2001-2017
</metadata>
<g transform="translate(0.000000,87.000000) scale(0.100000,-0.100000)"
fill="#000000" stroke="none">
<path d="M155 709 c-7 -10 0 -115 11 -172 4 -20 1 -29 -12 -34 -24 -9 -49 25
-69 93 -16 54 -32 71 -59 61 -11 -5 -9 -15 10 -54 17 -32 23 -56 19 -74 -5
-23 -1 -31 32 -53 21 -14 43 -26 50 -26 9 0 13 -17 13 -52 0 -52 -1 -54 -45
-81 -24 -16 -47 -36 -50 -46 -3 -10 -14 -26 -25 -36 -28 -25 -26 -55 3 -55 25
0 62 33 81 72 6 13 20 24 30 26 16 3 17 -3 13 -65 -3 -37 -8 -83 -12 -100 -10
-46 1 -83 25 -83 22 0 26 16 35 155 4 49 8 92 11 94 2 3 25 -5 49 -17 81 -39
106 -21 31 23 -52 30 -71 51 -80 87 -10 45 8 74 56 90 43 15 43 15 48 79 3 35
11 74 18 86 16 28 15 43 -1 43 -22 0 -57 -44 -57 -72 0 -14 -5 -39 -11 -57 -9
-24 -16 -31 -33 -29 -19 3 -21 9 -21 83 -1 44 -4 90 -9 103 -8 23 -40 30 -51
11z"/>
<path d="M497 684 c-4 -4 -7 -18 -7 -31 0 -16 -9 -27 -32 -36 -18 -8 -50 -33
-70 -56 -32 -34 -38 -48 -38 -85 0 -38 7 -53 46 -100 42 -52 74 -71 74 -45 0
6 -14 28 -30 49 -45 57 -55 93 -35 123 62 94 216 105 198 13 -8 -40 -30 -74
-54 -81 -27 -9 -24 -25 5 -25 40 0 56 11 76 51 38 74 17 132 -59 162 -27 11
-41 23 -43 38 -3 23 -19 35 -31 23z"/>
<path d="M470 525 c-19 -23 -4 -47 27 -43 22 2 29 9 31 31 3 23 0 27 -21 27
-14 0 -30 -7 -37 -15z"/>
<path d="M381 199 c-23 -51 -23 -51 -4 -77 14 -19 31 -28 57 -30 38 -3 49 5
118 86 32 36 51 34 74 -9 19 -38 44 -38 44 -1 0 33 -32 67 -73 77 -35 9 -67
-11 -107 -70 -36 -52 -65 -59 -80 -19 -7 18 -6 33 5 54 18 36 19 40 2 40 -7 0
-24 -23 -36 -51z"/>
</g>
</svg>
