<svg version="1.0" xmlns="http://www.w3.org/2000/svg"
 width="91.000000pt" height="177.000000pt" viewBox="0 0 91.000000 177.000000"
 preserveAspectRatio="xMidYMid meet">
<metadata>
Created by potrace 1.15, written by Peter Selinger 2001-2017
</metadata>
<g transform="translate(0.000000,177.000000) scale(0.100000,-0.100000)"
fill="#000000" stroke="none">
<path d="M344 1626 c-67 -73 -72 -81 -140 -216 -63 -123 -81 -251 -46 -327 10
-24 21 -33 39 -33 21 0 24 4 19 28 -14 74 -16 121 -6 146 9 25 12 26 26 12 8
-9 25 -22 36 -30 21 -15 21 -15 2 -58 -15 -33 -19 -65 -19 -146 0 -104 0 -104
-50 -98 -47 5 -134 9 -162 7 -7 -1 -13 -9 -13 -18 1 -20 77 -63 110 -63 11 0
50 -6 85 -12 71 -14 77 -23 46 -66 -31 -45 -45 -133 -31 -209 13 -76 32 -118
60 -133 28 -15 64 5 89 51 12 21 24 39 26 39 2 0 13 -15 24 -33 11 -18 31 -46
45 -62 14 -16 22 -33 17 -38 -5 -5 -48 -9 -96 -10 -91 -2 -115 -14 -68 -33 82
-33 96 -36 149 -31 46 5 56 3 60 -11 28 -92 89 -174 154 -207 62 -31 77 -19
46 39 -13 22 -36 73 -51 111 -16 39 -42 89 -58 113 -15 23 -26 46 -23 50 3 5
7 36 11 71 5 59 -7 133 -27 156 -4 5 -8 17 -8 28 0 22 -23 47 -44 47 -8 0 -18
4 -21 10 -9 15 -35 12 -42 -6 -3 -9 5 -26 19 -42 36 -38 45 -59 52 -127 8 -83
-1 -92 -49 -46 -67 63 -70 70 -72 156 -2 44 -9 98 -17 120 -14 40 -14 40 87
51 103 11 147 21 147 33 0 10 -77 29 -145 36 -70 7 -85 17 -67 46 22 34 17
164 -7 205 -12 19 -21 45 -21 57 0 25 -35 87 -49 87 -6 0 -13 -5 -16 -10 -14
-22 -95 41 -95 74 0 12 11 34 24 50 23 30 23 30 42 0 26 -40 74 -85 85 -78 15
9 10 41 -11 79 -11 20 -20 42 -20 50 0 8 -4 15 -9 15 -19 0 -24 42 -7 52 9 5
16 16 16 24 0 8 9 24 20 36 23 25 26 73 6 93 -12 12 -19 8 -52 -29z m31 -547
c8 -21 9 -45 3 -64 -4 -16 -8 -40 -8 -53 0 -13 -6 -30 -14 -37 -12 -12 -16 -8
-30 28 -20 54 -20 99 0 138 19 37 34 34 49 -12z m-20 -389 c8 -16 15 -43 15
-60 0 -32 -37 -120 -50 -120 -10 0 -25 95 -21 135 2 28 25 75 36 75 2 0 11
-13 20 -30z"/>
<path d="M513 1473 c-23 -4 -34 -43 -13 -43 6 0 10 -6 10 -13 0 -8 8 -21 19
-31 14 -13 37 -16 117 -15 96 1 99 0 120 -26 26 -33 34 -73 34 -183 0 -96 12
-92 -120 -42 -98 37 -130 44 -130 28 1 -18 67 -64 165 -114 80 -41 80 -41 76
-203 -3 -149 15 -421 29 -421 8 0 28 50 39 100 5 25 13 119 16 210 3 91 7 185
8 210 5 83 -14 405 -24 430 -20 48 -62 69 -184 95 -65 14 -122 24 -129 24 -6
-1 -21 -4 -33 -6z"/>
</g>
</svg>
