<svg version="1.0" xmlns="http://www.w3.org/2000/svg"
 width="70.000000pt" height="81.000000pt" viewBox="0 0 70.000000 81.000000"
 preserveAspectRatio="xMidYMid meet">
<metadata>
Created by potrace 1.15, written by Peter Selinger 2001-2017
</metadata>
<g transform="translate(0.000000,81.000000) scale(0.100000,-0.100000)"
fill="#000000" stroke="none">
<path d="M418 649 c-45 -17 -61 -76 -53 -194 7 -100 16 -131 43 -151 23 -17
10 -48 -31 -68 -34 -16 -37 -20 -24 -33 12 -13 21 -13 51 -3 39 13 56 35 56
74 0 21 5 26 25 26 20 0 25 -5 25 -24 0 -16 11 -32 31 -47 26 -18 29 -24 17
-35 -8 -8 -45 -18 -82 -23 -74 -8 -96 -24 -96 -68 0 -54 57 -74 163 -57 60 10
48 34 -17 34 -64 0 -106 14 -106 34 0 16 20 22 107 32 75 8 102 30 87 72 -5
16 -22 33 -42 41 -40 18 -41 41 -1 65 41 24 49 51 49 162 0 86 -2 94 -19 94
-11 0 -21 -6 -24 -12 -3 -9 -11 -7 -27 8 -28 28 -18 45 20 37 22 -4 31 -1 36
11 4 9 5 19 2 21 -10 10 -165 14 -190 4z m52 -47 c0 -17 -40 -44 -55 -38 -25
9 0 46 30 46 14 0 25 -4 25 -8z m67 -59 c24 -10 41 -22 40 -28 -4 -12 -112
-26 -149 -19 -39 8 -35 22 15 44 51 24 43 24 94 3z m31 -100 c-3 -15 -16 -18
-86 -21 -77 -3 -82 -2 -82 18 0 19 6 20 86 20 76 0 85 -2 82 -17z m-8 -68 c0
-39 -120 -62 -140 -26 -19 37 -12 41 65 41 59 0 75 -3 75 -15z"/>
<path d="M248 624 c-4 -3 1 -22 9 -42 9 -20 19 -68 23 -107 7 -58 5 -80 -12
-128 -22 -65 -18 -122 19 -247 16 -51 24 -66 41 -68 26 -4 30 23 7 55 -19 28
-45 136 -45 192 0 25 8 72 17 105 14 51 15 71 5 139 -6 44 -17 86 -23 93 -12
15 -31 18 -41 8z"/>
<path d="M150 608 c0 -2 9 -31 20 -66 17 -53 18 -73 10 -135 -21 -160 1 -355
42 -381 30 -18 32 2 10 72 -34 101 -36 131 -17 237 28 153 8 275 -45 275 -11
0 -20 -1 -20 -2z"/>
<path d="M60 566 c0 -8 4 -17 9 -20 14 -9 34 -124 28 -168 -3 -24 -11 -81 -17
-127 -11 -84 -3 -161 23 -218 14 -31 43 -26 39 7 -23 182 -24 233 -9 280 13
40 14 65 7 128 -11 98 -26 132 -57 132 -13 0 -23 -6 -23 -14z"/>
</g>
</svg>
