<svg version="1.0" xmlns="http://www.w3.org/2000/svg"
 width="70.000000pt" height="126.000000pt" viewBox="0 0 70.000000 126.000000"
 preserveAspectRatio="xMidYMid meet">
<metadata>
Created by potrace 1.15, written by Peter Selinger 2001-2017
</metadata>
<g transform="translate(0.000000,126.000000) scale(0.100000,-0.100000)"
fill="#000000" stroke="none">
<path d="M315 1153 c-5 -10 -9 -54 -9 -98 -1 -88 4 -83 -69 -68 -35 7 -56 37
-52 73 4 30 -16 56 -35 45 -5 -3 -10 -30 -10 -60 0 -70 31 -104 111 -120 44
-8 54 -14 54 -30 0 -19 -8 -20 -143 -23 -142 -3 -143 -3 -140 -25 3 -22 3 -22
193 -18 304 6 458 15 462 27 8 25 -49 35 -166 28 -64 -4 -118 -7 -121 -6 -3 1
-6 13 -8 27 -3 22 0 25 26 25 52 0 102 28 118 65 18 45 18 89 -1 105 -16 13
-29 7 -30 -13 -2 -62 -37 -97 -97 -97 -26 0 -28 3 -28 44 0 85 -11 136 -30
136 -10 0 -21 -8 -25 -17z"/>
<path d="M160 738 c0 -91 24 -144 77 -174 23 -12 36 -26 34 -35 -2 -8 -6 -26
-9 -41 -4 -25 -8 -28 -47 -28 -52 0 -75 23 -75 72 0 37 -24 58 -43 39 -14 -14
2 -114 23 -141 17 -22 26 -25 84 -24 56 2 66 -1 66 -16 0 -26 -43 -40 -124
-40 -52 0 -77 -4 -86 -15 -24 -29 -1 -37 104 -33 82 2 101 0 101 -11 0 -17
-57 -39 -105 -40 -48 -1 -61 -25 -66 -130 -6 -94 4 -125 29 -99 11 10 15 36
16 84 0 58 4 72 22 87 21 17 98 24 100 10 1 -5 2 -41 4 -81 2 -72 16 -106 34
-86 7 7 20 322 21 487 0 26 2 28 37 25 36 -3 36 -3 40 -253 2 -137 8 -254 12
-258 21 -21 31 8 31 89 0 84 0 84 64 84 78 0 88 -10 97 -97 7 -70 23 -98 40
-73 12 18 3 150 -11 164 -6 6 -10 18 -10 28 0 23 -37 32 -95 23 -60 -8 -85 0
-85 30 0 22 5 24 88 31 48 4 93 7 100 5 6 -1 12 4 12 12 0 25 -42 34 -115 26
-38 -4 -73 -5 -77 -2 -5 2 -8 15 -8 29 0 22 3 24 55 24 77 0 99 13 113 66 12
44 16 94 8 94 -2 0 -11 3 -19 6 -11 4 -18 -8 -27 -45 -7 -28 -16 -53 -21 -56
-5 -3 -30 -8 -57 -12 -56 -6 -61 -1 -54 63 4 38 6 42 53 58 53 20 52 16 64
142 4 48 2 64 -10 74 -20 17 -43 6 -47 -22 -3 -22 -7 -23 -137 -31 -143 -8
-166 -6 -157 18 8 23 -4 45 -25 45 -17 0 -19 -8 -19 -72z m340 -49 c0 -57 -47
-79 -165 -79 -75 0 -107 15 -119 56 -6 20 -1 23 51 32 32 5 97 10 146 11 82 1
87 0 87 -20z"/>
</g>
</svg>
