<svg version="1.0" xmlns="http://www.w3.org/2000/svg"
 width="66.000000pt" height="77.000000pt" viewBox="0 0 66.000000 77.000000"
 preserveAspectRatio="xMidYMid meet">
<metadata>
Created by potrace 1.15, written by Peter Selinger 2001-2017
</metadata>
<g transform="translate(0.000000,77.000000) scale(0.100000,-0.100000)"
fill="#000000" stroke="none">
<path d="M177 686 c-3 -7 -35 -36 -71 -62 -74 -55 -82 -74 -33 -74 21 0 42 -9
60 -25 24 -23 27 -33 27 -90 0 -65 0 -65 -28 -65 -16 0 -32 -3 -35 -7 -12 -11
15 -33 40 -33 25 0 25 0 21 -100 -3 -100 -3 -100 -45 -100 -48 0 -65 -17 -37
-37 29 -21 204 -2 204 23 0 8 -6 15 -12 16 -7 0 -17 2 -23 3 -5 2 -18 3 -27 4
-16 1 -18 13 -18 100 0 95 1 100 22 103 32 5 34 26 3 38 -26 10 -27 12 -20 73
8 67 38 112 82 123 34 9 29 24 -25 77 -48 48 -76 58 -85 33z m58 -66 c15 -16
16 -22 5 -35 -25 -30 -51 -38 -76 -24 -31 16 -30 33 2 58 33 26 46 26 69 1z"/>
<path d="M478 688 c-23 -8 -28 -16 -28 -44 0 -29 -4 -35 -27 -40 -48 -10 -55
-14 -51 -27 3 -6 22 -13 44 -15 58 -4 90 -52 35 -52 -48 0 -71 -27 -78 -94 -5
-46 -3 -58 7 -54 8 2 19 19 25 38 14 41 52 72 80 64 11 -3 32 -23 47 -45 15
-21 35 -39 43 -39 21 0 19 16 -7 50 -12 16 -20 31 -17 32 2 2 13 8 23 14 36
19 30 34 -13 34 -35 0 -43 4 -51 26 -6 14 -10 27 -10 28 0 2 18 6 40 10 57 9
50 26 -11 26 -43 0 -50 3 -45 16 3 9 6 19 6 24 0 5 9 12 20 15 22 7 28 46 8
44 -7 0 -25 -5 -40 -11z"/>
<path d="M257 503 c-4 -3 -7 -26 -7 -50 0 -36 3 -43 20 -43 17 0 20 7 20 50 0
35 -4 50 -13 50 -8 0 -17 -3 -20 -7z"/>
<path d="M66 485 c-8 -21 -8 -70 0 -78 4 -3 15 -2 26 4 15 8 18 19 16 47 -3
39 -30 57 -42 27z"/>
<path d="M444 416 c-6 -16 1 -72 13 -102 4 -11 -6 -14 -45 -14 -52 0 -76 -15
-51 -31 8 -5 34 -8 59 -7 44 3 45 2 48 -29 3 -29 1 -33 -22 -33 -36 0 -57 -37
-63 -111 -6 -56 -4 -61 13 -57 14 2 21 16 27 58 15 104 65 109 112 10 20 -41
34 -60 45 -57 21 4 16 51 -9 84 -26 32 -26 39 -1 46 35 9 24 37 -14 37 -33 0
-46 13 -46 46 0 10 14 14 51 14 43 0 50 3 47 18 -3 14 -14 17 -58 17 -45 0
-55 4 -58 18 -2 10 2 24 8 32 14 16 5 35 -16 35 -8 0 -14 6 -14 14 0 22 -19
30 -26 12z"/>
<path d="M259 273 c-15 -39 -8 -97 12 -101 23 -4 29 19 22 78 -6 56 -18 64
-34 23z"/>
<path d="M71 272 c-15 -29 -2 -94 18 -90 12 3 16 15 16 52 0 53 -16 71 -34 38z"/>
</g>
</svg>
