<svg version="1.0" xmlns="http://www.w3.org/2000/svg"
 width="64.000000pt" height="83.000000pt" viewBox="0 0 64.000000 83.000000"
 preserveAspectRatio="xMidYMid meet">
<metadata>
Created by potrace 1.15, written by Peter Selinger 2001-2017
</metadata>
<g transform="translate(0.000000,83.000000) scale(0.100000,-0.100000)"
fill="#000000" stroke="none">
<path d="M482 598 c-7 -7 -12 -33 -12 -59 0 -47 0 -47 -50 -58 -86 -19 -90
-17 -90 33 0 27 -7 52 -17 65 -16 20 -26 22 -108 19 -82 -3 -90 -5 -90 -23 0
-18 6 -20 66 -17 74 2 104 -16 97 -60 -3 -21 -9 -23 -83 -28 -44 -3 -86 -9
-92 -13 -30 -19 -8 -27 76 -27 88 0 88 0 95 -92 8 -105 4 -112 -59 -103 -42 6
-52 15 -61 55 -12 53 -13 54 -35 34 -17 -15 -20 -27 -16 -62 2 -23 13 -52 23
-63 17 -18 26 -20 86 -14 68 7 68 7 68 -58 0 -74 11 -93 63 -102 51 -10 152 7
152 25 0 12 -18 16 -80 20 -80 5 -80 5 -83 61 -3 65 2 69 94 69 80 0 98 20
102 115 4 71 3 77 -14 73 -15 -2 -21 -17 -29 -66 -12 -73 -18 -79 -99 -88 -57
-7 -57 -7 -54 97 3 104 3 104 79 109 101 8 111 16 107 98 -3 66 -13 83 -36 60z"/>
</g>
</svg>
