<svg version="1.0" xmlns="http://www.w3.org/2000/svg"
 width="85.000000pt" height="129.000000pt" viewBox="0 0 85.000000 129.000000"
 preserveAspectRatio="xMidYMid meet">
<metadata>
Created by potrace 1.15, written by Peter Selinger 2001-2017
</metadata>
<g transform="translate(0.000000,129.000000) scale(0.100000,-0.100000)"
fill="#000000" stroke="none">
<path d="M711 1151 c-12 -16 -21 -34 -21 -39 0 -22 -71 -79 -150 -121 -65 -34
-84 -40 -91 -30 -5 8 -9 17 -9 21 0 10 -78 88 -88 88 -5 0 -16 7 -23 17 -14
16 -126 73 -144 73 -5 0 -16 -4 -24 -9 -11 -7 -8 -14 15 -35 16 -14 35 -26 42
-26 6 0 12 -4 12 -9 0 -5 9 -12 19 -16 20 -6 98 -82 114 -110 5 -9 6 -19 3
-22 -6 -6 -145 34 -161 47 -16 13 -85 23 -85 13 0 -6 18 -27 41 -48 47 -43
125 -75 184 -75 38 0 41 -2 53 -40 6 -22 12 -51 12 -65 0 -25 -1 -25 -62 -20
-75 7 -116 20 -182 58 -27 15 -51 25 -54 22 -10 -10 31 -76 60 -97 45 -32 119
-55 183 -57 32 -1 61 -3 63 -6 2 -2 6 -61 8 -132 3 -70 9 -150 14 -176 6 -26
10 -61 10 -78 0 -35 22 -109 32 -109 5 0 8 -6 8 -13 0 -55 226 -152 278 -119
19 13 3 41 -27 47 -14 3 -42 11 -61 17 -134 42 -161 82 -172 258 -4 63 -10
160 -13 216 -7 101 -7 101 45 118 64 21 162 87 192 129 12 18 30 41 40 51 10
11 18 33 18 49 0 23 -4 28 -22 25 -12 -2 -30 -18 -41 -37 -23 -42 -72 -91
-109 -110 -16 -8 -28 -18 -28 -23 0 -4 -9 -8 -20 -8 -10 0 -31 -5 -45 -12 -33
-15 -41 -4 -43 54 -1 23 -4 44 -7 46 -8 8 16 32 32 32 8 0 29 11 45 25 17 14
49 35 72 47 22 11 45 27 49 34 4 8 13 14 19 14 6 0 26 17 44 37 27 30 34 45
34 79 0 29 -5 44 -16 48 -22 8 -20 9 -43 -23z"/>
<path d="M411 244 c0 -11 3 -14 6 -6 3 7 2 16 -1 19 -3 4 -6 -2 -5 -13z"/>
</g>
</svg>
