<svg version="1.0" xmlns="http://www.w3.org/2000/svg"
 width="70.000000pt" height="86.000000pt" viewBox="0 0 70.000000 86.000000"
 preserveAspectRatio="xMidYMid meet">
<metadata>
Created by potrace 1.15, written by Peter Selinger 2001-2017
</metadata>
<g transform="translate(0.000000,86.000000) scale(0.100000,-0.100000)"
fill="#000000" stroke="none">
<path d="M389 653 c-42 -46 -54 -102 -40 -180 12 -66 12 -66 -21 -94 -18 -16
-41 -31 -50 -34 -20 -7 -25 -37 -5 -30 99 31 119 39 128 57 7 14 17 18 32 14
71 -17 162 48 173 124 7 53 -11 129 -32 137 -23 8 -27 -3 -15 -38 6 -17 8 -35
6 -40 -9 -14 -75 32 -81 57 -9 34 -34 31 -34 -4 0 -18 -11 -38 -30 -57 -27
-26 -30 -27 -37 -10 -4 12 3 36 20 67 15 26 27 50 27 53 0 13 -18 3 -41 -22z
m126 -113 c3 -6 15 -10 26 -10 20 0 25 -23 13 -55 -15 -37 -93 -57 -137 -34
-51 27 -48 49 10 92 47 35 70 36 88 7z"/>
<path d="M452 488 c2 -15 11 -24 26 -26 24 -4 30 16 10 36 -20 20 -40 14 -36
-10z"/>
<path d="M226 621 c-15 -29 -51 -57 -98 -78 -30 -13 -38 -33 -13 -33 25 0 118
50 137 74 22 26 23 66 3 66 -8 0 -21 -13 -29 -29z"/>
<path d="M222 515 c-12 -13 -46 -39 -77 -56 -90 -50 -83 -65 13 -29 72 27 114
59 110 84 -4 29 -21 29 -46 1z"/>
<path d="M240 423 c0 -5 -20 -20 -44 -36 -46 -29 -125 -108 -145 -146 -9 -16
18 -2 93 49 59 39 111 80 116 90 15 27 12 50 -5 50 -8 0 -15 -3 -15 -7z"/>
<path d="M555 343 c-15 -105 -7 -183 23 -243 26 -52 52 -76 52 -48 0 8 -9 34
-21 57 -26 54 -37 178 -20 220 10 22 10 34 1 50 -18 34 -27 25 -35 -36z"/>
<path d="M447 353 c-4 -3 -7 -13 -7 -22 0 -9 -4 -22 -9 -30 -7 -11 -14 -8 -35
15 -25 29 -25 29 -26 -18 0 -42 -3 -48 -25 -54 -33 -8 -56 1 -62 26 -8 30 -23
24 -23 -8 0 -40 31 -66 70 -59 42 9 37 -5 -12 -38 -48 -32 -128 -105 -128
-117 0 -17 26 -6 69 30 91 76 117 77 107 5 -5 -39 -4 -44 12 -41 12 2 18 15
20 41 2 20 8 37 13 37 5 0 24 -22 41 -50 27 -44 58 -66 58 -41 0 25 -33 81
-69 116 -77 74 -29 92 50 18 19 -17 29 -21 34 -13 13 22 -38 75 -89 93 -5 2 3
15 17 30 27 26 32 43 21 71 -7 17 -16 20 -27 9z"/>
</g>
</svg>
