<svg version="1.0" xmlns="http://www.w3.org/2000/svg"
 width="78.000000pt" height="120.000000pt" viewBox="0 0 78.000000 120.000000"
 preserveAspectRatio="xMidYMid meet">
<metadata>
Created by potrace 1.15, written by Peter Selinger 2001-2017
</metadata>
<g transform="translate(0.000000,120.000000) scale(0.100000,-0.100000)"
fill="#000000" stroke="none">
<path d="M374 1030 c-21 -16 -44 -30 -51 -30 -6 0 -13 -4 -15 -9 -1 -4 -56
-43 -120 -86 -65 -43 -118 -82 -118 -86 0 -17 22 -20 51 -9 16 7 29 16 29 20
0 4 8 10 18 13 26 8 75 40 93 60 22 23 36 22 44 -3 6 -19 13 -20 113 -18 87 2
107 6 107 18 0 12 -21 16 -110 20 -78 4 -104 8 -90 14 11 5 27 17 35 25 14 15
73 51 83 51 2 0 15 -10 28 -21 13 -12 40 -33 59 -48 19 -14 41 -31 48 -38 7
-7 26 -20 42 -30 17 -9 30 -21 30 -25 0 -4 6 -8 13 -8 6 0 25 -11 41 -25 31
-27 51 -31 62 -14 6 10 -36 59 -51 59 -7 0 -96 59 -105 69 -3 4 -22 17 -42 31
-21 14 -38 28 -38 33 0 4 -6 7 -13 7 -7 0 -26 14 -42 30 -36 38 -51 38 -101 0z"/>
<path d="M390 828 c-11 -18 -20 -43 -20 -56 0 -23 0 -23 -135 -20 -74 1 -137
-1 -141 -4 -19 -20 15 -28 113 -27 59 0 109 -3 115 -9 17 -17 -1 -32 -41 -32
-49 0 -91 -20 -92 -45 -4 -58 2 -140 11 -143 5 -2 7 -15 4 -28 -5 -18 -2 -24
10 -24 9 0 16 -4 16 -9 0 -5 8 -11 18 -14 9 -4 35 -13 57 -21 25 -10 74 -16
130 -16 75 0 97 4 130 23 48 26 89 101 100 179 7 48 6 54 -19 75 -22 19 -39
23 -92 23 -60 0 -64 1 -64 23 0 21 3 22 103 22 101 0 137 6 137 26 0 7 -51 9
-146 8 -145 -3 -163 1 -164 33 0 12 81 30 105 24 29 -7 37 2 22 25 -10 15 -24
19 -75 19 -60 0 -63 -1 -82 -32z m50 -123 c0 -18 -5 -25 -19 -25 -49 0 -72 35
-28 43 43 8 47 7 47 -18z m10 -60 c0 -24 60 -80 105 -97 46 -18 53 -36 27 -68
-18 -22 -18 -22 -62 0 -24 12 -50 29 -58 37 -20 19 -94 8 -151 -23 -54 -30
-55 -30 -69 1 -17 37 -15 45 13 45 27 0 99 66 110 101 8 25 85 28 85 4z m-136
-17 c-9 -30 -9 -30 -38 -30 -16 0 -26 -7 -29 -20 -9 -33 -23 -12 -19 26 4 36
13 41 70 45 20 1 22 -2 16 -21z m298 0 c14 -23 9 -48 -11 -48 -26 0 -85 21
-93 34 -4 6 -8 17 -8 25 0 18 99 8 112 -11z m-137 -164 c16 -16 23 -30 17 -36
-5 -5 -47 -8 -93 -6 -70 3 -84 6 -87 21 -2 11 3 17 15 17 11 0 23 4 29 9 10
10 39 18 71 20 12 0 34 -11 48 -25z"/>
<path d="M660 444 c-6 -14 -10 -29 -10 -33 0 -25 -30 -63 -62 -77 -30 -13 -62
-16 -185 -12 -182 5 -211 15 -242 89 -29 67 -68 67 -55 0 13 -65 103 -131 180
-131 19 0 22 -7 28 -62 8 -73 8 -94 3 -128 -3 -21 -9 -25 -45 -28 -39 -3 -55
9 -32 23 14 9 13 148 -2 163 -18 18 -24 15 -38 -17 -11 -28 -10 -60 6 -144 6
-27 6 -27 -64 -27 -73 0 -84 -4 -75 -26 8 -21 673 -21 673 0 0 26 -23 30 -137
27 -113 -2 -113 -2 -113 108 0 111 0 111 34 111 34 0 34 0 32 -91 -1 -78 2
-93 17 -103 14 -9 20 -8 27 4 13 20 13 170 0 170 -20 0 -9 16 29 39 44 27 66
60 75 115 5 28 4 41 -6 47 -21 14 -28 11 -38 -17z m-229 -234 c3 -156 4 -152
-28 -148 -28 3 -28 3 -31 111 -3 107 -3 107 28 107 30 0 30 0 31 -70z"/>
</g>
</svg>
