<svg version="1.0" xmlns="http://www.w3.org/2000/svg"
 width="99.000000pt" height="189.000000pt" viewBox="0 0 99.000000 189.000000"
 preserveAspectRatio="xMidYMid meet">
<metadata>
Created by potrace 1.15, written by Peter Selinger 2001-2017
</metadata>
<g transform="translate(0.000000,189.000000) scale(0.100000,-0.100000)"
fill="#000000" stroke="none">
<path d="M471 1810 c-12 -46 -58 -153 -85 -200 -20 -34 -36 -65 -36 -70 0 -4
-4 -10 -8 -12 -4 -1 -28 -32 -52 -68 -25 -36 -51 -71 -58 -78 -7 -8 -25 -30
-40 -50 -15 -21 -29 -39 -32 -42 -12 -12 -88 -108 -110 -139 -20 -29 -21 -32
-4 -23 52 29 244 239 244 267 0 3 11 17 25 31 14 14 25 29 25 34 0 5 7 16 16
24 11 12 36 16 99 16 85 0 115 -5 115 -21 0 -7 23 -46 90 -149 5 -8 33 -51 61
-95 28 -44 54 -82 58 -85 8 -6 46 -53 81 -100 71 -93 105 -112 46 -24 -18 27
-46 76 -63 109 -34 69 -90 162 -130 220 -15 21 -31 47 -35 58 -10 25 -70 111
-80 115 -4 2 -8 8 -8 14 0 6 -17 36 -38 67 -49 73 -64 106 -72 161 -4 25 -8
43 -9 40z m15 -183 c27 -33 44 -64 44 -82 0 -12 -14 -15 -70 -14 -38 1 -70 5
-70 10 0 12 63 109 71 109 3 0 14 -10 25 -23z"/>
<path d="M403 1262 c-32 -2 -41 -7 -36 -18 3 -7 13 -14 22 -14 23 0 99 -50
132 -86 57 -62 69 -93 69 -182 0 -45 -4 -90 -9 -100 -5 -9 -14 -28 -21 -42 -6
-14 -29 -38 -51 -55 -22 -16 -46 -36 -54 -42 -7 -7 -17 -13 -22 -13 -4 0 -21
-9 -37 -19 -28 -19 -28 -19 10 -31 100 -31 130 -58 151 -135 19 -69 33 -206
34 -341 1 -71 4 -142 8 -159 7 -30 7 -30 14 -4 3 14 7 115 8 225 1 191 0 202
-26 279 -28 83 -73 145 -106 145 -33 0 -27 16 16 43 51 33 105 108 105 148 0
15 5 31 10 34 6 4 10 75 10 181 0 116 4 174 11 174 5 0 7 5 4 11 -6 9 -119 10
-242 1z m206 -69 c-1 -27 -4 -59 -8 -73 -7 -24 -7 -24 -31 10 -13 19 -40 49
-58 67 -35 32 -35 32 14 36 27 2 57 4 67 5 14 2 17 -6 16 -45z"/>
<path d="M136 1099 c-11 -55 -7 -227 6 -256 15 -34 25 -44 59 -61 35 -19 103
0 125 33 20 31 28 135 16 195 -10 45 -10 45 -11 -7 -1 -51 -1 -51 -78 -55 -43
-2 -82 -1 -86 3 -5 4 -10 43 -12 89 -3 90 -9 107 -19 59z m194 -189 c0 -29
-26 -76 -45 -84 -55 -21 -112 8 -117 59 -3 30 -3 30 42 27 25 -2 56 1 70 7 38
15 50 13 50 -9z"/>
</g>
</svg>
