<svg version="1.0" xmlns="http://www.w3.org/2000/svg"
 width="75.000000pt" height="135.000000pt" viewBox="0 0 75.000000 135.000000"
 preserveAspectRatio="xMidYMid meet">
<metadata>
Created by potrace 1.15, written by Peter Selinger 2001-2017
</metadata>
<g transform="translate(0.000000,135.000000) scale(0.100000,-0.100000)"
fill="#000000" stroke="none">
<path d="M194 1300 c-15 -6 -24 -24 -34 -66 -7 -33 -16 -63 -20 -69 -10 -15
-67 -163 -88 -230 -14 -45 -17 -66 -9 -82 15 -34 42 -28 62 13 21 46 56 60
165 68 47 3 109 10 138 14 39 6 57 5 70 -4 22 -17 59 -18 65 -1 5 15 -12 56
-35 81 -10 11 -18 24 -18 29 0 7 -61 86 -97 125 -7 7 -13 17 -13 21 0 10 -26
39 -73 79 -38 32 -71 39 -113 22z m102 -122 c16 -18 45 -53 64 -78 19 -25 38
-46 42 -48 5 -2 8 -8 8 -12 0 -14 -65 -27 -162 -35 -102 -7 -98 -17 -39 117
12 26 21 51 21 56 0 10 21 32 30 32 4 0 20 -15 36 -32z"/>
<path d="M353 833 c-24 -2 -43 -8 -43 -14 0 -5 -7 -9 -15 -9 -22 0 -106 -42
-137 -69 -19 -16 -28 -34 -28 -54 0 -30 0 -30 48 -23 46 6 50 4 74 -24 25 -30
28 -63 7 -76 -5 -3 -9 -28 -9 -55 0 -40 6 -60 30 -94 17 -24 30 -47 30 -50 0
-4 9 -20 21 -36 17 -25 21 -44 20 -116 0 -47 -5 -91 -10 -96 -6 -6 -11 -24
-11 -39 0 -66 66 -2 88 85 17 68 14 126 -8 176 -11 24 -20 49 -20 57 0 8 -4
14 -10 14 -5 0 -10 5 -10 11 0 6 -9 24 -21 40 -12 17 -21 45 -21 63 0 37 38
103 64 111 9 3 35 23 57 43 36 32 41 43 41 79 0 41 -2 43 -44 63 -25 11 -46
19 -48 18 -2 -1 -22 -3 -45 -5z m50 -69 c9 -10 -12 -48 -39 -67 -23 -17 -25
-17 -54 0 -32 18 -34 22 -22 39 14 22 100 43 115 28z"/>
<path d="M665 678 c-2 -7 -5 -26 -7 -43 -3 -27 -7 -30 -42 -33 -33 -3 -43 1
-61 24 -18 23 -24 25 -43 15 -20 -11 -22 -19 -22 -101 0 -49 6 -102 12 -117
18 -40 58 -73 90 -73 32 0 78 19 78 33 0 5 9 21 19 36 26 36 49 234 31 256
-15 18 -49 20 -55 3z m-15 -168 c0 -44 -24 -90 -46 -90 -26 0 -54 39 -54 74 0
31 3 35 38 44 60 16 62 15 62 -28z"/>
</g>
</svg>
