<svg version="1.0" xmlns="http://www.w3.org/2000/svg"
 width="105.000000pt" height="151.000000pt" viewBox="0 0 105.000000 151.000000"
 preserveAspectRatio="xMidYMid meet">
<metadata>
Created by potrace 1.15, written by Peter Selinger 2001-2017
</metadata>
<g transform="translate(0.000000,151.000000) scale(0.100000,-0.100000)"
fill="#000000" stroke="none">
<path d="M625 1296 c-15 -13 -40 -30 -54 -37 -47 -24 -115 -72 -161 -113 -25
-23 -76 -68 -113 -100 -71 -63 -80 -83 -46 -104 17 -11 26 -11 50 0 16 7 29
17 29 22 0 12 89 0 185 -25 44 -12 105 -25 135 -30 30 -5 75 -13 100 -19 41
-11 65 -15 188 -35 23 -4 42 -12 42 -16 0 -5 11 -9 25 -9 14 0 25 -5 25 -12 0
-6 2 -9 5 -6 3 3 -1 25 -9 49 -9 24 -16 52 -16 62 0 9 -4 17 -8 17 -5 0 -17
17 -29 38 -42 77 -123 203 -148 229 -14 16 -33 40 -42 55 -19 30 -43 44 -94
52 -28 5 -41 1 -64 -18z m126 -137 c15 -16 31 -29 36 -29 13 0 37 -28 61 -71
11 -20 26 -45 33 -56 7 -11 9 -28 5 -38 -5 -15 -14 -17 -64 -11 -31 3 -79 11
-107 16 -27 5 -72 14 -100 19 -27 5 -81 17 -118 26 -69 17 -69 17 -41 46 15
16 33 29 40 29 7 0 14 4 16 8 6 17 153 89 182 90 20 0 38 -8 57 -29z"/>
<path d="M730 636 c-30 -5 -58 -13 -61 -18 -3 -5 -19 -12 -34 -16 -20 -6 -31
-17 -37 -37 -8 -32 2 -45 39 -45 21 0 53 -46 53 -77 0 -7 4 -21 9 -31 51 -101
48 -116 -31 -157 -59 -31 -99 -71 -91 -91 3 -8 21 -16 41 -20 56 -9 72 -14 72
-25 0 -5 9 -9 19 -9 19 0 123 -51 149 -72 10 -8 16 -8 26 3 17 18 6 122 -18
170 -17 33 -22 99 -8 99 8 0 33 18 83 61 26 21 31 34 36 85 6 69 -11 117 -53
148 -39 28 -129 43 -194 32z m137 -88 c40 -45 22 -115 -46 -175 -27 -24 -22
-31 -73 112 -6 17 -18 38 -26 47 -13 16 -12 19 9 27 13 5 45 10 70 10 35 1 50
-4 66 -21z m-82 -345 c23 -26 35 -69 17 -61 -100 44 -111 56 -69 76 12 6 23
11 25 11 2 1 14 -11 27 -26z"/>
<path d="M331 596 c-12 -14 -5 -46 10 -46 5 0 9 -9 9 -20 0 -11 5 -20 10 -20
18 0 11 -30 -12 -54 -13 -13 -36 -26 -53 -29 -16 -3 -49 -11 -72 -17 -24 -7
-49 -10 -57 -7 -8 3 -29 29 -48 56 -34 54 -68 68 -68 30 0 -32 19 -97 46 -157
13 -29 24 -56 24 -60 0 -4 11 -20 25 -36 14 -16 25 -33 25 -38 0 -4 6 -8 14
-8 8 0 16 -6 19 -14 5 -12 51 -27 127 -41 14 -3 32 1 40 8 31 25 78 94 84 122
15 72 16 162 1 213 -9 29 -14 56 -11 60 7 11 -4 25 -41 50 -36 25 -56 28 -72
8z m45 -281 c-2 -41 -9 -82 -16 -90 -29 -35 -101 -9 -144 54 -24 34 -26 43
-16 56 7 8 19 15 26 15 8 0 22 4 32 9 29 15 76 29 99 30 21 1 22 -2 19 -74z"/>
</g>
</svg>
