<svg version="1.0" xmlns="http://www.w3.org/2000/svg"
 width="67.000000pt" height="85.000000pt" viewBox="0 0 67.000000 85.000000"
 preserveAspectRatio="xMidYMid meet">
<metadata>
Created by potrace 1.15, written by Peter Selinger 2001-2017
</metadata>
<g transform="translate(0.000000,85.000000) scale(0.100000,-0.100000)"
fill="#000000" stroke="none">
<path d="M212 631 c-26 -5 -53 -18 -72 -36 -28 -27 -30 -33 -30 -106 0 -43 5
-89 11 -103 15 -33 66 -56 124 -56 46 0 46 0 43 -32 -3 -33 -3 -33 -72 -30
-94 5 -136 -4 -136 -27 0 -37 25 -44 125 -38 95 6 95 6 95 -83 0 -81 2 -90 18
-90 27 0 42 42 42 119 0 69 0 69 43 64 47 -4 138 17 138 32 0 14 -78 27 -132
21 -42 -4 -48 -2 -53 17 -14 52 -10 57 49 57 77 0 111 20 125 71 15 53 2 93
-31 97 -87 9 -90 11 -87 45 3 31 4 32 44 29 49 -4 63 11 38 39 -15 17 -30 19
-128 18 -61 -1 -130 -5 -154 -8z m148 -55 c0 -8 -5 -27 -10 -41 -8 -21 -16
-26 -38 -23 -22 2 -28 8 -30 35 -2 23 1 32 15 36 38 10 63 7 63 -7z m-122 -28
c-3 -29 -7 -33 -35 -36 -29 -3 -33 0 -33 22 0 26 22 45 53 46 15 0 18 -7 15
-32z m106 -74 c11 -4 16 -19 16 -44 0 -32 -4 -39 -26 -44 -47 -12 -59 14 -38
82 4 13 23 16 48 6z m-114 -38 c0 -41 -12 -51 -40 -36 -25 13 -27 57 -2 63 37
10 42 7 42 -27z m250 15 c0 -10 -8 -29 -18 -42 -27 -32 -52 -19 -52 26 0 33 2
35 35 35 28 0 35 -4 35 -19z"/>
<path d="M123 125 c-36 -15 -42 -35 -18 -55 13 -11 29 -11 86 0 38 7 72 18 76
23 19 31 -90 55 -144 32z"/>
<path d="M383 124 c-9 -25 16 -34 95 -34 57 0 74 3 79 16 9 25 -16 34 -95 34
-57 0 -74 -3 -79 -16z"/>
</g>
</svg>
