<svg version="1.0" xmlns="http://www.w3.org/2000/svg"
 width="65.000000pt" height="85.000000pt" viewBox="0 0 65.000000 85.000000"
 preserveAspectRatio="xMidYMid meet">
<metadata>
Created by potrace 1.15, written by Peter Selinger 2001-2017
</metadata>
<g transform="translate(0.000000,85.000000) scale(0.100000,-0.100000)"
fill="#000000" stroke="none">
<path d="M184 650 c-4 -22 -12 -40 -18 -40 -6 0 -27 14 -46 31 -31 27 -35 29
-39 13 -3 -16 26 -47 87 -95 6 -5 12 -19 12 -29 0 -15 -7 -20 -30 -20 -71 0
-98 -104 -41 -161 59 -59 170 -27 192 56 17 60 3 88 -49 99 -36 8 -42 12 -42
35 0 18 9 32 31 46 29 19 66 72 56 81 -2 3 -19 -9 -37 -26 -18 -16 -36 -30
-41 -30 -5 0 -9 18 -9 40 0 22 -4 40 -10 40 -5 0 -13 -18 -16 -40z m81 -218
c0 -46 -12 -64 -56 -81 -20 -7 -34 -6 -55 5 -45 24 -54 48 -34 99 9 25 13 26
77 23 68 -3 68 -3 68 -46z"/>
<path d="M170 435 c-11 -13 -11 -19 3 -33 20 -19 41 -5 35 24 -4 24 -22 28
-38 9z"/>
<path d="M408 663 c-14 -16 -38 -38 -54 -49 -42 -31 -21 -42 23 -11 45 30 83
43 83 28 0 -6 5 -11 10 -11 6 0 29 -13 52 -30 41 -30 68 -38 68 -20 0 5 -6 13
-14 17 -8 4 -29 22 -48 38 -37 34 -79 65 -89 65 -3 0 -17 -12 -31 -27z"/>
<path d="M460 570 c0 -14 -12 -25 -40 -36 -22 -9 -40 -23 -40 -31 0 -10 6 -13
16 -9 9 3 26 6 39 6 12 0 33 8 45 18 19 16 20 21 9 45 -14 32 -29 35 -29 7z"/>
<path d="M390 445 c0 -11 12 -15 49 -15 68 0 81 -15 81 -97 0 -66 0 -66 -51
-59 -40 5 -50 4 -47 -6 3 -8 24 -14 53 -16 48 -3 48 -3 41 -48 -3 -25 -18 -65
-32 -90 -32 -55 -24 -69 17 -28 69 69 94 329 36 366 -7 4 -42 8 -79 8 -54 0
-68 -3 -68 -15z"/>
<path d="M366 395 c18 -79 10 -165 -20 -223 -15 -30 -25 -56 -22 -59 7 -7 66
59 66 74 0 8 12 13 30 13 27 0 29 -2 18 -20 -16 -26 -2 -38 20 -17 22 23 6 51
-33 55 -25 3 -27 6 -21 34 3 17 6 39 6 49 0 12 11 21 33 27 22 6 33 15 35 30
4 26 -4 28 -24 7 -23 -23 -40 -18 -54 15 -7 16 -19 35 -28 42 -13 12 -14 9 -6
-27z"/>
<path d="M50 281 c0 -14 27 -21 81 -21 40 0 49 -3 49 -17 0 -10 7 -36 16 -60
21 -54 12 -88 -32 -130 -28 -26 -31 -33 -17 -33 40 1 103 81 103 131 0 15 -9
38 -20 52 -29 37 -17 57 35 57 45 0 67 13 39 24 -25 10 -254 7 -254 -3z"/>
</g>
</svg>
