<svg version="1.0" xmlns="http://www.w3.org/2000/svg"
 width="70.000000pt" height="87.000000pt" viewBox="0 0 70.000000 87.000000"
 preserveAspectRatio="xMidYMid meet">
<metadata>
Created by potrace 1.15, written by Peter Selinger 2001-2017
</metadata>
<g transform="translate(0.000000,87.000000) scale(0.100000,-0.100000)"
fill="#000000" stroke="none">
<path d="M472 678 c-9 -17 -37 -53 -61 -80 -35 -38 -40 -49 -28 -54 9 -3 30 4
46 15 16 12 32 21 36 21 4 0 5 -55 1 -122 -3 -68 -7 -193 -8 -278 -2 -137 0
-155 15 -158 11 -2 19 8 26 35 12 47 31 326 31 451 0 92 0 92 23 78 37 -24
106 -41 118 -29 8 8 -2 18 -33 37 -23 14 -59 46 -78 70 -42 54 -65 57 -88 14z"/>
<path d="M159 661 c-17 -22 -58 -59 -91 -82 -43 -30 -57 -44 -49 -52 8 -8 24
-4 58 12 29 14 68 24 97 25 56 1 80 26 26 26 -33 0 -37 15 -8 34 13 8 22 2 45
-24 43 -52 65 -70 85 -70 28 0 22 16 -31 74 -27 30 -55 64 -61 75 -16 31 -35
26 -71 -18z"/>
<path d="M134 510 c-34 -13 -64 -59 -64 -97 0 -47 16 -72 56 -89 41 -17 42
-29 7 -66 -36 -38 -38 -102 -3 -145 31 -39 64 -58 86 -49 16 6 15 8 -3 29 -28
31 -43 61 -43 90 0 40 12 39 47 -3 64 -75 87 -40 27 41 -37 51 -41 76 -11 90
9 5 25 13 34 17 55 27 78 128 39 171 -16 17 -30 21 -85 20 -36 0 -76 -4 -87
-9z m120 -36 c11 -4 16 -19 16 -45 0 -48 -27 -69 -87 -69 -36 0 -45 4 -54 24
-15 33 -3 75 24 86 26 10 79 13 101 4z"/>
<path d="M166 435 c-11 -30 -6 -36 27 -33 24 2 32 8 32 23 0 26 -49 34 -59 10z"/>
<path d="M592 471 c-11 -18 -25 -59 -31 -92 -14 -68 -6 -102 39 -178 43 -73
82 -63 44 11 -25 47 -35 144 -23 212 13 73 0 94 -29 47z"/>
<path d="M366 443 c12 -71 7 -121 -20 -201 -23 -68 -21 -93 5 -76 6 4 24 35
40 70 22 47 29 79 29 123 0 67 -23 131 -46 131 -14 0 -15 -7 -8 -47z"/>
</g>
</svg>
