<svg version="1.0" xmlns="http://www.w3.org/2000/svg"
 width="68.000000pt" height="125.000000pt" viewBox="0 0 68.000000 125.000000"
 preserveAspectRatio="xMidYMid meet">
<metadata>
Created by potrace 1.15, written by Peter Selinger 2001-2017
</metadata>
<g transform="translate(0.000000,125.000000) scale(0.100000,-0.100000)"
fill="#000000" stroke="none">
<path d="M407 1118 c-2 -7 -1 -26 3 -43 9 -43 -1 -78 -32 -115 -23 -28 -30
-31 -43 -20 -9 7 -15 20 -14 29 5 50 -2 81 -17 81 -14 0 -16 -10 -12 -77 5
-70 8 -79 34 -100 16 -13 39 -23 52 -23 32 0 27 -23 -14 -62 -69 -64 -84 -82
-81 -92 2 -6 10 -12 18 -13 8 -1 40 -5 72 -8 33 -4 57 -11 57 -18 0 -7 -20
-29 -45 -50 -25 -21 -45 -46 -45 -56 0 -9 -4 -21 -9 -27 -32 -36 -61 -468 -33
-496 20 -20 34 5 37 64 1 29 -1 58 -6 63 -4 6 -5 15 -1 21 8 12 182 34 271 34
62 0 73 4 64 26 -4 10 -25 14 -78 14 -72 0 -72 0 -79 41 -4 22 -4 44 -1 48 2
5 31 11 64 14 73 6 87 13 69 34 -10 12 -25 14 -75 9 -63 -7 -63 -7 -63 33 0
48 18 61 85 61 72 0 53 24 -22 28 -61 3 -61 3 -65 39 -3 21 -2 47 0 60 4 19 9
22 31 17 14 -4 44 -15 65 -25 22 -11 46 -19 53 -19 23 0 14 36 -12 48 -14 7
-36 17 -50 24 -34 16 -32 23 15 38 53 18 52 41 -3 69 -24 12 -56 33 -72 47
-15 13 -32 24 -37 24 -4 0 -8 4 -8 9 0 6 21 13 48 17 69 10 85 33 80 116 -4
67 -17 96 -37 84 -6 -4 -11 -30 -11 -57 0 -48 -1 -50 -22 -43 -13 3 -35 15
-50 26 -24 16 -28 26 -28 67 0 46 -12 71 -36 71 -7 0 -14 -6 -17 -12z m67
-169 c56 -26 31 -59 -43 -59 -47 0 -52 12 -19 47 25 26 28 27 62 12z m48 -180
c33 -24 35 -35 9 -49 -31 -16 -51 -12 -51 10 0 11 -6 20 -14 20 -7 0 -16 -9
-19 -20 -4 -14 -13 -20 -34 -20 -54 0 -57 14 -11 54 46 41 68 42 120 5z m-70
-191 c3 -7 2 -24 -2 -38 -4 -19 -13 -26 -38 -28 -39 -4 -43 16 -10 53 24 27
43 32 50 13z m-21 -106 c11 -5 15 -20 15 -47 -1 -40 -1 -40 -53 -43 -53 -3
-53 -3 -53 27 0 52 45 83 91 63z m12 -156 c15 -23 19 -57 7 -71 -8 -10 -30
-15 -61 -15 -49 0 -49 0 -49 49 0 30 5 51 13 54 19 7 81 -5 90 -17z"/>
<path d="M76 1074 c-3 -8 0 -25 6 -37 7 -12 22 -51 33 -86 27 -83 28 -282 2
-351 -21 -58 -22 -225 -1 -330 8 -41 18 -90 21 -107 3 -18 9 -33 13 -33 4 0
10 -12 13 -27 9 -40 23 -57 41 -50 17 7 23 57 6 57 -5 0 -10 8 -10 18 0 10 -5
23 -10 28 -6 6 -19 53 -31 105 -22 103 -22 239 2 334 21 84 12 386 -12 401 -5
3 -9 15 -9 28 0 12 -10 32 -23 44 -28 26 -33 27 -41 6z"/>
<path d="M187 1036 c-3 -8 -3 -17 1 -20 29 -30 45 -251 22 -312 -7 -19 -7 -30
1 -40 17 -20 25 -17 37 14 12 32 30 210 22 220 -4 4 -12 30 -19 57 -19 77 -51
117 -64 81z"/>
<path d="M20 998 c0 -7 9 -37 20 -66 25 -66 28 -194 4 -241 -29 -59 2 -84 36
-28 16 26 20 50 20 127 0 96 -11 144 -43 193 -18 28 -37 36 -37 15z"/>
<path d="M207 583 c-4 -3 -7 -17 -7 -29 0 -13 -4 -26 -10 -29 -13 -8 -13 -135
0 -211 12 -68 47 -144 67 -144 17 0 16 13 -1 80 -27 103 -35 255 -16 291 17
31 -10 65 -33 42z"/>
<path d="M55 570 c-35 -56 -48 -243 -25 -355 13 -66 39 -127 56 -132 20 -6 25
27 10 60 -37 80 -48 295 -21 375 15 42 13 62 -5 62 -5 0 -12 -4 -15 -10z"/>
</g>
</svg>
