<svg version="1.0" xmlns="http://www.w3.org/2000/svg"
 width="68.000000pt" height="112.000000pt" viewBox="0 0 68.000000 112.000000"
 preserveAspectRatio="xMidYMid meet">
<metadata>
Created by potrace 1.15, written by Peter Selinger 2001-2017
</metadata>
<g transform="translate(0.000000,112.000000) scale(0.100000,-0.100000)"
fill="#000000" stroke="none">
<path d="M577 1003 c-2 -4 -7 -29 -11 -54 -8 -53 -30 -69 -96 -69 -48 0 -93
-16 -88 -32 9 -26 36 -32 95 -19 32 7 68 15 80 17 42 8 54 32 51 97 -3 54 -18
83 -31 60z"/>
<path d="M280 970 c-14 -4 -57 -8 -97 -9 -81 -1 -103 -7 -103 -27 0 -12 19
-14 108 -10 143 6 169 15 140 44 -13 13 -13 13 -48 2z"/>
<path d="M215 849 c-27 -4 -78 -8 -112 -8 -57 -1 -63 -3 -63 -22 0 -19 4 -20
83 -15 124 8 217 20 217 29 0 4 0 11 0 16 0 11 -45 10 -125 0z"/>
<path d="M587 833 c-4 -3 -7 -18 -7 -33 0 -45 -27 -60 -107 -60 -52 0 -74 -4
-84 -16 -10 -13 -10 -17 2 -25 18 -12 153 0 195 17 28 12 32 18 32 51 0 38
-19 78 -31 66z"/>
<path d="M192 768 c-8 -8 -12 -51 -12 -129 0 -132 2 -129 -80 -129 -61 0 -80
-7 -80 -31 0 -18 7 -19 78 -17 77 3 77 3 80 -185 2 -172 4 -188 20 -185 15 3
17 22 20 183 2 109 7 184 14 192 6 7 30 13 53 13 28 0 45 5 48 14 9 22 -2 26
-61 26 -54 0 -54 0 -51 127 4 126 -2 148 -29 121z"/>
<path d="M276 733 c-7 -29 1 -163 9 -171 2 -2 11 -2 20 1 12 5 15 23 15 79 0
85 -7 118 -25 118 -8 0 -16 -12 -19 -27z"/>
<path d="M91 737 c-12 -15 -4 -166 10 -181 14 -15 25 35 23 99 -2 33 -3 68 -4
78 0 20 -13 22 -29 4z"/>
<path d="M586 683 c-3 -4 -6 -18 -6 -32 0 -42 -12 -50 -90 -61 -126 -19 -145
-24 -145 -40 0 -9 9 -15 25 -15 14 0 30 -3 36 -7 11 -8 12 -48 1 -78 -5 -14
-33 -120 -44 -168 -9 -37 13 -25 34 21 32 65 41 97 48 165 5 47 12 65 26 73
30 16 39 2 39 -61 0 -63 6 -74 65 -110 39 -24 37 -43 -10 -74 -14 -9 -37 -34
-52 -57 -24 -36 -25 -43 -14 -79 15 -52 96 -140 127 -140 37 0 29 18 -37 83
-57 57 -61 63 -55 96 3 21 15 44 28 54 71 54 98 79 98 91 0 14 -36 48 -71 67
-40 21 -49 36 -49 81 0 45 13 68 38 68 24 0 41 32 42 76 0 39 -18 63 -34 47z"/>
<path d="M275 438 c-6 -21 -13 -306 -8 -312 3 -3 12 2 20 10 12 12 15 42 15
142 0 70 -1 137 -1 150 -1 23 -19 30 -26 10z"/>
<path d="M80 372 c0 -37 -5 -105 -10 -151 -7 -51 -7 -88 -2 -93 15 -15 43 21
41 55 0 18 2 83 6 145 7 110 7 112 -14 112 -19 0 -21 -5 -21 -68z"/>
</g>
</svg>
