<svg version="1.0" xmlns="http://www.w3.org/2000/svg"
 width="64.000000pt" height="114.000000pt" viewBox="0 0 64.000000 114.000000"
 preserveAspectRatio="xMidYMid meet">
<metadata>
Created by potrace 1.15, written by Peter Selinger 2001-2017
</metadata>
<g transform="translate(0.000000,114.000000) scale(0.100000,-0.100000)"
fill="#000000" stroke="none">
<path d="M52 1058 c-21 -21 -13 -28 34 -28 46 0 46 0 42 -112 -3 -91 -7 -113
-21 -122 -28 -18 -42 8 -42 82 0 54 -3 67 -16 70 -13 2 -18 -7 -21 -45 -7 -86
3 -116 45 -136 33 -15 37 -21 37 -55 0 -39 -14 -62 -38 -62 -45 0 -58 -73 -67
-362 -5 -166 -4 -198 8 -198 11 0 16 34 21 172 15 339 15 340 34 354 9 7 23
14 31 14 14 0 13 -40 -3 -478 -3 -61 6 -84 25 -65 5 5 11 93 13 194 2 101 7
221 11 267 7 70 11 82 26 82 21 0 42 -58 28 -76 -5 -6 -7 -13 -4 -15 3 -4 10
-185 15 -446 0 -7 7 -10 14 -7 13 5 14 46 11 270 -3 282 -4 284 -56 297 -14 4
-26 12 -26 19 0 7 -2 18 -3 23 -9 37 1 55 40 65 34 9 41 16 50 51 16 57 9 144
-10 144 -12 0 -16 -16 -18 -70 -3 -74 -13 -95 -45 -95 -18 0 -19 4 -13 48 16
116 19 201 6 217 -15 18 -91 20 -108 3z"/>
<path d="M269 1008 c-36 -13 -12 -23 69 -28 72 -5 77 -7 80 -29 4 -28 -12 -41
-51 -41 -18 0 -39 -11 -58 -30 -29 -28 -30 -33 -28 -109 1 -44 5 -85 9 -91 11
-18 30 -3 30 23 0 32 9 41 68 65 53 21 53 21 108 1 67 -25 83 -40 77 -73 -3
-16 -1 -26 6 -26 6 0 14 -1 19 -2 13 -5 28 174 17 199 -13 30 -46 43 -104 43
-45 0 -49 2 -54 27 -3 16 0 31 6 35 7 4 47 8 90 8 62 0 77 3 77 15 0 17 8 16
-192 19 -81 1 -157 -2 -169 -6z m254 -137 c4 -1 15 -1 26 -1 14 0 21 -10 26
-36 3 -20 2 -41 -3 -46 -13 -13 -89 19 -107 45 -13 18 -13 23 1 39 12 12 22
15 33 9 9 -5 19 -9 24 -10z m-105 -13 c4 -21 -44 -68 -69 -68 -20 0 -33 31
-24 59 10 32 87 39 93 9z"/>
<path d="M410 621 c0 -89 0 -89 -50 -100 -28 -6 -54 -10 -58 -10 -22 4 -32 -3
-32 -22 0 -20 4 -21 58 -15 31 4 72 12 90 18 42 13 118 2 126 -18 11 -28 6
-61 -9 -74 -13 -10 -19 -9 -36 6 -16 15 -36 19 -88 19 -36 0 -78 -3 -93 -8
-52 -14 -29 -27 50 -27 81 0 102 -9 102 -42 0 -11 -7 -18 -20 -18 -11 0 -20
-4 -20 -8 0 -4 -21 -14 -47 -21 -81 -24 -110 -51 -54 -51 15 0 51 10 80 21 78
33 78 32 97 -188 6 -75 9 -79 33 -64 14 9 14 28 -5 239 -6 59 -4 64 25 97 26
30 31 44 31 89 0 46 -4 56 -25 70 -13 9 -44 16 -68 16 -40 0 -45 3 -50 25 -5
30 15 45 65 45 18 0 39 4 47 9 23 15 1 32 -38 31 -69 -3 -71 -3 -71 35 0 28
-4 35 -20 35 -19 0 -20 -7 -20 -89z"/>
</g>
</svg>
