<svg version="1.0" xmlns="http://www.w3.org/2000/svg"
 width="93.000000pt" height="171.000000pt" viewBox="0 0 93.000000 171.000000"
 preserveAspectRatio="xMidYMid meet">
<metadata>
Created by potrace 1.15, written by Peter Selinger 2001-2017
</metadata>
<g transform="translate(0.000000,171.000000) scale(0.100000,-0.100000)"
fill="#000000" stroke="none">
<path d="M602 1653 c-8 -21 -6 -227 3 -298 7 -50 7 -50 -49 -69 -40 -14 -55
-24 -51 -34 3 -7 5 -16 5 -18 0 -2 27 -4 60 -4 56 0 60 -2 60 -23 0 -13 4 -27
8 -33 5 -5 14 -29 21 -54 7 -25 18 -55 23 -66 10 -21 -7 -64 -24 -64 -5 0 -8
-6 -8 -14 0 -8 -13 -28 -29 -45 -16 -17 -31 -38 -35 -47 -6 -16 9 -54 22 -54
12 0 62 47 62 58 0 6 9 16 20 22 11 6 20 17 20 25 0 15 36 21 42 7 4 -11 127
-72 144 -72 24 0 16 29 -13 47 -16 10 -34 23 -41 30 -8 7 -22 18 -33 23 -10 6
-19 19 -19 28 0 22 22 72 33 72 4 0 7 9 7 20 0 11 5 20 10 20 12 0 13 47 1 54
-18 11 -73 -17 -91 -47 -19 -30 -19 -30 -35 9 -9 21 -19 57 -22 80 -5 39 -4
41 29 57 20 9 52 22 73 29 38 13 65 41 52 54 -10 10 -74 6 -114 -7 -19 -6 -40
-8 -48 -5 -21 8 -19 45 3 53 9 4 22 11 27 15 6 5 31 22 57 38 52 32 83 72 74
95 -7 21 -45 19 -65 -3 -48 -53 -115 -81 -119 -49 -1 6 -5 39 -7 72 -9 95 -34
142 -53 98z"/>
<path d="M319 1488 c-18 -46 -43 -65 -92 -73 -23 -4 -50 -9 -59 -11 -14 -4
-18 1 -18 19 0 24 -27 57 -48 57 -6 0 -14 -11 -17 -25 -3 -14 -7 -36 -10 -50
-3 -13 -8 -77 -10 -142 -3 -65 -7 -131 -10 -148 -9 -65 -8 -206 1 -215 16 -16
42 -2 52 29 8 22 21 31 68 45 110 33 134 47 154 90 29 63 39 122 41 246 1 63
6 124 12 137 7 16 7 30 -1 48 -16 36 -47 32 -63 -7z m-26 -169 c9 -10 17 -23
17 -29 0 -19 -47 -59 -77 -66 -15 -3 -35 -8 -44 -10 -12 -3 -18 5 -22 36 -7
55 0 75 31 86 35 13 73 6 95 -17z m1 -165 c9 -23 -30 -92 -62 -108 -15 -8 -44
-17 -65 -21 -37 -7 -37 -7 -36 26 2 65 12 83 59 101 57 22 96 23 104 2z"/>
<path d="M365 770 c-4 -12 -5 -40 -3 -63 3 -42 3 -42 -37 -52 -22 -6 -55 -18
-74 -28 -19 -9 -38 -17 -43 -17 -5 0 -16 -7 -25 -15 -12 -12 -13 -19 -3 -30
13 -16 46 -20 52 -7 6 14 86 52 111 52 25 0 26 -3 24 -47 -2 -43 -5 -48 -27
-51 -67 -7 -110 -25 -110 -45 0 -17 5 -19 43 -14 23 4 54 9 68 13 25 5 26 3
32 -40 4 -25 4 -51 2 -58 -3 -7 -40 -24 -83 -38 -52 -17 -78 -31 -80 -43 -3
-14 4 -17 35 -17 22 0 43 4 48 9 6 5 29 12 53 16 40 6 42 6 42 -18 0 -47 -40
-119 -92 -168 -41 -39 -48 -50 -35 -55 9 -3 23 1 32 9 8 9 24 19 35 22 11 3
20 11 20 16 0 14 30 11 34 -3 3 -7 7 -25 10 -40 11 -47 35 -34 42 22 5 41 10
50 28 52 35 2 80 -3 97 -12 22 -12 59 -1 53 15 -3 7 -41 28 -84 45 -73 29 -79
34 -87 68 -11 46 -3 82 22 96 10 6 29 21 42 34 32 29 39 28 103 -14 30 -20 69
-43 87 -50 31 -14 31 -14 16 17 -8 16 -39 48 -69 70 -30 22 -54 48 -54 57 0
10 9 35 20 57 37 73 20 139 -40 155 -21 6 -59 9 -86 8 -49 -3 -49 -3 -52 41
-3 45 -20 71 -46 71 -8 0 -18 -9 -21 -20z m188 -154 c20 -15 22 -63 5 -101
-13 -29 -39 -32 -92 -10 -34 15 -36 17 -36 65 0 49 0 49 48 53 26 2 49 4 52 5
3 1 13 -5 23 -12z m-68 -175 c6 -10 -32 -51 -47 -51 -4 0 -8 14 -8 30 0 25 4
30 24 30 14 0 27 -4 31 -9z"/>
</g>
</svg>
