<svg version="1.0" xmlns="http://www.w3.org/2000/svg"
 width="105.000000pt" height="117.000000pt" viewBox="0 0 105.000000 117.000000"
 preserveAspectRatio="xMidYMid meet">
<metadata>
Created by potrace 1.15, written by Peter Selinger 2001-2017
</metadata>
<g transform="translate(0.000000,117.000000) scale(0.100000,-0.100000)"
fill="#000000" stroke="none">
<path d="M94 1119 c-4 -7 -6 -30 -6 -53 1 -22 3 -234 5 -470 3 -383 5 -431 20
-440 9 -6 19 -8 22 -5 3 4 8 44 12 90 3 46 11 89 17 94 6 6 38 17 70 25 43 10
68 23 92 49 59 60 64 79 59 220 -10 250 -22 307 -70 338 -27 18 -115 41 -137
35 -3 -1 -12 22 -19 51 -15 62 -47 95 -65 66z m202 -201 c10 -7 18 -50 26
-153 3 -30 2 -30 -47 -30 -49 0 -102 9 -113 20 -10 9 -1 179 9 186 10 6 107
-12 125 -23z m25 -249 c5 -8 9 -56 9 -107 0 -92 0 -92 -32 -112 -47 -29 -109
-44 -128 -32 -12 7 -14 25 -11 78 7 143 8 159 9 178 2 17 9 18 73 14 45 -4 75
-11 80 -19z"/>
<path d="M670 1050 c0 -60 0 -60 -47 -60 -62 0 -93 -9 -93 -25 0 -16 16 -21
88 -30 28 -4 52 -10 53 -13 1 -4 3 -29 5 -55 4 -48 4 -48 -66 -46 -70 2 -92
-4 -74 -20 15 -13 74 -31 105 -31 33 0 43 -25 31 -78 -7 -33 -7 -33 -79 -35
-79 -2 -93 -8 -70 -32 11 -10 35 -15 80 -15 64 0 65 0 71 -31 8 -43 -8 -98
-41 -135 -16 -18 -35 -42 -43 -54 -8 -13 -24 -32 -35 -44 -32 -33 -65 -78 -65
-87 0 -26 45 -2 106 56 63 61 69 64 76 44 5 -11 9 -82 10 -155 2 -145 9 -172
33 -140 15 20 20 99 15 263 -1 40 2 73 7 73 17 0 86 -53 140 -107 38 -39 58
-52 65 -45 7 7 2 18 -16 37 -14 14 -26 30 -26 34 0 5 -36 44 -80 87 -81 80
-84 87 -82 162 2 42 2 42 55 42 36 0 60 6 77 20 50 39 52 36 75 -125 22 -148
24 -155 47 -155 19 0 20 5 15 53 -4 28 -11 102 -17 162 -7 61 -16 130 -22 155
-5 25 -11 71 -12 104 -3 52 -7 62 -39 92 -20 19 -45 34 -56 34 -11 0 -23 5
-26 10 -3 6 -17 10 -30 10 -39 0 -75 21 -75 44 0 47 -21 96 -40 96 -18 0 -20
-7 -20 -60z m105 -130 c3 -5 15 -10 26 -10 57 0 117 -71 97 -116 -9 -19 -13
-20 -66 -9 -31 6 -64 15 -73 19 -19 8 -34 82 -23 109 7 19 29 23 39 7z m38
-181 c31 -7 57 -15 57 -18 -1 -26 -51 -51 -101 -51 -27 0 -29 2 -29 40 0 45
-3 44 73 29z"/>
</g>
</svg>
