<svg version="1.0" xmlns="http://www.w3.org/2000/svg"
 width="97.000000pt" height="149.000000pt" viewBox="0 0 97.000000 149.000000"
 preserveAspectRatio="xMidYMid meet">
<metadata>
Created by potrace 1.15, written by Peter Selinger 2001-2017
</metadata>
<g transform="translate(0.000000,149.000000) scale(0.100000,-0.100000)"
fill="#000000" stroke="none">
<path d="M66 1348 c6 -97 14 -409 18 -762 3 -247 10 -292 34 -229 6 15 14 70
17 120 5 67 11 93 20 93 25 0 140 67 183 107 24 22 50 53 59 69 9 16 23 43 32
59 11 20 17 63 19 128 4 96 4 98 35 121 18 13 48 32 67 42 19 10 37 22 40 25
15 18 105 58 113 50 6 -6 6 -91 1 -212 -9 -202 -9 -202 -91 -228 -65 -20 -83
-30 -83 -45 0 -16 5 -18 40 -12 22 3 58 9 80 12 40 7 40 7 40 -45 0 -51 0 -51
-66 -81 -37 -16 -71 -30 -76 -30 -11 0 -38 -25 -38 -35 0 -8 104 0 138 10 21
7 22 5 22 -63 0 -75 -3 -80 -60 -102 -47 -18 -57 -27 -42 -42 9 -9 25 -8 69 1
215 45 206 45 214 -4 25 -151 41 -210 59 -210 22 0 27 44 19 160 -5 61 -6 123
-2 140 3 16 6 89 6 161 1 108 -3 137 -16 158 -23 34 -87 66 -132 66 -36 0 -36
0 -34 203 2 111 5 210 7 220 4 16 72 57 94 57 11 0 58 42 58 52 0 15 -71 8
-110 -12 -48 -25 -50 -25 -50 -1 0 17 -26 49 -34 40 -2 -2 -7 -22 -12 -43 -9
-40 -48 -74 -85 -75 -9 -1 -43 -19 -77 -40 -88 -57 -97 -57 -98 4 -1 28 -4 60
-8 71 -7 24 7 68 29 91 8 8 13 19 10 24 -7 11 -45 12 -45 2 0 -5 -19 -9 -43
-11 -23 -1 -55 -7 -72 -12 -16 -5 -61 -17 -99 -26 -37 -8 -74 -18 -82 -21 -9
-3 -15 8 -19 34 -11 66 -26 103 -41 103 -12 0 -13 -15 -8 -82z m312 -128 c7
-39 12 -87 12 -108 0 -35 -3 -38 -58 -65 -31 -16 -86 -44 -122 -63 -36 -18
-68 -34 -72 -34 -14 0 -9 270 5 284 13 13 157 53 197 55 24 1 27 -3 38 -69z
m0 -381 c-7 -16 -16 -29 -20 -29 -5 0 -8 -7 -8 -16 0 -21 -78 -93 -110 -101
-14 -3 -29 -9 -35 -13 -5 -4 -20 -10 -32 -13 -27 -6 -25 -11 -27 125 -1 54 2
98 7 98 4 0 58 25 120 55 112 56 112 56 115 -10 2 -39 -2 -79 -10 -96z m480
-149 c13 -12 22 -33 22 -49 0 -24 -6 -31 -31 -40 -18 -6 -47 -11 -65 -11 -34
0 -34 0 -34 60 0 60 0 60 43 60 30 0 50 -6 65 -20z m12 -192 c0 -17 -5 -46
-12 -64 -10 -28 -18 -34 -52 -39 -23 -4 -49 -9 -58 -11 -16 -5 -18 3 -18 60 0
68 3 72 48 67 6 -1 12 3 12 9 0 5 18 10 40 10 38 0 40 -1 40 -32z"/>
<path d="M333 498 c-13 -17 -38 -72 -54 -123 -7 -22 -19 -49 -26 -60 -28 -42
-5 -62 27 -25 17 20 18 20 23 -6 2 -15 -1 -42 -9 -60 -14 -33 -68 -94 -100
-112 -9 -5 -15 -14 -13 -20 4 -11 26 -3 110 38 36 17 36 17 89 -41 36 -39 62
-59 77 -59 39 0 37 25 -6 89 -23 33 -41 64 -41 69 0 4 -9 27 -20 50 -21 44
-24 60 -14 87 5 12 9 13 14 4 5 -6 15 -9 24 -6 18 7 15 35 -9 92 -7 17 -17 44
-22 60 -10 33 -34 43 -50 23z"/>
</g>
</svg>
