<svg version="1.0" xmlns="http://www.w3.org/2000/svg"
 width="63.000000pt" height="113.000000pt" viewBox="0 0 63.000000 113.000000"
 preserveAspectRatio="xMidYMid meet">
<metadata>
Created by potrace 1.15, written by Peter Selinger 2001-2017
</metadata>
<g transform="translate(0.000000,113.000000) scale(0.100000,-0.100000)"
fill="#000000" stroke="none">
<path d="M130 971 c0 -23 29 -41 64 -41 35 0 36 -1 36 -40 0 -35 -3 -40 -24
-40 -20 0 -84 -18 -95 -26 -2 -2 4 -10 12 -19 10 -9 33 -15 61 -15 46 0 46 0
46 -34 0 -38 -12 -46 -65 -46 -43 0 -51 -13 -23 -39 17 -16 30 -20 54 -15 32
6 33 5 39 -33 9 -55 14 -65 25 -58 5 3 10 24 10 46 0 40 6 48 66 99 16 14 36
37 43 53 14 26 51 38 51 17 0 -5 6 -10 14 -10 17 0 26 -22 26 -65 0 -19 5 -37
10 -40 6 -3 10 -15 10 -25 0 -20 68 -95 78 -86 3 3 0 23 -6 43 -6 21 -16 61
-22 88 -7 28 -14 58 -17 68 -7 27 -52 67 -82 73 -21 4 -31 15 -42 46 -8 23
-29 54 -49 69 -31 25 -46 29 -128 35 -68 5 -92 3 -92 -5z m209 -76 c20 -19 7
-44 -21 -41 -36 4 -48 15 -48 43 0 22 3 24 28 18 15 -3 33 -12 41 -20z m-5
-104 c10 -15 -4 -38 -29 -49 -22 -10 -25 -9 -31 13 -3 13 -3 29 1 34 8 13 52
14 59 2z"/>
<path d="M62 511 c-10 -6 -11 -18 -4 -49 6 -23 11 -90 12 -149 1 -59 5 -128 8
-153 6 -40 10 -45 35 -48 16 -2 38 5 53 17 15 12 34 21 43 21 16 0 38 18 68
54 7 8 13 33 13 55 0 34 4 42 23 46 30 8 116 0 126 -11 5 -5 11 -31 15 -57 5
-45 4 -48 -22 -59 -33 -14 -62 -38 -62 -51 0 -11 70 0 87 15 13 10 20 -2 39
-66 14 -47 29 -26 27 35 -2 50 0 57 21 69 23 12 52 58 42 67 -2 3 -21 -1 -41
-8 -41 -15 -55 -5 -55 42 0 22 6 28 33 33 78 16 87 19 87 27 0 9 -23 12 -78 9
-50 -3 -51 23 -2 67 41 38 41 38 -3 35 -41 -4 -46 -1 -63 27 -10 17 -27 31
-37 31 -17 0 -19 -5 -14 -47 4 -27 9 -60 13 -75 6 -24 3 -27 -32 -37 -107 -27
-100 -29 -114 40 -15 71 -37 99 -77 99 -16 0 -41 7 -57 15 -31 17 -64 19 -84
6z m150 -93 c20 -27 24 -77 6 -79 -30 -3 -65 3 -85 13 -18 9 -23 20 -23 53 0
23 2 44 6 47 11 12 79 -12 96 -34z m18 -153 c0 -29 -6 -39 -32 -55 -33 -20
-67 -26 -69 -12 -1 4 -3 26 -5 49 -4 42 -4 42 44 46 26 2 50 4 55 5 4 1 7 -14
7 -33z"/>
</g>
</svg>
