<svg version="1.0" xmlns="http://www.w3.org/2000/svg"
 width="62.000000pt" height="89.000000pt" viewBox="0 0 62.000000 89.000000"
 preserveAspectRatio="xMidYMid meet">
<metadata>
Created by potrace 1.15, written by Peter Selinger 2001-2017
</metadata>
<g transform="translate(0.000000,89.000000) scale(0.100000,-0.100000)"
fill="#000000" stroke="none">
<path d="M370 641 c0 -39 -1 -41 -31 -41 -36 0 -35 -21 2 -30 20 -5 24 -12 24
-40 0 -35 0 -35 -47 -32 -31 2 -48 0 -48 -7 0 -15 43 -31 81 -31 27 0 29 -2
29 -40 0 -37 -2 -40 -27 -40 -16 0 -35 -4 -43 -10 -13 -8 -13 -10 0 -14 8 -3
26 -6 40 -8 39 -5 40 -50 2 -74 -58 -37 -152 -117 -152 -130 0 -32 33 -21 87
31 32 30 63 55 70 55 10 0 13 -24 13 -94 0 -94 9 -121 33 -97 8 8 11 45 9 112
-2 54 -1 99 2 99 17 0 59 -23 88 -49 23 -20 39 -27 48 -21 11 7 11 12 -3 33
-17 27 -96 77 -121 77 -11 0 -16 9 -16 30 0 23 5 30 19 30 11 0 32 13 47 29
32 34 40 32 60 -16 17 -40 38 -39 42 3 2 21 -4 36 -23 54 -21 20 -25 32 -25
81 0 67 -20 89 -81 89 -36 0 -36 0 -35 43 1 36 -2 42 -21 45 -21 3 -23 -1 -23
-37z m104 -107 c3 -9 6 -25 6 -35 0 -17 -6 -20 -32 -17 -33 3 -46 23 -34 54 7
19 52 18 60 -2z m-11 -90 c9 -10 -25 -64 -40 -64 -8 0 -13 13 -13 35 0 30 3
35 23 35 13 0 27 -3 30 -6z"/>
<path d="M55 597 c-9 -34 -2 -424 8 -433 15 -15 31 16 29 55 -3 38 -1 40 33
47 20 3 51 21 70 40 35 33 35 35 35 119 0 106 -14 125 -89 125 -48 0 -50 1
-53 32 -4 39 -25 48 -33 15z m109 -87 c21 -8 26 -16 26 -45 0 -36 0 -36 -47
-33 -46 3 -48 4 -51 37 -5 47 20 61 72 41z m16 -124 c0 -38 -56 -116 -82 -116
-10 0 -11 114 -1 123 3 4 24 7 45 7 26 0 38 -4 38 -14z"/>
</g>
</svg>
