<svg version="1.0" xmlns="http://www.w3.org/2000/svg"
 width="75.000000pt" height="85.000000pt" viewBox="0 0 75.000000 85.000000"
 preserveAspectRatio="xMidYMid meet">
<metadata>
Created by potrace 1.15, written by Peter Selinger 2001-2017
</metadata>
<g transform="translate(0.000000,85.000000) scale(0.100000,-0.100000)"
fill="#000000" stroke="none">
<path d="M189 678 c-9 -29 2 -638 11 -638 5 0 13 8 17 18 13 27 0 625 -13 629
-6 2 -13 -2 -15 -9z"/>
<path d="M266 635 c-10 -28 6 -215 19 -215 14 0 32 200 20 219 -9 16 -32 13
-39 -4z"/>
<path d="M108 623 c-2 -4 -2 -52 0 -105 3 -78 6 -98 18 -98 12 0 14 18 12 102
-2 66 -7 103 -15 105 -6 2 -13 0 -15 -4z"/>
<path d="M417 623 c-40 -3 -49 -8 -57 -29 -16 -40 -12 -137 6 -162 14 -20 23
-22 119 -22 96 0 105 2 119 22 20 28 22 160 4 176 -16 12 -125 21 -191 15z
m163 -53 c6 -11 8 -25 5 -30 -3 -6 -49 -10 -101 -10 -87 0 -94 2 -94 20 0 29
28 39 107 40 62 0 74 -3 83 -20z m2 -92 c-8 -33 -19 -38 -97 -38 -73 0 -95 10
-95 42 0 16 10 18 99 18 98 0 99 0 93 -22z"/>
<path d="M265 275 c-9 -105 1 -215 20 -215 19 0 21 15 19 118 -3 181 -3 182
-18 182 -11 0 -16 -22 -21 -85z"/>
<path d="M342 348 c3 -7 24 -15 49 -18 39 -4 44 -8 44 -29 0 -19 -7 -26 -30
-33 -47 -12 -55 -32 -55 -135 0 -73 3 -93 14 -93 15 0 26 21 26 51 0 18 8 19
105 19 105 0 105 0 105 -41 0 -33 3 -40 18 -37 15 3 17 16 16 101 -2 107 -15
137 -61 137 -21 0 -24 4 -21 28 3 24 7 27 38 25 50 -3 65 3 50 22 -17 20 -304
22 -298 3z m173 -92 c8 -84 1 -119 -23 -114 -14 3 -18 17 -20 73 -4 81 3 115
22 115 10 0 16 -21 21 -74z m-80 -71 c0 -33 -3 -40 -20 -40 -22 0 -30 24 -21
61 5 17 12 24 24 22 13 -2 17 -13 17 -43z m163 -2 c3 -40 1 -43 -22 -43 -24 0
-26 3 -26 46 0 41 2 45 23 42 18 -2 23 -10 25 -45z"/>
<path d="M110 199 c0 -128 2 -140 18 -137 15 3 17 18 20 118 3 128 -1 160 -23
160 -13 0 -15 -23 -15 -141z"/>
</g>
</svg>
