<svg version="1.0" xmlns="http://www.w3.org/2000/svg"
 width="73.000000pt" height="87.000000pt" viewBox="0 0 73.000000 87.000000"
 preserveAspectRatio="xMidYMid meet">
<metadata>
Created by potrace 1.15, written by Peter Selinger 2001-2017
</metadata>
<g transform="translate(0.000000,87.000000) scale(0.100000,-0.100000)"
fill="#000000" stroke="none">
<path d="M255 671 c-51 -31 -64 -53 -67 -111 -3 -47 -6 -55 -23 -55 -16 0 -21
8 -25 45 -6 44 -34 100 -51 100 -15 0 -20 -20 -9 -40 6 -10 11 -41 11 -67 2
-80 4 -83 60 -83 46 0 50 -2 47 -22 -2 -16 -15 -25 -50 -35 -71 -20 -84 -46
-69 -133 14 -84 14 -150 1 -184 -7 -19 -6 -26 3 -26 29 0 42 45 47 170 5 125
5 125 39 128 34 3 34 3 27 -75 -9 -106 -30 -181 -60 -212 -31 -32 -32 -41 -7
-41 22 0 64 57 87 120 13 35 17 87 20 243 2 197 2 197 33 239 45 61 41 73 -14
39z"/>
<path d="M310 602 c-25 -8 -25 -8 -3 -20 14 -8 72 -12 160 -12 135 0 181 8
152 26 -17 10 -277 15 -309 6z"/>
<path d="M318 545 c-16 -28 -18 -105 -3 -140 15 -37 15 -38 66 -33 27 3 55 10
60 15 15 15 23 85 15 127 -8 40 -23 48 -28 14 -3 -20 -9 -23 -48 -23 -39 0
-45 3 -50 25 -3 14 -8 20 -12 15z m100 -107 c-3 -25 -43 -37 -60 -20 -19 19 0
42 32 42 27 0 31 -3 28 -22z"/>
<path d="M535 457 c-3 -46 -10 -89 -14 -96 -4 -7 -38 -19 -74 -27 -48 -11 -72
-23 -87 -41 -47 -60 -14 -93 101 -100 72 -5 86 -10 115 -35 20 -18 38 -46 44
-70 11 -40 32 -47 39 -13 4 25 -19 92 -38 108 -28 24 -128 49 -185 46 -31 -1
-56 -1 -57 2 0 2 4 16 10 30 11 31 24 37 98 46 84 9 97 27 90 122 -10 136 -31
151 -42 28z"/>
</g>
</svg>
