<svg version="1.0" xmlns="http://www.w3.org/2000/svg"
 width="74.000000pt" height="88.000000pt" viewBox="0 0 74.000000 88.000000"
 preserveAspectRatio="xMidYMid meet">
<metadata>
Created by potrace 1.15, written by Peter Selinger 2001-2017
</metadata>
<g transform="translate(0.000000,88.000000) scale(0.100000,-0.100000)"
fill="#000000" stroke="none">
<path d="M187 633 c-4 -3 -7 -16 -7 -27 0 -12 -9 -38 -20 -59 -26 -48 -25 -55
6 -88 26 -28 26 -28 10 -69 -23 -58 -21 -96 9 -126 31 -31 31 -45 0 -82 -29
-34 -45 -73 -45 -108 0 -37 20 -25 35 20 23 67 35 67 35 -1 0 -60 12 -89 24
-57 3 9 6 41 6 72 0 62 11 61 33 -3 14 -39 37 -60 37 -33 0 29 -32 107 -51
124 -25 22 -24 59 1 91 28 36 26 84 -5 113 -31 29 -31 31 1 69 30 36 27 73 -6
91 -11 6 -20 21 -20 33 0 33 -26 57 -43 40z m45 -97 c12 -29 5 -54 -18 -63
-29 -11 -47 50 -22 75 18 18 27 15 40 -12z m8 -177 c18 -32 4 -71 -23 -67 -26
4 -34 36 -17 67 14 27 26 26 40 0z"/>
<path d="M545 613 c-20 -53 -24 -115 -10 -156 14 -43 21 -108 30 -273 5 -103
17 -144 41 -144 13 0 15 6 10 28 -4 15 -11 99 -15 187 -5 113 -12 171 -24 199
-20 45 -22 75 -12 134 8 43 -6 60 -20 25z"/>
<path d="M455 610 c-3 -5 -12 -34 -20 -65 -15 -56 -11 -106 10 -138 10 -15 9
-27 -5 -65 -24 -65 -35 -302 -14 -302 11 0 14 20 14 100 0 136 21 229 44 192
3 -5 6 -66 7 -138 2 -138 9 -174 35 -174 14 0 15 8 8 58 -4 31 -8 107 -8 167
-1 105 -2 112 -34 169 -33 57 -33 60 -23 121 6 34 11 67 11 73 0 15 -17 16
-25 2z"/>
<path d="M347 583 c-4 -5 -1 -24 5 -41 10 -24 9 -45 -1 -94 -14 -69 -21 -428
-8 -428 21 0 31 66 32 220 1 99 6 184 14 213 7 27 10 59 7 71 -8 32 -41 72
-49 59z"/>
</g>
</svg>
