<svg version="1.0" xmlns="http://www.w3.org/2000/svg"
 width="63.000000pt" height="84.000000pt" viewBox="0 0 63.000000 84.000000"
 preserveAspectRatio="xMidYMid meet">
<metadata>
Created by potrace 1.15, written by Peter Selinger 2001-2017
</metadata>
<g transform="translate(0.000000,84.000000) scale(0.100000,-0.100000)"
fill="#000000" stroke="none">
<path d="M254 779 c-3 -6 5 -22 20 -35 14 -14 26 -29 26 -33 0 -5 -36 -11 -81
-13 -54 -3 -84 -9 -90 -19 -15 -25 10 -33 96 -30 80 3 85 2 85 -18 0 -12 -6
-21 -12 -21 -7 0 -30 -5 -51 -11 -105 -29 -101 -129 5 -129 21 0 38 -4 38 -9
0 -5 -21 -27 -46 -47 -80 -66 -104 -111 -115 -217 -15 -137 -15 -152 -4 -156
18 -7 35 45 42 123 6 78 13 88 44 60 18 -16 49 -13 49 5 0 5 -14 19 -30 31
-17 12 -30 29 -30 39 0 17 49 68 113 118 15 11 27 26 27 32 0 17 41 39 85 46
36 6 43 3 69 -24 30 -31 66 -41 66 -19 0 7 -14 26 -30 43 -31 32 -31 32 4 56
39 26 52 47 37 62 -6 6 -22 0 -44 -17 -40 -31 -56 -32 -120 -9 -48 17 -74 44
-62 63 3 6 44 10 91 10 65 0 84 3 84 14 0 22 -29 28 -97 20 -62 -6 -62 -6 -79
28 -9 19 -29 42 -44 52 -33 19 -37 19 -46 5z m56 -238 c0 -21 -19 -31 -55 -31
-32 0 -42 20 -20 37 29 20 75 17 75 -6z m84 13 c22 -9 10 -24 -20 -24 -15 0
-24 6 -24 15 0 16 17 19 44 9z"/>
<path d="M77 504 c-4 -4 -7 -23 -7 -42 0 -19 -9 -45 -20 -59 -11 -14 -20 -30
-20 -34 0 -19 32 -8 55 18 22 27 24 27 42 10 21 -18 43 -23 43 -9 0 5 -11 19
-25 32 -14 13 -29 37 -33 54 -8 30 -22 42 -35 30z"/>
<path d="M450 415 c0 -2 10 -23 21 -45 16 -30 19 -44 11 -52 -8 -8 -23 1 -55
35 -42 45 -77 61 -77 34 0 -7 16 -28 35 -47 60 -58 36 -98 -27 -45 -53 45 -76
16 -29 -37 27 -30 34 -33 79 -31 49 2 51 1 57 -29 4 -17 10 -63 14 -102 5 -62
8 -71 26 -71 33 0 30 45 -11 211 -4 14 3 30 20 47 36 36 34 71 -6 108 -29 25
-58 38 -58 24z"/>
<path d="M258 163 c-20 -3 -28 -10 -28 -24 0 -21 28 -24 139 -13 63 7 82 26
39 38 -25 6 -105 6 -150 -1z"/>
</g>
</svg>
