<svg version="1.0" xmlns="http://www.w3.org/2000/svg"
 width="133.000000pt" height="221.000000pt" viewBox="0 0 133.000000 221.000000"
 preserveAspectRatio="xMidYMid meet">
<metadata>
Created by potrace 1.15, written by Peter Selinger 2001-2017
</metadata>
<g transform="translate(0.000000,221.000000) scale(0.100000,-0.100000)"
fill="#000000" stroke="none">
<path d="M184 2123 c3 -26 11 -52 16 -57 17 -17 11 -69 -10 -104 -13 -21 -36
-40 -61 -50 -52 -20 -45 -36 17 -40 77 -5 164 41 164 86 0 19 4 21 33 16 17
-3 45 -10 61 -15 16 -5 41 -9 55 -9 38 0 51 -17 51 -65 0 -45 -15 -64 -82
-104 -72 -43 -103 -121 -78 -196 13 -40 64 -95 88 -95 9 0 30 -5 48 -12 35
-12 44 -38 44 -127 0 -25 4 -58 9 -75 5 -17 15 -51 22 -76 7 -25 17 -51 22
-58 8 -10 13 -314 8 -442 -1 -22 -8 -28 -48 -38 -27 -8 -56 -18 -65 -23 -10
-5 -24 -9 -31 -9 -7 0 -29 -18 -50 -40 -41 -45 -52 -47 -95 -23 -38 22 -60 80
-42 112 13 24 7 51 -10 51 -34 0 -60 -76 -48 -137 6 -29 20 -52 48 -77 22 -20
47 -36 55 -36 8 0 15 -3 15 -7 1 -5 3 -38 6 -75 5 -53 1 -82 -17 -137 -12 -39
-28 -76 -35 -82 -8 -6 -14 -17 -14 -23 0 -6 -20 -30 -45 -54 -46 -43 -57 -72
-30 -72 8 0 15 4 15 9 0 4 27 27 60 50 74 52 136 127 146 176 1 6 2 31 3 58 1
44 2 46 20 35 16 -9 27 -8 61 7 47 21 106 72 96 82 -3 4 -33 -2 -65 -14 -52
-17 -63 -18 -91 -7 -31 13 -31 13 -14 46 24 47 91 111 132 125 43 15 49 12 57
-30 12 -54 64 -148 110 -196 24 -25 47 -43 50 -39 10 10 -49 128 -67 136 -5 2
-8 11 -8 21 0 9 -4 21 -9 27 -11 11 -18 80 -9 90 14 14 185 6 215 -9 59 -31
61 -43 12 -93 -24 -25 -54 -47 -66 -51 -27 -6 -30 -18 -7 -27 28 -11 49 -6 84
18 64 43 75 42 89 -6 29 -100 35 -115 58 -146 29 -39 71 -62 113 -62 17 0 40
-5 50 -10 30 -16 37 10 9 32 -46 37 -94 84 -97 96 -1 7 -16 26 -32 44 -45 47
-90 140 -78 162 5 9 12 50 15 89 5 72 5 72 -40 122 -51 57 -68 56 -38 -2 36
-67 25 -190 -11 -140 -14 19 -128 46 -193 47 -22 0 -50 3 -62 6 -25 7 -31 29
-10 37 8 3 7 9 -6 19 -16 12 -18 28 -17 108 1 85 9 190 14 190 1 0 20 -8 42
-18 21 -11 73 -25 114 -31 79 -14 113 -26 143 -50 15 -13 17 -12 17 12 0 33
-48 58 -162 87 -156 39 -187 80 -232 310 -9 41 -18 87 -22 103 -6 25 -4 27 24
27 33 0 52 -22 52 -58 0 -20 42 -62 63 -62 7 0 32 9 55 20 54 26 66 25 87 -6
17 -27 33 -47 79 -100 30 -36 56 -44 56 -19 0 23 -15 47 -78 130 -21 28 -50
68 -65 89 -24 37 -25 40 -9 52 9 8 27 14 40 14 23 0 27 2 97 38 60 31 58 46
-4 38 -28 -4 -58 -9 -66 -12 -10 -4 -21 8 -35 41 -11 26 -20 53 -20 61 0 8 -6
15 -12 15 -34 4 -104 -4 -112 -12 -18 -16 -31 -10 -89 44 -57 52 -57 52 -56
117 1 36 6 70 10 76 9 11 201 -6 244 -21 51 -18 106 -50 131 -76 36 -38 44
-37 44 8 0 29 -8 43 -40 75 -23 21 -56 44 -74 52 -39 16 -172 34 -306 41 -87
4 -132 10 -231 32 -40 9 -89 41 -89 59 0 19 -51 64 -73 64 -18 0 -19 -5 -13
-47z m326 -493 c0 -91 -2 -100 -19 -100 -23 0 -91 73 -91 98 0 32 59 102 86
102 24 0 24 -1 24 -100z m100 60 c0 -3 12 -18 26 -35 14 -16 33 -42 42 -57 9
-16 20 -28 24 -28 4 0 8 -7 8 -15 0 -16 -22 -23 -92 -27 -47 -3 -47 -3 -47 94
0 94 1 97 19 85 11 -6 20 -14 20 -17z m200 -66 c0 -12 5 -26 10 -29 16 -10 12
-21 -14 -33 -22 -10 -27 -7 -50 23 -31 40 -33 65 -7 65 11 0 23 5 26 10 10 17
35 -9 35 -36z m-40 -159 c13 -14 22 -26 19 -28 -2 -1 -20 -8 -39 -15 -30 -11
-37 -10 -47 5 -7 9 -13 27 -13 40 0 33 48 32 80 -2z"/>
<path d="M110 1444 c0 -11 54 -54 68 -54 6 0 12 -4 12 -10 0 -5 18 -10 40 -10
33 0 40 3 40 19 0 22 -10 31 -60 48 -37 13 -100 17 -100 7z"/>
<path d="M110 1163 c1 -14 84 -68 125 -80 22 -7 57 -13 78 -13 56 0 51 31 -10
57 -82 34 -194 55 -193 36z"/>
</g>
</svg>
