<svg version="1.0" xmlns="http://www.w3.org/2000/svg"
 width="115.000000pt" height="195.000000pt" viewBox="0 0 115.000000 195.000000"
 preserveAspectRatio="xMidYMid meet">
<metadata>
Created by potrace 1.15, written by Peter Selinger 2001-2017
</metadata>
<g transform="translate(0.000000,195.000000) scale(0.100000,-0.100000)"
fill="#000000" stroke="none">
<path d="M325 1838 c-50 -18 -80 -45 -100 -88 -16 -36 -17 -47 -6 -87 6 -26
19 -52 28 -58 10 -8 14 -20 10 -34 -3 -11 -1 -21 4 -21 5 0 9 -20 9 -43 0 -46
-21 -77 -52 -77 -21 0 -68 49 -68 70 0 22 -46 54 -56 39 -12 -20 18 -99 48
-124 45 -38 116 -35 157 6 17 17 31 41 31 53 0 35 46 76 84 75 33 -1 90 -16
68 -18 -8 -1 -11 -8 -8 -19 4 -13 -7 -32 -37 -63 -91 -96 -103 -129 -68 -197
24 -46 56 -65 117 -66 46 -1 46 -1 40 -61 -3 -33 -9 -80 -12 -105 -5 -38 -2
-48 18 -67 15 -14 39 -23 68 -25 45 -3 45 -3 53 -57 4 -30 5 -56 2 -59 -3 -3
-59 -6 -125 -6 -140 -1 -138 -3 -107 104 19 62 19 72 7 80 -22 14 -31 8 -45
-30 -34 -95 -39 -121 -27 -153 11 -29 10 -33 -23 -64 -20 -19 -41 -46 -47 -61
-7 -15 -15 -97 -19 -182 -4 -85 -12 -177 -19 -205 -19 -86 -23 -115 -12 -115
5 0 20 21 32 48 25 50 30 64 49 127 7 22 16 49 21 60 25 63 31 101 20 130 -9
22 -8 45 1 93 14 68 29 84 57 59 22 -20 133 -77 149 -77 23 0 14 30 -12 42
-14 6 -25 14 -25 17 0 4 -18 17 -40 31 -22 14 -40 28 -40 32 0 5 45 8 100 8
97 0 101 -1 110 -24 6 -16 5 -58 -2 -115 -11 -90 -11 -90 -72 -112 -34 -12
-68 -29 -76 -37 -13 -13 -6 -14 63 -9 42 3 77 4 77 2 0 -32 -64 -109 -101
-120 -10 -4 -19 -11 -19 -17 0 -11 78 -6 117 7 22 7 22 6 25 -101 2 -68 7
-109 14 -111 19 -6 24 88 20 359 -6 295 -10 280 82 266 66 -10 100 -24 124
-53 39 -45 6 -75 -82 -75 -53 0 -68 -10 -45 -30 13 -11 36 -11 135 2 24 3 25
1 20 -42 -10 -91 -3 -177 23 -275 15 -55 27 -121 27 -147 0 -27 4 -48 9 -48
13 0 29 138 17 150 -7 7 -6 10 3 10 10 0 12 21 7 98 -3 53 -8 136 -11 184 -3
47 -10 98 -16 111 -8 18 -8 30 0 45 23 44 9 143 -23 164 -21 14 -23 8 -13 -40
6 -27 7 -57 4 -67 -7 -16 -10 -15 -40 9 -44 36 -70 46 -151 59 -68 11 -68 11
-62 66 5 44 3 61 -11 81 -26 37 -45 49 -79 50 -46 0 -60 21 -45 69 6 21 11 59
11 85 0 39 3 46 19 46 11 0 23 -4 26 -10 3 -5 21 -10 38 -10 25 0 35 -6 45
-27 6 -15 12 -32 12 -38 0 -19 63 -70 100 -82 19 -7 62 -13 95 -13 75 -2 77
-2 94 9 12 8 13 12 1 26 -7 9 -14 33 -15 53 -1 20 -8 73 -14 117 -19 127 -27
218 -21 249 5 28 5 28 50 -11 72 -63 98 -64 67 -3 -20 38 -48 69 -82 90 -45
28 -167 50 -277 50 -72 0 -98 3 -98 13 0 8 -3 9 -8 1 -7 -11 -89 -11 -192 1
-56 6 -125 36 -147 64 -35 45 4 109 80 131 47 14 61 33 31 44 -20 8 -33 7 -69
-6z m307 -294 c44 -8 47 -17 55 -159 3 -55 6 -111 6 -125 2 -23 -1 -25 -50
-28 -48 -3 -53 -1 -57 20 -35 158 -45 276 -24 289 16 10 22 11 70 3z m244 -22
c6 -4 14 -31 17 -59 6 -53 6 -53 -73 -53 -89 0 -88 -2 -74 83 7 37 7 37 63 37
31 0 61 -4 67 -8z m-371 -139 c3 -16 10 -44 15 -64 6 -20 10 -48 10 -63 0 -24
-3 -26 -27 -20 -74 18 -100 44 -89 90 6 22 63 84 78 84 4 0 10 -12 13 -27z
m409 -70 c14 -87 21 -81 -74 -69 -19 2 -47 4 -62 5 -26 1 -28 4 -28 45 0 25 5
46 12 48 6 2 42 5 79 6 67 3 67 3 73 -35z m17 -148 c6 -74 6 -101 3 -106 -6
-10 -96 12 -122 29 -28 18 -53 64 -44 79 9 14 33 18 105 18 50 1 57 -1 58 -20z"/>
<path d="M655 1381 c-3 -5 -1 -12 5 -16 5 -3 10 1 10 9 0 18 -6 21 -15 7z"/>
<path d="M666 1327 c3 -10 9 -15 12 -12 3 3 0 11 -7 18 -10 9 -11 8 -5 -6z"/>
<path d="M118 1259 c-22 -12 -23 -35 -2 -43 24 -9 152 -7 158 2 3 5 -2 18 -10
30 -13 18 -25 22 -72 22 -31 0 -65 -5 -74 -11z"/>
<path d="M138 1063 c-26 -7 -29 -32 -8 -53 16 -16 34 -20 94 -20 81 0 106 6
106 24 0 23 -45 37 -155 51 -11 1 -27 0 -37 -2z"/>
</g>
</svg>
