<svg version="1.0" xmlns="http://www.w3.org/2000/svg"
 width="65.000000pt" height="90.000000pt" viewBox="0 0 65.000000 90.000000"
 preserveAspectRatio="xMidYMid meet">
<metadata>
Created by potrace 1.15, written by Peter Selinger 2001-2017
</metadata>
<g transform="translate(0.000000,90.000000) scale(0.100000,-0.100000)"
fill="#000000" stroke="none">
<path d="M150 725 c0 -8 14 -25 30 -37 23 -16 30 -29 28 -48 -3 -23 -8 -25
-58 -30 -86 -8 -59 -37 37 -39 45 -1 58 10 58 49 0 19 6 26 23 28 21 3 23 1
15 -20 -4 -13 -8 -49 -8 -80 0 -64 16 -89 59 -91 36 -3 36 -43 1 -59 -16 -7
-25 -19 -25 -35 0 -19 -11 -28 -55 -48 -35 -15 -59 -33 -67 -49 -14 -33 -28
-33 -28 -1 0 14 11 34 25 47 14 12 25 25 25 30 0 16 -28 8 -54 -17 -21 -20
-26 -33 -26 -73 0 -26 4 -52 10 -58 6 -6 6 -22 0 -44 -6 -19 -10 -50 -10 -68
0 -26 4 -33 18 -30 13 2 19 18 26 65 9 62 9 62 48 68 23 4 42 15 49 27 15 28
4 34 -37 19 -20 -7 -37 -11 -40 -8 -10 10 37 55 76 72 36 16 43 17 51 4 13
-21 10 -79 -7 -124 -26 -69 -27 -75 -11 -75 9 0 24 23 37 56 16 39 25 51 31
42 11 -17 2 -63 -22 -110 -32 -63 -18 -82 21 -28 42 59 44 174 4 220 -11 13
-10 18 7 28 16 10 25 10 48 -4 25 -15 61 -61 61 -78 0 -15 -30 -4 -54 21 -32
32 -45 24 -21 -14 29 -45 55 -63 81 -57 23 6 26 -1 37 -85 1 -8 8 -16 15 -19
10 -3 13 15 11 80 -1 45 2 99 6 118 5 28 2 41 -15 63 -12 15 -28 27 -37 27
-11 0 -13 -3 -5 -12 14 -17 27 -88 16 -88 -5 1 -30 20 -56 43 -35 31 -50 54
-59 89 -7 26 -10 50 -7 54 4 3 20 -3 36 -15 17 -12 40 -21 51 -21 12 0 33 -7
47 -16 35 -23 38 -13 9 26 -31 42 -31 47 0 72 27 21 32 47 14 80 -9 17 -19 19
-62 16 -47 -3 -52 -1 -55 18 -4 28 39 38 77 18 48 -26 63 -16 36 23 -20 29
-38 33 -240 49 -59 5 -100 14 -120 26 -36 22 -45 23 -45 3z m205 -152 c-4 -43
-9 -80 -12 -83 -2 -3 -11 4 -20 15 -18 25 -13 123 8 136 28 17 31 8 24 -68z
m97 -59 c2 -14 -4 -20 -26 -22 -46 -6 -56 26 -34 103 11 40 11 40 34 -11 12
-29 24 -60 26 -70z m63 10 c-17 -12 -21 -12 -35 2 -13 14 -13 17 5 30 17 12
21 12 35 -2 13 -14 13 -17 -5 -30z m-25 -80 c0 -11 -5 -14 -16 -10 -9 3 -20 6
-25 6 -5 0 -9 5 -9 10 0 6 11 10 25 10 16 0 25 -6 25 -16z m-105 -83 c6 -10
-21 -41 -36 -41 -10 0 -12 33 -2 43 9 10 31 9 38 -2z"/>
<path d="M127 510 c-47 -9 -55 -17 -35 -37 13 -12 27 -14 62 -9 51 8 64 20 46
41 -13 16 -16 16 -73 5z"/>
<path d="M99 429 c-7 -4 -9 -15 -5 -24 5 -14 16 -17 61 -13 63 5 73 11 55 33
-13 16 -88 19 -111 4z"/>
</g>
</svg>
