<svg version="1.0" xmlns="http://www.w3.org/2000/svg"
 width="123.000000pt" height="155.000000pt" viewBox="0 0 123.000000 155.000000"
 preserveAspectRatio="xMidYMid meet">
<metadata>
Created by potrace 1.15, written by Peter Selinger 2001-2017
</metadata>
<g transform="translate(0.000000,155.000000) scale(0.100000,-0.100000)"
fill="#000000" stroke="none">
<path d="M270 1432 c-28 -10 -40 -31 -40 -70 0 -49 21 -92 64 -130 33 -29 34
-31 25 -78 -19 -98 13 -151 118 -195 32 -14 32 -14 31 -144 -2 -131 -2 -131
30 -172 32 -39 96 -71 107 -52 3 4 -7 21 -23 36 -33 32 -52 80 -52 129 0 30
13 46 22 27 11 -26 132 -83 145 -69 7 7 -16 36 -29 36 -5 0 -23 16 -41 36 -18
20 -45 51 -60 67 -16 18 -27 40 -25 51 3 19 11 21 84 24 80 3 80 3 93 -63 7
-36 17 -68 22 -71 5 -3 9 -18 9 -33 0 -15 6 -36 14 -46 13 -18 15 -15 21 35 4
30 5 82 3 115 -3 58 -2 60 22 61 14 1 42 3 64 5 30 3 41 0 50 -16 6 -11 19
-27 29 -36 22 -21 22 -47 0 -71 -21 -23 -43 -84 -43 -119 0 -31 20 -92 33
-100 5 -4 10 -27 11 -53 1 -25 5 -49 9 -52 4 -4 7 -27 7 -51 0 -35 -3 -43 -18
-43 -26 0 -62 28 -62 49 0 21 -60 71 -84 71 -12 0 -16 -10 -16 -39 0 -46 37
-90 92 -110 87 -33 80 -19 73 -135 -6 -100 1 -135 22 -104 16 25 33 84 33 114
0 46 27 103 53 113 25 10 69 55 86 88 13 26 -1 73 -23 73 -7 0 -19 -13 -26
-29 -12 -31 -57 -78 -65 -69 -3 2 4 23 15 46 11 22 20 51 20 63 0 12 9 38 19
58 59 112 64 171 21 231 -25 35 -25 55 -2 72 10 7 28 33 40 58 18 39 20 51 11
90 -6 25 -14 49 -20 54 -5 6 -9 18 -9 28 0 10 -4 18 -10 18 -5 0 -10 7 -10 15
0 8 -9 19 -20 25 -11 6 -20 15 -20 21 0 16 -27 39 -44 39 -9 0 -16 -6 -16 -13
0 -7 -8 -22 -17 -33 -45 -50 -84 -117 -85 -144 -1 -38 -5 -40 -73 -46 -62 -5
-69 2 -78 73 -6 50 21 103 53 103 11 0 20 4 20 10 0 5 28 10 61 12 45 2 65 8
73 20 5 9 7 21 2 25 -15 15 -151 20 -286 11 -164 -11 -245 -4 -234 20 4 9 12
32 18 50 6 17 14 32 18 32 5 0 8 7 8 16 0 17 -23 44 -38 44 -10 0 -74 -93 -86
-124 -6 -17 -9 -18 -20 -5 -21 23 -36 68 -26 74 6 4 10 19 10 34 0 30 -32 52
-60 43z m235 -280 c-3 -9 -9 -39 -12 -67 -7 -77 -8 -78 -40 -61 -40 21 -63 52
-63 85 0 53 7 60 67 60 47 0 54 -3 48 -17z m174 -34 c6 -29 12 -69 13 -88 3
-35 3 -35 -69 -38 -73 -3 -73 -3 -73 41 0 52 17 107 39 124 9 7 30 13 48 13
30 0 32 -2 42 -52z m376 -48 c22 -43 20 -91 -5 -97 -11 -3 -20 -10 -20 -15 0
-5 5 -6 10 -3 16 10 12 -15 -6 -32 -14 -14 -16 -14 -29 3 -17 24 -28 94 -19
120 9 23 34 54 45 54 5 0 15 -13 24 -30z m-5 -339 c0 -56 -25 -124 -43 -118
-8 2 -12 27 -12 69 0 51 4 71 19 87 26 29 36 18 36 -38z"/>
<path d="M212 1130 c-12 -12 -22 -29 -22 -40 0 -10 -4 -22 -10 -25 -5 -3 -24
-36 -41 -73 -17 -37 -35 -75 -40 -84 -14 -27 -11 -38 10 -38 20 0 81 62 81 83
0 7 9 23 20 37 11 14 20 33 20 43 0 9 3 17 8 17 9 0 32 49 32 71 0 9 -7 20
-16 23 -20 8 -17 9 -42 -14z"/>
<path d="M254 873 c-34 -32 -84 -107 -84 -126 0 -7 -4 -17 -9 -22 -5 -6 -12
-20 -16 -32 -5 -20 -3 -23 19 -23 14 0 26 5 26 10 0 6 7 10 16 10 20 0 64 49
64 70 0 9 13 31 29 51 28 34 35 50 32 77 -2 22 -46 13 -77 -15z"/>
<path d="M431 597 c-7 -10 -8 -32 0 -76 5 -35 10 -66 11 -70 2 -17 -5 -19 -32
-7 -19 8 -43 33 -65 70 -19 32 -35 62 -35 66 0 4 -9 10 -20 13 -22 6 -27 -19
-11 -51 5 -9 15 -37 22 -62 15 -53 46 -83 103 -101 22 -7 46 -16 52 -21 6 -4
16 -46 23 -92 12 -89 55 -200 74 -193 15 5 22 134 8 150 -5 7 -11 39 -13 71
-3 59 -3 59 32 70 50 16 63 25 98 77 38 56 51 99 29 99 -8 0 -20 7 -27 15 -17
21 -30 19 -30 -4 0 -11 -18 -42 -40 -70 -52 -66 -84 -70 -100 -12 -5 21 -7 53
-4 70 11 52 -44 94 -75 58z"/>
</g>
</svg>
