<svg version="1.0" xmlns="http://www.w3.org/2000/svg"
 width="135.000000pt" height="173.000000pt" viewBox="0 0 135.000000 173.000000"
 preserveAspectRatio="xMidYMid meet">
<metadata>
Created by potrace 1.15, written by Peter Selinger 2001-2017
</metadata>
<g transform="translate(0.000000,173.000000) scale(0.100000,-0.100000)"
fill="#000000" stroke="none">
<path d="M395 1650 c-91 -11 -179 -30 -262 -55 -13 -4 -23 -11 -23 -15 0 -14
61 -17 139 -9 163 19 268 22 276 10 18 -30 -49 -196 -105 -261 -17 -19 -30
-38 -30 -42 0 -4 -13 -29 -28 -55 -16 -26 -34 -70 -42 -98 -7 -27 -18 -56 -24
-63 -5 -8 -10 -55 -11 -105 0 -82 3 -96 25 -127 38 -55 71 -79 119 -86 51 -8
173 1 216 15 56 18 138 41 140 39 17 -32 25 -71 25 -124 0 -62 -4 -79 -75
-294 -21 -63 -31 -170 -16 -170 6 0 11 -8 11 -18 0 -19 50 -71 86 -90 10 -5
51 -17 89 -26 39 -10 78 -20 88 -22 11 -4 17 0 17 10 0 14 -98 66 -126 66 -8
0 -14 5 -14 10 0 6 -6 10 -12 10 -23 0 -63 44 -77 83 -19 57 5 159 69 287 31
61 32 68 26 146 -3 45 -9 89 -12 98 -5 13 1 13 48 -2 29 -9 55 -19 58 -22 9
-9 76 -30 98 -30 12 0 22 -4 22 -10 0 -5 14 -10 30 -10 34 0 40 22 14 51 -20
22 -44 157 -44 247 0 57 3 65 33 96 60 62 87 96 87 111 0 31 -34 13 -91 -47
-37 -41 -61 -59 -66 -52 -4 6 -28 14 -53 18 -25 3 -70 11 -100 16 -30 6 -70
13 -88 17 -18 3 -35 9 -38 14 -3 5 -13 9 -22 9 -13 0 -36 37 -79 123 -79 156
-95 206 -85 254 8 38 8 38 78 41 79 3 76 5 120 -78 16 -30 32 -57 35 -60 3 -3
11 -15 18 -27 6 -12 25 -30 41 -40 17 -9 30 -22 30 -28 0 -6 8 -12 18 -13 77
-8 107 -8 147 -1 44 8 75 27 75 46 0 5 9 19 20 31 27 29 40 65 40 112 0 87
-24 93 -39 9 -13 -78 -29 -101 -85 -128 -51 -23 -65 -25 -98 -12 -13 5 -35 12
-50 15 -20 5 -36 21 -58 59 -32 56 -38 92 -16 100 7 3 44 3 82 0 51 -3 74 -1
88 10 19 14 18 15 -15 30 -62 28 -495 54 -624 37z m171 -267 c4 -16 13 -38 21
-50 15 -22 11 -75 -8 -120 -38 -94 -47 -122 -59 -187 -5 -33 -10 -81 -10 -106
0 -26 -5 -61 -10 -77 -11 -30 -12 -30 -58 -21 -26 4 -57 18 -70 31 -33 33 -40
116 -17 193 18 58 91 214 105 224 4 3 9 10 11 15 10 25 75 124 81 125 4 0 11
-12 14 -27z m104 -235 c0 -9 4 -18 8 -20 10 -4 70 -193 74 -233 2 -24 -2 -32
-27 -44 -40 -20 -127 -31 -142 -19 -9 7 -13 38 -13 87 0 72 22 169 60 266 12
30 12 30 25 5 8 -14 14 -32 15 -42z m225 -78 c82 -11 115 -20 115 -33 0 -23
-146 -127 -179 -127 -5 0 -14 19 -19 43 -6 23 -17 64 -25 91 -16 48 -16 48 16
41 18 -3 59 -10 92 -15z m139 -162 c3 -35 9 -80 12 -100 8 -48 1 -48 -98 -2
-78 37 -78 37 -55 56 72 60 100 84 110 95 20 21 24 15 31 -49z"/>
<path d="M1190 523 c-1 -50 -6 -84 -14 -96 -13 -16 -16 -14 -44 30 -17 26 -43
62 -56 78 -23 26 -26 27 -26 10 0 -23 24 -95 45 -136 8 -15 15 -30 15 -32 0
-9 -128 -27 -144 -21 -25 10 -19 -12 9 -30 38 -25 76 -29 122 -13 42 14 42 14
95 -65 57 -89 105 -144 115 -134 7 6 -16 84 -30 101 -4 6 -21 31 -38 58 -33
50 -34 73 -10 162 11 43 5 132 -12 153 -20 26 -27 10 -27 -65z"/>
<path d="M320 505 c0 -2 6 -19 14 -37 8 -18 21 -49 30 -68 8 -20 29 -48 45
-63 36 -32 37 -35 14 -67 -21 -30 -73 -131 -73 -142 0 -5 10 -3 23 4 12 7 25
12 29 13 3 0 17 14 29 30 13 17 31 37 40 45 9 8 18 24 20 35 2 12 23 29 48 42
66 33 121 72 121 84 0 7 -9 9 -22 5 -13 -4 -40 -10 -60 -13 -30 -4 -38 -2 -38
10 0 9 5 19 11 23 22 13 -5 83 -32 84 -3 0 -11 -22 -18 -50 -7 -27 -17 -52
-22 -55 -13 -8 -88 37 -94 57 -12 35 -65 87 -65 63z"/>
</g>
</svg>
