<svg version="1.0" xmlns="http://www.w3.org/2000/svg"
 width="67.000000pt" height="86.000000pt" viewBox="0 0 67.000000 86.000000"
 preserveAspectRatio="xMidYMid meet">
<metadata>
Created by potrace 1.15, written by Peter Selinger 2001-2017
</metadata>
<g transform="translate(0.000000,86.000000) scale(0.100000,-0.100000)"
fill="#000000" stroke="none">
<path d="M97 724 c-4 -4 -7 -31 -7 -59 0 -62 12 -75 75 -83 65 -7 55 -22 -14
-22 -33 0 -62 -4 -65 -9 -9 -14 4 -41 20 -41 17 0 17 -2 3 -34 -9 -18 -9 -33
0 -56 8 -25 7 -38 -4 -60 -19 -37 -19 -59 1 -81 18 -20 20 -14 -32 -87 -22
-30 -6 -49 26 -32 22 12 23 11 18 -28 -3 -22 -2 -46 3 -53 13 -22 31 3 36 55
6 50 10 54 28 29 16 -22 38 -7 29 20 -4 12 -16 34 -27 48 -18 25 -18 29 -3 50
9 13 16 30 16 39 0 8 14 26 30 40 24 20 31 34 33 67 2 48 -15 59 -24 15 -7
-34 -33 -75 -42 -65 -4 3 -4 23 -1 44 5 27 2 46 -10 64 -16 25 -16 25 46 25
63 0 63 0 56 -87 -3 -49 -7 -94 -7 -101 -1 -7 -21 -22 -46 -34 -50 -24 -60
-44 -17 -34 49 12 56 11 60 -6 2 -11 -3 -18 -12 -18 -9 0 -20 -20 -31 -57 -9
-32 -18 -66 -21 -75 -4 -12 0 -18 10 -18 21 0 29 16 42 80 11 55 11 55 13 -22
1 -59 4 -78 15 -78 16 0 26 51 26 143 0 63 2 68 25 77 30 12 39 31 31 65 -5
18 -13 25 -30 25 -23 0 -25 4 -28 70 -3 60 0 71 15 76 37 12 10 54 -35 54 -32
0 -43 18 -34 55 4 16 13 25 25 25 46 0 70 31 35 44 -26 10 -162 7 -169 -4 -9
-15 14 -40 36 -40 10 0 21 -5 24 -11 5 -7 -8 -9 -37 -7 -43 3 -43 3 -48 47 -5
42 -18 60 -33 45z m70 -270 c1 -5 -2 -16 -7 -24 -12 -20 -35 2 -26 25 6 17 27
16 33 -1z m-4 -124 c-3 -11 -9 -20 -14 -20 -10 0 -12 33 -3 43 12 12 22 -3 17
-23z m175 -2 c-6 -18 -28 -21 -28 -4 0 9 7 16 16 16 9 0 14 -5 12 -12z"/>
<path d="M511 721 c-7 -5 -16 -35 -20 -67 -6 -58 -6 -58 -31 -21 -14 20 -28
37 -32 37 -4 0 -20 -18 -34 -40 -28 -42 -26 -63 4 -42 32 23 41 23 61 3 19
-19 29 -61 16 -61 -3 0 -18 11 -32 25 -30 27 -38 24 -66 -24 -16 -27 -16 -31
-2 -31 8 0 24 6 35 12 16 10 23 10 37 -4 16 -17 16 -20 0 -53 -21 -45 -22 -83
-1 -106 14 -16 14 -20 -1 -49 -16 -30 -16 -35 0 -64 17 -31 17 -34 -4 -73 -11
-23 -25 -44 -31 -48 -14 -9 -13 -35 2 -35 7 0 25 12 41 28 29 27 29 27 25 -28
-2 -44 0 -55 12 -55 11 0 16 15 18 62 2 35 7 63 12 63 5 0 25 -20 46 -45 33
-41 64 -58 64 -36 0 15 -51 85 -81 112 -30 25 -30 25 -4 49 28 26 33 71 10 90
-20 17 -19 33 5 55 27 24 25 34 -10 77 -27 33 -29 38 -14 52 17 18 50 21 59 6
8 -13 45 -13 45 -1 0 12 -49 51 -65 51 -6 0 -20 -9 -30 -20 -13 -15 -22 -17
-29 -10 -8 8 -1 19 24 40 32 26 37 28 57 14 49 -31 61 -1 13 34 -34 26 -48 28
-56 7 -10 -24 -21 -17 -28 17 -4 22 -1 37 10 49 24 27 6 49 -25 30z m23 -287
c8 -20 -24 -63 -45 -64 -16 0 -29 19 -29 41 0 5 9 18 20 29 21 21 45 18 54 -6z
m-6 -138 c6 -31 -43 -50 -54 -21 -8 20 15 47 35 43 9 -2 17 -12 19 -22z"/>
<path d="M344 469 c-9 -15 26 -89 43 -89 17 0 17 6 -8 57 -23 47 -24 48 -35
32z"/>
<path d="M346 253 c-3 -4 -6 -37 -6 -75 0 -54 3 -68 15 -68 18 0 17 -2 20 77
2 43 -2 63 -10 67 -7 2 -16 2 -19 -1z"/>
</g>
</svg>
