<svg version="1.0" xmlns="http://www.w3.org/2000/svg"
 width="59.000000pt" height="119.000000pt" viewBox="0 0 59.000000 119.000000"
 preserveAspectRatio="xMidYMid meet">
<metadata>
Created by potrace 1.15, written by Peter Selinger 2001-2017
</metadata>
<g transform="translate(0.000000,119.000000) scale(0.100000,-0.100000)"
fill="#000000" stroke="none">
<path d="M268 936 c-24 -24 -63 -67 -88 -96 -25 -30 -55 -64 -67 -77 -13 -13
-23 -26 -23 -28 0 -3 16 -5 35 -5 30 0 40 7 72 49 38 50 56 60 68 40 8 -12
-13 -69 -25 -69 -4 0 -18 -23 -30 -52 -21 -49 -22 -60 -14 -173 5 -66 8 -162
9 -213 0 -65 4 -92 12 -92 19 0 33 34 33 78 0 45 8 56 27 41 23 -19 12 -118
-20 -186 -22 -48 23 -42 51 7 20 36 29 37 37 8 6 -23 21 -60 34 -87 4 -8 13
-17 21 -19 13 -5 13 0 -5 83 -4 17 -10 39 -15 50 -22 54 -29 86 -34 160 -6 94
-10 106 -36 123 -19 11 -20 10 -20 -28 0 -22 -4 -40 -9 -40 -21 0 -30 31 -31
105 -2 115 -1 135 8 135 17 0 96 -153 119 -232 10 -32 20 -58 24 -58 26 0 8
112 -31 197 -11 24 -20 46 -20 49 0 4 -16 29 -35 55 -19 27 -35 53 -35 57 0 4
13 15 29 25 28 16 29 16 52 -11 14 -15 32 -43 41 -62 48 -104 67 -152 88 -222
13 -43 27 -78 32 -78 11 0 10 63 -1 92 -9 24 -20 60 -42 141 -7 26 -17 47 -21
47 -4 0 -8 7 -8 15 0 15 -25 56 -61 100 -9 11 -22 49 -29 85 -16 87 -30 130
-41 130 -4 0 -28 -20 -51 -44z m45 -49 c3 -8 1 -20 -4 -28 -11 -19 -34 3 -26
25 8 20 23 21 30 3z"/>
</g>
</svg>
