<svg version="1.0" xmlns="http://www.w3.org/2000/svg"
 width="47.000000pt" height="103.000000pt" viewBox="0 0 47.000000 103.000000"
 preserveAspectRatio="xMidYMid meet">
<metadata>
Created by potrace 1.15, written by Peter Selinger 2001-2017
</metadata>
<g transform="translate(0.000000,103.000000) scale(0.100000,-0.100000)"
fill="#000000" stroke="none">
<path d="M157 815 c-28 -84 -28 -85 -11 -138 16 -53 16 -53 -20 -127 -20 -41
-36 -81 -36 -87 0 -29 19 -9 50 52 19 37 37 68 40 70 9 5 25 -26 43 -85 8 -24
20 -46 26 -48 15 -5 5 97 -14 142 -14 34 -11 64 8 77 12 9 12 95 0 122 -6 12
-16 41 -23 65 -7 23 -18 42 -24 42 -6 0 -24 -38 -39 -85z m56 -46 c8 -32 -3
-79 -19 -79 -19 0 -29 47 -15 76 13 30 27 31 34 3z"/>
<path d="M159 469 c-7 -20 -6 -111 1 -137 7 -25 4 -44 -11 -78 -13 -33 -19
-67 -18 -122 1 -112 13 -132 27 -44 7 39 12 83 12 99 0 15 7 36 14 46 12 15
18 16 40 6 14 -7 26 -16 26 -21 0 -4 9 -8 20 -8 29 0 25 22 -10 58 -33 35 -38
65 -16 88 19 19 28 18 55 -7 31 -30 38 -16 10 23 -12 18 -23 34 -24 35 -3 6
-55 -22 -55 -29 0 -5 -7 -8 -15 -8 -9 0 -17 14 -21 40 -4 22 -13 45 -20 51 -8
6 -15 10 -15 8z"/>
</g>
</svg>
