<svg version="1.0" xmlns="http://www.w3.org/2000/svg"
 width="63.000000pt" height="71.000000pt" viewBox="0 0 63.000000 71.000000"
 preserveAspectRatio="xMidYMid meet">
<metadata>
Created by potrace 1.15, written by Peter Selinger 2001-2017
</metadata>
<g transform="translate(0.000000,71.000000) scale(0.100000,-0.100000)"
fill="#000000" stroke="none">
<path d="M280 520 c-8 -6 -40 -9 -70 -9 -68 2 -94 -13 -120 -68 -27 -57 -26
-93 0 -93 11 0 20 4 20 8 0 11 66 42 88 42 10 0 25 -9 35 -20 9 -11 31 -23 48
-27 31 -6 31 -6 27 -149 -2 -79 -1 -141 3 -138 5 2 16 31 26 64 13 44 22 60
35 60 14 0 18 -8 18 -35 0 -19 -5 -44 -12 -55 -7 -10 -9 -22 -5 -26 8 -9 44
30 52 57 9 26 19 24 34 -8 25 -53 27 -57 39 -61 15 -5 16 52 1 81 -6 12 -22
34 -35 48 -14 14 -27 36 -29 49 -5 27 -14 38 -47 54 -29 15 -35 58 -12 93 9
15 20 38 24 52 7 27 25 34 123 48 20 3 40 9 43 14 7 12 -73 11 -120 -2 -33 -9
-41 -8 -60 10 -24 22 -80 28 -106 11z m78 -37 c6 -12 5 -31 -3 -53 -15 -44
-55 -53 -89 -20 -25 22 -65 29 -109 17 -20 -6 -27 -4 -27 7 0 35 81 61 107 35
9 -9 19 -6 39 10 32 26 70 27 82 4z m32 -243 c0 -5 -4 -10 -9 -10 -6 0 -13 5
-16 10 -3 6 1 10 9 10 9 0 16 -4 16 -10z"/>
</g>
</svg>
