<svg version="1.0" xmlns="http://www.w3.org/2000/svg"
 width="70.000000pt" height="90.000000pt" viewBox="0 0 70.000000 90.000000"
 preserveAspectRatio="xMidYMid meet">
<metadata>
Created by potrace 1.15, written by Peter Selinger 2001-2017
</metadata>
<g transform="translate(0.000000,90.000000) scale(0.100000,-0.100000)"
fill="#000000" stroke="none">
<path d="M350 740 c-11 -7 -15 -30 -15 -87 0 -78 0 -78 -56 -78 -68 0 -89 15
-89 62 0 19 -5 43 -10 54 -12 21 -50 26 -50 7 1 -20 27 -125 35 -137 17 -28
73 -39 172 -34 80 4 108 2 153 -14 54 -19 55 -20 75 -81 14 -45 25 -62 38 -62
25 0 22 51 -8 114 -29 62 -62 82 -148 91 -86 10 -68 29 32 35 72 4 85 8 102
29 27 34 22 85 -8 89 -17 3 -23 -2 -23 -15 0 -36 -23 -51 -87 -58 -62 -7 -62
-7 -69 34 -7 47 -23 64 -44 51z"/>
<path d="M422 497 c-4 -7 -7 -49 -4 -95 4 -83 4 -83 57 -106 54 -24 70 -49 53
-80 -8 -15 -12 -14 -39 8 -29 25 -94 44 -106 33 -3 -4 9 -14 27 -24 56 -31 74
-49 67 -66 -8 -21 -53 -22 -87 -2 -35 20 -50 18 -50 -5 0 -43 89 -64 152 -36
14 7 19 -2 29 -53 7 -34 18 -60 24 -58 15 5 18 56 6 97 -9 31 -7 43 9 75 36
70 25 100 -49 135 -39 18 -51 29 -51 46 0 19 6 23 37 26 27 2 39 8 41 21 3 13
-4 17 -32 17 -32 0 -36 3 -42 34 -6 37 -27 53 -42 33z"/>
<path d="M113 494 c-22 -9 -14 -25 17 -35 40 -15 38 -35 -10 -84 -49 -50 -63
-104 -35 -135 10 -11 23 -20 30 -20 21 0 46 -37 51 -76 7 -56 47 -128 73 -132
26 -4 27 14 4 63 -16 34 -16 36 5 65 12 16 22 34 22 40 0 6 15 20 33 30 62 37
77 122 32 174 -31 36 -31 40 2 70 37 34 20 55 -26 32 -52 -28 -57 -49 -22
-111 33 -58 39 -93 19 -113 -19 -19 -28 -14 -28 17 0 43 -17 81 -36 81 -13 0
-15 -5 -8 -27 12 -38 7 -132 -7 -150 -21 -24 -30 6 -27 87 2 61 0 75 -12 75
-10 0 -18 -17 -25 -52 -9 -45 -12 -51 -27 -42 -32 18 -21 58 27 110 46 50 56
81 33 112 -14 18 -64 30 -85 21z"/>
</g>
</svg>
