<svg version="1.0" xmlns="http://www.w3.org/2000/svg"
 width="63.000000pt" height="77.000000pt" viewBox="0 0 63.000000 77.000000"
 preserveAspectRatio="xMidYMid meet">
<metadata>
Created by potrace 1.15, written by Peter Selinger 2001-2017
</metadata>
<g transform="translate(0.000000,77.000000) scale(0.100000,-0.100000)"
fill="#000000" stroke="none">
<path d="M165 707 c6 -23 -11 -101 -38 -172 -24 -64 -54 -147 -66 -186 -15
-47 -14 -154 2 -182 23 -41 104 -117 126 -117 28 0 27 8 -10 39 -31 27 -31 27
0 60 48 51 39 68 -15 29 -38 -27 -47 -30 -54 -18 -11 17 -13 103 -4 137 8 29
25 34 114 38 41 2 107 6 145 10 189 16 184 16 195 -5 5 -10 10 -34 10 -53 0
-30 -4 -37 -31 -46 -18 -6 -40 -11 -50 -11 -11 0 -19 -7 -19 -15 0 -16 6 -18
63 -15 38 2 38 2 16 -42 -12 -24 -30 -50 -40 -59 -21 -18 -26 -59 -8 -59 22 0
86 79 98 122 7 24 16 55 20 70 10 30 -18 145 -58 243 -5 11 -13 32 -19 46 -6
15 -14 59 -18 98 -4 44 -13 80 -24 93 -19 25 -5 33 -113 -70 -31 -29 -50 -41
-59 -36 -29 18 -125 94 -138 108 -18 23 -31 19 -25 -7z m305 -115 c0 -32 -5
-41 -25 -50 -30 -14 -75 -16 -75 -3 0 10 39 62 60 78 28 23 40 15 40 -25z
m-194 -19 c19 -20 34 -40 34 -44 0 -19 -94 -27 -105 -9 -8 13 16 90 28 90 5 0
25 -17 43 -37z m237 -116 c5 -16 7 -31 4 -33 -5 -5 -97 -22 -139 -27 -10 -1
-18 -8 -18 -17 0 -12 -2 -13 -9 -1 -6 9 -35 14 -97 16 -111 3 -104 1 -104 25
0 29 59 50 144 51 39 0 80 4 91 9 11 5 42 8 69 7 45 -2 50 -5 59 -30z"/>
</g>
</svg>
