<svg version="1.0" xmlns="http://www.w3.org/2000/svg"
 width="43.000000pt" height="59.000000pt" viewBox="0 0 43.000000 59.000000"
 preserveAspectRatio="xMidYMid meet">
<metadata>
Created by potrace 1.15, written by Peter Selinger 2001-2017
</metadata>
<g transform="translate(0.000000,59.000000) scale(0.100000,-0.100000)"
fill="#000000" stroke="none">
<path d="M162 522 c-7 -2 -12 -15 -12 -28 0 -13 -4 -24 -10 -24 -5 0 -10 -11
-10 -24 0 -14 -4 -28 -10 -31 -5 -3 -10 -15 -10 -26 0 -10 -4 -27 -9 -37 -20
-37 -51 -150 -51 -184 0 -39 29 -83 60 -93 13 -4 20 -15 20 -30 0 -13 4 -26 9
-29 21 -13 81 91 66 114 -5 8 -22 10 -50 6 -34 -6 -44 -4 -49 9 -6 17 37 40
59 31 6 -2 35 0 65 6 29 5 69 7 87 3 28 -5 34 -10 31 -28 -3 -20 -10 -22 -64
-25 -54 -3 -63 -6 -68 -25 -3 -12 -1 -23 4 -25 6 -2 10 -17 10 -34 0 -34 19
-34 34 -1 6 13 27 25 57 32 49 13 49 13 78 103 25 77 13 164 -36 271 -18 39
-32 57 -45 57 -10 0 -18 -7 -18 -17 -1 -17 -38 -70 -43 -62 -18 29 -87 94 -95
91z m184 -169 c-5 -12 -66 -20 -66 -9 0 3 10 21 21 41 21 36 21 36 36 9 7 -15
11 -34 9 -41z m-146 33 c0 -2 2 -10 5 -18 4 -9 -3 -14 -19 -16 -19 -1 -23 2
-19 18 4 16 33 30 33 16z m84 -96 c59 0 91 -17 81 -43 -6 -15 -20 -16 -109
-13 -140 5 -136 5 -136 16 0 12 69 42 81 34 5 -3 12 3 16 12 4 11 8 13 11 6 2
-7 24 -12 56 -12z"/>
</g>
</svg>
