<svg version="1.0" xmlns="http://www.w3.org/2000/svg"
 width="65.000000pt" height="87.000000pt" viewBox="0 0 65.000000 87.000000"
 preserveAspectRatio="xMidYMid meet">
<metadata>
Created by potrace 1.15, written by Peter Selinger 2001-2017
</metadata>
<g transform="translate(0.000000,87.000000) scale(0.100000,-0.100000)"
fill="#000000" stroke="none">
<path d="M435 626 c-12 -17 -14 -35 -9 -61 6 -34 5 -37 -17 -33 -19 2 -25 10
-27 36 -2 19 -9 32 -17 32 -19 0 -30 -46 -19 -79 7 -21 17 -27 46 -29 29 -2
37 -8 40 -27 6 -28 -4 -30 -187 -40 -144 -8 -145 -9 -145 -154 0 -70 4 -111
12 -119 7 -7 36 -12 65 -12 39 0 55 -4 59 -15 11 -28 -15 -43 -86 -50 -70 -7
-84 -17 -58 -43 7 -7 40 -12 79 -12 88 0 123 24 117 82 -3 33 0 40 19 44 32 9
43 -3 43 -46 0 -62 19 -73 109 -65 72 7 95 17 87 40 -1 6 -30 9 -67 7 -81 -3
-96 5 -78 44 13 27 19 29 76 32 77 4 77 5 68 153 -8 118 -14 129 -70 129 -25
0 -25 0 -10 30 12 23 22 30 45 30 48 0 73 43 54 94 -9 24 -34 19 -34 -7 0 -33
-23 -60 -46 -55 -15 3 -19 11 -17 38 1 19 9 39 17 46 24 17 19 34 -9 34 -15 0
-31 -9 -40 -24z m45 -251 c0 -23 -4 -25 -47 -25 -27 0 -99 -3 -161 -7 -114 -6
-114 -6 -110 18 3 23 8 24 83 30 44 3 115 6 158 7 76 2 77 2 77 -23z m0 -65
c31 -19 -8 -29 -158 -41 -105 -8 -157 -8 -164 -1 -20 20 4 32 65 33 34 1 91 5
127 9 97 11 114 11 130 0z m8 -82 c5 -26 -40 -40 -143 -42 -124 -4 -195 4
-195 20 0 22 17 26 153 34 170 10 181 9 185 -12z"/>
<path d="M184 615 c-4 -8 -3 -30 0 -49 5 -28 3 -34 -13 -39 -23 -6 -36 7 -45
46 -4 18 -13 27 -26 27 -17 0 -20 -7 -20 -43 0 -54 13 -67 66 -67 33 0 43 -4
47 -20 7 -28 31 -25 45 5 8 17 20 25 37 25 30 0 48 36 43 84 -4 41 -25 44 -33
5 -9 -42 -33 -68 -45 -49 -4 7 -11 30 -14 51 -6 40 -31 54 -42 24z"/>
</g>
</svg>
