<svg version="1.0" xmlns="http://www.w3.org/2000/svg"
 width="67.000000pt" height="127.000000pt" viewBox="0 0 67.000000 127.000000"
 preserveAspectRatio="xMidYMid meet">
<metadata>
Created by potrace 1.15, written by Peter Selinger 2001-2017
</metadata>
<g transform="translate(0.000000,127.000000) scale(0.100000,-0.100000)"
fill="#000000" stroke="none">
<path d="M467 1231 c-4 -16 -4 -52 0 -79 8 -71 -3 -122 -27 -122 -32 0 -47 34
-43 98 3 64 -9 98 -28 72 -14 -21 -4 -181 13 -192 7 -4 24 -11 38 -14 47 -11
50 -13 50 -43 0 -16 6 -31 14 -34 20 -8 26 1 26 37 0 24 6 34 27 44 15 6 33
12 39 12 26 0 44 44 44 106 0 75 -6 94 -30 94 -16 0 -18 -10 -19 -72 0 -57 -4
-76 -18 -85 -38 -29 -43 -18 -42 88 1 75 -3 104 -13 110 -21 14 -25 11 -31
-20z"/>
<path d="M168 1193 c-4 -165 -3 -161 -45 -141 -26 12 -28 17 -31 86 -3 64 -5
72 -22 72 -18 0 -20 -7 -20 -75 0 -98 12 -123 67 -136 41 -11 43 -13 43 -50 0
-64 30 -59 45 8 5 25 14 35 41 45 47 17 62 44 64 114 2 91 2 94 -20 94 -17 0
-20 -7 -20 -52 0 -60 -17 -101 -43 -106 -15 -3 -17 7 -17 97 0 94 -1 101 -20
101 -17 0 -20 -7 -22 -57z"/>
<path d="M65 929 c-12 -19 -14 -64 -4 -89 10 -27 42 -44 102 -54 52 -10 72
-41 57 -94 -11 -42 -26 -53 -75 -59 -85 -8 -95 -21 -102 -132 -5 -67 -3 -79
17 -103 12 -16 28 -28 36 -28 8 0 14 -4 14 -10 0 -5 13 -10 29 -10 17 0 33 -4
36 -10 4 -6 16 -3 31 7 24 15 24 17 7 27 -10 6 -25 11 -33 13 -9 1 -32 9 -52
17 -31 13 -36 21 -42 58 -7 50 0 95 17 113 7 6 36 15 66 19 73 10 100 41 101
115 0 50 -3 57 -36 88 -23 21 -47 33 -64 33 -46 0 -60 10 -60 42 0 50 -28 85
-45 57z"/>
<path d="M410 891 c0 -21 -3 -66 -6 -100 -7 -61 -7 -61 -50 -61 -33 0 -44 -4
-44 -15 0 -9 6 -15 13 -14 6 1 19 -1 27 -4 8 -4 35 -4 60 1 25 4 74 4 110 -1
53 -8 68 -13 76 -31 6 -13 7 -31 3 -42 -4 -10 -8 -35 -8 -54 -1 -19 -6 -42
-11 -50 -8 -13 -12 -12 -26 8 -32 45 -56 60 -110 67 -60 7 -134 -1 -134 -16 0
-9 5 -10 40 -13 46 -5 100 -19 100 -27 0 -5 8 -9 18 -9 22 0 62 -40 62 -61 0
-20 -20 -39 -42 -39 -10 0 -18 -4 -18 -9 0 -4 -25 -19 -55 -32 -54 -23 -64
-32 -47 -43 12 -7 99 17 140 38 19 10 39 15 46 13 16 -6 27 -102 32 -261 2
-65 6 -121 9 -124 3 -4 14 -1 23 5 15 9 17 27 14 149 -2 77 -10 169 -18 206
-13 65 -13 70 9 110 17 34 22 60 22 122 0 74 -2 80 -27 99 -18 14 -49 22 -95
26 -68 6 -68 6 -71 53 -3 47 -3 47 90 50 85 3 93 5 93 23 0 19 -7 20 -90 20
-73 0 -90 3 -91 15 -1 8 -2 21 -3 28 0 6 -10 12 -21 12 -17 0 -20 -7 -20 -39z"/>
<path d="M130 530 c0 -17 7 -20 39 -20 116 0 146 -181 39 -236 -43 -22 -106
-87 -111 -115 -3 -13 -9 -45 -15 -71 -10 -52 -8 -58 20 -58 20 0 39 36 31 58
-3 7 -1 18 5 25 5 6 12 25 16 40 7 28 67 97 84 97 5 0 22 12 38 26 20 19 31
44 40 87 12 55 11 63 -9 103 -17 34 -32 47 -71 63 -64 28 -106 28 -106 1z"/>
</g>
</svg>
