<svg version="1.0" xmlns="http://www.w3.org/2000/svg"
 width="74.000000pt" height="89.000000pt" viewBox="0 0 74.000000 89.000000"
 preserveAspectRatio="xMidYMid meet">
<metadata>
Created by potrace 1.15, written by Peter Selinger 2001-2017
</metadata>
<g transform="translate(0.000000,89.000000) scale(0.100000,-0.100000)"
fill="#000000" stroke="none">
<path d="M175 646 c-9 -20 -18 -57 -22 -81 -7 -51 -14 -55 -37 -20 -18 28 -36
33 -36 10 0 -17 43 -90 60 -100 14 -8 13 -75 -1 -75 -6 0 -24 14 -39 30 -15
17 -30 30 -33 30 -3 0 1 -21 10 -46 9 -28 24 -49 38 -56 14 -6 25 -21 27 -39
6 -41 -8 -146 -27 -203 -9 -26 -14 -51 -11 -54 12 -11 66 52 76 87 5 20 10 73
10 118 0 81 0 81 33 101 17 12 40 34 50 51 16 28 17 31 2 31 -9 0 -28 -9 -42
-20 -34 -26 -40 -25 -46 7 -4 22 3 36 34 70 38 41 48 63 31 63 -5 0 -17 -9
-27 -20 -34 -37 -43 -26 -38 48 3 37 10 72 15 79 5 7 5 14 -2 18 -6 4 -17 -9
-25 -29z"/>
<path d="M370 672 c0 -4 4 -12 9 -17 5 -6 14 -27 19 -47 14 -52 -3 -50 -52 7
-21 25 -43 42 -48 39 -11 -7 14 -47 54 -87 27 -28 37 -57 19 -57 -5 0 -23 8
-40 17 -37 22 -47 13 -27 -25 17 -32 51 -46 91 -36 20 5 27 1 36 -19 14 -30
-12 -87 -39 -87 -38 0 -82 -40 -107 -96 -14 -31 -25 -63 -25 -70 0 -26 20 -14
39 23 22 44 56 78 65 65 3 -5 -8 -44 -24 -88 -34 -90 -46 -144 -33 -144 17 0
33 24 33 49 0 15 6 38 14 53 8 15 17 40 21 57 9 41 28 41 27 1 0 -3 -3 -20 -7
-38 -10 -48 19 -42 39 9 14 35 15 50 6 93 -12 51 -2 106 19 106 21 0 33 -59
23 -107 -19 -86 -21 -109 -11 -123 15 -24 39 17 39 67 0 24 4 43 9 43 14 0 51
-55 51 -74 0 -30 29 -86 44 -86 28 0 16 41 -48 173 -13 26 -23 47 -22 47 15 0
89 -45 98 -60 7 -11 18 -20 25 -20 39 0 -22 79 -87 113 -38 19 -59 38 -68 59
-19 44 -10 58 39 58 35 0 47 6 75 36 41 43 35 63 -10 34 -35 -21 -66 -26 -66
-10 0 5 14 25 30 43 17 19 30 37 30 41 0 16 -24 3 -51 -29 -46 -53 -63 -47
-55 18 6 48 5 51 -9 32 -23 -29 -29 -65 -18 -96 14 -35 1 -58 -21 -40 -10 9
-16 30 -16 57 0 59 -27 124 -51 124 -10 0 -19 -4 -19 -8z"/>
</g>
</svg>
