<svg version="1.0" xmlns="http://www.w3.org/2000/svg"
 width="73.000000pt" height="127.000000pt" viewBox="0 0 73.000000 127.000000"
 preserveAspectRatio="xMidYMid meet">
<metadata>
Created by potrace 1.15, written by Peter Selinger 2001-2017
</metadata>
<g transform="translate(0.000000,127.000000) scale(0.100000,-0.100000)"
fill="#000000" stroke="none">
<path d="M403 1088 c-31 -15 -34 -28 -40 -173 -7 -174 16 -282 63 -304 22 -10
24 -15 19 -48 -4 -21 -20 -60 -36 -86 -16 -27 -29 -53 -29 -58 0 -10 -46 -65
-88 -105 -47 -46 -14 -46 48 0 44 32 120 142 120 175 0 9 6 36 14 61 11 39 17
45 43 48 29 3 30 1 39 -50 8 -48 13 -55 47 -71 21 -11 37 -26 37 -36 0 -21
-32 -52 -76 -74 -87 -44 -82 -142 8 -162 15 -4 31 -12 35 -18 18 -27 33 -85
33 -124 0 -45 9 -53 30 -29 15 19 11 123 -7 159 -9 19 -33 37 -69 54 -36 16
-54 30 -54 42 0 19 30 51 47 51 6 0 29 10 51 21 28 15 42 30 45 49 11 54 -14
103 -58 114 -30 8 -46 64 -22 80 8 6 24 17 35 25 12 8 24 26 27 40 10 39 3
327 -8 338 -13 12 -37 -8 -37 -32 0 -32 -11 -32 -49 4 -31 29 -40 64 -20 76 6
4 42 7 80 6 72 -1 81 3 52 25 -22 16 -247 18 -280 2z m81 -44 c15 -40 6 -73
-24 -89 -16 -8 -34 -15 -40 -15 -16 0 -12 73 6 98 18 26 49 29 58 6z m96 -119
c23 -15 40 -33 40 -44 0 -16 -11 -19 -102 -23 -57 -3 -105 -4 -106 -3 -11 10
12 45 29 45 10 0 19 4 19 9 0 8 57 40 73 41 4 0 25 -11 47 -25z m38 -132 c-3
-28 -3 -28 -104 -31 -84 -2 -103 0 -107 13 -15 38 1 45 110 45 104 0 104 0
101 -27z m9 -79 c2 -6 -8 -25 -22 -42 -25 -30 -29 -31 -91 -27 -71 3 -94 16
-94 51 0 21 5 23 63 27 98 5 140 3 144 -9z"/>
<path d="M271 1046 c-37 -59 -50 -213 -20 -232 5 -3 9 -13 9 -22 0 -23 43 -72
64 -72 25 0 19 33 -15 89 -26 42 -31 60 -30 107 1 38 7 65 21 84 26 36 30 73
9 78 -10 2 -25 -10 -38 -32z"/>
<path d="M70 1052 c0 -5 7 -17 15 -28 23 -31 20 -164 -5 -209 -11 -20 -20 -42
-20 -49 0 -7 -9 -21 -20 -31 -26 -24 -25 -35 3 -35 36 1 55 23 87 100 40 97
38 155 -8 238 -12 21 -52 32 -52 14z"/>
<path d="M173 703 c-8 -3 -13 -23 -13 -48 0 -37 -6 -49 -40 -83 -22 -21 -40
-44 -40 -50 0 -7 -4 -12 -10 -12 -14 0 -23 -62 -13 -100 12 -44 91 -95 136
-86 88 18 127 66 127 161 0 46 -4 56 -26 74 -25 20 -64 29 -64 14 0 -3 8 -15
18 -26 11 -12 17 -35 17 -66 0 -38 -5 -52 -27 -74 -47 -47 -119 -32 -134 28
-11 43 0 69 46 103 53 40 75 94 58 142 -10 30 -13 32 -35 23z"/>
</g>
</svg>
