<svg version="1.0" xmlns="http://www.w3.org/2000/svg"
 width="68.000000pt" height="84.000000pt" viewBox="0 0 68.000000 84.000000"
 preserveAspectRatio="xMidYMid meet">
<metadata>
Created by potrace 1.15, written by Peter Selinger 2001-2017
</metadata>
<g transform="translate(0.000000,84.000000) scale(0.100000,-0.100000)"
fill="#000000" stroke="none">
<path d="M321 636 c-9 -11 -10 -20 -1 -35 10 -21 9 -21 -88 -21 -110 0 -132
-11 -132 -64 0 -44 17 -66 50 -66 25 0 30 -4 30 -25 0 -20 -6 -27 -30 -31 -41
-9 -52 -25 -48 -76 3 -43 3 -43 81 -46 94 -3 107 4 107 63 0 44 -11 60 -45 67
-11 2 -20 10 -20 18 0 11 14 16 53 18 53 3 53 3 50 -100 -3 -103 -3 -103 -83
-108 -119 -8 -128 -15 -141 -123 -6 -52 -5 -57 13 -57 30 0 43 20 43 65 0 45
13 65 43 65 18 0 19 -5 12 -64 -4 -43 -3 -66 5 -71 21 -13 38 16 45 75 8 67
25 90 51 69 13 -11 15 -25 10 -80 -8 -74 2 -93 34 -64 14 13 20 34 22 79 2 46
7 61 18 61 12 0 15 -14 15 -65 0 -58 2 -65 20 -65 16 0 21 8 23 40 4 63 11 85
27 85 21 0 37 -47 33 -97 -3 -44 8 -58 37 -47 21 9 27 38 20 99 -9 72 -26 85
-117 93 -73 7 -73 7 -81 60 -5 30 -5 75 0 100 8 47 9 47 51 50 39 3 42 1 42
-22 0 -16 -6 -26 -14 -26 -43 0 -63 -82 -28 -113 22 -20 96 -22 132 -4 21 11
25 20 25 56 0 32 -5 46 -18 52 -9 5 -25 13 -35 18 -26 13 -20 34 12 42 16 5
33 14 37 21 14 22 10 72 -7 97 -16 22 -22 23 -103 20 -85 -4 -86 -4 -89 21 -7
47 -38 64 -61 36z m204 -126 c0 -25 0 -25 -177 -25 -181 0 -205 5 -192 39 6
15 25 16 188 14 181 -3 181 -3 181 -28z m-290 -180 c0 -22 -5 -25 -43 -28 -31
-2 -44 1 -48 12 -13 33 4 47 48 44 38 -3 43 -6 43 -28z m313 -2 c3 -27 2 -28
-48 -28 -52 0 -69 13 -56 46 4 11 18 14 53 12 44 -3 48 -5 51 -30z"/>
</g>
</svg>
