<svg version="1.0" xmlns="http://www.w3.org/2000/svg"
 width="63.000000pt" height="85.000000pt" viewBox="0 0 63.000000 85.000000"
 preserveAspectRatio="xMidYMid meet">
<metadata>
Created by potrace 1.15, written by Peter Selinger 2001-2017
</metadata>
<g transform="translate(0.000000,85.000000) scale(0.100000,-0.100000)"
fill="#000000" stroke="none">
<path d="M315 702 c-10 -10 -5 -21 26 -57 31 -35 31 -36 13 -56 -11 -12 -31
-27 -46 -35 -27 -14 -39 -44 -18 -44 17 0 98 41 111 56 15 18 48 18 55 -1 4
-8 -8 -37 -26 -65 -39 -61 -45 -102 -30 -205 7 -44 15 -115 19 -157 7 -81 12
-95 32 -83 9 6 10 35 4 114 -18 243 -15 269 42 335 39 47 40 56 11 85 -29 29
-185 120 -193 113z"/>
<path d="M97 648 c5 -48 2 -57 -26 -92 -38 -48 -38 -57 -2 -98 28 -32 28 -32
-10 -68 -22 -20 -39 -46 -39 -57 0 -29 41 -86 73 -101 27 -13 27 -14 27 -113
0 -81 3 -99 15 -99 18 0 22 21 28 127 5 77 7 83 37 110 44 40 48 96 8 126 -36
27 -42 19 -22 -29 16 -37 15 -39 -6 -56 -25 -21 -38 -22 -74 -8 -20 7 -26 17
-26 38 0 32 25 58 83 88 43 21 67 49 67 77 0 26 -27 74 -46 81 -26 10 -30 -2
-10 -34 15 -26 15 -34 4 -57 -18 -39 -59 -39 -72 0 -7 19 -7 31 0 35 41 29 55
102 29 152 -26 50 -44 39 -38 -22z"/>
<path d="M530 460 c-17 -31 -24 -161 -11 -219 15 -72 51 -151 67 -151 19 0 18
20 -6 75 -25 57 -39 175 -29 229 11 56 11 86 -1 86 -5 0 -14 -9 -20 -20z"/>
<path d="M296 443 c5 -16 9 -75 8 -133 0 -111 -6 -129 -71 -216 -23 -31 -30
-54 -15 -54 15 0 31 16 76 74 71 91 85 220 35 318 -23 45 -46 52 -33 11z"/>
</g>
</svg>
