<svg version="1.0" xmlns="http://www.w3.org/2000/svg"
 width="65.000000pt" height="85.000000pt" viewBox="0 0 65.000000 85.000000"
 preserveAspectRatio="xMidYMid meet">
<metadata>
Created by potrace 1.15, written by Peter Selinger 2001-2017
</metadata>
<g transform="translate(0.000000,85.000000) scale(0.100000,-0.100000)"
fill="#000000" stroke="none">
<path d="M253 548 c-32 -29 -80 -69 -105 -88 -48 -36 -62 -55 -52 -71 12 -21
39 -5 120 71 46 44 93 80 104 80 18 0 135 -93 169 -133 17 -21 51 -22 51 -2 0
8 -17 30 -37 49 -50 45 -176 146 -184 146 -4 0 -33 -24 -66 -52z"/>
<path d="M248 393 c-31 -5 -38 -29 -10 -37 9 -3 53 -2 97 2 65 6 80 10 83 25
3 15 -5 17 -70 16 -40 -1 -85 -4 -100 -6z"/>
<path d="M135 279 c-15 -23 16 -33 95 -30 80 3 80 3 80 -33 0 -41 -7 -44 -110
-48 -61 -3 -66 -5 -79 -32 -12 -26 -11 -34 8 -72 21 -44 21 -44 103 -43 125 2
275 13 284 22 4 4 1 14 -7 22 -12 12 -38 13 -173 4 -162 -11 -176 -9 -176 26
0 35 18 40 175 45 182 6 188 9 183 95 -3 50 -3 50 -190 53 -128 2 -189 -1
-193 -9z m333 -56 c-3 -38 -3 -38 -58 -38 -50 0 -55 2 -58 23 -6 44 4 52 63
52 56 0 56 0 53 -37z"/>
</g>
</svg>
