<svg version="1.0" xmlns="http://www.w3.org/2000/svg"
 width="49.000000pt" height="101.000000pt" viewBox="0 0 49.000000 101.000000"
 preserveAspectRatio="xMidYMid meet">
<metadata>
Created by potrace 1.15, written by Peter Selinger 2001-2017
</metadata>
<g transform="translate(0.000000,101.000000) scale(0.100000,-0.100000)"
fill="#000000" stroke="none">
<path d="M224 792 c-11 -7 -40 -58 -121 -211 -50 -92 -48 -117 6 -85 17 10 31
21 31 25 0 3 11 18 24 34 48 56 65 -3 38 -137 -20 -96 -47 -168 -63 -168 -12
0 -11 -57 1 -65 6 -3 10 -19 10 -35 0 -79 25 -79 80 0 32 46 53 70 60 70 4 0
7 -32 7 -71 1 -67 16 -111 27 -78 20 62 25 95 28 169 3 85 3 85 -23 88 -20 2
-34 -7 -65 -45 -65 -81 -74 -87 -74 -54 0 10 31 46 70 81 84 76 87 89 35 211
-19 46 -35 84 -35 84 0 1 15 -1 33 -3 25 -3 39 -14 67 -55 38 -56 70 -73 70
-38 0 12 -4 29 -9 39 -5 9 -17 34 -27 54 -42 82 -101 167 -126 182 -30 18 -29
18 -44 8z m39 -123 c-17 -17 -37 -1 -22 17 8 10 15 12 23 4 7 -7 7 -13 -1 -21z"/>
</g>
</svg>
