<svg version="1.0" xmlns="http://www.w3.org/2000/svg"
 width="51.000000pt" height="141.000000pt" viewBox="0 0 51.000000 141.000000"
 preserveAspectRatio="xMidYMid meet">
<metadata>
Created by potrace 1.15, written by Peter Selinger 2001-2017
</metadata>
<g transform="translate(0.000000,141.000000) scale(0.100000,-0.100000)"
fill="#000000" stroke="none">
<path d="M303 1196 c-6 -7 -23 -36 -37 -64 -14 -28 -30 -53 -36 -57 -5 -3 -40
-50 -77 -103 -37 -53 -71 -98 -75 -100 -13 -6 -9 -20 8 -26 11 -4 27 6 50 31
18 21 33 43 34 49 0 6 11 21 25 34 20 18 39 24 98 28 71 4 73 4 85 -22 7 -15
12 -33 12 -41 0 -8 5 -15 10 -15 6 0 10 -7 10 -15 0 -22 30 -65 45 -65 21 0
26 30 11 63 -7 18 -23 53 -35 79 -11 26 -21 51 -21 54 0 4 -11 30 -24 58 -14
28 -32 68 -40 89 -16 40 -24 44 -43 23z m31 -143 c8 -24 7 -24 -56 -27 -33 -2
-34 3 -10 30 10 10 21 28 25 38 8 19 8 19 21 0 7 -10 16 -29 20 -41z"/>
<path d="M243 918 c-42 -53 -52 -152 -24 -232 20 -56 20 -57 -1 -164 -11 -59
-22 -122 -25 -140 -3 -20 -16 -40 -33 -52 -20 -14 -29 -31 -33 -64 -4 -25 -4
-51 -2 -59 9 -22 93 -42 129 -29 82 28 94 24 59 -19 -36 -45 -108 -109 -121
-109 -4 0 -17 -7 -28 -15 -18 -14 -16 -15 21 -9 46 8 91 28 102 47 4 8 20 22
36 32 15 9 27 23 27 30 0 7 3 15 8 17 5 2 73 108 88 138 1 3 -4 14 -11 24 -13
17 -15 17 -47 -13 -18 -17 -36 -31 -40 -31 -4 0 -24 -11 -44 -25 -71 -48 -134
-41 -134 16 0 32 53 67 155 101 22 7 45 18 50 23 18 19 35 54 35 72 0 24 -39
104 -66 133 -39 43 -54 105 -54 228 0 103 -2 112 -19 112 -10 0 -23 -6 -28
-12z m103 -435 c9 -36 -13 -70 -58 -87 -52 -21 -61 -21 -48 3 7 14 7 22 0 26
-7 4 -8 11 -2 18 5 7 17 39 27 72 17 59 17 59 46 25 16 -18 32 -44 35 -57z"/>
</g>
</svg>
