<svg version="1.0" xmlns="http://www.w3.org/2000/svg"
 width="53.000000pt" height="95.000000pt" viewBox="0 0 53.000000 95.000000"
 preserveAspectRatio="xMidYMid meet">
<metadata>
Created by potrace 1.15, written by Peter Selinger 2001-2017
</metadata>
<g transform="translate(0.000000,95.000000) scale(0.100000,-0.100000)"
fill="#000000" stroke="none">
<path d="M253 813 c-7 -3 -13 -9 -13 -15 0 -17 -140 -247 -166 -273 -28 -28
-31 -50 -8 -59 27 -11 35 -7 80 39 43 45 43 45 139 45 62 0 95 -4 95 -11 0
-20 55 -69 76 -69 37 0 37 29 1 89 -19 31 -52 90 -73 131 -50 96 -93 136 -131
123z m54 -149 c13 -21 23 -43 23 -47 0 -8 -97 -8 -112 0 -11 6 43 94 56 90 6
-2 21 -21 33 -43z"/>
<path d="M195 440 c-11 -5 -35 -9 -52 -9 -18 -1 -34 -5 -34 -11 -5 -30 -2 -34
26 -36 17 -1 39 -2 50 -3 14 -1 24 -13 33 -41 18 -59 15 -74 -19 -111 -28 -30
-31 -38 -26 -79 7 -54 34 -117 55 -125 8 -3 16 -4 17 -3 1 2 -3 40 -8 85 -11
88 -4 113 33 113 10 0 20 6 23 13 3 7 24 19 46 27 52 17 91 55 91 87 0 68
-153 128 -235 93z m155 -68 c30 -25 20 -58 -21 -67 -17 -4 -35 -3 -39 1 -8 9
-13 45 -11 72 2 18 46 15 71 -6z"/>
</g>
</svg>
