<svg version="1.0" xmlns="http://www.w3.org/2000/svg"
 width="93.000000pt" height="159.000000pt" viewBox="0 0 93.000000 159.000000"
 preserveAspectRatio="xMidYMid meet">
<metadata>
Created by potrace 1.15, written by Peter Selinger 2001-2017
</metadata>
<g transform="translate(0.000000,159.000000) scale(0.100000,-0.100000)"
fill="#000000" stroke="none">
<path d="M383 1375 c-40 -41 -73 -79 -73 -85 0 -10 -85 -92 -103 -99 -21 -8
-97 -91 -97 -106 0 -15 40 -22 54 -8 18 18 81 30 134 25 123 -11 163 -8 427
27 55 8 63 6 98 -17 42 -28 42 -28 51 11 5 23 0 34 -37 70 -24 24 -57 52 -75
62 -18 11 -32 23 -32 27 0 4 -6 8 -13 8 -12 0 -139 93 -187 137 -42 39 -67 30
-147 -52z m142 -42 c22 -15 49 -35 59 -45 11 -10 24 -18 28 -18 5 0 14 -5 21
-10 7 -6 20 -16 30 -23 11 -8 16 -19 12 -29 -6 -14 -26 -17 -148 -17 -172 0
-193 8 -156 61 28 40 94 108 106 108 5 0 26 -12 48 -27z"/>
<path d="M135 1040 c3 -5 8 -10 11 -10 2 0 4 5 4 10 0 6 -5 10 -11 10 -5 0 -7
-4 -4 -10z"/>
<path d="M405 950 c-27 -10 -69 -24 -92 -30 -37 -9 -43 -14 -43 -38 0 -20 7
-30 28 -39 50 -23 71 -123 30 -144 -42 -22 -78 -76 -78 -118 0 -26 48 -121 65
-127 8 -4 15 -13 15 -21 0 -8 13 -33 28 -56 51 -77 78 -158 68 -209 -19 -101
-19 -108 -4 -108 63 0 96 187 50 279 -12 25 -22 49 -22 54 0 6 -17 27 -39 47
-46 44 -61 70 -61 104 0 14 -4 28 -10 31 -14 9 -12 44 3 59 6 6 31 17 55 24
24 7 73 28 110 46 37 19 78 37 92 41 13 4 30 14 38 21 7 8 21 14 31 14 9 0 21
13 28 29 9 25 7 33 -16 59 -14 17 -46 47 -71 66 -40 32 -51 36 -100 35 -30 -1
-77 -9 -105 -19z m135 -70 c0 -5 6 -10 14 -10 23 0 36 -23 23 -40 -15 -19
-107 -60 -133 -60 -2 0 -10 16 -18 35 -11 25 -13 43 -6 60 9 22 15 25 65 25
30 0 55 -4 55 -10z"/>
</g>
</svg>
