<svg version="1.0" xmlns="http://www.w3.org/2000/svg"
 width="53.000000pt" height="83.000000pt" viewBox="0 0 53.000000 83.000000"
 preserveAspectRatio="xMidYMid meet">
<metadata>
Created by potrace 1.15, written by Peter Selinger 2001-2017
</metadata>
<g transform="translate(0.000000,83.000000) scale(0.100000,-0.100000)"
fill="#000000" stroke="none">
<path d="M246 535 c-10 -19 -26 -42 -35 -52 -9 -10 -28 -34 -42 -53 -14 -19
-40 -50 -58 -69 -34 -37 -39 -51 -16 -51 8 0 15 5 15 10 0 6 6 10 14 10 8 0
23 13 32 29 19 33 56 53 79 45 12 -5 15 -24 15 -88 0 -70 -3 -83 -20 -94 -20
-12 -28 -52 -11 -52 6 0 11 -14 13 -31 5 -55 30 -58 79 -11 24 23 47 42 52 42
4 0 7 -31 7 -70 0 -38 4 -70 9 -70 21 0 29 32 32 123 3 108 -6 133 -37 98 -38
-42 -88 -91 -95 -91 -4 0 -10 7 -13 16 -10 25 20 63 64 80 32 13 40 21 40 42
0 25 -38 92 -52 92 -5 0 -8 5 -8 10 0 6 12 10 26 10 19 0 42 -16 79 -55 29
-30 58 -55 64 -55 22 0 22 23 -2 58 -31 45 -192 212 -204 212 -5 0 -17 -16
-27 -35z m58 -58 c14 -22 4 -29 -33 -25 -31 3 -31 4 -15 26 17 25 32 25 48 -1z
m11 -162 c0 -10 -6 -20 -12 -22 -8 -3 -13 5 -13 22 0 17 5 25 13 23 6 -3 12
-13 12 -23z"/>
</g>
</svg>
