<svg version="1.0" xmlns="http://www.w3.org/2000/svg"
 width="57.000000pt" height="119.000000pt" viewBox="0 0 57.000000 119.000000"
 preserveAspectRatio="xMidYMid meet">
<metadata>
Created by potrace 1.15, written by Peter Selinger 2001-2017
</metadata>
<g transform="translate(0.000000,119.000000) scale(0.100000,-0.100000)"
fill="#000000" stroke="none">
<path d="M85 990 c3 -36 7 -141 10 -235 6 -175 14 -266 35 -393 11 -64 11 -75
-4 -91 -9 -9 -16 -21 -16 -25 0 -4 -7 -14 -15 -22 -8 -9 -15 -20 -15 -25 0 -5
7 -9 15 -9 8 0 15 3 15 8 0 4 12 12 26 19 20 9 26 9 31 -3 10 -27 23 -14 24
24 0 30 7 43 35 65 32 27 34 28 34 8 0 -26 -27 -101 -69 -190 -11 -25 -18 -47
-16 -49 13 -14 38 18 85 108 45 88 51 108 46 141 -5 33 -2 42 21 64 15 14 35
25 45 25 9 0 20 5 23 10 10 16 35 11 35 -7 0 -31 42 -173 51 -173 24 0 -2 306
-32 375 -13 30 -13 30 -17 -7 -2 -21 -7 -38 -11 -38 -4 0 -23 30 -42 68 -19
37 -37 69 -41 72 -4 3 -10 24 -13 45 -11 90 -17 121 -27 142 -16 32 -28 19
-21 -23 6 -35 6 -35 -65 2 -63 33 -71 41 -77 72 -4 19 -18 51 -31 71 -25 36
-25 36 -19 -29z m98 -131 c28 -14 74 -65 83 -91 7 -24 -10 -61 -45 -100 -42
-47 -7 -48 56 -2 21 15 23 15 29 -2 15 -45 48 -112 70 -141 13 -17 24 -34 24
-36 0 -7 -108 -67 -120 -67 -5 0 -10 5 -10 11 0 19 -61 100 -71 94 -5 -4 -5
-13 1 -25 5 -10 10 -30 10 -44 0 -14 5 -26 10 -26 6 0 10 -15 10 -34 0 -25 -7
-39 -22 -50 -21 -15 -23 -15 -29 2 -7 18 -16 130 -24 302 -2 47 -7 111 -10
143 -8 76 -2 86 38 66z"/>
</g>
</svg>
