<svg version="1.0" xmlns="http://www.w3.org/2000/svg"
 width="115.000000pt" height="139.000000pt" viewBox="0 0 115.000000 139.000000"
 preserveAspectRatio="xMidYMid meet">
<metadata>
Created by potrace 1.15, written by Peter Selinger 2001-2017
</metadata>
<g transform="translate(0.000000,139.000000) scale(0.100000,-0.100000)"
fill="#000000" stroke="none">
<path d="M180 1222 c-38 -25 -70 -65 -70 -86 0 -16 5 -17 37 -11 20 3 58 18
84 31 55 29 79 23 104 -26 14 -27 13 -33 -8 -82 -13 -30 -30 -60 -38 -68 -37
-40 -79 -100 -107 -155 -61 -120 -92 -186 -92 -199 0 -8 -5 -16 -10 -18 -17
-5 -39 -121 -41 -215 -3 -99 9 -134 66 -201 53 -61 189 -122 274 -122 23 0 72
-4 109 -10 55 -8 175 -17 277 -21 33 -1 129 12 145 21 8 4 31 10 50 14 123 23
149 196 44 296 -71 67 -158 90 -344 92 -141 2 -384 -24 -493 -52 -26 -7 -50
-11 -52 -8 -6 6 21 161 36 207 6 20 16 42 22 49 6 7 20 32 32 55 27 53 48 91
55 97 3 3 17 21 30 40 14 19 37 48 52 64 16 16 28 35 28 43 0 7 12 32 26 55
22 35 25 48 20 87 -3 25 -9 47 -14 50 -4 4 -12 15 -18 26 -15 30 -92 65 -139
64 -22 0 -51 -8 -65 -17z m579 -852 c83 0 130 -13 178 -47 64 -47 50 -147 -25
-179 -39 -16 -313 -33 -358 -22 -16 4 -76 12 -134 18 -58 6 -121 16 -140 21
-35 11 -90 51 -90 66 0 4 -9 19 -20 33 -11 14 -20 30 -20 37 0 6 30 23 68 38
62 26 80 28 247 32 99 3 184 9 190 14 5 5 13 5 19 -1 6 -5 44 -10 85 -10z"/>
</g>
</svg>
