<svg version="1.0" xmlns="http://www.w3.org/2000/svg"
 width="81.000000pt" height="129.000000pt" viewBox="0 0 81.000000 129.000000"
 preserveAspectRatio="xMidYMid meet">
<metadata>
Created by potrace 1.15, written by Peter Selinger 2001-2017
</metadata>
<g transform="translate(0.000000,129.000000) scale(0.100000,-0.100000)"
fill="#000000" stroke="none">
<path d="M80 1063 c0 -9 70 -55 149 -98 84 -46 92 -62 117 -235 3 -19 5 -133
4 -254 -1 -124 3 -229 8 -245 6 -14 13 -38 16 -54 5 -22 19 -33 72 -58 61 -27
73 -29 162 -27 96 3 96 3 109 63 26 128 7 269 -42 313 -14 12 -32 22 -40 22
-8 0 -34 9 -57 20 -24 11 -62 24 -85 30 -24 6 -43 16 -44 23 0 7 -2 57 -4 112
-5 151 -14 224 -33 248 -36 47 -106 107 -123 107 -11 0 -19 3 -19 8 0 11 -98
32 -148 32 -23 0 -42 -3 -42 -7z m450 -633 c40 0 94 -49 108 -98 7 -22 12 -62
12 -90 0 -60 -16 -75 -64 -61 -17 5 -44 9 -60 9 -21 0 -39 10 -63 36 -31 35
-33 41 -33 111 0 93 10 116 46 103 14 -6 38 -10 54 -10z"/>
</g>
</svg>
