<svg version="1.0" xmlns="http://www.w3.org/2000/svg"
 width="43.000000pt" height="61.000000pt" viewBox="0 0 43.000000 61.000000"
 preserveAspectRatio="xMidYMid meet">
<metadata>
Created by potrace 1.15, written by Peter Selinger 2001-2017
</metadata>
<g transform="translate(0.000000,61.000000) scale(0.100000,-0.100000)"
fill="#000000" stroke="none">
<path d="M130 511 c-48 -24 -80 -45 -80 -52 0 -3 11 -11 24 -17 20 -9 32 -7
65 9 41 19 41 19 76 -12 19 -18 35 -40 35 -50 0 -16 -61 -122 -90 -156 -15
-18 -12 -128 4 -167 12 -30 19 -34 66 -39 61 -7 62 -7 109 90 27 54 29 66 20
90 -20 48 -34 78 -40 83 -24 20 -26 46 -7 73 18 26 19 31 7 55 -8 15 -33 46
-56 69 -48 48 -76 53 -133 24z m158 -272 c28 -51 27 -74 -1 -124 -17 -30 -29
-40 -47 -40 -23 0 -26 5 -33 63 -8 59 -7 66 18 103 15 21 31 39 35 39 3 0 16
-18 28 -41z"/>
</g>
</svg>
