<svg version="1.0" xmlns="http://www.w3.org/2000/svg"
 width="73.000000pt" height="113.000000pt" viewBox="0 0 73.000000 113.000000"
 preserveAspectRatio="xMidYMid meet">
<metadata>
Created by potrace 1.15, written by Peter Selinger 2001-2017
</metadata>
<g transform="translate(0.000000,113.000000) scale(0.100000,-0.100000)"
fill="#000000" stroke="none">
<path d="M165 1011 c-37 -16 -38 -19 -20 -28 11 -6 82 -13 158 -16 151 -5 175
-13 197 -67 14 -33 4 -66 -30 -100 -8 -8 -37 -40 -65 -70 -122 -135 -181 -204
-189 -221 -5 -11 -13 -19 -18 -19 -4 0 -8 -5 -8 -11 0 -6 -14 -31 -32 -55 -28
-39 -32 -53 -32 -112 -1 -80 23 -124 91 -167 45 -28 129 -55 175 -55 40 0 153
57 168 85 7 13 13 42 13 64 0 33 -7 47 -34 74 -19 18 -52 38 -74 44 -22 6 -62
17 -90 25 -37 10 -54 21 -68 46 -18 31 -18 32 4 64 35 49 88 107 149 163 113
103 116 107 129 168 22 101 4 141 -86 186 -37 18 -59 21 -170 20 -99 0 -137
-4 -168 -18z m206 -692 c39 -13 99 -66 99 -87 0 -49 -108 -78 -186 -50 -34 12
-49 33 -59 84 -6 29 -3 33 32 47 46 19 70 20 114 6z"/>
</g>
</svg>
