<svg version="1.0" xmlns="http://www.w3.org/2000/svg"
 width="70.000000pt" height="124.000000pt" viewBox="0 0 70.000000 124.000000"
 preserveAspectRatio="xMidYMid meet">
<metadata>
Created by potrace 1.15, written by Peter Selinger 2001-2017
</metadata>
<g transform="translate(0.000000,124.000000) scale(0.100000,-0.100000)"
fill="#000000" stroke="none">
<path d="M467 1093 c-4 -3 -8 -25 -8 -47 -2 -56 -12 -91 -26 -92 -7 -1 -26 -2
-43 -2 -19 -1 -30 -7 -30 -17 0 -8 -4 -15 -9 -15 -5 0 -12 -10 -16 -22 -12
-39 -34 -279 -35 -379 0 -91 1 -98 26 -123 15 -14 33 -26 40 -26 8 0 14 -4 14
-9 0 -12 57 -34 69 -26 21 13 11 43 -19 55 -17 7 -44 28 -61 47 -30 35 -30 37
-28 132 3 110 16 229 31 282 14 50 42 63 120 56 114 -11 127 -16 132 -51 11
-66 13 -254 4 -321 -11 -86 -21 -108 -76 -164 -54 -54 -62 -73 -77 -187 -14
-102 -10 -150 12 -158 26 -10 30 1 32 96 2 121 13 152 78 217 64 63 74 85 74
161 0 30 2 118 4 195 7 206 -8 239 -115 252 -59 7 -68 19 -52 70 16 51 -13
104 -41 76z"/>
<path d="M120 1055 c0 -38 -21 -88 -42 -102 -24 -15 -56 -88 -63 -143 -4 -30
-9 -64 -12 -75 -9 -45 8 -103 42 -141 33 -36 35 -44 35 -106 0 -37 -4 -89 -9
-115 -6 -26 -12 -101 -14 -166 -4 -97 -2 -120 10 -124 24 -9 31 9 37 97 8 104
12 119 43 146 32 27 53 69 58 114 6 63 18 102 32 107 29 11 45 66 54 194 10
130 10 130 -22 186 -24 42 -32 68 -31 97 1 23 -2 48 -8 56 -32 48 -42 -108
-11 -162 22 -36 35 -169 24 -245 -10 -78 -23 -33 -23 83 0 63 -4 114 -9 114
-18 0 -29 -66 -31 -175 -2 -178 -10 -247 -32 -292 -26 -52 -31 -21 -24 139 4
90 9 205 12 256 5 88 5 92 -15 92 -19 0 -21 -6 -21 -77 0 -99 -10 -183 -22
-183 -20 0 -35 61 -27 113 4 29 10 70 13 92 7 58 13 69 57 104 38 31 39 34 39
91 0 53 -2 60 -20 60 -16 0 -20 -7 -20 -35z"/>
<path d="M421 809 c-14 -15 -21 -42 -26 -95 -12 -128 -10 -172 9 -192 38 -42
143 -33 165 15 18 39 14 216 -6 258 -16 34 -19 35 -69 35 -41 0 -58 -5 -73
-21z m97 -28 c9 -6 11 -19 7 -45 -8 -39 -8 -39 -54 -30 -25 5 -31 11 -31 33 0
44 41 66 78 42z m6 -161 c-1 -19 -2 -42 -3 -51 -2 -23 -49 -43 -67 -28 -15 12
-20 100 -7 113 4 4 23 6 43 4 33 -3 35 -5 34 -38z"/>
</g>
</svg>
