<svg version="1.0" xmlns="http://www.w3.org/2000/svg"
 width="95.000000pt" height="255.000000pt" viewBox="0 0 95.000000 255.000000"
 preserveAspectRatio="xMidYMid meet">
<metadata>
Created by potrace 1.15, written by Peter Selinger 2001-2017
</metadata>
<g transform="translate(0.000000,255.000000) scale(0.100000,-0.100000)"
fill="#000000" stroke="none">
<path d="M527 2438 c-32 -74 -37 -90 -38 -121 0 -18 -6 -58 -13 -91 -10 -47
-9 -81 2 -180 7 -66 22 -144 32 -173 21 -61 17 -65 -61 -55 -30 4 -80 5 -112
2 -82 -7 -94 -1 -95 51 -1 69 -61 129 -77 78 -9 -28 -7 -166 4 -349 16 -237
29 -277 111 -336 50 -36 50 -36 50 -121 0 -47 -5 -104 -11 -127 -27 -105 -40
-139 -64 -170 -14 -18 -25 -37 -25 -42 0 -5 -14 -29 -30 -53 -36 -53 -37 -61
-7 -61 22 0 57 31 57 50 0 6 6 10 13 10 8 0 22 18 33 40 10 22 22 40 27 40 4
0 7 9 7 20 0 34 43 41 215 40 170 -2 225 -15 225 -52 0 -9 5 -20 10 -23 6 -3
10 -12 10 -20 0 -22 59 -140 82 -165 11 -12 24 -18 28 -13 14 14 -19 154 -41
173 -11 10 -25 53 -50 155 -22 89 -31 144 -36 221 -4 81 -4 81 26 93 39 17 81
102 93 190 5 36 12 169 14 296 5 211 4 230 -12 242 -10 7 -21 13 -26 13 -15 0
-38 -72 -38 -119 0 -36 -5 -49 -20 -59 -27 -17 -240 -15 -240 1 0 7 7 32 16
57 25 70 34 136 35 245 1 151 -22 273 -60 321 -20 25 -20 25 -34 -8z m305
-785 c2 -154 2 -161 -12 -219 -15 -62 -53 -109 -113 -143 -33 -18 -54 -21
-163 -21 -119 0 -129 2 -188 30 -65 31 -106 79 -106 124 0 14 -4 28 -10 31
-11 7 -14 277 -3 288 3 4 138 7 300 7 293 0 293 0 295 -97z m-123 -571 c22
-107 23 -125 11 -133 -10 -7 -73 -8 -170 -5 -127 5 -157 9 -167 22 -7 10 -9
22 -3 33 14 25 30 106 30 148 0 61 9 65 150 61 125 -3 125 -3 149 -126z"/>
<path d="M620 639 c-19 -5 -44 -14 -55 -18 -11 -5 -36 -15 -55 -22 -19 -7 -62
-25 -94 -41 -33 -15 -64 -28 -70 -28 -12 0 -156 -143 -156 -155 0 -4 -13 -27
-30 -52 -16 -24 -30 -51 -30 -59 0 -7 -4 -14 -8 -14 -24 0 -81 -186 -65 -213
9 -14 105 -1 168 23 11 5 52 19 90 31 39 13 72 27 75 30 3 4 30 19 61 33 103
47 205 193 240 346 4 19 12 53 18 75 19 73 -1 87 -89 64z m20 -68 c0 -3 -8
-27 -17 -53 -17 -47 -17 -47 -35 -18 -10 17 -22 30 -28 30 -18 0 -11 27 10 36
25 11 70 14 70 5z m-116 -95 c40 -37 44 -61 20 -109 -23 -45 -95 -133 -121
-147 -18 -10 -28 -8 -65 11 -57 32 -63 38 -71 77 -8 42 11 81 67 136 79 78
115 85 170 32z m-283 -239 c5 -12 29 -35 52 -50 39 -25 40 -27 20 -33 -13 -4
-23 -10 -23 -15 0 -5 -13 -9 -28 -9 -15 0 -32 -4 -37 -9 -6 -4 -24 -11 -41
-14 -29 -5 -31 -4 -28 19 3 33 53 134 65 134 5 0 14 -10 20 -23z"/>
<path d="M353 416 c-37 -17 -34 -33 10 -63 23 -15 45 -32 48 -36 4 -5 17 -7
30 -5 18 2 25 10 27 31 2 15 -1 27 -7 27 -6 0 -11 6 -11 14 0 32 -58 52 -97
32z"/>
</g>
</svg>
