<svg version="1.0" xmlns="http://www.w3.org/2000/svg"
 width="63.000000pt" height="85.000000pt" viewBox="0 0 63.000000 85.000000"
 preserveAspectRatio="xMidYMid meet">
<metadata>
Created by potrace 1.15, written by Peter Selinger 2001-2017
</metadata>
<g transform="translate(0.000000,85.000000) scale(0.100000,-0.100000)"
fill="#000000" stroke="none">
<path d="M294 688 c-5 -7 -7 -41 -5 -75 2 -45 -1 -63 -10 -63 -24 0 -78 51
-89 85 -8 24 -18 35 -31 35 -20 0 -26 -24 -9 -35 6 -3 10 -24 10 -45 0 -33 -6
-43 -40 -70 -43 -34 -52 -60 -20 -60 26 0 70 28 70 44 0 26 22 36 49 22 14 -8
38 -19 54 -25 23 -9 27 -16 27 -49 0 -36 -4 -41 -52 -71 -28 -18 -64 -35 -80
-38 -25 -5 -28 -3 -28 20 0 25 20 38 83 53 29 7 32 27 4 32 -25 5 -125 -45
-137 -68 -9 -17 -8 -27 5 -46 20 -31 77 -33 120 -4 17 11 40 20 53 20 19 0 22
-5 22 -35 0 -32 -3 -35 -42 -45 -55 -13 -68 -21 -91 -52 -15 -21 -17 -35 -11
-87 5 -49 10 -61 23 -59 12 2 17 20 22 71 3 37 10 72 15 77 5 5 25 11 44 12
35 3 35 3 38 -94 2 -72 6 -97 17 -102 8 -3 17 0 21 5 7 13 6 188 -2 200 -3 5
12 9 34 9 56 0 74 -24 77 -102 3 -88 3 -88 20 -88 29 0 39 45 25 107 -21 92
-31 103 -95 103 -55 0 -55 0 -55 60 0 68 5 74 88 84 44 6 53 4 59 -10 15 -41
-46 -73 -67 -35 -6 12 -17 21 -25 21 -23 0 -18 -34 9 -59 23 -22 28 -23 74
-11 62 14 85 47 61 88 -24 43 -63 57 -121 43 -73 -17 -80 -15 -76 17 2 22 14
32 61 55 59 29 59 29 98 2 64 -42 85 -7 25 39 -26 19 -37 37 -43 69 -6 31 -14
43 -29 45 -18 3 -20 -2 -20 -44 1 -43 -2 -50 -33 -71 -53 -36 -58 -31 -63 47
-4 71 -18 104 -34 78z"/>
</g>
</svg>
