<svg version="1.0" xmlns="http://www.w3.org/2000/svg"
 width="101.000000pt" height="127.000000pt" viewBox="0 0 101.000000 127.000000"
 preserveAspectRatio="xMidYMid meet">
<metadata>
Created by potrace 1.15, written by Peter Selinger 2001-2017
</metadata>
<g transform="translate(0.000000,127.000000) scale(0.100000,-0.100000)"
fill="#000000" stroke="none">
<path d="M909 858 c-1 -253 -3 -314 -14 -345 -9 -25 -184 -125 -266 -152 -65
-20 -63 -24 -55 117 10 168 11 462 2 490 -20 61 -32 3 -42 -203 -3 -68 -11
-125 -18 -132 -27 -29 -272 -38 -314 -12 -28 17 -41 3 -16 -16 66 -52 157 -72
262 -57 76 11 85 2 71 -73 -5 -28 -10 -70 -11 -95 -3 -45 -3 -45 -52 -48 -60
-4 -166 28 -231 69 -46 29 -75 37 -75 20 0 -13 72 -71 87 -71 7 0 13 -4 13
-10 0 -5 7 -10 15 -10 8 0 24 -4 35 -10 11 -5 29 -14 40 -20 24 -12 242 -13
256 -1 5 4 32 14 59 21 28 7 87 32 133 56 45 24 87 44 93 44 11 0 10 -17 -7
-143 -5 -40 -13 -53 -48 -81 -60 -50 -164 -95 -259 -112 -101 -19 -313 -22
-329 -6 -7 7 -20 12 -30 12 -10 0 -18 4 -18 8 0 5 -12 15 -26 23 -15 7 -40 37
-56 66 -16 28 -36 57 -43 63 -12 10 -15 8 -15 -11 1 -76 57 -155 140 -195 100
-47 161 -50 390 -15 83 12 227 76 282 124 40 35 79 129 91 216 24 174 11 666
-19 745 -19 48 -24 -9 -25 -256z"/>
</g>
</svg>
