<svg version="1.0" xmlns="http://www.w3.org/2000/svg"
 width="85.000000pt" height="121.000000pt" viewBox="0 0 85.000000 121.000000"
 preserveAspectRatio="xMidYMid meet">
<metadata>
Created by potrace 1.15, written by Peter Selinger 2001-2017
</metadata>
<g transform="translate(0.000000,121.000000) scale(0.100000,-0.100000)"
fill="#000000" stroke="none">
<path d="M381 1033 c-6 -32 -20 -98 -31 -148 -11 -49 -21 -99 -23 -110 -2 -18
-10 -20 -99 -20 -53 0 -100 -3 -104 -7 -4 -4 -1 -14 6 -23 10 -12 36 -15 125
-15 113 0 113 0 123 28 6 15 13 54 16 87 2 33 9 92 16 130 19 118 -8 190 -29
78z"/>
<path d="M734 853 c1 -169 4 -217 14 -215 6 1 12 -6 13 -15 0 -13 3 -11 10 6
5 14 12 107 16 208 6 194 0 233 -38 233 -15 0 -17 -18 -15 -217z"/>
<path d="M735 596 c-5 -11 -3 -21 6 -27 11 -6 11 -11 1 -21 -6 -6 -12 -21 -12
-33 0 -34 -28 -65 -60 -65 -16 0 -31 -3 -34 -8 -2 -4 -35 -9 -73 -10 -37 -2
-93 -7 -123 -12 -83 -14 -135 -20 -243 -27 -99 -6 -121 -18 -61 -35 34 -10
231 -8 289 3 75 14 278 14 283 0 2 -7 -2 -40 -9 -74 -15 -68 -58 -122 -117
-148 -20 -8 -32 -21 -32 -33 0 -16 -2 -16 -16 -5 -12 9 -23 10 -47 2 -82 -28
-284 -56 -335 -47 -30 6 -67 -5 -55 -17 14 -14 214 -21 283 -10 155 26 185 33
224 51 72 33 145 98 169 151 23 49 28 369 6 369 -5 0 -9 -10 -9 -22 -1 -20 -2
-19 -14 7 -12 26 -15 28 -21 11z m30 -56 c3 -5 1 -10 -4 -10 -6 0 -11 5 -11
10 0 6 2 10 4 10 3 0 8 -4 11 -10z"/>
</g>
</svg>
