<svg version="1.0" xmlns="http://www.w3.org/2000/svg"
 width="61.000000pt" height="115.000000pt" viewBox="0 0 61.000000 115.000000"
 preserveAspectRatio="xMidYMid meet">
<metadata>
Created by potrace 1.15, written by Peter Selinger 2001-2017
</metadata>
<g transform="translate(0.000000,115.000000) scale(0.100000,-0.100000)"
fill="#000000" stroke="none">
<path d="M84 1035 c16 -43 15 -238 -3 -370 -23 -176 -22 -381 4 -439 35 -83
119 -138 236 -155 35 -5 78 -13 95 -16 18 -4 34 -3 38 3 3 6 -16 15 -47 21
-117 26 -161 41 -158 54 0 4 1 18 1 32 0 27 24 34 58 16 20 -11 105 -28 175
-35 50 -6 66 10 20 19 -54 12 -169 48 -210 68 -56 26 -66 54 -59 163 4 49 8
136 11 193 3 69 9 107 17 113 7 5 56 8 108 7 119 -2 120 -2 120 14 0 10 -27
14 -112 16 -62 1 -116 5 -120 7 -4 3 -8 33 -8 67 0 105 -20 212 -43 226 -19
12 -20 11 -13 -36 24 -177 26 -391 4 -465 -9 -31 -7 -190 5 -333 2 -24 -2 -31
-20 -33 -17 -2 -28 8 -50 45 -28 48 -28 50 -27 208 1 88 4 174 7 190 3 17 11
55 17 85 15 72 4 296 -16 328 -16 25 -39 30 -30 7z"/>
</g>
</svg>
