<svg version="1.0" xmlns="http://www.w3.org/2000/svg"
 width="45.000000pt" height="65.000000pt" viewBox="0 0 45.000000 65.000000"
 preserveAspectRatio="xMidYMid meet">
<metadata>
Created by potrace 1.15, written by Peter Selinger 2001-2017
</metadata>
<g transform="translate(0.000000,65.000000) scale(0.100000,-0.100000)"
fill="#000000" stroke="none">
<path d="M176 413 c-3 -3 -6 -35 -6 -70 0 -49 4 -65 16 -70 8 -3 20 -1 27 6 6
6 23 11 38 11 21 0 28 6 33 26 7 25 -7 54 -25 54 -5 0 -9 -8 -9 -19 0 -18 -33
-35 -44 -23 -3 3 -6 22 -6 43 0 37 -10 55 -24 42z"/>
<path d="M309 315 c-23 -75 -23 -75 -63 -75 -23 0 -58 5 -78 10 -37 11 -37 11
-40 68 -2 45 -7 58 -20 60 -16 3 -18 -6 -18 -83 0 -51 6 -99 14 -120 15 -35
99 -104 128 -105 44 0 21 35 -72 108 -30 24 -20 40 15 24 14 -7 45 -12 69 -12
43 0 43 0 52 -57 5 -31 15 -58 22 -61 9 -3 12 19 12 85 0 50 7 109 15 138 15
49 13 95 -4 95 -5 0 -19 -34 -32 -75z"/>
</g>
</svg>
