<svg version="1.0" xmlns="http://www.w3.org/2000/svg"
 width="67.000000pt" height="77.000000pt" viewBox="0 0 67.000000 77.000000"
 preserveAspectRatio="xMidYMid meet">
<metadata>
Created by potrace 1.15, written by Peter Selinger 2001-2017
</metadata>
<g transform="translate(0.000000,77.000000) scale(0.100000,-0.100000)"
fill="#000000" stroke="none">
<path d="M69 698 c-2 -15 -1 -44 10 -291 9 -186 9 -188 41 -240 19 -32 51 -65
83 -87 51 -34 54 -35 146 -33 136 2 271 27 279 51 6 18 -69 15 -186 -8 -75
-15 -111 -18 -141 -11 -36 8 -91 39 -116 66 -34 36 -50 111 -59 270 -12 196
-20 270 -32 282 -16 16 -24 16 -25 1z"/>
<path d="M254 563 c22 -267 31 -300 93 -322 52 -19 123 -18 187 4 56 19 71 42
25 38 -205 -21 -218 -17 -229 68 -4 30 -6 57 -4 61 2 3 32 9 66 12 165 17 210
52 55 43 -58 -4 -113 -4 -122 -1 -9 4 -15 18 -15 36 0 36 -41 148 -54 148 -5
0 -6 -37 -2 -87z"/>
</g>
</svg>
