<svg version="1.0" xmlns="http://www.w3.org/2000/svg"
 width="59.000000pt" height="75.000000pt" viewBox="0 0 59.000000 75.000000"
 preserveAspectRatio="xMidYMid meet">
<metadata>
Created by potrace 1.15, written by Peter Selinger 2001-2017
</metadata>
<g transform="translate(0.000000,75.000000) scale(0.100000,-0.100000)"
fill="#000000" stroke="none">
<path d="M310 543 c1 -49 2 -94 1 -100 -1 -9 -18 -13 -48 -13 -65 0 -174 -20
-167 -31 3 -5 56 -9 118 -9 113 0 113 0 119 -32 4 -18 9 -43 12 -54 7 -21 3
-22 -97 -28 -134 -9 -158 -14 -158 -33 0 -14 17 -15 140 -10 134 6 141 5 160
-15 11 -12 20 -28 20 -35 0 -7 5 -13 10 -13 19 0 10 -29 -12 -42 -54 -29 -98
-38 -205 -38 -111 0 -135 -7 -91 -27 31 -13 234 -9 281 6 20 7 55 29 77 50 47
45 49 55 37 291 -9 185 -15 220 -33 220 -27 0 -28 -66 -8 -332 7 -101 2 -115
-28 -80 -35 39 -65 120 -77 207 -19 138 -33 205 -43 205 -6 0 -9 -38 -8 -87z"/>
</g>
</svg>
