<svg version="1.0" xmlns="http://www.w3.org/2000/svg"
 width="66.000000pt" height="88.000000pt" viewBox="0 0 66.000000 88.000000"
 preserveAspectRatio="xMidYMid meet">
<metadata>
Created by potrace 1.15, written by Peter Selinger 2001-2017
</metadata>
<g transform="translate(0.000000,88.000000) scale(0.100000,-0.100000)"
fill="#000000" stroke="none">
<path d="M447 592 c-9 -10 -38 -58 -64 -108 -76 -144 -72 -140 -138 -124 -31
7 -58 17 -61 21 -2 5 2 25 11 45 19 47 19 54 -3 54 -28 0 -48 -27 -70 -95 -12
-33 -32 -85 -46 -116 -15 -31 -23 -64 -20 -73 9 -25 78 -68 174 -111 114 -50
179 -68 197 -54 18 16 16 28 -4 36 -10 3 -43 17 -73 31 -30 14 -95 42 -145 62
-86 35 -90 38 -87 65 5 40 40 105 56 105 14 0 125 -41 216 -80 82 -35 128 -45
145 -30 8 7 15 18 15 26 0 15 -72 49 -137 66 -24 6 -46 14 -49 19 -5 9 48 93
67 104 5 4 34 -5 64 -20 61 -31 105 -29 105 5 0 19 -63 60 -93 60 -7 0 -21 6
-30 13 -16 11 -16 14 3 49 30 56 5 93 -33 50z"/>
</g>
</svg>
