<svg version="1.0" xmlns="http://www.w3.org/2000/svg"
 width="47.000000pt" height="117.000000pt" viewBox="0 0 47.000000 117.000000"
 preserveAspectRatio="xMidYMid meet">
<metadata>
Created by potrace 1.15, written by Peter Selinger 2001-2017
</metadata>
<g transform="translate(0.000000,117.000000) scale(0.100000,-0.100000)"
fill="#000000" stroke="none">
<path d="M206 928 c-3 -13 -8 -57 -11 -99 -6 -68 -4 -78 12 -90 11 -8 22 -22
26 -32 5 -15 3 -16 -12 -8 -16 9 -19 6 -25 -27 -12 -73 -7 -117 16 -142 21
-23 21 -23 40 0 20 25 23 40 8 40 -5 0 -10 7 -10 16 0 14 3 14 16 3 10 -8 18
-9 22 -3 4 6 19 26 33 45 26 33 44 89 29 89 -5 0 -22 -16 -39 -35 -53 -61 -60
-51 -55 80 5 105 3 118 -16 150 -25 41 -28 42 -34 13z"/>
<path d="M95 693 c4 -68 11 -102 21 -109 8 -7 11 -14 5 -15 -6 -3 -11 -70 -12
-175 -1 -165 0 -172 25 -221 28 -56 69 -95 91 -87 8 3 24 31 35 62 12 32 29
65 37 75 9 9 13 20 9 24 -4 4 -26 -14 -49 -40 -23 -26 -47 -47 -54 -47 -6 0
-20 16 -32 35 -19 32 -21 60 -12 127 1 8 61 68 127 129 74 68 130 139 108 139
-9 0 -90 -64 -155 -124 -34 -31 -65 -56 -69 -56 -9 0 -20 129 -20 233 0 95
-15 147 -43 147 -18 0 -19 -6 -12 -97z"/>
</g>
</svg>
