<svg version="1.0" xmlns="http://www.w3.org/2000/svg"
 width="101.000000pt" height="137.000000pt" viewBox="0 0 101.000000 137.000000"
 preserveAspectRatio="xMidYMid meet">
<metadata>
Created by potrace 1.15, written by Peter Selinger 2001-2017
</metadata>
<g transform="translate(0.000000,137.000000) scale(0.100000,-0.100000)"
fill="#000000" stroke="none">
<path d="M455 1218 c4 -34 9 -66 12 -71 2 -4 4 -109 4 -234 -1 -170 -4 -229
-13 -235 -10 -6 -10 -12 -1 -27 18 -28 16 -216 -3 -231 -15 -13 -30 -15 -194
-25 -126 -8 -115 -21 -85 105 11 47 30 307 29 390 -2 72 -26 252 -40 297 -15
49 -48 93 -59 81 -3 -3 1 -25 8 -49 33 -101 40 -185 34 -381 -3 -106 -13 -231
-21 -278 -8 -47 -17 -105 -19 -130 -3 -25 -8 -53 -12 -63 -4 -11 -3 -23 4 -30
6 -6 11 -26 11 -44 0 -30 7 -53 34 -113 6 -14 30 -43 53 -65 31 -31 55 -43 95
-52 77 -16 247 -8 368 17 58 11 123 24 145 28 26 5 40 12 40 22 0 24 -39 23
-148 -1 -79 -18 -135 -23 -247 -23 -145 -1 -145 -1 -192 34 -50 38 -88 103
-88 150 0 25 5 31 38 41 20 6 107 13 192 15 85 3 199 9 253 14 54 6 122 10
152 10 63 0 85 7 85 26 0 17 -3 18 -182 14 -115 -2 -150 1 -161 12 -11 10 -13
34 -8 108 6 95 6 95 101 102 52 3 136 9 185 13 88 6 145 20 145 35 0 13 -61
16 -176 8 -235 -15 -214 -16 -238 15 -19 26 -22 45 -28 220 -3 106 -11 212
-17 237 -6 25 -15 61 -19 80 -5 22 -15 36 -26 38 -16 3 -17 -2 -11 -60z"/>
</g>
</svg>
