<svg version="1.0" xmlns="http://www.w3.org/2000/svg"
 width="45.000000pt" height="81.000000pt" viewBox="0 0 45.000000 81.000000"
 preserveAspectRatio="xMidYMid meet">
<metadata>
Created by potrace 1.15, written by Peter Selinger 2001-2017
</metadata>
<g transform="translate(0.000000,81.000000) scale(0.100000,-0.100000)"
fill="#000000" stroke="none">
<path d="M349 603 c-7 -16 -15 -109 -19 -208 -4 -99 -8 -181 -9 -182 -1 -2 -6
-3 -12 -3 -11 0 -37 26 -141 138 -31 34 -64 62 -72 62 -23 0 -20 -14 9 -48 14
-17 25 -32 25 -36 0 -3 27 -33 60 -68 33 -34 60 -65 60 -70 0 -13 -82 -55
-162 -83 -46 -16 -78 -33 -78 -41 0 -8 8 -14 18 -14 20 0 89 23 98 33 4 4 16
7 26 7 10 0 26 4 36 9 9 5 52 25 94 44 42 20 81 44 86 54 5 10 12 90 16 178 3
88 8 181 11 208 5 42 3 47 -15 47 -13 0 -25 -10 -31 -27z"/>
<path d="M256 562 c-2 -9 -7 -33 -11 -52 -10 -52 -16 -70 -23 -70 -4 0 -24 16
-44 35 -71 67 -79 36 -13 -53 46 -63 74 -86 91 -74 12 8 34 124 34 180 0 42
-25 67 -34 34z"/>
</g>
</svg>
