<svg version="1.0" xmlns="http://www.w3.org/2000/svg"
 width="70.000000pt" height="118.000000pt" viewBox="0 0 70.000000 118.000000"
 preserveAspectRatio="xMidYMid meet">
<metadata>
Created by potrace 1.15, written by Peter Selinger 2001-2017
</metadata>
<g transform="translate(0.000000,118.000000) scale(0.100000,-0.100000)"
fill="#000000" stroke="none">
<path d="M335 1040 c-121 -7 -178 -34 -195 -94 -14 -49 -1 -120 27 -147 10
-11 40 -21 68 -25 85 -9 95 -13 95 -34 0 -22 -8 -27 -120 -61 -41 -12 -79 -26
-85 -31 -5 -4 -15 -8 -23 -8 -15 0 -102 -59 -102 -69 0 -3 4 -12 9 -19 6 -10
26 -2 87 35 90 54 191 92 247 93 47 0 173 -34 244 -66 79 -35 102 -39 109 -19
5 12 1 21 -12 28 -27 16 -266 96 -286 97 -11 0 -18 8 -18 20 0 24 35 40 85 40
23 0 43 9 64 29 28 26 31 35 31 88 0 80 -6 97 -43 119 -43 26 -76 30 -182 24z
m153 -58 c7 -9 11 -23 10 -32 -3 -12 -29 -15 -156 -18 -152 -3 -152 -3 -141
22 6 13 21 28 33 32 69 25 233 22 254 -4z m16 -98 c3 -7 -5 -26 -17 -40 -22
-25 -26 -26 -145 -28 -128 -1 -146 5 -154 49 -4 25 27 30 194 32 92 1 118 -2
122 -13z"/>
<path d="M408 582 c-61 -7 -9 -32 100 -48 53 -7 82 -36 82 -81 0 -26 -4 -33
-19 -33 -11 0 -23 5 -26 10 -12 20 -85 50 -120 50 -29 0 -36 -4 -33 -17 2 -10
16 -20 33 -23 45 -10 103 -39 109 -57 11 -28 -5 -34 -76 -27 -58 5 -70 4 -66
-7 7 -22 58 -43 118 -49 55 -5 55 -5 62 -45 4 -22 10 -85 13 -140 5 -100 15
-129 36 -108 10 10 8 211 -4 311 -3 23 -2 42 2 42 10 0 31 61 31 89 0 27 -22
71 -47 92 -31 25 -136 48 -195 41z"/>
<path d="M240 570 c-8 -5 -27 -10 -42 -10 -14 0 -28 -3 -30 -7 -1 -5 -16 -15
-33 -25 -66 -36 -84 -131 -36 -186 26 -31 27 -37 19 -83 -5 -28 -8 -89 -6
-136 2 -68 7 -88 20 -97 9 -5 20 -7 24 -4 3 4 6 55 5 115 -1 144 -2 143 67
144 81 1 106 10 110 38 4 24 3 24 -60 18 -82 -9 -100 2 -72 40 11 15 30 32 42
38 12 5 22 13 22 17 0 5 8 8 19 8 24 0 43 23 35 44 -7 19 -9 19 -32 7 -9 -5
-30 -15 -46 -22 -16 -8 -49 -34 -72 -58 -45 -46 -47 -46 -58 16 -5 31 -4 32
78 72 45 23 90 41 99 41 10 0 17 8 17 20 0 15 -7 20 -27 20 -16 0 -35 -5 -43
-10z"/>
</g>
</svg>
