<svg version="1.0" xmlns="http://www.w3.org/2000/svg"
 width="67.000000pt" height="82.000000pt" viewBox="0 0 67.000000 82.000000"
 preserveAspectRatio="xMidYMid meet">
<metadata>
Created by potrace 1.15, written by Peter Selinger 2001-2017
</metadata>
<g transform="translate(0.000000,82.000000) scale(0.100000,-0.100000)"
fill="#000000" stroke="none">
<path d="M415 599 c-4 -6 -8 -122 -9 -257 -2 -136 -6 -261 -10 -278 -7 -28 -5
-33 14 -39 42 -13 45 3 45 252 0 237 0 237 34 246 25 6 36 5 42 -5 5 -7 9
-108 9 -225 0 -219 5 -245 39 -207 14 17 15 45 11 249 -5 230 -5 230 -72 230
-65 0 -67 1 -61 23 4 17 1 22 -15 22 -12 0 -24 -5 -27 -11z"/>
<path d="M138 563 c-34 -3 -51 -10 -58 -23 -12 -22 -1 -288 11 -296 5 -3 17 0
27 5 17 9 19 20 14 135 -5 125 -5 126 19 135 13 5 27 6 32 2 4 -4 6 -97 5
-207 -3 -199 -3 -199 -65 -202 -59 -3 -63 -4 -63 -27 0 -33 32 -40 113 -26 35
6 82 11 104 11 22 0 45 6 51 13 7 8 14 99 18 225 7 212 7 212 -16 237 -25 26
-53 29 -192 18z m151 -52 c11 -7 13 -42 9 -192 -5 -176 -6 -183 -29 -200 -13
-9 -27 -15 -30 -13 -7 4 -1 378 6 402 5 14 24 15 44 3z"/>
</g>
</svg>
