<svg version="1.0" xmlns="http://www.w3.org/2000/svg"
 width="70.000000pt" height="89.000000pt" viewBox="0 0 70.000000 89.000000"
 preserveAspectRatio="xMidYMid meet">
<metadata>
Created by potrace 1.15, written by Peter Selinger 2001-2017
</metadata>
<g transform="translate(0.000000,89.000000) scale(0.100000,-0.100000)"
fill="#000000" stroke="none">
<path d="M117 562 c-14 -16 -17 -43 -17 -168 0 -193 5 -224 36 -224 22 0 23 4
26 83 3 82 3 82 56 85 52 3 52 3 52 -116 0 -119 0 -119 -39 -130 -21 -7 -66
-12 -100 -12 -69 0 -89 -18 -55 -50 17 -16 31 -17 122 -11 86 5 106 9 118 25
11 16 14 68 14 259 0 145 -4 246 -10 258 -9 17 -22 19 -99 19 -72 0 -91 -3
-104 -18z m153 -106 c0 -75 0 -75 -45 -82 -65 -9 -79 5 -72 78 3 31 8 61 12
67 3 6 28 11 56 11 49 0 49 0 49 -74z"/>
<path d="M395 550 c-3 -11 -3 -44 0 -73 5 -42 3 -57 -9 -70 -20 -19 -20 -27
-1 -63 11 -21 15 -62 15 -145 0 -145 1 -145 125 -155 77 -5 93 -4 104 10 26
31 7 44 -73 48 -43 2 -81 9 -88 16 -9 9 -14 50 -16 121 -4 108 -4 108 52 114
30 3 60 8 66 12 5 3 10 45 10 93 0 75 -3 89 -19 99 -29 18 -39 -2 -43 -77 -3
-60 -5 -65 -30 -74 -15 -5 -31 -6 -35 -2 -5 4 -8 42 -8 84 0 71 -2 77 -22 80
-14 2 -23 -3 -28 -18z"/>
</g>
</svg>
