<svg version="1.0" xmlns="http://www.w3.org/2000/svg"
 width="83.000000pt" height="125.000000pt" viewBox="0 0 83.000000 125.000000"
 preserveAspectRatio="xMidYMid meet">
<metadata>
Created by potrace 1.15, written by Peter Selinger 2001-2017
</metadata>
<g transform="translate(0.000000,125.000000) scale(0.100000,-0.100000)"
fill="#000000" stroke="none">
<path d="M265 1103 c-4 -16 -8 -36 -10 -45 -2 -10 1 -21 6 -24 5 -3 9 -54 9
-114 0 -108 0 -108 -50 -119 -28 -6 -64 -11 -79 -11 -47 0 -91 -12 -90 -24 0
-6 30 -37 67 -68 37 -31 76 -65 88 -75 12 -10 27 -36 35 -58 7 -22 17 -44 21
-49 4 -6 8 -18 8 -28 0 -30 63 -131 73 -117 6 9 47 137 47 150 0 8 6 22 13 31
12 15 17 15 60 1 47 -15 47 -15 47 -94 0 -71 10 -102 28 -85 3 4 5 40 4 81 -1
61 2 76 16 84 16 9 15 11 -4 25 -19 13 -22 28 -26 127 -7 133 -11 140 -91 131
-127 -14 -121 -18 -128 78 -13 158 -22 230 -30 230 -5 0 -11 -12 -14 -27z
m220 -357 c2 -6 6 -44 9 -85 5 -72 5 -73 -17 -66 -12 3 -28 7 -35 7 -8 1 -19
13 -24 27 -6 14 -15 35 -20 46 -5 11 -10 33 -11 50 -2 25 2 30 28 35 36 7 65
1 70 -14z m-229 -18 c-3 -13 -6 -31 -6 -40 0 -24 -26 -22 -63 4 -62 44 -62 47
0 51 32 2 62 4 67 5 4 1 6 -8 2 -20z m100 -23 c16 -47 18 -106 5 -149 -5 -17
-13 -49 -18 -71 -10 -50 -23 -44 -47 20 -23 64 -26 105 -13 183 10 58 12 63
35 60 18 -2 27 -13 38 -43z"/>
<path d="M576 1033 c-4 -16 -7 -65 -8 -110 -1 -93 15 -130 95 -215 64 -69 70
-61 21 27 -64 118 -64 117 -64 203 0 79 -10 122 -30 122 -4 0 -11 -12 -14 -27z"/>
<path d="M604 528 c6 -62 17 -136 36 -249 6 -30 10 -68 10 -85 0 -16 5 -36 10
-44 21 -33 12 121 -19 313 -5 26 -6 47 -3 47 3 0 27 -18 53 -40 66 -55 78 -50
27 12 -109 131 -124 137 -114 46z"/>
</g>
</svg>
