<svg version="1.0" xmlns="http://www.w3.org/2000/svg"
 width="68.000000pt" height="89.000000pt" viewBox="0 0 68.000000 89.000000"
 preserveAspectRatio="xMidYMid meet">
<metadata>
Created by potrace 1.15, written by Peter Selinger 2001-2017
</metadata>
<g transform="translate(0.000000,89.000000) scale(0.100000,-0.100000)"
fill="#000000" stroke="none">
<path d="M435 758 c-3 -13 -6 -54 -7 -93 -3 -70 -3 -70 -64 -73 -61 -3 -62 -2
-83 32 -13 21 -36 40 -57 48 -21 7 -34 19 -34 29 0 31 -12 49 -32 49 -18 0
-19 -4 -14 -35 5 -26 3 -37 -7 -41 -8 -3 -23 -21 -33 -40 -10 -19 -22 -34 -25
-34 -10 0 -49 -129 -49 -161 0 -35 40 -160 56 -176 13 -13 37 -17 46 -8 3 3
-5 27 -18 53 -13 26 -24 64 -24 84 0 32 3 37 30 43 42 9 63 0 83 -38 18 -34
18 -34 -19 -103 -36 -67 -38 -72 -36 -163 1 -88 11 -127 26 -102 4 5 7 36 7
68 1 75 24 176 47 211 11 15 32 47 47 71 28 45 28 45 49 18 12 -15 32 -53 44
-85 13 -31 29 -66 35 -77 6 -11 16 -45 22 -75 15 -73 40 -80 49 -13 7 53 20
98 48 160 10 24 18 47 18 53 0 6 4 18 10 28 5 9 17 35 27 57 9 22 19 43 21 48
2 4 -2 7 -10 7 -7 0 -23 -16 -36 -36 -18 -28 -28 -35 -50 -32 -25 3 -27 7 -30
53 -4 61 11 75 84 75 54 0 75 13 55 33 -7 7 -37 11 -78 8 -66 -3 -66 -3 -59
68 4 39 4 80 1 91 -9 27 -33 25 -40 -2z m-201 -129 c11 -10 36 -78 36 -98 0
-7 -17 2 -40 23 -43 39 -51 41 -81 26 -24 -14 -24 -3 1 38 17 28 24 31 47 26
16 -4 32 -10 37 -15z m187 -88 c4 -3 9 -30 12 -59 6 -55 7 -55 -43 -66 -40 -8
-78 32 -86 92 -6 49 -6 49 52 44 33 -2 62 -7 65 -11z m-216 1 c20 -14 56 -98
49 -115 -9 -24 -16 -22 -55 19 -34 35 -47 38 -92 19 -16 -7 -18 -4 -15 20 5
43 81 81 113 57z m301 -165 c2 -2 -9 -33 -24 -70 -21 -54 -28 -65 -38 -55 -19
20 -63 126 -56 133 6 6 112 -1 118 -8z"/>
</g>
</svg>
