<svg version="1.0" xmlns="http://www.w3.org/2000/svg"
 width="77.000000pt" height="97.000000pt" viewBox="0 0 77.000000 97.000000"
 preserveAspectRatio="xMidYMid meet">
<metadata>
Created by potrace 1.15, written by Peter Selinger 2001-2017
</metadata>
<g transform="translate(0.000000,97.000000) scale(0.100000,-0.100000)"
fill="#000000" stroke="none">
<path d="M534 743 c-9 -42 -45 -133 -55 -139 -12 -7 -11 -101 1 -124 6 -11 11
-57 11 -102 1 -83 -8 -120 -47 -179 -11 -16 -14 -34 -10 -45 7 -18 8 -18 22 1
8 11 22 29 32 40 9 11 28 41 40 66 21 41 23 55 17 115 -17 187 -17 197 4 247
25 58 29 147 6 147 -8 0 -17 -12 -21 -27z"/>
<path d="M665 728 c-10 -24 -26 -61 -36 -83 -26 -59 -32 -160 -14 -247 30
-143 18 -210 -49 -283 -29 -31 -34 -41 -21 -43 24 -5 92 45 111 82 24 47 28
139 10 248 -22 132 -21 149 15 245 17 46 29 91 27 100 -6 32 -25 23 -43 -19z"/>
<path d="M70 633 c0 -13 4 -23 9 -23 10 0 31 -153 31 -223 0 -49 16 -95 39
-113 7 -6 55 -12 105 -13 50 -1 100 -4 111 -7 17 -4 23 3 34 42 10 35 11 55 4
78 -6 17 -12 58 -13 91 0 33 -3 61 -4 62 -2 2 -37 5 -79 8 -80 4 -106 -7 -93
-41 5 -12 17 -15 54 -12 40 2 47 0 46 -14 -1 -10 2 -18 7 -18 5 0 9 -15 9 -33
0 -18 5 -38 10 -43 7 -7 3 -17 -10 -32 -28 -29 -134 -32 -149 -4 -12 23 -31
149 -31 207 0 46 0 46 103 45 133 -2 127 -2 127 15 0 23 -30 33 -135 43 -158
14 -175 13 -175 -15z"/>
</g>
</svg>
