<svg version="1.0" xmlns="http://www.w3.org/2000/svg"
 width="64.000000pt" height="89.000000pt" viewBox="0 0 64.000000 89.000000"
 preserveAspectRatio="xMidYMid meet">
<metadata>
Created by potrace 1.15, written by Peter Selinger 2001-2017
</metadata>
<g transform="translate(0.000000,89.000000) scale(0.100000,-0.100000)"
fill="#000000" stroke="none">
<path d="M274 655 c-9 -36 -32 -45 -112 -45 -50 0 -73 -4 -82 -15 -20 -24 -4
-383 17 -407 21 -23 139 -25 169 -4 25 19 10 25 -76 28 -65 3 -65 3 -72 48
-12 83 -9 297 4 307 7 6 49 13 93 17 95 8 122 26 106 69 -13 34 -39 35 -47 2z"/>
<path d="M375 610 c-7 -12 4 -16 59 -24 22 -3 44 -10 49 -15 14 -14 29 -298
17 -321 -11 -21 -89 -50 -134 -50 -52 0 -60 -12 -64 -94 -3 -46 0 -76 6 -76
21 0 37 36 37 84 0 51 0 51 88 61 123 14 119 6 111 230 -8 215 -8 215 -100
215 -35 0 -66 -5 -69 -10z"/>
<path d="M260 503 c-30 -2 -65 -5 -77 -8 -41 -9 -24 -25 26 -25 36 0 50 -4 55
-17 10 -24 -4 -33 -62 -40 -69 -8 -66 -21 6 -25 57 -3 57 -3 60 -51 3 -48 3
-48 -25 -45 -19 2 -29 10 -33 26 -3 13 -9 24 -15 25 -15 3 -17 -26 -5 -58 10
-28 11 -28 78 -21 137 14 142 15 142 47 0 34 -24 39 -40 8 -7 -13 -19 -19 -33
-17 -19 3 -22 9 -22 48 0 45 0 45 53 48 69 4 67 22 -3 22 -54 0 -55 0 -55 29
0 28 2 30 55 36 30 4 55 11 55 16 0 9 -40 9 -160 2z"/>
</g>
</svg>
