<svg version="1.0" xmlns="http://www.w3.org/2000/svg"
 width="69.000000pt" height="82.000000pt" viewBox="0 0 69.000000 82.000000"
 preserveAspectRatio="xMidYMid meet">
<metadata>
Created by potrace 1.15, written by Peter Selinger 2001-2017
</metadata>
<g transform="translate(0.000000,82.000000) scale(0.100000,-0.100000)"
fill="#000000" stroke="none">
<path d="M244 666 c-3 -8 2 -26 11 -39 15 -24 15 -26 -2 -35 -14 -8 -24 -3
-54 30 -31 33 -43 39 -71 36 -42 -4 -40 -18 6 -41 43 -21 46 -35 9 -42 -80
-16 -101 -34 -90 -77 8 -29 44 -43 65 -26 12 10 11 14 -3 24 -23 17 -10 34 25
34 61 0 43 -40 -40 -88 -44 -26 -60 -40 -60 -54 0 -16 23 -7 92 34 57 34 73
39 87 30 28 -20 90 -52 101 -52 20 0 10 29 -16 47 -15 10 -41 31 -57 47 -30
27 -30 29 -12 42 10 8 27 14 36 14 25 0 49 27 49 54 0 48 -62 98 -76 62z"/>
<path d="M465 670 c-4 -6 -6 -48 -5 -93 1 -45 2 -87 1 -94 -1 -6 -26 -23 -56
-37 -54 -25 -75 -56 -36 -56 25 0 31 -26 31 -152 0 -120 -4 -138 -31 -138 -23
0 -36 -27 -20 -43 8 -8 39 -8 118 2 151 17 153 20 153 191 0 71 -4 140 -9 153
-5 14 -29 38 -53 54 -43 29 -43 29 -46 113 -3 78 -12 110 -33 110 -4 0 -11 -5
-14 -10z m80 -260 c16 -18 19 -39 19 -150 1 -70 -1 -130 -4 -133 -3 -3 -30 -8
-60 -12 -55 -7 -55 -7 -55 102 0 59 -3 127 -8 151 -7 38 -5 43 15 52 38 15 74
11 93 -10z"/>
<path d="M474 379 c-7 -12 4 -208 13 -222 3 -4 11 -3 19 4 10 8 14 37 14 104
0 52 -3 100 -6 109 -7 18 -30 21 -40 5z"/>
<path d="M556 664 c-11 -29 -6 -101 9 -138 18 -42 40 -43 39 -3 -3 156 -3 157
-23 157 -10 0 -22 -7 -25 -16z"/>
<path d="M366 662 c-3 -5 -1 -25 5 -46 8 -29 7 -43 -5 -68 -20 -39 -20 -58 -1
-58 21 0 55 59 55 95 0 50 -37 103 -54 77z"/>
<path d="M179 403 c-1 -5 -2 -71 -3 -148 -1 -140 -1 -140 -28 -143 -33 -4 -37
8 -40 127 -3 86 -16 111 -35 69 -11 -25 -10 -192 1 -220 10 -22 37 -28 142
-28 90 0 118 9 107 36 -3 9 -21 14 -49 14 -39 0 -44 3 -50 26 -8 31 0 40 46
51 45 12 61 43 58 113 -2 41 -7 55 -18 55 -11 0 -16 -14 -18 -50 -2 -32 -9
-55 -19 -62 -33 -25 -40 -15 -48 69 -6 75 -15 97 -37 98 -5 0 -9 -3 -9 -7z"/>
</g>
</svg>
