<svg version="1.0" xmlns="http://www.w3.org/2000/svg"
 width="69.000000pt" height="88.000000pt" viewBox="0 0 69.000000 88.000000"
 preserveAspectRatio="xMidYMid meet">
<metadata>
Created by potrace 1.15, written by Peter Selinger 2001-2017
</metadata>
<g transform="translate(0.000000,88.000000) scale(0.100000,-0.100000)"
fill="#000000" stroke="none">
<path d="M457 663 c-4 -3 -4 -56 -1 -117 7 -111 7 -111 -33 -168 -50 -71 -67
-112 -58 -135 6 -17 8 -16 24 4 18 22 18 22 41 -2 18 -19 20 -27 10 -45 -6
-12 -10 -48 -8 -80 3 -58 3 -58 -67 -63 -115 -10 -153 15 -78 50 31 15 40 26
51 66 10 38 11 51 2 63 -23 27 -37 15 -42 -37 -5 -48 -21 -80 -34 -67 -3 4 -9
40 -12 80 -5 55 -11 73 -22 73 -12 0 -15 -15 -12 -86 1 -47 -2 -99 -8 -115
-11 -28 -12 -28 -26 -10 -8 12 -14 43 -14 78 0 45 -4 60 -16 65 -9 3 -20 0
-25 -8 -11 -17 -9 -125 3 -157 13 -39 48 -44 255 -36 170 6 194 9 191 23 -2
12 -17 17 -53 19 -50 3 -50 3 -50 69 0 67 0 67 45 93 99 58 106 168 13 207
-35 14 -35 14 -33 111 1 53 2 105 1 115 -1 17 -31 24 -44 10z m71 -290 c13
-12 18 -24 14 -35 -7 -17 -9 -16 -40 3 -28 16 -32 22 -22 34 16 19 23 19 48
-2z m-56 -47 c10 -7 22 -24 27 -38 8 -21 6 -29 -10 -44 -16 -14 -19 -14 -19
-2 0 8 -11 25 -25 38 -27 26 -32 46 -12 53 18 8 21 7 39 -7z"/>
<path d="M248 619 c-35 -18 -38 -23 -38 -64 0 -52 -11 -58 -27 -15 -8 21 -18
30 -33 30 -20 0 -22 -3 -15 -37 7 -41 30 -73 51 -73 38 0 20 -47 -45 -122 -42
-47 -52 -78 -27 -78 13 0 38 26 95 100 19 25 19 25 46 0 15 -14 33 -38 42 -53
15 -30 30 -31 46 -5 8 12 -2 26 -42 66 -56 53 -64 84 -24 90 28 4 39 19 46 65
7 46 -15 51 -33 7 -18 -44 -40 -39 -40 9 0 36 3 40 31 46 34 8 49 32 28 46
-18 11 -18 11 -61 -12z"/>
<path d="M566 618 c-2 -7 -9 -28 -15 -47 -17 -52 -13 -80 14 -106 45 -46 84
-17 44 33 -16 21 -20 38 -17 76 2 33 -1 51 -9 53 -7 3 -15 -1 -17 -9z"/>
<path d="M381 569 c-6 -18 -11 -43 -11 -56 0 -13 -5 -34 -11 -45 -14 -27 3
-47 26 -28 15 12 28 51 41 123 5 33 4 37 -14 37 -14 0 -24 -10 -31 -31z"/>
</g>
</svg>
