<svg version="1.0" xmlns="http://www.w3.org/2000/svg"
 width="75.000000pt" height="84.000000pt" viewBox="0 0 75.000000 84.000000"
 preserveAspectRatio="xMidYMid meet">
<metadata>
Created by potrace 1.15, written by Peter Selinger 2001-2017
</metadata>
<g transform="translate(0.000000,84.000000) scale(0.100000,-0.100000)"
fill="#000000" stroke="none">
<path d="M475 680 c-4 -6 -5 -68 -4 -138 3 -126 3 -126 -39 -135 -26 -5 -46
-16 -53 -29 -7 -13 -10 -72 -7 -163 4 -176 9 -185 102 -185 88 1 144 14 172
41 25 24 25 25 22 161 -4 163 -11 177 -97 186 -50 4 -50 4 -53 136 -3 112 -5
131 -20 134 -9 2 -19 -2 -23 -8z m120 -320 c13 -14 18 -37 18 -84 0 -36 -1
-68 -4 -70 -2 -2 -17 -6 -34 -8 -28 -3 -30 -1 -40 47 -15 72 -19 77 -71 69
-42 -6 -44 -5 -44 19 0 24 4 26 58 32 31 4 62 8 67 10 22 7 33 4 50 -15z
m-112 -140 c13 -64 23 -72 79 -68 52 3 60 -6 31 -40 -13 -15 -35 -23 -83 -27
-82 -8 -93 1 -98 91 -5 71 7 97 42 92 16 -2 23 -14 29 -48z"/>
<path d="M115 653 c-11 -2 -30 -6 -42 -9 -29 -6 -30 -40 -2 -49 11 -4 31 -4
44 -1 46 12 55 -1 55 -75 0 -66 -1 -69 -24 -69 -24 0 -36 21 -36 66 0 31 -24
48 -39 30 -9 -10 -10 -32 -6 -71 8 -61 22 -75 75 -75 31 0 31 0 28 -152 -3
-145 -4 -153 -23 -153 -18 0 -21 10 -30 120 -8 96 -13 120 -25 120 -16 0 -27
-70 -29 -196 -1 -92 8 -99 131 -99 74 0 98 3 108 15 18 21 3 33 -45 37 -37 3
-40 5 -43 35 -3 31 -2 33 30 33 53 0 70 19 76 83 6 79 -4 127 -28 127 -17 0
-19 -9 -22 -77 -3 -70 -5 -78 -23 -78 -18 0 -20 8 -23 92 -3 92 -3 92 32 99
51 9 68 42 72 138 4 86 -4 113 -30 103 -13 -5 -16 -24 -16 -102 0 -95 0 -95
-29 -95 -28 0 -28 0 -33 87 -4 74 -8 89 -27 105 -23 18 -36 20 -76 11z"/>
<path d="M584 647 c-3 -8 -4 -54 -2 -103 3 -88 3 -89 28 -89 23 0 25 4 28 50
2 28 1 74 -3 103 -5 43 -10 52 -26 52 -11 0 -22 -6 -25 -13z"/>
<path d="M377 643 c-9 -8 -9 -156 -1 -177 3 -9 12 -16 19 -16 28 0 36 158 9
184 -18 18 -18 18 -27 9z"/>
</g>
</svg>
