<svg version="1.0" xmlns="http://www.w3.org/2000/svg"
 width="66.000000pt" height="94.000000pt" viewBox="0 0 66.000000 94.000000"
 preserveAspectRatio="xMidYMid meet">
<metadata>
Created by potrace 1.15, written by Peter Selinger 2001-2017
</metadata>
<g transform="translate(0.000000,94.000000) scale(0.100000,-0.100000)"
fill="#000000" stroke="none">
<path d="M176 798 c-7 -18 -30 -49 -50 -67 -54 -52 -49 -79 9 -41 43 28 52 25
47 -16 -4 -31 -2 -35 14 -32 11 2 22 17 28 36 8 30 12 32 38 27 36 -8 36 5 -1
47 -15 18 -33 43 -40 56 -16 30 -28 28 -45 -10z"/>
<path d="M383 780 c-40 -47 -40 -50 -8 -50 18 0 26 -7 31 -25 8 -33 19 -32 34
6 9 21 17 28 29 24 33 -13 81 -17 81 -7 0 5 -20 22 -44 36 -24 14 -46 32 -50
41 -10 26 -40 16 -73 -25z"/>
<path d="M295 668 c3 -8 18 -22 34 -31 22 -13 27 -22 23 -42 -4 -23 -8 -25
-38 -19 -40 7 -45 -7 -9 -30 14 -9 25 -21 25 -26 0 -13 -37 -13 -45 0 -9 14
-25 12 -25 -3 0 -7 12 -21 26 -32 21 -16 24 -24 19 -52 -7 -41 7 -43 35 -3 12
17 30 30 42 30 11 0 33 9 50 21 16 12 31 20 32 18 2 -2 11 -18 20 -36 19 -37
50 -57 74 -48 15 6 15 8 -4 24 -33 27 -44 55 -44 118 0 85 -14 100 -97 106
-38 3 -80 8 -96 12 -21 6 -26 4 -22 -7z m169 -64 c3 -9 6 -28 6 -44 0 -24 -6
-30 -45 -43 -25 -9 -45 -14 -45 -12 0 2 14 17 30 33 17 17 30 36 30 42 0 8
-10 9 -30 5 -26 -6 -30 -4 -30 14 0 18 6 21 39 21 26 0 41 -5 45 -16z"/>
<path d="M158 613 c-24 -6 -23 -20 2 -33 15 -8 20 -21 20 -53 0 -49 -7 -62
-38 -72 -36 -11 -20 -30 29 -33 79 -5 129 27 74 48 -22 8 -25 15 -25 58 0 42
3 50 25 60 14 6 25 16 25 22 0 10 -78 12 -112 3z"/>
<path d="M464 414 c23 -60 9 -100 -16 -47 -14 29 -62 62 -73 51 -4 -4 5 -22
19 -41 25 -33 34 -67 18 -67 -4 0 -18 7 -30 16 -29 20 -36 14 -21 -20 7 -15
26 -31 46 -38 25 -9 33 -18 33 -38 1 -32 32 -100 56 -121 25 -22 61 -32 68
-20 4 5 -5 21 -18 34 -30 30 -66 99 -66 126 0 11 11 31 25 45 30 30 32 60 5
104 -20 33 -58 46 -46 16z"/>
<path d="M154 335 c-19 -47 -18 -55 13 -87 26 -27 27 -30 16 -82 -6 -30 -24
-73 -38 -96 -32 -50 -22 -73 19 -46 35 23 58 71 67 138 5 45 13 62 37 85 17
15 34 40 38 56 7 30 -6 36 -26 12 -20 -25 -29 -17 -23 20 4 23 2 35 -6 35 -7
0 -19 -16 -27 -35 -8 -19 -17 -35 -20 -35 -4 0 -4 16 -1 35 5 30 3 35 -14 35
-13 0 -25 -12 -35 -35z"/>
</g>
</svg>
