<svg version="1.0" xmlns="http://www.w3.org/2000/svg"
 width="67.000000pt" height="105.000000pt" viewBox="0 0 67.000000 105.000000"
 preserveAspectRatio="xMidYMid meet">
<metadata>
Created by potrace 1.15, written by Peter Selinger 2001-2017
</metadata>
<g transform="translate(0.000000,105.000000) scale(0.100000,-0.100000)"
fill="#000000" stroke="none">
<path d="M110 903 c0 -20 55 -51 139 -80 25 -8 62 -31 81 -51 37 -38 63 -86
53 -96 -9 -9 -41 -7 -61 3 -80 40 -109 52 -144 58 -56 8 -48 -11 28 -64 69
-49 135 -83 164 -83 11 0 20 -3 21 -7 0 -5 2 -21 5 -38 9 -64 -11 -88 -54 -66
-142 74 -164 81 -177 60 -8 -11 81 -99 117 -116 13 -6 44 -17 70 -23 47 -12
47 -12 53 -69 3 -31 10 -86 15 -123 6 -37 10 -85 10 -108 0 -28 5 -43 16 -47
26 -10 35 18 28 82 -4 33 -7 68 -6 77 0 10 -3 20 -8 23 -5 3 -7 42 -4 88 4 79
6 83 40 112 112 96 139 125 124 135 -25 16 -43 11 -80 -23 -19 -18 -47 -40
-62 -50 -28 -17 -28 -17 -28 44 0 61 1 63 48 108 88 85 139 181 97 181 -15 0
-65 -43 -65 -55 0 -13 -65 -75 -78 -75 -7 0 -22 20 -33 45 -40 90 -131 148
-266 170 -38 6 -43 4 -43 -12z"/>
</g>
</svg>
