<svg version="1.0" xmlns="http://www.w3.org/2000/svg"
 width="69.000000pt" height="93.000000pt" viewBox="0 0 69.000000 93.000000"
 preserveAspectRatio="xMidYMid meet">
<metadata>
Created by potrace 1.15, written by Peter Selinger 2001-2017
</metadata>
<g transform="translate(0.000000,93.000000) scale(0.100000,-0.100000)"
fill="#000000" stroke="none">
<path d="M143 788 c-4 -7 -6 -49 -5 -93 2 -60 8 -87 22 -107 21 -28 19 -42
-15 -126 -18 -44 -10 -72 21 -72 31 0 107 -100 90 -118 -3 -2 -22 3 -43 13
-50 24 -98 34 -113 25 -10 -6 -8 -15 7 -36 11 -16 35 -58 53 -93 17 -35 42
-75 55 -89 21 -23 25 -24 31 -9 3 10 -3 41 -15 69 -21 51 -21 72 1 50 7 -7 27
-12 46 -12 34 0 34 0 29 63 -2 34 -11 91 -19 127 -9 36 -18 89 -22 118 -6 48
-5 52 14 52 33 0 37 30 8 54 -21 18 -24 27 -20 63 4 38 8 44 36 51 17 5 31 15
31 22 0 29 -176 72 -192 48z m67 -77 c0 -11 -4 -23 -10 -26 -6 -4 -10 5 -10
19 0 14 5 26 10 26 6 0 10 -9 10 -19z"/>
<path d="M361 767 c-10 -13 1 -42 16 -42 4 -1 21 -4 38 -9 52 -14 59 -44 18
-82 -28 -25 -28 -25 -6 -42 12 -9 23 -30 25 -47 4 -37 18 -37 39 1 15 28 25
31 59 23 12 -3 16 12 18 84 2 62 -1 91 -10 101 -19 18 -183 29 -197 13z"/>
</g>
</svg>
