<svg version="1.0" xmlns="http://www.w3.org/2000/svg"
 width="97.000000pt" height="103.000000pt" viewBox="0 0 97.000000 103.000000"
 preserveAspectRatio="xMidYMid meet">
<metadata>
Created by potrace 1.15, written by Peter Selinger 2001-2017
</metadata>
<g transform="translate(0.000000,103.000000) scale(0.100000,-0.100000)"
fill="#000000" stroke="none">
<path d="M628 844 c-54 -23 -55 -40 -3 -76 25 -18 45 -36 45 -40 0 -5 9 -27
19 -51 30 -68 41 -107 41 -153 0 -24 5 -54 11 -68 9 -20 9 -29 -1 -41 -10 -12
-13 -41 -10 -98 5 -131 2 -162 -19 -201 -21 -37 -28 -86 -13 -86 13 0 68 63
86 99 22 42 29 106 18 165 -12 62 -4 90 46 156 67 88 87 136 87 204 0 48 -5
68 -24 96 -55 80 -88 100 -179 106 -48 3 -78 0 -104 -12z m153 -78 c30 -8 71
-74 76 -119 4 -32 -1 -55 -16 -86 -23 -44 -41 -47 -41 -6 0 28 -47 175 -61
190 -5 5 -9 17 -9 27 0 14 4 16 18 9 9 -5 24 -12 33 -15z"/>
<path d="M185 794 c-9 -9 -15 -26 -13 -38 3 -18 10 -21 63 -23 79 -3 206 16
224 33 12 11 12 16 1 28 -19 24 -251 23 -275 0z"/>
<path d="M483 736 c-13 -6 -23 -17 -23 -24 0 -36 -33 -79 -76 -100 -24 -12
-51 -22 -59 -22 -24 0 -95 24 -95 32 0 5 -6 8 -14 8 -8 0 -23 14 -33 30 -13
23 -24 30 -49 30 -18 0 -39 -3 -48 -6 -18 -7 -22 -34 -5 -34 7 0 9 -8 4 -22
-11 -35 -24 -168 -18 -184 15 -40 63 5 63 60 0 12 6 31 14 41 13 17 15 18 37
3 21 -14 26 -28 37 -119 6 -57 12 -143 12 -190 0 -82 -1 -87 -22 -92 -13 -4
-31 -12 -42 -20 -15 -11 -16 -17 -6 -33 13 -21 59 -23 163 -8 33 5 47 3 47 -5
0 -7 8 -6 24 4 13 9 53 19 88 23 59 7 63 9 66 34 3 22 -2 30 -21 37 -22 8 -26
21 -42 106 -9 52 -15 102 -12 110 3 7 1 15 -5 17 -14 5 -28 86 -22 123 3 17
18 45 33 63 28 32 28 32 57 -25 21 -41 35 -58 49 -58 32 0 31 52 -3 126 -16
35 -32 74 -36 87 -8 24 -27 26 -63 8z m-86 -312 c8 -43 18 -101 24 -129 6 -27
9 -66 7 -85 -3 -34 -3 -34 -64 -38 -61 -4 -61 -4 -67 35 -4 21 -7 97 -7 170 0
131 0 131 28 141 47 17 65 -4 79 -94z"/>
</g>
</svg>
