<svg version="1.0" xmlns="http://www.w3.org/2000/svg"
 width="71.000000pt" height="115.000000pt" viewBox="0 0 71.000000 115.000000"
 preserveAspectRatio="xMidYMid meet">
<metadata>
Created by potrace 1.15, written by Peter Selinger 2001-2017
</metadata>
<g transform="translate(0.000000,115.000000) scale(0.100000,-0.100000)"
fill="#000000" stroke="none">
<path d="M138 976 c-16 -53 -14 -111 3 -100 5 3 9 19 9 35 0 17 4 38 9 47 17
35 22 72 8 72 -7 0 -20 -24 -29 -54z"/>
<path d="M516 942 c4 -27 1 -49 -11 -71 -19 -38 -13 -51 15 -33 28 17 28 17
40 -29 10 -35 8 -46 -10 -85 -12 -24 -26 -44 -31 -44 -5 0 -9 -5 -9 -11 0 -11
-29 -44 -33 -38 -1 2 -9 15 -17 29 -8 15 -15 54 -16 95 -1 39 -2 76 -3 83 -2
17 -31 15 -31 -3 0 -8 -4 -15 -9 -15 -5 0 -12 -15 -16 -32 -4 -18 -18 -50 -31
-70 -13 -21 -24 -44 -24 -52 0 -8 -4 -18 -10 -21 -6 -3 -10 -23 -10 -43 0 -53
-17 -105 -52 -165 -28 -48 -29 -54 -23 -127 4 -42 11 -83 16 -91 18 -28 29 13
23 81 -4 51 -2 74 13 105 18 40 18 40 21 -85 2 -71 -2 -141 -8 -162 -14 -50 1
-84 30 -68 11 6 20 14 20 18 0 5 8 17 18 28 9 11 22 29 28 39 19 34 33 27 65
-37 17 -35 35 -65 40 -66 5 -2 9 -10 9 -18 0 -19 53 -45 71 -34 11 7 13 34 12
126 -2 111 -2 116 16 100 26 -24 41 -19 41 13 0 16 9 50 19 74 19 45 19 45
-11 86 -16 23 -33 41 -38 41 -11 0 -20 35 -25 95 -3 28 -9 65 -14 83 -8 27 -6
40 10 68 10 19 19 50 19 68 0 51 -62 195 -88 204 -9 3 -11 -7 -6 -36z m-100
-309 c7 -10 14 -33 14 -50 0 -32 -1 -33 -40 -33 -47 0 -52 16 -20 68 23 37 28
39 46 15z m136 -48 c3 -27 0 -30 -26 -33 -43 -5 -49 10 -19 46 29 36 40 33 45
-13z m-136 -91 c-3 -9 -6 -31 -6 -50 0 -33 -2 -35 -27 -32 -24 2 -29 8 -31 36
-5 49 3 62 39 62 24 0 30 -3 25 -16z m110 8 c39 -27 19 -82 -30 -82 -18 0 -35
2 -38 5 -3 3 0 23 6 45 10 40 33 52 62 32z m90 -89 c19 -26 18 -103 -1 -103
-19 0 -35 40 -35 86 0 37 15 44 36 17z m-88 -70 c-3 -36 -5 -38 -40 -41 -37
-3 -38 -3 -38 32 0 37 9 44 53 45 27 1 28 -1 25 -36z m-118 -7 c0 -26 -5 -35
-21 -39 -15 -4 -23 1 -30 21 -13 35 -5 52 26 52 22 0 25 -4 25 -34z m134 -88
c20 -103 28 -169 21 -176 -4 -4 -10 -2 -12 5 -2 7 -22 39 -43 71 -53 83 -56
96 -23 109 43 17 52 15 57 -9z m-154 2 c0 -16 -23 -60 -32 -60 -4 0 -8 16 -8
35 0 28 4 35 20 35 11 0 20 -4 20 -10z"/>
<path d="M201 827 c-6 -6 -11 -15 -11 -20 0 -5 -8 -21 -18 -35 -32 -47 -44
-103 -38 -177 23 -274 23 -313 0 -527 -4 -43 -3 -68 3 -68 12 0 47 111 62 196
14 78 14 204 0 280 -25 133 -15 237 29 282 29 31 3 99 -27 69z"/>
<path d="M76 494 c-8 -20 -8 -168 0 -188 3 -9 12 -16 19 -16 17 0 30 112 21
175 -7 45 -28 61 -40 29z"/>
</g>
</svg>
