<svg version="1.0" xmlns="http://www.w3.org/2000/svg"
 width="177.000000pt" height="307.000000pt" viewBox="0 0 177.000000 307.000000"
 preserveAspectRatio="xMidYMid meet">
<metadata>
Created by potrace 1.15, written by Peter Selinger 2001-2017
</metadata>
<g transform="translate(0.000000,307.000000) scale(0.100000,-0.100000)"
fill="#000000" stroke="none">
<path d="M9 3058 c-4 -65 2 -3052 6 -3056 3 -3 8 -2 13 2 4 4 8 366 8 804 2
813 3 994 5 1047 1 36 0 958 -2 1000 0 17 2 48 4 70 8 61 -3 145 -19 145 -8 0
-14 -6 -15 -12z"/>
<path d="M1750 3043 c3 -396 -19 -2926 -25 -2932 -3 -2 -28 11 -57 28 -38 23
-62 48 -85 87 -18 31 -33 61 -33 68 0 7 -4 16 -9 22 -4 5 -14 37 -21 72 -11
52 -11 78 0 148 23 149 -6 197 -149 243 -48 15 -61 14 -61 -8 0 -12 12 -23 33
-31 83 -31 103 -43 115 -67 13 -28 17 -105 5 -116 -3 -4 -19 10 -34 31 -34 47
-99 82 -151 82 -53 0 -46 -19 18 -45 55 -22 60 -27 92 -72 29 -41 28 -69 -5
-98 -41 -36 -89 -33 -130 7 -18 17 -35 29 -39 26 -9 -10 23 -64 52 -87 30 -24
93 -38 103 -24 3 6 20 13 37 17 29 6 31 5 42 -31 6 -21 14 -56 18 -78 9 -54
64 -144 111 -181 35 -29 73 -42 131 -47 17 -2 22 -8 22 -29 0 -30 20 -40 21
-10 5 189 11 828 16 1820 4 914 3 1232 -6 1232 -6 0 -11 -12 -11 -27z"/>
<path d="M845 2910 c-3 -5 -1 -18 5 -29 13 -25 13 -67 0 -92 -15 -28 -110 -28
-110 0 0 21 -38 50 -57 44 -7 -3 -13 -11 -13 -20 0 -8 -8 -27 -19 -41 -28 -39
-50 -114 -85 -287 -15 -73 -23 -315 -12 -334 6 -9 22 -156 56 -496 5 -55 14
-122 20 -150 6 -27 13 -95 16 -150 3 -55 10 -114 15 -131 5 -17 10 -107 10
-201 0 -196 -12 -243 -81 -327 -22 -26 -40 -54 -40 -62 0 -17 52 -32 58 -16 2
7 12 12 22 12 10 0 21 4 24 8 2 4 34 23 71 41 36 18 85 51 108 73 47 43 41 45
103 -34 25 -31 111 -88 135 -88 9 0 22 -7 29 -15 7 -9 21 -13 31 -10 11 4 19
2 19 -3 0 -14 32 -24 43 -13 8 8 -16 67 -34 81 -6 5 -32 60 -56 121 -14 32
-17 277 -5 292 5 7 12 28 16 47 4 19 11 58 17 85 10 50 17 93 38 215 15 86 37
250 51 380 6 58 14 120 16 137 10 66 20 389 13 439 -4 27 -15 70 -26 95 -11
24 -27 64 -37 89 -21 52 -23 55 -72 135 -42 69 -122 148 -176 176 -20 10 -39
23 -43 29 -8 13 -42 13 -50 0z m156 -163 c42 -44 109 -146 109 -166 0 -6 4
-11 8 -11 12 0 32 -70 32 -110 0 -47 -69 -110 -147 -134 -32 -10 -66 -22 -75
-27 -26 -13 -156 -11 -197 4 -46 15 -99 73 -107 115 -11 57 13 199 50 286 14
33 19 37 38 30 13 -4 47 -8 75 -8 57 1 81 15 111 66 15 26 17 27 40 12 13 -8
41 -34 63 -57z m187 -501 c3 -102 1 -109 -20 -128 -32 -27 -76 -44 -135 -53
-44 -6 -53 -4 -79 18 -24 21 -28 31 -26 68 5 92 8 96 77 119 35 12 65 24 67
28 5 12 92 61 103 58 6 -1 11 -50 13 -110z m-542 59 c42 -42 103 -63 190 -64
26 -1 33 -6 39 -28 21 -82 14 -144 -19 -165 -21 -14 -174 1 -208 20 -33 19
-33 19 -36 140 -1 67 0 122 3 122 3 0 17 -11 31 -25z m541 -329 c-4 -40 -9
-80 -12 -89 -7 -17 -47 -26 -145 -33 -74 -6 -96 7 -101 61 -6 80 1 85 139 106
45 7 82 16 82 21 0 4 10 8 21 8 21 0 22 -3 16 -74z m-489 23 c13 -5 61 -9 108
-9 84 0 84 0 84 -46 0 -25 -5 -54 -10 -65 -34 -62 -220 -65 -244 -4 -3 9 -6
39 -6 65 0 27 -5 52 -10 55 -6 4 -8 11 -5 16 6 9 38 4 83 -12z m466 -231 c-4
-35 -8 -66 -11 -70 -8 -15 -81 -28 -157 -28 -67 0 -77 2 -72 16 3 9 6 37 6 64
0 48 0 48 63 53 83 6 137 14 144 21 4 3 13 6 20 6 11 0 13 -13 7 -62z m-378
22 c104 0 104 0 104 -59 0 -35 -5 -62 -12 -68 -25 -18 -94 -35 -128 -30 -68 9
-75 15 -88 70 -17 74 -16 101 4 93 9 -3 63 -6 120 -6z m364 -172 c0 -62 -9
-76 -59 -92 -25 -8 -71 -16 -101 -18 -55 -3 -55 -3 -58 53 -3 56 -3 56 90 63
51 4 97 11 103 17 17 17 25 9 25 -23z m-260 -67 c0 -59 0 -59 -37 -65 -119
-18 -131 -18 -152 3 -12 12 -22 35 -22 51 -1 17 -2 35 -3 42 -1 8 19 11 66 9
38 -1 69 2 73 8 3 6 22 11 41 11 34 0 34 0 34 -59z m239 -83 c-3 -70 -12 -91
-49 -104 -40 -14 -109 -18 -127 -6 -6 4 -12 26 -11 49 0 41 1 41 42 46 72 10
105 19 117 33 19 23 29 16 28 -18z m-239 -68 c0 -35 -4 -42 -27 -51 -16 -6
-58 -14 -94 -16 -63 -5 -66 -4 -72 18 -4 13 -7 36 -7 51 0 27 1 27 73 31 39 1
84 4 100 5 25 2 27 -1 27 -38z m220 -85 c0 -8 -4 -34 -10 -57 -5 -24 -12 -55
-15 -70 -7 -35 -48 -57 -115 -60 -21 -1 -25 12 -26 92 -2 90 -2 90 61 90 35 0
67 5 70 10 10 15 35 12 35 -5z m-216 -71 c3 -26 6 -62 6 -80 0 -33 -1 -34 -42
-36 -72 -3 -122 3 -135 15 -11 12 -16 45 -14 102 1 31 1 31 67 27 41 -3 70 0
77 7 22 22 34 11 41 -35z m165 -176 c-5 -18 -9 -84 -10 -148 -1 -114 10 -182
39 -227 13 -22 13 -22 -20 -10 -37 13 -158 130 -158 153 0 8 -4 14 -10 14 -5
0 -10 7 -10 15 0 8 -4 15 -10 15 -5 0 -10 -8 -10 -17 0 -40 -142 -164 -185
-162 -11 0 -14 3 -7 6 6 2 12 20 12 39 0 20 5 44 10 55 13 23 17 63 19 192 1
97 1 97 124 92 67 -3 142 -2 167 4 25 5 48 9 52 10 4 1 2 -14 -3 -31z"/>
<path d="M861 2522 c-12 -22 9 -52 36 -52 21 0 49 42 40 58 -11 16 -66 12 -76
-6z"/>
<path d="M1210 1440 c0 -5 5 -10 10 -10 6 0 10 5 10 10 0 6 -4 10 -10 10 -5 0
-10 -4 -10 -10z"/>
<path d="M430 888 c-114 -50 -108 -46 -134 -102 -15 -31 -19 -68 -21 -191 -3
-150 -3 -154 -34 -212 -34 -63 -138 -178 -172 -188 -27 -9 -24 -25 4 -25 43 0
177 87 177 115 0 6 9 20 20 30 11 10 20 26 20 37 0 10 4 18 9 18 5 0 12 16 15
35 19 111 11 99 83 113 36 7 79 20 96 30 32 17 32 17 -55 20 -100 3 -106 10
-68 77 30 54 60 81 105 95 41 13 58 28 49 42 -7 11 -84 -1 -111 -18 -12 -8
-27 -14 -34 -14 -6 0 -19 -10 -29 -22 -23 -28 -29 -23 -23 19 7 46 53 89 102
98 47 8 73 31 50 46 -17 11 -17 11 -49 -3z"/>
</g>
</svg>
