<svg version="1.0" xmlns="http://www.w3.org/2000/svg"
 width="101.000000pt" height="167.000000pt" viewBox="0 0 101.000000 167.000000"
 preserveAspectRatio="xMidYMid meet">
<metadata>
Created by potrace 1.15, written by Peter Selinger 2001-2017
</metadata>
<g transform="translate(0.000000,167.000000) scale(0.100000,-0.100000)"
fill="#000000" stroke="none">
<path d="M575 1540 c-22 -5 -60 -9 -85 -11 -25 -1 -49 -5 -55 -9 -5 -4 -37
-12 -70 -19 -33 -7 -70 -17 -83 -22 -13 -5 -39 -9 -58 -9 -28 0 -44 -8 -72
-37 -41 -42 -62 -75 -62 -98 0 -8 -4 -23 -9 -33 -34 -62 -60 -460 -42 -627 6
-55 13 -152 16 -215 13 -235 62 -368 142 -386 16 -3 69 -20 118 -37 78 -27
107 -32 215 -35 86 -3 163 1 245 13 145 21 166 26 179 48 22 36 -22 41 -166
21 -38 -6 -38 -6 -38 65 0 49 4 71 13 72 34 4 57 6 112 7 33 1 67 7 75 12 13
9 11 13 -10 30 -23 18 -41 20 -197 20 -203 0 -259 9 -360 58 -66 33 -93 150
-78 345 7 94 7 94 54 116 26 11 55 21 63 21 9 0 33 18 54 40 21 22 43 40 49
40 6 0 28 -9 50 -20 22 -11 56 -20 76 -20 36 0 36 -1 43 -46 12 -91 11 -94
-36 -94 -47 0 -58 5 -74 34 -6 11 -15 21 -20 23 -12 4 -34 -45 -34 -76 0 -26
-14 -75 -37 -128 -17 -39 -16 -44 3 -72 16 -22 16 -22 40 -1 21 20 28 22 81
14 57 -9 58 -10 55 -39 -3 -41 12 -63 31 -47 8 7 20 26 27 42 11 27 17 30 55
30 59 0 133 -33 145 -64 8 -22 37 -46 55 -46 4 0 5 15 2 33 -3 17 -10 63 -16
100 -14 88 -11 271 5 302 10 19 10 31 -1 61 -7 21 -18 40 -23 42 -6 2 -20 -17
-32 -42 -17 -38 -25 -46 -48 -46 -45 0 -102 20 -102 35 0 8 4 15 8 15 13 0 47
32 60 57 26 48 8 56 -42 18 -18 -14 -38 -25 -44 -25 -9 0 -62 94 -62 112 0 4
12 8 27 8 36 0 113 38 113 57 0 12 -10 13 -57 7 -32 -4 -85 -8 -118 -9 -74 -3
-76 -3 -95 -15 -12 -7 -3 -20 46 -67 60 -58 84 -96 66 -107 -13 -8 -73 13 -97
34 -23 21 -65 34 -155 50 -87 16 -98 27 -92 92 4 41 12 60 36 85 30 32 36 34
136 43 58 5 152 12 209 15 57 3 108 8 113 11 4 3 8 13 8 24 0 14 -10 20 -48
25 -26 3 -55 5 -63 3 -11 -2 -13 8 -12 47 5 102 10 115 46 115 69 0 76 39 11
57 -47 13 -134 14 -189 3z m71 -131 c-4 -39 -10 -77 -12 -84 -4 -8 -33 -16
-77 -20 -40 -3 -84 -8 -99 -11 -28 -6 -28 -6 -28 74 0 94 -2 93 115 102 44 4
86 7 94 8 11 2 12 -12 7 -69z m-292 25 c13 -5 16 -22 16 -85 0 -53 -4 -79 -12
-79 -20 0 -78 -50 -94 -83 -9 -18 -18 -33 -19 -35 -5 -5 -89 40 -97 51 -4 6
-4 25 -2 42 7 35 45 117 52 110 3 -3 10 5 16 17 6 13 25 27 41 33 17 5 32 13
35 16 3 4 14 9 25 12 11 2 21 5 22 6 1 0 8 -2 17 -5z m-150 -336 c32 -14 38
-44 34 -158 -3 -85 -3 -85 -41 -91 -21 -3 -49 -4 -63 -1 -22 4 -24 9 -24 57 0
28 3 86 6 128 7 76 7 77 35 77 15 0 39 -5 53 -12z m144 -167 c3 -31 -9 -50
-30 -51 -5 0 -8 21 -8 46 0 38 3 45 18 42 11 -2 18 -14 20 -37z m117 10 c-6
-5 -20 -12 -32 -16 -17 -5 -23 -2 -23 9 0 11 10 16 32 16 19 0 28 -4 23 -9z
m391 -157 c24 -12 34 -23 34 -39 0 -27 -22 -35 -84 -28 -48 6 -53 13 -40 61 8
27 41 29 90 6z m-609 -177 c1 -146 3 -168 23 -210 12 -25 19 -50 16 -55 -3 -5
-24 -15 -48 -22 -24 -8 -53 -20 -66 -28 -21 -14 -22 -13 -22 26 0 23 -4 43 -9
46 -5 3 -8 21 -6 38 1 18 -1 60 -6 93 -5 33 -11 108 -15 167 -6 106 -6 106 63
107 70 0 70 0 70 -162z m432 64 c21 -1 23 -4 16 -38 -9 -47 -18 -53 -75 -47
-54 7 -54 7 -41 32 6 12 11 30 11 41 0 17 5 20 33 17 17 -2 43 -4 56 -5z m184
-20 c18 -7 26 -20 31 -46 4 -21 5 -39 3 -42 -3 -2 -37 -1 -76 3 -67 6 -71 8
-71 31 0 58 45 80 113 54z m-477 -373 c44 -22 44 -22 44 -99 0 -91 -4 -95 -86
-73 -74 19 -116 39 -145 70 -20 21 -21 26 -8 39 13 13 137 84 148 85 2 0 23
-10 47 -22z m280 -70 c4 -4 7 -37 8 -73 1 -65 1 -65 -54 -65 -30 0 -72 3 -92
6 -38 7 -38 7 -38 70 0 36 4 64 10 64 6 0 10 8 10 19 0 18 2 18 74 2 41 -9 78
-19 82 -23z"/>
</g>
</svg>
