<svg version="1.0" xmlns="http://www.w3.org/2000/svg"
 width="68.000000pt" height="87.000000pt" viewBox="0 0 68.000000 87.000000"
 preserveAspectRatio="xMidYMid meet">
<metadata>
Created by potrace 1.15, written by Peter Selinger 2001-2017
</metadata>
<g transform="translate(0.000000,87.000000) scale(0.100000,-0.100000)"
fill="#000000" stroke="none">
<path d="M380 611 c0 -68 0 -68 -61 -75 -34 -3 -88 -6 -120 -6 -59 0 -59 0
-59 33 0 46 9 53 63 59 53 6 74 19 62 38 -13 21 -135 3 -162 -22 -23 -21 -23
-24 -23 -299 0 -161 4 -280 9 -284 5 -3 17 5 25 17 13 18 16 51 16 155 0 152
-17 137 167 148 114 7 101 15 118 -70 4 -17 0 -27 -15 -35 -33 -18 -51 -76
-48 -155 2 -38 8 -70 13 -70 6 0 14 32 18 70 13 106 38 156 53 108 3 -10 10
-27 15 -38 5 -11 13 -33 19 -50 17 -48 53 -95 73 -95 25 0 21 18 -17 81 -18
31 -40 73 -47 93 -15 41 -5 56 37 56 32 0 74 44 74 78 0 44 -35 70 -100 74
-53 3 -55 4 -58 34 -3 34 12 44 75 44 41 0 63 9 63 25 0 19 -24 25 -91 25 -44
0 -59 4 -59 14 0 9 20 16 64 21 72 7 89 20 84 62 -3 29 -38 47 -38 19 0 -26
-30 -46 -71 -46 -37 0 -39 2 -39 30 0 23 -4 30 -20 30 -18 0 -20 -7 -20 -69z
m11 -155 c5 -17 7 -31 6 -32 -1 -1 -62 -6 -135 -10 -132 -7 -132 -7 -132 15 0
12 5 31 11 42 9 18 19 19 126 17 117 -3 117 -3 124 -32z m137 -105 c4 -28 -12
-41 -50 -41 -24 0 -28 4 -28 28 0 37 8 44 45 40 23 -2 31 -9 33 -27z"/>
<path d="M276 304 c-3 -9 -6 -24 -6 -35 0 -15 -7 -19 -34 -19 -28 0 -35 4 -38
22 -5 33 -24 32 -38 -1 -10 -24 -9 -43 5 -103 19 -86 28 -98 67 -98 65 0 88
39 88 147 0 83 -26 134 -44 87z m-1 -139 c0 -35 -3 -40 -24 -43 -30 -5 -51 20
-51 61 0 27 2 28 38 25 36 -3 37 -4 37 -43z"/>
</g>
</svg>
