<svg version="1.0" xmlns="http://www.w3.org/2000/svg"
 width="61.000000pt" height="85.000000pt" viewBox="0 0 61.000000 85.000000"
 preserveAspectRatio="xMidYMid meet">
<metadata>
Created by potrace 1.15, written by Peter Selinger 2001-2017
</metadata>
<g transform="translate(0.000000,85.000000) scale(0.100000,-0.100000)"
fill="#000000" stroke="none">
<path d="M290 726 c0 -14 5 -28 10 -31 6 -3 10 -22 10 -42 0 -36 0 -36 -23
-15 -13 12 -26 22 -30 22 -12 0 -7 -34 13 -90 20 -54 27 -140 12 -140 -4 0
-18 18 -32 40 -45 73 -82 40 -40 -35 11 -20 20 -42 20 -50 0 -8 3 -15 8 -15
10 0 32 -50 32 -72 0 -11 -11 -30 -25 -44 -14 -14 -25 -28 -25 -32 0 -4 -16
-24 -36 -44 -34 -36 -38 -58 -10 -58 18 0 48 29 65 62 18 36 31 26 31 -23 0
-58 23 -45 34 19 5 29 13 52 18 52 5 0 18 -16 29 -35 20 -33 39 -46 39 -26 0
10 -18 68 -30 96 -19 44 -20 63 -5 78 21 21 19 30 -5 24 -17 -4 -20 0 -20 29
0 19 4 34 9 34 5 0 10 58 10 129 0 97 -3 136 -15 160 -19 37 -44 41 -44 7z"/>
</g>
</svg>
