<svg version="1.0" xmlns="http://www.w3.org/2000/svg"
 width="68.000000pt" height="116.000000pt" viewBox="0 0 68.000000 116.000000"
 preserveAspectRatio="xMidYMid meet">
<metadata>
Created by potrace 1.15, written by Peter Selinger 2001-2017
</metadata>
<g transform="translate(0.000000,116.000000) scale(0.100000,-0.100000)"
fill="#000000" stroke="none">
<path d="M109 1044 c-23 -28 9 -34 181 -31 175 2 202 -4 215 -44 11 -33 -8
-43 -46 -26 -19 9 -54 18 -79 20 -25 3 -52 7 -60 8 -8 2 -79 0 -157 -5 -128
-7 -143 -10 -143 -26 0 -18 25 -34 40 -25 4 2 86 5 183 6 141 1 180 -2 197
-14 12 -8 18 -17 13 -20 -9 -5 -100 -13 -253 -23 -101 -6 -114 -11 -101 -33 7
-11 32 -14 105 -12 96 1 96 1 96 -39 0 -40 0 -40 -83 -40 -145 0 -171 -28
-181 -195 -3 -55 -9 -135 -12 -178 -6 -74 2 -107 26 -107 16 0 29 67 35 175 8
177 15 214 39 230 11 8 52 18 89 23 77 10 80 8 75 -54 -3 -33 -7 -39 -35 -46
-55 -14 -77 -60 -87 -188 -16 -187 -18 -298 -5 -305 7 -5 19 0 29 13 14 17 19
53 25 189 8 194 18 238 54 238 25 0 25 0 24 -130 -1 -72 -4 -174 -7 -227 -3
-67 -2 -98 6 -98 6 0 8 -13 4 -35 -5 -27 -3 -37 9 -41 9 -4 20 -3 25 2 5 5 12
127 16 272 7 262 7 262 29 262 15 0 26 -9 33 -27 12 -33 36 -309 27 -322 -3
-6 -3 -28 1 -50 9 -55 39 -57 49 -4 10 56 -5 363 -20 400 -13 30 -58 63 -88
63 -16 0 -27 41 -20 70 6 21 44 29 112 22 39 -3 51 -10 69 -36 20 -29 22 -45
22 -149 0 -132 14 -212 37 -222 29 -10 44 16 33 55 -6 19 -13 100 -16 180 -8
200 -21 219 -149 220 -44 0 -85 4 -91 8 -7 4 -14 23 -15 42 -4 29 -1 35 21 41
14 4 42 7 63 8 21 1 46 5 56 10 14 8 29 -1 77 -50 63 -63 94 -75 94 -35 0 16
-18 40 -54 73 -54 50 -54 50 -53 110 3 104 -19 113 -256 113 -156 0 -187 -2
-198 -16z"/>
</g>
</svg>
