<svg version="1.0" xmlns="http://www.w3.org/2000/svg"
 width="57.000000pt" height="95.000000pt" viewBox="0 0 57.000000 95.000000"
 preserveAspectRatio="xMidYMid meet">
<metadata>
Created by potrace 1.15, written by Peter Selinger 2001-2017
</metadata>
<g transform="translate(0.000000,95.000000) scale(0.100000,-0.100000)"
fill="#000000" stroke="none">
<path d="M204 754 c3 -9 6 -19 6 -23 0 -4 8 -16 18 -27 37 -40 52 -70 52 -102
0 -30 -2 -33 -15 -22 -8 7 -15 18 -15 24 0 20 -46 70 -58 62 -12 -7 20 -82 59
-138 20 -27 26 -98 9 -98 -5 0 -15 9 -22 20 -14 21 -38 27 -38 9 0 -11 45 -95
63 -117 7 -9 2 -30 -20 -75 -17 -34 -33 -70 -36 -79 -11 -31 11 -29 30 2 9 17
22 29 28 27 5 -2 15 -32 21 -68 13 -74 22 -99 36 -99 6 0 8 18 4 48 -4 26 -9
74 -12 107 -5 60 -5 60 40 13 25 -27 47 -48 50 -48 20 0 -9 62 -51 107 -6 7
-15 22 -18 33 -3 11 -11 20 -16 20 -12 0 -9 197 4 237 8 25 8 36 -1 45 -7 7
-12 18 -12 26 0 13 -52 95 -76 120 -18 17 -37 15 -30 -4z"/>
<path d="M190 139 c0 -5 5 -7 10 -4 6 3 10 8 10 11 0 2 -4 4 -10 4 -5 0 -10
-5 -10 -11z"/>
</g>
</svg>
