<svg version="1.0" xmlns="http://www.w3.org/2000/svg"
 width="45.000000pt" height="99.000000pt" viewBox="0 0 45.000000 99.000000"
 preserveAspectRatio="xMidYMid meet">
<metadata>
Created by potrace 1.15, written by Peter Selinger 2001-2017
</metadata>
<g transform="translate(0.000000,99.000000) scale(0.100000,-0.100000)"
fill="#000000" stroke="none">
<path d="M150 810 c0 -11 4 -20 8 -20 15 0 61 -105 62 -145 1 -22 2 -44 1 -48
-1 -9 -31 18 -31 28 0 3 -16 23 -35 43 -26 27 -37 34 -46 25 -8 -8 1 -30 35
-87 25 -42 46 -80 46 -84 0 -5 9 -17 20 -27 13 -12 20 -30 19 -54 0 -36 0 -36
-17 -11 -26 37 -79 90 -91 90 -24 0 -9 -32 45 -94 55 -66 55 -66 39 -98 -8
-18 -33 -55 -55 -83 -30 -38 -36 -51 -24 -53 21 -5 84 67 84 95 0 13 6 23 14
23 11 0 12 -22 9 -110 -3 -62 0 -110 5 -110 10 0 32 88 32 133 1 32 1 32 18 9
9 -12 30 -37 46 -55 29 -32 29 -32 21 2 -4 19 -20 56 -36 83 -16 27 -29 53
-29 58 0 6 -3 10 -7 10 -5 0 -9 81 -10 180 -2 193 -10 232 -64 294 -27 31 -59
35 -59 6z"/>
</g>
</svg>
