<svg version="1.0" xmlns="http://www.w3.org/2000/svg"
 width="65.000000pt" height="137.000000pt" viewBox="0 0 65.000000 137.000000"
 preserveAspectRatio="xMidYMid meet">
<metadata>
Created by potrace 1.15, written by Peter Selinger 2001-2017
</metadata>
<g transform="translate(0.000000,137.000000) scale(0.100000,-0.100000)"
fill="#000000" stroke="none">
<path d="M191 1286 c-14 -16 -5 -42 26 -76 13 -14 23 -28 23 -31 0 -3 9 -16
20 -29 11 -13 25 -39 30 -59 16 -54 24 -141 13 -141 -5 0 -31 25 -58 55 -54
62 -75 69 -75 27 0 -26 53 -150 69 -162 3 -3 13 -18 21 -35 8 -16 22 -42 32
-56 17 -26 29 -152 15 -165 -3 -3 -14 7 -23 23 -24 37 -85 93 -101 93 -9 0
-13 -14 -13 -40 0 -39 14 -64 96 -165 24 -30 32 -82 15 -100 -5 -6 -14 -28
-21 -50 -13 -40 -43 -114 -61 -147 -14 -27 -11 -58 6 -58 8 0 27 21 42 48 15
26 30 49 34 52 3 3 15 21 25 40 18 35 18 35 30 -15 7 -27 13 -80 13 -117 1
-65 16 -118 33 -118 4 0 9 42 9 93 2 115 4 145 10 151 2 2 25 -26 50 -62 53
-77 85 -95 74 -40 -10 47 -55 146 -113 250 -19 32 -20 54 -20 320 0 296 -6
347 -44 387 -10 11 -18 24 -18 28 0 5 -8 15 -17 24 -10 8 -29 29 -43 46 -30
37 -63 49 -79 29z"/>
</g>
</svg>
