<svg version="1.0" xmlns="http://www.w3.org/2000/svg"
 width="61.000000pt" height="145.000000pt" viewBox="0 0 61.000000 145.000000"
 preserveAspectRatio="xMidYMid meet">
<metadata>
Created by potrace 1.15, written by Peter Selinger 2001-2017
</metadata>
<g transform="translate(0.000000,145.000000) scale(0.100000,-0.100000)"
fill="#000000" stroke="none">
<path d="M320 1363 c-8 -16 -22 -40 -32 -55 -10 -14 -18 -33 -18 -42 0 -9 -4
-16 -10 -16 -5 0 -10 -10 -10 -23 0 -13 -5 -28 -11 -34 -17 -17 2 -638 21
-687 16 -43 12 -91 -12 -135 -12 -23 -25 -41 -30 -41 -4 0 -8 -6 -8 -12 0 -7
-9 -24 -20 -38 -11 -14 -20 -35 -20 -47 0 -34 34 -29 60 7 22 31 49 40 51 18
4 -35 6 -58 7 -110 1 -32 5 -58 10 -58 16 0 34 46 39 102 3 32 10 58 14 58 5
0 9 -4 9 -10 0 -5 10 -20 23 -33 12 -13 27 -32 33 -42 13 -23 41 -42 49 -33
14 14 -22 98 -76 179 -57 85 -58 87 -60 165 -3 71 0 83 22 114 13 19 26 37 30
40 12 12 69 102 69 111 0 5 5 9 10 9 6 0 10 13 10 28 0 15 5 33 12 40 9 9 8
12 -7 12 -20 0 -105 -80 -105 -99 0 -6 -6 -14 -13 -18 -8 -4 -19 -17 -24 -28
-9 -16 -12 -9 -17 40 -4 33 -11 76 -15 96 -7 33 -4 42 33 94 22 32 62 81 87
109 48 53 71 106 45 106 -7 0 -38 -26 -68 -58 -29 -32 -62 -61 -71 -65 -9 -3
-17 -14 -17 -22 0 -9 -4 -13 -10 -10 -21 13 -1 215 21 215 5 0 9 8 9 18 0 9 9
32 20 50 11 18 20 41 20 51 0 11 5 21 12 23 7 3 9 14 4 31 -9 37 -48 37 -66 0z"/>
<path d="M250 1369 c0 -5 5 -7 10 -4 6 3 10 8 10 11 0 2 -4 4 -10 4 -5 0 -10
-5 -10 -11z"/>
</g>
</svg>
