<svg version="1.0" xmlns="http://www.w3.org/2000/svg"
 width="61.000000pt" height="93.000000pt" viewBox="0 0 61.000000 93.000000"
 preserveAspectRatio="xMidYMid meet">
<metadata>
Created by potrace 1.15, written by Peter Selinger 2001-2017
</metadata>
<g transform="translate(0.000000,93.000000) scale(0.100000,-0.100000)"
fill="#000000" stroke="none">
<path d="M270 755 c0 -50 -8 -55 -35 -25 -10 11 -24 20 -32 20 -7 0 -13 5 -13
10 0 6 -7 10 -15 10 -8 0 -15 -5 -15 -12 0 -14 44 -72 88 -116 34 -35 57 -80
46 -91 -3 -3 -11 1 -17 9 -15 19 -63 50 -77 50 -23 0 -7 -41 43 -105 86 -111
81 -102 58 -114 -22 -12 -71 1 -71 19 0 15 -26 40 -41 40 -13 0 -6 -79 14
-142 14 -46 25 -48 38 -8 11 31 20 34 52 21 17 -6 14 -15 -31 -81 -34 -51 -47
-78 -40 -85 6 -7 26 8 58 45 27 30 51 52 54 50 2 -3 7 -34 9 -70 7 -77 5 -70
17 -70 6 0 10 21 10 48 0 69 10 78 45 42 28 -29 65 -40 65 -20 0 6 -4 10 -9
10 -13 0 -91 121 -85 131 3 5 16 9 30 9 20 0 29 -8 42 -40 11 -25 24 -40 35
-40 32 0 19 200 -15 221 -20 13 -28 0 -28 -47 0 -41 -2 -44 -27 -44 -42 0 -48
10 -51 75 -2 33 -9 97 -17 142 -29 166 -41 203 -66 203 -16 0 -19 -7 -19 -45z"/>
</g>
</svg>
