<svg version="1.0" xmlns="http://www.w3.org/2000/svg"
 width="121.000000pt" height="109.000000pt" viewBox="0 0 121.000000 109.000000"
 preserveAspectRatio="xMidYMid meet">
<metadata>
Created by potrace 1.15, written by Peter Selinger 2001-2017
</metadata>
<g transform="translate(0.000000,109.000000) scale(0.100000,-0.100000)"
fill="#000000" stroke="none">
<path d="M397 1033 c-3 -4 -10 -37 -17 -73 -14 -78 -29 -131 -42 -147 -6 -7
-32 -16 -59 -19 -27 -4 -52 -11 -55 -15 -3 -5 -12 -9 -21 -9 -23 0 -113 -42
-113 -52 0 -4 -7 -8 -15 -8 -8 0 -15 -4 -15 -10 0 -5 9 -10 21 -10 14 0 25
-11 35 -37 13 -30 15 -68 11 -212 -3 -97 -9 -191 -12 -208 -5 -21 -3 -33 4
-33 18 0 29 34 41 126 7 49 16 101 22 117 10 26 14 27 75 27 42 0 69 -5 78
-14 8 -8 17 -43 21 -79 9 -94 32 -120 38 -46 5 58 26 118 46 129 10 5 43 10
74 10 30 0 58 5 61 11 9 13 44 -18 56 -50 8 -20 12 -21 25 -10 13 11 15 25 10
74 -3 33 -8 92 -12 130 -8 101 -32 145 -78 145 -14 0 -28 5 -31 10 -3 6 -19
10 -34 10 -15 0 -42 5 -59 11 -38 13 -46 42 -37 142 5 65 -4 113 -18 90z m142
-301 c45 -21 63 -58 69 -142 4 -67 4 -67 -28 -74 -55 -11 -145 -7 -165 8 -14
10 -19 30 -22 92 -4 67 -1 84 17 113 19 30 24 33 57 26 20 -4 53 -14 72 -23z
m-189 -92 c0 -109 0 -111 -26 -120 -14 -6 -50 -10 -80 -10 -49 0 -55 2 -64 26
-6 14 -10 43 -10 64 0 21 -4 42 -10 45 -5 3 -10 15 -10 26 0 10 5 19 10 19 6
0 10 7 10 15 0 22 58 43 123 44 57 1 57 1 57 -109z"/>
<path d="M925 858 c0 -91 0 -91 -68 -90 -38 1 -77 4 -88 7 -27 9 -24 -19 4
-33 12 -6 47 -16 77 -23 85 -18 84 -15 76 -159 -10 -179 -19 -239 -40 -252 -6
-4 -27 -8 -47 -8 -28 0 -41 6 -53 25 -9 14 -20 25 -25 25 -4 0 -8 -53 -9 -118
-1 -119 -1 -119 46 -163 46 -43 48 -44 113 -43 49 1 77 7 108 24 35 21 43 31
58 82 10 32 20 58 23 58 3 0 6 68 7 150 2 124 0 150 -11 150 -19 0 -26 -23
-31 -101 -3 -34 -8 -65 -11 -68 -3 -3 -22 -11 -43 -17 -42 -12 -86 -2 -78 19
3 7 13 87 23 178 10 90 23 169 29 174 5 6 44 21 85 34 41 12 81 24 88 26 6 3
12 9 12 14 0 7 -37 10 -97 8 -98 -2 -98 -2 -98 69 0 42 -6 83 -14 98 -26 48
-36 30 -36 -66z m46 -603 c23 -4 39 -3 43 4 4 6 14 11 21 11 19 0 14 -81 -7
-131 -22 -52 -52 -69 -118 -69 -51 0 -59 3 -89 34 -32 33 -32 33 -20 94 8 39
19 63 28 66 18 5 87 0 142 -9z"/>
</g>
</svg>
