<svg version="1.0" xmlns="http://www.w3.org/2000/svg"
 width="119.000000pt" height="101.000000pt" viewBox="0 0 119.000000 101.000000"
 preserveAspectRatio="xMidYMid meet">
<metadata>
Created by potrace 1.15, written by Peter Selinger 2001-2017
</metadata>
<g transform="translate(0.000000,101.000000) scale(0.100000,-0.100000)"
fill="#000000" stroke="none">
<path d="M790 858 c0 -28 -8 -69 -17 -90 -17 -38 -17 -38 -137 -38 -142 0
-196 -7 -190 -24 3 -7 20 -19 39 -26 33 -13 55 -48 55 -87 0 -64 74 -117 179
-127 30 -3 58 -9 63 -14 5 -5 13 -51 19 -103 17 -150 44 -151 51 -1 2 51 8 96
14 101 5 5 54 6 109 2 111 -7 99 7 119 -141 8 -56 21 -79 36 -64 7 7 8 37 0
100 -6 49 -13 123 -16 164 -6 97 -10 112 -31 136 -46 51 -89 69 -195 81 -52 5
-53 7 -64 88 -7 52 -20 95 -29 95 -3 0 -5 -23 -5 -52z m160 -181 c25 -7 55
-18 67 -25 32 -18 55 -67 51 -110 -3 -37 -3 -37 -101 -37 -93 0 -99 1 -117 25
-23 29 -28 128 -8 148 15 15 50 15 108 -1z m-172 -19 c17 -15 16 -116 -2 -134
-19 -18 -97 -18 -141 1 -40 16 -57 51 -53 104 3 36 3 36 73 42 75 6 102 3 123
-13z"/>
<path d="M248 663 c-3 -45 -5 -48 -33 -51 -16 -2 -49 -12 -72 -23 -24 -10 -50
-19 -58 -19 -8 0 -15 -6 -15 -13 0 -10 20 -12 89 -9 98 5 105 1 112 -61 4 -26
0 -30 -36 -43 -22 -7 -47 -14 -56 -14 -22 0 -69 -23 -69 -34 0 -11 146 -2 210
13 25 6 58 13 73 16 36 7 30 29 -9 33 -68 6 -74 10 -74 50 0 42 11 51 82 72
62 19 47 40 -27 40 -52 0 -53 1 -79 45 -15 25 -29 45 -31 45 -2 0 -5 -21 -7
-47z"/>
<path d="M390 290 c0 -40 0 -40 -78 -40 -74 0 -80 2 -107 30 -16 17 -31 30
-35 30 -3 0 -2 -39 2 -86 4 -48 5 -91 2 -95 -10 -17 25 -78 53 -93 32 -16 135
-14 141 4 2 5 11 10 20 10 10 0 28 9 40 18 19 14 24 28 24 64 1 26 -4 59 -9
75 -6 15 -17 49 -23 76 -15 57 -30 61 -30 7z m-29 -90 c33 0 38 -3 44 -29 9
-41 -7 -66 -55 -85 -86 -34 -140 -12 -140 58 0 56 14 69 69 62 24 -3 61 -6 82
-6z"/>
</g>
</svg>
