<svg version="1.0" xmlns="http://www.w3.org/2000/svg"
 width="119.000000pt" height="101.000000pt" viewBox="0 0 119.000000 101.000000"
 preserveAspectRatio="xMidYMid meet">
<metadata>
Created by potrace 1.15, written by Peter Selinger 2001-2017
</metadata>
<g transform="translate(0.000000,101.000000) scale(0.100000,-0.100000)"
fill="#000000" stroke="none">
<path d="M274 895 c3 -9 9 -57 12 -108 8 -106 8 -105 -96 -127 -94 -19 -140
-34 -141 -45 -3 -38 3 -151 11 -210 5 -38 14 -115 20 -170 7 -67 16 -105 26
-115 15 -14 16 -6 10 82 -6 88 -5 97 11 102 22 6 128 9 240 7 81 -1 81 -1 92
-51 6 -28 11 -74 11 -103 0 -29 7 -60 15 -71 13 -18 14 -17 20 7 4 13 5 68 3
121 -4 96 -4 96 21 96 32 0 109 21 135 36 24 15 28 93 7 179 -7 33 -15 82 -16
108 -2 27 -6 51 -9 54 -2 3 -75 5 -160 5 -178 0 -164 -10 -173 112 -6 72 -18
106 -38 106 -4 0 -4 -7 -1 -15z m303 -244 c29 -1 33 -5 42 -38 17 -63 24 -186
12 -215 -8 -21 -20 -29 -53 -35 -65 -13 -88 -6 -88 27 0 71 -37 128 -97 149
-47 17 -62 37 -63 78 0 32 0 32 83 35 45 2 93 2 107 1 14 -1 39 -2 57 -2z
m-289 -46 c6 -32 50 -83 85 -100 18 -8 37 -23 44 -34 11 -17 29 -110 22 -112
-2 0 -62 -4 -134 -9 -72 -5 -144 -12 -161 -16 -39 -7 -41 -3 -50 120 -8 117 3
156 47 156 15 0 31 5 34 10 4 6 30 10 58 8 43 -2 52 -7 55 -23z"/>
<path d="M911 648 c2 -83 2 -83 -77 -99 -43 -9 -81 -17 -84 -18 -3 -1 4 -7 15
-13 29 -17 125 -17 125 -1 0 9 6 8 20 -4 11 -10 20 -27 20 -39 0 -23 -21 -36
-92 -55 -27 -8 -48 -16 -48 -20 0 -16 32 -17 97 -3 37 8 96 14 130 14 37 0 63
4 63 10 0 14 -44 30 -79 30 -23 0 -30 5 -34 28 -3 15 -1 31 3 36 5 5 40 12 77
15 51 5 68 10 68 21 0 12 -17 16 -82 18 -83 3 -83 3 -83 49 0 50 -18 113 -33
113 -4 0 -7 -37 -6 -82z"/>
<path d="M826 246 c-3 -35 -2 -75 3 -88 11 -29 62 -74 107 -96 30 -14 34 -13
63 7 20 14 34 36 42 64 14 52 5 145 -15 166 -15 14 -16 10 -16 -37 0 -43 -3
-52 -17 -53 -134 -4 -123 -7 -124 26 -1 17 -1 34 0 39 2 10 -19 36 -29 36 -4
0 -10 -29 -14 -64z m184 -88 c0 -34 -30 -68 -60 -68 -30 0 -94 53 -87 73 2 7
23 12 49 12 26 0 49 3 53 6 12 13 45 -4 45 -23z"/>
</g>
</svg>
