<svg version="1.0" xmlns="http://www.w3.org/2000/svg"
 width="53.000000pt" height="93.000000pt" viewBox="0 0 53.000000 93.000000"
 preserveAspectRatio="xMidYMid meet">
<metadata>
Created by potrace 1.15, written by Peter Selinger 2001-2017
</metadata>
<g transform="translate(0.000000,93.000000) scale(0.100000,-0.100000)"
fill="#000000" stroke="none">
<path d="M260 863 c0 -46 -12 -56 -46 -38 -36 18 -43 5 -18 -33 10 -15 26 -41
36 -59 17 -32 17 -32 -17 -66 -43 -43 -53 -81 -32 -117 13 -21 14 -34 6 -64
-6 -21 -8 -44 -5 -51 3 -8 -3 -17 -15 -20 -21 -7 -25 -25 -7 -43 13 -13 -6
-92 -26 -104 -8 -5 -8 -10 2 -20 6 -6 12 -34 12 -62 0 -48 0 -49 20 -31 11 10
20 26 20 35 0 21 20 40 42 40 14 0 18 -8 18 -36 0 -19 -5 -44 -10 -54 -7 -13
-7 -21 0 -25 5 -3 10 -15 10 -26 0 -25 25 -24 52 1 16 15 18 22 10 33 -8 9
-11 53 -10 123 1 60 -1 115 -6 122 -9 15 8 63 37 105 25 36 38 21 36 -43 -1
-67 8 -132 25 -185 9 -25 16 -54 16 -65 0 -10 5 -22 10 -25 6 -4 10 13 10 44
0 28 5 51 10 51 15 0 12 28 -6 56 -12 17 -15 36 -10 64 5 30 3 40 -8 40 -15 0
-31 82 -27 136 1 20 -7 45 -24 70 -14 21 -33 53 -42 71 -16 34 -16 33 27 81
41 45 43 51 25 68 -14 15 -18 15 -26 3 -5 -8 -9 -17 -9 -20 0 -9 -36 -49 -44
-49 -4 0 -5 12 -2 28 7 33 -5 84 -22 90 -7 2 -12 -7 -12 -25z m-10 -233 c0
-21 -26 -38 -38 -25 -4 4 -1 10 6 12 6 3 12 11 12 19 0 8 5 14 10 14 6 0 10
-9 10 -20z m60 -10 c0 -5 -4 -10 -10 -10 -5 0 -10 5 -10 10 0 6 5 10 10 10 6
0 10 -4 10 -10z m-60 -70 c0 -24 -6 -25 -26 -6 -19 20 -18 26 6 26 13 0 20 -7
20 -20z m90 12 c0 -5 -11 -22 -25 -38 -18 -21 -25 -25 -25 -12 0 9 -5 18 -12
20 -19 7 13 37 40 38 12 0 22 -4 22 -8z m-90 -134 c0 -13 -4 -29 -9 -37 -7
-11 -11 -10 -20 7 -6 11 -8 28 -5 36 9 24 34 19 34 -6z m-4 -82 c9 -37 1 -78
-19 -90 -14 -8 -20 -8 -27 4 -15 24 -12 72 7 92 22 24 31 23 39 -6z"/>
</g>
</svg>
