<svg version="1.0" xmlns="http://www.w3.org/2000/svg"
 width="97.000000pt" height="119.000000pt" viewBox="0 0 97.000000 119.000000"
 preserveAspectRatio="xMidYMid meet">
<metadata>
Created by potrace 1.15, written by Peter Selinger 2001-2017
</metadata>
<g transform="translate(0.000000,119.000000) scale(0.100000,-0.100000)"
fill="#000000" stroke="none">
<path d="M297 1139 c-10 -6 -22 -22 -28 -35 -5 -14 -12 -23 -17 -21 -4 3 -26
2 -50 -3 -40 -7 -43 -6 -59 21 -42 72 -54 16 -51 -244 2 -143 7 -222 14 -224
11 -4 44 58 44 82 0 8 9 15 20 15 11 0 20 5 20 10 0 6 20 10 45 10 43 0 44 -1
55 -40 11 -42 36 -73 53 -67 15 5 10 385 -6 455 -12 56 -13 57 -40 41z m-27
-148 c0 -43 -10 -51 -66 -51 -33 0 -34 1 -34 38 0 21 3 42 7 45 3 4 26 7 50 7
43 0 43 0 43 -39z m-2 -105 c3 -3 7 -21 9 -40 3 -32 1 -34 -34 -40 -52 -8 -93
-8 -93 2 0 4 5 24 10 44 8 26 17 38 33 40 28 5 67 1 75 -6z"/>
<path d="M563 1064 c-10 -26 15 -38 85 -40 74 -1 129 -22 150 -55 26 -42 -35
-145 -103 -174 -17 -8 -59 -17 -93 -21 -50 -5 -62 -10 -62 -24 0 -21 25 -33
52 -24 18 5 19 2 13 -39 -8 -55 7 -108 41 -142 25 -25 32 -59 14 -70 -5 -3
-10 -36 -10 -73 0 -54 5 -77 27 -119 27 -53 27 -53 -5 -98 -36 -51 -38 -63
-19 -89 11 -15 17 -17 35 -7 12 6 22 17 22 25 0 11 44 56 55 56 3 0 5 -19 5
-43 0 -42 26 -87 50 -87 6 0 10 37 10 85 0 47 4 85 8 85 5 0 24 -18 43 -40 35
-40 69 -53 69 -25 0 17 -24 59 -53 91 -16 19 -17 29 -9 74 13 71 0 111 -54
165 -48 49 -51 57 -29 75 57 47 58 144 1 208 -19 22 -19 22 0 37 10 8 25 15
32 15 6 0 12 5 12 12 0 6 9 21 19 32 18 20 27 75 22 143 -2 35 -123 77 -234
80 -71 1 -89 -1 -94 -13z m212 -357 c14 -21 14 -28 0 -67 -15 -43 -41 -80 -55
-80 -12 0 -46 34 -59 58 -14 27 -7 68 16 95 24 26 79 22 98 -6z m16 -263 c30
-32 32 -105 5 -147 -22 -33 -39 -34 -66 -5 -26 28 -27 104 -2 147 21 38 31 38
63 5z"/>
<path d="M328 540 c-10 -11 -13 -22 -8 -25 6 -4 10 -15 10 -26 0 -17 -8 -19
-72 -21 -99 -2 -109 0 -133 21 -36 33 -44 17 -39 -82 7 -137 21 -190 60 -228
30 -29 38 -31 99 -31 80 -1 98 13 116 85 19 73 17 293 -2 313 -13 12 -17 11
-31 -6z m2 -166 c0 -90 -18 -154 -47 -165 -29 -11 -84 -12 -98 -1 -19 14 -35
63 -41 131 -7 68 -7 68 47 78 30 5 73 10 97 10 42 0 42 0 42 -53z"/>
</g>
</svg>
