<svg version="1.0" xmlns="http://www.w3.org/2000/svg"
 width="72.000000pt" height="97.000000pt" viewBox="0 0 72.000000 97.000000"
 preserveAspectRatio="xMidYMid meet">
<metadata>
Created by potrace 1.15, written by Peter Selinger 2001-2017
</metadata>
<g transform="translate(0.000000,97.000000) scale(0.100000,-0.100000)"
fill="#000000" stroke="none">
<path d="M233 730 c-23 -5 -51 -13 -61 -19 -26 -14 -52 -71 -52 -114 0 -95 38
-119 189 -120 163 -1 173 1 221 42 43 37 43 37 31 108 -18 102 -26 108 -170
110 -64 1 -135 -2 -158 -7z m263 -65 c8 -10 14 -38 14 -62 0 -60 -24 -73 -143
-80 -121 -7 -161 0 -175 33 -18 37 -15 89 6 106 26 24 47 27 170 25 100 -2
116 -5 128 -22z"/>
<path d="M255 631 c-41 -5 -50 -9 -50 -26 0 -19 6 -20 125 -17 128 4 160 13
139 38 -12 15 -114 17 -214 5z"/>
<path d="M536 463 c-3 -3 -6 -43 -6 -89 0 -81 0 -82 -35 -112 -22 -20 -50 -33
-81 -38 -45 -6 -180 1 -209 12 -30 12 -55 70 -55 127 0 68 -7 87 -31 87 -16 0
-19 -8 -19 -55 0 -89 18 -156 54 -193 30 -33 33 -34 88 -28 75 7 93 -8 85 -75
-4 -32 -2 -51 6 -58 25 -20 42 6 47 71 5 63 5 63 56 69 100 12 135 58 142 186
4 73 2 82 -15 92 -11 6 -23 7 -27 4z"/>
<path d="M303 431 c-56 -10 -73 -26 -73 -72 0 -42 26 -75 68 -86 13 -3 54 4
93 16 68 22 69 23 69 57 0 48 -14 70 -51 83 -35 12 -42 12 -106 2z m91 -47 c9
-3 16 -16 16 -29 0 -27 -17 -35 -75 -35 -34 0 -47 5 -55 19 -5 11 -10 22 -10
26 0 18 90 32 124 19z"/>
</g>
</svg>
