<svg version="1.0" xmlns="http://www.w3.org/2000/svg"
 width="78.000000pt" height="88.000000pt" viewBox="0 0 78.000000 88.000000"
 preserveAspectRatio="xMidYMid meet">
<metadata>
Created by potrace 1.15, written by Peter Selinger 2001-2017
</metadata>
<g transform="translate(0.000000,88.000000) scale(0.100000,-0.100000)"
fill="#000000" stroke="none">
<path d="M555 838 c-2 -7 -5 -22 -7 -33 -5 -31 -35 -29 -69 4 -36 36 -49 39
-49 10 0 -26 52 -79 77 -79 21 0 43 -18 43 -36 0 -6 -21 -15 -46 -19 -40 -6
-47 -11 -60 -40 -29 -69 -7 -105 64 -105 42 0 42 0 42 -41 0 -36 -3 -41 -35
-54 -51 -22 -105 -73 -105 -100 0 -12 -6 -35 -14 -50 -14 -26 -14 -25 -21 37
-7 64 -20 92 -36 82 -5 -3 -9 -52 -9 -110 0 -84 -3 -104 -15 -104 -16 0 -35
58 -35 111 0 37 -22 79 -33 62 -3 -5 -9 -39 -13 -75 -8 -76 11 -128 53 -147
14 -6 87 -16 162 -20 149 -10 192 -22 248 -72 45 -39 63 -27 42 28 -12 31 -23
41 -64 56 -28 11 -97 23 -155 28 -129 11 -150 16 -150 34 0 7 13 22 30 31 31
19 47 50 52 99 2 21 13 36 37 52 19 13 39 22 45 20 19 -6 18 -28 -3 -34 -24
-6 -28 -28 -6 -37 18 -6 20 -32 4 -42 -6 -3 -15 -1 -19 6 -4 7 -15 10 -24 7
-32 -13 6 -102 48 -113 35 -8 104 14 120 39 26 40 30 76 10 84 -10 4 -19 2
-22 -5 -3 -9 -9 -9 -23 -2 -23 13 -25 30 -4 30 22 0 18 31 -5 37 -11 3 -20 9
-20 14 0 11 27 12 32 2 7 -17 87 -65 97 -58 20 12 11 33 -30 70 -32 29 -38 39
-28 46 8 5 19 9 26 9 16 0 53 49 53 70 0 29 -46 62 -94 67 -25 3 -46 9 -46 13
0 10 26 20 54 20 12 0 32 7 44 16 19 13 22 22 17 47 -9 41 -50 84 -86 92 -22
5 -29 12 -29 30 0 12 -7 26 -16 29 -22 8 -24 8 -29 -6z m95 -116 c36 -29 2
-74 -41 -52 -10 6 -19 21 -19 34 0 40 23 48 60 18z m-100 -102 c0 -17 -5 -30
-12 -30 -7 0 -23 -3 -34 -6 -26 -7 -39 19 -24 47 7 12 21 19 40 19 27 0 30 -3
30 -30z m133 -80 c20 -17 -28 -60 -68 -60 -15 0 -30 53 -20 70 7 11 73 4 88
-10z m-63 -276 c9 -10 -25 -24 -57 -24 -40 0 -52 17 -21 30 21 8 66 5 78 -6z"/>
<path d="M610 700 c0 -15 5 -20 18 -18 9 2 17 10 17 18 0 8 -8 16 -17 18 -13
2 -18 -3 -18 -18z"/>
<path d="M490 615 c0 -8 9 -15 20 -15 11 0 20 7 20 15 0 8 -9 15 -20 15 -11 0
-20 -7 -20 -15z"/>
<path d="M615 531 c-8 -15 3 -31 21 -31 9 0 14 7 12 17 -4 20 -24 28 -33 14z"/>
<path d="M280 776 c0 -40 -28 -79 -70 -96 -16 -7 -30 -19 -30 -26 0 -19 34
-18 72 2 25 13 32 14 39 2 11 -17 11 -19 -4 -45 -7 -12 -34 -36 -61 -55 -50
-33 -94 -83 -84 -93 3 -3 29 8 58 25 71 42 94 43 98 5 3 -27 -2 -32 -46 -52
-52 -24 -222 -176 -222 -198 0 -32 22 -22 77 32 70 70 112 102 175 133 62 30
78 66 51 112 -16 29 -17 36 -6 58 16 30 9 80 -13 97 -15 11 -15 14 0 35 28 40
16 98 -21 98 -8 0 -13 -13 -13 -34z"/>
</g>
</svg>
