<svg version="1.0" xmlns="http://www.w3.org/2000/svg"
 width="65.000000pt" height="78.000000pt" viewBox="0 0 65.000000 78.000000"
 preserveAspectRatio="xMidYMid meet">
<metadata>
Created by potrace 1.15, written by Peter Selinger 2001-2017
</metadata>
<g transform="translate(0.000000,78.000000) scale(0.100000,-0.100000)"
fill="#000000" stroke="none">
<path d="M450 730 c0 -13 -17 -31 -50 -51 -27 -17 -50 -37 -50 -45 0 -18 2
-18 44 7 19 11 40 18 45 14 14 -8 2 -35 -15 -35 -29 0 -13 -21 30 -40 43 -18
63 -36 53 -47 -3 -2 -32 5 -64 16 -72 25 -105 27 -97 6 4 -8 24 -18 46 -21 21
-4 49 -15 61 -25 19 -16 20 -20 7 -29 -22 -15 -66 -12 -80 5 -16 19 -40 19
-40 0 0 -28 110 -59 125 -35 12 19 35 10 50 -20 16 -31 45 -41 45 -15 0 8 -7
30 -16 49 -16 33 -16 35 5 61 11 15 21 31 21 36 0 4 -20 15 -45 25 -41 15 -45
20 -45 50 0 39 8 42 43 14 29 -23 47 -26 47 -7 0 8 -18 22 -40 32 -25 11 -43
27 -46 41 -8 30 -34 40 -34 14z"/>
<path d="M186 694 c-5 -26 -12 -34 -24 -32 -9 2 -18 13 -20 26 -4 25 -20 29
-29 6 -8 -21 13 -64 32 -64 25 0 17 -17 -15 -30 -16 -7 -35 -19 -41 -26 -23
-28 1 -27 56 2 55 29 55 29 95 7 21 -13 46 -23 54 -23 28 0 17 21 -18 35 -48
20 -52 32 -17 49 32 17 49 52 33 68 -6 6 -15 0 -26 -16 -22 -34 -35 -33 -47 4
-14 40 -25 38 -33 -6z"/>
<path d="M132 548 c-15 -15 -16 -64 -2 -73 20 -13 10 -45 -17 -56 -45 -17 -8
-29 90 -29 89 0 109 10 62 32 -27 12 -34 45 -10 54 20 8 28 40 15 64 -9 17
-21 20 -68 20 -32 0 -63 -5 -70 -12z m108 -38 c0 -17 -7 -20 -39 -20 -40 0
-57 11 -46 30 3 6 24 10 46 10 32 0 39 -3 39 -20z m-30 -55 c13 -16 6 -35 -15
-35 -18 0 -28 17 -21 35 7 19 20 19 36 0z"/>
<path d="M308 392 c-3 -12 -22 -23 -51 -31 -83 -24 -101 -72 -38 -103 43 -21
31 -27 -69 -30 -42 -2 -75 -7 -75 -13 0 -5 33 -11 73 -13 39 -2 72 -6 72 -10
-1 -11 -57 -55 -107 -82 -48 -26 -73 -54 -60 -66 13 -13 71 23 143 90 66 60
76 66 128 72 49 6 56 4 62 -12 10 -26 115 -134 131 -134 27 0 11 28 -42 74
-77 66 -74 81 15 73 44 -4 72 -2 76 5 11 18 -19 28 -88 28 -77 0 -91 17 -38
45 20 10 30 23 30 38 0 33 -19 47 -61 47 -47 0 -69 8 -69 26 0 21 -27 17 -32
-4z m119 -56 c4 -4 -7 -20 -24 -35 -18 -15 -33 -35 -33 -44 0 -22 -75 -24 -83
-2 -4 8 -23 21 -43 30 -36 15 -36 16 -19 35 9 10 29 21 44 23 39 7 149 2 158
-7z"/>
<path d="M273 144 c-24 -14 -43 -29 -43 -34 0 -20 22 -20 46 -1 32 25 61 27
85 5 10 -9 26 -14 36 -12 14 3 9 11 -26 36 -24 18 -47 32 -50 32 -3 0 -25 -12
-48 -26z"/>
<path d="M255 77 c-77 -52 -72 -81 5 -32 47 30 57 30 90 5 27 -21 60 -26 60
-10 0 9 -65 55 -94 66 -7 3 -34 -10 -61 -29z"/>
</g>
</svg>
