<svg version="1.0" xmlns="http://www.w3.org/2000/svg"
 width="64.000000pt" height="81.000000pt" viewBox="0 0 64.000000 81.000000"
 preserveAspectRatio="xMidYMid meet">
<metadata>
Created by potrace 1.15, written by Peter Selinger 2001-2017
</metadata>
<g transform="translate(0.000000,81.000000) scale(0.100000,-0.100000)"
fill="#000000" stroke="none">
<path d="M125 649 c-22 -22 -55 -49 -72 -60 -18 -12 -33 -27 -33 -35 0 -26 41
-14 88 25 82 68 87 68 138 21 42 -38 69 -48 69 -23 0 13 -121 113 -138 113 -7
0 -31 -18 -52 -41z"/>
<path d="M415 608 c-32 -28 -95 -120 -95 -140 0 -4 14 -23 30 -42 30 -34 30
-34 -2 -94 -33 -60 -33 -60 -8 -87 13 -14 40 -36 60 -48 47 -28 50 -33 50
-100 0 -37 5 -64 14 -73 29 -29 36 -15 36 70 0 84 0 84 66 156 66 72 66 72 28
111 -37 38 -37 38 -6 74 18 20 32 44 32 53 0 22 -130 152 -152 152 -10 0 -34
-14 -53 -32z m118 -64 c26 -30 47 -58 47 -62 0 -4 -9 -18 -19 -31 -18 -24 -18
-24 -42 2 -29 34 -46 34 -81 1 -26 -26 -28 -26 -53 -10 -14 9 -25 26 -25 37 0
25 87 119 109 118 9 0 37 -25 64 -55z m-23 -123 c7 -15 5 -24 -8 -41 -18 -22
-18 -22 -42 -2 -24 20 -25 20 -6 41 24 26 42 27 56 2z m58 -63 c22 -22 13 -42
-44 -101 -62 -65 -55 -66 -134 1 -34 30 -34 30 -7 66 32 42 34 42 67 16 34
-26 56 -25 76 5 18 28 25 30 42 13z"/>
<path d="M94 519 c-12 -20 11 -26 89 -21 57 3 77 8 77 18 0 11 -18 14 -79 14
-47 0 -83 -5 -87 -11z"/>
<path d="M159 378 c-2 -69 -12 -102 -33 -106 -28 -6 -39 12 -38 60 1 51 -10
73 -32 65 -12 -5 -16 -21 -16 -70 0 -64 0 -64 53 -83 38 -14 53 -25 55 -41 3
-22 -3 -25 -65 -38 -39 -8 -52 -23 -59 -67 -9 -53 22 -78 94 -78 63 1 129 13
144 28 5 5 12 28 15 51 7 47 -8 71 -43 71 -17 0 -28 8 -34 26 -15 38 -13 44
20 51 46 9 70 46 70 109 0 53 -15 78 -31 53 -5 -8 -9 -35 -9 -61 0 -48 -18
-78 -47 -78 -12 0 -14 12 -12 72 4 63 2 73 -13 76 -15 3 -18 -4 -19 -40z m79
-266 c6 -40 -14 -52 -89 -52 -69 0 -69 0 -69 30 0 39 22 50 95 47 54 -2 60 -4
63 -25z"/>
</g>
</svg>
