<svg version="1.0" xmlns="http://www.w3.org/2000/svg"
 width="66.000000pt" height="73.000000pt" viewBox="0 0 66.000000 73.000000"
 preserveAspectRatio="xMidYMid meet">
<metadata>
Created by potrace 1.15, written by Peter Selinger 2001-2017
</metadata>
<g transform="translate(0.000000,73.000000) scale(0.100000,-0.100000)"
fill="#000000" stroke="none">
<path d="M150 639 c0 -6 5 -19 10 -30 9 -16 6 -25 -20 -50 -50 -50 -36 -99 27
-99 55 0 109 69 62 78 -8 1 -19 -8 -24 -20 -6 -13 -20 -24 -32 -26 -34 -5 -30
28 8 67 30 32 33 65 5 83 -16 11 -36 10 -36 -3z"/>
<path d="M410 636 c0 -7 7 -19 15 -26 18 -15 19 -44 2 -62 -62 -64 -100 -155
-76 -184 7 -9 14 -43 15 -77 1 -53 5 -64 28 -84 49 -42 59 -28 25 36 -33 64
-25 75 56 81 39 3 75 8 81 12 17 11 26 -35 13 -69 -5 -15 -23 -41 -38 -58 -43
-46 -56 -91 -38 -140 14 -41 44 -56 39 -20 -11 84 -7 99 41 169 50 72 54 85
36 118 -8 16 -8 30 1 59 22 66 -3 107 -75 125 -30 7 -30 7 3 -30 17 -20 32
-45 32 -55 0 -16 -6 -18 -44 -14 -33 4 -56 0 -91 -17 -33 -16 -50 -19 -57 -12
-18 18 -1 54 57 122 30 35 55 67 55 71 0 4 -12 21 -26 38 -27 32 -54 41 -54
17z m124 -255 c9 -13 -18 -31 -57 -38 -41 -6 -60 13 -32 34 21 15 81 18 89 4z"/>
<path d="M15 540 c-4 -6 -2 -16 3 -23 6 -7 14 -41 18 -77 9 -83 37 -114 111
-125 54 -7 125 8 144 31 6 7 16 50 23 96 7 46 15 89 20 96 4 7 2 12 -7 12 -17
0 -47 -61 -48 -98 0 -15 -5 -43 -12 -62 -10 -30 -18 -36 -52 -41 -57 -9 -125
24 -125 61 0 65 -56 161 -75 130z"/>
<path d="M107 414 c-14 -14 6 -24 46 -24 51 0 87 9 87 21 0 10 -123 12 -133 3z"/>
<path d="M119 257 c-46 -22 -59 -38 -59 -77 0 -54 23 -70 99 -70 88 0 121 20
121 76 0 28 -6 46 -20 59 -24 22 -105 29 -141 12z m119 -41 c39 -39 -37 -88
-103 -66 -27 9 -35 17 -35 36 0 47 100 68 138 30z"/>
</g>
</svg>
