<svg version="1.0" xmlns="http://www.w3.org/2000/svg"
 width="53.000000pt" height="63.000000pt" viewBox="0 0 53.000000 63.000000"
 preserveAspectRatio="xMidYMid meet">
<metadata>
Created by potrace 1.15, written by Peter Selinger 2001-2017
</metadata>
<g transform="translate(0.000000,63.000000) scale(0.100000,-0.100000)"
fill="#000000" stroke="none">
<path d="M286 458 c11 -33 6 -75 -12 -110 -8 -16 -24 -56 -34 -89 -25 -78 -37
-99 -44 -79 -5 15 -13 70 -22 145 -8 68 -14 85 -28 85 -20 0 -39 -96 -40 -195
-1 -68 2 -85 22 -112 12 -17 39 -37 60 -44 38 -13 140 -17 227 -8 50 5 50 5
53 63 2 32 -1 63 -6 69 -6 7 -13 37 -16 67 -13 106 -18 130 -27 130 -5 0 -9
-5 -9 -10 0 -6 -9 -30 -20 -52 -11 -23 -20 -48 -20 -55 0 -19 -18 -16 -24 5
-14 51 -17 143 -5 158 11 14 10 19 -10 35 -33 27 -54 25 -45 -3z m18 -255 c4
-21 12 -51 18 -66 9 -23 8 -31 -3 -37 -15 -10 -79 -3 -92 9 -8 8 50 131 63
131 4 0 11 -17 14 -37z m-124 -65 c0 -5 -6 -8 -14 -8 -14 0 -26 30 -25 65 0
15 5 11 19 -15 11 -19 19 -38 20 -42z m224 56 c3 -9 6 -31 6 -51 0 -30 -3 -34
-22 -31 -28 4 -34 29 -18 69 14 32 25 37 34 13z"/>
</g>
</svg>
