<svg version="1.0" xmlns="http://www.w3.org/2000/svg"
 width="73.000000pt" height="122.000000pt" viewBox="0 0 73.000000 122.000000"
 preserveAspectRatio="xMidYMid meet">
<metadata>
Created by potrace 1.15, written by Peter Selinger 2001-2017
</metadata>
<g transform="translate(0.000000,122.000000) scale(0.100000,-0.100000)"
fill="#000000" stroke="none">
<path d="M519 1068 c-1 -33 -7 -79 -13 -93 -3 -9 -26 -13 -66 -13 -65 0 -97
-15 -70 -32 8 -5 40 -10 71 -10 56 0 56 0 63 -39 6 -39 0 -71 -13 -71 -4 0
-15 14 -24 30 -26 43 -70 42 -97 -2 -39 -64 -15 -94 29 -38 27 35 37 37 46 10
3 -11 14 -20 24 -20 10 0 20 -3 24 -6 9 -10 -34 -47 -83 -72 -63 -32 -83 -49
-75 -62 9 -15 36 -5 122 47 72 44 73 44 105 29 17 -9 37 -16 44 -16 7 0 14 -4
16 -8 5 -12 77 -52 94 -52 8 0 14 8 14 19 0 13 -23 32 -72 61 -40 24 -75 45
-77 47 -5 4 40 53 48 53 3 0 15 -13 25 -29 21 -31 46 -31 46 1 0 24 -48 67
-76 68 -11 0 -31 -11 -44 -25 -13 -14 -27 -25 -32 -25 -13 0 -9 88 4 96 7 4
47 7 90 7 59 0 78 3 78 13 0 16 -26 23 -100 26 -55 3 -55 3 -58 66 -3 54 -6
62 -22 62 -14 0 -20 -7 -21 -22z"/>
<path d="M199 1018 c-1 -35 -2 -72 -1 -83 0 -12 -14 -29 -36 -43 -64 -41 -85
-76 -85 -141 0 -31 8 -73 17 -94 15 -34 15 -41 2 -70 -26 -57 -46 -126 -55
-195 -18 -129 -19 -148 -5 -167 8 -10 15 -17 18 -14 16 19 26 56 26 101 0 65
22 173 45 221 18 38 29 45 40 27 10 -16 55 -12 55 4 0 8 -4 18 -10 21 -15 9
-12 41 6 56 14 11 18 10 27 -6 38 -64 36 -120 -5 -156 -10 -9 -18 -24 -18 -33
0 -9 -4 -16 -9 -16 -5 0 -17 -20 -27 -45 -29 -77 -6 -280 40 -350 39 -60 51
-6 19 86 -17 49 -23 89 -23 151 0 97 13 137 60 186 29 31 31 37 26 90 -2 31
-13 75 -24 96 -19 39 -19 39 12 66 29 27 30 30 29 111 0 59 3 87 13 97 24 24
5 35 -49 28 -50 -7 -50 -7 -43 43 7 55 -5 91 -29 91 -12 0 -15 -15 -16 -62z
m101 -131 c0 -13 -5 -49 -11 -81 -9 -43 -16 -56 -28 -54 -12 3 -17 18 -19 69
-3 60 -1 67 20 77 34 16 38 14 38 -11z m-98 -74 c0 -27 2 -61 3 -78 2 -34 -20
-65 -45 -65 -17 0 -20 5 -39 63 -12 36 4 92 32 112 37 26 47 19 49 -32z"/>
<path d="M513 686 c-7 -8 -18 -17 -25 -20 -10 -5 -10 -7 0 -12 6 -3 12 -14 12
-24 0 -12 -24 -29 -80 -56 -58 -27 -80 -43 -80 -56 0 -15 5 -18 23 -12 37 11
112 48 115 56 2 4 21 8 43 8 39 0 97 -26 135 -61 29 -27 66 -26 62 3 -3 22
-45 51 -127 88 -41 19 -43 22 -38 54 4 25 1 36 -10 40 -18 7 -16 8 -30 -8z"/>
<path d="M420 460 c-8 -5 -25 -10 -36 -10 -12 0 -25 -8 -30 -17 -17 -40 -29
-121 -22 -158 4 -22 7 -58 8 -80 1 -60 29 -107 75 -129 70 -33 218 -18 251 26
21 27 30 86 28 173 -4 119 -12 175 -25 191 -14 17 -225 20 -249 4z m155 -26
c61 -5 61 -5 75 -52 17 -59 1 -232 -24 -257 -22 -23 -71 -35 -137 -35 -98 0
-126 49 -114 208 7 102 9 107 53 124 44 17 67 19 147 12z"/>
<path d="M453 355 c-8 -9 -13 -43 -13 -89 0 -75 0 -75 33 -80 28 -4 61 -3 121
2 16 2 18 10 14 76 -2 42 -9 80 -17 90 -18 21 -120 22 -138 1z m115 -37 c12
-45 -5 -97 -34 -104 -44 -11 -59 -1 -66 46 -5 40 -3 48 18 68 38 34 71 29 82
-10z"/>
</g>
</svg>
