<svg version="1.0" xmlns="http://www.w3.org/2000/svg"
 width="89.000000pt" height="87.000000pt" viewBox="0 0 89.000000 87.000000"
 preserveAspectRatio="xMidYMid meet">
<metadata>
Created by potrace 1.15, written by Peter Selinger 2001-2017
</metadata>
<g transform="translate(0.000000,87.000000) scale(0.100000,-0.100000)"
fill="#000000" stroke="none">
<path d="M225 824 c-16 -14 -44 -34 -61 -45 -31 -19 -50 -54 -34 -64 11 -7 60
15 60 27 0 4 11 8 25 8 26 0 26 0 21 -77 -3 -44 -9 -79 -16 -81 -16 -6 -68 18
-74 34 -3 7 -12 11 -20 8 -8 -3 -17 -1 -21 5 -9 15 -35 14 -35 -1 1 -24 66
-86 119 -112 48 -25 52 -30 46 -54 -6 -25 -34 -61 -97 -122 -29 -29 -45 -74
-30 -84 5 -3 31 14 58 39 70 63 73 65 79 65 3 0 5 -23 5 -52 0 -49 -2 -54 -50
-98 -27 -26 -50 -52 -50 -58 0 -5 -6 -12 -12 -15 -10 -3 -9 -9 3 -22 16 -16
18 -15 40 15 13 18 36 38 51 46 32 17 38 6 38 -66 0 -39 4 -52 22 -64 13 -9
26 -12 31 -7 9 9 5 76 -8 139 -4 17 -4 32 0 32 4 0 32 -20 64 -45 57 -45 84
-54 96 -35 7 11 -77 95 -131 132 -51 35 -73 98 -34 98 11 0 20 -4 20 -8 0 -12
90 -53 101 -47 5 4 3 18 -6 35 -13 25 -53 56 -110 85 -13 7 -21 22 -23 45 -3
31 4 43 48 89 27 29 50 61 50 72 0 11 6 28 12 39 10 15 10 22 0 32 -9 9 -16 7
-32 -7 -11 -10 -20 -24 -20 -32 0 -7 -4 -13 -10 -13 -5 0 -10 -6 -10 -13 0 -8
-9 -22 -20 -32 -20 -18 -20 -17 -20 91 -1 75 -5 114 -14 127 -17 22 -15 22
-51 -9z"/>
<path d="M705 797 c-59 -70 -75 -118 -75 -218 0 -49 -3 -89 -7 -89 -8 0 -41
67 -63 128 -8 21 -19 32 -32 32 -15 0 -18 -4 -13 -17 4 -10 11 -34 15 -53 21
-89 29 -105 75 -132 41 -25 45 -31 45 -67 0 -22 3 -46 6 -55 5 -12 0 -16 -19
-16 -17 0 -35 13 -58 41 -19 23 -35 45 -37 50 -9 23 -32 7 -32 -21 0 -16 5
-30 10 -30 6 0 10 -7 10 -15 0 -18 71 -91 97 -99 25 -8 43 -46 43 -90 0 -19 8
-40 19 -50 17 -16 19 -16 24 5 3 13 3 43 0 67 -3 24 -2 47 3 50 19 14 71 88
84 120 10 26 10 41 1 73 -13 44 -31 52 -31 14 0 -40 -39 -115 -61 -115 -4 0
-11 29 -14 65 -7 63 -7 65 24 91 17 14 31 34 31 45 0 10 9 35 21 55 11 20 19
46 17 58 -4 29 -32 27 -36 -4 -2 -14 -8 -29 -13 -35 -5 -5 -9 -18 -9 -30 0
-19 -43 -49 -55 -37 -7 7 -7 102 1 139 3 16 21 46 40 68 37 43 45 85 17 85
-10 -1 -23 -6 -28 -13z"/>
</g>
</svg>
