<svg version="1.0" xmlns="http://www.w3.org/2000/svg"
 width="61.000000pt" height="124.000000pt" viewBox="0 0 61.000000 124.000000"
 preserveAspectRatio="xMidYMid meet">
<metadata>
Created by potrace 1.15, written by Peter Selinger 2001-2017
</metadata>
<g transform="translate(0.000000,124.000000) scale(0.100000,-0.100000)"
fill="#000000" stroke="none">
<path d="M100 1072 c0 -31 0 -31 203 -34 221 -3 237 -7 237 -57 0 -15 -6 -39
-12 -54 -13 -28 -13 -28 -178 -26 -244 3 -243 4 -247 -296 -3 -258 -22 -372
-82 -485 -18 -33 23 -57 47 -27 14 17 47 138 62 226 10 58 10 75 0 81 -7 4 -8
9 -2 11 5 2 12 50 15 105 8 151 0 144 170 144 176 0 182 -3 181 -87 0 -32 -4
-123 -9 -203 -7 -124 -5 -155 10 -215 25 -103 41 -135 64 -135 26 0 26 10 0
85 -18 54 -20 83 -19 303 0 156 -3 250 -10 263 -19 35 -58 43 -220 43 -155 1
-155 1 -152 51 5 69 19 80 100 80 58 0 67 2 64 18 -2 9 2 17 8 17 5 0 10 -9
10 -20 0 -19 7 -20 99 -20 98 0 100 1 120 28 27 39 35 133 14 177 -20 42 -24
43 -275 51 -198 7 -198 7 -198 -24z"/>
</g>
</svg>
