<svg version="1.0" xmlns="http://www.w3.org/2000/svg"
 width="61.000000pt" height="79.000000pt" viewBox="0 0 61.000000 79.000000"
 preserveAspectRatio="xMidYMid meet">
<metadata>
Created by potrace 1.15, written by Peter Selinger 2001-2017
</metadata>
<g transform="translate(0.000000,79.000000) scale(0.100000,-0.100000)"
fill="#000000" stroke="none">
<path d="M125 650 c-3 -5 3 -22 14 -37 11 -16 22 -47 26 -70 7 -43 7 -43 -32
-43 -22 0 -44 -5 -51 -12 -16 -16 -16 -200 0 -268 12 -55 31 -70 84 -70 21 0
24 -5 24 -34 0 -38 -12 -46 -68 -46 -45 0 -67 -13 -59 -34 8 -21 93 -22 135 0
24 11 33 24 37 52 11 62 12 63 52 60 36 -3 38 -5 41 -40 2 -20 9 -42 17 -48
21 -17 122 -25 139 -11 28 24 7 41 -50 41 -53 0 -54 0 -54 30 0 27 3 30 29 30
92 0 114 44 109 213 -4 159 -4 159 -175 155 -114 -3 -126 -1 -139 17 -33 44
-19 50 140 55 102 3 151 9 153 17 9 26 -33 32 -167 23 -127 -9 -135 -8 -152
10 -20 22 -43 26 -53 10z m312 -188 c6 -4 16 -20 22 -35 11 -27 11 -27 -162
-25 -172 3 -172 3 -175 36 -3 32 -3 32 150 32 84 0 158 -4 165 -8z m30 -122
c6 -32 -13 -37 -174 -44 -162 -7 -162 -7 -169 18 -3 14 -3 30 1 36 4 7 62 10
173 8 139 -3 167 -6 169 -18z m-9 -107 c-4 -23 -44 -32 -170 -40 -113 -6 -131
-2 -141 37 -5 19 1 20 155 20 144 0 159 -2 156 -17z"/>
</g>
</svg>
