<svg version="1.0" xmlns="http://www.w3.org/2000/svg"
 width="73.000000pt" height="199.000000pt" viewBox="0 0 73.000000 199.000000"
 preserveAspectRatio="xMidYMid meet">
<metadata>
Created by potrace 1.15, written by Peter Selinger 2001-2017
</metadata>
<g transform="translate(0.000000,199.000000) scale(0.100000,-0.100000)"
fill="#000000" stroke="none">
<path d="M295 1881 c-3 -6 3 -42 14 -81 19 -70 19 -70 -9 -90 -16 -11 -33 -20
-39 -20 -6 0 -11 -4 -11 -10 0 -5 -7 -10 -15 -10 -15 0 -55 -19 -65 -31 -3 -3
-15 -12 -28 -18 -13 -7 -31 -19 -40 -27 -9 -7 -25 -19 -34 -26 -9 -7 -18 -22
-20 -33 -4 -28 46 -33 76 -7 25 22 103 59 164 78 42 13 42 13 42 -31 0 -24 -4
-47 -10 -50 -5 -3 -10 -15 -10 -27 0 -44 -62 -129 -175 -240 -21 -21 -47 -51
-57 -66 -23 -34 -24 -82 -2 -82 14 0 92 75 124 119 8 12 20 21 26 21 7 0 40
27 73 61 53 52 63 59 81 49 21 -11 50 -69 50 -101 0 -35 -22 -69 -46 -69 -13
0 -38 -10 -57 -22 -19 -13 -53 -34 -77 -48 -60 -35 -190 -164 -190 -190 0 -36
39 -24 89 28 64 66 201 136 201 102 0 -5 -9 -24 -20 -42 -11 -18 -20 -43 -20
-55 0 -13 -4 -23 -8 -23 -17 0 -141 -106 -173 -146 -30 -39 -31 -58 -2 -62 15
-2 41 14 83 53 34 31 63 55 65 53 2 -2 -1 -37 -8 -78 -7 -41 -12 -118 -12
-170 0 -88 7 -146 36 -335 6 -38 13 -95 16 -125 5 -53 16 -80 34 -80 13 0 10
100 -7 240 -23 184 -29 370 -14 443 21 108 18 105 52 67 16 -19 36 -50 46 -69
20 -44 36 -61 56 -61 24 0 20 64 -6 114 -13 22 -26 43 -29 46 -3 3 -22 27 -42
54 -40 53 -41 77 -6 128 11 14 19 33 19 42 0 25 34 19 59 -10 31 -36 85 -157
96 -216 5 -27 12 -37 31 -41 23 -4 23 -2 18 47 -4 49 -42 186 -53 196 -4 3
-12 17 -20 33 -8 15 -18 27 -23 27 -4 0 -8 5 -8 11 0 6 -7 17 -15 25 -8 8 -12
21 -9 28 3 8 1 17 -5 21 -8 4 -6 15 4 35 21 41 7 136 -28 189 -15 22 -27 47
-27 56 0 8 -4 15 -10 15 -19 0 -12 59 15 137 1 4 75 -23 81 -30 4 -4 14 -7 22
-7 8 0 44 -13 79 -30 73 -35 79 -36 87 -13 9 23 -54 86 -110 109 -24 10 -44
22 -44 26 0 4 -5 8 -11 8 -6 0 -35 16 -64 35 -44 30 -57 45 -72 87 -24 68 -88
120 -108 89z"/>
</g>
</svg>
