<svg version="1.0" xmlns="http://www.w3.org/2000/svg"
 width="67.000000pt" height="89.000000pt" viewBox="0 0 67.000000 89.000000"
 preserveAspectRatio="xMidYMid meet">
<metadata>
Created by potrace 1.15, written by Peter Selinger 2001-2017
</metadata>
<g transform="translate(0.000000,89.000000) scale(0.100000,-0.100000)"
fill="#000000" stroke="none">
<path d="M485 684 c-36 -36 2 -88 49 -66 32 14 34 45 4 66 -28 20 -33 20 -53
0z"/>
<path d="M121 664 c-26 -33 -26 -37 -1 -59 23 -21 66 -14 75 14 9 28 -12 71
-34 71 -11 0 -29 -12 -40 -26z"/>
<path d="M292 668 c-28 -28 0 -85 36 -74 49 16 51 86 3 86 -15 0 -32 -5 -39
-12z"/>
<path d="M185 558 c-16 -6 -36 -15 -42 -21 -15 -11 -18 -144 -3 -167 6 -10 32
-17 82 -20 68 -5 73 -7 76 -29 4 -24 4 -24 -119 -20 -108 4 -124 2 -127 -12
-4 -22 35 -29 155 -29 92 0 94 -1 91 -22 -3 -21 -7 -23 -62 -20 -102 6 -106 3
-106 -78 0 -38 5 -72 10 -75 18 -11 40 16 40 50 0 43 19 57 72 53 43 -3 43 -3
48 -72 5 -73 16 -88 44 -61 11 12 16 34 16 76 0 60 0 60 73 57 72 -3 72 -3 72
-55 0 -60 6 -69 34 -53 18 9 21 20 21 81 0 67 -1 70 -27 80 -17 7 -57 8 -100
5 -69 -6 -73 -6 -73 14 0 19 6 20 88 20 110 0 162 9 162 26 0 17 2 17 -137 14
-107 -2 -113 -1 -113 18 0 18 8 20 80 24 106 4 115 13 115 117 0 114 4 111
-184 110 -86 0 -169 -5 -186 -11z m113 -60 c3 -15 -5 -18 -52 -18 -40 0 -56 4
-56 13 0 23 12 28 60 25 33 -2 46 -7 48 -20z m200 0 c3 -16 -5 -18 -67 -18
-38 0 -73 5 -76 10 -14 22 9 31 73 28 54 -2 67 -6 70 -20z m-198 -83 c0 -23
-3 -25 -49 -25 -31 0 -51 5 -54 13 -9 27 6 37 54 37 46 0 49 -2 49 -25z m193
9 c-8 -20 -45 -34 -94 -34 -35 0 -39 3 -39 25 0 24 2 25 70 25 59 0 68 -2 63
-16z"/>
</g>
</svg>
