<svg version="1.0" xmlns="http://www.w3.org/2000/svg"
 width="73.000000pt" height="163.000000pt" viewBox="0 0 73.000000 163.000000"
 preserveAspectRatio="xMidYMid meet">
<metadata>
Created by potrace 1.15, written by Peter Selinger 2001-2017
</metadata>
<g transform="translate(0.000000,163.000000) scale(0.100000,-0.100000)"
fill="#000000" stroke="none">
<path d="M359 1485 c-7 -19 -17 -35 -21 -35 -4 0 -8 -8 -8 -18 0 -10 -4 -22
-9 -27 -17 -18 -51 -85 -51 -100 0 -8 -4 -15 -9 -15 -15 0 -22 -79 -11 -121
10 -37 51 -89 70 -89 6 0 10 -9 10 -20 0 -23 -14 -27 -115 -34 -81 -5 -105
-13 -105 -32 0 -12 20 -13 115 -8 110 7 115 6 115 -12 0 -18 -12 -21 -111 -32
-115 -13 -154 -25 -143 -44 4 -7 37 -9 94 -6 87 5 87 5 119 -49 38 -67 38 -73
4 -73 -73 0 -233 -24 -233 -36 0 -22 31 -25 142 -13 92 10 112 9 119 -2 5 -8
9 -17 9 -20 0 -3 -48 -12 -107 -18 -140 -16 -148 -18 -131 -38 12 -15 83 -15
199 3 47 6 47 6 53 -92 3 -55 9 -172 12 -261 4 -90 8 -163 9 -163 2 0 10 3 19
6 14 5 16 28 16 148 0 79 -5 191 -11 250 -6 59 -9 109 -7 112 3 2 47 6 99 9
131 7 179 15 179 30 0 21 -23 24 -155 20 -124 -5 -126 -4 -123 17 3 19 10 21
93 23 98 3 225 22 225 35 0 13 -57 16 -190 10 -69 -3 -127 -5 -128 -4 -9 6 12
43 46 82 37 42 39 43 107 46 98 4 145 15 145 33 0 14 -20 15 -150 10 -140 -5
-150 -4 -150 13 0 25 15 28 132 35 120 7 128 9 128 29 0 24 -41 29 -142 19
-51 -6 -99 -8 -105 -5 -19 6 -16 42 3 42 38 0 69 65 80 171 6 52 -12 114 -59
204 -34 65 -50 70 -68 20z m60 -120 c7 -25 12 -48 9 -50 -2 -2 -17 7 -32 20
-22 19 -27 30 -22 50 10 39 30 30 45 -20z m-5 -106 c27 -25 29 -49 3 -49 -7 1
-32 19 -56 40 -29 27 -41 45 -37 56 6 15 9 15 34 -2 15 -10 40 -30 56 -45z
m-78 -48 c11 -10 30 -24 42 -30 34 -18 26 -31 -21 -31 -50 0 -67 13 -67 52 0
33 17 36 46 9z m54 -311 c0 -6 -7 -22 -16 -36 -16 -23 -17 -23 -30 -7 -24 32
-17 53 16 53 17 0 30 -5 30 -10z"/>
<path d="M641 518 c-25 -99 -51 -119 -51 -40 0 53 -19 90 -40 77 -9 -5 -10
-27 -6 -84 7 -76 7 -76 -13 -51 -11 14 -21 34 -21 46 0 30 -29 84 -45 84 -19
0 -26 -26 -19 -73 10 -62 57 -127 93 -127 23 0 28 -14 35 -105 12 -147 19
-195 32 -206 21 -17 28 33 15 111 -18 109 -15 209 7 229 41 37 68 191 33 191
-4 0 -13 -24 -20 -52z"/>
<path d="M109 518 c0 -18 -2 -43 -5 -55 -5 -29 10 -66 37 -91 21 -20 21 -23 9
-134 -18 -160 -18 -173 0 -173 16 0 22 29 39 175 11 90 18 110 40 110 30 0 62
63 64 127 1 32 -2 59 -8 61 -5 2 -18 -23 -27 -54 -9 -31 -24 -64 -33 -73 -14
-15 -15 -11 -10 39 5 41 3 60 -8 75 -15 20 -16 19 -26 -8 -6 -16 -11 -46 -11
-68 0 -21 -4 -39 -10 -39 -14 0 -13 73 1 87 8 8 5 17 -10 32 -29 29 -41 26
-42 -11z"/>
</g>
</svg>
