<svg version="1.0" xmlns="http://www.w3.org/2000/svg"
 width="71.000000pt" height="81.000000pt" viewBox="0 0 71.000000 81.000000"
 preserveAspectRatio="xMidYMid meet">
<metadata>
Created by potrace 1.15, written by Peter Selinger 2001-2017
</metadata>
<g transform="translate(0.000000,81.000000) scale(0.100000,-0.100000)"
fill="#000000" stroke="none">
<path d="M485 758 c-2 -7 -5 -24 -7 -38 -3 -22 -9 -26 -58 -31 -67 -7 -87 -15
-102 -42 -6 -12 -12 -90 -13 -181 -3 -164 -24 -316 -51 -368 -25 -49 -11 -95
20 -68 33 26 55 160 64 378 7 170 11 216 24 228 11 11 44 17 112 21 96 6 96 6
96 -31 0 -36 0 -36 -54 -36 -48 0 -55 2 -58 22 -5 35 -28 34 -28 -1 0 -28 -3
-31 -29 -31 -16 0 -31 -6 -35 -15 -4 -12 3 -15 32 -15 34 0 39 -3 47 -32 8
-25 18 -35 43 -42 43 -12 77 4 103 48 11 19 33 39 50 45 40 14 37 31 -7 31
-34 0 -35 1 -32 32 2 24 9 34 26 38 44 10 22 25 -42 28 -65 3 -65 3 -68 34 -3
33 -25 50 -33 26z m73 -225 c-6 -31 -88 -29 -88 2 0 11 12 15 46 15 38 0 45
-3 42 -17z"/>
<path d="M94 676 c-55 -24 -64 -48 -64 -172 0 -97 3 -115 21 -138 11 -14 27
-26 36 -26 11 0 14 -6 9 -23 -10 -35 -36 -250 -31 -255 12 -12 35 24 35 56 0
20 4 49 10 66 5 17 12 57 16 89 4 39 11 60 21 64 24 9 30 -12 36 -125 3 -59 8
-115 12 -125 9 -21 42 -18 37 4 -2 7 -11 66 -19 130 -16 116 -16 117 6 147 19
27 21 44 21 147 0 115 0 117 -29 146 -33 32 -67 37 -117 15z m99 -57 c21 -34
2 -49 -63 -49 -58 0 -61 1 -58 22 6 43 98 64 121 27z m5 -101 c-3 -24 -30 -35
-90 -37 -34 -1 -38 2 -38 23 0 23 4 25 53 29 28 2 58 4 65 5 8 1 12 -6 10 -20z
m2 -91 c0 -33 -18 -47 -59 -47 -43 0 -56 8 -65 37 -6 20 -3 22 36 26 91 8 88
8 88 -16z"/>
<path d="M533 392 c36 -37 47 -55 47 -80 0 -18 -2 -32 -4 -32 -2 0 -23 18 -47
40 -51 47 -120 90 -144 90 -27 0 -11 -23 33 -48 43 -24 109 -98 98 -110 -4 -3
-13 -2 -20 3 -7 6 -32 25 -56 43 -24 17 -47 32 -52 32 -21 0 -4 -31 42 -74 39
-36 56 -46 84 -46 32 0 36 -3 45 -37 6 -21 11 -49 11 -63 0 -28 16 -50 37 -50
18 0 17 62 -3 125 -16 49 -16 53 5 94 13 24 19 50 16 61 -8 24 -102 100 -123
100 -10 0 1 -17 31 -48z"/>
</g>
</svg>
