<svg version="1.0" xmlns="http://www.w3.org/2000/svg"
 width="69.000000pt" height="83.000000pt" viewBox="0 0 69.000000 83.000000"
 preserveAspectRatio="xMidYMid meet">
<metadata>
Created by potrace 1.15, written by Peter Selinger 2001-2017
</metadata>
<g transform="translate(0.000000,83.000000) scale(0.100000,-0.100000)"
fill="#000000" stroke="none">
<path d="M182 758 c-31 -39 -80 -176 -101 -283 -7 -33 -16 -74 -22 -91 -16
-53 -11 -123 12 -155 24 -34 105 -72 136 -64 26 6 33 45 9 45 -22 0 -63 60
-69 101 -4 31 -2 38 16 46 101 46 120 54 121 51 1 -2 10 -29 20 -61 20 -67 41
-73 66 -20 13 29 18 32 45 27 81 -17 122 -56 95 -89 -14 -17 -60 -20 -60 -5 0
6 -9 10 -20 10 -31 0 -25 -39 13 -72 27 -25 39 -29 77 -26 45 3 45 3 61 -62
26 -108 41 -124 73 -75 18 27 20 57 7 83 -20 39 -31 118 -31 218 0 114 -8 142
-57 184 -53 47 -88 59 -127 44 -24 -9 -19 -22 17 -39 66 -32 87 -61 87 -119 0
-37 -8 -44 -27 -25 -7 7 -39 12 -72 13 -56 1 -60 2 -65 28 -6 30 -34 48 -113
73 -102 34 -105 36 -98 64 9 38 16 41 63 29 75 -19 82 19 12 62 -25 16 -38 30
-35 39 7 18 -5 81 -15 81 -4 0 -12 -6 -18 -12z"/>
</g>
</svg>
