<svg version="1.0" xmlns="http://www.w3.org/2000/svg"
 width="51.000000pt" height="93.000000pt" viewBox="0 0 51.000000 93.000000"
 preserveAspectRatio="xMidYMid meet">
<metadata>
Created by potrace 1.15, written by Peter Selinger 2001-2017
</metadata>
<g transform="translate(0.000000,93.000000) scale(0.100000,-0.100000)"
fill="#000000" stroke="none">
<path d="M193 667 c-13 -18 -23 -39 -23 -45 0 -7 -3 -12 -8 -12 -9 0 -27 -41
-41 -95 -26 -96 -2 -172 68 -218 22 -15 43 -27 46 -27 10 0 5 19 -11 34 -14
14 -14 23 -3 66 7 28 20 58 29 68 9 9 19 25 23 35 9 23 28 22 34 -4 3 -11 11
-18 18 -15 8 3 16 -5 19 -20 7 -25 -12 -70 -40 -99 -22 -21 -9 -33 18 -16 17
10 22 10 29 0 8 -14 20 -104 20 -164 1 -58 10 -98 20 -88 19 19 31 156 19 228
-6 39 -11 81 -10 95 6 159 5 175 -14 178 -16 3 -18 0 -14 -24 3 -16 2 -38 -2
-49 -13 -36 -40 35 -40 106 0 52 -2 60 -16 55 -9 -3 -18 -6 -20 -6 -2 0 -4
-22 -4 -50 0 -50 -5 -55 -40 -50 -36 5 -47 59 -25 128 11 33 -7 27 -32 -11z
m22 -134 c32 -32 36 -40 25 -56 -34 -56 -50 -90 -50 -110 0 -21 0 -21 -21 0
-17 17 -22 34 -23 80 -1 47 17 123 29 123 2 0 20 -17 40 -37z"/>
</g>
</svg>
