<svg version="1.0" xmlns="http://www.w3.org/2000/svg"
 width="67.000000pt" height="87.000000pt" viewBox="0 0 67.000000 87.000000"
 preserveAspectRatio="xMidYMid meet">
<metadata>
Created by potrace 1.15, written by Peter Selinger 2001-2017
</metadata>
<g transform="translate(0.000000,87.000000) scale(0.100000,-0.100000)"
fill="#000000" stroke="none">
<path d="M142 718 c-36 -53 -80 -148 -88 -188 -12 -58 42 -214 78 -225 25 -9
38 2 38 30 0 13 4 27 10 30 5 3 10 14 10 24 0 10 18 32 40 50 22 17 40 36 40
41 0 18 -71 10 -100 -10 -15 -11 -30 -17 -34 -13 -11 11 -7 58 10 106 17 50
29 59 38 29 15 -47 121 -111 160 -96 26 10 19 22 -34 60 -60 43 -93 94 -100
154 -7 61 -30 64 -68 8z"/>
<path d="M310 673 c0 -10 27 -44 60 -77 59 -58 94 -114 88 -141 -3 -13 -7 -13
-29 -1 -38 20 -99 29 -99 15 0 -12 88 -99 102 -99 4 0 8 -8 8 -18 0 -20 -27
-48 -62 -66 -12 -6 -23 -17 -26 -23 -6 -20 43 -16 94 9 46 21 46 21 65 -3 10
-13 19 -31 19 -40 0 -9 3 -19 7 -23 10 -10 32 -96 33 -128 0 -15 4 -29 8 -32
32 -20 47 73 26 164 -15 64 -52 152 -66 158 -5 2 -8 17 -8 33 0 40 -22 121
-37 137 -7 7 -13 17 -13 21 0 15 -99 111 -114 111 -9 0 -16 5 -16 10 0 6 -9
10 -20 10 -12 0 -20 -7 -20 -17z"/>
</g>
</svg>
