<svg version="1.0" xmlns="http://www.w3.org/2000/svg"
 width="51.000000pt" height="91.000000pt" viewBox="0 0 51.000000 91.000000"
 preserveAspectRatio="xMidYMid meet">
<metadata>
Created by potrace 1.15, written by Peter Selinger 2001-2017
</metadata>
<g transform="translate(0.000000,91.000000) scale(0.100000,-0.100000)"
fill="#000000" stroke="none">
<path d="M143 613 c-23 -2 -45 -9 -50 -16 -4 -7 -6 -70 -3 -142 5 -129 5 -129
45 -152 22 -13 58 -28 79 -34 34 -9 42 -8 52 5 6 9 21 16 32 16 13 0 28 12 39
30 9 17 20 30 24 30 10 0 30 -129 32 -212 3 -88 10 -103 26 -57 22 63 10 242
-20 301 -5 10 -9 44 -9 75 0 68 -12 117 -35 139 -22 23 -29 11 -16 -27 13 -37
15 -119 3 -119 -19 0 -32 27 -32 67 0 32 -4 43 -15 43 -8 0 -15 -6 -16 -12 -3
-52 -13 -65 -34 -45 -19 20 -19 26 1 67 25 48 13 53 -103 43z m27 -65 c0 -13
9 -34 20 -48 25 -32 25 -35 -2 -73 -13 -17 -28 -43 -35 -57 -10 -21 -11 -7 -8
80 4 129 3 120 15 120 6 0 10 -10 10 -22z m104 -133 c3 -8 3 -22 0 -30 -6 -13
6 -20 29 -16 13 2 7 -15 -13 -37 -12 -12 -27 -22 -35 -22 -21 0 -65 22 -65 32
0 13 32 61 50 75 20 16 27 16 34 -2z"/>
</g>
</svg>
