<svg version="1.0" xmlns="http://www.w3.org/2000/svg"
 width="68.000000pt" height="105.000000pt" viewBox="0 0 68.000000 105.000000"
 preserveAspectRatio="xMidYMid meet">
<metadata>
Created by potrace 1.15, written by Peter Selinger 2001-2017
</metadata>
<g transform="translate(0.000000,105.000000) scale(0.100000,-0.100000)"
fill="#000000" stroke="none">
<path d="M172 988 c-8 -8 -12 -57 -12 -160 0 -155 -3 -165 -43 -135 -15 10
-18 30 -18 117 0 116 -4 140 -23 140 -16 0 -25 -83 -21 -194 4 -109 14 -117
150 -115 93 1 125 9 125 30 0 5 -24 9 -54 9 -34 0 -56 5 -59 13 -7 18 10 57
26 57 18 0 50 28 65 56 12 23 6 112 -10 131 -21 27 -37 1 -40 -65 -2 -54 -6
-67 -20 -70 -16 -3 -18 6 -19 70 -1 109 -17 146 -47 116z"/>
<path d="M343 864 c-4 -11 5 -26 25 -44 18 -15 32 -35 32 -43 0 -8 3 -17 8
-19 10 -4 52 -87 52 -101 0 -7 -9 -23 -20 -37 -11 -14 -20 -33 -20 -42 0 -10
-4 -18 -9 -18 -5 0 -14 -14 -21 -31 -10 -24 -18 -29 -39 -27 -26 3 -28 9 -17
38 4 9 0 24 -9 35 -13 17 -16 18 -25 5 -5 -8 -10 -30 -10 -47 0 -46 -21 -41
-43 10 -18 42 -18 42 -36 -8 -20 -58 -42 -65 -52 -17 -4 19 -11 38 -17 44 -13
13 -32 2 -32 -18 0 -18 -33 -94 -41 -94 -3 0 -6 32 -6 70 0 76 -4 86 -28 77
-13 -5 -15 -36 -16 -209 -1 -112 -2 -229 -2 -260 -1 -49 3 -60 24 -79 34 -30
55 -36 133 -38 58 -1 75 2 107 23 37 25 37 26 44 108 4 46 8 131 9 190 1 59 5
110 8 113 4 4 60 9 125 12 65 3 124 10 131 16 10 8 16 7 21 -2 11 -18 45 -10
49 12 2 12 -3 17 -17 17 -11 0 -32 16 -48 38 -15 20 -30 39 -33 42 -3 3 -16
22 -28 43 -22 38 -22 39 -4 65 10 15 29 49 42 76 14 27 32 51 42 54 22 5 31
31 17 48 -9 11 -45 14 -151 14 -119 0 -140 -2 -145 -16z m210 -30 c7 -8 -38
-100 -54 -110 -6 -4 -17 1 -23 11 -57 93 -55 105 18 105 29 0 55 -3 59 -6z
m-29 -268 c14 -25 26 -49 26 -55 0 -7 -25 -11 -65 -11 -36 0 -65 2 -65 5 0 11
24 55 30 55 4 0 12 11 18 25 16 35 26 31 56 -19z m-284 -108 c0 -5 9 -23 21
-39 36 -51 23 -59 -97 -59 -58 0 -104 3 -102 8 7 17 64 91 69 92 4 0 12 -13
19 -30 14 -33 38 -40 46 -12 12 37 27 61 36 56 4 -3 8 -10 8 -16z m50 -199 c0
-32 -5 -61 -10 -64 -6 -4 -24 22 -40 57 -30 63 -30 63 -8 69 48 12 58 1 58
-62z m-96 34 c-15 -62 -23 -76 -39 -63 -7 6 -15 23 -17 37 -4 37 -26 40 -33 6
-4 -15 -10 -36 -16 -45 -5 -10 -9 -25 -9 -33 0 -8 -4 -15 -10 -15 -9 0 -14 31
-13 85 1 57 -1 55 73 55 70 0 70 0 64 -27z m-54 -133 c10 -38 40 -57 40 -25 0
23 22 65 34 65 6 0 21 -18 34 -40 20 -36 21 -44 10 -68 -12 -24 -19 -27 -73
-30 -74 -4 -97 2 -113 28 -10 16 -10 24 0 43 7 12 16 24 19 27 3 3 8 13 12 23
11 28 26 19 37 -23z"/>
<path d="M575 378 c-2 -7 -5 -24 -7 -38 -4 -29 -31 -38 -97 -30 -41 4 -46 8
-49 33 -4 30 -29 48 -41 28 -7 -10 -13 -169 -11 -256 1 -44 25 -73 65 -81 37
-7 151 -2 160 7 24 25 35 315 13 337 -15 15 -28 15 -33 0z m-16 -117 c11 -7
13 -25 8 -81 -8 -93 -16 -102 -86 -98 -56 3 -56 3 -56 88 0 85 0 85 30 91 45
10 88 10 104 0z"/>
</g>
</svg>
