<svg version="1.0" xmlns="http://www.w3.org/2000/svg"
 width="77.000000pt" height="119.000000pt" viewBox="0 0 77.000000 119.000000"
 preserveAspectRatio="xMidYMid meet">
<metadata>
Created by potrace 1.15, written by Peter Selinger 2001-2017
</metadata>
<g transform="translate(0.000000,119.000000) scale(0.100000,-0.100000)"
fill="#000000" stroke="none">
<path d="M517 1123 c-4 -3 -7 -19 -7 -35 0 -29 -3 -32 -51 -42 -39 -9 -89 -59
-89 -90 0 -19 -5 -26 -20 -26 -11 0 -20 -4 -20 -9 0 -5 -7 -12 -16 -15 -10 -4
-13 -2 -8 6 10 15 14 152 6 164 -19 26 -61 38 -127 35 -83 -3 -102 -12 -121
-56 -16 -39 -19 -121 -4 -130 15 -9 12 -35 -4 -35 -29 0 -46 -42 -46 -112 0
-63 12 -91 30 -72 4 5 10 35 13 68 3 32 10 63 15 68 11 11 197 13 213 2 5 -3
9 -32 9 -64 0 -61 13 -110 29 -110 9 0 23 44 27 80 0 8 2 23 3 33 0 10 6 15
12 12 6 -4 9 -34 8 -72 -2 -66 -2 -66 40 -89 23 -13 48 -24 56 -24 8 0 15 -3
15 -7 0 -12 -51 -33 -78 -33 -25 0 -39 -11 -59 -48 -15 -26 -17 -49 -4 -54 19
-7 15 -83 -7 -129 -28 -59 -36 -254 -12 -269 8 -6 18 -10 21 -10 4 0 9 55 11
123 5 158 30 210 62 132 16 -36 42 -46 53 -19 3 8 -4 25 -16 38 -28 30 -27 50
4 64 37 17 53 15 60 -7 3 -10 21 -29 40 -42 52 -36 47 -66 -15 -107 -48 -31
-50 -34 -50 -77 0 -38 4 -47 33 -68 41 -31 132 -77 152 -77 9 0 15 9 15 25 0
15 -6 25 -15 25 -28 0 -123 54 -136 76 -16 32 -6 51 38 70 64 28 67 30 74 57
11 41 0 65 -40 89 -60 37 -65 51 -18 64 27 8 34 17 47 57 13 41 19 47 43 47
20 0 27 5 27 19 0 33 -22 41 -97 35 -50 -4 -73 -2 -78 6 -10 17 9 27 66 34 26
4 51 11 54 17 14 22 25 140 15 160 -15 26 -34 24 -50 -6 -9 -17 -22 -25 -40
-25 -23 0 -27 4 -27 29 0 25 6 31 39 42 44 14 53 23 62 61 5 23 15 30 52 39
52 13 53 30 1 44 -42 12 -71 35 -45 35 23 0 32 18 18 36 -12 13 -29 13 -115 0
-5 0 -11 16 -13 37 -3 34 -18 48 -35 30z m-283 -69 c37 -14 10 -44 -38 -44
-29 0 -58 -47 -37 -59 10 -6 10 -13 2 -29 -21 -39 -79 -38 -66 2 4 11 10 44
12 71 3 28 10 53 17 57 13 9 88 10 110 2z m379 -50 c13 -14 -7 -34 -34 -34
-22 0 -29 5 -29 20 0 15 7 20 28 20 16 0 31 -3 35 -6z m-113 -23 c0 -26 -15
-34 -46 -27 -30 8 -31 24 -1 36 35 14 47 12 47 -9z m-230 -33 c-1 -58 -53 -67
-58 -10 -3 30 -1 32 27 32 26 0 31 -4 31 -22z m335 -38 c0 -9 -11 -16 -27 -18
-20 -2 -28 1 -28 12 0 8 6 17 13 19 21 9 42 2 42 -13z m-115 -25 c0 -10 -10
-15 -30 -15 -16 0 -30 4 -30 9 0 8 10 12 53 20 4 0 7 -6 7 -14z m-123 -39 c-4
-9 -11 -16 -16 -16 -15 0 -23 33 -9 41 17 11 32 -5 25 -25z m123 -56 c0 -13
-10 -24 -26 -31 -15 -5 -27 -8 -28 -7 0 2 -6 13 -13 25 -14 25 -6 31 40 32 21
1 27 -4 27 -19z m124 -85 c3 -8 -2 -21 -10 -30 -18 -18 -16 -18 -48 -5 -17 6
-24 15 -20 24 10 26 69 34 78 11z m-124 -16 c0 -16 -5 -20 -27 -17 -17 2 -29
10 -31 21 -3 13 3 17 27 17 25 0 31 -4 31 -21z m-14 -176 c19 -25 17 -53 -3
-59 -10 -3 -28 -11 -41 -17 -27 -13 -42 2 -42 44 0 42 61 64 86 32z m122 -10
c-2 -23 -8 -29 -35 -31 -30 -3 -32 -1 -31 27 1 28 4 31 35 31 32 0 34 -2 31
-27z"/>
<path d="M121 778 c-32 -34 -61 -89 -79 -148 -15 -50 -25 -272 -13 -290 15
-22 20 -11 32 76 6 43 12 80 14 82 2 2 6 -12 10 -30 12 -54 24 -71 41 -58 7 7
12 16 9 19 -2 4 -5 25 -6 47 -2 21 -11 52 -22 68 -22 32 -28 97 -10 103 15 5
53 -54 53 -83 0 -11 7 -29 15 -40 13 -16 16 -17 25 -4 16 23 1 91 -31 137 -36
51 -37 73 -6 73 48 0 78 -66 73 -160 -4 -69 -22 -133 -62 -215 -23 -48 -43
-157 -44 -238 0 -25 5 -40 16 -44 25 -9 32 7 38 102 9 119 28 200 55 225 34
32 42 65 44 184 1 86 -2 121 -11 124 -7 2 -12 10 -12 19 0 19 -65 83 -85 83
-8 0 -28 -14 -44 -32z"/>
</g>
</svg>
