<svg version="1.0" xmlns="http://www.w3.org/2000/svg"
 width="72.000000pt" height="114.000000pt" viewBox="0 0 72.000000 114.000000"
 preserveAspectRatio="xMidYMid meet">
<metadata>
Created by potrace 1.15, written by Peter Selinger 2001-2017
</metadata>
<g transform="translate(0.000000,114.000000) scale(0.100000,-0.100000)"
fill="#000000" stroke="none">
<path d="M250 1067 c0 -8 7 -28 15 -44 24 -49 13 -60 -69 -68 -136 -12 -131
-40 7 -37 96 2 113 -3 135 -45 16 -29 2 -33 -127 -33 -59 0 -111 -3 -114 -7
-4 -3 -2 -12 5 -20 9 -11 34 -13 130 -7 118 7 118 7 118 -34 0 -27 -5 -42 -16
-46 -9 -3 -64 -6 -124 -6 -118 0 -140 -4 -140 -27 0 -12 21 -14 128 -13 190 3
172 8 172 -50 0 -43 3 -50 20 -50 22 0 22 0 26 49 1 18 7 38 14 45 7 7 54 11
126 12 73 0 119 5 126 12 22 22 -3 27 -115 24 -62 -1 -118 1 -124 6 -7 4 -15
22 -19 39 -5 27 -3 31 23 38 15 4 69 8 120 9 50 1 95 5 100 9 17 18 -27 26
-112 20 -76 -5 -92 -3 -104 11 -36 44 60 92 151 76 46 -9 76 -6 91 9 21 21 -7
31 -94 31 -88 0 -89 0 -89 25 0 14 5 25 10 25 6 0 10 14 10 30 0 19 -5 30 -14
30 -22 0 -46 -11 -46 -21 0 -10 -34 -91 -55 -129 -8 -14 -19 -25 -25 -25 -5 0
-29 38 -53 85 -32 64 -47 86 -65 88 -14 2 -22 -2 -22 -11z"/>
<path d="M124 606 c-3 -7 4 -31 15 -52 24 -44 26 -64 9 -65 -109 -9 -115 -10
-103 -30 6 -8 28 -10 75 -5 67 6 67 6 78 -31 16 -53 4 -64 -67 -57 -58 5 -89
-5 -76 -26 4 -7 24 -10 49 -9 22 2 56 0 74 -5 29 -7 32 -11 32 -47 0 -39 0
-39 -85 -39 -67 0 -85 -3 -85 -14 0 -24 20 -30 91 -28 72 2 89 -10 69 -48 -7
-13 -7 -21 0 -25 5 -3 10 -31 10 -61 0 -40 4 -54 14 -54 24 0 31 20 36 105 5
80 5 80 45 83 71 6 86 42 16 42 -42 0 -61 14 -61 46 0 45 10 54 57 54 31 0 43
4 40 13 -2 7 -21 12 -47 12 -50 0 -56 10 -40 60 10 32 15 35 49 35 35 0 61 14
61 32 0 4 -14 8 -30 8 -40 0 -46 19 -20 64 21 39 19 56 -6 56 -18 0 -56 -60
-49 -79 7 -18 -21 -61 -40 -61 -7 0 -17 9 -20 20 -3 11 -11 20 -16 20 -5 0 -9
7 -9 15 0 18 -42 85 -53 85 -4 0 -10 -6 -13 -14z"/>
<path d="M450 606 c0 -7 7 -30 15 -49 20 -47 19 -57 -4 -57 -30 0 -51 -11 -51
-26 0 -10 14 -14 48 -14 48 0 49 0 61 -41 7 -23 9 -45 4 -50 -4 -4 -28 -9 -53
-11 -32 -2 -45 -7 -45 -18 0 -12 11 -14 53 -12 52 4 52 4 52 -42 0 -45 0 -45
-62 -48 -48 -2 -63 -7 -63 -18 0 -11 15 -16 61 -18 62 -3 62 -3 68 -60 4 -31
7 -71 7 -88 -1 -19 5 -34 14 -38 18 -7 29 10 30 49 1 16 2 54 3 83 2 52 2 52
51 52 30 0 53 5 61 15 13 16 -3 22 -70 27 -34 3 -35 4 -35 43 0 37 2 40 25 37
37 -4 70 7 70 23 0 11 -13 15 -50 15 -50 0 -50 0 -50 33 0 48 18 66 70 69 52
3 60 22 12 26 -35 4 -51 24 -34 45 6 6 13 29 17 50 6 30 4 37 -8 37 -9 0 -19
-10 -22 -22 -12 -39 -59 -138 -65 -138 -9 0 -27 39 -60 128 -13 32 -50 46 -50
18z"/>
</g>
</svg>
