<svg version="1.0" xmlns="http://www.w3.org/2000/svg"
 width="67.000000pt" height="126.000000pt" viewBox="0 0 67.000000 126.000000"
 preserveAspectRatio="xMidYMid meet">
<metadata>
Created by potrace 1.15, written by Peter Selinger 2001-2017
</metadata>
<g transform="translate(0.000000,126.000000) scale(0.100000,-0.100000)"
fill="#000000" stroke="none">
<path d="M122 1128 c-5 -7 -8 -22 -6 -34 2 -11 5 -49 7 -82 3 -59 2 -62 -19
-62 -24 0 -38 15 -40 40 -1 8 -2 25 -3 38 -1 18 -4 21 -19 13 -15 -8 -17 -26
-17 -159 0 -83 4 -154 8 -159 19 -18 37 32 37 103 0 52 4 73 14 77 14 6 50
-25 41 -35 -3 -3 -6 -93 -5 -201 0 -206 -4 -223 -47 -215 -18 3 -26 41 -14 63
6 11 3 71 -5 98 -7 22 -31 22 -37 0 -3 -10 -6 -110 -6 -223 -1 -113 -4 -217
-6 -233 -7 -38 11 -72 31 -56 11 9 14 42 14 150 0 126 2 139 19 149 51 27 52
24 44 -176 -6 -179 -5 -186 13 -182 11 2 20 13 22 28 2 14 6 32 9 40 5 14 6
114 4 435 -1 72 2 228 5 348 5 164 3 221 -6 232 -15 18 -24 19 -38 3z"/>
<path d="M413 1077 c-190 -9 -203 -11 -203 -28 0 -31 39 -39 141 -29 52 5 142
10 202 10 92 0 107 2 107 16 0 16 -28 45 -40 42 -3 -1 -96 -6 -207 -11z"/>
<path d="M233 933 c-15 -3 -23 -12 -23 -24 0 -17 8 -19 70 -19 67 0 71 -1 80
-26 14 -35 -2 -54 -44 -54 -17 0 -44 -10 -60 -24 -30 -23 -30 -23 -20 -127 5
-57 11 -212 13 -344 1 -132 7 -244 12 -250 24 -24 32 18 33 177 1 163 1 163
53 168 62 6 83 21 63 45 -11 14 -25 15 -66 10 -52 -6 -52 -6 -56 55 -3 70 5
80 66 80 29 0 36 4 36 20 0 21 -1 22 -70 24 -49 1 -52 6 -37 73 6 30 10 33 57
39 56 7 80 24 81 57 0 12 2 31 4 42 7 31 -3 49 -34 68 -28 16 -101 21 -158 10z"/>
<path d="M515 933 c-60 -4 -78 -14 -68 -41 5 -11 18 -13 63 -8 54 6 57 5 68
-19 17 -37 -7 -59 -67 -61 -67 -1 -71 -3 -71 -19 0 -17 23 -20 109 -15 30 1
61 8 68 15 8 8 13 36 13 69 0 45 -4 58 -22 70 -12 9 -25 15 -28 14 -3 -1 -32
-3 -65 -5z"/>
<path d="M443 653 c-7 -2 -13 -13 -13 -24 0 -17 8 -19 74 -19 44 0 78 -5 82
-11 3 -6 7 -39 7 -74 1 -46 -4 -70 -19 -91 -19 -29 -19 -29 -24 26 -4 47 -9
56 -36 72 -27 16 -38 17 -87 7 -32 -7 -57 -15 -57 -19 0 -15 33 -21 76 -14 51
7 64 -9 64 -80 0 -43 -2 -47 -36 -61 -20 -8 -51 -15 -68 -15 -17 0 -38 -5 -46
-10 -13 -9 -12 -13 7 -29 18 -15 30 -17 65 -10 83 16 85 15 93 -43 4 -29 11
-66 15 -83 5 -16 15 -52 22 -79 14 -52 44 -81 72 -70 9 4 15 9 14 13 -41 84
-54 118 -69 181 -23 93 -24 124 -3 141 33 27 55 100 57 184 3 109 -3 115 -102
114 -42 0 -82 -3 -88 -6z"/>
</g>
</svg>
