<svg version="1.0" xmlns="http://www.w3.org/2000/svg"
 width="79.000000pt" height="125.000000pt" viewBox="0 0 79.000000 125.000000"
 preserveAspectRatio="xMidYMid meet">
<metadata>
Created by potrace 1.15, written by Peter Selinger 2001-2017
</metadata>
<g transform="translate(0.000000,125.000000) scale(0.100000,-0.100000)"
fill="#000000" stroke="none">
<path d="M375 1137 c-3 -6 -6 -43 -7 -81 -3 -79 10 -67 -169 -158 -92 -46
-120 -71 -101 -90 10 -10 72 1 72 13 0 5 9 9 20 9 11 0 20 5 20 10 0 6 9 10
20 10 11 0 34 9 52 20 42 25 88 27 88 3 0 -38 -111 -130 -203 -168 -36 -15
-46 -24 -51 -49 -4 -16 -2 -34 4 -40 7 -7 10 -6 10 2 0 7 8 12 18 12 9 0 41
14 71 30 30 17 57 30 61 30 10 0 21 -86 14 -103 -3 -9 -27 -17 -60 -20 -76 -8
-104 -28 -104 -73 0 -75 32 -103 118 -104 62 0 62 0 62 -138 0 -162 -7 -182
-70 -182 -63 0 -63 -28 0 -49 24 -7 79 -9 165 -5 209 9 280 12 286 13 14 2 19
34 7 48 -7 9 -27 13 -57 12 -41 -3 -46 -1 -56 25 -7 16 -13 61 -14 100 0 39
-4 95 -7 124 -6 52 -6 52 25 52 37 0 90 48 107 97 10 26 9 39 -4 67 -14 30
-21 35 -76 47 -34 7 -64 17 -68 23 -5 6 -7 27 -6 47 2 35 3 36 27 26 14 -6 31
-14 36 -18 23 -16 92 -20 103 -7 21 25 3 55 -41 68 -23 8 -46 17 -51 22 -6 4
-18 8 -28 8 -10 0 -18 4 -18 8 0 4 -21 14 -47 21 -65 19 -73 27 -73 73 0 34 3
39 18 33 92 -37 235 -47 246 -18 10 26 -30 45 -129 63 -27 4 -71 18 -97 29
-38 16 -48 25 -48 44 0 62 -52 152 -65 114z m68 -379 c20 -10 27 -20 27 -43 0
-16 5 -47 11 -69 6 -21 7 -42 2 -46 -4 -4 -32 -10 -61 -13 -62 -7 -69 1 -72
83 -3 76 -2 80 19 80 11 0 23 5 26 10 8 13 15 13 48 -2z m47 -274 c0 -34 0
-34 -60 -34 -60 0 -60 0 -60 30 0 26 4 30 28 30 15 0 33 4 41 9 27 17 51 1 51
-35z m94 29 c23 9 46 -2 46 -23 0 -20 -19 -30 -55 -30 -20 0 -23 5 -22 35 1
19 4 30 8 23 4 -6 14 -8 23 -5z m-274 -39 c0 -36 0 -36 -42 -29 -64 10 -78 15
-78 29 0 24 25 36 72 36 48 0 48 0 48 -36z m190 -126 c1 -24 3 -91 6 -150 6
-108 6 -108 -54 -108 -36 0 -64 5 -70 13 -7 8 -8 41 -4 92 4 44 5 101 2 126
-3 26 -4 52 -2 58 2 6 29 11 63 11 59 0 59 0 59 -42z"/>
</g>
</svg>
