<svg version="1.0" xmlns="http://www.w3.org/2000/svg"
 width="64.000000pt" height="82.000000pt" viewBox="0 0 64.000000 82.000000"
 preserveAspectRatio="xMidYMid meet">
<metadata>
Created by potrace 1.15, written by Peter Selinger 2001-2017
</metadata>
<g transform="translate(0.000000,82.000000) scale(0.100000,-0.100000)"
fill="#000000" stroke="none">
<path d="M317 614 c-4 -4 -7 -15 -7 -25 0 -22 -28 -29 -126 -29 -67 0 -84 -3
-98 -19 -26 -28 -8 -33 112 -29 101 3 107 2 107 -17 0 -18 -9 -21 -104 -27
-108 -8 -128 -15 -118 -42 5 -13 19 -15 83 -9 76 6 76 6 72 -18 -3 -21 -10
-25 -52 -30 -55 -6 -76 -26 -76 -74 0 -42 25 -63 80 -67 37 -2 45 -6 45 -23 0
-16 -9 -21 -55 -28 -61 -8 -76 -18 -66 -43 5 -14 15 -16 62 -10 55 6 55 6 52
-21 -3 -27 -5 -28 -66 -31 -59 -3 -63 -5 -60 -25 3 -22 5 -22 215 -23 159 -1
217 2 230 11 26 19 13 26 -64 33 -65 7 -68 8 -71 35 -4 29 -4 29 60 25 57 -3
63 -1 63 17 0 16 -10 21 -60 30 -50 8 -60 13 -60 30 0 17 8 20 47 23 54 4 88
35 88 83 0 40 -24 59 -75 59 -41 0 -55 10 -55 41 0 5 28 9 63 9 73 0 84 6 60
32 -13 15 -32 18 -105 18 -87 0 -89 1 -86 23 3 21 7 22 95 22 102 0 130 12 92
39 -17 11 -46 16 -101 16 -72 0 -77 1 -80 22 -3 23 -27 35 -41 22z m58 -214
c0 -22 -5 -25 -42 -28 -40 -3 -43 -1 -43 21 0 32 8 38 50 35 30 -3 35 -7 35
-28z m-137 -97 c-3 -25 -7 -28 -38 -28 -31 0 -35 3 -38 28 -3 26 -1 27 38 27
39 0 41 -1 38 -27z m142 15 c0 -26 -18 -40 -51 -41 -30 -2 -34 1 -37 26 -3 26
-2 27 42 27 30 0 46 -4 46 -12z m115 -9 c9 -26 -10 -40 -45 -37 -19 2 -26 10
-28 31 -3 25 -1 27 32 27 27 0 36 -5 41 -21z m-127 -106 c-3 -25 -7 -28 -45
-31 -42 -3 -43 -2 -43 27 0 30 1 31 46 31 44 0 45 -1 42 -27z m0 -100 c3 -33
3 -33 -42 -33 -44 0 -46 1 -46 29 0 31 15 40 60 38 21 -2 26 -8 28 -34z"/>
</g>
</svg>
