<svg version="1.0" xmlns="http://www.w3.org/2000/svg"
 width="87.000000pt" height="177.000000pt" viewBox="0 0 87.000000 177.000000"
 preserveAspectRatio="xMidYMid meet">
<metadata>
Created by potrace 1.15, written by Peter Selinger 2001-2017
</metadata>
<g transform="translate(0.000000,177.000000) scale(0.100000,-0.100000)"
fill="#000000" stroke="none">
<path d="M153 1536 c-60 -13 -69 -19 -50 -35 31 -25 227 -9 227 19 0 30 -77
38 -177 16z"/>
<path d="M372 1483 c-12 -38 -23 -79 -24 -92 -4 -30 -69 -71 -140 -89 -158
-40 -147 -34 -124 -58 17 -17 47 -20 102 -10 41 7 41 7 53 -61 20 -108 16
-121 -49 -144 -67 -23 -101 -47 -119 -83 -43 -90 -5 -169 102 -207 37 -13 37
-13 37 -82 0 -87 21 -152 65 -199 35 -36 35 -37 34 -125 -1 -100 -17 -149 -53
-162 -13 -6 -27 -14 -30 -19 -3 -6 -28 -13 -56 -17 -53 -7 -74 -23 -64 -49 5
-13 22 -16 88 -17 88 -1 110 -2 326 -13 151 -8 267 2 281 26 12 18 2 27 -39
33 -20 4 -44 9 -52 11 -25 6 -99 168 -100 215 0 25 24 69 38 69 7 0 15 8 19
18 3 9 14 26 23 37 25 28 35 171 15 209 -13 24 -13 30 -1 42 8 8 18 14 23 14
17 0 63 48 63 67 0 10 4 23 10 29 6 6 4 28 -5 62 -16 62 -40 102 -60 102 -8 0
-15 5 -15 10 0 6 -8 10 -19 10 -23 0 -71 24 -82 42 -5 7 -9 46 -9 86 0 81 1
82 84 63 41 -10 89 4 83 23 -2 6 -30 16 -63 22 -119 24 -178 47 -219 86 -40
37 -40 37 -41 119 0 58 -5 83 -15 90 -32 20 -44 9 -67 -58z m54 -198 c14 -14
43 -33 64 -41 36 -14 38 -18 44 -72 3 -31 9 -72 12 -89 5 -31 3 -33 -23 -32
-15 0 -50 4 -76 8 -26 4 -49 5 -52 2 -2 -4 -21 -6 -42 -6 -38 0 -38 0 -43 90
-4 50 -10 98 -14 107 -7 15 0 22 35 37 58 26 65 25 95 -4z m122 -314 c18 -10
22 -20 22 -61 0 -27 5 -70 12 -95 7 -24 9 -47 5 -51 -15 -15 -254 -1 -289 17
-13 7 -16 19 -12 66 3 32 11 78 17 102 12 43 12 43 117 39 58 -2 115 -10 128
-17z m-313 -28 c-4 -21 -11 -59 -18 -85 -9 -42 -14 -48 -37 -48 -36 0 -74 65
-57 95 16 29 37 48 66 62 46 20 52 17 46 -24z m435 -3 c0 -5 8 -10 18 -10 25
0 62 -45 62 -74 0 -23 -49 -76 -70 -76 -19 0 -37 48 -47 128 -5 38 -4 42 16
42 11 0 21 -4 21 -10z m-185 -246 c66 -1 125 -3 131 -3 6 -1 17 -35 24 -76 11
-66 11 -78 -4 -109 -20 -42 -33 -50 -108 -65 -90 -19 -138 -1 -199 75 -13 17
-34 81 -56 173 -6 24 -5 24 43 16 27 -4 103 -9 169 -11z m60 -385 c12 -35 30
-83 40 -106 29 -70 25 -73 -130 -73 -74 0 -135 3 -135 6 0 3 11 25 25 50 14
25 25 54 25 66 0 11 5 39 11 62 6 22 12 46 14 51 1 6 31 10 65 10 62 -1 62 -1
85 -66z"/>
<path d="M546 1512 c-24 -40 57 -67 192 -63 41 1 44 32 5 50 -36 17 -188 27
-197 13z"/>
</g>
</svg>
