<svg version="1.0" xmlns="http://www.w3.org/2000/svg"
 width="81.000000pt" height="119.000000pt" viewBox="0 0 81.000000 119.000000"
 preserveAspectRatio="xMidYMid meet">
<metadata>
Created by potrace 1.15, written by Peter Selinger 2001-2017
</metadata>
<g transform="translate(0.000000,119.000000) scale(0.100000,-0.100000)"
fill="#000000" stroke="none">
<path d="M396 1078 c-2 -7 -10 -39 -17 -71 -14 -64 -37 -88 -131 -133 -134
-65 -136 -66 -119 -92 6 -9 15 -10 32 -4 41 16 128 34 137 28 10 -6 22 -167
15 -196 -3 -10 -25 -28 -50 -40 -64 -30 -93 -64 -93 -109 0 -12 -6 -21 -14
-21 -18 0 -27 35 -12 50 8 9 3 18 -19 36 -16 13 -34 22 -40 21 -5 -2 -11 -30
-12 -63 -1 -32 -4 -87 -7 -122 -6 -72 -1 -92 24 -92 14 0 20 11 27 52 7 44 12
53 35 60 23 8 32 5 53 -16 14 -14 38 -28 53 -32 15 -3 33 -7 39 -10 9 -2 13
-33 13 -108 0 -105 0 -105 -37 -104 -20 1 -39 -4 -41 -10 -2 -7 -10 -12 -18
-12 -22 0 -17 -38 7 -50 12 -7 32 -9 47 -4 15 4 108 10 206 13 157 5 180 8
190 24 14 22 -1 33 -60 42 -24 3 -46 10 -49 16 -9 13 -15 150 -8 177 3 15 21
30 49 43 44 21 90 71 95 105 9 50 -70 134 -125 134 -19 0 -20 68 -2 170 11 65
11 65 65 68 30 2 58 -1 63 -6 16 -16 73 2 76 24 3 18 -4 22 -42 27 -53 8 -167
46 -216 74 -19 11 -41 33 -49 49 -8 16 -18 37 -23 46 -4 10 -8 25 -8 33 0 18
-29 20 -34 3z m64 -188 c8 -11 21 -20 30 -20 12 0 14 -10 12 -49 -4 -49 -4
-49 -45 -53 -59 -7 -74 4 -82 58 -5 36 -3 50 11 65 22 25 56 24 74 -1z m17
-198 c8 -5 12 -25 10 -50 -2 -42 -2 -42 -54 -42 -28 0 -55 4 -58 10 -11 17 6
79 24 83 28 8 65 7 78 -1z m119 -179 c7 -10 14 -33 14 -51 0 -34 -2 -36 -80
-61 -46 -14 -207 -23 -244 -13 -20 6 -33 18 -44 45 -14 36 -13 39 7 61 12 12
27 23 34 24 6 1 30 6 52 11 22 5 87 7 144 5 85 -3 106 -7 117 -21z m-108 -224
c3 -31 0 -37 -20 -41 -13 -2 -41 -3 -61 0 -34 4 -37 7 -37 38 0 31 2 33 43 37
69 6 72 5 75 -34z m4 -130 c2 -22 2 -42 -1 -45 -2 -2 -31 -4 -63 -4 -54 0 -58
2 -58 23 0 37 35 67 79 67 38 0 39 -1 43 -41z"/>
</g>
</svg>
