<svg version="1.0" xmlns="http://www.w3.org/2000/svg"
 width="73.000000pt" height="121.000000pt" viewBox="0 0 73.000000 121.000000"
 preserveAspectRatio="xMidYMid meet">
<metadata>
Created by potrace 1.15, written by Peter Selinger 2001-2017
</metadata>
<g transform="translate(0.000000,121.000000) scale(0.100000,-0.100000)"
fill="#000000" stroke="none">
<path d="M320 1097 c-12 -57 -31 -81 -123 -150 -102 -76 -147 -124 -147 -156
0 -43 15 -46 34 -7 17 37 91 106 113 106 7 0 13 4 13 8 0 4 15 13 33 20 17 6
47 26 65 42 29 28 38 31 84 28 58 -3 54 2 108 -121 36 -81 39 -145 10 -205
-11 -22 -20 -45 -20 -50 0 -4 -9 -27 -20 -50 -11 -22 -20 -57 -20 -76 0 -19
-6 -37 -12 -39 -9 -4 -10 -8 -3 -14 6 -4 17 -27 25 -51 10 -33 22 -47 58 -67
53 -30 79 -31 112 -5 14 11 33 20 43 20 10 0 17 8 17 20 0 27 -36 27 -43 0 -7
-29 -51 -46 -82 -32 -27 12 -70 95 -61 118 4 10 22 14 59 14 40 0 61 6 81 21
40 31 23 41 -60 33 -78 -7 -85 -3 -63 37 7 13 16 18 28 14 12 -3 21 0 24 10 4
8 25 18 47 21 44 7 63 29 39 45 -8 5 -30 7 -51 4 -36 -5 -36 -5 -36 78 1 79
-9 116 -53 199 -24 47 4 51 49 8 36 -34 42 -36 42 -16 0 20 -59 81 -97 100
-30 15 -37 28 -45 80 -2 11 -9 21 -15 24 -9 2 -13 -9 -13 -37 0 -41 0 -41 -45
-41 -45 0 -45 0 -45 60 0 33 -4 60 -9 60 -5 0 -15 -24 -21 -53z"/>
<path d="M334 935 c-4 -9 -2 -26 4 -38 64 -137 77 -192 63 -266 -6 -33 -19
-74 -29 -93 -17 -33 -17 -33 -20 75 -2 98 -5 111 -32 158 -38 64 -73 99 -100
99 -28 0 -26 -6 23 -60 65 -72 74 -109 58 -238 -17 -132 -15 -241 4 -308 19
-65 104 -187 156 -221 68 -45 65 -1 -5 67 -23 23 -58 66 -76 97 -28 46 -34 66
-38 133 -5 93 2 130 26 130 10 0 26 19 42 51 22 45 25 63 24 153 -1 93 -4 107
-33 166 -17 36 -31 70 -31 76 0 6 -7 17 -15 24 -12 10 -16 9 -21 -5z"/>
<path d="M135 783 c13 -46 9 -152 -10 -248 -16 -85 -16 -93 0 -148 16 -55 39
-87 78 -108 27 -15 33 16 7 43 -21 22 -55 87 -48 93 2 2 21 -5 42 -15 48 -22
71 -17 54 10 -7 10 -24 25 -38 32 -46 24 -62 49 -55 88 4 19 9 37 11 39 2 3
22 -5 43 -17 74 -42 101 -15 31 32 -22 14 -40 30 -41 34 0 4 -2 23 -3 42 -1
19 -4 40 -7 45 -4 6 -9 22 -12 36 -7 26 -39 69 -52 69 -4 0 -4 -12 0 -27z"/>
</g>
</svg>
