<svg version="1.0" xmlns="http://www.w3.org/2000/svg"
 width="53.000000pt" height="79.000000pt" viewBox="0 0 53.000000 79.000000"
 preserveAspectRatio="xMidYMid meet">
<metadata>
Created by potrace 1.15, written by Peter Selinger 2001-2017
</metadata>
<g transform="translate(0.000000,79.000000) scale(0.100000,-0.100000)"
fill="#000000" stroke="none">
<path d="M130 597 c0 -4 5 -16 12 -27 10 -16 9 -23 -11 -44 -20 -22 -23 -34
-22 -92 1 -37 -4 -73 -10 -80 -8 -10 -8 -18 -1 -26 5 -7 12 -62 15 -123 3 -60
6 -112 6 -114 2 -11 251 17 266 30 5 5 17 9 27 9 10 0 18 5 18 10 0 6 -9 10
-20 10 -12 0 -20 7 -20 18 -1 9 -5 51 -10 92 -7 64 -6 76 8 86 16 12 16 13 0
19 -11 4 -19 24 -23 56 -4 27 -12 52 -18 57 -7 4 -12 18 -12 32 0 20 -4 24
-22 22 -19 -3 -23 2 -23 22 0 15 -6 26 -14 26 -7 0 -19 6 -25 14 -13 16 -121
18 -121 3z m108 -48 c7 -12 11 -24 8 -27 -6 -6 -35 27 -36 41 0 14 15 7 28
-14z m-40 -67 c2 -18 -1 -32 -7 -32 -15 0 -33 39 -27 57 10 24 31 9 34 -25z
m82 -22 c-17 -41 -34 -24 -18 18 8 19 16 28 22 22 5 -5 4 -21 -4 -40z m53 -77
c-5 -12 -53 -19 -53 -7 0 3 10 26 22 52 22 47 22 47 29 7 3 -22 4 -45 2 -52z
m-163 7 c0 -11 -4 -20 -9 -20 -5 0 -11 9 -14 20 -3 13 0 20 9 20 8 0 14 -9 14
-20z m168 -68 c2 -6 -7 -30 -21 -52 -24 -41 -24 -41 -31 6 -6 49 2 64 32 60 9
-2 18 -8 20 -14z m-118 -22 c0 -5 -4 -10 -10 -10 -5 0 -10 5 -10 10 0 6 5 10
10 10 6 0 10 -4 10 -10z m32 -35 c3 -13 1 -22 -3 -19 -9 5 -13 44 -5 44 2 0 6
-11 8 -25z m-82 -33 c0 -7 -4 -10 -10 -7 -5 3 -10 16 -10 28 0 18 2 19 10 7 5
-8 10 -21 10 -28z m189 -54 c1 -25 -2 -28 -34 -28 -19 0 -35 2 -35 5 0 8 24
60 40 85 15 24 15 24 21 -5 4 -17 7 -42 8 -57z m-102 -7 c14 -20 0 -31 -39
-31 -30 0 -34 10 -16 39 13 21 36 17 55 -8z"/>
</g>
</svg>
