<svg version="1.0" xmlns="http://www.w3.org/2000/svg"
 width="63.000000pt" height="81.000000pt" viewBox="0 0 63.000000 81.000000"
 preserveAspectRatio="xMidYMid meet">
<metadata>
Created by potrace 1.15, written by Peter Selinger 2001-2017
</metadata>
<g transform="translate(0.000000,81.000000) scale(0.100000,-0.100000)"
fill="#000000" stroke="none">
<path d="M354 671 c-30 -13 -38 -28 -44 -85 -5 -47 -7 -50 -40 -59 -19 -5 -58
-6 -87 -2 -53 6 -53 6 -53 71 0 49 -3 64 -14 64 -8 0 -17 -8 -20 -17 -3 -10
-8 -147 -12 -304 -7 -295 -4 -318 31 -289 12 10 15 42 15 155 0 143 0 143 50
150 27 4 68 4 90 0 40 -7 41 -8 38 -43 -3 -31 -7 -37 -33 -42 -66 -14 -75 -25
-75 -94 0 -96 19 -107 148 -85 79 14 102 34 102 90 0 31 -6 47 -29 70 -16 16
-39 29 -50 29 -18 0 -21 6 -21 40 0 40 0 40 39 40 21 0 60 3 86 7 47 6 47 6
44 -155 -4 -162 1 -191 30 -172 21 13 17 598 -5 620 -17 17 -156 25 -190 11z
m154 -87 c3 -42 3 -42 -67 -49 -38 -4 -75 -4 -80 0 -15 9 -14 68 1 83 8 8 36
12 78 10 65 -3 65 -3 68 -44z m2 -134 c0 -40 0 -40 -80 -40 -80 0 -80 0 -80
34 0 41 6 44 93 45 67 1 67 1 67 -39z m-200 -10 c0 -40 0 -40 -59 -40 -97 0
-121 8 -121 41 0 31 11 35 118 38 62 1 62 1 62 -39z m64 -236 c21 -20 20 -50
0 -58 -9 -3 -38 -6 -64 -6 -57 0 -80 23 -60 60 8 16 21 20 60 20 31 0 54 -6
64 -16z"/>
</g>
</svg>
