<svg version="1.0" xmlns="http://www.w3.org/2000/svg"
 width="66.000000pt" height="84.000000pt" viewBox="0 0 66.000000 84.000000"
 preserveAspectRatio="xMidYMid meet">
<metadata>
Created by potrace 1.15, written by Peter Selinger 2001-2017
</metadata>
<g transform="translate(0.000000,84.000000) scale(0.100000,-0.100000)"
fill="#000000" stroke="none">
<path d="M140 756 c0 -7 14 -31 31 -52 25 -32 29 -44 24 -73 -9 -45 -47 -99
-96 -133 -38 -27 -52 -58 -26 -58 25 0 107 60 127 92 11 18 27 54 36 81 8 26
19 47 22 47 4 0 36 -5 71 -10 65 -9 101 -30 101 -60 0 -27 49 -93 91 -122 46
-32 52 -34 70 -12 11 13 8 19 -22 42 -57 45 -68 60 -80 106 -6 25 -19 52 -28
60 -10 9 -67 24 -132 35 -97 17 -117 24 -136 45 -24 28 -53 35 -53 12z"/>
<path d="M329 593 c-31 -81 -23 -111 49 -163 72 -52 73 -76 6 -150 -62 -68
-75 -152 -36 -227 18 -35 34 -46 57 -37 21 8 19 20 -10 58 -43 56 -33 103 39
180 57 62 67 102 36 151 -12 19 -41 49 -65 65 -52 35 -54 41 -47 103 5 53 -11
65 -29 20z"/>
<path d="M246 514 c-3 -9 -6 -24 -6 -33 0 -20 -30 -51 -50 -51 -7 0 -19 8 -26
18 -9 13 -16 14 -24 6 -9 -9 -7 -24 8 -60 11 -27 22 -56 25 -64 6 -24 -21 -92
-49 -121 -36 -38 -13 -47 31 -12 19 15 38 36 41 46 7 21 43 22 51 1 3 -9 -6
-45 -21 -80 -29 -71 -34 -114 -12 -114 15 0 26 21 26 49 0 10 11 40 25 67 34
66 32 88 -10 120 -48 36 -46 54 8 54 56 0 87 9 87 26 0 10 -16 14 -60 14 -33
0 -60 2 -60 5 0 2 11 15 25 29 19 19 25 35 25 71 0 32 -4 45 -14 45 -8 0 -17
-7 -20 -16z"/>
</g>
</svg>
