<svg version="1.0" xmlns="http://www.w3.org/2000/svg"
 width="55.000000pt" height="73.000000pt" viewBox="0 0 55.000000 73.000000"
 preserveAspectRatio="xMidYMid meet">
<metadata>
Created by potrace 1.15, written by Peter Selinger 2001-2017
</metadata>
<g transform="translate(0.000000,73.000000) scale(0.100000,-0.100000)"
fill="#000000" stroke="none">
<path d="M282 612 c-7 -22 -12 -53 -12 -71 0 -18 -5 -31 -12 -31 -9 0 -12 15
-10 50 2 28 1 57 -2 65 -8 23 -33 7 -40 -26 -3 -16 -9 -42 -12 -59 -4 -21 -12
-30 -26 -30 -16 0 -19 6 -17 50 2 27 -1 53 -4 57 -14 13 -36 -33 -37 -75 0
-35 -4 -45 -20 -49 -11 -3 -20 -9 -20 -12 0 -9 37 -28 70 -35 64 -14 94 -195
48 -291 -22 -44 -23 -45 -70 -45 -26 0 -48 -4 -48 -8 0 -19 50 -30 143 -31 94
-2 129 10 67 23 -30 6 -30 6 -30 117 0 96 3 117 23 153 12 22 25 43 29 46 4 3
11 18 17 33 7 17 18 27 31 27 26 0 25 -6 -5 -66 -14 -27 -25 -55 -25 -61 0
-26 26 -12 50 27 14 22 30 40 36 40 13 0 10 -59 -7 -143 -12 -62 -12 -107 1
-107 6 0 10 8 10 17 0 9 4 30 9 47 5 17 15 51 21 76 6 25 16 59 21 77 8 27 6
38 -14 70 -14 21 -36 49 -51 62 -31 29 -34 71 -6 89 20 12 28 42 12 42 -5 0
-20 -9 -33 -21 -20 -17 -24 -30 -23 -75 0 -30 -2 -54 -5 -54 -22 1 -29 22 -28
84 2 79 -13 97 -31 38z m-28 -148 c9 -3 16 -16 16 -28 0 -17 -5 -22 -21 -21
-20 1 -49 29 -49 47 0 9 32 11 54 2z"/>
</g>
</svg>
