<svg version="1.0" xmlns="http://www.w3.org/2000/svg"
 width="70.000000pt" height="116.000000pt" viewBox="0 0 70.000000 116.000000"
 preserveAspectRatio="xMidYMid meet">
<metadata>
Created by potrace 1.15, written by Peter Selinger 2001-2017
</metadata>
<g transform="translate(0.000000,116.000000) scale(0.100000,-0.100000)"
fill="#000000" stroke="none">
<path d="M343 1093 c-9 -3 -13 -26 -13 -66 0 -58 -3 -65 -45 -120 -25 -32 -49
-55 -54 -53 -4 3 -11 36 -14 73 -11 111 -69 145 -133 76 -62 -67 -74 -142 -76
-473 0 -92 1 -100 21 -100 28 0 34 30 26 131 -6 77 -5 89 8 89 15 0 37 -54 37
-92 0 -45 33 -66 45 -28 9 29 -14 99 -52 153 -18 26 -34 55 -35 65 -3 35 3 77
11 91 13 21 33 -3 50 -57 10 -36 16 -43 32 -39 18 5 19 -1 19 -106 0 -142 -14
-195 -79 -303 -26 -43 -39 -230 -18 -259 13 -16 17 -17 31 -6 13 11 16 30 15
90 -3 96 8 165 31 194 33 43 50 87 61 161 7 49 16 76 24 76 7 0 26 16 41 37
32 40 81 93 87 93 10 0 47 -39 47 -49 0 -26 53 -91 74 -91 12 0 31 -7 42 -15
10 -8 28 -15 40 -15 11 0 29 -9 40 -21 17 -19 19 -42 23 -269 2 -212 5 -250
18 -254 9 -4 22 -1 31 6 13 11 14 48 9 273 -3 143 -6 260 -7 261 -7 19 -44 44
-64 44 -14 0 -26 5 -26 10 0 6 -9 10 -20 10 -17 0 -20 7 -20 38 0 32 5 41 25
50 14 7 39 12 54 12 45 0 61 35 61 128 0 109 -14 119 -152 114 -40 -2 -48 -5
-48 -21 0 -13 8 -21 23 -23 20 -3 22 -8 23 -73 0 -56 -4 -78 -23 -111 -13 -22
-23 -48 -23 -57 0 -29 -13 -18 -67 53 -48 63 -53 75 -53 120 0 64 20 66 56 8
15 -24 28 -44 29 -46 4 -5 35 10 35 18 0 5 -22 42 -50 83 -44 65 -50 81 -50
126 0 51 -17 75 -47 64z m-185 -115 c15 -15 17 -178 2 -178 -5 0 -10 7 -10 15
0 8 -4 15 -10 15 -5 0 -10 7 -10 15 0 9 -9 25 -20 37 -11 12 -20 32 -20 45 0
22 31 63 48 63 4 0 13 -5 20 -12z m476 -106 c7 -24 6 -36 -3 -41 -6 -4 -10
-18 -9 -31 2 -16 -3 -25 -14 -28 -23 -4 -32 34 -23 94 8 55 34 58 49 6z m-304
-66 c0 -62 -1 -64 -46 -111 -26 -26 -49 -43 -53 -37 -5 8 -6 71 -2 130 1 6 10
12 22 12 13 0 25 11 35 35 24 58 44 46 44 -29z"/>
<path d="M380 585 c-6 -15 -10 -33 -10 -41 0 -9 -11 -14 -30 -14 -23 0 -33 7
-46 31 -13 27 -18 29 -29 18 -10 -10 -15 -47 -16 -128 -1 -108 0 -114 23 -136
32 -29 59 -38 101 -30 49 9 61 36 63 145 4 118 -2 153 -27 168 -17 11 -21 9
-29 -13z m4 -111 c12 -32 5 -99 -13 -123 -38 -49 -81 2 -81 95 0 44 0 44 44
44 31 0 46 -5 50 -16z"/>
</g>
</svg>
