<svg version="1.0" xmlns="http://www.w3.org/2000/svg"
 width="76.000000pt" height="122.000000pt" viewBox="0 0 76.000000 122.000000"
 preserveAspectRatio="xMidYMid meet">
<metadata>
Created by potrace 1.15, written by Peter Selinger 2001-2017
</metadata>
<g transform="translate(0.000000,122.000000) scale(0.100000,-0.100000)"
fill="#000000" stroke="none">
<path d="M156 1068 c-9 -17 -16 -37 -16 -45 0 -7 -3 -13 -8 -13 -4 0 -13 -13
-20 -29 -7 -16 -30 -56 -51 -89 -54 -82 -59 -102 -28 -102 18 0 28 8 37 30 15
36 17 36 39 8 16 -19 21 -20 51 -10 18 7 46 12 62 12 34 0 48 25 26 47 -12 12
-20 13 -36 4 -22 -12 -102 -15 -102 -5 0 11 55 109 65 116 18 13 24 9 46 -33
11 -23 29 -51 40 -62 10 -12 19 -25 19 -30 0 -14 27 -37 44 -37 11 0 16 9 16
30 0 17 -4 30 -9 30 -5 0 -16 17 -24 38 -8 21 -29 53 -46 71 -16 17 -33 41
-36 52 -4 10 -11 19 -16 19 -5 0 -9 7 -9 15 0 26 -28 16 -44 -17z"/>
<path d="M613 1073 c-9 -3 -13 -29 -13 -79 0 -51 -3 -73 -11 -69 -6 4 -9 28
-8 54 3 46 3 46 -39 48 -41 1 -42 1 -42 -32 0 -43 -9 -65 -26 -65 -11 0 -14
17 -14 70 0 63 -2 70 -20 70 -18 0 -20 -7 -20 -80 0 -44 -4 -80 -9 -80 -13 0
-31 57 -31 96 0 27 -4 34 -20 34 -18 0 -20 -7 -20 -54 0 -66 25 -116 58 -116
20 0 22 -5 22 -48 0 -35 -5 -50 -19 -59 -14 -9 -20 -29 -25 -77 -14 -123 35
-171 167 -164 72 3 72 3 74 -85 1 -48 -2 -87 -6 -87 -11 0 -24 67 -16 79 7 12
-12 61 -23 61 -5 0 -12 -26 -15 -57 -7 -62 11 -115 45 -136 10 -7 18 -22 18
-34 0 -13 4 -42 10 -65 5 -24 14 -68 21 -98 6 -31 17 -64 25 -75 14 -18 14
-18 29 1 8 10 12 26 8 34 -3 8 -8 29 -11 45 -2 17 -8 35 -13 40 -4 6 -9 31
-10 55 -1 25 -6 53 -11 63 -7 13 -3 19 16 27 14 5 32 23 41 39 20 40 20 134 0
151 -24 20 -35 1 -40 -64 -4 -55 -10 -75 -19 -65 -2 2 -6 45 -8 95 -5 85 -4
92 18 113 21 20 24 32 24 101 0 68 -3 80 -25 104 -23 24 -30 26 -115 26 -90 0
-90 0 -90 40 0 29 4 40 15 40 9 0 24 13 33 30 17 30 32 39 32 20 0 -5 13 -22
29 -37 16 -16 30 -37 32 -47 6 -29 27 -31 35 -2 3 14 21 34 40 45 33 20 34 22
34 84 0 45 -5 68 -15 77 -18 15 -23 4 -27 -60 -4 -55 -22 -51 -24 5 -3 77 -4
83 -16 87 -7 3 -19 3 -25 1z m10 -339 c9 -3 17 -14 17 -25 0 -11 -7 -19 -17
-20 -10 0 -29 -2 -43 -4 -14 -1 -54 -4 -90 -6 -57 -4 -65 -2 -68 15 -5 26 9
36 64 46 46 8 97 6 137 -6z m17 -103 c0 -30 -21 -39 -100 -47 -66 -6 -78 -4
-100 14 -14 11 -23 23 -20 26 3 2 39 7 79 10 40 3 76 8 79 11 3 3 18 5 34 5
21 0 28 -5 28 -19z"/>
<path d="M230 740 c-8 -5 -25 -10 -37 -10 -29 0 -35 -12 -42 -84 -6 -61 -6
-61 -58 -66 -58 -6 -68 -12 -60 -35 5 -11 21 -15 61 -15 30 0 57 -3 59 -7 3
-5 7 -84 9 -178 3 -170 3 -170 -59 -173 -52 -2 -63 -6 -68 -23 -11 -34 8 -42
82 -35 37 4 98 9 135 12 73 7 99 23 78 49 -8 9 -30 15 -60 15 -47 0 -47 0 -46
48 0 26 -3 102 -8 169 -8 122 -8 122 20 128 65 15 79 22 79 41 0 17 -7 19 -58
19 -58 -1 -58 -1 -55 45 3 44 4 45 40 48 42 4 59 29 32 49 -21 15 -24 16 -44
3z"/>
<path d="M251 507 c-6 -8 -9 -29 -6 -48 2 -19 7 -79 11 -134 7 -109 16 -132
40 -100 10 14 14 33 10 60 -3 22 -6 76 -7 120 -2 103 -18 137 -48 102z"/>
<path d="M349 503 c-1 -4 -3 -39 -5 -77 -3 -76 15 -118 58 -131 18 -6 20 -13
15 -59 -3 -28 -13 -84 -23 -124 -15 -61 -15 -75 -4 -82 35 -22 50 12 71 163 9
65 17 90 28 94 36 13 51 46 51 116 0 51 -3 67 -14 67 -10 0 -16 -18 -21 -60
-4 -32 -13 -64 -21 -71 -12 -10 -14 1 -14 67 0 84 -9 110 -33 101 -12 -4 -14
-20 -10 -80 3 -51 1 -77 -7 -82 -21 -13 -29 8 -32 85 -2 62 -6 75 -20 78 -10
2 -19 0 -19 -5z"/>
<path d="M74 477 c-3 -8 -3 -45 0 -83 3 -38 5 -97 6 -132 0 -48 4 -64 16 -69
23 -9 33 14 28 65 -3 30 0 48 8 54 10 6 10 8 1 8 -9 0 -13 20 -13 66 0 65 -12
104 -31 104 -5 0 -12 -6 -15 -13z"/>
</g>
</svg>
