<svg version="1.0" xmlns="http://www.w3.org/2000/svg"
 width="62.000000pt" height="76.000000pt" viewBox="0 0 62.000000 76.000000"
 preserveAspectRatio="xMidYMid meet">
<metadata>
Created by potrace 1.15, written by Peter Selinger 2001-2017
</metadata>
<g transform="translate(0.000000,76.000000) scale(0.100000,-0.100000)"
fill="#000000" stroke="none">
<path d="M307 684 c-4 -4 -7 -17 -7 -29 0 -20 -7 -23 -58 -28 -72 -6 -119 -29
-134 -65 -8 -23 -29 -329 -32 -479 -1 -50 16 -73 42 -57 15 10 18 39 22 260 3
137 8 254 12 260 4 6 32 19 63 28 76 24 256 20 282 -7 16 -16 19 -45 23 -270
5 -244 6 -252 25 -252 20 0 20 6 18 244 -2 144 -7 258 -13 278 -14 41 -55 61
-135 65 -54 3 -60 5 -65 28 -6 24 -29 37 -43 24z"/>
<path d="M375 561 c-14 -5 -22 -20 -25 -47 -4 -31 -10 -40 -27 -42 -19 -3 -22
2 -25 35 -2 27 -8 39 -20 41 -15 3 -18 -4 -18 -37 0 -34 -3 -41 -20 -41 -14 0
-21 9 -26 35 -4 22 -12 35 -21 35 -13 0 -15 -9 -9 -47 3 -26 12 -50 19 -55 14
-9 182 -11 215 -2 32 9 27 31 -8 39 -16 4 -30 12 -30 20 0 21 26 36 52 30 31
-8 61 21 37 36 -17 10 -66 11 -94 0z"/>
<path d="M203 384 c-27 -13 -33 -22 -33 -48 0 -82 31 -106 135 -106 106 0 155
31 155 97 0 57 -32 73 -142 73 -56 0 -94 -6 -115 -16z m141 -46 c10 -49 7 -68
-10 -75 -22 -8 -34 14 -34 69 0 40 2 46 19 41 11 -3 21 -17 25 -35z m76 13
c13 -25 -3 -71 -25 -71 -10 0 -15 10 -15 29 0 16 -3 36 -6 45 -9 24 33 21 46
-3z m-160 -5 c0 -7 3 -28 6 -46 6 -29 5 -31 -16 -28 -24 3 -45 49 -35 76 6 17
45 15 45 -2z"/>
<path d="M185 190 c-13 -21 8 -30 65 -30 63 0 77 -9 61 -38 -10 -18 -29 -28
-96 -48 -46 -14 -39 -40 10 -36 61 5 107 32 132 77 19 35 27 41 65 45 29 3 43
10 43 20 0 12 -23 15 -137 18 -86 2 -139 -1 -143 -8z"/>
</g>
</svg>
