<svg version="1.0" xmlns="http://www.w3.org/2000/svg"
 width="68.000000pt" height="122.000000pt" viewBox="0 0 68.000000 122.000000"
 preserveAspectRatio="xMidYMid meet">
<metadata>
Created by potrace 1.15, written by Peter Selinger 2001-2017
</metadata>
<g transform="translate(0.000000,122.000000) scale(0.100000,-0.100000)"
fill="#000000" stroke="none">
<path d="M312 1110 c-15 -25 -16 -72 -1 -87 16 -16 -15 -22 -133 -25 -153 -4
-141 29 -143 -415 -1 -202 -5 -409 -9 -459 -7 -68 -6 -93 3 -99 7 -4 15 -4 19
-1 12 13 31 309 21 328 -6 10 -8 22 -5 27 3 5 8 127 11 272 3 146 9 267 15
273 28 28 89 36 267 35 100 -1 186 -5 192 -8 20 -13 28 -99 25 -251 -10 -412
-9 -438 17 -590 13 -73 23 -90 51 -90 22 0 22 -2 -3 95 -21 79 -29 203 -28
400 1 181 10 354 19 380 5 16 -16 58 -40 80 -17 16 -39 21 -104 23 -123 4
-126 5 -126 53 0 40 -14 79 -28 79 -4 0 -13 -9 -20 -20z"/>
<path d="M140 860 c0 -19 6 -20 180 -19 170 1 180 2 180 20 0 15 -7 19 -35 19
-21 0 -35 -5 -35 -12 0 -9 -3 -9 -12 0 -8 8 -55 12 -145 12 -126 0 -133 -1
-133 -20z"/>
<path d="M200 771 c0 -5 -9 -12 -19 -16 -34 -10 -43 -54 -38 -191 2 -71 7
-136 11 -145 12 -29 58 -40 176 -46 120 -5 170 4 170 32 0 13 -22 15 -145 15
-144 0 -145 0 -161 26 -14 20 -17 46 -16 123 3 154 20 173 152 172 40 0 67 4
72 12 6 9 8 9 8 0 0 -7 7 -13 15 -13 24 0 35 -35 35 -118 0 -57 -4 -83 -14
-92 -8 -6 -45 -12 -81 -12 -77 -2 -85 5 -85 74 0 43 2 47 30 53 39 8 50 0 50
-36 0 -22 5 -29 20 -29 17 0 20 7 20 45 0 40 -3 47 -26 55 -39 15 -73 12 -105
-11 -26 -18 -29 -26 -29 -76 0 -100 49 -131 183 -116 42 5 50 10 61 37 8 19
13 72 13 129 1 91 -1 99 -22 113 -26 17 -275 31 -275 15z"/>
<path d="M133 264 c-3 -8 -2 -18 2 -22 10 -10 227 -15 313 -7 61 6 73 10 70
23 -3 15 -25 17 -191 19 -159 2 -189 0 -194 -13z"/>
</g>
</svg>
