<svg version="1.0" xmlns="http://www.w3.org/2000/svg"
 width="63.000000pt" height="121.000000pt" viewBox="0 0 63.000000 121.000000"
 preserveAspectRatio="xMidYMid meet">
<metadata>
Created by potrace 1.15, written by Peter Selinger 2001-2017
</metadata>
<g transform="translate(0.000000,121.000000) scale(0.100000,-0.100000)"
fill="#000000" stroke="none">
<path d="M452 1079 c14 -22 13 -24 -72 -83 -29 -20 -38 -32 -31 -39 8 -8 25
-3 61 15 50 26 50 26 50 -18 0 -24 4 -44 9 -44 11 0 21 25 21 51 0 29 26 34
59 10 37 -27 71 -28 71 -2 0 13 -16 25 -51 40 -29 11 -58 21 -65 21 -8 0 -17
12 -20 28 -7 26 -20 42 -37 42 -4 0 -2 -9 5 -21z"/>
<path d="M140 1045 c0 -20 -7 -26 -40 -35 -39 -11 -100 -54 -100 -71 0 -16 38
-10 72 11 48 29 68 26 68 -10 0 -23 4 -30 20 -30 16 0 20 7 20 33 0 19 3 36 6
40 3 3 24 -6 45 -20 28 -18 43 -23 50 -16 17 17 6 48 -16 49 -11 0 -27 3 -35
7 -8 3 -24 7 -35 9 -15 3 -19 10 -17 31 3 22 -1 27 -17 27 -16 0 -21 -6 -21
-25z"/>
<path d="M285 900 c-3 -5 -5 -80 -4 -165 2 -142 0 -157 -17 -170 -11 -8 -30
-15 -44 -16 -54 -4 -110 -19 -136 -35 -36 -24 -44 -78 -44 -298 0 -113 3 -206
6 -206 3 0 11 6 19 13 10 10 13 62 14 211 1 218 6 235 65 260 41 17 133 29
140 18 12 -20 -12 -68 -43 -86 -33 -19 -42 -16 -54 18 -2 5 -9 6 -15 2 -15 -9
-16 -235 -1 -269 14 -31 77 -49 163 -45 69 3 69 3 93 46 20 36 25 62 30 158 5
99 3 114 -10 114 -9 0 -19 -5 -22 -10 -10 -17 -61 -11 -78 8 -10 10 -17 35
-17 54 0 37 12 48 51 48 11 0 39 9 61 20 23 11 48 20 56 20 8 0 25 12 38 28
20 23 24 38 24 100 0 63 -2 72 -18 72 -15 0 -21 -13 -30 -76 -12 -74 -27 -104
-55 -104 -7 0 -17 -3 -21 -7 -15 -16 -96 -30 -104 -19 -10 16 -11 218 0 239
20 38 -25 112 -47 77z m76 -507 c38 -19 58 -40 59 -63 0 -20 -83 -36 -166 -32
-60 3 -60 3 -56 34 3 19 12 32 23 35 11 3 19 9 19 13 0 9 46 28 71 29 9 1 31
-7 50 -16z m54 -150 c-15 -64 -29 -73 -108 -73 -41 0 -79 6 -88 13 -20 16 -31
46 -24 68 6 17 18 19 117 19 110 0 110 0 103 -27z"/>
<path d="M158 860 c-15 -4 -49 -7 -77 -5 -34 2 -54 -2 -62 -11 -6 -8 -10 -14
-8 -15 2 0 33 -2 69 -3 36 -2 78 -7 93 -11 28 -7 28 -8 25 -78 -3 -81 12 -99
32 -38 8 25 10 58 6 90 -11 86 -16 90 -78 71z"/>
<path d="M440 854 c-35 -15 -60 -49 -52 -72 7 -21 32 -13 42 13 6 15 17 25 30
25 11 0 20 4 20 8 0 5 14 7 30 4 22 -3 30 0 30 11 0 29 -44 34 -100 11z"/>
<path d="M560 845 c-12 -15 -11 -16 16 -13 16 1 28 8 27 13 -3 17 -29 17 -43
0z"/>
<path d="M66 758 c-3 -13 -6 -46 -6 -75 0 -45 3 -53 23 -59 12 -4 23 -6 25 -5
1 1 15 -5 32 -14 33 -17 100 -20 100 -5 0 13 -43 30 -78 30 -48 1 -62 21 -62
89 0 45 -4 61 -14 61 -7 0 -16 -10 -20 -22z"/>
<path d="M394 726 c-8 -31 -2 -71 11 -71 6 0 11 21 13 48 3 49 -13 66 -24 23z"/>
<path d="M380 516 c0 -19 21 -24 90 -25 73 -1 90 -21 90 -102 0 -32 3 -59 8
-59 4 0 6 -46 5 -102 -3 -131 5 -210 20 -205 16 5 13 404 -3 451 -14 43 -45
56 -135 56 -58 0 -75 -3 -75 -14z"/>
</g>
</svg>
