<svg version="1.0" xmlns="http://www.w3.org/2000/svg"
 width="73.000000pt" height="120.000000pt" viewBox="0 0 73.000000 120.000000"
 preserveAspectRatio="xMidYMid meet">
<metadata>
Created by potrace 1.15, written by Peter Selinger 2001-2017
</metadata>
<g transform="translate(0.000000,120.000000) scale(0.100000,-0.100000)"
fill="#000000" stroke="none">
<path d="M509 1105 c-3 -2 -49 -6 -102 -8 -53 -1 -99 -6 -103 -9 -3 -4 -4 -15
0 -24 6 -15 21 -16 150 -10 130 7 144 6 150 -10 18 -47 -6 -60 -159 -85 -83
-13 -114 -32 -116 -71 -1 -10 -2 -24 -3 -30 -1 -9 -17 -12 -56 -9 -30 1 -58 5
-62 8 -5 2 -8 51 -8 109 0 104 0 104 -31 104 -32 0 -32 0 -26 -97 3 -53 2
-104 -3 -114 -6 -10 -28 -19 -54 -23 -87 -13 -88 -62 0 -51 53 6 53 6 59 -37
3 -24 7 -77 8 -117 2 -84 6 -80 -95 -96 -30 -5 -38 -10 -38 -27 0 -20 3 -21
88 -14 152 12 192 18 192 30 0 21 -23 36 -57 36 -33 0 -33 0 -35 58 -5 176 -8
166 51 180 29 7 55 11 57 9 3 -2 4 -171 4 -374 0 -390 2 -403 45 -387 14 6 16
16 10 78 -8 91 -9 159 -5 391 0 39 1 99 1 135 0 143 0 166 4 185 2 11 4 27 4
35 2 26 38 40 145 55 142 20 136 16 136 89 -1 83 -12 96 -87 96 -33 0 -62 -2
-64 -5z"/>
<path d="M510 880 c0 -16 -4 -30 -9 -30 -4 0 -29 -18 -54 -40 -25 -22 -50 -40
-57 -40 -17 0 -7 -44 11 -48 9 -2 35 15 59 38 48 46 60 49 60 16 0 -15 -21
-45 -60 -86 -60 -62 -68 -82 -38 -88 16 -3 68 41 68 58 0 6 7 10 15 10 9 0 15
-9 15 -23 0 -13 3 -26 6 -30 3 -3 7 -44 9 -91 2 -69 0 -86 -12 -90 -29 -11
-43 14 -43 74 0 42 -4 59 -15 64 -25 9 -37 -29 -29 -92 7 -63 26 -92 59 -92
26 0 42 -17 41 -45 -1 -22 -30 -33 -93 -34 -36 -1 -43 -4 -43 -21 0 -21 16
-25 98 -20 42 2 42 2 43 -42 1 -71 9 -171 14 -196 4 -15 12 -22 23 -20 15 3
17 20 20 131 3 144 -3 135 115 146 4 1 7 10 7 21 0 21 -11 24 -97 20 -36 -1
-43 2 -43 17 0 28 20 43 57 43 48 0 65 31 61 116 -3 66 -4 69 -28 69 -24 0
-25 -3 -27 -59 -2 -60 -13 -79 -43 -73 -12 2 -15 18 -16 71 -1 53 -5 72 -18
81 -16 12 -16 14 0 29 10 11 14 25 10 41 -9 34 7 32 65 -10 28 -20 55 -32 64
-29 26 10 17 43 -17 64 -18 10 -37 23 -43 27 -5 5 -25 16 -42 23 -26 12 -33
21 -33 42 0 16 5 28 10 28 11 0 52 -21 60 -31 9 -12 47 -19 64 -13 33 13 14
35 -64 71 -56 26 -80 42 -80 55 0 13 -8 18 -25 18 -21 0 -25 -5 -25 -30z"/>
</g>
</svg>
