<svg version="1.0" xmlns="http://www.w3.org/2000/svg"
 width="41.000000pt" height="69.000000pt" viewBox="0 0 41.000000 69.000000"
 preserveAspectRatio="xMidYMid meet">
<metadata>
Created by potrace 1.15, written by Peter Selinger 2001-2017
</metadata>
<g transform="translate(0.000000,69.000000) scale(0.100000,-0.100000)"
fill="#000000" stroke="none">
<path d="M290 476 c0 -48 14 -106 26 -106 19 0 19 87 0 106 -18 18 -26 18 -26
0z"/>
<path d="M114 453 c22 -95 14 -141 -19 -113 -15 12 -16 11 -9 -16 4 -16 8 -38
8 -49 0 -11 8 -26 18 -33 26 -19 24 -52 -2 -45 -41 11 -18 -39 51 -109 26 -27
53 -48 60 -48 12 0 72 54 111 100 37 45 48 91 13 56 -31 -31 -38 -19 -33 55 5
59 3 69 -9 65 -8 -3 -19 -6 -24 -6 -5 0 -9 -11 -9 -25 0 -33 -17 -32 -32 1
-11 23 -10 29 10 44 21 17 22 21 10 67 -12 44 -28 73 -42 73 -11 0 -6 -56 5
-67 16 -16 7 -59 -12 -55 -13 2 -18 -8 -22 -35 -3 -21 -9 -51 -13 -67 -6 -26
-5 -27 15 -17 26 14 41 7 41 -20 0 -15 -7 -19 -33 -19 -29 0 -34 4 -48 45 -15
40 -15 50 -2 88 15 43 12 102 -8 138 -15 29 -32 23 -25 -8z m176 -253 c0 -5
-7 -10 -15 -10 -8 0 -15 5 -15 10 0 6 7 10 15 10 8 0 15 -4 15 -10z m0 -47
c-1 -21 -53 -63 -78 -63 -5 0 -17 11 -26 25 -16 24 -15 25 16 34 41 11 88 13
88 4z"/>
</g>
</svg>
