<svg version="1.0" xmlns="http://www.w3.org/2000/svg"
 width="53.000000pt" height="107.000000pt" viewBox="0 0 53.000000 107.000000"
 preserveAspectRatio="xMidYMid meet">
<metadata>
Created by potrace 1.15, written by Peter Selinger 2001-2017
</metadata>
<g transform="translate(0.000000,107.000000) scale(0.100000,-0.100000)"
fill="#000000" stroke="none">
<path d="M226 871 c-6 -9 -3 -24 14 -66 34 -88 39 -140 14 -149 -9 -3 -31 -6
-49 -6 -19 0 -46 -5 -62 -11 -28 -10 -28 -10 -3 -29 17 -13 41 -20 73 -20 48
0 48 0 41 -87 -7 -96 -7 -92 -5 -113 1 -12 4 -12 18 2 21 22 43 84 43 124 0
52 27 103 58 110 62 15 64 44 4 44 -38 0 -38 0 -56 68 -24 94 -72 163 -90 133z"/>
<path d="M126 472 c-7 -12 23 -282 36 -314 7 -19 23 -32 52 -42 54 -20 147
-36 208 -36 70 0 74 14 61 192 -11 137 -23 180 -43 148 -5 -8 -10 -40 -10 -71
0 -56 0 -56 -46 -63 -69 -9 -172 -7 -178 3 -4 5 -9 44 -13 86 -5 61 -10 79
-27 90 -23 17 -33 18 -40 7z m302 -284 c-3 -42 -3 -42 -58 -40 -68 3 -159 22
-161 34 -6 31 -2 33 86 39 50 3 100 6 113 7 21 2 23 -1 20 -40z"/>
</g>
</svg>
