<svg version="1.0" xmlns="http://www.w3.org/2000/svg"
 width="49.000000pt" height="81.000000pt" viewBox="0 0 49.000000 81.000000"
 preserveAspectRatio="xMidYMid meet">
<metadata>
Created by potrace 1.15, written by Peter Selinger 2001-2017
</metadata>
<g transform="translate(0.000000,81.000000) scale(0.100000,-0.100000)"
fill="#000000" stroke="none">
<path d="M359 654 c-1 -5 -1 -52 0 -104 1 -82 -1 -100 -21 -134 -13 -22 -27
-40 -32 -40 -5 -1 -9 18 -10 41 0 22 2 39 5 37 10 -6 25 17 33 49 5 19 2 29
-8 33 -7 3 -19 25 -26 50 -7 24 -17 44 -21 44 -5 0 -10 -27 -11 -60 -1 -33 -2
-73 -3 -88 -2 -30 -34 -92 -47 -92 -13 0 -8 53 7 80 18 32 18 40 1 40 -16 0
-26 21 -26 57 0 18 -5 24 -17 21 -15 -3 -18 -14 -17 -68 1 -36 -1 -67 -5 -70
-15 -13 -71 -90 -71 -99 0 -14 31 -1 51 21 23 26 29 23 29 -14 0 -41 -23 -129
-33 -129 -4 1 -14 1 -22 1 -8 0 -15 7 -15 15 0 20 -32 85 -42 85 -4 0 -8 -49
-8 -109 0 -109 0 -109 47 -116 66 -9 126 -8 207 2 104 12 93 29 -15 25 -99 -4
-179 13 -179 36 0 15 1 15 223 -5 66 -5 67 -6 67 -34 0 -33 15 -38 30 -10 18
35 10 151 -11 151 -5 0 -9 -16 -9 -35 0 -34 -1 -35 -40 -35 -44 0 -49 7 -22
36 35 39 62 124 62 198 0 25 6 55 12 66 10 16 9 22 -6 33 -11 8 -20 31 -23 60
-3 26 -12 52 -19 58 -8 6 -15 8 -15 3z m-109 -325 c-21 -102 -23 -114 -12
-104 5 6 17 30 27 55 10 26 35 60 58 80 40 35 40 35 33 -20 -4 -30 -15 -72
-24 -94 -17 -38 -17 -38 -86 -32 -39 4 -71 8 -74 10 -9 10 40 129 60 146 13
10 24 17 26 15 2 -2 -2 -27 -8 -56z"/>
</g>
</svg>
