<svg version="1.0" xmlns="http://www.w3.org/2000/svg"
 width="63.000000pt" height="79.000000pt" viewBox="0 0 63.000000 79.000000"
 preserveAspectRatio="xMidYMid meet">
<metadata>
Created by potrace 1.15, written by Peter Selinger 2001-2017
</metadata>
<g transform="translate(0.000000,79.000000) scale(0.100000,-0.100000)"
fill="#000000" stroke="none">
<path d="M320 695 c-7 -9 -10 -25 -6 -41 16 -60 -7 -74 -90 -53 -43 11 -44 13
-44 50 0 28 -4 39 -15 39 -24 0 -28 -25 -14 -72 19 -59 41 -68 180 -68 109 0
118 2 142 24 29 27 46 91 28 109 -14 14 -31 -6 -31 -38 0 -11 -4 -25 -8 -32
-10 -16 -57 -26 -88 -19 -23 6 -25 10 -19 49 5 32 3 46 -8 55 -11 10 -17 9
-27 -3z"/>
<path d="M156 489 c-23 -18 -26 -27 -26 -84 0 -57 2 -64 28 -81 23 -16 47 -19
157 -19 173 0 185 7 185 105 0 97 -6 100 -181 100 -123 0 -139 -2 -163 -21z
m288 -15 c9 -3 16 -15 16 -25 0 -18 -9 -19 -150 -19 -153 0 -171 5 -138 38 13
13 242 18 272 6z m4 -106 c-3 -22 -8 -23 -110 -26 -120 -3 -171 6 -176 31 -3
15 11 17 143 17 146 0 146 0 143 -22z"/>
<path d="M203 263 c-38 -3 -53 -8 -53 -19 0 -11 24 -14 134 -14 135 0 160 -6
137 -34 -9 -10 -51 -15 -156 -18 -95 -2 -148 -7 -156 -15 -21 -21 13 -25 166
-21 145 3 145 3 145 -44 0 -55 7 -78 25 -78 16 0 23 17 31 80 7 50 7 50 41 44
30 -6 34 -4 31 11 -1 10 -18 23 -36 29 -18 6 -41 25 -51 42 -27 44 -71 50
-258 37z"/>
<path d="M191 91 c-26 -17 1 -31 59 -31 64 0 115 14 105 30 -8 12 -145 13
-164 1z"/>
</g>
</svg>
