<svg version="1.0" xmlns="http://www.w3.org/2000/svg"
 width="63.000000pt" height="81.000000pt" viewBox="0 0 63.000000 81.000000"
 preserveAspectRatio="xMidYMid meet">
<metadata>
Created by potrace 1.15, written by Peter Selinger 2001-2017
</metadata>
<g transform="translate(0.000000,81.000000) scale(0.100000,-0.100000)"
fill="#000000" stroke="none">
<path d="M327 714 c-4 -4 -7 -25 -7 -46 0 -33 -3 -38 -22 -38 -48 0 -69 12
-75 42 -8 41 -28 29 -28 -18 0 -39 0 -39 70 -51 79 -13 182 -4 195 17 11 18
23 81 16 87 -9 9 -36 -18 -36 -36 0 -25 -20 -41 -51 -41 -25 0 -28 4 -31 42
-3 39 -16 57 -31 42z"/>
<path d="M537 624 c-4 -4 -7 -20 -7 -36 0 -28 0 -28 -184 -28 -178 0 -184 1
-189 21 -3 12 -12 19 -19 17 -9 -3 -14 -34 -16 -109 -3 -127 -2 -129 114 -129
82 0 82 0 91 -37 9 -38 9 -38 78 -43 39 -3 76 -9 83 -13 6 -5 12 -25 12 -47 0
-44 -6 -48 -92 -57 -58 -6 -58 -6 -58 25 0 34 -18 52 -31 31 -5 -8 -9 -26 -9
-41 0 -27 0 -27 -102 -30 -70 -2 -103 -7 -106 -15 -3 -10 22 -13 102 -13 106
0 106 0 106 -41 0 -49 23 -50 28 -1 3 30 5 31 60 37 113 12 121 14 137 45 24
47 19 106 -11 136 -23 24 -31 26 -92 22 -63 -3 -67 -2 -70 20 -3 21 0 22 55
22 35 0 72 7 93 18 30 15 37 25 47 72 22 94 9 203 -20 174z m-10 -110 c3 -9 0
-20 -8 -25 -8 -5 -92 -9 -186 -9 -164 0 -173 1 -173 19 0 11 6 22 13 24 6 3
88 6 180 6 145 1 168 -1 174 -15z m-7 -76 c-1 -39 -16 -43 -152 -43 -162 0
-208 8 -208 35 0 19 8 20 180 20 137 0 180 -3 180 -12z"/>
</g>
</svg>
