<svg version="1.0" xmlns="http://www.w3.org/2000/svg"
 width="72.000000pt" height="89.000000pt" viewBox="0 0 72.000000 89.000000"
 preserveAspectRatio="xMidYMid meet">
<metadata>
Created by potrace 1.15, written by Peter Selinger 2001-2017
</metadata>
<g transform="translate(0.000000,89.000000) scale(0.100000,-0.100000)"
fill="#000000" stroke="none">
<path d="M450 757 c0 -7 -18 -31 -40 -52 -22 -21 -40 -45 -40 -52 0 -15 12
-17 25 -4 6 5 20 12 33 16 19 5 22 3 22 -19 0 -33 17 -33 32 -1 13 28 26 32
34 10 4 -8 12 -15 20 -15 23 0 16 37 -14 67 -16 15 -31 36 -35 46 -7 20 -37
23 -37 4z"/>
<path d="M160 695 c-30 -30 -58 -55 -62 -55 -5 0 -8 -7 -8 -15 0 -22 19 -18
57 11 35 27 53 25 53 -6 0 -28 11 -51 21 -44 5 3 9 18 9 35 0 32 19 39 40 14
15 -18 30 -11 30 15 0 15 -70 101 -82 100 -2 0 -28 -25 -58 -55z"/>
<path d="M347 559 c-31 -25 -37 -37 -37 -68 0 -20 7 -47 16 -59 21 -30 13 -48
-31 -66 -19 -8 -35 -20 -35 -25 0 -18 33 -12 75 14 22 13 43 25 48 25 16 0 5
-25 -28 -61 -19 -22 -35 -44 -35 -49 0 -25 39 -6 76 37 27 31 45 44 53 38 17
-10 7 -71 -15 -96 -13 -14 -15 -22 -7 -30 8 -8 20 2 42 37 17 27 32 53 34 58
1 5 13 5 26 1 19 -6 22 -12 18 -38 -3 -18 -8 -42 -12 -55 -12 -37 21 -27 50
15 14 21 25 43 25 49 0 25 -42 64 -68 64 -27 0 -86 18 -110 33 -9 6 0 15 30
30 58 30 85 69 72 104 -13 37 -68 73 -113 73 -26 0 -47 -9 -74 -31z m131 -21
c24 -24 14 -65 -22 -87 -40 -25 -64 -26 -94 -5 -29 20 -28 49 3 79 27 27 91
35 113 13z"/>
<path d="M407 513 c-16 -15 -6 -34 15 -31 29 4 38 38 10 38 -10 0 -22 -3 -25
-7z"/>
<path d="M157 544 c-3 -3 -3 -21 0 -40 4 -21 2 -34 -5 -34 -17 0 -82 -60 -82
-76 0 -21 17 -17 54 11 33 25 33 25 52 -10 19 -36 19 -36 -39 -86 -32 -29 -57
-59 -57 -70 0 -28 11 -24 43 16 15 19 34 35 42 35 24 0 28 -44 7 -91 -35 -80
-46 -128 -36 -157 12 -34 28 -35 32 -2 6 62 26 138 45 173 21 37 21 37 0 65
-18 24 -19 30 -7 47 20 27 17 50 -11 83 -22 26 -23 31 -10 42 21 17 19 63 -3
83 -10 10 -21 14 -25 11z"/>
<path d="M254 199 c4 -13 11 -43 15 -67 5 -26 19 -54 34 -69 26 -26 26 -26 84
-11 63 18 126 14 144 -8 17 -20 39 -17 39 6 0 25 -33 42 -87 44 -24 0 -43 5
-43 9 0 11 65 37 94 37 25 0 43 16 32 27 -3 3 -35 1 -71 -5 -59 -10 -68 -9
-104 11 -33 18 -41 19 -55 8 -23 -19 -20 -30 12 -37 52 -13 60 -57 10 -52 -29
3 -35 8 -47 48 -19 64 -26 75 -46 79 -15 2 -17 -1 -11 -20z"/>
</g>
</svg>
