<svg version="1.0" xmlns="http://www.w3.org/2000/svg"
 width="63.000000pt" height="85.000000pt" viewBox="0 0 63.000000 85.000000"
 preserveAspectRatio="xMidYMid meet">
<metadata>
Created by potrace 1.15, written by Peter Selinger 2001-2017
</metadata>
<g transform="translate(0.000000,85.000000) scale(0.100000,-0.100000)"
fill="#000000" stroke="none">
<path d="M264 645 c-3 -8 -3 -18 0 -23 7 -13 -96 -25 -134 -17 -16 4 -39 1
-51 -6 -22 -11 -22 -12 -3 -26 15 -11 39 -12 111 -7 98 7 105 4 83 -37 -9 -16
-22 -19 -98 -19 -48 0 -93 -4 -101 -9 -26 -17 1 -31 60 -31 57 0 59 -1 59 -26
0 -25 -2 -26 -43 -20 -30 5 -48 2 -62 -8 -19 -14 -19 -15 8 -25 16 -6 42 -11
58 -11 26 0 30 -3 27 -22 -3 -20 -10 -24 -57 -28 -51 -5 -78 -22 -49 -32 7 -2
112 -2 232 1 157 4 221 9 223 18 3 8 -14 13 -54 15 -47 2 -58 6 -61 22 -5 25
14 36 66 36 42 0 56 13 26 24 -9 3 -34 6 -56 6 -35 0 -39 2 -36 23 2 18 11 23
47 27 25 3 46 10 48 16 5 15 -44 24 -128 24 -67 0 -69 1 -69 25 0 25 0 25 101
25 90 0 100 2 97 17 -4 20 -52 31 -134 32 -44 1 -52 4 -62 26 -13 27 -39 33
-48 10z m97 -175 c23 -13 25 -46 3 -54 -9 -3 -45 -6 -81 -6 -55 0 -64 2 -59
16 3 9 6 22 6 29 0 23 95 34 131 15z m13 -99 c4 -5 3 -17 0 -26 -5 -13 -19
-15 -78 -13 -65 3 -71 5 -74 26 -3 21 0 22 72 22 41 0 77 -4 80 -9z"/>
<path d="M126 238 c-21 -33 -26 -206 -6 -218 9 -5 19 -5 28 2 11 9 12 32 7
104 -7 92 -7 92 60 99 72 8 185 2 205 -10 23 -14 -21 -35 -74 -35 -28 0 -58
-5 -66 -10 -18 -11 -20 -84 -3 -101 7 -7 54 -16 105 -19 73 -6 99 -4 122 8 28
14 29 15 11 28 -13 10 -49 14 -112 14 -93 0 -93 0 -93 25 0 24 2 25 73 25 59
0 77 4 90 18 22 25 21 48 -3 72 -18 18 -33 20 -175 20 -149 0 -155 -1 -169
-22z"/>
</g>
</svg>
