<svg version="1.0" xmlns="http://www.w3.org/2000/svg"
 width="69.000000pt" height="87.000000pt" viewBox="0 0 69.000000 87.000000"
 preserveAspectRatio="xMidYMid meet">
<metadata>
Created by potrace 1.15, written by Peter Selinger 2001-2017
</metadata>
<g transform="translate(0.000000,87.000000) scale(0.100000,-0.100000)"
fill="#000000" stroke="none">
<path d="M299 753 c-18 -48 -80 -114 -151 -159 -37 -24 -68 -46 -68 -49 0 -13
31 -2 84 30 93 56 125 46 70 -21 -19 -23 -46 -73 -60 -110 -13 -37 -29 -73
-35 -81 -7 -7 -9 -16 -5 -20 10 -11 45 28 67 76 11 25 28 62 37 82 19 41 67
79 100 79 32 0 99 -65 112 -108 15 -47 42 -102 52 -102 17 0 16 21 -3 75 -33
94 -57 135 -87 146 -59 21 -58 20 -34 32 16 7 37 7 73 -1 28 -7 60 -12 72 -12
36 0 0 24 -64 43 -69 21 -107 49 -125 94 -17 40 -22 41 -35 6z m56 -93 c7 -11
-26 -30 -54 -30 -30 0 -34 17 -11 40 16 16 25 18 40 10 10 -5 22 -14 25 -20z"/>
<path d="M277 488 c-62 -66 -62 -94 1 -90 46 3 49 -2 27 -44 -25 -48 -14 -84
25 -84 19 0 60 40 60 58 0 17 -15 15 -30 -3 -14 -17 -40 -20 -40 -5 0 6 10 24
22 41 31 42 16 65 -41 61 -23 -1 -41 2 -41 7 0 6 18 25 40 42 22 18 40 41 40
51 0 27 -11 22 -63 -34z"/>
<path d="M370 493 c0 -5 7 -17 15 -27 8 -11 12 -29 9 -43 -7 -25 5 -30 24 -11
19 19 15 66 -7 78 -23 12 -41 13 -41 3z"/>
<path d="M446 373 c-3 -3 -6 -20 -6 -37 0 -23 -11 -40 -46 -72 -37 -34 -45
-48 -42 -71 3 -26 6 -28 41 -26 37 2 37 2 22 -28 -23 -43 -16 -73 17 -77 29
-3 88 22 88 38 0 13 -26 13 -49 1 -9 -5 -23 -6 -30 -1 -11 6 -9 14 8 39 33 47
25 67 -27 63 -31 -2 -42 1 -42 12 0 8 9 17 20 21 33 10 70 63 70 100 0 33 -11
51 -24 38z"/>
<path d="M190 306 c0 -14 -9 -34 -20 -43 -11 -10 -29 -26 -40 -35 -38 -34 -13
-98 38 -98 20 0 21 -4 16 -44 -7 -49 3 -61 41 -52 25 6 63 52 52 62 -3 3 -17
-2 -31 -12 -34 -21 -38 -17 -25 29 12 46 6 57 -32 57 -43 0 -48 26 -10 58 33
29 48 91 24 99 -8 3 -13 -5 -13 -21z"/>
<path d="M507 264 c-3 -4 0 -16 8 -28 10 -14 11 -26 5 -36 -13 -21 -12 -30 3
-30 18 0 47 32 47 52 0 27 -46 58 -63 42z"/>
<path d="M255 250 c-3 -5 1 -20 9 -32 11 -16 12 -26 5 -40 -13 -25 -3 -36 19
-22 24 15 27 62 6 85 -19 21 -30 24 -39 9z"/>
</g>
</svg>
