<svg version="1.0" xmlns="http://www.w3.org/2000/svg"
 width="65.000000pt" height="85.000000pt" viewBox="0 0 65.000000 85.000000"
 preserveAspectRatio="xMidYMid meet">
<metadata>
Created by potrace 1.15, written by Peter Selinger 2001-2017
</metadata>
<g transform="translate(0.000000,85.000000) scale(0.100000,-0.100000)"
fill="#000000" stroke="none">
<path d="M92 617 c-6 -7 -14 -31 -18 -54 -8 -50 9 -63 80 -63 52 0 66 16 66
74 0 25 -6 38 -19 46 -28 14 -96 13 -109 -3z m91 -51 c8 -19 -1 -26 -34 -26
-29 0 -44 13 -34 30 9 15 62 12 68 -4z"/>
<path d="M266 614 c-16 -16 -21 -61 -10 -101 5 -19 13 -23 45 -23 50 0 79 27
79 74 0 25 -7 39 -22 50 -29 20 -72 20 -92 0z m72 -56 c-2 -17 -10 -23 -28
-23 -18 0 -26 6 -28 23 -3 19 1 22 28 22 27 0 31 -3 28 -22z"/>
<path d="M430 603 c-34 -14 -50 -65 -34 -108 10 -25 52 -37 110 -29 47 5 54
10 69 40 12 26 13 38 5 55 -20 36 -103 60 -150 42z m88 -67 c5 -21 -13 -36
-45 -36 -27 0 -36 14 -28 41 9 27 68 24 73 -5z"/>
<path d="M125 456 c-48 -14 -65 -42 -65 -112 0 -70 22 -96 86 -103 40 -5 50
-10 52 -27 3 -19 -3 -21 -72 -27 -88 -6 -102 -12 -85 -34 10 -12 27 -13 80 -8
68 7 68 7 71 -56 3 -65 15 -81 41 -54 12 12 15 27 10 64 -6 49 -6 49 43 56 27
3 57 8 67 10 9 2 24 -3 31 -11 8 -8 30 -14 49 -14 66 0 97 -11 102 -36 3 -13
7 -35 10 -49 4 -18 12 -25 30 -25 13 0 27 5 31 11 8 13 -14 118 -29 137 -6 7
-36 12 -82 12 -57 0 -74 3 -79 16 -9 24 -8 28 15 53 19 20 27 21 75 15 37 -4
59 -2 69 6 18 15 20 101 3 118 -13 13 -89 16 -150 6 -28 -5 -38 -11 -38 -25 0
-11 7 -19 15 -19 28 0 29 -30 3 -58 -14 -15 -29 -44 -32 -64 -7 -37 -8 -38
-49 -38 -23 0 -52 -3 -64 -6 -20 -5 -23 -2 -23 19 0 22 6 27 38 32 20 4 43 8
50 11 19 5 32 49 32 105 0 42 -5 55 -29 80 -27 27 -35 29 -98 28 -37 0 -86 -6
-108 -13z m65 -61 c0 -34 -1 -35 -40 -35 -35 0 -40 3 -40 23 0 24 28 45 63 46
13 1 17 -7 17 -34z m108 19 c36 -25 28 -44 -18 -44 -42 0 -58 15 -46 45 7 19
36 19 64 -1z m240 -71 c-2 -11 -14 -19 -31 -21 -22 -3 -27 1 -27 17 0 17 6 21
31 21 24 0 30 -4 27 -17z m-348 -39 c0 -22 -3 -25 -22 -20 -13 3 -31 6 -40 6
-21 0 -24 26 -5 33 6 3 24 6 40 6 23 1 27 -3 27 -25z m120 12 c0 -15 -21 -26
-51 -26 -12 0 -19 7 -19 20 0 16 7 20 35 20 23 0 35 -5 35 -14z"/>
</g>
</svg>
