<svg version="1.0" xmlns="http://www.w3.org/2000/svg"
 width="53.000000pt" height="99.000000pt" viewBox="0 0 53.000000 99.000000"
 preserveAspectRatio="xMidYMid meet">
<metadata>
Created by potrace 1.15, written by Peter Selinger 2001-2017
</metadata>
<g transform="translate(0.000000,99.000000) scale(0.100000,-0.100000)"
fill="#000000" stroke="none">
<path d="M190 767 c0 -13 9 -41 19 -63 34 -69 35 -89 10 -113 -13 -11 -28 -21
-35 -21 -15 0 -27 -31 -17 -41 4 -4 27 0 50 11 23 10 44 16 47 12 9 -9 7 -82
-2 -82 -11 0 -52 -82 -52 -103 0 -9 -4 -19 -10 -22 -13 -8 -13 -60 -1 -83 5
-9 13 -26 17 -37 4 -11 15 -40 24 -65 10 -27 24 -46 34 -48 16 -4 18 2 13 45
-3 26 -14 71 -25 98 -10 28 -17 57 -15 65 12 41 56 126 70 137 14 11 15 20 5
64 -16 68 -15 96 4 103 9 3 17 6 19 6 8 0 17 -42 22 -105 8 -103 17 -148 31
-153 18 -6 17 327 -1 352 -13 18 -15 18 -28 2 -60 -72 -89 -87 -89 -45 0 11
-7 22 -15 25 -8 4 -15 11 -15 18 0 12 -44 66 -54 66 -3 0 -6 -10 -6 -23z"/>
</g>
</svg>
