<svg version="1.0" xmlns="http://www.w3.org/2000/svg"
 width="39.000000pt" height="101.000000pt" viewBox="0 0 39.000000 101.000000"
 preserveAspectRatio="xMidYMid meet">
<metadata>
Created by potrace 1.15, written by Peter Selinger 2001-2017
</metadata>
<g transform="translate(0.000000,101.000000) scale(0.100000,-0.100000)"
fill="#000000" stroke="none">
<path d="M223 853 c-7 -2 -13 -12 -13 -21 0 -9 -9 -28 -20 -42 -11 -14 -20
-31 -20 -38 0 -8 -8 -26 -18 -40 -10 -15 -27 -47 -36 -72 -10 -25 -22 -50 -27
-56 -6 -7 -1 -20 12 -35 11 -13 27 -40 36 -59 15 -35 14 -51 -8 -165 -5 -27
-14 -72 -18 -100 -5 -27 -12 -65 -16 -82 -12 -50 12 -41 36 13 10 26 24 67 29
93 6 25 18 76 26 113 9 37 14 73 12 80 -5 14 68 128 83 128 5 0 9 -11 9 -25 0
-15 -6 -25 -14 -25 -23 0 -29 -20 -13 -38 12 -14 13 -31 6 -92 -12 -104 4
-230 29 -230 5 0 12 57 16 127 3 71 10 157 15 193 5 46 4 78 -5 110 -7 25 -16
61 -19 81 -3 21 -17 53 -30 73 -16 24 -25 51 -25 76 0 40 -3 43 -27 33z m27
-159 c0 -41 -8 -71 -31 -120 -17 -35 -34 -64 -38 -64 -3 0 -12 17 -18 38 -12
35 -10 42 29 120 23 45 45 82 50 82 4 0 8 -25 8 -56z"/>
</g>
</svg>
