<svg version="1.0" xmlns="http://www.w3.org/2000/svg"
 width="43.000000pt" height="103.000000pt" viewBox="0 0 43.000000 103.000000"
 preserveAspectRatio="xMidYMid meet">
<metadata>
Created by potrace 1.15, written by Peter Selinger 2001-2017
</metadata>
<g transform="translate(0.000000,103.000000) scale(0.100000,-0.100000)"
fill="#000000" stroke="none">
<path d="M77 793 c-3 -3 -2 -13 3 -22 5 -9 23 -54 41 -99 32 -84 32 -84 14
-150 -30 -117 -30 -138 0 -173 14 -18 38 -54 52 -82 38 -76 97 -161 101 -147
3 7 -1 23 -7 36 -14 31 -28 64 -35 87 -4 12 4 32 22 55 42 54 86 150 85 186
-1 17 -2 56 -3 87 -1 39 5 69 18 97 11 23 17 43 14 46 -12 13 -41 5 -66 -19
-15 -14 -35 -25 -44 -25 -9 0 -32 -9 -51 -21 -18 -11 -34 -19 -35 -17 -1 2
-19 38 -41 80 -36 72 -55 95 -68 81z m220 -195 c0 -29 4 -68 8 -86 8 -37 2
-56 -65 -201 -8 -18 -30 -27 -30 -12 0 5 -14 34 -31 62 -29 49 -30 55 -20 98
31 127 33 132 81 154 25 12 47 25 48 29 7 16 9 7 9 -44z"/>
</g>
</svg>
