<svg version="1.0" xmlns="http://www.w3.org/2000/svg"
 width="69.000000pt" height="141.000000pt" viewBox="0 0 69.000000 141.000000"
 preserveAspectRatio="xMidYMid meet">
<metadata>
Created by potrace 1.15, written by Peter Selinger 2001-2017
</metadata>
<g transform="translate(0.000000,141.000000) scale(0.100000,-0.100000)"
fill="#000000" stroke="none">
<path d="M231 1178 c-12 -29 -26 -60 -31 -69 -5 -9 -14 -44 -21 -78 -15 -70
-7 -104 42 -176 16 -24 29 -48 29 -54 0 -6 5 -11 10 -11 6 0 10 -8 10 -18 0
-10 3 -22 8 -26 4 -4 12 -35 18 -69 15 -82 -5 -163 -97 -395 -5 -13 -9 -34 -9
-47 0 -14 -4 -25 -8 -25 -5 0 -15 -19 -22 -42 -8 -24 -22 -55 -32 -70 -19 -28
-24 -68 -8 -68 29 0 161 264 145 290 -3 4 1 13 8 19 12 9 26 38 75 150 39 90
21 234 -43 342 -33 57 -33 57 29 115 71 67 162 144 170 144 3 0 4 -42 4 -92
-1 -68 4 -104 17 -132 20 -47 24 -202 7 -311 -6 -38 -15 -99 -21 -135 -5 -36
-12 -84 -16 -107 -8 -47 4 -58 23 -20 21 43 50 142 56 192 3 28 13 86 21 130
19 104 19 172 -1 226 -49 135 -56 221 -24 284 11 22 20 41 20 42 0 11 -51 0
-77 -17 -44 -27 -180 -135 -222 -176 -19 -19 -40 -33 -45 -31 -25 8 -18 106
13 194 17 47 31 87 31 89 0 2 -8 4 -18 4 -13 0 -26 -17 -41 -52z"/>
</g>
</svg>
