<svg version="1.0" xmlns="http://www.w3.org/2000/svg"
 width="41.000000pt" height="77.000000pt" viewBox="0 0 41.000000 77.000000"
 preserveAspectRatio="xMidYMid meet">
<metadata>
Created by potrace 1.15, written by Peter Selinger 2001-2017
</metadata>
<g transform="translate(0.000000,77.000000) scale(0.100000,-0.100000)"
fill="#000000" stroke="none">
<path d="M210 547 c0 -26 21 -77 33 -77 10 0 9 -38 -2 -45 -5 -3 -33 18 -61
45 -29 28 -57 49 -64 47 -14 -5 -11 -113 5 -212 36 -223 49 -232 49 -33 0 141
0 141 21 122 17 -15 19 -25 14 -66 -5 -38 -3 -54 13 -80 11 -18 29 -63 42
-100 21 -67 34 -86 44 -70 5 9 -9 85 -23 117 -13 32 -31 90 -31 103 0 6 11 36
25 66 14 30 25 61 25 68 -1 33 -64 138 -84 138 -3 0 -6 -10 -6 -23z"/>
</g>
</svg>
