<svg version="1.0" xmlns="http://www.w3.org/2000/svg"
 width="71.000000pt" height="80.000000pt" viewBox="0 0 71.000000 80.000000"
 preserveAspectRatio="xMidYMid meet">
<metadata>
Created by potrace 1.15, written by Peter Selinger 2001-2017
</metadata>
<g transform="translate(0.000000,80.000000) scale(0.100000,-0.100000)"
fill="#000000" stroke="none">
<path d="M317 593 c-4 -3 -7 -34 -7 -68 0 -35 -3 -77 -6 -94 -6 -29 -9 -31
-49 -31 -43 0 -43 0 -50 41 -8 43 -65 119 -91 119 -19 0 -18 -25 3 -41 19 -16
52 -86 53 -111 0 -14 -11 -18 -57 -20 -44 -2 -58 -7 -58 -18 0 -12 12 -14 62
-12 63 4 63 4 63 -48 0 -43 -5 -58 -35 -97 -31 -41 -35 -52 -35 -108 0 -98 -9
-95 242 -87 221 8 259 15 230 44 -9 9 -44 12 -117 9 -105 -3 -105 -3 -105 43
0 46 0 46 98 46 63 0 102 4 110 12 7 7 12 31 12 55 0 37 -5 46 -40 74 -56 45
-53 67 7 71 36 2 49 7 51 21 3 14 -4 17 -49 17 -52 0 -52 0 -46 39 3 22 17 55
31 74 37 48 33 76 -6 45 -20 -17 -78 -121 -78 -141 0 -15 -28 -27 -67 -27 -29
0 -38 33 -29 106 8 67 -12 113 -37 87z m-2 -315 c4 -51 5 -120 3 -153 -3 -60
-3 -60 -85 -63 -83 -3 -83 -3 -83 47 0 43 4 53 25 67 28 18 45 68 45 135 0 25
3 49 7 52 3 4 23 7 44 7 37 0 37 0 44 -92z m146 57 c5 -16 27 -47 51 -67 57
-50 45 -61 -69 -62 -88 -1 -88 -1 -89 82 -1 83 -1 83 49 80 47 -3 51 -5 58
-33z"/>
</g>
</svg>
