<svg version="1.0" xmlns="http://www.w3.org/2000/svg"
 width="71.000000pt" height="115.000000pt" viewBox="0 0 71.000000 115.000000"
 preserveAspectRatio="xMidYMid meet">
<metadata>
Created by potrace 1.15, written by Peter Selinger 2001-2017
</metadata>
<g transform="translate(0.000000,115.000000) scale(0.100000,-0.100000)"
fill="#000000" stroke="none">
<path d="M25 990 c-10 -16 4 -30 30 -30 22 0 23 -3 19 -52 -2 -29 -6 -87 -8
-128 -3 -41 -6 -84 -9 -95 -2 -11 0 -25 5 -32 5 -7 6 -18 2 -25 -5 -7 -10 -44
-11 -83 -6 -154 -8 -296 -5 -300 3 -2 5 -28 4 -57 0 -29 5 -59 11 -66 8 -10 7
-16 -1 -21 -13 -8 -12 -88 1 -83 4 1 11 2 17 2 5 0 8 112 7 293 -3 297 7 499
29 605 5 25 30 28 57 8 15 -12 16 -18 7 -35 -15 -28 -20 -85 -25 -281 -3 -99
-1 -177 5 -194 6 -19 7 -32 1 -35 -6 -4 -6 -47 0 -116 5 -61 11 -127 12 -147
0 -21 5 -38 10 -38 5 0 4 -6 -2 -13 -12 -15 -5 -27 17 -27 12 0 13 19 8 117
-15 301 -7 673 15 714 16 30 -33 128 -50 101 -5 -8 -12 -5 -24 8 -19 22 -63
27 -70 8 -4 -10 -6 -10 -6 0 -1 14 -37 16 -46 2z"/>
<path d="M470 990 c0 -5 -9 -10 -20 -10 -11 0 -20 -4 -20 -10 0 -5 -4 -10 -9
-10 -6 0 -37 -16 -70 -35 -48 -29 -61 -41 -61 -60 0 -14 -4 -25 -10 -25 -17 0
-11 -41 12 -92 14 -32 28 -48 40 -48 23 0 23 20 -3 91 -18 48 -19 62 -9 74 16
19 50 20 50 0 0 -8 11 -34 24 -57 28 -50 56 -62 56 -24 0 14 -4 27 -9 30 -5 3
-19 27 -31 52 -17 38 -19 49 -8 55 23 15 36 7 56 -31 22 -41 51 -72 62 -65 12
7 14 35 2 35 -7 0 -25 37 -36 76 -5 17 -1 23 19 28 36 9 33 36 -5 36 -16 0
-30 -4 -30 -10z"/>
<path d="M580 973 c-5 -81 -13 -131 -26 -151 -21 -32 -10 -40 24 -15 25 18 27
26 30 97 2 63 0 76 -13 76 -8 0 -15 -3 -15 -7z"/>
<path d="M490 764 c-31 -17 -55 -34 -83 -57 -12 -11 -39 -33 -60 -50 -61 -51
-77 -87 -77 -174 0 -70 2 -77 27 -97 15 -11 44 -29 65 -38 43 -19 41 -9 40
-193 -1 -113 4 -143 21 -126 7 7 12 69 14 158 2 81 6 150 11 155 4 4 16 5 27
2 18 -5 20 -15 22 -102 2 -148 12 -222 29 -222 21 0 27 42 19 125 -12 130 -12
185 -1 194 6 5 26 6 45 4 24 -4 40 -16 60 -44 14 -21 29 -38 34 -39 13 0 7 67
-7 80 -17 13 -136 40 -178 40 -34 0 -34 12 1 70 18 30 37 47 57 53 43 13 62
65 40 111 -24 52 -54 67 -105 53 -35 -9 -44 -9 -52 3 -7 11 -1 21 23 40 65 51
83 69 68 69 -8 -1 -26 -7 -40 -15z m-80 -123 c0 -5 -7 -14 -16 -22 -30 -25
-45 -66 -33 -93 22 -48 98 -35 86 15 -9 35 6 83 26 87 15 3 17 -6 17 -66 0
-108 -40 -181 -98 -182 -28 0 -66 24 -86 55 -14 22 -14 30 -2 80 14 53 55 119
79 129 19 7 27 7 27 -3z m156 -47 c5 -34 3 -48 -7 -54 -22 -14 -29 -1 -29 51
0 36 4 49 14 49 10 0 17 -16 22 -46z m-138 -26 c-2 -25 -8 -33 -23 -33 -34 0
-16 64 18 65 5 0 7 -15 5 -32z"/>
<path d="M550 731 c0 -5 7 -14 15 -21 23 -19 63 -110 75 -172 11 -58 23 -72
34 -42 10 26 7 57 -9 88 -8 15 -15 37 -15 48 0 41 -51 108 -82 108 -10 0 -18
-4 -18 -9z"/>
<path d="M317 284 c-12 -12 -8 -62 6 -67 9 -4 9 -7 0 -14 -12 -8 -39 -140 -31
-149 3 -2 12 -2 20 1 19 7 34 96 29 170 -3 50 -12 71 -24 59z"/>
<path d="M593 173 c3 -60 9 -118 13 -130 7 -25 20 -30 27 -10 8 23 -5 222 -15
235 -25 29 -30 9 -25 -95z"/>
</g>
</svg>
