<svg version="1.0" xmlns="http://www.w3.org/2000/svg"
 width="66.000000pt" height="82.000000pt" viewBox="0 0 66.000000 82.000000"
 preserveAspectRatio="xMidYMid meet">
<metadata>
Created by potrace 1.15, written by Peter Selinger 2001-2017
</metadata>
<g transform="translate(0.000000,82.000000) scale(0.100000,-0.100000)"
fill="#000000" stroke="none">
<path d="M144 648 c-8 -28 -22 -38 -51 -38 -31 0 -53 -27 -53 -65 0 -42 29
-65 82 -65 20 0 40 -5 43 -10 10 -17 -15 -40 -42 -40 -13 0 -37 -10 -53 -22
-53 -39 -32 -104 41 -130 38 -13 38 -38 0 -38 -44 0 -68 -37 -77 -116 -6 -58
-4 -68 14 -86 29 -30 42 -14 42 50 1 56 16 92 39 92 7 0 11 -25 11 -74 0 -76
6 -91 34 -80 13 5 16 22 16 85 0 77 1 79 24 79 31 0 40 -26 32 -84 -5 -33 -3
-46 9 -56 25 -20 37 0 42 72 7 88 -4 108 -63 108 -41 0 -45 2 -42 22 2 16 12
24 34 29 44 8 52 15 59 50 11 47 -11 87 -48 91 -27 2 -33 8 -35 31 -3 24 0 27
25 27 43 0 64 20 70 68 7 49 -12 71 -60 72 -20 0 -30 7 -37 25 -12 32 -46 33
-56 3z m91 -103 c0 -28 -2 -30 -44 -33 -57 -4 -87 4 -95 24 -12 32 13 45 78
42 60 -3 61 -3 61 -33z m-11 -168 c10 -7 16 -22 14 -33 -3 -16 -12 -19 -68
-19 -60 0 -65 2 -68 23 -2 16 3 25 20 31 34 14 82 13 102 -2z"/>
<path d="M540 640 c-10 -19 -19 -21 -98 -19 -48 1 -97 -3 -110 -7 -21 -9 -21
-11 -7 -31 14 -20 22 -22 61 -16 46 6 46 6 42 -23 -2 -23 -9 -30 -32 -34 -16
-3 -32 -12 -36 -20 -18 -35 -29 -67 -34 -97 -4 -26 -1 -33 14 -38 32 -10 40 3
40 60 0 39 4 54 16 59 29 11 34 6 34 -33 0 -42 10 -55 53 -65 33 -8 34 -16 2
-46 -24 -23 -24 -23 -55 4 -18 14 -36 24 -41 20 -15 -9 -10 -41 9 -50 13 -6 9
-9 -18 -13 -54 -9 -47 -36 10 -36 40 0 45 -3 48 -23 3 -20 0 -23 -18 -17 -28
9 -72 -3 -67 -18 2 -7 23 -14 48 -17 36 -4 44 -9 44 -25 0 -11 -7 -21 -15 -22
-69 -9 -90 -15 -90 -28 0 -14 34 -29 56 -24 36 7 54 -2 54 -27 0 -34 32 -29
40 6 5 20 12 24 35 22 45 -5 77 6 73 26 -2 12 -16 18 -53 22 -42 4 -50 8 -50
25 0 16 8 21 35 23 19 1 41 5 49 8 25 8 -9 34 -46 34 -27 0 -34 4 -31 18 2 12
16 18 48 22 59 7 63 33 6 40 -35 4 -38 6 -22 19 9 8 14 21 11 30 -3 12 4 20
26 28 48 18 31 38 -34 41 -53 3 -57 5 -57 27 0 22 4 25 40 25 56 0 72 27 68
116 -2 55 -6 69 -20 72 -9 2 -22 -6 -28 -18z m-5 -80 c13 -20 -6 -50 -31 -50
-26 0 -40 20 -30 45 6 17 51 20 61 5z"/>
</g>
</svg>
