<svg version="1.0" xmlns="http://www.w3.org/2000/svg"
 width="117.000000pt" height="157.000000pt" viewBox="0 0 117.000000 157.000000"
 preserveAspectRatio="xMidYMid meet">
<metadata>
Created by potrace 1.15, written by Peter Selinger 2001-2017
</metadata>
<g transform="translate(0.000000,157.000000) scale(0.100000,-0.100000)"
fill="#000000" stroke="none">
<path d="M422 1438 c-6 -18 -16 -54 -23 -80 -7 -27 -17 -48 -21 -48 -4 0 -8
-9 -8 -20 0 -11 -4 -20 -8 -20 -5 0 -17 -19 -28 -42 -10 -23 -28 -51 -39 -63
-11 -11 -36 -41 -55 -67 -19 -26 -39 -48 -45 -48 -5 0 -23 -11 -40 -24 -28
-23 -28 -25 -11 -32 11 -4 45 -2 76 4 31 7 61 12 67 12 15 0 21 -52 27 -242 6
-180 8 -178 -82 -178 -27 0 -66 -7 -86 -15 -31 -13 -36 -20 -36 -48 0 -18 5
-48 10 -67 6 -19 10 -86 11 -147 0 -124 -8 -144 -78 -207 -38 -33 -42 -51 -12
-59 32 -8 64 8 90 45 13 18 33 40 44 50 19 15 20 27 18 172 -1 86 -4 165 -8
175 -8 25 74 51 181 58 93 6 89 11 104 -98 6 -38 11 -74 12 -81 4 -17 -36 -22
-62 -8 -11 6 -28 28 -36 50 -18 44 -41 57 -63 36 -12 -13 -13 -20 -2 -43 8
-15 18 -38 24 -50 6 -13 23 -28 39 -35 15 -7 28 -16 28 -20 0 -5 22 -8 48 -8
45 0 49 -2 60 -33 11 -32 96 -107 121 -107 6 0 19 -4 29 -9 54 -28 127 -51
159 -51 20 0 24 4 21 23 -3 23 -53 52 -145 85 -67 24 -113 53 -113 72 0 16 11
26 68 60 60 36 92 121 57 150 -20 16 -41 0 -48 -38 -9 -44 -40 -72 -80 -72
-42 0 -43 4 -39 106 4 74 4 74 120 75 153 2 243 0 253 -7 5 -3 9 -35 9 -72 0
-151 76 -305 169 -343 13 -5 26 -8 28 -5 7 6 -23 58 -49 86 -13 14 -33 45 -45
70 -26 53 -48 198 -41 264 7 58 -4 68 -79 71 -101 4 -183 17 -184 29 0 6 -3
20 -5 31 -2 11 -6 95 -8 187 -3 126 -1 170 9 178 7 6 40 11 74 12 33 1 61 4
61 7 -1 15 -59 69 -100 93 -25 14 -56 36 -69 47 -13 12 -27 21 -32 21 -10 0
-119 109 -119 120 0 5 -6 15 -13 22 -6 7 -23 34 -36 61 -29 57 -55 62 -69 15z
m104 -183 c21 -20 57 -48 79 -63 22 -15 42 -30 45 -33 3 -3 13 -8 23 -12 9 -3
17 -13 17 -20 0 -14 -44 -23 -170 -33 -30 -3 -83 -10 -118 -16 -38 -6 -67 -7
-73 -1 -7 7 68 136 90 153 3 3 12 17 20 33 19 36 39 34 87 -8z m126 -257 c6
-59 1 -66 -55 -71 -29 -3 -86 -10 -127 -16 -41 -6 -81 -9 -87 -6 -8 3 -13 23
-13 54 0 47 2 51 28 57 15 3 31 7 37 8 5 2 55 4 111 5 102 2 102 2 106 -31z
m3 -164 c3 -26 3 -50 -2 -54 -7 -7 -85 -15 -228 -23 -36 -2 -40 0 -49 31 -8
27 -6 35 10 47 19 14 114 33 194 38 25 2 50 4 56 5 7 1 15 -19 19 -44z m10
-147 c-5 -50 -12 -57 -66 -62 -24 -2 -75 -8 -114 -13 -101 -12 -115 -8 -115
38 0 34 4 39 31 49 18 6 47 11 65 11 18 0 35 3 37 8 3 4 41 8 85 8 80 1 80 1
77 -39z"/>
</g>
</svg>
