<svg version="1.0" xmlns="http://www.w3.org/2000/svg"
 width="57.000000pt" height="79.000000pt" viewBox="0 0 57.000000 79.000000"
 preserveAspectRatio="xMidYMid meet">
<metadata>
Created by potrace 1.15, written by Peter Selinger 2001-2017
</metadata>
<g transform="translate(0.000000,79.000000) scale(0.100000,-0.100000)"
fill="#000000" stroke="none">
<path d="M281 554 c-5 -22 -11 -52 -13 -68 -3 -28 -4 -28 -37 24 -33 51 -35
52 -44 29 -5 -13 -11 -49 -13 -79 -2 -30 -11 -72 -19 -93 -18 -46 -19 -68 -2
-62 7 3 23 32 36 66 23 60 23 60 52 22 45 -60 40 -103 -22 -199 -28 -43 -53
-84 -56 -91 -9 -24 18 -14 47 17 15 17 30 30 33 30 2 0 7 -25 10 -56 3 -31 9
-59 12 -62 10 -11 22 18 29 70 7 50 7 50 47 9 22 -23 45 -41 50 -41 21 0 -26
93 -66 134 -14 14 -16 28 -10 89 4 39 15 86 24 102 16 31 51 68 58 62 2 -2 7
-36 12 -76 10 -78 14 -87 31 -76 7 4 9 46 6 128 -4 109 -7 122 -23 122 -9 0
-22 -9 -28 -20 -18 -37 -57 -86 -63 -81 -3 4 -9 31 -13 62 -10 74 -24 88 -38
38z"/>
</g>
</svg>
