<svg version="1.0" xmlns="http://www.w3.org/2000/svg"
 width="75.000000pt" height="91.000000pt" viewBox="0 0 75.000000 91.000000"
 preserveAspectRatio="xMidYMid meet">
<metadata>
Created by potrace 1.15, written by Peter Selinger 2001-2017
</metadata>
<g transform="translate(0.000000,91.000000) scale(0.100000,-0.100000)"
fill="#000000" stroke="none">
<path d="M317 764 c-4 -4 -7 -50 -7 -103 0 -95 0 -95 -40 -56 -22 21 -40 44
-40 51 0 23 -27 36 -50 24 -17 -9 -21 -18 -16 -40 3 -16 -2 -59 -10 -97 -8
-37 -19 -97 -25 -133 -5 -36 -12 -73 -15 -82 -7 -25 9 -22 32 5 21 24 34 55
54 127 7 25 14 51 16 59 3 9 22 -4 54 -40 49 -53 50 -55 45 -103 -4 -27 -15
-62 -26 -77 -10 -15 -19 -32 -19 -38 0 -6 -4 -11 -8 -11 -10 0 -65 -100 -58
-107 3 -3 28 18 57 46 28 28 55 51 59 51 8 0 15 -40 26 -153 3 -37 10 -69 13
-72 4 -2 14 45 21 105 7 61 15 110 16 110 1 0 31 -30 65 -66 35 -36 65 -61 67
-55 7 20 -105 210 -130 219 -11 5 -10 39 1 47 6 3 5 18 -3 38 -17 41 -12 53
42 105 46 43 46 43 58 20 6 -13 22 -56 35 -95 13 -40 28 -73 32 -73 12 0 6
126 -9 190 -7 30 -16 72 -19 93 -4 24 -11 37 -21 37 -20 0 -44 -24 -44 -44 0
-9 -4 -16 -10 -16 -5 0 -10 -6 -10 -12 0 -7 -11 -26 -25 -42 -14 -16 -25 -34
-25 -39 0 -20 -14 4 -15 26 -2 42 -17 122 -30 162 -13 39 -25 52 -38 39z"/>
</g>
</svg>
