<svg version="1.0" xmlns="http://www.w3.org/2000/svg"
 width="51.000000pt" height="85.000000pt" viewBox="0 0 51.000000 85.000000"
 preserveAspectRatio="xMidYMid meet">
<metadata>
Created by potrace 1.15, written by Peter Selinger 2001-2017
</metadata>
<g transform="translate(0.000000,85.000000) scale(0.100000,-0.100000)"
fill="#000000" stroke="none">
<path d="M267 693 c-3 -5 -8 -42 -11 -83 -4 -41 -10 -88 -13 -104 -5 -28 -6
-26 -39 35 -19 35 -34 69 -34 77 0 7 -5 22 -11 33 -14 27 -39 7 -39 -32 0 -15
-11 -59 -25 -97 -14 -38 -25 -79 -25 -91 0 -40 29 -21 55 35 15 33 30 53 35
48 19 -20 70 -130 70 -152 0 -30 -22 -71 -54 -101 -14 -14 -26 -29 -26 -34 0
-5 -8 -17 -18 -26 -36 -31 -56 -71 -43 -84 9 -9 23 0 59 38 47 50 47 50 50
-15 3 -81 10 -113 22 -105 6 3 10 23 11 43 0 20 6 53 13 72 13 35 13 35 34 -6
11 -22 28 -46 36 -53 14 -12 16 -10 16 7 0 24 -38 132 -51 146 -5 6 -9 41 -9
78 0 60 3 72 24 91 13 12 40 37 60 55 33 31 35 32 45 13 6 -11 11 -25 11 -31
0 -13 24 -40 36 -40 9 0 -2 125 -16 173 -12 42 -27 47 -39 14 -5 -12 -30 -45
-56 -72 -47 -50 -47 -50 -40 35 4 47 3 98 0 113 -7 26 -19 35 -28 20z"/>
</g>
</svg>
