<svg version="1.0" xmlns="http://www.w3.org/2000/svg"
 width="53.000000pt" height="121.000000pt" viewBox="0 0 53.000000 121.000000"
 preserveAspectRatio="xMidYMid meet">
<metadata>
Created by potrace 1.15, written by Peter Selinger 2001-2017
</metadata>
<g transform="translate(0.000000,121.000000) scale(0.100000,-0.100000)"
fill="#000000" stroke="none">
<path d="M265 1117 c-119 -14 -142 -23 -132 -51 5 -13 22 -16 81 -16 58 0 75
-3 80 -16 13 -34 6 -42 -48 -48 -59 -8 -80 -23 -66 -46 6 -10 26 -14 64 -13
48 1 56 -1 56 -17 0 -13 -11 -19 -45 -24 -24 -4 -54 -15 -66 -25 -22 -18 -22
-18 8 -33 19 -9 36 -12 44 -7 8 5 57 9 109 9 52 0 102 4 110 10 24 15 -16 50
-57 50 -28 0 -33 3 -33 24 0 18 7 25 30 30 21 4 30 11 30 26 0 16 -7 20 -35
20 -38 0 -43 11 -23 55 10 22 18 25 58 25 59 0 86 23 55 47 -22 15 -95 15
-220 0z"/>
<path d="M390 738 c-152 -23 -194 -28 -235 -28 -25 0 -45 5 -45 10 0 15 -36
12 -50 -5 -15 -18 -7 -43 17 -52 58 -20 61 -39 36 -217 -16 -115 -16 -119 2
-132 25 -19 35 -17 35 4 0 32 108 52 118 22 6 -18 56 -10 86 14 23 19 37 23
65 19 20 -3 40 -10 45 -14 6 -5 16 -9 24 -9 13 0 14 17 7 108 -4 59 -9 143
-11 187 -3 97 -12 106 -94 93z m29 -85 c6 -20 9 -38 7 -40 -2 -2 -19 -6 -39
-10 -33 -5 -35 -3 -42 27 -9 40 1 50 57 59 4 0 12 -16 17 -36z m-141 -36 c-2
-18 -10 -23 -45 -25 -31 -2 -43 1 -43 10 0 23 29 56 53 60 26 4 40 -14 35 -45z
m154 -110 c10 -51 -4 -77 -42 -77 -36 0 -44 13 -41 64 3 52 7 58 44 54 27 -3
32 -8 39 -41z m-142 -25 c0 -55 -25 -81 -60 -62 -10 5 -28 10 -39 10 -17 0
-21 6 -21 34 0 41 29 65 83 65 37 1 37 1 37 -47z"/>
<path d="M180 261 c-5 -11 -10 -55 -10 -98 0 -83 11 -106 70 -146 56 -39 154
-12 185 51 28 58 46 164 31 180 -18 19 -64 -1 -68 -29 -7 -50 -138 -54 -138
-4 0 22 -33 65 -50 65 -5 0 -14 -9 -20 -19z m208 -138 c5 -35 -26 -73 -59 -73
-42 0 -77 20 -87 50 -13 36 4 45 81 45 56 0 62 -2 65 -22z"/>
</g>
</svg>
