<svg version="1.0" xmlns="http://www.w3.org/2000/svg"
 width="72.000000pt" height="129.000000pt" viewBox="0 0 72.000000 129.000000"
 preserveAspectRatio="xMidYMid meet">
<metadata>
Created by potrace 1.15, written by Peter Selinger 2001-2017
</metadata>
<g transform="translate(0.000000,129.000000) scale(0.100000,-0.100000)"
fill="#000000" stroke="none">
<path d="M179 1258 c-1 -7 0 -52 1 -100 1 -80 0 -88 -17 -88 -31 0 -43 21 -43
76 0 36 -5 58 -17 69 -16 16 -18 16 -30 -1 -14 -18 -13 -31 3 -114 7 -35 32
-65 64 -75 19 -6 40 -46 40 -76 0 -14 5 -19 18 -17 12 2 18 15 20 44 3 36 7
42 30 47 49 10 75 42 83 102 5 41 3 63 -8 86 -22 43 -38 31 -41 -32 -4 -85 -9
-99 -37 -99 -24 0 -24 2 -27 92 -3 79 -6 93 -20 96 -10 2 -18 -2 -19 -10z"/>
<path d="M493 1263 c-15 -5 -18 -105 -4 -131 7 -12 4 -24 -8 -40 -15 -20 -19
-21 -36 -9 -14 11 -19 27 -19 70 -1 56 -15 85 -35 73 -24 -15 -1 -150 28 -173
50 -39 59 -51 64 -86 5 -33 3 -39 -22 -51 -15 -8 -45 -17 -67 -20 -97 -13
-142 -29 -248 -90 -23 -13 -65 -57 -66 -69 -1 -22 34 -16 65 12 38 33 74 51
170 83 58 19 202 58 218 58 4 0 7 -16 7 -35 0 -28 -5 -37 -22 -44 -51 -19 -96
-31 -116 -31 -12 0 -22 -3 -22 -8 0 -4 -31 -23 -70 -41 -38 -19 -70 -38 -70
-43 0 -4 -5 -8 -11 -8 -9 0 -80 -52 -115 -85 -18 -17 -32 -49 -27 -62 5 -15
30 -17 35 -3 6 19 96 106 124 120 16 8 31 17 34 20 13 13 102 51 165 70 160
49 150 44 153 79 2 21 -3 40 -14 52 -16 18 -16 20 -1 37 21 23 22 66 1 86 -23
24 -32 20 -40 -19 -3 -19 -11 -35 -16 -35 -6 0 -7 7 -4 16 3 9 6 27 6 40 0 15
6 24 15 24 8 0 15 5 15 10 0 6 11 10 24 10 39 0 56 35 56 111 0 53 -3 68 -17
73 -26 10 -35 -7 -39 -75 -3 -63 -13 -79 -47 -79 -16 0 -17 8 -11 88 5 68 4
90 -7 98 -8 6 -20 9 -26 7z"/>
<path d="M545 740 c-3 -5 -3 -20 1 -34 6 -25 -16 -46 -50 -46 -21 0 -156 -62
-156 -72 0 -4 -8 -8 -17 -8 -19 0 -143 -122 -143 -141 0 -7 -3 -9 -6 -6 -14
14 -114 -120 -114 -152 0 -26 28 -28 37 -3 13 35 69 109 127 165 44 44 61 56
67 45 19 -29 8 -72 -31 -120 -8 -10 -16 -26 -17 -36 -1 -9 -6 -38 -11 -63 -5
-26 -8 -59 -6 -75 14 -139 16 -153 31 -159 30 -11 36 10 24 98 -6 47 -8 110
-5 141 4 34 3 56 -3 56 -5 0 8 19 30 42 39 41 39 42 33 103 -6 61 -6 61 35 83
22 12 47 22 54 22 7 0 20 -26 29 -59 16 -56 18 -59 64 -74 42 -13 47 -18 45
-43 -1 -15 -16 -44 -33 -65 -37 -46 -54 -120 -37 -158 7 -14 27 -41 45 -59 37
-37 152 -96 165 -83 14 14 -2 36 -41 54 -54 26 -101 60 -102 75 0 6 -4 12 -10
12 -5 0 -10 22 -10 49 0 47 23 92 56 114 19 11 44 66 33 73 -5 3 -9 13 -9 22
0 15 -84 62 -110 62 -5 0 -12 20 -16 46 -5 37 -3 47 12 59 11 8 27 15 37 15
31 0 77 39 77 64 0 34 -61 79 -75 56z"/>
</g>
</svg>
