<svg version="1.0" xmlns="http://www.w3.org/2000/svg"
 width="58.000000pt" height="88.000000pt" viewBox="0 0 58.000000 88.000000"
 preserveAspectRatio="xMidYMid meet">
<metadata>
Created by potrace 1.15, written by Peter Selinger 2001-2017
</metadata>
<g transform="translate(0.000000,88.000000) scale(0.100000,-0.100000)"
fill="#000000" stroke="none">
<path d="M280 755 c-9 -24 -12 -25 -105 -25 -74 0 -95 -3 -95 -14 0 -21 23
-26 116 -26 67 0 84 -3 84 -15 0 -11 -20 -15 -97 -17 -78 -2 -98 -6 -98 -18 0
-12 19 -15 100 -15 100 0 100 0 103 -88 2 -77 5 -88 20 -85 14 3 18 18 22 88
5 85 5 85 95 82 93 -3 135 8 105 28 -8 5 -57 10 -107 10 -76 0 -93 3 -93 15 0
12 18 15 98 15 98 0 130 8 118 29 -5 7 -44 11 -105 11 -94 0 -99 1 -115 25 -9
14 -21 25 -26 25 -6 0 -15 -11 -20 -25z"/>
<path d="M155 598 c-48 -17 -64 -37 -63 -77 1 -41 -27 -354 -38 -418 -5 -35
-3 -44 10 -49 10 -4 22 -2 28 4 6 6 15 88 20 184 12 229 10 222 55 215 42 -7
95 2 87 14 -3 5 -22 9 -42 9 -61 0 -70 16 -18 29 61 15 59 31 -4 31 -27 0 -50
4 -50 9 0 11 54 31 82 31 28 0 16 25 -13 27 -13 1 -37 -3 -54 -9z"/>
<path d="M398 593 c-32 -8 -19 -22 27 -29 62 -9 65 -21 8 -29 -27 -4 -54 -8
-61 -11 -25 -8 -1 -24 36 -24 34 0 35 -1 16 -15 -10 -8 -27 -15 -36 -15 -10 0
-18 -4 -18 -10 0 -16 72 -11 92 7 22 19 19 44 27 -217 5 -164 8 -195 21 -195
13 0 15 35 15 254 0 253 0 253 -24 272 -22 18 -63 23 -103 12z"/>
<path d="M250 418 c0 -12 -10 -32 -22 -45 -31 -33 -1 -30 33 3 17 16 34 24 43
21 22 -9 20 -34 -3 -47 -11 -5 -21 -20 -23 -32 -2 -17 -11 -24 -33 -26 -36 -4
-55 18 -55 65 0 24 -5 33 -16 33 -14 0 -16 -8 -11 -52 8 -61 25 -82 70 -83 27
0 32 -4 32 -25 0 -19 -6 -25 -33 -31 -48 -10 -56 -22 -57 -87 0 -44 3 -57 15
-57 11 0 15 12 15 46 0 50 17 79 45 79 23 0 30 -20 30 -87 0 -48 2 -54 15 -43
10 8 15 31 15 71 0 56 1 59 24 59 31 0 39 -13 46 -74 7 -65 27 -71 36 -11 8
59 -14 93 -72 110 -50 14 -55 46 -9 55 66 14 95 46 95 106 0 35 -22 25 -32
-14 -9 -35 -42 -62 -75 -62 -35 0 -30 36 7 55 55 28 30 69 -52 89 -24 5 -28 3
-28 -16z"/>
</g>
</svg>
