<svg version="1.0" xmlns="http://www.w3.org/2000/svg"
 width="107.000000pt" height="171.000000pt" viewBox="0 0 107.000000 171.000000"
 preserveAspectRatio="xMidYMid meet">
<metadata>
Created by potrace 1.15, written by Peter Selinger 2001-2017
</metadata>
<g transform="translate(0.000000,171.000000) scale(0.100000,-0.100000)"
fill="#000000" stroke="none">
<path d="M240 1639 c0 -3 5 -32 11 -65 6 -32 12 -86 13 -120 1 -54 4 -64 37
-98 34 -36 37 -44 42 -120 6 -77 24 -146 38 -146 4 0 9 15 12 33 3 17 13 53
22 78 15 43 20 47 56 53 44 7 48 15 19 41 -28 26 -25 45 15 84 42 41 44 51 8
51 -27 0 -94 -20 -103 -31 -3 -3 -17 -9 -32 -12 -35 -9 -58 14 -58 59 0 19
-11 57 -25 84 -14 27 -25 55 -25 63 0 13 -29 58 -30 46z"/>
<path d="M955 1438 c-16 -5 -44 -16 -60 -23 -21 -9 -50 -12 -88 -8 -31 3 -57
3 -57 -1 0 -4 13 -18 29 -32 22 -19 30 -35 35 -77 9 -67 2 -83 -35 -91 -38 -7
-37 -25 1 -32 24 -5 32 -14 42 -45 6 -22 14 -39 19 -39 12 0 42 142 43 208 1
72 17 93 85 112 20 5 45 16 56 24 19 15 19 15 -10 15 -16 0 -43 -5 -60 -11z"/>
<path d="M610 1225 c0 -14 -9 -43 -20 -65 -11 -22 -20 -48 -20 -59 0 -11 -4
-23 -10 -26 -17 -11 -11 -108 8 -133 19 -25 17 -67 -15 -217 -17 -83 -17 -83
-11 -160 3 -32 11 -61 17 -63 6 -2 11 -10 11 -18 0 -24 14 -15 49 31 28 37 32
50 27 77 -4 18 -11 89 -17 157 -10 121 -10 127 15 203 27 79 35 191 16 203 -5
3 -10 21 -10 39 0 30 -15 56 -32 56 -4 0 -8 -11 -8 -25z m11 -68 c-10 -9 -11
-8 -5 6 3 10 9 15 12 12 3 -3 0 -11 -7 -18z"/>
<path d="M110 1022 c0 -5 21 -20 48 -33 104 -53 181 -166 140 -207 -18 -18
-31 -15 -100 18 -68 33 -83 32 -50 -3 30 -32 98 -67 131 -67 15 0 32 -5 39
-12 15 -15 16 -148 2 -148 -5 0 -10 -15 -10 -32 0 -61 -25 -107 -93 -173 -37
-36 -67 -69 -67 -74 0 -5 -9 -13 -20 -16 -11 -3 -20 -10 -20 -16 0 -5 16 0 35
11 20 11 43 20 51 20 9 0 29 10 46 21 17 12 33 18 38 13 9 -9 1 -83 -16 -163
-6 -27 -4 -33 7 -29 8 2 15 15 17 29 3 32 21 98 34 129 28 67 38 72 59 33 19
-37 38 -57 47 -48 4 3 -8 33 -26 66 -30 54 -33 66 -33 151 -1 155 24 272 68
316 25 25 37 60 30 89 -4 17 -4 17 -12 -2 -5 -11 -11 -22 -14 -25 -3 -3 -11
-14 -17 -25 -19 -34 -43 -23 -72 30 -35 66 -53 81 -140 121 -72 34 -102 41
-102 26z"/>
<path d="M780 862 c0 -5 12 -22 26 -38 38 -44 64 -99 64 -139 0 -36 0 -36 -44
-5 -25 16 -47 30 -50 30 -13 0 -5 -28 14 -48 11 -12 20 -24 20 -28 0 -4 10
-28 22 -53 19 -40 22 -60 20 -154 -3 -124 -11 -147 -76 -210 -49 -48 -60 -56
-98 -76 -30 -16 -39 -37 -10 -26 9 4 32 9 50 12 17 3 32 10 32 14 0 5 7 9 16
9 8 0 22 7 30 15 29 29 37 18 31 -45 -7 -65 0 -101 14 -78 5 7 9 26 9 42 0 32
20 96 30 96 3 0 13 -12 22 -28 22 -37 56 -67 66 -57 4 4 1 10 -5 12 -7 3 -13
11 -13 19 0 14 -19 54 -31 64 -3 3 -13 23 -24 45 -26 57 -21 190 10 240 7 11
15 32 19 48 4 15 11 27 16 27 6 0 10 7 10 16 0 16 36 73 53 85 5 4 7 11 3 17
-3 5 1 15 9 22 8 7 15 20 15 28 0 10 -18 -1 -49 -32 -27 -27 -54 -45 -60 -42
-6 4 -11 28 -11 53 0 50 -20 86 -79 141 -35 32 -51 40 -51 24z"/>
</g>
</svg>
