<svg version="1.0" xmlns="http://www.w3.org/2000/svg"
 width="63.000000pt" height="93.000000pt" viewBox="0 0 63.000000 93.000000"
 preserveAspectRatio="xMidYMid meet">
<metadata>
Created by potrace 1.15, written by Peter Selinger 2001-2017
</metadata>
<g transform="translate(0.000000,93.000000) scale(0.100000,-0.100000)"
fill="#000000" stroke="none">
<path d="M256 780 c6 -25 1 -31 -57 -64 -57 -32 -60 -35 -29 -30 19 4 39 11
45 15 5 5 19 9 32 9 20 0 23 -5 23 -37 0 -21 -7 -47 -15 -57 -21 -28 -19 -45
7 -55 15 -6 26 -22 34 -52 12 -44 12 -44 13 8 1 31 6 53 14 56 9 3 8 11 -4 33
-20 37 -20 100 1 96 8 -2 32 -7 55 -12 101 -23 102 -23 82 -7 -10 8 -47 23
-83 33 -56 17 -66 23 -76 51 -6 17 -20 34 -29 36 -15 4 -17 0 -13 -23z"/>
<path d="M473 570 c2 -49 -13 -61 -40 -31 -25 30 -36 26 -19 -8 14 -25 14 -30
1 -41 -8 -7 -25 -10 -36 -7 -15 4 -19 3 -12 -4 6 -6 32 -13 59 -17 43 -6 50
-11 68 -47 26 -50 25 -49 31 -43 5 5 -4 35 -28 86 -8 16 -7 26 1 34 19 19 15
83 -8 103 -19 17 -19 16 -17 -25z"/>
<path d="M100 530 c0 -12 11 -32 25 -46 27 -26 30 -44 16 -72 -26 -51 -33 -71
-29 -88 2 -14 11 -3 31 36 16 30 38 64 50 75 14 13 21 29 19 45 -6 48 -11 54
-30 30 -22 -27 -52 -18 -52 16 0 15 -6 24 -15 24 -8 0 -15 -9 -15 -20z"/>
<path d="M372 358 c-19 -19 -14 -29 13 -22 24 6 25 4 25 -40 0 -49 -11 -57
-38 -30 -11 12 -17 13 -20 5 -4 -12 45 -61 61 -61 17 0 5 -40 -22 -69 -35 -38
-47 -39 -83 -4 -29 27 -37 66 -17 79 7 4 8 9 1 13 -6 3 -12 31 -14 61 -4 50
-7 55 -29 58 -25 3 -86 -44 -74 -57 4 -3 9 -1 13 5 4 6 19 14 35 18 26 6 27 5
27 -39 0 -46 -13 -58 -38 -33 -8 8 -12 9 -12 1 0 -6 12 -20 27 -31 26 -19 27
-21 13 -47 -8 -15 -21 -30 -30 -33 -16 -7 -50 -45 -45 -51 2 -1 19 9 38 23 19
14 37 26 40 26 4 0 7 -18 7 -39 0 -22 5 -43 10 -46 6 -4 10 9 10 33 0 21 3 42
6 45 4 4 24 -3 45 -14 37 -22 37 -22 60 0 26 24 42 23 47 -5 7 -37 22 -39 22
-3 0 48 7 52 42 28 16 -12 32 -19 34 -16 3 3 -13 16 -35 29 -45 26 -62 55 -39
72 19 14 52 65 46 71 -2 3 -14 -4 -26 -16 -22 -20 -22 -20 -32 6 -6 15 -10 42
-10 61 0 29 -3 34 -23 34 -13 0 -28 -5 -35 -12z"/>
</g>
</svg>
