<svg version="1.0" xmlns="http://www.w3.org/2000/svg"
 width="70.000000pt" height="84.000000pt" viewBox="0 0 70.000000 84.000000"
 preserveAspectRatio="xMidYMid meet">
<metadata>
Created by potrace 1.15, written by Peter Selinger 2001-2017
</metadata>
<g transform="translate(0.000000,84.000000) scale(0.100000,-0.100000)"
fill="#000000" stroke="none">
<path d="M331 672 c-8 -16 -27 -20 -112 -25 -56 -4 -107 -11 -112 -16 -23 -23
8 -31 114 -31 102 0 109 -1 109 -20 0 -19 -7 -20 -105 -20 -96 0 -105 -2 -105
-19 0 -24 64 -35 150 -25 61 7 62 6 58 -17 -3 -23 -6 -24 -123 -29 -98 -4
-120 -8 -120 -20 0 -12 19 -16 89 -20 59 -3 91 -9 94 -17 4 -14 3 -14 -71 -34
-77 -19 -77 -20 -77 -190 0 -82 3 -149 8 -149 31 1 35 20 36 154 1 154 -5 143
91 155 48 6 50 8 59 44 9 36 12 38 45 35 32 -3 36 -7 39 -33 4 -42 27 -55 93
-55 70 0 69 3 69 -178 0 -122 2 -133 18 -130 15 3 17 19 20 128 5 181 -16 231
-90 216 -34 -7 -68 8 -68 29 0 20 35 28 94 21 60 -7 87 4 67 28 -11 13 -35 16
-117 16 -104 0 -104 0 -104 26 0 27 0 27 105 20 87 -5 105 -4 105 8 0 21 -27
29 -120 35 -72 5 -85 9 -88 24 -4 18 4 19 109 16 88 -3 113 -1 117 10 8 23
-20 31 -110 31 -65 0 -90 4 -102 16 -9 8 -16 20 -16 25 0 17 -39 9 -49 -9z"/>
<path d="M252 312 c-41 -12 -28 -27 26 -30 44 -3 52 -6 52 -23 0 -17 -7 -19
-65 -19 -57 0 -65 -2 -65 -19 0 -24 36 -34 90 -25 40 7 40 7 40 -54 0 -68 6
-92 25 -92 17 0 25 23 25 68 0 20 3 48 7 61 6 22 9 23 68 18 35 -2 69 -1 76 4
26 15 -5 28 -76 31 -62 3 -70 5 -70 23 0 17 8 21 49 25 53 5 71 24 34 34 -30
7 -186 6 -216 -2z"/>
<path d="M252 140 c-30 -40 -39 -85 -18 -93 29 -11 76 71 62 108 -8 22 -20 18
-44 -15z"/>
<path d="M426 163 c-11 -12 -6 -21 33 -65 28 -30 43 -40 51 -32 7 7 6 19 -4
40 -16 30 -68 68 -80 57z"/>
</g>
</svg>
