<svg version="1.0" xmlns="http://www.w3.org/2000/svg"
 width="78.000000pt" height="90.000000pt" viewBox="0 0 78.000000 90.000000"
 preserveAspectRatio="xMidYMid meet">
<metadata>
Created by potrace 1.15, written by Peter Selinger 2001-2017
</metadata>
<g transform="translate(0.000000,90.000000) scale(0.100000,-0.100000)"
fill="#000000" stroke="none">
<path d="M560 810 c-15 -9 -16 -36 -9 -152 5 -87 -22 -107 -94 -68 -20 11 -39
20 -42 20 -14 0 -2 -32 24 -59 22 -23 38 -31 65 -31 32 0 36 -3 41 -33 5 -23
-1 -53 -19 -101 -33 -88 -33 -147 0 -215 37 -78 114 -142 114 -95 0 8 -11 30
-24 47 -61 81 -72 171 -31 263 30 67 30 82 8 129 -16 34 -16 36 6 66 22 29 22
35 12 88 -6 31 -12 76 -14 100 -2 46 -12 57 -37 41z"/>
<path d="M175 760 c-3 -5 -1 -19 5 -30 8 -16 8 -34 0 -68 -24 -100 -24 -101 6
-133 28 -30 28 -30 12 -94 -17 -62 -17 -66 2 -111 11 -25 20 -58 20 -74 0 -42
-26 -107 -60 -150 -29 -37 -32 -70 -6 -70 18 0 93 81 105 112 21 56 24 151 7
193 -13 30 -16 54 -11 97 6 51 11 60 39 77 40 25 71 59 63 68 -4 3 -27 -2 -53
-12 -36 -14 -51 -15 -70 -6 -13 6 -24 14 -24 18 0 13 26 82 33 89 12 13 7 59
-9 82 -16 23 -48 30 -59 12z"/>
<path d="M451 687 c-34 -42 0 -98 38 -63 25 23 27 61 5 70 -23 9 -30 8 -43 -7z"/>
<path d="M256 638 c-20 -29 -20 -44 0 -52 27 -10 34 -7 44 20 7 19 7 31 -1 40
-16 19 -25 18 -43 -8z"/>
</g>
</svg>
