<svg version="1.0" xmlns="http://www.w3.org/2000/svg"
 width="43.000000pt" height="109.000000pt" viewBox="0 0 43.000000 109.000000"
 preserveAspectRatio="xMidYMid meet">
<metadata>
Created by potrace 1.15, written by Peter Selinger 2001-2017
</metadata>
<g transform="translate(0.000000,109.000000) scale(0.100000,-0.100000)"
fill="#000000" stroke="none">
<path d="M182 878 c-6 -13 -13 -57 -15 -99 -6 -89 -20 -120 -82 -186 -58 -61
-65 -82 -34 -103 13 -8 41 -32 61 -52 38 -36 38 -37 38 -116 0 -82 20 -156 35
-132 9 15 11 41 20 365 3 132 9 248 12 258 6 23 -5 87 -16 87 -4 0 -13 -10
-19 -22z m-36 -385 c-7 -8 -36 23 -36 38 0 7 8 21 18 32 17 19 17 18 20 -23 2
-23 1 -44 -2 -47z"/>
<path d="M276 849 c-4 -24 -8 -114 -11 -199 -2 -85 -7 -210 -11 -277 -5 -82
-4 -123 3 -123 20 0 30 26 43 113 7 48 17 87 22 87 4 0 8 5 8 11 0 6 11 24 25
41 34 40 32 71 -9 116 -34 38 -34 38 -33 140 0 82 -3 106 -15 119 -15 14 -17
12 -22 -28z m64 -303 c0 -7 -7 -21 -15 -32 -13 -18 -14 -16 -15 25 0 37 2 42
15 31 8 -7 15 -18 15 -24z"/>
<path d="M250 170 c0 -64 13 -80 24 -29 11 55 7 89 -9 89 -12 0 -15 -13 -15
-60z"/>
</g>
</svg>
