<svg version="1.0" xmlns="http://www.w3.org/2000/svg"
 width="51.000000pt" height="81.000000pt" viewBox="0 0 51.000000 81.000000"
 preserveAspectRatio="xMidYMid meet">
<metadata>
Created by potrace 1.15, written by Peter Selinger 2001-2017
</metadata>
<g transform="translate(0.000000,81.000000) scale(0.100000,-0.100000)"
fill="#000000" stroke="none">
<path d="M310 624 c0 -45 23 -169 33 -175 5 -4 5 -9 -2 -13 -15 -10 -14 -127
3 -207 15 -71 43 -139 57 -139 12 0 11 52 -1 84 -11 29 -8 39 52 162 46 94 47
88 -32 189 -25 33 -53 75 -61 93 -17 40 -49 44 -49 6z m130 -210 c0 -19 -42
-104 -52 -104 -4 0 -8 42 -8 93 0 92 0 92 30 58 17 -18 30 -40 30 -47z"/>
<path d="M168 605 c-3 -4 -4 -32 -1 -63 5 -54 3 -59 -26 -91 -90 -96 -91 -118
-10 -233 11 -14 19 -30 19 -35 0 -4 9 -19 20 -33 11 -14 20 -41 20 -60 1 -33
1 -34 16 -15 8 11 17 29 19 40 27 147 28 164 12 272 -20 137 -51 236 -69 218z
m23 -257 c0 -46 2 -93 3 -105 5 -47 -12 -41 -37 12 -42 85 -44 107 -11 144 16
17 32 31 37 31 4 0 7 -37 8 -82z"/>
</g>
</svg>
