<svg version="1.0" xmlns="http://www.w3.org/2000/svg"
 width="57.000000pt" height="93.000000pt" viewBox="0 0 57.000000 93.000000"
 preserveAspectRatio="xMidYMid meet">
<metadata>
Created by potrace 1.15, written by Peter Selinger 2001-2017
</metadata>
<g transform="translate(0.000000,93.000000) scale(0.100000,-0.100000)"
fill="#000000" stroke="none">
<path d="M371 740 c-15 -48 -21 -83 -17 -106 5 -22 1 -44 -10 -65 -17 -34 -16
-90 5 -214 6 -33 14 -115 17 -182 4 -68 10 -123 14 -123 4 0 14 7 21 17 19 22
15 234 -6 332 -8 40 -15 81 -15 92 0 32 19 21 37 -21 10 -22 24 -42 31 -45 11
-4 13 5 7 47 -4 29 -11 55 -16 56 -5 2 -9 17 -9 33 0 31 17 38 38 17 18 -18
33 9 25 42 -8 33 -22 41 -60 34 -18 -4 -33 -3 -33 1 0 3 12 32 26 63 28 61 24
84 -13 90 -17 2 -24 -9 -42 -68z"/>
<path d="M287 783 c-4 -3 -10 -28 -13 -55 -4 -26 -10 -48 -15 -48 -5 0 -12 0
-16 0 -5 -1 -10 16 -13 37 -4 29 -9 38 -25 38 -12 0 -22 -9 -26 -25 -12 -43
-9 -134 5 -159 14 -25 14 -25 31 10 22 43 19 40 37 34 13 -5 14 -23 10 -103
-2 -53 -8 -101 -11 -105 -11 -12 -39 2 -46 23 -6 19 -34 35 -43 25 -7 -6 -4
-108 4 -152 10 -55 44 -37 44 23 0 17 6 24 20 24 17 0 19 -8 22 -82 2 -63 6
-83 17 -83 26 0 39 92 40 295 1 108 5 217 10 243 9 51 -8 85 -32 60z"/>
</g>
</svg>
