<svg version="1.0" xmlns="http://www.w3.org/2000/svg"
 width="55.000000pt" height="135.000000pt" viewBox="0 0 55.000000 135.000000"
 preserveAspectRatio="xMidYMid meet">
<metadata>
Created by potrace 1.15, written by Peter Selinger 2001-2017
</metadata>
<g transform="translate(0.000000,135.000000) scale(0.100000,-0.100000)"
fill="#000000" stroke="none">
<path d="M412 1221 c-7 -21 -15 -60 -18 -87 -10 -87 -36 -147 -69 -162 -30
-14 -35 -2 -35 93 0 61 -3 76 -18 84 -34 18 -41 -1 -44 -109 -3 -105 -3 -105
-48 -111 -25 -3 -54 -9 -66 -13 -31 -11 -58 -64 -64 -129 -5 -48 -3 -57 10
-55 15 3 38 43 60 103 16 46 91 74 104 39 3 -9 6 -34 6 -56 0 -38 -4 -57 -32
-163 -6 -22 -26 -70 -45 -108 -37 -75 -38 -77 -22 -77 17 0 74 66 111 127 18
29 37 53 43 53 5 0 41 -32 79 -70 64 -66 106 -88 106 -56 0 7 -12 26 -27 42
-47 49 -108 127 -122 157 -8 15 -18 27 -22 27 -4 0 -5 26 -3 58 8 92 12 102
37 102 26 0 97 60 97 82 0 7 8 30 18 50 16 30 17 46 10 114 -5 44 -11 85 -13
92 -8 23 -22 12 -33 -27z"/>
<path d="M261 511 c-12 -8 -13 -16 -3 -48 6 -21 14 -98 17 -171 6 -133 6 -133
-22 -119 -39 20 -58 45 -73 92 -19 58 -63 148 -75 149 -17 2 -17 -32 1 -111
16 -72 21 -82 70 -129 29 -28 72 -59 96 -68 24 -10 52 -22 63 -27 42 -17 149
-49 167 -49 23 0 36 29 17 41 -8 5 -44 18 -81 30 -37 11 -70 25 -73 30 -3 5
-8 44 -11 86 -6 78 -6 78 60 141 36 34 66 64 66 67 0 13 -59 3 -76 -14 -36
-33 -61 -43 -68 -25 -3 9 -6 23 -6 32 0 28 -32 102 -44 102 -6 0 -17 -4 -25
-9z"/>
</g>
</svg>
