<svg version="1.0" xmlns="http://www.w3.org/2000/svg"
 width="107.000000pt" height="239.000000pt" viewBox="0 0 107.000000 239.000000"
 preserveAspectRatio="xMidYMid meet">
<metadata>
Created by potrace 1.15, written by Peter Selinger 2001-2017
</metadata>
<g transform="translate(0.000000,239.000000) scale(0.100000,-0.100000)"
fill="#000000" stroke="none">
<path d="M195 2340 c-3 -5 -3 -15 0 -21 22 -35 30 -116 19 -179 -17 -89 -21
-103 -66 -183 -21 -38 -38 -73 -38 -76 0 -4 -18 -28 -40 -55 -44 -53 -53 -96
-21 -96 11 0 22 9 26 20 3 11 24 38 46 61 22 23 46 55 53 73 8 17 23 41 35 53
11 12 21 28 21 35 0 6 14 36 32 64 31 53 31 53 97 60 36 4 126 4 200 0 118 -5
139 -9 176 -31 49 -28 97 -80 119 -127 18 -40 31 -308 15 -308 -26 0 -42 34
-45 98 -6 115 -15 176 -30 200 -20 30 -36 18 -29 -21 3 -18 7 -81 9 -142 2
-71 9 -123 19 -148 17 -40 39 -67 56 -67 20 0 22 -22 11 -94 -12 -69 -14 -74
-46 -89 -23 -11 -40 -31 -55 -64 -21 -45 -22 -62 -23 -303 -1 -220 1 -255 14
-255 21 0 31 104 34 330 2 178 8 216 40 237 16 11 23 -77 14 -165 -14 -140 5
-942 23 -961 5 -6 9 -34 9 -63 0 -51 16 -103 31 -103 12 0 15 30 7 100 -7 71
-30 558 -33 710 -2 103 13 446 21 469 4 11 11 8 31 -13 28 -31 28 -31 1 -286
-16 -150 -16 -302 -1 -307 21 -8 35 47 39 157 4 109 19 244 35 317 5 23 9 53
9 67 0 29 -49 112 -80 133 -17 12 -20 25 -20 87 0 73 0 73 41 106 61 49 74 92
94 310 4 46 -10 100 -26 100 -12 0 -12 2 -23 -140 -9 -99 -26 -178 -43 -192
-7 -6 -15 -9 -17 -7 -2 2 -6 68 -10 147 -5 131 -8 146 -35 201 -42 82 -105
129 -216 160 -22 6 -116 12 -209 14 -169 4 -169 4 -182 48 -8 24 -14 57 -14
73 0 19 -9 37 -27 52 -31 26 -39 29 -48 14z"/>
<path d="M428 2023 c-26 -29 -58 -92 -58 -113 0 -11 -3 -20 -8 -20 -4 0 -13
-15 -21 -32 -8 -18 -21 -42 -30 -53 -10 -11 -26 -37 -36 -58 -11 -20 -29 -48
-40 -60 -11 -13 -24 -30 -30 -39 -5 -8 -18 -27 -29 -42 -18 -25 -18 -30 -3
-89 9 -34 18 -100 22 -146 6 -93 24 -142 67 -183 15 -15 25 -34 22 -42 -3 -8
-1 -17 5 -21 6 -3 11 -31 11 -61 0 -51 -1 -54 -25 -54 -25 0 -31 17 -25 73 2
21 -37 87 -52 87 -7 0 -8 -41 -2 -127 8 -143 9 -516 0 -754 -5 -131 -3 -159 9
-169 12 -10 16 -7 25 15 6 15 10 44 9 64 -3 65 11 495 17 528 7 35 38 53 57
34 8 -8 13 -89 15 -249 2 -130 8 -251 13 -268 5 -17 7 -58 4 -90 -6 -72 2
-121 22 -128 23 -9 46 14 38 38 -4 12 -9 59 -10 106 -2 47 -6 132 -9 190 -10
177 -13 389 -6 400 4 7 20 10 36 8 29 -3 29 -3 31 -331 2 -277 4 -332 17 -352
9 -13 24 -23 34 -22 16 1 17 8 9 81 -5 45 -9 201 -11 349 -2 254 -1 267 17
273 11 3 22 2 26 -3 13 -14 31 -311 31 -514 0 -165 2 -199 15 -209 12 -10 18
-11 28 -1 14 14 14 302 -1 551 -6 118 -6 158 4 169 10 11 13 10 18 -5 9 -31
27 -231 31 -343 2 -57 9 -109 14 -114 6 -6 11 -30 11 -53 0 -51 20 -144 32
-144 16 0 20 53 8 137 -19 140 -30 347 -34 640 -2 149 -7 276 -10 282 -4 6
-18 11 -31 11 -24 0 -24 -1 -22 -82 2 -77 1 -83 -18 -83 -18 0 -20 8 -23 69
-3 67 13 126 38 141 19 12 37 71 49 165 7 52 14 107 16 121 3 17 -3 35 -15 49
-27 31 -50 12 -50 -41 0 -39 0 -39 -50 -39 -50 0 -50 0 -50 48 0 51 -12 72
-43 72 -19 0 -20 -6 -14 -132 6 -150 17 -197 52 -233 23 -22 25 -32 25 -119 0
-52 -4 -97 -9 -100 -5 -3 -22 -3 -39 0 -27 6 -30 11 -43 72 -11 51 -18 68 -33
70 -17 4 -18 -1 -12 -67 7 -71 7 -71 -18 -71 -20 0 -26 5 -26 23 0 12 -3 46
-7 76 -4 37 -3 52 4 48 7 -4 9 0 7 11 -3 9 3 44 13 77 21 74 24 305 3 330 -24
29 -40 -1 -40 -74 0 -66 0 -66 -58 -66 -57 0 -57 0 -60 59 -2 33 -10 69 -20
84 -13 20 -13 24 -2 20 21 -7 45 19 87 90 38 64 38 64 103 57 36 -4 76 -8 90
-10 14 -1 41 -3 61 -4 33 -1 38 -5 59 -51 13 -27 27 -50 31 -50 3 0 9 -9 12
-20 3 -11 12 -20 21 -20 23 0 21 61 -4 110 -11 22 -20 44 -20 50 0 6 -11 22
-25 36 -14 14 -25 29 -25 34 0 5 -6 15 -12 22 -18 19 -38 56 -38 68 0 20 -85
130 -100 130 -4 0 -14 -8 -22 -17z m63 -129 c9 -16 25 -45 37 -66 20 -34 20
-36 2 -41 -23 -6 -147 7 -157 16 -13 13 73 129 92 124 5 -2 16 -17 26 -33z
m141 -526 c-4 -72 -19 -98 -57 -98 -30 0 -33 3 -39 38 -3 20 -6 51 -6 68 0 28
4 32 43 41 23 5 46 6 51 1 6 -4 9 -27 8 -50z m-282 -19 c0 -43 -31 -99 -55
-99 -18 0 -42 40 -50 84 -7 34 -6 36 21 37 16 0 38 4 49 9 33 14 35 12 35 -31z
m-42 -462 c3 -67 3 -67 -28 -67 -30 0 -30 0 -30 64 0 65 6 76 40 71 11 -1 16
-18 18 -68z m108 65 c6 -4 14 -38 17 -75 6 -68 6 -68 -26 -65 -32 3 -32 4 -35
62 -4 81 8 102 44 78z m134 -72 c0 -70 0 -70 -35 -70 -29 0 -35 4 -36 23 -8
123 -10 117 37 117 34 0 34 0 34 -70z m80 0 c0 -53 -3 -70 -14 -70 -14 0 -26
49 -26 108 0 25 4 32 20 32 18 0 20 -7 20 -70z"/>
</g>
</svg>
