<svg version="1.0" xmlns="http://www.w3.org/2000/svg"
 width="71.000000pt" height="86.000000pt" viewBox="0 0 71.000000 86.000000"
 preserveAspectRatio="xMidYMid meet">
<metadata>
Created by potrace 1.15, written by Peter Selinger 2001-2017
</metadata>
<g transform="translate(0.000000,86.000000) scale(0.100000,-0.100000)"
fill="#000000" stroke="none">
<path d="M296 763 c-4 -8 -91 -52 -138 -71 -16 -7 -30 -22 -34 -36 -7 -30 15
-80 39 -84 15 -3 17 2 11 36 -9 55 7 59 61 17 48 -36 91 -53 103 -40 7 6 -19
30 -73 69 -20 13 -24 21 -16 29 9 9 17 8 34 -3 46 -30 113 -59 135 -60 42 0
22 27 -38 53 -59 26 -71 42 -49 64 6 6 8 16 5 22 -8 13 -33 15 -40 4z"/>
<path d="M482 676 c4 -86 21 -113 78 -125 37 -7 56 -30 47 -54 -3 -9 -31 -31
-61 -51 -71 -45 -86 -86 -67 -179 20 -98 120 -224 170 -215 22 4 24 24 5 40
-85 68 -132 148 -129 225 1 59 14 79 55 88 16 4 43 19 60 35 56 52 30 140 -45
154 -57 11 -77 38 -73 99 3 48 1 52 -21 55 -23 4 -23 3 -19 -72z"/>
<path d="M195 527 c-38 -33 -38 -35 -26 -66 16 -37 10 -44 -66 -82 -24 -11
-43 -27 -43 -35 0 -26 48 -14 97 24 44 36 53 39 113 39 36 0 87 -6 113 -15 36
-11 51 -12 60 -3 14 14 2 25 -45 41 -33 10 -37 15 -32 35 9 38 -5 64 -43 80
-55 23 -85 19 -128 -18z m124 -21 c14 -17 1 -50 -24 -60 -50 -19 -109 32 -69
61 24 17 79 17 93 -1z"/>
<path d="M257 354 c-4 -4 -7 -29 -7 -56 0 -40 -3 -48 -18 -48 -26 0 -42 20
-42 53 0 22 -4 28 -17 25 -14 -3 -18 -13 -17 -41 1 -41 24 -66 61 -67 39 0 33
-15 -28 -63 -84 -67 -80 -94 4 -37 25 17 48 30 51 30 3 0 6 -27 6 -59 0 -59
14 -86 31 -60 5 8 9 40 9 72 0 35 4 57 11 57 6 0 33 -8 60 -17 37 -13 51 -15
60 -6 9 9 0 17 -37 34 -107 48 -98 41 -66 55 51 21 91 91 62 109 -5 3 -17 -7
-26 -22 -19 -30 -43 -53 -55 -53 -5 0 -9 21 -11 47 -3 44 -15 62 -31 47z"/>
</g>
</svg>
