<svg version="1.0" xmlns="http://www.w3.org/2000/svg"
 width="43.000000pt" height="81.000000pt" viewBox="0 0 43.000000 81.000000"
 preserveAspectRatio="xMidYMid meet">
<metadata>
Created by potrace 1.15, written by Peter Selinger 2001-2017
</metadata>
<g transform="translate(0.000000,81.000000) scale(0.100000,-0.100000)"
fill="#000000" stroke="none">
<path d="M324 610 c-5 -5 -43 -10 -84 -10 -114 -3 -108 3 -104 -96 4 -95 18
-138 29 -92 4 14 5 56 3 92 -3 65 -3 65 32 70 56 9 119 11 125 5 3 -4 6 -43 6
-88 1 -84 8 -99 27 -56 16 34 15 91 -1 137 -16 45 -20 51 -33 38z"/>
<path d="M250 475 c0 -85 12 -112 24 -54 8 40 8 103 0 123 -14 38 -24 10 -24
-69z"/>
<path d="M165 235 c-6 -53 -2 -75 14 -75 11 0 23 93 15 114 -11 30 -22 16 -29
-39z"/>
<path d="M326 239 c-14 -72 0 -180 18 -134 9 25 7 153 -3 159 -5 3 -11 -8 -15
-25z"/>
<path d="M237 235 c-8 -19 12 -95 25 -95 13 0 9 74 -5 94 -13 18 -14 18 -20 1z"/>
</g>
</svg>
