<svg version="1.0" xmlns="http://www.w3.org/2000/svg"
 width="65.000000pt" height="79.000000pt" viewBox="0 0 65.000000 79.000000"
 preserveAspectRatio="xMidYMid meet">
<metadata>
Created by potrace 1.15, written by Peter Selinger 2001-2017
</metadata>
<g transform="translate(0.000000,79.000000) scale(0.100000,-0.100000)"
fill="#000000" stroke="none">
<path d="M205 660 c-3 -5 -1 -10 4 -10 6 0 11 5 11 10 0 6 -2 10 -4 10 -3 0
-8 -4 -11 -10z"/>
<path d="M90 496 c0 -75 16 -118 44 -114 19 3 21 9 20 59 -2 86 -10 109 -39
109 -24 0 -25 -3 -25 -54z"/>
<path d="M300 495 c-22 -57 -4 -145 29 -145 23 0 46 39 32 53 -6 6 -11 30 -11
54 0 32 -5 45 -20 53 -17 9 -22 7 -30 -15z"/>
<path d="M490 470 c0 -28 3 -50 8 -50 4 0 8 -19 10 -42 1 -23 5 -45 8 -48 12
-11 54 56 53 85 -1 39 -28 86 -57 96 -21 8 -22 6 -22 -41z m60 -71 c0 -14 -17
-10 -23 5 -4 10 -1 13 9 9 7 -3 14 -9 14 -14z"/>
<path d="M134 253 c-3 -16 -11 -50 -17 -76 -12 -54 -3 -80 30 -85 27 -4 41 33
36 93 -9 89 -36 126 -49 68z"/>
<path d="M483 216 c-6 -20 -10 -44 -8 -53 13 -62 17 -73 30 -73 38 0 43 96 6
141 -17 21 -17 21 -28 -15z"/>
<path d="M281 181 c-19 -43 1 -107 34 -114 21 -4 25 -1 19 15 -3 10 -1 25 5
32 12 15 -1 58 -26 84 -16 17 -19 16 -32 -17z"/>
</g>
</svg>
