<svg version="1.0" xmlns="http://www.w3.org/2000/svg"
 width="53.000000pt" height="71.000000pt" viewBox="0 0 53.000000 71.000000"
 preserveAspectRatio="xMidYMid meet">
<metadata>
Created by potrace 1.15, written by Peter Selinger 2001-2017
</metadata>
<g transform="translate(0.000000,71.000000) scale(0.100000,-0.100000)"
fill="#000000" stroke="none">
<path d="M295 700 c3 -5 12 -7 20 -3 21 7 19 13 -6 13 -11 0 -18 -4 -14 -10z"/>
<path d="M142 558 c-18 -22 -2 -248 18 -248 4 0 11 28 15 63 4 34 9 78 12 97
5 41 14 53 35 45 11 -4 18 -26 22 -73 4 -37 11 -73 15 -81 15 -24 31 22 31 88
0 53 3 61 19 61 13 0 20 -11 27 -42 14 -63 31 -59 36 7 1 32 1 60 -2 65 -3 4
-45 10 -95 13 -50 2 -97 8 -106 11 -9 4 -21 1 -27 -6z"/>
<path d="M215 460 c-3 -5 -1 -10 4 -10 6 0 11 5 11 10 0 6 -2 10 -4 10 -3 0
-8 -4 -11 -10z"/>
<path d="M263 293 c-16 -6 -18 -123 -3 -123 6 0 10 -13 10 -30 0 -20 5 -30 15
-30 12 0 15 15 15 78 0 79 -13 114 -37 105z"/>
<path d="M367 293 c-10 -9 4 -176 15 -190 20 -25 28 0 28 86 0 54 -4 91 -12
99 -14 14 -22 15 -31 5z"/>
<path d="M144 245 c-13 -34 19 -175 39 -175 19 0 19 140 1 168 -17 26 -32 28
-40 7z"/>
</g>
</svg>
