<svg version="1.0" xmlns="http://www.w3.org/2000/svg"
 width="43.000000pt" height="69.000000pt" viewBox="0 0 43.000000 69.000000"
 preserveAspectRatio="xMidYMid meet">
<metadata>
Created by potrace 1.15, written by Peter Selinger 2001-2017
</metadata>
<g transform="translate(0.000000,69.000000) scale(0.100000,-0.100000)"
fill="#000000" stroke="none">
<path d="M146 562 c-11 -18 20 -32 92 -38 52 -5 72 -4 72 5 0 6 -12 16 -26 21
-40 16 -131 24 -138 12z"/>
<path d="M186 503 c-4 -4 -31 -10 -59 -13 -52 -5 -52 -5 -55 -67 -3 -65 17
-125 41 -120 8 1 11 -11 9 -42 -5 -60 5 -96 22 -82 7 6 16 8 19 4 11 -10 8
-51 -4 -55 -17 -6 11 -58 31 -58 11 0 20 10 23 27 6 34 -3 93 -14 93 -5 0 -9
7 -9 15 0 8 -4 15 -10 15 -5 0 -10 21 -10 48 -1 46 -17 82 -38 82 -35 0 -16
70 23 88 32 15 41 1 50 -70 7 -55 18 -72 28 -45 3 6 6 -6 6 -28 2 -53 12 -115
20 -115 7 0 31 73 31 95 0 8 -4 24 -10 35 -6 11 -15 29 -20 40 -25 50 1 118
35 90 10 -8 15 -31 15 -71 0 -32 4 -60 9 -63 18 -12 30 22 32 97 4 90 -1 96
-72 95 -26 0 -56 3 -66 6 -11 3 -23 3 -27 -1z"/>
</g>
</svg>
