<svg version="1.0" xmlns="http://www.w3.org/2000/svg"
 width="59.000000pt" height="91.000000pt" viewBox="0 0 59.000000 91.000000"
 preserveAspectRatio="xMidYMid meet">
<metadata>
Created by potrace 1.15, written by Peter Selinger 2001-2017
</metadata>
<g transform="translate(0.000000,91.000000) scale(0.100000,-0.100000)"
fill="#000000" stroke="none">
<path d="M280 669 c-52 -4 -113 -11 -135 -16 -40 -8 -40 -8 -37 -83 2 -41 6
-88 9 -104 5 -28 6 -29 19 -11 9 12 14 45 14 86 0 66 0 66 57 78 77 15 83 8
83 -92 0 -44 2 -78 5 -75 9 9 35 118 35 148 0 27 3 30 30 30 30 0 30 0 30 -80
0 -44 4 -80 9 -80 10 0 27 74 23 102 -4 34 17 68 40 68 13 0 30 4 38 10 13 8
13 9 0 14 -32 10 -129 12 -220 5z"/>
<path d="M110 321 c0 -44 3 -87 6 -96 13 -33 35 21 36 88 1 69 -5 87 -28 87
-11 0 -14 -17 -14 -79z"/>
<path d="M276 370 c-14 -38 -25 -110 -20 -124 12 -31 32 -16 39 27 3 23 8 49
11 58 2 8 -2 24 -10 35 -12 16 -15 16 -20 4z"/>
<path d="M386 328 c-8 -47 3 -178 14 -178 9 0 20 77 20 141 0 84 -23 109 -34
37z"/>
</g>
</svg>
