<svg version="1.0" xmlns="http://www.w3.org/2000/svg"
 width="65.000000pt" height="82.000000pt" viewBox="0 0 65.000000 82.000000"
 preserveAspectRatio="xMidYMid meet">
<metadata>
Created by potrace 1.15, written by Peter Selinger 2001-2017
</metadata>
<g transform="translate(0.000000,82.000000) scale(0.100000,-0.100000)"
fill="#000000" stroke="none">
<path d="M155 403 c-72 -11 -100 -88 -93 -250 4 -102 18 -133 44 -99 8 11 12
27 9 35 -10 35 -8 179 4 219 15 53 39 64 120 55 72 -7 71 -5 71 -160 0 -89 3
-113 14 -113 26 0 33 25 40 134 4 59 10 114 13 122 6 17 101 19 137 3 32 -15
36 -32 36 -169 0 -63 4 -120 8 -127 10 -16 29 -3 41 30 16 42 14 218 -3 259
-26 61 -31 63 -230 64 -100 1 -194 0 -211 -3z"/>
<path d="M195 309 c-11 -11 -32 -28 -47 -37 -31 -18 -36 -32 -11 -32 29 0 104
50 101 67 -5 25 -22 26 -43 2z"/>
<path d="M398 324 c-12 -12 5 -35 47 -64 43 -30 55 -30 55 -1 0 24 -88 80
-102 65z"/>
<path d="M177 189 c-26 -22 -47 -44 -47 -49 0 -21 34 -18 66 7 44 33 58 57 41
71 -10 8 -25 1 -60 -29z"/>
<path d="M405 189 c-17 -27 104 -94 127 -71 13 13 -7 42 -28 42 -7 0 -28 9
-46 20 -38 23 -44 24 -53 9z"/>
</g>
</svg>
