<svg version="1.0" xmlns="http://www.w3.org/2000/svg"
 width="63.000000pt" height="87.000000pt" viewBox="0 0 63.000000 87.000000"
 preserveAspectRatio="xMidYMid meet">
<metadata>
Created by potrace 1.15, written by Peter Selinger 2001-2017
</metadata>
<g transform="translate(0.000000,87.000000) scale(0.100000,-0.100000)"
fill="#000000" stroke="none">
<path d="M187 610 c-93 -7 -123 -20 -90 -38 31 -17 423 -3 430 15 3 8 3 16 0
19 -9 9 -245 12 -340 4z"/>
<path d="M205 494 c-66 -10 -75 -15 -96 -55 -18 -35 -20 -56 -18 -143 3 -94
-9 -205 -27 -250 -13 -33 28 -14 50 24 18 31 21 54 23 180 1 80 2 151 2 157 2
30 47 42 171 48 69 3 131 1 139 -4 17 -11 30 -78 31 -166 1 -91 23 -181 51
-211 12 -13 26 -24 31 -24 11 0 -2 49 -21 79 -11 18 -15 56 -16 155 -2 154 -8
179 -43 196 -27 13 -218 22 -277 14z"/>
<path d="M182 408 c-17 -17 -15 -32 6 -51 24 -22 44 -7 40 29 -3 31 -26 42
-46 22z"/>
<path d="M280 390 c0 -36 24 -50 47 -28 19 20 1 58 -27 58 -16 0 -20 -7 -20
-30z"/>
<path d="M397 414 c-12 -12 -8 -41 7 -53 17 -14 39 9 34 36 -3 18 -29 29 -41
17z"/>
<path d="M305 288 c-8 -27 -25 -147 -25 -180 0 -41 26 -71 40 -48 5 7 8 36 7
64 0 28 6 68 13 88 11 29 11 43 2 63 -12 27 -30 33 -37 13z"/>
<path d="M400 298 c-8 -70 -8 -181 -1 -201 14 -36 46 -37 37 -2 -3 13 -1 56 5
95 11 63 10 72 -6 90 -15 17 -34 26 -35 18z"/>
<path d="M196 233 c-3 -26 -8 -66 -11 -88 -6 -42 12 -91 30 -84 6 2 11 33 13
69 1 36 3 83 5 105 1 30 -2 40 -14 43 -13 2 -18 -7 -23 -45z"/>
</g>
</svg>
