<svg version="1.0" xmlns="http://www.w3.org/2000/svg"
 width="33.000000pt" height="91.000000pt" viewBox="0 0 33.000000 91.000000"
 preserveAspectRatio="xMidYMid meet">
<metadata>
Created by potrace 1.15, written by Peter Selinger 2001-2017
</metadata>
<g transform="translate(0.000000,91.000000) scale(0.100000,-0.100000)"
fill="#000000" stroke="none">
<path d="M103 594 c-7 -19 21 -44 50 -44 10 0 15 -4 12 -10 -3 -5 -19 -10 -34
-10 -25 0 -29 -5 -35 -37 -3 -21 -9 -53 -12 -70 -9 -47 12 -42 33 7 10 22 21
40 25 40 5 0 8 -22 8 -50 0 -45 2 -50 22 -50 17 0 19 -3 10 -12 -7 -7 -12 -37
-12 -67 0 -53 0 -54 20 -36 22 20 28 93 9 112 -13 13 -8 95 6 100 6 1 18 -11
27 -27 25 -43 40 -38 36 12 -3 36 -9 47 -45 74 -41 31 -41 32 -18 38 32 8 32
20 0 34 -39 18 -94 15 -102 -4z"/>
<path d="M99 388 c0 -2 -3 -29 -5 -60 -4 -53 -2 -58 16 -58 13 0 20 7 20 19 0
11 4 22 9 25 17 11 -9 76 -30 76 -5 0 -9 -1 -10 -2z"/>
<path d="M121 208 c-13 -37 -15 -118 -3 -118 15 0 32 50 32 95 0 54 -14 66
-29 23z"/>
</g>
</svg>
