<svg version="1.0" xmlns="http://www.w3.org/2000/svg"
 width="37.000000pt" height="75.000000pt" viewBox="0 0 37.000000 75.000000"
 preserveAspectRatio="xMidYMid meet">
<metadata>
Created by potrace 1.15, written by Peter Selinger 2001-2017
</metadata>
<g transform="translate(0.000000,75.000000) scale(0.100000,-0.100000)"
fill="#000000" stroke="none">
<path d="M195 628 c-4 -13 -15 -42 -26 -65 -10 -24 -19 -47 -19 -52 0 -5 -4
-11 -8 -13 -13 -5 -73 -140 -66 -147 4 -3 9 0 11 7 3 6 11 12 18 12 8 0 22 14
32 30 17 29 33 39 33 21 0 -10 -56 -117 -72 -138 -6 -7 -4 -14 3 -19 8 -4 28
11 55 42 24 26 46 45 50 41 10 -10 -29 -127 -66 -198 -4 -9 -4 -22 1 -30 9
-16 17 -8 66 68 16 24 33 43 39 43 15 0 6 -48 -16 -80 -24 -35 -60 -117 -60
-135 0 -38 33 5 107 140 33 60 43 121 23 141 -12 12 -16 76 -7 92 4 5 1 41 -7
79 -7 37 -17 84 -20 104 -7 37 -35 79 -54 79 -6 0 -14 -10 -17 -22z m25 -128
c0 -5 -4 -10 -10 -10 -5 0 -10 5 -10 10 0 6 5 10 10 10 6 0 10 -4 10 -10z"/>
</g>
</svg>
