<svg version="1.0" xmlns="http://www.w3.org/2000/svg"
 width="121.000000pt" height="179.000000pt" viewBox="0 0 121.000000 179.000000"
 preserveAspectRatio="xMidYMid meet">
<metadata>
Created by potrace 1.15, written by Peter Selinger 2001-2017
</metadata>
<g transform="translate(0.000000,179.000000) scale(0.100000,-0.100000)"
fill="#000000" stroke="none">
<path d="M276 1741 c-3 -5 -38 -9 -77 -10 -65 -1 -99 -11 -99 -30 0 -4 18 -17
40 -30 32 -18 44 -20 60 -11 20 11 166 8 300 -6 30 -3 69 -7 85 -8 38 -4 75
-23 75 -39 0 -7 -3 -22 -6 -35 -7 -23 -7 -23 -266 -21 -163 1 -263 -2 -270 -9
-6 -6 -5 -17 4 -31 10 -17 23 -21 60 -21 26 0 59 -5 75 -11 46 -18 393 -15
429 4 39 20 61 47 66 77 3 23 8 25 61 28 31 2 57 -1 57 -6 0 -4 22 -14 49 -21
70 -18 84 -50 75 -170 -7 -89 -7 -90 -36 -96 -16 -4 -41 -2 -56 3 -15 5 -65
15 -112 21 -47 7 -115 17 -152 23 -54 9 -70 8 -83 -2 -11 -9 -19 -10 -23 -3
-4 5 -18 13 -32 16 -14 3 -54 13 -90 22 -119 30 -280 22 -280 -15 0 -12 51
-28 110 -34 30 -3 84 -10 120 -16 36 -6 88 -13 115 -16 96 -10 95 -10 95 -59
0 -33 -6 -50 -22 -65 -21 -19 -34 -20 -233 -20 -204 1 -245 -3 -245 -21 0 -12
37 -30 69 -35 73 -10 411 -6 437 5 36 14 78 75 81 115 2 17 5 37 8 44 5 14 59
16 101 3 16 -5 49 -14 74 -22 25 -7 49 -16 55 -21 5 -4 17 -8 27 -8 10 0 30
-8 44 -17 26 -16 26 -17 20 -122 -5 -84 -10 -109 -24 -119 -13 -10 -55 -12
-187 -7 -93 4 -177 9 -185 12 -8 2 -117 7 -242 10 -161 3 -233 1 -248 -7 -12
-6 -19 -14 -16 -18 12 -11 81 -32 109 -32 16 0 37 -5 49 -11 11 -6 94 -12 196
-14 295 -5 421 -14 478 -36 51 -20 51 -20 63 -127 6 -59 16 -193 21 -298 14
-261 44 -393 86 -377 14 5 16 17 10 82 -4 42 -7 83 -8 91 0 8 -4 36 -9 61 -4
26 -9 161 -10 300 -1 140 -7 283 -12 318 -6 42 -5 96 3 165 16 133 19 176 24
336 5 131 4 136 -19 163 -13 15 -29 27 -35 27 -5 0 -10 5 -10 10 0 6 -7 10
-15 10 -8 0 -15 5 -15 10 0 6 -7 10 -15 10 -8 0 -37 9 -63 21 -81 36 -86 37
-142 44 -30 3 -84 10 -120 15 -36 4 -119 13 -185 19 -66 6 -134 13 -152 16
-18 3 -34 1 -37 -4z"/>
</g>
</svg>
