<svg version="1.0" xmlns="http://www.w3.org/2000/svg"
 width="63.000000pt" height="111.000000pt" viewBox="0 0 63.000000 111.000000"
 preserveAspectRatio="xMidYMid meet">
<metadata>
Created by potrace 1.15, written by Peter Selinger 2001-2017
</metadata>
<g transform="translate(0.000000,111.000000) scale(0.100000,-0.100000)"
fill="#000000" stroke="none">
<path d="M170 1035 c-8 -8 -38 -37 -66 -64 -65 -62 -83 -118 -65 -195 20 -81
42 -145 54 -159 19 -21 37 -56 37 -72 0 -8 4 -24 10 -35 5 -11 14 -29 20 -40
6 -11 15 -29 22 -39 9 -15 9 -26 1 -43 -35 -76 -40 -120 -19 -169 14 -33 74
-89 95 -89 6 0 11 -18 11 -40 0 -29 4 -40 15 -40 18 0 45 61 45 101 0 16 9 43
20 61 26 42 25 65 -3 107 -47 72 -55 94 -46 126 13 46 31 77 65 111 52 53 68
58 113 34 36 -18 91 -27 91 -15 0 2 -23 25 -50 51 -30 28 -50 55 -50 68 0 36
59 92 113 106 26 7 47 16 47 21 0 14 -48 22 -89 15 -44 -7 -51 4 -51 80 0 33
7 49 30 74 59 63 24 85 -38 23 -37 -37 -37 -37 -37 -133 -1 -89 -3 -99 -37
-168 -35 -69 -118 -195 -137 -206 -5 -3 -23 -3 -41 1 -28 5 -36 14 -57 61 -29
65 -24 81 38 126 40 31 51 56 23 56 -9 0 -35 -16 -59 -35 -49 -41 -63 -34 -45
21 12 34 80 112 116 132 17 9 14 42 -4 42 -20 0 -107 -66 -132 -101 -29 -40
-40 -41 -40 -3 0 54 43 108 131 165 27 17 49 34 49 38 0 13 -36 41 -51 41 -8
0 -21 -7 -29 -15z m150 -737 c12 -33 12 -41 -5 -72 -32 -60 -78 -57 -112 7
-20 40 -9 91 29 127 30 29 30 29 53 2 12 -15 28 -44 35 -64z"/>
</g>
</svg>
