<svg version="1.0" xmlns="http://www.w3.org/2000/svg"
 width="63.000000pt" height="85.000000pt" viewBox="0 0 63.000000 85.000000"
 preserveAspectRatio="xMidYMid meet">
<metadata>
Created by potrace 1.15, written by Peter Selinger 2001-2017
</metadata>
<g transform="translate(0.000000,85.000000) scale(0.100000,-0.100000)"
fill="#000000" stroke="none">
<path d="M128 633 c-48 -4 -62 -16 -32 -27 9 -3 49 -6 89 -6 63 0 76 -3 84
-19 16 -29 -9 -43 -98 -51 -81 -9 -118 -23 -125 -50 -3 -8 -6 -112 -8 -230 -3
-186 -1 -215 12 -215 11 0 16 14 17 55 5 89 13 124 26 111 6 -6 21 -11 34 -11
20 0 22 -4 16 -32 -3 -18 -12 -45 -19 -60 -16 -31 -18 -68 -4 -68 15 0 41 59
49 109 5 35 10 46 24 46 15 0 19 -10 22 -52 4 -54 21 -93 42 -93 17 0 16 13
-4 70 -19 53 -9 80 29 80 11 0 18 5 16 13 -3 8 -37 13 -111 15 -107 3 -107 3
-107 110 0 59 3 117 6 129 7 27 55 43 129 43 30 0 60 7 73 16 28 19 29 63 1
98 -22 27 -33 29 -161 19z"/>
<path d="M383 616 c-30 -14 -31 -17 -37 -93 -4 -43 -9 -92 -12 -110 -5 -33 10
-53 28 -35 6 6 15 52 20 103 5 52 14 97 21 101 7 4 36 8 65 8 38 0 54 -4 58
-15 9 -21 -12 -42 -47 -50 -39 -9 -55 -43 -43 -87 9 -32 12 -33 68 -36 51 -3
57 -1 54 15 -3 14 -13 18 -43 18 -35 0 -40 3 -43 24 -4 26 12 41 45 41 24 0
53 34 53 61 0 9 -8 27 -18 39 -23 28 -121 38 -169 16z"/>
<path d="M105 421 c-3 -6 4 -15 15 -21 28 -15 28 -75 0 -83 -62 -16 28 -42
109 -32 74 10 79 14 52 34 -21 16 -22 21 -12 56 8 30 8 41 -2 47 -17 11 -155
10 -162 -1z m125 -61 c0 -25 -4 -30 -25 -30 -20 0 -25 5 -25 23 0 28 7 37 32
37 13 0 18 -8 18 -30z"/>
<path d="M398 313 c-10 -2 -18 -10 -18 -18 0 -10 14 -12 59 -8 52 5 60 3 65
-14 4 -11 2 -31 -2 -44 -9 -22 -13 -23 -91 -20 -48 1 -81 -1 -81 -7 0 -14 26
-22 75 -22 25 0 47 -6 55 -15 10 -12 6 -20 -21 -45 -19 -16 -37 -30 -42 -30
-4 0 -23 -7 -42 -14 -25 -11 -33 -19 -29 -30 3 -9 12 -16 20 -16 18 0 107 50
120 68 17 23 31 7 38 -43 9 -54 22 -65 38 -30 9 20 8 40 -7 100 -15 58 -16 78
-7 87 16 16 16 80 0 96 -11 11 -94 15 -130 5z"/>
</g>
</svg>
