<svg version="1.0" xmlns="http://www.w3.org/2000/svg"
 width="97.000000pt" height="183.000000pt" viewBox="0 0 97.000000 183.000000"
 preserveAspectRatio="xMidYMid meet">
<metadata>
Created by potrace 1.15, written by Peter Selinger 2001-2017
</metadata>
<g transform="translate(0.000000,183.000000) scale(0.100000,-0.100000)"
fill="#000000" stroke="none">
<path d="M530 1582 c0 -55 -4 -92 -12 -100 -16 -16 -64 -15 -117 3 -24 9 -64
18 -90 21 -67 8 -94 21 -108 51 -7 15 -13 31 -13 36 0 14 -28 37 -45 37 -12 0
-15 -5 -10 -17 16 -42 28 -136 30 -240 1 -61 7 -124 12 -140 6 -15 16 -47 23
-70 19 -62 65 -107 152 -147 42 -20 81 -36 86 -36 17 0 70 -55 75 -78 6 -27
-16 -109 -44 -163 -13 -25 -19 -57 -19 -101 0 -56 4 -71 32 -114 18 -27 44
-60 58 -74 40 -40 85 -102 110 -150 21 -41 22 -54 17 -145 -5 -86 -4 -98 8
-82 17 24 29 134 20 178 -12 54 -92 199 -137 247 -40 42 -68 94 -68 127 0 37
18 105 28 105 8 0 32 71 32 95 0 8 10 35 23 60 22 44 22 44 124 45 103 0 103
0 126 -37 13 -21 30 -55 38 -76 15 -43 35 -44 31 -1 -1 16 -3 103 -2 194 0 91
-5 189 -11 219 -12 57 -64 139 -89 141 -8 0 -26 9 -40 20 -14 11 -35 20 -46
20 -28 0 -94 65 -94 92 0 10 -4 27 -9 36 -5 9 -10 35 -12 57 -3 42 -23 75 -46
75 -10 0 -13 -21 -13 -88z m-195 -142 c11 -5 34 -11 50 -14 116 -18 154 -41
175 -107 11 -32 11 -47 2 -73 -7 -18 -12 -57 -12 -87 0 -110 -69 -138 -193
-78 -35 16 -78 45 -94 62 -35 36 -43 67 -50 184 -4 77 -3 84 20 107 24 24 55
26 102 6z m353 -79 c9 -5 31 -15 47 -22 17 -7 45 -30 64 -51 38 -44 47 -90 37
-190 -9 -84 -22 -92 -140 -90 -100 2 -110 6 -102 35 3 11 -1 32 -9 47 -8 15
-10 31 -5 36 11 12 30 117 30 172 0 35 4 45 20 49 11 3 20 9 20 14 0 12 16 11
38 0z"/>
</g>
</svg>
