<svg version="1.0" xmlns="http://www.w3.org/2000/svg"
 width="67.000000pt" height="159.000000pt" viewBox="0 0 67.000000 159.000000"
 preserveAspectRatio="xMidYMid meet">
<metadata>
Created by potrace 1.15, written by Peter Selinger 2001-2017
</metadata>
<g transform="translate(0.000000,159.000000) scale(0.100000,-0.100000)"
fill="#000000" stroke="none">
<path d="M382 1488 c-7 -7 -12 -38 -12 -69 0 -67 -3 -69 -96 -69 -56 0 -64 2
-64 19 0 10 -6 24 -14 30 -11 9 -15 5 -20 -19 -4 -22 -15 -35 -36 -44 -35 -14
-30 -26 11 -26 30 0 32 -4 43 -82 4 -32 2 -37 -17 -40 -12 -2 -23 -11 -25 -20
-3 -14 3 -18 26 -18 26 0 33 -7 61 -63 17 -34 44 -76 60 -93 47 -50 54 -71 46
-138 -9 -85 -39 -217 -59 -256 -9 -18 -16 -39 -16 -47 0 -7 -4 -21 -9 -31 -17
-32 -50 -156 -66 -245 -14 -84 -11 -212 5 -202 4 3 8 41 9 85 2 76 47 290 71
332 6 10 10 25 10 33 0 8 4 23 10 33 13 23 50 141 50 161 0 9 9 43 20 75 28
84 26 123 -11 182 -17 27 -34 51 -38 54 -16 13 -48 68 -54 91 -8 31 -2 34 64
38 46 2 46 2 74 -51 15 -29 39 -69 54 -88 50 -64 60 -129 36 -235 -4 -16 -10
-39 -15 -50 -49 -119 -82 -233 -106 -370 -20 -109 -32 -205 -28 -225 1 -8 3
-27 3 -42 1 -16 5 -28 9 -28 5 0 12 46 16 103 6 88 24 197 55 327 5 19 18 60
31 90 12 30 33 89 47 130 14 41 29 79 34 84 5 6 9 39 9 75 0 49 -5 74 -20 96
-11 17 -25 39 -32 50 -7 11 -20 27 -28 35 -21 21 -40 57 -40 74 0 15 56 36 95
36 31 0 84 37 90 63 16 61 -42 109 -148 122 -57 7 -57 7 -57 71 0 64 -8 82
-28 62z m-12 -228 c0 -70 0 -70 -65 -70 -62 0 -65 1 -71 28 -3 15 -9 41 -13
57 -13 50 -6 55 75 55 74 0 74 0 74 -70z m131 60 c49 -9 89 -36 89 -60 0 -5
-14 -22 -31 -39 -27 -28 -37 -31 -90 -31 -59 0 -59 0 -59 70 0 79 -3 77 91 60z"/>
</g>
</svg>
