<svg version="1.0" xmlns="http://www.w3.org/2000/svg"
 width="89.000000pt" height="123.000000pt" viewBox="0 0 89.000000 123.000000"
 preserveAspectRatio="xMidYMid meet">
<metadata>
Created by potrace 1.15, written by Peter Selinger 2001-2017
</metadata>
<g transform="translate(0.000000,123.000000) scale(0.100000,-0.100000)"
fill="#000000" stroke="none">
<path d="M469 1038 c-1 -35 -2 -96 -3 -136 -1 -55 -5 -76 -17 -82 -8 -5 -53
-10 -99 -11 -66 -2 -87 -7 -99 -21 -8 -10 -21 -18 -28 -18 -19 0 -16 -50 4
-73 14 -14 18 -37 18 -105 0 -87 0 -87 -50 -87 -54 -1 -99 -19 -92 -38 5 -16
64 -36 110 -36 37 -1 37 -1 37 -73 1 -48 6 -80 15 -92 15 -19 15 -19 29 -1 9
12 14 46 14 93 0 40 3 76 6 80 7 6 78 18 171 28 33 4 65 11 72 16 27 21 32 -7
32 -180 0 -137 3 -183 14 -205 15 -29 15 -29 30 5 9 18 18 79 21 138 12 204
18 264 30 274 6 6 32 22 57 35 58 29 70 54 76 161 3 49 11 95 20 108 8 13 12
29 10 35 -6 16 -126 14 -192 -2 -100 -25 -105 -25 -106 -5 0 11 -3 28 -6 39
-3 11 -8 53 -10 94 -5 75 -23 121 -49 121 -10 0 -14 -16 -15 -62z m264 -262
c20 -16 23 -88 5 -147 -10 -35 -14 -39 -45 -39 -27 0 -35 5 -44 27 -5 15 -28
46 -49 70 -44 47 -43 44 -34 67 4 11 19 16 43 16 20 0 43 5 51 10 21 13 52 12
73 -4z m-264 -56 c4 -34 37 -77 64 -86 33 -10 57 -34 57 -58 0 -19 -12 -24
-103 -44 -56 -12 -119 -22 -140 -22 -37 0 -37 0 -37 110 0 110 0 110 38 111
20 1 48 5 62 9 39 13 55 7 59 -20z"/>
<path d="M215 80 c3 -5 8 -10 11 -10 2 0 4 5 4 10 0 6 -5 10 -11 10 -5 0 -7
-4 -4 -10z"/>
</g>
</svg>
