<svg version="1.0" xmlns="http://www.w3.org/2000/svg"
 width="65.000000pt" height="109.000000pt" viewBox="0 0 65.000000 109.000000"
 preserveAspectRatio="xMidYMid meet">
<metadata>
Created by potrace 1.15, written by Peter Selinger 2001-2017
</metadata>
<g transform="translate(0.000000,109.000000) scale(0.100000,-0.100000)"
fill="#000000" stroke="none">
<path d="M330 890 c0 -88 12 -81 -148 -84 -37 -1 -55 -21 -41 -47 5 -11 6 -27
0 -41 -28 -70 -66 -368 -48 -368 3 0 22 34 41 75 19 41 41 75 48 76 7 0 24 2
38 4 73 11 150 11 159 2 6 -6 11 -30 11 -52 0 -37 -6 -48 -61 -103 -49 -49
-60 -66 -56 -84 3 -13 15 -57 26 -98 11 -41 18 -84 15 -96 -3 -12 1 -26 10
-33 12 -10 17 -9 25 8 10 18 6 97 -6 131 -3 8 -8 34 -10 57 -4 37 -1 43 26 59
17 10 31 22 31 26 0 4 7 8 16 8 36 0 55 116 29 183 -5 11 -2 17 7 17 22 0 78
45 104 83 17 25 24 51 26 98 1 35 7 72 13 82 7 13 6 20 -5 27 -20 13 -137 13
-145 0 -4 -6 -13 -5 -25 3 -14 8 -20 23 -20 50 0 38 -31 97 -51 97 -5 0 -9
-36 -9 -80z m198 -176 c3 -57 1 -64 -28 -93 -17 -17 -38 -31 -45 -31 -7 0 -20
-3 -28 -6 -19 -7 -41 80 -35 141 3 35 7 41 33 47 17 3 46 5 65 5 35 -2 35 -2
38 -63z m-190 14 c15 -47 23 -156 13 -162 -20 -13 -162 -18 -176 -6 -15 12
-11 66 6 85 5 5 9 21 9 35 0 33 35 67 75 73 61 8 63 8 73 -25z"/>
</g>
</svg>
