<svg version="1.0" xmlns="http://www.w3.org/2000/svg"
 width="49.000000pt" height="93.000000pt" viewBox="0 0 49.000000 93.000000"
 preserveAspectRatio="xMidYMid meet">
<metadata>
Created by potrace 1.15, written by Peter Selinger 2001-2017
</metadata>
<g transform="translate(0.000000,93.000000) scale(0.100000,-0.100000)"
fill="#000000" stroke="none">
<path d="M170 713 c0 -16 -5 -44 -11 -62 -11 -30 -15 -32 -50 -30 -44 4 -44 4
-30 -34 6 -16 11 -36 11 -45 1 -22 20 -46 44 -55 13 -5 16 -12 11 -25 -4 -9
-10 -43 -13 -74 -4 -56 -4 -57 29 -77 19 -12 42 -21 52 -21 9 0 17 -7 17 -16
0 -16 -8 -15 -87 3 -36 8 -38 -21 -6 -69 16 -24 39 -64 52 -91 24 -47 41 -60
41 -32 0 18 -34 88 -62 128 -11 16 -18 31 -14 34 3 3 25 0 50 -6 47 -12 126
-15 126 -5 0 14 -67 62 -122 87 -37 17 -38 19 -38 71 0 35 5 58 15 66 22 19
38 2 32 -36 -7 -44 10 -54 24 -15 13 36 11 36 50 15 35 -18 60 -15 38 5 -8 7
-29 21 -47 32 -30 17 -32 22 -26 53 5 31 2 39 -31 71 -24 25 -34 42 -30 54 17
44 16 67 -4 85 -21 19 -21 19 -21 -11z m-20 -159 c0 -13 -4 -24 -10 -24 -5 0
-10 14 -10 31 0 17 4 28 10 24 6 -3 10 -17 10 -31z m70 -20 c0 -15 -6 -24 -15
-24 -15 0 -21 40 -9 53 12 11 24 -3 24 -29z"/>
</g>
</svg>
