<svg version="1.0" xmlns="http://www.w3.org/2000/svg"
 width="75.000000pt" height="153.000000pt" viewBox="0 0 75.000000 153.000000"
 preserveAspectRatio="xMidYMid meet">
<metadata>
Created by potrace 1.15, written by Peter Selinger 2001-2017
</metadata>
<g transform="translate(0.000000,153.000000) scale(0.100000,-0.100000)"
fill="#000000" stroke="none">
<path d="M424 1389 c-4 -6 -11 -46 -16 -88 -21 -170 -2 -152 -155 -150 -74 0
-137 -2 -141 -5 -9 -10 -3 -565 8 -664 5 -48 10 -134 11 -192 1 -119 5 -140
23 -140 21 0 37 46 26 76 -6 15 -10 67 -9 118 0 50 0 183 0 295 -1 115 2 208
8 214 10 10 30 11 116 4 33 -3 65 -6 72 -6 8 -1 10 -16 8 -46 -5 -52 28 -272
55 -367 5 -21 14 -53 19 -70 18 -69 90 -219 117 -246 8 -7 14 -17 14 -21 0
-10 35 -51 44 -51 3 0 6 9 6 20 0 11 -4 20 -10 20 -5 0 -10 6 -10 14 0 12 -59
135 -70 146 -28 28 -86 265 -94 383 -2 38 -7 71 -10 74 -3 4 -6 37 -6 75 0 68
0 68 55 68 103 0 153 17 208 72 44 44 49 52 43 80 -13 68 -96 118 -211 127
-70 6 -70 6 -69 36 1 17 6 63 13 103 9 58 9 79 -1 100 -15 29 -33 38 -44 21z
m-42 -310 c2 -6 -1 -46 -6 -90 -9 -79 -9 -79 -85 -79 -121 0 -120 0 -119 84 0
64 2 73 21 83 30 14 184 16 189 2z m180 0 c86 -17 138 -78 105 -124 -24 -31
-135 -54 -224 -46 -16 1 -17 90 -2 144 11 42 25 45 121 26z"/>
</g>
</svg>
