<svg version="1.0" xmlns="http://www.w3.org/2000/svg"
 width="53.000000pt" height="71.000000pt" viewBox="0 0 53.000000 71.000000"
 preserveAspectRatio="xMidYMid meet">
<metadata>
Created by potrace 1.15, written by Peter Selinger 2001-2017
</metadata>
<g transform="translate(0.000000,71.000000) scale(0.100000,-0.100000)"
fill="#000000" stroke="none">
<path d="M210 598 c-24 -40 -26 -78 -5 -78 9 0 18 7 21 15 12 30 24 3 24 -52
0 -53 -1 -55 -22 -49 -13 3 -31 6 -40 6 -12 0 -18 8 -18 24 0 53 -28 39 -51
-26 -14 -42 -7 -58 20 -41 22 14 96 5 112 -13 5 -7 13 -37 15 -66 5 -48 3 -56
-25 -88 -24 -27 -31 -45 -31 -75 0 -43 31 -105 53 -105 13 0 38 47 52 98 8 28
-15 30 -33 2 -7 -12 -17 -18 -22 -15 -16 10 -11 45 10 67 11 12 20 28 20 35 0
7 5 13 11 13 9 0 10 23 6 80 -5 80 -5 80 33 80 27 0 44 -7 64 -26 14 -15 26
-22 26 -17 0 5 10 20 21 32 17 18 19 25 9 31 -13 8 -10 54 5 92 9 23 -21 35
-46 20 -25 -16 -56 -15 -104 4 -32 12 -44 23 -54 50 -15 42 -26 43 -51 2z m87
-130 c-3 -8 -6 -5 -6 6 -1 11 2 17 5 13 3 -3 4 -12 1 -19z m97 16 c25 -10 19
-34 -9 -34 -18 0 -25 5 -25 20 0 21 8 24 34 14z"/>
<path d="M76 373 c-10 -10 -7 -118 5 -152 12 -34 27 -38 78 -20 32 11 32 11
29 83 -2 39 -7 77 -12 84 -12 20 -26 3 -26 -34 0 -27 -4 -34 -20 -34 -14 0
-21 9 -26 35 -6 36 -16 49 -28 38z"/>
</g>
</svg>
