<svg version="1.0" xmlns="http://www.w3.org/2000/svg"
 width="71.000000pt" height="82.000000pt" viewBox="0 0 71.000000 82.000000"
 preserveAspectRatio="xMidYMid meet">
<metadata>
Created by potrace 1.15, written by Peter Selinger 2001-2017
</metadata>
<g transform="translate(0.000000,82.000000) scale(0.100000,-0.100000)"
fill="#000000" stroke="none">
<path d="M537 644 c-10 -10 -9 -92 2 -98 4 -3 6 -17 3 -31 -4 -21 -10 -25 -38
-25 -18 0 -36 -4 -39 -10 -4 -6 10 -10 34 -10 41 0 54 -13 25 -24 -9 -3 -27
-6 -40 -6 -13 0 -24 -4 -24 -10 0 -5 13 -10 29 -10 22 0 30 -5 33 -20 3 -20 3
-20 36 0 33 20 34 22 26 73 -4 29 -10 79 -13 111 -6 55 -18 76 -34 60z"/>
<path d="M392 633 c-18 -3 -23 -10 -19 -24 3 -10 1 -19 -4 -19 -15 0 -10 -47
7 -64 34 -34 74 -16 74 34 0 47 16 61 22 19 3 -16 1 -32 -4 -35 -15 -9 -8 -24
10 -24 28 0 45 40 35 81 -9 32 -12 34 -54 35 -24 1 -55 0 -67 -3z m28 -33 c0
-5 -7 -10 -16 -10 -8 0 -12 5 -9 10 3 6 10 10 16 10 5 0 9 -4 9 -10z m0 -44
c0 -3 -4 -8 -10 -11 -5 -3 -10 -1 -10 4 0 6 5 11 10 11 6 0 10 -2 10 -4z"/>
<path d="M299 623 c-4 -35 5 -191 12 -210 5 -13 5 -23 0 -23 -17 0 -20 -55 -4
-79 11 -17 13 -37 9 -67 -3 -24 -9 -64 -12 -89 -5 -36 -4 -45 9 -45 8 0 18 12
21 26 7 26 7 26 21 7 19 -28 57 -36 105 -23 55 15 50 30 -11 30 -36 0 -49 4
-46 13 2 6 19 12 38 12 47 0 56 9 55 51 -1 32 -4 37 -28 40 -15 1 -30 -1 -33
-6 -3 -4 -15 -6 -27 -2 -17 4 -20 2 -15 -11 4 -10 10 -24 13 -33 5 -12 1 -14
-20 -8 -20 5 -31 2 -41 -12 -8 -11 -15 -14 -15 -8 0 6 11 21 24 33 14 14 22
30 19 41 -4 14 5 23 38 38 42 19 69 19 69 0 0 -5 6 -8 13 -7 6 1 18 1 25 0 17
-1 52 -84 52 -122 0 -20 5 -29 16 -29 13 0 14 9 8 57 -3 32 -11 64 -17 71 -7
9 -4 17 11 28 24 17 29 53 10 72 -17 17 -38 15 -38 -4 0 -13 -3 -14 -15 -4
-18 15 -35 5 -35 -22 0 -21 0 -21 -23 0 -30 28 -34 28 -67 -8 -16 -17 -31 -27
-34 -22 -7 12 32 73 45 70 6 -2 14 3 16 11 4 9 0 11 -13 7 -11 -3 -26 -1 -34
4 -10 6 -11 10 -2 10 29 0 9 19 -25 23 -38 3 -38 3 -5 17 36 16 44 35 9 27
-40 -11 -49 4 -45 79 3 59 1 69 -14 72 -10 2 -18 0 -19 -5z m61 -268 c0 -15
-14 -35 -25 -35 -12 0 -27 45 -17 54 5 5 42 -11 42 -19z m110 -129 c0 -8 -7
-16 -15 -20 -10 -4 -15 1 -15 14 0 11 7 20 15 20 8 0 15 -6 15 -14z"/>
<path d="M87 613 c-10 -3 -16 -10 -14 -16 5 -17 148 -22 158 -5 4 6 5 16 3 20
-5 8 -116 9 -147 1z"/>
<path d="M93 530 c-46 -18 -23 -30 57 -30 44 0 80 -4 80 -8 0 -21 -29 -32 -87
-32 -49 0 -63 -3 -63 -15 0 -10 10 -15 29 -15 62 0 61 3 61 -176 0 -149 -7
-192 -24 -148 -3 9 -6 67 -6 129 0 128 -4 145 -32 145 -19 0 -20 -5 -16 -163
3 -90 9 -170 13 -177 6 -10 40 -12 156 -7 277 12 349 19 349 33 0 22 -15 24
-116 14 -71 -6 -100 -6 -105 2 -6 9 -11 8 -22 -1 -10 -7 -40 -11 -83 -9 -55 2
-69 6 -72 20 -2 10 8 22 25 30 26 12 28 18 31 78 2 36 0 98 -3 138 -6 60 -10
73 -23 70 -14 -3 -16 -19 -14 -128 2 -103 0 -122 -10 -105 -7 12 -14 66 -16
131 -4 111 -4 111 26 122 24 8 33 19 42 53 9 33 9 44 -2 50 -17 11 -147 10
-175 -1z"/>
</g>
</svg>
