<svg version="1.0" xmlns="http://www.w3.org/2000/svg"
 width="70.000000pt" height="85.000000pt" viewBox="0 0 70.000000 85.000000"
 preserveAspectRatio="xMidYMid meet">
<metadata>
Created by potrace 1.15, written by Peter Selinger 2001-2017
</metadata>
<g transform="translate(0.000000,85.000000) scale(0.100000,-0.100000)"
fill="#000000" stroke="none">
<path d="M247 650 c-13 -18 -16 -19 -27 -5 -8 10 -30 15 -61 15 -39 0 -51 -4
-63 -23 -23 -33 -15 -79 14 -94 58 -29 120 -7 120 43 0 21 3 25 12 16 8 -8 9
-23 2 -49 -9 -36 -12 -39 -84 -63 -49 -16 -75 -30 -75 -40 0 -10 8 -14 25 -13
14 2 38 4 54 5 42 4 42 -15 1 -35 -19 -9 -35 -23 -35 -32 0 -18 33 -20 59 -3
36 22 51 4 51 -62 0 -59 -1 -60 -27 -60 -43 0 -73 -11 -73 -26 0 -10 13 -14
44 -14 53 0 59 -11 48 -85 -7 -50 -7 -50 -49 -56 -53 -7 -64 -17 -38 -35 15
-11 36 -13 85 -9 124 11 141 16 138 33 -2 12 -16 18 -47 20 -42 3 -43 4 -37
34 3 17 6 45 6 63 0 24 6 35 25 45 35 19 32 40 -5 40 -29 0 -30 2 -30 44 0 25
5 48 10 51 6 3 10 15 10 26 0 24 12 24 35 -1 23 -25 58 -27 53 -2 -2 9 -13 21
-26 27 -31 14 -30 50 1 41 62 -18 77 -19 77 -3 0 18 -33 40 -85 55 -66 19 -78
32 -69 76 7 39 7 39 20 8 37 -89 151 -57 128 36 -9 36 -11 37 -57 40 -29 2
-55 -2 -64 -9 -12 -11 -17 -10 -24 4 -13 22 -25 21 -42 -3z m-52 -40 c10 -16
-15 -40 -41 -40 -17 0 -24 6 -24 19 0 25 52 42 65 21z m200 -9 c0 -7 -10 -20
-22 -28 -20 -14 -23 -14 -29 1 -10 26 4 48 28 44 13 -2 23 -9 23 -17z m-87
-119 c25 -17 -11 -72 -47 -72 -11 0 -51 39 -51 50 0 9 45 28 70 29 8 0 21 -3
28 -7z"/>
<path d="M558 650 c-18 -11 -68 -109 -68 -135 0 -8 5 -24 12 -34 9 -15 9 -25
-1 -43 -6 -13 -21 -39 -31 -58 -16 -30 -19 -57 -20 -178 0 -137 9 -190 31
-177 5 4 9 76 9 166 0 155 1 160 26 199 15 22 32 40 39 40 33 0 38 -28 34
-212 -3 -128 -1 -182 7 -185 21 -7 27 31 32 200 5 195 0 218 -59 244 -58 25
-59 47 -5 102 25 26 46 54 46 64 0 19 -25 22 -52 7z"/>
<path d="M97 300 c-35 -33 -39 -42 -27 -50 24 -16 36 -12 74 22 39 34 45 52
20 62 -23 9 -21 10 -67 -34z"/>
<path d="M340 310 c0 -21 62 -56 79 -45 19 11 12 22 -25 44 -44 26 -54 26 -54
1z"/>
<path d="M340 172 c0 -5 9 -19 20 -32 11 -13 20 -26 20 -30 0 -15 33 -21 41
-8 5 8 -3 25 -23 45 -30 31 -58 43 -58 25z"/>
<path d="M117 132 c-42 -42 -47 -62 -14 -62 27 0 67 26 67 44 0 8 7 19 15 26
22 18 18 30 -7 29 -13 -1 -40 -17 -61 -37z"/>
</g>
</svg>
