<svg version="1.0" xmlns="http://www.w3.org/2000/svg"
 width="67.000000pt" height="131.000000pt" viewBox="0 0 67.000000 131.000000"
 preserveAspectRatio="xMidYMid meet">
<metadata>
Created by potrace 1.15, written by Peter Selinger 2001-2017
</metadata>
<g transform="translate(0.000000,131.000000) scale(0.100000,-0.100000)"
fill="#000000" stroke="none">
<path d="M167 1193 c-7 -12 3 -53 13 -53 9 0 32 -51 25 -58 -3 -3 -36 -6 -74
-6 -75 -1 -87 -6 -77 -32 6 -14 18 -16 90 -12 46 3 88 3 92 -1 12 -8 36 -52
32 -57 -2 -2 -48 -6 -101 -10 -96 -7 -120 -15 -95 -31 14 -8 22 -9 151 -11 78
-2 78 -2 75 -34 -3 -33 -3 -33 -135 -36 -125 -2 -133 -4 -133 -22 0 -19 7 -20
135 -20 133 0 135 0 135 -22 0 -38 12 -68 26 -68 17 0 34 32 34 64 0 26 0 26
109 26 117 0 141 4 141 25 0 16 -30 27 -67 25 -16 -1 -62 -3 -103 -4 -74 -1
-75 -1 -78 25 -2 14 3 31 11 37 7 6 56 13 107 14 83 3 95 5 98 22 4 17 -3 18
-92 14 -111 -5 -122 -2 -105 35 15 32 7 30 102 32 117 3 138 38 25 42 -33 1
-63 4 -65 7 -3 3 6 21 21 40 30 40 26 66 -11 66 -16 0 -29 -9 -41 -31 -9 -17
-32 -56 -49 -86 -18 -31 -33 -62 -33 -69 0 -8 -7 -14 -16 -14 -8 0 -13 4 -9 9
3 5 1 12 -5 16 -5 3 -10 14 -10 24 0 13 -53 135 -64 148 -7 8 -55 13 -59 6z"/>
<path d="M492 758 c-7 -29 -14 -34 -75 -52 -52 -16 -67 -25 -67 -39 0 -16 5
-18 33 -13 17 3 49 9 70 12 50 9 99 57 95 93 -2 18 -10 27 -25 29 -18 3 -24
-3 -31 -30z"/>
<path d="M115 750 c-3 -4 2 -14 11 -21 27 -22 42 -62 48 -129 7 -64 3 -95 -28
-215 -8 -33 -15 -91 -16 -129 0 -56 6 -80 31 -135 38 -80 38 -79 50 -61 10 16
4 70 -12 101 -5 11 -13 28 -19 39 -13 25 -13 104 0 144 20 66 42 174 47 237 6
67 -3 97 -44 145 -20 22 -60 37 -68 24z"/>
<path d="M230 711 c0 -11 5 -21 10 -23 18 -6 41 -87 33 -116 -3 -15 -15 -40
-25 -57 -22 -37 -23 -45 0 -45 23 0 60 59 62 101 5 81 0 98 -32 128 -38 36
-48 38 -48 12z"/>
<path d="M40 703 c0 -4 11 -28 25 -52 14 -23 25 -52 25 -64 0 -27 -22 -89 -37
-105 -18 -19 -16 -32 5 -32 9 0 29 18 45 39 36 52 38 133 4 172 -24 28 -67 55
-67 42z"/>
<path d="M530 662 c0 -39 -12 -47 -94 -65 -75 -17 -100 -32 -76 -47 14 -9 62
-4 90 10 8 4 31 10 52 14 34 6 36 5 30 -16 -10 -40 -32 -51 -160 -79 -49 -10
-74 -30 -58 -46 4 -4 34 -1 67 6 34 7 63 10 65 8 2 -2 -1 -18 -7 -35 -7 -21
-31 -44 -74 -73 -67 -44 -77 -64 -22 -47 17 5 40 12 50 15 9 3 17 8 17 12 0 3
18 17 40 31 22 14 40 28 40 32 0 18 31 6 41 -16 9 -20 5 -36 -30 -103 -50 -97
-48 -124 13 -188 51 -53 95 -77 119 -64 25 15 21 26 -15 44 -57 27 -108 84
-108 119 0 17 37 83 58 105 38 39 34 101 -8 131 -16 11 -33 20 -39 20 -6 0
-11 11 -11 25 0 20 5 25 24 25 50 0 77 67 37 92 -14 9 -17 16 -10 24 17 21 7
88 -13 92 -14 3 -18 -3 -18 -26z"/>
<path d="M60 395 c-9 -11 -13 -54 -14 -133 -1 -96 2 -123 17 -151 29 -53 38
-27 27 80 -5 57 -6 117 -1 149 11 70 0 90 -29 55z"/>
<path d="M240 381 c-31 -59 12 -273 58 -289 18 -6 27 28 13 49 -30 50 -43 114
-37 187 5 59 3 72 -9 72 -8 0 -19 -9 -25 -19z"/>
</g>
</svg>
