<svg version="1.0" xmlns="http://www.w3.org/2000/svg"
 width="52.000000pt" height="110.000000pt" viewBox="0 0 52.000000 110.000000"
 preserveAspectRatio="xMidYMid meet">
<metadata>
Created by potrace 1.15, written by Peter Selinger 2001-2017
</metadata>
<g transform="translate(0.000000,110.000000) scale(0.100000,-0.100000)"
fill="#000000" stroke="none">
<path d="M140 1043 c0 -10 11 -36 23 -58 69 -122 74 -210 26 -450 -16 -76 -16
-223 -2 -298 18 -86 82 -214 112 -222 37 -9 45 8 25 51 -10 22 -25 50 -35 64
-34 51 -59 150 -60 242 0 48 2 92 6 98 3 6 9 23 11 38 3 15 14 62 25 106 19
76 25 165 14 216 -3 14 -8 41 -11 60 -9 50 -41 115 -71 145 -30 29 -63 33 -63
8z"/>
<path d="M394 953 c16 -144 18 -235 6 -280 -12 -42 -12 -47 5 -59 25 -18 40
-4 54 51 22 87 8 293 -22 333 -5 6 -18 12 -29 12 -19 0 -20 -4 -14 -57z"/>
<path d="M47 828 c4 -60 1 -99 -12 -143 -30 -109 -30 -105 -2 -105 43 0 61 52
60 180 -1 89 -4 111 -19 129 -10 11 -21 21 -25 21 -4 0 -5 -37 -2 -82z"/>
<path d="M384 513 c-23 -53 -22 -243 0 -298 9 -22 19 -48 23 -58 3 -9 9 -17
14 -17 5 0 9 -9 9 -20 0 -11 5 -20 10 -20 6 0 10 -6 10 -13 0 -16 32 -47 48
-47 24 0 24 47 -1 86 -13 22 -30 57 -37 79 -7 22 -17 51 -22 65 -9 21 -10 87
-4 240 2 52 -29 54 -50 3z"/>
<path d="M36 498 c-37 -130 -30 -353 15 -442 26 -54 42 -45 35 20 -13 129 -18
362 -8 380 7 13 7 26 1 37 -12 20 -38 23 -43 5z"/>
</g>
</svg>
