<svg version="1.0" xmlns="http://www.w3.org/2000/svg"
 width="76.000000pt" height="96.000000pt" viewBox="0 0 76.000000 96.000000"
 preserveAspectRatio="xMidYMid meet">
<metadata>
Created by potrace 1.15, written by Peter Selinger 2001-2017
</metadata>
<g transform="translate(0.000000,96.000000) scale(0.100000,-0.100000)"
fill="#000000" stroke="none">
<path d="M340 782 c0 -57 -9 -71 -24 -39 -14 27 -59 31 -64 4 -5 -26 18 -49
44 -44 20 3 22 1 13 -14 -5 -11 -23 -26 -39 -34 -30 -16 -41 -45 -17 -45 7 0
26 -13 41 -29 32 -34 29 -61 -7 -61 -13 0 -32 -6 -43 -14 -18 -14 -18 -15 -1
-21 32 -13 13 -85 -23 -85 -22 0 -50 25 -50 45 0 8 9 16 19 20 29 9 34 35 11
60 -25 27 -25 37 0 60 11 10 20 26 20 37 0 11 -7 18 -20 18 -26 0 -26 31 0 55
24 22 26 53 4 62 -10 4 -27 -6 -47 -26 -32 -31 -32 -31 -34 -285 -1 -153 -6
-270 -13 -295 -13 -48 -7 -61 18 -45 27 18 51 93 51 167 1 61 3 68 24 76 13 5
29 16 36 25 7 9 19 16 26 16 19 0 45 34 45 58 0 13 6 22 15 22 22 0 31 -31 13
-44 -8 -6 -22 -23 -32 -38 -22 -33 -14 -84 15 -93 24 -8 24 -17 -1 -33 -25
-15 -26 -57 -2 -72 16 -10 16 -11 -3 -23 -11 -7 -32 -25 -48 -41 -35 -36 -23
-55 21 -32 41 21 52 20 52 -3 0 -11 4 -31 10 -46 8 -22 13 -24 30 -15 14 8 20
21 20 45 0 40 1 40 41 19 32 -16 59 -13 59 6 0 13 -38 52 -65 67 -19 11 -19
12 5 31 22 17 23 23 12 46 -6 14 -18 26 -27 26 -19 0 -19 16 0 24 8 3 20 17
27 31 9 21 7 30 -17 65 -15 22 -32 40 -36 40 -5 0 -9 11 -9 25 0 34 12 31 30
-7 19 -39 45 -57 61 -41 8 8 7 17 -5 34 -15 22 -14 23 15 41 21 13 40 17 60
13 25 -6 29 -11 29 -40 0 -31 -3 -33 -46 -44 -54 -14 -49 -29 14 -46 36 -10
36 -10 48 -98 6 -48 19 -98 28 -112 19 -29 50 -35 42 -7 -17 55 -28 170 -33
347 -3 110 -9 210 -14 222 -8 21 -78 73 -99 73 -21 0 -9 -36 25 -70 45 -46 40
-70 -15 -70 -32 0 -47 8 -89 46 -38 34 -51 54 -51 74 0 24 -26 60 -43 60 -4 0
-7 -22 -7 -48z m60 -138 c0 -10 -13 -14 -42 -14 -43 1 -43 1 -13 25 30 25 55
20 55 -11z m148 -41 c46 -8 41 -43 -8 -58 -19 -5 -41 -14 -47 -18 -12 -7 -83
0 -83 9 0 3 12 23 26 45 22 36 29 40 52 34 15 -3 42 -9 60 -12z m-148 -12 c0
-10 -28 -41 -37 -41 -7 0 -32 33 -33 43 0 4 16 7 35 7 19 0 35 -4 35 -9z m-1
-223 c12 -19 11 -23 -5 -35 -23 -17 -43 -13 -58 9 -8 14 -6 21 9 32 27 21 38
20 54 -6z m18 -133 c2 -6 -3 -19 -10 -29 -10 -14 -21 -17 -40 -12 -26 6 -36
33 -20 50 10 10 66 3 70 -9z"/>
<path d="M430 755 c0 -26 32 -50 56 -41 20 8 17 44 -5 56 -33 17 -51 12 -51
-15z"/>
</g>
</svg>
