<svg version="1.0" xmlns="http://www.w3.org/2000/svg"
 width="68.000000pt" height="85.000000pt" viewBox="0 0 68.000000 85.000000"
 preserveAspectRatio="xMidYMid meet">
<metadata>
Created by potrace 1.15, written by Peter Selinger 2001-2017
</metadata>
<g transform="translate(0.000000,85.000000) scale(0.100000,-0.100000)"
fill="#000000" stroke="none">
<path d="M426 637 c-15 -11 -16 -17 -5 -39 9 -22 8 -48 -10 -143 -20 -108 -21
-118 -5 -150 9 -19 28 -40 44 -47 23 -10 29 -20 34 -57 10 -76 89 -193 118
-175 17 11 7 49 -21 79 -21 21 -33 48 -42 90 -11 57 -10 66 19 165 17 58 34
126 37 151 7 49 4 52 -72 74 -14 4 -23 14 -23 25 0 18 -27 40 -47 40 -5 0 -17
-6 -27 -13z m121 -109 c5 -7 7 -24 3 -38 -5 -21 -12 -25 -45 -25 -37 0 -40 2
-37 25 4 42 10 50 40 50 16 0 34 -6 39 -12z m-27 -129 c0 -5 -5 -30 -11 -55
-12 -48 -40 -60 -59 -25 -11 22 -14 74 -3 84 11 11 73 8 73 -4z"/>
<path d="M193 631 c-34 -3 -65 -9 -68 -13 -16 -16 5 -38 35 -38 28 0 31 -3 28
-26 -2 -20 -11 -29 -38 -38 -34 -11 -35 -12 -34 -64 3 -81 11 -86 128 -79 66
3 102 10 107 19 5 7 8 37 7 67 -3 53 -4 55 -35 63 -52 13 -43 63 12 70 22 2
30 8 30 23 0 17 -7 20 -55 21 -30 1 -83 -1 -117 -5z m57 -71 c0 -16 -4 -30
-10 -30 -11 0 -14 43 -3 53 11 12 13 8 13 -23z m77 -86 c7 -18 -7 -46 -25 -52
-8 -2 -12 9 -12 32 0 38 25 51 37 20z m-137 -29 c0 -37 -22 -49 -34 -19 -12
32 -6 54 14 54 16 0 20 -7 20 -35z m60 -6 c0 -16 -4 -29 -10 -29 -5 0 -10 16
-10 36 0 21 4 33 10 29 6 -3 10 -19 10 -36z"/>
<path d="M170 333 c-50 -6 -60 -20 -31 -42 24 -18 24 -18 -3 -53 -25 -33 -56
-126 -56 -167 0 -24 25 -46 35 -31 4 6 11 44 16 83 9 70 10 73 64 125 51 48
86 64 99 44 2 -4 -11 -28 -30 -51 -19 -24 -34 -47 -34 -52 0 -4 -15 -9 -32
-11 -40 -4 -45 -29 -8 -38 37 -9 31 -34 -9 -40 -80 -12 -27 -50 69 -50 68 0
110 13 110 34 0 11 -14 16 -47 18 -62 4 -68 31 -8 38 50 6 56 33 8 38 -45 4
-42 26 7 57 44 28 53 61 24 89 -15 16 -85 19 -174 9z"/>
</g>
</svg>
