<svg version="1.0" xmlns="http://www.w3.org/2000/svg"
 width="91.000000pt" height="65.000000pt" viewBox="0 0 91.000000 65.000000"
 preserveAspectRatio="xMidYMid meet">
<metadata>
Created by potrace 1.15, written by Peter Selinger 2001-2017
</metadata>
<g transform="translate(0.000000,65.000000) scale(0.100000,-0.100000)"
fill="#000000" stroke="none">
<path d="M643 528 c-5 -13 -8 -51 -5 -85 6 -78 -4 -133 -24 -133 -8 0 -27 -11
-42 -25 -16 -14 -37 -31 -46 -38 -14 -10 -18 -27 -17 -80 0 -36 -4 -69 -9 -72
-15 -9 19 -55 40 -55 23 0 30 20 30 84 0 61 16 101 48 115 12 6 22 7 23 3 0
-4 2 -33 3 -65 3 -67 24 -99 50 -77 12 9 16 32 16 87 0 64 2 74 16 69 9 -3 21
-6 29 -6 15 0 30 -35 46 -113 13 -62 27 -81 54 -71 12 5 15 14 11 33 -4 14 -9
58 -13 96 -5 59 -10 74 -32 93 -14 12 -36 25 -48 28 -13 4 -23 10 -23 14 0 5
-9 6 -20 3 -15 -4 -20 0 -20 14 0 21 37 57 76 75 13 6 24 17 24 25 0 23 -30
27 -67 9 -42 -20 -53 -14 -53 27 -1 28 -19 67 -32 67 -3 0 -9 -10 -15 -22z"/>
<path d="M85 477 c-4 -8 1 -31 10 -51 9 -19 14 -39 11 -44 -4 -8 -10 -227 -7
-299 1 -30 64 -61 86 -43 9 7 41 18 72 24 38 8 60 18 67 31 6 11 19 32 29 48
15 21 19 47 19 111 0 45 -5 92 -11 104 -16 31 -88 69 -144 77 -26 4 -54 14
-62 21 -7 8 -20 14 -27 14 -8 0 -19 5 -26 12 -9 9 -13 8 -17 -5z m170 -123
c16 -4 35 -13 42 -20 19 -19 16 -44 -6 -44 -11 0 -23 -4 -26 -10 -3 -5 -26
-10 -51 -10 -44 0 -44 0 -44 51 0 57 -5 55 85 33z m40 -173 c-8 -38 -30 -51
-84 -51 -38 0 -41 2 -41 29 0 22 6 31 28 39 24 10 92 20 100 15 2 -1 1 -15 -3
-32z"/>
<path d="M735 20 c-3 -5 -2 -10 4 -10 5 0 13 5 16 10 3 6 2 10 -4 10 -5 0 -13
-4 -16 -10z"/>
</g>
</svg>
