<svg version="1.0" xmlns="http://www.w3.org/2000/svg"
 width="127.000000pt" height="197.000000pt" viewBox="0 0 127.000000 197.000000"
 preserveAspectRatio="xMidYMid meet">
<metadata>
Created by potrace 1.15, written by Peter Selinger 2001-2017
</metadata>
<g transform="translate(0.000000,197.000000) scale(0.100000,-0.100000)"
fill="#000000" stroke="none">
<path d="M130 1819 c0 -22 33 -75 60 -96 8 -7 25 -13 38 -13 13 0 22 -6 22
-15 0 -8 3 -15 8 -16 4 0 16 -2 27 -4 11 -2 23 1 27 8 5 8 10 5 14 -10 4 -16
14 -23 30 -23 19 0 22 -5 21 -27 -1 -16 -6 -34 -12 -41 -32 -42 -65 -67 -111
-88 -29 -13 -55 -27 -58 -32 -10 -16 21 -34 46 -27 45 14 108 46 108 55 0 5 9
12 20 15 11 3 20 13 20 21 0 8 9 23 20 34 11 11 20 24 20 29 0 4 12 20 26 34
24 25 54 30 70 14 4 -4 22 -7 39 -7 35 0 67 -26 48 -38 -6 -4 -19 -26 -28 -49
-11 -28 -35 -56 -75 -87 -32 -25 -61 -46 -64 -46 -3 0 -31 -16 -61 -36 -40
-25 -62 -48 -77 -79 -22 -45 -22 -45 -2 -82 24 -46 63 -57 185 -50 86 6 86 6
82 -156 -2 -89 -9 -174 -15 -190 -8 -20 -7 -31 2 -42 9 -11 11 -42 6 -118 -8
-115 -24 -153 -59 -143 -25 6 -137 -22 -137 -35 0 -5 -9 -9 -20 -9 -32 0 -27
65 9 112 15 21 30 35 33 33 10 -10 68 18 68 32 0 13 -9 14 -49 9 -118 -16
-166 -62 -164 -158 2 -48 -1 -60 -17 -68 -40 -22 -77 -127 -81 -230 -2 -54 0
-66 14 -68 11 -2 19 6 23 25 4 15 19 40 34 54 18 17 30 42 34 70 4 24 15 55
26 69 18 24 18 24 35 -17 19 -47 43 -58 83 -37 19 10 22 14 10 14 -10 0 -18 4
-18 9 0 5 -9 11 -20 14 -17 4 -20 14 -20 60 0 54 0 54 38 62 20 3 57 9 82 11
25 3 50 11 56 19 6 9 15 10 24 5 11 -7 16 -37 18 -112 4 -92 1 -109 -19 -153
-24 -53 -55 -85 -98 -105 -66 -30 -76 -37 -79 -53 -2 -12 3 -17 17 -17 12 0
21 5 21 10 0 6 9 10 19 10 38 0 114 41 155 84 39 41 66 50 66 21 0 -15 84
-111 110 -125 15 -8 17 -6 12 12 -3 12 -16 33 -28 45 -12 12 -25 33 -29 45 -4
13 -15 42 -26 65 -10 24 -19 51 -19 61 0 11 -9 45 -20 78 -11 32 -20 71 -20
86 0 15 -4 29 -9 32 -17 11 -5 41 15 38 11 -2 53 -8 94 -13 99 -14 120 -24
120 -63 0 -30 -14 -51 -75 -117 -25 -27 -25 -27 8 -32 49 -8 137 60 137 105 0
16 2 17 13 6 8 -7 17 -25 20 -40 7 -28 62 -99 135 -177 23 -24 42 -47 42 -52
0 -10 40 -33 46 -27 4 5 -54 171 -76 221 -7 15 -17 27 -22 27 -4 0 -8 7 -8 16
0 17 -35 71 -60 92 -8 7 -39 24 -67 37 -43 20 -53 29 -53 50 0 14 -4 25 -10
25 -5 0 -10 7 -10 15 0 27 -82 96 -97 81 -3 -3 4 -21 16 -41 38 -66 34 -70
-79 -71 -100 -1 -100 -1 -100 40 0 23 5 96 12 164 14 143 -3 136 158 64 25
-11 62 -23 83 -27 20 -4 40 -11 43 -16 3 -5 37 -9 75 -9 81 0 84 15 6 25 -98
13 -262 80 -274 112 -4 9 -14 25 -22 35 -9 10 -14 20 -13 21 2 1 -3 20 -11 42
-19 49 -28 120 -20 157 4 21 11 28 28 28 25 0 35 -17 35 -60 0 -36 18 -77 37
-84 8 -3 27 1 43 9 35 18 94 20 107 3 5 -7 15 -31 22 -53 15 -44 29 -65 42
-65 12 0 12 55 0 78 -5 9 -14 35 -20 57 -13 41 -18 54 -45 117 -22 50 -21 52
22 67 112 38 206 90 191 106 -2 2 -29 -5 -59 -15 -59 -20 -80 -14 -80 21 0 11
-4 19 -10 19 -5 0 -10 16 -10 35 0 42 -9 43 -80 15 -67 -26 -96 -26 -111 3 -7
12 -15 24 -18 27 -19 16 -52 94 -49 117 4 33 33 41 177 47 167 8 251 23 251
45 0 13 -142 14 -150 1 -6 -9 -13 -9 -29 -1 -12 7 -27 8 -34 4 -29 -18 -241
-8 -372 17 -27 6 -72 12 -100 15 -27 3 -67 8 -87 11 -27 4 -38 3 -38 -6 0 -10
-3 -10 -15 0 -8 7 -15 19 -15 26 0 8 -11 19 -23 23 -13 5 -30 16 -38 23 -24
24 -63 48 -76 48 -7 0 -13 -9 -13 -21z m300 -163 c0 -3 -4 -8 -10 -11 -5 -3
-10 -1 -10 4 0 6 5 11 10 11 6 0 10 -2 10 -4z m174 -213 c-4 -16 -9 -41 -9
-58 -5 -79 -18 -156 -28 -162 -6 -4 -23 -8 -37 -9 -14 -2 -47 -5 -73 -9 -42
-4 -51 -2 -72 19 -16 16 -25 37 -25 55 0 28 11 38 118 110 64 44 121 80 126
80 4 1 5 -11 0 -26z m126 -41 c15 -16 35 -43 46 -60 10 -18 22 -32 26 -32 4 0
8 -8 8 -19 0 -12 -9 -21 -27 -24 -16 -3 -50 -11 -76 -17 -27 -7 -51 -9 -54 -6
-7 7 13 123 27 161 12 32 17 31 50 -3z m208 -19 c17 -37 15 -49 -10 -73 -60
-56 -133 16 -75 74 42 42 65 41 85 -1z m-78 -205 c25 -57 18 -65 -75 -80 -11
-2 -20 2 -20 9 0 6 -3 15 -7 19 -5 4 -8 24 -8 45 0 40 -5 37 78 47 7 1 21 -17
32 -40z"/>
<path d="M204 992 c-12 -9 -24 -25 -27 -34 -6 -16 0 -17 56 -12 153 15 172 19
175 35 4 21 -25 29 -113 29 -51 0 -76 -5 -91 -18z"/>
<path d="M235 847 c-85 -47 -88 -69 -7 -61 71 7 151 24 156 33 9 13 -9 27 -50
39 -53 15 -52 16 -99 -11z"/>
</g>
</svg>
