<svg version="1.0" xmlns="http://www.w3.org/2000/svg"
 width="63.000000pt" height="97.000000pt" viewBox="0 0 63.000000 97.000000"
 preserveAspectRatio="xMidYMid meet">
<metadata>
Created by potrace 1.15, written by Peter Selinger 2001-2017
</metadata>
<g transform="translate(0.000000,97.000000) scale(0.100000,-0.100000)"
fill="#000000" stroke="none">
<path d="M115 748 c-3 -13 -2 -35 3 -49 12 -30 59 -101 74 -110 7 -5 5 -26 -6
-70 -14 -56 -14 -65 -1 -86 12 -18 25 -23 55 -23 22 0 40 -1 40 -3 0 -2 -7
-25 -16 -51 -13 -39 -14 -55 -5 -86 12 -40 55 -90 77 -90 21 0 17 13 -16 55
-31 40 -39 75 -17 75 8 0 22 -16 33 -35 10 -19 22 -35 26 -35 19 0 5 41 -27
81 -19 25 -30 46 -24 48 7 2 23 -11 36 -28 14 -17 28 -29 33 -26 13 8 -1 44
-30 75 -32 34 -29 38 34 46 74 11 103 -34 49 -74 -36 -26 -22 -41 16 -19 39
23 54 21 80 -9 22 -25 41 -28 48 -7 2 6 -10 27 -26 45 -28 33 -29 37 -19 73 9
27 20 40 40 47 32 11 38 38 8 38 -11 0 -22 6 -24 13 -2 6 -10 32 -17 56 -12
41 -12 45 9 61 12 10 22 23 22 29 0 18 -25 13 -45 -9 -26 -29 -39 -25 -69 19
-30 42 -54 57 -69 42 -5 -5 11 -31 43 -66 28 -31 49 -62 46 -68 -3 -7 -9 -20
-12 -29 -8 -23 -31 -23 -118 3 -83 24 -149 54 -167 75 -7 8 -18 36 -24 62 -13
52 -31 65 -40 30z m391 -195 c-10 -10 -19 5 -10 18 6 11 8 11 12 0 2 -7 1 -15
-2 -18z m-225 -13 c12 -7 19 -21 19 -40 0 -29 -2 -30 -45 -30 -49 0 -53 6 -30
50 17 32 26 36 56 20z m157 -42 c-3 -20 -9 -23 -53 -23 -44 0 -50 3 -53 23 -3
21 0 22 53 22 53 0 56 -1 53 -22z m72 -16 c0 -26 -11 -34 -27 -21 -20 17 -16
39 7 39 13 0 20 -7 20 -18z"/>
<path d="M47 538 c-18 -6 -27 -16 -25 -27 4 -21 66 -27 93 -8 16 13 17 17 6
31 -15 18 -33 19 -74 4z"/>
<path d="M53 433 c-29 -6 -49 -31 -36 -44 11 -11 90 -3 113 11 11 7 11 11 1
24 -13 16 -33 18 -78 9z"/>
<path d="M139 332 c-44 -44 -62 -89 -54 -136 3 -22 7 -61 8 -86 2 -54 26 -62
41 -12 6 21 15 32 28 32 22 0 106 75 95 86 -4 4 -28 -8 -53 -26 -45 -32 -46
-32 -39 -9 4 13 18 44 32 67 22 39 23 43 7 40 -10 -2 -29 -19 -42 -38 -13 -19
-27 -36 -33 -38 -20 -8 -7 47 21 84 46 61 38 87 -11 36z"/>
<path d="M494 268 c9 -61 -7 -70 -33 -19 -12 22 -25 42 -30 45 -20 13 -21 -15
-1 -53 26 -52 26 -54 -10 -46 -22 5 -30 3 -30 -7 0 -22 22 -38 51 -38 24 0 29
-6 47 -57 22 -67 48 -80 45 -23 -1 19 -7 52 -14 72 -10 33 -10 40 4 56 25 27
21 65 -9 93 -27 24 -27 24 -20 -23z"/>
</g>
</svg>
