<svg version="1.0" xmlns="http://www.w3.org/2000/svg"
 width="107.000000pt" height="145.000000pt" viewBox="0 0 107.000000 145.000000"
 preserveAspectRatio="xMidYMid meet">
<metadata>
Created by potrace 1.15, written by Peter Selinger 2001-2017
</metadata>
<g transform="translate(0.000000,145.000000) scale(0.100000,-0.100000)"
fill="#000000" stroke="none">
<path d="M233 1352 c-33 -5 -29 -19 20 -67 33 -34 43 -51 45 -82 1 -21 5 -54
8 -74 5 -33 3 -37 -25 -49 -18 -7 -52 -11 -81 -8 -47 5 -50 4 -50 -18 0 -25
22 -33 100 -35 52 -2 88 10 114 39 15 18 17 30 11 83 -4 34 -3 60 1 58 5 -2
26 -11 46 -18 33 -13 38 -20 44 -56 6 -41 -10 -125 -27 -135 -4 -3 -11 -24
-15 -46 -8 -51 6 -65 85 -95 72 -26 84 -53 46 -109 -31 -46 -45 -84 -45 -125
0 -34 -13 -45 -54 -45 -12 0 -28 -6 -34 -12 -19 -19 -32 7 -32 65 0 41 -3 48
-17 45 -14 -2 -19 -15 -21 -55 -2 -29 1 -61 7 -71 8 -14 4 -25 -15 -47 -13
-15 -24 -41 -24 -56 0 -15 -5 -29 -11 -31 -6 -2 -15 -46 -20 -98 -5 -52 -12
-117 -15 -145 -6 -49 -6 -50 12 -30 11 11 25 36 32 55 53 136 54 143 49 202
-4 45 -2 62 10 74 15 14 18 13 37 -8 30 -32 61 -48 96 -48 41 0 38 11 -15 42
-51 31 -56 50 -20 66 44 20 65 14 111 -32 59 -59 59 -85 -1 -142 -52 -50 -43
-65 21 -34 35 17 46 29 51 52 6 30 6 30 19 7 15 -28 18 -63 5 -87 -16 -31 -22
-72 -11 -72 6 0 22 12 35 28 29 33 40 99 24 136 -14 30 -12 34 23 38 14 2 33
9 41 16 13 11 17 8 25 -20 6 -18 13 -64 15 -103 5 -68 31 -163 66 -234 13 -26
32 -25 27 1 -3 12 -8 52 -10 88 -9 105 -40 248 -67 304 -12 24 -15 44 -10 49
6 6 5 20 0 37 -6 15 -9 33 -7 41 2 8 -7 15 -21 17 -23 4 -24 2 -18 -37 6 -46
6 -46 -39 -29 -17 6 -40 8 -50 4 -17 -7 -16 -9 11 -23 64 -34 66 -51 13 -79
-31 -16 -31 -16 -84 40 -30 31 -54 60 -54 65 0 5 -7 14 -15 21 -10 8 -13 25
-10 54 2 22 4 47 4 54 1 17 26 15 41 -3 27 -32 38 20 24 113 -5 33 -3 42 8 42
18 0 39 -24 58 -65 27 -58 50 -75 99 -75 45 -1 47 -2 76 -52 33 -56 55 -72 55
-39 0 19 -18 65 -60 153 -16 32 -16 37 -3 42 8 3 19 3 24 0 6 -3 32 0 60 6 53
13 61 33 15 38 -21 3 -30 12 -44 45 -9 23 -15 48 -14 55 2 8 -15 12 -60 12
-60 0 -64 2 -80 31 -10 17 -18 37 -18 46 0 8 -9 28 -21 44 -11 16 -17 33 -14
39 3 5 30 10 59 10 62 0 116 9 116 20 0 10 -63 25 -170 40 -84 13 -173 31
-240 51 -19 6 -47 13 -62 16 -16 3 -28 9 -28 13 0 5 -8 11 -17 14 -10 3 -34
21 -53 39 -40 37 -55 44 -87 39z m321 -229 c3 -16 8 -71 12 -123 3 -52 8 -98
11 -102 7 -12 -53 -9 -82 4 -31 14 -32 40 -5 99 11 26 20 66 20 97 0 45 3 52
19 52 13 0 21 -9 25 -27z m107 -13 c21 -41 61 -137 78 -185 19 -55 19 -55 -30
-55 -62 0 -90 23 -96 77 -2 21 -8 62 -13 92 -16 88 -15 93 21 89 18 -2 35 -10
40 -18z m213 -232 c9 -17 16 -32 16 -33 0 -1 -12 0 -27 3 -49 8 -74 62 -29 62
18 0 29 -9 40 -32z m-77 -87 c18 -24 16 -51 -4 -51 -25 1 -60 30 -68 59 -7 22
-5 23 26 16 19 -4 39 -15 46 -24z"/>
<path d="M137 1213 c-24 -23 38 -68 85 -61 24 3 32 31 14 56 -9 12 -88 17 -99
5z"/>
<path d="M150 886 c0 -20 20 -33 60 -40 40 -7 56 0 62 28 3 17 -4 20 -59 23
-49 2 -63 0 -63 -11z"/>
</g>
</svg>
