<svg version="1.0" xmlns="http://www.w3.org/2000/svg"
 width="131.000000pt" height="181.000000pt" viewBox="0 0 131.000000 181.000000"
 preserveAspectRatio="xMidYMid meet">
<metadata>
Created by potrace 1.15, written by Peter Selinger 2001-2017
</metadata>
<g transform="translate(0.000000,181.000000) scale(0.100000,-0.100000)"
fill="#000000" stroke="none">
<path d="M875 1738 c-2 -7 -11 -38 -20 -69 -9 -31 -25 -67 -36 -80 -12 -13
-28 -36 -36 -50 -20 -34 -93 -69 -144 -69 -52 0 -102 22 -125 54 -11 15 -27
36 -36 47 -17 21 -17 21 -24 -5 -6 -24 15 -64 52 -103 22 -23 79 -53 102 -53
23 0 62 -50 62 -81 0 -18 -109 -79 -140 -79 -25 0 -36 -20 -19 -31 34 -22 134
-6 166 26 33 33 45 -16 16 -63 -10 -15 -20 -29 -24 -32 -13 -10 -38 -77 -44
-117 -8 -50 19 -120 57 -149 25 -18 25 -18 -2 -69 -37 -69 -54 -159 -46 -247
3 -40 9 -124 13 -185 6 -113 6 -113 -25 -113 -39 0 -123 21 -138 35 -6 5 -18
22 -28 37 -24 36 -8 68 34 68 30 0 140 48 140 61 0 13 -45 18 -85 9 -22 -5
-50 -10 -63 -10 -22 0 -22 1 -7 29 43 84 101 151 130 151 8 0 15 5 15 10 0 13
-1 12 -58 -2 -26 -6 -58 -18 -72 -27 -14 -9 -36 -22 -50 -29 -26 -14 -70 -73
-70 -95 0 -8 -3 -17 -7 -21 -5 -4 -8 -24 -9 -44 -3 -108 -30 -229 -64 -281
-30 -47 -44 -59 -118 -97 -55 -28 -42 -36 37 -22 52 10 70 19 111 57 47 44 90
108 90 134 0 26 17 39 36 29 43 -23 104 -34 152 -28 32 4 53 2 58 -5 3 -6 7
-42 9 -80 2 -74 11 -94 35 -79 12 8 15 42 14 199 0 190 0 190 25 184 29 -7 87
-36 114 -56 22 -18 22 -50 0 -68 -15 -13 -16 -12 -11 8 4 13 2 23 -3 23 -5 0
-9 -13 -9 -29 0 -32 -14 -41 -67 -41 -27 0 -34 -4 -31 -18 5 -26 95 -29 140
-4 27 16 36 17 46 6 6 -7 12 -17 12 -22 0 -35 96 -142 127 -142 7 0 13 -3 13
-8 0 -4 26 -16 58 -28 93 -34 122 -43 122 -37 0 10 -61 62 -81 68 -10 4 -19
10 -19 15 0 5 -9 12 -20 15 -20 6 -65 48 -100 91 -27 34 -49 88 -56 142 -3 29
-11 55 -15 58 -5 3 -9 15 -9 26 0 28 -22 89 -37 105 -6 7 -13 17 -15 22 -1 5
-32 27 -67 50 -61 39 -101 52 -101 32 0 -12 55 -58 79 -66 19 -6 52 -66 65
-117 6 -28 -1 -36 -20 -20 -18 16 -92 34 -122 30 -27 -4 -30 -1 -35 26 -3 17
-3 67 0 111 4 67 12 94 45 163 30 61 45 82 59 82 17 0 51 12 222 76 48 18 44
19 63 -18 16 -31 16 -32 -9 -52 -50 -40 -38 -149 19 -175 14 -6 39 -11 55 -11
33 0 59 -20 59 -45 0 -9 4 -14 9 -11 5 4 5 18 -2 35 -9 23 -8 32 6 45 8 9 19
25 22 36 3 11 10 20 15 20 9 0 -1 44 -20 90 -6 15 -27 32 -50 42 -40 16 -40
17 -40 72 0 52 2 57 27 69 15 6 42 28 60 47 28 29 33 42 33 82 0 55 -16 95
-41 103 -13 4 -19 18 -21 48 -3 42 -3 42 -22 5 -10 -21 -25 -38 -33 -38 -8 0
-30 -15 -50 -34 -29 -27 -36 -41 -38 -77 -1 -24 4 -56 11 -71 20 -39 19 -39
-32 -18 -25 11 -50 20 -56 20 -6 0 -18 9 -27 19 -9 10 -51 36 -93 56 -82 40
-90 50 -127 166 -16 52 -14 65 16 84 93 61 169 209 149 289 -7 27 -24 35 -31
14z m280 -525 c-8 -14 -17 -44 -21 -67 -6 -37 -7 -39 -20 -21 -18 24 -10 68
19 101 26 30 40 22 22 -13z m71 -29 c4 -24 0 -37 -19 -60 -27 -31 -49 -26 -29
6 7 11 12 31 12 44 0 61 24 68 36 10z m-448 -91 c11 -49 -2 -118 -29 -154 -18
-24 -18 -24 -40 -2 -36 36 -32 106 10 167 18 26 37 44 42 39 4 -4 12 -27 17
-50z m113 -1 c13 -10 38 -24 54 -32 33 -16 65 -40 65 -49 0 -14 -168 -86 -178
-77 -2 3 1 13 7 24 6 12 11 50 11 86 0 36 4 66 9 66 4 0 19 -8 32 -18z m319
-289 c0 -18 -4 -33 -9 -33 -21 0 -45 59 -34 86 10 26 43 -14 43 -53z m-60 -60
c0 -21 -18 -15 -36 12 -11 17 -14 34 -9 52 7 28 7 28 26 -11 10 -22 19 -46 19
-53z"/>
</g>
</svg>
