<svg version="1.0" xmlns="http://www.w3.org/2000/svg"
 width="75.000000pt" height="199.000000pt" viewBox="0 0 75.000000 199.000000"
 preserveAspectRatio="xMidYMid meet">
<metadata>
Created by potrace 1.15, written by Peter Selinger 2001-2017
</metadata>
<g transform="translate(0.000000,199.000000) scale(0.100000,-0.100000)"
fill="#000000" stroke="none">
<path d="M203 1913 c-42 -16 35 -37 153 -42 20 -1 43 -12 62 -29 25 -23 30
-37 35 -92 15 -150 27 -569 18 -575 -13 -7 -38 22 -49 55 -6 19 -13 98 -16
175 -4 77 -9 156 -13 175 -6 35 -30 73 -42 66 -3 -2 -3 -48 1 -103 4 -54 11
-150 14 -213 4 -67 12 -126 20 -142 15 -29 68 -73 87 -73 17 0 21 -33 7 -50
-8 -9 -30 -15 -57 -15 -37 0 -44 -3 -41 -17 2 -14 15 -19 56 -21 52 -3 52 -3
52 -96 0 -59 -4 -96 -12 -104 -8 -8 -12 -41 -11 -93 2 -66 6 -84 21 -98 17
-14 20 -36 26 -184 6 -167 6 -167 -19 -167 -23 0 -25 4 -25 44 0 25 -4 48 -10
51 -5 3 -10 22 -10 42 0 46 -27 139 -47 159 -11 11 -19 12 -27 4 -8 -8 -8 -13
0 -18 11 -7 24 -54 43 -147 6 -27 12 -98 14 -156 5 -153 36 -197 128 -183 20
4 49 16 64 28 27 22 28 26 37 167 5 79 13 160 18 179 5 19 11 47 15 62 3 15
12 33 20 42 19 19 19 42 0 50 -40 15 -95 -124 -95 -241 0 -58 -2 -64 -25 -75
-14 -6 -28 -9 -31 -6 -11 12 -17 337 -7 350 20 24 38 127 25 140 -7 7 -12 19
-12 28 0 8 -9 21 -19 27 -16 10 -19 25 -20 104 -1 100 3 109 52 109 16 0 27 5
27 14 0 16 -21 26 -56 26 -37 0 -34 53 5 89 30 28 30 28 30 204 1 109 5 186
12 201 9 19 9 32 -1 56 -7 16 -16 30 -20 30 -18 0 -30 -109 -30 -260 0 -154
-4 -190 -20 -190 -14 0 -20 84 -25 348 -7 341 -9 344 -176 362 -103 11 -108
11 -126 3z m407 -1707 c0 -38 -10 -56 -42 -72 -45 -23 -75 -12 -80 31 -5 42 4
52 52 58 70 8 70 8 70 -17z"/>
<path d="M50 1716 c0 -47 27 -215 40 -254 7 -18 10 -41 7 -52 -3 -11 -1 -20 4
-20 18 0 8 -33 -22 -71 -22 -29 -32 -53 -36 -93 -5 -49 -3 -58 25 -98 31 -44
35 -76 46 -358 1 -19 5 -40 9 -47 4 -6 7 -151 8 -322 0 -171 4 -311 8 -311 13
0 26 202 18 275 -4 39 -5 115 -1 170 4 55 7 109 7 120 -2 75 -3 172 -2 185 1
8 -2 133 -6 278 -8 259 -8 262 12 262 22 0 29 -36 39 -182 2 -31 6 -69 8 -85
3 -15 7 -95 11 -178 3 -82 10 -172 15 -200 5 -27 14 -151 21 -275 13 -260 17
-313 19 -320 1 -3 1 -13 0 -24 -3 -29 9 -66 21 -66 11 0 6 221 -7 320 -4 33
-8 145 -21 563 -5 167 -4 179 16 213 30 51 28 110 -8 166 -16 25 -34 49 -40
52 -16 10 -13 42 7 84 10 20 24 64 31 97 7 33 19 79 27 101 18 51 10 90 -19
98 -12 3 -70 5 -129 5 -108 1 -108 1 -108 -33z m200 -51 c0 -36 0 -36 -67 -33
-63 3 -68 5 -71 27 -5 32 12 41 81 41 57 0 57 0 57 -35z m-22 -92 c3 -21 -1
-23 -42 -23 -25 0 -49 0 -53 -1 -5 0 -9 7 -11 16 -4 18 24 30 70 30 27 0 34
-4 36 -22z m-8 -70 c0 -17 -16 -30 -42 -36 -31 -8 -45 7 -28 28 13 15 70 21
70 8z"/>
</g>
</svg>
