<svg version="1.0" xmlns="http://www.w3.org/2000/svg"
 width="64.000000pt" height="128.000000pt" viewBox="0 0 64.000000 128.000000"
 preserveAspectRatio="xMidYMid meet">
<metadata>
Created by potrace 1.15, written by Peter Selinger 2001-2017
</metadata>
<g transform="translate(0.000000,128.000000) scale(0.100000,-0.100000)"
fill="#000000" stroke="none">
<path d="M169 1168 c-47 -50 -57 -77 -64 -174 -3 -49 -8 -100 -11 -113 -5 -22
-6 -23 -19 -5 -10 13 -14 46 -15 101 0 90 -5 113 -26 113 -11 0 -14 -17 -15
-67 -2 -161 8 -213 41 -213 10 0 22 -6 28 -12 12 -16 16 -248 4 -248 -4 0 -16
6 -25 13 -13 9 -19 34 -24 110 -5 85 -8 97 -25 97 -16 0 -18 -9 -18 -89 0 -49
5 -102 10 -117 12 -30 42 -60 70 -69 16 -5 17 -20 12 -199 -4 -151 -2 -195 8
-201 8 -5 18 -1 27 10 10 14 13 64 13 201 0 157 2 183 16 188 9 3 20 4 25 0
11 -6 31 12 48 45 21 38 16 205 -6 236 -10 13 -20 25 -23 25 -3 0 -6 -44 -6
-97 -2 -104 -14 -153 -39 -153 -13 0 -15 19 -15 120 0 120 0 120 33 133 45 20
62 43 76 107 16 71 11 140 -11 154 -25 15 -29 6 -34 -76 -5 -75 -31 -155 -46
-140 -15 15 -18 95 -6 167 8 54 18 77 39 100 28 30 40 85 19 85 -5 0 -24 -15
-41 -32z"/>
<path d="M365 1105 c-22 -8 -41 -15 -41 -15 -7 -1 -14 -97 -9 -124 10 -48 69
-76 162 -76 65 0 69 1 96 34 22 28 27 45 27 88 -1 83 -19 100 -116 105 -54 2
-92 -2 -119 -12z m130 -34 c35 -5 40 -10 43 -35 2 -15 -2 -41 -8 -56 -10 -23
-19 -29 -53 -33 -83 -8 -136 38 -106 94 21 41 33 49 59 42 14 -3 43 -9 65 -12z"/>
<path d="M400 822 c0 -5 -12 -15 -27 -23 -87 -45 -97 -71 -95 -258 2 -170 14
-231 45 -231 18 0 19 5 13 63 -18 167 -19 187 -7 187 6 0 11 -4 11 -8 0 -5 8
-17 18 -28 23 -26 54 -73 71 -106 8 -16 18 -28 22 -28 26 0 12 82 -21 120 -11
13 -20 26 -20 30 0 11 -33 45 -62 64 -28 18 -37 49 -18 61 6 3 10 15 10 26 0
48 67 7 106 -65 27 -48 52 -72 65 -59 26 26 -28 111 -97 154 -19 11 -34 25
-34 30 0 5 16 15 35 23 71 30 144 -21 147 -104 6 -195 -11 -277 -73 -345 -87
-96 -87 -96 -99 -167 -10 -55 -10 -80 0 -110 11 -39 12 -39 31 -22 15 14 19
31 19 91 0 71 15 115 45 135 25 16 95 88 95 98 0 6 7 25 16 42 20 38 34 218
21 268 -22 90 -40 121 -82 145 -41 25 -135 36 -135 17z"/>
</g>
</svg>
