<svg version="1.0" xmlns="http://www.w3.org/2000/svg"
 width="65.000000pt" height="86.000000pt" viewBox="0 0 65.000000 86.000000"
 preserveAspectRatio="xMidYMid meet">
<metadata>
Created by potrace 1.15, written by Peter Selinger 2001-2017
</metadata>
<g transform="translate(0.000000,86.000000) scale(0.100000,-0.100000)"
fill="#000000" stroke="none">
<path d="M182 698 c-5 -7 -13 -35 -16 -61 -9 -57 -35 -62 -48 -9 -11 43 -34
36 -30 -9 2 -36 32 -69 61 -69 10 0 22 -14 30 -36 7 -19 11 -36 9 -38 -1 -1
-20 -9 -40 -18 -63 -29 -75 -67 -79 -250 -4 -162 2 -188 35 -175 13 5 16 27
16 131 0 136 12 214 38 246 32 40 252 53 252 16 0 -23 -27 -37 -96 -49 -61
-11 -67 -10 -80 8 -19 26 -27 14 -32 -50 -3 -42 -1 -55 9 -56 8 -1 55 -2 105
-3 59 0 97 -6 107 -14 9 -8 24 -12 34 -10 14 3 11 8 -17 28 -30 21 -49 26
-122 28 -87 4 -114 15 -60 26 15 3 53 10 85 16 32 6 62 17 67 23 6 7 18 23 28
36 16 20 21 22 40 12 46 -24 54 -62 51 -220 -4 -136 -3 -146 15 -149 32 -7 37
18 30 156 -10 212 -35 272 -110 272 -19 0 -34 5 -34 11 0 20 40 68 63 75 27 8
87 63 87 81 0 21 -25 15 -50 -12 -33 -35 -44 -31 -36 14 10 67 -35 64 -52 -3
-10 -38 -32 -40 -50 -3 -22 46 -48 29 -37 -24 5 -20 16 -34 33 -42 15 -6 29
-12 31 -14 2 -2 -4 -19 -15 -38 -15 -28 -24 -35 -44 -33 -20 2 -26 10 -30 38
-3 22 -10 35 -20 35 -10 0 -17 -13 -20 -35 -4 -30 -9 -35 -34 -38 -49 -6 -66
54 -21 78 24 13 55 65 55 94 0 24 -28 19 -32 -5 -2 -12 -14 -29 -27 -37 -23
-16 -23 -16 -16 36 6 42 4 52 -8 52 -8 0 -19 -6 -25 -12z"/>
<path d="M210 200 c-38 -41 -49 -109 -25 -146 17 -26 17 -26 129 -22 61 2 121
10 133 16 21 12 22 17 17 75 -10 95 -26 107 -137 107 -86 0 -90 -1 -117 -30z
m170 -15 c0 -2 -14 -12 -31 -20 -28 -15 -33 -15 -55 0 -13 8 -24 18 -24 20 0
3 25 5 55 5 30 0 55 -2 55 -5z m50 -55 c0 -38 -15 -46 -46 -25 -29 19 -27 35
6 52 31 15 40 9 40 -27z m-160 12 c21 -17 21 -19 5 -35 -9 -9 -25 -17 -36 -17
-15 0 -19 7 -19 35 0 40 15 45 50 17z m70 -62 c0 -5 -12 -10 -26 -10 -14 0
-23 4 -19 10 3 6 15 10 26 10 10 0 19 -4 19 -10z"/>
</g>
</svg>
