<svg version="1.0" xmlns="http://www.w3.org/2000/svg"
 width="65.000000pt" height="85.000000pt" viewBox="0 0 65.000000 85.000000"
 preserveAspectRatio="xMidYMid meet">
<metadata>
Created by potrace 1.15, written by Peter Selinger 2001-2017
</metadata>
<g transform="translate(0.000000,85.000000) scale(0.100000,-0.100000)"
fill="#000000" stroke="none">
<path d="M118 590 c-30 -19 -22 -40 15 -40 33 0 67 -24 67 -48 0 -6 -12 -19
-27 -29 -52 -32 -53 -34 -53 -235 0 -103 4 -188 9 -188 5 0 15 7 22 17 11 12
13 54 12 184 -3 168 -3 168 31 179 36 12 56 46 53 90 -2 24 0 25 64 28 37 2
88 -1 115 -5 40 -7 49 -13 54 -33 11 -42 -5 -50 -104 -50 -60 0 -98 -5 -110
-13 -25 -18 -35 -82 -36 -229 0 -125 0 -127 26 -147 24 -19 40 -21 153 -21 95
1 131 4 145 15 35 26 5 34 -134 37 -135 3 -135 3 -144 96 -4 51 -6 96 -2 99 3
3 68 9 143 12 113 5 138 9 138 21 0 13 -22 15 -140 15 -140 0 -140 0 -137 25
5 42 21 49 130 53 63 2 107 8 115 16 6 6 12 32 12 57 0 63 -24 81 -118 88
-179 14 -283 16 -299 6z"/>
<path d="M328 223 c-54 -14 26 -34 126 -32 68 2 108 11 114 27 3 9 -23 12
-110 11 -62 -1 -121 -3 -130 -6z"/>
</g>
</svg>
