<svg version="1.0" xmlns="http://www.w3.org/2000/svg"
 width="71.000000pt" height="79.000000pt" viewBox="0 0 71.000000 79.000000"
 preserveAspectRatio="xMidYMid meet">
<metadata>
Created by potrace 1.15, written by Peter Selinger 2001-2017
</metadata>
<g transform="translate(0.000000,79.000000) scale(0.100000,-0.100000)"
fill="#000000" stroke="none">
<path d="M501 646 c-7 -9 -9 -29 -5 -54 3 -23 4 -53 0 -67 -5 -21 -12 -25 -45
-25 -44 0 -85 -32 -56 -44 9 -3 36 -6 60 -6 30 0 45 -5 49 -16 3 -9 6 -85 6
-170 0 -172 6 -160 -80 -166 -24 -2 -36 -8 -38 -20 -3 -16 8 -18 120 -18 132
0 161 7 139 34 -9 10 -30 16 -57 16 -44 0 -44 0 -44 170 0 170 0 170 33 170
41 0 62 13 54 34 -4 11 -19 16 -47 16 -40 0 -40 0 -40 61 0 83 -21 119 -49 85z"/>
<path d="M265 624 c-6 -2 -44 -7 -85 -12 -66 -6 -75 -9 -75 -27 0 -22 -6 -22
138 -9 55 5 80 11 84 21 9 24 -30 41 -62 27z"/>
<path d="M181 481 c-67 -4 -106 -10 -108 -18 -7 -21 35 -35 83 -27 45 6 45 6
43 -196 -1 -127 3 -206 9 -212 27 -27 32 7 32 207 0 229 -7 210 75 217 19 2
30 9 30 18 0 18 -18 19 -164 11z"/>
<path d="M310 232 c0 -155 2 -172 20 -193 20 -24 20 -24 17 166 -2 172 -4 190
-19 193 -17 3 -18 -10 -18 -166z"/>
<path d="M96 355 c-8 -21 -8 -278 0 -299 3 -9 13 -16 20 -16 12 0 14 28 12
162 -2 108 -7 163 -14 165 -6 2 -14 -3 -18 -12z"/>
</g>
</svg>
