<svg version="1.0" xmlns="http://www.w3.org/2000/svg"
 width="81.000000pt" height="147.000000pt" viewBox="0 0 81.000000 147.000000"
 preserveAspectRatio="xMidYMid meet">
<metadata>
Created by potrace 1.15, written by Peter Selinger 2001-2017
</metadata>
<g transform="translate(0.000000,147.000000) scale(0.100000,-0.100000)"
fill="#000000" stroke="none">
<path d="M381 1289 c-30 -18 -35 -19 -50 -5 -10 9 -27 13 -41 10 -116 -25
-145 -44 -66 -44 36 0 46 -4 51 -20 3 -11 16 -25 27 -31 17 -9 18 -13 7 -20
-8 -5 -26 -9 -41 -9 -31 0 -47 -18 -27 -31 20 -13 29 -11 29 5 0 19 87 33 103
17 8 -8 7 -11 -5 -11 -9 0 -18 -3 -20 -7 -1 -5 -25 -20 -53 -35 -50 -27 -50
-27 -57 -89 -4 -34 -13 -69 -21 -78 -19 -21 -12 -36 29 -61 38 -24 43 -48 18
-95 -40 -74 -44 -85 -39 -108 10 -39 75 -58 75 -21 0 8 7 14 15 14 10 0 15 10
15 30 0 23 -4 30 -20 30 -22 0 -26 -10 -10 -26 7 -7 5 -17 -5 -30 -13 -16 -16
-17 -25 -4 -14 21 -12 56 3 72 36 36 48 99 26 140 -14 26 2 38 51 37 19 0 65
3 103 7 67 7 67 7 67 -62 0 -38 2 -148 5 -244 2 -96 4 -189 5 -206 0 -17 6
-48 13 -70 8 -21 12 -44 10 -50 -5 -15 45 -129 53 -121 4 4 2 19 -3 34 -36 97
-53 216 -53 367 0 69 2 126 5 126 4 0 19 -7 35 -15 45 -23 100 6 100 54 0 25
-33 91 -45 91 -4 0 -4 -4 -1 -9 9 -14 -35 -90 -56 -97 -32 -10 -38 5 -38 107
0 99 0 99 43 100 23 0 51 4 62 9 15 7 10 9 -25 9 -84 -1 -80 -4 -80 51 0 47
11 63 25 40 14 -23 84 -8 122 27 22 20 15 68 -14 97 -17 17 -29 23 -31 16 -2
-6 1 -17 7 -23 13 -13 14 -37 2 -56 -8 -12 -12 -12 -25 -2 -10 9 -29 11 -52 8
-36 -6 -36 -6 -33 90 2 69 0 98 -9 101 -7 2 -12 0 -12 -5 -7 -193 -13 -339
-15 -341 -1 -1 -43 -4 -93 -6 -66 -3 -94 -1 -102 9 -14 16 4 30 50 40 49 10
97 41 104 68 16 61 0 85 -32 48 -12 -14 -36 -21 -87 -26 -64 -6 -68 -5 -50 9
11 8 25 16 30 16 6 0 21 9 35 20 14 11 37 20 51 20 37 0 54 25 52 76 -3 82
-30 101 -92 63z m55 -26 c7 -10 14 -33 14 -50 0 -26 -4 -33 -19 -33 -44 0 -70
68 -33 89 23 14 23 14 38 -6z m14 -202 c0 -17 -31 -34 -95 -51 -67 -18 -85
-13 -85 22 0 15 9 18 58 18 31 0 64 5 72 10 19 12 50 13 50 1z"/>
<path d="M407 1253 c-13 -12 -7 -43 8 -43 9 0 15 9 15 25 0 24 -10 32 -23 18z"/>
<path d="M668 1293 c-21 -24 -31 -60 -19 -67 5 -4 13 3 16 15 4 12 19 32 34
45 25 22 25 23 5 24 -11 0 -28 -8 -36 -17z"/>
<path d="M645 879 c-11 -16 -2 -17 25 -2 24 12 24 13 3 13 -12 0 -25 -5 -28
-11z"/>
<path d="M190 814 c0 -8 5 -12 10 -9 6 3 10 10 10 16 0 5 -4 9 -10 9 -5 0 -10
-7 -10 -16z"/>
<path d="M420 760 c-12 -8 -10 -10 8 -10 31 0 24 -20 -14 -40 -29 -17 -29 -17
-25 -148 4 -151 -10 -245 -48 -323 -23 -48 -30 -55 -66 -62 -79 -17 -105 -34
-105 -67 0 -23 6 -33 23 -39 51 -19 178 27 175 63 -1 12 4 44 10 71 6 28 16
71 22 97 5 26 10 123 10 215 0 169 0 169 30 186 32 19 37 36 18 55 -14 14 -19
15 -38 2z"/>
</g>
</svg>
