<svg version="1.0" xmlns="http://www.w3.org/2000/svg"
 width="67.000000pt" height="119.000000pt" viewBox="0 0 67.000000 119.000000"
 preserveAspectRatio="xMidYMid meet">
<metadata>
Created by potrace 1.15, written by Peter Selinger 2001-2017
</metadata>
<g transform="translate(0.000000,119.000000) scale(0.100000,-0.100000)"
fill="#000000" stroke="none">
<path d="M233 933 c-29 -5 -29 -14 -2 -31 21 -13 21 -19 15 -155 -3 -78 -8
-155 -10 -172 -3 -16 -7 -97 -10 -180 -3 -82 -8 -172 -12 -198 -7 -49 -7 -49
-43 -42 -20 4 -40 7 -45 8 -6 1 -11 -5 -13 -14 -5 -20 110 -69 160 -69 69 0
102 22 50 33 -56 12 -55 12 -54 188 1 90 4 180 7 199 2 19 7 61 10 93 3 31 10
57 15 57 5 0 9 -4 9 -8 0 -18 83 -52 128 -52 52 0 129 34 138 62 16 51 -91
158 -159 158 -40 0 -97 -18 -97 -31 0 -9 4 -10 50 -13 53 -4 135 -72 123 -102
-11 -28 -114 -12 -151 23 -7 7 -20 17 -29 22 -13 7 -18 29 -21 95 -4 85 -4 86
22 96 62 23 0 49 -81 33z"/>
</g>
</svg>
