<svg version="1.0" xmlns="http://www.w3.org/2000/svg"
 width="79.000000pt" height="79.000000pt" viewBox="0 0 79.000000 79.000000"
 preserveAspectRatio="xMidYMid meet">
<metadata>
Created by potrace 1.15, written by Peter Selinger 2001-2017
</metadata>
<g transform="translate(0.000000,79.000000) scale(0.100000,-0.100000)"
fill="#000000" stroke="none">
<path d="M682 718 c-14 -14 -16 -35 -3 -42 14 -9 29 17 22 37 -5 14 -9 15 -19
5z"/>
<path d="M200 710 c-8 -5 -11 -12 -8 -16 4 -3 14 1 23 10 18 17 9 21 -15 6z"/>
<path d="M210 676 c0 -2 7 -9 15 -16 13 -11 14 -10 9 4 -5 14 -24 23 -24 12z"/>
<path d="M315 641 c-40 -19 -71 -58 -64 -79 3 -7 24 -1 52 14 49 24 91 29 161
17 51 -8 106 -62 106 -104 0 -26 -3 -30 -17 -24 -27 11 -78 14 -92 6 -9 -6 -5
-13 13 -24 14 -10 28 -17 31 -17 3 0 23 -11 45 -25 36 -23 40 -29 40 -68 0
-36 -4 -45 -27 -60 -33 -20 -93 -72 -93 -81 0 -9 35 -7 45 3 6 4 25 13 43 19
32 11 32 11 32 -79 0 -49 4 -89 8 -89 5 0 16 6 26 13 14 10 18 27 17 81 0 68
0 68 32 62 90 -19 97 -19 97 -1 0 20 -32 51 -61 60 -11 4 -19 11 -19 16 0 5
-9 9 -20 9 -23 0 -36 37 -26 74 3 14 24 46 46 71 36 41 51 75 34 75 -4 0 -22
-9 -40 -20 -33 -21 -33 -21 -43 17 -6 21 -11 48 -11 61 0 29 -34 62 -63 62
-13 0 -27 4 -33 10 -5 5 -48 12 -94 15 -72 5 -91 3 -125 -14z"/>
<path d="M240 633 c0 -7 -8 -13 -17 -14 -12 -1 -9 -4 7 -8 31 -10 35 -7 21 16
-6 10 -11 12 -11 6z"/>
<path d="M530 500 c0 -5 5 -10 10 -10 6 0 10 5 10 10 0 6 -4 10 -10 10 -5 0
-10 -4 -10 -10z"/>
<path d="M357 413 c-2 -4 -10 -32 -18 -61 -14 -57 -50 -102 -81 -102 -40 0
-80 63 -71 112 4 23 2 26 -25 24 -24 -2 -70 -29 -116 -68 -5 -4 -4 -13 3 -22
11 -14 16 -14 41 -1 31 16 40 11 40 -19 0 -12 9 -28 20 -36 25 -18 25 -30 -2
-84 -22 -42 -38 -56 -80 -70 -31 -9 -20 -34 19 -45 20 -6 40 -8 45 -5 5 3 28
8 51 10 23 2 51 6 62 9 11 2 54 7 95 11 41 3 79 10 84 15 6 5 18 9 27 9 17 0
32 23 22 34 -4 3 -23 6 -44 6 -41 0 -45 5 -59 80 -6 29 -5 58 2 83 11 37 11
37 65 37 46 0 53 2 53 20 0 11 -7 20 -15 20 -8 0 -15 3 -15 8 0 19 -93 51
-103 35z m-32 -270 c5 -16 2 -23 -14 -28 -25 -8 -100 -9 -107 -2 -3 3 -2 21 1
41 6 32 12 37 54 49 46 13 46 13 53 -13 3 -14 9 -35 13 -47z"/>
</g>
</svg>
