<svg version="1.0" xmlns="http://www.w3.org/2000/svg"
 width="69.000000pt" height="61.000000pt" viewBox="0 0 69.000000 61.000000"
 preserveAspectRatio="xMidYMid meet">
<metadata>
Created by potrace 1.15, written by Peter Selinger 2001-2017
</metadata>
<g transform="translate(0.000000,61.000000) scale(0.100000,-0.100000)"
fill="#000000" stroke="none">
<path d="M326 417 c-13 -24 -39 -58 -55 -76 -17 -18 -31 -36 -31 -41 0 -4 -10
-18 -21 -31 -12 -13 -33 -40 -48 -59 -14 -19 -29 -37 -32 -40 -14 -11 -60 -92
-55 -97 19 -19 146 69 146 101 0 6 9 18 20 26 11 8 20 19 20 25 0 6 8 20 18
31 10 10 30 40 45 67 15 26 32 47 37 47 6 0 29 -19 52 -41 24 -23 70 -60 103
-82 33 -22 62 -43 65 -47 15 -19 40 -18 51 2 11 20 7 26 -36 65 -27 24 -55 43
-62 43 -7 0 -13 4 -13 8 0 4 -12 15 -27 25 -41 24 -93 73 -93 86 0 9 -39 31
-55 31 -2 0 -15 -20 -29 -43z"/>
</g>
</svg>
