<svg version="1.0" xmlns="http://www.w3.org/2000/svg"
 width="49.000000pt" height="59.000000pt" viewBox="0 0 49.000000 59.000000"
 preserveAspectRatio="xMidYMid meet">
<metadata>
Created by potrace 1.15, written by Peter Selinger 2001-2017
</metadata>
<g transform="translate(0.000000,59.000000) scale(0.100000,-0.100000)"
fill="#000000" stroke="none">
<path d="M214 283 c-8 -37 -22 -79 -45 -130 -20 -44 -25 -93 -11 -93 9 0 52
76 52 92 0 12 25 38 37 38 4 0 24 -30 43 -68 20 -39 43 -68 53 -70 15 -3 17 1
11 25 -4 15 -14 44 -24 63 -10 19 -32 65 -50 103 -35 71 -56 84 -66 40z"/>
</g>
</svg>
