<svg version="1.0" xmlns="http://www.w3.org/2000/svg"
 width="57.000000pt" height="69.000000pt" viewBox="0 0 57.000000 69.000000"
 preserveAspectRatio="xMidYMid meet">
<metadata>
Created by potrace 1.15, written by Peter Selinger 2001-2017
</metadata>
<g transform="translate(0.000000,69.000000) scale(0.100000,-0.100000)"
fill="#000000" stroke="none">
<path d="M258 408 c-4 -75 -9 -92 -54 -178 -26 -52 -54 -108 -61 -123 -19 -43
4 -29 30 18 12 22 26 44 30 50 4 5 24 36 43 68 36 58 36 58 70 10 42 -59 88
-116 133 -163 25 -26 36 -31 39 -20 3 7 0 16 -6 18 -7 2 -12 9 -12 15 0 7 -27
48 -60 92 -33 44 -63 85 -67 91 -25 33 -33 59 -33 107 0 43 -5 58 -24 76 -23
22 -23 22 -28 -61z"/>
</g>
</svg>
