<svg version="1.0" xmlns="http://www.w3.org/2000/svg"
 width="67.000000pt" height="80.000000pt" viewBox="0 0 67.000000 80.000000"
 preserveAspectRatio="xMidYMid meet">
<metadata>
Created by potrace 1.15, written by Peter Selinger 2001-2017
</metadata>
<g transform="translate(0.000000,80.000000) scale(0.100000,-0.100000)"
fill="#000000" stroke="none">
<path d="M233 643 c-7 -3 -13 -16 -13 -29 0 -21 -4 -24 -39 -24 -49 0 -71 -8
-71 -26 0 -10 14 -14 49 -14 85 0 95 -42 17 -79 -50 -25 -84 -70 -93 -126 -8
-49 20 -47 40 3 24 59 68 99 116 107 50 8 64 -1 59 -40 -2 -23 -11 -30 -52
-43 -56 -18 -86 -57 -86 -110 0 -41 23 -88 51 -103 19 -10 21 -16 14 -74 -6
-63 2 -87 23 -62 6 7 12 35 14 62 3 50 3 50 48 56 25 4 49 3 54 -1 5 -5 11
-34 15 -66 6 -58 15 -71 39 -56 10 7 11 22 4 68 -10 59 -10 59 28 92 44 37 57
77 40 125 -15 47 -47 74 -100 84 -42 8 -45 11 -48 42 -3 33 -3 33 50 26 69 -9
98 -27 132 -82 18 -27 35 -43 45 -41 52 10 -19 125 -95 154 -63 24 -60 50 7
56 55 6 75 18 66 42 -5 12 -21 16 -62 16 -41 0 -55 4 -55 14 0 26 -21 29 -44
7 -29 -27 -122 -35 -118 -10 3 19 -18 38 -35 32z m147 -123 c0 -18 -7 -20 -55
-20 -48 0 -55 2 -55 20 0 18 7 20 55 20 48 0 55 -2 55 -20z m38 -186 c39 -27
28 -44 -28 -44 -46 0 -50 2 -50 23 0 13 3 27 7 30 11 12 48 7 71 -9z m-118
-19 c0 -23 -4 -25 -45 -25 -25 0 -45 4 -45 9 0 15 42 41 67 41 18 0 23 -6 23
-25z m0 -100 c0 -22 -4 -25 -33 -25 -34 0 -57 15 -57 37 0 9 15 13 45 13 41 0
45 -2 45 -25z m140 11 c0 -17 -64 -41 -85 -32 -8 3 -15 15 -15 26 0 17 6 20
50 20 37 0 50 -4 50 -14z"/>
</g>
</svg>
