<svg version="1.0" xmlns="http://www.w3.org/2000/svg"
 width="67.000000pt" height="133.000000pt" viewBox="0 0 67.000000 133.000000"
 preserveAspectRatio="xMidYMid meet">
<metadata>
Created by potrace 1.15, written by Peter Selinger 2001-2017
</metadata>
<g transform="translate(0.000000,133.000000) scale(0.100000,-0.100000)"
fill="#000000" stroke="none">
<path d="M393 1183 c-10 -16 -21 -30 -25 -33 -15 -12 -87 3 -107 21 -37 35
-51 25 -51 -35 0 -30 5 -58 10 -61 6 -3 10 -21 10 -39 0 -56 27 -106 65 -122
33 -13 35 -17 35 -59 0 -33 -4 -45 -15 -45 -8 0 -42 -14 -77 -30 -56 -27 -65
-35 -76 -70 -20 -64 -15 -163 10 -214 22 -47 44 -61 109 -70 20 -3 43 -8 51
-11 22 -9 38 -49 38 -96 0 -22 4 -48 9 -58 8 -14 0 -28 -40 -70 -32 -32 -49
-57 -45 -67 5 -12 13 -10 46 12 22 14 46 24 54 21 8 -3 16 -28 20 -61 4 -31
11 -58 15 -61 12 -7 21 50 14 86 -6 31 -6 31 33 27 21 -3 47 -8 57 -12 23 -11
22 9 -2 31 -10 10 -37 31 -60 47 -41 30 -41 30 -41 108 0 75 1 79 25 88 14 5
28 16 31 24 3 8 19 20 35 26 16 7 29 16 29 21 0 5 7 9 15 9 9 0 19 8 22 18 4
9 11 20 16 23 5 4 9 48 9 98 0 90 0 91 -35 126 -42 42 -74 55 -138 55 -53 0
-53 1 -49 64 1 16 8 35 16 43 47 47 55 293 10 293 -3 0 -13 -12 -23 -27z m3
-99 c4 -14 3 -49 -2 -77 -9 -50 -11 -52 -42 -55 -37 -4 -61 17 -62 54 0 30 29
84 46 84 8 0 14 5 14 10 0 6 9 10 20 10 13 0 22 -9 26 -26z m109 -332 c35 -9
45 -23 45 -64 0 -39 0 -39 -77 -36 -78 3 -78 3 -81 43 -3 37 0 42 30 57 18 9
40 14 48 11 8 -3 24 -8 35 -11z m-189 -20 c27 -18 25 -82 -2 -82 -14 0 -23 -4
-81 -34 -42 -22 -43 -21 -43 18 0 27 8 41 41 70 41 35 63 43 85 28z m232 -147
c2 -23 -51 -85 -89 -102 -36 -15 -49 -1 -49 53 0 34 4 44 20 49 11 3 20 11 20
16 0 6 21 9 48 7 38 -2 47 -7 50 -23z m-204 -29 c22 -47 20 -65 -9 -72 -30 -7
-82 1 -102 17 -35 29 7 89 63 89 26 0 34 -6 48 -34z"/>
</g>
</svg>
