<svg version="1.0" xmlns="http://www.w3.org/2000/svg"
 width="93.000000pt" height="149.000000pt" viewBox="0 0 93.000000 149.000000"
 preserveAspectRatio="xMidYMid meet">
<metadata>
Created by potrace 1.15, written by Peter Selinger 2001-2017
</metadata>
<g transform="translate(0.000000,149.000000) scale(0.100000,-0.100000)"
fill="#000000" stroke="none">
<path d="M586 1434 c-11 -7 -15 -18 -10 -25 8 -13 8 -72 -1 -99 -4 -14 -21
-19 -78 -24 -39 -3 -88 -9 -107 -12 -34 -5 -35 -4 -47 35 -7 22 -13 49 -13 60
0 24 -25 45 -46 37 -13 -5 -15 -15 -10 -49 18 -118 18 -127 4 -127 -19 0 -68
-23 -68 -32 0 -5 -7 -8 -15 -8 -22 0 -95 -61 -95 -80 0 -15 63 -12 85 4 39 27
96 56 110 56 9 0 15 -9 15 -21 0 -31 21 -98 42 -137 10 -18 18 -36 18 -41 0
-5 -21 -16 -47 -26 -25 -10 -55 -25 -66 -34 -63 -50 -98 -86 -112 -113 -17
-35 -20 -84 -5 -93 5 -3 10 -15 10 -25 0 -28 64 -125 97 -147 39 -27 119 -63
140 -63 36 0 43 -14 36 -66 -4 -34 -14 -56 -33 -74 -70 -66 -112 -100 -125
-100 -8 0 -15 -3 -15 -8 0 -4 -18 -18 -40 -32 -22 -14 -40 -30 -40 -37 0 -21
42 -15 80 10 32 21 158 62 166 55 2 -2 4 -36 6 -76 2 -71 15 -101 37 -87 13 8
32 78 30 107 -1 13 -1 38 -1 56 2 33 2 33 48 0 26 -18 60 -45 75 -59 49 -46
89 -45 89 2 0 13 -78 84 -109 101 -14 7 -43 30 -63 50 -35 33 -38 41 -38 92 0
47 3 56 18 56 58 0 207 124 219 181 3 16 10 32 14 35 14 8 10 73 -6 127 -16
52 -84 126 -117 127 -31 0 -68 23 -68 42 0 10 5 18 10 18 6 0 10 9 10 20 0 11
4 20 8 20 7 0 14 21 43 133 10 41 14 47 33 41 11 -3 30 -8 41 -11 11 -2 39
-13 62 -24 24 -10 49 -19 56 -19 21 0 37 22 37 52 0 43 -26 56 -178 85 -33 6
-34 6 -29 52 7 68 -24 120 -57 95z m-24 -229 c-9 -67 -15 -95 -21 -95 -3 0
-12 -14 -20 -31 -17 -39 -52 -56 -85 -41 -17 8 -30 29 -45 77 -21 64 -21 68
-4 81 10 7 32 14 48 14 17 1 39 5 50 10 11 5 34 8 50 7 24 -2 29 -6 27 -22z
m-150 -352 c1 -46 -2 -106 -6 -110 -1 -1 -40 -3 -86 -5 -85 -3 -85 -3 -88 25
-2 15 1 27 7 27 6 0 11 8 11 18 0 25 101 85 153 91 4 1 8 -20 9 -46z m151 25
c12 -6 28 -17 35 -24 7 -8 19 -17 26 -21 13 -8 49 -74 43 -79 -1 -2 -39 -4
-82 -6 -80 -3 -80 -3 -81 57 0 33 1 66 4 73 5 15 27 15 55 0z m-145 -203 c5
-4 9 -111 4 -127 -6 -24 -29 -23 -88 6 -49 24 -87 59 -77 70 4 3 -1 6 -9 6
-17 0 -32 26 -23 40 3 4 30 8 61 9 31 0 59 2 61 5 5 4 63 -3 71 -9z m185 4
c26 -1 49 -5 51 -8 7 -11 -18 -59 -53 -100 -29 -35 -39 -41 -72 -41 -39 0 -39
0 -39 66 0 70 16 99 50 89 8 -3 37 -6 63 -6z"/>
</g>
</svg>
