<svg version="1.0" xmlns="http://www.w3.org/2000/svg"
 width="93.000000pt" height="121.000000pt" viewBox="0 0 93.000000 121.000000"
 preserveAspectRatio="xMidYMid meet">
<metadata>
Created by potrace 1.15, written by Peter Selinger 2001-2017
</metadata>
<g transform="translate(0.000000,121.000000) scale(0.100000,-0.100000)"
fill="#000000" stroke="none">
<path d="M710 1072 c-55 -5 -140 -25 -140 -32 0 -23 36 -33 111 -31 72 2 83
-1 100 -20 25 -29 35 -68 22 -88 -6 -9 -37 -21 -74 -28 -92 -17 -153 -33 -163
-43 -4 -5 6 -16 25 -25 29 -16 41 -16 98 -6 36 7 71 17 78 23 22 18 43 1 43
-36 0 -42 -24 -61 -85 -70 -110 -17 -158 -26 -162 -29 -2 -2 -1 -12 3 -21 7
-18 90 -23 140 -7 72 23 81 22 87 -4 2 -14 2 -23 -1 -20 -3 3 -13 -8 -23 -24
-10 -16 -27 -32 -38 -36 -12 -3 -21 -11 -21 -16 0 -5 -6 -9 -12 -9 -7 0 -37
-12 -67 -27 -62 -33 -82 -65 -107 -173 -9 -40 -17 -77 -18 -84 -1 -6 -4 -15
-8 -21 -3 -5 -11 -45 -18 -87 -11 -64 -10 -81 1 -94 12 -15 15 -14 31 6 10 12
18 34 18 47 0 30 10 69 52 208 31 103 67 158 112 171 33 10 90 37 101 49 22
22 73 132 84 181 7 28 10 69 8 90 -11 89 -20 135 -28 140 -5 3 -9 14 -9 25 0
11 -14 35 -31 53 -30 33 -60 44 -109 38z"/>
<path d="M108 824 c-53 -19 -66 -39 -42 -65 10 -11 21 -38 25 -62 4 -23 12
-67 18 -97 22 -110 24 -130 12 -130 -12 0 -16 -42 -5 -53 12 -11 139 99 171
148 11 17 25 60 32 97 15 79 4 127 -35 153 -37 24 -120 28 -176 9z m145 -74
c15 -58 -34 -200 -69 -200 -17 0 -42 145 -35 208 1 8 18 12 50 12 40 0 50 -3
54 -20z"/>
</g>
</svg>
