<svg version="1.0" xmlns="http://www.w3.org/2000/svg"
 width="67.000000pt" height="87.000000pt" viewBox="0 0 67.000000 87.000000"
 preserveAspectRatio="xMidYMid meet">
<metadata>
Created by potrace 1.15, written by Peter Selinger 2001-2017
</metadata>
<g transform="translate(0.000000,87.000000) scale(0.100000,-0.100000)"
fill="#000000" stroke="none">
<path d="M90 634 c0 -4 8 -28 17 -54 17 -49 14 -97 -19 -240 -14 -63 -21 -272
-10 -289 22 -32 32 2 32 113 0 93 5 133 29 225 22 84 27 119 20 137 -5 14 -9
40 -9 58 0 17 -5 37 -12 44 -12 12 -48 17 -48 6z"/>
<path d="M191 596 c-19 -23 -1 -26 141 -25 142 0 162 -3 174 -29 5 -9 9 -102
10 -207 1 -104 7 -214 13 -244 6 -29 11 -56 11 -58 0 -3 6 -3 12 -1 10 4 12
66 10 269 -4 334 13 309 -206 309 -120 0 -156 -3 -165 -14z"/>
<path d="M200 482 c0 -19 27 -32 67 -32 38 0 43 -3 43 -23 0 -24 -42 -69 -93
-101 -32 -20 -26 -40 9 -32 19 5 31 -1 54 -26 36 -39 37 -49 9 -74 -34 -30
-69 -91 -69 -119 0 -42 27 -28 53 28 13 28 50 79 81 112 32 33 64 73 73 88 13
26 13 31 -3 48 -16 18 -64 27 -64 12 0 -3 7 -14 16 -24 15 -16 14 -20 -2 -48
-23 -39 -32 -39 -68 0 -29 31 -29 31 -4 52 30 26 48 57 48 86 0 17 8 20 57 23
46 2 59 7 61 21 3 15 -8 17 -132 17 -75 0 -136 -4 -136 -8z"/>
</g>
</svg>
