<svg version="1.0" xmlns="http://www.w3.org/2000/svg"
 width="68.000000pt" height="99.000000pt" viewBox="0 0 68.000000 99.000000"
 preserveAspectRatio="xMidYMid meet">
<metadata>
Created by potrace 1.15, written by Peter Selinger 2001-2017
</metadata>
<g transform="translate(0.000000,99.000000) scale(0.100000,-0.100000)"
fill="#000000" stroke="none">
<path d="M504 806 c-3 -14 -3 -37 0 -51 8 -30 -4 -32 -29 -5 -10 11 -22 20
-27 20 -16 0 -7 -29 15 -47 36 -29 57 -65 57 -99 0 -27 -4 -32 -31 -38 -33 -6
-69 7 -69 27 0 7 14 26 30 44 37 39 38 45 4 33 -14 -6 -29 -10 -34 -10 -7 0
-23 74 -24 115 -1 13 -9 21 -23 23 -27 4 -29 -9 -8 -42 19 -29 36 -116 22
-116 -5 0 -25 10 -44 21 -19 12 -36 19 -39 16 -6 -6 40 -53 66 -67 12 -6 20
-21 20 -35 0 -20 -5 -25 -25 -25 -14 0 -25 -4 -25 -10 0 -5 14 -10 30 -10 26
0 30 -4 30 -28 0 -26 -4 -29 -52 -38 -36 -6 -53 -14 -53 -24 0 -16 20 -18 73
-6 32 8 33 7 30 -20 -3 -25 -9 -30 -41 -35 -20 -3 -40 -9 -43 -12 -13 -13 9
-27 41 -27 33 0 33 0 16 -58 -13 -39 -32 -72 -64 -107 -26 -27 -47 -56 -47
-62 0 -24 25 -12 45 20 11 17 28 33 38 35 15 3 17 -5 17 -61 0 -78 6 -97 31
-97 22 0 22 -2 4 75 -23 96 -21 102 22 66 40 -33 63 -39 63 -18 0 16 -51 67
-67 67 -23 0 -32 26 -23 61 5 19 12 46 15 62 5 23 10 27 41 27 51 0 55 -24 10
-64 -33 -31 -46 -56 -29 -56 4 0 17 9 29 21 22 21 22 21 29 -23 4 -24 11 -56
16 -73 33 -113 42 -136 52 -132 20 6 19 43 -1 84 -23 47 -46 149 -36 164 4 7
14 2 29 -15 21 -25 55 -35 55 -17 0 5 -20 29 -45 54 -51 52 -58 77 -20 77 14
0 33 9 42 20 12 13 24 18 40 14 18 -5 23 -2 23 14 0 12 -4 24 -10 27 -5 3 -10
24 -10 46 0 43 -27 79 -59 79 -30 0 -16 85 20 128 16 18 29 37 29 42 0 21 -23
21 -45 0 -24 -22 -24 -22 -27 21 -3 48 -24 63 -34 25z m12 -262 c-3 -9 -6 -22
-6 -30 0 -10 -12 -14 -39 -14 -44 0 -55 10 -46 40 5 16 15 20 52 20 37 0 44
-3 39 -16z m48 -16 c20 -39 20 -38 -4 -38 -16 0 -20 7 -20 35 0 43 4 44 24 3z
m-64 -77 c0 -28 -27 -51 -61 -51 -30 0 -33 7 -23 48 5 18 13 22 45 22 32 0 39
-4 39 -19z m58 -3 c-4 -29 -38 -38 -38 -10 0 22 8 32 27 32 9 0 13 -8 11 -22z"/>
<path d="M231 724 c-12 -15 -21 -31 -21 -35 0 -5 -4 -9 -10 -9 -5 0 -10 6 -10
14 0 24 -29 46 -61 46 -16 0 -29 -4 -29 -10 0 -5 9 -10 20 -10 25 0 44 -35 36
-66 -4 -14 -23 -42 -42 -64 -42 -46 -41 -76 2 -121 21 -22 26 -40 31 -103 5
-66 4 -76 -10 -71 -8 4 -17 16 -20 27 -3 11 -12 18 -19 16 -9 -3 -14 -28 -16
-76 -3 -67 -1 -72 27 -101 32 -33 75 -41 113 -20 30 16 48 70 48 144 0 66 -11
84 -26 43 -6 -17 -9 -4 -11 46 -4 66 -3 70 27 99 36 35 41 86 11 114 -51 49
-53 94 -6 122 41 24 45 41 11 41 -15 0 -33 -11 -45 -26z m19 -172 c11 -26 3
-47 -29 -76 -18 -16 -21 -31 -21 -98 0 -45 -4 -78 -10 -78 -6 0 -10 34 -10 81
0 72 -3 84 -25 111 -33 39 -32 52 8 98 32 39 32 39 55 12 12 -15 27 -37 32
-50z m-10 -313 c0 -48 -16 -69 -54 -69 -38 0 -66 32 -66 75 0 24 2 25 60 25
60 0 60 0 60 -31z"/>
</g>
</svg>
