<svg version="1.0" xmlns="http://www.w3.org/2000/svg"
 width="70.000000pt" height="90.000000pt" viewBox="0 0 70.000000 90.000000"
 preserveAspectRatio="xMidYMid meet">
<metadata>
Created by potrace 1.15, written by Peter Selinger 2001-2017
</metadata>
<g transform="translate(0.000000,90.000000) scale(0.100000,-0.100000)"
fill="#000000" stroke="none">
<path d="M210 706 c0 -27 64 -38 183 -30 101 6 115 5 131 -11 32 -32 0 -47
-121 -57 -131 -11 -175 -22 -209 -51 -38 -33 -53 -112 -44 -220 10 -103 -6
-197 -45 -262 -28 -49 -30 -55 -13 -55 18 0 58 49 64 79 3 14 12 43 20 64 9
25 14 80 14 166 0 71 3 143 6 160 12 58 71 78 246 80 56 1 71 5 97 27 21 18
31 35 31 54 0 61 -47 76 -187 61 -58 -6 -105 -6 -125 0 -43 12 -48 12 -48 -5z"/>
<path d="M479 521 c-6 -17 -20 -36 -30 -42 -21 -11 -26 -29 -7 -29 6 0 19 7
28 15 15 14 25 14 64 4 49 -12 74 -5 43 13 -10 5 -34 23 -53 40 -34 30 -34 30
-45 -1z"/>
<path d="M300 517 c0 -8 -16 -29 -35 -46 -32 -28 -34 -31 -14 -31 12 0 31 7
41 17 17 15 21 15 58 -2 22 -10 43 -16 46 -12 6 5 -69 78 -87 85 -5 2 -9 -3
-9 -11z"/>
<path d="M382 395 c-67 -21 -68 -24 -75 -142 -5 -104 -13 -139 -39 -175 -18
-24 -2 -34 21 -14 30 27 52 102 58 196 3 47 10 91 16 98 5 7 32 12 63 12 68 0
77 -15 78 -130 1 -73 4 -90 25 -118 13 -18 35 -38 49 -43 25 -10 44 -3 26 9
-33 24 -73 132 -66 181 8 54 -17 112 -55 127 -39 17 -45 17 -101 -1z"/>
</g>
</svg>
