<svg version="1.0" xmlns="http://www.w3.org/2000/svg"
 width="55.000000pt" height="91.000000pt" viewBox="0 0 55.000000 91.000000"
 preserveAspectRatio="xMidYMid meet">
<metadata>
Created by potrace 1.15, written by Peter Selinger 2001-2017
</metadata>
<g transform="translate(0.000000,91.000000) scale(0.100000,-0.100000)"
fill="#000000" stroke="none">
<path d="M197 733 c-4 -3 -7 -12 -7 -20 0 -7 -8 -32 -19 -56 -41 -92 -43 -104
-38 -209 3 -57 8 -118 12 -135 7 -34 -13 -123 -27 -123 -4 0 -8 -7 -8 -15 0
-8 -5 -24 -12 -35 -20 -31 0 -36 30 -7 16 15 31 27 33 27 3 0 11 -18 18 -40
14 -48 31 -52 31 -7 0 32 0 32 24 5 29 -34 50 -37 40 -5 -11 35 -67 137 -76
137 -4 0 -8 14 -8 31 0 16 -5 50 -11 75 -10 40 -9 49 8 72 10 15 27 44 36 65
19 39 26 43 55 28 9 -5 29 -14 45 -22 40 -19 36 -56 -13 -112 -26 -29 -38 -51
-34 -61 3 -9 10 -16 14 -16 13 0 29 -57 23 -79 -3 -12 -2 -21 1 -21 23 0 49
27 70 74 34 73 37 206 7 284 -19 52 -106 151 -120 137 -3 -4 -4 -34 -2 -67 3
-57 2 -61 -17 -56 -17 5 -25 -3 -44 -43 -13 -27 -27 -49 -31 -49 -13 0 2 78
24 129 28 63 25 143 -4 114z m151 -188 c-12 -12 -38 9 -38 29 0 37 14 40 29 7
8 -17 12 -33 9 -36z m22 -191 c0 -8 -7 -23 -16 -31 -23 -24 -39 5 -17 29 20
22 33 23 33 2z"/>
</g>
</svg>
