<svg version="1.0" xmlns="http://www.w3.org/2000/svg"
 width="69.000000pt" height="93.000000pt" viewBox="0 0 69.000000 93.000000"
 preserveAspectRatio="xMidYMid meet">
<metadata>
Created by potrace 1.15, written by Peter Selinger 2001-2017
</metadata>
<g transform="translate(0.000000,93.000000) scale(0.100000,-0.100000)"
fill="#000000" stroke="none">
<path d="M203 668 c-6 -7 -13 -22 -17 -33 -3 -11 -29 -36 -56 -55 -76 -54 -61
-97 17 -49 25 16 38 18 45 11 15 -15 -4 -37 -69 -79 -50 -32 -65 -55 -44 -68
6 -3 35 11 65 30 76 49 81 50 114 27 15 -12 40 -24 55 -27 22 -6 27 -4 27 11
0 12 -17 28 -48 44 -33 17 -48 32 -50 49 -3 21 -1 23 20 16 37 -12 81 -11 85
2 2 7 -18 23 -46 38 -39 19 -52 32 -59 57 -9 35 -24 45 -39 26z"/>
<path d="M467 669 c-26 -15 -11 -29 34 -29 32 0 41 -4 51 -25 11 -25 -2 -55
-24 -55 -18 0 -68 -41 -68 -56 0 -14 54 -41 103 -51 45 -9 35 24 -13 38 -49
15 -51 26 -4 35 25 5 38 14 45 31 26 69 -4 123 -68 123 -21 0 -46 -5 -56 -11z"/>
<path d="M350 640 c0 -5 9 -24 20 -42 18 -30 19 -44 14 -154 -7 -120 -7 -120
26 -146 40 -31 36 -51 -15 -72 -40 -17 -44 -38 -19 -92 10 -21 24 -34 35 -34
23 0 24 12 3 52 -22 42 -4 61 29 30 22 -21 47 -29 47 -16 0 3 -9 18 -20 34
-17 24 -18 29 -5 46 13 18 15 18 42 -9 26 -26 28 -33 28 -106 0 -118 27 -125
40 -11 5 47 3 64 -17 105 -13 26 -30 52 -38 56 -8 4 -33 16 -55 27 -25 12 -41
27 -43 40 -2 12 -2 22 1 22 2 0 31 -14 65 -31 83 -41 104 -72 110 -166 4 -61
7 -73 21 -71 39 7 19 168 -27 211 -30 29 -136 87 -159 87 -8 0 -12 4 -9 9 8
12 39 4 105 -26 38 -17 57 -21 65 -13 18 18 -16 40 -90 59 -69 17 -69 17 -69
76 0 58 0 59 33 67 17 5 32 12 32 16 0 18 -25 31 -49 26 -19 -4 -32 1 -45 15
-20 22 -56 29 -56 11z"/>
<path d="M206 415 c-3 -9 -6 -32 -6 -50 0 -19 -5 -37 -10 -40 -15 -9 -40 13
-40 35 0 10 -7 23 -14 30 -12 9 -19 3 -40 -37 -14 -26 -34 -61 -45 -78 -12
-16 -21 -35 -21 -42 0 -18 60 -83 75 -83 25 0 27 21 6 44 -26 28 -28 51 -3 41
56 -23 66 -15 32 28 -26 33 -26 34 10 29 28 -4 30 -7 30 -48 0 -23 -4 -46 -10
-49 -18 -11 -11 -78 13 -112 25 -38 101 -73 119 -55 7 7 -4 21 -40 46 -44 32
-51 42 -56 81 -4 25 -5 49 -2 53 2 4 12 50 21 102 14 80 14 95 2 107 -12 13
-15 12 -21 -2z"/>
<path d="M275 379 c6 -24 2 -36 -16 -55 -17 -19 -20 -27 -11 -36 9 -9 15 -8
25 7 8 10 17 14 20 8 4 -6 -9 -24 -28 -42 -19 -17 -35 -36 -35 -41 0 -17 26
-11 45 10 10 11 22 20 27 20 17 0 7 -31 -17 -52 -14 -12 -25 -28 -25 -35 0
-24 27 -14 59 22 39 45 41 93 6 150 -14 22 -25 48 -25 58 0 9 -7 17 -16 17
-12 0 -14 -7 -9 -31z"/>
</g>
</svg>
