<svg version="1.0" xmlns="http://www.w3.org/2000/svg"
 width="63.000000pt" height="163.000000pt" viewBox="0 0 63.000000 163.000000"
 preserveAspectRatio="xMidYMid meet">
<metadata>
Created by potrace 1.15, written by Peter Selinger 2001-2017
</metadata>
<g transform="translate(0.000000,163.000000) scale(0.100000,-0.100000)"
fill="#000000" stroke="none">
<path d="M378 1443 c-1 -27 -1 -57 0 -68 10 -191 0 -252 -58 -340 -57 -88 -70
-140 -70 -276 0 -105 -12 -169 -31 -169 -3 0 -9 29 -13 65 -8 80 -21 115 -41
115 -14 0 -15 -16 -11 -127 8 -177 9 -237 5 -398 -4 -143 8 -213 39 -223 10
-3 11 26 8 137 -5 139 1 166 24 105 13 -33 55 -34 47 -1 -43 188 -45 199 -36
232 14 49 27 51 38 8 21 -86 31 -135 31 -156 0 -40 20 -98 32 -91 12 7 5 140
-13 269 -5 39 -12 141 -15 228 -6 142 -4 160 12 185 10 15 23 36 29 46 18 35
33 29 40 -16 4 -24 16 -62 26 -85 11 -23 18 -46 17 -50 -1 -4 6 -22 15 -40 9
-18 17 -39 17 -48 0 -8 5 -15 10 -15 12 0 5 81 -12 140 -27 100 -37 171 -39
297 -3 189 -18 323 -35 323 -10 0 -15 -15 -16 -47z"/>
<path d="M276 218 c-5 -11 -2 -23 7 -33 19 -18 34 -20 19 -2 -5 6 -12 21 -14
32 -4 18 -6 18 -12 3z"/>
</g>
</svg>
