<svg version="1.0" xmlns="http://www.w3.org/2000/svg"
 width="75.000000pt" height="223.000000pt" viewBox="0 0 75.000000 223.000000"
 preserveAspectRatio="xMidYMid meet">
<metadata>
Created by potrace 1.15, written by Peter Selinger 2001-2017
</metadata>
<g transform="translate(0.000000,223.000000) scale(0.100000,-0.100000)"
fill="#000000" stroke="none">
<path d="M185 2150 c10 -11 22 -20 27 -20 5 0 18 -8 29 -19 11 -10 49 -33 84
-51 65 -33 65 -33 17 -62 -61 -38 -106 -82 -145 -138 -17 -25 -33 -47 -37 -50
-3 -3 -19 -32 -34 -65 -16 -33 -44 -91 -62 -128 -18 -38 -28 -67 -22 -65 6 2
16 13 22 23 6 11 22 38 36 60 14 22 32 52 39 67 18 36 149 198 161 198 8 0 70
-149 70 -169 0 -9 29 -78 51 -123 5 -10 9 -28 9 -40 0 -18 4 -16 30 18 16 21
30 43 30 47 0 4 8 17 18 28 11 11 32 44 47 74 16 30 39 66 52 79 27 29 29 49
8 66 -17 14 -33 2 -51 -40 -41 -91 -115 -230 -123 -230 -9 0 -28 67 -42 145
-7 39 -16 74 -21 80 -4 5 -8 17 -8 27 0 10 -9 23 -20 30 -27 17 -25 32 8 49
15 8 36 22 46 32 11 9 28 17 37 17 25 0 49 11 49 21 0 21 -41 51 -142 104 -74
38 -118 55 -144 55 -36 0 -37 0 -19 -20z"/>
<path d="M295 1467 c-115 -54 -146 -73 -168 -104 -28 -36 -14 -39 35 -6 109
74 216 112 315 113 105 0 131 -23 118 -106 -7 -49 -15 -55 -30 -21 -8 18 -19
23 -59 25 -27 2 -63 -2 -80 -8 -17 -7 -40 -15 -51 -20 -107 -40 -244 -115
-232 -126 2 -3 22 4 43 15 89 44 271 101 323 101 31 0 61 -19 61 -38 0 -23
-71 -83 -136 -115 -102 -51 -244 -100 -307 -106 -5 -1 -6 -5 -2 -11 13 -21
185 19 305 72 25 11 61 27 80 35 19 9 38 18 43 20 7 4 2 -81 -13 -218 -20
-172 17 -436 107 -759 8 -30 17 -65 20 -77 6 -28 23 -30 23 -4 0 25 -20 120
-30 146 -15 36 -28 104 -59 290 -22 137 -34 368 -22 436 6 36 11 93 11 128 0
46 6 73 26 110 43 83 43 193 -1 237 -20 21 -80 34 -154 34 -68 -1 -85 -5 -166
-43z"/>
<path d="M690 83 c0 -12 5 -25 10 -28 13 -8 13 15 0 35 -8 12 -10 11 -10 -7z"/>
</g>
</svg>
