<svg version="1.0" xmlns="http://www.w3.org/2000/svg"
 width="53.000000pt" height="147.000000pt" viewBox="0 0 53.000000 147.000000"
 preserveAspectRatio="xMidYMid meet">
<metadata>
Created by potrace 1.15, written by Peter Selinger 2001-2017
</metadata>
<g transform="translate(0.000000,147.000000) scale(0.100000,-0.100000)"
fill="#000000" stroke="none">
<path d="M362 1320 c-6 -11 -12 -38 -12 -61 0 -48 -10 -68 -56 -117 -19 -20
-34 -39 -34 -43 0 -3 -11 -19 -24 -34 -14 -16 -35 -48 -47 -72 -12 -24 -26
-43 -31 -43 -4 0 -8 -4 -8 -10 0 -24 35 -6 83 43 38 38 51 58 49 75 -3 20 -1
22 15 12 16 -11 18 -20 12 -79 -6 -63 -34 -141 -51 -141 -4 0 -8 -5 -8 -11 0
-6 -8 -23 -18 -37 -22 -32 -38 -102 -53 -232 -6 -52 -17 -117 -25 -144 -14
-48 -10 -96 7 -96 5 0 9 7 9 15 0 8 4 23 9 33 15 29 31 87 31 113 0 13 7 33
15 43 17 23 39 10 49 -29 6 -25 -28 -105 -45 -105 -5 0 -9 -11 -9 -25 0 -33
12 -32 47 5 15 17 31 30 35 30 3 0 6 -48 7 -107 0 -68 4 -109 12 -113 8 -6 8
-13 0 -28 -16 -29 -14 -72 3 -72 17 0 26 44 26 123 0 33 5 75 12 93 9 26 9 51
-1 113 -13 76 -12 83 8 126 24 52 28 117 6 135 -21 17 -32 6 -39 -44 -9 -61
-27 -74 -60 -45 -20 18 -26 32 -26 65 0 44 17 94 32 94 4 0 8 6 8 13 0 7 8 22
18 33 40 47 48 80 77 334 21 177 12 246 -23 190z m-78 -515 c3 -8 1 -15 -4
-15 -6 0 -10 7 -10 15 0 8 2 15 4 15 2 0 6 -7 10 -15z"/>
</g>
</svg>
