<svg version="1.0" xmlns="http://www.w3.org/2000/svg"
 width="69.000000pt" height="87.000000pt" viewBox="0 0 69.000000 87.000000"
 preserveAspectRatio="xMidYMid meet">
<metadata>
Created by potrace 1.15, written by Peter Selinger 2001-2017
</metadata>
<g transform="translate(0.000000,87.000000) scale(0.100000,-0.100000)"
fill="#000000" stroke="none">
<path d="M72 603 c2 -14 15 -19 61 -21 53 -3 57 -5 57 -27 0 -23 -4 -25 -45
-25 -32 0 -51 -6 -65 -20 -19 -19 -20 -33 -20 -225 0 -176 2 -205 15 -205 13
0 15 26 15 175 0 212 9 245 64 245 30 0 36 -4 36 -21 0 -12 -8 -23 -20 -26
-41 -11 -18 -24 35 -21 56 3 76 20 30 26 -17 2 -25 9 -25 23 0 16 7 19 45 19
43 0 44 -1 51 -36 3 -19 5 -118 2 -220 -3 -136 -1 -184 8 -184 19 0 24 52 24
244 0 211 -5 226 -71 226 -44 0 -60 20 -39 46 10 11 24 13 57 8 34 -5 43 -3
43 9 0 23 -22 27 -147 27 -104 0 -114 -2 -111 -17z"/>
<path d="M447 603 c-85 -6 -84 -3 -89 -291 -3 -134 -1 -245 3 -248 22 -13 29
48 29 239 0 124 4 217 11 236 11 32 11 32 92 29 53 -2 82 -7 85 -15 2 -9 -10
-13 -43 -13 -84 0 -85 -3 -85 -148 0 -86 4 -132 12 -140 7 -7 36 -12 65 -12
53 0 53 0 53 -90 0 -70 3 -90 14 -90 21 0 26 23 26 115 0 98 -9 109 -88 103
-45 -3 -47 -2 -50 24 -3 28 -3 28 57 28 77 0 81 7 81 149 0 142 9 135 -173
124z m138 -103 c3 -6 3 -19 0 -30 -5 -16 -15 -20 -51 -20 -42 0 -44 1 -44 30
0 29 2 30 44 30 25 0 48 -5 51 -10z m-5 -105 c0 -18 -7 -26 -24 -31 -45 -11
-71 -1 -74 29 -3 26 -2 27 47 27 48 0 51 -2 51 -25z"/>
<path d="M166 377 c-17 -13 -17 -14 2 -47 21 -33 21 -33 -3 -62 -13 -16 -26
-47 -29 -71 -11 -90 -14 -167 -6 -172 11 -7 28 16 32 45 3 23 8 25 61 28 42 2
57 7 57 17 0 9 -10 15 -25 15 -30 0 -35 34 -7 45 16 6 16 7 0 19 -23 17 -23
22 2 29 28 7 25 24 -5 31 -32 8 -32 36 0 66 38 36 30 64 -20 68 -22 2 -48 -3
-59 -11z m62 -29 c-3 -7 -11 -13 -18 -13 -7 0 -15 6 -17 13 -3 7 4 12 17 12
13 0 20 -5 18 -12z m-28 -88 c0 -5 -5 -10 -11 -10 -5 0 -7 5 -4 10 3 6 8 10
11 10 2 0 4 -4 4 -10z m-5 -50 c3 -5 -3 -10 -15 -10 -12 0 -18 5 -15 10 3 6
10 10 15 10 5 0 12 -4 15 -10z m5 -54 c0 -8 -5 -18 -11 -22 -14 -8 -33 11 -25
25 10 16 36 13 36 -3z"/>
<path d="M447 192 c-11 -12 -17 -36 -17 -70 0 -65 18 -69 22 -5 4 65 25 67 34
3 7 -51 19 -69 35 -53 5 5 4 24 -3 47 -9 29 -9 42 1 58 11 17 10 22 -1 29 -22
14 -54 10 -71 -9z"/>
</g>
</svg>
