<svg version="1.0" xmlns="http://www.w3.org/2000/svg"
 width="63.000000pt" height="141.000000pt" viewBox="0 0 63.000000 141.000000"
 preserveAspectRatio="xMidYMid meet">
<metadata>
Created by potrace 1.15, written by Peter Selinger 2001-2017
</metadata>
<g transform="translate(0.000000,141.000000) scale(0.100000,-0.100000)"
fill="#000000" stroke="none">
<path d="M270 1255 c0 -8 -4 -23 -9 -33 -5 -9 -14 -35 -20 -57 -5 -22 -19 -69
-30 -105 -10 -36 -25 -92 -31 -125 -15 -72 -16 -230 -3 -248 23 -28 23 -78 1
-125 -24 -52 -58 -171 -63 -217 -10 -105 -14 -292 -7 -303 15 -22 39 71 51
198 18 185 45 300 71 300 4 0 23 -29 41 -65 18 -37 49 -81 68 -100 108 -102
151 -146 151 -154 0 -11 90 -54 98 -46 3 3 -13 24 -36 47 -23 22 -42 45 -42
50 0 6 -8 18 -18 27 -10 9 -23 23 -28 32 -5 9 -38 48 -74 87 -79 86 -125 169
-116 207 4 15 56 76 116 137 61 60 110 114 110 119 0 32 -90 -37 -207 -157
-51 -53 -51 -53 -62 -22 -6 17 -11 48 -11 69 0 39 23 172 40 240 6 20 10 46
10 58 0 11 5 21 10 21 6 0 10 -9 10 -20 0 -11 4 -20 8 -20 5 0 21 -27 35 -60
22 -48 25 -64 17 -86 -13 -34 -1 -49 34 -40 19 5 26 13 26 30 0 13 9 41 19 63
42 84 53 116 47 139 -4 13 -13 24 -22 24 -8 0 -12 -4 -9 -10 3 -5 -1 -20 -9
-32 -16 -22 -16 -22 -17 12 -1 19 -1 51 0 70 2 42 -10 63 -32 54 -13 -5 -16
-21 -15 -85 0 -44 -3 -83 -7 -87 -4 -4 -17 5 -29 19 -13 15 -33 32 -46 39 -16
9 -19 15 -11 23 14 14 15 147 1 147 -5 0 -10 -7 -10 -15z"/>
<path d="M453 675 c-3 -9 -3 -34 0 -57 8 -63 0 -74 -34 -42 -16 15 -32 25 -35
21 -4 -3 10 -39 30 -80 20 -40 36 -82 36 -93 1 -26 35 -69 49 -60 6 4 11 32
11 61 0 53 33 145 52 145 4 0 8 14 8 30 0 41 -11 38 -43 -12 -27 -42 -27 -42
-27 -5 0 37 -23 107 -35 107 -3 0 -8 -7 -12 -15z"/>
</g>
</svg>
