<svg version="1.0" xmlns="http://www.w3.org/2000/svg"
 width="67.000000pt" height="123.000000pt" viewBox="0 0 67.000000 123.000000"
 preserveAspectRatio="xMidYMid meet">
<metadata>
Created by potrace 1.15, written by Peter Selinger 2001-2017
</metadata>
<g transform="translate(0.000000,123.000000) scale(0.100000,-0.100000)"
fill="#000000" stroke="none">
<path d="M413 1144 c-7 -18 5 -326 13 -348 4 -11 -6 -18 -35 -27 -77 -23 -34
-55 52 -38 23 4 61 8 85 9 42 0 42 0 42 -37 -1 -49 -24 -136 -38 -141 -5 -1
-13 7 -17 20 -13 42 -35 58 -80 58 -26 0 -48 -6 -55 -15 -13 -16 -7 -19 36
-16 28 3 51 -26 66 -82 12 -47 12 -49 -12 -67 -14 -11 -36 -25 -50 -32 -14 -7
-38 -22 -55 -33 -16 -11 -32 -21 -35 -23 -2 -2 2 -7 10 -13 21 -13 67 -1 112
28 43 29 54 25 61 -19 8 -54 74 -301 88 -331 13 -29 26 -31 43 -5 10 16 -10
100 -39 163 -7 17 -16 44 -18 60 -3 17 -12 56 -21 88 -17 63 -21 133 -7 141
16 10 54 152 55 208 1 71 -16 87 -91 88 -53 0 -53 0 -53 74 0 74 0 74 31 80
17 3 53 6 79 6 54 0 70 18 40 45 -17 15 -26 16 -64 6 -86 -21 -86 -21 -86 67
0 77 -9 102 -37 102 -8 0 -16 -7 -20 -16z"/>
<path d="M181 1126 c-7 -8 -15 -33 -19 -57 -7 -39 -11 -44 -37 -47 -46 -6 -71
-43 -67 -102 10 -170 17 -180 122 -181 143 0 161 17 157 148 -2 70 -6 86 -26
107 -12 13 -36 26 -52 30 -27 5 -29 9 -29 48 0 32 -5 46 -19 55 -15 10 -22 9
-30 -1z m97 -175 c6 -40 -14 -51 -94 -51 -74 0 -74 0 -74 35 0 37 7 42 80 47
55 5 85 -6 88 -31z m10 -97 c2 -11 -2 -32 -7 -47 -10 -25 -15 -27 -71 -27 -77
0 -100 12 -100 50 0 27 2 29 58 35 31 4 62 8 67 10 24 9 50 -1 53 -21z"/>
<path d="M62 703 c-5 -10 -12 -37 -16 -60 -5 -35 -3 -45 16 -63 12 -11 35 -20
54 -20 17 0 37 -6 43 -14 22 -26 14 -88 -18 -159 -17 -37 -31 -70 -31 -73 0
-3 -13 -25 -30 -49 -16 -24 -30 -48 -30 -53 0 -5 -9 -17 -20 -27 -21 -19 -27
-55 -9 -55 25 0 78 74 134 188 66 134 87 150 93 72 5 -66 -39 -248 -70 -287
-13 -16 -3 -69 13 -65 21 5 36 33 57 102 27 90 42 177 42 239 0 53 -14 83 -62
135 -27 29 -6 45 65 48 47 2 62 7 62 18 0 12 -16 16 -72 18 -40 2 -73 6 -73
11 0 4 14 20 30 36 30 28 37 65 15 72 -15 5 -60 -38 -82 -77 -15 -27 -27 -36
-51 -38 -21 -2 -32 1 -33 10 -2 26 3 53 13 66 7 8 7 17 -2 27 -16 20 -27 19
-38 -2z"/>
</g>
</svg>
