<svg version="1.0" xmlns="http://www.w3.org/2000/svg"
 width="68.000000pt" height="85.000000pt" viewBox="0 0 68.000000 85.000000"
 preserveAspectRatio="xMidYMid meet">
<metadata>
Created by potrace 1.15, written by Peter Selinger 2001-2017
</metadata>
<g transform="translate(0.000000,85.000000) scale(0.100000,-0.100000)"
fill="#000000" stroke="none">
<path d="M109 571 c-29 -29 -29 -29 -29 -285 0 -253 4 -286 33 -257 8 8 14 90
17 258 5 223 7 247 23 257 15 9 21 7 33 -8 11 -16 14 -68 14 -274 0 -198 3
-253 13 -250 33 11 37 50 35 293 -3 211 -5 244 -21 268 -25 39 -78 38 -118 -2z"/>
<path d="M365 593 c-63 -5 -85 -12 -85 -27 0 -10 20 -17 63 -23 57 -7 62 -10
62 -33 0 -23 -5 -26 -51 -31 -29 -4 -57 -10 -63 -13 -16 -10 -15 -432 1 -442
6 -4 17 0 23 10 7 9 19 14 29 10 10 -4 29 8 57 35 40 42 40 42 77 20 20 -12
45 -31 54 -41 16 -18 18 -18 24 -3 10 24 -16 66 -54 88 -31 18 -33 23 -30 66
3 46 3 46 42 49 24 2 42 -2 47 -10 5 -7 9 -54 9 -105 0 -94 9 -118 36 -92 19
20 8 404 -13 425 -9 9 -35 14 -69 14 -53 0 -54 0 -54 30 0 29 2 30 44 30 24 0
51 3 60 6 21 8 21 30 0 38 -16 6 -135 6 -209 -1z m195 -183 c0 -28 -2 -30 -40
-30 -27 0 -43 5 -46 15 -12 30 4 45 46 45 38 0 40 -2 40 -30z m-142 -2 c-3
-20 -10 -23 -50 -26 -35 -2 -48 1 -48 10 0 24 23 38 63 38 34 0 38 -2 35 -22z
m142 -84 c0 -23 -3 -25 -42 -22 -47 3 -61 23 -26 37 45 18 68 13 68 -15z
m-145 -9 c0 -17 -8 -20 -47 -23 -46 -3 -48 -2 -48 23 0 25 2 26 48 23 39 -3
47 -6 47 -23z m15 -78 c0 -7 -6 -21 -13 -31 -11 -16 -17 -16 -55 -4 -28 9 -42
19 -42 30 0 15 9 18 55 18 39 0 55 -4 55 -13z m-56 -73 c9 -8 16 -20 16 -26 0
-15 -53 -68 -62 -62 -4 3 -8 27 -8 55 0 42 3 49 19 49 11 0 27 -7 35 -16z"/>
</g>
</svg>
