<svg version="1.0" xmlns="http://www.w3.org/2000/svg"
 width="68.000000pt" height="86.000000pt" viewBox="0 0 68.000000 86.000000"
 preserveAspectRatio="xMidYMid meet">
<metadata>
Created by potrace 1.15, written by Peter Selinger 2001-2017
</metadata>
<g transform="translate(0.000000,86.000000) scale(0.100000,-0.100000)"
fill="#000000" stroke="none">
<path d="M147 623 c-88 -6 -69 -27 27 -31 77 -3 77 -3 74 -40 -3 -37 -3 -37
-76 -42 -50 -3 -76 -10 -82 -20 -5 -8 -10 -54 -10 -101 0 -107 10 -119 94
-119 57 0 57 0 54 -28 -3 -25 -7 -27 -54 -30 -71 -4 -86 -22 -82 -98 3 -51 6
-59 23 -59 17 0 21 8 25 50 6 61 15 75 44 75 35 0 46 -20 46 -86 0 -61 9 -77
38 -67 8 3 12 28 12 78 0 73 0 73 39 80 22 4 44 12 50 18 5 7 11 103 13 215 3
202 3 202 -19 202 -23 0 -23 -1 -23 -164 0 -201 -4 -226 -36 -226 -24 0 -24 0
-24 124 0 73 4 127 10 131 6 3 10 35 10 70 0 69 -6 77 -63 73 -18 -1 -58 -3
-90 -5z m91 -175 c-3 -20 -10 -23 -55 -26 -46 -3 -53 -1 -53 16 0 28 8 32 62
32 45 0 49 -2 46 -22z m0 -95 c-3 -38 -3 -38 -50 -41 -37 -2 -48 0 -48 12 0 8
-3 21 -6 30 -7 19 25 34 74 35 32 1 33 0 30 -36z"/>
<path d="M476 591 c-49 -10 -43 -29 11 -33 46 -3 48 -4 51 -35 3 -34 8 -32
-78 -49 -14 -3 -28 -11 -32 -17 -4 -7 -8 -78 -8 -158 0 -110 3 -149 13 -158
26 -21 37 9 37 96 0 72 2 83 18 83 33 0 40 -15 42 -90 5 -128 6 -127 -42 -134
-56 -9 -77 -21 -61 -37 15 -15 129 -7 146 10 17 17 23 233 6 273 -12 29 -14
30 -60 24 -26 -4 -50 -3 -52 2 -10 15 9 77 23 79 102 13 119 29 100 91 -19 59
-41 69 -114 53z"/>
</g>
</svg>
