<svg version="1.0" xmlns="http://www.w3.org/2000/svg"
 width="66.000000pt" height="125.000000pt" viewBox="0 0 66.000000 125.000000"
 preserveAspectRatio="xMidYMid meet">
<metadata>
Created by potrace 1.15, written by Peter Selinger 2001-2017
</metadata>
<g transform="translate(0.000000,125.000000) scale(0.100000,-0.100000)"
fill="#000000" stroke="none">
<path d="M80 1180 c0 -11 5 -20 10 -20 6 0 10 -7 10 -16 0 -18 13 -31 53 -57
27 -17 27 -18 10 -42 -10 -13 -21 -25 -24 -25 -4 0 -21 -13 -39 -30 -18 -16
-37 -30 -44 -30 -6 0 -22 -9 -36 -20 -19 -15 -22 -22 -13 -31 19 -19 94 22
164 92 64 63 77 67 103 27 12 -20 -8 -87 -43 -142 -24 -37 -27 -38 -70 -33
-52 6 -101 -20 -101 -53 0 -10 -4 -21 -8 -24 -10 -6 -14 -86 -6 -138 8 -54 36
-81 92 -88 42 -4 47 -8 47 -30 0 -20 -7 -27 -40 -38 -59 -18 -101 -70 -109
-135 -17 -126 -18 -223 -2 -236 23 -19 37 18 36 92 -3 120 10 188 43 224 29
32 87 47 87 23 0 -5 5 -10 10 -10 6 0 10 7 10 15 0 8 16 22 36 30 38 16 84 61
84 83 0 6 4 12 10 12 15 0 6 206 -10 225 -21 25 -29 0 -29 -80 0 -38 -3 -87
-6 -107 -4 -31 -2 -38 12 -38 21 0 10 -12 -39 -39 -37 -20 -37 -20 -49 21 -6
23 -8 55 -5 72 3 17 8 55 10 85 7 73 42 181 58 181 5 0 8 7 8 15 0 8 5 15 10
15 6 0 10 9 10 19 0 11 5 23 10 26 18 11 10 55 -16 84 -14 16 -46 37 -72 47
-62 23 -111 55 -118 77 -8 24 -44 22 -44 -3z m120 -394 c0 -8 -4 -26 -10 -40
-8 -23 -15 -26 -60 -26 -50 0 -50 0 -50 33 0 19 3 37 7 40 3 4 30 7 60 7 39 0
53 -4 53 -14z m-12 -128 c5 -40 -14 -68 -46 -68 -40 0 -50 11 -58 58 -7 43 -7
43 47 40 50 -3 54 -5 57 -30z"/>
<path d="M578 1058 c-3 -53 -3 -53 -83 -56 -74 -3 -105 -12 -105 -33 0 -5 43
-9 96 -9 97 0 97 0 91 -46 -6 -54 -12 -59 -79 -67 -28 -4 -56 -11 -64 -18 -36
-29 -49 -205 -19 -236 8 -8 15 -18 15 -23 0 -13 59 -30 106 -30 40 0 44 -2 44
-25 0 -26 -77 -187 -92 -193 -10 -5 -11 -142 0 -142 4 0 8 -9 9 -20 2 -28 47
-84 93 -114 46 -30 56 -32 64 -10 6 16 -39 63 -60 64 -18 0 -52 81 -60 138 -6
44 -3 59 21 103 40 77 48 91 68 113 20 23 23 91 4 110 -14 15 -45 23 -113 31
-52 7 -63 16 -65 55 0 14 -2 39 -4 55 -1 17 -1 44 2 61 5 31 6 32 77 39 78 7
85 10 102 40 12 23 13 233 1 253 -5 6 -17 12 -27 12 -16 0 -19 -9 -22 -52z"/>
<path d="M201 421 c-11 -7 -12 -39 -6 -177 7 -171 15 -205 42 -182 14 11 13
89 -3 218 -2 19 -4 61 -5 93 -2 59 -4 63 -28 48z"/>
</g>
</svg>
