<svg version="1.0" xmlns="http://www.w3.org/2000/svg"
 width="66.000000pt" height="134.000000pt" viewBox="0 0 66.000000 134.000000"
 preserveAspectRatio="xMidYMid meet">
<metadata>
Created by potrace 1.15, written by Peter Selinger 2001-2017
</metadata>
<g transform="translate(0.000000,134.000000) scale(0.100000,-0.100000)"
fill="#000000" stroke="none">
<path d="M404 1163 c-20 -20 -40 -48 -45 -62 -12 -29 -2 -81 14 -81 19 0 67
-46 67 -63 0 -10 -15 -21 -39 -28 -35 -10 -41 -9 -80 16 -30 20 -45 25 -53 17
-20 -20 92 -78 143 -73 32 3 38 -13 31 -92 -5 -58 -5 -58 -60 -55 -56 3 -56 3
-57 48 0 33 -4 45 -15 45 -12 0 -15 -14 -15 -65 -1 -36 -5 -107 -9 -157 -6
-61 -5 -93 1 -93 18 0 31 24 35 60 3 35 3 35 61 38 57 3 57 3 57 -27 0 -16 5
-33 10 -36 16 -10 40 14 40 41 0 26 28 39 65 30 19 -5 24 -15 30 -56 6 -40 11
-50 26 -50 22 0 22 8 9 100 -16 113 -12 222 9 243 7 7 7 15 0 24 -19 22 -39
15 -50 -17 -9 -24 -17 -30 -39 -30 -16 0 -35 3 -44 6 -22 9 -21 63 1 71 51 20
111 112 96 149 -11 30 -38 10 -44 -33 -6 -50 -6 -49 -42 -58 -20 -5 -27 -3
-27 7 0 21 -43 58 -67 58 -32 0 -35 36 -7 69 13 15 20 32 16 36 -4 5 0 6 8 3
9 -3 24 0 34 8 17 12 17 14 3 28 -21 22 -22 21 -63 -21z m166 -383 c0 -33 -68
-47 -86 -18 -13 21 6 38 46 38 34 0 40 -3 40 -20z m-125 -77 c13 -35 -17 -52
-82 -44 -27 3 -33 8 -33 26 0 18 6 24 28 27 51 6 82 3 87 -9z m123 -15 c3 -26
1 -28 -36 -28 -33 0 -41 4 -45 22 -8 27 8 39 48 36 25 -3 31 -8 33 -30z"/>
<path d="M521 1114 c13 -16 39 -19 39 -5 0 5 -11 11 -25 13 -20 4 -23 3 -14
-8z"/>
<path d="M22 1088 c3 -7 16 -14 30 -16 32 -4 37 -22 27 -96 -7 -53 -4 -99 6
-117 3 -4 -2 -26 -10 -49 -8 -23 -14 -51 -13 -63 1 -12 -3 -38 -9 -57 -7 -19
-14 -123 -17 -230 -3 -107 -8 -222 -11 -255 -7 -71 5 -119 29 -123 14 -3 17 1
11 17 -3 12 -2 21 3 21 6 0 11 60 12 153 2 198 6 324 14 417 3 41 8 107 11
145 10 146 17 210 25 218 4 5 18 6 30 2 21 -7 22 -9 15 -158 -9 -219 -9 -239
-2 -272 4 -16 2 -32 -3 -35 -5 -3 -10 -108 -11 -233 -2 -190 0 -230 12 -237
11 -7 11 -12 1 -22 -13 -13 -17 -74 -4 -82 4 -2 14 -1 20 3 17 11 18 607 1
628 -7 8 -7 13 -2 13 11 0 19 57 28 195 3 44 7 108 9 142 4 59 3 64 -24 83
-22 16 -44 20 -105 20 -57 0 -76 -3 -73 -12z"/>
<path d="M400 525 c0 -12 5 -15 20 -10 11 4 20 2 20 -4 0 -6 10 -11 23 -11 23
0 83 -19 105 -33 16 -11 15 -35 -3 -53 -13 -14 -19 -13 -52 4 -38 20 -121 41
-178 45 -54 4 -39 -18 24 -33 33 -9 63 -19 67 -23 4 -4 18 -7 31 -7 14 0 32
-7 40 -16 14 -14 14 -17 0 -31 -18 -18 -128 -23 -149 -6 -19 15 -61 23 -76 14
-17 -10 12 -36 53 -46 48 -13 153 -14 190 -2 53 16 62 2 69 -111 8 -149 10
-162 22 -162 29 0 36 30 30 122 -7 119 -16 178 -27 178 -5 0 -9 9 -9 20 0 11
-6 20 -12 20 -7 0 -2 7 10 16 16 11 22 25 22 54 0 36 -3 40 -37 51 -21 6 -60
15 -88 19 -27 4 -60 11 -72 15 -18 6 -23 3 -23 -10z"/>
<path d="M270 223 c-29 -13 -32 -16 -17 -24 9 -6 29 -10 44 -10 59 -2 234 9
239 14 18 18 -16 27 -94 26 -48 0 -98 2 -112 4 -14 3 -41 -1 -60 -10z"/>
</g>
</svg>
