<svg version="1.0" xmlns="http://www.w3.org/2000/svg"
 width="81.000000pt" height="155.000000pt" viewBox="0 0 81.000000 155.000000"
 preserveAspectRatio="xMidYMid meet">
<metadata>
Created by potrace 1.15, written by Peter Selinger 2001-2017
</metadata>
<g transform="translate(0.000000,155.000000) scale(0.100000,-0.100000)"
fill="#000000" stroke="none">
<path d="M700 1433 c-19 -2 -82 -12 -140 -23 -110 -22 -169 -32 -285 -50 -66
-11 -140 -28 -158 -38 -18 -9 15 -31 36 -23 12 5 33 7 47 5 14 -1 35 -3 46 -3
12 -1 44 -21 70 -46 27 -25 55 -45 62 -45 6 0 12 -4 12 -8 0 -4 12 -15 28 -24
24 -15 60 -49 120 -114 17 -19 33 -46 64 -107 5 -11 10 -168 10 -350 1 -332 1
-332 -25 -382 -42 -84 -120 -155 -170 -155 -14 0 -29 -4 -32 -10 -3 -6 -48
-10 -99 -10 -141 0 -185 26 -200 116 -6 36 -4 44 21 70 40 41 73 56 119 52 36
-3 39 -6 42 -36 3 -34 -13 -47 -73 -55 -39 -5 -30 -22 14 -25 33 -3 42 2 65
28 32 39 33 63 4 90 -33 31 -136 25 -174 -10 -73 -69 -65 -183 15 -232 31 -18
52 -21 141 -22 107 -1 181 15 240 53 35 23 110 103 110 118 0 7 4 13 8 13 31
0 52 407 36 680 -10 159 18 406 49 436 4 4 7 15 7 24 0 10 9 29 20 43 20 25
26 48 13 45 -5 0 -24 -3 -43 -5z m-29 -43 c16 0 29 -2 29 -5 0 -2 -11 -28 -24
-57 -13 -29 -30 -77 -36 -105 -7 -29 -15 -53 -18 -53 -4 1 -23 26 -42 56 -19
31 -52 70 -72 88 -38 33 -38 33 1 44 21 7 48 12 60 12 11 0 21 4 21 9 0 5 9 7
20 4 15 -4 20 0 21 13 0 11 3 14 6 7 2 -7 18 -13 34 -13z m-236 -66 c39 -18
169 -150 179 -181 4 -13 4 -55 0 -94 -7 -71 -7 -71 -35 -12 -15 32 -48 82 -73
111 -25 29 -49 59 -53 65 -9 15 -88 77 -97 77 -4 0 -19 8 -34 18 -26 17 -26
17 18 23 25 3 49 7 53 7 5 1 24 -5 42 -14z"/>
<path d="M269 853 c-15 -2 -44 -19 -65 -37 -35 -30 -38 -37 -42 -97 -3 -53 -1
-68 16 -86 24 -29 79 -52 138 -59 54 -6 125 24 152 64 33 51 20 176 -21 202
-21 13 -124 21 -178 13z m106 -33 c3 -5 17 -10 30 -10 19 0 26 -8 34 -37 15
-52 14 -69 -5 -106 -24 -46 -38 -57 -90 -66 -55 -10 -98 0 -131 31 -19 17 -23
32 -23 77 0 50 4 59 32 88 29 28 40 32 90 32 31 1 60 -3 63 -9z"/>
<path d="M294 735 c-6 -15 17 -45 34 -45 17 0 33 27 26 44 -8 20 -53 21 -60 1z"/>
</g>
</svg>
