<svg version="1.0" xmlns="http://www.w3.org/2000/svg"
 width="70.000000pt" height="86.000000pt" viewBox="0 0 70.000000 86.000000"
 preserveAspectRatio="xMidYMid meet">
<metadata>
Created by potrace 1.15, written by Peter Selinger 2001-2017
</metadata>
<g transform="translate(0.000000,86.000000) scale(0.100000,-0.100000)"
fill="#000000" stroke="none">
<path d="M310 741 c-75 -20 -117 -40 -144 -70 -14 -15 -16 -25 -9 -32 8 -8 29
-2 74 19 94 45 155 63 184 56 31 -8 31 -9 0 -45 -13 -16 -27 -46 -31 -66 -6
-31 -3 -39 16 -55 30 -24 50 -23 114 9 88 43 104 20 65 -98 -24 -77 -35 -151
-24 -176 5 -10 7 -22 6 -26 -1 -4 4 -37 11 -72 9 -52 15 -65 30 -65 22 0 22 7
2 78 -20 69 -14 171 17 257 34 96 34 108 4 143 -15 18 -33 32 -40 32 -8 0 -40
-16 -72 -35 -66 -40 -67 -40 -86 -20 -21 20 -11 47 29 89 19 19 34 39 34 45 0
19 -53 51 -84 50 -17 0 -60 -8 -96 -18z"/>
<path d="M144 529 c-8 -13 13 -29 37 -29 9 0 19 -7 22 -15 6 -15 2 -16 -103
-30 -77 -10 -101 -51 -25 -43 25 3 47 2 50 -2 2 -4 -11 -22 -30 -40 -35 -34
-45 -60 -24 -60 6 0 25 16 42 35 38 44 55 44 59 3 2 -21 8 -33 18 -33 11 0 15
12 15 52 0 37 5 57 18 70 15 15 19 16 27 3 5 -8 6 -28 4 -45 -5 -30 -5 -30 15
-6 12 13 21 31 21 41 0 39 11 50 51 50 36 0 39 -2 50 -40 13 -42 2 -70 -28
-70 -33 0 -113 -33 -113 -47 0 -12 8 -13 42 -8 36 6 40 5 35 -10 -4 -9 -7 -19
-7 -21 0 -2 -7 -4 -16 -4 -35 0 -94 -24 -94 -38 0 -11 8 -13 35 -8 19 4 35 5
35 3 0 -2 -11 -32 -26 -66 -27 -67 -28 -106 -5 -106 9 0 19 19 26 52 13 59 41
106 58 100 7 -2 18 -16 25 -30 15 -30 42 -36 42 -10 0 9 -12 34 -26 55 -26 37
-26 39 -9 58 25 28 34 25 51 -15 14 -35 44 -48 44 -20 0 9 -9 33 -20 55 -16
32 -18 44 -9 69 20 56 -4 114 -58 145 -7 4 -32 1 -57 -5 -38 -9 -53 -9 -86 5
-47 19 -76 20 -86 5z"/>
</g>
</svg>
