<svg version="1.0" xmlns="http://www.w3.org/2000/svg"
 width="87.000000pt" height="113.000000pt" viewBox="0 0 87.000000 113.000000"
 preserveAspectRatio="xMidYMid meet">
<metadata>
Created by potrace 1.15, written by Peter Selinger 2001-2017
</metadata>
<g transform="translate(0.000000,113.000000) scale(0.100000,-0.100000)"
fill="#000000" stroke="none">
<path d="M151 1011 c-8 -5 -11 -16 -8 -24 4 -12 47 -16 235 -22 126 -4 239 -4
251 0 12 3 21 15 21 26 0 10 -1 19 -2 20 -16 7 -487 6 -497 0z"/>
<path d="M144 839 c-14 -23 25 -44 79 -42 29 2 66 3 82 3 17 -1 100 -2 185 -3
155 -2 155 -2 158 23 3 26 3 26 -247 28 -172 1 -252 -2 -257 -9z"/>
<path d="M195 699 c-16 -3 -49 -7 -71 -8 -62 -2 -86 -41 -26 -41 48 0 92 -22
92 -46 0 -43 -10 -54 -52 -54 -37 0 -68 -17 -68 -38 0 -14 26 -22 72 -22 40 0
40 0 33 -42 -9 -50 -20 -60 -56 -54 -18 3 -35 -2 -50 -15 -31 -27 -13 -38 52
-32 49 5 49 5 49 -40 0 -41 -21 -79 -36 -65 -3 3 -24 0 -47 -7 -60 -18 -55
-39 11 -43 57 -3 64 -15 40 -67 -9 -21 -9 -29 4 -42 20 -20 48 -10 48 16 0 11
4 23 10 26 5 3 10 19 10 35 0 26 5 31 40 40 22 6 40 13 40 16 0 15 -32 34 -56
34 -25 0 -26 2 -20 32 9 47 33 68 78 68 31 0 38 3 38 20 0 17 -7 20 -44 20
-25 0 -48 5 -51 11 -4 6 -4 30 -1 54 6 40 10 43 42 50 40 7 41 24 1 43 -15 7
-27 17 -27 22 0 18 22 65 33 72 20 13 87 9 87 -4 0 -9 3 -9 8 -3 4 6 34 12 67
14 155 8 155 8 155 -31 0 -18 7 -45 14 -60 14 -27 14 -28 -22 -38 -20 -5 -45
-10 -56 -10 -12 0 -16 -5 -12 -16 3 -9 6 -18 6 -20 0 -2 22 -4 49 -4 48 0 48
0 55 -47 7 -50 5 -55 -22 -59 -48 -5 -82 -18 -82 -29 0 -17 23 -25 75 -25 23
0 47 -6 52 -13 13 -17 33 -89 28 -97 -3 -4 -23 -8 -45 -8 -82 -1 -82 -29 0
-38 49 -5 60 -10 60 -25 0 -20 46 -79 62 -79 6 0 8 22 6 52 -3 52 -3 52 40 62
24 6 43 16 43 21 0 6 -21 14 -48 19 -75 13 -73 11 -73 65 0 47 2 51 28 57 30
7 52 22 52 34 0 10 -58 25 -81 21 -13 -1 -18 10 -24 44 -7 49 0 69 15 45 8
-13 10 -12 10 3 0 9 5 17 10 17 6 0 10 9 10 20 0 15 -9 22 -30 26 -32 7 -63
34 -39 34 9 0 10 3 3 8 -6 4 -14 22 -17 40 -7 35 -7 35 56 32 41 -2 58 19 37
44 -9 12 -49 14 -218 11 -114 -2 -211 -4 -217 -5 -5 -1 -30 1 -55 3 -25 2 -58
0 -75 -4z"/>
</g>
</svg>
