<svg version="1.0" xmlns="http://www.w3.org/2000/svg"
 width="135.000000pt" height="151.000000pt" viewBox="0 0 135.000000 151.000000"
 preserveAspectRatio="xMidYMid meet">
<metadata>
Created by potrace 1.15, written by Peter Selinger 2001-2017
</metadata>
<g transform="translate(0.000000,151.000000) scale(0.100000,-0.100000)"
fill="#000000" stroke="none">
<path d="M1189 1336 c-2 -3 -87 -6 -189 -7 -168 -2 -275 -11 -289 -24 -12 -13
20 -25 77 -31 34 -4 63 -10 63 -13 1 -3 3 -19 4 -36 2 -16 6 -54 10 -84 10
-97 -24 -281 -70 -376 -28 -56 -53 -73 -153 -105 -43 -13 -70 -35 -59 -47 14
-13 237 45 262 68 5 5 15 9 22 9 8 0 48 16 89 36 96 45 157 107 178 178 17 61
56 298 56 343 0 30 3 33 54 47 30 9 59 16 65 16 17 0 13 17 -5 24 -18 7 -108
8 -115 2z m-63 -77 c8 -13 -13 -216 -28 -274 -6 -22 -15 -51 -21 -63 -14 -30
-104 -122 -136 -140 -33 -19 -103 -43 -98 -34 9 19 31 69 38 87 14 37 29 125
29 179 0 29 3 56 8 60 7 8 8 10 10 118 2 77 -2 74 119 77 43 0 75 -3 79 -10z"/>
<path d="M1006 1138 c-14 -119 -18 -228 -8 -228 35 0 70 238 40 268 -20 20
-26 14 -32 -40z"/>
<path d="M346 1302 c-3 -5 -23 -14 -44 -21 -37 -13 -66 -32 -120 -83 -69 -64
-85 -193 -40 -313 19 -50 107 -128 158 -142 167 -43 190 -42 296 13 126 66
154 110 156 252 2 103 -19 154 -79 198 -21 15 -49 40 -63 54 -14 15 -35 32
-47 38 -25 14 -209 16 -217 4z m202 -59 c42 -31 49 -49 32 -81 -10 -17 -26
-28 -42 -30 -21 -3 -32 6 -59 42 -34 49 -37 50 -57 37 -11 -6 -9 -17 10 -54
26 -51 43 -65 92 -73 38 -6 79 11 110 45 26 28 29 27 50 -16 40 -83 30 -197
-21 -248 -44 -43 -79 -58 -106 -44 -46 24 -48 51 -8 97 16 17 35 32 43 32 24
0 29 12 10 26 -26 20 -52 17 -89 -12 -40 -30 -66 -78 -58 -105 4 -11 17 -31
31 -46 13 -14 21 -29 18 -34 -8 -13 -131 -11 -178 3 -46 14 -106 69 -127 116
-8 18 -17 32 -21 32 -24 0 2 119 26 121 60 6 105 -14 106 -47 0 -6 -13 -31
-29 -55 -25 -36 -27 -45 -15 -52 10 -6 25 2 49 28 29 29 35 43 35 78 -1 68
-44 107 -119 107 -23 0 -41 3 -41 6 0 7 39 63 55 80 59 61 246 90 303 47z"/>
<path d="M90 771 c0 -24 38 -113 52 -122 5 -3 10 -44 11 -90 1 -82 -7 -116
-47 -211 -23 -53 -3 -47 35 10 18 26 36 49 39 52 4 3 16 28 26 56 19 51 19 51
84 19 161 -80 159 -79 160 -150 0 -59 -44 -199 -71 -226 -11 -11 -33 -19 -54
-19 -40 0 -115 -21 -115 -32 0 -5 96 -9 213 -10 116 -1 226 -2 242 -4 268 -19
387 -15 364 12 -7 8 -30 14 -58 14 -34 0 -53 6 -71 23 -36 32 -75 115 -71 153
1 11 -3 40 -8 65 -17 75 -6 93 83 139 43 22 84 40 92 40 8 0 14 4 14 8 0 5 11
14 24 22 26 14 45 4 58 -30 13 -32 69 -100 83 -100 8 0 15 -4 15 -10 0 -5 9
-10 20 -10 26 0 25 11 -1 44 -44 56 -100 179 -99 215 5 109 -4 121 -39 53 -27
-53 -66 -90 -159 -151 -68 -44 -94 -55 -158 -67 -101 -17 -266 -11 -325 12
-75 30 -158 83 -186 121 -16 19 -37 45 -48 57 -23 25 -54 74 -61 96 -3 9 -14
21 -25 28 -16 10 -19 9 -19 -7z m667 -431 c6 -36 8 -68 6 -72 -2 -5 -60 -8
-129 -8 -124 0 -124 0 -123 43 2 81 9 91 64 97 28 3 78 5 111 5 61 1 61 1 71
-65z m49 -187 c13 -31 24 -57 24 -60 0 -7 -374 9 -383 17 -4 4 4 22 20 41 15
19 32 40 38 46 7 9 49 12 143 12 133 -1 133 -1 158 -56z"/>
</g>
</svg>
