<svg version="1.0" xmlns="http://www.w3.org/2000/svg"
 width="51.000000pt" height="125.000000pt" viewBox="0 0 51.000000 125.000000"
 preserveAspectRatio="xMidYMid meet">
<metadata>
Created by potrace 1.15, written by Peter Selinger 2001-2017
</metadata>
<g transform="translate(0.000000,125.000000) scale(0.100000,-0.100000)"
fill="#000000" stroke="none">
<path d="M216 1078 c-3 -7 -7 -25 -10 -40 -3 -15 -13 -33 -21 -42 -8 -8 -15
-22 -15 -30 0 -9 -4 -16 -10 -16 -22 0 -10 -88 20 -145 17 -31 30 -70 30 -86
0 -16 4 -29 9 -29 20 0 30 -178 16 -303 -6 -52 -4 -61 16 -83 29 -31 27 -74
-5 -147 -22 -50 -22 -55 -6 -49 33 13 70 47 70 64 0 28 13 21 39 -22 14 -22
31 -42 39 -45 21 -8 7 59 -24 112 -28 48 -30 67 -9 107 23 43 18 67 -20 110
-19 21 -35 40 -35 41 0 2 -7 39 -15 82 -17 90 -20 179 -5 188 5 3 10 14 10 25
0 10 7 20 15 24 8 3 15 12 15 21 0 9 10 33 22 54 22 38 22 38 -25 112 -64 102
-92 128 -101 97z m74 -132 c0 -3 -4 -8 -10 -11 -5 -3 -10 -1 -10 4 0 6 5 11
10 11 6 0 10 -2 10 -4z m-60 -27 c0 -5 -4 -9 -10 -9 -5 0 -10 7 -10 16 0 8 5
12 10 9 6 -3 10 -10 10 -16z m0 -77 c0 -15 -2 -15 -10 -2 -13 20 -13 33 0 25
6 -3 10 -14 10 -23z m80 -462 c0 -10 -5 -22 -10 -25 -13 -8 -24 20 -16 41 8
20 26 9 26 -16z"/>
</g>
</svg>
