<svg version="1.0" xmlns="http://www.w3.org/2000/svg"
 width="61.000000pt" height="85.000000pt" viewBox="0 0 61.000000 85.000000"
 preserveAspectRatio="xMidYMid meet">
<metadata>
Created by potrace 1.15, written by Peter Selinger 2001-2017
</metadata>
<g transform="translate(0.000000,85.000000) scale(0.100000,-0.100000)"
fill="#000000" stroke="none">
<path d="M180 611 c0 -69 -7 -81 -44 -81 -43 0 -52 9 -51 55 0 31 -4 40 -19
43 -25 5 -36 -14 -36 -63 0 -81 14 -85 274 -85 220 0 252 6 210 38 -15 11 -43
13 -139 9 -126 -6 -155 0 -155 33 0 26 39 32 175 28 93 -2 110 -1 110 12 0 12
-23 15 -132 18 -120 2 -134 4 -143 22 -6 11 -20 20 -30 20 -17 0 -20 -7 -20
-49z"/>
<path d="M62 423 c-15 -29 -25 -322 -12 -338 24 -28 40 -5 40 56 0 59 0 59 35
59 34 0 34 0 37 -68 3 -59 5 -67 23 -67 19 0 20 9 28 170 7 166 7 170 -14 188
-14 11 -39 17 -75 17 -41 0 -55 -4 -62 -17z m89 -23 c11 -6 19 -21 19 -36 0
-23 -3 -25 -37 -22 -43 3 -58 33 -27 55 21 16 20 16 45 3z m9 -131 c0 -28 -2
-30 -32 -27 -28 2 -34 8 -36 31 -3 25 -1 27 32 27 33 0 36 -2 36 -31z"/>
<path d="M322 433 c-52 -3 -72 -7 -69 -16 2 -8 38 -14 103 -17 79 -4 99 -8 99
-20 0 -12 -19 -16 -92 -20 -88 -5 -114 -12 -99 -27 4 -4 57 -9 118 -12 125 -4
138 2 138 66 0 40 -22 54 -82 51 -24 -1 -76 -4 -116 -5z"/>
<path d="M302 273 c-54 -5 -52 -26 3 -33 55 -7 56 -27 1 -35 -59 -9 -59 -25
-1 -25 33 0 45 -4 45 -15 0 -11 -11 -15 -37 -15 -45 0 -69 -13 -58 -30 5 -8
21 -10 46 -6 36 6 39 4 39 -16 0 -32 15 -52 32 -45 10 3 17 27 21 68 14 125 6
162 -32 157 -9 -1 -35 -3 -59 -5z"/>
<path d="M424 255 c-18 -13 -17 -14 19 -15 47 0 50 -23 5 -40 -33 -13 -33 -13
-4 -19 39 -8 45 -29 10 -33 -39 -4 -42 -27 -5 -34 19 -4 31 -13 31 -23 0 -29
16 -44 39 -36 19 6 21 13 21 95 0 67 -4 92 -16 104 -19 20 -74 21 -100 1z"/>
</g>
</svg>
