<svg version="1.0" xmlns="http://www.w3.org/2000/svg"
 width="69.000000pt" height="78.000000pt" viewBox="0 0 69.000000 78.000000"
 preserveAspectRatio="xMidYMid meet">
<metadata>
Created by potrace 1.15, written by Peter Selinger 2001-2017
</metadata>
<g transform="translate(0.000000,78.000000) scale(0.100000,-0.100000)"
fill="#000000" stroke="none">
<path d="M417 704 c-4 -4 -7 -15 -7 -24 0 -10 -14 -23 -32 -31 -47 -18 -88
-48 -88 -64 0 -7 14 -15 30 -19 17 -3 43 -9 59 -12 18 -4 31 -14 34 -26 7 -26
31 -18 35 10 3 17 10 22 33 22 19 0 29 5 29 15 0 9 -9 15 -25 15 -14 0 -25 5
-25 10 0 15 10 13 80 -16 47 -19 66 -22 74 -14 17 17 -32 54 -98 75 -41 13
-56 23 -58 39 -3 21 -28 33 -41 20z m-9 -101 c-2 -11 -14 -19 -33 -21 -29 -4
-29 -4 -5 17 31 25 42 26 38 4z"/>
<path d="M80 646 c0 -8 12 -24 26 -35 27 -21 27 -21 10 -76 -19 -59 -15 -90
15 -105 22 -13 26 -50 4 -50 -8 0 -24 9 -35 20 -17 17 -20 33 -20 100 0 67 -3
80 -16 80 -15 0 -16 -11 -12 -88 6 -96 18 -125 61 -143 38 -16 32 -43 -11 -47
-34 -3 -45 -22 -13 -22 33 0 51 -11 51 -31 0 -20 -19 -27 -83 -31 -20 -2 -37
-7 -37 -13 0 -10 167 -9 203 1 26 8 10 24 -24 24 -24 0 -29 4 -29 24 0 18 6
25 23 28 27 4 26 22 -3 26 -27 5 -26 30 3 41 38 15 48 36 62 138 7 54 16 105
20 114 11 28 -12 30 -29 3 -11 -15 -19 -56 -23 -110 -5 -71 -10 -87 -27 -100
-19 -13 -21 -13 -24 1 -2 9 7 24 19 34 22 18 22 18 5 90 -18 72 -18 73 3 92
22 21 26 31 14 42 -4 4 -18 -4 -33 -18 -26 -25 -26 -25 -50 0 -26 28 -50 33
-50 11z m94 -147 c5 -29 3 -38 -10 -43 -34 -13 -45 20 -22 69 14 31 23 23 32
-26z"/>
<path d="M535 534 c27 -28 48 -64 41 -72 -4 -4 -15 3 -24 15 -16 21 -70 48
-79 40 -2 -2 11 -18 29 -35 39 -39 31 -51 -17 -23 -44 25 -46 26 -38 4 8 -23
29 -39 71 -58 27 -12 32 -19 32 -47 0 -22 -11 -45 -30 -68 -29 -35 -29 -35
-30 12 0 26 5 50 10 53 15 9 12 35 -3 35 -7 0 -28 -16 -47 -35 -31 -32 -32
-35 -12 -35 18 0 22 -6 22 -29 0 -29 0 -30 -27 -15 -25 12 -29 12 -39 -1 -10
-13 -13 -10 -18 17 -5 24 -2 36 14 51 12 10 20 26 18 35 -6 31 -26 22 -51 -23
-14 -25 -21 -45 -16 -45 5 0 9 -12 9 -26 0 -22 -2 -24 -15 -11 -8 9 -20 17
-26 19 -17 6 0 98 18 98 29 0 71 31 81 60 13 37 0 39 -30 5 -30 -35 -44 -31
-18 5 31 44 20 55 -20 21 -19 -17 -39 -30 -43 -31 -12 0 2 42 21 63 24 27 5
33 -23 7 -28 -26 -40 -71 -27 -97 10 -19 -9 -240 -24 -278 -4 -11 -19 -35 -32
-53 -30 -39 -22 -53 16 -26 36 27 64 86 70 146 5 53 11 57 35 30 23 -25 21
-34 -8 -62 -28 -26 -19 -54 10 -30 13 11 15 6 15 -45 0 -75 23 -71 30 6 4 46
7 51 16 35 12 -19 13 -19 39 -2 28 18 28 18 23 -33 -5 -54 3 -71 27 -51 10 9
13 24 8 57 -6 44 -5 45 15 34 12 -7 22 -16 22 -21 0 -6 7 -10 15 -10 25 0 17
27 -15 50 -36 25 -38 52 -8 82 22 22 22 22 43 -64 20 -85 45 -128 72 -128 17
0 17 15 -2 44 -16 24 -45 193 -45 263 0 32 5 45 20 53 28 15 26 61 -2 86 -46
39 -108 62 -73 28z m-90 -294 c17 -18 17 -21 1 -45 -19 -30 -24 -30 -48 -8
-22 20 -23 31 -1 55 20 23 26 23 48 -2z"/>
</g>
</svg>
