<svg version="1.0" xmlns="http://www.w3.org/2000/svg"
 width="72.000000pt" height="85.000000pt" viewBox="0 0 72.000000 85.000000"
 preserveAspectRatio="xMidYMid meet">
<metadata>
Created by potrace 1.15, written by Peter Selinger 2001-2017
</metadata>
<g transform="translate(0.000000,85.000000) scale(0.100000,-0.100000)"
fill="#000000" stroke="none">
<path d="M372 658 c-9 -33 -9 -33 -85 -31 -55 1 -82 6 -93 17 -36 37 -53 8
-45 -74 8 -81 21 -90 144 -90 80 0 87 -2 87 -20 0 -19 -7 -20 -105 -20 -87 0
-105 -3 -105 -15 0 -13 28 -15 189 -15 162 0 192 -2 206 -16 9 -9 14 -23 11
-31 -3 -8 -6 -15 -6 -16 0 -1 -44 1 -97 4 -54 4 -149 7 -211 8 -108 1 -112 0
-102 -18 9 -18 25 -20 194 -23 101 -2 188 -6 192 -11 21 -21 -25 -29 -182 -34
-138 -4 -171 -8 -181 -21 -17 -21 -17 -164 -1 -180 16 -16 150 -16 166 0 7 7
12 25 12 40 0 21 6 31 26 38 42 16 64 -3 64 -54 0 -52 22 -79 39 -47 17 30 14
107 -5 125 -18 18 -114 22 -143 6 -10 -5 -22 -25 -25 -45 -7 -34 -8 -35 -51
-35 -45 0 -45 0 -45 59 0 43 4 60 15 65 8 3 84 8 168 12 154 7 154 7 160 -41
4 -26 7 -74 7 -106 0 -60 11 -74 38 -47 15 15 16 135 2 196 -8 35 -7 55 7 98
15 50 15 55 0 72 -26 28 -92 45 -148 37 -45 -6 -49 -5 -49 14 0 20 5 21 89 21
105 0 116 7 126 79 8 59 1 87 -26 101 -20 11 -20 11 -33 -32 -2 -9 -24 -12
-75 -10 -60 3 -71 6 -71 21 0 17 -29 51 -43 51 -4 0 -10 -15 -15 -32z m-19
-77 c25 -1 28 -4 25 -28 -3 -27 -5 -28 -70 -31 -69 -3 -108 8 -108 31 0 31 19
34 153 28z m219 -19 c21 -21 -6 -34 -78 -35 -69 -2 -69 -2 -72 27 -4 28 -4 28
67 24 39 -2 76 -9 83 -16z"/>
</g>
</svg>
