<svg version="1.0" xmlns="http://www.w3.org/2000/svg"
 width="53.000000pt" height="99.000000pt" viewBox="0 0 53.000000 99.000000"
 preserveAspectRatio="xMidYMid meet">
<metadata>
Created by potrace 1.15, written by Peter Selinger 2001-2017
</metadata>
<g transform="translate(0.000000,99.000000) scale(0.100000,-0.100000)"
fill="#000000" stroke="none">
<path d="M406 878 c-3 -13 -6 -40 -6 -60 0 -23 -5 -38 -12 -39 -69 -7 -73 -5
-76 31 -3 42 -21 80 -37 80 -21 0 -43 -34 -47 -70 -3 -32 -6 -35 -39 -38 -35
-3 -37 -2 -43 35 -12 68 -16 73 -47 73 -29 0 -29 0 -29 -110 0 -65 5 -120 12
-137 15 -33 46 -66 71 -76 26 -10 21 -19 -28 -52 -50 -34 -69 -80 -80 -190
-11 -111 -2 -239 16 -251 5 -3 9 -14 9 -25 0 -23 25 -26 34 -3 3 9 6 47 6 85
0 38 3 69 8 69 4 0 16 -6 27 -13 11 -8 48 -20 82 -27 51 -10 67 -10 92 1 38
17 39 25 4 32 -64 11 -186 68 -172 80 14 13 70 36 101 42 38 7 66 30 54 43 -9
9 -113 7 -150 -2 -33 -8 -34 8 -5 61 39 71 48 74 199 72 161 -2 167 -2 154 10
-17 17 -84 51 -99 51 -8 0 -15 5 -15 10 0 6 7 10 15 10 25 0 45 44 65 139 19
93 17 124 -11 169 -18 28 -45 28 -53 0z m-176 -213 c0 -32 -4 -45 -14 -45 -15
0 -45 25 -47 38 0 4 -2 17 -5 30 -3 19 0 22 31 22 35 0 35 0 35 -45z m162 18
c-5 -26 -36 -63 -52 -63 -9 0 -20 36 -20 68 0 19 5 22 39 22 36 0 38 -1 33
-27z"/>
</g>
</svg>
