<svg version="1.0" xmlns="http://www.w3.org/2000/svg"
 width="65.000000pt" height="127.000000pt" viewBox="0 0 65.000000 127.000000"
 preserveAspectRatio="xMidYMid meet">
<metadata>
Created by potrace 1.15, written by Peter Selinger 2001-2017
</metadata>
<g transform="translate(0.000000,127.000000) scale(0.100000,-0.100000)"
fill="#000000" stroke="none">
<path d="M234 1168 c3 -35 9 -84 12 -109 6 -45 6 -45 -40 -56 -42 -9 -49 -8
-78 13 -63 47 -73 24 -35 -91 12 -38 27 -77 32 -86 12 -21 107 -69 135 -69 21
0 24 -10 20 -65 -2 -39 -7 -43 -60 -54 -124 -25 -190 -46 -190 -62 0 -26 47
-29 109 -6 74 26 214 48 249 37 80 -23 102 -52 102 -131 0 -37 -5 -52 -26 -73
-32 -31 -50 -33 -59 -7 -9 28 -60 81 -78 81 -9 0 -19 5 -22 10 -17 28 -222 -5
-233 -37 -5 -16 84 -18 93 -3 9 15 92 12 123 -4 38 -20 64 -54 60 -78 -4 -25
-53 -39 -200 -58 -99 -13 -121 -24 -71 -36 23 -6 191 5 268 18 18 3 21 -4 25
-57 3 -33 14 -78 26 -100 23 -44 89 -88 144 -98 36 -6 81 5 64 15 -46 28 -87
48 -98 48 -29 0 -56 46 -66 115 -15 108 -15 110 29 130 59 26 88 95 82 196 0
14 -15 40 -32 58 -34 36 -66 51 -138 65 -21 4 -41 37 -41 68 0 22 5 28 21 28
31 0 58 18 105 69 48 51 57 80 58 186 1 64 -1 70 -24 82 -24 12 -25 11 -28
-21 -4 -45 -15 -52 -88 -61 -61 -7 -61 -7 -67 22 -3 15 -4 49 -1 75 3 40 0 51
-25 77 -16 17 -37 31 -46 31 -15 0 -17 -8 -11 -62z m200 -184 c18 -7 23 -74 6
-74 -5 0 -10 -6 -10 -12 -1 -22 -26 -47 -64 -63 -36 -15 -36 -15 -36 59 0 75
0 75 43 84 23 6 43 10 44 11 1 1 8 -2 17 -5z m-166 -91 c3 -54 1 -63 -15 -63
-25 0 -83 60 -83 86 0 28 26 45 65 41 30 -2 30 -3 33 -64z"/>
</g>
</svg>
