<svg version="1.0" xmlns="http://www.w3.org/2000/svg"
 width="65.000000pt" height="80.000000pt" viewBox="0 0 65.000000 80.000000"
 preserveAspectRatio="xMidYMid meet">
<metadata>
Created by potrace 1.15, written by Peter Selinger 2001-2017
</metadata>
<g transform="translate(0.000000,80.000000) scale(0.100000,-0.100000)"
fill="#000000" stroke="none">
<path d="M300 551 c-5 -11 -10 -26 -10 -35 0 -21 -7 -24 -84 -36 -62 -10 -70
-9 -102 10 -39 25 -40 21 -17 -60 15 -57 15 -61 -5 -123 -12 -35 -22 -66 -22
-70 0 -17 31 -5 46 18 15 23 22 25 96 25 70 0 82 -3 97 -22 34 -41 40 -15 38
152 -1 120 -5 160 -14 160 -7 0 -17 -9 -23 -19z m-7 -114 c10 -26 -9 -36 -86
-43 -77 -7 -77 -7 -77 19 0 24 4 26 48 30 99 7 110 7 115 -6z m-5 -80 c6 -7 8
-18 3 -25 -9 -14 -146 -28 -154 -15 -11 18 11 34 59 42 72 12 80 12 92 -2z"/>
<path d="M435 550 c-11 -18 5 -30 41 -30 19 0 34 -4 34 -8 0 -18 -37 -40 -77
-47 -48 -8 -64 -23 -39 -37 9 -5 16 -21 16 -35 0 -14 5 -43 12 -65 10 -33 9
-44 -5 -68 -22 -36 -21 -52 3 -83 11 -14 20 -27 20 -30 0 -3 -16 -24 -35 -47
-36 -43 -46 -80 -21 -80 8 0 31 23 51 50 20 28 42 50 49 50 8 0 21 -20 30 -45
13 -32 23 -45 37 -45 26 0 24 21 -7 82 -26 50 -26 51 -7 85 18 33 18 34 -4 75
-23 41 -23 41 -2 74 18 30 19 38 8 68 -11 31 -10 38 4 54 23 25 21 47 -5 72
-23 21 -92 28 -103 10z m60 -160 c0 -40 -29 -55 -40 -21 -9 30 4 63 23 59 12
-2 17 -14 17 -38z m3 -146 c3 -23 -21 -49 -38 -39 -11 7 -14 48 -3 59 13 13
38 1 41 -20z"/>
<path d="M133 196 c-17 -8 -34 -23 -37 -34 -10 -32 19 -91 50 -103 32 -12 125
-2 149 15 23 16 30 86 12 110 -19 26 -127 33 -174 12z m132 -51 c0 -45 -103
-57 -126 -14 -16 31 -1 40 64 37 54 -3 62 -6 62 -23z"/>
</g>
</svg>
