<svg version="1.0" xmlns="http://www.w3.org/2000/svg"
 width="70.000000pt" height="91.000000pt" viewBox="0 0 70.000000 91.000000"
 preserveAspectRatio="xMidYMid meet">
<metadata>
Created by potrace 1.15, written by Peter Selinger 2001-2017
</metadata>
<g transform="translate(0.000000,91.000000) scale(0.100000,-0.100000)"
fill="#000000" stroke="none">
<path d="M333 703 c-10 -27 -21 -31 -93 -39 -82 -8 -95 -15 -120 -64 -17 -33
-21 -66 -26 -178 -6 -165 -20 -311 -34 -347 -7 -20 -7 -31 1 -41 26 -31 38
-15 64 82 3 11 9 116 14 233 8 163 13 218 25 236 19 29 66 37 227 39 162 1
154 12 155 -207 2 -215 29 -357 69 -357 19 0 19 9 -1 122 -12 71 -15 125 -10
226 8 172 -1 209 -56 241 -27 15 -64 25 -104 29 -51 4 -65 9 -69 23 -8 24 -34
25 -42 2z"/>
<path d="M233 568 c-5 -7 -17 -32 -27 -54 -24 -56 -15 -99 25 -113 24 -8 29
-16 29 -41 0 -37 39 -65 105 -75 57 -8 71 -25 52 -62 -22 -42 -54 -67 -135
-107 -77 -39 -90 -63 -32 -58 72 6 208 101 232 161 21 55 -25 111 -90 111 -10
0 -33 5 -51 11 -42 15 -39 46 4 41 16 -2 48 4 72 13 36 14 47 25 68 69 30 64
31 76 5 76 -12 0 -28 -16 -45 -44 -19 -32 -35 -47 -56 -51 -17 -4 -33 -4 -37
0 -4 3 6 28 21 55 32 57 34 80 7 80 -13 0 -27 -14 -41 -42 -35 -69 -58 -98
-74 -91 -21 7 -19 37 5 75 26 43 25 58 -4 58 -13 0 -28 -6 -33 -12z"/>
</g>
</svg>
