<svg version="1.0" xmlns="http://www.w3.org/2000/svg"
 width="70.000000pt" height="81.000000pt" viewBox="0 0 70.000000 81.000000"
 preserveAspectRatio="xMidYMid meet">
<metadata>
Created by potrace 1.15, written by Peter Selinger 2001-2017
</metadata>
<g transform="translate(0.000000,81.000000) scale(0.100000,-0.100000)"
fill="#000000" stroke="none">
<path d="M235 576 c-148 -26 -156 -44 -153 -338 3 -222 3 -223 25 -226 30 -4
32 6 35 255 2 173 6 215 18 226 31 30 285 50 343 28 34 -13 38 -36 51 -271 10
-195 12 -205 31 -205 20 0 20 6 17 234 -2 129 -7 241 -12 250 -23 44 -222 71
-355 47z"/>
<path d="M370 492 c0 -5 16 -23 35 -41 36 -32 41 -46 26 -70 -7 -10 -21 -5
-69 27 -66 44 -125 67 -147 58 -26 -10 -16 -23 43 -54 88 -48 119 -77 106 -98
-22 -36 -41 -40 -89 -16 -25 12 -52 22 -60 22 -43 0 19 -65 76 -80 39 -11 48
-10 81 9 20 11 39 17 42 13 3 -5 8 -57 12 -116 4 -59 11 -109 16 -112 5 -3 16
0 24 7 16 13 14 65 -6 203 -9 55 -8 61 15 88 33 39 32 76 -4 116 -37 39 -101
67 -101 44z"/>
<path d="M256 181 c-33 -3 -61 -11 -63 -18 -8 -23 31 -32 101 -23 70 9 93 20
82 39 -7 11 -21 12 -120 2z"/>
</g>
</svg>
