<svg version="1.0" xmlns="http://www.w3.org/2000/svg"
 width="72.000000pt" height="92.000000pt" viewBox="0 0 72.000000 92.000000"
 preserveAspectRatio="xMidYMid meet">
<metadata>
Created by potrace 1.15, written by Peter Selinger 2001-2017
</metadata>
<g transform="translate(0.000000,92.000000) scale(0.100000,-0.100000)"
fill="#000000" stroke="none">
<path d="M312 658 c-7 -7 -12 -25 -12 -40 0 -28 -1 -28 -64 -28 -53 0 -67 -4
-90 -25 -22 -21 -26 -33 -28 -90 -1 -36 -2 -75 -2 -87 -1 -18 5 -23 24 -23 24
0 25 3 28 73 4 101 13 106 181 105 167 -1 177 -6 187 -80 9 -74 20 -103 38
-103 59 0 32 158 -36 215 -32 27 -40 28 -121 12 -7 -1 -13 10 -15 25 -5 45
-62 74 -90 46z"/>
<path d="M410 528 c0 -2 7 -21 15 -43 8 -22 14 -46 15 -52 0 -25 -25 -13 -38
17 -15 32 -57 60 -92 60 -28 0 -25 -11 11 -46 27 -26 59 -73 59 -89 0 -3 -16
-5 -35 -5 -25 0 -43 7 -59 25 -13 14 -33 25 -45 25 -19 0 -21 -4 -16 -22 9
-30 43 -66 78 -85 26 -13 32 -13 62 1 18 9 35 16 38 16 14 0 39 -105 44 -183
5 -73 9 -90 25 -98 14 -8 24 -7 35 3 28 23 8 179 -34 261 -12 24 -12 30 1 49
25 36 20 101 -10 137 -14 17 -32 31 -40 31 -8 0 -14 -1 -14 -2z"/>
<path d="M178 233 c-10 -2 -18 -13 -18 -24 0 -18 8 -19 108 -19 112 0 143 10
121 37 -8 9 -38 13 -103 12 -50 -1 -99 -3 -108 -6z"/>
</g>
</svg>
