<svg version="1.0" xmlns="http://www.w3.org/2000/svg"
 width="66.000000pt" height="85.000000pt" viewBox="0 0 66.000000 85.000000"
 preserveAspectRatio="xMidYMid meet">
<metadata>
Created by potrace 1.15, written by Peter Selinger 2001-2017
</metadata>
<g transform="translate(0.000000,85.000000) scale(0.100000,-0.100000)"
fill="#000000" stroke="none">
<path d="M373 740 c-44 -18 -20 -40 43 -40 27 0 34 -4 34 -20 0 -12 -12 -26
-30 -35 -36 -19 -50 -43 -50 -89 0 -24 -7 -42 -20 -53 -11 -10 -20 -23 -20
-30 0 -18 -41 -43 -72 -43 -21 0 -33 -8 -48 -32 -11 -18 -20 -41 -20 -51 0 -9
-27 -43 -60 -75 -33 -32 -60 -66 -60 -75 0 -26 12 -21 55 23 21 21 42 37 47
34 13 -8 9 -101 -8 -166 -8 -33 -12 -63 -9 -67 12 -12 34 32 45 88 32 170 34
175 71 183 29 6 38 3 64 -23 22 -20 41 -29 65 -29 50 0 80 -10 80 -26 0 -16
-8 -20 -61 -28 -41 -7 -79 -38 -79 -65 0 -29 54 -81 84 -81 37 0 33 24 -9 49
-34 20 -45 44 -26 56 6 3 36 10 68 16 67 13 83 23 83 54 0 34 -30 53 -99 62
-64 8 -99 33 -47 33 65 0 126 46 126 95 0 7 14 16 30 20 18 4 30 13 30 22 0
13 -8 14 -41 9 -101 -16 -156 -18 -164 -7 -4 7 0 18 8 24 8 7 17 24 21 38 6
29 35 39 107 39 37 0 38 -1 41 -37 2 -30 7 -38 23 -38 18 0 20 6 17 57 -3 80
-15 104 -56 119 -26 10 -36 19 -36 35 0 18 7 23 45 28 46 7 58 19 29 30 -24 9
-176 6 -201 -4z m142 -126 c14 -9 25 -20 25 -24 0 -10 -119 -25 -127 -16 -10
9 27 44 51 49 11 2 22 5 24 6 1 0 14 -6 27 -15z m-37 -216 c-5 -17 -95 -61
-108 -53 -11 7 -14 48 -3 58 3 4 31 7 61 7 38 0 53 -4 50 -12z m-158 -22 c0
-25 -16 -36 -56 -36 -30 0 -31 24 -2 44 34 24 58 20 58 -8z"/>
<path d="M112 722 c-35 -10 -27 -26 15 -32 50 -7 54 -31 10 -59 -45 -27 -59
-57 -55 -116 3 -53 28 -77 28 -27 0 26 4 30 38 36 79 13 108 8 121 -21 18 -39
33 -15 29 48 -3 50 -6 56 -40 78 -21 13 -38 32 -38 42 0 13 9 19 38 21 25 2
37 8 37 18 0 12 -16 15 -80 17 -44 1 -90 -2 -103 -5z m116 -118 c26 -7 29 -31
5 -38 -40 -11 -113 -18 -113 -10 0 14 13 30 35 42 23 13 40 14 73 6z"/>
</g>
</svg>
