<svg version="1.0" xmlns="http://www.w3.org/2000/svg"
 width="71.000000pt" height="90.000000pt" viewBox="0 0 71.000000 90.000000"
 preserveAspectRatio="xMidYMid meet">
<metadata>
Created by potrace 1.15, written by Peter Selinger 2001-2017
</metadata>
<g transform="translate(0.000000,90.000000) scale(0.100000,-0.100000)"
fill="#000000" stroke="none">
<path d="M157 683 c-46 -34 -74 -60 -68 -66 5 -5 22 -2 41 8 38 19 53 15 76
-20 23 -35 8 -45 -64 -45 -33 0 -51 -4 -47 -10 3 -5 32 -10 63 -10 57 -1 57
-1 0 -54 -32 -29 -58 -57 -58 -63 0 -11 43 -33 68 -33 11 -1 0 -17 -35 -49
-58 -52 -63 -61 -34 -61 11 0 48 27 83 60 53 51 69 60 100 60 20 0 49 5 65 12
26 10 33 12 57 16 13 3 -20 38 -77 83 -49 39 -49 39 2 39 28 0 51 5 51 10 0 6
-22 10 -49 10 -58 0 -69 11 -46 46 16 25 16 25 45 4 30 -21 60 -27 60 -10 0
10 -136 130 -148 130 -4 0 -42 -26 -85 -57z m111 -6 c6 -7 8 -17 4 -22 -11
-15 -53 -17 -69 -3 -12 10 -11 14 9 24 30 17 43 17 56 1z m-50 -248 c-7 -5
-28 -9 -47 -9 -34 0 -34 0 10 48 44 47 44 47 47 8 2 -24 -2 -42 -10 -47z m106
8 c-8 -5 -26 -6 -40 -3 -21 6 -24 12 -24 48 0 42 0 42 40 3 34 -33 38 -41 24
-48z"/>
<path d="M390 720 c0 -6 6 -21 14 -33 23 -38 39 -170 33 -275 -8 -122 -37
-272 -59 -296 -10 -13 -10 -26 0 -26 17 0 70 109 83 170 8 36 14 124 14 197 0
133 0 133 26 133 36 0 38 -14 32 -188 -4 -97 -2 -167 6 -205 13 -58 51 -117
77 -117 18 0 18 4 -1 40 -22 42 -49 212 -48 295 1 39 7 93 13 121 10 40 10 56
0 74 -11 20 -17 22 -56 16 -49 -6 -56 -1 -64 59 -5 37 -8 40 -37 43 -19 2 -33
-1 -33 -8z"/>
<path d="M284 378 c-4 -6 -2 -14 4 -16 7 -2 16 -11 21 -21 9 -15 3 -16 -55
-13 -64 4 -64 4 -79 -32 -23 -53 -20 -131 6 -157 13 -13 18 -27 14 -37 -4 -9
-9 -32 -12 -49 -5 -26 -2 -33 11 -33 18 0 46 55 46 89 0 21 17 37 28 26 4 -3
9 -29 12 -57 7 -76 30 -75 30 0 0 42 5 63 16 73 13 10 15 28 12 81 -2 37 -3
68 -1 68 1 0 13 -4 27 -10 39 -15 33 7 -16 57 -45 46 -53 50 -64 31z m16 -87
c0 -13 -26 -21 -67 -21 -30 0 -34 2 -23 15 13 16 90 21 90 6z m5 -56 c0 -5
-21 -11 -47 -13 -45 -3 -64 9 -35 22 20 8 82 2 82 -9z m5 -44 c0 -33 -92 -42
-98 -8 -3 14 4 17 47 17 28 0 51 -4 51 -9z"/>
</g>
</svg>
