<svg version="1.0" xmlns="http://www.w3.org/2000/svg"
 width="89.000000pt" height="189.000000pt" viewBox="0 0 89.000000 189.000000"
 preserveAspectRatio="xMidYMid meet">
<metadata>
Created by potrace 1.15, written by Peter Selinger 2001-2017
</metadata>
<g transform="translate(0.000000,189.000000) scale(0.100000,-0.100000)"
fill="#000000" stroke="none">
<path d="M240 1756 c-5 -13 -7 -41 -5 -62 2 -20 -1 -47 -5 -60 -12 -32 -59
-73 -102 -91 -21 -8 -38 -19 -38 -24 0 -5 -9 -9 -20 -9 -22 0 -25 -7 -10 -30
7 -12 18 -12 59 -4 49 10 49 10 56 -50 4 -32 8 -101 9 -153 3 -95 16 -135 36
-103 5 8 10 25 10 36 0 31 18 42 83 52 56 9 56 9 71 -30 9 -22 23 -38 32 -38
14 0 15 10 10 78 -7 89 -8 132 -7 185 1 37 1 37 45 37 49 0 61 9 51 40 -5 15
-15 20 -39 20 -44 0 -124 25 -147 46 -14 13 -19 31 -19 74 0 43 -5 64 -21 84
-25 32 -37 33 -49 2z m83 -225 c28 -17 37 -29 37 -51 0 -25 -3 -28 -51 -33
-60 -7 -65 -6 -73 28 -5 18 0 35 15 56 11 16 24 29 28 27 3 -2 23 -14 44 -27z
m43 -165 c3 -19 3 -39 -1 -45 -3 -6 -33 -11 -66 -11 -58 0 -59 1 -59 28 0 40
11 50 55 55 22 2 45 4 52 5 7 1 15 -13 19 -32z"/>
<path d="M664 1323 c3 -32 22 -112 42 -178 56 -186 56 -175 -16 -209 -34 -15
-64 -25 -67 -22 -4 3 -10 32 -14 63 -13 93 -54 163 -80 136 -12 -13 -13 -46
-2 -73 15 -36 26 -135 24 -204 -4 -103 -49 -166 -159 -224 -79 -41 -79 -41
-91 -16 -6 14 -11 33 -11 43 0 19 -41 105 -65 136 -14 17 -17 18 -25 5 -21
-33 -8 -114 31 -194 19 -39 19 -40 0 -60 -47 -50 -54 -88 -47 -273 6 -167 17
-228 40 -220 7 3 11 46 11 121 0 114 1 118 25 135 14 10 39 22 56 25 31 7 31
7 42 -116 7 -68 12 -138 12 -155 0 -28 4 -33 24 -33 20 0 25 6 30 42 3 24 2
57 -3 74 -9 31 -6 148 4 212 4 19 12 32 20 32 20 0 54 30 71 62 8 16 14 56 14
97 0 71 11 110 40 146 9 11 23 47 30 79 14 61 41 96 72 96 10 0 18 5 18 10 0
6 6 10 13 10 7 0 23 9 35 20 46 43 72 12 72 -86 0 -62 -25 -131 -76 -210 -54
-81 -64 -115 -63 -206 1 -183 23 -298 51 -270 10 10 12 139 3 210 -9 68 21
187 56 222 16 15 29 36 29 44 0 9 3 16 8 16 4 0 13 15 20 33 8 17 18 41 23 52
19 43 25 101 14 147 -5 25 -13 50 -17 54 -5 4 -8 16 -8 27 0 10 -13 44 -30 74
-16 30 -30 62 -30 72 0 10 -3 21 -7 25 -5 4 -16 44 -25 89 -27 134 -55 197
-86 197 -12 0 -14 -10 -8 -57z m-194 -807 c0 -51 -3 -57 -35 -82 -20 -15 -37
-25 -39 -23 -2 2 -8 22 -13 44 -6 22 -14 48 -18 57 -5 13 3 22 32 37 64 34 73
29 73 -33z m-160 -45 c0 -11 5 -23 10 -26 6 -3 10 -20 10 -36 0 -32 -27 -49
-76 -49 -22 0 -24 3 -19 39 8 66 22 91 50 91 18 0 25 -5 25 -19z"/>
<path d="M395 1079 c-4 -6 -49 -9 -116 -8 -61 1 -112 -1 -115 -4 -3 -3 1 -18
9 -34 8 -15 21 -48 29 -73 19 -59 83 -110 137 -110 50 0 83 33 105 102 31 100
31 113 1 126 -32 15 -42 15 -50 1z m-5 -87 c0 -62 -58 -102 -101 -69 -19 15
-39 50 -39 70 0 14 58 32 113 34 25 2 27 -1 27 -35z"/>
</g>
</svg>
