<svg version="1.0" xmlns="http://www.w3.org/2000/svg"
 width="91.000000pt" height="155.000000pt" viewBox="0 0 91.000000 155.000000"
 preserveAspectRatio="xMidYMid meet">
<metadata>
Created by potrace 1.15, written by Peter Selinger 2001-2017
</metadata>
<g transform="translate(0.000000,155.000000) scale(0.100000,-0.100000)"
fill="#000000" stroke="none">
<path d="M146 1472 c-54 -18 -73 -42 -34 -42 13 1 54 5 93 10 95 12 105 5 105
-70 0 -32 -4 -61 -9 -65 -9 -5 -55 -15 -138 -31 -29 -6 -33 -4 -33 15 0 16 -6
21 -29 21 -31 0 -27 12 -47 -146 -4 -35 -3 -54 6 -59 14 -9 42 20 55 59 6 16
17 32 25 36 31 16 104 34 136 34 19 0 34 4 34 8 0 4 5 8 10 8 6 0 10 -9 10
-21 0 -16 -4 -19 -20 -14 -14 5 -20 2 -20 -9 0 -9 7 -16 15 -16 9 0 15 -9 15
-24 0 -17 -12 -31 -42 -51 -102 -66 -146 -145 -134 -238 11 -77 73 -167 117
-167 8 0 27 -6 43 -12 27 -13 27 -13 19 -98 -10 -103 -9 -284 1 -325 12 -45
30 -85 38 -85 5 0 8 -6 8 -13 0 -7 8 -22 18 -33 10 -10 30 -36 46 -56 16 -21
35 -38 42 -38 8 0 14 2 14 5 0 11 -27 65 -57 110 -53 83 -65 133 -60 254 6
143 23 241 45 257 10 8 12 13 5 14 -27 0 -11 20 25 30 38 12 102 62 102 80 0
5 4 10 8 10 16 0 33 49 45 130 2 15 -19 69 -37 97 -22 34 -91 71 -140 75 -39
4 -44 26 -40 169 3 114 -5 157 -34 192 -20 23 -137 22 -206 -1z m323 -428 c64
-42 82 -114 48 -184 -15 -31 -23 -39 -66 -70 -29 -20 -45 -23 -107 -22 -82 2
-100 9 -132 58 -25 39 -27 56 -10 120 14 50 52 90 96 100 15 3 34 9 42 14 30
18 90 11 129 -16z"/>
<path d="M350 916 c-44 -16 -51 -42 -13 -49 59 -11 110 13 97 47 -7 19 -35 19
-84 2z"/>
<path d="M682 668 c-5 -7 -13 -41 -17 -74 -6 -60 -8 -63 -53 -92 -26 -16 -58
-35 -72 -42 -29 -15 -50 -41 -44 -52 7 -12 46 0 110 33 56 29 56 29 53 -53 -4
-82 -4 -84 -44 -120 -22 -21 -44 -38 -48 -38 -12 0 -62 -49 -56 -54 6 -6 68
14 84 27 6 5 23 16 40 26 30 18 30 18 76 -28 25 -25 64 -56 88 -68 83 -44 82
-26 -3 59 -59 60 -64 69 -76 131 -7 37 -10 82 -6 99 14 80 18 229 6 243 -15
18 -24 19 -38 3z"/>
</g>
</svg>
