<svg version="1.0" xmlns="http://www.w3.org/2000/svg"
 width="65.000000pt" height="71.000000pt" viewBox="0 0 65.000000 71.000000"
 preserveAspectRatio="xMidYMid meet">
<metadata>
Created by potrace 1.15, written by Peter Selinger 2001-2017
</metadata>
<g transform="translate(0.000000,71.000000) scale(0.100000,-0.100000)"
fill="#000000" stroke="none">
<path d="M395 505 c3 -16 9 -42 11 -56 5 -21 -1 -31 -33 -54 -66 -51 -88 -76
-72 -85 9 -6 5 -11 -14 -15 -30 -8 -117 12 -117 26 0 5 -9 9 -20 9 -26 0 -25
-15 2 -34 22 -15 22 -15 0 -34 -12 -11 -22 -25 -22 -31 0 -14 24 -9 78 15 21
10 44 13 65 9 74 -16 83 -37 41 -98 -29 -44 -28 -56 4 -27 22 20 52 27 52 11
0 -4 -10 -20 -21 -35 -12 -15 -19 -29 -16 -32 13 -14 46 20 72 75 21 41 35 59
45 56 8 -3 29 4 45 15 17 11 38 20 48 20 37 0 7 41 -55 75 -30 17 -38 52 -13
61 16 7 21 34 6 34 -12 0 -31 56 -31 91 0 16 -4 29 -10 29 -5 0 -10 -7 -10
-15 0 -20 -10 -19 -27 3 -13 15 -14 14 -8 -13z m35 -160 c0 -50 -13 -62 -55
-51 -42 11 -33 51 20 83 32 19 35 16 35 -32z m-48 -97 c-6 -6 -15 -8 -19 -4
-4 4 -1 11 7 16 19 12 27 3 12 -12z m93 2 c-3 -5 -11 -10 -16 -10 -6 0 -7 5
-4 10 3 6 11 10 16 10 6 0 7 -4 4 -10z m-89 -77 c-10 -10 -19 5 -10 18 6 11 8
11 12 0 2 -7 1 -15 -2 -18z"/>
</g>
</svg>
