<svg version="1.0" xmlns="http://www.w3.org/2000/svg"
 width="66.000000pt" height="79.000000pt" viewBox="0 0 66.000000 79.000000"
 preserveAspectRatio="xMidYMid meet">
<metadata>
Created by potrace 1.15, written by Peter Selinger 2001-2017
</metadata>
<g transform="translate(0.000000,79.000000) scale(0.100000,-0.100000)"
fill="#000000" stroke="none">
<path d="M135 641 c-17 -3 -30 -13 -30 -21 0 -12 21 -16 111 -18 105 -2 112
-4 107 -22 -5 -17 -16 -20 -91 -22 -75 -3 -87 -5 -90 -22 -4 -17 2 -18 92 -11
96 7 96 7 96 -17 0 -25 -1 -25 -122 -34 -76 -6 -123 -13 -125 -21 -2 -6 4 -14
14 -17 22 -6 440 18 449 26 3 4 3 12 -1 19 -6 8 -32 10 -96 5 -89 -7 -89 -7
-89 52 0 69 4 72 101 72 36 0 61 5 68 14 9 11 8 15 -5 20 -20 8 -350 6 -389
-3z"/>
<path d="M313 400 c-4 -14 -14 -20 -34 -20 -42 0 -38 -28 4 -32 24 -2 32 -8
32 -23 0 -16 -8 -21 -47 -25 -46 -6 -46 -6 -53 34 -3 22 -11 46 -17 53 -14 17
-99 17 -123 -1 -18 -13 -17 -14 8 -31 27 -17 27 -17 27 -171 0 -130 2 -154 15
-154 13 0 15 24 15 160 0 134 2 160 15 160 31 0 38 -40 33 -182 -3 -76 -2
-138 3 -138 15 0 29 74 29 156 0 81 0 81 26 76 27 -5 27 -5 21 -119 -4 -80 -2
-113 6 -110 16 5 38 123 35 187 -3 49 -1 55 18 58 19 3 22 -3 28 -60 13 -134
19 -168 29 -168 6 0 8 40 5 112 -5 97 -3 114 11 124 17 14 19 12 -34 29 -22 6
-18 33 5 40 25 8 26 22 1 30 -11 3 -22 12 -25 20 -8 21 -27 18 -33 -5z"/>
<path d="M483 399 c-25 -16 -34 -31 -43 -72 -15 -69 -9 -279 8 -285 9 -3 12
28 12 131 0 133 12 201 34 194 7 -2 12 -55 14 -161 2 -119 6 -156 15 -153 9 3
13 49 15 165 2 156 3 161 24 164 21 3 21 4 4 21 -23 22 -44 21 -83 -4z"/>
</g>
</svg>
