<svg version="1.0" xmlns="http://www.w3.org/2000/svg"
 width="69.000000pt" height="81.000000pt" viewBox="0 0 69.000000 81.000000"
 preserveAspectRatio="xMidYMid meet">
<metadata>
Created by potrace 1.15, written by Peter Selinger 2001-2017
</metadata>
<g transform="translate(0.000000,81.000000) scale(0.100000,-0.100000)"
fill="#000000" stroke="none">
<path d="M362 696 c-7 -18 -26 -47 -42 -65 -31 -32 -39 -61 -17 -61 7 0 18 5
25 12 16 16 35 -3 26 -26 -5 -12 -13 -16 -28 -12 -11 3 -34 6 -49 6 -26 0 -28
2 -22 30 5 25 3 30 -17 35 -13 3 -40 -1 -60 -10 -21 -8 -46 -15 -57 -15 -25 0
-71 -20 -71 -32 0 -4 16 -8 35 -8 42 0 43 -7 10 -46 -29 -34 -31 -42 -8 -51
11 -4 25 4 44 25 46 52 59 43 59 -38 0 -38 4 -70 8 -70 21 0 52 48 52 82 0 35
1 36 41 40 22 2 42 1 43 -2 4 -7 -9 -92 -24 -154 -10 -40 -9 -54 3 -85 27 -62
28 -78 12 -116 -8 -21 -15 -49 -15 -64 0 -26 0 -26 26 7 14 18 33 31 42 30 12
-2 18 13 28 69 6 39 20 85 30 102 18 30 18 30 -14 81 -32 51 -41 103 -22 115
6 4 33 1 60 -5 46 -11 50 -14 55 -48 3 -21 7 -44 9 -52 2 -9 -1 -47 -5 -85 -9
-70 -5 -105 11 -105 13 0 31 60 36 119 5 63 11 73 28 48 23 -31 39 -21 32 21
-15 87 -61 130 -159 153 -47 10 -59 17 -63 36 -10 38 5 40 32 5 14 -18 32 -32
39 -32 12 0 12 6 1 38 -23 64 -78 162 -90 162 -7 0 -17 -15 -24 -34z m17 -427
c-5 -11 -14 -17 -20 -14 -13 9 -11 49 3 63 17 17 31 -23 17 -49z"/>
</g>
</svg>
