<svg version="1.0" xmlns="http://www.w3.org/2000/svg"
 width="70.000000pt" height="93.000000pt" viewBox="0 0 70.000000 93.000000"
 preserveAspectRatio="xMidYMid meet">
<metadata>
Created by potrace 1.15, written by Peter Selinger 2001-2017
</metadata>
<g transform="translate(0.000000,93.000000) scale(0.100000,-0.100000)"
fill="#000000" stroke="none">
<path d="M468 779 c-33 -19 -43 -54 -48 -163 -5 -109 -5 -109 -36 -83 -18 15
-35 38 -38 52 -9 35 -20 31 -35 -10 -7 -20 -21 -41 -32 -48 -10 -6 -19 -15
-19 -19 0 -14 33 -8 52 9 15 13 22 14 44 4 27 -12 27 -12 0 -39 -34 -36 -34
-74 0 -101 19 -15 22 -21 11 -21 -23 0 -47 -39 -47 -77 0 -26 7 -37 35 -56 35
-24 35 -24 -31 -72 -80 -58 -74 -82 8 -36 30 17 60 31 66 31 8 0 12 -18 12
-49 0 -32 5 -53 16 -62 23 -19 34 4 34 69 0 47 10 66 24 43 8 -12 107 -44 114
-36 12 12 -14 37 -51 50 -38 13 -77 41 -77 56 0 4 10 11 23 14 31 10 67 45 67
66 0 18 -54 69 -73 69 -6 0 1 13 16 28 41 43 31 85 -25 105 -16 6 -18 20 -18
106 0 97 1 101 30 134 37 42 24 63 -22 36z m7 -315 c14 -14 14 -19 2 -37 -23
-35 -43 -43 -71 -28 -36 20 -41 42 -16 63 28 22 64 23 85 2z m7 -131 c24 -21
23 -42 -4 -70 -23 -24 -57 -30 -87 -13 -33 17 -33 40 0 71 35 33 64 37 91 12z"/>
<path d="M314 768 c-5 -7 -7 -26 -5 -43 1 -19 -6 -41 -18 -57 -20 -25 -27 -48
-15 -48 3 0 20 10 36 22 28 20 32 20 43 5 7 -9 20 -17 29 -17 15 0 14 5 -8 31
-14 17 -26 40 -26 52 0 54 -19 82 -36 55z"/>
<path d="M137 734 c-4 -4 -7 -19 -7 -34 0 -20 -10 -33 -37 -51 -21 -13 -39
-32 -41 -41 -5 -28 36 -78 64 -78 21 0 25 -4 22 -22 -2 -17 -11 -24 -30 -26
-29 -3 -68 -44 -68 -69 0 -8 9 -28 21 -44 15 -21 29 -29 50 -29 26 0 29 -2 19
-20 -6 -10 -35 -46 -65 -78 -30 -33 -55 -65 -55 -71 0 -25 35 -8 72 34 22 25
44 45 50 45 8 0 9 -34 4 -109 -4 -66 -2 -112 3 -115 18 -11 26 19 31 118 5 99
5 99 48 62 42 -34 62 -44 62 -30 0 4 -25 36 -55 71 -30 36 -55 68 -55 73 0 5
16 18 35 30 19 12 38 33 41 47 9 34 -10 71 -41 79 -36 9 -32 44 8 69 26 17 32
27 32 55 0 30 -5 38 -35 52 -26 13 -36 26 -40 50 -5 31 -20 45 -33 32z m54
-104 c44 -24 11 -70 -51 -70 -43 0 -51 27 -16 57 30 26 39 27 67 13z m7 -192
c15 -13 16 -40 0 -56 -17 -17 -83 -15 -98 3 -39 47 46 94 98 53z"/>
<path d="M502 675 c-27 -38 -29 -45 -14 -45 10 0 23 5 29 11 9 9 21 8 46 -5
19 -9 38 -16 41 -16 16 0 3 24 -32 60 -38 40 -38 40 -70 -5z"/>
<path d="M520 591 c0 -11 -12 -29 -27 -40 -32 -26 -26 -36 11 -20 22 10 33 10
62 -4 35 -17 64 -22 64 -11 0 9 -92 94 -102 94 -4 0 -8 -9 -8 -19z"/>
</g>
</svg>
