<svg version="1.0" xmlns="http://www.w3.org/2000/svg"
 width="94.000000pt" height="82.000000pt" viewBox="0 0 94.000000 82.000000"
 preserveAspectRatio="xMidYMid meet">
<metadata>
Created by potrace 1.15, written by Peter Selinger 2001-2017
</metadata>
<g transform="translate(0.000000,82.000000) scale(0.100000,-0.100000)"
fill="#000000" stroke="none">
<path d="M435 638 c-4 -15 -8 -40 -35 -213 -33 -220 -19 -199 -140 -205 -86
-4 -105 -8 -108 -21 -6 -31 47 -38 306 -42 195 -2 255 0 263 9 16 20 3 31 -43
38 -39 6 -181 24 -202 25 -8 1 1 121 11 147 3 9 21 11 56 9 62 -5 119 12 115
35 -2 11 -23 17 -73 23 -39 5 -76 11 -82 13 -9 2 -13 30 -13 93 0 72 -3 90
-16 95 -24 9 -34 7 -39 -6z"/>
</g>
</svg>
