<svg version="1.0" xmlns="http://www.w3.org/2000/svg"
 width="69.000000pt" height="90.000000pt" viewBox="0 0 69.000000 90.000000"
 preserveAspectRatio="xMidYMid meet">
<metadata>
Created by potrace 1.15, written by Peter Selinger 2001-2017
</metadata>
<g transform="translate(0.000000,90.000000) scale(0.100000,-0.100000)"
fill="#000000" stroke="none">
<path d="M316 678 c-20 -28 -21 -87 -1 -115 8 -11 30 -24 50 -27 22 -4 41 -17
52 -32 19 -29 14 -37 -48 -67 -32 -17 -49 -35 -68 -72 -23 -45 -26 -61 -26
-165 0 -115 0 -115 -87 -120 -48 -3 -92 -10 -99 -17 -22 -22 2 -33 74 -33 129
0 442 22 454 32 31 25 -3 31 -148 24 -149 -7 -149 -7 -149 87 0 94 0 94 46
101 26 3 64 6 84 6 43 0 68 21 47 38 -9 8 -32 7 -82 -3 -96 -21 -98 -20 -90
13 9 36 32 61 75 78 42 18 80 52 80 72 0 30 -48 79 -84 86 -43 8 -60 28 -52
61 3 14 9 36 12 50 8 32 -18 34 -40 3z"/>
</g>
</svg>
