<svg version="1.0" xmlns="http://www.w3.org/2000/svg"
 width="65.000000pt" height="85.000000pt" viewBox="0 0 65.000000 85.000000"
 preserveAspectRatio="xMidYMid meet">
<metadata>
Created by potrace 1.15, written by Peter Selinger 2001-2017
</metadata>
<g transform="translate(0.000000,85.000000) scale(0.100000,-0.100000)"
fill="#000000" stroke="none">
<path d="M256 666 c-12 -29 -21 -36 -53 -41 -61 -11 -73 -16 -73 -30 0 -17 22
-25 70 -25 46 0 53 -8 37 -40 -11 -22 -28 -31 -90 -44 -45 -10 -67 -40 -67
-91 0 -31 6 -51 19 -64 18 -18 79 -41 109 -41 16 0 16 -72 -2 -113 -7 -18 -32
-54 -55 -80 -44 -52 -50 -67 -25 -67 25 0 106 89 137 150 35 72 36 122 1 149
-15 12 -39 21 -55 21 -15 0 -40 5 -54 10 -21 8 -26 16 -23 37 3 29 16 35 100
48 29 4 38 11 47 36 14 41 33 197 26 209 -13 20 -35 9 -49 -24z"/>
<path d="M390 655 c0 -25 3 -45 8 -45 4 -1 20 -11 35 -24 29 -23 29 -23 -2
-81 -30 -55 -31 -65 -30 -159 1 -109 -14 -176 -50 -222 -11 -15 -21 -31 -21
-35 0 -17 30 -9 48 12 9 12 22 26 28 33 26 28 35 63 48 194 15 147 33 202 65
202 29 0 33 -48 16 -185 -12 -94 -13 -135 -5 -172 12 -50 34 -83 57 -83 17 0
16 9 -3 56 -14 34 -15 52 -5 144 7 58 17 124 23 148 9 35 7 51 -7 87 -18 48
-34 61 -105 86 -35 12 -49 24 -63 52 -25 49 -37 47 -37 -8z"/>
</g>
</svg>
