<svg version="1.0" xmlns="http://www.w3.org/2000/svg"
 width="39.000000pt" height="61.000000pt" viewBox="0 0 39.000000 61.000000"
 preserveAspectRatio="xMidYMid meet">
<metadata>
Created by potrace 1.15, written by Peter Selinger 2001-2017
</metadata>
<g transform="translate(0.000000,61.000000) scale(0.100000,-0.100000)"
fill="#000000" stroke="none">
<path d="M130 440 c0 -5 5 -10 10 -10 14 0 12 -27 -2 -34 -9 -4 -6 -10 10 -22
12 -9 22 -27 22 -40 0 -20 -5 -24 -30 -24 -30 0 -30 0 -30 -105 0 -63 4 -105
10 -105 6 0 10 11 10 25 0 14 5 25 10 25 6 0 10 9 10 20 0 11 4 20 9 20 5 0
14 14 21 30 14 34 17 35 34 18 33 -35 56 -92 56 -139 0 -55 16 -66 24 -16 10
59 12 167 4 167 -4 0 -8 6 -8 14 0 7 -13 16 -30 20 -26 5 -30 10 -30 37 0 30
2 31 30 26 37 -8 39 6 4 21 -29 14 -24 32 9 32 36 0 0 26 -55 39 -58 14 -88
14 -88 1z m78 -37 c2 -8 -5 -13 -17 -13 -12 0 -21 6 -21 16 0 18 31 15 38 -3z
m2 -68 c0 -14 -4 -25 -10 -25 -5 0 -10 11 -10 25 0 14 5 25 10 25 6 0 10 -11
10 -25z m-43 -71 c6 -16 -15 -64 -29 -64 -4 0 -8 18 -8 40 0 29 4 40 15 40 9
0 18 -7 22 -16z m103 -23 c0 -6 -4 -13 -10 -16 -5 -3 -10 1 -10 9 0 9 5 16 10
16 6 0 10 -4 10 -9z"/>
</g>
</svg>
