<svg version="1.0" xmlns="http://www.w3.org/2000/svg"
 width="51.000000pt" height="89.000000pt" viewBox="0 0 51.000000 89.000000"
 preserveAspectRatio="xMidYMid meet">
<metadata>
Created by potrace 1.15, written by Peter Selinger 2001-2017
</metadata>
<g transform="translate(0.000000,89.000000) scale(0.100000,-0.100000)"
fill="#000000" stroke="none">
<path d="M360 740 c-8 -5 -28 -10 -44 -10 -23 0 -27 -3 -21 -17 19 -47 26 -89
20 -119 -5 -27 -11 -34 -29 -34 -13 0 -44 -3 -70 -6 -44 -6 -46 -6 -46 19 0
38 10 57 31 57 31 0 21 17 -13 24 -36 6 -85 2 -95 -8 -4 -3 -1 -16 5 -29 25
-52 25 -66 -4 -77 -27 -11 -27 -11 -7 -25 21 -15 25 -41 39 -285 3 -58 10
-109 15 -114 11 -12 12 -9 14 134 3 121 11 186 26 196 5 3 9 18 9 34 0 29 15
40 56 40 23 0 54 -41 54 -72 0 -7 9 -29 19 -49 16 -30 25 -92 30 -216 1 -7 5
-13 10 -13 13 0 31 115 31 200 0 80 16 149 39 166 19 15 8 30 -29 37 -21 5
-30 12 -30 26 0 29 36 108 52 113 10 4 9 8 -4 21 -19 19 -36 21 -58 7z m-14
-247 c-10 -10 -19 5 -10 18 6 11 8 11 12 0 2 -7 1 -15 -2 -18z m-186 -13 c0
-5 -4 -10 -10 -10 -5 0 -10 5 -10 10 0 6 5 10 10 10 6 0 10 -4 10 -10z"/>
</g>
</svg>
