<svg version="1.0" xmlns="http://www.w3.org/2000/svg"
 width="55.000000pt" height="95.000000pt" viewBox="0 0 55.000000 95.000000"
 preserveAspectRatio="xMidYMid meet">
<metadata>
Created by potrace 1.15, written by Peter Selinger 2001-2017
</metadata>
<g transform="translate(0.000000,95.000000) scale(0.100000,-0.100000)"
fill="#000000" stroke="none">
<path d="M94 817 c-31 -18 -16 -25 109 -51 15 -4 27 -11 27 -17 0 -6 9 -24 21
-40 32 -45 20 -59 -50 -59 -67 0 -91 -6 -91 -25 0 -16 63 -23 111 -13 19 3 34
6 35 5 1 -1 4 -55 7 -119 6 -117 6 -117 -61 -120 -67 -3 -67 -3 -63 -163 2
-88 7 -164 11 -168 15 -17 22 16 22 105 0 74 3 91 17 96 9 3 33 23 53 44 59
61 76 54 127 -51 32 -65 42 -95 37 -114 -6 -26 14 -52 22 -28 3 9 7 9 20 -1
13 -12 14 -9 6 27 -5 22 -9 75 -9 117 1 65 4 80 20 92 33 24 5 40 -69 38 -41
-1 -67 3 -74 11 -5 6 -11 57 -13 112 -4 100 -4 100 31 100 49 0 52 16 7 40
-20 11 -37 26 -37 34 0 8 15 33 33 57 26 35 38 43 65 44 34 0 41 10 18 29 -17
15 -310 30 -332 18z m236 -53 c0 -7 -30 -37 -33 -33 -2 2 -9 12 -16 22 -12 15
-10 17 18 17 17 0 31 -3 31 -6z m-120 -443 c0 -5 -7 -12 -16 -15 -22 -9 -24
-8 -24 9 0 8 9 15 20 15 11 0 20 -4 20 -9z m200 -10 c0 -28 -17 -35 -29 -12
-15 27 -14 31 9 31 13 0 20 -7 20 -19z"/>
</g>
</svg>
