<svg version="1.0" xmlns="http://www.w3.org/2000/svg"
 width="61.000000pt" height="119.000000pt" viewBox="0 0 61.000000 119.000000"
 preserveAspectRatio="xMidYMid meet">
<metadata>
Created by potrace 1.15, written by Peter Selinger 2001-2017
</metadata>
<g transform="translate(0.000000,119.000000) scale(0.100000,-0.100000)"
fill="#000000" stroke="none">
<path d="M270 979 c-14 -4 -59 -7 -101 -8 -58 -1 -78 -5 -82 -16 -4 -8 -2 -17
3 -20 13 -8 60 -107 60 -127 0 -10 -4 -18 -10 -18 -5 0 -10 -9 -10 -20 0 -14
7 -20 24 -20 17 0 27 -8 35 -27 5 -16 16 -39 24 -53 8 -14 20 -38 27 -55 7
-16 16 -38 21 -47 5 -10 9 -22 9 -27 0 -12 -56 -24 -125 -25 -33 -1 -65 -4
-71 -8 -7 -5 -8 -26 -2 -65 4 -32 13 -103 18 -158 17 -164 25 -219 33 -233 15
-22 27 -2 27 44 0 42 17 90 45 124 6 8 22 42 36 75 13 33 34 79 47 103 19 34
27 40 38 31 8 -6 14 -16 14 -21 0 -12 121 -192 132 -196 4 -2 8 -9 8 -16 0 -7
9 -21 20 -31 11 -10 20 -26 20 -35 0 -10 6 -23 14 -29 23 -19 29 5 18 67 -26
137 -34 196 -36 269 0 43 -5 84 -10 91 -6 11 -27 12 -91 7 -65 -6 -83 -4 -87
6 -3 8 0 59 6 113 8 70 15 101 26 106 65 30 74 45 36 60 -29 11 -28 27 1 97 7
18 13 42 13 53 0 18 -6 20 -52 18 -29 -1 -64 -5 -78 -9z m75 -66 c-4 -10 -10
-31 -13 -48 -8 -47 -33 -61 -103 -56 -19 1 -64 90 -52 102 7 7 29 10 147 17
23 2 27 -1 21 -15z m-51 -201 c-9 -47 -11 -50 -29 -26 -20 26 -19 62 3 67 28
6 33 -2 26 -41z m176 -294 c1 -40 5 -93 10 -118 4 -25 7 -47 5 -49 -9 -8 -65
67 -123 166 -37 62 -30 73 50 73 58 0 58 0 58 -72z m-209 34 c-5 -9 -19 -39
-31 -67 -42 -95 -73 -155 -81 -155 -10 0 -13 15 -28 125 -17 121 -19 115 38
115 28 0 53 -5 56 -10 4 -6 12 -4 21 5 20 19 37 10 25 -13z"/>
</g>
</svg>
