<svg version="1.0" xmlns="http://www.w3.org/2000/svg"
 width="55.000000pt" height="85.000000pt" viewBox="0 0 55.000000 85.000000"
 preserveAspectRatio="xMidYMid meet">
<metadata>
Created by potrace 1.15, written by Peter Selinger 2001-2017
</metadata>
<g transform="translate(0.000000,85.000000) scale(0.100000,-0.100000)"
fill="#000000" stroke="none">
<path d="M110 774 c0 -20 40 -44 73 -44 23 0 46 -27 47 -52 0 -14 -6 -16 -32
-11 -18 3 -41 10 -50 14 -27 14 -58 11 -58 -7 0 -30 46 -56 123 -69 28 -4 37
-11 37 -25 0 -22 -6 -23 -90 -25 -128 -3 -122 -1 -115 -37 4 -17 9 -61 10 -96
4 -81 16 -94 52 -60 16 14 58 42 96 63 37 20 67 41 67 46 0 16 20 10 54 -16
18 -14 42 -25 53 -25 11 0 28 -9 38 -20 10 -11 26 -20 37 -20 10 0 18 -4 18
-10 0 -5 4 -10 8 -10 13 0 32 48 32 81 0 17 5 39 11 50 18 35 -3 46 -107 52
-53 3 -101 10 -106 15 -14 14 2 42 27 42 46 0 124 54 125 88 0 16 1 16 -62
-13 -58 -27 -98 -32 -98 -12 1 48 17 63 85 76 18 4 31 13 33 25 4 17 -1 18
-75 11 -90 -9 -143 -9 -195 0 -33 6 -38 5 -38 -11z m346 -275 c14 -12 19 -41
8 -52 -14 -13 -101 32 -119 62 -7 12 1 13 44 8 29 -4 59 -12 67 -18z m-226 4
c0 -8 -41 -38 -101 -77 -26 -17 -26 -17 -28 34 -1 50 -1 50 64 50 36 0 65 -3
65 -7z"/>
<path d="M216 388 c-2 -7 -12 -49 -21 -93 -9 -44 -19 -86 -21 -94 -6 -19 17
-82 39 -105 9 -11 17 -26 17 -33 0 -7 5 -14 10 -14 24 -4 30 -4 29 1 0 3 4 17
10 33 14 35 -3 85 -23 68 -13 -11 -26 -5 -26 11 0 11 93 10 125 -2 22 -8 24
-13 15 -30 -8 -15 -17 -19 -35 -14 -23 6 -25 3 -25 -26 0 -17 7 -38 15 -46 13
-13 19 -11 50 22 44 45 49 68 36 164 -17 124 -21 140 -41 140 -10 0 -21 -8
-25 -19 -3 -10 -14 -26 -24 -35 -18 -16 -20 -14 -51 34 -32 50 -47 61 -54 38z
m157 -170 c-2 -5 -13 -8 -24 -8 -23 0 -26 34 -7 76 13 27 13 27 24 -17 6 -24
9 -47 7 -51z m-113 46 c13 -34 14 -34 -16 -34 -20 0 -25 4 -20 16 3 9 6 22 6
30 0 23 20 16 30 -12z"/>
</g>
</svg>
