<svg version="1.0" xmlns="http://www.w3.org/2000/svg"
 width="71.000000pt" height="82.000000pt" viewBox="0 0 71.000000 82.000000"
 preserveAspectRatio="xMidYMid meet">
<metadata>
Created by potrace 1.15, written by Peter Selinger 2001-2017
</metadata>
<g transform="translate(0.000000,82.000000) scale(0.100000,-0.100000)"
fill="#000000" stroke="none">
<path d="M325 740 c-4 -7 -3 -16 3 -22 14 -14 45 -2 40 15 -6 16 -34 21 -43 7z"/>
<path d="M396 700 c-48 -37 -62 -37 -107 -5 -31 23 -34 24 -38 8 -2 -11 12
-31 37 -53 40 -35 40 -35 44 -122 1 -47 7 -90 11 -94 18 -19 27 25 21 107 -6
85 -6 85 40 130 67 64 62 82 -8 29z"/>
<path d="M430 651 c0 -27 19 -36 37 -18 18 18 9 37 -18 37 -12 0 -19 -7 -19
-19z"/>
<path d="M200 645 c-10 -11 -10 -19 -2 -27 15 -15 44 -2 40 19 -4 23 -22 27
-38 8z"/>
<path d="M486 618 c-25 -32 -25 -32 -60 -13 -45 24 -57 13 -23 -23 14 -15 31
-40 36 -55 11 -29 31 -29 31 0 0 9 18 38 40 64 46 54 47 59 21 59 -11 0 -31
-14 -45 -32z"/>
<path d="M120 625 c0 -8 3 -15 8 -15 16 0 72 -100 72 -130 0 -43 18 -28 26 21
5 29 17 48 45 73 22 18 39 36 39 39 0 16 -34 5 -62 -18 -30 -25 -30 -25 -69
10 -42 38 -59 44 -59 20z"/>
<path d="M397 513 c-4 -3 -7 -17 -7 -29 0 -27 31 -51 78 -60 17 -4 35 -11 40
-18 5 -6 14 -79 20 -163 10 -145 27 -213 52 -213 19 0 20 21 5 87 -9 37 -20
121 -25 186 -5 65 -14 124 -20 132 -6 8 -36 19 -66 25 -47 10 -54 14 -54 36 0
23 -10 31 -23 17z"/>
<path d="M267 473 c-4 -19 -17 -34 -41 -47 -43 -23 -56 -58 -61 -158 -3 -78
-20 -148 -43 -186 -11 -17 -12 -26 -3 -35 29 -29 63 62 81 225 9 76 15 98 38
126 41 51 56 82 44 94 -6 6 -11 -1 -15 -19z"/>
<path d="M333 371 c-6 -10 -29 -21 -52 -25 -50 -8 -64 -26 -19 -26 54 0 78
-10 78 -33 0 -18 -5 -19 -60 -14 -33 3 -60 3 -60 0 0 -3 23 -39 50 -79 28 -40
50 -80 50 -87 0 -8 7 -21 16 -28 14 -11 19 -10 35 10 11 13 19 30 19 38 0 16
50 92 74 112 9 8 16 22 16 32 0 20 -15 25 -25 9 -11 -18 -64 -11 -74 9 -14 24
-5 31 40 31 80 0 94 25 17 32 -31 3 -56 12 -63 22 -16 21 -28 20 -42 -3z m87
-137 c0 -13 -62 -84 -73 -84 -10 0 -53 55 -65 83 -2 4 28 7 67 7 39 0 71 -3
71 -6z"/>
</g>
</svg>
