<svg version="1.0" xmlns="http://www.w3.org/2000/svg"
 width="65.000000pt" height="95.000000pt" viewBox="0 0 65.000000 95.000000"
 preserveAspectRatio="xMidYMid meet">
<metadata>
Created by potrace 1.15, written by Peter Selinger 2001-2017
</metadata>
<g transform="translate(0.000000,95.000000) scale(0.100000,-0.100000)"
fill="#000000" stroke="none">
<path d="M510 820 c0 -6 -28 -10 -64 -10 -35 0 -80 -7 -101 -15 -29 -13 -44
-14 -71 -5 -18 6 -37 9 -42 6 -4 -2 -27 0 -50 5 -65 14 -150 -28 -93 -46 11
-3 23 -16 26 -28 18 -60 19 -57 -29 -57 -25 0 -47 -4 -50 -9 -7 -10 38 -31 67
-31 13 0 28 -5 35 -12 16 -16 15 -45 0 -51 -16 -5 -13 -355 3 -405 17 -52 33
-33 40 49 5 73 26 124 70 172 9 10 25 33 35 52 22 42 35 44 56 8 9 -16 26 -39
38 -53 90 -102 90 -102 90 -181 0 -86 11 -113 28 -74 7 16 12 78 12 155 0 71
5 152 11 180 9 42 8 54 -4 68 -12 14 -13 23 -3 52 10 33 14 35 59 38 26 2 47
7 47 13 0 5 -7 9 -15 9 -8 0 -15 4 -15 9 0 5 -9 11 -20 14 -22 6 -26 31 -10
71 7 20 16 26 40 26 52 0 37 23 -30 47 -43 15 -60 16 -60 3z m0 -86 c-14 -60
-48 -67 -70 -14 -16 38 -7 50 40 50 38 0 38 0 30 -36z m-132 -13 c9 -39 9 -39
-51 -50 -37 -7 -65 -7 -70 -2 -14 14 1 61 21 67 9 3 24 9 32 14 36 21 57 11
68 -29z m-172 -6 c3 -14 3 -32 0 -41 -10 -26 -31 -10 -37 29 -5 31 -3 37 12
37 11 0 21 -10 25 -25z m195 -80 c5 -4 9 -14 9 -24 0 -9 4 -21 9 -26 5 -6 12
-20 15 -32 7 -22 5 -23 -46 -21 -29 1 -58 6 -65 11 -7 5 -30 6 -53 2 -40 -7
-40 -7 -40 25 0 47 15 68 43 63 14 -3 28 0 32 7 7 11 75 8 96 -5z m-201 -15
c0 -5 -4 -10 -10 -10 -5 0 -10 5 -10 10 0 6 5 10 10 10 6 0 10 -4 10 -10z m60
-117 c0 -18 -64 -132 -72 -127 -13 8 -9 71 5 86 7 7 16 21 20 31 6 16 47 25
47 10z m210 -52 c0 -27 3 -56 6 -65 4 -10 1 -16 -7 -16 -16 1 -90 110 -83 122
3 4 23 8 45 8 39 0 39 0 39 -49z"/>
<path d="M2 530 c0 -14 2 -19 5 -12 2 6 2 18 0 25 -3 6 -5 1 -5 -13z"/>
</g>
</svg>
