<svg version="1.0" xmlns="http://www.w3.org/2000/svg"
 width="47.000000pt" height="65.000000pt" viewBox="0 0 47.000000 65.000000"
 preserveAspectRatio="xMidYMid meet">
<metadata>
Created by potrace 1.15, written by Peter Selinger 2001-2017
</metadata>
<g transform="translate(0.000000,65.000000) scale(0.100000,-0.100000)"
fill="#000000" stroke="none">
<path d="M132 498 c-17 -17 -15 -28 7 -28 22 0 33 -23 25 -54 -3 -14 1 -27 10
-35 9 -8 16 -23 16 -35 0 -18 -8 -25 -37 -32 -30 -7 -37 -14 -35 -29 2 -11 4
-38 5 -60 2 -47 20 -62 27 -23 6 32 34 68 54 68 24 0 66 -51 66 -81 0 -33 13
-44 29 -25 8 10 8 21 1 40 -5 15 -10 47 -10 72 0 42 -2 44 -28 44 -53 0 -59
34 -15 79 10 10 11 17 4 24 -15 15 -14 23 5 41 12 13 13 17 2 20 -7 2 -29 8
-49 15 -45 14 -62 14 -77 -1z m86 -39 c-2 -6 -8 -10 -13 -10 -5 0 -11 4 -13
10 -2 6 4 11 13 11 9 0 15 -5 13 -11z"/>
</g>
</svg>
