<svg version="1.0" xmlns="http://www.w3.org/2000/svg"
 width="71.000000pt" height="153.000000pt" viewBox="0 0 71.000000 153.000000"
 preserveAspectRatio="xMidYMid meet">
<metadata>
Created by potrace 1.15, written by Peter Selinger 2001-2017
</metadata>
<g transform="translate(0.000000,153.000000) scale(0.100000,-0.100000)"
fill="#000000" stroke="none">
<path d="M365 1263 c-16 -9 -32 -19 -35 -23 -3 -4 -12 -11 -21 -16 -55 -31
-179 -142 -179 -160 0 -22 29 -16 62 11 28 23 35 25 96 19 37 -3 94 -10 127
-15 33 -5 79 -9 103 -9 39 0 45 -4 75 -46 55 -80 63 -88 81 -81 15 6 14 11 -8
56 -14 27 -31 55 -38 62 -8 8 -25 30 -38 49 -14 19 -40 51 -58 70 -19 19 -45
50 -59 68 -29 36 -60 41 -108 15z m109 -92 c11 -12 17 -23 14 -26 -7 -8 -158
16 -158 25 0 9 25 30 54 45 23 13 52 -2 90 -44z"/>
<path d="M262 922 c-18 -6 -15 -39 5 -50 15 -9 15 -13 0 -54 -9 -24 -17 -58
-17 -75 0 -17 -6 -33 -12 -36 -20 -6 -13 -145 8 -168 10 -11 23 -19 31 -19 10
0 13 -30 13 -142 0 -124 3 -147 19 -175 11 -17 29 -34 41 -38 28 -9 13 -27
-48 -55 -48 -23 -64 -38 -56 -52 10 -17 36 -9 154 45 14 7 44 31 67 54 36 35
43 49 43 80 0 42 -19 143 -45 242 -17 62 -17 64 4 103 11 22 21 51 21 64 0 33
-36 106 -68 141 -15 16 -39 45 -54 64 -30 40 -86 78 -106 71z m121 -161 c26
-45 22 -51 -38 -51 -60 0 -60 1 -44 33 32 61 54 66 82 18z m36 -105 c13 -15
-1 -65 -22 -78 -19 -12 -102 -9 -115 4 -7 7 -12 24 -12 40 0 22 6 29 33 37 48
14 103 13 116 -3z m-8 -181 c4 -17 13 -48 19 -70 32 -113 34 -191 6 -214 -17
-14 -74 2 -92 26 -18 24 -18 132 1 212 9 35 18 68 21 73 11 18 38 2 45 -27z"/>
<path d="M102 628 c-7 -7 -12 -16 -12 -20 0 -5 -9 -28 -21 -53 -21 -45 -21
-45 -1 -87 16 -34 21 -72 26 -172 5 -119 14 -161 33 -142 10 10 20 109 13 137
-3 13 -4 50 -2 81 4 57 4 57 35 39 18 -10 34 -26 36 -37 4 -22 20 -44 32 -44
5 0 9 20 9 44 0 39 -4 46 -27 58 -16 8 -39 20 -53 28 -14 7 -32 16 -40 20 -23
11 -24 40 -1 71 12 15 21 37 21 48 0 26 -32 45 -48 29z"/>
</g>
</svg>
