<svg version="1.0" xmlns="http://www.w3.org/2000/svg"
 width="83.000000pt" height="109.000000pt" viewBox="0 0 83.000000 109.000000"
 preserveAspectRatio="xMidYMid meet">
<metadata>
Created by potrace 1.15, written by Peter Selinger 2001-2017
</metadata>
<g transform="translate(0.000000,109.000000) scale(0.100000,-0.100000)"
fill="#000000" stroke="none">
<path d="M115 994 c-48 -12 -51 -15 -25 -29 15 -9 55 -14 96 -15 65 0 75 -3
103 -29 25 -23 31 -37 31 -70 0 -34 -6 -46 -32 -69 -97 -84 -160 -176 -180
-267 -11 -49 -27 -190 -34 -310 -5 -77 -4 -93 10 -105 15 -12 18 -11 23 8 3
12 9 20 13 17 4 -3 10 2 14 10 4 11 20 15 55 15 27 0 53 4 56 10 3 5 16 10 28
10 25 0 77 18 124 42 32 16 34 15 105 -21 40 -21 93 -43 118 -50 87 -26 115
-39 125 -59 18 -33 38 -54 44 -43 9 14 -5 410 -16 461 -11 48 -23 82 -32 90
-4 3 -17 21 -30 41 -36 54 -181 139 -237 139 -16 0 -35 4 -42 9 -17 10 -42 58
-42 80 0 10 -9 27 -20 39 -11 12 -20 25 -20 29 0 14 -83 63 -106 63 -11 0 -41
2 -65 4 -24 3 -53 2 -64 0z m330 -276 c37 -12 75 -28 97 -39 10 -5 24 -9 31
-9 20 0 90 -72 114 -118 30 -57 40 -112 22 -123 -19 -12 -86 0 -131 22 -21 11
-46 19 -57 19 -10 0 -29 12 -42 26 -13 14 -32 34 -41 45 -18 19 -48 16 -48 -5
0 -19 -74 -73 -120 -89 -49 -16 -70 -10 -90 28 -10 18 -6 32 22 87 68 129 156
186 243 156z m45 -283 c43 -22 179 -65 205 -65 32 0 45 -31 45 -104 0 -50 -2
-54 -30 -66 -19 -8 -35 -9 -43 -3 -6 5 -32 15 -57 22 -73 22 -113 42 -142 73
-32 34 -48 32 -96 -13 -42 -39 -122 -69 -186 -69 -48 0 -48 0 -42 31 3 17 6
53 6 79 0 45 2 49 31 59 18 6 47 11 64 11 36 0 145 46 145 61 0 12 65 1 100
-16z"/>
</g>
</svg>
