<svg version="1.0" xmlns="http://www.w3.org/2000/svg"
 width="64.000000pt" height="84.000000pt" viewBox="0 0 64.000000 84.000000"
 preserveAspectRatio="xMidYMid meet">
<metadata>
Created by potrace 1.15, written by Peter Selinger 2001-2017
</metadata>
<g transform="translate(0.000000,84.000000) scale(0.100000,-0.100000)"
fill="#000000" stroke="none">
<path d="M273 644 c-3 -8 -3 -44 0 -80 6 -64 6 -64 -49 -64 -49 0 -55 2 -64
26 -6 14 -10 36 -10 49 0 15 -7 26 -21 30 -30 10 -40 -11 -33 -65 8 -63 40
-90 104 -90 64 0 80 -7 80 -36 0 -23 -2 -23 -111 -26 -95 -3 -114 -6 -123 -21
-8 -14 -8 -20 4 -27 8 -5 107 -10 221 -10 113 0 227 -3 252 -6 38 -6 48 -4 53
10 12 31 -14 41 -124 46 -107 5 -107 5 -110 38 -3 31 -2 32 37 32 50 0 142 20
158 34 8 7 10 29 6 67 -4 46 -10 59 -28 67 -32 15 -43 -1 -38 -52 6 -49 4 -51
-80 -61 -57 -7 -57 -7 -57 47 0 41 -5 62 -21 82 -23 30 -37 33 -46 10z"/>
<path d="M115 264 c-21 -23 -25 -37 -25 -94 0 -83 14 -124 46 -139 32 -14 305
-15 357 0 31 8 42 18 54 47 19 46 14 169 -7 183 -35 22 -94 29 -243 29 -158 0
-158 0 -182 -26z m371 -49 c19 -25 18 -99 -1 -115 -17 -14 -265 -27 -309 -16
-25 6 -26 10 -26 71 0 50 4 66 18 75 11 7 70 9 160 8 128 -3 145 -5 158 -23z"/>
<path d="M243 183 c-52 -4 -81 -22 -67 -44 8 -14 243 -4 258 11 5 5 6 16 3 24
-6 16 -56 18 -194 9z"/>
</g>
</svg>
