<svg version="1.0" xmlns="http://www.w3.org/2000/svg"
 width="70.000000pt" height="74.000000pt" viewBox="0 0 70.000000 74.000000"
 preserveAspectRatio="xMidYMid meet">
<metadata>
Created by potrace 1.15, written by Peter Selinger 2001-2017
</metadata>
<g transform="translate(0.000000,74.000000) scale(0.100000,-0.100000)"
fill="#000000" stroke="none">
<path d="M550 656 c0 -45 -21 -81 -44 -73 -6 2 -13 23 -16 47 -10 84 -50 47
-50 -46 0 -42 -1 -44 -29 -44 -30 0 -41 18 -41 68 0 28 -26 29 -40 1 -14 -24
-5 -73 17 -90 8 -7 33 -15 56 -18 35 -5 43 -10 45 -30 5 -30 -12 -41 -64 -41
-25 0 -47 -6 -54 -16 -12 -13 2 -15 131 -12 120 3 144 5 144 18 0 11 -14 16
-50 20 -50 5 -50 5 -53 52 -3 47 -3 47 37 58 36 9 42 15 51 51 15 53 5 99 -21
99 -16 0 -19 -7 -19 -44z"/>
<path d="M115 533 c-44 -5 -71 -22 -84 -50 -24 -52 -5 -125 41 -157 37 -27
160 -15 186 17 6 7 16 33 23 58 10 38 10 50 -6 82 -9 20 -24 37 -31 37 -8 0
-14 5 -14 10 0 10 -53 11 -115 3z m99 -49 c18 -7 22 -64 6 -94 -19 -35 -130
-39 -130 -5 0 16 4 18 70 19 34 1 45 5 48 19 3 15 -5 17 -62 17 -36 0 -66 4
-66 9 0 16 24 29 60 34 19 2 40 5 47 5 6 1 18 -1 27 -4z"/>
<path d="M430 373 c0 -4 9 -16 20 -28 11 -11 21 -32 22 -45 5 -39 -28 -37 -69
5 -40 41 -59 36 -48 -14 11 -53 74 -88 104 -58 25 24 41 -20 41 -114 0 -61 4
-90 14 -98 10 -9 16 -8 25 3 9 11 10 33 2 91 -16 112 -15 124 14 137 31 14 39
37 30 89 -8 47 -27 47 -36 0 -11 -54 -23 -55 -58 -6 -28 39 -61 60 -61 38z"/>
<path d="M272 184 c-30 -21 -28 -39 8 -54 55 -23 170 7 170 44 0 29 -140 37
-178 10z"/>
</g>
</svg>
