<svg version="1.0" xmlns="http://www.w3.org/2000/svg"
 width="125.000000pt" height="463.000000pt" viewBox="0 0 125.000000 463.000000"
 preserveAspectRatio="xMidYMid meet">
<metadata>
Created by potrace 1.15, written by Peter Selinger 2001-2017
</metadata>
<g transform="translate(0.000000,463.000000) scale(0.100000,-0.100000)"
fill="#000000" stroke="none">
<path d="M274 4493 c-10 -31 -28 -67 -47 -95 -10 -15 -23 -41 -29 -58 -6 -18
-22 -44 -35 -58 -27 -30 -57 -81 -50 -88 2 -2 17 2 33 11 31 16 91 20 111 7
16 -10 24 -146 27 -462 1 -135 7 -267 13 -295 6 -27 11 -128 12 -224 1 -96 4
-178 6 -182 3 -3 7 -44 11 -90 3 -46 10 -109 14 -139 10 -57 17 -416 9 -424
-2 -2 -29 -5 -59 -7 -67 -3 -80 -7 -80 -25 0 -11 18 -14 75 -14 52 0 77 -4 80
-12 2 -7 6 -105 9 -218 9 -365 16 -563 26 -680 5 -63 12 -198 15 -300 3 -102
7 -237 10 -300 3 -63 8 -244 11 -402 6 -288 6 -288 -42 -290 -27 0 -55 -1 -63
0 -8 0 -21 -6 -29 -15 -13 -13 -13 -16 -1 -24 8 -5 19 -9 24 -9 34 1 278 30
283 34 10 11 -6 17 -62 23 -31 3 -59 11 -63 16 -3 6 -10 204 -15 441 -5 237
-11 478 -13 536 -2 58 -9 236 -15 395 -6 160 -13 322 -15 360 -2 39 -7 138
-10 220 -3 83 -8 167 -10 187 -5 36 -4 37 37 49 81 21 92 28 77 45 -10 13 -25
15 -66 10 -52 -6 -52 -6 -57 36 -3 24 -8 124 -10 223 -3 99 -8 189 -10 200 -3
11 -10 142 -16 290 -6 149 -14 315 -17 370 -3 55 -7 188 -9 295 -1 107 -5 238
-8 292 -7 96 -7 96 44 100 39 2 56 -1 70 -14 25 -23 30 -23 30 5 0 12 -11 35
-24 50 -45 52 -124 182 -131 215 -7 35 -32 44 -41 15z m31 -103 c3 -11 10 -20
15 -20 5 0 11 -8 15 -19 3 -10 14 -29 25 -41 23 -26 25 -40 8 -40 -7 0 -45 -2
-85 -5 -54 -3 -72 -1 -76 9 -3 8 0 17 7 19 7 3 25 30 40 61 29 60 41 68 51 36z"/>
<path d="M735 4479 c-16 -4 -55 -11 -85 -16 -30 -4 -54 -12 -53 -18 3 -11 194
-19 231 -10 22 5 30 29 13 39 -16 11 -76 13 -106 5z"/>
<path d="M673 4317 c-108 -10 -131 -22 -62 -33 67 -11 73 -25 81 -187 3 -78 7
-149 8 -158 1 -9 12 -21 26 -28 13 -6 24 -19 24 -30 0 -11 5 -23 10 -26 12 -7
13 -72 2 -79 -14 -8 -78 15 -108 39 -25 20 -27 28 -36 136 -5 62 -13 118 -18
123 -6 6 -10 17 -10 27 0 18 -54 79 -70 79 -16 0 -12 -19 10 -50 32 -45 40
-77 46 -179 4 -78 10 -106 32 -151 30 -59 57 -79 123 -87 39 -6 39 -6 39 -77
0 -67 -15 -126 -32 -126 -5 0 -8 -6 -8 -12 0 -7 -26 -47 -57 -88 -76 -102 -91
-138 -120 -284 -7 -36 14 -125 37 -153 30 -38 82 -63 131 -63 64 0 107 -31
141 -100 28 -57 33 -92 43 -288 5 -112 5 -112 -27 -132 -22 -13 -51 -20 -86
-20 -67 0 -141 -33 -143 -64 -7 -99 7 -222 31 -281 16 -39 24 -162 24 -350 0
-186 -5 -230 -39 -329 -11 -32 -13 -52 -7 -58 14 -14 39 37 48 93 4 24 10 49
14 54 8 11 20 156 25 310 3 87 -15 271 -29 293 -8 13 -18 92 -23 167 -3 62 -1
73 19 97 19 22 34 27 88 32 36 4 71 2 78 -2 18 -12 29 -146 22 -262 -9 -132
-4 -1627 5 -1777 8 -123 8 -123 -50 -123 -57 0 -125 -17 -125 -31 0 -4 17 -9
38 -11 44 -6 301 1 321 8 30 10 -10 29 -72 34 -62 5 -62 5 -69 175 -4 94 -9
208 -11 255 -3 47 -2 105 2 130 4 25 3 65 -1 90 -4 25 -7 322 -6 660 1 1334 2
1241 -16 1293 -9 26 -25 66 -36 87 -24 47 -24 50 -5 50 8 0 39 11 68 24 86 38
127 108 127 215 0 113 -36 180 -167 312 -93 94 -93 94 -93 170 0 76 0 76 50
99 28 13 50 27 50 32 0 4 6 8 14 8 43 0 85 157 86 324 0 50 5 74 17 88 21 23
11 33 -15 17 -24 -15 -31 -45 -38 -154 -8 -125 -23 -181 -60 -220 -18 -19 -39
-35 -46 -36 -7 0 -23 -2 -35 -5 -21 -4 -23 0 -23 46 0 28 4 50 8 50 5 0 19 19
32 42 22 39 23 53 24 202 1 161 1 161 39 164 29 3 37 7 37 23 0 17 -7 19 -87
18 -49 -1 -134 -6 -190 -12z m154 -50 c13 -14 18 -138 8 -214 -17 -124 -27
-140 -66 -110 -33 25 -39 55 -39 191 0 120 2 135 18 139 16 5 72 0 79 -6z m47
-829 c39 -40 81 -87 93 -103 22 -32 67 -154 60 -162 -6 -6 -122 62 -217 128
-9 6 -37 24 -63 40 -26 16 -47 32 -47 37 0 4 11 19 25 34 14 15 25 31 25 35 0
8 42 62 49 63 1 0 35 -33 75 -72z m-161 -124 c9 -4 17 -10 17 -15 0 -5 4 -9
10 -9 9 0 122 -68 146 -88 5 -5 21 -15 35 -22 13 -7 26 -16 29 -19 3 -3 19
-14 35 -23 24 -14 30 -23 28 -49 0 -17 -8 -39 -17 -48 -15 -14 -19 -14 -44 2
-15 10 -35 21 -44 24 -10 3 -18 9 -18 14 0 5 -5 9 -10 9 -10 0 -124 66 -205
118 -22 15 -41 27 -43 28 -9 5 44 93 53 89 5 -3 18 -8 28 -11z m-28 -163 c3
-5 31 -22 63 -37 31 -16 59 -31 62 -34 9 -9 64 -41 83 -47 9 -3 17 -9 17 -14
0 -5 7 -9 15 -9 16 0 19 -9 7 -25 -18 -25 -66 -38 -145 -39 -97 -1 -139 16
-175 70 -26 40 -27 59 -6 124 16 49 16 49 44 35 16 -8 31 -19 35 -24z"/>
<path d="M154 4026 c-3 -14 -1 -103 5 -198 6 -95 13 -229 16 -298 7 -228 24
-585 29 -615 12 -78 26 -198 31 -274 3 -46 10 -91 15 -100 18 -32 23 19 16
148 -4 69 -11 221 -16 336 -4 116 -15 273 -23 350 -8 77 -17 214 -18 305 -2
91 -7 170 -11 175 -4 6 -8 45 -9 86 -2 84 -22 134 -35 85z"/>
<path d="M410 3874 c0 -162 1 -175 18 -172 34 6 26 348 -8 348 -6 0 -10 -70
-10 -176z"/>
<path d="M415 3598 c2 -51 8 -194 13 -318 6 -124 13 -295 17 -381 7 -156 31
-296 50 -291 11 2 11 70 1 227 -4 55 -8 183 -10 285 -2 157 -12 286 -42 528
-3 26 -10 42 -19 42 -11 0 -13 -19 -10 -92z"/>
<path d="M509 2220 c-3 -150 4 -541 11 -584 4 -28 8 -112 9 -186 1 -74 6 -191
11 -260 5 -69 12 -204 14 -300 12 -399 23 -520 47 -520 12 0 11 162 0 231 -5
30 -12 180 -15 334 -3 154 -8 289 -11 300 -2 11 -7 106 -9 210 -3 105 -8 210
-10 235 -3 25 -8 135 -12 245 -4 110 -8 226 -9 258 -3 73 -25 103 -26 37z"/>
<path d="M255 1948 c3 -286 7 -390 25 -598 6 -63 12 -309 13 -547 1 -307 5
-435 13 -443 9 -9 14 -8 20 2 13 20 4 885 -10 963 -3 17 -7 116 -10 220 -3
105 -8 286 -11 402 -4 153 -10 222 -21 248 -8 19 -16 35 -18 35 -2 0 -2 -127
-1 -282z"/>
</g>
</svg>
