<svg version="1.0" xmlns="http://www.w3.org/2000/svg"
 width="139.000000pt" height="163.000000pt" viewBox="0 0 139.000000 163.000000"
 preserveAspectRatio="xMidYMid meet">
<metadata>
Created by potrace 1.15, written by Peter Selinger 2001-2017
</metadata>
<g transform="translate(0.000000,163.000000) scale(0.100000,-0.100000)"
fill="#000000" stroke="none">
<path d="M969 1526 c-2 -2 -42 -7 -89 -10 -116 -9 -125 -11 -128 -28 -2 -12
14 -14 100 -12 129 3 182 14 186 37 3 13 -4 17 -31 17 -18 0 -36 -2 -38 -4z"/>
<path d="M432 1441 c-10 -9 -45 -50 -78 -92 -147 -190 -237 -340 -216 -361 8
-8 19 3 41 38 36 57 40 63 84 129 35 53 36 53 115 40 32 -6 32 -6 33 -78 0
-40 3 -93 5 -119 3 -28 0 -49 -7 -53 -6 -4 -41 -9 -77 -12 -37 -3 -69 -7 -71
-9 -12 -11 18 -19 83 -22 73 -4 73 -4 80 -97 8 -101 6 -422 -1 -442 -4 -9 -29
-13 -79 -13 -58 0 -74 -3 -74 -14 0 -22 8 -24 100 -27 121 -4 250 10 250 27 0
11 -19 14 -75 14 -75 0 -75 0 -75 275 0 275 0 275 28 275 85 2 143 12 131 24
-5 6 -86 18 -129 20 -35 2 -35 2 -38 124 -3 122 -3 122 23 132 58 22 125 2
125 -37 0 -6 3 -13 8 -15 4 -1 23 -29 42 -60 37 -62 50 -71 50 -35 0 26 -21
77 -32 77 -5 0 -8 6 -8 13 0 6 -11 25 -25 41 -14 16 -25 33 -25 37 0 4 -6 14
-12 21 -15 15 -34 48 -57 93 -8 17 -25 44 -38 61 -13 17 -23 36 -23 41 0 19
-39 21 -58 4z m38 -42 c0 -5 18 -37 40 -69 22 -32 40 -64 40 -69 0 -11 -13
-12 -145 -15 -54 -1 -60 1 -57 18 2 10 17 33 33 50 16 17 29 37 29 44 0 6 4
12 9 12 5 0 11 9 14 20 5 20 37 29 37 9z"/>
<path d="M945 1369 c-159 -9 -258 -18 -263 -24 -14 -13 15 -23 61 -19 60 5 71
-1 106 -65 13 -25 37 -58 53 -74 15 -17 28 -36 28 -43 0 -16 -41 -19 -68 -5
-52 26 -122 39 -122 21 0 -15 67 -45 139 -63 35 -9 65 -18 67 -20 11 -11 7
-50 -6 -57 -8 -4 -25 -12 -37 -18 -13 -7 -30 -12 -38 -12 -8 0 -15 -4 -15 -10
0 -5 -6 -10 -13 -10 -49 0 -69 -106 -32 -165 31 -50 43 -55 127 -55 78 0 78 0
78 -50 0 -47 -11 -63 -25 -40 -3 6 -18 10 -33 10 -15 0 -33 4 -41 9 -8 5 -20
7 -28 4 -19 -7 -16 -33 5 -34 9 0 39 -10 65 -23 48 -23 48 -23 23 -39 -43 -29
-66 -60 -66 -91 0 -43 21 -98 47 -120 22 -19 22 -19 -22 -54 -44 -34 -56 -52
-34 -52 6 0 23 8 37 18 28 19 95 52 106 52 10 0 6 -100 -4 -101 -5 -1 -14 -3
-20 -4 -5 -1 -32 -3 -60 -4 -27 0 -50 -5 -50 -11 0 -5 8 -10 17 -10 10 0 41
-6 71 -12 48 -12 53 -15 50 -38 -2 -17 -10 -26 -23 -27 -11 -1 -50 -5 -87 -8
-49 -5 -68 -11 -68 -21 0 -11 25 -14 128 -15 70 -1 165 -2 212 -3 106 -1 122
16 25 27 -77 9 -126 14 -137 16 -5 1 -8 15 -8 31 0 26 4 30 28 31 15 1 31 1
35 0 13 -2 47 19 47 29 0 5 -17 12 -37 15 -71 12 -73 14 -73 56 0 44 2 46 38
21 41 -27 81 -46 87 -40 11 11 -8 37 -36 48 -33 14 -37 26 -10 35 28 9 61 40
61 58 0 9 5 19 10 22 6 3 10 23 10 44 0 50 -47 102 -110 121 -72 22 -73 26 -2
74 48 32 56 42 44 50 -4 2 -34 -9 -66 -25 -32 -17 -60 -29 -61 -27 -2 2 -5 26
-6 55 -4 52 -4 52 51 90 68 47 86 80 70 127 -6 18 -23 45 -39 60 -23 22 -39
28 -82 29 -53 2 -54 2 -57 35 -4 35 19 65 59 77 11 4 19 11 19 16 0 5 6 9 14
9 19 0 40 26 27 34 -5 4 -36 -10 -69 -29 -33 -19 -62 -35 -65 -35 -21 0 0 110
26 136 4 4 7 18 7 30 0 18 8 25 38 33 20 6 52 11 70 11 49 0 35 25 -14 26 -21
0 -93 -2 -159 -7z m25 -42 c0 -1 -9 -27 -20 -57 -11 -30 -20 -56 -20 -58 0
-12 -24 16 -40 48 -27 53 -18 70 36 70 24 0 44 -1 44 -3z m152 -350 c11 -18
10 -73 -3 -101 -7 -14 -24 -29 -38 -34 -23 -8 -27 -5 -38 27 -7 20 -13 46 -13
59 0 13 -5 33 -11 44 -8 15 -8 22 1 28 16 10 92 -8 102 -23z m-144 -14 c5 -10
12 -46 16 -80 6 -55 5 -63 -13 -72 -22 -12 -23 -12 -41 49 -7 25 -17 49 -22
55 -17 19 -9 54 15 58 12 2 25 5 29 6 4 0 11 -7 16 -16z m-108 -43 c0 -5 11
-34 25 -64 14 -30 25 -57 25 -59 0 -3 -14 -7 -31 -9 -24 -4 -35 1 -55 24 -28
34 -30 48 -9 88 15 28 45 42 45 20z m281 -362 c35 -12 58 -34 59 -55 0 -9 -20
-13 -70 -13 -70 0 -70 0 -70 40 0 35 3 40 24 40 12 0 38 -5 57 -12z m-121 -28
c0 -46 -17 -60 -52 -43 -37 19 -35 37 5 57 44 21 47 20 47 -14z m165 -80 c4
-6 -1 -22 -10 -36 -13 -21 -22 -24 -58 -22 -37 3 -42 6 -45 30 -3 25 -1 27 45
31 26 2 51 4 55 5 4 1 10 -3 13 -8z m-151 -16 c12 -31 6 -44 -20 -44 -30 0
-87 37 -79 51 11 16 92 11 99 -7z"/>
<path d="M550 795 c0 -16 113 -133 154 -161 25 -16 26 -15 26 3 0 10 -22 45
-49 77 -69 81 -131 120 -131 81z"/>
<path d="M310 718 c-10 -18 -24 -38 -29 -45 -6 -7 -11 -16 -11 -20 0 -4 -20
-29 -43 -55 -77 -85 -91 -108 -63 -108 18 0 137 118 152 150 35 77 42 110 24
110 -6 0 -19 -15 -30 -32z"/>
<path d="M520 642 c0 -5 9 -19 20 -32 11 -13 20 -27 20 -32 0 -11 77 -83 106
-99 29 -15 38 -8 29 20 -10 33 -132 151 -155 151 -11 0 -20 -4 -20 -8z"/>
</g>
</svg>
