<svg version="1.0" xmlns="http://www.w3.org/2000/svg"
 width="65.000000pt" height="86.000000pt" viewBox="0 0 65.000000 86.000000"
 preserveAspectRatio="xMidYMid meet">
<metadata>
Created by potrace 1.15, written by Peter Selinger 2001-2017
</metadata>
<g transform="translate(0.000000,86.000000) scale(0.100000,-0.100000)"
fill="#000000" stroke="none">
<path d="M123 614 c-10 -14 -33 -45 -50 -70 -18 -24 -33 -49 -33 -54 0 -15 21
-12 41 6 15 14 19 13 38 -12 15 -19 21 -39 19 -63 -3 -34 -5 -36 -41 -39 -30
-3 -37 -7 -35 -20 2 -12 15 -18 41 -20 31 -3 37 -7 37 -26 0 -19 -4 -21 -33
-18 -22 2 -38 -2 -46 -12 -19 -23 -5 -36 40 -36 39 0 39 0 39 -84 0 -84 0 -84
-49 -91 -62 -8 -84 -29 -48 -46 37 -17 222 1 222 21 0 10 -16 18 -42 24 -43
10 -43 10 -43 88 0 54 4 80 13 82 6 3 25 7 40 11 41 8 32 38 -16 49 -47 12
-53 46 -8 46 50 0 47 32 -4 42 -14 2 -21 12 -22 33 -3 39 48 85 73 64 21 -17
39 2 26 28 -13 24 -118 123 -131 123 -6 0 -18 -12 -28 -26z m61 -53 c14 -15
15 -24 6 -40 -14 -28 -34 -26 -50 4 -11 20 -11 27 0 40 16 20 23 19 44 -4z"/>
<path d="M363 603 c-26 -5 -31 -28 -7 -37 9 -3 51 -6 94 -6 80 0 110 6 110 20
0 21 -130 36 -197 23z"/>
<path d="M334 506 c-18 -14 -18 -15 7 -25 41 -15 44 -58 8 -92 -73 -68 -52
-168 38 -185 32 -6 50 -20 40 -30 -3 -3 -26 -8 -53 -12 -65 -10 -67 -28 -5
-37 28 -4 53 -11 56 -15 6 -10 -57 -30 -93 -30 -17 0 -23 -5 -20 -17 3 -16 19
-18 137 -21 138 -3 165 4 141 33 -8 10 -30 15 -67 15 -47 0 -54 3 -51 18 3 14
13 16 56 14 41 -3 53 0 58 13 9 24 -13 35 -68 35 -41 0 -48 3 -48 20 0 15 7
20 28 21 59 1 94 22 109 64 17 49 12 71 -26 113 -21 23 -39 32 -61 32 -29 0
-30 1 -19 23 16 31 28 37 72 37 42 0 52 24 15 34 -48 12 -233 7 -254 -8z m122
-48 c-3 -13 -6 -26 -6 -30 0 -18 -28 -6 -33 14 -8 28 -1 38 25 38 16 0 19 -5
14 -22z m78 -84 c9 -4 21 -15 27 -25 9 -17 6 -19 -41 -19 -42 0 -50 3 -50 18
0 31 25 41 64 26z m-114 -24 c0 -16 -7 -20 -35 -20 -37 0 -43 8 -23 28 20 20
58 15 58 -8z m0 -85 c0 -19 -5 -25 -23 -25 -25 0 -47 17 -47 37 0 8 13 13 35
13 31 0 35 -3 35 -25z m130 5 c-34 -27 -80 -27 -80 0 0 17 7 20 53 20 52 0 52
0 27 -20z"/>
<path d="M217 213 c-12 -11 -8 -68 6 -88 21 -28 37 -9 37 46 0 41 -3 49 -18
49 -10 0 -22 -3 -25 -7z"/>
<path d="M65 198 c-9 -24 10 -93 25 -93 11 0 15 13 15 50 0 39 -4 50 -18 53
-9 2 -19 -3 -22 -10z"/>
</g>
</svg>
