<svg version="1.0" xmlns="http://www.w3.org/2000/svg"
 width="101.000000pt" height="131.000000pt" viewBox="0 0 101.000000 131.000000"
 preserveAspectRatio="xMidYMid meet">
<metadata>
Created by potrace 1.15, written by Peter Selinger 2001-2017
</metadata>
<g transform="translate(0.000000,131.000000) scale(0.100000,-0.100000)"
fill="#000000" stroke="none">
<path d="M410 1020 c0 -130 0 -130 -49 -130 -35 0 -51 4 -55 16 -9 23 -7 79 3
107 8 20 5 29 -12 45 -12 11 -32 23 -44 27 -23 6 -23 6 -23 -97 0 -104 0 -104
-100 -122 -71 -13 -100 -22 -100 -32 0 -23 40 -32 95 -23 74 12 165 11 165 -2
0 -6 45 -54 100 -108 100 -98 100 -98 100 -154 0 -56 0 -57 -29 -57 -19 0 -43
13 -74 40 -25 22 -48 40 -51 40 -16 0 -3 -60 17 -81 38 -38 66 -59 82 -59 8 0
15 -4 15 -10 0 -5 14 -10 30 -10 30 0 30 0 30 -56 0 -56 0 -56 -37 -49 -20 4
-60 19 -87 33 -28 15 -54 28 -58 30 -15 7 -7 -33 10 -53 18 -22 110 -69 154
-80 27 -7 27 -9 27 -75 -1 -68 -1 -68 -47 -80 -78 -19 -98 -30 -81 -41 19 -12
116 -12 124 1 3 6 22 10 41 10 63 0 124 20 124 41 0 15 -7 19 -39 19 -47 0
-57 11 -64 75 -5 49 -4 50 43 95 26 25 51 55 55 67 3 13 13 29 21 37 8 8 11
22 8 30 -10 27 -38 18 -57 -17 -20 -37 -61 -87 -71 -87 -3 0 -6 28 -6 63 0 54
4 66 28 92 27 31 82 125 82 141 -1 35 -50 40 -50 5 0 -29 -60 -115 -72 -103
-15 15 3 184 27 247 27 74 28 76 46 70 13 -4 19 -1 19 9 0 12 10 16 35 16 23
0 38 6 41 15 7 18 -32 54 -58 55 -10 0 -18 6 -18 13 0 6 -5 43 -10 82 -10 66
-37 115 -63 115 -4 0 -7 -47 -6 -104 3 -118 -4 -135 -53 -132 -38 2 -44 18
-51 142 -5 84 -17 114 -43 114 -11 0 -14 -26 -14 -130z m127 -188 c8 -5 8 -21
-3 -62 -8 -30 -14 -62 -14 -72 0 -38 -25 -26 -96 45 -40 41 -74 77 -74 80 0 3
37 8 83 10 45 1 84 4 87 5 3 1 10 -2 17 -6z"/>
<path d="M786 715 c-8 -21 21 -47 86 -79 46 -22 57 -33 68 -65 12 -39 7 -81
-11 -81 -5 0 -19 9 -31 20 -12 11 -28 20 -35 20 -7 0 -13 4 -13 9 0 12 -63 23
-84 15 -14 -5 -14 -9 5 -35 11 -16 27 -29 36 -29 20 0 73 -55 73 -74 0 -19
-87 -33 -103 -17 -15 15 -44 14 -50 -2 -15 -40 79 -79 138 -57 22 8 25 6 35
-28 5 -20 10 -49 10 -65 0 -44 52 -117 85 -117 16 0 21 25 6 34 -5 3 -11 29
-15 58 -19 172 -19 166 3 217 11 27 21 70 21 95 0 68 -29 105 -121 154 -85 46
-94 49 -103 27z"/>
</g>
</svg>
