<svg version="1.0" xmlns="http://www.w3.org/2000/svg"
 width="99.000000pt" height="141.000000pt" viewBox="0 0 99.000000 141.000000"
 preserveAspectRatio="xMidYMid meet">
<metadata>
Created by potrace 1.15, written by Peter Selinger 2001-2017
</metadata>
<g transform="translate(0.000000,141.000000) scale(0.100000,-0.100000)"
fill="#000000" stroke="none">
<path d="M528 1243 c-3 -119 -6 -164 -9 -168 -8 -6 -150 -21 -154 -15 -2 3 -7
50 -11 105 -3 55 -11 108 -16 118 -18 36 -28 15 -28 -62 0 -43 -3 -99 -6 -123
-6 -45 -6 -45 -58 -53 -108 -15 -101 -20 -99 63 1 63 -1 74 -20 87 -12 8 -29
15 -38 15 -15 0 -16 -10 -11 -86 5 -79 4 -85 -15 -90 -11 -3 -26 -17 -32 -30
-12 -27 -12 -27 41 -38 15 -4 42 -23 60 -42 69 -76 84 -91 111 -109 16 -10 41
-37 58 -61 24 -36 29 -52 29 -103 0 -54 -2 -61 -20 -61 -11 0 -20 4 -20 8 0 5
-16 14 -35 22 -20 8 -56 36 -81 63 -33 34 -50 45 -57 38 -20 -20 32 -105 86
-143 26 -18 56 -40 65 -49 9 -9 27 -20 40 -23 19 -6 22 -14 22 -62 0 -35 -4
-54 -12 -54 -35 0 -90 31 -142 82 -32 32 -63 58 -68 58 -44 0 27 -122 98 -169
26 -17 55 -31 63 -31 9 -1 27 -10 40 -21 22 -18 23 -23 13 -56 -6 -20 -9 -40
-7 -44 12 -19 14 -108 2 -117 -6 -5 -51 -13 -99 -17 -49 -4 -90 -10 -92 -13
-8 -15 10 -37 34 -41 85 -12 354 -2 381 15 16 10 -19 34 -50 34 -16 0 -32 4
-35 8 -2 4 -17 7 -33 6 -28 -1 -28 0 -33 70 -7 99 -1 156 16 156 49 0 194 149
180 185 -9 25 -32 17 -69 -25 -19 -22 -40 -40 -46 -40 -6 0 -11 -4 -11 -9 0
-5 -8 -11 -17 -14 -10 -2 -26 -8 -35 -12 -16 -6 -18 -1 -18 48 0 31 5 59 10
62 6 4 8 10 5 15 -5 8 46 50 61 50 4 0 20 12 35 26 15 15 38 32 51 38 22 12
28 45 14 83 -7 17 -36 3 -81 -38 -16 -16 -36 -29 -42 -29 -7 0 -13 -4 -13 -10
0 -16 -27 -11 -34 6 -15 39 3 103 44 154 14 17 41 61 60 98 35 67 42 73 128
108 33 13 42 22 42 41 0 21 -5 23 -44 23 -44 0 -44 0 -44 75 0 86 -9 133 -28
152 -21 22 -24 16 -26 -54z m-58 -267 c0 -13 -36 -89 -53 -111 -40 -55 -44
-57 -65 -51 -30 10 -133 118 -130 136 2 11 23 17 81 21 43 4 81 9 84 13 4 3
24 6 45 6 26 0 38 -4 38 -14z"/>
<path d="M780 742 c0 -11 50 -82 81 -115 36 -38 37 -96 3 -136 -2 -2 -16 10
-31 26 -15 16 -38 35 -50 41 -25 14 -73 16 -73 3 0 -4 28 -34 61 -65 57 -52
61 -59 50 -80 -17 -30 -64 -46 -140 -46 -78 0 -78 -17 0 -43 55 -18 60 -17
121 14 33 17 37 10 31 -54 -6 -67 12 -236 27 -251 18 -18 25 6 27 97 2 90 9
191 16 252 2 17 15 48 30 70 30 46 42 93 33 129 -9 35 -140 166 -166 166 -11
0 -20 -3 -20 -8z"/>
</g>
</svg>
