<svg version="1.0" xmlns="http://www.w3.org/2000/svg"
 width="95.000000pt" height="159.000000pt" viewBox="0 0 95.000000 159.000000"
 preserveAspectRatio="xMidYMid meet">
<metadata>
Created by potrace 1.15, written by Peter Selinger 2001-2017
</metadata>
<g transform="translate(0.000000,159.000000) scale(0.100000,-0.100000)"
fill="#000000" stroke="none">
<path d="M690 1432 c0 -132 3 -126 -70 -138 -22 -4 -27 1 -37 36 -7 22 -13 58
-13 79 0 41 -17 90 -35 103 -24 18 -30 -4 -30 -118 0 -119 0 -119 -47 -122
-46 -3 -47 -3 -57 35 -6 21 -11 48 -11 61 0 62 -33 142 -58 142 -15 0 -22 -72
-10 -111 6 -22 8 -60 4 -92 -7 -54 -8 -55 -44 -61 -66 -11 -72 -9 -72 24 0 53
-34 165 -57 188 -32 33 -57 -40 -34 -100 5 -13 10 -50 12 -83 4 -58 4 -59 -26
-67 -41 -10 -61 -43 -40 -65 14 -13 22 -14 53 -5 20 7 54 14 74 17 33 4 39 1
59 -28 13 -17 49 -58 80 -90 52 -53 58 -64 65 -113 3 -30 4 -57 1 -60 -14 -14
-81 31 -149 102 -42 43 -80 75 -84 72 -3 -4 -3 -24 0 -44 6 -27 25 -54 79
-108 40 -39 89 -80 110 -89 20 -10 37 -26 38 -35 1 -32 -3 -127 -6 -130 -2 -2
-11 1 -22 7 -10 5 -31 13 -47 16 -17 4 -59 35 -101 76 -39 38 -75 69 -78 69
-13 0 -7 -46 11 -81 42 -83 156 -169 224 -169 20 0 21 -3 15 -92 -4 -50 -10
-95 -14 -98 -10 -9 -141 -30 -182 -30 -40 0 -81 -20 -81 -39 0 -22 54 -44 93
-38 18 3 64 11 102 17 39 6 97 13 130 14 79 4 175 26 175 41 0 20 -49 39 -106
39 -54 1 -54 1 -54 80 0 78 0 78 68 145 38 36 82 78 98 93 59 54 83 96 63 109
-19 12 -23 11 -47 -8 -11 -10 -34 -29 -51 -43 -17 -14 -31 -29 -31 -35 0 -13
-65 -55 -86 -55 -13 0 -15 6 -10 31 3 17 6 45 6 60 0 22 7 32 25 41 13 6 27
19 30 30 4 10 16 18 27 18 25 0 99 75 122 124 9 19 24 40 34 45 13 8 15 14 6
28 -20 33 -47 27 -74 -17 -14 -22 -27 -40 -30 -40 -3 0 -16 -17 -29 -38 -21
-35 -69 -72 -92 -72 -29 0 8 129 60 203 17 25 31 48 31 52 0 4 13 26 30 50 32
47 69 65 131 65 22 0 39 4 39 9 0 5 9 11 20 14 26 7 26 27 0 34 -22 6 -34 33
-35 83 -4 151 -5 158 -22 164 -10 3 -24 9 -30 12 -10 4 -13 -22 -13 -114z
m-160 -247 c0 -8 -3 -15 -8 -15 -4 0 -18 -21 -32 -47 -33 -64 -46 -76 -73 -69
-33 8 -67 40 -67 63 0 10 -5 24 -12 31 -22 22 8 36 90 42 42 4 83 8 90 8 6 1
12 -5 12 -13z"/>
<path d="M821 801 c-11 -7 -10 -14 8 -40 27 -38 32 -132 7 -156 -19 -19 -35
-11 -84 46 -31 36 -73 56 -93 44 -5 -4 3 -25 19 -48 40 -61 56 -96 48 -104 -4
-5 -41 -7 -82 -6 -64 1 -74 -1 -74 -16 0 -29 33 -51 78 -51 22 0 44 -5 47 -10
4 -7 13 -6 26 1 12 6 22 9 24 7 2 -2 7 -67 10 -143 7 -197 15 -285 26 -285 5
0 18 18 29 40 18 35 20 58 20 210 0 171 0 171 51 272 52 101 52 101 39 152 -8
31 -23 60 -39 73 -28 25 -39 27 -60 14z"/>
</g>
</svg>
