<svg version="1.0" xmlns="http://www.w3.org/2000/svg"
 width="93.000000pt" height="145.000000pt" viewBox="0 0 93.000000 145.000000"
 preserveAspectRatio="xMidYMid meet">
<metadata>
Created by potrace 1.15, written by Peter Selinger 2001-2017
</metadata>
<g transform="translate(0.000000,145.000000) scale(0.100000,-0.100000)"
fill="#000000" stroke="none">
<path d="M325 1327 c-4 -18 -5 -78 -3 -134 3 -102 3 -102 -82 -105 -47 -2 -91
-2 -98 0 -7 3 -12 21 -12 48 0 37 -6 79 -26 172 -2 12 -11 22 -19 22 -13 0
-15 -22 -15 -129 0 -76 -4 -132 -10 -136 -29 -18 17 -55 67 -55 16 0 30 -11
43 -32 10 -18 23 -37 27 -43 5 -5 20 -30 35 -55 14 -25 35 -55 46 -68 14 -16
20 -35 18 -60 -2 -34 -4 -37 -36 -40 -45 -3 -110 -23 -110 -33 0 -17 41 -29
99 -29 61 0 61 0 61 -60 0 -60 0 -60 -37 -60 -53 0 -113 -18 -113 -34 0 -17
22 -26 63 -26 18 0 49 -5 69 -11 38 -10 38 -10 38 -124 0 -101 -2 -115 -17
-115 -47 0 -143 -23 -143 -35 0 -20 27 -23 191 -18 138 4 199 14 199 33 0 7
-103 28 -139 29 -13 0 -25 2 -27 4 -3 2 -5 59 -5 127 -1 134 -1 135 61 146 50
9 90 32 90 50 0 13 -6 15 -27 10 -16 -4 -51 -10 -79 -13 -47 -5 -52 -4 -57 18
-10 37 -8 99 3 99 15 0 103 42 118 57 22 21 -10 27 -68 13 -28 -7 -54 -10 -57
-7 -13 14 -4 59 19 89 13 18 34 54 47 80 43 91 94 133 161 133 35 0 35 0 32
123 -3 127 -15 172 -48 172 -11 0 -14 -23 -14 -109 0 -109 0 -109 -28 -120
-28 -12 -148 -19 -157 -9 -3 2 -7 55 -10 117 -5 109 -15 151 -35 151 -5 0 -12
-15 -15 -33z m103 -311 c2 -10 0 -21 -5 -25 -7 -5 -13 -15 -47 -76 -6 -10 -17
-25 -23 -33 -7 -7 -13 -18 -13 -23 0 -17 -25 -9 -39 14 -22 34 -81 144 -81
150 0 9 57 14 135 12 59 -1 70 -4 73 -19z"/>
<path d="M626 453 c-5 -5 22 -53 35 -63 7 -5 49 -78 49 -84 0 -2 -27 -2 -60 1
-39 4 -60 2 -60 -5 0 -13 53 -52 72 -52 8 0 23 -6 34 -14 16 -13 17 -18 7 -35
-7 -12 -13 -28 -13 -36 0 -8 -4 -15 -8 -15 -4 0 -15 -13 -25 -29 -14 -24 -15
-30 -3 -34 8 -3 24 3 37 14 12 10 25 19 29 19 4 0 15 16 26 35 17 33 19 34 38
17 10 -9 27 -36 38 -59 21 -48 45 -76 59 -68 12 8 12 70 -1 95 -6 11 -15 29
-20 40 -5 11 -10 27 -10 35 0 8 -4 15 -10 15 -5 0 -10 6 -10 14 0 8 -9 17 -19
21 -11 3 -25 22 -32 43 -20 61 -131 166 -153 145z"/>
</g>
</svg>
