<svg version="1.0" xmlns="http://www.w3.org/2000/svg"
 width="89.000000pt" height="89.000000pt" viewBox="0 0 89.000000 89.000000"
 preserveAspectRatio="xMidYMid meet">
<metadata>
Created by potrace 1.15, written by Peter Selinger 2001-2017
</metadata>
<g transform="translate(0.000000,89.000000) scale(0.100000,-0.100000)"
fill="#000000" stroke="none">
<path d="M236 815 c-3 -9 -6 -59 -6 -111 0 -94 0 -94 -38 -94 -35 0 -39 2 -39
28 0 15 -10 47 -21 71 -12 25 -22 52 -22 60 0 16 -38 46 -47 37 -12 -11 -22
-85 -17 -126 18 -166 28 -212 48 -243 22 -33 107 -86 139 -87 15 0 17 -13 17
-124 0 -75 -4 -127 -10 -131 -6 -4 -38 -11 -72 -15 -67 -10 -92 -25 -68 -41
18 -11 224 -9 294 4 42 7 76 25 76 40 0 2 -28 7 -62 11 -34 3 -65 9 -69 14 -3
4 -12 59 -18 122 -11 115 -11 115 16 137 16 13 31 23 35 23 16 0 50 36 75 78
24 40 26 52 27 180 1 130 0 137 -19 140 -18 3 -22 -6 -32 -84 -7 -47 -14 -88
-15 -90 -9 -8 -84 -14 -95 -7 -7 5 -15 51 -20 113 -7 96 -10 105 -29 108 -13
2 -24 -4 -28 -13z m-2 -287 c3 -13 6 -35 6 -50 0 -25 -4 -28 -33 -28 -42 0
-57 15 -57 56 0 34 9 42 51 43 20 1 28 -5 33 -21z m130 2 c33 -12 34 -43 1
-64 -42 -28 -55 -21 -55 29 0 49 7 53 54 35z"/>
<path d="M513 454 c-7 -19 13 -34 45 -34 32 0 161 -37 178 -51 14 -12 19 -70
8 -82 -7 -6 -64 21 -75 35 -8 12 -94 21 -123 14 -14 -3 -26 -13 -26 -21 0 -17
34 -33 100 -45 31 -6 53 -18 73 -40 16 -18 26 -34 23 -37 -3 -3 -41 -5 -86 -4
-65 1 -80 -1 -80 -13 0 -23 31 -35 109 -42 50 -5 71 -4 71 5 0 24 38 9 71 -29
39 -45 69 -53 69 -16 0 13 -7 29 -16 37 -34 28 -44 66 -41 158 2 80 0 92 -18
105 -38 29 -90 49 -137 54 -27 2 -48 8 -48 13 0 5 -20 9 -45 9 -33 0 -47 -5
-52 -16z"/>
<path d="M397 323 c-10 -9 -9 -141 1 -147 5 -3 18 2 30 10 17 12 22 25 22 62
-1 60 -29 100 -53 75z"/>
<path d="M107 303 c-15 -27 -16 -66 -2 -93 17 -34 27 -37 45 -15 21 26 -2 115
-31 115 -4 0 -10 -3 -12 -7z"/>
</g>
</svg>
