<svg version="1.0" xmlns="http://www.w3.org/2000/svg"
 width="66.000000pt" height="84.000000pt" viewBox="0 0 66.000000 84.000000"
 preserveAspectRatio="xMidYMid meet">
<metadata>
Created by potrace 1.15, written by Peter Selinger 2001-2017
</metadata>
<g transform="translate(0.000000,84.000000) scale(0.100000,-0.100000)"
fill="#000000" stroke="none">
<path d="M436 620 c-5 -34 -11 -41 -39 -48 -41 -11 -37 -26 8 -30 33 -3 35 -6
35 -37 0 -29 -4 -36 -27 -41 -53 -13 -53 -13 -53 -219 0 -200 3 -225 26 -225
10 0 14 22 16 88 3 81 4 87 25 90 21 3 22 0 25 -85 2 -70 6 -88 18 -88 12 0
16 18 18 88 3 87 3 87 32 87 30 0 30 0 30 -64 0 -64 18 -104 41 -91 5 4 9 90
9 193 0 221 -4 232 -76 232 -44 0 -44 0 -44 35 0 35 0 35 54 35 63 0 86 7 86
25 0 20 -33 27 -85 19 -45 -6 -45 -6 -45 25 0 20 -7 34 -19 41 -28 14 -28 14
-35 -30z m14 -230 c0 -36 -2 -40 -25 -40 -28 0 -34 25 -15 61 19 34 40 23 40
-21z m88 28 c7 -7 12 -25 12 -40 0 -24 -4 -28 -30 -28 -28 0 -30 2 -30 40 0
32 4 40 18 40 10 0 23 -5 30 -12z m-88 -143 c0 -31 -3 -35 -25 -35 -21 0 -25
5 -25 28 0 33 7 42 32 42 14 0 18 -8 18 -35z m100 0 c0 -32 -2 -35 -30 -35
-28 0 -30 3 -30 35 0 32 2 35 30 35 28 0 30 -3 30 -35z"/>
<path d="M180 621 c-5 -11 -10 -27 -10 -35 0 -12 -11 -16 -45 -16 -48 0 -72
-23 -44 -41 17 -11 206 -1 232 13 30 16 13 33 -36 36 -37 2 -47 7 -47 21 0 17
-18 41 -32 41 -4 0 -12 -9 -18 -19z"/>
<path d="M81 446 c-8 -9 -11 -75 -9 -217 3 -185 5 -204 21 -207 16 -3 17 11
17 193 0 153 3 196 13 193 8 -3 14 -40 19 -114 3 -60 9 -137 13 -172 7 -63 7
-63 48 -60 35 2 43 7 45 26 3 18 -1 22 -22 22 -21 0 -26 5 -26 25 0 20 5 25
24 25 43 0 49 20 41 140 -7 105 -6 110 12 110 18 0 20 -10 26 -127 4 -71 7
-158 7 -195 0 -52 3 -68 14 -68 23 0 26 24 26 216 0 171 -1 185 -20 204 -24
24 -57 26 -88 4 -21 -14 -22 -23 -22 -129 0 -98 -2 -114 -15 -109 -12 5 -15
28 -15 118 0 74 -4 116 -12 124 -16 16 -83 15 -97 -2z"/>
</g>
</svg>
