<svg version="1.0" xmlns="http://www.w3.org/2000/svg"
 width="59.000000pt" height="133.000000pt" viewBox="0 0 59.000000 133.000000"
 preserveAspectRatio="xMidYMid meet">
<metadata>
Created by potrace 1.15, written by Peter Selinger 2001-2017
</metadata>
<g transform="translate(0.000000,133.000000) scale(0.100000,-0.100000)"
fill="#000000" stroke="none">
<path d="M165 1113 c8 -52 27 -115 38 -130 6 -9 5 -19 -4 -29 -9 -11 -13 -40
-11 -93 4 -87 17 -125 49 -142 26 -14 32 -59 9 -59 -8 0 -16 4 -18 8 -4 11
-73 52 -87 52 -14 0 -14 -21 1 -70 12 -37 28 -54 28 -30 0 14 54 12 68 -2 12
-12 17 -68 6 -68 -11 0 -34 29 -34 44 0 19 -13 27 -29 16 -26 -15 -16 -63 19
-92 29 -24 32 -31 28 -66 -6 -38 12 -109 29 -121 20 -13 41 -54 36 -68 -4 -11
-23 3 -68 52 -63 68 -92 79 -88 34 17 -170 31 -239 49 -239 14 0 19 39 15 108
-2 17 1 32 6 32 15 -1 61 -47 68 -69 3 -11 10 -21 15 -21 5 0 15 -3 24 -6 12
-5 16 1 16 23 0 17 5 44 11 61 12 34 0 65 -45 117 -28 32 -32 55 -16 85 6 12
17 16 30 13 11 -3 20 -8 20 -12 0 -4 14 -15 30 -24 22 -13 30 -26 30 -46 0
-45 36 -70 42 -28 2 17 11 23 36 25 17 2 32 7 32 11 0 14 -42 56 -52 53 -18
-5 -37 32 -38 71 0 33 -8 45 -57 93 -44 42 -54 57 -45 66 9 9 21 7 53 -10 60
-32 106 -27 64 8 -10 9 -14 32 -12 89 1 65 -2 82 -21 108 -12 17 -22 46 -22
63 0 29 2 32 23 25 46 -14 77 -17 77 -7 0 16 -41 52 -58 52 -15 0 -52 37 -52
52 0 4 -7 8 -15 8 -12 0 -15 -14 -15 -70 0 -63 -2 -70 -20 -70 -11 0 -20 5
-20 10 0 6 -7 10 -16 10 -28 0 -44 27 -44 74 0 43 11 59 25 36 9 -15 35 -12
35 3 0 21 -89 107 -111 107 -17 0 -19 -5 -14 -37z m102 -235 c11 -16 5 -118
-8 -118 -14 0 -26 33 -28 83 -1 35 2 47 12 47 8 0 19 -6 24 -12z m98 -100 c4
-29 11 -60 16 -70 8 -14 5 -15 -21 -5 -29 11 -48 40 -41 62 3 9 7 33 10 58 1
4 7 7 15 7 9 0 16 -17 21 -52z m-29 -222 c8 -8 18 -26 24 -40 8 -23 7 -26 -10
-26 -11 0 -20 4 -20 9 0 5 -9 11 -20 14 -11 3 -20 14 -20 24 0 35 21 43 46 19z"/>
</g>
</svg>
