<svg version="1.0" xmlns="http://www.w3.org/2000/svg"
 width="101.000000pt" height="139.000000pt" viewBox="0 0 101.000000 139.000000"
 preserveAspectRatio="xMidYMid meet">
<metadata>
Created by potrace 1.15, written by Peter Selinger 2001-2017
</metadata>
<g transform="translate(0.000000,139.000000) scale(0.100000,-0.100000)"
fill="#000000" stroke="none">
<path d="M379 1327 c-28 -19 -34 -29 -32 -57 0 -19 4 -101 8 -181 7 -146 7
-146 -40 -152 -26 -4 -99 -7 -161 -7 -63 0 -114 -3 -114 -7 1 -23 23 -30 105
-31 50 -1 106 -6 125 -12 19 -5 49 -10 66 -10 31 0 32 -1 32 -50 0 -50 0 -50
-67 -51 -36 -1 -75 -3 -86 -5 -11 -1 -44 -6 -73 -10 -41 -5 -52 -11 -50 -23 3
-14 21 -16 138 -13 135 4 135 4 146 -55 6 -32 9 -60 7 -63 -3 -3 -79 -5 -170
-5 -112 0 -168 -4 -170 -11 -4 -12 73 -23 237 -33 105 -6 105 -6 111 -226 7
-256 5 -235 22 -235 31 0 42 52 43 200 2 276 -1 254 42 269 60 21 105 42 138
68 41 31 49 29 70 -14 19 -42 20 -58 9 -181 -8 -81 -7 -85 25 -148 18 -37 47
-76 67 -91 49 -38 96 -86 112 -116 16 -30 41 -43 51 -26 8 12 -26 179 -45 224
-7 17 -19 48 -27 70 -7 22 -15 42 -18 45 -11 11 -30 51 -30 63 0 7 -5 18 -11
24 -14 14 -48 110 -49 136 0 19 -25 61 -52 89 -9 9 -26 37 -37 62 -40 86 -95
128 -208 156 -43 11 -43 11 -43 184 0 132 -4 182 -15 210 -8 20 -17 36 -19 36
-2 0 -18 -10 -37 -23z m148 -479 c65 -24 78 -35 93 -73 10 -26 9 -27 -17 -21
-16 3 -56 9 -90 12 -63 7 -63 7 -63 55 0 27 4 49 10 49 5 0 35 -10 67 -22z
m40 -149 c38 -13 35 -43 -5 -57 -104 -36 -112 -34 -112 30 0 38 0 38 44 38 23
0 57 -5 73 -11z"/>
<path d="M121 296 c-8 -9 -11 -19 -7 -23 9 -9 29 13 24 27 -2 8 -8 7 -17 -4z"/>
</g>
</svg>
