<svg version="1.0" xmlns="http://www.w3.org/2000/svg"
 width="67.000000pt" height="84.000000pt" viewBox="0 0 67.000000 84.000000"
 preserveAspectRatio="xMidYMid meet">
<metadata>
Created by potrace 1.15, written by Peter Selinger 2001-2017
</metadata>
<g transform="translate(0.000000,84.000000) scale(0.100000,-0.100000)"
fill="#000000" stroke="none">
<path d="M170 700 c-100 -15 -120 -36 -127 -122 -6 -73 15 -137 47 -145 28 -7
26 -15 -20 -59 -22 -22 -40 -45 -40 -51 0 -28 41 -10 79 34 31 37 41 44 46 31
4 -9 -2 -26 -15 -39 -42 -47 -110 -139 -110 -149 0 -5 9 -10 20 -10 13 0 33
20 57 57 21 31 44 58 51 61 17 5 16 -57 -2 -64 -12 -5 -96 -126 -96 -139 0 -3
6 -5 13 -5 15 0 77 72 77 89 0 6 4 11 10 11 11 0 4 -47 -17 -105 -27 -76 -27
-77 -8 -74 32 7 56 67 66 168 6 53 8 103 6 113 -3 10 -2 18 3 18 7 0 50 -170
50 -197 0 -15 26 -17 34 -4 10 15 -15 214 -30 237 -7 12 -25 25 -40 28 -45 12
-66 52 -45 85 8 12 15 10 46 -7 44 -26 45 -27 45 -4 0 9 -16 31 -35 47 -25 21
-32 34 -26 44 6 10 13 11 29 2 29 -15 52 -14 52 4 0 9 -16 23 -35 32 -41 20
-46 48 -10 57 34 9 43 33 19 51 -21 16 -27 16 -94 5z m0 -70 c0 -21 -24 -27
-49 -11 -19 12 -4 31 25 31 17 0 24 -5 24 -20z m-29 -50 c10 0 19 -7 19 -15 0
-15 -26 -20 -54 -9 -9 3 -16 13 -16 21 0 10 6 13 16 9 9 -3 24 -6 35 -6z m9
-67 c-1 -49 -31 -69 -50 -34 -16 32 -12 41 20 41 17 0 30 -3 30 -7z"/>
<path d="M440 693 c-47 -2 -95 -5 -108 -8 -36 -9 -23 -37 23 -49 36 -11 40
-15 43 -48 3 -31 -1 -38 -25 -50 -33 -16 -73 -72 -73 -104 0 -27 43 -80 72
-89 18 -6 20 -13 15 -74 -3 -36 -12 -100 -21 -141 -20 -93 -20 -90 4 -90 42 0
70 177 70 443 0 157 0 157 25 157 25 0 25 0 25 -156 0 -233 35 -421 78 -412
14 3 17 13 15 53 -2 28 -7 68 -12 90 -23 94 -22 112 7 125 41 17 67 59 67 108
0 45 -4 50 -83 114 -12 10 -22 29 -22 42 0 20 6 25 31 28 35 3 56 26 46 52 -5
12 -17 15 -49 14 -24 -1 -81 -3 -128 -5z m134 -205 c22 -31 20 -71 -4 -85 -23
-15 -26 -12 -35 55 -6 43 -4 52 8 52 9 0 23 -10 31 -22z m-174 -48 c0 -33 -4
-60 -8 -60 -15 0 -52 41 -52 57 0 17 38 63 52 63 4 0 8 -27 8 -60z"/>
</g>
</svg>
