<svg version="1.0" xmlns="http://www.w3.org/2000/svg"
 width="68.000000pt" height="92.000000pt" viewBox="0 0 68.000000 92.000000"
 preserveAspectRatio="xMidYMid meet">
<metadata>
Created by potrace 1.15, written by Peter Selinger 2001-2017
</metadata>
<g transform="translate(0.000000,92.000000) scale(0.100000,-0.100000)"
fill="#000000" stroke="none">
<path d="M539 723 c-46 -41 -82 -99 -105 -167 -16 -47 -16 -47 -39 -26 -12 12
-25 38 -29 58 -3 20 -13 47 -21 60 -20 27 -51 31 -40 5 32 -75 38 -124 25
-191 -15 -80 -21 -93 -71 -153 -43 -51 -46 -59 -25 -59 37 0 103 106 140 224
5 15 9 16 21 6 30 -25 8 -150 -46 -250 -31 -58 -121 -150 -147 -150 -15 0 -45
-47 -38 -59 10 -16 72 5 115 40 84 67 136 164 172 324 15 63 30 95 46 95 9 0
13 -6 10 -14 -18 -47 -29 -175 -19 -231 19 -107 27 -130 46 -133 17 -4 18 1
11 55 -4 32 -8 108 -9 168 0 107 1 112 37 185 20 41 37 82 37 90 0 8 9 26 20
40 22 28 25 46 10 55 -13 8 -66 -52 -81 -90 -24 -63 -32 -75 -56 -75 -13 0
-23 6 -23 14 0 28 38 102 74 144 31 38 46 72 31 72 -3 0 -23 -16 -46 -37z"/>
<path d="M44 594 c-31 -33 -34 -40 -34 -100 0 -74 15 -96 78 -115 82 -24 157
15 179 92 28 99 -21 159 -130 159 -55 0 -62 -2 -93 -36z m86 -39 c0 -30 -3
-35 -24 -35 -38 0 -41 -19 -7 -31 18 -6 31 -18 31 -27 0 -10 4 -23 9 -31 7
-11 13 -6 25 22 10 26 21 37 35 37 29 0 26 18 -4 32 -18 8 -25 19 -25 40 0 25
4 29 22 26 50 -7 66 -108 24 -147 -33 -31 -106 -40 -141 -17 -21 14 -25 24
-25 67 0 40 5 55 25 74 35 36 55 33 55 -10z"/>
</g>
</svg>
