<svg version="1.0" xmlns="http://www.w3.org/2000/svg"
 width="60.000000pt" height="78.000000pt" viewBox="0 0 60.000000 78.000000"
 preserveAspectRatio="xMidYMid meet">
<metadata>
Created by potrace 1.15, written by Peter Selinger 2001-2017
</metadata>
<g transform="translate(0.000000,78.000000) scale(0.100000,-0.100000)"
fill="#000000" stroke="none">
<path d="M270 640 c-91 -4 -166 -7 -167 -8 -30 -28 -33 -38 -33 -116 0 -120
-7 -116 228 -116 205 0 201 -1 239 57 12 18 14 37 9 79 -3 31 -11 64 -16 74
-9 18 -63 42 -84 38 -6 -1 -85 -5 -176 -8z m8 -67 c-3 -28 -4 -28 -80 -31 -70
-3 -78 -1 -78 16 0 32 21 42 93 42 68 0 68 0 65 -27z m196 21 c24 -9 19 -41
-6 -48 -13 -3 -48 -6 -79 -6 -52 0 -57 2 -61 25 -3 13 -3 27 0 30 7 7 127 6
146 -1z m-199 -124 c0 -24 -3 -25 -70 -28 -55 -2 -72 0 -82 13 -25 35 -5 46
76 43 74 -3 76 -4 76 -28z m225 18 c-1 -30 -19 -40 -93 -45 -77 -6 -77 -6 -77
26 0 31 0 31 85 31 61 0 85 -3 85 -12z"/>
<path d="M315 360 c-104 -3 -197 -9 -207 -13 -33 -17 -33 -82 0 -120 14 -16
26 -17 93 -11 73 6 78 5 89 -16 6 -12 9 -24 7 -27 -3 -2 -39 -7 -80 -10 -69
-5 -74 -4 -80 16 -5 20 -31 29 -40 14 -3 -5 -6 -42 -8 -83 -4 -65 -2 -75 13
-78 20 -4 38 32 38 74 0 23 2 24 78 24 79 0 79 0 78 -42 -1 -33 3 -43 16 -46
19 -4 41 35 42 73 1 18 8 20 61 20 60 0 60 0 65 -49 3 -27 10 -51 17 -53 23
-8 34 37 31 130 -3 84 -5 92 -23 92 -16 0 -21 -8 -23 -36 -3 -41 -17 -49 -89
-49 -38 0 -43 3 -48 28 -4 15 -10 34 -14 42 -10 18 -96 25 -145 12 -23 -7 -38
-6 -45 1 -17 17 -13 44 6 51 9 4 100 10 200 13 101 3 186 10 189 15 6 10 -14
39 -25 36 -3 -1 -91 -5 -196 -8z"/>
</g>
</svg>
