<svg version="1.0" xmlns="http://www.w3.org/2000/svg"
 width="58.000000pt" height="87.000000pt" viewBox="0 0 58.000000 87.000000"
 preserveAspectRatio="xMidYMid meet">
<metadata>
Created by potrace 1.15, written by Peter Selinger 2001-2017
</metadata>
<g transform="translate(0.000000,87.000000) scale(0.100000,-0.100000)"
fill="#000000" stroke="none">
<path d="M94 711 c-31 -14 -36 -54 -39 -351 -1 -146 -6 -277 -9 -291 -10 -35
17 -60 40 -37 12 12 15 65 17 324 2 309 2 309 189 309 186 0 227 7 196 33 -18
14 -365 26 -394 13z"/>
<path d="M310 610 c0 -18 7 -20 55 -20 30 0 55 -4 55 -10 0 -5 -20 -10 -44
-10 -52 0 -67 -12 -86 -69 -11 -35 -12 -57 -1 -133 7 -50 14 -130 16 -179 1
-48 6 -92 9 -98 4 -6 24 -15 44 -22 31 -9 46 -7 87 8 50 19 50 19 53 74 2 40
-1 59 -12 68 -22 18 -36 5 -36 -34 0 -39 -3 -42 -57 -51 -41 -6 -41 -6 -52 45
-18 84 -21 80 77 83 69 2 87 6 87 18 0 10 -13 16 -42 18 -29 2 -43 8 -43 18 0
8 10 14 24 14 35 0 56 10 56 26 0 10 -12 14 -40 14 -29 0 -40 4 -40 15 0 10
11 15 35 15 24 0 35 5 35 15 0 10 -11 15 -35 15 -28 0 -35 4 -35 20 0 16 7 20
30 20 20 0 30 5 30 15 0 10 -10 15 -30 15 -19 0 -30 5 -30 14 0 8 14 17 30 21
27 6 30 10 30 45 0 44 -11 50 -107 50 -56 0 -63 -2 -63 -20z m70 -95 c0 -9 -9
-15 -25 -15 -16 0 -25 6 -25 15 0 9 9 15 25 15 16 0 25 -6 25 -15z m10 -60 c0
-15 -46 -32 -57 -22 -3 4 -3 13 0 22 8 20 57 20 57 0z m-10 -70 c0 -9 -9 -15
-25 -15 -16 0 -25 6 -25 15 0 9 9 15 25 15 16 0 25 -6 25 -15z m10 -65 c0 -15
-7 -20 -24 -20 -14 0 -28 5 -31 10 -10 16 4 30 31 30 17 0 24 -5 24 -20z"/>
<path d="M140 605 c0 -8 4 -15 10 -15 5 0 14 -9 21 -21 9 -17 7 -25 -10 -43
-27 -29 -28 -73 -1 -81 25 -8 25 -12 0 -53 -28 -46 -26 -76 6 -91 26 -12 26
-12 19 -126 -6 -100 -5 -115 8 -115 22 0 28 27 31 128 2 76 5 92 24 112 26 28
28 60 6 101 -14 29 -14 32 2 50 17 19 17 22 -5 63 -24 43 -24 43 -1 66 29 29
13 50 -24 31 -17 -10 -29 -10 -44 -2 -28 15 -42 14 -42 -4z m85 -105 c14 -28
14 -30 -6 -40 -11 -7 -22 -10 -23 -8 -1 2 -8 11 -15 21 -12 15 -11 20 4 37 10
11 20 20 21 20 2 0 10 -13 19 -30z m5 -120 c13 -32 2 -60 -25 -60 -27 0 -36
26 -19 59 19 39 28 39 44 1z"/>
</g>
</svg>
