<svg version="1.0" xmlns="http://www.w3.org/2000/svg"
 width="68.000000pt" height="76.000000pt" viewBox="0 0 68.000000 76.000000"
 preserveAspectRatio="xMidYMid meet">
<metadata>
Created by potrace 1.15, written by Peter Selinger 2001-2017
</metadata>
<g transform="translate(0.000000,76.000000) scale(0.100000,-0.100000)"
fill="#000000" stroke="none">
<path d="M470 704 c-30 -13 -67 -24 -82 -24 -14 0 -33 -3 -42 -6 -29 -11 -16
-24 24 -24 36 0 40 -2 45 -33 4 -18 5 -49 3 -67 -3 -32 -6 -35 -45 -43 -56
-11 -55 -27 1 -27 41 0 44 -2 50 -31 3 -17 6 -46 6 -65 0 -36 14 -53 24 -28 3
9 6 35 6 59 0 70 5 75 71 75 32 0 59 4 59 9 0 13 -27 21 -75 21 -24 0 -46 3
-48 8 -3 4 -6 36 -8 71 -4 63 -4 63 41 81 25 10 45 23 45 30 0 21 -16 19 -75
-6z"/>
<path d="M530 614 c-12 -19 -19 -38 -15 -42 7 -8 65 52 65 68 0 23 -30 7 -50
-26z"/>
<path d="M95 584 c-13 -14 -27 -35 -31 -46 -8 -26 13 -74 41 -92 19 -12 24
-28 30 -85 8 -81 -1 -151 -20 -151 -15 0 -25 31 -25 80 0 44 -20 84 -44 88
-15 3 -17 0 -11 -14 4 -11 10 -48 14 -84 4 -36 10 -71 14 -78 15 -23 68 -43
96 -37 37 8 56 -14 47 -57 -3 -17 -14 -40 -23 -50 -9 -10 -13 -21 -9 -26 10
-10 64 52 72 83 9 35 0 52 -41 76 -27 16 -35 27 -35 50 0 25 5 30 30 36 17 3
35 14 40 24 12 22 13 139 1 139 -13 0 -21 -26 -21 -65 0 -46 -9 -65 -31 -65
-17 0 -19 8 -19 63 0 63 0 63 45 95 45 32 55 55 39 97 -9 23 -57 45 -99 45
-26 0 -43 -7 -60 -26z m113 -16 c32 -32 0 -98 -48 -98 -31 0 -45 13 -55 51 -5
21 -2 30 16 43 28 19 70 21 87 4z"/>
<path d="M280 605 c0 -10 76 -55 92 -55 30 0 20 19 -22 40 -37 19 -70 26 -70
15z"/>
<path d="M520 425 c0 -47 65 -145 96 -145 27 0 24 22 -9 63 -19 23 -42 57 -51
75 -20 38 -36 42 -36 7z"/>
<path d="M320 378 c-17 -34 -36 -68 -42 -75 -8 -10 -6 -13 5 -13 30 0 87 92
87 143 0 24 -24 -2 -50 -55z"/>
<path d="M362 286 c-32 -17 -62 -65 -62 -99 0 -59 46 -114 102 -123 43 -7 130
28 158 64 39 49 15 133 -45 158 -42 17 -122 18 -153 0z m58 -45 c0 -23 -5 -30
-22 -33 -28 -4 -36 -28 -10 -28 22 0 32 -18 32 -56 0 -17 -6 -24 -18 -24 -28
0 -53 33 -59 79 -5 34 -2 43 22 65 37 34 55 33 55 -3z m104 7 c26 -36 20 -85
-13 -119 -44 -43 -61 -39 -61 16 0 38 3 45 19 45 30 0 34 17 6 24 -18 5 -25
13 -25 31 0 21 5 25 29 25 20 0 35 -8 45 -22z"/>
</g>
</svg>
