<svg version="1.0" xmlns="http://www.w3.org/2000/svg"
 width="67.000000pt" height="89.000000pt" viewBox="0 0 67.000000 89.000000"
 preserveAspectRatio="xMidYMid meet">
<metadata>
Created by potrace 1.15, written by Peter Selinger 2001-2017
</metadata>
<g transform="translate(0.000000,89.000000) scale(0.100000,-0.100000)"
fill="#000000" stroke="none">
<path d="M515 610 c-4 -12 -5 -47 -3 -78 3 -54 2 -57 -31 -79 -19 -13 -49 -24
-67 -25 -19 -1 -42 -2 -51 -2 -12 -1 -18 6 -18 19 0 17 10 22 63 30 64 10 87
28 42 33 -98 10 -110 13 -110 32 0 26 16 34 80 40 42 4 56 9 58 23 3 16 -9 17
-180 15 -183 -3 -183 -3 -183 -28 0 -25 0 -25 93 -21 94 3 94 3 90 -25 -3 -29
-4 -29 -80 -34 -42 -3 -82 -10 -89 -17 -23 -23 2 -33 87 -33 76 0 84 -2 84
-19 0 -25 -19 -31 -100 -31 -67 0 -80 -7 -80 -40 0 -5 39 -11 87 -12 80 -3 88
-5 88 -23 0 -16 -9 -21 -55 -28 -57 -8 -91 -31 -116 -79 -27 -52 -15 -84 34
-94 31 -6 31 -6 25 28 -7 46 10 75 55 94 35 14 38 14 54 -7 10 -11 18 -28 18
-37 0 -26 88 -149 110 -155 52 -14 120 32 71 48 -46 14 -150 120 -151 153 0 8
18 12 59 12 100 0 158 40 137 95 -9 24 -45 18 -55 -9 -12 -29 -29 -36 -93 -36
-46 0 -49 2 -46 23 3 19 14 25 83 40 100 23 106 26 128 68 13 25 17 52 15 104
-3 63 -5 70 -25 73 -15 2 -23 -3 -28 -18z"/>
</g>
</svg>
