<svg version="1.0" xmlns="http://www.w3.org/2000/svg"
 width="73.000000pt" height="89.000000pt" viewBox="0 0 73.000000 89.000000"
 preserveAspectRatio="xMidYMid meet">
<metadata>
Created by potrace 1.15, written by Peter Selinger 2001-2017
</metadata>
<g transform="translate(0.000000,89.000000) scale(0.100000,-0.100000)"
fill="#000000" stroke="none">
<path d="M313 646 c6 -36 6 -36 -82 -36 -56 0 -94 -5 -105 -13 -21 -15 -35
-78 -36 -154 0 -46 2 -53 20 -53 17 0 20 7 20 44 0 71 30 136 62 136 5 0 7
-42 6 -92 -3 -93 -3 -93 -41 -96 -57 -5 -67 -33 -67 -192 0 -104 3 -130 14
-130 21 0 26 22 33 152 3 65 10 121 16 125 20 12 157 21 245 16 137 -9 137 -8
138 -180 2 -111 5 -139 16 -141 27 -5 38 46 38 174 0 119 -1 126 -25 149 -15
16 -36 25 -55 25 -30 0 -30 0 -30 95 0 52 3 95 6 95 3 0 14 -5 25 -10 16 -9
19 -22 19 -78 0 -80 13 -107 35 -78 10 14 15 44 15 96 0 104 -8 110 -128 110
-91 0 -91 0 -94 33 -2 25 -8 33 -27 35 -22 4 -24 1 -18 -32z m101 -86 c20 -20
-9 -30 -90 -30 -76 0 -84 2 -84 19 0 12 9 21 23 24 31 7 140 -2 151 -13z m16
-73 c0 -28 -25 -37 -102 -37 -70 0 -78 2 -78 19 0 23 18 28 113 30 49 1 67 -2
67 -12z m0 -71 c0 -30 -16 -36 -90 -36 -75 0 -98 8 -85 30 6 9 175 15 175 6z"/>
<path d="M221 311 c-11 -11 -21 -25 -21 -30 0 -27 23 -62 45 -71 30 -11 33
-30 6 -30 -35 0 -51 -27 -51 -87 0 -66 22 -69 31 -4 5 41 24 65 41 55 4 -3 8
-27 8 -54 0 -82 30 -75 40 10 3 31 10 45 20 45 11 0 16 -15 20 -58 6 -74 24
-74 30 0 3 31 10 58 17 60 19 7 35 -35 31 -85 -2 -37 0 -47 12 -47 11 0 16 15
18 63 2 35 -2 69 -8 76 -5 7 -35 16 -66 19 -31 3 -58 8 -61 11 -13 13 13 26
52 26 51 0 75 19 75 59 0 44 -22 55 -125 59 -84 4 -95 2 -114 -17z m179 -36
c10 -12 8 -16 -15 -25 -32 -12 -115 -13 -134 -1 -8 5 -11 16 -8 25 9 22 139
23 157 1z"/>
</g>
</svg>
