<svg version="1.0" xmlns="http://www.w3.org/2000/svg"
 width="67.000000pt" height="116.000000pt" viewBox="0 0 67.000000 116.000000"
 preserveAspectRatio="xMidYMid meet">
<metadata>
Created by potrace 1.15, written by Peter Selinger 2001-2017
</metadata>
<g transform="translate(0.000000,116.000000) scale(0.100000,-0.100000)"
fill="#000000" stroke="none">
<path d="M145 1078 c-113 -38 -146 -70 -128 -124 15 -45 103 -86 103 -48 0 9
-16 30 -35 47 -19 16 -35 33 -35 38 0 5 14 16 32 25 29 15 32 15 41 -2 16 -29
73 -81 95 -86 19 -5 52 7 42 14 -53 40 -109 92 -105 98 2 4 23 10 45 14 26 4
40 11 40 21 0 17 -47 19 -95 3z"/>
<path d="M529 1066 c-2 -2 -51 -6 -109 -10 -58 -4 -108 -10 -112 -14 -5 -5 -8
-127 -8 -272 -1 -263 -1 -263 30 -301 16 -21 30 -45 30 -54 0 -16 -18 -55 -29
-65 -12 -10 -31 -50 -31 -65 0 -21 29 -19 36 3 3 9 15 35 26 57 12 22 26 50
32 62 6 13 20 23 32 23 18 0 22 -8 28 -50 6 -46 9 -50 34 -50 54 0 73 -11 70
-38 -2 -21 -11 -29 -48 -39 -57 -17 -72 -32 -72 -77 0 -49 14 -63 73 -71 45
-6 51 -11 75 -51 28 -48 54 -58 54 -21 0 33 -56 97 -85 97 -36 0 -74 20 -81
43 -7 23 28 56 61 57 11 0 31 7 44 16 47 33 7 134 -53 134 -52 0 -64 60 -17
80 47 19 52 45 49 285 -3 200 -5 220 -20 223 -14 3 -18 -3 -18 -27 0 -35 -14
-39 -48 -15 -15 10 -22 25 -22 49 0 41 11 49 65 48 57 -2 77 11 50 31 -21 16
-29 19 -36 12z m-111 -80 c4 -33 -34 -76 -68 -76 -16 0 -20 6 -20 36 0 55 16
76 53 72 27 -3 33 -8 35 -32z m35 -88 c27 -16 67 -59 67 -73 0 -5 -4 -15 -8
-21 -9 -13 -114 -25 -153 -17 -26 5 -28 8 -23 42 3 20 7 36 7 36 1 0 20 10 42
22 48 27 40 26 68 11z m67 -187 c0 -22 -5 -43 -10 -46 -6 -3 -48 -9 -95 -11
-85 -5 -85 -5 -85 40 0 52 1 52 118 55 72 1 72 1 72 -38z m0 -138 c0 -27 -6
-55 -13 -65 -15 -19 -89 -29 -134 -16 -29 7 -33 13 -33 41 0 18 -3 42 -6 54
-6 23 6 26 139 31 47 2 47 2 47 -45z"/>
<path d="M40 836 c0 -16 21 -26 55 -26 15 0 25 -7 28 -21 6 -24 1 -128 -7
-136 -3 -3 -17 -3 -31 1 -24 6 -25 10 -25 71 0 58 -2 65 -20 65 -18 0 -20 -7
-20 -68 0 -79 12 -101 60 -111 30 -6 35 -11 38 -39 3 -26 -1 -34 -20 -41 -50
-20 -55 -38 -62 -212 -4 -90 -10 -179 -13 -196 -4 -26 -2 -33 10 -33 24 0 31
34 33 165 1 66 2 141 3 167 1 44 19 78 42 78 5 0 9 -93 9 -225 0 -124 4 -225
9 -225 21 0 28 31 25 110 -6 155 -5 320 2 331 4 7 13 3 25 -10 17 -18 19 -36
19 -150 0 -139 14 -235 33 -228 7 2 11 15 10 28 -1 13 -3 92 -4 174 -1 164
-10 199 -51 218 -23 10 -28 18 -28 49 0 30 4 38 18 38 10 0 29 11 41 24 19 21
23 37 25 98 1 59 -2 73 -15 76 -14 2 -17 -8 -18 -58 -1 -67 -13 -100 -36 -100
-12 0 -15 17 -15 88 0 55 -4 92 -12 100 -17 17 -108 16 -108 -2z"/>
</g>
</svg>
