<svg version="1.0" xmlns="http://www.w3.org/2000/svg"
 width="70.000000pt" height="85.000000pt" viewBox="0 0 70.000000 85.000000"
 preserveAspectRatio="xMidYMid meet">
<metadata>
Created by potrace 1.15, written by Peter Selinger 2001-2017
</metadata>
<g transform="translate(0.000000,85.000000) scale(0.100000,-0.100000)"
fill="#000000" stroke="none">
<path d="M420 641 c-19 -20 -55 -54 -79 -74 -49 -41 -49 -57 -1 -37 31 13 33
12 73 -29 47 -47 42 -61 -25 -61 -20 0 -43 -3 -52 -6 -32 -12 -15 -24 33 -24
70 0 81 -6 81 -45 0 -33 -2 -34 -42 -37 -56 -4 -51 -22 7 -26 44 -3 45 -4 45
-38 0 -18 -4 -34 -8 -34 -5 0 -30 14 -56 31 -26 17 -50 29 -53 25 -10 -10 49
-67 85 -83 38 -16 38 -37 -1 -41 -31 -4 -67 -45 -67 -77 0 -42 29 -55 122 -55
103 0 138 19 138 74 0 42 -24 64 -74 68 -42 3 -59 22 -29 32 24 8 133 109 133
124 0 23 -31 12 -73 -26 -78 -69 -77 -69 -77 -29 0 31 3 36 28 39 15 2 27 8
27 13 0 6 -12 11 -27 13 -24 3 -28 8 -28 36 0 32 2 34 50 42 67 12 68 28 3 32
-29 2 -53 8 -53 13 0 6 12 31 26 56 22 37 31 43 48 38 38 -11 50 -10 53 5 2
10 -21 26 -71 50 -42 20 -77 43 -79 53 -7 24 -17 21 -57 -22z m91 -61 c18 -10
18 -11 -4 -45 -27 -42 -36 -43 -77 -8 -32 26 -32 26 -8 44 26 21 60 24 89 9z
m-51 -480 c0 -25 -4 -30 -25 -30 -33 0 -45 28 -20 46 30 22 45 17 45 -16z
m101 14 c11 -14 10 -18 -6 -30 -33 -24 -55 -18 -55 16 0 25 4 30 24 30 13 0
30 -7 37 -16z"/>
<path d="M117 623 c-14 -13 -6 -23 18 -23 32 0 31 -9 -4 -73 -23 -41 -30 -70
-35 -137 -10 -141 -22 -225 -41 -284 -18 -58 -16 -73 9 -63 25 10 54 126 61
242 14 237 54 329 92 215 17 -48 14 -141 -8 -275 -15 -91 -3 -198 24 -203 17
-3 18 5 16 100 -1 56 4 135 10 173 22 120 2 274 -40 316 -19 19 -88 27 -102
12z"/>
</g>
</svg>
