<svg version="1.0" xmlns="http://www.w3.org/2000/svg"
 width="127.000000pt" height="139.000000pt" viewBox="0 0 127.000000 139.000000"
 preserveAspectRatio="xMidYMid meet">
<metadata>
Created by potrace 1.15, written by Peter Selinger 2001-2017
</metadata>
<g transform="translate(0.000000,139.000000) scale(0.100000,-0.100000)"
fill="#000000" stroke="none">
<path d="M1045 1305 c-147 -41 -236 -85 -300 -149 -57 -57 -75 -96 -75 -167 0
-39 4 -49 20 -54 11 -3 20 -10 20 -15 0 -16 114 -32 190 -27 138 9 202 41 268
134 12 18 22 38 22 45 0 8 9 32 20 53 61 117 26 173 -110 180 -25 1 -49 1 -55
0z m113 -51 c17 -5 22 -13 21 -38 -1 -17 -4 -42 -8 -56 -7 -25 -7 -25 -26 10
-10 19 -31 47 -48 62 -29 28 -29 28 4 28 19 0 44 -3 57 -6z m-100 -60 c17 -20
32 -48 35 -63 3 -14 9 -38 12 -52 5 -21 1 -34 -21 -58 -15 -17 -33 -31 -41
-31 -7 0 -13 -3 -13 -8 0 -4 -17 -12 -37 -19 -35 -11 -39 -9 -78 23 -40 32
-49 46 -74 107 -16 41 3 71 68 105 78 42 112 41 149 -4z m-275 -121 c8 -10 19
-31 23 -48 4 -16 14 -40 22 -52 14 -22 13 -23 -16 -23 -17 0 -34 5 -37 10 -3
6 -15 10 -26 10 -15 0 -19 7 -19 33 0 33 19 87 31 87 3 0 13 -8 22 -17z"/>
<path d="M930 1109 c0 -22 5 -40 10 -40 20 -3 25 -4 36 -12 7 -4 19 4 29 20
17 25 17 27 -6 44 -13 10 -34 19 -46 22 -21 4 -23 0 -23 -34z"/>
<path d="M314 1095 c-120 -29 -232 -123 -285 -240 -39 -86 -38 -96 14 -119 66
-30 172 -33 247 -6 64 23 125 54 148 77 7 7 25 20 40 29 55 34 129 156 117
194 -10 32 -56 57 -126 69 -77 13 -88 13 -155 -4z m204 -57 c6 -6 12 -25 12
-43 0 -25 -8 -40 -35 -64 -20 -17 -37 -31 -39 -31 -2 0 -10 23 -16 52 -7 29
-21 61 -31 72 -11 11 -19 22 -19 25 0 10 114 0 128 -11z m-190 -24 c12 -8 22
-21 22 -29 0 -7 4 -15 9 -17 6 -1 15 -24 22 -50 17 -61 1 -92 -58 -119 -39
-18 -44 -18 -75 -3 -38 18 -78 73 -78 106 1 37 33 90 65 109 38 22 65 23 93 3z
m-199 -176 c1 -16 5 -28 9 -28 5 0 14 -11 20 -25 11 -23 10 -25 -16 -25 -15 0
-37 3 -49 6 -35 10 -31 58 11 123 8 12 11 11 17 -5 4 -10 8 -31 8 -46z"/>
<path d="M237 944 c-7 -7 20 -64 31 -65 4 0 17 -2 29 -5 32 -5 44 41 17 61
-20 15 -66 20 -77 9z"/>
<path d="M717 877 c-3 -8 1 -23 8 -34 14 -17 14 -17 15 2 0 11 -4 26 -9 33 -7
11 -9 11 -14 -1z"/>
<path d="M535 820 c-3 -5 -1 -10 4 -10 6 0 11 5 11 10 0 6 -2 10 -4 10 -3 0
-8 -4 -11 -10z"/>
<path d="M690 756 c0 -2 7 -7 16 -10 8 -3 12 -2 9 4 -6 10 -25 14 -25 6z"/>
<path d="M823 643 c-18 -6 -16 -21 8 -54 11 -16 18 -33 15 -38 -7 -11 -129
-75 -136 -71 -3 1 -11 -9 -18 -24 -7 -14 -18 -26 -23 -26 -6 0 -27 -11 -47
-25 -20 -14 -39 -25 -43 -25 -3 0 -22 13 -40 30 -19 16 -41 32 -49 35 -8 3
-21 14 -28 25 -10 17 -10 24 3 44 20 31 10 59 -19 50 -11 -3 -27 -10 -35 -14
-8 -4 -27 -4 -42 0 -36 11 -55 -7 -33 -32 16 -16 14 -20 -22 -53 -22 -19 -42
-35 -46 -35 -5 0 -8 -4 -8 -10 0 -18 71 -11 101 11 30 21 30 21 78 -23 71 -65
77 -77 49 -97 -39 -28 -130 -81 -138 -81 -4 0 -21 7 -36 15 -55 28 -90 8 -44
-25 20 -14 27 -40 12 -40 -14 0 -52 -36 -52 -49 0 -16 24 -14 64 6 33 15 38
15 76 -2 31 -14 43 -16 53 -6 9 9 9 16 -1 31 -20 33 -14 44 35 70 27 13 59 32
72 42 24 18 61 24 61 11 0 -5 38 -35 85 -68 47 -33 85 -62 85 -65 0 -3 -20
-28 -45 -57 -25 -28 -45 -54 -45 -57 0 -3 15 -6 33 -6 24 0 44 10 76 39 44 40
44 40 82 20 21 -10 51 -19 66 -19 28 1 28 1 -15 38 -43 37 -43 37 -3 72 51 44
54 70 9 70 -23 0 -43 -10 -65 -30 -36 -34 -45 -36 -63 -15 -7 9 -27 23 -44 31
-35 18 -121 111 -93 101 11 -4 17 -1 17 9 0 11 6 14 16 10 10 -4 18 0 21 12 2
10 17 26 33 36 16 9 35 22 42 29 7 7 35 28 61 46 47 32 49 32 82 17 18 -9 36
-16 39 -16 11 0 6 48 -6 52 -7 3 1 17 20 35 33 31 42 62 20 64 -22 2 -43 -3
-48 -11 -8 -13 -52 -23 -59 -13 -12 17 -56 40 -68 36z"/>
<path d="M1155 570 c3 -5 8 -10 11 -10 2 0 4 5 4 10 0 6 -5 10 -11 10 -5 0 -7
-4 -4 -10z"/>
<path d="M976 367 c3 -10 9 -15 12 -12 3 3 0 11 -7 18 -10 9 -11 8 -5 -6z"/>
<path d="M760 341 c0 -11 31 -24 38 -16 3 3 0 5 -7 5 -7 0 -9 5 -6 10 3 6 -1
10 -9 10 -9 0 -16 -4 -16 -9z"/>
<path d="M546 65 c4 -8 10 -15 14 -15 4 0 10 7 14 15 4 10 -1 15 -14 15 -13 0
-18 -5 -14 -15z"/>
</g>
</svg>
