<svg version="1.0" xmlns="http://www.w3.org/2000/svg"
 width="66.000000pt" height="85.000000pt" viewBox="0 0 66.000000 85.000000"
 preserveAspectRatio="xMidYMid meet">
<metadata>
Created by potrace 1.15, written by Peter Selinger 2001-2017
</metadata>
<g transform="translate(0.000000,85.000000) scale(0.100000,-0.100000)"
fill="#000000" stroke="none">
<path d="M180 654 c-6 -14 -10 -34 -10 -44 0 -14 -9 -20 -37 -22 -56 -4 -52
-32 5 -36 40 -3 43 -5 40 -30 -3 -23 -8 -27 -41 -30 -32 -3 -40 -9 -54 -37
-13 -28 -15 -46 -7 -102 9 -68 9 -68 49 -73 32 -4 40 -9 40 -25 0 -17 -8 -20
-53 -23 -68 -4 -65 -24 5 -36 51 -9 51 -9 46 -87 -5 -67 -3 -79 11 -85 33 -12
46 14 46 92 0 74 0 74 44 74 41 0 74 19 59 33 -3 4 -28 7 -55 7 -45 0 -48 2
-48 25 0 22 5 25 33 25 55 0 77 30 77 105 0 61 -28 103 -73 107 -27 2 -32 7
-32 28 0 22 5 25 38 28 28 2 37 8 37 22 0 21 -29 34 -54 24 -13 -5 -16 0 -16
28 0 56 -33 77 -50 32z m0 -214 c0 -24 -6 -33 -26 -41 -30 -11 -31 -10 -34 11
-5 30 0 41 23 50 34 14 37 12 37 -20z m98 5 c2 -2 1 -13 -3 -24 -7 -24 -55
-30 -55 -7 0 32 12 47 34 40 11 -4 23 -8 24 -9z m-3 -97 c-4 -13 -11 -27 -15
-32 -13 -14 -40 1 -40 23 0 18 8 22 53 30 5 0 5 -9 2 -21z m-95 -7 c0 -11 -4
-22 -8 -25 -16 -10 -50 6 -55 25 -4 16 0 19 29 19 27 0 34 -4 34 -19z"/>
<path d="M429 622 c-14 -15 -46 -44 -72 -65 -54 -44 -62 -69 -20 -65 28 3 28
3 36 -87 8 -83 -1 -229 -19 -308 -5 -23 -3 -27 14 -27 34 0 45 37 50 163 4
117 4 117 32 117 27 0 27 0 40 -112 7 -61 13 -130 14 -152 2 -34 6 -42 24 -44
34 -5 37 20 19 137 -17 104 -23 321 -10 334 3 4 14 0 24 -9 18 -16 49 -13 49
5 0 5 -19 25 -42 45 -24 19 -58 48 -76 63 -18 15 -34 29 -35 30 -2 1 -14 -10
-28 -25z m55 -79 c2 -10 1 -47 -2 -83 -7 -61 -9 -65 -34 -68 -24 -3 -28 1 -33
35 -4 21 -10 52 -15 69 -6 24 -4 36 8 48 22 22 69 21 76 -1z"/>
</g>
</svg>
