<svg version="1.0" xmlns="http://www.w3.org/2000/svg"
 width="64.000000pt" height="80.000000pt" viewBox="0 0 64.000000 80.000000"
 preserveAspectRatio="xMidYMid meet">
<metadata>
Created by potrace 1.15, written by Peter Selinger 2001-2017
</metadata>
<g transform="translate(0.000000,80.000000) scale(0.100000,-0.100000)"
fill="#000000" stroke="none">
<path d="M188 629 c-38 -31 -38 -31 -38 -111 0 -59 -3 -79 -12 -76 -8 3 -15
30 -18 67 -5 64 -22 90 -47 69 -14 -11 -19 -142 -7 -172 4 -11 19 -16 45 -16
39 0 39 0 39 -64 0 -36 -4 -67 -9 -70 -17 -11 -32 22 -26 56 7 38 -13 65 -40
54 -13 -5 -15 -20 -13 -78 3 -73 3 -73 45 -76 42 -3 42 -3 45 -89 2 -69 6 -88
21 -97 27 -17 37 8 37 96 0 76 1 78 30 93 34 17 45 49 37 102 -6 36 -23 56
-39 47 -4 -3 -7 -25 -6 -49 2 -40 -5 -65 -16 -54 -3 3 -8 35 -12 71 -7 67 -7
67 27 70 34 3 34 3 37 64 2 45 -1 64 -12 73 -23 20 -36 4 -36 -45 0 -24 -4
-44 -10 -44 -6 0 -10 27 -10 60 0 59 1 61 35 77 29 14 35 22 33 43 -4 36 -36
36 -80 -1z"/>
<path d="M387 620 c-10 -27 -16 -30 -54 -30 -46 0 -61 -13 -43 -35 10 -12 39
-15 131 -15 71 0 120 4 124 10 12 19 -14 38 -59 44 -36 6 -45 12 -50 31 -9 34
-35 31 -49 -5z"/>
<path d="M326 484 c-13 -13 -16 -46 -16 -207 0 -106 4 -198 9 -205 5 -8 17
-12 27 -10 18 3 19 15 19 183 0 99 1 186 3 193 4 20 86 15 105 -6 21 -23 13
-32 -28 -32 -43 0 -55 -16 -55 -75 0 -60 12 -75 57 -75 33 0 33 0 35 -57 1
-32 2 -78 3 -103 0 -35 4 -45 18 -48 37 -7 47 16 47 108 0 74 -3 92 -23 121
-17 25 -31 35 -55 37 -18 2 -32 6 -32 10 1 19 19 31 55 34 40 3 40 3 43 55 5
86 -3 93 -108 93 -67 0 -92 -4 -104 -16z"/>
</g>
</svg>
