<svg version="1.0" xmlns="http://www.w3.org/2000/svg"
 width="77.000000pt" height="127.000000pt" viewBox="0 0 77.000000 127.000000"
 preserveAspectRatio="xMidYMid meet">
<metadata>
Created by potrace 1.15, written by Peter Selinger 2001-2017
</metadata>
<g transform="translate(0.000000,127.000000) scale(0.100000,-0.100000)"
fill="#000000" stroke="none">
<path d="M573 1103 c-6 -16 -17 -48 -24 -73 -7 -25 -16 -49 -20 -55 -4 -5 -12
-36 -19 -67 -11 -49 -17 -58 -35 -58 -45 0 -57 30 -54 131 3 78 1 93 -13 103
-9 5 -20 7 -24 3 -4 -3 -9 -60 -12 -125 -4 -113 -4 -119 19 -145 20 -23 36
-29 99 -37 41 -5 116 -10 166 -10 76 0 93 3 98 16 4 9 5 18 4 19 -20 16 -57
25 -105 25 -32 0 -63 4 -69 8 -17 11 -26 49 -14 57 5 3 10 22 10 41 0 19 5 34
10 34 6 0 9 3 8 8 -1 4 5 31 15 60 10 30 15 62 12 73 -9 28 -38 23 -52 -8z"/>
<path d="M190 1091 c-5 -11 -10 -78 -10 -150 0 -131 0 -131 -43 -131 -50 0
-83 -19 -74 -44 5 -12 19 -16 56 -16 34 0 51 -4 55 -15 6 -16 -3 -247 -10
-254 -3 -3 -32 -6 -66 -8 -62 -4 -80 -14 -75 -43 2 -12 19 -15 77 -16 89 -1
279 12 287 19 3 3 -3 17 -14 31 -12 18 -24 24 -38 21 -100 -25 -96 -31 -94
123 1 140 1 140 60 147 54 6 59 9 59 31 0 22 -4 24 -54 24 -34 0 -56 5 -59 13
-2 6 -4 69 -5 139 0 69 -3 131 -7 137 -10 17 -33 13 -45 -8z"/>
<path d="M536 708 c-9 -12 -16 -28 -16 -35 0 -7 -9 -28 -20 -48 -11 -20 -20
-43 -20 -51 0 -8 -7 -22 -15 -31 -9 -8 -19 -28 -22 -44 -3 -16 -9 -29 -14 -29
-5 0 -9 -8 -9 -19 0 -10 -7 -24 -15 -31 -8 -7 -15 -17 -15 -22 0 -10 -64 -119
-87 -148 -62 -79 -103 -141 -98 -150 11 -17 45 -11 68 13 29 28 87 113 87 125
0 6 3 12 8 14 13 6 52 67 52 83 0 8 5 15 10 15 6 0 10 5 10 11 0 6 23 59 51
117 28 59 56 117 62 130 13 28 18 28 44 -2 30 -34 37 -101 18 -182 -9 -38 -21
-77 -26 -86 -5 -10 -9 -27 -9 -38 0 -11 -10 -41 -21 -67 -12 -27 -27 -59 -33
-73 -6 -14 -14 -27 -17 -30 -16 -13 -50 -93 -45 -106 7 -17 35 -18 57 -1 19
14 66 106 98 192 13 33 27 69 31 80 17 44 31 136 31 218 1 83 0 87 -30 119
-17 18 -31 37 -31 41 0 9 -51 56 -62 57 -4 0 -14 -10 -22 -22z"/>
</g>
</svg>
