<svg version="1.0" xmlns="http://www.w3.org/2000/svg"
 width="53.000000pt" height="115.000000pt" viewBox="0 0 53.000000 115.000000"
 preserveAspectRatio="xMidYMid meet">
<metadata>
Created by potrace 1.15, written by Peter Selinger 2001-2017
</metadata>
<g transform="translate(0.000000,115.000000) scale(0.100000,-0.100000)"
fill="#000000" stroke="none">
<path d="M130 1029 c0 -5 16 -40 36 -77 20 -37 41 -85 46 -107 22 -96 24 -90
-26 -119 -71 -42 -95 -106 -57 -155 15 -20 25 -23 69 -20 52 4 52 4 52 -38 0
-38 -3 -43 -22 -43 -26 0 -86 -34 -105 -59 -22 -29 -15 -58 24 -90 28 -23 48
-31 76 -31 38 0 38 0 35 -48 -3 -47 -3 -47 -98 -52 -93 -5 -120 -12 -120 -30
0 -5 48 -11 108 -12 107 -3 107 -3 104 -49 -2 -31 2 -50 12 -58 17 -14 38 -6
34 12 -1 7 2 31 6 55 8 42 8 42 81 42 72 0 103 13 74 31 -8 5 -39 9 -70 9 -72
0 -91 14 -83 62 6 36 8 37 63 48 63 12 83 21 89 39 3 9 -12 12 -59 10 -92 -3
-89 -4 -89 47 0 45 1 46 28 41 17 -3 43 2 68 15 65 32 83 90 41 132 -36 35
-61 46 -112 46 -34 0 -44 3 -39 12 4 7 10 28 13 47 6 32 9 35 61 47 30 7 72
13 92 14 20 0 40 5 44 11 13 21 -21 30 -86 23 -126 -12 -125 -13 -128 23 -2
24 1 33 17 38 12 3 21 10 21 14 0 4 11 13 24 19 34 15 76 53 76 68 0 25 -34
23 -93 -6 -34 -16 -69 -30 -78 -30 -14 0 -69 68 -69 86 0 8 -43 43 -52 44 -5
0 -8 -5 -8 -11z m120 -374 c0 -45 0 -45 -40 -45 -36 0 -40 2 -40 25 0 15 7 28
18 32 9 4 21 12 25 20 4 7 15 13 22 13 11 0 15 -12 15 -45z m143 -93 c34 -30
18 -49 -58 -68 -23 -6 -25 -4 -25 33 0 32 5 42 23 50 23 11 31 9 60 -15z
m-133 -182 c0 -36 -2 -40 -26 -40 -62 0 -88 49 -36 68 53 20 62 16 62 -28z"/>
</g>
</svg>
