<svg version="1.0" xmlns="http://www.w3.org/2000/svg"
 width="68.000000pt" height="84.000000pt" viewBox="0 0 68.000000 84.000000"
 preserveAspectRatio="xMidYMid meet">
<metadata>
Created by potrace 1.15, written by Peter Selinger 2001-2017
</metadata>
<g transform="translate(0.000000,84.000000) scale(0.100000,-0.100000)"
fill="#000000" stroke="none">
<path d="M395 679 c9 -17 15 -42 13 -57 -3 -23 -10 -29 -47 -38 -64 -15 -65
-34 -2 -34 29 0 51 -5 51 -10 0 -20 -34 -65 -85 -112 -27 -26 -43 -47 -36 -48
15 0 80 40 118 73 41 36 71 -3 38 -47 -8 -11 -15 -40 -15 -64 0 -41 5 -49 55
-97 36 -35 55 -61 55 -77 0 -31 36 -88 55 -88 20 0 19 8 -5 55 -11 22 -20 48
-20 58 0 30 -17 53 -54 75 -19 11 -42 33 -52 47 -17 27 -17 28 9 75 35 63 34
76 -9 102 -22 13 -33 26 -30 35 3 8 6 17 6 19 0 2 22 4 50 4 46 0 50 -2 56
-27 8 -35 43 -93 55 -93 14 0 11 28 -7 56 -20 30 -13 121 13 160 8 13 12 28 8
32 -4 4 -14 -3 -22 -15 -39 -58 -49 -64 -100 -61 -47 3 -48 4 -54 40 -6 41
-24 68 -45 68 -12 0 -12 -5 1 -31z"/>
<path d="M218 690 c-49 -15 -84 -47 -97 -90 -9 -30 -10 -84 -6 -193 8 -161 -5
-298 -31 -348 -17 -34 -17 -39 -1 -39 35 0 79 135 75 227 -3 67 -3 67 40 76
23 4 42 12 42 17 0 5 -19 10 -42 12 -39 3 -43 6 -46 31 -3 24 2 30 37 45 23 9
41 20 41 24 0 4 -17 8 -37 10 -32 3 -38 7 -41 29 -3 22 3 27 37 39 47 15 46
25 -4 34 -55 11 -42 48 30 90 61 36 63 54 3 36z"/>
<path d="M350 262 c0 -60 0 -60 -45 -66 -57 -9 -58 -22 -2 -33 35 -7 42 -13
45 -34 3 -25 0 -26 -65 -35 -37 -5 -67 -13 -66 -19 5 -22 247 -25 269 -3 14
14 -9 28 -57 34 -38 5 -49 10 -45 21 4 8 6 18 6 23 0 5 18 11 40 15 64 11 48
45 -20 45 -28 0 -29 2 -32 52 -4 76 -28 77 -28 0z"/>
</g>
</svg>
