<svg version="1.0" xmlns="http://www.w3.org/2000/svg"
 width="75.000000pt" height="86.000000pt" viewBox="0 0 75.000000 86.000000"
 preserveAspectRatio="xMidYMid meet">
<metadata>
Created by potrace 1.15, written by Peter Selinger 2001-2017
</metadata>
<g transform="translate(0.000000,86.000000) scale(0.100000,-0.100000)"
fill="#000000" stroke="none">
<path d="M325 610 c-14 -22 -25 -45 -25 -52 0 -7 -17 6 -39 30 -21 23 -43 42
-49 42 -25 0 -96 -119 -86 -144 9 -22 20 -24 227 -31 164 -6 190 -5 212 9 26
17 34 59 14 72 -6 3 -19 26 -29 49 -18 43 -60 71 -68 46 -2 -6 -12 -11 -23
-11 -13 0 -19 -7 -20 -22 -1 -21 -2 -20 -14 6 -12 28 -34 44 -62 45 -7 1 -24
-17 -38 -39z m75 -61 c10 -36 14 -40 38 -37 19 2 28 10 30 26 2 12 12 27 22
32 16 8 22 6 35 -14 30 -45 17 -61 -50 -64 -85 -5 -165 6 -165 23 0 19 49 75
66 75 7 0 18 -18 24 -41z m-162 9 c7 -7 12 -22 12 -35 0 -19 -5 -23 -29 -23
-37 0 -45 11 -30 44 13 28 28 33 47 14z"/>
<path d="M162 409 c-13 -5 -22 -15 -19 -21 4 -15 140 -12 167 2 40 22 -98 40
-148 19z"/>
<path d="M438 413 c-30 -5 -38 -27 -12 -37 23 -9 127 -7 142 3 11 6 10 11 -3
25 -16 16 -61 19 -127 9z"/>
<path d="M152 333 c-15 -3 -22 -10 -20 -21 3 -15 26 -17 232 -17 164 0 230 3
233 11 3 8 -17 14 -54 18 -86 8 -364 15 -391 9z"/>
<path d="M195 263 c-50 -5 -64 -18 -35 -33 32 -17 122 -3 118 19 -3 17 -21 20
-83 14z"/>
<path d="M467 250 c-76 -14 -59 -40 28 -40 96 0 125 18 64 39 -35 12 -37 12
-92 1z"/>
<path d="M348 244 c-3 -5 -8 -21 -11 -35 -7 -29 -36 -39 -108 -39 -26 0 -39
-5 -39 -13 0 -9 23 -17 73 -23 62 -8 72 -12 75 -30 3 -19 -3 -22 -50 -27 -29
-4 -72 -7 -95 -7 -50 0 -65 -16 -27 -30 34 -13 403 -9 407 5 1 5 -23 13 -53
17 -108 14 -135 22 -135 43 0 17 11 22 75 31 81 11 75 18 -22 30 -51 5 -58 9
-58 28 0 26 -24 63 -32 50z"/>
</g>
</svg>
