<svg version="1.0" xmlns="http://www.w3.org/2000/svg"
 width="65.000000pt" height="85.000000pt" viewBox="0 0 65.000000 85.000000"
 preserveAspectRatio="xMidYMid meet">
<metadata>
Created by potrace 1.15, written by Peter Selinger 2001-2017
</metadata>
<g transform="translate(0.000000,85.000000) scale(0.100000,-0.100000)"
fill="#000000" stroke="none">
<path d="M300 668 c-1 -57 -18 -110 -50 -156 -17 -24 -29 -47 -26 -50 3 -2 24
12 46 32 45 41 40 42 124 -28 43 -36 24 -51 -84 -65 -121 -17 -136 -11 -145
62 -11 89 -19 117 -40 137 -36 34 -47 21 -25 -28 11 -24 24 -71 30 -105 13
-83 45 -117 112 -117 48 0 48 0 48 -42 0 -24 -4 -48 -8 -54 -4 -6 -31 -14 -61
-18 -115 -15 -123 -46 -11 -46 80 0 80 0 80 -59 0 -59 0 -59 -67 -66 -155 -15
-154 -40 2 -39 147 1 292 14 312 29 9 7 13 17 8 25 -5 9 -35 11 -109 9 -101
-4 -101 -4 -104 52 -3 55 -3 55 64 68 129 24 138 52 14 44 -80 -6 -80 -6 -80
50 0 56 0 56 38 62 81 13 112 25 116 48 15 77 31 147 43 181 17 52 7 63 -28
30 -20 -19 -30 -41 -34 -73 -13 -96 -24 -102 -85 -43 -37 34 -41 44 -52 115
-12 78 -28 104 -28 45z"/>
</g>
</svg>
