<svg version="1.0" xmlns="http://www.w3.org/2000/svg"
 width="75.000000pt" height="92.000000pt" viewBox="0 0 75.000000 92.000000"
 preserveAspectRatio="xMidYMid meet">
<metadata>
Created by potrace 1.15, written by Peter Selinger 2001-2017
</metadata>
<g transform="translate(0.000000,92.000000) scale(0.100000,-0.100000)"
fill="#000000" stroke="none">
<path d="M235 714 c-7 -3 -9 -32 -7 -74 5 -90 -15 -95 -43 -13 -13 37 -26 59
-37 61 -22 4 -23 -17 -4 -70 7 -21 11 -40 8 -43 -3 -3 -23 -5 -44 -5 -31 0
-38 -3 -38 -20 0 -19 7 -20 151 -20 144 0 197 9 184 31 -4 5 -15 9 -25 9 -30
0 -33 18 -11 54 21 34 19 66 -4 66 -7 0 -21 -23 -32 -52 -20 -52 -45 -79 -60
-64 -4 4 -8 37 -8 73 0 63 -6 77 -30 67z"/>
<path d="M600 632 c0 -49 0 -49 -42 -55 -50 -7 -58 -3 -58 28 0 23 -27 42 -41
28 -8 -8 7 -178 17 -194 3 -5 38 -9 78 -9 94 0 106 12 105 101 -1 104 -11 143
-37 147 -20 3 -22 -1 -22 -46z m10 -127 c0 -35 0 -35 -45 -35 -40 0 -47 3 -55
26 -16 41 -13 44 45 44 55 0 55 0 55 -35z"/>
<path d="M91 461 c-8 -5 -11 -16 -7 -26 5 -15 14 -16 55 -11 55 7 61 1 61 -59
0 -24 6 -38 20 -45 11 -6 20 -20 20 -31 0 -17 -5 -20 -37 -17 -34 3 -38 6 -41
33 -4 34 -18 55 -38 55 -10 0 -14 -14 -14 -49 0 -66 19 -85 77 -78 24 2 43 1
43 -2 0 -4 -41 -38 -91 -75 -82 -61 -100 -84 -73 -93 5 -2 40 19 78 47 38 27
73 50 77 50 5 0 9 -27 9 -59 0 -63 11 -81 36 -60 11 9 13 25 8 69 -4 34 -2 60
3 63 6 4 31 -14 57 -38 46 -45 76 -57 76 -31 0 7 -27 41 -59 74 -59 61 -59 61
-8 64 52 3 52 3 55 47 4 54 -5 83 -18 61 -6 -8 -10 -24 -10 -34 0 -26 -29 -45
-67 -46 -48 0 -45 34 5 57 32 16 38 24 42 58 4 35 9 41 35 45 18 3 31 12 33
23 3 16 -10 17 -155 17 -87 0 -164 -4 -172 -9z m216 -47 c10 -26 -11 -49 -43
-49 -25 0 -29 4 -32 33 -3 31 -2 32 33 32 24 0 38 -5 42 -16z"/>
<path d="M457 353 c-28 -7 -14 -28 21 -31 28 -3 32 -7 32 -32 0 -28 -15 -40
-50 -40 -24 0 -30 -19 -30 -91 0 -46 5 -64 20 -79 23 -23 44 -24 150 -7 64 10
75 15 75 32 0 22 1 22 -142 9 -63 -6 -63 -6 -63 38 0 24 5 49 12 56 7 7 41 12
83 12 38 0 76 4 83 9 9 5 12 26 10 67 -3 59 -3 59 -93 61 -49 0 -98 -1 -108
-4z m143 -33 c28 -15 12 -65 -21 -65 -18 0 -25 6 -27 23 -7 47 10 62 48 42z"/>
</g>
</svg>
