<svg version="1.0" xmlns="http://www.w3.org/2000/svg"
 width="75.000000pt" height="89.000000pt" viewBox="0 0 75.000000 89.000000"
 preserveAspectRatio="xMidYMid meet">
<metadata>
Created by potrace 1.15, written by Peter Selinger 2001-2017
</metadata>
<g transform="translate(0.000000,89.000000) scale(0.100000,-0.100000)"
fill="#000000" stroke="none">
<path d="M277 668 c-2 -7 -2 -39 1 -70 7 -79 -12 -75 -24 5 -6 44 -13 62 -24
62 -12 0 -15 -13 -13 -63 3 -56 1 -63 -15 -60 -13 3 -16 12 -14 40 2 28 -2 39
-16 47 -31 16 -45 -2 -37 -47 6 -40 6 -40 -38 -35 -51 6 -63 -4 -40 -37 14
-20 22 -22 68 -17 52 5 53 5 59 -23 3 -16 17 -40 32 -53 35 -32 27 -61 -13
-51 -40 10 -43 13 -43 38 0 25 -17 46 -37 46 -11 0 -13 -14 -11 -57 3 -58 3
-58 66 -61 45 -2 62 -7 62 -17 0 -25 -36 -36 -94 -29 -47 6 -57 4 -62 -11 -10
-26 14 -36 83 -33 36 2 63 -1 63 -7 1 -5 -7 -11 -17 -13 -81 -13 -93 -26 -93
-101 0 -98 49 -106 58 -10 5 63 15 79 50 79 25 0 25 0 20 -80 -5 -84 4 -108
29 -75 8 12 13 46 13 87 0 68 0 68 29 68 32 0 41 -17 41 -86 0 -48 6 -57 31
-43 16 8 19 22 19 80 0 65 -1 70 -26 79 -14 6 -39 10 -55 10 -16 0 -29 5 -29
11 0 8 17 10 54 5 60 -7 86 -1 86 20 0 16 -4 17 -85 18 -53 1 -60 3 -60 21 0
17 8 21 55 25 45 4 57 9 69 31 9 16 11 36 7 53 -8 33 -30 29 -34 -7 -4 -36
-24 -49 -69 -45 -51 4 -58 33 -12 52 22 9 36 24 43 47 9 29 17 35 54 42 24 5
47 6 50 2 4 -4 7 -98 7 -209 0 -157 3 -207 14 -219 10 -13 31 -17 95 -17 95 0
113 8 97 39 -13 23 -13 23 -93 21 -57 -1 -57 -1 -62 42 -4 24 -7 63 -9 88 -2
45 -2 45 61 50 39 3 66 10 72 19 12 21 23 168 18 247 -5 84 -20 98 -93 88 -27
-3 -62 -13 -77 -22 -23 -14 -28 -23 -28 -57 0 -41 0 -41 -36 -37 -36 4 -36 4
-29 53 6 40 4 50 -9 55 -24 9 -30 -1 -36 -59 -4 -37 -9 -52 -20 -52 -12 0 -14
11 -12 50 1 28 0 60 -3 73 -6 24 -30 30 -38 10z m321 -120 c2 -34 -1 -48 -10
-48 -7 0 -30 -3 -50 -6 -38 -7 -38 -7 -38 40 0 39 4 48 23 56 12 5 33 8 47 7
22 -2 25 -7 28 -49z m-283 -72 c0 -13 -9 -22 -27 -27 -34 -9 -64 11 -55 35 10
26 82 18 82 -8z m283 -73 c-3 -58 -3 -58 -48 -58 -45 0 -45 0 -48 44 -5 64 1
71 53 71 46 0 46 0 43 -57z"/>
</g>
</svg>
