<svg version="1.0" xmlns="http://www.w3.org/2000/svg"
 width="49.000000pt" height="113.000000pt" viewBox="0 0 49.000000 113.000000"
 preserveAspectRatio="xMidYMid meet">
<metadata>
Created by potrace 1.15, written by Peter Selinger 2001-2017
</metadata>
<g transform="translate(0.000000,113.000000) scale(0.100000,-0.100000)"
fill="#000000" stroke="none">
<path d="M115 950 c-3 -6 -3 -20 1 -33 7 -23 9 -36 12 -148 2 -67 2 -67 67
-61 65 5 65 5 59 -74 -3 -44 -10 -103 -15 -133 -14 -87 -12 -103 29 -149 94
-108 99 -125 21 -72 -24 16 -54 30 -66 30 -21 0 -22 -3 -16 -52 7 -67 46 -162
68 -166 14 -3 16 4 15 45 -3 76 -4 74 36 57 19 -8 44 -12 54 -9 18 6 19 16 17
143 -3 125 -6 146 -36 237 -19 55 -38 110 -44 122 -10 23 -3 43 17 43 7 0 22
11 34 23 21 22 22 28 13 106 -5 45 -11 84 -12 86 -2 2 -13 5 -24 7 -17 3 -20
-3 -23 -44 -3 -47 -3 -47 -60 -47 -75 0 -92 6 -92 33 0 12 -9 32 -20 44 -24
25 -26 26 -35 12z m198 -137 c9 -2 17 -14 17 -25 0 -17 -5 -20 -27 -15 -16 3
-47 2 -71 -3 -33 -6 -45 -4 -49 6 -12 32 5 44 59 43 29 -1 61 -3 71 -6z m18
-361 c12 -40 19 -75 16 -78 -3 -3 -17 5 -31 19 -22 22 -26 35 -26 80 0 46 11
85 17 60 1 -4 11 -41 24 -81z"/>
</g>
</svg>
