<svg version="1.0" xmlns="http://www.w3.org/2000/svg"
 width="39.000000pt" height="87.000000pt" viewBox="0 0 39.000000 87.000000"
 preserveAspectRatio="xMidYMid meet">
<metadata>
Created by potrace 1.15, written by Peter Selinger 2001-2017
</metadata>
<g transform="translate(0.000000,87.000000) scale(0.100000,-0.100000)"
fill="#000000" stroke="none">
<path d="M286 742 c-4 -6 -10 -35 -13 -64 -8 -76 -17 -88 -61 -88 -52 0 -82
23 -82 63 0 41 -15 68 -23 41 -9 -31 -12 -178 -3 -192 4 -6 20 -12 37 -12 25
0 29 -4 29 -27 0 -16 -9 -57 -20 -93 -11 -36 -20 -77 -20 -92 0 -16 -5 -28
-10 -28 -16 0 -32 -50 -21 -64 5 -6 11 -29 13 -51 2 -28 8 -41 21 -43 10 -2
17 3 17 12 0 28 25 65 63 95 17 14 18 10 16 -72 -1 -48 1 -90 4 -94 4 -3 14
10 22 30 17 41 22 237 5 237 -11 0 -50 -40 -50 -52 0 -10 -52 -69 -57 -64 -7
7 58 121 79 139 20 17 21 22 10 63 -17 64 -15 79 12 92 25 11 45 65 61 157 3
22 8 47 11 56 6 21 -30 67 -40 51z m-36 -192 c0 -18 -7 -20 -55 -20 -48 0 -55
2 -55 20 0 18 7 20 55 20 48 0 55 -2 55 -20z m-40 -159 c0 -6 -4 -13 -10 -16
-5 -3 -10 1 -10 9 0 9 5 16 10 16 6 0 10 -4 10 -9z"/>
</g>
</svg>
