<svg version="1.0" xmlns="http://www.w3.org/2000/svg"
 width="53.000000pt" height="125.000000pt" viewBox="0 0 53.000000 125.000000"
 preserveAspectRatio="xMidYMid meet">
<metadata>
Created by potrace 1.15, written by Peter Selinger 2001-2017
</metadata>
<g transform="translate(0.000000,125.000000) scale(0.100000,-0.100000)"
fill="#000000" stroke="none">
<path d="M119 1053 c-16 -81 0 -206 36 -262 14 -23 32 -41 40 -41 18 0 20 -42
4 -73 -7 -12 -28 -42 -48 -67 -38 -47 -50 -70 -70 -131 -13 -42 -15 -135 -2
-143 9 -6 31 36 31 59 0 7 10 15 22 17 19 2 25 13 34 63 13 70 23 95 35 95 5
0 9 -8 9 -19 0 -10 7 -24 16 -32 24 -20 39 10 34 68 0 12 4 40 10 62 9 36 14
41 40 41 16 0 31 -4 34 -9 3 -4 19 -11 35 -14 17 -4 40 -16 51 -27 27 -27 13
-50 -57 -96 -45 -29 -54 -40 -67 -85 -21 -69 -20 -110 4 -204 11 -43 20 -86
20 -95 0 -25 24 -70 37 -70 14 0 11 63 -14 268 -7 60 25 121 75 144 42 20 82
75 82 112 0 57 -25 82 -114 116 -28 10 -28 11 -9 28 10 9 25 33 33 52 7 19 18
41 24 49 14 18 12 167 -3 204 -14 36 -45 33 -47 -3 -3 -75 1 -70 -61 -70 -32
0 -81 3 -110 6 -52 7 -52 7 -55 58 -2 38 -7 52 -20 54 -13 2 -19 -10 -29 -55z
m267 -128 c8 -20 -12 -77 -37 -103 -39 -43 -130 -24 -147 30 -24 75 -26 72 68
79 47 3 91 6 98 7 7 1 15 -5 18 -13z"/>
</g>
</svg>
