<svg version="1.0" xmlns="http://www.w3.org/2000/svg"
 width="47.000000pt" height="101.000000pt" viewBox="0 0 47.000000 101.000000"
 preserveAspectRatio="xMidYMid meet">
<metadata>
Created by potrace 1.15, written by Peter Selinger 2001-2017
</metadata>
<g transform="translate(0.000000,101.000000) scale(0.100000,-0.100000)"
fill="#000000" stroke="none">
<path d="M169 818 c-4 -198 7 -264 42 -253 23 8 32 -46 24 -145 -3 -47 -1 -85
6 -103 10 -24 8 -35 -11 -76 -18 -39 -20 -52 -11 -70 16 -29 27 -27 71 13 21
19 48 39 59 46 20 10 21 8 21 -44 0 -30 -4 -58 -10 -61 -18 -11 -11 -45 10
-45 27 0 38 26 45 106 3 38 8 81 10 97 4 23 1 27 -21 27 -14 0 -39 -9 -56 -21
-16 -12 -32 -18 -35 -15 -4 4 3 35 15 69 21 63 21 63 0 121 -19 50 -20 63 -9
90 16 41 26 266 12 286 -14 21 -23 8 -28 -42 -6 -64 -9 -68 -46 -68 -33 0 -34
2 -41 46 -9 72 -45 104 -47 42z m121 -168 c0 -15 -7 -20 -24 -20 -29 0 -44 19
-25 31 25 16 49 10 49 -11z"/>
</g>
</svg>
