<svg version="1.0" xmlns="http://www.w3.org/2000/svg"
 width="49.000000pt" height="105.000000pt" viewBox="0 0 49.000000 105.000000"
 preserveAspectRatio="xMidYMid meet">
<metadata>
Created by potrace 1.15, written by Peter Selinger 2001-2017
</metadata>
<g transform="translate(0.000000,105.000000) scale(0.100000,-0.100000)"
fill="#000000" stroke="none">
<path d="M370 881 c0 -28 -5 -53 -11 -57 -6 -3 -55 -10 -108 -14 -104 -9 -121
-2 -121 45 0 12 -7 30 -15 41 -15 19 -15 19 -30 0 -25 -33 -17 -142 17 -238
12 -33 62 -79 105 -97 30 -12 31 -14 27 -64 -3 -29 -14 -88 -25 -131 -20 -81
-16 -105 16 -93 8 4 18 15 21 24 3 10 14 38 24 63 10 25 23 57 29 73 9 24 13
26 30 15 18 -11 19 -24 18 -157 -1 -120 1 -153 16 -184 9 -20 23 -37 31 -37
10 0 13 24 13 110 0 68 5 115 12 124 6 7 12 41 14 75 2 61 2 61 -50 109 -29
26 -53 55 -53 63 0 9 15 28 34 43 52 39 66 78 72 188 4 84 3 101 -13 123 -10
13 -26 25 -35 25 -15 0 -18 -9 -18 -49z m-30 -192 c-14 -41 -42 -59 -95 -59
-34 0 -64 28 -78 75 -11 35 6 44 93 52 80 8 85 7 88 -11 2 -11 -2 -37 -8 -57z"/>
</g>
</svg>
