<svg version="1.0" xmlns="http://www.w3.org/2000/svg"
 width="43.000000pt" height="115.000000pt" viewBox="0 0 43.000000 115.000000"
 preserveAspectRatio="xMidYMid meet">
<metadata>
Created by potrace 1.15, written by Peter Selinger 2001-2017
</metadata>
<g transform="translate(0.000000,115.000000) scale(0.100000,-0.100000)"
fill="#000000" stroke="none">
<path d="M139 908 c-1 -44 -8 -88 -18 -107 -14 -27 -12 -147 2 -159 7 -6 30
-12 52 -14 39 -3 40 -4 37 -38 -1 -19 -6 -44 -11 -55 -5 -11 -15 -41 -21 -68
-7 -26 -17 -50 -21 -53 -5 -3 -9 -16 -9 -30 0 -13 -12 -42 -27 -65 -23 -35
-25 -42 -13 -64 8 -14 10 -37 6 -56 -7 -39 13 -91 34 -87 9 2 16 16 18 34 2
16 15 43 29 60 25 29 25 29 22 -71 -3 -82 -1 -100 10 -100 21 0 40 93 40 193
0 82 0 82 -27 82 -20 0 -30 -7 -40 -30 -16 -34 -42 -40 -42 -9 0 12 27 47 66
85 66 66 66 66 61 137 -3 40 -7 83 -9 97 -2 21 2 26 24 28 14 2 31 9 37 16 6
8 12 62 13 125 1 90 -2 115 -15 128 -14 14 -15 11 -15 -40 1 -63 -7 -81 -31
-71 -9 4 -36 10 -60 13 -37 5 -44 10 -47 31 -9 70 -21 114 -32 118 -8 2 -12
-8 -13 -30z m156 -188 c7 -6 10 -20 8 -31 -5 -18 -11 -20 -42 -15 -20 3 -44 6
-53 6 -20 0 -42 35 -32 51 8 14 100 5 119 -11z m-45 -232 c-1 -23 -26 -65 -34
-57 -7 6 18 79 26 79 5 0 8 -10 8 -22z"/>
</g>
</svg>
