<svg version="1.0" xmlns="http://www.w3.org/2000/svg"
 width="71.000000pt" height="143.000000pt" viewBox="0 0 71.000000 143.000000"
 preserveAspectRatio="xMidYMid meet">
<metadata>
Created by potrace 1.15, written by Peter Selinger 2001-2017
</metadata>
<g transform="translate(0.000000,143.000000) scale(0.100000,-0.100000)"
fill="#000000" stroke="none">
<path d="M348 1268 c0 -46 0 -93 1 -104 1 -16 -6 -23 -26 -27 -16 -3 -45 -10
-66 -15 -22 -6 -39 -6 -43 -1 -3 5 -4 49 -2 98 2 64 -1 93 -11 105 -7 9 -16
16 -20 16 -7 0 -36 -62 -34 -71 1 -4 3 -42 4 -85 2 -84 20 -201 37 -245 11
-27 57 -79 70 -79 4 0 13 -4 21 -9 16 -10 -7 -48 -71 -116 -21 -22 -38 -43
-38 -48 0 -4 -29 -35 -64 -70 -65 -64 -73 -87 -29 -87 27 0 53 21 53 43 0 8
23 35 50 61 28 26 50 50 50 54 0 4 20 29 43 56 43 49 43 49 90 -4 47 -52 47
-52 48 -134 0 -44 0 -108 -1 -141 -3 -127 -4 -152 -2 -216 2 -63 4 -68 45
-111 41 -44 130 -98 161 -98 38 0 28 45 -12 55 -42 10 -131 86 -132 112 0 12
-5 25 -11 29 -8 5 -10 68 -5 229 5 144 4 229 -3 241 -5 11 -12 27 -15 37 -3
11 -14 21 -24 24 -10 2 -26 17 -36 33 -16 29 -16 53 4 110 9 25 23 162 20 190
-1 8 -4 68 -6 133 -5 107 -7 117 -25 117 -17 0 -19 -8 -21 -82z m-23 -212 c26
-1 31 -43 14 -102 -12 -40 -16 -44 -46 -44 -42 0 -63 30 -63 91 0 38 4 48 23
57 12 6 29 8 37 5 8 -3 24 -6 35 -7z"/>
</g>
</svg>
