<svg version="1.0" xmlns="http://www.w3.org/2000/svg"
 width="68.000000pt" height="83.000000pt" viewBox="0 0 68.000000 83.000000"
 preserveAspectRatio="xMidYMid meet">
<metadata>
Created by potrace 1.15, written by Peter Selinger 2001-2017
</metadata>
<g transform="translate(0.000000,83.000000) scale(0.100000,-0.100000)"
fill="#000000" stroke="none">
<path d="M183 625 c8 -47 -3 -105 -18 -105 -7 0 -16 19 -19 45 -8 50 -20 63
-42 44 -11 -9 -13 -21 -8 -38 4 -14 10 -42 13 -61 6 -31 11 -36 41 -40 29 -4
35 -9 35 -30 0 -22 -5 -25 -40 -28 -61 -4 -85 -11 -85 -26 0 -23 23 -25 129
-13 72 8 101 15 101 24 0 8 -13 16 -29 19 -19 4 -31 14 -35 28 -9 32 -7 36 12
36 31 0 59 28 65 66 7 41 -6 74 -29 74 -13 0 -15 -10 -12 -47 3 -42 0 -48 -16
-48 -16 0 -20 9 -22 58 -4 65 -8 77 -31 77 -12 0 -14 -7 -10 -35z"/>
<path d="M374 610 c-12 -4 -24 -16 -28 -26 -3 -9 -6 -128 -6 -265 1 -276 -4
-259 75 -259 66 0 77 23 73 161 -1 87 1 112 13 120 42 27 49 1 41 -167 -6
-138 -2 -160 26 -145 17 9 20 28 26 165 5 105 3 162 -4 176 -13 24 -55 26
-104 6 -34 -14 -34 -14 -37 -139 -2 -69 -7 -128 -10 -131 -3 -4 -18 -2 -33 3
-26 11 -26 11 -26 170 0 121 3 161 14 170 8 7 35 9 74 5 52 -6 64 -4 92 16 30
21 31 25 28 84 -3 61 -3 61 -98 63 -52 1 -104 -2 -116 -7z m167 -56 c7 -21 6
-31 -8 -46 -14 -15 -28 -18 -77 -16 -59 3 -61 4 -67 33 -9 50 -3 55 72 55 66
0 70 -1 80 -26z"/>
<path d="M182 314 c-15 -31 -15 -67 -1 -81 5 -5 9 -37 7 -69 -2 -45 -7 -60
-19 -62 -14 -3 -18 12 -24 92 -4 62 -12 99 -21 107 -22 18 -26 -8 -22 -121 4
-122 10 -130 104 -130 75 0 94 6 94 31 0 15 -7 19 -34 19 -19 0 -36 5 -38 12
-9 25 5 57 24 60 26 4 57 91 42 116 -20 31 -34 25 -34 -16 0 -50 -8 -72 -26
-72 -10 0 -14 15 -14 59 0 69 -19 97 -38 55z"/>
</g>
</svg>
