<svg version="1.0" xmlns="http://www.w3.org/2000/svg"
 width="73.000000pt" height="83.000000pt" viewBox="0 0 73.000000 83.000000"
 preserveAspectRatio="xMidYMid meet">
<metadata>
Created by potrace 1.15, written by Peter Selinger 2001-2017
</metadata>
<g transform="translate(0.000000,83.000000) scale(0.100000,-0.100000)"
fill="#000000" stroke="none">
<path d="M110 666 c0 -8 9 -17 20 -21 23 -7 60 -56 60 -79 0 -17 -5 -20 -52
-30 -34 -8 -60 -55 -56 -99 4 -40 21 -38 29 2 9 43 27 61 60 61 26 0 29 -4 29
-30 0 -47 -26 -87 -75 -116 -44 -25 -58 -44 -32 -44 6 0 30 11 52 25 84 51 83
51 113 23 25 -24 64 -48 76 -48 15 0 3 24 -23 46 -67 56 -95 154 -46 162 50
10 78 76 55 132 -19 46 -42 39 -34 -10 5 -31 3 -45 -11 -60 -24 -27 -34 -25
-46 7 -14 36 -35 60 -72 78 -38 19 -47 19 -47 1z"/>
<path d="M476 660 c-53 -16 -96 -78 -96 -139 0 -42 64 -130 115 -159 23 -12
24 -8 -49 -118 -48 -73 -60 -106 -52 -148 12 -64 69 -89 142 -61 24 9 50 26
56 38 7 12 12 58 13 103 0 54 5 87 14 98 17 21 7 33 -14 16 -20 -17 -35 -74
-35 -136 0 -44 -4 -54 -25 -68 -47 -31 -93 -14 -109 40 -6 20 50 121 96 171
30 32 16 69 -47 128 -58 54 -81 110 -62 152 14 32 77 54 131 47 37 -5 47 -12
56 -34 19 -46 -24 -99 -70 -85 -30 9 -34 -14 -4 -25 61 -24 124 27 124 100 0
65 -95 106 -184 80z"/>
<path d="M197 303 c-4 -3 -7 -53 -7 -110 0 -94 -2 -103 -19 -103 -28 0 -40 21
-53 91 -10 61 -23 83 -40 73 -4 -3 -6 -22 -3 -42 2 -20 7 -58 10 -84 8 -66 45
-88 144 -88 64 0 72 2 69 17 -2 11 -15 20 -33 23 -25 4 -30 10 -30 35 0 23 5
30 25 35 27 6 78 72 61 78 -6 2 -25 -8 -42 -22 -37 -32 -49 -26 -49 22 0 64
-14 95 -33 75z"/>
</g>
</svg>
