<svg version="1.0" xmlns="http://www.w3.org/2000/svg"
 width="64.000000pt" height="127.000000pt" viewBox="0 0 64.000000 127.000000"
 preserveAspectRatio="xMidYMid meet">
<metadata>
Created by potrace 1.15, written by Peter Selinger 2001-2017
</metadata>
<g transform="translate(0.000000,127.000000) scale(0.100000,-0.100000)"
fill="#000000" stroke="none">
<path d="M308 1148 c-3 -33 -6 -67 -7 -105 -1 -43 -1 -43 -44 -43 -54 0 -75
20 -85 81 -6 35 -12 44 -27 44 -18 0 -20 -6 -18 -69 2 -37 8 -75 14 -82 7 -9
31 -14 63 -14 69 0 98 -9 94 -29 -3 -12 -21 -18 -82 -24 -109 -11 -126 -29
-126 -133 0 -93 13 -110 97 -119 91 -10 114 -16 110 -28 -2 -7 -32 -17 -66
-22 -75 -12 -95 -32 -88 -87 4 -30 2 -38 -10 -38 -24 0 -70 -54 -81 -93 -18
-65 20 -172 61 -172 9 0 19 -4 23 -8 4 -4 29 -7 56 -7 53 0 61 -6 109 -82 17
-26 39 -50 50 -53 10 -4 19 -11 19 -16 0 -5 5 -9 10 -9 6 0 30 -9 52 -20 23
-11 47 -20 54 -20 15 0 25 25 17 45 -5 14 -76 55 -95 55 -14 0 -58 43 -58 57
0 7 10 24 22 38 19 22 30 25 85 25 75 0 144 28 162 66 6 14 11 46 11 72 0 54
-32 102 -69 102 -24 0 -27 -13 -6 -33 20 -20 28 -61 21 -100 -5 -26 -14 -37
-44 -50 -34 -15 -112 -24 -112 -13 0 2 7 23 15 46 18 51 20 106 3 116 -18 11
-35 -22 -48 -93 -12 -70 -29 -111 -54 -132 -24 -20 -44 32 -49 128 -6 91 -20
121 -36 78 -6 -14 -9 -36 -9 -49 1 -13 1 -42 0 -64 -2 -42 -2 -42 -44 -46 -27
-3 -48 1 -56 9 -7 7 -18 13 -23 13 -5 0 -9 7 -9 15 0 8 -4 15 -10 15 -13 0
-13 66 1 91 5 11 22 33 36 48 23 25 31 27 57 20 17 -5 88 -7 157 -6 105 3 130
6 144 21 19 19 26 80 13 108 -12 26 -79 43 -107 28 -30 -16 -21 -34 20 -40 34
-5 38 -15 24 -56 -4 -13 -142 -24 -208 -17 -43 5 -47 8 -47 33 0 25 3 28 48
32 63 6 105 27 112 58 5 22 14 25 81 36 141 22 155 44 140 210 -2 17 -48 32
-125 39 -81 8 -96 13 -96 30 0 17 22 25 68 25 20 1 53 9 72 18 33 16 35 21 41
77 3 33 4 66 1 73 -7 20 -42 14 -43 -8 -1 -11 -2 -23 -3 -27 -1 -5 -6 -23 -10
-40 -6 -26 -14 -34 -44 -43 -78 -21 -82 -18 -82 58 0 63 -10 92 -32 92 -4 0
-9 -6 -10 -12z m-3 -298 c12 -39 -9 -45 -121 -33 -35 3 -41 7 -37 23 6 21 25
27 100 29 43 1 53 -2 58 -19z m205 -15 c0 -26 0 -26 -77 -23 -72 3 -78 5 -81
26 -3 21 -1 22 77 22 80 0 81 0 81 -25z m-212 -97 c-3 -43 -3 -43 -58 -40 -64
4 -103 20 -108 46 -6 28 15 36 96 36 73 0 73 0 70 -42z m218 30 c2 -2 1 -13
-2 -25 -7 -25 -38 -40 -102 -49 -49 -6 -49 -6 -55 32 -4 25 -2 41 6 47 11 7
145 3 153 -5z"/>
</g>
</svg>
