<svg version="1.0" xmlns="http://www.w3.org/2000/svg"
 width="103.000000pt" height="159.000000pt" viewBox="0 0 103.000000 159.000000"
 preserveAspectRatio="xMidYMid meet">
<metadata>
Created by potrace 1.15, written by Peter Selinger 2001-2017
</metadata>
<g transform="translate(0.000000,159.000000) scale(0.100000,-0.100000)"
fill="#000000" stroke="none">
<path d="M582 1558 c-7 -7 -12 -21 -12 -32 0 -12 -6 -28 -13 -36 -12 -16 -182
-120 -195 -120 -4 0 -34 -28 -67 -62 -76 -80 -107 -143 -109 -225 -1 -54 2
-64 24 -83 67 -58 160 -62 205 -8 19 23 23 34 15 48 -15 29 -26 31 -44 11 -10
-11 -30 -24 -46 -31 -23 -10 -33 -9 -54 5 -34 23 -41 55 -26 113 26 94 87 156
214 218 50 23 93 41 96 39 4 -2 10 -73 14 -157 4 -84 11 -191 16 -238 5 -47
11 -144 14 -216 5 -132 5 -132 -39 -143 -24 -6 -55 -11 -70 -11 -14 0 -33 -4
-43 -9 -9 -5 -29 -14 -44 -21 -32 -15 -33 -16 -58 -137 -11 -53 -25 -101 -30
-108 -6 -7 -7 -20 -4 -29 4 -10 -2 -33 -12 -51 -18 -33 -18 -36 -1 -52 20 -21
50 -8 55 23 5 25 50 64 74 64 10 0 18 3 18 8 0 4 10 12 23 18 12 6 56 30 97
53 63 36 81 42 113 37 20 -3 56 -9 80 -12 23 -3 47 -10 53 -15 7 -5 31 -11 55
-14 45 -4 69 -24 69 -56 0 -9 7 -23 16 -30 23 -19 45 12 34 49 -4 15 -14 47
-21 72 -7 25 -19 56 -26 70 -7 14 -13 34 -13 46 0 33 -48 120 -73 131 -18 8
-56 9 -136 1 -30 -3 -38 5 -39 38 -1 36 15 64 40 64 7 1 38 13 68 28 58 29 78
59 67 104 -10 37 -37 63 -82 76 -125 36 -112 20 -118 135 -4 86 -2 104 11 115
14 11 14 12 0 12 -16 0 -28 45 -28 112 0 32 4 39 25 44 35 9 91 -1 156 -28 59
-24 69 -34 99 -90 27 -51 25 -68 -13 -110 -27 -29 -45 -39 -95 -49 -65 -14
-67 -15 -53 -38 11 -17 110 -17 151 0 28 11 90 103 90 134 0 41 -40 126 -74
161 -20 19 -120 70 -166 83 -63 18 -114 41 -107 48 4 3 -3 19 -14 34 -22 31
-47 37 -67 17z m219 -645 c16 -16 -9 -58 -47 -77 -66 -31 -84 -17 -84 63 0 33
0 33 60 29 33 -2 65 -9 71 -15z m56 -325 c19 -20 59 -126 50 -135 -6 -5 -153
20 -172 29 -60 33 -60 116 0 131 40 11 98 -1 122 -25z m-233 -14 c10 -27 7
-69 -9 -90 -8 -12 -40 -33 -72 -48 -32 -15 -75 -35 -95 -46 -38 -18 -38 -18
-38 5 0 13 5 27 10 30 6 3 10 15 10 26 0 10 4 19 9 19 5 0 11 14 15 30 3 17
10 30 16 30 5 0 19 8 30 18 19 16 79 39 106 41 7 1 15 -6 18 -15z"/>
<path d="M756 1274 c-13 -33 -5 -51 30 -67 41 -20 59 -12 67 29 3 20 -1 28
-24 39 -37 19 -65 19 -73 -1z"/>
<path d="M390 1220 c-25 -19 -25 -19 -1 -44 31 -33 46 -33 67 -1 16 24 16 27
-1 45 -22 25 -33 25 -65 0z"/>
<path d="M44 1092 c-15 -9 -17 -25 -15 -138 1 -58 6 -97 14 -108 13 -18 15
-18 40 4 19 17 27 34 28 59 1 20 4 47 8 61 8 28 -8 82 -32 111 -18 21 -26 23
-43 11z"/>
<path d="M135 687 c-38 -27 -61 -51 -63 -65 -4 -27 10 -28 63 -2 22 11 43 19
48 20 4 0 7 -20 7 -44 0 -49 -27 -120 -58 -152 -34 -35 -42 -57 -27 -77 6 -9
18 -17 25 -17 13 0 80 69 80 83 0 4 7 15 15 23 8 9 18 27 22 42 3 15 11 30 17
34 6 4 12 39 14 77 8 128 -36 152 -143 78z"/>
<path d="M734 271 c-7 -44 -12 -47 -84 -57 -46 -6 -50 -5 -50 14 0 19 -26 42
-47 42 -16 0 -2 -201 17 -234 16 -30 20 -31 86 -33 101 -4 111 7 128 143 15
113 12 135 -24 154 -18 9 -20 6 -26 -29z m-4 -130 c0 -49 -20 -91 -47 -97 -39
-10 -70 10 -75 48 -9 58 11 76 85 77 34 1 37 -1 37 -28z"/>
</g>
</svg>
