<svg version="1.0" xmlns="http://www.w3.org/2000/svg"
 width="101.000000pt" height="151.000000pt" viewBox="0 0 101.000000 151.000000"
 preserveAspectRatio="xMidYMid meet">
<metadata>
Created by potrace 1.15, written by Peter Selinger 2001-2017
</metadata>
<g transform="translate(0.000000,151.000000) scale(0.100000,-0.100000)"
fill="#000000" stroke="none">
<path d="M606 1488 c-9 -12 -16 -30 -16 -38 0 -20 -58 -80 -77 -80 -8 0 -34
-13 -58 -30 -24 -16 -46 -30 -50 -30 -35 0 -75 -114 -63 -179 13 -70 36 -86
116 -83 40 2 41 13 2 35 -47 28 -60 46 -60 84 0 75 51 130 145 155 37 10 48
10 54 0 7 -11 22 -237 25 -372 1 -45 1 -45 -54 -63 -34 -11 -68 -32 -88 -53
-31 -33 -33 -39 -39 -132 -3 -53 -10 -102 -15 -108 -5 -7 -5 -21 1 -35 5 -13
13 -50 16 -82 5 -41 12 -60 25 -67 34 -18 40 -11 40 43 0 62 11 77 58 77 19 0
61 13 93 30 58 29 58 29 115 0 31 -17 62 -30 70 -30 28 0 60 -22 73 -51 15
-34 47 -39 56 -8 8 26 9 88 1 96 -3 3 -1 14 4 24 7 12 7 20 0 24 -7 4 -7 12 0
25 6 12 7 28 1 42 -5 13 -9 40 -9 61 0 37 -27 86 -67 119 -25 22 -85 44 -150
55 -41 7 -51 12 -53 31 -3 22 -2 22 112 22 107 0 116 1 116 19 0 23 -20 29
-134 37 -47 4 -90 12 -95 18 -5 6 -11 76 -13 156 -3 169 -7 164 102 129 93
-29 136 -68 145 -130 6 -41 4 -49 -20 -73 -14 -14 -30 -26 -35 -26 -6 0 -10
-7 -10 -15 0 -13 8 -15 38 -9 20 3 47 12 58 20 43 26 39 131 -6 198 -26 37
-81 76 -108 76 -10 0 -22 3 -26 8 -4 4 -40 12 -79 17 -72 10 -72 10 -75 49 -5
62 -38 84 -66 44z m231 -654 c7 -7 13 -16 13 -19 0 -4 9 -19 20 -35 14 -20 22
-52 26 -115 7 -87 7 -87 -27 -81 -32 7 -51 14 -105 38 -25 12 -34 50 -34 155
0 60 3 72 18 75 28 6 75 -4 89 -18z m-173 -1 c5 -18 8 -97 7 -164 -1 -33 -5
-39 -44 -57 -24 -11 -60 -24 -80 -27 -42 -8 -40 -13 -37 98 3 100 3 99 54 135
54 36 92 41 100 15z"/>
<path d="M130 1272 c0 -4 4 -12 9 -17 9 -9 15 -87 12 -146 -1 -18 -21 -48 -61
-90 -61 -66 -75 -99 -40 -99 19 0 65 35 128 97 34 34 38 56 32 163 -2 35 -8
50 -34 72 -32 28 -46 34 -46 20z"/>
<path d="M250 843 c-8 -4 -44 -28 -78 -55 -35 -27 -81 -58 -103 -71 -21 -12
-39 -28 -39 -34 0 -26 84 -8 118 24 21 20 42 15 43 -9 2 -34 6 -68 13 -115 4
-30 1 -57 -12 -90 -19 -49 -78 -123 -98 -123 -15 0 -39 -29 -31 -37 10 -10 69
-5 80 6 6 6 19 11 29 11 9 0 35 17 58 38 40 39 40 39 41 178 1 76 0 149 0 160
-1 12 5 38 13 58 22 53 9 76 -34 59z"/>
<path d="M545 335 c-4 -36 -5 -79 -1 -96 3 -17 3 -49 0 -70 -8 -46 -28 -51
-77 -17 -50 33 -72 59 -91 108 -20 50 -30 60 -63 60 -29 0 -29 -4 7 -75 16
-33 30 -65 30 -70 0 -19 65 -84 93 -95 16 -5 52 -10 82 -10 30 0 56 -4 59 -9
3 -4 38 -11 78 -15 40 -3 87 -9 103 -11 18 -3 38 1 50 10 32 25 0 44 -99 58
-87 12 -87 12 -84 42 3 25 9 31 43 41 44 12 61 33 89 117 16 46 17 59 6 72
-18 21 -40 19 -40 -5 0 -49 -50 -118 -90 -122 -23 -3 -25 0 -24 32 1 19 4 44
8 55 8 24 -25 65 -54 65 -15 0 -20 -11 -25 -65z"/>
</g>
</svg>
