<svg version="1.0" xmlns="http://www.w3.org/2000/svg"
 width="109.000000pt" height="193.000000pt" viewBox="0 0 109.000000 193.000000"
 preserveAspectRatio="xMidYMid meet">
<metadata>
Created by potrace 1.15, written by Peter Selinger 2001-2017
</metadata>
<g transform="translate(0.000000,193.000000) scale(0.100000,-0.100000)"
fill="#000000" stroke="none">
<path d="M506 1808 c-3 -7 -7 -25 -10 -40 -3 -15 -21 -38 -39 -51 -44 -33
-145 -87 -162 -87 -21 0 -117 -46 -140 -67 -11 -10 -31 -33 -44 -51 -23 -32
-23 -39 -18 -160 4 -70 11 -188 17 -262 14 -178 21 -939 9 -962 -10 -18 1 -31
17 -20 33 21 39 58 40 247 1 105 3 226 4 270 2 44 0 166 -4 270 -4 105 -8 276
-9 381 -2 221 -9 206 112 264 35 17 83 44 107 60 23 17 45 30 49 30 3 0 17 11
30 24 36 36 61 40 93 18 53 -38 103 -62 130 -62 29 0 172 -34 212 -50 52 -21
52 -17 51 -529 -1 -478 2 -540 40 -776 5 -33 12 -86 15 -118 5 -43 11 -60 26
-68 29 -15 41 1 28 36 -6 16 -11 43 -12 62 -1 19 -5 36 -10 39 -4 3 -8 51 -8
107 0 56 -5 131 -11 167 -5 35 -11 108 -13 162 -1 55 -8 103 -14 111 -7 8 -9
16 -6 20 3 3 7 86 9 184 1 98 3 178 4 178 1 0 4 83 6 185 4 162 2 190 -13 220
-9 18 -26 38 -37 44 -11 6 -22 13 -25 16 -9 9 -76 30 -98 30 -11 0 -24 5 -27
10 -3 6 -17 10 -30 10 -13 0 -47 6 -76 12 -59 14 -129 72 -129 107 0 11 -10
27 -22 35 -27 19 -37 20 -42 4z"/>
<path d="M725 1498 c-71 -10 -148 -27 -154 -34 -11 -11 23 -28 59 -29 22 -1
42 -4 45 -7 3 -3 9 -37 12 -76 6 -70 6 -70 -58 -78 -54 -8 -64 -12 -64 -29 0
-17 7 -20 50 -22 72 -4 75 -6 75 -62 0 -63 -15 -78 -85 -86 -30 -4 -55 -10
-55 -14 0 -23 31 -31 118 -31 118 0 182 15 182 42 0 15 -5 18 -20 13 -11 -4
-34 -4 -50 0 -30 6 -30 8 -30 71 0 64 0 65 30 71 17 3 30 9 30 14 0 5 7 9 15
9 8 0 15 5 15 10 0 12 -17 20 -54 24 -33 3 -42 12 -29 28 8 9 7 29 0 65 -6 29
-8 55 -5 59 4 3 28 11 55 18 37 9 48 17 48 32 0 23 -37 27 -130 12z"/>
<path d="M310 1431 c0 -75 -27 -124 -99 -183 -11 -10 -21 -22 -21 -28 0 -17
44 -11 70 10 52 40 53 37 50 -120 -2 -97 -9 -115 -42 -104 -14 4 -18 0 -18
-20 0 -14 3 -26 8 -25 4 1 17 -2 30 -6 21 -7 22 -11 22 -141 0 -74 0 -137 0
-141 1 -5 -8 -9 -18 -11 -14 -2 -21 4 -26 21 -7 28 -42 71 -49 60 -19 -31 2
-263 24 -263 3 0 17 -9 29 -20 18 -16 36 -20 74 -19 96 5 137 71 140 227 1 70
1 72 -31 90 -23 12 -23 11 -23 -38 0 -50 0 -50 -39 -50 -38 0 -38 0 -40 140
-1 81 3 140 8 140 14 0 41 29 41 45 0 7 -11 15 -23 19 -23 5 -24 9 -26 121 -1
63 1 115 6 115 4 0 19 -9 33 -20 30 -23 80 -27 80 -6 0 25 -12 46 -26 46 -8 0
-14 4 -14 9 0 5 -9 11 -20 14 -11 3 -25 18 -32 34 -7 15 -17 31 -22 34 -5 4
-6 26 -3 48 4 29 1 46 -10 56 -25 25 -33 17 -33 -34z m120 -831 c0 -24 -37
-101 -54 -112 -21 -14 -66 -8 -86 12 -22 22 -29 105 -8 112 6 2 42 5 80 6 63
3 68 1 68 -18z"/>
<path d="M713 974 c-44 -9 -127 -39 -139 -51 -13 -13 -14 -33 -9 -109 3 -52
10 -105 15 -120 6 -14 10 -42 10 -62 0 -20 6 -45 13 -54 15 -19 14 -134 -1
-176 -5 -15 -15 -47 -22 -72 -28 -101 -33 -116 -41 -132 -10 -19 -12 -68 -4
-68 16 0 45 39 45 61 0 28 25 121 41 151 5 10 9 30 9 46 0 15 4 32 9 38 5 5
11 20 13 34 1 14 13 35 26 48 18 19 25 21 35 10 18 -19 37 -89 37 -139 0 -24
4 -60 9 -79 5 -19 15 -61 21 -92 9 -46 15 -58 30 -58 29 0 33 16 17 73 -19 67
-37 165 -37 203 0 17 -7 52 -16 78 -14 41 -14 49 -2 64 25 30 67 135 84 212
19 88 8 158 -27 167 -10 3 -19 9 -19 13 0 7 -77 18 -97 14z m81 -66 c26 -37
21 -65 -15 -72 -46 -9 -169 -7 -169 2 0 18 32 72 48 82 9 5 40 10 69 10 42 0
55 -4 67 -22z m-19 -124 c8 -4 15 -17 15 -30 0 -19 -5 -24 -24 -24 -14 0 -47
-5 -75 -12 -28 -6 -53 -10 -55 -7 -2 2 -7 21 -11 41 -6 33 -5 37 17 41 25 6
110 0 133 -9z m-19 -141 c-4 -15 -18 -38 -32 -50 -21 -19 -28 -21 -49 -11 -14
6 -25 18 -25 27 0 9 -3 25 -6 37 -5 20 -1 21 56 23 62 2 62 2 56 -26z"/>
</g>
</svg>
