<svg version="1.0" xmlns="http://www.w3.org/2000/svg"
 width="68.000000pt" height="84.000000pt" viewBox="0 0 68.000000 84.000000"
 preserveAspectRatio="xMidYMid meet">
<metadata>
Created by potrace 1.15, written by Peter Selinger 2001-2017
</metadata>
<g transform="translate(0.000000,84.000000) scale(0.100000,-0.100000)"
fill="#000000" stroke="none">
<path d="M317 623 c-4 -3 -7 -19 -7 -35 0 -15 -2 -28 -5 -28 -3 0 -40 -9 -81
-20 -109 -29 -131 -43 -143 -88 -11 -42 -18 -388 -8 -398 3 -4 13 -4 22 -1 13
6 15 35 15 201 0 228 -9 210 123 246 95 26 174 21 256 -17 74 -35 79 -51 83
-263 4 -169 5 -175 26 -178 21 -3 21 -1 24 195 3 198 3 198 -22 226 -25 28
-111 72 -188 97 -26 8 -41 18 -38 26 9 23 -40 55 -57 37z"/>
<path d="M181 395 c-22 -30 -41 -57 -41 -60 0 -15 32 -2 46 20 28 42 36 30 33
-48 -3 -56 -9 -79 -27 -101 -28 -37 -30 -108 -3 -153 43 -69 102 -48 121 42
14 68 6 111 -26 131 -20 14 -24 25 -24 65 0 55 11 61 46 28 24 -23 44 -18 44
9 -1 27 -97 122 -123 122 -3 0 -23 -25 -46 -55z m89 -230 c16 -19 4 -95 -15
-95 -34 0 -55 52 -39 94 8 20 38 21 54 1z"/>
<path d="M407 413 c-54 -5 -60 -25 -11 -33 26 -5 29 -9 32 -48 3 -40 1 -44
-27 -55 -36 -13 -35 -27 2 -45 21 -10 27 -20 27 -45 0 -62 -9 -77 -46 -77 -27
0 -34 -4 -34 -19 0 -25 19 -31 91 -31 72 0 106 14 88 36 -6 8 -22 14 -35 14
-23 0 -24 4 -24 59 0 60 0 60 33 63 42 4 43 31 2 38 -28 5 -30 8 -33 57 -3 50
-2 52 25 55 17 2 28 9 28 18 0 16 -33 20 -118 13z"/>
</g>
</svg>
