<svg version="1.0" xmlns="http://www.w3.org/2000/svg"
 width="101.000000pt" height="111.000000pt" viewBox="0 0 101.000000 111.000000"
 preserveAspectRatio="xMidYMid meet">
<metadata>
Created by potrace 1.15, written by Peter Selinger 2001-2017
</metadata>
<g transform="translate(0.000000,111.000000) scale(0.100000,-0.100000)"
fill="#000000" stroke="none">
<path d="M416 950 c-7 -50 -12 -56 -51 -63 -11 -2 -27 -7 -35 -10 -8 -3 -35
-11 -60 -17 -25 -7 -49 -15 -55 -20 -5 -4 -22 -10 -37 -14 -28 -6 -78 -49 -78
-66 0 -6 -7 -10 -14 -10 -13 0 -14 -39 -12 -267 4 -243 10 -364 22 -402 3 -10
8 -10 17 -2 10 8 14 78 15 310 2 215 6 306 15 323 21 40 54 67 92 74 19 3 38
10 41 15 3 5 18 9 33 9 15 0 46 9 69 20 22 11 45 20 50 20 5 0 15 7 22 15 12
14 15 14 32 -2 14 -12 54 -20 156 -29 167 -16 185 -20 211 -48 21 -22 36 -106
42 -226 1 -25 6 -52 10 -61 5 -9 10 -100 11 -202 2 -129 7 -190 15 -198 10
-10 14 -7 22 14 10 26 13 149 6 222 -2 22 -5 105 -6 185 -2 98 -8 167 -20 214
-18 69 -49 116 -79 116 -9 0 -20 4 -25 9 -6 5 -39 12 -75 14 -187 14 -226 26
-255 81 -16 29 -39 45 -66 46 -4 0 -9 -23 -13 -50z"/>
<path d="M619 745 c-3 -2 -26 -6 -52 -9 -63 -6 -72 -13 -50 -38 14 -16 26 -19
55 -14 35 6 38 4 38 -18 0 -21 -6 -24 -50 -30 -27 -4 -50 -10 -50 -14 0 -20
28 -32 73 -32 44 0 48 -2 45 -22 -2 -13 -11 -24 -23 -27 -11 -2 -31 -7 -44
-12 -19 -8 -21 -12 -11 -24 9 -11 32 -14 94 -12 45 2 87 6 94 11 21 13 13 26
-23 42 -40 16 -38 41 4 50 14 3 32 8 39 10 24 7 6 29 -31 38 -46 12 -49 39 -7
56 33 14 36 20 18 38 -11 11 -109 17 -119 7z"/>
<path d="M306 645 c-3 -8 -3 -21 0 -29 7 -19 -11 -54 -53 -98 -20 -20 -32 -41
-29 -47 10 -16 41 -14 56 4 23 28 30 15 30 -60 0 -77 14 -125 36 -125 23 0 36
39 28 79 -4 20 -8 57 -8 83 -1 50 -1 50 52 31 20 -8 14 31 -8 55 -12 12 -25
22 -30 22 -6 0 -10 15 -10 34 0 25 -7 39 -22 50 -28 20 -34 20 -42 1z"/>
<path d="M741 426 c-7 -8 -30 -23 -52 -34 -40 -20 -40 -20 -87 4 -53 27 -72
30 -73 12 -7 -124 13 -229 46 -241 18 -8 20 -40 3 -67 -11 -17 -10 -22 2 -30
11 -7 20 -1 35 25 11 19 27 35 36 35 22 0 69 -38 69 -56 0 -22 30 -64 46 -64
15 0 16 18 5 98 -6 39 -4 58 7 73 7 11 16 46 18 77 2 31 6 79 9 105 6 52 -5
77 -35 77 -10 0 -23 -6 -29 -14z m-125 -96 c8 0 14 -9 14 -20 0 -13 -7 -20
-18 -20 -26 0 -30 6 -24 38 3 15 7 21 9 15 3 -7 11 -13 19 -13z m124 -5 c0
-15 -6 -25 -14 -25 -19 0 -28 14 -20 34 10 25 34 19 34 -9z m10 -88 c0 -7 -10
-24 -21 -36 -18 -19 -29 -22 -65 -18 -48 5 -87 33 -61 43 16 6 101 21 130 23
9 0 17 -5 17 -12z"/>
<path d="M419 265 c-8 -9 -39 -19 -67 -24 -44 -7 -54 -5 -68 11 -29 31 -37 21
-30 -39 12 -116 18 -137 48 -166 26 -25 34 -28 71 -22 23 4 49 13 57 21 16 16
27 104 22 182 -4 56 -9 61 -33 37z m-23 -75 c9 0 14 -11 14 -32 -1 -71 -60
-94 -86 -33 -7 19 -14 41 -14 49 0 15 34 26 58 20 8 -2 20 -4 28 -4z"/>
<path d="M560 15 c-8 -9 -8 -15 -2 -15 12 0 26 19 19 26 -2 2 -10 -2 -17 -11z"/>
</g>
</svg>
