<svg version="1.0" xmlns="http://www.w3.org/2000/svg"
 width="129.000000pt" height="139.000000pt" viewBox="0 0 129.000000 139.000000"
 preserveAspectRatio="xMidYMid meet">
<metadata>
Created by potrace 1.15, written by Peter Selinger 2001-2017
</metadata>
<g transform="translate(0.000000,139.000000) scale(0.100000,-0.100000)"
fill="#000000" stroke="none">
<path d="M684 1341 c-29 -29 -146 -94 -214 -119 -52 -20 -190 -63 -230 -72
-19 -5 -53 -13 -75 -19 -22 -5 -59 -12 -83 -14 -51 -5 -57 -9 -44 -34 5 -10
12 -79 15 -153 4 -74 9 -148 11 -165 3 -16 7 -56 10 -87 3 -32 7 -61 9 -65 3
-5 7 -69 11 -143 9 -201 18 -300 26 -300 15 0 30 54 35 137 6 82 -5 271 -25
438 -18 145 -28 257 -25 273 2 9 4 24 4 33 1 11 19 20 58 29 57 12 155 40 283
79 79 24 232 88 239 100 20 30 71 16 136 -37 22 -18 139 -72 156 -72 10 0 21
-4 24 -10 3 -5 15 -10 26 -10 11 0 42 -7 70 -16 46 -15 49 -18 51 -53 0 -20 3
-49 4 -66 6 -55 4 -629 -2 -697 -7 -75 -2 -100 20 -92 30 11 38 109 39 474 1
360 1 360 29 392 15 17 25 35 22 40 -9 15 -70 38 -167 63 -99 25 -247 88 -247
105 0 5 -9 11 -20 15 -11 3 -38 22 -61 41 -22 19 -44 34 -49 34 -4 0 -21 -13
-36 -29z"/>
<path d="M376 1051 c-33 -3 -61 -11 -63 -17 -4 -12 41 -24 93 -24 37 0 58 -25
52 -63 -2 -17 -10 -22 -38 -24 -58 -4 -120 -15 -120 -22 1 -27 23 -35 90 -34
80 1 87 -4 76 -62 -7 -35 -7 -35 -61 -35 -30 0 -55 -4 -55 -10 0 -5 -7 -10
-15 -10 -23 0 -18 -20 8 -28 12 -5 91 -9 175 -11 154 -2 154 -2 150 21 -2 15
-9 22 -20 20 -9 -1 -19 2 -23 8 -3 5 -28 10 -56 10 -49 0 -49 0 -49 38 0 53
11 61 71 50 53 -10 79 3 79 36 0 13 -13 16 -70 16 -67 0 -70 1 -70 24 0 50 8
56 74 56 64 0 86 11 86 42 0 15 -9 18 -57 19 -32 1 -89 2 -128 3 -38 2 -97 0
-129 -3z"/>
<path d="M899 988 c-6 -24 -15 -56 -20 -72 -5 -16 -9 -77 -9 -135 -1 -106 -1
-106 -45 -134 -59 -37 -59 -57 -1 -57 40 0 43 -2 39 -24 -3 -13 1 -34 7 -47
12 -22 13 -22 26 -4 8 10 14 34 14 53 0 34 0 34 36 28 19 -4 42 -10 50 -13 32
-12 11 24 -27 47 -41 25 -41 25 -33 100 8 79 8 240 -1 278 -8 34 -23 26 -36
-20z"/>
<path d="M310 608 c10 -33 7 -73 -10 -138 -45 -169 -50 -208 -37 -260 16 -61
50 -108 100 -135 42 -22 56 -15 37 20 -13 24 -11 27 18 52 44 36 42 53 -5 46
-68 -12 -76 -10 -84 20 -14 52 -12 53 181 54 193 1 190 1 170 -52 -8 -22 -13
-24 -29 -15 -21 11 -101 14 -101 4 0 -8 40 -44 49 -44 3 0 13 -5 21 -10 12 -8
10 -14 -14 -39 -16 -17 -28 -33 -25 -35 2 -3 21 1 42 7 28 9 49 26 75 61 39
53 43 86 28 241 -3 39 -9 105 -12 147 -5 57 -11 82 -25 94 -18 17 -20 16 -40
-4 -11 -12 -25 -22 -32 -22 -10 0 -29 -13 -84 -60 -20 -17 -39 -12 -69 18 -36
35 -92 68 -132 77 -31 6 -31 6 -22 -27z m360 -99 c0 -25 -5 -39 -16 -43 -23
-9 -84 4 -84 18 0 6 19 27 42 48 48 40 58 36 58 -23z m-220 -31 c0 -4 -18 -8
-40 -8 -43 0 -50 13 -29 52 11 20 11 19 40 -8 16 -15 29 -31 29 -36z m157 -68
c64 0 64 0 61 -37 -3 -34 -7 -38 -38 -45 -35 -8 -247 -2 -273 8 -8 3 -12 17
-9 39 5 41 18 45 121 39 41 -2 103 -4 138 -4z"/>
<path d="M848 348 c3 -73 7 -86 30 -110 21 -23 35 -28 72 -28 39 0 51 5 83 36
20 20 37 43 37 52 0 9 5 30 12 48 9 27 9 37 -6 58 -22 34 -42 33 -49 -3 -5
-23 -12 -30 -34 -33 -58 -6 -88 3 -105 33 -31 54 -44 37 -40 -53z m162 -40 c0
-7 -9 -24 -19 -38 -18 -23 -21 -23 -48 -10 -45 24 -55 45 -25 53 38 10 92 7
92 -5z"/>
</g>
</svg>
