<svg version="1.0" xmlns="http://www.w3.org/2000/svg"
 width="41.000000pt" height="135.000000pt" viewBox="0 0 41.000000 135.000000"
 preserveAspectRatio="xMidYMid meet">
<metadata>
Created by potrace 1.15, written by Peter Selinger 2001-2017
</metadata>
<g transform="translate(0.000000,135.000000) scale(0.100000,-0.100000)"
fill="#000000" stroke="none">
<path d="M176 1059 c-3 -34 -6 -79 -6 -99 0 -21 -7 -55 -16 -76 -21 -50 -12
-116 21 -156 26 -31 32 -53 15 -63 -31 -19 -55 -121 -39 -161 7 -16 12 -32 11
-36 -1 -4 2 -18 7 -32 7 -18 4 -34 -13 -67 -14 -27 -24 -65 -25 -97 -2 -45 2
-58 28 -90 17 -20 31 -43 31 -50 0 -8 6 -12 12 -10 19 6 67 109 68 144 0 31
-23 89 -41 99 -20 13 -7 65 31 121 23 34 40 71 40 87 0 29 -23 81 -46 104 -12
13 -9 42 7 53 13 9 15 100 1 100 -4 0 -14 -20 -21 -45 -15 -50 -25 -52 -53
-14 -15 20 -17 31 -9 50 5 13 12 33 16 44 6 19 7 19 16 3 11 -20 39 -24 39 -7
0 6 -9 23 -20 39 -16 23 -19 41 -17 108 2 63 -2 85 -14 97 -15 15 -17 11 -23
-46z m82 -434 c13 -29 16 -75 4 -75 -11 0 -34 -58 -27 -70 3 -5 -3 -10 -14
-10 -13 0 -26 12 -36 30 -19 37 -19 42 6 101 24 55 49 64 67 24z m-18 -338 c0
-33 -20 -97 -30 -97 -10 0 -35 51 -43 89 -3 13 1 38 10 55 16 30 16 30 39 2
13 -15 24 -37 24 -49z"/>
<path d="M166 94 c-9 -24 -7 -28 9 -14 17 14 20 30 6 30 -5 0 -12 -7 -15 -16z"/>
</g>
</svg>
