<svg version="1.0" xmlns="http://www.w3.org/2000/svg"
 width="119.000000pt" height="221.000000pt" viewBox="0 0 119.000000 221.000000"
 preserveAspectRatio="xMidYMid meet">
<metadata>
Created by potrace 1.15, written by Peter Selinger 2001-2017
</metadata>
<g transform="translate(0.000000,221.000000) scale(0.100000,-0.100000)"
fill="#000000" stroke="none">
<path d="M197 2104 c-4 -4 -7 -30 -7 -58 0 -50 0 -50 -34 -13 -18 20 -36 37
-40 37 -17 0 -2 -32 34 -73 39 -44 50 -79 30 -92 -7 -4 -8 -11 -2 -18 9 -12
25 -286 24 -414 -1 -60 9 -81 22 -47 3 9 6 106 6 217 0 219 4 247 29 247 9 0
21 4 27 8 9 8 48 21 137 43 23 6 56 15 73 20 16 5 87 10 155 11 106 2 128 0
142 -14 21 -20 45 -77 77 -178 34 -108 60 -164 71 -153 5 5 5 20 0 38 -6 17
-15 50 -22 75 -7 25 -16 50 -19 55 -4 6 -10 27 -13 48 -3 21 -18 62 -32 91
-22 44 -32 55 -64 65 -21 6 -60 11 -87 11 -76 0 -345 -48 -399 -71 -40 -17
-69 -15 -73 5 -2 10 0 21 6 25 16 10 53 82 47 92 -11 17 -25 9 -37 -18 -11
-28 -11 -28 -18 2 -9 40 -24 67 -33 59z"/>
<path d="M595 1819 c-4 -28 -3 -55 2 -60 5 -5 29 -15 54 -22 39 -12 44 -16 42
-42 -3 -34 -35 -70 -85 -96 -37 -19 -52 -49 -25 -49 18 0 67 24 67 33 0 4 4 7
9 7 4 0 11 -33 15 -72 4 -40 9 -94 12 -120 6 -48 6 -48 -109 -48 -64 0 -122
-2 -129 -5 -10 -4 -19 7 -28 35 -11 33 -11 57 0 143 7 56 18 105 23 108 6 4 7
30 3 63 -6 46 -14 63 -42 91 -19 19 -39 35 -45 35 -6 0 -9 -18 -7 -42 3 -36 7
-43 28 -48 33 -8 36 -29 10 -72 -13 -23 -35 -41 -65 -54 -25 -10 -45 -22 -45
-26 0 -18 33 -20 66 -4 19 9 36 16 38 16 2 0 4 -64 4 -141 1 -160 1 -160 72
-158 68 2 70 1 70 -30 0 -25 -4 -30 -37 -36 -72 -13 -91 -29 -95 -82 -7 -81 8
-134 44 -165 18 -16 44 -28 60 -28 26 0 28 -3 28 -40 0 -29 -4 -40 -15 -40
-19 0 -19 -14 0 -34 9 -9 15 -33 15 -63 0 -49 0 -49 -52 -51 -76 -2 -88 3 -88
42 0 35 25 66 52 66 28 0 48 12 48 27 0 15 -10 15 -97 -3 -31 -6 -31 -6 -38
-102 -12 -154 11 -197 111 -207 64 -7 64 -7 64 -45 0 -37 0 -37 -51 -42 -62
-6 -76 -19 -94 -89 -27 -99 22 -219 88 -219 32 0 39 -10 31 -49 -6 -29 -9 -31
-50 -31 -32 0 -44 -4 -44 -14 0 -25 17 -27 134 -16 126 11 149 17 143 34 -2 7
-28 10 -75 7 -72 -3 -72 -3 -72 32 0 33 3 37 38 46 20 6 45 11 54 11 31 0 58
69 58 152 0 49 -4 62 -28 89 -16 18 -44 37 -62 43 -34 11 -34 11 -31 116 1 58
4 106 5 108 2 1 34 5 72 8 38 3 87 10 109 15 42 11 102 -2 91 -19 -6 -10 40
-103 56 -113 9 -6 8 -17 -5 -46 -28 -66 -30 -82 -12 -90 19 -7 33 9 41 49 7
32 24 48 56 53 13 2 38 8 57 14 19 6 38 8 42 5 5 -3 9 -34 9 -69 0 -58 8 -75
35 -75 2 0 3 45 4 100 0 56 5 147 11 203 15 155 16 263 1 281 -21 26 -28 19
-35 -34 -7 -50 -7 -50 -61 -50 -58 0 -65 4 -114 69 -13 17 -29 30 -35 28 -16
-5 -7 -67 14 -97 18 -26 18 -27 -8 -56 -15 -16 -33 -47 -41 -69 -8 -22 -18
-43 -24 -47 -5 -3 -70 -7 -143 -7 -133 -2 -133 -2 -127 106 3 59 8 110 10 113
2 3 19 10 36 16 47 16 77 74 77 150 0 71 -11 86 -79 104 -41 11 -43 13 -37 42
3 17 6 34 6 39 0 5 23 9 51 9 28 0 59 5 70 11 18 9 20 17 14 61 -11 77 -8 254
4 276 20 38 13 71 -24 109 -19 20 -35 41 -35 48 0 15 -34 55 -48 55 -5 0 -13
-23 -17 -51z m-63 -665 c5 -41 -3 -47 -58 -42 -27 2 -40 8 -42 20 -5 25 34 58
67 58 26 0 29 -4 33 -36z m99 15 c30 -30 21 -53 -24 -57 -37 -3 -37 -3 -37 37
0 34 3 41 20 41 11 0 29 -9 41 -21z m6 -127 c-27 -61 -67 -69 -67 -13 0 37 2
40 33 43 44 5 48 1 34 -30z m-103 3 c12 -44 7 -55 -25 -55 -34 0 -56 17 -59
46 -4 31 -2 33 39 31 31 -1 41 -6 45 -22z m560 -233 c-1 -29 -3 -55 -5 -56 -2
-2 -43 -7 -91 -10 -97 -7 -101 -4 -66 47 48 71 59 78 113 75 50 -3 50 -3 49
-56z m-2 -120 c5 -5 8 -29 6 -52 -3 -41 -5 -44 -43 -55 -71 -20 -134 2 -149
53 -3 12 -8 31 -11 41 -5 16 0 20 22 23 48 7 165 0 175 -10z m-564 -66 c3 -48
3 -48 -50 -42 -29 3 -54 6 -55 6 -2 0 -9 11 -18 24 -29 44 -3 65 80 62 40 -1
40 -1 43 -50z m-6 -223 c2 -16 1 -41 -2 -58 -5 -27 -9 -30 -49 -33 -56 -4 -66
6 -51 52 8 26 21 41 43 51 46 20 54 18 59 -12z m81 16 c31 -16 37 -28 37 -71
0 -38 0 -38 -40 -38 -40 0 -40 0 -40 44 0 43 7 76 17 76 2 0 14 -5 26 -11z
m37 -157 c0 -41 -26 -72 -61 -72 -29 0 -30 1 -27 43 3 45 -2 41 81 56 4 0 7
-11 7 -27z m-130 -22 c0 -20 -2 -39 -5 -42 -12 -11 -75 18 -84 40 -6 12 -11
25 -11 27 0 5 37 10 73 11 25 1 27 -3 27 -36z"/>
</g>
</svg>
