<svg version="1.0" xmlns="http://www.w3.org/2000/svg"
 width="119.000000pt" height="155.000000pt" viewBox="0 0 119.000000 155.000000"
 preserveAspectRatio="xMidYMid meet">
<metadata>
Created by potrace 1.15, written by Peter Selinger 2001-2017
</metadata>
<g transform="translate(0.000000,155.000000) scale(0.100000,-0.100000)"
fill="#000000" stroke="none">
<path d="M283 1453 c-9 -3 -13 -27 -13 -69 0 -65 0 -65 -37 -58 -21 4 -60 12
-87 19 -54 14 -76 11 -76 -11 0 -20 68 -47 173 -69 49 -10 52 -34 39 -263 -7
-114 -12 -317 -12 -450 0 -134 -2 -248 -5 -253 -8 -12 7 -269 15 -269 7 0 22
45 39 125 6 28 11 143 11 260 0 116 3 247 7 293 5 72 9 87 33 112 16 17 31 30
35 30 4 0 33 24 66 53 65 58 76 83 32 72 -15 -3 -30 -10 -33 -14 -3 -4 -33
-26 -67 -49 -62 -42 -62 -42 -56 31 6 71 22 107 49 107 7 0 14 3 16 8 2 4 53
33 114 64 123 63 130 63 200 16 23 -15 47 -28 53 -28 6 0 11 -3 11 -7 0 -5 10
-13 23 -19 12 -6 41 -21 64 -33 23 -11 45 -25 48 -31 7 -11 55 -14 55 -4 0 13
-89 92 -150 134 -36 24 -82 57 -103 74 -30 24 -48 30 -80 30 -23 -1 -45 -8
-51 -16 -6 -8 -26 -23 -45 -33 -19 -9 -43 -26 -54 -36 -12 -10 -27 -19 -34
-19 -7 0 -13 -4 -13 -10 0 -5 -8 -10 -18 -10 -10 0 -22 -4 -28 -9 -5 -5 -19
-12 -31 -16 -22 -6 -23 -4 -23 64 0 56 4 75 19 90 26 26 100 67 134 75 21 5
27 12 27 32 0 24 -3 26 -30 21 -27 -6 -95 -34 -144 -59 -17 -9 -18 -7 -14 23
9 57 -25 114 -59 102z"/>
<path d="M707 993 c-4 -3 -7 -19 -7 -34 0 -22 11 -35 57 -68 32 -23 63 -41 69
-41 39 0 114 -71 114 -108 0 -13 -47 -62 -60 -62 -25 0 -81 -82 -67 -96 3 -3
35 11 72 30 101 54 97 57 115 -84 6 -47 15 -109 20 -137 16 -84 28 -153 40
-223 17 -94 17 -95 36 -79 10 8 13 20 8 33 -4 12 -11 64 -15 116 -13 151 -26
260 -39 325 -6 33 -14 87 -16 120 -3 33 -14 78 -25 100 -25 49 -109 117 -166
135 -23 7 -59 28 -79 46 -38 35 -46 39 -57 27z"/>
<path d="M488 856 c-24 -18 -22 -38 6 -69 29 -31 71 -53 119 -62 47 -9 77 -35
77 -68 0 -28 -4 -33 -86 -97 -70 -55 -124 -107 -124 -120 0 -20 49 -9 77 18
15 15 41 34 56 42 16 8 41 27 58 42 16 15 31 28 34 28 3 0 5 -18 5 -39 0 -22
5 -43 10 -46 6 -3 10 -19 10 -35 0 -16 5 -32 10 -35 6 -3 10 -25 10 -49 0 -23
4 -46 9 -52 5 -5 12 -29 15 -54 21 -169 26 -190 47 -190 18 0 7 166 -28 415
-9 61 -18 133 -20 160 -6 61 -38 108 -91 131 -20 9 -48 21 -62 27 -14 6 -41
24 -61 39 -42 32 -47 33 -71 14z"/>
</g>
</svg>
