<svg version="1.0" xmlns="http://www.w3.org/2000/svg"
 width="139.000000pt" height="279.000000pt" viewBox="0 0 139.000000 279.000000"
 preserveAspectRatio="xMidYMid meet">
<metadata>
Created by potrace 1.15, written by Peter Selinger 2001-2017
</metadata>
<g transform="translate(0.000000,279.000000) scale(0.100000,-0.100000)"
fill="#000000" stroke="none">
<path d="M671 2549 c3 -68 -9 -84 -48 -64 -34 18 -52 45 -53 78 0 21 -5 27
-21 27 -14 0 -19 -5 -16 -14 3 -8 9 -30 12 -48 9 -48 27 -67 82 -87 46 -16 48
-19 51 -59 3 -42 3 -42 -115 -37 -65 3 -136 10 -158 15 -22 5 -60 12 -85 15
-25 4 -62 9 -84 12 -45 6 -82 -10 -91 -41 -3 -11 -10 -59 -15 -106 -5 -47 -14
-107 -19 -135 -21 -104 -24 -135 -13 -135 19 0 49 116 68 260 7 53 34 120 48
120 23 0 132 -23 148 -31 10 -5 41 -9 70 -10 75 -1 102 -11 110 -39 36 -132
55 -177 90 -214 47 -49 61 -104 29 -113 -26 -7 -27 -19 -4 -32 23 -13 28 -82
32 -446 1 -159 6 -296 10 -303 15 -27 22 7 21 101 -1 50 -2 209 -1 352 0 143
0 321 0 395 0 74 0 171 0 215 0 44 0 105 0 136 0 49 3 58 25 73 14 9 31 16 38
16 38 1 103 105 76 121 -16 10 -28 2 -28 -18 0 -25 -52 -63 -87 -63 -31 0 -31
1 -28 43 5 56 -2 77 -26 77 -18 0 -20 -6 -18 -61z m-61 -289 c0 -5 -7 -7 -15
-4 -8 4 -12 10 -9 15 6 11 24 2 24 -11z"/>
<path d="M282 2156 c-43 -37 -71 -72 -76 -98 -6 -31 3 -220 11 -228 12 -12 23
33 23 98 0 76 7 85 44 57 48 -37 48 -5 0 42 -36 35 -36 35 -5 67 30 31 40 60
24 69 -5 3 -14 0 -21 -7z"/>
<path d="M382 2133 c-32 -38 -32 -39 -32 -155 0 -138 7 -167 26 -111 8 21 14
53 14 71 0 33 0 33 30 12 17 -12 30 -19 30 -16 0 3 -13 27 -30 53 -35 55 -36
67 -10 111 21 33 27 72 12 72 -5 0 -23 -17 -40 -37z"/>
<path d="M305 1621 c-3 -12 -17 -24 -31 -27 -31 -8 -31 -18 1 -32 45 -21 30
-72 -21 -72 -19 0 -42 -4 -52 -9 -9 -5 -29 -14 -44 -21 -32 -15 -43 -63 -32
-137 13 -94 51 -133 128 -133 36 0 46 -4 51 -20 8 -26 22 -26 30 0 5 16 15 20
46 20 22 0 49 5 62 12 12 6 28 14 36 18 24 11 42 90 37 160 -7 79 -33 110 -95
110 -22 0 -46 3 -55 6 -22 8 -21 60 2 74 14 9 14 12 3 17 -8 3 -25 17 -37 30
-22 24 -22 24 -29 4z m-5 -219 c0 -48 0 -48 -65 -50 -63 -3 -65 -2 -65 21 0
39 46 77 91 77 39 0 39 0 39 -48z m154 26 c14 -19 22 -56 14 -59 -2 0 -31 -3
-66 -5 -63 -5 -63 -5 -58 38 2 24 5 44 5 46 1 1 21 2 45 2 35 0 48 -5 60 -22z
m18 -113 c3 -3 3 -16 1 -29 -5 -27 -59 -56 -102 -56 -25 0 -29 5 -34 33 -2 17
0 38 5 45 10 12 119 18 130 7z m-176 -47 c1 -32 -2 -37 -27 -42 -47 -9 -79 9
-79 43 0 34 11 41 65 38 39 -2 40 -3 41 -39z"/>
<path d="M1224 1466 c-3 -13 -4 -34 -2 -47 3 -21 -2 -24 -30 -27 -39 -4 -81
20 -78 45 0 9 -7 19 -16 21 -12 2 -17 -5 -20 -30 -3 -32 -5 -33 -50 -36 -46
-3 -46 -3 -53 37 -5 32 -11 41 -27 41 -18 0 -20 -5 -15 -41 5 -42 5 -42 -38
-36 -46 7 -59 -1 -49 -27 4 -11 19 -16 45 -16 33 0 39 -3 39 -21 0 -12 -22
-44 -50 -72 -27 -28 -50 -55 -50 -59 0 -11 28 -10 35 2 3 6 13 10 22 10 9 0
23 8 32 18 29 33 48 33 83 1 18 -17 44 -34 57 -40 15 -6 21 -15 17 -25 -3 -9
-6 -26 -6 -38 0 -12 -9 -32 -20 -44 -11 -12 -20 -25 -20 -29 0 -40 -182 -96
-349 -108 -46 -3 -87 -8 -91 -10 -5 -3 -50 -6 -101 -6 -51 0 -103 -5 -116 -10
-12 -4 -23 -5 -24 -1 0 4 -1 35 -2 70 -2 50 -6 67 -21 78 -14 10 -22 11 -27 3
-3 -6 -28 -10 -55 -9 -57 3 -111 -8 -121 -24 -22 -35 -7 -236 18 -236 5 0 9 5
9 11 0 22 32 41 90 51 33 6 62 9 65 6 3 -3 6 -79 6 -168 0 -179 1 -176 -63
-186 -21 -4 -38 -10 -38 -15 0 -5 -7 -9 -15 -9 -20 0 -32 -26 -40 -92 -7 -57
7 -128 26 -128 5 0 9 -6 9 -12 0 -20 66 -60 102 -62 31 -2 33 -3 33 -41 0 -35
-3 -40 -25 -43 -42 -6 -45 -20 -6 -27 20 -4 39 -11 41 -16 8 -12 75 22 75 39
0 8 -9 16 -20 19 -11 3 -23 17 -27 31 -7 30 17 52 59 52 15 0 28 4 28 8 0 5 9
18 20 30 30 32 42 70 45 137 3 69 -14 112 -48 119 -109 23 -102 19 -103 61 -1
22 -5 102 -9 178 -3 75 -3 137 2 138 13 1 163 18 208 23 65 9 146 17 210 22
67 5 179 36 241 66 34 16 47 31 73 84 17 36 29 69 26 73 -5 10 37 41 56 41 6
0 24 9 40 20 24 18 31 19 51 8 13 -7 25 -16 28 -20 3 -3 18 -10 33 -13 24 -6
26 -5 20 11 -4 11 -22 34 -40 53 -24 24 -33 42 -33 67 0 34 0 34 46 34 38 0
45 3 42 18 -2 12 -15 18 -46 20 -37 3 -42 6 -42 27 0 28 -20 75 -31 75 -5 0
-11 -11 -15 -24z m-166 -131 c29 -6 32 -10 32 -44 0 -21 -3 -41 -6 -44 -8 -8
-42 9 -71 36 -28 25 -32 71 -5 63 9 -2 32 -7 50 -11z m162 -9 c0 -28 -13 -47
-41 -61 -42 -22 -49 -19 -49 24 0 42 5 46 57 49 23 2 33 -2 33 -12z m-931
-311 c2 -2 4 -26 4 -52 0 -48 0 -48 -65 -51 -75 -4 -90 10 -61 56 36 57 45 64
83 57 19 -4 37 -8 39 -10z m26 -580 c0 -50 0 -50 -55 -50 -48 0 -55 3 -58 21
-2 12 9 34 25 52 21 24 35 31 58 29 29 -2 30 -4 30 -52z m131 28 c13 -16 24
-41 24 -56 0 -27 -1 -28 -47 -25 -47 3 -48 3 -54 43 -4 22 -4 45 -2 52 9 23
54 14 79 -14z m-127 -127 c7 -8 11 -32 9 -53 -3 -33 -7 -38 -29 -41 -52 -6
-120 84 -76 101 26 11 85 6 96 -7z m151 -8 c0 -12 -20 -50 -35 -65 -7 -6 -25
-13 -41 -15 -27 -3 -29 0 -32 36 -2 21 -1 43 1 50 5 14 107 9 107 -6z"/>
</g>
</svg>
