<svg version="1.0" xmlns="http://www.w3.org/2000/svg"
 width="67.000000pt" height="73.000000pt" viewBox="0 0 67.000000 73.000000"
 preserveAspectRatio="xMidYMid meet">
<metadata>
Created by potrace 1.15, written by Peter Selinger 2001-2017
</metadata>
<g transform="translate(0.000000,73.000000) scale(0.100000,-0.100000)"
fill="#000000" stroke="none">
<path d="M230 630 c0 -36 -3 -40 -24 -40 -16 0 -27 7 -31 20 -8 25 -21 26 -35
1 -14 -27 -13 -44 5 -67 12 -16 16 -17 24 -5 8 12 15 13 34 4 23 -11 24 -14
30 -175 7 -171 13 -218 28 -218 5 0 9 13 9 29 0 47 9 64 27 49 12 -10 18 -9
28 5 12 16 15 14 31 -22 23 -48 50 -56 41 -12 -5 24 -3 28 12 24 14 -3 20 3
25 22 7 26 8 27 21 9 8 -11 15 -26 15 -35 0 -8 9 -34 20 -57 11 -22 20 -48 20
-57 0 -8 7 -15 16 -15 24 0 12 73 -33 193 -20 54 -33 100 -30 103 3 4 20 -4
36 -16 27 -18 31 -19 31 -5 0 19 -37 76 -57 88 -6 4 -20 15 -29 24 -9 10 -49
33 -88 53 -71 35 -71 35 -80 88 -8 40 -14 52 -28 52 -14 0 -18 -8 -18 -40z
m132 -161 c24 -18 27 -26 30 -97 4 -81 -5 -125 -17 -87 -4 11 -11 30 -16 43
-5 13 -9 36 -9 52 0 23 -5 30 -20 30 -16 0 -20 -7 -20 -36 0 -21 -4 -33 -10
-29 -5 3 -10 40 -10 81 0 74 1 75 23 68 12 -3 34 -15 49 -25z"/>
</g>
</svg>
