<svg version="1.0" xmlns="http://www.w3.org/2000/svg"
 width="89.000000pt" height="111.000000pt" viewBox="0 0 89.000000 111.000000"
 preserveAspectRatio="xMidYMid meet">
<metadata>
Created by potrace 1.15, written by Peter Selinger 2001-2017
</metadata>
<g transform="translate(0.000000,111.000000) scale(0.100000,-0.100000)"
fill="#000000" stroke="none">
<path d="M136 983 c-11 -11 -6 -33 12 -51 41 -42 44 -66 43 -334 -1 -141 -5
-279 -10 -305 -12 -68 -14 -263 -3 -263 26 0 35 43 47 225 3 39 9 111 15 160
5 50 12 137 15 194 5 105 14 131 44 131 9 0 36 10 61 22 86 41 225 88 261 88
9 0 51 -34 95 -75 43 -42 91 -82 107 -89 24 -13 27 -13 27 3 0 10 -10 29 -22
43 -13 13 -36 40 -53 60 -16 19 -42 42 -56 51 -14 10 -31 28 -39 41 -15 29
-53 38 -89 21 -51 -26 -102 -43 -196 -70 -33 -9 -77 -22 -97 -30 -30 -10 -38
-10 -42 0 -6 18 14 97 30 116 16 18 19 59 4 59 -5 0 -20 -11 -34 -25 -25 -25
-56 -34 -56 -16 0 13 -56 52 -64 44z"/>
<path d="M313 654 c-3 -9 11 -28 36 -50 55 -49 55 -79 -1 -142 -24 -26 -46
-48 -50 -50 -9 -4 -11 -42 -3 -42 9 0 48 24 69 43 21 18 21 18 26 -114 4 -108
7 -129 17 -117 21 24 29 108 12 119 -9 5 -10 9 -2 9 18 0 31 56 37 163 7 99 7
99 -32 135 -49 46 -100 68 -109 46z"/>
<path d="M493 653 c-4 -11 7 -28 36 -56 43 -39 43 -39 25 -73 -10 -19 -28 -45
-40 -57 -29 -31 -47 -67 -38 -75 4 -4 9 -1 11 6 3 6 10 12 18 12 7 0 30 16 51
35 21 19 39 35 40 35 1 0 0 -74 -2 -165 -3 -165 -3 -165 22 -165 24 0 25 3 24
53 -1 28 2 102 6 162 11 158 10 170 -25 207 -17 18 -31 36 -31 39 0 7 -76 59
-85 59 -3 0 -8 -7 -12 -17z"/>
</g>
</svg>
