<svg version="1.0" xmlns="http://www.w3.org/2000/svg"
 width="99.000000pt" height="141.000000pt" viewBox="0 0 99.000000 141.000000"
 preserveAspectRatio="xMidYMid meet">
<metadata>
Created by potrace 1.15, written by Peter Selinger 2001-2017
</metadata>
<g transform="translate(0.000000,141.000000) scale(0.100000,-0.100000)"
fill="#000000" stroke="none">
<path d="M350 1280 c-14 -5 -52 -16 -85 -25 -64 -18 -135 -74 -135 -107 0 -10
-4 -18 -9 -18 -16 0 -23 -54 -46 -380 -8 -123 -10 -448 -2 -456 13 -14 28 19
24 54 -1 17 0 32 4 32 4 0 7 36 7 79 0 44 5 88 11 99 6 12 11 81 11 164 1 112
4 147 16 163 13 18 30 21 167 26 150 5 219 1 327 -21 30 -6 70 -14 88 -17 18
-3 35 -9 38 -14 3 -5 17 -9 32 -9 39 0 89 -50 96 -97 3 -21 8 -159 11 -308 6
-262 14 -337 36 -351 23 -14 27 23 21 185 -7 201 -7 242 2 399 6 123 6 123
-36 162 -46 42 -86 60 -188 86 -110 27 -344 46 -445 34 -16 -1 -55 0 -85 3
-52 5 -55 7 -58 34 -3 34 10 43 98 63 30 7 65 16 78 21 13 5 32 9 43 9 30 0
79 28 79 45 0 17 -35 20 -89 6 -20 -6 -65 -17 -100 -26 -36 -10 -71 -19 -78
-22 -24 -9 -14 33 14 61 37 38 106 67 178 76 77 10 95 18 95 41 0 16 -7 19
-47 18 -27 -1 -59 -5 -73 -9z"/>
<path d="M256 754 c-25 -64 21 -123 107 -138 31 -6 40 -13 53 -44 13 -32 14
-44 3 -87 -6 -27 -18 -60 -26 -72 -18 -27 -77 -63 -104 -63 -27 0 -25 -36 3
-43 12 -3 41 3 65 14 24 11 48 17 53 14 5 -3 16 -31 25 -63 8 -31 20 -65 25
-74 6 -10 10 -25 10 -35 0 -38 36 -113 54 -113 12 0 5 79 -10 121 -14 41 -19
61 -43 173 -6 27 -5 57 5 93 16 64 18 121 4 158 -12 32 -34 55 -52 55 -7 0
-24 9 -38 20 -14 11 -31 20 -37 20 -7 0 -20 12 -30 28 -35 54 -56 65 -67 36z"/>
<path d="M535 719 c-11 -17 15 -66 41 -78 14 -6 38 -11 54 -11 92 0 68 -152
-38 -246 -21 -18 -32 -35 -28 -42 9 -15 52 -16 61 -2 10 16 43 11 49 -7 2 -10
8 -34 11 -53 17 -90 60 -190 82 -190 15 0 15 9 -7 105 -33 153 -33 153 -20
228 13 78 8 163 -13 205 -13 28 -61 60 -90 61 -11 1 -21 10 -24 21 -4 15 -14
20 -39 20 -18 0 -36 -5 -39 -11z"/>
</g>
</svg>
