<svg version="1.0" xmlns="http://www.w3.org/2000/svg"
 width="123.000000pt" height="207.000000pt" viewBox="0 0 123.000000 207.000000"
 preserveAspectRatio="xMidYMid meet">
<metadata>
Created by potrace 1.15, written by Peter Selinger 2001-2017
</metadata>
<g transform="translate(0.000000,207.000000) scale(0.100000,-0.100000)"
fill="#000000" stroke="none">
<path d="M238 1938 c-3 -18 -6 -62 -7 -98 -1 -35 -3 -66 -4 -67 -2 -1 -16 11
-33 26 -34 32 -73 55 -81 47 -4 -4 30 -60 47 -76 3 -3 18 -20 34 -37 28 -31
28 -31 33 -600 2 -312 6 -575 9 -583 4 -11 9 -9 19 10 11 19 14 70 15 205 0
169 1 182 20 195 11 8 20 18 20 22 0 3 13 28 29 55 16 26 32 58 36 71 11 38
-20 26 -56 -23 -19 -24 -37 -45 -41 -45 -15 0 -9 239 6 268 20 38 111 123 171
158 50 29 50 29 240 29 166 -1 200 -4 270 -24 123 -34 137 -52 156 -194 10
-77 10 -127 0 -254 -7 -87 -11 -200 -10 -251 2 -71 -1 -96 -12 -107 -12 -13
-51 -16 -205 -16 -189 -1 -189 -1 -234 -39 -45 -37 -110 -146 -110 -183 0 -9
-4 -17 -8 -17 -5 0 -14 -19 -21 -42 -7 -24 -17 -53 -22 -66 -11 -29 -12 -79
-1 -66 5 5 19 43 32 84 20 67 108 219 132 228 4 2 8 10 8 17 0 7 25 21 55 30
47 15 78 17 204 11 82 -3 157 -9 165 -12 24 -9 27 -33 31 -220 3 -163 7 -196
20 -182 3 3 8 138 10 299 3 162 7 398 10 524 5 279 -8 376 -58 433 -11 12 -29
22 -39 22 -10 0 -18 4 -18 8 0 4 -19 13 -42 20 -90 25 -179 34 -333 35 -209 2
-235 -6 -328 -95 -39 -38 -75 -68 -81 -68 -14 0 -9 282 6 329 5 18 34 56 64
84 30 28 54 54 54 58 0 5 -24 -5 -54 -21 -30 -17 -57 -30 -60 -30 -3 0 -6 41
-6 90 0 70 -3 90 -14 90 -7 0 -16 -14 -18 -32z"/>
<path d="M640 1300 c0 -6 19 -20 43 -31 51 -25 74 -77 57 -126 -19 -51 -53
-112 -71 -129 -17 -15 -26 -44 -14 -44 2 0 15 11 29 25 14 14 30 25 36 25 6 0
10 -51 10 -144 0 -80 4 -147 8 -150 21 -13 27 21 28 161 1 83 4 189 8 236 8
101 0 127 -51 161 -38 26 -83 35 -83 16z"/>
<path d="M450 1256 c0 -7 11 -21 25 -30 14 -9 32 -33 40 -54 23 -54 11 -102
-41 -167 -24 -29 -44 -59 -44 -65 0 -20 35 -6 38 15 2 11 14 28 28 38 24 18
24 18 26 -45 1 -35 1 -72 1 -83 -5 -117 7 -246 20 -215 16 37 27 186 27 352 0
179 0 182 -26 215 -14 18 -32 33 -40 33 -7 0 -14 5 -14 10 0 6 -9 10 -20 10
-11 0 -20 -6 -20 -14z"/>
<path d="M731 356 c-7 -8 -11 -20 -10 -28 2 -7 0 -30 -4 -50 -11 -54 10 -158
36 -180 21 -19 29 -21 102 -33 22 -4 52 -9 68 -12 46 -9 30 12 -20 27 -27 7
-66 23 -88 36 -40 22 -40 22 -40 111 0 88 0 88 55 85 59 -4 83 -19 106 -64 8
-16 19 -28 24 -28 14 0 12 36 -2 62 -32 55 -48 65 -111 72 -34 4 -71 9 -83 12
-11 3 -26 -1 -33 -10z"/>
</g>
</svg>
