<svg version="1.0" xmlns="http://www.w3.org/2000/svg"
 width="63.000000pt" height="117.000000pt" viewBox="0 0 63.000000 117.000000"
 preserveAspectRatio="xMidYMid meet">
<metadata>
Created by potrace 1.15, written by Peter Selinger 2001-2017
</metadata>
<g transform="translate(0.000000,117.000000) scale(0.100000,-0.100000)"
fill="#000000" stroke="none">
<path d="M130 1040 c0 -5 5 -10 11 -10 5 0 7 5 4 10 -3 6 -8 10 -11 10 -2 0
-4 -4 -4 -10z"/>
<path d="M497 856 c-36 -55 -67 -71 -67 -35 0 21 -27 55 -36 46 -3 -3 -7 -31
-10 -63 -4 -50 -9 -64 -35 -88 -36 -33 -175 -126 -189 -126 -6 0 -10 -4 -10
-9 0 -5 -9 -13 -20 -16 -25 -8 -39 -33 -44 -82 -8 -78 -26 -180 -41 -228 -19
-63 -19 -85 -1 -85 24 0 64 104 81 212 23 144 23 145 42 152 10 3 24 9 31 12
20 9 15 -50 -7 -77 -33 -42 -45 -100 -32 -158 6 -29 11 -99 11 -156 0 -138 22
-142 50 -8 11 53 10 74 -5 148 -17 89 -15 127 4 58 6 -21 11 -44 11 -51 0 -28
25 -4 30 29 6 34 6 33 18 -19 7 -29 12 -65 12 -80 0 -41 20 -103 31 -97 12 8
12 222 -1 230 -12 7 -13 65 -2 65 5 0 14 -18 21 -41 15 -51 35 -46 39 10 3 45
22 47 22 3 0 -43 11 -72 27 -72 12 0 14 29 11 190 -4 190 -4 190 49 242 51 51
60 69 47 102 -9 22 -19 20 -37 -8z m-127 -242 c0 -21 -4 -33 -10 -29 -5 3 -10
19 -10 36 0 16 5 29 10 29 6 0 10 -16 10 -36z m-60 -49 c0 -43 -22 -95 -40
-95 -5 0 -10 26 -12 58 -2 42 1 60 12 69 29 24 40 15 40 -32z m79 -90 c0 -26
-2 -27 -9 -10 -5 11 -9 31 -9 45 -1 20 1 22 9 10 5 -8 9 -28 9 -45z"/>
</g>
</svg>
