<svg version="1.0" xmlns="http://www.w3.org/2000/svg"
 width="123.000000pt" height="229.000000pt" viewBox="0 0 123.000000 229.000000"
 preserveAspectRatio="xMidYMid meet">
<metadata>
Created by potrace 1.15, written by Peter Selinger 2001-2017
</metadata>
<g transform="translate(0.000000,229.000000) scale(0.100000,-0.100000)"
fill="#000000" stroke="none">
<path d="M245 2098 c-3 -29 -7 -75 -9 -103 -3 -55 -23 -68 -41 -27 -5 12 -13
22 -17 22 -5 0 -8 7 -8 15 0 8 -4 23 -9 33 -5 9 -14 29 -21 44 -21 45 -33 21
-26 -50 9 -86 28 -124 86 -173 47 -40 47 -40 54 -272 11 -408 23 -681 31 -699
8 -20 45 -24 46 -5 0 6 2 20 4 30 11 56 15 480 6 542 -10 70 -10 70 42 117 39
35 49 49 41 58 -9 9 -22 9 -50 1 -54 -15 -54 -15 -54 24 0 28 4 35 20 35 11 0
28 4 38 9 9 5 49 19 87 31 39 12 78 26 87 31 10 5 25 9 33 9 8 0 34 8 58 19
79 34 98 41 118 41 11 0 39 9 61 20 23 11 42 19 43 17 1 -3 21 -90 36 -159 26
-122 70 -209 139 -278 51 -52 127 -110 143 -110 19 0 4 40 -20 56 -41 26 -89
81 -112 128 -35 73 -61 135 -61 150 0 7 -13 54 -30 104 -31 93 -38 156 -20
167 17 11 11 25 -12 25 -22 0 -89 -20 -98 -30 -3 -3 -23 -11 -45 -18 -22 -8
-62 -22 -90 -31 -27 -10 -84 -29 -125 -41 -41 -12 -82 -26 -91 -30 -9 -5 -44
-14 -77 -21 -74 -15 -92 -5 -92 50 0 34 3 38 38 50 20 7 47 22 58 33 44 40 60
189 22 196 -15 3 -18 -4 -18 -33 0 -56 -45 -125 -81 -125 -21 0 -39 48 -39
106 0 47 -14 94 -29 94 -5 0 -12 -24 -16 -52z"/>
<path d="M630 1671 c0 -6 5 -13 10 -16 6 -3 10 -18 10 -32 0 -25 61 -93 84
-93 5 0 24 -11 43 -26 27 -20 33 -32 33 -61 0 -46 -28 -104 -80 -167 -22 -26
-40 -52 -40 -57 0 -17 31 -9 58 16 15 14 34 24 42 23 15 -3 18 -14 39 -177 10
-80 30 -131 51 -131 13 0 13 71 1 141 -30 172 -33 226 -16 280 10 29 15 65 12
85 -7 41 -59 118 -95 141 -15 10 -29 20 -32 24 -6 7 -106 59 -115 59 -3 0 -5
-4 -5 -9z"/>
<path d="M474 1576 c-3 -7 5 -36 17 -62 20 -43 34 -59 72 -85 31 -22 -46 -120
-125 -160 -21 -11 -38 -23 -38 -28 0 -20 42 -17 86 5 58 29 60 29 67 2 3 -13
12 -50 21 -83 8 -33 16 -78 16 -100 0 -22 7 -49 16 -60 28 -37 35 0 27 135 -7
120 -8 168 -2 264 3 47 -21 90 -74 135 -16 14 -35 31 -42 38 -17 17 -34 17
-41 -1z"/>
<path d="M664 853 c-9 -36 -12 -38 -64 -49 -40 -7 -56 -15 -58 -29 -4 -16 1
-17 52 -12 56 6 56 6 56 -32 0 -36 -3 -39 -52 -60 -29 -13 -68 -30 -85 -37
-50 -23 -62 -56 -64 -180 -3 -146 11 -171 107 -194 46 -11 53 -16 58 -43 3
-17 5 -31 4 -32 -2 -2 -30 -5 -63 -9 -70 -7 -90 -21 -51 -36 15 -5 35 -10 45
-10 10 0 33 -3 50 -6 26 -5 31 -11 31 -34 0 -35 25 -59 43 -41 7 6 17 26 23
44 9 27 18 34 52 41 40 9 59 35 27 37 -8 1 -19 3 -25 4 -5 1 -17 3 -25 4 -10
1 -15 12 -15 36 0 35 0 35 44 35 25 0 48 5 51 10 3 6 13 10 21 10 22 0 44 25
55 62 13 46 11 183 -2 229 -18 57 -65 104 -119 115 -44 9 -45 10 -48 50 -3 41
-2 42 35 48 69 13 75 16 62 32 -8 10 -26 14 -52 12 -37 -3 -41 -1 -52 31 -16
47 -30 49 -41 4z m-14 -258 c0 -61 -16 -82 -70 -88 -66 -8 -90 0 -90 29 0 30
31 62 67 69 16 4 35 10 43 15 33 20 50 11 50 -25z m139 11 c12 -13 24 -40 28
-60 6 -37 6 -37 -53 -34 -59 3 -59 3 -62 37 -2 19 -1 44 2 57 9 32 55 32 85 0z
m25 -142 c20 -8 22 -91 3 -115 -17 -23 -52 -39 -81 -39 -26 0 -26 1 -26 74 0
69 2 75 23 79 36 7 64 7 81 1z m-164 -84 c0 -69 0 -69 -42 -75 -24 -4 -55 -2
-70 4 -24 9 -28 17 -30 51 -1 22 -2 48 -2 58 -1 13 12 19 64 28 36 6 68 9 73
7 4 -2 7 -35 7 -73z"/>
<path d="M67 863 c-12 -11 -8 -23 8 -23 8 0 15 7 15 15 0 16 -12 20 -23 8z"/>
</g>
</svg>
