<svg version="1.0" xmlns="http://www.w3.org/2000/svg"
 width="55.000000pt" height="85.000000pt" viewBox="0 0 55.000000 85.000000"
 preserveAspectRatio="xMidYMid meet">
<metadata>
Created by potrace 1.15, written by Peter Selinger 2001-2017
</metadata>
<g transform="translate(0.000000,85.000000) scale(0.100000,-0.100000)"
fill="#000000" stroke="none">
<path d="M130 681 c0 -5 6 -16 13 -23 7 -7 22 -27 32 -45 16 -27 17 -38 8 -70
-26 -90 -33 -123 -33 -162 0 -53 14 -46 29 16 26 101 39 138 47 134 5 -2 26
-27 47 -55 37 -49 37 -51 17 -60 -14 -6 -19 -14 -14 -25 11 -22 9 -60 -4 -100
-10 -29 -9 -34 7 -38 15 -4 19 -18 23 -74 3 -38 8 -73 12 -77 14 -13 26 24 26
80 0 31 4 60 10 63 6 4 6 12 0 23 -8 16 -30 132 -25 132 2 0 33 -48 70 -106
41 -64 71 -102 77 -96 11 11 -13 76 -54 145 -15 26 -28 50 -28 54 0 5 -56 78
-77 101 -7 7 -13 17 -13 21 0 5 -13 24 -30 42 -27 31 -29 39 -24 82 6 39 4 47
-10 47 -9 0 -16 -3 -16 -7 0 -5 -4 -14 -9 -22 -7 -11 -13 -10 -32 8 -24 22
-49 28 -49 12z"/>
<path d="M205 420 c-3 -5 -3 -20 1 -34 4 -18 2 -28 -9 -32 -9 -3 -23 -17 -32
-31 -13 -19 -14 -27 -4 -39 7 -8 17 -13 24 -11 7 3 11 -17 10 -67 0 -39 4 -73
10 -76 11 -6 33 103 42 202 4 53 2 71 -10 83 -18 18 -24 19 -32 5z"/>
</g>
</svg>
