<svg version="1.0" xmlns="http://www.w3.org/2000/svg"
 width="77.000000pt" height="121.000000pt" viewBox="0 0 77.000000 121.000000"
 preserveAspectRatio="xMidYMid meet">
<metadata>
Created by potrace 1.15, written by Peter Selinger 2001-2017
</metadata>
<g transform="translate(0.000000,121.000000) scale(0.100000,-0.100000)"
fill="#000000" stroke="none">
<path d="M215 1068 c-3 -13 -7 -50 -10 -83 -12 -146 -17 -175 -31 -175 -19 0
-35 44 -39 109 -4 60 -7 66 -31 57 -15 -6 -16 -17 -11 -82 8 -87 17 -108 55
-126 24 -12 28 -21 36 -79 7 -56 5 -82 -14 -160 -12 -52 -26 -98 -31 -103 -5
-6 -9 -16 -9 -23 0 -8 -9 -33 -20 -55 -11 -23 -20 -50 -20 -59 0 -10 -5 -21
-10 -24 -13 -8 -50 -84 -50 -102 0 -7 4 -13 9 -13 11 0 51 53 51 68 0 6 3 12
8 14 21 9 102 208 117 291 8 39 29 50 38 18 8 -33 -1 -210 -14 -249 -6 -20
-20 -54 -30 -75 -11 -22 -19 -44 -19 -51 0 -6 -13 -38 -29 -71 -16 -33 -27
-63 -25 -67 16 -26 79 59 104 139 6 21 15 47 19 58 21 50 32 130 33 235 2 120
1 124 -56 213 -22 34 -10 74 25 81 16 3 39 17 51 31 12 14 32 25 46 25 13 0
34 8 47 18 12 9 31 23 41 29 117 77 103 73 143 50 20 -12 38 -25 39 -29 2 -4
9 -8 16 -8 6 0 28 -14 49 -31 21 -17 44 -28 52 -25 33 12 9 43 -65 83 -122 66
-130 73 -130 126 0 40 -3 47 -19 47 -22 0 -31 -20 -29 -65 1 -43 -10 -73 -32
-80 -10 -3 -35 -19 -55 -35 -56 -45 -68 -41 -61 20 5 41 3 52 -10 57 -21 8
-34 -13 -34 -55 0 -52 -32 -102 -65 -102 -15 0 -16 9 -11 68 3 37 10 96 15
131 5 36 8 68 5 73 -10 16 -34 7 -39 -14z"/>
<path d="M438 803 c-32 -8 -50 -66 -54 -175 -4 -115 -19 -341 -31 -464 -10
-97 -7 -114 16 -114 20 0 25 33 36 215 3 50 8 124 12 165 3 41 7 91 8 110 3
55 4 62 14 56 19 -12 23 -112 19 -509 0 -55 12 -76 31 -53 9 11 11 84 9 288
-3 274 -3 274 -31 302 -49 49 -60 72 -46 98 7 12 18 29 26 36 10 11 20 55 11
51 -2 -1 -11 -3 -20 -6z"/>
<path d="M583 788 c-4 -7 -8 -80 -9 -163 -2 -82 -6 -213 -9 -290 -11 -209 -8
-286 9 -303 27 -27 33 18 34 262 1 259 6 316 28 316 22 0 34 -43 28 -102 -3
-29 -5 -102 -3 -163 1 -60 2 -132 1 -160 -2 -96 9 -175 24 -175 7 0 16 10 19
23 10 45 -1 562 -12 582 -6 11 -28 35 -47 53 -37 35 -47 77 -25 99 13 13 4 33
-16 33 -8 0 -17 -6 -22 -12z"/>
</g>
</svg>
