<svg version="1.0" xmlns="http://www.w3.org/2000/svg"
 width="67.000000pt" height="119.000000pt" viewBox="0 0 67.000000 119.000000"
 preserveAspectRatio="xMidYMid meet">
<metadata>
Created by potrace 1.15, written by Peter Selinger 2001-2017
</metadata>
<g transform="translate(0.000000,119.000000) scale(0.100000,-0.100000)"
fill="#000000" stroke="none">
<path d="M140 1004 c-59 -22 -82 -39 -94 -69 -28 -72 -52 -735 -26 -735 5 0
10 -16 10 -37 0 -94 129 -163 307 -163 115 0 213 42 250 106 33 59 42 136 48
424 3 146 8 277 11 292 7 30 -2 106 -14 125 -14 23 -191 53 -337 58 -77 2
-147 2 -155 -1z m381 -55 c10 -5 27 -9 38 -9 36 0 43 -33 42 -198 -1 -203 -9
-418 -16 -451 -3 -14 -7 -47 -10 -74 -5 -51 -15 -75 -48 -113 -26 -30 -44 -30
-68 0 -10 13 -39 37 -64 53 -51 32 -61 49 -42 72 7 9 19 29 27 45 22 44 38 43
87 -8 44 -44 83 -60 83 -33 -1 29 -116 127 -149 127 -12 0 -22 -9 -26 -22 -11
-36 -54 -88 -68 -82 -14 5 -37 59 -37 86 0 9 -7 21 -15 28 -12 10 -18 10 -31
-1 -24 -20 -114 -158 -114 -175 0 -27 38 -15 52 16 7 17 16 30 20 30 5 0 8 6
8 13 1 21 34 57 46 49 6 -4 20 -25 32 -47 11 -22 36 -58 56 -79 19 -22 37 -42
38 -45 2 -3 17 -13 33 -21 21 -11 31 -24 33 -44 4 -29 3 -29 -40 -22 -24 5
-68 10 -98 12 -81 6 -163 24 -181 40 -15 14 -24 37 -48 130 -6 23 -11 120 -11
217 0 118 -4 178 -11 183 -8 5 -8 8 0 14 7 4 14 24 16 46 20 207 36 259 83
270 15 3 32 7 37 10 19 7 329 -7 346 -17z"/>
<path d="M326 913 c-3 -21 -6 -50 -6 -64 0 -37 -22 -54 -52 -39 -34 18 -58 51
-58 83 0 20 -5 27 -20 27 -24 0 -27 -32 -6 -82 15 -34 35 -49 91 -66 18 -5 31
-16 33 -28 2 -16 -7 -22 -45 -32 -127 -34 -173 -52 -173 -69 0 -7 8 -13 17
-13 18 0 161 45 200 63 32 14 80 4 167 -37 80 -38 111 -39 79 -4 -20 22 -37
31 -127 62 -33 12 -61 26 -63 31 -1 6 20 21 47 34 56 26 65 37 75 99 6 35 4
42 -9 42 -9 0 -18 -6 -20 -12 -2 -7 -9 -32 -15 -54 -9 -32 -17 -43 -38 -48
-37 -10 -45 4 -47 75 -1 70 -20 91 -30 32z"/>
<path d="M222 613 c-21 -8 -42 -60 -42 -105 0 -73 26 -88 147 -88 84 0 89 1
121 31 27 26 32 37 32 78 0 80 -17 91 -141 90 -57 0 -110 -3 -117 -6z m176
-29 c40 -8 61 -53 42 -89 -17 -31 -32 -36 -121 -37 -64 -2 -73 1 -90 23 -10
13 -19 29 -19 36 0 26 24 62 44 66 35 7 111 7 144 1z"/>
</g>
</svg>
