<svg version="1.0" xmlns="http://www.w3.org/2000/svg"
 width="70.000000pt" height="79.000000pt" viewBox="0 0 70.000000 79.000000"
 preserveAspectRatio="xMidYMid meet">
<metadata>
Created by potrace 1.15, written by Peter Selinger 2001-2017
</metadata>
<g transform="translate(0.000000,79.000000) scale(0.100000,-0.100000)"
fill="#000000" stroke="none">
<path d="M110 561 c-45 -19 -45 -19 -48 -256 -3 -300 -9 -287 121 -283 78 3
92 6 95 21 3 13 -3 17 -27 17 -27 0 -30 3 -36 43 -11 69 -3 111 20 115 38 7
45 22 45 91 0 76 -6 89 -46 100 -28 7 -29 10 -29 62 0 51 1 54 27 57 35 4 58
30 37 43 -23 15 -111 9 -159 -10z m55 -87 c7 -52 -6 -77 -39 -72 -17 2 -22 11
-24 51 -2 38 1 52 14 62 28 20 41 8 49 -41z m71 -138 c13 -54 3 -70 -51 -78
-27 -4 -56 -6 -62 -3 -14 5 -18 86 -6 98 3 4 30 7 59 7 48 0 54 -2 60 -24z
m-66 -195 c0 -62 -2 -70 -21 -76 -30 -10 -39 9 -39 83 0 62 0 62 30 62 30 0
30 0 30 -69z"/>
<path d="M380 561 c-45 -9 -60 -18 -60 -38 0 -11 6 -14 23 -9 88 24 147 27
198 12 29 -8 56 -13 61 -10 16 10 7 31 -17 42 -28 13 -147 14 -205 3z"/>
<path d="M405 413 c-71 -5 -82 -10 -64 -28 11 -11 33 -12 118 -5 109 10 117
12 106 29 -6 11 -51 12 -160 4z"/>
<path d="M377 278 c-31 -11 -40 -36 -35 -99 2 -31 7 -44 18 -44 11 0 16 15 20
54 3 32 10 56 18 59 10 3 12 -17 10 -90 -3 -93 -3 -93 -33 -90 -16 1 -37 -2
-45 -8 -13 -8 -13 -11 0 -23 12 -10 46 -12 148 -9 117 4 133 6 130 21 -2 11
-16 17 -49 19 -45 3 -47 4 -53 40 -3 20 -6 63 -6 95 0 50 2 57 20 57 27 0 40
-29 40 -90 0 -37 4 -50 13 -48 16 6 22 135 6 154 -14 17 -158 18 -202 2z m96
-110 c3 -51 3 -95 1 -97 -2 -2 -10 -1 -19 2 -21 9 -23 187 -1 187 10 0 15 -24
19 -92z"/>
</g>
</svg>
