<svg version="1.0" xmlns="http://www.w3.org/2000/svg"
 width="49.000000pt" height="73.000000pt" viewBox="0 0 49.000000 73.000000"
 preserveAspectRatio="xMidYMid meet">
<metadata>
Created by potrace 1.15, written by Peter Selinger 2001-2017
</metadata>
<g transform="translate(0.000000,73.000000) scale(0.100000,-0.100000)"
fill="#000000" stroke="none">
<path d="M197 564 c-3 -3 2 -20 12 -37 17 -32 40 -100 42 -127 1 -8 1 -43 0
-76 -1 -51 -4 -62 -18 -60 -13 1 -20 -16 -34 -79 -9 -44 -20 -95 -24 -112 -8
-36 7 -46 24 -15 8 15 41 157 41 179 1 19 21 -28 46 -104 15 -46 32 -83 39
-83 14 0 48 68 40 80 -3 5 -12 7 -20 4 -15 -6 -23 8 -46 84 -7 23 -10 44 -7
47 3 3 19 2 37 -1 30 -6 31 -8 25 -43 -3 -20 -8 -44 -11 -53 -7 -26 22 -22 34
5 28 61 37 127 25 173 -9 32 -10 56 -3 78 18 57 32 118 29 120 -38 22 -213 37
-231 20z m171 -81 c-3 -46 -5 -48 -34 -51 -34 -3 -57 21 -66 71 -5 27 -5 27
49 27 54 0 54 0 51 -47z m-8 -111 c21 -78 12 -93 -44 -72 -22 8 -25 15 -23 47
3 47 10 58 36 60 16 1 23 -7 31 -35z"/>
<path d="M156 475 c-4 -22 -12 -52 -18 -67 -5 -14 -8 -37 -6 -50 3 -19 8 -14
32 32 26 52 27 57 13 90 -14 35 -14 35 -21 -5z"/>
<path d="M175 330 c-7 -11 -26 -75 -45 -148 -12 -46 7 -50 26 -5 27 62 32 76
38 108 5 35 -7 65 -19 45z"/>
</g>
</svg>
