<svg version="1.0" xmlns="http://www.w3.org/2000/svg"
 width="51.000000pt" height="87.000000pt" viewBox="0 0 51.000000 87.000000"
 preserveAspectRatio="xMidYMid meet">
<metadata>
Created by potrace 1.15, written by Peter Selinger 2001-2017
</metadata>
<g transform="translate(0.000000,87.000000) scale(0.100000,-0.100000)"
fill="#000000" stroke="none">
<path d="M66 771 c-7 -10 3 -41 13 -41 3 0 17 -20 30 -45 18 -33 22 -53 17
-82 -3 -21 -9 -56 -12 -79 -4 -29 0 -63 17 -115 13 -41 27 -75 31 -77 4 -2 8
-12 8 -23 0 -11 4 -27 9 -37 5 -9 20 -44 35 -77 38 -89 57 -87 87 12 29 96 30
215 5 323 -10 41 -15 90 -12 110 3 19 8 52 12 72 6 36 5 37 -31 44 -20 3 -57
4 -82 1 -28 -3 -59 1 -79 9 -39 17 -41 17 -48 5z m184 -75 c-1 -35 -14 -56
-36 -56 -45 0 -61 67 -16 72 34 4 52 -1 52 -16z m-15 -106 c16 0 26 -71 11
-75 -6 -2 -26 -6 -43 -9 -30 -5 -33 -3 -33 19 0 41 19 78 36 71 9 -3 22 -6 29
-6z m43 -192 c3 -69 -12 -148 -28 -148 -4 0 -12 14 -15 32 -4 18 -11 39 -16
48 -5 8 -15 35 -23 60 -8 25 -18 53 -21 63 -7 16 -2 18 46 15 54 -3 54 -3 57
-70z"/>
<path d="M380 673 c0 -27 23 -82 35 -87 23 -8 20 57 -3 77 -20 18 -32 22 -32
10z"/>
<path d="M370 473 c0 -41 30 -90 48 -79 17 10 -19 116 -40 116 -4 0 -8 -17 -8
-37z"/>
<path d="M388 295 c-1 -25 -2 -55 -2 -67 -1 -34 19 -31 32 5 15 43 15 80 0 95
-21 21 -28 13 -30 -33z"/>
<path d="M365 109 c-18 -34 -10 -49 28 -49 15 0 18 7 15 37 -4 47 -22 53 -43
12z"/>
</g>
</svg>
