<svg version="1.0" xmlns="http://www.w3.org/2000/svg"
 width="61.000000pt" height="79.000000pt" viewBox="0 0 61.000000 79.000000"
 preserveAspectRatio="xMidYMid meet">
<metadata>
Created by potrace 1.15, written by Peter Selinger 2001-2017
</metadata>
<g transform="translate(0.000000,79.000000) scale(0.100000,-0.100000)"
fill="#000000" stroke="none">
<path d="M383 676 c-117 -8 -133 -11 -133 -27 0 -9 4 -19 8 -21 14 -5 70 -131
78 -173 4 -22 8 -74 9 -116 1 -46 8 -90 17 -110 36 -76 48 -113 48 -145 0 -27
4 -34 20 -34 15 0 20 7 20 25 0 23 16 63 31 75 3 3 21 43 39 90 27 73 31 93
26 140 -17 147 -18 168 -7 174 6 4 11 18 11 32 0 13 4 24 9 24 9 0 25 49 18
56 -14 15 -79 18 -194 10z m147 -31 c0 -3 -9 -25 -20 -47 -11 -23 -20 -50 -20
-60 0 -15 -8 -18 -52 -18 -62 0 -70 4 -92 47 -26 51 -22 61 32 68 26 4 52 8
57 10 17 6 95 5 95 0z m-32 -193 c16 -21 15 -118 -2 -173 -21 -69 -50 -129
-61 -129 -22 0 -53 141 -53 232 1 86 1 87 27 90 41 5 75 -3 89 -20z"/>
<path d="M195 587 c-2 -6 -17 -54 -34 -104 -33 -97 -37 -123 -22 -123 15 0 51
56 51 78 0 12 4 23 9 26 4 3 11 22 14 43 3 21 9 48 12 59 7 23 -22 44 -30 21z"/>
<path d="M242 425 c-7 -14 -12 -32 -12 -40 0 -7 -3 -15 -8 -17 -7 -3 -72 -188
-72 -207 0 -39 49 48 90 159 7 19 17 40 21 45 7 10 12 48 10 73 -2 20 -17 14
-29 -13z"/>
<path d="M285 270 c-8 -14 -35 -137 -35 -162 0 -34 16 -17 47 47 23 48 29 73
24 92 -8 29 -25 40 -36 23z"/>
</g>
</svg>
