<svg version="1.0" xmlns="http://www.w3.org/2000/svg"
 width="67.000000pt" height="139.000000pt" viewBox="0 0 67.000000 139.000000"
 preserveAspectRatio="xMidYMid meet">
<metadata>
Created by potrace 1.15, written by Peter Selinger 2001-2017
</metadata>
<g transform="translate(0.000000,139.000000) scale(0.100000,-0.100000)"
fill="#000000" stroke="none">
<path d="M556 1311 c-18 -28 -6 -321 12 -321 4 0 18 28 30 61 21 53 23 70 17
144 -5 62 -12 89 -27 104 -21 24 -24 25 -32 12z"/>
<path d="M315 1212 c-16 -2 -53 -14 -82 -28 -29 -14 -68 -28 -88 -31 -64 -10
-72 -47 -12 -58 29 -6 35 -12 46 -51 19 -65 8 -81 -51 -75 -21 3 -23 -21 -9
-148 6 -47 15 -138 21 -201 7 -63 19 -140 27 -170 8 -30 19 -75 24 -100 12
-59 39 -143 50 -155 5 -5 9 -18 9 -30 0 -11 9 -31 20 -45 21 -28 24 -24 35 45
3 22 14 69 24 105 26 90 49 196 56 255 4 28 11 66 15 85 5 19 12 58 15 87 3
29 10 74 16 100 43 198 42 209 -21 222 -29 6 -36 12 -38 36 -2 16 1 46 7 67 8
27 8 43 0 62 -13 29 -23 33 -64 28z m-5 -136 c0 -57 -3 -65 -21 -71 -29 -9
-37 2 -41 60 -3 44 0 50 22 62 14 7 28 13 33 13 4 0 7 -29 7 -64z m100 -130
c0 -27 -31 -171 -39 -179 -14 -14 -56 -4 -54 13 3 31 45 165 54 177 12 14 39
6 39 -11z m-120 -42 c0 -21 -4 -33 -10 -29 -5 3 -10 19 -10 36 0 16 5 29 10
29 6 0 10 -16 10 -36z m-74 -19 c7 -19 14 -45 14 -59 0 -14 5 -28 10 -31 6 -3
10 -18 10 -33 0 -22 -6 -29 -35 -38 -42 -13 -43 -11 -45 101 -2 99 -3 95 16
95 8 0 22 -16 30 -35z m154 -191 c0 -3 -4 -24 -9 -47 -6 -23 -13 -59 -16 -79
-6 -38 -6 -38 -53 -38 -26 0 -53 -4 -61 -9 -24 -15 -40 18 -41 81 0 55 1 58
28 64 15 3 47 12 72 19 50 14 80 18 80 9z m-40 -211 c-1 -21 -30 -183 -38
-216 -12 -47 -22 -59 -22 -26 0 13 -7 47 -16 74 -25 79 -32 112 -25 123 6 9
78 49 94 51 4 1 7 -2 7 -6z"/>
<path d="M577 843 c-4 -7 -11 -263 -8 -310 1 -7 5 -13 10 -13 22 0 36 299 15
320 -7 7 -14 8 -17 3z"/>
<path d="M563 413 c-16 -6 -18 -268 -3 -308 12 -31 30 -24 30 11 0 14 5 34 11
45 17 32 13 178 -5 222 -9 20 -17 37 -19 36 -1 0 -8 -3 -14 -6z"/>
</g>
</svg>
