<svg version="1.0" xmlns="http://www.w3.org/2000/svg"
 width="61.000000pt" height="83.000000pt" viewBox="0 0 61.000000 83.000000"
 preserveAspectRatio="xMidYMid meet">
<metadata>
Created by potrace 1.15, written by Peter Selinger 2001-2017
</metadata>
<g transform="translate(0.000000,83.000000) scale(0.100000,-0.100000)"
fill="#000000" stroke="none">
<path d="M140 675 c-6 -14 -10 -31 -10 -36 0 -5 -4 -9 -10 -9 -5 0 -10 -6 -10
-13 0 -8 -11 -36 -25 -63 -14 -27 -25 -55 -25 -62 0 -22 22 -8 39 24 9 16 29
50 44 75 27 47 35 93 17 104 -6 3 -15 -6 -20 -20z"/>
<path d="M435 624 c-6 -2 -44 -7 -85 -12 -60 -5 -75 -11 -78 -24 -3 -14 3 -18
28 -18 35 0 52 -29 46 -79 -5 -41 -11 -48 -56 -55 -53 -8 -51 -24 3 -28 42 -3
42 -3 41 -132 -1 -70 -5 -141 -8 -158 -7 -33 11 -44 84 -49 45 -4 45 -4 51 56
4 33 9 110 12 170 4 61 6 111 7 112 0 1 10 3 22 5 31 4 36 36 6 40 -21 3 -23
8 -23 68 0 60 2 65 23 68 20 3 32 31 15 33 -34 5 -80 6 -88 3z m3 -111 c-3
-54 -5 -58 -28 -58 -23 0 -25 4 -28 58 -3 57 -3 57 28 57 31 0 31 0 28 -57z
m-9 -205 c0 -143 -8 -182 -37 -186 -23 -4 -23 -4 -18 128 5 130 13 160 42 160
11 0 14 -22 13 -102z"/>
<path d="M145 448 c-4 -13 -18 -47 -31 -76 -23 -50 -32 -122 -16 -122 17 0 72
143 72 188 0 37 -15 43 -25 10z"/>
<path d="M196 309 c-3 -13 -7 -37 -9 -54 -3 -16 -10 -59 -16 -94 -8 -43 -9
-67 -2 -74 11 -11 14 -5 26 48 20 91 28 176 17 187 -8 8 -12 5 -16 -13z"/>
</g>
</svg>
