<svg version="1.0" xmlns="http://www.w3.org/2000/svg"
 width="51.000000pt" height="93.000000pt" viewBox="0 0 51.000000 93.000000"
 preserveAspectRatio="xMidYMid meet">
<metadata>
Created by potrace 1.15, written by Peter Selinger 2001-2017
</metadata>
<g transform="translate(0.000000,93.000000) scale(0.100000,-0.100000)"
fill="#000000" stroke="none">
<path d="M212 765 c-54 -57 -58 -69 -66 -195 -6 -97 -5 -103 9 -78 8 15 25 30
36 33 12 4 42 25 66 48 24 22 46 38 48 35 3 -3 0 -19 -6 -36 -6 -17 -9 -43 -7
-59 4 -28 4 -28 17 2 7 17 15 58 18 93 3 34 9 62 12 62 12 0 31 -81 31 -135 0
-30 4 -55 9 -55 15 0 21 31 19 105 -1 39 1 76 5 82 9 14 -114 143 -135 143 -7
0 -32 -20 -56 -45z m98 -46 c0 -5 -18 -9 -40 -9 -46 0 -48 5 -18 38 23 23 23
23 40 2 10 -12 18 -26 18 -31z m-33 -55 c2 -6 -6 -21 -18 -35 -12 -13 -33 -39
-46 -56 -36 -46 -47 -42 -38 15 13 94 13 93 58 90 22 -2 42 -8 44 -14z"/>
<path d="M170 415 c0 -24 41 -125 51 -125 5 0 9 -30 9 -67 0 -38 3 -78 6 -90
6 -20 7 -20 27 -5 22 18 55 51 74 75 6 8 15 32 18 53 7 37 6 38 -9 19 -8 -11
-16 -25 -16 -31 0 -21 -28 -23 -45 -4 -14 16 -16 31 -10 94 7 83 -9 117 -21
41 -9 -63 -25 -56 -54 23 -13 33 -30 43 -30 17z m115 -236 c-10 -15 -25 -10
-19 6 4 8 10 12 15 9 5 -3 7 -10 4 -15z"/>
</g>
</svg>
