<svg version="1.0" xmlns="http://www.w3.org/2000/svg"
 width="91.000000pt" height="143.000000pt" viewBox="0 0 91.000000 143.000000"
 preserveAspectRatio="xMidYMid meet">
<metadata>
Created by potrace 1.15, written by Peter Selinger 2001-2017
</metadata>
<g transform="translate(0.000000,143.000000) scale(0.100000,-0.100000)"
fill="#000000" stroke="none">
<path d="M427 1313 c-4 -3 -7 -19 -7 -33 0 -40 -20 -51 -120 -67 -19 -3 -42
-10 -50 -17 -8 -6 -33 -20 -55 -31 -52 -25 -93 -67 -100 -102 -3 -15 -10 -44
-15 -64 -21 -78 -8 -275 26 -395 8 -28 12 -58 8 -67 -3 -9 -3 -21 1 -28 4 -6
9 -28 10 -48 1 -20 10 -53 19 -74 17 -38 45 -50 47 -19 1 9 2 37 4 61 3 44 -1
75 -29 258 -8 56 -16 141 -17 190 -2 83 0 93 30 149 36 64 51 77 96 81 56 5
70 8 102 26 22 11 55 17 101 17 84 0 254 -33 279 -54 10 -9 26 -21 36 -29 16
-11 19 -34 22 -212 5 -250 11 -305 34 -329 33 -33 44 -11 36 68 -9 83 -10 189
-2 301 3 44 2 94 -3 110 -5 17 -12 43 -15 59 -7 36 -66 94 -102 102 -16 3 -41
9 -58 14 -16 4 -59 14 -95 21 -80 15 -106 31 -131 81 -18 36 -37 47 -52 31z"/>
<path d="M465 1065 c-5 -2 -36 -6 -68 -10 -54 -6 -57 -8 -51 -28 9 -31 9 -31
67 -37 52 -5 52 -5 53 -48 1 -24 -7 -74 -16 -110 -12 -46 -15 -71 -8 -79 18
-23 36 -14 65 32 27 44 46 55 58 35 3 -5 15 -10 25 -10 29 0 49 -36 43 -79 -4
-28 0 -42 13 -56 14 -14 19 -15 23 -4 2 8 7 16 10 19 3 3 12 20 18 39 21 57 0
107 -53 131 -49 23 -84 63 -84 96 0 30 8 34 77 35 32 1 61 7 65 13 14 20 8 45
-11 51 -21 6 -211 15 -226 10z"/>
<path d="M353 693 c-17 -43 -7 -198 17 -278 27 -90 43 -121 79 -151 25 -21 25
-24 13 -60 -22 -62 -41 -100 -57 -114 -16 -13 -19 -37 -9 -64 16 -41 56 -2
107 102 31 67 65 102 97 102 4 0 19 -27 34 -59 29 -65 75 -121 100 -121 12 0
16 10 16 39 0 22 -5 43 -10 46 -6 4 -22 28 -35 55 -24 48 -25 50 -8 85 9 19
20 35 25 35 4 0 8 11 8 24 0 14 4 27 9 30 17 11 41 199 28 221 -10 19 -38 19
-85 -1 -67 -28 -155 -18 -200 24 -7 6 -22 17 -33 22 -10 6 -19 16 -19 24 0 14
-45 56 -60 56 -6 0 -14 -8 -17 -17z m97 -152 c0 -28 128 -37 228 -16 23 5 32
4 32 -6 0 -23 -24 -79 -35 -80 -5 0 -23 -2 -40 -3 -31 -3 -193 18 -198 25 -9
11 -25 83 -21 90 5 9 34 1 34 -10z m220 -178 c0 -4 -14 -22 -32 -40 -43 -44
-92 -46 -137 -4 -17 16 -31 34 -31 40 0 7 34 11 100 11 55 0 100 -3 100 -7z"/>
</g>
</svg>
