<svg version="1.0" xmlns="http://www.w3.org/2000/svg"
 width="59.000000pt" height="89.000000pt" viewBox="0 0 59.000000 89.000000"
 preserveAspectRatio="xMidYMid meet">
<metadata>
Created by potrace 1.15, written by Peter Selinger 2001-2017
</metadata>
<g transform="translate(0.000000,89.000000) scale(0.100000,-0.100000)"
fill="#000000" stroke="none">
<path d="M225 647 c-75 -55 -96 -107 -94 -227 1 -50 5 -70 15 -70 21 0 26 16
29 99 3 87 9 103 53 144 25 24 36 28 61 22 34 -7 101 -69 101 -93 0 -8 4 -29
10 -46 5 -17 12 -52 15 -78 6 -49 19 -63 27 -30 8 31 -11 171 -29 209 -22 45
-87 92 -128 92 -16 0 -43 -10 -60 -22z"/>
<path d="M245 570 c-3 -5 -3 -15 0 -21 4 -6 -2 -13 -14 -16 -27 -7 -27 -20 -1
-28 24 -8 26 -38 5 -88 -8 -20 -15 -43 -15 -52 0 -28 26 -15 40 20 19 48 30
34 30 -36 0 -59 12 -79 24 -36 3 12 6 52 6 90 0 65 1 67 25 67 18 0 25 5 25
20 0 11 -4 20 -10 20 -5 0 -10 11 -10 25 0 18 -7 28 -26 35 -33 13 -71 13 -79
0z"/>
<path d="M153 259 c19 -96 26 -120 41 -144 9 -14 20 -25 25 -25 13 0 31 49 31
85 0 27 4 35 18 35 23 0 82 48 82 66 0 19 -9 18 -49 -7 -33 -20 -33 -20 -48 1
-12 17 -18 19 -29 9 -9 -7 -12 -20 -8 -32 4 -13 2 -18 -7 -15 -7 2 -16 15 -19
29 -3 13 -14 26 -24 27 -16 4 -18 -1 -13 -29z"/>
</g>
</svg>
