<svg version="1.0" xmlns="http://www.w3.org/2000/svg"
 width="65.000000pt" height="107.000000pt" viewBox="0 0 65.000000 107.000000"
 preserveAspectRatio="xMidYMid meet">
<metadata>
Created by potrace 1.15, written by Peter Selinger 2001-2017
</metadata>
<g transform="translate(0.000000,107.000000) scale(0.100000,-0.100000)"
fill="#000000" stroke="none">
<path d="M270 963 c-1 -10 -39 -58 -86 -108 -46 -49 -87 -100 -91 -113 -3 -13
-2 -40 3 -60 5 -20 9 -129 10 -242 2 -288 2 -292 17 -287 8 2 12 31 12 93 1
98 13 293 21 337 3 15 2 27 -3 27 -4 0 -9 22 -9 50 -2 49 -2 49 35 31 20 -10
53 -24 74 -30 37 -13 37 -13 37 -105 0 -152 33 -329 81 -433 10 -24 19 -47 19
-53 0 -5 5 -10 10 -10 15 0 12 49 -6 100 -27 77 -42 142 -49 220 -6 75 -6 75
27 40 19 -19 45 -51 58 -70 13 -19 32 -44 42 -54 10 -11 18 -23 18 -28 0 -4 5
-8 10 -8 6 0 10 11 10 25 0 14 -4 25 -10 25 -5 0 -10 5 -10 11 0 14 -58 99
-90 129 -57 56 -70 80 -70 137 0 54 0 54 79 48 75 -7 98 -1 83 21 -9 12 -93
34 -132 34 -16 0 -32 5 -35 10 -3 6 -19 10 -35 10 -25 0 -79 10 -138 26 -20 5
-1 34 74 113 48 52 69 68 84 64 11 -3 20 -9 20 -13 0 -4 14 -13 30 -20 17 -7
30 -15 30 -19 0 -4 13 -14 28 -23 16 -10 51 -38 78 -62 49 -45 49 -46 56 -123
4 -43 11 -183 17 -312 5 -134 14 -238 20 -244 19 -19 23 38 18 235 -4 147 -21
405 -26 414 -16 25 -109 102 -206 169 -16 11 -39 30 -52 43 -29 26 -53 29 -53
5z"/>
</g>
</svg>
