<svg version="1.0" xmlns="http://www.w3.org/2000/svg"
 width="64.000000pt" height="82.000000pt" viewBox="0 0 64.000000 82.000000"
 preserveAspectRatio="xMidYMid meet">
<metadata>
Created by potrace 1.15, written by Peter Selinger 2001-2017
</metadata>
<g transform="translate(0.000000,82.000000) scale(0.100000,-0.100000)"
fill="#000000" stroke="none">
<path d="M313 732 c-6 -4 -13 -18 -14 -32 -4 -24 -5 -25 -99 -25 -129 0 -123
18 -124 -344 -1 -248 1 -286 14 -286 13 0 16 44 25 292 7 192 14 296 21 303 8
8 68 11 194 8 168 -3 183 -5 197 -23 12 -17 14 -62 12 -285 -2 -146 0 -270 4
-277 4 -7 14 -10 22 -6 13 4 15 48 15 285 0 279 0 279 -25 303 -20 20 -34 25
-78 25 -83 0 -117 10 -127 35 -11 28 -22 36 -37 27z"/>
<path d="M177 613 c-12 -11 -8 -88 5 -101 8 -8 56 -12 150 -12 116 0 138 2
138 15 0 12 -16 15 -80 15 -79 0 -80 0 -80 25 0 25 1 25 86 25 64 0 85 3 82
13 -6 16 -174 22 -193 7 -8 -6 -15 -24 -17 -38 -2 -19 -9 -27 -22 -27 -21 0
-32 16 -41 58 -5 26 -15 34 -28 20z"/>
<path d="M210 447 c-24 -12 -25 -16 -28 -130 -3 -116 -3 -116 25 -123 49 -10
53 -13 53 -34 0 -22 -34 -40 -76 -40 -27 0 -33 -24 -8 -34 19 -7 80 2 106 15
10 6 18 24 20 46 4 48 32 57 50 16 21 -49 39 -63 80 -63 32 0 39 3 36 18 -2 9
-14 19 -28 20 -26 4 -50 19 -50 32 0 5 17 17 38 27 37 18 37 18 37 128 0 107
-1 110 -25 122 -33 17 -197 17 -230 0z m221 -34 c24 -24 -3 -33 -107 -33 -83
0 -104 3 -104 14 0 8 12 19 28 25 35 13 168 9 183 -6z m9 -88 c0 -25 0 -25
-110 -25 -110 0 -110 0 -110 25 0 25 0 25 110 25 110 0 110 0 110 -25z m-2
-83 c3 -23 3 -23 -105 -20 -91 3 -108 6 -111 20 -4 21 20 26 128 24 80 -1 85
-2 88 -24z"/>
</g>
</svg>
