<svg version="1.0" xmlns="http://www.w3.org/2000/svg"
 width="65.000000pt" height="85.000000pt" viewBox="0 0 65.000000 85.000000"
 preserveAspectRatio="xMidYMid meet">
<metadata>
Created by potrace 1.15, written by Peter Selinger 2001-2017
</metadata>
<g transform="translate(0.000000,85.000000) scale(0.100000,-0.100000)"
fill="#000000" stroke="none">
<path d="M274 717 c-23 -27 -119 -107 -127 -107 -12 0 -87 -77 -87 -90 0 -14
23 -13 39 3 11 10 13 -12 8 -130 -6 -140 0 -170 21 -115 18 43 22 70 31 185 9
128 19 144 62 101 27 -27 29 -33 19 -59 -19 -50 -13 -251 10 -334 29 -103 68
-141 56 -53 -4 26 -9 72 -12 102 -5 51 -4 54 10 35 70 -90 107 -86 45 5 -54
81 -62 102 -60 159 3 76 13 91 61 91 22 0 40 3 40 8 0 4 -34 25 -76 47 -42 22
-78 44 -81 48 -5 9 16 27 55 49 21 11 32 8 90 -22 127 -65 145 -78 139 -108
-8 -37 13 -284 25 -299 22 -27 28 4 28 141 0 79 5 157 11 175 12 34 0 61 -27
61 -7 0 -68 27 -135 60 -67 33 -124 60 -128 60 -3 -1 -11 -6 -17 -13z"/>
</g>
</svg>
