<svg version="1.0" xmlns="http://www.w3.org/2000/svg"
 width="61.000000pt" height="81.000000pt" viewBox="0 0 61.000000 81.000000"
 preserveAspectRatio="xMidYMid meet">
<metadata>
Created by potrace 1.15, written by Peter Selinger 2001-2017
</metadata>
<g transform="translate(0.000000,81.000000) scale(0.100000,-0.100000)"
fill="#000000" stroke="none">
<path d="M325 710 c-10 -11 -22 -17 -26 -14 -5 3 -9 -1 -9 -8 0 -7 -25 -31
-55 -52 -79 -57 -82 -62 -89 -151 -12 -159 -18 -316 -12 -332 9 -23 28 -2 41
45 8 28 16 38 35 40 24 4 87 45 102 66 4 6 9 8 12 5 7 -7 -16 -59 -26 -59 -5
0 -8 -7 -8 -15 0 -8 -13 -24 -30 -36 -23 -17 -27 -26 -19 -36 19 -22 35 -15
81 31 54 53 65 89 74 229 7 107 7 107 36 107 27 0 48 23 34 37 -7 7 -224 5
-237 -2 -25 -16 29 -55 76 -55 23 0 25 -3 25 -53 0 -37 -5 -59 -18 -73 -10
-10 -28 -35 -42 -54 -13 -19 -36 -45 -50 -57 -25 -23 -25 -23 -28 125 -3 147
-3 147 37 182 50 44 124 90 144 90 8 0 38 -21 67 -47 52 -46 52 -46 46 -212
-4 -91 -9 -183 -12 -204 -3 -21 -2 -37 4 -37 22 0 46 88 53 200 4 63 11 136
15 162 7 48 7 48 -47 99 -30 28 -71 58 -91 67 -21 9 -38 20 -38 24 0 15 -27 8
-45 -12z"/>
</g>
</svg>
