<svg version="1.0" xmlns="http://www.w3.org/2000/svg"
 width="66.000000pt" height="86.000000pt" viewBox="0 0 66.000000 86.000000"
 preserveAspectRatio="xMidYMid meet">
<metadata>
Created by potrace 1.15, written by Peter Selinger 2001-2017
</metadata>
<g transform="translate(0.000000,86.000000) scale(0.100000,-0.100000)"
fill="#000000" stroke="none">
<path d="M323 664 c-13 -20 -14 -32 -6 -53 10 -27 10 -27 -43 -23 -76 6 -102
-12 -106 -75 -3 -46 -4 -48 -33 -48 -30 0 -30 0 -30 75 0 65 -2 75 -19 78 -28
6 -36 -15 -36 -100 0 -105 2 -108 64 -108 51 0 51 0 51 -73 0 -71 0 -72 -28
-75 -23 -3 -29 2 -38 27 -6 17 -15 31 -20 31 -20 0 -29 -47 -29 -160 0 -120 0
-121 23 -118 21 3 22 8 25 92 3 85 3 88 25 82 12 -3 27 -6 32 -6 6 0 9 -33 7
-86 -4 -88 6 -118 34 -107 12 4 14 48 14 258 0 197 3 255 13 264 8 6 80 12
188 13 166 3 174 4 174 23 0 18 -6 20 -65 18 -36 -1 -82 -5 -102 -8 -38 -5
-38 -5 -38 44 0 35 -4 51 -16 55 -22 9 -22 9 -41 -20z"/>
<path d="M395 498 c-2 -7 -6 -71 -7 -143 -3 -112 -6 -134 -24 -160 -78 -114
-86 -128 -72 -136 7 -5 18 -9 25 -9 12 0 67 84 85 129 10 26 10 26 45 -14 19
-22 41 -54 49 -72 7 -17 18 -34 24 -38 13 -8 50 13 50 29 0 7 -32 47 -72 89
-71 77 -71 77 -69 189 1 62 -1 121 -4 131 -8 20 -24 23 -30 5z"/>
<path d="M526 394 c-5 -64 -4 -100 3 -107 23 -23 34 12 35 105 1 77 -2 93 -15
96 -14 2 -17 -12 -23 -94z"/>
<path d="M276 438 c-8 -30 -8 -122 0 -142 9 -24 33 -19 39 7 3 12 5 52 3 87
-2 50 -7 65 -19 68 -10 2 -19 -6 -23 -20z"/>
</g>
</svg>
