<svg version="1.0" xmlns="http://www.w3.org/2000/svg"
 width="75.000000pt" height="94.000000pt" viewBox="0 0 75.000000 94.000000"
 preserveAspectRatio="xMidYMid meet">
<metadata>
Created by potrace 1.15, written by Peter Selinger 2001-2017
</metadata>
<g transform="translate(0.000000,94.000000) scale(0.100000,-0.100000)"
fill="#000000" stroke="none">
<path d="M497 823 c-4 -3 -7 -21 -7 -40 0 -27 -6 -37 -37 -57 -84 -53 -103
-96 -103 -236 0 -128 6 -151 47 -200 26 -30 44 -42 75 -46 35 -6 39 -9 33 -28
-4 -12 -10 -40 -12 -64 -4 -36 -1 -48 18 -68 24 -25 49 -32 49 -13 0 7 -10 27
-21 46 -21 33 -21 37 -6 68 9 18 29 48 45 66 86 99 114 203 88 327 -18 89 -37
117 -96 147 -42 21 -46 27 -43 52 5 29 -17 60 -30 46z m64 -146 c48 -32 62
-69 67 -169 5 -106 -18 -179 -43 -138 -8 13 -80 13 -128 -1 -58 -16 -34 -29
54 -29 43 0 79 -3 79 -7 0 -5 -13 -23 -29 -42 -22 -27 -33 -33 -52 -28 -42 11
-96 69 -109 117 -13 49 -16 141 -5 188 5 26 11 30 52 36 68 9 123 25 123 36 0
13 -91 13 -124 0 -36 -13 -33 3 7 34 40 32 64 33 108 3z"/>
<path d="M460 572 c-31 -25 -51 -88 -38 -118 24 -53 125 -57 165 -7 32 39 32
106 1 127 -31 22 -100 20 -128 -2z m97 -24 c21 -26 23 -65 5 -80 -41 -36 -112
-23 -112 21 0 47 82 91 107 59z"/>
<path d="M497 533 c-13 -12 -7 -41 9 -47 19 -7 44 10 44 29 0 19 -39 32 -53
18z"/>
<path d="M301 735 c-17 -20 -31 -44 -31 -53 0 -26 -20 -42 -51 -42 -23 0 -28
5 -33 35 -7 35 -49 75 -80 75 -24 0 -19 -18 14 -57 36 -41 37 -50 5 -93 -41
-56 -29 -117 38 -191 64 -70 62 -65 34 -108 -51 -76 -55 -159 -11 -242 27 -53
50 -26 32 38 -14 52 -5 141 21 188 34 64 28 84 -46 168 -43 48 -45 96 -7 126
34 27 68 27 94 1 16 -16 18 -25 10 -40 -6 -11 -20 -20 -31 -20 -18 0 -20 4
-15 25 5 20 3 25 -13 25 -35 0 -42 -49 -11 -80 27 -27 46 -25 81 9 35 36 39
84 8 117 -20 21 -20 21 2 68 13 25 31 48 41 52 10 3 18 12 18 20 0 26 -38 14
-69 -21z"/>
</g>
</svg>
