<svg version="1.0" xmlns="http://www.w3.org/2000/svg"
 width="123.000000pt" height="189.000000pt" viewBox="0 0 123.000000 189.000000"
 preserveAspectRatio="xMidYMid meet">
<metadata>
Created by potrace 1.15, written by Peter Selinger 2001-2017
</metadata>
<g transform="translate(0.000000,189.000000) scale(0.100000,-0.100000)"
fill="#000000" stroke="none">
<path d="M571 1629 c0 -8 28 -32 62 -55 113 -74 130 -120 129 -349 0 -174 5
-199 55 -251 47 -49 52 -63 37 -100 -23 -55 -105 -165 -138 -184 -52 -31 -66
-51 -66 -93 0 -38 31 -152 53 -192 6 -12 11 -84 11 -175 1 -96 5 -162 12 -174
16 -27 44 -14 44 22 0 15 5 33 11 39 32 32 8 288 -34 373 -26 51 -22 104 8
124 13 9 34 16 47 16 74 0 208 36 242 65 22 19 26 31 26 73 0 28 -4 54 -10 57
-5 3 -10 14 -10 24 0 9 -9 27 -20 39 -29 31 -25 50 15 67 20 8 42 20 49 27 8
7 28 24 46 37 56 43 67 87 38 147 -14 29 -127 64 -210 64 -26 0 -59 5 -73 12
-23 10 -25 16 -25 80 0 134 -51 217 -171 278 -68 35 -129 48 -128 29z m521
-492 c23 -36 -8 -79 -73 -101 -80 -28 -133 -15 -152 37 -10 27 2 63 24 73 28
13 192 5 201 -9z m-122 -334 c0 -42 -3 -50 -27 -60 -32 -16 -73 -17 -73 -3 0
22 66 110 83 110 14 0 17 -9 17 -47z"/>
<path d="M250 1315 c-25 -7 -62 -18 -83 -25 -76 -23 -131 -122 -84 -153 24
-16 13 -50 -14 -42 -26 8 -25 -13 3 -65 35 -65 83 -91 195 -104 56 -7 203 15
243 36 82 42 105 85 104 186 -1 70 -3 76 -35 108 -67 67 -214 93 -329 59z
m258 -88 c12 -11 22 -24 22 -29 0 -12 -37 -24 -97 -31 -53 -6 -53 -6 -53 28 0
48 24 68 69 60 20 -4 46 -16 59 -28z m-204 -13 c3 -9 6 -26 6 -38 0 -20 -7
-23 -69 -32 -82 -11 -91 -9 -91 19 0 49 137 94 154 51z m202 -114 c32 0 30
-11 -11 -55 -32 -35 -37 -37 -67 -29 -27 8 -34 15 -36 41 -3 29 0 33 30 42 18
5 39 7 46 5 8 -2 25 -4 38 -4z m-182 -42 c10 -38 7 -56 -11 -62 -19 -8 -103
14 -103 26 0 4 -6 8 -14 8 -18 0 -39 27 -31 40 3 5 39 10 79 10 68 0 74 -2 80
-22z"/>
</g>
</svg>
