<svg version="1.0" xmlns="http://www.w3.org/2000/svg"
 width="70.000000pt" height="94.000000pt" viewBox="0 0 70.000000 94.000000"
 preserveAspectRatio="xMidYMid meet">
<metadata>
Created by potrace 1.15, written by Peter Selinger 2001-2017
</metadata>
<g transform="translate(0.000000,94.000000) scale(0.100000,-0.100000)"
fill="#000000" stroke="none">
<path d="M183 703 c-10 -3 -11 -28 -6 -95 6 -85 5 -90 -13 -86 -15 2 -21 17
-29 65 -18 108 -45 94 -45 -22 0 -80 9 -95 57 -95 20 0 33 -5 33 -13 0 -18
-21 -37 -39 -37 -9 0 -25 -7 -35 -15 -19 -14 -19 -20 -8 -117 7 -61 8 -120 3
-145 -10 -52 10 -60 33 -14 12 22 14 50 9 128 -4 73 -3 102 6 108 7 4 15 4 18
1 3 -3 8 -72 12 -153 5 -122 9 -148 21 -148 12 0 16 25 20 147 3 80 9 150 13
154 18 18 26 -25 20 -102 -4 -65 -2 -91 12 -128 31 -81 40 -59 40 101 0 141
-1 149 -23 171 -13 12 -30 22 -38 22 -7 0 -14 9 -14 20 0 15 7 20 24 20 44 0
57 25 54 104 -2 58 -6 71 -20 74 -15 3 -18 -4 -18 -45 0 -62 -9 -93 -26 -93
-19 0 -27 42 -21 111 4 45 1 63 -10 74 -8 8 -15 15 -16 14 -1 0 -8 -3 -14 -6z"/>
<path d="M444 695 c-4 -8 1 -26 10 -40 22 -33 21 -35 -13 -35 -33 0 -100 -38
-101 -57 0 -18 21 -16 48 2 12 9 45 19 73 22 52 6 52 6 45 -30 -7 -40 1 -62
39 -103 14 -15 22 -31 19 -35 -11 -18 -106 -60 -123 -54 -10 3 -26 14 -36 25
-17 19 -17 22 1 62 10 24 25 48 32 54 18 14 11 58 -10 62 -11 2 -18 -6 -23
-27 -3 -16 -17 -42 -31 -58 -31 -37 -32 -86 -1 -117 13 -13 30 -25 38 -28 12
-5 12 -9 1 -28 -17 -29 -30 -240 -14 -240 13 0 19 19 27 95 14 127 43 168 79
113 21 -32 46 -134 46 -185 0 -55 25 -59 34 -6 9 60 7 95 -10 152 -12 41 -23
57 -50 73 -35 21 -35 21 18 39 49 18 88 48 88 71 0 5 -23 32 -51 60 -36 36
-47 54 -40 61 8 8 21 8 44 -1 43 -15 47 -15 47 3 0 8 -10 20 -22 26 -13 7 -26
18 -30 24 -4 7 -23 16 -43 19 -42 8 -50 19 -33 46 11 18 10 23 -6 36 -25 18
-45 18 -52 -1z"/>
</g>
</svg>
