<svg version="1.0" xmlns="http://www.w3.org/2000/svg"
 width="70.000000pt" height="91.000000pt" viewBox="0 0 70.000000 91.000000"
 preserveAspectRatio="xMidYMid meet">
<metadata>
Created by potrace 1.15, written by Peter Selinger 2001-2017
</metadata>
<g transform="translate(0.000000,91.000000) scale(0.100000,-0.100000)"
fill="#000000" stroke="none">
<path d="M499 706 c-16 -34 -2 -65 45 -101 25 -19 44 -25 67 -23 50 5 45 21
-13 43 -49 19 -53 23 -58 60 -6 46 -25 56 -41 21z"/>
<path d="M390 696 c0 -17 -14 -39 -42 -66 -31 -29 -39 -43 -31 -51 17 -17 50
-1 79 36 31 41 38 98 12 103 -14 3 -18 -3 -18 -22z"/>
<path d="M262 687 c-28 -29 -28 -71 -1 -138 20 -52 23 -114 5 -114 -5 0 -14
14 -20 32 -14 41 -40 67 -59 60 -8 -3 -27 -33 -42 -66 -24 -50 -31 -59 -43
-49 -24 21 -9 90 32 148 20 27 36 59 36 69 0 46 -79 90 -88 49 -2 -13 3 -18
18 -18 43 0 34 -46 -20 -105 -15 -16 -31 -40 -34 -52 -11 -35 13 -104 45 -132
20 -18 29 -35 29 -56 0 -16 8 -57 18 -90 15 -47 17 -75 11 -130 -7 -71 -1 -92
24 -82 17 6 26 37 36 127 4 36 20 90 34 121 15 31 27 62 27 71 0 8 14 36 31
63 26 42 30 56 25 91 -3 24 -15 58 -26 76 -25 41 -25 64 -1 105 29 47 2 62
-37 20z m-52 -236 c25 -47 2 -201 -29 -201 -22 0 -28 118 -10 183 11 41 23 47
39 18z"/>
<path d="M431 606 c-7 -13 -10 -29 -7 -35 4 -6 -9 -26 -28 -45 -20 -18 -36
-42 -36 -53 0 -41 21 -81 46 -87 35 -9 30 -33 -10 -46 -18 -6 -41 -19 -50 -29
-24 -27 -45 -107 -52 -203 -6 -73 -4 -88 8 -88 28 0 38 24 38 93 0 149 33 197
134 197 74 0 77 -23 6 -63 -45 -26 -50 -31 -50 -64 0 -63 88 -174 126 -159 24
9 16 29 -32 72 -39 36 -45 47 -42 75 2 27 10 37 43 53 53 28 69 76 36 109 -13
13 -34 22 -53 22 -40 0 -48 22 -11 31 87 21 95 117 14 159 -22 11 -31 23 -33
47 -4 41 -29 48 -47 14z m73 -115 c12 -13 15 -27 11 -41 -6 -18 -13 -21 -53
-18 -39 3 -48 7 -50 25 -2 13 5 27 20 37 30 21 51 20 72 -3z"/>
</g>
</svg>
