<svg version="1.0" xmlns="http://www.w3.org/2000/svg"
 width="61.000000pt" height="99.000000pt" viewBox="0 0 61.000000 99.000000"
 preserveAspectRatio="xMidYMid meet">
<metadata>
Created by potrace 1.15, written by Peter Selinger 2001-2017
</metadata>
<g transform="translate(0.000000,99.000000) scale(0.100000,-0.100000)"
fill="#000000" stroke="none">
<path d="M155 783 c-3 -27 -10 -77 -15 -113 -31 -213 -49 -535 -31 -569 6 -10
27 -29 47 -42 32 -19 54 -23 171 -27 130 -4 141 -3 202 27 26 13 42 81 37 151
-9 111 -38 311 -57 390 -6 25 -13 74 -16 110 -5 62 -31 120 -54 120 -5 0 -9
-25 -9 -55 0 -63 6 -60 -132 -69 -87 -6 -87 -6 -93 31 -14 82 -17 93 -30 93
-9 0 -16 -17 -20 -47z m307 -203 c41 -193 69 -445 53 -467 -7 -9 -34 -19 -61
-24 -72 -12 -223 -11 -268 2 -39 11 -39 11 -31 107 4 54 11 160 15 237 5 77
12 156 15 177 7 36 8 36 65 43 88 10 100 4 100 -56 0 -54 -8 -59 -56 -34 -46
24 -42 6 9 -39 42 -38 47 -47 47 -84 0 -45 9 -52 31 -25 18 21 15 198 -3 220
-15 19 6 34 42 31 22 -3 26 -10 42 -88z"/>
<path d="M239 407 c-9 -34 -12 -194 -4 -207 3 -5 2 -18 -4 -28 -18 -34 0 -41
92 -39 86 2 87 2 99 32 19 44 17 193 -2 205 -25 16 -30 12 -30 -25 0 -35 0
-35 -50 -35 -47 0 -50 2 -50 26 0 31 -15 60 -35 68 -8 3 -15 4 -16 3z m151
-180 c0 -34 -19 -47 -66 -47 -50 0 -58 8 -44 44 8 23 15 26 60 26 46 0 50 -2
50 -23z"/>
</g>
</svg>
