<svg version="1.0" xmlns="http://www.w3.org/2000/svg"
 width="63.000000pt" height="77.000000pt" viewBox="0 0 63.000000 77.000000"
 preserveAspectRatio="xMidYMid meet">
<metadata>
Created by potrace 1.15, written by Peter Selinger 2001-2017
</metadata>
<g transform="translate(0.000000,77.000000) scale(0.100000,-0.100000)"
fill="#000000" stroke="none">
<path d="M336 588 c-8 -12 -26 -49 -40 -81 -22 -48 -24 -61 -14 -77 7 -11 16
-20 19 -20 4 0 12 -14 19 -30 7 -17 26 -41 41 -55 46 -38 38 -62 -8 -25 -27
21 -53 26 -53 11 0 -10 39 -60 77 -98 12 -13 25 -40 29 -61 7 -35 8 -35 15
-12 4 14 7 39 8 55 1 24 9 35 41 55 40 25 55 49 23 35 -10 -4 -28 -10 -40 -12
-34 -8 -30 31 7 64 17 14 30 31 30 37 0 7 9 18 20 26 22 16 27 67 11 98 -5 9
-17 34 -26 55 -17 40 -40 52 -30 15 7 -25 22 -63 36 -91 10 -19 0 -44 -34 -83
-20 -23 -22 -23 -29 -7 -3 10 -7 33 -7 51 -1 21 -6 32 -16 32 -10 0 -16 -17
-21 -60 -8 -76 -25 -77 -55 -4 -20 50 -21 61 -10 88 17 42 33 108 27 113 -2 3
-11 -6 -20 -19z"/>
<path d="M157 494 c-4 -4 -7 -56 -7 -116 0 -108 0 -108 -29 -108 -68 0 -34
-44 35 -45 24 -1 47 -4 50 -8 19 -18 23 -4 7 26 -9 17 -23 48 -30 67 -11 31
-10 38 7 62 28 38 24 122 -5 126 -12 2 -24 0 -28 -4z"/>
</g>
</svg>
