<svg version="1.0" xmlns="http://www.w3.org/2000/svg"
 width="53.000000pt" height="77.000000pt" viewBox="0 0 53.000000 77.000000"
 preserveAspectRatio="xMidYMid meet">
<metadata>
Created by potrace 1.15, written by Peter Selinger 2001-2017
</metadata>
<g transform="translate(0.000000,77.000000) scale(0.100000,-0.100000)"
fill="#000000" stroke="none">
<path d="M190 697 c0 -65 -16 -99 -60 -127 -23 -13 -40 -32 -40 -42 0 -23 11
-23 43 2 38 30 50 26 43 -17 -3 -21 -8 -95 -12 -165 -7 -142 -2 -158 67 -227
20 -20 41 -46 48 -59 6 -12 16 -22 21 -22 12 0 13 47 2 52 -9 4 -72 93 -72
103 0 13 26 32 51 38 14 4 36 16 49 27 23 20 23 20 -18 20 -45 0 -52 11 -32
50 6 11 15 29 20 40 15 30 12 67 -10 112 -11 23 -20 43 -20 45 0 2 17 3 38 3
21 0 42 3 45 7 9 9 -48 33 -77 33 -25 0 -46 17 -46 38 0 8 14 32 31 54 17 21
28 42 24 46 -4 4 -15 -3 -25 -15 -24 -30 -28 -29 -38 9 -13 50 -32 47 -32 -5z
m56 -229 c21 -43 21 -43 -3 -118 -22 -71 -54 -126 -39 -70 3 14 6 71 6 128 0
56 4 102 8 102 4 0 17 -19 28 -42z"/>
<path d="M398 523 c-2 -27 0 -72 4 -102 4 -30 5 -58 2 -63 -3 -4 -21 -8 -40
-8 -19 0 -34 -3 -34 -7 0 -16 56 -33 107 -33 56 0 67 9 31 25 -21 9 -23 17
-25 100 -3 108 -9 135 -27 135 -9 0 -15 -16 -18 -47z"/>
</g>
</svg>
