<svg version="1.0" xmlns="http://www.w3.org/2000/svg"
 width="59.000000pt" height="67.000000pt" viewBox="0 0 59.000000 67.000000"
 preserveAspectRatio="xMidYMid meet">
<metadata>
Created by potrace 1.15, written by Peter Selinger 2001-2017
</metadata>
<g transform="translate(0.000000,67.000000) scale(0.100000,-0.100000)"
fill="#000000" stroke="none">
<path d="M187 482 c-10 -10 -17 -22 -17 -27 0 -5 -7 -16 -16 -26 -12 -13 -15
-28 -10 -54 8 -39 26 -48 26 -11 0 13 6 29 14 35 20 16 26 -14 26 -131 0 -54
4 -98 9 -98 14 0 21 26 27 108 5 53 13 86 26 105 24 33 44 30 41 -7 -1 -21 3
-26 22 -26 32 0 40 16 25 48 -37 77 -45 92 -55 92 -5 0 -21 -17 -34 -37 -17
-27 -25 -32 -31 -22 -5 7 -7 17 -4 21 6 10 -14 48 -25 48 -4 0 -15 -8 -24 -18z"/>
<path d="M386 373 c-2 -10 -7 -44 -11 -75 -5 -45 -11 -58 -26 -63 -40 -13 -12
-30 54 -33 55 -2 67 0 67 13 0 8 -9 15 -19 15 -23 0 -31 19 -31 73 0 72 -21
115 -34 70z"/>
</g>
</svg>
