<svg version="1.0" xmlns="http://www.w3.org/2000/svg"
 width="49.000000pt" height="71.000000pt" viewBox="0 0 49.000000 71.000000"
 preserveAspectRatio="xMidYMid meet">
<metadata>
Created by potrace 1.15, written by Peter Selinger 2001-2017
</metadata>
<g transform="translate(0.000000,71.000000) scale(0.100000,-0.100000)"
fill="#000000" stroke="none">
<path d="M203 433 c-25 -48 -41 -52 -45 -12 -4 40 -28 52 -28 15 0 -14 -3 -26
-7 -26 -11 0 -34 -52 -27 -59 3 -3 9 1 14 8 11 19 40 6 40 -18 0 -11 3 -27 7
-37 5 -14 2 -16 -20 -10 -32 8 -35 -6 -8 -35 30 -33 60 -101 64 -146 4 -45 16
-70 19 -37 0 10 2 24 3 29 2 6 3 35 4 66 1 49 5 62 32 90 21 23 27 35 18 38
-7 2 -19 -6 -27 -18 -20 -30 -29 -27 -43 17 -13 37 -13 63 0 72 4 3 10 13 14
23 9 25 23 21 37 -13 7 -16 19 -30 26 -30 16 0 18 13 5 38 -5 9 -15 32 -21 50
-16 42 -34 41 -57 -5z"/>
<path d="M330 294 c0 -100 0 -100 -32 -117 -33 -17 -33 -17 16 -11 56 7 98 23
90 35 -3 5 -13 9 -24 9 -15 0 -18 10 -21 80 -3 45 -9 84 -17 92 -9 9 -12 -8
-12 -88z"/>
</g>
</svg>
