<svg version="1.0" xmlns="http://www.w3.org/2000/svg"
 width="72.000000pt" height="93.000000pt" viewBox="0 0 72.000000 93.000000"
 preserveAspectRatio="xMidYMid meet">
<metadata>
Created by potrace 1.15, written by Peter Selinger 2001-2017
</metadata>
<g transform="translate(0.000000,93.000000) scale(0.100000,-0.100000)"
fill="#000000" stroke="none">
<path d="M376 744 c-3 -9 -6 -38 -6 -65 0 -50 0 -50 -29 -34 -16 8 -39 28 -51
45 -23 33 -40 39 -40 15 0 -9 27 -44 60 -78 64 -66 72 -93 34 -112 -39 -20
-52 -36 -58 -73 -10 -59 5 -95 47 -115 22 -10 37 -24 37 -35 0 -22 -55 -82
-108 -117 -39 -26 -56 -55 -32 -55 15 0 70 29 99 51 13 11 27 19 32 19 4 0 9
-36 11 -80 2 -64 6 -78 17 -71 8 6 15 35 19 80 2 39 8 74 13 77 5 2 26 -4 48
-16 72 -36 70 -19 -6 55 -57 55 -57 55 -16 94 23 20 45 50 49 65 10 41 -12
103 -46 127 -34 26 -45 58 -22 67 29 11 132 82 132 92 0 22 -26 20 -79 -9 -32
-17 -61 -28 -65 -24 -3 3 -6 23 -6 44 0 41 -8 69 -20 69 -4 0 -11 -7 -14 -16z
m-6 -329 c0 -67 -11 -81 -36 -47 -19 24 -17 72 3 94 27 30 33 21 33 -47z m84
17 c6 -30 5 -46 -4 -57 -23 -27 -30 -16 -30 46 0 71 20 78 34 11z"/>
<path d="M166 729 c-2 -8 -7 -65 -10 -127 -5 -117 -12 -139 -48 -144 -34 -5
-32 -26 2 -33 31 -7 31 -7 29 -198 -2 -160 0 -192 12 -192 16 0 31 102 44 286
7 100 9 108 32 118 26 12 23 31 -7 31 -16 0 -18 12 -21 125 -3 80 -8 128 -16
136 -10 10 -13 9 -17 -2z"/>
<path d="M583 576 c-42 -38 -47 -72 -23 -145 13 -41 13 -41 -28 -90 -23 -27
-42 -52 -42 -55 0 -15 26 -3 61 29 67 60 77 38 30 -57 -25 -50 -26 -58 -12
-58 35 0 101 90 101 138 0 35 -29 100 -54 121 -26 22 -19 64 14 96 61 58 16
79 -47 21z"/>
<path d="M224 585 c-9 -23 4 -47 23 -43 22 4 30 38 11 49 -19 13 -28 11 -34
-6z"/>
<path d="M70 575 c-17 -21 -2 -50 26 -50 14 0 19 7 19 30 0 34 -24 45 -45 20z"/>
<path d="M71 371 c-19 -12 -4 -51 20 -51 25 0 35 25 19 45 -14 17 -20 18 -39
6z"/>
<path d="M223 354 c-3 -8 -1 -20 5 -26 16 -16 42 -2 42 22 0 24 -38 28 -47 4z"/>
</g>
</svg>
