<svg version="1.0" xmlns="http://www.w3.org/2000/svg"
 width="91.000000pt" height="145.000000pt" viewBox="0 0 91.000000 145.000000"
 preserveAspectRatio="xMidYMid meet">
<metadata>
Created by potrace 1.15, written by Peter Selinger 2001-2017
</metadata>
<g transform="translate(0.000000,145.000000) scale(0.100000,-0.100000)"
fill="#000000" stroke="none">
<path d="M355 1380 c-3 -5 -1 -10 4 -10 6 0 11 5 11 10 0 6 -2 10 -4 10 -3 0
-8 -4 -11 -10z"/>
<path d="M254 1338 c-4 -7 -8 -49 -8 -95 0 -74 -2 -83 -18 -83 -27 0 -67 44
-75 80 -6 34 -45 66 -63 55 -14 -9 -5 -66 17 -109 22 -43 62 -76 93 -76 41 0
54 -22 46 -77 -7 -55 -16 -63 -72 -63 -30 0 -46 -6 -61 -24 -37 -42 -43 -63
-43 -148 1 -96 14 -165 38 -191 45 -50 147 -71 219 -45 29 10 36 10 43 -2 6
-10 10 -11 10 -3 0 7 11 23 24 37 22 21 52 102 55 146 1 8 4 35 7 59 5 35 -7
107 -22 129 -5 8 -112 42 -131 42 -22 0 -23 4 -23 69 0 69 0 69 48 91 56 25
101 87 109 150 5 38 -8 70 -28 70 -14 0 -49 -62 -49 -88 0 -35 -37 -92 -60
-92 -7 0 -9 20 -4 63 5 52 3 69 -11 90 -19 30 -30 33 -41 15z m-14 -488 c0
-60 0 -60 -59 -60 -67 0 -73 7 -57 65 9 28 17 39 28 37 9 -1 19 2 23 8 3 5 19
10 36 10 29 0 29 0 29 -60z m131 47 c23 -17 39 -52 39 -81 0 -25 -2 -26 -60
-26 -60 0 -60 0 -60 60 0 60 0 60 33 60 17 0 39 -6 48 -13z m-130 -175 c4 -4
4 -33 2 -65 -6 -59 -6 -59 -36 -53 -70 14 -106 117 -45 129 26 5 70 -1 79 -11z
m169 -6 c0 -51 -46 -106 -89 -106 -17 0 -20 8 -23 60 -3 60 -3 60 55 60 41 0
57 -4 57 -14z"/>
<path d="M708 1040 c-1 -5 -1 -83 2 -174 3 -90 4 -171 2 -180 -3 -13 -16 -16
-65 -16 -35 0 -69 -6 -79 -14 -16 -12 -15 -15 12 -41 29 -28 33 -28 73 -18 26
7 46 8 53 2 7 -5 12 -57 13 -136 2 -136 13 -193 38 -193 13 0 15 22 13 158 -1
86 -2 163 -1 170 1 8 18 12 49 12 31 1 55 7 70 19 37 32 27 41 -43 40 -36 -1
-69 2 -73 6 -4 3 -8 75 -8 158 -1 84 -5 160 -8 170 -3 9 -8 24 -11 32 -5 17
-31 20 -37 5z"/>
<path d="M479 443 c-1 -4 -2 -37 -4 -74 -1 -47 -7 -71 -21 -87 -10 -12 -22
-22 -25 -22 -9 0 -39 59 -39 76 0 7 -3 14 -7 16 -5 2 -20 19 -35 39 -26 35
-65 52 -96 41 -20 -6 -14 -17 43 -77 30 -33 55 -66 55 -75 0 -9 5 -21 12 -28
6 -6 9 -14 6 -17 -7 -7 -87 19 -140 46 -27 14 -38 11 -38 -8 0 -23 108 -83
147 -83 43 0 53 -17 53 -91 0 -52 4 -68 16 -73 28 -11 32 2 27 87 -5 82 -5 83
21 101 78 50 98 96 76 175 -9 35 -48 76 -51 54z"/>
</g>
</svg>
