<svg version="1.0" xmlns="http://www.w3.org/2000/svg"
 width="89.000000pt" height="121.000000pt" viewBox="0 0 89.000000 121.000000"
 preserveAspectRatio="xMidYMid meet">
<metadata>
Created by potrace 1.15, written by Peter Selinger 2001-2017
</metadata>
<g transform="translate(0.000000,121.000000) scale(0.100000,-0.100000)"
fill="#000000" stroke="none">
<path d="M616 1049 c-14 -27 -28 -75 -32 -105 -8 -64 -20 -74 -93 -74 -27 0
-53 -4 -56 -10 -3 -5 -19 -10 -35 -10 -17 0 -30 -7 -34 -17 -8 -21 8 -37 37
-38 21 0 22 -5 25 -78 2 -62 -1 -79 -13 -82 -53 -17 -52 -15 -26 -36 12 -10
27 -16 32 -13 5 3 9 -35 9 -87 0 -51 4 -89 8 -83 11 12 32 107 32 145 0 29 0
29 68 29 67 0 67 0 85 -40 30 -70 24 -87 -38 -117 -68 -34 -74 -51 -45 -135
19 -54 21 -75 16 -151 -4 -48 -5 -87 -2 -87 6 0 30 52 46 100 10 28 9 50 -4
113 -18 84 -16 97 15 97 10 0 19 4 19 8 0 5 11 15 25 22 45 24 51 86 17 171
-10 26 -9 28 34 44 65 25 79 51 75 145 -2 73 -1 78 23 93 14 10 34 17 46 17
11 0 20 4 20 10 0 22 -99 30 -193 16 -47 -7 -47 -7 -42 31 4 21 7 49 9 63 1
14 8 35 14 47 16 30 15 50 -3 57 -11 4 -22 -9 -39 -45z m114 -289 c0 -79 0
-79 -34 -95 -56 -27 -70 -18 -80 47 -5 34 -4 68 1 85 9 27 22 33 101 42 9 1
12 -21 12 -79z m-160 -34 c0 -81 0 -81 -50 -83 -50 -2 -50 -2 -49 50 2 84 11
110 39 117 54 13 60 5 60 -84z"/>
<path d="M162 938 c-7 -7 -12 -40 -12 -80 0 -66 -1 -69 -27 -78 -45 -16 -58
-26 -67 -52 -8 -21 -5 -30 17 -52 15 -15 37 -26 52 -26 29 0 30 -2 42 -90 9
-65 9 -65 26 -33 9 18 17 49 17 71 0 34 4 40 32 53 18 8 39 26 47 40 19 34 8
79 -19 79 -11 0 -20 5 -20 10 0 6 -9 10 -20 10 -20 0 -21 4 -34 104 -6 46 -17
61 -34 44z"/>
<path d="M55 500 c-11 -17 -6 -164 5 -168 6 -2 10 -9 10 -15 0 -7 11 -24 24
-39 29 -35 88 -38 146 -8 43 22 56 50 63 142 4 47 1 60 -15 78 -22 24 -45 22
-40 -4 5 -30 -23 -41 -88 -36 -53 4 -63 9 -79 33 -12 19 -21 25 -26 17z m183
-99 c15 -1 15 -41 -1 -61 -26 -32 -51 -38 -89 -23 -37 15 -47 31 -40 68 3 17
11 20 60 19 31 -1 63 -2 70 -3z"/>
</g>
</svg>
