<svg version="1.0" xmlns="http://www.w3.org/2000/svg"
 width="57.000000pt" height="109.000000pt" viewBox="0 0 57.000000 109.000000"
 preserveAspectRatio="xMidYMid meet">
<metadata>
Created by potrace 1.15, written by Peter Selinger 2001-2017
</metadata>
<g transform="translate(0.000000,109.000000) scale(0.100000,-0.100000)"
fill="#000000" stroke="none">
<path d="M380 855 c-7 -17 -16 -38 -21 -47 -5 -10 -9 -29 -9 -43 0 -19 -6 -26
-27 -30 -16 -3 -42 -10 -59 -15 -17 -6 -38 -10 -47 -10 -9 0 -28 -5 -42 -12
-30 -14 -34 -48 -5 -48 11 0 28 -4 38 -9 9 -5 35 -14 57 -19 22 -6 59 -15 81
-21 49 -13 104 -14 104 -3 0 5 -12 15 -27 23 -45 23 -54 34 -40 52 7 8 21 17
32 19 25 4 33 38 10 38 -14 0 -16 7 -12 33 3 17 8 41 11 52 4 12 -1 30 -13 45
-19 24 -19 24 -31 -5z"/>
<path d="M119 559 c-7 -4 -9 -19 -6 -35 15 -79 30 -130 41 -142 17 -17 186
-35 258 -27 56 7 56 7 61 43 3 21 9 50 12 65 13 52 -24 71 -155 82 -25 2 -80
8 -123 13 -42 4 -82 5 -88 1z m191 -45 c41 -3 90 -10 108 -16 31 -9 32 -12 27
-46 -11 -67 -10 -65 -73 -58 -31 4 -84 10 -117 12 -86 7 -85 6 -85 70 0 57 0
57 33 50 17 -4 66 -9 107 -12z"/>
<path d="M150 310 c14 -11 46 -22 71 -26 69 -9 76 -16 50 -53 -21 -29 -25 -30
-74 -26 -29 2 -68 9 -87 15 -43 12 -40 13 -40 -5 0 -9 22 -25 50 -37 28 -12
49 -26 47 -31 -2 -8 -26 -22 -79 -48 -36 -16 -36 -29 0 -29 31 0 123 43 142
65 8 10 32 15 69 15 78 0 133 21 144 55 13 38 1 43 -31 12 -21 -21 -38 -27
-70 -27 -41 0 -42 1 -36 28 3 15 7 33 10 40 2 8 23 12 59 12 58 0 73 13 28 24
-60 15 -200 35 -238 35 -40 1 -40 1 -15 -19z"/>
</g>
</svg>
