<svg version="1.0" xmlns="http://www.w3.org/2000/svg"
 width="72.000000pt" height="123.000000pt" viewBox="0 0 72.000000 123.000000"
 preserveAspectRatio="xMidYMid meet">
<metadata>
Created by potrace 1.15, written by Peter Selinger 2001-2017
</metadata>
<g transform="translate(0.000000,123.000000) scale(0.100000,-0.100000)"
fill="#000000" stroke="none">
<path d="M402 1003 c-13 -89 -19 -535 -8 -563 4 -8 23 -24 43 -35 43 -23 54
-45 24 -45 -12 0 -37 -17 -57 -37 -31 -34 -35 -42 -30 -78 3 -22 8 -70 12
-107 3 -38 12 -72 20 -79 22 -18 29 15 15 73 -6 27 -11 72 -11 99 0 41 3 49
18 49 25 0 42 -19 42 -47 0 -12 4 -32 9 -45 5 -13 15 -43 22 -68 15 -54 25
-68 39 -54 10 10 -17 115 -40 156 -5 9 -12 39 -16 67 -6 50 -6 51 18 51 31 0
39 -9 68 -85 12 -33 28 -73 35 -90 7 -16 16 -41 19 -55 18 -70 30 -99 37 -94
12 7 12 101 0 108 -5 3 -14 26 -20 51 -30 118 -117 238 -193 267 -22 9 -33 64
-18 83 7 9 30 15 54 15 54 0 69 -16 127 -137 24 -51 49 -93 56 -93 25 0 24 23
-4 68 -16 26 -41 72 -55 102 -27 54 -77 98 -98 85 -5 -3 -25 -3 -45 1 -30 5
-35 10 -35 35 0 29 0 29 78 29 79 0 79 0 108 -37 16 -21 36 -51 44 -66 14 -29
43 -33 48 -7 1 8 -13 33 -33 54 -19 22 -42 50 -52 63 -16 21 -25 23 -105 23
-102 0 -92 -18 -89 160 2 64 7 109 14 116 7 7 45 15 86 18 41 3 76 8 79 11 11
11 -8 16 -77 18 -77 2 -91 11 -83 53 4 22 -12 54 -27 54 -4 0 -13 -39 -19 -87z"/>
<path d="M50 1070 c0 -12 1 -12 112 -14 50 0 92 -6 98 -12 18 -18 -6 -54 -41
-61 -30 -6 -64 -43 -70 -78 -3 -13 -14 -21 -32 -23 -28 -3 -27 -6 -33 68 -1
14 -2 33 -3 43 0 9 -7 17 -15 17 -15 0 -29 -79 -20 -115 3 -14 17 -28 33 -33
33 -12 61 -38 61 -59 0 -8 -20 -34 -44 -58 -27 -26 -49 -58 -55 -81 -13 -47
-14 -64 -3 -64 14 0 32 23 32 42 0 31 23 68 42 68 18 0 23 -14 19 -61 -1 -16
4 -29 13 -32 20 -8 22 -3 31 75 6 61 9 67 31 70 30 4 36 21 9 26 -33 7 -47 22
-34 38 15 19 53 18 69 -1 7 -9 15 -56 18 -110 3 -69 8 -95 18 -95 21 0 24 30
11 122 -14 99 -31 128 -77 128 -27 0 -30 3 -30 29 0 35 6 40 62 49 39 7 44 11
51 42 6 22 5 45 -2 63 -11 27 -11 27 -131 27 -73 0 -120 -4 -120 -10z"/>
<path d="M535 1073 c-69 -7 -65 -23 6 -23 35 0 69 -4 76 -8 17 -11 33 -58 33
-96 0 -45 -24 -63 -97 -72 -43 -4 -63 -11 -63 -20 0 -8 -4 -14 -10 -14 -5 0
-10 -15 -10 -33 0 -55 23 -67 123 -67 86 0 106 9 68 30 -18 9 -85 5 -103 -6
-16 -10 -48 18 -48 40 0 35 24 49 91 51 36 1 64 8 69 15 4 7 11 43 14 80 8 75
-1 101 -41 119 -24 11 -32 11 -108 4z"/>
<path d="M81 563 c-12 -10 -26 -36 -31 -58 -12 -51 -25 -397 -16 -420 16 -42
29 9 35 133 5 98 10 134 24 155 9 15 23 27 31 27 7 0 21 9 31 20 27 29 61 25
102 -14 36 -33 36 -35 40 -122 2 -49 4 -122 4 -162 1 -50 5 -72 13 -69 13 4
16 433 3 479 -9 34 -50 48 -142 48 -54 0 -78 -4 -94 -17z m191 -20 c12 -11 18
-30 18 -60 0 -39 -2 -43 -25 -43 -18 0 -31 11 -51 45 -26 44 -26 46 -8 60 25
19 44 19 66 -2z m-116 -3 c5 -5 8 -26 6 -45 -3 -27 -11 -39 -33 -50 -15 -8
-33 -15 -38 -15 -15 0 -6 101 10 111 19 12 43 11 55 -1z"/>
<path d="M110 260 c0 -93 16 -120 73 -120 54 0 67 23 67 119 0 73 -2 82 -17
79 -10 -2 -19 -14 -21 -26 -3 -20 -7 -22 -35 -16 -41 8 -47 12 -47 30 0 8 -4
14 -10 14 -6 0 -10 -33 -10 -80z m100 5 c8 -9 10 -28 6 -50 -6 -29 -11 -35
-33 -35 -53 0 -73 71 -25 88 37 14 38 14 52 -3z"/>
</g>
</svg>
