<svg version="1.0" xmlns="http://www.w3.org/2000/svg"
 width="62.000000pt" height="81.000000pt" viewBox="0 0 62.000000 81.000000"
 preserveAspectRatio="xMidYMid meet">
<metadata>
Created by potrace 1.15, written by Peter Selinger 2001-2017
</metadata>
<g transform="translate(0.000000,81.000000) scale(0.100000,-0.100000)"
fill="#000000" stroke="none">
<path d="M306 684 c-3 -9 -6 -33 -6 -55 0 -39 0 -39 -59 -39 -53 0 -60 2 -63
21 -4 27 -30 44 -52 36 -16 -6 -17 -17 -11 -85 8 -95 13 -112 30 -112 18 0 45
39 45 66 0 25 17 34 66 34 41 0 59 -27 29 -44 -144 -85 -225 -149 -225 -178 0
-32 36 -20 105 37 37 30 71 55 76 55 5 0 9 -25 9 -55 0 -42 -3 -55 -15 -55 -8
0 -15 -6 -15 -14 0 -12 21 -14 117 -11 65 2 119 9 121 14 2 5 -8 17 -22 27
-21 13 -26 24 -26 55 0 22 5 39 11 39 6 0 42 -17 80 -37 52 -29 71 -35 80 -26
21 21 2 40 -75 72 -113 47 -148 70 -144 95 2 17 11 22 51 24 46 3 47 2 47 -25
0 -42 13 -57 38 -44 18 10 20 20 19 96 -2 85 -2 85 -29 85 -23 0 -29 -6 -36
-32 -7 -29 -13 -33 -45 -36 -37 -3 -37 -3 -37 40 0 24 -5 49 -12 56 -17 17
-45 15 -52 -4z m52 -296 c3 -68 3 -68 -28 -68 -30 0 -30 0 -30 71 0 70 0 70
28 67 26 -3 27 -5 30 -70z"/>
<path d="M475 328 c-2 -7 -5 -26 -7 -43 -3 -28 -6 -30 -56 -36 -29 -4 -88 -9
-130 -10 -76 -4 -76 -4 -85 26 -14 46 -23 60 -41 63 -13 3 -16 -6 -16 -50 0
-29 4 -58 8 -65 4 -6 32 -13 62 -15 55 -3 55 -3 58 -65 3 -63 3 -63 -76 -63
-60 0 -83 -4 -92 -15 -8 -10 -9 -19 -4 -24 10 -9 461 2 470 12 4 3 4 13 1 22
-5 11 -21 15 -64 15 -79 0 -85 5 -81 76 3 59 3 59 40 62 47 4 60 21 56 74 -2
31 -8 44 -21 46 -9 2 -19 -2 -22 -10z m-121 -134 c3 -9 6 -38 6 -65 0 -42 -3
-49 -20 -49 -18 0 -20 7 -20 65 0 49 3 65 14 65 8 0 17 -7 20 -16z"/>
<path d="M455 166 c-8 -40 1 -76 19 -76 23 0 36 24 36 67 0 39 -2 43 -25 43
-20 0 -25 -6 -30 -34z"/>
<path d="M170 141 c0 -55 14 -73 35 -45 27 36 13 94 -22 94 -9 0 -13 -16 -13
-49z"/>
</g>
</svg>
