<svg version="1.0" xmlns="http://www.w3.org/2000/svg"
 width="68.000000pt" height="86.000000pt" viewBox="0 0 68.000000 86.000000"
 preserveAspectRatio="xMidYMid meet">
<metadata>
Created by potrace 1.15, written by Peter Selinger 2001-2017
</metadata>
<g transform="translate(0.000000,86.000000) scale(0.100000,-0.100000)"
fill="#000000" stroke="none">
<path d="M356 668 c-2 -7 -7 -37 -10 -67 -3 -30 -9 -58 -14 -63 -5 -5 -40 -8
-78 -6 -69 3 -69 3 -66 44 1 28 -3 46 -13 54 -25 21 -36 -1 -33 -66 3 -50 6
-59 23 -62 63 -9 66 -12 63 -44 -2 -25 -9 -33 -36 -43 -19 -6 -37 -17 -42 -25
-4 -8 -11 -82 -14 -163 -7 -140 -6 -149 11 -145 22 4 31 55 32 183 1 50 5 95
9 100 4 6 20 15 37 20 26 9 31 17 38 63 8 51 9 52 43 52 35 0 35 0 32 -112 -3
-113 -3 -113 -58 -118 -30 -3 -54 -8 -52 -12 1 -5 2 -12 2 -18 0 -5 22 -10 50
-10 49 0 49 0 52 -92 3 -85 5 -93 23 -93 18 0 20 8 23 95 3 96 3 96 37 92 19
-2 42 -1 51 2 29 11 -4 36 -47 36 -39 0 -39 0 -39 115 0 114 0 114 103 117
102 3 102 3 102 55 -1 51 -17 85 -32 69 -4 -4 -7 -25 -7 -47 1 -39 1 -39 -60
-39 -33 0 -72 -3 -85 -7 -22 -6 -23 -5 -18 48 3 30 6 63 8 74 5 22 -28 35 -35
13z"/>
<path d="M462 428 c3 -52 4 -53 39 -62 35 -9 36 -10 48 -80 8 -52 9 -91 1
-141 -12 -89 -13 -81 6 -100 12 -12 19 -13 30 -4 11 9 14 43 14 144 0 173 -16
215 -79 215 -15 0 -23 10 -32 40 -17 56 -31 50 -27 -12z"/>
</g>
</svg>
