<svg version="1.0" xmlns="http://www.w3.org/2000/svg"
 width="71.000000pt" height="85.000000pt" viewBox="0 0 71.000000 85.000000"
 preserveAspectRatio="xMidYMid meet">
<metadata>
Created by potrace 1.15, written by Peter Selinger 2001-2017
</metadata>
<g transform="translate(0.000000,85.000000) scale(0.100000,-0.100000)"
fill="#000000" stroke="none">
<path d="M184 539 c-40 -11 -58 -33 -77 -90 -28 -82 -31 -142 -12 -241 23
-123 47 -150 153 -174 65 -14 86 -15 166 -4 91 12 103 18 144 71 23 30 44 179
40 281 -4 112 -13 128 -86 152 -51 18 -273 21 -328 5z m335 -54 c6 -6 14 -32
17 -58 6 -45 6 -47 -17 -47 -30 1 -50 16 -74 58 -11 17 -23 32 -27 32 -12 0
-9 -53 6 -78 14 -26 64 -62 86 -62 32 -1 42 -16 35 -54 -6 -32 -11 -36 -37
-36 -39 0 -88 26 -88 48 -1 18 -22 52 -34 52 -3 0 -6 -15 -6 -34 0 -51 37 -98
93 -116 58 -19 63 -47 15 -82 -30 -21 -44 -23 -145 -23 -97 0 -115 3 -139 21
-40 29 -40 40 1 60 40 19 85 86 85 127 0 39 -16 33 -44 -16 -21 -36 -69 -77
-91 -77 -3 0 -5 23 -3 52 3 49 5 52 38 63 52 17 128 135 87 135 -8 0 -20 -12
-27 -26 -15 -26 -50 -55 -84 -68 -17 -6 -18 -2 -13 41 5 49 37 87 82 97 40 8
274 1 284 -9z"/>
</g>
</svg>
