<svg version="1.0" xmlns="http://www.w3.org/2000/svg"
 width="72.000000pt" height="88.000000pt" viewBox="0 0 72.000000 88.000000"
 preserveAspectRatio="xMidYMid meet">
<metadata>
Created by potrace 1.15, written by Peter Selinger 2001-2017
</metadata>
<g transform="translate(0.000000,88.000000) scale(0.100000,-0.100000)"
fill="#000000" stroke="none">
<path d="M431 699 c-69 -13 -81 -30 -81 -114 0 -58 4 -78 21 -99 11 -14 29
-26 39 -26 10 0 20 -9 23 -20 5 -19 0 -20 -61 -20 -117 0 -128 -37 -13 -42 62
-3 65 -4 72 -32 4 -15 15 -36 24 -46 20 -22 16 -30 -62 -113 -83 -90 -102
-127 -65 -127 18 0 69 56 140 153 36 48 47 57 74 57 82 0 72 -112 -17 -184
-33 -26 -48 -66 -25 -66 26 0 71 33 108 80 50 63 66 138 36 172 -26 28 -68 48
-102 48 -37 0 -67 22 -59 43 5 13 24 17 89 19 70 3 83 6 86 21 3 15 -5 17 -60
17 -77 0 -108 8 -108 26 0 9 11 14 31 14 43 0 69 16 85 55 31 76 8 145 -59
176 -46 20 -52 21 -116 8z m120 -71 c12 -19 11 -106 -2 -113 -6 -4 -37 -9 -70
-12 -74 -7 -89 4 -89 66 0 49 6 64 30 74 24 11 122 -1 131 -15z"/>
<path d="M434 586 c-22 -17 -16 -21 54 -30 37 -5 42 -4 42 13 0 30 -62 41 -96
17z"/>
<path d="M170 661 c-5 -11 -9 -48 -7 -83 2 -63 2 -63 -45 -66 -40 -3 -48 -6
-48 -23 0 -15 7 -19 31 -19 60 0 69 -13 69 -95 0 -74 0 -74 -52 -77 -39 -2
-54 -7 -56 -19 -5 -25 17 -28 132 -22 93 5 106 8 106 24 0 13 -9 19 -37 21
-38 3 -38 3 -41 81 -3 77 -3 77 37 77 26 0 41 5 45 16 10 25 -2 34 -45 34 -39
0 -39 0 -39 63 0 75 -8 107 -26 107 -7 0 -18 -9 -24 -19z"/>
<path d="M326 254 c-26 -31 -44 -60 -40 -65 10 -18 43 -9 61 17 10 14 28 37
41 51 27 32 28 53 3 53 -12 0 -38 -23 -65 -56z"/>
<path d="M525 220 c-10 -11 -23 -28 -29 -38 -6 -10 -21 -34 -33 -52 -22 -34
-22 -51 0 -49 18 1 109 130 103 145 -7 19 -20 17 -41 -6z"/>
</g>
</svg>
