<svg version="1.0" xmlns="http://www.w3.org/2000/svg"
 width="51.000000pt" height="115.000000pt" viewBox="0 0 51.000000 115.000000"
 preserveAspectRatio="xMidYMid meet">
<metadata>
Created by potrace 1.15, written by Peter Selinger 2001-2017
</metadata>
<g transform="translate(0.000000,115.000000) scale(0.100000,-0.100000)"
fill="#000000" stroke="none">
<path d="M237 964 c-4 -4 -7 -39 -7 -79 0 -70 -1 -71 -40 -109 -58 -55 -47
-91 15 -50 24 16 25 15 25 -5 0 -11 -10 -37 -22 -58 -18 -30 -22 -53 -22 -113
0 -70 -2 -76 -33 -109 -32 -34 -44 -71 -23 -71 6 0 24 14 42 30 30 30 31 30
45 10 8 -11 21 -20 29 -20 18 0 9 -43 -17 -82 -23 -32 -24 -73 -4 -122 14 -33
35 -49 35 -27 0 5 16 26 35 47 35 39 35 39 35 -53 0 -55 4 -93 10 -93 6 0 10
17 10 38 0 20 5 72 12 115 15 103 5 114 -53 58 -24 -22 -47 -41 -51 -41 -4 0
-8 14 -8 30 0 17 4 30 9 30 19 0 33 62 29 131 -4 72 -4 72 29 92 28 16 33 25
33 57 0 21 -4 40 -8 42 -16 6 -52 67 -52 86 0 12 -4 24 -10 27 -16 10 -12 40
10 68 11 14 20 35 20 47 0 13 -8 24 -20 27 -13 4 -20 14 -20 32 -1 31 -23 75
-33 65z m73 -396 c0 -19 -25 -25 -34 -9 -3 5 -3 23 1 41 6 32 6 32 19 9 7 -13
13 -32 14 -41z"/>
</g>
</svg>
