<svg version="1.0" xmlns="http://www.w3.org/2000/svg"
 width="61.000000pt" height="83.000000pt" viewBox="0 0 61.000000 83.000000"
 preserveAspectRatio="xMidYMid meet">
<metadata>
Created by potrace 1.15, written by Peter Selinger 2001-2017
</metadata>
<g transform="translate(0.000000,83.000000) scale(0.100000,-0.100000)"
fill="#000000" stroke="none">
<path d="M433 624 c-29 -23 -39 -25 -145 -26 -83 0 -123 4 -152 16 -22 9 -47
14 -58 10 -26 -8 -22 -39 7 -58 25 -17 25 -17 4 -57 -28 -55 -20 -115 18 -146
27 -22 27 -23 12 -50 -17 -29 -34 -238 -23 -268 4 -8 16 -15 29 -15 21 0 23 6
30 83 6 77 26 175 40 197 9 15 220 13 232 -2 22 -30 36 -108 34 -196 -1 -82 1
-93 15 -90 44 8 54 158 19 275 -8 26 -15 49 -15 50 0 1 7 9 15 17 36 36 26
186 -13 201 -12 5 -11 10 8 30 25 26 21 55 -7 55 -10 -1 -32 -12 -50 -26z
m-119 -101 c-29 -14 -34 -14 -55 1 -23 16 -22 16 31 15 55 0 55 0 24 -16z
m139 -35 c14 -29 16 -42 7 -58 -15 -28 -24 -26 -70 16 -41 37 -41 37 -18 61
31 33 59 26 81 -19z m-243 7 c37 -19 37 -31 3 -67 -31 -33 -58 -36 -73 -9 -14
28 -12 52 7 73 20 22 26 22 63 3z m135 -82 c40 -28 40 -28 2 -31 -20 -2 -54
-2 -75 0 -37 3 -37 3 -10 31 15 15 31 27 35 27 5 0 26 -12 48 -27z"/>
<path d="M394 475 c-8 -20 4 -35 27 -35 14 0 19 7 19 25 0 18 -5 25 -20 25
-11 0 -23 -7 -26 -15z"/>
<path d="M146 471 c-8 -13 20 -45 32 -37 20 12 14 46 -7 46 -11 0 -22 -4 -25
-9z"/>
</g>
</svg>
