<svg version="1.0" xmlns="http://www.w3.org/2000/svg"
 width="49.000000pt" height="111.000000pt" viewBox="0 0 49.000000 111.000000"
 preserveAspectRatio="xMidYMid meet">
<metadata>
Created by potrace 1.15, written by Peter Selinger 2001-2017
</metadata>
<g transform="translate(0.000000,111.000000) scale(0.100000,-0.100000)"
fill="#000000" stroke="none">
<path d="M309 873 c-5 -16 -12 -34 -14 -42 -4 -11 -10 -10 -30 3 -33 22 -35
21 -35 -14 0 -16 -4 -30 -10 -30 -5 0 -10 -9 -10 -19 0 -11 -4 -22 -9 -25 -5
-3 -11 -18 -14 -33 -2 -16 -12 -55 -22 -88 -12 -43 -15 -82 -12 -138 5 -78 5
-78 -29 -100 -18 -12 -34 -26 -34 -31 0 -8 31 -4 61 8 20 9 33 -30 23 -69 -4
-15 -2 -25 5 -25 7 0 11 -20 11 -49 0 -28 5 -53 10 -56 6 -4 31 9 55 29 24 20
46 36 49 36 3 0 6 -33 6 -74 0 -41 4 -77 8 -80 5 -3 14 17 20 45 15 64 16 179
1 179 -11 0 -82 -50 -87 -62 -8 -17 -22 -6 -22 16 0 19 10 28 48 44 67 29 76
42 68 102 -6 44 -4 50 16 61 31 17 41 28 62 73 28 60 16 122 -31 164 -21 17
-41 32 -45 32 -5 0 -8 4 -8 9 0 5 17 3 38 -4 20 -7 39 -11 42 -8 7 7 -62 63
-78 63 -11 0 -13 11 -7 55 7 60 -8 76 -26 28z m-32 -151 c11 -7 34 -216 26
-237 -2 -6 -24 -19 -50 -28 -37 -14 -48 -15 -55 -5 -11 18 -10 150 2 168 7 10
10 -7 10 -57 0 -40 4 -73 9 -73 31 0 46 156 18 189 -27 32 4 66 40 43z m113
-126 c0 -22 -5 -48 -10 -56 -7 -11 -10 -6 -10 21 0 20 -3 52 -7 70 -6 31 -5
33 10 20 11 -9 17 -28 17 -55z m-37 -65 c5 -22 -1 -33 -14 -25 -12 7 -12 44 0
44 5 0 11 -9 14 -19z m-45 -133 c-2 -26 -11 -37 -43 -55 -22 -13 -43 -23 -47
-23 -5 0 -8 18 -8 40 0 35 4 42 33 54 55 24 69 21 65 -16z"/>
</g>
</svg>
