<svg version="1.0" xmlns="http://www.w3.org/2000/svg"
 width="81.000000pt" height="165.000000pt" viewBox="0 0 81.000000 165.000000"
 preserveAspectRatio="xMidYMid meet">
<metadata>
Created by potrace 1.15, written by Peter Selinger 2001-2017
</metadata>
<g transform="translate(0.000000,165.000000) scale(0.100000,-0.100000)"
fill="#000000" stroke="none">
<path d="M493 1483 c-18 -27 -49 -89 -72 -147 -8 -18 -10 -62 -6 -125 6 -97 6
-97 -52 -110 -69 -15 -157 -44 -175 -57 -14 -11 -54 -29 -80 -38 -10 -3 -18
-13 -18 -22 0 -14 8 -16 46 -11 47 5 47 5 40 -47 -3 -28 -6 -60 -6 -72 0 -21
-4 -23 -110 -52 -31 -9 -27 -10 39 -11 65 -1 72 -3 66 -18 -4 -10 -11 -61 -16
-113 -8 -84 -13 -118 -32 -195 -3 -11 -11 -54 -17 -95 -14 -87 -37 -200 -46
-224 -3 -9 -2 -16 4 -16 5 0 15 15 22 33 7 17 16 41 20 52 13 33 28 90 54 207
4 17 13 28 24 28 14 0 14 2 3 9 -10 7 -12 22 -7 62 4 30 11 95 16 144 4 50 11
102 15 116 7 28 4 26 130 50 119 23 114 23 120 -2 10 -41 23 -287 25 -469 1
-96 4 -188 5 -205 2 -16 4 -48 4 -70 2 -73 19 -17 26 86 9 125 9 469 1 497 -4
11 -2 23 5 27 7 5 7 10 1 14 -5 3 -11 40 -14 81 -5 76 -5 76 66 93 39 10 90
22 114 27 24 5 48 12 53 15 17 11 9 76 -14 110 -47 68 -91 89 -193 88 -62 0
-62 0 -68 51 -13 115 7 208 56 255 30 28 35 50 16 69 -18 18 -25 15 -45 -15z
m63 -480 c-1 -87 -1 -88 -27 -91 -24 -3 -26 0 -35 65 -13 99 -11 104 52 112 6
1 10 -30 10 -86z m88 61 c37 -36 68 -85 63 -98 -3 -7 -18 -16 -34 -19 -15 -3
-38 -8 -49 -12 -26 -8 -34 14 -34 93 0 45 3 52 19 52 11 0 27 -7 35 -16z
m-206 -71 c16 -104 16 -103 -16 -103 -15 0 -33 -5 -39 -11 -24 -24 -33 2 -30
89 4 91 7 96 63 101 6 1 16 -34 22 -76z m-128 -47 c0 -83 0 -83 -50 -93 -58
-12 -58 -13 -38 92 13 65 27 83 71 84 15 1 17 -9 17 -83z"/>
<path d="M487 33 c-4 -3 -7 -13 -7 -22 1 -13 3 -13 11 2 11 19 8 33 -4 20z"/>
</g>
</svg>
