<svg version="1.0" xmlns="http://www.w3.org/2000/svg"
 width="141.000000pt" height="253.000000pt" viewBox="0 0 141.000000 253.000000"
 preserveAspectRatio="xMidYMid meet">
<metadata>
Created by potrace 1.15, written by Peter Selinger 2001-2017
</metadata>
<g transform="translate(0.000000,253.000000) scale(0.100000,-0.100000)"
fill="#000000" stroke="none">
<path d="M741 2328 c-8 -29 -9 -78 -3 -152 7 -104 7 -109 -13 -116 -11 -4 -53
-18 -94 -31 -75 -23 -141 -71 -141 -101 0 -41 88 -41 197 -1 23 8 46 12 52 8
6 -3 11 -30 11 -60 0 -57 -7 -65 -59 -65 -16 0 -41 -4 -57 -9 -16 -5 -49 -15
-74 -22 -25 -7 -49 -16 -55 -19 -5 -4 -36 -17 -67 -29 -48 -19 -59 -29 -72
-61 -21 -53 -29 -191 -16 -279 6 -41 9 -76 6 -78 -2 -2 -57 -7 -122 -11 -119
-7 -119 -7 -122 -45 -3 -37 18 -74 36 -63 8 5 116 10 150 7 8 -1 12 -26 12
-91 0 -94 13 -140 39 -140 33 1 51 27 61 91 14 97 21 134 26 138 6 7 97 20
209 30 55 6 111 13 124 17 24 7 24 7 19 -168 -3 -137 -8 -181 -20 -199 -31
-48 -224 -129 -351 -149 -121 -18 -138 -23 -152 -44 -8 -11 -15 -30 -15 -41 0
-11 -9 -45 -20 -75 -28 -77 -27 -157 3 -192 27 -31 65 -48 108 -48 46 0 194
41 274 75 17 8 49 21 73 30 23 10 42 21 42 26 0 5 8 9 18 9 10 0 22 4 27 9 6
4 32 15 58 24 26 9 66 30 88 47 21 18 39 29 39 25 0 -15 -33 -75 -41 -75 -5 0
-9 -11 -9 -24 0 -13 -3 -26 -7 -28 -5 -1 -28 -28 -53 -58 -47 -58 -58 -68
-124 -112 -23 -15 -45 -31 -51 -35 -14 -11 -147 -73 -262 -124 -18 -8 -33 -16
-33 -19 0 -3 -15 -7 -32 -8 -18 -2 -37 -7 -42 -12 -6 -6 -20 -10 -33 -10 -30
0 -30 -18 0 -24 78 -16 104 -14 172 11 39 14 84 27 102 28 18 2 39 10 48 18 8
9 24 19 35 22 11 3 20 11 20 16 0 5 9 9 20 9 11 0 20 3 20 8 0 8 49 32 67 32
7 0 13 5 13 10 0 6 6 10 13 10 7 0 51 37 98 83 85 81 142 168 170 258 29 92
51 309 32 309 -16 0 -31 -16 -47 -48 -31 -59 -152 -178 -219 -213 -187 -97
-246 -124 -322 -145 -77 -20 -71 -20 -133 -10 -52 8 -52 8 -52 47 0 72 65 140
160 168 132 39 188 59 250 89 25 12 51 22 58 22 6 0 12 5 12 10 0 6 6 10 13
10 18 0 77 62 77 81 0 9 3 18 6 22 3 3 5 88 4 190 -1 184 -1 184 85 196 47 7
88 17 91 22 3 5 15 9 27 9 24 0 81 19 112 37 11 7 36 21 55 31 51 28 63 71 64
227 1 72 -3 163 -8 203 -8 65 -12 75 -33 83 -29 11 -260 -5 -313 -21 -19 -6
-57 -17 -83 -24 -48 -13 -48 -13 -42 53 7 69 22 91 58 91 11 0 53 10 94 23 74
22 74 22 71 57 -3 30 -7 35 -32 38 -15 2 -40 -1 -55 -7 -14 -5 -53 -11 -86
-13 -59 -3 -59 -3 -61 30 -3 55 -26 195 -36 225 -16 42 -43 35 -57 -15z m498
-613 c15 -80 10 -195 -10 -238 -20 -43 -86 -70 -239 -97 -36 -6 -72 -13 -81
-14 -40 -8 -46 21 -56 239 -5 121 -5 121 21 133 15 7 40 12 56 12 28 0 97 14
150 31 14 4 52 8 86 8 60 1 60 1 73 -74z m-475 -21 c3 -9 6 -68 6 -132 1 -64
5 -136 9 -160 8 -38 6 -43 -13 -46 -11 -2 -46 -9 -76 -15 -30 -6 -101 -13
-157 -16 -101 -5 -101 -5 -108 26 -17 77 3 243 32 265 10 7 30 19 46 26 15 7
27 16 27 19 0 3 17 11 38 17 116 36 186 42 196 16z"/>
<path d="M1053 1653 c-13 -2 -23 -9 -23 -14 0 -5 -6 -9 -14 -9 -41 0 -20 -98
29 -130 49 -32 85 -4 88 71 2 43 -2 54 -22 70 -13 10 -26 18 -30 18 -3 -1 -16
-4 -28 -6z"/>
<path d="M556 1535 c-28 -57 -5 -105 50 -105 40 0 64 29 64 80 0 46 -15 60
-61 60 -32 0 -39 -4 -53 -35z"/>
<path d="M260 190 c0 -5 5 -10 10 -10 6 0 10 5 10 10 0 6 -4 10 -10 10 -5 0
-10 -4 -10 -10z"/>
</g>
</svg>
