<svg version="1.0" xmlns="http://www.w3.org/2000/svg"
 width="43.000000pt" height="71.000000pt" viewBox="0 0 43.000000 71.000000"
 preserveAspectRatio="xMidYMid meet">
<metadata>
Created by potrace 1.15, written by Peter Selinger 2001-2017
</metadata>
<g transform="translate(0.000000,71.000000) scale(0.100000,-0.100000)"
fill="#000000" stroke="none">
<path d="M277 634 c-4 -4 -7 -19 -7 -34 0 -34 -17 -50 -53 -50 -22 0 -28 -4
-25 -17 2 -10 13 -19 26 -21 12 -2 22 -6 21 -10 -1 -17 -92 -72 -119 -72 -33
0 -49 -17 -25 -26 10 -4 13 -13 10 -25 -5 -14 -1 -19 11 -19 16 0 16 -1 0 -19
-23 -25 -15 -37 29 -45 25 -5 39 -14 45 -32 12 -31 2 -81 -22 -116 -12 -17
-15 -29 -8 -33 26 -16 70 57 70 115 0 36 -15 68 -44 93 -19 17 -20 19 -3 28 9
6 29 21 44 35 17 15 30 21 37 15 17 -14 46 12 46 42 0 15 -9 32 -22 42 -23 16
-23 16 1 36 19 15 21 22 11 34 -6 8 -9 23 -5 34 7 22 -7 56 -18 45z m-47 -193
c0 -5 -7 -11 -15 -15 -15 -5 -20 5 -8 17 9 10 23 9 23 -2z m50 5 c0 -3 -4 -8
-10 -11 -5 -3 -10 -1 -10 4 0 6 5 11 10 11 6 0 10 -2 10 -4z"/>
</g>
</svg>
