<svg version="1.0" xmlns="http://www.w3.org/2000/svg"
 width="53.000000pt" height="89.000000pt" viewBox="0 0 53.000000 89.000000"
 preserveAspectRatio="xMidYMid meet">
<metadata>
Created by potrace 1.15, written by Peter Selinger 2001-2017
</metadata>
<g transform="translate(0.000000,89.000000) scale(0.100000,-0.100000)"
fill="#000000" stroke="none">
<path d="M243 690 c5 -36 2 -42 -24 -61 -44 -31 -34 -59 22 -59 25 0 24 -14
-2 -57 -17 -28 -20 -44 -16 -83 6 -48 5 -50 -39 -88 -47 -42 -53 -52 -29 -52
8 0 15 3 15 8 0 4 12 12 26 19 21 10 29 10 40 -1 11 -11 7 -20 -22 -51 -39
-43 -41 -53 -18 -101 23 -48 31 -50 47 -12 8 18 26 44 41 57 14 14 26 30 26
37 0 6 7 18 17 25 15 13 16 5 9 -106 -6 -120 -6 -120 14 -95 11 14 20 41 20
60 1 19 3 74 5 122 5 119 -4 118 -103 -12 -25 -31 -42 -39 -42 -17 0 6 23 31
50 55 50 43 50 43 50 108 0 37 4 64 10 64 6 0 15 11 21 24 9 18 7 32 -10 66
-20 43 -17 59 12 60 5 0 7 6 5 13 -3 6 -22 14 -44 17 -38 5 -39 7 -48 53 -5
32 -13 47 -23 47 -12 0 -14 -8 -10 -40z m87 -192 c0 -5 -4 -8 -10 -8 -5 0 -10
10 -10 23 0 18 2 19 10 7 5 -8 10 -18 10 -22z m-55 -28 c8 -26 -4 -48 -16 -29
-12 19 -11 49 0 49 5 0 12 -9 16 -20z m25 -89 c0 -10 -9 -29 -21 -42 -20 -24
-20 -24 -15 11 4 18 12 38 19 42 17 11 17 10 17 -11z"/>
</g>
</svg>
