<svg version="1.0" xmlns="http://www.w3.org/2000/svg"
 width="67.000000pt" height="83.000000pt" viewBox="0 0 67.000000 83.000000"
 preserveAspectRatio="xMidYMid meet">
<metadata>
Created by potrace 1.15, written by Peter Selinger 2001-2017
</metadata>
<g transform="translate(0.000000,83.000000) scale(0.100000,-0.100000)"
fill="#000000" stroke="none">
<path d="M484 676 c-3 -13 -17 -34 -30 -47 -22 -20 -32 -49 -18 -49 3 0 21 12
40 26 35 27 35 27 74 9 22 -10 43 -15 47 -12 7 7 -85 97 -99 97 -4 0 -10 -11
-14 -24z"/>
<path d="M302 625 c-23 -29 -42 -56 -42 -59 0 -13 29 -5 54 15 21 16 35 20 62
14 35 -6 35 -6 21 22 -8 15 -23 36 -34 45 -18 17 -21 15 -61 -37z"/>
<path d="M134 624 c4 -9 0 -24 -8 -33 -35 -38 -51 -113 -48 -224 2 -122 -16
-230 -48 -284 -24 -40 -21 -50 8 -32 44 28 70 128 78 304 5 95 11 142 25 174
15 34 22 42 31 33 9 -9 8 -43 -5 -140 -9 -70 -17 -151 -17 -179 0 -57 27 -191
43 -211 19 -23 28 3 18 49 -16 66 -13 247 5 350 18 106 15 126 -27 174 -33 37
-66 48 -55 19z"/>
<path d="M474 545 c-29 -38 -25 -57 6 -37 24 15 57 16 65 2 11 -18 78 -41 88
-31 6 6 -8 21 -39 41 -27 16 -52 37 -57 45 -13 24 -34 17 -63 -20z"/>
<path d="M316 516 c-14 -19 -26 -37 -26 -40 0 -13 21 -5 37 14 19 22 49 26 73
9 13 -9 12 -12 -4 -22 -69 -43 -84 -94 -42 -144 54 -62 206 -19 206 58 0 39
-48 89 -85 89 -17 0 -38 12 -59 35 -42 44 -67 44 -100 1z m190 -79 c4 -4 6
-31 5 -53 -2 -43 -111 -62 -131 -23 -17 31 4 77 38 82 24 4 82 0 88 -6z"/>
<path d="M414 405 c-4 -9 -2 -21 4 -27 15 -15 44 -1 40 19 -4 23 -36 29 -44 8z"/>
<path d="M280 333 c0 -55 5 -64 43 -80 39 -18 38 -62 -3 -85 -21 -12 -30 -25
-30 -43 0 -49 16 -65 65 -65 25 0 65 -9 90 -21 52 -25 65 -20 42 14 -10 15
-33 29 -64 37 -104 27 -101 25 -76 38 12 7 57 17 100 23 86 11 127 33 131 70
5 47 -9 54 -128 59 -123 6 -140 15 -140 72 0 18 -5 28 -15 28 -11 0 -15 -12
-15 -47z m238 -111 c2 -15 -2 -22 -12 -22 -11 0 -16 9 -16 26 0 31 23 28 28
-4z m-74 1 c7 -17 -9 -33 -31 -33 -7 0 -13 4 -13 9 0 5 -3 16 -6 25 -5 12 0
16 19 16 14 0 28 -7 31 -17z"/>
</g>
</svg>
