<svg version="1.0" xmlns="http://www.w3.org/2000/svg"
 width="66.000000pt" height="86.000000pt" viewBox="0 0 66.000000 86.000000"
 preserveAspectRatio="xMidYMid meet">
<metadata>
Created by potrace 1.15, written by Peter Selinger 2001-2017
</metadata>
<g transform="translate(0.000000,86.000000) scale(0.100000,-0.100000)"
fill="#000000" stroke="none">
<path d="M260 671 c0 -5 9 -25 20 -44 17 -28 20 -52 21 -133 0 -129 11 -166
61 -215 44 -42 77 -54 58 -20 -5 11 -15 23 -20 26 -6 3 -17 20 -26 37 -13 25
-14 32 -2 39 28 19 57 21 79 5 23 -16 23 -16 -9 -27 -42 -15 -41 -29 3 -29 70
0 107 76 90 186 -9 60 -35 86 -83 82 -34 -3 -37 -6 -35 -31 2 -24 -1 -26 -24
-21 -24 6 -25 5 -18 -25 5 -23 3 -32 -9 -37 -20 -8 -20 -18 0 -39 17 -17 11
-49 -8 -43 -20 7 -25 57 -15 141 10 77 10 77 -20 115 -29 36 -63 54 -63 33z
m231 -172 c7 -13 8 -43 4 -81 -7 -60 -7 -60 -26 -32 -18 28 -18 29 3 51 21 22
21 22 -2 41 -13 11 -20 24 -16 30 11 18 24 14 37 -9z m-61 -49 c0 -12 -28 -25
-36 -17 -9 9 6 27 22 27 8 0 14 -5 14 -10z"/>
<path d="M147 572 c-26 -28 -37 -70 -37 -135 0 -77 15 -107 64 -131 33 -16 43
-17 77 -7 46 14 43 31 -6 31 -19 0 -37 5 -41 11 -10 17 18 30 51 23 29 -6 29
-6 13 13 -15 16 -16 24 -6 51 10 26 9 34 -4 49 -14 16 -15 20 -2 37 22 30 17
40 -11 22 -26 -17 -55 -21 -55 -8 0 5 11 14 25 20 31 14 32 28 3 36 -37 10
-54 7 -71 -12z m33 -89 c0 -10 -5 -25 -10 -33 -7 -11 -10 -7 -10 18 0 17 5 32
10 32 6 0 10 -8 10 -17z m50 -38 c0 -8 -6 -15 -14 -15 -17 0 -28 14 -19 24 12
12 33 6 33 -9z m-37 -37 c8 -29 -11 -52 -29 -37 -17 14 -18 31 -2 47 17 17 25
15 31 -10z"/>
<path d="M447 251 c-8 -31 20 -74 64 -99 32 -19 44 -21 53 -12 8 10 7 14 -3
18 -23 8 -62 54 -73 85 -11 31 -33 36 -41 8z"/>
<path d="M195 240 c-3 -11 -22 -42 -41 -69 -19 -28 -34 -53 -34 -56 0 -13 32
-2 60 21 39 33 63 79 55 104 -8 26 -32 26 -40 0z"/>
<path d="M316 248 c-21 -71 -46 -120 -83 -159 -45 -48 -53 -69 -28 -69 22 0
100 74 118 112 15 32 15 32 30 -4 18 -42 56 -74 109 -90 30 -9 41 -9 51 1 9 9
9 14 -3 21 -8 5 -22 10 -32 10 -9 0 -39 21 -66 48 -46 43 -56 60 -64 116 -4
23 -26 33 -32 14z"/>
</g>
</svg>
