<svg version="1.0" xmlns="http://www.w3.org/2000/svg"
 width="65.000000pt" height="84.000000pt" viewBox="0 0 65.000000 84.000000"
 preserveAspectRatio="xMidYMid meet">
<metadata>
Created by potrace 1.15, written by Peter Selinger 2001-2017
</metadata>
<g transform="translate(0.000000,84.000000) scale(0.100000,-0.100000)"
fill="#000000" stroke="none">
<path d="M208 631 c-58 -3 -110 -9 -113 -13 -4 -4 -5 -14 -1 -23 5 -13 20 -15
83 -13 69 3 78 1 81 -16 6 -29 -11 -37 -89 -44 -56 -5 -74 -11 -74 -22 0 -12
17 -15 93 -15 82 0 95 2 108 20 9 12 13 31 10 47 -8 39 12 48 104 49 85 1 100
-5 100 -43 0 -15 -10 -18 -69 -18 -73 0 -101 -14 -101 -49 0 -30 -21 -38 -114
-44 -62 -3 -93 -10 -101 -20 -6 -9 -11 -88 -13 -199 -2 -159 0 -187 14 -199
27 -22 34 7 34 154 0 137 0 137 74 137 41 0 81 3 90 6 13 5 16 -1 16 -25 0
-31 0 -31 -64 -31 -68 0 -96 -6 -96 -21 0 -5 35 -9 78 -9 43 0 81 -3 84 -6 6
-5 -7 -43 -37 -110 -8 -16 -26 -43 -40 -58 -14 -15 -23 -32 -20 -37 14 -22 36
-5 66 51 17 33 37 60 44 60 7 0 30 -25 50 -55 38 -55 67 -69 79 -40 3 9 -8 30
-28 53 -18 20 -45 60 -60 87 -26 50 -26 50 26 57 29 4 69 5 88 3 38 -6 66 6
56 24 -5 7 -42 11 -97 11 -81 0 -89 2 -89 19 0 16 10 20 73 26 91 8 107 13
107 31 0 12 -15 14 -91 8 -91 -7 -91 -7 -87 22 3 29 3 29 88 32 101 3 117 7
101 26 -8 10 -34 12 -106 8 -96 -5 -106 -1 -82 31 8 11 36 19 92 24 80 8 80 8
78 58 -1 34 -7 53 -19 62 -19 14 -118 15 -326 4z m129 -237 c24 -24 6 -32 -89
-39 -83 -7 -88 -6 -88 12 0 33 21 43 93 43 49 0 73 -4 84 -16z"/>
<path d="M453 184 c-7 -3 -13 -12 -13 -20 0 -11 15 -14 61 -14 52 0 60 2 57
18 -2 13 -14 17 -48 19 -25 1 -51 0 -57 -3z"/>
<path d="M196 171 c-11 -18 3 -31 32 -31 29 0 60 15 50 25 -12 12 -76 17 -82
6z"/>
</g>
</svg>
