<svg version="1.0" xmlns="http://www.w3.org/2000/svg"
 width="72.000000pt" height="92.000000pt" viewBox="0 0 72.000000 92.000000"
 preserveAspectRatio="xMidYMid meet">
<metadata>
Created by potrace 1.15, written by Peter Selinger 2001-2017
</metadata>
<g transform="translate(0.000000,92.000000) scale(0.100000,-0.100000)"
fill="#000000" stroke="none">
<path d="M210 632 c0 -9 8 -22 19 -29 20 -12 71 -97 71 -118 0 -13 -90 -25
-187 -25 -28 0 -54 -4 -57 -8 -12 -19 15 -33 76 -39 72 -6 60 7 124 -128 16
-33 41 -78 57 -100 15 -22 35 -51 44 -65 22 -33 54 -65 80 -79 51 -27 44 -8
-35 98 -58 76 -162 254 -162 275 0 3 40 6 89 6 88 0 88 0 131 -67 63 -99 177
-213 215 -213 18 0 -5 32 -77 110 -87 92 -137 168 -115 175 7 2 36 6 66 10
115 13 83 35 -52 35 -95 0 -99 1 -123 28 -140 157 -164 177 -164 134z"/>
</g>
</svg>
