<svg version="1.0" xmlns="http://www.w3.org/2000/svg"
 width="65.000000pt" height="87.000000pt" viewBox="0 0 65.000000 87.000000"
 preserveAspectRatio="xMidYMid meet">
<metadata>
Created by potrace 1.15, written by Peter Selinger 2001-2017
</metadata>
<g transform="translate(0.000000,87.000000) scale(0.100000,-0.100000)"
fill="#000000" stroke="none">
<path d="M340 611 c-6 -12 -18 -21 -26 -21 -8 0 -38 -10 -65 -21 -49 -22 -49
-22 -114 12 -47 24 -68 30 -76 22 -8 -8 -8 -16 0 -31 6 -11 11 -62 11 -112 0
-99 12 -136 53 -163 23 -15 24 -18 14 -64 -6 -26 -24 -72 -39 -101 -28 -52
-29 -72 -5 -72 10 0 49 79 88 178 5 12 15 22 23 22 11 0 14 -23 15 -107 2
-114 4 -123 27 -123 11 0 14 23 14 125 0 69 4 125 8 125 5 0 14 -12 21 -27 24
-53 72 -121 98 -138 43 -28 47 -3 6 44 -20 24 -49 62 -65 85 -25 38 -26 42
-10 53 9 7 22 16 28 22 6 5 14 64 18 132 4 68 8 135 9 148 3 31 -18 38 -33 12z
m-18 -153 c-2 -69 -9 -118 -16 -126 -7 -7 -35 -15 -64 -19 -64 -7 -97 11 -111
64 -12 42 -15 173 -4 173 3 0 21 -11 39 -25 18 -14 36 -25 41 -25 5 0 31 16
58 34 28 19 53 35 56 35 3 1 4 -50 1 -111z"/>
<path d="M167 473 c-18 -17 -2 -24 55 -21 38 2 63 8 66 16 3 9 -13 12 -55 12
-33 0 -63 -3 -66 -7z"/>
<path d="M155 396 c-18 -13 -17 -15 27 -21 48 -7 105 5 101 21 -5 16 -106 16
-128 0z"/>
<path d="M446 547 c-35 -72 -34 -119 0 -145 27 -19 27 -19 -10 -85 -41 -76
-44 -87 -16 -87 11 0 20 5 20 11 0 21 71 129 85 129 48 0 34 -112 -21 -170
-19 -20 -34 -39 -34 -43 0 -17 29 -4 57 26 114 119 111 205 -9 237 -49 14 -55
30 -34 89 35 98 6 127 -38 38z"/>
</g>
</svg>
