<svg version="1.0" xmlns="http://www.w3.org/2000/svg"
 width="68.000000pt" height="120.000000pt" viewBox="0 0 68.000000 120.000000"
 preserveAspectRatio="xMidYMid meet">
<metadata>
Created by potrace 1.15, written by Peter Selinger 2001-2017
</metadata>
<g transform="translate(0.000000,120.000000) scale(0.100000,-0.100000)"
fill="#000000" stroke="none">
<path d="M94 1024 c-25 -16 -46 -39 -53 -59 -13 -38 -13 -343 1 -351 4 -3 8
-18 8 -33 0 -25 21 -61 58 -100 10 -10 11 -32 6 -85 -4 -39 -10 -75 -14 -81
-4 -5 -10 -28 -14 -50 -3 -22 -11 -62 -17 -90 -16 -79 -16 -99 2 -103 33 -6
61 83 78 253 12 111 20 144 40 155 27 14 41 -7 41 -63 0 -72 21 -241 31 -252
5 -5 9 -17 9 -27 0 -25 29 -68 45 -68 22 0 27 36 10 75 -8 21 -15 52 -15 71 0
18 -4 35 -9 38 -5 3 -12 53 -16 110 -7 102 1 146 26 146 6 0 17 7 25 15 13 13
15 49 11 237 -3 123 -5 224 -6 225 -1 2 -15 16 -32 33 -29 28 -38 30 -103 30
-61 0 -78 -4 -112 -26z m186 -43 c5 -11 10 -40 10 -65 0 -43 -2 -46 -35 -55
-38 -10 -154 -3 -172 11 -8 6 -8 19 -1 46 17 63 42 77 145 81 33 1 45 -3 53
-18z m10 -201 c0 -57 17 -50 -140 -54 -65 -1 -65 -1 -66 39 -2 56 13 65 118
65 88 0 88 0 88 -50z m0 -158 c0 -79 -5 -86 -70 -99 -88 -18 -130 15 -130 104
0 39 2 43 33 51 17 5 62 10 100 11 67 2 67 2 67 -67z"/>
<path d="M590 1033 c-81 -13 -146 -74 -167 -158 -9 -39 0 -85 17 -85 3 0 15
-9 27 -19 18 -17 19 -25 11 -82 -19 -136 -30 -205 -39 -229 -13 -38 -43 -210
-43 -255 -1 -28 4 -40 14 -43 20 -4 49 73 60 158 19 150 62 416 68 422 4 4 22
-1 39 -11 27 -17 32 -26 37 -78 4 -32 3 -98 -3 -148 -5 -49 -9 -97 -10 -105
-1 -21 -19 -116 -31 -170 -18 -74 -31 -133 -37 -167 -4 -28 -2 -33 15 -33 18
0 27 12 38 55 2 6 10 47 18 93 9 46 18 87 20 91 3 4 7 34 10 66 3 33 7 69 10
80 9 47 18 256 11 293 -7 46 -35 64 -115 76 -24 4 -50 12 -57 18 -20 17 -16
82 8 112 20 26 116 76 144 76 8 0 15 6 15 13 0 14 -20 38 -29 36 -4 -1 -17 -4
-31 -6z"/>
</g>
</svg>
