<svg version="1.0" xmlns="http://www.w3.org/2000/svg"
 width="83.000000pt" height="133.000000pt" viewBox="0 0 83.000000 133.000000"
 preserveAspectRatio="xMidYMid meet">
<metadata>
Created by potrace 1.15, written by Peter Selinger 2001-2017
</metadata>
<g transform="translate(0.000000,133.000000) scale(0.100000,-0.100000)"
fill="#000000" stroke="none">
<path d="M513 1178 c-4 -7 -8 -54 -10 -104 -4 -141 -10 -166 -57 -220 -100
-116 -105 -120 -105 -99 -1 62 -15 176 -22 181 -5 3 -9 14 -9 25 0 10 -9 41
-21 67 -11 26 -27 62 -35 81 -8 18 -18 30 -22 27 -11 -12 -1 -157 15 -221 38
-151 35 -247 -10 -325 -15 -25 -27 -51 -27 -58 0 -7 -18 -40 -40 -72 -22 -32
-40 -63 -40 -68 0 -5 -9 -17 -20 -27 -11 -10 -20 -30 -20 -45 0 -31 61 -153
93 -188 25 -27 60 -25 65 3 2 11 14 43 27 70 12 28 31 68 41 90 9 22 19 43 21
47 2 5 -2 8 -9 8 -7 0 -25 -19 -40 -43 -65 -102 -83 -104 -113 -11 -17 55 -17
55 10 96 15 23 41 67 58 97 49 91 41 88 166 63 60 -12 138 -22 174 -22 72 0
66 6 99 -95 7 -22 15 -42 18 -45 3 -3 14 -29 23 -58 15 -47 15 -57 2 -95 -8
-23 -19 -43 -25 -45 -5 -2 -10 -9 -10 -15 0 -7 -11 -25 -25 -41 -24 -28 -24
-28 -67 7 -33 27 -46 47 -56 84 -8 26 -18 59 -24 73 -10 24 -11 24 -19 5 -12
-30 -10 -101 3 -132 15 -36 58 -83 75 -83 7 0 13 -3 13 -8 0 -4 13 -13 30 -20
26 -12 33 -11 57 6 16 11 37 31 48 44 83 100 89 141 40 272 -49 132 -75 213
-75 232 0 19 22 86 30 94 3 3 12 25 20 50 7 25 21 63 30 85 37 87 40 97 40
125 0 36 -26 41 -35 8 -3 -13 -10 -32 -15 -43 -52 -116 -68 -154 -74 -178 -9
-39 -31 -33 -46 13 -7 22 -16 40 -19 40 -4 0 -15 13 -24 30 -10 16 -25 36 -33
45 -13 12 -16 37 -15 117 1 55 4 104 6 108 7 11 -15 80 -25 80 -5 0 -12 -6
-17 -12z m49 -398 c7 -14 15 -27 18 -30 3 -3 18 -23 33 -46 23 -34 27 -48 21
-81 -6 -40 -6 -40 -68 -27 -33 7 -96 18 -138 25 -43 6 -78 14 -78 17 0 6 37
55 74 97 14 17 26 33 26 38 0 4 14 23 32 43 32 35 32 35 50 12 9 -13 23 -34
30 -48z"/>
</g>
</svg>
