<svg version="1.0" xmlns="http://www.w3.org/2000/svg"
 width="57.000000pt" height="79.000000pt" viewBox="0 0 57.000000 79.000000"
 preserveAspectRatio="xMidYMid meet">
<metadata>
Created by potrace 1.15, written by Peter Selinger 2001-2017
</metadata>
<g transform="translate(0.000000,79.000000) scale(0.100000,-0.100000)"
fill="#000000" stroke="none">
<path d="M310 573 c0 -74 -15 -143 -32 -143 -4 0 -8 -6 -8 -13 0 -14 -61 -87
-72 -87 -5 0 -8 13 -8 30 0 48 -77 186 -95 168 -7 -6 22 -94 40 -122 20 -30
14 -106 -10 -126 -8 -7 -15 -20 -15 -29 0 -9 -9 -31 -20 -49 -33 -53 -26 -81
30 -127 28 -22 50 -48 50 -57 0 -10 7 -18 15 -18 9 0 18 8 21 18 4 9 15 37 26
61 10 23 18 50 16 60 -5 23 -32 20 -37 -4 -2 -11 -9 -28 -16 -38 -11 -16 -14
-15 -39 9 -29 29 -33 56 -13 97 12 27 12 27 154 27 142 0 142 0 158 -34 14
-29 15 -40 4 -69 -7 -19 -21 -45 -31 -58 -18 -24 -18 -24 -36 -3 -9 12 -24 31
-32 43 -37 54 -41 3 -4 -63 36 -65 61 -63 113 11 23 32 41 68 41 81 0 12 -13
49 -30 82 -38 75 -38 103 1 187 32 68 43 133 24 139 -10 4 -55 -81 -55 -104 0
-7 -4 -12 -10 -12 -5 0 -10 -9 -10 -20 0 -28 -26 -25 -57 6 -23 23 -25 33 -25
102 1 75 -12 132 -29 132 -5 0 -9 -35 -9 -77z m37 -185 c26 -30 49 -67 58 -95
6 -23 5 -23 -94 -23 -61 0 -101 4 -101 10 0 6 3 10 8 10 4 1 27 27 52 60 25
33 48 59 51 60 3 0 15 -10 26 -22z"/>
</g>
</svg>
