<svg version="1.0" xmlns="http://www.w3.org/2000/svg"
 width="57.000000pt" height="79.000000pt" viewBox="0 0 57.000000 79.000000"
 preserveAspectRatio="xMidYMid meet">
<metadata>
Created by potrace 1.15, written by Peter Selinger 2001-2017
</metadata>
<g transform="translate(0.000000,79.000000) scale(0.100000,-0.100000)"
fill="#000000" stroke="none">
<path d="M311 573 c-2 -162 -8 -203 -30 -203 -8 0 -31 50 -31 67 0 7 -4 13 -8
13 -5 0 -15 12 -23 28 -17 32 -60 73 -70 66 -8 -5 -2 -31 11 -49 18 -24 90
-170 90 -182 0 -7 -16 -37 -35 -67 -40 -63 -43 -86 -16 -110 15 -14 24 -15 40
-6 25 13 25 14 6 33 -13 13 -13 19 0 45 9 16 22 35 29 41 35 29 26 -90 -9
-129 -18 -20 -10 -52 13 -48 16 3 47 52 54 84 3 13 13 0 32 -43 18 -40 35 -63
45 -63 10 0 31 32 59 90 40 84 42 91 28 113 -9 12 -29 33 -46 45 -33 25 -37
43 -16 64 7 8 28 43 47 78 19 36 38 68 44 72 5 4 6 10 2 14 -9 9 -49 -28 -68
-63 -8 -14 -28 -41 -45 -60 -48 -52 -55 -33 -58 155 -2 153 -9 192 -35 192 -4
0 -9 -80 -10 -177z m47 -242 c12 -7 12 -12 1 -30 -8 -11 -17 -21 -22 -21 -12
0 -20 28 -13 45 6 17 15 19 34 6z m67 -66 c30 -29 30 -34 4 -90 -20 -43 -39
-59 -39 -33 0 6 -6 19 -14 27 -27 30 -28 64 -4 93 13 15 24 28 26 28 2 0 14
-11 27 -25z"/>
</g>
</svg>
