<svg version="1.0" xmlns="http://www.w3.org/2000/svg"
 width="53.000000pt" height="65.000000pt" viewBox="0 0 53.000000 65.000000"
 preserveAspectRatio="xMidYMid meet">
<metadata>
Created by potrace 1.15, written by Peter Selinger 2001-2017
</metadata>
<g transform="translate(0.000000,65.000000) scale(0.100000,-0.100000)"
fill="#000000" stroke="none">
<path d="M267 498 c-2 -7 -2 -40 1 -74 5 -63 -9 -106 -43 -134 -14 -12 -20 -8
-46 23 -52 63 -81 39 -38 -30 18 -28 20 -44 16 -86 -4 -28 -11 -55 -17 -61 -5
-5 -10 -24 -10 -41 0 -25 6 -35 28 -44 25 -12 29 -11 47 14 11 14 29 42 40 62
19 33 25 37 70 39 77 5 87 -8 40 -50 -45 -40 -53 -42 -61 -21 -7 18 -34 20
-34 3 0 -24 21 -87 31 -93 5 -4 39 23 75 59 66 65 66 65 60 138 -6 56 -3 82 8
110 17 40 21 78 8 78 -14 0 -52 -80 -52 -109 0 -44 -10 -43 -43 2 -28 38 -31
50 -32 123 -1 44 -5 86 -9 92 -9 16 -33 15 -39 0z m48 -245 c25 -38 25 -38
-26 -41 -28 -2 -53 -2 -55 0 -7 8 31 78 43 78 7 0 24 -17 38 -37z m-75 -91 c0
-13 -39 -46 -46 -39 -12 12 8 47 27 47 10 0 19 -4 19 -8z"/>
</g>
</svg>
