<svg version="1.0" xmlns="http://www.w3.org/2000/svg"
 width="73.000000pt" height="101.000000pt" viewBox="0 0 73.000000 101.000000"
 preserveAspectRatio="xMidYMid meet">
<metadata>
Created by potrace 1.15, written by Peter Selinger 2001-2017
</metadata>
<g transform="translate(0.000000,101.000000) scale(0.100000,-0.100000)"
fill="#000000" stroke="none">
<path d="M339 949 c-12 -14 -15 -32 -12 -60 12 -84 -45 -188 -112 -203 -16 -4
-38 -9 -47 -12 -11 -3 -18 0 -18 9 0 19 -50 69 -64 64 -18 -6 -29 -86 -30
-227 -2 -279 37 -396 162 -482 53 -37 130 -46 225 -28 130 24 168 71 203 252
13 67 24 146 24 176 0 29 4 72 9 95 5 23 15 74 21 112 7 39 17 84 23 102 8 25
7 34 -6 47 -37 37 -54 19 -78 -87 -13 -53 -15 -57 -43 -57 -35 0 -96 20 -114
37 -7 7 -21 18 -30 25 -41 31 -49 80 -27 168 7 31 -27 90 -52 90 -10 0 -25
-10 -34 -21z m57 -297 c27 -25 83 -50 143 -63 52 -11 76 -33 69 -66 -3 -16 8
-15 -358 -13 -100 0 -100 0 -100 38 0 48 14 62 62 62 33 0 97 26 123 51 14 14
39 11 61 -9z m192 -231 c11 -6 12 -21 5 -62 -8 -54 -9 -54 -43 -53 -19 1 -110
2 -202 3 -92 2 -169 5 -172 9 -2 4 -7 26 -11 49 -6 39 -5 44 17 52 29 12 388
14 406 2z m-75 -206 c57 -3 62 -7 46 -36 -32 -60 -115 -105 -184 -100 -38 4
-106 34 -125 58 -25 30 -50 67 -50 75 0 9 140 16 210 10 30 -3 77 -6 103 -7z"/>
</g>
</svg>
