<svg version="1.0" xmlns="http://www.w3.org/2000/svg"
 width="71.000000pt" height="65.000000pt" viewBox="0 0 71.000000 65.000000"
 preserveAspectRatio="xMidYMid meet">
<metadata>
Created by potrace 1.15, written by Peter Selinger 2001-2017
</metadata>
<g transform="translate(0.000000,65.000000) scale(0.100000,-0.100000)"
fill="#000000" stroke="none">
<path d="M307 552 c-9 -21 -17 -44 -17 -50 0 -7 -4 -12 -9 -12 -5 0 -11 -9
-14 -20 -8 -31 -20 -25 -73 39 -27 33 -55 62 -62 65 -20 9 -62 -4 -62 -19 0
-6 30 -48 68 -91 62 -73 92 -127 92 -166 0 -9 -16 -31 -35 -49 -41 -39 -54
-82 -31 -105 9 -8 16 -20 16 -25 0 -5 14 -22 32 -39 31 -30 31 -30 56 7 14 21
36 50 50 65 35 38 20 46 -30 18 -40 -22 -42 -22 -55 -5 -33 47 -9 69 81 73 69
4 75 3 86 -19 7 -12 21 -32 31 -43 34 -36 19 -54 -21 -26 -30 21 -40 18 -40
-13 0 -22 33 -54 70 -69 28 -11 70 -3 70 14 0 6 7 19 15 29 22 23 11 57 -31
105 -33 37 -34 42 -28 94 6 50 21 80 41 80 16 1 133 117 133 133 0 9 -8 20
-17 26 -14 7 -29 -3 -80 -55 -34 -35 -66 -64 -71 -64 -5 0 -17 18 -27 40 -10
22 -22 40 -27 40 -4 0 -8 5 -8 11 0 6 -9 24 -21 40 -30 42 -61 39 -82 -9z m63
-112 c11 -21 20 -42 20 -45 0 -9 -64 -5 -80 5 -13 8 -13 14 4 45 11 19 23 35
27 35 5 0 18 -18 29 -40z m27 -127 c2 -6 -12 -9 -34 -7 -21 2 -46 3 -55 3 -10
1 -18 5 -18 11 0 13 103 7 107 -7z m-112 -12 c3 -5 1 -12 -4 -15 -5 -3 -11 1
-15 9 -6 16 9 21 19 6z"/>
</g>
</svg>
