<svg version="1.0" xmlns="http://www.w3.org/2000/svg"
 width="67.000000pt" height="83.000000pt" viewBox="0 0 67.000000 83.000000"
 preserveAspectRatio="xMidYMid meet">
<metadata>
Created by potrace 1.15, written by Peter Selinger 2001-2017
</metadata>
<g transform="translate(0.000000,83.000000) scale(0.100000,-0.100000)"
fill="#000000" stroke="none">
<path d="M307 604 c-4 -4 -7 -27 -7 -51 0 -62 -24 -83 -95 -83 -64 0 -78 16
-54 59 11 20 24 27 59 31 31 3 45 10 45 20 0 23 -72 24 -115 3 -33 -17 -35
-21 -41 -83 -4 -36 -7 -146 -8 -245 -1 -180 -1 -180 24 -208 24 -25 31 -27
108 -27 45 0 125 5 177 10 80 9 99 14 120 35 25 25 25 25 28 256 3 197 2 233
-12 254 -18 28 -67 40 -111 27 -48 -14 -38 -36 20 -42 49 -5 50 -6 53 -42 3
-36 3 -36 -77 -40 -80 -3 -80 -3 -83 61 -3 59 -14 82 -31 65z m193 -204 c0
-24 -5 -42 -12 -44 -7 -3 -89 -7 -181 -10 -168 -5 -168 -5 -165 37 3 42 3 42
153 47 83 3 162 7 178 8 25 2 27 0 27 -38z m-5 -140 c0 -45 0 -45 -178 -48
-178 -2 -178 -2 -175 40 3 43 3 43 103 49 55 3 134 5 175 5 75 -1 75 -1 75
-46z m-9 -132 c-3 -18 -11 -37 -17 -43 -6 -6 -69 -10 -157 -10 -147 0 -147 0
-160 28 -26 55 -19 57 169 57 172 0 172 0 165 -32z"/>
</g>
</svg>
