<svg version="1.0" xmlns="http://www.w3.org/2000/svg"
 width="43.000000pt" height="75.000000pt" viewBox="0 0 43.000000 75.000000"
 preserveAspectRatio="xMidYMid meet">
<metadata>
Created by potrace 1.15, written by Peter Selinger 2001-2017
</metadata>
<g transform="translate(0.000000,75.000000) scale(0.100000,-0.100000)"
fill="#000000" stroke="none">
<path d="M72 678 c-17 -8 -22 -19 -20 -37 3 -27 8 -29 133 -46 88 -12 106 -17
125 -37 43 -47 12 -88 -66 -88 -46 0 -127 -20 -136 -34 -9 -13 1 -106 12 -121
8 -10 12 -31 28 -140 13 -87 21 -107 40 -103 15 3 17 17 15 98 -1 52 -5 118
-8 146 -6 47 -5 51 20 62 14 7 39 12 55 12 16 0 44 9 62 20 18 11 41 20 50 20
19 0 48 52 48 86 0 31 -39 88 -75 110 -36 23 -60 31 -145 50 -76 16 -106 17
-138 2z"/>
</g>
</svg>
