<svg version="1.0" xmlns="http://www.w3.org/2000/svg"
 width="73.000000pt" height="143.000000pt" viewBox="0 0 73.000000 143.000000"
 preserveAspectRatio="xMidYMid meet">
<metadata>
Created by potrace 1.15, written by Peter Selinger 2001-2017
</metadata>
<g transform="translate(0.000000,143.000000) scale(0.100000,-0.100000)"
fill="#000000" stroke="none">
<path d="M298 1297 c-37 -10 -47 -28 -30 -54 5 -9 52 -13 152 -15 144 -3 144
-3 159 -29 13 -24 13 -29 -7 -56 -12 -17 -43 -41 -69 -53 -27 -12 -50 -25 -53
-29 -3 -4 -21 -18 -40 -31 -19 -13 -41 -30 -48 -37 -7 -7 -17 -13 -22 -13 -17
0 -79 -61 -95 -92 -25 -52 -14 -178 17 -178 4 0 8 -5 8 -10 0 -6 9 -21 20 -32
11 -12 30 -42 41 -66 20 -40 21 -54 15 -152 -4 -60 -11 -133 -17 -162 -5 -29
-12 -90 -16 -135 -5 -73 -3 -83 11 -83 9 0 19 8 22 18 3 9 10 26 14 37 35 83
66 454 40 470 -5 3 -10 18 -10 33 0 17 -13 43 -35 67 -36 41 -40 50 -49 119
-5 34 -1 42 28 70 18 17 70 54 116 81 45 28 101 65 124 83 91 72 101 86 99
146 -2 41 -8 55 -35 83 -32 33 -32 33 -167 32 -75 -1 -153 -6 -173 -12z"/>
<path d="M670 490 c0 -5 5 -10 11 -10 5 0 7 5 4 10 -3 6 -8 10 -11 10 -2 0 -4
-4 -4 -10z"/>
</g>
</svg>
