<svg version="1.0" xmlns="http://www.w3.org/2000/svg"
 width="71.000000pt" height="123.000000pt" viewBox="0 0 71.000000 123.000000"
 preserveAspectRatio="xMidYMid meet">
<metadata>
Created by potrace 1.15, written by Peter Selinger 2001-2017
</metadata>
<g transform="translate(0.000000,123.000000) scale(0.100000,-0.100000)"
fill="#000000" stroke="none">
<path d="M213 1017 c-67 -13 -94 -30 -76 -48 6 -6 67 -12 144 -13 148 -4 207
-17 244 -54 45 -45 26 -86 -55 -124 -19 -8 -52 -23 -73 -33 -21 -10 -53 -35
-72 -57 -41 -48 -51 -105 -34 -198 32 -184 -7 -282 -140 -354 -32 -17 -64 -47
-57 -54 10 -10 56 -10 86 -1 47 16 135 91 164 142 30 53 40 135 26 221 -6 38
-8 95 -4 128 7 59 7 59 78 107 39 26 88 55 109 65 56 26 87 61 87 100 0 39
-47 109 -87 130 -87 44 -234 63 -340 43z"/>
</g>
</svg>
