<svg version="1.0" xmlns="http://www.w3.org/2000/svg"
 width="61.000000pt" height="111.000000pt" viewBox="0 0 61.000000 111.000000"
 preserveAspectRatio="xMidYMid meet">
<metadata>
Created by potrace 1.15, written by Peter Selinger 2001-2017
</metadata>
<g transform="translate(0.000000,111.000000) scale(0.100000,-0.100000)"
fill="#000000" stroke="none">
<path d="M122 968 c-7 -7 -12 -16 -12 -21 0 -14 27 -37 44 -37 8 0 18 -4 21
-10 3 -5 25 -10 49 -10 52 0 152 -17 186 -31 75 -32 75 -32 78 -85 3 -46 0
-53 -24 -69 -15 -9 -76 -35 -137 -56 -104 -36 -126 -49 -127 -75 0 -7 15 -43
33 -80 68 -145 32 -243 -141 -384 -51 -42 -61 -54 -51 -66 18 -22 39 -17 84
23 23 21 59 54 81 73 50 44 104 114 104 134 0 8 4 17 9 20 5 4 15 37 21 75 13
68 12 69 -19 130 -17 34 -29 66 -26 71 3 5 21 12 40 16 20 3 38 10 41 15 3 5
16 9 29 9 13 0 27 5 30 10 3 6 14 10 24 10 9 0 38 13 63 29 35 22 47 37 52 63
14 77 -29 147 -114 186 -85 39 -318 80 -338 60z"/>
</g>
</svg>
