<svg version="1.0" xmlns="http://www.w3.org/2000/svg"
 width="66.000000pt" height="88.000000pt" viewBox="0 0 66.000000 88.000000"
 preserveAspectRatio="xMidYMid meet">
<metadata>
Created by potrace 1.15, written by Peter Selinger 2001-2017
</metadata>
<g transform="translate(0.000000,88.000000) scale(0.100000,-0.100000)"
fill="#000000" stroke="none">
<path d="M154 670 c-27 -11 -57 -100 -52 -155 2 -32 7 -40 23 -40 17 0 21 9
27 63 9 82 19 94 77 90 46 -3 46 -3 46 -85 0 -52 5 -86 13 -94 23 -24 37 8 42
94 5 82 5 82 58 91 29 5 55 7 58 4 2 -3 10 -34 16 -69 12 -68 28 -96 48 -84 8
5 10 19 5 39 -3 17 -9 50 -12 73 -5 39 -3 43 21 49 15 3 25 11 23 18 -4 14
-361 19 -393 6z"/>
<path d="M141 421 c-14 -4 -26 -12 -29 -19 -3 -9 15 -12 65 -12 86 0 96 -7 88
-54 -6 -32 -11 -36 -39 -37 -49 -1 -100 -23 -113 -50 -16 -31 -17 -91 -1 -107
8 -8 59 -12 162 -12 192 0 194 -1 198 -54 2 -28 8 -41 18 -41 25 0 25 76 0
108 -21 27 -21 27 -170 27 -122 0 -151 3 -164 16 -39 38 -11 50 139 58 212 12
242 25 230 101 -6 45 -22 61 -75 75 -39 11 -271 12 -309 1z m323 -47 c18 -17
20 -32 7 -53 -11 -17 -155 -29 -165 -13 -11 18 15 71 37 75 53 10 106 6 121
-9z"/>
</g>
</svg>
