<svg version="1.0" xmlns="http://www.w3.org/2000/svg"
 width="59.000000pt" height="83.000000pt" viewBox="0 0 59.000000 83.000000"
 preserveAspectRatio="xMidYMid meet">
<metadata>
Created by potrace 1.15, written by Peter Selinger 2001-2017
</metadata>
<g transform="translate(0.000000,83.000000) scale(0.100000,-0.100000)"
fill="#000000" stroke="none">
<path d="M129 604 c-45 -19 -59 -48 -59 -125 0 -70 19 -78 32 -14 5 22 15 46
23 55 8 9 15 22 15 28 0 13 39 27 48 17 4 -4 9 -37 12 -73 5 -67 5 -67 50 -67
33 0 45 4 45 15 0 9 -11 16 -27 18 -22 3 -29 10 -34 37 -11 61 -4 70 54 73 52
3 52 3 52 -46 0 -77 19 -94 100 -90 57 3 65 5 65 23 0 18 -7 20 -55 20 -55 0
-55 0 -58 46 -3 46 -3 46 43 52 50 5 72 18 61 36 -11 18 -323 13 -367 -5z"/>
<path d="M87 343 c-4 -3 -7 -12 -7 -19 0 -10 24 -14 88 -16 87 -3 87 -3 90
-37 4 -43 -8 -51 -81 -51 -48 0 -62 -4 -83 -25 -23 -23 -25 -30 -19 -83 8 -66
20 -79 83 -88 61 -9 297 3 322 16 47 25 18 31 -127 25 -82 -4 -166 -3 -188 2
-37 8 -40 11 -40 43 0 51 31 62 208 72 180 10 191 14 182 71 -8 46 -22 78 -39
89 -14 10 -380 10 -389 1z m349 -41 c6 -4 14 -17 18 -29 9 -29 -17 -43 -86
-46 -53 -2 -53 -2 -56 35 -3 31 0 37 20 41 39 7 92 7 104 -1z"/>
</g>
</svg>
