<svg version="1.0" xmlns="http://www.w3.org/2000/svg"
 width="67.000000pt" height="94.000000pt" viewBox="0 0 67.000000 94.000000"
 preserveAspectRatio="xMidYMid meet">
<metadata>
Created by potrace 1.15, written by Peter Selinger 2001-2017
</metadata>
<g transform="translate(0.000000,94.000000) scale(0.100000,-0.100000)"
fill="#000000" stroke="none">
<path d="M186 539 c-27 -10 -53 -24 -58 -31 -42 -64 -49 -81 -46 -110 3 -34
38 -56 38 -23 0 22 38 95 50 95 5 0 19 -23 31 -50 23 -54 49 -76 67 -58 7 7 2
26 -19 64 -37 68 -36 76 2 72 25 -2 36 -11 53 -43 41 -77 73 -109 100 -99 24
9 20 27 -14 59 -25 24 -60 77 -60 92 0 1 14 3 30 3 37 0 72 -34 100 -97 17
-39 22 -43 55 -43 25 0 44 8 62 26 22 22 25 32 20 72 -6 53 -33 82 -78 82 -36
0 -39 -23 -5 -45 33 -22 39 -41 21 -76 -16 -30 -35 -31 -35 -1 -1 39 -45 95
-90 113 -59 24 -160 23 -224 -2z"/>
<path d="M77 303 c-4 -3 -2 -12 4 -20 8 -9 38 -13 99 -13 104 0 120 -5 120
-35 0 -19 -7 -23 -46 -29 -26 -3 -66 -6 -88 -6 -51 0 -66 -13 -66 -59 1 -99
16 -106 252 -98 183 5 213 12 188 42 -11 13 -35 14 -169 9 -86 -3 -169 -1
-186 4 -32 9 -45 39 -23 53 7 5 93 9 190 9 178 0 178 0 194 25 11 17 15 37 11
61 -11 65 -7 64 -252 64 -122 0 -225 -3 -228 -7z m422 -52 c14 -25 -1 -37 -60
-45 -61 -9 -99 6 -99 39 0 24 1 25 75 25 63 0 76 -3 84 -19z"/>
</g>
</svg>
