<svg version="1.0" xmlns="http://www.w3.org/2000/svg"
 width="67.000000pt" height="87.000000pt" viewBox="0 0 67.000000 87.000000"
 preserveAspectRatio="xMidYMid meet">
<metadata>
Created by potrace 1.15, written by Peter Selinger 2001-2017
</metadata>
<g transform="translate(0.000000,87.000000) scale(0.100000,-0.100000)"
fill="#000000" stroke="none">
<path d="M120 588 c-17 -19 -20 -35 -20 -124 0 -106 9 -131 44 -118 13 5 16
22 16 98 0 50 4 97 9 104 5 8 21 12 37 10 29 -3 29 -3 32 -100 3 -103 16 -134
47 -108 11 9 15 35 15 106 0 98 5 110 46 100 23 -6 24 -10 24 -84 0 -109 11
-122 99 -122 39 0 72 5 79 12 18 18 15 123 -4 139 -26 21 -50 -1 -46 -44 3
-32 0 -37 -23 -43 -15 -4 -30 -3 -35 2 -4 5 -11 40 -15 78 -7 69 -7 69 57 64
34 -3 69 -3 75 -1 18 7 16 40 -3 47 -9 3 -105 6 -214 6 -192 0 -200 -1 -220
-22z"/>
<path d="M132 314 c-27 -6 -41 -33 -22 -44 6 -4 52 -5 102 -2 90 5 90 5 86
-24 -3 -28 -5 -29 -77 -36 -46 -5 -81 -14 -93 -24 -24 -23 -25 -103 0 -133 17
-22 19 -22 137 -10 66 6 152 9 192 6 78 -6 97 3 69 31 -14 15 -42 17 -184 17
-167 0 -167 0 -170 29 -2 16 2 34 8 40 7 7 67 11 176 11 162 0 166 0 185 24
30 37 35 70 12 92 -18 18 -37 20 -209 24 -104 2 -199 1 -212 -1z m378 -58 c0
-24 -25 -35 -86 -38 -58 -3 -59 -2 -62 25 -3 27 -3 27 72 27 58 0 76 -3 76
-14z"/>
</g>
</svg>
