<svg version="1.0" xmlns="http://www.w3.org/2000/svg"
 width="65.000000pt" height="90.000000pt" viewBox="0 0 65.000000 90.000000"
 preserveAspectRatio="xMidYMid meet">
<metadata>
Created by potrace 1.15, written by Peter Selinger 2001-2017
</metadata>
<g transform="translate(0.000000,90.000000) scale(0.100000,-0.100000)"
fill="#000000" stroke="none">
<path d="M175 660 c-46 -23 -85 -74 -85 -113 0 -20 10 -33 40 -52 49 -31 51
-50 5 -69 -43 -18 -55 -47 -55 -134 0 -45 -7 -81 -20 -111 -25 -54 -20 -61 13
-21 30 35 47 87 47 142 0 55 14 83 55 108 32 20 36 26 33 59 -2 29 -9 39 -35
51 -40 18 -46 62 -11 81 18 10 24 8 39 -12 10 -13 23 -44 29 -69 20 -76 31
-99 62 -125 58 -49 79 -25 25 29 -26 26 -37 48 -46 93 -7 35 -20 68 -31 78
-24 22 -25 31 -5 39 34 13 64 -17 105 -101 47 -95 78 -128 127 -136 68 -11
121 41 93 92 -13 25 -66 29 -96 6 -35 -27 -48 -17 -86 60 -20 41 -34 75 -32
75 12 0 51 -24 76 -47 33 -31 92 -36 131 -10 60 39 10 127 -57 101 -24 -9 -19
-24 8 -24 30 0 40 -13 31 -40 -11 -35 -64 -26 -114 19 -23 21 -56 42 -73 45
-60 12 -133 6 -173 -14z m355 -200 c0 -24 -40 -36 -69 -20 -39 20 -21 36 42
39 21 1 27 -4 27 -19z"/>
<path d="M204 373 c-3 -10 -14 -37 -26 -60 -17 -35 -18 -46 -8 -58 18 -21 39
-19 105 11 59 27 80 24 73 -12 -2 -12 -15 -21 -38 -25 -89 -14 -173 -87 -168
-144 3 -26 7 -30 36 -33 24 -3 49 7 95 36 72 45 134 60 178 42 36 -15 39 -52
7 -74 -30 -22 -42 -20 -76 9 -37 31 -42 31 -42 1 0 -33 35 -56 86 -56 48 0 75
20 94 68 12 30 11 35 -10 58 -50 52 -152 51 -233 -2 -21 -14 -49 -29 -62 -34
-21 -8 -25 -7 -25 9 0 33 52 66 131 84 41 9 101 22 133 29 65 14 82 31 73 70
-15 56 -146 66 -242 18 -33 -16 -62 -30 -63 -30 -2 0 -1 22 3 49 4 31 3 51 -4
56 -6 3 -14 -2 -17 -12z m276 -79 c19 -22 -6 -44 -59 -51 -44 -6 -53 7 -31 48
13 24 72 26 90 3z"/>
</g>
</svg>
