<svg version="1.0" xmlns="http://www.w3.org/2000/svg"
 width="65.000000pt" height="79.000000pt" viewBox="0 0 65.000000 79.000000"
 preserveAspectRatio="xMidYMid meet">
<metadata>
Created by potrace 1.15, written by Peter Selinger 2001-2017
</metadata>
<g transform="translate(0.000000,79.000000) scale(0.100000,-0.100000)"
fill="#000000" stroke="none">
<path d="M325 730 c-124 -12 -195 -22 -195 -29 0 -3 -12 -12 -27 -18 -47 -21
-71 -102 -60 -197 7 -61 50 -220 76 -281 34 -79 47 -101 77 -134 50 -56 118
-70 219 -46 87 20 102 35 152 145 58 128 67 166 67 301 1 112 -2 131 -22 170
-44 85 -110 106 -287 89z m159 -51 c61 -22 70 -47 70 -203 1 -133 -1 -147 -32
-243 -18 -56 -38 -106 -45 -111 -76 -61 -181 -69 -233 -18 -22 22 -60 92 -78
141 -10 28 -24 64 -31 80 -7 17 -20 71 -30 120 -17 87 -16 92 1 144 19 55 19
55 79 68 50 11 161 25 249 32 11 0 33 -4 50 -10z"/>
<path d="M296 491 c-22 -3 -41 -11 -43 -16 -4 -13 23 -44 70 -79 60 -46 140
-29 130 27 -10 51 -77 79 -157 68z"/>
</g>
</svg>
