<svg version="1.0" xmlns="http://www.w3.org/2000/svg"
 width="51.000000pt" height="47.000000pt" viewBox="0 0 51.000000 47.000000"
 preserveAspectRatio="xMidYMid meet">
<metadata>
Created by potrace 1.15, written by Peter Selinger 2001-2017
</metadata>
<g transform="translate(0.000000,47.000000) scale(0.100000,-0.100000)"
fill="#000000" stroke="none">
<path d="M225 335 c-27 -7 -65 -14 -83 -14 -34 -1 -34 -1 -28 -48 17 -150 30
-188 59 -177 9 3 17 11 17 18 0 12 81 14 144 2 38 -7 38 -7 33 61 -9 104 -17
136 -41 155 -24 20 -33 20 -101 3z m65 -62 c0 -9 5 -31 12 -50 6 -18 10 -35 7
-37 -3 -3 -31 -8 -62 -12 -49 -6 -57 -4 -57 10 0 11 9 16 28 16 16 0 37 7 48
15 19 15 19 15 0 30 -12 9 -30 12 -50 8 -17 -3 -35 -6 -41 -7 -5 0 -11 9 -13
22 -3 21 0 22 62 22 55 0 66 -3 66 -17z"/>
</g>
</svg>
