<svg version="1.0" xmlns="http://www.w3.org/2000/svg"
 width="45.000000pt" height="47.000000pt" viewBox="0 0 45.000000 47.000000"
 preserveAspectRatio="xMidYMid meet">
<metadata>
Created by potrace 1.15, written by Peter Selinger 2001-2017
</metadata>
<g transform="translate(0.000000,47.000000) scale(0.100000,-0.100000)"
fill="#000000" stroke="none">
<path d="M150 341 c0 -6 -6 -11 -14 -11 -26 0 -36 -170 -14 -240 15 -48 22
-51 79 -38 24 5 70 13 102 18 85 12 87 15 87 140 0 88 -3 110 -17 121 -21 18
-223 26 -223 10z m134 -47 c46 -7 46 -7 46 -84 0 -78 0 -78 -57 -83 -32 -3
-67 -7 -78 -9 -18 -3 -20 3 -23 76 -2 44 -1 85 2 93 6 14 38 16 110 7z"/>
<path d="M222 222 c-35 -10 -28 -25 17 -41 37 -14 43 -14 57 1 36 36 -7 59
-74 40z"/>
</g>
</svg>
