<svg version="1.0" xmlns="http://www.w3.org/2000/svg"
 width="81.000000pt" height="73.000000pt" viewBox="0 0 81.000000 73.000000"
 preserveAspectRatio="xMidYMid meet">
<metadata>
Created by potrace 1.15, written by Peter Selinger 2001-2017
</metadata>
<g transform="translate(0.000000,73.000000) scale(0.100000,-0.100000)"
fill="#000000" stroke="none">
<path d="M426 580 c-16 -5 -52 -12 -80 -15 -108 -12 -141 -17 -151 -26 -5 -5
-15 -9 -23 -9 -33 0 -82 -86 -82 -145 0 -24 4 -46 9 -50 6 -3 6 -17 1 -34 -4
-15 -4 -35 1 -42 5 -8 9 -28 9 -44 0 -33 32 -128 51 -151 6 -8 19 -14 28 -14
9 0 21 -4 27 -10 6 -6 65 -10 139 -9 72 1 161 0 199 -1 38 -1 72 3 75 7 3 5
27 24 54 42 26 17 47 36 47 42 0 5 9 29 20 51 11 23 20 48 20 55 0 7 5 13 10
13 6 0 10 16 10 35 0 19 -4 35 -10 35 -6 0 -10 28 -10 64 0 36 -4 68 -10 71
-5 3 -10 15 -10 25 0 10 -15 34 -33 52 -64 64 -68 66 -169 66 -51 0 -106 -4
-122 -8z m190 -123 c20 -23 24 -38 21 -73 -2 -25 -1 -64 4 -87 18 -93 -12
-135 -106 -148 -27 -4 -67 -12 -87 -17 -43 -11 -178 10 -214 33 -21 14 -39 68
-48 145 -2 19 -6 42 -10 50 -8 19 25 74 57 94 13 9 48 17 80 17 32 1 60 5 63
10 3 5 53 8 111 6 102 -2 106 -3 129 -30z"/>
<path d="M360 352 c-35 -5 -122 -31 -139 -41 -20 -13 -6 -28 47 -52 42 -19 58
-21 152 -15 90 5 108 9 123 27 23 29 21 56 -5 71 -22 12 -122 18 -178 10z"/>
</g>
</svg>
