<svg version="1.0" xmlns="http://www.w3.org/2000/svg"
 width="83.000000pt" height="83.000000pt" viewBox="0 0 83.000000 83.000000"
 preserveAspectRatio="xMidYMid meet">
<metadata>
Created by potrace 1.15, written by Peter Selinger 2001-2017
</metadata>
<g transform="translate(0.000000,83.000000) scale(0.100000,-0.100000)"
fill="#000000" stroke="none">
<path d="M440 728 c-63 -3 -123 -4 -133 -1 -10 3 -47 -1 -82 -8 -49 -9 -67
-10 -78 -1 -27 23 -54 -25 -67 -121 -14 -92 -5 -211 26 -361 8 -38 14 -84 14
-103 0 -66 38 -107 85 -92 6 2 80 6 165 10 85 3 173 12 195 19 22 7 61 14 87
17 36 4 57 13 83 37 19 18 35 40 35 48 0 9 6 18 12 20 20 7 27 165 15 357 -7
112 -7 115 -39 146 -31 31 -38 33 -118 36 -47 2 -137 1 -200 -3z m263 -95 c3
-10 6 -40 6 -68 1 -79 11 -208 17 -216 6 -10 7 -169 1 -175 -2 -2 -28 -7 -58
-10 -30 -3 -83 -10 -119 -15 -36 -5 -129 -11 -207 -15 -165 -7 -145 -33 -163
211 -6 83 -15 174 -21 204 -5 30 -9 60 -9 67 0 19 121 30 347 33 186 2 202 0
206 -16z"/>
<path d="M345 464 c-6 -2 -37 -8 -70 -12 -74 -9 -79 -29 -15 -52 25 -9 53 -20
63 -25 10 -4 41 -5 70 -1 29 3 80 9 114 12 40 4 69 13 83 26 27 26 25 34 -11
47 -30 10 -212 14 -234 5z"/>
</g>
</svg>
