<svg version="1.0" xmlns="http://www.w3.org/2000/svg"
 width="83.000000pt" height="59.000000pt" viewBox="0 0 83.000000 59.000000"
 preserveAspectRatio="xMidYMid meet">
<metadata>
Created by potrace 1.15, written by Peter Selinger 2001-2017
</metadata>
<g transform="translate(0.000000,59.000000) scale(0.100000,-0.100000)"
fill="#000000" stroke="none">
<path d="M330 516 c0 -10 -12 -12 -51 -8 -60 6 -120 -12 -138 -41 -12 -18 -11
-22 5 -34 13 -9 20 -10 25 -2 4 6 12 8 18 5 6 -4 37 -2 68 4 63 12 366 24 393
15 18 -6 43 -51 36 -63 -2 -4 0 -37 5 -72 11 -75 11 -132 1 -142 -20 -19 -514
-40 -541 -23 -7 3 -8 29 -4 65 4 40 2 60 -5 60 -15 0 -22 42 -24 133 -1 51 -6
81 -15 88 -7 6 -13 10 -14 8 -16 -74 -22 -267 -10 -317 30 -121 41 -127 219
-118 191 10 333 23 370 35 18 5 39 8 45 5 14 -5 32 37 42 96 5 32 -4 131 -21
220 -7 40 -27 66 -66 86 -38 20 -338 20 -338 0z"/>
<path d="M145 390 c-3 -5 -2 -10 4 -10 5 0 13 5 16 10 3 6 2 10 -4 10 -5 0
-13 -4 -16 -10z"/>
<path d="M390 330 c-105 -10 -160 -50 -88 -64 28 -5 214 1 258 10 8 1 18 3 23
3 14 2 7 30 -10 40 -25 13 -107 18 -183 11z"/>
</g>
</svg>
