<svg version="1.0" xmlns="http://www.w3.org/2000/svg"
 width="49.000000pt" height="61.000000pt" viewBox="0 0 49.000000 61.000000"
 preserveAspectRatio="xMidYMid meet">
<metadata>
Created by potrace 1.15, written by Peter Selinger 2001-2017
</metadata>
<g transform="translate(0.000000,61.000000) scale(0.100000,-0.100000)"
fill="#000000" stroke="none">
<path d="M230 543 c-21 -8 -81 -33 -108 -46 -35 -17 -52 -69 -52 -159 0 -112
21 -178 75 -233 25 -24 61 -52 82 -60 35 -15 42 -15 92 1 61 19 100 55 130
120 17 35 21 64 22 148 0 69 -4 112 -13 127 -22 41 -79 89 -104 89 -13 0 -24
5 -24 10 0 10 -74 13 -100 3z m114 -44 c60 -17 92 -57 104 -131 17 -101 -11
-188 -83 -258 -28 -28 -44 -34 -90 -38 -48 -4 -59 -1 -90 22 -59 46 -76 92
-78 215 -2 129 7 151 72 179 53 23 108 27 165 11z"/>
<path d="M210 309 c-21 -9 -23 -12 -9 -19 24 -14 126 -23 133 -12 15 25 -79
48 -124 31z"/>
</g>
</svg>
