<svg version="1.0" xmlns="http://www.w3.org/2000/svg"
 width="41.000000pt" height="45.000000pt" viewBox="0 0 41.000000 45.000000"
 preserveAspectRatio="xMidYMid meet">
<metadata>
Created by potrace 1.15, written by Peter Selinger 2001-2017
</metadata>
<g transform="translate(0.000000,45.000000) scale(0.100000,-0.100000)"
fill="#000000" stroke="none">
<path d="M286 243 c-24 -13 -33 -13 -49 -3 -11 7 -22 8 -26 3 -3 -5 -26 -10
-51 -12 -50 -2 -57 -7 -61 -36 -4 -37 14 -127 26 -131 7 -3 50 -2 96 3 84 8
84 8 90 98 4 50 6 91 5 92 0 1 -14 -6 -30 -14z m-52 -51 c29 -3 7 -20 -29 -24
-45 -5 -39 -32 8 -35 20 -2 37 1 37 7 0 5 7 10 15 10 8 0 15 -3 15 -7 -1 -23
-22 -33 -83 -39 -67 -7 -67 -7 -67 38 0 25 3 47 6 50 5 5 33 5 98 0z"/>
</g>
</svg>
