<svg version="1.0" xmlns="http://www.w3.org/2000/svg"
 width="71.000000pt" height="79.000000pt" viewBox="0 0 71.000000 79.000000"
 preserveAspectRatio="xMidYMid meet">
<metadata>
Created by potrace 1.15, written by Peter Selinger 2001-2017
</metadata>
<g transform="translate(0.000000,79.000000) scale(0.100000,-0.100000)"
fill="#000000" stroke="none">
<path d="M269 651 c-77 -15 -170 -95 -216 -185 -20 -40 -24 -58 -19 -105 12
-133 27 -179 74 -227 75 -76 117 -94 240 -101 74 -5 162 12 162 31 0 5 3 7 6
3 14 -13 104 49 104 72 0 3 10 17 23 31 46 52 58 147 33 260 -17 74 -93 165
-157 187 -19 6 -52 18 -74 27 -42 16 -114 19 -176 7z m156 -41 c-3 -5 -10 -10
-16 -10 -5 0 -9 5 -9 10 0 6 7 10 16 10 8 0 12 -4 9 -10z m59 -53 c40 -19 59
-34 67 -54 6 -15 18 -44 27 -63 11 -23 17 -60 17 -112 0 -65 -3 -80 -22 -100
-13 -14 -23 -29 -23 -36 0 -6 -13 -19 -30 -29 -16 -9 -30 -20 -30 -24 0 -9
-58 -19 -143 -26 -63 -4 -71 -3 -105 24 -92 70 -130 126 -136 201 -4 52 16
135 38 157 8 9 19 22 23 29 5 7 28 25 53 40 42 25 51 27 127 23 59 -3 96 -12
137 -30z"/>
</g>
</svg>
