<svg version="1.0" xmlns="http://www.w3.org/2000/svg"
 width="53.000000pt" height="43.000000pt" viewBox="0 0 53.000000 43.000000"
 preserveAspectRatio="xMidYMid meet">
<metadata>
Created by potrace 1.15, written by Peter Selinger 2001-2017
</metadata>
<g transform="translate(0.000000,43.000000) scale(0.100000,-0.100000)"
fill="#000000" stroke="none">
<path d="M335 353 c-11 -2 -38 -11 -60 -20 -22 -9 -65 -19 -95 -22 -55 -6 -55
-6 -72 -56 -25 -77 -23 -97 22 -154 40 -51 40 -51 106 -51 36 0 75 5 86 11 11
6 35 11 54 11 40 0 47 8 63 78 7 30 17 65 23 78 12 23 0 60 -29 90 -7 7 -13
20 -13 28 0 14 -39 17 -85 7z m55 -63 c11 -20 7 -68 -12 -127 -6 -22 -16 -33
-28 -33 -10 0 -21 -4 -24 -9 -3 -5 -20 -11 -38 -14 -18 -4 -47 -9 -63 -12 -28
-6 -32 -3 -53 35 -35 66 -28 102 23 125 48 21 142 52 162 54 13 0 27 -7 33
-19z"/>
<path d="M256 208 c-54 -28 -58 -32 -42 -44 13 -9 25 -10 45 -3 40 15 91 52
91 67 0 19 -30 13 -94 -20z"/>
</g>
</svg>
