<svg version="1.0" xmlns="http://www.w3.org/2000/svg"
 width="47.000000pt" height="87.000000pt" viewBox="0 0 47.000000 87.000000"
 preserveAspectRatio="xMidYMid meet">
<metadata>
Created by potrace 1.15, written by Peter Selinger 2001-2017
</metadata>
<g transform="translate(0.000000,87.000000) scale(0.100000,-0.100000)"
fill="#000000" stroke="none">
<path d="M242 765 c-7 -14 -12 -34 -12 -43 0 -9 -5 -34 -11 -54 -10 -38 -10
-38 -84 -38 -77 0 -97 -12 -49 -30 14 -6 39 -10 55 -10 44 0 71 -17 64 -40
-15 -48 -35 -188 -51 -355 -4 -38 -11 -75 -15 -81 -5 -6 -4 -25 2 -43 9 -25
15 -30 31 -25 11 3 50 6 87 6 50 1 73 5 90 19 23 19 23 19 2 111 -20 93 -37
193 -57 350 -7 46 -7 46 40 53 25 4 52 5 59 2 17 -6 44 9 34 20 -5 4 -39 9
-77 11 -38 2 -74 10 -79 16 -6 7 -7 34 -2 69 5 39 4 63 -4 73 -9 14 -13 12
-23 -11z m28 -420 c5 -33 14 -85 19 -115 25 -136 30 -120 -38 -120 -61 0 -61
0 -61 53 0 30 3 57 7 61 4 3 8 41 9 84 3 70 17 163 32 202 3 8 9 -12 14 -45 5
-33 13 -87 18 -120z"/>
</g>
</svg>
