<svg version="1.0" xmlns="http://www.w3.org/2000/svg"
 width="119.000000pt" height="121.000000pt" viewBox="0 0 119.000000 121.000000"
 preserveAspectRatio="xMidYMid meet">
<metadata>
Created by potrace 1.15, written by Peter Selinger 2001-2017
</metadata>
<g transform="translate(0.000000,121.000000) scale(0.100000,-0.100000)"
fill="#000000" stroke="none">
<path d="M635 974 c-222 -21 -331 -32 -420 -43 -44 -6 -104 -13 -133 -17 -36
-5 -52 -11 -52 -21 0 -11 9 -13 38 -9 52 9 305 26 378 26 61 0 61 0 67 -62 4
-35 10 -81 13 -102 6 -33 5 -38 -8 -34 -16 7 -90 -2 -213 -26 -44 -8 -102 -16
-130 -17 -27 -2 -72 -10 -100 -18 -50 -16 -50 -16 -10 -20 22 -2 112 2 200 8
289 21 262 23 268 -18 4 -20 9 -76 12 -126 4 -49 9 -106 11 -125 2 -19 6 -71
9 -115 3 -44 7 -103 9 -131 4 -51 4 -51 -202 -58 -223 -7 -282 -13 -282 -29 0
-9 316 -2 413 9 51 6 77 -3 77 -27 0 -26 20 -24 27 2 6 22 7 22 272 16 155 -4
253 -2 236 3 -62 18 -206 30 -352 30 -150 0 -150 0 -158 63 -4 34 -11 134 -16
222 -4 88 -11 191 -14 228 -7 69 -7 69 22 63 15 -3 98 1 183 9 85 8 178 16
205 16 114 3 -101 26 -254 28 -110 1 -159 5 -167 13 -6 7 -15 54 -19 105 -6
82 -5 93 12 101 18 10 142 19 383 28 74 2 153 10 175 16 40 12 40 12 -10 19
-78 11 -305 8 -470 -7z"/>
</g>
</svg>
