<svg version="1.0" xmlns="http://www.w3.org/2000/svg"
 width="51.000000pt" height="77.000000pt" viewBox="0 0 51.000000 77.000000"
 preserveAspectRatio="xMidYMid meet">
<metadata>
Created by potrace 1.15, written by Peter Selinger 2001-2017
</metadata>
<g transform="translate(0.000000,77.000000) scale(0.100000,-0.100000)"
fill="#000000" stroke="none">
<path d="M280 621 c-5 -11 -10 -27 -10 -35 0 -8 -9 -20 -20 -26 -21 -11 -27
-46 -10 -52 7 -2 4 -27 -9 -68 -10 -36 -21 -76 -24 -90 -34 -153 -46 -219 -47
-237 0 -20 -5 -23 -45 -23 -39 0 -45 -3 -45 -21 0 -21 2 -21 185 -18 151 3
188 7 195 19 7 12 3 16 -21 21 -16 4 -31 8 -33 10 -1 2 -11 49 -21 104 -10 55
-22 120 -27 145 -5 25 -11 70 -14 100 -6 53 -5 56 20 68 15 7 33 12 41 12 8 0
15 4 15 9 0 11 -25 21 -55 21 -26 0 -45 25 -45 59 0 26 -16 27 -30 2z m25
-221 c8 -52 19 -113 24 -135 6 -22 14 -60 20 -85 5 -25 11 -52 13 -60 3 -16
-56 -27 -144 -29 -42 -1 -48 2 -48 19 0 11 4 20 9 20 5 0 11 15 14 33 3 17 10
50 17 72 6 22 16 56 21 75 15 52 30 111 35 145 14 80 18 75 39 -55z"/>
</g>
</svg>
