<svg version="1.0" xmlns="http://www.w3.org/2000/svg"
 width="59.000000pt" height="61.000000pt" viewBox="0 0 59.000000 61.000000"
 preserveAspectRatio="xMidYMid meet">
<metadata>
Created by potrace 1.15, written by Peter Selinger 2001-2017
</metadata>
<g transform="translate(0.000000,61.000000) scale(0.100000,-0.100000)"
fill="#000000" stroke="none">
<path d="M373 559 c-5 -5 -47 -10 -93 -10 -86 -1 -130 -11 -130 -29 0 -6 12
-15 28 -21 28 -10 58 -49 82 -107 15 -38 9 -46 -40 -58 -29 -8 -50 -22 -50
-35 0 -5 31 -9 70 -9 70 0 70 0 69 -90 -1 -101 -7 -110 -73 -110 -20 0 -36 -4
-36 -10 0 -15 37 -31 69 -28 16 1 37 -4 46 -12 15 -12 19 -11 33 7 11 13 40
25 80 33 75 15 65 30 -20 30 -58 0 -58 0 -58 69 0 94 8 127 34 139 23 10 59
25 91 38 15 6 6 9 -35 14 -52 5 -55 7 -52 30 6 54 25 79 66 88 49 9 57 28 19
43 -15 6 -42 17 -59 24 -20 9 -35 10 -41 4z m-18 -91 c-4 -13 -9 -31 -11 -40
-8 -26 -27 -22 -41 9 -21 43 -16 53 23 53 32 0 35 -2 29 -22z"/>
</g>
</svg>
