<svg version="1.0" xmlns="http://www.w3.org/2000/svg"
 width="47.000000pt" height="53.000000pt" viewBox="0 0 47.000000 53.000000"
 preserveAspectRatio="xMidYMid meet">
<metadata>
Created by potrace 1.15, written by Peter Selinger 2001-2017
</metadata>
<g transform="translate(0.000000,53.000000) scale(0.100000,-0.100000)"
fill="#000000" stroke="none">
<path d="M190 343 c0 -7 9 -13 21 -13 11 0 29 -5 40 -11 16 -8 18 -13 8 -25
-6 -8 -22 -14 -34 -14 -32 0 -56 -10 -49 -21 3 -5 16 -9 30 -9 36 0 38 -20 8
-94 -24 -60 -29 -66 -55 -66 -16 0 -29 -4 -29 -10 0 -6 53 -10 140 -10 87 0
140 4 140 10 0 6 -12 10 -27 10 -57 0 -71 10 -82 55 -6 24 -11 58 -11 74 0 27
4 31 28 31 34 0 57 14 48 29 -4 6 -12 9 -17 5 -16 -10 -59 5 -59 20 0 8 16 17
36 21 55 10 29 22 -58 27 -61 4 -78 2 -78 -9z m86 -209 c13 -39 4 -49 -34 -42
-19 3 -19 5 -5 41 8 20 18 37 22 37 3 0 11 -16 17 -36z"/>
</g>
</svg>
