<svg version="1.0" xmlns="http://www.w3.org/2000/svg"
 width="63.000000pt" height="79.000000pt" viewBox="0 0 63.000000 79.000000"
 preserveAspectRatio="xMidYMid meet">
<metadata>
Created by potrace 1.15, written by Peter Selinger 2001-2017
</metadata>
<g transform="translate(0.000000,79.000000) scale(0.100000,-0.100000)"
fill="#000000" stroke="none">
<path d="M133 580 c-13 -5 -23 -14 -23 -19 0 -15 29 -21 107 -21 64 0 74 -2
69 -16 -3 -9 -6 -33 -6 -55 0 -39 0 -39 -64 -39 -80 0 -126 -9 -126 -25 0 -16
45 -25 126 -25 63 0 63 0 66 -150 3 -150 3 -150 -49 -150 -41 0 -58 5 -83 27
-31 26 -32 29 -27 82 5 51 10 60 54 99 36 32 43 42 28 42 -59 0 -154 -121
-140 -177 21 -86 108 -127 250 -121 100 5 136 19 192 75 32 32 35 38 29 76
-10 63 -37 108 -75 128 -19 10 -37 17 -39 14 -3 -2 9 -20 27 -40 36 -42 39
-72 11 -133 -21 -46 -39 -56 -115 -68 -45 -6 -48 -5 -40 12 5 11 11 77 14 149
6 130 6 130 46 137 22 4 65 7 95 8 59 0 87 11 76 29 -5 7 -46 11 -112 11 -104
0 -104 0 -104 54 0 53 0 53 85 58 90 5 101 8 92 33 -5 13 -32 15 -174 14 -92
0 -178 -4 -190 -9z"/>
</g>
</svg>
