<svg version="1.0" xmlns="http://www.w3.org/2000/svg"
 width="57.000000pt" height="75.000000pt" viewBox="0 0 57.000000 75.000000"
 preserveAspectRatio="xMidYMid meet">
<metadata>
Created by potrace 1.15, written by Peter Selinger 2001-2017
</metadata>
<g transform="translate(0.000000,75.000000) scale(0.100000,-0.100000)"
fill="#000000" stroke="none">
<path d="M292 670 c1 -16 -3 -35 -9 -42 -5 -7 -15 -32 -23 -55 -12 -41 -14
-41 -76 -53 -42 -8 -64 -17 -64 -26 0 -15 61 -44 92 -44 15 0 18 -4 13 -17 -4
-10 -12 -38 -17 -63 -6 -25 -14 -63 -20 -85 -5 -22 -13 -62 -16 -90 -7 -50 -7
-50 -64 -59 -32 -5 -58 -13 -58 -17 0 -22 50 -30 175 -30 143 1 165 -3 165
-25 0 -21 17 -17 23 6 4 17 14 20 61 20 31 0 56 4 56 9 0 10 -48 28 -89 33
-25 3 -31 16 -71 148 -12 41 -26 88 -31 104 -5 16 -9 42 -9 57 0 25 4 29 29
29 55 0 91 12 91 30 0 18 -36 30 -91 30 -25 0 -29 4 -29 29 0 16 5 42 11 58 9
24 7 30 -10 44 -12 10 -21 22 -21 28 0 6 -4 11 -9 11 -5 0 -9 -13 -9 -30z m2
-312 c3 -18 18 -70 32 -115 29 -90 27 -119 -9 -109 -12 3 -41 6 -64 6 -51 0
-52 5 -23 94 10 33 25 82 32 109 15 55 23 59 32 15z"/>
</g>
</svg>
