<svg version="1.0" xmlns="http://www.w3.org/2000/svg"
 width="51.000000pt" height="55.000000pt" viewBox="0 0 51.000000 55.000000"
 preserveAspectRatio="xMidYMid meet">
<metadata>
Created by potrace 1.15, written by Peter Selinger 2001-2017
</metadata>
<g transform="translate(0.000000,55.000000) scale(0.100000,-0.100000)"
fill="#000000" stroke="none">
<path d="M190 429 c0 -90 -8 -99 -85 -99 -36 0 -65 -3 -65 -8 0 -13 38 -31 80
-38 22 -4 43 -11 46 -15 3 -5 0 -35 -6 -67 -7 -31 -14 -67 -16 -79 -4 -19 -11
-23 -44 -23 -104 0 4 -57 125 -66 84 -7 89 -6 156 26 87 42 89 58 9 54 -58 -3
-60 -2 -60 21 0 13 -9 40 -20 60 -11 20 -20 49 -20 65 0 20 6 31 20 35 24 8
27 40 4 49 -9 3 -31 6 -50 6 -35 0 -35 0 -28 45 5 34 2 51 -10 70 -26 40 -36
30 -36 -36z m60 -234 c0 -6 9 -30 20 -53 11 -22 20 -44 20 -47 0 -3 -23 -5
-51 -5 -51 0 -51 0 -44 28 3 15 9 43 11 62 9 61 13 68 30 46 8 -11 14 -25 14
-31z"/>
</g>
</svg>
