<svg version="1.0" xmlns="http://www.w3.org/2000/svg"
 width="63.000000pt" height="73.000000pt" viewBox="0 0 63.000000 73.000000"
 preserveAspectRatio="xMidYMid meet">
<metadata>
Created by potrace 1.15, written by Peter Selinger 2001-2017
</metadata>
<g transform="translate(0.000000,73.000000) scale(0.100000,-0.100000)"
fill="#000000" stroke="none">
<path d="M315 603 c-3 -15 -10 -44 -15 -63 -5 -19 -14 -56 -21 -82 -11 -47
-11 -47 -73 -50 -46 -2 -61 -7 -61 -18 0 -11 15 -16 55 -20 55 -5 55 -5 51
-60 -2 -30 -7 -63 -12 -72 -5 -9 -9 -26 -9 -37 0 -11 -5 -43 -11 -72 -11 -51
-11 -51 -80 -47 -58 3 -69 1 -69 -12 0 -26 59 -40 166 -40 112 0 266 16 292
30 9 5 36 17 60 26 23 10 42 21 42 25 0 8 -111 1 -157 -11 -18 -5 -35 -5 -37
-2 -2 4 -9 34 -16 67 -6 33 -20 85 -31 116 -27 77 -25 89 11 89 16 0 48 7 71
16 55 22 33 35 -48 27 -59 -6 -63 -5 -71 18 -5 13 -7 58 -5 99 4 61 2 78 -10
89 -14 11 -17 9 -22 -16z m24 -360 c7 -27 17 -61 22 -77 14 -46 11 -76 -8 -77
-10 -1 -35 -3 -56 -4 -38 -4 -38 -4 -31 33 4 20 10 42 14 47 4 6 12 36 19 68
7 31 16 57 20 57 3 0 13 -21 20 -47z"/>
</g>
</svg>
