<svg version="1.0" xmlns="http://www.w3.org/2000/svg"
 width="53.000000pt" height="69.000000pt" viewBox="0 0 53.000000 69.000000"
 preserveAspectRatio="xMidYMid meet">
<metadata>
Created by potrace 1.15, written by Peter Selinger 2001-2017
</metadata>
<g transform="translate(0.000000,69.000000) scale(0.100000,-0.100000)"
fill="#000000" stroke="none">
<path d="M152 413 c2 -13 14 -19 40 -21 27 -2 37 -8 41 -24 8 -31 1 -38 -40
-38 -28 0 -34 -3 -29 -16 3 -9 6 -18 6 -20 0 -2 12 -4 28 -4 15 0 32 -4 38 -8
12 -7 34 -118 26 -127 -3 -3 -25 -5 -49 -5 -53 0 -56 -15 -5 -29 44 -13 202
-15 202 -3 0 5 -22 14 -50 22 -46 13 -50 16 -55 49 -4 20 -8 46 -11 59 -4 19
0 22 26 22 38 0 39 15 0 32 -17 7 -34 25 -40 41 -8 25 -7 30 10 34 55 14 -23
53 -106 53 -28 0 -35 -3 -32 -17z"/>
</g>
</svg>
