<svg version="1.0" xmlns="http://www.w3.org/2000/svg"
 width="65.000000pt" height="81.000000pt" viewBox="0 0 65.000000 81.000000"
 preserveAspectRatio="xMidYMid meet">
<metadata>
Created by potrace 1.15, written by Peter Selinger 2001-2017
</metadata>
<g transform="translate(0.000000,81.000000) scale(0.100000,-0.100000)"
fill="#000000" stroke="none">
<path d="M125 589 c-38 -5 -73 -15 -77 -22 -4 -6 -8 -76 -8 -154 0 -140 6
-167 33 -145 7 5 46 13 88 16 102 10 103 7 97 -134 -4 -87 -3 -110 8 -110 18
0 22 19 29 147 8 126 12 119 -75 125 -31 3 -35 6 -38 35 -3 31 -3 32 44 35 68
4 71 28 4 28 -50 0 -51 1 -48 28 3 24 7 27 46 30 23 2 42 6 42 11 0 17 -25 29
-51 24 -27 -5 -29 -3 -29 25 0 28 4 32 41 39 22 4 41 13 42 18 3 13 -62 15
-148 4z m25 -45 c0 -32 -20 -54 -50 -54 -33 0 -44 12 -35 39 5 18 19 23 73 30
6 0 12 -6 12 -15z m0 -108 c0 -28 -3 -30 -42 -40 -27 -6 -28 -5 -28 29 0 33 2
35 35 35 30 0 35 -3 35 -24z m-2 -93 c-2 -23 -8 -29 -35 -31 -31 -3 -33 -1
-33 27 0 29 3 31 36 31 33 0 35 -2 32 -27z"/>
<path d="M418 587 c-62 -7 -88 -14 -88 -24 0 -8 12 -13 30 -13 28 0 30 -3 30
-35 0 -33 -2 -35 -40 -41 -47 -8 -48 -28 -2 -32 26 -3 32 -8 32 -27 0 -13 4
-35 10 -49 9 -24 14 -26 69 -26 60 0 60 0 70 -37 6 -21 11 -86 11 -145 0 -106
8 -134 33 -109 8 8 11 57 9 159 -4 176 -5 177 -99 168 -63 -7 -63 -7 -63 28 0
34 0 34 58 41 85 10 92 17 92 78 0 29 -5 58 -12 65 -13 13 -15 13 -140 -1z
m112 -47 c20 -37 -3 -60 -60 -60 -50 0 -50 0 -50 33 0 43 5 47 56 47 33 0 46
-5 54 -20z"/>
<path d="M337 293 c-12 -12 -8 -188 5 -201 20 -20 95 -15 118 8 17 17 20 33
20 99 0 53 -4 82 -13 90 -16 13 -27 5 -27 -20 0 -19 -19 -29 -56 -29 -16 0
-24 6 -24 18 0 22 -14 44 -23 35z m113 -110 c0 -45 -24 -73 -62 -73 -27 0 -28
2 -28 49 0 49 1 50 33 54 17 2 38 5 45 5 8 1 12 -11 12 -35z"/>
<path d="M150 161 c0 -66 11 -94 30 -75 14 15 -1 144 -16 144 -11 0 -14 -17
-14 -69z"/>
<path d="M107 213 c-9 -8 -9 -86 -1 -107 13 -35 24 -13 24 49 0 60 -6 75 -23
58z"/>
<path d="M42 143 c2 -56 6 -68 21 -71 16 -3 18 3 15 65 -2 56 -6 68 -21 71
-16 3 -18 -3 -15 -65z"/>
<path d="M212 153 c2 -27 8 -48 13 -48 6 0 11 21 13 48 3 38 0 47 -13 47 -13
0 -16 -9 -13 -47z"/>
</g>
</svg>
