<svg version="1.0" xmlns="http://www.w3.org/2000/svg"
 width="71.000000pt" height="83.000000pt" viewBox="0 0 71.000000 83.000000"
 preserveAspectRatio="xMidYMid meet">
<metadata>
Created by potrace 1.15, written by Peter Selinger 2001-2017
</metadata>
<g transform="translate(0.000000,83.000000) scale(0.100000,-0.100000)"
fill="#000000" stroke="none">
<path d="M593 645 c-6 -11 -34 -15 -113 -17 -85 -2 -105 -6 -105 -18 0 -10 12
-16 38 -18 34 -3 37 -6 37 -33 0 -23 -4 -29 -22 -29 -34 0 -68 -11 -68 -21 0
-5 23 -9 50 -9 49 0 50 -1 50 -30 0 -20 5 -30 15 -30 9 0 15 9 15 24 0 21 6
24 57 30 31 4 63 12 70 18 13 11 18 103 7 132 -8 20 -21 20 -31 1z m-13 -85
c0 -28 -3 -30 -35 -30 -37 0 -52 17 -41 45 3 9 19 15 41 15 32 0 35 -2 35 -30z"/>
<path d="M100 615 c-25 -30 -1 -38 98 -31 53 4 98 9 100 11 3 2 2 11 -1 20 -9
21 -179 22 -197 0z"/>
<path d="M130 531 c-31 -4 -45 -11 -45 -21 0 -12 16 -15 88 -13 87 1 87 1 87
-28 0 -31 -6 -33 -124 -43 -65 -5 -71 -8 -62 -31 5 -13 15 -15 49 -10 44 7 44
7 50 -32 4 -21 7 -89 7 -151 0 -91 -3 -114 -15 -118 -35 -14 -44 14 -47 134
-2 96 -6 117 -18 117 -12 0 -15 -23 -18 -135 -2 -118 0 -136 15 -147 17 -13
158 -18 187 -7 30 12 17 33 -21 36 -37 3 -38 4 -38 43 0 38 2 40 35 45 35 5
35 5 35 95 0 77 -2 90 -17 93 -16 3 -18 -6 -18 -72 0 -68 -2 -76 -19 -76 -17
0 -20 11 -26 86 -8 94 -4 104 47 104 17 0 31 8 38 19 14 27 13 94 -2 109 -12
12 -87 14 -168 3z"/>
<path d="M390 445 c0 -8 18 -31 40 -51 56 -51 53 -64 -14 -64 -51 0 -77 -12
-61 -28 4 -4 32 -9 63 -12 42 -4 57 -9 57 -20 0 -11 -13 -16 -48 -18 -39 -3
-48 -6 -45 -20 3 -12 14 -17 38 -17 45 0 60 -10 60 -41 0 -23 -3 -24 -64 -24
-44 0 -67 -5 -76 -15 -18 -21 21 -34 86 -28 52 5 52 5 59 -36 4 -22 10 -41 15
-41 10 0 20 26 20 55 0 24 29 35 91 35 16 0 29 4 29 10 0 16 -37 30 -80 30
-39 0 -41 1 -38 28 3 24 8 28 56 36 28 5 52 13 52 17 0 13 -47 22 -77 15 -17
-5 -29 -3 -34 6 -15 23 -10 28 34 28 59 0 87 9 80 26 -3 9 -20 14 -43 14 -70
0 -72 7 -19 57 27 25 49 50 49 55 0 21 -33 19 -58 -4 -56 -52 -78 -51 -134 5
-22 21 -38 22 -38 2z"/>
</g>
</svg>
