<svg version="1.0" xmlns="http://www.w3.org/2000/svg"
 width="68.000000pt" height="127.000000pt" viewBox="0 0 68.000000 127.000000"
 preserveAspectRatio="xMidYMid meet">
<metadata>
Created by potrace 1.15, written by Peter Selinger 2001-2017
</metadata>
<g transform="translate(0.000000,127.000000) scale(0.100000,-0.100000)"
fill="#000000" stroke="none">
<path d="M125 1158 c-2 -7 -6 -53 -7 -103 -3 -82 -5 -90 -23 -90 -17 0 -21 8
-25 62 -5 67 -11 79 -35 70 -13 -6 -15 -34 -15 -197 0 -180 1 -190 19 -190 25
0 28 11 25 100 -3 78 5 100 37 100 18 0 19 -11 19 -213 0 -225 -2 -237 -47
-237 -21 0 -23 5 -24 53 -1 28 -1 67 0 84 3 46 -7 58 -30 37 -18 -16 -19 -34
-19 -281 0 -229 2 -263 15 -263 22 0 24 11 28 163 4 149 13 176 55 163 20 -7
21 -14 21 -203 0 -108 3 -198 6 -201 3 -3 12 3 20 14 12 15 14 63 15 249 0
240 6 605 12 785 3 103 2 105 -20 108 -12 2 -24 -3 -27 -10z"/>
<path d="M408 1110 c-97 -3 -180 -8 -183 -12 -4 -4 -5 -14 -2 -21 5 -12 39
-14 214 -10 200 5 232 10 219 31 -9 15 -56 17 -248 12z"/>
<path d="M300 961 c0 -46 -5 -72 -14 -80 -22 -19 -38 10 -30 58 6 37 5 41 -15
41 -19 0 -21 -5 -21 -59 0 -62 9 -77 50 -83 52 -7 32 -88 -22 -88 -40 0 -66
-41 -33 -54 18 -7 109 30 152 60 25 19 32 33 38 71 13 97 12 173 -1 184 -20
17 -34 2 -33 -39 0 -32 -2 -62 -9 -162 -1 -11 -8 -20 -16 -20 -11 0 -12 23 -8
120 5 117 4 120 -17 120 -19 0 -21 -5 -21 -69z"/>
<path d="M528 1024 c-4 -3 -4 -45 -1 -92 3 -57 1 -97 -7 -117 -12 -29 -12 -29
-20 -8 -9 22 -13 94 -8 148 2 24 -1 31 -19 33 -23 3 -35 -19 -29 -53 2 -11 7
-49 11 -85 8 -70 22 -100 45 -100 9 0 20 -4 26 -8 14 -13 88 -32 123 -32 25 0
32 4 29 17 -2 10 -12 19 -23 21 -39 7 -83 32 -88 52 -6 22 7 35 46 44 23 5 27
12 29 44 1 47 -2 96 -8 102 -8 8 -23 -23 -29 -62 -5 -29 -11 -38 -27 -38 -18
0 -19 6 -16 67 2 55 0 68 -12 71 -9 1 -19 0 -22 -4z"/>
<path d="M450 708 c-4 -114 -7 -132 -18 -136 -18 -6 -15 -44 4 -40 13 3 30 26
54 78 10 21 86 26 93 6 11 -28 -5 -54 -43 -71 -65 -29 -74 -89 -19 -123 26
-16 91 -24 108 -13 21 13 5 41 -23 41 -40 0 -78 18 -74 36 2 9 21 22 42 29 47
16 56 29 56 76 0 55 -27 79 -88 79 -45 0 -51 3 -54 22 -3 24 -38 38 -38 16z"/>
<path d="M355 698 c-2 -7 -5 -24 -7 -38 -3 -24 -7 -25 -75 -28 -50 -2 -73 -7
-73 -15 0 -28 23 -36 86 -30 58 5 64 4 64 -13 0 -30 -12 -40 -62 -53 -101 -28
-82 -136 24 -133 38 1 53 -20 39 -58 -11 -33 -34 -60 -50 -60 -5 0 -17 -10
-25 -22 -22 -31 -23 -193 -1 -201 22 -9 28 9 26 92 -1 82 4 92 56 129 17 12
37 37 43 56 19 58 -9 95 -72 96 -48 0 -68 9 -68 29 0 26 21 41 58 41 57 0 82
40 82 132 0 59 -11 88 -32 88 -5 0 -11 -6 -13 -12z"/>
<path d="M475 381 c-37 -8 -39 -23 -5 -32 97 -27 115 -35 118 -55 2 -12 -4
-29 -14 -38 -14 -14 -19 -15 -33 -3 -32 27 -101 51 -113 39 -12 -12 11 -42 34
-42 15 0 38 -19 38 -32 0 -4 -15 -8 -32 -8 -41 0 -108 -18 -108 -29 0 -20 62
-33 120 -27 50 6 60 5 60 -9 0 -8 4 -15 9 -15 4 0 15 -21 23 -47 11 -34 21
-49 36 -51 13 -2 22 3 24 15 4 16 0 30 -22 88 -17 44 -18 54 -6 64 8 6 19 31
26 56 11 39 10 48 -4 70 -10 14 -29 31 -44 37 -15 5 -35 14 -44 19 -19 10 -19
10 -63 0z"/>
</g>
</svg>
