<svg version="1.0" xmlns="http://www.w3.org/2000/svg"
 width="63.000000pt" height="103.000000pt" viewBox="0 0 63.000000 103.000000"
 preserveAspectRatio="xMidYMid meet">
<metadata>
Created by potrace 1.15, written by Peter Selinger 2001-2017
</metadata>
<g transform="translate(0.000000,103.000000) scale(0.100000,-0.100000)"
fill="#000000" stroke="none">
<path d="M197 864 c-4 -4 -7 -31 -7 -60 0 -38 -4 -53 -16 -58 -13 -5 -14 -9
-4 -21 7 -8 18 -15 24 -15 9 0 46 -98 46 -123 0 -17 -21 -5 -30 18 -8 21 -40
37 -40 20 0 -10 25 -49 48 -75 31 -34 28 -93 -5 -98 -28 -4 -29 -16 -5 -34 11
-7 24 -23 31 -35 10 -20 8 -24 -16 -40 -35 -22 -44 -31 -69 -68 -23 -32 -37
-85 -23 -85 5 0 9 3 9 8 0 4 4 14 9 21 8 12 13 11 31 -10 18 -20 20 -21 14 -4
-4 11 -9 34 -11 50 -4 25 0 33 19 42 12 5 35 16 51 23 24 12 29 11 42 -6 9
-10 14 -32 12 -47 -3 -20 0 -26 10 -23 17 7 17 2 -8 -45 -11 -22 -18 -46 -16
-52 3 -7 10 2 17 18 11 26 14 27 18 10 6 -25 40 -75 53 -75 5 0 0 15 -11 33
-25 41 -25 50 1 42 20 -7 20 -6 4 19 -11 17 -15 35 -11 52 9 35 -2 64 -24 64
-10 0 -25 11 -34 24 -14 22 -14 28 -1 53 21 39 19 50 -10 57 -23 6 -25 11 -25
65 0 45 5 65 22 86 21 28 21 28 0 16 -19 -10 -22 -9 -22 7 0 29 30 82 46 82
25 0 15 18 -17 29 -30 10 -31 12 -27 63 1 29 -1 55 -7 58 -6 3 -11 -17 -13
-47 -2 -40 -7 -53 -19 -53 -12 0 -15 8 -11 38 6 38 -12 89 -25 76z m73 -163
c0 -5 -7 -14 -15 -21 -13 -10 -15 -9 -15 9 0 12 6 21 15 21 8 0 15 -4 15 -9z"/>
<path d="M320 810 c0 -57 11 -78 24 -44 14 35 4 104 -15 104 -5 0 -9 -27 -9
-60z"/>
<path d="M479 640 c-12 -45 -16 -50 -41 -50 -23 0 -28 4 -28 24 0 30 -9 56
-20 56 -9 0 -19 -156 -12 -182 6 -24 19 -23 27 2 8 27 72 29 82 3 4 -10 18
-29 32 -42 24 -25 24 -25 18 -1 -3 14 -13 45 -22 69 -12 34 -14 61 -9 108 8
77 -8 85 -27 13z m-9 -95 c0 -16 -17 -19 -45 -9 -13 5 -14 8 -3 15 21 14 48
10 48 -6z"/>
<path d="M232 245 c-24 -49 -28 -80 -12 -90 6 -3 10 3 10 14 0 24 10 27 29 9
12 -11 12 -9 5 7 -4 11 -7 39 -7 63 1 23 1 42 0 42 -2 0 -13 -20 -25 -45z"/>
</g>
</svg>
