<svg version="1.0" xmlns="http://www.w3.org/2000/svg"
 width="53.000000pt" height="103.000000pt" viewBox="0 0 53.000000 103.000000"
 preserveAspectRatio="xMidYMid meet">
<metadata>
Created by potrace 1.15, written by Peter Selinger 2001-2017
</metadata>
<g transform="translate(0.000000,103.000000) scale(0.100000,-0.100000)"
fill="#000000" stroke="none">
<path d="M206 861 c-4 -5 4 -17 18 -26 45 -30 38 -75 -12 -75 -36 0 -21 -24
19 -30 33 -5 34 -7 40 -55 3 -27 9 -58 13 -67 6 -14 3 -18 -12 -18 -24 0 -48
-25 -32 -35 5 -3 10 -24 10 -46 0 -21 6 -48 13 -60 10 -18 9 -23 -14 -42 -50
-42 -84 -68 -111 -85 -16 -9 -28 -20 -28 -24 0 -11 7 -10 30 4 10 7 22 9 26 5
14 -14 -19 -55 -62 -78 -24 -12 -44 -26 -44 -31 0 -11 28 -10 35 2 3 6 14 10
25 10 13 0 17 -5 13 -20 -3 -11 -8 -20 -12 -20 -3 0 -12 -9 -19 -20 -17 -28 6
-27 37 1 22 20 23 20 36 3 13 -18 15 -18 44 -2 29 16 31 16 41 -2 5 -10 10
-28 10 -39 0 -12 5 -21 11 -21 8 0 10 17 7 49 -6 62 5 84 27 56 16 -19 16 -19
10 10 -18 81 -17 110 4 122 29 18 42 -10 36 -78 -5 -68 -5 -152 1 -158 11 -11
19 16 27 92 11 103 10 136 -3 152 -5 6 -7 15 -4 18 3 3 -4 16 -16 29 -14 15
-19 30 -14 43 3 11 8 35 11 53 4 23 10 32 24 32 37 0 17 22 -53 58 -29 14 -34
30 -19 60 5 9 15 32 22 50 7 20 22 38 38 44 24 9 25 10 9 22 -10 7 -18 20 -18
29 0 17 27 30 42 21 6 -4 9 -1 6 7 -6 19 -45 37 -105 49 -26 6 -60 13 -74 16
-15 3 -30 1 -33 -5z m122 -73 c-2 -13 -10 -23 -18 -23 -8 0 -16 10 -18 23 -3
17 2 22 18 22 16 0 21 -5 18 -22z m7 -268 c11 -18 -6 -50 -26 -50 -13 0 -19 7
-19 23 0 13 3 27 7 30 10 10 31 8 38 -3z m-5 -144 c0 -17 -80 -88 -94 -83 -22
7 -16 30 19 62 37 36 75 46 75 21z m-93 -118 c3 6 13 12 24 12 23 0 17 -21
-20 -67 -37 -47 -51 -43 -51 15 0 57 9 70 28 45 10 -13 16 -14 19 -5z"/>
</g>
</svg>
