<svg version="1.0" xmlns="http://www.w3.org/2000/svg"
 width="62.000000pt" height="84.000000pt" viewBox="0 0 62.000000 84.000000"
 preserveAspectRatio="xMidYMid meet">
<metadata>
Created by potrace 1.15, written by Peter Selinger 2001-2017
</metadata>
<g transform="translate(0.000000,84.000000) scale(0.100000,-0.100000)"
fill="#000000" stroke="none">
<path d="M268 643 c-1 -5 -2 -30 -2 -58 -1 -50 -1 -50 -64 -58 -87 -12 -92 -9
-85 51 5 45 3 50 -17 57 -39 12 -53 -13 -39 -71 19 -80 17 -78 115 -84 89 -5
89 -5 89 -35 0 -30 0 -30 -80 -35 -87 -6 -122 -21 -132 -59 -9 -36 4 -282 16
-294 5 -5 17 -7 25 -4 14 5 16 28 16 145 0 182 -10 172 190 176 202 3 192 11
191 -162 0 -134 8 -164 36 -127 9 14 13 55 13 148 0 129 0 129 -31 159 -30 30
-31 31 -110 25 -79 -5 -79 -5 -79 34 0 39 0 39 76 39 99 0 110 7 118 73 8 65
1 89 -28 85 -18 -3 -22 -11 -26 -58 -5 -55 -5 -55 -74 -58 -69 -3 -69 -3 -64
47 3 28 0 55 -6 61 -12 12 -45 14 -48 3z"/>
<path d="M208 293 c-42 -3 -58 -8 -58 -18 0 -17 5 -18 75 -19 49 -1 50 -2 53
-33 3 -33 3 -33 -62 -33 -37 0 -68 -5 -72 -11 -12 -19 16 -27 80 -22 62 5 62
5 58 -66 -2 -39 0 -71 4 -71 26 1 39 23 44 77 5 58 5 58 63 61 49 3 57 6 57
22 0 18 -7 20 -60 20 -59 0 -60 0 -60 29 0 27 2 29 55 33 30 3 58 8 62 12 23
23 -63 30 -239 19z"/>
</g>
</svg>
