<svg version="1.0" xmlns="http://www.w3.org/2000/svg"
 width="127.000000pt" height="171.000000pt" viewBox="0 0 127.000000 171.000000"
 preserveAspectRatio="xMidYMid meet">
<metadata>
Created by potrace 1.15, written by Peter Selinger 2001-2017
</metadata>
<g transform="translate(0.000000,171.000000) scale(0.100000,-0.100000)"
fill="#000000" stroke="none">
<path d="M577 1623 c-4 -3 -7 -40 -7 -82 0 -146 -12 -271 -26 -271 -12 0 -30
20 -137 155 -58 72 -109 125 -117 120 -11 -7 -1 -40 18 -62 10 -10 33 -41 52
-68 19 -28 39 -55 45 -61 13 -15 32 -39 75 -94 19 -25 37 -47 41 -50 20 -16
40 -76 37 -112 -3 -37 -6 -42 -43 -56 -22 -9 -41 -19 -43 -24 -2 -4 -10 -8
-18 -8 -30 0 -113 -51 -146 -89 -48 -56 -78 -149 -78 -240 0 -143 -23 -242
-87 -378 -44 -93 -50 -113 -35 -113 18 0 59 55 107 143 50 92 50 92 223 95 94
1 172 -1 172 -4 0 -10 -40 -146 -49 -169 -5 -11 -19 -42 -30 -68 -12 -27 -24
-63 -27 -80 -5 -32 -5 -32 20 -2 40 47 104 190 125 280 12 53 47 63 218 66
160 3 183 -3 183 -43 0 -33 50 -179 92 -270 32 -69 44 -85 54 -77 16 13 9 56
-18 118 -28 62 -55 150 -84 271 -14 58 -29 114 -34 125 -21 51 -50 210 -50
281 0 45 -25 79 -77 103 -15 7 -36 17 -45 22 -10 5 -25 9 -33 9 -9 0 -35 9
-57 20 -23 11 -47 20 -55 20 -7 0 -37 9 -68 21 -55 20 -55 21 -55 62 0 36 6
47 41 79 23 21 43 38 46 38 2 0 16 13 31 28 61 64 93 103 104 127 6 14 15 25
20 25 4 0 8 8 8 18 0 10 5 23 11 29 7 7 8 20 5 30 -7 17 -8 17 -22 -2 -8 -11
-23 -29 -32 -40 -10 -11 -28 -36 -42 -55 -14 -19 -52 -63 -85 -98 -54 -57 -61
-62 -72 -46 -14 20 -16 124 -4 263 5 70 4 86 -10 102 -17 20 -31 24 -42 12z
m116 -628 c15 -20 -14 -156 -42 -193 -14 -20 -21 -22 -44 -13 -15 6 -30 19
-33 28 -3 10 -9 27 -14 38 -38 96 -30 155 21 155 15 0 30 4 33 9 7 10 67 -8
79 -24z m155 -44 c98 -31 128 -67 124 -149 -3 -67 -13 -72 -144 -72 -131 0
-146 6 -130 47 6 15 14 48 17 73 4 25 15 64 25 87 20 46 11 45 108 14z m-375
6 c24 -25 37 -57 37 -87 0 -30 35 -116 51 -126 24 -15 0 -23 -88 -29 -54 -4
-110 -11 -125 -15 -40 -12 -61 8 -62 62 -2 72 51 148 129 187 48 24 44 24 58
8z m476 -278 c22 -8 36 -22 46 -47 16 -36 23 -107 12 -118 -14 -15 -93 -24
-209 -24 -128 0 -128 0 -128 79 0 53 4 83 12 88 46 30 206 43 267 22z m-338
-51 c16 -55 13 -128 -5 -146 -10 -11 -45 -14 -147 -13 -122 1 -135 3 -156 23
-18 17 -23 32 -23 74 0 48 3 55 28 67 15 8 63 15 107 17 44 1 98 5 120 10 22
4 45 8 52 9 7 0 18 -18 24 -41z"/>
</g>
</svg>
