<svg version="1.0" xmlns="http://www.w3.org/2000/svg"
 width="63.000000pt" height="101.000000pt" viewBox="0 0 63.000000 101.000000"
 preserveAspectRatio="xMidYMid meet">
<metadata>
Created by potrace 1.15, written by Peter Selinger 2001-2017
</metadata>
<g transform="translate(0.000000,101.000000) scale(0.100000,-0.100000)"
fill="#000000" stroke="none">
<path d="M297 840 c-4 -18 -7 -50 -7 -71 0 -22 -2 -39 -5 -39 -3 0 -24 18 -46
40 -44 42 -69 51 -69 24 0 -15 28 -53 88 -122 25 -28 21 -41 -25 -87 -41 -41
-53 -37 -73 25 -9 27 -19 40 -32 40 -23 0 -23 -22 1 -95 15 -44 17 -62 8 -76
-9 -14 -7 -21 11 -36 12 -10 24 -29 27 -43 2 -14 7 -38 11 -55 3 -16 9 -39 14
-50 5 -11 11 -36 14 -55 11 -73 19 -100 33 -112 14 -11 15 -2 8 79 -7 91 -7
91 65 98 39 4 74 4 78 0 4 -3 5 -61 4 -128 -1 -67 2 -129 7 -137 9 -13 10 -13
14 0 13 45 28 152 27 200 -2 97 7 177 24 211 11 22 13 35 6 37 -7 3 -8 29 -4
79 5 52 4 74 -3 70 -6 -4 -14 -23 -17 -42 -4 -19 -10 -35 -15 -35 -8 0 -71 59
-72 69 -7 49 -2 74 13 77 30 4 92 83 86 109 -2 10 -20 -2 -55 -36 -29 -28 -53
-55 -53 -60 0 -5 -7 -9 -15 -9 -12 0 -15 14 -15 63 0 37 -6 71 -13 82 -13 17
-14 16 -20 -15z m84 -301 c27 -29 49 -56 49 -60 0 -16 -21 -20 -120 -26 -90
-5 -100 -4 -100 11 0 26 82 125 104 125 10 1 41 -22 67 -50z m35 -145 c-3 -9
-6 -22 -6 -30 0 -21 -153 -20 -170 1 -17 20 -14 22 50 30 30 4 57 9 59 11 2 2
20 4 39 4 27 0 33 -3 28 -16z"/>
<path d="M370 831 c0 -5 5 -13 10 -16 6 -3 10 -2 10 4 0 5 -4 13 -10 16 -5 3
-10 2 -10 -4z"/>
</g>
</svg>
