<svg version="1.0" xmlns="http://www.w3.org/2000/svg"
 width="67.000000pt" height="88.000000pt" viewBox="0 0 67.000000 88.000000"
 preserveAspectRatio="xMidYMid meet">
<metadata>
Created by potrace 1.15, written by Peter Selinger 2001-2017
</metadata>
<g transform="translate(0.000000,88.000000) scale(0.100000,-0.100000)"
fill="#000000" stroke="none">
<path d="M232 718 c-7 -7 -12 -27 -12 -45 0 -26 -4 -33 -20 -33 -15 0 -20 7
-20 29 0 21 -6 32 -21 36 -36 12 -42 -6 -30 -85 6 -39 9 -76 6 -81 -4 -5 -21
-9 -39 -9 -38 0 -47 -6 -39 -26 3 -9 20 -14 43 -14 38 0 38 0 49 -75 15 -105
14 -114 -25 -165 -45 -60 -58 -86 -51 -104 10 -27 37 -18 58 19 12 19 24 35
28 35 4 0 15 -31 24 -69 10 -38 24 -77 31 -86 17 -24 51 -13 41 13 -24 54 -36
100 -45 160 -9 64 -8 68 18 100 47 60 48 62 32 72 -21 13 -26 12 -44 -6 -14
-13 -17 -13 -22 -1 -3 8 -4 34 -2 58 3 43 4 44 41 49 21 3 38 8 37 13 0 4 0
11 0 16 0 6 -19 11 -42 13 -37 3 -44 7 -46 27 -4 26 12 41 45 41 17 0 25 9 33
41 18 66 3 108 -28 77z"/>
<path d="M424 665 c-9 -64 -27 -68 -51 -12 -7 15 -20 27 -28 27 -13 0 -15 -10
-13 -47 3 -46 4 -48 35 -51 34 -3 59 -25 48 -42 -3 -5 -29 -10 -56 -10 -70 0
-60 -23 12 -30 39 -4 54 -9 54 -20 0 -11 -13 -16 -50 -18 -70 -4 -81 -8 -64
-28 10 -12 24 -15 56 -10 36 5 44 2 53 -14 16 -29 4 -40 -41 -40 -67 0 -79
-12 -79 -78 0 -76 13 -93 79 -100 69 -6 62 -27 -10 -27 -47 0 -54 -2 -54 -20
0 -17 8 -21 50 -25 50 -5 50 -5 50 -44 0 -23 5 -41 13 -44 21 -7 42 18 42 49
0 28 2 29 45 29 38 0 45 3 45 20 0 17 -7 20 -39 20 -42 0 -63 16 -40 31 8 5
24 9 36 9 31 0 53 37 53 90 0 59 -17 81 -66 89 -30 5 -39 11 -39 26 0 16 8 21
48 25 61 6 65 24 7 30 -32 4 -46 10 -48 23 -3 14 4 17 42 17 63 0 63 25 1 33
-52 5 -60 10 -52 32 4 9 19 15 40 15 43 0 54 13 58 70 4 40 2 45 -18 48 -19 3
-22 -2 -25 -35 -2 -30 -7 -38 -23 -38 -17 0 -20 8 -23 48 -3 38 -7 47 -22 47
-15 0 -20 -10 -26 -45z m1 -345 c0 -10 -12 -16 -37 -18 -42 -4 -51 13 -15 28
30 12 52 8 52 -10z m80 0 c0 -8 -10 -16 -22 -18 -22 -3 -32 16 -16 32 12 11
38 2 38 -14z m-75 -69 c0 -10 -6 -21 -12 -23 -23 -8 -63 7 -66 25 -3 14 4 17
37 17 34 0 41 -3 41 -19z m80 -1 c0 -15 -7 -20 -25 -20 -18 0 -25 5 -25 20 0
15 7 20 25 20 18 0 25 -5 25 -20z"/>
</g>
</svg>
