<svg version="1.0" xmlns="http://www.w3.org/2000/svg"
 width="73.000000pt" height="82.000000pt" viewBox="0 0 73.000000 82.000000"
 preserveAspectRatio="xMidYMid meet">
<metadata>
Created by potrace 1.15, written by Peter Selinger 2001-2017
</metadata>
<g transform="translate(0.000000,82.000000) scale(0.100000,-0.100000)"
fill="#000000" stroke="none">
<path d="M294 721 c-56 -26 -75 -75 -47 -124 55 -95 206 -79 228 24 22 98 -72
150 -181 100z m124 -43 c38 -49 10 -98 -56 -98 -66 0 -86 43 -44 93 18 20 84
23 100 5z"/>
<path d="M331 657 c-15 -19 9 -50 35 -45 23 4 31 37 12 49 -19 12 -34 11 -47
-4z"/>
<path d="M285 510 c-104 -3 -191 -7 -192 -8 -2 -1 -3 -9 -3 -17 0 -24 30 -33
95 -27 58 4 63 3 84 -24 22 -28 22 -28 -7 -40 -38 -16 -62 -50 -62 -89 0 -41
20 -66 61 -80 34 -12 34 -12 -18 -29 -72 -24 -180 -106 -168 -127 12 -18 41
-8 101 34 84 59 141 84 156 69 16 -16 6 -23 -41 -29 -55 -8 -56 -33 -1 -33 29
0 40 -4 40 -15 0 -12 -14 -15 -64 -15 -48 0 -65 -4 -70 -15 -10 -28 40 -37
167 -29 64 3 120 10 122 15 9 13 -30 29 -69 29 -51 0 -49 28 2 32 25 2 37 8
37 18 0 10 -12 16 -37 18 -25 2 -38 8 -38 18 0 11 9 13 43 8 50 -8 107 -42
130 -78 10 -14 26 -26 37 -26 25 0 25 2 0 49 -25 50 -61 78 -110 86 -39 7 -66
25 -37 25 24 0 77 68 77 99 0 32 -20 54 -69 74 -33 14 -33 14 -1 40 28 24 40
27 101 27 54 0 71 4 76 15 3 9 3 18 1 20 -10 10 -160 12 -343 5z m108 -72
c-32 -32 -32 -32 -58 -8 -31 29 -19 40 45 40 45 0 45 0 13 -32z m48 -78 c34
-19 23 -36 -21 -32 -31 3 -40 8 -40 23 0 21 29 26 61 9z m-111 -14 c0 -14 -56
-33 -67 -22 -3 3 -3 12 0 21 8 20 67 21 67 1z m130 -50 c0 -14 -35 -36 -56
-36 -25 0 -34 24 -11 33 15 7 67 8 67 3z m-130 -20 c0 -19 -28 -28 -51 -16
-30 16 -23 30 16 30 23 0 35 -5 35 -14z"/>
</g>
</svg>
