<svg version="1.0" xmlns="http://www.w3.org/2000/svg"
 width="69.000000pt" height="89.000000pt" viewBox="0 0 69.000000 89.000000"
 preserveAspectRatio="xMidYMid meet">
<metadata>
Created by potrace 1.15, written by Peter Selinger 2001-2017
</metadata>
<g transform="translate(0.000000,89.000000) scale(0.100000,-0.100000)"
fill="#000000" stroke="none">
<path d="M415 690 c-4 -6 10 -40 30 -75 20 -36 33 -70 30 -75 -3 -6 -19 -10
-35 -10 -38 0 -60 -9 -60 -26 0 -9 20 -15 61 -20 62 -7 62 -7 56 -93 -7 -104
4 -202 29 -255 22 -46 48 -66 65 -49 8 8 4 26 -16 67 -24 50 -28 74 -33 198
-7 142 -7 142 25 176 18 19 35 49 39 67 8 43 -19 108 -43 103 -15 -3 -18 -14
-18 -58 -1 -94 -21 -104 -54 -27 -32 74 -60 102 -76 77z"/>
<path d="M280 623 c0 -53 -11 -83 -31 -83 -4 0 -15 23 -25 51 -20 54 -53 85
-79 75 -21 -8 -19 -20 11 -55 14 -17 29 -44 34 -61 8 -27 6 -31 -16 -36 -13
-3 -38 -1 -55 5 -45 15 -49 14 -49 -13 0 -32 11 -38 84 -45 68 -7 63 7 54
-151 -3 -63 18 -213 35 -250 8 -17 20 -25 37 -25 31 0 31 17 1 134 -25 96 -32
312 -10 320 29 9 48 43 55 97 7 60 -1 87 -30 92 -13 3 -16 -6 -16 -55z"/>
</g>
</svg>
