<svg version="1.0" xmlns="http://www.w3.org/2000/svg"
 width="68.000000pt" height="64.000000pt" viewBox="0 0 68.000000 64.000000"
 preserveAspectRatio="xMidYMid meet">
<metadata>
Created by potrace 1.15, written by Peter Selinger 2001-2017
</metadata>
<g transform="translate(0.000000,64.000000) scale(0.100000,-0.100000)"
fill="#000000" stroke="none">
<path d="M426 533 c-3 -4 0 -13 8 -22 28 -32 56 -92 56 -122 0 -31 0 -31 -25
-15 -27 18 -55 21 -55 6 0 -5 18 -21 40 -35 54 -34 54 -66 -1 -129 -23 -26
-39 -49 -36 -52 11 -11 62 22 82 53 11 18 22 32 25 33 3 0 16 -33 28 -74 24
-75 50 -114 90 -135 20 -11 22 -9 22 13 0 26 -29 99 -42 104 -5 2 -8 12 -8 21
0 10 -6 31 -14 47 -30 59 -39 90 -43 139 -6 70 -54 148 -105 167 -9 4 -19 4
-22 1z"/>
<path d="M178 524 c-3 -3 3 -28 13 -57 10 -28 19 -75 19 -104 0 -52 0 -52 -46
-33 -78 34 -98 23 -42 -24 17 -14 35 -26 40 -26 37 0 -37 -97 -104 -138 -16
-9 -28 -20 -28 -24 0 -26 83 12 157 70 48 38 51 36 73 -55 16 -70 64 -123 110
-123 33 0 33 0 9 24 -14 13 -35 55 -48 93 -12 37 -34 87 -47 111 -14 23 -22
48 -18 54 11 17 6 98 -8 133 -15 37 -58 105 -68 105 -4 0 -9 -3 -12 -6z"/>
</g>
</svg>
