<svg version="1.0" xmlns="http://www.w3.org/2000/svg"
 width="53.000000pt" height="83.000000pt" viewBox="0 0 53.000000 83.000000"
 preserveAspectRatio="xMidYMid meet">
<metadata>
Created by potrace 1.15, written by Peter Selinger 2001-2017
</metadata>
<g transform="translate(0.000000,83.000000) scale(0.100000,-0.100000)"
fill="#000000" stroke="none">
<path d="M32 693 c2 -14 15 -19 59 -21 49 -3 58 -6 68 -28 18 -40 14 -42 -49
-37 -51 5 -60 3 -60 -10 0 -9 10 -19 23 -21 73 -15 77 -17 77 -36 0 -13 -9
-22 -28 -26 -15 -4 -43 -14 -62 -22 -34 -14 -34 -14 -7 -28 20 -11 32 -12 46
-4 11 5 31 10 45 10 21 0 26 -5 26 -23 0 -41 31 -117 47 -117 12 0 14 6 8 28
-4 15 -9 87 -11 161 -2 76 -9 140 -15 147 -21 26 -72 44 -121 44 -42 0 -49 -3
-46 -17z"/>
<path d="M323 692 c-13 -2 -23 -7 -23 -11 0 -13 27 -32 42 -30 40 5 59 -3 69
-28 13 -34 0 -47 -36 -33 -31 12 -89 4 -79 -11 3 -5 14 -9 24 -9 28 0 70 -21
70 -35 0 -14 -31 -25 -70 -25 -14 0 -32 -5 -40 -10 -13 -9 -13 -11 0 -20 21
-14 94 -12 108 2 16 16 19 12 32 -62 22 -122 25 -135 35 -132 6 1 9 35 8 80
-1 42 -3 127 -5 189 -2 61 -6 115 -11 119 -9 9 -94 20 -124 16z"/>
<path d="M140 245 c-6 -14 -10 -31 -10 -38 0 -28 48 -132 76 -165 29 -33 34
-35 92 -35 34 0 74 6 90 13 37 19 82 61 82 77 0 7 4 13 9 13 10 0 41 72 41 95
0 26 -29 16 -45 -16 -14 -25 -21 -29 -43 -25 -15 3 -75 8 -134 11 -106 7 -108
7 -108 31 0 13 -4 24 -10 24 -5 0 -10 6 -10 14 0 27 -20 27 -30 1z m283 -125
c14 -12 -23 -60 -57 -74 -38 -15 -100 -3 -133 27 -23 20 -30 47 -16 61 9 9
195 -4 206 -14z"/>
</g>
</svg>
