<svg version="1.0" xmlns="http://www.w3.org/2000/svg"
 width="79.000000pt" height="93.000000pt" viewBox="0 0 79.000000 93.000000"
 preserveAspectRatio="xMidYMid meet">
<metadata>
Created by potrace 1.15, written by Peter Selinger 2001-2017
</metadata>
<g transform="translate(0.000000,93.000000) scale(0.100000,-0.100000)"
fill="#000000" stroke="none">
<path d="M443 783 c-23 -9 -14 -28 20 -41 75 -30 113 -54 130 -83 23 -42 22
-69 -3 -69 -11 0 -20 4 -20 9 0 13 -80 44 -112 43 -15 0 -35 -5 -45 -11 -15
-8 -11 -13 29 -31 50 -22 108 -66 108 -81 0 -5 -36 -9 -80 -9 -44 0 -80 -3
-80 -6 0 -20 59 -54 95 -56 22 -1 49 -2 60 -2 16 -1 21 -9 23 -41 5 -82 23
-178 38 -207 9 -17 34 -48 55 -69 31 -30 48 -39 74 -39 19 0 36 4 40 9 3 5
-23 39 -58 74 -74 74 -87 110 -87 234 0 62 4 83 20 103 21 27 28 124 10 135
-5 3 -10 14 -10 23 0 24 -59 86 -99 106 -33 15 -82 20 -108 9z"/>
<path d="M95 759 c-11 -17 23 -46 70 -59 47 -13 78 -42 89 -83 8 -32 6 -33
-36 -7 -40 24 -143 27 -171 6 -18 -14 -17 -14 2 -21 12 -3 21 -10 21 -15 0 -4
30 -13 66 -19 68 -12 111 -39 101 -64 -7 -19 -52 -27 -148 -27 -86 0 -98 -10
-57 -46 21 -19 32 -20 113 -14 50 4 98 10 107 14 15 7 17 -4 21 -106 4 -105
10 -150 24 -188 4 -8 5 -19 4 -23 -1 -5 6 -23 14 -41 17 -36 69 -66 115 -66
42 0 38 22 -13 78 -24 26 -49 61 -55 77 -11 30 -23 194 -27 390 -1 55 -5 110
-9 121 -18 57 -207 133 -231 93z"/>
</g>
</svg>
