<svg version="1.0" xmlns="http://www.w3.org/2000/svg"
 width="57.000000pt" height="75.000000pt" viewBox="0 0 57.000000 75.000000"
 preserveAspectRatio="xMidYMid meet">
<metadata>
Created by potrace 1.15, written by Peter Selinger 2001-2017
</metadata>
<g transform="translate(0.000000,75.000000) scale(0.100000,-0.100000)"
fill="#000000" stroke="none">
<path d="M278 648 c-3 -43 -3 -43 -43 -41 -22 1 -53 9 -70 17 -63 33 -74 8
-15 -32 19 -12 45 -25 59 -28 14 -3 37 -10 51 -15 23 -10 21 -12 -38 -41 -79
-39 -122 -98 -122 -167 0 -25 4 -52 8 -59 10 -15 65 -32 107 -33 30 0 30 0
-10 -32 -76 -62 -135 -120 -135 -133 0 -23 13 -16 94 51 43 36 82 65 87 65 5
0 9 -33 9 -72 0 -128 32 -135 40 -10 6 95 11 95 120 11 76 -58 100 -70 100
-47 0 16 -78 86 -130 116 -68 39 -73 44 -58 53 7 5 25 9 39 9 37 0 95 26 103
45 10 27 7 58 -10 108 -13 38 -27 55 -72 87 -30 22 -61 40 -69 40 -29 0 -11
18 30 29 56 15 121 54 125 74 5 24 -16 21 -87 -13 -34 -17 -66 -28 -72 -25 -5
4 -9 24 -9 46 0 57 -28 54 -32 -3z m-8 -193 c0 -45 0 -45 -55 -45 -30 0 -55 4
-55 9 0 11 77 68 108 80 1 1 2 -19 2 -44z m110 4 c17 -17 29 -36 27 -43 -4
-14 -41 -20 -73 -12 -20 5 -24 13 -24 46 0 33 3 40 19 40 11 0 34 -14 51 -31z
m-110 -113 c0 -48 -9 -56 -61 -56 -41 0 -51 4 -65 25 -27 42 -13 55 61 55 62
0 65 -1 65 -24z m158 -8 c-3 -30 -7 -33 -46 -41 -59 -12 -72 -5 -72 38 0 35 0
35 61 35 60 0 60 0 57 -32z"/>
</g>
</svg>
