<svg version="1.0" xmlns="http://www.w3.org/2000/svg"
 width="47.000000pt" height="91.000000pt" viewBox="0 0 47.000000 91.000000"
 preserveAspectRatio="xMidYMid meet">
<metadata>
Created by potrace 1.15, written by Peter Selinger 2001-2017
</metadata>
<g transform="translate(0.000000,91.000000) scale(0.100000,-0.100000)"
fill="#000000" stroke="none">
<path d="M206 695 c-7 -34 -7 -34 -41 -18 -19 9 -35 20 -35 25 0 4 -9 8 -20 8
-11 0 -20 -2 -20 -5 0 -14 29 -53 65 -86 40 -37 40 -37 0 -76 -58 -55 -68 -81
-63 -152 4 -54 9 -66 41 -99 20 -21 37 -45 37 -54 0 -9 -16 -33 -35 -52 -48
-50 -46 -81 3 -36 12 11 25 20 30 20 5 0 15 7 22 15 22 26 30 17 30 -34 0 -27
3 -56 6 -65 11 -29 24 -17 24 22 0 58 11 68 52 50 52 -24 78 -31 78 -19 0 6
-3 11 -7 11 -15 0 -103 88 -103 103 0 8 13 20 29 26 37 16 51 48 51 118 0 85
-39 178 -60 143 -5 -8 -7 0 -6 20 1 21 9 37 21 44 41 23 59 53 45 75 -8 13
-37 2 -68 -26 -21 -20 -27 -16 -41 32 -16 54 -27 57 -35 10z m-1 -205 c11 -35
-12 -51 -45 -30 -12 7 -12 12 4 29 24 26 33 26 41 1z m69 14 c10 -4 16 -18 16
-36 0 -23 -4 -29 -16 -24 -9 3 -18 6 -20 6 -2 0 -4 14 -4 30 0 32 1 33 24 24z
m-66 -151 c4 -68 -12 -70 -56 -6 -34 48 -30 65 16 61 37 -3 37 -3 40 -55z m82
26 c0 -17 -20 -49 -30 -49 -6 0 -10 14 -10 30 0 23 4 30 20 30 11 0 20 -5 20
-11z"/>
</g>
</svg>
