<svg version="1.0" xmlns="http://www.w3.org/2000/svg"
 width="63.000000pt" height="75.000000pt" viewBox="0 0 63.000000 75.000000"
 preserveAspectRatio="xMidYMid meet">
<metadata>
Created by potrace 1.15, written by Peter Selinger 2001-2017
</metadata>
<g transform="translate(0.000000,75.000000) scale(0.100000,-0.100000)"
fill="#000000" stroke="none">
<path d="M298 658 c-3 -43 -3 -43 -72 -43 -47 0 -71 4 -73 13 -3 6 3 12 12 12
26 0 76 30 69 42 -9 14 -84 1 -106 -19 -10 -9 -18 -26 -18 -39 0 -40 25 -54
95 -54 72 0 95 -6 95 -26 0 -10 -15 -14 -52 -15 -69 -1 -120 -20 -135 -50 -7
-13 -13 -49 -13 -80 0 -74 20 -89 120 -89 54 0 72 -4 77 -15 9 -25 -3 -29 -89
-36 -91 -6 -111 -21 -106 -74 3 -25 8 -30 33 -33 90 -8 100 -31 25 -58 -58
-21 -89 -49 -73 -65 11 -11 29 -4 116 41 31 17 37 25 37 53 0 42 -15 57 -57
57 -21 0 -33 5 -33 14 0 20 51 38 101 34 44 -3 44 -3 47 -105 2 -82 6 -103 17
-103 21 0 29 42 21 115 -9 93 -8 95 84 95 44 0 81 -4 84 -9 7 -10 -17 -21 -45
-21 -11 0 -33 -7 -49 -15 -23 -12 -30 -23 -30 -44 0 -37 15 -49 81 -62 78 -16
84 -16 84 1 0 10 -20 19 -62 29 -65 15 -79 32 -44 51 11 5 32 10 46 10 39 0
65 18 65 45 0 49 -47 68 -154 63 -81 -4 -88 18 -9 28 159 19 199 63 154 167
-21 50 -36 57 -121 57 -103 1 -108 34 -8 45 35 4 78 13 97 21 29 12 32 17 26
41 -11 44 -24 53 -76 53 -62 0 -68 -24 -9 -34 37 -6 51 -18 33 -29 -5 -3 -38
-8 -75 -12 -68 -7 -68 -7 -68 39 0 39 -3 46 -19 46 -16 0 -20 -8 -23 -42z m-3
-188 c0 -24 -3 -25 -72 -28 -55 -2 -73 0 -73 10 0 24 52 48 100 45 41 -2 45
-4 45 -27z m189 14 c23 -23 20 -31 -15 -38 -91 -18 -141 -2 -125 39 8 21 119
21 140 -1z m-191 -93 c5 -5 7 -17 3 -26 -5 -13 -19 -15 -73 -13 -61 3 -68 5
-71 25 -3 18 3 22 30 26 44 6 99 0 111 -12z m201 10 c16 -25 -96 -61 -144 -46
-25 8 -26 42 -2 48 31 8 141 7 146 -2z"/>
</g>
</svg>
