<svg version="1.0" xmlns="http://www.w3.org/2000/svg"
 width="61.000000pt" height="163.000000pt" viewBox="0 0 61.000000 163.000000"
 preserveAspectRatio="xMidYMid meet">
<metadata>
Created by potrace 1.15, written by Peter Selinger 2001-2017
</metadata>
<g transform="translate(0.000000,163.000000) scale(0.100000,-0.100000)"
fill="#000000" stroke="none">
<path d="M300 1381 c0 -16 7 -36 15 -45 18 -18 20 -37 3 -33 -8 1 -14 -11 -16
-30 -3 -34 -11 -40 -27 -24 -18 17 -129 71 -147 71 -20 0 -30 -13 -22 -32 3
-7 34 -33 69 -58 62 -43 76 -62 55 -75 -19 -12 -79 -153 -90 -213 -22 -125 -4
-292 32 -292 20 0 24 -20 7 -37 -11 -11 36 -110 72 -149 10 -11 19 -25 19 -31
0 -5 9 -18 20 -28 13 -11 20 -31 20 -52 0 -37 -20 -60 -75 -88 -43 -22 -70
-44 -62 -51 3 -3 34 3 69 14 34 11 65 18 68 15 3 -2 4 -49 3 -104 -1 -54 1
-99 6 -99 14 0 51 145 51 199 0 17 4 31 9 31 5 0 31 -20 57 -45 27 -25 57 -51
68 -57 17 -9 18 -7 12 17 -4 15 -25 55 -46 88 -22 34 -40 67 -40 74 0 8 13 22
30 31 16 9 35 28 42 42 7 14 19 36 28 50 9 14 23 45 31 70 18 58 19 242 0 290
-7 19 -16 44 -21 55 -22 58 -60 129 -107 201 -29 44 -53 90 -53 101 0 11 16
38 35 59 19 22 35 44 36 49 0 6 2 20 3 33 4 34 -8 35 -44 5 -35 -29 -44 -24
-56 27 -14 55 -54 70 -54 21z m15 -466 c0 -110 0 -110 -51 -113 -49 -3 -52 -1
-58 24 -9 33 3 152 15 160 5 3 9 14 9 25 0 10 5 19 10 19 6 0 10 5 10 12 0 7
12 30 28 52 27 39 27 39 32 -15 3 -30 5 -103 5 -164z m105 75 c7 -16 16 -30
21 -30 5 0 9 -7 9 -15 0 -8 9 -34 19 -58 34 -76 35 -75 -17 -79 -26 -3 -50 -3
-54 -1 -10 5 -9 213 1 213 5 0 14 -13 21 -30z m96 -276 c19 -101 -58 -300
-120 -312 -17 -4 -18 2 -13 70 4 40 6 114 7 164 0 102 6 111 82 112 35 1 38
-2 44 -34z m-195 -54 c6 -80 2 -130 -12 -130 -9 0 -64 114 -83 173 -7 21 25
37 64 34 24 -2 25 -6 31 -77z"/>
</g>
</svg>
