<svg version="1.0" xmlns="http://www.w3.org/2000/svg"
 width="83.000000pt" height="173.000000pt" viewBox="0 0 83.000000 173.000000"
 preserveAspectRatio="xMidYMid meet">
<metadata>
Created by potrace 1.15, written by Peter Selinger 2001-2017
</metadata>
<g transform="translate(0.000000,173.000000) scale(0.100000,-0.100000)"
fill="#000000" stroke="none">
<path d="M276 1501 c-8 -12 -10 -200 -3 -207 3 -4 13 -4 22 -1 12 5 15 24 15
96 0 49 -3 96 -6 105 -7 18 -20 21 -28 7z"/>
<path d="M507 1468 c-16 -66 -18 -119 -7 -155 7 -21 15 -44 17 -52 3 -12 7
-12 21 3 30 30 14 226 -19 226 -4 0 -9 -10 -12 -22z"/>
<path d="M636 1438 c-5 -16 -22 -105 -32 -168 -4 -25 -9 -48 -10 -52 -1 -5 -2
-55 -3 -113 0 -58 -4 -105 -8 -105 -5 1 -18 22 -30 48 -12 26 -36 62 -52 81
-40 47 -47 64 -61 155 -14 95 -18 106 -36 106 -11 0 -14 -18 -15 -77 -1 -43
-1 -87 0 -98 1 -11 -11 -41 -27 -66 -16 -25 -36 -62 -43 -82 -7 -21 -16 -37
-20 -37 -4 0 -9 -8 -12 -17 -4 -10 -13 -36 -21 -58 -19 -49 -19 -45 -2 -45 18
0 54 43 86 103 14 26 28 47 32 47 5 0 8 -37 9 -82 1 -111 -1 -142 -12 -149
-19 -12 -129 -10 -129 2 0 6 -7 8 -16 5 -13 -5 -15 0 -9 33 10 57 13 100 21
248 8 150 -7 270 -39 304 -27 29 -41 11 -32 -43 4 -23 9 -133 12 -243 5 -217
2 -238 -49 -345 -31 -64 -31 -64 -14 -230 10 -91 20 -225 23 -297 3 -73 9
-133 13 -133 3 0 16 28 28 62 24 68 30 193 12 258 -9 34 -16 93 -27 214 -3 32
0 68 5 80 6 11 14 30 18 41 5 12 11 -36 15 -125 4 -80 10 -167 13 -195 7 -59
26 -125 37 -125 14 0 21 142 14 271 -5 97 -4 133 5 144 14 17 105 21 114 6 4
-5 9 -31 12 -58 7 -61 25 -123 36 -123 16 0 28 51 28 121 0 70 0 70 57 67 58
-3 58 -3 65 -53 4 -27 12 -51 17 -53 7 -2 8 -10 1 -22 -8 -16 -1 -97 13 -140
3 -8 8 -27 11 -42 16 -70 44 13 40 112 -5 101 -26 235 -41 258 -14 23 -15 23
-34 6 -15 -14 -29 -16 -76 -10 -31 4 -61 12 -65 19 -8 13 -11 227 -3 227 5 0
37 -29 134 -123 9 -9 21 -22 26 -29 66 -85 83 -106 103 -126 16 -16 22 -35 22
-65 0 -334 7 -555 17 -572 12 -20 12 -20 13 0 0 12 6 27 12 33 9 9 13 69 15
210 1 108 5 211 8 228 6 35 -11 175 -23 184 -4 3 -27 30 -52 60 -25 30 -53 63
-62 74 -26 29 -29 61 -18 191 16 193 17 307 3 312 -7 3 -15 -1 -17 -9z"/>
<path d="M456 542 c-3 -5 -8 -51 -11 -103 -4 -72 -1 -106 11 -146 9 -29 20
-53 24 -53 15 0 30 63 29 119 -1 100 -34 214 -53 183z"/>
<path d="M600 299 c-17 -40 -7 -167 15 -188 27 -27 43 6 35 71 -4 29 -5 56 -3
61 6 9 -16 75 -27 82 -4 2 -13 -9 -20 -26z"/>
<path d="M285 289 c-17 -51 17 -209 45 -209 13 0 23 64 18 118 -8 81 -48 139
-63 91z"/>
</g>
</svg>
