<svg version="1.0" xmlns="http://www.w3.org/2000/svg"
 width="72.000000pt" height="89.000000pt" viewBox="0 0 72.000000 89.000000"
 preserveAspectRatio="xMidYMid meet">
<metadata>
Created by potrace 1.15, written by Peter Selinger 2001-2017
</metadata>
<g transform="translate(0.000000,89.000000) scale(0.100000,-0.100000)"
fill="#000000" stroke="none">
<path d="M144 657 c-38 -40 -79 -79 -89 -87 -19 -15 -19 -15 3 -18 12 -2 34 6
48 17 15 11 30 19 34 16 4 -3 10 -31 12 -62 5 -55 3 -60 -28 -96 -38 -42 -41
-55 -19 -97 17 -33 43 -50 74 -50 14 0 21 -6 21 -20 0 -15 -7 -20 -29 -20 -29
0 -57 -21 -44 -33 3 -4 21 -7 40 -7 25 0 33 -4 33 -18 0 -27 -20 -42 -56 -42
-31 0 -60 -21 -47 -33 11 -11 115 -7 153 6 40 14 46 30 12 35 -32 5 -26 44 8
52 32 8 32 32 0 40 -41 10 -36 36 10 60 63 32 80 102 35 144 -22 20 -25 32
-25 91 0 67 0 67 45 61 63 -10 58 6 -17 55 -35 22 -66 49 -70 60 -4 10 -13 19
-20 18 -7 0 -45 -33 -84 -72z m104 -19 c20 -20 13 -36 -19 -43 -44 -10 -62 10
-30 36 27 22 33 23 49 7z m2 -93 c0 -10 -10 -15 -30 -15 -20 0 -30 5 -30 15 0
10 10 15 30 15 20 0 30 -5 30 -15z m8 -68 c3 -15 -2 -18 -30 -15 -22 2 -34 9
-36 21 -3 15 2 18 30 15 22 -2 34 -9 36 -21z m34 -64 c25 -23 23 -37 -13 -68
-26 -21 -40 -25 -77 -23 -51 3 -68 21 -58 61 10 43 111 64 148 30z"/>
<path d="M183 393 c-28 -11 -10 -24 29 -21 51 4 66 28 16 27 -18 0 -39 -3 -45
-6z"/>
<path d="M454 706 c-3 -9 -4 -26 0 -39 4 -18 -7 -38 -45 -85 -27 -34 -54 -62
-59 -62 -6 0 -10 -7 -10 -15 0 -8 6 -15 14 -15 25 0 100 64 121 103 11 20 25
35 30 34 23 -8 14 -45 -21 -85 -29 -34 -34 -46 -24 -55 9 -9 23 1 64 45 29 32
56 55 59 51 14 -13 6 -47 -17 -77 -13 -17 -26 -42 -31 -56 -15 -52 -34 -70
-71 -70 -35 0 -35 0 -28 35 7 38 -4 45 -29 18 -21 -24 -26 -49 -35 -173 -7
-87 -14 -116 -40 -170 -17 -35 -29 -66 -27 -69 12 -11 37 15 69 72 31 55 37
77 44 153 7 89 7 89 37 89 26 0 30 -4 33 -32 3 -27 -2 -34 -28 -48 -37 -19
-34 -40 6 -40 21 0 30 -5 32 -20 2 -11 8 -24 13 -29 5 -6 9 -18 9 -27 0 -23
43 -69 64 -69 23 0 20 13 -14 67 -32 50 -40 103 -16 103 25 0 76 50 76 75 0
25 -24 55 -43 55 -49 1 -37 59 25 127 28 32 38 51 38 76 0 42 -21 62 -91 88
-30 11 -64 30 -76 41 -20 19 -23 19 -29 4z m111 -386 c7 -12 -12 -40 -26 -40
-10 0 -12 34 -2 43 9 10 21 9 28 -3z"/>
</g>
</svg>
