<svg version="1.0" xmlns="http://www.w3.org/2000/svg"
 width="70.000000pt" height="100.000000pt" viewBox="0 0 70.000000 100.000000"
 preserveAspectRatio="xMidYMid meet">
<metadata>
Created by potrace 1.15, written by Peter Selinger 2001-2017
</metadata>
<g transform="translate(0.000000,100.000000) scale(0.100000,-0.100000)"
fill="#000000" stroke="none">
<path d="M213 739 c-23 -23 -14 -28 55 -31 67 -3 67 -3 70 -105 3 -103 3 -103
-70 -103 -77 0 -111 -11 -92 -30 16 -16 396 -9 402 8 3 9 -19 12 -86 12 -49 0
-92 3 -95 7 -4 3 22 24 58 46 42 25 62 44 56 50 -5 5 -25 -1 -53 -17 -51 -30
-78 -35 -58 -11 7 8 21 15 31 15 20 0 88 55 79 64 -3 3 -25 -2 -49 -10 -58
-20 -63 -11 -6 10 25 10 45 24 45 32 0 18 -11 18 -46 -1 -41 -21 -54 -19 -54
10 0 25 1 25 79 25 46 0 83 5 86 11 4 6 5 12 3 14 -2 2 -80 7 -173 10 -134 6
-173 4 -182 -6z"/>
<path d="M197 433 c-12 -11 -8 -31 9 -47 19 -20 54 -5 54 23 0 25 -45 42 -63
24z"/>
<path d="M335 419 c-10 -32 16 -55 44 -39 32 16 24 54 -11 58 -20 2 -28 -2
-33 -19z"/>
<path d="M467 434 c-13 -14 -7 -52 10 -58 25 -10 51 20 37 42 -12 19 -36 27
-47 16z"/>
<path d="M216 341 c-9 -13 21 -194 40 -240 15 -38 32 -50 47 -35 3 4 -1 21
-10 38 -11 21 -17 60 -17 122 -1 61 -6 97 -15 108 -15 17 -37 21 -45 7z"/>
<path d="M333 335 c-3 -9 -1 -20 4 -24 6 -3 12 -42 15 -86 5 -83 33 -160 64
-172 27 -10 28 6 4 50 -19 33 -25 62 -30 142 -5 94 -6 100 -28 103 -14 2 -25
-3 -29 -13z"/>
<path d="M466 332 c-7 -11 11 -178 23 -217 17 -57 34 -85 53 -85 23 0 23 1 -3
61 -19 43 -21 62 -16 138 6 92 0 111 -34 111 -10 0 -20 -4 -23 -8z"/>
</g>
</svg>
