<svg version="1.0" xmlns="http://www.w3.org/2000/svg"
 width="70.000000pt" height="91.000000pt" viewBox="0 0 70.000000 91.000000"
 preserveAspectRatio="xMidYMid meet">
<metadata>
Created by potrace 1.15, written by Peter Selinger 2001-2017
</metadata>
<g transform="translate(0.000000,91.000000) scale(0.100000,-0.100000)"
fill="#000000" stroke="none">
<path d="M453 743 c-9 -37 -10 -38 -67 -45 -64 -8 -71 -11 -61 -27 3 -6 33
-11 66 -11 52 0 60 -2 57 -17 -2 -13 -15 -19 -46 -21 -46 -3 -51 -12 -24 -39
10 -10 33 -39 51 -65 18 -27 37 -48 42 -48 17 0 130 129 129 147 0 4 -28 6
-61 5 -55 -4 -60 -2 -57 15 3 15 15 19 73 23 53 4 70 9 70 20 0 12 -15 16 -67
18 -64 3 -68 4 -68 27 0 29 -9 55 -20 55 -4 0 -12 -17 -17 -37z m77 -157 c0
-3 -13 -19 -30 -37 -30 -33 -30 -33 -55 -9 -40 38 -33 50 30 50 30 0 55 -2 55
-4z"/>
<path d="M140 688 c-14 -25 -32 -38 -60 -47 -67 -20 -91 -81 -48 -121 12 -11
34 -20 48 -20 15 0 39 -11 55 -24 27 -24 28 -25 21 -105 -7 -72 -4 -89 19
-158 30 -89 40 -102 57 -85 9 9 8 24 -7 64 -13 38 -18 79 -18 156 0 102 0 104
29 128 16 14 45 32 64 41 41 18 50 29 50 63 0 38 -14 52 -56 59 -33 5 -42 13
-57 44 -26 56 -41 48 -32 -20 4 -32 11 -66 16 -75 14 -26 11 -53 -9 -71 -23
-21 -36 -21 -56 -1 -20 20 -20 64 -1 138 9 33 13 61 11 64 -3 2 -14 -11 -26
-30z m-30 -112 c0 -41 -12 -51 -40 -36 -25 13 -26 45 -2 59 31 19 42 12 42
-23z m200 4 c0 -21 -25 -44 -40 -35 -14 9 -13 52 3 58 20 7 37 -4 37 -23z"/>
<path d="M336 460 c-20 -22 -36 -45 -36 -50 0 -14 22 -12 44 5 24 18 50 19 76
3 10 -7 22 -9 26 -6 7 8 -53 88 -66 88 -4 0 -24 -18 -44 -40z"/>
<path d="M502 457 c-38 -47 -27 -62 19 -28 29 22 29 22 57 2 32 -24 82 -38 82
-23 0 15 -92 92 -110 91 -8 0 -30 -19 -48 -42z"/>
<path d="M383 383 c-36 -7 -27 -23 12 -23 27 0 35 -4 35 -19 0 -15 -11 -20
-62 -27 -78 -11 -74 -29 6 -29 52 -1 60 -3 72 -26 7 -15 27 -32 44 -39 34 -14
39 -28 13 -37 -48 -17 -73 -44 -73 -79 0 -38 15 -74 30 -74 6 0 10 22 10 50 0
47 2 50 38 69 73 37 79 68 17 98 -54 26 -45 42 27 45 74 4 96 28 25 28 -62 0
-108 11 -104 24 2 6 12 12 23 14 48 7 64 13 59 22 -6 10 -127 12 -172 3z"/>
</g>
</svg>
