<svg version="1.0" xmlns="http://www.w3.org/2000/svg"
 width="65.000000pt" height="85.000000pt" viewBox="0 0 65.000000 85.000000"
 preserveAspectRatio="xMidYMid meet">
<metadata>
Created by potrace 1.15, written by Peter Selinger 2001-2017
</metadata>
<g transform="translate(0.000000,85.000000) scale(0.100000,-0.100000)"
fill="#000000" stroke="none">
<path d="M146 632 c-3 -5 4 -32 14 -61 24 -62 26 -148 5 -246 -29 -135 -13
-285 31 -285 14 0 16 7 9 53 -15 108 -15 164 1 230 20 82 17 275 -5 301 -14
17 -46 22 -55 8z"/>
<path d="M365 609 c-4 -5 1 -19 10 -29 15 -16 15 -24 5 -55 -9 -28 -9 -51 0
-99 11 -57 10 -65 -9 -98 -36 -60 -51 -298 -19 -298 5 0 16 16 24 36 14 34 18
36 47 30 18 -4 53 -10 78 -13 59 -7 74 12 26 32 -62 26 -56 85 8 85 47 0 44
14 -6 29 -35 11 -40 15 -37 39 2 21 9 28 33 32 40 7 45 36 8 45 -15 3 -37 12
-47 20 -18 14 -17 17 27 64 26 28 47 54 47 59 0 21 -62 103 -89 116 -34 18
-97 21 -106 5z m109 -73 c15 -13 26 -26 26 -30 0 -11 -54 -76 -63 -76 -15 0
-28 55 -22 92 8 44 23 48 59 14z m-17 -218 c11 -15 2 -60 -13 -65 -5 -2 -18 3
-29 11 -17 12 -18 17 -7 40 12 28 34 34 49 14z m-9 -136 c4 -38 -12 -48 -51
-33 -27 11 -35 39 -21 75 5 13 10 13 37 2 25 -10 33 -19 35 -44z"/>
<path d="M262 588 c-15 -19 -3 -178 14 -178 16 0 21 17 29 98 5 43 3 67 -5 77
-15 18 -24 19 -38 3z"/>
<path d="M86 562 c-7 -12 5 -81 15 -88 5 -3 7 -15 4 -27 -7 -29 9 -52 29 -44
14 6 16 16 10 59 -9 78 -39 130 -58 100z"/>
<path d="M83 293 c-4 -16 -8 -64 -8 -108 0 -63 3 -80 15 -83 13 -2 18 17 28
99 6 56 9 105 6 110 -11 18 -34 8 -41 -18z"/>
<path d="M252 303 c-27 -52 -24 -213 3 -213 19 0 25 29 17 70 -5 19 -5 53 -1
75 4 22 9 49 11 59 4 25 -18 32 -30 9z"/>
</g>
</svg>
