<svg version="1.0" xmlns="http://www.w3.org/2000/svg"
 width="47.000000pt" height="93.000000pt" viewBox="0 0 47.000000 93.000000"
 preserveAspectRatio="xMidYMid meet">
<metadata>
Created by potrace 1.15, written by Peter Selinger 2001-2017
</metadata>
<g transform="translate(0.000000,93.000000) scale(0.100000,-0.100000)"
fill="#000000" stroke="none">
<path d="M156 682 c-3 -6 -7 -44 -8 -86 -2 -59 0 -79 12 -86 8 -5 18 -6 23 -1
12 12 4 174 -10 178 -6 2 -14 0 -17 -5z"/>
<path d="M247 582 c-24 -75 -27 -98 -21 -157 6 -63 4 -72 -15 -89 -24 -21 -26
-52 -10 -105 25 -79 40 -88 58 -33 7 21 21 49 31 62 18 24 18 24 25 -43 4 -37
11 -67 16 -67 12 0 21 77 17 160 -3 66 -5 75 -21 72 -15 -3 -18 2 -16 25 5 62
-14 263 -25 263 -6 0 -23 -40 -39 -88z m21 -277 c-21 -42 -38 -51 -38 -19 0
12 46 62 57 64 2 0 -7 -20 -19 -45z"/>
</g>
</svg>
