<svg version="1.0" xmlns="http://www.w3.org/2000/svg"
 width="51.000000pt" height="97.000000pt" viewBox="0 0 51.000000 97.000000"
 preserveAspectRatio="xMidYMid meet">
<metadata>
Created by potrace 1.15, written by Peter Selinger 2001-2017
</metadata>
<g transform="translate(0.000000,97.000000) scale(0.100000,-0.100000)"
fill="#000000" stroke="none">
<path d="M401 780 c-18 -4 -44 -13 -57 -19 -13 -6 -35 -16 -48 -22 -13 -6 -48
-35 -77 -65 -53 -53 -53 -53 -32 -71 12 -10 29 -23 39 -28 14 -9 16 -20 10
-68 -7 -53 -9 -57 -33 -57 -26 0 -26 0 3 -28 16 -15 45 -38 64 -52 19 -13 37
-27 40 -30 10 -11 52 -31 56 -27 6 6 -18 57 -27 57 -16 0 -17 33 -2 65 13 28
22 35 46 35 39 0 32 17 -26 60 -46 34 -46 34 -10 55 20 11 38 27 41 35 4 12 2
13 -9 3 -15 -15 -58 -17 -79 -3 -12 8 -13 13 -2 30 6 11 12 28 12 39 0 11 13
25 34 35 43 20 43 21 50 -9 4 -14 11 -23 16 -20 12 7 40 65 40 82 0 14 0 14
-49 3z m-141 -130 c0 -14 -7 -20 -22 -20 -20 0 -21 1 -3 20 10 11 20 20 22 20
1 0 3 -9 3 -20z m54 -135 c18 -13 18 -16 2 -50 -30 -63 -55 -42 -40 34 7 35
11 36 38 16z"/>
<path d="M140 382 c0 -5 9 -19 20 -32 20 -23 20 -39 -1 -104 -10 -34 -10 -120
0 -156 7 -24 8 -23 19 15 7 22 12 59 12 82 0 23 5 45 10 48 6 3 10 15 10 26 0
23 3 23 40 4 28 -15 30 -14 30 4 0 21 -62 91 -97 109 -26 14 -43 15 -43 4z"/>
</g>
</svg>
