<svg version="1.0" xmlns="http://www.w3.org/2000/svg"
 width="63.000000pt" height="95.000000pt" viewBox="0 0 63.000000 95.000000"
 preserveAspectRatio="xMidYMid meet">
<metadata>
Created by potrace 1.15, written by Peter Selinger 2001-2017
</metadata>
<g transform="translate(0.000000,95.000000) scale(0.100000,-0.100000)"
fill="#000000" stroke="none">
<path d="M210 891 c0 -11 5 -23 10 -26 6 -3 10 -15 10 -25 0 -10 15 -32 33
-48 180 -166 165 -139 166 -293 1 -86 -2 -139 -8 -139 -21 0 -51 -45 -51 -77
0 -18 4 -33 10 -33 11 0 30 -64 30 -104 0 -15 -11 -50 -24 -77 -32 -63 -16
-75 33 -23 36 38 36 38 33 135 -2 85 0 99 19 123 11 14 26 26 33 26 7 0 34 19
59 42 72 68 72 138 -1 215 -15 15 -38 42 -50 58 -13 17 -62 69 -108 117 -46
48 -84 91 -84 96 0 10 -77 52 -96 52 -8 0 -14 -9 -14 -19z m302 -348 c8 -10
20 -37 25 -59 9 -37 8 -45 -12 -68 -12 -14 -30 -26 -40 -26 -14 0 -16 6 -11
31 3 17 6 56 6 85 0 57 7 65 32 37z"/>
<path d="M68 593 c-3 -55 -11 -93 -28 -128 -35 -74 -22 -114 26 -76 39 31 47
16 36 -67 -16 -112 17 -306 48 -287 24 15 42 75 36 122 -3 27 -9 74 -12 106
-4 31 -10 60 -15 63 -5 3 -9 25 -9 49 0 42 1 44 32 47 45 4 46 26 5 85 -18 26
-40 68 -47 93 -17 55 -27 70 -50 70 -15 0 -18 -12 -22 -77z"/>
</g>
</svg>
