<svg version="1.0" xmlns="http://www.w3.org/2000/svg"
 width="43.000000pt" height="89.000000pt" viewBox="0 0 43.000000 89.000000"
 preserveAspectRatio="xMidYMid meet">
<metadata>
Created by potrace 1.15, written by Peter Selinger 2001-2017
</metadata>
<g transform="translate(0.000000,89.000000) scale(0.100000,-0.100000)"
fill="#000000" stroke="none">
<path d="M232 791 c-12 -7 -23 -67 -38 -203 -3 -25 -14 -55 -25 -67 -31 -33
-37 -62 -28 -135 11 -90 40 -110 69 -48 13 27 13 27 26 -28 7 -30 13 -76 14
-102 0 -53 15 -63 31 -21 10 26 9 51 -7 210 -7 63 -26 74 -62 38 -23 -23 -27
-24 -35 -9 -6 10 -6 19 0 23 5 3 19 21 32 38 12 18 41 44 65 58 46 27 49 38
31 150 -13 84 -39 118 -73 96z m34 -167 c-4 -9 -9 -15 -11 -12 -3 3 -3 13 1
22 4 9 9 15 11 12 3 -3 3 -13 -1 -22z"/>
<path d="M136 734 c-11 -28 -6 -120 6 -132 20 -20 26 -14 39 43 10 45 10 60
-1 80 -15 28 -35 33 -44 9z"/>
</g>
</svg>
