<svg version="1.0" xmlns="http://www.w3.org/2000/svg"
 width="39.000000pt" height="85.000000pt" viewBox="0 0 39.000000 85.000000"
 preserveAspectRatio="xMidYMid meet">
<metadata>
Created by potrace 1.15, written by Peter Selinger 2001-2017
</metadata>
<g transform="translate(0.000000,85.000000) scale(0.100000,-0.100000)"
fill="#000000" stroke="none">
<path d="M130 586 c0 -13 7 -37 15 -52 21 -40 10 -170 -16 -200 -28 -31 -24
-126 7 -163 2 -2 15 6 30 18 15 11 31 21 36 21 6 0 9 -28 6 -70 -2 -38 0 -70
4 -70 4 0 16 21 28 46 21 49 28 148 10 159 -6 4 -24 -1 -42 -9 -45 -23 -58
-20 -58 12 0 29 21 43 93 66 27 9 21 62 -18 140 -32 67 -74 126 -89 126 -3 0
-6 -11 -6 -24z m80 -176 c0 -11 -4 -20 -10 -20 -5 0 -10 9 -10 20 0 11 5 20
10 20 6 0 10 -9 10 -20z"/>
<path d="M281 518 c0 -18 3 -51 7 -72 7 -40 7 -40 24 -15 13 21 14 33 5 72
-12 55 -37 65 -36 15z"/>
<path d="M70 518 c0 -33 22 -88 35 -88 16 0 21 53 9 84 -7 19 -44 22 -44 4z"/>
</g>
</svg>
