<svg version="1.0" xmlns="http://www.w3.org/2000/svg"
 width="49.000000pt" height="103.000000pt" viewBox="0 0 49.000000 103.000000"
 preserveAspectRatio="xMidYMid meet">
<metadata>
Created by potrace 1.15, written by Peter Selinger 2001-2017
</metadata>
<g transform="translate(0.000000,103.000000) scale(0.100000,-0.100000)"
fill="#000000" stroke="none">
<path d="M30 1020 c0 -5 5 -10 10 -10 6 0 10 5 10 10 0 6 -4 10 -10 10 -5 0
-10 -4 -10 -10z"/>
<path d="M105 780 c-3 -5 -6 -89 -6 -185 0 -154 3 -181 19 -208 10 -19 28 -33
41 -35 26 -4 77 -49 67 -59 -7 -7 -44 11 -101 48 -21 15 -45 25 -52 22 -14 -6
-18 -33 -5 -33 9 0 24 -44 42 -125 15 -67 32 -105 47 -105 17 0 16 13 -1 80
-8 30 -13 57 -11 58 8 8 45 -10 80 -38 21 -16 42 -27 48 -23 9 5 5 155 -7 275
-6 51 -30 93 -99 171 -24 28 -28 39 -25 87 2 54 -5 80 -22 80 -5 0 -11 -4 -15
-10z m70 -250 c18 0 45 -61 45 -104 0 -25 -4 -36 -15 -36 -8 0 -15 5 -15 10 0
6 -5 10 -11 10 -32 0 -51 87 -32 137 7 17 8 17 11 1 2 -10 9 -18 17 -18z"/>
<path d="M323 724 c-7 -7 -13 -24 -13 -38 0 -13 -9 -46 -21 -73 -24 -57 -19
-104 16 -139 13 -13 20 -24 16 -24 -5 0 -14 -13 -21 -29 -14 -35 0 -91 31
-122 11 -11 27 -38 35 -60 9 -22 20 -37 24 -32 4 4 13 43 20 86 9 62 9 85 0
108 -7 16 -16 29 -21 29 -5 0 -9 14 -9 30 0 17 5 30 10 30 18 0 11 99 -10 140
-11 22 -20 50 -20 63 0 32 -21 50 -37 31z m40 -146 c8 -27 -2 -68 -15 -68 -15
0 -38 27 -38 46 0 15 26 43 41 44 4 0 9 -10 12 -22z m17 -215 c0 -13 -5 -23
-10 -23 -16 0 -34 46 -26 67 7 17 8 17 22 -1 8 -11 14 -30 14 -43z"/>
</g>
</svg>
