<svg version="1.0" xmlns="http://www.w3.org/2000/svg"
 width="95.000000pt" height="105.000000pt" viewBox="0 0 95.000000 105.000000"
 preserveAspectRatio="xMidYMid meet">
<metadata>
Created by potrace 1.15, written by Peter Selinger 2001-2017
</metadata>
<g transform="translate(0.000000,105.000000) scale(0.100000,-0.100000)"
fill="#000000" stroke="none">
<path d="M580 970 c0 -5 19 -24 43 -44 34 -28 47 -48 57 -88 8 -28 26 -70 41
-93 41 -65 43 -78 14 -136 -49 -102 -31 -169 72 -266 55 -51 55 -51 52 -115
-3 -51 -1 -63 11 -63 8 0 16 10 18 23 2 12 8 22 13 22 5 0 9 21 9 46 0 43 -24
95 -55 116 -5 4 -6 8 -1 8 5 0 -3 9 -18 21 -30 23 -66 92 -66 125 0 28 42 103
75 134 14 13 25 26 25 30 0 4 18 26 40 49 41 43 48 67 29 104 -29 53 -87 87
-149 87 -14 0 -54 11 -88 24 -60 24 -122 31 -122 16z m235 -110 c3 -5 17 -10
31 -10 19 0 24 -5 24 -25 0 -23 -53 -95 -70 -95 -4 0 -18 28 -31 63 -13 34
-25 65 -27 70 -5 11 66 8 73 -3z"/>
<path d="M123 958 c2 -7 -9 -21 -25 -31 -28 -17 -34 -45 -8 -39 7 1 18 -3 26
-9 10 -8 14 -8 14 0 0 6 6 11 14 11 17 0 31 33 17 38 -6 2 -11 12 -11 23 0 11
-7 19 -16 19 -9 0 -14 -6 -11 -12z"/>
<path d="M170 956 c0 -8 5 -18 10 -21 6 -3 10 1 10 9 0 8 -4 18 -10 21 -5 3
-10 -1 -10 -9z"/>
<path d="M370 900 c0 -12 5 -52 11 -90 14 -80 8 -110 -26 -144 -14 -14 -25
-29 -25 -33 0 -4 -14 -17 -30 -28 -16 -11 -30 -28 -30 -37 0 -25 37 -23 45 2
3 11 11 20 16 20 5 0 19 9 31 20 12 11 28 20 35 20 14 0 28 -43 20 -63 -3 -7
1 -28 9 -46 13 -30 15 -31 30 -17 12 13 15 27 10 59 -8 53 -8 86 0 98 3 5 27
9 54 9 35 0 50 4 54 16 8 22 -23 44 -50 38 -30 -8 -64 38 -64 86 0 39 -17 99
-28 101 -4 0 -19 3 -34 5 -23 4 -28 1 -28 -16z"/>
<path d="M120 783 c-22 -28 -25 -44 -11 -58 14 -15 15 -41 7 -147 -7 -82 -6
-100 7 -113 15 -14 17 -14 27 6 16 29 20 58 23 154 2 46 6 87 10 91 4 4 7 22
7 39 0 24 -6 35 -25 43 -21 10 -27 8 -45 -15z"/>
<path d="M52 728 c5 -15 37 -18 41 -4 1 5 -9 11 -21 13 -16 2 -22 -1 -20 -9z"/>
<path d="M329 393 c-5 -35 9 -80 70 -215 12 -26 21 -52 21 -57 0 -14 -63 -14
-77 0 -6 6 -18 11 -27 13 -9 1 -22 9 -28 18 -14 18 -78 35 -78 21 0 -11 65
-73 107 -101 17 -12 42 -22 55 -22 13 0 28 -4 34 -9 10 -11 146 -21 175 -14
20 6 26 28 10 37 -5 3 -26 8 -46 11 -21 2 -46 13 -56 24 -25 26 -42 126 -26
152 6 10 15 19 19 19 5 0 8 6 8 13 0 7 14 26 30 42 61 58 23 63 -43 5 -25 -22
-48 -40 -51 -40 -3 0 -13 16 -21 36 -20 48 -72 94 -76 67z"/>
<path d="M570 260 c0 -5 7 -10 16 -10 8 0 12 5 9 10 -3 6 -10 10 -16 10 -5 0
-9 -4 -9 -10z"/>
</g>
</svg>
