<svg version="1.0" xmlns="http://www.w3.org/2000/svg"
 width="43.000000pt" height="81.000000pt" viewBox="0 0 43.000000 81.000000"
 preserveAspectRatio="xMidYMid meet">
<metadata>
Created by potrace 1.15, written by Peter Selinger 2001-2017
</metadata>
<g transform="translate(0.000000,81.000000) scale(0.100000,-0.100000)"
fill="#000000" stroke="none">
<path d="M163 593 c-7 -15 -13 -31 -13 -36 0 -5 -9 -21 -19 -36 -27 -37 -27
-163 0 -187 10 -9 21 -29 24 -44 7 -34 27 -31 44 6 14 31 15 94 1 94 -15 0
-12 27 5 60 13 25 13 41 4 100 -13 74 -26 87 -46 43z m14 -117 c-4 -9 -14 -16
-22 -16 -9 0 -14 3 -12 8 2 4 7 16 11 26 5 14 10 16 18 8 6 -6 8 -18 5 -26z"/>
<path d="M255 464 c6 -123 6 -130 -15 -154 -18 -21 -20 -32 -15 -75 9 -68 37
-145 52 -145 7 0 13 11 13 25 0 14 4 25 8 25 4 0 6 -15 4 -34 -2 -18 -2 -42 1
-52 10 -43 56 108 60 196 2 31 -1 35 -25 38 -24 3 -28 -1 -38 -37 -12 -46 -30
-55 -30 -15 0 14 13 43 30 64 39 50 54 89 42 115 -5 11 -16 40 -23 65 -17 57
-41 102 -58 108 -11 4 -12 -20 -6 -124z"/>
</g>
</svg>
