<svg version="1.0" xmlns="http://www.w3.org/2000/svg"
 width="37.000000pt" height="87.000000pt" viewBox="0 0 37.000000 87.000000"
 preserveAspectRatio="xMidYMid meet">
<metadata>
Created by potrace 1.15, written by Peter Selinger 2001-2017
</metadata>
<g transform="translate(0.000000,87.000000) scale(0.100000,-0.100000)"
fill="#000000" stroke="none">
<path d="M190 530 c0 -91 -7 -117 -40 -152 -27 -29 -15 -128 15 -128 8 0 17 5
20 10 12 19 25 10 25 -17 0 -16 -7 -46 -15 -68 -16 -46 -18 -65 -7 -65 18 0
64 113 66 159 1 46 1 46 -41 43 -39 -2 -43 0 -43 21 0 16 12 30 41 47 65 40
71 49 64 89 -8 45 -56 143 -72 149 -10 3 -13 -19 -13 -88z m50 -56 c0 -14 -3
-14 -15 -4 -8 7 -15 14 -15 16 0 2 7 4 15 4 8 0 15 -7 15 -16z"/>
<path d="M130 496 c0 -44 9 -66 26 -66 15 0 20 54 8 84 -12 30 -34 18 -34 -18z"/>
</g>
</svg>
