<svg version="1.0" xmlns="http://www.w3.org/2000/svg"
 width="69.000000pt" height="84.000000pt" viewBox="0 0 69.000000 84.000000"
 preserveAspectRatio="xMidYMid meet">
<metadata>
Created by potrace 1.15, written by Peter Selinger 2001-2017
</metadata>
<g transform="translate(0.000000,84.000000) scale(0.100000,-0.100000)"
fill="#000000" stroke="none">
<path d="M337 723 c-14 -13 -6 -22 52 -52 45 -23 67 -29 94 -24 27 4 43 0 73
-21 38 -25 74 -34 74 -18 0 4 -15 22 -32 39 -26 25 -46 33 -88 39 -30 4 -79
15 -109 26 -63 21 -56 20 -64 11z"/>
<path d="M200 662 c0 -27 -6 -45 -21 -58 -24 -22 -59 -86 -59 -108 0 -28 42
-58 78 -54 20 3 32 0 32 -8 0 -6 16 -28 35 -49 20 -20 43 -51 52 -68 16 -31
16 -31 39 -2 13 17 24 35 24 41 0 5 16 25 35 44 57 55 49 64 -54 58 -90 -5
-90 -5 -69 22 25 34 21 75 -7 75 -14 0 -21 -8 -23 -25 -10 -67 -82 -70 -82 -3
0 8 14 34 31 59 34 50 38 106 7 112 -15 3 -18 -4 -18 -36z m190 -237 c0 -10
-44 -65 -51 -65 -13 0 -58 53 -53 62 6 9 104 11 104 3z"/>
<path d="M327 643 c-9 -15 27 -77 53 -90 16 -8 45 -11 80 -8 65 7 101 -8 110
-45 4 -16 14 -26 28 -28 25 -4 26 2 12 44 -17 47 -65 73 -150 80 -60 5 -80 11
-101 31 -15 14 -29 21 -32 16z"/>
<path d="M420 318 c-70 -98 -82 -100 -152 -27 -28 29 -55 49 -65 47 -31 -6
-24 -27 16 -53 23 -14 41 -32 41 -40 0 -17 -35 -21 -45 -5 -8 13 -42 13 -50 0
-9 -15 17 -48 47 -61 33 -14 83 -68 106 -115 17 -37 49 -46 58 -16 32 95 54
139 87 172 36 37 37 39 16 45 -11 4 -26 2 -32 -4 -37 -37 -29 19 9 60 28 29
30 39 9 39 -8 0 -29 -19 -45 -42z m-10 -106 c0 -17 -60 -92 -73 -91 -20 1 -71
68 -55 73 10 3 74 16 121 25 4 0 7 -3 7 -7z"/>
</g>
</svg>
