<svg version="1.0" xmlns="http://www.w3.org/2000/svg"
 width="63.000000pt" height="80.000000pt" viewBox="0 0 63.000000 80.000000"
 preserveAspectRatio="xMidYMid meet">
<metadata>
Created by potrace 1.15, written by Peter Selinger 2001-2017
</metadata>
<g transform="translate(0.000000,80.000000) scale(0.100000,-0.100000)"
fill="#000000" stroke="none">
<path d="M492 697 c-34 -36 -29 -82 12 -123 35 -35 66 -45 66 -21 0 8 -12 24
-26 38 -47 43 -50 60 -19 85 27 21 27 44 1 44 -7 0 -22 -10 -34 -23z"/>
<path d="M330 700 c0 -6 5 -19 11 -29 9 -14 8 -25 -5 -51 -20 -42 -20 -67 1
-78 14 -8 9 -17 -35 -64 -45 -47 -66 -88 -46 -88 9 0 94 63 94 69 0 3 9 17 19
31 16 20 21 22 35 11 22 -18 20 -60 -4 -96 -24 -36 -25 -45 -6 -45 19 0 64 55
72 87 9 34 -10 71 -47 91 -64 36 -65 37 -46 65 21 33 22 56 1 85 -15 22 -44
30 -44 12z"/>
<path d="M195 673 c32 -77 33 -67 -20 -139 -14 -20 2 -29 30 -16 31 14 65 68
65 103 0 29 -37 69 -64 69 -13 0 -16 -5 -11 -17z"/>
<path d="M516 463 c-3 -4 -6 -18 -6 -32 0 -18 -15 -40 -50 -72 -31 -29 -50
-54 -50 -68 0 -22 28 -54 89 -99 17 -13 36 -35 43 -49 17 -34 35 -40 43 -13 9
29 -15 63 -74 106 -27 19 -51 41 -54 48 -4 9 15 35 44 64 37 37 49 56 49 80 0
28 -20 49 -34 35z"/>
<path d="M150 367 c0 -8 18 -30 40 -50 22 -19 40 -42 40 -50 0 -8 -26 -30 -57
-50 -65 -39 -97 -71 -107 -104 -12 -40 15 -36 52 7 20 24 59 58 88 76 38 24
54 42 59 63 8 38 0 52 -52 90 -47 34 -63 38 -63 18z"/>
<path d="M320 282 c0 -90 0 -90 -75 -160 -41 -39 -75 -73 -75 -76 0 -11 31 -6
63 10 18 9 51 35 74 57 43 41 43 41 70 16 69 -62 133 -97 133 -72 0 4 -31 37
-69 73 -68 64 -70 66 -76 125 -7 75 -16 107 -32 113 -10 3 -13 -19 -13 -86z"/>
</g>
</svg>
