<svg version="1.0" xmlns="http://www.w3.org/2000/svg"
 width="51.000000pt" height="95.000000pt" viewBox="0 0 51.000000 95.000000"
 preserveAspectRatio="xMidYMid meet">
<metadata>
Created by potrace 1.15, written by Peter Selinger 2001-2017
</metadata>
<g transform="translate(0.000000,95.000000) scale(0.100000,-0.100000)"
fill="#000000" stroke="none">
<path d="M254 933 c-4 -14 -19 -26 -43 -34 -45 -14 -101 -55 -101 -75 0 -7 -4
-14 -10 -14 -18 0 -11 -89 11 -131 22 -44 81 -109 99 -109 17 0 28 -40 35
-129 7 -77 7 -81 -11 -74 -11 3 -30 19 -43 35 -13 15 -28 28 -33 28 -6 0 -23
9 -39 21 -29 20 -29 20 -29 -3 0 -19 33 -69 67 -101 30 -28 70 -57 79 -57 6 0
17 -35 24 -77 15 -91 44 -160 71 -168 26 -9 40 2 30 23 -30 59 -51 133 -51
178 0 37 3 42 53 72 53 32 87 64 87 82 0 6 4 10 8 10 8 0 32 43 32 55 0 13
-25 2 -49 -22 -54 -54 -79 -71 -110 -78 -17 -4 -31 -3 -31 2 0 4 -3 54 -7 110
-5 83 -3 103 8 107 80 23 102 33 131 56 36 30 64 104 55 142 -14 53 -113 128
-169 128 -11 0 -28 10 -39 23 -19 22 -19 22 -25 0z m76 -75 c59 -20 103 -73
95 -114 -2 -10 -4 -26 -4 -35 -4 -85 -222 -96 -260 -13 -19 43 -14 108 12 131
42 39 102 51 157 31z"/>
<path d="M220 701 c0 -5 5 -13 10 -16 6 -3 10 -2 10 4 0 5 -4 13 -10 16 -5 3
-10 2 -10 -4z"/>
</g>
</svg>
