<svg version="1.0" xmlns="http://www.w3.org/2000/svg"
 width="53.000000pt" height="59.000000pt" viewBox="0 0 53.000000 59.000000"
 preserveAspectRatio="xMidYMid meet">
<metadata>
Created by potrace 1.15, written by Peter Selinger 2001-2017
</metadata>
<g transform="translate(0.000000,59.000000) scale(0.100000,-0.100000)"
fill="#000000" stroke="none">
<path d="M297 443 c-11 -10 -8 -43 3 -43 6 0 10 11 10 25 0 26 -2 29 -13 18z"/>
<path d="M350 413 c0 -9 -5 -44 -11 -79 -8 -47 -15 -63 -30 -67 -12 -3 -19 0
-19 9 0 16 -16 19 -25 4 -3 -5 -13 -10 -21 -10 -11 0 -14 14 -14 60 0 89 -27
77 -29 -13 -1 -52 -6 -58 -49 -51 -37 6 -37 6 -37 -57 0 -58 -2 -63 -29 -78
-36 -20 -38 -35 -6 -39 16 -1 36 8 56 26 17 15 54 38 82 51 33 16 49 28 45 37
-4 10 3 13 28 11 32 -3 34 -5 35 -42 3 -81 4 -87 17 -82 6 2 11 11 9 21 -2 9
2 16 8 16 5 0 10 -7 10 -16 0 -11 5 -14 16 -10 9 3 25 6 35 6 29 0 14 17 -21
25 -30 7 -30 7 -30 151 0 89 -4 144 -10 144 -5 0 -10 -8 -10 -17z m-126 -193
c25 0 19 -6 -27 -25 -37 -15 -37 -15 -37 11 0 22 3 25 23 20 12 -3 31 -6 41
-6z"/>
<path d="M281 362 c-15 -28 -14 -42 3 -42 16 0 29 41 17 53 -5 5 -14 0 -20
-11z"/>
</g>
</svg>
