<svg version="1.0" xmlns="http://www.w3.org/2000/svg"
 width="43.000000pt" height="69.000000pt" viewBox="0 0 43.000000 69.000000"
 preserveAspectRatio="xMidYMid meet">
<metadata>
Created by potrace 1.15, written by Peter Selinger 2001-2017
</metadata>
<g transform="translate(0.000000,69.000000) scale(0.100000,-0.100000)"
fill="#000000" stroke="none">
<path d="M250 475 c0 -63 -2 -115 -4 -115 -2 0 -11 -3 -20 -6 -13 -5 -16 2
-16 37 -1 45 -18 79 -40 79 -10 0 -11 -16 -6 -69 7 -69 7 -69 -23 -82 -17 -8
-31 -16 -31 -19 0 -4 16 -22 35 -40 40 -39 41 -67 3 -107 -11 -12 -18 -27 -16
-33 4 -13 78 52 78 69 0 15 32 14 52 -1 9 -7 24 -39 33 -70 20 -66 40 -78 30
-19 -10 59 3 109 28 113 12 2 29 17 39 34 16 28 17 35 4 64 -9 22 -12 54 -8
97 3 43 1 63 -7 63 -6 0 -11 -13 -11 -29 0 -17 -4 -33 -10 -36 -5 -3 -10 -15
-10 -26 0 -16 -6 -20 -27 -17 -28 3 -28 5 -34 88 -13 175 -39 192 -39 25z m86
-179 c8 -8 14 -24 14 -36 0 -18 -4 -21 -24 -16 -14 3 -36 1 -50 -5 -20 -10
-31 -8 -58 8 -39 23 -42 43 -8 60 30 15 106 9 126 -11z"/>
<path d="M230 282 c0 -4 10 -13 21 -20 16 -10 24 -11 33 -2 8 8 7 13 -4 20
-18 12 -50 13 -50 2z"/>
</g>
</svg>
