<svg version="1.0" xmlns="http://www.w3.org/2000/svg"
 width="80.000000pt" height="91.000000pt" viewBox="0 0 80.000000 91.000000"
 preserveAspectRatio="xMidYMid meet">
<metadata>
Created by potrace 1.15, written by Peter Selinger 2001-2017
</metadata>
<g transform="translate(0.000000,91.000000) scale(0.100000,-0.100000)"
fill="#000000" stroke="none">
<path d="M345 770 c-3 -6 -9 -35 -12 -65 -5 -49 -8 -55 -34 -60 -37 -8 -79
-59 -79 -95 0 -53 30 -99 72 -112 45 -13 46 -20 13 -54 -14 -14 -25 -27 -25
-29 0 -12 34 -3 61 17 28 21 31 21 58 5 16 -9 37 -17 48 -17 14 1 11 6 -14 29
-18 15 -33 30 -33 34 0 3 19 12 41 19 55 16 82 58 74 113 -6 47 -38 79 -95 96
-39 12 -39 12 -42 67 -3 52 -18 76 -33 52z m-15 -180 c0 -27 -3 -30 -30 -30
-34 0 -38 14 -13 42 25 27 43 22 43 -12z m106 14 c40 -19 50 -44 32 -81 -14
-29 -61 -58 -78 -48 -6 3 -10 17 -10 30 0 18 7 25 31 30 36 8 33 29 -4 33 -26
3 -37 29 -20 45 9 9 10 9 49 -9z m-98 -108 c3 -27 2 -28 -25 -21 -63 15 -76
58 -15 53 33 -3 37 -6 40 -32z"/>
<path d="M440 750 c-24 -45 32 -120 90 -120 45 0 44 16 -2 42 -34 18 -45 31
-52 61 -11 42 -20 46 -36 17z"/>
<path d="M236 743 c-3 -3 -6 -16 -6 -27 0 -25 -28 -61 -52 -69 -24 -8 -23 -27
0 -27 33 0 102 57 102 85 0 24 -31 51 -44 38z"/>
<path d="M541 568 c1 -7 4 -24 8 -38 8 -25 -17 -91 -38 -104 -24 -15 -22 -65
3 -109 38 -64 116 -115 116 -76 0 5 -20 29 -45 52 -34 33 -45 51 -45 75 0 17
4 33 8 36 4 3 29 -9 56 -26 37 -24 50 -28 59 -19 9 10 8 15 -7 23 -11 6 -31
23 -44 37 -20 22 -22 31 -17 74 6 38 3 52 -11 68 -19 21 -45 25 -43 7z"/>
<path d="M163 535 c-25 -37 -29 -84 -12 -117 9 -16 4 -29 -30 -78 -23 -32 -41
-63 -41 -69 0 -23 21 -9 57 38 21 28 41 50 46 50 4 1 7 -13 7 -29 0 -34 -31
-103 -62 -136 -21 -23 -12 -39 16 -28 21 8 73 101 81 146 6 29 2 45 -15 73
-36 59 -42 104 -20 143 23 39 24 42 8 42 -7 0 -23 -16 -35 -35z"/>
<path d="M313 308 c-44 -32 -44 -32 -59 -156 -4 -39 -13 -60 -35 -81 -31 -31
-37 -51 -16 -51 48 0 97 90 97 180 0 68 15 83 78 78 37 -3 37 -3 53 -81 18
-89 65 -156 112 -157 25 0 21 23 -9 51 -32 29 -63 94 -64 132 0 42 -15 62 -66
91 -26 14 -47 26 -48 25 0 0 -20 -14 -43 -31z"/>
</g>
</svg>
