<svg version="1.0" xmlns="http://www.w3.org/2000/svg"
 width="63.000000pt" height="81.000000pt" viewBox="0 0 63.000000 81.000000"
 preserveAspectRatio="xMidYMid meet">
<metadata>
Created by potrace 1.15, written by Peter Selinger 2001-2017
</metadata>
<g transform="translate(0.000000,81.000000) scale(0.100000,-0.100000)"
fill="#000000" stroke="none">
<path d="M364 537 c-3 -8 -4 -89 -2 -180 3 -166 3 -166 38 -202 56 -58 119
-97 147 -91 39 11 26 33 -43 72 -70 39 -104 80 -104 126 0 27 1 27 73 30 72 3
72 3 75 108 2 109 -5 137 -32 127 -13 -5 -16 -24 -16 -102 0 -95 0 -95 -50
-95 -49 0 -49 0 -52 107 -2 74 -7 108 -15 111 -7 2 -16 -3 -19 -11z"/>
<path d="M107 504 c-4 -4 -7 -110 -7 -236 0 -194 2 -228 15 -228 31 0 37 38
30 196 -4 83 -4 166 0 183 6 28 10 31 46 31 39 0 39 0 39 -204 0 -114 4 -207
9 -211 5 -3 17 2 25 11 14 14 16 45 14 237 -3 222 -3 222 -83 225 -45 1 -84 0
-88 -4z"/>
</g>
</svg>
