<svg version="1.0" xmlns="http://www.w3.org/2000/svg"
 width="97.000000pt" height="91.000000pt" viewBox="0 0 97.000000 91.000000"
 preserveAspectRatio="xMidYMid meet">
<metadata>
Created by potrace 1.15, written by Peter Selinger 2001-2017
</metadata>
<g transform="translate(0.000000,91.000000) scale(0.100000,-0.100000)"
fill="#000000" stroke="none">
<path d="M786 783 c-3 -16 -8 -47 -11 -70 -4 -24 -10 -43 -13 -43 -4 1 -19 19
-34 40 -15 22 -35 40 -43 40 -20 0 -18 -7 11 -55 13 -22 26 -48 30 -57 3 -10
10 -18 15 -18 5 0 9 -16 9 -35 0 -19 -3 -35 -7 -34 -5 0 -39 18 -78 39 -38 21
-92 50 -120 65 -27 15 -77 33 -110 40 -71 15 -80 12 -160 -63 -66 -62 -144
-102 -197 -102 -21 0 -38 -4 -38 -10 0 -5 7 -10 15 -10 8 0 15 -5 15 -11 0 -7
9 -9 23 -5 12 4 33 9 47 12 37 8 143 66 160 87 42 53 49 57 109 57 33 0 61 -3
63 -7 4 -11 90 -53 106 -53 6 0 12 -3 12 -8 0 -4 21 -18 47 -32 26 -14 58 -36
71 -49 22 -22 24 -30 17 -75 -3 -28 -9 -69 -11 -91 -11 -92 -16 -98 -52 -65
-12 11 -26 20 -32 20 -18 0 2 -54 30 -80 27 -25 27 -27 18 -94 -5 -38 -7 -75
-4 -82 17 -45 44 25 56 146 7 66 39 239 46 249 2 2 16 -6 32 -18 32 -23 93
-32 99 -15 2 6 -9 17 -24 24 -117 59 -123 152 -11 196 43 18 54 27 56 48 3 22
-1 26 -22 26 -14 0 -28 -4 -31 -10 -3 -5 -15 -10 -26 -10 -15 0 -19 7 -19 33
0 41 -18 107 -30 107 -4 0 -11 -12 -14 -27z"/>
<path d="M406 513 c-13 -13 18 -42 79 -73 60 -32 66 -37 60 -60 -17 -71 -22
-135 -15 -192 16 -111 22 -137 38 -143 20 -7 29 2 14 17 -7 7 -12 37 -13 67 0
31 -4 79 -8 106 -5 39 -3 57 11 83 10 18 18 54 18 80 0 47 0 47 -67 79 -71 33
-108 44 -117 36z"/>
<path d="M287 363 c-10 -3 -17 -9 -15 -15 4 -10 42 -33 69 -41 11 -4 19 -22
23 -54 21 -160 35 -193 71 -179 11 4 13 11 6 28 -16 41 -32 171 -22 181 5 5
11 4 15 -2 4 -6 14 -11 22 -11 8 0 13 4 10 9 -3 5 1 12 10 15 14 5 14 8 0 21
-8 8 -22 15 -32 15 -19 0 -79 18 -106 31 -19 9 -22 10 -51 2z"/>
</g>
</svg>
