<svg version="1.0" xmlns="http://www.w3.org/2000/svg"
 width="89.000000pt" height="135.000000pt" viewBox="0 0 89.000000 135.000000"
 preserveAspectRatio="xMidYMid meet">
<metadata>
Created by potrace 1.15, written by Peter Selinger 2001-2017
</metadata>
<g transform="translate(0.000000,135.000000) scale(0.100000,-0.100000)"
fill="#000000" stroke="none">
<path d="M219 1268 c-7 -13 -12 -56 -12 -97 1 -109 -34 -134 -67 -48 -29 75
-35 87 -47 87 -24 0 -25 -23 -3 -91 21 -66 42 -92 94 -124 14 -9 18 -49 29
-290 7 -155 17 -286 21 -293 4 -7 13 -12 20 -12 10 0 12 26 11 108 -2 107 -2
107 52 161 53 54 74 93 55 105 -5 3 -20 -6 -32 -19 -22 -23 -79 -36 -80 -17
-8 117 -10 111 39 117 25 3 73 11 106 17 220 39 311 9 333 -110 13 -68 27
-202 43 -412 8 -106 17 -163 28 -179 15 -24 15 -24 23 5 4 16 6 54 3 84 -3 30
-8 84 -10 120 -2 36 -11 119 -19 185 -9 66 -16 147 -16 180 0 103 -31 162
-100 192 -36 15 -65 14 -220 -8 -148 -21 -199 -22 -206 -5 -11 30 5 61 46 86
30 19 43 35 51 65 6 22 15 48 20 57 14 27 11 38 -10 38 -11 0 -23 -12 -31 -29
-16 -40 -47 -71 -70 -71 -18 0 -20 7 -20 94 0 54 4 98 10 101 6 4 8 11 5 16
-11 16 -34 10 -46 -13z"/>
<path d="M509 783 c0 -5 -2 -17 -3 -28 -6 -51 -44 -130 -86 -178 -83 -94 -91
-110 -78 -148 6 -19 14 -36 17 -39 13 -10 31 -102 31 -155 0 -60 13 -77 32
-43 8 16 11 66 10 166 -2 143 -2 143 45 191 34 34 52 62 61 95 16 61 15 114
-2 132 -16 16 -26 18 -27 7z"/>
<path d="M599 509 c-41 -42 -64 -59 -83 -59 -38 0 -33 -25 13 -68 33 -32 40
-46 50 -103 6 -37 11 -81 11 -99 0 -37 20 -101 34 -112 14 -10 28 2 22 17 -3
8 -8 58 -11 113 -4 54 -10 114 -14 133 -8 37 9 116 32 152 20 32 30 87 14 86
-6 0 -37 -27 -68 -60z"/>
</g>
</svg>
