<svg version="1.0" xmlns="http://www.w3.org/2000/svg"
 width="60.000000pt" height="74.000000pt" viewBox="0 0 60.000000 74.000000"
 preserveAspectRatio="xMidYMid meet">
<metadata>
Created by potrace 1.15, written by Peter Selinger 2001-2017
</metadata>
<g transform="translate(0.000000,74.000000) scale(0.100000,-0.100000)"
fill="#000000" stroke="none">
<path d="M130 625 c0 -33 -2 -35 -34 -35 -44 0 -66 -9 -66 -26 0 -13 19 -21
70 -26 29 -3 29 7 13 -288 -9 -153 -8 -188 3 -200 12 -13 16 -13 29 0 10 11
16 54 21 163 7 147 7 147 33 153 47 10 53 14 49 31 -2 13 -13 18 -38 18 -35 0
-35 0 -38 63 -3 62 -3 62 43 62 42 0 46 2 43 23 -2 18 -10 23 -45 25 -42 3
-43 4 -43 38 0 27 -4 34 -20 34 -16 0 -20 -7 -20 -35z"/>
<path d="M234 505 c-12 -30 6 -35 118 -28 101 6 112 5 124 -12 11 -14 14 -63
14 -200 0 -100 2 -184 5 -187 3 -3 16 -3 29 -1 23 5 23 5 19 206 -6 253 6 237
-174 237 -104 0 -131 -3 -135 -15z"/>
<path d="M321 373 c-17 -32 -49 -82 -71 -112 -38 -54 -42 -71 -15 -71 18 0
147 195 143 217 -6 34 -26 22 -57 -34z"/>
<path d="M408 344 c-12 -21 -51 -81 -85 -133 -58 -86 -70 -121 -44 -121 13 0
57 54 84 103 29 52 38 66 65 104 23 33 29 68 12 78 -5 3 -20 -11 -32 -31z"/>
</g>
</svg>
