<svg version="1.0" xmlns="http://www.w3.org/2000/svg"
 width="83.000000pt" height="99.000000pt" viewBox="0 0 83.000000 99.000000"
 preserveAspectRatio="xMidYMid meet">
<metadata>
Created by potrace 1.15, written by Peter Selinger 2001-2017
</metadata>
<g transform="translate(0.000000,99.000000) scale(0.100000,-0.100000)"
fill="#000000" stroke="none">
<path d="M621 793 c-26 -32 -35 -65 -27 -97 4 -15 -1 -31 -13 -45 -23 -26 -56
-29 -46 -3 17 40 21 69 15 92 -6 22 -11 17 -44 -50 -20 -41 -36 -88 -36 -106
0 -31 -26 -94 -38 -94 -26 2 -42 31 -42 78 0 28 -4 54 -10 57 -5 3 -10 17 -10
29 0 30 -27 55 -35 34 -3 -8 -1 -27 5 -42 18 -49 14 -57 -27 -53 -38 4 -38 4
-38 72 0 42 -4 70 -11 72 -13 4 -34 -69 -34 -116 0 -20 -5 -31 -14 -31 -17 0
-46 54 -46 87 0 12 -5 23 -11 23 -8 0 -10 -21 -7 -64 3 -53 2 -61 -9 -48 -7
10 -13 21 -13 25 0 13 -27 37 -34 30 -26 -26 29 -139 88 -181 25 -18 46 -34
46 -35 0 -1 -7 -24 -15 -51 -18 -60 -19 -103 -2 -136 7 -14 19 -45 26 -70 7
-25 21 -63 31 -85 19 -40 19 -40 19 12 1 31 -9 83 -24 128 -20 60 -23 80 -14
96 7 14 17 19 30 16 10 -3 22 -1 25 4 3 5 18 9 35 9 16 0 38 5 49 12 16 11 23
9 40 -10 19 -20 48 -28 94 -23 19 1 69 46 79 72 5 11 9 10 21 -5 20 -24 20
-50 2 -121 -11 -41 -13 -69 -6 -113 6 -31 10 -60 10 -64 0 -15 18 -8 24 9 4 9
9 43 12 76 3 32 9 70 15 84 23 60 6 137 -41 183 -14 14 -31 38 -38 54 -12 27
-11 30 29 65 105 91 98 81 100 148 2 38 -3 68 -11 78 -17 21 -23 19 -38 -12
-18 -40 -41 -68 -49 -59 -4 3 1 20 10 35 33 56 15 83 -22 34z m69 -100 c0 -5
-11 -21 -25 -38 -20 -25 -24 -27 -25 -11 0 11 7 28 17 38 17 18 33 24 33 11z
m-116 -171 c-2 -103 -1 -96 -30 -125 -25 -25 -26 -26 -60 -10 -39 19 -43 40
-14 71 11 12 20 28 20 37 0 13 6 15 30 10 33 -7 38 2 19 37 -10 18 -8 25 11
40 12 10 23 18 24 18 0 0 0 -35 0 -78z m-250 13 c8 -21 -3 -45 -20 -45 -9 0
-14 11 -14 30 0 32 23 42 34 15z m-88 -20 c17 -16 14 -18 -10 -9 -9 3 -16 10
-16 15 0 13 9 11 26 -6z m142 -68 c3 -20 -3 -29 -27 -41 -16 -9 -39 -16 -51
-16 -18 0 -20 5 -17 38 4 33 7 37 30 34 14 -2 28 2 32 8 11 18 30 5 33 -23z"/>
</g>
</svg>
