<svg version="1.0" xmlns="http://www.w3.org/2000/svg"
 width="93.000000pt" height="141.000000pt" viewBox="0 0 93.000000 141.000000"
 preserveAspectRatio="xMidYMid meet">
<metadata>
Created by potrace 1.15, written by Peter Selinger 2001-2017
</metadata>
<g transform="translate(0.000000,141.000000) scale(0.100000,-0.100000)"
fill="#000000" stroke="none">
<path d="M70 1339 c0 -12 60 -99 69 -99 3 0 21 -14 39 -30 34 -29 34 -29 -17
-105 -28 -41 -51 -82 -51 -89 0 -24 37 -6 76 36 19 22 38 37 41 34 3 -3 5
-156 4 -341 -2 -328 -2 -335 17 -335 17 0 22 10 31 68 17 110 34 418 30 547
-4 108 -7 126 -33 178 -16 33 -38 62 -50 67 -11 4 -43 24 -71 44 -49 36 -85
46 -85 25z"/>
<path d="M510 1305 c-15 -18 -9 -198 7 -230 6 -11 17 -33 24 -50 8 -16 26 -42
41 -57 38 -38 48 -61 48 -107 0 -47 -12 -52 -36 -17 -19 29 -77 66 -105 66
-23 0 -23 -3 -5 -39 16 -30 94 -101 112 -101 26 0 47 -39 41 -76 -3 -20 -8
-39 -11 -41 -8 -9 -53 6 -69 21 -8 8 -31 24 -51 35 -36 21 -36 21 -36 -7 0
-35 53 -81 117 -103 43 -15 49 -21 58 -58 6 -23 14 -42 18 -42 4 1 12 1 17 1
6 0 10 20 10 45 0 34 4 45 15 45 48 0 185 102 185 137 0 17 -35 17 -53 -1 -26
-26 -110 -76 -129 -76 -27 0 -23 85 5 105 12 8 27 15 34 15 28 0 113 84 113
110 0 34 -20 32 -68 -9 -26 -22 -59 -44 -74 -50 -28 -11 -28 -11 -28 35 0 39
6 53 39 90 21 25 47 60 56 80 9 19 23 38 31 41 8 3 14 16 14 28 0 13 5 27 10
30 6 3 10 36 10 73 0 50 -5 73 -20 92 -23 31 -31 24 -38 -37 -3 -26 -9 -50
-13 -53 -4 -3 -26 -4 -49 -2 -39 4 -40 5 -40 41 -1 37 -19 71 -39 71 -6 0 -12
-6 -12 -12 -1 -7 -3 -20 -4 -28 -1 -8 -3 -30 -4 -48 -1 -32 -2 -33 -38 -30
-41 3 -50 24 -32 71 18 44 -22 77 -51 42z m260 -171 c0 -3 -19 -38 -52 -95 -7
-12 -23 -34 -36 -47 -23 -24 -23 -24 -48 5 -27 31 -64 99 -64 119 0 8 17 14
43 16 71 5 157 6 157 2z"/>
<path d="M800 558 c0 -3 7 -25 15 -48 15 -42 21 -130 9 -130 -4 0 -27 11 -53
24 -52 27 -145 51 -161 41 -20 -13 -9 -25 53 -54 87 -42 131 -76 115 -88 -20
-15 -102 -33 -152 -33 -51 0 -58 -10 -22 -29 22 -12 165 -12 205 0 12 3 16 -9
18 -51 3 -47 8 -76 29 -148 3 -11 8 -10 20 3 17 16 16 39 -2 195 -4 37 -1 70
8 98 18 53 14 177 -6 198 -14 14 -76 32 -76 22z"/>
</g>
</svg>
