<svg version="1.0" xmlns="http://www.w3.org/2000/svg"
 width="67.000000pt" height="116.000000pt" viewBox="0 0 67.000000 116.000000"
 preserveAspectRatio="xMidYMid meet">
<metadata>
Created by potrace 1.15, written by Peter Selinger 2001-2017
</metadata>
<g transform="translate(0.000000,116.000000) scale(0.100000,-0.100000)"
fill="#000000" stroke="none">
<path d="M147 966 c-48 -18 -43 -13 -58 -69 -11 -37 -11 -64 0 -134 6 -49 18
-97 25 -108 13 -20 96 -48 126 -42 92 19 114 39 123 116 11 90 -2 176 -32 211
-22 26 -35 31 -86 35 -39 4 -73 0 -98 -9z m143 -62 c7 -7 10 -23 8 -36 -2 -19
-11 -24 -53 -30 -76 -12 -105 -3 -105 32 0 26 5 30 43 40 23 6 47 12 52 14 16
4 43 -5 55 -20z m12 -129 c13 -18 9 -72 -7 -85 -11 -9 -35 -11 -76 -7 -33 3
-62 7 -64 9 -2 2 -7 22 -11 45 -6 41 -6 42 27 45 68 6 124 3 131 -7z"/>
<path d="M535 925 c-5 -2 -29 -9 -51 -15 -31 -7 -44 -17 -53 -38 -21 -54 -29
-351 -16 -667 6 -149 17 -198 44 -193 14 3 16 22 13 153 -1 83 -4 266 -6 408
-3 259 -3 259 21 274 50 33 55 15 73 -312 11 -200 39 -486 50 -512 14 -34 27
-28 31 15 4 34 1 84 -15 353 -3 47 -10 115 -15 150 -6 35 -11 123 -11 195 0
131 0 131 26 143 16 7 24 18 22 29 -2 13 -15 17 -53 19 -28 1 -54 0 -60 -2z"/>
<path d="M329 576 c-2 -2 -69 -6 -149 -10 -79 -3 -148 -10 -153 -15 -5 -5 -7
-17 -4 -25 5 -13 20 -15 79 -12 39 2 77 2 84 -1 9 -3 12 -50 13 -168 1 -137
-1 -164 -14 -169 -36 -14 -42 2 -51 147 -9 137 -10 142 -31 145 -23 3 -23 2
-23 -120 0 -213 18 -238 173 -238 107 0 127 5 127 29 0 29 -22 41 -72 41 -39
0 -48 3 -48 18 0 9 -3 34 -6 55 -7 37 -7 37 30 37 23 0 43 7 57 21 19 19 20
28 14 87 -7 67 -17 85 -42 75 -9 -4 -13 -18 -12 -42 4 -60 0 -89 -14 -94 -31
-12 -41 11 -43 93 -2 78 -1 82 23 91 13 5 39 9 57 9 39 0 62 20 44 38 -12 12
-31 16 -39 8z"/>
</g>
</svg>
