<svg version="1.0" xmlns="http://www.w3.org/2000/svg"
 width="73.000000pt" height="110.000000pt" viewBox="0 0 73.000000 110.000000"
 preserveAspectRatio="xMidYMid meet">
<metadata>
Created by potrace 1.15, written by Peter Selinger 2001-2017
</metadata>
<g transform="translate(0.000000,110.000000) scale(0.100000,-0.100000)"
fill="#000000" stroke="none">
<path d="M485 1007 c-38 -23 -44 -35 -47 -93 -3 -58 -3 -58 -63 -89 -33 -18
-61 -39 -63 -49 -5 -23 18 -20 72 10 40 22 47 24 52 10 12 -31 -8 -69 -62
-122 -30 -30 -59 -54 -65 -54 -6 0 -15 14 -21 31 -7 19 -16 29 -27 27 -13 -3
-16 -18 -18 -78 -3 -132 -11 -210 -23 -225 -21 -25 -33 -5 -26 44 3 25 6 103
7 173 1 127 1 127 38 145 36 18 36 18 39 112 4 122 -7 151 -57 152 -20 0 -49
2 -65 4 -49 7 -83 -18 -91 -67 -11 -59 -6 -144 9 -180 4 -9 22 -22 40 -28 32
-10 32 -10 28 -258 -2 -148 -8 -252 -14 -259 -12 -15 -34 -17 -43 -3 -10 16
-18 140 -15 225 7 186 6 209 -12 213 -29 6 -37 -53 -34 -255 1 -106 6 -196 10
-200 7 -8 11 -9 39 -12 8 -1 7 -4 -3 -11 -11 -7 -6 -10 21 -10 20 0 38 -3 42
-6 3 -3 38 -8 77 -11 70 -4 71 -4 68 19 -2 18 -12 24 -45 31 -43 8 -43 8 -43
68 0 59 0 59 29 59 40 0 72 51 72 117 0 160 -1 150 31 157 19 4 32 14 35 26 4
14 11 19 21 15 19 -7 82 52 82 76 0 35 22 30 74 -19 57 -51 104 -78 155 -88
26 -6 31 -4 31 13 0 15 -17 29 -66 52 -36 17 -81 44 -100 59 -32 25 -74 82
-74 101 0 4 34 13 76 19 41 5 78 12 80 15 3 2 9 18 13 35 12 41 -8 73 -33 53
-9 -7 -16 -22 -16 -31 0 -13 -15 -23 -50 -35 -27 -9 -54 -14 -59 -10 -9 5 -6
68 4 85 3 4 21 11 41 14 26 5 34 11 30 22 -3 9 -6 18 -6 20 0 9 -56 2 -75 -9z
m-261 -101 c4 -30 4 -69 1 -88 -6 -30 -11 -35 -51 -44 -59 -14 -66 -4 -60 83
7 98 10 103 61 103 43 0 43 0 49 -54z"/>
<path d="M460 631 c0 -6 -9 -11 -20 -11 -43 0 -68 -81 -40 -128 19 -30 23 -32
79 -32 53 0 63 3 90 31 36 36 38 52 12 95 -14 23 -30 33 -56 38 -20 4 -43 10
-51 13 -8 3 -14 0 -14 -6z m71 -79 c3 -23 3 -44 1 -47 -3 -3 -27 -5 -53 -5
-44 0 -49 3 -55 25 -8 32 17 62 55 68 41 6 46 3 52 -41z"/>
<path d="M420 430 c-27 -8 -67 -28 -86 -45 -9 -9 -25 -191 -28 -334 -1 -39 14
-49 38 -26 13 14 16 41 16 161 0 198 10 215 126 212 49 -1 78 -7 91 -18 21
-17 24 -39 39 -277 7 -110 18 -127 49 -79 12 18 14 30 7 43 -5 10 -13 78 -16
151 -7 139 -14 169 -39 190 -26 22 -148 35 -197 22z"/>
<path d="M409 303 c-22 -26 -18 -129 5 -146 37 -27 133 -7 142 29 8 33 -4 95
-23 117 -22 23 -105 24 -124 0z m94 -42 c8 -34 -4 -69 -26 -75 -32 -8 -48 13
-40 57 5 32 9 37 33 37 19 0 29 -6 33 -19z"/>
</g>
</svg>
