<svg version="1.0" xmlns="http://www.w3.org/2000/svg"
 width="70.000000pt" height="84.000000pt" viewBox="0 0 70.000000 84.000000"
 preserveAspectRatio="xMidYMid meet">
<metadata>
Created by potrace 1.15, written by Peter Selinger 2001-2017
</metadata>
<g transform="translate(0.000000,84.000000) scale(0.100000,-0.100000)"
fill="#000000" stroke="none">
<path d="M238 601 c-83 -6 -94 -11 -84 -37 4 -11 14 -14 29 -11 12 3 48 9 80
12 64 8 87 -3 87 -40 0 -29 -30 -43 -119 -54 -40 -5 -79 -14 -85 -21 -12 -12
-22 -379 -11 -407 4 -12 8 -13 20 -3 12 10 15 44 15 181 0 92 4 179 9 192 8
22 18 25 81 31 57 6 77 13 96 31 42 42 26 138 -22 133 -10 -1 -54 -4 -96 -7z"/>
<path d="M530 600 c-8 -5 -28 -10 -45 -10 -37 0 -60 -14 -50 -29 4 -8 29 -10
79 -5 69 6 73 5 79 -15 6 -25 -14 -49 -49 -56 -121 -25 -114 -11 -114 -237 0
-147 3 -189 13 -186 9 4 13 53 17 186 3 99 9 184 13 189 14 14 54 -43 71 -99
21 -75 36 -173 36 -245 0 -64 11 -79 30 -43 12 23 -5 241 -21 272 -5 10 -9 24
-9 31 0 8 -11 31 -25 52 -15 20 -24 39 -23 41 2 2 21 9 43 16 72 24 86 101 25
133 -34 17 -49 19 -70 5z"/>
<path d="M258 339 c-16 -9 -18 -27 -18 -155 0 -133 1 -145 18 -142 15 3 17 17
17 123 0 66 4 126 8 133 5 6 19 12 32 12 31 0 38 -33 34 -164 -3 -85 -2 -101
11 -101 12 0 15 22 18 126 1 69 -2 138 -7 153 -9 23 -16 26 -53 26 -24 0 -51
-5 -60 -11z"/>
</g>
</svg>
