<svg version="1.0" xmlns="http://www.w3.org/2000/svg"
 width="64.000000pt" height="85.000000pt" viewBox="0 0 64.000000 85.000000"
 preserveAspectRatio="xMidYMid meet">
<metadata>
Created by potrace 1.15, written by Peter Selinger 2001-2017
</metadata>
<g transform="translate(0.000000,85.000000) scale(0.100000,-0.100000)"
fill="#000000" stroke="none">
<path d="M165 598 c-100 -16 -97 -4 -89 -296 6 -221 9 -250 22 -239 13 10 14
39 9 184 -6 173 -6 173 17 173 13 0 38 3 56 6 32 7 32 7 29 -167 -3 -150 -2
-174 11 -174 13 0 16 28 20 170 5 169 5 169 38 179 18 5 32 16 32 24 0 15 -12
15 -162 -4 -48 -7 -48 -7 -48 32 0 22 4 45 8 52 5 6 44 16 87 22 43 5 80 12
83 15 2 2 2 11 -1 20 -7 17 -23 17 -112 3z"/>
<path d="M383 580 c-13 -5 -23 -14 -23 -20 0 -19 31 -23 71 -10 37 12 42 12
60 -7 21 -21 21 -21 -9 -54 -16 -18 -46 -38 -67 -43 -63 -18 -79 -51 -83 -168
-5 -136 5 -228 25 -228 12 0 14 17 13 102 -3 209 -3 217 27 244 26 24 26 24
49 3 13 -12 33 -51 45 -87 19 -58 21 -79 16 -174 -7 -114 2 -137 28 -74 11 26
12 55 6 137 -11 128 -28 197 -52 212 -25 15 -24 22 5 35 14 6 33 23 42 37 17
26 17 29 0 60 -10 18 -28 36 -40 39 -31 8 -87 6 -113 -4z"/>
</g>
</svg>
