<svg version="1.0" xmlns="http://www.w3.org/2000/svg"
 width="49.000000pt" height="87.000000pt" viewBox="0 0 49.000000 87.000000"
 preserveAspectRatio="xMidYMid meet">
<metadata>
Created by potrace 1.15, written by Peter Selinger 2001-2017
</metadata>
<g transform="translate(0.000000,87.000000) scale(0.100000,-0.100000)"
fill="#000000" stroke="none">
<path d="M181 656 c-7 -8 -9 -35 -5 -75 7 -61 -16 -184 -37 -197 -5 -3 -9 -12
-9 -21 0 -10 6 -14 20 -10 22 6 26 -11 11 -41 -14 -27 -41 -89 -41 -96 0 -17
27 -2 61 34 39 40 39 40 53 5 9 -20 22 -42 30 -50 18 -18 40 -20 33 -3 -2 7
-10 38 -16 68 -7 30 -18 72 -24 93 -14 49 -4 56 24 18 27 -36 40 -32 33 12 -6
33 -10 44 -39 110 -9 21 -19 54 -22 73 -3 18 -8 34 -12 34 -3 0 -12 14 -19 30
-15 33 -24 37 -41 16z"/>
<path d="M81 136 c-10 -11 -8 -17 11 -30 31 -22 198 -23 198 -1 0 17 -24 24
-105 28 -33 2 -67 7 -76 11 -9 4 -21 1 -28 -8z"/>
</g>
</svg>
