<svg version="1.0" xmlns="http://www.w3.org/2000/svg"
 width="49.000000pt" height="59.000000pt" viewBox="0 0 49.000000 59.000000"
 preserveAspectRatio="xMidYMid meet">
<metadata>
Created by potrace 1.15, written by Peter Selinger 2001-2017
</metadata>
<g transform="translate(0.000000,59.000000) scale(0.100000,-0.100000)"
fill="#000000" stroke="none">
<path d="M245 389 c-4 -17 -4 -33 -1 -36 3 -3 -13 -32 -35 -64 -50 -74 -56
-89 -35 -89 9 0 22 11 28 25 13 29 28 33 28 6 0 -20 -37 -118 -53 -138 -5 -7
-18 -13 -28 -13 -11 0 -19 -6 -19 -14 0 -12 21 -14 123 -11 147 4 137 3 137
15 0 5 -22 12 -49 16 -45 6 -50 9 -56 38 -15 73 -17 97 -11 121 6 24 7 25 24
9 16 -17 17 -17 20 3 2 12 -4 35 -12 52 -9 16 -16 40 -16 53 -1 22 -21 58 -33
58 -3 0 -8 -14 -12 -31z m15 -291 c0 -5 -9 -8 -20 -8 -18 0 -19 3 -9 21 9 17
13 19 20 8 5 -8 9 -17 9 -21z"/>
</g>
</svg>
