<svg version="1.0" xmlns="http://www.w3.org/2000/svg"
 width="79.000000pt" height="185.000000pt" viewBox="0 0 79.000000 185.000000"
 preserveAspectRatio="xMidYMid meet">
<metadata>
Created by potrace 1.15, written by Peter Selinger 2001-2017
</metadata>
<g transform="translate(0.000000,185.000000) scale(0.100000,-0.100000)"
fill="#000000" stroke="none">
<path d="M83 1663 c-7 -3 -13 -11 -13 -18 0 -15 44 -94 91 -162 16 -23 29 -49
29 -57 0 -9 5 -16 10 -16 6 0 10 -9 10 -20 0 -11 4 -20 8 -20 16 0 32 -68 32
-139 0 -71 -12 -109 -59 -180 -49 -75 -68 -189 -47 -281 16 -71 67 -252 73
-259 2 -3 10 2 17 10 10 9 18 60 24 155 7 92 16 152 26 172 17 32 74 82 94 82
7 0 12 5 12 11 0 23 45 2 64 -30 18 -31 18 -39 7 -94 -15 -74 -3 -93 29 -43
12 20 25 36 30 36 28 0 31 -34 26 -295 -2 -146 -7 -269 -10 -272 -9 -9 -7 -51
2 -57 5 -3 39 -6 78 -7 38 -1 74 -4 81 -6 6 -3 14 -22 18 -44 7 -39 24 -50 43
-26 6 7 14 129 19 307 11 403 10 467 -4 482 -22 21 -35 -6 -42 -89 -7 -88 -10
-90 -87 -78 -41 6 -44 8 -44 38 0 32 -15 62 -52 101 -10 11 -18 25 -18 32 0 7
-4 14 -8 16 -4 2 -17 17 -28 33 -15 22 -24 60 -32 140 -11 105 -41 237 -63
280 -5 11 -9 29 -8 40 6 55 -3 75 -53 128 -51 53 -156 117 -192 117 -10 0 -25
4 -34 9 -9 4 -23 6 -29 4z m157 -138 c0 -12 -19 -12 -23 0 -4 9 -1 12 9 8 7
-3 14 -7 14 -8z m75 -62 c14 -33 14 -66 1 -85 -13 -18 -14 -18 -20 4 -16 61 0
127 19 81z m64 -208 c7 -33 16 -74 22 -91 15 -50 11 -126 -9 -150 -9 -12 -37
-35 -62 -51 -57 -39 -88 -73 -112 -120 -18 -38 -18 -38 -12 41 5 83 15 109 69
185 43 61 59 113 51 168 -4 34 -2 50 12 68 21 29 26 24 41 -50z m339 -595 c1
0 2 -36 2 -81 0 -81 0 -81 -57 -75 -32 3 -59 5 -60 5 -6 2 -3 130 3 146 5 13
16 15 58 11 28 -3 52 -5 54 -6z m-35 -216 c38 -7 38 -7 36 -101 -2 -52 -6 -96
-11 -99 -5 -3 -33 -2 -63 1 -55 7 -55 7 -55 99 0 51 3 96 7 99 8 9 37 9 86 1z"/>
</g>
</svg>
