<svg version="1.0" xmlns="http://www.w3.org/2000/svg"
 width="65.000000pt" height="86.000000pt" viewBox="0 0 65.000000 86.000000"
 preserveAspectRatio="xMidYMid meet">
<metadata>
Created by potrace 1.15, written by Peter Selinger 2001-2017
</metadata>
<g transform="translate(0.000000,86.000000) scale(0.100000,-0.100000)"
fill="#000000" stroke="none">
<path d="M130 623 c-83 -8 -75 19 -72 -270 3 -286 5 -306 29 -301 16 3 17 21
14 180 -3 177 -3 177 59 184 82 9 90 19 90 108 0 58 -4 76 -18 89 -18 17 -29
18 -102 10z m80 -57 c0 -26 -21 -36 -82 -36 -34 0 -38 3 -38 24 0 29 10 34 73
35 43 1 47 -1 47 -23z m0 -86 c0 -23 -21 -35 -77 -45 -41 -6 -43 -5 -43 17 0
36 19 48 72 48 41 0 48 -3 48 -20z"/>
<path d="M353 620 c-21 -9 -23 -16 -23 -93 0 -114 5 -119 100 -108 41 4 76 7
77 6 2 -1 6 -90 10 -199 5 -172 8 -196 22 -194 12 3 16 15 14 53 -13 428 -17
522 -26 533 -11 14 -140 16 -174 2z m147 -60 c0 -30 0 -30 -70 -30 -70 0 -70
0 -70 30 0 30 0 30 70 30 70 0 70 0 70 -30z m0 -85 c0 -24 -2 -25 -70 -25 -61
0 -70 2 -70 18 0 29 8 32 77 32 61 0 63 -1 63 -25z"/>
<path d="M205 369 c-10 -26 -1 -334 10 -332 14 4 19 323 6 336 -7 7 -12 5 -16
-4z"/>
<path d="M333 354 c-10 -27 14 -64 43 -64 40 0 28 -34 -14 -38 -44 -4 -41 -22
4 -22 31 0 35 -3 32 -22 -2 -18 -11 -24 -38 -28 -32 -5 -35 -8 -38 -42 -4 -46
24 -68 85 -68 34 0 46 5 58 24 23 35 16 80 -12 84 -31 5 -33 52 -3 52 11 0 20
4 20 9 0 5 -9 13 -20 16 -11 3 -20 12 -20 20 0 7 9 15 20 18 15 4 20 13 19 39
0 33 0 33 -16 11 -23 -34 -80 -32 -93 2 -11 29 -18 31 -27 9z m102 -224 c0
-18 -52 -27 -67 -12 -17 17 2 33 35 30 20 -2 32 -8 32 -18z"/>
<path d="M250 306 c0 -35 4 -46 16 -46 12 0 14 9 12 42 -4 59 -28 63 -28 4z"/>
<path d="M145 331 c-10 -16 6 -82 19 -78 15 5 14 79 -1 84 -6 2 -14 -1 -18 -6z"/>
<path d="M255 146 c-4 -35 -5 -71 -4 -81 6 -29 26 -28 33 0 8 32 -3 145 -14
145 -5 0 -11 -29 -15 -64z"/>
<path d="M136 173 c-3 -3 -6 -35 -6 -70 0 -48 3 -63 14 -63 21 0 28 32 20 85
-6 45 -15 60 -28 48z"/>
</g>
</svg>
