<svg version="1.0" xmlns="http://www.w3.org/2000/svg"
 width="58.000000pt" height="81.000000pt" viewBox="0 0 58.000000 81.000000"
 preserveAspectRatio="xMidYMid meet">
<metadata>
Created by potrace 1.15, written by Peter Selinger 2001-2017
</metadata>
<g transform="translate(0.000000,81.000000) scale(0.100000,-0.100000)"
fill="#000000" stroke="none">
<path d="M315 728 c-3 -13 -6 -59 -7 -103 -4 -107 -18 -109 -82 -10 -32 48
-56 75 -68 75 -18 0 -26 -35 -10 -42 12 -5 82 -96 82 -107 0 -6 -11 -13 -25
-17 -34 -8 -55 -41 -55 -85 0 -46 14 -58 90 -72 51 -10 60 -15 58 -31 -2 -12
-17 -24 -42 -33 -21 -7 -45 -18 -53 -25 -22 -18 -49 -75 -68 -145 -14 -51 -15
-66 -5 -78 21 -25 37 -1 50 72 6 37 18 79 27 93 14 25 64 60 85 60 8 0 9 -41
5 -131 -6 -130 -5 -130 16 -127 21 3 22 9 27 128 4 111 7 125 23 128 42 8 89
-83 99 -193 2 -19 9 -31 21 -33 14 -3 17 4 17 43 0 117 -42 196 -112 211 -33
7 -44 14 -46 30 -3 19 4 23 59 33 84 14 111 40 107 101 -3 40 -7 47 -36 62
-19 9 -36 19 -39 21 -2 3 20 33 51 66 60 65 67 81 36 81 -12 0 -43 -28 -82
-75 -34 -41 -68 -75 -75 -75 -9 0 -13 28 -15 97 -2 64 -7 98 -15 100 -7 3 -15
-6 -18 -19z m139 -234 c22 -21 20 -47 -5 -70 -30 -27 -198 -34 -235 -9 -33 21
-30 64 6 82 38 19 214 17 234 -3z"/>
</g>
</svg>
