<svg version="1.0" xmlns="http://www.w3.org/2000/svg"
 width="68.000000pt" height="83.000000pt" viewBox="0 0 68.000000 83.000000"
 preserveAspectRatio="xMidYMid meet">
<metadata>
Created by potrace 1.15, written by Peter Selinger 2001-2017
</metadata>
<g transform="translate(0.000000,83.000000) scale(0.100000,-0.100000)"
fill="#000000" stroke="none">
<path d="M175 636 c-14 -34 -18 -36 -60 -36 -48 0 -64 -13 -44 -37 11 -13 32
-15 130 -11 64 3 121 8 128 12 23 15 -10 36 -55 36 -41 0 -43 1 -46 32 -4 48
-34 50 -53 4z"/>
<path d="M372 613 c-14 -27 -22 -133 -14 -173 6 -28 14 -37 39 -45 18 -6 35
-14 39 -17 3 -4 -12 -32 -35 -64 -42 -59 -51 -84 -28 -84 17 0 57 29 57 42 0
5 11 23 25 40 14 16 25 40 25 54 0 22 4 24 43 24 72 0 82 14 82 117 0 128 5
123 -119 123 -90 0 -107 -3 -114 -17z m88 -58 c0 -22 -4 -25 -35 -25 -27 0
-35 4 -35 18 0 25 9 32 42 32 23 0 28 -4 28 -25z m100 0 c0 -21 -5 -25 -30
-25 -25 0 -30 4 -30 25 0 21 5 25 30 25 25 0 30 -4 30 -25z m0 -71 c16 -18 0
-37 -37 -49 -20 -6 -23 -3 -23 23 0 16 3 32 7 35 11 12 40 7 53 -9z m-102 -16
c-6 -42 -67 -33 -68 10 0 7 14 12 36 12 31 0 35 -3 32 -22z"/>
<path d="M95 500 c-44 -17 -46 -27 -43 -251 3 -213 3 -214 25 -217 23 -3 23
-3 25 209 2 146 6 214 14 216 20 7 23 -22 25 -203 1 -137 5 -178 16 -190 19
-19 142 -19 168 -1 31 23 8 37 -59 37 -69 0 -92 14 -81 50 4 14 15 20 35 20
17 0 33 7 38 17 5 9 7 74 4 146 -4 108 -3 129 9 125 11 -4 15 -38 17 -161 2
-125 5 -157 16 -157 23 0 26 24 26 184 0 167 -3 176 -57 176 -26 0 -36 -6 -49
-32 -14 -27 -15 -50 -10 -138 6 -89 4 -109 -8 -120 -25 -20 -29 8 -24 152 6
129 6 129 -19 139 -29 11 -41 11 -68 -1z"/>
<path d="M471 296 c-30 -31 -32 -37 -26 -77 5 -34 1 -53 -14 -84 -23 -44 -26
-67 -11 -96 14 -26 39 -24 44 4 21 110 23 113 84 93 18 -6 30 0 59 29 27 27
33 39 25 47 -9 9 -22 6 -51 -10 -32 -18 -41 -20 -50 -9 -12 15 10 44 54 73 14
9 25 25 25 35 0 38 -24 31 -70 -22 -52 -59 -80 -62 -36 -4 24 32 27 55 7 55
-4 0 -22 -15 -40 -34z"/>
</g>
</svg>
