<svg version="1.0" xmlns="http://www.w3.org/2000/svg"
 width="55.000000pt" height="47.000000pt" viewBox="0 0 55.000000 47.000000"
 preserveAspectRatio="xMidYMid meet">
<metadata>
Created by potrace 1.15, written by Peter Selinger 2001-2017
</metadata>
<g transform="translate(0.000000,47.000000) scale(0.100000,-0.100000)"
fill="#000000" stroke="none">
<path d="M87 373 c-10 -16 3 -236 15 -264 11 -24 22 -31 68 -40 65 -14 257 -6
273 10 19 19 21 133 3 195 -19 63 -36 74 -36 21 0 -40 6 -38 -113 -25 -103 12
-167 35 -167 60 0 20 -36 55 -43 43z m82 -148 c23 -50 41 -51 41 -4 0 24 4 29
18 25 9 -2 26 -7 37 -10 11 -3 26 -20 32 -37 14 -35 35 -34 43 2 5 20 12 24
40 24 35 0 35 0 38 -57 3 -58 3 -58 -29 -58 -18 0 -37 7 -44 17 -11 15 -13 15
-24 -5 -10 -18 -21 -22 -61 -22 -41 0 -50 3 -50 18 0 19 -18 42 -32 42 -4 0
-8 -11 -8 -25 0 -27 -14 -34 -23 -12 -3 8 -8 44 -12 80 -9 80 3 87 34 22z"/>
</g>
</svg>
