<svg version="1.0" xmlns="http://www.w3.org/2000/svg"
 width="51.000000pt" height="127.000000pt" viewBox="0 0 51.000000 127.000000"
 preserveAspectRatio="xMidYMid meet">
<metadata>
Created by potrace 1.15, written by Peter Selinger 2001-2017
</metadata>
<g transform="translate(0.000000,127.000000) scale(0.100000,-0.100000)"
fill="#000000" stroke="none">
<path d="M292 1120 c-31 -45 -42 -50 -42 -16 0 31 -27 55 -36 32 -9 -24 16
-172 36 -214 13 -26 15 -43 9 -60 -5 -13 -9 -34 -9 -47 0 -23 -3 -24 -82 -27
-66 -2 -83 -6 -83 -18 0 -9 16 -18 45 -25 59 -13 66 -19 91 -66 20 -40 20 -40
-8 -85 -15 -24 -36 -44 -45 -44 -12 0 -21 -13 -28 -39 -6 -22 -23 -64 -39 -93
-32 -61 -46 -108 -32 -108 5 0 29 27 54 61 46 61 46 61 70 22 24 -39 45 -78
67 -125 15 -32 18 -106 5 -116 -6 -4 -16 -19 -24 -34 -8 -16 -18 -28 -23 -28
-4 0 -8 -9 -8 -20 0 -11 6 -20 13 -20 15 1 47 24 47 36 0 5 12 22 26 39 14 16
28 42 31 57 3 16 8 28 12 28 11 0 54 70 47 77 -4 4 -20 -1 -37 -11 -17 -10
-32 -16 -33 -14 -1 1 -9 19 -16 38 -7 19 -22 48 -33 64 -11 15 -32 51 -48 79
-27 50 -27 50 -2 91 14 23 45 64 69 93 24 28 44 58 44 67 0 12 11 16 48 16 50
0 102 24 72 33 -8 3 -30 10 -49 16 -19 6 -54 11 -78 11 -45 0 -45 0 -38 32 4
18 15 50 25 73 9 22 20 59 24 82 5 34 3 41 -8 37 -8 -3 -17 -15 -20 -27 -6
-22 -7 -22 -21 -3 -17 23 -20 52 -5 61 6 3 10 13 10 22 0 8 8 27 18 41 22 32
34 72 21 72 -5 0 -22 -18 -37 -40z m-2 -413 c0 -30 -10 -40 -27 -26 -20 18
-16 49 7 49 14 0 20 -7 20 -23z"/>
</g>
</svg>
