<svg version="1.0" xmlns="http://www.w3.org/2000/svg"
 width="65.000000pt" height="85.000000pt" viewBox="0 0 65.000000 85.000000"
 preserveAspectRatio="xMidYMid meet">
<metadata>
Created by potrace 1.15, written by Peter Selinger 2001-2017
</metadata>
<g transform="translate(0.000000,85.000000) scale(0.100000,-0.100000)"
fill="#000000" stroke="none">
<path d="M143 627 c-50 -18 -40 -31 28 -37 58 -5 60 -6 43 -21 -11 -9 -43 -20
-71 -24 -36 -5 -53 -12 -53 -21 0 -18 69 -19 130 0 37 11 46 18 52 44 9 32 9
32 97 32 96 0 121 -5 121 -24 0 -14 -20 -25 -89 -51 -24 -9 -52 -26 -62 -39
-15 -20 -30 -24 -101 -29 -46 -3 -91 -9 -100 -12 -36 -14 -34 -76 3 -96 11 -5
58 -13 104 -16 61 -4 85 -10 85 -19 0 -7 11 -37 24 -66 30 -68 175 -224 199
-215 27 10 21 46 -10 58 -14 5 -35 20 -45 32 -20 22 -19 22 16 52 43 36 47 68
11 91 -24 16 -39 15 -106 -1 -22 -6 -28 -2 -39 25 -7 18 -9 35 -4 40 5 4 39
10 76 12 74 4 97 20 98 69 0 40 -18 49 -98 49 -64 0 -73 2 -70 17 2 13 18 20
57 25 80 12 105 27 109 65 2 22 -3 38 -17 52 -20 20 -32 21 -188 20 -102 0
-181 -5 -200 -12z m177 -232 c0 -36 0 -36 -72 -33 -70 3 -73 4 -73 28 0 27 25
36 108 39 36 1 37 0 37 -34z m175 10 c0 -16 -11 -23 -57 -34 -67 -16 -88 -10
-88 22 0 35 8 38 80 35 57 -3 65 -5 65 -23z m15 -175 c0 -21 -33 -60 -50 -60
-5 0 -17 11 -26 26 -18 27 -13 39 21 47 42 10 55 7 55 -13z"/>
<path d="M154 277 c-12 -5 -27 -20 -33 -33 -20 -45 -9 -184 14 -184 19 0 25
24 25 101 0 64 1 69 24 75 14 3 30 3 35 -1 7 -3 11 -45 11 -101 0 -95 8 -112
38 -82 19 19 16 188 -4 216 -16 24 -69 28 -110 9z"/>
</g>
</svg>
