<svg version="1.0" xmlns="http://www.w3.org/2000/svg"
 width="41.000000pt" height="67.000000pt" viewBox="0 0 41.000000 67.000000"
 preserveAspectRatio="xMidYMid meet">
<metadata>
Created by potrace 1.15, written by Peter Selinger 2001-2017
</metadata>
<g transform="translate(0.000000,67.000000) scale(0.100000,-0.100000)"
fill="#000000" stroke="none">
<path d="M191 523 c4 -68 4 -68 -28 -67 -31 2 -31 2 -35 -64 -3 -69 4 -86 47
-102 19 -7 23 -19 29 -72 9 -84 27 -148 43 -148 14 0 18 45 14 147 -3 59 -2
63 23 73 23 8 26 15 26 54 0 24 3 57 6 74 6 27 3 31 -24 37 -24 5 -31 12 -35
41 -6 37 -42 94 -59 94 -6 0 -9 -25 -7 -67z m3 -138 c3 -8 1 -15 -4 -15 -6 0
-10 7 -10 15 0 8 2 15 4 15 2 0 6 -7 10 -15z"/>
</g>
</svg>
