<svg version="1.0" xmlns="http://www.w3.org/2000/svg"
 width="75.000000pt" height="104.000000pt" viewBox="0 0 75.000000 104.000000"
 preserveAspectRatio="xMidYMid meet">
<metadata>
Created by potrace 1.15, written by Peter Selinger 2001-2017
</metadata>
<g transform="translate(0.000000,104.000000) scale(0.100000,-0.100000)"
fill="#000000" stroke="none">
<path d="M485 991 c-3 -6 -5 -22 -3 -38 3 -45 -10 -70 -44 -86 -36 -17 -48
-14 -48 13 0 15 -18 30 -36 30 -2 0 -4 -73 -4 -162 1 -175 4 -187 56 -214 33
-17 192 -19 229 -2 45 20 52 50 54 210 2 140 1 147 -19 158 -19 10 -23 8 -33
-19 -9 -26 -15 -29 -37 -24 -14 3 -27 9 -30 13 -3 3 -13 10 -24 13 -15 6 -18
15 -13 46 2 21 0 45 -5 54 -10 19 -33 23 -43 8z m103 -173 c23 -12 42 -27 42
-34 0 -20 -34 -25 -140 -22 -76 2 -95 6 -98 19 -3 19 101 68 132 62 12 -3 40
-14 64 -25z m46 -104 c4 -9 4 -24 1 -33 -4 -14 -21 -16 -114 -15 -117 2 -131
5 -131 34 0 20 23 24 171 28 54 2 68 -1 73 -14z m-4 -103 c0 -40 -41 -56 -121
-48 -83 9 -107 16 -114 34 -8 24 0 27 78 34 156 13 157 12 157 -20z"/>
<path d="M105 780 c-16 -3 -29 -9 -27 -13 1 -4 2 -11 2 -17 0 -5 20 -10 45
-10 45 0 45 0 45 -69 0 -78 -11 -94 -61 -89 -21 2 -35 -2 -42 -14 -15 -23 -4
-31 51 -38 47 -5 47 -5 50 -114 3 -120 0 -126 -55 -126 -44 0 -63 -9 -63 -31
0 -18 9 -19 119 -19 93 0 121 3 131 15 20 24 4 45 -35 45 -35 0 -35 0 -35 120
0 120 0 120 41 120 36 0 40 2 37 23 -2 18 -10 23 -40 25 -38 3 -38 3 -38 78 0
65 2 74 18 74 24 0 59 26 49 37 -10 9 -147 12 -192 3z"/>
<path d="M378 431 c-75 -7 -85 -12 -64 -34 12 -11 30 -14 82 -9 56 4 69 2 80
-12 7 -10 11 -23 9 -29 -2 -7 -6 -24 -9 -39 -6 -27 -9 -28 -65 -28 -45 0 -60
-4 -65 -16 -10 -27 3 -34 64 -34 66 0 70 -4 72 -82 1 -86 0 -87 -115 -90 -83
-2 -102 -6 -102 -18 0 -27 432 -27 475 0 27 16 -1 25 -98 30 -97 5 -97 5 -105
74 -9 88 -3 96 79 96 35 0 64 3 64 8 -1 22 -21 31 -75 34 -60 3 -60 3 -66 45
-8 61 5 73 85 73 66 0 77 5 54 28 -13 13 -173 14 -300 3z"/>
</g>
</svg>
