<svg version="1.0" xmlns="http://www.w3.org/2000/svg"
 width="60.000000pt" height="83.000000pt" viewBox="0 0 60.000000 83.000000"
 preserveAspectRatio="xMidYMid meet">
<metadata>
Created by potrace 1.15, written by Peter Selinger 2001-2017
</metadata>
<g transform="translate(0.000000,83.000000) scale(0.100000,-0.100000)"
fill="#000000" stroke="none">
<path d="M246 741 c-4 -5 -2 -21 4 -36 11 -30 63 -55 114 -55 19 0 42 -7 50
-16 30 -29 10 -37 -116 -49 -77 -7 -88 -20 -25 -29 69 -10 168 9 189 36 37 49
13 74 -88 90 -70 12 -80 17 -92 41 -13 28 -26 34 -36 18z"/>
<path d="M146 693 c-10 -11 -7 -36 8 -52 7 -9 16 -34 19 -56 5 -33 2 -47 -22
-82 -39 -58 -50 -151 -24 -196 16 -27 27 -33 73 -40 102 -14 88 -47 -28 -67
-76 -13 -92 -23 -92 -56 0 -45 59 -119 79 -99 3 3 -6 26 -19 50 -26 47 -23 57
17 69 18 6 27 0 48 -34 33 -52 105 -83 105 -45 0 8 -6 15 -14 15 -14 0 -66 55
-66 70 0 4 11 11 25 14 14 4 31 18 37 31 14 32 31 31 67 -2 24 -22 33 -43 44
-98 11 -59 17 -71 35 -73 26 -4 25 -7 11 77 -12 72 -43 122 -87 145 -15 7 -60
18 -100 24 -73 10 -112 31 -112 59 0 14 42 18 145 14 86 -3 121 -17 145 -57
15 -23 29 -34 46 -34 37 0 29 23 -27 70 -59 50 -93 59 -211 60 -86 0 -88 0
-88 24 0 22 5 25 54 31 30 4 94 6 141 4 84 -4 88 -5 114 -37 30 -35 61 -43 61
-14 0 20 -31 52 -67 71 -12 6 -70 11 -130 11 -120 0 -139 6 -128 40 4 12 2 41
-3 64 -6 22 -13 53 -16 67 -6 26 -28 44 -40 32z"/>
</g>
</svg>
