<svg version="1.0" xmlns="http://www.w3.org/2000/svg"
 width="74.000000pt" height="120.000000pt" viewBox="0 0 74.000000 120.000000"
 preserveAspectRatio="xMidYMid meet">
<metadata>
Created by potrace 1.15, written by Peter Selinger 2001-2017
</metadata>
<g transform="translate(0.000000,120.000000) scale(0.100000,-0.100000)"
fill="#000000" stroke="none">
<path d="M510 968 c0 -62 -12 -108 -27 -108 -28 0 -91 -42 -103 -69 -13 -28
-30 -197 -24 -252 1 -19 5 -67 8 -108 10 -133 25 -161 108 -209 33 -18 38 -19
50 -5 10 13 7 20 -22 45 -95 79 -88 67 -96 159 -5 46 -8 91 -7 99 1 8 5 67 8
130 5 105 8 117 31 140 23 23 30 25 116 23 58 -2 97 -7 104 -15 20 -21 25 -70
31 -283 5 -201 5 -201 -55 -263 -48 -49 -62 -71 -70 -109 -21 -101 2 -174 32
-101 8 18 12 36 9 41 -3 4 1 30 7 57 9 37 22 59 55 89 24 22 49 50 55 61 15
27 14 410 -1 479 -14 65 -40 84 -115 85 -54 1 -54 1 -54 58 0 66 -7 88 -26 88
-9 0 -14 -11 -14 -32z"/>
<path d="M185 860 c-4 -66 -6 -180 -4 -252 3 -178 -9 -260 -53 -343 -12 -22
-24 -42 -27 -45 -4 -3 -17 -22 -31 -42 -14 -21 -28 -38 -32 -38 -5 0 -8 -9 -8
-20 0 -23 4 -24 32 -9 47 25 128 134 128 171 0 39 21 14 63 -74 44 -94 68
-125 87 -113 18 11 10 46 -23 98 -93 145 -92 138 -92 482 0 272 -2 304 -26
305 -4 0 -10 -54 -14 -120z"/>
<path d="M284 882 c-10 -8 -19 -432 -9 -462 10 -31 33 -24 40 13 7 43 8 83 7
278 -2 129 -5 168 -15 172 -8 3 -18 2 -23 -1z"/>
<path d="M90 630 c0 -137 4 -250 9 -250 25 0 30 36 31 215 1 105 3 204 5 220
6 42 -3 65 -26 65 -18 0 -19 -10 -19 -250z"/>
<path d="M482 744 c-47 -53 -47 -102 0 -171 28 -41 36 -73 19 -73 -13 0 -41
-64 -41 -92 0 -68 99 -95 146 -40 20 22 23 34 18 69 -8 53 0 77 32 92 27 12
24 31 -6 31 -29 0 -62 -49 -57 -85 2 -16 0 -44 -5 -62 -8 -29 -13 -33 -41 -33
-60 0 -75 41 -32 92 32 38 31 51 -6 121 -23 44 -29 66 -24 88 8 35 14 39 60
41 60 2 70 -46 19 -85 -13 -10 -24 -23 -24 -28 0 -19 39 -8 70 21 28 26 32 35
26 63 -4 17 -16 40 -29 49 -28 22 -107 23 -125 2z"/>
</g>
</svg>
