<svg version="1.0" xmlns="http://www.w3.org/2000/svg"
 width="43.000000pt" height="97.000000pt" viewBox="0 0 43.000000 97.000000"
 preserveAspectRatio="xMidYMid meet">
<metadata>
Created by potrace 1.15, written by Peter Selinger 2001-2017
</metadata>
<g transform="translate(0.000000,97.000000) scale(0.100000,-0.100000)"
fill="#000000" stroke="none">
<path d="M252 732 c2 -73 -1 -103 -11 -115 -19 -23 -27 -15 -46 46 -24 71 -45
117 -56 117 -15 0 5 -183 27 -254 6 -17 2 -18 -44 -14 -72 7 -83 -5 -34 -36
23 -14 50 -26 61 -26 31 0 50 -27 49 -69 -1 -61 -8 -67 -66 -47 -52 16 -82 20
-82 11 0 -16 51 -54 93 -70 42 -16 48 -21 45 -44 -2 -15 -10 -26 -18 -27 -64
-2 -77 -40 -20 -59 29 -10 36 -18 43 -51 4 -21 6 -49 4 -62 -5 -26 8 -39 20
-20 4 7 10 36 13 63 5 50 5 50 64 55 70 6 82 23 32 44 -38 16 -44 27 -23 45
10 8 22 7 45 -1 43 -16 49 -5 18 32 -14 17 -26 29 -26 26 0 -2 -20 2 -45 11
-45 15 -45 15 -45 79 0 64 0 64 60 64 33 0 60 4 60 10 0 6 -10 10 -23 10 -13
0 -33 9 -45 20 -12 11 -28 20 -37 20 -8 0 -15 9 -15 20 0 11 5 20 10 20 6 0
10 8 10 18 0 10 4 22 9 27 11 14 31 119 31 169 0 45 -22 86 -46 86 -13 0 -15
-16 -12 -98z m27 -501 c12 -8 12 -12 -3 -26 -20 -20 -43 -7 -33 19 7 18 16 20
36 7z"/>
</g>
</svg>
