<svg version="1.0" xmlns="http://www.w3.org/2000/svg"
 width="70.000000pt" height="84.000000pt" viewBox="0 0 70.000000 84.000000"
 preserveAspectRatio="xMidYMid meet">
<metadata>
Created by potrace 1.15, written by Peter Selinger 2001-2017
</metadata>
<g transform="translate(0.000000,84.000000) scale(0.100000,-0.100000)"
fill="#000000" stroke="none">
<path d="M53 605 c-9 -26 5 -30 107 -30 103 0 116 4 107 30 -9 22 -205 22
-214 0z"/>
<path d="M382 613 c-16 -6 -42 -56 -42 -81 0 -34 26 -56 74 -61 47 -6 47 -6
10 -64 -25 -39 -33 -62 -26 -69 10 -10 41 25 78 89 34 60 75 52 54 -11 -6 -20
-16 -38 -21 -42 -15 -9 -59 -101 -59 -123 0 -28 -18 -36 -47 -20 -20 11 -26
11 -33 -1 -13 -20 -12 -141 0 -160 14 -23 158 -27 199 -6 31 16 31 17 31 97 0
64 -3 81 -16 86 -10 4 -20 0 -26 -10 -5 -10 -21 -17 -38 -17 -27 0 -30 3 -29
33 0 17 8 43 17 57 9 14 26 41 37 59 11 18 28 42 38 53 21 26 21 37 2 65 -21
31 -73 43 -122 30 -22 -6 -47 -7 -56 -4 -18 7 -23 52 -8 61 5 3 49 6 97 7 98
1 106 3 97 24 -4 12 -25 15 -102 14 -53 0 -102 -3 -109 -6z m174 -457 c3 -8 1
-24 -6 -35 -9 -18 -20 -21 -80 -21 -70 0 -70 0 -70 35 0 35 0 35 75 35 56 0
77 -4 81 -14z"/>
<path d="M20 506 c0 -15 21 -26 51 -26 15 0 19 -7 19 -30 0 -21 9 -39 26 -55
29 -27 27 -55 -4 -55 -26 0 -40 18 -44 60 -2 19 -7 34 -13 33 -17 -3 -29 -81
-17 -108 10 -21 18 -25 57 -25 44 0 45 -1 45 -31 0 -31 -1 -32 -39 -26 -22 3
-44 0 -50 -6 -14 -14 -14 -152 -1 -178 9 -16 22 -19 96 -19 51 0 98 6 119 14
35 15 35 15 35 94 0 54 -5 84 -15 98 -14 18 -16 18 -29 2 -8 -11 -27 -18 -45
-18 -30 0 -32 2 -29 33 3 30 6 32 45 35 52 4 73 29 73 89 0 70 -28 66 -40 -7
-5 -32 -8 -35 -43 -38 -20 -2 -37 0 -37 5 0 4 11 28 25 52 14 23 25 52 25 62
0 12 7 19 19 19 30 0 51 11 51 26 0 11 -27 14 -140 14 -113 0 -140 -3 -140
-14z m158 -53 c-2 -20 -9 -28 -23 -28 -14 0 -21 8 -23 28 -3 23 0 27 23 27 23
0 26 -4 23 -27z m82 -273 c0 -19 -7 -20 -90 -20 -68 0 -90 3 -90 13 0 24 12
27 97 27 76 0 83 -2 83 -20z m-12 -72 c-3 -22 -8 -23 -83 -23 -75 0 -80 1 -83
23 -3 21 -1 22 83 22 84 0 86 -1 83 -22z"/>
</g>
</svg>
