<svg version="1.0" xmlns="http://www.w3.org/2000/svg"
 width="75.000000pt" height="88.000000pt" viewBox="0 0 75.000000 88.000000"
 preserveAspectRatio="xMidYMid meet">
<metadata>
Created by potrace 1.15, written by Peter Selinger 2001-2017
</metadata>
<g transform="translate(0.000000,88.000000) scale(0.100000,-0.100000)"
fill="#000000" stroke="none">
<path d="M400 625 c-16 -20 -4 -32 34 -37 16 -2 34 -11 40 -20 13 -21 0 -36
-16 -20 -16 16 -53 15 -68 -2 -16 -21 25 -143 51 -151 14 -5 18 -12 13 -31 -9
-34 2 -69 31 -100 18 -19 22 -31 15 -38 -15 -15 -12 -42 10 -88 11 -23 20 -49
20 -58 0 -19 19 -40 36 -40 26 0 26 41 -1 94 -27 53 -27 53 8 99 59 77 58 98
-7 138 -30 18 -27 24 19 31 12 2 20 11 20 23 0 16 -8 21 -38 23 -52 4 -48 34
6 43 44 7 52 13 44 34 -4 10 -19 15 -46 15 -36 0 -40 3 -46 30 -12 57 -94 92
-125 55z m88 -157 c-6 -18 -28 -21 -28 -4 0 9 7 16 16 16 9 0 14 -5 12 -12z
m56 -137 c16 -18 13 -51 -5 -51 -9 0 -29 42 -29 61 0 15 16 10 34 -10z"/>
<path d="M232 617 c-6 -7 -10 -26 -9 -42 2 -23 -3 -30 -28 -38 -59 -19 -68
-35 -62 -107 4 -53 9 -68 30 -85 24 -19 25 -23 16 -72 -11 -59 -3 -101 36
-189 18 -41 29 -54 45 -54 27 0 36 25 18 53 -19 30 -40 105 -33 117 3 6 14 10
24 10 27 0 61 43 68 86 3 21 14 46 25 55 26 21 34 92 15 144 -10 31 -21 42
-45 50 -25 7 -32 15 -32 35 0 44 -43 67 -68 37z m94 -128 c11 -18 -8 -27 -73
-34 -54 -6 -63 -5 -63 9 0 9 10 21 23 26 31 12 105 12 113 -1z m4 -88 c0 -13
-102 -33 -123 -25 -20 7 -22 20 -4 27 22 9 127 7 127 -2z m-40 -84 c0 -20 -30
-57 -46 -57 -14 0 -19 26 -8 54 7 19 54 22 54 3z"/>
</g>
</svg>
