<svg version="1.0" xmlns="http://www.w3.org/2000/svg"
 width="115.000000pt" height="461.000000pt" viewBox="0 0 115.000000 461.000000"
 preserveAspectRatio="xMidYMid meet">
<metadata>
Created by potrace 1.15, written by Peter Selinger 2001-2017
</metadata>
<g transform="translate(0.000000,461.000000) scale(0.100000,-0.100000)"
fill="#000000" stroke="none">
<path d="M293 4412 c2 -103 -1 -108 -92 -152 -49 -24 -78 -49 -119 -105 -11
-16 -29 -74 -42 -143 -9 -44 -11 -112 -6 -235 4 -94 9 -242 11 -327 2 -85 9
-245 15 -355 6 -110 13 -312 15 -450 3 -137 7 -396 11 -575 5 -274 3 -345 -11
-450 -10 -69 -19 -145 -21 -170 -4 -40 -3 -42 7 -20 6 14 15 32 19 41 7 14 13
45 39 229 12 80 12 1051 1 1175 -18 182 -23 420 -11 443 11 20 20 22 94 22 45
0 88 -4 96 -9 12 -8 14 -50 11 -243 -1 -128 -4 -388 -5 -578 -2 -190 -5 -372
-8 -405 -4 -51 -12 -1054 -8 -1108 0 -10 6 -15 11 -12 6 3 10 2 10 -4 0 -5 -5
-11 -12 -13 -8 -3 -11 -50 -11 -161 1 -158 1 -158 -64 -155 -64 3 -64 3 -68
144 -3 125 -7 147 -29 196 -25 56 -51 86 -63 74 -3 -3 0 -14 8 -23 18 -22 34
-68 49 -148 12 -59 4 -171 -20 -280 -5 -22 -14 -76 -21 -120 -12 -78 -11 -83
13 -130 38 -77 82 -97 211 -97 128 0 168 15 198 74 20 40 21 48 12 227 -11
201 -4 332 21 425 9 32 14 61 12 63 -11 11 -30 -13 -53 -66 -22 -48 -26 -75
-31 -198 -5 -141 -5 -141 -61 -145 -31 -2 -59 -2 -63 1 -10 9 -14 854 -5 1291
8 402 9 578 8 818 -1 79 1 147 4 152 2 4 5 100 6 214 1 206 1 206 95 206 107
0 99 40 72 -360 -15 -215 -14 -854 1 -980 6 -47 15 -132 21 -190 22 -208 41
-317 68 -380 25 -58 27 -15 4 84 -12 50 -26 136 -31 191 -6 55 -15 150 -21
210 -24 235 -22 964 4 1135 7 47 17 194 21 320 2 69 9 149 15 179 5 29 10 95
10 145 0 50 5 145 11 211 15 172 -3 240 -85 318 -29 28 -125 77 -151 77 -29 0
-45 31 -45 86 0 56 -21 124 -39 124 -6 0 -9 -35 -8 -88z m95 -171 c9 -5 33
-16 53 -24 60 -26 105 -72 116 -119 23 -100 9 -502 -18 -519 -8 -5 -52 -9
-100 -9 -85 0 -85 0 -84 38 2 50 14 129 25 172 5 19 17 64 26 100 21 78 24
161 7 167 -7 3 -15 -8 -18 -24 -3 -15 -10 -41 -14 -58 -5 -16 -15 -58 -22 -92
-13 -62 -35 -88 -45 -55 -13 41 -27 78 -34 97 -5 11 -14 42 -22 68 -14 52 -30
73 -49 62 -15 -10 -7 -57 29 -158 16 -45 35 -102 41 -127 7 -25 16 -58 21 -75
5 -16 11 -49 15 -72 7 -43 7 -43 -108 -43 -114 0 -114 0 -120 133 -9 202 3
331 37 400 27 56 46 73 141 123 43 23 94 30 123 15z m-72 -773 c-3 -29 -6 -63
-6 -75 0 -22 -4 -23 -85 -23 -46 0 -96 5 -110 12 -22 10 -25 18 -25 58 0 47 0
47 42 59 41 10 84 16 157 19 34 2 34 2 27 -50z m218 46 c18 -7 22 -77 6 -118
-9 -25 -12 -26 -98 -26 -88 0 -88 0 -87 73 1 39 3 73 4 75 3 5 160 2 175 -4z
m-97 -2910 c37 -7 42 -17 50 -101 7 -73 -10 -143 -41 -171 -32 -29 -93 -40
-172 -31 -139 17 -179 64 -155 184 16 81 32 113 56 118 31 7 226 7 262 1z"/>
<path d="M817 4470 c-6 -15 -37 -147 -55 -235 -6 -27 -14 -131 -18 -230 -3
-99 -8 -189 -10 -200 -2 -11 -4 -378 -4 -815 0 -853 6 -990 59 -1345 6 -38 16
-117 22 -175 12 -119 23 -201 39 -280 6 -30 14 -72 17 -93 3 -20 9 -40 14 -43
5 -3 9 -15 9 -26 0 -20 28 -111 51 -165 5 -13 13 -33 18 -45 13 -34 51 -127
72 -175 11 -24 19 -49 19 -57 0 -18 -57 -76 -74 -76 -12 0 -33 -9 -183 -82
-79 -38 -102 -58 -68 -58 9 0 37 11 63 24 56 29 139 66 147 66 3 0 28 11 57
25 74 36 78 34 78 -30 0 -107 -56 -174 -161 -194 -141 -27 -193 -47 -231 -89
-33 -38 -48 -65 -48 -91 0 -30 18 -26 31 7 25 60 34 74 66 93 37 23 147 49
206 49 26 0 52 9 80 29 99 68 115 105 96 221 -5 36 -12 82 -16 103 -3 20 -9
40 -14 43 -5 3 -9 12 -9 20 0 8 -9 34 -20 56 -11 23 -20 45 -20 50 0 8 -17 48
-61 146 -10 23 -19 51 -19 62 0 10 -4 21 -8 24 -10 6 -25 68 -48 196 -8 47
-19 105 -24 130 -7 43 -26 181 -50 370 -6 47 -15 114 -20 150 -35 246 -38 456
-28 1730 2 228 6 420 9 425 4 6 7 46 7 91 1 44 9 121 18 170 19 105 28 193 22
220 -4 15 -6 16 -11 4z"/>
</g>
</svg>
