<svg version="1.0" xmlns="http://www.w3.org/2000/svg"
 width="95.000000pt" height="165.000000pt" viewBox="0 0 95.000000 165.000000"
 preserveAspectRatio="xMidYMid meet">
<metadata>
Created by potrace 1.15, written by Peter Selinger 2001-2017
</metadata>
<g transform="translate(0.000000,165.000000) scale(0.100000,-0.100000)"
fill="#000000" stroke="none">
<path d="M295 1489 c-22 -10 -46 -19 -53 -19 -24 0 -100 -62 -126 -101 -14
-20 -34 -66 -45 -101 -21 -71 -44 -328 -30 -342 5 -6 9 -25 9 -43 0 -23 5 -33
16 -33 32 0 54 20 54 50 0 30 0 30 75 32 41 1 85 2 97 2 21 1 22 -2 19 -99 -1
-55 -7 -106 -13 -112 -6 -7 -21 -13 -35 -13 -20 0 -57 -13 -72 -26 -10 -9 31
-34 56 -34 42 0 68 -22 55 -46 -5 -10 -10 -50 -11 -89 -1 -42 -6 -75 -14 -82
-9 -9 -46 -13 -115 -14 -90 0 -102 -2 -107 -19 -3 -11 -2 -27 3 -37 5 -10 12
-55 15 -101 4 -73 9 -88 40 -135 39 -58 78 -96 105 -100 9 -1 22 -5 27 -9 6
-3 26 -9 46 -13 26 -5 39 -2 48 9 8 10 29 16 52 16 26 0 45 7 57 20 9 10 26
30 38 43 12 13 33 47 47 75 23 46 32 76 54 184 3 16 0 33 -8 40 -23 22 -96 41
-133 35 -20 -3 -51 -3 -70 0 -28 4 -35 10 -38 34 -3 16 -1 29 3 29 5 0 9 33
11 72 3 73 3 73 50 80 55 7 68 14 68 33 0 13 -56 35 -91 35 -21 0 -31 35 -19
66 5 13 10 51 11 84 1 33 6 63 11 66 5 3 53 6 106 7 97 2 97 2 100 -25 4 -29
39 -49 52 -28 4 6 13 65 20 131 11 100 16 119 30 119 23 0 21 28 -2 36 -14 4
-18 16 -18 53 0 33 -8 63 -26 94 -26 48 -103 123 -145 144 -125 59 -142 62
-204 32z m35 -163 c0 -46 -3 -91 -6 -100 -5 -13 -24 -16 -100 -16 -93 0 -94 0
-94 25 0 34 56 135 76 135 6 0 28 9 50 20 70 35 74 31 74 -64z m142 48 c49
-31 77 -62 78 -86 0 -9 5 -20 10 -23 16 -10 12 -42 -6 -49 -9 -3 -49 -6 -90
-6 -74 0 -74 0 -74 58 0 82 10 132 27 132 7 0 32 -12 55 -26z m-152 -304 c0
-80 0 -80 -100 -80 -101 0 -101 0 -98 72 3 72 3 73 33 79 17 4 60 7 98 8 67 1
67 1 67 -79z m190 66 c77 -12 80 -14 80 -70 0 -53 0 -53 -51 -64 -55 -13 -128
-16 -153 -6 -19 7 -21 47 -4 109 12 45 12 45 58 40 25 -2 56 -6 70 -9z m-24
-798 c3 -3 5 -14 5 -24 -1 -11 -1 -36 -1 -57 -1 -68 -47 -144 -107 -176 -33
-17 -99 -13 -143 9 -65 33 -103 101 -109 192 -2 47 -2 47 41 57 43 10 303 9
314 -1z"/>
<path d="M859 763 c-14 -21 -35 -63 -48 -93 -13 -30 -28 -65 -33 -77 -7 -14
-26 -25 -57 -33 -133 -33 -129 -31 -112 -59 7 -11 28 -13 94 -9 85 6 85 6 96
-32 19 -64 14 -143 -11 -175 -25 -32 -74 -55 -119 -55 -24 0 -30 -3 -25 -16 3
-9 6 -18 6 -20 0 -12 95 -1 133 15 37 16 49 28 66 67 24 54 28 157 9 228 -13
48 -11 58 32 166 24 63 41 113 37 116 -1 1 -11 4 -23 8 -17 5 -26 -1 -45 -31z"/>
</g>
</svg>
