<svg version="1.0" xmlns="http://www.w3.org/2000/svg"
 width="49.000000pt" height="55.000000pt" viewBox="0 0 49.000000 55.000000"
 preserveAspectRatio="xMidYMid meet">
<metadata>
Created by potrace 1.15, written by Peter Selinger 2001-2017
</metadata>
<g transform="translate(0.000000,55.000000) scale(0.100000,-0.100000)"
fill="#000000" stroke="none">
<path d="M309 416 c-3 -3 -60 -6 -127 -7 -83 -1 -125 -5 -132 -14 -20 -24 15
-38 88 -33 69 3 69 3 81 -39 25 -94 3 -134 -53 -98 -14 9 -30 14 -36 10 -13
-8 -5 -73 15 -121 13 -31 13 -31 86 -27 41 2 93 9 115 14 41 11 41 11 36 57
-7 67 -19 97 -35 84 -12 -10 -39 -15 -64 -13 -9 1 -13 21 -13 65 0 63 0 63 71
70 47 5 75 4 82 -3 18 -18 27 -12 27 19 0 28 -2 30 -39 30 -21 0 -51 3 -67 6
-16 3 -32 3 -35 0z m31 -245 c0 -28 -16 -35 -88 -38 -60 -2 -63 -1 -60 20 2
17 12 23 43 28 83 13 105 10 105 -10z"/>
</g>
</svg>
