<svg version="1.0" xmlns="http://www.w3.org/2000/svg"
 width="65.000000pt" height="95.000000pt" viewBox="0 0 65.000000 95.000000"
 preserveAspectRatio="xMidYMid meet">
<metadata>
Created by potrace 1.15, written by Peter Selinger 2001-2017
</metadata>
<g transform="translate(0.000000,95.000000) scale(0.100000,-0.100000)"
fill="#000000" stroke="none">
<path d="M320 760 c-6 -4 -59 -8 -118 -9 -58 -1 -109 -4 -111 -7 -16 -15 31
-29 113 -32 94 -4 94 -4 99 -41 29 -208 34 -256 30 -268 -4 -9 -26 -13 -72
-14 -36 0 -82 -6 -101 -12 -32 -11 -35 -16 -33 -47 1 -19 7 -57 12 -85 5 -27
15 -81 22 -120 6 -38 16 -73 21 -76 8 -5 256 -2 328 5 42 4 57 15 70 55 9 28
9 47 1 77 -6 21 -11 71 -11 109 0 98 -3 100 -100 98 -89 -2 -80 -11 -87 82 -3
50 -10 100 -13 100 -1 0 -4 24 -6 53 -5 66 8 92 44 92 46 0 73 11 70 29 -3 13
-17 16 -75 17 -40 0 -77 -2 -83 -6z m204 -442 c3 -18 8 -58 11 -88 4 -30 8
-64 9 -75 6 -37 -12 -45 -105 -45 -55 0 -89 -4 -89 -10 0 -7 -6 -7 -19 0 -11
5 -42 10 -70 10 -51 0 -51 0 -51 40 0 28 -5 43 -16 47 -11 4 -12 8 -4 13 6 4
12 28 12 53 0 52 -2 50 113 62 80 9 118 15 124 21 2 2 21 4 42 4 35 0 38 -2
43 -32z"/>
</g>
</svg>
