<svg version="1.0" xmlns="http://www.w3.org/2000/svg"
 width="72.000000pt" height="83.000000pt" viewBox="0 0 72.000000 83.000000"
 preserveAspectRatio="xMidYMid meet">
<metadata>
Created by potrace 1.15, written by Peter Selinger 2001-2017
</metadata>
<g transform="translate(0.000000,83.000000) scale(0.100000,-0.100000)"
fill="#000000" stroke="none">
<path d="M405 749 c-22 -5 -76 -8 -120 -7 -80 3 -80 3 -83 -54 -3 -49 0 -58
20 -72 12 -9 41 -16 64 -16 40 0 42 -1 46 -34 3 -30 0 -35 -27 -45 -41 -15
-115 -82 -115 -103 0 -10 2 -18 5 -18 3 0 33 21 67 46 63 46 63 46 66 -6 2
-29 1 -58 -2 -65 -3 -8 -38 -15 -95 -19 -81 -7 -91 -10 -91 -27 0 -17 8 -19
65 -19 40 0 65 -4 65 -11 0 -21 -33 -145 -51 -193 -21 -53 -24 -76 -11 -76 35
0 102 162 102 246 0 41 0 41 52 47 60 8 64 4 73 -68 15 -114 53 -205 86 -205
25 0 25 2 -21 135 -16 49 -30 102 -30 117 0 28 9 33 70 40 14 2 25 9 25 18 0
13 -15 14 -93 11 -93 -3 -93 -3 -90 60 2 35 8 64 14 66 6 2 33 -12 59 -32 35
-27 50 -34 58 -26 18 18 -3 41 -69 75 -48 25 -59 36 -59 56 0 23 4 25 58 28
31 2 57 7 57 13 0 18 -52 29 -144 29 -67 0 -98 4 -112 15 -19 15 -19 15 0 30
11 8 40 15 65 16 86 1 186 24 189 42 4 19 -24 21 -93 6z"/>
</g>
</svg>
