<svg version="1.0" xmlns="http://www.w3.org/2000/svg"
 width="73.000000pt" height="84.000000pt" viewBox="0 0 73.000000 84.000000"
 preserveAspectRatio="xMidYMid meet">
<metadata>
Created by potrace 1.15, written by Peter Selinger 2001-2017
</metadata>
<g transform="translate(0.000000,84.000000) scale(0.100000,-0.100000)"
fill="#000000" stroke="none">
<path d="M396 752 c-3 -5 6 -27 20 -51 13 -24 24 -44 24 -46 0 -2 -22 -20 -50
-41 -32 -24 -46 -42 -40 -48 15 -15 88 23 108 56 24 41 75 40 97 -2 8 -16 15
-37 15 -48 0 -18 18 -42 31 -42 8 0 10 85 2 113 -5 21 -44 42 -94 51 -20 3
-48 19 -64 36 -30 31 -40 36 -49 22z"/>
<path d="M129 728 c0 -2 -2 -50 -3 -108 -4 -131 5 -176 40 -184 14 -4 29 -4
35 -1 19 13 49 -6 49 -31 0 -18 -9 -29 -35 -41 -41 -19 -71 -76 -86 -162 -6
-31 -19 -68 -30 -83 -23 -32 -24 -48 -4 -48 16 0 75 81 75 104 0 8 9 40 20 70
16 41 32 63 65 88 25 18 48 44 51 56 10 35 -24 75 -74 87 -76 19 -84 57 -14
68 22 4 45 13 51 21 18 21 27 151 11 161 -16 10 -26 -8 -34 -63 -7 -52 -20
-72 -49 -72 -17 0 -19 5 -13 39 4 24 2 42 -5 46 -5 4 -14 18 -19 31 -8 19 -28
33 -31 22z"/>
<path d="M417 500 c-83 -87 -77 -110 12 -40 28 22 56 40 63 40 7 0 36 -18 63
-40 45 -36 82 -52 73 -32 -6 14 -135 132 -144 132 -5 0 -35 -27 -67 -60z"/>
<path d="M455 440 c-12 -20 6 -51 28 -48 31 4 31 52 0 56 -11 2 -24 -2 -28 -8z"/>
<path d="M385 332 c-34 -8 -41 -35 -10 -40 11 -2 23 -7 27 -10 13 -13 -11
-152 -34 -191 -25 -44 -19 -64 11 -37 28 26 58 93 73 166 11 53 17 65 33 65
17 0 23 -15 42 -104 21 -98 35 -131 53 -131 5 0 5 15 0 32 -4 18 -10 71 -13
116 -5 84 -5 84 30 99 56 23 27 37 -85 40 -53 1 -110 -1 -127 -5z"/>
</g>
</svg>
