<svg version="1.0" xmlns="http://www.w3.org/2000/svg"
 width="109.000000pt" height="171.000000pt" viewBox="0 0 109.000000 171.000000"
 preserveAspectRatio="xMidYMid meet">
<metadata>
Created by potrace 1.15, written by Peter Selinger 2001-2017
</metadata>
<g transform="translate(0.000000,171.000000) scale(0.100000,-0.100000)"
fill="#000000" stroke="none">
<path d="M602 1592 c-10 -7 -11 -31 -2 -118 15 -165 16 -162 -22 -166 -28 -2
-33 -7 -33 -28 0 -29 24 -36 180 -46 74 -4 103 -10 113 -22 15 -20 15 -34 -1
-57 -13 -17 -17 -17 -83 -2 -141 32 -196 36 -221 15 -28 -23 21 -58 82 -58 47
0 135 -20 135 -30 0 -19 -41 -30 -109 -30 -38 0 -73 -4 -76 -10 -3 -5 -15 -10
-26 -10 -32 0 -21 -28 20 -50 24 -12 141 -9 241 6 32 5 36 3 55 -33 11 -21 28
-47 38 -58 10 -11 25 -31 32 -45 22 -41 70 -81 88 -74 22 8 21 29 -1 62 -10
15 -24 41 -32 57 -8 17 -17 32 -20 35 -3 3 -15 19 -27 35 -31 45 -38 94 -19
140 22 51 21 127 -1 147 -24 22 -107 49 -168 55 -57 6 -75 17 -57 36 9 8 52
12 135 13 139 2 206 10 225 28 26 25 -12 36 -142 41 -70 3 -136 9 -146 15 -10
5 -32 10 -48 10 -34 0 -42 14 -42 71 0 57 -34 92 -68 71z"/>
<path d="M246 1500 c-4 -44 -5 -84 -2 -89 11 -17 -5 -40 -22 -34 -23 8 -52 44
-52 65 0 22 -41 108 -52 108 -4 0 -10 -10 -13 -22 -18 -80 -3 -132 57 -190 27
-26 58 -48 69 -48 17 0 19 -7 19 -60 0 -33 -4 -60 -10 -60 -21 0 -60 24 -65
42 -4 10 -11 18 -16 18 -5 0 -9 9 -9 21 0 30 -38 79 -61 79 -22 0 -23 -7 -5
-80 25 -100 46 -127 116 -150 38 -13 38 -13 -14 -64 -53 -52 -92 -118 -81
-136 17 -27 95 12 106 54 9 34 27 56 45 56 10 0 14 -16 14 -60 0 -48 4 -63 22
-80 30 -28 38 -12 38 78 0 55 4 74 15 78 25 10 78 -29 100 -74 22 -46 29 -50
51 -28 29 30 17 71 -36 122 -27 26 -50 54 -50 61 0 7 8 27 19 45 10 18 30 53
44 76 18 32 23 51 18 70 -11 41 -36 39 -54 -5 -17 -44 -43 -75 -74 -92 -19 -9
-24 -8 -33 8 -15 29 -12 81 5 87 8 4 15 12 15 20 0 8 10 14 23 14 15 0 28 10
39 33 37 74 40 153 7 193 -19 24 -26 16 -33 -37 -11 -81 -58 -159 -70 -116 -2
6 -9 39 -16 72 -26 129 -45 138 -54 25z"/>
<path d="M392 883 c-5 -15 -25 -44 -43 -63 -56 -59 -63 -80 -49 -141 12 -49
10 -193 -5 -385 -8 -95 45 -114 60 -21 3 23 9 130 11 238 5 197 5 197 112 203
59 4 148 3 197 -3 142 -16 255 -22 276 -16 26 9 24 30 -6 43 -26 12 -39 14
-280 38 -115 11 -130 12 -193 13 -63 1 -63 1 -41 32 17 25 20 37 13 58 -13 36
-39 39 -52 4z"/>
<path d="M463 658 c-5 -7 -15 -44 -21 -83 -11 -68 -1 -149 21 -171 16 -17 85
-34 135 -34 53 0 53 0 50 -42 -3 -40 -5 -43 -47 -58 -24 -8 -46 -20 -48 -26
-4 -12 39 -34 68 -34 24 0 33 -21 25 -55 -6 -25 -6 -25 -127 -24 -94 1 -124
-2 -136 -13 -12 -13 -11 -17 11 -31 18 -12 57 -18 153 -21 70 -3 187 -8 258
-11 127 -7 205 1 212 20 1 6 -1 17 -7 25 -7 11 -31 14 -119 12 -66 -2 -128 2
-152 9 -38 12 -40 14 -37 48 3 32 7 36 33 39 37 5 55 19 55 43 0 14 -12 22
-46 30 -44 11 -45 13 -38 43 8 39 19 46 71 46 36 0 48 6 91 48 45 43 50 53 57
107 6 54 5 61 -15 77 -32 26 -79 35 -240 47 -80 6 -157 13 -171 16 -16 4 -29
2 -36 -7z m156 -79 c21 -7 31 -18 31 -31 0 -18 -5 -19 -37 -14 -110 17 -109
17 -100 41 7 18 59 20 106 4z m215 -15 c9 -3 16 -15 16 -26 0 -19 -5 -20 -55
-16 -61 5 -70 10 -62 33 7 15 69 21 101 9z m-238 -94 c51 0 54 -1 54 -26 0
-25 -1 -26 -52 -19 -29 4 -60 12 -70 19 -23 14 -24 41 -2 32 9 -3 40 -6 70 -6z
m213 -16 c10 -10 -25 -24 -61 -24 -36 0 -50 15 -30 34 7 8 82 -1 91 -10z"/>
</g>
</svg>
