<svg version="1.0" xmlns="http://www.w3.org/2000/svg"
 width="68.000000pt" height="129.000000pt" viewBox="0 0 68.000000 129.000000"
 preserveAspectRatio="xMidYMid meet">
<metadata>
Created by potrace 1.15, written by Peter Selinger 2001-2017
</metadata>
<g transform="translate(0.000000,129.000000) scale(0.100000,-0.100000)"
fill="#000000" stroke="none">
<path d="M190 1174 c-56 -48 -68 -85 -69 -227 -1 -72 -4 -89 -17 -94 -25 -10
-46 25 -40 67 16 105 16 138 1 144 -9 3 -17 0 -20 -7 -27 -87 -28 -101 -12
-177 8 -40 19 -62 40 -81 28 -25 29 -29 33 -137 3 -62 1 -119 -4 -128 -23 -41
-64 84 -51 159 9 53 -27 81 -39 29 -12 -49 -13 -90 -3 -96 6 -4 11 -23 11 -42
0 -52 32 -104 63 -104 19 0 27 -81 30 -297 1 -89 5 -165 10 -169 4 -4 14 1 23
12 13 16 14 48 9 220 -3 111 -3 209 1 218 3 9 13 16 20 16 22 0 64 30 64 46 0
8 3 14 8 14 8 0 6 137 -3 180 -8 38 -25 39 -26 3 0 -16 -2 -57 -4 -91 -5 -82
-41 -142 -59 -97 -8 21 -9 221 -1 234 3 6 19 11 34 11 33 0 46 22 57 95 13 80
4 185 -15 185 -17 0 -31 -63 -31 -140 0 -63 -3 -79 -17 -84 -20 -8 -34 4 -34
30 1 70 14 183 24 204 7 14 30 41 52 61 34 32 37 39 26 53 -18 21 -24 20 -61
-10z"/>
<path d="M486 1169 c-68 -10 -90 -32 -93 -93 -1 -21 -4 -54 -8 -73 -5 -29 -8
-32 -25 -23 -17 9 -20 21 -20 75 0 57 -2 65 -19 65 -14 0 -20 -10 -24 -44 -10
-72 24 -156 63 -156 16 0 20 -7 20 -30 0 -21 -5 -30 -16 -30 -9 0 -28 -12 -43
-27 -30 -32 -26 14 -37 -494 -5 -225 -3 -298 6 -304 6 -4 16 -3 20 1 5 5 11
177 14 383 5 257 10 379 18 388 20 25 50 11 65 -31 20 -61 29 -66 98 -66 76 0
95 6 95 31 0 17 -8 19 -69 19 -72 0 -96 12 -89 47 2 13 18 20 58 27 66 11 66
11 50 32 -10 11 -27 15 -64 12 -45 -3 -51 -1 -51 17 0 18 8 20 72 23 113 5
109 14 117 -296 4 -141 5 -321 1 -400 -6 -142 -3 -182 16 -182 23 0 34 28 32
80 -1 30 -5 213 -8 405 -8 363 -7 361 -53 413 -17 19 -29 22 -102 22 -82 0
-82 0 -78 66 3 50 9 70 23 80 32 23 45 17 45 -22 0 -48 20 -65 83 -70 58 -6
83 5 73 31 -5 14 -14 16 -40 12 -57 -9 -78 1 -74 37 3 29 6 31 58 40 65 11 66
11 50 31 -14 17 -67 18 -164 4z"/>
<path d="M465 661 c-79 -6 -105 -14 -105 -31 0 -4 17 -11 39 -15 38 -6 38 -6
-5 -52 -24 -25 -44 -49 -44 -54 0 -19 32 -8 55 19 26 30 32 28 40 -14 5 -25
-2 -37 -45 -83 -27 -29 -50 -62 -50 -73 0 -18 1 -18 25 -1 13 10 25 21 25 25
0 14 44 58 57 58 27 0 13 -57 -28 -116 -23 -32 -46 -72 -51 -89 -18 -57 -25
-104 -17 -117 12 -19 29 2 40 52 13 56 56 150 69 150 12 0 12 -22 0 -75 -12
-53 -16 -172 -7 -181 4 -4 14 -1 22 7 10 10 16 48 19 133 3 65 7 121 10 123 2
3 2 11 0 18 -7 16 13 55 26 55 6 0 11 -48 11 -112 1 -124 9 -174 24 -167 9 4
10 46 6 262 -1 70 -3 77 -21 77 -11 0 -20 -4 -20 -10 0 -5 -6 -10 -14 -10 -13
0 -46 96 -46 134 0 27 25 46 63 46 19 0 40 7 47 15 10 12 8 16 -15 25 -14 5
-27 9 -28 8 -1 0 -38 -4 -82 -7z"/>
</g>
</svg>
