<svg version="1.0" xmlns="http://www.w3.org/2000/svg"
 width="62.000000pt" height="90.000000pt" viewBox="0 0 62.000000 90.000000"
 preserveAspectRatio="xMidYMid meet">
<metadata>
Created by potrace 1.15, written by Peter Selinger 2001-2017
</metadata>
<g transform="translate(0.000000,90.000000) scale(0.100000,-0.100000)"
fill="#000000" stroke="none">
<path d="M273 719 c-61 -35 -197 -165 -208 -198 -4 -13 -2 -28 6 -38 13 -15
70 -15 183 3 51 8 45 -17 -7 -29 -67 -16 -162 -70 -165 -94 -2 -13 -1 -23 1
-23 2 0 44 19 92 41 135 64 252 65 275 4 6 -15 13 -79 17 -143 7 -127 23 -197
44 -197 28 0 6 322 -27 387 -19 36 -30 42 -93 48 -30 3 -56 10 -58 16 -2 7 18
24 44 39 107 62 120 100 51 156 -48 39 -78 58 -93 58 -5 0 -33 -13 -62 -30z
m97 -59 c34 -33 38 -55 13 -64 -10 -4 -27 3 -47 21 -17 15 -35 31 -40 35 -11
9 11 38 30 38 7 0 27 -13 44 -30z m-82 -64 c37 -34 37 -34 9 -47 -25 -12 -30
-10 -63 22 -32 31 -33 35 -17 46 24 18 29 17 71 -21z m-94 -48 c20 -29 12 -38
-35 -38 -44 0 -45 1 -23 35 20 31 38 32 58 3z"/>
<path d="M270 385 c0 -15 -49 -45 -74 -45 -24 0 -66 -63 -66 -98 0 -23 7 -36
26 -49 24 -15 29 -15 53 -2 35 20 35 45 -2 41 -62 -6 -36 61 29 74 30 6 31 5
26 -25 -2 -17 1 -37 7 -45 17 -21 4 -42 -39 -61 -52 -23 -77 -52 -85 -97 -12
-66 35 -70 140 -14 48 26 72 28 118 10 15 -5 18 -3 15 16 -2 15 -15 27 -40 37
-35 14 -40 13 -103 -16 -36 -17 -71 -31 -76 -31 -18 0 -8 19 22 42 71 53 89
76 89 110 0 19 -7 43 -15 54 -22 29 -18 34 23 34 61 0 82 -39 42 -75 -27 -24
-25 -35 5 -35 48 0 78 54 59 105 -7 17 -65 45 -96 45 -11 0 -22 9 -25 20 -6
23 -33 27 -33 5z"/>
</g>
</svg>
