<svg version="1.0" xmlns="http://www.w3.org/2000/svg"
 width="45.000000pt" height="57.000000pt" viewBox="0 0 45.000000 57.000000"
 preserveAspectRatio="xMidYMid meet">
<metadata>
Created by potrace 1.15, written by Peter Selinger 2001-2017
</metadata>
<g transform="translate(0.000000,57.000000) scale(0.100000,-0.100000)"
fill="#000000" stroke="none">
<path d="M383 400 c-9 -16 -24 -30 -33 -31 -8 0 -37 -2 -65 -2 -84 -3 -152
-60 -154 -128 -1 -38 18 -51 60 -39 18 6 58 10 86 10 53 0 53 0 53 -60 0 -70
-9 -78 -92 -82 -40 -2 -60 3 -80 17 -36 28 -58 85 -51 130 5 33 4 37 -13 33
-33 -6 -36 -80 -6 -140 33 -66 68 -81 174 -76 106 4 110 10 114 140 4 114 9
148 30 195 28 61 10 88 -23 33z m-107 -84 c19 -20 18 -66 -2 -66 -21 0 -44 25
-44 48 0 34 21 42 46 18z m74 -6 c0 -11 -7 -20 -15 -20 -8 0 -15 9 -15 20 0
11 7 20 15 20 8 0 15 -9 15 -20z m-152 -58 c2 -7 -4 -15 -13 -18 -20 -8 -27
-1 -19 20 7 18 25 17 32 -2z"/>
</g>
</svg>
