<svg version="1.0" xmlns="http://www.w3.org/2000/svg"
 width="59.000000pt" height="193.000000pt" viewBox="0 0 59.000000 193.000000"
 preserveAspectRatio="xMidYMid meet">
<metadata>
Created by potrace 1.15, written by Peter Selinger 2001-2017
</metadata>
<g transform="translate(0.000000,193.000000) scale(0.100000,-0.100000)"
fill="#000000" stroke="none">
<path d="M150 1847 c0 -10 8 -45 17 -78 12 -44 23 -64 40 -72 24 -10 39 -40
28 -56 -3 -5 -1 -12 5 -16 19 -12 10 -23 -25 -29 -40 -8 -71 5 -80 34 -4 11
-10 18 -14 16 -4 -3 -20 7 -35 21 -15 14 -30 23 -33 20 -8 -9 16 -73 38 -101
27 -34 111 -61 147 -48 86 34 173 17 214 -41 32 -45 29 -167 -6 -239 -44 -91
-80 -149 -118 -190 -22 -24 -51 -76 -74 -131 -33 -80 -38 -105 -41 -192 -4
-96 -3 -103 32 -189 41 -103 64 -209 59 -281 -6 -88 -13 -159 -20 -192 -5 -27
-3 -33 10 -33 9 0 16 8 16 20 0 11 9 34 20 52 11 18 20 48 20 66 0 18 4 40 9
50 15 28 36 106 32 117 -2 6 -4 15 -5 20 -6 29 -18 55 -26 55 -12 0 -85 158
-100 217 -11 44 -11 66 0 134 7 45 21 105 31 133 11 28 19 52 19 53 0 2 9 3
20 3 28 0 72 21 93 45 18 20 19 59 3 96 -4 10 4 28 24 50 16 19 32 42 36 52 3
9 9 17 15 17 5 0 14 20 20 45 6 25 15 48 20 51 5 3 9 39 9 81 0 70 -3 79 -32
119 -21 28 -52 53 -85 69 -56 27 -71 41 -56 56 7 7 3 30 -9 66 -10 31 -18 61
-18 68 0 14 -37 55 -50 55 -13 0 -13 -34 1 -80 19 -63 -3 -110 -35 -77 -13 13
-56 102 -56 115 0 5 -13 21 -30 37 -24 23 -30 25 -30 12z"/>
</g>
</svg>
