<svg version="1.0" xmlns="http://www.w3.org/2000/svg"
 width="111.000000pt" height="107.000000pt" viewBox="0 0 111.000000 107.000000"
 preserveAspectRatio="xMidYMid meet">
<metadata>
Created by potrace 1.15, written by Peter Selinger 2001-2017
</metadata>
<g transform="translate(0.000000,107.000000) scale(0.100000,-0.100000)"
fill="#000000" stroke="none">
<path d="M240 1009 c0 -6 25 -33 55 -61 59 -54 101 -106 92 -115 -3 -3 -19 -6
-34 -8 -80 -7 -144 -18 -149 -26 -3 -5 -18 -9 -33 -9 -37 0 -44 -10 -25 -31
14 -16 30 -17 140 -12 124 6 124 6 124 -18 0 -13 -9 -35 -20 -49 -13 -18 -16
-28 -8 -37 7 -9 7 -13 0 -13 -5 0 -32 -15 -59 -34 -26 -18 -58 -36 -71 -40
-32 -11 -27 -24 13 -35 29 -8 45 -6 85 11 28 11 50 24 50 27 0 4 20 29 45 56
27 29 45 56 44 69 -5 58 -1 64 47 72 43 6 134 -3 248 -24 38 -7 57 -18 82 -46
31 -34 33 -41 27 -84 -8 -59 -31 -81 -133 -125 -55 -24 -123 -47 -142 -47 -9
0 -33 -9 -53 -21 -19 -12 -42 -18 -51 -15 -20 8 -89 -46 -109 -85 -19 -36 -19
-112 -1 -147 30 -59 116 -95 251 -107 58 -5 337 -9 383 -6 8 1 12 11 10 28 -4
36 -28 41 -253 52 -247 13 -292 24 -324 77 -15 25 -16 32 -3 57 18 37 151 106
207 107 42 1 154 47 189 78 20 17 47 34 59 37 25 7 67 77 67 112 0 12 6 24 13
27 9 5 9 7 -1 12 -7 3 -24 28 -38 55 -14 28 -31 52 -39 56 -8 3 -15 12 -15 20
0 8 -4 11 -10 8 -5 -3 -31 2 -57 11 -79 27 -183 44 -275 44 -86 0 -86 0 -97
33 -14 42 -49 75 -125 121 -59 35 -106 46 -106 25z"/>
</g>
</svg>
