<svg version="1.0" xmlns="http://www.w3.org/2000/svg"
 width="99.000000pt" height="97.000000pt" viewBox="0 0 99.000000 97.000000"
 preserveAspectRatio="xMidYMid meet">
<metadata>
Created by potrace 1.15, written by Peter Selinger 2001-2017
</metadata>
<g transform="translate(0.000000,97.000000) scale(0.100000,-0.100000)"
fill="#000000" stroke="none">
<path d="M105 780 c-9 -14 40 -56 97 -84 57 -28 128 -81 128 -97 0 -5 -42 -9
-92 -9 -111 0 -133 -9 -101 -41 19 -19 33 -22 112 -22 80 -1 91 -3 91 -19 0
-21 -43 -66 -79 -80 -14 -6 -55 -12 -90 -14 -35 -2 -66 -6 -70 -9 -3 -4 4 -15
16 -24 17 -14 35 -17 80 -14 32 2 62 8 68 14 5 5 15 9 22 9 25 0 81 44 104 82
13 21 29 38 34 38 20 0 110 -48 128 -68 14 -16 20 -41 23 -109 8 -191 23 -229
113 -277 43 -23 65 -28 118 -28 77 1 123 17 123 43 0 17 -8 19 -85 19 -93 0
-113 7 -162 59 -35 36 -35 35 -33 183 1 51 -3 89 -9 93 -6 3 -11 15 -11 25 0
40 -100 105 -190 124 -18 4 -30 16 -38 39 -12 34 -56 79 -103 106 -84 50 -182
81 -194 61z"/>
</g>
</svg>
