<svg version="1.0" xmlns="http://www.w3.org/2000/svg"
 width="41.000000pt" height="89.000000pt" viewBox="0 0 41.000000 89.000000"
 preserveAspectRatio="xMidYMid meet">
<metadata>
Created by potrace 1.15, written by Peter Selinger 2001-2017
</metadata>
<g transform="translate(0.000000,89.000000) scale(0.100000,-0.100000)"
fill="#000000" stroke="none">
<path d="M234 590 c-18 -45 -39 -51 -72 -20 -20 19 -52 27 -52 14 0 -11 23
-49 47 -78 26 -31 24 -55 -8 -90 -21 -22 -22 -27 -13 -50 10 -26 41 -18 61 14
20 34 32 34 44 2 7 -18 -3 -34 -66 -102 -41 -44 -75 -88 -75 -97 0 -10 23 -40
51 -68 28 -27 55 -58 60 -67 8 -14 14 -15 33 -7 17 8 26 25 34 61 23 98 6 169
-18 76 -16 -62 -18 -68 -29 -68 -13 0 -61 59 -61 75 0 7 23 36 50 65 28 28 60
67 70 86 20 34 20 34 -3 87 -22 50 -25 87 -7 87 19 0 23 69 6 95 -23 35 -34
31 -52 -15z"/>
</g>
</svg>
