<svg version="1.0" xmlns="http://www.w3.org/2000/svg"
 width="63.000000pt" height="82.000000pt" viewBox="0 0 63.000000 82.000000"
 preserveAspectRatio="xMidYMid meet">
<metadata>
Created by potrace 1.15, written by Peter Selinger 2001-2017
</metadata>
<g transform="translate(0.000000,82.000000) scale(0.100000,-0.100000)"
fill="#000000" stroke="none">
<path d="M465 691 c-6 -5 -84 -15 -175 -21 -163 -12 -189 -17 -175 -40 5 -8
55 -9 181 -4 108 4 174 3 174 -3 0 -26 -28 -33 -141 -33 -114 0 -211 -14 -236
-33 -7 -5 -13 -25 -13 -43 0 -25 7 -38 25 -50 21 -14 39 -15 137 -6 120 10
233 4 233 -13 0 -5 -36 -13 -80 -17 -207 -20 -248 -27 -272 -50 -36 -34 -46
-89 -40 -222 5 -119 13 -144 41 -133 14 5 16 29 16 156 0 150 0 150 31 172 29
20 48 23 186 28 170 7 173 8 173 72 0 59 -11 63 -178 55 -81 -4 -160 -8 -176
-9 -44 -3 -43 20 1 32 21 5 101 14 177 19 116 8 142 12 153 28 13 18 18 80 7
108 -7 18 -35 21 -49 7z"/>
<path d="M305 334 c-22 -8 -55 -20 -72 -26 -18 -6 -40 -19 -49 -29 -28 -32 7
-34 78 -6 34 14 66 23 70 21 4 -3 8 -18 8 -35 0 -27 -2 -29 -42 -30 -82 -1
-133 -13 -136 -31 -3 -15 5 -18 52 -18 30 0 57 -4 60 -9 9 -13 -33 -61 -54
-61 -9 0 -23 -6 -29 -14 -18 -21 3 -29 55 -21 49 7 74 33 74 77 0 25 3 28 35
28 33 0 35 -2 35 -35 0 -54 29 -77 93 -73 45 3 52 6 55 26 3 20 -1 22 -35 22
-44 0 -63 14 -63 47 0 20 5 22 58 25 51 3 57 5 60 27 4 23 3 23 -80 20 -83 -4
-83 -4 -86 29 -4 38 3 39 63 11 46 -22 76 -22 83 -1 5 16 -90 58 -149 66 -29
4 -58 1 -84 -10z"/>
</g>
</svg>
