<svg version="1.0" xmlns="http://www.w3.org/2000/svg"
 width="71.000000pt" height="90.000000pt" viewBox="0 0 71.000000 90.000000"
 preserveAspectRatio="xMidYMid meet">
<metadata>
Created by potrace 1.15, written by Peter Selinger 2001-2017
</metadata>
<g transform="translate(0.000000,90.000000) scale(0.100000,-0.100000)"
fill="#000000" stroke="none">
<path d="M161 697 c-6 -6 -11 -21 -11 -34 0 -18 -6 -23 -26 -23 -36 0 -29 -34
9 -38 46 -6 32 -45 -21 -57 -40 -8 -37 -29 6 -33 31 -3 31 -3 -8 -80 -44 -85
-48 -105 -22 -100 9 2 36 36 59 76 41 73 41 73 48 34 7 -44 29 -81 41 -70 4 4
1 35 -6 68 -12 55 -11 62 5 80 17 19 17 20 -9 29 -33 13 -36 48 -4 53 31 4 34
26 4 34 -20 5 -26 12 -26 34 0 30 -21 45 -39 27z"/>
<path d="M342 623 c-24 -27 -24 -27 -42 -4 -11 15 -22 21 -30 16 -19 -11 -8
-156 14 -189 22 -34 58 -34 86 1 18 23 20 38 18 112 -2 46 -7 86 -13 87 -5 2
-21 -8 -33 -23z m6 -87 c4 -46 -10 -65 -33 -46 -9 7 -15 29 -15 52 0 35 2 39
23 36 18 -2 23 -10 25 -42z"/>
<path d="M458 577 c-25 -7 -50 -15 -53 -19 -12 -12 37 -19 110 -16 62 3 70 5
70 23 0 16 -7 20 -40 22 -22 0 -61 -4 -87 -10z"/>
<path d="M460 436 c-71 -12 -90 -37 -35 -46 39 -7 59 -58 58 -150 0 -59 -4
-73 -42 -134 -22 -37 -41 -72 -41 -77 0 -32 77 33 128 108 25 35 28 87 11 179
-6 32 -12 63 -12 68 -1 5 10 9 25 10 34 2 53 19 45 40 -7 19 -41 19 -137 2z"/>
<path d="M210 315 c-20 -32 -40 -46 -40 -27 0 5 -6 17 -14 27 -13 18 -14 17
-31 -15 -34 -65 9 -190 73 -211 45 -15 110 -6 134 19 20 20 55 199 44 227 -10
26 -36 17 -42 -15 -4 -16 -10 -30 -15 -30 -5 0 -18 14 -31 30 -29 39 -51 38
-78 -5z m79 -54 c39 -32 35 -51 -12 -51 -18 0 -42 -3 -54 -6 -41 -11 -24 -24
32 -24 40 0 55 -4 55 -14 0 -18 -19 -32 -55 -40 -42 -9 -65 11 -72 62 -5 38
-2 47 22 73 35 36 41 36 84 0z"/>
</g>
</svg>
