<svg version="1.0" xmlns="http://www.w3.org/2000/svg"
 width="62.000000pt" height="81.000000pt" viewBox="0 0 62.000000 81.000000"
 preserveAspectRatio="xMidYMid meet">
<metadata>
Created by potrace 1.15, written by Peter Selinger 2001-2017
</metadata>
<g transform="translate(0.000000,81.000000) scale(0.100000,-0.100000)"
fill="#000000" stroke="none">
<path d="M277 763 c-2 -5 -7 -20 -11 -34 -3 -15 -22 -43 -41 -62 -34 -34 -35
-37 -35 -111 0 -69 3 -80 26 -102 21 -22 31 -25 62 -20 22 4 48 19 65 37 24
26 27 37 27 98 0 65 -2 71 -30 94 -18 16 -30 35 -30 51 0 43 -20 72 -33 49z
m38 -113 c23 -25 17 -31 -40 -37 -50 -6 -55 0 -23 34 26 28 40 29 63 3z m25
-92 c0 -22 -4 -23 -55 -20 -46 3 -55 7 -55 23 0 16 8 19 55 19 50 0 55 -2 55
-22z m-20 -68 c-16 -29 -60 -38 -77 -15 -21 30 -16 35 37 35 48 0 50 -1 40
-20z"/>
<path d="M477 690 c-7 -18 -25 -36 -44 -45 -18 -9 -33 -20 -33 -25 0 -13 16
-13 41 0 33 18 23 -25 -13 -54 -34 -26 -34 -45 0 -27 30 16 42 14 42 -8 0 -18
-36 -54 -63 -64 -7 -2 -9 -8 -5 -12 12 -13 79 18 100 46 18 24 18 31 7 87 -10
47 -10 67 -1 87 16 35 15 45 -4 45 -9 0 -21 -13 -27 -30z"/>
<path d="M83 633 c0 -37 -3 -89 -8 -115 -7 -42 -5 -49 18 -72 15 -14 38 -26
52 -26 29 0 33 16 6 25 -27 8 -44 32 -37 50 4 12 10 13 31 3 37 -17 43 -2 12
30 -35 36 -35 62 -2 62 30 0 32 14 7 32 -10 7 -25 26 -33 43 -8 16 -21 31 -30
33 -14 2 -16 -8 -16 -65z"/>
<path d="M348 418 c-2 -13 -13 -27 -25 -33 -29 -12 -29 -23 -1 -27 12 -2 23
-9 26 -16 3 -10 -5 -13 -29 -10 -28 2 -35 8 -37 28 -4 29 -29 60 -49 60 -16 0
-16 -2 5 -65 17 -50 17 -50 70 -53 52 -3 52 -3 52 -43 0 -39 13 -52 24 -23 3
9 6 27 6 41 0 25 2 25 43 20 24 -3 51 -9 60 -13 12 -4 17 -1 17 10 0 15 -10
19 -82 31 -21 3 -38 9 -38 14 0 9 45 31 65 31 8 0 15 5 15 10 0 6 -12 10 -27
10 -33 0 -47 9 -56 33 -9 24 -35 21 -39 -5z"/>
<path d="M127 374 c-4 -4 -7 -17 -7 -29 0 -12 -11 -32 -25 -45 -14 -13 -25
-27 -25 -32 0 -17 29 -7 60 22 23 22 31 36 28 56 -3 27 -18 41 -31 28z"/>
<path d="M200 271 c0 -6 4 -12 9 -16 6 -3 13 -26 17 -51 4 -26 17 -58 31 -75
23 -27 30 -29 92 -29 87 0 123 -13 156 -56 29 -38 45 -43 45 -15 0 49 -78 110
-142 111 -40 0 -7 38 55 63 20 9 37 21 37 26 0 14 3 14 -66 -9 -58 -20 -58
-20 -86 0 -45 33 -68 21 -28 -15 11 -10 20 -29 20 -42 0 -19 -5 -23 -29 -23
-31 0 -41 14 -41 59 0 32 -34 81 -56 81 -8 0 -14 -4 -14 -9z"/>
<path d="M98 230 c-55 -46 -50 -83 5 -40 14 11 28 20 32 20 11 0 -5 -72 -22
-99 -18 -27 -3 -52 19 -33 21 17 50 107 46 144 -4 45 -32 47 -80 8z"/>
</g>
</svg>
