<svg version="1.0" xmlns="http://www.w3.org/2000/svg"
 width="63.000000pt" height="149.000000pt" viewBox="0 0 63.000000 149.000000"
 preserveAspectRatio="xMidYMid meet">
<metadata>
Created by potrace 1.15, written by Peter Selinger 2001-2017
</metadata>
<g transform="translate(0.000000,149.000000) scale(0.100000,-0.100000)"
fill="#000000" stroke="none">
<path d="M197 1224 c-4 -4 -7 -17 -7 -29 0 -26 -39 -148 -49 -155 -22 -15 -81
-119 -81 -142 0 -45 14 -39 45 17 31 59 53 75 61 47 18 -56 45 -91 72 -92 17
0 15 20 -9 69 -28 59 -22 97 20 130 34 26 34 26 26 -17 -9 -54 -10 -231 -1
-239 4 -4 14 0 22 9 12 11 19 50 26 139 5 68 14 128 19 134 14 15 11 105 -5
121 -22 21 -33 17 -39 -15 -6 -27 -62 -91 -79 -91 -11 0 -10 18 2 25 6 3 10
19 10 34 0 30 -21 66 -33 55z"/>
<path d="M395 856 c-35 -20 -44 -33 -38 -55 3 -12 -5 -41 -21 -71 -14 -27 -26
-56 -26 -65 0 -22 30 -18 57 7 13 12 25 20 27 17 2 -2 6 -29 9 -60 6 -47 4
-59 -14 -77 -20 -22 -59 -30 -59 -12 0 6 -6 10 -13 10 -6 0 -47 32 -90 71 -54
50 -77 78 -77 94 0 36 16 38 30 4 7 -16 18 -28 24 -26 18 7 7 72 -20 121 -41
73 -58 49 -70 -100 -6 -66 -5 -68 56 -114 86 -64 120 -95 120 -108 0 -5 -25
-22 -55 -37 -30 -14 -55 -30 -55 -34 0 -4 -9 -18 -20 -31 -60 -69 -47 -234 22
-271 15 -8 23 -4 43 18 13 15 25 37 25 49 0 11 4 24 10 30 12 12 -2 110 -15
107 -6 -1 -13 -17 -17 -35 -21 -101 -25 -105 -57 -59 -26 37 -26 61 -1 94 11
14 20 27 20 30 0 3 20 26 44 51 36 38 50 46 80 46 30 0 39 -5 56 -32 10 -18
23 -38 29 -44 15 -18 41 -114 41 -153 0 -36 0 -36 -23 4 -14 25 -31 41 -45 43
-12 2 -22 1 -22 -1 0 -20 36 -80 69 -116 34 -38 42 -42 56 -31 10 8 15 30 15
66 0 100 -33 206 -81 257 -26 28 -24 38 11 72 28 27 30 34 30 101 0 43 -6 87
-16 110 -10 25 -14 55 -11 87 5 53 1 60 -28 43z"/>
</g>
</svg>
