<svg version="1.0" xmlns="http://www.w3.org/2000/svg"
 width="75.000000pt" height="89.000000pt" viewBox="0 0 75.000000 89.000000"
 preserveAspectRatio="xMidYMid meet">
<metadata>
Created by potrace 1.15, written by Peter Selinger 2001-2017
</metadata>
<g transform="translate(0.000000,89.000000) scale(0.100000,-0.100000)"
fill="#000000" stroke="none">
<path d="M177 686 c-3 -8 -3 -46 0 -84 4 -49 2 -71 -7 -77 -18 -11 -33 10 -39
57 -5 34 -10 43 -26 43 -11 0 -21 -8 -23 -18 -6 -28 21 -109 38 -115 53 -18
68 -79 25 -102 -14 -7 -31 -23 -38 -34 -16 -25 -36 -128 -40 -206 -2 -49 0
-55 18 -55 18 0 21 11 33 115 12 112 27 151 51 136 7 -5 9 -53 4 -157 -6 -147
-6 -149 15 -149 31 0 37 31 34 177 -3 128 2 150 26 121 9 -12 23 -115 26 -197
2 -39 17 -49 36 -26 9 11 11 43 8 119 -6 114 -19 146 -68 166 -17 7 -30 18
-30 24 0 6 18 27 40 46 39 33 41 38 43 95 2 48 -1 60 -13 60 -10 0 -17 -14
-21 -42 -5 -40 -23 -73 -40 -73 -4 0 -10 42 -11 92 -2 76 -6 93 -19 96 -9 2
-19 -4 -22 -12z"/>
<path d="M459 659 c-16 -16 -20 -29 -15 -57 12 -85 12 -87 -9 -87 -15 0 -21 8
-23 33 -4 40 -29 43 -37 5 -3 -16 -13 -53 -22 -84 -18 -65 -11 -90 17 -64 10
9 21 27 24 40 6 24 31 39 47 29 13 -8 10 -45 -6 -74 -19 -33 -19 -50 0 -50 14
0 33 33 64 113 7 19 17 27 29 25 19 -4 21 -35 7 -103 -8 -38 -7 -39 10 -25 10
8 24 29 31 47 18 43 30 168 16 176 -12 8 -29 -11 -34 -38 -2 -13 -12 -21 -30
-23 -24 -3 -28 1 -33 31 -12 61 -5 72 43 69 35 -2 42 1 42 16 0 28 -21 42 -62
42 -25 0 -45 -7 -59 -21z"/>
<path d="M364 306 c-3 -8 -2 -55 3 -103 8 -88 8 -88 54 -97 25 -5 67 -6 93 -2
39 6 51 13 67 39 24 40 26 134 4 163 -15 19 -16 19 -31 -3 -14 -20 -25 -23
-80 -23 -53 0 -65 3 -74 20 -13 23 -28 26 -36 6z m181 -103 c-8 -46 -18 -53
-72 -53 -46 0 -63 17 -63 64 0 25 1 26 71 26 71 0 71 0 64 -37z"/>
</g>
</svg>
