<svg version="1.0" xmlns="http://www.w3.org/2000/svg"
 width="73.000000pt" height="211.000000pt" viewBox="0 0 73.000000 211.000000"
 preserveAspectRatio="xMidYMid meet">
<metadata>
Created by potrace 1.15, written by Peter Selinger 2001-2017
</metadata>
<g transform="translate(0.000000,211.000000) scale(0.100000,-0.100000)"
fill="#000000" stroke="none">
<path d="M310 1930 c0 -11 3 -20 8 -20 15 0 32 -56 32 -104 0 -41 -27 -162
-29 -133 -1 4 -14 1 -31 -8 -29 -15 -95 -20 -124 -9 -10 4 -16 19 -16 43 -1
74 -45 201 -70 201 -12 0 -13 -32 -2 -45 12 -14 32 -88 32 -119 0 -15 -7 -50
-16 -77 -12 -35 -15 -70 -12 -113 5 -54 10 -69 38 -100 28 -31 39 -36 77 -36
48 0 133 35 133 55 0 14 -36 9 -46 -6 -3 -5 -30 -9 -60 -9 -48 0 -60 4 -85 29
-29 29 -37 51 -20 51 5 0 11 -5 13 -11 5 -15 146 -13 164 2 8 7 13 14 10 16
-2 2 -38 6 -79 8 -80 4 -117 19 -117 46 0 22 26 44 35 29 10 -16 65 -12 121 9
51 18 51 18 57 -46 4 -50 10 -68 28 -84 18 -16 22 -28 20 -62 -3 -49 -6 -54
-25 -38 -8 7 -23 11 -33 9 -15 -3 -12 -10 20 -40 26 -25 37 -44 37 -65 0 -37
19 -93 31 -93 5 0 8 54 8 121 -1 79 2 124 10 132 6 6 11 22 11 35 0 13 4 31
10 41 14 27 -4 79 -41 117 -29 30 -31 36 -25 78 4 25 9 46 12 46 2 0 23 -11
45 -26 74 -46 111 -65 118 -59 7 7 -48 55 -63 55 -11 0 -115 111 -116 123 0
12 -44 77 -52 77 -5 0 -8 -9 -8 -20z m85 -320 c12 -23 12 -35 2 -71 -13 -44
-13 -44 -30 -12 -17 33 -22 79 -11 107 8 20 20 12 39 -24z"/>
<path d="M678 1938 c-55 -46 -96 -147 -80 -203 12 -42 -6 -71 -60 -97 -27 -13
-48 -26 -48 -30 0 -16 76 5 107 28 31 24 32 24 43 5 5 -11 10 -25 10 -31 0
-30 -67 -60 -131 -60 -22 0 -39 -4 -39 -10 0 -14 116 -13 142 1 29 16 39 -1
22 -38 -22 -44 -82 -57 -136 -29 -38 20 -45 2 -9 -23 20 -15 44 -21 81 -21 66
0 102 24 119 81 13 44 11 56 -29 144 -25 54 -40 104 -40 128 0 29 38 107 68
140 19 19 22 27 11 27 -8 0 -22 -6 -31 -12z"/>
<path d="M549 1350 c0 -8 0 -75 1 -147 1 -109 -1 -133 -13 -133 -26 0 -53 45
-78 130 -18 63 -29 71 -29 22 0 -78 51 -175 102 -194 18 -7 22 -48 38 -393 16
-335 30 -538 39 -575 8 -35 8 -35 16 15 4 28 4 90 -2 140 -8 78 -12 180 -18
570 -1 39 -5 107 -10 152 -8 82 -8 82 22 107 47 39 56 74 51 180 -7 138 -22
142 -28 9 -4 -100 -8 -115 -27 -135 -23 -22 -23 -22 -23 59 0 81 -16 179 -32
198 -5 5 -8 3 -9 -5z"/>
<path d="M110 1257 c0 -106 17 -162 60 -201 35 -32 35 -32 36 -504 1 -425 3
-496 18 -481 3 3 7 119 10 259 7 352 16 619 22 656 3 19 16 40 35 55 17 13 37
36 45 51 16 31 20 168 4 168 -5 0 -10 -17 -10 -39 0 -50 -18 -101 -44 -124
-21 -19 -21 -18 -28 25 -3 23 -7 80 -7 126 -1 83 -13 108 -25 51 -3 -17 -6
-76 -6 -130 0 -56 -4 -99 -9 -99 -6 0 -21 15 -35 33 -21 27 -26 45 -26 89 0
54 -14 114 -31 133 -5 5 -9 -24 -9 -68z"/>
<path d="M306 982 c-2 -4 -1 -14 4 -22 7 -12 29 -14 96 -13 48 2 89 5 92 8 3
2 -1 11 -8 20 -9 11 -33 15 -96 15 -45 0 -85 -4 -88 -8z"/>
<path d="M300 860 c0 -19 37 -26 114 -21 50 4 81 11 84 19 3 9 -21 12 -97 12
-58 0 -101 -4 -101 -10z"/>
</g>
</svg>
