<svg version="1.0" xmlns="http://www.w3.org/2000/svg"
 width="85.000000pt" height="141.000000pt" viewBox="0 0 85.000000 141.000000"
 preserveAspectRatio="xMidYMid meet">
<metadata>
Created by potrace 1.15, written by Peter Selinger 2001-2017
</metadata>
<g transform="translate(0.000000,141.000000) scale(0.100000,-0.100000)"
fill="#000000" stroke="none">
<path d="M605 1344 c-194 -31 -222 -35 -277 -46 -56 -10 -73 -27 -46 -44 13
-8 122 -7 150 2 17 5 18 -2 18 -91 0 -107 0 -107 -92 -121 -40 -7 -41 -6 -35
17 6 25 -24 89 -41 89 -14 0 -44 -131 -49 -210 -3 -55 0 -80 10 -94 14 -19 16
-17 36 29 12 27 24 59 27 71 4 16 20 26 62 39 31 9 63 19 69 22 8 2 17 -7 23
-24 5 -15 15 -36 20 -45 26 -45 -2 -87 -104 -157 -12 -8 -23 -18 -26 -21 -3
-3 -21 -17 -40 -30 -19 -14 -43 -32 -54 -41 -10 -10 -31 -23 -47 -29 -37 -16
-37 -35 -1 -54 27 -14 30 -13 63 15 19 16 40 29 47 29 6 0 12 4 12 9 0 5 8 12
19 16 10 3 31 17 47 30 16 14 34 25 39 25 6 0 23 11 39 25 23 20 32 23 44 13
18 -16 12 -88 -13 -143 -18 -39 -101 -135 -117 -135 -21 0 -136 -131 -166
-187 -50 -96 -48 -233 3 -233 12 0 25 63 25 126 0 66 87 188 180 254 79 56
130 111 147 158 25 74 20 168 -17 277 -30 89 -34 113 -34 210 -1 140 10 167
74 177 104 18 123 24 134 41 9 15 7 21 -8 33 -11 8 -22 13 -25 13 -3 -1 -46
-8 -96 -15z"/>
<path d="M415 180 c3 -5 8 -10 11 -10 2 0 4 5 4 10 0 6 -5 10 -11 10 -5 0 -7
-4 -4 -10z"/>
</g>
</svg>
