<svg version="1.0" xmlns="http://www.w3.org/2000/svg"
 width="67.000000pt" height="85.000000pt" viewBox="0 0 67.000000 85.000000"
 preserveAspectRatio="xMidYMid meet">
<metadata>
Created by potrace 1.15, written by Peter Selinger 2001-2017
</metadata>
<g transform="translate(0.000000,85.000000) scale(0.100000,-0.100000)"
fill="#000000" stroke="none">
<path d="M350 720 c-36 -4 -107 -11 -157 -15 -80 -7 -93 -10 -93 -26 0 -23 45
-32 136 -27 58 2 69 0 72 -14 2 -12 -21 -33 -80 -72 -97 -64 -131 -93 -125
-109 8 -25 36 -16 88 26 30 24 78 56 106 71 48 24 53 25 69 9 15 -16 8 -24
-104 -132 -135 -129 -148 -147 -178 -239 -17 -52 -19 -65 -7 -69 14 -5 53 23
53 38 0 25 57 126 97 171 54 62 80 78 94 57 15 -24 10 -134 -12 -241 -11 -57
-21 -110 -22 -118 -3 -26 26 -16 45 16 27 46 61 220 53 271 -6 40 -5 43 17 43
38 0 67 -28 97 -93 34 -75 59 -99 105 -101 47 -1 47 15 0 39 -28 15 -40 29
-46 55 -5 19 -13 44 -18 55 -5 11 -14 32 -20 48 -12 33 -49 49 -103 45 -60 -5
-69 18 -29 73 18 24 32 55 32 70 0 26 -29 72 -60 96 -8 6 -13 14 -10 17 3 3
47 8 98 12 96 7 112 14 92 39 -13 16 -74 18 -190 5z"/>
</g>
</svg>
