<svg version="1.0" xmlns="http://www.w3.org/2000/svg"
 width="71.000000pt" height="93.000000pt" viewBox="0 0 71.000000 93.000000"
 preserveAspectRatio="xMidYMid meet">
<metadata>
Created by potrace 1.15, written by Peter Selinger 2001-2017
</metadata>
<g transform="translate(0.000000,93.000000) scale(0.100000,-0.100000)"
fill="#000000" stroke="none">
<path d="M324 800 c-5 -5 -45 -10 -89 -11 -77 -2 -125 -13 -125 -30 0 -14 73
-29 146 -29 70 0 70 0 80 -76 9 -75 9 -76 -16 -89 -34 -17 -156 -39 -170 -30
-6 4 -8 15 -5 25 4 12 -3 29 -16 44 -28 32 -47 34 -43 4 2 -13 6 -50 8 -83 10
-128 20 -190 34 -204 13 -13 16 -13 28 4 10 14 12 36 8 80 -6 57 -5 61 17 72
13 7 41 14 62 17 20 3 52 9 71 12 33 6 33 6 38 -58 8 -90 -11 -124 -122 -221
-29 -25 -25 -37 13 -37 24 0 43 11 77 43 57 52 90 99 90 125 0 58 23 66 69 23
43 -40 43 -104 1 -178 -16 -28 -34 -54 -40 -58 -17 -10 -12 -75 5 -75 22 0 64
51 65 78 0 12 5 22 10 22 6 0 10 8 10 19 0 10 9 29 19 43 27 34 26 111 -2 153
-12 18 -38 40 -58 49 -55 24 -67 44 -80 131 -24 165 -24 165 89 165 65 0 93 4
101 14 10 11 7 17 -11 30 -17 12 -47 16 -125 16 -57 0 -105 4 -108 10 -8 13
-18 13 -31 0z"/>
</g>
</svg>
