<svg version="1.0" xmlns="http://www.w3.org/2000/svg"
 width="39.000000pt" height="95.000000pt" viewBox="0 0 39.000000 95.000000"
 preserveAspectRatio="xMidYMid meet">
<metadata>
Created by potrace 1.15, written by Peter Selinger 2001-2017
</metadata>
<g transform="translate(0.000000,95.000000) scale(0.100000,-0.100000)"
fill="#000000" stroke="none">
<path d="M180 830 c-19 -4 -52 -11 -72 -14 -29 -5 -38 -12 -38 -26 0 -18 7
-20 58 -20 52 0 58 -2 70 -27 18 -40 15 -90 -5 -98 -12 -4 -22 0 -28 10 -24
41 -75 81 -87 70 -2 -2 -3 -26 -1 -52 8 -140 27 -199 58 -173 8 7 15 19 15 28
0 19 38 52 62 52 12 0 18 -8 19 -22 0 -13 3 -35 5 -50 8 -47 -57 -137 -127
-176 -26 -14 -35 -26 -37 -50 -3 -28 0 -32 34 -41 20 -6 40 -8 44 -6 4 3 10
22 14 42 6 37 45 93 65 93 6 0 8 -13 5 -32 -15 -86 -37 -176 -51 -206 -11 -23
-13 -36 -5 -44 19 -19 67 42 91 119 37 120 38 269 4 541 -4 34 -2 42 11 42 22
0 33 30 15 41 -17 10 -70 10 -119 -1z"/>
</g>
</svg>
