<svg version="1.0" xmlns="http://www.w3.org/2000/svg"
 width="87.000000pt" height="133.000000pt" viewBox="0 0 87.000000 133.000000"
 preserveAspectRatio="xMidYMid meet">
<metadata>
Created by potrace 1.15, written by Peter Selinger 2001-2017
</metadata>
<g transform="translate(0.000000,133.000000) scale(0.100000,-0.100000)"
fill="#000000" stroke="none">
<path d="M340 1200 c-8 -5 -27 -10 -42 -10 -21 0 -28 -5 -28 -20 0 -17 7 -20
53 -21 28 0 66 -2 82 -5 17 -2 76 -5 133 -8 81 -3 105 -1 109 10 9 24 -21 41
-83 47 -142 15 -210 17 -224 7z"/>
<path d="M172 1078 c-51 -8 -62 -15 -62 -34 0 -16 16 -19 25 -4 4 6 11 8 16 4
5 -3 7 -10 3 -15 -3 -6 4 -7 20 -3 14 3 26 2 26 -3 0 -5 16 -9 36 -9 23 0 39
-6 45 -16 5 -9 27 -19 50 -23 39 -7 40 -8 34 -38 -13 -64 -11 -62 -77 -62 -62
0 -128 -19 -128 -36 0 -17 39 -28 99 -28 35 0 65 -2 69 -5 3 -4 -3 -34 -15
-69 -44 -136 -47 -147 -37 -175 11 -30 37 -38 163 -47 41 -3 78 -8 83 -11 4
-3 8 -32 8 -65 0 -44 -7 -73 -25 -108 -26 -52 -98 -121 -125 -121 -9 0 -20 -3
-24 -7 -10 -11 -79 -33 -103 -33 -27 0 -36 -14 -28 -40 10 -31 42 -26 170 22
70 26 128 83 154 152 11 31 21 69 21 84 0 42 20 102 33 102 7 0 30 -9 52 -20
22 -11 45 -20 51 -20 27 0 23 -35 -8 -87 -40 -66 -162 -219 -200 -251 -32 -27
-40 -76 -11 -65 23 9 51 32 87 72 17 18 50 54 74 79 23 25 42 51 42 58 0 7 3
14 7 16 9 3 83 98 84 107 0 3 2 17 3 31 2 14 5 31 7 38 2 7 -9 20 -26 30 -16
9 -35 22 -42 29 -7 6 -23 15 -35 19 -31 9 -78 45 -78 59 0 6 -9 21 -20 33 -11
12 -20 26 -20 32 0 41 -112 200 -141 200 -23 0 -25 36 -7 86 11 32 11 32 107
29 53 -1 120 -6 149 -10 48 -7 52 -6 52 13 0 24 -34 33 -215 57 -60 7 -130 21
-155 30 -62 23 -137 32 -188 23z m301 -348 c25 -29 36 -53 40 -88 3 -26 8 -54
12 -63 5 -14 -3 -16 -72 -11 -65 3 -82 8 -102 28 -23 22 -24 25 -12 66 7 24
17 52 21 63 5 11 11 32 14 48 6 27 7 27 35 12 16 -8 45 -33 64 -55z"/>
</g>
</svg>
