<svg version="1.0" xmlns="http://www.w3.org/2000/svg"
 width="67.000000pt" height="86.000000pt" viewBox="0 0 67.000000 86.000000"
 preserveAspectRatio="xMidYMid meet">
<metadata>
Created by potrace 1.15, written by Peter Selinger 2001-2017
</metadata>
<g transform="translate(0.000000,86.000000) scale(0.100000,-0.100000)"
fill="#000000" stroke="none">
<path d="M275 745 c-5 -2 -58 -9 -117 -16 -60 -7 -108 -17 -108 -21 0 -15 50
-28 111 -28 32 0 59 -3 59 -8 0 -4 -29 -36 -65 -71 -57 -56 -76 -81 -61 -81
13 0 114 56 133 73 13 11 26 17 30 14 11 -12 -16 -57 -39 -66 -49 -20 -158
-156 -158 -198 0 -31 25 -29 47 2 55 78 85 115 92 115 15 0 -5 -62 -44 -139
-42 -83 -66 -191 -49 -219 20 -31 39 -19 46 28 13 83 20 105 37 129 18 24 18
24 45 -34 14 -31 26 -60 26 -64 0 -13 69 -80 108 -105 39 -24 102 -36 102 -18
0 4 -27 27 -59 50 -71 50 -103 90 -125 155 -20 60 -20 67 2 67 18 -1 73 -74
91 -122 11 -30 35 -37 45 -13 12 32 -61 145 -132 206 -33 28 -39 39 -35 61 6
31 35 41 93 32 43 -7 42 -6 60 -99 14 -71 29 -102 72 -150 44 -50 108 -82 108
-54 0 6 -22 41 -49 78 -43 59 -91 167 -91 205 0 19 22 26 80 26 27 0 61 5 76
10 26 10 26 12 11 28 -13 13 -34 16 -91 15 -52 0 -76 3 -80 12 -2 7 5 45 16
84 21 71 21 71 58 71 20 0 45 7 56 15 16 13 17 16 4 25 -13 9 -280 13 -305 5z
m165 -58 c0 -7 -4 -17 -10 -23 -5 -5 -15 -38 -22 -74 -13 -62 -14 -65 -48 -72
-19 -4 -43 -5 -53 -2 -17 5 -17 7 -3 23 28 31 16 99 -23 128 -14 10 -14 12 -1
17 8 3 38 7 65 9 28 2 60 4 73 5 12 1 22 -4 22 -11z"/>
</g>
</svg>
