<svg version="1.0" xmlns="http://www.w3.org/2000/svg"
 width="72.000000pt" height="91.000000pt" viewBox="0 0 72.000000 91.000000"
 preserveAspectRatio="xMidYMid meet">
<metadata>
Created by potrace 1.15, written by Peter Selinger 2001-2017
</metadata>
<g transform="translate(0.000000,91.000000) scale(0.100000,-0.100000)"
fill="#000000" stroke="none">
<path d="M207 673 c-41 -5 -57 -24 -38 -47 9 -11 27 -13 67 -9 56 6 56 6 52
-23 -3 -28 -5 -29 -63 -32 -68 -4 -85 -13 -64 -38 11 -14 25 -15 88 -10 42 4
81 12 88 18 7 6 13 28 13 49 0 39 0 39 101 39 98 0 100 0 97 -22 -3 -21 -9
-23 -81 -28 -82 -5 -92 -12 -111 -73 -5 -17 -13 -18 -71 -12 -52 6 -70 4 -90
-9 -24 -16 -26 -22 -23 -79 3 -70 -8 -64 121 -66 50 -1 57 -3 57 -21 0 -18 -7
-20 -85 -20 -83 0 -85 0 -100 -30 -22 -42 -19 -96 6 -121 18 -18 28 -20 72
-14 29 4 58 12 65 17 20 17 -6 38 -48 38 -47 0 -52 6 -34 41 13 26 19 29 68
29 59 0 66 -8 66 -76 0 -42 16 -54 76 -54 62 0 77 14 72 67 -2 30 -7 38 -23
38 -12 0 -21 -8 -23 -20 -7 -43 -10 -47 -32 -35 -16 9 -20 19 -18 43 3 32 3
32 73 32 70 0 70 0 73 -73 2 -46 -2 -79 -9 -88 -9 -11 -52 -14 -210 -14 -187
0 -199 -1 -199 -18 0 -17 12 -20 122 -25 160 -9 320 -9 334 1 5 4 18 18 27 32
23 33 23 159 1 201 -16 31 -16 31 -97 29 -113 -3 -117 -3 -117 20 0 18 7 20
84 20 82 0 85 1 106 29 23 33 20 72 -9 104 -13 16 -28 18 -91 15 -71 -3 -75
-2 -78 20 -4 25 -3 25 89 22 85 -2 101 11 97 83 -4 73 -16 77 -208 75 -85 -1
-172 -3 -193 -5z m146 -263 c7 -29 -13 -39 -63 -31 -54 8 -70 17 -70 37 0 11
15 14 64 14 55 0 64 -3 69 -20z m195 -2 c5 -25 -43 -41 -95 -33 -32 5 -43 11
-43 24 0 28 10 32 74 29 49 -2 61 -7 64 -20z"/>
</g>
</svg>
