<svg version="1.0" xmlns="http://www.w3.org/2000/svg"
 width="71.000000pt" height="88.000000pt" viewBox="0 0 71.000000 88.000000"
 preserveAspectRatio="xMidYMid meet">
<metadata>
Created by potrace 1.15, written by Peter Selinger 2001-2017
</metadata>
<g transform="translate(0.000000,88.000000) scale(0.100000,-0.100000)"
fill="#000000" stroke="none">
<path d="M137 683 c-2 -4 -1 -80 4 -168 5 -96 4 -217 -2 -304 -5 -79 -8 -146
-5 -148 13 -13 34 9 40 40 3 18 4 157 1 308 -4 223 -8 275 -19 277 -8 2 -16
-1 -19 -5z"/>
<path d="M498 667 c-37 -15 -35 -35 5 -45 27 -7 32 -13 32 -38 0 -24 -5 -31
-32 -39 -51 -15 -42 -35 17 -35 57 0 70 14 70 79 0 85 -24 105 -92 78z"/>
<path d="M227 654 c-4 -4 -7 -50 -7 -101 0 -85 2 -94 18 -91 15 3 17 16 17 97
0 88 -8 115 -28 95z"/>
<path d="M321 647 c-16 -20 -3 -27 46 -27 44 0 44 0 41 -32 -3 -29 -7 -33 -35
-36 -60 -6 -63 -21 -63 -269 0 -183 2 -223 14 -223 32 0 38 26 27 121 -6 51
-8 141 -4 201 5 95 9 111 27 124 11 7 30 14 41 14 12 0 26 5 33 12 15 15 4 99
-16 116 -21 16 -97 15 -111 -1z"/>
<path d="M71 641 c-15 -10 -17 -39 -6 -116 10 -75 12 -80 31 -64 13 11 15 27
9 93 -8 87 -13 100 -34 87z"/>
<path d="M405 461 c-47 -10 -26 -26 35 -27 30 -1 60 -2 67 -3 6 0 17 -17 23
-36 13 -40 5 -65 -14 -40 -9 12 -25 15 -69 13 -69 -4 -80 -22 -17 -26 50 -4
70 -16 70 -42 0 -20 -27 -30 -82 -30 -26 0 -38 -4 -38 -14 0 -21 32 -28 79
-17 25 5 43 5 47 0 3 -6 8 -53 11 -105 4 -69 10 -97 20 -101 30 -12 36 13 27
108 -7 68 -7 100 3 128 18 51 17 151 -3 179 -13 19 -24 22 -72 21 -31 -1 -70
-4 -87 -8z"/>
<path d="M67 413 c-12 -11 -8 -251 4 -259 21 -13 29 21 29 132 0 81 -4 115
-13 123 -8 6 -17 8 -20 4z"/>
<path d="M237 413 c-3 -5 -8 -68 -12 -140 -7 -116 -6 -133 8 -133 23 0 27 22
27 156 0 109 -7 144 -23 117z"/>
</g>
</svg>
