<svg version="1.0" xmlns="http://www.w3.org/2000/svg"
 width="62.000000pt" height="80.000000pt" viewBox="0 0 62.000000 80.000000"
 preserveAspectRatio="xMidYMid meet">
<metadata>
Created by potrace 1.15, written by Peter Selinger 2001-2017
</metadata>
<g transform="translate(0.000000,80.000000) scale(0.100000,-0.100000)"
fill="#000000" stroke="none">
<path d="M324 697 c-3 -8 0 -25 5 -39 7 -19 6 -29 -6 -41 -14 -13 -13 -16 5
-21 27 -9 37 -67 14 -81 -67 -41 -87 -92 -57 -145 20 -35 18 -90 -5 -163 -26
-80 -31 -162 -10 -162 11 0 15 14 17 53 1 35 12 75 32 117 30 65 30 65 10 143
-20 77 -20 77 5 99 27 23 118 40 160 29 29 -7 42 -35 24 -52 -27 -25 -54 -25
-91 1 -41 27 -43 26 -22 -14 21 -42 71 -53 129 -31 59 22 55 115 -5 127 -51
10 -31 63 22 63 40 0 46 19 10 31 -29 10 -31 13 -25 50 5 32 4 39 -10 39 -9 0
-18 -12 -22 -27 -10 -42 -23 -53 -59 -53 -45 0 -65 9 -65 29 0 20 -27 61 -41
61 -5 0 -12 -6 -15 -13z m146 -130 c0 -21 -22 -37 -52 -37 -23 0 -28 4 -28 25
0 23 4 25 40 25 26 0 40 -4 40 -13z"/>
<path d="M124 594 c17 -64 17 -83 2 -117 -19 -46 -3 -49 24 -4 22 36 25 70 9
116 -14 39 -44 44 -35 5z"/>
<path d="M198 550 c4 -55 1 -75 -12 -96 -20 -30 -14 -43 10 -23 42 34 54 137
22 177 -20 24 -25 11 -20 -58z"/>
<path d="M63 541 c1 -49 -2 -64 -21 -84 -24 -26 -29 -47 -9 -47 20 1 67 76 67
108 0 37 -16 82 -29 82 -5 0 -8 -27 -8 -59z"/>
<path d="M116 353 c-23 -115 -26 -156 -17 -212 5 -33 15 -69 21 -81 12 -23 38
-22 31 1 -17 61 -22 129 -18 217 3 56 2 102 -3 102 -5 0 -11 -12 -14 -27z"/>
<path d="M43 338 c-19 -22 -27 -181 -12 -224 15 -44 27 -64 40 -64 10 0 0 282
-11 293 -4 4 -12 2 -17 -5z"/>
<path d="M172 317 c-15 -35 -16 -144 -1 -186 14 -40 45 -44 34 -3 -4 15 -11
70 -14 122 -6 86 -8 92 -19 67z"/>
<path d="M500 323 c0 -5 7 -17 15 -27 16 -22 21 -86 6 -86 -5 0 -24 18 -41 40
-17 22 -40 40 -51 40 -26 0 -24 -7 16 -51 53 -59 47 -68 -32 -44 -17 6 -23 3
-23 -8 0 -24 40 -47 81 -47 33 0 38 -3 44 -29 7 -34 30 -58 40 -41 3 5 3 30
-1 55 -5 33 -2 51 10 70 9 13 16 34 16 45 0 29 -26 76 -45 84 -22 8 -35 8 -35
-1z"/>
</g>
</svg>
