<svg version="1.0" xmlns="http://www.w3.org/2000/svg"
 width="62.000000pt" height="83.000000pt" viewBox="0 0 62.000000 83.000000"
 preserveAspectRatio="xMidYMid meet">
<metadata>
Created by potrace 1.15, written by Peter Selinger 2001-2017
</metadata>
<g transform="translate(0.000000,83.000000) scale(0.100000,-0.100000)"
fill="#000000" stroke="none">
<path d="M240 693 c-50 -21 -90 -62 -90 -92 0 -14 9 -39 20 -56 25 -38 11 -55
-45 -55 -28 0 -47 -6 -58 -18 -32 -35 -17 -53 25 -31 31 17 33 4 4 -34 -49
-64 -26 -80 24 -17 36 46 55 43 47 -6 -8 -45 10 -43 30 3 12 30 13 41 3 57
-10 16 -9 22 6 33 11 8 33 13 49 11 30 -3 30 -3 29 -66 -1 -62 -2 -65 -45
-103 -37 -32 -49 -37 -77 -32 -38 6 -92 -13 -92 -34 0 -11 5 -13 18 -8 36 15
62 17 62 5 0 -7 -18 -32 -40 -56 -22 -24 -40 -48 -40 -54 0 -23 31 -8 61 30
33 41 56 53 45 24 -15 -38 -18 -64 -7 -64 15 0 38 48 46 95 7 36 45 84 68 85
4 0 7 -25 7 -55 0 -30 -4 -55 -8 -55 -13 0 -102 -135 -102 -154 0 -20 25 1 51
44 17 28 39 55 50 61 18 9 19 5 19 -61 0 -69 12 -92 24 -47 3 12 6 44 6 70 0
48 0 48 30 27 16 -11 37 -34 47 -50 17 -29 43 -41 43 -20 0 19 -60 94 -95 118
-29 21 -35 31 -35 63 0 20 3 44 6 53 11 30 59 -9 98 -79 21 -36 44 -65 51 -65
21 0 19 8 -10 42 -52 62 -12 76 50 17 32 -30 60 -39 53 -16 -4 11 -59 55 -104
84 -17 10 -14 12 23 12 23 1 54 -4 68 -11 14 -6 28 -8 31 -5 12 12 -16 35 -60
47 -36 10 -49 9 -80 -4 -37 -16 -39 -15 -80 12 -40 27 -41 29 -44 89 -3 60 -3
61 29 72 63 22 69 18 69 -48 0 -33 5 -63 10 -66 6 -3 10 3 10 14 0 45 30 71
43 37 7 -18 56 -51 64 -43 3 3 -9 24 -27 47 -18 23 -30 43 -27 46 3 3 22 -2
42 -10 46 -20 55 -20 55 -2 0 24 -52 49 -104 50 -56 1 -65 13 -41 50 23 35 11
80 -29 111 -26 20 -44 25 -87 24 -30 0 -70 -7 -89 -16z m145 -29 c19 -12 25
-25 25 -53 0 -46 -8 -57 -53 -76 -37 -15 -37 -15 -37 19 0 30 4 35 30 41 17 4
30 11 30 16 0 5 -13 9 -30 9 -27 0 -30 3 -30 30 0 35 25 40 65 14z m-95 -23
c0 -24 -5 -30 -25 -33 -35 -4 -36 -22 -2 -26 23 -3 27 -8 27 -33 0 -34 -7 -35
-54 -12 -43 20 -55 56 -29 87 47 56 83 63 83 17z"/>
</g>
</svg>
