<svg version="1.0" xmlns="http://www.w3.org/2000/svg"
 width="61.000000pt" height="113.000000pt" viewBox="0 0 61.000000 113.000000"
 preserveAspectRatio="xMidYMid meet">
<metadata>
Created by potrace 1.15, written by Peter Selinger 2001-2017
</metadata>
<g transform="translate(0.000000,113.000000) scale(0.100000,-0.100000)"
fill="#000000" stroke="none">
<path d="M417 1084 c-4 -4 -7 -45 -7 -91 0 -45 -3 -83 -7 -83 -3 0 -23 18 -44
40 -40 41 -69 52 -69 24 0 -9 -10 -30 -22 -47 -20 -27 -22 -28 -29 -11 -4 10
-8 35 -9 54 -1 41 -31 87 -50 75 -9 -6 -11 -28 -7 -82 6 -74 6 -74 -41 -24
-54 58 -76 66 -66 24 4 -16 10 -30 14 -33 15 -11 30 -49 24 -64 -4 -12 0 -16
15 -16 12 0 21 -4 21 -9 0 -5 7 -17 16 -26 11 -10 18 -39 20 -83 5 -84 20
-132 42 -132 12 0 13 -3 4 -12 -12 -12 -17 -98 -6 -98 9 0 44 41 44 52 0 4 6
8 13 8 13 0 37 -44 37 -68 0 -7 -32 -61 -71 -118 -69 -101 -80 -132 -38 -106
29 18 39 -14 10 -34 -27 -19 -27 -34 -1 -34 23 0 54 16 88 44 22 19 22 19 23
-50 2 -129 31 -161 60 -65 9 30 19 50 22 45 6 -10 -4 -63 -18 -96 -5 -14 -2
-18 14 -18 25 0 36 39 46 158 6 70 5 82 -8 82 -9 0 -24 -14 -34 -30 -15 -26
-19 -28 -24 -13 -9 25 9 59 37 72 16 7 24 19 24 37 0 25 -26 83 -44 95 -12 9
0 54 21 74 10 11 17 34 17 64 1 37 -4 52 -26 76 -16 16 -28 33 -28 37 0 12
-61 40 -74 35 -7 -3 -16 -18 -19 -34 -3 -15 -14 -38 -25 -51 -17 -19 -21 -20
-26 -6 -9 22 -7 142 2 146 21 9 72 82 72 103 0 35 15 31 31 -7 7 -18 20 -38
28 -45 14 -10 14 -13 -2 -30 -23 -26 -22 -30 13 -63 17 -15 30 -35 30 -43 0
-9 4 -18 8 -21 19 -12 29 15 36 92 5 66 14 99 42 157 34 70 41 111 19 109 -6
0 -19 -17 -30 -37 -25 -47 -35 -47 -35 1 -1 39 -21 87 -33 76z m-46 -477 c3
-24 -3 -42 -15 -55 -19 -20 -59 46 -50 82 6 26 6 26 35 5 16 -11 30 -26 30
-32z m-65 -293 c-14 -13 -28 -24 -31 -24 -14 0 -2 37 23 69 27 36 27 36 30 7
3 -21 -3 -35 -22 -52z"/>
</g>
</svg>
