<svg version="1.0" xmlns="http://www.w3.org/2000/svg"
 width="71.000000pt" height="82.000000pt" viewBox="0 0 71.000000 82.000000"
 preserveAspectRatio="xMidYMid meet">
<metadata>
Created by potrace 1.15, written by Peter Selinger 2001-2017
</metadata>
<g transform="translate(0.000000,82.000000) scale(0.100000,-0.100000)"
fill="#000000" stroke="none">
<path d="M322 688 c-10 -38 -23 -52 -111 -115 -54 -40 -103 -73 -110 -73 -6 0
-11 -7 -11 -15 0 -21 20 -19 74 10 26 14 49 25 52 25 2 0 4 -27 4 -60 0 -89
16 -102 128 -100 126 2 129 1 136 -15 13 -35 -8 -46 -131 -70 -33 -7 -83 -55
-83 -80 0 -58 97 -165 150 -165 21 0 8 26 -23 45 -50 32 -77 79 -67 117 12 39
7 35 65 49 101 23 154 65 140 109 -12 39 -57 51 -168 48 -102 -3 -102 -3 -102
22 0 24 2 25 88 31 93 6 127 23 127 62 0 21 14 21 119 1 63 -12 29 16 -74 61
-113 49 -152 79 -161 124 -9 44 -28 39 -42 -11z m79 -105 c80 -45 64 -80 -43
-96 -89 -13 -108 -7 -108 30 0 28 11 41 60 76 32 22 33 22 91 -10z"/>
</g>
</svg>
