<svg version="1.0" xmlns="http://www.w3.org/2000/svg"
 width="47.000000pt" height="121.000000pt" viewBox="0 0 47.000000 121.000000"
 preserveAspectRatio="xMidYMid meet">
<metadata>
Created by potrace 1.15, written by Peter Selinger 2001-2017
</metadata>
<g transform="translate(0.000000,121.000000) scale(0.100000,-0.100000)"
fill="#000000" stroke="none">
<path d="M104 984 c-7 -28 1 -169 11 -196 4 -9 17 -19 31 -22 15 -4 24 -14 24
-26 0 -11 5 -20 10 -20 6 0 10 7 10 15 0 8 9 15 20 15 15 0 20 -7 20 -29 0
-17 -4 -33 -10 -36 -6 -3 -10 -19 -10 -35 0 -16 -17 -61 -37 -99 -20 -39 -33
-74 -29 -78 4 -5 28 14 52 40 44 49 44 49 44 -12 0 -57 -3 -64 -35 -95 -34
-34 -34 -34 -45 -166 -6 -73 -9 -135 -6 -137 11 -12 36 68 48 152 10 80 15 96
35 106 18 10 26 9 39 -2 15 -12 14 -14 -3 -20 -17 -7 -17 -8 0 -8 11 -1 20
-12 24 -31 3 -18 12 -30 21 -30 13 0 13 -3 4 -12 -27 -27 -5 -205 26 -216 10
-3 11 30 7 140 -8 175 -9 181 -41 213 -24 24 -26 33 -28 126 0 54 0 99 2 99 1
0 29 -27 61 -60 62 -63 96 -81 64 -32 -10 15 -25 40 -33 56 -8 15 -32 46 -52
67 -29 30 -38 47 -38 74 0 32 3 35 29 35 22 0 30 -6 35 -25 4 -14 13 -25 21
-25 21 0 22 237 1 266 -8 10 -17 17 -20 14 -5 -5 -13 -87 -15 -147 -1 -29 -3
-31 -28 -24 -30 8 -44 31 -19 31 9 0 16 8 16 18 0 12 -12 20 -43 27 -47 11
-77 9 -77 -6 0 -14 26 -39 39 -39 13 0 15 -16 3 -24 -4 -2 -24 -7 -45 -11 -37
-7 -37 -7 -37 55 0 65 -17 140 -31 140 -5 0 -12 -12 -15 -26z"/>
</g>
</svg>
