<svg version="1.0" xmlns="http://www.w3.org/2000/svg"
 width="70.000000pt" height="117.000000pt" viewBox="0 0 70.000000 117.000000"
 preserveAspectRatio="xMidYMid meet">
<metadata>
Created by potrace 1.15, written by Peter Selinger 2001-2017
</metadata>
<g transform="translate(0.000000,117.000000) scale(0.100000,-0.100000)"
fill="#000000" stroke="none">
<path d="M163 1095 c-7 -8 -13 -21 -13 -29 0 -8 -4 -16 -8 -18 -9 -4 -61 -89
-80 -133 -8 -16 -18 -38 -23 -47 -13 -26 -11 -38 6 -38 9 0 19 8 22 18 4 9 28
49 55 88 26 39 48 77 48 83 0 33 35 -6 75 -82 23 -44 39 -63 55 -65 20 -3 22
-1 16 25 -4 15 -12 29 -17 31 -5 2 -9 8 -9 13 0 5 -17 38 -38 72 -21 35 -41
71 -45 80 -8 21 -27 21 -44 2z"/>
<path d="M477 1104 c-4 -4 -7 -33 -7 -65 0 -76 -6 -89 -41 -89 -39 0 -75 -18
-87 -44 -18 -37 -32 -176 -32 -331 0 -82 -1 -233 -1 -334 -1 -157 1 -185 15
-200 15 -14 18 -14 26 -1 5 8 8 147 8 310 -1 162 2 345 6 405 10 146 13 149
144 153 98 4 98 4 110 -23 17 -37 17 -456 0 -473 -8 -8 -8 -12 -1 -12 7 0 12
-58 16 -172 3 -95 8 -183 12 -195 8 -27 30 -30 39 -7 11 28 7 164 -5 164 -5 0
-7 5 -3 11 3 6 8 160 10 342 5 399 5 403 -97 409 -54 3 -54 3 -59 78 -4 66 -7
75 -25 78 -12 2 -24 0 -28 -4z"/>
<path d="M158 893 c-43 -5 -51 -26 -17 -44 17 -8 31 -8 60 0 35 11 56 27 47
36 -7 8 -55 12 -90 8z"/>
<path d="M465 813 c-38 -2 -73 -7 -77 -11 -16 -16 11 -35 46 -34 36 1 36 1 35
-238 -1 -218 -5 -260 -24 -230 -7 11 -7 287 0 352 4 46 -18 70 -35 38 -18 -33
-24 -241 -10 -346 12 -88 14 -94 41 -106 16 -7 29 -16 29 -19 0 -7 55 -18 105
-22 24 -2 31 2 33 20 2 15 -3 23 -20 28 -70 20 -78 26 -78 65 0 30 5 39 28 51
52 27 52 27 52 203 0 159 -1 166 -20 166 -18 0 -20 -7 -22 -62 -1 -35 -3 -79
-4 -98 -1 -19 -3 -63 -3 -97 -1 -43 -5 -63 -13 -63 -10 0 -13 37 -11 156 2
201 3 204 53 204 21 0 42 5 46 12 10 16 -25 38 -55 36 -14 -1 -57 -4 -96 -5z"/>
<path d="M150 760 c-15 -15 -20 -33 -20 -75 0 -60 5 -56 -82 -70 -37 -6 -50
-21 -25 -30 6 -3 32 -6 57 -8 45 -2 45 -2 45 -207 0 -205 0 -205 -55 -208 -64
-4 -82 -15 -49 -32 30 -16 235 -18 251 -2 19 19 -10 42 -52 42 -25 0 -40 5
-44 16 -3 9 -6 99 -6 200 0 150 3 184 14 184 18 0 24 -39 27 -190 1 -69 3
-135 3 -147 1 -23 20 -31 31 -13 12 19 7 310 -5 325 -17 20 -6 43 22 47 13 2
23 10 23 18 0 11 -14 16 -50 18 -27 2 -54 7 -58 11 -4 4 -5 26 -1 49 5 35 10
42 30 42 35 0 76 19 71 33 -2 7 -25 13 -55 15 -41 2 -56 -2 -72 -18z"/>
<path d="M48 458 c-1 -51 -2 -128 0 -170 3 -68 6 -78 22 -78 26 0 32 36 26
182 -6 134 -11 158 -31 158 -10 0 -14 -25 -17 -92z"/>
</g>
</svg>
