<svg version="1.0" xmlns="http://www.w3.org/2000/svg"
 width="65.000000pt" height="91.000000pt" viewBox="0 0 65.000000 91.000000"
 preserveAspectRatio="xMidYMid meet">
<metadata>
Created by potrace 1.15, written by Peter Selinger 2001-2017
</metadata>
<g transform="translate(0.000000,91.000000) scale(0.100000,-0.100000)"
fill="#000000" stroke="none">
<path d="M173 751 c-34 -3 -65 -9 -69 -13 -10 -11 41 -28 82 -28 53 0 37 -24
-20 -32 -54 -7 -61 -12 -51 -28 5 -8 24 -9 59 -5 95 11 106 15 112 40 5 19 14
25 47 29 161 20 205 15 170 -16 -11 -10 -44 -18 -83 -21 -36 -3 -80 -8 -98
-12 -33 -7 -33 -7 -11 -31 22 -24 22 -24 -80 -24 -56 0 -111 -5 -122 -10 -18
-10 -19 -24 -19 -295 0 -235 2 -285 14 -285 20 0 26 46 26 196 0 134 0 134 30
134 23 0 33 -6 40 -25 8 -22 15 -25 59 -25 58 0 73 -14 69 -67 -3 -38 -3 -38
-63 -38 -47 0 -60 3 -60 15 0 9 13 17 33 20 41 6 38 26 -3 22 -47 -4 -55 -9
-55 -37 0 -30 29 -45 103 -53 66 -7 59 -22 -11 -22 -68 0 -95 -15 -90 -50 5
-40 40 -50 185 -50 130 0 132 0 152 26 25 32 26 38 5 58 -11 12 -36 16 -90 16
-43 0 -74 4 -74 10 0 6 26 10 58 10 75 0 106 16 110 57 3 27 -1 33 -21 38 -35
9 -100 2 -104 -12 -3 -8 11 -13 39 -15 30 -2 43 -7 43 -18 0 -12 -13 -15 -60
-15 -60 0 -60 0 -63 39 -4 46 7 56 66 56 50 0 82 14 82 35 0 10 10 15 29 15
16 0 31 6 34 14 7 18 -149 30 -325 25 -123 -4 -123 -4 -126 78 -4 130 -15 124
211 121 106 -1 198 1 205 6 26 16 -2 26 -71 26 -40 0 -78 4 -86 9 -29 18 2 31
73 31 82 0 100 11 94 57 -5 44 -36 53 -183 51 -71 0 -158 -4 -192 -7z m245
-407 c90 -11 57 -24 -63 -24 -96 0 -115 3 -115 15 0 17 79 20 178 9z m62 -244
c30 -20 -13 -30 -126 -30 -84 0 -114 4 -123 14 -9 11 -9 15 1 19 24 10 233 7
248 -3z"/>
<path d="M194 535 c-18 -14 -18 -14 11 -15 38 0 75 -10 75 -20 0 -4 -23 -10
-50 -14 -61 -8 -57 -26 6 -26 55 0 84 14 84 40 0 42 -85 66 -126 35z"/>
<path d="M403 543 c-28 -5 -42 -49 -22 -68 8 -7 43 -15 79 -17 53 -2 65 0 65
12 0 11 -15 16 -62 18 -35 2 -63 7 -63 11 0 5 28 12 63 17 34 5 62 14 62 19 0
10 -84 16 -122 8z"/>
<path d="M215 420 c-3 -5 0 -12 7 -15 25 -10 283 0 283 10 0 14 -281 19 -290
5z"/>
</g>
</svg>
