<svg version="1.0" xmlns="http://www.w3.org/2000/svg"
 width="68.000000pt" height="88.000000pt" viewBox="0 0 68.000000 88.000000"
 preserveAspectRatio="xMidYMid meet">
<metadata>
Created by potrace 1.15, written by Peter Selinger 2001-2017
</metadata>
<g transform="translate(0.000000,88.000000) scale(0.100000,-0.100000)"
fill="#000000" stroke="none">
<path d="M510 682 c0 -5 9 -17 19 -26 32 -29 32 -58 1 -147 -36 -100 -36 -106
-9 -128 22 -18 22 -18 -26 -115 -26 -53 -45 -100 -41 -103 11 -11 57 40 83 91
24 48 25 48 40 27 10 -16 13 -33 8 -59 -10 -56 -51 -139 -74 -151 -12 -7 -21
-19 -21 -27 0 -13 6 -15 27 -9 49 12 133 132 133 189 0 34 -26 98 -44 108 -9
5 -16 17 -16 27 0 10 -11 28 -25 41 -32 30 -32 45 5 78 23 22 31 39 36 85 7
56 6 57 -30 92 -35 33 -66 45 -66 27z"/>
<path d="M157 673 c-62 -5 -58 -27 6 -31 26 -2 47 -7 47 -12 0 -26 -15 -40
-42 -40 -45 0 -68 -17 -68 -50 0 -45 23 -62 100 -73 23 -3 24 -4 5 -12 -11 -5
-35 -19 -53 -32 -19 -12 -51 -30 -73 -40 -21 -9 -39 -23 -39 -30 0 -7 3 -13 8
-13 11 0 75 24 99 38 12 7 26 12 32 12 19 0 51 -67 51 -109 0 -41 0 -41 -44
-41 -60 0 -80 -8 -65 -26 7 -8 31 -14 60 -14 49 0 49 0 49 -54 0 -60 1 -59
-78 -71 -26 -4 -41 -12 -39 -18 8 -24 261 -16 262 8 0 6 -21 11 -47 13 -48 3
-48 3 -48 61 0 65 6 71 66 71 35 0 46 13 18 24 -9 3 -30 6 -49 6 -25 0 -34 5
-39 23 -12 44 -6 74 19 97 23 21 28 22 64 12 45 -14 84 -16 77 -3 -3 5 -38 28
-78 51 -76 46 -77 58 -1 59 38 1 63 23 63 56 0 45 -10 55 -56 55 -40 0 -44 2
-44 25 0 23 4 25 44 25 41 0 67 12 49 23 -12 7 -203 14 -256 10z m127 -105
c-7 -91 -9 -98 -31 -98 -16 0 -18 8 -15 72 4 90 6 98 32 98 19 0 20 -4 14 -72z
m-76 -30 c2 -9 -5 -21 -16 -27 -25 -14 -58 9 -49 33 9 23 61 18 65 -6z m167 3
c0 -19 -29 -36 -49 -28 -14 5 -15 11 -6 27 13 24 55 24 55 1z m-90 -140 c0 -8
-8 -19 -17 -24 -13 -9 -22 -7 -37 7 -31 28 -26 38 17 34 23 -2 37 -8 37 -17z"/>
<path d="M132 317 c-28 -30 -28 -40 1 -32 25 8 49 34 41 46 -8 14 -19 11 -42
-14z"/>
<path d="M320 332 c0 -12 39 -52 50 -52 17 0 11 15 -13 38 -24 23 -37 28 -37
14z"/>
<path d="M128 159 c-31 -23 -36 -39 -13 -39 17 0 55 35 55 50 0 15 -12 12 -42
-11z"/>
<path d="M320 165 c0 -17 47 -51 57 -41 7 7 -36 56 -49 56 -4 0 -8 -7 -8 -15z"/>
</g>
</svg>
