<svg version="1.0" xmlns="http://www.w3.org/2000/svg"
 width="81.000000pt" height="157.000000pt" viewBox="0 0 81.000000 157.000000"
 preserveAspectRatio="xMidYMid meet">
<metadata>
Created by potrace 1.15, written by Peter Selinger 2001-2017
</metadata>
<g transform="translate(0.000000,157.000000) scale(0.100000,-0.100000)"
fill="#000000" stroke="none">
<path d="M559 1446 c-2 -2 -65 -7 -139 -11 -149 -7 -210 -18 -210 -40 0 -21
55 -32 133 -27 67 4 67 4 67 -85 0 -48 -5 -106 -11 -128 -11 -41 -70 -105 -95
-105 -8 0 -14 -4 -14 -10 0 -5 -6 -10 -14 -10 -24 0 -93 -97 -111 -155 -19
-58 -17 -137 6 -230 13 -56 13 -67 3 -142 -6 -49 -5 -53 14 -53 45 0 53 108
19 251 -21 91 -7 157 51 237 12 17 30 32 38 32 7 0 14 4 14 8 0 5 22 16 50 25
46 15 53 15 96 -1 54 -20 101 -61 110 -97 3 -14 4 -42 0 -62 -21 -143 -36
-321 -32 -393 6 -138 41 -280 68 -280 5 0 8 -6 8 -12 0 -18 89 -108 106 -108
23 0 16 26 -15 56 -30 30 -91 141 -91 166 0 8 -5 19 -11 25 -16 16 -12 247 7
328 20 89 30 290 15 299 -6 4 -11 14 -11 23 0 20 -55 70 -102 91 -46 20 -50
29 -42 97 6 49 9 53 36 59 17 3 67 3 112 0 64 -5 84 -4 93 8 24 28 -2 40 -93
45 -79 4 -144 18 -144 30 0 2 5 24 11 47 11 43 11 43 112 48 101 5 152 19 144
41 -2 6 -14 14 -28 17 -35 10 -144 21 -150 16z"/>
</g>
</svg>
