<svg version="1.0" xmlns="http://www.w3.org/2000/svg"
 width="73.000000pt" height="99.000000pt" viewBox="0 0 73.000000 99.000000"
 preserveAspectRatio="xMidYMid meet">
<metadata>
Created by potrace 1.15, written by Peter Selinger 2001-2017
</metadata>
<g transform="translate(0.000000,99.000000) scale(0.100000,-0.100000)"
fill="#000000" stroke="none">
<path d="M228 770 c-3 -81 -3 -81 -38 -51 -34 29 -70 40 -70 22 0 -5 25 -33
55 -62 53 -51 56 -56 52 -96 -2 -24 -6 -45 -10 -49 -3 -3 -26 10 -50 30 -24
20 -47 36 -51 36 -19 0 0 -31 44 -73 53 -51 64 -85 30 -94 -11 -3 -20 -9 -20
-13 0 -11 -48 -30 -76 -30 -16 0 -24 -5 -22 -12 7 -20 45 -21 80 -4 47 24 58
21 58 -16 0 -48 -10 -78 -26 -78 -8 0 -14 -5 -14 -10 0 -6 -8 -14 -18 -17 -25
-9 -72 -45 -72 -55 0 -12 68 -10 75 2 3 6 13 10 22 10 13 0 15 -10 9 -70 -6
-56 -5 -70 7 -70 18 0 34 35 42 93 6 47 6 47 33 29 72 -50 84 -26 22 42 -38
41 -40 47 -40 106 0 62 0 62 36 26 31 -31 64 -47 64 -31 0 7 -41 79 -51 89
-12 13 -12 46 1 46 5 0 30 15 54 33 43 30 59 57 35 57 -18 0 -79 -32 -79 -41
0 -5 -10 -9 -22 -9 -21 0 -23 4 -19 51 3 53 6 56 102 140 32 27 8 30 -36 4
-23 -13 -45 -21 -49 -18 -10 10 -7 69 4 99 9 22 7 30 -9 45 -40 37 -50 26 -53
-61z"/>
<path d="M480 746 c-37 -55 -37 -66 0 -106 26 -28 30 -40 34 -113 3 -45 8
-121 12 -169 4 -51 3 -88 -2 -88 -5 0 -20 9 -34 20 -29 23 -60 26 -60 6 0 -7
10 -21 23 -29 51 -35 77 -65 77 -89 0 -14 -3 -28 -7 -32 -11 -11 -33 -80 -27
-86 12 -11 52 51 65 99 7 28 18 51 23 51 18 0 66 46 66 64 0 9 -4 16 -10 16
-5 0 -10 -4 -10 -8 0 -9 -50 -35 -55 -30 -3 3 -7 187 -6 246 1 31 2 32 44 32
30 0 49 6 60 18 10 10 17 20 17 23 0 2 -22 2 -50 1 -46 -4 -50 -2 -56 22 -5
20 1 34 24 60 21 24 29 42 25 55 -3 12 -7 21 -8 21 -2 0 -21 -18 -43 -40 -45
-46 -58 -49 -73 -16 -9 20 -8 31 8 58 20 32 21 58 3 58 -5 0 -23 -20 -40 -44z"/>
</g>
</svg>
