<svg version="1.0" xmlns="http://www.w3.org/2000/svg"
 width="85.000000pt" height="115.000000pt" viewBox="0 0 85.000000 115.000000"
 preserveAspectRatio="xMidYMid meet">
<metadata>
Created by potrace 1.15, written by Peter Selinger 2001-2017
</metadata>
<g transform="translate(0.000000,115.000000) scale(0.100000,-0.100000)"
fill="#000000" stroke="none">
<path d="M739 963 c-8 -14 -35 -49 -61 -76 -50 -53 -74 -117 -66 -182 2 -19 0
-35 -6 -35 -22 0 -76 52 -76 74 0 22 -17 46 -32 46 -11 0 -10 -66 1 -88 5 -9
14 -29 21 -44 8 -16 31 -36 55 -47 42 -20 43 -22 50 -79 7 -66 -2 -172 -16
-172 -5 0 -34 25 -66 55 -60 57 -73 64 -73 42 0 -44 76 -131 125 -143 25 -6
25 -8 25 -109 0 -101 5 -135 19 -135 17 0 33 104 27 170 -7 67 -7 67 26 81 58
24 126 104 114 135 -9 23 -22 17 -76 -36 -28 -27 -55 -50 -59 -50 -4 0 -6 42
-4 93 1 50 3 101 3 113 0 14 12 26 38 38 27 13 43 29 60 64 25 54 27 73 10 90
-21 21 -36 13 -48 -22 -11 -33 -41 -76 -54 -76 -3 0 -6 26 -6 58 0 65 13 95
79 177 36 46 41 58 31 70 -17 21 -25 19 -41 -12z"/>
<path d="M229 928 c-2 -36 1 -89 7 -143 5 -50 5 -50 -39 -5 -24 25 -46 52 -49
60 -2 8 -11 11 -21 7 -14 -5 -17 -21 -17 -87 0 -44 3 -80 8 -80 4 0 13 13 20
30 12 25 17 28 33 20 10 -6 19 -16 19 -23 0 -7 14 -23 30 -36 24 -18 30 -31
30 -61 0 -41 -2 -43 -72 -56 -59 -10 -42 -34 23 -34 49 0 69 -16 69 -55 0 -30
-3 -35 -25 -35 -32 0 -76 -21 -72 -34 2 -6 24 -15 48 -21 56 -13 69 -21 69
-45 0 -23 -51 -84 -91 -107 -16 -10 -29 -21 -29 -25 0 -17 45 -7 77 18 38 29
45 26 50 -14 13 -108 32 -166 49 -149 3 3 6 44 5 91 -1 82 4 97 24 77 6 -6 29
-13 53 -17 55 -9 56 10 2 32 -22 9 -40 20 -40 24 0 4 -9 10 -19 13 -13 3 -22
18 -28 48 -9 44 -9 44 27 56 19 7 36 13 38 13 1 0 2 6 2 14 0 16 -21 26 -55
26 -19 0 -26 8 -34 38 -9 31 -8 39 6 50 9 6 25 12 35 12 10 0 18 4 18 10 0 14
-36 31 -53 24 -20 -7 -35 109 -17 131 15 18 41 20 39 3 -4 -30 3 -46 31 -78
29 -35 29 -35 25 50 -3 71 -7 87 -24 99 -18 11 -25 10 -56 -9 -35 -22 -35 -22
-35 44 0 62 1 66 23 66 13 0 27 -4 33 -9 14 -13 84 -21 84 -10 0 18 -29 40
-90 70 -75 36 -110 38 -111 7z"/>
</g>
</svg>
