<svg version="1.0" xmlns="http://www.w3.org/2000/svg"
 width="125.000000pt" height="169.000000pt" viewBox="0 0 125.000000 169.000000"
 preserveAspectRatio="xMidYMid meet">
<metadata>
Created by potrace 1.15, written by Peter Selinger 2001-2017
</metadata>
<g transform="translate(0.000000,169.000000) scale(0.100000,-0.100000)"
fill="#000000" stroke="none">
<path d="M790 1615 c0 -14 4 -25 10 -25 5 0 9 -79 9 -200 0 -124 -4 -200 -10
-200 -5 0 -46 24 -90 54 -80 53 -109 61 -109 27 0 -9 -7 -29 -15 -44 -20 -40
-45 -124 -38 -131 13 -12 20 -5 33 32 7 20 26 48 42 61 29 23 29 23 66 -6 20
-16 52 -36 70 -44 18 -8 32 -21 32 -31 0 -10 5 -18 10 -18 6 0 10 -43 10 -110
0 -68 -4 -110 -10 -110 -14 0 -50 21 -77 43 -24 21 -52 20 -63 -3 -4 -8 -13
-26 -20 -40 -62 -115 -71 -140 -47 -140 11 0 39 29 85 89 18 23 18 23 74 -2
55 -25 55 -25 68 -166 12 -135 11 -142 -9 -183 -11 -24 -52 -76 -91 -117 -109
-115 -129 -161 -70 -161 21 0 41 13 74 47 25 26 48 44 51 41 3 -3 8 -45 12
-94 6 -94 25 -146 46 -125 15 15 14 8 16 151 1 104 3 120 17 120 9 0 24 -8 33
-18 18 -20 76 -62 85 -62 13 0 4 24 -26 68 -17 26 -34 49 -37 52 -3 3 -15 23
-27 45 -19 35 -21 59 -23 198 -1 101 2 157 9 157 5 0 18 8 28 18 17 17 152 87
156 80 1 -2 8 -16 16 -33 46 -95 89 -138 76 -75 -5 26 -64 160 -70 160 -1 0
-31 -11 -66 -25 -35 -14 -83 -25 -107 -25 -42 0 -42 0 -41 130 2 129 2 129 50
160 72 44 97 41 128 -17 32 -62 72 -113 88 -113 22 0 8 95 -18 120 -12 12 -30
51 -30 67 -1 29 -25 53 -54 53 -14 0 -26 -4 -26 -10 0 -5 -5 -10 -10 -10 -6 0
-29 -9 -53 -19 -74 -33 -76 -33 -81 2 -3 18 -5 43 -5 57 1 14 -1 61 -5 105 -8
106 -2 135 30 135 13 0 24 -4 24 -9 0 -12 78 -48 123 -56 26 -5 37 -4 37 5 0
16 -18 31 -70 59 -25 14 -74 44 -109 68 -74 50 -101 55 -101 18z"/>
<path d="M443 1557 c-29 -6 -53 -14 -53 -19 0 -4 -6 -8 -13 -8 -7 0 -22 -8
-33 -17 -25 -24 -63 -41 -94 -45 -25 -3 -25 -4 -20 -78 7 -110 6 -227 -3 -236
-4 -4 -22 -1 -40 8 -28 13 -36 26 -57 89 -28 85 -47 119 -66 119 -16 0 -19
-16 -5 -24 5 -3 14 -30 21 -58 22 -99 41 -136 77 -158 19 -11 45 -20 58 -20
19 0 26 -7 30 -27 3 -16 10 -44 15 -63 5 -19 8 -84 7 -145 -2 -110 -2 -110
-42 -107 -74 5 -115 36 -115 86 0 18 -37 49 -49 41 -31 -18 13 -123 64 -155
18 -11 56 -27 84 -36 31 -9 55 -23 62 -36 6 -12 13 -69 14 -127 2 -93 -1 -110
-19 -136 -11 -16 -23 -32 -26 -35 -11 -10 -30 -50 -30 -64 0 -7 7 -19 15 -26
19 -16 65 2 65 25 0 8 11 32 24 53 40 60 59 118 50 149 -4 16 -7 31 -6 34 0 3
-3 34 -8 69 -9 65 -1 100 23 100 7 0 27 24 45 53 26 43 32 64 32 109 0 50 -12
79 -26 65 -3 -3 -9 -30 -13 -60 -9 -67 -33 -107 -65 -107 -21 0 -24 6 -30 61
-10 97 -7 226 6 253 9 21 29 35 58 41 56 11 75 52 65 141 -5 45 -11 64 -21 64
-11 0 -14 -16 -14 -69 0 -81 -9 -92 -77 -96 -48 -2 -48 -2 -49 34 -1 20 -4 73
-8 118 -7 82 -7 82 21 100 15 10 37 26 48 36 26 24 136 77 161 77 21 0 51 16
44 24 -12 11 -59 12 -107 3z"/>
<path d="M696 648 c-3 -7 -15 -50 -27 -96 -26 -102 -49 -124 -85 -85 -36 38
-41 65 -15 81 29 20 28 66 -1 78 -40 18 -55 7 -61 -44 -6 -53 2 -112 14 -112
5 0 9 -5 9 -11 0 -21 54 -59 83 -59 21 0 93 66 106 99 15 36 10 153 -6 159 -7
2 -15 -2 -17 -10z"/>
<path d="M1002 615 c-24 -53 -2 -149 46 -194 29 -29 72 -42 72 -23 0 5 10 14
23 21 39 21 57 63 57 130 0 48 -3 61 -15 61 -11 0 -15 -12 -15 -44 0 -65 -24
-125 -51 -126 -23 0 -51 44 -61 96 -11 62 -27 104 -38 104 -4 0 -12 -11 -18
-25z"/>
</g>
</svg>
