<svg version="1.0" xmlns="http://www.w3.org/2000/svg"
 width="66.000000pt" height="86.000000pt" viewBox="0 0 66.000000 86.000000"
 preserveAspectRatio="xMidYMid meet">
<metadata>
Created by potrace 1.15, written by Peter Selinger 2001-2017
</metadata>
<g transform="translate(0.000000,86.000000) scale(0.100000,-0.100000)"
fill="#000000" stroke="none">
<path d="M363 728 c-5 -7 -13 -21 -16 -30 -5 -15 -19 -18 -87 -18 -67 0 -83
-3 -100 -20 -21 -21 -23 -30 -20 -69 2 -25 -14 -41 -42 -41 -13 0 -18 11 -20
48 -2 34 -7 47 -18 47 -12 0 -16 -20 -18 -104 -2 -65 1 -108 8 -115 15 -15 30
10 30 51 0 26 5 34 24 39 14 3 30 3 35 -1 13 -7 14 -68 4 -179 -6 -76 -6 -77
-32 -74 -23 3 -26 8 -29 51 -2 33 -7 47 -18 47 -11 0 -14 -19 -15 -97 0 -54
-4 -120 -9 -148 -5 -29 -4 -54 1 -59 17 -19 31 12 36 81 6 74 15 93 45 93 19
0 20 -6 17 -107 -4 -93 -2 -108 12 -111 25 -5 33 95 30 363 -2 183 0 234 11
249 13 16 35 19 206 24 107 3 195 9 199 15 11 18 -22 27 -99 27 -72 0 -77 1
-80 23 -3 25 -39 35 -55 15z"/>
<path d="M227 584 c-15 -15 7 -24 58 -24 54 0 80 -15 54 -31 -8 -5 -35 -9 -61
-9 -36 0 -48 -4 -48 -15 0 -12 13 -15 61 -15 57 0 60 -1 57 -22 -3 -20 -11
-24 -55 -28 -56 -6 -69 -12 -58 -30 5 -7 25 -9 62 -4 50 6 55 5 51 -12 -3 -15
-16 -21 -68 -27 -70 -9 -75 -11 -65 -26 9 -15 95 -14 128 2 53 24 74 188 30
232 -15 15 -133 22 -146 9z"/>
<path d="M437 583 c-17 -16 -3 -22 56 -25 47 -2 62 -7 62 -18 0 -11 -15 -16
-58 -20 -80 -7 -77 -24 6 -28 87 -4 85 -23 -3 -37 -86 -14 -92 -35 -10 -35 52
0 61 -2 58 -17 -2 -12 -20 -20 -57 -27 -79 -16 -82 -40 -5 -31 33 4 66 8 74
11 28 7 43 48 48 125 6 98 -4 109 -97 109 -37 0 -71 -3 -74 -7z"/>
<path d="M313 283 c-61 -5 -83 -26 -83 -83 0 -20 -5 -62 -11 -94 -8 -43 -7
-61 1 -70 22 -21 40 23 40 95 0 92 11 119 49 119 16 0 31 -6 34 -12 2 -7 2
-55 -1 -105 -3 -56 -1 -93 5 -93 25 0 33 28 33 116 0 90 0 92 25 98 44 11 48
1 42 -110 -4 -86 -2 -104 9 -104 23 0 36 50 32 130 -3 75 -3 75 28 78 28 3 32
0 38 -29 3 -17 6 -65 6 -105 0 -66 2 -74 19 -74 26 0 31 19 31 116 0 77 -2 87
-25 109 -23 23 -30 25 -122 23 -54 -1 -122 -3 -150 -5z"/>
</g>
</svg>
