<svg version="1.0" xmlns="http://www.w3.org/2000/svg"
 width="68.000000pt" height="94.000000pt" viewBox="0 0 68.000000 94.000000"
 preserveAspectRatio="xMidYMid meet">
<metadata>
Created by potrace 1.15, written by Peter Selinger 2001-2017
</metadata>
<g transform="translate(0.000000,94.000000) scale(0.100000,-0.100000)"
fill="#000000" stroke="none">
<path d="M212 671 c-30 -22 -45 -44 -62 -88 -29 -76 -21 -113 31 -155 39 -32
39 -32 5 -60 -20 -16 -37 -42 -41 -60 -4 -18 -13 -40 -19 -50 -17 -29 23 -132
54 -136 17 -3 21 0 17 12 -3 8 -9 48 -12 88 -5 65 -3 78 18 113 24 40 24 40
93 40 38 1 88 6 111 13 75 22 133 100 133 178 0 50 -66 113 -135 129 -27 6
-24 2 20 -29 27 -20 53 -44 57 -53 10 -27 9 -102 -2 -123 -13 -24 -90 -70
-117 -70 -16 0 -19 5 -16 33 8 68 12 75 48 87 42 14 37 30 -9 30 -31 0 -34 3
-40 40 -8 51 -22 51 -30 0 -6 -37 -9 -41 -51 -52 -25 -7 -45 -15 -45 -19 0 -3
23 -9 51 -13 51 -7 51 -7 45 -38 -3 -17 -6 -39 -6 -49 0 -29 -52 -25 -89 7
-59 50 -50 150 19 205 67 54 43 70 -28 20z"/>
<path d="M447 376 c-10 -14 -24 -26 -32 -26 -28 0 -83 -64 -90 -105 -11 -68
-13 -71 -35 -49 -11 11 -24 41 -29 68 -8 44 -25 76 -35 65 -2 -2 -1 -37 3 -78
9 -91 23 -105 94 -96 26 3 60 11 75 17 27 11 27 11 -6 20 -18 5 -35 15 -38 23
-12 31 81 143 110 132 12 -5 16 -22 16 -72 0 -83 -16 -122 -81 -190 -79 -84
-33 -67 62 23 37 34 50 55 62 100 20 73 13 112 -27 158 -32 37 -32 37 -49 10z"/>
</g>
</svg>
