<svg version="1.0" xmlns="http://www.w3.org/2000/svg"
 width="61.000000pt" height="77.000000pt" viewBox="0 0 61.000000 77.000000"
 preserveAspectRatio="xMidYMid meet">
<metadata>
Created by potrace 1.15, written by Peter Selinger 2001-2017
</metadata>
<g transform="translate(0.000000,77.000000) scale(0.100000,-0.100000)"
fill="#000000" stroke="none">
<path d="M295 608 c-21 -93 -25 -122 -25 -193 0 -80 0 -80 -40 -93 -22 -6 -46
-12 -54 -12 -18 0 -116 -43 -116 -51 0 -3 9 -16 20 -28 16 -20 26 -22 67 -18
26 2 57 7 68 11 12 4 28 1 39 -7 18 -13 18 -15 -9 -55 -15 -23 -37 -44 -49
-47 -11 -3 -39 -10 -61 -16 -22 -6 -48 -15 -57 -20 -10 -5 -29 -9 -43 -9 -28
0 -29 -3 -15 -29 12 -24 72 -35 113 -22 18 5 77 12 132 15 361 20 345 17 345
56 0 34 -6 37 -120 46 -63 5 -90 11 -102 25 -22 22 -23 49 -3 49 9 0 25 9 37
20 14 13 36 20 59 20 21 0 47 8 59 18 23 19 23 19 1 39 -23 21 -69 33 -132 33
-37 0 -37 0 -44 93 -3 50 -13 116 -22 145 -16 54 -39 68 -48 30z"/>
</g>
</svg>
