<svg version="1.0" xmlns="http://www.w3.org/2000/svg"
 width="67.000000pt" height="90.000000pt" viewBox="0 0 67.000000 90.000000"
 preserveAspectRatio="xMidYMid meet">
<metadata>
Created by potrace 1.15, written by Peter Selinger 2001-2017
</metadata>
<g transform="translate(0.000000,90.000000) scale(0.100000,-0.100000)"
fill="#000000" stroke="none">
<path d="M516 723 c-3 -4 -6 -16 -6 -28 0 -34 -18 -43 -102 -47 -43 -2 -83 -9
-89 -15 -7 -7 -14 -37 -17 -67 -4 -55 -4 -55 -54 -72 -84 -28 -98 -4 -47 78
33 55 35 94 6 112 -21 13 -37 -5 -37 -45 0 -15 -8 -37 -18 -50 -24 -33 -44
-93 -36 -113 7 -17 65 -46 93 -46 9 0 29 7 45 15 55 29 56 27 56 -114 0 -130
0 -130 -47 -133 -35 -2 -48 -7 -48 -18 0 -12 20 -16 110 -18 122 -3 155 2 155
23 0 10 -16 15 -62 17 -63 3 -63 3 -68 132 -3 70 -2 132 1 137 10 17 104 22
178 9 40 -7 74 -10 77 -7 2 2 2 11 -2 20 -10 26 -73 40 -162 36 -82 -4 -82 -4
-82 28 0 40 21 53 89 53 27 0 61 4 75 10 27 10 42 46 32 78 -7 21 -30 35 -40
25z"/>
<path d="M141 380 c-46 -33 -59 -56 -44 -71 7 -7 26 1 57 23 39 27 49 30 56
18 9 -15 -10 -54 -61 -120 -47 -62 -63 -147 -35 -185 23 -32 43 -4 48 70 6 68
44 159 80 191 24 22 23 45 -3 78 -27 34 -47 33 -98 -4z"/>
<path d="M444 378 c-43 -46 -37 -95 16 -143 29 -26 41 -57 49 -125 5 -46 9
-55 26 -55 17 0 20 8 23 49 5 71 -2 88 -59 150 -38 42 -49 60 -44 76 8 25 66
28 85 5 16 -19 55 -16 55 5 0 16 -58 47 -103 56 -20 4 -33 -1 -48 -18z"/>
</g>
</svg>
