<svg version="1.0" xmlns="http://www.w3.org/2000/svg"
 width="77.000000pt" height="81.000000pt" viewBox="0 0 77.000000 81.000000"
 preserveAspectRatio="xMidYMid meet">
<metadata>
Created by potrace 1.15, written by Peter Selinger 2001-2017
</metadata>
<g transform="translate(0.000000,81.000000) scale(0.100000,-0.100000)"
fill="#000000" stroke="none">
<path d="M373 727 c-4 -7 -7 -130 -6 -274 3 -242 2 -262 -15 -267 -9 -2 -70
-8 -136 -12 -130 -7 -168 -14 -174 -32 -8 -26 44 -36 130 -24 46 7 106 12 134
12 49 0 51 -1 50 -27 -1 -28 -2 -28 -76 -31 -101 -4 -152 -18 -148 -40 4 -20
78 -28 108 -12 10 5 104 10 211 11 146 1 196 4 206 14 22 22 -2 29 -123 33
-104 4 -113 6 -118 26 -12 43 -9 44 92 46 53 1 125 3 159 4 70 1 97 17 72 41
-13 13 -36 14 -164 6 -82 -5 -153 -7 -157 -5 -4 3 -7 118 -7 257 1 139 0 257
0 263 -1 17 -29 25 -38 11z"/>
</g>
</svg>
