<svg version="1.0" xmlns="http://www.w3.org/2000/svg"
 width="70.000000pt" height="82.000000pt" viewBox="0 0 70.000000 82.000000"
 preserveAspectRatio="xMidYMid meet">
<metadata>
Created by potrace 1.15, written by Peter Selinger 2001-2017
</metadata>
<g transform="translate(0.000000,82.000000) scale(0.100000,-0.100000)"
fill="#000000" stroke="none">
<path d="M466 684 c-3 -9 -6 -46 -6 -83 0 -67 0 -67 -45 -79 -73 -19 -55 -33
43 -31 117 3 132 -2 132 -50 0 -55 -19 -67 -66 -41 -47 24 -135 28 -154 5 -16
-19 -6 -22 77 -27 62 -4 96 -20 87 -42 -7 -18 -71 -54 -168 -94 -97 -40 -128
-70 -60 -57 70 12 144 43 195 80 28 20 54 34 57 30 3 -3 7 -43 8 -88 2 -45 3
-85 4 -89 1 -18 31 -6 42 16 8 19 7 48 -4 120 -14 90 -14 96 4 113 11 11 21
40 24 69 6 47 4 52 -21 72 -17 14 -42 22 -66 22 -44 0 -49 5 -42 43 5 24 10
27 43 27 51 0 70 8 70 31 0 16 -6 17 -50 12 -49 -6 -50 -5 -61 26 -12 33 -33
41 -43 15z"/>
<path d="M167 644 c-3 -4 3 -24 13 -45 11 -21 20 -45 20 -54 0 -25 -72 -97
-117 -116 -72 -31 -50 -51 31 -28 26 7 42 7 49 0 5 -5 11 -61 12 -123 2 -113
16 -191 37 -204 22 -14 155 -34 224 -34 57 0 77 4 95 20 41 34 11 42 -133 36
-124 -6 -128 -5 -155 18 -28 24 -28 25 -29 158 -1 73 -6 144 -11 158 -8 20 -5
32 14 64 28 44 26 87 -8 130 -21 26 -31 31 -42 20z"/>
<path d="M296 628 c-3 -13 -6 -98 -6 -190 0 -139 2 -168 14 -168 21 0 24 20
27 165 4 184 2 215 -15 215 -7 0 -16 -10 -20 -22z"/>
</g>
</svg>
