<svg version="1.0" xmlns="http://www.w3.org/2000/svg"
 width="97.000000pt" height="129.000000pt" viewBox="0 0 97.000000 129.000000"
 preserveAspectRatio="xMidYMid meet">
<metadata>
Created by potrace 1.15, written by Peter Selinger 2001-2017
</metadata>
<g transform="translate(0.000000,129.000000) scale(0.100000,-0.100000)"
fill="#000000" stroke="none">
<path d="M668 988 c0 -90 -1 -171 0 -180 1 -14 -6 -18 -34 -18 -19 0 -49 -7
-65 -16 -29 -15 -30 -16 -12 -29 11 -9 44 -14 85 -15 105 0 164 -35 166 -98 1
-20 -2 -43 -7 -51 -9 -14 -14 -13 -61 14 -26 15 -150 21 -150 8 1 -25 48 -53
90 -53 17 0 39 -9 51 -21 22 -22 22 -22 -1 -39 -24 -18 -104 -40 -145 -40 -30
0 -54 -27 -32 -36 18 -7 129 0 170 11 27 7 27 7 27 -58 0 -107 31 -154 122
-185 77 -27 70 15 -12 68 -46 30 -50 35 -51 74 -2 101 3 142 21 161 9 11 23
30 29 42 15 29 18 163 4 188 -11 20 -53 45 -106 65 -25 9 -27 14 -25 55 0 25
5 48 10 51 4 3 8 13 8 23 0 17 48 41 83 41 9 0 17 5 17 10 0 6 7 10 15 10 9 0
15 9 15 21 0 21 -3 22 -65 16 -65 -6 -65 -6 -65 24 0 17 -5 40 -11 51 -12 23
-55 68 -64 68 -3 0 -6 -73 -7 -162z"/>
<path d="M881 1104 c0 -11 3 -14 6 -6 3 7 2 16 -1 19 -3 4 -6 -2 -5 -13z"/>
<path d="M82 1073 c2 -9 23 -27 48 -39 89 -45 100 -59 100 -129 0 -59 -2 -65
-33 -91 -18 -16 -59 -45 -91 -64 -71 -42 -109 -77 -101 -90 8 -12 65 -13 65
-1 0 4 27 20 60 35 32 15 62 31 65 36 4 6 12 10 19 10 19 0 34 -87 41 -225 12
-236 17 -300 24 -305 5 -3 11 -18 15 -34 4 -16 30 -51 59 -78 50 -48 52 -49
55 -25 2 17 -9 41 -32 72 -20 26 -38 56 -40 68 -10 45 -18 167 -22 307 -2 80
-8 156 -13 170 -18 46 -24 112 -11 120 6 4 14 40 17 81 6 75 6 75 -33 115 -50
51 -112 84 -159 84 -29 0 -36 -4 -33 -17z"/>
<path d="M510 1011 c0 -74 14 -114 38 -109 13 2 18 15 20 56 4 61 -15 112 -40
112 -15 0 -18 -9 -18 -59z"/>
<path d="M435 639 c-9 -14 -3 -136 10 -204 12 -60 12 -60 29 -27 13 25 16 54
14 129 -3 88 -5 96 -25 104 -13 5 -25 4 -28 -2z"/>
<path d="M452 219 c8 -24 61 -47 123 -54 33 -3 62 -7 65 -8 12 -3 50 15 50 24
0 19 -76 42 -159 47 -68 4 -83 2 -79 -9z"/>
<path d="M470 73 c0 -26 51 -39 162 -42 78 -2 98 1 112 15 33 33 14 39 -132
42 -131 2 -142 1 -142 -15z"/>
</g>
</svg>
