<svg version="1.0" xmlns="http://www.w3.org/2000/svg"
 width="71.000000pt" height="124.000000pt" viewBox="0 0 71.000000 124.000000"
 preserveAspectRatio="xMidYMid meet">
<metadata>
Created by potrace 1.15, written by Peter Selinger 2001-2017
</metadata>
<g transform="translate(0.000000,124.000000) scale(0.100000,-0.100000)"
fill="#000000" stroke="none">
<path d="M81 1071 c-11 -7 -10 -13 7 -31 11 -12 26 -45 34 -74 16 -62 15 -268
-1 -340 -12 -55 -30 -256 -24 -268 2 -4 6 -49 8 -100 5 -90 13 -129 42 -196
14 -33 15 -33 29 -13 13 18 13 27 0 73 -36 124 -55 378 -33 438 6 17 14 70 26
180 15 126 -3 255 -42 313 -20 29 -25 31 -46 18z"/>
<path d="M534 909 c7 -158 3 -179 -35 -179 -22 0 -25 -13 -6 -28 8 -7 24 -6
50 3 54 19 103 2 102 -35 -1 -33 -17 -100 -24 -100 -3 0 -13 9 -21 20 -15 21
-74 28 -85 10 -3 -5 -15 -10 -26 -10 -11 0 -19 -7 -19 -16 0 -16 19 -15 63 2
18 7 45 -20 53 -53 6 -21 0 -32 -29 -59 -20 -19 -40 -34 -46 -34 -6 0 -11 -4
-11 -10 0 -5 -6 -10 -14 -10 -14 0 -31 -29 -22 -38 9 -9 63 19 85 44 41 47 43
38 75 -241 11 -91 27 -156 39 -152 17 5 27 55 17 85 -13 45 -50 295 -50 344 0
19 9 51 20 73 15 29 20 59 20 119 0 84 -11 105 -56 106 -31 0 -39 18 -39 84 0
59 0 59 39 70 22 6 41 17 44 24 5 17 -27 27 -47 15 -27 -17 -41 -4 -41 38 0
44 -14 79 -31 79 -8 0 -9 -46 -5 -151z"/>
<path d="M358 1031 c-7 -12 -18 -21 -25 -21 -19 0 -35 -37 -31 -72 3 -32 3
-32 18 -3 18 34 52 70 75 79 9 3 15 12 13 19 -8 21 -36 19 -50 -2z"/>
<path d="M420 948 c-52 -60 -90 -113 -90 -127 0 -5 -5 -11 -12 -13 -15 -5 21
-57 40 -58 14 0 16 26 2 35 -5 3 -10 13 -10 20 0 14 52 76 103 123 24 23 38
72 20 72 -5 0 -28 -23 -53 -52z"/>
<path d="M17 984 c-3 -3 2 -15 12 -25 22 -24 41 -84 41 -130 0 -29 -16 -123
-37 -217 -5 -19 -2 -23 13 -20 34 6 67 180 52 273 -12 80 -56 144 -81 119z"/>
<path d="M211 948 c0 -24 4 -65 8 -93 6 -35 4 -69 -6 -115 -22 -98 -26 -130
-15 -130 30 0 52 88 52 212 0 95 -13 168 -30 168 -6 0 -10 -19 -9 -42z"/>
<path d="M289 876 c-15 -10 -15 -15 -4 -36 12 -21 15 -23 20 -8 4 9 5 26 3 37
-2 16 -6 18 -19 7z"/>
<path d="M438 801 c-51 -39 -64 -67 -25 -55 35 10 87 53 87 71 0 24 -16 20
-62 -16z"/>
<path d="M380 658 c-89 -18 -120 -29 -120 -40 0 -7 18 -9 58 -4 134 15 157 21
157 36 0 18 -34 21 -95 8z"/>
<path d="M278 569 c-9 -6 -6 -13 11 -28 20 -18 21 -22 9 -40 -8 -11 -26 -30
-41 -41 -30 -24 -36 -50 -11 -50 17 0 84 67 84 83 0 17 29 37 54 37 22 0 26
-4 26 -30 0 -16 -4 -30 -8 -30 -14 0 -52 -80 -52 -109 0 -29 -31 -51 -70 -51
-11 0 -20 -4 -20 -10 0 -11 17 -13 63 -10 26 1 27 0 27 -53 0 -60 -8 -67 -76
-67 -30 0 -32 3 -44 53 -7 28 -15 116 -17 195 -2 78 -8 142 -12 142 -24 0 -32
-183 -13 -315 11 -77 18 -101 41 -127 12 -14 17 -14 25 -4 14 17 112 36 183
36 46 0 54 3 51 18 -2 13 -15 18 -51 20 -48 3 -48 3 -45 55 3 51 4 52 38 57
23 3 36 11 38 23 3 14 -2 18 -20 17 -52 -5 -58 -1 -58 33 0 26 6 37 26 47 51
28 61 120 16 134 -38 12 -142 22 -154 15z"/>
<path d="M25 435 c-8 -99 2 -305 14 -305 4 0 8 -12 9 -27 2 -25 16 -42 35 -43
10 0 9 54 -2 65 -16 17 -24 96 -25 249 -1 103 -5 151 -13 153 -7 3 -13 -26
-18 -92z"/>
</g>
</svg>
