<svg version="1.0" xmlns="http://www.w3.org/2000/svg"
 width="55.000000pt" height="121.000000pt" viewBox="0 0 55.000000 121.000000"
 preserveAspectRatio="xMidYMid meet">
<metadata>
Created by potrace 1.15, written by Peter Selinger 2001-2017
</metadata>
<g transform="translate(0.000000,121.000000) scale(0.100000,-0.100000)"
fill="#000000" stroke="none">
<path d="M248 918 c-3 -7 -1 -40 4 -73 15 -105 15 -100 -14 -103 -25 -3 -28 0
-28 25 0 37 -22 109 -38 125 -10 10 -14 10 -21 0 -10 -17 -3 -145 11 -190 9
-32 11 -32 61 -30 51 3 52 2 55 -27 3 -29 0 -31 -50 -43 -58 -13 -74 -24 -63
-42 5 -8 27 -11 66 -8 42 3 59 1 59 -8 0 -7 3 -19 6 -28 3 -9 0 -18 -7 -20
-113 -32 -115 -35 -104 -119 7 -64 33 -127 52 -127 30 0 0 -111 -34 -125 -33
-12 11 -31 78 -33 35 -1 67 -6 73 -12 13 -13 73 -13 81 -1 6 11 -18 38 -44 46
-20 6 -65 101 -55 116 3 5 20 9 37 9 21 0 45 10 66 28 30 24 33 32 33 79 -1
65 -15 88 -74 116 -42 20 -48 26 -48 55 0 26 4 32 23 33 37 2 42 4 43 14 3 21
-9 35 -30 35 -31 0 -45 12 -52 47 -6 29 -4 31 30 37 55 11 76 39 70 95 -8 66
-24 103 -43 99 -12 -3 -17 -18 -19 -71 -3 -58 -5 -67 -22 -67 -20 0 -25 11
-35 76 -7 43 -38 104 -54 104 -5 0 -11 -6 -13 -12z m122 -477 c0 -5 7 -11 16
-13 9 -2 22 -21 30 -43 17 -51 18 -47 -6 -73 -36 -38 -147 -23 -168 24 -17 37
-15 85 6 100 19 15 122 19 122 5z m-70 -281 c0 -5 -4 -10 -10 -10 -5 0 -10 5
-10 10 0 6 5 10 10 10 6 0 10 -4 10 -10z"/>
<path d="M283 403 c-24 -51 -18 -63 32 -63 39 0 47 4 57 26 16 35 0 58 -43 62
-29 2 -36 -2 -46 -25z"/>
</g>
</svg>
