<svg version="1.0" xmlns="http://www.w3.org/2000/svg"
 width="77.000000pt" height="193.000000pt" viewBox="0 0 77.000000 193.000000"
 preserveAspectRatio="xMidYMid meet">
<metadata>
Created by potrace 1.15, written by Peter Selinger 2001-2017
</metadata>
<g transform="translate(0.000000,193.000000) scale(0.100000,-0.100000)"
fill="#000000" stroke="none">
<path d="M199 1833 c-11 -12 -14 -58 -14 -192 0 -204 9 -250 70 -366 43 -81
43 -81 11 -101 -17 -11 -55 -30 -83 -43 -29 -14 -53 -28 -53 -33 0 -4 -7 -8
-15 -8 -9 0 -32 -7 -53 -15 -29 -13 -34 -18 -22 -25 15 -10 61 -4 90 10 8 5
30 14 48 20 17 7 32 16 32 21 0 5 5 9 11 9 6 0 23 9 38 19 48 35 72 35 118 2
23 -17 55 -33 70 -37 15 -3 55 -15 87 -25 98 -31 258 -22 205 12 -8 5 -40 9
-71 9 -32 0 -58 4 -58 8 0 4 -15 9 -32 10 -73 6 -161 41 -181 73 -7 11 3 28
43 69 28 30 58 71 66 90 18 42 36 277 28 375 -8 111 -14 135 -30 135 -12 0
-14 -27 -14 -173 1 -169 -13 -307 -31 -307 -5 0 -9 -11 -9 -23 0 -22 -63 -108
-72 -97 -2 3 -1 55 3 115 9 135 5 433 -5 458 -5 10 -14 16 -20 14 -8 -3 -12
-88 -13 -287 -2 -156 -7 -288 -12 -293 -5 -5 -23 15 -45 52 -53 91 -70 196
-61 382 7 148 2 177 -26 142z"/>
<path d="M265 996 c-47 -15 -115 -81 -115 -111 0 -37 22 -87 51 -118 45 -47
45 -46 13 -467 -2 -30 -9 -94 -15 -141 -11 -86 -11 -86 -62 -95 -53 -9 -72
-28 -40 -38 11 -3 73 -1 139 6 65 6 160 12 209 12 121 1 126 17 14 40 -24 5
-27 11 -33 68 -4 35 -6 70 -6 78 0 257 8 472 17 478 6 4 25 29 42 56 25 40 31
61 31 104 0 48 -4 58 -32 86 -53 52 -130 67 -213 42z m180 -66 c42 -39 29
-105 -32 -168 -14 -15 -132 -19 -142 -5 -3 4 -15 13 -25 19 -11 6 -24 19 -30
30 -6 10 -15 22 -20 25 -15 11 16 97 39 108 64 34 170 29 210 -9z m-61 -343
c5 -91 8 -248 8 -466 0 -36 -17 -45 -92 -49 -70 -4 -70 -4 -65 44 3 27 7 87
11 134 3 47 9 109 15 139 5 30 9 73 9 95 0 23 5 82 12 131 12 90 12 90 54 87
41 -4 41 -4 48 -115z"/>
</g>
</svg>
