<svg version="1.0" xmlns="http://www.w3.org/2000/svg"
 width="71.000000pt" height="87.000000pt" viewBox="0 0 71.000000 87.000000"
 preserveAspectRatio="xMidYMid meet">
<metadata>
Created by potrace 1.15, written by Peter Selinger 2001-2017
</metadata>
<g transform="translate(0.000000,87.000000) scale(0.100000,-0.100000)"
fill="#000000" stroke="none">
<path d="M184 709 c-13 -22 18 -34 89 -34 68 0 72 -1 75 -23 4 -24 4 -24 -120
-21 -110 3 -123 2 -126 -14 -3 -15 9 -17 122 -17 126 0 126 0 126 -24 0 -21
-5 -24 -61 -30 -34 -3 -79 -6 -101 -6 -30 0 -40 -5 -48 -22 -9 -23 -30 -315
-30 -427 0 -53 2 -61 19 -61 25 0 31 26 31 152 0 58 3 113 6 122 5 13 23 16
95 16 89 0 89 0 89 -55 0 -62 -1 -63 -104 -67 -37 -2 -61 -8 -64 -15 -2 -9 7
-13 30 -13 18 0 57 -3 86 -6 52 -7 52 -7 46 -71 -7 -64 -7 -65 17 -61 22 3 24
8 27 65 3 62 3 62 85 65 65 2 82 6 82 18 0 12 -17 16 -82 18 -83 3 -83 3 -83
62 0 60 0 60 75 60 67 0 79 3 100 25 47 46 26 187 -30 201 -15 4 -53 4 -86 0
-59 -6 -59 -6 -59 24 0 29 0 29 98 32 126 4 124 22 -3 26 -94 3 -95 3 -95 27
0 24 2 25 70 25 52 0 70 3 70 14 0 9 -21 15 -67 19 -110 11 -271 8 -279 -4z
m166 -229 c0 -30 0 -30 -90 -30 -93 0 -100 4 -80 41 9 16 22 19 90 19 80 0 80
0 80 -30z m188 18 c7 -7 12 -20 12 -30 0 -16 -10 -18 -80 -18 -80 0 -80 0 -80
30 0 30 0 30 68 30 40 0 73 -5 80 -12z m-188 -108 c0 -30 0 -30 -84 -30 -68 0
-85 3 -90 16 -12 32 13 44 95 44 79 0 79 0 79 -30z m196 15 c12 -31 -15 -45
-87 -45 -69 0 -69 0 -69 30 0 30 0 30 75 30 58 0 77 -3 81 -15z"/>
<path d="M452 283 c-34 -7 -21 -28 19 -31 38 -3 65 10 55 27 -7 11 -30 12 -74
4z"/>
<path d="M195 270 c-7 -11 34 -23 66 -18 12 2 24 9 27 16 5 15 -84 17 -93 2z"/>
<path d="M203 98 c2 -8 21 -13 47 -13 26 0 45 5 48 13 2 8 -11 12 -48 12 -37
0 -50 -4 -47 -12z"/>
<path d="M430 100 c0 -15 49 -32 79 -28 15 2 27 10 29 21 3 14 -5 17 -52 17
-32 0 -56 -4 -56 -10z"/>
<path d="M108 3 c7 -3 16 -2 19 1 4 3 -2 6 -13 5 -11 0 -14 -3 -6 -6z"/>
</g>
</svg>
