<svg version="1.0" xmlns="http://www.w3.org/2000/svg"
 width="73.000000pt" height="85.000000pt" viewBox="0 0 73.000000 85.000000"
 preserveAspectRatio="xMidYMid meet">
<metadata>
Created by potrace 1.15, written by Peter Selinger 2001-2017
</metadata>
<g transform="translate(0.000000,85.000000) scale(0.100000,-0.100000)"
fill="#000000" stroke="none">
<path d="M488 754 c-6 -6 -78 -12 -243 -20 -143 -7 -178 -15 -173 -41 3 -18
108 -47 137 -38 9 2 68 7 131 10 63 4 137 11 164 16 27 5 68 9 91 9 27 0 47 6
56 16 22 26 -14 45 -81 42 -30 -1 -60 1 -66 5 -6 3 -13 4 -16 1z"/>
<path d="M165 512 c-36 -3 -93 -31 -99 -48 -10 -25 59 -35 240 -34 99 0 191 3
205 6 13 2 45 7 71 11 50 6 69 27 45 51 -11 11 -59 14 -223 15 -115 1 -222 1
-239 -1z"/>
<path d="M475 309 c-125 -11 -102 -10 -225 -8 -76 1 -115 -3 -142 -14 -41 -17
-44 -22 -25 -41 26 -27 58 -38 72 -26 7 6 47 11 92 10 43 0 87 -1 98 -1 11 0
61 0 112 0 52 0 94 5 98 11 3 5 30 10 60 10 34 0 55 5 58 13 7 22 -5 47 -23
47 -10 0 -30 2 -46 4 -16 2 -74 0 -129 -5z"/>
<path d="M525 108 c-44 -4 -145 -9 -223 -12 -125 -3 -150 -7 -188 -26 -35 -19
-44 -28 -44 -49 0 -16 3 -21 8 -14 5 7 34 12 77 12 92 0 386 19 453 30 51 7
76 24 69 46 -5 16 -65 21 -152 13z"/>
</g>
</svg>
