<svg version="1.0" xmlns="http://www.w3.org/2000/svg"
 width="111.000000pt" height="97.000000pt" viewBox="0 0 111.000000 97.000000"
 preserveAspectRatio="xMidYMid meet">
<metadata>
Created by potrace 1.15, written by Peter Selinger 2001-2017
</metadata>
<g transform="translate(0.000000,97.000000) scale(0.100000,-0.100000)"
fill="#000000" stroke="none">
<path d="M142 820 c-18 -4 -36 -10 -39 -14 -11 -10 17 -34 50 -41 31 -8 191
-14 307 -13 30 0 60 0 65 0 238 -12 380 -8 409 14 18 12 18 14 1 31 -15 15
-40 18 -174 20 -86 1 -253 4 -371 6 -118 2 -230 1 -248 -3z"/>
<path d="M678 599 c-6 -4 -119 -7 -253 -7 -225 0 -245 -2 -286 -21 -23 -12
-49 -21 -56 -21 -7 0 -13 -8 -13 -19 0 -15 11 -20 58 -26 31 -4 86 -7 122 -5
36 1 209 3 385 4 276 1 325 4 358 18 37 17 50 49 26 63 -21 13 -323 25 -341
14z"/>
<path d="M280 352 c-130 -2 -170 -12 -170 -43 0 -13 12 -21 39 -29 46 -12 499
-11 507 1 3 5 64 7 137 4 73 -2 147 -2 165 2 36 6 53 30 32 43 -33 21 -334 30
-710 22z"/>
<path d="M397 144 c-3 -3 -61 -8 -128 -11 -86 -3 -131 -9 -153 -20 -31 -16
-31 -16 -2 -24 57 -16 136 -22 136 -11 0 8 104 10 348 8 191 -2 358 1 371 6
25 9 25 9 0 31 -23 22 -30 23 -295 25 -149 1 -274 -1 -277 -4z"/>
<path d="M690 20 c0 -5 5 -10 10 -10 6 0 10 5 10 10 0 6 -4 10 -10 10 -5 0
-10 -4 -10 -10z"/>
</g>
</svg>
