<svg version="1.0" xmlns="http://www.w3.org/2000/svg"
 width="64.000000pt" height="88.000000pt" viewBox="0 0 64.000000 88.000000"
 preserveAspectRatio="xMidYMid meet">
<metadata>
Created by potrace 1.15, written by Peter Selinger 2001-2017
</metadata>
<g transform="translate(0.000000,88.000000) scale(0.100000,-0.100000)"
fill="#000000" stroke="none">
<path d="M289 575 c-4 -3 -35 -12 -70 -19 -73 -15 -92 -39 -38 -50 81 -16 272
3 281 29 1 5 -8 15 -22 21 -29 14 -142 28 -151 19z"/>
<path d="M258 404 c-4 -3 -37 -9 -75 -12 -51 -5 -68 -11 -68 -22 0 -19 148
-43 220 -35 146 16 206 30 203 45 -2 8 -17 18 -33 21 -38 8 -240 11 -247 3z"/>
<path d="M245 243 c-121 -17 -140 -47 -36 -57 60 -6 216 6 264 20 28 9 20 31
-14 38 -33 6 -163 6 -214 -1z"/>
<path d="M264 94 c-6 -3 -47 -8 -90 -12 -70 -6 -79 -9 -79 -27 0 -17 9 -21 68
-28 68 -8 261 3 342 20 30 6 40 13 40 28 0 19 -8 20 -135 22 -74 1 -140 0
-146 -3z"/>
</g>
</svg>
