<svg version="1.0" xmlns="http://www.w3.org/2000/svg"
 width="93.000000pt" height="163.000000pt" viewBox="0 0 93.000000 163.000000"
 preserveAspectRatio="xMidYMid meet">
<metadata>
Created by potrace 1.15, written by Peter Selinger 2001-2017
</metadata>
<g transform="translate(0.000000,163.000000) scale(0.100000,-0.100000)"
fill="#000000" stroke="none">
<path d="M425 1434 c-77 -7 -153 -16 -168 -20 -37 -9 -32 -36 10 -45 29 -6 46
-21 116 -105 26 -31 26 -31 -6 -60 -106 -95 -105 -94 -162 -94 -44 0 -56 -4
-65 -20 -8 -16 -7 -23 9 -36 22 -20 98 -29 116 -14 12 10 38 -17 103 -103 26
-36 26 -41 10 -59 -7 -7 -25 -29 -39 -48 -51 -68 -66 -80 -95 -80 -46 0 -104
-20 -104 -35 0 -30 73 -60 82 -33 2 6 24 13 49 14 24 2 70 7 102 10 58 7 58 7
55 -52 -3 -68 19 -58 -243 -104 -123 -21 -138 -25 -149 -42 -14 -23 4 -54 30
-51 172 21 188 22 201 12 10 -9 13 -8 13 4 0 9 12 17 33 20 17 3 47 8 66 12
20 4 36 2 40 -4 4 -6 5 -86 4 -178 -2 -97 1 -181 7 -199 6 -17 26 -46 45 -63
29 -26 42 -31 84 -31 45 0 53 3 74 32 50 67 87 170 87 243 0 19 4 36 9 39 17
11 19 71 3 99 -26 44 -46 31 -50 -33 -1 -30 -8 -58 -15 -62 -7 -5 -48 -7 -92
-6 -80 3 -80 3 -76 83 3 87 11 105 46 105 12 0 39 7 59 15 20 8 38 15 41 15 3
0 6 0 8 1 1 0 16 3 32 5 137 21 193 43 195 75 1 17 -29 30 -47 20 -25 -13
-122 -33 -169 -35 -21 0 -41 -4 -44 -7 -8 -10 -97 -17 -110 -9 -9 6 -9 20 0
63 13 55 13 55 69 62 131 15 172 48 67 53 -56 3 -60 5 -111 59 -59 63 -60 68
-4 128 16 16 29 35 29 40 0 13 57 58 84 67 12 3 38 6 59 7 28 1 37 5 37 19 0
38 -16 46 -93 45 -74 -1 -74 -1 -121 42 -42 38 -47 45 -37 64 7 12 15 21 19
21 4 0 33 24 65 54 55 50 62 54 118 58 64 5 83 15 73 41 -5 13 -22 16 -107 15
-56 -1 -165 -7 -242 -14z m85 -64 c0 -18 -45 -80 -58 -80 -16 0 -32 15 -56 52
-18 27 -18 27 36 31 29 2 59 4 66 5 6 1 12 -3 12 -8z m-35 -200 c18 -19 17
-20 -3 -20 -11 0 -24 -4 -27 -10 -9 -14 -55 -13 -55 2 0 18 31 48 50 48 9 0
25 -9 35 -20z m45 -105 c0 -17 -36 -73 -58 -89 -24 -19 -26 -19 -36 -2 -6 10
-21 30 -33 44 -38 45 -31 52 52 52 41 0 75 -2 75 -5z m-33 -247 c18 -18 33
-35 33 -38 0 -4 -16 -7 -36 -8 -20 -1 -44 -4 -53 -7 -9 -2 -22 -1 -30 4 -12 8
-10 16 13 45 15 20 30 36 34 36 3 0 21 -14 39 -32z m177 -565 c-9 -46 -37
-117 -49 -128 -15 -14 -53 -35 -62 -35 -5 0 -20 11 -35 24 -25 21 -28 30 -28
89 0 43 4 67 13 70 6 3 47 6 90 6 77 1 77 1 71 -26z"/>
</g>
</svg>
