<svg version="1.0" xmlns="http://www.w3.org/2000/svg"
 width="62.000000pt" height="86.000000pt" viewBox="0 0 62.000000 86.000000"
 preserveAspectRatio="xMidYMid meet">
<metadata>
Created by potrace 1.15, written by Peter Selinger 2001-2017
</metadata>
<g transform="translate(0.000000,86.000000) scale(0.100000,-0.100000)"
fill="#000000" stroke="none">
<path d="M168 756 c-45 -26 -68 -90 -68 -188 0 -78 -3 -90 -25 -116 -25 -30
-33 -62 -16 -62 18 0 65 75 78 124 7 28 13 74 13 102 0 46 4 55 31 78 26 22
40 26 98 26 82 0 161 10 161 20 0 12 -45 19 -150 25 -74 5 -101 2 -122 -9z"/>
<path d="M278 641 c-38 -39 -44 -41 -65 -30 -36 20 -38 4 -4 -46 39 -57 41
-97 6 -113 -33 -15 -63 -66 -71 -122 -7 -52 -26 -112 -48 -155 -10 -18 -12
-31 -6 -33 27 -9 73 67 84 138 4 25 12 59 18 75 22 59 27 59 80 5 61 -63 59
-85 -10 -147 -38 -34 -43 -42 -26 -43 11 0 38 13 61 30 39 29 41 29 57 11 22
-24 11 -44 -45 -84 -21 -16 -39 -32 -39 -37 0 -24 25 -17 69 20 78 66 102 27
29 -47 -27 -28 -37 -43 -26 -43 34 0 137 87 138 117 0 6 -27 40 -60 75 -56 59
-78 93 -67 104 10 10 94 -31 127 -62 34 -32 60 -43 60 -26 0 17 -60 101 -79
111 -11 6 -43 16 -73 22 -54 11 -98 33 -98 48 0 5 24 12 52 15 53 7 78 20 78
39 0 6 -15 7 -39 3 -21 -3 -53 -3 -70 0 -25 5 -31 12 -31 31 0 25 1 25 63 18
88 -10 99 -16 152 -84 26 -33 52 -58 56 -55 19 11 8 44 -28 87 -21 24 -42 52
-48 61 -13 22 -79 45 -132 46 -51 0 -59 10 -33 42 15 20 32 26 81 32 98 10 97
23 -4 33 -67 6 -67 6 -109 -36z"/>
</g>
</svg>
