<svg version="1.0" xmlns="http://www.w3.org/2000/svg"
 width="61.000000pt" height="91.000000pt" viewBox="0 0 61.000000 91.000000"
 preserveAspectRatio="xMidYMid meet">
<metadata>
Created by potrace 1.15, written by Peter Selinger 2001-2017
</metadata>
<g transform="translate(0.000000,91.000000) scale(0.100000,-0.100000)"
fill="#000000" stroke="none">
<path d="M302 718 c-6 -6 -38 -11 -71 -12 -34 0 -61 -5 -61 -9 0 -4 21 -17 46
-28 45 -21 66 -45 47 -58 -6 -3 -21 -28 -33 -56 -12 -27 -29 -63 -37 -78 -35
-66 22 -25 61 43 21 37 26 41 32 26 13 -33 -22 -211 -48 -252 -8 -12 30 -116
44 -122 14 -6 8 -54 -8 -66 -10 -8 -14 -23 -12 -41 3 -30 3 -30 21 8 19 38 34
46 55 25 16 -16 16 7 1 51 -9 25 -9 38 1 56 16 29 15 49 -2 150 -14 79 -13
195 1 195 4 0 13 -10 20 -22 11 -22 70 -72 60 -52 -3 5 -16 30 -28 56 -13 26
-32 56 -42 67 -11 11 -19 31 -19 43 0 21 5 24 52 26 40 2 55 -2 70 -18 25 -26
38 -25 38 3 0 36 -28 53 -95 56 -33 2 -65 7 -71 12 -6 5 -15 4 -22 -3z m8
-432 c0 -3 -4 -8 -10 -11 -5 -3 -10 -1 -10 4 0 6 5 11 10 11 6 0 10 -2 10 -4z"/>
<path d="M446 611 c-11 -17 -8 -326 4 -395 11 -71 28 -116 31 -86 1 8 3 119 4
245 3 223 0 244 -27 245 -4 0 -9 -4 -12 -9z"/>
</g>
</svg>
