<svg version="1.0" xmlns="http://www.w3.org/2000/svg"
 width="79.000000pt" height="127.000000pt" viewBox="0 0 79.000000 127.000000"
 preserveAspectRatio="xMidYMid meet">
<metadata>
Created by potrace 1.15, written by Peter Selinger 2001-2017
</metadata>
<g transform="translate(0.000000,127.000000) scale(0.100000,-0.100000)"
fill="#000000" stroke="none">
<path d="M220 1199 c-125 -9 -173 -23 -168 -48 3 -14 35 -16 284 -19 252 -2
283 -4 296 -20 20 -22 36 -112 44 -242 3 -58 8 -108 10 -112 3 -4 5 -75 5
-158 0 -142 1 -150 20 -150 10 0 19 -5 19 -12 0 -9 3 -9 11 -1 8 8 11 58 9
150 -1 76 -2 214 -2 308 0 143 -3 177 -19 221 -29 76 -61 87 -249 90 -80 1
-197 -2 -260 -7z"/>
<path d="M381 1031 c-8 -5 -14 -33 -16 -75 -4 -83 -22 -112 -120 -201 -41 -37
-75 -71 -75 -76 0 -15 38 -10 77 11 41 22 83 26 83 9 0 -5 5 -7 10 -4 10 6 14
-13 11 -55 -1 -23 -11 -50 -32 -92 -8 -17 6 -86 22 -102 20 -22 10 -114 -19
-168 -48 -91 -68 -122 -110 -165 -12 -13 -22 -28 -22 -33 0 -4 -4 -10 -8 -12
-5 -2 -12 -15 -16 -30 -11 -49 19 -33 86 45 35 40 77 90 93 110 28 38 28 38
56 -6 31 -50 133 -163 161 -178 49 -26 14 62 -54 135 -10 11 -18 24 -18 29 0
4 -13 27 -28 50 -42 63 -52 93 -52 150 0 36 6 60 20 77 27 34 27 112 1 137
-14 13 -19 32 -19 64 0 68 5 72 66 53 29 -10 52 -21 52 -26 0 -4 14 -8 30 -8
20 0 30 5 30 15 0 8 -3 15 -8 15 -4 0 -18 10 -32 23 -14 12 -41 34 -60 47 -62
43 -63 46 -71 152 -7 102 -14 123 -38 109z"/>
</g>
</svg>
