<svg version="1.0" xmlns="http://www.w3.org/2000/svg"
 width="49.000000pt" height="95.000000pt" viewBox="0 0 49.000000 95.000000"
 preserveAspectRatio="xMidYMid meet">
<metadata>
Created by potrace 1.15, written by Peter Selinger 2001-2017
</metadata>
<g transform="translate(0.000000,95.000000) scale(0.100000,-0.100000)"
fill="#000000" stroke="none">
<path d="M109 826 c-27 -13 -25 -4 -36 -246 -9 -176 -7 -260 6 -260 15 0 31
100 42 270 6 96 16 181 22 188 13 16 134 17 139 0 3 -7 1 -29 -5 -49 -7 -30
-17 -40 -58 -60 -32 -16 -49 -30 -49 -43 0 -15 6 -17 33 -14 17 3 40 8 50 13
14 6 17 2 17 -23 0 -17 6 -33 13 -35 10 -4 10 -6 0 -6 -7 -1 -13 -9 -13 -20 0
-10 -10 -25 -22 -34 -22 -15 -23 -16 -4 -30 17 -12 18 -22 12 -88 -6 -71 -42
-208 -57 -219 -7 -5 -39 -95 -39 -110 0 -6 7 -10 15 -10 8 0 15 9 15 19 0 11
5 23 10 26 5 3 10 15 10 26 0 20 15 51 38 80 7 9 14 25 16 35 2 11 7 32 11 47
7 26 8 27 20 10 7 -10 27 -58 45 -108 18 -49 39 -105 47 -122 15 -36 43 -44
43 -13 0 11 -4 20 -10 20 -5 0 -10 9 -10 20 0 11 -4 20 -10 20 -5 0 -10 11
-10 24 0 13 -11 48 -25 78 -14 29 -25 62 -25 73 0 11 -7 33 -15 49 -17 31 -20
116 -5 116 10 0 50 40 50 51 0 3 -13 9 -30 13 -26 5 -30 10 -29 38 1 44 12 81
25 85 6 2 24 -8 40 -22 36 -31 54 -32 54 -1 0 25 -56 76 -84 76 -13 0 -16 12
-16 54 0 53 0 53 62 60 65 6 94 20 62 29 -39 10 -322 5 -345 -7z"/>
</g>
</svg>
