<svg version="1.0" xmlns="http://www.w3.org/2000/svg"
 width="69.000000pt" height="81.000000pt" viewBox="0 0 69.000000 81.000000"
 preserveAspectRatio="xMidYMid meet">
<metadata>
Created by potrace 1.15, written by Peter Selinger 2001-2017
</metadata>
<g transform="translate(0.000000,81.000000) scale(0.100000,-0.100000)"
fill="#000000" stroke="none">
<path d="M191 689 c-30 -5 -60 -14 -68 -20 -29 -25 -12 -32 67 -27 95 6 105
-11 18 -28 -85 -17 -105 -37 -45 -47 60 -10 157 32 157 69 0 17 24 24 78 24
55 0 77 -12 69 -34 -5 -12 -20 -16 -60 -16 -58 0 -73 -9 -79 -50 -3 -23 -8
-26 -70 -32 -44 -4 -78 -14 -96 -27 -36 -25 -39 -45 -48 -299 -7 -184 -7 -184
17 -180 24 3 24 3 32 198 5 107 13 207 19 221 14 33 56 49 108 42 68 -9 46
-29 -40 -35 -23 -2 -35 -8 -35 -18 0 -11 14 -16 58 -18 49 -3 58 -6 55 -20 -2
-13 -17 -18 -60 -22 -58 -5 -86 -20 -74 -39 4 -6 25 -11 47 -11 33 0 39 -3 39
-21 0 -11 -16 -35 -35 -53 -35 -33 -35 -33 -35 -125 0 -90 1 -92 23 -89 20 3
22 9 25 86 3 77 5 83 27 92 30 11 47 42 43 78 -3 25 0 27 35 30 37 3 37 3 37
-35 0 -46 14 -63 52 -63 37 0 48 -28 48 -126 0 -56 3 -74 14 -74 30 0 39 29
34 114 -5 96 -21 130 -67 139 -25 5 -31 12 -31 32 0 23 3 25 49 25 28 0 52 4
55 8 12 20 -15 31 -84 34 -60 2 -75 6 -78 19 -2 13 8 17 57 21 66 5 76 10 68
33 -5 11 -22 15 -72 15 -51 0 -65 3 -65 15 0 12 15 15 75 15 67 0 75 2 75 19
0 24 -19 31 -86 31 -41 0 -54 4 -54 15 0 11 12 15 44 15 25 0 56 4 70 10 23 8
26 15 26 55 0 40 -3 47 -26 55 -31 12 -238 11 -313 -1z"/>
</g>
</svg>
