<svg version="1.0" xmlns="http://www.w3.org/2000/svg"
 width="77.000000pt" height="95.000000pt" viewBox="0 0 77.000000 95.000000"
 preserveAspectRatio="xMidYMid meet">
<metadata>
Created by potrace 1.15, written by Peter Selinger 2001-2017
</metadata>
<g transform="translate(0.000000,95.000000) scale(0.100000,-0.100000)"
fill="#000000" stroke="none">
<path d="M450 880 c-30 -5 -115 -8 -187 -9 -123 -1 -133 -2 -133 -20 0 -10 7
-24 15 -31 9 -7 13 -20 10 -28 -3 -8 -1 -20 5 -27 8 -9 8 -15 0 -20 -12 -7
-14 -233 -2 -252 4 -7 5 -34 2 -60 -5 -46 9 -155 21 -168 8 -7 25 62 34 135 4
30 8 123 9 205 2 83 4 157 5 166 1 13 21 19 101 29 56 7 104 10 107 6 3 -3
-26 -54 -66 -114 -39 -59 -71 -113 -71 -120 0 -23 19 -12 71 43 33 35 55 51
60 44 4 -6 6 -57 4 -113 -2 -88 -5 -108 -28 -151 -21 -39 -25 -58 -21 -85 4
-19 10 -37 14 -40 4 -3 13 -16 19 -28 11 -20 9 -32 -9 -77 -23 -57 -25 -135
-2 -85 12 27 47 70 56 70 3 0 6 -5 6 -10 0 -19 54 -93 58 -80 5 13 -14 83 -29
112 -15 28 -11 49 16 84 23 30 25 39 19 91 -4 32 -15 75 -25 95 -14 28 -19 59
-19 123 0 47 2 85 5 85 3 0 28 -23 55 -51 28 -29 53 -49 57 -46 3 4 -3 26 -14
49 -63 133 -82 179 -77 192 6 15 35 26 74 26 39 0 100 20 100 32 0 36 -99 47
-240 28z m40 -543 c0 -32 -28 -57 -41 -36 -11 18 -11 32 1 64 9 23 12 25 25
11 8 -8 15 -26 15 -39z m-54 -74 c-10 -10 -19 5 -10 18 6 11 8 11 12 0 2 -7 1
-15 -2 -18z"/>
</g>
</svg>
