<svg version="1.0" xmlns="http://www.w3.org/2000/svg"
 width="75.000000pt" height="111.000000pt" viewBox="0 0 75.000000 111.000000"
 preserveAspectRatio="xMidYMid meet">
<metadata>
Created by potrace 1.15, written by Peter Selinger 2001-2017
</metadata>
<g transform="translate(0.000000,111.000000) scale(0.100000,-0.100000)"
fill="#000000" stroke="none">
<path d="M277 1023 c-4 -3 -7 -37 -7 -75 0 -80 -11 -86 -61 -33 -19 20 -43 35
-56 35 -13 0 -23 -2 -23 -4 0 -26 88 -126 123 -139 15 -6 17 -25 17 -157 0
-82 -4 -150 -9 -150 -5 0 -14 7 -21 15 -7 8 -19 15 -27 15 -10 0 -12 6 -8 23
4 12 11 26 15 30 14 15 -20 65 -51 76 -24 8 -37 7 -59 -4 -35 -18 -36 -21 -45
-65 -8 -44 16 -76 66 -85 19 -3 57 -18 84 -33 49 -26 50 -28 53 -78 3 -48 1
-52 -22 -58 -32 -8 -50 0 -66 30 -7 13 -22 24 -33 24 -16 0 -18 -5 -13 -33 3
-17 9 -51 12 -75 8 -48 36 -81 86 -98 33 -11 33 -12 34 -74 2 -58 11 -79 37
-80 4 0 8 24 8 53 1 28 2 61 3 72 1 10 11 24 24 31 63 31 97 99 90 179 -4 52
-30 59 -43 13 -8 -26 -15 -33 -35 -33 -21 0 -26 5 -28 33 -5 49 33 83 103 95
70 12 80 17 92 54 19 63 -29 107 -94 86 -24 -8 -28 -15 -31 -54 -2 -36 -8 -46
-29 -56 -15 -7 -29 -10 -32 -7 -3 3 -6 47 -6 97 0 92 0 92 25 91 14 -1 50 -8
80 -16 30 -9 83 -21 117 -28 70 -14 75 -18 90 -75 7 -22 21 -74 32 -115 12
-41 21 -94 21 -117 0 -30 4 -43 14 -43 32 0 33 53 5 198 -27 139 -33 155 -72
171 -17 7 -41 16 -52 21 -11 5 -45 14 -75 20 -30 6 -71 15 -90 20 -19 5 -47
12 -62 15 -26 5 -28 9 -28 50 0 42 4 49 57 100 31 30 53 58 49 62 -4 4 -29 -4
-56 -18 -49 -26 -49 -26 -59 4 -6 16 -11 40 -11 52 0 24 -22 49 -33 38z m-123
-409 c22 -8 20 -41 -2 -53 -14 -7 -25 -6 -40 5 -18 13 -20 18 -9 34 12 21 25
24 51 14z m316 -50 c13 -34 13 -34 -15 -34 -21 0 -25 5 -25 30 0 38 26 41 40
4z m-200 -304 c0 -36 -24 -40 -51 -8 -27 30 -24 38 16 38 32 0 35 -2 35 -30z
m90 17 c0 -14 -20 -37 -32 -37 -4 0 -8 11 -8 25 0 18 5 25 20 25 11 0 20 -6
20 -13z"/>
<path d="M548 455 c-43 -28 -62 -78 -48 -125 12 -40 29 -56 78 -70 49 -15 81
-7 62 15 -7 8 -18 15 -26 15 -74 0 -97 96 -33 134 29 17 36 46 14 52 -5 2 -27
-8 -47 -21z"/>
<path d="M453 203 c-25 -5 -32 -33 -8 -33 34 0 63 -23 69 -55 8 -39 31 -62 77
-75 26 -8 37 -7 48 5 13 12 12 15 -5 20 -48 16 -69 34 -69 62 0 24 4 28 30 29
77 3 77 3 73 27 -3 21 -7 22 -98 23 -52 1 -105 -1 -117 -3z"/>
</g>
</svg>
