<svg version="1.0" xmlns="http://www.w3.org/2000/svg"
 width="93.000000pt" height="177.000000pt" viewBox="0 0 93.000000 177.000000"
 preserveAspectRatio="xMidYMid meet">
<metadata>
Created by potrace 1.15, written by Peter Selinger 2001-2017
</metadata>
<g transform="translate(0.000000,177.000000) scale(0.100000,-0.100000)"
fill="#000000" stroke="none">
<path d="M267 1518 c3 -51 9 -108 13 -125 7 -29 6 -33 -11 -33 -19 0 -79 50
-79 66 0 5 -11 22 -25 38 -14 16 -25 33 -25 38 0 4 -7 8 -15 8 -25 0 -13 -61
24 -130 25 -47 88 -90 130 -90 26 0 28 -5 37 -78 7 -62 7 -62 -24 -62 -23 0
-42 11 -72 40 -68 67 -99 74 -76 18 19 -45 93 -118 127 -125 16 -3 32 -10 35
-15 7 -11 -20 -71 -41 -88 -15 -12 -21 -51 -9 -62 7 -8 73 34 74 47 0 6 13 27
28 48 26 36 32 39 82 42 30 1 101 6 157 10 126 9 163 3 203 -35 31 -29 31 -30
36 -155 6 -125 6 -125 -68 -125 -88 0 -105 -11 -79 -49 38 -56 46 -93 45 -217
0 -99 2 -121 13 -117 43 17 66 166 40 260 -8 29 -12 55 -9 58 3 3 20 5 37 5
32 0 32 0 39 -96 4 -53 9 -101 12 -105 3 -5 14 -3 24 4 18 10 19 21 16 92 -22
412 -28 462 -64 503 -23 27 -100 39 -235 38 -112 -1 -112 -1 -86 54 50 104 59
151 35 176 -17 16 -26 18 -26 4 0 -5 -9 -33 -20 -62 -21 -57 -50 -95 -92 -122
-26 -17 -26 -17 -31 31 -2 26 -8 58 -12 70 -5 16 -2 23 12 27 11 4 26 19 33
34 7 15 21 44 32 65 33 64 22 207 -15 194 -8 -2 -11 -20 -9 -47 5 -54 -15
-128 -41 -157 -28 -32 -34 -29 -41 20 -19 133 -39 189 -68 195 -15 3 -16 -6
-11 -90z"/>
<path d="M636 889 c-22 -34 -44 -66 -50 -73 -16 -16 -36 -78 -36 -109 0 -15
18 -64 41 -109 37 -73 41 -90 41 -152 0 -76 10 -106 33 -106 8 0 15 1 16 3 0
1 2 36 5 78 6 78 -6 131 -43 203 -9 17 -20 39 -24 48 -11 22 -12 78 -1 78 4 0
18 18 32 40 14 22 28 40 31 40 4 0 12 14 19 30 7 17 16 30 21 30 5 0 9 6 9 13
0 15 -31 47 -46 47 -5 0 -27 -28 -48 -61z"/>
<path d="M56 877 c-55 -72 -22 -167 57 -167 34 0 46 -6 79 -41 33 -35 39 -47
36 -77 -3 -37 -3 -37 -63 -40 -119 -5 -155 -46 -160 -180 -2 -59 1 -77 17 -97
23 -29 48 -44 86 -51 115 -19 106 -12 112 -89 6 -77 13 -97 35 -88 11 4 15 22
15 72 0 66 0 66 73 89 41 12 81 30 89 39 46 54 57 198 19 252 -20 27 -32 33
-111 49 -34 8 -35 9 -32 50 3 51 46 97 101 107 71 13 100 43 101 101 0 45 -22
72 -77 93 -58 23 -105 -27 -105 -113 0 -28 -5 -60 -11 -71 -11 -22 -33 -45
-41 -45 -12 0 -46 45 -46 62 0 10 -5 18 -11 18 -7 0 -9 10 -5 26 12 46 -4 94
-38 115 -49 30 -90 25 -120 -14z m87 -31 c32 -28 34 -45 7 -74 -27 -29 -54
-28 -68 3 -16 35 -15 55 5 77 21 23 22 23 56 -6z m307 -52 c0 -13 -9 -28 -20
-34 -15 -8 -23 -6 -40 12 -26 28 -25 52 3 65 28 13 57 -9 57 -43z m-227 -293
c4 -1 7 -21 7 -46 0 -45 0 -45 -81 -45 -78 0 -80 1 -77 23 4 26 91 77 123 72
11 -2 23 -4 28 -4z m142 -13 c58 -38 75 -118 22 -104 -12 3 -39 6 -59 6 -38 0
-38 0 -38 54 0 50 6 62 33 65 4 1 23 -9 42 -21z m-178 -129 c43 -11 45 -13 39
-42 -3 -16 -6 -39 -6 -50 0 -18 -4 -19 -52 -14 -66 8 -103 34 -103 73 0 21 6
30 25 35 37 10 47 10 97 -2z m200 -23 c3 -3 0 -23 -7 -45 -10 -31 -19 -40 -43
-45 -55 -11 -57 -9 -57 42 0 27 3 52 7 55 7 8 91 2 100 -7z"/>
</g>
</svg>
