<svg version="1.0" xmlns="http://www.w3.org/2000/svg"
 width="70.000000pt" height="79.000000pt" viewBox="0 0 70.000000 79.000000"
 preserveAspectRatio="xMidYMid meet">
<metadata>
Created by potrace 1.15, written by Peter Selinger 2001-2017
</metadata>
<g transform="translate(0.000000,79.000000) scale(0.100000,-0.100000)"
fill="#000000" stroke="none">
<path d="M606 703 c-4 -4 -52 -10 -107 -13 -94 -6 -101 -8 -125 -35 -13 -15
-24 -40 -24 -55 0 -25 29 -74 55 -92 31 -23 49 8 19 33 -34 28 -40 89 -8 89 7
0 25 -20 40 -45 26 -45 54 -60 54 -29 0 9 -9 27 -20 41 -25 32 -25 43 -2 43 9
0 30 -16 45 -35 28 -35 67 -47 67 -21 0 7 -7 19 -15 26 -22 19 -18 33 15 52
17 9 30 24 30 33 0 16 -12 20 -24 8z"/>
<path d="M246 692 c-3 -6 3 -30 14 -53 24 -53 25 -82 4 -179 -16 -76 -14 -112
11 -187 13 -37 12 -49 -7 -123 -11 -44 -18 -83 -15 -87 15 -15 35 10 52 66 14
47 16 73 10 118 -10 72 -11 174 -1 273 6 63 4 83 -12 125 -19 47 -43 68 -56
47z"/>
<path d="M165 670 c-3 -5 -2 -18 3 -27 20 -38 24 -129 8 -168 -18 -43 -21
-147 -5 -176 16 -31 18 -130 3 -174 -17 -48 -17 -65 -3 -65 5 0 23 29 39 64
26 58 28 69 20 117 -5 30 -14 69 -21 87 -13 37 -6 99 16 143 22 41 18 97 -10
157 -23 50 -37 62 -50 42z"/>
<path d="M103 658 c-7 -9 -7 -31 0 -75 10 -58 9 -67 -16 -128 -33 -79 -33 -89
-6 -150 28 -63 22 -129 -15 -186 -20 -29 -25 -44 -17 -52 15 -15 42 11 69 66
27 54 28 120 3 197 -17 55 -17 56 8 125 20 58 23 80 17 126 -8 66 -26 98 -43
77z"/>
<path d="M367 463 c-19 -19 -5 -33 33 -33 28 0 40 -4 40 -15 0 -10 -16 -16
-50 -21 -66 -9 -67 -31 -2 -40 42 -5 50 -10 59 -35 7 -19 23 -33 42 -40 41
-14 39 -37 -3 -54 -72 -30 -95 -97 -55 -162 24 -38 46 -39 41 -2 -16 120 -19
107 32 129 48 20 74 56 62 85 -3 9 -24 24 -46 32 -53 21 -51 49 3 46 46 -3 87
12 87 31 0 11 -15 16 -62 18 -38 2 -63 8 -66 16 -2 8 8 12 31 12 45 0 67 9 67
26 0 11 -22 14 -103 14 -57 0 -107 -3 -110 -7z"/>
</g>
</svg>
