<svg version="1.0" xmlns="http://www.w3.org/2000/svg"
 width="71.000000pt" height="93.000000pt" viewBox="0 0 71.000000 93.000000"
 preserveAspectRatio="xMidYMid meet">
<metadata>
Created by potrace 1.15, written by Peter Selinger 2001-2017
</metadata>
<g transform="translate(0.000000,93.000000) scale(0.100000,-0.100000)"
fill="#000000" stroke="none">
<path d="M195 656 c-56 -10 -61 -14 -79 -50 -21 -42 -34 -186 -35 -374 -1
-111 4 -129 52 -179 30 -33 32 -33 122 -33 117 0 254 17 282 36 60 38 87 176
81 404 -3 153 -10 169 -75 196 -40 17 -259 17 -348 0z m343 -49 c29 -27 35
-74 33 -242 -2 -126 -6 -159 -24 -205 -19 -48 -27 -57 -62 -69 -44 -14 -268
-27 -308 -17 -40 10 -47 50 -47 263 0 202 4 227 46 264 29 26 48 28 201 26
120 -2 144 -5 161 -20z"/>
<path d="M280 589 c-25 -5 -55 -20 -70 -34 -22 -22 -25 -34 -25 -95 0 -82 18
-95 25 -18 3 29 10 60 15 69 20 33 71 49 153 49 101 0 107 -7 107 -109 0 -64
3 -76 18 -79 15 -3 17 7 17 92 0 96 0 96 -32 116 -36 22 -124 26 -208 9z"/>
<path d="M275 520 c-14 -22 9 -30 86 -30 71 0 80 2 77 18 -3 14 -16 17 -80 20
-45 2 -79 -1 -83 -8z"/>
<path d="M270 436 c0 -8 12 -17 28 -20 40 -8 145 7 150 22 3 9 -19 12 -87 12
-72 0 -91 -3 -91 -14z"/>
<path d="M253 368 c-33 -16 -53 -68 -53 -140 0 -69 4 -79 37 -97 24 -12 202
-15 218 -3 6 4 19 20 29 36 15 24 18 43 14 104 -7 101 -21 112 -138 111 -47 0
-95 -5 -107 -11z m184 -33 c3 -9 4 -17 2 -19 -2 -2 -40 -6 -84 -9 -91 -7 -123
3 -91 28 28 21 164 21 173 0z m23 -74 c0 -17 -12 -19 -114 -22 -71 -3 -100 -1
-103 8 -3 8 13 13 49 16 111 7 168 7 168 -2z m-10 -71 c0 -24 -135 -39 -184
-20 -53 20 -26 30 79 30 60 0 105 -4 105 -10z"/>
</g>
</svg>
