<svg version="1.0" xmlns="http://www.w3.org/2000/svg"
 width="61.000000pt" height="133.000000pt" viewBox="0 0 61.000000 133.000000"
 preserveAspectRatio="xMidYMid meet">
<metadata>
Created by potrace 1.15, written by Peter Selinger 2001-2017
</metadata>
<g transform="translate(0.000000,133.000000) scale(0.100000,-0.100000)"
fill="#000000" stroke="none">
<path d="M382 1154 c-7 -8 -24 -39 -38 -68 -22 -48 -30 -56 -78 -76 -30 -12
-62 -30 -72 -41 -9 -10 -23 -19 -29 -19 -7 0 -18 -6 -24 -14 -22 -26 36 -46
126 -45 130 2 171 20 100 44 -17 6 -32 15 -34 22 -8 22 35 53 73 53 45 0 83
18 63 31 -8 5 -31 9 -51 9 -43 0 -46 10 -23 75 8 22 15 41 15 43 0 7 -17 -1
-28 -14z m-92 -194 c0 -5 -12 -10 -26 -10 -14 0 -23 4 -19 10 3 6 15 10 26 10
10 0 19 -4 19 -10z"/>
<path d="M120 811 c-11 -8 -12 -15 -3 -33 11 -23 21 -59 43 -153 13 -59 34
-95 55 -95 8 0 15 -4 15 -9 0 -5 28 -11 63 -15 34 -3 87 -9 117 -12 55 -6 55
-6 58 127 2 150 0 158 -63 177 -52 15 -266 25 -285 13z m310 -167 c0 -107 -1
-116 -17 -108 -10 4 -59 12 -109 17 -92 9 -92 9 -98 71 -3 33 -8 78 -12 99 -6
37 -6 37 115 37 121 0 121 0 121 -116z"/>
<path d="M270 409 c-78 -11 -172 -29 -182 -35 -16 -10 -8 -22 24 -37 18 -9 60
-36 92 -60 57 -43 117 -64 149 -51 16 6 80 -29 71 -39 -7 -7 47 -97 59 -97 4
0 7 7 7 15 0 20 -22 65 -32 65 -4 0 -8 8 -8 18 0 10 -5 23 -11 29 -12 12 13
21 102 40 33 7 33 7 -21 15 -30 4 -70 5 -88 1 -28 -4 -37 -1 -63 28 -51 58
-52 64 -13 78 37 13 46 31 15 31 -11 0 -25 2 -33 3 -7 2 -38 0 -68 -4z m29
-86 c17 -21 31 -42 31 -46 0 -17 -54 4 -94 36 -43 34 -43 34 26 46 3 0 20 -16
37 -36z"/>
</g>
</svg>
