<svg version="1.0" xmlns="http://www.w3.org/2000/svg"
 width="57.000000pt" height="65.000000pt" viewBox="0 0 57.000000 65.000000"
 preserveAspectRatio="xMidYMid meet">
<metadata>
Created by potrace 1.15, written by Peter Selinger 2001-2017
</metadata>
<g transform="translate(0.000000,65.000000) scale(0.100000,-0.100000)"
fill="#000000" stroke="none">
<path d="M270 475 c0 -8 -9 -34 -19 -57 -53 -116 -61 -140 -61 -171 0 -18 9
-50 20 -72 28 -54 29 -70 5 -71 -11 -1 -39 -2 -62 -3 -49 -1 -58 -21 -18 -39
31 -14 345 -17 345 -3 0 16 -28 32 -64 38 -46 7 -49 13 -31 55 15 37 13 108
-6 168 -23 76 -74 169 -91 170 -10 0 -18 -7 -18 -15z m46 -132 c27 -69 35
-124 22 -166 -20 -73 -29 -75 -59 -15 -16 29 -28 66 -29 82 0 29 38 126 49
126 4 0 11 -12 17 -27z"/>
</g>
</svg>
