<svg version="1.0" xmlns="http://www.w3.org/2000/svg"
 width="63.000000pt" height="78.000000pt" viewBox="0 0 63.000000 78.000000"
 preserveAspectRatio="xMidYMid meet">
<metadata>
Created by potrace 1.15, written by Peter Selinger 2001-2017
</metadata>
<g transform="translate(0.000000,78.000000) scale(0.100000,-0.100000)"
fill="#000000" stroke="none">
<path d="M190 655 c-5 -14 -10 -37 -10 -49 0 -16 -7 -26 -22 -30 -27 -7 -48
16 -48 51 0 38 -28 28 -36 -13 -10 -56 8 -84 55 -84 38 0 39 0 46 -46 7 -47 7
-47 -59 -106 -62 -56 -84 -98 -53 -98 7 0 46 34 86 75 73 75 97 88 107 60 8
-21 -26 -71 -90 -135 -50 -48 -69 -80 -49 -80 4 0 24 12 45 26 47 33 104 101
124 150 14 32 13 38 -1 60 -8 13 -28 30 -44 39 -22 11 -28 20 -24 35 5 19 17
25 67 32 33 5 19 23 -21 28 -38 5 -38 5 -38 54 0 56 -19 73 -35 31z"/>
<path d="M360 655 c-5 -14 -10 -35 -10 -46 0 -28 36 -59 70 -59 29 0 30 -1 26
-42 -2 -24 -4 -48 -5 -55 -1 -6 -22 -37 -47 -68 -25 -31 -44 -59 -41 -62 14
-13 46 12 92 72 28 35 54 65 59 65 5 0 18 -7 27 -16 23 -20 15 -38 -48 -108
-41 -46 -50 -71 -26 -71 12 0 112 112 125 141 13 28 -13 70 -50 79 -35 9 -52
23 -52 45 0 21 19 30 61 30 16 0 29 4 29 9 0 11 -25 21 -56 21 -22 0 -24 4
-24 45 0 32 -4 45 -14 45 -14 0 -26 -29 -26 -67 0 -18 -6 -23 -25 -23 -22 0
-25 4 -25 34 0 18 -7 39 -15 46 -12 10 -16 8 -25 -15z"/>
<path d="M302 258 c-7 -7 -12 -27 -12 -45 0 -33 0 -33 -51 -33 -53 0 -94 -15
-84 -31 4 -5 35 -9 71 -9 64 0 70 -3 64 -40 -3 -25 -21 -30 -112 -30 -72 0
-88 -3 -88 -15 0 -9 9 -19 21 -23 30 -12 402 -3 414 9 19 19 -18 29 -108 29
-88 0 -88 0 -85 32 3 33 3 33 71 36 101 4 86 28 -23 34 -45 3 -45 3 -48 43 -4
46 -13 60 -30 43z"/>
</g>
</svg>
