<svg version="1.0" xmlns="http://www.w3.org/2000/svg"
 width="71.000000pt" height="88.000000pt" viewBox="0 0 71.000000 88.000000"
 preserveAspectRatio="xMidYMid meet">
<metadata>
Created by potrace 1.15, written by Peter Selinger 2001-2017
</metadata>
<g transform="translate(0.000000,88.000000) scale(0.100000,-0.100000)"
fill="#000000" stroke="none">
<path d="M165 636 c-12 -8 -16 -19 -11 -31 6 -16 16 -17 97 -12 116 9 291 -2
286 -17 -2 -6 -41 -14 -88 -18 -280 -25 -271 -24 -295 -51 -56 -65 -80 -477
-29 -477 26 0 29 25 31 202 2 150 5 183 21 215 16 35 23 39 68 45 28 3 91 7
140 8 165 2 232 35 205 100 -7 17 -21 35 -31 40 -29 16 -372 13 -394 -4z"/>
<path d="M410 464 c-27 -11 -40 -12 -61 -4 -33 14 -71 10 -77 -8 -2 -7 9 -17
27 -23 30 -11 30 -11 6 -50 -28 -43 -30 -61 -14 -107 8 -25 18 -33 45 -38 28
-5 34 -11 34 -31 0 -25 -1 -25 -52 -19 -29 4 -56 13 -61 19 -5 7 -6 56 -3 110
5 103 -3 147 -29 147 -13 0 -15 -20 -15 -129 0 -71 4 -141 10 -155 9 -25 51
-43 114 -48 16 -2 31 -8 33 -15 3 -7 -22 -14 -74 -18 -89 -8 -94 -10 -86 -30
4 -12 32 -15 157 -14 166 1 199 6 204 32 3 15 -6 17 -68 17 -63 0 -71 2 -68
17 2 13 16 20 46 24 28 3 52 15 70 32 26 26 27 33 31 148 2 79 -1 125 -8 132
-6 6 -13 8 -16 5 -3 -3 -9 -56 -14 -118 -9 -128 -22 -150 -87 -150 -27 0 -34
4 -34 19 0 12 9 22 23 27 43 13 57 34 57 87 0 33 -6 58 -20 77 -21 29 -21 29
0 40 11 6 20 17 20 25 0 19 -44 19 -90 -1z m21 -74 c14 -8 19 -21 19 -49 0
-49 -17 -63 -72 -59 -36 3 -44 7 -46 27 -10 66 44 110 99 81z"/>
</g>
</svg>
