<svg version="1.0" xmlns="http://www.w3.org/2000/svg"
 width="61.000000pt" height="119.000000pt" viewBox="0 0 61.000000 119.000000"
 preserveAspectRatio="xMidYMid meet">
<metadata>
Created by potrace 1.15, written by Peter Selinger 2001-2017
</metadata>
<g transform="translate(0.000000,119.000000) scale(0.100000,-0.100000)"
fill="#000000" stroke="none">
<path d="M315 1069 c-33 -9 -79 -27 -102 -38 -23 -12 -48 -21 -56 -21 -8 0
-20 -7 -27 -15 -27 -33 28 -59 70 -33 24 15 36 5 71 -62 13 -25 26 -47 29 -50
10 -10 50 -106 50 -120 0 -15 -125 -44 -245 -56 -55 -6 -75 -18 -58 -35 15
-15 182 -11 248 5 46 12 122 44 142 61 6 6 37 28 67 49 31 22 56 43 56 47 0 4
6 14 13 21 27 30 37 60 37 110 0 134 -119 189 -295 137z m200 -74 c29 -39 33
-68 16 -119 -20 -63 -58 -94 -92 -75 -34 18 -45 31 -52 61 -4 15 -13 33 -20
40 -16 17 -50 79 -45 82 44 34 56 37 115 34 48 -3 66 -9 78 -23z"/>
<path d="M315 505 c-5 -2 -31 -6 -56 -10 -25 -3 -56 -15 -67 -25 -12 -11 -24
-20 -27 -20 -3 0 -17 -11 -30 -24 -14 -14 -33 -29 -42 -35 -10 -5 -15 -12 -12
-16 6 -6 78 -8 113 -3 16 2 29 -16 67 -92 56 -112 68 -150 46 -150 -8 0 -25
-8 -38 -18 -13 -10 -50 -26 -81 -36 -62 -19 -64 -22 -44 -48 15 -20 37 -23 66
-8 11 5 29 15 40 20 11 6 27 10 35 10 8 0 34 9 58 19 23 11 52 22 65 26 12 3
22 12 22 19 0 8 14 19 30 26 17 7 30 17 30 22 0 5 16 34 36 64 66 99 56 189
-27 249 -42 32 -53 35 -110 34 -35 0 -68 -2 -74 -4z m143 -94 c37 -20 53 -63
39 -102 -24 -69 -127 -152 -127 -104 0 7 -9 30 -19 52 -23 46 -62 145 -59 148
36 27 121 30 166 6z"/>
</g>
</svg>
