<svg version="1.0" xmlns="http://www.w3.org/2000/svg"
 width="57.000000pt" height="85.000000pt" viewBox="0 0 57.000000 85.000000"
 preserveAspectRatio="xMidYMid meet">
<metadata>
Created by potrace 1.15, written by Peter Selinger 2001-2017
</metadata>
<g transform="translate(0.000000,85.000000) scale(0.100000,-0.100000)"
fill="#000000" stroke="none">
<path d="M269 670 c-3 -50 -9 -55 -60 -51 -34 2 -40 0 -37 -15 3 -19 53 -52
80 -53 18 -1 38 -54 38 -104 0 -28 0 -28 -98 -21 -80 5 -100 4 -110 -8 -10
-13 -8 -18 13 -32 28 -18 196 -43 265 -38 39 2 48 7 63 35 23 39 33 151 18
191 -9 23 -16 27 -35 22 -38 -9 -85 12 -92 42 -10 46 -13 52 -29 52 -8 0 -16
-9 -16 -20z m121 -202 c0 -56 -1 -59 -22 -56 -20 3 -24 11 -30 58 -3 30 -5 57
-2 61 2 3 15 4 29 1 23 -4 25 -8 25 -64z"/>
<path d="M136 311 c-7 -12 22 -33 76 -55 46 -20 51 -28 43 -75 -6 -38 -6 -38
-86 -34 -73 4 -79 3 -79 -15 0 -26 41 -41 108 -41 29 0 60 -2 70 -5 71 -23
139 -8 162 34 13 25 21 122 11 138 -4 7 -16 11 -27 10 -10 -1 -50 7 -89 19
-86 26 -181 38 -189 24z m237 -93 c19 -3 21 -8 19 -48 -4 -57 -13 -66 -51 -50
-28 11 -31 17 -31 58 0 31 5 49 18 58 14 10 18 10 20 -1 2 -8 13 -15 25 -17z"/>
</g>
</svg>
