<svg version="1.0" xmlns="http://www.w3.org/2000/svg"
 width="55.000000pt" height="71.000000pt" viewBox="0 0 55.000000 71.000000"
 preserveAspectRatio="xMidYMid meet">
<metadata>
Created by potrace 1.15, written by Peter Selinger 2001-2017
</metadata>
<g transform="translate(0.000000,71.000000) scale(0.100000,-0.100000)"
fill="#000000" stroke="none">
<path d="M196 542 c-16 -4 -31 -12 -33 -19 -5 -14 58 -28 82 -19 10 4 19 -3
27 -19 17 -37 4 -53 -49 -61 -59 -8 -64 -11 -56 -30 5 -14 18 -15 87 -8 45 4
94 7 109 6 28 -1 28 -1 25 76 -3 77 -3 77 -83 79 -44 0 -93 -2 -109 -5z m154
-72 c0 -22 -4 -40 -8 -40 -17 0 -32 25 -32 52 0 21 5 28 20 28 17 0 20 -7 20
-40z"/>
<path d="M255 224 c-11 -3 -30 -7 -43 -10 -44 -9 -17 -29 39 -29 53 0 54 0 54
-30 0 -29 -1 -30 -57 -35 -61 -6 -78 -14 -60 -32 11 -11 126 -12 169 -1 13 3
30 0 39 -7 26 -23 35 1 27 76 -8 69 -8 69 -78 71 -38 0 -79 -1 -90 -3z m135
-76 c0 -11 -7 -18 -20 -18 -15 0 -20 7 -20 28 0 16 3 32 7 36 10 9 33 -23 33
-46z"/>
</g>
</svg>
