<svg version="1.0" xmlns="http://www.w3.org/2000/svg"
 width="55.000000pt" height="61.000000pt" viewBox="0 0 55.000000 61.000000"
 preserveAspectRatio="xMidYMid meet">
<metadata>
Created by potrace 1.15, written by Peter Selinger 2001-2017
</metadata>
<g transform="translate(0.000000,61.000000) scale(0.100000,-0.100000)"
fill="#000000" stroke="none">
<path d="M250 519 c-19 -5 -49 -9 -67 -10 -38 -3 -42 -10 -50 -107 -7 -84 -15
-77 72 -56 22 6 25 3 25 -23 0 -23 -7 -33 -27 -42 -17 -8 -28 -9 -33 -2 -3 6
-13 2 -24 -10 -13 -16 -15 -24 -6 -35 8 -8 10 -32 6 -63 -7 -59 1 -67 51 -50
28 9 38 9 41 0 5 -16 32 -14 32 3 0 17 22 26 60 26 39 0 60 9 60 27 0 13 -10
15 -55 10 -52 -5 -55 -4 -61 18 -11 45 -2 60 44 66 23 3 48 11 55 18 19 19
-11 31 -58 24 -22 -3 -44 -6 -49 -7 -15 -2 -19 33 -6 49 7 9 29 15 51 15 21 0
41 5 45 11 9 16 -38 51 -50 38 -22 -21 -37 -9 -34 29 3 34 5 37 38 40 58 5 68
11 46 28 -22 15 -53 16 -106 3z m-27 -53 c18 -18 10 -72 -12 -80 -9 -3 -22 -9
-28 -12 -10 -4 -13 8 -13 44 0 46 6 58 32 61 4 1 13 -5 21 -13z m17 -261 c0
-34 -29 -63 -49 -51 -17 11 -10 66 11 80 28 20 38 12 38 -29z"/>
</g>
</svg>
