<svg version="1.0" xmlns="http://www.w3.org/2000/svg"
 width="53.000000pt" height="73.000000pt" viewBox="0 0 53.000000 73.000000"
 preserveAspectRatio="xMidYMid meet">
<metadata>
Created by potrace 1.15, written by Peter Selinger 2001-2017
</metadata>
<g transform="translate(0.000000,73.000000) scale(0.100000,-0.100000)"
fill="#000000" stroke="none">
<path d="M185 450 c-9 -28 2 -40 34 -40 22 0 30 -5 33 -23 7 -35 -1 -47 -30
-47 -15 0 -34 -5 -42 -10 -13 -8 -12 -11 5 -25 15 -11 41 -14 104 -12 85 2 85
2 88 66 3 45 -1 70 -12 87 -14 22 -22 24 -95 24 -70 0 -79 -2 -85 -20z m145
-71 c0 -38 -24 -35 -28 4 -2 19 1 27 12 27 11 0 16 -10 16 -31z"/>
<path d="M245 263 c-27 -2 -54 -9 -60 -14 -16 -16 24 -39 68 -39 34 0 38 -2
35 -22 -2 -19 -12 -25 -51 -32 -36 -6 -47 -12 -45 -25 3 -13 20 -16 110 -17
113 -1 142 6 120 28 -6 6 -12 33 -12 58 0 72 -8 75 -165 63z m125 -73 c0 -23
-4 -30 -20 -30 -21 0 -45 34 -35 50 3 6 17 10 31 10 20 0 24 -5 24 -30z"/>
</g>
</svg>
