<svg version="1.0" xmlns="http://www.w3.org/2000/svg"
 width="66.000000pt" height="93.000000pt" viewBox="0 0 66.000000 93.000000"
 preserveAspectRatio="xMidYMid meet">
<metadata>
Created by potrace 1.15, written by Peter Selinger 2001-2017
</metadata>
<g transform="translate(0.000000,93.000000) scale(0.100000,-0.100000)"
fill="#000000" stroke="none">
<path d="M235 665 c-19 -42 -35 -89 -35 -105 0 -17 15 -54 36 -86 45 -70 41
-91 -30 -143 -45 -34 -57 -49 -71 -94 -15 -47 -15 -61 -3 -128 9 -50 18 -74
27 -74 10 0 14 22 17 91 3 110 17 141 78 181 76 48 81 101 18 214 -27 49 -27
57 14 197 4 13 2 22 -5 22 -6 0 -26 -34 -46 -75z"/>
<path d="M437 723 c-2 -5 -9 -33 -17 -64 -11 -48 -10 -59 4 -87 9 -18 20 -32
24 -32 16 0 52 -78 52 -110 0 -27 -10 -42 -55 -84 -40 -37 -59 -64 -69 -96
-14 -47 -15 -134 -2 -147 4 -5 14 -23 21 -40 8 -18 21 -33 29 -33 20 0 20 9 0
76 -22 76 -6 151 42 199 19 19 38 35 43 35 4 0 19 20 32 44 21 40 22 48 10 86
-7 22 -21 49 -32 58 -38 31 -62 93 -60 150 2 45 -9 68 -22 45z"/>
<path d="M376 474 c-9 -8 -16 -19 -16 -24 0 -5 7 -16 16 -24 35 -36 86 -6 66
39 -13 29 -43 33 -66 9z"/>
<path d="M120 444 c-21 -24 -1 -68 33 -72 22 -3 29 2 37 24 15 39 4 64 -29 64
-16 0 -34 -7 -41 -16z"/>
</g>
</svg>
