<svg version="1.0" xmlns="http://www.w3.org/2000/svg"
 width="53.000000pt" height="85.000000pt" viewBox="0 0 53.000000 85.000000"
 preserveAspectRatio="xMidYMid meet">
<metadata>
Created by potrace 1.15, written by Peter Selinger 2001-2017
</metadata>
<g transform="translate(0.000000,85.000000) scale(0.100000,-0.100000)"
fill="#000000" stroke="none">
<path d="M200 692 c-53 -2 -80 -8 -93 -20 -19 -16 -18 -17 19 -28 51 -14 64
-41 64 -131 0 -73 0 -73 -40 -73 -54 0 -54 -25 0 -41 32 -10 58 -10 121 0 45
7 93 18 107 24 35 15 72 57 72 80 0 10 4 26 10 36 6 13 4 33 -8 67 -27 75 -79
93 -252 86z m178 -78 c7 -8 14 -31 15 -52 1 -44 -30 -85 -73 -95 -14 -3 -35
-8 -46 -12 -20 -6 -22 -2 -27 67 -3 40 -7 82 -9 93 -3 17 4 21 42 25 45 6 73
-2 98 -26z"/>
<path d="M233 305 c-45 -7 -86 -16 -92 -20 -24 -14 -10 -33 29 -40 50 -8 59
-25 63 -107 2 -63 2 -63 -41 -66 -34 -3 -43 -7 -40 -20 2 -13 16 -18 57 -20
29 -2 61 0 70 4 21 10 18 9 82 17 67 10 103 39 119 99 14 52 -1 115 -34 140
-32 23 -118 29 -213 13z m149 -45 c24 0 27 -4 33 -49 4 -30 2 -57 -4 -70 -14
-26 -61 -51 -96 -51 -25 0 -25 1 -25 78 0 84 11 107 45 98 11 -3 32 -6 47 -6z"/>
</g>
</svg>
