<svg version="1.0" xmlns="http://www.w3.org/2000/svg"
 width="73.000000pt" height="121.000000pt" viewBox="0 0 73.000000 121.000000"
 preserveAspectRatio="xMidYMid meet">
<metadata>
Created by potrace 1.15, written by Peter Selinger 2001-2017
</metadata>
<g transform="translate(0.000000,121.000000) scale(0.100000,-0.100000)"
fill="#000000" stroke="none">
<path d="M100 1055 c0 -9 11 -32 24 -53 41 -62 60 -170 51 -292 -18 -255 -20
-322 -13 -430 14 -217 31 -280 63 -236 9 11 11 25 6 35 -27 54 -46 359 -30
496 20 172 15 325 -12 377 -5 10 -9 26 -9 36 0 17 -58 82 -73 82 -4 0 -7 -7
-7 -15z"/>
<path d="M485 1056 c-68 -12 -108 -27 -130 -50 -6 -6 -12 -63 -13 -126 -3
-120 -4 -137 -21 -235 -5 -33 -11 -69 -13 -80 -2 -12 3 -21 13 -23 13 -2 19 9
27 45 20 91 32 188 35 283 5 133 6 134 121 148 52 7 112 12 133 12 38 0 38 0
13 20 -28 22 -61 23 -165 6z"/>
<path d="M220 996 c0 -8 4 -17 9 -21 29 -17 45 -270 19 -286 -15 -9 -2 -39 15
-39 19 0 35 41 42 110 7 61 -15 211 -35 235 -16 19 -50 19 -50 1z"/>
<path d="M36 972 c-2 -4 7 -32 21 -62 34 -72 40 -142 19 -214 -13 -45 -14 -61
-5 -72 6 -8 15 -14 19 -14 18 0 33 68 34 158 1 83 -2 104 -23 147 -27 58 -51
79 -65 57z"/>
<path d="M513 971 c-65 -6 -79 -13 -68 -31 6 -10 37 -9 159 6 46 6 48 8 31 20
-10 8 -28 13 -39 12 -12 0 -49 -4 -83 -7z"/>
<path d="M487 877 c-64 -8 -77 -12 -75 -26 3 -12 14 -15 45 -13 53 3 65 -16
61 -96 -3 -54 -4 -57 -30 -60 -26 -3 -28 -1 -28 37 0 50 -8 71 -27 71 -25 0
-13 -114 15 -140 36 -34 171 -19 158 17 -3 8 -6 17 -6 19 0 2 -9 4 -20 4 -16
0 -20 7 -20 30 0 28 2 30 39 30 47 0 51 -10 60 -130 5 -73 9 -85 25 -88 18 -4
19 1 12 109 -8 138 -15 149 -93 149 -52 0 -53 0 -53 30 0 29 1 30 49 30 57 0
105 15 96 30 -7 12 -101 11 -208 -3z"/>
<path d="M240 458 c0 -68 7 -161 15 -208 19 -107 22 -117 40 -124 19 -7 19 29
1 109 -9 35 -15 115 -15 194 0 130 -4 150 -33 151 -5 0 -8 -55 -8 -122z"/>
<path d="M71 542 c-16 -30 -17 -312 -1 -399 13 -75 21 -95 38 -101 15 -5 16
81 1 109 -12 22 -16 297 -5 344 4 20 2 37 -7 49 -14 19 -15 19 -26 -2z"/>
<path d="M403 538 c-13 -6 -23 -14 -23 -18 0 -15 28 -18 123 -15 100 4 103 3
113 -45 8 -37 -27 -71 -38 -38 -3 8 -38 11 -121 10 -65 0 -122 -4 -127 -7 -5
-3 -6 -13 -3 -21 5 -14 16 -15 67 -8 89 11 149 7 163 -13 11 -14 10 -20 -5
-33 -21 -20 -59 -29 -155 -37 -54 -4 -67 -8 -63 -20 3 -8 6 -17 6 -19 0 -10
115 -3 181 11 81 17 88 15 100 -42 4 -21 13 -56 20 -78 6 -22 14 -66 16 -97 4
-49 8 -58 24 -58 27 0 25 55 -8 176 -14 55 -25 113 -25 129 1 17 5 64 8 105 5
67 3 79 -16 103 -21 26 -24 27 -118 26 -53 0 -107 -5 -119 -11z"/>
<path d="M559 186 c-2 -2 -46 -6 -98 -10 -52 -3 -96 -8 -99 -11 -3 -2 1 -12 9
-21 12 -14 29 -16 118 -11 57 3 108 10 113 15 14 14 -28 52 -43 38z"/>
</g>
</svg>
