<svg version="1.0" xmlns="http://www.w3.org/2000/svg"
 width="63.000000pt" height="145.000000pt" viewBox="0 0 63.000000 145.000000"
 preserveAspectRatio="xMidYMid meet">
<metadata>
Created by potrace 1.15, written by Peter Selinger 2001-2017
</metadata>
<g transform="translate(0.000000,145.000000) scale(0.100000,-0.100000)"
fill="#000000" stroke="none">
<path d="M130 1180 c0 -11 4 -20 8 -20 12 0 32 -62 32 -102 0 -28 -5 -37 -25
-46 -39 -18 -48 -15 -41 12 3 13 0 39 -8 57 -14 34 -14 34 -21 4 -3 -16 -12
-53 -20 -81 -8 -28 -18 -84 -21 -126 -6 -64 -4 -76 10 -81 10 -4 18 -1 21 6 2
6 9 29 15 50 6 20 15 37 19 37 23 0 31 -31 31 -122 0 -80 3 -100 15 -105 9 -3
24 2 34 11 10 9 22 16 28 16 5 0 20 11 33 25 32 34 42 31 36 -7 -5 -29 -17
-176 -17 -203 0 -26 14 -92 23 -112 10 -20 121 -83 146 -83 16 0 29 -23 35
-63 5 -29 2 -37 -10 -37 -13 0 -68 33 -83 50 -14 14 -100 70 -109 70 -14 0
-14 -27 -1 -35 6 -3 10 -19 10 -36 0 -16 4 -37 9 -47 5 -9 21 -45 37 -79 15
-35 34 -63 41 -63 14 0 18 22 6 34 -11 11 -33 79 -33 104 0 12 5 22 10 22 6 0
10 -3 10 -7 0 -5 24 -19 53 -32 28 -13 60 -28 70 -32 16 -8 17 -1 17 83 0 93
0 93 -58 122 -31 16 -71 39 -88 52 -30 22 -30 22 -26 115 2 52 6 96 8 98 2 2
15 -1 29 -7 14 -7 54 -12 88 -12 60 0 64 1 82 33 45 74 56 142 31 193 -11 21
-12 41 -6 74 14 77 -7 200 -34 200 -35 0 -81 -24 -115 -59 -44 -46 -57 -50
-66 -22 -9 30 -80 98 -152 147 -43 29 -53 30 -53 4z m148 -148 c22 -20 33 -97
22 -149 -8 -34 -23 -57 -61 -94 -28 -27 -55 -49 -61 -49 -6 0 -8 24 -3 68 7
67 6 70 -24 103 -34 37 -31 47 22 65 30 10 32 14 35 64 3 58 -2 58 70 -8z
m220 11 c13 -33 19 -99 10 -109 -4 -3 -19 6 -33 20 -14 14 -30 26 -35 26 -18
0 -10 -35 15 -64 39 -45 40 -62 7 -107 -30 -40 -30 -40 -59 -10 -39 38 -60
109 -43 142 12 23 108 124 121 127 4 1 11 -10 17 -25z m-144 -251 c8 -23 55
-59 89 -67 32 -8 47 13 22 32 -15 10 -16 13 -3 13 8 0 23 9 33 20 10 11 22 20
27 20 16 0 6 -75 -15 -115 -21 -39 -24 -40 -79 -43 -38 -2 -68 2 -88 13 -27
14 -30 20 -30 64 0 27 3 56 6 65 8 22 31 20 38 -2z"/>
</g>
</svg>
