<svg version="1.0" xmlns="http://www.w3.org/2000/svg"
 width="47.000000pt" height="71.000000pt" viewBox="0 0 47.000000 71.000000"
 preserveAspectRatio="xMidYMid meet">
<metadata>
Created by potrace 1.15, written by Peter Selinger 2001-2017
</metadata>
<g transform="translate(0.000000,71.000000) scale(0.100000,-0.100000)"
fill="#000000" stroke="none">
<path d="M330 461 c0 -64 -2 -72 -17 -69 -13 2 -19 16 -23 51 -9 73 -27 80
-35 14 -5 -37 -13 -58 -23 -62 -19 -7 -29 8 -37 57 -10 56 -25 46 -25 -16 0
-65 -14 -79 -38 -37 -16 30 -31 40 -33 24 -2 -13 -10 -126 -10 -151 -1 -24 20
-46 58 -62 15 -6 23 -18 23 -34 0 -39 12 -86 20 -81 5 3 11 28 15 56 5 39 11
49 23 47 11 -2 19 -19 25 -53 12 -74 24 -75 33 -3 8 59 11 63 37 66 27 3 27 2
27 -52 0 -68 16 -74 25 -9 3 27 7 55 8 63 1 8 12 16 24 18 55 8 54 60 -2 119
-20 22 -35 47 -35 61 0 30 -20 103 -32 117 -4 5 -8 -24 -8 -64z m-82 -169 c3
-55 1 -62 -16 -62 -15 0 -21 9 -25 41 -6 47 7 93 26 87 7 -3 13 -28 15 -66z
m76 52 c10 -9 16 -33 16 -60 0 -40 -2 -44 -24 -44 -22 0 -24 4 -28 56 -4 70 4
81 36 48z m-154 -60 c0 -28 -4 -35 -17 -32 -22 4 -29 44 -13 63 18 22 30 9 30
-31z m240 -20 c0 -8 -4 -14 -9 -14 -11 0 -22 26 -14 34 9 9 23 -3 23 -20z"/>
</g>
</svg>
