<svg version="1.0" xmlns="http://www.w3.org/2000/svg"
 width="43.000000pt" height="87.000000pt" viewBox="0 0 43.000000 87.000000"
 preserveAspectRatio="xMidYMid meet">
<metadata>
Created by potrace 1.15, written by Peter Selinger 2001-2017
</metadata>
<g transform="translate(0.000000,87.000000) scale(0.100000,-0.100000)"
fill="#000000" stroke="none">
<path d="M169 725 c-13 -19 -27 -35 -31 -35 -12 0 -10 -48 2 -71 8 -14 7 -25
-5 -41 -22 -32 -20 -51 5 -43 13 4 22 1 26 -9 12 -32 27 -16 21 23 -3 22 0 44
6 50 15 15 54 14 60 -1 2 -7 8 -10 13 -5 13 12 -48 167 -66 167 -4 0 -18 -16
-31 -35z m41 -53 c0 -19 -18 -42 -32 -42 -4 0 -8 14 -8 30 0 23 4 30 20 30 13
0 20 -7 20 -18z"/>
<path d="M300 730 c-6 -11 -11 -50 -12 -87 0 -53 4 -77 22 -107 27 -49 40
-146 19 -146 -8 0 -21 9 -29 19 -7 11 -17 18 -20 16 -9 -6 -4 -216 6 -241 10
-24 73 -98 79 -92 2 2 5 139 6 305 1 269 -1 303 -16 327 -21 31 -40 33 -55 6z
m50 -104 c0 -70 -7 -84 -26 -58 -17 21 -18 104 -2 120 20 20 28 2 28 -62z
m-10 -335 c12 -23 14 -121 2 -121 -21 0 -32 29 -32 82 0 59 11 73 30 39z"/>
<path d="M131 348 c2 -102 8 -148 20 -148 5 0 9 12 9 28 0 20 3 23 9 13 5 -8
7 -29 4 -46 -3 -19 0 -35 6 -39 6 -4 11 -2 11 3 0 24 27 9 44 -24 18 -33 36
-46 36 -25 0 5 -13 32 -30 60 -24 41 -30 62 -30 111 0 51 -5 67 -30 105 -17
24 -35 44 -41 44 -6 0 -9 -33 -8 -82z m49 -30 c0 -10 -5 -18 -10 -18 -15 0
-23 27 -16 47 6 15 8 15 16 3 6 -8 10 -23 10 -32z"/>
</g>
</svg>
