<svg version="1.0" xmlns="http://www.w3.org/2000/svg"
 width="85.000000pt" height="137.000000pt" viewBox="0 0 85.000000 137.000000"
 preserveAspectRatio="xMidYMid meet">
<metadata>
Created by potrace 1.15, written by Peter Selinger 2001-2017
</metadata>
<g transform="translate(0.000000,137.000000) scale(0.100000,-0.100000)"
fill="#000000" stroke="none">
<path d="M67 1153 c-4 -54 -4 -156 -1 -228 3 -71 7 -202 8 -290 2 -88 5 -187
8 -220 3 -33 6 -112 6 -176 2 -81 6 -121 16 -135 20 -27 31 -10 29 44 -3 59
19 107 58 127 33 18 76 72 102 131 21 45 63 64 144 64 44 0 49 -3 61 -30 13
-30 10 -50 -19 -128 -12 -30 -12 -115 0 -108 4 3 11 24 15 47 8 48 30 90 56
107 15 9 26 3 67 -36 54 -52 94 -77 114 -70 8 3 -16 34 -64 80 -86 84 -94 108
-51 152 21 20 37 26 70 26 25 0 53 -5 64 -12 10 -7 22 -9 26 -5 14 14 -30 60
-109 111 -106 69 -121 76 -151 76 -21 0 -26 -6 -35 -50 -6 -28 -11 -64 -11
-79 0 -38 -14 -41 -180 -41 -149 0 -160 4 -160 56 0 28 4 33 30 39 17 4 30 10
30 14 0 4 12 14 26 21 29 16 54 68 54 112 0 32 20 58 44 58 22 0 20 27 -2 32
-9 3 -51 1 -92 -4 -40 -5 -80 -6 -87 -4 -7 3 -13 21 -13 41 0 31 3 35 25 35
14 0 25 5 25 10 0 6 8 10 18 10 34 1 102 82 102 122 0 5 10 22 22 38 34 46 16
55 -97 52 -93 -3 -93 -3 -100 30 -7 38 -25 78 -35 78 -4 0 -10 -44 -13 -97z
m179 -67 c10 -25 -25 -75 -67 -97 -23 -11 -42 -19 -44 -17 -4 4 -8 58 -7 90 2
24 6 27 45 31 23 2 48 4 55 5 7 1 15 -4 18 -12z m-28 -328 c2 -19 -7 -38 -34
-67 -20 -23 -40 -41 -45 -41 -14 0 -11 109 4 125 6 8 25 14 42 12 24 -2 31 -7
33 -29z m403 -184 c6 -7 -7 -27 -37 -59 -41 -44 -46 -47 -61 -33 -26 27 -13
105 22 130 9 7 59 -18 76 -38z m-389 -148 c-4 -36 -22 -63 -58 -87 -36 -23
-44 -17 -44 37 0 60 25 85 80 81 21 -2 25 -6 22 -31z"/>
<path d="M634 1152 c-43 -42 -92 -84 -109 -92 -16 -8 -32 -18 -35 -21 -3 -3
-21 -14 -40 -24 -31 -16 -33 -19 -15 -26 29 -11 32 -11 49 6 12 13 20 13 43 3
39 -17 103 -59 103 -68 0 -4 -36 -25 -79 -46 -44 -21 -77 -42 -75 -46 5 -8
102 26 153 54 33 19 34 19 56 -2 13 -12 29 -36 35 -53 6 -18 16 -40 21 -49 5
-10 9 -28 10 -40 1 -29 31 -82 44 -77 22 9 -2 138 -40 214 -33 64 -33 64 -7
101 23 35 24 42 18 126 -4 48 -9 95 -12 103 -12 30 -43 14 -120 -63z m81 -42
c9 -29 -4 -96 -21 -111 -26 -22 -114 9 -114 41 0 5 19 27 43 49 46 45 82 53
92 21z"/>
</g>
</svg>
