<svg version="1.0" xmlns="http://www.w3.org/2000/svg"
 width="55.000000pt" height="135.000000pt" viewBox="0 0 55.000000 135.000000"
 preserveAspectRatio="xMidYMid meet">
<metadata>
Created by potrace 1.15, written by Peter Selinger 2001-2017
</metadata>
<g transform="translate(0.000000,135.000000) scale(0.100000,-0.100000)"
fill="#000000" stroke="none">
<path d="M305 1190 c-3 -5 12 -27 35 -47 33 -31 43 -50 55 -103 21 -88 35
-139 48 -174 12 -33 15 -122 4 -132 -7 -7 -52 35 -117 109 -18 21 -36 55 -41
75 -34 165 -69 246 -97 228 -12 -7 -25 -147 -25 -256 1 -53 -5 -85 -17 -111
-29 -55 -43 -224 -26 -294 12 -47 24 -15 35 95 6 58 14 115 16 128 7 27 35 30
35 2 0 -10 4 -29 9 -42 5 -13 12 -35 15 -50 4 -16 13 -28 21 -28 22 0 19 94
-5 160 -17 45 -18 59 -9 78 14 25 29 29 29 7 0 -8 4 -23 9 -33 5 -9 12 -25 15
-34 7 -25 26 -22 26 3 0 17 2 18 13 7 16 -15 32 -64 42 -123 4 -22 18 -73 32
-114 13 -40 23 -75 20 -77 -2 -2 -21 20 -43 49 -42 55 -80 97 -89 97 -15 0 -1
-47 25 -85 19 -27 30 -56 30 -78 0 -39 35 -210 51 -249 6 -16 15 -28 20 -28 5
0 9 -18 9 -40 0 -48 15 -53 25 -7 7 34 24 235 32 382 2 49 8 94 13 100 4 5 8
111 9 235 2 226 2 226 -31 255 -31 28 -150 105 -161 105 -3 0 -9 -4 -12 -10z
m153 -132 c14 -14 16 -68 3 -68 -5 0 -11 10 -14 23 -2 12 -8 30 -12 40 -8 20
5 23 23 5z m-8 -408 c0 -11 -4 -22 -10 -25 -5 -3 -10 -3 -10 2 0 4 -3 18 -6
31 -5 18 -3 21 10 16 9 -3 16 -14 16 -24z m-22 -310 c0 -27 -3 -50 -7 -50 -7
0 -41 125 -41 146 0 5 11 -3 25 -18 19 -22 24 -39 23 -78z"/>
<path d="M202 548 c-7 -7 -12 -18 -12 -25 0 -7 -4 -21 -10 -31 -11 -20 -60
-220 -60 -245 0 -9 6 -17 13 -17 14 0 37 40 37 65 0 22 14 18 39 -11 22 -26
23 -30 12 -95 -6 -37 -11 -80 -11 -95 0 -42 18 -17 32 44 7 29 16 52 19 52 4
0 13 -23 20 -50 7 -28 19 -56 26 -62 34 -28 23 72 -16 157 -10 22 -24 87 -31
145 -11 102 -29 180 -40 180 -3 0 -11 -5 -18 -12z m26 -188 c3 -30 2 -32 -12
-21 -19 16 -22 65 -3 59 6 -3 13 -20 15 -38z"/>
</g>
</svg>
