<svg version="1.0" xmlns="http://www.w3.org/2000/svg"
 width="85.000000pt" height="111.000000pt" viewBox="0 0 85.000000 111.000000"
 preserveAspectRatio="xMidYMid meet">
<metadata>
Created by potrace 1.15, written by Peter Selinger 2001-2017
</metadata>
<g transform="translate(0.000000,111.000000) scale(0.100000,-0.100000)"
fill="#000000" stroke="none">
<path d="M407 1044 c-4 -4 -4 -32 -1 -63 5 -46 2 -65 -16 -104 -12 -26 -20
-50 -17 -54 13 -12 54 8 68 34 18 35 28 43 48 35 43 -16 58 -60 41 -121 -11
-40 -17 -49 -53 -74 -31 -22 -11 -47 38 -47 51 0 70 -19 80 -77 7 -43 7 -43
-54 -43 -46 0 -63 -4 -67 -15 -10 -26 16 -45 62 -45 24 0 44 -3 44 -6 0 -17
-28 -54 -69 -91 -37 -33 -44 -44 -33 -54 9 -10 15 -10 24 -1 7 7 19 12 28 12
23 0 87 64 104 104 8 20 20 36 25 36 21 0 53 -41 45 -58 -4 -9 -9 -30 -11 -47
-2 -16 -8 -39 -12 -50 -23 -56 -31 -94 -24 -111 14 -33 85 -134 95 -134 5 0
16 -7 24 -15 43 -43 44 0 3 85 -38 79 -47 149 -25 210 9 25 16 57 16 71 0 30
-33 70 -78 93 -26 13 -31 23 -37 67 -6 41 -15 59 -45 89 -26 26 -35 42 -29 51
12 19 11 136 -1 160 -6 10 -28 28 -49 38 -29 15 -40 29 -49 60 -15 47 -56 83
-75 65z"/>
<path d="M126 983 c-19 -26 -40 -65 -47 -88 -7 -22 -16 -44 -21 -49 -4 -6 -8
-42 -8 -81 0 -64 3 -74 31 -108 31 -37 32 -41 30 -128 -2 -89 -2 -89 33 -126
48 -51 93 -52 137 -3 30 35 30 35 26 141 -4 93 -2 107 13 117 10 6 21 27 24
46 9 46 -13 155 -36 180 -10 11 -18 24 -18 28 0 12 -108 118 -120 118 -5 0
-25 -21 -44 -47z m86 -65 c42 -45 56 -76 63 -144 8 -67 -3 -88 -52 -100 -28
-7 -93 12 -105 30 -14 21 -8 94 13 147 27 68 41 99 47 99 2 0 17 -14 34 -32z
m35 -349 c14 -43 6 -116 -13 -123 -24 -9 -42 4 -48 36 -21 104 31 178 61 87z"/>
</g>
</svg>
