<svg version="1.0" xmlns="http://www.w3.org/2000/svg"
 width="83.000000pt" height="131.000000pt" viewBox="0 0 83.000000 131.000000"
 preserveAspectRatio="xMidYMid meet">
<metadata>
Created by potrace 1.15, written by Peter Selinger 2001-2017
</metadata>
<g transform="translate(0.000000,131.000000) scale(0.100000,-0.100000)"
fill="#000000" stroke="none">
<path d="M456 1258 c-14 -50 -35 -198 -30 -211 10 -27 41 -20 56 13 9 22 20
30 38 30 39 0 50 -18 50 -80 0 -44 -4 -59 -20 -70 -24 -17 -26 -52 -6 -83 9
-12 14 -41 13 -66 -2 -41 -4 -45 -34 -53 -19 -5 -33 -15 -33 -24 0 -18 57 -44
96 -44 15 0 44 -5 65 -12 34 -10 39 -15 39 -40 0 -24 -3 -27 -17 -20 -10 5
-41 12 -70 16 -45 6 -55 4 -74 -15 -17 -17 -19 -23 -8 -30 8 -5 22 -9 31 -9
19 0 118 -51 118 -61 0 -13 -53 -29 -95 -29 -37 0 -45 -3 -45 -18 0 -29 21
-42 67 -42 46 0 100 22 120 49 10 14 13 12 22 -12 15 -39 14 -51 -10 -91 -23
-40 -21 -69 12 -132 11 -22 19 -58 19 -85 0 -50 7 -79 19 -79 19 0 30 59 32
160 0 60 5 125 9 144 12 56 -7 137 -39 166 -24 21 -28 33 -27 72 1 38 -4 52
-27 76 -16 17 -49 36 -74 42 -38 11 -44 16 -39 34 9 38 19 283 12 310 -7 30
-47 72 -76 81 -21 7 -60 80 -60 111 0 17 -29 19 -34 2z"/>
<path d="M164 1212 c5 -8 1 -19 -11 -30 -21 -18 -73 -122 -93 -187 -7 -22 -17
-50 -23 -63 -6 -12 -11 -63 -11 -112 -1 -81 1 -91 24 -115 15 -16 21 -29 14
-33 -6 -4 -16 -27 -22 -52 -12 -47 -3 -93 31 -172 31 -72 37 -90 37 -112 0
-13 9 -31 21 -42 20 -18 21 -18 34 0 8 10 12 23 9 29 -2 7 12 57 33 112 20 55
38 121 40 147 5 46 -13 108 -30 108 -5 0 2 13 16 30 35 41 41 91 21 185 -21
106 -35 179 -42 239 -5 36 -13 53 -32 65 -15 10 -21 11 -16 3z m6 -147 c0 -3
9 -40 20 -82 24 -87 20 -94 -43 -82 -23 4 -45 8 -49 9 -14 0 -9 30 12 72 11
23 20 47 20 53 0 6 5 16 12 23 12 12 28 16 28 7z m18 -221 c28 -8 29 -38 2
-82 -19 -31 -24 -33 -68 -30 -47 3 -47 3 -50 47 -2 24 -1 50 2 57 6 15 71 19
114 8z m-16 -191 c13 -12 18 -30 18 -69 0 -54 -25 -134 -41 -134 -15 0 -53 94
-52 132 0 38 25 88 45 88 6 0 20 -7 30 -17z"/>
</g>
</svg>
