<svg version="1.0" xmlns="http://www.w3.org/2000/svg"
 width="115.000000pt" height="139.000000pt" viewBox="0 0 115.000000 139.000000"
 preserveAspectRatio="xMidYMid meet">
<metadata>
Created by potrace 1.15, written by Peter Selinger 2001-2017
</metadata>
<g transform="translate(0.000000,139.000000) scale(0.100000,-0.100000)"
fill="#000000" stroke="none">
<path d="M140 1330 c-13 -8 -13 -13 3 -39 17 -29 17 -32 -4 -88 -11 -32 -23
-68 -26 -81 -4 -17 -10 -21 -24 -17 -22 7 -24 -4 -8 -39 9 -20 7 -43 -10 -116
-37 -151 -31 -328 12 -387 5 -7 9 -60 8 -117 -1 -58 2 -113 8 -123 25 -48 71
-185 71 -213 0 -53 26 -49 83 13 58 62 68 78 108 157 27 55 60 169 65 225 1
17 10 50 20 75 21 55 32 226 15 243 -6 6 -11 23 -11 37 0 28 -33 142 -50 172
-5 9 -28 51 -50 93 -58 109 -63 117 -86 139 -64 65 -98 83 -124 66z m101 -177
c8 -16 31 -55 51 -87 21 -33 38 -67 38 -77 0 -9 9 -39 20 -65 12 -26 20 -62
18 -78 -3 -31 -3 -31 -115 -34 -126 -4 -118 -9 -102 73 6 28 14 75 20 105 5
30 13 75 18 100 10 57 21 90 30 90 4 0 14 -12 22 -27z m136 -475 c-5 -65 -10
-76 -36 -100 -17 -15 -49 -32 -72 -38 -39 -11 -44 -10 -76 17 -39 32 -63 87
-63 151 0 42 0 42 126 42 127 0 127 0 121 -72z m-64 -212 c49 15 -11 -180 -73
-238 -18 -17 -24 -18 -31 -7 -33 52 -55 233 -31 248 7 4 36 4 65 0 29 -5 60
-6 70 -3z"/>
<path d="M541 1257 c-7 -7 -11 -53 -11 -123 0 -96 3 -115 20 -135 19 -24 19
-24 20 -2 0 12 10 37 23 57 18 29 28 35 56 36 46 0 114 -34 132 -67 9 -17 14
-59 14 -127 0 -101 0 -101 -60 -104 -107 -6 -101 -37 11 -53 38 -5 79 -12 91
-15 31 -6 53 -53 53 -110 0 -47 0 -47 -60 -41 -74 6 -100 0 -100 -24 0 -13 7
-19 23 -19 36 0 102 -27 105 -43 6 -27 -98 -82 -173 -92 -93 -11 -145 -44 -96
-60 34 -11 212 24 260 51 24 13 46 23 48 21 2 -2 8 -43 14 -90 12 -90 20 -107
82 -169 29 -29 46 -38 73 -38 21 0 37 6 40 15 6 16 -27 53 -66 73 -14 7 -31
25 -38 40 -17 35 -31 203 -30 359 1 132 0 136 -60 167 -30 16 -38 31 -33 66 8
64 7 134 -3 162 -7 18 -19 48 -25 66 -7 17 -19 32 -27 32 -8 0 -14 5 -14 10 0
6 -8 10 -18 10 -10 0 -22 4 -27 9 -6 4 -41 16 -78 26 -70 19 -97 41 -97 80 0
26 -33 48 -49 32z"/>
</g>
</svg>
