<svg version="1.0" xmlns="http://www.w3.org/2000/svg"
 width="101.000000pt" height="133.000000pt" viewBox="0 0 101.000000 133.000000"
 preserveAspectRatio="xMidYMid meet">
<metadata>
Created by potrace 1.15, written by Peter Selinger 2001-2017
</metadata>
<g transform="translate(0.000000,133.000000) scale(0.100000,-0.100000)"
fill="#000000" stroke="none">
<path d="M209 1238 c-3 -62 -33 -148 -51 -148 -4 0 -8 -6 -8 -13 0 -7 -13 -39
-30 -72 -16 -33 -30 -68 -30 -79 0 -24 -19 -94 -33 -123 -21 -46 -12 -118 23
-189 19 -36 42 -72 52 -78 14 -9 18 -25 18 -81 1 -75 19 -176 39 -212 15 -30
62 -53 105 -53 26 0 39 6 54 28 23 32 44 144 43 221 -1 58 14 114 39 146 32
41 40 66 40 119 0 68 -16 147 -42 206 -48 107 -71 152 -92 178 -32 37 -46 67
-46 94 -1 13 -9 33 -19 46 -21 24 -61 30 -62 10z m89 -248 c17 -39 32 -81 32
-95 0 -25 -1 -25 -81 -25 -81 0 -81 0 -74 43 4 23 15 56 24 72 18 33 51 75 60
75 3 0 21 -32 39 -70z m-28 -214 c0 -6 4 -5 9 3 8 12 14 13 36 3 14 -7 35 -12
45 -12 13 0 20 -7 20 -19 0 -10 3 -32 6 -48 8 -43 -23 -69 -97 -82 -65 -11
-103 -3 -125 27 -17 22 -28 94 -19 121 6 19 13 21 66 20 35 -1 59 -6 59 -13z
m42 -378 c-2 -73 -9 -138 -14 -144 -13 -18 -44 -5 -57 22 -12 27 -16 236 -4
247 3 4 23 7 43 7 37 0 37 0 32 -132z"/>
<path d="M587 1235 c-16 -11 -19 -30 -20 -133 -1 -126 7 -152 43 -152 13 0 20
11 25 40 5 28 12 40 24 40 9 0 22 5 27 10 8 8 19 7 37 -1 26 -12 27 -15 27
-95 0 -82 0 -82 -42 -89 -58 -10 -60 -12 -42 -46 13 -25 21 -30 47 -28 57 4
107 -13 143 -46 30 -28 34 -38 34 -81 0 -27 -7 -57 -14 -67 -13 -17 -17 -17
-83 4 -37 12 -76 26 -85 30 -27 14 -84 11 -97 -5 -21 -25 -1 -43 62 -56 72
-14 117 -29 117 -40 0 -9 -69 -42 -177 -86 -75 -30 -88 -45 -52 -64 27 -15 69
-5 159 39 41 20 78 38 83 39 4 2 7 -45 8 -105 1 -167 11 -257 32 -278 16 -16
20 -16 33 -3 13 13 14 25 4 78 -6 35 -10 123 -8 197 3 135 3 135 38 166 36 32
80 109 80 140 0 15 -9 42 -34 97 -13 29 -43 57 -94 86 -37 21 -37 21 -33 116
3 88 1 97 -20 120 -35 36 -62 48 -112 48 -49 0 -52 3 -62 73 -9 55 -23 71 -48
52z"/>
</g>
</svg>
