<svg version="1.0" xmlns="http://www.w3.org/2000/svg"
 width="89.000000pt" height="79.000000pt" viewBox="0 0 89.000000 79.000000"
 preserveAspectRatio="xMidYMid meet">
<metadata>
Created by potrace 1.15, written by Peter Selinger 2001-2017
</metadata>
<g transform="translate(0.000000,79.000000) scale(0.100000,-0.100000)"
fill="#000000" stroke="none">
<path d="M204 722 c-6 -4 -26 -29 -44 -57 -19 -27 -37 -51 -42 -53 -4 -2 -8
-8 -8 -14 0 -6 -12 -29 -28 -52 -36 -54 -56 -117 -47 -147 4 -13 17 -35 30
-49 14 -16 30 -59 44 -120 28 -119 39 -148 63 -161 20 -11 38 -5 38 13 0 5 12
22 27 38 39 38 53 57 53 70 0 6 4 18 9 28 14 28 31 87 31 109 0 12 5 23 10 25
19 6 20 138 3 193 -29 90 -112 195 -139 177z m34 -104 c16 -21 52 -88 52 -98
0 -13 -147 -13 -155 -1 -3 6 13 29 35 53 22 24 40 46 40 51 0 11 16 8 28 -5z
m54 -198 c-4 -38 -18 -45 -85 -42 -67 3 -93 18 -83 49 5 16 16 19 89 18 81 0
82 0 79 -25z m-41 -122 c4 -44 -32 -148 -50 -148 -15 0 -51 108 -51 149 0 16
100 14 101 -1z"/>
<path d="M430 695 c0 -9 11 -27 24 -40 38 -37 41 -62 16 -111 -25 -48 -22 -81
8 -65 33 17 72 64 72 85 0 11 4 26 8 31 13 18 62 35 103 35 45 0 56 -17 66
-101 5 -43 4 -47 -18 -54 -44 -12 -104 -43 -126 -64 -44 -42 -25 -75 62 -109
28 -11 50 -25 50 -31 0 -7 -13 -20 -29 -29 -33 -19 -62 -41 -114 -87 -23 -21
-31 -35 -27 -47 6 -15 9 -15 41 2 18 11 48 33 65 50 18 16 37 30 42 30 6 0 18
7 28 16 34 31 49 11 49 -64 0 -41 5 -75 13 -87 22 -30 30 -2 28 104 -1 98 -1
98 39 140 34 35 40 48 40 85 0 45 -30 86 -62 86 -21 0 -31 30 -22 65 9 36 -14
104 -46 136 -25 24 -31 26 -76 18 -129 -22 -138 -22 -158 0 -23 25 -76 29 -76
6z m378 -294 c4 -28 -37 -91 -60 -91 -10 0 -18 3 -18 8 0 4 -27 18 -61 31 -60
23 -60 23 -27 47 31 23 43 28 93 37 37 6 70 -8 73 -32z"/>
</g>
</svg>
