<svg version="1.0" xmlns="http://www.w3.org/2000/svg"
 width="109.000000pt" height="163.000000pt" viewBox="0 0 109.000000 163.000000"
 preserveAspectRatio="xMidYMid meet">
<metadata>
Created by potrace 1.15, written by Peter Selinger 2001-2017
</metadata>
<g transform="translate(0.000000,163.000000) scale(0.100000,-0.100000)"
fill="#000000" stroke="none">
<path d="M196 1493 c-59 -61 -153 -194 -176 -251 -31 -79 48 -241 131 -267 14
-5 19 -16 20 -43 0 -20 2 -46 4 -57 2 -11 9 -58 14 -105 20 -165 31 -246 41
-287 6 -24 14 -60 19 -80 19 -80 63 -220 83 -261 14 -28 33 -48 56 -59 35 -17
35 -17 58 13 13 16 24 36 24 44 0 9 4 20 9 25 11 13 45 123 60 193 14 66 15
259 1 267 -5 3 -10 32 -10 63 0 31 -7 89 -16 127 -9 39 -19 97 -21 131 -4 54
-1 66 26 113 61 102 34 182 -111 333 -51 53 -100 109 -108 125 -24 44 -43 39
-104 -24z m100 -88 c83 -63 165 -158 147 -168 -12 -6 -343 -9 -343 -3 0 33
128 195 154 196 5 0 24 -11 42 -25z m184 -251 c0 -30 -32 -84 -63 -106 -24
-17 -44 -21 -102 -21 -126 0 -248 63 -206 107 22 21 106 34 239 35 115 1 132
-1 132 -15z m-49 -241 c23 -159 38 -277 43 -340 6 -70 6 -71 -17 -66 -21 4
-21 4 -4 -10 16 -13 18 -26 14 -94 -7 -110 -15 -149 -46 -212 -13 -27 -29 -22
-36 11 -4 18 -17 65 -30 103 -12 39 -30 95 -38 125 -16 51 -51 311 -64 462 -5
64 -5 67 18 72 39 9 133 12 143 4 5 -4 13 -29 17 -55z"/>
<path d="M821 1438 c-18 -40 -36 -82 -41 -93 -4 -11 -17 -40 -29 -63 -11 -24
-21 -50 -21 -58 0 -8 -4 -14 -10 -14 -13 0 -13 -57 1 -65 14 -9 48 28 61 68
15 43 38 77 52 77 6 -1 28 -15 49 -33 32 -27 38 -40 44 -84 5 -44 1 -65 -26
-132 -17 -45 -45 -117 -62 -161 -17 -44 -37 -80 -45 -80 -43 0 -13 -46 51 -76
17 -8 51 -32 77 -54 51 -45 66 -89 46 -136 -10 -25 -12 -26 -15 -9 -3 18 -89
85 -108 85 -4 0 -19 8 -33 19 -15 10 -44 23 -64 29 -34 9 -38 8 -38 -8 0 -21
46 -62 95 -85 39 -19 60 -41 69 -72 7 -22 5 -23 -44 -23 -46 0 -125 28 -140
50 -8 12 -48 30 -64 30 -23 0 -20 -27 7 -53 43 -44 140 -84 217 -89 34 -3 34
-3 47 -88 6 -47 15 -115 18 -153 4 -40 13 -73 22 -83 32 -32 38 -1 36 177 -3
171 -3 171 27 207 17 20 30 42 30 48 0 7 6 14 12 16 7 3 13 22 12 44 0 39 -16
67 -63 108 -13 12 -37 33 -53 48 -17 15 -39 30 -49 33 -20 7 -25 34 -11 51 5
5 14 29 22 54 7 25 21 64 31 87 11 24 19 48 19 53 0 6 9 28 19 48 44 86 42
182 -4 227 -12 13 -25 27 -26 32 -2 4 -17 16 -34 25 -34 19 -42 41 -27 72 22
45 23 75 3 86 -11 5 -21 10 -24 10 -2 0 -18 -33 -36 -72z"/>
</g>
</svg>
