<svg version="1.0" xmlns="http://www.w3.org/2000/svg"
 width="58.000000pt" height="116.000000pt" viewBox="0 0 58.000000 116.000000"
 preserveAspectRatio="xMidYMid meet">
<metadata>
Created by potrace 1.15, written by Peter Selinger 2001-2017
</metadata>
<g transform="translate(0.000000,116.000000) scale(0.100000,-0.100000)"
fill="#000000" stroke="none">
<path d="M230 1021 c0 -32 -5 -43 -29 -60 -16 -12 -34 -21 -39 -21 -6 0 -12
-4 -14 -10 -1 -5 -19 -11 -38 -12 -35 -3 -35 -3 -38 40 -5 66 -26 47 -30 -26
-5 -112 24 -131 208 -134 124 -2 154 4 187 38 25 24 10 154 -17 154 -5 0 -10
-15 -10 -34 0 -19 -6 -36 -12 -39 -18 -5 -48 3 -48 14 0 5 -5 9 -11 9 -6 0
-24 9 -39 20 -21 15 -30 30 -32 58 -2 26 -8 38 -20 40 -15 3 -18 -4 -18 -37z
m81 -107 c43 -23 69 -43 69 -53 0 -24 -76 -42 -152 -35 -111 9 -128 14 -128
32 0 10 14 23 33 31 17 8 34 17 37 20 5 6 63 40 69 41 1 0 34 -16 72 -36z"/>
<path d="M102 738 c-53 -12 -71 -43 -73 -130 -2 -102 17 -121 143 -138 87 -12
182 -3 238 22 39 17 60 66 60 141 0 81 -13 98 -81 108 -74 10 -235 9 -287 -3z
m280 -33 c36 -7 57 -33 44 -53 -6 -10 -314 -16 -339 -6 -20 7 -22 39 -4 59 10
12 36 14 137 11 69 -2 142 -7 162 -11z m41 -104 c15 -15 -11 -77 -39 -90 -36
-16 -227 -14 -269 3 -54 23 -74 79 -32 96 28 11 328 3 340 -9z"/>
<path d="M425 430 c-3 -5 -15 -10 -27 -10 -11 0 -38 -10 -59 -22 -29 -16 -39
-28 -41 -52 -4 -39 14 -130 34 -176 9 -19 21 -51 28 -70 17 -46 38 -70 56 -63
20 7 17 33 -6 63 -11 14 -20 30 -20 37 0 6 -11 35 -25 64 -44 96 -43 169 3
169 20 0 41 -29 42 -57 0 -23 92 -207 117 -235 9 -10 20 -15 25 -12 14 9 1 64
-20 83 -22 19 -82 140 -82 163 0 9 -4 20 -10 23 -5 3 -10 19 -10 34 0 28 30
51 65 51 8 0 15 5 15 10 0 6 -18 10 -39 10 -22 0 -43 -4 -46 -10z"/>
<path d="M115 397 c-82 -27 -89 -36 -87 -114 2 -70 7 -87 24 -77 6 4 8 26 4
58 -6 46 -4 54 16 73 21 19 61 43 71 43 8 0 24 -52 37 -115 12 -63 44 -164 64
-203 11 -20 14 -22 25 -8 10 12 7 32 -18 108 -70 216 -68 208 -35 234 29 24
29 24 -6 23 -19 -1 -62 -11 -95 -22z"/>
<path d="M55 160 c-10 -16 15 -117 32 -132 26 -21 31 6 12 67 -22 66 -33 83
-44 65z"/>
</g>
</svg>
