<svg version="1.0" xmlns="http://www.w3.org/2000/svg"
 width="53.000000pt" height="109.000000pt" viewBox="0 0 53.000000 109.000000"
 preserveAspectRatio="xMidYMid meet">
<metadata>
Created by potrace 1.15, written by Peter Selinger 2001-2017
</metadata>
<g transform="translate(0.000000,109.000000) scale(0.100000,-0.100000)"
fill="#000000" stroke="none">
<path d="M62 758 c-1 -29 -4 -78 -8 -109 -6 -61 10 -139 29 -139 7 0 24 -10
39 -23 14 -13 45 -32 67 -43 47 -22 53 -32 42 -71 -6 -22 -12 -27 -32 -25 -13
2 -28 8 -34 13 -13 13 -35 11 -35 -3 0 -7 20 -34 45 -60 46 -49 53 -72 47
-160 -1 -16 2 -28 6 -28 15 0 34 52 39 107 5 46 8 52 33 56 27 6 130 91 130
108 0 5 -9 9 -20 9 -11 0 -20 -4 -20 -8 0 -9 -94 -62 -111 -62 -8 0 -10 20 -7
62 4 57 7 64 44 94 21 18 50 39 64 46 46 24 54 39 58 104 6 91 -5 152 -29 165
-20 10 -20 7 -19 -78 1 -48 1 -93 1 -99 -1 -16 -87 -104 -101 -104 -10 0 -11
19 -6 78 7 86 -9 182 -30 182 -8 0 -13 -8 -12 -17 4 -28 -14 -263 -19 -263 -3
0 -17 8 -31 18 -15 10 -39 24 -54 31 -36 18 -41 36 -43 149 -2 87 -1 92 19 92
21 1 21 1 2 15 -38 29 -52 19 -54 -37z"/>
</g>
</svg>
