<svg version="1.0" xmlns="http://www.w3.org/2000/svg"
 width="55.000000pt" height="125.000000pt" viewBox="0 0 55.000000 125.000000"
 preserveAspectRatio="xMidYMid meet">
<metadata>
Created by potrace 1.15, written by Peter Selinger 2001-2017
</metadata>
<g transform="translate(0.000000,125.000000) scale(0.100000,-0.100000)"
fill="#000000" stroke="none">
<path d="M106 968 c-13 -64 -16 -105 -17 -241 0 -174 1 -177 85 -177 56 0 56
0 56 -77 -1 -78 -1 -78 -21 -53 -12 14 -30 37 -42 51 -12 14 -32 31 -45 38
-44 23 -39 -36 8 -86 9 -10 35 -46 58 -80 36 -54 42 -69 42 -115 0 -30 -4 -58
-9 -63 -10 -11 19 -115 32 -115 4 0 10 8 13 18 3 9 10 26 15 37 6 13 6 40 -1
74 -20 105 -15 125 38 171 26 23 50 50 54 60 11 29 -16 31 -55 4 -20 -13 -38
-24 -41 -24 -10 0 -6 39 4 45 6 3 10 28 10 55 0 27 5 52 11 55 6 4 37 7 69 6
55 0 58 1 70 29 16 40 10 334 -7 352 -27 26 -37 -9 -41 -157 -5 -145 -5 -145
-53 -145 -49 0 -49 0 -50 55 -2 60 -2 60 -13 93 -17 49 -32 18 -35 -72 -3 -68
-13 -84 -51 -78 -16 2 -33 8 -36 14 -3 5 -7 80 -9 168 -2 88 -6 164 -10 170
-11 17 -24 11 -29 -12z"/>
</g>
</svg>
