<svg version="1.0" xmlns="http://www.w3.org/2000/svg"
 width="51.000000pt" height="103.000000pt" viewBox="0 0 51.000000 103.000000"
 preserveAspectRatio="xMidYMid meet">
<metadata>
Created by potrace 1.15, written by Peter Selinger 2001-2017
</metadata>
<g transform="translate(0.000000,103.000000) scale(0.100000,-0.100000)"
fill="#000000" stroke="none">
<path d="M166 578 c4 -86 16 -134 38 -150 5 -3 9 -20 8 -37 0 -17 4 -33 9 -36
5 -4 9 -14 9 -23 -1 -13 -5 -11 -23 9 -12 15 -30 40 -39 58 -17 32 -38 42 -38
18 0 -12 29 -80 50 -119 6 -10 10 -23 10 -29 0 -6 7 -18 16 -26 13 -13 14 -28
9 -72 -4 -31 -11 -64 -16 -73 -14 -26 -11 -58 6 -58 9 0 18 8 21 18 4 9 15 36
25 59 10 24 19 60 19 81 0 23 7 43 18 53 32 29 102 120 102 133 0 17 -35 2
-60 -24 -15 -16 -33 -30 -40 -30 -17 0 -3 70 19 89 38 34 54 71 57 139 2 62
-6 92 -27 92 -5 0 -9 -30 -9 -67 0 -52 -5 -74 -20 -93 -20 -25 -20 -25 -20 42
0 75 -6 98 -26 98 -11 0 -14 -17 -14 -74 0 -73 -13 -104 -31 -75 -5 8 -9 42
-9 76 0 66 -15 113 -36 113 -10 0 -12 -22 -8 -92z"/>
</g>
</svg>
