<svg version="1.0" xmlns="http://www.w3.org/2000/svg"
 width="71.000000pt" height="119.000000pt" viewBox="0 0 71.000000 119.000000"
 preserveAspectRatio="xMidYMid meet">
<metadata>
Created by potrace 1.15, written by Peter Selinger 2001-2017
</metadata>
<g transform="translate(0.000000,119.000000) scale(0.100000,-0.100000)"
fill="#000000" stroke="none">
<path d="M493 1132 c-7 -4 -12 -50 -15 -125 -3 -118 -3 -118 -81 -193 -50 -47
-77 -81 -73 -90 7 -18 24 -18 43 1 8 9 47 36 85 61 69 45 70 46 84 25 9 -12
21 -21 29 -21 7 0 15 -3 17 -8 5 -12 85 -72 97 -72 17 0 25 48 10 63 -8 7 -34
24 -59 39 -93 54 -91 51 -89 188 2 96 -1 124 -12 131 -17 11 -21 11 -36 1z"/>
<path d="M143 1060 c-13 -15 -23 -33 -23 -39 0 -6 -12 -30 -27 -54 -45 -69
-73 -129 -73 -154 0 -31 10 -29 42 9 25 31 28 32 40 15 11 -15 25 -17 84 -14
75 4 94 10 94 33 0 11 -18 14 -91 14 -69 0 -89 3 -85 13 3 6 9 20 12 30 4 9
10 17 15 17 5 0 9 6 9 13 0 19 50 73 58 61 11 -16 66 -88 72 -94 3 -3 18 -22
33 -42 19 -26 36 -38 53 -38 30 0 32 23 4 52 -11 12 -20 28 -20 35 0 7 -4 13
-9 13 -5 0 -14 14 -21 30 -7 17 -16 30 -20 30 -5 0 -25 23 -45 50 -43 58 -69
63 -102 20z"/>
<path d="M499 768 c-1 -13 -2 -126 -4 -253 -2 -126 -5 -287 -7 -357 -3 -85 0
-132 8 -142 34 -47 64 13 59 120 -2 43 -7 203 -11 354 -4 155 -11 280 -17 288
-15 19 -27 14 -28 -10z"/>
<path d="M209 733 c-43 -7 -61 -35 -66 -108 -3 -37 -11 -66 -17 -66 -6 -1 -33
-1 -59 1 -46 2 -48 1 -45 -22 3 -21 7 -23 61 -21 52 2 57 0 58 -20 3 -70 -3
-332 -7 -339 -3 -4 -12 -8 -21 -8 -12 0 -13 6 -7 27 9 33 9 232 0 269 -5 17
-12 24 -24 22 -15 -3 -17 -21 -20 -151 -2 -101 1 -147 8 -147 6 0 8 -4 5 -10
-3 -5 -17 -10 -29 -10 -13 0 -29 -6 -35 -14 -23 -27 10 -34 144 -31 72 2 147
4 168 4 29 1 37 5 37 20 0 32 -21 39 -85 30 -33 -4 -63 -5 -67 -1 -10 10 -22
295 -14 327 6 23 10 25 72 25 75 0 102 15 80 45 -11 16 -23 17 -80 12 -66 -6
-66 -6 -66 47 0 58 7 66 60 66 35 0 45 13 30 40 -10 20 -24 22 -81 13z"/>
<path d="M239 483 c-7 -50 -6 -292 1 -303 7 -12 12 -10 30 10 21 24 22 31 15
155 -4 72 -9 133 -12 138 -2 4 -11 7 -19 7 -8 0 -14 -3 -15 -7z"/>
</g>
</svg>
