<svg version="1.0" xmlns="http://www.w3.org/2000/svg"
 width="125.000000pt" height="103.000000pt" viewBox="0 0 125.000000 103.000000"
 preserveAspectRatio="xMidYMid meet">
<metadata>
Created by potrace 1.15, written by Peter Selinger 2001-2017
</metadata>
<g transform="translate(0.000000,103.000000) scale(0.100000,-0.100000)"
fill="#000000" stroke="none">
<path d="M295 860 c-4 -6 -3 -16 2 -21 7 -7 90 -29 173 -45 14 -3 42 -10 62
-16 36 -11 36 -11 40 -72 2 -33 2 -87 0 -118 -3 -58 -3 -58 -105 -58 -56 0
-108 4 -116 9 -13 8 -12 29 1 106 2 15 -3 21 -22 23 -14 2 -31 9 -38 15 -9 7
-16 7 -20 1 -12 -17 -86 -34 -145 -34 -60 0 -81 -15 -52 -36 14 -10 41 -12
108 -7 90 6 90 6 83 -23 -3 -16 -9 -99 -13 -184 -5 -147 -4 -158 17 -203 24
-51 75 -92 141 -115 44 -15 171 -32 202 -26 12 2 67 11 121 19 117 19 170 48
200 110 17 36 19 63 19 243 -1 202 -1 202 40 202 23 0 65 -7 92 -16 48 -14
115 -12 115 5 0 11 -78 48 -115 55 -16 4 -55 9 -85 11 -30 3 -68 11 -83 17
-34 13 -60 -3 -39 -24 7 -7 12 -39 12 -74 0 -61 0 -61 -84 -66 -46 -2 -100 -2
-120 0 -36 4 -36 4 -36 104 0 55 5 108 11 119 8 17 6 24 -13 41 -35 30 -64 39
-163 49 -49 5 -111 12 -136 15 -31 4 -49 2 -54 -6z m583 -382 c12 -16 21 -113
12 -128 -4 -7 -58 -13 -134 -17 -128 -6 -128 -6 -123 60 3 36 8 70 11 75 3 5
38 10 78 11 39 1 74 4 77 6 10 10 69 4 79 -7z m-340 -8 c32 0 32 0 29 -63 -2
-35 -6 -68 -10 -74 -4 -6 -52 -11 -117 -12 -110 -2 -110 -2 -110 67 0 85 12
94 110 87 36 -3 80 -5 98 -5z m329 -207 c21 -17 21 -17 2 -45 -30 -42 -75 -69
-122 -74 -23 -3 -60 -8 -82 -10 -40 -6 -40 -6 -37 65 4 70 4 70 95 74 51 1 99
4 107 5 9 1 25 -6 37 -15z m-307 -54 c0 -86 -2 -88 -68 -82 -100 10 -172 56
-172 109 0 28 10 30 138 30 102 0 102 0 102 -57z"/>
</g>
</svg>
