<svg version="1.0" xmlns="http://www.w3.org/2000/svg"
 width="63.000000pt" height="117.000000pt" viewBox="0 0 63.000000 117.000000"
 preserveAspectRatio="xMidYMid meet">
<metadata>
Created by potrace 1.15, written by Peter Selinger 2001-2017
</metadata>
<g transform="translate(0.000000,117.000000) scale(0.100000,-0.100000)"
fill="#000000" stroke="none">
<path d="M100 1010 c0 -34 -4 -60 -10 -60 -6 0 -24 -13 -40 -29 -57 -54 -50
-165 14 -207 14 -8 27 -22 30 -30 7 -18 -16 -44 -38 -44 -9 0 -16 -8 -16 -19
0 -11 -5 -23 -10 -26 -6 -3 -10 -28 -10 -55 0 -42 4 -52 31 -74 17 -14 35 -26
40 -26 5 0 9 -4 9 -10 0 -5 -9 -10 -20 -10 -12 0 -30 -16 -47 -42 -27 -40 -28
-46 -30 -189 -2 -115 1 -150 11 -159 24 -19 29 6 31 149 2 138 14 201 40 201
11 0 14 -37 15 -177 1 -172 6 -203 30 -188 8 5 11 55 10 174 -2 91 -2 174 -1
184 1 22 30 22 37 0 3 -10 10 -26 15 -37 6 -10 10 -43 10 -75 0 -83 17 -223
29 -235 21 -21 29 18 28 139 0 120 -13 184 -45 234 -12 18 -21 22 -44 17 -24
-4 -29 -2 -29 13 0 13 10 21 34 25 49 9 71 38 68 91 -2 60 -31 109 -66 113
-15 2 -30 10 -33 18 -6 16 33 64 53 64 13 0 35 49 40 89 4 33 -35 100 -62 107
-17 4 -23 15 -28 50 -13 96 -46 113 -46 24z m63 -119 c48 -19 40 -99 -13 -121
-39 -16 -90 -16 -101 1 -20 31 -6 121 17 112 8 -3 14 0 14 6 0 13 50 14 83 2z
m0 -282 c38 -10 38 -10 35 -65 -3 -54 -3 -54 -55 -54 -59 0 -83 17 -83 58 0
26 34 72 54 72 6 0 28 -5 49 -11z"/>
<path d="M510 989 c-8 -5 -44 -9 -79 -9 -115 0 -166 -49 -152 -145 8 -50 38
-108 54 -102 13 5 12 63 -2 81 -17 24 -12 74 11 90 38 27 55 20 67 -28 6 -25
11 -56 11 -70 0 -14 9 -31 22 -40 39 -28 51 5 22 64 -10 18 -17 49 -18 69 -1
34 1 36 29 36 19 0 30 -5 31 -15 2 -26 16 -60 25 -60 5 0 9 -7 9 -15 0 -28 24
-65 42 -65 10 0 18 -4 18 -10 0 -5 5 -10 10 -10 16 0 11 45 -7 66 -10 10 -28
38 -41 61 -22 41 -22 41 9 63 17 13 27 26 22 30 -14 13 -68 19 -83 9z"/>
<path d="M435 691 c-6 -36 -12 -43 -49 -60 -67 -29 -86 -56 -86 -117 0 -29 5
-56 10 -59 6 -3 10 -17 10 -30 0 -13 5 -27 10 -30 6 -4 7 -13 1 -23 -5 -10
-12 -62 -15 -117 -2 -55 -8 -108 -11 -118 -4 -10 -2 -17 4 -17 7 0 9 -9 5 -25
-8 -31 13 -60 31 -45 9 7 13 48 14 132 1 67 3 123 5 125 2 2 16 -1 31 -7 39
-15 53 2 26 31 -29 31 -26 46 12 69 36 23 28 27 90 -49 25 -30 21 -55 -13 -93
-57 -62 -50 -122 25 -201 31 -33 70 -51 73 -34 4 18 1 28 -15 45 -42 42 -83
101 -83 121 0 11 7 26 16 33 50 41 74 67 74 80 0 23 -27 72 -55 98 -31 29 -32
47 -2 56 48 14 59 34 55 100 -2 42 2 67 11 78 8 10 10 20 5 25 -14 13 -54 23
-54 14 0 -13 -80 -12 -81 1 -1 6 -2 20 -3 31 -1 11 -8 21 -18 23 -12 2 -18 -7
-23 -37z m121 -108 c-2 -45 -13 -66 -42 -81 -29 -15 -34 -7 -34 54 0 55 5 62
52 63 24 1 26 -2 24 -36z m-122 -25 c3 -13 6 -39 6 -59 0 -31 -5 -37 -36 -53
-20 -9 -38 -15 -40 -13 -2 2 -7 31 -10 65 -6 53 -5 62 10 62 9 0 16 5 16 10 0
6 11 10 24 10 16 0 26 -7 30 -22z"/>
</g>
</svg>
