<svg version="1.0" xmlns="http://www.w3.org/2000/svg"
 width="66.000000pt" height="89.000000pt" viewBox="0 0 66.000000 89.000000"
 preserveAspectRatio="xMidYMid meet">
<metadata>
Created by potrace 1.15, written by Peter Selinger 2001-2017
</metadata>
<g transform="translate(0.000000,89.000000) scale(0.100000,-0.100000)"
fill="#000000" stroke="none">
<path d="M121 631 c-8 -5 -11 -15 -8 -23 4 -12 25 -14 114 -10 108 4 142 14
113 32 -19 12 -200 13 -219 1z"/>
<path d="M503 618 c-31 -34 -73 -124 -73 -156 0 -16 9 -40 19 -54 20 -25 20
-25 -6 -64 -15 -21 -39 -54 -55 -72 -33 -38 -35 -52 -9 -52 18 0 61 42 109
105 21 29 22 29 37 11 28 -37 16 -64 -68 -153 -37 -38 -42 -63 -14 -63 17 1
113 111 133 153 16 34 16 36 -5 71 -12 19 -40 49 -62 66 -42 34 -48 55 -24 86
8 10 15 25 15 33 0 7 11 27 25 43 41 48 20 91 -22 46z"/>
<path d="M80 515 c-21 -26 -2 -34 65 -28 75 7 74 10 46 -86 -11 -36 -21 -77
-23 -91 -2 -14 -10 -25 -18 -25 -12 0 -14 10 -12 45 7 99 7 113 -4 117 -17 6
-36 -46 -41 -112 -6 -73 4 -86 77 -93 29 -3 50 -9 50 -16 0 -12 -40 -92 -76
-153 -14 -24 -16 -35 -7 -44 6 -6 16 -9 21 -5 16 9 82 126 82 144 0 9 9 32 20
50 11 18 20 41 20 52 0 10 5 22 10 25 6 4 10 -39 10 -122 0 -125 10 -174 28
-145 5 7 12 75 16 150 6 137 6 137 -21 160 -48 39 -83 77 -83 89 0 33 21 63
44 63 45 0 86 13 86 26 0 21 -272 20 -290 -1z m162 -178 c6 -33 -8 -67 -28
-67 -13 0 -15 7 -9 37 4 21 9 41 11 45 10 15 22 8 26 -15z"/>
</g>
</svg>
