<svg version="1.0" xmlns="http://www.w3.org/2000/svg"
 width="74.000000pt" height="80.000000pt" viewBox="0 0 74.000000 80.000000"
 preserveAspectRatio="xMidYMid meet">
<metadata>
Created by potrace 1.15, written by Peter Selinger 2001-2017
</metadata>
<g transform="translate(0.000000,80.000000) scale(0.100000,-0.100000)"
fill="#000000" stroke="none">
<path d="M297 583 c-134 -3 -148 -5 -145 -21 3 -15 15 -17 96 -13 92 3 92 3
92 -28 0 -31 0 -31 -113 -31 -75 0 -117 -4 -125 -12 -25 -25 -11 -31 53 -24
65 7 65 7 65 -24 0 -30 0 -30 -58 -30 -54 0 -82 -11 -82 -33 0 -5 30 -6 70 -2
70 7 70 7 70 -34 0 -41 0 -41 -65 -41 -56 0 -65 -2 -65 -18 0 -17 9 -18 131
-14 131 5 131 5 129 -99 -3 -130 -3 -129 14 -129 21 0 26 23 26 131 0 99 0 99
108 99 108 0 141 8 127 30 -5 8 -23 9 -56 5 -49 -7 -49 -7 -49 35 0 42 0 42
57 38 49 -2 58 0 61 15 3 15 -5 17 -57 17 -61 0 -61 0 -61 34 0 32 1 33 37 32
29 -1 38 3 41 18 4 18 -2 19 -108 14 -111 -6 -111 -6 -108 21 3 25 5 26 88 31
67 4 85 8 85 20 0 17 -20 18 -258 13z m43 -133 c26 -17 -2 -45 -49 -48 -37 -3
-41 -1 -41 21 0 13 3 27 7 30 10 10 66 8 83 -3z m144 -6 c14 -38 7 -44 -49
-44 -54 0 -55 0 -55 30 0 29 1 30 49 30 35 0 51 -4 55 -16z m-146 -86 c17 -17
15 -55 -4 -62 -9 -3 -31 -6 -50 -6 -33 0 -34 1 -34 40 0 40 0 40 38 40 21 0
43 -5 50 -12z m150 -20 c-3 -32 -4 -33 -55 -36 -53 -3 -53 -3 -53 32 0 36 0
36 56 36 55 0 55 0 52 -32z"/>
<path d="M455 210 c-3 -5 12 -20 33 -34 21 -13 52 -40 68 -61 31 -39 64 -41
64 -4 0 27 -152 119 -165 99z"/>
<path d="M176 141 c-40 -40 -57 -64 -53 -75 11 -28 34 -17 86 41 48 54 60 82
36 89 -5 2 -37 -23 -69 -55z"/>
</g>
</svg>
