<svg version="1.0" xmlns="http://www.w3.org/2000/svg"
 width="59.000000pt" height="77.000000pt" viewBox="0 0 59.000000 77.000000"
 preserveAspectRatio="xMidYMid meet">
<metadata>
Created by potrace 1.15, written by Peter Selinger 2001-2017
</metadata>
<g transform="translate(0.000000,77.000000) scale(0.100000,-0.100000)"
fill="#000000" stroke="none">
<path d="M282 718 c-6 -6 -12 -22 -12 -35 0 -22 -2 -23 -101 -23 -98 0 -100 0
-97 -22 3 -22 7 -23 103 -23 100 0 100 0 103 -28 5 -38 -25 -48 -48 -17 -18
23 -18 23 -29 2 -15 -29 -61 -30 -68 -2 -7 27 -19 25 -39 -5 -10 -15 -26 -25
-41 -25 -34 0 -24 -24 12 -30 23 -4 31 -12 36 -36 9 -46 17 -54 55 -54 50 0
72 15 80 55 12 66 50 29 42 -41 -3 -30 -5 -31 -103 -54 -27 -6 -58 -19 -68
-29 -21 -21 -37 -113 -37 -221 0 -83 7 -104 30 -90 11 7 16 39 20 134 5 136
15 158 69 169 16 3 41 9 55 13 27 6 27 6 24 -37 -3 -49 -28 -62 -38 -19 -7 29
-43 35 -48 7 -6 -28 24 -64 58 -70 32 -7 33 -27 1 -27 -27 0 -47 -29 -61 -88
-9 -38 -9 -57 -2 -64 18 -18 39 8 45 54 6 42 31 73 50 61 5 -3 7 -29 4 -59 -3
-30 -1 -56 4 -60 19 -12 39 19 39 60 0 22 5 48 10 56 17 25 42 -17 38 -65 -3
-34 0 -40 17 -40 17 0 20 8 23 57 3 66 -18 98 -65 98 -32 0 -20 17 16 22 32 4
65 49 56 77 -9 31 -31 26 -44 -10 -15 -45 -45 -36 -49 15 -3 39 -3 39 35 33
21 -4 50 -7 65 -7 40 0 51 -47 46 -191 -4 -107 -2 -119 13 -119 35 0 42 26 36
133 -8 117 -20 167 -45 190 -10 9 -47 22 -83 29 -64 13 -64 13 -64 68 0 42 3
55 15 55 9 0 16 -12 18 -30 5 -43 19 -55 63 -55 43 0 65 17 74 59 4 20 13 31
28 33 31 4 28 32 -4 36 -17 2 -29 11 -32 24 -6 22 -27 16 -27 -7 0 -8 -12 -18
-26 -21 -21 -5 -31 -2 -44 16 -17 23 -17 23 -34 -1 -14 -20 -18 -22 -26 -9 -5
8 -10 25 -10 38 0 21 3 22 94 22 52 0 97 4 101 9 9 15 -25 41 -48 37 -12 -3
-48 -7 -79 -10 -57 -6 -57 -6 -60 31 -3 40 -23 54 -46 31z m168 -217 c0 -24
-25 -45 -45 -37 -8 3 -15 17 -15 31 0 21 5 25 30 25 23 0 30 -5 30 -19z m-260
-16 c0 -32 -28 -45 -46 -21 -17 24 -7 46 22 46 19 0 24 -5 24 -25z"/>
</g>
</svg>
