<svg version="1.0" xmlns="http://www.w3.org/2000/svg"
 width="66.000000pt" height="91.000000pt" viewBox="0 0 66.000000 91.000000"
 preserveAspectRatio="xMidYMid meet">
<metadata>
Created by potrace 1.15, written by Peter Selinger 2001-2017
</metadata>
<g transform="translate(0.000000,91.000000) scale(0.100000,-0.100000)"
fill="#000000" stroke="none">
<path d="M377 704 c-73 -23 -82 -48 -96 -284 -10 -178 -28 -318 -46 -362 -8
-21 17 -25 33 -5 18 22 44 228 51 402 6 169 6 169 49 198 40 27 47 28 103 22
60 -7 62 -8 79 -49 15 -33 20 -89 29 -297 6 -141 14 -264 17 -273 11 -29 39
-14 37 19 -2 17 -8 155 -15 307 -13 276 -13 278 -38 303 -33 33 -131 42 -203
19z"/>
<path d="M92 672 c-12 -4 -31 -22 -42 -40 -18 -29 -20 -50 -20 -183 0 -118 3
-157 16 -181 20 -38 11 -124 -18 -182 -15 -29 -17 -41 -8 -50 8 -8 16 -5 30
14 17 22 25 45 48 145 5 20 15 31 29 33 26 4 33 -19 33 -120 0 -81 11 -102 38
-75 13 14 14 24 4 67 -19 82 -16 126 12 153 33 33 38 69 34 234 -3 134 -4 143
-27 167 -25 27 -74 33 -129 18z m83 -38 c18 -7 45 -54 45 -79 0 -12 -14 -15
-74 -15 -65 0 -75 2 -81 20 -16 51 51 96 110 74z m45 -153 c0 -57 -6 -61 -86
-61 -74 0 -74 0 -74 45 0 45 0 45 80 45 80 0 80 0 80 -29z m-10 -135 c0 -25
-7 -40 -26 -55 -30 -23 -86 -28 -102 -8 -13 17 -25 74 -17 87 3 5 37 10 76 10
69 0 69 0 69 -34z"/>
<path d="M398 623 c-17 -3 -28 -11 -28 -20 0 -13 10 -15 73 -8 79 7 82 9 72
24 -6 11 -61 12 -117 4z"/>
<path d="M440 553 c-63 -5 -90 -12 -90 -23 0 -13 187 -13 195 0 6 9 -38 32
-53 28 -4 -1 -27 -3 -52 -5z"/>
<path d="M370 462 c-20 -16 -23 -30 -28 -133 -5 -115 -5 -115 23 -137 19 -15
42 -22 71 -22 37 0 46 4 66 33 20 28 23 44 23 127 0 126 -14 150 -84 150 -32
0 -56 -6 -71 -18z m110 -21 c21 -41 13 -51 -39 -51 -60 0 -71 13 -40 46 27 29
64 31 79 5z m18 -98 c-3 -27 -6 -28 -60 -31 -56 -3 -58 -2 -58 22 0 23 5 25
48 29 26 2 53 4 60 5 9 1 12 -7 10 -25z m-8 -83 c0 -36 -60 -47 -97 -17 -28
21 -11 29 75 35 16 2 22 -3 22 -18z"/>
</g>
</svg>
