<svg version="1.0" xmlns="http://www.w3.org/2000/svg"
 width="77.000000pt" height="115.000000pt" viewBox="0 0 77.000000 115.000000"
 preserveAspectRatio="xMidYMid meet">
<metadata>
Created by potrace 1.15, written by Peter Selinger 2001-2017
</metadata>
<g transform="translate(0.000000,115.000000) scale(0.100000,-0.100000)"
fill="#000000" stroke="none">
<path d="M470 1126 c0 -13 7 -40 15 -60 9 -20 13 -41 10 -46 -4 -6 -1 -10 4
-10 6 0 11 -14 11 -32 0 -31 0 -31 -23 -10 -13 12 -33 22 -45 22 -35 0 -27
-35 19 -84 47 -52 47 -54 -6 -211 -30 -90 -35 -125 -16 -125 5 0 35 61 63 130
6 14 14 33 19 42 5 10 9 24 9 32 0 8 4 17 10 21 11 7 41 -47 52 -97 15 -70 26
-113 47 -188 12 -41 26 -97 31 -123 18 -88 31 -89 24 -2 -3 44 -8 91 -11 105
-3 14 -9 57 -13 95 -11 91 -41 192 -74 247 -19 32 -27 64 -31 113 -7 91 -20
138 -51 175 -31 36 -44 38 -44 6z"/>
<path d="M116 1068 c-3 -13 -7 -41 -11 -63 -3 -22 -8 -51 -10 -65 -13 -81 -18
-210 -20 -495 -1 -295 4 -375 25 -375 10 0 30 103 30 158 0 45 0 45 80 39 64
-5 83 -3 95 9 8 9 12 20 9 25 -11 19 -3 294 12 389 8 52 17 109 20 125 7 45
-6 55 -82 65 -127 18 -117 8 -113 113 4 80 2 92 -13 95 -11 2 -19 -5 -22 -20z
m163 -247 c9 -6 12 -19 7 -42 -4 -19 -9 -59 -12 -89 -9 -100 -9 -100 -57 -99
-23 1 -53 4 -67 8 -25 7 -25 7 -21 111 1 58 5 108 8 113 6 10 125 9 142 -2z
m-37 -303 c11 -9 18 -39 22 -105 8 -106 9 -105 -86 -89 -58 9 -58 9 -58 89 0
61 4 85 17 99 19 21 81 24 105 6z"/>
</g>
</svg>
