<svg version="1.0" xmlns="http://www.w3.org/2000/svg"
 width="59.000000pt" height="91.000000pt" viewBox="0 0 59.000000 91.000000"
 preserveAspectRatio="xMidYMid meet">
<metadata>
Created by potrace 1.15, written by Peter Selinger 2001-2017
</metadata>
<g transform="translate(0.000000,91.000000) scale(0.100000,-0.100000)"
fill="#000000" stroke="none">
<path d="M163 668 c-7 -24 -14 -77 -17 -118 -3 -41 -10 -101 -15 -132 -5 -32
-7 -66 -4 -77 2 -10 0 -22 -6 -25 -6 -4 -11 -25 -11 -46 0 -21 -4 -42 -10 -45
-11 -7 -13 -45 -4 -69 8 -20 33 -21 40 -1 8 20 209 22 218 3 11 -27 34 25 41
92 7 66 9 70 46 96 22 15 41 25 43 23 11 -15 28 -188 23 -239 -5 -46 -4 -61 5
-58 14 5 26 55 28 113 2 70 -12 239 -22 257 -6 12 -3 26 8 43 17 26 15 94 -5
132 -5 10 -14 30 -22 46 -7 15 -20 27 -31 27 -17 0 -19 -5 -13 -32 4 -18 14
-48 21 -67 25 -59 11 -100 -22 -67 -8 9 -22 20 -32 25 -11 6 -18 27 -22 63 -5
58 -29 74 -40 28 -6 -24 -9 -25 -71 -22 -35 2 -67 6 -71 9 -5 2 -8 22 -8 44 0
31 -4 39 -18 39 -12 0 -21 -13 -29 -42z m189 -118 c2 -8 2 -43 0 -77 -4 -63
-4 -63 -83 -63 -79 0 -79 0 -79 30 0 16 5 52 11 80 11 50 11 50 60 50 27 0 49
5 49 10 0 15 38 -11 42 -30z m98 -95 c0 -34 -48 -94 -51 -62 -3 37 -1 78 5 93
6 16 8 16 26 -1 11 -10 20 -23 20 -30z m-99 -105 c0 -8 2 -28 4 -45 1 -16 1
-44 -2 -61 -5 -32 -5 -32 -86 -36 -45 -2 -87 -3 -94 0 -9 3 -10 23 -6 70 3 37
8 69 10 72 5 6 87 15 136 15 26 0 37 -4 38 -15z"/>
</g>
</svg>
