<svg version="1.0" xmlns="http://www.w3.org/2000/svg"
 width="69.000000pt" height="83.000000pt" viewBox="0 0 69.000000 83.000000"
 preserveAspectRatio="xMidYMid meet">
<metadata>
Created by potrace 1.15, written by Peter Selinger 2001-2017
</metadata>
<g transform="translate(0.000000,83.000000) scale(0.100000,-0.100000)"
fill="#000000" stroke="none">
<path d="M337 673 c-4 -3 -7 -15 -7 -25 0 -36 -44 -98 -70 -98 -10 0 -31 -7
-46 -15 -16 -8 -36 -13 -44 -10 -8 3 -35 -12 -59 -33 -42 -36 -45 -42 -45 -89
0 -48 15 -83 36 -83 13 0 27 44 17 55 -5 5 -9 16 -9 25 0 19 40 60 59 60 7 0
27 6 44 14 18 8 46 17 62 21 58 14 192 6 240 -15 11 -4 28 -11 39 -14 19 -6
19 -14 0 -88 -5 -23 -3 -28 13 -28 21 0 66 43 76 73 14 38 -20 77 -83 97 -25
7 -49 17 -54 22 -6 4 -18 8 -27 8 -19 0 -79 64 -79 85 0 29 -45 56 -63 38z"/>
<path d="M333 412 c-13 -2 -23 -8 -23 -13 0 -5 -7 -9 -15 -9 -23 0 -54 -31
-48 -47 4 -11 19 -14 57 -11 51 3 51 3 49 -27 -1 -16 -11 -37 -21 -45 -28 -23
-46 -60 -34 -72 6 -6 26 -1 56 16 46 25 46 25 66 -19 11 -24 20 -49 20 -55 0
-29 33 -80 52 -80 17 0 19 4 14 28 -24 96 -35 164 -36 210 0 51 -11 84 -34
108 -13 12 -71 22 -103 16z"/>
</g>
</svg>
