<svg version="1.0" xmlns="http://www.w3.org/2000/svg"
 width="69.000000pt" height="86.000000pt" viewBox="0 0 69.000000 86.000000"
 preserveAspectRatio="xMidYMid meet">
<metadata>
Created by potrace 1.15, written by Peter Selinger 2001-2017
</metadata>
<g transform="translate(0.000000,86.000000) scale(0.100000,-0.100000)"
fill="#000000" stroke="none">
<path d="M386 695 c-3 -9 -6 -25 -6 -35 0 -15 -11 -18 -72 -22 -40 -3 -85 -1
-99 4 -42 14 -134 6 -134 -12 0 -12 17 -16 85 -18 47 -2 89 -7 94 -12 13 -13
83 -13 108 1 24 13 32 7 23 -20 -5 -16 -18 -22 -56 -27 -80 -11 -79 -5 -80
-260 -1 -123 -2 -230 -3 -236 -1 -7 10 -13 24 -13 25 0 25 0 30 222 3 122 8
225 13 229 39 39 198 39 220 0 8 -15 12 -88 12 -244 0 -217 1 -223 20 -220 19
3 20 12 23 254 3 292 7 280 -95 278 -63 -1 -63 -1 -60 70 2 66 0 71 -19 74
-13 2 -24 -4 -28 -13z"/>
<path d="M463 625 c-8 -23 1 -28 60 -33 40 -3 56 0 66 11 21 26 3 37 -60 37
-45 0 -61 -4 -66 -15z"/>
<path d="M45 540 c-14 -23 11 -30 99 -30 97 0 113 4 95 27 -14 16 -184 19
-194 3z"/>
<path d="M353 503 c-15 -5 -17 -51 -4 -71 5 -9 27 -12 72 -10 64 3 64 3 67 37
2 20 -2 37 -10 42 -14 9 -105 11 -125 2z m112 -38 c0 -5 -21 -11 -47 -13 -39
-3 -48 0 -48 13 0 13 9 16 48 13 26 -2 47 -7 47 -13z"/>
<path d="M54 449 c-13 -22 22 -30 101 -24 87 7 90 8 80 24 -9 15 -172 14 -181
0z"/>
<path d="M338 389 c-13 -7 -18 -23 -18 -57 0 -55 12 -72 53 -72 43 0 28 -24
-17 -28 -45 -4 -44 -26 2 -30 39 -4 43 -22 5 -22 -42 0 -48 -10 -48 -80 0 -51
3 -65 15 -65 11 0 16 14 18 52 2 29 7 53 12 53 6 0 9 -21 7 -47 -1 -37 1 -48
13 -48 11 0 16 13 18 45 5 65 22 76 22 14 0 -55 5 -65 26 -57 9 3 14 21 14 49
0 30 4 44 13 44 11 0 12 -11 7 -46 -5 -35 -4 -47 7 -51 25 -10 36 13 28 54 -5
21 -7 46 -6 56 2 12 -5 17 -23 17 -31 0 -56 9 -56 21 0 5 9 9 19 9 26 0 51 10
51 21 0 5 -16 9 -36 9 -41 0 -43 23 -3 28 38 6 49 21 49 68 0 60 -18 74 -93
74 -34 0 -70 -5 -79 -11z m62 -39 c0 -5 -9 -10 -20 -10 -11 0 -20 5 -20 10 0
6 9 10 20 10 11 0 20 -4 20 -10z m75 -1 c4 -6 5 -12 3 -14 -7 -7 -48 7 -48 16
0 13 37 11 45 -2z m-75 -49 c0 -5 -9 -10 -20 -10 -11 0 -20 5 -20 10 0 6 9 10
20 10 11 0 20 -4 20 -10z m75 -10 c-3 -5 -13 -10 -21 -10 -8 0 -14 5 -14 10 0
6 9 10 21 10 11 0 17 -4 14 -10z"/>
<path d="M80 371 c-14 -4 -25 -13 -25 -21 0 -12 18 -16 83 -18 69 -2 83 0 89
14 3 9 0 20 -8 25 -16 10 -102 10 -139 0z"/>
<path d="M76 264 c-20 -19 -23 -173 -4 -192 15 -15 92 -16 119 -2 17 9 19 22
19 98 0 55 -4 92 -12 100 -18 18 -103 15 -122 -4z m88 -50 c3 -9 6 -33 6 -54
0 -30 -5 -40 -20 -45 -11 -3 -24 -3 -30 0 -11 7 -14 98 -3 108 12 13 41 7 47
-9z"/>
</g>
</svg>
