<svg version="1.0" xmlns="http://www.w3.org/2000/svg"
 width="51.000000pt" height="133.000000pt" viewBox="0 0 51.000000 133.000000"
 preserveAspectRatio="xMidYMid meet">
<metadata>
Created by potrace 1.15, written by Peter Selinger 2001-2017
</metadata>
<g transform="translate(0.000000,133.000000) scale(0.100000,-0.100000)"
fill="#000000" stroke="none">
<path d="M127 1058 c2 -46 9 -107 14 -137 10 -61 5 -81 -9 -30 -4 19 -16 35
-25 37 -15 3 -17 -6 -18 -65 -2 -142 3 -154 91 -239 60 -59 73 -89 50 -124 -8
-13 -13 -13 -39 3 -35 20 -41 21 -41 4 0 -7 17 -30 38 -51 36 -34 40 -43 51
-124 18 -131 42 -202 68 -202 9 0 12 8 8 23 -10 49 -17 95 -22 164 -5 73 -5
73 28 62 19 -6 44 -16 56 -22 13 -5 26 -7 30 -4 10 11 -34 52 -83 78 -45 23
-45 23 -39 73 5 44 12 57 54 96 26 25 54 61 61 80 18 45 19 126 1 218 -12 59
-18 72 -33 72 -18 0 -19 -8 -16 -123 3 -123 3 -123 -32 -170 -36 -47 -70 -62
-70 -29 0 26 16 45 41 49 13 2 28 8 33 13 13 13 -1 40 -23 40 -22 0 -31 25
-31 88 0 29 5 44 16 49 9 3 13 12 8 22 -3 9 -9 34 -11 56 -3 22 -9 47 -13 55
-13 22 -40 -49 -40 -104 0 -42 -13 -66 -28 -51 -3 3 -10 32 -13 63 -18 137
-21 158 -31 185 -6 15 -16 27 -23 27 -10 0 -12 -19 -8 -82z m73 -297 c6 -16
10 -40 8 -53 -4 -22 -5 -22 -13 -3 -5 11 -15 26 -22 33 -17 18 -17 52 1 52 7
0 19 -13 26 -29z"/>
</g>
</svg>
