<svg version="1.0" xmlns="http://www.w3.org/2000/svg"
 width="61.000000pt" height="129.000000pt" viewBox="0 0 61.000000 129.000000"
 preserveAspectRatio="xMidYMid meet">
<metadata>
Created by potrace 1.15, written by Peter Selinger 2001-2017
</metadata>
<g transform="translate(0.000000,129.000000) scale(0.100000,-0.100000)"
fill="#000000" stroke="none">
<path d="M316 1128 c-3 -13 -7 -51 -9 -86 -5 -57 -26 -112 -45 -112 -4 0 -13
23 -20 52 -14 60 -16 63 -38 54 -16 -6 -16 -8 1 -96 17 -88 18 -85 -19 -129
-36 -43 -36 -43 -36 17 0 59 -12 84 -31 65 -6 -6 -10 -60 -10 -121 -1 -105 1
-114 30 -172 31 -61 92 -130 144 -163 15 -10 27 -24 27 -32 0 -8 9 -31 21 -52
18 -32 19 -42 10 -74 -12 -40 -15 -207 -4 -236 4 -11 12 25 19 90 7 60 15 111
18 115 4 3 28 -18 55 -46 27 -29 56 -52 65 -52 21 0 20 9 -2 29 -18 17 -47 58
-70 101 -14 26 -10 61 11 82 19 19 67 91 67 100 0 5 -6 8 -12 8 -12 0 -36 -26
-87 -90 -19 -25 -19 -25 -37 13 -18 37 -18 37 13 65 17 15 46 49 64 77 19 27
40 56 47 64 8 8 18 26 24 40 12 30 28 180 21 198 -15 40 -40 -16 -46 -102 -3
-56 -9 -67 -73 -159 -38 -54 -79 -103 -91 -107 -30 -11 -62 16 -122 107 -44
65 -51 82 -51 125 0 34 4 49 13 49 7 0 23 9 36 21 25 23 51 19 51 -8 1 -10 7
-31 16 -48 13 -28 14 -24 9 63 -3 50 -2 92 2 92 12 0 47 60 55 95 5 17 11 65
14 108 6 67 5 77 -9 77 -9 0 -19 -10 -21 -22z"/>
</g>
</svg>
