<svg version="1.0" xmlns="http://www.w3.org/2000/svg"
 width="53.000000pt" height="101.000000pt" viewBox="0 0 53.000000 101.000000"
 preserveAspectRatio="xMidYMid meet">
<metadata>
Created by potrace 1.15, written by Peter Selinger 2001-2017
</metadata>
<g transform="translate(0.000000,101.000000) scale(0.100000,-0.100000)"
fill="#000000" stroke="none">
<path d="M206 781 c-3 -4 0 -38 5 -75 9 -57 8 -71 -5 -91 -24 -36 -36 -31 -36
16 0 48 -19 119 -32 119 -4 0 -8 -61 -8 -136 0 -150 5 -165 76 -227 18 -15 35
-40 39 -55 3 -15 20 -44 36 -65 34 -42 36 -88 6 -121 -9 -11 -17 -35 -17 -55
0 -36 0 -36 30 -4 17 18 30 36 30 40 0 15 25 63 32 63 4 0 22 -9 42 -20 49
-30 52 -10 6 34 -41 39 -47 50 -30 61 6 3 10 14 10 23 0 9 12 29 27 44 27 29
22 55 -8 43 -15 -6 -59 -69 -59 -85 0 -17 -18 -11 -35 13 -15 21 -14 23 7 40
93 72 119 126 126 257 4 80 2 98 -12 109 -13 11 -16 11 -16 0 -7 -175 -30
-257 -86 -308 -19 -18 -38 -30 -41 -27 -11 10 -30 180 -25 216 3 19 16 48 29
64 13 15 30 41 39 57 13 26 13 32 -2 55 -17 25 -17 25 -30 -13 -8 -21 -14 -39
-14 -40 0 -2 -6 -3 -14 -3 -8 0 -17 13 -21 28 -6 28 -40 58 -49 43z m24 -273
c0 -70 0 -71 -20 -53 -10 9 -24 33 -31 52 -10 30 -9 36 12 54 12 10 26 19 31
19 4 0 8 -32 8 -72z"/>
</g>
</svg>
