<svg version="1.0" xmlns="http://www.w3.org/2000/svg"
 width="55.000000pt" height="71.000000pt" viewBox="0 0 55.000000 71.000000"
 preserveAspectRatio="xMidYMid meet">
<metadata>
Created by potrace 1.15, written by Peter Selinger 2001-2017
</metadata>
<g transform="translate(0.000000,71.000000) scale(0.100000,-0.100000)"
fill="#000000" stroke="none">
<path d="M304 623 c30 -152 30 -149 5 -192 -27 -49 -39 -52 -39 -11 0 17 -4
30 -10 30 -5 0 -7 6 -4 13 3 8 0 27 -6 42 -16 42 -27 16 -24 -56 1 -32 0 -59
-3 -59 -4 0 -21 11 -40 26 -31 24 -33 28 -33 88 0 60 -19 110 -36 94 -10 -11
-16 -116 -9 -165 5 -34 12 -44 36 -55 16 -7 29 -16 29 -19 0 -4 14 -12 30 -19
33 -14 36 -20 18 -38 -8 -8 -8 -15 2 -27 9 -11 10 -19 3 -26 -7 -7 -21 0 -43
21 -32 29 -75 48 -87 37 -3 -3 11 -23 31 -44 20 -21 36 -41 36 -45 0 -3 16
-22 35 -41 19 -19 35 -45 35 -57 0 -25 17 -60 29 -60 5 0 12 15 15 33 3 18 17
49 31 67 14 19 25 39 25 45 0 7 18 31 41 54 22 24 38 48 36 54 -8 25 -33 16
-57 -20 -49 -74 -66 -81 -72 -29 -5 44 3 64 40 102 63 66 66 84 36 209 -14 61
-62 105 -50 48z"/>
</g>
</svg>
