<svg version="1.0" xmlns="http://www.w3.org/2000/svg"
 width="65.000000pt" height="97.000000pt" viewBox="0 0 65.000000 97.000000"
 preserveAspectRatio="xMidYMid meet">
<metadata>
Created by potrace 1.15, written by Peter Selinger 2001-2017
</metadata>
<g transform="translate(0.000000,97.000000) scale(0.100000,-0.100000)"
fill="#000000" stroke="none">
<path d="M350 783 c-1 -43 -2 -145 -3 -228 -2 -150 -2 -150 -43 -147 -89 7
-159 48 -169 99 -3 15 -10 44 -15 64 -6 20 -10 48 -10 62 0 14 -4 28 -9 31 -5
4 -12 24 -16 45 -3 22 -13 47 -21 58 -14 16 -15 12 -9 -47 14 -158 21 -196 49
-246 23 -43 37 -55 84 -77 32 -14 71 -28 87 -32 59 -13 75 -31 75 -84 0 -49 0
-49 -57 -55 -127 -15 -142 -18 -146 -31 -4 -9 19 -16 83 -25 49 -7 96 -10 104
-7 14 6 16 -5 16 -79 0 -84 0 -85 23 -78 32 10 37 22 37 95 0 74 0 74 75 78
111 6 114 45 3 49 -76 3 -76 3 -83 47 -3 25 -4 49 0 54 7 12 64 41 79 41 6 0
26 13 44 30 18 16 37 30 41 30 48 0 72 386 25 404 -13 5 -15 -9 -15 -87 1
-114 -11 -202 -33 -249 -24 -51 -94 -95 -141 -89 -6 1 -11 70 -13 179 -2 171
-14 272 -33 272 -5 0 -9 -35 -9 -77z"/>
</g>
</svg>
