<svg version="1.0" xmlns="http://www.w3.org/2000/svg"
 width="70.000000pt" height="86.000000pt" viewBox="0 0 70.000000 86.000000"
 preserveAspectRatio="xMidYMid meet">
<metadata>
Created by potrace 1.15, written by Peter Selinger 2001-2017
</metadata>
<g transform="translate(0.000000,86.000000) scale(0.100000,-0.100000)"
fill="#000000" stroke="none">
<path d="M183 671 c-37 -16 -43 -44 -43 -185 0 -126 1 -136 21 -146 13 -7 81
-10 194 -8 216 4 204 -5 205 160 0 125 -8 161 -37 173 -28 11 -315 16 -340 6z
m132 -61 c0 -9 -11 -16 -30 -18 -55 -6 -65 -25 -65 -124 0 -72 -3 -88 -15 -88
-12 0 -15 19 -15 113 0 108 1 115 23 125 32 16 102 11 102 -8z m175 10 c23
-14 28 -225 6 -233 -14 -6 -16 5 -16 78 0 78 -2 85 -26 104 -15 12 -41 21 -60
21 -37 0 -37 0 -28 24 7 18 98 23 124 6z m-196 -111 c13 -67 5 -119 -20 -119
-10 0 -14 14 -14 53 0 89 21 130 34 66z m74 -52 c2 -64 0 -77 -13 -77 -12 0
-15 15 -15 81 0 60 3 80 13 77 8 -3 13 -31 15 -81z m66 67 c3 -9 6 -45 6 -80
0 -50 -3 -64 -15 -64 -12 0 -15 16 -15 80 0 75 10 101 24 64z"/>
<path d="M180 293 c-39 -7 -50 -30 -50 -104 0 -81 15 -102 68 -97 25 2 37 -2
43 -15 28 -56 16 -52 167 -52 103 0 145 4 154 13 22 22 -17 42 -85 42 -55 0
-58 1 -55 23 3 19 10 22 53 25 58 4 71 12 79 52 9 49 -4 89 -35 105 -36 19
-100 19 -125 1 -29 -22 -3 -41 54 -41 38 0 47 -4 50 -19 5 -21 -22 -46 -48
-46 -9 0 -22 11 -28 25 -20 43 -39 20 -46 -56 -6 -58 -10 -69 -26 -69 -41 0
-50 11 -50 59 0 55 -11 74 -36 69 -12 -2 -20 -13 -22 -31 -3 -24 -7 -28 -30
-25 -21 2 -28 9 -30 31 -5 39 11 54 63 61 52 8 66 23 40 43 -18 13 -54 15
-105 6z"/>
</g>
</svg>
