<svg version="1.0" xmlns="http://www.w3.org/2000/svg"
 width="79.000000pt" height="155.000000pt" viewBox="0 0 79.000000 155.000000"
 preserveAspectRatio="xMidYMid meet">
<metadata>
Created by potrace 1.15, written by Peter Selinger 2001-2017
</metadata>
<g transform="translate(0.000000,155.000000) scale(0.100000,-0.100000)"
fill="#000000" stroke="none">
<path d="M70 1391 c0 -11 -5 -23 -10 -26 -9 -5 -4 -192 5 -203 7 -9 38 15 46
35 8 23 13 24 61 19 28 -4 56 -10 62 -15 6 -4 32 -14 59 -22 26 -7 59 -24 73
-36 25 -21 27 -28 28 -120 1 -109 11 -96 -98 -120 -33 -7 -40 -13 -52 -48 -17
-49 -17 -85 -1 -105 21 -26 65 -43 114 -44 48 -1 48 -1 51 -98 3 -98 3 -98
-23 -98 -14 0 -43 9 -65 20 -22 11 -45 20 -52 20 -7 0 -24 14 -36 30 -31 39
-89 56 -114 33 -18 -17 -23 -49 -10 -69 9 -15 120 -66 201 -94 36 -13 72 -30
82 -39 17 -17 59 -208 59 -272 0 -39 11 -56 57 -87 72 -50 86 -12 36 97 -28
62 -59 257 -43 275 5 6 26 20 47 31 21 11 40 22 43 25 3 3 25 18 50 33 42 24
89 62 133 104 19 19 22 54 6 70 -12 12 -37 -5 -126 -84 -34 -30 -92 -62 -139
-77 -21 -6 -22 -3 -29 84 -7 82 -5 93 11 105 11 8 27 15 36 15 24 0 49 41 59
97 11 58 -1 74 -62 82 -23 3 -45 13 -50 21 -4 8 -13 69 -21 134 -13 119 -13
119 -46 137 -19 9 -41 24 -51 33 -10 9 -25 16 -34 16 -9 0 -18 4 -22 9 -3 5
-30 15 -60 21 -30 6 -55 16 -55 21 0 5 -8 9 -19 9 -23 0 -35 15 -50 63 -14 41
-51 54 -51 18z"/>
<path d="M56 782 c-5 -9 20 -32 28 -25 3 4 6 10 6 14 0 10 -28 20 -34 11z"/>
</g>
</svg>
