<svg version="1.0" xmlns="http://www.w3.org/2000/svg"
 width="49.000000pt" height="147.000000pt" viewBox="0 0 49.000000 147.000000"
 preserveAspectRatio="xMidYMid meet">
<metadata>
Created by potrace 1.15, written by Peter Selinger 2001-2017
</metadata>
<g transform="translate(0.000000,147.000000) scale(0.100000,-0.100000)"
fill="#000000" stroke="none">
<path d="M269 1303 c-2 -36 -2 -17 5 -188 4 -82 8 -167 10 -187 2 -21 1 -38
-2 -38 -11 0 -31 -49 -52 -122 -18 -66 -18 -68 1 -144 19 -78 27 -240 10 -230
-5 3 -15 26 -22 51 -7 25 -17 45 -21 45 -4 0 -8 6 -8 14 0 15 -29 30 -39 21
-3 -4 9 -48 27 -100 17 -51 32 -107 32 -124 0 -17 -16 -65 -36 -107 -19 -42
-33 -79 -29 -82 7 -8 52 45 66 78 10 24 11 24 24 6 8 -10 20 -44 26 -75 7 -31
16 -60 21 -66 13 -15 9 88 -7 166 -14 65 -14 83 0 175 12 82 24 120 55 181 31
60 40 90 40 129 0 27 -4 54 -8 60 -17 18 -52 240 -52 324 0 115 -37 309 -41
213z m64 -588 c2 -38 -23 -108 -42 -119 -10 -7 -41 82 -41 118 0 15 10 47 22
72 21 46 21 46 41 8 10 -22 20 -57 20 -79z"/>
</g>
</svg>
