<svg version="1.0" xmlns="http://www.w3.org/2000/svg"
 width="81.000000pt" height="109.000000pt" viewBox="0 0 81.000000 109.000000"
 preserveAspectRatio="xMidYMid meet">
<metadata>
Created by potrace 1.15, written by Peter Selinger 2001-2017
</metadata>
<g transform="translate(0.000000,109.000000) scale(0.100000,-0.100000)"
fill="#000000" stroke="none">
<path d="M160 1014 c-13 -14 -11 -19 9 -35 13 -11 39 -19 60 -19 20 0 42 -4
49 -9 20 -12 19 -72 -3 -117 -10 -21 -18 -53 -17 -72 1 -30 29 -92 42 -92 3 0
7 -46 9 -103 2 -56 4 -115 5 -131 2 -44 -23 -53 -77 -27 -32 15 -48 31 -57 54
-6 18 -19 49 -27 69 -8 20 -15 60 -15 90 0 57 -25 128 -45 128 -25 0 -43 -57
-39 -117 11 -138 22 -176 65 -225 38 -44 92 -75 153 -88 52 -12 58 -16 80 -58
12 -25 45 -68 73 -96 47 -48 64 -60 115 -86 11 -5 29 -15 40 -20 11 -6 28 -10
38 -10 10 0 23 -5 28 -10 12 -12 106 -16 123 -6 12 8 15 45 3 62 -7 10 -29 18
-94 31 -16 3 -28 8 -28 12 0 3 -15 12 -32 19 -18 7 -41 18 -50 23 -10 5 -24 9
-32 9 -19 0 -116 96 -116 114 0 9 19 24 43 34 40 18 117 85 117 102 0 5 8 16
17 25 40 41 68 245 41 305 -7 17 -15 30 -18 30 -22 -1 -35 -34 -46 -125 -10
-87 -32 -135 -93 -204 -24 -28 -69 -34 -81 -11 -4 8 -8 67 -9 130 -1 105 1
117 19 130 27 20 27 80 0 105 -16 14 -20 31 -20 80 0 76 -20 99 -95 109 -27 4
-66 9 -86 12 -26 4 -39 1 -49 -12z"/>
<path d="M790 130 c0 -5 5 -10 10 -10 6 0 10 5 10 10 0 6 -4 10 -10 10 -5 0
-10 -4 -10 -10z"/>
</g>
</svg>
