<svg version="1.0" xmlns="http://www.w3.org/2000/svg"
 width="61.000000pt" height="145.000000pt" viewBox="0 0 61.000000 145.000000"
 preserveAspectRatio="xMidYMid meet">
<metadata>
Created by potrace 1.15, written by Peter Selinger 2001-2017
</metadata>
<g transform="translate(0.000000,145.000000) scale(0.100000,-0.100000)"
fill="#000000" stroke="none">
<path d="M422 1268 c-6 -13 -16 -54 -22 -93 -13 -78 -32 -145 -41 -145 -3 0
-19 -28 -35 -62 -27 -59 -29 -71 -29 -188 0 -69 2 -141 4 -160 9 -78 -8 -206
-33 -251 -24 -42 -76 -186 -76 -208 0 -30 21 -3 56 69 21 44 41 80 45 80 3 0
12 -35 18 -77 24 -158 26 -164 48 -118 8 18 9 44 2 88 -5 34 -9 93 -9 131 0
63 2 71 28 92 15 13 31 24 36 24 20 0 76 52 76 71 0 18 -2 18 -36 4 -19 -8
-48 -24 -65 -35 -35 -26 -43 -15 -36 52 9 78 20 110 58 185 46 89 54 150 35
263 -14 84 -10 142 15 226 5 17 9 40 9 52 0 30 -33 29 -48 0z m-14 -378 c-5
-63 -43 -154 -60 -144 -15 10 -3 153 17 201 16 37 17 37 31 18 11 -14 14 -36
12 -75z"/>
</g>
</svg>
