<svg version="1.0" xmlns="http://www.w3.org/2000/svg"
 width="70.000000pt" height="87.000000pt" viewBox="0 0 70.000000 87.000000"
 preserveAspectRatio="xMidYMid meet">
<metadata>
Created by potrace 1.15, written by Peter Selinger 2001-2017
</metadata>
<g transform="translate(0.000000,87.000000) scale(0.100000,-0.100000)"
fill="#000000" stroke="none">
<path d="M108 624 c-26 -14 -28 -19 -28 -82 0 -91 7 -114 34 -110 19 3 21 10
24 71 3 64 4 67 27 67 24 0 25 -2 25 -74 0 -79 7 -93 35 -73 13 10 18 33 22
102 5 78 4 90 -12 102 -25 17 -93 16 -127 -3z"/>
<path d="M288 625 c-16 -17 -8 -45 15 -50 12 -3 80 -6 152 -8 130 -2 130 -2
131 -262 2 -245 3 -260 20 -260 41 0 46 36 40 287 -6 240 -10 270 -45 283 -25
10 -305 18 -313 10z"/>
<path d="M314 495 c-9 -23 5 -35 42 -35 33 0 35 -2 32 -27 -3 -26 -6 -28 -50
-28 -48 0 -76 -15 -64 -34 4 -6 22 -11 39 -11 80 0 77 6 77 -171 0 -124 3
-159 13 -159 32 0 37 24 37 172 0 148 0 148 38 148 76 0 83 36 7 42 -37 3 -40
5 -43 36 -3 31 -2 32 32 32 39 0 53 14 36 35 -18 21 -188 21 -196 0z"/>
<path d="M116 345 c-9 -9 -16 -27 -16 -40 0 -13 -7 -50 -15 -82 -18 -67 -20
-159 -4 -169 23 -14 34 21 44 134 10 117 10 117 40 117 30 0 30 0 27 -127 -3
-114 -2 -129 14 -135 36 -14 45 22 42 172 -3 140 -3 140 -59 143 -42 2 -61 -1
-73 -13z"/>
<path d="M297 233 c-4 -38 -7 -92 -7 -121 0 -49 2 -53 22 -50 28 4 36 31 37
126 1 75 -10 112 -33 112 -9 0 -15 -21 -19 -67z"/>
<path d="M486 278 c-9 -36 -7 -226 3 -232 40 -25 73 103 52 199 -10 42 -17 55
-31 55 -10 0 -20 -10 -24 -22z"/>
</g>
</svg>
