<svg version="1.0" xmlns="http://www.w3.org/2000/svg"
 width="68.000000pt" height="84.000000pt" viewBox="0 0 68.000000 84.000000"
 preserveAspectRatio="xMidYMid meet">
<metadata>
Created by potrace 1.15, written by Peter Selinger 2001-2017
</metadata>
<g transform="translate(0.000000,84.000000) scale(0.100000,-0.100000)"
fill="#000000" stroke="none">
<path d="M108 603 c-40 -43 -58 -83 -36 -83 8 0 27 14 43 30 33 35 77 38 83 7
5 -25 -64 -106 -105 -123 -18 -8 -33 -21 -33 -29 0 -36 84 -1 152 64 52 49 53
96 3 140 -20 17 -44 31 -53 31 -10 0 -34 -17 -54 -37z"/>
<path d="M335 603 c-46 -7 -55 -21 -55 -77 0 -69 9 -98 29 -94 12 2 17 18 21
63 5 60 5 60 95 63 50 1 96 -2 104 -7 8 -5 15 -35 18 -75 3 -37 9 -68 13 -71
4 -2 17 3 30 12 21 15 22 21 18 85 -3 40 -11 76 -19 83 -15 14 -198 27 -254
18z"/>
<path d="M345 470 c-10 -16 4 -30 31 -30 23 0 24 -3 24 -66 0 -61 -1 -65 -21
-62 -24 3 -35 18 -44 61 -4 18 -12 27 -25 27 -11 0 -20 -6 -20 -12 0 -7 -3
-23 -6 -35 -9 -32 44 -83 85 -83 30 0 30 0 33 -117 3 -106 5 -118 22 -121 29
-6 36 16 36 124 0 101 0 101 60 108 64 7 76 21 68 77 -5 38 -43 37 -56 0 -9
-26 -16 -31 -43 -31 -32 0 -32 0 -26 67 3 37 10 69 16 71 6 2 11 10 11 18 0
11 -16 14 -69 14 -39 0 -73 -4 -76 -10z"/>
<path d="M160 367 c-25 -20 -90 -103 -90 -116 0 -20 24 -12 70 25 39 31 46 33
56 19 19 -25 8 -46 -71 -136 -70 -80 -81 -109 -37 -95 24 8 106 86 145 138 15
20 27 48 27 63 0 34 -24 80 -52 99 -27 19 -28 19 -48 3z"/>
<path d="M517 224 c-13 -14 -7 -54 18 -109 26 -59 46 -75 70 -55 23 19 18 49
-19 110 -31 52 -53 69 -69 54z"/>
<path d="M312 208 c-24 -32 -42 -80 -42 -118 0 -32 4 -40 19 -40 24 0 76 137
59 157 -13 16 -23 16 -36 1z"/>
</g>
</svg>
