<svg version="1.0" xmlns="http://www.w3.org/2000/svg"
 width="66.000000pt" height="78.000000pt" viewBox="0 0 66.000000 78.000000"
 preserveAspectRatio="xMidYMid meet">
<metadata>
Created by potrace 1.15, written by Peter Selinger 2001-2017
</metadata>
<g transform="translate(0.000000,78.000000) scale(0.100000,-0.100000)"
fill="#000000" stroke="none">
<path d="M350 646 c-47 -29 -86 -60 -88 -69 -5 -25 5 -22 100 28 48 25 91 45
96 45 6 0 38 -19 70 -41 60 -41 92 -46 92 -14 0 8 -4 15 -8 15 -5 0 -40 20
-78 45 -38 24 -76 44 -84 44 -8 -1 -53 -25 -100 -53z"/>
<path d="M104 668 c-12 -5 -26 -20 -32 -32 -13 -30 -26 -132 -18 -145 13 -20
36 1 36 33 0 83 31 126 80 111 17 -6 20 -15 20 -76 0 -52 3 -69 14 -69 20 0
26 23 26 95 0 55 -3 66 -22 79 -25 18 -72 20 -104 4z"/>
<path d="M315 536 c-19 -13 -17 -15 19 -21 40 -8 203 -1 213 8 28 29 -194 41
-232 13z"/>
<path d="M330 441 c-40 -4 -55 -10 -55 -21 0 -11 15 -16 63 -18 63 -3 63 -3
60 -35 -2 -23 -9 -33 -23 -35 -43 -6 -93 -35 -99 -56 -10 -38 -7 -234 4 -241
6 -4 17 -1 25 5 12 10 15 38 15 121 0 108 0 110 26 119 53 20 53 20 56 -117 3
-120 4 -128 23 -128 19 0 20 8 23 133 3 132 3 132 41 132 57 0 65 -17 71 -139
4 -85 8 -106 20 -106 12 0 16 20 18 110 3 111 3 111 -26 138 -20 20 -45 30
-78 35 -46 7 -49 9 -52 40 -3 32 -3 32 81 32 59 0 88 4 96 13 6 8 8 17 4 20
-7 8 -213 6 -293 -2z"/>
<path d="M65 395 c-23 -22 -25 -31 -25 -129 0 -104 9 -131 33 -107 7 7 14 56
17 114 5 102 5 102 32 105 42 5 51 -24 46 -145 -4 -118 -16 -139 -71 -129 -43
9 -77 -3 -77 -25 0 -17 8 -19 73 -19 78 0 85 3 110 40 27 38 24 243 -3 288
-18 29 -25 32 -65 32 -35 0 -52 -6 -70 -25z"/>
</g>
</svg>
