<svg version="1.0" xmlns="http://www.w3.org/2000/svg"
 width="64.000000pt" height="81.000000pt" viewBox="0 0 64.000000 81.000000"
 preserveAspectRatio="xMidYMid meet">
<metadata>
Created by potrace 1.15, written by Peter Selinger 2001-2017
</metadata>
<g transform="translate(0.000000,81.000000) scale(0.100000,-0.100000)"
fill="#000000" stroke="none">
<path d="M368 593 c-50 -61 -60 -114 -34 -178 13 -30 13 -43 2 -87 -24 -94
-28 -151 -11 -173 13 -17 31 -21 117 -25 101 -5 101 -5 115 -53 10 -36 18 -47
31 -45 24 5 26 40 5 84 -25 53 -54 66 -131 59 -76 -7 -102 4 -102 45 0 24 4
30 21 30 12 0 39 10 60 22 36 20 43 21 89 9 27 -7 54 -10 60 -6 19 12 10 33
-20 44 -43 14 -48 37 -16 70 36 37 34 74 -5 102 -30 21 -31 24 -25 70 6 41 4
49 -9 49 -14 0 -45 -54 -45 -79 0 -6 14 -26 30 -44 37 -42 38 -60 5 -85 -14
-11 -30 -33 -35 -49 -9 -25 -57 -63 -81 -63 -5 0 -7 17 -3 38 4 25 0 51 -10
76 -21 51 -20 99 4 146 11 22 20 44 20 50 0 15 -15 12 -32 -7z"/>
<path d="M137 594 c-4 -4 -7 -27 -7 -50 0 -40 -3 -45 -38 -63 -60 -31 -78 -90
-66 -213 10 -100 32 -124 111 -121 70 3 99 22 131 84 20 37 23 56 20 120 -3
85 -17 110 -75 134 -29 12 -32 18 -35 62 -2 34 -8 49 -18 51 -9 1 -19 0 -23
-4z m8 -144 c12 -20 -65 -124 -81 -108 -10 11 20 89 40 104 24 17 33 17 41 4z
m70 -15 c27 -26 33 -65 12 -65 -19 0 -44 30 -52 63 -9 34 7 36 40 2z m-14
-107 c35 -20 39 -26 35 -51 -7 -36 -36 -74 -61 -81 -49 -14 -75 -6 -95 27 -29
46 -26 72 10 87 16 7 35 18 41 26 15 19 23 18 70 -8z"/>
<path d="M122 288 c-16 -16 -15 -33 3 -48 24 -20 67 3 63 33 -3 25 -45 36 -66
15z"/>
</g>
</svg>
