<svg version="1.0" xmlns="http://www.w3.org/2000/svg"
 width="57.000000pt" height="117.000000pt" viewBox="0 0 57.000000 117.000000"
 preserveAspectRatio="xMidYMid meet">
<metadata>
Created by potrace 1.15, written by Peter Selinger 2001-2017
</metadata>
<g transform="translate(0.000000,117.000000) scale(0.100000,-0.100000)"
fill="#000000" stroke="none">
<path d="M286 1081 c-3 -5 -5 -33 -4 -62 2 -82 -11 -103 -91 -144 -105 -52
-104 -53 -102 60 2 61 -11 85 -36 69 -19 -12 -20 -46 -7 -238 9 -136 14 -138
288 -134 208 3 233 8 220 41 -5 15 -20 16 -123 12 -64 -3 -151 -8 -195 -11
-109 -9 -146 10 -145 76 0 32 4 37 52 58 114 51 147 67 147 75 0 14 30 7 102
-25 40 -18 75 -35 78 -38 26 -28 90 -39 90 -16 0 25 -12 46 -25 46 -25 0 -180
70 -192 87 -7 9 -13 42 -13 73 0 51 -11 80 -31 80 -4 0 -10 -4 -13 -9z"/>
<path d="M280 540 c-8 -5 -40 -10 -71 -10 -73 0 -118 -16 -130 -47 -13 -36
-11 -333 3 -374 6 -18 21 -43 32 -54 28 -28 123 -50 178 -41 24 4 62 9 84 13
50 6 85 35 102 84 18 53 16 331 -3 368 -27 53 -149 91 -195 61z m134 -75 c19
-29 21 -81 4 -87 -31 -9 -279 -1 -289 9 -19 19 -1 62 34 83 26 16 50 20 133
20 97 0 102 -1 118 -25z m-63 -135 c77 0 77 0 82 -37 2 -21 2 -41 -2 -45 -3
-3 -72 -9 -153 -12 -163 -6 -172 -3 -166 56 3 33 4 33 63 39 33 3 69 5 80 3
11 -2 54 -4 96 -4z m81 -165 c-5 -52 -23 -85 -51 -92 -14 -4 -65 -7 -113 -7
-78 0 -90 2 -113 24 -14 13 -25 31 -25 40 0 9 -5 21 -12 28 -8 8 -8 15 1 25 9
12 43 14 164 13 152 -1 152 -1 149 -31z"/>
</g>
</svg>
