<svg version="1.0" xmlns="http://www.w3.org/2000/svg"
 width="100.000000pt" height="136.000000pt" viewBox="0 0 100.000000 136.000000"
 preserveAspectRatio="xMidYMid meet">
<metadata>
Created by potrace 1.15, written by Peter Selinger 2001-2017
</metadata>
<g transform="translate(0.000000,136.000000) scale(0.100000,-0.100000)"
fill="#000000" stroke="none">
<path d="M450 1268 c0 -33 -3 -36 -72 -67 -109 -50 -106 -49 -208 -84 -95 -33
-95 -33 -103 -83 -4 -27 -5 -91 -1 -142 3 -51 6 -115 6 -142 -1 -27 3 -52 9
-55 5 -4 9 0 10 7 0 7 2 24 5 38 2 14 5 66 7 115 3 84 23 185 38 185 3 0 19
11 35 25 29 25 121 65 150 65 8 0 22 4 32 9 50 25 72 30 127 27 73 -4 184 -20
245 -35 25 -6 71 -16 103 -22 38 -7 57 -15 57 -25 0 -8 4 -14 9 -14 11 0 30
-184 36 -350 5 -147 12 -210 25 -210 16 0 20 67 10 160 -10 91 -16 294 -9 315
2 6 0 34 -4 62 -6 43 -13 57 -40 76 -18 14 -53 27 -82 31 -48 6 -67 10 -200
36 -33 7 -78 15 -100 19 -39 6 -40 8 -39 44 1 20 -2 37 -7 37 -4 0 -14 3 -23
6 -13 5 -16 -1 -16 -28z"/>
<path d="M253 976 c-42 -20 -20 -41 42 -41 38 0 40 -1 46 -37 6 -37 5 -38 -27
-38 -18 0 -45 -5 -59 -10 -23 -9 -25 -13 -15 -25 7 -9 29 -15 51 -15 38 0 39
-1 39 -34 0 -32 -2 -34 -47 -42 -51 -10 -71 -37 -35 -49 28 -8 117 -8 185 0
46 6 57 11 55 24 -2 11 -16 17 -51 19 -44 3 -47 5 -47 31 0 34 15 48 55 53 46
5 46 35 0 44 -20 3 -39 12 -42 20 -8 22 29 73 56 76 15 2 26 9 26 18 0 12 -19
15 -105 16 -58 0 -115 -4 -127 -10z"/>
<path d="M663 953 c-8 -21 -24 -50 -34 -65 -11 -14 -19 -31 -19 -36 0 -14 34
-25 38 -13 7 20 32 11 41 -13 14 -36 12 -142 -4 -187 -8 -22 -24 -48 -36 -58
-13 -10 -19 -23 -15 -29 12 -20 44 -13 65 14 20 26 20 26 27 0 3 -14 10 -26
15 -26 9 0 10 6 13 40 1 14 14 17 45 9 28 -8 21 22 -13 57 -20 21 -36 42 -37
48 -5 48 -8 83 -10 96 -1 8 -1 32 -1 54 2 38 2 38 37 32 28 -6 35 -4 35 9 0 9
-6 22 -13 28 -48 46 -90 77 -103 77 -8 0 -22 -17 -31 -37z"/>
<path d="M77 670 c-13 -32 -22 -188 -12 -199 14 -14 29 26 30 81 1 73 -9 140
-18 118z"/>
<path d="M199 543 c0 -16 -1 -43 -2 -61 -1 -17 0 -32 3 -32 3 0 6 -32 7 -70 4
-118 22 -163 79 -196 21 -13 24 -57 6 -111 -14 -42 1 -42 27 0 38 62 65 85
107 92 37 6 41 4 55 -22 7 -15 22 -37 32 -47 16 -19 17 -18 17 43 0 34 6 74
14 89 15 30 34 114 47 207 16 116 17 110 -14 113 -16 2 -36 -3 -46 -12 -46
-42 -154 -38 -256 9 -70 31 -75 31 -76 -2z m96 -67 c57 -24 119 -30 151 -13
16 8 46 17 67 21 37 7 37 7 37 -34 0 -43 3 -41 -70 -45 -44 -3 -90 -17 -90
-28 0 -6 30 -8 79 -5 79 5 79 5 70 -25 -5 -16 -11 -32 -14 -35 -6 -7 -87 -13
-135 -12 -19 1 -42 2 -50 3 -8 0 -32 -3 -52 -8 -37 -7 -38 -6 -38 22 0 28 2
30 63 39 34 5 61 14 60 19 -2 6 -29 12 -60 15 -58 5 -58 5 -61 53 -2 26 0 47
3 47 3 0 21 -6 40 -14z m206 -217 c21 -13 -1 -46 -39 -57 -38 -10 -108 -10
-119 2 -3 3 -12 6 -20 6 -7 0 -22 8 -33 17 -37 32 -8 44 101 41 54 -1 104 -5
110 -9z"/>
<path d="M841 393 c-6 -21 -13 -57 -17 -80 -11 -73 -49 -83 -78 -21 -31 69
-46 110 -41 118 3 5 -4 6 -15 3 -24 -6 -27 -55 -6 -99 8 -16 21 -45 30 -64 15
-32 54 -61 80 -60 12 1 76 84 76 98 0 6 7 23 15 38 19 37 19 54 -1 82 -22 31
-32 28 -43 -15z"/>
</g>
</svg>
