<svg version="1.0" xmlns="http://www.w3.org/2000/svg"
 width="133.000000pt" height="196.000000pt" viewBox="0 0 133.000000 196.000000"
 preserveAspectRatio="xMidYMid meet">
<metadata>
Created by potrace 1.15, written by Peter Selinger 2001-2017
</metadata>
<g transform="translate(0.000000,196.000000) scale(0.100000,-0.100000)"
fill="#000000" stroke="none">
<path d="M612 1878 c-7 -7 -12 -23 -12 -36 0 -35 -21 -114 -38 -140 -19 -29
-86 -63 -189 -98 -43 -14 -82 -30 -87 -35 -6 -5 -17 -9 -25 -9 -9 0 -46 -22
-82 -49 -56 -41 -69 -57 -83 -98 -20 -60 -24 -224 -12 -433 6 -85 9 -213 8
-285 -6 -503 -4 -566 20 -581 5 -4 17 1 26 10 15 15 17 54 19 344 1 180 6 346
11 369 5 24 8 71 5 105 -2 35 -5 137 -7 228 -2 165 -2 165 27 225 17 33 38 67
47 75 30 26 157 81 233 100 26 7 47 15 47 19 0 3 17 16 38 29 20 13 48 38 62
56 25 34 25 34 65 1 22 -18 65 -47 95 -63 56 -31 229 -92 259 -92 25 0 98 -50
109 -74 20 -45 32 -94 32 -134 0 -49 -14 -53 -73 -22 -20 11 -44 20 -52 20
-25 0 -63 44 -74 87 -14 50 -48 84 -62 63 -5 -8 -7 -25 -4 -37 3 -12 0 -44 -5
-70 -9 -39 -23 -59 -86 -121 -55 -54 -74 -79 -72 -95 4 -27 42 -25 74 4 11 11
24 16 28 12 4 -5 6 -2 4 5 -4 15 48 49 59 38 8 -7 8 -41 2 -152 -2 -37 2 -56
13 -68 9 -9 20 -38 23 -64 7 -52 16 -74 33 -80 8 -2 12 15 12 58 0 47 5 66 20
82 26 28 26 82 0 136 -15 31 -19 52 -14 82 7 40 8 41 38 34 17 -3 35 -10 41
-15 5 -5 16 -9 25 -9 10 0 31 -7 49 -16 30 -15 31 -18 30 -72 -1 -32 2 -205 6
-387 5 -262 10 -333 21 -345 12 -12 16 -12 29 5 12 16 14 36 9 100 -4 44 -6
107 -6 140 2 98 1 205 -1 510 -3 258 -5 294 -21 323 -10 19 -24 36 -32 39 -8
3 -14 12 -14 20 0 8 -6 20 -12 26 -15 14 -77 37 -99 37 -8 0 -41 13 -74 30
-33 16 -68 30 -78 30 -9 0 -25 4 -35 9 -9 5 -39 19 -67 32 -73 35 -133 98
-141 149 -4 24 -14 45 -25 50 -22 12 -23 12 -37 -2z"/>
<path d="M323 1445 c-56 -11 -103 -39 -103 -60 0 -8 13 -21 29 -30 23 -11 36
-12 60 -4 54 19 111 -19 111 -73 0 -5 -17 -8 -37 -7 -21 2 -62 0 -90 -5 -43
-6 -53 -12 -53 -27 0 -12 7 -19 19 -19 11 0 23 -4 26 -10 3 -5 32 -10 64 -10
59 0 59 0 64 -32 2 -18 3 -36 0 -40 -2 -5 -27 -8 -55 -8 -65 0 -118 -18 -118
-41 0 -30 32 -33 263 -27 115 3 136 9 137 40 0 8 -78 22 -127 22 -41 1 -47 8
-39 49 6 34 6 34 83 40 83 6 95 12 87 44 -7 25 -30 33 -106 33 -58 0 -58 0
-58 39 0 46 9 51 93 55 63 3 82 14 73 44 -6 17 -19 20 -104 26 -53 3 -113 7
-133 8 -20 2 -59 -1 -86 -7z"/>
<path d="M357 923 c-31 -50 -56 -458 -29 -484 6 -7 12 -21 12 -31 0 -10 19
-37 42 -60 41 -41 41 -41 30 -85 -7 -24 -12 -59 -12 -77 0 -19 -6 -37 -12 -39
-10 -4 -10 -6 0 -6 7 -1 12 -14 12 -31 0 -22 5 -30 18 -30 15 0 22 13 31 57
33 154 32 151 98 151 31 1 34 -3 48 -49 8 -28 17 -65 20 -82 16 -82 69 -85 61
-3 -2 22 -8 62 -12 89 -5 37 -3 51 9 65 20 22 57 104 63 140 3 14 10 32 16 39
7 8 7 13 0 13 -6 0 -8 27 -6 68 2 37 -3 105 -11 152 -8 47 -15 106 -15 132 0
40 -4 50 -26 65 -26 17 -27 17 -50 -12 -13 -17 -24 -33 -24 -36 0 -3 -11 -11
-23 -16 -19 -9 -33 -7 -67 8 -23 10 -48 19 -56 19 -7 0 -19 9 -26 19 -15 21
-82 38 -91 24z m93 -103 c14 -11 33 -20 42 -20 9 0 20 -4 23 -10 3 -5 15 -10
26 -10 34 0 99 24 99 37 0 7 4 13 9 13 12 0 21 -103 10 -115 -6 -6 -66 -10
-134 -11 -125 -1 -125 -1 -125 52 0 53 7 84 19 84 3 0 17 -9 31 -20z m203
-176 c26 -6 27 -9 27 -65 0 -67 24 -59 -195 -62 -100 -2 -100 -2 -103 49 -4
61 0 63 103 71 39 3 77 9 85 14 8 5 24 7 35 4 11 -3 32 -8 48 -11z m11 -196
c10 -10 10 -19 -2 -49 -11 -29 -23 -39 -54 -50 -77 -25 -187 17 -188 73 0 9 6
20 13 25 35 22 207 23 231 1z"/>
<path d="M1033 864 c-3 -8 -3 -46 -1 -83 7 -89 -1 -101 -61 -101 -48 0 -48 0
-54 39 -7 53 -28 95 -51 99 -16 4 -18 0 -13 -27 4 -17 2 -53 -3 -79 -5 -28 -5
-64 0 -88 5 -21 10 -66 11 -99 2 -63 10 -85 46 -122 23 -24 99 -47 109 -32 3
5 12 9 20 9 18 0 36 16 53 47 14 28 33 387 20 391 -5 2 -9 11 -9 19 0 17 -28
42 -48 43 -7 0 -15 -7 -19 -16z m10 -277 c7 -44 -7 -115 -26 -134 -29 -30 -91
1 -89 44 5 89 27 123 82 123 23 0 28 -5 33 -33z"/>
</g>
</svg>
