<svg version="1.0" xmlns="http://www.w3.org/2000/svg"
 width="62.000000pt" height="86.000000pt" viewBox="0 0 62.000000 86.000000"
 preserveAspectRatio="xMidYMid meet">
<metadata>
Created by potrace 1.15, written by Peter Selinger 2001-2017
</metadata>
<g transform="translate(0.000000,86.000000) scale(0.100000,-0.100000)"
fill="#000000" stroke="none">
<path d="M225 661 c-89 -32 -101 -39 -132 -75 -32 -36 -48 -94 -41 -152 4 -35
22 -38 26 -4 15 118 67 167 209 195 35 7 96 -7 161 -37 33 -16 49 -32 68 -69
13 -27 24 -62 24 -79 0 -33 11 -38 30 -15 17 21 -5 118 -37 155 -27 33 -58 49
-147 80 -71 24 -95 24 -161 1z"/>
<path d="M143 533 c-23 -9 -14 -32 14 -35 40 -4 42 -34 4 -43 -37 -8 -41 -25
-6 -25 18 0 25 -5 25 -20 0 -16 -7 -20 -36 -20 -24 0 -34 -4 -31 -12 5 -17
159 -18 164 -2 2 7 -12 15 -32 18 -47 9 -48 36 0 36 24 0 35 5 35 15 0 10 -10
15 -30 15 -23 0 -30 5 -30 19 0 15 8 21 32 23 22 2 34 9 36 21 3 15 -5 17 -65
16 -37 0 -74 -3 -80 -6z"/>
<path d="M416 533 c-3 -4 -6 -15 -6 -26 0 -10 -19 -41 -41 -69 -33 -39 -39
-52 -29 -61 9 -9 15 -7 27 11 22 32 33 27 33 -15 0 -41 14 -72 27 -59 4 4 10
33 13 64 5 57 5 57 38 23 24 -25 36 -31 44 -23 8 8 4 21 -17 47 -15 20 -33 39
-41 42 -8 3 -14 18 -14 33 0 26 -21 46 -34 33z"/>
<path d="M283 329 c-6 -20 -11 -21 -90 -16 -83 5 -83 5 -83 -34 0 -40 15 -83
38 -111 11 -14 12 -24 3 -49 -13 -37 -15 -79 -3 -79 20 1 34 21 45 66 10 39
17 50 35 52 23 4 24 2 20 -60 -2 -51 0 -63 13 -66 33 -6 42 23 24 83 -15 53
-15 57 3 80 29 37 46 108 33 134 -15 27 -31 27 -38 0z m-15 -61 c-3 -8 -27
-14 -61 -16 -46 -2 -57 0 -57 13 0 12 13 15 61 15 44 0 60 -3 57 -12z m-33
-63 c-39 -18 -50 -18 -65 0 -11 13 -5 15 41 14 54 -1 54 -1 24 -14z"/>
<path d="M487 274 c-4 -4 -7 -22 -7 -40 0 -17 -9 -42 -19 -55 -19 -23 -21 -23
-48 -9 -19 11 -29 25 -31 45 -2 17 -5 37 -8 45 -10 28 -24 -12 -24 -67 0 -44
4 -55 26 -72 32 -25 55 -26 94 -6 33 17 60 61 60 98 0 28 -31 72 -43 61z"/>
</g>
</svg>
