<svg version="1.0" xmlns="http://www.w3.org/2000/svg"
 width="99.000000pt" height="195.000000pt" viewBox="0 0 99.000000 195.000000"
 preserveAspectRatio="xMidYMid meet">
<metadata>
Created by potrace 1.15, written by Peter Selinger 2001-2017
</metadata>
<g transform="translate(0.000000,195.000000) scale(0.100000,-0.100000)"
fill="#000000" stroke="none">
<path d="M567 1781 c-21 -22 -39 -29 -85 -34 -31 -2 -84 -15 -117 -27 -33 -12
-71 -24 -85 -27 -15 -3 -39 -24 -60 -51 -19 -26 -37 -49 -40 -52 -12 -11 -29
-89 -35 -160 -18 -223 -25 -290 -35 -335 -5 -27 -15 -79 -20 -115 -5 -36 -12
-83 -16 -106 -5 -32 -3 -42 10 -47 18 -7 18 -7 36 53 7 25 17 50 22 56 4 6 8
26 9 45 2 19 5 38 8 44 3 5 6 21 7 35 1 14 5 61 9 105 3 44 6 89 6 100 0 11 6
61 14 110 8 50 17 110 21 135 9 62 59 111 144 140 36 12 74 27 85 33 10 5 61
10 112 9 89 -1 95 -2 140 -34 81 -57 125 -115 136 -179 3 -19 10 -60 16 -92
14 -83 22 -314 13 -362 -9 -49 4 -209 21 -250 6 -16 11 -34 9 -39 -5 -16 20
-77 31 -73 18 6 26 54 15 94 -5 21 -11 175 -13 343 -4 341 -14 423 -62 490
-15 21 -44 47 -63 58 -60 32 -84 47 -98 60 -7 6 -17 12 -22 12 -17 0 -60 51
-60 70 0 27 -20 24 -53 -9z"/>
<path d="M525 1573 c-85 -10 -112 -24 -135 -68 -22 -43 -24 -101 -4 -223 6
-41 -9 -124 -27 -147 -4 -6 -9 -43 -10 -83 -2 -41 -7 -76 -11 -78 -5 -3 -8
-15 -8 -28 0 -12 -8 -40 -19 -62 -30 -64 -38 -214 -12 -214 14 0 46 93 79 225
6 22 15 57 20 77 7 26 7 40 0 44 -7 4 -7 9 0 13 6 3 12 22 14 41 1 19 10 40
18 47 19 14 28 179 11 196 -26 26 -4 182 29 202 21 13 134 12 166 -1 37 -16
84 -19 84 -6 0 11 -28 36 -55 49 -25 13 -100 21 -140 16z"/>
<path d="M625 1390 c-10 -11 -26 -20 -37 -20 -24 0 -23 -22 2 -45 11 -10 20
-31 20 -46 0 -15 5 -40 10 -55 16 -40 15 -126 0 -151 -8 -12 -24 -27 -36 -34
-53 -28 -28 -72 33 -59 18 5 33 4 33 -1 0 -5 7 -9 15 -9 8 0 15 5 15 10 0 6
13 10 29 10 17 0 33 4 36 10 7 11 -22 60 -49 79 -16 12 -18 22 -12 75 19 165
18 210 -2 234 -24 27 -34 28 -57 2z"/>
<path d="M551 713 c-42 -18 -79 -72 -90 -128 -3 -16 -5 -66 -5 -111 0 -81 0
-81 -44 -32 -25 26 -53 48 -63 48 -11 0 -19 4 -19 9 0 5 -8 11 -17 15 -10 3
-38 17 -63 31 -31 17 -61 25 -97 25 -51 0 -53 -1 -68 -36 -23 -56 -20 -64 24
-64 22 0 42 5 44 13 10 23 24 -13 31 -80 7 -67 21 -93 52 -93 13 0 15 6 9 33
-17 80 -17 103 -1 120 17 16 30 15 76 -6 36 -17 46 -28 70 -79 21 -46 41 -61
94 -73 28 -6 28 -6 23 -73 -4 -37 -9 -92 -13 -123 -5 -47 -4 -57 10 -62 13 -5
21 2 32 28 7 19 14 39 14 44 0 5 12 37 26 70 26 59 28 61 64 61 35 0 38 -3 54
-43 9 -23 16 -49 17 -57 1 -28 54 -115 71 -118 22 -4 31 29 17 62 -7 14 -15
26 -18 26 -3 0 -7 15 -8 33 -2 18 -11 59 -22 92 -19 56 -19 60 -2 74 31 29 61
108 61 163 0 46 -16 114 -30 128 -3 3 -11 17 -19 32 -24 46 -161 93 -210 71z
m122 -69 c61 -32 77 -64 77 -153 0 -69 -26 -115 -82 -146 -37 -20 -37 -20 -52
0 -9 11 -16 16 -16 12 0 -8 -53 25 -77 49 -25 25 -9 200 21 230 28 27 84 31
129 8z"/>
</g>
</svg>
