<svg version="1.0" xmlns="http://www.w3.org/2000/svg"
 width="71.000000pt" height="191.000000pt" viewBox="0 0 71.000000 191.000000"
 preserveAspectRatio="xMidYMid meet">
<metadata>
Created by potrace 1.15, written by Peter Selinger 2001-2017
</metadata>
<g transform="translate(0.000000,191.000000) scale(0.100000,-0.100000)"
fill="#000000" stroke="none">
<path d="M346 1772 c-4 -8 -17 -214 -20 -337 -1 -50 -1 -50 -71 -47 -38 2 -74
7 -78 12 -8 7 -5 128 4 175 3 12 -2 21 -13 23 -24 5 -118 -94 -118 -124 0 -27
27 -34 36 -9 4 8 10 15 15 15 11 0 12 -73 1 -85 -5 -6 -6 -53 -2 -105 4 -52 5
-100 3 -107 -3 -7 -2 -38 2 -68 5 -41 14 -62 39 -89 18 -20 38 -36 45 -36 6 0
31 -9 53 -20 23 -11 48 -20 55 -20 10 0 13 -19 12 -72 -1 -109 -5 -116 -73
-144 -63 -26 -93 -53 -102 -93 -3 -14 -10 -39 -15 -55 -5 -16 -9 -68 -9 -116
0 -98 -8 -130 -58 -242 -12 -27 -18 -48 -14 -48 18 0 50 31 62 60 7 16 16 30
21 30 11 0 27 90 38 216 12 150 29 181 114 205 29 8 29 8 23 -33 -4 -22 -15
-53 -24 -67 -30 -44 -42 -80 -42 -129 0 -64 -22 -164 -53 -240 -26 -63 -79
-124 -137 -159 -28 -16 -45 -41 -36 -51 8 -7 128 78 167 118 20 21 41 53 48
72 7 18 21 52 32 76 13 30 19 65 19 117 0 87 16 148 43 165 22 14 29 8 46 -40
7 -19 17 -44 21 -55 4 -11 17 -54 29 -95 38 -128 61 -189 78 -208 6 -6 15 -21
18 -32 3 -11 10 -20 15 -20 5 0 11 -8 14 -17 8 -24 54 -73 68 -73 9 0 9 3 0
12 -7 7 -12 19 -12 27 0 9 -14 32 -30 51 -44 52 -66 103 -90 215 -12 55 -30
123 -40 150 -19 52 -31 91 -50 164 -6 23 -14 49 -17 57 -4 10 3 14 22 14 18 0
40 -12 64 -37 38 -39 44 -57 71 -213 29 -168 58 -256 95 -296 35 -38 48 -29
25 16 -25 49 -44 107 -59 185 -7 33 -17 79 -22 102 -5 23 -9 56 -9 73 0 67
-22 123 -66 167 -27 26 -53 43 -67 43 -13 0 -32 6 -42 14 -19 14 -20 32 -10
146 1 14 3 32 4 41 0 10 13 19 29 22 71 15 89 22 115 50 15 16 29 39 32 51 13
55 20 134 15 160 -3 16 -1 80 4 141 9 113 9 113 59 74 91 -72 81 -11 -14 84
-38 38 -66 47 -74 25 -2 -7 -7 -57 -10 -110 -7 -98 -7 -98 -54 -98 -80 0 -120
20 -111 55 2 6 6 77 10 158 4 82 12 153 18 159 6 6 29 11 52 11 42 0 59 12 42
29 -13 13 -129 21 -136 10z m-48 -440 c21 -2 23 -6 20 -54 -3 -53 -3 -53 -78
-50 -41 2 -79 7 -83 12 -5 4 -6 28 -2 53 8 49 5 48 143 39z m140 -14 c62 -15
74 -29 70 -80 -3 -42 -4 -43 -38 -42 -19 0 -52 4 -73 8 -37 7 -37 7 -37 66 0
67 0 68 78 48z m-135 -134 c13 -4 17 -16 17 -58 0 -30 -3 -68 -6 -85 -7 -36
-25 -39 -89 -17 -51 18 -73 55 -74 124 -1 54 -1 54 67 47 37 -4 75 -9 85 -11z
m152 -20 c46 -7 47 -8 41 -38 -8 -36 -37 -70 -77 -86 -45 -19 -59 -8 -58 47 2
89 2 89 94 77z"/>
</g>
</svg>
