<svg version="1.0" xmlns="http://www.w3.org/2000/svg"
 width="73.000000pt" height="81.000000pt" viewBox="0 0 73.000000 81.000000"
 preserveAspectRatio="xMidYMid meet">
<metadata>
Created by potrace 1.15, written by Peter Selinger 2001-2017
</metadata>
<g transform="translate(0.000000,81.000000) scale(0.100000,-0.100000)"
fill="#000000" stroke="none">
<path d="M479 616 c-7 -15 -9 -42 -5 -71 9 -60 32 -71 118 -59 58 8 63 11 63
34 0 24 -2 25 -62 23 -68 -3 -65 -6 -67 62 -1 39 -31 46 -47 11z"/>
<path d="M332 618 c-13 -13 -18 -461 -6 -492 7 -19 30 -21 41 -4 4 7 10 53 13
103 5 90 5 90 80 97 41 4 81 5 88 3 8 -3 12 -29 12 -82 0 -91 -6 -119 -27
-128 -30 -11 -238 -35 -308 -35 -70 0 -115 -14 -123 -37 -7 -24 233 -15 411
16 28 4 58 17 70 30 20 20 22 32 22 137 0 149 -5 154 -136 154 -89 0 -89 0
-89 64 0 99 -11 186 -24 186 -7 0 -17 -5 -24 -12z"/>
<path d="M90 540 c0 -5 -11 -12 -25 -16 -43 -11 -27 -24 28 -24 76 0 87 -15
87 -116 0 -121 -1 -123 -74 -126 -53 -3 -61 -5 -61 -23 0 -16 8 -21 37 -23 52
-4 116 15 129 40 6 11 13 74 16 139 7 146 0 159 -84 159 -29 0 -53 -4 -53 -10z"/>
</g>
</svg>
