<svg version="1.0" xmlns="http://www.w3.org/2000/svg"
 width="97.000000pt" height="167.000000pt" viewBox="0 0 97.000000 167.000000"
 preserveAspectRatio="xMidYMid meet">
<metadata>
Created by potrace 1.15, written by Peter Selinger 2001-2017
</metadata>
<g transform="translate(0.000000,167.000000) scale(0.100000,-0.100000)"
fill="#000000" stroke="none">
<path d="M874 1569 c-4 -6 -8 -172 -9 -368 -2 -196 -3 -365 -4 -376 0 -11 1
-42 2 -70 4 -66 -6 -93 -40 -101 -15 -4 -30 -10 -33 -13 -3 -3 -23 -12 -45
-19 -35 -12 -67 -25 -153 -65 -58 -27 15 -45 78 -19 59 24 144 51 160 52 31 0
41 -38 39 -154 -1 -66 -7 -125 -14 -143 -19 -45 -77 -96 -154 -135 -36 -18
-67 -36 -69 -40 -2 -5 -10 -8 -17 -8 -22 0 -65 -22 -65 -33 0 -13 72 -3 111
17 18 9 36 16 41 16 30 0 142 67 166 99 15 20 29 38 33 41 3 3 12 21 20 40 12
29 13 106 11 455 -2 231 -6 423 -9 428 -2 4 -7 80 -9 170 -3 89 -7 176 -10
194 -5 35 -19 50 -30 32z"/>
<path d="M367 1536 c-3 -8 -20 -22 -38 -32 -18 -9 -41 -25 -52 -35 -12 -10
-27 -19 -34 -19 -7 0 -13 -4 -13 -9 0 -5 -9 -11 -20 -14 -12 -3 -20 -14 -20
-27 0 -19 4 -21 27 -15 15 3 39 15 54 26 15 10 33 19 41 19 8 0 19 5 26 12 6
6 15 9 18 5 4 -3 9 -81 11 -172 5 -165 5 -165 -36 -165 -49 0 -153 33 -192 61
-15 10 -37 20 -50 21 -23 3 -24 1 -22 -67 2 -106 23 -275 40 -322 28 -76 77
-105 201 -118 34 -4 64 -10 66 -14 4 -6 9 -147 7 -183 -1 -21 -43 -64 -71 -73
-11 -3 -20 -11 -20 -16 0 -5 -6 -9 -13 -9 -8 0 -22 -8 -31 -19 -9 -10 -46 -33
-81 -51 -64 -32 -80 -55 -50 -67 16 -5 138 50 163 74 7 7 17 13 22 13 5 0 20
11 34 25 14 14 29 25 35 25 6 0 10 -61 10 -150 1 -147 9 -196 34 -187 19 6 26
57 28 188 1 137 6 157 35 141 20 -11 110 -37 159 -46 34 -7 87 5 92 20 2 6
-32 20 -74 33 -43 12 -100 31 -127 42 -27 10 -55 19 -62 19 -15 0 -17 19 -14
145 2 85 7 95 53 95 34 0 107 22 107 32 0 5 8 8 18 8 26 0 76 56 110 125 27
56 29 68 30 178 1 111 -8 200 -21 214 -3 3 -13 -2 -22 -11 -45 -45 -189 -112
-255 -118 -23 -3 -25 1 -32 47 -3 28 -7 120 -7 206 -1 106 -5 159 -13 167 -16
16 -45 15 -51 -2z m327 -423 c13 -43 15 -171 3 -218 -11 -42 -22 -56 -68 -91
-43 -34 -138 -74 -174 -74 -10 0 -5 241 6 284 11 43 11 43 92 70 45 14 90 26
100 26 9 0 17 5 17 10 0 17 18 11 24 -7z m-419 -49 c49 -8 90 -16 91 -17 1 -1
4 -73 6 -160 3 -157 3 -157 -27 -157 -36 1 -112 21 -142 38 -44 24 -73 120
-73 241 0 83 0 83 28 76 15 -3 67 -13 117 -21z"/>
<path d="M567 989 c-26 -15 -24 -124 2 -139 11 -5 22 -10 25 -10 5 0 26 93 26
120 0 25 -30 41 -53 29z"/>
<path d="M236 954 c-10 -27 -7 -99 6 -112 7 -7 22 -12 35 -12 21 0 23 4 23 54
0 36 -5 60 -16 70 -20 20 -40 20 -48 0z"/>
</g>
</svg>
