<svg version="1.0" xmlns="http://www.w3.org/2000/svg"
 width="73.000000pt" height="99.000000pt" viewBox="0 0 73.000000 99.000000"
 preserveAspectRatio="xMidYMid meet">
<metadata>
Created by potrace 1.15, written by Peter Selinger 2001-2017
</metadata>
<g transform="translate(0.000000,99.000000) scale(0.100000,-0.100000)"
fill="#000000" stroke="none">
<path d="M380 903 c0 -5 18 -28 40 -53 22 -25 43 -56 47 -70 3 -14 9 -27 13
-30 4 -3 10 -35 13 -72 5 -54 3 -68 -7 -68 -8 0 -16 6 -19 14 -3 8 -20 21 -38
30 -49 24 -57 4 -15 -35 20 -18 36 -37 36 -42 0 -6 9 -21 21 -33 16 -17 22
-39 26 -106 5 -80 4 -84 -24 -119 -15 -20 -37 -48 -48 -62 -14 -19 -26 -25
-40 -21 -16 4 -17 3 -5 -5 13 -10 13 -12 0 -20 -12 -9 -12 -11 2 -16 17 -7
102 53 111 78 11 31 19 -11 18 -100 -1 -101 10 -142 29 -113 5 8 10 59 10 112
0 97 0 97 38 76 20 -12 44 -30 53 -40 21 -24 29 -23 29 4 0 13 -18 38 -43 62
-55 52 -78 96 -87 170 -7 50 -5 66 13 103 11 23 25 43 29 43 4 0 8 8 8 18 0
10 14 39 31 65 28 42 31 67 10 67 -5 0 -21 -20 -37 -45 -30 -49 -44 -56 -44
-25 0 10 -7 44 -15 75 -8 31 -11 63 -8 72 5 11 3 14 -6 9 -8 -5 -29 8 -58 38
-39 40 -83 61 -83 39z"/>
<path d="M183 823 c-9 -3 -7 -16 9 -46 11 -23 24 -44 29 -47 20 -13 40 -84 34
-119 -5 -29 -23 -52 -95 -120 -87 -82 -110 -121 -72 -121 10 0 27 8 38 18 10
9 32 24 47 32 16 8 39 27 52 42 23 27 23 27 28 -5 12 -68 15 -275 4 -303 -7
-21 15 -65 28 -53 13 13 22 126 15 184 -4 33 -3 68 1 77 5 9 9 84 10 166 1
132 -2 154 -20 190 -11 22 -25 43 -31 47 -5 3 -10 14 -10 25 0 19 -44 41 -67
33z"/>
</g>
</svg>
