<svg version="1.0" xmlns="http://www.w3.org/2000/svg"
 width="115.000000pt" height="185.000000pt" viewBox="0 0 115.000000 185.000000"
 preserveAspectRatio="xMidYMid meet">
<metadata>
Created by potrace 1.15, written by Peter Selinger 2001-2017
</metadata>
<g transform="translate(0.000000,185.000000) scale(0.100000,-0.100000)"
fill="#000000" stroke="none">
<path d="M400 1683 c0 -12 56 -73 67 -73 5 0 18 -8 29 -18 10 -10 47 -37 80
-59 34 -23 73 -57 88 -75 14 -18 31 -38 36 -45 6 -7 10 -16 10 -21 0 -14 25
-62 33 -62 4 0 7 -10 7 -23 0 -13 4 -27 9 -33 10 -10 13 -48 12 -146 -1 -64
-2 -68 -27 -74 -35 -9 -70 12 -84 50 -12 30 -20 51 -39 99 -5 12 -12 30 -15
40 -11 35 -31 12 -29 -34 3 -84 14 -111 69 -166 40 -40 60 -53 82 -53 43 0 56
-23 63 -114 4 -45 14 -113 23 -152 9 -39 16 -110 17 -158 1 -86 1 -86 -72
-162 -46 -47 -74 -84 -74 -97 0 -26 11 -26 85 2 59 23 71 25 68 13 -6 -23 15
-187 26 -198 18 -17 26 -8 26 28 0 16 7 42 15 58 8 16 22 62 30 102 9 39 17
73 19 75 2 2 23 -5 47 -16 76 -34 96 -37 91 -13 -2 9 -22 32 -43 50 -21 19
-39 38 -39 43 0 17 -44 59 -61 59 -10 0 -21 6 -26 13 -15 22 -33 120 -43 232
-6 61 -15 157 -21 215 -11 101 -10 108 11 153 12 26 29 47 37 47 16 0 55 36
74 71 9 17 13 61 12 150 -1 162 -14 188 -114 240 -23 11 -51 29 -62 40 -29 27
-73 25 -80 -3 -8 -28 18 -58 50 -58 13 0 31 -4 41 -9 9 -5 31 -15 49 -21 33
-12 42 -28 62 -113 16 -69 14 -115 -9 -156 -21 -35 -68 -71 -95 -71 -18 0 -43
57 -99 218 -18 52 -167 185 -244 217 -36 16 -92 20 -92 8z"/>
<path d="M153 1524 c-7 -19 14 -118 32 -154 15 -29 59 -69 98 -89 46 -24 104
-79 109 -103 3 -13 9 -30 12 -39 7 -16 -35 -62 -233 -253 -33 -32 -66 -71 -73
-87 -7 -16 -16 -29 -20 -29 -5 0 -8 -9 -8 -20 0 -31 25 -24 56 18 37 48 61 72
104 102 19 13 37 27 40 30 3 3 21 17 40 30 19 13 47 37 62 52 15 16 37 28 51
28 27 0 26 5 44 -135 4 -33 8 -125 10 -205 7 -516 19 -707 36 -582 3 20 10 55
17 77 6 22 20 83 30 135 21 108 23 116 57 189 28 61 29 79 15 176 -10 70 -38
164 -92 305 -16 41 -34 98 -40 125 -29 126 -53 203 -76 242 -22 38 -157 157
-193 171 -9 3 -22 12 -29 19 -18 18 -41 16 -49 -3z"/>
</g>
</svg>
