<svg version="1.0" xmlns="http://www.w3.org/2000/svg"
 width="83.000000pt" height="151.000000pt" viewBox="0 0 83.000000 151.000000"
 preserveAspectRatio="xMidYMid meet">
<metadata>
Created by potrace 1.15, written by Peter Selinger 2001-2017
</metadata>
<g transform="translate(0.000000,151.000000) scale(0.100000,-0.100000)"
fill="#000000" stroke="none">
<path d="M350 1397 c0 -13 9 -32 20 -42 11 -10 20 -23 20 -30 0 -7 9 -20 20
-30 11 -10 20 -24 20 -32 0 -7 4 -13 9 -13 5 0 12 -8 16 -19 3 -10 16 -31 29
-45 32 -38 85 -200 69 -209 -5 -3 -35 8 -68 23 -33 16 -63 26 -68 23 -9 -5 47
-63 61 -63 5 0 14 -10 21 -23 6 -12 25 -31 41 -42 37 -25 43 -55 50 -234 3
-68 1 -76 -21 -94 -13 -11 -23 -23 -22 -27 1 -4 -8 -12 -20 -19 -20 -11 -97
-110 -97 -125 0 -19 36 0 75 38 43 43 80 64 93 52 3 -4 7 -89 9 -189 5 -283
27 -269 39 26 7 163 10 172 50 142 22 -17 54 -20 54 -5 0 6 -3 10 -7 10 -5 0
-19 17 -32 38 -14 20 -35 48 -48 62 -20 23 -24 41 -32 160 -6 107 -5 144 5
177 8 23 17 84 19 135 3 51 8 100 11 110 2 9 0 19 -6 23 -5 3 -10 22 -10 41 0
24 -4 34 -12 32 -8 -3 -11 -20 -10 -46 3 -41 -15 -112 -29 -112 -4 0 -14 18
-22 39 -9 22 -20 42 -26 45 -5 3 -24 35 -42 71 -32 64 -126 175 -148 175 -6 0
-11 -11 -11 -23z"/>
<path d="M127 1238 c4 -78 10 -104 37 -158 26 -55 38 -69 78 -90 34 -18 48
-32 50 -50 5 -35 -35 -110 -59 -110 -9 0 -43 -36 -43 -47 0 -3 -34 -40 -76
-81 -44 -44 -73 -80 -70 -88 9 -24 24 -16 84 41 31 30 61 55 66 55 5 0 22 14
38 31 19 19 37 29 51 27 22 -3 22 -6 24 -193 1 -104 4 -206 7 -225 3 -19 12
-78 20 -130 9 -52 16 -114 16 -137 0 -49 15 -65 23 -25 3 16 2 138 -2 273 -9
270 -6 410 10 482 7 28 8 75 4 113 -7 66 -7 66 -81 101 -41 19 -77 40 -81 45
-3 6 -9 46 -14 90 -6 57 -15 92 -34 124 -42 71 -53 60 -48 -48z"/>
<path d="M753 435 c-9 -10 -8 -17 8 -31 20 -18 31 -14 35 11 3 22 -28 36 -43
20z"/>
</g>
</svg>
