<svg version="1.0" xmlns="http://www.w3.org/2000/svg"
 width="93.000000pt" height="119.000000pt" viewBox="0 0 93.000000 119.000000"
 preserveAspectRatio="xMidYMid meet">
<metadata>
Created by potrace 1.15, written by Peter Selinger 2001-2017
</metadata>
<g transform="translate(0.000000,119.000000) scale(0.100000,-0.100000)"
fill="#000000" stroke="none">
<path d="M520 1094 c0 -3 10 -24 23 -47 23 -41 30 -60 47 -124 7 -28 5 -33 -9
-33 -10 0 -21 3 -25 7 -20 20 -156 42 -156 25 0 -10 102 -72 118 -72 7 0 12
-4 12 -10 0 -5 9 -10 20 -10 11 0 20 -3 20 -8 0 -4 13 -13 29 -20 39 -17 48
-44 67 -207 8 -77 18 -159 21 -183 7 -55 -12 -94 -77 -160 -27 -28 -50 -55
-50 -60 0 -5 -11 -17 -25 -26 -26 -17 -33 -36 -14 -36 22 0 100 65 106 87 3
16 11 22 20 19 8 -3 21 -6 29 -6 11 0 14 -19 14 -90 0 -70 3 -90 14 -90 21 0
26 23 26 115 0 76 2 84 21 90 13 4 27 1 38 -10 10 -8 22 -15 27 -14 22 4 45
-2 40 -10 -3 -5 3 -11 14 -14 27 -7 34 7 12 24 -37 31 -82 59 -92 59 -6 0 -21
10 -34 23 -21 20 -24 34 -29 127 -11 211 -17 277 -30 316 -15 43 -13 59 13 86
9 10 23 38 31 61 7 23 19 53 26 67 17 32 16 52 -1 75 -14 19 -15 19 -26 -10
-40 -104 -90 -176 -90 -131 0 9 -4 24 -9 34 -39 78 -55 108 -61 112 -4 3 -12
15 -19 28 -10 19 -41 32 -41 16z"/>
<path d="M225 983 c-3 -27 -8 -56 -9 -65 -10 -46 30 -164 75 -230 20 -28 26
-112 9 -123 -5 -3 -10 -15 -10 -26 0 -10 -3 -19 -8 -19 -4 0 -18 -10 -32 -22
-14 -13 -36 -28 -50 -34 -84 -36 -170 -80 -170 -86 0 -17 42 -29 68 -20 15 5
53 16 85 23 32 7 60 16 63 21 3 4 10 8 15 8 12 0 6 -79 -16 -205 -12 -68 -17
-155 -9 -155 15 0 43 61 49 105 6 43 20 114 37 185 6 25 16 68 22 95 7 28 19
64 29 82 27 50 17 193 -14 193 -5 0 -9 6 -9 13 0 7 -8 22 -18 33 -34 37 -64
129 -62 191 3 80 3 83 -19 83 -16 0 -21 -9 -26 -47z"/>
</g>
</svg>
