<svg version="1.0" xmlns="http://www.w3.org/2000/svg"
 width="95.000000pt" height="195.000000pt" viewBox="0 0 95.000000 195.000000"
 preserveAspectRatio="xMidYMid meet">
<metadata>
Created by potrace 1.15, written by Peter Selinger 2001-2017
</metadata>
<g transform="translate(0.000000,195.000000) scale(0.100000,-0.100000)"
fill="#000000" stroke="none">
<path d="M490 1863 c0 -5 12 -17 28 -28 46 -33 182 -168 202 -200 10 -16 26
-51 35 -77 15 -46 15 -50 -11 -125 -32 -97 -54 -178 -54 -203 0 -27 -22 -25
-48 3 -28 30 -52 99 -52 151 0 22 -5 48 -10 56 -20 31 -10 -64 15 -144 29 -92
31 -96 66 -118 23 -15 25 -21 21 -66 -3 -44 -10 -56 -55 -103 -36 -38 -56 -69
-66 -102 -7 -26 -11 -51 -7 -54 3 -3 9 8 12 25 4 18 9 32 13 32 3 0 12 13 19
29 10 23 63 61 85 61 2 0 7 -78 10 -172 4 -95 8 -184 11 -198 2 -14 4 -91 5
-172 0 -82 5 -148 10 -148 5 0 9 70 9 158 1 524 2 542 15 542 28 0 67 -58 96
-145 16 -49 30 -81 30 -69 1 22 -30 122 -51 164 -15 30 -58 70 -75 70 -9 0
-13 21 -13 73 0 72 0 72 35 91 36 20 119 133 127 176 3 14 9 33 13 43 4 9 3
17 -2 17 -6 0 -15 -18 -22 -41 -7 -22 -23 -60 -36 -82 -24 -44 -90 -105 -101
-94 -12 12 14 152 42 228 25 68 27 80 16 115 -15 51 -95 146 -187 224 -48 41
-125 92 -125 83z"/>
<path d="M230 1719 c0 -9 29 -36 80 -77 25 -20 25 -20 -36 -79 -33 -32 -80
-87 -105 -123 -24 -36 -47 -67 -50 -70 -13 -10 -46 -76 -53 -105 -7 -33 -7
-33 41 34 78 108 229 271 250 271 15 0 73 46 73 57 0 7 -17 17 -37 23 -21 5
-66 25 -100 44 -35 19 -63 30 -63 25z"/>
<path d="M271 1070 c0 -190 4 -392 9 -450 6 -58 10 -195 10 -305 0 -110 4
-227 8 -260 7 -60 7 -60 13 25 3 47 4 342 2 656 -5 520 -7 577 -23 625 -19 54
-19 54 -19 -291z"/>
<path d="M537 817 c-4 -10 -7 -26 -7 -35 1 -15 2 -15 11 1 6 10 9 25 7 35 -3
16 -4 15 -11 -1z"/>
<path d="M871 744 c0 -11 3 -14 6 -6 3 7 2 16 -1 19 -3 4 -6 -2 -5 -13z"/>
<path d="M522 730 c0 -14 2 -19 5 -12 2 6 2 18 0 25 -3 6 -5 1 -5 -13z"/>
<path d="M710 286 c0 -9 5 -16 10 -16 6 0 10 4 10 9 0 6 -4 13 -10 16 -5 3
-10 -1 -10 -9z"/>
</g>
</svg>
