<svg version="1.0" xmlns="http://www.w3.org/2000/svg"
 width="67.000000pt" height="94.000000pt" viewBox="0 0 67.000000 94.000000"
 preserveAspectRatio="xMidYMid meet">
<metadata>
Created by potrace 1.15, written by Peter Selinger 2001-2017
</metadata>
<g transform="translate(0.000000,94.000000) scale(0.100000,-0.100000)"
fill="#000000" stroke="none">
<path d="M134 708 c-34 -38 -84 -125 -84 -144 0 -9 39 -3 45 6 3 6 15 10 26
10 17 0 19 -8 19 -90 0 -90 0 -90 -27 -90 -63 0 -68 -34 -8 -46 35 -6 35 -6
35 -90 0 -82 -1 -84 -24 -84 -13 0 -34 -8 -47 -19 -23 -18 -23 -18 -2 -29 21
-12 131 -9 171 3 29 10 23 29 -11 33 -44 5 -50 23 -41 109 9 77 9 77 48 88 30
9 36 13 22 18 -10 4 -29 7 -42 7 -24 0 -24 2 -24 88 0 106 6 117 54 108 50
-10 47 9 -11 75 -70 79 -70 79 -99 47z m48 -65 c23 -21 23 -33 -1 -33 -38 0
-51 10 -40 31 12 23 17 24 41 2z"/>
<path d="M334 699 c-4 -7 4 -20 17 -30 24 -18 24 -18 0 -43 -24 -25 -24 -26
-4 -26 11 0 26 -6 32 -14 9 -11 7 -15 -10 -19 -15 -4 -19 -11 -14 -25 4 -14
-1 -25 -15 -35 -22 -15 -17 -27 12 -27 24 0 23 -14 -4 -34 -21 -15 -22 -17 -6
-28 16 -12 16 -14 -1 -43 -41 -67 -32 -115 11 -60 11 14 24 23 29 20 9 -6 -15
-79 -34 -103 -16 -21 -15 -188 1 -204 20 -20 45 18 36 56 -5 25 -4 28 12 22
36 -15 125 -36 149 -36 42 0 37 19 -12 42 -56 27 -75 65 -24 47 56 -20 70 -5
19 19 -42 21 -66 47 -54 60 3 3 28 -5 56 -17 53 -23 88 -19 55 6 -11 7 -26 13
-35 13 -9 0 -31 7 -49 16 -47 23 -26 40 30 26 24 -6 47 -8 51 -6 17 11 -13 32
-54 38 -54 9 -60 13 -46 36 17 27 -8 70 -44 77 -34 7 -45 20 -29 36 15 15 14
97 -1 97 -6 0 -4 8 7 20 14 15 16 29 11 64 -6 38 -11 46 -38 55 -39 14 -45 14
-54 0z m97 -332 c-13 -13 -26 -3 -16 12 3 6 11 8 17 5 6 -4 6 -10 -1 -17z m9
-68 c0 -5 -4 -9 -10 -9 -5 0 -10 7 -10 16 0 8 5 12 10 9 6 -3 10 -10 10 -16z
m-2 -71 c3 -15 -1 -16 -19 -9 -32 11 -38 34 -8 29 13 -1 25 -11 27 -20z m-10
-48 c33 -21 41 -35 20 -42 -21 -7 -68 22 -68 43 0 24 7 24 48 -1z"/>
<path d="M460 701 c-24 -7 -24 -7 9 -14 18 -4 38 -4 43 -1 6 4 14 0 19 -7 6
-10 11 -11 20 -2 28 28 -27 42 -91 24z"/>
<path d="M537 653 c-4 -3 -7 -21 -7 -39 0 -24 -5 -33 -22 -37 -18 -5 -19 -9
-9 -21 10 -12 9 -17 -8 -28 -20 -12 -29 -38 -13 -38 4 0 17 7 29 15 19 13 22
13 27 -1 8 -21 -1 -33 -30 -44 -13 -5 -24 -14 -24 -20 0 -18 26 -11 50 15 20
21 24 38 28 115 4 83 -1 103 -21 83z"/>
<path d="M90 525 c-17 -20 -9 -69 13 -73 14 -3 17 4 17 37 0 44 -11 58 -30 36z"/>
<path d="M219 524 c-9 -11 -10 -20 -3 -32 16 -25 32 -25 44 -2 22 41 -12 69
-41 34z"/>
<path d="M225 291 c-8 -37 2 -74 18 -68 18 6 21 72 3 86 -12 10 -15 7 -21 -18z"/>
<path d="M79 283 c-13 -36 -3 -75 19 -71 23 4 39 63 22 83 -18 22 -29 19 -41
-12z"/>
</g>
</svg>
