<svg version="1.0" xmlns="http://www.w3.org/2000/svg"
 width="61.000000pt" height="88.000000pt" viewBox="0 0 61.000000 88.000000"
 preserveAspectRatio="xMidYMid meet">
<metadata>
Created by potrace 1.15, written by Peter Selinger 2001-2017
</metadata>
<g transform="translate(0.000000,88.000000) scale(0.100000,-0.100000)"
fill="#000000" stroke="none">
<path d="M71 658 c-12 -4 -21 -14 -21 -23 0 -13 18 -15 110 -15 91 0 110 -3
110 -15 0 -12 -19 -15 -109 -15 -84 0 -110 -3 -114 -14 -3 -8 -3 -17 0 -20 4
-3 55 -6 115 -6 89 0 108 -3 108 -15 0 -12 -17 -15 -95 -15 -137 0 -131 11
-138 -246 -3 -119 -1 -213 4 -218 21 -23 29 20 39 204 6 107 14 198 18 202 5
5 45 11 90 15 79 6 82 5 82 -16 0 -19 -6 -21 -49 -21 -32 0 -55 -6 -65 -16
-19 -19 -22 -101 -4 -139 11 -25 13 -25 128 -25 109 0 118 2 138 23 17 18 22
36 22 80 0 66 -12 77 -84 77 -38 0 -46 3 -46 19 0 22 26 31 98 31 51 0 68 12
36 24 -9 3 -42 6 -75 6 -46 0 -59 3 -59 15 0 12 14 15 65 15 78 0 112 -14 119
-49 16 -81 17 -138 6 -285 -14 -172 -10 -211 15 -185 20 20 39 360 24 444 -6
34 -13 65 -17 71 -16 21 -55 34 -104 34 -67 0 -98 9 -98 26 0 11 22 14 104 14
79 0 106 3 116 15 10 12 10 16 -1 19 -25 8 -447 12 -468 4z m317 -260 c21 -21
13 -28 -33 -28 -38 0 -45 3 -45 20 0 16 7 20 33 20 18 0 38 -5 45 -12z m-118
-13 c0 -11 -12 -15 -45 -15 -33 0 -45 4 -45 15 0 11 12 15 45 15 33 0 45 -4
45 -15z m-10 -70 c0 -17 -5 -25 -17 -25 -38 0 -63 13 -63 31 0 15 7 19 40 19
36 0 40 -2 40 -25z m150 21 c0 -25 -16 -36 -56 -36 -37 0 -44 3 -44 20 0 17 7
20 50 20 28 0 50 -2 50 -4z"/>
<path d="M136 215 c-20 -21 -21 -69 -1 -85 20 -17 32 -4 37 35 2 22 8 30 23
30 17 0 20 -7 20 -45 0 -45 0 -45 -40 -48 -38 -3 -59 -18 -49 -34 3 -4 72 -8
154 -8 121 0 149 3 154 15 4 11 -7 16 -45 21 -50 7 -50 7 -47 53 3 38 6 46 23
46 15 0 21 -8 23 -33 4 -39 20 -38 42 1 11 20 12 31 4 44 -10 16 -30 18 -147
21 -113 2 -138 0 -151 -13z m159 -65 c0 -35 -4 -45 -17 -48 -15 -3 -18 4 -18
48 0 44 3 51 18 48 13 -3 17 -13 17 -48z"/>
</g>
</svg>
