<svg version="1.0" xmlns="http://www.w3.org/2000/svg"
 width="127.000000pt" height="197.000000pt" viewBox="0 0 127.000000 197.000000"
 preserveAspectRatio="xMidYMid meet">
<metadata>
Created by potrace 1.15, written by Peter Selinger 2001-2017
</metadata>
<g transform="translate(0.000000,197.000000) scale(0.100000,-0.100000)"
fill="#000000" stroke="none">
<path d="M905 1828 c-16 -12 -32 -25 -35 -29 -8 -11 -80 -49 -93 -49 -7 0 -25
-11 -41 -25 -16 -14 -33 -25 -37 -25 -19 0 -80 -74 -103 -123 -25 -55 -29 -81
-27 -178 1 -48 5 -61 31 -87 26 -28 47 -36 120 -45 9 -2 15 -14 16 -32 1 -59
16 -151 36 -225 34 -126 27 -399 -12 -455 -4 -5 -18 -45 -31 -88 -28 -92 -32
-93 -136 -44 -13 6 -26 8 -29 4 -14 -14 7 -36 55 -58 28 -12 51 -24 51 -26 0
-7 -26 -48 -42 -67 -10 -11 -18 -26 -18 -33 0 -19 -91 -108 -126 -122 -31 -12
-63 -55 -51 -67 24 -24 227 157 261 233 18 41 20 42 63 39 24 -1 46 1 49 6 5
8 -20 39 -31 38 -20 -1 -25 2 -25 16 0 8 9 32 19 52 61 118 70 167 66 362 -2
139 -7 192 -24 255 -29 113 -29 252 1 314 22 47 88 118 148 161 43 31 90 79
112 115 4 6 3 17 -2 25 -7 12 -14 10 -38 -13 -28 -27 -28 -27 -49 -5 -31 35
-75 120 -66 127 12 8 43 54 43 63 0 14 -24 8 -55 -14z m-13 -131 c15 -24 37
-54 48 -67 11 -13 20 -27 20 -31 0 -8 -72 -79 -80 -79 -10 0 -115 69 -144 95
-30 26 -30 26 -9 46 16 17 112 72 133 78 3 0 17 -18 32 -42z m-199 -109 c18
-12 38 -28 45 -35 6 -6 21 -15 32 -18 11 -3 20 -10 20 -14 0 -4 11 -13 25 -19
32 -15 31 -25 -2 -61 -30 -32 -21 -33 -180 6 -19 4 -23 12 -23 44 0 22 5 39
10 39 6 0 10 7 10 15 0 16 21 65 28 65 2 0 18 -10 35 -22z m15 -207 c9 -5 25
-12 34 -15 25 -7 8 -50 -22 -54 -34 -5 -70 7 -70 23 0 8 -4 15 -10 15 -5 0
-14 9 -20 20 -10 18 -8 20 30 20 22 0 48 -4 58 -9z"/>
<path d="M345 1639 c-7 -11 -2 -85 17 -256 7 -57 9 -105 6 -108 -3 -3 -47 15
-97 41 -108 53 -148 67 -157 52 -12 -19 45 -60 176 -125 41 -20 76 -37 78 -38
3 -2 5 -68 3 -97 -1 -13 -10 -18 -35 -18 -18 0 -50 -7 -71 -16 -36 -15 -37
-16 -19 -35 21 -23 30 -23 68 -4 35 18 55 19 79 1 19 -14 23 -36 7 -36 -5 0
-10 -15 -10 -32 0 -45 -8 -52 -65 -65 -45 -11 -52 -10 -65 6 -20 24 -57 43
-64 32 -3 -4 -3 -23 1 -42 12 -71 15 -169 4 -169 -6 0 -11 -16 -11 -35 0 -33
-21 -80 -61 -137 -17 -23 -27 -88 -14 -88 12 0 55 33 55 42 0 5 6 16 13 23 26
30 34 42 61 92 34 62 40 64 235 62 129 -1 141 -2 141 -19 0 -9 7 -23 15 -30
35 -29 66 54 37 98 -15 23 -29 75 -38 142 -11 76 -58 132 -66 78 -2 -15 -11
-22 -28 -24 -115 -10 -105 -16 -108 61 -3 71 -3 71 43 83 25 7 56 12 69 12 20
0 36 16 36 37 0 6 -78 -2 -122 -13 -28 -6 -28 -6 -28 51 0 49 5 63 32 99 18
22 35 43 38 46 14 14 30 53 30 75 0 40 -25 30 -50 -20 -15 -30 -47 -65 -60
-65 -6 0 -21 161 -25 272 -2 60 -31 99 -50 67z m225 -766 c0 -8 6 -26 14 -41
27 -54 28 -78 3 -89 -12 -5 -87 -9 -167 -8 -145 1 -145 1 -148 44 -3 44 15 81
26 52 3 -10 9 -8 22 9 14 18 33 25 96 34 117 16 154 16 154 -1z"/>
<path d="M990 1420 c0 -12 29 -42 70 -75 14 -11 40 -38 58 -60 27 -34 32 -48
32 -93 0 -33 -5 -59 -14 -68 -16 -15 -36 -19 -36 -6 0 19 -123 72 -167 72 -14
0 -23 -6 -23 -14 0 -20 39 -46 67 -46 32 0 103 -43 103 -63 0 -15 -58 -65
-120 -103 -56 -34 -95 -72 -86 -82 2 -2 27 8 55 22 28 14 56 26 63 26 7 0 36
18 65 39 44 34 52 37 58 23 4 -9 11 -91 16 -182 8 -159 15 -215 38 -345 21
-119 33 -155 53 -155 6 0 8 13 5 33 -4 17 -11 59 -17 92 -18 105 -38 316 -39
435 -1 63 -6 131 -11 151 -8 27 -5 47 10 89 43 118 23 174 -102 286 -27 24
-78 40 -78 24z"/>
<path d="M420 567 c0 -10 8 -17 18 -17 9 0 13 4 7 8 -5 4 -13 11 -17 16 -5 5
-8 2 -8 -7z"/>
</g>
</svg>
