<svg version="1.0" xmlns="http://www.w3.org/2000/svg"
 width="65.000000pt" height="83.000000pt" viewBox="0 0 65.000000 83.000000"
 preserveAspectRatio="xMidYMid meet">
<metadata>
Created by potrace 1.15, written by Peter Selinger 2001-2017
</metadata>
<g transform="translate(0.000000,83.000000) scale(0.100000,-0.100000)"
fill="#000000" stroke="none">
<path d="M101 601 c-20 -20 -21 -29 -21 -286 0 -258 1 -265 20 -265 19 0 20 7
20 254 0 209 3 256 15 266 20 17 54 3 61 -25 6 -23 -1 -421 -8 -475 -2 -19 2
-25 17 -25 12 0 22 9 26 25 4 14 7 136 8 271 1 277 4 268 -73 276 -35 4 -48 1
-65 -16z"/>
<path d="M284 609 c-13 -22 14 -28 126 -31 110 -3 115 -4 118 -25 3 -22 1 -22
-115 -25 -97 -2 -118 -6 -118 -18 0 -12 22 -16 115 -20 115 -5 115 -5 115 -30
0 -25 -1 -25 -110 -30 -89 -4 -110 -8 -110 -20 0 -13 18 -14 120 -12 73 3 124
8 131 15 13 14 34 94 34 132 0 14 -7 37 -16 50 -16 25 -19 25 -150 25 -85 0
-135 -4 -140 -11z"/>
<path d="M360 353 c-51 -10 -53 -18 -65 -201 -6 -87 -5 -94 12 -90 16 3 19 20
28 128 10 125 10 125 60 128 57 4 129 -14 147 -35 8 -10 12 -52 11 -129 -2
-113 -2 -114 21 -114 33 0 37 18 31 129 -9 144 -11 155 -44 174 -28 17 -135
22 -201 10z"/>
<path d="M393 273 c-38 -7 -26 -23 17 -23 42 0 53 -17 26 -39 -12 -10 -20 -9
-39 4 -37 24 -42 1 -7 -29 30 -25 30 -25 0 -47 -28 -21 -42 -59 -21 -59 5 0
23 11 40 25 28 24 31 25 40 8 22 -38 28 -43 44 -37 24 9 21 34 -9 65 -26 28
-26 28 -5 63 38 61 6 87 -86 69z"/>
</g>
</svg>
