<svg version="1.0" xmlns="http://www.w3.org/2000/svg"
 width="53.000000pt" height="71.000000pt" viewBox="0 0 53.000000 71.000000"
 preserveAspectRatio="xMidYMid meet">
<metadata>
Created by potrace 1.15, written by Peter Selinger 2001-2017
</metadata>
<g transform="translate(0.000000,71.000000) scale(0.100000,-0.100000)"
fill="#000000" stroke="none">
<path d="M330 540 c0 -5 -9 -10 -19 -10 -11 0 -21 -4 -23 -9 -1 -5 -23 -20
-48 -33 -64 -35 -85 -84 -94 -210 -7 -111 -2 -126 59 -191 34 -37 75 -48 65
-16 -8 25 1 133 12 146 15 18 42 16 83 -7 42 -24 45 -24 45 -6 0 7 -21 33 -47
57 -69 63 -82 84 -76 133 8 67 13 75 29 44 16 -31 39 -36 48 -12 10 27 6 88
-8 107 -15 19 -26 22 -26 7z m-85 -221 c4 -15 0 -46 -9 -72 -9 -26 -13 -53
-10 -62 7 -17 -21 -21 -32 -4 -6 11 13 189 24 219 3 9 8 2 13 -20 4 -19 11
-47 14 -61z"/>
</g>
</svg>
