<svg version="1.0" xmlns="http://www.w3.org/2000/svg"
 width="81.000000pt" height="195.000000pt" viewBox="0 0 81.000000 195.000000"
 preserveAspectRatio="xMidYMid meet">
<metadata>
Created by potrace 1.15, written by Peter Selinger 2001-2017
</metadata>
<g transform="translate(0.000000,195.000000) scale(0.100000,-0.100000)"
fill="#000000" stroke="none">
<path d="M352 1824 c-6 -10 -7 -130 -4 -285 5 -269 5 -269 -27 -269 -17 0 -31
-4 -31 -8 0 -4 -21 -14 -47 -20 -109 -29 -180 -95 -217 -202 -13 -37 -14 -55
-5 -100 14 -66 31 -107 59 -140 11 -14 33 -40 48 -57 15 -18 35 -33 44 -33 9
0 19 -4 22 -9 6 -9 112 -45 146 -50 8 -1 15 -203 10 -286 -1 -11 -3 -83 -4
-160 -3 -162 7 -205 45 -198 29 5 27 -15 34 313 3 158 10 280 16 302 11 34 17
39 71 55 32 10 58 21 58 25 0 4 7 8 15 8 15 0 63 30 92 57 8 7 32 47 54 90 34
65 41 88 42 143 2 61 -17 130 -35 130 -5 0 -8 9 -8 20 0 11 -6 20 -13 20 -7 0
-23 9 -35 20 -31 29 -136 80 -164 80 -13 0 -36 6 -51 13 -23 10 -27 18 -27 57
0 25 -3 104 -5 177 -3 73 -1 143 4 156 29 75 -52 214 -87 151z m-17 -650 c19
-5 20 -13 19 -187 -1 -272 4 -245 -51 -239 -74 8 -132 80 -164 203 -12 44 -11
49 21 112 29 58 40 70 84 92 53 26 59 28 91 19z m188 -1 c27 -4 51 -19 81 -48
47 -48 66 -97 66 -173 0 -46 -4 -55 -44 -96 -24 -25 -48 -46 -53 -46 -5 0 -19
-9 -31 -21 -14 -13 -38 -21 -65 -22 -42 -2 -42 -2 -40 93 0 52 3 133 5 180 2
47 0 87 -4 90 -4 3 -5 16 -1 28 6 24 21 26 86 15z"/>
</g>
</svg>
