<svg version="1.0" xmlns="http://www.w3.org/2000/svg"
 width="59.000000pt" height="121.000000pt" viewBox="0 0 59.000000 121.000000"
 preserveAspectRatio="xMidYMid meet">
<metadata>
Created by potrace 1.15, written by Peter Selinger 2001-2017
</metadata>
<g transform="translate(0.000000,121.000000) scale(0.100000,-0.100000)"
fill="#000000" stroke="none">
<path d="M279 1144 c-10 -12 -16 -148 -8 -190 1 -5 1 -30 0 -56 -1 -48 -1 -48
-48 -48 -27 0 -73 -11 -103 -23 -55 -23 -55 -23 -52 -75 4 -61 21 -106 52
-142 12 -14 25 -30 28 -35 12 -19 61 -45 84 -45 13 0 31 -7 41 -14 15 -12 17
-34 17 -208 0 -192 5 -258 20 -258 17 0 26 73 35 290 7 162 13 190 42 190 19
0 91 68 111 105 17 31 50 115 58 150 6 24 -20 36 -116 54 -109 21 -101 5 -100
196 0 17 3 42 6 57 9 42 -42 82 -67 52z m-11 -381 c6 -16 12 -62 14 -103 3
-75 3 -75 -22 -72 -49 5 -125 105 -118 154 3 20 30 32 109 47 4 0 11 -11 17
-26z m199 14 c10 -10 -22 -105 -49 -144 -51 -76 -75 -55 -77 66 -2 89 2 95 66
88 30 -3 57 -8 60 -10z"/>
</g>
</svg>
