<svg version="1.0" xmlns="http://www.w3.org/2000/svg"
 width="43.000000pt" height="75.000000pt" viewBox="0 0 43.000000 75.000000"
 preserveAspectRatio="xMidYMid meet">
<metadata>
Created by potrace 1.15, written by Peter Selinger 2001-2017
</metadata>
<g transform="translate(0.000000,75.000000) scale(0.100000,-0.100000)"
fill="#000000" stroke="none">
<path d="M170 525 c0 -73 -3 -86 -17 -91 -44 -13 -48 -20 -44 -70 3 -54 17
-78 39 -69 12 5 14 -5 8 -64 -8 -77 -1 -121 20 -121 10 0 14 12 14 38 0 21 6
46 13 56 13 18 16 16 43 -25 25 -37 35 -44 68 -47 32 -3 37 -1 34 15 -2 11
-14 19 -30 21 -19 2 -29 12 -38 35 -19 53 -26 62 -49 65 -33 5 -26 36 14 55
46 22 47 58 4 103 -20 20 -29 39 -26 48 7 16 37 23 37 8 0 -14 76 -52 105 -52
20 0 26 4 23 18 -2 9 -13 18 -25 20 -12 2 -36 16 -53 32 -17 16 -43 32 -58 37
-16 6 -33 22 -41 41 -27 59 -41 40 -41 -53z"/>
</g>
</svg>
