<svg version="1.0" xmlns="http://www.w3.org/2000/svg"
 width="127.000000pt" height="151.000000pt" viewBox="0 0 127.000000 151.000000"
 preserveAspectRatio="xMidYMid meet">
<metadata>
Created by potrace 1.15, written by Peter Selinger 2001-2017
</metadata>
<g transform="translate(0.000000,151.000000) scale(0.100000,-0.100000)"
fill="#000000" stroke="none">
<path d="M876 1386 c-33 -12 -77 -39 -98 -59 -21 -20 -42 -37 -47 -37 -4 0
-13 -18 -20 -40 -13 -44 -6 -125 15 -176 19 -45 76 -91 135 -108 45 -14 62
-14 138 -2 109 18 115 21 166 70 83 81 86 195 8 292 -58 73 -192 100 -297 60z
m229 -86 c66 -46 85 -153 36 -208 -55 -64 -242 -87 -315 -40 -19 13 -37 30
-40 38 -25 69 -34 105 -29 119 13 33 56 81 74 81 11 0 19 4 19 9 0 19 99 39
170 33 29 -3 60 -14 85 -32z"/>
<path d="M980 1209 c-86 -11 -110 -20 -110 -39 0 -29 42 -41 107 -28 56 11 83
23 83 37 0 4 -6 14 -12 22 -10 11 -25 13 -68 8z"/>
<path d="M433 1114 c-3 -9 -1 -19 4 -23 16 -10 30 -43 43 -103 7 -32 15 -58
17 -58 2 0 15 7 28 16 38 25 32 84 -18 157 -21 30 -64 37 -74 11z"/>
<path d="M220 1075 c-11 -13 -7 -20 23 -46 20 -17 43 -41 51 -54 23 -35 47
-128 56 -210 14 -146 78 -263 153 -283 39 -11 47 -7 47 22 0 17 -9 27 -30 36
-35 15 -75 59 -94 104 -8 18 -19 88 -26 157 -14 137 -26 171 -87 236 -44 48
-75 60 -93 38z"/>
<path d="M93 933 c-13 -2 -23 -6 -23 -9 0 -16 47 -94 57 -94 7 0 15 -12 18
-27 3 -16 15 -56 25 -89 11 -34 20 -73 20 -87 0 -14 5 -39 11 -54 6 -15 15
-37 19 -48 19 -49 41 -92 58 -111 40 -47 134 -91 150 -70 23 30 21 35 -20 54
-82 36 -123 91 -150 200 -10 42 -24 93 -29 112 -6 19 -14 51 -18 72 -14 63
-71 161 -91 156 -3 0 -15 -3 -27 -5z"/>
<path d="M802 870 c-24 -23 -26 -29 -13 -48 10 -17 225 -26 252 -11 24 12 24
35 2 44 -24 10 -162 35 -194 35 -14 0 -35 -9 -47 -20z"/>
<path d="M558 763 c-29 -35 -29 -43 3 -78 35 -38 77 -47 99 -20 10 12 10 18 0
30 -7 8 -18 15 -24 15 -6 0 -20 16 -30 35 -22 40 -27 42 -48 18z"/>
<path d="M788 646 c-6 -30 -3 -32 38 -41 16 -4 43 -10 59 -13 53 -12 69 -26
61 -56 -6 -24 -10 -26 -65 -26 -46 0 -60 -4 -65 -17 -8 -19 5 -29 58 -44 38
-10 38 -11 33 -51 -3 -22 -8 -42 -11 -45 -2 -3 -28 -7 -57 -9 -29 -2 -57 -8
-62 -13 -16 -16 10 -39 54 -46 42 -7 45 -12 28 -47 -13 -29 -102 -88 -132 -88
-13 0 -38 -5 -56 -11 -28 -10 -32 -15 -29 -43 3 -26 7 -31 28 -28 14 1 34 6
45 11 11 5 40 15 65 22 53 15 102 46 128 80 25 33 71 139 78 180 3 19 15 59
25 90 10 30 19 64 19 76 0 11 7 34 16 51 8 18 13 36 10 41 -7 10 -50 20 -141
32 -38 4 -82 11 -96 15 -23 5 -27 2 -31 -20z"/>
<path d="M546 377 c-17 -13 -24 -61 -13 -87 12 -27 -39 -40 -153 -40 -95 0
-106 -2 -118 -20 -7 -12 -10 -25 -7 -29 8 -14 166 -23 215 -12 170 37 319 128
194 119 -45 -3 -47 -2 -58 30 -14 41 -37 56 -60 39z"/>
<path d="M230 91 c0 -11 11 -23 28 -30 30 -13 237 -19 248 -8 4 4 -1 18 -10
32 -16 25 -19 25 -141 25 -116 0 -125 -1 -125 -19z"/>
</g>
</svg>
