<svg version="1.0" xmlns="http://www.w3.org/2000/svg"
 width="71.000000pt" height="94.000000pt" viewBox="0 0 71.000000 94.000000"
 preserveAspectRatio="xMidYMid meet">
<metadata>
Created by potrace 1.15, written by Peter Selinger 2001-2017
</metadata>
<g transform="translate(0.000000,94.000000) scale(0.100000,-0.100000)"
fill="#000000" stroke="none">
<path d="M280 712 c0 -10 13 -33 29 -52 24 -29 36 -35 82 -40 39 -3 55 -10 57
-21 2 -12 -8 -18 -39 -22 -51 -7 -93 -36 -97 -67 -5 -33 11 -43 70 -45 45 -1
53 -5 53 -21 0 -13 -8 -20 -24 -22 -64 -9 -111 -84 -95 -150 11 -44 -7 -147
-36 -206 -22 -44 -20 -51 8 -42 33 11 59 91 70 208 5 59 15 114 22 123 7 8 30
20 51 25 73 20 135 -30 127 -102 -3 -28 -3 -28 -43 -1 -40 28 -40 28 -12 31
45 5 32 29 -20 36 -26 3 -49 2 -52 -2 -3 -5 -15 -12 -26 -17 -19 -8 -19 -9 2
-12 22 -4 22 -5 -7 -30 -17 -13 -30 -29 -30 -34 0 -16 23 -10 47 13 23 21 23
21 79 -7 60 -30 59 -30 69 -89 7 -40 77 -128 91 -113 4 4 -5 29 -19 56 -24 43
-27 60 -27 139 0 50 -5 103 -12 117 -12 27 -73 65 -103 65 -11 0 -15 7 -13 23
3 19 9 22 43 22 34 0 40 -3 43 -23 5 -32 36 -25 40 10 4 38 -35 62 -88 55 -33
-4 -40 -2 -40 12 0 13 14 20 62 29 64 12 78 22 78 58 0 37 -33 57 -82 50 -41
-6 -44 -5 -57 24 -15 36 -35 35 -39 -3 -3 -22 -8 -27 -32 -27 -39 0 -77 18
-95 47 -18 27 -35 30 -35 5z m264 -88 c23 -9 1 -34 -30 -34 -28 0 -33 26 -6
33 9 3 18 5 19 6 1 0 9 -2 17 -5z m-106 -96 c-5 -15 -58 -30 -78 -22 -12 4
-12 8 4 20 24 17 79 19 74 2z"/>
<path d="M137 653 c-3 -38 -10 -142 -16 -233 -13 -198 -26 -274 -52 -319 -12
-20 -16 -38 -11 -43 15 -15 42 3 63 45 40 76 48 126 46 267 -1 88 3 148 12
173 14 41 22 45 41 22 10 -12 11 -36 4 -103 -12 -128 -10 -301 5 -344 14 -42
49 -56 36 -15 -21 65 -16 249 11 418 8 48 -21 98 -75 128 -36 20 -42 27 -37
47 5 17 2 24 -8 24 -11 0 -16 -18 -19 -67z"/>
<path d="M380 214 c0 -9 10 -46 21 -83 12 -36 23 -72 25 -78 8 -31 32 -5 71
77 23 49 39 91 35 94 -4 2 -31 0 -61 -5 -34 -5 -61 -5 -72 2 -15 8 -19 6 -19
-7z m84 -55 c-18 -19 -19 -20 -32 -2 -12 16 -10 19 15 24 37 7 40 3 17 -22z"/>
</g>
</svg>
