<svg version="1.0" xmlns="http://www.w3.org/2000/svg"
 width="79.000000pt" height="161.000000pt" viewBox="0 0 79.000000 161.000000"
 preserveAspectRatio="xMidYMid meet">
<metadata>
Created by potrace 1.15, written by Peter Selinger 2001-2017
</metadata>
<g transform="translate(0.000000,161.000000) scale(0.100000,-0.100000)"
fill="#000000" stroke="none">
<path d="M95 1500 c3 -5 8 -10 11 -10 2 0 4 5 4 10 0 6 -5 10 -11 10 -5 0 -7
-4 -4 -10z"/>
<path d="M136 1400 c3 -14 9 -41 14 -60 53 -213 61 -507 20 -725 -14 -73 -27
-183 -36 -290 -5 -70 -3 -86 16 -128 56 -118 172 -183 351 -194 78 -5 103 -3
129 11 18 9 37 16 42 16 14 0 56 45 78 85 21 37 27 105 10 105 -5 0 -10 -6
-10 -13 0 -8 -11 -19 -25 -25 -30 -14 -115 -16 -115 -3 0 5 -13 14 -28 20 -17
7 -41 33 -59 64 -27 45 -33 66 -39 147 -4 52 -12 106 -17 120 -10 22 -12 17
-18 -45 -23 -242 -20 -225 -53 -259 -34 -33 -101 -56 -165 -56 -31 0 -40 5
-51 28 -15 32 -15 236 0 327 6 33 15 87 21 120 29 170 31 292 5 475 -21 148
-35 216 -58 265 -10 22 -16 29 -12 15z m364 -1191 c36 -41 188 -77 205 -49 3
6 13 10 21 10 22 0 7 -49 -25 -83 -43 -48 -72 -57 -173 -57 -122 0 -213 28
-268 81 -22 22 -40 41 -40 43 0 2 18 4 40 4 67 1 147 22 182 47 41 29 37 29
58 4z"/>
<path d="M440 1230 c-2 -151 -1 -282 4 -554 1 -42 5 -61 15 -64 12 -4 13 46 7
349 -9 403 -22 547 -26 269z"/>
</g>
</svg>
