<svg version="1.0" xmlns="http://www.w3.org/2000/svg"
 width="43.000000pt" height="59.000000pt" viewBox="0 0 43.000000 59.000000"
 preserveAspectRatio="xMidYMid meet">
<metadata>
Created by potrace 1.15, written by Peter Selinger 2001-2017
</metadata>
<g transform="translate(0.000000,59.000000) scale(0.100000,-0.100000)"
fill="#000000" stroke="none">
<path d="M135 530 c-3 -5 -4 -14 -1 -18 3 -5 10 -67 16 -138 17 -208 13 -198
75 -228 57 -29 86 -26 83 8 -1 11 9 40 21 63 15 26 21 48 17 60 -7 16 -10 15
-36 -13 -15 -18 -32 -40 -38 -49 -7 -13 -16 -16 -36 -11 -25 6 -27 10 -24 53
2 37 9 50 31 67 28 21 29 21 43 1 13 -17 16 -18 25 -5 20 30 -11 166 -42 185
-17 11 -22 -27 -9 -63 12 -34 11 -37 -16 -59 -16 -13 -32 -23 -36 -23 -3 0 -9
28 -13 63 -10 87 -40 140 -60 107z"/>
</g>
</svg>
