<svg version="1.0" xmlns="http://www.w3.org/2000/svg"
 width="43.000000pt" height="67.000000pt" viewBox="0 0 43.000000 67.000000"
 preserveAspectRatio="xMidYMid meet">
<metadata>
Created by potrace 1.15, written by Peter Selinger 2001-2017
</metadata>
<g transform="translate(0.000000,67.000000) scale(0.100000,-0.100000)"
fill="#000000" stroke="none">
<path d="M116 393 c14 -235 18 -259 43 -292 15 -19 33 -31 47 -31 13 0 26 -5
29 -10 4 -6 14 -8 24 -5 9 2 32 1 51 -5 58 -17 44 -4 -43 39 -92 44 -96 51
-94 131 2 45 2 45 42 41 50 -4 52 -5 60 -41 4 -17 13 -30 21 -30 18 0 18 45 0
119 -8 31 -17 73 -21 94 -8 52 -27 36 -25 -22 3 -79 2 -81 -27 -81 -16 0 -33
4 -39 8 -13 8 -34 89 -34 129 0 28 -15 53 -32 53 -5 0 -6 -44 -2 -97z"/>
</g>
</svg>
