<svg version="1.0" xmlns="http://www.w3.org/2000/svg"
 width="60.000000pt" height="82.000000pt" viewBox="0 0 60.000000 82.000000"
 preserveAspectRatio="xMidYMid meet">
<metadata>
Created by potrace 1.15, written by Peter Selinger 2001-2017
</metadata>
<g transform="translate(0.000000,82.000000) scale(0.100000,-0.100000)"
fill="#000000" stroke="none">
<path d="M229 548 c-1 -1 -2 -76 -4 -166 -2 -193 -4 -196 -93 -198 -79 -2 -82
-2 -82 -19 0 -38 122 -49 175 -17 27 17 32 28 43 91 16 92 15 249 -1 280 -10
21 -34 39 -38 29z"/>
<path d="M360 535 c-17 -20 2 -351 22 -371 7 -8 39 -19 70 -25 50 -10 61 -9
85 6 27 18 27 18 3 37 -18 15 -34 18 -61 14 -28 -5 -40 -1 -54 14 -16 17 -19
42 -21 173 -2 83 -4 155 -4 160 0 12 -27 8 -40 -8z"/>
<path d="M480 428 c0 -113 8 -140 34 -119 20 17 23 190 4 209 -31 31 -38 14
-38 -90z"/>
<path d="M90 496 c-5 -15 -5 -50 1 -92 5 -37 7 -75 3 -86 -8 -27 25 -36 43
-12 14 19 13 90 -3 182 -7 38 -31 42 -44 8z"/>
</g>
</svg>
