<svg version="1.0" xmlns="http://www.w3.org/2000/svg"
 width="65.000000pt" height="113.000000pt" viewBox="0 0 65.000000 113.000000"
 preserveAspectRatio="xMidYMid meet">
<metadata>
Created by potrace 1.15, written by Peter Selinger 2001-2017
</metadata>
<g transform="translate(0.000000,113.000000) scale(0.100000,-0.100000)"
fill="#000000" stroke="none">
<path d="M149 948 c0 -54 -8 -129 -14 -145 -2 -7 -14 -13 -25 -13 -18 0 -20 6
-20 60 0 52 -3 60 -18 60 -17 0 -20 -12 -26 -122 -4 -68 -9 -138 -12 -155 -5
-25 -2 -34 11 -39 25 -10 35 13 35 77 0 60 14 84 47 77 14 -3 18 -12 16 -38
-1 -19 -3 -97 -5 -172 -3 -111 -6 -141 -19 -154 -14 -13 -21 -14 -39 -4 -17 9
-20 17 -15 38 14 55 13 103 -2 109 -26 10 -31 -16 -32 -160 0 -77 -3 -159 -6
-182 -5 -31 -3 -44 9 -54 21 -18 24 -8 29 108 5 95 13 114 47 108 13 -2 15
-29 15 -170 0 -92 3 -167 8 -167 77 -1 76 -1 86 37 6 21 11 59 11 85 0 26 4
49 8 52 5 3 12 45 16 93 4 48 9 102 11 118 2 17 5 51 6 78 2 41 6 49 32 62 17
8 40 15 53 15 19 0 24 -7 29 -43 4 -23 5 -58 3 -77 -3 -30 -7 -35 -28 -35 -22
0 -25 5 -28 38 -3 40 -7 44 -25 25 -14 -15 -16 -126 -3 -146 5 -8 4 -18 -1
-23 -17 -17 2 -101 27 -121 22 -18 96 -23 106 -6 3 4 16 8 29 8 35 0 53 35 58
115 6 73 -4 189 -16 202 -13 12 -30 -15 -31 -49 -1 -26 -6 -34 -23 -36 -22 -3
-23 0 -23 72 0 76 0 76 46 76 81 0 92 -25 93 -224 1 -88 6 -178 11 -200 5 -23
12 -58 15 -78 7 -43 30 -51 37 -13 3 14 -1 51 -8 83 -8 31 -16 135 -19 231 -3
95 -10 182 -16 193 -12 23 -67 48 -103 48 -41 0 -56 11 -56 40 0 24 4 28 41
33 52 7 79 31 79 72 0 40 16 55 58 55 26 0 33 4 30 18 -3 16 -21 17 -213 17
-180 0 -210 -2 -210 -15 0 -9 13 -17 35 -20 32 -5 35 -9 50 -58 12 -44 21 -56
46 -67 38 -16 47 -29 39 -55 -4 -14 -15 -20 -36 -20 -62 0 -103 -37 -105 -94
-1 -23 -4 -48 -7 -56 -6 -17 -13 -72 -26 -210 -6 -52 -12 -102 -15 -110 -2 -8
-7 -27 -10 -42 -13 -58 -24 -24 -20 62 3 63 1 90 -7 90 -8 0 -8 4 -1 13 10 12
15 114 28 545 6 201 6 202 -15 202 -18 0 -21 -6 -22 -42z m352 -174 c9 -11 7
-22 -6 -50 -17 -37 -17 -37 -76 -31 -72 6 -89 19 -89 63 0 33 0 33 80 32 55 0
83 -4 91 -14z m-18 -421 c3 -5 1 -35 -4 -68 -12 -86 -55 -115 -124 -83 -23 10
-25 16 -25 79 0 62 2 68 23 72 39 8 126 7 130 0z"/>
<path d="M250 936 c0 -8 5 -18 10 -21 12 -7 341 -7 348 0 3 2 -1 11 -8 20 -18
22 -350 23 -350 1z"/>
</g>
</svg>
