<svg version="1.0" xmlns="http://www.w3.org/2000/svg"
 width="72.000000pt" height="79.000000pt" viewBox="0 0 72.000000 79.000000"
 preserveAspectRatio="xMidYMid meet">
<metadata>
Created by potrace 1.15, written by Peter Selinger 2001-2017
</metadata>
<g transform="translate(0.000000,79.000000) scale(0.100000,-0.100000)"
fill="#000000" stroke="none">
<path d="M230 615 c0 -8 -19 -24 -42 -35 -61 -29 -108 -63 -108 -77 0 -20 24
-15 63 11 19 13 44 27 56 31 34 10 28 -38 -7 -62 -143 -93 -148 -97 -116 -110
8 -3 25 4 38 16 31 29 48 26 69 -10 20 -36 15 -49 -17 -49 -44 0 -86 -13 -86
-25 0 -10 17 -13 63 -12 62 2 62 2 62 -33 0 -35 0 -35 -68 -38 -48 -2 -67 -7
-67 -16 0 -24 27 -39 49 -27 11 6 36 11 55 11 36 0 36 0 36 -75 0 -59 3 -75
15 -75 25 0 37 39 30 96 -6 51 -5 54 19 60 14 3 33 3 42 0 23 -9 54 2 54 20 0
11 -15 14 -61 14 -60 0 -60 0 -57 32 3 32 5 33 51 36 33 2 47 7 47 18 0 9 -11
14 -33 14 -46 0 -49 6 -26 51 22 44 31 47 66 19 33 -26 45 -25 41 2 -2 14 -21
31 -58 50 -63 34 -80 52 -80 85 0 28 0 28 49 2 39 -20 61 -19 61 2 0 6 -20 19
-45 30 -25 11 -49 29 -55 39 -12 23 -40 27 -40 5z m25 -165 c15 -16 17 -26 9
-48 -14 -39 -35 -37 -64 4 -23 35 -24 37 -5 50 26 19 39 18 60 -6z"/>
<path d="M500 601 c0 -11 15 -49 34 -83 62 -115 64 -168 12 -320 -11 -32 -14
-54 -8 -65 5 -10 12 -33 16 -52 8 -42 23 -61 47 -61 25 0 24 7 -6 55 -31 51
-31 79 1 150 24 52 26 66 21 141 -3 60 -11 96 -27 126 -13 24 -28 61 -35 83
-9 28 -18 41 -34 43 -16 3 -21 -2 -21 -17z"/>
<path d="M457 503 c-4 -3 -7 -15 -7 -25 0 -11 -7 -18 -19 -18 -23 0 -40 -22
-23 -28 23 -7 42 -34 42 -58 0 -19 -5 -24 -24 -24 -13 0 -29 -7 -36 -15 -11
-13 -8 -16 19 -21 31 -6 31 -6 31 -85 0 -61 3 -79 14 -79 20 0 26 23 26 95 0
64 0 64 32 67 37 4 51 28 16 28 -38 0 -49 13 -42 48 5 24 12 32 29 32 12 0 25
3 28 7 11 10 -13 33 -34 33 -14 0 -19 7 -19 25 0 24 -18 34 -33 18z"/>
</g>
</svg>
