<svg version="1.0" xmlns="http://www.w3.org/2000/svg"
 width="64.000000pt" height="87.000000pt" viewBox="0 0 64.000000 87.000000"
 preserveAspectRatio="xMidYMid meet">
<metadata>
Created by potrace 1.15, written by Peter Selinger 2001-2017
</metadata>
<g transform="translate(0.000000,87.000000) scale(0.100000,-0.100000)"
fill="#000000" stroke="none">
<path d="M182 688 c-5 -7 -12 -24 -14 -38 -3 -22 -10 -26 -56 -32 -109 -16
-120 -48 -16 -48 81 0 83 -13 12 -66 -63 -47 -77 -80 -30 -69 37 8 59 -12 68
-60 9 -50 0 -65 -39 -65 -31 0 -57 -14 -57 -31 0 -5 21 -9 48 -11 41 -3 47 -6
50 -27 5 -29 -12 -41 -59 -41 -35 0 -66 -20 -52 -33 3 -4 28 -7 54 -7 48 0 48
0 51 -67 2 -38 8 -68 14 -70 21 -7 44 28 44 67 0 56 8 70 40 70 83 0 75 52
-10 62 -17 2 -25 9 -25 23 0 16 8 21 35 23 19 2 39 7 44 12 14 14 -11 38 -42
42 -59 7 -26 99 41 116 52 13 47 43 -13 76 -66 36 -65 66 3 66 12 0 29 5 37
10 13 9 12 12 -4 25 -11 8 -32 15 -48 15 -23 0 -28 4 -28 23 0 22 -16 47 -31
47 -4 0 -11 -6 -17 -12z m33 -202 c19 -14 19 -15 1 -35 -24 -26 -38 -26 -54 0
-10 16 -10 24 -1 35 15 18 30 18 54 0z"/>
<path d="M405 658 c-2 -13 -6 -41 -7 -63 -3 -36 -6 -41 -38 -51 -23 -8 -36
-19 -38 -33 -3 -18 1 -21 37 -21 34 0 41 -3 41 -19 0 -36 -12 -51 -40 -51 -30
0 -56 -23 -45 -40 3 -5 22 -10 41 -10 34 0 34 -1 34 -44 0 -26 5 -46 13 -49 6
-3 -3 -8 -21 -12 -18 -4 -37 -16 -42 -26 -15 -27 -12 -115 4 -128 12 -10 146
-31 204 -31 33 0 27 25 -13 50 -28 17 -43 20 -80 15 -49 -8 -75 4 -75 34 0 34
25 51 85 61 104 16 122 56 127 270 3 137 -1 160 -28 160 -19 0 -34 -41 -34
-96 0 -41 -11 -57 -25 -34 -3 6 -15 10 -26 10 -17 0 -19 7 -19 65 0 63 -1 65
-25 65 -17 0 -26 -7 -30 -22z m123 -244 c-5 -92 -22 -124 -65 -124 -22 0 -24
4 -21 38 2 29 8 38 25 40 12 2 27 10 34 18 10 12 7 17 -20 27 -26 9 -31 17
-31 44 0 28 4 34 33 41 17 5 36 7 41 4 4 -2 6 -42 4 -88z"/>
</g>
</svg>
