<svg version="1.0" xmlns="http://www.w3.org/2000/svg"
 width="71.000000pt" height="85.000000pt" viewBox="0 0 71.000000 85.000000"
 preserveAspectRatio="xMidYMid meet">
<metadata>
Created by potrace 1.15, written by Peter Selinger 2001-2017
</metadata>
<g transform="translate(0.000000,85.000000) scale(0.100000,-0.100000)"
fill="#000000" stroke="none">
<path d="M417 714 c-4 -4 -7 -43 -7 -86 0 -72 -2 -78 -20 -78 -11 0 -22 6 -24
13 -19 67 -31 97 -46 117 -22 29 -38 20 -23 -13 6 -12 19 -50 29 -85 15 -55
21 -64 45 -69 25 -5 38 -25 39 -59 0 -6 -18 -18 -40 -27 -49 -19 -64 -51 -79
-170 -7 -49 -14 -103 -17 -120 -5 -32 -5 -32 20 -2 26 31 46 100 46 161 0 61
60 123 74 77 18 -65 18 -85 -2 -106 -21 -24 -42 -78 -42 -112 0 -12 -11 -32
-25 -45 -28 -26 -32 -40 -12 -40 24 0 58 47 77 106 20 66 35 78 50 38 19 -50
115 -143 148 -144 23 0 12 16 -53 82 -70 70 -85 110 -44 123 22 7 39 42 39 81
0 32 -28 32 -40 -1 -9 -25 -35 -43 -46 -32 -3 3 -8 23 -11 45 -5 35 -3 40 18
45 13 4 33 7 45 7 25 0 64 35 64 58 -1 35 -29 56 -82 62 -28 3 -53 10 -55 17
-3 7 14 21 37 33 22 11 44 29 47 38 3 9 13 25 21 35 13 14 13 20 3 30 -11 9
-15 9 -18 0 -11 -30 -46 -63 -68 -63 -20 0 -25 6 -30 38 -9 53 -10 54 -18 46z
m99 -226 c8 -13 -22 -38 -48 -38 -13 0 -18 8 -18 25 0 21 5 25 29 25 17 0 33
-5 37 -12z"/>
<path d="M133 648 c3 -18 10 -55 16 -83 8 -40 6 -74 -11 -165 -23 -129 -22
-132 39 -257 32 -65 57 -92 71 -78 3 3 -5 24 -17 46 -34 60 -51 134 -51 227 0
72 2 82 18 82 10 0 33 16 51 34 32 33 34 38 28 85 -3 27 -13 64 -22 80 -18 36
-41 42 -30 9 4 -13 9 -45 11 -73 4 -42 1 -55 -18 -78 -23 -28 -23 -28 -23 45
-1 58 -6 82 -25 116 -28 50 -44 54 -37 10z"/>
<path d="M70 535 c0 -26 -7 -59 -15 -75 -16 -32 -5 -41 17 -15 7 9 19 22 26
30 15 17 15 46 0 80 -17 38 -28 30 -28 -20z"/>
<path d="M212 387 c-20 -25 -23 -85 -7 -124 24 -58 60 -75 44 -21 -5 18 -9 59
-9 90 0 58 -10 78 -28 55z"/>
<path d="M59 363 c-29 -75 -17 -188 27 -252 13 -20 24 -41 24 -48 0 -16 17
-26 31 -18 7 5 5 15 -6 31 -9 14 -27 58 -40 99 -21 63 -23 83 -16 140 8 70 -2
95 -20 48z"/>
</g>
</svg>
