<svg version="1.0" xmlns="http://www.w3.org/2000/svg"
 width="67.000000pt" height="125.000000pt" viewBox="0 0 67.000000 125.000000"
 preserveAspectRatio="xMidYMid meet">
<metadata>
Created by potrace 1.15, written by Peter Selinger 2001-2017
</metadata>
<g transform="translate(0.000000,125.000000) scale(0.100000,-0.100000)"
fill="#000000" stroke="none">
<path d="M90 1115 c0 -9 8 -29 19 -43 82 -117 90 -198 41 -417 -31 -137 -45
-288 -32 -333 7 -22 12 -51 12 -64 0 -35 37 -179 49 -191 16 -16 33 4 28 32
-3 14 -13 55 -22 91 -19 76 -26 367 -8 378 5 4 13 27 17 52 4 25 11 68 17 95
20 99 21 117 10 178 -17 88 -38 152 -66 207 -16 30 -65 41 -65 15z"/>
<path d="M357 1123 c-13 -13 -7 -84 10 -109 15 -23 21 -25 87 -24 146 3 136 7
136 -48 0 -43 -3 -50 -25 -60 -14 -7 -38 -12 -53 -12 -15 -1 -51 -6 -81 -13
-46 -11 -55 -17 -67 -46 -19 -46 -18 -105 2 -122 11 -9 53 -16 112 -19 96 -5
96 -5 115 -38 15 -26 20 -54 21 -130 1 -113 -5 -124 -126 -227 -67 -57 -73
-93 -28 -181 33 -67 63 -92 86 -73 20 16 19 20 -23 74 -52 66 -52 107 1 158
21 20 41 37 46 37 15 0 70 70 76 98 3 15 9 38 14 52 20 62 -12 228 -50 257 -9
8 -49 12 -101 13 -100 0 -115 9 -105 64 7 37 20 43 126 52 30 3 57 9 58 15 2
5 10 9 17 9 25 0 35 36 28 100 -8 82 -22 91 -130 84 -76 -4 -83 -3 -93 16 -6
12 -9 28 -6 36 12 31 -25 60 -47 37z"/>
<path d="M230 1053 c0 -10 9 -33 20 -51 16 -26 20 -50 20 -119 0 -89 -14 -191
-33 -230 -10 -23 -4 -53 12 -53 44 0 79 250 53 374 -8 39 -20 76 -28 83 -18
19 -44 16 -44 -4z"/>
<path d="M30 1030 c0 -5 9 -25 20 -45 31 -56 26 -194 -11 -280 -26 -62 0 -104
33 -52 18 27 27 75 35 186 5 87 -7 148 -37 184 -16 18 -40 23 -40 7z"/>
<path d="M222 548 c-17 -22 -23 -139 -11 -223 6 -44 13 -97 16 -117 3 -21 9
-38 13 -38 4 0 10 -9 13 -20 3 -11 10 -20 16 -20 23 0 23 32 2 98 -17 55 -21
93 -21 200 0 126 -5 148 -28 120z"/>
<path d="M24 515 c-14 -30 -17 -64 -17 -171 0 -74 5 -147 12 -164 6 -16 16
-43 22 -60 6 -16 18 -30 26 -30 12 0 14 8 8 37 -9 47 -12 70 -22 159 -7 60 -5
127 9 233 5 38 -19 36 -38 -4z"/>
<path d="M357 517 c-44 -8 -57 -14 -55 -26 4 -18 85 -21 196 -6 50 6 62 11 60
24 -3 13 -17 16 -73 17 -39 1 -96 -3 -128 -9z"/>
</g>
</svg>
