<svg version="1.0" xmlns="http://www.w3.org/2000/svg"
 width="87.000000pt" height="119.000000pt" viewBox="0 0 87.000000 119.000000"
 preserveAspectRatio="xMidYMid meet">
<metadata>
Created by potrace 1.15, written by Peter Selinger 2001-2017
</metadata>
<g transform="translate(0.000000,119.000000) scale(0.100000,-0.100000)"
fill="#000000" stroke="none">
<path d="M679 1051 c-12 -28 -14 -28 -78 -24 -36 3 -91 8 -121 13 -30 4 -62 4
-71 0 -8 -5 -53 -6 -100 -4 -139 9 -188 -28 -73 -55 89 -21 115 -34 108 -51
-3 -8 -8 -27 -11 -43 -8 -38 -15 -40 -72 -21 -37 12 -51 22 -55 40 -7 28 -31
32 -41 7 -16 -43 -24 -580 -10 -695 5 -46 5 -48 -20 -48 -18 0 -25 -5 -25 -20
0 -13 7 -20 20 -20 11 0 20 -4 20 -10 0 -15 59 -27 145 -29 44 -1 99 -6 123
-12 23 -5 100 -9 170 -8 70 0 139 0 155 0 15 0 27 4 27 9 0 6 9 10 19 10 26 0
37 18 16 26 -14 6 -15 18 -10 83 5 51 12 80 23 88 14 12 14 13 -1 13 -11 0
-14 5 -10 16 5 13 1 55 -22 229 -3 22 -10 67 -16 100 -6 33 -13 128 -15 210
-5 143 -15 201 -38 217 -18 13 -24 9 -37 -21z m-201 -101 c7 0 12 -14 12 -38
0 -35 -21 -61 -55 -68 -5 -1 -18 -5 -27 -9 -15 -6 -18 -1 -18 34 0 54 26 95
54 87 12 -3 27 -6 34 -6z m200 -87 c1 -40 6 -101 12 -135 8 -57 13 -118 24
-288 2 -30 9 -84 15 -120 17 -91 25 -190 17 -190 -4 0 -26 5 -49 11 -42 10
-42 10 -43 102 -1 92 -13 137 -38 137 -7 0 -36 -18 -64 -40 -27 -22 -53 -40
-56 -40 -9 0 -7 48 2 52 4 2 28 27 52 57 45 53 45 53 45 186 0 73 3 137 8 141
16 16 7 35 -13 29 -13 -4 -20 -2 -21 7 0 7 -3 22 -5 33 -3 11 -7 46 -11 78 -5
58 -5 58 58 55 64 -3 64 -3 67 -75z m-401 -59 c22 -21 15 -40 -22 -57 -38 -18
-39 -17 -38 48 1 46 2 46 25 34 13 -7 28 -18 35 -25z m233 -37 c0 -18 -6 -30
-17 -33 -10 -3 -26 -10 -35 -15 -30 -15 -48 -10 -59 17 -5 15 -8 28 -7 29 2 1
26 14 53 28 54 27 65 23 65 -26z m-254 -89 c-3 -13 -6 -29 -6 -35 0 -7 -8 -13
-18 -13 -15 0 -18 8 -18 35 1 30 4 35 25 35 19 0 22 -4 17 -22z m268 -71 c-6
-83 -28 -157 -46 -157 -5 0 -8 -7 -8 -15 0 -7 -6 -18 -13 -22 -31 -19 -46 -59
-37 -98 5 -23 5 -46 -1 -56 -12 -23 -12 -69 1 -69 6 0 10 -4 10 -10 0 -5 -14
-10 -31 -10 -24 0 -29 4 -26 18 17 60 16 93 -3 144 -20 53 -26 99 -13 111 9
10 39 97 46 137 6 30 15 39 59 60 29 14 56 22 59 17 3 -4 4 -27 3 -50z m-174
-33 c0 -15 -23 -44 -34 -44 -12 0 -6 48 7 53 21 9 27 7 27 -9z m-120 -16 c0
-13 11 -50 25 -82 23 -56 23 -61 8 -89 -16 -32 -37 -57 -47 -57 -3 0 -6 56 -6
125 0 77 4 125 10 125 6 0 10 -10 10 -22z m88 -250 c-4 -27 -28 -36 -28 -10 0
20 8 32 22 32 5 0 8 -10 6 -22z m272 -108 c0 -50 -1 -51 -27 -46 -16 2 -38 5
-50 5 -32 1 -29 13 13 55 50 50 64 47 64 -14z m-316 -15 c4 -11 -1 -15 -19
-15 -24 0 -32 10 -18 23 11 12 31 8 37 -8z m171 -35 c3 -5 1 -10 -4 -10 -6 0
-11 5 -11 10 0 6 2 10 4 10 3 0 8 -4 11 -10z m170 -30 c3 -5 4 -14 0 -20 -8
-13 -35 -1 -35 16 0 16 26 19 35 4z"/>
</g>
</svg>
