<svg version="1.0" xmlns="http://www.w3.org/2000/svg"
 width="64.000000pt" height="76.000000pt" viewBox="0 0 64.000000 76.000000"
 preserveAspectRatio="xMidYMid meet">
<metadata>
Created by potrace 1.15, written by Peter Selinger 2001-2017
</metadata>
<g transform="translate(0.000000,76.000000) scale(0.100000,-0.100000)"
fill="#000000" stroke="none">
<path d="M299 686 c-7 -16 -23 -26 -43 -30 -47 -9 -113 -62 -137 -109 -29 -55
-20 -131 22 -183 42 -53 39 -72 -13 -76 -30 -2 -43 -8 -43 -18 0 -11 14 -16
54 -18 53 -3 53 -3 46 -60 -7 -57 -31 -103 -68 -133 -35 -29 -15 -42 23 -14
50 37 87 98 95 155 7 50 7 50 45 50 20 0 58 3 82 6 45 6 45 6 58 -47 7 -30 18
-61 25 -69 6 -8 22 -36 34 -63 13 -26 29 -47 37 -47 20 0 18 42 -4 71 -30 41
-74 137 -67 148 3 6 18 11 33 11 42 0 72 11 72 26 0 10 -13 14 -45 14 -46 0
-46 0 -31 28 8 16 22 34 30 41 24 20 37 82 30 137 -9 66 -77 137 -148 155 -32
8 -50 18 -54 31 -6 25 -20 23 -33 -6z m83 -65 c47 -18 99 -74 109 -118 8 -36
5 -53 -16 -109 -14 -37 -30 -73 -36 -81 -8 -9 -40 -13 -113 -13 -101 1 -101 1
-137 63 -66 113 -62 161 20 214 70 46 129 61 173 44z"/>
<path d="M290 570 c-82 -20 -123 -133 -64 -179 29 -23 69 -26 126 -11 39 11
88 60 88 89 0 32 -31 81 -60 96 -32 16 -39 17 -90 5z m94 -52 c27 -38 20 -76
-16 -98 -78 -47 -163 3 -129 76 21 47 118 61 145 22z"/>
<path d="M297 493 c-4 -3 -7 -17 -7 -30 0 -26 30 -32 49 -9 22 27 -18 64 -42
39z"/>
</g>
</svg>
