<svg version="1.0" xmlns="http://www.w3.org/2000/svg"
 width="70.000000pt" height="95.000000pt" viewBox="0 0 70.000000 95.000000"
 preserveAspectRatio="xMidYMid meet">
<metadata>
Created by potrace 1.15, written by Peter Selinger 2001-2017
</metadata>
<g transform="translate(0.000000,95.000000) scale(0.100000,-0.100000)"
fill="#000000" stroke="none">
<path d="M457 753 c-12 -11 -7 -79 7 -98 19 -26 149 -29 154 -3 3 14 -6 17
-55 20 -58 3 -58 3 -55 37 2 20 -2 37 -10 42 -16 10 -32 11 -41 2z"/>
<path d="M300 670 c0 -80 0 -80 -125 -80 -69 0 -125 -4 -125 -8 0 -17 25 -32
54 -32 30 0 30 0 10 -15 -12 -8 -27 -28 -34 -44 -10 -25 -9 -35 3 -61 11 -22
13 -38 7 -58 -5 -15 -11 -82 -13 -150 -3 -98 -1 -126 10 -138 8 -8 19 -12 24
-9 5 4 9 59 9 124 0 65 3 132 6 148 5 28 8 29 56 29 38 -1 53 3 64 18 31 43
-2 75 -37 37 -11 -11 -24 -21 -29 -21 -20 0 -9 27 20 48 17 13 30 29 30 37 0
29 -23 26 -59 -9 -20 -20 -40 -36 -44 -36 -13 0 -7 38 9 51 8 7 13 21 10 32
-5 19 2 19 232 16 130 -2 238 -1 240 4 7 22 -4 27 -61 27 -35 0 -98 3 -140 6
-76 7 -76 7 -70 70 6 65 -4 94 -33 94 -11 0 -14 -19 -14 -80z"/>
<path d="M158 708 c-3 -32 -5 -33 -41 -30 -42 4 -59 -17 -36 -44 10 -12 25
-15 56 -11 60 6 75 21 71 71 -2 33 -7 42 -25 44 -18 3 -22 -2 -25 -30z"/>
<path d="M534 509 c-3 -6 -1 -16 5 -22 13 -13 15 -27 4 -27 -5 0 -21 11 -37
25 -16 14 -33 25 -38 25 -17 0 -7 -27 18 -51 14 -13 30 -32 35 -41 15 -27 -15
-23 -47 7 -48 45 -64 19 -18 -30 20 -21 31 -26 54 -22 38 8 41 -2 49 -150 3
-67 9 -125 13 -128 4 -4 14 -5 23 -2 11 5 15 22 15 72 0 73 -16 198 -29 230
-6 14 -4 27 5 40 19 26 18 49 -4 68 -21 20 -38 22 -48 6z"/>
<path d="M317 454 c-4 -4 -7 -15 -7 -25 0 -10 -13 -25 -30 -34 -44 -23 -37
-81 12 -97 23 -8 -1 -38 -30 -38 -35 0 -55 -20 -50 -51 3 -24 18 -35 61 -44
46 -9 34 -35 -17 -35 -55 0 -78 -20 -74 -64 4 -43 33 -47 41 -6 6 27 10 30 47
30 38 0 40 -2 40 -30 0 -16 4 -30 8 -30 15 0 42 36 42 54 0 14 7 17 37 14 33
-3 39 -7 43 -33 4 -22 11 -31 28 -33 20 -3 22 1 22 37 0 50 -26 71 -87 71 -32
0 -43 4 -43 15 0 9 10 15 26 15 39 0 64 18 64 46 0 45 -17 65 -55 62 -46 -4
-49 15 -5 22 46 8 60 17 60 38 0 32 -29 62 -60 62 -24 0 -29 5 -32 27 -3 27
-26 41 -41 27z m72 -83 c12 -8 12 -12 2 -25 -16 -20 -69 -20 -94 -2 -18 14
-18 15 0 25 22 13 73 14 92 2z m5 -142 c13 -11 -37 -29 -82 -29 -39 0 -71 14
-60 26 22 21 120 24 142 3z"/>
</g>
</svg>
