<svg version="1.0" xmlns="http://www.w3.org/2000/svg"
 width="77.000000pt" height="101.000000pt" viewBox="0 0 77.000000 101.000000"
 preserveAspectRatio="xMidYMid meet">
<metadata>
Created by potrace 1.15, written by Peter Selinger 2001-2017
</metadata>
<g transform="translate(0.000000,101.000000) scale(0.100000,-0.100000)"
fill="#000000" stroke="none">
<path d="M317 783 c-4 -3 -7 -16 -7 -28 0 -19 -9 -23 -64 -33 -35 -7 -76 -12
-92 -12 -16 0 -40 -7 -53 -16 -22 -16 -23 -20 -17 -123 3 -58 9 -140 12 -182
3 -44 1 -105 -6 -145 -22 -129 -24 -174 -8 -174 52 0 69 204 42 506 -7 71 -7
71 39 93 43 21 50 21 179 12 73 -6 166 -13 206 -16 62 -5 73 -3 79 11 4 11 -2
23 -18 35 -20 16 -43 19 -138 19 -100 0 -112 2 -101 15 10 12 10 18 0 30 -13
16 -42 20 -53 8z"/>
<path d="M294 643 c-7 -38 -35 -44 -66 -16 -10 9 -21 13 -26 9 -11 -12 37 -46
64 -46 23 0 24 -3 24 -70 0 -70 0 -70 -34 -70 -44 0 -58 -19 -54 -72 3 -40 6
-45 45 -63 60 -28 55 -45 -12 -45 -56 0 -67 -8 -40 -30 12 -10 24 -10 54 -1
49 14 51 14 51 -6 0 -9 12 -32 26 -50 26 -35 26 -35 -20 -82 -45 -45 -57 -71
-35 -71 14 0 109 91 109 105 0 6 -11 27 -25 47 -14 20 -25 42 -25 47 0 6 22
11 51 11 73 0 60 24 -14 28 -42 2 -57 7 -57 17 0 10 11 15 31 15 57 0 69 14
69 80 0 65 -12 80 -64 80 -25 0 -26 2 -26 64 0 64 0 64 40 80 28 11 40 22 40
36 0 27 -12 25 -40 -5 -28 -29 -40 -32 -40 -7 0 9 -5 24 -10 32 -7 12 -11 8
-16 -17z m67 -223 c36 -20 19 -30 -51 -30 -52 0 -70 3 -70 13 0 8 3 17 7 20
10 11 92 8 114 -3z m19 -59 c0 -30 -81 -49 -115 -27 -41 27 -29 36 45 36 39 0
70 -4 70 -9z"/>
<path d="M487 592 c-20 -21 -37 -43 -37 -49 0 -21 29 -14 52 12 26 30 49 32
73 5 19 -22 40 -26 50 -10 5 8 -82 81 -95 79 -3 -1 -22 -17 -43 -37z"/>
<path d="M376 586 c-24 -38 -21 -82 9 -102 38 -25 51 -7 19 27 -28 29 -28 29
-5 52 18 20 19 26 8 36 -12 9 -18 6 -31 -13z"/>
<path d="M185 560 c-10 -16 4 -30 31 -30 37 0 28 -33 -11 -41 -24 -5 -26 -7
-13 -13 9 -4 27 -6 40 -4 30 4 39 65 12 85 -21 15 -50 17 -59 3z"/>
<path d="M512 510 c-16 -25 1 -55 40 -72 22 -10 30 -25 44 -75 9 -35 14 -72
10 -85 -13 -40 -34 -163 -29 -168 2 -2 11 0 20 6 11 7 24 44 36 100 25 117 14
177 -43 234 -21 21 -40 46 -42 56 -5 25 -21 27 -36 4z"/>
<path d="M460 412 c0 -5 7 -17 15 -28 8 -10 15 -36 15 -56 0 -46 -21 -138 -32
-138 -4 0 -8 -9 -8 -20 0 -30 16 -24 39 15 11 19 25 35 31 35 19 0 23 -30 6
-49 -20 -21 -20 -31 -3 -31 22 0 47 34 47 63 0 22 -6 27 -35 33 -47 9 -39 28
13 32 61 5 49 32 -14 32 -42 0 -29 29 16 36 41 7 44 11 34 38 -8 20 -24 21
-24 1 0 -9 -9 -15 -23 -15 -16 0 -26 9 -34 30 -10 26 -43 43 -43 22z"/>
</g>
</svg>
