<svg version="1.0" xmlns="http://www.w3.org/2000/svg"
 width="76.000000pt" height="87.000000pt" viewBox="0 0 76.000000 87.000000"
 preserveAspectRatio="xMidYMid meet">
<metadata>
Created by potrace 1.15, written by Peter Selinger 2001-2017
</metadata>
<g transform="translate(0.000000,87.000000) scale(0.100000,-0.100000)"
fill="#000000" stroke="none">
<path d="M330 736 c-121 -23 -134 -30 -158 -89 -19 -46 -22 -71 -22 -192 1
-159 -9 -209 -64 -311 -41 -77 -34 -105 11 -47 43 54 49 67 79 184 24 89 27
121 25 221 -2 138 6 159 72 177 65 17 166 31 230 31 44 0 57 3 57 15 0 9 -9
15 -24 15 -12 0 -50 2 -82 4 -32 3 -88 -1 -124 -8z"/>
<path d="M524 675 c-3 -14 -4 -39 0 -55 6 -33 -12 -41 -34 -15 -14 17 -40 20
-40 6 0 -23 14 -42 46 -62 40 -24 41 -31 13 -58 -54 -50 -64 -118 -23 -150 15
-12 33 -21 40 -21 24 0 15 -28 -16 -50 -19 -14 -33 -36 -40 -63 -27 -102 -42
-147 -48 -147 -17 0 -19 182 -3 245 7 28 17 69 23 93 8 31 7 58 -2 101 -12 57
-10 112 5 159 14 42 -16 23 -36 -23 -18 -41 -19 -52 -8 -99 13 -60 9 -126 -15
-231 -22 -94 -13 -271 15 -285 23 -13 66 37 74 88 15 87 36 132 61 132 11 0
14 -21 14 -96 0 -72 3 -95 13 -92 8 3 13 34 15 97 2 81 5 92 20 89 14 -3 18
-18 23 -75 4 -58 10 -78 29 -98 13 -14 29 -25 37 -25 17 0 17 4 -7 42 -14 24
-20 51 -20 96 0 66 -7 78 -71 124 -24 16 -24 16 2 26 37 15 69 59 69 97 0 35
-19 58 -63 74 -39 15 -34 40 18 89 25 23 45 47 45 52 0 18 -26 10 -50 -15 -30
-31 -40 -32 -40 -1 0 33 -17 76 -30 76 -5 0 -12 -11 -16 -25z m79 -219 c28
-21 22 -63 -13 -81 -40 -20 -63 -19 -86 6 -17 18 -17 23 -4 47 13 23 42 38 75
41 6 0 18 -6 28 -13z"/>
<path d="M534 435 c-9 -22 22 -53 37 -38 15 15 7 47 -14 51 -9 2 -20 -4 -23
-13z"/>
<path d="M335 620 c-15 -33 -17 -55 -11 -133 4 -70 2 -106 -9 -143 -22 -73
-30 -195 -15 -224 7 -13 13 -33 14 -44 1 -11 7 -21 14 -24 10 -3 12 4 5 34
-13 64 -6 158 17 237 19 65 21 81 11 126 -15 71 -14 131 4 165 19 35 19 46 2
46 -8 0 -22 -18 -32 -40z"/>
<path d="M245 584 c-19 -45 -19 -77 0 -131 14 -40 13 -47 -10 -112 -14 -37
-28 -88 -31 -112 -6 -49 25 -183 41 -177 12 3 11 16 -2 116 -9 68 -8 77 19
145 32 82 35 125 12 168 -12 25 -13 40 -5 80 13 61 13 59 1 59 -5 0 -17 -16
-25 -36z"/>
</g>
</svg>
