<svg version="1.0" xmlns="http://www.w3.org/2000/svg"
 width="64.000000pt" height="76.000000pt" viewBox="0 0 64.000000 76.000000"
 preserveAspectRatio="xMidYMid meet">
<metadata>
Created by potrace 1.15, written by Peter Selinger 2001-2017
</metadata>
<g transform="translate(0.000000,76.000000) scale(0.100000,-0.100000)"
fill="#000000" stroke="none">
<path d="M443 642 c-6 -4 -14 -39 -18 -79 -7 -71 -7 -71 -69 -75 -33 -2 -62
-3 -63 -3 -2 1 -7 30 -11 64 -8 58 -25 87 -44 75 -4 -3 -5 -33 -2 -67 10 -116
-46 -345 -100 -407 -17 -19 -46 -76 -46 -90 0 -21 29 -9 55 22 15 18 42 64 60
103 84 180 76 176 71 35 -2 -69 -7 -133 -11 -142 -11 -26 24 -37 41 -13 10 14
14 56 14 151 0 133 0 133 35 136 55 5 46 22 -15 28 -51 5 -55 7 -58 33 -3 27
-3 27 66 27 70 0 70 0 74 -47 3 -37 -1 -52 -19 -73 -55 -66 -74 -326 -20 -282
10 9 16 42 19 118 3 60 10 110 16 116 9 9 12 7 12 -7 0 -31 57 -186 74 -204
14 -14 18 -14 31 0 14 14 13 23 -19 92 -19 42 -38 96 -41 120 -7 42 -6 45 29
65 47 28 46 44 -1 40 -37 -3 -38 -2 -41 35 -3 37 -3 37 46 37 37 0 51 4 56 17
9 24 -12 33 -61 26 -43 -6 -43 -6 -43 31 0 36 0 36 45 36 39 0 45 3 45 21 0
20 -4 21 -41 15 -37 -6 -40 -5 -35 12 7 22 -14 44 -31 34z"/>
<path d="M107 583 c-4 -3 -7 -14 -7 -23 0 -11 -11 -20 -30 -23 -41 -9 -40 -37
1 -37 30 0 30 -1 27 -47 -3 -46 -4 -48 -35 -51 -39 -4 -64 -29 -42 -43 8 -5
30 -6 49 -3 19 4 58 10 85 13 58 7 70 32 20 41 -22 4 -31 11 -33 29 -6 37 6
68 28 74 23 6 27 27 5 27 -8 0 -22 11 -31 25 -17 26 -26 30 -37 18z"/>
</g>
</svg>
