<svg version="1.0" xmlns="http://www.w3.org/2000/svg"
 width="69.000000pt" height="90.000000pt" viewBox="0 0 69.000000 90.000000"
 preserveAspectRatio="xMidYMid meet">
<metadata>
Created by potrace 1.15, written by Peter Selinger 2001-2017
</metadata>
<g transform="translate(0.000000,90.000000) scale(0.100000,-0.100000)"
fill="#000000" stroke="none">
<path d="M177 641 c-3 -16 -9 -81 -13 -145 -6 -100 -9 -116 -23 -114 -13 3
-17 24 -22 121 -4 65 -9 121 -12 124 -19 19 -27 -20 -27 -136 0 -138 5 -151
52 -151 27 0 28 -1 28 -55 0 -55 0 -55 -59 -55 -44 0 -60 -4 -65 -15 -3 -9 1
-18 9 -22 22 -8 222 1 232 10 11 11 -17 27 -49 27 -27 0 -28 2 -28 54 0 53 1
55 31 61 20 5 34 16 40 32 14 38 7 235 -8 241 -10 3 -13 -20 -14 -90 -1 -108
-8 -142 -32 -146 -15 -3 -17 10 -17 142 0 136 -10 185 -23 117z"/>
<path d="M580 620 c0 -41 0 -41 -37 -38 -29 2 -39 8 -42 23 -5 29 -19 35 -92
35 -44 0 -70 -5 -78 -14 -19 -23 9 -36 66 -30 28 4 53 3 55 -2 3 -5 9 -28 13
-51 7 -43 7 -43 -52 -43 -33 0 -66 -6 -75 -12 -17 -14 -38 -141 -38 -234 0
-29 -7 -80 -16 -114 -16 -65 -10 -88 20 -77 17 7 21 37 34 238 5 80 12 151 16
157 10 16 111 16 123 0 6 -7 16 -37 23 -66 11 -47 10 -58 -5 -93 -16 -34 -17
-47 -6 -108 6 -39 11 -86 11 -106 0 -23 5 -38 16 -42 30 -11 34 11 19 113 -25
167 -17 185 35 78 23 -46 37 -64 48 -62 28 5 24 33 -11 80 -52 67 -54 84 -17
103 19 10 30 23 28 32 -5 25 -25 26 -47 4 -27 -27 -27 -27 -40 10 -19 54 -16
59 38 59 28 0 52 4 55 9 11 18 -24 33 -69 29 -44 -3 -46 -2 -43 22 3 22 9 25
45 28 49 4 66 24 61 75 -2 21 -9 33 -20 35 -15 3 -18 -4 -18 -38z"/>
<path d="M355 350 c-3 -6 5 -14 18 -19 28 -11 28 -13 12 -188 -8 -82 -2 -100
23 -70 9 10 20 92 28 207 1 19 2 38 3 43 1 4 10 7 21 7 11 0 20 7 20 15 0 12
-13 15 -59 15 -33 0 -63 -5 -66 -10z"/>
</g>
</svg>
