<svg version="1.0" xmlns="http://www.w3.org/2000/svg"
 width="77.000000pt" height="97.000000pt" viewBox="0 0 77.000000 97.000000"
 preserveAspectRatio="xMidYMid meet">
<metadata>
Created by potrace 1.15, written by Peter Selinger 2001-2017
</metadata>
<g transform="translate(0.000000,97.000000) scale(0.100000,-0.100000)"
fill="#000000" stroke="none">
<path d="M556 907 c-2 -6 -9 -32 -16 -57 -7 -25 -15 -52 -18 -60 -3 -8 -7 -25
-9 -37 -6 -38 -42 -113 -53 -113 -5 0 -10 10 -11 23 -4 91 -20 152 -40 152
-11 0 -14 -16 -13 -75 1 -41 3 -86 5 -100 4 -22 0 -25 -41 -32 -111 -19 -125
-24 -125 -38 0 -17 33 -18 123 -5 28 4 52 5 52 2 0 -19 -25 -56 -48 -69 -15
-9 -40 -28 -57 -42 -16 -14 -34 -26 -39 -26 -18 0 -45 -32 -39 -46 7 -19 26
-18 68 6 35 20 35 20 35 -30 0 -49 -1 -49 -37 -59 -21 -5 -49 -11 -63 -13 -14
-2 -26 -10 -28 -19 -2 -13 8 -18 42 -23 25 -4 50 -4 56 -1 13 8 13 -83 -1
-122 -9 -27 -17 -32 -70 -43 -45 -10 -59 -17 -59 -30 0 -33 60 -33 250 0 36 7
83 15 105 18 62 11 54 36 -12 40 -29 2 -53 5 -53 8 0 2 8 12 18 22 38 41 54
66 84 128 17 35 32 64 34 64 7 0 49 -24 54 -31 6 -8 70 -22 70 -16 0 3 -26 30
-57 60 -58 56 -58 56 -55 117 3 58 -7 90 -29 90 -5 0 -9 -22 -9 -50 0 -27 -4
-50 -8 -50 -15 0 -72 78 -72 98 0 30 20 39 83 37 47 -1 57 2 57 16 0 19 -20
29 -55 29 -31 0 -38 12 -24 47 38 95 51 226 24 237 -9 3 -17 0 -19 -7z m-75
-455 c12 -21 33 -47 47 -59 24 -20 24 -23 12 -55 -19 -45 -74 -138 -99 -167
-11 -13 -23 -32 -26 -42 -4 -13 -16 -19 -36 -19 -26 0 -29 3 -29 33 0 31 17
89 33 115 5 6 16 12 27 12 18 0 34 23 23 34 -4 3 -15 6 -25 6 -20 0 -20 0 -18
89 1 51 6 69 22 82 26 23 43 16 69 -29z"/>
<path d="M500 360 c0 -5 5 -10 10 -10 6 0 10 5 10 10 0 6 -4 10 -10 10 -5 0
-10 -4 -10 -10z"/>
<path d="M159 840 c-1 -3 -2 -108 -4 -235 -2 -205 -4 -238 -25 -305 -12 -41
-25 -79 -29 -85 -15 -21 -33 -94 -28 -109 10 -26 23 -19 56 32 59 92 81 198
81 388 0 145 -16 282 -37 304 -7 8 -13 12 -14 10z"/>
</g>
</svg>
