<svg version="1.0" xmlns="http://www.w3.org/2000/svg"
 width="70.000000pt" height="91.000000pt" viewBox="0 0 70.000000 91.000000"
 preserveAspectRatio="xMidYMid meet">
<metadata>
Created by potrace 1.15, written by Peter Selinger 2001-2017
</metadata>
<g transform="translate(0.000000,91.000000) scale(0.100000,-0.100000)"
fill="#000000" stroke="none">
<path d="M337 693 c-4 -3 -7 -16 -7 -29 0 -32 -10 -54 -25 -54 -29 0 -124 -51
-148 -80 -42 -49 -68 -154 -87 -350 -4 -47 -11 -97 -15 -111 -8 -32 17 -58 39
-40 19 16 43 135 50 248 8 137 44 219 102 237 20 6 21 4 14 -41 -5 -27 -13
-111 -20 -188 -6 -77 -13 -160 -15 -185 -5 -50 5 -76 27 -67 11 4 18 40 27
144 6 76 16 172 21 213 6 41 10 91 10 110 0 51 11 62 56 58 39 -3 39 -3 39
-258 0 -252 0 -255 21 -258 30 -4 34 30 34 281 0 118 4 207 9 207 11 0 64 -66
77 -95 4 -11 11 -103 14 -205 5 -176 6 -185 25 -185 26 0 35 52 38 225 2 116
-1 141 -17 175 -42 86 -105 144 -177 162 -34 9 -44 21 -54 66 -5 25 -23 35
-38 20z"/>
</g>
</svg>
