<svg version="1.0" xmlns="http://www.w3.org/2000/svg"
 width="47.000000pt" height="69.000000pt" viewBox="0 0 47.000000 69.000000"
 preserveAspectRatio="xMidYMid meet">
<metadata>
Created by potrace 1.15, written by Peter Selinger 2001-2017
</metadata>
<g transform="translate(0.000000,69.000000) scale(0.100000,-0.100000)"
fill="#000000" stroke="none">
<path d="M195 503 c-4 -32 -18 -76 -31 -98 -13 -22 -26 -48 -30 -57 -3 -10
-10 -18 -15 -18 -5 0 -9 -7 -9 -15 0 -24 20 -17 57 20 19 19 37 35 39 35 10 0
3 -92 -8 -110 -11 -17 -10 -22 1 -29 11 -7 6 -23 -23 -80 -24 -48 -32 -71 -23
-71 18 0 57 34 57 49 0 7 8 21 19 32 19 20 19 20 42 -13 13 -18 28 -38 34 -43
15 -15 65 -46 65 -41 0 3 -14 29 -30 58 -17 29 -36 64 -42 78 -6 14 -19 41
-29 61 -11 20 -19 44 -19 53 0 18 25 22 35 6 10 -15 45 -12 45 5 0 8 -9 19
-20 25 -11 6 -20 16 -20 23 0 7 -9 23 -20 37 -11 14 -20 38 -20 54 0 40 -21
96 -36 96 -7 0 -15 -23 -19 -57z"/>
</g>
</svg>
