<svg version="1.0" xmlns="http://www.w3.org/2000/svg"
 width="49.000000pt" height="97.000000pt" viewBox="0 0 49.000000 97.000000"
 preserveAspectRatio="xMidYMid meet">
<metadata>
Created by potrace 1.15, written by Peter Selinger 2001-2017
</metadata>
<g transform="translate(0.000000,97.000000) scale(0.100000,-0.100000)"
fill="#000000" stroke="none">
<path d="M205 790 c-3 -5 -3 -44 0 -87 5 -73 -7 -133 -27 -133 -5 0 -8 -6 -8
-13 0 -7 -22 -39 -50 -72 -28 -33 -50 -62 -50 -66 0 -29 53 -3 90 44 12 15 28
27 36 27 27 0 -2 -117 -44 -178 -27 -38 -42 -109 -42 -191 0 -61 2 -71 18 -71
33 0 41 15 45 91 4 78 38 169 62 169 7 0 18 -28 25 -62 7 -35 18 -66 24 -70 8
-5 7 -8 -1 -8 -15 0 -17 -67 -4 -89 8 -12 12 -12 24 -3 12 10 14 34 10 118 -4
89 -8 113 -29 150 -26 46 -30 114 -9 121 6 2 26 -28 45 -67 39 -78 65 -94 54
-32 -11 59 -31 98 -72 142 -39 40 -39 40 -46 152 -6 103 -15 138 -37 138 -4 0
-11 -4 -14 -10z"/>
</g>
</svg>
