<svg version="1.0" xmlns="http://www.w3.org/2000/svg"
 width="37.000000pt" height="85.000000pt" viewBox="0 0 37.000000 85.000000"
 preserveAspectRatio="xMidYMid meet">
<metadata>
Created by potrace 1.15, written by Peter Selinger 2001-2017
</metadata>
<g transform="translate(0.000000,85.000000) scale(0.100000,-0.100000)"
fill="#000000" stroke="none">
<path d="M186 642 c-4 -6 -8 -43 -10 -83 -3 -53 -9 -76 -24 -92 -25 -28 -55
-87 -48 -95 3 -3 18 0 32 7 35 16 40 9 17 -25 -23 -35 -39 -132 -35 -202 6
-78 26 -61 30 24 1 38 10 85 19 104 16 35 16 35 25 5 5 -16 9 -57 9 -90 1 -92
29 -126 43 -52 6 31 -6 174 -20 242 -6 30 -6 30 30 -7 36 -38 56 -48 56 -28 0
6 -13 24 -30 42 -16 17 -30 41 -30 52 0 12 -5 27 -11 33 -9 9 -15 71 -9 98 6
27 -32 86 -44 67z"/>
</g>
</svg>
