<svg version="1.0" xmlns="http://www.w3.org/2000/svg"
 width="59.000000pt" height="97.000000pt" viewBox="0 0 59.000000 97.000000"
 preserveAspectRatio="xMidYMid meet">
<metadata>
Created by potrace 1.15, written by Peter Selinger 2001-2017
</metadata>
<g transform="translate(0.000000,97.000000) scale(0.100000,-0.100000)"
fill="#000000" stroke="none">
<path d="M330 858 c-2 -71 -39 -160 -81 -198 -19 -18 -119 -169 -119 -181 0
-4 5 -11 10 -14 20 -12 45 6 68 48 27 52 79 117 93 117 17 0 3 -135 -17 -166
-10 -16 -21 -31 -25 -34 -14 -10 -48 -97 -58 -148 -19 -92 -13 -212 10 -212
18 0 33 49 40 135 4 50 13 106 18 126 12 39 47 86 57 76 3 -3 6 -80 5 -170 -1
-132 1 -166 13 -176 16 -14 21 -8 29 34 25 127 27 308 4 352 -19 35 -22 90 -7
113 11 17 9 18 41 -43 13 -27 36 -63 51 -80 27 -32 27 -32 27 3 1 34 -19 103
-32 116 -4 4 -7 18 -7 31 0 12 -4 23 -10 23 -5 0 -10 6 -10 14 0 7 -13 27 -30
44 -26 28 -30 39 -30 91 0 33 -4 71 -10 85 -10 27 -30 35 -30 14z"/>
</g>
</svg>
