<svg version="1.0" xmlns="http://www.w3.org/2000/svg"
 width="77.000000pt" height="91.000000pt" viewBox="0 0 77.000000 91.000000"
 preserveAspectRatio="xMidYMid meet">
<metadata>
Created by potrace 1.15, written by Peter Selinger 2001-2017
</metadata>
<g transform="translate(0.000000,91.000000) scale(0.100000,-0.100000)"
fill="#000000" stroke="none">
<path d="M353 620 c-6 -23 -96 -92 -149 -115 -45 -19 -74 -43 -74 -62 0 -19
33 -16 61 5 13 10 61 40 107 66 83 47 83 47 128 21 24 -14 44 -29 44 -33 0 -4
25 -23 55 -41 49 -30 85 -36 85 -13 0 9 -121 92 -134 92 -18 0 -75 53 -80 75
-8 30 -36 33 -43 5z"/>
<path d="M260 445 c0 -8 9 -15 20 -15 15 0 20 -7 20 -29 0 -32 -13 -46 -52
-56 -15 -4 -39 -18 -54 -31 -25 -24 -26 -28 -22 -124 3 -96 4 -101 34 -131 38
-38 93 -50 187 -42 112 10 144 51 154 197 5 73 3 84 -17 109 -18 22 -29 27
-66 27 -44 0 -44 0 -44 35 0 28 5 38 25 47 46 21 26 28 -80 28 -87 0 -105 -3
-105 -15z m130 -50 c0 -32 -2 -35 -30 -35 -28 0 -30 3 -30 35 0 32 2 35 30 35
28 0 30 -3 30 -35z m4 -97 c3 -13 8 -40 11 -60 5 -34 19 -50 94 -105 10 -7
-20 -53 -35 -53 -9 0 -32 14 -51 30 -41 37 -64 37 -125 5 -59 -31 -68 -31 -68
-1 0 17 11 31 35 46 47 29 65 57 65 100 0 42 14 60 47 60 15 0 24 -7 27 -22z
m-106 -30 c2 -26 -4 -43 -23 -67 -41 -47 -55 -41 -55 24 0 49 3 56 28 69 37
21 46 16 50 -26z m216 20 c11 -43 7 -98 -8 -98 -23 0 -66 59 -66 91 0 26 3 29
34 29 26 0 35 -5 40 -22z m-111 -206 c23 -25 13 -32 -50 -32 -59 0 -67 14 -22
37 33 18 53 16 72 -5z"/>
</g>
</svg>
