<svg version="1.0" xmlns="http://www.w3.org/2000/svg"
 width="64.000000pt" height="78.000000pt" viewBox="0 0 64.000000 78.000000"
 preserveAspectRatio="xMidYMid meet">
<metadata>
Created by potrace 1.15, written by Peter Selinger 2001-2017
</metadata>
<g transform="translate(0.000000,78.000000) scale(0.100000,-0.100000)"
fill="#000000" stroke="none">
<path d="M295 663 c-83 -5 -105 -20 -105 -73 0 -43 12 -57 55 -62 29 -3 30 -4
33 -65 3 -63 3 -63 -60 -56 -35 3 -65 8 -67 10 -3 2 -5 54 -6 116 -1 112 -1
112 -29 115 -29 4 -29 4 -24 -110 3 -69 10 -125 19 -143 13 -29 18 -30 89 -35
73 -5 75 -6 78 -32 3 -27 3 -27 -105 -30 -88 -2 -108 -6 -108 -18 0 -11 13
-16 45 -17 25 -2 73 -5 108 -9 61 -5 62 -6 62 -35 0 -29 0 -29 -103 -29 -57 0
-106 -3 -110 -6 -3 -3 -3 -12 0 -20 4 -10 26 -14 85 -14 79 0 79 0 76 -32 -3
-33 -3 -33 -80 -36 -59 -2 -78 -6 -78 -17 0 -26 37 -36 105 -29 80 8 95 19
102 72 6 41 6 42 44 42 37 0 39 -2 45 -39 3 -21 9 -43 13 -48 3 -6 55 -13 114
-16 89 -4 109 -2 114 9 9 24 -5 29 -105 34 -97 5 -97 5 -100 32 -4 32 8 36
103 40 46 2 60 7 60 18 0 12 -20 16 -113 18 -113 3 -113 3 -110 30 3 27 3 27
108 32 89 4 105 8 108 23 3 15 -7 17 -107 17 -111 0 -111 0 -111 29 0 29 0 29
104 33 57 1 108 6 111 10 4 4 5 14 2 23 -5 12 -27 15 -117 15 -101 0 -111 2
-108 18 3 14 17 18 73 22 84 6 122 28 129 73 15 99 16 120 5 133 -25 30 -36
15 -41 -57 -3 -42 -11 -77 -20 -85 -20 -20 -152 -32 -146 -13 2 7 22 17 43 21
54 12 75 33 75 79 0 45 -21 70 -58 67 -15 -1 -58 -4 -97 -5z m110 -43 c11 -18
-6 -51 -31 -60 -32 -13 -111 -1 -131 18 -14 14 -13 18 7 34 25 20 144 26 155
8z"/>
</g>
</svg>
