<svg version="1.0" xmlns="http://www.w3.org/2000/svg"
 width="73.000000pt" height="121.000000pt" viewBox="0 0 73.000000 121.000000"
 preserveAspectRatio="xMidYMid meet">
<metadata>
Created by potrace 1.15, written by Peter Selinger 2001-2017
</metadata>
<g transform="translate(0.000000,121.000000) scale(0.100000,-0.100000)"
fill="#000000" stroke="none">
<path d="M447 1063 c-4 -4 -4 -22 -1 -41 8 -41 -4 -52 -57 -52 -34 0 -38 4
-53 40 -15 38 -38 51 -51 30 -3 -5 -7 -40 -9 -77 -5 -123 47 -213 126 -213 20
0 40 5 43 10 3 6 15 10 26 10 10 0 19 2 19 4 0 3 7 38 16 78 8 40 17 96 19
124 3 45 1 54 -21 73 -25 21 -45 27 -57 14z m-11 -169 c-3 -9 -6 -21 -6 -27 0
-7 -9 -23 -19 -37 -19 -24 -20 -24 -40 -6 -26 24 -28 73 -3 79 9 3 30 5 46 6
22 1 27 -3 22 -15z"/>
<path d="M50 675 c-7 -9 -11 -17 -9 -18 17 -11 61 -28 99 -37 90 -23 125 -34
135 -42 5 -4 19 -8 30 -8 12 0 31 -11 44 -24 22 -23 22 -23 -3 -40 -14 -9 -28
-16 -32 -16 -13 0 -114 -80 -114 -91 0 -19 32 -21 71 -4 21 10 39 21 39 24 0
3 15 12 33 19 17 7 40 17 49 22 9 5 19 6 22 2 11 -18 8 -159 -5 -187 -17 -38
-77 -134 -95 -152 -8 -8 -14 -28 -14 -44 0 -24 4 -29 25 -29 14 0 25 5 25 10
0 6 7 10 15 10 8 0 18 12 21 26 4 14 25 44 46 65 40 40 40 40 114 -36 86 -87
113 -96 104 -36 -1 12 -35 66 -50 81 -3 3 -16 22 -30 42 -14 21 -28 38 -32 38
-5 0 -8 9 -8 19 0 11 -5 21 -11 23 -12 4 -22 112 -13 141 5 16 13 18 52 13
105 -12 123 -13 128 -5 11 19 -8 47 -34 52 -87 16 -162 46 -196 79 -19 19 -55
41 -78 48 -24 8 -47 17 -53 21 -5 3 -23 9 -40 12 -16 2 -56 12 -88 21 -73 20
-131 21 -147 1z"/>
</g>
</svg>
