<svg version="1.0" xmlns="http://www.w3.org/2000/svg"
 width="49.000000pt" height="83.000000pt" viewBox="0 0 49.000000 83.000000"
 preserveAspectRatio="xMidYMid meet">
<metadata>
Created by potrace 1.15, written by Peter Selinger 2001-2017
</metadata>
<g transform="translate(0.000000,83.000000) scale(0.100000,-0.100000)"
fill="#000000" stroke="none">
<path d="M131 640 c-31 -19 -21 -230 10 -230 5 0 9 5 9 10 0 6 5 10 10 10 6 0
10 -9 10 -20 0 -11 4 -20 9 -20 17 0 19 -29 5 -82 -15 -59 -19 -178 -5 -178
14 0 23 31 27 100 6 92 19 120 57 120 29 0 30 0 23 -42 -16 -108 -18 -175 -7
-183 20 -12 23 0 29 95 2 49 7 90 10 90 25 0 43 -84 20 -93 -9 -3 -8 -9 5 -18
9 -8 21 -27 25 -43 5 -16 14 -32 20 -34 16 -5 5 129 -15 175 -12 31 -57 83
-71 83 -4 0 -13 4 -21 9 -25 16 6 41 50 41 22 0 39 4 39 9 0 17 -70 37 -125
36 -30 0 -55 3 -55 6 0 4 -9 9 -20 12 -11 3 -20 14 -20 24 0 17 6 19 63 15
103 -7 172 -26 175 -48 6 -37 25 -75 36 -71 13 5 9 126 -6 144 -5 6 -8 17 -7
25 5 38 4 39 -116 53 -100 13 -150 14 -164 5z m247 -63 c6 -5 12 -16 12 -23 0
-13 -42 -11 -80 4 -8 3 -48 8 -89 11 -48 4 -76 11 -79 19 -3 11 18 12 109 6
63 -4 120 -11 127 -17z m-128 -148 c0 -16 -32 -23 -40 -8 -5 7 -7 16 -4 20 6
10 44 -1 44 -12z"/>
</g>
</svg>
