<svg version="1.0" xmlns="http://www.w3.org/2000/svg"
 width="67.000000pt" height="81.000000pt" viewBox="0 0 67.000000 81.000000"
 preserveAspectRatio="xMidYMid meet">
<metadata>
Created by potrace 1.15, written by Peter Selinger 2001-2017
</metadata>
<g transform="translate(0.000000,81.000000) scale(0.100000,-0.100000)"
fill="#000000" stroke="none">
<path d="M207 644 c-4 -4 -7 -52 -7 -106 0 -91 -1 -98 -20 -98 -21 0 -28 25
-32 115 -3 43 -6 50 -26 53 -13 2 -25 -3 -28 -13 -8 -20 15 -176 29 -192 5 -7
25 -13 43 -13 33 0 34 -1 34 -40 0 -40 0 -40 -54 -40 -40 0 -55 -4 -60 -16
-10 -27 3 -34 60 -34 51 0 54 -1 54 -25 0 -24 -3 -25 -55 -25 -48 0 -55 -2
-55 -20 0 -18 7 -20 54 -20 49 0 54 -2 60 -25 4 -14 4 -30 1 -35 -4 -6 -38
-10 -76 -10 -54 0 -71 -3 -76 -16 -3 -8 1 -21 8 -29 18 -17 282 -6 301 13 17
17 6 23 -54 31 -53 6 -53 6 -56 82 -3 76 -3 76 38 82 48 6 55 11 47 32 -4 10
-20 15 -47 15 -41 0 -41 0 -38 36 3 38 14 49 60 58 25 6 27 10 33 78 10 103 5
132 -22 136 -21 3 -22 0 -25 -85 -3 -80 -5 -88 -23 -88 -19 0 -20 7 -20 100 0
93 -1 100 -20 103 -12 2 -24 0 -28 -4z"/>
<path d="M440 601 c-31 -4 -45 -11 -45 -21 0 -12 17 -16 78 -18 77 -3 77 -3
77 -47 0 -45 0 -45 -73 -45 -43 0 -78 -5 -85 -12 -18 -18 -16 -128 3 -128 18
0 35 31 35 64 0 20 5 26 23 28 90 7 107 -5 107 -73 0 -26 -4 -50 -9 -53 -5 -4
-44 -9 -86 -13 -62 -5 -75 -9 -73 -22 3 -13 19 -17 81 -19 77 -3 77 -3 77
-113 0 -92 3 -111 16 -116 38 -14 42 16 37 299 -2 173 -8 277 -15 285 -11 13
-66 15 -148 4z"/>
</g>
</svg>
