<svg version="1.0" xmlns="http://www.w3.org/2000/svg"
 width="76.000000pt" height="115.000000pt" viewBox="0 0 76.000000 115.000000"
 preserveAspectRatio="xMidYMid meet">
<metadata>
Created by potrace 1.15, written by Peter Selinger 2001-2017
</metadata>
<g transform="translate(0.000000,115.000000) scale(0.100000,-0.100000)"
fill="#000000" stroke="none">
<path d="M138 923 c-3 -107 -3 -107 -38 -118 -87 -26 -104 -62 -24 -51 44 6
44 6 44 -27 0 -45 -52 -208 -78 -245 -20 -27 -30 -72 -17 -72 15 0 95 100 95
118 0 5 7 26 15 46 14 33 17 35 40 24 14 -6 25 -19 25 -28 0 -9 5 -21 11 -27
11 -11 -29 -148 -56 -189 -15 -24 -26 -201 -18 -278 6 -48 27 -66 50 -44 10
10 10 22 3 48 -12 43 -13 224 -1 248 44 86 65 145 69 192 4 50 1 58 -24 83
-15 15 -38 30 -51 33 -26 7 -29 26 -12 104 8 38 15 50 29 50 13 0 20 -11 25
-37 11 -59 35 -103 56 -103 22 0 26 38 8 72 -14 26 -13 149 2 182 7 14 9 32 5
41 -10 26 -32 2 -47 -51 -14 -45 -40 -71 -59 -59 -6 3 -10 49 -10 101 0 87 -2
94 -20 94 -18 0 -20 -8 -22 -107z"/>
<path d="M455 1019 c-16 -5 -38 -16 -48 -23 -22 -17 -38 -79 -31 -116 5 -25
60 -70 86 -70 27 -1 55 -37 67 -87 18 -72 9 -93 -37 -93 -54 1 -72 19 -72 73
0 41 -10 57 -36 57 -10 0 -2 -117 9 -131 19 -25 52 -39 91 -39 36 0 36 0 36
-54 0 -92 19 -112 45 -50 8 21 15 42 14 48 -4 33 3 46 22 46 12 0 36 7 54 16
30 14 35 23 45 71 14 67 7 103 -20 103 -17 0 -20 -7 -20 -52 -1 -61 -17 -88
-53 -88 -30 0 -33 7 -36 85 -3 65 -14 95 -35 95 -8 0 -37 18 -65 40 -44 35
-51 45 -51 75 0 41 13 50 87 59 100 13 134 -42 68 -108 -19 -20 -35 -38 -35
-41 0 -3 13 -5 29 -5 37 0 87 41 94 77 7 38 -19 91 -54 108 -31 17 -107 18
-154 4z"/>
<path d="M677 543 c-4 -3 -7 -19 -7 -35 0 -43 -26 -87 -58 -95 -15 -4 -58 -7
-95 -7 -82 2 -97 13 -105 79 -3 27 -11 49 -19 52 -26 10 -36 -13 -28 -63 5
-39 15 -57 50 -91 44 -43 44 -43 39 -115 -2 -40 -5 -97 -7 -125 -2 -53 -2 -53
-94 -53 -93 0 -108 -5 -93 -29 6 -11 55 -12 251 -8 134 3 245 6 247 6 1 1 2 8
2 16 0 17 4 16 -78 19 -34 2 -64 5 -66 7 -3 3 -7 64 -9 137 -5 132 -5 132 18
132 27 0 84 50 87 77 5 62 3 74 -12 88 -9 8 -20 12 -23 8z m-122 -318 c0 -130
0 -130 -27 -133 -25 -3 -28 0 -28 25 0 15 -2 74 -4 130 -2 56 -1 105 2 108 4
3 18 5 32 3 25 -3 25 -3 25 -133z"/>
<path d="M648 345 c-3 -3 -2 -24 2 -46 4 -23 3 -52 -3 -68 -12 -33 -2 -81 18
-81 38 0 42 190 5 198 -9 1 -19 0 -22 -3z"/>
<path d="M349 317 c-13 -30 -3 -173 13 -183 20 -13 28 22 24 105 -6 93 -18
119 -37 78z"/>
</g>
</svg>
