<svg version="1.0" xmlns="http://www.w3.org/2000/svg"
 width="75.000000pt" height="110.000000pt" viewBox="0 0 75.000000 110.000000"
 preserveAspectRatio="xMidYMid meet">
<metadata>
Created by potrace 1.15, written by Peter Selinger 2001-2017
</metadata>
<g transform="translate(0.000000,110.000000) scale(0.100000,-0.100000)"
fill="#000000" stroke="none">
<path d="M253 1083 c-9 -3 -13 -30 -13 -84 0 -80 0 -80 -27 -77 -24 3 -28 9
-38 53 -7 33 -15 50 -25 50 -12 0 -15 -12 -13 -58 2 -70 12 -83 64 -92 33 -6
39 -11 39 -31 0 -27 -9 -30 -114 -38 -77 -6 -81 -8 -72 -32 5 -13 16 -15 69
-9 34 5 112 9 172 10 144 3 145 3 145 14 0 16 -41 27 -108 29 -41 2 -43 3 -40
30 2 22 8 28 36 30 52 5 86 84 62 146 -14 39 -29 24 -45 -46 -10 -46 -15 -53
-36 -53 -23 0 -24 3 -27 75 -3 77 -8 91 -29 83z"/>
<path d="M500 992 c0 -27 -7 -62 -15 -79 -8 -16 -18 -44 -21 -61 -5 -27 -3
-32 12 -32 18 0 33 24 49 78 8 28 29 38 80 37 39 0 39 0 36 -45 -3 -47 -11
-57 -48 -65 -13 -3 -33 -7 -45 -10 -46 -10 -52 -20 -50 -85 2 -84 10 -90 126
-93 99 -2 117 3 96 28 -9 11 -32 15 -84 15 -88 0 -98 6 -94 56 3 39 3 39 53
45 65 8 77 14 93 46 17 38 16 127 -3 143 -14 12 -57 10 -117 -5 -27 -7 -28 -6
-28 34 0 34 -3 41 -20 41 -17 0 -20 -7 -20 -48z"/>
<path d="M211 710 c-55 -6 -68 -12 -87 -36 -23 -28 -23 -33 -21 -259 1 -200
-1 -238 -17 -288 -23 -71 -12 -94 27 -55 22 22 26 37 32 129 4 57 4 161 1 230
-6 127 -6 127 90 128 98 1 118 5 111 24 -2 7 -41 11 -103 12 -105 2 -120 9
-89 49 18 24 121 36 183 22 45 -10 45 -10 37 -176 -4 -91 -7 -199 -6 -240 3
-90 22 -202 36 -207 23 -7 31 33 24 122 -4 50 -6 91 -4 93 2 2 12 -2 23 -9 16
-10 29 -10 66 1 26 7 49 17 52 21 12 20 44 8 49 -18 4 -16 9 -39 12 -53 3 -14
9 -50 13 -80 11 -77 26 -111 44 -104 33 13 27 69 -21 234 -15 50 -15 58 0 101
21 59 23 175 3 195 -17 16 -201 20 -211 5 -11 -18 35 -32 98 -29 34 1 68 -1
75 -6 7 -4 12 -29 12 -62 0 -60 -14 -70 -52 -34 -30 28 -141 30 -136 3 3 -14
12 -17 44 -15 35 3 45 -1 63 -24 11 -15 21 -32 21 -38 0 -13 -90 -62 -132 -72
-27 -6 -28 -4 -29 32 -2 73 -2 199 1 277 2 61 -1 82 -14 96 -16 18 -90 43
-118 40 -7 -1 -42 -5 -77 -9z"/>
<path d="M183 403 c4 -54 9 -108 13 -119 12 -43 114 -62 134 -25 13 25 13 197
0 222 -15 27 -27 24 -33 -11 -6 -27 -11 -30 -42 -30 -32 0 -35 2 -35 30 0 24
-4 30 -22 30 -20 0 -21 -2 -15 -97z m107 -22 c16 -32 12 -75 -9 -88 -15 -9
-22 -9 -29 0 -14 16 -26 83 -17 96 10 18 44 12 55 -8z"/>
</g>
</svg>
