<svg version="1.0" xmlns="http://www.w3.org/2000/svg"
 width="87.000000pt" height="155.000000pt" viewBox="0 0 87.000000 155.000000"
 preserveAspectRatio="xMidYMid meet">
<metadata>
Created by potrace 1.15, written by Peter Selinger 2001-2017
</metadata>
<g transform="translate(0.000000,155.000000) scale(0.100000,-0.100000)"
fill="#000000" stroke="none">
<path d="M440 1475 c-8 -2 -55 -9 -105 -15 -49 -7 -103 -16 -120 -20 -16 -5
-42 -11 -57 -14 -86 -19 -121 -297 -90 -721 7 -88 14 -196 17 -240 3 -44 8
-87 11 -95 3 -8 8 -46 11 -85 3 -38 9 -74 14 -80 5 -5 9 -20 9 -33 0 -44 47
-107 100 -136 50 -27 53 -28 191 -23 77 3 143 8 146 11 4 3 20 6 37 6 17 0 51
9 75 20 24 11 48 20 55 20 6 1 22 10 35 20 19 16 25 34 31 88 4 38 3 76 -3 88
-10 24 -53 48 -68 38 -6 -3 -65 -10 -132 -14 -139 -9 -133 -11 -167 78 -19 50
-20 77 -21 402 -2 375 -3 361 51 387 25 12 55 17 157 29 30 4 60 14 72 25 11
11 25 19 31 19 13 0 13 95 0 157 -15 68 -46 85 -170 89 -52 2 -102 1 -110 -1z
m188 -61 c21 -4 22 -9 22 -84 0 -80 0 -80 -59 -80 -59 0 -59 0 -64 53 -3 28
-8 66 -12 84 -6 25 -4 32 12 35 19 4 61 0 101 -8z m-184 -26 c3 -13 8 -39 11
-58 3 -19 8 -48 11 -65 5 -28 3 -31 -35 -42 -22 -7 -48 -13 -56 -13 -23 0 -83
42 -97 68 -7 13 -20 28 -30 33 -43 23 -3 78 57 80 16 0 39 4 50 9 11 5 35 9
52 9 26 1 34 -4 37 -21z m-156 -210 c33 -22 44 -79 31 -158 -6 -36 -7 -98 -3
-137 3 -40 3 -88 0 -106 -6 -34 -8 -34 -59 -36 -28 0 -64 4 -79 10 -27 11 -28
15 -28 78 -2 208 1 400 6 429 6 33 6 33 58 -16 28 -26 61 -55 74 -64z m23
-540 c2 -109 11 -200 31 -293 9 -45 8 -55 -12 -90 -40 -73 -65 -105 -81 -105
-19 0 -43 70 -58 168 -6 34 -12 66 -15 70 -4 7 -10 203 -7 260 1 21 5 22 71
22 70 0 70 0 71 -32z m414 -454 c0 -44 -19 -58 -93 -70 -42 -7 -42 -7 -42 44
0 56 -8 51 90 65 40 6 45 2 45 -39z m-250 19 c34 -16 36 -19 33 -63 -3 -45 -3
-45 -68 -47 -71 -3 -110 3 -110 16 0 10 92 111 102 111 4 0 23 -8 43 -17z"/>
<path d="M549 1083 c0 -27 0 -81 0 -120 0 -40 -3 -73 -9 -73 -5 0 -25 14 -43
30 -19 17 -37 30 -41 30 -13 0 -5 -41 14 -75 11 -19 17 -42 14 -50 -4 -8 -1
-15 6 -15 22 0 60 -54 60 -85 0 -28 -4 -31 -52 -43 -28 -6 -54 -14 -57 -18
-13 -12 35 -34 75 -34 41 0 41 0 48 -60 8 -70 4 -80 -30 -80 -20 0 -56 -13
-72 -25 -1 -1 0 -10 4 -19 8 -20 51 -21 159 -1 44 8 81 14 83 15 1 0 2 11 2
25 0 21 -5 25 -29 25 -37 0 -39 4 -47 73 -7 56 -6 56 22 62 78 17 102 55 36
55 -58 0 -70 15 -77 100 -6 68 -5 77 14 94 12 11 21 25 21 32 0 7 14 39 30 71
17 31 30 63 30 70 0 28 -20 21 -47 -17 -33 -46 -53 -51 -53 -12 0 30 -34 92
-50 92 -5 0 -10 -21 -11 -47z"/>
</g>
</svg>
