<svg version="1.0" xmlns="http://www.w3.org/2000/svg"
 width="65.000000pt" height="91.000000pt" viewBox="0 0 65.000000 91.000000"
 preserveAspectRatio="xMidYMid meet">
<metadata>
Created by potrace 1.15, written by Peter Selinger 2001-2017
</metadata>
<g transform="translate(0.000000,91.000000) scale(0.100000,-0.100000)"
fill="#000000" stroke="none">
<path d="M256 755 c-19 -42 -42 -78 -50 -81 -32 -12 -50 -124 -21 -124 17 0
65 -43 65 -58 0 -12 50 -62 61 -62 5 0 11 11 15 24 7 29 -15 74 -63 127 -29
32 -35 44 -27 57 6 9 15 17 21 19 11 4 65 -95 77 -140 10 -42 31 -27 34 26 3
47 -23 103 -62 136 -18 15 -22 51 -6 51 6 0 10 7 10 15 0 8 5 24 12 34 9 15 9
23 -1 35 -8 9 -17 16 -21 16 -4 0 -24 -34 -44 -75z"/>
<path d="M455 538 c-8 -28 -17 -97 -22 -178 -2 -49 -10 -88 -16 -92 -17 -11
-71 -10 -101 2 -23 8 -26 15 -26 58 0 28 -8 66 -20 90 -11 22 -20 45 -20 50 0
5 -9 17 -20 27 -33 30 -45 7 -30 -57 7 -29 16 -63 21 -76 5 -13 9 -37 9 -53 0
-37 35 -89 59 -89 27 0 29 -8 14 -51 -21 -63 -13 -74 67 -88 91 -15 120 -14
120 3 0 22 -23 80 -37 94 -17 17 -17 21 6 65 12 24 21 71 26 134 4 54 11 106
16 115 6 12 5 24 -3 38 -14 22 -37 26 -43 8z m-45 -395 c0 -8 -13 -13 -30 -13
-16 0 -30 2 -30 4 0 1 5 18 11 36 12 33 12 33 30 9 10 -13 19 -30 19 -36z"/>
</g>
</svg>
