<svg version="1.0" xmlns="http://www.w3.org/2000/svg"
 width="65.000000pt" height="87.000000pt" viewBox="0 0 65.000000 87.000000"
 preserveAspectRatio="xMidYMid meet">
<metadata>
Created by potrace 1.15, written by Peter Selinger 2001-2017
</metadata>
<g transform="translate(0.000000,87.000000) scale(0.100000,-0.100000)"
fill="#000000" stroke="none">
<path d="M255 700 c-63 -9 -75 -14 -100 -48 -15 -20 -21 -47 -24 -105 -4 -86
10 -120 55 -137 24 -9 24 -11 9 -40 -16 -31 -64 -66 -122 -89 -18 -8 -33 -18
-33 -23 0 -54 184 50 228 129 5 9 28 17 55 20 46 6 47 5 53 -26 7 -34 34 -51
80 -51 32 0 46 -35 38 -94 -8 -58 19 -146 57 -182 45 -43 56 -19 22 47 -25 47
-28 64 -28 147 0 105 -10 122 -71 122 -44 0 -64 9 -64 29 0 10 12 21 33 26 43
13 67 62 67 138 0 57 -16 103 -42 124 -17 14 -149 22 -213 13z m25 -49 c0 -13
-55 -51 -74 -51 -26 0 -18 28 12 44 31 17 62 20 62 7z m151 -10 c23 -19 23
-20 5 -27 -21 -8 -67 13 -74 34 -6 19 43 14 69 -7z m-65 -47 c21 -9 50 -13 66
-10 27 5 28 4 28 -34 0 -67 -14 -84 -84 -102 -49 -13 -72 -14 -112 -6 -66 14
-74 22 -74 79 0 47 1 49 28 49 15 0 41 9 57 19 37 24 44 25 91 5z"/>
<path d="M252 559 c-36 -14 -16 -29 37 -29 68 0 111 10 111 26 0 16 -110 19
-148 3z"/>
<path d="M298 503 c-60 -5 -62 -20 -4 -28 46 -7 116 9 116 26 0 9 -18 9 -112
2z"/>
<path d="M257 310 c-12 -27 -28 -50 -35 -50 -23 0 -79 -49 -92 -79 -9 -23 -9
-34 0 -51 11 -20 17 -22 59 -16 39 5 48 3 58 -13 15 -23 65 -36 90 -22 10 5
26 12 36 15 11 3 21 14 24 24 2 10 18 23 34 29 25 10 29 16 29 50 0 42 -14 63
-42 63 -22 0 -23 -13 -3 -30 21 -17 19 -50 -2 -50 -13 0 -23 17 -36 59 -19 59
-63 121 -86 121 -7 0 -22 -22 -34 -50z m71 -46 c15 -26 21 -52 20 -79 -3 -38
-4 -40 -38 -40 -46 0 -57 29 -40 108 13 67 25 69 58 11z m-108 -69 c0 -28 -4
-35 -19 -35 -11 0 -23 5 -26 10 -10 16 4 48 23 53 9 3 18 5 20 6 1 0 2 -15 2
-34z"/>
</g>
</svg>
