<svg version="1.0" xmlns="http://www.w3.org/2000/svg"
 width="65.000000pt" height="123.000000pt" viewBox="0 0 65.000000 123.000000"
 preserveAspectRatio="xMidYMid meet">
<metadata>
Created by potrace 1.15, written by Peter Selinger 2001-2017
</metadata>
<g transform="translate(0.000000,123.000000) scale(0.100000,-0.100000)"
fill="#000000" stroke="none">
<path d="M165 1075 c-84 -16 -112 -30 -130 -65 -12 -24 -13 -35 -4 -51 7 -13
7 -24 2 -28 -16 -10 -17 -232 -2 -242 9 -5 10 -11 2 -21 -6 -8 -11 -106 -12
-258 -1 -135 -5 -260 -7 -279 -3 -19 -3 -50 1 -69 6 -31 8 -33 22 -20 18 18
21 76 27 438 5 275 14 474 22 503 13 41 164 75 286 62 40 -4 92 -9 115 -10 52
-4 81 -20 88 -48 3 -12 6 -230 7 -484 2 -366 6 -465 16 -475 11 -11 16 -10 28
7 12 16 13 55 8 225 -3 113 -6 325 -7 471 -2 288 -6 309 -56 328 -79 29 -294
38 -406 16z"/>
<path d="M141 957 c-6 -8 -8 -17 -4 -20 3 -4 87 -7 185 -7 171 0 178 1 178 20
0 19 -7 20 -174 20 -133 0 -176 -3 -185 -13z"/>
<path d="M126 863 c-3 -3 -6 -13 -6 -20 0 -12 29 -14 158 -13 190 2 242 8 242
26 0 10 -39 13 -194 13 -106 0 -196 -2 -200 -6z"/>
<path d="M239 761 c-106 -12 -110 -21 -113 -239 -3 -183 4 -208 62 -218 77
-12 72 -3 72 -134 0 -65 4 -121 9 -124 4 -3 16 3 25 13 14 15 17 36 16 98 -1
43 -1 87 -1 98 10 120 10 380 1 389 -6 6 -39 11 -73 11 -57 0 -62 2 -65 23 -6
40 47 53 212 50 142 -3 170 2 149 23 -14 14 -204 20 -294 10z m29 -150 c8 -5
12 -22 10 -42 -3 -34 -3 -34 -58 -34 -55 0 -55 0 -52 30 2 17 11 36 20 43 18
14 61 16 80 3z m6 -188 c-2 -36 -7 -70 -11 -73 -4 -4 -24 -5 -44 -3 -34 5 -37
8 -47 51 -15 66 2 92 62 92 44 0 44 0 40 -67z"/>
<path d="M360 631 c0 -19 5 -21 59 -21 72 0 83 -11 79 -81 -3 -54 -28 -85 -28
-35 0 27 -31 51 -55 43 -7 -3 -17 -1 -22 4 -11 11 -56 -18 -48 -32 4 -5 21 -9
39 -9 40 0 56 -15 56 -55 0 -39 -15 -58 -62 -80 -42 -19 -45 -26 -23 -45 12
-10 21 -10 45 0 17 7 32 11 34 9 2 -2 6 -62 9 -134 7 -160 15 -188 46 -151 9
11 9 50 -1 166 -8 106 -9 153 -1 158 5 4 16 25 24 47 18 54 19 61 25 130 8 85
-3 97 -99 103 -73 4 -77 4 -77 -17z"/>
</g>
</svg>
