<svg version="1.0" xmlns="http://www.w3.org/2000/svg"
 width="63.000000pt" height="109.000000pt" viewBox="0 0 63.000000 109.000000"
 preserveAspectRatio="xMidYMid meet">
<metadata>
Created by potrace 1.15, written by Peter Selinger 2001-2017
</metadata>
<g transform="translate(0.000000,109.000000) scale(0.100000,-0.100000)"
fill="#000000" stroke="none">
<path d="M94 826 c7 -123 24 -151 107 -179 76 -26 86 -47 37 -77 -18 -11 -37
-21 -43 -23 -17 -6 14 -34 44 -40 27 -6 28 -9 35 -74 18 -185 10 -173 126
-182 75 -6 75 -6 20 -23 -30 -9 -66 -19 -80 -22 -45 -10 -55 -22 -43 -48 6
-13 17 -39 24 -58 24 -68 49 -81 49 -26 0 19 -4 38 -10 41 -5 3 -10 16 -10 29
0 20 8 25 58 36 87 19 122 37 122 63 0 33 -47 57 -112 57 -77 0 -85 10 -91
108 -5 79 -4 82 17 82 26 0 46 -18 46 -41 0 -27 21 -34 27 -9 6 22 27 23 76 5
38 -15 14 16 -32 42 -42 24 -50 34 -62 75 -7 27 -16 48 -21 48 -24 0 -2 20 42
38 40 17 50 26 50 44 -1 44 -26 118 -45 135 -23 21 -82 43 -113 43 -11 0 -23
4 -26 9 -4 5 -49 9 -101 9 -94 0 -94 0 -91 -62z m164 -5 c4 -23 2 -23 -50 -16
-62 9 -68 11 -68 31 0 12 12 14 58 12 51 -3 57 -5 60 -27z m120 -3 c19 -19 14
-28 -12 -28 -35 0 -78 18 -71 30 9 14 68 13 83 -2z m-148 -63 c23 -12 30 -22
30 -46 0 -29 -2 -31 -27 -25 -61 14 -83 28 -83 51 0 36 33 44 80 20z m192 -20
c0 -8 1 -20 2 -27 1 -11 -26 -21 -96 -35 -25 -5 -28 -2 -28 20 0 50 8 57 66
57 41 0 54 -4 56 -15z m-63 -174 c13 -23 7 -29 -24 -23 -28 5 -31 12 -13 30
17 17 26 15 37 -7z"/>
</g>
</svg>
