<svg version="1.0" xmlns="http://www.w3.org/2000/svg"
 width="66.000000pt" height="115.000000pt" viewBox="0 0 66.000000 115.000000"
 preserveAspectRatio="xMidYMid meet">
<metadata>
Created by potrace 1.15, written by Peter Selinger 2001-2017
</metadata>
<g transform="translate(0.000000,115.000000) scale(0.100000,-0.100000)"
fill="#000000" stroke="none">
<path d="M118 1038 c-1 -29 -2 -100 -2 -158 -1 -91 -3 -105 -18 -108 -28 -5
-38 38 -38 154 0 102 -5 119 -30 89 -9 -11 -10 -45 -5 -132 8 -127 15 -153 44
-153 23 0 36 -16 45 -53 7 -28 -15 -60 -58 -84 -22 -12 -27 -68 -29 -328 -2
-163 0 -190 13 -190 13 0 16 33 21 210 6 216 15 280 39 280 11 0 14 -48 16
-280 2 -276 2 -280 23 -283 26 -4 24 -25 21 321 -2 238 0 267 14 267 8 0 18
-10 20 -22 13 -63 24 -261 26 -475 0 -26 4 -33 20 -33 15 0 20 7 21 28 1 15 3
50 6 77 2 28 5 61 6 75 1 14 -2 88 -7 164 -8 141 -24 205 -51 207 -8 1 -19 2
-24 3 -22 3 -32 25 -29 62 3 34 7 40 34 48 41 12 64 59 64 132 0 55 0 55 127
52 127 -3 127 -3 135 -38 10 -44 11 -308 2 -346 -6 -25 -45 -85 -80 -121 -42
-43 -57 -85 -51 -141 8 -87 37 -131 145 -224 41 -35 102 -40 102 -8 0 11 -4
20 -9 20 -5 0 -24 14 -42 31 -18 17 -45 37 -59 44 -15 8 -40 38 -55 67 -24 46
-27 60 -21 102 6 40 16 57 61 102 35 34 58 67 64 92 7 23 9 109 6 218 -3 98
-1 184 3 191 4 6 21 13 37 15 22 2 30 8 30 23 0 19 -6 20 -175 18 -96 -1 -186
-4 -200 -5 -14 -2 -25 2 -25 7 -2 26 -18 55 -31 55 -16 0 -16 4 -19 -118 -3
-89 -15 -129 -37 -116 -5 3 -9 22 -8 43 1 20 2 89 1 154 -1 110 -2 117 -21
117 -17 0 -20 -7 -22 -52z"/>
<path d="M437 809 c-9 -6 -17 -19 -17 -29 0 -24 -25 -38 -56 -32 -15 3 -24 11
-24 23 0 14 -7 19 -25 19 -29 0 -28 4 -25 -120 2 -119 13 -140 73 -140 23 0
50 7 60 14 25 19 47 95 53 182 6 77 -5 101 -39 83z m-19 -137 c5 -35 -26 -84
-51 -80 -19 3 -22 9 -22 48 0 39 3 45 25 51 35 10 45 6 48 -19z"/>
</g>
</svg>
