<svg version="1.0" xmlns="http://www.w3.org/2000/svg"
 width="51.000000pt" height="81.000000pt" viewBox="0 0 51.000000 81.000000"
 preserveAspectRatio="xMidYMid meet">
<metadata>
Created by potrace 1.15, written by Peter Selinger 2001-2017
</metadata>
<g transform="translate(0.000000,81.000000) scale(0.100000,-0.100000)"
fill="#000000" stroke="none">
<path d="M360 560 c-6 -12 -10 -47 -8 -79 2 -54 0 -61 -27 -87 -17 -16 -55
-58 -85 -94 -30 -36 -57 -67 -60 -70 -33 -31 -70 -85 -70 -101 0 -20 1 -20 29
3 17 13 30 28 31 33 1 20 176 192 185 183 4 -3 8 -46 11 -94 3 -49 7 -95 10
-102 8 -28 23 1 34 69 15 85 5 340 -14 351 -18 12 -25 9 -36 -12z"/>
</g>
</svg>
