<svg version="1.0" xmlns="http://www.w3.org/2000/svg"
 width="51.000000pt" height="89.000000pt" viewBox="0 0 51.000000 89.000000"
 preserveAspectRatio="xMidYMid meet">
<metadata>
Created by potrace 1.15, written by Peter Selinger 2001-2017
</metadata>
<g transform="translate(0.000000,89.000000) scale(0.100000,-0.100000)"
fill="#000000" stroke="none">
<path d="M307 652 c-10 -10 -14 -22 -10 -26 8 -8 12 -256 4 -256 -9 0 -51 56
-51 68 0 6 -5 12 -10 12 -6 0 -30 18 -54 40 -24 22 -48 40 -55 40 -12 0 -14
-25 -3 -51 9 -22 86 -114 139 -166 40 -39 43 -47 43 -95 0 -60 16 -128 30
-128 11 0 12 22 9 220 -1 74 -2 186 -2 248 0 117 -6 132 -40 94z"/>
</g>
</svg>
