<svg version="1.0" xmlns="http://www.w3.org/2000/svg"
 width="59.000000pt" height="51.000000pt" viewBox="0 0 59.000000 51.000000"
 preserveAspectRatio="xMidYMid meet">
<metadata>
Created by potrace 1.15, written by Peter Selinger 2001-2017
</metadata>
<g transform="translate(0.000000,51.000000) scale(0.100000,-0.100000)"
fill="#000000" stroke="none">
<path d="M362 471 c-7 -4 -12 -44 -14 -104 -3 -97 -3 -97 -32 -72 -16 14 -32
25 -36 25 -4 0 -20 12 -36 26 -44 39 -101 66 -110 52 -9 -15 144 -163 219
-209 5 -4 13 -39 16 -78 7 -70 22 -104 35 -82 17 28 22 160 10 250 -7 52 -12
97 -12 100 3 13 -14 91 -21 95 -4 3 -12 1 -19 -3z m-42 -211 c0 -5 -4 -10 -10
-10 -5 0 -10 5 -10 10 0 6 5 10 10 10 6 0 10 -4 10 -10z"/>
</g>
</svg>
