<svg version="1.0" xmlns="http://www.w3.org/2000/svg"
 width="243.000000pt" height="327.000000pt" viewBox="0 0 243.000000 327.000000"
 preserveAspectRatio="xMidYMid meet">
<metadata>
Created by potrace 1.15, written by Peter Selinger 2001-2017
</metadata>
<g transform="translate(0.000000,327.000000) scale(0.100000,-0.100000)"
fill="#000000" stroke="none">
<path d="M2175 3188 c-3 -13 -6 -68 -8 -123 -2 -100 -2 -100 -52 -112 -27 -7
-67 -15 -87 -18 -45 -7 -48 -19 -10 -33 15 -6 36 -14 47 -18 11 -4 34 -9 50
-10 80 -4 75 0 75 -49 0 -49 10 -43 -105 -67 -27 -6 -59 -14 -70 -19 -11 -4
-30 -10 -41 -14 -48 -13 -61 -37 -73 -130 -7 -49 -14 -91 -16 -93 -1 -2 -33
-7 -70 -13 -37 -5 -70 -11 -74 -13 -10 -7 -37 12 -29 19 3 4 28 12 55 19 56
14 68 41 32 75 -31 28 -74 26 -134 -7 -47 -26 -50 -29 -53 -72 -2 -25 4 -62
13 -83 15 -36 17 -37 67 -37 62 0 54 -16 -12 -23 -67 -7 -110 -18 -110 -28 0
-5 -8 -9 -17 -9 -10 0 -29 -9 -43 -20 -14 -11 -29 -20 -33 -20 -36 -1 -186
-143 -212 -200 -10 -22 -22 -40 -27 -40 -4 0 -8 -9 -8 -19 0 -11 -4 -23 -10
-26 -5 -3 -10 -13 -10 -22 0 -9 -12 -41 -27 -72 -26 -56 -26 -56 -15 -175 7
-65 19 -133 28 -151 15 -33 16 -50 4 -736 0 -12 -13 -18 -47 -23 -135 -20
-220 -38 -248 -53 -25 -14 -75 -69 -75 -83 0 -6 -4 -19 -10 -30 -22 -44 -27
-57 -41 -102 -20 -70 -41 -64 -83 22 -31 66 -42 80 -79 103 -103 66 -251 58
-351 -18 -35 -27 -76 -85 -76 -109 0 -20 -25 -37 -44 -30 -12 5 -16 19 -16 58
0 29 -5 57 -12 64 -19 19 -85 15 -93 -5 -4 -10 -10 -92 -14 -183 -8 -180 -2
-210 42 -210 39 0 59 23 63 71 6 79 14 107 32 114 19 7 42 -18 42 -47 0 -20
36 -80 66 -113 27 -28 76 -55 135 -74 44 -14 146 -15 154 -1 3 6 21 10 39 10
19 0 40 8 48 18 22 24 88 151 88 168 0 8 10 14 25 14 23 0 25 -4 25 -46 0 -96
101 -235 190 -264 25 -7 58 -20 75 -28 38 -19 143 -41 203 -42 135 -3 309 12
372 33 34 11 90 58 90 75 0 5 14 23 30 40 17 18 30 40 30 50 0 10 3 22 8 26 4
4 12 31 17 59 13 67 36 74 59 18 9 -23 38 -62 65 -88 58 -58 167 -98 220 -83
17 5 31 7 31 4 0 -14 71 35 108 74 45 48 45 47 42 110 -1 32 2 42 14 42 12 0
16 -11 16 -47 0 -94 24 -117 68 -70 21 22 22 33 22 169 0 145 0 145 -32 152
-48 9 -66 -22 -59 -101 1 -15 -4 -23 -14 -23 -9 0 -15 9 -15 26 0 35 -13 56
-68 113 -54 56 -92 70 -202 78 -76 5 -76 5 -118 -38 -61 -65 -92 -110 -92
-136 0 -15 -6 -23 -18 -23 -12 0 -22 14 -31 48 -54 186 -136 244 -396 279 -60
8 -60 8 -61 88 -1 44 -3 118 -5 165 -7 197 16 488 41 525 4 6 13 31 20 58 7
26 17 50 21 53 5 3 9 14 9 25 0 10 3 19 8 19 4 0 13 13 19 28 15 32 34 58 83
112 39 43 173 114 234 125 35 6 86 43 86 62 -1 41 -95 52 -165 20 -103 -48
-142 -72 -186 -118 -26 -27 -50 -49 -53 -49 -9 0 34 67 62 96 73 77 196 126
370 148 36 5 33 10 36 -92 1 -69 7 -63 -79 -77 -95 -16 -122 -22 -152 -38 -18
-10 -33 -22 -33 -27 0 -5 -12 -20 -27 -34 -25 -24 -26 -27 -14 -67 24 -81 83
-107 170 -77 64 23 76 48 41 86 -23 25 -60 29 -60 8 0 -15 -27 -29 -34 -18
-16 25 33 48 120 57 72 7 72 7 78 -42 16 -143 22 -179 29 -190 10 -15 53 -17
62 -3 6 9 249 5 266 -5 12 -8 29 -74 22 -91 -3 -9 -22 -14 -57 -15 -88 -1
-136 -11 -136 -28 0 -24 79 -51 148 -51 70 0 70 0 76 -31 3 -17 6 -50 6 -73 0
-101 72 -148 74 -49 1 21 -3 115 -8 210 -7 141 -11 175 -25 187 -21 19 -116
33 -241 35 -52 1 -96 3 -97 5 -2 1 -6 24 -9 49 -6 40 -4 47 10 47 37 0 112 64
122 105 3 14 3 45 0 70 -8 52 -45 85 -95 85 -25 0 -34 6 -41 26 -18 47 -14 54
38 54 49 0 72 12 72 38 0 24 -32 41 -77 42 -46 0 -57 18 -29 46 18 17 30 18
55 2 16 -9 23 -6 50 21 33 34 38 66 25 164 -6 39 -11 47 -37 58 -17 7 -48 12
-70 12 -37 -2 -38 -1 -35 29 2 18 11 35 23 42 11 6 22 14 25 17 10 12 98 30
160 32 84 3 89 25 55 248 -18 115 -34 189 -49 218 -25 52 -43 62 -51 29z
m-113 -697 c20 -3 18 -44 -3 -67 -50 -53 -78 -21 -54 62 3 10 24 11 57 5z
m-171 -112 c5 -8 9 -33 9 -56 0 -39 -2 -43 -25 -43 -14 0 -27 -1 -30 -2 -2 0
-24 -4 -47 -8 -147 -25 -248 -54 -248 -72 0 -4 -9 -8 -21 -8 -11 0 -17 5 -14
10 11 18 120 68 171 79 171 36 196 52 124 84 -22 9 -46 18 -53 18 -6 1 2 5 18
9 42 11 106 5 116 -11z m-429 -237 c-15 -16 -44 -48 -65 -72 -20 -24 -40 -40
-44 -36 -7 7 8 25 82 97 46 45 67 53 27 11z m604 -126 c15 -12 17 -18 8 -33
-6 -10 -19 -19 -28 -21 -12 -3 -16 4 -16 32 0 39 6 43 36 22z m-872 -1403 c-4
-60 -12 -111 -18 -115 -6 -4 -27 -5 -46 -2 -19 2 -81 7 -137 11 -61 3 -103 10
-106 17 -2 6 5 39 16 74 15 48 27 66 48 78 30 15 162 42 217 43 33 1 33 1 26
-106z m251 86 c50 -13 125 -49 125 -61 0 -4 6 -8 14 -8 20 0 54 -50 61 -88 5
-29 3 -32 -22 -33 -68 -4 -297 2 -302 7 -3 3 -8 48 -9 100 -4 94 -4 94 45 94
26 0 66 -5 88 -11z m-1004 -106 c-5 -10 -15 -33 -21 -50 -10 -27 -18 -33 -41
-33 -15 0 -31 5 -34 10 -3 6 -15 10 -26 10 -32 0 -23 21 25 58 18 14 43 22 67
22 34 0 38 -2 30 -17z m1664 -35 c31 -14 31 -19 1 -47 -24 -23 -24 -23 -58 1
-34 24 -48 38 -48 51 0 11 76 8 105 -5z m-1527 -41 c18 -50 15 -67 -10 -67
-13 0 -31 7 -41 14 -16 12 -16 16 -2 50 19 45 37 46 53 3z m1403 -59 c7 -13
17 -26 22 -30 14 -9 -19 -58 -38 -58 -29 0 -48 93 -22 103 22 9 26 7 38 -15z
m209 -26 c0 -21 5 -43 12 -50 24 -24 -8 -11 -35 14 -26 24 -27 33 -2 61 18 21
25 14 25 -25z m-1821 -9 c7 -5 -30 -73 -40 -73 -21 0 -39 30 -39 63 0 35 0 35
38 24 20 -6 39 -12 41 -14z m691 -48 c115 -3 115 -3 111 -91 -2 -49 -5 -93 -8
-97 -5 -9 -38 -5 -128 15 -84 18 -99 27 -123 71 -36 68 -26 127 18 110 8 -4
67 -7 130 -8z m-510 -15 c12 -7 11 -12 -5 -32 -32 -38 -59 -58 -79 -58 -14 0
-17 5 -11 23 4 12 9 34 12 50 4 23 10 27 37 27 17 0 38 -4 46 -10z m1038 -10
c42 0 42 0 42 -36 0 -46 -13 -69 -67 -121 -37 -36 -51 -43 -86 -44 -59 -2 -76
0 -124 13 -46 13 -44 2 -33 192 0 5 50 6 113 3 61 -4 131 -7 155 -7z m515 -24
c36 -31 33 -62 -6 -60 -45 2 -51 4 -71 19 -19 14 -19 16 10 40 16 14 31 25 34
25 3 0 18 -11 33 -24z"/>
<path d="M1 3104 c0 -11 3 -14 6 -6 3 7 2 16 -1 19 -3 4 -6 -2 -5 -13z"/>
</g>
</svg>
