<svg version="1.0" xmlns="http://www.w3.org/2000/svg"
 width="93.000000pt" height="149.000000pt" viewBox="0 0 93.000000 149.000000"
 preserveAspectRatio="xMidYMid meet">
<metadata>
Created by potrace 1.15, written by Peter Selinger 2001-2017
</metadata>
<g transform="translate(0.000000,149.000000) scale(0.100000,-0.100000)"
fill="#000000" stroke="none">
<path d="M232 1377 c-7 -8 -15 -28 -18 -46 -5 -23 -13 -33 -33 -37 -52 -11
-72 -26 -69 -53 3 -24 7 -26 57 -26 63 0 76 -16 29 -35 -121 -49 -175 -142
-133 -227 19 -39 81 -92 114 -99 15 -3 37 -10 51 -14 22 -8 23 -9 4 -9 -12 -1
-37 -12 -57 -25 -19 -13 -38 -22 -41 -19 -7 7 -46 -58 -46 -78 0 -18 37 -70
48 -67 4 1 21 -6 39 -15 18 -9 41 -17 53 -17 31 0 24 -15 -17 -34 -79 -36
-123 -91 -123 -152 0 -48 17 -94 35 -94 7 0 20 -9 30 -20 10 -11 34 -22 54
-26 66 -11 71 -14 71 -43 0 -24 -5 -30 -32 -35 -70 -14 -69 -51 2 -62 31 -5
39 -11 43 -33 3 -15 15 -38 26 -52 26 -32 42 -16 49 50 4 42 8 51 24 51 43 0
29 56 -15 62 -16 2 -23 11 -25 31 -3 24 1 28 29 34 38 7 108 76 110 107 4 65
-4 108 -26 130 -45 45 -78 66 -105 66 -15 0 -30 6 -33 14 -6 15 -1 96 6 103 4
3 163 5 298 4 67 -1 67 -1 71 -38 3 -21 4 -40 2 -42 -2 -2 -24 6 -48 19 -46
23 -76 22 -76 -4 0 -16 22 -41 51 -56 24 -13 24 -21 -1 -48 -11 -12 -20 -25
-20 -30 0 -5 -6 -15 -14 -22 -8 -6 -12 -18 -9 -26 9 -24 41 -16 83 22 44 40
40 44 44 -40 2 -27 31 -44 54 -30 12 8 18 29 22 80 5 65 6 69 30 70 91 3 93
49 3 59 -32 3 -44 22 -41 60 3 26 8 30 47 40 25 6 46 16 48 22 6 16 -37 43
-68 43 -32 0 -39 15 -39 80 0 48 0 48 55 52 30 3 58 8 62 12 17 16 -17 42 -68
51 -54 10 -54 10 -57 57 -2 37 -7 47 -24 52 -33 8 -48 -11 -48 -60 0 -49 -7
-53 -40 -24 -30 26 -80 27 -80 1 0 -10 9 -30 21 -45 20 -26 20 -26 0 -55 -12
-16 -21 -36 -21 -45 0 -27 47 -19 83 15 32 31 32 31 39 -22 4 -30 5 -59 3 -66
-3 -8 -39 -12 -117 -13 -62 0 -144 -2 -181 -3 -38 -2 -71 1 -74 6 -3 4 -2 24
1 43 5 25 13 35 31 40 13 3 31 14 41 25 9 10 23 19 30 19 7 0 25 16 39 35 23
29 27 44 27 105 1 97 -26 127 -126 139 -42 5 -51 9 -51 26 0 16 10 22 50 30
34 8 51 17 53 29 6 31 -18 48 -65 44 -40 -3 -44 -1 -60 32 -20 38 -43 49 -61
27z m131 -246 c31 -12 59 -40 52 -52 -4 -5 -26 -9 -51 -9 -44 0 -44 0 -44 35
0 37 5 40 43 26z m-128 -46 c0 -29 -2 -30 -53 -33 -50 -3 -52 -2 -41 16 16 25
60 52 79 49 9 -1 15 -13 15 -32z m183 -94 c-6 -11 -29 -29 -50 -41 -38 -21
-38 -21 -38 14 0 38 8 44 63 45 34 1 36 0 25 -18z m-168 -41 c0 -31 -4 -40
-17 -40 -22 0 -83 36 -83 49 0 11 46 29 78 30 19 1 22 -4 22 -39z m-2 -224 c2
-50 -13 -63 -46 -37 -18 13 -21 23 -16 49 5 27 11 32 34 32 25 0 27 -3 28 -44z
m150 -208 c7 -7 12 -20 12 -30 0 -14 -8 -18 -35 -18 -19 0 -35 3 -35 8 0 4 -3
17 -6 30 -6 19 -3 22 23 22 16 0 34 -5 41 -12z m-140 -25 c-2 -23 -9 -29 -42
-35 -52 -11 -57 -2 -18 33 42 37 64 38 60 2z m155 -103 c-6 -22 -39 -50 -60
-50 -13 0 -18 51 -6 63 3 4 21 7 39 7 27 0 31 -3 27 -20z m-145 -25 c3 -27 3
-27 -34 -21 -33 7 -64 26 -64 40 0 5 67 14 85 11 6 -1 11 -14 13 -30z"/>
</g>
</svg>
