<svg version="1.0" xmlns="http://www.w3.org/2000/svg"
 width="129.000000pt" height="121.000000pt" viewBox="0 0 129.000000 121.000000"
 preserveAspectRatio="xMidYMid meet">
<metadata>
Created by potrace 1.15, written by Peter Selinger 2001-2017
</metadata>
<g transform="translate(0.000000,121.000000) scale(0.100000,-0.100000)"
fill="#000000" stroke="none">
<path d="M961 1116 c-9 -11 -10 -28 -2 -72 6 -32 11 -73 11 -91 0 -33 30 -105
55 -129 25 -25 81 -54 105 -54 55 0 97 20 110 50 7 17 16 30 20 30 12 0 19 37
25 137 4 60 3 93 -4 98 -6 3 -11 15 -11 26 0 15 -6 20 -22 17 -20 -3 -24 -11
-28 -53 -6 -55 -16 -62 -97 -64 -65 -2 -91 15 -106 68 -13 48 -35 62 -56 37z
m244 -159 c14 -11 17 -22 12 -45 -14 -67 -72 -93 -127 -55 -32 22 -40 33 -40
60 0 38 116 68 155 40z"/>
<path d="M277 1104 c-4 -4 -7 -22 -7 -41 0 -18 -3 -33 -7 -33 -5 -1 -33 -3
-63 -6 -55 -6 -55 -6 -73 35 -33 74 -36 68 -72 -146 -5 -31 13 -92 37 -126 39
-54 116 -70 169 -34 51 34 63 67 67 192 3 103 2 112 -20 138 -13 16 -27 25
-31 21z m-22 -177 c19 -28 10 -96 -17 -119 -11 -10 -35 -18 -53 -18 -47 0 -75
41 -75 109 0 50 1 51 29 51 17 0 32 4 36 9 8 14 63 -7 80 -32z"/>
<path d="M542 1008 c47 -44 47 -45 37 -84 -28 -105 -56 -168 -91 -208 -19 -21
-24 -46 -9 -46 5 0 29 23 53 51 52 59 73 61 125 12 54 -51 66 -94 38 -137 -30
-46 -182 -139 -211 -129 -16 5 -37 -24 -30 -43 5 -12 13 -14 34 -9 15 4 53 9
84 11 65 5 58 17 88 -131 31 -156 48 -214 67 -233 20 -20 46 -7 38 19 -4 12
-11 44 -16 73 -4 28 -13 74 -19 101 -6 28 -13 79 -16 115 -6 59 -3 71 25 129
45 94 50 148 18 214 -20 40 -38 59 -76 82 -43 25 -51 35 -50 60 0 20 8 36 24
48 24 17 26 17 67 -1 107 -48 120 -35 44 44 -48 50 -64 60 -123 77 -37 10 -86
21 -108 24 -40 6 -40 6 7 -39z"/>
<path d="M266 473 c-4 -9 -4 -40 0 -69 6 -52 6 -52 -54 -59 -34 -4 -66 -4 -71
0 -6 3 -11 21 -11 40 0 64 -40 113 -54 68 -3 -10 -7 -67 -8 -128 -4 -146 19
-203 87 -219 82 -19 83 -19 114 11 42 42 56 101 54 216 -3 95 -16 146 -39 154
-6 2 -15 -4 -18 -14z m-8 -182 c7 -1 12 -16 12 -40 0 -31 -6 -44 -26 -60 -37
-29 -90 -28 -100 2 -8 24 -8 83 1 96 4 7 54 8 113 2z"/>
<path d="M1217 433 c-2 -4 -10 -25 -16 -45 -13 -38 -13 -38 -79 -38 -65 1 -68
2 -92 35 -14 19 -30 35 -35 35 -14 0 -8 -213 7 -265 17 -58 32 -76 84 -100 40
-18 54 -20 94 -12 37 7 50 15 60 36 26 58 21 349 -7 358 -6 2 -13 0 -16 -4z
m-17 -169 c19 -49 12 -113 -14 -139 -30 -29 -71 -41 -90 -26 -18 15 -46 100
-46 138 0 42 17 53 82 53 54 0 59 -2 68 -26z"/>
</g>
</svg>
