<svg version="1.0" xmlns="http://www.w3.org/2000/svg"
 width="63.000000pt" height="73.000000pt" viewBox="0 0 63.000000 73.000000"
 preserveAspectRatio="xMidYMid meet">
<metadata>
Created by potrace 1.15, written by Peter Selinger 2001-2017
</metadata>
<g transform="translate(0.000000,73.000000) scale(0.100000,-0.100000)"
fill="#000000" stroke="none">
<path d="M378 661 c-58 -4 -102 -11 -110 -19 -24 -24 -39 -557 -16 -580 15
-15 85 -16 125 -2 50 18 58 55 37 158 -2 12 -10 22 -18 22 -14 0 -26 -42 -26
-91 0 -32 -29 -54 -59 -44 -14 4 -20 20 -25 76 -3 38 -3 81 0 94 6 24 9 25 99
25 124 0 125 -2 125 -148 0 -101 2 -112 18 -112 36 0 42 21 42 133 0 109 0
109 -34 143 -34 34 -34 34 -134 34 -93 0 -101 2 -107 21 -4 11 -5 23 -2 25 3
3 64 8 136 11 114 5 131 8 129 22 -3 14 -21 16 -136 14 -120 -3 -132 -1 -132
15 0 38 13 42 140 45 105 2 125 5 134 20 19 31 -10 37 -141 30 -123 -6 -123
-6 -123 19 0 23 5 26 53 32 28 3 77 6 107 6 69 0 100 8 100 26 0 16 -41 35
-68 32 -9 -1 -61 -4 -114 -7z"/>
<path d="M36 641 c-14 -23 15 -41 65 -41 35 0 49 -4 49 -14 0 -21 -21 -33 -69
-39 -24 -3 -48 -11 -53 -19 -4 -7 -7 -38 -6 -68 3 -55 3 -55 58 -60 55 -5 55
-5 51 -140 -3 -147 -11 -183 -39 -178 -15 3 -17 18 -17 132 0 85 -4 131 -11
133 -25 8 -35 -29 -41 -151 -5 -113 -4 -128 12 -146 25 -28 97 -28 123 1 27
28 32 61 32 213 0 161 -7 179 -70 186 -36 4 -45 9 -45 25 0 16 11 22 54 31 65
15 71 21 78 71 4 28 1 42 -10 51 -21 18 -152 28 -161 13z"/>
</g>
</svg>
