<svg version="1.0" xmlns="http://www.w3.org/2000/svg"
 width="68.000000pt" height="82.000000pt" viewBox="0 0 68.000000 82.000000"
 preserveAspectRatio="xMidYMid meet">
<metadata>
Created by potrace 1.15, written by Peter Selinger 2001-2017
</metadata>
<g transform="translate(0.000000,82.000000) scale(0.100000,-0.100000)"
fill="#000000" stroke="none">
<path d="M135 643 c-22 -3 -44 -9 -50 -14 -18 -18 17 -29 93 -29 70 0 72 -1
72 -25 0 -26 -14 -31 -86 -26 -48 3 -65 -21 -62 -88 3 -56 3 -56 63 -61 59 -5
60 -5 63 -37 3 -33 3 -33 -55 -33 -33 0 -64 -5 -71 -12 -14 -14 -17 -284 -3
-292 24 -15 36 31 39 144 4 118 4 118 64 122 37 3 63 10 69 19 13 21 11 103
-3 117 -7 7 -38 12 -71 12 -59 0 -59 0 -52 27 4 16 8 29 10 31 1 2 29 6 61 9
33 3 62 11 66 17 4 6 8 32 8 58 0 67 -18 74 -155 61z"/>
<path d="M362 618 c-8 -8 -12 -53 -12 -136 0 -107 -2 -127 -17 -138 -37 -26
-1 -35 138 -32 111 3 134 6 134 18 0 12 -20 16 -107 18 -108 3 -108 3 -108 37
0 35 0 35 100 35 82 0 100 3 100 15 0 12 -18 15 -100 15 -99 0 -100 0 -100 24
0 31 15 36 116 36 46 0 84 4 84 9 0 16 -30 21 -116 21 -82 0 -84 1 -84 24 0
28 28 36 126 36 50 0 64 3 64 15 0 12 -18 15 -103 15 -67 0 -107 -4 -115 -12z"/>
<path d="M335 256 c-14 -10 -17 -21 -12 -51 6 -37 6 -37 -25 -31 -17 3 -34 6
-39 6 -4 0 -9 15 -11 32 -2 22 -9 34 -20 36 -15 3 -18 -4 -18 -46 0 -47 2 -51
31 -61 47 -16 234 -14 248 2 17 21 3 27 -61 27 -63 0 -82 16 -58 46 10 11 31
14 94 12 81 -3 81 -3 81 -73 0 -70 0 -70 -167 -73 -137 -2 -168 -5 -168 -17 0
-7 3 -16 8 -18 4 -3 79 -8 168 -12 160 -7 161 -7 183 16 18 19 21 35 21 101 0
110 -9 118 -138 118 -67 0 -104 -4 -117 -14z"/>
</g>
</svg>
