<svg version="1.0" xmlns="http://www.w3.org/2000/svg"
 width="45.000000pt" height="65.000000pt" viewBox="0 0 45.000000 65.000000"
 preserveAspectRatio="xMidYMid meet">
<metadata>
Created by potrace 1.15, written by Peter Selinger 2001-2017
</metadata>
<g transform="translate(0.000000,65.000000) scale(0.100000,-0.100000)"
fill="#000000" stroke="none">
<path d="M265 431 c-3 -2 0 -12 5 -21 13 -24 15 -69 6 -99 -8 -22 -12 -23 -61
-17 -79 9 -87 14 -83 50 2 25 9 33 36 41 46 13 40 25 -13 25 -46 0 -46 0 -43
-127 3 -124 4 -128 26 -131 16 -3 22 2 22 16 0 11 -7 22 -15 26 -9 3 -15 19
-15 41 0 35 0 35 68 35 40 0 73 -5 80 -12 15 -15 17 -188 2 -188 -5 0 -10 -4
-10 -10 0 -5 23 -10 50 -10 38 0 50 4 50 15 0 8 -9 15 -19 15 -15 0 -22 11
-30 50 -6 28 -11 68 -11 89 0 43 10 51 66 51 21 0 33 4 29 10 -3 6 -26 10 -51
10 -44 0 -44 0 -44 59 0 57 1 60 27 63 50 6 36 25 -17 24 -28 -1 -53 -3 -55
-5z"/>
<path d="M165 340 c3 -5 10 -10 16 -10 5 0 9 5 9 10 0 6 -7 10 -16 10 -8 0
-12 -4 -9 -10z"/>
<path d="M190 216 c0 -10 9 -16 21 -16 24 0 21 23 -4 28 -10 2 -17 -3 -17 -12z"/>
</g>
</svg>
