<svg version="1.0" xmlns="http://www.w3.org/2000/svg"
 width="47.000000pt" height="57.000000pt" viewBox="0 0 47.000000 57.000000"
 preserveAspectRatio="xMidYMid meet">
<metadata>
Created by potrace 1.15, written by Peter Selinger 2001-2017
</metadata>
<g transform="translate(0.000000,57.000000) scale(0.100000,-0.100000)"
fill="#000000" stroke="none">
<path d="M230 411 c0 -12 7 -21 15 -21 16 0 30 -42 21 -65 -10 -26 -45 -18
-52 13 -11 49 -13 52 -48 52 -19 0 -38 5 -41 10 -3 6 -13 10 -21 10 -12 0 -14
-19 -12 -117 3 -118 3 -118 53 -118 43 0 50 3 50 20 0 11 8 23 19 28 11 4 16
13 12 23 -5 12 -2 15 10 10 8 -3 20 -6 25 -6 5 0 9 -22 9 -50 0 -38 4 -50 15
-50 11 0 15 12 15 50 0 50 0 50 35 50 51 0 48 32 -5 54 -35 14 -40 20 -40 47
0 23 5 32 20 36 13 3 20 12 18 22 -2 11 -16 17 -51 19 -42 3 -47 1 -47 -17z
m-62 -89 c2 -7 -3 -12 -12 -12 -9 0 -16 7 -16 16 0 17 22 14 28 -4z m12 -82
c-11 -11 -26 -17 -35 -14 -31 12 -14 34 27 34 28 0 28 0 8 -20z"/>
<path d="M253 100 c-41 -17 -25 -30 37 -30 45 0 60 4 60 14 0 25 -53 34 -97
16z"/>
</g>
</svg>
