<svg version="1.0" xmlns="http://www.w3.org/2000/svg"
 width="65.000000pt" height="99.000000pt" viewBox="0 0 65.000000 99.000000"
 preserveAspectRatio="xMidYMid meet">
<metadata>
Created by potrace 1.15, written by Peter Selinger 2001-2017
</metadata>
<g transform="translate(0.000000,99.000000) scale(0.100000,-0.100000)"
fill="#000000" stroke="none">
<path d="M525 890 c-44 -4 -131 -15 -194 -24 -63 -9 -159 -16 -213 -16 -54 0
-98 -4 -98 -9 0 -18 27 -27 85 -30 32 -1 62 -4 66 -7 9 -5 1 -132 -10 -164 -5
-14 -14 -59 -20 -100 -7 -41 -19 -115 -28 -163 -26 -142 -2 -327 42 -327 8 0
15 -4 15 -8 0 -34 215 -42 275 -11 86 44 100 57 110 104 16 67 15 119 -1 251
-10 77 -19 212 -21 302 -4 162 -4 162 24 164 52 2 93 15 93 28 0 8 -27 21 -38
18 -4 0 -43 -4 -87 -8z m-28 -85 c4 -39 6 -118 4 -182 -1 -27 -5 -33 -23 -33
-13 0 -38 9 -55 20 -30 18 -33 24 -33 69 0 35 -4 51 -16 55 -30 11 -34 6 -34
-43 0 -46 -3 -52 -41 -85 -44 -37 -94 -55 -111 -38 -7 7 -5 36 6 90 9 43 16
97 16 120 0 41 0 41 48 47 26 3 65 10 87 14 22 5 64 8 94 8 53 -2 53 -2 58
-42z m-116 -211 c18 -22 68 -41 110 -43 17 -1 18 -6 35 -162 7 -56 7 -56 -67
-63 -129 -10 -309 -17 -317 -12 -5 3 -5 27 -1 53 5 26 12 70 16 98 7 44 12 51
38 59 43 12 135 59 147 74 14 16 23 15 39 -4z m147 -309 c13 -12 4 -155 -9
-172 -8 -9 -32 -27 -54 -41 -37 -24 -49 -26 -152 -27 -111 0 -111 0 -136 29
-45 52 -64 186 -29 202 34 16 365 24 380 9z"/>
</g>
</svg>
