<svg version="1.0" xmlns="http://www.w3.org/2000/svg"
 width="77.000000pt" height="143.000000pt" viewBox="0 0 77.000000 143.000000"
 preserveAspectRatio="xMidYMid meet">
<metadata>
Created by potrace 1.15, written by Peter Selinger 2001-2017
</metadata>
<g transform="translate(0.000000,143.000000) scale(0.100000,-0.100000)"
fill="#000000" stroke="none">
<path d="M354 1378 c-12 -5 -31 -31 -43 -57 -12 -25 -37 -56 -54 -69 -18 -12
-65 -53 -105 -92 -40 -38 -84 -77 -97 -86 -14 -9 -25 -20 -25 -25 0 -14 62
-10 94 6 50 26 53 22 61 -74 4 -49 5 -93 2 -98 -2 -4 -1 -18 4 -30 7 -20 11
-21 33 -12 31 15 46 90 41 217 -3 92 -3 92 38 121 57 39 82 45 100 26 9 -8 23
-15 31 -15 9 0 16 -3 16 -8 0 -4 13 -13 29 -20 33 -15 41 -36 47 -132 5 -78
12 -124 25 -157 9 -23 10 -24 27 -7 14 15 17 35 16 132 -2 128 -12 117 81 93
44 -11 78 -6 72 12 -3 11 -6 13 -82 49 -27 12 -52 25 -55 28 -3 3 -26 18 -53
33 -50 30 -127 98 -127 113 0 6 -6 22 -12 37 -14 28 -29 32 -64 15z"/>
<path d="M350 727 c-214 -11 -214 -11 -228 -24 -17 -17 -16 -22 18 -52 29 -26
29 -26 14 -86 -17 -68 -30 -114 -46 -165 -18 -57 -21 -193 -6 -238 16 -46 53
-99 81 -113 97 -52 339 -49 421 5 14 9 32 16 40 16 8 0 18 9 21 20 3 11 11 20
16 20 5 0 9 9 9 19 0 11 5 21 12 23 7 3 12 28 12 64 1 32 5 64 9 71 4 6 3 14
-3 18 -5 3 -10 17 -10 30 0 13 -4 26 -9 29 -9 6 -18 55 -26 136 -2 25 -9 62
-16 83 -15 44 -4 72 27 72 29 0 30 41 2 58 -30 19 -151 24 -338 14z m-18 -84
c5 -62 -14 -97 -67 -123 -46 -22 -59 -25 -50 -10 3 6 9 38 13 72 6 55 10 63
32 69 46 13 70 10 72 -8z m203 9 c16 -12 35 -50 35 -73 0 -11 5 -29 10 -40 12
-22 12 -22 -46 -8 -26 7 -53 22 -64 37 -19 24 -27 72 -13 85 9 9 65 9 78 -1z
m-145 -174 c0 -4 14 -8 32 -8 17 0 45 -4 62 -10 17 -5 52 -15 78 -22 47 -12
55 -21 64 -79 4 -26 4 -26 -109 -33 -61 -4 -165 -10 -229 -13 -136 -6 -141 -3
-109 68 12 24 21 41 21 36 0 -4 17 4 38 18 20 13 52 27 70 31 18 4 35 10 37
15 7 10 45 7 45 -3z m236 -263 c29 -21 5 -57 -64 -93 -54 -29 -68 -32 -143
-32 -120 0 -170 18 -217 75 -21 25 -9 38 49 51 77 17 352 16 375 -1z"/>
</g>
</svg>
