<svg version="1.0" xmlns="http://www.w3.org/2000/svg"
 width="57.000000pt" height="83.000000pt" viewBox="0 0 57.000000 83.000000"
 preserveAspectRatio="xMidYMid meet">
<metadata>
Created by potrace 1.15, written by Peter Selinger 2001-2017
</metadata>
<g transform="translate(0.000000,83.000000) scale(0.100000,-0.100000)"
fill="#000000" stroke="none">
<path d="M329 665 c-3 -2 -44 -5 -92 -6 -83 -2 -106 -10 -71 -23 9 -3 40 -6
70 -6 30 0 54 -2 54 -6 0 -3 -17 -31 -38 -62 -42 -63 -82 -144 -82 -166 0 -8
5 -28 11 -43 6 -15 15 -37 20 -48 28 -69 80 -175 90 -181 6 -4 16 0 21 9 4 9
15 23 23 31 8 8 15 17 15 21 0 8 59 95 82 119 22 24 23 54 3 92 -8 16 -12 39
-8 52 3 14 -3 40 -14 65 -25 54 -44 109 -38 115 2 3 17 4 32 4 37 -1 123 20
123 30 0 8 -193 12 -201 3z m21 -73 c0 -10 -9 -24 -20 -32 -11 -8 -20 -20 -20
-28 0 -7 -13 -33 -30 -57 -16 -24 -30 -46 -30 -50 0 -8 -26 -35 -34 -35 -15 0
-3 44 26 97 17 32 34 60 37 63 4 3 14 17 24 33 20 31 47 36 47 9z m20 -64 c0
-19 -2 -20 -10 -8 -13 19 -13 30 0 30 6 0 10 -10 10 -22z m-6 -78 c14 -22 26
-44 26 -50 0 -6 -26 -10 -60 -10 -33 0 -60 2 -60 5 0 11 57 93 66 95 1 0 13
-18 28 -40z m42 -105 c3 -8 -2 -27 -13 -42 -10 -16 -22 -35 -28 -44 -29 -46
-61 -89 -66 -89 -4 0 -12 15 -19 33 -18 48 -31 80 -41 99 -19 37 -11 47 39 51
106 8 123 7 128 -8z"/>
</g>
</svg>
