<svg version="1.0" xmlns="http://www.w3.org/2000/svg"
 width="87.000000pt" height="375.000000pt" viewBox="0 0 87.000000 375.000000"
 preserveAspectRatio="xMidYMid meet">
<metadata>
Created by potrace 1.15, written by Peter Selinger 2001-2017
</metadata>
<g transform="translate(0.000000,375.000000) scale(0.100000,-0.100000)"
fill="#000000" stroke="none">
<path d="M83 3654 c-22 -10 -15 -41 10 -47 12 -3 58 -8 102 -12 116 -9 131
-17 155 -83 12 -30 20 -67 18 -80 -3 -25 -4 -25 -88 -23 -47 1 -103 4 -125 7
-42 5 -84 -14 -72 -33 4 -6 41 -16 84 -22 43 -7 98 -17 121 -22 24 -5 52 -7
63 -4 17 6 19 1 19 -49 0 -56 0 -56 -133 -56 -105 0 -137 -3 -155 -16 -40 -28
-11 -44 77 -44 42 0 106 -3 143 -7 68 -6 68 -6 68 -227 0 -122 -4 -226 -8
-232 -4 -6 -55 -14 -117 -17 -154 -9 -185 -20 -130 -45 17 -8 89 -12 200 -12
175 0 175 0 175 -44 0 -43 0 -43 -61 -50 -34 -3 -102 -6 -152 -6 -97 0 -167
-15 -167 -37 0 -10 38 -13 190 -13 212 0 201 4 180 -70 -15 -49 -15 -983 -1
-1064 6 -33 17 -106 25 -161 8 -55 20 -118 25 -140 6 -22 15 -58 20 -80 9 -42
42 -135 68 -195 8 -19 18 -44 23 -55 4 -11 12 -32 19 -47 6 -16 15 -38 20 -50
5 -13 16 -40 26 -61 21 -49 34 -129 30 -195 -4 -63 -32 -103 -88 -127 -46 -19
-87 -19 -209 1 -91 16 -101 15 -141 0 -57 -22 -77 -41 -115 -107 -37 -66 -41
-99 -12 -99 27 0 60 35 60 64 0 14 15 39 36 60 33 33 41 36 93 36 31 0 72 -5
91 -10 19 -6 69 -11 110 -12 60 -1 84 4 119 22 53 27 71 43 71 64 0 9 4 16 9
16 5 0 14 29 21 64 17 89 -6 200 -65 316 -14 27 -25 56 -25 64 0 9 -8 30 -19
48 -18 33 -57 154 -100 308 -11 41 -23 107 -26 145 -3 39 -10 104 -15 145 -15
109 -23 789 -11 880 6 41 12 110 14 153 2 42 7 80 11 84 8 8 63 12 199 12 80
1 99 4 104 17 10 27 -18 34 -132 34 -185 -2 -167 -6 -163 43 3 42 3 42 62 45
33 2 95 -1 139 -8 71 -10 82 -10 96 5 15 15 14 17 -3 31 -11 8 -28 14 -39 14
-18 0 -19 6 -13 98 15 247 19 621 7 683 -15 79 -36 125 -62 139 -115 62 -298
60 -273 -3 5 -14 22 -17 105 -17 106 0 140 -10 164 -47 18 -27 32 -147 19
-156 -5 -3 -49 1 -99 8 -93 14 -105 13 -105 -9 0 -13 26 -22 143 -47 64 -14
71 -24 65 -95 -3 -39 -3 -39 -77 -36 -41 2 -93 -2 -117 -8 -45 -13 -58 -29
-26 -31 49 -3 83 -6 143 -13 64 -7 67 -9 73 -37 3 -17 3 -112 -1 -212 -5 -148
-9 -184 -23 -199 -14 -15 -31 -17 -140 -13 -178 7 -164 1 -171 76 -7 69 -2
496 6 621 9 137 -24 221 -102 258 -42 19 -213 37 -240 24z"/>
</g>
</svg>
