<svg version="1.0" xmlns="http://www.w3.org/2000/svg"
 width="55.000000pt" height="121.000000pt" viewBox="0 0 55.000000 121.000000"
 preserveAspectRatio="xMidYMid meet">
<metadata>
Created by potrace 1.15, written by Peter Selinger 2001-2017
</metadata>
<g transform="translate(0.000000,121.000000) scale(0.100000,-0.100000)"
fill="#000000" stroke="none">
<path d="M275 1105 c-33 -7 -82 -14 -108 -14 -36 -1 -49 -5 -54 -18 -4 -10
-15 -25 -25 -33 -16 -13 -19 -33 -21 -160 -2 -134 0 -147 19 -175 76 -106 109
-189 153 -379 17 -72 70 -172 98 -185 13 -6 28 -21 33 -33 8 -18 9 -12 5 23
-5 36 -1 55 14 83 31 54 68 174 85 272 14 77 14 104 3 198 -11 89 -11 109 0
113 19 8 16 31 -7 45 -11 7 -20 23 -20 35 0 28 19 112 31 135 13 25 11 61 -3
81 -18 23 -127 30 -203 12z m155 -69 c0 -19 -4 -37 -9 -40 -5 -3 -12 -37 -16
-76 -7 -70 -7 -70 -61 -70 -49 0 -64 7 -48 22 3 4 6 46 7 94 2 98 4 101 90
103 36 1 37 0 37 -33z m-229 -3 c41 11 45 2 38 -94 -4 -49 -9 -92 -12 -95 -3
-4 -28 -3 -54 1 -49 6 -49 6 -49 96 1 65 4 89 13 89 7 0 13 5 13 11 0 8 5 8
15 -1 8 -7 24 -10 36 -7z m37 -345 c2 -68 -1 -98 -9 -98 -6 0 -13 9 -16 20 -3
11 -9 20 -14 20 -5 0 -9 4 -9 10 0 5 -18 37 -40 71 -22 34 -37 66 -34 71 3 5
31 8 62 6 57 -3 57 -3 60 -100z m176 70 c9 -52 9 -169 0 -177 -5 -5 -34 -5
-64 -2 -55 6 -55 6 -58 109 -3 102 -3 102 57 102 58 0 59 0 65 -32z m-4 -284
c0 -24 -9 -78 -19 -121 -11 -43 -22 -91 -26 -106 -8 -39 -24 -30 -48 28 -42
105 -47 153 -22 240 1 6 27 9 59 7 56 -4 56 -4 56 -48z"/>
</g>
</svg>
