<svg version="1.0" xmlns="http://www.w3.org/2000/svg"
 width="70.000000pt" height="75.000000pt" viewBox="0 0 70.000000 75.000000"
 preserveAspectRatio="xMidYMid meet">
<metadata>
Created by potrace 1.15, written by Peter Selinger 2001-2017
</metadata>
<g transform="translate(0.000000,75.000000) scale(0.100000,-0.100000)"
fill="#000000" stroke="none">
<path d="M152 551 c-49 -9 -71 -24 -50 -37 7 -5 49 -11 93 -14 80 -5 80 -5 83
-56 3 -51 3 -51 -78 -56 -77 -5 -115 -18 -91 -32 5 -4 46 -9 90 -13 81 -6 81
-6 81 -59 0 -54 0 -54 -84 -54 -60 0 -87 -4 -95 -14 -21 -25 17 -35 106 -29
81 6 81 6 76 -38 -8 -61 -19 -79 -50 -79 -48 0 -143 -24 -143 -36 0 -15 23
-24 63 -24 42 0 149 30 167 47 12 11 15 52 15 244 0 217 -1 231 -19 245 -21
15 -89 17 -164 5z"/>
<path d="M428 553 c-27 -7 -22 -32 8 -39 14 -4 49 -4 77 -1 62 8 77 -3 77 -54
0 -44 0 -44 -112 -54 -58 -6 -68 -9 -68 -26 0 -17 8 -19 89 -19 89 0 89 0 95
-31 14 -72 11 -77 -51 -84 -107 -11 -123 -15 -123 -31 0 -14 14 -15 93 -13 92
4 92 4 91 -40 -1 -61 -23 -76 -120 -84 -43 -4 -80 -10 -83 -13 -3 -3 3 -12 13
-20 42 -30 184 -6 214 37 14 20 17 54 20 224 3 192 3 202 -18 228 -20 26 -25
27 -103 26 -45 -1 -90 -3 -99 -6z"/>
</g>
</svg>
