<svg version="1.0" xmlns="http://www.w3.org/2000/svg"
 width="45.000000pt" height="79.000000pt" viewBox="0 0 45.000000 79.000000"
 preserveAspectRatio="xMidYMid meet">
<metadata>
Created by potrace 1.15, written by Peter Selinger 2001-2017
</metadata>
<g transform="translate(0.000000,79.000000) scale(0.100000,-0.100000)"
fill="#000000" stroke="none">
<path d="M126 614 c-9 -24 -30 -178 -29 -222 0 -18 9 -44 21 -60 30 -37 43
-68 53 -127 28 -161 37 -168 89 -68 19 38 47 87 62 110 30 44 38 119 17 140
-22 22 -13 91 21 154 23 43 29 64 22 71 -6 6 -65 13 -130 16 -109 4 -120 3
-126 -14z m101 -120 c-3 -42 -8 -78 -11 -81 -9 -10 -71 -8 -70 2 1 6 7 43 14
83 13 70 14 72 43 72 30 0 30 0 24 -76z m103 71 c0 -4 -7 -19 -15 -35 -22 -42
-45 -39 -45 5 0 32 2 35 30 35 17 0 30 -2 30 -5z m-48 -130 c-5 -29 -18 -41
-25 -22 -6 17 11 60 22 53 4 -3 6 -17 3 -31z m28 -116 c0 -29 -31 -90 -64
-124 -19 -20 -19 -20 -12 5 17 57 26 116 21 129 -3 7 3 19 12 26 24 18 43 1
43 -36z m-100 1 c0 -16 -2 -30 -4 -30 -3 0 -11 14 -20 30 -14 28 -13 30 5 30
14 0 19 -7 19 -30z"/>
</g>
</svg>
