<svg version="1.0" xmlns="http://www.w3.org/2000/svg"
 width="72.000000pt" height="88.000000pt" viewBox="0 0 72.000000 88.000000"
 preserveAspectRatio="xMidYMid meet">
<metadata>
Created by potrace 1.15, written by Peter Selinger 2001-2017
</metadata>
<g transform="translate(0.000000,88.000000) scale(0.100000,-0.100000)"
fill="#000000" stroke="none">
<path d="M235 679 c-4 -5 -2 -16 4 -23 6 -7 9 -20 6 -29 -9 -22 -76 -73 -107
-81 -16 -3 -28 -13 -28 -21 0 -8 3 -15 6 -15 15 0 103 57 136 88 36 34 38 34
82 23 25 -6 62 -11 83 -11 48 0 104 -28 120 -60 16 -31 16 -117 2 -229 -10
-79 -10 -90 10 -141 25 -66 38 -87 46 -78 4 4 -1 30 -10 59 -14 41 -16 70 -11
133 19 236 19 241 2 274 -25 48 -55 62 -158 73 -51 6 -112 19 -135 30 -27 11
-45 15 -48 8z"/>
<path d="M368 465 c-3 -96 -6 -114 -26 -142 -17 -24 -20 -33 -9 -33 17 0 39
25 55 63 20 47 52 33 77 -32 11 -30 26 -56 33 -59 17 -5 15 20 -4 68 -17 41
-17 41 15 68 28 23 32 31 26 55 -4 16 -19 34 -35 42 -19 10 -30 25 -33 42 -4
28 -4 28 -18 -4 -15 -36 -49 -46 -49 -15 0 10 -6 27 -14 37 -13 17 -15 7 -18
-90z m72 -25 c0 -18 -6 -33 -15 -37 -22 -8 -26 -1 -19 35 8 42 34 42 34 2z
m47 -8 c-14 -17 -22 0 -12 26 5 14 7 14 15 2 5 -9 4 -20 -3 -28z"/>
<path d="M234 518 c-49 -52 -84 -111 -84 -143 0 -36 18 -75 35 -75 12 0 13 9
8 46 -6 47 -6 47 30 40 42 -8 51 9 13 24 -31 11 -39 25 -23 38 8 7 18 7 27 2
31 -20 42 -3 15 23 -12 13 -12 17 5 32 18 16 19 15 34 -13 18 -36 12 -68 -24
-107 -44 -50 -62 -85 -76 -154 -17 -81 -18 -114 -2 -109 6 2 21 42 32 89 18
71 29 94 70 144 42 52 47 64 43 96 -4 32 -44 109 -57 109 -3 0 -24 -19 -46
-42z"/>
<path d="M314 269 c-9 -15 4 -24 54 -38 31 -9 42 -17 42 -31 0 -23 -8 -24 -45
-10 -18 7 -40 5 -80 -7 -69 -22 -66 -39 6 -35 30 2 64 -1 77 -5 23 -9 23 -9 2
-28 -13 -12 -36 -19 -69 -19 -57 -1 -69 -9 -50 -32 18 -22 99 -13 138 16 16
11 33 20 37 20 5 0 25 -19 45 -42 20 -24 40 -40 44 -36 4 4 -9 34 -29 66 -20
33 -36 69 -36 80 0 34 -18 70 -42 85 -31 20 -86 29 -94 16z"/>
</g>
</svg>
