<svg version="1.0" xmlns="http://www.w3.org/2000/svg"
 width="43.000000pt" height="89.000000pt" viewBox="0 0 43.000000 89.000000"
 preserveAspectRatio="xMidYMid meet">
<metadata>
Created by potrace 1.15, written by Peter Selinger 2001-2017
</metadata>
<g transform="translate(0.000000,89.000000) scale(0.100000,-0.100000)"
fill="#000000" stroke="none">
<path d="M290 670 c0 -36 -3 -40 -24 -40 -14 0 -28 -5 -31 -10 -5 -8 -11 -8
-19 -1 -8 7 -16 7 -23 0 -6 -6 -19 -6 -38 1 -16 6 -31 7 -35 3 -13 -16 -34
-141 -46 -275 -5 -51 -3 -58 18 -72 13 -9 39 -19 57 -22 29 -6 32 -10 26 -33
-4 -14 -11 -27 -16 -29 -23 -9 -6 -21 21 -15 33 6 37 -2 15 -31 -33 -43 -5
-50 31 -9 13 16 24 36 24 47 0 22 39 96 60 113 8 7 30 13 48 13 41 0 41 14 2
77 -27 44 -29 51 -18 86 9 29 9 46 0 71 -7 18 -12 62 -12 99 0 60 -2 67 -20
67 -17 0 -20 -7 -20 -40z m15 -209 c-5 -39 -3 -57 12 -82 15 -27 16 -33 3 -37
-8 -3 -27 -18 -42 -34 -26 -28 -27 -28 -37 -9 -16 30 -17 61 -1 116 13 48 44
95 63 95 5 0 6 -21 2 -49z m-103 -41 c-5 -38 -25 -34 -32 6 -4 19 -8 25 -13
17 -11 -17 -27 -16 -27 1 0 8 10 22 23 31 20 14 23 14 38 -4 10 -12 14 -31 11
-51z m-32 -91 c15 -26 9 -32 -24 -23 -17 4 -26 13 -26 25 0 26 36 25 50 -2z"/>
</g>
</svg>
