<svg version="1.0" xmlns="http://www.w3.org/2000/svg"
 width="75.000000pt" height="133.000000pt" viewBox="0 0 75.000000 133.000000"
 preserveAspectRatio="xMidYMid meet">
<metadata>
Created by potrace 1.15, written by Peter Selinger 2001-2017
</metadata>
<g transform="translate(0.000000,133.000000) scale(0.100000,-0.100000)"
fill="#000000" stroke="none">
<path d="M174 899 c3 -74 8 -231 11 -349 6 -261 24 -472 39 -467 11 4 15 14
38 99 13 51 31 61 54 31 18 -24 17 -43 -1 -43 -8 0 -15 -4 -15 -10 0 -5 5 -10
11 -10 5 0 15 -14 20 -30 13 -35 25 -38 34 -10 5 15 12 19 26 15 11 -4 19 -2
19 5 0 6 16 26 35 46 19 19 35 39 35 44 0 14 47 58 69 65 24 7 36 35 16 35
-22 0 -18 26 7 50 25 23 47 26 49 8 1 -7 3 -22 4 -33 1 -11 2 -28 3 -37 1 -10
7 -18 12 -18 6 0 10 30 10 70 0 60 3 70 18 70 16 1 16 1 0 14 -11 8 -18 26
-18 46 0 43 -21 111 -31 104 -5 -3 -9 -24 -9 -47 -1 -42 -1 -42 -30 -7 -16 19
-30 42 -30 51 0 8 -5 20 -10 25 -6 6 -15 47 -20 92 -5 46 -16 92 -24 103 -9
13 -12 34 -9 60 6 40 -12 99 -29 99 -6 0 -8 -14 -4 -34 9 -46 0 -64 -32 -62
-42 2 -52 14 -52 60 0 42 -18 96 -32 96 -5 0 -8 -15 -8 -34 0 -20 -6 -36 -14
-39 -8 -3 -20 -23 -25 -44 -6 -21 -16 -45 -21 -53 -9 -13 -12 -12 -23 5 -6 11
-15 36 -19 55 -16 84 -24 105 -42 108 -18 4 -19 -3 -12 -129z m156 -84 c0 -19
-2 -35 -5 -35 -10 0 -24 40 -19 54 11 28 24 17 24 -19z m102 2 c11 -17 -2 -79
-20 -100 -23 -26 -34 -8 -38 63 -5 62 -5 62 23 55 15 -3 31 -12 35 -18z m-182
-37 c0 -10 -4 -22 -10 -25 -6 -4 -10 7 -10 25 0 18 4 29 10 25 6 -3 10 -15 10
-25z m234 -110 c8 -81 48 -177 89 -211 22 -19 22 -19 2 -31 -32 -19 -84 -79
-87 -102 -2 -13 -18 -28 -41 -39 -67 -33 -68 -31 -67 183 1 169 3 192 18 197
32 11 52 36 58 71 9 49 20 23 28 -68z m-172 45 c9 -19 7 -34 -7 -72 -23 -61
-21 -60 -45 -38 -24 21 -26 58 -5 75 8 7 15 20 15 30 0 37 26 40 42 5z m6
-248 c3 -16 -26 -127 -34 -127 -36 0 -46 63 -18 119 17 35 46 39 52 8z m12
-173 c0 -21 -4 -33 -10 -29 -5 3 -10 19 -10 36 0 16 5 29 10 29 6 0 10 -16 10
-36z m-60 -15 c0 -5 -4 -9 -10 -9 -5 0 -10 7 -10 16 0 8 5 12 10 9 6 -3 10
-10 10 -16z m143 -63 c3 -12 -30 -32 -39 -24 -11 12 5 40 21 36 9 -2 17 -7 18
-12z"/>
</g>
</svg>
