<svg version="1.0" xmlns="http://www.w3.org/2000/svg"
 width="65.000000pt" height="109.000000pt" viewBox="0 0 65.000000 109.000000"
 preserveAspectRatio="xMidYMid meet">
<metadata>
Created by potrace 1.15, written by Peter Selinger 2001-2017
</metadata>
<g transform="translate(0.000000,109.000000) scale(0.100000,-0.100000)"
fill="#000000" stroke="none">
<path d="M432 1003 c2 -20 9 -29 25 -31 12 -2 32 -14 46 -27 28 -28 58 -114
50 -143 -6 -24 -104 -92 -132 -92 -11 0 -23 -5 -26 -11 -19 -30 43 -30 108 0
27 12 50 21 51 19 2 -2 -2 -39 -7 -83 -15 -119 -14 -330 1 -405 8 -36 17 -83
22 -105 10 -52 20 -75 32 -75 12 0 6 63 -13 165 -24 125 -17 293 21 513 9 52
8 75 -5 130 -31 127 -68 172 -140 172 -34 0 -36 -2 -33 -27z"/>
<path d="M154 1008 c-8 -13 -7 -191 2 -243 4 -28 0 -33 -56 -68 -86 -54 -93
-77 -80 -231 6 -67 15 -159 21 -206 6 -47 13 -104 15 -127 4 -30 12 -46 25
-54 12 -6 23 -8 26 -5 3 2 1 59 -5 126 -10 121 -3 170 24 170 6 0 36 21 66 48
83 72 150 127 159 130 4 2 10 -5 13 -15 9 -27 26 -247 26 -335 0 -66 3 -79 19
-88 12 -6 22 -6 26 -1 9 16 -4 431 -15 451 -5 10 -10 30 -10 43 0 14 -16 42
-37 66 -30 32 -50 44 -93 55 -55 13 -55 13 -62 77 -8 73 -6 76 64 85 86 12 60
54 -33 54 -36 0 -39 2 -39 28 0 43 -38 70 -56 40z m147 -359 c27 -19 40 -49
21 -49 -5 0 -34 -24 -64 -53 -30 -29 -70 -64 -89 -77 -19 -13 -40 -32 -47 -42
-29 -39 -40 -21 -47 77 -7 84 -5 98 10 115 20 22 89 44 111 36 7 -3 16 -1 19
4 10 17 56 11 86 -11z"/>
</g>
</svg>
