<svg version="1.0" xmlns="http://www.w3.org/2000/svg"
 width="51.000000pt" height="67.000000pt" viewBox="0 0 51.000000 67.000000"
 preserveAspectRatio="xMidYMid meet">
<metadata>
Created by potrace 1.15, written by Peter Selinger 2001-2017
</metadata>
<g transform="translate(0.000000,67.000000) scale(0.100000,-0.100000)"
fill="#000000" stroke="none">
<path d="M210 520 c0 -48 -1 -50 -29 -50 -18 0 -31 6 -36 18 -6 16 -7 16 -19
0 -6 -9 -23 -18 -36 -20 -31 -4 -33 -32 -2 -36 24 -4 25 -7 24 -137 0 -129 0
-125 -26 -125 -25 0 -51 -22 -39 -33 3 -4 19 -7 35 -7 24 0 28 -4 28 -30 0
-16 5 -30 10 -30 6 0 10 8 10 18 0 10 5 23 12 30 15 15 108 16 108 1 0 -5 10
-3 22 5 12 9 37 16 54 16 28 0 32 -4 38 -35 9 -45 26 -45 26 -1 0 32 2 35 41
41 45 8 37 25 -12 25 -25 0 -26 2 -32 77 -4 43 -10 99 -13 126 -6 43 -5 47 15
47 30 0 26 16 -9 30 -25 10 -30 18 -30 45 0 21 -6 35 -16 39 -24 9 -24 9 -24
-30 0 -33 -2 -35 -27 -32 -18 2 -27 8 -25 18 2 8 1 29 -3 47 -4 24 -11 33 -25
33 -17 0 -20 -7 -20 -50z m-27 -102 c14 -11 15 -20 6 -61 -17 -76 6 -107 31
-42 27 68 44 33 30 -62 -5 -36 -13 -70 -18 -75 -5 -5 -24 -8 -42 -6 -32 3 -32
3 -36 131 -2 70 0 127 4 127 5 0 16 -6 25 -12z m155 -73 c6 -35 12 -87 12
-115 0 -49 0 -50 -31 -50 -32 0 -32 0 -24 43 18 112 19 106 -14 148 -32 39
-32 39 6 39 38 0 38 0 51 -65z"/>
</g>
</svg>
