<svg version="1.0" xmlns="http://www.w3.org/2000/svg"
 width="91.000000pt" height="107.000000pt" viewBox="0 0 91.000000 107.000000"
 preserveAspectRatio="xMidYMid meet">
<metadata>
Created by potrace 1.15, written by Peter Selinger 2001-2017
</metadata>
<g transform="translate(0.000000,107.000000) scale(0.100000,-0.100000)"
fill="#000000" stroke="none">
<path d="M160 975 c-10 -20 -11 -33 -2 -64 7 -21 12 -97 12 -168 0 -130 0
-130 -27 -144 -84 -43 -107 -129 -92 -349 11 -160 15 -180 41 -180 18 0 20 4
14 43 -3 23 -9 106 -12 183 -6 123 -4 148 12 189 14 39 25 51 58 66 54 24 106
24 160 -1 40 -19 44 -25 50 -67 3 -25 6 -51 6 -58 0 -6 -45 -31 -100 -55 -97
-42 -124 -68 -64 -62 31 2 94 18 132 33 31 12 42 4 42 -29 0 -15 7 -52 15 -82
8 -30 15 -67 15 -82 0 -15 5 -39 10 -53 9 -23 13 -25 26 -14 13 11 15 32 10
138 -8 199 -31 316 -67 349 -17 17 -38 25 -129 50 -23 7 -25 12 -28 80 -3 72
-3 72 108 72 106 0 150 9 150 30 0 6 -40 10 -94 10 -147 0 -176 18 -176 111 0
74 -42 107 -70 54z"/>
<path d="M710 876 c0 -7 13 -27 29 -44 54 -56 77 -121 72 -203 -1 -9 -13 -22
-28 -30 -16 -8 -30 -16 -33 -19 -12 -12 -68 -48 -110 -71 -143 -77 -47 -72
125 6 30 14 56 25 59 25 3 0 3 -109 0 -243 -5 -207 -3 -245 9 -262 32 -41 38
-5 47 256 5 140 12 277 16 304 11 91 -46 207 -131 265 -49 34 -55 36 -55 16z"/>
</g>
</svg>
