<svg version="1.0" xmlns="http://www.w3.org/2000/svg"
 width="53.000000pt" height="73.000000pt" viewBox="0 0 53.000000 73.000000"
 preserveAspectRatio="xMidYMid meet">
<metadata>
Created by potrace 1.15, written by Peter Selinger 2001-2017
</metadata>
<g transform="translate(0.000000,73.000000) scale(0.100000,-0.100000)"
fill="#000000" stroke="none">
<path d="M370 526 c0 -30 -4 -37 -25 -42 -18 -4 -32 -1 -45 11 -18 16 -20 16
-35 1 -20 -19 -59 -30 -80 -22 -8 3 -15 17 -15 31 0 14 -4 25 -8 25 -12 0 -42
-34 -42 -47 0 -6 -10 -17 -23 -26 -22 -15 -22 -15 4 -25 24 -9 26 -17 38 -121
8 -62 11 -114 7 -118 -3 -3 -22 -9 -41 -12 -47 -8 -45 -25 3 -29 35 -3 39 -6
51 -47 17 -58 31 -57 31 0 0 45 0 45 35 45 31 0 36 -3 42 -30 7 -40 21 -38 25
3 3 30 6 32 48 38 25 3 50 4 55 2 6 -2 17 -24 24 -48 19 -66 36 -70 27 -6 -5
41 -4 52 9 57 21 9 19 31 -5 37 -16 4 -20 14 -21 54 -1 26 -3 80 -5 119 -3 55
-1 74 11 84 17 14 20 50 5 50 -5 0 -10 -4 -10 -10 0 -21 -18 -9 -30 20 -18 44
-30 46 -30 6z m-14 -84 c15 -10 22 -36 29 -107 3 -33 8 -76 11 -96 5 -36 5
-36 -43 -42 -26 -3 -51 -2 -55 1 -13 12 -40 133 -33 149 5 14 10 12 33 -10 24
-23 52 -36 52 -24 0 11 -33 67 -45 77 -22 18 -18 39 8 50 28 11 30 11 43 2z
m-121 -22 c4 -6 0 -23 -8 -39 -12 -25 -12 -35 4 -87 27 -86 25 -104 -9 -104
-29 0 -29 0 -35 108 -6 93 -4 109 10 120 20 15 30 15 38 2z"/>
</g>
</svg>
