<svg version="1.0" xmlns="http://www.w3.org/2000/svg"
 width="75.000000pt" height="113.000000pt" viewBox="0 0 75.000000 113.000000"
 preserveAspectRatio="xMidYMid meet">
<metadata>
Created by potrace 1.15, written by Peter Selinger 2001-2017
</metadata>
<g transform="translate(0.000000,113.000000) scale(0.100000,-0.100000)"
fill="#000000" stroke="none">
<path d="M569 959 c-24 -28 -48 -58 -53 -67 -5 -9 -14 -21 -18 -27 -5 -5 -18
-25 -29 -44 -19 -32 -21 -33 -40 -16 -10 10 -19 24 -19 32 0 7 -4 13 -9 13 -5
0 -12 9 -16 20 -7 22 -75 94 -104 109 -14 8 -23 5 -39 -9 -12 -11 -24 -20 -27
-20 -11 0 -89 -56 -126 -91 -39 -37 -62 -73 -52 -82 8 -8 80 31 113 61 14 12
33 25 43 28 9 3 17 9 17 13 0 4 12 13 26 20 23 10 30 8 60 -14 19 -14 34 -29
34 -34 0 -4 8 -16 18 -27 23 -26 62 -82 62 -89 0 -3 -15 -5 -32 -5 -34 0 -113
-21 -146 -39 -12 -7 -22 -25 -25 -48 -29 -191 -56 -308 -93 -395 -27 -65 -26
-92 3 -81 43 15 49 26 104 209 5 17 9 44 9 60 1 46 50 65 195 75 209 15 233
22 279 82 30 39 32 57 10 98 -21 41 -68 59 -154 59 -40 0 -70 4 -70 10 0 6 5
10 10 10 6 0 10 6 10 14 0 14 32 56 83 107 33 34 50 75 42 100 -9 28 -17 24
-66 -32z m-59 -356 c0 -29 -4 -33 -37 -42 -20 -6 -38 -9 -39 -8 -1 1 -5 30 -9
64 -7 62 -7 62 27 65 27 2 35 -1 45 -22 7 -14 12 -39 13 -57z m140 48 c0 -42
-11 -56 -53 -66 -27 -7 -27 -7 -27 49 0 56 0 56 40 56 40 0 40 0 40 -39z
m-290 -45 c0 -54 0 -54 -46 -61 -60 -9 -69 1 -51 56 15 43 32 57 75 58 20 1
22 -3 22 -53z"/>
<path d="M480 454 c-8 -8 -44 -36 -80 -62 -36 -26 -66 -55 -68 -65 -6 -29 45
-21 89 14 44 34 69 33 69 -5 0 -14 7 -51 16 -83 9 -32 18 -85 20 -118 5 -78
20 -108 47 -93 18 9 19 17 13 112 -13 203 -23 285 -35 300 -16 20 -51 19 -71
0z"/>
</g>
</svg>
