<svg version="1.0" xmlns="http://www.w3.org/2000/svg"
 width="67.000000pt" height="117.000000pt" viewBox="0 0 67.000000 117.000000"
 preserveAspectRatio="xMidYMid meet">
<metadata>
Created by potrace 1.15, written by Peter Selinger 2001-2017
</metadata>
<g transform="translate(0.000000,117.000000) scale(0.100000,-0.100000)"
fill="#000000" stroke="none">
<path d="M190 1031 c-57 -12 -96 -41 -119 -88 -43 -90 -9 -132 36 -45 37 71
68 92 134 92 53 0 83 -30 75 -74 -3 -16 -6 -34 -6 -40 0 -7 -10 -23 -22 -35
-19 -21 -27 -23 -80 -17 -66 7 -75 -4 -25 -34 54 -33 135 -19 156 28 8 15 17
35 22 44 5 10 9 29 9 43 0 35 16 31 29 -6 27 -77 -1 -199 -68 -297 -22 -33
-41 -66 -41 -72 0 -6 -21 -43 -48 -83 -88 -134 -120 -228 -100 -305 19 -77 70
-112 163 -112 76 0 207 66 291 148 8 7 14 28 14 45 0 33 0 33 -100 -63 -8 -8
-107 -60 -114 -60 -14 0 -75 69 -81 91 -12 46 38 130 84 142 29 7 61 -8 61
-28 0 -8 5 -15 10 -15 6 0 10 5 10 10 0 6 7 10 15 10 18 0 20 31 3 48 -16 16
-108 15 -149 -2 -22 -9 -43 -30 -58 -56 -26 -47 -25 -98 2 -179 15 -43 15 -43
-19 -38 -19 3 -41 13 -49 21 -29 28 -46 85 -39 124 8 41 54 136 96 199 15 23
28 44 28 48 0 5 39 64 50 75 5 5 31 52 68 125 43 83 50 219 14 277 -38 62
-158 99 -252 79z"/>
</g>
</svg>
