<svg version="1.0" xmlns="http://www.w3.org/2000/svg"
 width="41.000000pt" height="123.000000pt" viewBox="0 0 41.000000 123.000000"
 preserveAspectRatio="xMidYMid meet">
<metadata>
Created by potrace 1.15, written by Peter Selinger 2001-2017
</metadata>
<g transform="translate(0.000000,123.000000) scale(0.100000,-0.100000)"
fill="#000000" stroke="none">
<path d="M110 1084 c0 -8 40 -64 63 -89 11 -11 37 -46 58 -77 39 -57 39 -57
15 -82 -30 -33 -94 -36 -120 -7 -16 18 -16 23 -2 65 35 103 6 132 -39 40 -22
-45 -26 -63 -20 -99 11 -79 89 -108 177 -65 23 11 43 20 44 20 1 0 4 -18 6
-40 2 -22 1 -40 -2 -40 -3 0 -14 -17 -25 -37 -11 -21 -40 -69 -65 -108 -105
-161 -130 -263 -96 -390 31 -118 58 -121 44 -5 -9 78 -4 152 13 208 9 26 16
32 40 32 35 0 37 -11 10 -113 -33 -126 -33 -127 -16 -127 8 0 15 4 15 8 0 5
10 14 23 21 34 18 75 87 83 137 8 59 -9 104 -51 132 -19 12 -35 27 -35 33 0 6
13 29 29 52 16 23 43 69 61 102 28 52 32 67 28 120 -4 60 -8 69 -85 170 -5 6
-21 30 -37 55 -46 69 -67 90 -93 90 -13 0 -23 -3 -23 -6z"/>
</g>
</svg>
