<svg version="1.0" xmlns="http://www.w3.org/2000/svg"
 width="97.000000pt" height="107.000000pt" viewBox="0 0 97.000000 107.000000"
 preserveAspectRatio="xMidYMid meet">
<metadata>
Created by potrace 1.15, written by Peter Selinger 2001-2017
</metadata>
<g transform="translate(0.000000,107.000000) scale(0.100000,-0.100000)"
fill="#000000" stroke="none">
<path d="M138 882 c-39 -24 -71 -103 -65 -161 8 -66 16 -83 41 -79 17 2 22 12
26 48 10 82 39 112 120 128 49 9 58 8 101 -15 48 -25 63 -47 75 -114 7 -45 -7
-74 -46 -94 -41 -21 -73 -11 -88 28 -30 73 -53 85 -59 29 -3 -18 -10 -53 -17
-77 -13 -41 -12 -45 9 -65 13 -12 32 -20 46 -18 13 2 52 -6 86 -17 63 -20 63
-20 63 -128 0 -67 5 -115 13 -129 14 -26 85 -98 96 -98 4 0 21 -11 37 -25 42
-37 112 -67 136 -59 14 4 18 2 14 -5 -8 -12 24 -15 62 -5 25 7 40 48 23 67 -6
8 -30 20 -53 27 -24 7 -47 17 -52 22 -6 4 -18 8 -28 8 -10 0 -42 24 -73 52
-50 48 -55 57 -55 95 0 47 -2 46 80 44 60 -2 71 3 89 36 17 34 14 130 -5 137
-31 12 -41 5 -53 -36 -13 -41 -32 -68 -48 -68 -4 0 -20 12 -35 25 -23 20 -28
32 -28 72 1 26 7 71 14 98 14 50 14 50 57 47 35 -3 49 -11 73 -39 34 -40 74
-63 110 -63 14 0 28 -5 31 -10 9 -15 35 14 45 50 8 28 6 33 -32 61 -23 16 -53
32 -67 36 -14 4 -48 19 -74 35 -27 16 -69 31 -94 35 -33 4 -58 17 -89 44 -24
21 -61 46 -82 54 -20 9 -52 23 -69 31 -47 20 -200 18 -235 -4z"/>
</g>
</svg>
