<svg version="1.0" xmlns="http://www.w3.org/2000/svg"
 width="67.000000pt" height="83.000000pt" viewBox="0 0 67.000000 83.000000"
 preserveAspectRatio="xMidYMid meet">
<metadata>
Created by potrace 1.15, written by Peter Selinger 2001-2017
</metadata>
<g transform="translate(0.000000,83.000000) scale(0.100000,-0.100000)"
fill="#000000" stroke="none">
<path d="M536 603 c-4 -5 -58 -10 -119 -13 -91 -4 -112 -8 -112 -20 0 -23 273
-28 281 -5 11 28 -30 58 -50 38z"/>
<path d="M133 583 c-25 -5 -31 -28 -10 -36 13 -5 113 2 136 9 11 3 11 7 1 19
-12 15 -74 18 -127 8z"/>
<path d="M323 513 c-8 -3 -13 -23 -13 -50 0 -41 3 -46 30 -56 35 -13 36 -37 2
-52 -27 -12 -29 -35 -3 -35 28 0 35 -28 8 -32 -12 -2 -23 -11 -25 -20 -4 -23
38 -30 163 -26 86 3 100 5 103 21 3 13 -3 17 -26 17 -18 0 -32 6 -36 16 -9 22
1 34 30 34 15 0 24 6 24 15 0 9 -9 15 -25 15 -14 0 -26 5 -26 10 -1 6 -2 15
-3 20 -1 6 10 16 24 23 31 16 39 66 14 92 -13 13 -27 16 -58 11 -22 -4 -46
-12 -53 -18 -21 -17 -16 -76 7 -90 28 -18 27 -58 -2 -58 -38 0 -51 15 -45 46
18 87 19 95 7 109 -12 14 -70 19 -97 8z m77 -48 c0 -21 -5 -25 -30 -25 -25 0
-30 4 -30 25 0 21 5 25 30 25 25 0 30 -4 30 -25z m138 -7 c-2 -17 -11 -24 -30
-26 -24 -3 -28 0 -28 22 0 22 4 26 31 26 26 0 30 -3 27 -22z m-58 -153 c0 -10
-11 -15 -35 -15 -33 0 -43 8 -28 23 13 14 63 7 63 -8z"/>
<path d="M74 485 c-9 -21 5 -37 27 -30 16 5 19 1 19 -27 0 -20 8 -43 20 -56
20 -21 29 -92 12 -92 -18 0 -32 26 -32 58 0 26 -4 33 -17 30 -13 -2 -19 -15
-21 -47 -4 -50 17 -81 55 -81 19 0 23 -5 23 -30 0 -20 -5 -30 -15 -30 -9 0
-15 9 -15 21 0 14 -5 19 -17 17 -15 -3 -18 -16 -21 -80 -3 -68 0 -79 19 -97
34 -31 131 -30 153 1 19 27 22 148 4 166 -18 18 -28 15 -28 -8 0 -11 -7 -20
-15 -20 -10 0 -15 10 -15 30 0 25 4 30 24 30 46 0 73 73 43 115 -18 23 -37 11
-37 -24 0 -26 -16 -51 -32 -51 -4 0 -8 17 -8 39 0 30 5 42 25 55 19 12 25 25
25 52 0 22 6 37 15 40 8 4 15 12 15 20 0 21 -198 20 -206 -1z m136 -38 c0 -22
-26 -51 -38 -43 -7 4 -12 18 -12 32 0 19 5 24 25 24 14 0 25 -6 25 -13z m28
-340 c3 -38 3 -38 -45 -35 -48 3 -48 3 -51 41 -3 38 -3 38 45 35 48 -3 48 -3
51 -41z"/>
<path d="M321 186 c-18 -21 -11 -121 9 -121 11 0 16 14 18 58 2 42 7 57 17 57
11 0 15 -13 15 -54 0 -59 7 -66 63 -66 47 0 77 11 77 26 0 10 -14 14 -50 14
-29 0 -50 5 -50 11 0 7 11 8 30 4 26 -6 30 -3 36 19 4 16 13 26 25 26 15 0 18
-9 21 -57 3 -50 6 -58 23 -58 18 0 20 8 23 63 4 80 -6 94 -67 90 -37 -2 -48
-8 -56 -25 -5 -13 -14 -23 -20 -23 -6 0 -15 10 -20 23 -12 27 -75 36 -94 13z"/>
</g>
</svg>
