<svg version="1.0" xmlns="http://www.w3.org/2000/svg"
 width="63.000000pt" height="113.000000pt" viewBox="0 0 63.000000 113.000000"
 preserveAspectRatio="xMidYMid meet">
<metadata>
Created by potrace 1.15, written by Peter Selinger 2001-2017
</metadata>
<g transform="translate(0.000000,113.000000) scale(0.100000,-0.100000)"
fill="#000000" stroke="none">
<path d="M223 979 c-16 -18 -32 -37 -38 -43 -5 -6 -16 -23 -24 -38 -8 -15 -18
-25 -22 -22 -9 5 -23 -15 -24 -32 0 -7 -15 -29 -34 -49 -18 -21 -29 -40 -24
-44 5 -3 12 -14 16 -23 10 -27 40 -22 72 12 30 31 84 42 87 18 1 -16 3 -24 13
-71 4 -21 5 -40 2 -43 -3 -3 -19 2 -36 10 -36 19 -81 21 -81 4 1 -7 27 -35 60
-63 52 -44 59 -54 59 -87 1 -55 21 -47 55 22 18 37 36 60 46 60 17 0 66 49 88
89 12 20 12 25 0 32 -18 12 -24 11 -42 -6 -8 -8 -21 -15 -28 -15 -7 0 -19 -9
-26 -20 -7 -11 -19 -20 -27 -20 -16 0 -20 34 -9 89 7 31 7 31 75 31 39 0 69
-4 69 -10 0 -17 50 -11 57 7 5 11 -9 30 -48 65 -30 27 -58 52 -62 56 -4 4 -22
23 -40 42 -36 40 -85 80 -98 80 -5 0 -21 -14 -36 -31z m107 -125 c0 -8 -11
-11 -35 -8 -21 2 -35 0 -35 -7 0 -6 -8 -3 -17 7 -16 16 -15 18 12 40 29 23 29
23 52 2 13 -12 23 -27 23 -34z"/>
<path d="M474 478 c4 -18 10 -50 13 -70 5 -37 4 -38 -26 -38 -17 0 -31 4 -31
8 0 5 -11 14 -25 20 -31 14 -43 -4 -26 -37 6 -11 11 -31 11 -45 0 -14 5 -26
11 -26 22 0 3 -88 -25 -117 -14 -14 -26 -30 -26 -34 0 -5 -9 -9 -19 -9 -11 0
-23 -4 -26 -10 -12 -19 -79 -11 -107 14 -25 21 -28 30 -28 85 0 33 4 61 8 61
12 0 33 50 27 61 -4 5 -19 9 -34 9 -15 0 -35 8 -44 18 -14 16 -14 19 3 42 25
32 25 48 -2 71 -20 18 -22 18 -42 2 -30 -25 -35 -33 -46 -74 -8 -28 -6 -43 6
-68 9 -18 22 -35 30 -38 10 -4 14 -27 14 -89 0 -46 4 -84 9 -84 5 0 12 -9 16
-19 9 -28 55 -74 89 -89 61 -27 201 21 255 89 26 32 31 46 30 86 -1 26 -6 56
-11 67 -8 14 -4 22 18 40 61 46 76 66 69 89 -4 12 -9 33 -12 46 -8 34 -43 71
-66 71 -16 0 -18 -5 -13 -32z"/>
<path d="M356 423 c-9 -22 -7 -24 12 -15 9 5 23 7 30 5 6 -3 12 0 12 5 0 16
-48 21 -54 5z"/>
</g>
</svg>
