<svg version="1.0" xmlns="http://www.w3.org/2000/svg"
 width="63.000000pt" height="84.000000pt" viewBox="0 0 63.000000 84.000000"
 preserveAspectRatio="xMidYMid meet">
<metadata>
Created by potrace 1.15, written by Peter Selinger 2001-2017
</metadata>
<g transform="translate(0.000000,84.000000) scale(0.100000,-0.100000)"
fill="#000000" stroke="none">
<path d="M83 610 c-38 -16 -28 -37 20 -43 24 -3 53 -4 65 0 30 7 55 -14 42
-37 -7 -13 -28 -19 -90 -24 -98 -9 -104 -28 -12 -36 80 -7 95 -21 44 -44 -95
-43 -114 -88 -110 -263 2 -97 6 -118 18 -118 19 0 25 76 12 156 -5 31 -5 64
-1 75 4 10 12 33 19 50 8 23 25 37 61 54 27 13 52 21 55 17 14 -13 -8 -53 -39
-72 -28 -18 -34 -29 -44 -85 -14 -77 -16 -169 -4 -189 5 -7 15 -11 22 -9 10 3
14 31 14 115 0 117 9 143 48 143 17 0 19 -5 14 -37 -3 -21 -9 -82 -13 -135 -6
-88 -5 -98 10 -98 9 0 19 6 21 13 3 6 7 106 9 222 3 116 8 235 12 265 5 45 3
58 -10 69 -20 17 -133 24 -163 11z"/>
<path d="M367 601 c-54 -9 -49 -25 11 -34 52 -8 59 -17 46 -51 -4 -11 -19 -16
-50 -16 -66 0 -71 -14 -77 -215 -3 -93 -2 -181 2 -195 13 -47 56 -60 164 -53
82 5 97 9 97 23 0 15 -13 17 -101 18 -61 0 -106 5 -113 12 -15 15 -21 306 -7
343 10 26 12 27 91 27 80 0 80 0 80 -58 0 -66 -11 -82 -56 -82 -59 0 -57 65 2
76 49 9 37 29 -16 27 -23 -1 -45 -4 -48 -7 -3 -3 -7 -28 -10 -56 -6 -67 6 -80
75 -80 44 0 58 5 78 25 22 21 25 33 25 90 0 82 -11 105 -50 105 -37 0 -46 15
-29 47 12 23 11 27 -10 44 -24 19 -38 21 -104 10z"/>
<path d="M415 203 c-19 -27 -35 -54 -35 -60 0 -24 25 -13 53 23 32 39 45 36
73 -18 16 -31 41 -37 51 -12 4 11 -7 27 -36 51 -22 20 -41 42 -41 49 0 29 -31
12 -65 -33z"/>
</g>
</svg>
