<svg version="1.0" xmlns="http://www.w3.org/2000/svg"
 width="74.000000pt" height="122.000000pt" viewBox="0 0 74.000000 122.000000"
 preserveAspectRatio="xMidYMid meet">
<metadata>
Created by potrace 1.15, written by Peter Selinger 2001-2017
</metadata>
<g transform="translate(0.000000,122.000000) scale(0.100000,-0.100000)"
fill="#000000" stroke="none">
<path d="M168 933 c-3 -99 -5 -108 -23 -111 -44 -7 -75 -25 -75 -43 0 -14 7
-19 29 -19 17 0 33 5 36 10 4 6 11 7 17 4 28 -17 -42 -186 -91 -219 -38 -25
-59 -61 -44 -76 15 -15 65 15 86 50 8 14 27 40 41 56 25 29 27 29 54 15 22
-13 28 -24 30 -59 2 -23 -1 -48 -6 -54 -6 -7 -25 -41 -42 -76 -32 -63 -33 -67
-31 -185 2 -151 10 -191 36 -191 18 0 20 6 17 50 -12 213 -13 258 -3 268 6 6
11 17 11 25 0 7 14 33 30 57 17 24 30 50 30 59 0 8 5 18 10 21 25 15 9 59 -36
102 -25 23 -50 43 -55 43 -6 0 -6 7 0 18 5 10 12 37 14 61 4 44 18 61 50 61
14 0 17 -9 17 -45 0 -55 17 -95 42 -95 21 0 25 39 7 57 -19 19 -16 143 4 181
14 26 16 37 6 48 -21 25 -35 15 -48 -35 -14 -55 -32 -76 -57 -67 -13 5 -15 18
-10 77 6 76 -5 119 -28 119 -13 0 -16 -20 -18 -107z"/>
<path d="M350 1028 c1 -7 14 -29 30 -48 29 -33 30 -38 30 -136 0 -88 -3 -103
-20 -119 -17 -16 -20 -31 -20 -112 0 -138 17 -167 113 -197 15 -5 17 -12 12
-38 -9 -45 -43 -77 -85 -80 -35 -3 -35 -3 -35 56 0 36 -5 61 -12 63 -26 9 -19
-214 8 -245 13 -16 36 -20 135 -25 118 -6 118 -6 147 -38 15 -18 31 -46 34
-60 5 -28 32 -49 34 -26 0 7 2 23 5 35 5 27 -24 72 -65 101 -21 15 -50 21
-123 25 -158 9 -188 34 -95 80 28 14 59 31 68 37 12 9 23 8 49 -5 18 -9 38
-16 44 -16 6 0 22 -9 36 -20 29 -23 56 -26 63 -7 6 16 -16 47 -32 47 -7 0 -37
12 -67 27 -51 25 -55 29 -52 57 2 24 8 32 27 34 13 2 33 12 44 23 12 10 26 19
32 19 18 0 60 104 49 122 -3 4 -7 35 -9 67 -4 60 -32 111 -62 111 -12 0 -18
25 -15 60 3 26 3 44 -1 80 -4 43 13 81 47 104 32 20 33 36 3 36 -32 0 -97 -56
-97 -84 0 -19 -7 -25 -37 -30 -73 -12 -83 -9 -83 23 0 22 -10 38 -37 60 -39
33 -63 40 -63 19z m189 -154 c30 -6 31 -9 31 -54 0 -53 -8 -60 -70 -60 -44 0
-48 7 -42 73 4 51 11 55 81 41z m83 -166 c9 -7 19 -23 23 -35 9 -31 -14 -39
-137 -48 -98 -7 -98 -7 -98 23 0 16 7 35 16 42 32 27 169 39 196 18z m24 -133
c7 -17 -12 -69 -31 -85 -6 -5 -41 -14 -76 -19 -49 -6 -66 -5 -77 5 -7 8 -19
17 -27 21 -8 5 -16 24 -17 43 -3 35 -3 35 77 41 144 10 145 10 151 -6z"/>
</g>
</svg>
