<svg version="1.0" xmlns="http://www.w3.org/2000/svg"
 width="85.000000pt" height="105.000000pt" viewBox="0 0 85.000000 105.000000"
 preserveAspectRatio="xMidYMid meet">
<metadata>
Created by potrace 1.15, written by Peter Selinger 2001-2017
</metadata>
<g transform="translate(0.000000,105.000000) scale(0.100000,-0.100000)"
fill="#000000" stroke="none">
<path d="M610 929 c-43 -19 -73 -35 -238 -121 -40 -21 -84 -38 -98 -38 -13 0
-24 -4 -24 -8 0 -4 -29 -18 -64 -32 -113 -42 -196 -119 -112 -103 13 3 26 1
29 -4 2 -4 10 -134 17 -288 7 -154 14 -282 17 -285 3 -3 11 4 19 15 13 17 14
53 10 230 -4 116 -7 217 -8 225 -1 8 2 41 6 73 10 69 6 66 211 167 83 40 152
76 155 79 3 3 19 13 35 21 58 28 105 63 105 76 0 18 -6 17 -60 -7z"/>
<path d="M519 643 c-9 -27 -75 -93 -92 -93 -4 0 -13 -5 -20 -10 -7 -6 -23 -19
-37 -30 -20 -16 -22 -21 -11 -29 15 -10 93 19 122 45 36 33 40 19 33 -117 -7
-128 -8 -133 -36 -159 -49 -47 -31 -81 22 -40 25 19 70 27 70 13 0 -5 18 -17
40 -27 58 -28 71 -9 27 35 -32 32 -35 41 -41 109 -14 187 -14 190 6 190 10 0
26 -4 36 -9 9 -5 28 -13 42 -19 14 -5 38 -15 53 -21 34 -13 77 -14 77 -2 0 13
-47 44 -90 61 -19 7 -39 17 -44 22 -6 4 -16 8 -23 8 -24 0 -82 45 -94 73 -6
15 -15 27 -20 27 -5 0 -14 -12 -20 -27z"/>
</g>
</svg>
