<svg version="1.0" xmlns="http://www.w3.org/2000/svg"
 width="63.000000pt" height="84.000000pt" viewBox="0 0 63.000000 84.000000"
 preserveAspectRatio="xMidYMid meet">
<metadata>
Created by potrace 1.15, written by Peter Selinger 2001-2017
</metadata>
<g transform="translate(0.000000,84.000000) scale(0.100000,-0.100000)"
fill="#000000" stroke="none">
<path d="M157 674 c-4 -4 -7 -22 -7 -40 0 -31 -2 -33 -37 -36 -27 -2 -39 -8
-41 -20 -3 -14 3 -18 25 -18 16 0 38 -6 49 -14 25 -19 10 -47 -31 -58 -39 -10
-45 -23 -45 -100 0 -76 19 -108 66 -108 21 0 25 -4 22 -22 -3 -20 -9 -23 -53
-23 -58 -1 -77 -9 -68 -31 4 -12 18 -15 62 -12 56 3 56 3 56 -82 0 -69 3 -85
15 -85 12 0 16 18 20 85 5 85 5 85 43 88 60 5 44 42 -19 42 -17 0 -24 6 -24
20 0 11 7 20 15 20 9 0 27 7 40 16 22 14 25 24 25 74 0 80 -13 109 -50 116
-25 6 -30 11 -30 36 0 29 3 32 53 42 16 4 27 13 27 22 0 13 -7 15 -34 11 -35
-6 -35 -5 -38 36 -3 40 -22 59 -41 41z m54 -224 c10 -6 19 -17 19 -25 0 -12
-14 -15 -61 -15 -52 0 -60 2 -57 17 5 26 66 40 99 23z m19 -89 c0 -31 -14 -41
-60 -41 -46 0 -60 10 -60 41 0 5 27 9 60 9 33 0 60 -4 60 -9z"/>
<path d="M423 653 c-61 -3 -83 -7 -83 -17 0 -26 64 -33 164 -20 36 5 46 11 44
23 -4 18 -10 19 -125 14z"/>
<path d="M352 573 c-36 -3 -52 -8 -49 -16 4 -15 245 -22 266 -8 43 27 -37 36
-217 24z"/>
<path d="M357 493 c-26 -7 -10 -23 24 -23 22 0 29 -5 29 -20 0 -15 -7 -20 -24
-20 -37 0 -78 -18 -70 -31 4 -7 23 -9 50 -5 42 5 44 4 44 -19 0 -21 -6 -25
-45 -31 -83 -12 -47 -25 63 -22 110 3 145 19 62 28 -42 5 -46 9 -41 40 0 5 26
10 56 12 72 4 71 22 -1 26 -46 3 -55 6 -52 20 2 10 16 19 32 22 16 3 31 11 34
18 3 9 -15 12 -70 11 -40 -1 -81 -3 -91 -6z"/>
<path d="M357 263 c-52 -6 -43 -27 14 -33 55 -6 58 -27 6 -45 -21 -7 -41 -16
-45 -19 -3 -4 -8 -33 -10 -66 -4 -50 -2 -60 12 -60 11 0 16 9 16 33 0 42 19
78 48 88 21 8 22 6 22 -49 0 -31 3 -67 6 -79 12 -42 24 -12 24 57 0 70 0 70
24 59 24 -11 36 -43 36 -98 1 -25 1 -25 15 -7 9 11 15 41 15 69 0 56 -17 76
-62 77 -21 0 -28 5 -28 19 0 20 26 31 78 31 22 0 32 5 32 15 0 12 -15 15 -82
13 -46 -1 -100 -3 -121 -5z"/>
</g>
</svg>
