<svg version="1.0" xmlns="http://www.w3.org/2000/svg"
 width="69.000000pt" height="91.000000pt" viewBox="0 0 69.000000 91.000000"
 preserveAspectRatio="xMidYMid meet">
<metadata>
Created by potrace 1.15, written by Peter Selinger 2001-2017
</metadata>
<g transform="translate(0.000000,91.000000) scale(0.100000,-0.100000)"
fill="#000000" stroke="none">
<path d="M410 731 c0 -26 -4 -27 -77 -36 -60 -7 -63 -6 -63 15 0 15 -5 20 -17
18 -11 -2 -17 -12 -16 -23 1 -11 -2 -44 -6 -73 -9 -60 5 -67 24 -11 7 19 19
35 28 37 14 3 17 -5 17 -38 0 -33 -4 -42 -24 -50 -45 -17 -60 -115 -28 -180
15 -30 23 -35 57 -38 21 -2 58 2 81 8 56 16 79 60 71 134 -7 52 -40 96 -73 96
-11 0 -14 9 -12 32 4 42 26 47 39 9 16 -46 26 -38 25 22 -1 28 3 62 7 75 7 18
5 22 -12 22 -14 0 -21 -6 -21 -19z m-73 -128 c-3 -10 -5 -2 -5 17 0 19 2 27 5
18 2 -10 2 -26 0 -35z m3 -68 c0 -28 29 -72 50 -78 23 -6 27 -27 6 -27 -8 0
-27 5 -42 11 -21 7 -34 7 -51 -2 -31 -17 -39 -5 -14 20 11 11 23 36 27 55 6
36 24 50 24 21z m70 -4 c14 -28 13 -51 -4 -51 -11 0 -36 46 -36 66 0 13 31 1
40 -15z m-110 1 c0 -15 -28 -47 -35 -40 -11 11 5 48 21 48 8 0 14 -4 14 -8z
m73 -129 c32 -18 32 -18 -27 -21 -66 -3 -78 2 -50 23 25 19 39 19 77 -2z"/>
<path d="M499 671 c-35 -36 -37 -64 -4 -96 28 -29 51 -31 100 -11 60 25 60 97
-1 122 -48 20 -62 18 -95 -15z m87 -36 c9 -23 -15 -45 -48 -45 -32 0 -47 23
-28 45 16 20 69 19 76 0z"/>
<path d="M88 669 c-39 -20 -52 -47 -46 -90 2 -20 12 -26 50 -33 57 -11 93 2
109 38 18 38 3 75 -36 92 -41 17 -32 17 -77 -7z m86 -42 c25 -39 -64 -78 -95
-41 -18 21 0 47 37 55 37 8 45 6 58 -14z"/>
<path d="M116 504 c-3 -9 -6 -67 -6 -130 0 -63 -3 -114 -7 -114 -30 1 -38 23
-43 112 -4 74 -8 93 -20 93 -21 0 -28 -196 -8 -213 8 -6 47 -12 88 -14 61 -2
75 0 75 12 0 8 -10 16 -22 18 -43 6 -37 72 7 72 24 0 30 20 30 96 0 53 -3 64
-16 64 -14 0 -16 -8 -11 -52 7 -58 -2 -84 -27 -75 -13 5 -16 21 -16 77 0 66
-10 90 -24 54z"/>
<path d="M515 511 c-16 -6 -19 -16 -16 -55 2 -40 -1 -51 -23 -71 -14 -13 -26
-31 -26 -39 0 -9 20 -37 44 -64 47 -54 61 -104 57 -209 -1 -40 2 -53 13 -53
33 0 39 26 28 132 -11 101 -11 101 -63 154 -52 53 -52 53 -25 64 15 5 41 10
57 10 37 0 79 39 79 74 0 48 -68 79 -125 57z m63 -64 c3 -22 -1 -27 -17 -27
-17 0 -21 6 -21 31 0 24 4 30 18 27 10 -2 18 -14 20 -31z"/>
<path d="M313 313 c-37 -2 -66 -10 -73 -18 -11 -13 -7 -15 20 -15 32 0 32 0
25 -62 -8 -80 -22 -125 -40 -132 -8 -3 -15 -12 -15 -20 0 -25 21 -29 41 -9 18
18 32 71 46 181 4 32 10 42 24 42 22 0 21 2 24 -70 1 -30 7 -79 14 -108 10
-41 17 -52 33 -52 16 0 19 4 13 23 -19 62 -25 97 -25 145 0 47 3 53 26 62 14
6 24 16 22 23 -5 13 -39 16 -135 10z"/>
</g>
</svg>
