<svg version="1.0" xmlns="http://www.w3.org/2000/svg"
 width="133.000000pt" height="155.000000pt" viewBox="0 0 133.000000 155.000000"
 preserveAspectRatio="xMidYMid meet">
<metadata>
Created by potrace 1.15, written by Peter Selinger 2001-2017
</metadata>
<g transform="translate(0.000000,155.000000) scale(0.100000,-0.100000)"
fill="#000000" stroke="none">
<path d="M450 1419 c0 -17 96 -109 113 -109 8 0 37 -21 64 -48 26 -26 64 -58
83 -72 101 -71 122 -111 113 -213 -4 -34 -6 -108 -5 -164 1 -69 -2 -103 -9
-103 -20 0 -1 -207 22 -253 30 -58 75 -103 128 -128 61 -29 241 -38 279 -13
42 27 72 57 72 71 0 19 -28 27 -53 15 -81 -38 -160 -45 -242 -21 -66 19 -121
74 -130 132 -12 80 -10 350 4 432 7 44 13 87 13 95 -3 42 -17 86 -36 109 -38
47 -140 142 -186 174 -25 17 -52 39 -62 49 -32 36 -168 74 -168 47z"/>
<path d="M336 1333 c-9 -10 -7 -63 3 -63 5 0 14 -13 21 -30 7 -16 16 -30 21
-30 13 0 11 -67 -3 -92 -25 -44 -34 -49 -53 -28 -10 11 -24 20 -32 20 -7 0
-13 5 -13 10 0 6 -4 10 -9 10 -5 0 -39 18 -75 40 -89 54 -121 51 -81 -8 19
-26 149 -112 170 -112 24 0 18 -12 -37 -71 -109 -115 -141 -169 -100 -169 20
0 62 39 229 213 36 37 69 67 74 67 9 0 27 -14 84 -66 34 -31 34 -31 9 -81 -13
-28 -60 -86 -103 -130 -43 -44 -82 -90 -86 -102 -3 -11 -11 -21 -16 -21 -5 0
-9 -7 -9 -15 0 -21 60 -7 81 19 10 12 20 18 24 14 12 -11 24 -140 15 -162 -4
-12 -41 -55 -82 -96 -89 -91 -138 -150 -138 -169 0 -10 11 -12 48 -6 59 9 79
19 87 46 4 11 30 45 58 75 52 54 52 54 71 6 55 -134 205 -275 341 -320 22 -7
49 -17 60 -22 44 -19 118 -30 194 -30 78 0 81 1 81 24 0 22 -4 24 -87 30 -81
7 -183 32 -225 56 -10 6 -24 10 -32 10 -8 0 -16 4 -18 8 -1 4 -25 21 -53 36
-55 32 -165 140 -165 162 0 8 -4 14 -8 14 -13 0 -43 117 -47 186 -3 36 -6 68
-8 72 -3 4 -1 36 3 72 6 42 5 67 -2 71 -10 6 2 37 23 63 69 84 67 82 73 56 10
-45 16 -84 22 -162 7 -79 18 -95 44 -63 10 12 11 47 6 147 -7 131 -7 131 -49
192 -22 34 -69 88 -104 120 -35 33 -69 69 -76 81 -36 63 -60 95 -78 100 -10 4
-19 10 -19 15 0 10 -26 20 -34 13z"/>
</g>
</svg>
