<svg version="1.0" xmlns="http://www.w3.org/2000/svg"
 width="139.000000pt" height="219.000000pt" viewBox="0 0 139.000000 219.000000"
 preserveAspectRatio="xMidYMid meet">
<metadata>
Created by potrace 1.15, written by Peter Selinger 2001-2017
</metadata>
<g transform="translate(0.000000,219.000000) scale(0.100000,-0.100000)"
fill="#000000" stroke="none">
<path d="M373 1715 c2 -220 1 -410 -1 -421 -2 -14 -20 -30 -50 -45 -26 -13
-49 -26 -52 -29 -3 -3 -17 -11 -32 -19 -16 -8 -28 -18 -28 -23 0 -4 -5 -8 -10
-8 -15 0 -80 -43 -80 -53 0 -13 64 3 76 19 6 8 22 14 36 14 13 0 34 9 46 20
12 11 26 20 31 20 5 0 32 14 60 31 47 30 50 34 56 84 4 29 4 61 1 72 -8 25
-13 96 -27 423 -7 151 -16 284 -21 295 -5 11 -7 -151 -5 -380z"/>
<path d="M598 1479 c-22 -14 5 -29 51 -29 56 0 111 -20 141 -52 22 -24 25 -46
10 -92 -5 -17 -19 -80 -30 -141 -11 -60 -30 -148 -41 -195 -15 -61 -21 -121
-22 -215 -1 -129 -1 -130 33 -195 19 -36 37 -67 41 -70 3 -3 12 -15 18 -28 30
-57 134 -166 176 -186 19 -9 37 -21 40 -26 8 -13 184 -100 202 -100 20 0 15
14 -10 26 -203 104 -308 189 -364 298 -9 17 -19 33 -23 36 -4 3 -21 31 -37 63
-29 56 -30 61 -28 195 1 75 7 157 13 182 7 25 16 68 21 95 13 71 40 177 52
198 5 10 7 22 4 27 -3 5 2 24 11 44 15 30 15 41 4 80 -7 26 -22 52 -35 60 -42
28 -195 44 -227 25z"/>
<path d="M597 1403 c4 -15 8 -77 8 -138 0 -100 -3 -115 -28 -170 -16 -33 -38
-70 -50 -82 -11 -13 -17 -26 -14 -30 10 -9 84 73 107 117 10 20 21 51 24 70
28 166 29 182 9 220 -11 22 -27 36 -41 38 -21 3 -22 1 -15 -25z"/>
<path d="M87 1106 c-4 -10 -1 -13 9 -9 7 3 14 9 14 14 0 14 -17 10 -23 -5z"/>
<path d="M375 1054 c-11 -9 -42 -27 -70 -41 -27 -14 -53 -30 -56 -35 -3 -5
-13 -10 -21 -12 -19 -2 -68 -34 -88 -56 -8 -9 -24 -20 -35 -24 -14 -6 -16 -10
-7 -13 8 -3 19 0 25 6 6 6 22 11 35 11 22 0 61 16 72 29 3 3 34 21 70 40 36
18 72 40 81 47 9 8 18 11 22 8 3 -3 6 -133 7 -288 1 -293 4 -319 47 -385 30
-46 162 -191 174 -191 5 0 20 -9 32 -21 26 -25 157 -93 164 -85 3 3 -23 23
-58 45 -35 22 -68 43 -74 48 -5 4 -23 16 -38 26 -15 10 -40 31 -56 47 -15 17
-33 30 -40 30 -6 0 -11 7 -11 15 0 8 -4 15 -10 15 -5 0 -10 9 -10 20 0 11 -4
20 -10 20 -5 0 -10 7 -10 15 0 8 -9 34 -19 58 -36 79 -41 119 -41 370 0 147
-4 256 -10 267 -7 13 -7 21 0 25 5 3 10 10 10 16 0 15 -53 10 -75 -7z"/>
<path d="M957 1043 c-4 -3 -7 -17 -7 -29 0 -13 -4 -26 -10 -29 -16 -10 -12
-245 5 -312 19 -73 89 -179 152 -229 26 -22 53 -44 60 -50 11 -11 102 -56 136
-68 34 -11 6 14 -36 33 -104 48 -225 186 -264 302 -26 79 -22 277 6 314 11 14
-7 75 -23 75 -7 0 -16 -3 -19 -7z"/>
<path d="M850 36 c0 -2 7 -7 16 -10 8 -3 12 -2 9 4 -6 10 -25 14 -25 6z"/>
</g>
</svg>
