<svg version="1.0" xmlns="http://www.w3.org/2000/svg"
 width="81.000000pt" height="121.000000pt" viewBox="0 0 81.000000 121.000000"
 preserveAspectRatio="xMidYMid meet">
<metadata>
Created by potrace 1.15, written by Peter Selinger 2001-2017
</metadata>
<g transform="translate(0.000000,121.000000) scale(0.100000,-0.100000)"
fill="#000000" stroke="none">
<path d="M535 1079 c-99 -24 -118 -32 -166 -67 -59 -43 -107 -125 -87 -149 11
-14 6 -395 -8 -658 -6 -95 -4 -112 10 -124 13 -11 19 -11 31 -1 11 9 15 34 15
99 0 48 4 91 9 96 5 6 12 66 15 135 6 137 19 251 30 268 4 7 13 8 24 3 91 -46
135 -54 262 -52 95 2 120 7 120 24 0 15 -46 37 -77 37 -12 0 -42 4 -65 10 -24
5 -77 15 -118 22 -81 13 -99 25 -138 91 -33 56 -26 111 17 144 56 42 120 62
226 69 79 6 97 16 72 41 -20 20 -113 27 -172 12z"/>
<path d="M175 1058 c-2 -7 -6 -26 -8 -43 -3 -16 -12 -55 -21 -85 -9 -30 -16
-84 -16 -120 0 -36 -4 -81 -9 -100 -6 -19 -12 -103 -15 -187 -3 -84 -8 -164
-12 -178 -3 -14 -1 -31 6 -40 12 -14 10 -84 -5 -185 -6 -36 -3 -50 11 -68 17
-20 21 -21 37 -10 24 18 37 159 17 183 -8 10 -10 24 -4 42 8 28 9 57 15 261 1
56 6 102 9 102 4 0 10 33 13 73 4 39 11 95 17 122 6 28 15 85 21 128 9 70 9
81 -7 98 -20 22 -43 25 -49 7z"/>
<path d="M487 878 c9 -46 192 -113 223 -82 5 5 6 14 2 20 -11 16 -82 54 -101
54 -10 0 -35 7 -54 15 -54 22 -75 20 -70 -7z"/>
<path d="M399 426 c-9 -10 -2 -357 8 -367 5 -5 17 -7 26 -3 14 5 17 22 19 93
0 47 1 93 0 101 -1 8 1 27 4 43 5 22 11 27 34 27 16 0 41 -5 57 -12 44 -18 99
-20 113 -3 19 23 6 40 -41 54 -24 7 -58 18 -74 26 -17 8 -43 16 -59 19 -16 3
-34 10 -40 16 -10 10 -39 14 -47 6z"/>
</g>
</svg>
