<svg version="1.0" xmlns="http://www.w3.org/2000/svg"
 width="81.000000pt" height="111.000000pt" viewBox="0 0 81.000000 111.000000"
 preserveAspectRatio="xMidYMid meet">
<metadata>
Created by potrace 1.15, written by Peter Selinger 2001-2017
</metadata>
<g transform="translate(0.000000,111.000000) scale(0.100000,-0.100000)"
fill="#000000" stroke="none">
<path d="M279 1006 c-2 -3 -26 -6 -52 -7 -47 -3 -66 -12 -48 -23 10 -6 109
-34 161 -45 116 -25 221 -118 220 -194 -1 -41 -78 -107 -124 -107 -14 0 -26
-4 -26 -9 0 -5 -10 -11 -22 -14 -13 -3 -43 -11 -68 -17 -25 -7 -73 -12 -107
-11 -61 1 -63 0 -63 -24 0 -25 1 -25 83 -25 46 0 87 4 92 9 6 5 28 11 50 13
40 3 40 3 51 -132 7 -76 21 -168 34 -210 12 -41 25 -92 30 -113 9 -46 21 -60
43 -51 14 5 16 16 12 58 -11 106 -26 323 -27 381 -1 70 6 91 43 125 67 64 89
172 47 233 -53 78 -119 127 -172 127 -14 0 -27 4 -30 9 -3 5 -23 11 -43 14
-21 3 -47 8 -58 11 -11 4 -23 5 -26 2z"/>
<path d="M244 757 c-36 -41 -54 -72 -54 -93 0 -13 6 -15 31 -10 17 3 35 6 40
6 5 0 9 5 9 10 0 6 9 21 20 33 24 26 24 80 -1 85 -8 1 -28 -12 -45 -31z"/>
<path d="M659 473 c-1 -9 -1 -15 11 -168 4 -60 13 -128 20 -150 6 -22 14 -50
17 -63 16 -68 46 -8 44 91 0 38 -5 86 -11 108 -6 21 -11 65 -11 96 -1 45 -6
61 -22 75 -21 18 -46 24 -48 11z"/>
<path d="M290 422 c0 -5 -16 -17 -35 -26 -19 -9 -38 -22 -42 -29 -4 -7 -34
-34 -65 -60 -50 -42 -56 -50 -44 -63 20 -20 29 -18 83 16 26 17 50 30 54 30 4
0 9 -17 12 -37 3 -21 9 -51 13 -68 11 -46 95 -165 116 -165 16 0 7 51 -19 107
-23 49 -28 74 -31 161 -2 56 -8 102 -13 102 -6 0 -9 7 -7 16 2 10 -3 19 -9 21
-7 3 -13 0 -13 -5z"/>
</g>
</svg>
