<svg version="1.0" xmlns="http://www.w3.org/2000/svg"
 width="97.000000pt" height="169.000000pt" viewBox="0 0 97.000000 169.000000"
 preserveAspectRatio="xMidYMid meet">
<metadata>
Created by potrace 1.15, written by Peter Selinger 2001-2017
</metadata>
<g transform="translate(0.000000,169.000000) scale(0.100000,-0.100000)"
fill="#000000" stroke="none">
<path d="M553 1578 c-13 -6 -23 -15 -23 -20 0 -4 -6 -8 -13 -8 -13 0 -62 -21
-145 -63 -90 -46 -150 -119 -167 -202 -15 -78 -13 -228 5 -370 21 -161 25
-304 11 -351 -5 -16 -14 -49 -21 -74 -7 -25 -21 -64 -31 -87 -11 -24 -19 -47
-19 -53 0 -5 -13 -33 -28 -62 -16 -29 -27 -59 -25 -65 6 -17 53 -17 53 0 0 7
16 30 35 52 60 67 105 176 105 252 0 18 5 53 12 78 9 33 9 51 2 63 -7 11 -12
113 -13 272 -2 268 4 309 45 349 10 10 30 33 44 50 14 17 30 31 37 31 6 0 13
4 15 8 5 12 113 72 131 72 8 0 29 14 46 32 62 64 22 134 -56 96z"/>
<path d="M705 1326 c-11 -7 -36 -16 -55 -19 -84 -14 -101 -21 -124 -47 -30
-36 -38 -104 -32 -280 2 -74 0 -175 -5 -225 -5 -49 -14 -153 -19 -230 -13
-179 -24 -270 -39 -318 -14 -45 -7 -77 18 -77 25 0 44 42 39 89 -2 27 1 42 10
46 9 3 12 28 11 87 0 61 4 92 17 117 9 19 18 48 20 65 1 17 9 75 18 128 9 54
16 122 16 152 0 81 9 116 31 116 11 0 19 -4 19 -10 0 -5 6 -10 13 -10 7 0 23
-9 35 -20 35 -33 91 -60 122 -60 42 0 38 23 -7 57 -21 15 -53 42 -71 60 -18
17 -36 33 -40 35 -18 8 -91 116 -93 138 -4 48 1 70 16 70 17 0 52 18 73 38 7
6 25 12 38 12 33 0 64 17 59 33 -2 6 -6 24 -9 40 -7 30 -30 35 -61 13z"/>
<path d="M707 622 c-3 -4 -8 -36 -12 -72 -4 -36 -9 -73 -11 -83 -2 -10 1 -28
5 -40 13 -34 -3 -115 -44 -219 -20 -51 -41 -101 -46 -111 -11 -20 9 -47 34
-47 13 0 57 83 57 108 0 7 5 12 10 12 6 0 10 10 10 23 0 12 9 33 20 47 11 14
20 30 20 37 0 6 5 13 11 15 6 2 17 35 25 72 19 92 26 100 71 81 46 -19 82 -19
90 1 7 19 -8 34 -67 65 -24 13 -58 36 -74 52 -16 15 -35 27 -42 27 -8 0 -14 3
-14 8 0 11 -38 33 -43 24z"/>
</g>
</svg>
