<svg version="1.0" xmlns="http://www.w3.org/2000/svg"
 width="135.000000pt" height="97.000000pt" viewBox="0 0 135.000000 97.000000"
 preserveAspectRatio="xMidYMid meet">
<metadata>
Created by potrace 1.15, written by Peter Selinger 2001-2017
</metadata>
<g transform="translate(0.000000,97.000000) scale(0.100000,-0.100000)"
fill="#000000" stroke="none">
<path d="M462 803 c-27 -55 -31 -95 -17 -151 18 -69 24 -75 106 -118 95 -50
115 -87 113 -204 -1 -47 -5 -106 -9 -132 -6 -40 -4 -52 15 -78 29 -40 40 -29
41 41 1 30 5 64 10 75 4 13 3 26 -4 33 -9 9 -9 14 1 20 8 5 13 31 13 77 0 152
-2 155 -111 205 -73 34 -100 55 -100 77 0 12 9 13 48 8 51 -7 49 -6 166 -35
43 -11 109 -23 147 -27 64 -6 69 -5 69 13 0 25 -28 38 -115 52 -70 12 -128 24
-195 41 -19 5 -46 11 -60 14 -44 9 -63 30 -64 72 -1 50 -33 60 -54 17z"/>
<path d="M149 773 c-106 -114 -84 -215 66 -291 64 -32 117 -77 153 -129 33
-48 31 -126 -7 -185 -16 -25 -34 -49 -40 -52 -15 -10 -14 -46 2 -46 18 0 73
64 92 107 9 21 21 46 26 55 13 26 11 105 -3 131 -28 48 -97 106 -175 147 -96
49 -111 63 -114 110 -5 70 0 98 20 105 16 5 51 59 51 79 0 19 -41 1 -71 -31z"/>
<path d="M925 460 c-7 -11 13 -32 93 -100 65 -55 88 -139 60 -217 -12 -34 -5
-62 18 -70 13 -4 47 54 39 67 -3 6 -1 10 4 10 14 0 15 127 1 135 -5 3 -10 11
-10 16 0 6 4 7 10 4 6 -3 7 1 4 9 -3 9 -10 16 -16 16 -5 0 -6 5 -3 10 3 6 16
10 29 10 12 0 28 6 34 12 10 10 14 10 21 0 6 -10 13 -11 34 -1 15 7 27 16 27
21 0 4 5 8 11 8 5 0 7 -4 4 -10 -3 -5 1 -10 9 -10 9 0 16 4 16 10 0 20 -42 30
-124 30 -48 0 -94 4 -104 9 -16 8 -98 38 -133 48 -9 3 -20 -1 -24 -7z"/>
</g>
</svg>
