<svg version="1.0" xmlns="http://www.w3.org/2000/svg"
 width="77.000000pt" height="128.000000pt" viewBox="0 0 77.000000 128.000000"
 preserveAspectRatio="xMidYMid meet">
<metadata>
Created by potrace 1.15, written by Peter Selinger 2001-2017
</metadata>
<g transform="translate(0.000000,128.000000) scale(0.100000,-0.100000)"
fill="#000000" stroke="none">
<path d="M391 1136 c3 -47 -12 -76 -40 -76 -9 0 -21 -4 -26 -9 -6 -5 -36 -18
-67 -29 -57 -20 -57 -20 -68 8 -6 15 -10 36 -8 46 2 11 -4 20 -14 22 -20 4
-22 -5 -20 -78 2 -62 19 -100 46 -101 11 0 30 -3 41 -6 37 -10 457 -15 467 -5
6 6 4 15 -6 25 -13 13 -39 14 -168 10 -149 -6 -288 2 -288 15 0 11 89 58 154
82 52 20 63 21 100 9 57 -18 100 -39 109 -55 12 -20 35 -17 47 6 16 29 -3 40
-167 90 -34 10 -43 18 -43 36 0 36 -11 54 -32 54 -16 0 -19 -6 -17 -44z"/>
<path d="M285 866 c-67 -14 -100 -29 -108 -49 -8 -21 1 -69 15 -83 20 -21 165
-37 289 -32 89 4 114 8 136 24 40 30 49 67 24 103 -20 27 -25 29 -118 35 -54
3 -116 8 -138 10 -22 2 -67 -1 -100 -8z m273 -58 c24 -9 32 -18 30 -33 -2 -15
-13 -22 -48 -27 -71 -10 -268 -9 -275 2 -3 6 -15 10 -26 10 -12 0 -19 7 -19
20 0 11 1 20 3 20 1 0 20 7 42 15 46 18 237 13 293 -7z"/>
<path d="M169 648 c-31 -8 -39 -17 -62 -66 -37 -81 -49 -190 -33 -296 8 -48
16 -55 35 -32 8 10 8 21 1 40 -5 15 -10 50 -10 77 0 61 20 66 47 12 22 -46 53
-57 53 -19 0 17 -15 39 -44 67 -43 41 -45 49 -30 98 5 16 41 -21 55 -56 5 -13
15 -23 24 -23 30 0 16 44 -27 82 -43 37 -43 37 -19 57 48 42 85 19 96 -58 4
-27 3 -58 -2 -68 -5 -10 -10 -42 -11 -72 -2 -64 -29 -127 -71 -172 -17 -17
-31 -38 -31 -45 0 -8 -4 -14 -8 -14 -17 0 -32 -51 -32 -105 0 -48 2 -55 20
-55 16 0 20 7 20 33 0 48 32 128 77 188 52 71 60 93 72 224 15 149 15 152 -15
178 -33 29 -61 35 -105 25z"/>
<path d="M331 626 c-9 -10 -11 -67 -7 -198 2 -100 5 -190 7 -198 1 -8 -1 -58
-5 -111 -6 -81 -4 -98 9 -109 8 -7 17 -11 19 -9 2 2 6 47 9 99 8 130 15 160
38 160 17 0 18 -10 18 -126 0 -69 2 -128 5 -131 2 -3 9 -2 15 1 7 5 10 54 8
135 -2 112 0 131 16 149 15 16 18 35 16 108 -1 99 -14 188 -31 222 -9 18 -20
22 -58 22 -29 0 -52 -6 -59 -14z m93 -42 c11 -42 -1 -64 -35 -64 -27 0 -29 3
-29 39 0 39 7 46 46 50 7 0 15 -11 18 -25z m-10 -90 c9 -3 16 -16 16 -29 0
-51 -72 -63 -78 -12 -3 26 1 30 45 46 1 1 8 -2 17 -5z m21 -141 c-9 -62 -11
-64 -43 -56 -33 8 -42 19 -42 59 0 40 5 44 53 44 39 0 39 0 32 -47z"/>
<path d="M520 620 c0 -19 6 -20 76 -19 55 1 79 -2 85 -12 12 -19 11 -252 -1
-284 -6 -15 -24 -32 -45 -40 -47 -20 -55 -19 -55 11 0 20 7 29 30 37 33 13 44
37 36 83 -2 16 -5 32 -5 37 -1 4 -5 7 -11 7 -5 0 -10 -22 -10 -50 0 -61 -25
-71 -36 -15 -10 54 2 85 31 85 23 0 25 3 25 50 0 57 -11 65 -25 18 -16 -51
-35 -47 -35 6 0 25 -4 46 -10 46 -5 0 -10 -20 -10 -45 0 -38 -3 -45 -20 -45
-14 0 -21 9 -26 35 -10 57 -31 41 -24 -20 3 -29 19 -45 47 -45 23 0 24 -2 21
-57 -3 -59 -20 -80 -26 -31 -2 14 -10 29 -18 32 -11 4 -14 -4 -14 -35 0 -34 4
-42 30 -57 24 -13 29 -22 25 -40 -3 -12 -8 -41 -11 -65 -7 -49 -2 -56 68 -82
53 -19 81 -46 95 -89 17 -54 53 -37 39 18 -8 33 -54 86 -74 86 -10 0 -34 5
-55 11 -31 8 -38 14 -35 31 3 22 50 56 79 57 8 1 26 13 40 27 22 24 24 34 26
137 2 147 -3 181 -34 211 -23 23 -34 26 -99 26 -68 0 -74 -2 -74 -20z"/>
</g>
</svg>
