<svg version="1.0" xmlns="http://www.w3.org/2000/svg"
 width="45.000000pt" height="111.000000pt" viewBox="0 0 45.000000 111.000000"
 preserveAspectRatio="xMidYMid meet">
<metadata>
Created by potrace 1.15, written by Peter Selinger 2001-2017
</metadata>
<g transform="translate(0.000000,111.000000) scale(0.100000,-0.100000)"
fill="#000000" stroke="none">
<path d="M194 880 c20 -96 22 -87 -29 -133 -46 -43 -47 -45 -40 -88 9 -59 25
-109 35 -109 13 0 20 42 14 85 -4 30 -3 36 5 25 6 -8 11 -23 11 -32 0 -10 5
-18 11 -18 7 0 10 21 8 58 -4 68 14 87 21 22 3 -25 9 -50 13 -56 8 -13 -31
-114 -44 -114 -5 0 -9 -6 -9 -13 0 -7 -14 -35 -31 -61 -16 -27 -28 -50 -25
-53 8 -8 45 17 56 37 11 20 30 27 30 11 0 -5 -16 -26 -35 -47 -19 -22 -35 -42
-35 -46 0 -19 20 -14 52 12 19 16 38 26 42 23 15 -15 4 -51 -24 -78 -16 -16
-30 -32 -30 -37 0 -13 22 -9 42 9 27 24 22 7 -27 -92 -24 -49 -42 -91 -40 -94
3 -2 6 -2 8 0 51 74 85 136 108 199 7 19 26 49 41 65 22 24 25 31 13 33 -9 2
-22 -2 -30 -8 -8 -6 -19 -9 -25 -5 -18 11 -11 60 18 126 39 87 66 189 54 201
-11 11 -15 6 -31 -44 -18 -54 -37 -50 -31 6 1 10 -8 27 -19 37 -17 16 -21 32
-21 78 0 67 -23 131 -46 131 -13 0 -15 -7 -10 -30z m81 -337 c-7 -30 -31 -60
-40 -51 -8 8 26 78 38 78 5 0 6 -12 2 -27z"/>
</g>
</svg>
