<svg version="1.0" xmlns="http://www.w3.org/2000/svg"
 width="61.000000pt" height="113.000000pt" viewBox="0 0 61.000000 113.000000"
 preserveAspectRatio="xMidYMid meet">
<metadata>
Created by potrace 1.15, written by Peter Selinger 2001-2017
</metadata>
<g transform="translate(0.000000,113.000000) scale(0.100000,-0.100000)"
fill="#000000" stroke="none">
<path d="M217 1008 c10 -18 26 -41 36 -52 24 -28 21 -56 -14 -132 -39 -86 -47
-124 -28 -138 8 -6 25 -26 38 -43 22 -33 41 -43 41 -22 0 6 -14 31 -31 55 -22
33 -29 52 -25 70 9 35 28 30 56 -16 24 -38 40 -51 40 -30 0 13 -40 84 -52 91
-12 8 -7 64 6 64 5 0 14 -9 20 -20 6 -11 13 -22 16 -25 40 -40 40 -170 1 -200
-4 -3 -18 -21 -31 -40 -13 -19 -27 -37 -30 -40 -16 -13 -51 -72 -47 -77 3 -3
23 9 43 25 21 17 41 29 45 27 4 -3 9 -22 12 -42 4 -35 0 -42 -42 -81 -27 -25
-42 -45 -36 -50 6 -4 16 -19 23 -33 14 -27 4 -51 -65 -162 -13 -20 -19 -37
-15 -37 12 0 82 79 95 107 11 25 22 29 32 13 21 -34 34 14 14 51 -8 16 -6 30
10 65 12 24 21 51 21 60 0 9 27 43 60 76 56 57 67 78 61 125 -1 6 3 14 9 18
18 11 7 175 -11 175 -5 0 -9 -26 -9 -57 0 -32 -3 -68 -6 -81 -6 -23 -7 -22
-35 9 -23 26 -29 42 -29 77 0 40 -11 98 -28 142 -3 9 -8 1 -12 -20 -7 -32 -8
-33 -15 -12 -4 12 -10 22 -14 22 -4 0 -13 17 -20 37 -15 40 -80 133 -94 133
-4 0 0 -14 10 -32z m223 -433 c0 -22 -64 -115 -78 -115 -4 0 -15 21 -25 46
-16 44 -16 48 0 75 10 16 21 29 24 29 4 0 11 9 14 21 7 20 8 20 36 -7 16 -15
29 -38 29 -49z m-129 -219 c-10 -25 -41 -37 -41 -15 0 11 42 50 48 45 1 -2 -2
-15 -7 -30z"/>
</g>
</svg>
