<svg version="1.0" xmlns="http://www.w3.org/2000/svg"
 width="63.000000pt" height="85.000000pt" viewBox="0 0 63.000000 85.000000"
 preserveAspectRatio="xMidYMid meet">
<metadata>
Created by potrace 1.15, written by Peter Selinger 2001-2017
</metadata>
<g transform="translate(0.000000,85.000000) scale(0.100000,-0.100000)"
fill="#000000" stroke="none">
<path d="M465 747 c-16 -12 -47 -38 -68 -59 -21 -21 -42 -38 -48 -38 -18 0
-52 -25 -95 -67 -23 -24 -47 -43 -53 -43 -21 0 -11 -28 13 -34 22 -5 24 -10
19 -48 -7 -52 -3 -47 -50 -63 -52 -18 -50 -39 5 -43 28 -2 42 -8 42 -18 0 -8
-1 -14 -2 -14 -53 -8 -162 -30 -166 -35 -15 -15 28 -26 86 -21 35 3 62 1 62
-4 0 -9 -23 -53 -51 -98 -7 -12 -10 -24 -6 -28 11 -12 75 69 88 112 11 36 18
42 61 58 36 13 48 22 48 37 0 20 -7 21 -57 2 -7 -3 -13 1 -13 9 0 10 30 25 87
43 65 22 94 37 120 64 44 46 42 56 -7 31 -21 -11 -42 -20 -45 -20 -3 0 -5 17
-5 38 0 32 5 41 25 50 14 7 32 12 40 12 8 0 17 5 21 11 8 13 -82 10 -109 -3
-29 -15 -39 -4 -18 19 11 11 45 29 75 38 43 14 56 22 56 37 0 17 -5 20 -36 16
-36 -4 -36 -4 2 29 22 18 42 33 46 33 5 0 8 5 8 10 0 18 -44 10 -75 -13z
m-127 -174 c-2 -12 -14 -19 -36 -21 -35 -4 -39 1 -19 23 18 21 59 19 55 -2z
m52 -56 c0 -7 -6 -19 -12 -25 -10 -10 -10 -15 1 -22 11 -6 5 -12 -24 -24 -20
-9 -48 -16 -61 -16 -21 0 -24 5 -24 40 0 37 2 40 28 40 15 0 34 5 42 10 22 14
50 12 50 -3z"/>
</g>
</svg>
