<svg version="1.0" xmlns="http://www.w3.org/2000/svg"
 width="55.000000pt" height="79.000000pt" viewBox="0 0 55.000000 79.000000"
 preserveAspectRatio="xMidYMid meet">
<metadata>
Created by potrace 1.15, written by Peter Selinger 2001-2017
</metadata>
<g transform="translate(0.000000,79.000000) scale(0.100000,-0.100000)"
fill="#000000" stroke="none">
<path d="M107 543 c5 -75 6 -79 44 -113 21 -20 39 -44 39 -55 0 -11 -10 -59
-22 -107 -12 -48 -18 -91 -14 -95 11 -11 46 35 53 69 7 34 13 35 41 3 18 -20
20 -30 12 -51 -16 -41 -12 -64 10 -64 23 0 35 21 45 78 7 45 15 51 36 26 11
-14 10 -21 -4 -46 -19 -33 -22 -58 -7 -58 5 0 15 9 22 20 17 26 26 25 60 -7
28 -27 28 -27 28 3 0 16 -7 38 -16 49 -10 14 -13 32 -8 61 7 51 -28 134 -57
134 -23 0 -23 12 -4 65 19 53 19 84 -1 92 -24 9 -34 -8 -46 -78 -13 -75 -21
-87 -44 -69 -16 14 -16 29 2 118 5 25 3 32 -10 32 -9 0 -21 -9 -28 -20 -16
-25 -25 -25 -33 0 -9 27 -72 90 -90 90 -11 0 -12 -16 -8 -77z m103 -84 c0 -15
-12 -11 -37 13 -33 31 -28 43 7 18 17 -12 30 -26 30 -31z m51 -111 c18 -23 25
-48 12 -48 -14 0 -43 34 -43 52 0 24 8 23 31 -4z m114 -35 c8 -20 13 -38 10
-41 -10 -10 -45 32 -45 55 0 35 18 28 35 -14z"/>
</g>
</svg>
