<svg version="1.0" xmlns="http://www.w3.org/2000/svg"
 width="65.000000pt" height="121.000000pt" viewBox="0 0 65.000000 121.000000"
 preserveAspectRatio="xMidYMid meet">
<metadata>
Created by potrace 1.15, written by Peter Selinger 2001-2017
</metadata>
<g transform="translate(0.000000,121.000000) scale(0.100000,-0.100000)"
fill="#000000" stroke="none">
<path d="M226 1042 c-3 -5 -3 -32 0 -60 4 -47 2 -52 -15 -52 -11 0 -23 5 -26
10 -3 6 -17 10 -31 10 -39 0 -29 -32 21 -63 35 -22 44 -34 43 -53 -3 -29 -15
-30 -48 -4 -45 35 -81 19 -45 -20 19 -20 9 -60 -16 -60 -10 0 -21 -5 -25 -11
-6 -11 190 -211 279 -283 39 -32 47 -44 47 -72 0 -19 -3 -34 -7 -34 -5 1 -30
23 -58 50 -36 36 -58 50 -79 50 -28 0 -28 0 -10 -27 20 -32 70 -80 131 -126
45 -35 63 -64 63 -103 0 -14 4 -44 9 -67 6 -23 12 -54 16 -69 3 -16 12 -28 20
-28 18 0 20 42 4 106 -6 25 -9 47 -6 51 7 6 38 -13 76 -46 23 -20 51 -28 51
-15 0 4 -33 37 -73 75 -62 58 -75 75 -86 119 -7 28 -11 53 -9 55 2 3 21 -7 41
-20 66 -45 79 -27 19 26 -37 32 -39 37 -38 91 1 63 2 64 41 46 14 -6 28 -8 32
-5 7 8 -107 116 -123 117 -7 0 -26 14 -44 30 -18 17 -35 30 -39 30 -18 0 -71
70 -71 93 0 35 14 41 52 23 33 -17 88 -22 88 -8 0 5 -12 15 -27 23 -28 14 -53
33 -79 57 -8 7 -14 31 -14 52 0 21 -4 42 -10 45 -5 3 -10 16 -10 29 0 32 -31
59 -44 38z m32 -350 c29 -27 42 -46 42 -65 0 -34 -10 -34 -52 1 -49 41 -76 75
-71 89 9 23 38 14 81 -25z m159 -121 c14 -18 17 -101 4 -101 -12 0 -71 68 -71
81 0 6 5 19 10 29 11 21 37 17 57 -9z"/>
</g>
</svg>
