<svg version="1.0" xmlns="http://www.w3.org/2000/svg"
 width="59.000000pt" height="115.000000pt" viewBox="0 0 59.000000 115.000000"
 preserveAspectRatio="xMidYMid meet">
<metadata>
Created by potrace 1.15, written by Peter Selinger 2001-2017
</metadata>
<g transform="translate(0.000000,115.000000) scale(0.100000,-0.100000)"
fill="#000000" stroke="none">
<path d="M165 960 c-4 -6 1 -35 10 -66 9 -31 14 -58 12 -60 -2 -2 -22 5 -45
16 -48 23 -52 24 -52 9 0 -15 25 -35 78 -59 33 -16 42 -26 42 -45 0 -30 -7
-31 -40 -5 -14 11 -28 20 -32 20 -17 0 -7 -28 17 -50 30 -28 33 -60 5 -67 -11
-3 -20 -11 -20 -17 0 -16 28 -55 61 -86 61 -58 128 -116 148 -130 13 -9 21
-25 21 -42 0 -26 -14 -38 -22 -20 -3 7 -122 72 -132 72 -3 0 -6 -7 -6 -16 0
-18 48 -64 67 -64 6 0 13 -4 15 -8 2 -5 21 -15 43 -24 45 -18 48 -22 71 -103
20 -70 53 -140 61 -131 7 6 -13 106 -28 144 -18 45 -12 53 31 46 60 -10 49 16
-22 49 -39 18 -51 47 -20 47 9 0 32 -9 51 -21 18 -11 37 -19 42 -17 12 4 -28
50 -63 72 -24 16 -28 25 -28 67 0 53 4 57 38 33 12 -8 27 -14 33 -12 16 5
-102 110 -147 130 -13 6 -24 15 -24 19 0 4 -8 10 -19 14 -33 10 -61 42 -61 69
0 14 3 26 6 26 3 0 26 -14 50 -31 25 -17 48 -28 52 -24 7 7 -50 63 -101 100
-15 11 -27 29 -27 42 0 23 -45 133 -54 133 -3 0 -8 -5 -11 -10z m88 -312 c52
-37 57 -45 57 -82 0 -45 -15 -46 -62 -3 -34 31 -42 49 -39 90 1 22 5 22 44 -5z
m129 -95 c12 -11 18 -30 18 -59 0 -42 -1 -43 -24 -33 -32 15 -50 51 -42 83 7
30 22 33 48 9z"/>
</g>
</svg>
