<svg version="1.0" xmlns="http://www.w3.org/2000/svg"
 width="79.000000pt" height="143.000000pt" viewBox="0 0 79.000000 143.000000"
 preserveAspectRatio="xMidYMid meet">
<metadata>
Created by potrace 1.15, written by Peter Selinger 2001-2017
</metadata>
<g transform="translate(0.000000,143.000000) scale(0.100000,-0.100000)"
fill="#000000" stroke="none">
<path d="M294 1309 c12 -52 17 -121 11 -146 -7 -30 -26 -29 -55 2 -21 22 -80
36 -80 20 0 -15 48 -68 82 -90 41 -28 46 -45 26 -104 -7 -20 -13 -38 -15 -40
-3 -5 -46 23 -67 44 -17 18 -36 12 -36 -10 0 -8 11 -25 25 -39 25 -26 35 -88
16 -101 -10 -6 -36 17 -51 46 -11 20 -60 27 -60 9 0 -5 5 -10 10 -10 6 0 10
-5 10 -11 0 -6 21 -39 46 -73 26 -33 49 -68 52 -76 6 -14 110 -119 201 -203
35 -32 41 -43 41 -77 0 -22 -5 -40 -11 -40 -15 0 -71 40 -87 62 -16 22 -62 24
-62 3 0 -15 107 -125 122 -125 21 0 38 -31 38 -70 0 -23 9 -78 19 -123 11 -45
23 -100 27 -122 7 -40 7 -40 16 5 8 43 7 63 -8 202 -7 57 -7 57 27 47 51 -16
63 -16 66 1 1 9 -21 31 -52 53 -46 32 -55 43 -55 68 0 39 27 50 51 21 9 -12
22 -22 28 -22 6 0 33 -11 60 -25 55 -29 121 -44 121 -27 0 10 -77 66 -135 98
-21 12 -34 79 -18 95 4 4 26 1 48 -7 53 -18 76 -11 45 16 -13 11 -26 20 -30
20 -5 0 -22 14 -40 30 -18 17 -36 30 -40 30 -4 0 -25 16 -46 35 -22 19 -45 35
-51 35 -7 0 -13 3 -13 8 -1 4 -22 22 -48 41 -44 32 -132 131 -132 149 0 5 9
27 20 50 11 22 20 46 20 52 0 18 18 11 39 -17 12 -16 25 -33 30 -39 4 -5 14
-20 20 -32 17 -32 33 -28 21 6 -15 41 -33 75 -48 91 -39 41 -47 66 -48 151 0
89 -19 160 -43 168 -11 4 -12 -2 -7 -29z m19 -473 c11 -8 15 -20 11 -31 -5
-12 13 -35 65 -86 60 -60 71 -75 71 -104 0 -19 -4 -36 -9 -39 -5 -3 -52 36
-105 88 -102 100 -115 128 -79 168 19 21 22 22 46 4z m235 -290 c3 -45 2 -47
-17 -36 -15 7 -21 21 -21 44 0 67 34 60 38 -8z"/>
</g>
</svg>
