<svg version="1.0" xmlns="http://www.w3.org/2000/svg"
 width="79.000000pt" height="155.000000pt" viewBox="0 0 79.000000 155.000000"
 preserveAspectRatio="xMidYMid meet">
<metadata>
Created by potrace 1.15, written by Peter Selinger 2001-2017
</metadata>
<g transform="translate(0.000000,155.000000) scale(0.100000,-0.100000)"
fill="#000000" stroke="none">
<path d="M435 1430 c-10 -11 -22 -20 -28 -20 -5 0 -17 -8 -26 -18 -9 -9 -41
-37 -71 -62 -88 -71 -158 -149 -165 -182 -10 -43 2 -116 27 -165 31 -63 50
-54 29 13 -27 87 -33 141 -21 165 13 23 35 49 42 49 5 0 61 -121 78 -167 8
-21 19 -33 31 -33 11 0 19 5 19 10 0 23 -81 190 -92 190 -5 0 -8 6 -8 14 0 14
67 76 82 76 4 0 14 -17 24 -37 44 -101 71 -148 87 -151 25 -5 15 31 -41 142
-51 101 -55 82 32 150 34 27 46 46 28 46 -5 0 -17 -9 -27 -20z"/>
<path d="M670 1398 c0 -18 4 -49 9 -68 5 -19 12 -66 15 -105 6 -70 6 -70 -46
-93 -29 -12 -63 -22 -76 -22 -21 0 -22 4 -21 76 1 68 -4 95 -15 83 -2 -2 -9
-40 -16 -84 -7 -44 -16 -88 -21 -97 -5 -10 -9 -24 -9 -31 0 -17 -33 -86 -70
-144 -35 -55 -40 -103 -11 -103 12 0 23 13 33 38 14 37 14 37 30 7 47 -91 64
-120 71 -123 10 -5 9 -32 -2 -32 -5 0 -17 -8 -27 -18 -15 -14 -37 -17 -143
-17 -135 0 -176 9 -270 57 -30 15 -56 26 -58 24 -26 -26 127 -104 230 -118 97
-12 219 -2 276 25 61 28 129 100 169 179 34 65 34 65 28 199 -8 213 -20 321
-40 362 -22 46 -36 48 -36 5z m40 -382 c0 -61 -5 -106 -15 -130 -8 -20 -17
-36 -19 -36 -3 0 -10 17 -17 38 -6 20 -25 66 -41 101 -16 35 -27 68 -25 74 3
9 80 41 110 46 4 0 7 -41 7 -93z m-144 17 c4 -21 15 -56 25 -77 11 -22 19 -44
19 -48 0 -5 9 -28 20 -50 11 -23 20 -45 20 -48 0 -4 -14 -21 -30 -39 -30 -31
-50 -33 -50 -6 0 7 -20 44 -45 81 -25 36 -45 73 -45 81 0 8 11 34 25 59 14 25
25 54 25 64 0 36 29 22 36 -17z"/>
<path d="M707 583 c-3 -5 -8 -30 -11 -56 -4 -26 -13 -60 -19 -76 -18 -43 -61
-101 -74 -101 -15 0 -33 85 -33 154 0 50 -9 66 -37 66 -6 0 0 -82 13 -187 6
-45 4 -53 -10 -53 -27 0 -104 78 -127 130 -25 56 -52 77 -39 31 23 -82 99
-181 138 -181 10 0 27 -6 37 -14 19 -14 23 -35 41 -204 5 -50 10 -62 23 -60
20 4 20 47 1 170 -13 88 -13 88 18 118 18 17 32 34 32 39 0 5 6 16 13 23 29
30 71 208 49 208 -6 0 -13 -3 -15 -7z"/>
</g>
</svg>
