<svg version="1.0" xmlns="http://www.w3.org/2000/svg"
 width="59.000000pt" height="153.000000pt" viewBox="0 0 59.000000 153.000000"
 preserveAspectRatio="xMidYMid meet">
<metadata>
Created by potrace 1.15, written by Peter Selinger 2001-2017
</metadata>
<g transform="translate(0.000000,153.000000) scale(0.100000,-0.100000)"
fill="#000000" stroke="none">
<path d="M429 1348 c-1 -5 -3 -20 -4 -35 -4 -46 -22 -133 -28 -139 -3 -3 -23
14 -46 38 -35 37 -41 40 -41 21 0 -11 11 -53 24 -92 13 -39 20 -73 16 -76 -5
-3 -11 5 -15 17 -10 35 -27 68 -37 68 -4 0 -8 -37 -8 -83 0 -46 -3 -86 -6 -90
-8 -8 -64 20 -64 32 0 5 7 22 15 37 19 36 19 65 1 109 -24 57 -41 45 -46 -32
-11 -155 -3 -326 19 -412 24 -95 26 -130 10 -180 -7 -20 -13 -42 -15 -49 -3
-11 -7 -10 -19 2 -11 11 -14 26 -9 54 6 40 -18 112 -37 112 -8 0 -14 -63 -13
-137 1 -21 13 -45 36 -72 34 -40 35 -44 41 -149 4 -59 13 -131 21 -161 25 -90
50 -95 35 -6 -11 67 -11 215 0 215 4 0 28 -16 52 -35 24 -19 47 -35 52 -35 20
0 1 31 -53 85 -48 48 -60 66 -60 92 0 17 4 35 10 38 6 3 10 16 10 28 0 22 1
22 20 -3 11 -14 20 -31 20 -38 0 -19 43 -82 57 -82 14 0 8 30 -18 87 -24 54
-24 53 9 53 24 0 31 -8 61 -70 32 -64 51 -87 51 -59 0 19 -44 144 -52 147 -5
2 -8 19 -8 37 0 19 -4 37 -10 40 -5 3 -10 22 -10 41 0 19 -4 42 -9 52 -16 31
-32 96 -41 172 -8 70 -7 77 13 98 18 19 22 20 30 7 8 -15 2 -137 -10 -182 -3
-13 -2 -23 2 -23 17 0 34 37 35 73 0 21 4 46 9 55 5 10 5 47 0 86 -5 38 -5 74
-1 80 27 42 62 214 45 224 -5 4 -15 16 -21 27 -6 11 -12 17 -13 13z m-153
-418 c8 0 14 -7 14 -16 0 -11 -5 -14 -16 -10 -9 3 -22 6 -30 6 -8 0 -14 7 -14
16 0 11 5 14 16 10 9 -3 22 -6 30 -6z m6 -77 c17 -21 52 -158 45 -177 -3 -8
-15 -12 -29 -9 -25 5 -25 5 -59 134 -5 20 -9 44 -9 53 0 21 33 21 52 -1z m80
-257 c20 -29 0 -34 -37 -10 -14 9 -22 20 -19 26 7 11 46 0 56 -16z"/>
</g>
</svg>
