<svg version="1.0" xmlns="http://www.w3.org/2000/svg"
 width="83.000000pt" height="131.000000pt" viewBox="0 0 83.000000 131.000000"
 preserveAspectRatio="xMidYMid meet">
<metadata>
Created by potrace 1.15, written by Peter Selinger 2001-2017
</metadata>
<g transform="translate(0.000000,131.000000) scale(0.100000,-0.100000)"
fill="#000000" stroke="none">
<path d="M106 1122 c-6 -11 16 -55 49 -94 23 -28 25 -36 19 -89 -7 -60 9 -125
27 -113 5 3 9 36 9 75 0 72 7 82 41 56 14 -11 17 -37 17 -182 0 -94 3 -181 6
-195 3 -14 9 -38 12 -55 4 -16 24 -65 45 -109 22 -43 39 -85 39 -93 0 -7 5
-13 10 -13 6 0 10 -6 10 -14 0 -17 28 -41 37 -32 4 3 1 12 -5 18 -7 7 -12 22
-12 35 0 23 -8 46 -46 128 -42 93 -52 138 -56 257 -2 64 0 120 4 124 14 14 88
-79 89 -111 3 -158 18 -222 79 -340 41 -78 62 -106 75 -101 20 7 67 -30 82
-64 7 -18 13 -51 13 -74 0 -22 4 -47 8 -54 13 -20 35 31 30 67 -3 17 -3 31 -2
31 2 0 24 -19 50 -41 27 -23 50 -37 52 -31 3 11 -12 32 -76 102 -26 29 -50 70
-62 106 -30 88 -49 123 -71 135 -26 13 -33 7 -21 -18 25 -45 53 -116 48 -120
-10 -10 -66 23 -72 42 -6 22 -19 52 -60 140 -27 58 -27 65 -28 240 0 132 4
200 17 255 16 73 11 104 -11 77 -14 -16 -32 -95 -41 -179 -8 -69 -14 -77 -38
-47 -10 13 -33 38 -51 56 -18 18 -29 33 -24 33 9 0 13 14 28 118 9 60 -11 54
-27 -8 -14 -54 -26 -61 -54 -30 -10 11 -26 20 -37 20 -10 0 -18 7 -18 15 0 23
-74 92 -84 77z"/>
</g>
</svg>
