<svg version="1.0" xmlns="http://www.w3.org/2000/svg"
 width="65.000000pt" height="145.000000pt" viewBox="0 0 65.000000 145.000000"
 preserveAspectRatio="xMidYMid meet">
<metadata>
Created by potrace 1.15, written by Peter Selinger 2001-2017
</metadata>
<g transform="translate(0.000000,145.000000) scale(0.100000,-0.100000)"
fill="#000000" stroke="none">
<path d="M265 1234 c4 -41 18 -91 33 -121 23 -48 24 -55 10 -70 -28 -33 -41
-91 -33 -158 6 -63 6 -63 -40 -109 -25 -25 -50 -46 -55 -46 -6 0 -10 -6 -10
-13 0 -8 -9 -22 -20 -32 -25 -23 -25 -35 -1 -35 14 0 20 -10 24 -42 3 -24 9
-53 12 -65 6 -18 -1 -27 -34 -50 -22 -15 -40 -31 -41 -35 0 -14 32 -8 58 11
34 23 98 44 112 36 5 -3 10 -23 10 -44 0 -35 -4 -41 -56 -75 -31 -20 -63 -36
-70 -36 -8 0 -14 -7 -14 -15 0 -19 32 -19 85 0 22 8 44 15 49 15 9 0 2 -178
-10 -235 -6 -30 -6 -30 15 -5 11 14 21 33 21 42 0 9 4 19 9 22 15 9 34 134 29
186 -4 40 -1 53 14 66 32 30 48 75 48 137 0 63 1 65 94 172 14 17 26 36 26 43
0 6 4 12 9 12 12 0 35 59 27 68 -4 4 -11 0 -16 -8 -18 -32 -69 -84 -76 -78 -3
4 -13 35 -21 69 -14 61 -14 62 12 101 52 78 66 111 61 135 -9 33 -20 29 -39
-14 -19 -43 -59 -93 -75 -93 -10 0 -42 54 -42 73 0 5 14 22 30 37 18 17 30 38
30 54 0 32 -4 32 -38 1 -37 -35 -54 -28 -70 30 -27 98 -39 129 -52 133 -10 4
-11 -10 -5 -64z m105 -276 c19 -31 19 -31 -3 -59 -12 -15 -25 -28 -29 -28 -10
-1 -22 41 -19 73 3 56 22 61 51 14z m44 -145 c3 -21 8 -54 12 -74 5 -34 3 -38
-38 -68 -43 -32 -43 -32 -50 1 -16 78 -13 95 21 137 19 23 37 41 41 41 4 0 10
-17 14 -37z m-140 -230 c-14 -13 -29 -23 -34 -23 -4 0 -8 28 -7 62 0 54 4 65
26 84 26 22 26 22 33 -39 6 -58 5 -64 -18 -84z m106 -19 c0 -28 -28 -94 -39
-94 -4 0 -13 16 -20 35 -12 33 -11 36 16 60 36 31 43 31 43 -1z"/>
</g>
</svg>
