<svg version="1.0" xmlns="http://www.w3.org/2000/svg"
 width="69.000000pt" height="117.000000pt" viewBox="0 0 69.000000 117.000000"
 preserveAspectRatio="xMidYMid meet">
<metadata>
Created by potrace 1.15, written by Peter Selinger 2001-2017
</metadata>
<g transform="translate(0.000000,117.000000) scale(0.100000,-0.100000)"
fill="#000000" stroke="none">
<path d="M180 1044 c-6 -14 -10 -49 -10 -78 0 -50 -2 -53 -32 -64 -18 -7 -45
-30 -61 -51 -23 -33 -27 -49 -27 -105 0 -35 5 -68 10 -71 6 -3 10 -15 10 -26
0 -10 5 -19 10 -19 12 0 13 -33 1 -46 -11 -11 -39 -92 -57 -164 -17 -71 -17
-70 5 -70 20 0 41 43 41 84 0 25 28 106 42 123 7 9 16 6 36 -12 15 -14 32 -25
39 -25 21 0 15 25 -12 50 -14 13 -25 30 -25 38 0 15 39 51 56 52 16 0 54 -56
54 -80 0 -24 -23 -72 -55 -115 -57 -75 -64 -125 -40 -285 18 -123 24 -147 41
-161 30 -25 34 11 10 96 -45 160 -26 296 53 384 17 19 31 45 31 57 0 27 -30
94 -42 94 -16 0 -7 53 12 70 30 26 39 62 34 128 -4 57 -3 61 18 64 13 2 24 11
26 21 3 15 -5 17 -61 17 -35 0 -66 2 -69 5 -3 3 -2 25 3 48 11 61 -21 94 -41
41z m74 -166 c18 -87 17 -99 -5 -119 -12 -10 -26 -16 -30 -13 -14 9 -11 142 4
147 22 9 27 7 31 -15z m-84 -63 c0 -30 5 -64 12 -74 9 -16 6 -24 -26 -56 -21
-20 -39 -35 -40 -34 -16 19 -26 56 -26 99 0 53 12 86 39 107 32 25 41 15 41
-42z"/>
<path d="M490 926 c0 -106 0 -106 -27 -112 -54 -12 -91 -34 -101 -61 -17 -42
-25 -135 -23 -258 3 -182 8 -210 46 -240 30 -22 43 -25 123 -25 107 0 147 16
168 67 17 40 19 370 2 429 -12 44 -54 83 -88 84 -45 1 -49 10 -52 115 -3 95
-4 100 -25 103 -23 3 -23 2 -23 -102z m0 -267 c0 -110 0 -110 -52 -107 -51 3
-51 3 -49 82 2 60 7 87 22 107 18 25 53 40 72 31 4 -2 7 -53 7 -113z m126 97
c15 -14 34 -144 27 -179 -5 -25 -9 -27 -54 -27 -56 0 -51 -10 -52 121 0 99 5
111 40 103 16 -4 33 -12 39 -18z m4 -236 c-12 -8 -11 -10 8 -10 20 0 22 -5 22
-54 0 -30 -5 -78 -12 -106 -10 -45 -16 -53 -47 -66 -54 -23 -61 -15 -61 68 1
40 4 92 7 116 4 36 9 42 29 42 13 0 24 5 24 10 0 6 10 10 23 10 18 0 19 -2 7
-10z m-130 -126 c0 -117 0 -117 -32 -110 -55 11 -70 35 -76 120 -6 101 -3 106
58 106 50 0 50 0 50 -116z"/>
<path d="M10 271 c0 -34 3 -61 6 -61 35 0 47 111 12 118 -16 3 -18 -5 -18 -57z"/>
</g>
</svg>
