<svg version="1.0" xmlns="http://www.w3.org/2000/svg"
 width="67.000000pt" height="87.000000pt" viewBox="0 0 67.000000 87.000000"
 preserveAspectRatio="xMidYMid meet">
<metadata>
Created by potrace 1.15, written by Peter Selinger 2001-2017
</metadata>
<g transform="translate(0.000000,87.000000) scale(0.100000,-0.100000)"
fill="#000000" stroke="none">
<path d="M306 665 c-11 -30 -6 -83 10 -99 23 -23 275 -23 295 0 10 13 10 17
-2 25 -8 5 -23 7 -34 4 -11 -3 -46 -8 -77 -12 -55 -5 -58 -5 -58 16 0 28 41
44 90 36 27 -5 40 -2 50 10 25 30 -1 38 -81 25 -82 -12 -86 -14 -91 -50 -2
-19 -9 -25 -28 -25 -22 0 -26 5 -30 40 -5 42 -32 60 -44 30z"/>
<path d="M198 643 c-15 -15 -22 -15 -58 -3 -36 12 -43 12 -51 -1 -14 -23 -11
-29 21 -40 16 -6 30 -13 30 -15 0 -3 -10 -24 -22 -47 -20 -39 -22 -60 -26
-274 -4 -229 -4 -233 16 -233 11 0 22 6 25 13 3 6 2 93 -1 193 -3 128 -1 196
8 235 14 61 36 109 50 109 13 0 23 -39 12 -53 -22 -29 -34 -114 -39 -277 -5
-153 -3 -177 11 -189 23 -20 25 -9 28 196 2 129 7 186 16 195 15 15 14 21 12
-224 -1 -163 0 -188 14 -188 24 0 28 49 24 292 -2 158 -7 229 -15 240 -8 9
-10 28 -6 51 5 32 3 37 -14 37 -10 0 -26 -8 -35 -17z"/>
<path d="M460 523 c-96 -4 -130 -12 -130 -28 0 -12 19 -14 98 -12 80 2 97 -1
97 -13 0 -12 -18 -16 -80 -21 -130 -10 -125 -2 -127 -184 -1 -85 -2 -172 -2
-192 -1 -36 20 -58 28 -31 3 7 8 61 11 119 7 107 7 107 93 113 140 11 164 16
160 34 -3 14 -16 17 -62 17 -77 0 -86 20 -15 32 65 10 66 28 1 28 -35 0 -47 4
-50 16 -3 17 23 29 66 29 21 0 23 4 20 48 -3 53 2 51 -108 45z m-20 -128 c0
-22 -4 -25 -34 -25 -19 0 -38 5 -41 10 -11 18 15 40 46 40 24 0 29 -4 29 -25z
m0 -70 c0 -8 -3 -15 -7 -15 -5 0 -25 -4 -45 -9 -33 -8 -38 -7 -38 9 0 19 16
27 63 29 18 1 27 -4 27 -14z"/>
<path d="M535 236 c10 -51 -19 -56 -59 -10 -21 25 -38 35 -51 32 -18 -4 -14
-10 26 -51 31 -32 42 -50 35 -57 -15 -15 -37 -12 -58 7 -27 24 -33 9 -11 -29
20 -34 40 -39 89 -23 19 6 24 0 40 -42 22 -60 21 -58 39 -43 23 19 18 55 -11
90 -27 31 -27 31 -9 70 17 37 17 41 1 65 -23 36 -38 32 -31 -9z"/>
</g>
</svg>
