<svg version="1.0" xmlns="http://www.w3.org/2000/svg"
 width="66.000000pt" height="90.000000pt" viewBox="0 0 66.000000 90.000000"
 preserveAspectRatio="xMidYMid meet">
<metadata>
Created by potrace 1.15, written by Peter Selinger 2001-2017
</metadata>
<g transform="translate(0.000000,90.000000) scale(0.100000,-0.100000)"
fill="#000000" stroke="none">
<path d="M518 663 c-25 -10 -38 -22 -38 -34 0 -10 -4 -19 -9 -19 -5 0 -16 -2
-23 -5 -9 -4 -17 6 -23 27 -9 31 -13 33 -55 33 -33 0 -45 -4 -45 -15 0 -8 9
-15 20 -16 26 0 55 -14 55 -24 0 -5 -19 -8 -41 -7 -52 2 -63 -18 -15 -26 57
-9 257 4 253 17 -2 6 -22 12 -45 14 -23 2 -42 6 -42 11 0 16 25 31 52 31 18 0
28 5 28 15 0 19 -24 18 -72 -2z"/>
<path d="M155 658 c-33 -5 -67 -16 -75 -24 -13 -14 -12 -17 9 -35 13 -10 30
-19 38 -19 31 0 7 -34 -30 -43 -37 -9 -37 -9 -34 -217 1 -115 6 -212 11 -217
4 -4 14 1 22 11 10 15 14 54 15 145 1 162 9 225 30 229 11 2 18 -12 26 -60 12
-66 11 -237 -1 -299 -9 -41 4 -58 25 -32 16 19 20 288 5 361 -8 44 -8 44 20
40 29 -3 29 -3 36 -126 4 -68 4 -151 -1 -185 -6 -44 -5 -64 3 -69 18 -12 23
-9 36 23 17 40 8 372 -10 394 -7 9 -29 15 -54 15 -45 0 -66 13 -66 42 0 13 11
19 40 24 22 4 48 13 57 20 16 12 16 15 3 24 -17 11 -23 11 -105 -2z"/>
<path d="M498 549 c-21 -12 -24 -59 -6 -77 15 -15 63 -16 89 -2 22 12 26 59 7
78 -15 15 -66 15 -90 1z m67 -39 c0 -18 -33 -26 -47 -12 -6 6 -7 15 -3 22 10
16 50 8 50 -10z"/>
<path d="M332 538 c-19 -19 -15 -66 7 -78 26 -14 74 -13 89 2 13 13 16 47 6
72 -7 19 -84 22 -102 4z m76 -35 c-4 -20 -35 -30 -50 -15 -15 15 0 32 28 32
19 0 25 -5 22 -17z"/>
<path d="M470 443 c-150 -14 -164 -33 -24 -33 112 0 118 -14 9 -23 -94 -8
-111 -17 -125 -65 -13 -47 -13 -282 0 -282 19 0 30 41 30 113 0 84 -9 79 145
92 91 9 100 12 86 29 -8 9 -26 12 -61 8 -41 -4 -50 -2 -50 11 0 11 12 17 42
19 63 5 62 28 -1 28 -28 0 -51 5 -51 10 0 6 16 10 36 10 19 0 44 5 55 10 24
13 26 65 3 74 -16 6 -27 6 -94 -1z m-30 -103 c0 -17 -7 -20 -40 -20 -43 0 -43
0 -34 24 4 10 18 16 40 16 27 0 34 -4 34 -20z m8 -57 c-4 -23 -88 -32 -88 -10
0 22 10 27 52 27 32 0 39 -3 36 -17z"/>
<path d="M485 220 c3 -5 15 -10 26 -10 18 0 37 -25 27 -36 -3 -2 -24 3 -48 11
-43 15 -99 21 -87 8 4 -3 28 -14 54 -22 26 -9 49 -22 51 -30 4 -11 -7 -13 -59
-7 -64 7 -64 7 -34 -18 34 -29 80 -33 105 -11 16 14 18 13 30 -14 7 -17 18
-35 26 -42 25 -20 28 18 5 55 -18 29 -20 38 -10 54 20 32 -12 72 -57 72 -21 0
-33 -4 -29 -10z"/>
</g>
</svg>
