<svg version="1.0" xmlns="http://www.w3.org/2000/svg"
 width="81.000000pt" height="125.000000pt" viewBox="0 0 81.000000 125.000000"
 preserveAspectRatio="xMidYMid meet">
<metadata>
Created by potrace 1.15, written by Peter Selinger 2001-2017
</metadata>
<g transform="translate(0.000000,125.000000) scale(0.100000,-0.100000)"
fill="#000000" stroke="none">
<path d="M344 1156 c-3 -8 -22 -26 -42 -39 -20 -14 -49 -36 -63 -49 -32 -29
-149 -201 -149 -220 0 -8 -4 -18 -9 -23 -15 -17 -51 -130 -51 -163 0 -18 5
-42 12 -55 6 -12 14 -29 18 -37 9 -19 40 -26 50 -10 6 9 16 10 41 1 111 -35
128 -39 131 -30 2 7 18 7 46 1 34 -8 46 -7 57 5 28 28 11 45 -56 58 -31 6 -38
12 -49 45 -11 35 -11 41 9 69 12 17 26 31 31 31 15 0 48 84 40 105 -4 11 -8
60 -8 108 -2 81 0 90 23 113 22 22 27 23 47 12 13 -7 25 -16 28 -19 3 -3 12
-8 20 -12 69 -31 117 -67 137 -101 22 -40 22 -40 -9 -83 -17 -23 -38 -50 -47
-60 -27 -29 -61 -93 -61 -113 0 -20 22 -32 45 -24 8 4 15 12 15 20 0 33 76
119 104 119 12 0 13 -4 19 -188 2 -70 7 -131 11 -134 3 -3 6 -19 6 -35 0 -48
37 -73 65 -44 16 16 14 158 -4 224 -7 23 -16 77 -21 120 -24 186 -29 203 -75
247 -18 17 -61 45 -96 64 -35 19 -75 42 -88 52 -13 11 -29 19 -35 19 -6 0 -22
9 -36 20 -30 23 -49 25 -56 6z m-54 -201 c0 -25 -14 -34 -24 -16 -8 12 3 41
15 41 5 0 9 -11 9 -25z m-12 -89 c22 -49 -22 -87 -84 -72 -28 7 -31 35 -8 71
22 34 76 35 92 1z m-88 -162 c0 -15 -10 -35 -22 -47 -23 -19 -23 -19 0 -13 16
6 22 3 22 -8 0 -19 -31 -21 -48 -4 -13 13 -17 80 -5 91 3 4 17 7 30 7 18 0 23
-5 23 -26z"/>
<path d="M121 503 c-8 -18 -9 -29 -1 -37 5 -5 10 -18 10 -28 0 -10 5 -18 10
-18 20 0 9 -43 -15 -64 -15 -13 -27 -35 -28 -52 -2 -26 1 -29 28 -30 22 0 39
10 65 37 30 32 38 36 58 28 22 -8 23 -13 19 -86 -8 -129 -13 -142 -58 -149
-51 -9 -78 -28 -62 -45 14 -14 107 -29 122 -19 6 3 60 6 121 5 60 0 110 4 110
8 0 5 19 7 43 5 39 -2 42 -1 45 23 3 30 -29 49 -81 49 -28 0 -35 5 -45 33 -6
17 -12 60 -13 95 -2 54 1 65 21 82 13 11 27 20 31 20 7 0 27 -23 59 -69 15
-22 50 -29 50 -10 0 6 -13 35 -29 63 -25 43 -28 54 -17 69 7 9 18 17 23 17 6
0 8 11 5 25 -3 20 -10 25 -33 25 -16 0 -34 -8 -41 -18 -40 -56 -188 -83 -263
-47 -43 21 -44 22 -91 77 -32 36 -32 36 -43 11z m265 -236 c10 -58 7 -96 -7
-113 -19 -23 -30 -3 -36 63 -5 59 8 110 27 98 4 -3 12 -24 16 -48z m9 -147
c-3 -5 -19 -10 -36 -10 -16 0 -29 5 -29 10 0 6 16 10 36 10 21 0 33 -4 29 -10z"/>
</g>
</svg>
