<svg version="1.0" xmlns="http://www.w3.org/2000/svg"
 width="68.000000pt" height="121.000000pt" viewBox="0 0 68.000000 121.000000"
 preserveAspectRatio="xMidYMid meet">
<metadata>
Created by potrace 1.15, written by Peter Selinger 2001-2017
</metadata>
<g transform="translate(0.000000,121.000000) scale(0.100000,-0.100000)"
fill="#000000" stroke="none">
<path d="M98 1062 c-72 -3 -83 -11 -44 -31 14 -8 36 -40 54 -79 45 -99 52
-128 52 -203 0 -63 -2 -69 -21 -69 -43 0 -59 18 -59 68 0 63 -15 87 -29 49
-20 -52 -10 -110 23 -142 6 -5 25 -15 41 -20 22 -8 31 -18 33 -38 3 -22 -3
-30 -32 -44 -53 -25 -68 -72 -74 -230 -2 -73 -1 -150 3 -170 7 -37 8 -37 15
-11 4 14 11 77 14 140 4 62 9 127 12 143 8 39 31 75 48 75 12 0 14 -36 13
-210 -1 -149 1 -212 10 -221 9 -9 13 -4 17 22 6 36 16 256 16 349 0 59 11 87
29 76 27 -17 39 -67 44 -196 7 -145 14 -193 28 -184 13 8 11 348 -2 378 -7 14
-28 32 -50 40 -31 13 -39 21 -39 41 0 14 5 25 11 25 16 0 87 52 95 70 14 30
12 103 -2 117 -16 16 -18 13 -28 -46 -8 -44 -32 -81 -52 -81 -13 0 -15 13 -13
78 2 42 6 82 10 87 3 6 9 26 13 45 8 43 51 133 72 151 13 10 21 10 47 -3 18
-8 44 -21 59 -28 15 -7 30 -21 33 -32 4 -10 13 -25 21 -33 11 -11 16 -45 18
-130 4 -116 4 -116 -28 -113 -30 3 -31 5 -42 68 -7 36 -12 69 -13 73 -1 5 -6
5 -11 2 -6 -3 -10 -39 -10 -79 0 -66 3 -76 26 -100 15 -14 37 -26 49 -26 22 0
35 -17 35 -46 0 -8 -19 -23 -43 -34 -23 -11 -48 -29 -55 -40 -18 -29 -28 -110
-13 -110 9 0 9 -5 0 -21 -11 -21 -7 -125 8 -239 10 -74 20 -18 21 120 2 187
17 250 61 250 17 0 19 -16 26 -237 4 -131 11 -245 16 -253 6 -11 9 -5 10 20 1
19 4 51 6 70 3 19 5 117 4 217 -1 168 0 181 16 176 59 -15 72 -55 74 -232 1
-153 9 -179 25 -81 15 93 17 234 4 279 -11 40 -56 91 -81 91 -20 0 -34 16 -42
48 -5 20 -2 22 33 22 56 0 80 37 79 122 0 54 -2 59 -11 38 -38 -88 -49 -110
-58 -111 -34 -6 -35 -4 -32 76 2 44 8 100 14 125 11 43 52 118 73 132 57 38
58 38 -105 38 -85 0 -200 1 -255 3 -55 1 -130 1 -167 -1z m119 -40 c10 -6 9
-21 -4 -65 -18 -57 -33 -75 -33 -37 0 10 -13 35 -30 53 -16 19 -30 37 -30 40
0 13 80 20 97 9z m336 -33 c-29 -49 -41 -55 -53 -25 -5 15 -17 29 -25 32 -32
13 -13 24 41 24 55 0 55 0 37 -31z"/>
</g>
</svg>
