<svg version="1.0" xmlns="http://www.w3.org/2000/svg"
 width="111.000000pt" height="169.000000pt" viewBox="0 0 111.000000 169.000000"
 preserveAspectRatio="xMidYMid meet">
<metadata>
Created by potrace 1.15, written by Peter Selinger 2001-2017
</metadata>
<g transform="translate(0.000000,169.000000) scale(0.100000,-0.100000)"
fill="#000000" stroke="none">
<path d="M812 1679 c-41 -12 -95 -42 -99 -55 -7 -21 109 -65 121 -45 3 4 18 6
33 4 30 -5 83 28 83 52 0 18 -26 37 -55 39 -14 0 -25 4 -25 9 0 9 -16 8 -58
-4z"/>
<path d="M895 1529 c-47 -12 -98 -23 -180 -39 -33 -7 -67 -14 -75 -15 -8 -2
-18 -4 -21 -4 -12 -2 -17 -56 -7 -68 6 -7 27 -13 47 -13 31 0 40 -6 61 -38 13
-20 39 -54 57 -75 18 -20 33 -44 33 -51 0 -8 8 -21 18 -28 20 -14 37 -104 22
-113 -17 -11 -60 16 -119 74 -35 34 -67 59 -72 56 -12 -8 -12 -65 1 -65 6 0
10 -7 10 -16 0 -40 131 -134 188 -134 8 0 12 -15 12 -44 0 -44 0 -44 -66 -56
-106 -20 -99 -60 10 -60 59 0 59 0 53 -35 -9 -54 -65 -162 -104 -201 -35 -36
-35 -36 -199 -34 -90 0 -171 3 -178 6 -21 8 -56 -14 -56 -36 0 -15 9 -20 48
-25 169 -20 157 -15 154 -65 -2 -25 -8 -49 -13 -55 -5 -5 -9 -21 -9 -36 0 -15
-6 -29 -12 -32 -7 -2 -57 -2 -110 1 -95 4 -98 4 -98 -16 0 -33 37 -50 123 -58
42 -4 77 -11 77 -15 0 -5 -4 -9 -10 -9 -5 0 -9 -21 -8 -47 0 -27 -4 -49 -11
-51 -6 -2 -11 -10 -11 -17 0 -11 -26 -13 -127 -12 -109 2 -128 0 -131 -14 -4
-21 31 -35 124 -49 43 -6 102 -16 129 -21 73 -15 325 -24 325 -12 0 12 -33 43
-47 43 -5 0 -23 6 -39 14 -16 8 -57 17 -91 21 -43 5 -63 11 -63 20 0 8 5 17
10 20 6 3 10 19 10 36 0 16 5 29 10 29 6 0 10 8 10 19 0 38 23 44 122 32 125
-14 178 -6 178 29 0 15 -7 20 -29 20 -17 0 -32 4 -35 9 -3 4 -46 12 -96 15
-58 5 -93 12 -96 20 -8 20 15 106 32 123 12 12 38 14 138 12 92 -3 127 -1 139
9 25 21 2 48 -52 63 -25 7 -48 13 -50 15 -1 1 9 18 23 37 14 19 26 37 26 40 0
3 13 34 29 69 17 35 35 82 41 106 10 39 13 42 48 44 64 2 67 3 67 15 0 6 3 15
8 19 17 18 3 24 -53 24 -60 0 -60 0 -60 46 0 40 5 50 38 82 52 51 97 119 109
167 8 33 7 43 -8 59 -20 21 -39 14 -39 -15 0 -10 -4 -19 -9 -19 -5 0 -12 -9
-16 -20 -6 -18 -80 -100 -90 -100 -10 0 -5 129 5 135 6 3 10 17 10 31 0 14 6
27 14 30 19 7 46 76 46 115 0 16 7 41 16 55 16 23 16 26 -2 39 -10 8 -26 15
-34 15 -8 0 -24 2 -35 4 -11 2 -38 0 -60 -5z m21 -96 c-3 -10 -8 -31 -12 -48
-8 -35 -34 -74 -50 -75 -13 0 -46 36 -70 77 -18 32 -18 33 0 46 11 8 46 15 78
16 53 2 59 0 54 -16z"/>
<path d="M130 1454 c0 -9 15 -30 32 -46 32 -30 32 -30 12 -47 -12 -9 -34 -27
-50 -39 -16 -13 -38 -28 -49 -33 -22 -11 -48 -57 -39 -70 14 -24 53 -7 147 65
30 23 40 26 52 16 40 -33 4 -131 -71 -193 -39 -33 -44 -65 -14 -92 11 -10 20
-23 20 -30 0 -6 11 -18 25 -25 43 -23 50 -90 23 -212 -6 -32 -15 -58 -19 -58
-3 0 -12 -21 -19 -47 -7 -27 -16 -52 -20 -58 -4 -5 -11 -25 -15 -43 -8 -37 11
-44 37 -14 32 37 89 146 83 160 -3 8 5 31 18 51 13 20 27 50 31 66 4 17 12 43
18 58 11 28 11 28 28 -1 34 -56 145 -107 176 -81 8 6 14 9 14 6 0 -7 96 19
127 35 20 10 53 85 53 123 0 43 -69 114 -129 133 -49 14 -157 16 -166 2 -3 -5
-13 -10 -22 -10 -9 0 -34 -18 -56 -40 -39 -40 -40 -41 -61 -23 -11 10 -25 24
-29 31 -4 6 -15 12 -22 12 -9 0 -15 10 -15 25 0 14 6 25 13 25 11 0 23 10 81
70 53 54 -41 243 -143 286 -43 18 -51 18 -51 -2z m480 -460 c20 -5 45 -83 31
-97 -6 -6 -36 -14 -67 -18 -67 -9 -112 8 -138 51 -20 36 -12 60 23 61 14 0 35
4 46 9 18 8 64 5 105 -6z"/>
<path d="M910 40 c0 -5 5 -10 10 -10 6 0 10 5 10 10 0 6 -4 10 -10 10 -5 0
-10 -4 -10 -10z"/>
</g>
</svg>
