<svg version="1.0" xmlns="http://www.w3.org/2000/svg"
 width="67.000000pt" height="86.000000pt" viewBox="0 0 67.000000 86.000000"
 preserveAspectRatio="xMidYMid meet">
<metadata>
Created by potrace 1.15, written by Peter Selinger 2001-2017
</metadata>
<g transform="translate(0.000000,86.000000) scale(0.100000,-0.100000)"
fill="#000000" stroke="none">
<path d="M337 663 c-27 -4 -57 -44 -57 -77 0 -18 30 -36 59 -36 23 0 28 -22 9
-37 -7 -6 -26 -15 -42 -20 -37 -12 -46 -33 -14 -33 32 0 89 37 95 61 3 12 12
19 22 17 14 -3 16 -23 16 -150 0 -96 -4 -151 -11 -158 -6 -7 -30 -14 -53 -17
-70 -10 -98 -85 -46 -119 44 -28 241 -7 212 23 -4 4 -48 9 -98 11 -68 3 -92 8
-96 19 -7 19 9 29 57 37 57 9 68 29 76 134 7 87 8 92 30 92 30 0 66 -46 58
-74 -3 -12 -21 -45 -40 -74 -45 -68 -8 -70 39 -2 17 24 17 24 19 -35 1 -33 1
-88 0 -122 -2 -38 1 -64 8 -68 27 -17 34 17 35 173 0 86 4 191 9 232 7 67 6
78 -11 99 -25 30 -123 44 -123 17 0 -9 7 -16 15 -16 9 0 29 -7 44 -15 23 -11
30 -22 33 -55 5 -54 -5 -70 -30 -47 -10 9 -32 17 -49 17 -30 0 -31 1 -35 55
-3 31 -10 61 -17 68 -6 6 -37 14 -69 17 -42 4 -58 9 -60 21 -4 21 35 29 149
29 86 0 118 12 88 31 -14 9 -168 10 -222 2z"/>
<path d="M70 599 c-19 -70 2 -119 51 -119 40 0 40 -34 0 -54 -43 -23 -61 -86
-61 -217 0 -79 4 -110 14 -118 24 -20 30 6 31 139 2 129 6 155 31 164 12 4 14
-20 14 -149 0 -124 3 -155 14 -155 17 0 26 64 26 197 0 79 3 104 13 101 9 -3
13 -44 15 -147 2 -105 6 -141 15 -138 18 6 25 44 25 147 1 108 -13 161 -45
175 -32 14 -30 51 2 59 29 7 45 40 45 91 0 31 -14 54 -26 42 -2 -2 -8 -24 -12
-48 -5 -30 -13 -45 -25 -47 -15 -3 -17 5 -17 57 0 48 -3 61 -15 61 -12 0 -15
-14 -15 -65 0 -36 -4 -65 -9 -65 -18 0 -30 27 -33 74 -4 63 -23 70 -38 15z"/>
<path d="M375 398 c-13 -29 -45 -35 -62 -12 -7 10 -16 15 -19 11 -10 -10 -17
-94 -10 -121 6 -24 11 -26 56 -26 61 0 72 16 68 102 -3 65 -17 83 -33 46z m-5
-82 c0 -22 -16 -36 -41 -36 -5 0 -9 14 -9 30 0 25 4 30 25 30 20 0 25 -5 25
-24z"/>
</g>
</svg>
