<svg version="1.0" xmlns="http://www.w3.org/2000/svg"
 width="69.000000pt" height="83.000000pt" viewBox="0 0 69.000000 83.000000"
 preserveAspectRatio="xMidYMid meet">
<metadata>
Created by potrace 1.15, written by Peter Selinger 2001-2017
</metadata>
<g transform="translate(0.000000,83.000000) scale(0.100000,-0.100000)"
fill="#000000" stroke="none">
<path d="M138 644 c-7 -7 0 -554 8 -592 6 -29 32 -28 39 1 4 13 5 152 3 308
-3 277 -3 284 -23 287 -12 2 -24 0 -27 -4z"/>
<path d="M346 611 c5 -24 2 -29 -20 -35 -35 -9 -33 -25 4 -38 19 -6 32 -19 36
-34 5 -17 16 -27 36 -31 43 -9 33 -38 -13 -38 -45 0 -69 -19 -69 -56 0 -34 23
-49 74 -49 35 0 36 -1 36 -40 0 -35 -4 -41 -32 -54 -37 -17 -88 -60 -88 -75 0
-26 26 -19 77 23 30 25 60 46 65 46 17 0 72 -32 106 -61 34 -30 48 -34 70 -20
30 19 7 46 -56 67 -79 28 -92 39 -92 80 0 34 0 34 58 34 66 0 82 11 82 56 0
40 -11 47 -79 54 -64 6 -74 21 -29 41 21 9 34 22 36 37 3 18 10 22 42 22 21 0
42 5 46 12 9 14 -23 38 -49 38 -11 0 -28 11 -39 25 -27 34 -56 33 -60 -2 -3
-24 -8 -28 -38 -31 -31 -3 -37 1 -47 28 -8 23 -18 30 -37 30 -23 0 -25 -3 -20
-29z m142 -83 c-5 -15 -78 -24 -78 -10 0 16 13 22 48 22 22 0 32 -4 30 -12z
m-58 -148 c0 -13 -7 -20 -19 -20 -22 0 -35 15 -26 30 12 19 45 11 45 -10z
m128 -2 c3 -15 -4 -18 -32 -18 -30 0 -36 4 -36 21 0 17 5 20 32 17 22 -2 34
-9 36 -20z"/>
<path d="M56 605 c-8 -21 -8 -113 0 -143 4 -14 13 -22 23 -20 16 3 18 16 24
143 2 24 -3 31 -19 33 -13 2 -24 -4 -28 -13z"/>
<path d="M226 604 c-12 -33 -6 -121 9 -134 10 -8 19 -9 25 -4 11 11 16 126 6
142 -10 17 -33 15 -40 -4z"/>
<path d="M58 358 c-3 -7 -3 -79 0 -160 4 -136 6 -148 23 -148 26 0 30 26 26
180 -3 127 -5 135 -24 138 -11 2 -23 -3 -25 -10z"/>
<path d="M237 363 c-10 -10 -8 -266 2 -282 5 -8 16 -11 26 -7 15 5 17 15 11
59 -3 28 -6 94 -6 145 0 70 -3 92 -13 92 -8 0 -17 -3 -20 -7z"/>
<path d="M520 277 c0 -16 51 -30 75 -20 28 10 9 28 -33 31 -31 2 -42 -1 -42
-11z"/>
<path d="M335 270 c-3 -5 0 -13 9 -16 21 -8 61 -1 61 11 0 14 -62 19 -70 5z"/>
<path d="M435 188 c-2 -7 -5 -24 -7 -38 -2 -17 -10 -26 -26 -28 -28 -4 -24
-26 6 -30 37 -6 24 -22 -17 -22 -48 0 -71 -8 -71 -25 0 -21 25 -25 153 -25
128 0 154 7 143 35 -5 14 -15 17 -52 12 -25 -2 -54 -2 -65 0 -34 9 -20 22 29
25 34 2 47 7 47 18 0 10 -9 14 -25 13 -51 -4 -70 6 -70 36 0 17 -6 31 -16 35
-22 8 -24 8 -29 -6z"/>
</g>
</svg>
