<svg version="1.0" xmlns="http://www.w3.org/2000/svg"
 width="69.000000pt" height="89.000000pt" viewBox="0 0 69.000000 89.000000"
 preserveAspectRatio="xMidYMid meet">
<metadata>
Created by potrace 1.15, written by Peter Selinger 2001-2017
</metadata>
<g transform="translate(0.000000,89.000000) scale(0.100000,-0.100000)"
fill="#000000" stroke="none">
<path d="M485 705 c-3 -8 -7 -22 -10 -30 -2 -8 -16 -15 -30 -15 -21 0 -25 4
-20 19 4 14 0 21 -14 26 -24 7 -41 -1 -41 -19 0 -8 -10 -20 -22 -28 -24 -16
-17 -38 13 -38 26 0 24 -28 -3 -32 -12 -2 -23 -9 -26 -15 -3 -10 12 -13 52
-13 50 0 58 -3 65 -22 8 -21 5 -23 -28 -26 -72 -5 -81 -10 -81 -45 0 -51 24
-77 71 -77 35 0 39 -3 39 -24 0 -22 -5 -25 -42 -28 -59 -4 -63 -28 -4 -28 34
0 46 -4 46 -15 0 -15 -22 -23 -80 -27 -54 -4 -41 -23 18 -26 44 -3 52 -6 48
-20 -24 -84 -41 -132 -48 -132 -4 0 -8 -14 -8 -31 0 -23 4 -30 17 -27 16 3 28
33 47 121 10 45 31 31 60 -42 30 -76 45 -95 70 -85 22 8 20 27 -5 50 -21 19
-70 108 -84 152 -7 23 -7 23 65 16 60 -6 72 -4 68 7 -3 10 -25 15 -71 17 -59
3 -67 5 -67 22 0 18 7 20 66 20 57 0 65 2 62 18 -3 14 -12 16 -61 14 -56 -4
-57 -3 -57 22 0 24 3 26 43 26 57 0 87 22 87 64 0 45 -16 56 -77 56 -29 0 -53
4 -53 9 0 5 -3 16 -6 25 -5 13 7 16 72 18 51 2 79 7 82 16 3 9 -12 12 -52 12
-43 0 -56 3 -56 15 0 15 20 22 75 27 19 2 30 9 30 18 0 11 -13 16 -49 18 -41
3 -47 6 -43 22 3 13 -2 20 -17 24 -31 9 -36 7 -41 -9z m-7 -97 c3 -14 -3 -18
-27 -18 -25 0 -31 4 -31 21 0 16 5 20 27 17 17 -2 29 -10 31 -20z m-30 -155
c-4 -36 -41 -44 -58 -13 -15 27 -5 40 31 40 27 0 30 -3 27 -27z m137 17 c10
-16 -33 -50 -65 -50 -27 0 -30 3 -30 30 0 29 2 30 44 30 25 0 47 -4 51 -10z"/>
<path d="M72 698 c-15 -15 -16 -146 -2 -182 15 -41 37 -32 43 17 11 81 8 160
-5 169 -17 10 -22 10 -36 -4z"/>
<path d="M146 695 c-3 -9 -6 -154 -6 -321 0 -262 2 -304 15 -304 21 0 23 19
30 310 3 146 7 279 8 295 2 24 -2 31 -19 33 -13 2 -24 -4 -28 -13z"/>
<path d="M248 693 c-11 -14 -14 -35 -10 -90 4 -68 6 -73 27 -73 20 0 22 6 28
81 4 45 4 86 1 90 -9 14 -30 10 -46 -8z"/>
<path d="M229 403 c-12 -30 -8 -307 4 -319 4 -4 14 -1 23 6 12 11 14 25 9 69
-3 31 -1 99 4 151 6 63 6 99 -1 108 -16 19 -28 14 -39 -15z"/>
<path d="M73 408 c-11 -18 -16 -280 -5 -296 5 -7 16 -10 26 -6 15 6 16 23 14
157 -2 103 -7 152 -15 154 -6 2 -15 -2 -20 -9z"/>
<path d="M346 184 c-21 -20 -20 -53 0 -61 20 -7 41 14 49 50 6 23 4 27 -13 27
-11 0 -28 -7 -36 -16z"/>
<path d="M560 180 c0 -13 41 -50 57 -50 21 0 15 27 -9 44 -25 18 -48 21 -48 6z"/>
</g>
</svg>
