<svg version="1.0" xmlns="http://www.w3.org/2000/svg"
 width="65.000000pt" height="85.000000pt" viewBox="0 0 65.000000 85.000000"
 preserveAspectRatio="xMidYMid meet">
<metadata>
Created by potrace 1.15, written by Peter Selinger 2001-2017
</metadata>
<g transform="translate(0.000000,85.000000) scale(0.100000,-0.100000)"
fill="#000000" stroke="none">
<path d="M140 683 c0 -5 4 -36 9 -70 7 -46 6 -74 -5 -109 -17 -56 -18 -152 -3
-300 11 -113 20 -137 41 -116 10 10 9 39 -4 135 -16 130 -16 265 1 311 15 37
14 129 -1 144 -13 13 -38 16 -38 5z"/>
<path d="M346 671 c-4 -6 -4 -21 0 -34 3 -14 1 -28 -5 -31 -6 -4 -13 8 -17 29
-8 47 -34 47 -34 0 0 -24 9 -45 30 -68 35 -40 40 -83 11 -92 -51 -16 -25 -91
37 -110 46 -13 43 -43 -5 -47 -20 -2 -39 -9 -41 -17 -4 -11 4 -13 37 -8 38 5
62 -6 46 -21 -4 -4 -32 -7 -62 -7 -36 0 -58 -4 -60 -12 -4 -10 12 -13 56 -13
46 0 61 -3 61 -14 0 -8 -13 -51 -30 -96 -33 -90 -36 -110 -17 -110 17 0 35 38
43 91 12 70 36 62 80 -27 28 -58 35 -62 54 -39 13 16 10 23 -32 77 -15 20 -35
54 -43 77 -14 40 -14 40 58 43 56 2 72 6 72 18 0 12 -13 14 -72 12 -61 -3 -73
-1 -73 12 0 12 10 16 38 16 50 0 84 10 79 24 -2 6 -27 11 -58 11 -63 0 -75 21
-21 39 36 12 71 50 72 77 0 29 -23 39 -92 39 -73 0 -94 15 -69 49 35 48 51 78
51 94 0 25 -34 18 -38 -8 -7 -38 -22 -40 -22 -3 0 36 -23 68 -34 49z m160
-223 c8 -13 -22 -38 -48 -38 -13 0 -18 8 -18 25 0 21 5 25 29 25 17 0 33 -5
37 -12z m-106 -23 c0 -31 -34 -35 -49 -6 -12 22 -5 31 26 31 18 0 23 -5 23
-25z"/>
<path d="M500 628 c0 -42 -14 -44 -22 -3 -2 11 -8 20 -13 20 -21 0 -15 -46 11
-91 24 -40 29 -44 39 -30 7 9 18 16 26 16 19 1 43 21 58 48 10 19 10 26 0 39
-11 13 -17 11 -41 -19 -27 -33 -27 -33 -28 15 0 35 -4 47 -15 47 -11 0 -15
-11 -15 -42z"/>
<path d="M85 628 c4 -13 10 -49 12 -80 3 -32 9 -58 14 -58 24 0 22 117 -3 147
-17 21 -31 15 -23 -9z"/>
<path d="M204 560 c1 -44 5 -83 9 -86 11 -11 27 44 27 91 0 53 -8 75 -26 75
-10 0 -12 -18 -10 -80z"/>
<path d="M200 379 c-9 -32 -8 -58 2 -111 7 -38 18 -70 23 -71 6 -1 10 44 11
111 1 86 -2 112 -12 112 -7 0 -18 -19 -24 -41z"/>
<path d="M76 392 c-24 -39 -9 -198 18 -189 6 2 11 13 10 25 0 12 -1 56 -2 97
-2 67 -11 91 -26 67z"/>
<path d="M318 219 c-16 -9 -26 -49 -13 -49 18 0 66 33 62 43 -5 16 -28 19 -49
6z"/>
<path d="M490 202 c0 -5 11 -19 25 -32 19 -18 28 -21 37 -12 9 9 7 16 -7 32
-18 20 -55 28 -55 12z"/>
</g>
</svg>
