<svg version="1.0" xmlns="http://www.w3.org/2000/svg"
 width="53.000000pt" height="97.000000pt" viewBox="0 0 53.000000 97.000000"
 preserveAspectRatio="xMidYMid meet">
<metadata>
Created by potrace 1.15, written by Peter Selinger 2001-2017
</metadata>
<g transform="translate(0.000000,97.000000) scale(0.100000,-0.100000)"
fill="#000000" stroke="none">
<path d="M195 871 c-3 -11 -3 -31 1 -45 8 -32 2 -33 -30 -1 -31 31 -36 31 -36
0 0 -17 15 -41 45 -71 31 -32 46 -57 50 -82 4 -20 12 -54 20 -75 15 -41 7 -87
-36 -210 -11 -32 -18 -66 -14 -75 6 -15 10 -13 31 13 13 17 24 36 24 43 0 7 8
31 19 55 10 23 23 55 30 70 11 28 11 28 36 10 22 -16 24 -23 18 -68 -3 -27
-10 -60 -14 -73 -16 -42 -10 -91 28 -249 6 -26 32 -38 39 -20 3 8 0 34 -5 58
-21 88 -12 208 20 271 18 36 9 60 -42 108 -56 53 -55 48 -29 150 7 25 14 69
17 98 4 46 3 52 -14 52 -16 0 -22 -12 -32 -55 -7 -30 -15 -55 -19 -55 -19 1
-30 20 -42 70 -16 69 -30 100 -46 100 -7 0 -15 -9 -19 -19z"/>
</g>
</svg>
