<svg version="1.0" xmlns="http://www.w3.org/2000/svg"
 width="72.000000pt" height="94.000000pt" viewBox="0 0 72.000000 94.000000"
 preserveAspectRatio="xMidYMid meet">
<metadata>
Created by potrace 1.15, written by Peter Selinger 2001-2017
</metadata>
<g transform="translate(0.000000,94.000000) scale(0.100000,-0.100000)"
fill="#000000" stroke="none">
<path d="M445 718 c-73 -10 -96 -21 -79 -38 9 -9 257 5 275 16 4 2 6 11 2 19
-6 17 -84 18 -198 3z"/>
<path d="M157 694 c-11 -12 3 -24 29 -24 47 0 23 -46 -71 -133 -57 -53 -59
-56 -43 -73 17 -17 20 -16 59 21 22 22 56 68 76 103 19 34 40 62 47 62 13 0
36 -41 36 -64 0 -7 -18 -37 -41 -67 -62 -83 -69 -105 -58 -191 13 -97 7 -123
-46 -198 -41 -58 -58 -110 -36 -110 15 0 77 83 110 147 34 68 37 92 20 176
-10 51 -9 60 11 104 13 26 34 61 47 76 51 62 39 121 -33 155 -43 21 -94 29
-107 16z"/>
<path d="M543 644 c-42 -36 -42 -36 -69 -15 -41 33 -60 26 -26 -9 33 -33 50
-86 33 -103 -7 -7 -25 -2 -62 16 -59 31 -59 31 -59 13 0 -18 55 -60 95 -73 37
-12 47 -56 17 -72 -25 -14 -100 9 -123 37 -19 24 -49 29 -49 9 0 -35 92 -87
155 -87 41 0 41 -2 16 -44 -10 -17 -29 -60 -42 -96 -13 -36 -36 -84 -51 -106
-55 -82 -20 -103 38 -24 29 40 48 90 88 222 16 55 30 51 37 -12 13 -112 59
-220 95 -220 22 0 17 25 -20 103 -21 45 -36 95 -40 133 -7 62 -7 62 43 100 48
38 65 64 39 64 -7 0 -38 -16 -68 -36 -55 -35 -55 -35 -58 -2 -2 18 1 34 7 36
6 2 34 19 61 38 27 19 54 34 60 34 13 0 13 27 0 35 -6 4 -23 -2 -38 -12 -35
-23 -84 -45 -90 -39 -14 15 12 73 43 96 33 24 40 41 19 46 -5 2 -28 -13 -51
-32z"/>
</g>
</svg>
