<svg version="1.0" xmlns="http://www.w3.org/2000/svg"
 width="65.000000pt" height="81.000000pt" viewBox="0 0 65.000000 81.000000"
 preserveAspectRatio="xMidYMid meet">
<metadata>
Created by potrace 1.15, written by Peter Selinger 2001-2017
</metadata>
<g transform="translate(0.000000,81.000000) scale(0.100000,-0.100000)"
fill="#000000" stroke="none">
<path d="M315 698 c-220 -15 -215 -9 -227 -303 -4 -116 -13 -241 -18 -279 -11
-73 -5 -94 24 -83 12 5 16 21 16 69 0 35 4 90 10 123 5 33 11 134 14 224 4
146 7 166 24 184 25 24 120 36 300 37 106 0 132 3 132 14 0 29 -37 30 -275 14z"/>
<path d="M498 578 c-3 -42 -4 -43 -40 -46 -54 -5 -52 -32 2 -32 29 0 40 -4 40
-15 0 -18 -41 -85 -64 -104 -9 -7 -16 -22 -16 -33 0 -34 32 -16 56 32 23 45
23 45 26 -10 2 -41 7 -55 18 -55 12 0 16 18 18 93 3 90 3 92 27 92 16 0 25 6
25 15 0 9 -9 15 -24 15 -22 0 -25 5 -28 42 -2 31 -8 44 -20 46 -13 3 -17 -6
-20 -40z"/>
<path d="M284 568 c-31 -61 -38 -65 -44 -24 -3 20 -9 36 -15 36 -9 0 -10 -34
-3 -120 3 -30 0 -35 -19 -38 -28 -4 -30 -22 -3 -29 11 -3 20 -13 20 -22 0 -10
11 -28 25 -41 20 -19 32 -22 65 -17 46 6 80 31 80 57 0 10 9 20 21 23 22 6 18
27 -5 27 -7 0 -23 36 -37 88 -20 73 -28 88 -46 90 -16 2 -26 -5 -39 -30z m34
-66 c-27 -5 -32 2 -18 29 13 22 13 22 26 -2 11 -22 11 -24 -8 -27z m32 -56 c0
-16 -21 -26 -56 -26 -17 0 -24 6 -24 20 0 17 7 20 40 20 28 0 40 -4 40 -14z
m10 -67 c0 -5 -17 -17 -37 -26 -40 -16 -65 -9 -71 21 -3 13 6 16 52 16 33 0
56 -4 56 -11z"/>
<path d="M360 253 c-1 -92 -36 -153 -116 -199 -15 -10 -16 -15 -7 -25 10 -10
21 -7 55 16 24 16 53 40 65 53 21 25 21 25 72 -27 51 -52 82 -63 89 -30 2 10
-15 28 -45 47 -61 40 -73 59 -80 138 -4 44 -10 64 -19 64 -9 0 -14 -13 -14
-37z"/>
<path d="M464 266 c-16 -41 44 -146 82 -146 22 0 16 22 -16 64 -17 22 -30 52
-30 68 0 30 -26 40 -36 14z"/>
<path d="M260 226 c-5 -15 -10 -30 -10 -32 0 -3 -12 -21 -27 -40 -20 -27 -23
-38 -14 -47 17 -17 68 41 77 88 9 47 -11 70 -26 31z"/>
</g>
</svg>
