<svg version="1.0" xmlns="http://www.w3.org/2000/svg"
 width="58.000000pt" height="75.000000pt" viewBox="0 0 58.000000 75.000000"
 preserveAspectRatio="xMidYMid meet">
<metadata>
Created by potrace 1.15, written by Peter Selinger 2001-2017
</metadata>
<g transform="translate(0.000000,75.000000) scale(0.100000,-0.100000)"
fill="#000000" stroke="none">
<path d="M285 668 c-2 -7 -5 -24 -7 -38 -2 -20 -11 -26 -45 -33 -51 -10 -57
-27 -10 -27 46 0 61 -13 53 -44 -5 -21 -12 -26 -37 -26 -45 0 -77 26 -85 68
-10 61 -15 72 -31 72 -13 0 -15 -9 -9 -57 5 -48 11 -62 37 -85 18 -15 49 -30
70 -33 39 -7 39 -7 9 -43 -16 -20 -30 -42 -30 -49 0 -12 -38 -43 -52 -43 -12
0 -35 51 -42 94 -8 42 -32 86 -48 86 -6 0 -7 -10 -4 -22 4 -13 11 -52 17 -88
6 -42 17 -72 31 -87 21 -23 21 -23 3 -103 -18 -78 -18 -81 1 -116 30 -56 45
-64 135 -74 67 -6 92 -5 124 8 107 41 149 142 105 249 -13 29 -11 37 23 110
20 43 37 87 37 97 0 34 -23 10 -44 -47 -11 -31 -30 -66 -42 -77 -21 -21 -21
-21 -55 9 -19 16 -47 41 -64 55 -16 14 -27 28 -24 30 3 3 30 9 60 13 50 8 55
11 77 50 32 59 44 103 28 103 -7 0 -16 -3 -20 -7 -4 -4 -36 -8 -72 -8 -64 0
-64 0 -64 38 0 35 -16 51 -25 25z m135 -106 c0 -33 -25 -54 -73 -62 -44 -6
-47 -5 -47 15 0 31 21 53 55 58 60 8 65 7 65 -11z m-71 -196 c32 -33 40 -46
29 -52 -16 -10 -188 -18 -188 -8 0 4 17 29 37 55 24 31 45 49 58 49 11 0 40
-20 64 -44z m92 -113 c17 -45 -4 -153 -30 -153 -16 0 -34 61 -28 100 3 22 1
40 -4 40 -13 0 -29 -36 -29 -65 0 -31 26 -85 41 -85 28 0 -8 -20 -54 -30 -64
-15 -155 0 -181 29 -23 26 -24 90 -2 140 15 33 24 41 45 41 62 0 66 -6 66 -78
0 -37 4 -75 8 -85 15 -38 27 -3 27 78 0 57 4 85 13 88 6 3 36 6 65 6 48 1 53
-1 63 -26z"/>
<path d="M190 176 c0 -19 -3 -41 -6 -50 -3 -9 -1 -16 5 -16 16 0 33 50 26 77
-8 35 -25 27 -25 -11z"/>
</g>
</svg>
