<svg version="1.0" xmlns="http://www.w3.org/2000/svg"
 width="71.000000pt" height="89.000000pt" viewBox="0 0 71.000000 89.000000"
 preserveAspectRatio="xMidYMid meet">
<metadata>
Created by potrace 1.15, written by Peter Selinger 2001-2017
</metadata>
<g transform="translate(0.000000,89.000000) scale(0.100000,-0.100000)"
fill="#000000" stroke="none">
<path d="M137 652 c-15 -16 -17 -52 -17 -298 0 -226 3 -284 14 -300 8 -10 18
-15 23 -11 4 5 8 97 8 205 0 197 0 197 85 200 47 1 92 5 100 8 29 12 -22 23
-106 23 -73 1 -82 3 -87 21 -5 19 0 20 94 20 93 0 99 1 114 24 12 18 13 30 5
50 -5 15 -10 31 -10 35 0 5 61 6 135 3 116 -4 135 -3 135 10 0 23 -50 28 -276
28 -182 0 -202 -2 -217 -18z m179 -20 c17 -11 25 -45 15 -61 -7 -10 -36 -16
-95 -19 -86 -5 -86 -5 -86 24 0 36 9 50 35 57 32 8 119 7 131 -1z"/>
<path d="M243 613 c-18 -6 -16 -33 1 -33 19 0 31 19 20 30 -5 4 -15 5 -21 3z"/>
<path d="M440 570 c-20 -20 -25 -55 -14 -97 9 -35 24 -27 24 11 0 57 8 66 55
66 23 0 47 -6 53 -13 14 -17 3 -93 -15 -109 -9 -8 -67 -13 -161 -16 -81 -2
-153 -9 -159 -14 -18 -15 -16 -63 3 -79 10 -8 49 -16 88 -19 57 -4 71 -8 74
-23 3 -14 -5 -17 -50 -17 -61 0 -98 -8 -98 -21 0 -5 62 -9 138 -9 155 0 185
-5 179 -29 -2 -9 -10 -14 -18 -11 -33 10 -265 11 -293 0 -16 -6 -26 -13 -23
-17 4 -3 64 -5 134 -4 129 2 178 -5 165 -25 -14 -20 -90 -34 -186 -34 -89 0
-119 -9 -80 -24 9 -3 69 -6 133 -6 103 0 122 3 144 20 36 28 47 25 47 -14 0
-41 10 -50 35 -32 18 13 18 15 -3 65 -18 43 -19 56 -9 78 10 22 8 28 -12 44
-18 15 -40 19 -92 19 -62 0 -69 2 -69 20 0 19 7 20 89 20 88 0 120 11 90 31
-8 5 -85 9 -172 8 -153 -1 -197 7 -181 32 3 5 77 9 164 9 153 0 159 1 174 22
19 27 21 119 5 151 -17 32 -28 37 -86 37 -40 0 -58 -5 -73 -20z"/>
</g>
</svg>
