<svg version="1.0" xmlns="http://www.w3.org/2000/svg"
 width="66.000000pt" height="116.000000pt" viewBox="0 0 66.000000 116.000000"
 preserveAspectRatio="xMidYMid meet">
<metadata>
Created by potrace 1.15, written by Peter Selinger 2001-2017
</metadata>
<g transform="translate(0.000000,116.000000) scale(0.100000,-0.100000)"
fill="#000000" stroke="none">
<path d="M559 1033 c-1 -5 0 -18 0 -29 2 -18 -12 -27 -79 -54 -44 -18 -83 -37
-86 -42 -12 -19 12 -28 50 -17 45 12 58 2 47 -40 -5 -17 -16 -28 -32 -31 -40
-8 -54 -23 -67 -67 -11 -37 -10 -47 4 -75 20 -38 42 -57 67 -58 12 0 17 -8 17
-28 0 -25 -6 -31 -38 -40 -33 -10 -39 -17 -50 -58 -16 -59 -2 -90 56 -122 37
-20 41 -26 31 -43 -5 -11 -21 -25 -33 -30 -44 -20 -83 -222 -49 -251 21 -17
24 -10 39 117 7 58 27 105 45 105 5 0 9 -10 9 -22 0 -232 -1 -228 20 -228 22
0 22 -5 24 150 1 86 4 105 16 108 25 4 50 -60 50 -128 0 -65 15 -110 38 -110
12 0 14 14 8 87 -10 135 -30 175 -99 197 -29 9 -16 40 23 52 40 13 70 55 70
99 -1 40 -21 64 -63 76 -61 16 -51 73 16 89 15 4 23 15 25 33 2 15 7 27 11 27
5 0 5 21 0 46 -9 47 -39 83 -71 84 -14 0 -18 9 -18 41 0 43 21 72 61 84 23 8
24 33 3 63 -14 21 -43 30 -45 15z m15 -269 c20 -19 12 -62 -16 -86 -29 -25
-86 -23 -109 4 -22 24 -23 36 -9 72 9 24 15 26 64 26 36 0 60 -5 70 -16z m-20
-254 c21 -8 26 -16 26 -44 0 -45 -17 -56 -80 -52 -68 5 -77 20 -54 94 4 14 72
16 108 2z"/>
<path d="M172 1000 c-38 -16 -51 -64 -51 -199 -1 -118 7 -156 33 -173 6 -4 43
-8 82 -8 104 0 109 8 108 169 0 146 -13 206 -47 215 -32 8 -98 6 -125 -4z
m112 -42 c30 -42 21 -55 -40 -63 -61 -7 -59 -8 -68 20 -7 24 1 37 34 52 38 18
57 15 74 -9z m-9 -110 c15 -7 25 -18 23 -27 -3 -12 -19 -17 -71 -19 -60 -3
-68 -1 -65 14 2 10 19 23 38 30 45 16 44 16 75 2z m18 -108 c4 -4 5 -19 2 -33
-5 -20 -14 -26 -49 -31 -54 -8 -73 -1 -79 30 -4 20 1 28 27 39 30 13 83 11 99
-5z"/>
<path d="M36 918 c-2 -13 -4 -32 -4 -43 -1 -11 -1 -83 -2 -160 -1 -78 3 -152
9 -167 13 -34 59 -48 158 -48 65 0 71 -2 66 -19 -3 -11 5 -32 17 -49 18 -24
21 -37 15 -69 -4 -21 -9 -74 -12 -118 -4 -69 -1 -88 19 -133 27 -60 58 -72 58
-22 0 17 -4 30 -9 30 -5 0 -14 29 -21 65 -10 52 -10 75 0 110 23 82 13 160
-25 187 -5 4 -2 9 8 12 9 4 24 8 32 11 8 2 15 14 15 25 0 21 -4 21 -135 19
-74 -2 -137 0 -141 4 -5 5 -10 48 -16 157 -1 8 2 56 6 106 3 51 3 99 0 108 -9
24 -33 19 -38 -6z"/>
<path d="M45 471 c-3 -5 -1 -12 4 -16 24 -14 30 -77 15 -144 -16 -68 -13 -184
5 -219 5 -9 12 -26 16 -36 5 -18 7 -18 22 -3 15 15 15 21 4 52 -16 44 -17 170
-2 208 18 45 13 106 -10 138 -20 29 -43 37 -54 20z"/>
<path d="M157 474 c-3 -4 1 -20 10 -37 13 -26 14 -47 8 -117 -12 -121 -11
-150 7 -190 9 -19 18 -43 22 -52 3 -10 12 -18 20 -18 21 0 25 30 9 63 -11 21
-13 65 -11 167 2 135 1 140 -22 165 -24 26 -32 29 -43 19z"/>
</g>
</svg>
