<svg version="1.0" xmlns="http://www.w3.org/2000/svg"
 width="77.000000pt" height="115.000000pt" viewBox="0 0 77.000000 115.000000"
 preserveAspectRatio="xMidYMid meet">
<metadata>
Created by potrace 1.15, written by Peter Selinger 2001-2017
</metadata>
<g transform="translate(0.000000,115.000000) scale(0.100000,-0.100000)"
fill="#000000" stroke="none">
<path d="M217 1013 c-4 -3 -7 -23 -7 -43 0 -20 -4 -40 -8 -45 -5 -6 -14 -34
-21 -64 -16 -62 -58 -146 -101 -201 -34 -43 -36 -50 -16 -50 8 0 17 8 21 19 3
10 15 22 27 28 18 8 28 2 70 -40 50 -49 50 -49 16 -86 -18 -19 -36 -38 -39
-41 -14 -13 -39 -56 -39 -66 0 -8 11 -7 35 4 19 9 35 20 35 25 0 4 14 20 31
34 33 28 68 79 106 152 34 65 35 188 4 257 -33 73 -53 108 -65 116 -14 10 -41
10 -49 1z m53 -80 c0 -10 9 -45 20 -77 21 -62 26 -116 11 -116 -16 0 -91 75
-91 92 0 9 4 27 9 40 5 13 12 35 15 51 7 30 36 38 36 10z m-36 -198 c21 -19
42 -35 47 -35 15 0 10 -39 -7 -65 -9 -14 -21 -25 -26 -25 -6 0 -29 20 -53 45
-42 45 -42 45 -27 80 9 19 19 35 22 35 3 0 23 -16 44 -35z"/>
<path d="M375 960 c-12 -20 9 -30 86 -43 74 -13 74 -13 41 -26 -42 -18 -63
-49 -92 -139 -13 -40 -27 -75 -32 -78 -13 -8 -9 -64 5 -68 6 -3 24 -7 38 -10
15 -3 29 -14 33 -23 3 -10 9 -24 12 -30 4 -10 -8 -13 -44 -13 -53 0 -112 -16
-112 -31 0 -5 67 -9 149 -9 82 0 163 -3 180 -6 24 -5 31 -3 31 9 0 10 -15 20
-41 27 -25 7 -38 16 -35 23 3 7 9 20 12 29 3 9 19 22 35 28 30 13 37 26 17 32
-9 3 -9 18 1 64 7 32 17 69 21 81 9 23 -4 88 -20 98 -6 4 -10 13 -10 21 0 10
13 14 50 14 28 0 50 4 50 9 0 19 -61 30 -195 36 -77 3 -147 8 -157 11 -9 3
-19 0 -23 -6z m266 -121 c6 -12 4 -38 -7 -81 -8 -35 -18 -73 -21 -85 -3 -13
-13 -23 -22 -24 -9 0 -53 -4 -98 -7 -75 -7 -83 -6 -83 10 0 10 3 18 8 18 8 0
32 70 32 93 0 31 32 77 54 77 12 0 30 6 41 14 43 29 74 24 96 -15z m-51 -246
c0 -14 -47 -63 -60 -63 -17 0 -39 30 -40 53 0 14 9 17 50 17 28 0 50 -3 50 -7z"/>
<path d="M555 782 c-6 -5 -29 -15 -52 -22 -44 -13 -57 -30 -25 -30 44 0 154
39 146 52 -7 11 -57 10 -69 0z"/>
<path d="M316 455 c-11 -31 -6 -116 9 -146 18 -35 57 -52 96 -44 29 7 77 54
97 98 6 15 17 38 23 51 16 35 2 53 -22 27 -15 -16 -28 -19 -71 -16 -55 4 -91
-11 -66 -26 7 -5 29 -9 48 -9 54 0 63 -10 40 -48 -16 -26 -26 -32 -56 -32 -50
0 -62 17 -66 90 -3 61 -19 88 -32 55z"/>
<path d="M90 356 c0 -19 22 -26 86 -26 39 0 54 4 54 14 0 19 -22 26 -86 26
-39 0 -54 -4 -54 -14z"/>
<path d="M555 329 c-9 -14 -9 -13 55 -26 53 -10 69 -6 70 18 0 19 -115 26
-125 8z"/>
<path d="M70 223 c0 -15 36 -23 100 -23 30 0 147 -7 259 -15 141 -11 207 -13
215 -5 27 27 -26 34 -396 47 -118 4 -178 2 -178 -4z"/>
<path d="M91 101 c-20 -13 -4 -18 82 -26 65 -6 77 -5 77 8 0 8 -7 18 -16 21
-23 9 -127 7 -143 -3z"/>
<path d="M453 95 c-21 -16 -5 -25 50 -31 23 -2 61 -7 85 -10 37 -6 42 -4 42
13 0 18 -10 21 -81 30 -58 6 -85 6 -96 -2z"/>
</g>
</svg>
