<svg version="1.0" xmlns="http://www.w3.org/2000/svg"
 width="47.000000pt" height="95.000000pt" viewBox="0 0 47.000000 95.000000"
 preserveAspectRatio="xMidYMid meet">
<metadata>
Created by potrace 1.15, written by Peter Selinger 2001-2017
</metadata>
<g transform="translate(0.000000,95.000000) scale(0.100000,-0.100000)"
fill="#000000" stroke="none">
<path d="M102 679 c-22 -92 -24 -89 77 -89 99 0 97 1 163 -110 29 -48 34 -23
10 44 -11 30 -17 57 -14 60 3 4 20 6 39 6 18 0 33 4 33 8 0 12 -46 32 -74 32
-13 0 -29 7 -36 15 -11 13 -7 15 29 15 68 0 48 30 -36 55 -12 3 -58 8 -101 10
-79 4 -79 4 -90 -46z m122 -25 c9 -8 16 -17 16 -20 0 -2 -23 -4 -50 -4 -48 0
-50 1 -40 20 13 24 52 26 74 4z"/>
<path d="M230 480 c0 -34 -10 -70 -30 -116 -17 -37 -28 -69 -24 -73 3 -3 21
11 39 32 33 38 33 38 40 9 3 -17 0 -47 -9 -73 -26 -75 -16 -128 32 -172 24
-22 29 -15 31 41 1 40 -12 57 -22 30 -3 -9 -7 -7 -12 6 -5 11 0 43 14 83 14
42 20 75 16 94 -8 36 1 37 39 4 16 -14 31 -25 33 -25 13 0 -4 34 -42 85 -25
33 -50 75 -56 93 -7 21 -17 32 -30 32 -16 0 -19 -7 -19 -50z"/>
</g>
</svg>
