<svg version="1.0" xmlns="http://www.w3.org/2000/svg"
 width="55.000000pt" height="121.000000pt" viewBox="0 0 55.000000 121.000000"
 preserveAspectRatio="xMidYMid meet">
<metadata>
Created by potrace 1.15, written by Peter Selinger 2001-2017
</metadata>
<g transform="translate(0.000000,121.000000) scale(0.100000,-0.100000)"
fill="#000000" stroke="none">
<path d="M373 1010 c-18 -11 -46 -31 -63 -47 -30 -26 -54 -36 -152 -64 -26 -7
-57 -21 -70 -30 -33 -26 -13 -40 63 -44 35 -1 67 -3 72 -4 4 -1 7 -43 7 -93 0
-85 2 -98 32 -155 32 -62 32 -62 19 -151 -8 -59 -9 -97 -3 -109 41 -78 43
-104 17 -164 -19 -42 -35 -48 -56 -23 -10 12 -10 22 -1 46 8 21 8 37 1 50 -7
14 -6 23 7 35 13 13 14 18 3 22 -7 2 -15 -1 -17 -7 -2 -7 -10 -12 -17 -12 -16
0 -28 -52 -28 -117 0 -32 5 -47 24 -63 30 -26 65 -41 81 -34 17 6 58 69 58 88
0 8 4 18 10 21 18 11 11 70 -14 120 -21 41 -24 58 -20 114 2 36 9 87 14 113
10 50 49 141 62 146 17 7 7 40 -21 68 -27 27 -41 38 -111 94 -25 19 -25 19 45
21 117 3 135 5 147 17 21 21 -2 27 -93 25 -57 -2 -88 1 -84 7 3 6 28 10 55 10
54 0 100 14 100 30 0 5 -18 10 -39 10 -38 0 -68 19 -43 28 7 2 18 9 25 16 7 7
30 16 50 20 23 4 37 12 34 19 -6 19 -59 18 -94 -3z m-163 -130 c0 -5 -4 -10
-10 -10 -5 0 -10 5 -10 10 0 6 5 10 10 10 6 0 10 -4 10 -10z m119 -174 c21
-23 22 -26 8 -65 -7 -23 -18 -42 -23 -43 -23 -2 -43 78 -28 116 8 22 17 20 43
-8z"/>
</g>
</svg>
