<svg version="1.0" xmlns="http://www.w3.org/2000/svg"
 width="49.000000pt" height="95.000000pt" viewBox="0 0 49.000000 95.000000"
 preserveAspectRatio="xMidYMid meet">
<metadata>
Created by potrace 1.15, written by Peter Selinger 2001-2017
</metadata>
<g transform="translate(0.000000,95.000000) scale(0.100000,-0.100000)"
fill="#000000" stroke="none">
<path d="M95 700 c3 -5 13 -10 21 -10 8 0 14 -3 14 -7 0 -5 19 -17 41 -28 37
-17 58 -40 48 -49 -2 -2 -29 0 -59 4 -30 4 -57 6 -60 3 -10 -9 27 -22 77 -29
71 -9 71 -14 -3 -154 -10 -19 -22 -64 -26 -100 -4 -36 -11 -87 -16 -115 -4
-27 -6 -57 -4 -65 4 -23 102 -80 102 -59 0 5 9 28 20 49 11 22 29 58 40 80 23
45 24 50 10 50 -5 0 -10 -6 -10 -12 -1 -17 -46 -68 -61 -68 -6 0 -17 -7 -24
-17 -15 -20 -45 -11 -45 14 0 10 7 31 15 47 8 15 15 42 15 60 0 43 10 54 61
69 40 12 44 16 42 42 -1 15 -9 43 -18 62 -11 22 -14 45 -9 69 7 37 7 37 70 31
36 -2 67 -1 69 4 5 8 -134 79 -155 79 -6 0 -37 14 -70 30 -60 30 -97 39 -85
20z m195 -94 c0 -11 -19 -15 -25 -6 -3 5 1 10 9 10 9 0 16 -2 16 -4z m-40
-169 c0 -20 -36 -54 -46 -44 -8 7 30 75 39 70 4 -2 7 -14 7 -26z"/>
</g>
</svg>
