<svg version="1.0" xmlns="http://www.w3.org/2000/svg"
 width="121.000000pt" height="119.000000pt" viewBox="0 0 121.000000 119.000000"
 preserveAspectRatio="xMidYMid meet">
<metadata>
Created by potrace 1.15, written by Peter Selinger 2001-2017
</metadata>
<g transform="translate(0.000000,119.000000) scale(0.100000,-0.100000)"
fill="#000000" stroke="none">
<path d="M646 1102 c-8 -13 2 -61 16 -79 5 -6 8 -24 6 -38 -2 -22 -14 -32 -63
-53 -52 -23 -75 -26 -180 -28 -109 -2 -170 -8 -217 -20 -44 -12 -125 -121
-113 -152 6 -17 43 2 53 26 8 23 43 51 63 52 8 0 19 4 25 9 8 9 60 14 110 12
30 -1 41 -38 49 -166 9 -131 9 -104 0 -300 -7 -160 -7 -160 26 -225 45 -86 75
-101 230 -113 69 -6 141 -6 175 -1 54 8 59 11 59 34 0 23 -4 25 -56 28 -50 3
-58 6 -69 30 -16 33 -23 766 -8 795 12 24 71 22 183 -4 100 -24 124 -41 154
-105 22 -46 28 -137 11 -164 -16 -25 -103 -20 -132 8 -43 39 -71 22 -42 -27
32 -54 116 -86 162 -62 9 5 24 12 33 15 9 2 30 21 45 42 25 33 29 45 28 101
-4 162 -157 272 -381 273 -40 0 -73 4 -73 8 0 9 -21 38 -61 85 -16 19 -28 26
-33 19z m61 -959 c9 -50 9 -52 -16 -56 -31 -6 -41 -1 -41 19 0 8 -10 34 -22
57 -22 40 -23 54 -23 272 -1 127 1 271 3 321 4 90 4 90 40 106 37 16 37 16 44
-326 3 -187 10 -364 15 -393z m-165 674 c4 -6 8 -146 8 -309 0 -273 2 -301 20
-348 25 -63 25 -70 0 -70 -86 0 -137 142 -118 327 5 43 5 149 2 237 -5 106 -3
160 4 165 19 12 76 11 84 -2z"/>
<path d="M1035 960 c3 -5 8 -10 11 -10 2 0 4 5 4 10 0 6 -5 10 -11 10 -5 0 -7
-4 -4 -10z"/>
</g>
</svg>
