<svg version="1.0" xmlns="http://www.w3.org/2000/svg"
 width="51.000000pt" height="127.000000pt" viewBox="0 0 51.000000 127.000000"
 preserveAspectRatio="xMidYMid meet">
<metadata>
Created by potrace 1.15, written by Peter Selinger 2001-2017
</metadata>
<g transform="translate(0.000000,127.000000) scale(0.100000,-0.100000)"
fill="#000000" stroke="none">
<path d="M257 1074 c-4 -4 -7 -17 -7 -30 0 -27 -17 -34 -81 -34 -63 0 -96 -15
-78 -36 14 -17 112 -64 134 -64 23 0 65 -22 65 -35 0 -6 8 -20 18 -31 10 -10
28 -34 40 -51 13 -18 28 -33 33 -33 18 0 9 32 -21 76 -17 24 -27 44 -23 45 4
0 29 0 55 -1 40 -1 47 1 42 14 -3 9 -15 16 -25 16 -11 0 -37 6 -59 12 -34 11
-40 17 -40 40 0 21 5 28 20 28 31 0 24 27 -9 33 -20 4 -31 13 -33 28 -3 23
-19 35 -31 23z m8 -114 c0 -11 -9 -14 -35 -12 -42 5 -49 10 -30 23 22 14 65 7
65 -11z"/>
<path d="M230 706 c0 -59 4 -108 10 -111 6 -3 10 -16 10 -28 0 -13 13 -49 30
-82 16 -33 30 -65 30 -71 0 -5 9 -30 21 -54 16 -32 19 -52 14 -79 -24 -122
-22 -117 -30 -93 -4 12 -11 22 -15 22 -4 0 -13 14 -20 30 -7 17 -16 30 -21 30
-5 0 -9 6 -9 13 0 23 -39 52 -51 40 -8 -8 -6 -20 10 -41 11 -17 21 -35 21 -41
0 -6 5 -11 10 -11 6 0 10 -5 10 -11 0 -11 55 -94 76 -116 29 -30 41 -15 48 60
3 39 9 90 12 113 4 30 0 53 -15 84 -24 51 -25 64 -9 140 11 55 10 58 -23 121
-18 35 -36 66 -39 69 -14 14 -30 52 -30 73 0 23 -16 47 -32 47 -4 0 -8 -47 -8
-104z m82 -118 c8 -26 8 -42 1 -49 -12 -12 -43 56 -43 92 0 33 27 5 42 -43z"/>
</g>
</svg>
