<svg version="1.0" xmlns="http://www.w3.org/2000/svg"
 width="70.000000pt" height="106.000000pt" viewBox="0 0 70.000000 106.000000"
 preserveAspectRatio="xMidYMid meet">
<metadata>
Created by potrace 1.15, written by Peter Selinger 2001-2017
</metadata>
<g transform="translate(0.000000,106.000000) scale(0.100000,-0.100000)"
fill="#000000" stroke="none">
<path d="M475 976 c-6 -37 -13 -48 -47 -70 -22 -14 -45 -26 -52 -26 -7 0 -17
-5 -23 -11 -7 -7 -64 -11 -159 -10 -144 1 -190 -7 -169 -28 6 -5 23 -11 39
-13 25 -3 32 -10 45 -50 9 -25 23 -55 32 -65 17 -18 33 -141 23 -168 -8 -19
-44 -6 -49 19 -2 11 -6 43 -8 69 -5 56 -11 64 -32 47 -18 -15 -19 -54 -4 -115
9 -37 17 -46 49 -59 33 -13 39 -20 44 -53 3 -21 3 -49 1 -63 -2 -14 -4 -29 -4
-33 -1 -5 -11 -7 -23 -5 -16 2 -24 12 -29 36 -8 41 -16 49 -31 34 -18 -18 -24
-228 -7 -248 19 -23 76 -44 119 -44 28 0 46 8 68 28 28 27 30 33 37 137 7 106
3 134 -23 143 -12 4 -16 -3 -26 -51 -4 -18 -13 -27 -26 -27 -17 0 -19 8 -19
65 0 61 2 65 23 65 13 0 35 9 50 21 24 18 26 27 26 89 0 49 -4 69 -14 73 -21
8 -26 -2 -26 -52 0 -48 -23 -95 -43 -88 -6 2 -10 28 -8 68 3 80 7 96 30 102
11 3 22 21 30 53 7 27 15 55 17 62 2 6 16 12 33 12 16 0 41 7 57 15 31 16 69
11 96 -14 20 -19 15 -28 -34 -61 -42 -28 -48 -40 -18 -40 11 0 20 5 20 10 0 6
6 10 13 10 6 0 23 9 37 20 35 27 69 24 114 -10 40 -31 56 -31 56 -1 0 10 -15
24 -40 35 -47 20 -49 29 -14 53 21 13 32 15 55 6 18 -7 31 -8 35 -2 6 11 -13
39 -27 39 -19 0 -99 43 -123 65 -15 14 -26 35 -26 50 0 18 -5 25 -19 25 -16 0
-21 -9 -26 -44z m90 -92 c20 -15 20 -15 -4 -35 -25 -21 -54 -18 -81 8 -13 13
-13 16 4 29 25 18 56 17 81 -2z m-325 -102 c0 -47 -12 -60 -50 -54 -27 4 -30
8 -30 41 0 46 5 51 47 51 32 0 33 -2 33 -38z m-1 -481 c11 -7 12 -22 7 -62 -9
-67 -19 -79 -65 -79 -55 0 -71 17 -78 82 -6 57 -6 57 28 61 62 7 94 7 108 -2z"/>
<path d="M90 962 c-5 -2 -10 -9 -10 -16 0 -9 28 -15 96 -19 103 -6 124 -3 124
19 0 9 -13 15 -37 16 -65 3 -163 3 -173 0z"/>
<path d="M416 671 c-70 -11 -74 -26 -80 -266 -2 -116 -7 -241 -10 -278 -5 -60
-3 -68 12 -65 25 5 39 85 41 249 4 223 8 278 25 304 15 22 18 23 141 19 70 -2
131 -2 136 1 5 3 3 14 -3 25 -10 16 -25 18 -117 18 -58 -1 -124 -3 -145 -7z"/>
<path d="M521 508 c-44 -45 -81 -90 -81 -100 0 -38 22 -20 149 122 30 34 40
60 22 60 -5 0 -45 -37 -90 -82z"/>
<path d="M595 467 c-6 -7 -22 -28 -35 -47 -13 -19 -30 -41 -37 -48 -6 -6 -15
-21 -18 -32 -3 -11 -10 -20 -15 -20 -15 0 -61 -73 -52 -82 16 -16 71 14 96 52
14 22 26 42 26 45 0 4 13 26 30 50 31 45 42 85 25 91 -5 2 -15 -2 -20 -9z"/>
<path d="M590 289 c-24 -33 -54 -73 -67 -87 -13 -15 -23 -31 -23 -36 0 -5 -27
-37 -60 -73 -54 -58 -74 -93 -52 -93 18 0 155 157 222 253 8 12 23 31 32 41
21 24 22 30 5 44 -10 9 -23 -3 -57 -49z"/>
</g>
</svg>
