<svg version="1.0" xmlns="http://www.w3.org/2000/svg"
 width="65.000000pt" height="87.000000pt" viewBox="0 0 65.000000 87.000000"
 preserveAspectRatio="xMidYMid meet">
<metadata>
Created by potrace 1.15, written by Peter Selinger 2001-2017
</metadata>
<g transform="translate(0.000000,87.000000) scale(0.100000,-0.100000)"
fill="#000000" stroke="none">
<path d="M280 721 c-5 -11 -11 -28 -13 -39 -1 -11 -9 -26 -17 -35 -25 -27 -34
-41 -57 -83 -34 -61 -28 -111 7 -69 23 28 30 15 30 -59 0 -83 -2 -86 -76 -86
-44 0 -44 0 -43 -57 0 -98 23 -246 38 -251 11 -4 12 20 10 124 -4 112 -2 129
12 132 19 4 39 -61 39 -130 1 -63 13 -73 93 -74 67 -1 67 -1 62 65 -9 100 -13
111 -36 111 -19 0 -20 -4 -15 -34 7 -39 -2 -49 -38 -40 -19 5 -27 16 -36 55
-7 28 -11 52 -9 54 3 2 43 7 90 11 86 6 86 6 94 -62 4 -38 10 -94 14 -124 4
-39 10 -55 21 -55 10 0 14 9 13 25 -1 14 -4 54 -7 90 -2 36 -5 91 -5 123 -1
57 -1 57 -51 57 -50 0 -50 0 -50 53 0 79 8 100 36 93 37 -10 37 9 -1 79 -19
37 -35 72 -35 79 0 16 -38 66 -50 66 -5 0 -14 -9 -20 -19z m53 -102 c24 -44
22 -49 -23 -49 -33 0 -40 3 -40 20 0 11 4 20 9 20 5 0 11 9 14 20 7 28 19 25
40 -11z m-15 -122 c3 -23 0 -27 -22 -27 -21 0 -26 5 -26 24 0 43 43 46 48 3z
m-4 -76 c10 -15 -12 -61 -29 -61 -11 0 -15 10 -15 35 0 28 4 35 19 35 11 0 22
-4 25 -9z"/>
</g>
</svg>
