<svg version="1.0" xmlns="http://www.w3.org/2000/svg"
 width="49.000000pt" height="89.000000pt" viewBox="0 0 49.000000 89.000000"
 preserveAspectRatio="xMidYMid meet">
<metadata>
Created by potrace 1.15, written by Peter Selinger 2001-2017
</metadata>
<g transform="translate(0.000000,89.000000) scale(0.100000,-0.100000)"
fill="#000000" stroke="none">
<path d="M243 668 c-10 -14 -43 -97 -64 -163 -7 -22 -17 -44 -21 -50 -12 -13
-10 -95 2 -95 6 0 16 11 22 25 17 37 28 31 28 -15 0 -22 0 -43 1 -47 0 -5 -8
-9 -18 -11 -50 -8 -63 -14 -63 -27 0 -8 5 -15 10 -15 6 0 10 -43 10 -109 0
-173 21 -151 36 37 5 59 9 72 23 72 9 0 23 6 30 13 11 9 14 9 18 0 3 -8 24
-13 54 -13 49 0 49 0 51 -37 0 -21 2 -42 3 -48 2 -5 3 -34 4 -62 0 -29 5 -53
10 -53 18 0 32 198 18 253 -8 29 -27 37 -27 12 0 -16 -17 -19 -44 -9 -13 5
-15 14 -10 43 8 42 20 53 52 46 16 -4 22 -1 22 12 -1 24 -26 68 -39 69 -21 3
-22 4 -11 24 8 15 7 26 -5 44 -9 14 -26 44 -38 67 -24 47 -39 57 -54 37z m63
-156 c8 -19 13 -36 10 -39 -9 -9 -96 -16 -96 -7 0 4 8 34 17 66 18 58 18 58
35 36 10 -13 25 -38 34 -56z m-16 -146 c0 -40 -11 -56 -36 -56 -2 0 -4 23 -4
50 0 43 3 50 20 50 17 0 20 -7 20 -44z"/>
</g>
</svg>
