<svg version="1.0" xmlns="http://www.w3.org/2000/svg"
 width="89.000000pt" height="135.000000pt" viewBox="0 0 89.000000 135.000000"
 preserveAspectRatio="xMidYMid meet">
<metadata>
Created by potrace 1.15, written by Peter Selinger 2001-2017
</metadata>
<g transform="translate(0.000000,135.000000) scale(0.100000,-0.100000)"
fill="#000000" stroke="none">
<path d="M442 1225 c-7 -14 -12 -31 -12 -38 0 -14 -63 -57 -84 -57 -8 0 -17
-4 -20 -8 -3 -5 -31 -15 -63 -22 -66 -16 -133 -53 -133 -75 0 -19 19 -19 56
-1 16 8 46 18 66 21 36 7 37 7 44 -32 5 -21 7 -47 6 -58 -1 -11 -5 -73 -9
-137 -5 -64 -12 -120 -16 -125 -13 -12 -136 -8 -149 5 -37 37 -52 -11 -47
-143 8 -204 0 -329 -27 -413 -19 -60 -18 -72 9 -72 23 0 35 16 52 65 47 136
54 307 20 447 -12 48 18 57 200 59 171 3 401 -15 421 -32 8 -6 14 -60 18 -162
10 -280 20 -368 41 -383 10 -8 22 -14 27 -14 13 0 9 109 -6 183 -15 73 -12
289 5 295 5 2 9 26 9 53 0 71 -21 89 -103 89 -75 0 -88 11 -106 82 -15 63 -14
104 5 185 9 37 17 74 17 81 0 10 9 12 31 7 17 -3 50 -9 74 -12 37 -4 42 -3 42
14 0 18 -36 43 -61 43 -5 0 -28 8 -52 19 -23 10 -62 27 -86 37 -29 12 -52 32
-70 59 -46 70 -79 84 -99 40z m123 -139 c38 -21 40 -24 37 -66 -2 -24 -5 -47
-8 -50 -7 -6 -184 -9 -201 -3 -6 3 -21 22 -32 43 -20 39 -20 39 17 51 20 6 39
15 42 19 3 3 16 14 29 23 28 19 57 15 116 -17z m-49 -166 c74 0 74 0 74 -45 0
-45 0 -45 -52 -45 -29 0 -77 -3 -105 -6 -60 -8 -70 2 -59 60 7 34 26 48 54 40
8 -2 47 -4 88 -4z m74 -189 c0 -61 0 -61 -31 -61 -18 0 -72 5 -120 12 -89 12
-89 12 -89 50 0 33 3 38 30 45 17 4 71 9 120 11 90 3 90 3 90 -57z"/>
<path d="M297 453 c-3 -5 -1 -60 3 -123 5 -63 9 -126 9 -141 1 -33 56 -91 102
-107 52 -18 92 -15 130 11 31 21 35 29 52 117 19 99 18 213 -1 232 -14 14 -42
-7 -42 -31 0 -40 -27 -58 -99 -65 -79 -7 -101 -2 -101 24 0 10 -7 34 -15 54
-15 34 -29 45 -38 29z m242 -180 c16 -56 14 -67 -19 -102 -41 -42 -82 -42
-121 0 -22 24 -29 41 -29 73 0 42 0 42 53 53 98 19 105 17 116 -24z"/>
</g>
</svg>
