<svg version="1.0" xmlns="http://www.w3.org/2000/svg"
 width="78.000000pt" height="89.000000pt" viewBox="0 0 78.000000 89.000000"
 preserveAspectRatio="xMidYMid meet">
<metadata>
Created by potrace 1.15, written by Peter Selinger 2001-2017
</metadata>
<g transform="translate(0.000000,89.000000) scale(0.100000,-0.100000)"
fill="#000000" stroke="none">
<path d="M310 654 c-47 -19 -107 -44 -135 -55 -27 -11 -63 -30 -79 -44 -25
-20 -28 -26 -17 -39 18 -21 19 -21 85 19 32 19 65 35 72 35 11 0 14 -22 14
-100 0 -100 0 -100 27 -106 35 -9 263 13 280 27 9 8 13 39 13 100 0 99 10 110
56 64 14 -14 32 -25 40 -25 23 0 28 29 9 50 -23 26 -151 87 -200 95 -22 3 -49
8 -60 11 -11 2 -58 -12 -105 -32z m195 -40 c29 -29 11 -39 -87 -48 -107 -10
-128 -6 -128 23 0 26 42 39 132 40 49 1 71 -3 83 -15z m15 -104 c0 -19 -7 -20
-110 -20 -103 0 -110 1 -110 20 0 19 7 20 110 20 103 0 110 -1 110 -20z m-2
-67 c-4 -23 -37 -31 -135 -32 -82 -1 -83 -1 -83 24 0 25 0 25 111 25 99 0 110
-2 107 -17z"/>
<path d="M265 310 c-108 -13 -115 -23 -115 -161 0 -74 3 -91 16 -96 29 -11 44
25 44 103 0 56 4 77 19 95 18 23 25 24 178 27 134 3 161 1 172 -12 9 -10 13
-50 13 -121 0 -92 2 -105 17 -105 33 0 41 22 41 117 0 98 -14 145 -45 157 -22
8 -264 5 -340 -4z"/>
<path d="M308 224 c-23 -12 -28 -21 -28 -54 0 -34 4 -42 32 -56 25 -13 47 -15
107 -10 41 4 82 11 92 17 42 22 34 92 -13 108 -45 16 -158 13 -190 -5z m166
-34 c5 -5 6 -16 3 -24 -5 -12 -21 -16 -65 -16 -99 0 -121 43 -27 52 44 5 75 0
89 -12z"/>
</g>
</svg>
