<svg version="1.0" xmlns="http://www.w3.org/2000/svg"
 width="67.000000pt" height="114.000000pt" viewBox="0 0 67.000000 114.000000"
 preserveAspectRatio="xMidYMid meet">
<metadata>
Created by potrace 1.15, written by Peter Selinger 2001-2017
</metadata>
<g transform="translate(0.000000,114.000000) scale(0.100000,-0.100000)"
fill="#000000" stroke="none">
<path d="M273 1033 c-7 -15 -13 -33 -13 -40 0 -9 -18 -13 -64 -13 -75 0 -129
-20 -153 -57 -16 -24 -18 -61 -20 -373 -1 -210 -6 -373 -14 -417 -12 -76 -9
-103 15 -103 17 0 27 35 32 110 4 63 13 400 13 540 1 95 1 95 41 108 22 6 49
12 60 12 23 0 57 16 77 35 6 7 13 34 15 61 3 49 3 49 49 52 47 3 47 3 54 -44
5 -34 15 -55 37 -76 27 -25 38 -28 94 -28 36 0 64 4 64 10 0 6 5 10 10 10 6 0
10 -9 10 -20 0 -11 -4 -20 -9 -20 -20 0 -18 -350 3 -530 3 -25 8 -65 10 -90 7
-77 19 -140 25 -145 4 -2 13 0 21 5 12 7 12 21 2 87 -7 43 -13 96 -14 118 -1
22 -5 48 -10 58 -8 15 -14 559 -8 592 1 6 2 21 1 35 -1 33 -58 58 -144 66
-126 11 -127 11 -124 47 2 28 -1 32 -23 35 -19 2 -28 -4 -37 -25z m250 -111
c35 -15 37 -18 37 -60 0 -44 0 -44 -32 -39 -106 18 -132 35 -122 81 3 17 8 34
11 38 5 10 59 -1 106 -20z m-303 3 c0 -9 -6 -31 -14 -49 -13 -30 -21 -36 -70
-47 -61 -13 -65 -12 -71 20 -10 54 32 88 113 90 31 1 42 -3 42 -14z"/>
<path d="M280 726 c-102 -29 -118 -54 -110 -171 10 -141 1 -335 -19 -398 -5
-18 -12 -52 -16 -77 -6 -45 -6 -45 17 -18 36 42 48 101 54 252 4 113 2 142
-10 161 -9 13 -12 25 -7 27 5 2 11 32 13 68 3 36 10 75 16 87 11 20 67 41 78
30 4 -4 5 -126 1 -202 0 -11 -10 -28 -21 -38 -15 -14 -20 -31 -20 -73 -1 -49
2 -59 28 -81 30 -26 72 -27 103 -2 31 27 4 149 -33 149 -18 0 -18 -7 5 -38 28
-41 20 -85 -19 -95 -29 -7 -60 29 -60 69 0 18 5 36 10 39 6 3 10 15 10 26 0
10 4 19 9 19 4 0 12 28 17 63 5 34 12 61 17 60 4 -2 22 -3 41 -3 39 0 40 -2
56 -180 16 -191 22 -235 31 -244 5 -6 9 -24 9 -40 0 -37 14 -61 29 -52 13 8
15 76 2 76 -5 0 -8 11 -8 24 0 23 -14 108 -34 209 -5 27 -9 81 -9 120 0 61 -4
76 -24 100 -17 20 -33 27 -59 27 -29 0 -36 4 -41 25 -11 45 8 64 69 67 30 2
56 8 58 13 3 15 -131 16 -183 1z"/>
</g>
</svg>
