<svg version="1.0" xmlns="http://www.w3.org/2000/svg"
 width="89.000000pt" height="175.000000pt" viewBox="0 0 89.000000 175.000000"
 preserveAspectRatio="xMidYMid meet">
<metadata>
Created by potrace 1.15, written by Peter Selinger 2001-2017
</metadata>
<g transform="translate(0.000000,175.000000) scale(0.100000,-0.100000)"
fill="#000000" stroke="none">
<path d="M650 1539 c0 -17 9 -61 21 -98 11 -36 25 -79 30 -96 7 -24 6 -31 -9
-40 -20 -12 -62 -24 -117 -33 -48 -8 -58 -33 -20 -50 15 -7 31 -9 37 -6 12 7
132 33 136 29 1 -1 12 -26 22 -56 23 -61 21 -64 -55 -74 -27 -4 -54 -11 -60
-15 -5 -5 -21 -10 -35 -12 -34 -4 -40 -43 -8 -52 33 -9 97 -7 116 3 9 4 32 11
50 14 32 6 32 6 32 -32 0 -55 -36 -80 -140 -97 -25 -4 -48 -9 -52 -10 -5 -1
-21 -2 -38 -3 -41 -1 -41 -34 0 -51 54 -22 233 24 276 72 29 31 17 183 -18
222 -4 6 -8 21 -8 35 0 13 -8 50 -19 80 -10 31 -24 83 -31 116 -7 33 -21 75
-31 93 -11 18 -19 40 -19 48 0 20 -24 44 -44 44 -11 0 -16 -10 -16 -31z"/>
<path d="M308 1534 c-16 -8 -28 -21 -28 -29 0 -27 38 -55 74 -55 38 0 101 32
110 55 15 39 -100 60 -156 29z"/>
<path d="M420 1420 c-36 -5 -109 -14 -163 -20 -100 -13 -157 -26 -191 -46 -17
-10 -18 -24 -16 -190 2 -98 4 -237 5 -309 1 -71 5 -138 10 -147 11 -26 42 -22
49 6 3 13 6 142 7 287 0 317 -2 310 101 333 38 9 125 19 194 22 102 6 127 10
140 25 14 15 14 21 4 34 -13 16 -38 17 -140 5z"/>
<path d="M365 1225 c-5 -2 -37 -11 -70 -21 -80 -23 -90 -32 -69 -55 20 -22 54
-24 106 -6 46 16 78 44 78 69 0 17 -18 22 -45 13z"/>
<path d="M490 1104 c0 -8 5 -12 10 -9 6 4 8 11 5 16 -9 14 -15 11 -15 -7z"/>
<path d="M325 1024 c-38 -13 -78 -27 -87 -30 -26 -9 -22 -43 7 -56 24 -11 43
-7 115 25 38 17 70 48 70 69 0 24 -20 22 -105 -8z"/>
<path d="M430 743 c0 -11 8 -27 19 -37 24 -22 58 -93 66 -138 6 -40 -9 -64
-50 -74 -51 -13 -75 12 -75 79 0 68 -83 143 -135 123 -18 -7 -10 -26 28 -66
21 -23 47 -79 47 -103 0 -13 -49 -2 -105 24 -44 21 -47 21 -63 5 -16 -16 -15
-19 12 -41 16 -13 54 -31 85 -40 62 -20 84 -33 75 -46 -3 -5 0 -35 5 -66 6
-32 13 -107 16 -168 9 -159 10 -174 23 -187 6 -6 18 -8 27 -4 17 6 17 -3 0
339 -5 87 -5 87 76 87 56 0 85 4 95 14 17 18 19 95 2 145 -44 138 -56 156
-111 166 -32 6 -37 5 -37 -12z"/>
</g>
</svg>
