<svg version="1.0" xmlns="http://www.w3.org/2000/svg"
 width="59.000000pt" height="97.000000pt" viewBox="0 0 59.000000 97.000000"
 preserveAspectRatio="xMidYMid meet">
<metadata>
Created by potrace 1.15, written by Peter Selinger 2001-2017
</metadata>
<g transform="translate(0.000000,97.000000) scale(0.100000,-0.100000)"
fill="#000000" stroke="none">
<path d="M237 814 c-4 -4 -7 -17 -7 -29 0 -13 -17 -40 -37 -62 -40 -42 -63
-76 -63 -93 0 -6 9 -30 20 -52 11 -23 20 -43 20 -44 0 -2 -14 -4 -32 -6 -39
-4 -48 -25 -15 -37 16 -6 29 -23 37 -45 6 -20 15 -36 19 -36 4 0 7 -15 8 -33
0 -17 6 -67 13 -110 11 -78 11 -78 -44 -134 -30 -32 -52 -61 -50 -65 10 -16
33 -8 70 25 91 78 143 146 164 212 7 22 16 48 21 57 5 10 9 25 9 33 0 8 5 15
10 15 6 0 10 21 10 46 0 58 24 56 27 -2 7 -124 19 -227 25 -212 4 9 10 55 14
102 8 107 -9 217 -48 304 -41 90 -61 78 -27 -16 17 -45 11 -62 -21 -62 -23 0
-30 4 -30 20 0 22 -36 91 -53 102 -6 4 -11 32 -11 64 -1 53 -12 75 -29 58z
m-17 -154 c0 -5 -4 -10 -9 -10 -6 0 -13 5 -16 10 -3 6 1 10 9 10 9 0 16 -4 16
-10z m10 -80 c0 -5 -2 -10 -4 -10 -3 0 -8 5 -11 10 -3 6 -1 10 4 10 6 0 11 -4
11 -10z m-6 -85 c20 -15 34 -66 43 -159 7 -72 -11 -70 -21 2 -3 27 -17 71 -31
98 -36 70 -33 90 9 59z m125 3 c0 -7 -8 -30 -17 -51 -17 -38 -17 -38 -36 -3
-10 19 -16 42 -13 50 8 19 67 22 66 4z"/>
</g>
</svg>
