<svg version="1.0" xmlns="http://www.w3.org/2000/svg"
 width="57.000000pt" height="91.000000pt" viewBox="0 0 57.000000 91.000000"
 preserveAspectRatio="xMidYMid meet">
<metadata>
Created by potrace 1.15, written by Peter Selinger 2001-2017
</metadata>
<g transform="translate(0.000000,91.000000) scale(0.100000,-0.100000)"
fill="#000000" stroke="none">
<path d="M420 784 c-25 -7 -57 -14 -71 -14 -14 0 -44 -9 -67 -20 -22 -11 -45
-20 -49 -20 -4 0 -21 -12 -38 -26 -30 -25 -30 -25 10 -19 22 4 41 11 43 16 6
17 202 67 202 51 0 -11 -58 -158 -93 -234 -21 -48 -36 -68 -49 -68 -14 0 -18
8 -18 34 0 35 -31 66 -65 66 -21 0 -19 -9 6 -31 17 -14 19 -22 10 -32 -6 -8
-8 -17 -5 -20 12 -12 -61 -217 -77 -217 -5 0 -9 -7 -9 -15 0 -9 -11 -20 -24
-27 -14 -6 -27 -17 -31 -25 -5 -16 14 -93 24 -93 2 0 16 11 30 24 33 31 105
69 158 84 46 14 73 44 92 104 7 21 17 40 22 43 5 4 9 13 9 22 0 18 33 49 61
58 23 8 25 31 4 39 -17 6 -65 -13 -65 -26 0 -10 -31 -10 -49 1 -10 7 -5 26 28
94 23 47 41 88 41 91 0 7 36 90 51 118 5 10 9 27 9 38 0 24 -24 25 -90 4z
m-51 -393 c24 -15 -4 -48 -46 -54 -21 -3 -46 -8 -55 -12 -14 -6 -18 -2 -18 15
0 43 18 60 63 60 23 0 48 -4 56 -9z m-39 -104 c0 -8 -12 -19 -27 -26 -16 -8
-36 -17 -45 -22 -43 -22 -65 2 -30 34 27 24 102 35 102 14z"/>
</g>
</svg>
