<svg version="1.0" xmlns="http://www.w3.org/2000/svg"
 width="43.000000pt" height="95.000000pt" viewBox="0 0 43.000000 95.000000"
 preserveAspectRatio="xMidYMid meet">
<metadata>
Created by potrace 1.15, written by Peter Selinger 2001-2017
</metadata>
<g transform="translate(0.000000,95.000000) scale(0.100000,-0.100000)"
fill="#000000" stroke="none">
<path d="M267 740 c-43 -44 -81 -90 -86 -103 -15 -39 -23 -127 -11 -127 5 0
10 4 10 9 0 12 29 41 41 41 5 0 9 -29 9 -65 0 -61 -1 -65 -23 -65 -31 0 -40
-10 -25 -27 10 -13 7 -88 -8 -188 -11 -69 14 -27 28 47 7 38 16 68 20 68 5 0
8 -30 8 -66 0 -41 4 -63 10 -59 6 3 10 28 10 55 0 27 4 51 9 54 9 6 7 99 -3
115 -4 6 -4 41 0 78 7 71 9 73 94 146 18 16 20 27 18 89 -2 39 -7 73 -13 75
-5 1 -45 -33 -88 -77z m79 -17 c7 -36 -2 -63 -24 -71 -13 -4 -18 89 -5 101 14
14 22 6 29 -30z m-56 -30 c-1 -10 -7 -29 -15 -43 -14 -25 -14 -25 -15 2 0 32
9 58 21 58 5 0 9 -8 9 -17z m-54 -65 c4 -15 1 -26 -12 -35 -22 -16 -29 -4 -20
32 8 31 22 32 32 3z m-6 -260 c0 -18 -2 -20 -9 -8 -6 8 -7 18 -5 22 9 14 14 9
14 -14z"/>
</g>
</svg>
