<svg version="1.0" xmlns="http://www.w3.org/2000/svg"
 width="51.000000pt" height="119.000000pt" viewBox="0 0 51.000000 119.000000"
 preserveAspectRatio="xMidYMid meet">
<metadata>
Created by potrace 1.15, written by Peter Selinger 2001-2017
</metadata>
<g transform="translate(0.000000,119.000000) scale(0.100000,-0.100000)"
fill="#000000" stroke="none">
<path d="M174 1062 c-6 -4 -14 -47 -18 -95 -7 -82 -9 -90 -39 -118 -31 -29
-31 -30 -7 -23 14 4 47 22 75 40 39 27 60 34 97 34 74 0 76 -30 5 -68 -44 -23
-97 -65 -97 -76 0 -3 9 -6 20 -6 11 0 20 5 20 10 0 16 27 11 34 -6 12 -32 6
-44 -23 -44 -16 0 -31 5 -33 10 -2 6 -11 4 -23 -5 -14 -11 -16 -18 -8 -21 20
-9 32 -72 35 -187 2 -60 6 -111 10 -113 5 -3 8 -16 8 -29 0 -13 5 -27 10 -30
6 -4 10 22 9 71 -1 75 0 78 31 105 49 43 64 44 110 8 27 -22 40 -41 41 -58 0
-20 2 -22 7 -9 6 14 7 222 3 316 -1 19 -19 14 -26 -7 -4 -13 -19 -20 -56 -25
-28 -4 -52 -6 -54 -4 -1 2 -5 16 -9 31 -6 24 -2 30 25 45 59 32 75 49 62 63
-20 20 -15 29 13 29 38 0 24 24 -17 28 -19 2 -38 7 -43 12 -5 5 -22 6 -39 3
-30 -6 -30 -5 -24 27 4 18 7 37 7 42 0 6 19 8 45 5 34 -5 45 -3 45 7 0 20 -23
26 -99 26 -37 0 -71 4 -77 10 -5 5 -14 6 -20 2z m65 -41 c22 -14 2 -75 -27
-79 -20 -3 -22 1 -22 42 0 48 15 59 49 37z m171 -330 c0 -12 -12 -23 -32 -31
-18 -6 -40 -16 -50 -20 -20 -11 -41 10 -33 32 6 16 54 35 93 37 15 1 22 -5 22
-18z m-145 -11 c3 -5 2 -10 -4 -10 -5 0 -13 5 -16 10 -3 6 -2 10 4 10 5 0 13
-4 16 -10z m-5 -60 c0 -5 -7 -10 -15 -10 -8 0 -15 5 -15 10 0 6 7 10 15 10 8
0 15 -4 15 -10z m150 -30 c0 -22 -3 -40 -6 -40 -12 0 -64 62 -58 71 3 5 18 9
35 9 27 0 29 -2 29 -40z m-92 -12 c-3 -7 -14 -17 -26 -23 -12 -5 -22 -13 -22
-17 0 -5 -7 -8 -15 -8 -18 0 -20 31 -3 48 16 16 71 16 66 0z"/>
<path d="M327 404 c-3 -3 -2 -33 1 -66 5 -61 5 -61 -39 -55 -25 3 -54 9 -64
13 -18 7 -18 6 -7 -8 7 -9 28 -20 45 -23 60 -12 67 -16 67 -39 0 -12 -3 -26
-7 -30 -11 -11 -33 -79 -33 -103 0 -35 14 -27 27 15 6 20 19 55 28 76 17 39
17 39 42 -17 14 -32 30 -57 34 -57 13 0 11 13 -7 56 -36 85 -36 92 1 110 32
15 52 41 40 52 -3 3 -15 -4 -28 -16 -13 -12 -29 -22 -37 -22 -21 0 -39 32 -40
72 0 35 -11 54 -23 42z"/>
</g>
</svg>
