<svg version="1.0" xmlns="http://www.w3.org/2000/svg"
 width="64.000000pt" height="78.000000pt" viewBox="0 0 64.000000 78.000000"
 preserveAspectRatio="xMidYMid meet">
<metadata>
Created by potrace 1.15, written by Peter Selinger 2001-2017
</metadata>
<g transform="translate(0.000000,78.000000) scale(0.100000,-0.100000)"
fill="#000000" stroke="none">
<path d="M438 701 c-47 -10 -65 -25 -73 -61 -5 -24 -13 -31 -41 -36 -48 -9
-64 0 -64 35 0 46 -32 63 -107 55 -34 -4 -67 -10 -73 -14 -27 -16 4 -30 66
-30 50 0 66 -4 71 -16 9 -25 -16 -34 -95 -34 -56 0 -74 -3 -79 -15 -3 -9 -3
-18 -1 -21 9 -8 492 17 517 27 39 16 15 24 -72 24 -81 0 -82 0 -82 25 0 24 3
25 70 28 91 3 106 9 81 28 -21 15 -57 16 -118 5z"/>
<path d="M256 536 c-95 -7 -141 -15 -144 -23 -3 -10 18 -13 82 -13 67 0 86 -3
86 -14 0 -14 -24 -17 -179 -29 -19 -1 -36 -8 -39 -16 -4 -11 11 -12 84 -7 49
4 101 9 117 12 22 5 27 2 27 -14 0 -25 -18 -32 -85 -32 -59 0 -85 -7 -85 -22
0 -6 32 -9 83 -7 68 3 82 1 82 -11 0 -12 -17 -16 -75 -21 -85 -6 -117 -19
-125 -52 -3 -12 -4 -76 -3 -142 2 -99 6 -120 18 -120 11 0 15 11 16 40 1 87 1
87 37 83 26 -2 33 -8 35 -28 6 -52 13 -70 27 -70 11 0 15 12 15 50 0 44 3 50
24 56 37 9 46 -2 46 -59 0 -51 13 -88 26 -75 3 4 9 36 11 72 5 52 9 67 24 71
39 13 56 -3 63 -56 9 -64 29 -60 36 7 4 44 8 49 31 52 29 3 39 -15 39 -76 0
-26 4 -33 18 -30 15 3 17 17 17 122 -1 116 -1 119 -28 142 -25 21 -33 23 -112
17 -75 -5 -85 -4 -91 12 -10 25 13 35 84 35 72 0 99 11 112 45 5 13 19 25 31
27 33 5 36 28 5 28 -19 0 -29 7 -35 24 -16 40 -28 41 -275 22z m232 -38 c3
-13 -10 -17 -73 -23 -52 -5 -80 -4 -88 4 -24 24 22 40 108 37 38 -1 51 -5 53
-18z m6 -62 c-10 -25 -164 -38 -164 -13 0 24 12 27 91 27 63 0 77 -3 73 -14z
m7 -143 c11 -11 22 -36 26 -56 6 -37 6 -37 -96 -37 -55 0 -101 2 -101 4 0 22
17 36 44 37 84 3 104 34 21 34 -38 0 -50 4 -53 17 -6 33 127 34 159 1z m-213
-5 c2 -12 -3 -18 -17 -18 -11 0 -32 -5 -48 -12 -28 -12 -28 -12 17 -17 36 -5
45 -10 45 -26 0 -18 -7 -20 -85 -20 -85 0 -85 0 -88 38 -5 62 19 76 128 73 34
-1 46 -5 48 -18z"/>
</g>
</svg>
