<svg version="1.0" xmlns="http://www.w3.org/2000/svg"
 width="55.000000pt" height="115.000000pt" viewBox="0 0 55.000000 115.000000"
 preserveAspectRatio="xMidYMid meet">
<metadata>
Created by potrace 1.15, written by Peter Selinger 2001-2017
</metadata>
<g transform="translate(0.000000,115.000000) scale(0.100000,-0.100000)"
fill="#000000" stroke="none">
<path d="M305 895 c-3 -30 -10 -55 -15 -55 -5 0 -17 14 -26 32 -21 40 -41 61
-48 49 -3 -5 12 -44 34 -86 40 -78 49 -126 33 -184 -6 -23 -6 -23 -19 0 -7 13
-13 32 -14 42 0 9 -4 17 -10 17 -5 0 -10 6 -10 13 0 8 -11 24 -25 37 -19 18
-28 21 -37 12 -8 -8 -7 -17 6 -36 11 -18 16 -48 16 -106 0 -73 2 -80 20 -80
21 0 45 -34 35 -50 -3 -6 -17 -10 -31 -10 -41 0 -28 -26 17 -35 30 -6 34 -12
19 -30 -19 -23 -34 -19 -68 19 -22 25 -32 46 -34 78 -2 30 -7 43 -18 43 -11 0
-16 -14 -18 -50 -3 -49 -1 -52 52 -110 39 -42 58 -56 64 -48 4 7 27 19 51 28
40 14 46 14 69 -1 24 -15 26 -15 56 15 26 26 31 39 30 75 0 24 -10 60 -23 83
-19 33 -22 50 -18 99 3 32 8 71 12 87 4 15 3 27 -1 27 -19 -1 -53 -72 -59
-125 -6 -48 -10 -55 -29 -55 -29 0 -39 10 -26 25 15 18 40 120 40 163 0 28 9
46 35 76 41 45 39 59 -2 26 -28 -22 -28 -22 -31 24 -4 63 -18 58 -27 -9z m82
-376 c10 -20 10 -34 2 -58 -10 -28 -15 -31 -55 -31 -53 0 -63 27 -14 37 35 7
40 30 8 35 -15 2 -24 11 -26 26 -3 21 0 23 35 20 29 -2 41 -9 50 -29z"/>
<path d="M250 325 c0 -19 -2 -35 -4 -35 -2 0 -11 -3 -20 -6 -9 -3 -16 -1 -16
6 0 17 -28 42 -39 35 -13 -7 -1 -44 45 -139 8 -16 14 -34 14 -39 0 -18 31 -46
46 -40 10 4 14 26 14 89 0 72 3 88 25 120 28 42 27 51 -5 34 -16 -9 -25 -9
-33 -1 -19 19 -27 12 -27 -24z"/>
</g>
</svg>
