<svg version="1.0" xmlns="http://www.w3.org/2000/svg"
 width="55.000000pt" height="105.000000pt" viewBox="0 0 55.000000 105.000000"
 preserveAspectRatio="xMidYMid meet">
<metadata>
Created by potrace 1.15, written by Peter Selinger 2001-2017
</metadata>
<g transform="translate(0.000000,105.000000) scale(0.100000,-0.100000)"
fill="#000000" stroke="none">
<path d="M207 903 c-4 -3 3 -11 16 -17 20 -10 22 -20 25 -98 2 -63 -1 -87 -10
-91 -10 -3 -12 5 -10 34 3 24 0 39 -7 39 -6 0 -14 0 -18 0 -8 1 -35 -121 -29
-128 3 -2 13 1 24 7 17 9 23 6 38 -17 13 -20 18 -47 17 -114 0 -49 -2 -91 -6
-94 -15 -16 -25 13 -31 96 -6 67 -11 90 -22 90 -7 0 -16 -12 -20 -27 -3 -16
-10 -41 -15 -57 -5 -16 -9 -48 -9 -72 0 -38 -4 -45 -30 -59 -28 -14 -29 -17
-15 -31 8 -9 15 -22 15 -29 0 -8 5 -26 11 -42 7 -19 12 -24 18 -14 10 16 72
30 133 31 54 0 63 13 53 82 -3 24 -1 77 4 118 7 60 6 80 -6 98 -11 19 -17 21
-29 11 -12 -10 -14 -5 -14 29 0 40 16 58 48 53 17 -3 16 88 -2 111 -15 20 -26
14 -26 -13 0 -10 -4 -21 -10 -24 -6 -4 -10 15 -10 49 0 50 2 56 21 56 18 0 19
2 9 15 -13 15 -100 22 -113 8z m94 -440 c-9 -16 -10 -16 -11 -1 0 9 3 25 7 35
7 16 8 17 11 1 2 -10 -1 -25 -7 -35z m-44 -89 c9 -8 22 -13 29 -10 8 3 14 1
14 -4 0 -6 -20 -10 -45 -10 -46 0 -54 7 -33 28 15 15 16 15 35 -4z m-67 -19
c0 -8 -4 -15 -10 -15 -5 0 -10 7 -10 15 0 8 5 15 10 15 6 0 10 -7 10 -15z"/>
<path d="M216 223 c-3 -4 -6 -21 -6 -40 0 -23 -5 -33 -15 -33 -18 0 -18 0 -4
-56 8 -31 16 -44 29 -44 21 0 30 19 30 61 0 16 9 48 21 70 19 39 18 70 -1 39
-8 -12 -13 -13 -29 -3 -10 6 -22 9 -25 6z"/>
</g>
</svg>
