<svg version="1.0" xmlns="http://www.w3.org/2000/svg"
 width="63.000000pt" height="103.000000pt" viewBox="0 0 63.000000 103.000000"
 preserveAspectRatio="xMidYMid meet">
<metadata>
Created by potrace 1.15, written by Peter Selinger 2001-2017
</metadata>
<g transform="translate(0.000000,103.000000) scale(0.100000,-0.100000)"
fill="#000000" stroke="none">
<path d="M341 886 c-6 -25 -11 -65 -11 -90 0 -53 -9 -58 -33 -16 -24 41 -67
90 -78 90 -13 0 -11 -37 4 -62 6 -12 29 -44 50 -71 20 -27 40 -59 43 -71 3
-13 1 -74 -5 -137 -14 -148 -14 -159 4 -159 20 0 32 52 46 199 13 143 16 151
87 226 12 13 22 31 22 40 0 25 -27 17 -50 -15 -30 -42 -39 -37 -33 17 4 43
-10 93 -28 93 -3 0 -12 -20 -18 -44z"/>
<path d="M427 648 c-18 -110 -35 -247 -33 -268 1 -23 -3 -25 -48 -28 -29 -2
-52 1 -56 8 -6 9 -12 9 -27 -1 -11 -7 -28 -9 -38 -5 -15 5 -17 14 -11 59 14
96 13 109 -6 148 -10 21 -18 49 -18 62 0 13 -3 26 -6 30 -8 8 -34 -3 -34 -14
0 -5 -14 -39 -31 -76 -31 -67 -31 -77 -11 -155 9 -34 8 -37 -12 -40 -19 -3
-21 -10 -24 -95 -3 -88 -1 -96 30 -155 41 -79 62 -103 80 -92 7 5 29 9 48 10
61 3 244 23 278 30 47 9 67 44 67 118 -1 111 -46 202 -94 189 -16 -4 -21 -1
-21 14 0 10 5 24 12 31 34 34 37 104 8 167 -5 11 -13 35 -18 54 -11 46 -28 50
-35 9z m-256 -90 c1 -15 5 -39 14 -90 9 -43 -12 -109 -26 -86 -5 7 -9 22 -9
34 0 11 -7 35 -15 52 -14 27 -14 33 2 66 18 36 32 46 34 24z m299 -65 c0 -17
-4 -35 -10 -38 -5 -3 -10 -15 -10 -26 0 -10 -4 -19 -10 -19 -13 0 -13 81 1
117 8 22 12 24 19 13 6 -8 10 -29 10 -47z m40 -166 c0 -1 9 -27 20 -57 23 -62
26 -119 8 -142 -12 -14 -38 -19 -158 -31 -21 -2 -24 2 -22 23 6 38 18 48 75
55 70 10 97 21 97 41 0 15 -10 16 -77 12 -94 -7 -103 -4 -103 32 0 28 0 29 85
58 28 9 75 15 75 9z m-260 -32 c27 -9 36 -18 38 -39 3 -27 3 -27 -65 -21 -105
9 -108 10 -111 34 -6 42 3 49 55 43 26 -3 64 -10 83 -17z m-100 -90 c14 -8 49
-14 78 -15 64 0 82 -15 82 -65 0 -29 -5 -37 -26 -45 -58 -23 -134 -6 -134 30
0 6 -9 28 -20 50 -31 61 -27 72 20 45z"/>
</g>
</svg>
