<svg version="1.0" xmlns="http://www.w3.org/2000/svg"
 width="69.000000pt" height="117.000000pt" viewBox="0 0 69.000000 117.000000"
 preserveAspectRatio="xMidYMid meet">
<metadata>
Created by potrace 1.15, written by Peter Selinger 2001-2017
</metadata>
<g transform="translate(0.000000,117.000000) scale(0.100000,-0.100000)"
fill="#000000" stroke="none">
<path d="M332 1070 c-38 -24 -56 -62 -47 -107 6 -32 48 -76 85 -88 18 -6 20
-15 20 -77 0 -38 -3 -68 -7 -66 -39 17 -126 74 -130 84 -3 8 -14 14 -24 14
-15 0 -17 -5 -13 -29 5 -23 0 -35 -30 -66 -32 -32 -36 -43 -36 -86 0 -28 6
-63 14 -78 13 -24 13 -31 0 -56 -24 -47 -12 -165 18 -165 21 0 3 -29 -57 -91
-36 -37 -65 -74 -65 -83 0 -9 2 -16 5 -16 2 0 34 29 70 65 35 36 66 65 69 65
4 0 21 -119 25 -178 0 -13 5 -20 11 -17 5 3 10 44 10 91 0 46 2 84 5 84 7 0
11 -3 89 -70 33 -27 63 -50 68 -50 15 0 -2 44 -25 63 -61 52 -111 93 -120 99
-7 4 -4 15 6 32 27 41 20 117 -19 188 -13 24 -12 29 11 56 28 33 31 56 13 113
-13 45 -6 59 20 36 10 -9 34 -23 55 -32 37 -15 37 -15 37 -118 0 -108 8 -134
65 -222 26 -40 127 -135 142 -135 7 0 13 -4 13 -10 0 -5 7 -10 15 -10 8 0 15
3 15 7 0 3 -36 41 -79 84 -103 102 -130 150 -133 237 -4 135 -1 149 36 174 80
54 146 110 141 119 -10 15 -18 12 -88 -36 -37 -25 -72 -45 -77 -45 -26 0 4
133 33 146 11 5 25 18 31 29 6 11 14 22 17 25 14 11 19 49 10 71 -11 31 -83
69 -129 69 -21 0 -52 -9 -70 -20z m136 -33 c27 -32 -30 -117 -79 -117 -40 0
-59 24 -59 75 0 49 5 52 81 54 27 1 51 -4 57 -12z m-230 -344 c10 -18 -1 -59
-25 -98 -13 -20 -13 -20 -28 -1 -21 28 -19 63 8 91 27 29 34 30 45 8z m1 -232
c15 -44 14 -62 -5 -86 -15 -20 -15 -20 -30 -1 -17 24 -19 107 -2 124 15 15 22
7 37 -37z"/>
</g>
</svg>
