<svg version="1.0" xmlns="http://www.w3.org/2000/svg"
 width="93.000000pt" height="141.000000pt" viewBox="0 0 93.000000 141.000000"
 preserveAspectRatio="xMidYMid meet">
<metadata>
Created by potrace 1.15, written by Peter Selinger 2001-2017
</metadata>
<g transform="translate(0.000000,141.000000) scale(0.100000,-0.100000)"
fill="#000000" stroke="none">
<path d="M325 1273 c-98 -10 -118 -16 -146 -42 -16 -16 -29 -36 -29 -45 0 -9
-4 -16 -10 -16 -6 0 -10 -28 -10 -65 0 -61 2 -66 38 -104 20 -22 51 -42 67
-46 17 -3 49 -16 72 -27 39 -21 42 -25 52 -83 17 -98 19 -95 -48 -95 -61 0
-116 14 -141 36 -9 7 -22 30 -29 51 -16 44 -38 73 -58 73 -33 0 -3 -101 44
-146 38 -37 97 -54 182 -54 61 0 61 0 61 -87 -1 -51 -8 -116 -18 -153 -15 -57
-22 -67 -52 -82 -19 -9 -60 -20 -90 -24 -30 -4 -58 -8 -62 -10 -5 -1 -21 -2
-38 -3 -36 -1 -41 -27 -7 -40 78 -30 287 45 287 103 0 8 4 17 9 20 10 6 19 66
27 181 3 44 8 82 10 85 3 2 43 6 89 7 85 3 85 3 85 -24 0 -16 -10 -44 -21 -63
-15 -24 -22 -53 -23 -94 -1 -57 0 -59 42 -96 23 -21 42 -41 42 -45 0 -4 -9
-20 -20 -35 -14 -20 -20 -46 -21 -90 -1 -54 2 -64 26 -90 30 -31 28 -55 -5
-85 -23 -21 -27 -55 -6 -55 8 0 17 8 20 18 3 9 21 27 40 40 30 21 37 22 58 10
12 -7 25 -15 28 -18 3 -3 16 -10 30 -17 77 -38 94 -1 21 46 -48 31 -49 33 -39
64 6 18 15 36 19 42 5 5 9 35 9 67 0 49 -4 63 -25 86 -36 39 -39 58 -16 96 12
18 21 44 21 57 0 24 -74 109 -96 109 -29 0 -32 80 -6 118 20 28 28 52 42 116
9 44 4 66 -15 66 -14 0 -29 -27 -26 -50 2 -20 -35 -61 -86 -94 -32 -21 -59
-30 -108 -33 -65 -6 -65 -6 -65 35 0 22 -4 52 -10 66 -13 35 -5 52 33 67 30
12 60 38 98 86 9 11 22 22 30 25 21 7 15 92 -10 141 -35 68 -140 110 -246 100z
m106 -74 c29 -6 59 -17 66 -25 18 -18 16 -106 -3 -148 -15 -30 -23 -35 -74
-45 -104 -21 -193 13 -220 84 -23 60 -3 91 80 123 64 25 81 26 151 11z m273
-632 c32 -26 36 -58 16 -107 -15 -35 -23 -37 -60 -10 -40 28 -56 72 -40 110
15 37 43 39 84 7z m63 -280 c4 -26 1 -40 -11 -52 -8 -9 -19 -22 -23 -30 -12
-21 -82 3 -85 30 -4 58 14 108 45 123 30 14 65 -21 74 -71z"/>
<path d="M752 801 c2 -7 7 -12 11 -12 12 1 9 15 -3 20 -7 2 -11 -2 -8 -8z"/>
</g>
</svg>
