<svg version="1.0" xmlns="http://www.w3.org/2000/svg"
 width="81.000000pt" height="177.000000pt" viewBox="0 0 81.000000 177.000000"
 preserveAspectRatio="xMidYMid meet">
<metadata>
Created by potrace 1.15, written by Peter Selinger 2001-2017
</metadata>
<g transform="translate(0.000000,177.000000) scale(0.100000,-0.100000)"
fill="#000000" stroke="none">
<path d="M436 1643 c-3 -3 -6 -32 -6 -64 0 -58 0 -58 -42 -34 -24 14 -46 25
-50 25 -19 0 -4 -37 23 -60 63 -52 66 -56 61 -88 -5 -38 -9 -39 -38 -11 -36
34 -52 19 -49 -43 4 -72 15 -110 37 -129 27 -24 23 -29 -27 -29 -25 0 -62 -7
-82 -15 -37 -16 -37 -16 -14 -32 20 -13 41 -15 131 -9 60 4 143 4 185 0 74 -7
76 -8 90 -40 16 -39 23 -129 30 -424 3 -124 8 -254 11 -290 3 -36 8 -93 9
-126 4 -72 33 -170 47 -156 13 13 13 76 -1 277 -7 99 -15 293 -18 430 -3 138
-9 258 -14 267 -5 9 -9 25 -9 36 0 34 -41 59 -118 73 -72 13 -72 13 -49 34 30
26 56 157 37 180 -18 21 -47 18 -53 -5 -7 -28 -36 -25 -47 5 -12 32 9 68 51
87 17 7 28 19 27 28 -4 18 -46 26 -61 11 -20 -20 -25 -11 -20 38 3 42 1 52
-15 60 -11 6 -22 7 -26 4z m84 -309 c0 -9 -7 -31 -16 -50 -14 -29 -21 -34 -50
-34 -27 0 -36 6 -50 32 -15 29 -15 32 2 42 45 27 114 33 114 10z"/>
<path d="M410 1034 c0 -99 34 -129 43 -36 3 42 1 61 -11 75 -25 28 -32 20 -32
-39z"/>
<path d="M296 1054 c-8 -20 -8 -88 0 -108 9 -24 41 -19 48 7 15 55 0 117 -28
117 -8 0 -17 -7 -20 -16z"/>
<path d="M310 831 c-5 -11 -8 -26 -6 -33 2 -7 7 -25 10 -40 3 -15 12 -33 19
-40 13 -13 32 -138 21 -138 -3 0 -24 18 -47 40 -52 51 -115 70 -90 27 15 -26
78 -92 105 -109 27 -18 28 -27 13 -116 -4 -23 -12 -45 -16 -48 -5 -3 -9 -14
-9 -24 0 -10 -8 -25 -17 -32 -10 -7 -20 -24 -22 -38 -1 -14 -6 -27 -10 -30
-11 -9 -31 -49 -31 -63 0 -7 -9 -19 -20 -27 -11 -8 -20 -19 -20 -25 0 -5 -9
-21 -20 -35 -17 -22 -28 -70 -16 -70 14 0 97 98 114 133 39 82 85 182 92 202
4 11 13 33 19 48 6 15 11 37 11 48 0 34 27 74 69 102 41 27 41 27 47 2 4 -16
-1 -34 -15 -54 -30 -41 -27 -88 6 -117 27 -23 27 -23 8 -64 -19 -41 -19 -43 0
-79 14 -25 28 -37 47 -39 53 -6 76 73 39 134 -16 27 -17 33 -4 50 18 25 8 82
-19 106 -25 22 -27 115 -3 152 10 16 12 26 6 31 -15 8 -45 -10 -94 -56 -56
-52 -67 -51 -67 10 0 42 4 52 30 72 25 20 30 31 30 68 0 56 -18 70 -92 71 -47
0 -59 -4 -68 -19z m116 -36 c8 -19 -22 -65 -41 -65 -20 0 -35 32 -28 58 6 26
60 31 69 7z m125 -332 c12 -32 5 -53 -16 -53 -21 0 -39 48 -24 66 17 21 28 17
40 -13z m15 -157 c3 -14 3 -29 0 -35 -11 -17 -36 0 -36 23 0 42 26 50 36 12z"/>
</g>
</svg>
