<svg version="1.0" xmlns="http://www.w3.org/2000/svg"
 width="64.000000pt" height="79.000000pt" viewBox="0 0 64.000000 79.000000"
 preserveAspectRatio="xMidYMid meet">
<metadata>
Created by potrace 1.15, written by Peter Selinger 2001-2017
</metadata>
<g transform="translate(0.000000,79.000000) scale(0.100000,-0.100000)"
fill="#000000" stroke="none">
<path d="M395 700 c-8 -12 11 -48 43 -82 33 -35 44 -121 17 -132 -25 -9 -41 8
-54 59 -7 29 -17 45 -26 45 -23 0 -29 -27 -16 -71 15 -50 43 -79 76 -79 41 0
32 -34 -14 -52 -102 -40 -81 -148 29 -148 38 0 51 5 73 28 33 35 34 62 4 99
-21 24 -23 35 -18 78 5 38 10 51 25 53 22 5 36 -13 36 -48 0 -14 5 -32 10 -40
8 -13 11 -13 25 1 13 13 14 23 5 64 -13 59 -25 75 -55 75 -27 0 -39 13 -54 63
-20 61 -87 117 -106 87z m105 -359 c13 -25 13 -27 -6 -45 -37 -37 -112 -3 -81
36 25 32 72 36 87 9z"/>
<path d="M123 640 c-24 -10 -53 -58 -53 -87 1 -22 18 -46 44 -60 16 -9 19 -24
21 -109 3 -76 8 -108 24 -139 18 -37 19 -41 4 -52 -52 -40 -83 10 -83 130 0
66 -3 86 -15 91 -9 3 -21 -4 -31 -20 -22 -33 -13 -157 16 -213 23 -46 45 -55
105 -47 33 5 50 2 76 -13 46 -27 213 -75 233 -68 47 18 -11 54 -115 71 -53 9
-111 55 -128 101 -13 36 -12 40 4 50 53 30 74 60 80 115 5 40 2 60 -8 74 -20
27 -37 11 -37 -34 0 -49 -14 -85 -36 -94 -26 -10 -32 3 -36 77 -3 68 -3 68 30
84 33 16 62 57 62 88 0 9 -11 27 -25 40 -18 19 -34 25 -67 24 -24 0 -53 -4
-65 -9z m101 -52 c16 -26 -19 -60 -57 -56 -42 4 -57 31 -32 58 23 25 72 24 89
-2z"/>
</g>
</svg>
