<svg version="1.0" xmlns="http://www.w3.org/2000/svg"
 width="81.000000pt" height="169.000000pt" viewBox="0 0 81.000000 169.000000"
 preserveAspectRatio="xMidYMid meet">
<metadata>
Created by potrace 1.15, written by Peter Selinger 2001-2017
</metadata>
<g transform="translate(0.000000,169.000000) scale(0.100000,-0.100000)"
fill="#000000" stroke="none">
<path d="M136 1501 c-10 -15 33 -39 79 -45 124 -16 155 -16 155 -2 0 8 6 16
12 18 8 3 4 10 -11 17 -31 17 -226 27 -235 12z"/>
<path d="M80 1330 c-25 -16 18 -39 72 -40 26 0 59 -5 74 -12 26 -12 26 -14 20
-73 -7 -61 -21 -234 -30 -380 -9 -136 -26 -769 -20 -745 8 32 25 212 34 345
21 318 25 382 25 423 0 23 3 42 7 42 4 0 9 69 11 153 3 83 8 169 12 190 7 37
7 37 97 37 80 0 89 2 86 18 -3 18 -20 22 -198 41 -119 13 -171 13 -190 1z"/>
<path d="M550 1274 c0 -9 8 -24 18 -33 34 -31 61 -78 72 -127 16 -67 -1 -133
-63 -257 -45 -91 -49 -106 -54 -192 -4 -70 -2 -106 11 -151 10 -32 22 -77 28
-99 19 -73 52 -165 59 -165 3 0 12 -13 19 -30 7 -16 16 -30 21 -30 4 0 10 -8
13 -17 7 -20 60 -83 70 -83 4 0 -2 13 -13 29 -12 16 -21 32 -21 36 0 3 -14 26
-30 50 -17 24 -30 46 -30 49 0 4 -8 25 -19 49 -18 40 -48 136 -71 222 -16 64
-12 141 11 198 12 29 25 61 29 72 4 11 17 40 28 65 36 78 62 165 62 204 0 36
54 166 72 174 5 2 8 9 8 15 0 19 -74 37 -150 37 -58 0 -70 -3 -70 -16z m160
-53 c0 -5 -7 -26 -16 -47 -16 -38 -16 -38 -40 1 -13 22 -24 43 -24 48 0 4 18
7 40 7 22 0 40 -4 40 -9z"/>
<path d="M105 1043 c-1 -149 -5 -190 -25 -238 -4 -11 -11 -29 -14 -39 -6 -16
-4 -17 9 -6 8 7 15 21 15 32 0 10 4 17 9 14 5 -3 11 7 14 22 3 15 15 65 26
110 22 96 19 166 -10 225 -11 20 -20 37 -22 37 -1 0 -2 -71 -2 -157z"/>
<path d="M366 1143 c-22 -192 -15 -273 27 -310 20 -18 20 -17 6 7 -16 31 -17
194 -2 236 21 54 23 92 7 109 -25 25 -31 18 -38 -42z"/>
<path d="M664 857 c-26 -30 -31 -49 -20 -73 13 -28 63 -34 72 -9 8 19 -15 48
-32 41 -18 -7 -26 5 -13 21 18 21 47 15 65 -12 22 -33 12 -66 -31 -111 -19
-20 -35 -37 -35 -39 0 -2 18 6 39 18 67 37 92 110 52 155 -21 25 -79 30 -97 9z"/>
<path d="M652 630 c-12 -12 -22 -25 -22 -31 0 -22 22 -49 39 -49 26 0 36 31
16 47 -26 18 -9 35 20 21 38 -17 35 -72 -7 -115 -18 -18 -27 -33 -20 -33 7 0
12 3 12 8 0 4 13 13 28 20 20 8 33 25 42 51 12 36 11 42 -9 70 -27 37 -66 41
-99 11z"/>
</g>
</svg>
