<svg version="1.0" xmlns="http://www.w3.org/2000/svg"
 width="73.000000pt" height="75.000000pt" viewBox="0 0 73.000000 75.000000"
 preserveAspectRatio="xMidYMid meet">
<metadata>
Created by potrace 1.15, written by Peter Selinger 2001-2017
</metadata>
<g transform="translate(0.000000,75.000000) scale(0.100000,-0.100000)"
fill="#000000" stroke="none">
<path d="M528 691 c-52 -21 -68 -34 -84 -71 -8 -18 -8 -30 0 -45 18 -32 73
-85 88 -85 35 0 46 -37 29 -94 -51 -165 -63 -268 -41 -333 11 -31 45 -53 82
-53 29 0 88 47 88 70 0 10 5 22 10 25 18 11 11 53 -12 69 -27 19 -38 20 -38 4
0 -20 -33 -87 -45 -92 -46 -17 -54 68 -18 179 15 44 31 83 35 86 5 3 11 30 14
60 8 83 13 99 31 99 20 0 52 36 59 67 7 27 -18 84 -48 113 -28 25 -86 26 -150
1z m95 -32 c44 -23 44 -56 1 -96 -38 -37 -84 -25 -102 26 -12 34 -1 55 38 70
33 13 38 13 63 0z"/>
<path d="M205 678 c-65 -12 -80 -21 -80 -44 0 -21 13 -22 112 -8 52 6 68 20
57 49 -7 16 -15 17 -89 3z"/>
<path d="M230 530 c-25 -4 -70 -11 -100 -15 -101 -14 -105 -45 -6 -45 62 0 62
0 73 -42 6 -24 12 -97 13 -163 5 -207 7 -224 19 -244 7 -10 13 -11 31 -1 21
11 21 16 16 103 -20 294 -17 367 13 367 23 0 63 29 56 41 -7 10 -49 10 -115
-1z"/>
<path d="M330 262 c0 -91 8 -112 42 -112 17 0 19 8 17 78 -1 79 -17 122 -44
122 -12 0 -15 -17 -15 -88z"/>
<path d="M87 334 c-3 -4 -3 -34 0 -69 3 -36 1 -84 -7 -114 -13 -56 -4 -81 29
-81 14 0 19 19 30 115 12 108 12 117 -4 135 -18 20 -36 25 -48 14z"/>
</g>
</svg>
