<svg version="1.0" xmlns="http://www.w3.org/2000/svg"
 width="72.000000pt" height="97.000000pt" viewBox="0 0 72.000000 97.000000"
 preserveAspectRatio="xMidYMid meet">
<metadata>
Created by potrace 1.15, written by Peter Selinger 2001-2017
</metadata>
<g transform="translate(0.000000,97.000000) scale(0.100000,-0.100000)"
fill="#000000" stroke="none">
<path d="M457 773 c-4 -3 -7 -15 -7 -26 0 -18 -6 -19 -70 -15 -38 2 -70 1 -70
-3 0 -4 -16 -10 -35 -13 -48 -9 -105 -34 -105 -46 0 -6 30 -9 73 -8 71 3 72 3
75 -23 3 -23 -3 -28 -45 -44 -80 -29 -91 -40 -113 -111 -11 -36 -20 -79 -20
-95 0 -16 -11 -52 -25 -79 -32 -62 -32 -75 0 -54 27 17 58 79 70 135 18 92 28
91 90 -6 26 -41 51 -75 55 -75 5 0 18 21 31 48 12 26 33 64 46 85 30 48 21 52
-93 44 -72 -5 -86 -4 -91 10 -8 19 28 49 78 64 33 10 39 9 100 -34 67 -47 89
-78 89 -125 0 -29 41 -126 58 -136 19 -11 23 13 8 41 -7 15 -17 63 -21 106 -8
86 -28 122 -73 132 -15 3 -41 16 -57 29 -30 24 -30 24 20 38 60 18 93 55 76
86 -6 11 -11 34 -11 51 0 29 -17 41 -33 24z m-7 -93 c0 -22 -23 -37 -66 -42
-44 -5 -40 30 6 47 50 18 60 17 60 -5z m-80 -229 c0 -5 -9 -19 -19 -32 -19
-24 -19 -24 -45 0 -14 13 -23 28 -20 32 7 12 84 11 84 0z"/>
<path d="M417 342 c-18 -20 -22 -48 -9 -54 5 -1 25 -22 46 -45 49 -55 44 -83
-15 -83 -38 0 -39 1 -39 34 0 18 -7 39 -15 46 -13 11 -15 6 -15 -36 0 -27 -6
-60 -13 -74 -26 -52 -77 -15 -77 58 0 40 -18 42 -26 2 -6 -26 -11 -30 -40 -30
-31 0 -34 3 -34 28 0 20 8 32 30 45 41 25 55 53 41 84 -13 27 -31 22 -31 -9 0
-12 -20 -39 -45 -62 -48 -45 -57 -76 -32 -110 14 -19 38 -19 93 -1 19 6 22 2
28 -30 6 -32 14 -40 53 -57 51 -22 102 -29 103 -13 0 6 -9 11 -20 13 -29 5
-35 27 -16 56 13 20 22 24 48 19 47 -7 88 27 88 72 0 28 -8 40 -40 66 -41 33
-51 63 -25 73 8 3 15 10 15 16 0 17 -36 11 -53 -8z"/>
</g>
</svg>
