<svg version="1.0" xmlns="http://www.w3.org/2000/svg"
 width="77.000000pt" height="89.000000pt" viewBox="0 0 77.000000 89.000000"
 preserveAspectRatio="xMidYMid meet">
<metadata>
Created by potrace 1.15, written by Peter Selinger 2001-2017
</metadata>
<g transform="translate(0.000000,89.000000) scale(0.100000,-0.100000)"
fill="#000000" stroke="none">
<path d="M235 623 c-36 -9 -55 -34 -55 -73 0 -51 14 -60 95 -60 70 0 95 -10
95 -37 0 -10 -22 -13 -85 -13 -79 0 -86 -2 -101 -25 -20 -31 -13 -94 13 -112
10 -8 49 -13 100 -13 83 0 83 0 83 -45 0 -44 0 -44 -102 -47 -84 -2 -103 -6
-103 -18 0 -13 16 -14 98 -12 97 4 97 4 97 -26 0 -42 -20 -54 -100 -60 -81 -5
-110 -25 -64 -43 16 -6 55 -9 88 -6 75 7 116 41 116 99 0 38 0 38 64 38 79 0
96 -6 96 -34 0 -37 -17 -50 -71 -56 -61 -6 -73 -23 -28 -39 42 -14 103 3 131
38 15 20 19 36 15 64 -8 61 -19 67 -113 67 -84 0 -84 0 -84 40 0 40 0 40 85
40 79 0 86 2 101 25 20 30 12 74 -19 103 -17 16 -38 22 -92 24 -62 3 -70 5
-70 23 0 19 5 20 81 16 65 -2 84 0 97 14 26 25 22 81 -8 110 -24 25 -27 25
-182 24 -87 -1 -167 -4 -178 -6z m314 -60 c15 -13 18 -22 11 -33 -7 -12 -36
-16 -127 -18 -138 -4 -196 6 -201 32 -2 10 2 22 10 27 7 5 74 9 149 9 116 0
140 -3 158 -17z m-5 -186 c20 -32 -13 -43 -150 -50 -69 -3 -135 -2 -147 3 -12
5 -18 9 -13 9 5 1 3 7 -3 15 -10 11 -7 18 11 30 19 14 47 16 157 14 117 -3
135 -5 145 -21z"/>
</g>
</svg>
