<svg version="1.0" xmlns="http://www.w3.org/2000/svg"
 width="83.000000pt" height="123.000000pt" viewBox="0 0 83.000000 123.000000"
 preserveAspectRatio="xMidYMid meet">
<metadata>
Created by potrace 1.15, written by Peter Selinger 2001-2017
</metadata>
<g transform="translate(0.000000,123.000000) scale(0.100000,-0.100000)"
fill="#000000" stroke="none">
<path d="M370 1153 c-106 -3 -217 -22 -231 -40 -9 -9 -8 -17 1 -28 15 -18 140
-20 373 -5 112 6 151 12 163 25 9 8 14 22 11 29 -10 25 -48 28 -317 19z"/>
<path d="M152 892 c-94 -95 -102 -106 -102 -132 0 -26 28 -26 55 -1 69 67 135
137 145 157 13 24 8 54 -10 54 -5 0 -45 -35 -88 -78z"/>
<path d="M378 958 c-2 -7 -5 -53 -7 -102 -3 -109 15 -206 40 -206 26 0 35 43
34 160 0 84 -4 112 -18 133 -18 28 -42 35 -49 15z"/>
<path d="M570 940 c0 -16 3 -30 8 -30 4 0 12 -10 17 -22 15 -33 144 -138 170
-138 38 0 39 29 2 63 -178 170 -197 182 -197 127z"/>
<path d="M648 515 c-1 -1 -97 -6 -213 -10 -245 -8 -289 -14 -293 -37 -5 -27
31 -39 95 -30 32 4 94 5 137 2 78 -5 80 -5 88 -35 10 -36 -8 -161 -28 -192
-22 -36 -88 -92 -135 -116 -49 -25 -59 -42 -29 -52 30 -9 117 34 171 86 67 65
89 113 89 199 0 99 7 110 78 111 60 0 123 17 129 34 5 19 -12 32 -49 38 -20 3
-38 4 -40 2z"/>
</g>
</svg>
