<svg version="1.0" xmlns="http://www.w3.org/2000/svg"
 width="57.000000pt" height="105.000000pt" viewBox="0 0 57.000000 105.000000"
 preserveAspectRatio="xMidYMid meet">
<metadata>
Created by potrace 1.15, written by Peter Selinger 2001-2017
</metadata>
<g transform="translate(0.000000,105.000000) scale(0.100000,-0.100000)"
fill="#000000" stroke="none">
<path d="M270 851 c0 -90 3 -121 14 -130 27 -23 46 24 46 116 0 90 -13 133
-42 133 -16 0 -18 -10 -18 -119z"/>
<path d="M465 940 c-3 -5 -3 -55 1 -110 7 -107 20 -134 50 -109 13 10 15 28
10 98 -3 47 -8 96 -12 109 -6 22 -38 30 -49 12z"/>
<path d="M70 878 c0 -18 -2 -60 -5 -93 -4 -66 3 -89 27 -80 31 12 48 131 26
180 -17 38 -48 33 -48 -7z"/>
<path d="M215 543 c-16 -1 -58 -6 -92 -9 -46 -4 -63 -10 -63 -20 0 -8 8 -17
18 -20 9 -3 27 -11 39 -16 12 -6 36 -8 52 -5 56 11 77 -5 89 -69 7 -31 12 -74
12 -94 0 -46 -45 -119 -111 -181 -56 -52 -63 -79 -22 -79 21 0 42 15 86 62 86
92 107 147 107 283 0 92 0 92 73 98 88 7 107 13 107 38 0 18 -9 19 -132 18
-73 -1 -146 -4 -163 -6z"/>
</g>
</svg>
