<svg version="1.0" xmlns="http://www.w3.org/2000/svg"
 width="61.000000pt" height="97.000000pt" viewBox="0 0 61.000000 97.000000"
 preserveAspectRatio="xMidYMid meet">
<metadata>
Created by potrace 1.15, written by Peter Selinger 2001-2017
</metadata>
<g transform="translate(0.000000,97.000000) scale(0.100000,-0.100000)"
fill="#000000" stroke="none">
<path d="M355 880 c-11 -5 -52 -9 -91 -9 -79 -1 -98 -15 -63 -47 18 -16 26
-17 78 -6 31 7 73 12 93 12 39 0 57 22 37 46 -13 16 -25 17 -54 4z"/>
<path d="M464 697 c8 -41 51 -133 67 -142 6 -4 15 -1 20 6 11 16 2 82 -12 87
-5 2 -9 9 -9 16 0 20 -40 66 -57 66 -12 0 -14 -7 -9 -33z"/>
<path d="M261 646 c-20 -82 -11 -156 20 -156 9 0 29 92 29 133 -1 29 -19 67
-32 67 -3 0 -11 -20 -17 -44z"/>
<path d="M66 672 c-14 -23 -36 -101 -36 -129 0 -25 4 -33 18 -33 21 0 37 29
47 84 11 55 -9 109 -29 78z"/>
<path d="M143 383 c-21 -8 -15 -30 10 -39 12 -4 45 -10 72 -13 50 -6 50 -6 48
-89 -1 -46 -9 -105 -17 -132 -15 -51 -13 -60 14 -60 23 0 37 33 50 119 6 40
15 82 20 92 6 10 10 27 10 39 0 24 18 33 74 34 37 1 41 4 44 29 3 27 3 27
-155 26 -87 0 -164 -3 -170 -6z"/>
<path d="M95 160 c3 -5 11 -10 16 -10 6 0 7 5 4 10 -3 6 -11 10 -16 10 -6 0
-7 -4 -4 -10z"/>
</g>
</svg>
