<svg version="1.0" xmlns="http://www.w3.org/2000/svg"
 width="51.000000pt" height="101.000000pt" viewBox="0 0 51.000000 101.000000"
 preserveAspectRatio="xMidYMid meet">
<metadata>
Created by potrace 1.15, written by Peter Selinger 2001-2017
</metadata>
<g transform="translate(0.000000,101.000000) scale(0.100000,-0.100000)"
fill="#000000" stroke="none">
<path d="M171 876 c-18 -22 -25 -130 -11 -181 13 -45 30 -61 30 -27 0 10 4 22
9 28 8 8 16 115 12 172 -1 25 -23 29 -40 8z"/>
<path d="M288 869 c-15 -8 -18 -25 -18 -102 0 -85 8 -117 30 -117 16 0 30 57
30 124 0 81 -14 112 -42 95z"/>
<path d="M405 851 c-8 -27 4 -213 15 -225 13 -13 30 3 30 29 0 13 5 27 10 30
6 3 10 30 10 58 -1 80 -49 159 -65 108z"/>
<path d="M70 615 c0 -22 75 -72 121 -80 29 -5 43 -13 49 -30 5 -12 9 -100 10
-196 1 -169 7 -206 32 -181 17 17 27 96 27 235 1 128 1 128 46 121 47 -7 95 1
95 15 0 8 -27 23 -102 55 -18 7 -67 23 -108 35 -41 12 -85 26 -98 32 -35 14
-72 11 -72 -6z"/>
</g>
</svg>
