<svg version="1.0" xmlns="http://www.w3.org/2000/svg"
 width="66.000000pt" height="110.000000pt" viewBox="0 0 66.000000 110.000000"
 preserveAspectRatio="xMidYMid meet">
<metadata>
Created by potrace 1.15, written by Peter Selinger 2001-2017
</metadata>
<g transform="translate(0.000000,110.000000) scale(0.100000,-0.100000)"
fill="#000000" stroke="none">
<path d="M161 1071 c-6 -10 -9 -20 -6 -22 2 -3 5 -45 6 -94 2 -86 1 -90 -20
-93 -39 -6 -51 15 -51 88 0 49 -4 71 -16 81 -27 22 -35 -8 -28 -96 7 -92 18
-110 73 -119 42 -6 51 -19 51 -70 0 -18 3 -36 7 -39 13 -14 33 17 33 51 0 36
21 61 51 62 45 1 69 200 25 200 -10 0 -18 -22 -26 -69 -20 -122 -50 -93 -50
48 0 81 -25 118 -49 72z"/>
<path d="M497 1053 c-4 -3 -7 -49 -7 -101 0 -94 0 -94 -27 -87 -35 8 -43 21
-43 70 0 59 -10 86 -29 83 -18 -4 -22 -48 -9 -117 10 -57 31 -79 77 -83 30 -3
36 -7 39 -28 7 -63 11 -71 32 -58 14 9 20 24 20 50 0 35 2 38 29 38 49 0 71
39 71 125 0 57 -3 74 -16 79 -26 10 -34 -3 -28 -48 4 -30 1 -52 -10 -74 -28
-54 -43 -41 -52 46 -4 42 -9 80 -10 85 -1 4 -2 12 -3 17 -1 11 -24 13 -34 3z"/>
<path d="M346 683 c-3 -10 -5 -107 -4 -215 2 -137 -1 -201 -9 -209 -8 -8 -30
-9 -66 -5 -52 7 -55 9 -67 45 -8 25 -10 76 -7 159 4 99 2 125 -10 137 -20 20
-30 19 -44 -6 -7 -13 -8 -39 -4 -68 4 -25 8 -95 10 -154 4 -141 9 -148 140
-165 48 -7 50 -8 53 -41 2 -19 1 -50 -3 -68 -6 -33 -6 -33 -155 -33 -143 0
-150 -1 -150 -20 0 -24 27 -32 95 -26 28 2 146 5 264 6 244 1 271 5 271 31 0
17 -10 18 -132 16 -133 -2 -133 -2 -133 91 0 94 0 94 34 108 18 8 48 14 65 14
17 0 42 9 56 19 24 19 25 24 28 158 4 121 2 142 -13 156 -25 25 -35 21 -35
-15 -1 -18 -1 -77 -2 -130 -1 -89 -3 -100 -25 -122 -26 -26 -81 -39 -100 -24
-9 7 -12 59 -11 183 0 95 -2 177 -6 184 -11 17 -34 13 -40 -6z"/>
</g>
</svg>
