<svg version="1.0" xmlns="http://www.w3.org/2000/svg"
 width="95.000000pt" height="109.000000pt" viewBox="0 0 95.000000 109.000000"
 preserveAspectRatio="xMidYMid meet">
<metadata>
Created by potrace 1.15, written by Peter Selinger 2001-2017
</metadata>
<g transform="translate(0.000000,109.000000) scale(0.100000,-0.100000)"
fill="#000000" stroke="none">
<path d="M486 988 c-5 -29 -10 -108 -12 -176 -5 -120 -22 -221 -44 -247 -10
-12 -32 -18 -107 -32 -18 -3 -33 -8 -33 -12 0 -3 -34 -7 -76 -8 -98 -2 -141
-10 -148 -28 -4 -12 10 -15 82 -17 48 -1 116 0 152 1 36 1 82 -3 103 -10 31
-10 39 -19 48 -51 18 -67 39 -201 39 -248 0 -54 9 -90 22 -90 26 0 36 31 42
136 6 113 17 204 30 241 10 27 39 39 146 58 177 32 192 36 176 52 -7 7 -105 9
-226 4 -30 -2 -60 -2 -67 -2 -18 1 -36 39 -44 91 -4 25 -12 72 -19 105 -10 55
-21 123 -36 230 -9 61 -20 62 -28 3z"/>
</g>
</svg>
