<svg version="1.0" xmlns="http://www.w3.org/2000/svg"
 width="109.000000pt" height="141.000000pt" viewBox="0 0 109.000000 141.000000"
 preserveAspectRatio="xMidYMid meet">
<metadata>
Created by potrace 1.15, written by Peter Selinger 2001-2017
</metadata>
<g transform="translate(0.000000,141.000000) scale(0.100000,-0.100000)"
fill="#000000" stroke="none">
<path d="M502 1308 c-6 -13 -13 -88 -16 -167 -3 -79 -6 -145 -8 -147 -2 -1
-60 -4 -128 -5 -202 -2 -347 -49 -326 -104 6 -16 81 -22 90 -7 7 11 260 36
281 29 8 -4 15 -17 15 -31 0 -14 5 -28 10 -31 6 -3 10 -14 10 -24 0 -9 9 -27
21 -39 18 -20 21 -38 25 -165 2 -78 6 -155 9 -172 3 -16 5 -109 5 -206 0 -185
4 -203 43 -174 15 11 17 44 17 363 0 281 3 353 13 359 8 4 22 24 33 43 38 71
34 69 162 63 64 -3 121 -9 127 -14 5 -5 18 -9 30 -9 12 0 26 -5 33 -12 17 -17
101 -16 112 2 5 8 10 18 10 21 0 10 -49 29 -75 29 -13 0 -26 4 -29 9 -7 10
-81 29 -146 36 -93 10 -200 24 -235 31 -35 6 -35 6 -35 156 0 138 -8 188 -29
188 -4 0 -13 -10 -19 -22z"/>
</g>
</svg>
