<svg version="1.0" xmlns="http://www.w3.org/2000/svg"
 width="43.000000pt" height="65.000000pt" viewBox="0 0 43.000000 65.000000"
 preserveAspectRatio="xMidYMid meet">
<metadata>
Created by potrace 1.15, written by Peter Selinger 2001-2017
</metadata>
<g transform="translate(0.000000,65.000000) scale(0.100000,-0.100000)"
fill="#000000" stroke="none">
<path d="M250 390 c0 -77 -1 -80 -26 -86 -18 -5 -31 -1 -48 15 -28 27 -39 27
-31 1 4 -12 2 -27 -5 -35 -8 -10 -5 -17 17 -33 30 -21 73 -93 73 -121 0 -9 -5
-22 -12 -29 -9 -9 -8 -12 4 -12 20 0 68 59 68 83 0 10 5 17 11 17 14 0 34 24
55 68 22 43 7 63 -42 55 -38 -6 -37 -10 -34 100 1 46 -2 57 -14 57 -13 0 -16
-14 -16 -80z m70 -128 c0 -5 -11 -22 -25 -38 -25 -29 -25 -29 -25 2 0 17 3 34
7 37 9 10 43 9 43 -1z"/>
<path d="M155 190 c-3 -5 -1 -10 4 -10 6 0 11 5 11 10 0 6 -2 10 -4 10 -3 0
-8 -4 -11 -10z"/>
</g>
</svg>
