<svg version="1.0" xmlns="http://www.w3.org/2000/svg"
 width="51.000000pt" height="111.000000pt" viewBox="0 0 51.000000 111.000000"
 preserveAspectRatio="xMidYMid meet">
<metadata>
Created by potrace 1.15, written by Peter Selinger 2001-2017
</metadata>
<g transform="translate(0.000000,111.000000) scale(0.100000,-0.100000)"
fill="#000000" stroke="none">
<path d="M275 810 c-3 -5 -1 -36 4 -69 9 -54 7 -149 -4 -159 -2 -2 -21 -1 -43
3 -32 5 -40 12 -50 39 -15 41 -77 114 -88 103 -4 -4 -2 -22 4 -40 7 -19 12
-46 12 -60 0 -15 5 -36 10 -47 6 -11 15 -29 20 -40 6 -11 10 -28 10 -38 0 -10
4 -22 8 -27 5 -6 15 -30 22 -55 8 -25 37 -92 65 -150 44 -89 51 -112 48 -150
-4 -45 -4 -45 16 -20 11 14 21 32 21 41 0 8 9 33 19 55 10 21 24 59 31 84 26
99 52 187 66 225 18 45 11 105 -12 105 -8 0 -17 -13 -20 -30 -7 -32 -18 -36
-58 -20 -25 9 -26 12 -26 98 0 49 -5 103 -11 120 -11 31 -34 48 -44 32z m-7
-292 c8 -8 12 -44 12 -97 -1 -86 -1 -86 -25 -36 -13 28 -24 62 -24 77 -1 15
-5 30 -11 33 -5 3 -10 13 -10 21 0 17 41 19 58 2z m97 -20 c19 -8 24 -16 19
-31 -24 -75 -47 -156 -51 -180 -3 -15 -10 -30 -15 -33 -9 -6 -7 47 8 196 1 19
3 41 3 48 1 15 4 15 36 0z"/>
</g>
</svg>
