<svg version="1.0" xmlns="http://www.w3.org/2000/svg"
 width="71.000000pt" height="115.000000pt" viewBox="0 0 71.000000 115.000000"
 preserveAspectRatio="xMidYMid meet">
<metadata>
Created by potrace 1.15, written by Peter Selinger 2001-2017
</metadata>
<g transform="translate(0.000000,115.000000) scale(0.100000,-0.100000)"
fill="#000000" stroke="none">
<path d="M346 1014 c-3 -26 -6 -67 -6 -91 0 -31 -5 -45 -16 -50 -9 -3 -78 -7
-153 -7 -133 -1 -136 -1 -139 -23 -3 -23 -3 -23 146 -23 111 0 151 -3 155 -12
2 -7 2 -68 -1 -136 -5 -120 -6 -124 -31 -140 -14 -9 -28 -19 -31 -22 -3 -3
-16 -10 -30 -16 -108 -49 -200 -99 -204 -111 -21 -53 46 -40 218 43 58 28 56
32 56 -192 -1 -201 4 -235 30 -219 23 14 29 57 35 261 4 115 9 212 12 217 2 4
11 7 19 7 8 0 45 14 82 31 37 17 78 36 92 42 32 15 40 26 32 46 -13 35 -53 35
-104 0 -14 -11 -33 -19 -42 -19 -9 0 -16 -4 -16 -10 0 -5 -15 -10 -34 -10 -34
0 -34 0 -29 108 2 59 6 113 9 121 4 11 31 13 149 8 136 -5 145 -4 145 13 0 27
-50 39 -166 38 -55 -1 -106 2 -113 6 -8 6 -10 29 -5 82 7 78 -2 104 -36 104
-13 0 -19 -11 -24 -46z"/>
</g>
</svg>
