<svg version="1.0" xmlns="http://www.w3.org/2000/svg"
 width="59.000000pt" height="137.000000pt" viewBox="0 0 59.000000 137.000000"
 preserveAspectRatio="xMidYMid meet">
<metadata>
Created by potrace 1.15, written by Peter Selinger 2001-2017
</metadata>
<g transform="translate(0.000000,137.000000) scale(0.100000,-0.100000)"
fill="#000000" stroke="none">
<path d="M278 1201 c-1 -5 -26 -34 -53 -63 -81 -85 -98 -114 -92 -156 2 -20
21 -70 41 -111 45 -93 46 -132 5 -214 -28 -54 -32 -73 -33 -147 -1 -72 3 -94
23 -135 14 -28 29 -61 34 -75 5 -14 13 -33 18 -42 5 -10 9 -25 9 -33 0 -20 60
-156 76 -174 8 -8 16 -12 20 -8 9 8 -25 133 -48 177 -10 19 -21 50 -24 70 -6
41 -19 78 -46 139 -12 27 -18 57 -15 75 8 56 36 143 57 180 11 20 20 44 20 54
0 21 -19 76 -43 121 -9 19 -17 40 -17 46 0 7 -7 26 -15 41 -24 46 -19 77 19
113 34 33 34 33 66 -14 43 -62 173 -192 177 -178 8 22 -104 193 -151 233 -18
14 -21 55 -6 65 15 9 12 45 -4 45 -8 0 -16 -4 -18 -9z"/>
<path d="M330 832 c0 -38 130 -202 160 -202 12 0 13 17 1 24 -5 3 -22 30 -39
59 -32 56 -99 137 -113 137 -5 0 -9 -8 -9 -18z"/>
<path d="M310 585 c0 -29 13 -55 56 -110 52 -65 71 -85 83 -85 14 0 14 6 -3
38 -7 15 -24 47 -36 72 -23 45 -77 110 -92 110 -4 0 -8 -11 -8 -25z"/>
</g>
</svg>
