<svg version="1.0" xmlns="http://www.w3.org/2000/svg"
 width="73.000000pt" height="125.000000pt" viewBox="0 0 73.000000 125.000000"
 preserveAspectRatio="xMidYMid meet">
<metadata>
Created by potrace 1.15, written by Peter Selinger 2001-2017
</metadata>
<g transform="translate(0.000000,125.000000) scale(0.100000,-0.100000)"
fill="#000000" stroke="none">
<path d="M368 1002 c-16 -15 -44 -47 -64 -72 -36 -45 -36 -45 -30 -123 4 -47
2 -94 -5 -119 -11 -41 -59 -99 -110 -132 -31 -19 -47 -69 -44 -136 4 -78 17
-164 29 -185 6 -11 12 -27 13 -35 4 -29 49 -140 62 -152 11 -11 12 -2 7 47 -7
78 -15 125 -26 150 -8 19 -15 67 -26 171 -5 48 -3 53 25 75 17 13 31 30 31 37
0 7 25 37 54 66 54 53 55 54 50 102 -3 27 -10 50 -14 52 -5 2 -4 12 2 22 9 14
9 25 0 45 -16 34 -15 38 6 61 9 10 30 36 46 58 29 38 29 38 42 7 7 -17 11 -38
7 -47 -3 -8 1 -22 9 -32 8 -9 26 -37 39 -62 13 -25 30 -51 37 -58 6 -7 12 -18
12 -23 0 -5 6 -9 14 -9 8 0 16 -7 20 -15 3 -8 10 -15 15 -15 17 0 5 59 -16 89
-31 41 -63 108 -63 130 0 11 -4 23 -10 26 -5 3 -10 15 -10 26 0 21 -19 60 -35
71 -19 14 -40 8 -67 -20z"/>
<path d="M437 666 c-18 -46 5 -191 31 -201 12 -4 14 2 8 32 -3 21 -6 63 -6 94
0 60 -21 107 -33 75z"/>
<path d="M245 500 c3 -5 10 -10 16 -10 5 0 9 5 9 10 0 6 -7 10 -16 10 -8 0
-12 -4 -9 -10z"/>
<path d="M310 396 c-9 -25 -7 -45 20 -166 10 -50 41 -120 51 -120 15 0 10 62
-11 145 -11 43 -20 93 -20 110 0 18 -7 38 -15 45 -12 10 -16 8 -25 -14z"/>
</g>
</svg>
