<svg version="1.0" xmlns="http://www.w3.org/2000/svg"
 width="45.000000pt" height="117.000000pt" viewBox="0 0 45.000000 117.000000"
 preserveAspectRatio="xMidYMid meet">
<metadata>
Created by potrace 1.15, written by Peter Selinger 2001-2017
</metadata>
<g transform="translate(0.000000,117.000000) scale(0.100000,-0.100000)"
fill="#000000" stroke="none">
<path d="M180 993 c-6 -21 -15 -47 -20 -58 -5 -11 -11 -36 -14 -55 -2 -19 -9
-57 -15 -84 -11 -49 -5 -126 10 -126 24 0 17 -44 -16 -103 -24 -45 -35 -78
-35 -106 0 -47 36 -227 50 -253 6 -10 10 -22 10 -27 0 -22 46 -111 58 -111 16
0 15 29 -2 104 -8 34 -19 88 -26 121 -7 33 -16 70 -21 83 -5 13 -9 46 -9 73 0
40 6 60 30 94 44 64 47 93 16 160 -19 41 -23 62 -16 78 5 12 14 50 21 85 13
61 22 75 32 49 3 -7 24 -26 48 -42 24 -17 56 -42 71 -57 14 -16 31 -28 37 -28
27 0 5 37 -62 103 -40 40 -83 87 -95 105 -13 17 -27 32 -32 32 -5 0 -14 -17
-20 -37z"/>
<path d="M280 690 c0 -17 16 -64 35 -104 19 -41 35 -79 35 -85 0 -6 6 -11 14
-11 29 0 0 143 -41 198 -30 40 -43 41 -43 2z"/>
<path d="M248 425 c-8 -8 2 -88 13 -99 5 -6 9 -18 9 -28 0 -22 28 -68 41 -68
16 0 9 84 -10 125 -23 50 -45 78 -53 70z"/>
</g>
</svg>
