<svg version="1.0" xmlns="http://www.w3.org/2000/svg"
 width="43.000000pt" height="83.000000pt" viewBox="0 0 43.000000 83.000000"
 preserveAspectRatio="xMidYMid meet">
<metadata>
Created by potrace 1.15, written by Peter Selinger 2001-2017
</metadata>
<g transform="translate(0.000000,83.000000) scale(0.100000,-0.100000)"
fill="#000000" stroke="none">
<path d="M137 642 c-3 -4 -10 -25 -17 -47 -7 -22 -21 -53 -31 -70 -28 -44 -24
-67 16 -93 36 -23 45 -51 22 -74 -7 -7 -19 -27 -26 -45 -12 -29 -11 -37 8 -76
12 -24 21 -49 21 -55 0 -7 3 -12 8 -12 4 0 15 -18 26 -40 21 -44 46 -60 46
-30 0 17 -22 75 -51 132 -14 29 -10 66 12 110 25 49 20 77 -21 120 -32 33 -36
43 -19 53 5 4 14 18 19 31 11 29 36 30 70 4 14 -11 33 -20 43 -20 15 0 16 3 7
20 -12 23 -128 102 -133 92z"/>
<path d="M190 493 c1 -10 6 -27 13 -39 21 -37 92 -123 101 -124 19 -1 -36 134
-69 167 -19 19 -45 16 -45 -4z"/>
<path d="M190 318 c0 -12 8 -23 67 -98 25 -31 63 -46 63 -25 0 22 -94 134
-112 135 -10 0 -18 -6 -18 -12z"/>
</g>
</svg>
