<svg version="1.0" xmlns="http://www.w3.org/2000/svg"
 width="72.000000pt" height="89.000000pt" viewBox="0 0 72.000000 89.000000"
 preserveAspectRatio="xMidYMid meet">
<metadata>
Created by potrace 1.15, written by Peter Selinger 2001-2017
</metadata>
<g transform="translate(0.000000,89.000000) scale(0.100000,-0.100000)"
fill="#000000" stroke="none">
<path d="M303 651 c-76 -10 -133 -73 -133 -150 0 -14 -4 -32 -9 -40 -10 -16
-20 -1 -40 62 -9 26 -18 37 -32 37 -23 0 -22 4 -4 -66 15 -59 35 -90 64 -99 9
-3 22 -22 27 -44 10 -38 10 -39 -49 -106 -47 -52 -57 -69 -46 -76 10 -6 31 8
75 52 54 53 62 58 74 44 24 -29 -5 -92 -71 -155 -32 -31 -59 -60 -59 -63 0
-23 47 0 92 46 90 87 108 156 60 224 -30 42 -35 69 -17 87 20 19 45 79 45 106
0 34 -27 22 -34 -15 -4 -22 -13 -35 -22 -35 -13 0 -14 8 -9 42 10 58 32 84 83
102 46 16 125 12 150 -7 28 -22 13 -54 -48 -101 -57 -45 -73 -66 -49 -66 16 0
109 53 109 63 0 16 42 5 109 -28 38 -19 76 -35 85 -35 24 0 32 23 11 34 -94
56 -135 89 -145 122 -7 19 -22 42 -35 50 -28 18 -109 25 -182 15z"/>
<path d="M462 404 c4 -35 2 -38 -73 -93 -43 -31 -78 -62 -78 -70 -1 -8 5 -11
14 -7 14 5 96 58 143 92 12 9 25 14 29 10 11 -11 -38 -55 -124 -112 -72 -48
-99 -74 -77 -74 20 0 154 77 184 106 42 40 55 42 64 12 11 -44 5 -57 -64 -127
-41 -41 -70 -79 -70 -91 0 -29 9 -25 48 21 19 22 52 52 73 65 22 13 50 42 65
63 25 38 25 40 8 73 -9 18 -41 59 -70 91 -30 32 -54 62 -54 68 0 5 -5 9 -11 9
-7 0 -10 -14 -7 -36z"/>
<path d="M480 220 c-112 -73 -156 -109 -175 -143 -30 -56 -10 -56 48 -1 28 28
77 70 107 93 84 65 98 102 20 51z"/>
</g>
</svg>
