<svg version="1.0" xmlns="http://www.w3.org/2000/svg"
 width="45.000000pt" height="105.000000pt" viewBox="0 0 45.000000 105.000000"
 preserveAspectRatio="xMidYMid meet">
<metadata>
Created by potrace 1.15, written by Peter Selinger 2001-2017
</metadata>
<g transform="translate(0.000000,105.000000) scale(0.100000,-0.100000)"
fill="#000000" stroke="none">
<path d="M189 838 c-1 -2 -3 -16 -5 -31 -1 -16 -10 -39 -18 -52 -61 -93 -68
-128 -36 -165 27 -31 25 -56 -10 -133 -35 -78 -37 -98 -11 -152 35 -73 61
-147 61 -177 0 -26 19 -58 34 -58 3 0 6 15 6 33 0 28 -8 61 -40 172 -29 99
-29 102 0 162 16 32 29 52 29 46 1 -7 4 -13 9 -13 15 0 0 114 -19 139 -16 22
-17 32 -8 66 12 42 26 65 40 65 4 0 25 -18 45 -40 36 -39 64 -51 64 -29 0 7
-8 19 -17 28 -18 16 -35 42 -61 94 -14 29 -57 59 -63 45z"/>
<path d="M250 585 c0 -28 20 -75 32 -75 4 0 8 -5 8 -11 0 -22 42 -71 52 -61
12 12 -27 138 -48 159 -21 22 -44 15 -44 -12z"/>
<path d="M210 426 c0 -39 49 -136 66 -129 25 10 13 64 -29 126 -23 33 -37 35
-37 3z"/>
</g>
</svg>
