<svg version="1.0" xmlns="http://www.w3.org/2000/svg"
 width="105.000000pt" height="135.000000pt" viewBox="0 0 105.000000 135.000000"
 preserveAspectRatio="xMidYMid meet">
<metadata>
Created by potrace 1.15, written by Peter Selinger 2001-2017
</metadata>
<g transform="translate(0.000000,135.000000) scale(0.100000,-0.100000)"
fill="#000000" stroke="none">
<path d="M588 1218 c-2 -40 -7 -73 -13 -74 -39 -3 -105 -18 -105 -23 0 -12 68
-30 91 -24 20 6 20 3 14 -53 -4 -32 -9 -61 -11 -63 -4 -4 -68 -16 -134 -25
-14 -2 -28 -4 -32 -5 -16 -2 -7 -19 12 -24 11 -3 20 -13 20 -24 1 -37 59 -193
72 -193 5 0 8 -6 8 -14 0 -8 22 -38 50 -67 51 -54 57 -67 41 -97 -5 -9 -15
-32 -21 -49 -16 -43 -31 -41 -60 8 -61 100 -84 105 -55 13 12 -37 30 -68 51
-88 41 -37 42 -58 7 -108 -26 -38 -26 -40 -10 -74 10 -19 17 -54 18 -77 1 -52
13 -95 21 -81 22 34 42 121 47 199 6 82 8 90 26 88 11 -2 48 -6 83 -9 62 -7
62 -7 63 -73 0 -51 8 -83 32 -140 18 -41 36 -74 40 -73 12 3 12 233 0 240 -5
4 -12 18 -16 30 -4 18 4 34 36 68 23 24 45 57 49 72 3 15 10 37 13 50 6 18 4
22 -14 22 -13 0 -21 -6 -21 -17 0 -22 -67 -96 -79 -89 -5 4 -17 30 -26 60 -17
54 -17 54 6 87 13 19 26 36 29 39 17 16 90 218 90 248 0 9 9 28 19 41 27 35
10 47 -82 56 -77 7 -77 7 -71 58 8 74 9 75 51 79 50 4 49 20 -2 33 -47 11 -57
22 -50 53 7 30 -22 92 -40 86 -8 -4 -16 -31 -20 -70 -6 -54 -10 -64 -26 -64
-11 0 -22 0 -26 0 -5 0 -10 30 -13 67 -5 65 -6 68 -32 71 -27 3 -27 3 -30 -70z
m134 -171 c5 -63 -5 -76 -54 -70 -36 5 -37 7 -34 37 9 65 18 85 39 88 38 6 45
-2 49 -55z m-117 -168 c4 -27 5 -53 2 -56 -4 -3 -25 -8 -49 -10 -43 -5 -43 -5
-57 41 -7 26 -12 48 -10 50 18 15 49 25 76 26 30 0 31 -2 38 -51z m105 -4 c0
-51 -2 -55 -24 -55 -30 0 -38 27 -23 75 7 23 16 35 29 35 15 0 18 -8 18 -55z
m146 13 c-8 -51 -12 -56 -54 -64 -32 -6 -32 -6 -32 35 0 52 15 70 59 71 34 0
34 0 27 -42z m-39 -132 c3 -2 2 -13 -1 -24 -6 -17 -20 -21 -109 -29 -56 -4
-112 -6 -125 -4 -30 5 -52 48 -31 62 14 8 257 4 266 -5z m-47 -107 c0 -34 -87
-52 -122 -25 -27 20 -22 24 25 29 84 7 97 7 97 -4z m-33 -126 c6 -16 14 -47
17 -71 6 -43 6 -43 -61 -40 -68 3 -68 3 -65 38 3 50 21 80 48 80 13 0 26 5 29
10 10 17 20 11 32 -17z"/>
<path d="M142 1233 c-24 -82 -37 -536 -21 -768 12 -185 25 -304 32 -312 4 -3
13 0 22 7 11 9 15 34 15 104 0 101 5 112 83 169 57 43 50 58 -22 51 -59 -7
-59 -7 -65 57 -11 103 0 128 82 190 28 22 52 44 52 49 0 6 -29 10 -64 10 -63
0 -63 0 -70 66 -8 77 5 104 78 169 25 22 46 43 46 47 0 4 -27 5 -60 1 -60 -6
-60 -6 -60 37 0 50 -21 160 -30 160 -4 0 -12 -17 -18 -37z"/>
</g>
</svg>
