<svg version="1.0" xmlns="http://www.w3.org/2000/svg"
 width="143.000000pt" height="235.000000pt" viewBox="0 0 143.000000 235.000000"
 preserveAspectRatio="xMidYMid meet">
<metadata>
Created by potrace 1.15, written by Peter Selinger 2001-2017
</metadata>
<g transform="translate(0.000000,235.000000) scale(0.100000,-0.100000)"
fill="#000000" stroke="none">
<path d="M935 2240 c-33 -4 -116 -8 -185 -9 -159 -1 -280 -19 -280 -41 0 -34
21 -40 111 -33 88 6 88 6 91 -98 3 -93 -1 -133 -17 -206 -5 -22 -10 -23 -97
-23 -88 0 -198 -17 -198 -31 0 -3 17 -18 39 -33 28 -20 45 -25 64 -21 31 8 33
1 42 -125 15 -221 47 -382 99 -495 51 -109 50 -98 6 -190 -22 -46 -40 -88 -40
-94 0 -6 -4 -11 -10 -11 -5 0 -10 13 -10 28 0 27 -57 118 -67 108 -26 -26 10
-256 40 -256 5 0 6 -17 2 -38 -12 -70 -13 -197 -3 -322 5 -69 10 -133 10 -142
-1 -10 3 -18 8 -18 9 0 30 110 30 159 0 17 9 57 20 88 13 39 20 83 20 135 0
79 6 90 38 69 16 -10 94 7 104 23 9 14 2 20 -48 35 -23 8 -54 23 -69 35 -28
22 -28 22 -10 82 9 32 24 71 33 87 18 31 48 36 56 10 8 -25 81 -103 96 -103
12 0 82 69 100 98 9 15 13 13 37 -14 65 -72 103 -139 103 -178 0 -37 -39 -52
-100 -38 -98 23 -100 23 -100 9 0 -17 45 -57 64 -57 8 0 18 -5 21 -11 4 -6 33
-9 69 -8 61 3 61 3 64 -42 5 -84 33 -180 83 -282 11 -22 19 -45 19 -53 0 -24
18 -15 25 13 7 30 1 105 -21 271 -15 108 -15 115 5 180 21 68 27 113 35 235 5
80 1 97 -25 97 -16 0 -19 -7 -19 -44 0 -56 -27 -166 -46 -186 -13 -13 -16 -13
-24 0 -38 61 -108 147 -126 154 -17 7 -12 37 13 65 8 10 26 44 40 77 34 80 37
88 64 174 13 41 35 102 50 135 38 84 49 122 49 167 0 45 18 128 31 142 5 6 9
20 9 33 0 34 34 63 75 63 39 0 85 25 85 45 0 24 -57 38 -128 31 -201 -21 -180
-22 -193 10 -6 16 -16 47 -21 69 -22 95 -30 132 -35 166 -5 37 -5 37 80 40 73
3 89 7 106 26 12 12 18 29 15 37 -5 13 -25 16 -113 15 -58 -1 -133 -5 -166 -9z
m-19 -88 c13 -8 57 -179 50 -191 -3 -4 1 -17 9 -27 8 -10 15 -31 15 -45 0 -26
0 -26 -115 -33 -64 -4 -123 -10 -132 -13 -13 -5 -15 -3 -8 13 4 10 9 71 11
134 5 160 4 158 62 163 89 7 97 7 108 -1z m-2 -421 c-3 -31 -10 -78 -15 -104
-5 -26 -9 -61 -9 -76 0 -23 -5 -30 -27 -34 -15 -3 -37 -1 -50 4 -22 8 -23 13
-23 127 0 135 1 136 85 138 45 1 45 1 39 -55z m212 11 c-3 -26 -10 -67 -15
-92 -6 -25 -14 -63 -18 -85 -8 -39 -8 -39 -58 -39 -50 1 -50 1 -46 60 2 32 7
67 12 76 5 9 9 35 9 57 0 64 5 70 67 70 55 0 55 0 49 -47z m-415 16 c5 -67 -5
-215 -14 -225 -7 -7 -33 -14 -58 -17 -47 -5 -47 -5 -53 47 -9 80 -10 182 -2
195 10 17 126 16 127 0z m349 -328 c0 -6 -13 -46 -38 -120 -19 -55 -19 -55
-153 -62 -74 -4 -157 -5 -185 -2 -51 6 -51 6 -68 80 -21 96 -20 102 7 106 37
5 437 3 437 -2z m-100 -260 c9 -6 11 -13 5 -17 -5 -5 -25 -37 -44 -73 -19 -35
-40 -70 -47 -78 -8 -7 -14 -17 -14 -21 0 -4 -11 -21 -25 -37 -24 -28 -24 -28
-52 -2 -15 15 -39 49 -53 75 -13 26 -27 50 -30 53 -13 13 -30 52 -30 70 0 23
18 29 110 33 140 7 166 6 180 -3z"/>
<path d="M235 2178 c-44 -16 -95 -35 -112 -41 -18 -7 -34 -16 -36 -22 -2 -5 0
-59 4 -120 5 -60 13 -186 19 -280 6 -93 15 -206 20 -250 15 -129 22 -380 25
-850 2 -435 7 -519 28 -512 26 8 32 94 43 582 5 231 7 244 36 340 38 126 45
140 74 156 40 21 26 44 -26 43 -25 0 -53 -4 -62 -8 -26 -12 -38 30 -38 133 0
69 5 97 21 132 36 73 76 125 109 139 19 8 30 20 30 32 0 22 -1 22 -142 1 -38
-5 -38 -5 -39 98 0 57 -2 121 -3 142 -2 26 4 49 18 70 12 18 32 52 45 77 13
25 36 59 51 75 32 35 60 76 60 87 0 15 -45 6 -125 -24z"/>
<path d="M1415 2140 c3 -5 8 -10 11 -10 2 0 4 5 4 10 0 6 -5 10 -11 10 -5 0
-7 -4 -4 -10z"/>
</g>
</svg>
