<svg version="1.0" xmlns="http://www.w3.org/2000/svg"
 width="55.000000pt" height="87.000000pt" viewBox="0 0 55.000000 87.000000"
 preserveAspectRatio="xMidYMid meet">
<metadata>
Created by potrace 1.15, written by Peter Selinger 2001-2017
</metadata>
<g transform="translate(0.000000,87.000000) scale(0.100000,-0.100000)"
fill="#000000" stroke="none">
<path d="M150 668 c0 -9 14 -21 30 -28 30 -12 80 -63 80 -81 0 -5 -29 -9 -65
-9 -36 0 -65 -3 -65 -6 0 -12 34 -33 53 -34 28 0 20 -27 -16 -54 -19 -15 -37
-26 -41 -26 -13 0 -31 -24 -43 -58 -11 -31 -11 -238 -1 -302 9 -52 23 -22 26
54 2 67 6 82 25 98 12 11 32 28 45 39 34 29 17 44 -22 19 -39 -24 -46 -25 -46
-6 0 7 16 21 35 30 19 9 37 21 40 26 3 6 10 10 14 10 8 0 31 -103 31 -141 0
-31 21 -77 38 -84 19 -7 49 11 64 38 7 13 14 77 16 157 2 74 7 139 12 143 8 9
62 -55 73 -86 6 -17 5 -17 -15 -2 -43 29 -63 15 -30 -21 54 -58 66 -108 23
-97 -26 7 -26 -3 -1 -45 14 -23 20 -50 20 -92 0 -33 4 -60 9 -60 20 0 36 89
36 206 0 101 -3 123 -17 138 -10 10 -18 21 -18 25 0 13 -33 47 -52 54 -30 11
-22 37 12 37 38 0 39 18 3 26 -44 9 -53 13 -53 21 0 18 60 73 79 73 28 0 27
28 -1 35 -13 2 -50 4 -83 3 -33 -1 -90 2 -127 7 -58 7 -68 5 -68 -7z m183 -44
c9 -9 -15 -54 -29 -54 -16 0 -45 40 -38 52 6 9 58 11 67 2z m-8 -136 c-4 -13
-9 -86 -12 -163 -5 -128 -12 -165 -33 -165 -16 0 -46 304 -33 337 3 8 22 13
45 13 37 0 40 -2 33 -22z m-115 -82 c0 -18 -8 -27 -32 -35 -43 -15 -48 -5 -13
29 37 36 45 37 45 6z"/>
</g>
</svg>
