<svg version="1.0" xmlns="http://www.w3.org/2000/svg"
 width="91.000000pt" height="153.000000pt" viewBox="0 0 91.000000 153.000000"
 preserveAspectRatio="xMidYMid meet">
<metadata>
Created by potrace 1.15, written by Peter Selinger 2001-2017
</metadata>
<g transform="translate(0.000000,153.000000) scale(0.100000,-0.100000)"
fill="#000000" stroke="none">
<path d="M536 1451 c-18 -28 80 -155 129 -167 48 -12 30 31 -44 106 -73 73
-76 76 -85 61z"/>
<path d="M410 1434 c0 -5 -30 -41 -67 -79 -61 -64 -65 -70 -45 -78 15 -7 26
-4 43 12 13 11 27 21 32 21 13 0 77 66 77 79 0 7 -9 21 -20 33 -11 12 -20 17
-20 12z"/>
<path d="M80 1335 c-6 -8 -9 -27 -6 -42 15 -74 44 -515 47 -710 0 -57 5 -85
15 -94 8 -6 14 -10 15 -8 0 2 2 13 5 24 2 11 7 52 10 90 4 39 18 94 30 124 30
67 30 69 -3 73 -27 3 -28 5 -26 56 1 33 9 66 22 88 27 46 27 50 -9 58 -29 5
-30 8 -30 58 0 35 7 64 20 86 28 46 27 90 -2 94 -19 2 -24 10 -26 47 -4 58
-36 87 -62 56z"/>
<path d="M270 1182 c0 -12 46 -32 76 -32 29 0 44 -31 44 -93 0 -40 -2 -43 -46
-61 -72 -30 -114 -88 -86 -121 4 -6 14 -28 21 -49 17 -49 80 -149 124 -197 32
-36 68 -46 138 -40 24 2 68 50 95 104 14 26 31 50 38 53 24 9 49 92 44 143 -6
58 -37 97 -85 106 -36 6 -36 6 -30 56 7 54 24 79 55 79 11 0 26 7 33 16 11 14
10 18 -5 29 -21 16 -416 22 -416 7z m273 -51 c5 -5 6 -35 3 -65 -7 -56 -7 -56
-52 -56 -44 0 -44 0 -44 58 0 33 5 63 13 71 13 13 64 8 80 -8z m-19 -167 c12
-4 14 -17 10 -57 -9 -93 -12 -99 -42 -95 -22 2 -27 8 -28 33 -1 17 -3 41 -4
55 -5 57 -1 70 24 70 13 0 31 -3 40 -6z m-122 -65 c9 -72 3 -89 -31 -89 -24 0
-31 6 -45 43 -9 23 -16 48 -16 55 0 14 60 53 75 49 6 -2 13 -28 17 -58z m253
14 c2 -8 2 -34 -2 -58 -6 -45 -6 -45 -46 -45 -39 0 -39 0 -34 53 9 81 13 87
47 74 16 -6 32 -17 35 -24z m-45 -172 c0 -5 -15 -31 -32 -57 -27 -40 -39 -50
-67 -52 -29 -3 -39 3 -77 44 -66 70 -63 74 66 74 61 0 110 -4 110 -9z"/>
<path d="M745 470 c0 -49 -5 -84 -12 -91 -10 -10 -14 -8 -19 7 -20 63 -29 76
-62 89 -19 8 -36 15 -38 15 -10 0 -2 -35 15 -71 11 -22 22 -53 26 -68 6 -26 4
-28 -19 -24 -15 3 -26 9 -26 14 0 5 -5 9 -11 9 -6 0 -24 9 -41 21 -34 25 -41
21 -32 -15 8 -34 75 -80 128 -88 22 -3 74 -82 75 -114 2 -56 41 -29 41 29 0
22 -5 55 -12 74 -10 28 -9 38 10 72 37 65 27 221 -14 221 -5 0 -9 -36 -9 -80z"/>
<path d="M222 438 c-16 -16 -15 -97 0 -148 9 -27 21 -43 40 -51 29 -12 48 -56
48 -111 0 -29 19 -78 30 -78 11 0 30 73 30 113 0 36 12 47 50 47 13 0 26 15
40 47 18 42 19 48 5 62 -14 14 -18 12 -46 -22 -17 -20 -35 -37 -41 -37 -10 0
-6 70 8 124 5 22 3 32 -11 43 -27 19 -45 16 -45 -8 0 -11 -4 -28 -10 -38 -5
-10 -10 -35 -12 -55 -4 -68 -25 -36 -34 50 -6 64 -26 88 -52 62z"/>
</g>
</svg>
