<svg version="1.0" xmlns="http://www.w3.org/2000/svg"
 width="93.000000pt" height="177.000000pt" viewBox="0 0 93.000000 177.000000"
 preserveAspectRatio="xMidYMid meet">
<metadata>
Created by potrace 1.15, written by Peter Selinger 2001-2017
</metadata>
<g transform="translate(0.000000,177.000000) scale(0.100000,-0.100000)"
fill="#000000" stroke="none">
<path d="M330 1612 c-48 -49 -120 -176 -107 -188 8 -9 54 22 90 59 43 46 96
177 71 177 -4 0 -29 -22 -54 -48z"/>
<path d="M590 1624 c0 -34 15 -60 63 -111 31 -33 48 -43 72 -43 40 0 47 7 33
34 -16 32 -142 146 -161 146 -4 0 -7 -12 -7 -26z"/>
<path d="M395 1364 c-22 -2 -68 -7 -102 -10 -35 -3 -63 -10 -63 -15 0 -22 52
-41 115 -41 57 0 65 -2 65 -18 0 -10 -6 -21 -12 -23 -10 -4 -10 -6 0 -6 8 -1
12 -24 12 -81 0 -78 -1 -80 -24 -80 -30 0 -84 -22 -119 -50 -66 -52 -75 -129
-25 -222 47 -89 84 -124 217 -210 32 -20 102 -32 135 -24 23 6 126 102 126
118 0 3 6 13 13 20 19 21 37 56 37 73 0 8 3 15 8 15 7 0 33 51 40 80 11 48
-11 118 -49 151 -10 8 -36 24 -58 35 -41 19 -41 19 -41 116 0 97 0 97 68 100
60 3 67 5 70 25 2 13 -4 26 -15 32 -20 10 -328 22 -398 15z m196 -91 c0 -10 2
-50 5 -89 5 -71 5 -71 -33 -77 -82 -14 -83 -14 -82 52 1 33 -2 65 -6 71 -4 7
-2 23 6 36 10 20 20 24 61 24 39 0 48 -3 49 -17z m-13 -249 c19 -6 22 -13 22
-60 0 -54 0 -54 -49 -54 -27 0 -56 -3 -64 -6 -13 -5 -15 4 -12 53 3 51 7 59
27 64 31 9 49 10 76 3z m144 -35 c22 -16 28 -28 26 -48 -3 -23 -8 -26 -43 -29
-40 -3 -40 -3 -37 48 2 27 8 50 14 50 5 0 23 -9 40 -21z m-312 -42 c0 -54 0
-54 -42 -52 -74 3 -76 4 -80 35 -6 40 31 65 100 69 20 1 22 -3 22 -52z m306
-111 c9 -23 -14 -54 -43 -60 -16 -3 -68 -8 -118 -11 -49 -3 -111 -8 -136 -11
-42 -5 -48 -3 -72 26 -15 17 -27 35 -27 40 0 5 26 11 58 15 31 4 62 8 67 10 6
2 68 4 138 4 102 1 129 -2 133 -13z m-77 -143 c-39 -49 -64 -66 -86 -55 -96
48 -101 58 -31 61 29 1 55 4 57 7 2 2 20 4 39 4 31 0 33 -2 21 -17z"/>
<path d="M790 595 c0 -2 9 -19 20 -37 23 -38 25 -77 8 -127 -19 -54 -48 -80
-48 -43 0 11 -9 27 -20 37 -11 10 -20 22 -20 27 0 11 -25 38 -36 38 -4 0 -4
-28 0 -62 3 -35 7 -74 9 -88 2 -23 -1 -25 -38 -24 -23 0 -56 8 -74 17 -46 23
-65 23 -50 -1 16 -26 75 -62 102 -62 13 0 38 -5 54 -11 26 -8 31 -17 36 -52
15 -97 35 -141 62 -131 16 7 17 17 12 110 -6 84 -4 106 8 118 8 8 15 17 15 20
0 2 14 27 30 54 30 48 31 50 20 118 -6 38 -16 74 -23 80 -13 12 -67 28 -67 19z"/>
<path d="M90 487 c0 -59 24 -173 44 -204 21 -32 38 -44 89 -63 27 -9 27 -10
27 -105 0 -52 3 -95 8 -95 31 1 72 86 72 150 0 47 4 55 38 88 78 75 113 152
77 166 -11 4 -21 -8 -36 -40 -19 -40 -51 -74 -70 -74 -8 0 -19 55 -23 115 -2
22 -12 43 -26 55 -13 11 -24 20 -26 20 -1 0 -3 -17 -2 -39 0 -21 -3 -70 -7
-109 -8 -77 -15 -81 -63 -37 -28 26 -64 122 -58 155 3 14 3 19 0 12 -4 -8 -11
-5 -25 10 -18 23 -18 23 -19 -5z"/>
</g>
</svg>
