<svg version="1.0" xmlns="http://www.w3.org/2000/svg"
 width="141.000000pt" height="243.000000pt" viewBox="0 0 141.000000 243.000000"
 preserveAspectRatio="xMidYMid meet">
<metadata>
Created by potrace 1.15, written by Peter Selinger 2001-2017
</metadata>
<g transform="translate(0.000000,243.000000) scale(0.100000,-0.100000)"
fill="#000000" stroke="none">
<path d="M486 2334 c-3 -9 -6 -30 -6 -48 0 -29 -5 -35 -42 -51 -43 -18 -52
-21 -75 -23 -15 -2 -83 -66 -83 -79 -1 -15 -20 -148 -26 -183 -7 -38 -56 -90
-109 -117 -98 -50 -78 -86 23 -42 152 66 162 79 162 211 0 113 17 141 94 152
49 8 49 8 43 -166 -4 -95 -10 -224 -13 -285 -7 -118 0 -146 35 -141 36 6 40
49 42 412 2 194 -1 358 -5 364 -10 17 -33 15 -40 -4z"/>
<path d="M1013 2165 c-13 -10 -18 -31 -21 -87 -4 -82 11 -130 53 -172 35 -35
48 -33 42 7 -3 17 -11 61 -17 97 -6 36 -9 86 -5 111 5 41 3 47 -14 52 -11 3
-28 -1 -38 -8z"/>
<path d="M782 2140 c-6 -11 -12 -46 -12 -78 0 -59 -22 -121 -60 -170 -20 -24
-16 -62 6 -62 8 0 14 5 14 10 0 6 7 10 15 10 24 0 83 90 91 140 19 122 -14
214 -54 150z"/>
<path d="M572 1658 c3 -28 8 -33 36 -39 39 -8 76 -48 90 -98 27 -96 31 -116
22 -125 -5 -5 -50 -8 -101 -7 -51 0 -107 -3 -123 -9 -17 -5 -43 -12 -58 -15
-27 -5 -58 -29 -58 -46 0 -5 11 -9 24 -9 54 0 84 -12 94 -39 12 -29 28 -105
37 -170 10 -73 57 -203 93 -258 35 -53 87 -93 122 -93 10 0 22 -4 25 -10 11
-18 97 -11 144 12 54 25 111 67 111 80 0 5 9 27 19 49 29 59 42 137 56 319 3
41 13 92 22 113 15 36 18 37 65 37 27 0 65 7 85 15 34 14 36 17 20 32 -13 13
-33 16 -109 13 -51 -2 -120 -4 -152 -4 -59 -1 -59 -1 -62 54 -5 82 30 170 66
170 33 0 50 12 50 36 0 23 0 23 -261 24 -260 0 -260 0 -257 -32z m356 -55 c-3
-27 -4 -27 -78 -28 -76 -1 -110 12 -110 42 0 10 22 13 96 13 95 0 95 0 92 -27z
m-18 -136 c0 -54 0 -54 -56 -66 -30 -7 -57 -11 -59 -9 -3 3 -8 90 -6 116 1 8
20 12 61 12 60 0 60 0 60 -53z m155 -135 c-4 -9 -10 -41 -13 -69 -4 -53 -4
-53 -56 -54 -28 -1 -69 -3 -91 -5 -22 -2 -101 -6 -176 -10 -136 -6 -136 -6
-143 26 -3 18 -6 45 -6 60 0 27 3 28 75 39 42 6 97 11 123 12 26 0 67 4 92 7
25 4 80 8 124 10 71 2 77 0 71 -16z m-29 -229 c-3 -21 -6 -46 -6 -55 0 -16
-14 -18 -159 -18 -88 0 -162 -4 -165 -9 -3 -4 -21 -3 -40 3 -27 8 -36 18 -46
49 -6 21 -9 41 -7 44 3 2 92 8 198 12 107 4 202 9 213 9 16 2 18 -3 12 -35z
m-26 -153 c0 -19 -41 -92 -64 -115 -39 -39 -138 -49 -200 -20 -31 15 -58 50
-83 108 -12 27 -12 27 153 26 91 0 168 2 172 5 9 10 22 7 22 -4z"/>
<path d="M286 1171 c-9 -16 -16 -37 -16 -47 0 -11 -5 -14 -17 -9 -60 24 -77
13 -66 -45 9 -50 49 -135 78 -164 24 -24 25 -30 25 -157 0 -131 0 -131 -27
-113 -15 9 -36 26 -47 36 -11 10 -26 18 -33 18 -7 0 -13 5 -13 10 0 16 -30 12
-36 -5 -9 -22 15 -115 42 -160 23 -40 72 -94 109 -119 15 -11 20 -28 23 -85 4
-68 3 -71 -18 -71 -36 0 -89 30 -107 61 -19 32 -53 39 -53 12 1 -33 25 -109
43 -136 9 -14 17 -30 17 -33 0 -4 16 -22 35 -40 31 -28 97 -54 139 -54 26 0
31 46 24 207 -34 792 -38 863 -52 892 -16 36 -33 36 -50 2z"/>
<path d="M1324 829 c-3 -6 -8 -36 -9 -68 -2 -41 -11 -69 -32 -103 -31 -52 -40
-57 -50 -31 -12 32 -63 80 -109 104 -38 19 -47 21 -54 8 -7 -10 0 -24 24 -49
38 -39 69 -91 79 -132 10 -37 -15 -49 -112 -52 -107 -3 -126 -17 -70 -50 26
-16 43 -17 115 -11 94 8 84 15 89 -75 6 -100 17 -140 46 -165 39 -33 47 -32
64 8 14 33 10 96 -14 237 -7 43 -6 61 6 85 9 17 19 32 22 35 38 28 69 222 41
255 -15 18 -26 19 -36 4z"/>
<path d="M474 705 c-10 -24 1 -116 17 -150 8 -18 32 -39 58 -52 64 -33 66 -36
51 -85 -7 -24 -17 -47 -22 -53 -4 -5 -8 -17 -8 -28 0 -20 -70 -128 -107 -165
-43 -43 -25 -50 71 -26 36 9 76 42 76 64 0 9 4 20 8 26 5 5 18 41 31 79 12 39
27 78 32 87 5 10 9 24 9 32 0 7 12 16 28 19 73 15 89 20 120 35 17 9 32 24 32
34 0 15 -8 16 -69 11 -41 -3 -71 -2 -74 4 -4 6 -2 35 3 66 11 68 1 112 -25
112 -16 0 -23 -14 -38 -70 -10 -38 -20 -71 -22 -73 -2 -3 -16 -1 -30 2 -35 9
-73 48 -80 83 -3 15 -10 35 -14 43 -11 21 -40 24 -47 5z"/>
</g>
</svg>
