<svg version="1.0" xmlns="http://www.w3.org/2000/svg"
 width="105.000000pt" height="183.000000pt" viewBox="0 0 105.000000 183.000000"
 preserveAspectRatio="xMidYMid meet">
<metadata>
Created by potrace 1.15, written by Peter Selinger 2001-2017
</metadata>
<g transform="translate(0.000000,183.000000) scale(0.100000,-0.100000)"
fill="#000000" stroke="none">
<path d="M725 1650 c3 -16 15 -47 26 -69 10 -22 19 -48 19 -58 0 -27 25 -58
65 -83 58 -36 71 -10 32 62 -72 134 -105 178 -134 178 -11 0 -13 -8 -8 -30z"/>
<path d="M578 1605 c-16 -13 -28 -28 -28 -32 0 -4 -13 -22 -29 -39 -35 -37
-51 -94 -26 -94 40 0 155 128 155 174 0 24 -40 19 -72 -9z"/>
<path d="M89 1513 c-1 -54 0 -188 2 -298 2 -110 3 -300 3 -422 -2 -205 0 -222
16 -226 29 -7 40 13 40 71 0 78 19 143 51 177 33 35 39 82 12 92 -34 13 -40
28 -37 92 2 53 8 71 33 107 17 23 31 47 31 53 0 5 -12 22 -27 36 -24 22 -28
33 -29 88 -2 78 1 83 37 91 42 8 38 38 -11 70 -30 19 -42 36 -50 68 -23 89
-25 93 -48 96 -21 3 -22 1 -23 -95z"/>
<path d="M452 1353 c-14 -3 -22 -11 -20 -20 3 -16 69 -43 107 -43 23 0 23 0
16 -97 -7 -89 -9 -98 -36 -120 -31 -26 -77 -113 -81 -153 -6 -62 31 -210 61
-247 40 -48 91 -73 150 -73 31 0 67 6 81 13 35 17 137 142 143 175 29 157 29
150 2 200 -14 26 -40 62 -56 80 -27 29 -30 38 -25 70 4 20 9 56 12 80 5 38 9
42 33 42 15 0 36 7 47 15 19 15 19 15 0 30 -11 8 -36 17 -55 20 -20 4 -56 10
-81 15 -54 11 -265 20 -298 13z m265 -73 c10 0 12 -6 8 -22 -12 -37 -21 -41
-59 -23 -53 25 -47 62 8 51 16 -3 35 -6 43 -6z m-4 -148 c28 -24 22 -46 -10
-37 -16 3 -43 9 -60 12 -37 6 -37 7 -23 33 8 15 17 18 43 13 17 -3 40 -13 50
-21z m-13 -102 c48 0 110 -52 110 -94 0 -31 -17 -33 -100 -11 -30 8 -85 15
-122 15 -37 0 -69 4 -72 9 -3 5 5 24 17 42 17 26 32 35 62 40 22 3 46 4 53 3
8 -2 31 -4 52 -4z m-107 -165 c43 -8 110 -15 148 -15 38 0 69 -4 69 -8 0 -5
-9 -27 -20 -50 -21 -42 -21 -42 -83 -37 -34 4 -70 8 -79 11 -35 10 -83 20
-110 23 -7 1 -12 91 -5 91 1 0 37 -7 80 -15z m100 -161 c38 -6 47 -20 25 -42
-14 -14 -90 -16 -103 -3 -6 5 -21 11 -34 13 -14 2 -27 13 -33 27 -8 23 -8 23
49 17 32 -4 75 -9 96 -12z"/>
<path d="M407 546 c-2 -6 3 -46 11 -89 8 -42 12 -80 9 -83 -18 -18 -77 80 -77
127 0 16 -33 39 -56 39 -9 0 -4 -49 6 -55 6 -3 10 -17 10 -30 0 -13 5 -27 10
-30 6 -3 10 -17 10 -31 0 -13 3 -24 8 -24 4 0 12 -10 17 -22 6 -13 24 -29 42
-37 29 -13 31 -17 28 -55 -2 -23 -10 -66 -19 -96 -21 -73 -20 -92 2 -88 12 2
27 34 53 113 31 92 42 113 69 131 18 12 38 34 46 49 18 35 19 141 2 147 -27
10 -38 -4 -38 -51 0 -26 -6 -56 -14 -67 -17 -22 -16 -24 -44 81 -16 59 -23 70
-45 76 -16 4 -27 3 -30 -5z"/>
<path d="M755 486 c1 -36 -1 -66 -5 -66 -17 0 -40 32 -40 56 0 33 -24 56 -52
52 -26 -3 -27 -27 -3 -93 15 -39 68 -85 98 -85 7 0 19 -21 26 -47 29 -102 116
-233 154 -233 9 0 17 2 17 5 0 8 -23 47 -36 61 -6 7 -23 43 -39 81 -15 37 -31
76 -36 85 -5 10 -9 27 -9 37 0 11 -4 23 -10 26 -5 3 -10 11 -10 18 0 8 3 8 12
-1 22 -22 43 -13 71 31 31 47 42 80 33 102 -7 20 -36 19 -36 0 0 -27 -53 -105
-71 -105 -5 0 -9 30 -11 68 -3 64 -4 67 -30 70 -27 3 -27 3 -23 -62z"/>
</g>
</svg>
