<svg version="1.0" xmlns="http://www.w3.org/2000/svg"
 width="115.000000pt" height="199.000000pt" viewBox="0 0 115.000000 199.000000"
 preserveAspectRatio="xMidYMid meet">
<metadata>
Created by potrace 1.15, written by Peter Selinger 2001-2017
</metadata>
<g transform="translate(0.000000,199.000000) scale(0.100000,-0.100000)"
fill="#000000" stroke="none">
<path d="M539 1779 c-16 -9 -14 -11 28 -33 33 -16 132 -22 192 -10 38 8 40 31
5 45 -31 11 -205 11 -225 -2z"/>
<path d="M82 1688 c-7 -35 -12 -133 -11 -218 0 -85 -2 -310 -5 -500 -5 -357
-2 -425 24 -425 22 0 39 60 39 140 1 68 2 72 41 113 36 37 53 82 33 82 -5 0
-23 14 -42 30 -33 30 -34 30 -27 92 7 59 39 128 59 128 11 0 37 26 37 37 0 4
-13 19 -30 33 -28 23 -29 30 -31 103 -2 77 -2 77 40 119 50 51 56 88 13 88
-55 0 -69 21 -74 113 -9 137 -45 173 -66 65z"/>
<path d="M325 1637 c-16 -13 -17 -16 -5 -20 8 -2 31 -9 51 -16 19 -6 56 -11
82 -11 25 0 56 -4 70 -9 23 -9 23 -11 16 -75 -5 -36 -8 -99 -7 -139 2 -82 -3
-97 -36 -97 -37 0 -88 -42 -117 -95 -21 -39 -27 -64 -28 -115 -1 -168 70 -322
171 -371 88 -43 229 -55 318 -28 48 14 116 74 138 122 41 91 53 141 53 224 1
92 -15 163 -44 193 -24 27 -118 70 -152 70 -13 0 -29 8 -34 18 -15 29 3 255
23 271 6 5 37 11 69 13 66 5 92 22 65 42 -12 9 -78 15 -205 19 -104 4 -237 10
-298 13 -90 5 -114 3 -130 -9z m395 -114 c3 -28 4 -56 2 -62 -4 -12 -81 -15
-99 -3 -9 5 -9 20 -1 57 12 57 21 66 63 63 28 -3 30 -6 35 -55z m-2 -165 c7
-7 12 -25 12 -40 0 -28 0 -28 -66 -28 -64 0 -66 1 -60 23 3 12 6 27 6 34 0 22
88 31 108 11z m12 -207 c0 -25 3 -56 6 -68 6 -22 4 -23 -59 -23 -62 0 -65 1
-73 28 -7 24 -8 50 -5 89 1 15 25 21 84 20 47 0 47 0 47 -46z m-203 -16 c-3
-30 -8 -59 -12 -65 -10 -16 -75 -12 -82 6 -12 31 46 114 80 114 18 0 19 -5 14
-55z m352 36 c44 -23 71 -59 71 -96 0 -24 -2 -25 -69 -25 -68 0 -68 0 -75 39
-8 50 3 101 21 101 7 0 31 -9 52 -19z m65 -191 c12 -12 9 -81 -4 -94 -6 -6
-39 -10 -73 -10 -34 1 -136 2 -226 3 -106 0 -168 5 -177 12 -18 14 -18 73 -1
87 23 20 462 21 481 2z m-56 -176 c18 -5 15 -32 -7 -51 -51 -43 -182 -59 -274
-34 -52 15 -124 73 -97 78 74 16 335 21 378 7z"/>
<path d="M870 455 c0 -126 -2 -130 -59 -100 -29 15 -41 33 -41 65 0 10 -17 34
-37 54 -36 35 -38 35 -45 15 -16 -42 11 -128 49 -159 20 -17 63 -35 106 -44
18 -4 32 -16 39 -34 25 -64 34 -79 66 -109 19 -18 36 -33 37 -33 12 0 12 36 1
58 -7 15 -16 46 -20 70 -6 40 -5 42 18 42 36 0 64 29 86 90 24 66 26 126 4
147 -20 21 -31 6 -40 -55 -3 -23 -10 -45 -15 -48 -5 -3 -9 -12 -9 -20 0 -14
-38 -64 -49 -64 -11 0 -31 79 -31 121 0 40 -34 119 -52 119 -4 0 -8 -52 -8
-115z"/>
<path d="M161 513 c-15 -53 -14 -68 9 -113 22 -43 81 -87 130 -97 33 -6 36
-18 31 -115 -2 -25 3 -57 10 -69 13 -25 34 -49 43 -49 11 0 26 79 26 142 0 75
6 98 26 98 25 0 89 41 122 78 29 32 33 42 30 87 -2 36 -7 51 -19 53 -9 2 -19
-5 -22 -15 -8 -24 -40 -77 -49 -81 -5 -2 -8 -10 -8 -18 0 -11 -47 -44 -63 -44
-3 0 -6 33 -9 73 -2 55 -8 78 -22 92 -18 18 -19 18 -32 0 -8 -10 -14 -31 -14
-46 0 -14 -3 -47 -6 -73 -7 -50 -20 -57 -68 -35 -24 11 -56 62 -56 89 0 19
-31 80 -41 80 -4 0 -13 -17 -18 -37z"/>
</g>
</svg>
