<svg version="1.0" xmlns="http://www.w3.org/2000/svg"
 width="93.000000pt" height="173.000000pt" viewBox="0 0 93.000000 173.000000"
 preserveAspectRatio="xMidYMid meet">
<metadata>
Created by potrace 1.15, written by Peter Selinger 2001-2017
</metadata>
<g transform="translate(0.000000,173.000000) scale(0.100000,-0.100000)"
fill="#000000" stroke="none">
<path d="M122 1553 c-10 -19 -20 -166 -26 -400 -3 -81 -14 -231 -25 -333 -33
-305 -38 -378 -40 -530 -1 -132 7 -186 25 -168 8 9 33 214 34 276 0 50 40 115
121 198 39 40 15 45 -39 8 -30 -20 -56 -34 -58 -31 -3 3 -1 43 4 90 11 96 41
156 77 149 16 -3 18 -1 8 9 -10 10 -7 18 17 39 26 23 28 29 16 39 -11 10 -23
8 -55 -8 -49 -26 -55 -26 -46 -3 3 9 11 76 16 147 11 148 15 154 94 183 96 34
103 55 18 52 -102 -4 -93 -18 -93 138 0 94 -4 142 -12 150 -16 16 -26 15 -36
-5z"/>
<path d="M290 1423 c0 -14 40 -28 118 -43 72 -15 70 -8 41 -141 -11 -52 -23
-112 -27 -134 -8 -40 -8 -40 -57 -40 -103 -1 -145 -5 -145 -15 0 -13 54 -40
82 -40 26 0 31 -18 58 -185 16 -95 31 -154 41 -161 15 -9 10 -81 -5 -94 -13
-10 -18 -2 -31 47 -9 32 -20 66 -25 75 -6 10 -10 26 -10 37 0 10 -7 24 -16 32
-24 20 -35 -7 -19 -50 7 -20 18 -61 25 -91 7 -30 18 -64 23 -75 6 -11 13 -27
17 -35 4 -8 0 -35 -7 -60 -21 -68 -63 -290 -63 -333 0 -76 30 -31 73 108 9 28
23 68 31 90 8 22 15 57 16 78 0 43 5 44 75 19 57 -20 164 -22 209 -3 16 6 30
10 32 8 2 -2 6 -37 9 -78 3 -41 12 -99 19 -129 8 -30 19 -85 27 -122 7 -38 16
-68 20 -68 15 0 20 41 18 157 -2 115 -6 151 -29 242 -11 43 -6 68 30 156 16
38 41 177 34 184 -8 8 -34 -29 -41 -59 -3 -14 -14 -43 -23 -65 -10 -22 -20
-48 -24 -58 -5 -16 -7 -16 -26 3 -18 18 -19 23 -7 48 19 36 28 74 37 152 4 36
13 93 20 128 12 62 12 62 62 62 42 0 49 3 46 17 -4 20 -42 30 -163 41 -80 7
-80 7 -83 142 -3 165 -1 180 36 180 82 0 131 26 85 45 -47 19 -483 44 -483 28z
m298 -59 c19 -6 22 -13 22 -63 0 -31 -5 -100 -12 -153 -12 -98 -12 -98 -70
-98 -55 0 -58 1 -58 24 0 14 4 27 9 30 5 3 11 32 15 63 8 85 22 166 31 186 7
18 25 21 63 11z m-99 -378 c6 -7 9 -28 7 -47 -2 -19 -4 -51 -5 -71 -1 -35 -3
-38 -31 -38 -38 0 -50 27 -50 111 0 59 0 59 34 59 18 0 39 -6 45 -14z m101
-62 c0 -36 5 -75 11 -86 10 -19 9 -20 -12 -15 -13 4 -30 7 -38 7 -11 0 -12 14
-6 67 8 80 13 93 31 93 11 0 14 -16 14 -66z m126 46 c23 0 23 -2 18 -57 -8
-100 -11 -105 -47 -101 -32 3 -32 3 -35 72 -3 80 2 100 24 92 9 -3 26 -6 40
-6z m-14 -208 c4 -4 3 -23 -1 -42 -7 -34 -8 -35 -51 -34 -25 1 -79 2 -121 3
-77 1 -77 1 -81 42 -2 22 -2 41 0 43 6 6 247 -5 254 -12z m-35 -136 c9 -8 -54
-66 -72 -66 -28 0 -80 27 -105 55 -25 28 -25 28 73 23 54 -3 100 -8 104 -12z
m-188 -80 c48 -41 134 -46 181 -11 37 27 45 24 55 -16 5 -21 1 -31 -21 -48
-44 -35 -200 -25 -245 16 -14 12 -15 19 -6 44 13 33 15 34 36 15z"/>
<path d="M435 310 c3 -5 8 -10 11 -10 2 0 4 5 4 10 0 6 -5 10 -11 10 -5 0 -7
-4 -4 -10z"/>
</g>
</svg>
