<svg version="1.0" xmlns="http://www.w3.org/2000/svg"
 width="97.000000pt" height="173.000000pt" viewBox="0 0 97.000000 173.000000"
 preserveAspectRatio="xMidYMid meet">
<metadata>
Created by potrace 1.15, written by Peter Selinger 2001-2017
</metadata>
<g transform="translate(0.000000,173.000000) scale(0.100000,-0.100000)"
fill="#000000" stroke="none">
<path d="M557 1528 c-3 -13 -9 -87 -13 -165 -7 -143 -7 -143 -68 -143 -34 0
-78 -3 -99 -6 -37 -7 -37 -7 -18 -25 10 -10 22 -37 26 -61 4 -24 10 -56 15
-73 5 -16 14 -50 20 -75 17 -67 71 -204 83 -212 10 -6 11 -127 1 -138 -9 -8
-72 71 -77 99 -3 14 -13 35 -21 46 -15 20 -15 19 -15 -5 -1 -75 41 -167 85
-191 24 -12 23 -3 10 -362 -3 -99 8 -109 33 -31 9 27 24 64 34 83 9 19 17 41
17 50 0 9 7 35 15 59 13 38 13 46 0 72 -8 16 -15 36 -15 45 0 8 -4 15 -10 15
-5 0 -10 9 -10 20 0 18 7 20 70 20 79 0 79 -1 55 -71 -19 -53 -13 -83 31 -167
18 -35 38 -86 45 -113 7 -27 16 -49 21 -49 12 0 21 47 15 78 -12 63 -35 221
-41 277 -6 60 -6 60 39 109 25 28 45 56 45 63 0 7 4 13 9 13 13 0 21 39 14 71
-6 32 -23 40 -23 11 0 -36 -90 -155 -106 -139 -7 6 -23 75 -24 98 0 14 8 26
49 75 16 20 121 229 121 243 0 21 42 95 61 109 21 15 23 21 11 40 -6 8 -40 13
-105 15 -53 1 -98 5 -100 7 -3 3 -7 66 -11 141 -9 207 -40 261 -45 79 -2 -64
-8 -71 -54 -57 -38 12 -38 12 -32 69 4 35 3 64 -4 77 -15 27 -27 27 -34 -1z
m106 -215 c16 -19 27 -86 15 -90 -5 -2 -26 -3 -48 -3 -38 0 -40 2 -40 30 0 34
26 80 45 80 6 0 19 -8 28 -17z m23 -170 c-3 -8 -6 -28 -6 -44 0 -28 -2 -29
-44 -29 -45 0 -45 0 -40 38 9 58 9 58 54 54 31 -3 40 -8 36 -19z m-148 -28
c-2 -44 -3 -45 -35 -45 -27 0 -35 5 -43 26 -20 53 -14 64 35 64 45 0 45 0 43
-45z m292 26 c0 -11 -4 -31 -10 -45 -8 -21 -16 -26 -44 -26 -37 0 -46 12 -46
61 0 28 1 29 50 29 43 0 50 -3 50 -19z m-46 -158 c-12 -52 -37 -63 -128 -58
-44 3 -83 10 -84 15 -3 7 -9 7 -18 -1 -23 -19 -61 4 -66 40 -5 31 -5 31 149
31 153 0 153 0 147 -27z m-66 -128 c2 -1 -9 -17 -23 -34 -23 -27 -33 -31 -76
-31 -45 0 -51 3 -69 33 -11 17 -20 36 -20 40 0 7 179 -1 188 -8z m-53 -157 c3
-18 7 -46 8 -63 2 -30 1 -30 -52 -33 -30 -2 -58 1 -63 6 -6 6 -5 30 2 64 12
55 12 55 56 56 41 2 43 1 49 -30z m-115 -238 c0 -5 -7 -10 -16 -10 -8 0 -12 5
-9 10 3 6 10 10 16 10 5 0 9 -4 9 -10z"/>
<path d="M146 1509 c-19 -51 -28 -129 -36 -309 -5 -113 -13 -225 -16 -249 -4
-31 -3 -41 5 -37 6 4 11 1 11 -8 0 -8 -4 -17 -8 -20 -23 -14 -9 -760 15 -836
16 -51 48 128 44 243 -2 48 -1 49 26 46 15 -2 35 1 43 6 29 18 60 68 60 96 0
15 11 41 25 57 36 43 17 55 -82 51 -58 -3 -78 -1 -77 9 1 6 2 44 2 83 2 70 2
70 37 84 41 18 83 76 91 128 4 20 10 37 15 37 5 0 9 9 9 20 0 22 -6 23 -95 24
-47 1 -59 4 -57 16 2 8 6 70 9 137 6 123 6 123 39 123 24 0 39 8 58 31 14 17
26 38 26 47 0 9 12 29 27 44 36 37 22 50 -65 63 -67 10 -67 10 -77 62 -11 55
-22 74 -29 52z m99 -170 c4 -5 1 -23 -5 -40 -10 -23 -19 -29 -41 -29 -25 0
-29 4 -29 28 0 15 5 33 12 40 15 15 55 16 63 1z m-13 -484 c-4 -24 -61 -77
-73 -69 -5 3 -9 23 -9 44 0 34 3 39 28 43 45 7 57 3 54 -18z m7 -382 c-1 -35
-15 -55 -47 -69 -32 -13 -32 -13 -32 31 0 46 7 53 53 54 20 1 27 -4 26 -16z"/>
</g>
</svg>
