<svg version="1.0" xmlns="http://www.w3.org/2000/svg"
 width="117.000000pt" height="167.000000pt" viewBox="0 0 117.000000 167.000000"
 preserveAspectRatio="xMidYMid meet">
<metadata>
Created by potrace 1.15, written by Peter Selinger 2001-2017
</metadata>
<g transform="translate(0.000000,167.000000) scale(0.100000,-0.100000)"
fill="#000000" stroke="none">
<path d="M350 1570 c0 -7 17 -33 39 -59 48 -58 57 -75 66 -128 7 -43 7 -43
-47 -44 -112 -3 -132 -9 -105 -36 12 -12 32 -16 80 -15 64 2 64 2 71 -60 10
-102 14 -96 -61 -101 -67 -4 -111 -12 -120 -21 -3 -3 6 -16 20 -30 13 -13 32
-49 41 -78 72 -243 77 -268 63 -301 -14 -32 -81 -67 -130 -67 -59 0 -95 61
-65 110 10 15 9 24 -2 45 -14 27 -14 27 -31 6 -10 -12 -20 -39 -24 -60 -10
-60 19 -111 83 -146 1 -1 -5 -16 -13 -33 -52 -104 -63 -379 -19 -492 4 -10 11
-2 21 25 10 29 14 86 14 210 0 164 11 240 33 240 6 0 13 -14 18 -32 5 -18 27
-48 54 -72 38 -33 55 -41 85 -41 22 0 39 2 39 5 0 2 -15 12 -32 21 -51 26 -92
64 -101 93 -12 42 19 95 65 109 51 16 68 15 87 -5 42 -46 142 -80 185 -63 37
14 102 76 116 110 12 30 13 30 33 13 39 -35 75 -99 74 -128 -3 -55 -118 -145
-184 -145 -7 0 -13 -5 -13 -11 0 -8 15 -9 46 -4 46 7 104 38 152 82 34 31 42
29 43 -12 1 -19 2 -56 3 -82 2 -35 15 -73 49 -140 26 -51 47 -99 47 -108 0 -8
5 -15 10 -15 28 0 1 206 -45 344 -25 76 -26 96 -2 96 7 0 19 9 27 20 8 11 20
20 27 20 20 0 35 50 30 93 -6 47 -55 97 -93 97 -27 0 -27 0 -8 -22 10 -13 22
-25 25 -28 3 -3 11 -20 17 -39 11 -31 10 -37 -13 -68 -36 -47 -64 -44 -106 11
-19 24 -46 52 -61 63 -32 21 -34 32 -12 76 16 30 28 90 40 207 4 36 14 63 28
78 21 23 21 24 2 38 -11 8 -39 14 -62 14 -23 0 -56 3 -73 6 -29 6 -31 9 -31
53 0 25 3 63 6 84 7 37 7 37 61 37 93 0 128 34 46 45 -88 11 -93 14 -93 40 0
37 38 112 61 118 14 4 19 14 19 42 0 34 -2 36 -17 24 -53 -43 -78 -81 -113
-176 -11 -29 -16 -32 -70 -38 -33 -4 -73 -4 -89 0 -28 6 -31 11 -32 43 -1 41
-16 87 -39 118 -31 42 -120 89 -120 64z m337 -356 c-3 -42 -9 -80 -14 -83 -4
-4 -42 -5 -84 -3 -75 3 -75 3 -86 69 -7 36 -9 71 -6 79 4 11 28 14 101 14 95
0 95 0 89 -76z m-226 -165 c4 -13 7 -50 8 -81 1 -49 -2 -58 -20 -63 -28 -9
-34 -1 -52 65 -8 30 -18 65 -22 77 -6 19 -3 22 27 26 47 5 52 3 59 -24z m207
-62 c-3 -82 -3 -82 -72 -80 -38 2 -73 8 -76 13 -4 6 -8 42 -9 80 -2 68 -2 69
26 72 15 2 52 1 81 0 53 -4 53 -4 50 -85z m142 6 c0 -97 -6 -107 -51 -95 -34
8 -34 8 -33 75 2 89 6 97 49 97 35 0 35 0 35 -77z m-20 -168 c0 -38 -20 -73
-49 -83 -35 -13 -262 -13 -278 0 -7 6 -13 22 -13 37 0 14 -4 33 -9 41 -6 8 -7
18 -5 22 3 5 84 8 180 7 174 -1 174 -1 174 -24z m-60 -153 c0 -23 -37 -59 -76
-72 -23 -8 -38 -7 -66 4 -45 19 -100 65 -92 77 3 5 57 9 120 9 104 0 114 -2
114 -18z"/>
</g>
</svg>
