<svg version="1.0" xmlns="http://www.w3.org/2000/svg"
 width="109.000000pt" height="269.000000pt" viewBox="0 0 109.000000 269.000000"
 preserveAspectRatio="xMidYMid meet">
<metadata>
Created by potrace 1.15, written by Peter Selinger 2001-2017
</metadata>
<g transform="translate(0.000000,269.000000) scale(0.100000,-0.100000)"
fill="#000000" stroke="none">
<path d="M411 2509 c-12 -41 -32 -101 -43 -134 -86 -252 -82 -235 -64 -253 16
-16 18 -16 34 3 9 12 24 24 33 27 9 4 22 27 30 52 7 25 17 46 21 46 4 0 8 9 8
20 0 11 4 20 8 20 4 0 13 42 20 93 7 50 16 104 18 118 4 18 -1 34 -18 54 -24
27 -24 27 -47 -46z"/>
<path d="M570 2532 c0 -29 9 -53 33 -88 28 -41 49 -57 133 -100 109 -56 181
-75 190 -49 4 9 -5 24 -23 39 -15 13 -38 32 -50 42 -11 11 -31 26 -44 34 -12
8 -51 43 -87 77 -35 33 -76 63 -91 66 -14 2 -34 8 -43 12 -15 6 -18 1 -18 -33z"/>
<path d="M847 2139 c-21 -5 -71 -20 -110 -33 -40 -13 -90 -27 -112 -31 -102
-18 -215 -50 -267 -76 -32 -16 -64 -29 -72 -29 -14 0 -31 -29 -22 -38 12 -11
115 -6 130 7 9 7 22 11 29 8 18 -7 39 -121 44 -239 4 -96 4 -96 -29 -107 -62
-20 -148 -127 -155 -191 -2 -19 -6 -59 -9 -88 -6 -48 4 -91 26 -112 3 -3 20
-45 38 -95 18 -49 51 -128 75 -175 37 -74 47 -87 87 -107 35 -17 58 -21 103
-18 65 4 95 20 147 76 54 58 60 67 60 83 0 8 4 17 9 21 13 8 111 201 111 218
0 7 9 23 20 35 11 12 20 30 20 41 0 11 5 23 10 26 6 3 10 19 10 34 0 15 4 31
10 37 29 29 -67 224 -111 224 -23 0 -41 33 -52 92 -6 35 -13 65 -16 68 -4 3
-7 18 -9 35 -2 16 -7 34 -11 40 -5 5 -11 42 -15 80 -13 126 -15 116 29 129 22
7 49 17 60 23 11 6 40 17 64 25 25 8 46 19 48 25 8 22 -70 29 -140 12z m-137
-178 c0 -15 4 -40 9 -57 9 -32 9 -32 -68 -48 -42 -10 -86 -19 -98 -22 -22 -4
-23 -2 -23 70 0 84 -7 77 115 104 46 10 65 -4 65 -47z m39 -208 c5 -32 13 -67
16 -79 7 -22 -1 -23 -185 -37 -30 -2 -31 -1 -40 60 -5 32 -4 51 4 59 11 10
152 52 182 53 7 1 17 -25 23 -56z m10 -195 c5 -13 6 -25 2 -28 -8 -6 -31 -94
-31 -120 0 -17 -7 -20 -45 -20 -39 0 -50 5 -79 34 -18 19 -36 48 -39 63 -3 15
-8 35 -12 44 -9 24 58 45 153 48 36 1 44 -3 51 -21z m154 -115 c6 -31 6 -32
-39 -39 -25 -3 -50 -2 -55 3 -5 5 0 35 13 76 21 67 21 67 48 29 15 -20 30 -51
33 -69z m-415 47 c7 -23 9 -57 6 -79 -7 -42 -3 -40 -116 -57 -34 -5 -38 -4
-38 15 0 12 4 29 9 39 5 9 15 31 21 49 7 19 24 37 41 45 16 7 29 16 29 20 0 5
8 8 18 8 11 0 21 -13 30 -40z m359 -260 c-45 -87 -54 -100 -81 -105 -89 -18
-110 -45 -52 -66 34 -12 35 -13 22 -43 -7 -17 -31 -55 -52 -83 -35 -47 -43
-53 -76 -53 -43 0 -109 46 -146 100 -25 37 -23 41 28 70 12 7 12 11 1 24 -7 9
-23 16 -34 16 -25 0 -57 27 -57 49 0 9 -9 40 -20 70 -23 60 -16 81 27 81 13 0
32 4 41 9 9 5 91 11 181 15 90 3 166 8 169 11 3 3 26 5 52 5 47 0 47 0 -3
-100z"/>
<path d="M68 2018 c-1 -40 -3 -262 -3 -493 0 -231 -4 -490 -9 -576 -9 -152 -8
-156 12 -161 11 -3 24 -3 29 1 11 7 22 55 29 121 8 85 15 109 37 137 57 72 61
109 17 147 -29 24 -30 28 -31 106 -1 77 1 85 31 126 23 32 32 57 33 88 2 37
-3 48 -31 74 -32 30 -33 34 -34 109 0 75 1 79 31 104 17 14 31 34 31 45 0 10
-18 39 -40 63 -27 30 -40 54 -40 73 0 49 -23 108 -42 108 -15 0 -18 -11 -20
-72z"/>
<path d="M196 913 c-15 -32 -31 -66 -37 -75 -5 -10 -9 -51 -9 -91 0 -72 1 -75
41 -120 22 -26 37 -52 34 -58 -4 -6 -11 -61 -17 -122 -5 -62 -10 -125 -12
-142 -3 -33 13 -105 23 -105 33 1 50 59 51 175 0 39 7 95 14 125 13 54 13 55
47 52 19 -2 50 4 70 12 40 17 104 89 94 106 -9 15 -53 12 -62 -4 -13 -21 -49
-36 -87 -36 -41 0 -46 16 -21 64 8 15 15 34 15 41 0 8 7 20 15 29 8 8 18 35
21 60 6 41 5 46 -12 46 -19 0 -63 -72 -98 -162 -8 -21 -19 -38 -24 -38 -16 0
-35 59 -28 87 4 16 11 46 17 68 19 73 21 95 15 120 -10 38 -21 31 -50 -32z"/>
<path d="M970 826 c0 -20 -4 -44 -9 -54 -5 -9 -19 -39 -32 -67 -13 -27 -26
-52 -29 -55 -3 -3 -18 -22 -33 -42 -43 -57 -57 -51 -57 26 0 56 -3 67 -22 80
-12 9 -26 16 -30 16 -5 0 -8 -43 -8 -96 0 -96 0 -96 -40 -89 -52 9 -128 10
-136 2 -14 -14 39 -47 110 -68 48 -14 48 -14 40 -59 -10 -61 -6 -139 12 -229
16 -80 43 -121 77 -121 18 0 19 6 13 82 -9 131 -11 281 -4 308 4 15 20 31 38
38 41 18 90 69 90 93 0 11 4 27 9 37 41 76 52 114 49 169 -2 46 -7 59 -20 61
-15 3 -18 -4 -18 -32z"/>
<path d="M980 140 c0 -5 5 -10 10 -10 6 0 10 5 10 10 0 6 -4 10 -10 10 -5 0
-10 -4 -10 -10z"/>
</g>
</svg>
