<svg version="1.0" xmlns="http://www.w3.org/2000/svg"
 width="67.000000pt" height="95.000000pt" viewBox="0 0 67.000000 95.000000"
 preserveAspectRatio="xMidYMid meet">
<metadata>
Created by potrace 1.15, written by Peter Selinger 2001-2017
</metadata>
<g transform="translate(0.000000,95.000000) scale(0.100000,-0.100000)"
fill="#000000" stroke="none">
<path d="M380 715 c0 -3 23 -16 50 -29 68 -32 91 -54 84 -80 -7 -28 11 -75 31
-82 25 -10 28 2 10 30 -14 20 -16 38 -11 76 6 48 6 50 -26 70 -30 18 -138 30
-138 15z"/>
<path d="M210 680 c-12 -30 -83 -90 -165 -140 -35 -22 -37 -25 -18 -28 12 -2
32 2 44 9 20 10 25 9 41 -11 24 -30 23 -37 -11 -58 -33 -20 -86 -80 -78 -89 4
-3 22 8 41 25 48 41 112 78 162 91 48 13 67 41 62 96 -4 46 -28 61 -28 18 0
-27 -15 -53 -31 -53 -4 0 -14 13 -22 30 -13 26 -13 31 0 41 23 19 43 66 37 83
-9 24 -20 19 -34 -14z m-30 -124 c24 -26 22 -52 -5 -62 -28 -11 -61 57 -38 79
11 11 18 8 43 -17z"/>
<path d="M422 648 c-21 -21 -7 -68 20 -68 4 0 15 11 24 25 13 20 14 28 4 40
-15 18 -32 19 -48 3z"/>
<path d="M356 585 c44 -51 78 -74 91 -62 3 3 -4 16 -16 28 -11 12 -23 30 -26
38 -6 18 -59 51 -81 51 -9 0 3 -21 32 -55z"/>
<path d="M570 581 c0 -6 5 -13 10 -16 6 -3 10 -26 10 -51 0 -37 -3 -44 -19
-44 -11 0 -23 5 -26 10 -3 6 -15 10 -27 10 -19 0 -20 -1 -4 -25 10 -16 14 -34
10 -50 -7 -27 10 -35 20 -10 3 8 10 15 15 15 5 0 3 -12 -5 -27 -7 -16 -14 -31
-14 -35 0 -17 26 -6 47 20 21 26 22 26 23 5 0 -12 -11 -35 -25 -51 -31 -37
-31 -42 -1 -42 27 0 76 51 76 79 0 9 -7 27 -17 40 -10 15 -17 45 -17 81 -1 42
-6 64 -20 79 -20 22 -36 27 -36 12z"/>
<path d="M366 488 c3 -16 -2 -44 -15 -73 -36 -81 -20 -143 33 -129 33 8 33 18
1 32 -37 17 -30 32 16 32 45 0 45 15 -1 25 -17 4 -30 10 -30 13 1 18 18 31 53
37 34 7 36 9 20 21 -10 7 -26 14 -35 14 -10 0 -18 4 -18 8 0 5 -7 17 -15 28
-15 18 -15 18 -9 -8z"/>
<path d="M91 366 c-50 -27 -43 -39 15 -26 62 15 66 13 62 -22 -3 -33 -3 -33
-65 -36 -97 -5 -77 -25 32 -34 27 -3 30 -7 33 -42 6 -65 -31 -70 -69 -10 -11
19 -29 34 -38 34 -17 0 -16 -4 4 -47 26 -52 54 -72 105 -73 51 0 118 51 120
93 0 16 -23 6 -42 -18 -31 -39 -48 -32 -48 20 0 38 3 45 19 45 53 0 69 27 19
32 -29 3 -33 6 -33 33 0 28 2 30 38 28 42 -3 47 9 15 31 -33 23 -114 19 -167
-8z"/>
<path d="M425 259 c-13 -39 -16 -68 -10 -123 7 -83 18 -107 37 -88 9 9 10 20
2 40 -14 39 -7 64 19 60 16 -2 26 -15 35 -45 18 -55 34 -55 30 -1 -3 37 0 42
20 47 33 8 31 25 -4 31 -40 7 -38 34 4 38 38 4 45 32 7 32 -16 0 -29 9 -38 27
-14 26 -15 26 -21 5 -10 -30 -34 -28 -46 3 -5 14 -12 25 -14 25 -2 0 -12 -23
-21 -51z m63 -53 c3 -13 -1 -17 -14 -14 -11 2 -20 11 -22 22 -3 13 1 17 14 14
11 -2 20 -11 22 -22z"/>
</g>
</svg>
