<svg version="1.0" xmlns="http://www.w3.org/2000/svg"
 width="67.000000pt" height="103.000000pt" viewBox="0 0 67.000000 103.000000"
 preserveAspectRatio="xMidYMid meet">
<metadata>
Created by potrace 1.15, written by Peter Selinger 2001-2017
</metadata>
<g transform="translate(0.000000,103.000000) scale(0.100000,-0.100000)"
fill="#000000" stroke="none">
<path d="M166 763 c4 -21 18 -55 31 -75 14 -20 27 -55 30 -77 6 -46 20 -53 29
-16 7 30 20 32 33 6 7 -13 6 -24 -4 -37 -8 -11 -15 -25 -15 -33 0 -7 -9 -22
-21 -32 -24 -21 -40 -131 -21 -143 14 -8 47 20 74 63 18 28 21 50 22 135 1
104 -7 156 -24 156 -6 0 -10 -9 -10 -20 0 -11 -4 -20 -10 -20 -10 0 -18 25
-22 74 -3 30 -28 50 -28 22 0 -24 -15 -19 -30 9 -21 40 -42 32 -34 -12z m106
-315 c-7 -7 -12 -8 -12 -2 0 14 12 26 19 19 2 -3 -1 -11 -7 -17z"/>
<path d="M415 596 c-4 -19 -4 -43 -1 -54 4 -11 0 -39 -9 -63 -18 -52 -20 -106
-3 -111 16 -6 3 -49 -23 -79 -73 -83 -85 -122 -55 -193 19 -46 33 -52 58 -24
35 40 50 104 16 70 -7 -7 -20 -12 -30 -12 -33 0 -23 57 21 114 21 28 48 70 61
93 22 39 22 46 12 112 -7 38 -12 95 -12 125 0 42 -4 56 -15 56 -8 0 -17 -14
-20 -34z m25 -181 c0 -8 -4 -15 -10 -15 -5 0 -10 7 -10 15 0 8 5 15 10 15 6 0
10 -7 10 -15z"/>
<path d="M324 403 c-14 -71 0 -109 31 -83 26 22 14 120 -15 120 -5 0 -12 -17
-16 -37z"/>
<path d="M496 355 c-10 -28 -7 -70 8 -91 13 -17 15 -17 21 -3 10 25 1 102 -11
106 -6 2 -14 -3 -18 -12z"/>
</g>
</svg>
