<svg version="1.0" xmlns="http://www.w3.org/2000/svg"
 width="59.000000pt" height="83.000000pt" viewBox="0 0 59.000000 83.000000"
 preserveAspectRatio="xMidYMid meet">
<metadata>
Created by potrace 1.15, written by Peter Selinger 2001-2017
</metadata>
<g transform="translate(0.000000,83.000000) scale(0.100000,-0.100000)"
fill="#000000" stroke="none">
<path d="M250 736 c-33 -44 -71 -68 -153 -95 -67 -23 -80 -41 -29 -41 30 0
105 33 171 74 41 26 43 26 74 10 69 -35 200 -75 211 -64 16 16 -10 34 -79 54
-83 25 -132 52 -140 76 -9 29 -26 24 -55 -14z"/>
<path d="M255 600 c7 -39 6 -40 -21 -40 -15 0 -38 10 -51 22 -20 18 -23 19
-23 5 0 -23 34 -55 67 -63 16 -4 43 -24 61 -46 35 -39 64 -44 37 -5 -19 28
-19 57 0 57 9 0 30 7 46 16 22 11 29 21 27 37 -3 25 -38 37 -38 13 0 -19 -36
-40 -56 -32 -8 3 -14 14 -14 25 0 30 -11 51 -27 51 -12 0 -13 -8 -8 -40z"/>
<path d="M394 435 c-40 -44 -43 -45 -103 -45 -53 0 -61 2 -61 19 0 34 -87 73
-127 56 -14 -6 -6 -11 32 -24 31 -10 51 -23 53 -33 3 -16 -5 -18 -57 -18 -34
0 -61 -4 -61 -9 0 -14 27 -21 78 -21 45 0 48 -2 64 -40 10 -25 26 -44 43 -50
19 -7 25 -15 21 -26 -3 -9 -6 -17 -6 -20 0 -2 -24 -16 -52 -30 -68 -34 -88
-52 -88 -79 0 -40 20 -46 132 -39 102 7 104 6 135 -20 17 -14 34 -26 37 -26
15 0 4 24 -23 51 -29 29 -31 29 -140 29 -138 0 -148 18 -30 54 54 16 67 28 83
79 3 9 12 17 21 17 8 0 26 22 40 50 25 49 25 49 72 44 27 -3 54 -1 62 4 24 17
1 32 -49 32 -27 0 -51 4 -55 9 -5 10 36 43 68 54 25 9 12 27 -20 27 -19 0 -39
-14 -69 -45z m-38 -90 c9 -23 -15 -45 -48 -45 -40 0 -68 17 -68 40 0 18 7 20
55 20 40 0 57 -4 61 -15z"/>
<path d="M432 278 c-16 -16 3 -48 29 -48 28 0 37 30 14 46 -23 17 -28 17 -43
2z"/>
<path d="M94 265 c-7 -18 3 -35 21 -35 21 0 28 19 15 35 -16 19 -29 19 -36 0z"/>
</g>
</svg>
