<svg version="1.0" xmlns="http://www.w3.org/2000/svg"
 width="67.000000pt" height="111.000000pt" viewBox="0 0 67.000000 111.000000"
 preserveAspectRatio="xMidYMid meet">
<metadata>
Created by potrace 1.15, written by Peter Selinger 2001-2017
</metadata>
<g transform="translate(0.000000,111.000000) scale(0.100000,-0.100000)"
fill="#000000" stroke="none">
<path d="M445 1068 c-3 -7 -4 -24 -3 -38 1 -14 1 -71 0 -127 -2 -118 -15 -143
-75 -143 -45 0 -67 -27 -95 -120 -15 -49 -15 -228 -1 -287 13 -50 50 -93 82
-93 30 0 31 28 1 53 -20 18 -31 41 -40 83 -14 65 -8 134 10 134 19 0 96 -63
96 -77 0 -7 5 -13 10 -13 6 0 10 -6 10 -14 0 -23 20 -30 38 -13 14 15 13 20
-11 56 -14 22 -35 42 -47 46 -11 3 -20 10 -20 14 0 5 -13 14 -30 21 -16 7 -30
16 -30 21 0 5 -7 9 -16 9 -12 0 -14 7 -9 33 4 17 9 35 12 40 15 25 86 -15 131
-74 35 -47 55 -59 66 -40 18 29 -37 95 -114 137 -56 31 -61 40 -25 54 28 11
143 -6 162 -24 25 -23 43 -269 21 -282 -4 -3 -8 -16 -8 -28 0 -14 -10 -30 -23
-39 -13 -8 -51 -42 -85 -75 -68 -68 -87 -114 -76 -187 6 -45 35 -82 53 -70 13
8 14 42 2 49 -12 8 -20 96 -11 122 12 31 54 70 97 90 21 10 41 24 46 30 4 7
13 19 21 26 21 22 28 65 32 218 5 142 4 146 -19 173 -13 15 -31 27 -39 27 -8
0 -30 5 -48 11 -32 12 -32 12 -26 108 8 131 7 173 -6 188 -13 16 -27 17 -33 1z"/>
<path d="M555 1004 c-17 -41 -20 -130 -5 -139 6 -3 10 -14 10 -24 0 -24 41
-61 68 -61 31 0 28 26 -8 66 -37 43 -46 78 -31 119 26 73 -5 108 -34 39z"/>
<path d="M340 975 c0 -62 -12 -96 -53 -144 -18 -21 -25 -37 -19 -43 13 -13 47
9 64 42 7 14 15 27 18 30 19 19 30 58 30 110 0 53 -2 60 -20 60 -18 0 -20 -7
-20 -55z"/>
<path d="M16 903 c-4 -54 -7 -105 -7 -113 11 -179 28 -210 114 -210 42 0 54 5
78 29 32 34 37 67 41 261 3 119 2 125 -17 125 -17 0 -20 -8 -23 -58 -3 -58 -3
-58 -65 -55 -62 3 -62 3 -67 58 -4 46 -8 55 -26 58 -20 3 -21 -3 -28 -95z
m172 -75 c15 -15 15 -72 0 -137 -10 -45 -15 -51 -42 -57 -17 -3 -44 -1 -59 5
-27 10 -27 11 -27 106 0 95 0 95 58 95 32 0 63 -5 70 -12z"/>
</g>
</svg>
