<svg version="1.0" xmlns="http://www.w3.org/2000/svg"
 width="71.000000pt" height="179.000000pt" viewBox="0 0 71.000000 179.000000"
 preserveAspectRatio="xMidYMid meet">
<metadata>
Created by potrace 1.15, written by Peter Selinger 2001-2017
</metadata>
<g transform="translate(0.000000,179.000000) scale(0.100000,-0.100000)"
fill="#000000" stroke="none">
<path d="M258 1675 c-24 -25 -3 -30 104 -27 109 3 128 6 116 17 -9 10 -212 18
-220 10z"/>
<path d="M419 1606 c-2 -2 -73 -6 -158 -10 -84 -3 -157 -9 -162 -12 -5 -3 -9
-12 -9 -20 0 -10 12 -14 45 -14 41 0 45 -2 45 -25 0 -13 -12 -41 -26 -62 -29
-43 -28 -68 2 -145 16 -41 17 -54 6 -93 -17 -64 -15 -102 8 -174 21 -62 21
-62 -18 -100 -37 -36 -39 -41 -50 -134 -14 -114 -16 -387 -3 -387 12 0 19 83
25 276 4 149 14 194 42 194 18 0 23 -54 18 -190 -11 -262 -9 -653 2 -657 18
-6 21 56 23 461 1 204 4 372 6 374 2 3 10 -8 17 -24 8 -19 14 -99 16 -226 2
-109 7 -198 12 -198 9 0 20 48 18 80 0 8 3 60 7 116 4 55 4 140 0 188 -6 78
-10 90 -40 125 -31 39 -32 41 -23 98 5 32 13 62 19 67 16 17 10 84 -12 130
-20 43 -20 43 6 90 27 48 27 60 0 121 -7 17 -16 45 -20 63 -6 28 -4 32 13 32
11 0 27 3 36 6 10 4 18 -1 22 -12 9 -29 25 -66 45 -105 14 -28 21 -78 30 -237
6 -112 8 -206 5 -210 -25 -25 -47 120 -33 217 6 42 5 58 -7 69 -28 29 -36 3
-36 -119 0 -128 6 -149 50 -189 28 -25 28 -25 33 -198 2 -95 1 -175 -3 -177
-8 -5 -20 77 -20 138 0 61 -20 42 -21 -20 -1 -64 -7 -122 -13 -139 -4 -10 15
-90 29 -127 12 -29 99 -26 125 5 17 22 18 41 5 213 -7 103 -11 119 -25 110 -7
-4 -8 -38 -4 -96 6 -95 1 -106 -36 -69 -11 11 -15 20 -10 20 7 0 9 59 8 166
-3 138 -1 167 12 174 47 27 49 33 51 125 2 51 7 93 13 98 8 5 7 10 -2 15 -7 5
-12 13 -11 18 5 27 -3 54 -15 54 -19 0 -24 -18 -16 -57 12 -51 2 -159 -16
-195 -18 -33 -18 -33 -26 2 -10 49 -7 302 5 358 6 26 23 66 39 89 15 23 28 46
28 51 0 16 38 44 44 33 9 -13 -3 -79 -15 -87 -16 -9 -9 -67 15 -138 18 -54 21
-76 14 -105 -21 -87 -21 -98 6 -156 26 -57 26 -57 -3 -91 -35 -39 -47 -101
-36 -177 4 -29 9 -115 11 -192 5 -145 7 -165 22 -165 6 0 7 101 4 245 -4 212
-3 245 10 245 8 0 15 -6 15 -12 0 -7 4 -177 7 -378 7 -370 12 -489 21 -498 16
-16 20 32 17 226 -3 183 -3 552 -1 630 1 26 14 29 24 5 3 -10 8 -110 11 -222
2 -112 7 -214 10 -225 7 -19 8 -18 16 9 11 41 9 449 -3 483 -5 15 -23 33 -39
40 -23 11 -30 20 -30 43 0 16 4 29 8 29 4 0 14 26 21 58 13 58 9 81 -21 140
-10 19 -9 28 6 53 23 39 22 93 -3 157 -31 78 -29 92 15 92 51 0 39 23 -17 32
-48 7 -173 10 -180 4z m11 -41 c0 -17 -53 -104 -61 -100 -16 10 -41 75 -35 90
4 10 20 15 51 15 25 0 45 -2 45 -5z m145 -112 c13 -35 16 -93 5 -114 -14 -26
-19 -21 -31 28 -14 63 7 134 26 86z m-380 -21 c29 -21 35 -39 24 -71 -12 -35
-15 -36 -34 -17 -15 14 -18 28 -16 69 1 27 8 33 26 19z m389 -228 c9 -25 7
-61 -6 -89 -14 -31 -28 -16 -28 30 0 61 20 96 34 59z m-374 -44 c0 -38 -4 -50
-15 -50 -16 0 -19 19 -9 69 10 48 24 37 24 -19z m223 -610 c12 0 17 -8 17 -28
0 -33 -16 -52 -45 -52 -28 0 -45 19 -45 50 0 33 9 43 35 36 11 -3 28 -6 38 -6z"/>
</g>
</svg>
