<svg version="1.0" xmlns="http://www.w3.org/2000/svg"
 width="63.000000pt" height="95.000000pt" viewBox="0 0 63.000000 95.000000"
 preserveAspectRatio="xMidYMid meet">
<metadata>
Created by potrace 1.15, written by Peter Selinger 2001-2017
</metadata>
<g transform="translate(0.000000,95.000000) scale(0.100000,-0.100000)"
fill="#000000" stroke="none">
<path d="M170 848 c0 -13 7 -43 15 -66 12 -33 13 -56 7 -92 -6 -33 -6 -52 1
-59 18 -18 26 -13 42 26 19 44 11 120 -18 176 -21 41 -47 49 -47 15z"/>
<path d="M337 759 c-49 -40 -72 -91 -72 -160 0 -61 13 -81 58 -93 23 -5 27
-12 27 -41 0 -19 5 -35 10 -35 6 0 10 6 10 13 0 6 11 25 24 40 24 28 24 28 70
6 71 -33 56 -75 -38 -100 -29 -8 -36 -13 -25 -20 8 -5 26 -9 40 -9 34 0 44
-32 23 -72 -18 -35 -11 -47 17 -29 18 10 23 10 35 -6 7 -10 14 -24 14 -30 0
-7 7 -13 16 -13 11 0 14 6 9 23 -4 12 -9 30 -11 40 -4 13 1 17 25 17 17 0 31
5 31 10 0 6 -15 10 -33 10 -25 0 -37 6 -47 25 -12 22 -10 28 24 69 20 24 36
49 36 54 0 22 -39 50 -90 64 -47 13 -55 18 -55 39 0 20 4 24 28 21 18 -2 26 1
22 7 -3 6 -13 11 -21 11 -9 0 -14 11 -14 35 0 34 1 35 39 35 22 0 43 5 46 10
4 6 -8 10 -29 10 -32 0 -36 3 -36 25 0 32 -41 75 -72 75 -13 0 -40 -14 -61
-31z m83 -18 c6 -17 9 -35 5 -40 -9 -16 -47 -13 -74 5 -23 16 -23 16 1 40 32
31 53 30 68 -5z m-43 -71 c30 0 34 -3 31 -21 -5 -36 -32 -46 -72 -27 -27 13
-33 21 -29 38 4 13 11 19 20 16 8 -3 30 -6 50 -6z m-3 -76 c21 -8 21 -40 0
-48 -9 -4 -32 -4 -50 0 -47 9 -47 41 -1 47 17 2 33 5 34 5 1 1 8 -1 17 -4z"/>
<path d="M94 648 c7 -39 14 -77 32 -166 3 -18 10 -35 15 -38 5 -3 9 -13 9 -23
0 -25 60 -86 99 -99 39 -14 81 -16 81 -4 0 16 -25 32 -51 32 -32 0 -89 52 -89
81 0 10 -9 42 -20 71 -11 29 -20 63 -20 75 0 27 -40 113 -53 113 -6 0 -7 -18
-3 -42z"/>
<path d="M150 251 c0 -4 4 -11 8 -16 11 -13 32 -87 32 -114 0 -35 42 -72 87
-78 38 -5 41 -3 57 27 18 37 22 145 5 156 -6 3 -16 1 -22 -5 -19 -19 -92 -13
-111 8 -18 20 -56 35 -56 22z m167 -116 c-6 -35 -27 -65 -46 -65 -14 0 -41 53
-41 80 0 17 6 20 46 20 47 0 47 0 41 -35z"/>
</g>
</svg>
