<svg version="1.0" xmlns="http://www.w3.org/2000/svg"
 width="89.000000pt" height="137.000000pt" viewBox="0 0 89.000000 137.000000"
 preserveAspectRatio="xMidYMid meet">
<metadata>
Created by potrace 1.15, written by Peter Selinger 2001-2017
</metadata>
<g transform="translate(0.000000,137.000000) scale(0.100000,-0.100000)"
fill="#000000" stroke="none">
<path d="M604 1163 c-31 -49 -59 -90 -63 -93 -3 -3 -19 -30 -35 -60 -16 -30
-39 -73 -51 -95 -62 -112 -87 -268 -54 -332 26 -52 99 -92 167 -93 27 0 28 -9
2 -55 -21 -37 -27 -95 -10 -95 12 0 50 41 50 53 0 15 53 57 72 57 30 0 50 -44
49 -110 0 -68 -6 -77 -72 -110 -52 -26 -91 -59 -83 -71 7 -12 51 -11 59 1 6
10 45 14 45 5 0 -2 -7 -23 -16 -45 -13 -32 -14 -43 -4 -55 17 -20 26 -12 55
46 14 27 27 49 29 49 2 0 11 -16 20 -35 11 -23 24 -35 38 -35 18 0 20 4 14 45
-4 24 -14 57 -22 73 -11 24 -12 43 -3 112 11 81 11 83 -18 139 -30 58 -30 58
-10 82 10 13 30 46 44 73 22 43 24 58 19 120 -9 118 -17 159 -35 201 -10 22
-21 55 -24 72 -4 18 -16 54 -27 79 -12 25 -20 53 -19 62 4 22 -10 62 -21 62
-4 0 -10 9 -13 20 -3 11 -10 20 -15 20 -6 0 -36 -39 -68 -87z m87 -101 c10
-29 19 -62 19 -73 0 -20 -4 -21 -62 -14 -35 4 -67 11 -72 16 -6 5 3 26 22 53
18 24 32 47 32 50 0 4 8 19 17 33 16 24 18 25 21 7 2 -10 12 -43 23 -72z m-1
-161 c8 -5 20 -6 27 -4 6 2 15 -2 20 -9 13 -22 32 -101 33 -139 0 -35 -1 -36
-42 -42 -47 -6 -250 7 -266 17 -18 11 34 171 61 188 14 8 145 0 167 -11z m-77
-257 c151 -8 154 -11 77 -67 -31 -22 -49 -27 -95 -27 -59 0 -85 9 -122 43 -26
23 -32 73 -9 64 8 -3 75 -9 149 -13z"/>
<path d="M587 830 c-32 -37 -16 -80 31 -80 29 0 52 22 52 50 0 47 -52 66 -83
30z"/>
<path d="M323 1171 c-43 -20 -84 -53 -162 -132 -62 -62 -102 -171 -116 -314
-6 -62 -5 -73 14 -95 27 -33 36 -19 45 72 11 116 87 308 122 308 6 0 24 15 40
33 33 36 75 70 117 95 31 19 32 46 2 49 -11 2 -39 -6 -62 -16z"/>
<path d="M216 894 c-3 -8 -1 -24 4 -34 13 -23 13 -201 0 -255 -11 -49 9 -140
31 -140 10 0 16 20 21 75 3 41 11 116 16 167 11 97 9 118 -14 171 -16 34 -47
43 -58 16z"/>
<path d="M363 453 c-8 -3 -13 -25 -13 -59 0 -57 1 -56 -60 -56 -89 0 -100 2
-100 21 0 38 -11 51 -46 51 -27 0 -34 -4 -34 -19 0 -11 5 -23 10 -26 5 -3 10
-27 10 -53 0 -63 22 -164 42 -194 31 -47 141 -63 175 -26 45 50 56 89 63 218
4 69 5 131 2 138 -4 12 -26 15 -49 5z m-13 -210 c-1 -16 -9 -44 -18 -63 -16
-32 -21 -35 -56 -33 -45 3 -76 33 -76 73 0 40 18 50 87 50 62 0 63 0 63 -27z"/>
</g>
</svg>
