<svg version="1.0" xmlns="http://www.w3.org/2000/svg"
 width="62.000000pt" height="84.000000pt" viewBox="0 0 62.000000 84.000000"
 preserveAspectRatio="xMidYMid meet">
<metadata>
Created by potrace 1.15, written by Peter Selinger 2001-2017
</metadata>
<g transform="translate(0.000000,84.000000) scale(0.100000,-0.100000)"
fill="#000000" stroke="none">
<path d="M150 706 c0 -19 -4 -37 -9 -41 -20 -12 -81 -146 -81 -177 0 -33 37
-98 56 -98 20 0 23 13 9 41 -16 31 -20 85 -7 93 5 3 24 -10 42 -29 19 -19 38
-35 42 -35 15 0 8 29 -17 66 -14 20 -25 48 -25 61 0 25 0 25 34 3 44 -26 52
-14 27 42 -10 24 -23 56 -28 73 -4 16 -16 31 -26 33 -13 3 -17 -4 -17 -32z"/>
<path d="M270 700 c0 -11 57 -27 126 -36 72 -9 92 -25 99 -81 4 -27 12 -66 18
-88 6 -22 10 -44 8 -49 -1 -4 6 -20 15 -33 28 -43 39 -13 21 54 -10 35 -15 88
-14 132 1 53 -2 75 -11 79 -7 2 -19 10 -26 18 -17 17 -236 21 -236 4z"/>
<path d="M322 559 c-13 -5 -35 -6 -48 -3 -34 9 -31 -14 9 -67 19 -24 42 -59
52 -76 11 -18 24 -33 30 -33 10 1 115 154 115 169 0 20 -116 27 -158 10z m98
-36 c0 -3 -12 -22 -27 -41 -26 -35 -26 -35 -50 -6 -35 44 -30 54 27 54 28 0
50 -3 50 -7z"/>
<path d="M185 341 c-3 -6 -17 -11 -30 -11 -69 0 -119 -116 -75 -173 18 -23 29
-27 71 -27 47 0 51 -2 64 -33 24 -57 49 -72 124 -72 52 0 66 3 66 15 0 8 -11
16 -25 18 -38 5 -44 18 -24 46 15 20 28 25 61 26 56 0 89 17 114 57 41 67 -14
148 -109 160 -42 5 -52 3 -52 -9 0 -9 19 -20 48 -29 53 -17 74 -46 65 -93 -4
-20 -15 -32 -39 -42 -49 -20 -51 -19 -57 37 -6 49 -20 79 -37 79 -5 0 -10 -40
-12 -90 -2 -64 -7 -94 -19 -105 -36 -37 -76 26 -71 111 2 29 -1 55 -7 58 -12
8 -31 -24 -31 -51 0 -11 -6 -27 -13 -37 -11 -14 -19 -16 -47 -9 -28 7 -36 15
-38 38 -5 43 16 72 70 95 27 12 48 26 45 33 -5 16 -33 21 -42 8z"/>
</g>
</svg>
