<svg version="1.0" xmlns="http://www.w3.org/2000/svg"
 width="65.000000pt" height="85.000000pt" viewBox="0 0 65.000000 85.000000"
 preserveAspectRatio="xMidYMid meet">
<metadata>
Created by potrace 1.15, written by Peter Selinger 2001-2017
</metadata>
<g transform="translate(0.000000,85.000000) scale(0.100000,-0.100000)"
fill="#000000" stroke="none">
<path d="M194 605 c-3 -8 -4 -39 -2 -70 1 -30 1 -55 -2 -55 -12 1 -36 27 -47
53 -16 34 -48 38 -38 5 15 -49 31 -73 58 -86 24 -12 27 -18 27 -65 0 -49 -3
-55 -45 -96 -25 -24 -45 -49 -45 -56 0 -7 -7 -15 -15 -19 -20 -7 -20 -46 0
-46 8 0 15 4 15 9 0 4 16 30 36 56 50 65 60 47 44 -85 -13 -103 -9 -130 16
-109 10 8 14 38 14 115 0 57 2 104 5 104 10 0 54 -54 60 -72 4 -10 11 -18 16
-18 15 0 10 52 -6 69 -43 44 -65 93 -65 142 0 47 3 53 50 100 28 27 50 56 50
64 0 18 -23 32 -28 16 -7 -22 -54 -71 -63 -66 -5 3 -6 33 -2 65 5 52 4 60 -11
60 -9 0 -19 -7 -22 -15z"/>
<path d="M437 558 c-65 -14 -56 -34 12 -30 29 2 66 -2 82 -8 25 -11 29 -18 29
-51 0 -44 1 -43 -71 -28 -60 13 -159 -3 -159 -25 0 -10 17 -12 69 -8 81 5 116
-1 125 -25 10 -25 -4 -33 -94 -51 -46 -10 -85 -23 -88 -30 -6 -18 54 -15 122
8 32 11 62 18 66 15 9 -6 6 -194 -5 -246 -5 -24 -3 -39 5 -44 27 -17 35 18 41
193 4 97 10 200 14 227 5 43 3 54 -17 77 -27 33 -65 40 -131 26z"/>
<path d="M408 213 c-42 -3 -58 -8 -58 -18 0 -11 11 -15 38 -15 60 0 113 12
109 24 -4 13 -12 14 -89 9z"/>
</g>
</svg>
