<svg version="1.0" xmlns="http://www.w3.org/2000/svg"
 width="64.000000pt" height="81.000000pt" viewBox="0 0 64.000000 81.000000"
 preserveAspectRatio="xMidYMid meet">
<metadata>
Created by potrace 1.15, written by Peter Selinger 2001-2017
</metadata>
<g transform="translate(0.000000,81.000000) scale(0.100000,-0.100000)"
fill="#000000" stroke="none">
<path d="M230 628 c0 -7 7 -33 16 -57 28 -83 -6 -126 -39 -48 -25 61 -71 107
-108 107 -37 0 -37 -13 -1 -39 35 -24 78 -86 87 -123 7 -26 5 -28 -24 -28 -26
0 -34 6 -48 35 -18 37 -42 53 -54 33 -9 -13 2 -38 38 -85 21 -29 30 -33 68
-33 42 0 44 -1 54 -37 15 -52 14 -54 -14 -47 -23 6 -25 4 -25 -30 0 -33 -2
-36 -30 -36 -25 0 -30 4 -30 25 0 33 -23 32 -38 0 -15 -33 -15 -60 0 -124 11
-51 11 -51 59 -51 44 0 50 3 66 33 18 32 18 32 21 -36 2 -58 6 -68 20 -65 20
4 19 -8 9 221 -8 172 -7 178 14 208 18 26 21 40 17 96 -3 49 -9 69 -23 79 -23
17 -35 18 -35 2z m-3 -460 c-3 -7 -5 -2 -5 12 0 14 2 19 5 13 2 -7 2 -19 0
-25z m-49 0 c-2 -17 -11 -24 -30 -26 -24 -3 -28 0 -28 22 0 22 4 26 31 26 26
0 30 -3 27 -22z"/>
<path d="M364 625 c-19 -15 -19 -15 0 -30 20 -15 49 -19 114 -15 28 1 33 -2
30 -16 -3 -20 -35 -32 -90 -33 -27 -1 -42 -8 -61 -31 -31 -37 -40 -112 -35
-325 3 -142 4 -150 23 -150 14 0 21 8 23 28 3 27 3 27 118 27 105 0 115 2 112
17 -2 14 -16 19 -58 23 -51 5 -55 7 -55 30 0 21 6 26 35 30 20 4 42 10 49 15
21 12 -15 35 -57 35 -30 0 -33 2 -30 28 3 25 7 27 51 30 31 2 47 8 47 16 0 17
-22 26 -66 26 -31 0 -34 3 -34 29 0 29 2 30 53 33 38 2 52 7 52 18 0 12 -12
15 -52 13 -53 -2 -53 -2 -53 32 0 32 3 35 29 35 46 0 80 68 53 106 -30 44
-155 62 -198 29z m76 -170 c0 -33 -2 -35 -35 -35 -28 0 -35 4 -35 19 0 37 12
51 41 51 26 0 29 -3 29 -35z m5 -105 c0 -22 -5 -25 -38 -28 -39 -3 -55 13 -43
44 4 11 17 14 43 12 33 -3 38 -6 38 -28z m5 -95 c0 -23 -4 -25 -45 -25 -41 0
-45 2 -45 25 0 23 4 25 45 25 41 0 45 -2 45 -25z m-6 -91 c10 -25 -14 -45 -48
-42 -25 2 -32 8 -34 31 -3 25 -1 27 36 27 28 0 42 -5 46 -16z"/>
</g>
</svg>
