<svg version="1.0" xmlns="http://www.w3.org/2000/svg"
 width="61.000000pt" height="77.000000pt" viewBox="0 0 61.000000 77.000000"
 preserveAspectRatio="xMidYMid meet">
<metadata>
Created by potrace 1.15, written by Peter Selinger 2001-2017
</metadata>
<g transform="translate(0.000000,77.000000) scale(0.100000,-0.100000)"
fill="#000000" stroke="none">
<path d="M70 599 c0 -27 31 -39 99 -39 72 0 81 -16 14 -25 -27 -4 -60 -11 -74
-16 -52 -20 -77 -109 -43 -157 14 -20 23 -23 72 -20 44 2 58 7 60 20 3 14 -6
17 -45 20 -44 3 -48 5 -51 30 -6 47 12 64 80 77 81 16 108 33 108 70 0 45 -21
55 -126 57 -85 1 -94 0 -94 -17z"/>
<path d="M395 610 c-3 -5 -1 -35 5 -65 13 -65 8 -78 -54 -129 -44 -36 -61 -76
-33 -76 8 0 32 18 55 40 48 47 72 50 123 14 21 -14 46 -24 56 -22 25 5 23 40
-4 54 -13 6 -31 18 -41 27 -10 10 -23 17 -29 17 -6 0 -14 33 -19 73 -8 63 -12
72 -31 75 -11 2 -24 -2 -28 -8z"/>
<path d="M147 453 c-18 -17 -5 -33 28 -33 36 0 55 -20 55 -58 0 -20 -30 -51
-70 -70 -36 -18 -70 -73 -70 -112 0 -18 12 -58 28 -87 27 -55 54 -79 72 -68
15 9 12 51 -4 65 -23 19 -49 96 -42 125 10 38 29 31 72 -27 22 -29 47 -54 57
-56 29 -6 31 26 5 61 -48 62 -50 71 -23 108 34 45 35 121 3 143 -22 16 -99 22
-111 9z"/>
<path d="M395 333 c-11 -3 -28 -11 -38 -18 -15 -10 -15 -14 -3 -24 10 -9 34
-9 91 -2 84 10 90 13 82 36 -5 11 -20 15 -59 14 -29 -1 -62 -4 -73 -6z"/>
<path d="M383 223 c-46 -4 -73 -27 -55 -45 17 -17 199 -6 218 14 9 9 13 21 10
27 -7 11 -80 12 -173 4z"/>
</g>
</svg>
