<svg version="1.0" xmlns="http://www.w3.org/2000/svg"
 width="72.000000pt" height="113.000000pt" viewBox="0 0 72.000000 113.000000"
 preserveAspectRatio="xMidYMid meet">
<metadata>
Created by potrace 1.15, written by Peter Selinger 2001-2017
</metadata>
<g transform="translate(0.000000,113.000000) scale(0.100000,-0.100000)"
fill="#000000" stroke="none">
<path d="M82 1043 c3 -16 17 -18 106 -21 95 -2 103 -1 100 15 -3 16 -17 18
-106 21 -95 2 -103 1 -100 -15z"/>
<path d="M343 1043 c-15 -6 5 -43 23 -43 20 0 64 -52 64 -77 0 -43 -46 -99
-107 -129 -18 -9 -33 -20 -33 -25 0 -14 31 -23 39 -12 3 6 21 14 38 17 43 10
92 56 99 95 5 26 11 31 35 31 15 0 31 5 34 10 3 6 12 10 20 10 12 0 14 -22 11
-122 -2 -68 -5 -123 -6 -123 -1 0 -4 -43 -7 -95 -3 -52 -7 -97 -8 -99 -2 -1
-9 0 -15 4 -8 5 -9 55 -4 180 5 131 4 174 -6 180 -6 4 -15 3 -20 -1 -10 -12
-24 -315 -15 -353 5 -24 15 -32 68 -51 34 -12 67 -26 72 -30 18 -14 60 -19 75
-10 21 13 -22 56 -68 67 -33 8 -36 12 -39 48 -3 47 17 82 49 87 26 3 31 30 44
206 6 87 5 92 -13 92 -17 0 -21 -9 -27 -52 -3 -29 -6 -78 -6 -109 0 -33 -6
-63 -15 -75 -13 -17 -14 -3 -12 131 2 150 2 150 50 173 35 16 47 27 45 40 -5
24 -60 20 -89 -7 -13 -12 -29 -21 -36 -21 -7 0 -13 -4 -13 -9 0 -17 -83 -43
-85 -26 -3 34 -21 54 -69 78 -29 15 -55 27 -57 26 -2 0 -9 -3 -16 -6z"/>
<path d="M73 942 c-34 -3 -43 -7 -43 -22 0 -14 8 -20 33 -22 32 -3 32 -3 38
-74 3 -45 11 -77 20 -87 12 -11 15 -33 13 -87 -2 -79 -7 -89 -32 -73 -13 8
-17 25 -16 77 0 57 -2 66 -17 66 -22 0 -32 -45 -27 -121 3 -54 3 -54 46 -67
42 -14 42 -14 42 -83 0 -63 -2 -69 -21 -69 -13 0 -23 10 -30 30 -7 19 -18 30
-30 30 -18 0 -19 -9 -19 -127 1 -162 3 -166 104 -171 72 -4 74 -4 95 26 20 28
21 41 19 149 -2 97 -6 118 -18 118 -10 0 -16 -12 -18 -33 -3 -25 -7 -32 -19
-28 -8 3 -17 6 -19 6 -2 0 -4 31 -4 70 0 75 -2 72 65 82 28 5 45 47 46 118 1
68 -4 79 -29 64 -12 -8 -18 -28 -20 -72 -3 -62 -15 -78 -47 -66 -18 7 -19 35
-4 104 9 44 15 52 39 57 32 6 53 44 49 89 -4 57 0 74 20 74 23 0 37 18 25 30
-10 9 -173 17 -241 12z m143 -64 c-3 -13 -6 -37 -6 -55 0 -23 -6 -33 -21 -38
-29 -10 -37 2 -45 63 -6 52 -6 52 36 52 39 0 42 -2 36 -22z m-10 -590 c-7 -62
-14 -99 -19 -104 -2 -2 -24 -1 -49 2 -42 6 -46 9 -56 43 -8 30 -9 68 -3 104 0
4 31 7 67 7 67 0 67 0 60 -52z"/>
<path d="M339 653 c-8 -16 -17 -30 -20 -33 -3 -3 -11 -63 -18 -135 -13 -129
-30 -243 -50 -320 -24 -91 -5 -114 30 -38 35 78 47 150 64 383 7 92 21 130 47
130 22 0 21 17 3 -202 -9 -111 6 -130 131 -163 27 -7 64 -38 64 -54 0 -6 5
-11 10 -11 6 0 10 -6 10 -14 0 -8 5 -16 10 -18 6 -2 15 -40 22 -86 10 -65 15
-82 28 -80 22 5 25 91 5 155 -22 71 -70 120 -147 152 -39 17 -67 35 -74 50 -9
16 -11 64 -7 153 5 146 1 158 -57 158 -30 0 -39 -5 -51 -27z"/>
</g>
</svg>
