<svg version="1.0" xmlns="http://www.w3.org/2000/svg"
 width="83.000000pt" height="105.000000pt" viewBox="0 0 83.000000 105.000000"
 preserveAspectRatio="xMidYMid meet">
<metadata>
Created by potrace 1.15, written by Peter Selinger 2001-2017
</metadata>
<g transform="translate(0.000000,105.000000) scale(0.100000,-0.100000)"
fill="#000000" stroke="none">
<path d="M189 977 c-18 -7 -30 -22 -38 -48 -14 -48 -2 -83 38 -104 31 -15 101
-21 101 -7 0 4 10 12 23 17 26 12 33 46 18 95 -16 55 -75 74 -142 47z m79 -23
c19 -6 22 -13 22 -55 0 -49 0 -49 -43 -49 -39 0 -45 3 -59 34 -16 32 -16 35 3
55 20 22 38 25 77 15z"/>
<path d="M219 906 c16 -19 44 -21 39 -3 -3 6 -15 14 -28 15 -21 3 -22 2 -11
-12z"/>
<path d="M460 779 c0 -11 79 -89 90 -89 6 0 10 -4 10 -10 0 -5 5 -10 10 -10 6
0 18 -6 26 -12 53 -45 57 -59 19 -76 -48 -22 -63 -16 -67 25 -2 27 -8 39 -20
41 -15 3 -18 -4 -18 -43 0 -47 0 -47 -31 -40 -40 9 -36 -12 7 -35 16 -9 30
-26 32 -38 3 -19 -1 -22 -30 -22 -19 0 -43 -6 -53 -14 -18 -13 -16 -15 28 -21
26 -4 47 -9 47 -12 0 -9 -35 -67 -48 -82 -7 -7 -11 -20 -8 -28 3 -8 6 -17 6
-19 0 -3 11 6 25 20 14 14 25 32 25 41 0 8 7 15 15 15 8 0 15 6 15 14 0 24 29
46 61 46 16 0 29 4 29 9 0 4 15 11 33 14 17 3 40 8 50 12 36 14 16 -20 -46
-79 -35 -34 -69 -71 -75 -83 -14 -25 -7 -72 19 -127 11 -22 19 -44 19 -49 0
-9 25 -37 34 -37 8 0 -4 49 -18 75 -20 37 -34 109 -26 130 5 12 21 30 37 40
42 27 88 76 107 113 27 52 9 88 -105 204 -54 55 -99 105 -99 109 0 5 -7 9 -15
9 -8 0 -15 5 -15 10 0 6 -16 10 -35 8 -19 -1 -35 -5 -35 -9z m231 -273 c-20
-10 -37 -23 -39 -27 -6 -16 -89 -10 -96 6 -4 11 13 24 62 48 67 32 67 32 88
12 21 -20 21 -20 -15 -39z"/>
<path d="M110 761 c0 -15 20 -24 53 -25 48 -2 46 -26 -1 -26 -49 0 -77 -26
-39 -35 14 -4 35 -4 45 0 11 3 23 2 25 -3 11 -16 -11 -34 -58 -46 -68 -17 -70
-36 -5 -36 48 0 55 3 96 46 38 38 50 45 77 42 24 -2 33 1 35 15 3 14 -4 17
-40 17 -24 0 -50 5 -58 10 -16 10 -14 11 38 16 38 3 47 8 37 23 -8 14 -205 15
-205 2z"/>
<path d="M137 539 c-22 -13 -13 -29 18 -29 64 0 75 -34 15 -44 -22 -3 -40 -10
-40 -15 0 -5 18 -12 40 -16 39 -7 40 -8 40 -46 0 -33 -3 -39 -22 -40 -13 -1
-27 -1 -32 0 -4 1 -17 -1 -28 -4 -15 -5 -17 -10 -7 -21 14 -17 209 -21 209 -4
0 6 -6 10 -13 10 -7 0 -25 6 -40 13 -22 10 -27 19 -27 49 0 34 2 37 32 40 42
4 48 26 9 34 -34 7 -33 6 -25 28 4 10 18 16 35 16 31 0 36 9 17 28 -15 15
-156 16 -181 1z"/>
</g>
</svg>
