<svg version="1.0" xmlns="http://www.w3.org/2000/svg"
 width="79.000000pt" height="123.000000pt" viewBox="0 0 79.000000 123.000000"
 preserveAspectRatio="xMidYMid meet">
<metadata>
Created by potrace 1.15, written by Peter Selinger 2001-2017
</metadata>
<g transform="translate(0.000000,123.000000) scale(0.100000,-0.100000)"
fill="#000000" stroke="none">
<path d="M600 1091 c0 -21 -37 -78 -80 -124 -17 -18 -40 -47 -53 -64 -31 -46
-75 -46 -123 2 -19 19 -38 35 -42 35 -4 0 -43 34 -87 75 -44 41 -86 75 -92 75
-8 0 -13 -14 -14 -32 -2 -48 2 -156 7 -181 42 -240 53 -287 65 -287 5 0 9 -6
9 -12 0 -7 11 -26 25 -42 49 -58 9 -84 -71 -47 -81 38 -85 23 -14 -50 52 -54
58 -65 37 -71 -28 -7 -117 -64 -117 -75 0 -16 38 -27 53 -15 7 5 23 13 36 17
23 7 23 7 5 -26 -11 -19 -22 -35 -26 -37 -5 -2 -8 -12 -8 -23 0 -10 -16 -35
-35 -56 -35 -37 -38 -57 -7 -46 27 11 126 118 147 160 11 21 22 40 25 43 3 3
21 35 40 72 19 37 39 69 45 71 5 2 49 1 97 -1 83 -4 86 -5 93 -30 6 -24 38
-225 52 -327 6 -43 20 -68 34 -59 5 3 9 48 9 100 0 94 0 94 26 77 15 -9 49
-27 76 -40 42 -19 50 -20 55 -7 5 13 -30 54 -47 54 -11 0 -100 89 -100 99 0 6
15 25 33 43 44 44 67 79 67 100 0 28 -17 21 -71 -29 -27 -25 -52 -43 -55 -40
-10 10 -6 79 5 90 6 6 11 17 11 25 0 8 9 26 20 42 62 87 68 472 7 548 -14 18
-37 15 -37 -7z m-376 -156 c59 -60 60 -58 -21 -68 -26 -3 -33 0 -33 13 0 10
-3 38 -6 64 -4 25 -4 46 -1 46 3 0 31 -25 61 -55z m384 -12 c-3 -48 -3 -48
-48 -51 -43 -3 -44 -3 -27 16 9 10 17 22 17 27 0 12 41 55 52 55 5 0 8 -21 6
-47z m10 -153 c6 -67 -1 -70 -210 -76 -187 -6 -187 -6 -201 18 -8 13 -18 40
-21 61 -7 37 -7 37 211 35 218 -3 218 -3 221 -38z m-30 -134 c31 -19 -12 -87
-72 -114 -35 -16 -167 -17 -195 -3 -11 6 -32 27 -47 46 -40 53 -22 64 116 69
62 3 114 6 115 8 7 7 71 2 83 -6z"/>
</g>
</svg>
