<svg version="1.0" xmlns="http://www.w3.org/2000/svg"
 width="55.000000pt" height="91.000000pt" viewBox="0 0 55.000000 91.000000"
 preserveAspectRatio="xMidYMid meet">
<metadata>
Created by potrace 1.15, written by Peter Selinger 2001-2017
</metadata>
<g transform="translate(0.000000,91.000000) scale(0.100000,-0.100000)"
fill="#000000" stroke="none">
<path d="M337 656 c-14 -18 -36 -54 -48 -80 -31 -62 -54 -61 -98 4 -19 28 -39
60 -45 71 -21 41 -31 24 -34 -53 -2 -49 1 -78 8 -78 5 0 10 -7 10 -15 0 -8 -4
-15 -10 -15 -27 0 1 -104 32 -121 17 -9 19 -17 14 -52 -7 -40 -56 -127 -99
-174 -11 -13 -17 -26 -13 -30 4 -4 10 -3 14 2 4 6 22 24 41 40 34 30 34 30 27
-15 -4 -24 -12 -48 -19 -52 -6 -4 -8 -10 -4 -15 4 -4 16 -3 25 3 31 19 53 83
59 170 3 46 9 84 12 84 3 0 15 -7 25 -15 11 -8 28 -13 37 -10 16 5 18 -2 18
-57 0 -35 6 -76 14 -93 8 -16 23 -47 32 -68 10 -21 23 -36 29 -34 12 4 9 45
-4 62 -12 17 -20 75 -10 75 5 0 23 -14 38 -30 28 -28 52 -39 52 -22 0 4 -11
24 -25 44 -14 20 -25 41 -25 45 0 4 -14 22 -30 40 -42 45 -42 97 0 132 28 24
31 32 31 86 0 33 5 84 11 112 17 94 -16 124 -65 59z m13 -96 c0 -23 -4 -30
-20 -30 -23 0 -24 1 -8 35 15 34 28 32 28 -5z m-180 -20 c0 -5 -4 -10 -10 -10
-5 0 -10 5 -10 10 0 6 5 10 10 10 6 0 10 -4 10 -10z m136 -60 c15 0 24 -6 24
-15 0 -12 -16 -15 -84 -15 -82 0 -105 8 -90 31 4 8 27 9 67 5 33 -3 71 -6 83
-6z m-2 -78 c3 -5 -6 -19 -20 -31 -27 -23 -44 -20 -78 18 -19 21 -19 21 37 21
31 0 58 -4 61 -8z"/>
</g>
</svg>
