<svg version="1.0" xmlns="http://www.w3.org/2000/svg"
 width="105.000000pt" height="117.000000pt" viewBox="0 0 105.000000 117.000000"
 preserveAspectRatio="xMidYMid meet">
<metadata>
Created by potrace 1.15, written by Peter Selinger 2001-2017
</metadata>
<g transform="translate(0.000000,117.000000) scale(0.100000,-0.100000)"
fill="#000000" stroke="none">
<path d="M515 1119 c-82 -4 -168 -10 -190 -14 -22 -3 -69 -10 -105 -14 -85
-11 -121 -26 -114 -46 6 -15 64 -22 77 -8 10 9 52 15 122 17 60 1 60 1 63 -40
3 -37 -1 -45 -27 -63 -16 -12 -32 -21 -36 -21 -14 0 -96 -63 -111 -85 -9 -14
-13 -33 -9 -44 7 -24 72 -91 88 -91 5 0 34 -12 62 -26 51 -25 53 -26 59 -77 4
-29 9 -67 12 -84 7 -35 -8 -43 -44 -23 -39 21 -107 50 -119 50 -7 0 -13 5 -13
10 0 6 -9 10 -20 10 -11 0 -20 -4 -20 -9 0 -10 53 -51 65 -51 3 0 26 -13 50
-30 24 -16 48 -30 54 -30 6 0 11 -7 11 -15 0 -8 -4 -15 -8 -15 -5 0 -22 -11
-38 -25 -16 -14 -33 -25 -39 -25 -5 0 -21 -9 -35 -20 -14 -11 -31 -20 -38 -20
-13 0 -42 -24 -42 -34 0 -3 18 -6 40 -6 22 0 40 4 40 8 0 5 21 20 47 33 27 13
54 30 61 37 27 25 52 34 57 20 7 -21 23 -128 30 -198 3 -36 10 -76 15 -90 24
-71 21 -67 31 -41 6 15 6 50 -1 95 -6 39 -13 87 -15 106 -3 19 -7 58 -11 85
-3 28 -8 68 -10 90 -2 22 -6 63 -10 90 -26 227 -38 534 -20 541 6 2 36 6 66 8
30 2 79 7 108 12 28 4 52 5 53 3 6 -35 30 -237 29 -244 -4 -33 -8 -743 -4
-758 5 -15 7 -15 21 -2 14 15 17 50 22 282 1 21 5 20 64 -23 85 -63 156 -99
170 -85 8 8 5 17 -11 31 -11 11 -25 20 -30 20 -5 0 -16 7 -23 16 -8 9 -31 28
-52 41 -21 13 -52 37 -68 52 -29 29 -29 29 -1 57 31 32 69 57 123 80 25 10 38
23 42 40 4 24 -15 35 -27 15 -3 -5 -21 -12 -40 -15 -19 -4 -36 -10 -38 -14 -3
-9 -93 -72 -102 -72 -3 0 -6 32 -6 71 0 69 11 109 30 109 15 0 105 43 108 52
2 4 9 8 16 8 17 0 37 40 38 77 2 76 -31 106 -149 134 -52 13 -53 14 -52 48 1
77 -1 76 165 76 125 0 149 3 149 15 0 28 -205 35 -510 19z m338 -240 c31 -33
34 -55 11 -87 -19 -28 -85 -62 -119 -62 -25 0 -25 0 -25 96 0 96 0 96 53 89
40 -5 58 -13 80 -36z m-481 9 c2 -7 5 -46 7 -85 2 -71 2 -73 -22 -73 -22 0
-59 22 -94 57 -20 18 -16 72 5 80 9 4 23 13 30 20 17 17 69 17 74 1z"/>
</g>
</svg>
