<svg version="1.0" xmlns="http://www.w3.org/2000/svg"
 width="167.000000pt" height="191.000000pt" viewBox="0 0 167.000000 191.000000"
 preserveAspectRatio="xMidYMid meet">
<metadata>
Created by potrace 1.15, written by Peter Selinger 2001-2017
</metadata>
<g transform="translate(0.000000,191.000000) scale(0.100000,-0.100000)"
fill="#000000" stroke="none">
<path d="M313 1813 c-31 -4 -31 -4 -26 -81 5 -70 8 -80 35 -104 17 -16 38 -28
47 -29 39 -2 106 -11 110 -15 3 -3 6 -80 8 -172 3 -172 6 -229 19 -319 8 -62
-2 -76 -66 -93 -70 -19 -114 14 -135 102 -8 32 2 68 19 68 18 0 66 -24 66 -32
0 -18 31 -6 39 15 14 38 -1 60 -78 107 -36 22 -40 29 -41 64 0 70 -66 134
-154 150 -34 6 -96 -4 -96 -15 0 -12 37 -43 53 -45 6 0 19 -2 27 -2 8 -1 27
-12 41 -25 30 -25 36 -55 48 -212 10 -133 35 -217 70 -233 14 -7 60 -12 102
-12 127 0 138 -4 166 -69 21 -48 25 -69 24 -158 -1 -104 -1 -104 -36 -138 -53
-53 -76 -48 -109 25 -16 35 -32 58 -38 54 -27 -17 -52 -134 -28 -134 6 0 10
-7 10 -16 0 -20 27 -47 35 -35 8 14 62 4 107 -20 10 -5 25 -9 33 -9 11 0 14
-7 11 -22 -3 -13 -10 -58 -17 -100 -7 -48 -19 -85 -30 -97 -11 -11 -19 -24
-19 -28 0 -5 -34 -25 -75 -46 -46 -22 -75 -43 -75 -53 0 -8 -4 -12 -10 -9 -5
3 -10 1 -10 -4 0 -13 69 -6 84 9 5 5 23 10 38 10 15 0 28 5 28 10 0 6 7 10 15
10 8 0 32 18 54 40 40 41 64 100 76 190 3 25 10 77 16 115 5 39 7 105 3 147
-9 110 -8 145 6 178 10 24 18 29 58 32 26 2 72 0 102 -5 30 -5 87 -11 125 -12
39 -2 77 -4 85 -4 12 -1 15 -23 17 -124 2 -88 7 -135 19 -163 11 -27 18 -76
20 -156 1 -64 7 -124 12 -135 33 -66 46 -83 100 -126 56 -44 64 -47 123 -50
60 -2 64 0 67 21 4 29 -13 45 -67 61 -45 13 -71 31 -71 50 0 6 -5 20 -10 31
-5 11 -14 28 -19 38 -15 30 -22 124 -13 157 7 24 16 32 48 39 63 14 94 28 94
42 0 8 4 14 9 14 9 0 17 45 27 163 6 63 -3 97 -25 97 -7 0 -31 -95 -31 -123 0
-25 -76 -97 -103 -97 -34 1 -58 25 -60 61 -1 19 -5 39 -9 44 -3 6 -11 44 -18
86 -13 81 -13 81 38 134 6 8 12 18 12 24 0 6 5 11 10 11 6 0 10 11 10 24 0 51
7 56 84 56 89 0 124 19 156 86 19 39 24 67 26 134 3 183 29 239 107 240 20 0
37 3 37 8 -1 21 -21 32 -75 40 -82 13 -104 -3 -133 -95 -12 -38 -22 -74 -22
-81 0 -7 -10 -12 -23 -12 -12 0 -39 -14 -60 -31 -32 -27 -37 -36 -37 -74 0
-47 23 -68 44 -40 6 9 31 19 54 22 41 6 42 5 42 -25 0 -61 -90 -108 -180 -93
-13 2 -17 163 -10 411 3 118 3 118 60 126 45 6 63 17 97 58 31 37 53 90 53
127 0 41 0 41 -62 37 -94 -6 -199 -64 -222 -123 -16 -41 -36 -127 -36 -154 0
-40 -21 -54 -69 -47 -25 3 -50 0 -68 -9 -23 -11 -40 -12 -95 -3 -67 12 -118 7
-221 -20 -20 -6 -47 -8 -58 -5 -30 8 -47 51 -38 98 4 22 4 44 1 50 -6 10 -8
22 -14 89 -3 41 -53 106 -82 106 -8 0 -16 4 -18 9 -4 10 -91 19 -135 14z m116
-72 c12 -16 21 -39 21 -50 0 -18 -6 -21 -40 -21 -37 0 -40 2 -49 38 -16 55
-14 62 18 62 21 0 36 -8 50 -29z m881 -47 c0 -23 -3 -25 -32 -22 -38 4 -41 18
-7 35 34 18 39 16 39 -13z m-278 -300 c50 -26 58 -41 58 -115 0 -38 4 -69 9
-69 5 0 12 -21 15 -47 8 -64 8 -69 6 -136 -3 -72 -25 -98 -107 -123 -69 -21
-196 -25 -214 -6 -7 6 -27 12 -45 12 -57 0 -124 32 -124 59 0 6 -5 11 -11 11
-6 0 -9 9 -6 19 2 10 -2 43 -10 72 -9 33 -14 93 -13 153 1 94 8 126 35 152 10
11 111 31 180 37 67 5 202 -6 227 -19z"/>
</g>
</svg>
