<svg version="1.0" xmlns="http://www.w3.org/2000/svg"
 width="91.000000pt" height="127.000000pt" viewBox="0 0 91.000000 127.000000"
 preserveAspectRatio="xMidYMid meet">
<metadata>
Created by potrace 1.15, written by Peter Selinger 2001-2017
</metadata>
<g transform="translate(0.000000,127.000000) scale(0.100000,-0.100000)"
fill="#000000" stroke="none">
<path d="M189 1098 c-9 -18 -30 -56 -48 -85 -32 -50 -33 -53 -34 -175 -1 -105
2 -133 21 -188 13 -36 27 -73 32 -82 18 -32 10 -73 -21 -122 -16 -27 -36 -55
-44 -62 -8 -8 -17 -23 -20 -34 -3 -11 -11 -20 -16 -20 -5 0 -9 -10 -9 -22 0
-19 13 -10 73 50 40 39 76 72 80 72 4 0 7 -32 5 -72 -3 -71 -3 -71 -70 -112
-38 -22 -68 -44 -68 -48 0 -12 78 -10 85 2 12 20 35 10 35 -15 0 -24 -30 -86
-56 -116 -18 -20 -18 -29 1 -29 21 0 111 89 124 123 6 16 11 82 11 147 0 95
-4 127 -20 164 -10 25 -18 46 -17 47 1 0 67 2 147 5 80 2 171 9 204 15 32 6
59 9 61 7 2 -2 9 -50 15 -108 10 -92 24 -140 61 -212 5 -10 9 -23 9 -30 0 -15
61 -88 73 -88 11 0 9 68 -3 75 -5 3 -10 15 -10 26 0 10 -4 19 -10 19 -5 0 -10
9 -10 21 0 19 4 20 43 14 42 -7 42 -7 -20 51 -43 42 -63 69 -67 92 -6 32 -6
32 22 18 15 -8 46 -17 67 -21 40 -7 40 -7 -32 62 -40 38 -73 75 -73 82 0 7 8
25 18 39 21 29 22 34 58 172 24 96 29 160 18 244 -9 63 -29 60 -98 -15 -48
-52 -56 -66 -56 -100 0 -24 -5 -39 -12 -39 -7 0 -79 -2 -161 -3 -169 -2 -154
-14 -178 136 -10 59 -20 86 -42 112 -35 43 -49 44 -68 3z m41 -115 c0 -16 13
-63 31 -110 9 -24 -4 -33 -47 -33 -45 0 -60 87 -23 134 23 30 39 34 39 9z
m520 -83 c0 -52 -2 -60 -19 -60 -12 0 -23 11 -30 31 -6 18 -11 33 -11 35 0 5
50 54 55 54 3 0 5 -27 5 -60z m-141 -120 c43 -6 80 -6 101 0 19 5 35 8 36 7 2
-2 -10 -37 -27 -78 -29 -72 -32 -75 -72 -86 -43 -12 -110 -19 -279 -30 -135
-8 -147 -2 -177 93 -20 61 -22 77 -11 84 7 4 51 8 97 8 46 0 86 2 89 5 9 9
172 7 243 -3z"/>
</g>
</svg>
