<svg version="1.0" xmlns="http://www.w3.org/2000/svg"
 width="71.000000pt" height="91.000000pt" viewBox="0 0 71.000000 91.000000"
 preserveAspectRatio="xMidYMid meet">
<metadata>
Created by potrace 1.15, written by Peter Selinger 2001-2017
</metadata>
<g transform="translate(0.000000,91.000000) scale(0.100000,-0.100000)"
fill="#000000" stroke="none">
<path d="M325 708 c-2 -7 -6 -33 -7 -58 -3 -40 -7 -47 -43 -67 -51 -28 -70
-76 -54 -138 6 -24 22 -54 36 -67 21 -20 33 -23 91 -20 81 3 129 17 142 42 6
10 10 46 10 80 0 56 -3 65 -30 90 -16 15 -47 31 -67 35 -38 8 -38 8 -3 17 95
26 108 48 27 48 -44 0 -54 3 -62 22 -12 26 -33 35 -40 16z m111 -162 c14 -11
19 -26 19 -65 0 -65 -18 -83 -87 -89 -68 -5 -97 15 -104 73 -6 52 14 77 68 86
68 11 83 10 104 -5z"/>
<path d="M295 530 c-11 -18 5 -30 39 -30 54 0 96 11 96 26 0 17 -125 20 -135
4z"/>
<path d="M316 472 c-32 -8 -45 -26 -23 -35 7 -2 40 -2 72 2 44 4 60 10 60 21
0 17 -58 23 -109 12z"/>
<path d="M547 523 c-4 -3 -7 -26 -7 -49 0 -101 -34 -124 -190 -132 -107 -5
-107 -5 -133 29 -14 19 -30 53 -36 76 -13 47 -21 56 -41 43 -11 -7 -12 -17 -2
-61 14 -59 47 -96 102 -115 35 -12 35 -12 35 -76 0 -34 -4 -98 -8 -141 -8 -74
-8 -79 10 -75 20 4 27 36 40 183 7 81 10 90 29 93 23 3 25 -6 40 -168 6 -75
23 -110 51 -110 21 0 26 25 10 57 -16 32 -29 161 -20 204 5 24 13 31 60 44 62
18 87 49 98 121 8 56 -14 101 -38 77z"/>
<path d="M510 274 c-24 -63 5 -204 41 -204 23 0 23 12 4 65 -8 22 -14 68 -15
103 0 65 -13 81 -30 36z"/>
<path d="M187 264 c-4 -4 -7 -18 -7 -31 0 -13 -8 -50 -17 -83 -12 -46 -14 -63
-5 -72 8 -8 15 -9 22 -2 11 11 40 114 40 143 0 22 -23 54 -33 45z"/>
</g>
</svg>
