<svg version="1.0" xmlns="http://www.w3.org/2000/svg"
 width="72.000000pt" height="100.000000pt" viewBox="0 0 72.000000 100.000000"
 preserveAspectRatio="xMidYMid meet">
<metadata>
Created by potrace 1.15, written by Peter Selinger 2001-2017
</metadata>
<g transform="translate(0.000000,100.000000) scale(0.100000,-0.100000)"
fill="#000000" stroke="none">
<path d="M470 733 c-32 -12 -50 -37 -50 -68 0 -36 12 -50 53 -60 25 -7 27 -10
21 -49 -12 -91 -16 -110 -31 -132 -26 -40 -139 -58 -193 -31 -34 17 -60 72
-60 129 0 39 5 53 30 78 45 46 40 75 -16 102 -45 23 -45 23 -82 3 -66 -36 -64
-112 4 -129 22 -6 24 -11 24 -71 0 -80 12 -112 56 -148 23 -20 34 -37 34 -55
0 -34 -31 -145 -59 -207 -22 -51 -21 -65 9 -65 31 0 79 127 95 251 6 45 7 47
43 52 20 3 44 8 53 11 13 6 18 -5 27 -59 6 -36 22 -90 36 -121 14 -31 26 -64
26 -73 0 -35 45 -56 56 -26 5 13 -35 124 -67 187 -15 30 -11 115 6 122 33 12
55 69 55 142 0 65 2 74 30 102 34 36 37 57 12 90 -18 24 -81 38 -112 25z m76
-48 c9 -23 -15 -45 -48 -45 -32 0 -47 23 -28 45 16 20 69 19 76 0z m-330 -30
c9 -21 -14 -45 -43 -45 -25 0 -39 20 -29 45 7 20 65 20 72 0z"/>
<path d="M308 551 c-37 -29 -47 -84 -22 -112 28 -31 109 -22 141 15 13 15 23
35 23 45 0 58 -92 91 -142 52z m87 -41 c10 -16 -14 -40 -41 -40 -26 0 -38 14
-30 35 6 17 62 20 71 5z"/>
</g>
</svg>
