<svg version="1.0" xmlns="http://www.w3.org/2000/svg"
 width="95.000000pt" height="119.000000pt" viewBox="0 0 95.000000 119.000000"
 preserveAspectRatio="xMidYMid meet">
<metadata>
Created by potrace 1.15, written by Peter Selinger 2001-2017
</metadata>
<g transform="translate(0.000000,119.000000) scale(0.100000,-0.100000)"
fill="#000000" stroke="none">
<path d="M413 1086 c-56 -12 -105 -25 -109 -29 -4 -4 -16 -7 -26 -7 -32 0 -68
-31 -94 -82 -34 -68 -39 -127 -19 -223 10 -44 20 -92 22 -107 3 -16 9 -28 14
-28 5 0 9 -7 9 -15 0 -21 46 -110 73 -141 12 -15 36 -36 52 -48 17 -11 31 -28
32 -36 0 -8 4 -29 8 -46 8 -36 -1 -40 -95 -43 -58 -2 -101 -18 -108 -38 -3
-10 15 -13 65 -13 38 0 74 -5 80 -11 7 -7 13 -7 17 -1 8 13 48 3 43 -12 -2 -6
-21 -12 -43 -14 -21 -2 -43 -8 -48 -13 -6 -5 -38 -9 -73 -9 -55 0 -63 -2 -63
-18 0 -29 38 -40 105 -31 33 4 71 8 84 8 23 1 24 0 6 -19 -19 -21 -125 -57
-185 -62 -23 -2 -35 -8 -35 -18 0 -26 117 -26 184 1 109 44 151 110 150 234
-1 42 1 78 3 80 6 6 122 13 136 8 6 -3 12 -18 12 -33 0 -16 4 -31 9 -34 4 -3
11 -27 15 -53 16 -130 24 -149 71 -174 67 -36 210 -30 203 9 -2 11 -15 18 -38
20 -52 4 -138 32 -143 46 -7 18 35 36 82 36 35 0 72 22 59 36 -3 2 -34 9 -69
15 -108 18 -109 18 -109 38 0 19 25 31 68 31 12 0 30 4 40 9 9 5 25 12 35 15
9 3 17 12 17 21 0 12 -15 15 -79 15 -62 0 -80 3 -85 15 -4 11 5 22 27 35 19
11 39 35 47 55 8 19 17 35 22 35 4 0 8 6 8 13 0 7 11 41 24 75 16 39 28 101
35 174 6 62 13 127 16 143 6 39 -15 146 -31 163 -7 6 -18 12 -24 12 -6 0 -28
9 -50 20 -53 27 -206 25 -347 -4z m332 -49 c34 -18 45 -35 51 -80 6 -44 6 -44
-27 -50 -39 -7 -117 -15 -204 -22 -33 -2 -112 -9 -175 -15 -154 -13 -160 -12
-160 23 0 63 48 113 116 120 27 3 76 11 109 17 144 29 244 31 290 7z m45 -252
c0 -22 -5 -56 -10 -76 -9 -32 -16 -38 -53 -47 -51 -13 -168 -22 -335 -25 -123
-2 -123 -2 -142 53 -34 99 -38 95 103 110 67 7 145 13 173 12 27 -1 63 3 80 7
16 5 64 9 107 8 77 -1 77 -1 77 -42z m-40 -214 c0 -28 -26 -84 -47 -101 -18
-15 -42 -27 -96 -49 -36 -14 -162 -14 -189 0 -56 30 -123 117 -104 136 3 4 57
8 119 11 61 2 128 7 147 12 19 4 65 8 103 9 59 1 67 -1 67 -18z"/>
</g>
</svg>
