<svg version="1.0" xmlns="http://www.w3.org/2000/svg"
 width="70.000000pt" height="83.000000pt" viewBox="0 0 70.000000 83.000000"
 preserveAspectRatio="xMidYMid meet">
<metadata>
Created by potrace 1.15, written by Peter Selinger 2001-2017
</metadata>
<g transform="translate(0.000000,83.000000) scale(0.100000,-0.100000)"
fill="#000000" stroke="none">
<path d="M315 664 c-106 -21 -133 -29 -161 -48 -54 -34 -59 -54 -60 -236 -1
-91 -6 -192 -13 -225 -23 -126 -5 -179 35 -98 15 32 20 72 24 238 4 110 11
211 17 225 28 64 100 93 222 89 123 -5 141 -19 158 -120 7 -41 17 -158 21
-261 8 -189 14 -217 46 -205 13 5 16 26 16 124 0 65 -5 145 -10 178 -6 33 -15
107 -19 164 -9 97 -11 105 -38 127 -50 42 -158 64 -238 48z"/>
<path d="M296 561 c-46 -6 -80 -30 -64 -47 9 -8 201 6 218 16 7 4 10 15 7 24
-7 17 -59 19 -161 7z"/>
<path d="M289 484 c-26 -7 -52 -21 -59 -29 -7 -8 -15 -55 -18 -105 -4 -83 -3
-93 17 -114 19 -20 34 -24 118 -28 115 -6 128 -16 119 -89 -11 -79 14 -106 40
-44 47 114 -16 198 -137 179 -21 -4 -51 -3 -66 1 -27 6 -27 7 -9 21 11 8 43
14 71 14 76 0 95 22 95 109 0 53 -4 72 -18 84 -23 21 -89 21 -153 1z m97 -48
c23 -17 15 -21 -63 -31 -57 -6 -68 4 -31 29 28 20 68 20 94 2z m24 -75 c0 -15
-11 -19 -78 -27 -53 -6 -62 -4 -62 9 0 11 12 17 43 20 83 7 97 7 97 -2z"/>
<path d="M177 173 c-21 -20 4 -127 28 -125 15 2 26 104 13 119 -11 14 -31 17
-41 6z"/>
<path d="M285 147 c-9 -46 -3 -100 12 -104 21 -7 34 34 27 87 -8 58 -30 68
-39 17z"/>
<path d="M380 120 c0 -53 2 -60 20 -60 17 0 20 7 20 44 0 54 -8 76 -26 76 -10
0 -14 -15 -14 -60z"/>
</g>
</svg>
