<svg version="1.0" xmlns="http://www.w3.org/2000/svg"
 width="89.000000pt" height="159.000000pt" viewBox="0 0 89.000000 159.000000"
 preserveAspectRatio="xMidYMid meet">
<metadata>
Created by potrace 1.15, written by Peter Selinger 2001-2017
</metadata>
<g transform="translate(0.000000,159.000000) scale(0.100000,-0.100000)"
fill="#000000" stroke="none">
<path d="M489 1485 c-5 -5 -206 -20 -251 -19 -16 1 -28 -2 -28 -6 0 -8 92 -50
108 -50 12 0 22 -34 13 -48 -7 -12 -140 -20 -144 -9 -1 5 -15 10 -30 11 -43 5
-30 -23 22 -51 27 -14 61 -23 88 -23 73 0 79 -7 92 -117 7 -54 16 -124 22
-156 6 -31 8 -61 4 -66 -3 -5 -19 -12 -36 -16 -16 -4 -56 -17 -87 -30 -43 -18
-53 -25 -39 -30 9 -4 34 -4 55 -1 128 21 126 21 143 -15 16 -34 16 -34 15 5
-1 38 1 40 34 48 49 10 60 4 60 -36 0 -19 4 -46 9 -60 12 -30 3 -39 -64 -56
-128 -32 -228 -72 -263 -104 -38 -34 -82 -126 -82 -173 0 -12 -5 -25 -11 -29
-6 -4 -10 -36 -8 -83 1 -42 -1 -83 -4 -91 -10 -25 -16 -160 -7 -160 4 0 13 21
19 46 13 51 15 51 39 3 26 -50 38 -46 45 14 3 34 15 67 31 91 14 21 28 46 31
57 9 28 25 23 25 -9 0 -15 7 -59 15 -97 9 -39 18 -85 22 -103 3 -17 10 -32 15
-32 10 0 5 193 -8 300 -6 55 -6 55 25 26 31 -30 31 -30 31 -3 0 15 -6 36 -12
47 -10 16 -9 25 6 52 23 40 46 68 57 68 21 0 39 -113 19 -125 -6 -3 -10 -14
-10 -23 0 -9 -14 -44 -30 -77 -34 -68 -33 -65 -20 -65 6 0 27 19 47 41 37 41
37 41 50 -7 7 -27 13 -88 14 -136 2 -49 6 -88 11 -88 4 0 8 11 8 24 0 14 7 32
16 41 12 11 13 19 5 29 -6 7 -10 37 -9 67 1 30 -2 93 -6 142 -8 85 -8 87 13
87 18 0 21 -6 21 -40 0 -69 18 -50 51 55 18 55 24 60 46 36 17 -18 18 -29 10
-103 -9 -89 -19 -130 -46 -193 -21 -47 -34 -118 -20 -110 5 4 18 24 30 46 20
39 37 45 38 11 2 -48 13 -118 21 -126 4 -4 14 -5 21 -1 9 6 10 36 5 121 -7
128 2 139 43 54 14 -28 29 -50 33 -50 14 0 9 29 -12 72 -11 23 -20 47 -20 53
0 7 -11 29 -25 49 -15 22 -25 51 -25 72 0 35 0 35 56 -10 31 -26 60 -46 65
-46 14 0 11 15 -9 36 -18 19 -90 119 -169 236 -24 34 -43 68 -43 75 0 7 12 15
28 19 15 3 40 10 55 16 28 11 28 12 24 82 -3 59 -22 151 -33 164 -7 9 -114
-21 -114 -31 0 -8 -4 -7 -9 2 -6 9 -17 11 -32 7 -68 -21 -89 -24 -90 -12 -3
23 3 51 12 60 5 6 9 35 9 65 0 31 6 79 13 106 13 50 13 50 89 47 72 -4 148 12
148 30 0 13 -34 26 -90 32 -108 14 -111 15 -104 44 11 44 31 59 89 66 49 5
115 33 115 47 0 4 -14 9 -31 13 -36 7 -203 8 -210 1z m-21 -75 c25 0 28 -16
10 -55 -8 -17 -19 -25 -38 -25 -33 0 -50 17 -50 50 0 33 9 43 35 36 11 -3 30
-6 43 -6z m-178 -90 c0 -5 -2 -10 -4 -10 -3 0 -8 5 -11 10 -3 6 -1 10 4 10 6
0 11 -4 11 -10z m160 -88 c0 -33 -28 -95 -30 -67 -1 6 -5 29 -9 52 -9 47 -7
53 21 53 14 0 18 -8 18 -38z m209 -306 c7 -8 11 -36 9 -63 -3 -47 -4 -48 -39
-51 -34 -3 -37 -1 -43 29 -8 41 -8 84 1 92 12 12 60 7 72 -7z m-105 -212 c9
-3 16 -12 16 -19 0 -6 7 -26 16 -43 11 -23 13 -45 9 -77 -4 -25 -10 -45 -14
-45 -10 0 -67 62 -80 87 -6 12 -11 37 -11 57 0 28 4 35 23 39 12 2 23 5 24 6
1 0 8 -2 17 -5z m-128 -39 c3 -8 -4 -27 -15 -44 -11 -16 -22 -39 -23 -52 -3
-27 -36 -61 -52 -56 -15 5 -32 44 -40 88 -6 32 -3 37 19 47 14 7 37 12 50 12
14 0 25 5 25 10 0 16 30 12 36 -5z m-176 -126 c0 -14 5 -41 11 -58 10 -28 7
-45 -15 -116 -15 -46 -36 -94 -47 -107 -19 -23 -19 -23 -13 4 3 15 0 44 -7 65
-20 61 -15 152 11 203 13 25 28 48 34 52 14 9 26 -10 26 -43z"/>
</g>
</svg>
