<svg version="1.0" xmlns="http://www.w3.org/2000/svg"
 width="97.000000pt" height="135.000000pt" viewBox="0 0 97.000000 135.000000"
 preserveAspectRatio="xMidYMid meet">
<metadata>
Created by potrace 1.15, written by Peter Selinger 2001-2017
</metadata>
<g transform="translate(0.000000,135.000000) scale(0.100000,-0.100000)"
fill="#000000" stroke="none">
<path d="M490 1255 c-14 -8 -50 -22 -80 -31 -62 -18 -71 -22 -155 -59 -33 -15
-64 -35 -70 -44 -37 -61 -45 -152 -19 -211 18 -41 102 -100 142 -100 27 0 87
-24 96 -38 9 -14 -14 -62 -30 -62 -27 0 -164 -72 -184 -97 -12 -15 -36 -59
-55 -99 -32 -68 -37 -73 -85 -90 -73 -26 -66 -39 18 -34 60 3 100 27 122 72
11 23 20 50 20 60 0 33 60 87 116 105 30 9 56 15 58 12 2 -2 6 -24 8 -49 3
-41 1 -45 -27 -58 -57 -27 -95 -79 -95 -128 0 -32 -10 -54 -25 -54 -7 0 -15
-4 -17 -9 -1 -4 -27 -17 -56 -28 -29 -11 -54 -24 -55 -29 -3 -13 53 -17 77 -6
12 6 36 16 54 24 37 15 82 76 82 112 0 26 50 76 77 76 8 0 17 -9 20 -20 3 -11
9 -20 13 -20 21 0 19 -43 -4 -95 -15 -30 -26 -62 -26 -69 0 -22 -54 -62 -135
-100 -41 -19 -75 -40 -75 -46 0 -16 48 -12 88 9 20 11 65 32 99 47 53 23 65
34 83 71 11 23 20 51 20 62 0 27 21 32 66 16 22 -8 49 -14 62 -15 27 0 52 -22
52 -44 0 -9 5 -16 10 -16 6 0 10 -6 10 -14 0 -7 7 -27 15 -42 8 -16 15 -39 15
-52 0 -24 24 -78 45 -98 24 -25 78 -52 91 -47 22 8 17 21 -26 62 -54 51 -52
75 8 131 61 56 77 96 56 145 -8 20 -26 41 -39 47 -24 11 -36 48 -16 48 5 0 12
13 16 30 11 50 14 140 4 140 -5 0 -9 9 -9 20 0 20 -8 41 -47 130 -35 77 -40
146 -14 188 25 38 105 92 138 92 16 0 23 6 23 20 0 23 -9 24 -64 9 -58 -16
-111 -53 -130 -91 -42 -79 -48 -88 -61 -88 -20 0 -85 32 -85 42 0 4 -5 8 -10
8 -6 0 -23 11 -38 25 -31 29 -62 33 -62 8 0 -9 -17 -43 -37 -75 -34 -51 -42
-58 -71 -58 -18 0 -40 4 -50 9 -9 6 -29 12 -44 15 -36 8 -75 48 -83 86 -9 41
3 110 20 110 7 0 19 7 26 17 8 9 37 26 65 39 45 20 80 28 200 50 45 8 89 74
49 74 -23 0 -29 1 -45 10 -9 5 -26 3 -40 -5z m118 -381 c53 -28 97 -73 85 -84
-10 -9 -155 -40 -188 -40 -28 0 -42 17 -26 33 6 6 11 22 11 35 0 29 36 82 56
82 8 0 36 -11 62 -26z m142 -167 c0 -8 3 -28 6 -45 6 -29 4 -31 -32 -37 -76
-13 -239 -46 -242 -50 -9 -9 -32 25 -32 48 0 19 10 29 48 47 93 45 100 46 185
49 52 2 67 -1 67 -12z m43 -184 c-9 -87 -53 -124 -159 -131 -57 -3 -63 -1 -90
26 -32 32 -60 79 -52 87 13 13 115 45 143 45 16 0 37 5 45 10 8 5 38 10 66 10
52 0 52 0 47 -47z m25 -165 c21 -21 13 -53 -23 -93 -20 -21 -36 -36 -38 -34
-20 36 -35 69 -40 90 -7 27 -3 29 84 48 3 0 10 -4 17 -11z"/>
</g>
</svg>
