<svg version="1.0" xmlns="http://www.w3.org/2000/svg"
 width="63.000000pt" height="117.000000pt" viewBox="0 0 63.000000 117.000000"
 preserveAspectRatio="xMidYMid meet">
<metadata>
Created by potrace 1.15, written by Peter Selinger 2001-2017
</metadata>
<g transform="translate(0.000000,117.000000) scale(0.100000,-0.100000)"
fill="#000000" stroke="none">
<path d="M480 1033 c-19 -2 -44 -7 -55 -12 -11 -5 -40 -14 -65 -21 -65 -19
-90 -37 -90 -65 0 -14 -4 -25 -8 -25 -5 0 -14 -23 -20 -50 -11 -48 -6 -92 25
-227 5 -21 2 -23 -41 -23 -91 0 -136 -46 -136 -139 0 -48 16 -101 30 -101 4 0
12 -11 18 -24 6 -13 20 -27 31 -31 12 -3 21 -12 21 -19 0 -9 -21 -15 -66 -19
-48 -3 -69 -10 -79 -23 -29 -38 -19 -44 70 -44 96 0 95 2 68 -80 -14 -43 -14
-53 -3 -60 21 -13 74 34 100 90 18 39 29 50 47 50 13 0 23 -4 23 -10 0 -16 56
-12 70 5 20 24 -23 65 -69 66 -36 1 -36 1 -8 12 15 6 27 14 27 19 0 4 6 8 13
8 17 0 87 69 87 85 0 7 5 15 12 17 16 6 14 124 -3 140 -28 27 -91 58 -119 58
-26 0 -28 4 -35 48 -3 26 -9 85 -11 132 -5 83 -4 87 22 113 35 36 51 34 57 -5
15 -89 39 -201 47 -223 6 -16 17 -25 31 -25 21 0 21 3 15 63 -3 34 -10 85 -16
112 -25 125 -26 121 10 128 40 8 50 3 50 -28 0 -37 21 -75 42 -75 15 0 18 8
18 59 0 33 5 63 10 66 6 3 10 17 10 31 0 17 -6 24 -19 24 -10 0 -31 2 -47 4
-16 2 -45 2 -64 -1z m-81 -503 c47 -25 13 -128 -55 -167 -70 -40 -126 -22
-164 54 -29 57 -20 99 23 119 37 15 163 12 196 -6z"/>
<path d="M232 478 c-29 -29 6 -68 59 -68 68 0 81 48 19 68 -50 15 -63 15 -78
0z"/>
<path d="M370 480 c0 -5 5 -10 10 -10 6 0 10 5 10 10 0 6 -4 10 -10 10 -5 0
-10 -4 -10 -10z"/>
</g>
</svg>
