<svg version="1.0" xmlns="http://www.w3.org/2000/svg"
 width="67.000000pt" height="125.000000pt" viewBox="0 0 67.000000 125.000000"
 preserveAspectRatio="xMidYMid meet">
<metadata>
Created by potrace 1.15, written by Peter Selinger 2001-2017
</metadata>
<g transform="translate(0.000000,125.000000) scale(0.100000,-0.100000)"
fill="#000000" stroke="none">
<path d="M90 1110 c0 -6 7 -22 16 -36 9 -13 22 -56 28 -94 12 -71 10 -105 -19
-280 -18 -103 -21 -237 -7 -305 43 -204 67 -286 93 -316 41 -48 46 23 8 108
-10 24 -19 52 -19 63 0 25 -20 110 -31 131 -13 27 -31 180 -24 208 4 14 9 42
11 61 3 19 9 52 15 73 14 53 14 330 0 335 -6 2 -11 11 -11 21 0 9 -5 22 -12
29 -15 15 -48 16 -48 2z"/>
<path d="M440 1105 c-85 -19 -106 -31 -120 -65 -25 -61 26 -188 61 -153 8 8 5
27 -11 74 -23 63 -23 63 0 81 12 10 38 18 59 18 31 0 40 -5 52 -27 8 -16 20
-34 26 -41 7 -7 18 -21 25 -30 7 -10 28 -28 46 -41 54 -38 87 -7 36 34 -46 37
-60 50 -82 80 -22 27 -22 30 -5 36 10 4 33 8 51 8 25 1 32 5 32 21 0 18 -6 20
-57 19 -32 -1 -83 -7 -113 -14z"/>
<path d="M214 1043 c23 -128 16 -272 -16 -336 -6 -12 -4 -22 7 -33 19 -20 16
-24 43 57 25 75 30 211 11 299 -9 40 -15 50 -31 50 -18 0 -19 -4 -14 -37z"/>
<path d="M35 1013 c13 -48 18 -233 6 -233 -6 0 -11 -11 -11 -24 0 -13 -7 -40
-15 -59 -17 -42 -18 -47 -6 -66 8 -12 12 -12 25 2 9 8 16 22 16 29 0 8 4 18 9
23 32 36 43 272 16 325 -21 40 -50 41 -40 3z"/>
<path d="M425 866 c-85 -13 -95 -27 -95 -134 0 -70 2 -76 31 -103 17 -16 41
-29 54 -29 49 0 35 -64 -16 -75 -43 -10 -66 -39 -79 -102 -17 -78 -1 -125 49
-148 22 -10 47 -15 55 -12 39 15 46 -1 46 -112 0 -79 4 -112 15 -127 26 -35
31 0 27 190 -4 183 -4 183 27 189 18 4 31 13 31 22 0 19 -64 20 -132 2 -61
-16 -71 -27 -24 -27 31 0 38 -4 47 -27 16 -43 -5 -96 -26 -63 -4 6 -11 8 -16
5 -17 -11 -46 5 -57 31 -21 45 -12 134 14 134 8 0 14 5 14 10 0 6 43 10 110
10 111 0 111 0 108 -87 -3 -85 -4 -88 -28 -91 -27 -4 -50 -19 -50 -33 0 -5 21
-9 46 -9 63 0 73 15 74 115 0 62 -4 87 -20 112 -17 29 -24 32 -77 35 -55 3
-58 5 -61 30 -3 24 1 28 40 38 24 6 48 13 55 15 28 9 46 74 39 140 -10 99 -4
93 -111 109 -11 2 -51 -2 -90 -8z m143 -63 c3 -31 3 -31 -75 -35 -43 -2 -88
-1 -100 2 -20 5 -20 7 -9 35 13 30 13 30 97 30 84 0 84 0 87 -32z m7 -100 c-3
-21 -10 -41 -13 -45 -9 -9 -166 -13 -181 -4 -6 4 -11 22 -11 41 0 39 -1 38
129 43 83 3 83 3 76 -35z"/>
<path d="M215 609 c-12 -19 -9 -213 4 -237 6 -11 11 -35 11 -53 0 -58 42 -170
65 -173 17 -2 17 54 1 95 -30 73 -39 124 -45 248 -6 118 -16 153 -36 120z"/>
<path d="M8 548 c-6 -17 8 -311 18 -363 7 -41 38 -95 55 -95 22 0 20 35 -5
111 -22 66 -27 103 -30 212 -2 73 -4 135 -5 140 -2 12 -29 8 -33 -5z"/>
</g>
</svg>
