<svg version="1.0" xmlns="http://www.w3.org/2000/svg"
 width="55.000000pt" height="77.000000pt" viewBox="0 0 55.000000 77.000000"
 preserveAspectRatio="xMidYMid meet">
<metadata>
Created by potrace 1.15, written by Peter Selinger 2001-2017
</metadata>
<g transform="translate(0.000000,77.000000) scale(0.100000,-0.100000)"
fill="#000000" stroke="none">
<path d="M163 653 c-57 -7 -34 -39 32 -45 33 -2 41 -7 43 -27 5 -32 -12 -41
-80 -41 -44 0 -58 -4 -58 -15 0 -10 16 -15 63 -17 62 -3 62 -3 67 -247 4 -191
8 -241 17 -230 8 10 14 91 19 246 7 231 7 231 56 237 69 9 59 36 -13 36 -25 0
-29 4 -29 29 0 21 6 30 23 35 48 13 83 6 108 -20 24 -26 24 -26 24 -263 0
-210 2 -240 18 -264 9 -15 24 -27 32 -27 19 0 19 0 -1 68 -14 48 -16 90 -11
266 3 130 1 218 -5 231 -18 40 -69 55 -176 53 -53 0 -112 -3 -129 -5z"/>
<path d="M80 436 c0 -36 32 -86 56 -86 8 0 14 -9 14 -20 0 -17 -7 -20 -40 -20
-29 0 -40 -4 -40 -15 0 -11 11 -15 40 -15 33 0 40 -3 40 -19 0 -14 -10 -21
-32 -26 -53 -12 -58 -21 -58 -101 0 -58 3 -74 15 -74 11 0 15 16 17 68 3 65 4
67 31 70 29 4 29 4 22 -73 -7 -72 -6 -77 11 -73 27 5 33 58 26 246 -5 158 -13
197 -26 127 -4 -21 -13 -35 -22 -35 -15 0 -18 5 -28 53 -9 38 -26 34 -26 -7z"/>
<path d="M316 454 c-3 -9 -6 -108 -6 -221 0 -159 3 -204 13 -201 8 3 13 33 15
92 4 109 23 113 35 8 9 -77 21 -92 31 -41 15 75 -3 144 -39 153 -38 10 -34 46
5 46 20 0 30 5 30 15 0 10 -10 15 -30 15 -25 0 -30 4 -30 25 0 17 5 25 18 25
10 0 23 5 30 12 14 14 16 88 3 88 -11 0 -21 -25 -21 -50 0 -10 -7 -20 -15 -24
-12 -4 -15 3 -15 34 0 40 -13 53 -24 24z"/>
</g>
</svg>
