<svg version="1.0" xmlns="http://www.w3.org/2000/svg"
 width="70.000000pt" height="86.000000pt" viewBox="0 0 70.000000 86.000000"
 preserveAspectRatio="xMidYMid meet">
<metadata>
Created by potrace 1.15, written by Peter Selinger 2001-2017
</metadata>
<g transform="translate(0.000000,86.000000) scale(0.100000,-0.100000)"
fill="#000000" stroke="none">
<path d="M272 698 c-19 -7 -41 -26 -50 -41 -17 -28 -16 -29 11 -53 15 -13 39
-24 52 -24 38 0 37 -14 -3 -52 -27 -26 -54 -40 -97 -50 -38 -10 -60 -20 -60
-29 0 -11 14 -13 60 -11 71 5 69 -2 -5 -21 -72 -19 -77 -37 -10 -37 66 0 63
-18 -5 -41 -60 -20 -75 -45 -23 -36 95 15 141 60 154 147 8 54 31 103 46 98
29 -10 5 -140 -33 -174 -22 -20 -25 -34 -6 -34 16 0 58 45 77 83 7 15 17 27
21 27 5 0 11 -12 14 -27 19 -88 58 -126 124 -121 54 4 53 19 0 33 -55 13 -58
26 -11 47 37 16 37 16 2 17 -62 2 -70 19 -12 27 71 9 74 21 7 26 -30 3 -63 12
-72 20 -10 9 -27 18 -38 20 -15 2 -21 13 -23 38 -5 44 -16 58 -70 81 -37 16
-42 22 -32 34 19 22 92 19 123 -5 14 -11 31 -37 37 -58 20 -66 32 -81 77 -98
24 -9 46 -14 50 -10 3 3 -11 21 -32 39 -43 37 -41 57 6 57 18 0 28 4 24 10 -3
6 -19 10 -35 10 -16 0 -32 5 -36 11 -8 14 14 29 44 29 12 0 22 4 22 9 0 12
-26 21 -59 21 -16 0 -39 9 -53 20 -32 25 -139 35 -186 18z"/>
<path d="M275 300 c-83 -33 -109 -90 -59 -129 38 -30 80 -27 116 9 40 41 34
65 -16 65 -23 0 -41 -5 -43 -12 -3 -8 4 -13 17 -13 13 0 20 -5 18 -12 -3 -7
-16 -13 -29 -13 -33 0 -36 35 -4 58 32 23 110 34 130 17 26 -21 18 -65 -16
-94 -17 -14 -34 -26 -38 -26 -9 0 -41 -54 -41 -69 0 -6 11 -16 26 -21 19 -8
34 -5 64 10 53 27 74 25 126 -12 60 -43 68 -28 14 27 -54 55 -71 61 -112 41
-59 -30 -61 -16 -4 38 54 52 64 74 50 111 -18 45 -115 57 -199 25z"/>
</g>
</svg>
