<svg version="1.0" xmlns="http://www.w3.org/2000/svg"
 width="66.000000pt" height="85.000000pt" viewBox="0 0 66.000000 85.000000"
 preserveAspectRatio="xMidYMid meet">
<metadata>
Created by potrace 1.15, written by Peter Selinger 2001-2017
</metadata>
<g transform="translate(0.000000,85.000000) scale(0.100000,-0.100000)"
fill="#000000" stroke="none">
<path d="M473 651 c-36 -23 -42 -45 -46 -165 -1 -56 2 -80 10 -83 20 -7 33 42
33 121 0 77 9 96 47 96 34 0 46 -33 39 -108 -8 -79 -14 -91 -77 -151 -59 -57
-63 -88 -21 -147 45 -61 110 -116 135 -112 36 5 27 38 -18 63 -47 27 -84 78
-84 119 -1 21 13 43 52 86 58 63 67 90 67 210 0 66 -10 80 -67 86 -27 4 -47
-1 -70 -15z"/>
<path d="M140 578 c-41 -44 -77 -85 -79 -91 -2 -6 10 -7 34 -3 32 6 41 4 66
-20 27 -26 29 -32 29 -110 0 -79 -1 -82 -24 -86 -43 -8 -51 5 -51 84 0 57 -3
73 -15 76 -12 2 -19 -12 -28 -56 -24 -114 -11 -147 61 -159 36 -5 36 -5 21
-42 -8 -20 -28 -53 -44 -73 -35 -43 -38 -68 -10 -68 28 0 58 36 97 118 25 51
42 74 58 78 47 12 75 55 82 127 5 57 3 67 -11 73 -24 9 -26 4 -36 -67 -9 -59
-30 -96 -50 -84 -4 3 -5 37 -2 77 4 74 22 116 62 153 17 16 24 16 44 5 23 -12
46 -8 46 9 0 10 -155 141 -166 140 -5 0 -43 -36 -84 -81z m106 -69 c-28 -41
-28 -41 -57 -13 -16 15 -29 31 -29 36 0 4 17 19 37 33 37 25 38 25 57 5 19
-19 19 -19 -8 -61z"/>
</g>
</svg>
