<svg version="1.0" xmlns="http://www.w3.org/2000/svg"
 width="65.000000pt" height="88.000000pt" viewBox="0 0 65.000000 88.000000"
 preserveAspectRatio="xMidYMid meet">
<metadata>
Created by potrace 1.15, written by Peter Selinger 2001-2017
</metadata>
<g transform="translate(0.000000,88.000000) scale(0.100000,-0.100000)"
fill="#000000" stroke="none">
<path d="M183 646 c-104 -84 -124 -107 -113 -126 8 -12 15 -9 43 18 40 39 47
39 87 6 59 -50 62 -68 39 -194 -30 -163 -35 -173 -80 -150 -22 12 -25 58 -9
158 11 65 2 102 -24 102 -10 0 -15 -30 -19 -112 -4 -62 -4 -123 -1 -134 6 -21
42 -44 69 -44 20 0 19 -8 -10 -59 -29 -50 -32 -76 -9 -67 9 3 17 6 20 6 5 0
59 117 69 148 7 25 41 42 81 42 14 0 38 7 54 15 31 16 34 26 45 148 5 56 3 68
-10 73 -23 9 -25 4 -37 -78 -6 -40 -17 -81 -26 -90 -15 -18 -57 -24 -66 -10
-8 13 14 215 25 228 5 6 27 24 48 38 34 24 41 25 65 15 31 -14 45 -5 30 19
-21 33 -136 112 -164 112 -19 0 -52 -20 -107 -64z m150 1 c35 -27 29 -46 -24
-82 -40 -26 -40 -26 -68 -6 -51 36 -53 45 -23 73 47 44 75 48 115 15z"/>
<path d="M520 681 c-14 -27 -14 -597 0 -606 6 -4 17 -1 25 5 22 19 22 620 0
620 -8 0 -19 -9 -25 -19z"/>
</g>
</svg>
