<svg version="1.0" xmlns="http://www.w3.org/2000/svg"
 width="72.000000pt" height="119.000000pt" viewBox="0 0 72.000000 119.000000"
 preserveAspectRatio="xMidYMid meet">
<metadata>
Created by potrace 1.15, written by Peter Selinger 2001-2017
</metadata>
<g transform="translate(0.000000,119.000000) scale(0.100000,-0.100000)"
fill="#000000" stroke="none">
<path d="M509 1053 c0 -10 0 -84 1 -164 1 -123 -1 -147 -15 -159 -14 -11 -19
-11 -33 4 -13 13 -17 35 -17 104 0 88 -8 112 -39 112 -13 0 -16 -15 -16 -94 0
-53 4 -98 10 -101 6 -3 10 -13 10 -22 0 -18 48 -63 67 -63 15 0 26 -38 21 -76
-3 -26 -8 -30 -53 -38 -46 -9 -64 -20 -65 -38 0 -5 27 -8 59 -8 60 0 60 0 58
-57 -2 -58 -2 -58 -62 -61 -33 -2 -64 -7 -69 -12 -18 -18 15 -39 67 -42 52 -3
52 -3 59 -43 4 -22 8 -91 8 -153 0 -93 2 -114 16 -119 30 -11 35 13 35 166 -1
169 -14 151 112 155 35 1 43 5 45 22 4 25 -19 37 -48 26 -10 -4 -40 -6 -65 -4
-46 4 -46 4 -43 61 3 56 3 56 71 59 68 3 68 3 65 30 -3 26 -6 27 -58 28 -83 1
-80 -1 -80 53 0 47 1 49 38 64 79 32 102 71 102 172 0 73 -15 115 -42 115 -16
0 -18 -10 -18 -99 0 -99 0 -100 -30 -121 -16 -12 -34 -19 -39 -15 -11 6 -7
233 4 277 5 19 2 32 -8 43 -21 20 -47 19 -48 -2z"/>
<path d="M139 1014 c-20 -24 -17 -149 4 -203 18 -44 15 -81 -6 -81 -16 0 -58
-38 -85 -77 -55 -78 -5 -202 75 -187 43 8 53 -14 24 -55 -16 -21 -18 -31 -9
-34 8 -3 5 -6 -5 -6 -35 -2 -87 -85 -87 -140 0 -28 24 -60 65 -87 20 -13 31
-14 56 -5 36 12 79 58 79 83 0 9 4 20 10 23 6 3 10 15 10 25 0 10 9 22 20 25
41 13 59 45 41 74 -7 11 -15 10 -45 -4 -20 -10 -36 -22 -36 -29 0 -6 -9 -22
-20 -36 -11 -14 -20 -32 -20 -41 0 -22 -37 -59 -60 -59 -19 0 -50 25 -50 40 0
5 7 15 15 24 8 8 15 22 15 30 0 9 3 16 8 16 4 0 12 10 18 23 6 12 26 46 44 75
33 52 33 52 14 87 -18 34 -20 35 -69 30 -60 -6 -76 3 -77 41 -1 49 11 73 59
109 38 29 55 35 93 35 63 0 112 -41 108 -90 -3 -37 -11 -44 -43 -36 -17 4 -27
16 -33 38 -4 17 -13 33 -19 35 -20 7 -19 -40 1 -84 16 -34 25 -43 54 -48 27
-5 39 -2 58 16 20 19 24 32 24 80 0 51 -3 60 -34 91 -19 19 -52 38 -77 45 -39
11 -47 18 -66 60 -32 71 -34 80 -23 130 16 69 -1 103 -31 67z"/>
</g>
</svg>
