<svg version="1.0" xmlns="http://www.w3.org/2000/svg"
 width="93.000000pt" height="119.000000pt" viewBox="0 0 93.000000 119.000000"
 preserveAspectRatio="xMidYMid meet">
<metadata>
Created by potrace 1.15, written by Peter Selinger 2001-2017
</metadata>
<g transform="translate(0.000000,119.000000) scale(0.100000,-0.100000)"
fill="#000000" stroke="none">
<path d="M65 1050 c-19 -58 -4 -682 17 -707 17 -20 26 -15 33 17 5 24 14 32
36 37 42 8 44 19 5 43 -40 24 -44 39 -42 155 1 73 3 81 24 90 28 12 28 21 -1
40 -21 14 -24 23 -26 108 -2 101 1 109 52 121 37 9 34 31 -5 42 -20 6 -34 17
-37 29 -8 45 -45 61 -56 25z"/>
<path d="M510 1010 c0 -47 -3 -60 -15 -60 -22 0 -105 41 -105 51 0 5 -9 9 -20
9 -25 0 -25 -5 1 -41 18 -25 61 -51 122 -72 14 -5 17 -17 15 -72 -1 -36 -6
-69 -12 -74 -6 -4 -29 -11 -51 -14 -22 -4 -47 -15 -57 -27 -19 -24 -33 -115
-23 -158 7 -35 51 -84 95 -107 23 -12 30 -22 30 -45 0 -26 -7 -32 -66 -60 -36
-18 -71 -29 -79 -26 -13 5 -30 -22 -20 -32 3 -3 26 0 53 7 26 7 62 15 80 18
29 5 32 3 32 -21 0 -17 -4 -25 -11 -20 -6 3 -4 -5 6 -19 21 -32 45 -25 45 13
0 37 10 42 44 24 32 -16 72 -19 81 -5 6 11 -67 64 -102 75 -17 5 -23 15 -23
37 0 24 6 31 35 44 99 41 149 114 135 197 -9 51 -31 72 -95 93 -55 17 -55 17
-55 100 0 83 0 83 50 119 37 27 50 42 50 61 0 32 -7 31 -50 -5 -19 -17 -38
-30 -42 -30 -4 0 -8 16 -8 36 0 31 -18 64 -34 64 -3 0 -6 -27 -6 -60z m-20
-349 c0 -31 -16 -40 -57 -33 -46 8 -20 62 29 62 24 0 28 -4 28 -29z m115 8
c36 -17 45 -26 45 -46 0 -24 -2 -24 -42 -18 -24 4 -47 12 -53 17 -7 8 -6 9 3
4 7 -4 12 -1 12 8 0 9 5 16 10 16 6 0 10 4 10 10 0 6 -9 6 -25 0 -21 -8 -25
-7 -25 10 0 25 10 25 65 -1z m-117 -141 c4 -45 -6 -47 -48 -12 -29 25 -30 27
-13 40 33 25 58 13 61 -28z m142 14 c0 -13 -43 -49 -67 -57 -21 -6 -23 -3 -23
29 0 36 0 36 45 36 25 0 45 -4 45 -8z"/>
<path d="M810 646 c0 -29 -3 -80 -6 -113 -5 -48 -3 -62 11 -76 9 -10 20 -15
24 -12 5 2 16 -4 25 -14 13 -14 15 -28 10 -60 -4 -22 -12 -41 -18 -41 -6 0 -4
-5 4 -10 17 -11 11 -12 -47 -10 -24 1 -43 -3 -43 -7 0 -12 47 -53 59 -53 16 0
23 -38 12 -59 -7 -13 -26 -22 -56 -27 -25 -3 -45 -10 -45 -14 0 -14 39 -41 74
-51 25 -7 36 -16 36 -28 0 -10 9 -29 20 -42 22 -28 19 -40 24 106 1 44 9 116
18 160 8 44 16 91 16 104 1 35 -25 80 -53 91 -19 7 -25 17 -25 39 0 46 9 60
46 67 42 8 43 17 2 43 -18 11 -41 29 -50 40 -28 33 -38 25 -38 -33z"/>
</g>
</svg>
