<svg version="1.0" xmlns="http://www.w3.org/2000/svg"
 width="64.000000pt" height="85.000000pt" viewBox="0 0 64.000000 85.000000"
 preserveAspectRatio="xMidYMid meet">
<metadata>
Created by potrace 1.15, written by Peter Selinger 2001-2017
</metadata>
<g transform="translate(0.000000,85.000000) scale(0.100000,-0.100000)"
fill="#000000" stroke="none">
<path d="M310 675 c0 -10 -10 -15 -30 -15 -27 0 -67 -14 -129 -44 -34 -16 -51
-77 -51 -187 0 -60 -6 -113 -15 -139 -18 -52 -18 -50 -1 -50 23 0 37 58 45
187 10 148 19 167 91 182 97 21 90 32 90 -143 0 -140 -2 -156 -21 -180 -11
-14 -27 -26 -34 -26 -20 0 -31 -27 -39 -93 -4 -35 -16 -73 -31 -97 -19 -31
-22 -40 -11 -40 24 0 66 52 72 90 13 79 17 91 37 105 26 18 78 20 95 3 7 -7
12 -30 12 -52 0 -49 34 -123 61 -131 29 -9 33 -1 15 28 -9 13 -23 56 -30 96
-16 81 -26 99 -64 103 -27 3 -27 3 -30 177 -2 174 -2 174 60 167 91 -10 108
-31 108 -137 0 -83 24 -214 42 -225 24 -15 30 15 14 78 -9 35 -16 93 -16 129
0 135 -36 185 -140 195 -38 4 -68 13 -73 20 -11 19 -27 18 -27 -1z"/>
<path d="M405 563 c-31 -8 -42 -23 -17 -23 29 0 30 -36 0 -59 -32 -26 -38
-119 -10 -144 27 -24 77 -15 98 19 21 32 11 109 -17 127 -28 17 -25 57 4 57
21 1 22 1 3 15 -20 15 -27 16 -61 8z m49 -109 c11 -28 7 -34 -23 -34 -35 0
-48 15 -31 35 16 20 46 19 54 -1z m-4 -73 c0 -15 -29 -33 -45 -27 -28 10 -17
36 15 36 17 0 30 -4 30 -9z"/>
<path d="M165 540 c-4 -6 5 -10 19 -10 21 0 26 -5 26 -25 0 -18 -7 -28 -24
-34 -28 -11 -36 -29 -36 -87 0 -52 26 -84 68 -84 43 0 62 28 62 89 0 43 -4 56
-25 75 -28 26 -33 54 -10 62 8 4 12 10 9 15 -7 12 -81 11 -89 -1z m80 -110 c0
-9 -11 -16 -27 -18 -30 -4 -31 -2 -22 23 8 20 49 16 49 -5z m5 -70 c0 -40 -60
-36 -68 4 -3 12 4 16 32 16 30 0 36 -4 36 -20z"/>
</g>
</svg>
