<svg version="1.0" xmlns="http://www.w3.org/2000/svg"
 width="60.000000pt" height="86.000000pt" viewBox="0 0 60.000000 86.000000"
 preserveAspectRatio="xMidYMid meet">
<metadata>
Created by potrace 1.15, written by Peter Selinger 2001-2017
</metadata>
<g transform="translate(0.000000,86.000000) scale(0.100000,-0.100000)"
fill="#000000" stroke="none">
<path d="M214 761 c-51 -23 -74 -55 -74 -101 0 -70 66 -100 186 -85 72 9 114
45 114 98 0 52 -8 66 -51 87 -48 25 -121 25 -175 1z m140 -31 c53 -20 60 -96
11 -118 -31 -14 -114 -16 -148 -3 -32 12 -42 43 -25 78 23 48 98 68 162 43z"/>
<path d="M263 693 c-16 -6 -17 -39 -2 -48 16 -11 56 3 63 22 10 25 -25 41 -61
26z"/>
<path d="M450 575 c0 -9 9 -33 20 -55 14 -27 20 -58 20 -102 -1 -72 -16 -98
-88 -142 -23 -15 -50 -41 -58 -59 -14 -30 -14 -37 -1 -69 24 -56 123 -112 147
-83 9 11 5 18 -17 31 -50 32 -83 67 -83 91 0 40 26 38 71 -5 44 -43 85 -60
102 -43 8 8 -6 26 -47 63 -59 52 -59 52 -35 72 44 39 59 72 59 133 0 89 -39
183 -77 183 -7 0 -13 -7 -13 -15z"/>
<path d="M72 563 c-18 -35 -34 -172 -28 -226 8 -60 21 -78 80 -102 20 -9 36
-21 33 -28 -2 -7 -29 -32 -61 -56 -51 -39 -56 -45 -43 -59 14 -13 20 -11 59
18 24 19 55 45 70 59 55 49 49 -10 -7 -76 -36 -43 -45 -73 -21 -73 39 0 130
128 119 169 -4 14 -33 35 -89 63 -64 31 -86 48 -91 66 -8 33 5 189 18 214 7
14 7 23 -2 34 -15 19 -26 18 -37 -3z"/>
<path d="M228 543 c-26 -3 -46 -14 -67 -39 -27 -30 -31 -42 -30 -92 1 -83 10
-105 49 -125 50 -26 165 -19 209 13 40 28 51 56 51 126 0 48 -4 60 -29 85 -16
16 -40 29 -53 29 -13 0 -39 2 -58 4 -19 2 -52 2 -72 -1z m133 -33 c38 -21 18
-30 -66 -30 -115 0 -115 23 0 33 22 2 41 4 43 5 2 1 12 -3 23 -8z m39 -85 c0
-12 -19 -15 -110 -15 -91 0 -110 3 -110 15 0 12 19 15 110 15 91 0 110 -3 110
-15z m-16 -76 c-50 -49 -204 -44 -204 7 0 11 24 14 112 14 112 0 112 0 92 -21z"/>
</g>
</svg>
