<svg version="1.0" xmlns="http://www.w3.org/2000/svg"
 width="63.000000pt" height="87.000000pt" viewBox="0 0 63.000000 87.000000"
 preserveAspectRatio="xMidYMid meet">
<metadata>
Created by potrace 1.15, written by Peter Selinger 2001-2017
</metadata>
<g transform="translate(0.000000,87.000000) scale(0.100000,-0.100000)"
fill="#000000" stroke="none">
<path d="M250 767 c-83 -22 -85 -39 -8 -78 40 -20 48 -36 23 -45 -8 -3 -28
-26 -45 -52 -25 -37 -30 -56 -30 -103 0 -72 14 -104 52 -120 32 -13 105 -6
146 13 42 21 64 74 59 142 -3 54 -7 62 -46 98 -23 22 -40 46 -38 53 3 6 23 21
44 32 40 21 54 47 30 56 -32 12 -145 15 -187 4z m140 -37 c0 -13 -54 -40 -80
-40 -11 0 -33 8 -48 18 -26 17 -26 17 23 23 82 10 105 10 105 -1z m-29 -122
c33 -33 33 -33 -7 -36 -56 -3 -84 -11 -84 -22 0 -14 104 -12 118 2 14 14 26
-10 20 -39 -3 -15 -12 -17 -55 -15 -52 4 -93 -10 -93 -30 0 -7 23 -9 70 -6 71
5 78 2 60 -31 -14 -27 -104 -37 -136 -16 -20 13 -24 24 -24 65 0 57 14 94 49
133 32 35 42 34 82 -5z"/>
<path d="M460 656 c0 -2 9 -23 20 -47 42 -93 12 -212 -69 -277 -52 -42 -68
-82 -53 -137 21 -80 82 -149 125 -143 22 3 22 3 -1 23 -13 11 -37 44 -54 74
-27 46 -30 58 -22 90 12 49 33 49 69 0 25 -35 70 -69 90 -69 15 0 0 27 -40 73
-40 46 -59 97 -37 97 21 0 62 118 62 180 0 41 -53 140 -75 140 -8 0 -15 -2
-15 -4z"/>
<path d="M109 593 c-38 -101 -30 -191 23 -244 22 -22 28 -34 22 -51 -8 -27
-38 -73 -72 -110 -13 -15 -21 -32 -17 -38 9 -14 63 35 102 94 15 23 28 43 30
45 9 14 33 -27 33 -56 0 -39 -45 -151 -68 -170 -23 -19 -5 -28 24 -12 32 17
68 86 84 162 14 68 13 70 -68 130 -71 52 -83 81 -75 191 6 88 0 107 -18 59z"/>
</g>
</svg>
