<svg version="1.0" xmlns="http://www.w3.org/2000/svg"
 width="151.000000pt" height="155.000000pt" viewBox="0 0 151.000000 155.000000"
 preserveAspectRatio="xMidYMid meet">
<metadata>
Created by potrace 1.15, written by Peter Selinger 2001-2017
</metadata>
<g transform="translate(0.000000,155.000000) scale(0.100000,-0.100000)"
fill="#000000" stroke="none">
<path d="M750 1449 c-14 -11 -35 -29 -48 -40 -12 -10 -26 -19 -31 -19 -4 0
-16 -9 -26 -20 -10 -11 -21 -17 -26 -14 -5 2 -18 -6 -30 -20 -12 -14 -25 -23
-29 -21 -4 3 -15 -4 -25 -15 -17 -19 -18 -19 -46 4 -27 23 -72 26 -84 5 -3 -4
10 -42 30 -83 19 -41 35 -78 35 -83 0 -5 13 -30 30 -56 17 -26 30 -54 30 -62
0 -8 5 -15 10 -15 6 0 10 -5 10 -10 0 -20 86 -136 140 -190 80 -79 108 -100
129 -100 11 0 23 -4 26 -10 11 -17 83 -12 101 8 30 34 81 108 111 162 16 30
44 80 60 110 29 52 40 92 61 233 8 51 6 61 -12 85 -24 31 -38 42 -46 37 -4 -2
-12 -36 -19 -75 -10 -54 -17 -70 -29 -70 -10 0 -66 50 -125 110 -60 61 -115
110 -123 110 -8 0 -14 8 -14 18 0 17 -18 42 -29 42 -4 -1 -17 -10 -31 -21z
m115 -224 c60 -57 85 -86 75 -89 -8 -2 -55 -7 -105 -11 -49 -3 -118 -13 -152
-21 -72 -18 -99 -9 -109 34 -4 15 -11 32 -15 38 -8 9 31 54 47 54 3 0 26 14
51 31 41 28 82 46 108 48 6 0 50 -38 100 -84z m175 -184 c0 -3 -8 -27 -17 -54
-16 -45 -18 -47 -49 -41 -18 3 -85 -2 -149 -11 -117 -17 -117 -17 -145 17 -16
18 -25 34 -22 34 14 3 98 27 122 35 33 10 115 20 162 19 20 0 39 4 42 8 6 10
56 4 56 -7z m-100 -199 c0 -10 -9 -25 -20 -35 -22 -18 -70 -23 -70 -7 0 6 -9
10 -20 10 -11 0 -20 5 -20 10 0 6 0 13 0 18 0 6 45 14 113 20 10 1 17 -5 17
-16z"/>
<path d="M233 1073 c-4 -10 -29 -51 -57 -92 -28 -40 -55 -81 -61 -90 -5 -9
-12 -18 -15 -21 -3 -3 -13 -18 -23 -35 -52 -86 -59 -138 -20 -143 20 -3 59 39
122 132 8 11 34 47 58 79 57 77 72 127 49 162 -19 29 -44 33 -53 8z"/>
<path d="M525 660 c-3 -5 -15 -10 -26 -10 -26 0 -59 -20 -84 -50 -11 -14 -35
-40 -52 -58 -40 -39 -42 -59 -7 -72 39 -15 49 -13 96 23 46 35 124 69 200 88
38 9 50 9 60 -2 14 -15 44 -97 37 -102 -32 -19 -51 -27 -64 -27 -8 0 -15 -4
-15 -10 0 -5 -10 -10 -23 -10 -13 0 -46 -11 -74 -25 -28 -13 -63 -27 -78 -31
-25 -6 -25 -7 -8 -26 34 -37 49 -40 120 -19 38 11 85 22 106 25 36 5 37 4 37
-28 0 -44 -66 -147 -137 -213 -62 -57 -63 -79 -5 -68 25 5 53 24 99 71 34 35
63 69 63 76 0 7 8 18 18 24 32 20 46 90 43 217 -1 64 1 117 4 117 4 0 37 -17
73 -37 73 -41 105 -69 142 -125 23 -35 54 -53 72 -42 4 3 8 23 8 45 0 54 -53
135 -108 167 -151 86 -241 112 -384 112 -60 0 -110 -4 -113 -10z"/>
<path d="M1415 569 c-15 -35 -55 -79 -73 -79 -5 0 -15 13 -20 29 -11 30 -60
71 -78 64 -14 -5 -7 -58 25 -203 20 -89 9 -152 -22 -121 -6 6 -40 11 -75 11
-54 0 -63 -2 -60 -17 2 -9 12 -20 23 -23 11 -3 32 -13 45 -23 57 -41 149 -94
206 -120 68 -30 98 -28 89 7 -11 40 -28 66 -47 72 -17 5 -22 15 -19 40 1 6 -8
39 -19 74 -23 71 -25 90 -9 90 18 0 89 81 89 102 0 10 7 32 16 49 16 33 11 69
-11 69 -7 0 -21 3 -29 6 -12 4 -20 -3 -31 -27z"/>
<path d="M168 418 c-19 -18 -48 -55 -66 -83 -17 -27 -35 -54 -40 -60 -33 -41
-48 -125 -22 -125 20 0 69 34 112 76 63 62 78 58 156 -48 33 -46 69 -94 81
-107 24 -27 51 -22 51 10 0 28 -41 110 -57 116 -7 3 -13 11 -13 19 0 8 -4 14
-9 14 -5 0 -14 14 -21 30 -7 17 -16 30 -20 30 -4 0 -20 26 -35 58 -27 55 -61
102 -75 102 -4 0 -23 -15 -42 -32z"/>
</g>
</svg>
