<svg version="1.0" xmlns="http://www.w3.org/2000/svg"
 width="45.000000pt" height="67.000000pt" viewBox="0 0 45.000000 67.000000"
 preserveAspectRatio="xMidYMid meet">
<metadata>
Created by potrace 1.15, written by Peter Selinger 2001-2017
</metadata>
<g transform="translate(0.000000,67.000000) scale(0.100000,-0.100000)"
fill="#000000" stroke="none">
<path d="M170 538 c0 -7 -18 -48 -39 -91 -21 -42 -35 -79 -31 -82 12 -8 33 17
54 64 11 22 22 41 26 41 4 0 15 -16 24 -35 16 -33 16 -37 -1 -68 -10 -17 -21
-33 -25 -35 -10 -5 -10 -42 0 -42 4 0 18 18 32 40 14 22 29 39 35 37 13 -5 7
-44 -13 -82 -19 -36 -30 -195 -14 -195 14 0 32 63 32 110 0 19 9 60 20 90 22
60 25 96 10 105 -15 9 -11 27 12 55 13 16 22 21 25 13 8 -22 41 -58 47 -52 11
11 -20 111 -37 121 -20 11 -37 3 -37 -18 0 -7 -10 -25 -22 -39 -17 -20 -24
-22 -36 -13 -13 12 -34 53 -36 72 -2 15 -26 19 -26 4z"/>
</g>
</svg>
