<svg version="1.0" xmlns="http://www.w3.org/2000/svg"
 width="51.000000pt" height="95.000000pt" viewBox="0 0 51.000000 95.000000"
 preserveAspectRatio="xMidYMid meet">
<metadata>
Created by potrace 1.15, written by Peter Selinger 2001-2017
</metadata>
<g transform="translate(0.000000,95.000000) scale(0.100000,-0.100000)"
fill="#000000" stroke="none">
<path d="M301 725 c-22 -51 -22 -50 -83 -2 -33 25 -39 26 -44 12 -4 -9 -28
-52 -54 -96 -30 -51 -46 -88 -43 -100 9 -32 42 -2 81 74 28 55 37 65 51 57 46
-27 46 -27 13 -65 -44 -49 -42 -78 6 -102 37 -18 37 -18 43 -158 6 -139 18
-266 25 -274 9 -10 12 15 19 189 4 102 9 187 11 189 6 6 -23 50 -53 82 -22 24
-23 29 -11 48 7 11 16 21 20 21 15 0 108 -54 108 -62 0 -4 5 -8 10 -8 21 0 8
23 -41 71 -49 48 -51 51 -39 79 7 17 15 30 18 30 3 0 27 -22 53 -50 48 -51 74
-64 62 -32 -4 9 -9 19 -12 22 -4 3 -18 20 -33 38 -15 18 -41 44 -57 58 -30 25
-30 25 -50 -21z"/>
</g>
</svg>
