<svg version="1.0" xmlns="http://www.w3.org/2000/svg"
 width="76.000000pt" height="88.000000pt" viewBox="0 0 76.000000 88.000000"
 preserveAspectRatio="xMidYMid meet">
<metadata>
Created by potrace 1.15, written by Peter Selinger 2001-2017
</metadata>
<g transform="translate(0.000000,88.000000) scale(0.100000,-0.100000)"
fill="#000000" stroke="none">
<path d="M305 680 c-27 -22 -66 -48 -86 -59 -19 -11 -41 -27 -48 -35 -8 -9
-19 -16 -26 -16 -19 0 -65 -40 -65 -56 0 -18 30 -18 57 1 11 8 49 30 84 48 35
19 80 43 99 55 46 29 71 28 100 -4 21 -21 22 -27 10 -34 -8 -5 -32 -10 -52
-10 -20 0 -43 -3 -52 -6 -29 -11 -16 -24 24 -24 43 0 45 -2 30 -31 -15 -27
-30 -24 -63 11 -41 43 -67 41 -35 -2 29 -39 58 -96 58 -115 0 -24 -39 -13 -79
22 -21 19 -40 35 -43 35 -10 0 -108 -99 -108 -109 0 -19 23 -12 64 19 44 34
63 37 92 15 10 -8 31 -15 45 -15 38 0 43 -25 20 -84 -11 -28 -25 -70 -31 -93
-7 -29 -29 -62 -66 -103 -43 -46 -52 -61 -41 -66 39 -14 123 93 157 199 18 58
41 46 55 -29 6 -33 21 -74 33 -91 25 -35 80 -73 106 -73 25 0 19 19 -11 37
-40 23 -73 78 -85 142 -8 43 -7 56 3 60 7 2 22 14 34 27 26 28 43 30 71 9 22
-16 64 -20 64 -5 0 5 -15 17 -32 25 -18 8 -46 23 -62 33 -23 14 -30 14 -34 3
-2 -7 -17 -27 -31 -44 -20 -22 -32 -28 -48 -23 -18 6 -23 18 -29 73 -7 73 6
110 66 181 28 34 28 34 90 12 110 -39 121 -1 13 44 -36 15 -92 47 -124 71 -31
25 -61 45 -66 45 -4 0 -30 -18 -58 -40z"/>
<path d="M480 471 c0 -5 -18 -26 -40 -47 -52 -49 -37 -64 25 -25 48 30 48 30
86 11 46 -24 59 -25 59 -4 0 8 -15 21 -33 29 -19 8 -39 21 -47 29 -13 17 -50
22 -50 7z"/>
<path d="M188 305 c-13 -19 -31 -37 -40 -41 -22 -7 -24 -34 -2 -34 8 0 31 12
50 26 31 24 37 25 64 14 17 -7 34 -10 38 -6 6 7 -66 75 -80 76 -4 0 -18 -16
-30 -35z"/>
</g>
</svg>
