<svg version="1.0" xmlns="http://www.w3.org/2000/svg"
 width="63.000000pt" height="109.000000pt" viewBox="0 0 63.000000 109.000000"
 preserveAspectRatio="xMidYMid meet">
<metadata>
Created by potrace 1.15, written by Peter Selinger 2001-2017
</metadata>
<g transform="translate(0.000000,109.000000) scale(0.100000,-0.100000)"
fill="#000000" stroke="none">
<path d="M305 1038 c-2 -7 -6 -35 -7 -63 -3 -43 -6 -50 -25 -53 -28 -4 -30
-28 -4 -37 26 -8 34 -37 26 -91 -7 -47 -10 -49 -49 -34 -32 12 -48 42 -57 109
-4 29 -12 58 -17 63 -7 7 -62 13 -99 9 -22 -2 -14 -31 8 -31 24 0 48 -26 49
-53 0 -20 36 -94 54 -112 20 -20 54 -35 80 -35 27 0 35 -13 28 -46 -3 -15 -16
-25 -42 -33 -51 -15 -76 -52 -90 -131 -17 -93 -38 -132 -77 -144 -19 -5 -33
-16 -33 -24 0 -12 9 -13 47 -8 26 3 52 11 57 16 6 6 16 36 22 68 28 137 52
182 96 182 16 0 18 -13 20 -152 2 -84 3 -202 3 -263 0 -110 5 -135 29 -135 10
0 11 59 8 275 -4 275 -4 275 19 275 30 -1 59 -22 59 -43 0 -9 4 -18 8 -21 5
-3 14 -31 21 -63 26 -115 50 -149 114 -157 44 -6 41 6 -8 29 -37 18 -47 39
-66 135 -19 103 -47 143 -111 161 -36 9 -39 13 -36 42 2 26 8 32 33 37 74 15
113 55 129 132 8 34 30 56 64 64 47 10 53 14 46 25 -8 14 -81 4 -98 -14 -7 -7
-24 -35 -37 -62 -19 -39 -37 -56 -75 -77 -27 -15 -52 -28 -56 -28 -5 0 -8 27
-8 60 0 57 1 60 24 60 13 0 29 7 36 15 10 13 7 17 -24 30 -39 16 -47 45 -25
86 7 15 7 24 -2 35 -14 17 -28 18 -34 2z"/>
</g>
</svg>
