<svg version="1.0" xmlns="http://www.w3.org/2000/svg"
 width="63.000000pt" height="71.000000pt" viewBox="0 0 63.000000 71.000000"
 preserveAspectRatio="xMidYMid meet">
<metadata>
Created by potrace 1.15, written by Peter Selinger 2001-2017
</metadata>
<g transform="translate(0.000000,71.000000) scale(0.100000,-0.100000)"
fill="#000000" stroke="none">
<path d="M398 605 c-7 -9 -18 -21 -24 -28 -19 -23 -64 -92 -64 -99 0 -17 30
-7 41 14 12 21 12 21 25 -3 16 -28 18 -69 4 -69 -17 0 -11 -30 11 -61 17 -24
27 -29 63 -29 46 0 63 13 84 63 11 26 10 29 -18 45 -34 19 -34 20 -20 57 8 20
15 25 28 20 28 -11 52 -14 52 -7 0 9 -148 112 -160 112 -5 0 -15 -7 -22 -15z
m49 -51 c6 -16 -15 -37 -29 -28 -4 3 -8 14 -8 25 0 23 28 26 37 3z m13 -85 c0
-14 -5 -19 -17 -17 -26 5 -29 38 -4 38 15 0 21 -6 21 -21z m30 -74 c0 -15 -46
-32 -57 -22 -3 4 -3 13 0 22 8 20 57 20 57 0z"/>
<path d="M200 518 c-20 -54 -32 -81 -52 -120 -11 -21 -14 -39 -9 -42 5 -4 12
-2 16 4 3 5 14 10 24 10 14 0 20 -11 25 -42 7 -43 -2 -58 -36 -58 -27 0 -21
-16 11 -30 27 -11 41 -34 41 -71 0 -8 -17 -23 -37 -33 -38 -18 -38 -18 12 -32
39 -10 57 -10 83 -1 37 13 37 26 -1 45 -23 11 -27 19 -27 57 0 25 5 45 13 48
9 3 7 8 -5 18 -13 11 -16 23 -11 57 5 41 7 43 36 40 34 -3 45 13 24 34 -22 21
-37 55 -37 81 0 20 -36 67 -52 67 -3 0 -11 -15 -18 -32z m32 -90 c-15 -15 -26
-4 -18 18 5 13 9 15 18 6 9 -9 9 -15 0 -24z"/>
<path d="M113 333 c-26 -5 -30 -18 -9 -26 20 -8 69 6 74 21 4 12 -20 14 -65 5z"/>
<path d="M382 285 c-15 -32 -16 -95 -2 -95 6 0 10 6 10 14 0 21 20 30 33 16 9
-10 9 -14 0 -17 -18 -6 -16 -30 2 -37 23 -9 18 -25 -12 -37 -22 -8 -24 -12
-13 -19 8 -6 23 -10 33 -10 9 0 23 -11 29 -25 15 -33 26 -32 30 2 2 19 10 29
26 33 33 7 31 24 -4 30 -35 6 -39 31 -6 45 27 12 29 25 2 25 -24 0 -27 28 -4
37 9 3 26 1 37 -6 21 -14 41 -3 29 16 -4 7 -24 19 -44 28 -35 14 -38 14 -57
-6 -20 -22 -20 -22 -32 5 -15 33 -42 34 -57 1z"/>
<path d="M100 195 c-16 -19 -14 -21 32 -29 39 -7 52 2 42 28 -8 21 -57 21 -74
1z"/>
</g>
</svg>
