<svg version="1.0" xmlns="http://www.w3.org/2000/svg"
 width="63.000000pt" height="89.000000pt" viewBox="0 0 63.000000 89.000000"
 preserveAspectRatio="xMidYMid meet">
<metadata>
Created by potrace 1.15, written by Peter Selinger 2001-2017
</metadata>
<g transform="translate(0.000000,89.000000) scale(0.100000,-0.100000)"
fill="#000000" stroke="none">
<path d="M289 740 c-118 -80 -208 -167 -195 -189 11 -18 34 -13 77 16 30 20
51 26 78 24 50 -4 55 -10 33 -35 -24 -25 -52 -90 -52 -120 0 -12 7 -31 15 -44
11 -15 13 -27 7 -39 -24 -47 -23 -85 5 -132 23 -38 28 -57 28 -116 0 -59 3
-70 18 -73 34 -7 47 17 47 87 0 60 3 70 26 92 42 39 47 55 33 108 -10 42 -10
51 4 72 25 35 21 94 -8 137 -14 20 -25 40 -25 43 0 4 23 12 51 18 46 10 53 9
87 -14 20 -14 47 -25 59 -25 34 0 31 43 -4 65 -16 10 -50 35 -78 57 -148 115
-140 112 -206 68z m107 -66 c19 -15 34 -30 34 -35 0 -5 -38 -9 -85 -9 -93 0
-100 8 -42 47 42 28 52 28 93 -3z m-26 -173 c10 -21 16 -48 13 -60 -11 -44
-103 -35 -103 9 0 37 44 105 61 94 5 -3 18 -22 29 -43z m-17 -174 c12 -37 -5
-77 -33 -77 -28 0 -34 20 -20 70 13 48 38 52 53 7z"/>
<path d="M305 480 c-11 -17 6 -50 25 -50 19 0 36 33 25 50 -3 5 -15 10 -25 10
-10 0 -22 -5 -25 -10z"/>
<path d="M443 534 c-8 -22 6 -166 18 -181 6 -6 20 -13 32 -15 33 -5 26 -29
-13 -50 -66 -36 -76 -75 -37 -142 31 -56 68 -81 96 -67 30 16 26 44 -9 64 -16
10 -32 28 -35 40 -12 57 -12 58 40 76 37 13 52 24 59 43 12 35 -12 72 -56 84
-22 7 -34 17 -36 31 -3 19 2 22 35 25 30 2 38 7 38 22 0 14 -10 22 -31 28 -18
4 -39 19 -48 33 -19 28 -44 33 -53 9z"/>
<path d="M162 528 c-7 -7 -12 -25 -12 -41 0 -33 -13 -61 -46 -96 -28 -30 -54
-81 -54 -106 0 -31 29 -73 56 -79 35 -9 39 -3 26 43 -13 42 -8 71 13 71 24 0
30 -83 9 -116 -24 -38 -65 -73 -86 -74 -50 -1 -65 -33 -23 -52 20 -9 33 -7 74
12 45 22 52 29 76 91 29 71 28 100 -2 165 -14 27 -13 34 1 62 27 53 0 152 -32
120z"/>
</g>
</svg>
