<svg version="1.0" xmlns="http://www.w3.org/2000/svg"
 width="65.000000pt" height="92.000000pt" viewBox="0 0 65.000000 92.000000"
 preserveAspectRatio="xMidYMid meet">
<metadata>
Created by potrace 1.15, written by Peter Selinger 2001-2017
</metadata>
<g transform="translate(0.000000,92.000000) scale(0.100000,-0.100000)"
fill="#000000" stroke="none">
<path d="M200 721 c-93 -5 -115 -9 -115 -21 0 -13 31 -15 208 -18 135 -1 207
-6 207 -13 0 -6 -5 -19 -10 -30 -10 -18 -23 -19 -180 -19 -105 0 -178 -4 -194
-11 -33 -15 -36 -38 -39 -312 -2 -196 0 -217 14 -217 9 0 20 8 24 18 3 9 6
116 5 237 -1 121 -1 226 -1 233 1 9 48 12 200 12 199 0 199 0 211 36 9 27 9
42 0 63 -21 52 -44 55 -330 42z"/>
<path d="M190 496 c0 -35 -5 -58 -15 -66 -19 -15 -19 -30 -2 -30 39 0 74 102
47 135 -22 27 -30 16 -30 -39z"/>
<path d="M285 520 c4 -6 18 -15 31 -21 24 -8 25 -12 22 -81 -3 -72 -3 -73 -32
-78 -38 -7 -53 -31 -40 -67 8 -23 16 -29 47 -31 26 -2 40 -10 48 -25 9 -15 9
-22 1 -25 -22 -7 -76 -47 -80 -59 -6 -19 15 -16 46 7 31 23 73 30 79 14 2 -6
-19 -26 -46 -45 -79 -53 -60 -69 29 -24 50 25 50 25 61 3 15 -32 58 -63 71
-50 16 16 1 45 -32 64 -30 17 -30 17 -13 54 17 35 17 36 -2 50 -10 8 -31 14
-46 14 -15 0 -31 5 -34 10 -4 6 22 10 70 10 70 0 76 2 87 24 13 30 4 56 -22
63 -18 5 -20 14 -20 89 0 78 1 84 21 84 12 0 19 5 17 13 -3 8 -42 13 -137 15
-94 2 -131 -1 -126 -8z m193 -32 c3 -15 -4 -18 -47 -18 -38 0 -51 4 -51 14 0
30 93 33 98 4z m2 -52 c0 -26 -16 -36 -61 -36 -42 0 -49 3 -49 20 0 18 7 20
55 20 30 0 55 -2 55 -4z m-12 -83 c3 -9 -12 -13 -52 -13 -52 0 -66 7 -49 24
12 11 96 2 101 -11z m38 -54 c11 -18 -17 -29 -71 -28 -70 0 -128 12 -133 27
-5 16 193 17 204 1z m-61 -119 c3 -5 3 -15 -1 -21 -6 -11 -23 6 -24 24 0 10
18 9 25 -3z"/>
<path d="M165 330 c17 -19 20 -38 22 -129 1 -58 2 -110 2 -116 1 -5 9 -1 19 8
13 14 17 35 17 105 0 101 -16 145 -55 151 -25 3 -25 3 -5 -19z"/>
</g>
</svg>
