<svg version="1.0" xmlns="http://www.w3.org/2000/svg"
 width="111.000000pt" height="177.000000pt" viewBox="0 0 111.000000 177.000000"
 preserveAspectRatio="xMidYMid meet">
<metadata>
Created by potrace 1.15, written by Peter Selinger 2001-2017
</metadata>
<g transform="translate(0.000000,177.000000) scale(0.100000,-0.100000)"
fill="#000000" stroke="none">
<path d="M485 1675 c-27 -8 -67 -18 -87 -23 -46 -12 -105 -48 -118 -72 -24
-45 -1 -178 39 -226 27 -34 101 -67 156 -70 64 -3 73 -18 75 -119 3 -163 10
-149 -67 -142 -38 3 -89 14 -114 25 -50 22 -99 76 -99 109 0 18 -37 53 -55 53
-8 0 5 -107 16 -137 23 -62 106 -110 229 -134 36 -6 66 -13 68 -14 6 -5 -21
-55 -30 -55 -4 0 -8 -7 -8 -15 0 -8 -4 -15 -10 -15 -5 0 -10 -4 -10 -10 0 -16
-42 -60 -85 -89 -39 -26 -121 -51 -170 -51 -13 0 -27 -5 -31 -11 -13 -22 17
-32 91 -31 118 3 216 57 260 143 10 19 26 41 35 49 9 8 26 33 38 55 16 32 34
47 85 73 36 18 71 40 77 48 7 8 17 14 22 14 13 0 58 47 58 60 0 6 9 20 20 32
11 12 23 37 26 56 9 48 -7 116 -29 120 -14 3 -17 -4 -17 -42 0 -48 -26 -106
-63 -141 -12 -12 -48 -31 -80 -44 -65 -27 -80 -20 -70 30 3 14 0 65 -6 113
-11 91 -8 116 15 116 32 0 72 32 93 73 8 15 18 27 23 27 4 0 8 30 8 68 0 75
-31 152 -62 152 -9 0 -19 4 -22 9 -3 4 -27 11 -53 15 -26 3 -59 8 -73 10 -14
3 -47 -2 -75 -9z m157 -105 c23 -28 28 -44 28 -86 0 -52 0 -52 -47 -75 -33
-15 -73 -24 -129 -27 -74 -4 -83 -2 -101 17 -24 26 -57 125 -49 146 3 9 14 18
23 22 10 4 20 10 23 13 10 14 106 29 164 26 54 -2 62 -6 88 -36z"/>
<path d="M130 1039 c0 -5 5 -7 10 -4 6 3 10 8 10 11 0 2 -4 4 -10 4 -5 0 -10
-5 -10 -11z"/>
<path d="M260 895 c-54 -12 -111 -30 -199 -62 -38 -15 -41 -18 -26 -29 9 -7
22 -11 28 -9 7 2 68 11 137 20 104 13 128 19 143 37 16 20 16 22 1 39 -10 11
-20 19 -23 18 -3 -1 -31 -7 -61 -14z"/>
<path d="M722 898 c2 -6 13 -16 24 -22 10 -6 31 -19 46 -28 14 -10 33 -18 41
-18 7 0 29 -7 47 -16 40 -20 92 -35 148 -41 35 -4 42 -2 42 12 0 32 -30 49
-165 95 -92 31 -190 41 -183 18z"/>
<path d="M808 533 c-120 -134 -175 -163 -309 -163 -141 0 -170 11 -255 97 -41
40 -79 73 -85 73 -8 0 -10 -15 -7 -45 5 -42 3 -47 -26 -67 -17 -12 -43 -33
-57 -47 -14 -14 -35 -31 -45 -37 -26 -15 -31 -54 -7 -54 23 0 73 22 73 33 0 4
5 7 11 7 6 0 23 8 37 18 44 30 58 32 93 8 19 -13 50 -29 70 -36 36 -13 36 -14
32 -59 -6 -51 -28 -138 -42 -160 -8 -12 -18 -13 -62 -3 -45 11 -55 10 -82 -5
-69 -41 -28 -63 118 -63 73 0 105 -4 108 -12 4 -10 8 -10 14 -1 9 12 143 11
289 -4 83 -9 105 -7 139 14 20 12 20 13 -5 36 -20 18 -42 25 -95 31 -39 4 -73
10 -77 14 -6 7 -13 135 -10 177 1 14 19 29 54 47 53 27 53 27 134 -57 78 -82
116 -103 127 -72 8 22 -11 54 -62 105 -28 28 -51 56 -51 62 0 5 -5 19 -12 29
-9 16 -7 23 15 45 31 31 60 94 53 113 -10 24 -44 13 -78 -24z m-253 -334 c4
-54 3 -95 -3 -101 -5 -5 -42 -8 -83 -6 -74 3 -74 3 -72 48 3 49 12 117 18 138
3 8 26 12 68 12 64 0 64 0 72 -91z"/>
</g>
</svg>
