<svg version="1.0" xmlns="http://www.w3.org/2000/svg"
 width="71.000000pt" height="123.000000pt" viewBox="0 0 71.000000 123.000000"
 preserveAspectRatio="xMidYMid meet">
<metadata>
Created by potrace 1.15, written by Peter Selinger 2001-2017
</metadata>
<g transform="translate(0.000000,123.000000) scale(0.100000,-0.100000)"
fill="#000000" stroke="none">
<path d="M325 1091 c-134 -13 -175 -37 -175 -103 0 -23 -5 -38 -12 -38 -9 0
-9 -3 0 -12 7 -7 12 -26 12 -43 0 -21 9 -39 30 -58 30 -28 118 -67 152 -67 15
0 18 -9 18 -63 0 -64 0 -64 -42 -57 -35 5 -114 35 -150 57 -5 2 -8 -2 -8 -10
0 -18 107 -96 155 -112 47 -17 47 -17 40 -57 -11 -59 -18 -64 -64 -48 -22 7
-48 20 -58 29 -23 20 -97 61 -112 61 -7 0 -7 -8 2 -27 8 -18 8 -28 1 -30 -5
-2 -9 -17 -8 -34 1 -17 -4 -46 -11 -63 -13 -32 -11 -76 4 -76 9 0 63 66 80 97
9 17 16 21 33 14 47 -17 46 -48 -8 -257 -24 -91 -41 -110 -105 -116 -59 -6
-71 -15 -45 -34 30 -22 624 -21 632 1 11 28 -15 44 -74 44 -67 0 -73 6 -89 87
-41 211 -41 223 -8 252 31 27 55 28 55 2 0 -11 4 -20 9 -20 5 0 11 -13 15 -30
3 -19 12 -30 22 -30 16 0 16 33 -1 117 -6 24 -2 37 14 54 12 13 21 29 21 36 0
30 -55 5 -120 -54 -52 -48 -172 -67 -154 -25 3 10 9 30 13 46 4 16 13 32 21
36 130 60 160 82 160 116 0 17 -5 22 -20 21 -11 -1 -20 -5 -20 -10 0 -19 -30
-36 -71 -39 -44 -3 -44 -3 -47 41 -2 24 2 57 9 72 9 24 18 29 45 29 18 0 36 5
39 10 3 6 13 10 22 10 19 0 75 57 91 93 24 56 5 124 -49 166 -32 25 -125 33
-244 22z m204 -70 c24 -23 31 -37 31 -68 0 -74 -88 -123 -222 -123 -45 0 -117
33 -124 58 -3 9 -11 27 -16 39 -8 16 -7 30 2 52 17 42 27 48 93 54 32 3 60 7
62 9 2 1 35 4 73 5 65 2 73 0 101 -26z m-118 -638 c9 -8 19 -24 22 -36 16 -71
47 -230 47 -241 0 -27 -233 -28 -243 -2 -4 11 11 78 26 116 3 8 8 31 11 50 3
19 13 48 21 64 8 15 15 35 15 42 0 33 67 38 101 7z"/>
</g>
</svg>
