<svg version="1.0" xmlns="http://www.w3.org/2000/svg"
 width="77.000000pt" height="125.000000pt" viewBox="0 0 77.000000 125.000000"
 preserveAspectRatio="xMidYMid meet">
<metadata>
Created by potrace 1.15, written by Peter Selinger 2001-2017
</metadata>
<g transform="translate(0.000000,125.000000) scale(0.100000,-0.100000)"
fill="#000000" stroke="none">
<path d="M356 1152 c-77 -7 -122 -63 -104 -130 10 -36 57 -72 96 -72 20 0 22
-5 22 -50 0 -49 -1 -50 -30 -50 -71 0 -113 37 -136 121 -9 33 -21 59 -25 59
-20 0 -9 -94 16 -135 25 -44 46 -56 128 -76 43 -10 47 -14 47 -42 0 -61 -22
-107 -74 -153 -51 -45 -55 -61 -13 -50 58 14 117 102 125 187 5 50 26 69 77
69 16 0 40 15 64 39 46 46 59 109 30 144 -16 20 -16 19 -24 -38 -5 -40 -13
-65 -27 -76 -21 -19 -91 -34 -108 -24 -16 10 -13 75 5 75 55 0 103 70 91 134
-11 55 -61 77 -160 68z m116 -54 c14 -23 9 -46 -18 -78 -25 -29 -30 -31 -88
-28 -56 3 -62 5 -75 32 -12 26 -12 33 0 55 8 15 28 29 44 33 42 10 127 1 137
-14z"/>
<path d="M210 730 c-14 -22 -27 -40 -31 -40 -5 0 -29 -45 -29 -55 0 -3 7 -5
14 -5 8 0 28 17 43 38 15 20 34 42 40 47 12 10 7 55 -6 55 -3 0 -17 -18 -31
-40z"/>
<path d="M478 758 c-6 -18 25 -68 76 -122 39 -41 66 -57 66 -40 0 7 -33 67
-41 74 -3 3 -18 22 -34 43 -33 44 -61 63 -67 45z"/>
<path d="M553 533 c-4 -10 -9 -20 -12 -23 -3 -3 -11 -14 -17 -25 -13 -23 -75
-66 -119 -81 -21 -7 -43 -7 -77 2 -64 16 -100 41 -140 94 -29 40 -33 43 -36
23 -2 -13 7 -37 19 -54 24 -34 22 -51 -21 -141 -15 -32 -16 -38 -3 -38 17 0
43 24 43 39 0 5 5 22 12 36 13 29 44 33 87 10 36 -18 41 -37 41 -162 0 -102 0
-102 -77 -105 -66 -3 -78 -6 -81 -21 -4 -18 4 -18 150 -13 274 11 328 18 328
42 0 11 -14 13 -70 11 -69 -4 -69 -4 -79 27 -8 27 -13 66 -25 189 -3 33 18 67
42 67 9 0 32 -23 51 -50 19 -28 40 -50 48 -50 7 0 13 3 13 6 0 8 -43 87 -51
94 -17 14 -28 49 -18 55 21 14 30 56 14 71 -13 14 -16 13 -22 -3z m-120 -190
c6 -33 9 -29 -28 -37 -42 -8 -61 5 -46 33 7 12 15 19 19 17 5 -3 14 -1 22 5
23 14 27 11 33 -18z m26 -134 c14 -79 4 -99 -48 -99 -46 0 -51 9 -51 90 0 63
4 68 56 69 31 1 32 0 43 -60z"/>
<path d="M300 501 c0 -21 113 -39 135 -21 8 7 12 16 9 21 -7 12 -144 12 -144
0z"/>
</g>
</svg>
