<svg version="1.0" xmlns="http://www.w3.org/2000/svg"
 width="57.000000pt" height="101.000000pt" viewBox="0 0 57.000000 101.000000"
 preserveAspectRatio="xMidYMid meet">
<metadata>
Created by potrace 1.15, written by Peter Selinger 2001-2017
</metadata>
<g transform="translate(0.000000,101.000000) scale(0.100000,-0.100000)"
fill="#000000" stroke="none">
<path d="M448 853 c-6 -15 -14 -78 -17 -139 -6 -106 -7 -113 -37 -148 -17 -20
-33 -36 -35 -36 -2 0 -4 30 -4 68 0 37 -7 89 -14 115 -10 34 -11 54 -4 70 15
32 33 77 33 82 0 3 -11 5 -24 5 -20 0 -29 -10 -50 -56 -28 -61 -31 -75 -17
-102 38 -75 43 -202 7 -202 -26 0 -44 79 -52 230 -5 101 -20 147 -41 126 -5
-4 -7 -74 -5 -154 2 -146 3 -148 37 -216 35 -70 35 -70 -1 -124 -44 -67 -40
-97 8 -56 33 27 33 27 42 -5 5 -17 7 -33 5 -35 -2 -2 -33 -6 -69 -8 -65 -3
-65 -3 -76 55 -12 61 -28 87 -50 87 -10 0 -13 -8 -10 -22 3 -13 8 -63 11 -113
7 -108 21 -164 48 -187 33 -30 270 -19 303 14 3 4 15 1 26 -5 16 -10 21 -9 31
8 21 35 25 67 20 170 -5 115 -17 155 -45 155 -18 0 -19 -5 -13 -62 3 -35 8
-71 11 -80 4 -13 0 -18 -15 -18 -21 0 -39 39 -27 59 4 5 -2 12 -11 16 -10 3
-33 27 -51 51 -33 46 -33 46 11 90 24 24 49 44 54 44 6 0 17 8 27 19 14 15 17
44 19 171 1 83 -1 154 -6 157 -4 2 -12 -8 -19 -24z m-93 -530 c33 -49 32 -55
-7 -51 -31 3 -33 5 -35 46 -2 23 2 42 7 42 5 0 21 -17 35 -37z m108 -112 c14
-2 7 -39 -10 -45 -20 -8 -273 -29 -279 -23 -2 2 -7 17 -10 34 -5 25 -3 32 12
35 15 3 266 2 287 -1z"/>
</g>
</svg>
