<svg version="1.0" xmlns="http://www.w3.org/2000/svg"
 width="65.000000pt" height="86.000000pt" viewBox="0 0 65.000000 86.000000"
 preserveAspectRatio="xMidYMid meet">
<metadata>
Created by potrace 1.15, written by Peter Selinger 2001-2017
</metadata>
<g transform="translate(0.000000,86.000000) scale(0.100000,-0.100000)"
fill="#000000" stroke="none">
<path d="M337 724 c-4 -4 -7 -18 -7 -31 0 -22 -3 -23 -67 -23 -80 0 -143 -9
-143 -21 0 -15 45 -22 128 -20 82 2 82 2 82 -79 0 -80 0 -80 -64 -80 -71 0
-91 13 -81 53 7 26 -10 46 -26 30 -5 -5 -11 -23 -15 -40 -5 -24 -1 -36 15 -52
19 -19 32 -21 164 -21 161 0 177 -5 199 -68 14 -40 18 -247 5 -295 -7 -26 -5
-28 15 -25 22 3 23 6 26 128 4 154 -9 223 -50 267 -30 31 -30 31 2 78 25 37
29 49 20 60 -19 23 -27 18 -55 -34 -15 -27 -35 -52 -44 -55 -76 -28 -71 -32
-71 55 0 79 0 79 89 79 62 0 92 4 100 13 18 23 2 27 -96 27 -70 0 -93 3 -93
13 0 19 -24 49 -33 41z"/>
<path d="M199 366 c-68 -21 -72 -30 -65 -125 9 -118 22 -131 130 -131 145 0
187 25 185 110 -1 93 -11 124 -49 142 -40 21 -144 23 -201 4z m197 -37 c14
-16 19 -36 19 -85 0 -87 -9 -94 -119 -97 -86 -2 -89 -1 -110 26 -24 32 -30
127 -9 148 15 15 76 26 149 28 40 1 55 -3 70 -20z"/>
<path d="M217 253 c-17 -16 -3 -23 52 -23 63 0 91 6 91 21 0 10 -133 12 -143
2z"/>
</g>
</svg>
