<svg version="1.0" xmlns="http://www.w3.org/2000/svg"
 width="49.000000pt" height="99.000000pt" viewBox="0 0 49.000000 99.000000"
 preserveAspectRatio="xMidYMid meet">
<metadata>
Created by potrace 1.15, written by Peter Selinger 2001-2017
</metadata>
<g transform="translate(0.000000,99.000000) scale(0.100000,-0.100000)"
fill="#000000" stroke="none">
<path d="M154 743 c-9 -74 -7 -132 6 -148 9 -12 20 -59 25 -115 3 -24 11 -53
20 -66 16 -25 12 -46 -17 -83 -25 -33 -23 -42 10 -39 21 2 28 -2 30 -20 5 -34
20 -26 33 18 14 47 35 52 69 15 40 -43 41 -28 3 46 -34 65 -36 74 -24 103 38
96 42 123 25 168 -19 49 -19 62 -9 136 6 37 4 52 -4 52 -6 0 -11 -1 -11 -3 0
-1 -9 -27 -20 -57 -25 -69 -25 -85 1 -121 11 -16 18 -37 16 -46 -3 -10 -8 -31
-12 -48 -7 -30 -7 -29 -22 20 -9 28 -18 83 -20 123 -5 82 -22 96 -40 31 -7
-27 -7 -52 -1 -77 18 -67 21 -105 9 -98 -6 4 -11 13 -11 20 0 7 -8 30 -19 50
-14 31 -16 47 -9 82 11 53 7 116 -9 121 -7 3 -14 -19 -19 -64z"/>
<path d="M410 326 c0 -14 -4 -28 -10 -31 -5 -3 -10 -22 -10 -41 0 -20 -5 -34
-12 -34 -7 0 -66 -1 -130 -3 -114 -3 -117 -3 -127 20 -6 13 -11 32 -11 41 -1
18 -23 52 -34 52 -12 0 -6 -130 9 -188 8 -31 17 -69 20 -84 6 -33 26 -36 63
-10 15 10 61 29 102 42 41 13 79 27 84 32 6 4 17 8 26 8 9 0 24 8 33 18 19 21
42 142 33 177 -8 33 -36 33 -36 1z m-70 -166 c-8 -5 -25 -10 -37 -10 -12 0
-25 -4 -28 -10 -3 -5 -13 -10 -21 -10 -8 0 -34 -9 -57 -20 -40 -20 -43 -20
-55 -3 -32 45 1 60 133 62 55 0 75 -2 65 -9z"/>
</g>
</svg>
