<svg version="1.0" xmlns="http://www.w3.org/2000/svg"
 width="74.000000pt" height="114.000000pt" viewBox="0 0 74.000000 114.000000"
 preserveAspectRatio="xMidYMid meet">
<metadata>
Created by potrace 1.15, written by Peter Selinger 2001-2017
</metadata>
<g transform="translate(0.000000,114.000000) scale(0.100000,-0.100000)"
fill="#000000" stroke="none">
<path d="M87 1053 c-4 -3 -7 -47 -7 -96 0 -75 -4 -97 -25 -139 -28 -56 -33
-120 -15 -188 7 -25 11 -55 10 -67 -1 -13 -2 -94 -3 -180 -1 -190 22 -323 56
-323 18 0 19 5 13 53 -3 28 -10 77 -16 107 -16 82 -23 213 -16 264 7 48 23 58
46 31 7 -8 19 -15 26 -15 23 0 16 37 -11 64 -30 30 -30 31 -6 57 23 25 33 20
55 -25 18 -39 15 -68 -16 -128 -34 -69 -21 -243 30 -403 10 -32 24 -61 30 -63
21 -7 24 48 7 111 -9 34 -19 77 -22 95 -3 17 -9 32 -14 32 -5 0 -9 43 -9 95 0
76 4 104 20 135 26 51 26 120 0 162 -26 43 -25 56 10 98 34 39 36 60 14 136
-9 31 -13 62 -10 71 4 8 1 21 -4 29 -9 10 -18 8 -48 -9 -20 -12 -40 -26 -44
-31 -13 -19 -21 3 -19 57 1 52 -16 87 -32 70z m116 -189 c9 -56 -12 -144 -34
-144 -8 0 -39 93 -39 117 0 14 47 63 60 63 4 0 10 -16 13 -36z m-68 -170 c2
-24 -39 -73 -51 -61 -4 3 -10 28 -15 54 -7 37 -6 55 7 82 16 34 16 34 36 -9
11 -24 21 -54 23 -66z"/>
<path d="M380 984 c-6 -14 -7 -42 -4 -62 4 -25 0 -44 -10 -57 -21 -29 -39 -7
-46 58 -4 39 -9 53 -23 55 -16 3 -17 -5 -12 -120 8 -182 16 -218 41 -197 9 8
14 32 14 74 0 66 4 77 26 68 11 -4 14 -40 14 -184 0 -172 -1 -179 -20 -179
-18 0 -20 7 -20 58 0 53 -11 82 -32 82 -10 0 -10 -367 0 -374 4 -2 14 -1 21 3
9 6 13 35 12 100 -1 84 0 91 18 91 11 0 22 -4 26 -10 3 -5 8 -85 11 -177 5
-166 13 -203 32 -166 7 13 7 64 1 153 -5 74 -9 284 -9 467 -1 285 -3 332 -16
337 -10 4 -18 -3 -24 -20z"/>
<path d="M545 977 c-84 -8 -130 -31 -84 -41 13 -3 38 -7 54 -8 28 -3 30 -6 33
-45 3 -37 -1 -45 -33 -74 -33 -30 -75 -88 -75 -103 0 -20 33 0 57 34 27 38 42
49 44 33 2 -10 4 -29 13 -115 7 -67 7 -68 -19 -78 -14 -5 -36 -10 -48 -10 -25
0 -54 -16 -45 -25 3 -3 18 -7 34 -8 21 -2 29 -9 36 -32 8 -30 3 -286 -7 -328
-3 -12 -7 -52 -9 -90 -3 -51 -1 -67 9 -67 33 0 55 149 55 372 0 141 1 148 20
148 18 0 20 -7 21 -77 0 -43 2 -87 5 -98 2 -11 7 -58 10 -105 9 -127 41 -240
68 -240 25 0 27 33 6 93 -24 68 -48 232 -49 345 -2 82 -2 82 34 82 29 0 36 3
33 18 -2 13 -15 18 -56 20 -52 3 -52 3 -52 113 0 60 4 109 9 109 8 0 42 -38
61 -69 11 -19 40 -6 40 18 0 13 -20 33 -57 58 -55 37 -57 40 -57 83 -1 45 -1
45 52 48 44 3 52 6 52 23 0 10 -6 20 -12 20 -40 4 -71 3 -143 -4z"/>
</g>
</svg>
