<svg version="1.0" xmlns="http://www.w3.org/2000/svg"
 width="70.000000pt" height="93.000000pt" viewBox="0 0 70.000000 93.000000"
 preserveAspectRatio="xMidYMid meet">
<metadata>
Created by potrace 1.15, written by Peter Selinger 2001-2017
</metadata>
<g transform="translate(0.000000,93.000000) scale(0.100000,-0.100000)"
fill="#000000" stroke="none">
<path d="M142 697 c-19 -20 -22 -34 -22 -108 0 -62 4 -91 16 -108 13 -17 14
-28 6 -44 -21 -44 -23 -62 -11 -102 11 -37 53 -84 65 -72 3 3 -4 20 -15 38
-21 35 -27 94 -12 117 4 8 19 12 33 10 22 -3 24 -6 16 -36 -10 -38 -28 -34
-29 6 0 26 -1 26 -11 5 -19 -40 -3 -67 47 -82 35 -10 49 -11 58 -2 6 6 19 11
29 11 23 0 41 36 34 66 -9 34 -21 30 -21 -8 0 -21 -5 -34 -15 -36 -12 -2 -15
6 -12 38 5 48 17 58 43 34 39 -35 21 -94 -36 -122 -24 -11 -46 -30 -49 -40 -7
-22 -40 -37 -98 -47 -25 -4 -38 -11 -38 -21 0 -10 6 -14 18 -10 9 3 33 8 53
11 71 13 52 -35 -21 -55 -22 -6 -42 -15 -46 -21 -11 -19 18 -28 45 -15 14 8
36 17 49 20 20 7 22 4 22 -26 0 -44 23 -78 41 -61 10 10 10 18 1 38 -21 45
-15 63 28 85 75 38 77 95 3 87 -46 -4 -42 17 7 37 70 28 89 108 37 157 -21 20
-21 20 -3 67 42 108 31 142 -46 142 -31 0 -38 4 -38 20 0 17 7 20 46 20 32 0
44 4 42 13 -3 8 -35 13 -99 15 -89 2 -96 1 -117 -21z m87 -26 c9 -16 6 -19
-21 -25 -38 -8 -57 6 -38 29 17 21 47 19 59 -4z m109 -73 c3 -16 -6 -18 -87
-18 -69 0 -91 3 -91 13 0 24 13 28 94 25 68 -3 81 -6 84 -20z m-10 -60 c-3 -9
-32 -14 -86 -16 -68 -2 -82 0 -82 13 0 12 15 15 86 15 64 0 85 -3 82 -12z
m-27 -68 c-27 -23 -78 -26 -103 -6 -30 22 -21 26 55 26 72 -1 72 -1 48 -20z
m-17 -58 c2 -4 1 -23 -3 -42 -10 -49 -38 -52 -46 -6 -4 19 -4 39 0 45 7 13 42
15 49 3z m36 -201 c0 -16 -30 -33 -46 -27 -13 5 -14 9 -4 21 13 16 50 21 50 6z"/>
<path d="M453 644 c-61 -61 -67 -79 -24 -69 27 6 30 3 36 -25 6 -29 3 -36 -34
-69 -66 -59 -50 -86 18 -31 38 29 38 29 79 -13 40 -40 43 -48 53 -127 9 -76 6
-154 -7 -203 -7 -22 25 -35 37 -16 12 20 11 306 -1 330 -6 10 -24 26 -40 34
-48 25 -48 51 -1 99 23 23 41 49 41 58 0 17 -80 89 -96 87 -5 -1 -33 -25 -61
-55z m107 -36 c0 -13 -39 -58 -51 -58 -4 0 -11 14 -14 32 -6 24 -3 35 10 44
20 15 55 2 55 -18z"/>
<path d="M450 361 c0 -43 -3 -50 -22 -53 -27 -4 -36 -28 -11 -28 25 0 43 -19
43 -46 0 -22 -17 -34 -51 -34 -12 0 -16 -5 -13 -15 8 -20 112 -21 140 -1 16
12 16 15 4 19 -8 3 -23 8 -32 11 -29 9 -23 54 7 62 30 7 34 34 5 34 -22 0 -25
5 -35 63 -9 58 -35 49 -35 -12z"/>
</g>
</svg>
