<svg version="1.0" xmlns="http://www.w3.org/2000/svg"
 width="113.000000pt" height="189.000000pt" viewBox="0 0 113.000000 189.000000"
 preserveAspectRatio="xMidYMid meet">
<metadata>
Created by potrace 1.15, written by Peter Selinger 2001-2017
</metadata>
<g transform="translate(0.000000,189.000000) scale(0.100000,-0.100000)"
fill="#000000" stroke="none">
<path d="M106 1738 c-13 -46 -18 -269 -19 -968 -2 -713 1 -770 32 -770 5 0 15
38 21 84 11 73 16 86 37 95 13 6 28 11 34 11 18 0 153 97 185 132 47 52 54 70
54 145 0 69 0 69 -54 87 -47 16 -61 17 -122 6 -70 -12 -131 -11 -126 3 1 4 2
25 2 47 0 38 1 40 47 53 86 26 125 46 159 84 31 34 34 42 35 102 0 37 4 90 8
119 5 37 4 58 -5 70 -12 16 -15 16 -45 -2 -38 -23 -183 -33 -195 -14 -4 6 -9
33 -11 59 -3 39 1 52 19 68 12 12 30 21 39 21 17 0 37 7 104 36 17 7 47 30 68
52 37 38 37 38 39 186 1 82 -3 151 -8 156 -6 6 -24 3 -49 -11 -22 -11 -71 -24
-110 -28 -94 -11 -99 -6 -103 109 -3 65 -8 90 -17 90 -7 0 -16 -10 -19 -22z
m228 -308 c8 -93 1 -128 -28 -155 -26 -25 -82 -45 -124 -45 -36 0 -35 -2 -32
165 2 103 13 115 104 115 73 0 73 0 80 -80z m-24 -559 c0 -69 -4 -102 -12
-108 -26 -16 -84 -33 -116 -33 -33 0 -33 0 -30 108 3 117 -9 106 151 131 4 0
7 -44 7 -98z m40 -393 c30 -32 28 -104 -4 -141 -27 -31 -114 -67 -163 -67 -33
0 -33 0 -33 93 0 94 0 94 38 110 83 35 132 37 162 5z"/>
<path d="M808 1703 c-9 -19 -14 -105 -16 -273 -2 -135 -7 -249 -11 -253 -16
-16 -74 29 -99 78 -25 47 -32 81 -52 240 -10 87 -42 215 -52 215 -18 0 -29
-58 -24 -115 3 -33 8 -89 11 -125 7 -78 24 -177 34 -199 44 -92 60 -119 93
-151 69 -67 237 -129 273 -100 24 20 18 38 -17 55 -66 32 -90 59 -96 110 -6
53 4 65 54 65 69 0 140 52 149 108 12 76 12 163 0 212 -22 92 -29 102 -53 78
-8 -8 -12 -54 -12 -141 0 -122 -1 -131 -22 -149 -17 -14 -32 -18 -56 -14 -57
9 -61 18 -56 114 5 116 -7 264 -23 270 -7 2 -19 -9 -25 -25z"/>
<path d="M20 996 c0 -2 9 -6 20 -9 11 -3 18 -1 14 4 -5 9 -34 13 -34 5z"/>
<path d="M616 904 c-11 -28 -6 -310 5 -345 7 -19 24 -47 39 -64 15 -16 36 -46
47 -65 20 -36 20 -36 -14 -80 -19 -25 -50 -59 -69 -76 -19 -18 -34 -37 -34
-44 0 -6 -7 -18 -15 -26 -16 -17 -20 -61 -6 -82 18 -29 153 -19 192 14 8 8 23
14 32 14 9 0 17 5 17 10 0 6 6 10 14 10 51 0 173 98 204 164 40 85 57 371 22
371 -9 0 -20 -18 -28 -45 -8 -25 -17 -54 -22 -65 -5 -11 -11 -42 -14 -70 -12
-116 -20 -151 -37 -177 -11 -14 -19 -31 -19 -37 0 -11 -114 -81 -134 -81 -7 0
-16 -3 -20 -7 -9 -10 -79 -33 -84 -28 -2 2 12 21 31 42 20 20 44 54 54 75 10
21 21 38 26 38 4 0 7 7 7 15 0 8 17 50 39 94 21 43 41 94 44 113 2 18 10 60
17 93 12 62 11 218 -2 231 -14 14 -21 -5 -33 -95 -14 -101 -37 -186 -68 -248
-22 -48 -22 -47 -65 -32 -20 7 -34 21 -42 42 -7 18 -16 41 -20 52 -9 21 -19
105 -26 215 -2 36 -6 71 -9 78 -6 17 -22 15 -29 -4z"/>
</g>
</svg>
