<svg version="1.0" xmlns="http://www.w3.org/2000/svg"
 width="51.000000pt" height="77.000000pt" viewBox="0 0 51.000000 77.000000"
 preserveAspectRatio="xMidYMid meet">
<metadata>
Created by potrace 1.15, written by Peter Selinger 2001-2017
</metadata>
<g transform="translate(0.000000,77.000000) scale(0.100000,-0.100000)"
fill="#000000" stroke="none">
<path d="M108 573 c-3 -62 -5 -88 -8 -93 -9 -18 -7 -387 2 -397 18 -22 28 -14
28 20 0 19 8 42 19 54 11 11 31 42 44 69 14 27 42 64 61 82 42 39 39 55 -7 40
-17 -5 -41 -12 -52 -15 -11 -4 -23 -11 -27 -17 -6 -8 -11 -6 -18 4 -13 20 -13
26 5 44 8 8 15 18 15 23 0 16 54 70 81 81 22 9 30 7 53 -14 17 -16 26 -35 26
-54 0 -23 5 -30 20 -30 24 0 43 28 65 94 14 41 15 57 6 87 -21 69 -43 65 -45
-7 -1 -65 -22 -68 -30 -4 -5 34 -11 50 -21 50 -11 0 -15 -12 -15 -42 -1 -43
-1 -43 -18 -13 -17 30 -17 30 -20 2 -4 -30 -19 -39 -86 -51 -38 -7 -38 -7 -18
22 12 16 35 43 53 60 18 18 29 35 26 39 -4 4 -29 -1 -55 -10 -57 -21 -62 -21
-62 -2 0 33 -20 12 -22 -22z m42 -152 c0 -6 -4 -13 -10 -16 -5 -3 -10 1 -10 9
0 9 5 16 10 16 6 0 10 -4 10 -9z m8 -186 c-6 -13 -15 -22 -19 -19 -15 9 -10
32 9 37 9 3 18 5 19 6 2 0 -2 -10 -9 -24z"/>
<path d="M394 315 c-13 -32 -29 -51 -19 -22 3 6 1 19 -5 27 -14 22 -31 0 -37
-49 -6 -41 -19 -51 -41 -29 -6 6 -14 9 -17 7 -6 -7 -9 -159 -2 -165 3 -3 18 0
34 8 20 9 32 26 43 60 8 27 27 59 43 73 15 14 27 34 27 44 0 10 3 33 6 50 9
43 -13 41 -32 -4z"/>
</g>
</svg>
