<svg version="1.0" xmlns="http://www.w3.org/2000/svg"
 width="125.000000pt" height="183.000000pt" viewBox="0 0 125.000000 183.000000"
 preserveAspectRatio="xMidYMid meet">
<metadata>
Created by potrace 1.15, written by Peter Selinger 2001-2017
</metadata>
<g transform="translate(0.000000,183.000000) scale(0.100000,-0.100000)"
fill="#000000" stroke="none">
<path d="M603 1759 c-9 -9 -13 -43 -13 -98 0 -86 -21 -171 -43 -171 -6 0 -43
-22 -83 -50 -40 -27 -77 -50 -83 -50 -6 0 -11 -4 -11 -8 0 -5 -24 -19 -52 -31
-73 -31 -102 -45 -108 -51 -3 -3 -23 -11 -45 -18 -72 -24 -112 -46 -92 -50 10
-2 32 1 49 7 17 6 45 11 62 11 18 0 36 4 41 9 6 4 54 23 108 41 53 18 97 37
97 42 0 4 6 8 13 8 7 0 34 14 60 30 26 17 57 30 67 30 20 0 20 -9 20 -382 1
-357 5 -505 15 -536 5 -13 -3 -35 -48 -132 -16 -36 -36 -81 -44 -100 -18 -42
-104 -184 -115 -188 -12 -5 -10 -22 3 -22 15 0 129 111 129 126 0 7 3 14 8 16
11 5 45 58 72 115 14 29 28 53 32 53 9 0 58 -52 58 -62 0 -4 10 -17 23 -30 12
-13 34 -39 47 -58 27 -38 51 -66 122 -144 45 -48 47 -49 39 -20 -9 33 -40 96
-50 104 -4 3 -18 21 -31 40 -14 19 -32 44 -42 54 -10 11 -18 26 -18 33 0 7 -4
13 -10 13 -5 0 -10 6 -10 13 0 6 -9 23 -20 37 -11 14 -20 34 -20 44 0 11 -3
16 -7 13 -3 -4 -16 8 -29 26 -28 41 -31 81 -39 417 -4 140 -9 262 -12 270 -11
27 -11 40 -2 40 5 0 9 53 9 118 0 116 1 119 25 132 16 9 28 10 37 3 35 -27
170 -68 257 -78 63 -7 61 6 -7 36 -26 11 -60 27 -76 35 -16 8 -35 14 -43 14
-7 0 -21 4 -31 9 -9 5 -39 19 -65 31 -27 11 -58 30 -70 41 -11 10 -24 19 -27
19 -4 0 -7 44 -7 98 -1 107 -18 173 -40 151z"/>
<path d="M471 1654 c0 -11 3 -14 6 -6 3 7 2 16 -1 19 -3 4 -6 -2 -5 -13z"/>
<path d="M382 1185 c-7 -14 -12 -36 -12 -49 0 -25 3 -24 -115 -42 -39 -6 -41
-5 -60 32 -20 39 -20 39 -23 -9 -3 -45 29 -174 47 -187 19 -15 41 -108 35
-153 -4 -26 -9 -47 -11 -47 -6 0 -65 41 -78 55 -6 5 -20 23 -33 39 -17 22 -23
25 -28 13 -12 -32 73 -152 130 -184 16 -9 19 -21 18 -71 -2 -60 -2 -60 -93
-151 -51 -50 -90 -94 -86 -97 3 -3 37 15 75 40 38 25 74 46 81 46 12 0 18 -83
11 -155 -9 -89 -5 -130 10 -133 22 -4 37 57 52 211 7 70 16 127 20 127 4 0 8
-4 8 -10 0 -5 7 -10 15 -10 9 0 38 -12 66 -26 28 -14 53 -23 55 -21 7 6 -53
62 -84 78 -35 18 -72 59 -72 80 0 9 4 40 10 69 10 54 25 73 87 111 38 23 51
55 31 75 -11 12 -20 8 -56 -26 -23 -22 -47 -40 -52 -40 -14 0 -6 113 8 118 7
2 12 10 12 18 0 7 8 28 18 46 27 50 46 137 43 203 -2 69 -13 87 -29 50z m-47
-167 c-3 -13 -10 -32 -14 -43 -5 -11 -13 -31 -19 -45 -10 -24 -10 -24 -31 24
-24 55 -18 72 27 79 15 2 31 5 35 6 5 0 6 -9 2 -21z"/>
<path d="M970 1177 c0 -51 -20 -85 -53 -90 -18 -3 -43 -8 -57 -12 -21 -5 -28
-2 -40 22 -28 53 -50 67 -50 31 0 -37 23 -138 32 -138 4 0 8 -6 8 -14 0 -7 14
-28 32 -47 26 -27 34 -46 44 -106 6 -39 8 -77 4 -84 -9 -14 -63 2 -117 33 -18
11 -33 16 -33 11 0 -20 32 -52 72 -72 24 -12 52 -27 63 -34 11 -6 21 -13 23
-13 2 -1 10 -26 17 -55 15 -54 15 -54 -38 -101 -28 -27 -55 -48 -58 -48 -10 0
-21 -49 -13 -61 4 -7 14 -4 28 8 39 34 85 63 99 63 9 0 28 -33 47 -82 53 -136
107 -258 114 -258 7 0 -1 54 -13 92 -6 18 -24 76 -39 128 -27 91 -28 95 -10
98 11 2 35 -4 53 -12 18 -9 48 -19 67 -22 18 -4 41 -11 51 -16 18 -9 22 -1 9
18 -6 10 -44 31 -174 95 -33 17 -51 33 -58 53 -19 54 -12 75 38 121 46 42 101
129 89 141 -3 3 -22 -10 -41 -30 -45 -44 -92 -70 -102 -55 -3 6 -12 35 -19 64
-11 48 -10 57 6 82 11 15 19 40 19 56 0 15 5 27 10 27 6 0 10 18 10 40 0 22 5
40 10 40 11 0 12 81 1 119 -9 33 -31 39 -31 8z m-40 -174 c-1 -16 -7 -39 -14
-52 -13 -24 -13 -24 -30 0 -19 28 -21 65 -3 72 32 13 47 7 47 -20z"/>
</g>
</svg>
