<svg version="1.0" xmlns="http://www.w3.org/2000/svg"
 width="63.000000pt" height="84.000000pt" viewBox="0 0 63.000000 84.000000"
 preserveAspectRatio="xMidYMid meet">
<metadata>
Created by potrace 1.15, written by Peter Selinger 2001-2017
</metadata>
<g transform="translate(0.000000,84.000000) scale(0.100000,-0.100000)"
fill="#000000" stroke="none">
<path d="M345 706 c-77 -6 -151 -17 -163 -25 -33 -18 -52 -70 -52 -141 0 -58
-1 -61 -22 -58 -22 3 -23 7 -20 79 3 60 0 78 -13 89 -29 24 -39 -3 -36 -98 1
-48 7 -93 13 -99 6 -7 26 -13 44 -13 33 0 34 -1 34 -40 0 -33 -3 -40 -20 -40
-29 0 -69 -21 -74 -39 -3 -9 -6 -65 -8 -126 -3 -104 -2 -110 17 -110 18 0 20
8 25 103 4 87 8 106 24 118 28 20 36 9 36 -51 0 -48 3 -56 29 -74 27 -19 43
-21 195 -21 166 0 166 0 166 -25 0 -32 -10 -34 -212 -37 -120 -2 -171 -7 -180
-16 -10 -10 -10 -15 2 -22 17 -11 181 -13 324 -3 98 6 98 6 113 42 19 44 8 80
-27 98 -17 9 -74 13 -172 13 -216 0 -199 -18 -196 211 4 244 -7 232 208 239
159 5 196 16 156 46 -11 8 -27 13 -35 12 -9 0 -79 -6 -156 -12z"/>
<path d="M365 609 c-108 -13 -113 -16 -130 -55 -28 -67 -9 -234 30 -274 21
-20 287 -22 307 -2 11 11 9 16 -7 28 -15 11 -34 13 -72 8 -53 -6 -53 -6 -53
25 0 26 4 31 24 31 39 0 74 17 92 45 33 50 -14 105 -91 105 -31 0 -35 3 -35
25 0 23 3 25 49 25 49 0 79 18 66 40 -7 12 -79 11 -180 -1z m23 -66 c-3 -27
-6 -28 -60 -31 -60 -3 -67 2 -48 39 8 15 22 19 61 19 49 0 50 -1 47 -27z m111
-82 c8 -5 11 -16 8 -25 -5 -13 -25 -16 -122 -16 -115 0 -115 0 -115 25 0 25 0
25 108 25 59 0 113 -4 121 -9z m-125 -87 c17 -6 23 -59 8 -68 -5 -3 -26 -3
-46 1 -38 6 -74 42 -61 63 7 11 73 14 99 4z"/>
</g>
</svg>
