<svg version="1.0" xmlns="http://www.w3.org/2000/svg"
 width="67.000000pt" height="99.000000pt" viewBox="0 0 67.000000 99.000000"
 preserveAspectRatio="xMidYMid meet">
<metadata>
Created by potrace 1.15, written by Peter Selinger 2001-2017
</metadata>
<g transform="translate(0.000000,99.000000) scale(0.100000,-0.100000)"
fill="#000000" stroke="none">
<path d="M450 896 c0 -82 -1 -86 -22 -86 -86 -1 -101 -32 -105 -220 -1 -80 1
-162 6 -182 5 -20 7 -39 4 -41 -6 -7 -15 -136 -17 -247 -1 -83 1 -95 17 -98
16 -3 17 9 17 150 0 154 0 154 36 189 20 18 43 47 51 64 17 31 37 55 49 55 11
0 88 -72 106 -100 15 -22 18 -53 19 -186 2 -145 8 -184 29 -184 14 0 27 46 19
73 -4 15 -8 110 -9 210 -2 170 -4 241 -13 410 -5 86 -23 108 -96 115 -51 5
-51 5 -48 81 2 72 1 76 -20 79 -22 3 -23 1 -23 -82z m126 -134 c19 -13 33 -95
33 -202 0 -153 -1 -153 -65 -84 -54 58 -54 58 -54 170 0 109 1 113 23 117 37
7 51 7 63 -1z m-126 -125 c0 -123 0 -123 -36 -180 -56 -90 -64 -80 -58 76 3
72 10 153 16 180 10 45 12 47 44 47 34 0 34 0 34 -123z"/>
<path d="M145 953 c-65 -4 -86 -16 -67 -35 15 -15 181 -13 196 2 18 18 -3 40
-36 38 -18 -1 -60 -3 -93 -5z"/>
<path d="M117 822 c-96 -2 -108 -5 -105 -20 2 -11 16 -19 38 -22 32 -5 36 -8
41 -45 8 -54 24 -91 43 -98 23 -9 23 -135 1 -143 -27 -11 -44 15 -47 74 -2 45
-7 58 -21 60 -15 3 -17 -5 -17 -58 0 -69 17 -104 59 -118 24 -8 29 -17 34 -57
12 -88 10 -97 -20 -93 -25 3 -28 7 -28 40 0 43 -9 55 -30 38 -12 -10 -15 -37
-15 -129 0 -185 16 -216 112 -216 47 0 62 5 80 23 21 21 23 33 26 167 3 117 1
148 -11 160 -20 20 -27 9 -27 -42 0 -40 -2 -43 -26 -43 -26 0 -27 1 -20 46 3
26 6 57 6 70 0 13 6 24 13 24 19 0 67 45 67 63 0 9 5 19 10 22 15 9 12 64 -4
81 -21 20 -23 19 -30 -32 -6 -50 -20 -74 -41 -74 -21 0 -7 120 17 146 19 21
26 49 27 107 1 19 8 30 25 37 31 11 42 30 19 31 -10 0 -29 1 -43 2 -14 1 -74
1 -133 -1z m93 -86 c0 -38 -3 -44 -24 -48 -39 -8 -56 8 -56 52 0 40 0 40 40
40 40 0 40 0 40 -44z m18 -550 c3 -94 -4 -106 -68 -106 -43 0 -49 3 -58 28
-15 38 -14 114 1 134 11 14 77 28 112 23 6 -1 11 -37 13 -79z"/>
</g>
</svg>
