<svg version="1.0" xmlns="http://www.w3.org/2000/svg"
 width="57.000000pt" height="107.000000pt" viewBox="0 0 57.000000 107.000000"
 preserveAspectRatio="xMidYMid meet">
<metadata>
Created by potrace 1.15, written by Peter Selinger 2001-2017
</metadata>
<g transform="translate(0.000000,107.000000) scale(0.100000,-0.100000)"
fill="#000000" stroke="none">
<path d="M292 881 c-37 -80 -37 -84 -17 -101 20 -16 19 -41 -2 -78 -17 -30
-14 -64 11 -122 4 -9 -1 -24 -11 -36 -73 -82 -143 -188 -143 -218 0 -24 84
-172 121 -212 10 -11 19 -28 19 -37 0 -22 12 -21 40 3 12 11 30 22 39 25 9 3
25 18 36 35 11 16 24 30 29 30 10 0 21 13 67 79 29 40 31 46 20 81 -6 20 -33
67 -61 104 -27 37 -50 71 -50 75 0 4 -9 16 -20 26 -11 10 -20 25 -20 34 0 9 9
23 20 31 25 18 26 54 4 121 -13 40 -14 55 -5 76 9 20 8 37 -10 89 -12 35 -25
64 -29 64 -4 0 -21 -31 -38 -69z m58 -20 c0 -15 -6 -36 -14 -46 -11 -16 -16
-17 -29 -7 -14 12 -13 17 5 52 23 43 38 44 38 1z m8 -183 c10 -25 9 -29 -17
-47 -28 -20 -28 -20 -40 5 -11 26 -1 60 23 76 13 8 18 3 34 -34z m-63 -208
c-8 -27 -57 -80 -72 -80 -24 0 -13 34 24 72 37 38 59 41 48 8z m95 -48 c0 -5
-13 -9 -30 -10 -27 -1 -30 3 -30 28 0 57 10 64 36 26 13 -19 24 -39 24 -44z
m-104 -39 c-11 -11 -19 6 -11 24 8 17 8 17 12 0 3 -10 2 -21 -1 -24z m79 -27
c0 -28 -27 -57 -41 -44 -3 4 -3 23 0 43 9 46 41 46 41 1z m-157 -9 c3 -12 -4
-17 -22 -17 -28 0 -33 9 -14 28 15 15 32 10 36 -11z m70 -15 c3 -9 -3 -13 -19
-10 -12 1 -24 9 -27 16 -3 9 3 13 19 10 12 -1 24 -9 27 -16z m185 1 c15 -9 7
-35 -9 -29 -9 3 -28 6 -44 6 -23 0 -27 3 -23 21 5 17 11 19 37 13 17 -3 34 -8
39 -11z m-259 -59 c3 -8 2 -12 -4 -9 -6 3 -10 10 -10 16 0 14 7 11 14 -7z m39
9 c-7 -2 -19 -2 -25 0 -7 3 -2 5 12 5 14 0 19 -2 13 -5z m127 -13 c0 -5 -4
-10 -9 -10 -6 0 -13 5 -16 10 -3 6 1 10 9 10 9 0 16 -4 16 -10z m62 -32 c-22
-23 -42 -17 -42 12 0 13 8 20 28 22 35 4 40 -9 14 -34z m-202 2 c0 -5 -2 -10
-4 -10 -3 0 -8 5 -11 10 -3 6 -1 10 4 10 6 0 11 -4 11 -10z m103 -4 c8 -19 -3
-57 -14 -50 -12 7 -12 64 0 64 5 0 11 -6 14 -14z m14 -82 c-24 -22 -42 -33
-48 -27 -16 16 2 43 27 43 13 0 24 5 24 10 0 6 8 10 18 10 12 0 7 -10 -21 -36z"/>
</g>
</svg>
