<svg version="1.0" xmlns="http://www.w3.org/2000/svg"
 width="53.000000pt" height="111.000000pt" viewBox="0 0 53.000000 111.000000"
 preserveAspectRatio="xMidYMid meet">
<metadata>
Created by potrace 1.15, written by Peter Selinger 2001-2017
</metadata>
<g transform="translate(0.000000,111.000000) scale(0.100000,-0.100000)"
fill="#000000" stroke="none">
<path d="M179 923 c-8 -16 -16 -30 -19 -33 -12 -11 -49 -148 -59 -215 -11 -79
-22 -237 -22 -335 -1 -98 54 -290 82 -290 5 0 9 27 9 60 0 59 0 59 40 70 22 6
73 10 113 8 72 -3 72 -3 100 -61 15 -31 32 -57 37 -57 13 0 13 85 0 108 -5 9
-21 53 -36 97 -44 137 -42 298 7 460 28 95 19 222 -11 143 -6 -18 -16 -42 -20
-53 -16 -41 -50 -161 -50 -179 0 -21 -8 -20 -123 10 -68 18 -68 18 -62 68 6
47 11 64 38 123 13 30 14 95 1 100 -6 2 -17 -9 -25 -24z m85 -334 c33 -5 60
-10 62 -12 1 -1 4 -55 6 -119 4 -117 4 -117 -91 -115 -96 2 -96 2 -99 102 -2
55 0 115 3 134 6 30 9 32 33 26 15 -3 54 -10 86 -16z m92 -310 c34 -28 15 -37
-83 -41 -115 -5 -123 -3 -123 26 0 21 4 23 96 25 61 1 101 -3 110 -10z"/>
</g>
</svg>
