<svg version="1.0" xmlns="http://www.w3.org/2000/svg"
 width="67.000000pt" height="103.000000pt" viewBox="0 0 67.000000 103.000000"
 preserveAspectRatio="xMidYMid meet">
<metadata>
Created by potrace 1.15, written by Peter Selinger 2001-2017
</metadata>
<g transform="translate(0.000000,103.000000) scale(0.100000,-0.100000)"
fill="#000000" stroke="none">
<path d="M317 804 c-4 -4 -7 -30 -7 -59 0 -53 -12 -75 -42 -75 -9 0 -33 -9
-53 -20 -20 -11 -40 -20 -46 -20 -30 0 -120 -125 -119 -167 1 -13 12 -6 42 27
41 45 41 45 35 -55 -4 -55 -10 -128 -13 -162 -4 -40 -3 -63 3 -63 11 0 33 95
33 141 0 21 16 42 71 93 39 36 75 66 80 66 5 0 9 -12 8 -27 0 -27 -10 -46 -53
-107 -10 -14 -23 -58 -28 -99 -5 -39 -12 -89 -15 -110 -3 -22 -1 -37 5 -37 17
0 20 10 38 115 13 77 22 104 41 123 23 23 25 23 39 6 8 -11 12 -30 9 -44 -11
-57 -18 -220 -9 -220 10 0 37 171 36 230 0 19 -7 49 -16 65 -19 36 -21 85 -3
85 6 -1 29 -35 50 -78 35 -70 39 -85 39 -158 0 -44 -3 -95 -7 -112 -3 -18 -3
-32 3 -32 14 0 31 44 38 102 4 29 11 56 16 59 6 4 4 18 -4 35 -12 24 -13 46
-5 122 5 51 8 95 5 97 -3 3 -35 8 -71 12 -65 6 -65 6 -70 42 -2 20 -1 40 3 44
11 13 92 -14 115 -38 19 -21 26 -31 66 -102 57 -101 81 -106 30 -7 -16 33 -36
76 -45 96 -15 37 -25 44 -136 92 -14 6 -27 11 -29 13 -2 1 -6 21 -8 43 -7 59
-17 92 -26 84z m-7 -220 c0 -34 0 -34 -80 -34 -44 0 -80 3 -80 6 0 21 113 74
143 66 12 -3 17 -14 17 -38z m-80 -82 c0 -4 -13 -20 -30 -35 -23 -22 -30 -25
-30 -12 0 28 20 55 40 55 11 0 20 -3 20 -8z m220 -36 c0 -25 -4 -47 -8 -50 -7
-4 -52 73 -52 89 0 3 14 5 30 5 29 0 30 -2 30 -44z"/>
</g>
</svg>
