<svg version="1.0" xmlns="http://www.w3.org/2000/svg"
 width="73.000000pt" height="93.000000pt" viewBox="0 0 73.000000 93.000000"
 preserveAspectRatio="xMidYMid meet">
<metadata>
Created by potrace 1.15, written by Peter Selinger 2001-2017
</metadata>
<g transform="translate(0.000000,93.000000) scale(0.100000,-0.100000)"
fill="#000000" stroke="none">
<path d="M323 708 c-22 -29 -46 -69 -52 -89 -7 -21 -22 -42 -37 -50 -30 -16
-54 -57 -54 -93 0 -17 -12 -33 -40 -53 -22 -15 -40 -32 -40 -37 0 -8 8 -6 68
10 12 4 22 2 22 -4 0 -14 -58 -62 -74 -62 -7 0 -21 -9 -31 -20 -17 -19 -17
-20 1 -20 10 1 30 7 44 15 66 38 58 -7 -11 -69 -44 -40 -61 -66 -42 -66 4 0
29 15 55 32 69 47 89 93 87 202 -2 119 29 163 85 121 31 -24 90 -19 124 10 30
25 30 25 48 -3 15 -21 19 -43 17 -102 -2 -50 3 -89 13 -117 18 -47 76 -98 101
-89 12 5 6 17 -31 56 -40 43 -56 70 -42 70 3 0 21 -10 41 -21 52 -31 53 -17 1
35 -63 62 -60 106 4 56 14 -11 34 -19 45 -19 16 0 9 10 -32 48 -28 27 -58 64
-66 83 -10 23 -24 38 -41 42 -16 4 -26 13 -26 25 0 11 -16 42 -35 71 -19 29
-35 56 -35 60 0 4 -6 13 -14 19 -11 9 -22 0 -53 -41z m60 -36 c21 -23 38 -69
31 -86 -3 -8 -19 -20 -35 -26 -25 -11 -32 -10 -49 5 -25 23 -25 38 2 86 25 44
29 46 51 21z"/>
<path d="M335 620 c-10 -17 20 -44 40 -36 9 3 15 14 13 23 -4 21 -43 30 -53
13z"/>
<path d="M300 479 c-48 -88 -44 -161 10 -201 50 -37 33 -116 -44 -195 -34 -36
-47 -56 -40 -63 7 -7 30 7 72 40 63 51 63 51 106 15 37 -30 76 -46 76 -31 0 3
-22 27 -48 54 -45 47 -72 102 -72 149 0 13 11 25 30 33 65 27 86 86 53 155
-19 39 -33 46 -33 15 0 -17 -7 -20 -51 -20 -51 0 -51 0 -45 35 8 39 2 45 -14
14z m120 -99 c0 -27 -35 -60 -63 -60 -29 0 -60 32 -51 53 6 17 28 23 82 26 26
1 32 -3 32 -19z"/>
<path d="M440 235 c0 -26 7 -43 26 -60 38 -35 62 -32 30 4 -8 9 -18 31 -23 50
-12 48 -33 52 -33 6z"/>
<path d="M234 213 c-9 -21 -25 -50 -35 -65 -23 -31 -24 -38 -5 -38 24 0 76 68
76 100 0 44 -19 46 -36 3z"/>
</g>
</svg>
