<svg version="1.0" xmlns="http://www.w3.org/2000/svg"
 width="61.000000pt" height="83.000000pt" viewBox="0 0 61.000000 83.000000"
 preserveAspectRatio="xMidYMid meet">
<metadata>
Created by potrace 1.15, written by Peter Selinger 2001-2017
</metadata>
<g transform="translate(0.000000,83.000000) scale(0.100000,-0.100000)"
fill="#000000" stroke="none">
<path d="M317 643 c-4 -3 -7 -23 -7 -43 0 -36 -3 -39 -47 -55 -27 -10 -69 -19
-96 -20 -46 -2 -74 -14 -51 -22 6 -2 19 -9 29 -17 15 -10 15 -15 4 -27 -25
-26 -59 -78 -59 -89 0 -17 23 -11 49 14 23 22 28 23 45 11 18 -13 18 -16 0
-72 -9 -32 -21 -63 -26 -70 -13 -16 -6 -86 9 -90 11 -4 123 134 123 151 0 4 7
14 15 23 12 12 19 13 30 3 22 -18 18 -54 -10 -110 -13 -27 -31 -68 -40 -92
-28 -81 -15 -92 28 -23 29 45 46 56 48 33 1 -7 2 -17 3 -23 13 -57 21 -75 32
-75 10 0 13 7 9 23 -3 12 -7 62 -9 111 -3 88 -3 88 13 55 9 -19 22 -52 30 -74
32 -94 51 -81 51 36 0 53 4 89 10 89 6 0 10 12 10 28 0 15 4 34 10 42 5 8 5
19 1 25 -5 5 -11 23 -15 38 -4 16 -31 53 -61 83 -45 45 -55 60 -55 88 0 36
-14 55 -25 36 -5 -8 -13 -6 -24 4 -10 9 -21 13 -24 9z m3 -153 c0 -23 -17 -25
-42 -6 -26 19 -22 26 12 26 23 0 30 -4 30 -20z m90 4 c0 -8 -4 -12 -10 -9 -5
3 -10 10 -10 16 0 5 5 9 10 9 6 0 10 -7 10 -16z m-80 -60 c0 -12 -12 -13 -67
-8 -38 4 -70 9 -73 11 -12 11 24 18 79 15 45 -3 61 -8 61 -18z m138 -52 c15
-22 15 -22 -27 -3 -53 23 -63 33 -55 55 6 15 9 14 37 -7 17 -13 37 -33 45 -45z"/>
</g>
</svg>
