<svg version="1.0" xmlns="http://www.w3.org/2000/svg"
 width="67.000000pt" height="82.000000pt" viewBox="0 0 67.000000 82.000000"
 preserveAspectRatio="xMidYMid meet">
<metadata>
Created by potrace 1.15, written by Peter Selinger 2001-2017
</metadata>
<g transform="translate(0.000000,82.000000) scale(0.100000,-0.100000)"
fill="#000000" stroke="none">
<path d="M411 503 c-73 -75 -73 -75 -75 -167 -1 -91 -1 -91 -78 -100 -56 -6
-78 -12 -78 -22 0 -10 16 -14 63 -14 86 0 99 -11 95 -80 -3 -55 -3 -55 -96
-58 -50 -1 -92 -7 -92 -12 0 -5 26 -17 58 -26 49 -15 72 -16 163 -7 105 10
155 25 144 44 -4 5 -35 9 -71 9 -64 0 -64 0 -64 60 0 60 0 60 38 61 57 0 115
13 114 24 -1 6 -34 15 -74 20 -73 10 -73 10 -76 100 -3 91 -3 91 45 125 26 19
51 37 56 38 4 2 25 -11 48 -29 56 -44 74 -26 26 27 -19 22 -37 49 -41 62 -4
12 -13 21 -19 21 -7 -1 -45 -35 -86 -76z"/>
<path d="M185 501 c-9 -22 -32 -54 -51 -72 -68 -66 -28 -82 47 -19 54 46 55
46 98 24 55 -27 55 -3 2 54 -27 29 -55 52 -63 52 -8 0 -23 -18 -33 -39z"/>
</g>
</svg>
