<svg version="1.0" xmlns="http://www.w3.org/2000/svg"
 width="77.000000pt" height="113.000000pt" viewBox="0 0 77.000000 113.000000"
 preserveAspectRatio="xMidYMid meet">
<metadata>
Created by potrace 1.15, written by Peter Selinger 2001-2017
</metadata>
<g transform="translate(0.000000,113.000000) scale(0.100000,-0.100000)"
fill="#000000" stroke="none">
<path d="M209 1058 c0 -13 0 -50 1 -83 1 -41 -4 -66 -14 -80 -16 -20 -16 -20
-36 4 -14 16 -20 38 -20 71 0 53 -23 86 -41 59 -5 -8 -7 -27 -4 -43 3 -16 5
-43 5 -60 0 -39 31 -75 70 -82 24 -5 28 -12 34 -53 9 -62 19 -79 40 -62 11 9
16 30 16 62 0 44 2 49 23 49 12 0 35 11 51 23 26 21 29 31 31 84 3 67 -5 89
-29 80 -12 -5 -16 -20 -16 -60 0 -55 -12 -77 -42 -77 -19 0 -20 4 -22 130 -1
49 -3 55 -23 58 -18 3 -23 -2 -24 -20z"/>
<path d="M539 1043 c-1 -21 -1 -63 0 -94 2 -64 -15 -81 -55 -54 -19 12 -24 25
-26 72 -2 44 -7 58 -18 58 -11 0 -15 -12 -15 -45 -1 -82 28 -140 70 -140 31 0
42 -17 44 -68 0 -24 3 -47 6 -51 2 -5 -20 -16 -50 -26 -30 -11 -57 -25 -59
-32 -3 -8 -8 -107 -11 -221 -3 -114 -11 -241 -17 -282 -6 -41 -12 -86 -14 -98
-1 -13 -5 -26 -8 -29 -7 -7 13 -33 24 -33 27 0 50 187 55 430 1 96 6 183 10
192 10 25 38 32 52 12 24 -33 10 -295 -18 -330 -5 -6 -10 -30 -11 -53 -1 -30
4 -45 18 -56 20 -15 91 -20 110 -7 34 22 21 105 -18 118 -25 8 -34 -2 -19 -20
20 -23 10 -60 -17 -64 -26 -4 -52 13 -52 34 0 8 9 33 19 57 23 50 31 99 30
184 0 69 10 82 46 59 39 -26 44 -46 46 -192 2 -181 35 -354 68 -354 14 0 33
38 22 44 -5 3 -11 18 -14 33 -29 145 -37 199 -42 287 -11 190 -16 204 -86 221
-31 8 -58 50 -42 66 5 5 36 13 67 16 31 3 56 10 56 14 0 15 -38 29 -80 29 -34
0 -41 3 -36 16 3 9 6 33 6 55 0 35 3 40 36 54 54 23 74 50 74 104 0 53 -12 76
-33 68 -11 -4 -16 -19 -15 -49 0 -23 -5 -44 -11 -46 -6 -2 -11 -10 -11 -19 0
-8 -7 -13 -17 -11 -13 2 -17 18 -20 83 -4 74 -14 105 -34 105 -5 0 -10 -17
-10 -37z"/>
<path d="M270 690 c-14 -4 -39 -8 -56 -9 -35 -1 -86 -24 -105 -48 -11 -12 -14
-57 -14 -179 0 -89 -3 -166 -8 -170 -4 -4 -7 -29 -7 -55 0 -26 -5 -51 -10 -54
-6 -3 -10 -19 -10 -34 0 -15 -4 -31 -9 -37 -4 -5 -11 -22 -15 -37 -6 -24 -4
-28 10 -25 33 6 57 70 70 182 3 23 9 58 15 78 5 20 7 83 5 140 -6 135 0 173
30 187 15 6 25 7 29 0 4 -5 6 -67 6 -138 -1 -95 -5 -139 -17 -167 -43 -101
-35 -145 32 -163 38 -11 59 -7 87 17 16 14 17 11 17 -61 0 -43 4 -77 8 -77 28
0 32 30 32 231 0 246 -6 269 -75 300 -34 15 -45 25 -45 43 0 27 35 46 86 46
28 0 35 4 32 18 -4 19 -47 26 -88 12z m35 -197 c10 -24 15 -70 15 -147 0 -111
0 -111 -20 -78 -11 17 -24 32 -28 32 -17 0 -22 -13 -9 -28 6 -8 12 -30 12 -48
0 -31 -1 -32 -35 -27 -19 3 -41 10 -47 16 -15 11 -18 67 -4 67 19 0 47 112 50
204 1 28 4 53 7 58 10 15 44 -13 59 -49z"/>
</g>
</svg>
