<svg version="1.0" xmlns="http://www.w3.org/2000/svg"
 width="59.000000pt" height="89.000000pt" viewBox="0 0 59.000000 89.000000"
 preserveAspectRatio="xMidYMid meet">
<metadata>
Created by potrace 1.15, written by Peter Selinger 2001-2017
</metadata>
<g transform="translate(0.000000,89.000000) scale(0.100000,-0.100000)"
fill="#000000" stroke="none">
<path d="M353 639 c-61 -18 -32 -36 47 -29 29 2 52 18 44 31 -7 11 -49 10 -91
-2z"/>
<path d="M177 593 c-4 -21 -2 -42 3 -47 17 -17 11 -26 -16 -26 -20 0 -29 8
-42 40 -9 22 -23 40 -31 40 -21 0 -6 -91 18 -111 12 -10 19 -28 19 -46 -1 -16
11 -47 27 -71 30 -46 31 -41 -25 -114 -20 -26 -20 -28 -4 -35 12 -4 24 2 38
20 12 15 24 27 27 27 4 0 9 -37 12 -81 5 -74 18 -112 32 -97 4 3 9 31 12 62 4
39 10 56 20 56 16 0 12 21 -14 80 -18 38 -20 31 47 138 18 29 31 55 27 58 -3
3 -24 -13 -46 -37 -23 -23 -43 -40 -45 -38 -2 2 -6 18 -9 36 -7 33 -4 37 47
80 28 25 31 38 16 77 -14 39 -40 33 -40 -8 0 -50 -17 -53 -30 -6 -14 50 -35
52 -43 3z m-3 -129 c10 -4 16 -18 16 -36 0 -35 -14 -29 -28 12 -12 32 -11 33
12 24z"/>
<path d="M407 570 c-5 -20 -37 -29 -37 -10 0 6 -7 10 -15 10 -12 0 -14 -6 -8
-27 17 -62 0 -134 -39 -161 -10 -7 -18 -18 -18 -25 0 -8 3 -8 12 1 7 7 22 12
33 12 12 0 30 9 40 20 20 22 40 26 50 9 10 -16 -25 -49 -52 -49 -32 0 -83 -27
-83 -44 0 -17 48 -104 62 -112 6 -4 13 -2 17 3 12 18 72 55 79 48 9 -8 7 -108
-2 -157 -9 -49 5 -49 28 -1 22 46 30 125 19 178 -11 50 -36 56 -88 21 -38 -26
-55 -26 -55 -1 0 8 17 19 39 25 21 5 44 17 51 25 7 8 18 15 25 15 23 0 25 31
4 62 -21 29 -21 29 0 44 27 20 27 55 -1 99 -26 39 -53 45 -61 15z m25 -82
c-13 -13 -26 8 -17 30 6 16 7 16 17 -1 7 -13 7 -22 0 -29z"/>
</g>
</svg>
