<svg version="1.0" xmlns="http://www.w3.org/2000/svg"
 width="65.000000pt" height="87.000000pt" viewBox="0 0 65.000000 87.000000"
 preserveAspectRatio="xMidYMid meet">
<metadata>
Created by potrace 1.15, written by Peter Selinger 2001-2017
</metadata>
<g transform="translate(0.000000,87.000000) scale(0.100000,-0.100000)"
fill="#000000" stroke="none">
<path d="M537 613 c-4 -3 -7 -69 -7 -145 0 -139 0 -139 -147 -136 -148 3 -148
3 -151 76 -2 63 -5 73 -20 70 -22 -4 -30 -67 -31 -264 -1 -126 2 -154 15 -165
20 -16 223 -25 261 -11 16 6 40 13 55 16 19 4 34 19 48 45 17 35 20 68 26 265
6 176 4 229 -6 241 -13 16 -32 20 -43 8z m-21 -410 c-5 -53 -13 -84 -24 -95
-23 -23 -236 -46 -258 -28 -10 9 -14 36 -14 101 0 104 -15 96 174 98 129 1
129 1 122 -76z"/>
<path d="M134 581 c-38 -23 -40 -34 -52 -263 -8 -141 -11 -162 -37 -213 -20
-41 -24 -60 -16 -68 15 -15 57 26 81 78 14 32 19 77 23 224 4 151 8 186 21
200 13 13 45 17 153 21 160 6 191 23 61 33 -145 12 -200 9 -234 -12z"/>
</g>
</svg>
