<svg version="1.0" xmlns="http://www.w3.org/2000/svg"
 width="67.000000pt" height="91.000000pt" viewBox="0 0 67.000000 91.000000"
 preserveAspectRatio="xMidYMid meet">
<metadata>
Created by potrace 1.15, written by Peter Selinger 2001-2017
</metadata>
<g transform="translate(0.000000,91.000000) scale(0.100000,-0.100000)"
fill="#000000" stroke="none">
<path d="M204 769 c-61 -8 -98 -24 -74 -34 9 -3 118 -4 244 -3 165 2 230 6
233 15 3 7 -12 14 -39 17 -68 9 -308 12 -364 5z"/>
<path d="M94 683 c-3 -10 -10 -29 -14 -43 -8 -23 -14 -61 -39 -250 -13 -97
-14 -326 -1 -350 25 -46 30 -15 30 178 1 124 6 234 16 297 24 160 27 185 20
185 -4 0 -9 -8 -12 -17z"/>
<path d="M209 558 c-4 -142 32 -246 92 -267 27 -9 33 -7 64 25 19 19 38 47 41
62 4 15 11 30 16 33 5 3 14 36 20 72 8 52 8 70 -2 82 -21 26 -30 17 -30 -30 0
-45 0 -45 -64 -45 -35 0 -71 -2 -79 -5 -10 -4 -19 10 -31 50 -10 30 -20 55
-22 55 -2 0 -4 -15 -5 -32z m181 -113 c0 -34 -43 -107 -68 -116 -25 -10 -41 7
-54 58 -17 69 -18 68 47 74 33 3 63 6 68 7 4 1 7 -9 7 -23z"/>
</g>
</svg>
