<svg version="1.0" xmlns="http://www.w3.org/2000/svg"
 width="68.000000pt" height="94.000000pt" viewBox="0 0 68.000000 94.000000"
 preserveAspectRatio="xMidYMid meet">
<metadata>
Created by potrace 1.15, written by Peter Selinger 2001-2017
</metadata>
<g transform="translate(0.000000,94.000000) scale(0.100000,-0.100000)"
fill="#000000" stroke="none">
<path d="M236 703 c-31 -5 -67 -25 -103 -57 -20 -16 -23 -30 -23 -85 0 -36 3
-76 6 -88 9 -34 64 -63 118 -63 25 0 46 -3 46 -8 0 -4 -20 -19 -45 -34 -27
-16 -52 -42 -62 -62 -15 -32 -15 -37 1 -60 30 -46 93 -44 145 5 34 32 103 60
118 47 24 -19 14 -47 -26 -72 -50 -32 -76 -66 -96 -127 -13 -38 -14 -54 -6
-62 18 -18 45 5 52 46 8 49 32 82 79 109 84 49 78 130 -11 144 -27 4 -47 -2
-101 -35 -76 -47 -108 -52 -108 -20 0 14 23 44 62 80 46 45 68 59 92 60 54 1
108 23 130 52 32 43 30 156 -2 190 -38 40 -150 57 -266 40z m59 -88 c0 -40 0
-40 -62 -43 -57 -3 -63 -1 -63 16 0 31 63 73 105 69 16 -2 20 -9 20 -42z m166
29 c7 -9 15 -27 16 -40 4 -23 1 -24 -61 -24 -56 0 -66 3 -71 20 -3 11 -3 29 0
40 5 16 15 20 54 20 32 0 53 -5 62 -16z m29 -109 c0 -2 -5 -15 -11 -29 -13
-27 -54 -46 -100 -46 -26 0 -29 3 -29 34 0 19 6 37 13 39 15 7 127 9 127 2z
m-190 -45 c0 -40 0 -40 -53 -40 -58 0 -77 12 -77 46 0 24 15 28 98 32 31 2 32
1 32 -38z"/>
</g>
</svg>
