<svg version="1.0" xmlns="http://www.w3.org/2000/svg"
 width="45.000000pt" height="75.000000pt" viewBox="0 0 45.000000 75.000000"
 preserveAspectRatio="xMidYMid meet">
<metadata>
Created by potrace 1.15, written by Peter Selinger 2001-2017
</metadata>
<g transform="translate(0.000000,75.000000) scale(0.100000,-0.100000)"
fill="#000000" stroke="none">
<path d="M217 604 c-4 -4 -7 -50 -7 -102 0 -94 0 -94 -59 -90 -64 3 -81 -3
-62 -26 10 -12 28 -18 99 -32 20 -4 19 -2 25 -79 10 -126 20 -195 27 -200 22
-14 33 32 34 148 1 122 1 122 62 119 39 -3 64 0 69 8 10 16 7 18 -67 32 -65
12 -65 12 -72 88 -9 113 -26 157 -49 134z"/>
</g>
</svg>
