<svg version="1.0" xmlns="http://www.w3.org/2000/svg"
 width="65.000000pt" height="120.000000pt" viewBox="0 0 65.000000 120.000000"
 preserveAspectRatio="xMidYMid meet">
<metadata>
Created by potrace 1.15, written by Peter Selinger 2001-2017
</metadata>
<g transform="translate(0.000000,120.000000) scale(0.100000,-0.100000)"
fill="#000000" stroke="none">
<path d="M230 1091 c-5 -11 -10 -31 -10 -44 0 -19 -6 -26 -31 -31 -70 -14 -89
-5 -89 44 0 20 -29 35 -41 23 -10 -10 -11 -69 -4 -141 8 -76 38 -104 114 -106
49 -1 60 3 84 26 25 25 28 35 32 127 5 92 4 101 -14 111 -26 14 -29 13 -41 -9z
m-15 -156 c0 -25 -5 -30 -35 -37 -51 -10 -70 -2 -70 32 0 24 5 29 28 33 61 10
77 4 77 -28z"/>
<path d="M505 1098 c-2 -7 -5 -24 -7 -38 -3 -23 -7 -25 -53 -25 -48 0 -50 1
-55 30 -4 22 -11 30 -25 30 -18 0 -20 -6 -19 -65 2 -108 12 -163 34 -182 29
-24 107 -19 148 10 32 23 32 23 31 110 -1 48 -4 98 -8 112 -8 27 -38 40 -46
18z m1 -133 c2 -48 -13 -65 -59 -65 -45 0 -50 6 -57 68 -1 10 38 19 80 18 28
-1 35 -5 36 -21z"/>
<path d="M230 801 c-109 -8 -140 -18 -167 -58 -28 -40 -32 -77 -39 -389 -4
-154 -7 -292 -8 -308 -1 -31 11 -41 33 -27 22 14 31 102 32 331 2 341 2 347
43 374 34 21 67 28 173 33 77 4 94 2 99 -10 9 -24 -14 -57 -39 -57 -27 0 -149
-50 -174 -72 -10 -8 -26 -18 -35 -21 -11 -4 -15 -12 -12 -22 8 -20 22 -19 72
5 60 29 72 27 72 -15 0 -25 -5 -37 -17 -42 -96 -32 -155 -80 -128 -103 11 -9
24 -6 60 14 71 40 85 36 85 -23 0 -45 -3 -50 -30 -63 -16 -7 -30 -16 -30 -20
0 -5 -9 -8 -20 -8 -24 0 -60 -37 -60 -62 0 -13 8 -18 30 -18 17 0 30 4 30 9 0
5 23 20 51 34 51 25 51 25 98 -24 52 -54 71 -96 71 -158 0 -34 10 -70 25 -89
1 -1 10 0 19 4 12 5 16 20 16 66 0 96 -16 139 -71 194 -27 27 -49 52 -49 56 0
4 27 13 60 20 55 11 61 15 74 48 17 44 10 90 -18 112 -17 14 -19 19 -8 29 19
20 14 73 -8 97 -14 15 -20 35 -20 66 0 40 3 46 25 52 33 8 75 -19 75 -50 0
-12 3 -25 6 -29 6 -6 13 -127 18 -332 2 -66 6 -127 9 -135 4 -8 8 -49 9 -90 3
-69 5 -75 26 -78 19 -3 22 2 24 30 1 18 1 42 1 53 -1 11 -4 94 -7 185 -10 237
-25 421 -38 447 -10 20 -31 33 -65 39 -42 8 -213 10 -293 5z m184 -188 c-8
-32 -30 -52 -57 -53 -15 0 -18 7 -15 32 2 25 9 34 28 39 46 13 51 11 44 -18z
m41 -115 c-6 -52 -23 -74 -64 -88 -49 -16 -62 -8 -67 44 -5 40 0 44 58 55 71
14 77 13 73 -11z"/>
</g>
</svg>
