<svg version="1.0" xmlns="http://www.w3.org/2000/svg"
 width="67.000000pt" height="84.000000pt" viewBox="0 0 67.000000 84.000000"
 preserveAspectRatio="xMidYMid meet">
<metadata>
Created by potrace 1.15, written by Peter Selinger 2001-2017
</metadata>
<g transform="translate(0.000000,84.000000) scale(0.100000,-0.100000)"
fill="#000000" stroke="none">
<path d="M418 660 c-21 -22 -29 -37 -25 -52 7 -25 -40 -88 -65 -88 -25 0 -48
38 -42 70 13 63 -103 97 -145 44 -25 -32 -27 -62 -5 -93 15 -21 22 -22 70 -16
46 5 54 4 64 -14 9 -18 7 -21 -17 -27 -67 -14 -94 -27 -118 -55 -22 -28 -25
-39 -25 -117 0 -95 -16 -219 -29 -236 -5 -6 -12 -21 -16 -34 -6 -21 -4 -23 17
-20 40 5 69 99 78 247 8 131 17 151 62 151 10 0 28 10 39 21 20 20 29 21 99
16 82 -7 125 -21 134 -44 3 -8 10 -62 16 -121 11 -113 32 -242 44 -261 4 -6
14 -11 23 -11 17 0 16 10 -7 160 -5 36 -10 94 -10 130 -1 36 -9 85 -18 110
-14 37 -24 47 -57 58 -100 35 -97 33 -78 48 10 7 39 14 64 14 55 0 79 21 79
69 0 40 -38 81 -75 81 -16 0 -39 -12 -57 -30z m77 -50 c0 -20 -6 -26 -28 -28
-29 -4 -44 16 -33 44 4 10 15 14 33 12 22 -2 28 -8 28 -28z m-260 -20 c0 -19
-6 -26 -26 -28 -14 -2 -31 4 -39 12 -18 22 5 48 39 44 20 -2 26 -9 26 -28z"/>
<path d="M367 413 c-2 -4 -7 -25 -11 -45 -9 -49 -24 -49 -22 -1 1 28 -3 38
-16 41 -13 3 -18 -3 -18 -21 0 -58 -27 -78 -32 -25 -4 42 -24 47 -33 9 -5 -24
-12 -31 -31 -31 -27 0 -31 -12 -9 -30 13 -11 13 -16 -5 -45 -29 -46 -7 -56 34
-16 18 17 35 31 39 31 11 0 -19 -54 -37 -69 -20 -17 -21 -31 -2 -31 8 0 33 21
55 47 22 26 43 44 47 40 12 -12 -29 -77 -68 -109 -39 -30 -50 -58 -24 -58 17
0 124 116 137 148 11 27 36 39 52 23 8 -8 5 -18 -11 -40 -12 -16 -24 -47 -28
-68 -11 -72 29 -164 59 -134 8 8 7 22 -5 56 -20 52 -12 90 26 136 42 50 31 84
-29 91 -28 3 -30 6 -35 52 -5 45 -21 69 -33 49z"/>
</g>
</svg>
