<svg version="1.0" xmlns="http://www.w3.org/2000/svg"
 width="51.000000pt" height="71.000000pt" viewBox="0 0 51.000000 71.000000"
 preserveAspectRatio="xMidYMid meet">
<metadata>
Created by potrace 1.15, written by Peter Selinger 2001-2017
</metadata>
<g transform="translate(0.000000,71.000000) scale(0.100000,-0.100000)"
fill="#000000" stroke="none">
<path d="M175 618 c-52 -30 -65 -58 -63 -143 1 -44 7 -91 13 -105 12 -24 10
-49 -4 -60 -3 -3 -17 -22 -31 -42 -14 -21 -28 -38 -32 -38 -5 0 -8 -16 -8 -36
0 -37 36 -124 52 -124 4 0 8 -6 8 -14 0 -16 21 -26 57 -26 36 0 80 52 99 119
15 52 41 109 55 121 3 3 10 14 15 25 6 15 10 1 12 -52 2 -40 7 -73 11 -73 13
0 23 67 16 101 -11 49 10 33 46 -36 36 -70 49 -80 49 -40 0 40 -24 89 -64 128
-40 41 -45 62 -17 70 34 8 81 124 56 137 -5 3 -12 -8 -13 -25 -4 -27 -34 -65
-54 -65 -4 0 -9 10 -10 23 -7 102 -20 131 -65 155 -28 15 -102 15 -128 0z
m124 -45 c23 -22 31 -38 33 -72 4 -53 -14 -65 -32 -21 -7 16 -17 30 -22 30
-15 0 0 -50 28 -94 17 -25 24 -46 20 -61 -11 -44 -95 -139 -110 -125 -2 3 -7
17 -11 33 -6 24 -3 29 29 42 28 12 36 21 36 40 0 20 -5 25 -23 25 -32 0 -38 8
-25 36 9 18 8 30 -2 50 -11 19 -11 29 -2 44 8 13 8 28 2 52 -14 47 -13 48 20
48 19 0 41 -10 59 -27z m-119 -17 c0 -21 -11 -46 -20 -46 -12 0 -20 28 -14 45
8 19 34 20 34 1z m-1 -137 c-13 -26 -23 -18 -14 10 3 12 11 19 16 16 5 -4 5
-14 -2 -26z m31 -79 c0 -5 -9 -10 -20 -10 -11 0 -20 5 -20 10 0 6 9 10 20 10
11 0 20 -4 20 -10z m-80 -118 c0 -5 -6 -17 -14 -28 -19 -25 -31 -12 -14 15 13
21 28 28 28 13z m60 -7 c0 -8 -4 -15 -10 -15 -5 0 -10 7 -10 15 0 8 5 15 10
15 6 0 10 -7 10 -15z m40 -55 c0 -5 -10 -11 -22 -12 -42 -2 -47 -3 -54 -11
-11 -10 -24 -9 -24 3 0 6 10 15 23 20 30 12 77 12 77 0z m-22 -67 c-2 -11 -14
-19 -31 -21 -22 -3 -27 1 -27 17 0 17 6 21 31 21 24 0 30 -4 27 -17z"/>
</g>
</svg>
