<svg version="1.0" xmlns="http://www.w3.org/2000/svg"
 width="71.000000pt" height="93.000000pt" viewBox="0 0 71.000000 93.000000"
 preserveAspectRatio="xMidYMid meet">
<metadata>
Created by potrace 1.15, written by Peter Selinger 2001-2017
</metadata>
<g transform="translate(0.000000,93.000000) scale(0.100000,-0.100000)"
fill="#000000" stroke="none">
<path d="M455 689 c-4 -5 -4 -21 -1 -34 5 -20 1 -25 -28 -35 -34 -11 -46 -26
-46 -59 0 -24 42 -61 69 -61 19 0 22 -5 19 -32 -3 -29 -7 -33 -35 -36 -41 -4
-56 -23 -48 -62 7 -32 30 -50 64 -50 36 0 26 -36 -11 -44 -17 -3 -37 -11 -45
-17 -15 -13 -18 -109 -3 -109 6 0 10 11 10 24 0 27 45 79 63 73 8 -2 13 -31
15 -83 5 -131 42 -128 42 4 0 70 1 72 25 72 28 0 45 -30 45 -80 0 -33 18 -49
31 -29 14 23 10 103 -7 127 -11 16 -25 22 -55 22 -31 0 -39 4 -39 19 0 14 10
20 41 24 47 6 59 19 59 62 0 42 -16 55 -68 55 -41 0 -43 1 -40 28 3 23 8 27
38 30 47 5 60 18 60 59 0 53 -15 73 -55 73 -24 0 -35 5 -35 15 0 14 -38 55
-51 55 -4 0 -11 -5 -14 -11z m116 -105 c24 -29 -1 -49 -66 -52 -67 -4 -102 17
-84 49 8 16 21 19 73 19 46 0 67 -4 77 -16z m13 -197 c8 -14 8 -20 -4 -27 -23
-15 -133 -12 -155 3 -17 13 -17 15 6 31 33 23 137 19 153 -7z"/>
<path d="M170 631 c-85 -6 -85 -6 -88 -110 -3 -124 6 -141 75 -141 43 0 43 0
43 -40 0 -40 0 -40 -56 -40 -40 0 -54 -3 -51 -12 2 -8 22 -13 48 -13 40 0 44
-2 47 -26 3 -25 -1 -27 -45 -35 -48 -9 -48 -9 -48 -79 0 -54 3 -70 14 -70 10
0 15 14 17 48 3 54 17 77 45 77 17 0 19 -8 19 -66 0 -64 12 -104 30 -104 6 0
10 39 10 90 0 50 2 90 5 90 2 0 15 -5 29 -11 24 -11 36 -43 36 -101 0 -26 2
-28 15 -14 18 18 21 116 3 134 -7 7 -29 12 -50 12 -35 0 -38 2 -38 29 0 29 2
30 53 33 28 2 51 8 49 13 -1 6 -25 8 -52 7 -50 -4 -50 -4 -50 37 0 41 0 41 39
41 26 0 41 5 45 16 3 9 6 62 6 118 0 107 -7 128 -44 124 -12 -1 -59 -4 -106
-7z m104 -37 c3 -9 6 -24 6 -35 0 -18 -6 -20 -77 -17 -74 3 -78 4 -81 27 -5
32 12 41 84 41 47 0 63 -4 68 -16z m6 -104 c0 -30 0 -30 -80 -30 -80 0 -80 0
-80 30 0 30 0 30 80 30 80 0 80 0 80 -30z m0 -59 c0 -22 -32 -32 -92 -29 -50
2 -63 6 -66 21 -3 15 6 17 77 17 45 0 81 -4 81 -9z"/>
</g>
</svg>
