<svg version="1.0" xmlns="http://www.w3.org/2000/svg"
 width="73.000000pt" height="125.000000pt" viewBox="0 0 73.000000 125.000000"
 preserveAspectRatio="xMidYMid meet">
<metadata>
Created by potrace 1.15, written by Peter Selinger 2001-2017
</metadata>
<g transform="translate(0.000000,125.000000) scale(0.100000,-0.100000)"
fill="#000000" stroke="none">
<path d="M115 1100 c-4 -6 7 -39 24 -73 36 -76 54 -174 48 -259 -3 -35 -16
-137 -31 -228 -35 -226 -31 -360 14 -452 16 -33 26 -35 40 -8 8 14 7 28 -3 52
-24 60 -39 153 -34 218 8 97 16 172 23 200 13 51 26 177 26 260 1 155 -15 223
-65 278 -23 24 -33 27 -42 12z"/>
<path d="M459 1078 c-1 -13 -2 -27 -4 -33 -1 -5 -3 -19 -3 -30 -1 -13 -18 -28
-49 -44 -27 -12 -56 -27 -67 -33 -23 -12 -32 0 -41 54 -7 38 -42 75 -56 60 -4
-4 1 -34 12 -66 21 -60 22 -160 4 -258 -6 -30 -4 -38 7 -38 26 0 48 66 48 145
0 72 1 75 24 75 13 0 40 7 60 15 20 9 41 13 47 9 22 -13 -1 -533 -26 -609 -21
-62 -98 -195 -117 -203 -4 -2 -8 -8 -8 -13 0 -6 -11 -22 -25 -37 -27 -29 -31
-47 -13 -58 15 -9 104 88 126 138 9 21 20 38 24 38 5 0 8 9 8 20 0 11 3 20 8
20 7 0 25 37 37 78 7 25 35 30 35 6 0 -13 55 -100 97 -154 7 -8 31 -39 53 -68
23 -28 48 -52 56 -52 26 0 14 36 -24 76 -37 38 -86 106 -127 175 -36 62 -54
132 -55 205 0 63 2 72 20 77 14 4 20 14 20 33 0 37 22 95 34 91 15 -5 44 -59
45 -83 1 -11 -3 -24 -8 -30 -13 -14 -33 -143 -24 -157 4 -7 10 -32 13 -57 3
-31 10 -45 20 -45 12 0 15 22 17 119 2 65 8 126 13 136 6 10 10 27 10 37 0 11
9 38 20 61 48 100 1 221 -75 192 -30 -12 -59 -71 -76 -162 -22 -110 -30 -87
-27 79 2 89 6 164 9 167 3 3 28 1 55 -5 112 -24 127 -23 106 7 -14 21 -51 34
-99 34 -27 0 -54 5 -61 12 -16 16 -15 45 1 51 9 3 9 9 1 23 -17 29 -44 30 -45
2z m179 -260 c17 -17 15 -96 -3 -114 -13 -13 -18 -11 -45 14 -27 27 -29 32
-20 58 20 53 43 67 68 42z"/>
<path d="M30 1000 c0 -5 4 -10 8 -10 4 0 20 -23 36 -51 30 -56 34 -97 16 -174
-25 -109 -11 -142 28 -65 20 40 22 55 17 134 -6 92 -12 111 -48 152 -21 24
-57 33 -57 14z"/>
<path d="M344 809 c-6 -10 -8 -103 -2 -126 0 -5 -1 -15 -5 -23 -11 -30 -16
-207 -6 -217 7 -7 5 -15 -5 -26 -9 -8 -13 -23 -10 -31 7 -19 33 -21 36 -3 0 6
2 17 3 22 9 51 15 117 20 210 2 61 8 127 11 149 5 27 2 41 -7 47 -19 12 -26
11 -35 -2z"/>
<path d="M239 593 c-20 -23 -19 -309 1 -375 15 -49 36 -69 47 -42 6 15 3 37
-17 154 -13 71 -6 235 10 255 5 6 7 15 3 18 -11 12 -30 8 -44 -10z"/>
<path d="M86 582 c-3 -5 -12 -41 -21 -81 -14 -58 -14 -75 -4 -87 10 -13 10
-17 0 -24 -24 -14 -1 -269 26 -292 22 -18 33 8 20 46 -5 17 -12 57 -14 89 -3
31 -9 57 -14 57 -5 0 -4 12 1 26 6 14 8 29 5 33 -4 8 14 130 31 209 5 25 3 32
-9 32 -9 0 -18 -4 -21 -8z"/>
</g>
</svg>
