<svg version="1.0" xmlns="http://www.w3.org/2000/svg"
 width="119.000000pt" height="207.000000pt" viewBox="0 0 119.000000 207.000000"
 preserveAspectRatio="xMidYMid meet">
<metadata>
Created by potrace 1.15, written by Peter Selinger 2001-2017
</metadata>
<g transform="translate(0.000000,207.000000) scale(0.100000,-0.100000)"
fill="#000000" stroke="none">
<path d="M302 1968 c-7 -7 -12 -35 -12 -63 0 -28 -5 -56 -10 -61 -7 -7 -8 -19
-1 -37 7 -19 7 -42 -1 -77 -9 -39 -8 -52 2 -65 10 -12 49 -22 50 -12 1 1 3 20
6 42 7 58 10 62 41 69 88 20 113 31 113 48 0 18 -33 37 -61 36 -8 -1 -27 0
-42 0 -28 2 -28 4 -22 40 5 30 2 44 -15 65 -24 30 -31 32 -48 15z"/>
<path d="M657 1813 c-15 -14 -5 -32 53 -101 33 -40 60 -79 60 -87 0 -15 -85
-74 -107 -75 -7 0 -13 -4 -13 -10 0 -5 -9 -10 -20 -10 -29 0 -38 -30 -15 -46
22 -16 75 -19 75 -4 0 6 10 10 23 10 13 0 32 8 43 19 39 36 60 42 78 22 9 -9
16 -22 16 -28 0 -6 8 -21 18 -34 19 -25 37 -79 46 -136 6 -35 6 -35 -77 -88
-21 -14 -43 -25 -50 -25 -7 0 -23 -7 -35 -16 -20 -14 -22 -14 -22 4 0 39 -22
82 -41 82 -20 0 -25 -24 -20 -107 2 -34 -1 -42 -18 -48 -12 -3 -21 -10 -21
-15 0 -5 -13 -11 -30 -15 -21 -5 -30 -13 -30 -26 0 -23 40 -35 68 -20 32 17
39 14 46 -21 4 -18 13 -42 21 -52 14 -19 16 -19 28 -2 9 13 11 33 6 69 -8 61
-8 62 83 110 56 31 68 34 78 22 9 -11 9 -23 1 -47 -6 -18 -12 -96 -13 -173 -2
-140 -2 -140 45 -209 26 -38 47 -71 47 -75 -1 -10 -38 -51 -46 -51 -4 0 -22
-14 -39 -30 -32 -31 -32 -31 -65 0 -17 16 -38 30 -45 30 -7 0 -20 3 -28 6 -13
5 -13 1 -2 -33 24 -66 19 -89 -25 -124 -52 -42 -51 -53 5 -46 45 7 45 7 45
-26 0 -39 34 -75 55 -57 7 6 16 42 20 81 6 61 10 71 30 79 13 5 38 24 57 42
18 19 41 37 51 41 15 6 17 -1 17 -49 0 -32 -7 -68 -17 -87 -28 -53 -19 -243
14 -275 7 -7 13 -20 13 -27 0 -7 11 -22 25 -33 14 -11 25 -26 25 -34 0 -14 39
-38 60 -38 19 0 10 37 -16 66 -35 39 -58 74 -62 93 -7 36 -3 158 7 184 6 16
11 48 11 72 0 24 5 47 10 50 17 10 11 74 -12 144 -13 36 -25 68 -28 71 -17 14
-70 101 -70 114 0 8 -4 18 -10 21 -13 8 -13 128 -1 140 5 6 11 51 12 100 2 50
7 105 13 123 9 31 -7 181 -23 207 -10 16 -31 79 -31 93 0 17 36 7 113 -30 58
-28 83 -30 116 -9 20 13 2 35 -42 51 -32 12 -67 27 -129 54 -18 8 -49 19 -68
25 -22 7 -71 45 -128 101 -91 86 -121 108 -135 93z"/>
<path d="M164 1692 c-22 -14 -35 -109 -36 -251 0 -80 -4 -156 -9 -168 -5 -14
-5 -23 1 -23 6 0 10 -8 10 -17 0 -39 104 -163 136 -163 12 0 29 -49 20 -57 -3
-3 -42 -6 -88 -7 -85 -3 -128 -16 -128 -40 0 -22 51 -37 136 -39 79 -2 79 -2
79 -52 0 -50 0 -50 -50 -57 -27 -3 -78 -7 -113 -7 -69 -1 -84 -14 -63 -54 6
-12 13 -87 15 -167 3 -80 9 -158 14 -175 13 -42 51 -111 68 -126 8 -6 14 -16
14 -21 0 -5 10 -20 23 -33 12 -13 28 -31 35 -40 14 -16 48 -20 56 -6 10 15
-19 76 -51 109 -46 47 -43 56 17 49 59 -7 80 -1 80 22 0 13 -14 21 -51 29 -28
7 -59 12 -69 12 -30 0 -59 32 -62 70 -3 33 -1 35 27 36 17 1 41 -3 55 -9 34
-14 72 -16 88 -4 7 5 15 8 17 5 3 -2 11 -69 19 -148 8 -78 19 -147 24 -152 6
-6 17 -1 31 13 25 27 27 81 7 214 -26 173 -10 234 74 286 22 13 40 30 40 37 0
6 8 12 19 12 15 0 19 -10 24 -47 5 -46 5 -46 -66 -114 -81 -77 -78 -86 19 -76
51 5 54 4 54 -16 0 -46 -13 -67 -54 -87 -53 -27 -81 -48 -73 -57 4 -3 27 -6
52 -6 25 0 45 -2 45 -4 0 -8 -27 -49 -41 -63 -21 -20 -32 -57 -20 -65 6 -3 23
5 38 20 16 14 35 28 45 30 19 7 54 76 68 137 5 24 10 89 10 145 0 57 4 105 10
108 6 3 10 14 10 24 0 10 7 33 17 51 16 33 16 34 -13 57 -27 22 -37 23 -174
23 -145 0 -145 0 -147 50 -1 55 -9 50 82 55 17 0 49 5 73 9 38 7 42 11 42 37
0 32 3 32 -114 29 -68 -1 -85 6 -86 36 0 6 26 38 58 71 78 81 86 103 78 211
-3 48 -9 143 -12 212 -4 69 -11 131 -17 138 -5 6 -22 12 -37 12 -21 0 -30 -7
-40 -30 -7 -16 -16 -30 -21 -30 -5 0 -9 -7 -9 -16 0 -9 -10 -25 -22 -35 -21
-19 -22 -19 -40 0 -10 11 -18 25 -18 32 0 11 -79 89 -90 89 -3 0 -10 -4 -16
-8z m97 -187 c-2 0 1 -10 8 -23 12 -23 12 -23 -31 -20 -32 2 -42 7 -39 18 3
13 8 57 10 85 1 6 14 -6 29 -25 15 -19 25 -35 23 -35z m149 -11 c0 -26 -5 -33
-26 -37 -31 -6 -40 12 -23 44 29 56 49 53 49 -7z m13 -103 c4 -1 7 -14 7 -31
0 -44 -30 -57 -138 -62 -87 -4 -93 -3 -98 17 -8 32 12 73 38 78 18 3 151 2
191 -2z m-35 -154 c18 -14 15 -21 -17 -56 -35 -37 -79 -41 -128 -11 -66 40
-24 78 82 77 28 0 56 -5 63 -10z m20 -474 c-3 -5 -10 -23 -17 -40 -7 -18 -17
-33 -21 -33 -12 0 -50 63 -44 72 7 10 87 11 82 1z m-169 -39 c6 -15 27 -45 45
-68 18 -22 36 -58 39 -78 7 -43 16 -44 -118 10 -49 20 -50 22 -56 69 -8 66 6
93 46 93 25 0 34 -6 44 -26z"/>
</g>
</svg>
