<svg version="1.0" xmlns="http://www.w3.org/2000/svg"
 width="43.000000pt" height="103.000000pt" viewBox="0 0 43.000000 103.000000"
 preserveAspectRatio="xMidYMid meet">
<metadata>
Created by potrace 1.15, written by Peter Selinger 2001-2017
</metadata>
<g transform="translate(0.000000,103.000000) scale(0.100000,-0.100000)"
fill="#000000" stroke="none">
<path d="M202 848 c-7 -7 -12 -16 -12 -21 0 -4 -14 -29 -32 -55 -18 -26 -44
-70 -59 -98 -26 -51 -26 -51 -8 -140 13 -65 18 -136 19 -266 0 -171 -1 -178
-20 -178 -11 0 -20 -6 -20 -14 0 -22 57 -37 114 -30 28 3 76 6 106 7 45 2 55
5 58 21 2 10 -1 22 -7 26 -8 5 -9 14 -2 33 6 15 8 32 6 39 -3 7 -9 51 -15 98
-6 47 -15 110 -19 140 -5 33 -5 100 1 166 10 110 10 110 -21 175 -27 57 -62
109 -73 109 -2 0 -9 -5 -16 -12z m62 -137 c10 -28 15 -55 11 -60 -3 -6 -6 -67
-6 -136 0 -140 2 -137 -74 -111 -25 9 -41 21 -43 33 -1 10 -10 54 -18 99 -18
88 -15 100 40 179 54 78 60 77 90 -4z m12 -373 c2 -2 11 -44 19 -94 9 -49 19
-101 21 -115 6 -26 6 -26 -81 -28 -87 -2 -87 -2 -79 36 5 21 8 77 7 125 -3 86
-3 86 53 83 31 -2 57 -5 60 -7z"/>
</g>
</svg>
