<svg version="1.0" xmlns="http://www.w3.org/2000/svg"
 width="111.000000pt" height="141.000000pt" viewBox="0 0 111.000000 141.000000"
 preserveAspectRatio="xMidYMid meet">
<metadata>
Created by potrace 1.15, written by Peter Selinger 2001-2017
</metadata>
<g transform="translate(0.000000,141.000000) scale(0.100000,-0.100000)"
fill="#000000" stroke="none">
<path d="M550 1211 c0 -11 -18 -32 -42 -50 -24 -17 -47 -34 -53 -39 -5 -4 -39
-28 -75 -52 -36 -24 -70 -49 -76 -55 -6 -6 -29 -19 -52 -29 -37 -17 -74 -67
-60 -82 3 -2 27 0 53 6 65 15 71 7 57 -77 -6 -37 -16 -122 -22 -188 -6 -66
-15 -156 -21 -199 -5 -44 -9 -106 -9 -138 0 -71 -21 -127 -47 -126 -37 3 -124
-34 -133 -56 -4 -11 -5 -24 -1 -28 12 -14 94 -16 166 -6 39 5 115 13 170 18
55 4 116 11 135 15 19 3 87 15 150 26 63 11 134 24 158 30 23 5 67 9 97 9 90
0 124 25 104 76 -9 26 -11 27 -74 20 -61 -6 -66 -5 -74 16 -4 12 -9 49 -10 81
-1 33 -5 78 -9 101 -7 35 -8 241 -3 429 1 59 1 59 64 55 57 -3 62 -1 65 18 3
18 -7 25 -55 44 -73 28 -220 98 -255 122 -14 10 -33 18 -41 18 -8 0 -29 14
-47 30 -37 34 -60 39 -60 11z m151 -153 c90 -42 90 -42 87 -128 -3 -74 -5 -85
-20 -84 -10 1 -18 -2 -18 -7 0 -5 -24 -9 -52 -8 -29 1 -78 -2 -108 -7 -30 -5
-86 -9 -125 -9 -70 0 -70 0 -71 45 0 25 4 51 10 58 5 8 9 28 8 44 -3 32 21 68
45 68 7 0 13 3 13 8 0 10 107 60 133 62 5 0 49 -19 98 -42z m57 -320 c32 -2
32 -2 32 -89 0 -86 0 -86 -42 -98 -22 -7 -73 -15 -112 -18 -39 -2 -104 -9
-144 -14 -140 -17 -132 -22 -125 79 3 48 9 92 14 97 12 17 88 33 178 40 47 3
87 8 90 11 3 3 21 3 41 -1 19 -3 50 -6 68 -7z m13 -295 c0 -15 2 -15 8 2 7 17
10 14 20 -20 6 -22 11 -68 11 -102 0 -57 -2 -63 -22 -67 -41 -9 -101 -16 -193
-24 -50 -4 -95 -11 -100 -14 -6 -3 -50 -9 -99 -13 -89 -6 -89 -6 -81 17 4 13
11 58 15 102 8 77 17 95 50 96 20 1 334 33 378 38 6 1 12 -6 13 -15z"/>
<path d="M530 646 c0 -9 5 -16 10 -16 6 0 10 4 10 9 0 6 -4 13 -10 16 -5 3
-10 -1 -10 -9z"/>
</g>
</svg>
