<svg version="1.0" xmlns="http://www.w3.org/2000/svg"
 width="55.000000pt" height="125.000000pt" viewBox="0 0 55.000000 125.000000"
 preserveAspectRatio="xMidYMid meet">
<metadata>
Created by potrace 1.15, written by Peter Selinger 2001-2017
</metadata>
<g transform="translate(0.000000,125.000000) scale(0.100000,-0.100000)"
fill="#000000" stroke="none">
<path d="M342 1092 c-6 -15 -24 -40 -40 -57 -73 -79 -76 -86 -67 -208 10 -136
12 -244 7 -275 -3 -13 -15 -28 -28 -32 -61 -24 -1 -49 128 -55 53 -2 108 -7
122 -11 23 -5 26 -3 26 20 0 14 -5 35 -12 46 -10 15 -10 26 0 53 7 18 12 56
12 84 0 30 5 53 11 55 9 3 9 9 1 25 -6 11 -11 49 -10 85 0 35 -5 81 -13 103
-13 39 -77 143 -109 177 -15 16 -16 15 -28 -10z m42 -97 c34 -35 63 -150 49
-192 -6 -16 -83 -17 -118 -1 -50 23 -46 118 8 174 37 38 40 39 61 19z m34
-270 c6 -3 12 -20 12 -40 0 -40 -3 -40 -85 -21 -34 7 -51 17 -53 29 -7 37 4
44 60 40 29 -3 59 -6 66 -8z m-2 -126 c12 -10 7 -57 -8 -75 -10 -14 -88 2
-100 20 -15 21 -9 64 10 69 23 5 84 -4 98 -14z"/>
<path d="M206 359 c-3 -34 -6 -77 -6 -95 0 -27 -4 -34 -20 -34 -27 0 -40 29
-33 78 5 41 -11 102 -27 102 -14 0 -23 -142 -11 -173 6 -15 26 -34 46 -44 31
-15 35 -21 35 -57 0 -43 19 -106 32 -106 4 0 8 6 9 13 4 90 13 108 65 133 19
9 34 22 34 29 0 6 9 20 20 30 26 23 25 43 -2 66 -27 24 -38 24 -38 -1 0 -29
-19 -64 -42 -79 -21 -13 -21 -12 -16 78 5 76 3 93 -12 106 -9 8 -19 15 -22 15
-3 0 -8 -28 -12 -61z"/>
</g>
</svg>
