<svg version="1.0" xmlns="http://www.w3.org/2000/svg"
 width="27.000000pt" height="65.000000pt" viewBox="0 0 27.000000 65.000000"
 preserveAspectRatio="xMidYMid meet">
<metadata>
Created by potrace 1.15, written by Peter Selinger 2001-2017
</metadata>
<g transform="translate(0.000000,65.000000) scale(0.100000,-0.100000)"
fill="#000000" stroke="none">
<path d="M142 452 c-22 -14 -71 -211 -72 -288 0 -63 13 -75 75 -71 48 3 48 3
47 121 -1 64 -6 132 -11 149 -5 18 -13 47 -18 64 -6 23 -12 30 -21 25z m10
-142 c2 -15 -2 -25 -9 -25 -7 0 -13 3 -13 8 0 4 0 19 0 34 0 33 18 19 22 -17z
m8 -70 c0 -5 -11 -10 -25 -10 -14 0 -25 5 -25 10 0 6 11 10 25 10 14 0 25 -4
25 -10z m0 -70 c0 -16 0 -33 0 -37 0 -5 -15 -8 -32 -8 -29 0 -33 3 -30 25 4
42 10 50 37 50 21 0 25 -5 25 -30z"/>
</g>
</svg>
