<svg version="1.0" xmlns="http://www.w3.org/2000/svg"
 width="68.000000pt" height="120.000000pt" viewBox="0 0 68.000000 120.000000"
 preserveAspectRatio="xMidYMid meet">
<metadata>
Created by potrace 1.15, written by Peter Selinger 2001-2017
</metadata>
<g transform="translate(0.000000,120.000000) scale(0.100000,-0.100000)"
fill="#000000" stroke="none">
<path d="M322 1114 c-5 -9 -7 -46 -5 -84 6 -85 5 -85 -137 -93 -121 -7 -150
-14 -150 -33 0 -19 28 -24 170 -27 125 -2 125 -2 128 -45 5 -67 -4 -72 -127
-72 -126 0 -162 -14 -116 -44 20 -13 39 -16 78 -12 29 3 125 8 213 12 161 6
162 5 178 -17 9 -13 16 -42 16 -64 0 -60 -28 -105 -80 -132 -69 -35 -75 -32
-89 42 -7 36 -17 65 -21 65 -5 0 -15 7 -23 15 -12 12 -26 13 -69 5 -29 -5 -95
-15 -145 -21 -76 -11 -93 -16 -93 -30 0 -24 25 -30 94 -24 34 3 86 8 117 11
71 6 89 -9 89 -71 0 -43 0 -43 -47 -55 -27 -6 -88 -16 -137 -21 -101 -12 -136
-23 -136 -43 0 -25 36 -28 152 -12 62 9 129 18 148 21 45 6 53 -1 70 -55 40
-132 169 -310 224 -310 42 0 33 38 -21 96 -27 27 -54 60 -61 73 -80 139 -106
196 -99 215 3 7 20 16 38 20 48 9 110 52 103 71 -4 10 0 15 10 15 10 0 16 9
16 24 0 14 5 28 10 31 14 8 13 118 -1 149 -15 33 -29 37 -124 43 -44 3 -86 10
-92 15 -16 13 -17 80 -1 96 8 8 54 12 139 12 117 0 127 1 132 20 3 10 0 24 -7
29 -6 5 -62 11 -124 14 -62 2 -117 8 -122 13 -5 5 -12 43 -15 84 -3 43 -10 77
-18 82 -20 13 -55 9 -65 -8z"/>
</g>
</svg>
