<svg version="1.0" xmlns="http://www.w3.org/2000/svg"
 width="65.000000pt" height="75.000000pt" viewBox="0 0 65.000000 75.000000"
 preserveAspectRatio="xMidYMid meet">
<metadata>
Created by potrace 1.15, written by Peter Selinger 2001-2017
</metadata>
<g transform="translate(0.000000,75.000000) scale(0.100000,-0.100000)"
fill="#000000" stroke="none">
<path d="M236 545 c-15 -28 -29 -38 -69 -50 -28 -8 -57 -15 -65 -15 -7 0 -12
-6 -9 -12 7 -20 117 -12 147 11 34 25 49 67 29 86 -13 13 -17 11 -33 -20z"/>
<path d="M344 529 c-12 -21 21 -29 121 -29 100 0 133 8 121 29 -5 7 -48 11
-121 11 -73 0 -116 -4 -121 -11z"/>
<path d="M506 482 c-3 -6 -2 -22 4 -37 5 -14 10 -47 10 -73 0 -52 30 -112 55
-112 19 0 19 11 0 36 -9 12 -14 43 -15 85 0 56 -3 69 -24 88 -14 13 -26 18
-30 13z"/>
<path d="M356 393 c1 -102 8 -130 36 -139 26 -8 32 0 19 24 -6 12 -11 54 -11
95 0 59 -4 77 -18 90 -10 10 -21 17 -23 17 -2 0 -4 -39 -3 -87z"/>
<path d="M442 400 c-1 -83 19 -140 48 -140 24 0 24 -1 4 40 -12 23 -15 47 -11
84 5 54 -5 86 -27 86 -10 0 -14 -19 -14 -70z"/>
<path d="M232 435 c-6 -14 -19 -25 -27 -25 -27 0 -127 -39 -147 -57 -27 -24
-7 -38 28 -20 16 8 45 18 64 22 80 16 106 26 118 45 9 15 10 26 2 40 -14 27
-24 25 -38 -5z"/>
<path d="M255 361 c-6 -5 -41 -26 -80 -47 -67 -35 -135 -89 -135 -106 0 -16
34 -7 57 15 13 12 61 40 106 62 60 29 82 45 82 59 0 22 -16 31 -30 17z"/>
<path d="M185 261 c-3 -6 -4 -15 -1 -19 8 -13 11 -161 3 -168 -13 -14 -36 19
-43 62 -4 28 -11 44 -20 44 -11 0 -14 -16 -14 -64 0 -81 11 -91 97 -90 74 1
87 9 55 33 -30 22 -28 74 3 80 27 5 35 19 35 64 0 26 -4 37 -15 37 -8 0 -15
-4 -15 -9 0 -5 -5 -22 -11 -38 -12 -28 -12 -28 -23 22 -11 48 -35 70 -51 46z"/>
<path d="M325 199 c-11 -17 2 -23 65 -27 60 -4 60 -4 60 -47 0 -49 -8 -55 -77
-55 -69 0 -49 -23 30 -34 75 -10 178 2 185 22 2 8 -7 12 -25 12 -48 0 -67 21
-59 63 6 30 12 38 38 45 18 4 33 13 36 20 5 16 -244 17 -253 1z"/>
</g>
</svg>
