<svg version="1.0" xmlns="http://www.w3.org/2000/svg"
 width="51.000000pt" height="71.000000pt" viewBox="0 0 51.000000 71.000000"
 preserveAspectRatio="xMidYMid meet">
<metadata>
Created by potrace 1.15, written by Peter Selinger 2001-2017
</metadata>
<g transform="translate(0.000000,71.000000) scale(0.100000,-0.100000)"
fill="#000000" stroke="none">
<path d="M343 543 c-8 -3 -13 -24 -13 -54 0 -47 -2 -50 -30 -55 -16 -4 -30 -9
-30 -13 0 -4 14 -12 30 -18 30 -11 30 -11 30 -138 0 -126 0 -126 -30 -137 -49
-17 -20 -38 51 -38 51 0 59 3 59 18 0 11 -11 24 -24 30 -29 13 -36 46 -36 162
0 88 0 88 38 103 32 13 34 16 17 22 -40 13 -49 22 -52 53 -3 24 0 32 12 32 10
0 15 7 13 17 -3 18 -16 24 -35 16z"/>
<path d="M103 513 c-3 -8 0 -19 8 -24 10 -6 14 -32 16 -91 2 -103 3 -117 10
-100 3 7 24 12 54 12 61 0 63 13 4 30 -45 13 -45 13 -45 76 0 63 1 64 28 65
15 1 32 1 39 0 15 -2 26 16 15 23 -5 3 -35 9 -66 14 -47 8 -59 7 -63 -5z"/>
</g>
</svg>
