<svg version="1.0" xmlns="http://www.w3.org/2000/svg"
 width="45.000000pt" height="65.000000pt" viewBox="0 0 45.000000 65.000000"
 preserveAspectRatio="xMidYMid meet">
<metadata>
Created by potrace 1.15, written by Peter Selinger 2001-2017
</metadata>
<g transform="translate(0.000000,65.000000) scale(0.100000,-0.100000)"
fill="#000000" stroke="none">
<path d="M221 431 c-11 -7 -11 -10 2 -17 8 -5 17 -27 19 -49 3 -40 3 -40 -32
-40 -28 0 -35 4 -35 20 0 14 8 21 28 23 40 5 22 22 -23 22 -39 0 -39 0 -34
-87 7 -104 14 -116 55 -101 33 11 39 28 10 28 -21 0 -37 28 -23 42 5 5 21 6
36 2 25 -6 26 -8 26 -85 0 -72 -2 -79 -20 -79 -11 0 -20 -4 -20 -10 0 -5 9
-10 19 -10 11 0 23 -4 26 -10 8 -13 52 -13 60 -1 3 5 -1 15 -8 23 -8 7 -17 47
-20 90 -6 75 -6 76 18 82 29 7 34 36 7 36 -10 0 -23 5 -30 12 -15 15 -16 70 0
86 6 6 10 14 7 16 -10 11 -55 15 -68 7z"/>
</g>
</svg>
