<svg version="1.0" xmlns="http://www.w3.org/2000/svg"
 width="45.000000pt" height="69.000000pt" viewBox="0 0 45.000000 69.000000"
 preserveAspectRatio="xMidYMid meet">
<metadata>
Created by potrace 1.15, written by Peter Selinger 2001-2017
</metadata>
<g transform="translate(0.000000,69.000000) scale(0.100000,-0.100000)"
fill="#000000" stroke="none">
<path d="M320 501 c0 -32 16 -42 26 -16 3 8 -1 22 -10 30 -15 15 -16 14 -16
-14z"/>
<path d="M153 497 c-18 -6 -35 -17 -37 -23 -6 -16 -10 -213 -5 -218 2 -2 28
-7 58 -11 42 -6 52 -4 49 6 -2 7 -19 17 -36 21 -32 9 -32 9 -32 91 0 89 3 98
38 116 24 13 30 32 10 30 -7 -1 -27 -7 -45 -12z"/>
<path d="M228 443 c-43 -7 -24 -33 23 -33 28 0 39 -4 39 -15 0 -15 -25 -20
-77 -15 -26 2 -31 -15 -7 -24 9 -3 30 -6 49 -6 33 0 33 0 34 -120 1 -120 1
-120 -24 -120 -29 0 -33 -15 -7 -28 22 -12 122 -21 122 -12 0 4 -9 15 -20 25
-19 17 -20 29 -18 134 3 116 3 116 36 119 38 4 44 22 7 22 -14 0 -28 7 -31 15
-4 8 -15 15 -26 15 -11 0 -22 8 -25 20 -3 11 -9 20 -13 20 -5 0 -14 2 -22 3
-7 2 -25 2 -40 0z"/>
<path d="M190 324 c0 -10 31 -36 37 -31 10 10 -6 37 -22 37 -8 0 -15 -3 -15
-6z"/>
</g>
</svg>
