<svg version="1.0" xmlns="http://www.w3.org/2000/svg"
 width="69.000000pt" height="131.000000pt" viewBox="0 0 69.000000 131.000000"
 preserveAspectRatio="xMidYMid meet">
<metadata>
Created by potrace 1.15, written by Peter Selinger 2001-2017
</metadata>
<g transform="translate(0.000000,131.000000) scale(0.100000,-0.100000)"
fill="#000000" stroke="none">
<path d="M218 1233 c-50 -3 -68 -8 -68 -18 0 -16 33 -28 72 -27 25 1 27 -2 33
-61 4 -34 5 -89 3 -122 -3 -60 -3 -60 -103 -68 -55 -5 -102 -11 -104 -13 -2
-2 2 -10 9 -19 9 -11 34 -15 106 -15 94 0 94 0 89 -117 -3 -65 -7 -184 -9
-265 -2 -81 -6 -151 -9 -155 -2 -4 -8 -39 -12 -78 -11 -114 -12 -115 -56 -115
-52 0 -51 -23 1 -44 22 -9 40 -20 40 -26 0 -6 6 -7 18 -1 9 5 29 14 45 20 29
11 37 41 11 41 -13 0 -15 10 -12 59 1 33 0 63 -4 66 -4 4 -1 14 7 21 11 11 14
45 14 137 0 241 10 450 23 459 7 5 49 5 93 1 44 -4 99 -7 123 -7 42 0 42 0 42
-94 0 -95 0 -95 -44 -90 -24 3 -53 14 -65 25 -29 27 -70 48 -77 40 -16 -15 34
-74 86 -100 58 -30 115 -32 132 -5 4 7 8 111 8 231 0 215 0 219 -22 238 -28
23 -60 24 -104 3 -33 -16 -74 -57 -74 -75 0 -15 31 -10 58 10 35 24 65 33 86
25 13 -5 16 -21 16 -78 0 -71 0 -71 -127 -68 -71 2 -130 6 -133 9 -3 2 -6 56
-8 119 -2 114 -2 114 23 114 18 0 25 5 25 19 0 17 -30 33 -55 29 -5 -1 -40 -3
-77 -5z"/>
</g>
</svg>
