<svg version="1.0" xmlns="http://www.w3.org/2000/svg"
 width="67.000000pt" height="86.000000pt" viewBox="0 0 67.000000 86.000000"
 preserveAspectRatio="xMidYMid meet">
<metadata>
Created by potrace 1.15, written by Peter Selinger 2001-2017
</metadata>
<g transform="translate(0.000000,86.000000) scale(0.100000,-0.100000)"
fill="#000000" stroke="none">
<path d="M200 541 c0 -85 -11 -102 -51 -81 -15 9 -19 22 -19 65 0 29 -5 57
-10 60 -41 25 -58 -107 -19 -146 20 -20 29 -21 130 -17 60 2 112 8 116 12 5 4
8 40 8 79 0 60 -3 72 -17 75 -15 3 -18 -4 -18 -37 0 -63 -14 -88 -47 -87 -28
1 -28 1 -31 79 -3 69 -5 77 -22 77 -18 0 -20 -7 -20 -79z"/>
<path d="M440 600 c-11 -7 -16 -38 -20 -122 -5 -113 -5 -113 -153 -123 -198
-13 -197 -12 -197 -171 0 -95 3 -116 16 -121 30 -11 43 17 32 72 -12 55 -4
133 16 160 11 15 35 19 154 24 141 6 141 6 156 -62 16 -69 16 -69 -14 -129
-31 -63 -37 -92 -20 -103 17 -10 40 15 40 44 1 14 7 37 14 51 14 25 14 25 33
-9 10 -19 28 -45 40 -60 20 -24 23 -25 39 -9 16 16 15 19 -13 52 -17 19 -34
49 -38 67 -6 29 -4 36 24 58 35 29 41 61 13 61 -11 0 -27 -9 -37 -20 -25 -27
-31 -25 -44 11 -19 55 -16 59 44 59 41 0 55 4 55 14 0 18 -31 28 -72 24 -28
-3 -34 1 -42 25 -12 34 -2 46 50 54 21 3 42 11 46 17 12 18 9 104 -4 112 -17
11 -38 -26 -38 -69 0 -32 -3 -38 -16 -33 -9 3 -23 6 -31 6 -13 0 -15 10 -9 59
7 61 1 76 -24 61z"/>
<path d="M257 283 c-4 -3 -7 -37 -7 -75 0 -37 -3 -68 -7 -68 -21 1 -34 21 -41
61 -5 30 -13 45 -25 47 -14 3 -17 -5 -17 -48 0 -44 4 -56 29 -81 46 -46 125
-38 176 17 20 21 25 38 25 76 0 42 -3 49 -17 46 -13 -2 -19 -15 -21 -45 -3
-40 -28 -73 -54 -73 -5 0 -8 34 -8 75 0 56 -3 75 -13 75 -8 0 -17 -3 -20 -7z"/>
</g>
</svg>
