<svg version="1.0" xmlns="http://www.w3.org/2000/svg"
 width="67.000000pt" height="115.000000pt" viewBox="0 0 67.000000 115.000000"
 preserveAspectRatio="xMidYMid meet">
<metadata>
Created by potrace 1.15, written by Peter Selinger 2001-2017
</metadata>
<g transform="translate(0.000000,115.000000) scale(0.100000,-0.100000)"
fill="#000000" stroke="none">
<path d="M269 1073 c-2 -15 3 -159 7 -188 2 -16 6 -107 10 -201 7 -195 13
-184 -93 -184 -85 0 -83 -2 -83 120 0 103 -12 170 -31 170 -5 0 -9 -62 -10
-137 -1 -76 -2 -205 -4 -288 -2 -133 0 -153 16 -174 21 -26 25 -21 38 43 7 31
7 31 76 34 39 1 77 -2 85 -8 11 -7 16 -33 18 -97 4 -96 14 -120 38 -88 10 13
14 43 13 96 -1 42 1 81 4 86 3 5 33 6 66 3 33 -3 68 -3 78 1 37 13 60 -6 65
-56 6 -53 11 -60 33 -51 15 5 16 32 11 253 -3 137 -8 258 -12 271 -7 24 -24
28 -42 10 -7 -7 -48 -12 -109 -12 -96 -1 -97 -1 -106 25 -10 26 0 39 96 126 9
9 17 30 17 47 0 36 -31 65 -88 82 -34 10 -38 14 -44 59 -6 43 -19 64 -40 65
-5 0 -8 -3 -9 -7z m109 -189 c3 -23 -21 -49 -38 -39 -5 3 -10 20 -10 36 0 26
3 30 23 27 13 -2 23 -11 25 -24z m173 -286 c1 -18 3 -45 4 -60 5 -34 -18 -40
-130 -34 -80 4 -80 4 -87 47 -11 65 11 78 125 79 87 0 87 0 88 -32z m-277
-144 c12 -5 16 -21 16 -75 0 -68 0 -68 -36 -78 -24 -7 -43 -7 -55 -1 -10 6
-34 10 -53 10 -36 0 -36 0 -36 64 0 65 0 65 48 71 26 4 52 8 57 10 17 6 43 5
59 -1z m290 -50 c7 -51 -5 -90 -31 -98 -36 -11 -174 0 -184 15 -5 8 -8 39 -7
69 3 52 5 55 32 60 15 3 63 4 106 2 77 -3 77 -3 84 -48z"/>
</g>
</svg>
