<svg version="1.0" xmlns="http://www.w3.org/2000/svg"
 width="62.000000pt" height="131.000000pt" viewBox="0 0 62.000000 131.000000"
 preserveAspectRatio="xMidYMid meet">
<metadata>
Created by potrace 1.15, written by Peter Selinger 2001-2017
</metadata>
<g transform="translate(0.000000,131.000000) scale(0.100000,-0.100000)"
fill="#000000" stroke="none">
<path d="M198 1115 c-2 -3 -33 -7 -68 -10 -70 -6 -80 -10 -80 -31 0 -10 14
-14 55 -14 56 0 63 -6 56 -52 -1 -11 52 -64 95 -92 58 -38 69 -63 57 -126 -6
-28 -6 -53 -2 -56 14 -8 11 -110 -3 -122 -7 -5 -44 -11 -83 -13 -70 -4 -70 -4
-66 116 3 112 2 121 -18 139 -13 12 -25 16 -31 10 -5 -5 -11 -121 -14 -259 -5
-267 -14 -411 -25 -435 -4 -8 -9 -35 -10 -60 -2 -25 -7 -50 -12 -56 -11 -13 9
-34 32 -34 11 0 19 12 24 38 5 20 9 42 10 47 1 6 8 56 15 113 12 102 12 102
54 102 22 0 58 3 78 6 38 7 38 7 37 -132 0 -144 4 -174 25 -174 22 0 34 44 34
130 1 201 -6 181 66 179 36 -1 69 -5 74 -8 5 -3 15 -53 21 -111 24 -209 23
-205 54 -208 24 -3 27 0 27 28 0 17 -4 50 -9 73 -26 118 -46 307 -42 392 4 93
24 263 37 303 19 63 18 89 -4 101 -21 11 -42 -3 -42 -27 0 -8 -5 -32 -12 -53
-11 -39 -11 -39 -78 -39 -67 0 -67 0 -73 55 -7 65 -28 96 -84 124 -40 19 -102
95 -89 109 12 11 267 24 284 13 6 -4 13 -17 14 -30 3 -19 -9 -30 -64 -64 -54
-32 -66 -43 -57 -54 6 -7 21 -13 33 -13 35 1 108 44 139 82 27 34 29 40 18 66
-7 16 -24 34 -37 41 -24 11 -325 16 -336 6z m308 -452 c2 -63 2 -63 -62 -63
-35 0 -65 3 -66 8 -5 26 -6 71 -1 95 5 27 6 28 66 25 62 -3 62 -3 63 -65z
m-220 -113 c16 0 26 -72 18 -131 -7 -49 -7 -49 -55 -49 -32 0 -49 -4 -49 -12
0 -9 -3 -9 -12 0 -7 7 -20 12 -30 12 -15 0 -18 9 -18 64 0 92 10 114 57 119
21 2 47 3 58 1 11 -2 25 -4 31 -4z m214 -86 c0 -97 0 -97 -52 -90 -29 3 -61 6
-70 6 -20 0 -24 46 -12 134 7 46 7 46 70 46 64 0 64 0 64 -96z"/>
</g>
</svg>
