<svg version="1.0" xmlns="http://www.w3.org/2000/svg"
 width="61.000000pt" height="91.000000pt" viewBox="0 0 61.000000 91.000000"
 preserveAspectRatio="xMidYMid meet">
<metadata>
Created by potrace 1.15, written by Peter Selinger 2001-2017
</metadata>
<g transform="translate(0.000000,91.000000) scale(0.100000,-0.100000)"
fill="#000000" stroke="none">
<path d="M408 778 c-3 -53 -3 -53 -43 -55 -22 0 -66 -3 -98 -5 -65 -5 -74 1
-79 52 -4 41 -31 49 -37 10 -5 -39 29 -203 47 -225 10 -11 34 -29 55 -38 38
-18 38 -18 35 -80 -3 -62 -3 -62 -83 -62 -80 0 -80 0 -89 43 -6 23 -13 42 -17
42 -11 0 -20 -57 -18 -110 1 -25 1 -94 0 -155 -1 -60 1 -118 4 -127 13 -32 25
-19 25 26 0 25 4 56 10 70 9 25 13 26 90 26 80 0 80 0 80 -31 0 -41 20 -119
31 -119 5 0 9 34 9 75 0 68 2 75 19 75 11 0 23 5 26 10 3 6 35 10 70 10 71 0
64 7 81 -77 6 -31 21 -29 27 5 10 51 -5 361 -19 379 -11 16 -13 16 -31 -5 -16
-21 -25 -23 -93 -20 -57 2 -75 6 -75 17 0 8 10 15 23 16 26 2 64 44 69 77 7
41 11 193 6 211 -9 34 -22 16 -25 -35z m-15 -135 c-2 -59 -37 -93 -93 -93 -54
0 -90 34 -90 85 0 21 5 35 13 36 25 1 69 8 72 11 2 2 25 3 52 3 48 0 48 0 46
-42z m117 -218 c0 -27 -19 -33 -120 -38 -45 -2 -55 1 -58 16 -7 36 16 47 99
47 77 0 79 -1 79 -25z m1 -102 c9 -62 2 -72 -49 -73 -26 0 -65 -2 -87 -3 -37
-2 -40 0 -43 25 -7 59 16 72 129 76 44 2 47 0 50 -25z m-233 8 c7 -1 12 -16
12 -41 0 -44 -1 -45 -102 -55 -51 -5 -57 -4 -63 15 -10 30 4 78 23 82 15 4 91
3 130 -1z"/>
</g>
</svg>
