<svg version="1.0" xmlns="http://www.w3.org/2000/svg"
 width="79.000000pt" height="98.000000pt" viewBox="0 0 79.000000 98.000000"
 preserveAspectRatio="xMidYMid meet">
<metadata>
Created by potrace 1.15, written by Peter Selinger 2001-2017
</metadata>
<g transform="translate(0.000000,98.000000) scale(0.100000,-0.100000)"
fill="#000000" stroke="none">
<path d="M394 726 c-6 -7 -21 -41 -33 -77 -12 -35 -31 -81 -42 -102 -10 -22
-19 -44 -19 -50 0 -7 -9 -23 -20 -37 -11 -14 -20 -33 -20 -42 0 -9 -16 -45
-36 -80 -19 -35 -49 -91 -65 -125 -17 -34 -37 -67 -45 -74 -8 -6 -14 -18 -14
-25 0 -8 -4 -14 -10 -14 -5 0 -10 -11 -10 -25 0 -14 -4 -25 -10 -25 -5 0 -10
-11 -10 -25 0 -53 46 -17 98 75 10 19 33 59 51 88 17 29 31 57 31 62 0 6 5 10
10 10 6 0 10 6 10 14 0 12 19 52 67 141 27 49 73 157 73 170 0 32 17 11 60
-75 25 -49 48 -90 53 -90 4 0 7 -9 7 -19 0 -11 4 -21 8 -23 5 -1 28 -41 51
-88 24 -47 52 -97 62 -112 11 -14 19 -31 19 -37 0 -6 9 -27 21 -48 40 -72 71
-92 84 -54 5 17 -2 50 -14 61 -3 3 -17 25 -30 50 -14 25 -27 47 -30 50 -3 3
-12 15 -19 27 -6 13 -18 33 -25 45 -6 13 -14 25 -18 28 -12 11 -129 252 -129
265 0 8 -4 15 -10 15 -5 0 -10 7 -10 15 0 8 -9 34 -19 58 -11 23 -22 52 -26
65 -7 24 -24 28 -41 8z"/>
<path d="M310 148 c-30 -5 -63 -9 -72 -9 -20 0 -22 -7 -9 -27 6 -10 45 -13
160 -13 84 1 157 4 162 7 24 14 6 33 -41 43 -59 13 -122 12 -200 -1z"/>
</g>
</svg>
