<svg version="1.0" xmlns="http://www.w3.org/2000/svg"
 width="55.000000pt" height="71.000000pt" viewBox="0 0 55.000000 71.000000"
 preserveAspectRatio="xMidYMid meet">
<metadata>
Created by potrace 1.15, written by Peter Selinger 2001-2017
</metadata>
<g transform="translate(0.000000,71.000000) scale(0.100000,-0.100000)"
fill="#000000" stroke="none">
<path d="M290 547 c-14 -13 -41 -32 -60 -43 -19 -10 -37 -21 -40 -25 -3 -3
-25 -13 -50 -22 -67 -26 -70 -29 -62 -62 5 -16 5 -45 0 -64 -25 -118 -30 -150
-26 -162 10 -30 60 114 63 184 3 50 13 64 68 89 15 7 27 16 27 20 0 5 9 8 20
8 11 0 20 3 20 8 0 10 50 32 73 32 10 0 32 -13 50 -30 18 -16 37 -30 44 -30 6
0 26 -8 43 -17 32 -18 32 -18 26 -108 -3 -49 -9 -109 -12 -133 -4 -26 -3 -42
4 -42 15 0 22 32 48 230 6 45 6 45 -43 70 -26 14 -54 30 -61 37 -7 7 -17 13
-22 13 -4 0 -24 16 -43 35 -19 19 -37 35 -39 35 -2 0 -14 -10 -28 -23z"/>
<path d="M247 413 c-2 -5 -5 -26 -5 -48 -1 -22 -6 -55 -12 -74 -5 -19 -8 -37
-5 -39 2 -3 0 -12 -5 -21 -5 -10 -5 -23 0 -31 6 -10 11 -8 21 9 24 37 107 24
92 -15 -10 -27 -89 -100 -121 -112 -69 -26 -69 -26 -34 -30 21 -2 42 4 61 17
16 12 32 21 36 21 12 0 87 83 96 107 11 31 2 79 -27 129 -23 42 -89 100 -97
87z m49 -77 c19 -19 18 -26 -5 -26 -19 0 -35 23 -24 34 9 9 13 8 29 -8z m13
-52 c33 -7 44 -34 14 -34 -34 0 -63 12 -63 26 0 16 5 17 49 8z"/>
</g>
</svg>
