<svg version="1.0" xmlns="http://www.w3.org/2000/svg"
 width="69.000000pt" height="83.000000pt" viewBox="0 0 69.000000 83.000000"
 preserveAspectRatio="xMidYMid meet">
<metadata>
Created by potrace 1.15, written by Peter Selinger 2001-2017
</metadata>
<g transform="translate(0.000000,83.000000) scale(0.100000,-0.100000)"
fill="#000000" stroke="none">
<path d="M195 570 c-136 -9 -125 -7 -125 -28 0 -15 12 -17 128 -17 127 0 127
0 130 -29 2 -15 1 -39 -2 -52 -6 -24 -9 -24 -121 -24 -122 0 -177 -12 -156
-33 8 -7 43 -12 94 -12 71 0 82 -2 85 -18 12 -58 -28 -87 -119 -87 -36 0 -49
-4 -49 -14 0 -8 9 -18 20 -21 25 -8 162 4 181 16 8 4 16 33 19 66 5 58 5 58
76 61 72 3 72 3 78 -42 10 -63 -4 -86 -54 -86 -45 0 -70 -26 -70 -75 0 -16 -4
-36 -9 -44 -10 -16 -87 -29 -178 -30 -62 -1 -88 -15 -62 -33 19 -13 268 -1
286 13 8 7 13 32 13 65 0 53 0 53 35 60 20 3 38 4 42 1 3 -3 9 -38 13 -77 4
-39 9 -73 11 -74 20 -17 76 -36 108 -36 52 0 71 8 71 30 0 14 -11 18 -60 22
-33 2 -65 9 -72 16 -6 6 -13 36 -16 67 -4 55 -4 55 56 55 64 0 82 11 61 36 -9
12 -27 15 -68 12 -56 -3 -56 -3 -59 55 -3 57 -3 57 66 57 54 0 71 4 76 15 7
20 -30 35 -84 35 -37 0 -40 2 -50 41 -15 56 -2 69 66 69 56 0 73 12 54 35 -15
18 -93 20 -138 4 -34 -12 -42 -31 -42 -106 0 -50 -2 -53 -25 -53 -24 0 -25 2
-25 73 0 80 -9 98 -49 95 -15 -1 -75 -5 -136 -8z"/>
</g>
</svg>
