<svg version="1.0" xmlns="http://www.w3.org/2000/svg"
 width="81.000000pt" height="129.000000pt" viewBox="0 0 81.000000 129.000000"
 preserveAspectRatio="xMidYMid meet">
<metadata>
Created by potrace 1.15, written by Peter Selinger 2001-2017
</metadata>
<g transform="translate(0.000000,129.000000) scale(0.100000,-0.100000)"
fill="#000000" stroke="none">
<path d="M130 1002 c0 -26 36 -37 119 -37 86 0 86 0 91 -70 7 -95 1 -145 -16
-145 -8 0 -14 5 -14 10 0 6 -33 10 -80 10 -44 0 -80 -3 -80 -6 0 -22 35 -34
103 -34 74 0 74 0 79 -32 2 -18 4 -53 4 -78 -1 -45 -1 -45 -93 -50 -50 -3 -95
-8 -99 -12 -18 -19 60 -34 149 -30 51 2 94 6 96 8 2 2 -2 10 -8 18 -8 9 -10
31 -5 64 5 41 11 52 33 62 51 24 66 29 96 32 29 3 30 2 30 -39 -1 -24 -2 -155
-3 -293 -2 -250 -2 -250 -46 -250 -51 0 -66 -14 -42 -38 18 -18 90 -25 176
-16 55 6 55 6 15 20 -22 7 -47 14 -55 14 -14 0 -15 17 -12 123 3 77 0 132 -6
144 -6 11 -7 24 -2 29 14 15 17 133 3 139 -7 2 -13 14 -13 26 0 14 5 19 14 16
19 -8 26 14 26 82 0 52 2 59 25 69 14 7 46 12 70 12 25 0 45 4 45 10 0 10 -55
27 -105 32 -21 2 -29 8 -26 18 2 8 6 29 8 45 11 78 11 78 53 71 39 -6 70 0 70
13 0 12 -48 31 -75 31 -14 0 -45 5 -69 12 -31 8 -51 9 -67 2 -24 -11 -21 -16
24 -47 16 -11 17 -20 10 -77 -7 -57 -11 -65 -28 -62 -11 2 -33 4 -48 4 -19 1
-42 15 -68 40 -37 37 -39 42 -37 93 1 30 -1 58 -6 62 -12 12 -236 17 -236 5z
m317 -226 c39 -14 52 -26 31 -26 -9 0 -31 -6 -49 -14 -43 -18 -55 -18 -51 -1
1 7 -2 16 -8 20 -18 11 9 48 28 39 9 -3 32 -12 49 -18z"/>
</g>
</svg>
