<svg version="1.0" xmlns="http://www.w3.org/2000/svg"
 width="103.000000pt" height="121.000000pt" viewBox="0 0 103.000000 121.000000"
 preserveAspectRatio="xMidYMid meet">
<metadata>
Created by potrace 1.15, written by Peter Selinger 2001-2017
</metadata>
<g transform="translate(0.000000,121.000000) scale(0.100000,-0.100000)"
fill="#000000" stroke="none">
<path d="M290 1096 c0 -19 5 -38 10 -41 6 -3 10 -18 10 -33 0 -15 9 -51 20
-81 12 -29 18 -56 16 -59 -9 -9 -86 50 -117 90 -29 35 -59 50 -59 29 0 -44 91
-129 178 -166 23 -11 42 -22 42 -25 0 -4 -29 -37 -64 -75 -64 -67 -64 -67 -92
-42 -30 28 -133 81 -141 73 -6 -6 9 -21 57 -57 51 -39 80 -65 80 -74 0 -4 -30
-38 -67 -76 -62 -65 -65 -69 -40 -69 20 0 42 16 83 60 57 59 57 59 85 39 16
-11 29 -24 29 -27 0 -4 -27 -37 -61 -72 -65 -71 -86 -100 -69 -100 14 0 47 27
110 92 55 58 55 58 93 25 38 -32 38 -32 -52 -126 -84 -86 -103 -111 -83 -111
16 0 71 42 136 104 38 37 73 63 80 59 6 -4 29 -20 51 -37 22 -17 42 -32 44
-33 2 -2 -9 -20 -25 -41 -41 -50 -46 -60 -35 -66 5 -3 27 12 50 34 23 22 48
40 56 40 8 0 15 6 15 14 0 7 7 20 16 27 14 12 19 9 39 -15 13 -16 29 -41 37
-55 7 -14 20 -33 29 -41 8 -8 20 -24 26 -34 17 -30 146 -156 160 -156 22 0 15
9 -48 73 -90 91 -142 170 -173 265 -18 53 -18 53 11 95 15 23 41 55 57 72 25
26 26 30 10 34 -12 2 -35 -15 -66 -48 -48 -51 -48 -51 -53 -24 -4 16 -10 47
-16 70 -5 23 -9 67 -9 98 0 57 0 57 106 50 78 -6 105 -5 100 4 -4 6 -20 11
-35 11 -30 0 -117 24 -140 39 -15 10 -6 22 125 163 24 26 44 50 44 53 0 20
-41 -6 -110 -72 -46 -43 -89 -79 -96 -81 -11 -3 -14 16 -14 93 0 77 -3 97 -15
102 -9 3 -18 3 -21 0 -3 -3 -6 -60 -7 -126 -1 -121 -1 -121 -41 -114 -23 3
-51 10 -64 14 -13 5 -34 9 -46 9 -17 0 -25 8 -32 33 -14 45 -5 70 44 121 23
24 42 47 42 50 0 14 -40 4 -75 -20 -21 -14 -43 -23 -49 -21 -7 3 -18 24 -26
48 -24 75 -50 93 -50 35z m230 -315 c0 -6 -27 -38 -59 -73 -33 -35 -69 -74
-79 -87 -19 -24 -20 -25 -46 -7 -15 9 -26 24 -24 32 2 8 30 43 63 78 54 57 64
64 103 65 23 0 42 -3 42 -8z m78 -76 c3 -37 -2 -45 -70 -119 -73 -79 -73 -79
-106 -46 -18 18 -32 34 -30 36 2 2 39 42 83 89 92 98 118 106 123 40z m28
-162 c3 -27 10 -55 15 -64 5 -10 -1 -26 -20 -48 -27 -32 -27 -32 -69 5 -23 20
-42 43 -42 52 0 18 79 100 97 101 7 1 15 -19 19 -46z"/>
</g>
</svg>
