<svg version="1.0" xmlns="http://www.w3.org/2000/svg"
 width="83.000000pt" height="99.000000pt" viewBox="0 0 83.000000 99.000000"
 preserveAspectRatio="xMidYMid meet">
<metadata>
Created by potrace 1.15, written by Peter Selinger 2001-2017
</metadata>
<g transform="translate(0.000000,99.000000) scale(0.100000,-0.100000)"
fill="#000000" stroke="none">
<path d="M330 890 c0 -45 -38 -94 -103 -136 -49 -31 -56 -39 -42 -47 16 -9 75
-4 108 9 15 5 21 -13 34 -98 5 -34 3 -39 -23 -49 -16 -6 -53 -15 -83 -21 -47
-10 -55 -9 -66 5 -16 22 -25 21 -25 -3 0 -11 15 -30 37 -44 32 -22 44 -25 95
-19 32 3 58 3 58 -1 0 -21 -25 -47 -58 -61 -20 -9 -45 -21 -54 -26 -10 -5 -24
-9 -31 -9 -16 0 -57 -37 -57 -51 0 -6 7 -6 19 1 11 5 35 10 53 10 18 0 46 7
62 15 43 23 54 14 47 -36 -6 -41 -9 -45 -46 -57 -22 -7 -69 -14 -105 -15 -59
-2 -65 -4 -62 -22 2 -11 9 -26 14 -32 13 -16 85 -17 90 -2 2 6 19 11 38 12 19
1 35 7 35 14 0 23 14 25 19 2 7 -39 5 -68 -5 -74 -5 -4 -9 -24 -9 -47 0 -32 3
-39 16 -34 9 3 18 6 20 6 9 0 3 29 -7 32 -21 7 3 37 29 36 47 -1 156 10 176
18 14 5 24 1 36 -14 17 -20 17 -20 43 2 15 13 27 29 27 36 0 9 3 10 14 1 10
-8 25 -7 60 6 25 10 46 20 46 23 0 8 -85 30 -115 30 -16 0 -25 6 -25 15 0 8
-4 15 -8 15 -5 0 -8 18 -8 40 1 26 -3 40 -12 40 -10 0 -10 4 0 20 10 15 10 22
0 32 -6 6 -12 26 -12 43 0 34 28 55 74 55 16 0 26 7 29 21 6 21 15 22 57 5 19
-8 45 8 36 23 -10 15 -129 14 -144 -1 -16 -16 -16 11 -1 62 8 27 21 41 48 54
20 10 44 22 53 27 10 5 23 9 30 9 16 0 78 66 78 83 0 7 -9 23 -20 35 -20 21
-22 21 -45 6 -14 -9 -25 -20 -25 -26 0 -17 -49 -58 -70 -58 -17 0 -20 5 -17
28 2 15 8 35 12 46 5 11 3 26 -3 37 -7 10 -12 26 -12 34 0 29 -30 15 -46 -22
-43 -100 -54 -137 -41 -145 6 -4 7 -8 1 -8 -5 0 -15 -34 -21 -76 -6 -41 -13
-77 -15 -79 -2 -2 -29 -1 -60 2 -57 6 -57 6 -64 47 -3 22 -15 63 -26 90 -16
41 -17 51 -5 65 40 49 47 113 15 135 -32 22 -38 20 -38 -14z m185 -460 c-3
-11 -3 -20 2 -20 4 0 8 -40 9 -89 1 -97 1 -98 -71 -106 -28 -3 -86 -15 -109
-21 -29 -9 -38 17 -14 43 17 18 19 25 9 37 -8 10 -9 16 -1 21 5 3 10 26 10 51
0 24 5 44 10 44 6 0 10 6 10 13 0 20 60 46 108 46 39 1 43 -1 37 -19z"/>
<path d="M110 601 c0 -6 4 -13 10 -16 6 -3 7 1 4 9 -7 18 -14 21 -14 7z"/>
</g>
</svg>
