<svg version="1.0" xmlns="http://www.w3.org/2000/svg"
 width="73.000000pt" height="89.000000pt" viewBox="0 0 73.000000 89.000000"
 preserveAspectRatio="xMidYMid meet">
<metadata>
Created by potrace 1.15, written by Peter Selinger 2001-2017
</metadata>
<g transform="translate(0.000000,89.000000) scale(0.100000,-0.100000)"
fill="#000000" stroke="none">
<path d="M470 775 c-25 -8 -47 -14 -50 -15 -3 0 7 -11 22 -23 17 -14 27 -34
30 -57 3 -32 1 -35 -21 -32 -43 6 -72 31 -65 57 4 18 -1 28 -21 41 -22 14 -42
16 -133 11 -59 -3 -115 -9 -125 -12 -17 -7 -17 -8 0 -21 12 -9 49 -13 114 -14
105 0 109 -2 109 -61 0 -29 -1 -30 -47 -29 -59 2 -173 -11 -173 -19 0 -3 14
-12 31 -20 23 -10 53 -12 112 -7 80 7 80 7 73 -50 -3 -31 -9 -61 -12 -65 -3
-5 -25 -9 -49 -9 -24 0 -47 -4 -50 -10 -3 -5 -17 -10 -30 -10 -36 0 -39 -16
-5 -30 24 -10 42 -10 88 0 31 6 63 10 71 8 9 -2 18 10 24 35 8 33 16 41 64 63
31 13 57 24 58 22 2 -2 6 -48 9 -103 3 -55 9 -138 12 -185 6 -85 6 -85 -27
-97 -19 -7 -45 -10 -58 -6 -40 10 -20 -18 24 -33 49 -17 73 -17 131 -3 51 13
56 26 14 42 -16 6 -30 18 -30 27 0 8 -7 69 -15 135 -8 66 -15 148 -15 182 0
62 0 63 32 71 43 11 45 24 6 41 -43 19 -48 27 -48 82 0 47 0 47 45 58 47 12
57 24 28 36 -31 13 -76 13 -123 0z m-78 -153 c2 -4 18 -15 36 -23 34 -16 34
-16 -2 -38 -44 -28 -56 -21 -56 30 0 34 12 53 22 31z"/>
</g>
</svg>
