<svg version="1.0" xmlns="http://www.w3.org/2000/svg"
 width="57.000000pt" height="77.000000pt" viewBox="0 0 57.000000 77.000000"
 preserveAspectRatio="xMidYMid meet">
<metadata>
Created by potrace 1.15, written by Peter Selinger 2001-2017
</metadata>
<g transform="translate(0.000000,77.000000) scale(0.100000,-0.100000)"
fill="#000000" stroke="none">
<path d="M290 505 c0 -60 -2 -65 -21 -65 -19 0 -21 4 -15 38 7 49 -8 71 -54
77 -43 6 -110 -3 -110 -15 0 -8 27 -15 90 -24 21 -2 26 -9 28 -39 3 -38 3 -38
-88 -50 -8 -1 -15 -9 -15 -17 0 -10 13 -16 40 -18 44 -4 55 -14 55 -54 0 -25
-3 -27 -47 -30 -35 -2 -48 -7 -48 -18 0 -12 16 -16 73 -18 72 -3 72 -3 72 58
0 52 2 60 19 60 27 0 37 -18 45 -77 4 -29 15 -80 26 -114 25 -79 25 -89 -3
-89 -23 0 -47 -17 -47 -32 0 -4 37 -8 83 -8 70 0 87 3 105 20 12 12 22 25 22
30 0 13 -36 13 -60 0 -23 -12 -40 7 -51 58 -4 20 -13 55 -20 77 -6 22 -14 61
-16 88 -5 47 -5 47 46 47 44 0 51 3 51 20 0 16 -7 20 -34 20 -83 0 -120 49
-46 60 49 7 47 34 -2 38 -26 2 -39 9 -43 23 -4 10 -13 19 -21 19 -11 0 -14
-15 -14 -65z"/>
</g>
</svg>
