<svg version="1.0" xmlns="http://www.w3.org/2000/svg"
 width="63.000000pt" height="87.000000pt" viewBox="0 0 63.000000 87.000000"
 preserveAspectRatio="xMidYMid meet">
<metadata>
Created by potrace 1.15, written by Peter Selinger 2001-2017
</metadata>
<g transform="translate(0.000000,87.000000) scale(0.100000,-0.100000)"
fill="#000000" stroke="none">
<path d="M397 724 c-4 -4 -7 -40 -7 -80 0 -66 -2 -72 -22 -77 -13 -3 -43 -2
-68 1 -42 7 -45 9 -50 42 -6 42 -36 60 -101 60 -51 0 -92 -21 -68 -36 7 -4 34
-9 58 -11 61 -3 71 -8 71 -37 0 -24 -3 -25 -72 -28 -67 -3 -73 -5 -76 -25 -3
-22 0 -23 73 -23 76 0 76 0 73 -27 -2 -22 -10 -29 -40 -36 -64 -15 -68 -26
-75 -207 -6 -154 -5 -162 12 -158 27 5 33 36 34 174 1 131 8 149 53 142 23 -3
23 -4 26 -171 2 -152 4 -168 19 -165 26 5 35 73 30 221 -4 127 -4 127 22 134
14 3 30 8 34 10 14 8 -15 33 -39 33 -19 0 -24 5 -24 24 0 20 6 24 46 30 89 12
91 11 99 -41 5 -37 4 -48 -9 -55 -31 -17 -47 -69 -57 -181 -9 -110 -5 -192 11
-202 17 -10 23 20 26 124 3 109 22 202 41 208 6 2 16 -20 23 -49 33 -144 75
-248 100 -248 15 0 12 57 -4 83 -7 12 -19 49 -26 82 -7 33 -19 84 -26 114 -7
30 -11 58 -8 63 3 5 24 16 45 25 64 25 38 48 -32 29 -19 -6 -28 -3 -32 8 -12
31 3 46 48 46 45 0 71 19 61 45 -4 11 -21 15 -65 15 -33 0 -62 4 -65 9 -10 16
28 39 69 43 40 3 40 3 43 51 4 54 -6 60 -30 17 -22 -40 -62 -41 -80 -3 -14 28
-30 38 -41 27z"/>
</g>
</svg>
