<svg version="1.0" xmlns="http://www.w3.org/2000/svg"
 width="70.000000pt" height="96.000000pt" viewBox="0 0 70.000000 96.000000"
 preserveAspectRatio="xMidYMid meet">
<metadata>
Created by potrace 1.15, written by Peter Selinger 2001-2017
</metadata>
<g transform="translate(0.000000,96.000000) scale(0.100000,-0.100000)"
fill="#000000" stroke="none">
<path d="M352 670 c4 -90 4 -90 -31 -90 -71 0 -80 7 -83 63 -2 38 -7 53 -19
55 -16 3 -39 -53 -39 -97 0 -18 -6 -21 -43 -21 -24 0 -52 -7 -63 -15 -19 -15
-19 -15 1 -31 15 -11 32 -13 68 -9 47 7 47 7 47 -37 0 -24 7 -53 15 -64 8 -10
15 -26 15 -34 0 -8 -32 -47 -72 -87 -40 -40 -69 -75 -66 -79 13 -13 51 10 112
67 63 58 80 68 90 50 10 -16 -23 -66 -84 -126 -33 -33 -60 -63 -60 -67 0 -4 9
-8 20 -8 12 0 53 33 100 80 45 45 85 78 90 75 6 -4 10 -19 10 -34 0 -22 -20
-48 -91 -119 -63 -64 -89 -96 -85 -107 14 -38 185 122 207 194 16 54 6 73 -83
152 -64 57 -68 63 -68 104 0 38 3 44 26 49 39 10 114 -4 114 -21 0 -19 39
-104 57 -125 12 -14 13 -26 3 -74 -10 -47 -9 -71 5 -145 19 -98 36 -132 56
-112 10 10 9 27 -4 82 -19 76 -22 167 -7 176 5 3 19 -6 32 -20 12 -14 30 -25
40 -25 30 0 21 37 -18 73 -36 33 -36 33 -15 76 11 24 18 48 15 52 -10 17 -33
8 -46 -18 -7 -14 -18 -28 -23 -30 -12 -4 -57 95 -50 107 2 4 35 10 72 14 64 7
93 18 93 37 0 5 -43 9 -96 9 -85 0 -95 2 -92 17 2 12 16 20 42 24 49 8 78 41
74 83 -4 43 -41 44 -48 1 -4 -26 -10 -30 -43 -33 -38 -3 -39 -3 -32 27 5 23 2
32 -14 40 -11 6 -23 11 -27 11 -3 0 -5 -40 -2 -90z"/>
</g>
</svg>
