<svg version="1.0" xmlns="http://www.w3.org/2000/svg"
 width="53.000000pt" height="77.000000pt" viewBox="0 0 53.000000 77.000000"
 preserveAspectRatio="xMidYMid meet">
<metadata>
Created by potrace 1.15, written by Peter Selinger 2001-2017
</metadata>
<g transform="translate(0.000000,77.000000) scale(0.100000,-0.100000)"
fill="#000000" stroke="none">
<path d="M327 541 c-3 -15 -3 -38 0 -50 5 -19 1 -21 -37 -21 -42 0 -42 0 -36
34 6 31 4 34 -21 39 -34 7 -54 -8 -24 -18 13 -4 21 -15 21 -28 0 -31 -23 -72
-40 -73 -26 -1 -60 -15 -60 -25 0 -5 18 -9 40 -9 40 0 40 0 40 -50 0 -44 -2
-50 -21 -50 -31 0 -17 -24 19 -31 39 -8 42 -5 42 45 0 36 5 44 35 64 32 20 35
20 36 5 0 -10 1 -72 2 -138 2 -118 2 -119 -22 -125 -38 -9 -36 -28 3 -36 20
-3 39 -10 42 -15 7 -12 64 -12 64 0 0 6 -9 16 -20 24 -30 21 -37 58 -36 207 1
135 1 135 29 132 33 -3 36 15 3 27 -45 18 -41 61 5 61 18 0 28 4 24 10 -3 6
-17 10 -29 10 -15 0 -26 7 -29 20 -7 29 -24 25 -30 -9z m-43 -104 c17 -13 17
-14 -8 -30 -26 -17 -26 -17 -26 13 0 33 7 37 34 17z"/>
</g>
</svg>
