<svg version="1.0" xmlns="http://www.w3.org/2000/svg"
 width="68.000000pt" height="93.000000pt" viewBox="0 0 68.000000 93.000000"
 preserveAspectRatio="xMidYMid meet">
<metadata>
Created by potrace 1.15, written by Peter Selinger 2001-2017
</metadata>
<g transform="translate(0.000000,93.000000) scale(0.100000,-0.100000)"
fill="#000000" stroke="none">
<path d="M382 738 c-7 -7 -12 -44 -12 -90 0 -66 -3 -79 -19 -88 -30 -16 -51
-12 -51 10 0 61 -46 93 -126 88 -42 -3 -49 -6 -52 -25 -3 -21 0 -23 47 -23 50
0 81 -17 81 -44 0 -15 -63 -26 -150 -26 -62 0 -83 -17 -58 -47 12 -15 67 -13
151 3 26 5 28 3 25 -17 -3 -27 -75 -67 -119 -68 -49 -2 -67 -61 -19 -61 34 0
158 69 185 103 14 18 30 38 36 45 5 6 20 12 33 12 29 0 41 -15 49 -58 6 -29 3
-34 -31 -56 -96 -60 -153 -137 -199 -266 -29 -81 -29 -92 -1 -88 24 3 40 29
59 98 17 61 69 139 125 189 52 46 62 49 70 24 8 -25 51 -118 81 -178 30 -59
67 -97 88 -89 22 9 18 39 -10 73 -27 31 -101 181 -107 216 -2 14 5 21 27 28
81 24 111 57 52 57 -19 0 -49 -5 -67 -11 -36 -13 -52 -1 -48 36 2 16 15 22 58
30 70 13 95 27 87 49 -4 11 -14 15 -24 12 -55 -16 -110 -17 -121 -3 -19 22 -5
43 43 66 61 28 69 46 19 39 -21 -4 -47 -9 -56 -13 -15 -6 -18 -1 -18 33 0 44
-10 58 -28 40z"/>
</g>
</svg>
