<svg version="1.0" xmlns="http://www.w3.org/2000/svg"
 width="85.000000pt" height="151.000000pt" viewBox="0 0 85.000000 151.000000"
 preserveAspectRatio="xMidYMid meet">
<metadata>
Created by potrace 1.15, written by Peter Selinger 2001-2017
</metadata>
<g transform="translate(0.000000,151.000000) scale(0.100000,-0.100000)"
fill="#000000" stroke="none">
<path d="M455 1380 c3 -5 13 -10 21 -10 8 0 14 -5 14 -11 0 -5 15 -16 33 -24
17 -7 40 -23 50 -35 51 -61 97 -184 97 -260 0 -78 19 -128 64 -171 49 -48 49
-47 5 -289 -5 -30 -14 -74 -19 -98 -6 -23 -10 -55 -10 -70 0 -15 -9 -61 -21
-102 -21 -78 -28 -144 -16 -156 12 -13 18 2 32 87 8 46 19 107 25 134 64 303
93 519 94 690 1 117 -1 134 -21 165 -37 60 -64 77 -189 119 -121 41 -171 50
-159 31z m232 -85 c39 -19 75 -62 91 -106 15 -45 17 -299 1 -299 -6 0 -24 13
-40 29 -23 23 -29 39 -30 73 0 49 -21 153 -32 164 -8 9 -10 54 -1 54 12 0 34
-30 34 -47 0 -30 24 -98 43 -124 18 -24 18 -24 13 11 -15 116 -56 200 -97 200
-17 0 -49 35 -49 52 0 13 35 9 67 -7z"/>
<path d="M427 1353 c-4 -3 -7 -34 -7 -69 0 -96 3 -94 -109 -94 -109 0 -121 6
-121 60 0 39 -23 80 -46 80 -9 0 -14 -11 -14 -36 0 -34 -34 -97 -83 -151 -20
-23 -20 -23 0 -23 11 0 27 10 36 23 28 42 57 70 65 63 4 -4 8 -49 9 -99 4
-197 12 -306 25 -328 38 -68 117 -91 213 -63 51 14 52 15 64 68 8 38 9 66 2
97 -15 62 -14 256 1 265 11 7 67 -52 68 -72 0 -6 7 -17 15 -24 9 -7 14 -19 11
-27 -3 -8 2 -13 14 -13 12 0 20 7 20 16 0 18 -38 91 -57 112 -36 38 -65 104
-65 149 -1 58 -20 88 -41 66z m-51 -193 c20 0 17 -41 -6 -70 -11 -14 -20 -31
-20 -38 0 -7 -9 -22 -19 -33 -19 -21 -19 -21 -35 9 -21 40 -46 115 -41 121 8
7 79 19 93 15 8 -2 20 -4 28 -4z m-128 -118 c42 -85 50 -112 35 -112 -5 0 -19
-18 -33 -40 -28 -46 -35 -49 -44 -17 -12 36 -20 257 -10 257 5 -1 28 -40 52
-88z m171 -55 c12 -69 15 -190 5 -200 -10 -10 -64 70 -71 104 -3 16 -10 32
-14 35 -14 8 -10 29 9 50 9 10 23 31 31 47 8 15 18 27 22 27 4 0 12 -28 18
-63z m-78 -153 c15 -27 36 -53 46 -59 10 -5 20 -11 22 -12 2 -2 -2 -9 -9 -18
-17 -21 -118 -20 -148 1 -26 18 -28 30 -7 50 8 9 18 27 21 42 8 34 24 54 38
49 5 -2 22 -26 37 -53z"/>
<path d="M366 643 c-1 -1 -60 -4 -130 -7 -126 -5 -168 -16 -136 -36 8 -5 31
-8 50 -6 19 2 41 -1 48 -6 15 -13 17 -163 3 -217 -6 -20 -15 -64 -22 -99 -6
-34 -16 -65 -20 -68 -5 -3 -9 -15 -9 -27 0 -12 -14 -36 -32 -52 -25 -24 -28
-31 -15 -33 17 -3 47 19 47 34 0 5 18 44 39 89 49 101 61 159 61 291 0 105 0
105 58 102 57 -3 57 -3 60 -150 1 -88 7 -148 12 -148 6 0 10 -11 10 -24 0 -14
5 -28 10 -31 6 -3 10 -14 10 -23 0 -10 9 -23 20 -30 11 -7 20 -18 20 -25 0 -6
11 -25 25 -41 14 -16 25 -33 25 -37 0 -10 80 -53 86 -47 2 2 -22 31 -54 64
-53 54 -82 102 -111 179 -13 34 -23 286 -12 303 4 6 24 15 46 20 66 13 54 31
-20 29 -37 -1 -68 -3 -69 -4z"/>
<path d="M55 64 c-11 -11 -13 -20 -6 -27 11 -11 41 13 41 32 0 16 -16 13 -35
-5z"/>
<path d="M600 15 c16 -20 41 -20 34 0 -4 8 -15 15 -26 15 -17 0 -18 -3 -8 -15z"/>
</g>
</svg>
