<svg version="1.0" xmlns="http://www.w3.org/2000/svg"
 width="77.000000pt" height="117.000000pt" viewBox="0 0 77.000000 117.000000"
 preserveAspectRatio="xMidYMid meet">
<metadata>
Created by potrace 1.15, written by Peter Selinger 2001-2017
</metadata>
<g transform="translate(0.000000,117.000000) scale(0.100000,-0.100000)"
fill="#000000" stroke="none">
<path d="M310 1053 c-20 -8 -60 -55 -60 -70 0 -23 21 -66 38 -79 52 -40 142 8
142 75 0 42 -78 90 -120 74z m68 -43 c39 -37 18 -90 -35 -90 -46 0 -66 47 -37
88 19 27 44 28 72 2z"/>
<path d="M530 918 c0 -59 -4 -99 -11 -104 -6 -3 -34 -8 -63 -10 -28 -1 -84 -5
-123 -8 -72 -6 -73 -6 -88 24 -8 16 -15 47 -15 70 0 22 -4 40 -8 40 -17 0 -32
-25 -32 -52 0 -35 -13 -57 -67 -117 -39 -42 -41 -46 -21 -49 11 -2 23 1 27 6
3 5 21 17 40 27 45 23 54 9 46 -78 -8 -86 13 -148 60 -177 25 -16 50 -20 113
-20 89 0 129 11 139 37 4 10 15 27 25 37 12 13 18 36 18 65 1 61 10 124 20
135 4 4 22 -5 38 -21 43 -41 80 -59 93 -46 7 7 -3 20 -36 44 -45 33 -85 95
-85 136 -1 10 -7 29 -15 43 -8 14 -15 34 -15 45 0 11 -9 31 -20 45 -20 25 -20
25 -20 -72z m-41 -155 c0 -10 -87 -73 -99 -73 -16 0 -80 62 -74 71 6 11 174
12 173 2z m57 -48 c7 -39 -3 -122 -15 -130 -9 -5 -91 51 -91 63 0 23 71 101
92 102 4 0 10 -16 14 -35z m-235 -36 c33 -31 33 -31 -4 -65 -20 -19 -41 -34
-47 -34 -6 0 -10 26 -10 58 0 83 9 89 61 41z m148 -110 c48 -28 52 -32 38 -46
-17 -17 -138 -30 -181 -19 -23 6 -38 36 -18 36 4 0 22 14 41 30 18 17 41 30
50 30 9 0 40 -14 70 -31z"/>
<path d="M360 412 c-72 -5 -170 -24 -170 -33 0 -16 38 -29 77 -26 38 2 38 2
41 -89 3 -91 3 -91 -48 -137 -42 -39 -65 -77 -44 -77 13 0 48 24 78 53 42 41
56 83 56 171 0 79 9 96 50 96 24 0 27 -4 38 -70 7 -39 12 -85 12 -104 0 -42
27 -97 51 -103 11 -3 19 -9 19 -13 0 -10 47 -30 70 -30 34 0 19 23 -32 49 -51
26 -69 55 -80 131 -8 53 -8 82 1 111 12 38 13 39 59 39 47 0 82 13 70 25 -7 7
-185 12 -248 7z"/>
</g>
</svg>
