<svg version="1.0" xmlns="http://www.w3.org/2000/svg"
 width="71.000000pt" height="81.000000pt" viewBox="0 0 71.000000 81.000000"
 preserveAspectRatio="xMidYMid meet">
<metadata>
Created by potrace 1.15, written by Peter Selinger 2001-2017
</metadata>
<g transform="translate(0.000000,81.000000) scale(0.100000,-0.100000)"
fill="#000000" stroke="none">
<path d="M454 725 c-3 -8 -22 -25 -42 -37 -51 -32 -112 -88 -112 -104 0 -29
21 -22 70 21 56 50 80 57 80 23 0 -14 -22 -42 -61 -79 -85 -79 -52 -94 41 -17
43 35 50 35 81 2 30 -33 77 -57 95 -50 26 10 14 34 -31 60 -45 27 -75 60 -75
83 0 20 23 16 79 -13 41 -22 53 -24 66 -14 24 20 2 44 -67 75 -35 15 -69 36
-76 47 -16 22 -40 24 -48 3z"/>
<path d="M182 709 c-20 -6 -40 -22 -53 -42 -18 -30 -19 -49 -18 -273 2 -240 2
-240 -24 -296 -15 -31 -24 -64 -21 -73 13 -32 39 -8 70 64 26 61 39 78 68 93
20 10 36 20 36 21 0 1 9 27 20 57 11 30 20 58 20 62 0 4 -26 8 -57 10 -58 3
-58 3 -26 23 40 25 96 102 89 121 -4 12 -17 13 -57 8 -50 -7 -51 -7 -38 15 8
11 17 21 20 21 12 0 69 64 69 77 0 9 -16 13 -56 13 -47 0 -55 3 -52 17 2 13
18 20 56 26 55 9 65 23 34 50 -21 19 -32 20 -80 6z m18 -147 c0 -10 -22 -32
-32 -32 -4 0 -8 9 -8 20 0 13 7 20 20 20 11 0 20 -4 20 -8z m0 -142 c-12 -22
-40 -27 -40 -7 0 19 10 27 32 27 16 0 17 -3 8 -20z m20 -146 c0 -3 -5 -14 -10
-25 -15 -28 -40 -24 -40 6 0 20 5 25 25 25 14 0 25 -3 25 -6z"/>
<path d="M328 463 c-10 -2 -18 -13 -18 -24 0 -14 9 -20 40 -25 50 -8 53 -30 7
-49 -19 -8 -39 -20 -45 -27 -6 -7 -15 -67 -22 -133 -6 -65 -13 -129 -16 -141
-7 -27 9 -38 36 -24 18 10 20 21 20 111 0 118 14 160 63 189 32 19 46 43 47
78 0 15 -59 52 -80 51 -8 -1 -23 -3 -32 -6z"/>
<path d="M475 460 c-10 -16 4 -30 28 -30 29 0 51 -15 43 -29 -4 -6 -20 -11
-37 -11 -22 0 -29 -5 -29 -20 0 -17 7 -20 38 -20 66 0 106 65 64 103 -20 19
-97 23 -107 7z"/>
<path d="M405 321 c-3 -6 15 -24 40 -41 54 -37 59 -60 12 -60 -18 0 -38 5 -44
11 -6 6 -18 9 -27 7 -14 -2 -12 -9 10 -40 25 -35 31 -38 76 -38 48 0 48 0 48
-52 0 -61 10 -81 36 -76 17 3 19 13 19 78 0 61 4 82 22 110 30 45 29 64 -3 89
-42 33 -89 24 -49 -9 16 -13 21 -50 6 -50 -5 0 -14 7 -21 15 -14 17 -94 65
-109 65 -5 0 -12 -4 -16 -9z"/>
</g>
</svg>
