<svg version="1.0" xmlns="http://www.w3.org/2000/svg"
 width="69.000000pt" height="91.000000pt" viewBox="0 0 69.000000 91.000000"
 preserveAspectRatio="xMidYMid meet">
<metadata>
Created by potrace 1.15, written by Peter Selinger 2001-2017
</metadata>
<g transform="translate(0.000000,91.000000) scale(0.100000,-0.100000)"
fill="#000000" stroke="none">
<path d="M559 756 c-2 -2 -78 -9 -169 -16 -91 -7 -182 -13 -202 -15 -37 -2
-72 -21 -64 -34 2 -3 45 -4 96 -1 51 3 97 2 103 -3 17 -11 -20 -37 -52 -38
-53 -1 -124 -34 -152 -69 -26 -32 -29 -46 -35 -130 -10 -164 -11 -374 -1 -387
31 -41 38 6 38 230 -1 216 7 260 48 281 47 25 155 46 163 33 12 -19 -9 -31
-70 -42 -60 -11 -69 -25 -24 -38 23 -7 76 -5 231 9 18 1 38 7 43 12 21 21 -5
32 -73 32 -62 0 -69 2 -69 20 0 17 7 20 39 20 31 0 119 -35 141 -56 5 -5 17
-148 28 -337 5 -95 11 -130 22 -137 31 -19 40 8 36 114 -15 417 -24 439 -173
453 -37 3 -74 10 -80 16 -27 20 1 28 83 21 87 -7 137 4 148 32 6 16 -42 42
-55 30z"/>
<path d="M392 493 c-78 -4 -98 -18 -68 -48 25 -25 21 -109 -6 -146 -20 -26
-21 -33 -9 -64 11 -30 10 -37 -4 -51 -9 -9 -14 -22 -11 -30 3 -7 -2 -18 -11
-26 -14 -12 -15 -4 -11 85 5 96 5 99 -19 114 -39 26 -73 8 -90 -47 -21 -67
-25 -136 -9 -150 21 -16 30 5 27 61 -3 51 22 113 42 106 28 -9 5 -197 -24
-197 -5 0 -9 -7 -9 -15 0 -20 20 -19 50 2 14 10 39 18 55 18 17 0 40 4 53 8
14 5 22 4 22 -2 0 -6 -11 -13 -24 -17 -28 -7 -63 -41 -52 -51 3 -4 31 1 62 11
55 17 56 17 78 -3 38 -35 59 -24 36 19 -8 16 -6 22 16 36 37 25 49 62 28 85
-20 23 -32 24 -53 5 -9 -7 -27 -17 -39 -21 -20 -6 -23 -4 -20 11 2 13 19 22
57 31 93 20 115 65 51 101 -23 13 -29 22 -25 37 4 11 9 39 12 62 4 30 11 44
25 49 10 3 17 11 15 17 -4 13 -36 15 -145 10z m66 -41 c2 -8 -12 -12 -44 -12
-49 0 -52 14 -4 23 33 6 43 3 48 -11z m-8 -57 c0 -8 -8 -15 -17 -15 -10 0 -28
-3 -40 -6 -17 -5 -23 -2 -23 9 0 18 14 25 53 26 18 1 27 -4 27 -14z m-10 -55
c0 -5 -11 -10 -24 -10 -14 0 -28 5 -31 10 -4 6 7 10 24 10 17 0 31 -4 31 -10z
m26 -60 c41 -16 16 -32 -52 -34 -63 -1 -83 16 -37 32 37 14 56 14 89 2z m13
-124 c-15 -13 -49 -25 -49 -17 0 5 8 12 18 14 24 6 36 8 31 3z"/>
<path d="M167 454 c-14 -14 -7 -24 18 -24 31 0 33 -22 3 -43 -21 -14 -21 -16
-5 -22 10 -4 28 0 43 10 20 13 25 23 22 48 -3 29 -7 32 -38 35 -20 2 -39 0
-43 -4z"/>
</g>
</svg>
