<svg version="1.0" xmlns="http://www.w3.org/2000/svg"
 width="71.000000pt" height="125.000000pt" viewBox="0 0 71.000000 125.000000"
 preserveAspectRatio="xMidYMid meet">
<metadata>
Created by potrace 1.15, written by Peter Selinger 2001-2017
</metadata>
<g transform="translate(0.000000,125.000000) scale(0.100000,-0.100000)"
fill="#000000" stroke="none">
<path d="M430 1090 c-42 -12 -104 -47 -125 -72 -17 -19 -20 -37 -19 -113 1
-91 20 -438 30 -550 3 -33 9 -103 14 -155 8 -98 16 -130 30 -130 17 0 20 38 9
140 -11 117 -25 346 -35 608 -7 169 -7 172 13 172 29 0 32 -15 39 -158 3 -70
7 -135 10 -144 3 -9 9 -72 15 -140 8 -112 14 -156 37 -298 4 -25 13 -54 19
-65 28 -45 38 29 16 120 -6 23 -9 52 -23 190 -6 55 -17 165 -25 245 -23 224
-23 279 0 296 10 8 25 14 32 14 17 0 17 36 1 42 -7 3 -24 2 -38 -2z"/>
<path d="M31 1069 c-19 -7 -21 -12 -11 -23 6 -8 21 -16 33 -18 21 -3 22 -7 22
-138 0 -74 4 -140 8 -147 4 -6 3 -14 -2 -17 -6 -4 -7 -64 -4 -149 7 -199 7
-191 4 -307 -3 -130 10 -174 36 -117 10 21 9 316 -1 542 -2 50 -1 144 3 210 6
112 7 120 27 123 15 2 24 -4 29 -20 5 -13 10 -233 12 -490 3 -258 8 -468 12
-468 29 0 31 37 31 485 0 493 -2 516 -49 533 -35 13 -121 13 -150 1z"/>
<path d="M515 1037 c-22 -6 -42 -12 -44 -13 -8 -7 26 -29 44 -29 17 0 21 -9
26 -60 10 -90 10 -205 1 -205 -18 0 -33 -56 -33 -122 0 -73 6 -84 84 -143 48
-36 57 -78 57 -275 0 -99 4 -180 8 -180 27 0 32 30 32 204 0 203 -7 236 -60
281 -82 71 -86 77 -80 144 3 37 34 84 71 108 83 55 94 82 78 185 -14 92 -36
118 -98 117 -25 -1 -64 -6 -86 -12z m122 -42 c20 -21 23 -143 4 -178 -13 -24
-50 -38 -52 -19 0 4 -2 53 -5 110 -5 99 -5 102 16 102 12 0 28 -7 37 -15z"/>
</g>
</svg>
