<svg version="1.0" xmlns="http://www.w3.org/2000/svg"
 width="72.000000pt" height="83.000000pt" viewBox="0 0 72.000000 83.000000"
 preserveAspectRatio="xMidYMid meet">
<metadata>
Created by potrace 1.15, written by Peter Selinger 2001-2017
</metadata>
<g transform="translate(0.000000,83.000000) scale(0.100000,-0.100000)"
fill="#000000" stroke="none">
<path d="M382 738 c-19 -19 -14 -60 12 -87 37 -40 40 -64 12 -98 -32 -39 -40
-74 -26 -117 13 -39 47 -66 86 -66 22 0 25 -3 20 -22 -3 -13 -6 -26 -6 -30 0
-5 -22 -8 -50 -8 -38 0 -50 -4 -50 -15 0 -12 13 -15 55 -15 54 0 54 0 57 -107
2 -88 6 -108 18 -108 12 0 16 21 20 105 5 105 5 105 69 110 90 7 93 28 4 32
-65 3 -68 4 -71 29 -3 23 1 27 30 33 19 3 48 19 66 35 44 41 45 95 2 141 -16
18 -30 38 -30 45 0 16 33 45 52 45 19 0 48 31 48 51 0 46 -74 75 -115 45 -17
-12 -18 -18 -8 -49 9 -29 7 -40 -9 -66 -25 -39 -78 -44 -102 -9 -15 21 -15 23
4 30 11 4 22 19 26 34 6 22 2 32 -20 51 -29 25 -75 30 -94 11z m273 -24 c22
-23 15 -49 -14 -49 -32 0 -49 28 -32 49 17 20 26 20 46 0z m-205 -9 c15 -18 5
-35 -20 -35 -10 0 -22 5 -25 10 -7 11 12 40 25 40 4 0 13 -7 20 -15z m149
-171 c26 -33 19 -44 -29 -44 -39 0 -50 11 -50 51 0 30 53 25 79 -7z m-109 -14
c0 -28 -2 -30 -40 -30 -46 0 -54 19 -18 44 37 26 58 21 58 -14z m0 -94 c0 -34
-1 -35 -29 -25 -62 22 -65 59 -5 59 32 0 34 -2 34 -34z m121 16 c-23 -43 -91
-53 -91 -14 0 27 8 32 57 32 39 0 43 -2 34 -18z"/>
<path d="M170 718 c1 -1 6 -24 13 -50 10 -37 10 -77 -1 -200 -7 -84 -10 -182
-8 -217 9 -105 59 -231 83 -208 3 4 -1 24 -10 44 -31 76 -36 154 -26 458 4
112 -8 163 -38 173 -7 2 -13 2 -13 0z"/>
<path d="M276 614 c4 -29 1 -50 -10 -72 -21 -40 -4 -51 29 -18 33 33 33 75 0
106 -26 24 -26 24 -19 -16z"/>
<path d="M113 588 c7 -25 -25 -83 -54 -98 -21 -12 -26 -40 -8 -40 7 0 31 20
55 44 45 44 56 80 32 104 -19 19 -31 14 -25 -10z"/>
<path d="M254 395 c-8 -19 -14 -66 -14 -107 0 -59 5 -83 27 -125 14 -29 32
-53 40 -53 17 0 17 0 -9 57 -19 40 -22 65 -22 156 1 59 -1 107 -3 107 -2 0
-11 -16 -19 -35z"/>
<path d="M99 383 c-18 -21 -18 -148 0 -190 7 -18 20 -33 28 -33 12 0 13 8 6
43 -4 23 -8 77 -8 120 0 42 -3 77 -6 77 -4 0 -13 -7 -20 -17z"/>
</g>
</svg>
