<svg version="1.0" xmlns="http://www.w3.org/2000/svg"
 width="47.000000pt" height="77.000000pt" viewBox="0 0 47.000000 77.000000"
 preserveAspectRatio="xMidYMid meet">
<metadata>
Created by potrace 1.15, written by Peter Selinger 2001-2017
</metadata>
<g transform="translate(0.000000,77.000000) scale(0.100000,-0.100000)"
fill="#000000" stroke="none">
<path d="M170 605 c0 -14 -4 -33 -9 -43 -5 -9 -15 -37 -22 -62 -7 -25 -23 -71
-36 -102 -27 -68 -27 -68 -8 -68 22 0 46 31 64 86 9 26 22 49 28 51 24 8 31
-102 12 -184 -19 -81 -31 -127 -42 -156 -5 -15 -7 -30 -3 -34 12 -12 45 39 61
95 10 31 21 70 26 86 12 39 11 158 -1 190 -5 14 -6 26 -2 26 10 0 85 -81 108
-115 22 -33 38 -32 29 3 -13 55 -70 135 -159 224 -35 35 -46 35 -46 3z"/>
</g>
</svg>
