<svg version="1.0" xmlns="http://www.w3.org/2000/svg"
 width="49.000000pt" height="87.000000pt" viewBox="0 0 49.000000 87.000000"
 preserveAspectRatio="xMidYMid meet">
<metadata>
Created by potrace 1.15, written by Peter Selinger 2001-2017
</metadata>
<g transform="translate(0.000000,87.000000) scale(0.100000,-0.100000)"
fill="#000000" stroke="none">
<path d="M138 656 c-36 -13 -36 -26 0 -26 21 0 32 -7 42 -27 8 -16 22 -40 32
-55 10 -14 18 -32 18 -38 0 -15 -35 -47 -61 -55 -11 -4 -19 -14 -20 -23 -11
-185 -12 -332 -3 -341 2 -3 9 0 15 6 10 10 14 65 22 266 2 38 7 52 27 67 14
11 28 20 31 20 4 0 9 -37 13 -82 8 -112 22 -217 30 -225 18 -18 27 20 22 86
-3 39 -9 103 -12 142 -5 68 -5 70 14 60 14 -8 21 -25 26 -68 4 -32 13 -83 21
-113 8 -30 15 -68 15 -85 1 -28 19 -65 34 -65 10 0 7 138 -4 145 -5 3 -10 44
-10 90 0 70 -3 86 -18 97 -10 7 -34 26 -52 41 -28 24 -31 31 -22 50 6 12 17
40 24 62 7 22 17 43 22 46 5 4 6 14 3 24 -6 14 -20 16 -94 14 -49 -2 -100 -8
-115 -13z m152 -48 c-1 -15 -28 -54 -34 -47 -6 7 -26 47 -26 53 0 3 14 6 30 6
18 0 30 -5 30 -12z"/>
</g>
</svg>
