<svg version="1.0" xmlns="http://www.w3.org/2000/svg"
 width="69.000000pt" height="91.000000pt" viewBox="0 0 69.000000 91.000000"
 preserveAspectRatio="xMidYMid meet">
<metadata>
Created by potrace 1.15, written by Peter Selinger 2001-2017
</metadata>
<g transform="translate(0.000000,91.000000) scale(0.100000,-0.100000)"
fill="#000000" stroke="none">
<path d="M465 589 c-49 -4 -154 -7 -232 -8 -95 -1 -144 -5 -149 -13 -11 -17
26 -38 68 -38 38 0 38 0 38 -39 0 -49 27 -71 87 -71 32 0 46 -5 58 -22 15 -22
14 -24 -12 -35 -15 -7 -53 -12 -83 -13 -46 0 -62 -5 -89 -27 -32 -28 -32 -28
-12 -75 21 -50 42 -62 97 -56 25 3 29 -1 32 -25 5 -42 -13 -57 -72 -57 -55 0
-79 -9 -68 -26 20 -31 150 -18 173 17 13 22 11 115 -4 127 -7 6 -37 12 -67 14
-56 3 -71 16 -52 46 10 15 139 39 150 28 4 -4 9 -71 12 -149 4 -117 8 -142 20
-142 12 0 16 25 20 145 5 145 5 145 83 148 86 3 97 -4 80 -55 -7 -19 -20 -32
-43 -39 -99 -33 -87 -144 16 -160 54 -8 94 7 94 35 0 25 -23 33 -81 25 -41 -6
-50 -4 -55 11 -11 27 9 49 54 60 67 17 89 64 57 124 -18 37 -31 41 -120 41
-75 0 -90 6 -79 34 4 10 25 17 65 22 69 8 89 27 89 86 0 30 4 38 18 38 23 0
56 35 47 49 -3 6 -16 10 -28 9 -12 0 -62 -4 -112 -9z m13 -81 c-3 -43 -3 -43
-53 -49 -28 -4 -80 -4 -115 0 -65 6 -65 6 -68 43 -3 37 -3 37 55 41 32 2 86 4
121 5 63 2 63 2 60 -40z"/>
</g>
</svg>
