<svg version="1.0" xmlns="http://www.w3.org/2000/svg"
 width="65.000000pt" height="87.000000pt" viewBox="0 0 65.000000 87.000000"
 preserveAspectRatio="xMidYMid meet">
<metadata>
Created by potrace 1.15, written by Peter Selinger 2001-2017
</metadata>
<g transform="translate(0.000000,87.000000) scale(0.100000,-0.100000)"
fill="#000000" stroke="none">
<path d="M220 642 c-8 -5 -32 -12 -52 -16 -48 -9 -56 -23 -21 -38 37 -15 36
-15 131 -16 46 -1 82 -6 82 -12 0 -12 -59 -70 -72 -70 -20 0 -108 -85 -124
-121 -33 -72 -34 -75 -50 -187 -4 -23 -11 -45 -15 -48 -5 -3 -9 -14 -9 -25 0
-10 -4 -19 -8 -19 -4 0 -9 -13 -10 -30 -3 -35 6 -37 42 -9 37 29 53 74 60 163
8 110 14 125 64 173 69 67 109 82 84 30 -18 -37 -37 -151 -48 -290 -5 -62 -4
-69 11 -65 19 3 44 79 45 136 0 44 40 202 51 202 14 0 61 -65 74 -104 7 -20
18 -67 25 -104 25 -144 55 -163 55 -36 0 86 -32 207 -64 241 -37 39 -49 68
-46 108 2 22 4 45 4 52 1 8 28 13 88 15 92 3 112 15 71 41 -25 16 -71 22 -243
32 -61 3 -117 2 -125 -3z"/>
</g>
</svg>
