<svg version="1.0" xmlns="http://www.w3.org/2000/svg"
 width="47.000000pt" height="65.000000pt" viewBox="0 0 47.000000 65.000000"
 preserveAspectRatio="xMidYMid meet">
<metadata>
Created by potrace 1.15, written by Peter Selinger 2001-2017
</metadata>
<g transform="translate(0.000000,65.000000) scale(0.100000,-0.100000)"
fill="#000000" stroke="none">
<path d="M175 493 c-61 -6 -70 -10 -55 -29 9 -10 22 -13 41 -9 26 6 30 3 51
-39 20 -42 21 -49 9 -84 -8 -20 -25 -53 -37 -72 -13 -19 -24 -40 -24 -47 0
-23 30 -14 42 12 6 14 16 24 22 22 13 -4 25 -63 25 -124 1 -39 14 -63 28 -49
3 3 5 44 4 91 0 47 2 85 6 85 4 0 17 -9 29 -21 44 -41 43 -13 -1 56 -25 38
-45 72 -45 76 0 22 53 105 70 109 75 18 -45 35 -165 23z m86 -56 c-13 -13 -26
-3 -16 12 3 6 11 8 17 5 6 -4 6 -10 -1 -17z"/>
</g>
</svg>
