<svg version="1.0" xmlns="http://www.w3.org/2000/svg"
 width="43.000000pt" height="61.000000pt" viewBox="0 0 43.000000 61.000000"
 preserveAspectRatio="xMidYMid meet">
<metadata>
Created by potrace 1.15, written by Peter Selinger 2001-2017
</metadata>
<g transform="translate(0.000000,61.000000) scale(0.100000,-0.100000)"
fill="#000000" stroke="none">
<path d="M125 421 c-6 -11 1 -16 36 -24 51 -13 46 -82 -15 -206 -22 -46 -33
-78 -27 -84 13 -13 26 -2 47 40 19 38 19 38 22 -12 1 -27 5 -66 8 -85 6 -35 6
-35 20 -1 8 18 14 66 14 107 0 41 3 74 8 74 4 0 21 -19 37 -43 27 -38 30 -40
33 -19 2 12 -10 41 -27 68 -30 44 -41 94 -21 94 6 0 10 10 10 23 0 28 17 47
42 47 22 0 24 16 2 24 -25 10 -182 7 -189 -3z"/>
</g>
</svg>
