<svg version="1.0" xmlns="http://www.w3.org/2000/svg"
 width="70.000000pt" height="76.000000pt" viewBox="0 0 70.000000 76.000000"
 preserveAspectRatio="xMidYMid meet">
<metadata>
Created by potrace 1.15, written by Peter Selinger 2001-2017
</metadata>
<g transform="translate(0.000000,76.000000) scale(0.100000,-0.100000)"
fill="#000000" stroke="none">
<path d="M155 661 c-16 -3 -31 -13 -33 -22 -2 -13 11 -17 70 -22 82 -7 118 -1
118 19 0 30 -75 42 -155 25z"/>
<path d="M382 658 c-23 -23 7 -38 80 -38 61 0 69 -2 66 -17 -3 -15 -18 -19
-83 -25 -97 -9 -105 -12 -105 -38 0 -11 -9 -29 -20 -40 -17 -17 -33 -20 -109
-20 -102 0 -121 -5 -121 -30 0 -24 22 -31 62 -19 18 5 122 10 231 10 155 1
197 4 197 14 0 20 -56 35 -131 35 -38 0 -69 4 -69 9 0 24 47 41 110 41 36 0
71 4 78 9 8 4 16 27 19 50 8 59 -10 70 -112 71 -49 0 -86 -5 -93 -12z"/>
<path d="M173 583 c-34 -3 -43 -8 -43 -23 0 -26 28 -32 110 -24 74 7 89 16 70
39 -12 15 -42 16 -137 8z"/>
<path d="M148 389 c-24 -14 -38 -71 -38 -160 0 -97 9 -109 88 -118 34 -4 65
-10 69 -14 15 -15 -19 -31 -70 -32 -79 -3 -104 -18 -72 -45 11 -9 33 -11 76
-6 91 11 109 20 109 56 0 29 2 30 44 30 41 0 45 -2 48 -27 2 -17 12 -32 28
-40 36 -18 164 -17 179 1 18 22 -16 36 -86 36 -60 0 -102 14 -73 24 8 2 38 10
67 16 80 18 87 31 80 152 -9 144 1 138 -241 138 -108 0 -198 -5 -208 -11z
m322 -38 c61 -5 75 -9 78 -24 3 -16 -9 -17 -185 -15 -159 3 -188 5 -188 18 0
26 128 35 295 21z m-32 -88 c84 -4 112 -9 112 -20 0 -10 -20 -13 -77 -14 -116
-2 -307 2 -312 7 -2 2 -1 10 2 19 7 17 82 20 275 8z m102 -87 c0 -23 -58 -36
-159 -35 -145 1 -205 11 -209 32 -3 16 11 17 182 17 153 0 186 -2 186 -14z"/>
</g>
</svg>
