<svg version="1.0" xmlns="http://www.w3.org/2000/svg"
 width="69.000000pt" height="125.000000pt" viewBox="0 0 69.000000 125.000000"
 preserveAspectRatio="xMidYMid meet">
<metadata>
Created by potrace 1.15, written by Peter Selinger 2001-2017
</metadata>
<g transform="translate(0.000000,125.000000) scale(0.100000,-0.100000)"
fill="#000000" stroke="none">
<path d="M350 1086 c0 -63 -4 -117 -9 -121 -10 -6 -83 -6 -224 -1 -87 2 -110
-5 -88 -27 8 -8 62 -12 161 -13 82 0 152 -3 156 -7 4 -4 12 -28 19 -54 10 -39
18 -51 46 -65 19 -9 49 -17 67 -18 56 0 72 -27 74 -127 9 -394 37 -613 79
-613 25 0 31 29 20 101 -5 35 -12 91 -16 124 -3 33 -10 92 -15 130 -5 39 -10
113 -11 165 -2 215 -19 253 -119 262 -59 6 -80 24 -80 70 0 28 0 28 129 28 72
0 132 4 135 8 8 14 -10 34 -30 32 -11 -1 -67 -2 -127 -1 -103 1 -108 2 -118
25 -13 27 3 68 24 61 20 -8 37 9 31 32 -4 12 -15 23 -28 25 -17 2 -20 9 -18
36 4 37 -12 62 -39 62 -17 0 -19 -9 -19 -114z"/>
<path d="M510 1150 c0 -29 -5 -50 -11 -50 -17 0 -6 -44 12 -48 25 -5 46 23 54
67 7 44 -9 81 -37 81 -15 0 -18 -9 -18 -50z"/>
<path d="M83 843 c-7 -3 -13 -12 -13 -20 0 -14 17 -15 137 -9 76 4 139 9 141
11 2 2 2 8 -2 13 -5 9 -240 13 -263 5z"/>
<path d="M90 750 c-25 -3 -44 -9 -42 -15 1 -6 61 -10 154 -10 140 0 153 2 156
18 4 17 -4 18 -110 15 -62 -2 -133 -5 -158 -8z"/>
<path d="M153 645 c-48 -21 -55 -44 -59 -201 -4 -142 -4 -143 23 -174 26 -32
26 -32 14 -118 -18 -133 -18 -127 3 -127 26 0 32 16 48 120 13 90 13 90 51 93
20 2 37 0 37 -5 0 -23 22 -144 32 -181 17 -59 44 -54 41 8 -1 50 -18 154 -27
168 -3 5 2 18 12 28 36 39 42 73 42 219 0 144 0 144 -29 164 -35 25 -137 28
-188 6z m163 -50 c11 -45 0 -55 -63 -55 -32 0 -68 3 -80 6 -29 8 -31 44 -3 51
11 3 20 9 20 13 0 4 27 8 60 9 56 1 60 0 66 -24z m4 -104 c25 -47 16 -52 -82
-49 -92 3 -93 3 -93 28 0 24 3 25 75 31 41 3 78 6 82 7 4 1 12 -7 18 -17z m10
-115 c0 -12 -5 -37 -11 -54 -8 -25 -17 -32 -50 -37 -80 -14 -140 31 -124 92 5
22 10 23 95 23 88 0 90 -1 90 -24z"/>
</g>
</svg>
