<svg version="1.0" xmlns="http://www.w3.org/2000/svg"
 width="53.000000pt" height="93.000000pt" viewBox="0 0 53.000000 93.000000"
 preserveAspectRatio="xMidYMid meet">
<metadata>
Created by potrace 1.15, written by Peter Selinger 2001-2017
</metadata>
<g transform="translate(0.000000,93.000000) scale(0.100000,-0.100000)"
fill="#000000" stroke="none">
<path d="M150 679 c0 -5 -3 -8 -7 -8 -5 1 -18 1 -31 0 -22 -1 -22 -1 -18 -163
4 -160 19 -356 32 -410 3 -16 11 -28 16 -28 7 0 9 55 6 160 -3 88 -1 160 3
160 5 0 28 -11 51 -25 24 -14 57 -33 75 -42 28 -14 33 -23 42 -78 6 -34 11
-75 11 -91 1 -16 7 -40 15 -54 14 -25 14 -25 17 15 2 49 2 62 -6 150 -6 59 -3
79 15 125 41 105 51 140 45 155 -3 9 -11 15 -18 14 -7 -1 -21 1 -31 6 -10 4
-28 3 -40 -2 -13 -6 -31 -7 -46 -1 -13 4 -25 7 -27 5 -2 -2 -5 -27 -8 -56 -2
-30 -10 -57 -17 -62 -20 -12 -4 -22 32 -21 38 1 49 10 29 25 -9 8 -14 24 -12
45 3 32 4 32 58 32 60 0 63 -5 35 -59 -11 -20 -27 -57 -37 -83 -9 -27 -19 -48
-23 -48 -11 0 -119 77 -151 106 -29 28 -30 32 -28 106 0 43 6 82 12 87 6 5 72
11 146 14 74 3 145 9 158 13 55 16 10 24 -138 23 -94 0 -160 -4 -160 -10z"/>
</g>
</svg>
