<svg version="1.0" xmlns="http://www.w3.org/2000/svg"
 width="91.000000pt" height="137.000000pt" viewBox="0 0 91.000000 137.000000"
 preserveAspectRatio="xMidYMid meet">
<metadata>
Created by potrace 1.15, written by Peter Selinger 2001-2017
</metadata>
<g transform="translate(0.000000,137.000000) scale(0.100000,-0.100000)"
fill="#000000" stroke="none">
<path d="M177 1243 c-13 -12 -7 -21 31 -45 35 -21 49 -23 220 -26 176 -4 202
0 170 25 -22 17 -59 23 -163 29 -55 3 -124 9 -154 14 -64 12 -95 13 -104 3z"/>
<path d="M102 1095 c-9 -11 -10 -20 -2 -34 5 -11 10 -53 11 -93 0 -102 23
-275 42 -323 9 -24 17 -86 21 -154 5 -115 2 -131 -39 -211 -13 -25 -9 -80 5
-80 12 0 58 57 66 82 4 13 12 26 18 30 6 4 12 52 14 112 4 105 4 105 71 72
118 -60 161 -77 216 -83 22 -2 53 -8 69 -14 16 -5 48 -9 71 -9 24 0 47 -6 53
-12 6 -7 12 -67 14 -133 3 -125 20 -186 55 -200 31 -11 37 12 19 77 -14 53
-16 108 -15 346 1 199 -2 287 -10 295 -6 6 -11 21 -11 33 0 15 -8 25 -22 29
-13 3 -33 11 -45 17 -32 16 -40 3 -20 -32 10 -16 24 -47 32 -70 13 -37 13 -41
-1 -47 -25 -9 -119 25 -152 55 -44 41 -53 66 -55 146 -1 66 1 76 26 106 40 47
26 56 -105 63 -128 8 -254 25 -280 38 -23 12 -31 11 -46 -6z m271 -81 c68 -7
68 -7 65 -48 -3 -41 -3 -41 -127 -40 -135 2 -145 6 -130 57 12 41 26 49 79 43
25 -3 76 -9 113 -12z m66 -166 c4 -13 11 -40 14 -60 5 -35 3 -39 -43 -72 -63
-45 -144 -86 -170 -86 -25 0 -40 34 -46 105 -3 28 -7 62 -9 77 -2 15 1 31 7
35 20 11 77 19 161 22 72 2 78 0 86 -21z m120 -174 c17 -9 63 -20 101 -26 70
-10 70 -10 70 -104 0 -51 -4 -95 -8 -98 -4 -3 -26 0 -48 5 -21 6 -59 14 -84
18 -48 9 -124 33 -176 56 -17 8 -48 20 -69 27 -43 14 -59 38 -26 38 19 0 49
13 75 33 39 29 104 66 117 66 9 1 30 -6 48 -15z"/>
</g>
</svg>
