<svg version="1.0" xmlns="http://www.w3.org/2000/svg"
 width="97.000000pt" height="175.000000pt" viewBox="0 0 97.000000 175.000000"
 preserveAspectRatio="xMidYMid meet">
<metadata>
Created by potrace 1.15, written by Peter Selinger 2001-2017
</metadata>
<g transform="translate(0.000000,175.000000) scale(0.100000,-0.100000)"
fill="#000000" stroke="none">
<path d="M415 1633 c-33 -1 -91 -8 -130 -14 -113 -18 -145 -51 -81 -81 27 -13
41 -14 72 -6 22 6 82 13 134 15 102 4 140 16 140 45 0 10 -2 18 -4 18 -2 0
-19 6 -37 13 -19 6 -61 11 -94 10z"/>
<path d="M330 1300 c-25 -5 -75 -14 -112 -21 -38 -7 -81 -20 -96 -29 -28 -17
-28 -18 -27 -121 1 -57 5 -178 9 -269 9 -171 3 -222 -38 -373 -20 -71 -20 -78
-2 -102 11 -16 17 -17 29 -7 21 18 57 123 68 200 5 36 12 68 14 70 3 3 42 -4
87 -16 46 -11 115 -26 153 -32 39 -7 89 -16 112 -21 23 -5 62 -9 86 -9 24 0
64 -3 89 -6 45 -6 45 -6 57 -78 19 -108 30 -147 65 -227 28 -65 74 -87 99 -47
8 12 4 31 -20 80 -37 76 -39 81 -58 170 -22 108 -28 205 -16 294 16 131 -7
180 -101 215 -54 20 -108 25 -108 11 0 -16 63 -72 81 -72 12 0 19 -7 19 -19 0
-11 2 -26 5 -34 6 -14 -9 -17 -100 -20 -51 -2 -108 15 -131 38 -21 21 -23 32
-26 183 -1 88 1 164 5 168 4 4 60 8 125 9 119 1 162 12 162 41 0 8 -12 19 -26
24 -30 12 -340 11 -404 0z m62 -82 c3 -7 4 -26 3 -43 -1 -16 -3 -46 -4 -65 -1
-35 -2 -36 -58 -48 -32 -6 -81 -14 -110 -18 -51 -6 -52 -6 -59 22 -4 16 -1 52
7 83 13 51 17 55 54 67 55 16 162 18 167 2z m8 -277 c5 -11 10 -34 10 -50 0
-17 6 -40 12 -51 10 -16 10 -24 0 -40 -6 -11 -12 -27 -12 -35 0 -8 -3 -15 -8
-15 -4 0 -13 -13 -20 -30 -16 -34 -29 -36 -112 -16 -65 16 -90 26 -90 35 0 3
-2 45 -5 92 -6 109 1 117 105 122 41 1 83 4 92 5 10 1 22 -7 28 -17z m241
-172 c98 0 98 0 104 -43 13 -81 12 -81 -95 -78 -77 2 -182 17 -198 28 -5 3 29
67 46 87 9 10 22 15 31 12 8 -3 59 -6 112 -6z"/>
<path d="M290 485 c0 -13 58 -58 98 -77 53 -24 102 -65 102 -86 0 -7 -3 -12
-8 -10 -15 6 -98 36 -133 47 -43 13 -139 15 -139 2 0 -16 54 -49 116 -71 32
-12 68 -25 79 -30 11 -4 29 -11 40 -15 20 -6 20 -7 1 -21 -11 -8 -28 -14 -37
-14 -10 0 -20 -4 -23 -9 -5 -7 -24 -13 -94 -27 -24 -5 -26 -14 -6 -29 35 -27
63 -28 122 -5 31 12 67 24 80 27 12 3 22 9 22 14 0 26 44 2 87 -47 69 -80 95
-105 107 -101 45 15 -21 151 -101 208 -33 24 -37 31 -40 79 -2 29 -10 64 -18
77 -24 35 -160 93 -221 93 -19 0 -34 -2 -34 -5z"/>
</g>
</svg>
