<svg version="1.0" xmlns="http://www.w3.org/2000/svg"
 width="45.000000pt" height="101.000000pt" viewBox="0 0 45.000000 101.000000"
 preserveAspectRatio="xMidYMid meet">
<metadata>
Created by potrace 1.15, written by Peter Selinger 2001-2017
</metadata>
<g transform="translate(0.000000,101.000000) scale(0.100000,-0.100000)"
fill="#000000" stroke="none">
<path d="M156 852 c-6 -10 27 -83 53 -121 18 -24 18 -32 7 -64 -7 -20 -15 -40
-19 -43 -4 -4 -7 -13 -7 -20 0 -8 -14 -44 -31 -80 -24 -53 -27 -69 -17 -75 7
-5 16 -9 20 -9 12 0 56 48 63 70 3 11 10 20 15 20 5 0 10 12 12 27 2 14 9 28
16 31 9 3 11 -6 6 -35 -3 -21 -10 -43 -15 -49 -16 -20 -27 -102 -19 -151 4
-27 13 -86 20 -133 6 -47 15 -96 20 -110 5 -14 11 -37 14 -52 10 -46 32 -33
46 27 13 55 7 111 -20 195 -20 59 -21 136 -4 186 41 116 8 255 -84 355 -34 37
-65 49 -76 31z"/>
</g>
</svg>
