<svg version="1.0" xmlns="http://www.w3.org/2000/svg"
 width="51.000000pt" height="117.000000pt" viewBox="0 0 51.000000 117.000000"
 preserveAspectRatio="xMidYMid meet">
<metadata>
Created by potrace 1.15, written by Peter Selinger 2001-2017
</metadata>
<g transform="translate(0.000000,117.000000) scale(0.100000,-0.100000)"
fill="#000000" stroke="none">
<path d="M17 986 c6 -28 8 -29 66 -26 25 1 39 -3 43 -14 6 -15 -10 -182 -27
-276 -9 -51 -30 -214 -42 -320 -15 -127 -28 -227 -33 -243 -8 -27 15 -77 36
-77 31 0 37 30 56 270 3 36 7 72 10 80 6 17 23 186 30 294 3 38 9 77 14 87 6
10 10 35 10 56 0 21 6 61 13 88 15 56 11 54 113 34 71 -14 78 -33 70 -192 -3
-67 -7 -144 -8 -172 -4 -69 11 -324 23 -415 11 -81 33 -140 52 -140 27 1 40
18 33 46 -31 128 -44 298 -37 524 7 281 7 301 -12 337 -30 56 -72 67 -298 79
-117 6 -117 6 -112 -20z"/>
</g>
</svg>
