<svg version="1.0" xmlns="http://www.w3.org/2000/svg"
 width="45.000000pt" height="99.000000pt" viewBox="0 0 45.000000 99.000000"
 preserveAspectRatio="xMidYMid meet">
<metadata>
Created by potrace 1.15, written by Peter Selinger 2001-2017
</metadata>
<g transform="translate(0.000000,99.000000) scale(0.100000,-0.100000)"
fill="#000000" stroke="none">
<path d="M224 849 c-4 -6 -6 -47 -5 -89 2 -78 2 -78 -38 -115 -61 -57 -65 -79
-57 -320 6 -208 11 -255 26 -255 17 0 20 40 20 265 0 230 0 234 22 249 12 9
25 16 28 16 4 0 12 -48 19 -107 7 -60 15 -116 18 -125 13 -49 39 12 50 114 9
87 -16 339 -35 361 -17 20 -38 22 -48 6z"/>
</g>
</svg>
