<svg version="1.0" xmlns="http://www.w3.org/2000/svg"
 width="83.000000pt" height="115.000000pt" viewBox="0 0 83.000000 115.000000"
 preserveAspectRatio="xMidYMid meet">
<metadata>
Created by potrace 1.15, written by Peter Selinger 2001-2017
</metadata>
<g transform="translate(0.000000,115.000000) scale(0.100000,-0.100000)"
fill="#000000" stroke="none">
<path d="M591 993 c-8 -3 -25 -17 -38 -29 -13 -13 -27 -24 -31 -24 -4 0 -25
-16 -45 -35 -20 -19 -40 -35 -43 -35 -19 0 -114 -80 -216 -181 -152 -152 -172
-192 -170 -333 1 -93 16 -166 34 -166 4 0 8 -6 8 -14 0 -20 67 -76 119 -99 33
-14 75 -21 158 -25 100 -4 120 -2 175 18 53 19 110 55 153 95 35 32 53 191 25
219 -5 5 -10 23 -10 38 0 15 -4 28 -10 28 -5 0 -10 6 -10 13 0 7 -8 22 -19 33
-10 11 -24 31 -31 44 -14 26 -15 28 -58 80 -15 19 -39 51 -52 70 -13 19 -41
52 -62 72 -38 37 -38 37 -12 55 14 10 34 26 45 36 20 18 49 23 49 9 0 -5 11
-14 24 -20 14 -6 33 -18 43 -26 74 -62 161 -116 185 -116 16 0 28 3 28 7 0 17
-55 74 -102 106 -29 20 -70 51 -92 70 -39 33 -39 33 -22 65 22 43 13 59 -23
45z m-85 -361 c38 -51 74 -101 79 -110 6 -9 17 -28 26 -42 28 -43 59 -139 59
-181 0 -68 -16 -73 -207 -70 -73 1 -73 1 -73 81 0 80 0 80 45 80 43 0 95 16
95 30 0 12 -45 29 -85 32 -40 3 -40 3 -41 81 -2 81 -11 104 -38 94 -13 -5 -16
-23 -16 -92 0 -85 0 -85 -53 -85 -29 0 -61 -6 -72 -13 -17 -13 -17 -15 6 -30
13 -10 43 -17 66 -17 42 0 43 -1 43 -34 0 -18 -3 -54 -6 -80 -7 -46 -7 -46
-103 -46 -53 0 -102 4 -109 9 -10 6 -14 35 -15 104 0 89 2 101 32 160 34 68
78 119 155 182 27 22 59 50 70 61 20 22 20 22 47 0 14 -11 57 -63 95 -114z
m-106 -453 c105 0 210 -10 210 -18 0 -13 -73 -41 -130 -50 -67 -11 -202 -5
-250 12 -32 11 -69 42 -70 59 0 4 37 5 83 2 45 -2 116 -5 157 -5z"/>
</g>
</svg>
