<svg version="1.0" xmlns="http://www.w3.org/2000/svg"
 width="68.000000pt" height="93.000000pt" viewBox="0 0 68.000000 93.000000"
 preserveAspectRatio="xMidYMid meet">
<metadata>
Created by potrace 1.15, written by Peter Selinger 2001-2017
</metadata>
<g transform="translate(0.000000,93.000000) scale(0.100000,-0.100000)"
fill="#000000" stroke="none">
<path d="M375 672 c-35 -5 -50 -12 -50 -22 0 -12 15 -16 68 -18 67 -3 67 -3
67 -108 0 -105 0 -105 -27 -102 -27 3 -28 6 -31 66 -3 54 -6 62 -22 62 -18 0
-20 -7 -20 -68 0 -97 8 -104 114 -110 47 -2 86 -7 86 -10 0 -3 -20 -30 -45
-60 -31 -37 -45 -64 -45 -83 0 -43 43 -120 85 -152 60 -47 90 -14 37 40 -38
39 -58 73 -67 112 -6 30 -3 37 41 83 49 49 49 49 49 138 0 54 -5 94 -12 101
-6 6 -32 14 -57 16 -45 5 -46 7 -46 39 0 34 0 34 58 34 53 0 106 19 91 34 -9
9 -220 15 -274 8z m190 -207 c0 -42 -3 -50 -20 -53 -38 -4 -48 12 -41 62 7 44
9 47 34 44 25 -3 27 -6 27 -53z"/>
<path d="M34 606 c-25 -19 -15 -27 41 -34 40 -4 46 -8 43 -26 -2 -13 -12 -22
-25 -24 -13 -2 -32 -15 -44 -30 -19 -25 -21 -36 -17 -147 3 -100 7 -125 23
-148 20 -28 20 -28 110 -23 84 5 92 7 113 33 32 40 42 85 42 190 0 97 -1 100
-65 138 -23 14 -9 43 23 47 16 2 28 10 30 21 3 15 -8 17 -125 17 -96 0 -134
-4 -149 -14z m174 -53 c2 -8 -5 -13 -17 -13 -12 0 -21 6 -21 16 0 18 31 15 38
-3z m-3 -90 c14 -79 26 -113 45 -123 24 -13 29 -80 6 -80 -8 0 -18 5 -21 10
-3 6 -20 17 -37 26 -29 15 -31 14 -69 -12 -22 -15 -41 -25 -44 -22 -3 2 -7 18
-11 34 -5 27 -1 33 34 58 41 28 52 49 52 102 0 57 36 62 45 7z m-79 -19 c-7
-51 -20 -74 -43 -74 -11 0 -13 11 -11 47 2 39 7 50 28 60 14 7 27 13 29 13 2
0 1 -21 -3 -46z m151 15 c16 -32 4 -89 -14 -67 -7 8 -15 33 -19 57 -6 35 -4
43 7 39 8 -2 19 -16 26 -29z m-78 -211 c36 -23 36 -23 -16 -32 -28 -5 -60 -5
-70 -2 -16 7 -15 10 12 32 17 13 32 24 34 24 2 0 20 -10 40 -22z"/>
</g>
</svg>
