<svg version="1.0" xmlns="http://www.w3.org/2000/svg"
 width="68.000000pt" height="90.000000pt" viewBox="0 0 68.000000 90.000000"
 preserveAspectRatio="xMidYMid meet">
<metadata>
Created by potrace 1.15, written by Peter Selinger 2001-2017
</metadata>
<g transform="translate(0.000000,90.000000) scale(0.100000,-0.100000)"
fill="#000000" stroke="none">
<path d="M123 664 c-30 -11 -43 -22 -48 -41 -11 -44 6 -233 22 -249 19 -19
227 -21 221 -1 -3 6 -24 16 -47 21 -52 11 -54 39 -3 44 25 3 33 9 37 28 3 13
7 36 10 50 8 35 -11 54 -52 54 -30 0 -34 3 -31 23 2 17 11 23 43 27 43 5 60
32 28 44 -39 16 -138 16 -180 0z m67 -74 c0 -15 -7 -20 -25 -20 -18 0 -25 5
-25 20 0 15 7 20 25 20 18 0 25 -5 25 -20z m-2 -88 c3 -23 -11 -28 -42 -16
-21 8 -20 31 2 37 27 7 37 2 40 -21z m62 3 c0 -8 -4 -15 -10 -15 -5 0 -10 7
-10 15 0 8 5 15 10 15 6 0 10 -7 10 -15z m-62 -82 c-2 -10 -12 -18 -23 -18
-11 0 -21 8 -23 18 -3 13 3 17 23 17 20 0 26 -4 23 -17z"/>
<path d="M382 644 c-21 -14 -22 -23 -22 -129 0 -106 1 -115 22 -129 23 -17 93
-20 138 -7 18 5 24 13 22 27 -6 28 -20 33 -74 27 -47 -6 -48 -5 -48 21 0 25 3
26 49 26 63 0 76 14 85 86 9 78 -6 94 -88 94 -40 0 -70 -6 -84 -16z m101 -56
c11 -9 15 -21 11 -35 -5 -18 -14 -23 -40 -23 -31 0 -34 3 -34 28 0 16 3 32 7
35 10 11 38 8 56 -5z"/>
<path d="M310 310 c-6 -11 -9 -29 -6 -38 8 -25 -6 -39 -121 -117 -57 -38 -103
-74 -103 -80 0 -12 32 -45 43 -45 3 0 22 14 41 31 57 50 168 119 180 112 6 -4
51 -33 99 -65 93 -61 114 -68 124 -42 6 17 -40 70 -70 80 -11 4 -44 22 -73 40
-52 33 -53 35 -56 86 -3 46 -6 53 -25 56 -14 2 -26 -4 -33 -18z"/>
<path d="M420 320 c-11 -7 -12 -14 -4 -27 16 -27 121 -96 133 -89 22 14 11 47
-20 64 -17 9 -44 27 -59 40 -32 25 -30 25 -50 12z"/>
<path d="M150 286 c-57 -33 -67 -51 -39 -69 26 -16 123 42 127 77 4 35 -17 33
-88 -8z"/>
</g>
</svg>
