<svg version="1.0" xmlns="http://www.w3.org/2000/svg"
 width="62.000000pt" height="79.000000pt" viewBox="0 0 62.000000 79.000000"
 preserveAspectRatio="xMidYMid meet">
<metadata>
Created by potrace 1.15, written by Peter Selinger 2001-2017
</metadata>
<g transform="translate(0.000000,79.000000) scale(0.100000,-0.100000)"
fill="#000000" stroke="none">
<path d="M189 676 c-51 -34 -87 -81 -95 -124 -4 -22 0 -72 11 -128 23 -117 16
-208 -20 -269 -41 -71 -29 -102 18 -45 14 16 37 65 52 109 26 80 26 80 9 173
-29 158 -29 161 0 194 25 29 25 29 50 -1 14 -16 25 -36 26 -42 0 -18 -25 -16
-40 2 -14 17 -30 20 -30 6 0 -5 12 -23 26 -40 25 -30 25 -30 5 -48 -21 -18
-28 -43 -13 -43 5 0 25 16 45 35 43 42 77 47 77 11 0 -16 -7 -27 -19 -31 -70
-22 -95 -91 -43 -119 20 -11 22 -15 9 -16 -28 0 -64 -28 -77 -61 -11 -27 -10
-32 10 -54 13 -13 38 -29 56 -35 19 -7 34 -17 34 -23 0 -24 47 -77 81 -93 69
-31 107 1 41 35 -72 37 -81 73 -19 85 39 7 73 39 82 78 5 21 1 33 -19 52 -27
28 -56 34 -56 13 0 -7 5 -18 12 -25 9 -9 8 -12 -5 -12 -24 0 -24 66 1 72 9 3
24 17 32 32 19 36 5 58 -46 72 -28 8 -40 17 -42 32 -2 12 -8 22 -14 22 -6 0
-5 6 2 15 19 23 -1 40 -29 26 -33 -18 -26 10 11 38 31 25 31 25 50 1 21 -26
17 -40 -7 -20 -9 7 -18 10 -21 7 -6 -6 18 -47 28 -47 4 0 28 -18 53 -40 25
-22 55 -40 66 -40 17 0 19 -7 19 -67 1 -97 42 -244 74 -265 33 -23 34 -2 1 98
-27 82 -28 150 -5 330 8 64 7 82 -5 101 -24 36 -125 81 -125 56 0 -4 20 -26
45 -49 39 -35 45 -46 45 -80 0 -47 -18 -114 -30 -114 -4 0 -20 14 -35 31 -26
32 -26 32 1 60 16 16 24 34 21 43 -5 13 -11 11 -34 -10 -33 -30 -45 -13 -14
20 12 12 21 33 21 46 0 23 0 23 -25 0 -25 -23 -25 -23 -25 24 0 40 -3 47 -17
44 -14 -3 -17 -12 -15 -46 3 -46 -6 -52 -33 -22 -23 26 -35 25 -32 -1 1 -12
-3 -24 -10 -26 -8 -3 -13 12 -15 44 -3 45 -5 48 -33 50 -18 1 -44 -7 -66 -21z
m71 -42 c0 -39 -12 -44 -34 -12 -14 20 -14 24 1 40 21 24 33 14 33 -28z m78
-341 c-2 -74 -7 -108 -15 -111 -10 -3 -13 22 -13 100 0 58 3 108 7 111 19 19
23 -3 21 -100z m57 87 c0 -7 -6 -15 -12 -17 -8 -3 -13 4 -13 17 0 13 5 20 13
18 6 -3 12 -11 12 -18z m-119 -37 c-11 -11 -19 6 -11 24 8 17 8 17 12 0 3 -10
2 -21 -1 -24z m-6 -73 c0 -15 -7 -20 -27 -20 -28 0 -28 0 -3 20 31 24 30 24
30 0z m150 -50 c0 -9 -31 -30 -44 -30 -3 0 -6 9 -6 20 0 15 7 20 25 20 14 0
25 -4 25 -10z m-150 -24 c0 -19 -4 -23 -20 -19 -38 10 -37 43 1 43 13 0 19 -7
19 -24z"/>
</g>
</svg>
