<svg version="1.0" xmlns="http://www.w3.org/2000/svg"
 width="69.000000pt" height="92.000000pt" viewBox="0 0 69.000000 92.000000"
 preserveAspectRatio="xMidYMid meet">
<metadata>
Created by potrace 1.15, written by Peter Selinger 2001-2017
</metadata>
<g transform="translate(0.000000,92.000000) scale(0.100000,-0.100000)"
fill="#000000" stroke="none">
<path d="M332 723 c-101 -3 -113 -6 -110 -21 3 -15 19 -17 142 -18 108 0 139
2 143 13 3 8 3 16 1 18 -9 9 -64 11 -176 8z"/>
<path d="M207 643 c-58 -3 -68 -7 -65 -21 3 -14 13 -17 51 -15 47 3 47 3 47
-57 0 -56 -2 -60 -30 -75 -37 -19 -50 -43 -50 -95 0 -62 33 -90 105 -90 52 0
55 -1 55 -25 0 -24 -2 -25 -69 -25 -54 0 -70 4 -75 16 -12 30 -30 8 -32 -40
-2 -27 -10 -56 -19 -66 -17 -19 -19 -36 -6 -44 17 -11 39 5 51 35 13 30 42 53
54 42 8 -9 7 -85 -2 -99 -4 -6 -29 -13 -55 -16 -54 -6 -62 -11 -54 -31 4 -12
42 -13 224 -9 120 2 222 8 227 13 17 16 -15 39 -55 39 -39 0 -39 0 -39 60 0
69 13 77 48 30 13 -16 31 -30 42 -30 24 0 25 7 5 54 -9 20 -13 47 -9 60 8 33
-14 44 -35 18 -12 -15 -33 -22 -84 -27 -68 -7 -69 -7 -65 16 3 21 11 24 82 34
91 13 116 33 116 94 0 55 -9 75 -41 96 -27 18 -29 24 -27 70 3 50 3 50 43 50
46 0 63 28 23 39 -23 6 -233 5 -361 -1z m241 -50 c-3 -15 -16 -19 -72 -21 -84
-4 -104 2 -86 23 9 11 33 15 87 15 66 0 74 -2 71 -17z m0 -75 c-3 -9 -29 -13
-83 -13 -54 0 -80 4 -82 13 -4 9 17 12 82 12 65 0 86 -3 83 -12z m55 -68 c5
-4 11 -26 14 -48 7 -55 -9 -62 -157 -65 -110 -2 -123 0 -136 17 -31 43 -2 94
62 107 44 9 205 1 217 -11z m-183 -310 c0 -57 -1 -60 -25 -60 -24 0 -25 3 -25
53 0 58 4 67 32 67 15 0 18 -8 18 -60z m108 -2 c3 -58 3 -58 -28 -58 -30 0
-30 0 -30 61 0 60 0 60 28 57 26 -3 27 -6 30 -60z"/>
<path d="M265 410 c-14 -22 10 -30 89 -30 58 0 87 4 95 13 6 8 8 17 4 20 -10
11 -181 8 -188 -3z"/>
</g>
</svg>
