<svg version="1.0" xmlns="http://www.w3.org/2000/svg"
 width="143.000000pt" height="137.000000pt" viewBox="0 0 143.000000 137.000000"
 preserveAspectRatio="xMidYMid meet">
<metadata>
Created by potrace 1.15, written by Peter Selinger 2001-2017
</metadata>
<g transform="translate(0.000000,137.000000) scale(0.100000,-0.100000)"
fill="#000000" stroke="none">
<path d="M469 1313 c-7 -7 -10 -15 -8 -16 48 -32 121 -38 289 -24 108 9 161
19 160 30 0 4 0 12 0 17 0 7 -72 10 -215 9 -169 -1 -217 -5 -226 -16z"/>
<path d="M1170 1283 c0 -8 -8 -16 -96 -101 -33 -32 -41 -46 -37 -66 5 -23 10
-26 48 -26 37 0 44 -3 53 -27 13 -36 26 -149 27 -238 0 -69 -1 -70 -27 -73
-51 -6 -63 -52 -13 -52 39 0 55 -25 55 -89 0 -53 -2 -60 -35 -86 -26 -22 -31
-32 -23 -42 6 -7 19 -13 29 -13 10 0 20 -3 22 -7 3 -5 36 -8 73 -8 54 0 69 3
72 16 1 9 -9 21 -25 29 -58 29 -63 38 -63 116 0 72 0 72 31 83 18 6 40 11 50
11 14 0 19 7 19 25 0 28 -33 42 -73 31 -21 -5 -26 0 -36 32 -13 42 -20 256 -8
268 4 4 33 8 65 8 57 1 57 1 54 35 -1 19 -11 42 -22 51 -11 10 -20 22 -20 27
0 5 -8 18 -18 29 -10 11 -27 32 -36 47 -17 25 -66 40 -66 20z m44 -89 c21 -8
22 -64 2 -64 -24 0 -66 19 -66 29 0 12 28 41 40 41 5 0 15 -3 24 -6z"/>
<path d="M245 1236 c-30 -38 -47 -65 -69 -112 -8 -17 -22 -37 -31 -44 -9 -8
-25 -31 -36 -51 -26 -52 -6 -61 36 -15 35 39 70 47 79 18 3 -10 8 -58 10 -108
5 -90 5 -90 -54 -102 -83 -17 -106 -52 -35 -52 49 0 92 -19 99 -43 3 -12 6
-59 6 -103 0 -88 -5 -98 -55 -109 -46 -10 -85 -27 -85 -35 0 -14 29 -16 127
-8 128 9 153 15 153 39 0 15 -7 19 -32 19 -53 0 -59 10 -65 98 -7 103 5 135
58 156 43 17 44 19 29 47 -8 14 -21 19 -50 19 -40 0 -40 0 -40 89 0 111 8 122
80 99 27 -9 51 -13 54 -10 9 8 7 42 -2 42 -4 0 -18 21 -32 48 -14 26 -28 52
-33 57 -4 6 -21 29 -37 53 -17 23 -34 42 -39 42 -5 0 -21 -15 -36 -34z m72
-81 c23 -24 9 -45 -32 -45 -40 0 -43 6 -17 38 20 26 28 27 49 7z"/>
<path d="M727 1224 c-1 -1 -49 -4 -107 -7 -58 -3 -107 -6 -110 -7 -3 0 2 -5
10 -10 12 -8 11 -10 -7 -10 -13 0 -23 5 -23 10 0 6 -9 10 -21 10 -15 0 -20 -5
-17 -22 2 -19 12 -25 58 -32 58 -10 68 -18 101 -80 12 -21 29 -48 40 -59 10
-12 19 -24 19 -28 0 -4 3 -14 6 -23 9 -24 -31 -20 -69 7 -43 30 -52 39 -60 60
-13 36 -51 11 -96 -63 -28 -47 -28 -116 1 -169 20 -37 20 -42 6 -58 -9 -10
-23 -33 -33 -51 -14 -29 -15 -41 -4 -85 6 -29 16 -60 21 -70 10 -20 -21 -81
-66 -129 -28 -29 -34 -58 -13 -58 6 1 32 21 57 46 45 44 45 44 48 -28 3 -93 8
-107 27 -87 9 8 15 38 17 72 1 32 5 60 9 63 4 2 21 -10 39 -26 32 -30 64 -39
75 -21 3 5 -15 31 -40 58 -48 52 -53 66 -30 89 8 9 15 24 15 33 0 10 7 24 15
31 18 15 22 170 4 170 -11 0 -9 32 8 100 7 27 14 36 33 38 14 1 30 -1 36 -5 7
-5 14 -65 18 -158 3 -82 10 -215 15 -295 5 -80 6 -148 3 -152 -4 -3 -23 -9
-44 -13 -31 -6 -38 -4 -48 17 -18 33 -18 33 -40 8 -18 -20 -20 -33 -15 -99 5
-88 20 -108 92 -128 60 -15 157 -17 186 -2 31 16 76 68 93 108 16 39 19 127 3
136 -5 4 -18 0 -28 -9 -23 -20 -140 -31 -142 -13 -1 7 -3 21 -4 32 -2 11 -9
108 -15 215 -19 325 -18 331 41 349 23 7 42 11 43 9 1 -2 8 -21 15 -43 7 -22
24 -56 37 -77 23 -36 23 -36 -3 -89 -37 -73 -43 -151 -14 -189 26 -36 26 -35
-4 -98 -14 -29 -25 -58 -25 -66 0 -29 31 -25 68 8 41 37 50 34 74 -21 26 -60
55 -77 84 -48 13 13 13 18 -2 47 -9 18 -20 35 -23 38 -20 16 -52 73 -44 79 5
3 20 21 32 40 30 43 34 149 6 207 -17 36 -17 37 7 58 46 40 58 203 19 266 -11
19 -21 38 -21 41 0 4 -16 10 -35 13 -44 9 -90 -12 -146 -65 -23 -22 -48 -39
-55 -39 -8 0 -14 -4 -14 -10 0 -5 -11 -10 -25 -10 -22 0 -25 4 -25 40 0 37 7
46 81 120 73 72 84 80 119 80 44 0 56 11 40 40 -10 19 -19 20 -131 17 -66 -1
-121 -3 -122 -3z m46 -70 c4 -4 -1 -19 -10 -34 -16 -27 -64 -47 -84 -34 -10 6
-12 57 -2 67 8 9 88 9 96 1z m224 -215 c17 -48 16 -115 -2 -149 -18 -36 -31
-37 -62 -8 -20 18 -23 31 -23 90 0 83 19 121 53 109 12 -5 27 -23 34 -42z
m-448 4 c34 -29 33 -85 -4 -127 -21 -25 -26 -26 -39 -14 -19 20 -30 79 -22
123 8 40 30 46 65 18z m-11 -263 c16 -44 2 -104 -25 -114 -22 -9 -33 11 -33
59 0 39 22 85 40 85 4 0 13 -13 18 -30z m460 -54 c10 -31 10 -48 0 -89 -13
-49 -46 -86 -55 -60 -2 6 -13 21 -24 34 -16 19 -18 31 -13 68 4 25 10 48 14
51 3 3 9 13 13 23 12 33 50 17 65 -27z m-132 -432 c-3 -9 -9 -27 -12 -40 -9
-35 -33 -44 -111 -44 -79 0 -93 7 -96 45 -2 23 3 30 33 41 19 7 70 13 114 13
68 1 77 -1 72 -15z"/>
</g>
</svg>
