<svg version="1.0" xmlns="http://www.w3.org/2000/svg"
 width="79.000000pt" height="96.000000pt" viewBox="0 0 79.000000 96.000000"
 preserveAspectRatio="xMidYMid meet">
<metadata>
Created by potrace 1.15, written by Peter Selinger 2001-2017
</metadata>
<g transform="translate(0.000000,96.000000) scale(0.100000,-0.100000)"
fill="#000000" stroke="none">
<path d="M193 785 c-3 -9 -2 -19 2 -23 13 -13 303 -8 317 6 24 24 -14 32 -165
32 -124 0 -149 -2 -154 -15z"/>
<path d="M84 725 c-12 -31 4 -45 51 -45 43 0 45 -1 45 -30 0 -18 -10 -39 -25
-54 -34 -34 -34 -80 0 -102 28 -18 33 -42 10 -51 -9 -3 -22 -18 -30 -34 -17
-31 -7 -75 19 -85 32 -12 28 -42 -9 -80 -46 -46 -75 -93 -68 -110 9 -25 31
-15 54 26 39 70 49 61 49 -45 0 -75 3 -95 14 -95 20 0 26 23 26 106 0 74 7 87
30 59 7 -8 18 -15 25 -15 7 0 15 7 19 15 3 8 13 15 22 15 12 0 10 -6 -10 -31
-25 -29 -34 -59 -18 -59 4 0 22 14 40 31 34 31 34 31 30 3 -2 -22 -10 -30 -36
-36 -73 -19 14 -38 97 -22 39 8 40 30 1 38 -27 5 -30 9 -30 46 0 35 3 40 23
40 13 0 32 7 43 15 18 13 16 14 -23 15 -43 0 -43 0 -43 38 1 37 1 37 16 10 15
-28 34 -37 34 -17 0 6 -5 20 -11 31 -14 25 6 42 32 27 47 -25 38 5 -17 54 -45
42 -45 42 -19 77 22 29 26 42 21 77 -3 23 -1 45 4 48 12 8 13 55 1 55 -5 0
-14 -7 -21 -15 -13 -16 -40 -21 -40 -7 0 4 14 22 31 40 24 27 36 33 62 30 27
-3 32 -7 29 -27 -1 -14 -10 -33 -19 -43 -22 -24 -21 -73 2 -98 18 -19 18 -22
2 -56 -22 -46 -21 -77 3 -99 27 -24 25 -41 -11 -120 -22 -46 -28 -70 -21 -77
7 -7 15 -1 26 21 26 49 36 37 36 -43 0 -41 4 -77 9 -81 18 -10 31 33 31 99 0
36 4 66 9 66 6 0 22 -15 36 -34 29 -38 55 -38 55 -1 0 15 -16 37 -49 64 -62
52 -69 76 -30 96 33 18 52 49 45 73 -4 9 -22 28 -42 40 -37 24 -37 24 -10 42
15 9 34 27 42 38 13 19 13 24 -1 45 -8 13 -26 29 -39 37 -24 12 -40 43 -28 54
3 3 17 6 32 6 35 0 42 8 27 31 -11 18 -28 19 -270 19 -220 0 -258 -2 -263 -15z
m227 -66 c36 -38 37 -52 3 -39 -14 6 -30 10 -35 10 -14 0 -11 -26 5 -39 9 -8
12 -25 9 -55 -5 -37 -1 -47 27 -79 32 -37 32 -37 -14 -90 -25 -30 -46 -57 -46
-61 0 -11 23 -6 40 9 29 26 50 8 50 -41 0 -44 0 -44 -40 -44 -31 0 -47 6 -65
26 -31 34 -31 49 0 86 14 16 25 40 25 53 0 13 -10 29 -25 39 -32 21 -32 36 0
66 31 29 33 74 4 98 -29 24 -42 61 -28 78 20 24 59 16 90 -17z m69 16 c-10
-12 -16 -13 -26 -4 -20 16 -18 19 12 19 22 0 25 -2 14 -15z m179 -89 c15 -18
3 -46 -19 -46 -24 0 -33 15 -25 40 7 23 28 26 44 6z m-339 -22 c11 -12 10 -18
-3 -32 -16 -15 -18 -15 -34 0 -13 14 -14 20 -3 32 7 9 16 16 20 16 4 0 13 -7
20 -16z m190 -20 c0 -8 -4 -14 -10 -14 -5 0 -10 9 -10 21 0 11 5 17 10 14 6
-3 10 -13 10 -21z m-60 1 c0 -8 -4 -15 -9 -15 -5 0 -11 7 -15 15 -3 9 0 15 9
15 8 0 15 -7 15 -15z m40 -60 c-15 -19 -21 -19 -46 0 -18 13 -16 14 20 15 33
0 37 -2 26 -15z m190 -55 c13 -25 -24 -59 -48 -44 -24 15 -27 45 -7 60 20 15
42 9 55 -16z m-356 -33 c16 -25 -26 -66 -48 -47 -20 16 -20 29 1 52 19 21 32
20 47 -5z m186 -27 c10 -18 8 -20 -30 -20 -45 0 -47 2 -24 24 21 22 41 20 54
-4z"/>
<path d="M410 160 c0 -13 48 -36 56 -27 4 3 4 13 1 22 -7 17 -57 21 -57 5z"/>
</g>
</svg>
