<svg version="1.0" xmlns="http://www.w3.org/2000/svg"
 width="41.000000pt" height="107.000000pt" viewBox="0 0 41.000000 107.000000"
 preserveAspectRatio="xMidYMid meet">
<metadata>
Created by potrace 1.15, written by Peter Selinger 2001-2017
</metadata>
<g transform="translate(0.000000,107.000000) scale(0.100000,-0.100000)"
fill="#000000" stroke="none">
<path d="M227 914 c-3 -4 -10 -30 -13 -58 -7 -50 -7 -50 -41 -11 -57 66 -54
19 4 -60 22 -30 43 -115 28 -115 -16 0 -34 36 -35 68 0 25 -4 32 -20 32 -14 0
-20 -7 -20 -23 0 -13 -4 -27 -8 -32 -14 -18 -33 -85 -27 -95 10 -16 35 8 35
31 0 26 9 24 36 -8 14 -16 24 -41 24 -58 0 -26 -5 -33 -36 -44 -30 -11 -38
-11 -45 0 -12 20 -25 1 -33 -48 -5 -35 -3 -43 9 -43 8 0 15 9 15 20 0 14 7 20
21 20 11 0 29 5 39 10 18 10 19 8 13 -22 -3 -18 -10 -37 -14 -42 -12 -13 -11
-46 0 -46 5 0 19 13 30 29 19 27 33 92 47 224 4 46 9 57 22 55 23 -4 18 39 -7
61 -17 15 -18 22 -9 69 10 51 2 102 -15 86z"/>
<path d="M255 360 c-4 -6 -4 -31 -1 -55 4 -26 3 -46 -4 -50 -6 -4 -10 4 -10
19 0 35 -10 56 -26 56 -9 0 -14 -12 -14 -37 0 -63 -12 -111 -27 -118 -12 -4
-14 0 -10 15 3 11 1 20 -4 20 -5 0 -4 12 2 26 7 21 6 33 -7 52 -16 25 -18 25
-24 7 -4 -11 -5 -67 -2 -125 4 -91 7 -107 25 -121 16 -13 25 -14 39 -6 10 7
18 19 18 29 0 9 6 18 13 21 7 2 12 22 12 50 0 39 4 48 27 62 30 17 42 56 36
120 -3 40 -28 60 -43 35z m-61 -235 c-7 -16 -24 -21 -24 -6 0 8 7 13 27 20 1
1 0 -6 -3 -14z"/>
</g>
</svg>
