<svg version="1.0" xmlns="http://www.w3.org/2000/svg"
 width="65.000000pt" height="163.000000pt" viewBox="0 0 65.000000 163.000000"
 preserveAspectRatio="xMidYMid meet">
<metadata>
Created by potrace 1.15, written by Peter Selinger 2001-2017
</metadata>
<g transform="translate(0.000000,163.000000) scale(0.100000,-0.100000)"
fill="#000000" stroke="none">
<path d="M270 1443 c0 -26 67 -148 102 -187 30 -33 22 -52 -29 -70 -198 -72
-253 -100 -235 -118 9 -9 89 2 126 17 18 8 19 5 12 -66 -3 -41 -9 -117 -13
-171 -5 -89 -8 -97 -30 -107 -13 -6 -32 -11 -41 -11 -24 0 -64 -29 -56 -41 6
-11 74 -1 89 12 5 5 22 9 37 9 16 0 48 9 70 20 23 11 43 19 44 17 3 -3 -96
-150 -106 -157 -4 -3 -13 -16 -19 -28 -24 -45 0 -36 53 18 130 136 176 253
176 452 0 54 3 98 6 98 9 0 28 -23 43 -52 8 -15 19 -29 26 -32 16 -6 7 42 -15
74 -9 14 -27 48 -39 75 -21 44 -22 56 -13 95 18 75 22 134 12 150 -16 23 -36
-10 -43 -72 -4 -28 -11 -56 -16 -61 -10 -10 -70 65 -93 114 -6 15 -20 32 -30
38 -16 10 -18 8 -18 -16z m130 -538 c-15 -90 -27 -107 -85 -123 -26 -7 -49
-11 -50 -10 -1 2 2 41 6 88 5 47 11 121 15 165 7 85 16 105 44 105 10 0 31 7
46 15 29 15 29 15 32 -78 2 -50 -2 -123 -8 -162z"/>
<path d="M416 673 c-3 -4 -6 -31 -6 -62 -1 -105 -17 -184 -42 -204 -13 -9 -32
-24 -43 -32 -36 -28 -50 -15 -48 40 3 70 -4 95 -27 95 -17 0 -19 -9 -22 -111
-2 -71 1 -114 8 -120 6 -5 17 -35 24 -66 7 -32 17 -62 22 -67 4 -6 8 -20 8
-33 0 -13 6 -23 13 -23 11 0 22 15 66 95 23 41 61 160 61 190 0 15 14 40 36
62 41 44 89 121 80 130 -3 3 -22 -13 -42 -36 -20 -22 -40 -41 -45 -41 -5 0 -9
40 -9 89 0 67 -3 90 -14 94 -8 3 -17 3 -20 0z m-40 -340 c-24 -88 -50 -163
-56 -163 -12 0 -30 58 -30 95 0 26 7 37 38 58 44 31 55 33 48 10z"/>
</g>
</svg>
