<svg version="1.0" xmlns="http://www.w3.org/2000/svg"
 width="61.000000pt" height="153.000000pt" viewBox="0 0 61.000000 153.000000"
 preserveAspectRatio="xMidYMid meet">
<metadata>
Created by potrace 1.15, written by Peter Selinger 2001-2017
</metadata>
<g transform="translate(0.000000,153.000000) scale(0.100000,-0.100000)"
fill="#000000" stroke="none">
<path d="M251 1278 c4 -29 11 -65 14 -80 9 -34 -11 -38 -41 -10 -31 29 -74 55
-74 45 0 -5 17 -29 37 -52 36 -43 36 -43 18 -77 -10 -20 -26 -34 -37 -34 -12
0 -18 -7 -18 -21 0 -12 -16 -39 -35 -60 -34 -38 -44 -59 -27 -59 5 0 19 11 32
25 29 31 37 26 45 -28 11 -68 59 -204 78 -218 12 -9 -37 -53 -88 -80 -50 -27
-57 -39 -20 -39 28 0 75 19 75 31 0 4 8 10 18 13 9 3 34 22 54 41 20 19 39 35
42 35 10 0 6 -154 -3 -169 -5 -8 -6 -24 -1 -36 8 -22 15 -122 12 -191 -2 -33
-7 -43 -28 -53 -14 -6 -30 -9 -35 -6 -8 6 -59 109 -59 121 0 3 -7 12 -15 20
-13 14 -16 14 -21 -1 -4 -9 -2 -21 5 -28 6 -6 11 -22 11 -36 0 -26 20 -92 31
-101 3 -3 9 -17 12 -31 4 -14 16 -36 27 -49 11 -13 20 -27 20 -31 0 -12 51
-69 61 -69 5 0 9 13 9 29 0 16 7 44 14 63 8 19 12 45 9 56 -8 31 17 64 70 91
36 19 50 34 77 87 44 88 37 112 -15 48 -52 -64 -107 -115 -120 -111 -5 2 -11
23 -13 48 -3 51 -21 129 -34 146 -6 7 -5 20 3 35 7 13 14 67 15 121 2 53 5
101 8 106 3 4 1 35 -4 67 -4 32 -11 90 -15 127 -7 67 -6 68 13 58 49 -26 49 4
0 51 -15 14 -28 36 -28 47 0 12 -5 29 -11 39 -5 9 -20 50 -33 91 -27 90 -45
105 -35 29z m26 -190 c10 -13 15 -38 34 -178 18 -129 18 -134 -4 -157 -28 -31
-35 -29 -47 17 -6 22 -19 60 -30 84 -10 24 -21 67 -24 95 -3 29 -8 56 -11 61
-8 12 12 50 38 73 24 20 31 21 44 5z m53 -893 c0 -41 -11 -45 -34 -10 -19 29
-14 45 15 45 15 0 19 -7 19 -35z"/>
</g>
</svg>
