<svg version="1.0" xmlns="http://www.w3.org/2000/svg"
 width="67.000000pt" height="69.000000pt" viewBox="0 0 67.000000 69.000000"
 preserveAspectRatio="xMidYMid meet">
<metadata>
Created by potrace 1.15, written by Peter Selinger 2001-2017
</metadata>
<g transform="translate(0.000000,69.000000) scale(0.100000,-0.100000)"
fill="#000000" stroke="none">
<path d="M230 521 c0 -11 -4 -23 -10 -26 -5 -3 -10 -17 -10 -30 0 -25 -53
-119 -82 -146 -28 -25 -23 -42 9 -34 15 3 31 12 35 18 18 29 16 -5 -3 -54 -12
-30 -23 -64 -26 -77 -3 -12 -11 -22 -18 -22 -7 0 -18 -7 -25 -16 -11 -12 -11
-18 2 -30 21 -21 148 -25 171 -5 21 16 22 31 3 31 -10 0 -15 24 -21 95 -8 107
-3 125 27 98 20 -18 21 -17 16 7 -3 14 -11 54 -18 90 -15 79 -29 120 -41 120
-5 0 -9 -9 -9 -19z m-26 -368 c-28 -21 -40 1 -19 33 18 28 18 28 27 4 7 -19 5
-27 -8 -37z"/>
<path d="M418 488 c-47 -59 -98 -142 -98 -159 0 -8 14 -43 30 -79 31 -71 30
-79 -22 -134 -21 -23 -23 -35 -5 -40 6 -2 26 -8 44 -13 40 -13 97 10 149 62
37 38 41 67 11 97 -41 40 -46 81 -17 133 11 20 20 47 20 61 0 26 -54 114 -69
114 -5 0 -24 -19 -43 -42z m32 -42 c0 -3 -4 -8 -10 -11 -5 -3 -10 -1 -10 4 0
6 5 11 10 11 6 0 10 -2 10 -4z m-60 -98 c0 -13 -4 -29 -9 -37 -13 -20 -24 4
-17 35 8 30 26 32 26 2z m67 -194 c14 -14 14 -16 -3 -29 -20 -15 -54 -20 -54
-7 0 10 29 52 36 52 3 0 12 -7 21 -16z"/>
</g>
</svg>
