<svg version="1.0" xmlns="http://www.w3.org/2000/svg"
 width="51.000000pt" height="69.000000pt" viewBox="0 0 51.000000 69.000000"
 preserveAspectRatio="xMidYMid meet">
<metadata>
Created by potrace 1.15, written by Peter Selinger 2001-2017
</metadata>
<g transform="translate(0.000000,69.000000) scale(0.100000,-0.100000)"
fill="#000000" stroke="none">
<path d="M239 580 c-26 -55 -38 -70 -55 -70 -23 0 -34 17 -34 56 0 39 -18 28
-22 -13 -2 -32 -8 -40 -36 -52 -37 -17 -37 -33 -1 -41 23 -6 24 -8 20 -85 -4
-88 -11 -111 -41 -120 -23 -7 -26 -21 -7 -28 19 -7 147 15 147 26 0 5 -7 15
-15 21 -15 11 -34 105 -35 169 0 22 4 27 25 27 16 0 25 -6 25 -15 0 -18 18
-52 44 -82 12 -14 17 -31 13 -45 -3 -13 -13 -53 -23 -90 -20 -77 -17 -90 26
-111 37 -19 60 -13 60 15 0 22 17 91 31 123 21 50 39 118 39 146 0 32 -9 58
-63 171 -42 88 -56 88 -98 -2z m76 -47 c-3 -8 -5 -22 -5 -31 -1 -9 -10 0 -21
21 -11 22 -18 46 -14 55 6 15 9 14 26 -7 11 -13 17 -31 14 -38z m-25 -112 c0
-12 -4 -21 -8 -21 -12 0 -53 90 -46 101 8 14 54 -54 54 -80z m83 13 c3 -19 3
-42 0 -51 -5 -13 -9 -11 -24 8 -19 25 -24 55 -13 83 10 25 30 2 37 -40z m-36
-80 c14 -14 14 -22 3 -71 -14 -55 -14 -55 -32 -33 -25 31 -24 53 4 45 18 -6
20 -4 13 11 -12 30 -18 64 -10 64 3 0 13 -7 22 -16z m-187 -59 c0 -8 -4 -15
-10 -15 -5 0 -10 7 -10 15 0 8 5 15 10 15 6 0 10 -7 10 -15z m160 -115 c0 -18
-4 -20 -22 -14 -31 9 -30 8 -18 38 9 24 12 26 25 12 8 -8 15 -24 15 -36z"/>
<path d="M35 400 c-3 -5 -1 -10 4 -10 6 0 11 5 11 10 0 6 -2 10 -4 10 -3 0 -8
-4 -11 -10z"/>
</g>
</svg>
