<svg version="1.0" xmlns="http://www.w3.org/2000/svg"
 width="41.000000pt" height="99.000000pt" viewBox="0 0 41.000000 99.000000"
 preserveAspectRatio="xMidYMid meet">
<metadata>
Created by potrace 1.15, written by Peter Selinger 2001-2017
</metadata>
<g transform="translate(0.000000,99.000000) scale(0.100000,-0.100000)"
fill="#000000" stroke="none">
<path d="M196 783 c4 -10 9 -41 12 -70 3 -47 0 -57 -37 -112 -23 -34 -46 -61
-51 -61 -12 0 -13 -57 -2 -64 9 -5 25 11 70 68 22 29 22 29 22 -35 0 -35 -4
-80 -10 -99 -5 -19 -11 -57 -14 -85 -2 -27 -8 -63 -12 -79 -5 -22 -4 -28 7
-24 38 12 69 156 70 323 1 92 3 107 14 92 41 -56 51 -67 62 -67 20 0 15 24
-12 56 -21 25 -25 39 -25 97 0 74 -14 90 -25 27 -9 -51 -21 -59 -30 -18 -9 37
-26 68 -38 68 -5 0 -6 -8 -1 -17z"/>
<path d="M140 702 c0 -16 -13 -49 -30 -73 -48 -70 -35 -82 25 -22 31 31 36 41
33 76 -4 48 -28 64 -28 19z"/>
<path d="M139 438 c-6 -12 -20 -31 -30 -42 -21 -22 -26 -66 -8 -66 8 0 10 -14
6 -42 -6 -43 -6 -43 14 -19 11 13 22 35 25 50 3 14 9 34 15 43 12 23 12 98 -1
98 -5 0 -15 -10 -21 -22z"/>
<path d="M307 433 c-3 -10 -17 -51 -32 -91 -30 -81 -40 -201 -17 -209 9 -3 12
11 12 54 0 70 11 93 34 73 26 -21 30 -5 16 55 -10 42 -11 61 -2 80 14 31 15
55 3 55 -5 0 -11 -8 -14 -17z"/>
</g>
</svg>
