<svg version="1.0" xmlns="http://www.w3.org/2000/svg"
 width="77.000000pt" height="149.000000pt" viewBox="0 0 77.000000 149.000000"
 preserveAspectRatio="xMidYMid meet">
<metadata>
Created by potrace 1.15, written by Peter Selinger 2001-2017
</metadata>
<g transform="translate(0.000000,149.000000) scale(0.100000,-0.100000)"
fill="#000000" stroke="none">
<path d="M417 1313 c-2 -4 -11 -42 -18 -83 -12 -67 -18 -79 -59 -122 -25 -25
-65 -71 -90 -102 -50 -61 -66 -72 -86 -55 -7 6 -23 8 -35 4 -20 -7 -21 -11
-15 -94 3 -47 8 -129 12 -181 3 -52 8 -102 11 -110 3 -8 7 -37 10 -64 2 -28 9
-58 14 -68 23 -43 30 -1 29 175 0 100 -1 201 0 223 0 37 7 48 71 115 70 73 70
73 100 38 18 -21 29 -45 29 -64 -1 -30 -1 -30 -25 -2 -26 29 -50 35 -58 14 -7
-18 3 -67 14 -67 5 0 9 -9 9 -20 0 -11 5 -20 10 -20 6 0 10 -6 10 -13 0 -7 9
-23 20 -35 18 -19 29 -92 14 -92 -3 0 -22 19 -43 42 -65 72 -85 21 -26 -68 19
-29 35 -55 35 -59 0 -3 8 -14 18 -25 13 -14 17 -33 15 -72 -1 -29 -2 -63 -3
-75 0 -20 -5 -23 -43 -23 -50 0 -67 13 -67 52 0 21 -5 28 -20 28 -15 0 -20 -7
-22 -27 -5 -106 -5 -130 3 -150 5 -13 14 -23 20 -23 15 0 38 31 39 51 0 39
100 25 100 -14 0 -20 -58 -130 -72 -135 -4 -2 -8 -9 -8 -15 0 -7 -9 -18 -20
-25 -21 -13 -27 -32 -11 -32 5 0 30 16 55 35 46 35 46 35 46 -24 0 -101 46
-91 53 12 2 31 7 60 10 63 3 3 19 -6 36 -21 33 -30 82 -58 88 -51 9 9 -22 51
-74 101 -49 46 -54 55 -51 86 4 30 8 34 34 34 25 0 29 -4 32 -32 2 -22 9 -33
19 -33 43 0 61 108 23 132 -11 7 -20 22 -21 33 0 15 -4 11 -15 -13 -12 -28
-19 -33 -42 -30 -27 3 -27 3 -24 198 1 107 5 231 8 276 4 61 2 84 -8 95 -8 8
-26 30 -41 50 -27 36 -27 36 -2 59 25 24 25 24 42 -1 23 -33 94 -103 118 -116
18 -11 20 -25 26 -195 6 -189 21 -325 38 -356 8 -15 11 -13 22 13 15 39 27
223 15 235 -18 18 -24 252 -7 258 16 5 14 37 -4 52 -8 7 -15 22 -15 34 0 39
-36 65 -55 39 -8 -10 -22 -2 -66 39 -56 53 -56 53 -63 128 -6 68 -26 115 -39
93z"/>
</g>
</svg>
