<svg version="1.0" xmlns="http://www.w3.org/2000/svg"
 width="73.000000pt" height="89.000000pt" viewBox="0 0 73.000000 89.000000"
 preserveAspectRatio="xMidYMid meet">
<metadata>
Created by potrace 1.15, written by Peter Selinger 2001-2017
</metadata>
<g transform="translate(0.000000,89.000000) scale(0.100000,-0.100000)"
fill="#000000" stroke="none">
<path d="M390 770 c0 -54 -2 -60 -20 -60 -13 0 -28 13 -41 35 -12 19 -27 35
-35 35 -18 0 -18 -11 2 -60 12 -29 26 -44 55 -57 38 -16 56 -53 26 -53 -7 0
-22 -7 -33 -14 -18 -14 -18 -15 14 -26 39 -15 40 -25 4 -44 -43 -22 -63 -51
-79 -113 -8 -32 -18 -74 -23 -93 -5 -19 -7 -37 -4 -39 13 -13 44 48 64 127 9
38 48 84 62 76 5 -3 2 -17 -6 -30 -9 -13 -16 -39 -16 -59 0 -29 6 -39 30 -54
37 -22 33 -27 -63 -71 -37 -17 -67 -35 -67 -40 0 -12 23 -13 35 -2 6 5 37 17
70 27 33 10 65 22 72 27 7 5 13 5 17 0 7 -12 -21 -36 -64 -52 -59 -23 -123
-61 -162 -99 -67 -63 -41 -72 32 -11 57 48 155 89 172 72 9 -9 7 -17 -7 -32
-37 -41 -11 -140 35 -140 23 0 24 6 5 40 -17 29 -18 40 -6 59 7 10 20 5 61
-23 55 -38 78 -44 98 -24 9 9 0 18 -36 39 -26 15 -54 34 -61 43 -23 27 13 31
64 6 25 -12 49 -20 52 -16 3 3 -10 21 -30 41 -32 32 -40 35 -71 30 -49 -10
-60 0 -39 36 15 24 15 33 5 50 -17 27 -5 42 29 35 16 -3 43 -9 59 -12 40 -8
39 11 -2 32 -33 17 -33 17 -5 27 22 7 26 12 16 23 -6 8 -20 14 -30 14 -25 0
-24 16 1 23 11 3 20 12 20 21 0 13 -13 16 -79 16 -57 0 -82 4 -91 15 -10 12
-7 15 17 21 46 11 93 52 93 80 0 29 -18 28 -34 -2 -29 -51 -56 -46 -56 11 0
44 1 45 33 45 17 0 45 -7 61 -15 35 -19 46 -19 46 -1 0 23 -52 54 -95 58 -53
4 -55 23 -4 40 60 20 61 37 3 35 -45 -2 -48 -1 -56 31 -5 18 -15 32 -23 32
-12 0 -15 -14 -15 -60z m88 -336 c12 -8 22 -21 22 -29 0 -19 -39 -45 -67 -45
-12 0 -27 9 -34 21 -9 17 -7 25 12 45 26 28 37 29 67 8z"/>
<path d="M420 405 c0 -20 4 -26 18 -23 9 2 17 12 17 23 0 11 -8 21 -17 23 -14
3 -18 -3 -18 -23z"/>
<path d="M113 708 c-4 -7 -8 -132 -9 -278 -1 -217 -4 -276 -18 -324 -9 -32
-14 -61 -12 -64 11 -10 34 8 39 30 3 13 12 50 20 83 8 33 18 86 22 118 6 51
10 59 33 68 58 21 58 21 27 32 -46 15 -56 27 -53 61 3 31 12 37 81 51 42 8 32
22 -23 29 -41 6 -51 11 -56 31 -11 44 -2 60 39 63 49 4 52 32 3 32 -37 0 -51
12 -61 53 -8 29 -19 34 -32 15z"/>
</g>
</svg>
