<svg version="1.0" xmlns="http://www.w3.org/2000/svg"
 width="105.000000pt" height="193.000000pt" viewBox="0 0 105.000000 193.000000"
 preserveAspectRatio="xMidYMid meet">
<metadata>
Created by potrace 1.15, written by Peter Selinger 2001-2017
</metadata>
<g transform="translate(0.000000,193.000000) scale(0.100000,-0.100000)"
fill="#000000" stroke="none">
<path d="M100 1815 c-16 -19 -19 -173 -4 -183 5 -4 15 -18 22 -32 15 -28 89
-70 124 -70 33 -1 61 -19 106 -70 22 -25 53 -52 68 -60 38 -19 56 -37 46 -44
-5 -3 -40 -5 -79 -5 -57 0 -75 4 -89 20 -9 10 -23 19 -31 19 -8 0 -35 14 -60
31 -36 25 -47 29 -54 18 -5 -8 -9 -17 -9 -22 0 -18 63 -70 121 -98 59 -29 70
-31 154 -27 90 3 90 3 93 -33 3 -32 -1 -39 -30 -57 -18 -11 -54 -23 -80 -26
-26 -4 -50 -11 -53 -17 -4 -5 -15 -9 -26 -9 -10 0 -28 -5 -39 -10 -11 -5 -29
-14 -40 -20 -11 -5 -26 -10 -33 -10 -17 0 -67 -23 -67 -31 0 -19 144 -17 156
2 3 5 14 9 25 9 10 0 27 4 37 9 39 20 102 33 138 28 64 -9 98 -19 115 -34 12
-10 23 -11 41 -4 27 10 116 3 124 -10 3 -5 15 -9 26 -9 23 0 68 -47 68 -70 0
-9 4 -20 10 -26 5 -5 15 -71 20 -144 6 -74 17 -180 25 -235 8 -55 17 -129 21
-165 3 -36 9 -69 12 -75 7 -11 8 -17 11 -85 2 -56 23 -89 46 -70 17 14 16 28
-14 225 -19 128 -27 211 -37 370 -13 230 -16 245 -51 281 -45 46 -102 68 -218
84 -44 6 -86 17 -94 25 -10 10 -15 37 -16 81 0 56 3 68 19 78 27 15 86 73 86
84 0 5 9 17 20 27 11 10 20 27 20 37 0 29 -28 33 -50 7 -52 -62 -106 -109
-127 -109 -13 0 -23 3 -23 8 0 4 -22 21 -49 37 -27 17 -55 38 -61 49 -13 21 1
38 70 86 66 45 85 79 78 136 -4 40 -24 41 -43 1 -21 -45 -93 -113 -129 -121
-29 -7 -29 -7 -23 36 3 24 8 54 11 68 14 56 9 90 -14 115 -28 30 -40 32 -40 7
0 -10 -3 -22 -7 -26 -11 -11 -32 -115 -32 -163 -1 -24 -6 -43 -12 -43 -51 0
-165 94 -155 128 3 9 6 39 8 66 2 52 -10 68 -32 41z"/>
<path d="M430 1012 c-59 -6 -178 -25 -210 -34 -57 -15 -130 -50 -124 -60 9
-14 126 -9 179 8 50 15 336 29 382 17 12 -2 33 -22 47 -44 21 -30 26 -51 26
-97 0 -84 -17 -98 -182 -151 -190 -62 -281 -102 -332 -146 -16 -14 -33 -25
-38 -25 -4 0 -8 -7 -8 -15 0 -8 -4 -15 -8 -15 -31 0 -45 -207 -19 -281 13 -39
60 -99 76 -99 6 0 11 -3 11 -8 0 -27 183 -43 251 -21 69 22 128 50 128 62 4
51 -12 62 -43 28 -10 -10 -32 -21 -49 -24 -18 -3 -50 -10 -72 -16 -22 -5 -67
-7 -100 -4 -47 5 -65 12 -85 33 -71 74 -89 122 -78 201 9 69 35 128 63 143 11
6 22 13 25 16 18 18 72 50 85 50 8 0 15 4 15 8 0 9 23 17 150 53 138 39 210
70 233 103 12 17 27 37 35 45 15 16 9 125 -11 176 -13 36 -61 84 -91 90 -25 5
-221 11 -256 7z"/>
<path d="M367 864 c-4 -4 -30 -8 -59 -10 -103 -7 -289 -83 -245 -100 10 -3 32
-3 51 0 40 8 51 -4 58 -59 5 -40 5 -40 -48 -64 -30 -13 -54 -27 -54 -31 0 -11
56 -21 77 -14 27 9 52 19 113 47 30 14 68 29 84 33 42 10 106 48 149 88 43 41
51 88 18 106 -21 11 -134 14 -144 4z m73 -74 c0 -31 -35 -55 -122 -84 -44 -14
-82 -25 -83 -24 -7 8 -12 87 -6 95 10 16 80 31 149 32 55 1 62 -1 62 -19z"/>
<path d="M595 513 c-44 -19 -92 -38 -106 -43 -56 -17 -106 -45 -141 -79 -35
-32 -49 -61 -30 -61 4 0 7 -19 7 -43 0 -43 25 -81 68 -104 23 -12 102 5 185
38 12 5 32 13 45 18 84 32 142 68 145 89 4 26 0 27 -38 7 -16 -8 -31 -11 -34
-6 -3 5 -9 40 -12 79 -5 57 -4 76 10 96 36 56 14 58 -99 9z m5 -95 c6 -18 16
-41 21 -50 5 -10 9 -26 9 -36 0 -10 5 -23 12 -30 9 -9 8 -12 -5 -12 -10 0 -25
-4 -35 -9 -9 -5 -50 -18 -91 -29 -88 -24 -103 -19 -128 47 -17 44 -17 44 16
70 35 28 145 79 172 80 10 1 21 -12 29 -31z"/>
</g>
</svg>
