<svg version="1.0" xmlns="http://www.w3.org/2000/svg"
 width="67.000000pt" height="89.000000pt" viewBox="0 0 67.000000 89.000000"
 preserveAspectRatio="xMidYMid meet">
<metadata>
Created by potrace 1.15, written by Peter Selinger 2001-2017
</metadata>
<g transform="translate(0.000000,89.000000) scale(0.100000,-0.100000)"
fill="#000000" stroke="none">
<path d="M333 723 c-7 -3 -13 -20 -13 -39 0 -35 0 -35 -62 -32 -54 3 -64 6
-74 27 -12 23 -31 41 -46 41 -5 0 -8 -15 -8 -34 0 -55 19 -66 116 -66 46 0 84
-4 84 -8 0 -23 -30 -32 -101 -32 -43 0 -84 -3 -93 -6 -47 -18 6 -24 219 -24
213 0 266 6 219 24 -9 3 -61 6 -116 6 -75 0 -99 3 -96 13 3 7 35 15 88 19 45
4 86 11 91 15 4 4 9 21 11 38 4 39 -28 48 -42 11 -8 -21 -16 -26 -44 -26 -18
0 -48 -3 -65 -6 -30 -6 -31 -5 -31 29 0 36 -16 58 -37 50z"/>
<path d="M126 495 c5 -13 37 -15 238 -13 145 2 231 7 231 13 0 6 -88 11 -237
13 -210 2 -237 1 -232 -13z"/>
<path d="M143 443 c-13 -2 -23 -11 -23 -19 0 -11 16 -14 69 -14 109 0 106 -31
-3 -40 -35 -3 -61 -10 -64 -17 -3 -10 16 -13 71 -13 59 0 77 4 90 18 20 22 22
63 5 80 -11 11 -97 14 -145 5z"/>
<path d="M397 427 c-14 -9 -18 -23 -15 -52 3 -40 3 -40 102 -40 71 0 101 4
104 13 3 9 -16 12 -70 12 -49 0 -81 5 -94 14 -30 23 -7 35 76 38 41 2 75 7 75
13 0 16 -157 18 -178 2z"/>
<path d="M127 293 c-19 -18 8 -21 191 -25 156 -2 203 -6 217 -18 15 -12 17
-29 13 -122 -3 -104 -3 -109 17 -106 19 3 20 10 20 116 0 112 0 114 -28 138
-28 24 -31 24 -226 24 -109 0 -201 -3 -204 -7z"/>
<path d="M475 233 c16 -39 17 -53 4 -53 -8 0 -22 14 -31 30 -18 31 -38 40 -38
17 0 -7 7 -22 15 -33 31 -41 3 -48 -43 -9 -32 27 -42 31 -42 16 0 -20 66 -71
91 -71 28 0 39 -16 39 -54 0 -22 17 -46 32 -46 11 0 10 44 -2 76 -9 22 -7 29
10 41 26 18 25 43 -1 77 -23 30 -45 35 -34 9z"/>
<path d="M234 217 c-7 -19 -74 -25 -74 -7 0 6 -7 10 -15 10 -12 0 -15 -14 -15
-68 0 -86 16 -112 69 -112 58 0 74 24 69 105 -4 67 -21 104 -34 72z m-6 -89
c-2 -28 -8 -34 -30 -36 -26 -3 -28 -1 -28 32 0 33 2 36 31 36 28 0 30 -2 27
-32z"/>
<path d="M353 83 c-30 -11 -10 -24 34 -21 58 4 73 28 16 27 -21 0 -44 -3 -50
-6z"/>
</g>
</svg>
