<svg version="1.0" xmlns="http://www.w3.org/2000/svg"
 width="63.000000pt" height="96.000000pt" viewBox="0 0 63.000000 96.000000"
 preserveAspectRatio="xMidYMid meet">
<metadata>
Created by potrace 1.15, written by Peter Selinger 2001-2017
</metadata>
<g transform="translate(0.000000,96.000000) scale(0.100000,-0.100000)"
fill="#000000" stroke="none">
<path d="M310 716 c0 -35 -4 -56 -11 -56 -6 0 -36 14 -66 31 -40 23 -58 28
-66 20 -14 -14 5 -28 83 -61 57 -24 75 -45 47 -56 -7 -2 -46 9 -86 26 -82 33
-101 37 -101 16 0 -15 117 -66 153 -66 12 0 29 -4 37 -10 11 -7 9 -11 -13 -19
-16 -6 -34 -11 -41 -11 -19 0 -104 -39 -112 -51 -11 -19 6 -23 42 -10 34 12
37 11 66 -16 41 -39 57 -81 64 -174 7 -79 7 -79 -44 -79 -28 0 -54 5 -57 10
-3 6 -12 10 -20 10 -19 0 19 -109 47 -132 21 -18 99 -25 133 -12 21 9 79 134
67 146 -5 5 -14 2 -22 -7 -16 -20 -66 -20 -74 1 -3 9 -6 51 -6 95 0 80 -12
121 -48 162 -21 24 -12 30 59 38 75 9 121 -8 149 -54 25 -41 25 -69 0 -85 -16
-10 -26 -9 -55 5 -19 9 -35 21 -35 27 -1 15 -37 62 -44 55 -3 -2 1 -23 9 -44
8 -23 11 -56 8 -77 -12 -78 42 -91 100 -26 38 43 38 43 31 -42 -10 -105 -8
-178 6 -214 13 -35 36 -28 32 10 -6 68 -5 165 3 257 7 84 5 103 -10 137 -23
51 -71 81 -143 89 -56 6 -56 6 42 41 97 34 123 50 112 69 -4 6 -19 3 -39 -9
-33 -20 -90 -42 -139 -54 -23 -5 -28 -3 -28 11 0 12 25 30 81 57 86 42 97 52
81 68 -8 8 -29 0 -73 -26 -34 -20 -67 -38 -73 -39 -6 -1 -13 20 -16 47 -7 72
-30 73 -30 2z m140 -385 c0 -14 -28 -33 -40 -26 -11 7 -14 38 -4 48 8 8 44
-10 44 -22z m-80 -184 c0 -31 -18 -47 -52 -47 -55 0 -105 40 -81 63 3 4 35 7
70 7 59 0 63 -1 63 -23z"/>
<path d="M175 397 c4 -15 -2 -35 -19 -60 -15 -21 -26 -42 -26 -47 0 -5 17 -14
39 -21 30 -9 44 -9 67 2 60 29 34 127 -39 143 -25 6 -27 4 -22 -17z m61 -49
c4 -15 1 -25 -12 -35 -39 -28 -58 -5 -32 37 17 26 35 25 44 -2z"/>
</g>
</svg>
