<svg version="1.0" xmlns="http://www.w3.org/2000/svg"
 width="79.000000pt" height="175.000000pt" viewBox="0 0 79.000000 175.000000"
 preserveAspectRatio="xMidYMid meet">
<metadata>
Created by potrace 1.15, written by Peter Selinger 2001-2017
</metadata>
<g transform="translate(0.000000,175.000000) scale(0.100000,-0.100000)"
fill="#000000" stroke="none">
<path d="M290 1676 c0 -7 6 -26 14 -42 8 -16 16 -53 19 -82 4 -53 4 -53 -20
-47 -14 3 -34 15 -46 25 -11 11 -25 20 -31 20 -5 0 -18 7 -28 17 -10 9 -21 13
-25 9 -13 -13 25 -61 74 -93 70 -48 73 -51 73 -83 0 -27 -3 -30 -30 -30 -16 0
-50 13 -76 30 -26 16 -51 27 -56 24 -12 -7 48 -81 72 -89 11 -4 20 -10 20 -14
0 -5 14 -14 30 -21 18 -7 30 -20 30 -30 0 -18 -53 -70 -71 -70 -21 0 -129
-137 -129 -165 0 -6 -11 -34 -25 -61 -32 -62 -33 -104 -4 -104 15 0 19 5 15
16 -3 8 5 36 18 60 23 43 25 44 36 25 18 -35 27 -24 32 41 4 53 8 64 34 84 26
22 29 22 36 6 4 -9 7 -29 7 -44 1 -31 15 -37 25 -12 3 9 6 34 6 57 1 38 4 44
35 58 32 15 37 14 91 -8 32 -12 63 -23 70 -23 18 0 124 -107 124 -125 0 -8 4
-15 8 -15 19 0 72 -188 72 -257 0 -41 19 -83 38 -83 12 0 13 15 8 88 -7 92
-22 175 -37 204 -5 10 -9 27 -9 39 0 11 -5 30 -11 41 -17 32 -115 126 -154
148 -19 11 -51 29 -70 40 -20 11 -40 20 -46 20 -6 0 -17 7 -25 15 -13 13 -13
18 1 45 9 17 24 34 33 38 42 17 111 65 106 73 -9 15 -52 10 -89 -11 -20 -11
-38 -20 -40 -20 -3 0 -5 16 -5 35 0 25 5 38 17 42 10 4 42 30 73 59 46 44 52
54 37 60 -11 4 -40 -6 -78 -26 -57 -30 -87 -34 -61 -8 7 7 12 31 12 54 0 35
-5 45 -32 66 -43 32 -68 41 -68 24z"/>
<path d="M228 913 c-58 -9 -25 -23 53 -23 85 0 154 -15 178 -38 16 -16 3 -50
-36 -92 -81 -86 -101 -126 -115 -222 -17 -123 24 -139 252 -102 101 17 149 33
171 60 16 19 10 19 -116 -9 -104 -23 -233 -31 -250 -17 -17 14 -21 105 -5 115
6 3 10 15 10 26 0 10 5 19 10 19 6 0 10 9 10 19 0 11 4 21 8 23 22 9 100 121
106 153 8 40 -4 58 -51 76 -29 11 -177 19 -225 12z"/>
<path d="M202 815 c-26 -14 -57 -53 -49 -61 3 -3 14 0 26 8 18 11 24 10 47
-14 25 -24 26 -28 11 -42 -8 -9 -23 -16 -31 -16 -9 0 -16 -7 -16 -15 0 -30 93
-5 116 30 9 14 23 25 30 25 8 0 14 7 14 15 0 8 5 15 10 15 22 0 10 47 -15 58
-33 15 -113 14 -143 -3z m98 -32 c0 -5 -5 -15 -10 -23 -9 -13 -11 -13 -20 0
-15 22 -12 30 10 30 11 0 20 -3 20 -7z"/>
<path d="M492 685 c-40 -37 -62 -64 -62 -79 0 -12 -5 -27 -11 -33 -9 -9 -8
-16 4 -27 19 -20 57 -20 83 -2 18 14 18 15 2 21 -10 4 -25 4 -34 1 -9 -3 -14
-3 -12 1 24 49 32 63 40 63 4 0 8 7 8 15 0 8 5 15 10 15 15 0 32 -49 25 -71
-9 -26 25 -25 53 1 27 25 28 40 4 40 -21 0 -44 42 -36 65 4 8 13 15 21 15 21
0 10 24 -13 28 -12 2 -43 -18 -82 -53z"/>
<path d="M670 385 c0 -8 -4 -15 -10 -15 -5 0 -10 -7 -10 -15 0 -18 -44 -65
-61 -65 -6 0 -27 18 -46 40 -37 42 -68 54 -56 23 4 -10 10 -21 15 -24 5 -3 12
-19 17 -37 9 -28 7 -31 -21 -41 -17 -6 -47 -11 -67 -12 -20 0 -45 -4 -56 -9
-29 -11 -7 -18 90 -27 80 -8 80 -8 83 -76 3 -71 17 -92 47 -67 11 9 15 34 15
96 0 78 2 86 28 111 15 16 33 41 40 56 15 34 16 77 2 77 -5 0 -10 -7 -10 -15z"/>
</g>
</svg>
