<svg version="1.0" xmlns="http://www.w3.org/2000/svg"
 width="67.000000pt" height="91.000000pt" viewBox="0 0 67.000000 91.000000"
 preserveAspectRatio="xMidYMid meet">
<metadata>
Created by potrace 1.15, written by Peter Selinger 2001-2017
</metadata>
<g transform="translate(0.000000,91.000000) scale(0.100000,-0.100000)"
fill="#000000" stroke="none">
<path d="M93 628 c-23 -24 -23 -28 -23 -295 0 -232 2 -272 15 -283 34 -28 39
2 36 190 -1 99 -1 181 1 182 2 1 102 4 223 7 220 6 220 6 223 50 2 30 -2 49
-14 62 -17 19 -28 20 -215 13 -193 -7 -197 -7 -208 14 -8 16 -8 23 1 29 15 9
305 8 384 -2 49 -6 54 -5 54 13 0 27 -21 30 -256 38 -199 6 -199 6 -221 -18z
m405 -134 c4 -29 -28 -34 -192 -33 -145 1 -179 7 -184 31 -5 24 15 26 203 24
165 -1 170 -2 173 -22z"/>
<path d="M188 373 c-6 -8 -8 -17 -4 -21 4 -4 78 -9 164 -12 131 -4 157 -8 157
-20 0 -12 -23 -15 -135 -18 -173 -3 -170 0 -170 -153 0 -88 3 -109 14 -109 28
0 46 30 46 76 0 44 0 44 44 44 24 0 64 3 90 6 46 7 46 7 46 -65 0 -57 3 -73
17 -78 10 -4 23 2 35 17 15 18 17 32 12 71 -7 49 -7 49 45 49 44 0 51 3 51 20
0 28 -28 32 -187 28 -134 -3 -138 -2 -141 18 -3 20 3 21 89 27 51 4 116 7 146
7 49 0 54 2 64 26 11 31 5 55 -19 77 -24 21 -347 30 -364 10z"/>
</g>
</svg>
