<svg version="1.0" xmlns="http://www.w3.org/2000/svg"
 width="67.000000pt" height="84.000000pt" viewBox="0 0 67.000000 84.000000"
 preserveAspectRatio="xMidYMid meet">
<metadata>
Created by potrace 1.15, written by Peter Selinger 2001-2017
</metadata>
<g transform="translate(0.000000,84.000000) scale(0.100000,-0.100000)"
fill="#000000" stroke="none">
<path d="M186 639 c-69 -11 -84 -30 -95 -119 -6 -41 -20 -149 -32 -240 -12
-91 -28 -178 -35 -194 -18 -37 -18 -46 1 -46 29 0 52 64 70 203 6 47 6 47 53
47 74 0 118 16 131 48 6 15 18 78 26 140 8 62 18 118 21 124 4 6 52 9 125 7
117 -3 151 4 135 30 -8 13 -324 13 -400 0z m78 -55 c9 -24 7 -100 -4 -128 -9
-25 -14 -26 -80 -26 -66 0 -70 1 -70 23 0 37 13 46 69 49 73 4 83 28 11 28
-50 0 -51 1 -48 28 3 23 9 28 43 33 66 10 73 10 79 -7z m-14 -192 c0 -21 -58
-60 -97 -66 -43 -6 -43 -6 -43 27 0 19 3 37 7 40 9 10 133 9 133 -1z"/>
<path d="M545 544 c-40 -28 -56 -34 -80 -30 -48 9 -71 -15 -100 -105 -14 -44
-25 -86 -25 -93 0 -23 -81 -176 -112 -211 -28 -33 -33 -65 -9 -65 14 0 71 50
71 63 0 6 12 28 26 49 15 20 44 94 65 163 21 70 43 133 50 141 18 21 77 9 110
-22 27 -26 69 -32 69 -11 0 16 -37 51 -65 61 -17 7 -14 11 25 29 30 15 45 28
45 41 0 31 -17 28 -70 -10z"/>
<path d="M472 363 c-6 -10 -10 -38 -10 -63 -1 -53 -17 -94 -66 -170 -41 -62
-41 -63 -21 -80 30 -25 82 45 115 156 12 38 23 75 26 82 3 11 12 9 39 -8 37
-23 55 -20 55 9 0 20 -19 38 -73 69 -46 27 -54 27 -65 5z"/>
</g>
</svg>
