<svg version="1.0" xmlns="http://www.w3.org/2000/svg"
 width="68.000000pt" height="83.000000pt" viewBox="0 0 68.000000 83.000000"
 preserveAspectRatio="xMidYMid meet">
<metadata>
Created by potrace 1.15, written by Peter Selinger 2001-2017
</metadata>
<g transform="translate(0.000000,83.000000) scale(0.100000,-0.100000)"
fill="#000000" stroke="none">
<path d="M327 643 c-10 -10 -8 -76 3 -93 10 -16 -6 -43 -21 -34 -5 3 -9 1 -9
-4 0 -16 208 -14 240 3 41 21 52 85 15 85 -7 0 -17 -16 -22 -36 -4 -19 -11
-35 -15 -35 -5 1 -22 1 -39 1 -24 0 -30 4 -25 15 6 18 1 19 -25 4 -11 -5 -17
-14 -15 -18 3 -4 -5 -7 -17 -6 -19 1 -22 8 -25 51 -4 59 -24 89 -45 67z"/>
<path d="M214 626 c-3 -9 -3 -32 0 -51 6 -31 9 -34 21 -21 19 19 19 60 0 76
-12 10 -16 9 -21 -4z"/>
<path d="M437 624 c-16 -17 -7 -41 16 -39 14 1 22 8 22 21 0 19 -25 31 -38 18z"/>
<path d="M75 600 c-10 -16 4 -67 22 -82 15 -12 16 -10 9 15 -4 18 -2 34 5 44
10 12 10 16 -2 24 -18 11 -26 11 -34 -1z"/>
<path d="M130 516 c0 -22 16 -28 56 -20 42 8 34 19 -18 28 -30 5 -38 4 -38 -8z"/>
<path d="M260 520 c0 -5 -7 -10 -15 -10 -8 0 -15 -7 -15 -16 0 -9 -10 -24 -22
-34 -19 -15 -21 -21 -10 -32 11 -11 17 -9 33 11 10 13 19 31 19 41 0 10 7 20
15 24 17 6 21 26 5 26 -5 0 -10 -4 -10 -10z"/>
<path d="M533 432 c-10 -20 -24 -36 -31 -34 -6 1 -12 -2 -12 -8 0 -12 -27 -14
-32 -2 -1 4 -20 17 -40 29 -40 23 -56 16 -39 -16 10 -18 39 -31 104 -46 21 -4
27 -10 23 -21 -3 -9 5 -48 20 -88 18 -50 26 -91 26 -138 0 -53 3 -68 14 -68
44 0 30 154 -27 297 -12 30 -11 33 14 53 29 23 36 64 13 73 -10 4 -21 -7 -33
-31z"/>
<path d="M467 453 c-12 -12 -7 -33 8 -33 17 0 19 9 7 28 -5 7 -11 9 -15 5z"/>
<path d="M70 437 c0 -20 39 -67 55 -67 22 0 28 -19 13 -43 -20 -32 -36 -93
-43 -163 -5 -51 -3 -63 10 -68 10 -3 13 -11 8 -18 -12 -20 -14 -46 -3 -53 17
-11 27 37 18 80 -16 67 -17 114 -5 127 7 7 19 33 27 58 7 25 20 53 28 63 13
15 13 17 0 17 -9 0 -18 7 -22 15 -3 8 -13 15 -23 15 -10 0 -23 10 -28 22 -12
26 -35 36 -35 15z"/>
<path d="M231 389 c-18 -7 -22 -12 -13 -21 14 -14 83 1 90 20 4 14 -41 15 -77
1z"/>
<path d="M324 306 c-3 -9 -3 -23 0 -31 4 -11 -3 -19 -20 -25 -30 -12 -75 -3
-73 14 3 27 -2 47 -11 41 -14 -9 -13 -68 2 -83 7 -7 34 -12 60 -12 48 0 48 0
42 -27 -9 -38 -13 -43 -30 -43 -8 0 -14 -7 -14 -15 0 -8 6 -15 14 -15 15 0 39
-57 30 -71 -3 -5 -1 -9 4 -9 13 0 33 26 26 33 -4 3 -4 17 0 31 6 24 11 25 81
28 41 2 75 7 75 13 0 6 -35 12 -77 15 -70 4 -78 7 -81 26 -4 27 15 42 58 46
28 2 36 8 38 27 3 20 1 22 -15 16 -10 -5 -31 -9 -48 -9 -27 -1 -30 2 -30 28 0
32 -21 47 -31 22z"/>
<path d="M420 306 c0 -2 7 -9 15 -16 12 -10 15 -10 15 4 0 9 -7 16 -15 16 -8
0 -15 -2 -15 -4z"/>
<path d="M160 121 c0 -23 11 -33 24 -22 6 5 22 11 35 13 44 6 34 25 -14 26
-36 0 -45 -3 -45 -17z"/>
</g>
</svg>
