<svg version="1.0" xmlns="http://www.w3.org/2000/svg"
 width="68.000000pt" height="85.000000pt" viewBox="0 0 68.000000 85.000000"
 preserveAspectRatio="xMidYMid meet">
<metadata>
Created by potrace 1.15, written by Peter Selinger 2001-2017
</metadata>
<g transform="translate(0.000000,85.000000) scale(0.100000,-0.100000)"
fill="#000000" stroke="none">
<path d="M322 748 c-7 -7 -12 -25 -12 -40 0 -27 -2 -28 -54 -28 -67 0 -86 7
-86 30 0 27 -19 35 -38 16 -15 -15 -15 -19 -2 -44 15 -25 21 -27 95 -32 73 -5
80 -7 83 -27 3 -22 0 -22 -104 -25 -75 -2 -109 -7 -112 -15 -3 -10 19 -13 85
-13 145 0 133 17 133 -190 0 -178 0 -178 -55 -185 -38 -4 -55 -11 -55 -21 0
-10 14 -14 56 -14 52 0 55 -1 52 -23 -2 -18 -10 -22 -43 -25 -100 -6 -120 -32
-25 -32 57 0 60 -1 60 -25 0 -31 23 -33 44 -3 10 14 30 24 58 27 29 4 43 11
43 21 0 11 -11 15 -42 13 -41 -2 -43 -1 -43 27 0 26 3 29 40 32 51 4 53 21 3
28 -38 5 -38 5 -41 183 -2 177 -2 177 35 177 69 0 173 13 173 21 0 16 -73 28
-141 22 -69 -6 -69 -6 -69 19 0 22 5 26 46 32 26 3 62 6 80 6 40 0 64 22 64
61 0 37 -15 37 -50 -1 -25 -26 -35 -30 -84 -30 -49 0 -56 3 -56 19 0 24 -10
51 -19 51 -4 0 -12 -5 -19 -12z"/>
<path d="M171 489 c-25 -5 -49 -13 -54 -18 -5 -5 -11 -67 -13 -138 -2 -70 -6
-165 -8 -210 -3 -76 -2 -83 15 -83 17 0 19 8 19 79 0 108 9 128 60 138 54 10
52 28 -3 28 -41 0 -42 1 -45 38 -3 31 0 37 16 37 28 0 82 20 82 31 0 5 -22 9
-50 9 -47 0 -50 2 -50 25 0 30 30 45 91 45 28 0 39 4 37 13 -6 15 -40 18 -97
6z"/>
<path d="M410 480 c0 -5 19 -10 43 -10 50 0 81 -18 75 -46 -3 -16 -14 -20 -63
-24 -44 -4 -60 -9 -60 -20 0 -11 10 -14 39 -12 61 5 86 -4 86 -33 0 -27 -25
-45 -65 -45 -31 0 -65 -16 -65 -32 0 -7 20 -9 65 -4 65 7 65 7 65 -47 0 -86
11 -147 26 -147 11 0 14 35 14 185 0 238 -3 245 -95 245 -37 0 -65 -4 -65 -10z"/>
</g>
</svg>
