<svg version="1.0" xmlns="http://www.w3.org/2000/svg"
 width="63.000000pt" height="90.000000pt" viewBox="0 0 63.000000 90.000000"
 preserveAspectRatio="xMidYMid meet">
<metadata>
Created by potrace 1.15, written by Peter Selinger 2001-2017
</metadata>
<g transform="translate(0.000000,90.000000) scale(0.100000,-0.100000)"
fill="#000000" stroke="none">
<path d="M307 713 c-4 -3 -7 -14 -7 -23 0 -14 -15 -18 -95 -24 -105 -7 -121
-11 -129 -32 -4 -11 13 -12 104 -7 108 6 110 6 110 -15 0 -20 -6 -22 -49 -22
-52 0 -111 -16 -111 -31 0 -5 38 -9 84 -9 82 0 84 -1 78 -22 -3 -13 -10 -26
-16 -30 -6 -4 -62 -8 -124 -8 -112 0 -113 0 -110 -22 3 -21 8 -23 56 -20 52 3
52 3 52 -143 0 -134 -1 -146 -17 -143 -16 3 -19 19 -23 118 -4 93 -8 115 -20
115 -13 0 -15 -21 -15 -130 0 -130 0 -130 32 -144 26 -12 33 -21 33 -43 0 -17
7 -31 16 -35 19 -7 34 13 34 44 0 15 11 28 31 39 32 16 30 29 -6 36 -19 3 -20
12 -23 141 -3 153 -4 149 66 151 34 1 37 -1 40 -31 3 -28 0 -32 -25 -35 -37
-4 -46 -38 -9 -38 31 0 39 -11 30 -44 -4 -17 -14 -26 -32 -28 -39 -5 -39 -26
0 -30 33 -3 33 -3 30 -106 -2 -94 0 -103 15 -100 16 3 18 17 21 105 3 102 3
102 29 105 38 4 39 24 3 36 -22 8 -30 17 -30 36 0 19 6 25 27 28 35 4 41 26 9
34 -22 5 -26 12 -26 40 0 33 1 34 40 34 40 0 40 0 40 -145 0 -145 0 -145 -25
-155 -31 -12 -32 -22 -2 -35 15 -7 23 -20 25 -42 4 -41 29 -44 38 -5 10 47 13
52 37 61 44 17 50 35 51 154 1 93 -2 112 -14 112 -12 0 -16 -19 -18 -101 -2
-86 -6 -104 -22 -119 -27 -24 -28 -17 -32 147 -3 137 -3 137 31 140 19 2 36 9
39 16 3 9 -20 12 -92 12 -96 0 -96 0 -96 25 0 23 4 25 43 26 53 1 89 11 94 26
3 8 -17 13 -64 15 -60 3 -68 5 -71 24 -3 20 3 22 73 26 84 6 111 19 75 38 -14
8 -42 9 -80 5 -53 -6 -59 -5 -70 14 -11 22 -22 26 -33 14z"/>
</g>
</svg>
