<svg version="1.0" xmlns="http://www.w3.org/2000/svg"
 width="47.000000pt" height="81.000000pt" viewBox="0 0 47.000000 81.000000"
 preserveAspectRatio="xMidYMid meet">
<metadata>
Created by potrace 1.15, written by Peter Selinger 2001-2017
</metadata>
<g transform="translate(0.000000,81.000000) scale(0.100000,-0.100000)"
fill="#000000" stroke="none">
<path d="M172 643 c-30 -6 -23 -27 11 -31 23 -3 27 -8 27 -37 0 -42 -27 -56
-52 -26 -9 12 -19 21 -22 21 -3 0 -6 -49 -6 -108 0 -115 3 -125 53 -155 15
-10 27 -24 27 -33 0 -28 -85 -193 -102 -199 -10 -4 -18 -11 -18 -17 0 -10 55
-8 202 8 49 5 55 9 47 23 -13 23 -49 179 -49 212 0 16 5 29 10 29 6 0 10 6 10
13 0 8 10 22 21 33 12 10 25 29 30 42 12 30 -9 168 -27 183 -21 18 -28 4 -15
-32 22 -65 12 -143 -24 -185 -5 -6 -20 -23 -33 -38 -23 -27 -23 -27 -55 -7
-30 19 -32 24 -35 84 -2 51 0 66 13 71 23 8 30 -19 16 -65 -7 -22 -9 -44 -6
-49 12 -20 36 20 48 80 8 37 20 65 32 74 19 14 19 15 -7 25 -22 8 -28 17 -28
41 0 16 5 30 10 30 6 0 10 5 10 10 0 10 -44 11 -88 3z m98 -411 c0 -9 9 -44
20 -76 11 -33 19 -60 18 -61 -2 -2 -38 -6 -82 -10 -82 -7 -85 -6 -49 36 7 9
27 44 43 78 28 58 50 72 50 33z"/>
</g>
</svg>
