<svg version="1.0" xmlns="http://www.w3.org/2000/svg"
 width="51.000000pt" height="89.000000pt" viewBox="0 0 51.000000 89.000000"
 preserveAspectRatio="xMidYMid meet">
<metadata>
Created by potrace 1.15, written by Peter Selinger 2001-2017
</metadata>
<g transform="translate(0.000000,89.000000) scale(0.100000,-0.100000)"
fill="#000000" stroke="none">
<path d="M213 698 c-32 -15 -29 -24 17 -42 45 -18 53 -43 15 -51 -14 -3 -36
-7 -50 -10 -14 -3 -25 -9 -25 -14 0 -13 49 -31 85 -31 38 0 38 -1 50 -95 4
-27 9 -66 12 -85 3 -27 -1 -41 -19 -62 -28 -33 -38 -34 -68 -8 -22 19 -23 24
-12 54 17 46 16 116 -2 116 -8 0 -17 -15 -20 -34 -4 -19 -13 -48 -22 -65 -17
-35 -11 -67 18 -93 14 -12 19 -30 20 -66 0 -63 -13 -88 -52 -95 -16 -4 -30
-10 -30 -15 0 -20 285 -43 304 -25 4 5 -16 15 -46 23 -53 16 -53 16 -59 65 -4
28 -10 59 -13 70 -5 15 1 28 23 48 21 18 31 36 31 56 0 39 -18 88 -36 95 -11
4 -11 11 -4 31 6 15 10 37 10 50 0 14 9 29 20 35 25 13 26 40 2 40 -10 0 -23
5 -30 12 -16 16 -15 48 1 50 6 0 17 2 22 3 6 2 16 3 23 4 21 2 13 27 -13 39
-32 15 -122 14 -152 0z m77 -545 c0 -26 -4 -33 -20 -33 -23 0 -23 2 -9 54 12
45 29 33 29 -21z"/>
</g>
</svg>
