<svg version="1.0" xmlns="http://www.w3.org/2000/svg"
 width="43.000000pt" height="89.000000pt" viewBox="0 0 43.000000 89.000000"
 preserveAspectRatio="xMidYMid meet">
<metadata>
Created by potrace 1.15, written by Peter Selinger 2001-2017
</metadata>
<g transform="translate(0.000000,89.000000) scale(0.100000,-0.100000)"
fill="#000000" stroke="none">
<path d="M253 738 c-13 -6 -23 -15 -23 -20 0 -4 -6 -8 -12 -8 -7 0 -25 -10
-40 -23 -14 -12 -35 -27 -45 -33 -27 -17 -3 -40 25 -25 30 16 32 15 32 -28 0
-34 -5 -42 -35 -61 -40 -25 -37 -44 6 -35 25 6 29 4 31 -17 0 -13 1 -30 0 -38
-2 -23 20 -124 30 -134 4 -6 8 42 8 106 0 117 0 117 35 144 19 14 35 31 35 36
0 6 -14 8 -35 5 -34 -6 -35 -5 -35 29 0 19 5 34 11 34 11 0 69 60 69 72 0 11
-31 9 -57 -4z"/>
<path d="M76 463 c-3 -10 -5 -48 -5 -85 0 -73 5 -81 64 -118 37 -23 47 -43 18
-38 -26 4 -43 -10 -43 -37 0 -13 -18 -46 -40 -74 -41 -51 -41 -51 -15 -61 15
-6 61 -7 113 -2 87 7 87 7 83 77 -2 39 -4 80 -6 93 -2 16 8 31 30 47 17 14 35
25 40 25 4 0 15 9 25 20 13 15 16 32 13 68 -7 60 -23 79 -23 26 0 -43 -13 -63
-73 -108 -43 -33 -49 -33 -102 4 -44 30 -44 30 -47 102 -3 69 -20 101 -32 61z
m141 -370 c-8 -8 -117 -16 -117 -9 0 11 52 79 80 104 25 22 25 22 33 -34 5
-31 6 -58 4 -61z"/>
</g>
</svg>
