<svg version="1.0" xmlns="http://www.w3.org/2000/svg"
 width="53.000000pt" height="71.000000pt" viewBox="0 0 53.000000 71.000000"
 preserveAspectRatio="xMidYMid meet">
<metadata>
Created by potrace 1.15, written by Peter Selinger 2001-2017
</metadata>
<g transform="translate(0.000000,71.000000) scale(0.100000,-0.100000)"
fill="#000000" stroke="none">
<path d="M285 620 c-11 -5 -37 -9 -57 -9 -20 -1 -40 -6 -44 -13 -10 -16 25
-38 62 -38 71 0 48 -47 -24 -52 -59 -4 -69 -28 -19 -46 18 -7 41 -12 50 -12
13 0 17 -13 19 -72 2 -60 6 -73 21 -76 11 -2 17 3 17 15 0 11 4 23 9 28 6 6
11 32 13 60 3 46 6 51 41 69 44 23 43 37 -4 50 -44 12 -42 11 -30 34 6 11 24
25 41 30 16 6 30 18 30 26 0 13 -11 16 -52 15 -29 0 -62 -4 -73 -9z"/>
<path d="M170 399 c0 -16 -5 -50 -11 -74 -14 -54 -7 -84 26 -123 25 -30 25
-30 5 -65 -27 -46 -18 -63 36 -72 24 -3 50 -13 58 -21 21 -21 33 -17 48 13 9
19 11 42 7 68 -8 43 -4 51 33 69 34 17 57 72 58 139 0 43 -3 57 -14 57 -10 0
-19 -20 -27 -62 -21 -105 -83 -145 -150 -97 -33 23 -36 50 -18 125 13 49 2 74
-32 74 -14 0 -19 -7 -19 -31z m105 -269 c-3 -5 -11 -10 -16 -10 -6 0 -7 5 -4
10 3 6 11 10 16 10 6 0 7 -4 4 -10z"/>
</g>
</svg>
