<svg version="1.0" xmlns="http://www.w3.org/2000/svg"
 width="29.000000pt" height="87.000000pt" viewBox="0 0 29.000000 87.000000"
 preserveAspectRatio="xMidYMid meet">
<metadata>
Created by potrace 1.15, written by Peter Selinger 2001-2017
</metadata>
<g transform="translate(0.000000,87.000000) scale(0.100000,-0.100000)"
fill="#000000" stroke="none">
<path d="M117 584 c-16 -16 -6 -34 19 -34 22 0 25 -4 22 -27 -2 -23 -9 -29
-38 -33 -46 -7 -48 -34 -2 -38 37 -4 38 -11 18 -87 -8 -27 -12 -53 -9 -57 15
-26 43 18 63 100 8 30 19 46 36 54 30 14 30 22 -1 36 -31 14 -33 48 -4 55 12
3 19 12 17 19 -5 14 -108 24 -121 12z"/>
<path d="M70 360 c0 -43 5 -90 11 -104 12 -26 9 -41 -27 -123 -11 -24 -19 -30
-35 -26 -19 5 -20 3 -13 -33 9 -50 10 -51 34 -29 15 14 29 16 60 11 56 -9 150
3 150 20 0 7 -14 14 -32 16 -33 3 -33 3 -33 58 0 44 5 60 23 78 12 12 22 33
22 46 0 13 3 44 6 70 5 37 4 46 -8 46 -10 0 -17 -19 -24 -62 -8 -55 -12 -64
-36 -72 -39 -14 -58 6 -58 60 0 48 -20 124 -32 124 -5 0 -8 -36 -8 -80z m74
-201 c10 -53 8 -59 -24 -59 -35 0 -36 6 -13 55 21 43 29 44 37 4z"/>
</g>
</svg>
