<svg version="1.0" xmlns="http://www.w3.org/2000/svg"
 width="107.000000pt" height="141.000000pt" viewBox="0 0 107.000000 141.000000"
 preserveAspectRatio="xMidYMid meet">
<metadata>
Created by potrace 1.15, written by Peter Selinger 2001-2017
</metadata>
<g transform="translate(0.000000,141.000000) scale(0.100000,-0.100000)"
fill="#000000" stroke="none">
<path d="M655 1241 c-3 -6 -19 -11 -36 -11 -16 0 -37 -4 -47 -9 -53 -27 -104
-35 -200 -34 -87 1 -103 -1 -100 -13 5 -26 85 -62 143 -66 40 -3 40 -3 48 -58
11 -72 3 -141 -17 -156 -9 -6 -41 -15 -71 -19 -30 -3 -57 -11 -60 -16 -4 -5
-14 -9 -24 -9 -10 0 -26 -9 -35 -19 -17 -19 -17 -20 6 -32 24 -13 131 -16 169
-4 20 7 21 4 15 -36 -3 -24 -9 -75 -14 -114 -5 -38 -13 -83 -17 -100 -8 -30
-8 -30 29 10 19 22 38 51 41 65 3 14 10 39 15 56 6 17 10 41 10 55 0 13 5 40
10 60 9 30 18 40 53 54 45 18 97 61 97 81 0 10 86 54 105 54 3 0 5 -18 3 -41
-3 -40 -4 -41 -93 -87 -49 -26 -92 -49 -95 -53 -3 -3 -13 -8 -22 -12 -10 -3
-18 -16 -18 -28 0 -20 3 -21 54 -15 55 7 55 7 40 -55 -8 -35 -25 -77 -38 -94
-21 -27 -41 -45 -141 -130 -30 -25 -30 -25 15 -18 48 7 113 44 143 81 10 12
24 28 30 35 18 19 33 66 52 172 1 6 3 19 3 31 1 11 14 27 30 35 15 8 42 28 61
45 31 28 34 37 39 102 2 39 2 82 -2 96 -7 30 -45 45 -60 24 -13 -18 -42 -33
-78 -42 -26 -6 -28 -4 -28 24 0 24 5 31 28 36 42 11 87 39 87 55 0 10 -12 13
-47 12 -33 -2 -48 1 -49 10 0 6 -4 2 -9 -10 -8 -19 -17 -23 -52 -23 -50 0 -45
6 42 54 36 19 65 41 65 48 0 16 -70 24 -80 9z m-75 -130 c0 -10 7 -24 14 -31
11 -8 15 -31 14 -80 -2 -67 -2 -70 -31 -80 -17 -5 -34 -10 -38 -10 -12 0 -11
163 1 194 11 30 40 35 40 7z"/>
<path d="M832 677 c-14 -94 -44 -159 -95 -209 -67 -65 -106 -80 -209 -79 -140
0 -187 37 -232 183 -16 52 -44 98 -60 98 -3 0 -6 -21 -6 -47 0 -53 -7 -60
-112 -112 -43 -22 -66 -47 -53 -59 12 -12 74 -1 123 23 55 26 75 25 70 -3 -5
-24 61 -102 106 -127 18 -11 18 -14 3 -109 -21 -120 -29 -136 -67 -136 -42 0
-39 -26 5 -40 40 -13 237 -14 263 -2 9 5 45 15 80 22 34 7 62 17 62 21 0 5 7
9 16 9 26 0 134 83 123 94 -3 3 -22 1 -42 -4 -20 -6 -54 -14 -74 -20 -20 -5
-38 -8 -39 -7 -2 1 -5 32 -9 67 -3 36 -8 73 -11 82 -4 13 3 21 23 29 15 5 52
33 80 62 53 51 53 51 90 16 21 -20 55 -44 76 -53 32 -15 43 -15 72 -5 38 14
42 25 22 54 -10 12 -16 14 -21 7 -8 -13 -41 5 -86 45 -14 13 -27 23 -30 23 -3
0 -13 13 -23 29 -16 27 -16 33 -2 73 26 75 15 148 -22 148 -5 0 -14 -33 -21
-73z m-218 -409 c4 -35 10 -75 13 -89 4 -19 0 -28 -14 -34 -29 -12 -145 -35
-175 -35 -33 0 -33 5 -15 125 12 80 12 80 59 77 25 -2 61 1 80 7 18 5 36 10
39 10 4 1 10 -27 13 -61z"/>
</g>
</svg>
