<svg version="1.0" xmlns="http://www.w3.org/2000/svg"
 width="64.000000pt" height="87.000000pt" viewBox="0 0 64.000000 87.000000"
 preserveAspectRatio="xMidYMid meet">
<metadata>
Created by potrace 1.15, written by Peter Selinger 2001-2017
</metadata>
<g transform="translate(0.000000,87.000000) scale(0.100000,-0.100000)"
fill="#000000" stroke="none">
<path d="M155 658 c-3 -13 -6 -54 -7 -93 -3 -62 -5 -70 -23 -70 -18 0 -20 7
-20 67 0 66 -13 97 -34 84 -12 -8 -13 -101 -2 -150 5 -23 14 -32 39 -38 28 -8
32 -13 32 -43 0 -31 -3 -35 -25 -35 -15 0 -29 -9 -36 -22 -15 -28 -26 -308
-12 -308 27 0 33 28 33 146 0 130 4 154 26 154 11 0 14 -30 14 -159 0 -90 4
-162 9 -166 22 -13 31 40 31 179 0 80 4 147 9 150 24 15 36 -33 46 -177 10
-144 11 -150 28 -133 12 13 17 33 17 74 -1 75 -17 252 -24 259 -3 3 -20 8 -38
12 -28 6 -33 11 -33 36 0 27 4 31 35 35 24 3 38 13 47 30 16 32 17 101 1 135
-18 40 -33 24 -30 -32 4 -55 -10 -93 -33 -93 -11 0 -15 20 -17 87 -2 57 -7 88
-15 90 -7 3 -15 -6 -18 -19z"/>
<path d="M372 641 c-56 -10 -74 -27 -40 -40 20 -8 27 -19 32 -56 6 -35 13 -49
32 -57 39 -18 30 -42 -21 -56 -50 -13 -59 -30 -53 -98 4 -54 21 -45 32 16 8
46 11 50 37 50 29 0 29 0 28 -62 -2 -96 -10 -122 -38 -126 -15 -2 -28 3 -33
12 -26 46 -42 -8 -25 -84 16 -71 36 -83 135 -76 40 2 80 10 88 16 10 9 14 35
14 91 0 85 -12 106 -41 71 -9 -12 -24 -22 -33 -22 -13 0 -16 14 -16 91 0 88 1
90 23 87 18 -2 22 -9 23 -44 1 -48 9 -65 29 -57 17 6 20 77 5 117 -8 21 -16
26 -45 26 -28 0 -35 4 -35 20 0 13 9 22 28 26 44 11 52 23 52 80 0 30 5 54 10
54 6 0 10 7 10 15 0 12 -15 15 -77 14 -43 -1 -97 -5 -121 -8z m123 -70 c0 -31
-4 -36 -34 -43 -39 -11 -71 11 -71 48 0 18 7 24 33 27 64 8 72 5 72 -32z m10
-426 c0 -30 0 -30 -70 -30 -70 0 -70 0 -73 33 -3 33 -3 33 70 30 73 -3 73 -3
73 -33z"/>
</g>
</svg>
