<svg version="1.0" xmlns="http://www.w3.org/2000/svg"
 width="70.000000pt" height="88.000000pt" viewBox="0 0 70.000000 88.000000"
 preserveAspectRatio="xMidYMid meet">
<metadata>
Created by potrace 1.15, written by Peter Selinger 2001-2017
</metadata>
<g transform="translate(0.000000,88.000000) scale(0.100000,-0.100000)"
fill="#000000" stroke="none">
<path d="M346 761 c-9 -10 -20 -35 -23 -55 -5 -32 -2 -41 27 -71 29 -30 32
-39 27 -71 -3 -20 -13 -44 -22 -54 -9 -10 -18 -33 -22 -53 -5 -33 -9 -36 -52
-44 -61 -11 -65 -38 -5 -38 57 0 57 -16 1 -42 -61 -30 -62 -47 -1 -40 47 5 88
34 100 69 3 12 15 18 33 18 21 0 31 -7 42 -32 13 -32 17 -33 78 -36 59 -3 94
8 78 24 -3 4 -32 9 -64 13 -42 4 -58 10 -58 21 0 12 16 16 73 18 62 2 72 5 72
21 0 23 -31 32 -87 24 -44 -6 -44 -6 -22 31 12 20 29 41 38 46 18 9 41 71 41
106 0 11 -14 36 -31 57 -30 36 -32 47 -14 90 6 13 2 17 -17 17 -55 0 -63 -47
-18 -106 16 -21 30 -47 30 -57 0 -22 -24 -71 -56 -113 -13 -17 -24 -41 -24
-53 0 -26 -16 -33 -68 -29 -40 3 -40 3 -12 63 40 82 40 134 0 175 -24 25 -28
35 -20 50 6 10 15 22 20 25 6 3 10 15 10 26 0 25 -31 25 -54 0z"/>
<path d="M134 716 c-3 -8 -1 -23 5 -35 18 -32 14 -40 -44 -96 -55 -53 -70 -85
-37 -85 9 1 28 7 42 14 31 18 60 4 60 -29 0 -39 -10 -53 -61 -90 -57 -40 -64
-65 -19 -65 17 0 30 -3 31 -7 0 -5 2 -37 4 -73 3 -82 42 -193 69 -198 32 -7
35 18 8 77 -20 44 -27 76 -30 148 -4 89 -3 94 23 130 36 47 39 113 7 144 -27
24 -27 31 -3 53 34 31 35 65 5 97 -30 32 -52 37 -60 15z"/>
<path d="M465 620 c-11 -17 5 -51 23 -48 23 4 23 52 0 56 -9 2 -19 -2 -23 -8z"/>
<path d="M287 593 c-11 -10 -8 -41 4 -49 16 -9 43 21 36 40 -7 16 -28 21 -40
9z"/>
<path d="M391 310 c-10 -6 -13 -25 -9 -74 5 -57 3 -68 -12 -76 -24 -13 -26
-13 -44 6 -9 9 -16 32 -16 55 0 32 -4 39 -19 39 -39 0 -37 -121 3 -142 11 -6
66 -13 121 -15 92 -3 102 -5 122 -28 38 -43 79 -26 46 19 -23 32 -57 48 -113
55 -32 4 -46 11 -48 23 -4 23 34 38 98 38 27 0 51 4 55 9 10 18 -37 34 -80 28
-44 -7 -65 4 -65 34 0 23 -23 40 -39 29z"/>
</g>
</svg>
