<svg version="1.0" xmlns="http://www.w3.org/2000/svg"
 width="70.000000pt" height="131.000000pt" viewBox="0 0 70.000000 131.000000"
 preserveAspectRatio="xMidYMid meet">
<metadata>
Created by potrace 1.15, written by Peter Selinger 2001-2017
</metadata>
<g transform="translate(0.000000,131.000000) scale(0.100000,-0.100000)"
fill="#000000" stroke="none">
<path d="M110 1085 c0 -14 4 -33 9 -43 35 -67 38 -163 10 -342 -17 -110 -22
-328 -9 -405 12 -69 39 -158 62 -202 12 -24 32 -30 43 -13 7 12 -15 110 -25
110 -3 0 -11 21 -19 48 -7 26 -17 58 -23 72 -26 64 -19 315 15 495 7 39 12 93
11 120 -1 28 -2 62 -3 77 -1 15 -7 33 -13 40 -7 7 -19 25 -27 41 -18 34 -31
35 -31 2z"/>
<path d="M450 1086 c0 -48 -18 -75 -64 -97 -81 -38 -92 -88 -78 -369 12 -234
32 -294 93 -275 14 5 17 2 13 -8 -8 -21 38 -31 53 -11 17 23 7 36 -47 62 -47
22 -48 23 -59 85 -6 34 -11 145 -13 246 -2 184 -2 184 26 207 15 13 38 24 52
24 13 0 32 8 43 19 17 17 19 17 52 0 19 -10 44 -18 57 -19 56 -1 71 -64 72
-323 1 -191 -8 -228 -80 -305 -27 -29 -53 -65 -57 -80 -12 -43 -10 -199 4
-213 23 -23 33 3 33 91 0 100 15 137 80 200 22 21 42 53 49 78 23 82 18 458
-7 522 -22 57 -82 91 -147 85 -38 -3 -38 -3 -35 63 1 36 -1 42 -19 42 -16 0
-21 -6 -21 -24z"/>
<path d="M15 1061 c-3 -6 5 -27 17 -48 18 -32 22 -53 22 -127 0 -61 -4 -91
-12 -94 -7 -2 -12 -10 -12 -18 0 -8 -6 -23 -12 -34 -10 -16 -10 -23 4 -36 15
-15 17 -15 28 6 38 72 54 223 30 296 -17 50 -50 78 -65 55z"/>
<path d="M216 1035 c-4 -14 -1 -46 5 -71 10 -40 8 -184 -3 -234 -2 -8 4 -15
12 -15 21 0 32 55 37 174 3 81 1 110 -12 137 -19 40 -31 43 -39 9z"/>
<path d="M425 893 c-13 -8 -32 -27 -40 -43 -25 -49 -19 -78 25 -122 28 -29 40
-49 40 -69 0 -16 -4 -29 -8 -29 -12 0 -32 -62 -32 -101 0 -40 28 -72 72 -83
37 -9 108 20 108 44 0 10 5 20 11 22 8 3 6 19 -6 53 -18 51 -14 73 17 117 9
12 9 21 2 28 -14 14 -44 2 -44 -17 0 -8 -6 -21 -14 -29 -10 -9 -13 -25 -9 -46
8 -51 4 -101 -10 -110 -32 -21 -60 -21 -78 1 -20 25 -17 38 24 99 25 37 28 48
20 78 -5 24 -18 41 -38 52 -46 26 -55 38 -55 71 0 48 72 78 113 47 24 -18 21
-41 -8 -70 -31 -31 -31 -36 -2 -36 27 1 50 17 66 47 9 18 9 29 -4 53 -30 57
-89 74 -150 43z"/>
<path d="M217 639 c-21 -69 -24 -99 -22 -181 3 -134 60 -295 96 -272 15 9 10
44 -16 100 -34 74 -45 160 -33 258 8 66 7 81 -6 94 -13 13 -16 13 -19 1z"/>
<path d="M36 608 c-10 -50 -24 -206 -22 -248 4 -84 36 -212 61 -246 11 -15 16
-17 26 -6 10 9 11 19 1 45 -7 18 -12 42 -12 53 0 11 -4 24 -9 29 -12 13 -31
150 -26 190 2 17 7 69 11 118 6 77 5 87 -9 87 -9 0 -19 -10 -21 -22z"/>
</g>
</svg>
