<svg version="1.0" xmlns="http://www.w3.org/2000/svg"
 width="70.000000pt" height="88.000000pt" viewBox="0 0 70.000000 88.000000"
 preserveAspectRatio="xMidYMid meet">
<metadata>
Created by potrace 1.15, written by Peter Selinger 2001-2017
</metadata>
<g transform="translate(0.000000,88.000000) scale(0.100000,-0.100000)"
fill="#000000" stroke="none">
<path d="M345 748 c-2 -7 -5 -24 -7 -38 -3 -22 -9 -26 -53 -30 -51 -5 -115
-41 -115 -64 0 -7 -7 -64 -15 -127 -9 -63 -18 -168 -20 -234 -3 -94 -9 -129
-25 -162 -25 -52 -25 -73 -2 -73 26 0 72 52 72 81 0 49 13 98 26 103 11 4 13
-1 8 -19 -5 -19 -2 -25 10 -25 9 0 19 15 26 40 11 40 30 63 30 36 0 -8 -5 -27
-10 -42 -8 -19 -8 -30 0 -38 17 -17 40 21 40 66 0 39 13 51 24 22 3 -9 6 -27
6 -40 0 -44 28 -92 69 -120 22 -14 47 -24 56 -20 23 9 18 44 -7 52 -13 4 -33
13 -45 21 -21 14 -22 17 -8 43 8 16 15 45 15 65 0 50 17 44 33 -12 9 -31 20
-49 32 -52 15 -2 17 1 11 20 -19 60 -19 70 -2 63 9 -3 16 -16 16 -28 0 -24 26
-66 41 -66 13 0 11 34 -3 48 -8 8 -8 12 -1 12 16 0 30 -22 37 -60 7 -41 41
-100 57 -100 12 0 11 13 -10 125 -16 93 -32 220 -40 333 -6 93 -9 105 -34 129
-23 23 -37 28 -97 31 -59 4 -70 7 -70 22 0 29 -11 50 -26 50 -8 0 -17 -6 -19
-12z m86 -133 c25 -22 53 -37 79 -41 40 -7 40 -7 40 -80 0 -43 -4 -74 -10 -74
-5 0 -10 7 -10 15 0 26 -19 16 -26 -12 -11 -45 -18 -50 -24 -18 -3 17 -10 30
-15 30 -5 0 -12 -13 -15 -30 -7 -41 -24 -38 -28 5 -2 30 2 37 27 52 32 18 50
63 33 80 -6 6 -31 13 -56 15 -40 5 -45 9 -48 32 -4 37 -22 32 -26 -6 -3 -29
-7 -33 -31 -33 -15 0 -41 -11 -57 -25 -24 -20 -27 -28 -18 -42 6 -10 25 -22
42 -27 28 -8 41 -28 42 -63 0 -21 -27 -15 -33 7 -8 30 -30 25 -25 -5 7 -36 -9
-31 -17 5 -8 37 -35 40 -35 5 0 -49 -17 -24 -23 33 -9 85 -3 99 63 132 41 21
59 36 64 55 10 39 58 34 107 -10z m96 14 c7 -6 13 -17 13 -25 0 -10 -9 -9 -42
5 -53 22 -65 47 -18 37 18 -3 39 -11 47 -17z m-263 -14 c-6 -15 -42 -31 -50
-22 -8 7 26 37 41 37 9 0 12 -6 9 -15z m189 -92 c8 -7 -11 -33 -24 -33 -5 0
-9 9 -9 20 0 19 20 27 33 13z m-69 -19 c8 -21 8 -203 0 -243 -14 -66 -24 -14
-24 120 0 126 8 166 24 123z m-74 -4 c0 -5 -7 -10 -15 -10 -8 0 -15 5 -15 10
0 6 7 10 15 10 8 0 15 -4 15 -10z m253 -177 c8 -43 -5 -49 -56 -25 -23 11 -51
23 -62 27 -16 6 -10 10 28 20 27 7 53 17 60 24 13 13 21 2 30 -46z m-269 7
c39 -14 32 -27 -26 -45 -29 -9 -59 -19 -65 -21 -9 -4 -13 6 -13 35 0 41 0 41
39 41 22 0 51 -4 65 -10z"/>
</g>
</svg>
