<svg version="1.0" xmlns="http://www.w3.org/2000/svg"
 width="69.000000pt" height="88.000000pt" viewBox="0 0 69.000000 88.000000"
 preserveAspectRatio="xMidYMid meet">
<metadata>
Created by potrace 1.15, written by Peter Selinger 2001-2017
</metadata>
<g transform="translate(0.000000,88.000000) scale(0.100000,-0.100000)"
fill="#000000" stroke="none">
<path d="M84 622 c-29 -19 -34 -55 -34 -264 0 -118 5 -230 11 -251 15 -56 35
-60 243 -53 170 5 215 14 200 37 -3 5 -88 8 -188 7 -142 -2 -187 1 -200 11
-14 12 -16 43 -16 228 0 129 4 222 10 234 9 17 22 19 104 19 66 0 97 4 105 13
6 8 8 17 4 20 -9 9 -225 8 -239 -1z"/>
<path d="M345 620 c-14 -23 11 -30 101 -30 94 0 94 0 94 -25 0 -25 -1 -25 -84
-25 -76 0 -86 -2 -100 -22 -20 -29 -21 -94 -1 -101 8 -4 48 -9 90 -13 65 -6
75 -9 69 -23 -13 -26 -9 -82 9 -146 9 -32 17 -92 17 -132 0 -53 4 -73 13 -73
48 0 48 61 1 291 -5 20 0 29 20 43 31 20 33 46 6 71 -16 15 -30 17 -85 11 -51
-5 -72 -3 -97 10 -30 16 -31 17 -13 30 13 10 48 14 110 14 101 0 115 7 115 56
0 23 -8 39 -26 53 -23 18 -41 21 -130 21 -58 0 -106 -4 -109 -10z"/>
<path d="M270 545 c-8 -21 -16 -25 -49 -25 -31 0 -40 4 -44 21 -11 43 -32 14
-35 -49 -2 -52 0 -64 19 -83 18 -18 29 -21 71 -16 71 9 78 18 78 97 0 52 -4
69 -15 74 -11 4 -19 -3 -25 -19z m0 -74 c0 -32 -72 -45 -84 -15 -11 29 -6 34
39 34 37 0 45 -3 45 -19z"/>
<path d="M457 344 c-4 -4 -7 -18 -7 -31 0 -19 -5 -23 -29 -23 -23 0 -30 5 -33
23 -2 12 -10 22 -18 22 -12 0 -16 -15 -18 -67 -4 -83 15 -108 78 -108 59 0 75
29 64 117 -8 62 -20 83 -37 67z m1 -116 c-2 -18 -10 -23 -33 -23 -23 0 -31 5
-33 23 -3 19 1 22 33 22 32 0 36 -3 33 -22z"/>
<path d="M270 311 c0 -29 -2 -31 -40 -31 -36 0 -40 2 -40 26 0 19 -5 25 -17
22 -15 -3 -19 -16 -21 -72 -4 -86 11 -106 75 -106 74 0 94 37 75 144 -9 49
-32 61 -32 17z m0 -96 c0 -23 -4 -25 -45 -25 -41 0 -45 2 -45 25 0 23 4 25 45
25 41 0 45 -2 45 -25z"/>
</g>
</svg>
