<svg version="1.0" xmlns="http://www.w3.org/2000/svg"
 width="63.000000pt" height="109.000000pt" viewBox="0 0 63.000000 109.000000"
 preserveAspectRatio="xMidYMid meet">
<metadata>
Created by potrace 1.15, written by Peter Selinger 2001-2017
</metadata>
<g transform="translate(0.000000,109.000000) scale(0.100000,-0.100000)"
fill="#000000" stroke="none">
<path d="M250 934 c0 -24 -101 -199 -129 -224 -4 -3 -19 -22 -34 -43 -35 -47
-30 -69 13 -61 30 7 30 7 30 -87 0 -83 -11 -163 -36 -279 -6 -30 -5 -33 7 -23
43 35 89 191 89 299 0 54 0 54 49 54 28 0 52 -4 56 -9 3 -5 1 -68 -4 -139 -10
-127 -4 -332 9 -332 3 0 12 69 19 153 6 83 17 191 23 240 12 87 12 87 60 87
48 0 48 0 48 -230 0 -126 4 -230 8 -230 19 0 31 98 33 275 1 105 1 197 0 206
0 9 -28 58 -61 108 -33 50 -60 96 -60 101 0 6 -4 10 -9 10 -5 0 -16 17 -24 38
-17 41 -63 102 -78 102 -5 0 -9 -7 -9 -16z m77 -163 c13 -24 39 -66 58 -94 19
-28 32 -54 29 -59 -6 -9 -144 -9 -189 1 -27 5 -30 11 -33 47 -3 37 2 47 45 97
26 31 52 55 57 54 4 -2 19 -22 33 -46z"/>
</g>
</svg>
