<svg version="1.0" xmlns="http://www.w3.org/2000/svg"
 width="43.000000pt" height="75.000000pt" viewBox="0 0 43.000000 75.000000"
 preserveAspectRatio="xMidYMid meet">
<metadata>
Created by potrace 1.15, written by Peter Selinger 2001-2017
</metadata>
<g transform="translate(0.000000,75.000000) scale(0.100000,-0.100000)"
fill="#000000" stroke="none">
<path d="M172 624 c-6 -16 -14 -42 -18 -59 -7 -29 -35 -101 -55 -138 -14 -25
-13 -282 1 -307 22 -41 30 -6 30 131 0 151 -1 148 56 133 19 -5 22 -15 28 -82
16 -201 36 -221 36 -36 0 125 0 125 28 122 25 -3 28 -7 34 -62 4 -33 15 -86
23 -118 8 -33 15 -68 15 -79 0 -10 5 -19 10 -19 6 0 10 36 10 87 0 97 -20 253
-32 253 -4 0 -8 6 -8 13 0 8 -9 22 -20 32 -11 10 -20 24 -20 31 0 7 -24 38
-53 69 -54 58 -54 58 -65 29z m58 -100 c0 -8 -9 -14 -20 -14 -19 0 -28 28 -13
43 9 9 33 -12 33 -29z m30 -69 c13 -15 9 -17 -72 -30 -38 -6 -44 -1 -32 29 8
21 87 22 104 1z"/>
</g>
</svg>
