<svg version="1.0" xmlns="http://www.w3.org/2000/svg"
 width="71.000000pt" height="109.000000pt" viewBox="0 0 71.000000 109.000000"
 preserveAspectRatio="xMidYMid meet">
<metadata>
Created by potrace 1.15, written by Peter Selinger 2001-2017
</metadata>
<g transform="translate(0.000000,109.000000) scale(0.100000,-0.100000)"
fill="#000000" stroke="none">
<path d="M345 916 c-9 -18 -24 -42 -33 -52 -10 -11 -32 -39 -49 -64 -17 -25
-40 -54 -52 -64 -11 -11 -21 -23 -21 -28 0 -9 -30 -44 -108 -125 -29 -31 -51
-58 -48 -60 5 -6 64 26 85 45 28 26 36 -5 35 -141 0 -91 -6 -156 -18 -209 -10
-43 -16 -83 -13 -90 7 -22 64 104 73 162 10 66 10 273 0 315 -7 27 -2 36 38
79 25 26 46 52 46 57 0 4 11 19 24 32 13 13 31 38 40 55 24 47 33 47 62 0 15
-24 53 -75 86 -115 58 -71 58 -71 58 -195 1 -69 7 -153 16 -193 8 -38 21 -102
28 -141 15 -77 30 -114 48 -114 12 0 6 140 -12 265 -5 39 -13 108 -16 154 -7
85 -7 85 23 63 40 -29 49 -28 29 3 -9 13 -16 31 -16 38 0 8 -9 22 -20 32 -11
10 -20 22 -20 27 0 8 -45 71 -75 104 -5 6 -21 26 -35 44 -14 18 -30 38 -35 44
-6 6 -22 27 -35 46 -50 71 -62 75 -85 26z"/>
<path d="M290 658 c0 -6 7 -19 16 -29 12 -13 18 -52 24 -151 12 -191 34 -328
51 -328 24 0 28 87 14 312 -6 104 -5 141 4 152 9 11 10 20 1 35 -9 17 -20 21
-60 21 -32 0 -50 -4 -50 -12z"/>
</g>
</svg>
