<svg version="1.0" xmlns="http://www.w3.org/2000/svg"
 width="55.000000pt" height="97.000000pt" viewBox="0 0 55.000000 97.000000"
 preserveAspectRatio="xMidYMid meet">
<metadata>
Created by potrace 1.15, written by Peter Selinger 2001-2017
</metadata>
<g transform="translate(0.000000,97.000000) scale(0.100000,-0.100000)"
fill="#000000" stroke="none">
<path d="M250 814 c0 -8 -13 -32 -29 -52 -36 -45 -131 -200 -131 -213 0 -12 7
-11 30 1 14 8 21 4 35 -16 9 -14 14 -33 10 -42 -29 -72 -46 -202 -26 -202 14
0 27 22 45 81 22 73 40 99 66 92 23 -6 26 -16 35 -108 8 -88 23 -145 37 -145
10 0 6 119 -8 216 -5 35 -3 42 14 46 17 5 21 -3 32 -51 13 -56 34 -138 51
-198 5 -18 13 -48 17 -66 5 -18 15 -44 23 -57 14 -25 14 -25 17 -2 2 12 -1 37
-6 55 -6 17 -16 64 -22 102 -6 39 -19 97 -27 130 -20 78 -20 91 2 145 18 46
18 46 -24 100 -22 30 -41 61 -41 68 0 6 -4 12 -10 12 -5 0 -10 5 -10 10 0 14
-63 110 -72 110 -5 0 -8 -7 -8 -16z m35 -84 c3 -10 29 -54 56 -96 45 -69 49
-80 39 -100 -10 -18 -23 -23 -64 -26 -28 -3 -58 -8 -67 -12 -11 -5 -19 1 -30
21 -8 15 -24 39 -37 51 -16 16 -21 30 -16 44 8 25 94 138 105 138 4 0 10 -9
14 -20z"/>
<path d="M210 600 c0 -15 46 -23 85 -16 56 11 41 26 -25 26 -33 0 -60 -4 -60
-10z"/>
</g>
</svg>
