<svg version="1.0" xmlns="http://www.w3.org/2000/svg"
 width="47.000000pt" height="65.000000pt" viewBox="0 0 47.000000 65.000000"
 preserveAspectRatio="xMidYMid meet">
<metadata>
Created by potrace 1.15, written by Peter Selinger 2001-2017
</metadata>
<g transform="translate(0.000000,65.000000) scale(0.100000,-0.100000)"
fill="#000000" stroke="none">
<path d="M157 483 c-4 -4 -5 -20 -1 -37 3 -17 0 -45 -7 -61 -31 -73 -41 -284
-14 -278 6 1 14 34 19 73 9 64 11 70 33 70 19 0 23 -5 23 -30 0 -23 -4 -30
-20 -30 -17 0 -20 -7 -20 -40 0 -44 11 -52 27 -17 11 22 11 22 21 -5 8 -20 16
-25 31 -21 13 3 21 1 21 -6 0 -22 20 0 21 22 0 19 2 19 11 -5 19 -53 30 -30
25 55 -8 146 -32 213 -88 239 -24 11 -40 28 -47 48 -11 29 -22 37 -35 23z
m111 -163 c3 -35 3 -35 -48 -32 -47 4 -50 6 -50 31 0 14 7 37 16 49 16 23 16
23 47 4 25 -14 33 -26 35 -52z m16 -86 c3 -9 6 -29 6 -45 0 -27 -2 -28 -20
-17 -24 15 -29 78 -6 78 8 0 17 -7 20 -16z"/>
<path d="M190 320 c0 -16 7 -20 30 -20 32 0 42 23 14 34 -29 11 -44 6 -44 -14z"/>
</g>
</svg>
