<svg version="1.0" xmlns="http://www.w3.org/2000/svg"
 width="43.000000pt" height="71.000000pt" viewBox="0 0 43.000000 71.000000"
 preserveAspectRatio="xMidYMid meet">
<metadata>
Created by potrace 1.15, written by Peter Selinger 2001-2017
</metadata>
<g transform="translate(0.000000,71.000000) scale(0.100000,-0.100000)"
fill="#000000" stroke="none">
<path d="M190 509 c0 -6 -22 -32 -50 -58 -50 -47 -50 -47 -50 -192 0 -79 4
-150 9 -157 12 -19 31 110 31 210 0 84 0 84 42 116 23 18 45 32 49 32 14 0 59
-50 59 -66 0 -14 -25 -14 -110 2 -25 4 -25 4 3 -21 21 -19 39 -25 73 -25 30 0
44 -4 42 -12 -3 -7 -28 -11 -76 -9 -73 2 -90 -6 -49 -24 16 -7 23 -20 24 -45
6 -81 26 -200 34 -200 5 0 9 40 9 89 0 102 11 144 38 139 14 -3 18 -16 20 -73
7 -156 41 -73 40 99 0 94 -2 109 -17 113 -10 2 -25 18 -35 34 -9 16 -30 36
-46 44 -35 18 -40 18 -40 4z"/>
</g>
</svg>
