<svg version="1.0" xmlns="http://www.w3.org/2000/svg"
 width="59.000000pt" height="71.000000pt" viewBox="0 0 59.000000 71.000000"
 preserveAspectRatio="xMidYMid meet">
<metadata>
Created by potrace 1.15, written by Peter Selinger 2001-2017
</metadata>
<g transform="translate(0.000000,71.000000) scale(0.100000,-0.100000)"
fill="#000000" stroke="none">
<path d="M277 636 c-3 -8 -3 -24 0 -35 5 -19 1 -21 -44 -21 -75 0 -110 -16
-138 -64 -22 -38 -25 -58 -36 -259 -12 -226 -9 -255 25 -222 13 14 16 41 16
170 0 204 13 294 47 319 46 34 281 35 326 2 15 -12 18 -41 24 -260 5 -198 9
-246 20 -246 29 0 34 51 25 282 -8 229 -8 229 -35 256 -26 25 -33 27 -107 25
-79 -2 -79 -2 -82 30 -3 34 -31 50 -41 23z"/>
<path d="M271 481 c-43 -4 -66 -11 -69 -20 -4 -12 13 -13 103 -7 112 7 129 11
120 27 -6 9 -47 9 -154 0z"/>
<path d="M258 400 c-101 -7 -115 -11 -103 -30 5 -8 26 -10 67 -5 59 7 59 7 56
-26 -3 -29 -8 -34 -38 -42 -20 -4 -41 -17 -48 -27 -18 -29 -28 -215 -12 -225
22 -14 31 19 26 95 -7 88 6 123 45 128 34 4 39 -14 39 -135 0 -94 10 -120 30
-82 8 15 10 52 5 120 -7 99 -7 99 18 99 37 0 44 -16 51 -120 4 -52 9 -96 11
-98 25 -25 34 96 14 188 -11 53 -29 70 -73 70 -22 0 -26 4 -26 30 0 30 0 30
65 30 65 0 75 6 53 28 -13 13 -26 13 -180 2z"/>
</g>
</svg>
