<svg version="1.0" xmlns="http://www.w3.org/2000/svg"
 width="117.000000pt" height="141.000000pt" viewBox="0 0 117.000000 141.000000"
 preserveAspectRatio="xMidYMid meet">
<metadata>
Created by potrace 1.15, written by Peter Selinger 2001-2017
</metadata>
<g transform="translate(0.000000,141.000000) scale(0.100000,-0.100000)"
fill="#000000" stroke="none">
<path d="M495 1284 c7 -54 -8 -92 -42 -105 -16 -6 -37 -15 -48 -19 -11 -5 -45
-20 -74 -34 -30 -14 -63 -26 -73 -26 -10 0 -40 -12 -67 -27 -50 -28 -50 -28
-45 -138 3 -60 7 -115 8 -121 4 -9 -5 -102 -19 -209 -7 -49 -41 -148 -68 -197
-21 -39 -18 -64 9 -75 19 -7 53 31 54 60 0 9 4 17 9 17 5 0 15 25 22 55 7 31
16 58 21 61 4 3 8 19 8 35 0 17 4 38 9 48 5 9 12 71 14 137 2 65 8 127 12 136
3 9 2 25 -4 37 -6 11 -11 29 -11 41 0 29 37 80 57 80 9 0 24 6 32 13 52 42
301 90 328 63 3 -3 15 -6 25 -6 10 0 26 -4 36 -9 9 -5 32 -16 50 -23 17 -7 32
-15 32 -19 0 -3 22 -12 50 -19 87 -24 90 -32 93 -221 4 -202 18 -270 84 -394
6 -11 17 -33 24 -48 18 -39 59 -78 78 -75 24 5 25 41 2 67 -11 13 -23 33 -26
45 -7 22 -27 70 -51 120 -8 16 -14 41 -14 56 0 14 -4 30 -9 36 -5 5 -6 71 -2
154 7 143 -1 230 -20 230 -6 0 -7 5 -4 10 13 21 -54 70 -96 70 -10 0 -21 5
-24 10 -4 6 -10 8 -15 5 -11 -7 -71 15 -92 33 -10 8 -26 12 -37 9 -11 -3 -26
1 -32 9 -7 8 -19 12 -28 10 -32 -10 -83 57 -96 127 -7 33 -10 37 -36 35 -27
-2 -28 -4 -24 -44z"/>
<path d="M410 1028 c-25 -9 -25 -9 5 -34 25 -20 41 -24 101 -24 86 0 134 15
134 41 0 10 -3 20 -7 20 -33 7 -214 4 -233 -3z"/>
<path d="M343 883 c-37 -5 -41 -16 -17 -41 13 -12 34 -15 99 -13 71 2 83 0 89
-16 12 -31 19 -142 18 -310 -1 -111 2 -163 10 -163 7 0 6 -6 -2 -15 -10 -12
-10 -24 -1 -54 6 -21 11 -61 11 -88 0 -27 5 -54 12 -61 8 -8 8 -12 1 -12 -14
0 -24 -26 -17 -45 4 -8 14 -15 24 -15 18 0 19 18 19 381 0 209 2 383 4 386 3
2 45 8 93 11 90 7 114 21 73 42 -22 12 -352 23 -416 13z"/>
<path d="M390 710 c0 -11 -4 -28 -9 -38 -8 -15 -74 -267 -88 -334 -3 -16 -10
-28 -15 -28 -5 0 -8 -12 -6 -27 4 -34 45 -46 54 -16 3 10 10 26 15 35 5 10 9
23 9 30 0 11 37 141 71 246 16 51 15 118 -4 136 -21 21 -27 20 -27 -4z"/>
<path d="M736 701 c-3 -5 -7 -30 -8 -57 -2 -27 -7 -52 -12 -55 -4 -4 -2 -24 5
-45 7 -22 12 -43 10 -49 -3 -12 17 -128 31 -175 25 -84 55 -147 73 -154 20 -7
20 39 0 87 -8 19 -12 37 -9 39 2 3 0 16 -5 29 -4 13 -12 51 -16 84 -3 32 -9
63 -11 67 -3 4 -5 54 -6 110 -1 82 -4 106 -17 115 -19 15 -28 16 -35 4z"/>
</g>
</svg>
