<svg version="1.0" xmlns="http://www.w3.org/2000/svg"
 width="49.000000pt" height="79.000000pt" viewBox="0 0 49.000000 79.000000"
 preserveAspectRatio="xMidYMid meet">
<metadata>
Created by potrace 1.15, written by Peter Selinger 2001-2017
</metadata>
<g transform="translate(0.000000,79.000000) scale(0.100000,-0.100000)"
fill="#000000" stroke="none">
<path d="M195 643 c-22 -31 -59 -76 -83 -100 -42 -45 -42 -45 -32 -131 13
-112 20 -142 30 -142 16 0 21 59 11 133 -10 74 -10 74 64 152 67 71 75 76 89
62 9 -9 24 -18 34 -21 9 -3 22 -18 29 -33 12 -30 15 -42 41 -170 9 -46 20 -83
24 -83 11 0 10 86 -3 198 -13 109 -26 128 -101 153 -22 7 -42 19 -45 26 -8 21
-16 15 -58 -44z"/>
<path d="M193 478 c-13 -6 -23 -14 -23 -17 0 -13 56 -31 97 -31 53 0 59 24 11
38 -18 6 -40 12 -48 15 -8 3 -25 1 -37 -5z"/>
<path d="M207 373 c-42 -4 -47 -6 -36 -19 7 -8 27 -21 46 -29 32 -14 33 -15
33 -76 0 -58 6 -87 33 -162 20 -55 29 -12 18 79 -6 49 -11 106 -11 128 0 38 0
38 34 32 42 -8 54 6 23 26 -27 18 -77 25 -140 21z"/>
</g>
</svg>
