<svg version="1.0" xmlns="http://www.w3.org/2000/svg"
 width="55.000000pt" height="49.000000pt" viewBox="0 0 55.000000 49.000000"
 preserveAspectRatio="xMidYMid meet">
<metadata>
Created by potrace 1.15, written by Peter Selinger 2001-2017
</metadata>
<g transform="translate(0.000000,49.000000) scale(0.100000,-0.100000)"
fill="#000000" stroke="none">
<path d="M339 365 c-3 -2 -1 -31 5 -65 5 -33 8 -61 5 -64 -2 -2 -34 -7 -71
-11 -68 -7 -68 -7 -68 47 0 61 -18 95 -45 85 -12 -5 -15 -13 -10 -25 4 -9 10
-63 13 -119 3 -65 9 -103 16 -104 30 -3 173 3 189 7 14 5 17 18 17 91 0 116
-23 187 -51 158z m11 -198 c0 -22 -4 -23 -70 -24 -60 -1 -70 1 -70 16 0 27 9
31 77 31 59 0 63 -1 63 -23z"/>
</g>
</svg>
