<svg version="1.0" xmlns="http://www.w3.org/2000/svg"
 width="65.000000pt" height="81.000000pt" viewBox="0 0 65.000000 81.000000"
 preserveAspectRatio="xMidYMid meet">
<metadata>
Created by potrace 1.15, written by Peter Selinger 2001-2017
</metadata>
<g transform="translate(0.000000,81.000000) scale(0.100000,-0.100000)"
fill="#000000" stroke="none">
<path d="M207 544 c-29 -9 -47 -20 -44 -27 6 -18 113 -27 201 -17 83 10 96 15
80 29 -35 32 -156 40 -237 15z"/>
<path d="M475 518 c-23 -13 -36 -28 -72 -83 -14 -22 -32 -44 -39 -48 -8 -4
-14 -14 -14 -21 0 -8 -7 -19 -15 -26 -13 -11 -22 -5 -58 36 -70 81 -129 134
-148 134 -24 0 -24 -12 1 -35 11 -10 20 -23 20 -30 0 -6 18 -28 40 -48 22 -20
52 -60 65 -89 22 -47 25 -67 25 -170 0 -109 1 -118 19 -118 22 0 28 17 37 125
8 92 39 164 123 287 62 92 67 115 16 86z"/>
</g>
</svg>
