<svg version="1.0" xmlns="http://www.w3.org/2000/svg"
 width="67.000000pt" height="83.000000pt" viewBox="0 0 67.000000 83.000000"
 preserveAspectRatio="xMidYMid meet">
<metadata>
Created by potrace 1.15, written by Peter Selinger 2001-2017
</metadata>
<g transform="translate(0.000000,83.000000) scale(0.100000,-0.100000)"
fill="#000000" stroke="none">
<path d="M297 633 c-3 -5 0 -28 6 -52 11 -40 10 -45 -7 -55 -68 -39 -87 -81
-26 -56 17 7 33 11 35 8 3 -3 -6 -26 -21 -52 -26 -46 -26 -46 -65 1 -46 56
-48 66 -14 81 20 9 25 19 25 46 0 45 -9 66 -27 66 -10 0 -14 -9 -11 -32 2 -19
-2 -33 -9 -35 -7 -3 -13 0 -13 6 0 12 -40 51 -52 51 -13 0 -9 -34 7 -57 18
-25 9 -34 -48 -53 -66 -21 -34 -44 36 -25 43 12 35 -21 -18 -71 -49 -45 -54
-54 -28 -54 10 0 38 21 64 46 47 46 47 46 63 17 10 -21 25 -32 48 -37 29 -6
36 -3 61 26 15 18 27 36 27 40 0 21 19 3 36 -34 20 -46 54 -64 54 -30 0 11 -7
25 -16 33 -18 15 -44 63 -44 82 0 8 11 19 25 25 28 13 34 52 13 97 -16 36 -33
26 -33 -20 0 -22 -5 -40 -12 -42 -9 -3 -13 6 -13 25 0 29 -33 71 -43 55z"/>
<path d="M440 615 c0 -3 12 -22 26 -40 30 -40 28 -67 -6 -75 -39 -9 -32 -35
10 -35 32 0 35 -2 32 -25 -2 -14 -14 -46 -27 -72 -22 -44 -23 -58 -3 -58 4 0
20 19 34 42 25 38 28 41 38 24 27 -46 44 -61 56 -50 9 9 3 25 -24 65 -41 61
-45 88 -16 114 35 31 22 105 -18 105 -10 0 -12 -7 -8 -20 3 -11 9 -29 12 -40
12 -38 -20 -20 -42 23 -13 27 -28 43 -42 45 -12 2 -22 1 -22 -3z"/>
<path d="M147 354 c-4 -4 -7 -65 -7 -136 0 -107 -2 -128 -15 -128 -8 0 -15 2
-15 4 0 2 -5 27 -10 56 -7 39 -7 57 2 67 14 18 -4 38 -26 30 -12 -5 -16 -21
-16 -64 0 -79 16 -130 41 -138 25 -8 118 2 138 14 21 13 4 31 -30 31 -28 0
-29 2 -29 45 0 39 4 47 25 57 28 13 45 71 28 97 -15 23 -28 20 -31 -9 -7 -56
-17 -51 -22 9 -5 60 -16 82 -33 65z"/>
<path d="M330 219 c0 -119 -2 -130 -17 -127 -16 3 -18 15 -17 91 1 78 -1 87
-18 87 -16 0 -18 -9 -18 -96 0 -129 4 -134 90 -134 40 0 72 5 76 11 8 14 -14
29 -43 29 -21 0 -23 5 -23 48 0 42 3 49 30 64 25 14 30 23 30 56 0 25 -5 42
-14 45 -19 8 -26 -1 -26 -35 0 -15 -4 -28 -10 -28 -6 0 -10 27 -10 60 0 47 -3
60 -15 60 -13 0 -15 -21 -15 -131z"/>
<path d="M509 313 c-1 -5 0 -46 0 -93 2 -97 -11 -133 -29 -85 -6 17 -9 44 -7
62 4 22 1 33 -9 37 -21 8 -27 -15 -22 -89 5 -82 24 -105 85 -105 77 0 112 34
48 46 -30 5 -35 10 -35 35 0 21 6 32 23 38 40 16 60 46 50 78 -13 37 -25 35
-35 -4 -5 -19 -15 -33 -23 -33 -12 0 -15 14 -15 60 0 47 -3 60 -15 60 -8 0
-15 -3 -16 -7z"/>
</g>
</svg>
