<svg version="1.0" xmlns="http://www.w3.org/2000/svg"
 width="105.000000pt" height="167.000000pt" viewBox="0 0 105.000000 167.000000"
 preserveAspectRatio="xMidYMid meet">
<metadata>
Created by potrace 1.15, written by Peter Selinger 2001-2017
</metadata>
<g transform="translate(0.000000,167.000000) scale(0.100000,-0.100000)"
fill="#000000" stroke="none">
<path d="M535 1580 c-4 -6 -8 -74 -11 -151 -2 -78 -7 -145 -10 -150 -3 -5 -15
-9 -27 -9 -32 0 -105 -27 -165 -62 -91 -52 -132 -141 -132 -289 0 -66 4 -90
16 -99 25 -22 40 7 53 107 13 93 40 167 70 191 44 35 139 67 170 57 16 -5 17
-17 13 -108 -5 -112 -26 -185 -68 -227 -13 -14 -45 -52 -71 -85 -26 -33 -60
-71 -75 -84 -24 -21 -40 -71 -22 -71 7 0 66 32 74 40 10 10 50 30 60 30 6 0
32 19 56 43 25 23 52 45 59 50 10 5 38 -16 88 -65 124 -121 191 -167 245 -168
24 0 13 49 -15 67 -75 47 -172 138 -173 161 0 6 -4 12 -10 12 -5 0 -10 6 -10
14 0 8 -10 22 -22 30 -20 14 -21 20 -13 93 9 86 11 121 13 234 2 77 2 77 70
94 37 10 85 27 107 39 53 27 113 90 121 124 3 15 10 37 15 50 12 30 12 102 0
102 -5 0 -16 3 -24 6 -15 5 -17 2 -63 -104 -8 -18 -25 -37 -38 -43 -13 -6 -26
-20 -29 -30 -6 -21 -100 -69 -137 -69 -26 0 -27 1 -22 53 5 69 -12 161 -38
198 -22 30 -44 37 -55 19z"/>
<path d="M630 1544 c0 -8 5 -12 10 -9 6 4 8 11 5 16 -9 14 -15 11 -15 -7z"/>
<path d="M830 655 c0 -8 5 -15 10 -15 6 0 10 7 10 15 0 8 -4 15 -10 15 -5 0
-10 -7 -10 -15z"/>
<path d="M455 581 c-3 -6 -1 -29 5 -53 14 -62 13 -118 -3 -118 -7 0 -28 13
-47 30 -62 52 -91 32 -50 -36 21 -33 89 -79 148 -100 24 -9 40 -9 62 -1 32 12
40 41 15 51 -35 13 -4 75 45 91 19 6 31 47 20 66 -6 8 -21 10 -50 5 -38 -6
-44 -4 -71 25 -16 17 -29 35 -29 40 0 12 -37 12 -45 0z"/>
<path d="M690 540 c0 -5 5 -10 10 -10 6 0 10 5 10 10 0 6 -4 10 -10 10 -5 0
-10 -4 -10 -10z"/>
<path d="M214 393 c-3 -10 -10 -27 -15 -38 -5 -11 -8 -59 -6 -106 3 -96 8 -92
-66 -54 -20 10 -37 22 -37 27 0 11 -28 10 -35 -2 -18 -29 128 -150 181 -150
13 0 25 -4 28 -9 6 -9 48 -18 127 -27 38 -5 47 -3 53 11 8 21 -16 41 -59 51
-38 9 -95 36 -95 45 0 10 59 69 69 69 4 0 13 12 20 26 20 46 -8 59 -50 23 -22
-19 -24 -19 -36 -3 -7 10 -15 34 -19 53 -7 46 -32 101 -45 101 -5 0 -12 -8
-15 -17z"/>
<path d="M820 365 c-10 -19 -11 -40 -4 -90 6 -36 8 -67 6 -70 -6 -6 -62 24
-80 42 -21 20 -37 10 -35 -22 1 -19 16 -41 45 -67 23 -21 46 -38 51 -38 4 0
33 -11 64 -26 38 -17 69 -24 97 -22 56 4 60 30 9 51 -62 26 -64 28 -52 71 6
22 24 53 40 70 16 17 29 37 29 44 0 23 -29 24 -61 2 -35 -26 -42 -21 -59 43
-12 43 -31 48 -50 12z"/>
</g>
</svg>
