<svg version="1.0" xmlns="http://www.w3.org/2000/svg"
 width="67.000000pt" height="135.000000pt" viewBox="0 0 67.000000 135.000000"
 preserveAspectRatio="xMidYMid meet">
<metadata>
Created by potrace 1.15, written by Peter Selinger 2001-2017
</metadata>
<g transform="translate(0.000000,135.000000) scale(0.100000,-0.100000)"
fill="#000000" stroke="none">
<path d="M394 1186 c-3 -8 -7 -52 -8 -97 -2 -46 -4 -99 -5 -117 -1 -25 -14
-46 -53 -89 -65 -68 -63 -65 -118 -133 -25 -30 -47 -57 -51 -60 -7 -6 -29 -46
-29 -54 0 -13 24 -4 52 19 16 14 33 23 37 21 4 -3 14 -23 21 -46 17 -51 34
-67 53 -48 14 14 21 48 34 153 3 27 11 59 19 70 14 19 14 19 14 -5 -2 -97 -46
-446 -59 -465 -4 -5 -13 -30 -21 -55 -7 -25 -17 -49 -22 -55 -4 -5 -8 -18 -8
-28 0 -10 -8 -31 -18 -45 -35 -51 -35 -80 0 -67 18 7 73 105 113 202 15 36 20
40 31 28 8 -7 14 -19 14 -25 0 -24 101 -220 114 -220 33 0 25 33 -42 180 -17
36 -41 103 -55 150 -22 77 -24 93 -15 165 5 44 11 112 14 150 5 84 12 118 23
111 4 -3 6 -62 3 -131 -4 -108 -2 -125 11 -125 15 0 87 76 87 92 0 17 29 7 59
-23 36 -33 51 -32 34 4 -6 12 -16 37 -23 55 -7 17 -15 32 -19 32 -4 0 -14 13
-24 29 -9 16 -33 49 -52 73 -19 23 -39 48 -44 54 -27 33 -30 57 -24 161 4 75
2 116 -6 131 -13 25 -29 29 -37 8z m-104 -457 c0 -11 -4 -17 -10 -14 -5 3 -10
13 -10 21 0 8 5 14 10 14 6 0 10 -9 10 -21z m212 -21 c-9 -9 -12 -7 -12 12 0
19 3 21 12 12 9 -9 9 -15 0 -24z"/>
</g>
</svg>
