<svg version="1.0" xmlns="http://www.w3.org/2000/svg"
 width="79.000000pt" height="131.000000pt" viewBox="0 0 79.000000 131.000000"
 preserveAspectRatio="xMidYMid meet">
<metadata>
Created by potrace 1.15, written by Peter Selinger 2001-2017
</metadata>
<g transform="translate(0.000000,131.000000) scale(0.100000,-0.100000)"
fill="#000000" stroke="none">
<path d="M602 1103 c-11 -16 -32 -54 -47 -86 -15 -31 -30 -57 -34 -57 -3 0
-24 31 -45 70 -38 67 -61 89 -77 73 -10 -10 1 -63 12 -63 5 0 9 -11 9 -25 0
-20 -7 -26 -37 -35 -21 -5 -45 -14 -53 -20 -13 -9 -13 -11 0 -20 8 -5 21 -8
28 -5 8 3 24 5 37 5 13 0 31 7 40 16 15 15 17 15 30 -2 26 -34 14 -65 -48
-127 -24 -24 -17 -40 20 -48 43 -8 52 -16 46 -39 -4 -15 0 -20 15 -20 13 0 24
-10 31 -30 5 -16 7 -31 3 -31 -26 -5 -62 -4 -62 2 0 4 7 12 15 19 21 18 19 25
-10 28 -24 2 -63 -38 -79 -81 -7 -21 -20 -111 -20 -142 0 -72 5 -95 20 -95 9
0 18 9 21 19 6 22 41 31 122 31 34 0 65 6 77 14 13 10 23 11 31 5 6 -6 31 -9
55 -7 35 2 43 7 43 23 0 18 -8 20 -78 23 -68 2 -78 5 -75 20 2 13 17 18 63 22
47 4 61 9 63 23 3 15 -5 17 -67 17 -63 0 -71 2 -71 19 0 20 43 43 75 40 48 -5
65 1 65 22 0 18 -5 20 -37 18 -21 -1 -46 -6 -55 -11 -29 -14 -48 1 -48 38 0
37 5 39 44 24 19 -7 26 -6 26 3 1 6 8 0 16 -15 8 -16 17 -28 20 -28 15 0 44
22 44 33 0 13 -53 37 -81 37 -8 0 -24 6 -34 14 -16 12 -17 16 -6 30 7 9 24 16
38 16 13 0 33 9 44 19 20 19 20 19 -2 40 -13 12 -33 21 -46 21 -13 0 -23 5
-23 10 0 6 -8 10 -19 10 -31 0 -44 24 -23 43 14 13 25 14 57 7 60 -14 95 -12
102 6 8 23 -14 34 -69 34 -53 0 -55 4 -31 55 15 32 15 37 1 51 -14 14 -17 13
-36 -13z m-14 -223 c17 -11 32 -24 32 -29 0 -18 -25 -17 -52 2 -32 24 -48 16
-48 -24 0 -31 -25 -40 -48 -17 -8 8 -1 20 31 49 23 21 44 38 47 39 3 0 20 -9
38 -20z m-64 -275 c11 -29 -5 -45 -45 -45 -35 0 -39 3 -39 24 0 24 4 26 66 35
7 0 14 -6 18 -14z m1 -101 c0 -16 -9 -19 -53 -22 -47 -3 -53 -1 -50 15 2 12
16 20 43 24 53 8 60 6 60 -17z"/>
<path d="M155 1060 c-10 -16 -11 -163 -1 -178 14 -22 -2 -56 -47 -103 -50 -52
-70 -94 -70 -148 0 -41 27 -91 49 -91 8 0 14 -4 14 -10 0 -17 36 -11 62 10 14
10 28 17 31 13 7 -6 -31 -65 -45 -71 -4 -2 -8 -10 -8 -18 0 -8 -4 -14 -9 -14
-5 0 -12 -11 -15 -24 -3 -14 -13 -31 -21 -40 -11 -11 -13 -21 -6 -33 5 -10 14
-30 21 -45 8 -16 31 -36 58 -48 41 -20 47 -20 77 -6 29 14 33 22 39 67 9 63
32 133 46 137 13 5 13 39 0 47 -25 15 -62 -43 -82 -130 -11 -49 -15 -54 -44
-59 -69 -13 -85 17 -48 88 15 28 30 53 33 56 4 3 17 19 29 37 27 38 31 117 6
127 -24 9 -41 7 -56 -7 -7 -8 -24 -19 -36 -26 -47 -25 -69 32 -37 96 15 30
105 113 123 113 49 0 129 -90 120 -136 -5 -30 -50 -25 -66 9 -7 15 -17 27 -23
27 -14 0 -11 -44 5 -75 53 -101 148 -15 116 104 -12 45 -80 111 -114 111 -12
0 -26 4 -32 8 -14 10 -35 96 -38 161 -2 52 -16 75 -31 51z"/>
<path d="M490 388 c-19 -5 -52 -14 -73 -19 -59 -16 -41 -35 29 -31 32 2 64 8
70 13 15 12 69 14 112 5 29 -7 32 -11 32 -43 0 -30 -2 -34 -15 -23 -15 12
-196 17 -215 5 -6 -4 -31 -8 -57 -11 -55 -5 -70 -16 -50 -36 15 -15 20 -14
169 8 26 3 64 3 85 -1 34 -6 36 -8 20 -20 -9 -7 -45 -18 -80 -24 -34 -6 -81
-16 -105 -21 -23 -6 -53 -10 -67 -10 -28 0 -32 -12 -10 -30 13 -11 36 -11 118
-1 56 7 124 19 151 27 27 7 50 13 50 11 1 -1 11 -22 24 -45 12 -24 22 -52 22
-61 0 -32 22 -81 36 -81 7 0 18 10 25 21 13 25 3 69 -38 162 -22 48 -24 62
-14 83 23 51 3 108 -43 124 -35 12 -128 11 -176 -2z"/>
</g>
</svg>
