<svg version="1.0" xmlns="http://www.w3.org/2000/svg"
 width="68.000000pt" height="83.000000pt" viewBox="0 0 68.000000 83.000000"
 preserveAspectRatio="xMidYMid meet">
<metadata>
Created by potrace 1.15, written by Peter Selinger 2001-2017
</metadata>
<g transform="translate(0.000000,83.000000) scale(0.100000,-0.100000)"
fill="#000000" stroke="none">
<path d="M165 600 c-4 -12 -15 -20 -29 -20 -29 0 -54 -28 -60 -66 -3 -16 -8
-120 -11 -232 -4 -174 -3 -202 10 -202 32 0 40 42 45 240 5 187 6 195 25 195
19 0 20 -8 23 -220 1 -121 6 -223 11 -228 4 -4 16 -1 25 8 14 14 16 46 16 236
0 120 4 219 8 219 28 0 32 -30 32 -238 0 -198 1 -213 18 -210 15 3 17 23 20
230 2 217 1 229 -18 248 -11 11 -29 20 -40 20 -11 0 -20 6 -20 14 0 13 -20 26
-40 26 -5 0 -12 -9 -15 -20z"/>
<path d="M415 603 c-32 -2 -65 -9 -72 -15 -16 -13 -19 -449 -3 -478 19 -36
175 -36 175 1 0 10 -18 15 -70 19 -70 5 -70 5 -73 123 -3 117 -3 117 112 117
113 0 142 8 118 32 -6 6 -57 11 -119 12 -108 1 -108 1 -108 26 0 25 0 25 113
28 101 2 113 5 110 20 -3 15 -19 17 -116 20 -110 3 -113 3 -110 25 3 25 -1 24
131 32 69 5 97 11 97 20 0 25 -25 27 -185 18z"/>
<path d="M437 313 c-10 -10 -8 -121 2 -127 14 -9 29 16 33 54 2 30 7 35 30 38
25 3 27 0 33 -42 4 -24 4 -79 0 -120 -5 -64 -4 -77 10 -82 35 -14 45 14 45
123 0 99 -9 138 -34 155 -14 10 -110 10 -119 1z"/>
</g>
</svg>
