<svg version="1.0" xmlns="http://www.w3.org/2000/svg"
 width="67.000000pt" height="89.000000pt" viewBox="0 0 67.000000 89.000000"
 preserveAspectRatio="xMidYMid meet">
<metadata>
Created by potrace 1.15, written by Peter Selinger 2001-2017
</metadata>
<g transform="translate(0.000000,89.000000) scale(0.100000,-0.100000)"
fill="#000000" stroke="none">
<path d="M315 727 c-4 -13 -5 -46 -3 -73 3 -49 3 -49 -46 -48 -44 0 -52 4 -78
37 -17 20 -34 37 -39 37 -15 0 -10 -31 11 -65 16 -26 31 -36 71 -45 27 -7 59
-10 70 -7 18 5 20 1 17 -31 -3 -37 -3 -37 -60 -43 -32 -4 -68 -13 -81 -22 -31
-20 -57 -99 -57 -171 0 -30 -5 -101 -11 -157 -9 -82 -9 -103 2 -110 25 -15 37
12 43 99 11 143 13 149 57 171 34 18 99 59 136 86 9 7 26 3 56 -12 141 -72
183 -85 193 -58 9 22 -12 43 -49 50 -78 15 -177 64 -177 87 0 4 32 8 71 8 65
0 73 2 100 29 33 33 35 50 14 91 -22 43 -69 49 -172 23 -20 -4 -23 -1 -23 25
0 29 3 31 48 37 65 9 72 12 72 31 0 14 -8 15 -58 9 -56 -6 -59 -5 -70 19 -14
32 -30 33 -37 3z m203 -183 c4 -30 -16 -41 -83 -45 -60 -4 -60 -4 -63 34 -3
38 -3 38 70 35 65 -3 73 -5 76 -24z m-198 -108 c0 -24 -12 -34 -112 -94 -38
-23 -38 -23 -38 8 0 67 44 106 123 109 22 1 27 -3 27 -23z"/>
<path d="M340 291 c-102 -10 -110 -23 -57 -99 17 -25 43 -69 57 -96 31 -63 59
-69 73 -16 4 19 24 68 44 109 51 107 39 117 -117 102z m65 -97 c-22 -64 -35
-88 -35 -67 0 6 -16 34 -35 62 -19 28 -35 53 -35 55 0 8 33 14 82 15 46 1 46
1 23 -65z"/>
</g>
</svg>
