<svg version="1.0" xmlns="http://www.w3.org/2000/svg"
 width="74.000000pt" height="126.000000pt" viewBox="0 0 74.000000 126.000000"
 preserveAspectRatio="xMidYMid meet">
<metadata>
Created by potrace 1.15, written by Peter Selinger 2001-2017
</metadata>
<g transform="translate(0.000000,126.000000) scale(0.100000,-0.100000)"
fill="#000000" stroke="none">
<path d="M124 1122 c-13 -7 -34 -128 -25 -137 3 -3 7 -18 9 -32 2 -14 16 -45
33 -69 16 -23 29 -47 29 -52 0 -12 -61 -62 -75 -62 -18 0 -59 -51 -72 -91 -21
-57 -16 -78 27 -121 37 -37 44 -40 80 -35 30 4 40 2 40 -9 0 -12 -64 -91 -91
-114 -11 -9 -26 -45 -32 -78 -8 -40 7 -76 39 -93 13 -7 24 -16 24 -21 0 -10
71 -10 86 0 16 10 74 118 74 136 0 9 5 16 10 16 6 0 10 6 10 14 0 8 9 17 19
21 34 11 45 32 26 51 -14 14 -20 15 -40 4 -21 -11 -85 -122 -85 -148 0 -20
-34 -37 -77 -37 -37 -1 -45 3 -49 21 -9 36 3 60 67 125 63 65 75 90 65 142
-11 55 -18 60 -64 47 -47 -12 -88 -5 -96 17 -7 18 19 70 48 95 36 32 105 59
133 51 50 -12 73 -42 73 -95 0 -40 -3 -48 -18 -48 -11 0 -24 11 -30 25 -13 28
-24 31 -42 10 -20 -24 9 -78 56 -103 16 -9 28 -7 55 6 31 16 34 21 37 70 6 89
-30 143 -132 197 -10 6 -25 30 -33 55 -9 25 -24 57 -34 71 -28 39 -32 70 -14
112 12 30 13 42 4 53 -13 16 -19 17 -35 6z"/>
<path d="M585 1041 c-21 -4 -30 -12 -30 -26 0 -16 9 -21 42 -26 47 -6 50 -8
53 -29 5 -32 -1 -40 -29 -40 -30 0 -57 -22 -47 -39 4 -5 27 -13 51 -17 41 -6
45 -9 45 -33 0 -24 -5 -28 -42 -37 -27 -6 -43 -14 -43 -24 0 -10 13 -16 43
-18 36 -3 42 -6 42 -26 0 -48 -156 -87 -199 -50 -12 10 -21 24 -21 30 0 7 -5
14 -12 16 -6 2 -9 12 -5 21 5 12 18 17 51 17 32 0 46 5 50 17 8 20 -9 32 -35
26 -36 -10 -69 6 -69 32 0 21 5 24 48 27 43 3 47 5 47 28 0 23 -3 25 -47 23
-46 -1 -48 0 -48 27 0 34 14 46 63 55 27 5 37 12 37 26 0 16 -7 19 -42 19 -67
0 -89 -17 -105 -79 -15 -62 -15 -88 0 -194 9 -65 16 -84 41 -112 17 -18 43
-36 59 -40 17 -5 27 -14 27 -25 0 -28 -26 -82 -54 -112 -57 -59 -78 -139 -81
-300 -2 -82 1 -110 11 -119 8 -7 17 -9 20 -6 15 14 29 106 23 142 -16 89 13
198 70 264 35 40 40 42 61 31 13 -7 34 -23 48 -37 22 -22 23 -27 12 -56 -18
-48 -26 -68 -49 -119 -23 -53 -27 -99 -10 -129 22 -42 102 -129 118 -129 20 0
17 46 -5 67 -8 8 -14 20 -14 28 0 7 -10 15 -22 19 -33 8 -51 54 -37 97 14 46
30 79 51 111 32 46 20 158 -16 158 -19 0 -76 52 -76 70 0 41 11 50 59 50 56 0
63 4 91 55 27 48 36 134 20 195 -6 25 -13 62 -15 84 -3 27 -14 46 -37 67 -34
29 -42 31 -93 20z"/>
</g>
</svg>
