<svg version="1.0" xmlns="http://www.w3.org/2000/svg"
 width="72.000000pt" height="88.000000pt" viewBox="0 0 72.000000 88.000000"
 preserveAspectRatio="xMidYMid meet">
<metadata>
Created by potrace 1.15, written by Peter Selinger 2001-2017
</metadata>
<g transform="translate(0.000000,88.000000) scale(0.100000,-0.100000)"
fill="#000000" stroke="none">
<path d="M487 773 c-4 -3 -7 -28 -7 -55 0 -49 0 -49 -47 -46 -47 3 -48 4 -53
41 -7 51 -24 52 -28 1 -4 -55 26 -94 74 -94 23 0 37 -6 41 -16 8 -21 -14 -34
-59 -34 -48 0 -78 -36 -78 -94 0 -134 -40 -344 -79 -415 -8 -14 -9 -27 -3 -33
28 -28 86 157 97 312 7 92 25 177 39 189 16 12 86 21 86 11 0 -4 -13 -34 -30
-65 -16 -31 -30 -70 -30 -86 0 -18 -7 -34 -20 -41 -11 -7 -20 -16 -20 -20 0
-10 195 -9 264 0 62 9 75 32 18 32 -43 0 -52 10 -52 58 0 14 -14 49 -30 79
-30 53 -30 53 15 53 36 0 48 5 61 25 32 49 -3 85 -83 85 -32 0 -43 4 -43 15 0
17 7 20 63 30 54 9 46 25 -13 25 -45 0 -52 3 -60 25 -10 27 -13 29 -23 18z
m116 -160 c13 -12 -15 -33 -44 -33 -29 0 -44 13 -34 30 7 11 68 14 78 3z m-76
-135 c-7 -4 -22 -8 -34 -8 -22 0 -22 0 -5 34 17 34 17 34 34 8 13 -20 14 -28
5 -34z m31 -45 c3 -9 -12 -13 -52 -13 -52 0 -66 7 -49 24 12 11 96 2 101 -11z
m2 -58 c0 -21 -105 -21 -114 0 -4 12 5 15 54 15 47 0 60 -3 60 -15z"/>
<path d="M165 751 c-3 -6 -4 -15 0 -21 8 -13 -19 -72 -44 -94 -40 -36 -16
-106 37 -106 33 0 27 -16 -28 -69 -66 -64 -64 -107 9 -132 17 -6 31 -17 31
-24 0 -6 -30 -40 -67 -75 -66 -61 -73 -86 -16 -57 15 8 37 24 47 36 11 12 23
21 28 21 6 0 9 -37 8 -82 -2 -105 -3 -103 15 -88 11 9 15 33 15 86 0 72 11 97
33 75 6 -6 22 -11 37 -11 24 1 22 3 -23 45 -27 25 -47 49 -45 54 1 6 19 20 38
33 19 13 36 31 38 41 4 22 -35 77 -54 77 -13 0 -13 -3 0 -22 24 -34 20 -48
-20 -64 -74 -31 -100 15 -39 69 23 20 35 39 35 57 0 18 7 30 23 37 12 6 29 22
36 37 13 24 12 28 -9 51 -27 29 -45 33 -35 8 18 -44 17 -53 -8 -62 -29 -11
-67 -4 -67 14 0 6 16 33 36 58 33 42 36 51 28 79 -10 33 -28 46 -39 29z"/>
<path d="M515 291 c-3 -5 8 -19 25 -31 32 -23 39 -47 16 -56 -8 -3 -39 9 -70
26 -35 20 -65 30 -83 28 -25 -3 -21 -7 40 -37 37 -19 67 -38 67 -44 0 -5 -28
-6 -70 -2 -59 6 -69 5 -65 -8 4 -8 31 -22 61 -33 44 -15 60 -16 84 -7 35 13
40 9 40 -33 0 -42 9 -64 26 -64 18 0 18 52 0 102 -12 34 -12 39 5 54 27 24 24
51 -10 85 -30 29 -55 37 -66 20z"/>
</g>
</svg>
