<svg version="1.0" xmlns="http://www.w3.org/2000/svg"
 width="65.000000pt" height="85.000000pt" viewBox="0 0 65.000000 85.000000"
 preserveAspectRatio="xMidYMid meet">
<metadata>
Created by potrace 1.15, written by Peter Selinger 2001-2017
</metadata>
<g transform="translate(0.000000,85.000000) scale(0.100000,-0.100000)"
fill="#000000" stroke="none">
<path d="M470 626 c0 -8 11 -23 24 -33 13 -11 33 -37 44 -58 22 -45 39 -160
24 -169 -5 -3 -37 43 -71 104 -34 60 -65 111 -69 114 -4 2 -14 1 -22 -4 -11
-7 -7 -19 21 -62 98 -145 115 -189 78 -196 -11 -2 -24 12 -39 42 -12 26 -29
46 -37 46 -11 0 -13 -5 -8 -17 4 -10 12 -36 18 -58 14 -58 28 -70 66 -57 20 7
33 7 37 1 3 -5 8 -61 11 -124 4 -85 9 -115 19 -115 23 0 24 16 14 140 -9 112
-8 125 10 165 24 52 25 76 6 130 -30 85 -55 133 -77 149 -29 20 -49 21 -49 2z"/>
<path d="M137 600 c-42 -3 -77 -8 -77 -12 0 -5 0 -12 0 -18 0 -5 26 -10 58
-12 57 -3 57 -3 57 -48 0 -45 0 -45 -42 -48 -30 -2 -46 -9 -53 -22 -6 -12 -9
-91 -8 -202 3 -155 5 -183 18 -183 13 0 16 29 20 180 5 180 5 180 35 183 30 3
30 3 27 -165 -3 -181 0 -213 23 -213 13 0 15 29 15 190 0 162 2 190 15 190 13
0 15 -26 15 -177 0 -173 6 -213 29 -199 7 5 11 68 11 197 0 154 3 189 14 189
33 0 40 -30 44 -196 4 -145 7 -165 21 -162 14 3 16 25 19 166 3 207 -2 220
-85 224 -58 3 -58 3 -61 51 -3 47 -3 47 56 47 46 0 61 4 66 16 14 36 -2 38
-217 24z"/>
<path d="M417 173 c-4 -3 -7 -13 -7 -20 0 -22 74 -13 78 10 3 13 -4 17 -31 17
-18 0 -37 -3 -40 -7z"/>
</g>
</svg>
