<svg version="1.0" xmlns="http://www.w3.org/2000/svg"
 width="71.000000pt" height="90.000000pt" viewBox="0 0 71.000000 90.000000"
 preserveAspectRatio="xMidYMid meet">
<metadata>
Created by potrace 1.15, written by Peter Selinger 2001-2017
</metadata>
<g transform="translate(0.000000,90.000000) scale(0.100000,-0.100000)"
fill="#000000" stroke="none">
<path d="M247 634 c-3 -4 5 -26 19 -50 38 -65 44 -151 14 -210 -22 -46 -22
-46 -41 -15 -10 18 -19 45 -19 61 0 16 -5 41 -11 56 -8 22 -6 35 8 61 16 31
16 36 3 61 -24 41 -44 34 -51 -17 -6 -44 -10 -49 -74 -94 -14 -10 -23 -22 -20
-28 8 -13 49 -11 62 2 17 17 33 2 33 -30 0 -21 -11 -35 -45 -61 -25 -19 -45
-37 -45 -42 0 -13 24 -9 46 7 30 23 35 18 28 -27 -9 -59 -26 -88 -74 -132 -25
-22 -39 -43 -36 -52 8 -22 25 -17 54 16 15 17 30 30 34 30 4 0 13 -20 19 -44
6 -26 23 -56 41 -73 31 -28 31 -28 25 -3 -26 106 -30 130 -24 136 3 4 20 -5
37 -20 62 -52 68 -25 9 39 -33 36 -40 50 -37 77 2 21 8 33 18 33 11 0 14 -9
12 -33 -1 -19 2 -32 7 -30 24 8 93 109 108 155 20 63 10 105 -40 179 -32 48
-48 60 -60 48z"/>
<path d="M427 623 c-4 -3 -7 -20 -7 -37 0 -26 -6 -34 -30 -43 -16 -6 -30 -16
-30 -21 0 -5 14 -12 30 -15 25 -6 30 -11 30 -35 0 -25 -5 -30 -30 -35 -16 -4
-30 -11 -30 -16 0 -5 14 -14 30 -20 27 -9 30 -14 30 -54 0 -44 0 -45 -39 -51
-38 -6 -59 -21 -47 -33 3 -3 23 -9 43 -12 35 -6 38 -9 41 -41 4 -42 -16 -60
-67 -60 -46 0 -66 -13 -57 -36 6 -15 18 -16 126 -11 112 6 160 16 160 36 0 5
-20 11 -45 13 -61 7 -73 19 -66 65 6 35 9 38 45 43 56 7 57 27 2 35 -46 7 -46
7 -46 51 0 39 3 46 26 54 30 12 27 34 -4 38 -32 5 -31 58 1 65 38 10 41 8 43
-31 3 -54 50 -142 76 -142 11 0 10 44 -2 56 -12 12 -17 131 -6 161 13 36 -21
42 -47 9 -21 -25 -24 -26 -54 -14 -21 8 -33 19 -33 31 0 37 -26 68 -43 50z"/>
</g>
</svg>
