<svg version="1.0" xmlns="http://www.w3.org/2000/svg"
 width="64.000000pt" height="116.000000pt" viewBox="0 0 64.000000 116.000000"
 preserveAspectRatio="xMidYMid meet">
<metadata>
Created by potrace 1.15, written by Peter Selinger 2001-2017
</metadata>
<g transform="translate(0.000000,116.000000) scale(0.100000,-0.100000)"
fill="#000000" stroke="none">
<path d="M173 1058 c-43 -21 -63 -84 -68 -214 -3 -94 -7 -120 -19 -122 -19 -4
-30 45 -28 132 2 82 -9 111 -28 76 -9 -17 -11 -54 -7 -126 5 -105 9 -116 52
-140 26 -14 36 -56 33 -141 -1 -52 -6 -73 -15 -73 -25 0 -41 44 -42 119 -1 41
-3 77 -6 79 -2 3 -11 2 -20 -1 -12 -5 -15 -25 -15 -102 0 -93 1 -98 29 -126
16 -16 37 -29 46 -29 15 0 16 -16 9 -180 -7 -177 -6 -180 14 -180 11 0 23 8
26 17 4 9 9 89 13 177 6 169 11 186 55 186 26 0 37 36 39 130 2 85 -1 96 -24
87 -9 -3 -16 -30 -21 -77 -5 -63 -21 -100 -40 -100 -3 0 -6 44 -6 98 0 83 3
102 18 115 10 10 24 17 30 17 6 0 20 10 32 22 17 19 20 35 20 125 0 96 -1 103
-20 103 -18 0 -20 -7 -20 -84 0 -78 -2 -85 -25 -100 -13 -9 -27 -16 -30 -16
-10 0 -5 214 6 245 9 25 21 34 56 44 31 10 43 18 41 30 -4 19 -53 25 -85 9z"/>
<path d="M274 955 c-9 -22 -2 -27 51 -32 45 -6 45 -6 45 -59 0 -50 -2 -54 -24
-54 -16 0 -23 5 -22 17 2 31 -32 27 -38 -4 -6 -25 -10 -147 -7 -180 2 -21 43
-53 68 -53 21 0 23 -4 23 -56 0 -51 2 -55 20 -49 18 6 20 2 20 -54 0 -61 0
-61 -73 -61 -66 0 -97 -10 -97 -30 0 -10 100 -29 135 -27 30 2 30 2 33 -80 3
-82 3 -82 -99 -85 -112 -3 -133 -15 -78 -43 24 -13 43 -15 78 -9 25 4 66 8 91
9 232 4 230 4 230 25 0 18 -7 20 -80 20 -80 0 -80 0 -80 84 0 93 -6 88 115 98
19 2 31 9 33 21 3 15 -6 17 -72 17 -76 0 -76 0 -76 60 0 51 3 60 18 60 20 0
45 37 42 61 -4 28 0 39 18 39 9 0 32 9 50 20 33 20 33 20 31 118 -3 125 -25
169 -49 97 -8 -24 -18 -35 -31 -35 -17 0 -19 8 -19 70 0 70 0 70 51 70 43 0
50 3 47 18 -3 15 -21 17 -176 20 -149 2 -173 0 -178 -13z m211 -140 c-1 -60
-4 -153 -9 -206 -8 -97 -8 -97 -37 -101 -29 -5 -29 -5 -25 198 2 111 6 206 9
211 3 5 18 9 34 8 28 0 28 0 28 -110z m-115 -105 c0 -57 -1 -60 -24 -60 -26 0
-36 16 -36 60 0 44 10 60 36 60 23 0 24 -3 24 -60z m218 -3 c3 -50 -12 -77
-42 -77 -16 0 -18 8 -19 73 0 40 15 59 43 54 10 -1 16 -17 18 -50z"/>
</g>
</svg>
