<svg version="1.0" xmlns="http://www.w3.org/2000/svg"
 width="55.000000pt" height="67.000000pt" viewBox="0 0 55.000000 67.000000"
 preserveAspectRatio="xMidYMid meet">
<metadata>
Created by potrace 1.15, written by Peter Selinger 2001-2017
</metadata>
<g transform="translate(0.000000,67.000000) scale(0.100000,-0.100000)"
fill="#000000" stroke="none">
<path d="M168 418 c-45 -74 -52 -160 -16 -211 42 -60 108 -117 135 -117 22 0
15 14 -32 64 -59 64 -58 76 4 76 73 0 111 -10 111 -29 0 -9 9 -31 20 -49 24
-40 60 -44 60 -8 0 14 -4 28 -10 31 -5 3 -10 17 -10 30 0 24 -21 113 -35 148
-15 37 -35 10 -35 -49 0 -34 0 -34 -95 -34 -95 0 -95 0 -95 38 0 20 9 52 20
70 11 18 20 39 20 47 0 23 -26 18 -42 -7z"/>
</g>
</svg>
