<svg version="1.0" xmlns="http://www.w3.org/2000/svg"
 width="79.000000pt" height="73.000000pt" viewBox="0 0 79.000000 73.000000"
 preserveAspectRatio="xMidYMid meet">
<metadata>
Created by potrace 1.15, written by Peter Selinger 2001-2017
</metadata>
<g transform="translate(0.000000,73.000000) scale(0.100000,-0.100000)"
fill="#000000" stroke="none">
<path d="M417 608 c-4 -29 -11 -54 -17 -56 -5 -2 -10 -12 -10 -23 0 -10 -4
-19 -10 -19 -5 0 -10 -6 -10 -14 0 -18 -53 -73 -79 -81 -12 -3 -21 -10 -21
-15 0 -13 -71 -33 -81 -23 -4 4 -11 35 -15 68 -7 65 -39 124 -57 106 -22 -22
11 -255 48 -344 20 -47 91 -124 134 -145 52 -25 380 -25 405 0 9 9 13 24 10
33 -6 15 -18 16 -103 8 -230 -20 -310 -6 -348 57 -9 16 -21 30 -25 30 -4 0 -8
8 -8 18 0 10 -4 22 -9 28 -5 5 -12 23 -15 39 -6 28 -4 32 29 45 19 7 35 17 35
22 0 4 8 8 18 8 11 0 27 9 37 20 10 11 22 20 28 20 5 0 17 8 26 18 53 57 54
57 97 -2 40 -55 135 -127 186 -139 14 -4 37 -3 50 2 21 8 15 12 -55 46 -118
57 -177 136 -185 249 -4 52 -24 96 -43 96 -3 0 -9 -24 -12 -52z"/>
<path d="M335 237 c-19 -15 -19 -16 -1 -36 18 -20 41 -21 234 -12 23 2 12 31
-15 42 -16 6 -66 13 -113 16 -66 3 -90 1 -105 -10z"/>
</g>
</svg>
