<svg version="1.0" xmlns="http://www.w3.org/2000/svg"
 width="41.000000pt" height="73.000000pt" viewBox="0 0 41.000000 73.000000"
 preserveAspectRatio="xMidYMid meet">
<metadata>
Created by potrace 1.15, written by Peter Selinger 2001-2017
</metadata>
<g transform="translate(0.000000,73.000000) scale(0.100000,-0.100000)"
fill="#000000" stroke="none">
<path d="M245 678 c3 -18 6 -73 8 -122 2 -80 0 -90 -18 -100 -11 -6 -22 -14
-25 -17 -3 -3 -13 -8 -22 -12 -15 -5 -18 0 -18 34 0 25 -7 47 -18 60 -18 19
-19 18 -30 -48 -17 -103 -16 -218 3 -233 17 -14 17 -14 35 59 12 46 19 56 60
84 39 27 43 22 37 -53 -8 -98 -38 -139 -159 -220 -94 -63 -90 -77 10 -41 28
11 71 34 94 52 106 82 109 95 104 343 -2 111 -4 201 -5 202 -1 1 -9 11 -20 22
-28 33 -43 28 -36 -10z"/>
<path d="M167 236 c-6 -14 0 -26 14 -26 3 0 9 9 12 20 6 23 -18 28 -26 6z"/>
</g>
</svg>
