<svg version="1.0" xmlns="http://www.w3.org/2000/svg"
 width="81.000000pt" height="109.000000pt" viewBox="0 0 81.000000 109.000000"
 preserveAspectRatio="xMidYMid meet">
<metadata>
Created by potrace 1.15, written by Peter Selinger 2001-2017
</metadata>
<g transform="translate(0.000000,109.000000) scale(0.100000,-0.100000)"
fill="#000000" stroke="none">
<path d="M136 914 c-11 -27 -7 -497 4 -534 5 -19 10 -56 10 -82 0 -26 5 -50
10 -53 6 -3 10 -14 10 -25 0 -22 83 -116 120 -135 54 -28 370 -28 398 -1 16
16 -26 25 -175 35 -211 15 -263 38 -263 114 0 18 -4 37 -9 43 -11 12 -32 134
-25 145 3 5 11 9 18 9 7 0 22 11 33 24 13 14 37 26 60 30 41 6 178 18 190 17
5 0 10 -16 13 -36 3 -20 8 -36 13 -35 4 0 15 0 26 0 25 0 61 84 61 142 0 24 4
48 8 53 13 14 35 118 31 140 -7 33 -35 29 -49 -7 -6 -18 -20 -51 -30 -73 -10
-22 -24 -57 -31 -77 -7 -21 -19 -40 -27 -43 -8 -3 -76 -10 -152 -15 -76 -5
-145 -13 -154 -16 -13 -5 -16 1 -16 32 -2 113 -22 298 -36 326 -18 34 -30 42
-38 22z"/>
</g>
</svg>
