<svg version="1.0" xmlns="http://www.w3.org/2000/svg"
 width="63.000000pt" height="122.000000pt" viewBox="0 0 63.000000 122.000000"
 preserveAspectRatio="xMidYMid meet">
<metadata>
Created by potrace 1.15, written by Peter Selinger 2001-2017
</metadata>
<g transform="translate(0.000000,122.000000) scale(0.100000,-0.100000)"
fill="#000000" stroke="none">
<path d="M303 1163 c-7 -3 -13 -21 -13 -42 0 -55 -15 -66 -109 -79 -47 -7 -89
-16 -95 -22 -5 -5 -19 -10 -29 -10 -13 0 -17 -5 -14 -15 4 -8 2 -17 -3 -20
-12 -8 -19 -67 -25 -222 -3 -99 -2 -133 8 -136 9 -3 9 -7 0 -18 -15 -18 -26
-556 -11 -565 5 -4 16 0 23 7 10 11 15 101 19 409 3 217 5 401 6 408 0 7 15
12 39 12 22 0 43 5 46 10 3 6 19 10 34 10 31 0 71 36 71 64 0 41 18 55 66 53
44 -2 47 -4 50 -31 2 -16 5 -35 8 -42 9 -24 63 -43 131 -46 66 -3 66 -3 64
-188 -2 -102 0 -191 4 -197 4 -7 4 -14 -1 -17 -17 -10 -20 -452 -3 -469 31
-31 35 10 39 486 5 563 19 513 -155 537 -108 16 -108 16 -108 58 -1 43 -20 73
-42 65z m-105 -162 c8 -4 12 -19 10 -32 -4 -29 -57 -58 -107 -59 -33 0 -33 0
-26 38 8 44 3 38 45 50 45 13 62 14 78 3z m349 -22 c7 -13 13 -29 13 -36 0
-18 -34 -33 -51 -22 -7 5 -28 9 -45 9 -36 0 -54 16 -54 46 0 25 17 30 85 28
31 -1 43 -7 52 -25z"/>
<path d="M210 855 c0 -8 7 -15 15 -15 9 0 12 6 9 15 -4 8 -10 15 -15 15 -5 0
-9 -7 -9 -15z"/>
<path d="M383 863 c-7 -2 -13 -11 -13 -20 0 -8 -6 -20 -12 -27 -7 -7 -22 -25
-33 -39 -11 -15 -22 -27 -26 -27 -3 0 -14 18 -25 40 -20 42 -44 53 -44 20 0
-13 -7 -20 -19 -20 -11 0 -21 -6 -24 -12 -3 -10 -7 -10 -18 -1 -18 14 -62 6
-56 -11 3 -7 29 -10 70 -9 53 1 66 -2 70 -15 3 -9 8 -25 12 -34 6 -16 -1 -18
-78 -18 -83 0 -119 -12 -76 -25 11 -4 46 -6 77 -5 78 3 79 3 85 -22 10 -38 -9
-48 -94 -48 -46 0 -79 -4 -79 -10 0 -12 3 -12 95 -14 70 -1 70 -1 73 -95 2
-56 -1 -98 -8 -105 -5 -5 -10 -20 -10 -32 0 -23 -96 -130 -134 -149 -31 -16
-31 -35 -1 -35 20 0 26 4 21 15 -4 11 1 15 19 15 14 0 29 8 35 20 6 11 17 20
25 20 8 0 22 11 32 25 10 14 26 35 37 48 18 22 18 22 40 -7 11 -16 35 -43 52
-60 85 -85 134 -108 134 -65 0 22 -16 40 -80 88 -43 32 -51 42 -87 106 -24 43
-28 61 -28 127 0 56 4 79 13 83 8 3 47 5 88 5 43 0 74 4 74 10 0 6 -33 10 -79
10 -71 0 -80 2 -86 20 -3 11 -3 29 0 40 6 18 15 20 86 20 43 0 79 4 79 9 0 13
-26 19 -89 20 -30 0 -57 3 -60 6 -3 4 1 18 10 33 14 25 20 27 88 30 51 2 71 6
68 15 -2 8 -23 11 -60 9 -45 -3 -57 -1 -57 11 0 8 6 20 14 27 8 6 12 18 9 26
-5 15 -10 16 -30 7z"/>
<path d="M166 508 c-2 -13 -9 -57 -14 -98 -5 -41 -13 -86 -17 -99 -7 -19 -5
-22 11 -19 10 2 24 15 31 29 14 30 27 162 18 190 -9 26 -24 24 -29 -3z"/>
<path d="M373 488 c14 -94 53 -178 82 -178 21 0 19 26 -4 58 -10 15 -21 43
-24 62 -15 90 -19 100 -39 100 -19 0 -20 -4 -15 -42z"/>
</g>
</svg>
