<svg version="1.0" xmlns="http://www.w3.org/2000/svg"
 width="63.000000pt" height="92.000000pt" viewBox="0 0 63.000000 92.000000"
 preserveAspectRatio="xMidYMid meet">
<metadata>
Created by potrace 1.15, written by Peter Selinger 2001-2017
</metadata>
<g transform="translate(0.000000,92.000000) scale(0.100000,-0.100000)"
fill="#000000" stroke="none">
<path d="M330 712 c0 -10 13 -39 29 -64 29 -46 49 -57 128 -73 35 -7 47 -19
56 -55 12 -46 -2 -65 -71 -100 -65 -34 -66 -35 -34 -38 32 -3 112 29 133 54
20 24 21 107 2 144 -16 32 -23 36 -75 42 -75 9 -94 20 -118 68 -21 41 -50 54
-50 22z"/>
<path d="M127 693 c-4 -3 -7 -28 -7 -54 0 -38 -7 -56 -35 -95 -48 -66 -57 -90
-62 -154 -5 -50 -2 -61 27 -103 17 -26 40 -52 50 -57 63 -34 139 15 142 92 1
24 2 54 3 68 2 51 -17 124 -51 187 -19 36 -34 78 -34 94 0 27 -17 39 -33 22z
m61 -194 c19 -37 22 -56 19 -117 -5 -82 -23 -112 -68 -112 -34 0 -59 32 -59
77 0 31 2 33 33 33 43 0 77 10 77 22 0 6 -22 9 -55 6 -47 -4 -55 -2 -55 13 0
38 55 132 74 126 6 -2 21 -23 34 -48z"/>
<path d="M304 569 c26 -83 36 -144 36 -219 0 -86 0 -86 66 -129 63 -42 104
-89 104 -122 0 -8 6 -24 14 -35 11 -15 17 -16 27 -7 9 9 9 22 0 59 -17 65 -42
97 -105 132 -61 35 -76 64 -76 148 0 50 1 53 37 71 53 26 57 47 7 39 -38 -7
-39 -6 -59 36 -23 47 -64 69 -51 27z"/>
</g>
</svg>
