<svg version="1.0" xmlns="http://www.w3.org/2000/svg"
 width="68.000000pt" height="81.000000pt" viewBox="0 0 68.000000 81.000000"
 preserveAspectRatio="xMidYMid meet">
<metadata>
Created by potrace 1.15, written by Peter Selinger 2001-2017
</metadata>
<g transform="translate(0.000000,81.000000) scale(0.100000,-0.100000)"
fill="#000000" stroke="none">
<path d="M185 458 c3 -90 7 -205 10 -256 5 -93 4 -93 -18 -87 -12 4 -31 16
-42 26 -18 18 -20 36 -25 207 -4 161 -7 187 -21 190 -14 3 -17 -19 -22 -180
-5 -208 -2 -221 68 -270 52 -35 209 -78 226 -61 19 19 -5 40 -52 48 -53 9 -69
28 -69 81 0 51 6 53 75 23 33 -15 50 -18 58 -10 16 16 -5 35 -78 70 -65 30
-65 30 -67 203 -3 170 -3 173 -25 176 -23 3 -23 3 -18 -160z"/>
<path d="M375 600 c-17 -28 58 -180 89 -180 6 0 17 -4 25 -9 12 -8 7 -20 -27
-63 -23 -29 -53 -66 -68 -81 -19 -21 -23 -32 -15 -40 13 -13 67 34 113 101 34
50 63 53 87 11 21 -38 9 -64 -69 -156 -39 -46 -70 -85 -70 -88 0 -3 7 -5 16
-5 32 0 77 37 122 100 39 54 47 73 50 120 5 64 -4 76 -96 125 -61 33 -102 92
-102 147 0 23 -4 28 -24 28 -14 0 -28 -4 -31 -10z"/>
</g>
</svg>
