<svg version="1.0" xmlns="http://www.w3.org/2000/svg"
 width="69.000000pt" height="91.000000pt" viewBox="0 0 69.000000 91.000000"
 preserveAspectRatio="xMidYMid meet">
<metadata>
Created by potrace 1.15, written by Peter Selinger 2001-2017
</metadata>
<g transform="translate(0.000000,91.000000) scale(0.100000,-0.100000)"
fill="#000000" stroke="none">
<path d="M326 749 c-3 -8 -6 -23 -8 -34 -3 -17 -12 -20 -58 -23 -124 -5 -131
-29 -12 -39 71 -6 71 -6 74 -47 4 -56 31 -57 38 -1 5 40 5 40 64 45 70 6 92
30 27 30 -55 0 -91 15 -91 39 0 25 -28 49 -34 30z"/>
<path d="M185 610 c-22 -10 -48 -19 -57 -19 -21 -1 -24 -26 -5 -34 22 -8 61 3
92 28 41 33 22 48 -30 25z"/>
<path d="M406 613 c-3 -4 -6 -10 -6 -14 0 -12 102 -59 127 -59 27 0 31 25 6
35 -60 24 -122 43 -127 38z"/>
<path d="M277 533 c-37 -6 -70 -57 -62 -98 3 -16 18 -42 35 -57 16 -15 30 -32
30 -37 0 -6 -19 -11 -42 -13 -23 -2 -43 -8 -45 -15 -3 -7 29 -13 101 -18 100
-7 106 -9 106 -29 0 -12 7 -32 16 -44 18 -26 8 -29 -23 -7 -33 23 -38 0 -6
-29 15 -14 40 -26 54 -26 14 0 38 -11 53 -25 32 -30 59 -45 80 -45 29 0 17 26
-19 43 -48 23 -52 39 -16 75 50 49 41 70 -11 27 -38 -32 -56 -29 -86 15 -23
35 -23 35 10 46 29 10 31 13 13 19 -72 25 -83 39 -42 54 33 13 53 82 36 123
-7 16 -23 34 -36 39 -24 9 -92 10 -146 2z m127 -49 c25 -24 21 -70 -6 -78 -64
-17 -148 2 -148 34 0 20 20 46 40 53 33 12 99 7 114 -9z m-60 -120 c23 -9 20
-34 -4 -34 -13 0 -20 7 -20 20 0 22 1 23 24 14z"/>
<path d="M292 458 c3 -8 24 -14 52 -16 36 -2 47 0 44 10 -3 8 -24 14 -52 16
-36 2 -47 0 -44 -10z"/>
<path d="M233 278 c-4 -7 -13 -24 -19 -38 -11 -25 -11 -25 -23 -2 -13 24 -41
30 -41 8 0 -7 9 -25 21 -40 20 -26 20 -28 4 -68 -9 -23 -25 -52 -36 -66 -22
-29 -24 -42 -6 -42 19 0 61 48 85 95 16 32 28 42 68 55 34 10 50 21 52 35 3
16 1 18 -9 8 -7 -7 -27 -13 -44 -13 -30 0 -30 1 -27 40 4 40 -8 53 -25 28z"/>
</g>
</svg>
