<svg version="1.0" xmlns="http://www.w3.org/2000/svg"
 width="85.000000pt" height="151.000000pt" viewBox="0 0 85.000000 151.000000"
 preserveAspectRatio="xMidYMid meet">
<metadata>
Created by potrace 1.15, written by Peter Selinger 2001-2017
</metadata>
<g transform="translate(0.000000,151.000000) scale(0.100000,-0.100000)"
fill="#000000" stroke="none">
<path d="M562 1450 c-18 -11 -41 -20 -52 -20 -30 0 -25 -32 8 -54 54 -36 61
-81 67 -431 4 -279 12 -302 127 -373 21 -13 42 -31 47 -40 9 -15 11 -15 30 2
16 14 21 31 21 67 0 26 -4 50 -9 53 -5 3 -5 23 -1 43 7 36 6 146 -4 511 -5
188 -15 223 -73 247 -50 21 -121 19 -161 -5z m152 -57 c20 -33 33 -97 30 -153
-2 -54 -2 -54 -45 -51 -60 4 -69 14 -69 77 0 38 -7 66 -25 98 -29 52 -24 57
49 51 34 -2 53 -9 60 -22z m9 -260 c9 -3 17 -15 17 -27 0 -11 3 -51 6 -88 6
-66 6 -68 -17 -70 -83 -5 -99 10 -99 96 0 53 4 70 21 87 13 13 27 18 37 14 9
-4 25 -10 35 -12z m2 -243 c21 0 22 -4 29 -136 4 -75 5 -138 2 -141 -9 -9 -47
9 -73 34 -37 38 -53 83 -55 161 -2 83 5 96 44 88 17 -3 41 -6 53 -6z"/>
<path d="M247 1453 c-4 -3 -7 -28 -7 -53 0 -48 0 -48 -44 -59 -25 -6 -54 -11
-65 -11 -12 0 -21 -4 -21 -8 0 -20 28 -32 76 -32 51 0 51 0 57 -74 4 -40 9
-80 12 -88 4 -9 -1 -22 -11 -29 -32 -27 -74 -71 -74 -80 0 -11 57 -12 62 -1 7
16 71 55 103 62 48 11 75 -10 75 -58 0 -37 -47 -152 -62 -152 -19 0 -78 -56
-78 -73 0 -10 3 -17 8 -15 4 3 22 10 40 17 17 7 32 17 32 22 0 5 6 9 14 9 10
0 17 -16 21 -47 3 -27 8 -61 10 -78 6 -41 -8 -63 -29 -46 -9 8 -16 24 -16 37
0 14 -8 25 -21 29 -28 9 -30 5 -18 -38 13 -47 9 -53 -42 -60 -22 -3 -43 -8
-46 -10 -11 -12 10 -27 38 -27 16 0 29 -4 29 -10 0 -5 -4 -10 -8 -10 -13 0
-30 -57 -21 -71 7 -12 11 -11 18 1 28 46 66 90 78 90 7 0 13 5 13 10 0 6 9 10
19 10 24 0 28 -22 21 -110 -5 -65 -5 -65 -62 -68 -32 -2 -58 -7 -58 -11 0 -10
46 -31 68 -31 43 0 89 -21 100 -46 16 -33 17 -31 -20 -39 -18 -4 -43 -18 -55
-31 -18 -21 -20 -34 -16 -87 4 -58 20 -117 30 -117 2 0 16 13 30 30 28 34 63
40 63 12 0 -19 18 -42 32 -42 4 0 8 11 8 24 0 14 4 28 10 31 5 3 10 15 10 26
0 10 7 19 15 19 21 0 85 42 85 56 0 6 7 17 15 24 8 7 17 27 21 45 5 27 13 37
45 49 36 15 55 46 27 46 -17 0 -88 -19 -113 -30 -34 -15 -116 -31 -126 -25 -5
4 -9 12 -9 20 0 7 -14 25 -31 39 -30 26 -30 26 -18 107 8 58 9 91 1 117 -11
39 -24 105 -41 211 -9 57 -8 67 9 91 11 16 20 38 20 49 0 12 3 21 8 21 15 0
33 81 22 95 -13 15 -99 43 -145 47 -30 3 -30 3 -33 81 -3 77 -3 77 25 87 71
25 79 52 18 60 -31 4 -39 9 -37 23 2 10 -7 31 -18 47 -22 30 -31 35 -43 23z
m383 -1160 c0 -15 -47 -63 -62 -63 -3 0 -13 -3 -22 -6 -28 -11 -21 60 7 74 47
24 77 22 77 -5z m-145 -54 c8 -35 3 -42 -42 -57 -32 -11 -33 -10 -33 19 0 67
62 99 75 38z"/>
<path d="M333 1235 c-3 -9 -4 -17 -2 -19 67 -50 119 -62 119 -27 0 12 -15 26
-45 40 -53 25 -64 26 -72 6z"/>
<path d="M157 1188 c-39 -48 -34 -93 7 -53 8 8 26 15 40 15 20 0 26 5 26 23 0
24 -17 47 -35 47 -6 0 -23 -15 -38 -32z"/>
<path d="M304 1010 c-26 -10 -66 -59 -58 -71 7 -12 44 -12 44 0 0 5 16 15 35
22 37 14 39 17 29 43 -7 18 -18 19 -50 6z"/>
</g>
</svg>
