<svg version="1.0" xmlns="http://www.w3.org/2000/svg"
 width="66.000000pt" height="86.000000pt" viewBox="0 0 66.000000 86.000000"
 preserveAspectRatio="xMidYMid meet">
<metadata>
Created by potrace 1.15, written by Peter Selinger 2001-2017
</metadata>
<g transform="translate(0.000000,86.000000) scale(0.100000,-0.100000)"
fill="#000000" stroke="none">
<path d="M106 567 c-84 -81 -88 -124 -7 -82 47 24 59 5 67 -102 7 -93 7 -93
-56 -93 -45 0 -61 -3 -58 -12 3 -8 27 -14 62 -16 57 -3 57 -3 54 -90 -3 -87
-3 -87 -60 -90 -40 -2 -58 -7 -58 -16 0 -8 7 -17 16 -20 24 -9 227 -7 243 3
25 16 1 31 -50 31 -50 0 -50 0 -47 88 3 87 3 87 53 92 36 4 50 9 50 20 0 11
-14 16 -56 18 -57 3 -57 3 -54 80 3 71 5 78 35 104 26 24 37 28 66 22 27 -5
34 -3 34 9 0 30 -13 48 -58 83 -68 52 -95 48 -176 -29z m143 0 c22 -24 22 -24
-17 -50 -21 -15 -41 -27 -44 -27 -3 0 -13 12 -23 26 -16 25 -16 27 6 50 28 30
50 30 78 1z"/>
<path d="M564 589 c-17 -20 -26 -21 -100 -15 -65 6 -83 4 -93 -8 -23 -28 -2
-36 94 -36 93 0 95 -1 101 -25 12 -47 -11 -58 -98 -52 -83 7 -108 3 -108 -18
0 -15 31 -25 78 -25 30 0 33 -2 30 -27 -3 -26 -7 -28 -55 -31 -46 -3 -53 -6
-53 -23 0 -20 5 -21 94 -17 83 3 96 1 106 -15 6 -10 8 -27 5 -38 -6 -17 -16
-19 -84 -19 -98 0 -111 -11 -111 -96 0 -87 11 -98 104 -102 99 -5 128 2 124
31 -3 21 -8 22 -86 22 -62 0 -85 4 -92 15 -14 22 -12 43 6 69 15 21 21 22 88
16 71 -7 72 -7 84 19 17 38 15 111 -4 130 -8 9 -30 16 -49 16 -29 0 -33 4 -37
30 -4 29 -3 30 22 25 18 -4 35 1 53 15 25 20 27 28 27 90 0 80 -15 103 -46 69z"/>
<path d="M267 434 c-4 -4 -7 -29 -7 -56 0 -45 2 -49 23 -46 19 3 22 9 22 53 0
37 -4 50 -15 53 -9 1 -19 0 -23 -4z"/>
<path d="M87 423 c-9 -8 -9 -78 -1 -86 13 -13 34 23 34 57 0 34 -15 47 -33 29z"/>
<path d="M86 195 c-11 -30 -6 -66 10 -72 21 -8 35 15 32 52 -3 33 -31 47 -42
20z"/>
<path d="M266 188 c-3 -13 -6 -36 -6 -51 0 -22 4 -28 18 -25 23 4 32 98 9 98
-8 0 -17 -10 -21 -22z"/>
</g>
</svg>
