<svg version="1.0" xmlns="http://www.w3.org/2000/svg"
 width="67.000000pt" height="93.000000pt" viewBox="0 0 67.000000 93.000000"
 preserveAspectRatio="xMidYMid meet">
<metadata>
Created by potrace 1.15, written by Peter Selinger 2001-2017
</metadata>
<g transform="translate(0.000000,93.000000) scale(0.100000,-0.100000)"
fill="#000000" stroke="none">
<path d="M279 755 c-23 -38 -86 -81 -158 -106 -48 -16 -69 -49 -33 -49 32 0
82 -21 82 -35 0 -7 -19 -29 -41 -48 -47 -38 -46 -62 1 -52 23 5 30 2 35 -15 4
-13 0 -31 -9 -45 -17 -25 -21 -55 -9 -55 4 0 17 12 29 27 21 27 23 27 41 10
38 -34 58 -13 28 31 -14 19 -14 24 1 47 9 14 25 25 35 25 26 0 24 13 -6 49
-22 26 -24 33 -13 50 16 26 7 34 -25 20 -16 -7 -31 -8 -42 -2 -15 9 -13 12 17
29 18 11 52 28 75 38 43 19 43 19 103 -8 34 -14 71 -26 82 -26 16 0 18 -3 9
-14 -19 -23 -58 -25 -92 -4 -24 14 -35 16 -43 8 -8 -8 -4 -18 17 -35 30 -26
34 -40 15 -52 -7 -4 -19 -16 -27 -26 -12 -16 -11 -21 13 -46 30 -32 28 -48
-13 -85 -12 -11 -21 -25 -21 -32 0 -30 24 -23 60 16 38 41 38 41 73 11 34 -30
67 -41 67 -21 0 5 -14 25 -31 45 -32 36 -32 36 -9 60 13 14 32 25 42 25 29 0
21 26 -19 57 -36 30 -36 30 -17 56 13 19 28 26 51 27 17 0 34 4 38 9 7 12 -33
41 -57 41 -17 0 -84 20 -139 41 -14 5 -33 23 -43 39 -23 39 -42 38 -67 -5z
m185 -221 c25 -9 19 -32 -12 -48 -44 -23 -82 10 -50 42 13 13 37 15 62 6z
m-229 -14 c8 -13 -13 -40 -30 -40 -15 0 -28 27 -19 41 7 12 41 11 49 -1z"/>
<path d="M195 350 c-11 -18 29 -71 58 -77 52 -11 20 -93 -62 -158 -51 -40 -65
-65 -35 -65 18 0 65 30 106 68 14 13 36 51 48 83 22 57 31 65 70 59 21 -3 20
0 29 -89 9 -81 29 -131 55 -131 11 0 13 17 10 83 -10 168 -13 173 -138 191
-50 7 -93 20 -104 29 -21 20 -28 21 -37 7z"/>
</g>
</svg>
