<svg version="1.0" xmlns="http://www.w3.org/2000/svg"
 width="106.000000pt" height="109.000000pt" viewBox="0 0 106.000000 109.000000"
 preserveAspectRatio="xMidYMid meet">
<metadata>
Created by potrace 1.15, written by Peter Selinger 2001-2017
</metadata>
<g transform="translate(0.000000,109.000000) scale(0.100000,-0.100000)"
fill="#000000" stroke="none">
<path d="M812 919 c-13 -5 -49 -10 -80 -12 -43 -1 -57 -6 -60 -18 -4 -20 37
-29 140 -34 80 -4 138 11 138 35 0 33 -84 51 -138 29z"/>
<path d="M225 772 c-27 -7 -65 -17 -84 -22 -18 -5 -38 -13 -44 -19 -16 -16 11
-41 43 -41 44 0 54 -22 54 -119 1 -90 -11 -121 -48 -121 -25 0 -75 -59 -87
-103 -15 -54 -5 -196 16 -241 17 -35 33 -46 103 -67 35 -10 53 -10 88 -1 24 7
60 12 80 12 42 0 70 13 106 52 14 15 31 28 37 28 15 0 32 66 38 150 4 69 2 77
-20 103 -13 15 -34 27 -45 27 -11 0 -24 5 -27 10 -3 6 -14 10 -24 10 -30 0
-41 45 -41 161 0 79 3 111 13 113 6 3 24 7 39 10 22 5 48 40 36 51 -1 1 -41 6
-88 10 -46 3 -87 7 -90 9 -3 1 -27 -4 -55 -12z m102 -66 c1 -1 -1 -13 -4 -28
-5 -25 -10 -28 -43 -28 -46 0 -58 22 -30 50 15 15 28 19 48 14 15 -4 28 -7 29
-8z m-17 -126 c0 -16 -7 -20 -30 -20 -19 0 -30 5 -30 14 0 13 9 17 53 25 4 0
7 -8 7 -19z m9 -107 c18 -62 15 -72 -20 -71 -24 1 -33 7 -43 32 -19 47 -10 76
25 76 24 0 30 -5 38 -37z m-129 -107 c8 -21 17 -25 74 -31 54 -6 66 -11 66
-25 0 -15 -10 -18 -79 -19 -98 -1 -131 10 -131 43 0 40 11 56 36 56 17 0 27
-8 34 -24z m268 -40 c2 -10 0 -22 -5 -27 -16 -16 -43 2 -43 28 0 20 4 24 22
21 13 -2 24 -11 26 -22z m2 -104 c0 -38 -20 -52 -74 -52 -29 0 -56 3 -60 7 -4
5 -26 12 -49 18 -26 6 -43 16 -45 27 -3 15 9 16 112 15 88 -2 116 -5 116 -15z
m-197 -87 c20 -8 38 -19 42 -24 7 -12 -77 -25 -109 -17 -26 6 -56 31 -56 47 0
14 84 11 123 -6z"/>
<path d="M581 774 c-13 -15 -12 -19 7 -35 12 -9 47 -25 77 -35 31 -9 58 -21
61 -25 3 -5 13 -9 23 -9 30 0 43 -113 39 -325 -1 -101 0 -187 4 -191 13 -12
36 16 43 54 4 20 9 132 12 247 4 210 4 210 61 233 32 12 66 22 76 22 23 0 49
27 42 45 -4 11 -36 15 -143 19 -76 3 -172 8 -213 11 -62 4 -77 2 -89 -11z"/>
<path d="M642 618 c-16 -16 -16 -149 0 -183 8 -18 19 -25 39 -25 28 0 28 0 27
86 0 78 -2 89 -23 110 -28 28 -27 28 -43 12z"/>
<path d="M929 577 c-19 -33 -23 -143 -10 -232 11 -73 15 -82 32 -78 10 3 20
13 23 22 9 30 18 259 12 279 -10 29 -44 35 -57 9z"/>
</g>
</svg>
