<svg version="1.0" xmlns="http://www.w3.org/2000/svg"
 width="59.000000pt" height="81.000000pt" viewBox="0 0 59.000000 81.000000"
 preserveAspectRatio="xMidYMid meet">
<metadata>
Created by potrace 1.15, written by Peter Selinger 2001-2017
</metadata>
<g transform="translate(0.000000,81.000000) scale(0.100000,-0.100000)"
fill="#000000" stroke="none">
<path d="M97 584 c-9 -9 30 -38 78 -59 26 -11 64 -16 107 -16 74 1 88 -9 88
-67 0 -30 0 -30 -72 -30 -75 -1 -149 -19 -145 -37 1 -5 21 -9 44 -7 30 3 44
-1 47 -10 2 -7 9 -67 15 -133 12 -128 26 -191 47 -199 18 -7 58 43 71 89 6 22
18 63 27 92 9 33 13 71 9 107 -6 56 -6 56 23 56 29 0 29 0 2 23 -33 27 -44
104 -19 124 27 21 -6 33 -94 33 -55 0 -96 6 -133 20 -54 21 -84 25 -95 14z
m270 -208 c7 -7 -27 -86 -37 -86 -13 0 -61 81 -54 91 6 11 80 7 91 -5z m-57
-127 c0 -10 -4 -19 -10 -19 -5 0 -10 12 -10 26 0 14 4 23 10 19 6 -3 10 -15
10 -26z m61 -6 c-8 -15 -10 -15 -11 -2 0 17 10 32 18 25 2 -3 -1 -13 -7 -23z
m-21 -72 c0 -25 -20 -81 -30 -81 -13 0 -20 73 -8 87 15 19 38 16 38 -6z"/>
</g>
</svg>
