<svg version="1.0" xmlns="http://www.w3.org/2000/svg"
 width="47.000000pt" height="89.000000pt" viewBox="0 0 47.000000 89.000000"
 preserveAspectRatio="xMidYMid meet">
<metadata>
Created by potrace 1.15, written by Peter Selinger 2001-2017
</metadata>
<g transform="translate(0.000000,89.000000) scale(0.100000,-0.100000)"
fill="#000000" stroke="none">
<path d="M234 725 c11 -8 27 -15 37 -15 21 0 28 -16 22 -57 -5 -32 -7 -33 -50
-33 -34 0 -44 3 -40 14 9 24 -15 36 -75 36 -58 0 -77 -13 -37 -23 20 -6 21
-10 15 -69 -10 -86 -8 -119 8 -132 24 -19 27 -63 10 -146 -13 -64 -14 -83 -4
-95 22 -27 29 -16 29 45 -1 76 6 86 37 55 28 -28 44 -32 44 -10 0 8 -3 15 -8
15 -8 0 -42 73 -42 90 0 19 27 10 40 -14 15 -30 38 -40 55 -26 9 8 14 6 19 -6
7 -19 -10 -44 -30 -44 -8 0 -14 -4 -14 -10 0 -5 13 -10 29 -10 38 0 43 -15 42
-122 -1 -87 8 -108 29 -69 13 25 15 95 5 193 -8 75 -4 99 27 165 14 28 2 77
-17 70 -22 -9 -25 20 -5 46 21 26 17 37 -12 37 -14 0 -18 8 -18 39 0 35 3 39
30 45 66 13 25 33 -83 42 -57 4 -60 3 -43 -11z m-58 -129 c18 -18 18 -103 0
-135 -14 -25 -14 -25 -31 9 -15 29 -16 41 -5 87 12 58 15 60 36 39z m112 -43
c-5 -26 -34 -28 -41 -3 -4 16 0 20 20 20 18 0 24 -5 21 -17z m62 -102 c-12
-45 -34 -58 -24 -13 12 46 26 78 31 65 2 -6 -1 -30 -7 -52z m-40 29 c0 -5 -4
-10 -10 -10 -5 0 -10 5 -10 10 0 6 5 10 10 10 6 0 10 -4 10 -10z m-40 -66 c0
-17 -22 -14 -28 4 -2 7 3 12 12 12 9 0 16 -7 16 -16z"/>
<path d="M121 721 c-24 -15 -1 -31 45 -31 46 0 60 14 22 23 -13 2 -30 7 -38
11 -8 3 -21 2 -29 -3z"/>
</g>
</svg>
