<svg version="1.0" xmlns="http://www.w3.org/2000/svg"
 width="43.000000pt" height="89.000000pt" viewBox="0 0 43.000000 89.000000"
 preserveAspectRatio="xMidYMid meet">
<metadata>
Created by potrace 1.15, written by Peter Selinger 2001-2017
</metadata>
<g transform="translate(0.000000,89.000000) scale(0.100000,-0.100000)"
fill="#000000" stroke="none">
<path d="M100 670 c-13 -8 -12 -11 5 -25 11 -9 35 -23 53 -31 27 -12 32 -20
32 -49 0 -32 -3 -35 -42 -45 -51 -12 -70 -22 -76 -38 -2 -8 13 -12 47 -12 50
0 51 0 51 -31 0 -31 0 -31 -52 -27 -53 3 -53 3 -50 -62 3 -49 10 -73 27 -96
13 -17 28 -57 34 -88 6 -32 18 -72 26 -89 8 -16 15 -37 15 -45 0 -12 4 -11 19
5 30 32 48 74 56 131 6 45 10 53 33 59 50 12 80 68 74 136 -1 10 -18 24 -42
33 -53 22 -52 50 3 48 20 -1 37 3 37 7 0 12 -21 49 -37 67 -7 7 -13 33 -13 57
0 39 4 46 30 60 38 20 40 40 3 31 -75 -17 -150 -18 -181 -2 -36 19 -33 18 -52
6z m162 -76 c9 -9 -7 -57 -20 -62 -8 -2 -12 9 -12 32 0 33 15 47 32 30z m-12
-133 c0 -36 -11 -53 -26 -40 -22 18 -18 59 6 59 13 0 20 -7 20 -19z m-60 -106
c0 -16 -20 -19 -57 -9 -37 10 -26 24 17 24 29 0 40 -4 40 -15z m98 9 c21 -6
32 -34 13 -34 -31 0 -71 15 -71 26 0 15 21 18 58 8z m-100 -69 c2 -2 2 -11 -1
-19 -9 -22 -67 1 -67 26 0 10 58 4 68 -7z m132 5 c0 -13 -43 -30 -76 -30 -40
0 -23 24 22 31 21 3 42 7 47 8 4 0 7 -4 7 -9z m-117 -87 c-7 -2 -19 -2 -25 0
-7 3 -2 5 12 5 14 0 19 -2 13 -5z m0 -69 c-6 -17 -23 -9 -23 11 0 8 6 12 14 9
8 -3 12 -12 9 -20z"/>
</g>
</svg>
