<svg version="1.0" xmlns="http://www.w3.org/2000/svg"
 width="79.000000pt" height="89.000000pt" viewBox="0 0 79.000000 89.000000"
 preserveAspectRatio="xMidYMid meet">
<metadata>
Created by potrace 1.15, written by Peter Selinger 2001-2017
</metadata>
<g transform="translate(0.000000,89.000000) scale(0.100000,-0.100000)"
fill="#000000" stroke="none">
<path d="M320 784 c-19 -9 -46 -22 -60 -27 -99 -42 -141 -121 -160 -298 -12
-115 -12 -159 -2 -159 14 0 32 65 32 115 0 61 18 159 37 203 24 55 66 87 153
115 45 15 87 27 95 27 7 0 37 -19 67 -43 126 -102 215 -145 113 -55 -26 24
-57 52 -69 63 -70 67 -143 88 -206 59z"/>
<path d="M226 641 c-11 -16 -15 -127 -5 -142 7 -12 10 -12 18 -1 10 17 23 131
15 143 -7 11 -21 12 -28 0z"/>
<path d="M416 638 c-2 -7 -9 -33 -15 -58 -7 -25 -17 -59 -22 -76 -11 -37 -12
-134 -1 -134 4 0 14 6 21 13 12 10 12 8 6 -8 -5 -11 -10 -40 -13 -64 -2 -24
-18 -68 -34 -98 -18 -32 -28 -64 -26 -81 3 -26 4 -25 34 22 32 49 32 49 45 21
20 -41 44 -47 35 -9 -16 62 -18 105 -6 119 21 26 30 17 30 -32 0 -27 7 -57 16
-68 15 -20 15 -20 34 3 11 13 22 39 26 58 3 19 9 34 12 34 3 0 23 -12 44 -26
21 -15 42 -24 45 -20 4 4 3 10 -2 14 -36 26 -85 95 -85 120 0 16 -9 37 -20 47
-16 14 -19 26 -14 52 5 25 2 34 -10 39 -18 7 -66 82 -66 103 0 7 -7 19 -15 27
-12 12 -16 13 -19 2z m44 -124 c13 -24 12 -27 -10 -45 -14 -10 -28 -19 -32
-19 -12 0 -10 48 2 71 14 26 24 24 40 -7z m15 -106 c-9 -43 -12 -45 -30 -22
-25 33 -18 46 28 53 5 0 5 -14 2 -31z m45 -108 c0 -5 -4 -10 -10 -10 -5 0 -10
5 -10 10 0 6 5 10 10 10 6 0 10 -4 10 -10z"/>
<path d="M280 445 c-15 -38 -12 -81 5 -95 21 -17 22 -14 26 54 4 65 -13 88
-31 41z"/>
<path d="M182 417 c-8 -9 -7 -28 3 -66 15 -60 19 -66 34 -56 15 9 14 108 -1
123 -15 15 -23 15 -36 -1z"/>
</g>
</svg>
