<svg version="1.0" xmlns="http://www.w3.org/2000/svg"
 width="68.000000pt" height="79.000000pt" viewBox="0 0 68.000000 79.000000"
 preserveAspectRatio="xMidYMid meet">
<metadata>
Created by potrace 1.15, written by Peter Selinger 2001-2017
</metadata>
<g transform="translate(0.000000,79.000000) scale(0.100000,-0.100000)"
fill="#000000" stroke="none">
<path d="M155 600 c-70 -9 -97 -18 -89 -32 8 -12 184 1 201 14 7 6 10 14 7 19
-6 10 -31 10 -119 -1z"/>
<path d="M405 593 c-56 -14 -64 -51 -45 -198 10 -84 23 -95 102 -95 79 0 115
19 124 66 9 50 -2 203 -17 220 -11 14 -117 18 -164 7z m143 -69 c3 -32 3 -32
-80 -36 -46 -2 -84 -3 -86 -2 -2 1 0 14 4 29 8 34 35 45 104 42 54 -2 55 -3
58 -33z m2 -84 c0 -23 -41 -33 -110 -28 -38 2 -46 7 -48 26 -3 21 -1 22 77 22
74 0 81 -2 81 -20z m-12 -72 c-6 -44 -138 -51 -138 -8 0 20 19 26 98 29 40 1
43 -1 40 -21z"/>
<path d="M136 486 c-96 -13 -116 -36 -32 -36 56 0 56 0 56 -216 0 -215 0 -215
22 -212 22 3 22 4 19 219 -3 217 -3 217 34 225 20 5 38 14 38 19 3 14 -45 15
-137 1z"/>
<path d="M250 221 c0 -100 4 -181 9 -181 5 0 14 7 21 15 17 21 1 336 -17 343
-10 3 -13 -37 -13 -177z"/>
<path d="M75 248 c-9 -176 -6 -212 18 -216 16 -3 17 11 17 177 0 148 -3 181
-14 181 -11 0 -15 -31 -21 -142z"/>
<path d="M386 239 c-24 -19 -26 -26 -26 -94 0 -93 8 -101 107 -98 120 4 155
38 138 131 -13 73 -26 82 -114 82 -64 0 -83 -4 -105 -21z m69 -39 c0 -21 -5
-26 -32 -28 -27 -3 -33 0 -33 15 0 26 21 44 45 41 14 -2 20 -11 20 -28z m89
24 c24 -9 19 -33 -8 -40 -31 -7 -46 1 -46 27 0 19 23 25 54 13z m26 -86 c0
-36 -15 -50 -46 -46 -18 2 -30 10 -32 21 -7 33 6 47 43 47 30 0 35 -3 35 -22z
m-110 -23 c0 -31 -3 -35 -25 -35 -41 0 -61 55 -22 63 45 9 47 8 47 -28z"/>
</g>
</svg>
