<svg version="1.0" xmlns="http://www.w3.org/2000/svg"
 width="71.000000pt" height="131.000000pt" viewBox="0 0 71.000000 131.000000"
 preserveAspectRatio="xMidYMid meet">
<metadata>
Created by potrace 1.15, written by Peter Selinger 2001-2017
</metadata>
<g transform="translate(0.000000,131.000000) scale(0.100000,-0.100000)"
fill="#000000" stroke="none">
<path d="M312 1181 c-12 -10 -22 -21 -22 -25 0 -3 27 -6 60 -6 66 0 81 17 35
38 -35 16 -48 15 -73 -7z"/>
<path d="M159 1189 c-1 -2 -2 -20 -4 -39 -1 -19 -5 -54 -9 -77 -8 -43 -7 -43
22 -43 50 0 56 -16 77 -200 3 -30 10 -71 15 -90 35 -140 35 -127 9 -178 -13
-26 -26 -49 -29 -52 -18 -18 -30 -57 -30 -99 0 -27 -9 -69 -19 -94 -16 -38
-27 -139 -22 -206 3 -45 41 59 41 114 0 65 14 73 39 21 11 -25 21 -50 21 -56
0 -15 20 -12 26 3 3 8 0 34 -7 58 -24 94 -23 113 6 129 24 13 28 12 49 -11 53
-58 54 -85 4 -232 -11 -32 -17 -61 -14 -64 10 -11 53 48 67 91 18 58 19 59 36
39 13 -16 14 -9 10 65 -3 46 -1 112 4 148 10 72 3 101 -37 137 -26 24 -27 28
-21 99 8 98 64 338 79 338 22 0 4 20 -35 39 -31 15 -63 21 -114 21 -38 0 -84
5 -102 11 -28 10 -31 15 -31 50 0 37 2 39 30 39 35 0 40 15 8 23 -13 3 -33 9
-45 12 -13 4 -23 6 -24 4z m141 -185 c0 -15 -22 -44 -31 -39 -18 12 -10 45 11
45 11 0 20 -3 20 -6z m128 -9 c5 -5 -20 -77 -30 -89 -5 -6 -8 -5 -8 2 0 7 -9
32 -20 54 -11 23 -20 44 -20 46 0 5 73 -8 78 -13z m-107 -104 c-16 -17 -31
-27 -35 -24 -12 12 -6 37 15 59 18 19 24 21 35 9 12 -11 9 -18 -15 -44z m56
-43 c-3 -8 -6 -5 -6 6 -1 11 2 17 5 13 3 -3 4 -12 1 -19z m-19 -40 c14 -14 16
-74 2 -83 -5 -3 -15 5 -22 19 -6 14 -17 26 -25 26 -18 0 -17 15 3 34 19 19 26
20 42 4z m-8 -167 c-1 -29 -11 -17 -25 29 -7 22 -6 23 9 11 9 -7 16 -25 16
-40z m-20 -156 c0 -17 -57 -75 -74 -75 -12 0 -5 28 20 78 24 48 27 51 40 35 7
-10 14 -27 14 -38z m80 -29 c0 -58 -12 -73 -44 -58 -26 11 -36 32 -16 32 6 0
10 15 10 34 0 19 3 42 6 51 6 14 8 14 25 -1 13 -12 19 -31 19 -58z"/>
<path d="M450 840 c0 -5 7 -10 15 -10 8 0 26 -5 40 -12 25 -11 26 -13 18 -82
-8 -73 -7 -206 2 -214 14 -14 20 21 26 144 5 104 10 138 22 152 10 10 17 22
17 25 0 4 -31 7 -70 7 -40 0 -70 -4 -70 -10z"/>
<path d="M467 747 c-7 -19 4 -68 14 -61 12 7 12 74 0 74 -5 0 -11 -6 -14 -13z"/>
<path d="M577 743 c-3 -7 -2 -89 2 -103 5 -17 31 69 26 87 -5 23 -20 30 -28
16z"/>
</g>
</svg>
