<svg version="1.0" xmlns="http://www.w3.org/2000/svg"
 width="61.000000pt" height="93.000000pt" viewBox="0 0 61.000000 93.000000"
 preserveAspectRatio="xMidYMid meet">
<metadata>
Created by potrace 1.15, written by Peter Selinger 2001-2017
</metadata>
<g transform="translate(0.000000,93.000000) scale(0.100000,-0.100000)"
fill="#000000" stroke="none">
<path d="M269 827 c-14 -12 -34 -38 -43 -57 -17 -34 -16 -35 6 -54 21 -16 23
-26 21 -96 -1 -65 -7 -88 -33 -140 -22 -43 -30 -73 -27 -93 2 -17 -3 -47 -11
-68 -12 -32 -13 -44 -1 -83 22 -74 34 -58 29 37 -2 41 10 49 25 16 6 -12 14
-22 20 -23 16 -2 18 34 4 61 -11 20 -10 28 4 52 9 16 17 34 17 40 0 15 -27 14
-33 -1 -2 -7 -7 -10 -11 -7 -11 11 17 60 32 57 8 -2 25 -32 38 -67 27 -75 31
-80 41 -53 7 18 10 19 27 7 16 -12 17 -17 5 -44 -8 -17 -17 -31 -21 -31 -5 0
-8 -7 -8 -15 0 -21 12 -19 44 6 15 12 28 20 30 18 9 -11 26 -103 26 -138 0
-52 16 -53 25 -2 8 46 -2 122 -21 168 -8 18 -14 45 -14 61 0 16 -11 50 -25 76
-25 47 -25 48 -6 74 20 28 41 161 41 258 0 60 -7 64 -100 64 -42 -1 -61 -6
-81 -23z m145 -33 c13 -33 -5 -44 -69 -44 -65 0 -82 12 -70 49 4 13 17 15 69
13 44 -3 66 -8 70 -18z m-26 -90 c18 -5 22 -13 22 -50 0 -48 -15 -67 -24 -29
-9 34 -44 52 -53 28 -7 -19 -28 -43 -37 -43 -3 0 -6 20 -6 44 0 38 3 45 23 49
36 7 51 7 75 1z m-18 -170 c0 -20 -5 -24 -30 -24 -34 0 -37 10 -14 46 13 19
20 22 30 13 8 -6 14 -22 14 -35z m24 -119 c3 -9 0 -15 -9 -15 -8 0 -15 7 -15
15 0 8 4 15 9 15 5 0 11 -7 15 -15z"/>
<path d="M79 689 c-6 -3 4 -16 23 -27 33 -21 33 -21 30 -117 -2 -52 0 -95 4
-95 21 0 33 41 34 113 0 70 2 79 20 84 23 6 25 16 8 31 -15 12 -105 20 -119
11z"/>
<path d="M208 603 c-5 -27 3 -93 12 -93 10 0 20 64 13 89 -6 25 -20 27 -25 4z"/>
<path d="M68 599 c-6 -18 3 -79 12 -79 11 0 18 34 13 64 -5 27 -18 35 -25 15z"/>
</g>
</svg>
