<svg version="1.0" xmlns="http://www.w3.org/2000/svg"
 width="81.000000pt" height="87.000000pt" viewBox="0 0 81.000000 87.000000"
 preserveAspectRatio="xMidYMid meet">
<metadata>
Created by potrace 1.15, written by Peter Selinger 2001-2017
</metadata>
<g transform="translate(0.000000,87.000000) scale(0.100000,-0.100000)"
fill="#000000" stroke="none">
<path d="M149 756 c-13 -6 -25 -19 -27 -29 -3 -15 6 -17 66 -17 39 0 77 -2 85
-5 7 -3 24 3 37 13 24 19 24 19 2 31 -31 17 -135 21 -163 7z"/>
<path d="M409 701 c-20 -16 -21 -21 -10 -35 7 -9 26 -16 41 -16 17 0 30 -7 34
-17 10 -26 27 -284 20 -305 -3 -10 -13 -18 -22 -18 -27 0 -84 -39 -76 -52 4
-6 8 -38 9 -70 5 -131 59 -180 197 -179 45 0 84 4 87 8 3 5 13 9 21 11 25 6
36 20 50 64 7 24 16 54 21 68 10 27 16 147 7 155 -2 3 -27 8 -54 11 -27 4 -52
12 -56 18 -4 6 -8 82 -8 169 0 157 0 157 25 157 28 0 45 27 26 39 -7 4 -74 9
-150 10 -123 1 -141 -1 -162 -18z m209 -56 c21 -45 16 -55 -28 -55 -45 0 -56
14 -46 55 9 36 58 35 74 0z m12 -144 c0 -49 0 -49 -40 -56 -21 -4 -43 -4 -48
-2 -6 4 -8 78 -3 105 1 1 21 2 46 2 45 0 45 0 45 -49z m0 -125 c0 -36 -12 -46
-55 -46 -20 0 -35 17 -35 40 0 18 33 40 61 40 26 0 29 -3 29 -34z m73 -109
c10 -6 19 -26 20 -42 2 -29 1 -30 -43 -30 -45 0 -45 0 -48 43 -3 40 -2 42 26
42 15 0 36 -6 45 -13z m-139 -13 c3 -9 6 -27 6 -40 0 -23 -3 -24 -60 -24 -33
0 -60 2 -60 4 0 2 7 20 15 40 14 33 19 36 54 36 26 0 41 -5 45 -16z m6 -144
c0 -36 -2 -40 -22 -36 -42 8 -56 17 -60 41 -4 21 -1 25 26 28 17 2 37 5 44 5
8 1 12 -12 12 -38z m150 31 c0 -4 -5 -22 -11 -40 -10 -28 -15 -32 -43 -29 -28
3 -31 7 -34 41 -3 37 -3 37 42 37 25 0 46 -4 46 -9z"/>
<path d="M143 593 c-51 -4 -85 -25 -67 -43 5 -5 32 -10 59 -12 50 -3 50 -3 50
-210 0 -113 3 -210 8 -214 22 -23 32 26 41 204 4 103 12 197 17 209 7 18 17
22 60 25 29 2 54 8 56 13 2 6 -21 16 -50 23 -51 12 -67 12 -174 5z"/>
<path d="M83 433 c-15 -37 -24 -246 -12 -281 5 -14 9 -11 22 15 16 30 30 106
42 229 5 57 4 62 -15 67 -18 4 -25 -1 -37 -30z"/>
<path d="M306 453 c-2 -10 -7 -58 -11 -108 -3 -49 -8 -109 -12 -132 -7 -54 10
-57 34 -5 9 20 20 39 25 42 4 3 10 33 12 65 3 33 8 76 12 96 5 31 3 36 -21 47
-33 15 -33 15 -39 -5z"/>
</g>
</svg>
