<svg version="1.0" xmlns="http://www.w3.org/2000/svg"
 width="100.000000pt" height="100.000000pt" viewBox="0 0 100.000000 100.000000"
 preserveAspectRatio="xMidYMid meet">
<metadata>
Created by potrace 1.15, written by Peter Selinger 2001-2017
</metadata>
<g transform="translate(0.000000,100.000000) scale(0.100000,-0.100000)"
fill="#000000" stroke="none">
<path d="M693 895 c-113 -11 -138 -23 -102 -49 27 -18 68 -20 118 -6 19 5 74
10 123 11 61 2 92 7 100 16 31 38 -46 47 -239 28z"/>
<path d="M88 813 c-10 -2 -18 -13 -18 -23 0 -20 40 -34 71 -25 23 8 24 -1 19
-135 0 -8 0 -35 0 -59 1 -54 -7 -81 -25 -81 -7 0 -30 -16 -50 -35 -37 -34 -37
-34 -32 -117 3 -46 10 -103 16 -128 7 -25 14 -64 18 -87 4 -29 15 -51 39 -74
19 -18 34 -29 34 -25 0 4 7 0 16 -9 10 -10 26 -14 43 -11 14 3 49 8 77 11 44
6 56 12 81 43 65 80 95 174 96 298 1 83 -6 102 -44 116 -23 9 -39 83 -39 182
0 88 5 116 22 116 5 0 16 7 24 15 14 13 13 16 -8 24 -24 9 -309 13 -340 4z
m228 -60 c7 -10 14 -35 14 -55 0 -33 -3 -38 -24 -38 -13 0 -37 -3 -53 -6 -30
-6 -30 -6 -30 55 -1 61 -1 61 39 61 27 0 45 -6 54 -17z m20 -190 c9 -58 -1
-66 -69 -58 -56 7 -56 7 -51 39 9 50 12 54 36 58 67 12 77 8 84 -39z m9 -130
c59 -8 59 -8 67 -47 5 -21 7 -41 5 -42 -3 -3 -177 -17 -215 -17 -82 0 -92 3
-92 26 0 27 28 64 60 81 25 13 66 13 175 -1z m65 -148 c0 -3 -7 -21 -14 -40
-15 -35 -15 -35 -79 -35 -35 0 -92 -3 -126 -6 -61 -7 -61 -7 -61 20 0 19 5 26
20 26 11 0 28 4 38 9 9 5 53 14 97 19 107 12 125 13 125 7z m-60 -143 c0 -18
-57 -71 -82 -77 -31 -8 -98 20 -98 41 0 15 17 21 105 33 33 5 63 9 68 10 4 0
7 -3 7 -7z"/>
<path d="M640 734 c-113 -14 -154 -27 -147 -47 2 -8 34 -13 97 -15 53 -2 100
-8 108 -15 12 -9 14 -53 11 -251 -4 -236 -1 -257 28 -238 15 10 33 201 31 327
-3 160 -1 170 27 183 14 7 59 12 98 12 74 0 97 9 97 40 0 14 -17 16 -122 16
-68 0 -170 -5 -228 -12z"/>
<path d="M863 542 c-8 -35 -7 -193 2 -299 6 -68 10 -83 24 -83 34 0 40 14 35
75 -2 33 -4 65 -4 70 12 186 4 249 -32 258 -13 4 -20 -2 -25 -21z"/>
<path d="M566 538 c-5 -25 -18 -221 -20 -302 -1 -29 4 -51 10 -53 19 -6 43 25
49 65 4 20 9 44 12 52 3 8 8 56 10 107 3 70 1 98 -12 122 -18 36 -43 40 -49 9z"/>
</g>
</svg>
