<svg version="1.0" xmlns="http://www.w3.org/2000/svg"
 width="67.000000pt" height="79.000000pt" viewBox="0 0 67.000000 79.000000"
 preserveAspectRatio="xMidYMid meet">
<metadata>
Created by potrace 1.15, written by Peter Selinger 2001-2017
</metadata>
<g transform="translate(0.000000,79.000000) scale(0.100000,-0.100000)"
fill="#000000" stroke="none">
<path d="M304 693 c-3 -10 -9 -27 -14 -38 -9 -25 -126 -105 -152 -105 -28 0
-80 -29 -75 -43 7 -23 37 -18 122 23 48 22 91 41 97 43 6 1 14 -13 18 -30 7
-30 5 -33 -15 -33 -28 0 -55 -10 -55 -20 0 -4 43 -10 96 -13 53 -3 101 -10
107 -16 14 -14 -9 -17 -192 -30 -155 -10 -194 -22 -176 -51 9 -15 134 -8 144
8 9 14 151 25 180 14 25 -9 25 -9 0 -25 -26 -16 -141 -37 -208 -37 -28 0 -41
-4 -41 -14 0 -18 76 -26 167 -17 59 5 81 13 119 39 42 30 49 32 80 22 68 -23
87 8 24 36 -30 13 -40 24 -40 41 0 43 -33 63 -104 63 -64 0 -64 0 -54 38 5 20
11 38 13 40 1 2 43 -15 93 -37 49 -23 95 -41 101 -41 30 0 2 24 -88 75 -82 46
-100 61 -107 87 -11 37 -31 48 -40 21z"/>
<path d="M310 250 c0 -42 -22 -47 -63 -16 -39 30 -47 32 -47 12 0 -8 20 -32
45 -53 46 -39 46 -39 -22 -74 -37 -19 -69 -41 -71 -50 -5 -25 28 -32 52 -11
37 33 77 54 92 48 8 -3 14 -19 14 -35 0 -34 18 -51 31 -30 5 8 9 26 9 42 0 15
3 27 7 27 4 0 32 -12 61 -27 38 -19 56 -23 63 -16 16 16 4 30 -50 57 -53 28
-80 54 -65 64 6 4 27 17 47 30 20 13 37 30 37 38 0 19 -9 18 -48 -6 -41 -25
-41 -25 -52 5 -14 36 -40 33 -40 -5z"/>
</g>
</svg>
