<svg version="1.0" xmlns="http://www.w3.org/2000/svg"
 width="67.000000pt" height="87.000000pt" viewBox="0 0 67.000000 87.000000"
 preserveAspectRatio="xMidYMid meet">
<metadata>
Created by potrace 1.15, written by Peter Selinger 2001-2017
</metadata>
<g transform="translate(0.000000,87.000000) scale(0.100000,-0.100000)"
fill="#000000" stroke="none">
<path d="M457 684 c-4 -4 -7 -34 -7 -66 0 -55 -1 -58 -25 -58 -19 0 -25 5 -25
23 0 13 -6 32 -14 43 -20 26 -34 10 -42 -49 -6 -44 -5 -47 20 -57 15 -5 41
-10 57 -10 26 0 29 -3 29 -35 0 -34 0 -34 -57 -37 -44 -2 -58 -7 -58 -18 0
-11 17 -18 58 -24 67 -10 77 -31 18 -41 -64 -11 -72 -27 -78 -164 -5 -109 -4
-121 12 -127 27 -11 35 14 35 113 0 98 13 146 39 141 14 -3 16 -25 19 -141 2
-114 5 -139 18 -144 27 -10 34 18 34 150 0 136 3 142 52 116 19 -10 20 -16 13
-134 -7 -132 -1 -151 35 -115 23 23 24 35 8 171 -12 109 -12 109 -90 133 -10
3 -18 12 -18 20 0 15 30 26 77 26 35 0 53 17 32 31 -8 5 -33 9 -56 9 -32 0
-43 4 -43 16 0 32 20 54 50 54 16 0 36 7 44 16 17 17 21 80 7 103 -14 22 -41
5 -41 -26 0 -37 -13 -56 -36 -51 -16 3 -19 13 -19 68 0 58 -2 65 -20 68 -12 2
-24 0 -28 -4z"/>
<path d="M129 631 c-26 -27 -55 -64 -64 -81 -14 -28 -14 -31 0 -37 9 -3 21 -1
28 6 17 17 45 13 57 -8 5 -11 10 -40 10 -65 0 -46 0 -46 -53 -40 -40 5 -56 3
-65 -9 -21 -25 11 -47 69 -47 49 0 49 0 49 -117 0 -65 -4 -124 -8 -131 -6 -8
-28 -12 -68 -10 -53 3 -59 1 -59 -17 0 -19 7 -20 140 -20 118 0 140 2 140 15
0 10 -14 17 -45 20 -45 5 -45 5 -48 132 -3 141 -8 130 63 140 12 2 20 11 20
23 0 16 -8 21 -42 23 -42 3 -42 3 -36 50 6 52 30 89 47 72 13 -13 43 -13 51 0
16 26 -89 150 -126 150 -7 0 -34 -22 -60 -49z m90 -35 c9 -11 10 -20 1 -35
-13 -25 -29 -26 -55 -7 -19 14 -19 15 -1 35 22 25 39 27 55 7z"/>
<path d="M73 308 c-6 -7 -14 -43 -17 -79 -6 -51 -4 -68 7 -78 12 -9 18 -8 31
5 13 13 16 32 14 87 -3 69 -15 91 -35 65z"/>
<path d="M253 284 c-3 -9 -7 -44 -7 -78 -1 -55 1 -61 19 -61 18 0 20 8 23 78
2 65 0 77 -13 77 -9 0 -18 -7 -22 -16z"/>
</g>
</svg>
