<svg version="1.0" xmlns="http://www.w3.org/2000/svg"
 width="72.000000pt" height="82.000000pt" viewBox="0 0 72.000000 82.000000"
 preserveAspectRatio="xMidYMid meet">
<metadata>
Created by potrace 1.15, written by Peter Selinger 2001-2017
</metadata>
<g transform="translate(0.000000,82.000000) scale(0.100000,-0.100000)"
fill="#000000" stroke="none">
<path d="M132 595 c-39 -17 -48 -36 -36 -83 7 -27 16 -38 34 -42 18 -4 26 -14
28 -32 3 -21 -2 -27 -25 -33 -41 -10 -53 -24 -53 -59 0 -39 15 -56 52 -56 21
0 28 -5 28 -19 0 -14 -10 -21 -35 -25 -19 -4 -39 -15 -45 -26 -16 -29 -13
-135 5 -150 24 -20 35 -2 35 59 0 45 4 62 20 76 20 18 20 17 20 -79 0 -87 2
-97 18 -94 14 3 17 17 20 88 3 92 14 117 38 86 9 -13 14 -44 14 -86 0 -72 6
-86 27 -69 9 8 13 35 13 84 0 63 -3 76 -25 99 -13 14 -31 26 -40 26 -29 0 -15
25 25 42 67 28 67 92 -1 114 -43 15 -47 29 -12 47 50 26 66 52 59 92 -5 26
-14 39 -32 45 -36 14 -93 12 -132 -5z m112 -48 c14 -24 -15 -47 -59 -47 -53 0
-74 38 -32 58 31 16 78 10 91 -11z m-4 -177 c13 -9 12 -13 -9 -30 -23 -20 -64
-26 -95 -14 -19 7 -21 40 -3 47 22 9 92 7 107 -3z"/>
<path d="M438 599 c-10 -5 -18 -18 -18 -29 0 -14 -8 -20 -32 -22 -45 -4 -41
-22 5 -26 39 -3 39 -3 13 -27 -14 -13 -34 -26 -45 -30 -29 -9 -47 -33 -33 -47
7 -7 19 -4 41 11 59 42 86 46 146 20 30 -13 56 -28 58 -34 3 -6 -40 -11 -112
-13 -134 -3 -141 -7 -141 -87 0 -66 20 -95 66 -95 33 0 34 -1 34 -38 0 -34 -5
-42 -45 -71 -25 -18 -45 -39 -45 -47 0 -30 30 -26 72 10 23 20 49 36 58 36 9
0 31 -18 49 -40 24 -31 39 -40 62 -40 38 0 50 27 21 49 -12 9 -42 31 -67 50
-37 27 -45 39 -43 60 3 23 8 26 48 29 63 5 80 23 80 89 0 30 -5 63 -10 74 -9
16 -7 19 15 19 29 0 43 25 28 48 -5 9 -32 21 -59 27 -27 6 -60 18 -74 26 -24
13 -22 14 40 19 57 4 65 8 65 25 0 18 -6 20 -57 17 -54 -4 -58 -2 -68 22 -10
28 -24 32 -52 15z m110 -251 c-3 -9 -34 -14 -96 -16 -77 -2 -92 0 -92 13 0 12
16 15 96 15 72 0 95 -3 92 -12z m7 -57 c10 -17 -17 -24 -94 -28 -76 -4 -110 5
-97 26 9 14 182 15 191 2z"/>
<path d="M341 182 c-38 -54 -15 -74 29 -27 22 23 22 27 8 41 -14 14 -17 13
-37 -14z"/>
<path d="M542 183 c3 -18 72 -63 96 -63 27 0 26 33 -2 57 -34 29 -99 33 -94 6z"/>
</g>
</svg>
