<svg version="1.0" xmlns="http://www.w3.org/2000/svg"
 width="49.000000pt" height="85.000000pt" viewBox="0 0 49.000000 85.000000"
 preserveAspectRatio="xMidYMid meet">
<metadata>
Created by potrace 1.15, written by Peter Selinger 2001-2017
</metadata>
<g transform="translate(0.000000,85.000000) scale(0.100000,-0.100000)"
fill="#000000" stroke="none">
<path d="M150 653 c-6 -21 -15 -65 -20 -98 -15 -99 -26 -149 -38 -172 -16 -28
-15 -33 3 -33 8 0 27 18 41 40 32 48 47 50 64 9 15 -34 1 -97 -25 -119 -8 -7
-15 -19 -15 -27 0 -14 -20 -67 -41 -105 -11 -21 -12 -48 -1 -48 17 1 30 21 86
128 64 125 64 130 17 210 -40 67 -58 121 -45 130 14 9 24 74 17 101 -9 33 -31
24 -43 -16z"/>
<path d="M375 633 c-11 -71 -14 -79 -40 -109 -14 -16 -25 -35 -25 -41 0 -7 -4
-13 -9 -13 -19 0 -33 -58 -22 -92 6 -18 20 -77 32 -130 12 -54 25 -98 30 -98
16 0 9 129 -11 201 -19 71 -19 71 15 105 19 19 36 34 38 34 3 0 10 -15 17 -32
33 -85 45 -108 54 -105 19 6 17 74 -3 138 -12 34 -21 82 -21 106 0 72 -45 101
-55 36z"/>
</g>
</svg>
