<svg version="1.0" xmlns="http://www.w3.org/2000/svg"
 width="51.000000pt" height="79.000000pt" viewBox="0 0 51.000000 79.000000"
 preserveAspectRatio="xMidYMid meet">
<metadata>
Created by potrace 1.15, written by Peter Selinger 2001-2017
</metadata>
<g transform="translate(0.000000,79.000000) scale(0.100000,-0.100000)"
fill="#000000" stroke="none">
<path d="M289 653 c-1 -32 -4 -85 -8 -118 -7 -64 4 -110 30 -135 22 -21 28
-50 38 -175 5 -60 12 -122 16 -137 16 -62 25 -8 25 135 -1 152 -1 152 -31 189
-16 20 -29 47 -29 59 0 19 3 18 40 -15 39 -35 60 -39 60 -13 0 16 -38 58 -78
86 -30 21 -33 27 -27 55 10 41 8 64 -6 98 -18 44 -29 33 -30 -29z"/>
<path d="M170 643 c0 -52 -4 -63 -41 -112 -39 -52 -45 -81 -15 -81 8 0 24 14
36 30 12 17 26 30 31 30 21 0 6 -30 -35 -74 -49 -51 -50 -55 -25 -206 15 -91
18 -100 36 -100 17 0 17 -3 -6 174 -7 59 -7 59 36 89 43 31 43 31 43 97 0 75
-17 179 -32 198 -20 24 -28 11 -28 -45z"/>
</g>
</svg>
