<svg version="1.0" xmlns="http://www.w3.org/2000/svg"
 width="63.000000pt" height="123.000000pt" viewBox="0 0 63.000000 123.000000"
 preserveAspectRatio="xMidYMid meet">
<metadata>
Created by potrace 1.15, written by Peter Selinger 2001-2017
</metadata>
<g transform="translate(0.000000,123.000000) scale(0.100000,-0.100000)"
fill="#000000" stroke="none">
<path d="M306 1005 c-4 -14 -9 -52 -11 -85 -5 -58 -50 -169 -75 -185 -5 -3
-10 -13 -10 -21 0 -9 -7 -22 -15 -30 -18 -18 -20 -34 -4 -34 14 0 28 16 67 73
18 26 37 47 42 47 12 0 14 -97 3 -102 -18 -8 -78 -94 -90 -131 -12 -35 -12
-70 -2 -229 17 -248 32 -235 39 32 5 199 5 199 55 250 50 51 50 51 47 233 -3
168 -9 207 -32 207 -4 0 -11 -11 -14 -25z"/>
<path d="M456 978 c-9 -59 -16 -121 -25 -228 -9 -120 -1 -153 50 -201 30 -28
31 -31 21 -72 -26 -100 -39 -278 -25 -340 17 -77 28 -42 35 108 5 121 10 159
27 197 27 59 21 88 -31 151 -39 47 -40 50 -33 102 3 30 10 57 14 60 5 2 30
-20 56 -50 50 -59 65 -67 65 -35 0 11 -4 20 -10 20 -5 0 -10 6 -10 13 0 6 -23
43 -51 80 -51 68 -51 68 -44 133 5 45 3 69 -5 79 -19 23 -29 18 -34 -17z"/>
<path d="M410 10 c0 -5 5 -10 10 -10 6 0 10 5 10 10 0 6 -4 10 -10 10 -5 0
-10 -4 -10 -10z"/>
</g>
</svg>
