<svg version="1.0" xmlns="http://www.w3.org/2000/svg"
 width="59.000000pt" height="87.000000pt" viewBox="0 0 59.000000 87.000000"
 preserveAspectRatio="xMidYMid meet">
<metadata>
Created by potrace 1.15, written by Peter Selinger 2001-2017
</metadata>
<g transform="translate(0.000000,87.000000) scale(0.100000,-0.100000)"
fill="#000000" stroke="none">
<path d="M275 665 c-3 -8 -7 -22 -10 -30 -3 -9 -17 -15 -38 -15 -37 0 -108
-45 -126 -79 -27 -50 -3 -95 57 -107 30 -6 32 -10 32 -46 0 -31 -7 -49 -30
-75 -54 -61 -31 -143 39 -143 20 0 42 -5 49 -12 14 -14 16 -94 2 -103 -19 -12
-10 -35 14 -35 35 0 45 18 48 90 3 63 4 64 35 72 21 6 38 19 48 38 20 38 19
45 -6 80 -17 22 -20 36 -15 62 4 18 8 43 9 56 1 16 8 22 25 22 35 0 60 17 78
52 15 30 15 34 0 63 -22 39 -58 61 -119 69 -38 6 -50 12 -57 32 -11 27 -28 32
-35 9z m118 -90 c63 -26 76 -78 25 -100 -31 -13 -34 -13 -53 8 -25 28 -66 57
-81 57 -6 0 -29 -18 -51 -40 -36 -37 -42 -40 -67 -31 -34 14 -42 35 -23 65 32
49 175 72 250 41z m-60 -113 c18 -30 18 -38 7 -73 -11 -34 -11 -44 4 -78 10
-21 16 -47 14 -57 -7 -39 -105 -58 -158 -31 -32 17 -31 64 1 88 19 14 21 23
16 65 -6 53 3 79 37 106 30 25 57 18 79 -20z"/>
</g>
</svg>
