<svg version="1.0" xmlns="http://www.w3.org/2000/svg"
 width="66.000000pt" height="79.000000pt" viewBox="0 0 66.000000 79.000000"
 preserveAspectRatio="xMidYMid meet">
<metadata>
Created by potrace 1.15, written by Peter Selinger 2001-2017
</metadata>
<g transform="translate(0.000000,79.000000) scale(0.100000,-0.100000)"
fill="#000000" stroke="none">
<path d="M321 607 c-18 -23 -5 -37 35 -37 41 0 43 -9 9 -40 -14 -13 -25 -27
-25 -32 0 -19 32 -5 71 32 65 61 90 50 48 -20 -26 -43 -36 -50 -71 -50 -47 0
-58 -38 -58 -201 0 -146 10 -203 39 -214 9 -4 52 -9 96 -12 70 -5 83 -3 104
14 21 17 23 25 17 66 -8 55 -31 63 -44 15 -9 -37 -45 -51 -115 -46 -42 3 -42
3 -45 59 -3 56 -3 56 95 63 54 4 102 11 106 15 17 17 -5 31 -49 31 -52 0 -58
16 -9 26 50 9 46 34 -5 34 -33 0 -40 3 -40 20 0 19 14 26 70 32 41 5 28 23
-20 28 -31 3 -46 10 -48 22 -2 13 8 18 49 25 67 10 78 33 17 33 -25 0 -48 3
-51 6 -9 9 10 43 42 77 25 28 26 29 7 43 -11 8 -40 14 -65 14 -25 0 -69 3 -96
6 -39 5 -54 3 -64 -9z m129 -197 c0 -17 -7 -20 -40 -20 -22 0 -40 4 -40 8 0
17 25 32 52 32 21 0 28 -5 28 -20z m0 -85 c0 -22 -4 -25 -40 -25 -32 0 -40 4
-40 18 0 26 9 32 47 32 29 0 33 -3 33 -25z m0 -70 c0 -11 -11 -15 -40 -15 -38
0 -49 8 -33 23 3 4 21 7 40 7 23 0 33 -5 33 -15z"/>
<path d="M205 576 c-34 -45 -61 -51 -81 -20 -19 28 -54 32 -54 6 0 -24 20 -50
50 -65 31 -16 39 -47 12 -47 -11 0 -30 -8 -43 -19 -21 -17 -22 -23 -14 -57 8
-30 18 -42 43 -53 38 -17 41 -33 8 -51 -30 -16 -50 -61 -42 -94 4 -17 18 -29
42 -38 36 -13 36 -13 30 -70 -5 -53 -4 -58 14 -58 27 0 38 25 32 81 -4 41 -2
50 14 55 32 12 54 36 54 59 0 22 -32 57 -62 68 -27 10 -21 35 12 52 60 31 57
95 -5 123 -31 14 -31 23 0 52 39 37 56 110 25 110 -5 0 -21 -15 -35 -34z m15
-176 c13 -8 13 -11 0 -24 -18 -18 -101 -26 -107 -10 -11 33 69 58 107 34z
m-16 -166 c21 -8 21 -40 0 -48 -31 -12 -75 -6 -81 10 -11 30 40 54 81 38z"/>
</g>
</svg>
