<svg version="1.0" xmlns="http://www.w3.org/2000/svg"
 width="113.000000pt" height="151.000000pt" viewBox="0 0 113.000000 151.000000"
 preserveAspectRatio="xMidYMid meet">
<metadata>
Created by potrace 1.15, written by Peter Selinger 2001-2017
</metadata>
<g transform="translate(0.000000,151.000000) scale(0.100000,-0.100000)"
fill="#000000" stroke="none">
<path d="M601 1408 c-170 -86 -224 -124 -200 -139 23 -16 78 0 125 36 45 34
45 34 85 5 22 -16 46 -31 52 -33 12 -4 -44 -67 -60 -67 -18 0 -33 -59 -33
-132 0 -83 22 -148 61 -184 10 -9 19 -21 19 -26 0 -5 9 -18 20 -30 11 -12 20
-32 20 -45 0 -13 3 -23 8 -23 7 0 19 -26 40 -85 14 -41 32 -196 32 -282 0 -73
15 -103 53 -103 14 0 15 16 10 145 -7 162 -19 147 129 150 54 1 62 6 53 33 -6
22 -52 34 -137 36 -26 1 -51 6 -56 11 -16 19 -44 127 -35 136 5 5 38 11 73 14
35 3 67 10 71 17 11 18 0 36 -24 36 -63 2 -173 16 -184 24 -10 8 -53 91 -53
103 0 11 98 3 135 -12 22 -9 58 -17 81 -18 22 -2 56 -12 75 -24 34 -21 89 -29
89 -13 0 12 -44 52 -57 52 -6 0 -50 18 -99 41 -104 47 -116 52 -169 69 -52 16
-65 28 -57 48 7 21 28 42 40 42 5 0 15 7 22 15 7 8 19 15 26 15 20 0 94 -33
94 -42 0 -5 8 -8 18 -8 9 0 28 -9 42 -20 14 -11 30 -20 36 -20 15 0 76 -31 92
-47 16 -16 62 -17 62 -2 0 18 -72 79 -100 86 -23 5 -99 42 -110 53 -3 3 -17
11 -32 19 -16 8 -28 17 -28 20 0 4 18 17 40 31 22 14 46 37 53 53 6 15 15 27
19 27 5 0 8 15 8 33 -1 62 -42 88 -131 86 -55 -2 -78 -10 -218 -81z m255 8
c12 -13 9 -18 -23 -43 -21 -15 -40 -30 -43 -33 -9 -9 -50 -30 -58 -30 -18 0
-74 62 -65 71 17 17 107 47 141 48 18 1 40 -5 48 -13z"/>
<path d="M223 1413 c-34 -13 -2 -62 61 -93 25 -13 29 -13 42 5 36 49 -41 114
-103 88z"/>
<path d="M110 1295 c0 -9 7 -18 16 -22 23 -9 73 -62 92 -98 10 -20 16 -60 17
-115 2 -97 14 -190 25 -190 4 0 13 -13 20 -30 7 -16 16 -30 21 -30 4 0 10 -8
13 -17 8 -25 108 -133 124 -133 27 0 9 46 -45 119 -83 108 -83 110 -83 230 0
90 -4 117 -23 162 -47 111 -76 139 -144 139 -23 0 -33 -5 -33 -15z"/>
<path d="M74 1165 c-13 -51 3 -90 47 -113 23 -12 43 -22 45 -22 12 0 1 45 -22
87 -45 82 -59 91 -70 48z"/>
<path d="M413 995 c-6 -16 44 -106 62 -112 6 -1 16 1 24 6 20 13 6 58 -29 92
-32 33 -48 36 -57 14z"/>
<path d="M190 771 c0 -37 40 -95 68 -99 26 -4 27 2 7 59 -24 68 -75 96 -75 40z"/>
<path d="M347 549 c-64 -17 -114 -51 -126 -86 -21 -56 -17 -104 11 -124 56
-43 166 -61 237 -37 97 31 129 56 151 119 12 34 11 39 -14 71 -42 56 -163 83
-259 57z m204 -69 c11 -17 3 -73 -10 -78 -5 -2 -22 -14 -38 -28 -23 -20 -39
-24 -89 -24 -63 0 -123 15 -136 34 -12 17 -9 56 5 70 14 14 61 33 97 40 53 9
161 1 171 -14z"/>
<path d="M304 179 c-63 -18 -69 -97 -11 -151 31 -27 34 -28 142 -28 111 0 111
0 143 36 50 56 37 113 -31 142 -32 14 -197 15 -243 1z m209 -43 c22 -17 22
-44 0 -68 -12 -14 -31 -18 -84 -18 -107 0 -117 9 -73 67 23 31 29 33 82 33 31
0 65 -7 75 -14z"/>
</g>
</svg>
