<svg version="1.0" xmlns="http://www.w3.org/2000/svg"
 width="233.000000pt" height="145.000000pt" viewBox="0 0 233.000000 145.000000"
 preserveAspectRatio="xMidYMid meet">
<metadata>
Created by potrace 1.15, written by Peter Selinger 2001-2017
</metadata>
<g transform="translate(0.000000,145.000000) scale(0.100000,-0.100000)"
fill="#000000" stroke="none">
<path d="M935 1359 c-22 -5 -56 -13 -75 -19 -19 -5 -62 -12 -95 -14 -122 -8
-176 -26 -155 -51 9 -10 82 -18 170 -17 30 0 216 52 303 84 15 6 27 14 27 19
0 11 -122 10 -175 -2z"/>
<path d="M1010 1226 c-138 -25 -229 -68 -237 -111 -2 -11 -3 -60 -3 -110 0
-69 4 -102 21 -142 12 -29 25 -53 29 -53 4 0 12 -11 18 -24 6 -14 21 -36 33
-49 11 -14 20 -29 18 -34 -4 -10 -67 -33 -94 -33 -19 0 -45 -38 -45 -65 0 -21
46 -35 82 -25 18 5 36 10 41 10 14 0 63 29 76 44 8 9 23 16 35 16 11 0 39 18
60 40 22 22 43 40 47 40 11 0 120 74 146 99 12 12 26 21 31 21 5 0 17 9 27 20
16 17 16 20 2 20 -14 0 -15 10 -10 70 3 41 2 75 -4 82 -6 7 -13 25 -16 39 -4
15 -27 48 -52 75 -25 27 -45 52 -45 56 0 7 -68 29 -85 27 -5 -1 -39 -7 -75
-13z m97 -68 c44 0 93 -46 106 -100 6 -22 3 -26 -21 -31 -15 -3 -49 -11 -76
-16 -57 -13 -66 -6 -66 46 0 17 -4 35 -10 38 -26 16 -4 83 23 68 5 -3 24 -5
44 -5z m-113 -50 c8 -18 17 -52 21 -74 6 -40 5 -42 -22 -47 -15 -3 -48 -11
-73 -17 -101 -25 -100 -25 -101 6 0 16 -2 38 -4 49 -4 22 55 91 90 105 44 19
73 12 89 -22z m236 -142 c0 -39 -28 -93 -58 -115 -28 -20 -30 -20 -46 -2 -9 9
-16 25 -16 35 0 9 -5 26 -11 38 -13 25 -11 27 53 49 70 24 78 23 78 -5z m-176
-65 c31 -96 13 -127 -78 -132 -44 -3 -51 0 -92 39 -24 23 -44 46 -44 52 0 13
48 63 75 78 11 6 43 12 71 12 52 0 52 0 68 -49z"/>
<path d="M90 1118 c0 -29 60 -45 174 -47 59 -1 117 -6 127 -11 10 -6 27 -10
38 -10 27 0 26 -11 -1 -38 -33 -30 -68 -41 -98 -30 -14 5 -62 10 -107 11 -46
1 -83 5 -83 9 0 17 -40 7 -60 -14 -25 -27 -50 -75 -50 -96 0 -28 43 -79 75
-91 17 -6 66 -15 108 -21 42 -5 86 -15 98 -22 34 -21 59 -91 59 -166 0 -106
-21 -149 -180 -376 -8 -11 -20 -24 -27 -29 -7 -4 -18 -14 -25 -21 -8 -7 -28
-21 -45 -29 -17 -9 -33 -25 -36 -36 -4 -18 -1 -19 35 -15 36 5 118 48 118 63
0 3 14 22 30 41 16 19 30 39 30 43 0 5 12 27 28 50 53 82 58 91 83 152 12 32
20 84 26 179 9 147 -25 187 -189 225 -26 6 -51 10 -55 9 -34 -9 -90 53 -77 85
12 32 93 36 191 11 66 -17 152 -18 173 -1 31 24 58 73 61 111 4 38 3 40 -31
47 -61 13 -121 19 -257 25 -113 6 -133 5 -133 -8z"/>
<path d="M1928 659 c-14 -8 -18 -24 -18 -74 0 -35 4 -75 9 -89 14 -34 1 -42
-94 -56 -44 -7 -90 -16 -103 -21 -13 -5 -33 -9 -45 -9 -12 -1 -33 -7 -46 -14
-38 -21 -3 -27 92 -15 45 5 114 9 152 7 70 -3 70 -3 73 -84 3 -81 3 -81 -70
-116 -75 -37 -146 -58 -193 -58 -21 0 -26 -4 -21 -16 3 -9 6 -18 6 -20 0 -2
29 -4 65 -4 60 0 96 10 177 51 10 5 40 9 68 9 28 0 77 9 109 20 32 10 96 21
142 24 85 5 96 10 80 35 -9 13 -38 21 -166 42 -33 5 -67 12 -76 14 -20 7 -39
47 -39 84 0 33 28 49 105 61 77 12 106 20 129 33 12 6 24 11 28 12 3 0 9 3 12
8 3 4 3 5 -1 2 -3 -3 -12 0 -19 6 -15 12 -47 13 -178 4 -116 -7 -115 -7 -116
80 -1 56 -15 95 -36 95 -5 0 -17 -5 -26 -11z"/>
<path d="M1108 518 c-21 -5 -38 -14 -38 -19 0 -5 -7 -9 -16 -9 -24 0 -42 -24
-86 -111 -36 -72 -39 -84 -27 -105 7 -13 15 -24 19 -24 4 0 31 -22 60 -50 47
-44 59 -50 96 -50 24 0 68 9 99 21 80 30 105 71 113 184 5 86 5 86 -32 119
-21 20 -52 37 -74 41 -20 3 -46 8 -57 10 -11 2 -37 -1 -57 -7z m101 -48 c53
-14 75 -46 65 -94 -3 -20 -10 -38 -14 -41 -9 -6 -70 49 -70 63 0 7 -15 12 -35
12 -63 0 -104 32 -64 50 8 4 23 12 34 18 11 6 25 9 32 7 6 -2 30 -9 52 -15z
m-114 -87 c40 -19 41 -23 20 -63 -21 -41 -44 -51 -72 -32 -49 31 -63 95 -25
105 31 8 41 7 77 -10z m120 -69 c28 -18 24 -37 -11 -53 -26 -11 -74 -15 -74
-5 0 8 21 46 34 60 15 17 22 17 51 -2z"/>
<path d="M2315 520 c-3 -5 -1 -10 4 -10 6 0 11 5 11 10 0 6 -2 10 -4 10 -3 0
-8 -4 -11 -10z"/>
</g>
</svg>
