<svg version="1.0" xmlns="http://www.w3.org/2000/svg"
 width="127.000000pt" height="165.000000pt" viewBox="0 0 127.000000 165.000000"
 preserveAspectRatio="xMidYMid meet">
<metadata>
Created by potrace 1.15, written by Peter Selinger 2001-2017
</metadata>
<g transform="translate(0.000000,165.000000) scale(0.100000,-0.100000)"
fill="#000000" stroke="none">
<path d="M900 1494 c0 -16 23 -126 41 -195 5 -20 9 -51 9 -68 0 -18 4 -40 10
-50 17 -32 -29 -155 -99 -265 -37 -59 -39 -93 -9 -132 32 -41 33 -42 107 -36
64 4 68 3 74 -18 3 -12 3 -28 1 -35 -7 -16 -86 -51 -139 -61 -22 -4 -53 -16
-68 -26 -24 -18 -27 -24 -21 -56 4 -21 10 -39 14 -42 3 -3 9 -13 13 -23 4 -10
27 -30 51 -45 24 -15 52 -39 61 -54 22 -37 25 -110 7 -166 -14 -42 -14 -46 3
-58 16 -12 21 -11 37 3 10 9 18 24 18 34 0 9 9 38 20 64 40 94 17 145 -103
225 -27 19 -37 32 -37 52 0 23 6 29 38 37 20 6 44 11 53 11 9 0 43 16 77 36
68 41 84 72 60 121 -15 31 -69 62 -109 63 -29 0 -89 18 -103 31 -6 5 -3 16 7
27 9 10 17 22 17 26 0 4 14 27 30 51 17 24 30 46 30 50 0 3 9 15 20 27 15 17
20 36 20 79 0 60 7 89 21 89 4 0 28 -13 52 -30 25 -16 50 -30 56 -30 6 0 20
-6 31 -12 15 -10 25 -10 38 -2 26 17 21 26 -39 67 -29 21 -62 44 -72 52 -9 8
-21 15 -25 15 -20 0 -72 64 -78 95 -3 19 -10 38 -15 41 -5 3 -9 21 -9 40 0 24
-8 43 -25 59 -28 28 -65 33 -65 9z"/>
<path d="M267 1473 c-26 -4 -28 -8 -22 -31 4 -15 8 -28 9 -30 3 -3 238 -13
361 -15 86 -2 90 -1 93 20 4 28 -29 43 -86 41 -20 -1 -86 4 -147 10 -109 12
-154 13 -208 5z"/>
<path d="M260 1308 c-25 -12 -51 -28 -58 -35 -26 -25 -52 -117 -52 -181 0 -62
1 -64 47 -110 48 -47 73 -58 183 -78 56 -10 211 -9 257 3 57 14 68 25 103 98
32 68 37 114 18 177 -12 42 -70 108 -94 108 -8 0 -14 3 -14 8 0 14 -130 32
-237 32 -91 0 -115 -3 -153 -22z m158 -27 c10 -6 12 -23 6 -70 -3 -34 -10 -64
-14 -66 -11 -7 -156 6 -171 15 -17 11 -3 58 25 83 35 31 129 54 154 38z m171
-23 c48 -17 70 -36 87 -77 25 -60 23 -63 -63 -56 -116 9 -123 11 -123 42 0 14
5 43 12 64 12 43 27 48 87 27z m-257 -180 c78 -12 78 -12 78 -70 0 -32 -2 -58
-5 -58 -2 0 -14 4 -27 9 -13 5 -48 15 -80 21 -51 12 -57 16 -70 49 -26 65 -19
68 104 49z m281 -25 c63 -5 67 -7 61 -27 -3 -11 -8 -29 -10 -39 -8 -26 -33
-35 -104 -37 -95 -2 -90 -4 -79 29 5 15 9 32 8 37 -1 5 -1 20 0 33 1 20 5 22
29 17 15 -4 57 -9 95 -13z"/>
<path d="M1135 960 c-3 -5 -1 -10 4 -10 6 0 11 5 11 10 0 6 -2 10 -4 10 -3 0
-8 -4 -11 -10z"/>
<path d="M245 812 c-78 -4 -98 -10 -83 -25 21 -21 96 -36 213 -42 61 -3 156
-8 213 -11 86 -5 102 -3 102 9 0 24 -47 48 -103 53 -103 10 -293 19 -342 16z"/>
<path d="M216 659 c-99 -15 -120 -35 -130 -119 -3 -25 -8 -63 -12 -85 -11 -69
43 -162 113 -199 74 -38 118 -46 249 -46 132 0 132 0 178 50 64 72 85 162 61
270 -13 60 -95 120 -163 120 -11 0 -24 5 -27 11 -8 11 -187 10 -269 -2z m117
-94 c4 -25 9 -56 13 -70 6 -25 6 -25 -95 -25 -101 0 -101 0 -96 25 3 14 7 35
10 48 3 17 16 27 42 35 39 12 103 29 114 31 4 1 9 -19 12 -44z m242 -13 c5 -9
13 -28 16 -42 4 -14 10 -34 14 -44 8 -18 4 -19 -85 -13 -52 4 -98 11 -103 16
-11 11 2 78 19 96 20 20 125 10 139 -13z m-231 -169 c-4 -16 -9 -46 -10 -68
-1 -38 -3 -40 -30 -37 -47 6 -130 51 -142 77 -22 47 -9 55 95 55 95 0 95 0 87
-27z m224 7 c37 0 41 -14 17 -65 -18 -36 -63 -55 -134 -55 -41 0 -41 0 -41 58
0 32 3 62 8 66 4 4 32 5 62 2 30 -3 70 -5 88 -6z"/>
<path d="M123 99 c-18 -5 -33 -14 -33 -19 0 -16 101 -40 190 -46 47 -3 112
-10 145 -15 33 -5 101 -9 150 -9 78 0 92 3 102 19 11 18 9 21 -20 30 -18 6
-70 13 -117 16 -47 3 -125 10 -175 16 -150 17 -208 19 -242 8z"/>
</g>
</svg>
