<svg version="1.0" xmlns="http://www.w3.org/2000/svg"
 width="123.000000pt" height="181.000000pt" viewBox="0 0 123.000000 181.000000"
 preserveAspectRatio="xMidYMid meet">
<metadata>
Created by potrace 1.15, written by Peter Selinger 2001-2017
</metadata>
<g transform="translate(0.000000,181.000000) scale(0.100000,-0.100000)"
fill="#000000" stroke="none">
<path d="M183 1683 c-15 -6 -17 -36 -3 -61 41 -73 48 -101 36 -137 -13 -37
-66 -114 -78 -115 -5 0 -8 -6 -8 -13 0 -8 -9 -22 -20 -32 -24 -22 -27 -75 -4
-75 17 0 124 88 124 102 0 5 5 14 10 21 6 7 17 21 25 32 13 20 14 20 39 -4 14
-14 26 -32 26 -41 0 -9 5 -21 11 -27 17 -17 17 -135 2 -140 -7 -3 -13 -12 -13
-21 0 -9 -22 -33 -48 -52 -63 -47 -68 -52 -92 -96 -27 -48 -30 -127 -7 -176
20 -42 65 -83 117 -106 19 -9 37 -17 38 -19 2 -1 -3 -14 -11 -30 -55 -105 -97
-315 -97 -484 0 -77 4 -100 20 -127 38 -61 46 -29 54 199 2 75 9 155 15 178 6
22 16 60 22 84 18 71 69 159 115 201 24 22 44 43 44 48 0 4 -14 14 -30 23 -22
12 -35 13 -49 5 -31 -16 -61 -12 -106 15 -49 28 -57 49 -48 124 6 49 11 59 62
110 90 89 106 117 105 182 -1 66 -20 111 -80 191 -24 32 -59 90 -78 131 -31
65 -67 118 -77 116 -2 0 -10 -3 -16 -6z"/>
<path d="M688 1625 c-4 -4 -33 -9 -64 -11 -65 -5 -67 -6 -59 -26 11 -28 54
-37 175 -37 66 0 125 -3 129 -5 13 -9 182 -9 224 -1 20 4 37 10 37 14 0 19
-103 50 -180 55 -30 2 -100 7 -155 11 -55 4 -103 4 -107 0z"/>
<path d="M770 1421 c-8 -6 -37 -11 -63 -11 -36 0 -54 -6 -72 -22 -60 -58 -87
-156 -65 -237 17 -63 85 -133 147 -149 26 -7 62 -17 79 -22 44 -14 215 -12
246 2 27 13 88 102 88 129 0 8 6 21 13 28 7 8 12 39 11 87 -1 86 -9 99 -86
139 -82 43 -266 77 -298 56z m63 -113 c-9 -86 -12 -88 -96 -82 -87 7 -97 9
-97 27 0 35 68 86 135 100 61 14 65 11 58 -45z m167 25 c42 -9 70 -42 70 -82
0 -55 -6 -59 -90 -52 -75 6 -75 6 -71 61 4 71 16 94 44 85 12 -4 33 -9 47 -12z
m-208 -181 c10 -11 -3 -102 -16 -102 -6 0 -29 6 -50 14 -45 15 -75 50 -76 85
0 23 1 24 68 17 37 -4 70 -10 74 -14z m256 -27 c2 -2 -3 -16 -12 -33 -22 -43
-58 -62 -116 -62 -49 0 -50 1 -50 29 0 16 4 41 10 56 10 26 10 26 87 19 43 -4
79 -8 81 -9z"/>
<path d="M235 1220 c3 -5 8 -10 11 -10 2 0 4 5 4 10 0 6 -5 10 -11 10 -5 0 -7
-4 -4 -10z"/>
<path d="M650 872 c0 -37 68 -54 237 -59 166 -5 211 4 179 35 -20 20 -98 31
-278 38 -133 6 -138 5 -138 -14z"/>
<path d="M633 772 c-46 -3 -56 -19 -24 -39 29 -18 141 -34 249 -34 143 -1 199
30 105 57 -40 12 -250 22 -330 16z"/>
<path d="M760 612 c-47 -2 -89 -7 -94 -12 -6 -6 -18 -10 -27 -10 -24 0 -69
-56 -69 -86 0 -14 -5 -34 -10 -44 -7 -13 -7 -21 0 -25 5 -3 10 -17 10 -29 0
-76 71 -155 166 -185 84 -27 314 -11 314 21 0 4 5 8 11 8 6 0 18 7 27 17 64
63 74 226 18 276 -55 48 -186 75 -346 69z m55 -63 c4 -6 4 -30 0 -55 -6 -44
-6 -44 -60 -44 -68 0 -105 16 -105 45 0 30 37 53 91 58 24 2 49 4 56 5 6 1 15
-3 18 -9z m170 -15 c44 -18 85 -60 85 -86 0 -21 -15 -21 -133 -3 -43 7 -48 10
-43 29 4 12 9 33 12 49 7 31 25 34 79 11z m-175 -193 c0 -51 -9 -61 -52 -61
-35 0 -99 41 -110 71 -10 27 7 34 87 37 75 3 75 3 75 -47z m218 29 c47 0 46 0
32 -32 -25 -54 -121 -86 -163 -54 -15 11 -17 22 -11 53 9 47 17 53 63 42 20
-5 55 -9 79 -9z"/>
<path d="M570 136 c0 -37 27 -41 277 -44 232 -3 245 -2 241 15 -6 34 -62 42
-295 42 -183 1 -223 -1 -223 -13z"/>
</g>
</svg>
