<svg version="1.0" xmlns="http://www.w3.org/2000/svg"
 width="105.000000pt" height="143.000000pt" viewBox="0 0 105.000000 143.000000"
 preserveAspectRatio="xMidYMid meet">
<metadata>
Created by potrace 1.15, written by Peter Selinger 2001-2017
</metadata>
<g transform="translate(0.000000,143.000000) scale(0.100000,-0.100000)"
fill="#000000" stroke="none">
<path d="M769 1296 c-3 -3 -39 -6 -82 -7 -90 -3 -107 -10 -91 -36 15 -24 116
-29 230 -13 69 10 84 15 84 30 0 10 -10 20 -22 24 -27 7 -113 8 -119 2z"/>
<path d="M330 1189 c0 -22 -5 -32 -20 -36 -11 -3 -20 -9 -20 -14 0 -5 -7 -9
-16 -9 -55 0 -179 -58 -162 -76 8 -7 207 25 230 37 28 15 50 -38 36 -84 -12
-39 -67 -97 -93 -97 -8 0 -15 -4 -15 -10 0 -5 -7 -10 -14 -10 -8 0 -26 -15
-40 -33 -21 -28 -26 -45 -26 -93 0 -86 21 -106 147 -144 54 -17 62 -38 26 -71
-66 -60 -123 -150 -125 -197 -3 -54 15 -168 31 -201 20 -43 41 -52 41 -17 0
13 4 27 9 31 6 3 6 18 0 38 -13 45 -11 194 3 220 12 23 32 43 86 84 39 31 48
62 29 99 -22 42 -64 72 -125 89 -38 11 -62 45 -62 88 0 36 17 67 37 67 5 0 28
9 51 20 22 11 48 20 55 20 8 0 25 21 37 47 17 37 21 57 16 93 -4 25 -10 70
-13 101 -5 53 -7 56 -44 72 -53 23 -59 22 -59 -14z"/>
<path d="M764 1154 c-38 -8 -94 -29 -94 -36 0 -4 -7 -8 -15 -8 -8 0 -15 -4
-15 -9 0 -5 -8 -12 -18 -15 -24 -8 -46 -108 -36 -162 9 -53 51 -134 69 -134 8
0 15 -4 15 -9 0 -10 96 -23 155 -21 22 1 50 8 62 16 12 7 30 14 38 14 34 0 55
46 74 162 20 116 -46 193 -171 201 -30 2 -59 2 -64 1z m-10 -110 c11 -83 12
-82 -49 -89 -31 -4 -58 -5 -61 -2 -22 21 55 137 91 137 7 0 15 -19 19 -46z
m142 27 c24 -15 33 -28 36 -55 5 -40 2 -42 -79 -48 -43 -4 -43 -4 -43 59 0 62
0 63 28 63 15 0 41 -9 58 -19z m34 -162 c0 -29 -37 -79 -59 -79 -9 0 -22 -5
-28 -11 -20 -20 -33 1 -33 51 0 47 1 49 33 53 78 9 87 8 87 -14z m-170 -45 c0
-42 -2 -45 -22 -39 -39 11 -64 26 -76 46 -19 29 -6 39 49 39 49 0 49 0 49 -46z"/>
<path d="M775 673 c-62 -3 -155 -24 -155 -34 0 -19 98 -29 189 -20 93 10 131
26 117 50 -7 10 -37 11 -151 4z"/>
<path d="M750 533 c-14 -3 -29 -8 -35 -13 -5 -4 -22 -10 -37 -14 -15 -3 -36
-19 -47 -34 -24 -34 -48 -155 -32 -160 6 -2 11 -9 11 -15 0 -16 38 -58 77 -85
25 -18 45 -22 106 -22 45 0 86 6 102 14 40 21 72 74 85 144 16 79 4 112 -57
153 -44 31 -116 44 -173 32z m118 -69 c37 -14 73 -57 59 -70 -3 -4 -26 -8 -51
-10 -41 -4 -44 -2 -49 23 -3 16 -8 38 -12 51 -9 26 0 28 53 6z m-107 -16 c0
-13 3 -35 5 -50 5 -27 3 -28 -40 -28 -56 0 -76 8 -76 29 1 53 109 101 111 49z
m169 -138 c0 -20 -51 -60 -76 -60 -12 0 -25 66 -15 75 2 3 24 5 48 5 36 0 43
-3 43 -20z m-160 -9 c0 -11 3 -26 6 -35 10 -26 -47 -20 -79 8 -29 25 -29 25 5
35 52 15 68 13 68 -8z"/>
<path d="M834 118 c-3 -4 -20 -8 -39 -8 -44 0 -135 -19 -135 -29 0 -18 77 -32
163 -30 107 3 127 7 127 24 0 21 -34 43 -73 47 -21 2 -40 0 -43 -4z"/>
</g>
</svg>
