<svg version="1.0" xmlns="http://www.w3.org/2000/svg"
 width="71.000000pt" height="87.000000pt" viewBox="0 0 71.000000 87.000000"
 preserveAspectRatio="xMidYMid meet">
<metadata>
Created by potrace 1.15, written by Peter Selinger 2001-2017
</metadata>
<g transform="translate(0.000000,87.000000) scale(0.100000,-0.100000)"
fill="#000000" stroke="none">
<path d="M474 745 c-4 -8 -16 -15 -29 -15 -26 0 -50 -24 -40 -40 4 -6 21 -10
38 -8 28 3 32 0 35 -25 4 -34 35 -34 40 1 3 17 12 23 43 28 53 9 51 38 -4 42
-24 2 -37 8 -37 18 0 19 -39 18 -46 -1z"/>
<path d="M183 730 c-3 -11 -18 -23 -34 -28 -40 -10 -41 -26 -2 -30 23 -2 33
-9 35 -24 4 -31 26 -34 37 -5 5 14 21 27 35 31 32 8 33 24 3 35 -13 5 -29 16
-36 25 -18 22 -32 20 -38 -4z"/>
<path d="M534 623 c-8 -33 -20 -43 -51 -43 -16 0 -23 6 -23 18 0 10 -3 21 -6
25 -11 11 -34 -5 -34 -23 0 -28 -33 -35 -49 -11 -17 26 -37 27 -44 2 -6 -25
-95 -39 -125 -20 -18 11 -24 10 -40 -4 -10 -9 -33 -17 -51 -17 -22 0 -31 -4
-28 -12 2 -8 21 -13 43 -13 39 0 39 0 44 -55 3 -30 9 -61 13 -67 5 -8 32 -13
73 -13 35 0 64 -4 64 -9 0 -5 3 -16 6 -25 5 -14 -4 -16 -60 -16 -53 0 -69 4
-85 21 -22 23 -41 18 -41 -11 0 -34 38 -50 118 -50 70 0 73 -1 70 -22 -2 -18
-14 -24 -68 -34 -112 -23 -114 -25 -126 -146 -6 -64 -5 -68 13 -68 18 0 21 8
26 67 4 53 9 70 27 83 25 19 110 41 123 33 5 -3 8 -46 6 -97 -4 -80 -2 -91 14
-94 15 -3 17 6 17 92 0 96 0 96 73 96 92 0 107 -13 114 -97 5 -63 13 -79 37
-70 31 12 14 144 -24 181 -17 17 -37 22 -108 26 -75 4 -87 8 -90 24 -5 25 14
36 68 36 75 1 133 16 152 40 22 27 23 39 2 47 -11 4 -23 -2 -34 -16 -18 -25
-74 -40 -148 -41 -39 0 -43 2 -40 22 4 26 31 36 104 37 47 1 74 13 74 34 0 6
-35 7 -90 3 -90 -7 -90 -7 -90 43 0 35 4 51 16 55 30 11 42 6 49 -21 8 -33 21
-43 58 -43 40 0 84 25 91 53 3 14 15 27 26 30 26 7 26 37 0 37 -13 0 -20 7
-20 18 0 18 -18 42 -32 42 -4 0 -11 -12 -14 -27z m-16 -85 c-7 -20 -58 -23
-58 -4 0 11 10 16 31 16 20 0 29 -4 27 -12z m-190 -56 c3 -53 3 -53 -55 -50
-58 3 -58 3 -61 36 -4 41 10 60 51 65 59 8 62 6 65 -51z"/>
</g>
</svg>
