<svg version="1.0" xmlns="http://www.w3.org/2000/svg"
 width="66.000000pt" height="86.000000pt" viewBox="0 0 66.000000 86.000000"
 preserveAspectRatio="xMidYMid meet">
<metadata>
Created by potrace 1.15, written by Peter Selinger 2001-2017
</metadata>
<g transform="translate(0.000000,86.000000) scale(0.100000,-0.100000)"
fill="#000000" stroke="none">
<path d="M324 696 c-3 -8 -2 -34 3 -58 9 -42 9 -43 46 -40 20 2 37 -1 37 -6 0
-5 -29 -28 -65 -51 -36 -24 -63 -47 -59 -52 9 -16 45 0 96 42 52 43 63 46 96
23 35 -24 29 8 -7 39 -16 13 -31 35 -33 47 -4 30 -28 39 -28 11 0 -14 -6 -21
-20 -21 -19 0 -25 15 -20 49 3 26 -37 41 -46 17z"/>
<path d="M155 688 c-2 -7 -5 -26 -7 -43 -3 -26 -7 -31 -41 -35 -43 -6 -67 -39
-57 -80 5 -21 12 -25 50 -28 54 -4 63 -11 54 -46 -5 -22 -12 -26 -40 -26 -24
0 -37 -6 -41 -17 -4 -10 -14 -23 -22 -30 -14 -11 -14 -14 5 -33 12 -12 37 -25
55 -29 52 -10 46 -42 -9 -56 -24 -5 -47 -17 -52 -26 -36 -64 -26 -194 16 -210
46 -17 51 -6 46 101 -5 97 -4 100 17 100 20 0 21 -5 22 -82 1 -46 0 -93 0
-105 -2 -24 18 -41 29 -24 4 7 8 56 9 109 1 53 6 101 11 106 17 17 27 -5 33
-70 7 -75 9 -79 32 -70 14 5 16 17 10 84 -8 87 -17 103 -54 100 -20 -2 -26 1
-26 17 0 15 9 21 38 26 20 3 39 8 42 10 2 3 5 25 7 49 3 45 3 45 -32 48 -44 4
-54 14 -46 46 5 19 13 25 39 28 31 3 32 5 35 50 3 40 0 49 -21 63 -14 9 -31
14 -38 13 -8 -2 -15 10 -19 32 -5 36 -36 55 -45 28z m73 -129 c3 -24 0 -27
-44 -32 -60 -6 -74 -1 -74 28 0 19 6 25 33 28 65 9 82 4 85 -24z m0 -182 c3
-26 2 -27 -52 -27 -31 0 -57 5 -57 10 -5 31 -1 35 41 41 61 8 65 7 68 -24z
m-171 -199 c-3 -8 -6 -5 -6 6 -1 11 2 17 5 13 3 -3 4 -12 1 -19z m0 -65 c-3
-10 -5 -2 -5 17 0 19 2 27 5 18 2 -10 2 -26 0 -35z"/>
<path d="M433 521 c-24 -4 -45 -10 -49 -13 -13 -14 -22 -78 -11 -85 12 -7 187
-6 195 2 3 2 0 10 -5 17 -6 7 -14 24 -18 38 -15 47 -33 53 -112 41z m60 -31
c10 0 17 -8 17 -20 0 -14 -9 -21 -35 -26 -44 -8 -65 0 -65 25 0 22 16 32 45
26 11 -3 28 -5 38 -5z"/>
<path d="M374 392 c-26 -4 -34 -27 -34 -98 0 -88 9 -114 41 -121 28 -5 29 -8
28 -53 -3 -62 7 -77 33 -53 15 14 19 26 15 55 -5 39 7 58 25 40 5 -5 10 -31
10 -56 1 -51 11 -64 34 -45 11 9 14 27 12 58 -2 42 0 46 22 49 41 5 50 28 50
123 0 59 -4 90 -12 96 -12 8 -179 11 -224 5z m176 -37 c0 -8 0 -18 -1 -22 0
-5 -35 -7 -77 -5 -136 5 -112 37 31 41 36 1 47 -3 47 -14z m10 -75 c0 -18 -7
-20 -84 -20 -81 0 -105 8 -91 30 3 6 44 10 91 10 77 0 84 -2 84 -20z m-14 -51
c11 -19 -15 -33 -59 -31 -104 6 -133 28 -44 35 28 2 62 4 74 5 12 1 25 -3 29
-9z"/>
</g>
</svg>
