<svg version="1.0" xmlns="http://www.w3.org/2000/svg"
 width="71.000000pt" height="89.000000pt" viewBox="0 0 71.000000 89.000000"
 preserveAspectRatio="xMidYMid meet">
<metadata>
Created by potrace 1.15, written by Peter Selinger 2001-2017
</metadata>
<g transform="translate(0.000000,89.000000) scale(0.100000,-0.100000)"
fill="#000000" stroke="none">
<path d="M413 703 c-65 -6 -57 -31 10 -35 38 -2 52 -7 52 -18 0 -10 -12 -16
-35 -18 -96 -7 -111 -32 -20 -32 33 0 60 -4 60 -10 0 -11 -64 -30 -102 -30
-18 0 -28 -5 -28 -15 0 -32 143 -11 173 26 37 46 3 142 -50 137 -10 -1 -37 -3
-60 -5z"/>
<path d="M123 672 c-16 -10 -33 -57 -33 -91 0 -43 28 -61 94 -61 75 0 73 24
-2 28 -36 2 -52 7 -52 17 0 10 16 15 53 17 30 2 50 7 47 13 -3 6 -16 9 -30 8
-14 -1 -35 0 -47 3 -34 6 -17 34 21 34 46 0 76 11 76 26 0 10 -15 14 -57 14
-32 0 -63 -4 -70 -8z"/>
<path d="M193 480 c-72 -8 -93 -22 -93 -61 0 -48 29 -59 157 -59 136 0 133 3
133 -139 0 -102 5 -131 22 -131 16 0 6 273 -11 293 -11 14 -34 17 -127 17
-109 0 -140 8 -116 32 14 14 264 23 288 10 15 -8 21 -29 29 -103 10 -86 8
-124 -11 -253 -10 -68 13 -58 43 19 31 79 33 248 4 311 -29 65 -50 74 -161 73
-52 -1 -123 -5 -157 -9z"/>
<path d="M207 310 c-71 -9 -88 -24 -94 -82 -6 -53 26 -138 51 -138 19 0 20 17
3 50 -31 60 -27 112 11 124 27 9 51 -2 67 -33 7 -14 36 -49 63 -78 38 -39 52
-48 56 -37 11 27 7 34 -44 81 -57 52 -64 80 -22 89 46 10 53 14 47 24 -7 11
-51 11 -138 0z"/>
</g>
</svg>
