<svg version="1.0" xmlns="http://www.w3.org/2000/svg"
 width="67.000000pt" height="84.000000pt" viewBox="0 0 67.000000 84.000000"
 preserveAspectRatio="xMidYMid meet">
<metadata>
Created by potrace 1.15, written by Peter Selinger 2001-2017
</metadata>
<g transform="translate(0.000000,84.000000) scale(0.100000,-0.100000)"
fill="#000000" stroke="none">
<path d="M84 609 c-11 -19 9 -28 71 -31 57 -3 60 -4 60 -28 0 -23 -4 -25 -55
-28 -77 -4 -97 -39 -69 -121 10 -28 15 -31 54 -31 47 0 78 -21 73 -49 -2 -12
-16 -17 -53 -19 -32 -2 -55 -9 -62 -19 -24 -31 -11 -250 15 -260 25 -10 32 20
26 115 -8 105 3 142 42 142 29 0 34 -21 34 -147 0 -81 3 -103 14 -103 23 0 26
24 26 200 0 188 3 180 -75 180 -46 0 -55 9 -55 61 0 29 0 29 34 12 21 -9 44
-13 60 -9 41 10 69 82 50 130 -5 13 -23 16 -94 16 -53 0 -92 -4 -96 -11z"/>
<path d="M303 613 c-21 -8 -15 -23 12 -33 21 -8 25 -16 25 -49 0 -22 -6 -44
-15 -51 -27 -22 -10 -35 46 -35 54 0 54 0 57 -67 3 -66 2 -68 -21 -68 -26 0
-37 21 -37 73 0 19 -5 27 -18 27 -16 0 -18 -7 -14 -57 4 -64 19 -83 63 -83 24
0 29 -5 38 -42 26 -111 32 -124 61 -150 30 -28 50 -33 82 -20 23 9 12 22 -37
47 -45 22 -62 52 -71 119 -7 45 -6 46 20 46 15 0 40 7 56 15 33 17 39 50 20
100 -14 37 -34 26 -40 -20 -4 -32 -10 -40 -33 -46 -35 -9 -39 0 -35 72 3 52 4
54 33 57 46 5 65 28 65 79 0 24 -7 55 -16 68 -16 24 -20 25 -123 24 -58 0
-112 -3 -118 -6z m206 -37 c7 -8 11 -32 9 -53 -2 -30 -7 -38 -23 -38 -16 0
-21 8 -23 39 -5 61 11 83 37 52z m-69 -40 c0 -49 -9 -61 -40 -51 -15 5 -20 15
-20 44 0 44 5 51 37 51 21 0 23 -5 23 -44z"/>
<path d="M345 219 c-13 -20 -14 -173 -1 -181 23 -15 36 15 36 86 0 75 -18 123
-35 95z"/>
</g>
</svg>
