<svg version="1.0" xmlns="http://www.w3.org/2000/svg"
 width="62.000000pt" height="85.000000pt" viewBox="0 0 62.000000 85.000000"
 preserveAspectRatio="xMidYMid meet">
<metadata>
Created by potrace 1.15, written by Peter Selinger 2001-2017
</metadata>
<g transform="translate(0.000000,85.000000) scale(0.100000,-0.100000)"
fill="#000000" stroke="none">
<path d="M200 656 c-111 -21 -122 -25 -118 -44 3 -12 12 -16 33 -15 17 1 92 7
168 13 76 7 144 9 152 6 19 -7 19 -40 1 -56 -9 -6 -88 -17 -186 -25 -94 -8
-175 -17 -180 -20 -6 -3 -10 -13 -10 -21 0 -11 14 -14 60 -14 33 0 60 -2 60
-5 0 -4 -6 -18 -14 -33 -42 -81 -58 -149 -63 -273 -6 -128 -2 -146 30 -133 11
4 16 32 21 117 10 162 28 225 85 285 46 49 46 49 133 56 47 3 93 8 101 11 7 3
24 24 36 45 20 36 21 41 7 68 -8 16 -23 33 -33 37 -32 13 -216 14 -283 1z"/>
<path d="M330 421 c-48 -4 -65 -10 -65 -21 0 -10 13 -17 40 -20 38 -5 40 -7
43 -42 3 -37 2 -38 -30 -38 -39 0 -74 -21 -64 -38 4 -7 27 -12 51 -12 38 0 44
-3 49 -25 9 -37 3 -42 -63 -47 -68 -5 -96 -21 -81 -48 8 -16 23 -17 147 -12
76 2 144 9 151 14 6 6 12 19 12 29 0 16 -8 19 -55 19 -55 0 -55 0 -55 34 0 31
2 34 40 40 43 7 63 31 39 47 -8 5 -29 7 -46 4 -33 -6 -33 -6 -33 34 0 39 1 40
38 43 29 2 37 7 37 23 0 17 -7 20 -45 21 -25 1 -74 -2 -110 -5z"/>
</g>
</svg>
