<svg version="1.0" xmlns="http://www.w3.org/2000/svg"
 width="66.000000pt" height="79.000000pt" viewBox="0 0 66.000000 79.000000"
 preserveAspectRatio="xMidYMid meet">
<metadata>
Created by potrace 1.15, written by Peter Selinger 2001-2017
</metadata>
<g transform="translate(0.000000,79.000000) scale(0.100000,-0.100000)"
fill="#000000" stroke="none">
<path d="M460 619 c0 -7 8 -19 19 -28 10 -9 26 -31 35 -49 21 -40 15 -62 -38
-142 -23 -36 -36 -66 -36 -88 0 -37 30 -88 58 -96 14 -5 17 -19 18 -72 0 -62
2 -69 30 -90 30 -24 54 -31 54 -15 0 5 -11 29 -25 52 -38 68 -31 118 27 187
15 18 30 43 34 57 9 36 -14 93 -44 109 -23 12 -26 19 -24 57 3 51 0 57 -52 98
-41 33 -56 38 -56 20z m119 -230 c8 -15 11 -34 7 -44 -6 -16 -10 -15 -41 15
-27 26 -32 36 -23 47 16 20 40 12 57 -18z m-43 -64 c9 -14 24 -25 32 -25 12 0
7 -9 -16 -32 -33 -33 -33 -33 -52 -8 -27 34 -27 90 0 90 11 0 27 -11 36 -25z"/>
<path d="M173 590 c-62 -32 -68 -55 -68 -260 0 -171 -1 -176 -28 -229 -29 -60
-32 -71 -17 -71 32 0 75 123 85 245 6 75 10 83 46 124 39 43 39 43 50 17 15
-33 44 -33 65 0 17 25 17 25 40 -3 19 -22 23 -40 24 -88 1 -149 36 -303 62
-277 8 8 6 25 -8 59 -16 41 -19 75 -19 238 0 243 -2 247 -125 259 -54 6 -72 3
-107 -14z m50 -56 c-4 -11 -8 -12 -20 -3 -11 10 -11 14 -1 20 17 10 28 2 21
-17z m117 12 c0 -19 -25 -27 -39 -13 -18 18 -13 27 14 27 15 0 25 -6 25 -14z
m-51 -87 c-11 -22 -11 -22 -30 2 -22 28 -23 41 -8 56 9 9 17 6 31 -12 16 -20
17 -28 7 -46z m91 26 c0 -43 -1 -44 -20 -33 -11 7 -20 19 -20 27 0 13 27 51
37 51 1 0 3 -20 3 -45z m-180 -21 c0 -7 -11 -26 -25 -41 -24 -28 -24 -28 -25
36 0 64 0 64 25 41 14 -13 25 -29 25 -36z"/>
<path d="M245 270 c-4 -55 -11 -100 -16 -100 -14 0 -29 37 -29 72 0 57 -16 67
-31 20 -10 -34 -10 -50 1 -83 16 -48 34 -59 95 -59 51 0 95 32 95 70 0 32 -21
110 -30 110 -5 0 -12 -28 -17 -62 -12 -89 -33 -89 -33 0 0 78 -8 132 -20 132
-5 0 -12 -45 -15 -100z"/>
</g>
</svg>
