<svg version="1.0" xmlns="http://www.w3.org/2000/svg"
 width="68.000000pt" height="92.000000pt" viewBox="0 0 68.000000 92.000000"
 preserveAspectRatio="xMidYMid meet">
<metadata>
Created by potrace 1.15, written by Peter Selinger 2001-2017
</metadata>
<g transform="translate(0.000000,92.000000) scale(0.100000,-0.100000)"
fill="#000000" stroke="none">
<path d="M470 714 c-6 -14 -10 -34 -10 -45 0 -18 -8 -19 -104 -19 -103 0 -103
0 -112 31 -10 35 -30 36 -26 0 4 -28 -12 -41 -50 -41 -16 0 -28 -4 -28 -10 0
-5 18 -10 39 -10 22 0 42 -3 44 -8 3 -4 0 -31 -5 -60 -10 -49 -12 -52 -42 -52
-38 0 -61 -14 -51 -30 5 -8 21 -10 46 -7 43 6 43 12 -6 -97 -14 -32 -24 -61
-21 -63 10 -11 27 11 62 82 33 67 40 75 72 81 44 9 172 -3 189 -17 7 -6 18
-29 24 -50 13 -42 63 -108 74 -97 4 4 -2 26 -13 50 -11 24 -24 60 -27 81 -7
36 -7 37 25 37 43 0 35 23 -11 30 -33 5 -34 6 -37 57 -3 47 -1 52 19 55 32 4
35 26 5 34 -23 5 -26 11 -26 50 0 49 -15 58 -30 18z m-10 -159 c0 -55 0 -55
-105 -55 -105 0 -105 0 -105 55 0 55 0 55 105 55 105 0 105 0 105 -55z"/>
<path d="M334 576 c-9 -24 3 -46 26 -46 17 0 21 5 18 27 -3 31 -34 44 -44 19z"/>
<path d="M335 431 c-3 -6 -1 -20 5 -32 9 -15 8 -44 0 -111 -14 -108 -6 -186
23 -229 43 -64 64 -42 27 28 -30 59 -36 141 -14 202 16 46 16 55 3 97 -14 47
-31 64 -44 45z"/>
<path d="M420 425 c0 -4 5 -25 12 -47 11 -36 10 -40 -17 -68 -31 -32 -29 -46
5 -35 52 16 64 100 20 140 -11 10 -20 15 -20 10z"/>
<path d="M266 399 c-2 -8 -4 -35 -3 -61 0 -28 -6 -57 -17 -73 -12 -18 -15 -30
-8 -37 7 -7 19 6 37 37 22 37 26 54 22 87 -6 44 -23 71 -31 47z"/>
<path d="M426 208 c-19 -71 4 -148 45 -148 24 0 24 7 -1 61 -11 24 -20 59 -20
77 0 37 -15 43 -24 10z"/>
<path d="M246 184 c-8 -20 -8 -78 0 -98 3 -9 15 -16 26 -16 17 0 19 5 14 28
-4 15 -9 44 -13 65 -6 39 -17 48 -27 21z"/>
</g>
</svg>
