<svg version="1.0" xmlns="http://www.w3.org/2000/svg"
 width="62.000000pt" height="89.000000pt" viewBox="0 0 62.000000 89.000000"
 preserveAspectRatio="xMidYMid meet">
<metadata>
Created by potrace 1.15, written by Peter Selinger 2001-2017
</metadata>
<g transform="translate(0.000000,89.000000) scale(0.100000,-0.100000)"
fill="#000000" stroke="none">
<path d="M150 681 c0 -6 -6 -11 -12 -11 -7 0 -24 -9 -38 -20 -25 -19 -25 -19
-27 -247 -2 -210 -10 -320 -28 -365 -5 -12 -2 -18 8 -18 22 0 38 25 44 69 5
34 9 40 36 45 16 3 36 11 44 18 18 15 44 78 37 89 -3 5 -30 9 -61 9 -46 0 -54
3 -49 16 3 9 6 18 6 20 0 2 16 4 35 4 39 0 75 31 75 65 0 11 5 26 12 33 14 14
12 14 -62 16 -47 1 -55 4 -55 20 0 13 10 23 30 29 42 14 53 24 60 58 4 17 13
33 21 36 34 13 9 23 -56 23 -54 0 -70 3 -70 14 0 19 48 53 80 57 37 6 34 43
-2 47 -16 2 -28 -1 -28 -7z m26 -156 c9 -21 -14 -45 -42 -45 -20 0 -24 5 -24
30 0 27 3 30 30 30 18 0 33 -6 36 -15z m4 -175 c0 -17 -57 -47 -68 -36 -12 13
10 55 31 58 29 5 37 1 37 -22z m-10 -159 c0 -20 -18 -31 -51 -31 -12 0 -19 7
-19 18 0 25 9 32 42 32 21 0 28 -5 28 -19z"/>
<path d="M343 679 c-8 -8 -10 -35 -6 -80 6 -67 5 -69 -21 -79 -31 -12 -30 -33
2 -38 20 -3 22 -9 22 -77 0 -74 0 -74 -32 -77 -41 -4 -43 -22 -4 -26 29 -4 29
-4 23 -84 -4 -44 -11 -86 -16 -92 -16 -19 -18 -71 -2 -71 19 0 40 74 47 173 7
84 7 84 37 78 16 -3 40 -6 53 -6 22 0 24 -4 24 -57 0 -79 17 -174 33 -190 12
-12 16 -12 26 1 11 13 10 24 -4 58 -9 24 -19 76 -22 116 -6 72 -6 72 23 72 16
0 35 4 43 9 22 14 3 31 -35 31 -34 0 -34 0 -34 79 0 76 1 78 23 74 27 -4 52
11 43 26 -4 6 -18 11 -32 11 -33 0 -40 23 -25 82 11 39 11 52 0 64 -17 21 -28
6 -35 -51 -11 -97 -10 -95 -59 -95 -45 0 -45 0 -45 68 0 74 -9 99 -27 81z
m127 -243 c0 -75 -14 -96 -66 -96 -34 0 -34 0 -34 74 0 81 1 82 68 85 32 1 32
1 32 -63z"/>
<path d="M400 420 c0 -16 5 -21 23 -18 12 2 22 10 22 18 0 8 -10 16 -22 18
-18 3 -23 -2 -23 -18z"/>
</g>
</svg>
