<svg version="1.0" xmlns="http://www.w3.org/2000/svg"
 width="45.000000pt" height="121.000000pt" viewBox="0 0 45.000000 121.000000"
 preserveAspectRatio="xMidYMid meet">
<metadata>
Created by potrace 1.15, written by Peter Selinger 2001-2017
</metadata>
<g transform="translate(0.000000,121.000000) scale(0.100000,-0.100000)"
fill="#000000" stroke="none">
<path d="M90 1029 c0 -6 8 -23 18 -37 55 -85 60 -99 64 -168 4 -67 24 -83 34
-28 7 37 7 37 23 3 14 -27 22 -34 44 -32 22 1 28 -4 36 -34 11 -39 5 -56 -33
-98 -44 -47 -85 -16 -47 36 24 32 16 46 -12 22 -19 -17 -20 -17 -31 1 -43 72
-73 74 -36 2 22 -44 21 -66 -4 -66 -8 0 -16 18 -19 45 -8 56 -49 139 -55 111
-2 -10 0 -28 6 -40 5 -11 14 -48 21 -80 13 -71 24 -85 51 -68 28 17 43 15 69
-9 23 -21 23 -21 66 21 44 43 44 43 51 17 8 -34 -1 -68 -23 -90 -32 -31 -81
-67 -90 -67 -4 0 -14 -9 -20 -19 -11 -17 -7 -26 27 -68 43 -52 44 -55 31 -81
-15 -29 -31 -87 -31 -111 0 -12 -5 -31 -11 -42 -5 -11 -9 -32 -7 -47 4 -24 5
-25 12 -7 48 123 77 225 70 247 -3 12 -17 33 -30 47 -13 14 -24 31 -24 37 0 6
19 24 43 39 100 66 111 105 72 249 -38 140 -46 162 -71 193 -24 30 -42 27 -26
-4 10 -20 32 -85 32 -96 0 -21 -31 -2 -45 26 -8 18 -24 39 -34 46 -20 15 -18
23 30 113 13 25 11 38 -5 38 -8 0 -18 -9 -21 -20 -8 -27 -23 -25 -27 3 -4 28
-21 25 -29 -5 -5 -23 -5 -23 -23 5 -18 27 -46 37 -46 16z"/>
</g>
</svg>
