<svg version="1.0" xmlns="http://www.w3.org/2000/svg"
 width="51.000000pt" height="91.000000pt" viewBox="0 0 51.000000 91.000000"
 preserveAspectRatio="xMidYMid meet">
<metadata>
Created by potrace 1.15, written by Peter Selinger 2001-2017
</metadata>
<g transform="translate(0.000000,91.000000) scale(0.100000,-0.100000)"
fill="#000000" stroke="none">
<path d="M250 713 c0 -59 -13 -70 -39 -34 -12 17 -27 31 -32 31 -17 0 -9 -29
21 -76 24 -39 29 -54 24 -86 -6 -32 -4 -38 12 -38 14 0 15 -3 6 -12 -16 -16
-15 -28 3 -28 8 0 19 9 25 20 17 32 35 24 59 -27 32 -70 26 -118 -19 -152 -86
-64 -88 -68 -81 -151 6 -75 6 -75 51 -35 25 22 49 46 53 52 14 23 24 14 19
-17 -6 -39 5 -67 19 -53 11 11 31 154 23 162 -2 2 -31 -26 -65 -62 -33 -37
-65 -67 -70 -67 -14 0 -11 80 4 94 18 19 73 46 92 46 12 0 15 13 16 58 3 135
-9 312 -22 312 -5 0 -9 -32 -9 -72 0 -68 -1 -71 -17 -55 -12 12 -16 30 -14 63
2 31 -1 44 -8 40 -6 -4 -11 -16 -11 -26 0 -25 -16 -34 -24 -14 -3 9 -6 17 -6
19 0 1 20 25 45 51 25 27 45 52 45 57 0 15 -19 6 -38 -18 -19 -24 -50 -36 -37
-15 9 14 -4 70 -16 70 -5 0 -9 -17 -9 -37z"/>
<path d="M128 569 c4 -28 2 -30 -17 -24 -31 9 -26 -5 17 -50 65 -67 192 -159
192 -139 0 14 -12 27 -60 65 -80 65 -87 73 -95 109 -14 67 -46 100 -37 39z"/>
</g>
</svg>
