<svg version="1.0" xmlns="http://www.w3.org/2000/svg"
 width="85.000000pt" height="273.000000pt" viewBox="0 0 85.000000 273.000000"
 preserveAspectRatio="xMidYMid meet">
<metadata>
Created by potrace 1.15, written by Peter Selinger 2001-2017
</metadata>
<g transform="translate(0.000000,273.000000) scale(0.100000,-0.100000)"
fill="#000000" stroke="none">
<path d="M296 2714 c-3 -9 -6 -108 -5 -221 0 -134 -3 -209 -10 -216 -6 -6 -11
-18 -11 -27 0 -21 -41 -60 -63 -60 -9 0 -19 -4 -22 -10 -3 -5 -14 -10 -24 -10
-10 0 -36 -7 -57 -16 -33 -14 -36 -17 -20 -26 25 -14 121 0 165 24 84 47 101
92 101 262 0 146 -12 249 -33 290 -12 22 -16 24 -21 10z"/>
<path d="M492 2689 c-17 -6 -22 -16 -21 -41 0 -18 0 -113 -1 -212 -1 -177 -1
-178 25 -212 36 -47 96 -74 166 -74 60 0 109 13 109 29 0 5 -26 11 -57 13 -64
5 -138 35 -168 68 -18 20 -19 36 -18 226 1 112 -1 205 -5 208 -4 2 -17 0 -30
-5z"/>
<path d="M294 2039 c-3 -5 -12 -9 -20 -9 -25 0 -80 -42 -93 -72 -8 -17 -11
-43 -7 -61 4 -18 9 -106 11 -197 7 -238 30 -431 58 -485 27 -53 81 -77 171
-78 65 -1 180 14 190 24 6 5 22 9 37 9 29 0 33 7 54 84 13 49 14 252 1 466 -3
52 -6 121 -7 153 -1 32 -6 60 -11 63 -4 3 -8 15 -8 27 0 12 -9 37 -20 55 -20
33 -20 33 -185 31 -91 -1 -168 -6 -171 -10z m297 -42 c9 -7 21 -21 26 -32 12
-22 33 -209 33 -294 0 -56 0 -56 -80 -59 -80 -3 -80 -3 -82 65 -1 37 -3 88 -4
113 -2 25 -5 70 -7 100 -5 72 22 120 68 120 17 -1 37 -6 46 -13z m-177 -49 c3
-24 8 -81 11 -128 5 -76 10 -134 18 -194 3 -25 -27 -34 -124 -35 -53 -1 -78 3
-82 12 -2 6 -5 87 -6 178 -2 165 -2 165 22 178 30 16 82 29 123 30 30 1 32 -2
38 -41z m214 -384 c29 -4 32 -8 32 -37 0 -18 0 -66 0 -107 0 -99 -9 -171 -24
-192 -14 -19 -57 -38 -85 -38 -14 0 -19 17 -29 93 -7 51 -15 134 -18 184 -5
90 -5 91 18 95 50 7 74 7 106 2z m-176 -54 c3 -25 9 -109 13 -187 8 -143 8
-143 -21 -145 -126 -8 -153 22 -183 203 -6 37 -11 84 -11 106 0 40 0 40 58 52
136 26 135 26 144 -29z"/>
<path d="M770 1220 c0 -7 -8 -24 -19 -38 -10 -15 -26 -51 -35 -79 -10 -29 -21
-55 -26 -58 -5 -3 -80 -9 -167 -14 -87 -5 -165 -12 -174 -15 -16 -7 -47 17
-86 68 -18 22 -28 27 -48 22 -37 -9 -34 -50 5 -68 36 -15 62 -67 78 -153 21
-112 33 -269 31 -410 -4 -320 -2 -373 21 -405 25 -35 89 -51 156 -39 25 5 51
6 56 3 13 -8 128 16 128 27 0 5 7 9 17 9 24 0 81 47 99 81 15 29 14 76 -2 169
-2 14 -11 83 -19 155 -9 72 -20 148 -25 170 -6 28 -5 42 3 48 9 6 9 10 1 13
-7 3 -10 21 -7 47 2 23 0 82 -4 130 -7 70 -6 101 7 150 8 34 18 67 22 72 13
21 13 118 1 122 -7 3 -13 -1 -13 -7z m-76 -297 c3 -37 9 -140 13 -228 5 -88
12 -166 17 -173 4 -7 10 -32 12 -55 2 -23 9 -66 15 -94 6 -29 8 -57 5 -62 -4
-5 -1 -11 5 -13 8 -3 7 -23 -2 -72 -18 -91 -33 -102 -169 -121 -147 -21 -163
-20 -194 12 -26 25 -27 30 -22 107 15 247 18 383 8 402 -7 13 -7 25 0 37 7 13
6 27 0 45 -6 15 -13 80 -15 145 -5 117 -5 117 21 118 15 0 35 4 45 8 10 3 72
8 137 9 118 3 118 3 124 -65z"/>
</g>
</svg>
