<svg version="1.0" xmlns="http://www.w3.org/2000/svg"
 width="61.000000pt" height="91.000000pt" viewBox="0 0 61.000000 91.000000"
 preserveAspectRatio="xMidYMid meet">
<metadata>
Created by potrace 1.15, written by Peter Selinger 2001-2017
</metadata>
<g transform="translate(0.000000,91.000000) scale(0.100000,-0.100000)"
fill="#000000" stroke="none">
<path d="M414 815 c-6 -14 23 -61 61 -99 16 -16 20 -37 17 -88 -3 -36 -12 -35
-52 2 -36 33 -45 36 -53 16 -3 -7 -18 -16 -34 -19 -15 -3 -40 -9 -54 -12 -23
-6 -27 -3 -31 19 -6 28 5 37 77 71 22 10 43 23 47 29 11 17 -2 27 -25 21 -44
-13 -173 -70 -196 -87 -13 -10 -31 -18 -40 -18 -10 0 -24 -6 -33 -12 -13 -10
-14 -18 -6 -38 14 -31 15 -36 16 -82 2 -45 14 -47 72 -18 22 11 42 20 46 20
10 0 -1 -50 -31 -132 -16 -43 -26 -80 -23 -83 13 -13 37 10 58 56 13 27 27 49
32 49 12 0 10 -67 -4 -112 -6 -21 -23 -51 -38 -66 -14 -15 -41 -49 -59 -75
-28 -41 -30 -47 -13 -47 10 0 29 11 42 25 13 14 27 25 32 25 11 0 10 -64 -2
-76 -6 -6 -6 -15 0 -24 13 -20 39 -3 59 38 18 35 31 41 31 15 1 -23 23 -53 39
-53 15 0 7 45 -20 107 -10 23 -16 55 -14 70 5 29 13 73 21 111 2 12 10 22 18
22 7 0 18 12 24 28 15 36 19 121 7 130 -28 20 -37 42 -25 57 17 21 25 19 55
-12 29 -32 31 -56 10 -97 -31 -59 -5 -93 30 -40 13 20 19 23 28 14 9 -10 9
-14 0 -17 -14 -5 -18 -33 -4 -33 7 0 6 -91 -1 -150 -3 -27 14 -81 26 -77 13 4
16 39 21 244 2 89 8 171 14 182 23 42 10 107 -29 141 -9 8 -25 28 -35 43 -24
38 -53 53 -61 32z m-207 -211 c7 -18 -7 -46 -25 -52 -13 -4 -27 42 -17 57 10
17 35 13 42 -5z m119 -69 c-11 -35 -11 -35 -20 -9 -6 19 -5 29 5 35 24 15 26
10 15 -26z"/>
<path d="M389 338 c-2 -63 3 -100 17 -135 13 -30 17 -33 31 -22 13 11 14 27
10 85 -8 87 -14 104 -38 104 -15 0 -19 -8 -20 -32z"/>
</g>
</svg>
