<svg version="1.0" xmlns="http://www.w3.org/2000/svg"
 width="71.000000pt" height="86.000000pt" viewBox="0 0 71.000000 86.000000"
 preserveAspectRatio="xMidYMid meet">
<metadata>
Created by potrace 1.15, written by Peter Selinger 2001-2017
</metadata>
<g transform="translate(0.000000,86.000000) scale(0.100000,-0.100000)"
fill="#000000" stroke="none">
<path d="M241 626 c-61 -7 -96 -16 -99 -24 -6 -18 391 -13 409 5 7 7 11 14 8
16 -12 11 -236 13 -318 3z"/>
<path d="M359 550 c-29 -39 -90 -78 -148 -96 -105 -32 -94 -54 15 -29 54 13
81 16 93 8 27 -17 24 -39 -11 -60 -85 -50 -188 -183 -188 -242 0 -37 16 -23
71 65 54 88 105 134 146 134 20 0 23 -5 23 -40 0 -55 -26 -125 -72 -192 -21
-32 -35 -58 -30 -58 4 0 29 21 54 48 64 65 98 133 98 194 0 34 4 50 15 54 20
8 65 -22 65 -44 0 -9 12 -53 26 -97 27 -83 64 -135 96 -135 24 0 23 5 -11 48
-26 33 -59 125 -76 209 -7 36 -38 60 -91 71 -27 5 -41 16 -57 44 -22 36 -22
36 1 76 38 68 23 100 -19 42z"/>
</g>
</svg>
