<svg version="1.0" xmlns="http://www.w3.org/2000/svg"
 width="53.000000pt" height="97.000000pt" viewBox="0 0 53.000000 97.000000"
 preserveAspectRatio="xMidYMid meet">
<metadata>
Created by potrace 1.15, written by Peter Selinger 2001-2017
</metadata>
<g transform="translate(0.000000,97.000000) scale(0.100000,-0.100000)"
fill="#000000" stroke="none">
<path d="M285 747 c-11 -36 -25 -37 -84 -9 -24 11 -38 13 -50 5 -18 -11 -22
-39 -5 -36 6 1 42 -13 79 -31 67 -33 67 -33 -29 -130 -53 -53 -94 -101 -91
-106 11 -18 35 -11 67 20 44 42 58 39 58 -12 0 -24 7 -74 16 -111 17 -68 17
-68 -11 -97 -16 -17 -50 -40 -77 -52 -59 -27 -65 -49 -10 -41 20 3 39 9 42 13
3 3 19 12 37 19 18 7 46 26 63 42 30 29 41 35 39 21 -5 -32 3 -162 10 -162 22
0 33 108 28 285 -3 99 -9 200 -13 224 -6 44 -6 44 35 38 58 -7 54 14 -8 42
-41 18 -52 29 -62 59 -16 52 -24 56 -34 19z m34 -194 c15 -53 14 -226 -1 -241
-24 -24 -28 -16 -44 103 -4 22 -10 44 -15 49 -18 19 -10 80 14 103 30 30 34
29 46 -14z"/>
<path d="M100 646 c0 -2 7 -6 15 -10 8 -3 15 -1 15 4 0 6 -7 10 -15 10 -8 0
-15 -2 -15 -4z"/>
</g>
</svg>
