<svg version="1.0" xmlns="http://www.w3.org/2000/svg"
 width="57.000000pt" height="83.000000pt" viewBox="0 0 57.000000 83.000000"
 preserveAspectRatio="xMidYMid meet">
<metadata>
Created by potrace 1.15, written by Peter Selinger 2001-2017
</metadata>
<g transform="translate(0.000000,83.000000) scale(0.100000,-0.100000)"
fill="#000000" stroke="none">
<path d="M230 675 c0 -42 12 -69 48 -107 15 -16 22 -33 18 -43 -5 -14 -8 -14
-37 0 -17 9 -37 31 -45 51 -9 22 -21 34 -34 34 -28 0 -30 -11 -9 -54 21 -44
42 -62 81 -71 32 -8 45 -22 50 -55 3 -24 -2 -26 -82 -46 -62 -15 -86 -26 -88
-38 -3 -16 3 -17 50 -13 29 2 63 8 74 12 20 6 23 2 29 -37 4 -23 16 -60 26
-80 11 -21 19 -41 19 -46 0 -5 -28 -15 -62 -21 -70 -13 -118 -30 -118 -41 0
-3 11 -12 23 -19 20 -11 35 -9 93 7 139 40 139 40 104 -28 -25 -48 -25 -50 -1
-50 21 0 50 36 71 88 18 46 6 113 -34 197 -74 153 -80 195 -25 195 37 0 38 17
2 33 -47 20 -87 64 -104 114 -20 61 -49 72 -49 18z m123 -362 c23 -44 31 -77
18 -69 -11 7 -41 70 -41 87 0 17 9 9 23 -18z"/>
</g>
</svg>
