<svg version="1.0" xmlns="http://www.w3.org/2000/svg"
 width="73.000000pt" height="119.000000pt" viewBox="0 0 73.000000 119.000000"
 preserveAspectRatio="xMidYMid meet">
<metadata>
Created by potrace 1.15, written by Peter Selinger 2001-2017
</metadata>
<g transform="translate(0.000000,119.000000) scale(0.100000,-0.100000)"
fill="#000000" stroke="none">
<path d="M327 978 c-7 -18 -19 -73 -26 -123 -7 -49 -16 -121 -22 -160 -5 -38
-11 -106 -14 -150 -7 -139 -17 -235 -25 -235 -4 0 -27 22 -51 48 -51 56 -65
66 -80 57 -14 -9 9 -43 82 -116 59 -61 59 -61 59 -152 0 -136 20 -155 35 -34
4 32 10 57 12 57 13 0 51 -54 46 -67 -3 -7 0 -13 7 -13 6 0 18 -7 26 -15 31
-31 32 -13 1 47 -18 34 -45 75 -61 90 -20 20 -26 32 -19 39 6 6 68 13 139 16
85 4 141 12 164 22 35 16 34 16 -87 19 -109 2 -141 10 -115 26 10 6 33 108 57
256 7 42 7 125 -1 162 -6 30 -14 27 114 50 40 7 72 18 70 23 -4 12 -92 15
-173 5 -33 -4 -73 -5 -89 -2 -29 5 -29 5 -22 66 11 103 11 109 -1 113 -7 2
-18 -11 -26 -29z m77 -224 c10 -26 7 -216 -5 -280 -31 -173 -30 -172 -63 -177
-17 -3 -34 -3 -38 0 -12 7 -9 99 7 208 8 55 20 137 26 183 11 80 12 82 39 82
16 0 30 -7 34 -16z"/>
</g>
</svg>
