<svg version="1.0" xmlns="http://www.w3.org/2000/svg"
 width="62.000000pt" height="89.000000pt" viewBox="0 0 62.000000 89.000000"
 preserveAspectRatio="xMidYMid meet">
<metadata>
Created by potrace 1.15, written by Peter Selinger 2001-2017
</metadata>
<g transform="translate(0.000000,89.000000) scale(0.100000,-0.100000)"
fill="#000000" stroke="none">
<path d="M288 679 c-15 -16 -32 -19 -104 -19 -75 0 -85 -2 -82 -17 3 -15 15
-17 101 -14 97 3 97 3 97 -42 0 -44 -1 -45 -37 -51 -134 -24 -181 -59 -147
-111 20 -31 73 -40 232 -39 107 0 126 3 150 21 61 45 25 123 -58 123 -21 0
-52 3 -69 6 -29 6 -31 9 -31 49 0 43 0 43 70 50 90 9 89 29 -1 33 -43 2 -66 8
-72 18 -11 19 -28 17 -49 -7z m70 -216 c3 -32 2 -33 -37 -33 -43 0 -46 5 -35
48 5 19 12 23 38 20 27 -3 31 -7 34 -35z m120 14 c5 -26 -16 -47 -49 -47 -32
0 -34 6 -19 45 8 21 16 26 37 23 17 -2 29 -10 31 -21z m-238 -12 c0 -29 -19
-40 -55 -31 -46 12 -21 55 33 56 17 0 22 -6 22 -25z"/>
<path d="M163 593 c-13 -2 -23 -11 -23 -20 0 -13 9 -15 45 -10 51 5 60 10 50
26 -6 11 -30 12 -72 4z"/>
<path d="M395 590 c-3 -5 0 -13 9 -16 21 -8 71 -1 71 11 0 14 -72 19 -80 5z"/>
<path d="M447 363 c-4 -3 3 -17 15 -30 16 -17 19 -26 10 -35 -8 -8 -19 -4 -42
16 -36 30 -43 31 -60 11 -10 -12 -8 -16 12 -24 30 -11 52 -37 43 -51 -8 -14
-38 -13 -53 2 -16 16 -37 -4 -28 -27 5 -13 17 -16 58 -14 47 3 54 1 65 -21 16
-32 16 -95 0 -108 -7 -6 -35 -12 -62 -14 -36 -2 -50 -7 -50 -18 0 -11 14 -16
51 -18 45 -3 55 1 82 27 37 34 42 80 17 151 -13 37 -13 44 0 63 21 30 19 44
-11 72 -28 26 -36 29 -47 18z"/>
<path d="M130 323 c-20 -26 -22 -37 -18 -141 3 -105 5 -115 27 -133 26 -22 96
-26 135 -8 26 12 36 35 36 87 0 47 -24 36 -30 -14 -7 -59 -34 -53 -38 9 -5 77
-41 55 -42 -25 0 -21 -5 -28 -20 -28 -23 0 -33 30 -28 81 3 34 3 34 70 39 37
3 73 11 80 18 17 17 17 104 -1 125 -10 13 -30 17 -81 17 -63 0 -70 -2 -90 -27z
m140 -19 c0 -12 -6 -15 -22 -10 -13 3 -36 6 -51 6 -16 0 -26 4 -22 10 3 6 26
10 51 10 34 0 44 -4 44 -16z m-3 -48 c14 -14 -15 -26 -63 -26 -52 0 -68 12
-46 34 7 8 100 1 109 -8z"/>
<path d="M371 136 c-9 -11 -4 -15 26 -19 39 -7 60 3 49 22 -10 16 -61 14 -75
-3z"/>
</g>
</svg>
