<svg version="1.0" xmlns="http://www.w3.org/2000/svg"
 width="101.000000pt" height="117.000000pt" viewBox="0 0 101.000000 117.000000"
 preserveAspectRatio="xMidYMid meet">
<metadata>
Created by potrace 1.15, written by Peter Selinger 2001-2017
</metadata>
<g transform="translate(0.000000,117.000000) scale(0.100000,-0.100000)"
fill="#000000" stroke="none">
<path d="M449 1048 c-1 -12 -1 -43 1 -67 1 -24 -2 -46 -7 -50 -5 -3 -16 -22
-25 -41 -9 -20 -32 -51 -51 -70 -19 -19 -37 -43 -40 -52 -13 -36 48 -14 96 36
36 36 49 25 49 -41 0 -49 -27 -111 -64 -144 -10 -9 -18 -21 -18 -28 0 -18 30
-13 37 7 18 46 37 46 86 -2 50 -48 107 -90 114 -83 3 3 -13 27 -35 52 -40 45
-82 122 -82 149 0 8 -5 16 -11 18 -10 3 2 82 14 94 3 3 33 -9 67 -26 34 -17
65 -29 68 -26 6 7 -48 56 -61 56 -5 0 -26 19 -48 43 -31 33 -39 50 -39 82 -1
49 -21 107 -37 113 -8 2 -14 -6 -14 -20z"/>
<path d="M170 1020 c0 -40 -37 -45 -76 -8 -14 13 -24 16 -29 9 -3 -6 1 -14 9
-17 9 -3 16 -12 16 -19 0 -7 3 -15 8 -17 4 -2 20 -18 37 -36 29 -32 30 -35 31
-152 2 -119 2 -119 -49 -170 -35 -35 -47 -54 -40 -61 12 -12 53 5 53 22 0 6 7
18 16 26 20 20 30 7 39 -49 10 -54 25 -47 25 12 0 43 3 50 20 50 11 0 20 -4
20 -10 0 -5 18 -10 40 -10 22 0 40 4 40 8 0 15 -44 50 -71 57 -15 4 -32 17
-39 31 -8 13 -17 24 -22 24 -9 0 -11 34 -2 43 3 3 7 28 9 56 4 47 18 89 35
101 4 3 25 20 46 38 22 17 48 38 59 46 18 13 19 15 3 21 -11 4 -39 -4 -70 -19
-28 -14 -55 -26 -60 -26 -4 0 -12 18 -18 40 -13 47 -30 53 -30 10z"/>
<path d="M720 951 c0 -67 -9 -75 -55 -45 -40 26 -33 -8 11 -51 38 -39 54 -79
54 -135 -1 -37 -26 -74 -73 -105 -15 -9 -27 -24 -27 -31 0 -21 38 -17 52 6 20
31 35 24 50 -22 7 -24 18 -42 23 -40 6 2 9 9 7 17 -1 7 2 25 8 39 8 21 16 26
45 26 49 0 46 26 -5 46 -40 16 -40 16 -40 83 0 64 18 106 70 168 13 16 13 63
0 63 -5 0 -10 -6 -10 -13 0 -18 -46 -61 -58 -53 -5 3 -12 23 -16 44 -3 22 -13
45 -21 52 -13 11 -15 5 -15 -49z"/>
<path d="M352 567 c-23 -24 -29 -47 -12 -47 13 0 43 47 38 60 -2 6 -13 1 -26
-13z"/>
<path d="M170 408 c1 -41 58 -89 83 -70 22 16 94 32 144 32 39 0 54 -5 71 -23
12 -13 22 -27 22 -32 0 -20 -36 -85 -47 -85 -7 0 -18 -9 -25 -20 -7 -11 -16
-20 -20 -20 -4 0 -33 -12 -65 -27 -32 -14 -74 -29 -93 -32 -39 -7 -49 -34 -14
-39 44 -6 203 63 266 117 10 9 37 21 60 28 100 30 147 8 156 -72 5 -48 10 -59
44 -93 25 -26 108 -48 118 -32 4 7 13 10 18 6 16 -9 62 4 62 18 0 8 -23 12
-66 14 -95 2 -114 17 -114 87 0 48 -4 59 -30 87 -26 26 -39 32 -88 36 -62 5
-85 19 -108 68 -23 48 -73 68 -169 67 -44 0 -101 -3 -126 -8 -31 -5 -49 -4
-53 4 -12 19 -26 12 -26 -11z"/>
</g>
</svg>
