<svg version="1.0" xmlns="http://www.w3.org/2000/svg"
 width="71.000000pt" height="122.000000pt" viewBox="0 0 71.000000 122.000000"
 preserveAspectRatio="xMidYMid meet">
<metadata>
Created by potrace 1.15, written by Peter Selinger 2001-2017
</metadata>
<g transform="translate(0.000000,122.000000) scale(0.100000,-0.100000)"
fill="#000000" stroke="none">
<path d="M520 1139 c-48 -7 -89 -19 -131 -39 -22 -10 -27 -20 -32 -63 -7 -73
-16 -77 -160 -71 -66 3 -123 7 -127 9 -4 2 -16 -2 -26 -10 -18 -13 -18 -14 6
-23 14 -5 64 -7 112 -4 48 2 108 1 133 -2 45 -7 45 -7 45 -72 0 -35 -4 -64
-10 -65 -5 -1 -21 -1 -35 -1 -49 0 -55 2 -55 22 0 13 -7 20 -19 20 -10 0 -21
-9 -24 -20 -5 -18 -14 -20 -77 -20 -63 0 -71 -2 -68 -17 3 -15 17 -19 73 -23
62 -4 70 -7 70 -25 0 -18 -6 -20 -76 -18 -58 2 -80 -1 -89 -12 -17 -20 -3 -24
90 -27 71 -3 75 -4 78 -27 5 -30 25 -51 49 -51 10 0 35 -5 56 -11 26 -7 37
-15 37 -29 0 -19 -8 -20 -161 -20 -147 0 -160 -1 -157 -18 3 -15 20 -17 162
-20 159 -3 159 -3 153 -242 -5 -228 -5 -240 13 -240 10 0 21 7 24 16 3 9 6
117 6 240 0 225 0 225 68 220 199 -16 240 -17 248 -5 12 20 -28 40 -76 38 -65
-3 -219 12 -225 21 -9 15 26 40 56 40 43 0 69 17 85 56 14 34 14 34 89 34 43
0 75 4 75 10 0 12 0 12 -72 15 -62 3 -78 9 -78 31 0 16 12 18 93 15 37 -2 57
1 57 8 0 15 -11 18 -83 26 -50 6 -59 10 -72 36 -20 38 -8 43 75 35 46 -4 60
-2 60 8 0 21 -21 25 -122 25 -98 0 -136 -10 -108 -29 8 -5 27 -10 42 -10 26 0
27 -2 16 -25 -6 -14 -18 -25 -27 -26 -94 -5 -86 -10 -86 58 0 34 3 65 7 68 4
4 75 7 158 7 122 0 150 2 150 14 0 14 -21 16 -165 19 -141 3 -149 6 -139 59 6
33 13 40 51 57 25 10 57 19 73 19 23 0 60 21 60 35 0 8 -30 10 -70 4z m-180
-398 c0 -22 -19 -31 -66 -31 -30 0 -34 3 -34 25 0 23 3 25 50 25 42 0 50 -3
50 -19z m158 -3 c-3 -20 -10 -23 -52 -26 -53 -3 -70 5 -60 31 5 13 19 17 61
17 51 0 54 -2 51 -22z m-160 -85 c-2 -23 -7 -28 -28 -25 -56 6 -70 13 -70 32
0 17 7 20 51 20 49 0 50 -1 47 -27z m162 18 c0 -19 -54 -51 -86 -51 -31 0 -34
3 -34 30 0 30 0 30 60 30 33 0 60 -4 60 -9z"/>
<path d="M192 1052 c-7 -5 -36 -7 -64 -4 -45 4 -50 3 -46 -14 3 -15 15 -20 63
-25 59 -7 159 2 172 14 10 11 -4 20 -34 23 -16 2 -39 6 -53 9 -14 3 -31 2 -38
-3z"/>
<path d="M455 1041 c-14 -24 9 -29 103 -24 100 5 111 8 98 20 -12 13 -193 15
-201 4z"/>
<path d="M108 892 c-16 -2 -28 -9 -28 -18 0 -20 192 -20 209 0 8 9 9 16 2 21
-10 5 -123 4 -183 -3z"/>
<path d="M205 482 c-46 -15 -86 -49 -104 -86 -16 -36 -17 -44 -4 -73 12 -29
12 -38 -1 -66 -50 -107 -69 -188 -48 -201 14 -8 29 8 35 39 13 65 20 92 35
127 13 31 21 38 43 38 16 0 40 -5 54 -12 26 -11 75 1 75 20 0 10 -60 32 -89
32 -33 0 -22 20 32 55 39 25 61 55 42 55 -8 0 -69 -32 -75 -39 -6 -7 -48 -31
-54 -31 -2 0 -6 11 -9 25 -5 28 28 59 91 86 17 8 32 17 32 20 0 6 -28 21 -33
18 -1 -1 -11 -4 -22 -7z"/>
<path d="M488 462 c-43 -5 -33 -17 25 -32 67 -17 87 -30 87 -56 0 -31 -27 -51
-48 -36 -10 6 -38 22 -64 35 -40 21 -49 23 -59 11 -10 -12 -4 -18 29 -32 22
-9 45 -25 51 -34 9 -15 5 -19 -35 -31 -61 -18 -52 -32 20 -30 67 2 78 -5 96
-62 7 -22 16 -50 21 -63 5 -13 9 -36 9 -52 0 -42 10 -60 31 -60 18 0 19 5 13
67 -9 90 -9 91 -40 162 -14 32 -11 71 5 71 4 0 13 11 19 25 10 21 9 32 -4 56
-8 17 -23 32 -32 35 -9 3 -26 10 -37 14 -29 12 -56 16 -87 12z"/>
</g>
</svg>
