<svg version="1.0" xmlns="http://www.w3.org/2000/svg"
 width="95.000000pt" height="163.000000pt" viewBox="0 0 95.000000 163.000000"
 preserveAspectRatio="xMidYMid meet">
<metadata>
Created by potrace 1.15, written by Peter Selinger 2001-2017
</metadata>
<g transform="translate(0.000000,163.000000) scale(0.100000,-0.100000)"
fill="#000000" stroke="none">
<path d="M580 1386 c-29 -29 19 -87 57 -68 10 5 72 9 137 10 66 1 124 6 129
11 19 19 -2 40 -45 45 -88 11 -268 12 -278 2z"/>
<path d="M330 1293 c-49 -8 -96 -37 -158 -97 -93 -89 -153 -212 -139 -283 36
-178 67 -235 192 -353 62 -58 92 -116 101 -195 2 -26 -18 -105 -27 -105 -10 0
-49 55 -49 69 0 17 -43 101 -52 101 -4 0 -8 6 -8 13 0 7 -15 31 -33 53 -18 21
-41 51 -50 67 -20 30 -34 34 -62 13 -18 -13 -18 -15 8 -49 21 -28 26 -42 21
-69 -4 -18 -10 -37 -14 -43 -14 -19 -38 -176 -32 -208 4 -22 48 -23 56 -1 3 9
6 41 6 72 0 51 17 122 32 137 7 7 35 -32 69 -95 13 -25 26 -47 30 -50 3 -3 10
-34 17 -69 9 -52 9 -66 -3 -77 -7 -8 -18 -14 -24 -14 -23 0 -121 -46 -126 -58
-10 -26 6 -33 53 -26 63 9 102 27 141 63 35 33 91 147 91 185 0 14 4 28 10 31
5 3 10 37 10 75 0 85 -17 118 -107 211 -36 37 -72 78 -81 91 -9 12 -19 25 -22
28 -4 3 -21 35 -39 71 -29 59 -32 73 -29 140 3 74 3 74 21 37 23 -46 171 -200
212 -221 19 -9 38 -12 51 -7 19 7 21 15 17 57 -2 26 -8 73 -14 103 -5 30 -11
78 -12 107 -4 59 -19 83 -54 83 -23 0 -25 -3 -19 -27 12 -49 27 -206 22 -219
-6 -16 -32 -8 -60 18 -11 10 -23 18 -26 18 -3 0 -28 43 -55 95 -48 95 -48 95
-8 152 33 47 53 64 106 90 64 31 95 63 82 83 -3 6 -9 9 -13 9 -4 -1 -18 -4
-32 -6z"/>
<path d="M530 1175 c0 -28 25 -44 94 -56 66 -13 66 -13 62 -173 -3 -89 -7
-204 -10 -256 -3 -52 -7 -128 -8 -167 -2 -40 -6 -73 -11 -73 -9 0 -3 -258 8
-332 5 -37 11 -48 25 -48 10 0 21 10 25 23 5 12 12 121 16 242 4 121 10 238
13 260 3 22 8 114 11 204 2 90 7 166 10 169 3 3 0 11 -6 18 -7 9 -7 19 0 33 6
11 11 35 11 55 0 27 5 36 23 42 31 11 56 14 100 14 25 0 37 5 37 14 0 27 -63
38 -247 43 -138 4 -153 3 -153 -12z"/>
<path d="M564 986 c-3 -14 -3 -34 1 -44 3 -11 1 -23 -4 -26 -6 -4 -10 -74 -11
-174 0 -92 -4 -194 -10 -227 -5 -33 -10 -81 -10 -106 0 -26 -7 -63 -15 -82
-15 -36 -11 -92 7 -103 17 -10 26 9 32 66 3 30 10 82 16 115 37 228 54 561 30
590 -18 21 -29 19 -36 -9z"/>
<path d="M857 983 c-4 -3 -7 -135 -7 -292 0 -286 0 -286 25 -316 21 -25 26
-28 35 -15 8 12 16 114 11 143 -1 5 -4 72 -7 150 -2 78 -9 166 -14 195 -5 31
-5 63 0 77 7 17 4 28 -9 44 -20 23 -24 25 -34 14z"/>
</g>
</svg>
