<svg version="1.0" xmlns="http://www.w3.org/2000/svg"
 width="59.000000pt" height="121.000000pt" viewBox="0 0 59.000000 121.000000"
 preserveAspectRatio="xMidYMid meet">
<metadata>
Created by potrace 1.15, written by Peter Selinger 2001-2017
</metadata>
<g transform="translate(0.000000,121.000000) scale(0.100000,-0.100000)"
fill="#000000" stroke="none">
<path d="M230 1006 c0 -12 -5 -38 -11 -55 -8 -24 -9 -39 0 -57 12 -27 36 -32
45 -8 11 28 6 109 -8 127 -18 23 -26 21 -26 -7z"/>
<path d="M334 890 c-15 -33 -31 -60 -35 -60 -5 0 -9 -8 -9 -19 0 -10 -6 -23
-13 -30 -10 -8 -28 3 -75 49 -34 33 -66 60 -72 60 -22 0 -8 -40 30 -89 22 -28
40 -53 40 -56 0 -3 9 -18 19 -33 17 -24 20 -51 24 -221 4 -183 3 -197 -17
-235 -11 -23 -29 -50 -38 -60 -39 -43 -15 -48 33 -7 39 34 49 32 49 -12 0 -39
24 -110 33 -100 4 3 7 26 7 50 0 24 4 43 8 43 5 0 21 -14 37 -30 16 -17 34
-30 42 -30 18 0 -19 59 -68 110 -40 41 -40 41 -40 155 0 125 -8 106 101 245
17 22 18 25 3 29 -18 3 -68 -48 -86 -89 -11 -23 -12 -20 -15 29 -2 30 1 57 7
60 5 4 9 21 9 39 -1 18 4 38 10 44 9 9 12 3 12 -26 0 -30 3 -37 18 -34 13 3
17 13 16 48 0 25 -4 60 -9 78 -6 28 -5 32 12 32 10 0 26 -13 35 -28 26 -44 76
-97 84 -89 12 11 -16 82 -45 113 -27 30 -45 63 -56 102 -10 35 -22 26 -51 -38z"/>
<path d="M160 654 c-16 -40 -13 -179 4 -193 20 -17 26 -3 33 78 9 112 -13 180
-37 115z"/>
<path d="M366 475 c-9 -25 -7 -138 4 -155 14 -23 25 14 25 87 0 63 -16 101
-29 68z"/>
</g>
</svg>
