<svg version="1.0" xmlns="http://www.w3.org/2000/svg"
 width="74.000000pt" height="96.000000pt" viewBox="0 0 74.000000 96.000000"
 preserveAspectRatio="xMidYMid meet">
<metadata>
Created by potrace 1.15, written by Peter Selinger 2001-2017
</metadata>
<g transform="translate(0.000000,96.000000) scale(0.100000,-0.100000)"
fill="#000000" stroke="none">
<path d="M501 707 c-11 -13 -21 -27 -21 -31 0 -5 -14 -28 -30 -53 -36 -53 -34
-63 6 -30 53 44 69 49 89 27 29 -33 113 -82 132 -78 16 3 15 6 -7 23 -47 37
-130 127 -130 140 0 24 -17 25 -39 2z"/>
<path d="M261 689 c-25 -32 -40 -87 -41 -151 0 -38 0 -38 -88 -38 -93 0 -109
-5 -91 -27 8 -9 37 -13 94 -13 83 0 83 0 89 -31 14 -72 6 -158 -21 -226 -15
-38 -35 -81 -45 -98 -23 -38 -23 -45 0 -45 29 0 51 31 79 112 22 61 27 91 27
180 1 108 1 108 58 108 89 0 88 29 -2 40 -38 4 -46 9 -48 29 -2 13 0 21 6 17
6 -3 19 6 30 21 21 28 21 28 50 0 19 -18 32 -25 37 -18 7 12 -53 111 -67 111
-5 0 -18 -21 -30 -47 -28 -64 -35 -33 -8 36 11 28 20 56 20 61 0 20 -26 8 -49
-21z"/>
<path d="M103 636 c-12 -24 -36 -60 -53 -79 -42 -48 -21 -58 37 -17 44 32 46
32 73 16 40 -23 57 -21 34 5 -10 11 -26 41 -35 67 -8 25 -20 47 -25 49 -5 2
-20 -17 -31 -41z"/>
<path d="M520 526 c0 -8 5 -18 10 -21 13 -8 40 -72 40 -95 0 -10 -6 -23 -13
-29 -11 -8 -18 -6 -33 10 -10 11 -38 34 -63 50 -60 41 -76 23 -19 -22 65 -51
80 -71 63 -88 -20 -21 -73 -4 -121 41 -29 27 -45 35 -50 27 -4 -8 12 -31 44
-61 48 -45 53 -48 105 -48 62 0 61 2 77 -112 5 -31 17 -77 29 -102 16 -37 25
-46 45 -46 34 0 42 18 13 29 -32 13 -44 47 -60 171 -13 104 -13 105 10 140 34
51 30 83 -17 130 -42 42 -60 50 -60 26z"/>
</g>
</svg>
