<svg version="1.0" xmlns="http://www.w3.org/2000/svg"
 width="70.000000pt" height="107.000000pt" viewBox="0 0 70.000000 107.000000"
 preserveAspectRatio="xMidYMid meet">
<metadata>
Created by potrace 1.15, written by Peter Selinger 2001-2017
</metadata>
<g transform="translate(0.000000,107.000000) scale(0.100000,-0.100000)"
fill="#000000" stroke="none">
<path d="M135 1000 c-3 -5 -15 -10 -25 -10 -29 0 -50 -54 -50 -127 0 -53 4
-68 23 -88 12 -13 33 -25 47 -27 29 -3 32 -25 20 -117 -4 -29 -4 -70 0 -92 4
-21 4 -41 1 -45 -3 -3 -6 -38 -7 -77 -2 -195 -3 -207 -21 -207 -41 1 -44 12
-44 161 0 79 6 177 12 217 11 65 10 75 -4 90 -31 31 -41 0 -52 -156 -11 -162
-2 -306 20 -328 26 -27 60 -35 188 -48 15 -2 30 -6 33 -9 6 -6 -15 -74 -28
-93 -5 -6 -2 -16 5 -22 18 -15 67 28 67 59 0 13 4 40 10 59 5 19 11 100 14
180 14 358 18 426 27 434 5 6 9 1 9 -13 0 -30 37 -63 62 -55 30 9 24 -44 -6
-56 -44 -16 -44 -13 -49 -295 -2 -112 -8 -209 -14 -220 -25 -49 -22 -118 6
-101 33 21 39 62 44 313 3 139 9 257 12 263 11 18 25 10 25 -15 0 -35 34 -61
87 -69 51 -7 67 1 57 27 -4 12 -18 17 -43 17 -45 0 -64 12 -59 36 2 15 14 20
51 22 72 5 61 33 -13 34 -36 0 -40 3 -40 25 0 21 4 24 23 19 12 -3 33 -6 47
-6 53 -1 52 4 51 -294 -1 -191 2 -288 10 -314 6 -20 13 -43 15 -49 2 -7 10
-10 20 -6 15 5 16 16 9 87 -8 76 -11 355 -6 491 4 75 -11 114 -41 117 -13 1
-40 2 -62 4 -53 3 -66 19 -59 72 4 32 10 42 24 42 12 0 21 -10 25 -26 6 -24
25 -36 80 -50 23 -6 25 -4 22 17 -2 16 -12 25 -36 31 -44 12 -40 41 6 48 18 3
33 8 32 13 0 4 0 12 0 17 0 14 -97 12 -139 -2 -50 -18 -60 -35 -61 -96 0 -45
-3 -53 -17 -50 -14 2 -19 15 -21 52 -3 45 -5 48 -27 44 -22 -5 -23 -2 -19 26
3 17 7 36 9 42 5 17 85 32 195 38 52 3 96 5 96 6 1 0 5 7 8 15 4 10 -2 19 -17
24 -34 13 -233 -8 -283 -30 -38 -16 -44 -23 -45 -49 -1 -16 -2 -33 -3 -37 -1
-5 -5 -22 -10 -39 -4 -17 -9 -116 -12 -220 -3 -104 -6 -207 -7 -229 -2 -22 -4
-72 -5 -111 -3 -93 -9 -96 -101 -47 -2 1 -5 22 -6 48 -3 41 -1 47 26 60 52 27
58 47 60 207 2 81 0 150 -4 154 -3 4 -13 4 -21 1 -12 -5 -15 -32 -15 -147 -1
-78 -3 -146 -6 -151 -4 -5 -13 -9 -21 -9 -12 0 -14 30 -14 178 0 129 3 182 12
191 11 11 11 14 1 18 -21 8 -15 22 7 16 11 -3 20 -9 20 -14 0 -16 29 -9 39 9
15 28 11 141 -6 176 -8 17 -26 37 -41 44 -31 15 -88 16 -97 2z m105 -108 c0
-32 -6 -66 -13 -76 -15 -21 -69 -31 -96 -17 -22 12 -32 71 -19 119 9 32 10 32
68 32 60 0 60 0 60 -58z"/>
<path d="M450 450 c-12 -7 -12 -12 4 -29 16 -17 17 -32 10 -148 -4 -70 -11
-130 -15 -133 -14 -9 -20 -64 -10 -79 8 -12 12 -12 24 -3 20 17 26 54 35 210
8 125 18 162 40 148 6 -3 6 -25 0 -58 -15 -78 -5 -273 15 -292 9 -9 18 -16 20
-16 15 0 15 39 1 93 -16 61 -15 89 2 239 6 56 6 58 -20 68 -34 12 -86 13 -106
0z"/>
</g>
</svg>
