<svg version="1.0" xmlns="http://www.w3.org/2000/svg"
 width="65.000000pt" height="87.000000pt" viewBox="0 0 65.000000 87.000000"
 preserveAspectRatio="xMidYMid meet">
<metadata>
Created by potrace 1.15, written by Peter Selinger 2001-2017
</metadata>
<g transform="translate(0.000000,87.000000) scale(0.100000,-0.100000)"
fill="#000000" stroke="none">
<path d="M305 676 c-34 -14 -80 -64 -90 -96 -4 -14 -18 -22 -46 -26 -47 -8
-79 -51 -79 -108 0 -44 26 -72 75 -82 20 -3 39 -12 42 -19 7 -19 -15 -55 -33
-55 -9 0 -32 -16 -51 -35 -33 -33 -35 -39 -30 -80 6 -56 17 -69 72 -91 58 -22
101 -13 148 30 31 28 37 40 37 74 0 46 -13 63 -70 88 -21 10 -41 23 -44 30 -9
24 7 55 36 70 16 9 38 34 51 60 24 51 19 67 -29 93 -56 31 -55 30 -38 62 8 16
26 34 40 39 37 14 120 12 159 -4 58 -25 67 -49 64 -183 -4 -188 -4 -194 15
-278 24 -107 32 -125 56 -125 27 0 38 45 17 68 -32 36 -50 113 -46 207 6 179
4 218 -18 267 -14 30 -35 55 -60 71 -47 31 -135 42 -178 23z m-31 -167 c34
-16 39 -34 17 -72 -16 -29 -22 -32 -73 -35 -62 -3 -88 12 -88 52 0 52 82 83
144 55z m11 -281 c42 -43 6 -108 -59 -108 -55 0 -85 18 -92 57 -7 37 6 59 39
67 36 7 99 -1 112 -16z"/>
</g>
</svg>
