<svg version="1.0" xmlns="http://www.w3.org/2000/svg"
 width="89.000000pt" height="153.000000pt" viewBox="0 0 89.000000 153.000000"
 preserveAspectRatio="xMidYMid meet">
<metadata>
Created by potrace 1.15, written by Peter Selinger 2001-2017
</metadata>
<g transform="translate(0.000000,153.000000) scale(0.100000,-0.100000)"
fill="#000000" stroke="none">
<path d="M430 1413 c-9 -2 -26 -23 -38 -47 -13 -24 -41 -63 -62 -87 -22 -24
-40 -50 -40 -56 0 -7 -3 -13 -8 -13 -14 0 -65 -111 -82 -177 -6 -24 -15 -43
-20 -43 -16 0 -12 -163 4 -202 33 -78 123 -135 221 -141 39 -2 40 -3 49 -51 9
-49 8 -51 -25 -79 -19 -15 -54 -41 -79 -57 -25 -16 -60 -42 -79 -57 -18 -16
-47 -36 -63 -47 -16 -10 -26 -22 -21 -26 14 -14 69 1 98 25 15 13 49 31 76 40
27 9 49 21 49 26 0 5 8 9 18 9 10 0 23 5 30 12 9 9 12 8 16 -3 9 -28 14 -87 8
-93 -3 -4 -7 -25 -9 -47 -2 -22 -13 -56 -24 -75 -10 -19 -19 -45 -19 -59 0
-13 -5 -27 -10 -30 -6 -3 -10 -15 -10 -26 0 -10 -4 -19 -8 -19 -12 0 -34 -49
-27 -60 6 -9 37 -6 55 5 6 3 10 15 10 26 0 11 6 22 14 25 8 3 24 25 35 50 12
24 23 44 25 44 2 0 18 -24 34 -53 16 -28 38 -61 48 -73 18 -20 56 -44 68 -44
10 0 7 45 -3 55 -21 21 -93 172 -95 200 -2 17 -7 65 -11 108 -7 78 -7 78 44
47 29 -16 56 -30 61 -30 6 0 10 -4 10 -8 0 -13 126 -72 154 -72 32 0 37 35 6
45 -11 3 -26 12 -33 18 -19 18 -75 57 -82 57 -3 0 -33 18 -65 40 -32 22 -62
40 -66 40 -4 0 -17 11 -30 26 -18 18 -24 37 -24 68 0 43 0 43 44 48 24 3 58
13 76 22 18 9 44 16 57 16 12 0 23 4 23 8 0 5 15 14 34 22 59 23 73 71 45 155
-10 32 -19 69 -19 83 0 28 -78 192 -91 192 -5 0 -9 7 -9 15 0 16 -142 165
-157 165 -5 0 -17 15 -27 34 -18 35 -50 55 -76 49z m100 -173 c0 -5 7 -10 15
-10 8 0 15 -3 15 -8 0 -4 10 -19 23 -32 54 -61 107 -150 107 -180 0 -18 -7
-20 -90 -20 -90 0 -90 0 -90 69 0 39 -5 73 -10 76 -8 5 -8 11 0 20 6 7 10 24
9 37 -3 38 0 58 11 58 6 0 10 -4 10 -10z m-106 -22 c3 -13 6 -69 6 -124 0
-102 0 -102 -46 -106 -25 -2 -64 -2 -85 0 -36 4 -38 6 -32 31 17 69 115 221
143 221 4 0 10 -10 14 -22z m1 -301 c2 -1 5 -48 8 -104 5 -100 5 -101 -19
-107 -68 -17 -152 47 -171 130 -15 64 -5 82 50 86 41 4 128 0 132 -5z m271 -4
c24 -15 25 -20 18 -67 -7 -55 -29 -96 -50 -96 -8 0 -14 -4 -14 -9 0 -8 -14
-12 -97 -27 -27 -5 -30 6 -36 118 -4 76 -3 78 22 87 43 16 129 13 157 -6z"/>
<path d="M555 1120 c-4 -6 -4 -24 0 -40 5 -23 12 -30 30 -30 28 0 38 22 25 55
-10 25 -43 34 -55 15z"/>
<path d="M319 1105 c-4 -16 -1 -42 6 -57 7 -18 45 -25 45 -9 0 5 9 11 20 14
24 6 27 42 4 51 -19 7 -74 8 -75 1z"/>
<path d="M330 840 c-13 -24 -13 -26 6 -44 21 -21 57 -3 52 26 -4 30 -45 43
-58 18z"/>
<path d="M587 860 c-13 -50 15 -78 58 -58 35 16 31 43 -9 62 -43 20 -43 20
-49 -4z"/>
<path d="M148 563 c-59 -40 -47 -60 32 -54 32 2 60 35 53 61 -7 27 -39 25 -85
-7z"/>
<path d="M690 557 c0 -30 39 -64 84 -73 34 -6 36 -5 36 23 0 24 -7 32 -47 51
-60 28 -73 28 -73 -1z"/>
<path d="M656 251 c-3 -5 -3 -17 0 -25 9 -22 92 -79 104 -71 18 11 11 51 -12
72 -26 24 -83 39 -92 24z"/>
<path d="M295 238 c-10 -6 -30 -22 -43 -35 -12 -13 -27 -23 -32 -23 -6 0 -10
-10 -10 -21 0 -20 3 -21 53 -15 62 8 78 22 80 67 2 37 -15 47 -48 27z"/>
</g>
</svg>
