<svg version="1.0" xmlns="http://www.w3.org/2000/svg"
 width="77.000000pt" height="61.000000pt" viewBox="0 0 77.000000 61.000000"
 preserveAspectRatio="xMidYMid meet">
<metadata>
Created by potrace 1.15, written by Peter Selinger 2001-2017
</metadata>
<g transform="translate(0.000000,61.000000) scale(0.100000,-0.100000)"
fill="#000000" stroke="none">
<path d="M130 500 c0 -7 9 -24 19 -39 11 -15 23 -39 26 -53 6 -24 4 -26 -39
-32 -36 -6 -46 -11 -46 -26 0 -13 10 -20 38 -25 65 -11 70 -18 42 -67 -13 -24
-28 -51 -34 -60 -6 -9 -7 -21 -2 -25 7 -7 28 13 78 75 22 27 38 28 38 4 0 -10
3 -22 7 -26 12 -12 33 -80 33 -108 0 -32 15 -45 28 -22 9 17 -2 116 -18 149
-22 48 -17 60 25 63 61 5 64 19 11 41 -44 19 -46 22 -34 42 32 52 36 63 31 75
-7 18 -37 26 -108 29 -33 1 -68 5 -77 9 -12 5 -18 4 -18 -4z m136 -71 c3 -6 0
-18 -8 -26 -14 -13 -16 -12 -20 11 -5 27 14 37 28 15z"/>
<path d="M428 495 c-7 -7 36 -95 52 -105 4 -3 9 -12 12 -20 3 -11 -7 -18 -35
-25 -52 -13 -56 -27 -13 -47 33 -16 34 -18 24 -55 -16 -63 -21 -133 -10 -133
9 0 18 19 43 91 6 20 18 44 26 55 14 18 15 18 39 -11 20 -26 41 -63 74 -134 3
-8 12 -17 18 -19 23 -7 13 69 -17 128 -30 58 -30 58 0 64 20 4 29 11 29 26 0
15 -9 21 -40 26 -22 4 -40 11 -40 15 0 11 21 49 37 66 15 17 5 53 -16 53 -9 0
-22 5 -27 10 -13 13 -146 25 -156 15z m116 -56 c21 -10 23 -14 13 -30 -15 -24
-23 -24 -31 -1 -3 9 -9 23 -12 30 -7 15 -2 15 30 1z"/>
</g>
</svg>
