<svg version="1.0" xmlns="http://www.w3.org/2000/svg"
 width="72.000000pt" height="92.000000pt" viewBox="0 0 72.000000 92.000000"
 preserveAspectRatio="xMidYMid meet">
<metadata>
Created by potrace 1.15, written by Peter Selinger 2001-2017
</metadata>
<g transform="translate(0.000000,92.000000) scale(0.100000,-0.100000)"
fill="#000000" stroke="none">
<path d="M370 711 c0 -28 -126 -140 -210 -186 -49 -28 -70 -46 -70 -62 0 -18
40 -16 71 5 62 40 146 103 178 131 41 37 48 38 80 7 15 -13 63 -43 107 -65 72
-37 84 -40 108 -30 30 14 33 27 9 35 -116 38 -219 104 -225 146 -2 15 -11 24
-25 26 -13 2 -23 -1 -23 -7z"/>
<path d="M361 553 c-6 -13 -11 -34 -11 -47 0 -17 -13 -31 -49 -53 -60 -38 -81
-85 -59 -133 15 -35 55 -50 134 -50 43 0 56 5 92 36 46 39 52 65 27 114 -9 18
-30 34 -60 45 -50 20 -58 41 -20 51 33 8 31 15 -9 40 -34 22 -34 22 -45 -3z
m85 -140 c18 -24 18 -58 -1 -76 -20 -20 -104 -31 -138 -18 -29 11 -33 25 -17
66 19 51 124 70 156 28z"/>
<path d="M352 388 c-27 -27 -5 -52 38 -41 14 4 20 12 18 27 -3 24 -37 33 -56
14z"/>
<path d="M465 255 c-37 -17 -97 -19 -112 -4 -7 7 -19 9 -27 6 -12 -5 -16 -21
-16 -70 0 -85 13 -97 108 -97 72 0 72 0 86 -35 15 -35 46 -48 46 -20 0 22 -24
67 -48 88 -16 15 -33 18 -73 15 -39 -2 -54 1 -62 13 -17 27 -1 49 35 49 42 0
121 36 116 52 -6 17 -19 18 -53 3z"/>
</g>
</svg>
