<svg version="1.0" xmlns="http://www.w3.org/2000/svg"
 width="47.000000pt" height="89.000000pt" viewBox="0 0 47.000000 89.000000"
 preserveAspectRatio="xMidYMid meet">
<metadata>
Created by potrace 1.15, written by Peter Selinger 2001-2017
</metadata>
<g transform="translate(0.000000,89.000000) scale(0.100000,-0.100000)"
fill="#000000" stroke="none">
<path d="M210 740 c-16 -16 -41 -51 -57 -77 -15 -27 -31 -49 -35 -51 -4 -2 -8
-9 -8 -15 0 -7 -9 -23 -20 -37 -11 -14 -20 -31 -20 -37 0 -19 30 -15 37 5 12
31 42 49 93 56 28 4 57 9 65 12 9 4 25 -11 45 -45 18 -28 38 -51 46 -51 19 0
18 10 -6 61 -11 24 -20 52 -20 62 0 9 -9 26 -20 37 -11 11 -20 28 -20 38 0 27
-23 72 -38 72 -7 0 -26 -13 -42 -30z m40 -75 c0 -12 -7 -26 -16 -29 -34 -13
-46 20 -18 48 20 20 34 12 34 -19z"/>
<path d="M204 484 c-10 -16 -21 -31 -24 -34 -16 -15 -68 -98 -74 -118 -5 -16
3 -44 30 -98 36 -72 36 -77 24 -117 -7 -23 -24 -52 -37 -65 -40 -40 -31 -45
70 -38 157 12 185 21 129 42 -23 9 -30 20 -42 67 -14 59 -6 87 25 87 29 0 32
54 6 113 -10 23 -29 69 -41 102 -32 85 -43 95 -66 59z m36 -103 c16 -38 7 -51
-36 -51 -38 0 -39 1 -21 32 31 56 40 59 57 19z m30 -103 c0 -16 -40 -58 -56
-58 -6 0 -19 10 -27 23 -14 21 -13 24 1 35 23 15 82 15 82 0z m-20 -195 c0 -7
-12 -13 -26 -13 -21 0 -25 3 -19 18 4 9 10 25 13 36 5 17 6 16 18 -5 7 -13 13
-30 14 -36z"/>
<path d="M330 418 c0 -20 10 -54 36 -130 10 -29 24 -10 23 30 -1 56 -22 116
-42 120 -12 3 -17 -3 -17 -20z"/>
<path d="M42 398 c-23 -23 -9 -148 17 -148 5 0 11 15 14 33 4 17 9 47 13 65 4
20 2 38 -6 47 -15 18 -22 19 -38 3z"/>
</g>
</svg>
