<svg version="1.0" xmlns="http://www.w3.org/2000/svg"
 width="45.000000pt" height="83.000000pt" viewBox="0 0 45.000000 83.000000"
 preserveAspectRatio="xMidYMid meet">
<metadata>
Created by potrace 1.15, written by Peter Selinger 2001-2017
</metadata>
<g transform="translate(0.000000,83.000000) scale(0.100000,-0.100000)"
fill="#000000" stroke="none">
<path d="M240 652 c0 -10 -24 -58 -53 -107 -70 -120 -82 -144 -74 -151 7 -7
25 10 50 49 16 25 23 27 82 27 47 0 65 -4 65 -13 0 -7 7 -22 15 -33 14 -17 15
-15 9 31 -6 54 -23 114 -36 130 -4 5 -8 20 -8 33 0 14 -8 31 -17 38 -24 18
-33 17 -33 -4z m38 -106 c12 -27 7 -36 -19 -36 -25 0 -32 16 -17 40 16 26 22
25 36 -4z"/>
<path d="M259 393 c-6 -16 -25 -55 -42 -89 -31 -62 -32 -94 -2 -94 27 0 16
-82 -13 -96 -23 -11 -23 -11 3 -28 14 -9 30 -14 35 -11 5 3 49 8 97 11 48 3
91 8 95 11 15 8 -13 33 -37 33 -39 0 -49 23 -25 64 29 52 25 84 -15 135 -19
24 -35 47 -35 52 0 11 -29 39 -41 39 -5 0 -14 -12 -20 -27z m48 -63 c3 -11 8
-20 12 -20 3 0 12 -14 20 -31 11 -25 11 -35 1 -55 -18 -32 -35 -30 -71 6 -32
31 -32 58 -3 88 8 7 14 18 14 23 0 18 22 9 27 -11z m-15 -174 c20 -15 14 -26
-14 -26 -11 0 -18 7 -18 20 0 23 8 25 32 6z"/>
</g>
</svg>
