<svg version="1.0" xmlns="http://www.w3.org/2000/svg"
 width="66.000000pt" height="89.000000pt" viewBox="0 0 66.000000 89.000000"
 preserveAspectRatio="xMidYMid meet">
<metadata>
Created by potrace 1.15, written by Peter Selinger 2001-2017
</metadata>
<g transform="translate(0.000000,89.000000) scale(0.100000,-0.100000)"
fill="#000000" stroke="none">
<path d="M386 665 c-13 -26 -23 -35 -42 -35 -13 0 -27 7 -29 15 -16 51 -15 50
-31 34 -23 -24 -2 -68 36 -76 41 -8 33 -27 -15 -33 -21 -3 -40 -11 -43 -19 -3
-10 4 -12 37 -6 34 6 41 4 41 -9 0 -10 -9 -16 -22 -16 -38 0 -49 -15 -64 -81
-16 -78 -18 -136 -3 -144 16 -11 18 -5 25 84 6 65 12 87 27 102 31 28 47 6 19
-24 -29 -31 -28 -68 3 -97 31 -29 42 -21 19 14 -23 36 -12 43 25 16 23 -16 31
-18 31 -7 0 8 -9 22 -20 32 -29 26 -25 35 16 35 19 0 44 5 56 11 24 13 40 1
15 -12 -9 -6 -17 -19 -17 -30 0 -30 28 -79 45 -79 20 0 19 13 -6 44 -25 32 -8
35 36 6 17 -11 36 -20 43 -20 21 0 13 20 -13 30 -32 12 -41 35 -24 57 12 14
11 18 -3 27 -16 9 -14 12 15 26 23 11 32 22 32 40 0 23 -4 25 -47 28 -50 3
-63 16 -28 27 11 3 27 13 35 21 20 20 20 64 0 64 -8 0 -15 -7 -15 -16 0 -18
-27 -43 -47 -44 -7 0 -19 16 -27 35 -8 19 -21 35 -29 35 -8 0 -22 -16 -31 -35z
m34 -25 c0 -5 -4 -10 -10 -10 -5 0 -10 5 -10 10 0 6 5 10 10 10 6 0 10 -4 10
-10z m10 -50 c0 -5 -11 -10 -25 -10 -14 0 -25 5 -25 10 0 6 11 10 25 10 14 0
25 -4 25 -10z m10 -50 c0 -5 -13 -10 -30 -10 -16 0 -30 5 -30 10 0 6 14 10 30
10 17 0 30 -4 30 -10z m75 0 c-3 -5 -13 -10 -21 -10 -8 0 -14 5 -14 10 0 6 9
10 21 10 11 0 17 -4 14 -10z m-80 -50 c-3 -5 -15 -10 -25 -10 -10 0 -22 5 -25
10 -4 6 7 10 25 10 18 0 29 -4 25 -10z"/>
<path d="M152 662 c-25 -20 -41 -73 -42 -140 0 -31 -4 -42 -12 -39 -9 2 -13
26 -13 68 0 52 -3 64 -17 67 -13 2 -18 -7 -23 -41 -10 -63 2 -103 36 -130 28
-22 30 -29 36 -110 4 -60 3 -87 -5 -87 -18 0 -27 22 -32 84 -5 61 -23 84 -35
45 -4 -11 -4 -46 0 -76 5 -44 13 -61 37 -83 30 -28 30 -28 19 -95 -5 -38 -15
-73 -21 -79 -14 -14 -12 -36 4 -36 26 0 46 49 53 126 5 66 9 77 29 86 12 6 28
24 35 41 15 35 18 131 6 143 -15 15 -27 -20 -27 -77 0 -37 -5 -61 -14 -68 -12
-10 -16 -3 -21 43 -10 76 1 131 30 150 27 18 50 86 41 122 -9 33 -26 30 -26
-5 0 -33 -19 -91 -30 -91 -4 0 -10 21 -13 47 -5 49 7 88 37 112 19 16 21 41 4
41 -7 0 -23 -8 -36 -18z"/>
<path d="M388 319 c-74 -11 -106 -32 -114 -76 -10 -53 1 -132 23 -161 17 -23
29 -27 79 -30 81 -4 140 14 166 51 46 64 29 196 -28 217 -29 11 -45 11 -126
-1z m122 -39 c25 -25 28 -116 5 -160 -13 -24 -23 -30 -69 -35 -81 -10 -115 0
-132 41 -17 41 -18 126 -2 142 17 17 38 15 38 -3 0 -11 8 -15 26 -13 15 2 29
-3 31 -9 7 -19 -27 -28 -49 -14 -11 7 -23 10 -26 6 -12 -12 15 -40 44 -46 21
-5 23 -7 8 -8 -27 -1 -57 -34 -52 -57 5 -25 28 -30 28 -5 0 11 9 25 20 31 17
9 20 8 20 -9 0 -25 10 -51 20 -51 4 0 10 14 14 30 6 34 25 40 33 10 9 -32 25
-23 21 13 -2 24 -8 33 -25 35 -22 3 -33 22 -14 22 5 0 17 7 25 16 18 17 22 64
6 64 -5 0 -10 -9 -10 -19 0 -24 -22 -40 -28 -22 -3 8 -13 22 -23 32 -16 16
-16 18 -1 22 40 11 73 6 92 -13z"/>
</g>
</svg>
