<svg version="1.0" xmlns="http://www.w3.org/2000/svg"
 width="65.000000pt" height="78.000000pt" viewBox="0 0 65.000000 78.000000"
 preserveAspectRatio="xMidYMid meet">
<metadata>
Created by potrace 1.15, written by Peter Selinger 2001-2017
</metadata>
<g transform="translate(0.000000,78.000000) scale(0.100000,-0.100000)"
fill="#000000" stroke="none">
<path d="M370 671 c-35 -6 -35 -6 -34 -84 0 -57 4 -81 15 -88 7 -5 49 -9 92
-9 77 0 77 0 77 -203 0 -112 3 -206 6 -210 3 -3 12 -3 20 0 12 4 14 54 14 282
0 330 2 322 -93 320 -34 -1 -78 -4 -97 -8z m140 -46 c0 -25 -1 -25 -80 -25
-44 0 -80 3 -80 7 0 3 7 15 17 25 12 14 31 18 80 18 61 0 63 -1 63 -25z m8
-77 c-3 -21 -9 -23 -71 -26 -69 -3 -97 7 -97 34 0 11 20 14 86 14 83 0 85 -1
82 -22z"/>
<path d="M126 660 c-21 -4 -42 -13 -47 -21 -5 -8 -8 -135 -6 -284 2 -248 3
-270 20 -273 16 -3 17 11 17 190 0 194 0 194 80 207 44 7 85 20 91 27 15 18 6
128 -11 149 -13 16 -76 18 -144 5z m115 -47 c8 -22 7 -23 -61 -23 -55 0 -70 3
-70 15 0 22 31 35 79 32 35 -2 45 -6 52 -24z m9 -73 c0 -21 -50 -40 -107 -40
-30 0 -33 3 -33 30 0 30 0 30 70 30 63 0 70 -2 70 -20z"/>
<path d="M243 420 c-40 -24 -45 -48 -41 -214 2 -90 7 -131 15 -133 8 -3 13 16
15 64 3 68 3 68 86 71 82 3 82 3 82 -73 0 -57 3 -76 13 -73 9 4 13 48 15 167
2 160 2 162 -22 186 -32 32 -114 35 -163 5z m137 -29 c24 -45 15 -51 -70 -51
-73 0 -80 2 -80 19 0 30 39 51 92 51 37 0 50 -4 58 -19z m10 -116 c0 -35 0
-35 -80 -35 -80 0 -80 0 -80 35 0 35 0 35 80 35 80 0 80 0 80 -35z"/>
</g>
</svg>
