<svg version="1.0" xmlns="http://www.w3.org/2000/svg"
 width="69.000000pt" height="78.000000pt" viewBox="0 0 69.000000 78.000000"
 preserveAspectRatio="xMidYMid meet">
<metadata>
Created by potrace 1.15, written by Peter Selinger 2001-2017
</metadata>
<g transform="translate(0.000000,78.000000) scale(0.100000,-0.100000)"
fill="#000000" stroke="none">
<path d="M546 573 c-4 -4 -46 -12 -94 -18 -72 -9 -87 -14 -90 -29 -4 -18 1
-18 81 -12 80 7 86 6 97 -14 28 -52 -19 -80 -131 -80 -37 0 -71 -5 -74 -11
-10 -15 0 -21 42 -28 32 -5 39 -11 41 -33 4 -31 8 -30 -173 -48 -122 -13 -145
-17 -145 -30 0 -18 35 -19 142 -5 147 20 272 20 287 1 19 -23 -3 -54 -42 -60
-17 -3 -108 -7 -200 -10 -160 -4 -170 -5 -193 -27 -21 -20 -24 -30 -19 -59 13
-68 18 -70 209 -69 94 1 198 4 231 8 51 5 60 9 60 26 0 19 -5 20 -115 15 -63
-3 -160 -5 -215 -5 -100 0 -100 0 -100 35 0 35 0 35 205 42 193 7 206 9 223
29 9 12 17 36 17 55 0 47 -29 74 -80 74 -39 0 -40 1 -40 35 0 35 0 35 55 35
66 0 75 12 75 98 0 44 -5 63 -18 75 -21 19 -25 20 -36 10z"/>
<path d="M135 541 c-38 -5 -51 -10 -53 -25 -4 -18 1 -19 87 -13 102 6 118 12
100 33 -12 14 -44 16 -134 5z"/>
<path d="M136 411 c-29 -4 -51 -12 -54 -20 -4 -11 12 -13 86 -9 93 4 118 12
92 28 -16 10 -45 10 -124 1z"/>
</g>
</svg>
