<svg version="1.0" xmlns="http://www.w3.org/2000/svg"
 width="62.000000pt" height="91.000000pt" viewBox="0 0 62.000000 91.000000"
 preserveAspectRatio="xMidYMid meet">
<metadata>
Created by potrace 1.15, written by Peter Selinger 2001-2017
</metadata>
<g transform="translate(0.000000,91.000000) scale(0.100000,-0.100000)"
fill="#000000" stroke="none">
<path d="M290 704 c0 -49 -10 -56 -65 -44 -55 12 -85 27 -102 49 -11 14 -12
14 -13 0 0 -8 15 -30 34 -48 26 -25 46 -35 80 -38 26 -3 49 -10 52 -15 10 -17
-18 -38 -51 -38 -41 0 -81 -31 -88 -69 -4 -21 -15 -32 -37 -39 -45 -16 -38
-34 10 -26 34 6 40 4 40 -12 0 -10 -17 -35 -37 -56 -42 -43 -28 -51 23 -12 32
25 35 26 59 10 13 -9 34 -16 46 -16 21 0 21 1 5 19 -15 17 -15 19 -1 25 33 12
58 5 98 -29 22 -19 44 -35 49 -35 19 0 6 -21 -22 -35 -41 -21 -49 -19 -65 18
-13 32 -13 32 -24 5 -13 -34 -33 -35 -95 -8 -25 10 -46 15 -46 10 0 -13 79
-70 96 -70 34 0 19 -22 -35 -49 -45 -23 -69 -44 -100 -88 -22 -31 -38 -59 -35
-62 2 -3 28 18 57 46 97 94 147 99 147 15 0 -42 11 -72 26 -72 9 0 14 19 16
63 3 61 3 62 34 65 43 4 96 -30 139 -89 33 -46 55 -62 55 -39 0 20 -67 115
-104 147 -22 21 -52 35 -78 39 -41 7 -41 7 18 37 68 34 94 54 94 74 0 10 -6
12 -20 8 -21 -7 -90 28 -90 46 0 5 18 12 40 15 25 4 45 14 51 25 6 11 26 21
50 25 47 8 47 24 -1 40 -29 10 -47 30 -49 57 -1 4 8 7 19 7 11 0 20 4 20 10 0
5 -37 10 -82 12 -117 4 -118 26 -1 57 46 12 103 54 91 67 -4 4 -34 -5 -65 -19
-85 -37 -107 -38 -111 -5 -2 14 -10 32 -18 38 -12 10 -14 8 -14 -16z m136
-169 c9 -23 -15 -45 -48 -45 -34 0 -34 -23 0 -28 35 -5 25 -22 -12 -22 -26 0
-35 5 -40 23 -8 30 -8 72 1 80 13 14 93 7 99 -8z m-142 -37 c8 -49 -1 -60 -50
-62 -47 -1 -57 21 -15 35 39 14 41 34 3 26 -35 -7 -55 4 -46 26 4 13 19 17 54
17 47 0 47 0 54 -42z"/>
</g>
</svg>
