<svg version="1.0" xmlns="http://www.w3.org/2000/svg"
 width="115.000000pt" height="221.000000pt" viewBox="0 0 115.000000 221.000000"
 preserveAspectRatio="xMidYMid meet">
<metadata>
Created by potrace 1.15, written by Peter Selinger 2001-2017
</metadata>
<g transform="translate(0.000000,221.000000) scale(0.100000,-0.100000)"
fill="#000000" stroke="none">
<path d="M210 2054 c0 -19 -5 -44 -11 -55 -5 -11 -7 -29 -4 -40 5 -16 12 -19
31 -15 26 7 64 -12 64 -32 0 -7 9 -40 20 -73 12 -34 19 -64 16 -67 -3 -3 -25
4 -48 16 -24 11 -54 24 -68 28 -14 4 -37 20 -53 35 -15 16 -31 29 -36 29 -11
0 -18 -49 -13 -93 5 -43 26 -51 64 -24 26 19 27 19 91 -2 64 -21 65 -23 71
-64 15 -88 16 -143 3 -159 -11 -14 -23 -15 -117 -3 -58 7 -108 11 -112 9 -10
-7 -20 -67 -16 -95 4 -22 6 -20 21 15 16 35 19 38 49 33 18 -4 62 -7 98 -8 39
-2 71 -8 79 -16 18 -19 10 -143 -12 -177 -15 -22 -15 -27 3 -65 11 -22 20 -49
20 -59 0 -22 23 -46 33 -35 4 3 7 78 7 166 0 143 2 158 16 146 13 -11 14 -9 9
14 -6 23 -4 27 14 27 45 0 99 25 120 55 29 43 27 63 -17 119 -31 40 -47 52
-98 68 -59 19 -60 21 -73 66 -27 102 -36 128 -52 145 -17 18 -25 35 -54 105
-22 52 -45 56 -45 6z m255 -387 c1 -1 11 -16 23 -34 12 -17 22 -37 22 -43 0
-30 -83 -71 -110 -55 -5 3 -10 42 -10 86 0 79 0 79 37 64 20 -9 38 -17 38 -18z"/>
<path d="M850 1970 c0 -10 5 -31 12 -45 13 -29 0 -79 -33 -127 -11 -14 -19
-36 -19 -47 0 -12 -4 -21 -10 -21 -5 0 -10 -16 -10 -35 0 -49 -33 -92 -78
-100 -40 -7 -34 -17 23 -35 50 -16 55 -23 55 -87 0 -73 33 -153 87 -213 45
-50 45 -50 7 -96 -34 -43 -35 -46 -13 -40 33 10 73 29 80 40 7 9 67 -31 104
-70 11 -11 28 -23 38 -27 16 -6 16 -3 -3 23 -12 17 -32 38 -45 46 -34 22 -58
63 -47 77 6 7 6 21 1 36 -9 23 -10 23 -30 5 -20 -18 -21 -18 -64 27 -49 52
-64 93 -72 197 -5 72 -5 72 51 72 50 0 91 -13 169 -51 24 -13 23 13 -3 36 -26
24 -25 50 2 69 39 27 12 28 -37 1 -40 -23 -55 -26 -108 -21 -34 3 -65 5 -69 5
-36 3 37 251 73 251 5 0 12 -7 15 -15 6 -15 34 -21 34 -7 -1 4 -7 18 -15 32
-8 14 -14 37 -15 53 0 20 -5 27 -19 27 -12 0 -25 12 -33 30 -15 34 -28 39 -28
10z"/>
<path d="M361 991 c-11 -7 -12 -28 -3 -122 12 -126 11 -154 -6 -171 -12 -12
-17 -11 -105 32 -26 13 -49 21 -52 18 -5 -5 20 -219 34 -286 4 -23 20 -59 35
-81 24 -35 26 -44 21 -107 -9 -126 -16 -154 -36 -154 -26 0 -31 -14 -10 -32
13 -11 49 -17 122 -22 57 -3 141 -8 187 -12 49 -4 82 -3 82 3 0 15 -22 33 -41
33 -23 0 -28 25 -26 140 2 87 5 101 25 122 12 14 22 30 22 38 0 7 3 11 6 7 21
-21 66 86 91 218 3 17 11 33 17 37 18 12 -1 21 -51 23 -86 5 -83 -1 -83 155 0
110 -3 140 -15 150 -22 18 -24 4 -27 -160 -3 -145 -3 -145 -62 -144 -33 1 -61
7 -66 13 -4 7 -8 71 -9 144 -3 152 -12 182 -50 158z m-97 -308 c20 -21 106
-34 249 -40 104 -4 157 -10 157 -17 0 -31 -52 -168 -85 -223 -27 -45 -52 -53
-159 -53 -94 0 -94 0 -122 35 -34 43 -50 102 -57 218 -6 81 -2 98 17 80z m116
-379 c28 -11 55 -15 86 -10 44 6 44 6 44 -34 0 -21 5 -62 11 -90 6 -28 9 -54
6 -57 -7 -6 -206 -5 -217 2 -4 2 -3 26 2 52 5 26 11 72 15 101 3 28 7 52 9 52
2 0 22 -7 44 -16z"/>
<path d="M337 583 c-11 -10 -8 -82 4 -104 13 -26 25 -17 33 25 10 51 -14 102
-37 79z"/>
<path d="M507 518 c6 -77 11 -87 29 -64 8 11 14 32 14 47 0 15 6 29 13 32 15
6 -21 36 -44 37 -13 0 -15 -9 -12 -52z"/>
<path d="M830 95 c0 -8 5 -15 10 -15 6 0 10 7 10 15 0 8 -4 15 -10 15 -5 0
-10 -7 -10 -15z"/>
</g>
</svg>
