<svg version="1.0" xmlns="http://www.w3.org/2000/svg"
 width="87.000000pt" height="141.000000pt" viewBox="0 0 87.000000 141.000000"
 preserveAspectRatio="xMidYMid meet">
<metadata>
Created by potrace 1.15, written by Peter Selinger 2001-2017
</metadata>
<g transform="translate(0.000000,141.000000) scale(0.100000,-0.100000)"
fill="#000000" stroke="none">
<path d="M216 1288 c-3 -13 -6 -40 -6 -60 0 -28 -4 -38 -15 -38 -17 0 -53 33
-71 65 -17 30 -39 33 -30 4 4 -13 10 -35 13 -49 11 -57 45 -103 86 -116 20 -6
20 -11 14 -328 -4 -176 -10 -342 -13 -368 -5 -34 -2 -52 9 -69 16 -22 16 -22
26 3 5 14 13 108 16 209 8 213 9 232 17 244 3 6 4 29 2 52 -2 27 2 45 11 53 8
7 15 17 15 22 0 6 11 19 24 29 14 11 31 33 39 49 13 25 13 29 0 34 -8 3 -26
-5 -41 -19 -33 -31 -42 -31 -42 -1 0 35 17 43 97 49 39 3 77 8 83 12 6 4 39 2
73 -4 34 -5 79 -13 99 -16 79 -12 114 -72 153 -260 28 -140 36 -170 45 -179
12 -12 21 -4 22 20 2 62 -57 360 -78 392 -40 60 -163 94 -356 96 -70 1 -129 4
-132 7 -6 6 67 69 79 69 18 0 55 48 49 63 -9 25 -28 21 -74 -18 -23 -19 -45
-35 -49 -35 -9 0 -31 68 -31 94 0 24 -27 19 -34 -6z"/>
<path d="M474 947 c-27 -28 -63 -57 -70 -57 -3 0 -12 -6 -20 -14 -7 -8 -19
-16 -26 -18 -6 -2 -8 -9 -4 -16 5 -8 24 -3 67 18 33 17 64 28 69 25 6 -4 10
-22 10 -41 0 -41 -33 -79 -100 -115 -25 -13 -51 -30 -58 -36 -7 -7 -18 -13
-23 -13 -6 0 -8 -4 -5 -9 3 -5 1 -35 -5 -67 -17 -89 -17 -187 -2 -202 16 -17
43 -9 43 13 0 16 55 55 79 55 8 0 25 10 38 21 14 14 40 24 72 27 44 4 51 2 73
-23 40 -46 108 -89 121 -76 12 12 12 234 1 272 -3 9 -27 26 -54 38 -28 12 -50
26 -50 31 0 6 -7 10 -16 10 -23 0 -54 38 -54 66 0 25 21 45 28 26 2 -7 21 -12
43 -12 32 0 39 3 39 20 0 12 -7 20 -16 20 -18 0 -70 34 -95 62 -22 24 -59 22
-85 -5z m103 -209 c9 -13 10 -54 1 -63 -2 -3 -19 -8 -36 -11 -32 -6 -32 -6
-32 40 0 44 1 46 29 46 16 0 33 -6 38 -12z m-130 -110 c-6 -93 -13 -118 -33
-118 -8 0 -14 -4 -14 -10 0 -5 -10 -10 -23 -10 -22 0 -22 3 -19 78 3 74 4 78
39 110 20 17 41 32 46 32 6 0 8 -32 4 -82z m248 17 c4 -22 5 -65 3 -95 -3 -47
-6 -55 -23 -55 -27 0 -44 52 -44 142 -1 71 -1 71 29 60 24 -9 30 -18 35 -52z
m-105 -61 c0 -21 -4 -24 -40 -24 -36 0 -40 3 -40 24 0 19 6 25 28 28 40 5 52
-1 52 -28z"/>
<path d="M535 411 c-3 -6 -1 -19 5 -30 13 -24 13 -71 1 -71 -5 0 -13 -10 -17
-22 -4 -13 -17 -36 -30 -51 -13 -16 -24 -33 -24 -38 0 -16 32 -10 49 9 9 10
24 21 34 25 15 6 17 -1 17 -54 0 -67 8 -88 55 -137 31 -33 32 -34 67 -19 42
18 78 61 78 93 0 33 -13 30 -54 -14 -29 -30 -39 -35 -53 -26 -20 13 -28 37
-37 127 -5 56 -4 67 9 67 8 0 15 -4 15 -10 0 -13 57 -13 65 -1 7 13 -32 40
-70 47 -24 5 -35 16 -55 57 -26 51 -43 66 -55 48z"/>
</g>
</svg>
