<svg version="1.0" xmlns="http://www.w3.org/2000/svg"
 width="72.000000pt" height="92.000000pt" viewBox="0 0 72.000000 92.000000"
 preserveAspectRatio="xMidYMid meet">
<metadata>
Created by potrace 1.15, written by Peter Selinger 2001-2017
</metadata>
<g transform="translate(0.000000,92.000000) scale(0.100000,-0.100000)"
fill="#000000" stroke="none">
<path d="M336 718 c-3 -7 -7 -35 -10 -63 -8 -62 -16 -71 -57 -59 -33 10 -42
20 -59 68 -17 46 -35 18 -24 -36 13 -61 41 -73 177 -73 107 0 109 0 133 29 20
22 24 37 22 70 -4 48 -31 59 -36 14 -4 -32 -45 -68 -77 -68 -26 0 -37 28 -28
71 8 40 -30 83 -41 47z"/>
<path d="M255 486 c-38 -28 -6 -36 118 -29 100 5 117 8 115 22 -5 23 -204 29
-233 7z"/>
<path d="M334 390 c-146 -7 -164 -11 -164 -36 0 -14 16 -15 123 -9 225 14 262
19 262 35 0 18 -29 20 -221 10z"/>
<path d="M444 314 c-4 -14 -4 -48 -1 -77 6 -63 -12 -117 -53 -164 -17 -19 -28
-38 -25 -44 13 -19 36 -8 61 31 15 22 29 40 33 40 3 0 24 -14 45 -30 38 -29
86 -40 86 -21 0 5 -16 23 -36 39 -63 52 -74 77 -74 170 0 66 -3 82 -15 82 -8
0 -18 -11 -21 -26z"/>
<path d="M247 324 c-4 -4 -7 -43 -7 -87 0 -80 0 -80 -45 -133 -68 -79 -61 -98
15 -38 45 36 45 36 71 5 27 -33 59 -41 59 -16 0 8 -15 31 -32 51 -32 36 -33
40 -33 127 0 83 -8 110 -28 91z"/>
<path d="M514 306 c-9 -25 3 -106 21 -133 21 -31 50 -31 40 0 -3 12 -13 46
-20 76 -16 62 -31 83 -41 57z"/>
<path d="M314 287 c-7 -20 4 -104 17 -129 14 -25 65 -24 79 2 17 31 9 135 -10
135 -12 0 -15 -13 -15 -57 0 -31 -3 -59 -7 -63 -14 -14 -25 6 -31 56 -7 57
-22 83 -33 56z"/>
<path d="M166 230 c-4 -33 -11 -62 -16 -65 -15 -10 -12 -35 5 -35 27 0 63 99
50 140 -13 41 -32 21 -39 -40z"/>
</g>
</svg>
