<svg version="1.0" xmlns="http://www.w3.org/2000/svg"
 width="73.000000pt" height="123.000000pt" viewBox="0 0 73.000000 123.000000"
 preserveAspectRatio="xMidYMid meet">
<metadata>
Created by potrace 1.15, written by Peter Selinger 2001-2017
</metadata>
<g transform="translate(0.000000,123.000000) scale(0.100000,-0.100000)"
fill="#000000" stroke="none">
<path d="M477 1113 c-4 -3 -7 -26 -7 -49 0 -50 -5 -52 -99 -53 -35 0 -66 -2
-69 -6 -14 -14 18 -24 82 -27 38 -1 74 -7 80 -14 7 -6 10 -29 8 -53 -4 -41 -4
-41 -57 -41 -50 0 -54 2 -57 25 -2 14 -7 25 -13 25 -6 0 -11 -46 -13 -110 -3
-111 -3 -111 32 -125 20 -8 51 -15 71 -15 36 0 42 -10 29 -44 -4 -11 -19 -16
-43 -16 -51 0 -151 -21 -151 -31 0 -11 -6 -10 165 -12 153 -2 180 -10 189 -54
10 -49 -37 -143 -72 -143 -9 0 -42 69 -42 87 0 16 -36 23 -115 23 -81 0 -117
-8 -112 -24 2 -7 34 -11 86 -11 76 -1 84 -3 102 -25 10 -14 19 -34 19 -46 0
-17 -10 -23 -57 -33 -109 -23 -153 -35 -153 -42 0 -17 36 -17 126 -2 109 18
103 21 130 -65 9 -29 21 -55 25 -58 5 -3 9 -14 9 -25 0 -10 5 -19 10 -19 6 0
10 -5 10 -10 0 -6 15 -32 33 -60 25 -38 38 -49 60 -49 40 -1 35 32 -14 87 -43
49 -99 153 -99 183 0 10 -4 21 -10 24 -16 10 -12 20 18 37 66 39 92 87 92 169
0 64 -22 84 -100 93 -59 7 -61 8 -58 34 3 24 8 28 53 32 58 7 90 22 105 51 11
19 12 170 3 197 -9 22 -31 12 -38 -17 -8 -36 -18 -40 -78 -34 -47 6 -47 6 -47
53 0 47 0 47 92 54 50 3 94 9 97 12 3 3 -3 12 -13 20 -13 9 -38 12 -74 10 -84
-6 -102 4 -102 59 0 43 -14 58 -33 38z m-7 -343 c0 -60 0 -60 -36 -60 -57 0
-89 50 -68 104 4 12 20 16 55 16 49 0 49 0 49 -60z m154 11 c-1 -53 -21 -71
-76 -71 -38 0 -38 0 -38 54 0 61 5 65 75 63 40 -2 40 -2 39 -46z"/>
<path d="M50 1073 c0 -10 10 -24 21 -31 20 -13 21 -20 15 -95 -12 -170 -16
-214 -25 -277 -8 -53 -19 -182 -35 -400 -1 -14 -5 -31 -9 -38 -15 -23 -18 -82
-4 -82 29 0 36 38 67 335 6 55 13 114 16 130 3 17 9 91 14 165 11 159 20 240
29 241 3 1 20 2 36 3 30 1 30 1 33 -59 2 -33 -1 -123 -7 -200 -6 -77 -13 -189
-16 -250 -3 -60 -7 -123 -9 -140 -2 -16 -7 -64 -11 -105 -3 -41 -8 -97 -11
-123 -5 -49 1 -87 14 -87 23 0 37 54 43 175 4 72 10 180 14 240 3 61 8 119 11
130 12 46 15 388 4 414 -9 24 -22 30 -88 46 -42 10 -83 20 -89 22 -8 3 -13 -3
-13 -14z"/>
</g>
</svg>
