<svg version="1.0" xmlns="http://www.w3.org/2000/svg"
 width="105.000000pt" height="71.000000pt" viewBox="0 0 105.000000 71.000000"
 preserveAspectRatio="xMidYMid meet">
<metadata>
Created by potrace 1.15, written by Peter Selinger 2001-2017
</metadata>
<g transform="translate(0.000000,71.000000) scale(0.100000,-0.100000)"
fill="#000000" stroke="none">
<path d="M885 628 c-16 -12 -37 -30 -45 -39 -8 -9 -51 -39 -95 -67 -44 -28
-98 -65 -120 -81 -65 -48 -89 -56 -125 -41 -16 7 -30 16 -30 21 0 5 -7 9 -16
9 -8 0 -22 7 -30 15 -9 8 -27 18 -42 22 -15 3 -33 13 -42 21 -20 20 -148 102
-159 102 -5 0 -11 4 -13 10 -1 5 -19 11 -38 12 -35 3 -35 3 -42 -170 -3 -95
-9 -179 -12 -187 -3 -8 -1 -17 5 -21 6 -3 9 -42 8 -95 -2 -69 1 -93 12 -105
18 -17 49 -9 49 12 0 8 10 18 23 23 13 5 29 16 36 25 7 9 18 16 23 16 5 0 18
9 30 20 12 11 28 20 35 20 7 0 13 4 13 8 0 5 18 17 40 27 22 10 47 26 57 37 9
10 33 26 52 34 20 9 44 20 53 25 22 11 55 12 60 1 4 -10 125 -92 136 -92 5 0
17 -8 28 -18 24 -23 139 -82 159 -82 8 0 23 -10 34 -22 34 -36 47 -11 55 102
4 55 4 105 1 110 -4 6 -8 82 -10 170 -2 88 -9 168 -15 180 -14 26 -37 25 -75
-2z m23 -190 c1 -46 5 -125 8 -175 6 -93 6 -93 -19 -93 -14 0 -27 3 -29 8 -3
7 -106 72 -114 72 -3 0 -24 12 -47 28 -23 15 -51 32 -62 38 -32 18 -29 32 19
78 49 48 177 116 236 125 3 1 7 -36 8 -81z m-708 52 c14 -11 31 -20 38 -20 6
0 12 -3 12 -7 0 -5 50 -33 111 -63 110 -55 110 -55 67 -92 -24 -21 -47 -38
-51 -38 -4 0 -34 -17 -65 -38 -58 -39 -141 -77 -149 -68 -3 3 -8 82 -11 175
-5 186 -4 191 48 151z"/>
</g>
</svg>
