<svg version="1.0" xmlns="http://www.w3.org/2000/svg"
 width="81.000000pt" height="109.000000pt" viewBox="0 0 81.000000 109.000000"
 preserveAspectRatio="xMidYMid meet">
<metadata>
Created by potrace 1.15, written by Peter Selinger 2001-2017
</metadata>
<g transform="translate(0.000000,109.000000) scale(0.100000,-0.100000)"
fill="#000000" stroke="none">
<path d="M390 1036 c0 -32 -17 -37 -133 -44 -94 -5 -98 -4 -104 17 -7 29 -39
27 -47 -4 -14 -54 -25 -349 -14 -369 11 -19 11 -19 29 5 55 71 136 159 146
159 7 0 30 -17 52 -37 21 -21 60 -56 84 -77 25 -22 48 -48 50 -58 3 -10 13
-18 22 -18 14 0 16 10 12 83 -3 45 -12 123 -20 172 -9 50 -16 105 -17 123 0
22 -8 40 -22 53 -30 25 -38 24 -38 -5z m-60 -98 c0 -7 -11 -26 -25 -42 -26
-30 -26 -30 -52 -3 -15 14 -24 29 -20 33 5 6 47 16 90 23 4 0 7 -5 7 -11z m80
-21 c0 -13 4 -27 9 -32 5 -6 12 -38 16 -72 6 -54 5 -63 -9 -63 -9 0 -16 5 -16
10 0 6 -6 10 -13 10 -8 0 -31 15 -53 34 -38 33 -38 33 -11 69 54 71 77 84 77
44z m-213 -56 c18 -14 33 -30 33 -34 0 -9 -85 -97 -94 -97 -8 0 -8 118 0 147
7 25 11 23 61 -16z"/>
<path d="M620 961 c-16 -30 -13 -52 18 -141 3 -8 7 -31 9 -50 2 -19 10 -66 18
-105 29 -150 30 -163 4 -185 -13 -11 -48 -32 -77 -46 -29 -15 -51 -32 -49 -38
6 -16 61 -9 102 14 67 37 77 26 89 -97 14 -146 -14 -188 -166 -243 -32 -12
-58 -26 -58 -31 0 -12 107 -12 115 0 3 5 19 12 35 16 49 11 107 73 118 125 14
75 5 171 -28 285 -7 22 -16 72 -20 110 -9 71 -22 158 -39 250 -5 28 -13 70
-17 95 -9 60 -34 78 -54 41z"/>
<path d="M266 558 c-3 -18 -8 -111 -10 -206 -2 -117 -8 -177 -16 -187 -7 -8
-27 -15 -45 -15 -26 0 -43 9 -74 41 -22 23 -43 50 -46 60 -9 28 -34 24 -27 -3
10 -43 63 -108 110 -135 39 -23 59 -28 117 -28 83 0 122 16 188 78 37 34 47
50 47 75 0 18 -3 32 -6 32 -4 0 -28 -19 -54 -43 -74 -67 -89 -77 -114 -77 -23
0 -23 2 -30 143 -4 78 -4 169 -1 202 5 53 4 63 -14 79 -19 18 -20 17 -25 -16z"/>
</g>
</svg>
