<svg version="1.0" xmlns="http://www.w3.org/2000/svg"
 width="91.000000pt" height="121.000000pt" viewBox="0 0 91.000000 121.000000"
 preserveAspectRatio="xMidYMid meet">
<metadata>
Created by potrace 1.15, written by Peter Selinger 2001-2017
</metadata>
<g transform="translate(0.000000,121.000000) scale(0.100000,-0.100000)"
fill="#000000" stroke="none">
<path d="M510 1141 c0 -17 -31 -287 -35 -306 -5 -22 -81 -65 -115 -65 -10 0
-22 -4 -25 -10 -3 -5 -16 -10 -27 -10 -28 0 -138 -41 -138 -51 0 -5 9 -13 21
-19 19 -11 111 6 225 41 42 13 54 11 54 -6 0 -67 -101 -118 -255 -129 -44 -3
-81 -5 -82 -6 -2 0 -3 -7 -3 -15 0 -8 8 -15 18 -15 10 0 24 -6 31 -12 8 -9 40
-12 95 -11 88 1 133 17 204 71 65 49 71 75 74 309 2 166 0 213 -11 226 -14 18
-31 22 -31 8z"/>
<path d="M665 1098 c-8 -28 -15 -66 -15 -84 0 -39 35 -137 61 -176 11 -14 19
-30 19 -36 0 -14 74 -79 100 -87 12 -4 26 -3 32 3 14 14 -6 41 -52 74 -24 16
-48 47 -66 85 -26 51 -29 69 -29 153 0 92 -6 120 -25 120 -5 0 -16 -23 -25
-52z"/>
<path d="M309 1098 c-1 -7 -1 -30 0 -50 2 -22 -2 -38 -8 -38 -6 0 -11 -8 -11
-19 0 -38 -30 -89 -65 -111 -20 -12 -41 -27 -48 -33 -16 -16 -57 -35 -82 -39
-30 -5 -30 -33 0 -46 35 -16 49 -15 97 8 23 11 48 20 56 20 20 0 70 56 89 99
18 44 20 121 4 179 -11 40 -29 57 -32 30z"/>
<path d="M654 469 c-73 -56 -141 -79 -239 -79 -45 0 -85 4 -90 8 -6 5 -36 17
-67 26 -76 23 -101 12 -86 -38 9 -27 7 -46 -6 -87 -16 -48 -61 -125 -93 -157
-14 -15 -18 -52 -5 -52 12 0 55 48 88 100 30 45 41 67 66 128 15 36 14 36 86
20 53 -13 53 -13 46 -78 -3 -36 -15 -87 -25 -115 -27 -71 -25 -108 6 -125 21
-11 27 -11 43 4 14 12 47 18 133 23 63 3 117 11 121 17 4 5 -4 21 -17 34 -20
20 -22 28 -14 55 5 18 9 72 8 121 -1 96 -2 94 64 123 25 11 29 10 44 -15 35
-57 96 -112 125 -112 40 0 36 23 -12 67 -68 61 -82 86 -89 161 -2 23 -36 12
-87 -29z m-140 -135 c13 -5 16 -24 16 -110 0 -95 -2 -104 -22 -118 -14 -10
-44 -16 -75 -16 -49 0 -53 2 -53 24 0 13 6 42 14 64 8 22 17 65 21 95 7 53 9
56 39 60 17 2 34 5 38 5 3 1 13 -1 22 -4z"/>
</g>
</svg>
