<svg version="1.0" xmlns="http://www.w3.org/2000/svg"
 width="59.000000pt" height="127.000000pt" viewBox="0 0 59.000000 127.000000"
 preserveAspectRatio="xMidYMid meet">
<metadata>
Created by potrace 1.15, written by Peter Selinger 2001-2017
</metadata>
<g transform="translate(0.000000,127.000000) scale(0.100000,-0.100000)"
fill="#000000" stroke="none">
<path d="M213 1174 c-3 -8 0 -33 7 -55 12 -36 12 -41 -6 -53 -10 -8 -35 -17
-54 -21 -57 -10 -70 -16 -70 -30 0 -20 33 -27 108 -23 67 3 67 3 70 -38 3 -37
0 -42 -25 -52 -55 -21 -101 -23 -133 -7 -17 9 -35 13 -41 10 -14 -9 39 -103
83 -147 35 -36 53 -44 108 -50 23 -3 25 -7 28 -68 3 -72 -9 -90 -59 -90 -15 0
-31 -4 -34 -10 -3 -5 -14 -10 -24 -10 -10 0 -41 -9 -69 -21 -90 -37 -72 -75
21 -45 29 9 78 20 109 23 58 6 58 6 54 -116 -2 -68 -8 -126 -12 -130 -5 -4
-43 -18 -84 -31 -89 -28 -96 -33 -75 -50 13 -11 31 -11 86 -4 47 7 69 6 70 -1
1 -5 0 -36 -1 -67 -1 -45 2 -59 14 -64 25 -10 46 15 46 55 0 20 6 54 14 76 12
36 21 44 100 85 112 58 125 73 135 146 10 68 2 95 -36 130 -35 32 -65 45 -123
53 -45 6 -45 6 -53 66 -8 56 -7 61 15 77 130 98 161 139 164 223 2 55 -8 75
-37 75 -14 0 -19 -7 -19 -29 0 -37 -8 -42 -80 -50 -57 -7 -57 -7 -64 63 -5 57
-4 71 9 79 33 18 55 52 55 84 0 42 -17 43 -55 3 -16 -16 -34 -30 -39 -30 -6 0
-27 14 -46 30 -40 34 -48 36 -57 14z m238 -321 c-14 -28 -54 -61 -76 -65 -16
-2 -21 3 -23 27 -5 37 19 55 70 55 34 0 38 -2 29 -17z m-171 -22 c5 -11 10
-29 10 -40 0 -32 -54 -28 -88 6 -27 27 -27 27 13 39 54 17 53 17 65 -5z m144
-353 c48 -14 86 -44 86 -70 0 -40 -75 -120 -132 -141 -16 -6 -17 0 -14 56 2
34 4 86 5 115 1 28 4 52 7 52 4 0 25 -5 48 -12z"/>
</g>
</svg>
