<svg version="1.0" xmlns="http://www.w3.org/2000/svg"
 width="63.000000pt" height="137.000000pt" viewBox="0 0 63.000000 137.000000"
 preserveAspectRatio="xMidYMid meet">
<metadata>
Created by potrace 1.15, written by Peter Selinger 2001-2017
</metadata>
<g transform="translate(0.000000,137.000000) scale(0.100000,-0.100000)"
fill="#000000" stroke="none">
<path d="M403 1313 c-4 -11 5 -26 30 -47 33 -27 37 -36 37 -76 -1 -48 -12 -70
-47 -89 -21 -11 -24 -9 -38 27 -13 31 -26 44 -63 61 -61 28 -105 32 -110 9 -2
-12 5 -19 23 -24 35 -9 95 -64 95 -86 0 -22 -29 -23 -89 -2 -30 10 -47 12 -54
5 -12 -12 8 -41 28 -41 8 0 15 -5 17 -10 2 -6 29 -14 61 -17 57 -6 57 -6 57
-49 0 -44 0 -44 -40 -44 -22 0 -40 5 -40 10 0 17 -38 11 -44 -7 -9 -32 -10
-117 -2 -162 9 -48 0 -61 -43 -61 -42 0 -92 -23 -89 -40 3 -15 14 -16 153 -10
69 3 165 -25 193 -57 18 -19 22 -35 20 -67 -3 -46 6 -44 -118 -25 -133 20
-242 22 -265 6 -11 -9 -17 -18 -14 -21 3 -3 39 -8 80 -10 105 -6 249 -38 249
-54 -1 -10 -76 -62 -89 -62 -6 0 -11 -4 -11 -8 0 -11 -120 -49 -194 -62 -67
-11 -71 -13 -62 -35 15 -41 253 13 356 81 29 19 53 34 55 34 6 0 16 -48 22
-110 3 -36 9 -73 14 -82 5 -9 9 -27 9 -40 0 -28 69 -122 93 -126 23 -5 21 15
-5 63 -25 47 -35 90 -49 200 -20 162 -21 187 -10 198 23 23 2 146 -30 181 -17
18 -17 20 4 50 12 17 25 33 28 36 3 3 11 32 18 65 7 33 17 67 21 77 7 12 2 23
-17 42 -30 30 -53 34 -53 8 0 -28 -9 -32 -38 -19 -35 15 -42 25 -42 64 0 26 9
41 45 74 48 45 75 89 75 125 0 52 -35 104 -87 133 -28 15 -32 14 -40 -6z m-53
-500 c0 -70 -11 -93 -37 -77 -13 8 -19 27 -21 73 -3 61 -3 61 28 61 30 0 30 0
30 -57z m104 48 c19 -8 23 -15 19 -33 -8 -28 -53 -98 -63 -98 -17 0 -20 36 -9
87 13 57 15 58 53 44z"/>
</g>
</svg>
