<svg version="1.0" xmlns="http://www.w3.org/2000/svg"
 width="49.000000pt" height="123.000000pt" viewBox="0 0 49.000000 123.000000"
 preserveAspectRatio="xMidYMid meet">
<metadata>
Created by potrace 1.15, written by Peter Selinger 2001-2017
</metadata>
<g transform="translate(0.000000,123.000000) scale(0.100000,-0.100000)"
fill="#000000" stroke="none">
<path d="M140 1098 c0 -10 58 -170 63 -175 4 -3 7 -39 7 -79 0 -77 -5 -84 -56
-84 -14 0 -24 6 -24 15 0 21 -22 65 -32 65 -10 0 -4 -196 7 -221 5 -13 15 -16
46 -12 39 6 39 6 39 -61 0 -60 -2 -66 -20 -66 -19 0 -20 -2 -5 -30 8 -16 15
-42 15 -58 0 -21 5 -29 16 -28 16 1 20 -4 45 -56 11 -26 10 -31 -21 -69 -33
-42 -33 -42 -4 -35 51 12 56 11 65 -4 20 -34 48 -107 51 -130 2 -14 7 -25 12
-25 17 0 5 127 -16 172 -14 31 -18 52 -13 76 22 105 16 217 -12 217 -13 0 -14
-8 -9 -48 6 -49 -1 -113 -13 -111 -3 0 -20 20 -38 44 -28 39 -31 48 -22 77 5
18 9 51 9 73 0 23 5 46 12 53 15 15 60 16 75 1 24 -24 33 3 33 97 0 56 -4 94
-10 94 -5 0 -10 -4 -10 -10 0 -12 -67 -14 -74 -2 -3 5 -1 33 3 63 5 39 16 67
38 95 29 37 53 91 53 120 0 24 -20 15 -40 -18 -10 -18 -23 -37 -27 -43 -5 -5
-12 -18 -16 -27 -11 -30 -25 -20 -51 35 -13 28 -34 62 -45 75 -19 19 -31 27
-31 20z m180 -397 c0 -36 -7 -41 -43 -34 -20 4 -27 11 -27 28 0 25 11 33 48
34 18 1 22 -4 22 -28z m-132 10 c25 -15 10 -46 -23 -46 -21 0 -31 5 -33 19 -4
18 13 36 33 36 6 0 16 -4 23 -9z"/>
</g>
</svg>
