<svg version="1.0" xmlns="http://www.w3.org/2000/svg"
 width="57.000000pt" height="141.000000pt" viewBox="0 0 57.000000 141.000000"
 preserveAspectRatio="xMidYMid meet">
<metadata>
Created by potrace 1.15, written by Peter Selinger 2001-2017
</metadata>
<g transform="translate(0.000000,141.000000) scale(0.100000,-0.100000)"
fill="#000000" stroke="none">
<path d="M320 1258 c-36 -99 -32 -97 -69 -39 -37 57 -47 60 -35 9 4 -18 7 -36
6 -40 -1 -3 10 -26 23 -50 39 -69 42 -78 48 -175 7 -93 7 -93 -33 -93 -24 0
-42 5 -44 13 -2 6 -9 41 -16 77 -6 36 -16 71 -22 78 -16 18 -31 15 -23 -5 4
-10 9 -52 12 -93 2 -41 8 -104 12 -140 5 -44 4 -68 -3 -73 -8 -6 -7 -10 2 -14
6 -2 12 -13 12 -24 0 -16 7 -19 48 -19 73 0 92 -8 92 -39 0 -14 4 -41 9 -58
10 -33 9 -34 -49 -140 -13 -23 -28 -39 -33 -36 -6 3 -7 35 -3 77 6 70 0 136
-13 136 -11 0 -31 -110 -31 -167 0 -27 7 -65 17 -83 15 -31 15 -38 -2 -109
-10 -42 -22 -80 -27 -86 -12 -13 -10 -128 2 -120 6 3 10 16 10 28 0 12 9 47
21 77 11 30 25 72 31 93 11 40 19 45 40 24 7 -7 25 -21 41 -31 44 -30 32 15
-24 83 -19 23 -25 39 -19 50 4 9 16 34 27 56 10 22 23 40 27 40 5 0 15 -21 23
-47 16 -56 26 -62 22 -15 -2 18 0 37 4 43 3 6 2 26 -3 45 -6 19 -10 62 -10 96
0 63 0 63 34 63 47 0 66 -9 66 -30 0 -11 5 -22 10 -25 6 -4 10 11 11 37 4 145
-19 359 -39 366 -9 3 -12 -15 -10 -70 2 -73 2 -73 -37 -72 -22 1 -47 2 -56 3
-31 2 -57 289 -31 338 14 25 16 93 3 93 -5 0 -14 -15 -21 -32z m-14 -442 c1 0
4 -23 5 -51 4 -50 4 -50 -36 -47 -47 4 -55 13 -55 70 0 44 0 44 43 37 23 -4
43 -8 43 -9z m166 -68 c3 -35 4 -64 3 -66 -3 -4 -88 29 -96 37 -4 3 -10 25
-14 49 -7 42 -7 42 48 42 55 0 55 0 59 -62z"/>
</g>
</svg>
