<svg version="1.0" xmlns="http://www.w3.org/2000/svg"
 width="71.000000pt" height="88.000000pt" viewBox="0 0 71.000000 88.000000"
 preserveAspectRatio="xMidYMid meet">
<metadata>
Created by potrace 1.15, written by Peter Selinger 2001-2017
</metadata>
<g transform="translate(0.000000,88.000000) scale(0.100000,-0.100000)"
fill="#000000" stroke="none">
<path d="M357 683 c-4 -3 -7 -28 -7 -53 0 -53 -23 -87 -41 -59 -5 8 -9 23 -9
34 0 30 -16 49 -34 42 -12 -5 -16 -20 -16 -56 0 -48 1 -50 38 -61 72 -22 68
-20 52 -30 -23 -14 -124 -12 -144 3 -14 10 -17 22 -14 48 10 62 -25 91 -56 47
-12 -16 -16 -47 -16 -111 0 -79 3 -92 25 -122 26 -33 26 -33 223 -28 261 6
263 7 244 169 -10 90 -20 111 -46 101 -12 -5 -16 -21 -16 -67 0 -60 0 -60 -47
-59 -58 1 -94 11 -94 24 0 6 13 12 28 13 15 2 33 8 40 14 18 14 28 115 13 132
-16 20 -40 9 -40 -19 0 -33 -17 -75 -31 -75 -8 0 -9 14 -4 46 4 30 2 50 -6 60
-12 15 -31 18 -42 7z m-37 -232 c19 -5 25 -13 25 -36 0 -28 -3 -30 -42 -33
-60 -4 -106 10 -120 38 -9 19 -9 26 0 32 15 9 102 9 137 -1z m221 -13 c5 -48
-9 -58 -83 -58 -57 0 -58 0 -58 28 0 16 3 32 7 35 12 13 133 8 134 -5z"/>
<path d="M167 297 c-9 -23 10 -26 157 -26 71 0 136 -2 145 -5 9 -2 28 -7 44
-10 18 -4 27 -13 27 -27 0 -23 -25 -36 -43 -21 -19 16 -244 34 -312 25 -45 -6
-61 -12 -63 -26 -3 -15 7 -17 90 -18 51 0 120 -5 153 -10 33 -5 73 -11 88 -13
107 -15 -45 -63 -164 -52 -36 3 -79 8 -95 12 -34 6 -70 -16 -61 -38 4 -12 31
-17 119 -22 115 -8 174 0 245 29 39 17 53 13 53 -14 0 -24 25 -45 45 -37 12 4
14 15 9 48 -4 24 -11 48 -16 55 -5 6 -6 28 -2 47 9 49 -10 92 -44 100 -15 4
-104 9 -198 13 -150 5 -172 4 -177 -10z"/>
</g>
</svg>
