<svg version="1.0" xmlns="http://www.w3.org/2000/svg"
 width="49.000000pt" height="95.000000pt" viewBox="0 0 49.000000 95.000000"
 preserveAspectRatio="xMidYMid meet">
<metadata>
Created by potrace 1.15, written by Peter Selinger 2001-2017
</metadata>
<g transform="translate(0.000000,95.000000) scale(0.100000,-0.100000)"
fill="#000000" stroke="none">
<path d="M196 708 c3 -13 13 -38 20 -57 17 -41 17 -51 2 -51 -29 0 -43 20 -47
63 -1 4 -8 7 -17 7 -14 0 -16 -8 -11 -54 3 -30 2 -69 -2 -87 -3 -19 -5 -44 -3
-56 4 -26 27 -31 36 -7 3 9 15 14 28 12 19 -2 24 -10 26 -46 2 -24 -1 -65 -7
-90 -10 -50 1 -94 13 -54 10 29 24 28 32 -2 7 -29 -16 -77 -51 -104 -14 -11
-25 -23 -25 -26 0 -13 25 -5 57 20 43 32 54 24 61 -46 2 -28 9 -53 13 -56 14
-8 11 130 -3 144 -9 9 -8 17 2 37 21 39 15 105 -14 157 -14 26 -26 50 -26 54
0 4 24 4 53 1 45 -4 55 -2 65 14 17 27 16 157 -2 175 -21 21 -24 18 -28 -23
-3 -33 -7 -38 -30 -41 -16 -2 -28 -1 -28 2 0 13 26 51 43 64 9 7 17 17 17 23
0 17 -24 9 -54 -16 -16 -14 -31 -25 -34 -25 -9 0 -31 35 -32 49 0 16 -29 40
-48 41 -9 0 -11 -7 -6 -22z m33 -157 c18 -11 5 -31 -20 -31 -12 0 -19 7 -19
20 0 21 16 26 39 11z m126 -11 c4 -6 -8 -10 -29 -10 -20 0 -36 5 -36 10 0 6
13 10 29 10 17 0 33 -4 36 -10z m-56 -184 c8 -13 10 -30 6 -36 -6 -9 -12 -6
-21 11 -7 13 -13 30 -14 37 0 20 16 14 29 -12z"/>
</g>
</svg>
