<svg version="1.0" xmlns="http://www.w3.org/2000/svg"
 width="64.000000pt" height="80.000000pt" viewBox="0 0 64.000000 80.000000"
 preserveAspectRatio="xMidYMid meet">
<metadata>
Created by potrace 1.15, written by Peter Selinger 2001-2017
</metadata>
<g transform="translate(0.000000,80.000000) scale(0.100000,-0.100000)"
fill="#000000" stroke="none">
<path d="M448 753 c-2 -23 -9 -29 -36 -33 -18 -3 -33 -8 -32 -12 0 -5 0 -12 0
-18 0 -5 16 -10 35 -10 33 0 35 -2 35 -34 0 -34 -1 -35 -47 -38 -60 -4 -59
-20 1 -32 32 -6 46 -14 46 -25 0 -24 -12 -37 -40 -46 -82 -24 -82 -106 0 -139
32 -13 40 -21 40 -41 0 -21 -5 -25 -28 -25 -56 0 -81 -60 -67 -165 5 -45 10
-56 23 -53 14 3 16 14 14 75 -4 78 8 113 38 113 18 0 20 -7 20 -92 0 -100 10
-132 32 -110 8 8 14 47 16 102 3 65 8 90 17 90 24 0 33 -25 40 -108 6 -69 10
-82 24 -80 13 3 16 19 15 100 0 110 -9 128 -60 128 -29 0 -34 3 -34 24 0 20 7
25 45 35 61 15 82 47 66 101 -11 39 -45 60 -93 60 -15 0 -19 6 -16 27 2 23 9
29 43 35 49 10 65 30 65 80 0 43 -19 58 -74 58 -30 0 -35 3 -38 28 -2 19 -9
28 -25 30 -17 3 -22 -2 -25 -25z m116 -95 c14 -22 1 -36 -42 -44 -31 -6 -32
-6 -32 30 0 36 1 37 31 34 18 -2 37 -11 43 -20z m-8 -203 c19 -15 19 -15 -5
-35 -16 -13 -38 -20 -68 -20 -70 0 -102 27 -71 58 17 17 120 15 144 -3z"/>
<path d="M186 725 c-3 -9 -6 -43 -6 -75 0 -64 -12 -82 -38 -56 -11 11 -17 34
-17 66 0 52 -17 82 -36 63 -7 -7 -8 -34 -4 -78 8 -71 23 -95 68 -105 25 -7 36
-38 15 -44 -7 -2 -25 -7 -40 -10 -46 -10 -58 -31 -58 -102 0 -70 16 -98 65
-110 36 -9 28 -36 -12 -46 -42 -11 -51 -30 -59 -117 -6 -67 -6 -71 13 -71 25
0 33 18 33 73 1 46 18 77 43 77 13 0 17 -14 19 -77 2 -61 6 -78 18 -78 12 0
16 16 18 73 2 56 7 74 19 79 27 10 43 -25 43 -94 0 -49 3 -63 15 -63 35 0 47
92 21 155 -12 27 -23 36 -55 45 -23 6 -41 15 -41 20 0 5 17 18 38 29 108 55
106 196 -3 213 -40 6 -28 36 24 58 50 22 50 22 56 86 8 71 3 94 -20 94 -11 0
-15 -11 -15 -44 0 -65 -15 -98 -43 -94 -20 3 -22 10 -27 72 -5 67 -21 95 -34
61z m89 -287 c15 -23 15 -23 -77 -30 -50 -4 -94 -5 -97 -2 -3 3 7 17 22 30 40
34 128 35 152 2z m5 -71 c0 -44 -113 -76 -150 -42 -35 31 -25 44 38 48 31 2
69 4 85 5 17 1 27 -3 27 -11z"/>
</g>
</svg>
