<svg version="1.0" xmlns="http://www.w3.org/2000/svg"
 width="76.000000pt" height="92.000000pt" viewBox="0 0 76.000000 92.000000"
 preserveAspectRatio="xMidYMid meet">
<metadata>
Created by potrace 1.15, written by Peter Selinger 2001-2017
</metadata>
<g transform="translate(0.000000,92.000000) scale(0.100000,-0.100000)"
fill="#000000" stroke="none">
<path d="M467 700 c-16 -19 -59 -26 -129 -21 -25 2 -27 -1 -30 -41 -2 -35 -7
-43 -23 -43 -16 0 -21 8 -25 45 -4 40 -8 45 -30 45 -23 0 -25 -5 -30 -50 -4
-36 -9 -50 -20 -50 -10 0 -16 12 -18 35 -7 77 -72 73 -72 -5 0 -55 19 -75 71
-75 32 0 39 -3 39 -19 0 -15 -8 -21 -32 -23 -52 -5 -68 -38 -59 -130 3 -43 12
-83 19 -90 7 -7 30 -13 50 -13 55 0 50 -28 -5 -36 -24 -3 -45 -8 -49 -11 -11
-11 -17 -86 -10 -123 6 -30 11 -36 29 -33 19 3 23 11 27 58 4 47 8 55 27 58
21 3 22 -1 25 -80 3 -75 5 -83 23 -83 18 0 20 8 23 87 2 79 5 88 22 88 15 0
20 -10 25 -55 4 -30 11 -55 15 -55 17 0 31 30 37 78 5 44 3 51 -18 66 -13 9
-36 16 -52 16 -38 0 -30 24 9 28 48 6 54 18 54 103 0 106 -10 129 -55 129 -31
0 -35 3 -35 25 0 22 4 25 38 25 47 0 62 14 62 57 0 33 0 33 49 33 33 0 51 -5
54 -14 8 -19 -1 -26 -33 -26 -46 0 -64 -21 -57 -66 7 -43 28 -64 64 -64 16 0
23 -6 23 -20 0 -15 -7 -20 -27 -20 -16 0 -34 -4 -42 -9 -23 -15 -2 -31 40 -31
35 0 39 -3 39 -24 0 -22 -5 -25 -42 -28 -31 -2 -44 -8 -46 -21 -3 -14 4 -17
42 -17 59 0 64 -25 7 -34 -55 -9 -63 -22 -55 -100 6 -54 10 -66 23 -64 12 2
17 18 21 58 4 47 8 55 27 58 21 3 22 -1 25 -65 3 -62 5 -68 26 -71 21 -3 22 0
22 68 0 54 4 72 15 76 27 11 45 -16 45 -67 0 -34 4 -49 13 -49 25 0 37 24 37
71 0 39 -5 51 -26 68 -15 12 -40 21 -55 21 -19 0 -29 5 -29 15 0 10 10 15 28
15 46 0 72 25 72 70 0 48 -21 70 -66 70 -27 0 -34 4 -34 19 0 17 8 20 47 23
36 2 49 7 51 21 3 14 -5 17 -53 17 -48 0 -56 3 -53 18 2 13 15 18 51 20 72 5
60 42 -14 42 -22 0 -29 5 -29 20 0 18 7 20 61 20 52 0 60 2 57 18 -2 13 -15
18 -58 20 -40 2 -58 8 -68 23 -17 24 -33 24 -55 -1z m3 -160 c0 -15 -7 -20
-25 -20 -18 0 -25 5 -25 20 0 15 7 20 25 20 18 0 25 -5 25 -20z m-172 -112 c3
-28 3 -28 -67 -28 -65 0 -71 2 -71 20 0 26 33 40 90 37 41 -2 45 -4 48 -29z
m282 -53 c0 -20 -5 -25 -25 -25 -20 0 -25 5 -25 25 0 20 5 25 25 25 20 0 25
-5 25 -25z m-275 -24 c3 -5 -2 -17 -11 -26 -12 -12 -31 -15 -73 -13 -49 3 -56
6 -59 26 -3 21 0 22 67 22 38 0 72 -4 76 -9z"/>
</g>
</svg>
