<svg version="1.0" xmlns="http://www.w3.org/2000/svg"
 width="76.000000pt" height="97.000000pt" viewBox="0 0 76.000000 97.000000"
 preserveAspectRatio="xMidYMid meet">
<metadata>
Created by potrace 1.15, written by Peter Selinger 2001-2017
</metadata>
<g transform="translate(0.000000,97.000000) scale(0.100000,-0.100000)"
fill="#000000" stroke="none">
<path d="M482 738 c-7 -7 -12 -20 -12 -30 0 -13 -8 -18 -30 -18 -38 0 -52 -26
-44 -82 7 -48 25 -68 63 -69 20 -1 16 -3 -14 -10 -45 -11 -55 -22 -55 -64 0
-40 16 -55 57 -55 48 0 44 -28 -4 -32 -27 -2 -39 -8 -41 -20 -3 -15 4 -18 37
-18 30 0 41 -4 41 -15 0 -10 -10 -15 -32 -15 -42 0 -63 -13 -55 -34 5 -11 19
-16 52 -16 25 0 45 -4 45 -10 0 -5 -13 -10 -28 -10 -48 0 -66 -30 -58 -97 6
-55 19 -77 41 -69 6 1 10 27 10 57 0 43 3 54 18 57 14 3 17 -4 17 -50 0 -48
12 -78 30 -78 14 0 30 53 30 95 0 38 3 45 20 45 25 0 40 -29 40 -74 0 -28 4
-36 18 -36 30 0 42 22 42 76 0 64 -21 84 -87 84 -24 0 -43 5 -43 10 0 6 20 10
44 10 36 0 48 5 65 26 12 15 21 32 21 39 0 23 -38 46 -89 52 -28 3 -51 10 -51
14 0 5 22 11 50 15 60 8 74 22 66 68 -7 38 -20 46 -79 47 -42 0 -42 0 6 13 26
7 51 16 55 20 12 13 -30 36 -65 36 -26 0 -33 4 -33 19 0 20 25 31 73 31 20 0
27 5 27 19 0 20 -18 31 -53 31 -12 0 -33 12 -46 25 -26 28 -32 30 -49 13z m-2
-123 c0 -18 -5 -25 -20 -25 -15 0 -20 7 -20 25 0 18 5 25 20 25 15 0 20 -7 20
-25z m0 -145 c0 -13 -7 -20 -20 -20 -13 0 -20 7 -20 20 0 13 7 20 20 20 13 0
20 -7 20 -20z m95 5 c0 -5 -10 -11 -22 -13 -16 -2 -23 2 -23 13 0 11 7 15 23
13 12 -2 22 -7 22 -13z m9 -144 c3 -5 -1 -12 -10 -15 -27 -10 -44 -7 -44 9 0
16 45 21 54 6z"/>
<path d="M220 659 c0 -52 -2 -60 -17 -57 -12 2 -19 14 -21 33 -4 35 -28 65
-52 65 -13 0 -16 -12 -17 -70 -1 -68 0 -71 27 -85 16 -8 40 -15 55 -15 41 0
30 -27 -14 -35 -57 -10 -64 -23 -59 -110 5 -78 24 -115 57 -115 9 0 23 -5 31
-10 13 -9 13 -11 0 -20 -8 -5 -25 -10 -37 -10 -12 0 -29 -10 -37 -22 -22 -30
-22 -131 0 -152 19 -20 24 -20 53 0 21 15 23 22 17 64 -5 38 -3 49 9 54 21 8
29 -15 21 -68 -8 -53 7 -99 31 -94 31 6 44 47 37 117 -5 52 -4 63 7 59 8 -3
15 -22 17 -49 4 -52 15 -67 37 -49 19 16 21 122 3 138 -7 6 -26 12 -43 14 -39
4 -39 29 -1 39 41 11 46 23 46 110 0 82 -10 106 -50 111 -38 5 -39 37 0 44 17
4 37 16 45 28 29 40 12 126 -24 126 -17 0 -20 -8 -23 -47 -2 -35 -7 -48 -18
-48 -10 0 -17 14 -20 45 -7 55 -15 70 -41 70 -17 0 -19 -7 -19 -61z m88 -231
c3 -28 3 -28 -57 -28 -52 0 -61 3 -61 18 0 30 22 43 70 40 41 -3 45 -6 48 -30z
m2 -76 c0 -20 -28 -32 -72 -32 -41 0 -48 3 -48 20 0 18 7 20 60 20 33 0 60 -4
60 -8z"/>
</g>
</svg>
