<svg version="1.0" xmlns="http://www.w3.org/2000/svg"
 width="119.000000pt" height="181.000000pt" viewBox="0 0 119.000000 181.000000"
 preserveAspectRatio="xMidYMid meet">
<metadata>
Created by potrace 1.15, written by Peter Selinger 2001-2017
</metadata>
<g transform="translate(0.000000,181.000000) scale(0.100000,-0.100000)"
fill="#000000" stroke="none">
<path d="M537 1690 c6 -60 6 -60 -46 -60 -42 0 -51 -3 -51 -17 0 -33 17 -46
62 -47 43 -1 43 -1 46 -73 3 -71 3 -71 -60 -80 -69 -9 -82 -24 -51 -61 16 -19
22 -21 62 -12 40 10 45 9 65 -15 24 -27 35 -23 49 17 3 9 21 20 40 23 55 11
92 39 115 88 19 41 20 49 8 79 -17 40 -66 78 -100 78 -52 0 -73 16 -79 60 -5
40 -34 80 -56 80 -7 0 -8 -22 -4 -60z m157 -151 c33 -16 39 -35 19 -65 -21
-33 -42 -43 -76 -37 -25 5 -27 8 -27 59 0 53 0 54 30 54 16 0 40 -5 54 -11z"/>
<path d="M242 1438 c-17 -128 -16 -148 6 -148 20 0 42 38 42 70 0 10 5 22 10
25 19 11 11 91 -11 119 -11 14 -24 26 -28 26 -3 0 -12 -42 -19 -92z"/>
<path d="M840 1315 c-10 -12 -7 -23 14 -60 15 -25 30 -45 34 -45 4 0 29 -20
56 -45 47 -44 86 -58 86 -32 0 7 -22 35 -50 62 -27 27 -50 55 -50 62 0 7 -4
13 -9 13 -5 0 -13 9 -16 20 -3 11 -13 20 -21 20 -8 0 -14 5 -14 10 0 15 -16
12 -30 -5z"/>
<path d="M728 1175 c-2 -3 -55 -5 -116 -6 -62 0 -114 -4 -117 -8 -2 -5 -33 -9
-67 -10 -70 -2 -83 -9 -73 -41 7 -23 8 -23 117 -4 36 6 36 6 43 -39 10 -63 -8
-94 -80 -138 -63 -38 -76 -59 -52 -83 20 -20 75 -1 118 42 24 23 39 30 53 26
31 -10 74 -64 81 -104 3 -19 8 -47 11 -61 7 -35 -38 -80 -102 -103 -27 -10
-65 -24 -84 -31 -19 -7 -35 -19 -35 -26 0 -23 54 -22 133 3 83 25 138 70 158
130 21 63 -18 171 -87 242 -33 33 -39 46 -39 81 0 66 13 75 112 82 64 4 88 10
93 21 3 8 3 17 1 20 -7 6 -62 12 -68 7z"/>
<path d="M170 639 c-36 -36 -77 -73 -92 -82 -21 -12 -28 -24 -28 -47 0 -42 19
-38 76 15 26 25 50 45 54 45 8 0 25 -59 35 -125 17 -103 24 -145 33 -205 13
-83 21 -102 41 -98 14 3 16 18 15 103 -1 55 -7 141 -14 190 -10 79 -18 167
-20 215 0 8 -8 24 -18 35 -17 20 -18 19 -82 -46z"/>
<path d="M860 691 c0 -5 7 -28 15 -52 9 -24 17 -75 19 -114 3 -66 11 -119 37
-225 6 -25 13 -60 16 -77 3 -19 11 -33 19 -33 20 0 29 48 16 84 -6 17 -11 88
-10 158 1 142 -6 134 85 92 28 -12 56 -31 61 -40 6 -11 11 -13 16 -5 4 6 18
11 32 11 21 0 25 4 22 23 -2 17 -24 33 -96 68 -50 25 -102 54 -115 65 -13 11
-32 24 -42 28 -42 17 -75 24 -75 17z"/>
<path d="M650 526 c-14 -8 -61 -30 -105 -50 -44 -19 -95 -49 -113 -65 -30 -26
-33 -34 -27 -63 15 -79 52 -105 134 -95 47 6 49 5 54 -21 24 -119 54 -202 74
-202 12 0 13 16 7 108 -9 155 -11 147 35 165 40 16 60 44 38 53 -8 3 -26 0
-41 -6 -43 -16 -53 -12 -65 21 -20 58 -15 73 37 101 30 16 47 32 47 44 0 24
-40 29 -75 10z m-78 -160 c9 -44 0 -56 -43 -56 -30 0 -71 28 -51 36 6 3 12 11
12 17 0 20 34 48 54 45 15 -2 22 -14 28 -42z"/>
</g>
</svg>
