<svg version="1.0" xmlns="http://www.w3.org/2000/svg"
 width="41.000000pt" height="63.000000pt" viewBox="0 0 41.000000 63.000000"
 preserveAspectRatio="xMidYMid meet">
<metadata>
Created by potrace 1.15, written by Peter Selinger 2001-2017
</metadata>
<g transform="translate(0.000000,63.000000) scale(0.100000,-0.100000)"
fill="#000000" stroke="none">
<path d="M102 491 c-5 -3 -12 -19 -15 -36 -3 -16 -12 -61 -21 -100 -26 -114
-23 -138 22 -169 36 -24 72 -27 72 -6 0 9 55 70 64 70 3 0 6 -9 6 -20 0 -11
-4 -20 -8 -20 -5 0 -14 -12 -21 -26 -13 -30 -1 -54 29 -54 12 0 26 -17 41 -50
12 -27 27 -50 32 -50 10 0 4 70 -12 142 -9 39 -8 53 6 83 16 33 16 37 0 70 -9
19 -23 35 -32 35 -24 0 -18 19 15 50 35 33 37 40 10 40 -11 0 -27 11 -36 25
-24 37 -44 16 -44 -47 0 -35 -4 -48 -12 -45 -8 2 -12 19 -11 40 2 28 -2 37
-17 42 -11 4 -20 10 -20 15 0 10 -35 19 -48 11z m103 -176 c0 -49 -2 -55 -24
-60 -13 -3 -30 -13 -38 -20 -8 -8 -20 -15 -26 -15 -6 0 5 17 25 38 30 30 35
42 31 66 -4 18 -1 31 8 37 23 14 24 12 24 -46z m55 -20 c0 -8 -2 -15 -4 -15
-2 0 -6 7 -10 15 -3 8 -1 15 4 15 6 0 10 -7 10 -15z"/>
</g>
</svg>
