<svg version="1.0" xmlns="http://www.w3.org/2000/svg"
 width="59.000000pt" height="149.000000pt" viewBox="0 0 59.000000 149.000000"
 preserveAspectRatio="xMidYMid meet">
<metadata>
Created by potrace 1.15, written by Peter Selinger 2001-2017
</metadata>
<g transform="translate(0.000000,149.000000) scale(0.100000,-0.100000)"
fill="#000000" stroke="none">
<path d="M367 1308 c-13 -10 -19 -39 -26 -120 -8 -99 -21 -138 -45 -138 -3 0
-6 45 -6 99 0 59 -4 102 -10 106 -11 7 -55 -17 -75 -40 -5 -6 -21 -23 -34 -38
-19 -21 -25 -41 -28 -87 -5 -77 12 -78 21 -1 6 51 12 64 48 100 23 22 45 41
50 41 4 0 7 -49 7 -110 -1 -60 -4 -110 -8 -110 -3 0 -12 -30 -19 -67 -7 -37
-18 -70 -24 -74 -14 -9 -3 -39 16 -39 7 0 16 9 19 20 6 23 42 27 50 7 3 -7 3
-43 0 -79 -6 -66 -6 -66 -49 -77 -24 -6 -44 -16 -44 -21 0 -6 5 -10 10 -10 6
0 10 -15 10 -34 0 -26 -5 -36 -21 -41 -27 -9 -37 2 -41 45 -4 47 -21 45 -29
-4 -3 -21 -12 -42 -20 -48 -11 -7 -11 -11 -1 -15 6 -2 12 -15 12 -28 0 -13 5
-27 10 -30 6 -3 10 3 10 13 0 28 24 44 61 40 28 -3 33 -8 45 -48 8 -25 14 -57
14 -72 0 -24 -4 -28 -28 -28 -32 0 -53 16 -46 35 3 7 1 16 -5 20 -6 3 -15 -5
-21 -19 -5 -14 -17 -26 -26 -26 -16 0 -16 -1 -1 -18 11 -12 14 -30 11 -62 -5
-45 -5 -45 17 -2 19 39 24 42 60 42 46 0 48 -9 20 -72 -10 -24 -29 -68 -41
-98 -13 -30 -31 -71 -41 -91 -26 -50 -24 -59 11 -59 17 0 30 5 30 10 0 11 81
132 119 180 11 14 21 31 21 38 0 6 3 12 8 12 4 0 18 35 30 78 35 113 40 124
59 120 22 -4 28 -33 15 -62 -10 -22 -22 -65 -43 -151 -6 -27 -20 -75 -30 -106
-11 -30 -19 -71 -19 -90 1 -34 1 -34 14 1 41 109 65 181 76 230 7 30 21 74 31
98 27 63 25 79 -16 93 -19 7 -35 16 -35 19 0 4 5 31 10 62 14 72 2 106 -41
115 -25 5 -30 10 -25 27 3 12 6 58 6 103 0 81 0 81 30 92 36 12 45 34 53 124
6 66 6 67 -18 67 -14 0 -39 -9 -57 -20 -44 -27 -51 -25 -44 8 3 15 8 54 11 86
7 76 20 94 50 66 12 -11 24 -17 28 -14 5 5 -48 64 -57 64 -1 0 -10 -6 -19 -12z
m88 -245 c-11 -88 -14 -93 -40 -93 -21 0 -25 5 -25 33 0 17 -3 42 -6 54 -5 16
1 25 23 37 48 26 55 22 48 -31z m-91 -63 c7 -51 3 -70 -15 -70 -5 0 -9 27 -8
60 2 73 14 78 23 10z m-52 -32 c-4 -48 -14 -67 -34 -68 -15 0 -8 85 8 108 23
33 32 19 26 -40z m52 -93 c9 -36 -5 -133 -21 -146 -7 -7 -15 -10 -16 -8 -2 2
-1 43 1 92 3 62 8 87 17 87 7 0 16 -11 19 -25z m50 -181 c12 -5 16 -20 16 -58
0 -29 -4 -56 -8 -62 -5 -5 -15 -29 -22 -54 -8 -25 -18 -51 -24 -58 -7 -10 -5
-16 5 -22 11 -7 11 -12 1 -22 -6 -6 -12 -20 -12 -31 0 -10 -4 -15 -10 -12 -5
3 -9 35 -9 70 1 35 -2 68 -5 74 -11 18 -18 171 -7 171 5 0 11 -6 14 -12 3 -9
7 -7 12 5 7 18 22 21 49 11z m-104 -54 c0 -43 -3 -50 -20 -50 -37 0 -58 84
-22 93 39 10 42 8 42 -43z m8 -110 c14 -47 16 -106 3 -115 -13 -7 -23 12 -32
60 -5 22 -11 52 -15 68 -5 22 -3 27 12 27 13 0 23 -12 32 -40z m12 -173 c0
-36 -4 -46 -25 -57 -14 -7 -27 -11 -30 -9 -4 4 20 83 31 101 13 20 24 4 24
-35z m-60 -137 c-36 -45 -49 -46 -31 -2 11 26 49 56 60 46 2 -2 -11 -21 -29
-44z"/>
</g>
</svg>
