<svg version="1.0" xmlns="http://www.w3.org/2000/svg"
 width="105.000000pt" height="131.000000pt" viewBox="0 0 105.000000 131.000000"
 preserveAspectRatio="xMidYMid meet">
<metadata>
Created by potrace 1.15, written by Peter Selinger 2001-2017
</metadata>
<g transform="translate(0.000000,131.000000) scale(0.100000,-0.100000)"
fill="#000000" stroke="none">
<path d="M158 1218 c-16 -5 -28 -13 -28 -17 0 -12 48 -31 75 -31 25 0 25 0 25
-143 0 -117 -4 -152 -20 -197 -11 -30 -26 -61 -34 -69 -13 -12 -18 -11 -43 16
-26 28 -63 53 -78 53 -3 0 4 -18 16 -40 13 -22 26 -40 30 -40 6 0 19 -31 23
-52 1 -3 -14 -25 -33 -47 -53 -63 -60 -95 -60 -280 -1 -235 3 -286 22 -305 8
-9 18 -16 20 -16 3 0 8 27 12 60 4 34 12 60 18 60 7 1 50 3 97 6 106 6 129 6
141 -2 5 -3 9 -34 9 -69 0 -49 4 -64 16 -69 21 -8 18 -14 33 64 7 36 18 68 24
73 17 11 221 -3 229 -17 5 -6 5 -30 2 -52 -5 -36 -3 -44 17 -58 18 -12 25 -13
30 -3 7 13 23 273 23 397 1 84 -20 138 -77 198 -32 33 -32 33 7 68 21 19 45
38 52 42 7 4 10 18 7 34 -5 26 -5 26 -39 6 -19 -11 -47 -33 -62 -49 -15 -16
-29 -29 -32 -29 -24 0 -47 151 -49 333 -2 127 -2 127 34 127 39 0 55 21 35 45
-10 12 -47 15 -214 14 -110 0 -213 -5 -228 -11z m312 -96 c0 -43 -3 -50 -25
-60 -14 -7 -55 -12 -90 -12 -65 0 -65 0 -65 53 0 30 3 57 7 60 3 4 44 7 90 7
83 0 83 0 83 -48z m-26 -128 c12 -4 16 -20 16 -54 0 -46 -2 -49 -32 -58 -18
-5 -59 -10 -90 -11 -58 -1 -58 -1 -58 45 0 74 10 84 85 84 35 0 70 -3 79 -6z
m29 -199 c9 -20 17 -40 17 -46 0 -6 9 -24 21 -40 20 -29 20 -29 -13 -61 -51
-49 -115 -98 -130 -98 -7 0 -46 31 -87 68 -74 69 -74 69 -60 100 8 18 17 32
20 32 3 0 12 18 19 40 13 40 13 40 105 40 91 0 91 0 108 -35z m-207 -227 c61
-61 84 -89 84 -108 0 -25 0 -25 -130 -25 -130 0 -130 0 -130 53 0 58 10 83 46
119 13 13 24 28 24 33 0 23 26 5 106 -72z m374 -18 c6 -15 10 -47 8 -71 -3
-44 -3 -44 -117 -47 -113 -3 -113 -3 -106 34 3 20 12 42 18 48 7 6 39 35 71
64 59 53 59 53 87 26 15 -14 33 -39 39 -54z m-110 -170 c0 -5 8 -9 18 -8 9 1
38 0 65 0 47 -2 47 -2 47 -70 0 -67 0 -67 -95 -70 -62 -2 -95 0 -95 7 0 6 -12
8 -30 5 -30 -6 -30 -6 -30 54 0 67 8 78 56 73 18 -1 35 2 39 8 8 14 25 14 25
1z m-172 -70 c3 -76 19 -69 -150 -76 -118 -5 -118 -5 -118 65 0 70 0 70 43 73
23 2 82 4 132 4 90 -1 90 -1 93 -66z"/>
<path d="M875 1147 c-12 -12 -27 -35 -34 -52 -8 -16 -22 -46 -32 -66 -24 -47
-25 -107 -1 -125 38 -30 160 1 201 50 8 9 20 16 27 16 8 0 14 9 14 20 0 16 -7
20 -34 20 -46 0 -111 62 -96 90 10 20 -2 71 -17 69 -5 0 -17 -10 -28 -22z m38
-147 c31 -30 32 -31 12 -46 -11 -8 -33 -14 -50 -12 -26 3 -30 6 -27 31 3 24
19 55 30 57 2 0 17 -14 35 -30z"/>
</g>
</svg>
