<svg version="1.0" xmlns="http://www.w3.org/2000/svg"
 width="63.000000pt" height="105.000000pt" viewBox="0 0 63.000000 105.000000"
 preserveAspectRatio="xMidYMid meet">
<metadata>
Created by potrace 1.15, written by Peter Selinger 2001-2017
</metadata>
<g transform="translate(0.000000,105.000000) scale(0.100000,-0.100000)"
fill="#000000" stroke="none">
<path d="M250 795 c0 -80 -11 -109 -25 -65 -7 22 -40 44 -54 35 -5 -3 -12 -19
-16 -36 -4 -17 -13 -42 -21 -57 -15 -29 -19 -62 -6 -62 4 0 20 19 36 41 31 45
33 44 70 -23 46 -83 48 -93 20 -125 -19 -22 -23 -35 -18 -60 5 -28 1 -36 -40
-74 -26 -24 -44 -49 -42 -55 3 -7 -4 -29 -15 -49 -11 -20 -18 -39 -16 -41 8
-8 44 33 67 79 31 59 54 59 58 -1 5 -64 22 -50 22 18 0 59 1 61 35 77 33 16
36 16 49 -2 17 -23 8 -53 -41 -133 -19 -32 -37 -69 -40 -84 -3 -15 -11 -29
-19 -32 -16 -6 -19 -56 -3 -56 6 0 24 -13 39 -30 48 -52 65 -40 142 99 27 49
38 59 38 36 0 -39 22 -145 31 -145 5 0 8 59 8 130 0 72 -4 130 -7 130 -9 0
-52 -67 -52 -79 0 -5 -4 -11 -8 -13 -5 -1 -25 -29 -46 -61 -48 -73 -68 -85
-96 -57 -20 20 -20 55 -1 70 3 3 13 19 21 35 8 17 32 56 53 89 34 51 38 61 28
83 -20 43 -14 67 20 82 26 11 30 17 25 40 -3 14 -9 48 -12 74 -4 27 -13 51
-20 54 -7 2 -26 -9 -42 -26 -33 -35 -49 -38 -67 -14 -15 21 -6 40 48 108 24
29 24 29 50 0 44 -52 43 -12 -2 75 -16 29 -36 20 -61 -26 -35 -67 -50 -68 -50
-4 0 59 -18 140 -31 140 -5 0 -9 -38 -9 -85z m150 -275 c0 -16 -7 -30 -16 -34
-25 -10 -32 -7 -39 14 -5 15 0 26 17 39 28 23 38 18 38 -19z m-86 -46 c7 -19
-10 -44 -30 -44 -14 0 -20 41 -7 53 12 12 31 7 37 -9z"/>
</g>
</svg>
