<svg version="1.0" xmlns="http://www.w3.org/2000/svg"
 width="45.000000pt" height="119.000000pt" viewBox="0 0 45.000000 119.000000"
 preserveAspectRatio="xMidYMid meet">
<metadata>
Created by potrace 1.15, written by Peter Selinger 2001-2017
</metadata>
<g transform="translate(0.000000,119.000000) scale(0.100000,-0.100000)"
fill="#000000" stroke="none">
<path d="M236 1068 c-2 -7 -9 -28 -15 -47 -6 -19 -11 -56 -11 -82 0 -27 -3
-49 -7 -49 -5 0 -19 23 -32 50 -29 59 -41 63 -41 16 0 -19 -4 -38 -10 -41 -5
-3 -10 -15 -10 -26 0 -10 -5 -28 -12 -39 -7 -10 -9 -22 -5 -26 10 -10 34 14
41 41 9 34 27 31 52 -8 36 -55 38 -88 9 -142 -14 -26 -25 -62 -25 -80 0 -17
-8 -40 -17 -51 -29 -32 -43 -62 -43 -89 0 -33 18 -32 31 2 9 25 25 42 39 43
17 0 33 -83 31 -155 -2 -82 17 -155 40 -155 7 0 20 10 30 22 29 32 34 15 21
-64 -7 -39 -11 -73 -9 -75 2 -2 11 -1 20 3 20 7 37 56 37 107 0 22 5 68 12
103 6 35 9 67 5 70 -13 14 -53 -7 -69 -36 -19 -34 -48 -40 -48 -11 0 26 38
114 53 123 8 4 11 31 10 71 -2 64 -2 64 35 84 46 24 52 61 24 142 -11 31 -20
70 -19 87 0 32 -23 94 -35 94 -5 0 -8 7 -8 15 0 24 -19 18 -32 -10 -20 -44
-28 -27 -22 44 5 46 3 70 -5 75 -6 4 -13 1 -15 -6z m84 -189 c11 -27 11 -33
-7 -57 -46 -62 -84 -15 -41 52 13 20 26 36 29 36 4 0 12 -14 19 -31z m22 -158
c3 -26 -42 -68 -61 -57 -22 14 -12 61 17 78 30 19 40 14 44 -21z m-72 -153 c0
-13 -7 -31 -14 -41 -13 -16 -14 -16 -20 5 -11 42 -7 58 14 58 14 0 20 -7 20
-22z"/>
</g>
</svg>
