<svg version="1.0" xmlns="http://www.w3.org/2000/svg"
 width="45.000000pt" height="97.000000pt" viewBox="0 0 45.000000 97.000000"
 preserveAspectRatio="xMidYMid meet">
<metadata>
Created by potrace 1.15, written by Peter Selinger 2001-2017
</metadata>
<g transform="translate(0.000000,97.000000) scale(0.100000,-0.100000)"
fill="#000000" stroke="none">
<path d="M230 800 c-13 -11 -27 -20 -32 -20 -4 0 -8 -13 -8 -30 0 -46 -20 -79
-57 -92 -44 -16 -44 -41 0 -36 32 3 32 3 35 -49 3 -49 1 -54 -37 -94 -47 -48
-51 -62 -16 -57 28 4 29 2 20 -33 -4 -15 -17 -31 -31 -38 -27 -12 -32 -31 -9
-31 11 0 15 -12 15 -47 0 -27 7 -57 15 -67 14 -18 17 -17 81 33 37 28 73 51
80 51 16 0 44 -39 44 -62 0 -9 -13 -40 -30 -68 -29 -49 -39 -90 -22 -90 11 0
49 45 72 84 10 18 24 43 31 54 11 18 10 27 -10 64 -12 24 -29 52 -37 63 -14
19 -15 19 -50 0 -19 -10 -40 -27 -45 -37 -10 -19 -79 -42 -91 -30 -4 4 -4 21
0 37 8 29 31 45 106 74 26 11 28 15 22 46 -6 29 -3 39 18 60 13 13 27 33 30
43 8 24 -17 135 -31 139 -6 2 -21 -14 -34 -36 -24 -44 -36 -50 -46 -25 -9 23
14 57 50 75 37 18 34 35 -5 33 -24 -2 -28 2 -28 27 0 18 7 34 20 41 20 13 28
38 12 38 -5 0 -19 -9 -32 -20z m60 -244 c0 -19 -44 -50 -48 -36 -4 12 26 50
40 50 4 0 8 -6 8 -14z m-60 -125 c0 -11 -9 -23 -21 -26 -26 -9 -29 -5 -18 23
10 27 39 29 39 3z"/>
</g>
</svg>
