<svg version="1.0" xmlns="http://www.w3.org/2000/svg"
 width="45.000000pt" height="97.000000pt" viewBox="0 0 45.000000 97.000000"
 preserveAspectRatio="xMidYMid meet">
<metadata>
Created by potrace 1.15, written by Peter Selinger 2001-2017
</metadata>
<g transform="translate(0.000000,97.000000) scale(0.100000,-0.100000)"
fill="#000000" stroke="none">
<path d="M217 784 c-4 -4 -7 -25 -7 -46 0 -41 -9 -47 -34 -23 -16 16 -46 20
-46 6 0 -4 17 -30 37 -56 37 -48 37 -48 15 -63 -27 -18 -29 -42 -3 -42 18 0
18 -2 3 -61 -9 -36 -21 -63 -31 -67 -22 -8 -41 -28 -41 -42 0 -8 7 -9 18 -5 9
4 23 9 30 12 8 3 12 -4 12 -21 0 -14 4 -26 10 -26 14 0 30 35 30 64 0 16 7 27
20 31 46 15 43 -16 -12 -124 -32 -61 -35 -89 -12 -134 31 -61 34 -62 75 -18
20 23 39 41 43 41 3 0 6 -34 6 -75 0 -43 4 -75 10 -75 6 0 10 6 10 14 0 8 5
16 12 18 9 3 11 37 10 123 -2 66 -5 121 -7 124 -10 9 -55 -31 -55 -49 0 -11
-3 -20 -8 -20 -4 0 -13 -13 -20 -29 -7 -16 -20 -32 -29 -35 -19 -8 -35 12 -29
34 9 31 31 85 37 90 4 3 16 24 28 47 16 33 21 60 21 127 0 47 5 88 10 91 17
10 11 25 -10 25 -22 0 -25 12 -9 41 17 33 5 42 -24 19 -27 -21 -27 -21 -27 17
-1 43 -21 98 -33 87z m63 -235 c0 -11 -4 -17 -10 -14 -5 3 -10 13 -10 21 0 8
5 14 10 14 6 0 10 -9 10 -21z"/>
</g>
</svg>
