<svg version="1.0" xmlns="http://www.w3.org/2000/svg"
 width="95.000000pt" height="145.000000pt" viewBox="0 0 95.000000 145.000000"
 preserveAspectRatio="xMidYMid meet">
<metadata>
Created by potrace 1.15, written by Peter Selinger 2001-2017
</metadata>
<g transform="translate(0.000000,145.000000) scale(0.100000,-0.100000)"
fill="#000000" stroke="none">
<path d="M230 1368 c-36 -22 -151 -97 -160 -105 -3 -3 3 -10 13 -18 19 -14 63
-3 139 36 45 23 62 16 71 -29 3 -15 17 -67 31 -117 14 -49 26 -93 26 -97 0
-14 -22 -8 -95 26 -82 40 -111 39 -120 -5 -4 -16 -11 -29 -16 -29 -5 0 -9 -4
-9 -10 0 -5 -16 -30 -35 -56 -35 -45 -43 -76 -26 -103 7 -10 25 4 77 56 78 79
92 86 125 69 13 -6 43 -18 66 -25 48 -16 49 -17 58 -96 9 -66 2 -74 -60 -75
-29 -1 -207 -24 -221 -30 -1 0 -4 -10 -7 -22 -3 -13 -12 -48 -19 -78 -11 -44
-12 -66 -3 -105 13 -58 45 -123 71 -147 54 -48 164 -88 285 -103 46 -6 46 -6
53 -93 14 -166 16 -175 34 -188 9 -7 23 -14 30 -14 13 0 14 14 12 173 -2 107
-2 107 118 107 119 0 119 0 137 -62 12 -44 27 -72 52 -96 54 -52 59 -31 24 99
-17 63 -35 130 -40 149 -32 120 -47 163 -79 230 -20 41 -42 81 -49 88 -7 7
-13 16 -13 20 0 18 -124 68 -188 75 -24 3 -45 7 -47 9 -1 1 -5 39 -9 84 -7 80
-7 80 40 104 25 14 53 35 61 47 26 40 35 35 118 -58 46 -52 82 -61 91 -24 4
16 0 30 -10 40 -9 9 -16 19 -16 23 0 4 -13 21 -28 39 -15 17 -35 45 -44 62
-14 26 -23 31 -56 31 -29 0 -45 -7 -67 -30 -16 -16 -33 -30 -39 -30 -5 0 -20
-9 -32 -21 -25 -23 -44 -18 -44 12 0 23 -37 165 -49 188 -5 9 -12 40 -16 69
-7 52 -7 52 -53 51 -28 0 -61 -9 -82 -21z m380 -288 c0 -5 -5 -10 -11 -10 -5
0 -7 5 -4 10 3 6 8 10 11 10 2 0 4 -4 4 -10z m-220 -400 c15 -9 47 -143 57
-237 5 -53 5 -53 -30 -53 -82 0 -135 20 -192 72 -73 66 -86 113 -59 211 5 15
19 17 107 17 56 0 109 -5 117 -10z m223 -15 c24 -11 40 -33 64 -83 31 -65 73
-170 73 -184 0 -19 -193 -30 -210 -11 -4 4 -13 48 -19 96 -7 48 -16 99 -21
113 -14 35 -12 71 3 77 25 11 80 7 110 -8z"/>
<path d="M267 592 c-25 -28 -19 -82 8 -82 7 0 15 -4 17 -10 2 -5 14 -11 28
-12 22 -3 24 1 28 44 5 71 -41 104 -81 60z"/>
<path d="M570 541 c0 -28 7 -45 26 -64 23 -23 28 -25 41 -11 18 18 12 50 -18
87 -30 39 -49 35 -49 -12z"/>
</g>
</svg>
