<svg version="1.0" xmlns="http://www.w3.org/2000/svg"
 width="53.000000pt" height="111.000000pt" viewBox="0 0 53.000000 111.000000"
 preserveAspectRatio="xMidYMid meet">
<metadata>
Created by potrace 1.15, written by Peter Selinger 2001-2017
</metadata>
<g transform="translate(0.000000,111.000000) scale(0.100000,-0.100000)"
fill="#000000" stroke="none">
<path d="M84 943 c-5 -35 -3 -54 11 -80 10 -18 22 -33 27 -33 4 0 8 -10 8 -21
0 -36 23 -100 34 -96 5 2 17 17 26 33 19 33 34 164 20 164 -6 0 -10 -10 -10
-22 0 -43 -11 -69 -25 -58 -7 6 -10 29 -7 65 3 37 1 55 -7 55 -6 0 -11 -17
-11 -41 0 -33 -3 -40 -17 -37 -14 2 -19 15 -21 61 -4 69 -18 75 -28 10z"/>
<path d="M240 895 c0 -44 -5 -100 -11 -125 -25 -112 -24 -138 9 -203 51 -105
72 -150 72 -160 0 -12 26 -37 40 -37 17 0 28 -42 18 -69 -11 -31 -3 -53 18
-49 19 3 47 -75 38 -104 -4 -13 0 -18 15 -18 24 0 25 7 9 105 -6 39 -11 99
-12 135 -1 45 -7 71 -19 85 -9 11 -23 29 -32 40 -12 17 -16 18 -24 5 -7 -11
-3 -27 15 -58 31 -53 25 -63 -16 -28 -17 14 -36 26 -41 26 -5 0 -9 8 -9 19 0
10 -13 56 -30 102 -33 92 -37 151 -14 189 12 21 14 22 13 5 -4 -40 13 -93 42
-126 37 -44 48 -32 51 54 3 56 6 68 25 78 12 7 28 32 37 60 17 50 21 109 9
109 -13 0 -33 -52 -33 -86 0 -17 -6 -37 -14 -43 -12 -11 -15 -6 -18 31 -4 61
-22 49 -26 -17 -2 -41 -8 -57 -22 -65 -15 -8 -19 -6 -22 13 -2 14 -9 21 -21
21 -19 -2 -23 16 -5 34 7 7 8 15 1 24 -5 7 -10 28 -11 47 -2 18 -9 45 -17 60
-13 24 -14 21 -15 -54z"/>
<path d="M210 512 c-59 -65 -71 -103 -46 -137 9 -13 11 -26 6 -36 -19 -35 -40
-106 -40 -137 0 -41 13 -35 29 15 7 21 19 47 27 57 13 19 14 19 33 -3 20 -23
41 -21 41 3 0 8 -6 19 -14 25 -25 21 -25 50 0 86 33 50 30 60 -11 35 -35 -22
-35 -22 -35 2 0 13 11 40 25 60 14 20 25 39 25 42 0 12 -26 4 -40 -12z"/>
</g>
</svg>
