<svg version="1.0" xmlns="http://www.w3.org/2000/svg"
 width="53.000000pt" height="109.000000pt" viewBox="0 0 53.000000 109.000000"
 preserveAspectRatio="xMidYMid meet">
<metadata>
Created by potrace 1.15, written by Peter Selinger 2001-2017
</metadata>
<g transform="translate(0.000000,109.000000) scale(0.100000,-0.100000)"
fill="#000000" stroke="none">
<path d="M251 904 c-21 -24 -28 -26 -72 -21 -48 6 -49 6 -49 -21 0 -51 23
-192 32 -192 4 0 8 8 8 18 0 25 49 49 62 30 32 -48 32 -44 2 -195 -8 -40 -14
-80 -14 -89 0 -28 25 1 40 46 13 39 14 40 32 23 16 -14 18 -26 13 -63 -11 -80
-17 -370 -7 -370 5 0 15 60 21 133 7 72 15 143 18 157 3 14 7 49 10 79 5 49 3
55 -28 87 -31 32 -32 34 -26 100 8 79 35 152 60 160 9 3 17 9 17 14 0 5 8 11
19 15 24 7 61 39 61 53 0 13 -35 22 -90 22 -34 0 -48 5 -58 20 -16 26 -24 25
-51 -6z m29 -75 c14 -25 9 -61 -7 -67 -16 -5 -35 44 -28 69 8 25 22 24 35 -2z
m82 1 c-19 -18 -42 -27 -42 -16 0 2 -3 11 -6 20 -5 13 1 16 32 16 38 0 38 0
16 -20z m-152 -30 c0 -33 -3 -40 -20 -40 -17 0 -20 7 -20 40 0 33 3 40 20 40
17 0 20 -7 20 -40z"/>
</g>
</svg>
