<svg version="1.0" xmlns="http://www.w3.org/2000/svg"
 width="63.000000pt" height="129.000000pt" viewBox="0 0 63.000000 129.000000"
 preserveAspectRatio="xMidYMid meet">
<metadata>
Created by potrace 1.15, written by Peter Selinger 2001-2017
</metadata>
<g transform="translate(0.000000,129.000000) scale(0.100000,-0.100000)"
fill="#000000" stroke="none">
<path d="M212 1123 c-101 -99 -146 -210 -141 -347 4 -86 4 -87 44 -126 22 -21
45 -39 50 -40 6 0 22 -16 38 -34 23 -30 27 -44 27 -102 0 -37 -5 -82 -12 -100
-16 -45 4 -84 42 -84 40 0 48 16 56 113 4 58 11 87 19 87 22 0 102 -95 128
-152 24 -53 45 -165 45 -240 0 -66 52 -92 71 -37 13 39 14 141 2 183 -5 17
-14 49 -21 71 -27 95 -105 201 -182 250 -26 16 -39 55 -19 55 13 0 87 72 100
97 26 51 -7 302 -45 340 -7 7 -16 21 -19 31 -8 22 -73 77 -101 86 -18 5 -34
-5 -82 -51z m94 -56 c32 -38 49 -76 37 -88 -5 -5 -40 -9 -77 -7 -66 3 -66 3
-49 35 22 39 56 83 64 83 3 0 14 -10 25 -23z m68 -173 c18 -48 12 -51 -105
-59 -61 -4 -113 -5 -115 -2 -3 2 0 16 5 31 9 22 17 26 53 28 112 4 129 5 135
11 11 11 21 8 27 -9z m-4 -143 c0 -10 -18 -35 -41 -56 -36 -33 -45 -36 -78
-30 -38 6 -82 33 -89 53 -4 14 38 32 78 32 16 0 32 5 35 10 3 6 26 10 51 10
36 0 44 -3 44 -19z"/>
</g>
</svg>
