<svg version="1.0" xmlns="http://www.w3.org/2000/svg"
 width="72.000000pt" height="86.000000pt" viewBox="0 0 72.000000 86.000000"
 preserveAspectRatio="xMidYMid meet">
<metadata>
Created by potrace 1.15, written by Peter Selinger 2001-2017
</metadata>
<g transform="translate(0.000000,86.000000) scale(0.100000,-0.100000)"
fill="#000000" stroke="none">
<path d="M476 685 c-3 -9 -6 -42 -6 -73 0 -57 0 -57 -65 -112 -60 -50 -80 -80
-55 -80 20 0 71 31 109 66 38 34 38 34 63 15 31 -25 135 -71 159 -71 39 0 17
29 -46 60 -76 38 -115 79 -116 123 -2 66 -28 110 -43 72z"/>
<path d="M167 683 c-4 -3 -7 -19 -7 -35 0 -21 7 -32 25 -40 22 -10 29 -9 47
10 19 18 20 25 10 47 -8 18 -19 25 -40 25 -16 0 -32 -3 -35 -7z"/>
<path d="M563 624 c-10 -26 11 -49 43 -49 34 0 43 24 19 49 -21 21 -54 21 -62
0z"/>
<path d="M66 604 c-6 -15 50 -93 66 -94 4 0 14 -13 23 -30 9 -16 23 -30 33
-30 17 1 122 129 122 149 0 13 -26 15 -34 3 -3 -5 -23 -21 -46 -37 -40 -28
-40 -28 -85 14 -47 44 -69 51 -79 25z"/>
<path d="M354 606 c-12 -31 0 -51 31 -51 21 0 31 5 33 19 7 34 -52 63 -64 32z"/>
<path d="M273 450 c-16 -17 -35 -49 -43 -72 -8 -23 -20 -43 -27 -45 -6 -2 -22
17 -34 42 -22 45 -64 85 -88 85 -19 0 -12 -33 13 -59 29 -31 45 -81 26 -81 -7
0 -28 11 -47 26 -30 23 -53 25 -53 5 0 -4 21 -29 46 -57 51 -54 94 -137 103
-199 5 -30 11 -40 24 -40 19 0 30 22 63 129 9 27 30 67 47 88 30 37 30 38 41
15 14 -27 48 -33 70 -12 19 20 6 54 -25 62 -17 5 -17 7 -4 26 17 24 20 57 6
57 -29 0 -63 -24 -86 -60 -14 -22 -30 -40 -35 -40 -22 0 -8 46 30 96 22 29 40
56 40 59 0 17 -44 0 -67 -25z m-46 -202 c-17 -42 -33 -45 -51 -10 -18 35 -13
42 31 42 33 0 33 0 20 -32z"/>
<path d="M471 451 c-6 -11 -11 -64 -11 -117 0 -124 -17 -163 -100 -228 -56
-43 -76 -76 -47 -76 16 0 137 79 137 90 0 4 11 15 25 24 24 16 27 15 80 -24
30 -22 63 -40 74 -40 22 0 41 22 23 28 -6 2 -33 21 -60 42 -57 46 -87 110 -79
168 7 51 -6 145 -20 149 -6 2 -16 -5 -22 -16z"/>
<path d="M569 328 c-10 -18 -8 -24 11 -40 17 -13 26 -15 41 -8 25 14 24 46 0
60 -29 15 -39 13 -52 -12z"/>
</g>
</svg>
