<svg version="1.0" xmlns="http://www.w3.org/2000/svg"
 width="71.000000pt" height="125.000000pt" viewBox="0 0 71.000000 125.000000"
 preserveAspectRatio="xMidYMid meet">
<metadata>
Created by potrace 1.15, written by Peter Selinger 2001-2017
</metadata>
<g transform="translate(0.000000,125.000000) scale(0.100000,-0.100000)"
fill="#000000" stroke="none">
<path d="M468 1028 c-3 -143 -3 -143 -29 -146 -29 -3 -39 15 -39 75 0 31 -21
63 -42 63 -7 0 -8 -14 -3 -42 10 -52 10 -165 0 -275 -7 -79 -7 -82 13 -76 15
3 23 17 28 46 4 23 9 45 10 50 1 4 2 32 3 63 1 51 3 55 24 52 21 -3 22 -6 19
-102 -2 -84 -7 -107 -31 -160 -47 -101 -65 -172 -76 -296 -2 -30 -7 -84 -11
-120 -6 -62 5 -120 23 -120 30 1 36 21 34 110 -4 184 35 370 94 444 14 18 16
18 50 -19 19 -22 35 -45 35 -53 0 -26 -23 -92 -32 -92 -4 0 -8 -9 -8 -20 0
-11 -3 -20 -8 -20 -12 0 -32 -77 -32 -126 0 -54 31 -104 108 -177 54 -50 59
-52 82 -37 12 7 1 23 -55 79 -58 57 -72 77 -81 117 -14 68 2 137 50 208 12 18
19 45 18 72 0 39 -5 48 -56 96 -55 53 -55 53 -53 123 3 75 10 95 32 95 21 0
29 -19 36 -86 7 -71 36 -138 62 -142 13 -3 17 3 17 25 0 16 -4 33 -8 39 -31
35 -47 244 -23 302 11 26 11 35 1 47 -20 24 -29 18 -36 -22 -14 -81 -36 -133
-55 -133 -18 0 -19 10 -19 150 0 143 -1 150 -20 150 -18 0 -20 -8 -22 -142z"/>
<path d="M100 1084 c0 -30 4 -63 9 -72 6 -13 -5 -39 -45 -101 -59 -93 -58 -87
-55 -271 2 -86 6 -111 24 -145 12 -22 24 -42 27 -45 17 -17 29 -55 30 -97 5
-155 32 -260 84 -320 44 -52 78 -7 36 47 -11 14 -20 31 -20 38 0 6 -4 12 -9
12 -5 0 -12 14 -16 30 -5 25 -2 36 18 56 36 36 56 82 63 150 3 32 14 70 22 84
28 43 40 89 47 183 10 131 -5 199 -66 307 -19 35 -20 86 -3 162 5 21 2 29 -10
34 -9 4 -19 5 -21 3 -2 -2 -8 -44 -13 -94 -10 -88 -10 -90 17 -130 15 -22 33
-55 40 -72 17 -41 19 -252 3 -279 -10 -17 -11 -16 -12 11 -4 112 -11 222 -15
233 -3 8 -11 12 -17 10 -10 -4 -13 -58 -14 -219 -1 -223 -5 -261 -32 -319 -15
-34 -16 -35 -22 -10 -3 14 -5 141 -3 283 3 218 1 257 -11 257 -17 0 -28 -30
-25 -68 3 -29 -8 -158 -18 -205 -5 -29 -5 -29 -26 5 -17 28 -20 50 -21 149 -1
109 9 158 35 179 4 3 18 23 33 44 22 33 26 49 26 113 0 73 -11 113 -30 113 -6
0 -10 -25 -10 -56z"/>
</g>
</svg>
