<svg version="1.0" xmlns="http://www.w3.org/2000/svg"
 width="97.000000pt" height="177.000000pt" viewBox="0 0 97.000000 177.000000"
 preserveAspectRatio="xMidYMid meet">
<metadata>
Created by potrace 1.15, written by Peter Selinger 2001-2017
</metadata>
<g transform="translate(0.000000,177.000000) scale(0.100000,-0.100000)"
fill="#000000" stroke="none">
<path d="M353 1573 c-6 -18 -48 -72 -83 -108 -11 -12 -20 -24 -20 -28 0 -15
73 -7 89 11 32 34 100 57 101 35 0 -5 18 -28 40 -51 22 -24 40 -47 40 -51 0
-5 9 -18 20 -31 22 -25 25 -47 10 -70 -6 -11 -33 -15 -100 -17 -99 -3 -139
-16 -121 -37 12 -14 126 -36 184 -36 30 0 35 -4 39 -28 7 -48 1 -52 -72 -52
-83 0 -172 -18 -167 -33 6 -20 85 -47 139 -47 20 0 50 -3 67 -6 31 -6 31 -6
31 -100 0 -100 12 -125 39 -84 21 31 41 97 41 138 0 36 -4 35 108 33 83 -2
112 7 112 34 0 20 -48 35 -135 43 -80 7 -80 7 -83 40 -6 57 32 73 119 53 37
-8 99 8 99 27 0 13 -65 38 -132 52 -52 10 -58 14 -58 36 0 14 5 35 11 47 14
27 100 107 115 107 7 0 19 -12 29 -26 35 -54 59 -74 87 -74 38 0 45 32 18 92
-11 25 -24 48 -28 50 -4 2 -17 21 -29 43 -29 57 -63 52 -144 -23 -33 -31 -68
-60 -78 -64 -30 -12 -65 5 -111 52 -25 25 -59 56 -77 68 -38 27 -91 29 -100 5z"/>
<path d="M333 855 c-24 -25 -43 -47 -43 -51 0 -3 -11 -15 -24 -25 -27 -21 -96
-155 -96 -187 0 -24 31 -53 37 -34 3 8 26 12 69 12 64 0 64 0 58 -27 -14 -59
-33 -82 -72 -88 -83 -14 -140 -65 -140 -125 0 -14 -8 -45 -17 -70 -25 -69 -28
-85 -13 -97 24 -20 55 -24 69 -10 27 26 142 47 154 27 9 -15 35 7 35 31 0 10
5 21 10 24 6 3 10 16 11 28 0 24 37 56 87 76 31 13 34 12 73 -25 122 -115 112
-99 107 -178 -3 -40 -2 -81 2 -91 6 -18 9 -16 28 14 11 19 24 52 27 73 7 42 8
42 33 29 9 -5 25 -12 35 -15 11 -3 21 -15 24 -27 6 -20 6 -20 26 2 33 35 41
171 12 216 -9 13 -38 39 -64 58 -46 33 -71 78 -50 90 23 15 124 -22 154 -55
16 -18 17 -18 41 3 44 38 26 144 -48 289 -30 59 -87 128 -107 128 -5 0 -12
-12 -16 -27 -7 -28 -105 -133 -124 -133 -5 0 -13 9 -16 20 -4 14 -15 20 -36
20 -18 0 -29 5 -29 13 0 8 -9 22 -20 32 -11 10 -20 23 -20 29 0 10 -14 29 -60
84 -20 23 -55 11 -97 -33z m92 -83 c5 -12 13 -22 17 -22 5 0 8 -5 8 -12 0 -6
8 -20 18 -31 16 -18 16 -20 -18 -48 -37 -32 -89 -38 -135 -17 -42 19 -29 59
39 120 45 41 56 42 71 10z m376 -93 c11 -23 27 -64 34 -91 12 -48 12 -48 -24
-43 -20 3 -60 13 -88 21 -63 19 -69 41 -23 84 17 15 30 32 30 37 0 8 28 27 47
32 2 1 12 -18 24 -40z m-212 -91 c26 -41 48 -124 50 -181 0 -31 -3 -57 -7 -57
-11 0 -102 98 -102 109 0 5 -9 13 -20 16 -15 5 -34 -4 -68 -32 -26 -20 -48
-41 -50 -45 -10 -23 -20 -3 -16 30 8 65 45 121 100 152 60 35 95 37 113 8z
m-289 -233 c14 -17 4 -55 -15 -55 -7 0 -20 -6 -27 -13 -16 -17 -68 -28 -68
-15 0 15 21 51 43 76 24 25 49 28 67 7z m458 -62 c16 -42 24 -85 15 -81 -63
30 -63 30 -63 80 0 44 2 48 19 39 10 -6 23 -23 29 -38z"/>
</g>
</svg>
