<svg version="1.0" xmlns="http://www.w3.org/2000/svg"
 width="55.000000pt" height="97.000000pt" viewBox="0 0 55.000000 97.000000"
 preserveAspectRatio="xMidYMid meet">
<metadata>
Created by potrace 1.15, written by Peter Selinger 2001-2017
</metadata>
<g transform="translate(0.000000,97.000000) scale(0.100000,-0.100000)"
fill="#000000" stroke="none">
<path d="M41 897 c-8 -11 -6 -18 9 -32 16 -14 37 -17 134 -16 164 2 209 -20
209 -104 0 -55 -18 -79 -52 -70 -14 3 -66 8 -116 11 -50 3 -96 10 -102 16 -10
8 -13 3 -13 -21 0 -17 3 -31 8 -31 4 -1 41 -2 82 -4 83 -4 135 -13 165 -29 43
-22 76 -80 57 -99 -12 -12 -231 -11 -246 1 -6 5 -27 11 -46 13 -27 2 -35 -1
-38 -15 -8 -41 12 -46 176 -46 115 0 159 -4 169 -14 9 -8 15 -58 20 -150 4
-99 10 -137 18 -137 21 0 25 40 15 170 -15 188 -21 232 -41 265 -21 33 -24 76
-10 104 13 24 -9 107 -35 134 -45 47 -333 89 -363 54z"/>
<path d="M106 321 c-4 -5 1 -59 11 -120 14 -92 21 -117 44 -143 23 -29 33 -33
72 -32 25 0 57 8 71 17 24 16 25 22 28 132 3 131 3 135 -22 135 -11 0 -19 -10
-23 -28 -8 -40 -43 -61 -84 -50 -25 7 -33 14 -33 32 0 12 -10 32 -23 44 -26
24 -33 26 -41 13z m176 -143 c9 -78 -8 -118 -49 -118 -36 0 -63 34 -63 78 0
21 3 42 7 45 12 13 103 8 105 -5z"/>
</g>
</svg>
