<svg version="1.0" xmlns="http://www.w3.org/2000/svg"
 width="57.000000pt" height="95.000000pt" viewBox="0 0 57.000000 95.000000"
 preserveAspectRatio="xMidYMid meet">
<metadata>
Created by potrace 1.15, written by Peter Selinger 2001-2017
</metadata>
<g transform="translate(0.000000,95.000000) scale(0.100000,-0.100000)"
fill="#000000" stroke="none">
<path d="M288 892 c-21 -2 -38 -7 -38 -13 0 -5 -11 -9 -24 -9 -14 0 -37 -5
-52 -10 -21 -8 -29 -8 -36 2 -6 10 -8 9 -8 -4 0 -9 -9 -20 -20 -23 -12 -4 -20
-15 -20 -29 0 -12 -4 -26 -9 -32 -5 -5 -15 -37 -22 -71 -11 -51 -10 -69 1
-105 8 -24 18 -46 23 -49 6 -4 6 -23 1 -45 -4 -22 -7 -46 -6 -54 8 -44 11 -92
18 -263 6 -148 10 -187 21 -187 26 0 33 53 33 266 0 182 2 216 15 220 8 4 21
2 28 -3 29 -23 109 -36 216 -35 92 0 116 3 130 17 15 15 15 17 -4 28 -11 6
-40 12 -65 13 -72 3 -139 14 -178 28 -21 8 -45 17 -55 20 -15 5 -16 9 -7 27
19 35 72 50 177 48 71 -1 98 2 104 12 11 17 11 21 1 37 -12 18 -227 21 -244 4
-7 -7 -24 -12 -39 -12 -15 0 -31 -4 -34 -10 -9 -14 -42 -12 -48 3 -8 21 4 68
19 74 8 3 14 9 14 14 0 21 41 52 120 89 8 4 53 8 100 9 46 1 87 4 89 7 3 3 0
13 -5 22 -9 13 -26 17 -85 17 -41 0 -91 -1 -111 -3z"/>
<path d="M250 269 c0 -93 14 -155 47 -216 22 -39 28 -43 61 -43 21 0 47 3 59
6 29 8 73 76 73 113 0 16 5 33 10 36 6 3 10 17 10 31 0 13 5 24 10 24 15 0 12
43 -6 68 -15 22 -74 32 -74 12 0 -6 -26 -10 -58 -10 -50 0 -62 4 -90 30 -18
17 -35 30 -38 30 -2 0 -4 -36 -4 -81z m160 -60 c0 -11 4 -18 8 -15 15 9 12
-54 -3 -84 -17 -33 -23 -35 -57 -19 -29 12 -57 107 -36 120 7 4 16 5 20 3 4
-3 8 0 8 5 0 6 14 11 30 11 24 0 30 -4 30 -21z"/>
</g>
</svg>
