<svg version="1.0" xmlns="http://www.w3.org/2000/svg"
 width="63.000000pt" height="96.000000pt" viewBox="0 0 63.000000 96.000000"
 preserveAspectRatio="xMidYMid meet">
<metadata>
Created by potrace 1.15, written by Peter Selinger 2001-2017
</metadata>
<g transform="translate(0.000000,96.000000) scale(0.100000,-0.100000)"
fill="#000000" stroke="none">
<path d="M275 708 c-6 -67 -5 -74 15 -90 17 -13 40 -18 90 -18 38 0 80 -4 94
-10 54 -20 15 -108 -42 -95 -15 3 -59 6 -97 7 -55 2 -79 -3 -112 -20 -53 -28
-110 -77 -128 -111 -7 -14 -25 -38 -39 -53 -30 -31 -32 -38 -11 -38 8 0 39 32
70 70 38 48 70 77 98 89 63 28 76 32 102 25 17 -4 21 -11 17 -26 -4 -17 -10
-19 -48 -13 -58 8 -57 -9 1 -37 25 -12 45 -25 45 -28 0 -3 -10 -10 -22 -15
-13 -6 -32 -24 -43 -42 -11 -18 -24 -31 -29 -30 -4 2 -14 20 -21 41 -22 65
-38 69 -30 9 7 -52 7 -52 -39 -58 -55 -9 -60 -23 -9 -27 20 -2 38 -8 40 -15 2
-6 -12 -29 -31 -51 -34 -38 -39 -56 -10 -45 7 3 29 29 49 59 20 30 40 54 44
54 4 0 13 -11 19 -25 7 -15 24 -28 44 -33 18 -4 32 -12 31 -17 -1 -4 -25 -20
-54 -34 -52 -25 -80 -53 -67 -66 4 -4 24 5 45 19 58 40 73 35 73 -20 0 -57 23
-56 30 2 3 21 10 39 15 39 6 0 29 -10 52 -23 43 -23 66 -16 35 10 -9 8 -36 26
-59 38 -24 13 -43 27 -43 31 0 4 16 13 35 19 24 8 37 19 41 36 8 31 19 30 36
-3 26 -52 43 -73 56 -73 10 0 6 13 -12 44 -14 25 -26 47 -26 50 0 2 17 6 38 8
44 4 49 21 7 28 -29 5 -30 7 -27 53 5 72 -14 60 -42 -25 -8 -27 -22 -22 -45
17 -11 19 -27 35 -36 35 -23 0 -18 13 15 35 16 11 35 30 41 42 7 14 22 23 35
23 15 0 33 13 50 36 25 32 26 39 18 82 -12 61 -36 74 -124 67 -70 -6 -104 5
-83 26 8 8 49 12 113 12 70 1 100 4 100 13 0 28 -29 35 -127 32 -98 -3 -98 -3
-101 30 -2 18 -9 32 -16 32 -9 0 -16 -23 -21 -72z m135 -256 c0 -12 -23 -32
-37 -32 -7 0 -13 9 -13 20 0 15 7 20 25 20 14 0 25 -4 25 -8z m-82 -149 c-3
-19 -48 -32 -48 -14 0 10 28 30 43 31 5 0 7 -8 5 -17z m72 -13 c0 -6 -9 -10
-20 -10 -13 0 -20 7 -20 20 0 18 3 19 20 10 11 -6 20 -15 20 -20z m-5 -60 c0
-8 -8 -16 -17 -18 -13 -2 -18 3 -18 18 0 15 5 20 18 18 9 -2 17 -10 17 -18z
m-71 -6 c4 -9 4 -19 2 -21 -9 -10 -46 9 -46 23 0 19 36 18 44 -2z"/>
<path d="M180 563 c-31 -6 -52 -22 -44 -35 6 -9 179 -3 254 8 35 6 35 6 10 20
-24 13 -162 17 -220 7z"/>
</g>
</svg>
