<svg version="1.0" xmlns="http://www.w3.org/2000/svg"
 width="67.000000pt" height="157.000000pt" viewBox="0 0 67.000000 157.000000"
 preserveAspectRatio="xMidYMid meet">
<metadata>
Created by potrace 1.15, written by Peter Selinger 2001-2017
</metadata>
<g transform="translate(0.000000,157.000000) scale(0.100000,-0.100000)"
fill="#000000" stroke="none">
<path d="M562 1359 c6 -16 -55 -162 -70 -167 -5 -1 -15 11 -22 27 -13 32 -43
71 -54 71 -9 0 -7 -48 3 -68 21 -39 41 -91 41 -105 0 -8 -9 -25 -19 -38 -19
-23 -20 -23 -27 -4 -6 16 -75 126 -91 145 -8 9 -21 -24 -28 -69 -4 -25 -11
-52 -17 -58 -12 -15 -2 -47 12 -38 5 3 17 21 26 40 9 19 19 35 23 35 3 0 12
-14 20 -31 12 -28 11 -35 -9 -75 -27 -51 -22 -66 11 -35 20 19 24 19 32 6 15
-27 -17 -125 -41 -125 -4 0 -15 14 -24 30 -31 55 -51 24 -29 -46 5 -16 12 -41
15 -56 7 -30 36 -39 36 -11 0 9 6 24 14 32 28 31 66 120 66 154 0 21 8 44 20
58 21 24 21 24 16 -41 -3 -36 -8 -78 -11 -95 -7 -30 -7 -30 14 -5 27 33 42
102 39 176 -2 49 2 66 20 91 12 17 22 38 22 47 0 8 9 32 21 52 22 41 23 105 0
112 -9 3 -12 0 -9 -9z"/>
<path d="M190 1227 c0 -9 -3 -17 -7 -19 -7 -3 -37 -46 -76 -110 -19 -30 -23
-93 -7 -103 6 -3 10 -13 10 -22 0 -20 90 -173 101 -173 5 0 16 11 24 24 16 24
16 81 0 119 -11 25 -25 21 -25 -7 0 -14 -4 -27 -9 -30 -9 -6 -46 62 -56 104
-6 24 -5 24 24 -7 27 -29 61 -44 61 -27 0 4 -18 33 -40 66 -34 52 -38 62 -28
83 16 37 48 33 48 -5 0 -16 4 -30 9 -30 14 0 19 41 12 95 -4 36 -11 51 -23 53
-11 2 -18 -3 -18 -11z"/>
<path d="M295 730 c-3 -6 -4 -19 0 -29 3 -12 -13 -54 -44 -115 -28 -53 -47
-104 -44 -112 7 -19 -27 -84 -44 -84 -14 0 -8 53 13 115 19 55 18 105 -1 105
-8 0 -17 -12 -21 -27 -3 -16 -10 -37 -15 -48 -29 -64 -36 -160 -15 -201 12
-21 14 -50 9 -124 -3 -57 -2 -99 4 -103 20 -13 36 13 41 67 5 58 9 65 30 44
19 -19 27 0 14 32 -7 17 -17 43 -24 59 -10 24 -9 35 2 55 7 15 16 26 20 26 4
0 15 -18 25 -40 10 -23 29 -53 42 -68 23 -26 24 -27 39 -7 20 27 35 84 28 112
-9 32 -24 29 -24 -6 0 -16 -6 -34 -13 -40 -11 -8 -16 -5 -25 15 -17 37 -16 44
24 103 37 54 37 54 31 142 -9 115 -29 166 -52 129z m30 -175 c5 -24 0 -38 -25
-67 -17 -21 -36 -38 -41 -38 -17 0 -9 51 17 102 27 53 39 54 49 3z"/>
<path d="M396 669 c-2 -8 -7 -39 -9 -69 -3 -30 -7 -61 -9 -69 -7 -31 21 -19
32 14 9 27 15 33 24 26 23 -20 67 -111 64 -134 -3 -22 -3 -22 -27 6 -21 23
-51 37 -51 23 0 -2 14 -32 31 -66 40 -81 28 -127 -16 -57 -27 42 -51 43 -47 2
2 -16 8 -31 13 -33 5 -2 9 -13 9 -23 0 -31 19 -59 39 -59 12 0 28 22 51 68 19
37 38 70 44 74 15 10 -11 109 -42 159 -15 24 -36 61 -47 82 -26 50 -53 75 -59
56z"/>
</g>
</svg>
