<svg version="1.0" xmlns="http://www.w3.org/2000/svg"
 width="72.000000pt" height="86.000000pt" viewBox="0 0 72.000000 86.000000"
 preserveAspectRatio="xMidYMid meet">
<metadata>
Created by potrace 1.15, written by Peter Selinger 2001-2017
</metadata>
<g transform="translate(0.000000,86.000000) scale(0.100000,-0.100000)"
fill="#000000" stroke="none">
<path d="M201 637 c-5 -13 -32 -39 -60 -58 -28 -19 -51 -40 -51 -46 0 -17 4
-16 50 7 22 11 44 20 50 20 6 0 10 -28 10 -71 0 -79 -10 -86 -45 -31 -25 40
-40 40 -54 2 -6 -17 -19 -43 -31 -57 -11 -14 -20 -30 -20 -34 0 -18 35 -8 61
17 26 25 31 26 59 14 25 -10 30 -18 30 -45 0 -29 -4 -35 -35 -45 -19 -6 -35
-15 -35 -18 -1 -4 -5 -27 -11 -52 -9 -41 -15 -71 -35 -169 -5 -26 -4 -33 7
-29 20 7 36 44 49 118 13 74 36 123 53 117 8 -2 13 -44 15 -131 2 -95 6 -126
15 -123 8 2 13 42 15 130 1 74 7 127 12 127 21 0 50 -41 50 -70 0 -70 33 -170
56 -170 12 0 15 6 9 23 -19 62 -25 97 -25 146 0 47 -4 57 -34 87 -19 19 -41
34 -50 34 -9 0 -16 8 -16 20 0 11 6 20 13 20 8 0 22 9 32 20 23 26 46 25 79
-1 35 -27 45 -17 19 19 -11 15 -28 42 -38 61 -17 35 -17 35 -32 5 -9 -16 -27
-42 -42 -57 -26 -28 -26 -28 -32 55 -3 46 -5 84 -4 86 1 1 31 -4 66 -13 76
-17 79 -18 79 -6 0 5 -17 18 -37 29 -80 41 -102 57 -107 74 -6 25 -25 22 -35
-5z"/>
<path d="M594 569 c-29 -46 -54 -112 -54 -141 0 -29 -30 -35 -52 -9 -13 17
-18 40 -18 85 -1 66 -21 109 -41 89 -9 -9 -8 -33 1 -95 14 -85 29 -114 67
-129 22 -8 22 -8 -6 -70 -15 -34 -45 -79 -65 -99 -41 -41 -44 -50 -17 -50 23
0 74 61 117 139 23 43 35 55 50 53 28 -6 29 -8 28 -80 -1 -71 -18 -122 -61
-185 -14 -20 -23 -40 -20 -43 10 -10 37 4 44 23 3 10 14 29 23 43 26 40 51
115 57 174 6 57 4 61 -62 115 -17 14 -15 62 5 100 5 9 14 31 21 50 7 18 22 42
33 52 20 19 20 19 -2 19 -15 0 -30 -14 -48 -41z"/>
</g>
</svg>
