<svg version="1.0" xmlns="http://www.w3.org/2000/svg"
 width="129.000000pt" height="161.000000pt" viewBox="0 0 129.000000 161.000000"
 preserveAspectRatio="xMidYMid meet">
<metadata>
Created by potrace 1.15, written by Peter Selinger 2001-2017
</metadata>
<g transform="translate(0.000000,161.000000) scale(0.100000,-0.100000)"
fill="#000000" stroke="none">
<path d="M305 1412 c-66 -1 -123 -6 -128 -11 -5 -5 2 -18 15 -30 18 -17 30
-21 55 -16 46 8 73 -9 73 -46 0 -19 -6 -32 -17 -35 -77 -25 -153 -105 -153
-161 0 -13 -4 -23 -10 -23 -17 0 -12 -16 26 -80 46 -79 75 -107 127 -121 54
-16 53 -15 61 -71 7 -48 7 -48 -51 -48 -32 -1 -71 -7 -87 -13 -30 -13 -30 -13
6 -30 20 -9 58 -17 86 -17 49 0 50 -1 56 -35 9 -46 3 -54 -45 -61 -44 -7 -97
-52 -117 -97 -13 -29 -16 -124 -6 -151 3 -9 11 -16 16 -16 6 0 18 -8 27 -18
25 -28 89 -62 117 -62 21 0 24 -5 24 -34 0 -18 3 -53 6 -78 6 -45 6 -45 -42
-51 -93 -13 -103 -20 -58 -43 19 -10 68 -14 175 -14 140 0 149 1 149 19 0 24
-46 41 -111 41 -49 0 -49 0 -49 79 0 79 0 79 33 91 40 16 93 65 112 104 8 16
15 52 15 79 0 79 -52 135 -143 152 -45 9 -50 15 -41 59 6 35 7 35 62 38 33 2
57 8 60 16 4 14 -55 42 -92 42 -25 0 -36 21 -36 73 0 22 4 27 24 27 14 0 28 5
31 10 3 6 15 10 26 10 11 0 41 19 66 43 56 53 66 106 37 188 -23 63 -61 96
-148 129 -64 24 -66 25 -66 60 0 32 3 36 40 48 22 6 49 12 60 12 18 0 30 30
13 30 -5 0 -24 4 -43 8 -19 4 -89 6 -155 4z m25 -268 c0 -57 0 -57 -45 -51
-26 2 -48 7 -51 10 -19 19 43 97 76 97 18 0 20 -7 20 -56z m139 40 c27 -10 45
-26 55 -49 9 -18 16 -36 16 -39 0 -3 -31 -6 -70 -6 -70 0 -70 0 -70 39 0 22
-3 46 -6 55 -8 21 23 21 75 0z m-129 -180 c13 -33 13 -74 0 -74 -25 0 -109 71
-110 93 0 4 23 7 50 7 45 0 52 -3 60 -26z m196 -6 c-8 -44 -39 -68 -87 -68
-39 0 -39 0 -39 50 0 50 0 50 66 50 67 0 67 0 60 -32z m-166 -488 c0 -50 0
-50 -50 -50 -52 0 -58 6 -38 43 19 37 37 49 81 56 4 0 7 -21 7 -49z m157 12
c36 -43 30 -52 -36 -52 -64 0 -71 6 -71 62 0 29 0 30 43 23 28 -4 49 -15 64
-33z m-157 -152 c0 -35 -3 -40 -22 -40 -31 0 -82 45 -75 65 5 10 20 15 52 15
45 0 45 0 45 -40z m160 18 c0 -20 -54 -58 -82 -58 -14 0 -18 9 -18 40 0 40 0
40 50 39 41 -2 50 -5 50 -21z"/>
<path d="M851 1170 c-24 -33 -45 -60 -47 -60 -2 0 -23 18 -45 40 -23 22 -45
40 -50 40 -18 0 -9 -37 16 -66 13 -15 27 -42 31 -58 5 -25 2 -34 -20 -51 -29
-23 -45 -78 -26 -90 7 -4 28 8 51 31 39 38 39 38 62 9 37 -47 56 -65 72 -65
24 0 17 38 -15 85 -16 24 -30 52 -30 63 0 17 32 68 52 83 17 11 28 72 17 86
-6 7 -14 13 -18 13 -3 0 -26 -27 -50 -60z"/>
<path d="M1054 1073 c3 -43 9 -128 12 -190 7 -111 7 -111 -50 -118 -31 -4 -56
-11 -56 -15 0 -14 61 -40 94 -40 36 0 97 -20 120 -39 9 -8 16 -28 16 -48 0
-40 10 -39 -110 -8 -54 14 -72 15 -110 5 -53 -14 -44 -22 55 -43 81 -17 125
-33 125 -45 0 -8 -72 -43 -147 -72 -18 -7 -30 -16 -27 -21 10 -17 104 -10 144
11 52 27 57 26 65 -12 11 -59 27 -89 44 -86 18 4 19 35 6 126 -5 31 -4 52 2
52 5 0 15 22 22 50 12 46 11 52 -10 90 -12 22 -29 40 -36 40 -8 0 -16 6 -19
14 -3 8 -18 18 -33 21 -26 6 -29 11 -35 67 -3 33 -6 69 -6 78 0 16 29 53 93
121 29 32 35 59 13 59 -12 0 -54 -28 -84 -57 -31 -30 -41 -5 -20 53 10 29 9
34 -15 58 -14 14 -34 26 -43 26 -15 0 -16 -9 -10 -77z"/>
<path d="M845 688 c-19 -23 -35 -45 -35 -50 0 -19 -32 -6 -67 27 -68 64 -84
40 -28 -42 19 -29 35 -55 35 -58 0 -4 -18 -24 -40 -45 -32 -31 -40 -46 -40
-74 0 -49 18 -46 69 9 23 25 43 45 45 45 3 0 22 -19 44 -41 22 -24 44 -39 51
-35 21 13 11 61 -20 99 -36 43 -33 58 15 89 31 20 36 28 36 64 0 59 -21 63
-65 12z"/>
</g>
</svg>
