<svg version="1.0" xmlns="http://www.w3.org/2000/svg"
 width="75.000000pt" height="110.000000pt" viewBox="0 0 75.000000 110.000000"
 preserveAspectRatio="xMidYMid meet">
<metadata>
Created by potrace 1.15, written by Peter Selinger 2001-2017
</metadata>
<g transform="translate(0.000000,110.000000) scale(0.100000,-0.100000)"
fill="#000000" stroke="none">
<path d="M182 1045 c-6 -8 -17 -27 -23 -42 -50 -126 -71 -175 -79 -183 -3 -3
-18 -31 -34 -62 -16 -31 -33 -55 -38 -52 -10 7 -10 -7 1 -24 5 -8 16 -12 26
-10 20 3 53 53 54 80 1 9 4 18 9 20 4 2 27 44 52 93 25 50 50 90 55 89 5 -1
34 -41 62 -90 75 -126 90 -144 118 -144 35 0 33 30 -7 88 -17 26 -34 49 -38
52 -3 3 -17 21 -30 40 -13 19 -27 37 -30 40 -9 9 -30 49 -30 60 0 11 -40 60
-49 60 -3 -1 -12 -7 -19 -15z"/>
<path d="M443 1023 c-10 -3 -13 -45 -13 -159 0 -171 8 -202 59 -228 24 -13 29
-22 34 -68 6 -62 -4 -78 -47 -78 -65 0 -106 -12 -106 -30 0 -24 20 -30 96 -30
44 0 64 -4 65 -12 1 -28 9 -160 15 -276 3 -67 10 -125 15 -128 5 -3 18 -2 29
1 18 6 20 13 16 83 -21 381 -26 345 50 341 68 -4 69 -4 72 23 3 24 0 27 -41
33 -24 4 -52 6 -63 5 -42 -5 -44 -2 -44 65 0 59 2 66 23 74 12 5 31 19 42 31
18 20 20 37 21 169 0 80 -4 152 -9 159 -5 6 -18 12 -28 12 -21 0 -23 -19 -19
-187 1 -81 -1 -94 -19 -112 -24 -24 -63 -27 -80 -7 -18 21 -34 129 -35 230 -1
86 -6 100 -33 89z"/>
<path d="M168 793 c-33 -5 -55 -30 -41 -44 5 -5 43 -9 84 -7 71 3 74 4 74 28
0 23 -4 25 -45 26 -25 1 -57 0 -72 -3z"/>
<path d="M233 663 c-31 -6 -40 -21 -48 -83 -4 -30 -9 -57 -11 -59 -2 -2 -20
-5 -41 -7 -84 -8 -103 -14 -103 -33 0 -26 21 -32 89 -25 32 4 61 3 63 -2 3 -5
9 -72 13 -149 4 -77 9 -143 11 -147 2 -3 1 -13 -2 -22 -5 -12 -20 -16 -66 -16
-69 0 -121 -22 -111 -46 5 -15 21 -16 122 -10 64 3 144 9 179 12 61 7 63 8 60
33 -3 27 -5 28 -79 15 -47 -8 -49 -2 -55 155 -3 70 -7 132 -9 139 -10 29 14
49 65 56 41 5 51 10 48 24 -2 13 -16 18 -56 20 -52 3 -52 3 -52 42 0 36 2 39
38 47 30 7 37 13 37 33 0 22 -5 25 -35 26 -19 1 -45 0 -57 -3z"/>
<path d="M284 415 c-3 -14 -3 -36 0 -49 3 -14 7 -58 7 -98 1 -40 7 -81 14 -90
11 -17 13 -17 29 1 15 16 17 35 13 129 -3 61 -8 115 -12 121 -12 21 -44 12
-51 -14z"/>
<path d="M96 402 c-3 -5 -5 -66 -4 -135 1 -126 1 -127 24 -127 14 0 25 8 29
20 6 20 -1 182 -11 228 -4 22 -28 30 -38 14z"/>
</g>
</svg>
