<svg version="1.0" xmlns="http://www.w3.org/2000/svg"
 width="79.000000pt" height="149.000000pt" viewBox="0 0 79.000000 149.000000"
 preserveAspectRatio="xMidYMid meet">
<metadata>
Created by potrace 1.15, written by Peter Selinger 2001-2017
</metadata>
<g transform="translate(0.000000,149.000000) scale(0.100000,-0.100000)"
fill="#000000" stroke="none">
<path d="M267 1372 c-20 -4 -21 -10 -4 -25 39 -36 72 -42 200 -39 70 1 127 6
127 10 -1 19 -19 31 -55 36 -22 2 -70 9 -108 16 -61 9 -116 10 -160 2z"/>
<path d="M207 1231 c-27 -11 -63 -31 -81 -45 -28 -21 -34 -34 -40 -78 -4 -29
-12 -80 -17 -113 -24 -146 -21 -205 11 -205 11 0 30 51 27 73 -2 21 57 47 110
47 35 0 70 27 55 42 -6 6 -36 7 -81 1 -76 -10 -81 -9 -81 18 0 23 75 59 123
59 25 0 40 5 44 16 11 29 -12 38 -77 27 -71 -11 -92 0 -62 35 62 73 71 79 133
87 79 9 91 -3 96 -101 3 -43 9 -95 14 -114 5 -19 9 -52 9 -72 0 -31 -4 -38
-20 -38 -25 0 -34 -34 -28 -102 9 -87 67 -110 127 -50 21 21 26 36 27 84 2 48
-1 60 -16 68 -15 8 -21 6 -29 -7 -13 -25 -23 50 -24 188 -1 134 5 144 91 136
72 -8 124 -35 133 -71 8 -31 7 -31 -75 -10 -22 5 -26 3 -26 -15 0 -12 6 -21
13 -21 8 0 22 -9 32 -20 10 -11 30 -20 45 -20 34 0 50 -17 50 -53 0 -24 -3
-28 -17 -21 -29 12 -103 17 -103 6 0 -15 22 -28 74 -43 50 -14 66 -35 66 -84
0 -26 -17 -35 -66 -35 -27 0 -37 5 -46 25 -6 14 -14 25 -18 25 -11 0 -21 -58
-15 -86 3 -13 7 -35 10 -49 13 -62 92 -86 135 -41 38 41 51 173 30 301 -20
119 -35 190 -42 201 -15 23 -131 56 -211 60 -45 3 -116 7 -157 9 -58 4 -86 0
-123 -14z m231 -446 c6 -6 -19 -45 -28 -45 -13 0 -28 32 -23 48 4 11 38 9 51
-3z m252 -44 c0 -9 -7 -24 -14 -34 -12 -16 -17 -16 -35 -5 -22 14 -36 42 -27
56 3 4 21 6 40 4 25 -3 36 -9 36 -21z"/>
<path d="M250 821 c0 -26 -31 -28 -55 -5 -26 26 -45 1 -45 -61 0 -43 5 -57 26
-79 44 -43 92 -26 94 34 0 14 7 33 14 43 18 23 6 81 -17 85 -12 2 -17 -3 -17
-17z m-22 -93 c-2 -13 -7 -23 -13 -23 -5 0 -11 10 -13 23 -2 15 2 22 13 22 11
0 15 -7 13 -22z"/>
<path d="M324 622 c-7 -4 -13 -16 -15 -27 -3 -16 -13 -21 -48 -23 -28 -2 -47
1 -52 10 -6 9 -11 10 -19 2 -12 -12 -2 -74 11 -74 5 0 9 -6 9 -13 0 -7 9 -23
20 -35 21 -23 26 -57 10 -67 -17 -11 -46 4 -60 30 -7 14 -17 25 -21 25 -28 0
-46 -282 -20 -314 21 -25 31 -19 31 19 0 32 2 35 30 35 30 0 30 0 29 -61 -2
-98 37 -111 43 -14 3 46 5 50 28 51 42 1 50 -6 50 -48 0 -48 18 -48 39 0 14
30 18 32 64 32 49 0 49 0 42 -46 -6 -43 4 -74 26 -74 10 0 23 37 25 75 1 17 3
33 3 38 1 4 19 7 41 7 33 0 40 -4 40 -19 0 -10 7 -22 16 -25 20 -8 17 -11 34
42 11 36 12 67 3 169 -7 69 -16 130 -22 136 -16 16 -31 -2 -31 -38 0 -34 -1
-34 -32 -28 -51 10 -61 35 -28 71 11 12 20 28 20 36 0 8 4 16 9 18 13 4 21 97
10 104 -5 3 -19 -2 -31 -10 -29 -21 -67 -20 -90 0 -20 19 -23 15 -32 -50 -4
-28 1 -49 17 -80 12 -22 25 -42 30 -44 4 -2 7 -15 7 -29 0 -19 -4 -24 -16 -19
-9 3 -29 6 -45 6 -28 0 -29 2 -29 48 0 60 -12 81 -34 63 -11 -9 -16 -30 -16
-62 0 -49 0 -49 -40 -49 -36 0 -40 2 -40 26 0 14 7 32 15 40 8 9 18 27 21 42
4 15 15 39 26 54 18 26 18 29 2 53 -9 14 -17 25 -18 25 0 0 -6 -4 -12 -8z
m246 -78 c0 -17 -23 -44 -38 -44 -22 0 -47 36 -29 43 17 7 67 8 67 1z m-277
-34 c-6 -23 -28 -27 -36 -6 -5 13 4 19 35 25 3 0 4 -8 1 -19z m75 -204 c2 -16
-1 -33 -7 -39 -6 -6 -11 -19 -11 -29 0 -20 -8 -22 -42 -9 -20 8 -23 15 -21 57
1 27 2 50 2 52 1 2 18 2 39 0 32 -3 37 -6 40 -32z m-122 0 c7 -28 -3 -66 -16
-66 -5 0 -21 11 -37 24 -27 24 -28 24 -9 45 26 28 54 27 62 -3z m254 -5 c0
-16 -3 -43 -6 -60 -6 -28 -10 -31 -45 -31 -39 0 -39 0 -39 60 0 60 0 60 45 60
43 0 45 -1 45 -29z m98 13 c40 -19 44 -64 10 -88 -45 -32 -58 -22 -58 44 0 33
4 60 8 60 5 0 23 -7 40 -16z"/>
</g>
</svg>
