<svg version="1.0" xmlns="http://www.w3.org/2000/svg"
 width="93.000000pt" height="131.000000pt" viewBox="0 0 93.000000 131.000000"
 preserveAspectRatio="xMidYMid meet">
<metadata>
Created by potrace 1.15, written by Peter Selinger 2001-2017
</metadata>
<g transform="translate(0.000000,131.000000) scale(0.100000,-0.100000)"
fill="#000000" stroke="none">
<path d="M415 1213 c-104 -4 -125 -9 -125 -32 0 -23 35 -31 129 -31 48 0 75 5
99 20 33 21 42 40 18 40 -8 0 -20 1 -28 3 -7 1 -49 1 -93 0z"/>
<path d="M382 1069 c-72 -9 -165 -70 -191 -124 -27 -58 -40 -133 -47 -280 -8
-159 -7 -166 5 -178 6 -6 15 2 25 21 12 23 16 60 16 142 0 60 3 110 8 110 9 0
32 94 32 130 0 19 14 36 53 66 63 49 118 77 129 66 11 -11 27 -187 33 -372 3
-84 7 -156 10 -158 2 -3 11 1 19 8 13 10 15 49 14 239 -1 206 1 230 18 259 20
35 26 36 101 19 54 -13 93 -38 111 -72 20 -39 28 -230 18 -470 -4 -119 -4
-119 22 -142 45 -38 49 -19 35 142 -4 50 -6 119 -3 155 5 71 -4 266 -15 317
-11 49 -55 89 -121 108 -64 18 -189 25 -272 14z"/>
<path d="M566 902 c-15 -24 33 -132 58 -132 3 0 6 17 6 38 0 42 -50 116 -64
94z"/>
<path d="M334 890 c-25 -10 -35 -30 -27 -59 12 -46 63 -6 63 49 0 22 -4 23
-36 10z"/>
<path d="M299 677 c-35 -30 -46 -83 -19 -97 16 -9 22 -6 37 17 10 16 21 30 24
33 7 5 12 35 10 58 -2 18 -23 14 -52 -11z"/>
<path d="M566 682 c-12 -20 9 -84 37 -114 30 -31 31 -31 38 -10 10 25 4 43
-28 95 -23 36 -37 45 -47 29z"/>
<path d="M507 434 c-3 -4 -4 -19 0 -34 5 -26 2 -28 -36 -35 -44 -7 -61 -2 -61
20 0 8 -9 19 -19 25 -17 8 -20 6 -26 -20 -17 -77 39 -196 95 -202 8 0 22 -2
30 -3 25 -2 49 14 65 44 12 25 13 42 3 113 -13 86 -28 114 -51 92z m18 -124
c3 -5 1 -17 -4 -27 -5 -10 -12 -26 -15 -35 -6 -21 -39 -24 -53 -5 -18 22 -24
65 -10 70 22 9 76 7 82 -3z"/>
<path d="M50 313 c0 -110 57 -203 123 -203 51 0 97 34 99 72 7 160 1 201 -28
177 -8 -6 -14 -25 -14 -41 0 -29 0 -29 -57 -26 -52 3 -58 5 -59 25 -2 30 -22
53 -45 53 -16 0 -19 -8 -19 -57z m168 -79 c25 -7 6 -84 -21 -84 -19 0 -65 43
-72 67 -8 30 29 37 93 17z"/>
<path d="M828 263 c-3 -48 -3 -48 -50 -51 -36 -2 -48 0 -48 11 0 8 -9 22 -19
31 -18 17 -20 17 -29 -1 -5 -10 -10 -50 -11 -89 -2 -68 -1 -73 29 -103 41 -40
100 -43 144 -7 29 22 30 27 32 116 3 98 -6 140 -30 140 -11 0 -16 -14 -18 -47z
m-10 -116 c7 -35 -8 -67 -33 -73 -34 -8 -55 11 -55 51 0 41 6 46 49 42 25 -2
37 -8 39 -20z"/>
</g>
</svg>
