<svg version="1.0" xmlns="http://www.w3.org/2000/svg"
 width="124.000000pt" height="145.000000pt" viewBox="0 0 124.000000 145.000000"
 preserveAspectRatio="xMidYMid meet">
<metadata>
Created by potrace 1.15, written by Peter Selinger 2001-2017
</metadata>
<g transform="translate(0.000000,145.000000) scale(0.100000,-0.100000)"
fill="#000000" stroke="none">
<path d="M555 1159 c-140 -16 -163 -26 -131 -57 12 -12 34 -17 74 -17 55 0 57
-1 63 -30 4 -16 7 -58 8 -91 1 -57 -1 -63 -26 -80 -15 -9 -39 -28 -53 -41 -14
-13 -28 -23 -32 -23 -3 0 -13 -6 -20 -13 -7 -6 -38 -32 -68 -57 -76 -62 -80
-66 -80 -84 0 -10 9 -16 22 -16 26 0 122 53 154 85 32 32 94 79 98 74 16 -19
23 -53 20 -99 -8 -136 -13 -157 -43 -209 -17 -28 -31 -58 -31 -66 0 -8 -4 -17
-10 -20 -5 -3 -10 -13 -10 -22 0 -9 -17 -52 -39 -97 -61 -129 -81 -176 -81
-191 0 -8 -4 -15 -10 -15 -5 0 -10 -9 -10 -20 0 -11 5 -20 11 -20 6 0 9 -9 6
-20 -4 -17 -3 -18 16 -8 31 16 56 47 64 77 3 14 9 28 12 31 4 3 11 23 18 45
13 46 36 108 43 115 13 13 30 52 30 69 0 25 45 92 55 83 5 -4 6 -2 2 3 -9 17
8 36 25 30 9 -4 22 -20 28 -36 7 -16 16 -29 21 -29 5 0 9 -10 9 -23 0 -12 18
-59 40 -105 22 -45 40 -93 40 -107 0 -14 5 -25 10 -25 6 0 10 -16 10 -35 0
-29 4 -36 25 -41 54 -13 70 36 35 108 -11 23 -20 50 -20 60 0 21 -32 92 -72
161 -15 26 -28 55 -28 63 0 8 -12 37 -26 65 -18 34 -29 75 -35 129 -4 44 -11
84 -14 90 -4 6 -4 22 -1 34 6 23 6 23 93 -5 103 -34 153 -38 153 -11 0 18 -41
42 -72 42 -10 0 -18 5 -18 10 0 6 -13 10 -30 10 -16 0 -30 5 -30 10 0 6 -11
10 -24 10 -14 0 -28 5 -31 10 -3 6 -15 10 -25 10 -13 0 -22 11 -29 38 -13 44
-14 152 -3 170 5 7 35 14 67 17 32 2 62 8 67 13 18 18 -5 41 -53 51 -55 12
-62 12 -164 0z"/>
</g>
</svg>
