<svg version="1.0" xmlns="http://www.w3.org/2000/svg"
 width="63.000000pt" height="90.000000pt" viewBox="0 0 63.000000 90.000000"
 preserveAspectRatio="xMidYMid meet">
<metadata>
Created by potrace 1.15, written by Peter Selinger 2001-2017
</metadata>
<g transform="translate(0.000000,90.000000) scale(0.100000,-0.100000)"
fill="#000000" stroke="none">
<path d="M325 748 c-2 -7 -5 -26 -7 -43 -3 -28 -6 -30 -53 -35 -88 -9 -134
-50 -135 -121 0 -16 -8 -30 -23 -38 -25 -13 -52 -50 -43 -58 3 -3 18 -1 35 5
16 6 32 8 35 5 11 -12 6 -42 -14 -75 -22 -38 -40 -178 -23 -178 17 0 30 23 37
66 4 22 16 55 26 72 19 31 19 31 71 11 63 -24 75 -17 31 19 -18 15 -32 30 -32
34 0 4 25 12 55 19 56 12 56 12 93 -24 21 -20 43 -37 49 -37 27 0 62 -24 72
-49 18 -47 30 -138 25 -196 -4 -54 -3 -56 18 -53 32 4 45 83 31 190 -13 95
-31 124 -96 156 -26 12 -47 28 -46 35 0 6 26 24 58 39 50 24 62 26 90 17 58
-20 55 18 -4 52 -27 16 -35 27 -35 50 0 19 5 29 14 29 21 0 31 21 15 31 -8 5
-58 9 -111 9 -97 0 -97 0 -100 37 -3 36 -24 57 -33 31z m175 -131 c0 -21 -22
-37 -53 -37 -15 0 -37 -5 -48 -10 -16 -9 -21 -7 -29 15 -6 15 -8 31 -4 36 9
15 134 11 134 -4z m-183 -59 c6 -35 9 -64 8 -66 -5 -6 -127 -24 -132 -19 -13
14 10 39 52 57 55 24 51 43 -9 38 -55 -4 -58 13 -5 34 71 27 74 25 86 -44z
m128 -33 c-40 -19 -65 -18 -65 0 0 11 12 15 48 14 47 -1 47 -1 17 -14z"/>
<path d="M423 324 c-18 -24 -20 -25 -48 -10 -35 18 -82 20 -121 6 -18 -7 -30
-7 -40 1 -24 19 -34 6 -19 -26 7 -16 33 -77 56 -135 23 -58 48 -111 55 -119
18 -20 40 0 47 43 8 48 73 195 98 222 12 12 18 27 14 33 -10 17 -22 13 -42
-15z m-36 -48 c7 -5 -60 -97 -69 -94 -14 5 -57 77 -58 96 0 10 14 11 63 6 34
-4 63 -7 64 -8z"/>
</g>
</svg>
