<svg version="1.0" xmlns="http://www.w3.org/2000/svg"
 width="71.000000pt" height="88.000000pt" viewBox="0 0 71.000000 88.000000"
 preserveAspectRatio="xMidYMid meet">
<metadata>
Created by potrace 1.15, written by Peter Selinger 2001-2017
</metadata>
<g transform="translate(0.000000,88.000000) scale(0.100000,-0.100000)"
fill="#000000" stroke="none">
<path d="M150 663 c-61 -12 -60 -8 -60 -334 0 -214 3 -300 12 -305 14 -9 38
23 38 53 0 26 27 43 68 43 41 0 54 20 50 77 -3 48 -3 48 -56 51 -44 3 -53 6
-50 20 2 12 16 18 48 22 45 5 45 5 45 55 0 50 0 50 -45 55 -37 4 -45 9 -45 25
0 15 8 21 30 23 79 7 90 22 64 89 -13 35 -25 43 -72 43 -34 0 -38 3 -35 23 3
19 10 23 58 27 40 4 55 9 55 20 0 16 -55 23 -105 13z m58 -156 c3 -27 1 -28
-30 -25 -28 3 -34 7 -36 31 -3 27 -1 28 30 25 28 -3 34 -7 36 -31z m2 -162 c0
-22 -4 -25 -35 -25 -19 0 -35 4 -35 9 0 27 15 41 41 41 24 0 29 -4 29 -25z m0
-154 c0 -24 -25 -45 -45 -37 -8 3 -15 17 -15 31 0 21 5 25 30 25 23 0 30 -5
30 -19z"/>
<path d="M351 633 c-20 -16 -22 -26 -19 -103 3 -85 3 -85 103 -88 124 -4 139
0 155 38 15 36 9 132 -9 154 -20 24 -200 23 -230 -1z m187 -45 c3 -28 3 -28
-82 -28 -79 0 -86 2 -86 20 0 29 29 40 100 37 63 -2 65 -3 68 -29z m2 -83 c0
-19 -6 -25 -33 -30 -18 -4 -53 -5 -77 -3 -41 3 -45 6 -48 31 -3 27 -3 27 77
27 79 0 81 -1 81 -25z"/>
<path d="M282 373 c2 -11 12 -18 26 -17 12 0 94 1 182 2 135 2 160 4 160 17 0
13 -27 15 -186 15 -171 0 -185 -1 -182 -17z"/>
<path d="M347 301 c-47 -8 -52 -22 -9 -33 17 -5 32 -12 32 -16 0 -4 -11 -25
-25 -47 -44 -72 -49 -85 -38 -96 19 -19 40 2 80 79 29 55 47 78 62 80 11 2 21
-1 21 -7 0 -15 -22 -61 -52 -110 -32 -52 -36 -74 -10 -69 10 2 35 39 62 93 52
103 80 122 80 55 0 -33 -10 -57 -47 -113 -61 -91 -59 -87 -30 -87 29 0 51 24
103 114 41 70 44 113 11 144 -21 20 -34 22 -113 21 -49 -1 -106 -5 -127 -8z"/>
</g>
</svg>
