<svg version="1.0" xmlns="http://www.w3.org/2000/svg"
 width="70.000000pt" height="90.000000pt" viewBox="0 0 70.000000 90.000000"
 preserveAspectRatio="xMidYMid meet">
<metadata>
Created by potrace 1.15, written by Peter Selinger 2001-2017
</metadata>
<g transform="translate(0.000000,90.000000) scale(0.100000,-0.100000)"
fill="#000000" stroke="none">
<path d="M68 669 c-16 -9 -18 -33 -18 -264 0 -147 4 -265 10 -280 10 -26 12
-27 63 -20 28 4 55 12 58 17 17 27 31 89 25 112 -6 24 -11 26 -56 26 -48 0
-50 1 -50 29 0 26 4 29 44 35 53 8 63 19 72 74 9 57 -5 72 -67 72 -45 0 -49 2
-49 24 0 31 17 44 65 48 40 3 40 3 49 57 8 47 7 56 -9 67 -22 16 -112 18 -137
3z m105 -26 c3 -5 2 -23 0 -40 -5 -30 -9 -33 -39 -33 -33 0 -34 1 -34 40 0 39
1 40 34 40 19 0 37 -3 39 -7z m-3 -237 c0 -30 -13 -46 -36 -46 -20 0 -24 5
-24 30 0 27 3 30 30 30 19 0 30 -5 30 -14z m-5 -195 c10 -32 -11 -71 -40 -71
-22 0 -25 4 -25 38 0 21 3 42 7 45 14 14 52 7 58 -12z"/>
<path d="M304 671 c-21 -9 -34 -64 -34 -148 0 -42 30 -73 70 -73 25 0 30 -4
30 -25 0 -24 -3 -25 -62 -25 -59 0 -100 -12 -87 -25 4 -3 36 -8 73 -12 37 -3
69 -10 72 -15 3 -4 -26 -45 -65 -91 -66 -76 -87 -117 -60 -117 5 0 22 14 37
30 89 100 144 142 100 76 -55 -81 -63 -93 -86 -120 -16 -20 -20 -32 -13 -39
16 -16 64 34 118 121 30 48 51 72 64 72 10 0 19 -5 19 -11 0 -15 -109 -172
-126 -182 -21 -12 -17 -37 6 -37 19 0 73 63 102 120 22 43 60 90 69 85 12 -8
1 -32 -63 -127 -32 -48 -58 -90 -58 -93 0 -3 8 -5 19 -5 17 0 91 78 91 95 0 4
20 34 45 67 25 33 45 64 45 68 0 31 -73 61 -140 57 -40 -2 -45 1 -48 20 -3 22
0 22 94 25 67 2 99 7 102 16 3 9 -21 12 -96 12 -99 0 -100 0 -106 26 -4 15 -5
28 -2 31 2 3 33 7 68 10 40 3 67 11 76 21 7 9 12 45 12 87 0 101 -11 109 -144
112 -55 2 -110 -1 -122 -6z m197 -41 c10 -6 19 -20 19 -30 0 -19 -7 -20 -100
-20 -98 0 -100 0 -100 23 0 13 3 27 7 30 10 11 152 8 174 -3z m19 -97 c-1 -41
-16 -48 -105 -48 -89 0 -104 7 -105 48 0 15 12 17 105 17 93 0 105 -2 105 -17z"/>
</g>
</svg>
