<svg version="1.0" xmlns="http://www.w3.org/2000/svg"
 width="77.000000pt" height="147.000000pt" viewBox="0 0 77.000000 147.000000"
 preserveAspectRatio="xMidYMid meet">
<metadata>
Created by potrace 1.15, written by Peter Selinger 2001-2017
</metadata>
<g transform="translate(0.000000,147.000000) scale(0.100000,-0.100000)"
fill="#000000" stroke="none">
<path d="M330 1459 c0 -6 -18 -33 -40 -59 -37 -44 -53 -90 -31 -90 4 0 23 18
41 40 21 26 37 37 43 31 15 -15 -1 -257 -23 -341 -5 -19 -14 -93 -20 -165 -8
-85 -18 -145 -31 -172 -23 -51 -23 -79 -3 -158 31 -120 34 -150 24 -200 -20
-93 -28 -120 -45 -160 -9 -22 -22 -52 -28 -67 -7 -16 -15 -28 -19 -28 -5 0 -8
-9 -8 -20 0 -11 5 -20 10 -20 21 0 70 66 70 95 0 8 8 34 19 57 23 52 49 134
53 167 2 13 10 27 18 31 72 33 78 50 17 50 -44 0 -44 0 -67 80 -17 58 -21 92
-16 127 8 61 18 70 49 41 13 -13 43 -39 65 -59 46 -41 58 -76 66 -189 4 -41
10 -91 14 -110 22 -87 90 -190 126 -190 24 0 19 18 -14 52 -16 16 -30 38 -30
49 0 10 -4 19 -8 19 -15 0 -31 73 -41 189 -5 62 -14 118 -20 124 -6 6 -11 18
-11 27 0 9 -31 45 -70 80 -38 35 -70 70 -70 77 0 20 34 16 60 -7 13 -11 26
-20 30 -20 12 0 63 -51 86 -85 31 -45 43 -100 47 -210 6 -126 32 -201 91 -256
22 -21 44 -39 49 -39 9 0 -7 32 -25 52 -41 42 -70 145 -75 263 -7 145 -36 211
-126 286 -34 28 -67 54 -74 56 -18 7 -16 14 9 46 12 15 37 64 56 110 29 70 35
97 39 188 7 135 1 149 -68 149 -55 0 -57 2 -63 75 -5 70 -15 95 -37 95 -11 0
-19 -5 -19 -11z m142 -219 c11 -29 9 -30 -41 -37 -37 -5 -41 -4 -41 16 0 50
65 66 82 21z m-19 -82 c12 -7 23 -13 25 -14 1 -1 0 -9 -4 -18 -4 -11 -19 -16
-50 -16 -40 0 -44 2 -44 24 0 35 33 46 73 24z m7 -95 c-1 -38 -14 -52 -57 -59
-24 -3 -46 -4 -49 -1 -11 11 8 49 29 57 27 11 77 13 77 3z m-50 -133 c0 -48
-53 -120 -74 -100 -10 10 13 112 28 122 26 18 46 8 46 -22z"/>
<path d="M70 1230 c0 -113 14 -156 55 -166 39 -10 80 12 93 50 16 42 16 158 0
174 -20 20 -27 14 -30 -30 -3 -42 -4 -43 -40 -46 -37 -3 -38 -3 -38 32 0 41
-15 86 -30 86 -6 0 -10 -39 -10 -100z m120 -66 c0 -10 -23 -49 -33 -56 -18
-11 -47 11 -47 37 0 22 4 25 40 25 22 0 40 -3 40 -6z"/>
</g>
</svg>
