<svg version="1.0" xmlns="http://www.w3.org/2000/svg"
 width="68.000000pt" height="96.000000pt" viewBox="0 0 68.000000 96.000000"
 preserveAspectRatio="xMidYMid meet">
<metadata>
Created by potrace 1.15, written by Peter Selinger 2001-2017
</metadata>
<g transform="translate(0.000000,96.000000) scale(0.100000,-0.100000)"
fill="#000000" stroke="none">
<path d="M335 751 c-3 -10 -24 -27 -48 -37 -33 -14 -95 -49 -126 -71 -2 -2 -2
-5 1 -9 3 -3 34 6 69 20 69 29 99 33 99 14 0 -17 -82 -66 -172 -102 -21 -8
-38 -20 -38 -25 0 -14 -6 -16 96 25 49 20 97 45 107 55 24 26 37 24 95 -12 54
-33 138 -52 130 -29 -2 8 -27 21 -56 31 -66 23 -112 50 -112 66 0 15 31 10 89
-13 88 -36 80 -4 -10 37 -38 18 -75 41 -80 51 -13 23 -36 23 -44 -1z"/>
<path d="M263 551 c-39 -27 -77 -51 -85 -54 -7 -2 -10 -7 -6 -11 3 -4 20 0 37
8 16 9 34 16 39 16 21 0 20 -30 -2 -52 -31 -31 -54 -78 -62 -125 -5 -35 -2
-44 26 -76 35 -40 79 -57 152 -57 65 0 96 -14 146 -67 23 -25 45 -43 49 -39 8
8 -35 90 -58 112 -19 17 -104 34 -169 34 -72 0 -100 27 -100 95 0 43 5 60 26
85 28 33 78 63 88 53 17 -17 4 -42 -24 -48 -35 -8 -31 -25 6 -25 35 0 31 -29
-6 -36 -34 -7 -30 -24 6 -24 17 0 24 -5 24 -20 0 -14 -9 -21 -35 -26 -46 -8
-34 -27 14 -20 20 3 60 8 89 12 58 7 71 24 17 24 -44 0 -48 26 -5 35 44 10 47
25 5 25 -29 0 -36 4 -33 17 2 9 18 21 36 25 41 11 32 28 -14 28 -31 0 -34 3
-34 29 0 23 6 31 31 40 37 13 34 28 -11 52 -18 10 -38 23 -44 29 -16 16 -27
12 -103 -39z m107 -6 c7 -9 11 -17 9 -19 -12 -10 -56 -14 -69 -6 -13 8 -12 11
5 24 26 20 39 20 55 1z"/>
<path d="M242 158 c-61 -38 -51 -112 20 -135 45 -15 152 -1 179 23 23 21 25
81 3 112 -13 20 -23 22 -92 21 -59 0 -85 -5 -110 -21z m75 -25 c2 -6 -5 -14
-16 -18 -27 -8 -27 -21 -1 -28 11 -3 20 -12 20 -21 0 -12 -10 -16 -34 -16 -38
0 -53 22 -42 65 8 31 65 44 73 18z m111 -19 c3 -35 -18 -64 -49 -64 -24 0 -26
35 -1 45 16 6 16 7 0 16 -31 18 -22 41 15 37 28 -3 32 -7 35 -34z"/>
</g>
</svg>
