<svg version="1.0" xmlns="http://www.w3.org/2000/svg"
 width="68.000000pt" height="96.000000pt" viewBox="0 0 68.000000 96.000000"
 preserveAspectRatio="xMidYMid meet">
<metadata>
Created by potrace 1.15, written by Peter Selinger 2001-2017
</metadata>
<g transform="translate(0.000000,96.000000) scale(0.100000,-0.100000)"
fill="#000000" stroke="none">
<path d="M222 778 c3 -29 0 -33 -25 -36 -22 -3 -31 3 -45 27 -19 35 -32 40
-32 13 0 -41 30 -81 66 -88 61 -11 38 -44 -32 -44 -24 0 -34 -5 -34 -15 0 -12
15 -15 79 -15 57 0 80 -4 84 -13 9 -24 -6 -34 -58 -40 -75 -8 -94 -37 -92
-141 2 -68 -2 -87 -20 -119 -23 -38 -30 -67 -16 -67 14 0 63 54 63 70 0 9 4
20 9 26 5 5 11 23 13 39 3 30 4 30 72 35 46 3 71 10 74 19 4 11 -11 13 -72 9
-93 -4 -99 15 -8 22 95 8 76 37 -26 39 -57 1 -45 21 12 21 53 0 84 23 92 67 6
29 3 35 -25 50 -38 22 -39 43 -3 64 29 16 60 64 49 76 -4 3 -15 -1 -25 -10
-29 -26 -56 -21 -69 13 -15 41 -35 39 -31 -2z"/>
<path d="M464 795 c-4 -9 -4 -26 -2 -40 7 -35 -18 -40 -47 -9 -28 30 -39 18
-24 -24 8 -23 18 -32 37 -34 19 -2 27 -9 27 -23 0 -16 -8 -21 -42 -23 -29 -2
-43 -8 -43 -18 0 -11 16 -14 74 -14 68 0 99 -10 82 -27 -3 -4 -42 -8 -86 -11
-117 -7 -105 -23 26 -38 56 -6 63 -4 83 17 11 12 21 26 21 30 0 14 -42 59 -56
59 -8 0 -14 9 -14 20 0 13 7 20 19 20 23 0 61 45 61 71 0 22 -7 23 -40 4 -33
-19 -40 -18 -40 4 0 44 -24 68 -36 36z"/>
<path d="M375 510 c-6 -10 20 -18 75 -22 27 -2 35 -7 35 -23 0 -17 -7 -20 -54
-20 -63 0 -80 -19 -26 -29 19 -4 35 -11 35 -16 0 -13 -34 -30 -59 -30 -12 0
-21 -5 -21 -10 0 -21 34 -23 88 -4 55 18 55 18 87 -19 29 -33 55 -48 55 -31 0
4 -16 28 -36 55 -30 41 -33 51 -24 69 12 23 6 52 -16 75 -17 17 -129 21 -139
5z"/>
<path d="M215 290 c-4 -33 -10 -60 -14 -60 -5 0 -16 9 -26 20 -24 27 -32 25
-38 -7 -6 -35 5 -49 44 -57 30 -6 30 -6 12 -37 -10 -17 -33 -43 -50 -58 -36
-28 -45 -55 -15 -44 44 16 93 59 109 94 10 22 25 39 35 39 25 0 64 40 76 78 9
26 8 32 -4 32 -7 0 -14 -6 -14 -12 0 -7 -15 -23 -33 -36 -32 -22 -32 -22 -35
5 -5 47 -22 103 -31 103 -5 0 -12 -27 -16 -60z"/>
<path d="M435 291 c-3 -11 -3 -31 1 -45 10 -41 -22 -33 -36 9 -19 58 -34 55
-26 -6 5 -42 13 -60 35 -79 19 -16 35 -45 45 -82 18 -62 30 -76 50 -59 11 9
10 18 -5 49 -10 20 -21 49 -24 63 -6 24 -4 26 17 22 38 -7 60 18 66 75 2 29 1
52 -4 52 -5 0 -20 -18 -34 -40 -14 -22 -28 -40 -32 -40 -4 0 -10 17 -13 38 -4
20 -8 43 -10 50 -6 18 -23 15 -30 -7z"/>
</g>
</svg>
