<svg version="1.0" xmlns="http://www.w3.org/2000/svg"
 width="64.000000pt" height="124.000000pt" viewBox="0 0 64.000000 124.000000"
 preserveAspectRatio="xMidYMid meet">
<metadata>
Created by potrace 1.15, written by Peter Selinger 2001-2017
</metadata>
<g transform="translate(0.000000,124.000000) scale(0.100000,-0.100000)"
fill="#000000" stroke="none">
<path d="M398 1137 c-14 -12 -29 -37 -33 -55 -6 -29 -3 -39 26 -68 20 -21 46
-36 68 -40 20 -3 44 -8 54 -11 35 -9 16 17 -27 37 -47 23 -77 63 -59 81 6 6
28 13 49 16 49 6 71 -15 80 -79 12 -85 -9 -138 -65 -167 -30 -16 -275 -18
-311 -2 -58 24 -63 35 -64 120 -1 72 1 81 23 101 14 11 31 18 39 15 7 -3 25
-5 38 -5 14 0 27 -7 30 -15 7 -16 -42 -85 -61 -85 -7 0 -18 -7 -25 -15 -15
-18 0 -21 28 -6 9 6 28 12 42 15 31 7 70 65 70 104 0 17 -10 38 -24 51 -21 20
-30 22 -72 15 -110 -15 -144 -58 -144 -178 0 -120 29 -160 145 -199 37 -13 40
-16 37 -47 -5 -45 -19 -56 -108 -90 -17 -6 -38 -23 -45 -37 -19 -35 -14 -115
11 -188 21 -64 26 -144 11 -173 -6 -9 -12 -29 -15 -43 -3 -15 -22 -49 -41 -77
-48 -71 -48 -92 0 -50 45 39 100 121 119 175 23 67 14 157 -21 227 -36 71 -25
104 41 127 65 22 85 50 86 117 0 53 0 53 52 50 53 -3 53 -3 60 -47 9 -50 24
-70 85 -109 33 -21 45 -35 49 -61 7 -36 -12 -61 -46 -61 -25 0 -90 -77 -90
-106 0 -43 28 -87 80 -124 39 -28 56 -50 88 -115 21 -44 42 -92 46 -107 3 -16
11 -28 17 -28 7 0 8 25 4 78 -10 105 -51 193 -100 212 -19 8 -45 24 -57 37
-29 31 -14 65 39 82 21 7 49 21 62 30 44 34 47 147 4 182 -29 23 -62 39 -79
39 -23 0 -74 55 -74 79 0 15 6 21 23 21 24 0 79 19 115 39 42 23 62 85 61 191
0 102 -3 111 -56 148 -44 31 -127 31 -165 -1z"/>
</g>
</svg>
