<svg version="1.0" xmlns="http://www.w3.org/2000/svg"
 width="59.000000pt" height="97.000000pt" viewBox="0 0 59.000000 97.000000"
 preserveAspectRatio="xMidYMid meet">
<metadata>
Created by potrace 1.15, written by Peter Selinger 2001-2017
</metadata>
<g transform="translate(0.000000,97.000000) scale(0.100000,-0.100000)"
fill="#000000" stroke="none">
<path d="M297 825 c-30 -30 -37 -64 -26 -113 6 -29 4 -43 -12 -68 -25 -40 -24
-85 1 -117 27 -34 26 -37 -20 -37 -29 0 -43 5 -52 20 -21 34 -31 22 -23 -27 8
-58 20 -74 29 -38 6 25 10 27 44 20 48 -9 52 -12 52 -38 0 -12 12 -52 27 -90
27 -68 27 -68 4 -90 -31 -32 -114 -31 -136 1 -24 33 -35 27 -35 -18 0 -37 13
-55 22 -28 3 7 13 5 31 -7 35 -22 100 -15 131 14 45 42 50 -14 6 -69 -36 -46
-40 -66 -9 -49 20 10 21 9 15 -15 -8 -32 13 -36 32 -6 16 26 26 25 41 -2 10
-20 11 -16 5 22 -19 148 -19 147 -64 245 -16 33 -30 83 -32 110 -3 45 -1 50
19 53 14 2 26 -4 34 -20 7 -13 15 -25 18 -28 10 -8 31 -49 31 -59 0 -5 5 -22
11 -38 10 -26 12 -27 19 -8 5 11 9 50 9 87 1 56 -4 77 -29 126 -16 33 -30 65
-30 71 0 6 -7 23 -16 36 -9 14 -15 41 -13 67 1 24 -2 60 -6 81 -6 30 -12 37
-30 37 -12 0 -34 -11 -48 -25z m37 -31 c27 -11 19 -104 -9 -104 -21 0 -39 65
-25 90 12 22 12 22 34 14z m-24 -178 c0 -25 -12 -46 -26 -46 -17 0 -18 32 -2
48 16 16 28 15 28 -2z m76 -11 c7 -28 -15 -62 -41 -62 -18 0 -20 39 -3 67 17
27 36 25 44 -5z m43 -111 c3 -16 1 -17 -13 -5 -19 16 -21 34 -3 29 6 -3 14
-13 16 -24z"/>
</g>
</svg>
