<svg version="1.0" xmlns="http://www.w3.org/2000/svg"
 width="59.000000pt" height="145.000000pt" viewBox="0 0 59.000000 145.000000"
 preserveAspectRatio="xMidYMid meet">
<metadata>
Created by potrace 1.15, written by Peter Selinger 2001-2017
</metadata>
<g transform="translate(0.000000,145.000000) scale(0.100000,-0.100000)"
fill="#000000" stroke="none">
<path d="M255 1308 c-11 -6 -39 -27 -61 -47 -23 -20 -52 -43 -65 -52 -23 -16
-23 -16 -1 -60 25 -52 46 -79 59 -79 23 0 44 -38 38 -66 -4 -16 -8 -58 -9 -94
-1 -36 -5 -71 -9 -77 -4 -6 -45 -32 -92 -59 -86 -50 -107 -72 -57 -60 15 4 35
8 45 10 10 1 22 7 25 13 10 14 47 33 66 33 12 0 16 -11 16 -46 0 -26 5 -65 11
-88 30 -116 74 -241 96 -274 16 -25 10 -34 -41 -63 -28 -16 -86 -71 -86 -81 0
-17 46 -7 74 17 16 14 32 25 35 25 3 1 29 21 56 46 50 45 50 45 53 16 2 -20
-7 -46 -28 -78 -29 -47 -26 -70 5 -44 13 11 14 4 9 -49 -4 -34 -3 -61 2 -61
10 0 34 47 34 66 0 28 21 22 59 -18 37 -39 41 -41 41 -20 0 20 -16 59 -31 72
-24 22 -37 88 -43 212 -6 141 -8 151 -57 254 -16 33 -29 66 -29 72 0 22 20 12
32 -15 32 -79 57 -123 71 -123 10 0 17 58 21 185 3 66 8 150 11 186 7 63 6 67
-20 87 -15 12 -36 22 -46 22 -33 0 -87 39 -92 68 -3 15 -11 45 -17 67 -7 22
-13 53 -15 68 -1 16 -8 33 -16 38 -18 11 -20 11 -44 -3z m34 -137 c-1 -29 -29
-83 -46 -88 -11 -4 -33 69 -33 111 0 15 11 33 27 46 27 21 27 21 40 -11 7 -17
13 -43 12 -58z m61 -121 c0 -20 -23 -32 -45 -24 -18 7 -20 45 -3 62 15 15 48
-12 48 -38z m50 -77 c0 -36 -2 -38 -31 -23 -23 13 -24 23 -2 56 19 30 33 17
33 -33z m60 -5 c0 -48 -17 -58 -25 -14 -8 42 3 86 16 65 5 -8 9 -31 9 -51z
m-181 -25 c-20 -60 -31 -64 -24 -8 9 59 14 70 27 57 7 -7 6 -23 -3 -49z m111
-53 c14 -11 32 -20 40 -20 11 0 9 -6 -7 -22 -22 -21 -22 -21 -43 3 -49 58 -43
81 10 39z m-55 -51 c25 -31 30 -59 10 -66 -12 -3 -55 60 -55 82 0 24 16 18 45
-16z m-27 -106 c23 -37 42 -75 42 -85 0 -10 4 -18 8 -18 5 0 15 -19 22 -42 7
-24 16 -56 21 -72 16 -51 11 -101 -12 -122 -20 -18 -22 -18 -33 -1 -17 22
-102 280 -109 329 -6 38 0 78 12 78 3 0 25 -30 49 -67z m142 42 c0 -14 -4 -25
-10 -25 -11 0 -14 33 -3 43 11 11 13 8 13 -18z"/>
</g>
</svg>
