<svg version="1.0" xmlns="http://www.w3.org/2000/svg"
 width="67.000000pt" height="105.000000pt" viewBox="0 0 67.000000 105.000000"
 preserveAspectRatio="xMidYMid meet">
<metadata>
Created by potrace 1.15, written by Peter Selinger 2001-2017
</metadata>
<g transform="translate(0.000000,105.000000) scale(0.100000,-0.100000)"
fill="#000000" stroke="none">
<path d="M443 839 c-7 -7 -8 -20 -3 -34 5 -12 4 -28 -1 -36 -5 -8 -9 -31 -9
-52 0 -48 -40 -120 -58 -103 -3 4 -2 10 3 14 30 21 46 111 29 156 -9 24 -33
19 -46 -9 -8 -18 -19 -25 -38 -25 -26 0 -28 -3 -35 -62 -3 -35 -8 -76 -10 -93
-2 -16 -5 -68 -6 -115 -1 -47 -5 -89 -9 -95 -12 -16 -19 -164 -9 -171 17 -10
35 14 49 66 7 27 18 50 22 50 5 0 7 -3 5 -7 -9 -16 11 -48 29 -48 12 0 19 -7
19 -20 0 -31 14 -48 30 -35 9 8 14 3 18 -20 6 -27 27 -43 27 -20 0 6 5 10 11
10 8 0 10 -17 6 -56 -6 -61 -1 -84 18 -84 21 0 28 30 30 131 2 53 8 105 14
115 11 21 12 17 17 -89 2 -57 9 -66 30 -45 21 21 25 177 5 201 -9 12 -11 30
-7 61 5 32 3 47 -6 53 -18 11 -78 139 -78 166 0 39 -24 207 -30 207 -3 0 -11
-5 -17 -11z m-92 -165 c1 -27 6 -55 12 -61 6 -9 5 -18 -3 -28 -13 -16 -10
-121 5 -157 5 -14 2 -18 -12 -18 -10 0 -25 -6 -32 -13 -11 -10 -12 -7 -7 18 4
17 9 88 12 160 4 124 9 164 19 153 3 -2 5 -27 6 -54z m103 -100 c9 -22 8 -24
-9 -24 -23 0 -19 -62 5 -82 26 -23 36 -64 20 -83 -23 -28 -40 -18 -40 24 0 21
-7 58 -15 81 -19 53 -19 51 3 78 20 26 28 27 36 6z m50 -95 c-8 -13 -24 -1
-24 18 0 13 3 13 15 3 8 -7 12 -16 9 -21z m-14 -159 c0 -5 -4 -10 -10 -10 -5
0 -10 5 -10 10 0 6 5 10 10 10 6 0 10 -4 10 -10z"/>
<path d="M508 736 c-5 -23 13 -111 25 -123 14 -13 21 10 21 62 -1 71 -36 117
-46 61z"/>
<path d="M197 723 c-11 -17 -19 -104 -13 -129 7 -25 8 -26 24 -10 20 20 25
137 5 143 -6 2 -13 0 -16 -4z"/>
<path d="M157 464 c-4 -4 -7 -33 -7 -65 0 -42 4 -58 15 -63 21 -8 27 11 23 74
-3 50 -15 70 -31 54z"/>
</g>
</svg>
