<svg version="1.0" xmlns="http://www.w3.org/2000/svg"
 width="71.000000pt" height="87.000000pt" viewBox="0 0 71.000000 87.000000"
 preserveAspectRatio="xMidYMid meet">
<metadata>
Created by potrace 1.15, written by Peter Selinger 2001-2017
</metadata>
<g transform="translate(0.000000,87.000000) scale(0.100000,-0.100000)"
fill="#000000" stroke="none">
<path d="M403 593 c7 -58 -4 -83 -29 -68 -9 6 -22 26 -28 45 -8 24 -18 36 -34
38 -29 4 -39 -22 -18 -53 21 -32 20 -48 -1 -41 -28 9 -78 -9 -81 -28 -4 -17 4
-18 90 -15 90 4 93 3 96 -18 4 -28 -28 -38 -98 -31 -55 6 -76 -3 -67 -26 5
-13 22 -16 87 -16 72 0 81 -2 78 -17 -3 -15 -16 -18 -83 -21 -74 -3 -94 -10
-95 -36 0 -5 41 -6 95 -3 95 5 95 5 95 -29 0 -34 0 -34 -84 -34 -102 0 -119
-5 -106 -30 8 -15 19 -17 69 -13 59 6 60 5 67 -21 12 -49 -8 -73 -65 -78 -58
-6 -66 -10 -57 -34 5 -14 17 -15 79 -9 87 8 97 18 97 97 0 51 2 58 19 58 28 0
35 -16 35 -84 1 -75 13 -84 89 -67 31 7 61 18 67 26 20 24 1 38 -45 33 -49 -6
-75 5 -75 32 0 41 11 50 59 50 48 0 71 13 71 38 0 11 -17 13 -85 9 -85 -4 -85
-4 -85 29 0 34 0 34 49 34 59 0 81 7 81 26 0 11 -17 14 -70 14 -63 0 -70 2
-70 20 0 18 7 20 59 20 39 0 63 5 71 15 21 25 2 32 -74 27 -74 -4 -74 -4 -69
21 5 24 10 26 82 32 42 3 82 8 89 11 24 7 6 29 -26 32 -31 3 -43 24 -22 37 15
9 12 52 -4 58 -19 8 -34 -12 -49 -64 -11 -37 -17 -44 -37 -44 -24 0 -25 3 -25
60 0 56 -2 60 -24 63 -23 4 -24 2 -18 -45z"/>
<path d="M115 615 c-5 -2 -22 -6 -37 -9 -28 -6 -28 -6 -28 -286 0 -280 3 -306
35 -280 11 9 14 60 15 257 0 135 3 250 6 254 3 5 14 9 25 9 20 0 20 -5 18
-261 -3 -269 0 -287 38 -272 18 7 19 563 1 581 -11 11 -50 15 -73 7z"/>
</g>
</svg>
