<svg version="1.0" xmlns="http://www.w3.org/2000/svg"
 width="75.000000pt" height="93.000000pt" viewBox="0 0 75.000000 93.000000"
 preserveAspectRatio="xMidYMid meet">
<metadata>
Created by potrace 1.15, written by Peter Selinger 2001-2017
</metadata>
<g transform="translate(0.000000,93.000000) scale(0.100000,-0.100000)"
fill="#000000" stroke="none">
<path d="M457 744 c-3 -4 -4 -27 -1 -53 6 -46 6 -46 -28 -7 -35 40 -60 38 -38
-3 8 -16 6 -21 -10 -26 -29 -9 -24 -25 8 -25 55 0 72 -10 72 -42 0 -31 1 -31
-47 -11 -26 11 -12 -23 17 -40 20 -12 30 -26 30 -43 0 -30 -16 -31 -75 -2 -24
12 -48 19 -51 15 -9 -9 32 -42 79 -63 27 -13 37 -23 37 -41 0 -30 -33 -31 -75
-3 -16 11 -39 20 -50 20 -17 -1 -14 -6 15 -31 19 -16 45 -32 57 -35 25 -7 36
-29 28 -55 -7 -22 -60 -34 -115 -25 -42 7 -59 -6 -40 -29 9 -10 33 -15 76 -15
64 0 64 0 58 -27 -6 -27 -48 -104 -80 -150 -15 -21 -15 -23 0 -29 34 -13 102
85 121 173 6 30 10 32 58 37 29 4 72 7 97 9 32 1 45 6 45 17 0 12 -15 14 -87
11 -84 -3 -88 -2 -88 17 0 26 8 34 90 80 68 39 90 72 48 72 -13 0 -41 -12 -63
-25 -48 -30 -55 -31 -55 -5 0 14 17 30 56 51 58 33 74 53 56 71 -8 8 -21 4
-46 -15 -43 -33 -56 -34 -56 -3 0 14 10 30 25 40 14 9 25 23 25 31 0 18 -31
20 -48 3 -9 -9 -12 -7 -12 9 0 22 32 33 91 33 19 0 29 5 29 15 0 8 -9 15 -20
15 -17 0 -19 5 -14 25 3 14 2 25 -3 25 -5 0 -20 -11 -33 -25 -34 -36 -48 -32
-52 17 -3 39 -16 57 -31 42z"/>
<path d="M192 638 c-7 -7 -12 -17 -12 -22 0 -6 -16 -29 -35 -51 -37 -42 -52
-76 -40 -94 13 -23 31 -9 63 50 35 63 52 70 65 26 4 -15 10 -39 15 -54 11 -39
37 -37 36 2 -2 34 -53 147 -69 152 -6 2 -16 -2 -23 -9z"/>
<path d="M171 410 c3 -60 -3 -68 -35 -46 -14 9 -32 16 -41 16 -29 0 -14 -29
30 -57 45 -28 45 -28 39 -73 -3 -25 -17 -71 -31 -103 -25 -60 -25 -91 1 -81
21 8 67 123 71 178 2 40 8 52 41 80 27 23 36 37 31 50 -6 14 -10 15 -28 6 -26
-15 -29 -11 -36 39 -4 32 -10 41 -25 41 -17 0 -19 -6 -17 -50z"/>
</g>
</svg>
