<svg version="1.0" xmlns="http://www.w3.org/2000/svg"
 width="68.000000pt" height="103.000000pt" viewBox="0 0 68.000000 103.000000"
 preserveAspectRatio="xMidYMid meet">
<metadata>
Created by potrace 1.15, written by Peter Selinger 2001-2017
</metadata>
<g transform="translate(0.000000,103.000000) scale(0.100000,-0.100000)"
fill="#000000" stroke="none">
<path d="M170 893 c0 -118 -6 -131 -49 -113 -30 12 -31 14 -31 80 0 50 -4 69
-14 73 -26 10 -34 -16 -31 -96 2 -66 6 -80 25 -97 29 -25 94 -34 182 -26 93
10 100 13 85 37 -9 15 -23 19 -64 19 -52 0 -53 0 -53 30 0 25 4 30 25 30 15 0
39 7 55 15 27 14 30 20 30 65 0 71 -26 83 -39 18 -6 -28 -11 -33 -39 -36 -30
-3 -32 -2 -32 32 0 47 -9 66 -31 66 -17 0 -19 -9 -19 -97z"/>
<path d="M387 916 c-10 -26 17 -36 94 -36 94 0 109 -5 109 -37 0 -34 -26 -52
-75 -53 -88 -1 -105 -45 -105 -270 0 -151 2 -169 18 -175 16 -6 16 -7 0 -16
-14 -8 -17 -28 -17 -140 0 -135 10 -182 38 -177 14 3 16 42 16 344 0 385 -4
365 82 385 83 19 98 30 101 74 4 47 -13 82 -50 101 -37 19 -204 20 -211 0z"/>
<path d="M9 678 c-1 -10 0 -304 1 -441 0 -18 11 -40 30 -59 30 -30 32 -30 113
-25 140 8 184 22 191 60 19 102 22 128 15 133 -5 2 -6 39 -4 82 5 113 5 215
-1 235 -3 10 -13 17 -22 15 -13 -2 -18 -16 -20 -51 -4 -59 -19 -58 -46 1 -23
50 -32 52 -41 13 -3 -16 -13 -35 -22 -42 -13 -11 -18 -10 -30 6 -7 11 -16 30
-20 43 -6 26 -31 29 -39 5 -13 -38 -35 -82 -44 -88 -9 -5 -16 41 -11 69 3 12
-28 56 -39 56 -6 0 -10 -6 -11 -12z m260 -134 c26 -43 26 -54 2 -54 -10 0 -22
-7 -25 -15 -5 -13 -10 -14 -26 -5 -12 6 -34 9 -50 5 -35 -8 -100 4 -100 17 0
6 8 18 18 27 10 9 21 24 25 34 9 25 26 21 45 -13 22 -39 33 -38 56 5 11 19 22
35 27 35 4 0 16 -16 28 -36z m31 -123 c14 -28 13 -71 -3 -71 -7 0 -23 14 -35
30 -13 17 -26 30 -30 30 -5 0 -16 -18 -26 -40 -10 -22 -20 -40 -24 -40 -4 0
-17 21 -30 47 -29 56 -24 60 69 62 58 1 70 -2 79 -18z m-190 2 c0 -13 -45
-102 -52 -103 -5 0 -8 25 -8 55 0 54 0 55 30 55 17 0 30 -3 30 -7z m40 -118
c0 -12 9 -30 20 -40 19 -18 20 -17 20 3 0 12 5 22 10 22 6 0 10 9 10 20 0 11
2 20 4 20 2 0 11 3 20 6 10 4 24 -8 42 -35 25 -38 26 -42 11 -65 -12 -18 -27
-25 -69 -29 -47 -5 -68 -4 -129 1 -28 3 -29 30 -4 81 20 39 29 48 45 44 12 -3
20 -14 20 -28z"/>
<path d="M570 661 c0 -5 -9 -11 -19 -14 -72 -19 -66 -197 16 -448 33 -101 53
-135 75 -127 25 10 31 66 10 97 -24 34 -62 117 -62 134 0 7 -4 17 -9 22 -5 6
-12 45 -15 87 -4 43 -9 85 -13 93 -9 26 17 105 36 105 23 1 51 24 51 44 0 12
-9 16 -35 16 -19 0 -35 -4 -35 -9z"/>
</g>
</svg>
