<svg version="1.0" xmlns="http://www.w3.org/2000/svg"
 width="57.000000pt" height="91.000000pt" viewBox="0 0 57.000000 91.000000"
 preserveAspectRatio="xMidYMid meet">
<metadata>
Created by potrace 1.15, written by Peter Selinger 2001-2017
</metadata>
<g transform="translate(0.000000,91.000000) scale(0.100000,-0.100000)"
fill="#000000" stroke="none">
<path d="M352 810 c-69 -16 -145 -24 -285 -29 -13 -1 -17 -7 -15 -23 3 -21 8
-23 63 -21 61 1 158 15 185 26 8 3 35 8 60 11 83 8 111 18 108 35 -4 22 -21
22 -116 1z"/>
<path d="M355 594 c-27 -8 -61 -16 -75 -19 -23 -3 -88 -20 -165 -43 -35 -10
-42 -38 -9 -35 40 4 47 -62 29 -276 -7 -96 -11 -107 -37 -134 -33 -35 -22 -51
27 -41 40 9 210 79 261 109 88 51 124 145 124 322 0 101 -2 113 -19 123 -26
13 -75 11 -136 -6z m85 -74 c7 -17 10 -55 7 -92 -9 -120 -21 -167 -57 -212
-19 -24 -147 -86 -178 -86 -24 0 -24 0 -20 185 4 225 -10 206 168 234 57 9 66
6 80 -29z"/>
<path d="M296 434 c-10 -27 -7 -204 4 -204 17 0 28 43 30 121 1 41 2 80 1 87
-1 17 -28 15 -35 -4z"/>
</g>
</svg>
