<svg version="1.0" xmlns="http://www.w3.org/2000/svg"
 width="43.000000pt" height="67.000000pt" viewBox="0 0 43.000000 67.000000"
 preserveAspectRatio="xMidYMid meet">
<metadata>
Created by potrace 1.15, written by Peter Selinger 2001-2017
</metadata>
<g transform="translate(0.000000,67.000000) scale(0.100000,-0.100000)"
fill="#000000" stroke="none">
<path d="M206 488 c-3 -13 -7 -86 -10 -163 -3 -77 -9 -151 -12 -165 -4 -19 13
-5 70 55 42 44 76 87 76 95 0 8 -10 35 -22 60 -11 25 -24 52 -28 60 -35 77
-65 100 -74 58z m44 -152 c0 -41 -4 -78 -10 -81 -6 -4 -10 23 -10 74 0 47 4
81 10 81 6 0 10 -31 10 -74z m42 -18 c-9 -9 -12 -7 -12 12 0 19 3 21 12 12 9
-9 9 -15 0 -24z"/>
</g>
</svg>
