<svg version="1.0" xmlns="http://www.w3.org/2000/svg"
 width="43.000000pt" height="69.000000pt" viewBox="0 0 43.000000 69.000000"
 preserveAspectRatio="xMidYMid meet">
<metadata>
Created by potrace 1.15, written by Peter Selinger 2001-2017
</metadata>
<g transform="translate(0.000000,69.000000) scale(0.100000,-0.100000)"
fill="#000000" stroke="none">
<path d="M109 383 c-7 -62 -7 -198 1 -219 10 -25 12 -26 24 -9 11 15 22 17 74
11 49 -5 62 -4 62 6 0 8 -15 18 -32 23 -31 9 -33 13 -34 55 -1 25 0 35 3 23 2
-12 11 -27 19 -34 13 -11 15 -7 12 32 -2 35 -7 44 -21 43 -28 -3 -18 40 11 44
12 2 22 10 22 18 0 11 -16 14 -70 14 -38 0 -70 -3 -71 -7z m59 -108 c0 -68 -1
-75 -19 -75 -17 0 -19 8 -19 75 0 66 2 75 19 75 16 0 18 -9 19 -75z"/>
</g>
</svg>
