<svg version="1.0" xmlns="http://www.w3.org/2000/svg"
 width="71.000000pt" height="81.000000pt" viewBox="0 0 71.000000 81.000000"
 preserveAspectRatio="xMidYMid meet">
<metadata>
Created by potrace 1.15, written by Peter Selinger 2001-2017
</metadata>
<g transform="translate(0.000000,81.000000) scale(0.100000,-0.100000)"
fill="#000000" stroke="none">
<path d="M335 740 c-4 -6 10 -17 29 -25 25 -11 37 -23 42 -43 3 -15 7 -32 9
-39 2 -7 -7 -49 -19 -95 -13 -46 -30 -113 -36 -149 -12 -58 -11 -70 4 -100 13
-26 14 -35 4 -38 -7 -2 -30 -21 -50 -41 -30 -30 -38 -45 -38 -73 0 -39 32
-102 57 -111 26 -10 27 0 4 47 -24 49 -25 60 -10 88 10 19 13 18 56 -21 68
-60 81 -55 33 12 -27 37 -29 43 -15 57 13 13 18 13 42 -5 16 -12 34 -39 42
-65 23 -74 30 -89 41 -89 15 0 3 85 -18 125 -8 17 -39 56 -70 88 -39 41 -52
61 -44 69 13 13 86 -22 119 -59 31 -32 59 -89 67 -135 7 -39 36 -55 36 -20 0
24 -25 104 -44 140 -20 39 -91 99 -126 107 -33 7 -55 29 -45 45 17 27 130 -22
172 -75 29 -37 53 -46 53 -20 0 31 -88 104 -148 122 -31 9 -58 18 -60 19 -2 1
2 21 7 45 5 24 13 60 16 80 5 35 8 37 51 44 53 8 54 27 2 36 -24 4 -48 19 -75
47 -38 40 -75 53 -88 32z"/>
<path d="M480 734 c0 -8 20 -19 46 -26 34 -9 49 -19 56 -37 16 -43 3 -65 -47
-80 -81 -24 -87 -88 -11 -121 24 -10 53 -32 66 -50 15 -20 26 -28 32 -22 19
19 -4 54 -58 88 -31 20 -53 41 -51 47 2 7 21 18 43 25 21 7 50 24 63 37 22 21
23 28 15 66 -11 52 -42 75 -106 82 -37 3 -48 1 -48 -9z"/>
<path d="M70 697 c0 -8 11 -24 25 -37 33 -31 32 -40 -10 -80 -31 -30 -46 -60
-29 -60 3 0 24 16 47 35 22 19 46 35 53 35 12 0 34 -50 34 -77 0 -8 -15 -20
-34 -28 -51 -22 -54 -35 -7 -35 41 0 41 0 41 -39 0 -57 -8 -71 -40 -71 -39 0
-60 -9 -60 -26 0 -10 13 -14 45 -14 45 0 45 0 45 -36 0 -36 -44 -179 -61 -200
-7 -8 -6 -15 2 -20 27 -16 82 96 95 193 6 45 9 51 45 66 48 21 50 34 4 43 -37
7 -35 2 -39 91 -1 12 9 19 28 23 42 7 44 27 4 38 -42 10 -47 37 -14 77 26 32
22 32 99 0 28 -12 21 20 -9 40 -24 16 -25 18 -10 40 36 55 3 45 -100 -30 -20
-14 -24 -13 -71 35 -49 49 -83 64 -83 37z"/>
</g>
</svg>
