<svg version="1.0" xmlns="http://www.w3.org/2000/svg"
 width="65.000000pt" height="76.000000pt" viewBox="0 0 65.000000 76.000000"
 preserveAspectRatio="xMidYMid meet">
<metadata>
Created by potrace 1.15, written by Peter Selinger 2001-2017
</metadata>
<g transform="translate(0.000000,76.000000) scale(0.100000,-0.100000)"
fill="#000000" stroke="none">
<path d="M432 680 c-75 -11 -92 -30 -92 -101 0 -78 25 -99 116 -99 74 0 75 -2
40 -76 -25 -54 -39 -64 -87 -64 -32 0 -36 11 -18 56 12 34 4 74 -16 74 -8 0
-17 -11 -20 -25 -3 -14 -7 -36 -10 -50 -9 -44 -93 -151 -172 -220 -83 -72 -94
-89 -67 -99 21 -8 110 67 178 151 50 61 52 63 99 63 26 0 47 -3 47 -6 0 -16
-71 -119 -132 -192 -32 -38 -36 -62 -10 -62 24 0 36 14 124 145 58 86 80 111
100 113 15 2 28 -3 31 -11 6 -16 -26 -93 -52 -122 -22 -24 -61 -93 -61 -106 0
-5 8 -9 19 -9 26 0 112 104 145 174 33 69 29 81 -32 111 -23 11 -41 23 -42 27
0 3 16 25 35 48 66 79 37 125 -79 125 -71 0 -71 0 -74 48 -3 47 -3 47 78 47
84 0 120 10 120 35 0 33 -56 41 -168 25z"/>
<path d="M95 661 c-44 -4 -60 -10 -60 -21 0 -10 16 -17 53 -23 52 -9 52 -9 52
-135 0 -173 0 -172 -66 -172 -47 0 -54 -2 -54 -20 0 -19 7 -20 115 -20 108 0
115 1 115 20 0 16 -7 20 -34 20 -34 0 -34 0 -29 138 3 75 10 145 15 155 5 9
19 17 31 17 12 0 29 5 37 10 13 9 12 12 -4 25 -20 15 -59 17 -171 6z"/>
</g>
</svg>
