<svg version="1.0" xmlns="http://www.w3.org/2000/svg"
 width="66.000000pt" height="79.000000pt" viewBox="0 0 66.000000 79.000000"
 preserveAspectRatio="xMidYMid meet">
<metadata>
Created by potrace 1.15, written by Peter Selinger 2001-2017
</metadata>
<g transform="translate(0.000000,79.000000) scale(0.100000,-0.100000)"
fill="#000000" stroke="none">
<path d="M563 738 c-10 -22 -35 -32 -137 -54 -47 -11 -61 -34 -21 -34 15 0 54
7 86 15 64 17 79 14 79 -14 0 -17 -30 -29 -149 -58 -19 -5 -36 -14 -39 -22 -5
-15 -5 -15 103 13 74 19 75 19 75 3 0 -7 -17 -23 -37 -34 -79 -45 -112 -83
-130 -153 -15 -59 -15 -75 -3 -159 8 -52 20 -100 28 -107 7 -8 32 -14 55 -14
23 -1 60 -7 82 -15 52 -19 85 -19 85 0 0 14 -37 28 -125 44 -26 5 -54 15 -62
23 -13 13 -9 19 34 49 26 19 69 46 96 59 45 24 56 42 26 48 -8 1 -44 -17 -80
-41 -91 -60 -99 -63 -99 -28 0 23 13 36 85 86 47 32 85 62 85 67 0 22 -44 4
-90 -37 -57 -50 -80 -57 -80 -22 0 16 9 28 26 36 50 23 145 104 134 115 -6 6
-17 3 -32 -11 -25 -21 -91 -63 -102 -63 -3 0 -6 9 -6 19 0 22 42 57 106 89 49
25 54 36 53 105 -2 100 -24 144 -46 95z"/>
<path d="M198 723 c-62 -3 -78 -7 -78 -19 0 -14 13 -15 98 -9 53 4 99 9 101
11 8 7 -12 24 -27 22 -9 -1 -52 -4 -94 -5z"/>
<path d="M156 621 c-67 -4 -101 -10 -104 -18 -2 -9 7 -13 25 -13 35 0 53 -16
53 -48 0 -17 8 -26 30 -33 31 -11 39 -36 18 -57 -7 -7 -37 -12 -68 -12 -30 0
-62 -5 -70 -10 -27 -18 7 -28 81 -22 65 4 69 3 69 -16 0 -14 -11 -27 -30 -37
-48 -25 -57 -56 -61 -198 -3 -95 -1 -127 8 -127 19 0 33 34 33 78 0 46 11 52
103 52 57 0 57 0 57 -71 0 -52 3 -70 13 -67 9 3 13 44 15 148 3 163 -4 185
-63 196 -26 5 -35 11 -33 23 2 11 20 19 61 25 37 5 57 13 57 22 0 10 -12 12
-50 7 -54 -6 -80 6 -80 38 0 13 7 19 21 19 26 0 79 52 79 78 0 11 7 23 16 26
8 3 12 10 9 16 -6 10 -17 10 -189 1z m129 -31 c11 -18 -23 -58 -54 -65 -39 -8
-71 9 -71 39 0 12 3 26 7 29 10 11 111 8 118 -3z m-7 -265 c13 -5 17 -41 5
-48 -5 -3 -36 -8 -70 -12 -63 -7 -63 -7 -63 18 0 48 53 65 128 42z m12 -110
c0 -23 -4 -25 -44 -25 -24 0 -58 -3 -75 -6 -29 -6 -31 -5 -31 25 0 31 0 31 75
31 73 0 75 -1 75 -25z"/>
</g>
</svg>
