<svg version="1.0" xmlns="http://www.w3.org/2000/svg"
 width="61.000000pt" height="91.000000pt" viewBox="0 0 61.000000 91.000000"
 preserveAspectRatio="xMidYMid meet">
<metadata>
Created by potrace 1.15, written by Peter Selinger 2001-2017
</metadata>
<g transform="translate(0.000000,91.000000) scale(0.100000,-0.100000)"
fill="#000000" stroke="none">
<path d="M142 721 c4 -72 8 -83 37 -117 26 -29 32 -43 28 -68 -3 -17 2 -46 9
-65 8 -18 14 -52 14 -75 0 -23 5 -47 12 -54 21 -21 -6 -38 -37 -24 -19 9 -25
19 -26 44 -2 103 -12 167 -31 206 -21 41 -37 54 -39 30 -5 -62 1 -175 11 -216
9 -38 9 -72 1 -139 -13 -102 -14 -183 -3 -183 11 0 51 100 58 148 4 23 9 44
13 46 3 2 49 1 101 -3 95 -6 95 -6 101 -51 4 -25 12 -65 19 -90 10 -37 14 -41
22 -26 5 9 11 46 12 82 3 61 6 67 52 120 27 30 50 59 52 64 4 11 -29 76 -69
135 -27 40 -30 50 -20 71 16 36 15 134 -2 134 -14 0 -30 -28 -52 -95 -8 -22
-16 -94 -18 -160 -3 -66 -5 -121 -6 -122 -1 -2 -19 -3 -40 -3 -40 0 -40 0 -34
38 3 20 10 45 14 54 5 9 9 27 9 39 0 12 8 27 17 34 15 11 15 17 5 39 -9 20 -9
51 -2 123 11 103 7 133 -15 133 -15 0 -29 -36 -24 -61 5 -25 -12 -139 -20
-139 -22 0 -32 35 -34 116 -1 59 -6 89 -14 91 -17 6 -33 -38 -33 -88 0 -60
-16 -46 -23 19 -8 73 -15 92 -34 92 -13 0 -15 -13 -11 -79z m148 -240 c0 -14
-4 -32 -9 -40 -7 -11 -12 -4 -20 24 -6 21 -8 42 -5 46 10 17 34 -4 34 -30z
m184 -96 c15 -23 15 -27 0 -50 -21 -32 -49 -34 -40 -2 3 12 6 34 6 50 0 34 13
35 34 2z"/>
</g>
</svg>
