<svg version="1.0" xmlns="http://www.w3.org/2000/svg"
 width="57.000000pt" height="93.000000pt" viewBox="0 0 57.000000 93.000000"
 preserveAspectRatio="xMidYMid meet">
<metadata>
Created by potrace 1.15, written by Peter Selinger 2001-2017
</metadata>
<g transform="translate(0.000000,93.000000) scale(0.100000,-0.100000)"
fill="#000000" stroke="none">
<path d="M228 736 c-3 -30 -2 -74 1 -98 5 -38 9 -43 34 -46 15 -2 27 -9 27
-17 0 -24 53 -125 66 -125 12 0 50 129 57 196 8 76 -27 87 -39 13 -8 -48 -27
-46 -35 2 -11 69 -41 81 -57 22 -5 -21 -10 -29 -11 -18 0 11 4 37 10 58 8 30
7 40 -5 52 -29 30 -43 18 -48 -39z"/>
<path d="M154 683 c2 -16 7 -40 11 -55 7 -26 -12 -65 -52 -106 -22 -23 -27
-63 -11 -91 32 -54 30 -75 -12 -151 -58 -105 -52 -119 21 -47 42 43 45 44 84
35 22 -6 80 -13 129 -16 90 -7 90 -7 114 -85 31 -102 47 -101 38 2 -5 58 -3
80 6 83 8 3 5 11 -9 25 -17 17 -20 34 -22 107 -1 82 1 90 30 132 17 24 33 60
36 79 10 60 -9 46 -76 -57 -34 -53 -43 -78 -45 -114 -1 -47 -1 -47 -94 -50
-84 -2 -93 -1 -87 14 29 71 26 147 -10 270 -12 39 -20 52 -35 52 -16 0 -19 -6
-16 -27z m36 -184 c0 -28 -19 -61 -31 -54 -13 9 -11 53 4 69 15 17 27 11 27
-15z m220 -182 c0 -11 -24 -13 -112 -9 -155 6 -162 22 -10 22 95 0 122 -3 122
-13z"/>
</g>
</svg>
