<svg version="1.0" xmlns="http://www.w3.org/2000/svg"
 width="59.000000pt" height="77.000000pt" viewBox="0 0 59.000000 77.000000"
 preserveAspectRatio="xMidYMid meet">
<metadata>
Created by potrace 1.15, written by Peter Selinger 2001-2017
</metadata>
<g transform="translate(0.000000,77.000000) scale(0.100000,-0.100000)"
fill="#000000" stroke="none">
<path d="M110 676 c0 -8 5 -18 10 -21 6 -3 10 -14 10 -24 0 -10 9 -26 20 -36
11 -10 20 -22 20 -27 0 -5 10 -22 22 -38 16 -22 19 -33 11 -41 -12 -12 -53 -3
-53 12 0 5 -10 9 -21 9 -17 0 -20 -4 -15 -22 4 -13 9 -36 12 -53 8 -42 52
-135 63 -135 5 0 11 15 13 33 2 24 8 33 26 35 12 2 22 1 22 -3 0 -3 -19 -40
-42 -83 -110 -204 -105 -192 -85 -192 13 0 107 131 107 149 0 6 4 11 8 11 5 0
14 12 20 26 20 43 32 16 33 -74 0 -48 3 -105 8 -127 6 -37 8 -38 19 -19 6 12
12 65 13 118 3 96 3 97 20 74 10 -13 24 -34 31 -48 7 -14 25 -44 40 -67 15
-23 28 -44 28 -48 0 -4 7 -13 15 -21 8 -9 15 -11 15 -5 0 18 -55 150 -103 249
-18 37 -19 45 -7 52 25 16 40 11 40 -14 0 -35 10 -56 26 -56 8 0 14 2 14 4 0
2 4 27 10 55 14 77 -15 126 -68 115 -29 -6 -52 9 -32 21 5 3 10 15 10 26 0 10
4 19 8 19 5 0 17 17 26 39 14 30 16 43 7 60 -12 22 -26 27 -35 12 -3 -5 -43
-9 -89 -10 -69 -1 -86 1 -103 17 -20 19 -58 42 -68 42 -3 0 -6 -6 -6 -14z
m240 -112 c-6 -14 -15 -35 -22 -47 -11 -21 -11 -21 -19 -2 -4 11 -8 32 -8 48
-1 23 3 27 29 27 28 0 29 -2 20 -26z m-111 -128 c9 -10 8 -15 -4 -20 -21 -7
-45 3 -45 20 0 18 34 18 49 0z m134 -23 c-7 -2 -21 -2 -30 0 -10 3 -4 5 12 5
17 0 24 -2 18 -5z"/>
</g>
</svg>
