<svg version="1.0" xmlns="http://www.w3.org/2000/svg"
 width="67.000000pt" height="95.000000pt" viewBox="0 0 67.000000 95.000000"
 preserveAspectRatio="xMidYMid meet">
<metadata>
Created by potrace 1.15, written by Peter Selinger 2001-2017
</metadata>
<g transform="translate(0.000000,95.000000) scale(0.100000,-0.100000)"
fill="#000000" stroke="none">
<path d="M260 800 c-8 -5 -32 -10 -52 -10 -21 0 -38 -5 -38 -10 0 -13 41 -112
81 -196 16 -34 29 -66 29 -70 0 -14 -152 -7 -161 7 -4 7 -7 36 -6 66 1 52 -12
81 -31 69 -5 -3 -12 -61 -17 -128 -12 -201 -12 -202 6 -206 21 -4 43 40 43 88
0 40 0 40 82 40 46 0 85 -4 88 -9 4 -5 -9 -38 -28 -73 -19 -34 -47 -94 -62
-133 -15 -38 -40 -89 -55 -112 -26 -39 -27 -43 -9 -43 18 0 80 56 80 72 0 15
82 178 90 178 4 0 8 -64 8 -141 1 -78 4 -144 7 -147 17 -17 24 29 27 169 3
166 8 176 43 86 10 -26 22 -50 26 -53 5 -3 22 -33 39 -68 16 -35 37 -66 45
-70 21 -8 19 24 -5 71 -60 119 -119 246 -116 252 2 3 42 6 88 6 83 0 83 0 84
-62 1 -34 5 -70 9 -80 6 -17 7 -17 21 1 19 27 20 263 0 289 -21 28 -26 21 -26
-38 0 -56 0 -56 -82 -53 -82 3 -83 3 -80 28 2 14 12 34 23 46 10 11 19 24 19
30 0 5 14 25 30 44 16 19 33 49 36 67 3 18 12 37 20 44 17 14 18 35 3 45 -19
11 -243 15 -259 4z m64 -127 c-11 -126 -22 -126 -63 -1 -7 21 -17 40 -22 43
-5 4 -9 13 -9 21 0 10 13 14 50 14 51 0 51 0 44 -77z m126 68 c0 -11 -60 -124
-70 -131 -4 -3 -12 -14 -19 -25 -11 -18 -12 -17 -6 10 4 17 9 58 12 93 5 62 5
62 44 62 22 0 39 -4 39 -9z"/>
</g>
</svg>
