<svg version="1.0" xmlns="http://www.w3.org/2000/svg"
 width="121.000000pt" height="124.000000pt" viewBox="0 0 121.000000 124.000000"
 preserveAspectRatio="xMidYMid meet">
<metadata>
Created by potrace 1.15, written by Peter Selinger 2001-2017
</metadata>
<g transform="translate(0.000000,124.000000) scale(0.100000,-0.100000)"
fill="#000000" stroke="none">
<path d="M501 1079 c-118 -5 -219 -13 -224 -18 -14 -14 22 -47 60 -54 17 -3
46 -2 65 4 31 9 162 17 388 24 52 1 109 8 125 14 29 12 29 13 11 27 -22 16
-75 16 -425 3z"/>
<path d="M788 955 c-3 -3 -72 -8 -154 -10 -343 -12 -392 -17 -401 -43 -9 -22
24 -35 102 -40 66 -4 74 -7 168 -70 57 -38 103 -76 108 -90 11 -29 12 -123 0
-140 -12 -20 -202 -45 -218 -28 -2 2 -8 29 -13 61 -9 54 -23 85 -40 85 -13 0
-30 -50 -30 -89 0 -21 -3 -41 -7 -45 -10 -10 -12 -28 -17 -153 -4 -80 -2 -113
6 -113 21 0 69 64 80 107 13 52 22 56 186 70 72 6 72 6 72 -54 0 -58 -1 -61
-44 -101 -25 -23 -48 -42 -52 -42 -7 0 -107 -74 -133 -98 -8 -7 -24 -20 -37
-28 -13 -9 -20 -22 -17 -30 7 -20 72 -8 94 18 9 10 19 18 22 18 4 0 41 23 84
51 75 49 78 50 81 27 2 -12 6 -30 9 -38 3 -8 5 -23 4 -32 -3 -21 16 -58 29
-58 17 0 51 45 49 65 -3 25 11 75 20 75 4 0 20 -11 37 -24 72 -60 204 -110
192 -73 -3 6 -27 29 -54 49 -27 20 -52 40 -57 45 -38 41 -69 72 -96 93 -29 23
-33 33 -38 86 -3 35 -1 64 4 67 5 3 39 9 74 12 64 7 64 7 90 -55 14 -34 30
-62 35 -62 5 0 16 12 23 28 30 59 7 284 -28 284 -11 0 -31 -47 -31 -74 0 -21
-6 -24 -57 -31 -89 -12 -103 -12 -115 2 -16 19 -4 125 18 164 40 70 149 159
194 159 9 0 21 5 28 12 9 9 12 9 12 -2 0 -9 5 -8 20 5 42 38 27 45 -88 45 -60
0 -111 -2 -114 -5z m-58 -85 c0 -5 -7 -28 -16 -50 -11 -28 -22 -40 -36 -40
-22 0 -142 69 -134 77 19 19 186 31 186 13z"/>
</g>
</svg>
