<svg version="1.0" xmlns="http://www.w3.org/2000/svg"
 width="45.000000pt" height="63.000000pt" viewBox="0 0 45.000000 63.000000"
 preserveAspectRatio="xMidYMid meet">
<metadata>
Created by potrace 1.15, written by Peter Selinger 2001-2017
</metadata>
<g transform="translate(0.000000,63.000000) scale(0.100000,-0.100000)"
fill="#000000" stroke="none">
<path d="M163 499 c-36 -10 -44 -34 -15 -43 13 -5 21 -23 28 -67 6 -33 7 -62
3 -65 -13 -8 -69 9 -69 21 0 7 -7 18 -16 26 -13 10 -17 10 -24 -1 -10 -16 -12
-165 -4 -222 6 -42 31 -52 36 -16 2 18 11 24 36 26 27 3 32 0 34 -20 2 -39 -2
-62 -14 -69 -23 -14 2 -38 47 -45 49 -7 162 0 173 10 3 4 -4 13 -16 22 -15 10
-22 25 -22 49 0 64 18 83 38 39 20 -43 35 -18 29 50 -14 149 -23 180 -51 157
-7 -6 -21 -9 -30 -5 -20 8 -24 120 -3 127 8 3 6 10 -8 21 -22 17 -100 20 -152
5z m94 -47 c7 -4 13 -37 15 -77 3 -70 3 -70 38 -75 32 -5 35 -8 38 -42 3 -37
3 -38 -29 -31 -31 6 -31 6 -28 -73 4 -79 4 -79 -28 -82 -36 -4 -36 -3 -48 92
-6 46 -8 48 -34 43 -48 -10 -71 2 -71 34 0 31 27 49 74 49 31 0 46 37 46 110
0 59 4 67 27 52z"/>
</g>
</svg>
