<svg version="1.0" xmlns="http://www.w3.org/2000/svg"
 width="65.000000pt" height="85.000000pt" viewBox="0 0 65.000000 85.000000"
 preserveAspectRatio="xMidYMid meet">
<metadata>
Created by potrace 1.15, written by Peter Selinger 2001-2017
</metadata>
<g transform="translate(0.000000,85.000000) scale(0.100000,-0.100000)"
fill="#000000" stroke="none">
<path d="M268 653 c-26 -6 -22 -32 5 -37 74 -15 78 -17 75 -33 -2 -13 -17 -18
-63 -21 -212 -14 -249 -18 -252 -29 -7 -21 30 -32 73 -23 21 5 82 10 135 10
79 0 98 -3 103 -16 3 -9 6 -17 6 -19 0 -1 -24 -6 -52 -9 -29 -4 -56 -13 -60
-19 -11 -18 -10 -165 2 -188 8 -15 21 -19 60 -19 27 0 51 -4 54 -9 9 -14 -26
-39 -59 -43 -28 -3 -30 -7 -39 -58 -13 -86 -13 -94 8 -98 25 -5 40 23 41 73 0
37 2 40 29 43 28 4 28 4 21 -71 -7 -79 2 -100 31 -76 13 11 14 52 8 323 -3
171 -8 314 -11 319 -4 7 -86 8 -115 0z m82 -243 c0 -28 -2 -30 -40 -30 -33 0
-40 3 -40 20 0 22 25 39 58 40 18 0 22 -5 22 -30z m0 -95 c0 -22 -4 -25 -40
-25 -36 0 -40 3 -40 25 0 23 4 25 40 25 36 0 40 -2 40 -25z"/>
<path d="M437 653 c-4 -3 -7 -15 -7 -25 0 -15 8 -18 48 -18 48 0 49 -1 62 -40
14 -42 8 -62 -12 -42 -17 17 -80 15 -104 -2 -26 -19 -10 -34 41 -38 32 -2 40
-7 40 -23 0 -13 -9 -21 -31 -25 -41 -9 -54 -18 -54 -37 0 -13 9 -15 50 -10 50
6 50 6 50 -33 0 -39 0 -39 -42 -42 -36 -2 -44 -7 -46 -25 -3 -22 -1 -22 42
-17 46 7 46 7 46 -57 0 -60 -2 -66 -33 -90 -17 -14 -42 -31 -54 -38 -13 -6
-23 -19 -23 -27 0 -12 7 -14 33 -9 132 29 155 70 137 252 -9 94 -8 107 12 159
18 47 20 61 10 88 -7 18 -12 39 -12 47 0 32 -44 59 -96 59 -28 0 -54 -3 -57
-7z"/>
<path d="M98 643 c-19 -3 -28 -10 -28 -23 0 -27 10 -30 58 -19 26 5 50 5 66
-1 21 -8 27 -6 35 9 20 36 -31 49 -131 34z"/>
<path d="M57 456 c-10 -27 17 -36 86 -29 65 6 88 23 51 37 -32 12 -132 7 -137
-8z"/>
<path d="M74 365 c-11 -27 6 -36 54 -29 89 13 93 44 6 44 -39 0 -56 -4 -60
-15z"/>
<path d="M125 281 c-36 -6 -40 -9 -47 -46 -5 -22 -7 -69 -6 -105 3 -59 5 -65
26 -68 18 -3 22 1 22 21 0 20 7 26 43 33 42 9 42 9 45 67 3 56 -15 110 -36
106 -4 -1 -25 -5 -47 -8z m45 -91 c0 -46 -2 -50 -25 -50 -19 0 -26 7 -34 38
-16 57 -14 62 24 62 35 0 35 0 35 -50z"/>
</g>
</svg>
