<svg version="1.0" xmlns="http://www.w3.org/2000/svg"
 width="70.000000pt" height="74.000000pt" viewBox="0 0 70.000000 74.000000"
 preserveAspectRatio="xMidYMid meet">
<metadata>
Created by potrace 1.15, written by Peter Selinger 2001-2017
</metadata>
<g transform="translate(0.000000,74.000000) scale(0.100000,-0.100000)"
fill="#000000" stroke="none">
<path d="M375 589 c-22 -4 -82 -8 -133 -8 -90 -1 -132 -11 -132 -31 0 -6 20
-10 44 -10 50 0 61 -10 52 -45 -5 -20 -14 -25 -61 -30 -65 -9 -71 -20 -14 -29
30 -5 51 -2 78 11 31 15 36 24 39 56 3 35 5 37 38 37 34 0 34 0 34 -79 0 -44
-4 -82 -9 -85 -5 -4 -45 -9 -88 -12 -117 -8 -143 -13 -143 -29 0 -12 22 -15
120 -15 120 0 120 0 120 -44 0 -73 3 -76 85 -76 73 0 73 0 77 -42 3 -24 3 -48
1 -54 -6 -16 -96 -31 -226 -40 -73 -4 -107 -10 -104 -18 5 -15 236 -20 304 -6
40 9 58 18 71 38 22 34 22 101 -1 135 -16 25 -22 27 -87 27 -70 0 -70 0 -70
34 0 19 5 38 11 42 7 4 56 8 111 9 102 2 123 9 116 41 -3 17 -11 18 -58 14
-30 -2 -84 -5 -120 -5 -65 0 -65 0 -68 61 -4 83 10 116 46 112 21 -2 27 -8 28
-28 1 -42 3 -46 29 -58 27 -13 97 -16 108 -6 17 17 -8 34 -50 34 -42 0 -44 1
-41 27 2 21 10 29 34 34 42 8 54 17 47 34 -6 17 -116 19 -188 4z"/>
</g>
</svg>
