<svg version="1.0" xmlns="http://www.w3.org/2000/svg"
 width="75.000000pt" height="133.000000pt" viewBox="0 0 75.000000 133.000000"
 preserveAspectRatio="xMidYMid meet">
<metadata>
Created by potrace 1.15, written by Peter Selinger 2001-2017
</metadata>
<g transform="translate(0.000000,133.000000) scale(0.100000,-0.100000)"
fill="#000000" stroke="none">
<path d="M287 1223 c-3 -5 -1 -18 4 -30 8 -21 15 -23 90 -23 71 0 84 3 100 21
10 12 16 26 13 30 -6 11 -201 12 -207 2z"/>
<path d="M182 1056 c-21 -6 -32 -16 -30 -26 3 -12 21 -16 90 -18 60 -2 90 -7
98 -17 16 -19 -6 -213 -26 -232 -8 -8 -40 -13 -89 -13 -88 0 -145 -21 -124
-46 8 -10 37 -14 110 -14 68 0 99 -4 99 -11 0 -18 -39 -152 -50 -171 -6 -10
-10 -24 -10 -33 0 -8 -9 -34 -19 -57 -11 -24 -29 -67 -41 -96 -11 -29 -35 -76
-52 -105 -47 -78 -68 -124 -68 -147 0 -27 11 -25 35 7 11 15 27 34 35 43 34
35 110 141 110 154 0 7 8 24 19 37 10 13 24 42 31 64 7 22 16 44 21 49 5 6 9
19 9 30 0 20 16 78 30 106 4 8 13 39 19 68 7 28 16 54 20 56 4 3 38 6 77 7
113 3 218 22 222 40 5 26 -115 42 -207 29 -41 -6 -76 -8 -79 -5 -8 7 17 183
29 217 11 28 34 38 87 38 27 0 43 5 81 27 2 2 -2 9 -9 18 -10 13 -43 15 -199
14 -102 -1 -201 -7 -219 -13z"/>
<path d="M154 901 c-67 -17 -70 -36 -9 -57 53 -18 145 -1 145 27 0 10 -3 20
-7 22 -17 10 -100 15 -129 8z"/>
<path d="M517 903 c-13 -12 -7 -41 9 -47 28 -11 120 -6 132 6 7 7 12 20 12 30
0 16 -9 18 -73 18 -41 0 -77 -3 -80 -7z"/>
<path d="M92 578 c-13 -6 -21 -19 -20 -27 5 -24 163 -29 172 -5 11 30 -13 44
-73 43 -31 0 -66 -5 -79 -11z"/>
<path d="M493 560 c-54 -22 -12 -52 80 -58 58 -3 75 -1 86 11 31 38 -99 74
-166 47z"/>
</g>
</svg>
