<svg version="1.0" xmlns="http://www.w3.org/2000/svg"
 width="71.000000pt" height="88.000000pt" viewBox="0 0 71.000000 88.000000"
 preserveAspectRatio="xMidYMid meet">
<metadata>
Created by potrace 1.15, written by Peter Selinger 2001-2017
</metadata>
<g transform="translate(0.000000,88.000000) scale(0.100000,-0.100000)"
fill="#000000" stroke="none">
<path d="M130 661 c-23 -6 -26 -13 -31 -76 -4 -39 -7 -119 -8 -178 -1 -89 2
-109 14 -114 9 -3 19 -2 23 1 4 4 9 75 13 157 4 82 10 153 14 157 3 4 84 7
180 7 130 0 176 -4 189 -14 13 -11 16 -36 16 -147 0 -140 8 -166 40 -126 15
18 17 39 13 159 -7 191 4 183 -248 182 -104 -1 -201 -4 -215 -8z"/>
<path d="M160 555 c0 -11 10 -15 36 -15 28 0 35 -4 32 -17 -2 -10 -18 -22 -36
-27 -18 -5 -31 -14 -29 -20 5 -15 139 -15 144 1 2 6 -6 13 -19 15 -15 2 -24
11 -26 25 -3 18 2 22 30 25 64 6 32 23 -49 26 -69 2 -83 0 -83 -13z"/>
<path d="M342 558 c3 -7 18 -15 34 -18 33 -6 40 -33 9 -38 -42 -7 -48 -11 -35
-27 14 -17 125 -21 149 -6 21 13 4 31 -30 31 -22 0 -29 5 -29 20 0 16 7 20 35
20 24 0 35 5 35 15 0 12 -16 15 -86 15 -64 0 -85 -3 -82 -12z"/>
<path d="M183 424 c-22 -9 -14 -33 12 -40 33 -8 27 -28 -11 -34 -36 -6 -39
-34 -4 -38 14 -1 52 1 84 5 66 9 87 30 34 35 -40 4 -52 35 -16 40 13 2 23 10
23 18 0 11 -14 15 -55 17 -30 1 -61 -1 -67 -3z"/>
<path d="M352 417 c-16 -19 -5 -27 35 -27 42 0 44 -23 2 -35 -17 -6 -32 -14
-32 -20 -2 -11 126 -20 151 -10 22 8 -4 35 -34 35 -35 0 -29 26 7 34 18 3 29
11 27 18 -7 19 -141 23 -156 5z"/>
<path d="M265 263 c-182 -3 -197 -6 -193 -36 3 -20 8 -22 51 -19 43 3 57 -4
40 -21 -7 -7 -52 -136 -53 -149 0 -13 37 -9 47 5 5 6 15 32 22 57 7 25 22 61
32 82 18 36 20 36 91 43 40 4 99 5 131 3 65 -3 55 7 122 -131 32 -65 48 -82
70 -73 25 9 17 40 -18 77 -33 34 -77 102 -77 119 0 5 19 10 42 12 31 2 44 8
46 21 3 15 -6 17 -100 15 -57 -1 -170 -4 -253 -5z"/>
<path d="M305 183 c-52 -7 -59 -11 -45 -28 18 -21 160 -21 202 1 24 12 28 18
17 25 -14 9 -115 10 -174 2z"/>
<path d="M348 101 c-110 -6 -142 -17 -114 -40 11 -9 48 -11 144 -5 72 4 136
10 143 14 23 15 1 40 -33 38 -18 -1 -81 -4 -140 -7z"/>
</g>
</svg>
