<svg version="1.0" xmlns="http://www.w3.org/2000/svg"
 width="72.000000pt" height="83.000000pt" viewBox="0 0 72.000000 83.000000"
 preserveAspectRatio="xMidYMid meet">
<metadata>
Created by potrace 1.15, written by Peter Selinger 2001-2017
</metadata>
<g transform="translate(0.000000,83.000000) scale(0.100000,-0.100000)"
fill="#000000" stroke="none">
<path d="M332 748 c-6 -23 -30 -50 -83 -93 -53 -44 -82 -77 -101 -115 -24 -49
-26 -63 -27 -193 -2 -129 -4 -146 -28 -202 -15 -33 -30 -64 -35 -69 -15 -18
-9 -49 8 -42 9 3 17 6 20 6 2 0 17 26 33 58 37 75 51 142 51 255 0 138 9 156
59 121 24 -17 24 -17 -5 -29 -29 -13 -29 -13 -1 -24 33 -13 35 -28 5 -33 -13
-2 -23 -10 -23 -18 0 -11 13 -16 49 -18 57 -4 80 11 51 32 -16 11 -17 16 -7
29 11 13 11 19 0 36 -11 19 -9 24 22 51 35 31 35 31 -2 25 -37 -6 -38 -5 -38
25 0 39 -19 39 -27 0 -7 -38 -13 -42 -37 -25 -17 13 -15 17 27 62 25 26 64 58
86 70 39 23 39 23 91 -12 28 -19 68 -44 90 -56 21 -12 42 -29 46 -38 4 -9 10
-106 14 -216 5 -113 13 -215 20 -235 15 -42 38 -70 57 -70 24 0 25 27 3 75
-18 41 -22 74 -29 251 -7 203 -7 203 -37 241 -19 22 -61 53 -110 77 -60 31
-83 49 -94 73 -19 41 -37 42 -48 1z"/>
<path d="M440 560 c0 -35 -22 -49 -46 -30 -10 9 -18 10 -26 2 -7 -7 2 -18 31
-37 22 -15 41 -29 41 -31 0 -2 -15 -10 -32 -18 -34 -14 -33 -15 18 -31 24 -8
11 -30 -20 -33 -52 -6 -22 -27 39 -27 58 0 86 17 45 28 -27 7 -26 31 3 45 22
11 22 11 0 18 -29 8 -29 15 2 44 14 13 25 28 25 33 0 5 -11 7 -25 5 -23 -5
-25 -2 -25 28 0 24 -5 34 -15 34 -10 0 -15 -10 -15 -30z"/>
<path d="M330 345 c-15 -18 -6 -45 13 -45 20 0 40 27 33 45 -7 19 -30 19 -46
0z"/>
<path d="M316 271 c-50 -4 -81 -11 -84 -18 -4 -15 -15 -14 126 -17 79 -2 116
1 123 10 5 7 6 14 2 17 -17 10 -91 13 -167 8z"/>
<path d="M338 213 c-28 -7 -22 -42 7 -49 33 -8 71 22 54 43 -11 13 -28 15 -61
6z"/>
<path d="M230 132 c-15 -5 -12 -29 4 -35 8 -3 56 -8 108 -12 93 -6 143 5 139
30 -1 9 -229 24 -251 17z"/>
</g>
</svg>
