<svg version="1.0" xmlns="http://www.w3.org/2000/svg"
 width="69.000000pt" height="94.000000pt" viewBox="0 0 69.000000 94.000000"
 preserveAspectRatio="xMidYMid meet">
<metadata>
Created by potrace 1.15, written by Peter Selinger 2001-2017
</metadata>
<g transform="translate(0.000000,94.000000) scale(0.100000,-0.100000)"
fill="#000000" stroke="none">
<path d="M327 834 c-4 -4 -7 -20 -7 -35 0 -24 -6 -30 -47 -44 -102 -36 -153
-61 -153 -72 0 -20 40 -15 95 10 71 33 105 41 105 23 0 -20 -19 -33 -70 -46
-25 -6 -64 -20 -86 -30 -23 -11 -53 -22 -67 -25 -14 -4 -28 -14 -31 -22 -5
-12 0 -14 26 -11 69 10 135 31 204 64 81 39 84 40 126 18 24 -12 28 -18 17
-25 -11 -6 -6 -17 24 -47 43 -44 45 -52 13 -52 -16 0 -35 13 -55 38 -28 34
-30 35 -31 14 0 -38 52 -82 97 -82 32 0 43 -6 61 -30 22 -29 72 -43 72 -20 0
6 -4 10 -9 10 -5 0 -19 14 -31 30 -22 30 -22 30 1 49 22 18 22 19 6 45 -17 26
-17 26 12 26 28 0 47 22 35 41 -3 5 -30 9 -61 9 -70 0 -193 35 -193 55 0 19
24 19 75 0 47 -17 115 -20 115 -5 0 13 -40 29 -105 41 -77 14 -84 18 -87 47
-3 26 -34 42 -51 26z m200 -218 c22 -20 25 -27 16 -37 -7 -7 -14 -11 -15 -8
-2 2 -16 19 -32 37 -23 24 -26 32 -13 32 9 0 29 -11 44 -24z"/>
<path d="M252 598 c-9 -11 -26 -30 -37 -42 -20 -21 -20 -21 -23 7 -2 15 -9 27
-17 27 -20 0 -27 -33 -15 -65 8 -22 7 -33 -5 -51 -35 -53 -8 -59 39 -9 21 22
43 35 58 35 32 0 78 36 78 61 0 25 -5 24 -46 -7 -44 -34 -55 -25 -20 16 14 17
26 36 26 41 0 16 -20 10 -38 -13z"/>
<path d="M272 426 c-22 -24 -48 -58 -56 -75 -9 -17 -21 -31 -26 -31 -15 0 -12
54 5 76 16 21 20 54 6 54 -9 0 -61 -103 -61 -121 0 -5 11 -21 24 -34 23 -23
24 -26 11 -68 -22 -72 -29 -153 -14 -162 18 -12 39 23 39 64 1 20 7 60 14 90
11 48 16 56 44 65 33 12 69 42 60 51 -3 3 -21 -2 -41 -10 -21 -8 -37 -14 -37
-11 0 19 35 78 64 108 39 41 43 48 22 48 -7 0 -32 -20 -54 -44z"/>
<path d="M410 462 c0 -5 10 -17 21 -28 21 -18 49 -72 49 -94 0 -18 -39 -11
-57 10 -17 20 -43 27 -43 12 0 -22 35 -53 73 -64 23 -6 45 -16 49 -22 3 -5 12
-63 19 -128 6 -65 16 -118 21 -118 29 0 34 125 9 234 -10 45 -9 52 9 71 11 12
20 32 20 44 0 26 -36 91 -50 91 -18 0 -21 -21 -6 -42 20 -28 20 -52 2 -67 -11
-9 -15 -6 -20 16 -10 39 -96 115 -96 85z"/>
<path d="M298 265 c-47 -52 -58 -75 -38 -75 6 0 27 18 49 40 21 22 41 40 45
40 3 0 25 -13 48 -30 41 -30 68 -38 68 -20 0 5 -12 16 -27 24 -16 8 -41 28
-57 45 -17 17 -32 31 -35 30 -3 0 -27 -24 -53 -54z"/>
<path d="M304 181 c-21 -15 -50 -40 -63 -55 -23 -25 -23 -26 -4 -26 11 0 41
14 68 32 48 32 48 32 89 10 42 -23 76 -29 76 -14 0 10 -102 82 -117 82 -5 0
-28 -13 -49 -29z"/>
</g>
</svg>
