<svg version="1.0" xmlns="http://www.w3.org/2000/svg"
 width="74.000000pt" height="97.000000pt" viewBox="0 0 74.000000 97.000000"
 preserveAspectRatio="xMidYMid meet">
<metadata>
Created by potrace 1.15, written by Peter Selinger 2001-2017
</metadata>
<g transform="translate(0.000000,97.000000) scale(0.100000,-0.100000)"
fill="#000000" stroke="none">
<path d="M223 763 c-26 -5 -31 -28 -7 -37 9 -3 33 -6 55 -6 30 0 42 -5 55 -24
8 -14 14 -35 12 -48 -2 -19 -10 -23 -45 -26 -49 -4 -83 11 -83 36 0 21 -19 42
-37 42 -14 0 -18 -76 -5 -96 11 -16 70 -34 114 -34 63 0 45 -27 -52 -78 -46
-24 -92 -49 -100 -56 -29 -21 -59 -67 -53 -82 10 -25 43 -15 91 29 64 59 122
97 149 97 19 0 23 -5 23 -30 0 -23 -5 -31 -22 -34 -13 -2 -43 -8 -67 -13 -54
-10 -64 -30 -22 -46 17 -6 31 -15 31 -20 0 -4 -9 -35 -21 -69 -28 -84 -38
-228 -16 -246 23 -20 33 7 42 108 7 90 37 201 60 220 15 12 112 3 121 -12 3
-5 -10 -24 -30 -42 -33 -29 -36 -37 -36 -85 0 -44 6 -61 40 -111 41 -60 77
-93 92 -84 17 11 7 37 -31 82 -71 85 -73 119 -7 181 62 60 37 121 -58 140 -24
5 -29 12 -31 39 -2 21 2 35 11 39 16 6 99 -35 167 -83 54 -39 87 -44 87 -15 0
22 -61 77 -97 86 -13 3 -47 16 -76 29 -28 13 -60 26 -69 30 -40 13 1 46 56 46
28 0 60 33 81 83 13 32 14 42 3 65 -17 35 -48 42 -48 10 0 -13 -5 -40 -10 -60
-9 -31 -17 -39 -47 -47 -43 -12 -53 -8 -53 23 0 37 -21 86 -40 96 -19 10 -84
11 -127 3z"/>
</g>
</svg>
