<svg version="1.0" xmlns="http://www.w3.org/2000/svg"
 width="74.000000pt" height="91.000000pt" viewBox="0 0 74.000000 91.000000"
 preserveAspectRatio="xMidYMid meet">
<metadata>
Created by potrace 1.15, written by Peter Selinger 2001-2017
</metadata>
<g transform="translate(0.000000,91.000000) scale(0.100000,-0.100000)"
fill="#000000" stroke="none">
<path d="M338 689 c-3 -30 -10 -36 -120 -91 -77 -40 -118 -66 -121 -79 -3 -12
0 -22 8 -25 12 -5 204 90 215 107 20 30 126 5 242 -58 39 -21 50 -24 63 -13 8
7 15 16 15 21 0 12 -148 85 -190 93 -66 14 -69 16 -67 44 2 21 -3 28 -20 30
-18 3 -22 -2 -25 -29z"/>
<path d="M357 543 c-4 -3 -7 -42 -7 -85 0 -78 0 -78 -115 -78 -96 0 -117 -3
-122 -16 -12 -32 12 -38 119 -27 57 6 108 8 115 6 9 -4 11 -40 6 -147 -6 -149
-1 -173 34 -145 13 11 15 34 11 151 -4 138 -4 138 100 138 102 0 103 0 100 23
-3 21 -6 22 -107 21 -103 -1 -103 -1 -99 60 6 79 -10 125 -35 99z"/>
</g>
</svg>
