<svg version="1.0" xmlns="http://www.w3.org/2000/svg"
 width="57.000000pt" height="153.000000pt" viewBox="0 0 57.000000 153.000000"
 preserveAspectRatio="xMidYMid meet">
<metadata>
Created by potrace 1.15, written by Peter Selinger 2001-2017
</metadata>
<g transform="translate(0.000000,153.000000) scale(0.100000,-0.100000)"
fill="#000000" stroke="none">
<path d="M252 1355 c2 -71 7 -98 18 -105 27 -17 35 -5 38 55 4 76 -16 145 -41
145 -17 0 -19 -7 -15 -95z"/>
<path d="M380 1376 c0 -21 36 -98 57 -122 18 -20 55 -44 67 -44 17 0 1 46 -30
87 -20 26 -40 58 -45 70 -9 25 -49 32 -49 9z"/>
<path d="M137 1344 c-4 -4 -7 -14 -7 -22 0 -9 -18 -53 -40 -98 -35 -73 -43
-114 -20 -114 10 0 40 35 40 47 0 6 4 13 8 15 17 7 63 119 60 145 -3 27 -26
42 -41 27z"/>
<path d="M288 1190 c-49 -6 -70 -20 -128 -84 -41 -46 -44 -62 -10 -58 26 3 67
36 75 61 8 25 59 42 117 39 50 -3 53 -4 49 -28 -1 -14 -13 -38 -24 -55 -24
-34 -117 -125 -128 -125 -4 0 -14 -6 -21 -12 -7 -7 -24 -19 -38 -26 -14 -7
-38 -25 -54 -39 -30 -25 -30 -25 -17 -117 7 -50 16 -118 21 -151 4 -33 20
-105 34 -160 14 -55 26 -113 26 -130 1 -53 26 -130 44 -133 10 -2 16 3 16 16
0 16 9 20 48 25 26 2 54 8 63 11 13 6 18 -1 23 -31 21 -119 29 -143 49 -143
17 0 19 4 12 43 -25 147 -24 167 1 204 24 35 33 93 15 93 -5 0 -13 9 -16 20
-10 30 -45 60 -72 60 -31 0 -29 -12 12 -66 19 -25 35 -52 35 -59 0 -18 -17
-28 -25 -15 -18 29 -145 55 -145 30 0 -6 21 -20 47 -31 25 -11 52 -27 59 -36
10 -14 8 -19 -13 -30 -14 -7 -45 -13 -68 -13 -43 0 -43 0 -47 58 -4 56 10 293
17 301 3 2 24 -15 47 -38 43 -41 58 -49 58 -32 0 16 -42 85 -67 109 -28 28
-28 33 -4 63 20 24 20 24 45 -3 15 -15 26 -32 26 -38 0 -16 37 -53 43 -43 9
14 -8 72 -33 115 -16 28 -12 42 19 60 28 15 30 15 44 0 8 -10 21 -30 28 -46 8
-16 20 -32 28 -34 18 -6 10 53 -13 100 -20 39 -20 52 -1 68 12 10 16 8 24 -11
5 -13 19 -35 31 -49 23 -25 23 -25 16 18 -3 24 -12 52 -18 62 -10 16 -9 25 5
49 9 16 17 41 17 56 0 33 -48 113 -72 121 -10 3 -18 11 -18 19 0 25 -85 44
-162 35z m184 -117 c18 -16 26 -83 9 -83 -5 0 -14 14 -21 30 -7 17 -16 30 -21
30 -5 0 -9 9 -9 20 0 24 17 26 42 3z m-43 -86 c25 -45 26 -60 6 -77 -13 -11
-18 -10 -30 6 -8 10 -15 27 -15 36 0 9 -5 18 -12 20 -7 3 -5 13 7 31 10 15 19
26 20 25 2 -2 12 -20 24 -41z m-79 -63 c0 -8 4 -14 9 -14 5 0 11 -8 15 -17 3
-10 8 -23 11 -28 6 -13 -45 -44 -62 -38 -7 3 -13 11 -13 19 0 8 -5 23 -12 34
-10 16 -9 23 11 44 24 26 41 26 41 0z m-103 -77 c32 -37 35 -68 11 -94 -12
-13 -25 -23 -29 -23 -11 0 -59 83 -59 102 0 12 30 35 51 37 3 1 14 -9 26 -22z
m-62 -144 c26 -30 31 -82 16 -158 -9 -40 -9 -40 -12 -5 -4 52 -6 64 -12 80 -9
24 -25 110 -20 110 2 0 15 -12 28 -27z"/>
</g>
</svg>
