<svg version="1.0" xmlns="http://www.w3.org/2000/svg"
 width="70.000000pt" height="96.000000pt" viewBox="0 0 70.000000 96.000000"
 preserveAspectRatio="xMidYMid meet">
<metadata>
Created by potrace 1.15, written by Peter Selinger 2001-2017
</metadata>
<g transform="translate(0.000000,96.000000) scale(0.100000,-0.100000)"
fill="#000000" stroke="none">
<path d="M245 654 c-50 -35 -102 -72 -117 -82 -30 -18 -42 -38 -32 -53 7 -12
41 -12 49 0 3 6 27 24 53 42 43 29 54 32 130 33 70 1 86 4 98 20 14 19 14 19
41 -5 15 -13 44 -41 64 -61 38 -40 68 -48 88 -24 14 17 5 41 -26 68 -27 24
-224 128 -242 128 -9 -1 -56 -30 -106 -66z m150 6 c18 -20 17 -20 -31 -20 -49
1 -49 1 -25 20 29 25 34 25 56 0z"/>
<path d="M378 560 c-54 -10 -78 -35 -75 -79 2 -36 2 -36 -76 -42 -43 -4 -83
-11 -89 -17 -21 -21 5 -32 78 -32 64 0 75 -2 72 -16 -2 -9 -21 -22 -43 -30
-65 -22 -85 -53 -85 -132 0 -99 28 -151 95 -174 68 -23 128 -21 200 6 73 27
95 61 95 148 0 77 -24 136 -59 144 -54 12 -61 16 -61 35 0 17 7 19 59 19 67 0
91 6 91 25 0 20 -25 25 -126 25 -95 0 -95 0 -92 33 3 31 4 32 56 35 43 3 52 6
52 22 0 18 -28 41 -47 39 -4 -1 -25 -5 -45 -9z m10 -187 c-2 -10 -13 -19 -26
-21 -17 -3 -22 2 -22 17 0 16 6 21 26 21 19 0 25 -5 22 -17z m82 -78 c15 -18
6 -45 -15 -45 -18 0 -30 24 -21 45 7 19 20 19 36 0z m-195 -20 c0 -14 -8 -21
-27 -23 -22 -3 -28 1 -28 17 0 10 6 22 13 24 23 10 42 2 42 -18z m115 -15 c9
-52 17 -60 61 -60 36 0 39 -2 39 -27 0 -55 -12 -57 -84 -17 -67 37 -67 37 -94
17 -52 -38 -72 -45 -88 -32 -8 6 -14 22 -14 35 0 19 5 24 25 24 41 0 84 27 91
58 14 54 56 55 64 2z m-1 -144 c22 -23 22 -23 -10 -30 -17 -3 -52 -6 -76 -6
-53 0 -54 16 -2 42 46 23 62 22 88 -6z"/>
</g>
</svg>
