<svg version="1.0" xmlns="http://www.w3.org/2000/svg"
 width="69.000000pt" height="89.000000pt" viewBox="0 0 69.000000 89.000000"
 preserveAspectRatio="xMidYMid meet">
<metadata>
Created by potrace 1.15, written by Peter Selinger 2001-2017
</metadata>
<g transform="translate(0.000000,89.000000) scale(0.100000,-0.100000)"
fill="#000000" stroke="none">
<path d="M330 695 c0 -13 22 -15 135 -15 143 0 180 13 68 23 -124 12 -203 9
-203 -8z"/>
<path d="M110 638 c-19 -31 -20 -52 -20 -316 0 -265 1 -283 18 -280 16 3 17
26 20 278 2 240 4 276 19 292 9 11 26 18 37 16 21 -3 21 -9 24 -295 1 -161 6
-293 10 -293 29 0 32 30 32 305 0 324 0 325 -76 325 -39 0 -47 -4 -64 -32z"/>
<path d="M525 610 c-33 -4 -93 -5 -132 -2 -51 3 -77 1 -88 -8 -24 -20 -18 -30
20 -30 19 0 35 -3 35 -6 0 -3 -11 -19 -25 -36 -35 -41 -32 -61 11 -82 37 -17
37 -17 15 -40 -25 -26 -27 -49 -5 -66 29 -25 37 -50 21 -68 -36 -43 -58 -110
-55 -169 2 -44 7 -58 18 -58 12 0 16 18 20 82 4 61 11 90 26 109 11 15 24 27
29 27 23 -1 36 -50 33 -128 -2 -66 0 -80 12 -80 12 0 15 17 15 97 0 86 -2 99
-22 120 -23 24 -23 24 10 56 33 32 33 32 55 9 24 -25 41 -119 42 -224 0 -49 3
-63 15 -63 12 0 15 17 15 90 0 117 -14 181 -47 210 -25 22 -25 22 6 54 17 18
31 41 31 52 0 22 -58 84 -78 84 -7 0 -32 -18 -56 -40 -45 -42 -71 -49 -98 -27
-15 11 -13 17 22 55 39 44 39 44 155 49 99 5 115 8 113 22 -4 19 -30 21 -113
11z m5 -126 c11 -27 3 -51 -24 -73 -11 -10 -21 -8 -48 6 -41 22 -39 35 10 68
46 31 50 31 62 -1z m-62 -96 c19 -16 15 -26 -18 -43 -27 -14 -32 -14 -55 1
-31 20 -31 29 -3 48 22 16 51 13 76 -6z"/>
</g>
</svg>
