<svg version="1.0" xmlns="http://www.w3.org/2000/svg"
 width="66.000000pt" height="122.000000pt" viewBox="0 0 66.000000 122.000000"
 preserveAspectRatio="xMidYMid meet">
<metadata>
Created by potrace 1.15, written by Peter Selinger 2001-2017
</metadata>
<g transform="translate(0.000000,122.000000) scale(0.100000,-0.100000)"
fill="#000000" stroke="none">
<path d="M464 1124 c-13 -40 -28 -64 -43 -69 -28 -9 -73 -57 -63 -67 10 -10
62 10 62 24 0 4 9 8 20 8 15 0 20 -7 20 -25 0 -14 3 -25 8 -25 11 0 34 16 33
24 -8 58 30 63 82 11 41 -41 57 -44 57 -11 0 19 -12 29 -65 55 -36 17 -70 31
-76 31 -6 0 -8 8 -4 19 3 10 -1 23 -10 31 -12 10 -16 9 -21 -6z"/>
<path d="M150 1075 c-5 -14 -18 -29 -27 -32 -10 -4 -23 -12 -29 -17 -6 -6 -23
-21 -38 -33 -14 -13 -26 -27 -26 -33 0 -15 27 -12 44 5 8 8 22 15 30 15 9 0
16 5 16 10 0 6 6 10 14 10 16 0 29 -79 16 -96 -6 -6 -11 -56 -12 -111 -3 -106
-2 -110 53 -145 18 -12 49 -17 95 -18 96 0 103 0 156 12 40 8 50 7 63 -6 9 -9
23 -16 31 -16 34 0 69 -52 65 -97 -2 -20 -25 -15 -38 7 -7 10 -40 33 -74 50
-71 35 -69 34 -69 16 0 -7 15 -21 33 -29 39 -19 81 -62 73 -75 -7 -12 -98 6
-108 21 -4 6 -10 8 -13 5 -4 -4 -4 -12 0 -18 8 -13 103 -60 121 -60 22 0 27
-34 32 -214 3 -141 8 -183 19 -194 12 -13 16 -13 23 -2 8 13 7 51 -5 321 -4
105 -4 106 20 119 22 12 25 20 25 70 0 34 -5 62 -12 67 -10 8 -87 50 -106 59
-1 0 5 18 13 38 11 27 14 57 10 113 -4 65 -9 81 -29 102 -28 28 -92 41 -146
30 -19 -4 -66 -9 -105 -11 -70 -3 -70 -3 -70 50 -1 36 3 52 12 52 7 0 13 -4
13 -10 0 -5 5 -10 11 -10 6 0 20 -11 30 -24 19 -24 52 -26 65 -4 9 14 -26 43
-67 57 -20 6 -45 20 -57 31 -28 26 -41 25 -52 -5z m230 -165 c0 -6 21 -9 46
-8 44 1 64 -10 64 -37 0 -5 -4 -4 -9 4 -5 7 -14 11 -20 7 -17 -11 -119 -27
-203 -32 -73 -5 -78 -4 -78 15 0 25 51 41 133 41 36 0 56 4 52 10 -3 6 -1 10
4 10 6 0 11 -5 11 -10z m103 -86 c11 -4 13 -13 8 -32 -7 -27 -7 -27 -112 -27
-146 0 -199 10 -199 37 0 20 3 21 98 15 53 -3 113 -2 132 2 45 12 55 12 73 5z
m-186 -96 c25 -9 46 -9 86 -1 32 7 68 8 88 3 19 -4 26 -8 16 -9 -10 -1 -20 -7
-23 -15 -8 -22 -89 -35 -179 -29 -84 5 -105 14 -105 44 0 16 8 19 42 19 23 0
57 -5 75 -12z"/>
<path d="M96 625 c-59 -68 -64 -119 -15 -170 15 -17 18 -30 13 -65 -8 -59 -11
-101 -20 -247 -6 -107 -5 -123 8 -123 31 0 36 26 39 180 2 85 8 173 14 195 11
37 15 40 51 43 21 2 47 12 56 22 9 10 22 20 29 22 16 5 2 48 -17 48 -8 0 -24
-11 -36 -25 -24 -27 -58 -34 -58 -11 0 8 11 27 25 42 29 31 31 42 9 51 -17 6
-64 -37 -78 -72 -6 -16 -9 -17 -16 -5 -18 29 -10 58 25 89 28 24 33 33 21 37
-9 3 -13 10 -10 15 13 22 -14 4 -40 -26z"/>
<path d="M314 488 c-8 -37 -13 -44 -39 -48 -26 -4 -30 -10 -33 -39 -4 -37 9
-51 46 -51 29 0 28 -18 -1 -29 -35 -14 -49 -36 -45 -78 3 -32 7 -39 28 -41 44
-6 43 -19 -8 -69 -46 -44 -73 -95 -59 -110 8 -7 37 22 37 37 0 16 47 60 65 60
11 0 15 -11 15 -44 0 -27 6 -48 15 -56 22 -18 28 -7 31 56 2 31 6 59 9 62 8 9
55 -40 72 -76 18 -37 39 -37 36 1 -2 27 -39 77 -58 77 -6 0 -22 10 -34 22 -22
20 -23 22 -6 34 9 7 23 10 31 7 20 -8 54 25 54 53 0 13 -11 31 -26 41 -26 19
-26 19 -5 62 20 43 20 43 -9 72 -15 16 -37 29 -48 29 -15 0 -21 9 -26 35 -9
48 -30 44 -42 -7z m86 -89 c0 -16 -8 -19 -60 -19 -43 0 -60 4 -60 13 0 22 9
25 66 25 46 -1 54 -3 54 -19z m-3 -55 c1 -5 -2 -16 -7 -24 -12 -20 -33 0 -24
24 7 17 25 17 31 0z m21 -89 c4 -4 -4 -14 -17 -24 -37 -28 -130 -14 -131 21 0
3 8 9 18 12 21 6 122 -1 130 -9z"/>
</g>
</svg>
