<svg version="1.0" xmlns="http://www.w3.org/2000/svg"
 width="93.000000pt" height="113.000000pt" viewBox="0 0 93.000000 113.000000"
 preserveAspectRatio="xMidYMid meet">
<metadata>
Created by potrace 1.15, written by Peter Selinger 2001-2017
</metadata>
<g transform="translate(0.000000,113.000000) scale(0.100000,-0.100000)"
fill="#000000" stroke="none">
<path d="M682 971 c-9 -5 -12 -34 -11 -102 1 -95 1 -95 -52 -149 -98 -102
-138 -190 -86 -190 26 0 108 37 119 54 5 8 11 7 19 -1 9 -9 14 -75 17 -225 3
-185 7 -219 24 -263 25 -60 51 -85 88 -85 42 0 55 42 54 180 -1 93 -5 124 -21
160 -11 25 -25 63 -32 85 -6 22 -17 64 -26 94 -23 82 -22 84 33 78 26 -3 59
-8 75 -12 25 -7 27 -5 27 21 0 19 -11 38 -36 61 -20 18 -41 33 -46 33 -5 0
-23 13 -40 28 -27 26 -31 38 -40 113 -5 46 -12 94 -14 107 -4 22 -28 29 -52
13z"/>
<path d="M155 923 c-11 -3 -35 -12 -52 -20 -40 -19 -46 -58 -10 -72 27 -11 46
-34 78 -92 13 -24 26 -46 29 -49 3 -3 10 -15 17 -26 17 -32 -2 -44 -69 -44
-52 0 -58 -2 -58 -21 0 -26 18 -44 51 -52 14 -4 41 -20 60 -36 36 -31 36 -31
34 -118 -1 -87 -1 -87 -39 -97 -41 -9 -60 4 -51 34 8 25 -30 77 -60 82 -33 7
-40 -8 -26 -59 6 -21 11 -55 11 -77 0 -137 88 -229 221 -229 58 0 119 20 119
39 0 6 7 17 16 25 8 7 27 35 41 63 31 60 39 180 13 196 -27 17 -90 -11 -90
-39 0 -12 -68 -26 -78 -16 -4 3 -5 42 -4 86 3 69 6 82 28 104 14 14 29 25 33
25 22 0 111 108 111 134 0 13 -30 4 -81 -24 -64 -35 -89 -38 -89 -11 0 11 -4
23 -10 26 -12 7 -14 55 -2 55 4 0 19 18 32 40 14 22 28 40 33 40 4 0 7 6 7 13
0 6 16 23 36 37 38 25 63 65 50 78 -8 8 -269 12 -301 5z m135 -79 c0 -21 -13
-58 -26 -73 -5 -5 -29 22 -43 48 -11 19 -10 25 6 37 10 7 28 14 41 14 17 0 22
-6 22 -26z m100 -619 c0 -4 -7 -19 -15 -35 -29 -55 -113 -77 -174 -45 -28 14
-48 56 -36 75 6 10 225 14 225 5z"/>
</g>
</svg>
