<svg version="1.0" xmlns="http://www.w3.org/2000/svg"
 width="62.000000pt" height="129.000000pt" viewBox="0 0 62.000000 129.000000"
 preserveAspectRatio="xMidYMid meet">
<metadata>
Created by potrace 1.15, written by Peter Selinger 2001-2017
</metadata>
<g transform="translate(0.000000,129.000000) scale(0.100000,-0.100000)"
fill="#000000" stroke="none">
<path d="M307 1164 c-4 -4 -7 -24 -7 -44 0 -47 -14 -59 -65 -56 -34 2 -42 7
-57 36 -16 32 -34 50 -50 50 -13 0 -9 -46 8 -78 15 -32 32 -38 114 -44 23 -2
36 -9 38 -19 2 -13 -11 -17 -80 -22 -89 -7 -102 -15 -111 -64 -8 -44 7 -52
102 -60 44 -3 81 -9 81 -13 0 -9 -51 -20 -93 -20 -34 0 -96 -19 -113 -35 -47
-45 -47 -301 1 -375 23 -36 57 -48 178 -66 28 -5 37 -10 35 -23 -2 -9 -14 -18
-28 -21 -44 -9 -94 -41 -137 -89 -24 -25 -43 -50 -43 -54 0 -4 -9 -27 -20 -49
-20 -41 -27 -98 -12 -98 24 1 40 28 69 112 3 10 9 18 14 18 5 0 9 7 9 14 0 33
97 106 141 106 20 0 20 -4 15 -114 -5 -131 -1 -156 25 -156 17 0 19 9 20 103
1 56 0 120 -1 141 -2 39 -2 39 32 32 43 -9 88 -29 88 -39 0 -5 8 -21 19 -35
35 -50 60 -101 67 -137 5 -29 10 -36 28 -33 16 2 22 11 24 37 2 19 0 37 -5 40
-7 5 -35 55 -66 117 -14 27 -91 77 -144 92 -49 15 -57 32 -14 32 17 0 33 5 36
10 3 6 22 10 42 10 20 0 53 5 74 12 34 10 41 17 59 65 17 45 20 78 20 196 0
99 -4 148 -13 160 -10 14 -35 19 -130 24 -88 5 -117 9 -117 20 0 8 12 13 33
13 56 1 152 12 158 19 10 10 18 66 11 77 -15 24 -54 34 -127 34 -56 0 -76 3
-73 12 6 16 41 26 98 27 55 1 100 35 100 75 0 34 -24 34 -54 0 -16 -19 -37
-29 -71 -34 -28 -4 -55 -5 -62 -3 -7 3 -13 25 -15 51 -3 43 -15 61 -31 46z
m-9 -236 c-2 -19 -11 -24 -48 -29 -47 -6 -110 6 -110 21 0 18 37 29 98 30 60
0 63 -1 60 -22z m182 -2 c0 -21 -5 -24 -61 -30 -67 -8 -72 -6 -76 29 -4 25 -2
25 67 25 67 0 70 -1 70 -24z m-10 -145 c0 -21 -89 -28 -108 -9 -10 10 -15 10
-21 -1 -5 -7 -7 -21 -6 -30 2 -9 4 -21 4 -27 1 -17 48 -34 96 -34 55 0 78 21
73 67 -4 33 11 43 38 25 13 -8 18 -220 6 -237 -4 -5 -9 -23 -11 -39 -4 -43
-29 -75 -65 -84 -36 -10 -277 -8 -322 2 -51 11 -65 49 -67 179 -1 76 2 122 12
145 14 34 42 44 39 15 -4 -48 2 -61 32 -66 42 -9 38 -27 -6 -27 -46 0 -41 -23
7 -30 22 -4 29 -7 18 -12 -8 -3 -27 -4 -42 -1 -16 3 -27 1 -27 -6 0 -6 17 -11
40 -11 22 0 40 -4 40 -10 0 -5 -13 -10 -29 -10 -17 0 -33 -4 -36 -10 -7 -11
36 -13 85 -4 28 6 31 10 28 35 -4 23 -1 29 14 29 14 0 18 -8 18 -39 0 -37 -2
-39 -35 -45 -19 -3 -51 -9 -70 -12 -30 -5 -35 -10 -35 -33 0 -15 5 -32 12 -39
14 -14 154 -17 162 -3 9 14 -20 21 -80 21 -39 0 -54 4 -54 14 0 15 30 26 73
26 53 0 67 15 67 73 0 63 -11 77 -64 78 -41 1 -41 1 -8 10 30 9 32 12 32 55 0
40 -2 45 -17 38 -30 -13 -93 -17 -93 -6 0 6 6 13 13 15 22 9 287 7 287 -2z
m-230 -61 c0 -5 -13 -10 -30 -10 -16 0 -30 5 -30 10 0 6 14 10 30 10 17 0 30
-4 30 -10z m220 0 c0 -13 -50 -13 -70 0 -11 7 -4 10 28 10 23 0 42 -4 42 -10z"/>
<path d="M375 660 c-3 -4 2 -15 11 -24 14 -14 13 -18 -11 -39 -27 -22 -27 -22
-4 -51 23 -29 23 -29 1 -44 -12 -8 -22 -18 -22 -23 0 -12 37 -11 45 1 11 17
35 11 61 -15 14 -14 29 -25 34 -25 18 0 10 33 -12 57 -22 23 -22 24 -3 29 11
3 25 17 32 31 11 22 10 28 -10 43 -22 18 -22 18 3 38 34 27 19 38 -30 22 -30
-10 -46 -11 -65 -2 -13 6 -27 7 -30 2z m83 -83 c2 -10 -6 -19 -22 -23 -45 -11
-65 19 -23 36 28 11 41 8 45 -13z"/>
</g>
</svg>
