<svg version="1.0" xmlns="http://www.w3.org/2000/svg"
 width="65.000000pt" height="86.000000pt" viewBox="0 0 65.000000 86.000000"
 preserveAspectRatio="xMidYMid meet">
<metadata>
Created by potrace 1.15, written by Peter Selinger 2001-2017
</metadata>
<g transform="translate(0.000000,86.000000) scale(0.100000,-0.100000)"
fill="#000000" stroke="none">
<path d="M71 657 c-34 -8 -38 -18 -17 -36 9 -8 35 -10 79 -5 36 4 77 4 91 0
26 -6 26 -7 26 -115 0 -60 3 -116 6 -125 5 -12 21 -16 70 -16 76 0 73 -5 77
150 2 105 2 105 100 108 75 2 97 6 97 17 0 7 -6 17 -12 22 -17 10 -477 11
-517 0z m287 -64 c3 -20 -1 -23 -32 -23 -28 0 -36 4 -36 18 0 26 10 33 40 30
17 -2 26 -10 28 -25z m0 -80 c-2 -23 -8 -29 -35 -31 -31 -3 -33 -1 -33 27 0
29 3 31 36 31 33 0 35 -2 32 -27z m2 -81 c0 -37 -54 -59 -66 -27 -11 27 4 45
36 45 22 0 30 -5 30 -18z"/>
<path d="M128 573 c-68 -73 -87 -157 -42 -192 34 -27 64 -35 77 -22 8 8 1 20
-26 45 -37 34 -46 59 -27 71 6 4 22 0 35 -9 50 -33 63 -4 18 39 -17 15 -22 25
-14 25 8 0 25 -9 37 -21 35 -33 50 -13 20 26 -15 19 -26 41 -26 49 0 24 -23
19 -52 -11z"/>
<path d="M467 594 c-3 -4 -2 -16 4 -26 9 -17 6 -26 -20 -52 -54 -56 -36 -77
22 -26 31 27 47 30 47 8 0 -5 -16 -24 -35 -44 -19 -19 -35 -39 -35 -44 0 -18
26 -10 50 15 28 30 50 32 50 5 0 -11 -4 -20 -9 -20 -11 0 -61 -50 -61 -61 0
-20 35 -7 76 27 37 29 44 41 44 70 0 29 -10 45 -58 95 -60 60 -64 64 -75 53z"/>
<path d="M112 310 c-33 -14 -42 -49 -42 -166 0 -87 3 -106 16 -111 26 -10 34
16 34 117 0 52 4 101 9 109 6 8 38 15 96 19 81 5 88 4 82 -12 -4 -10 -10 -43
-13 -74 -6 -49 -12 -62 -45 -93 -40 -38 -51 -69 -24 -69 9 0 33 19 54 41 43
47 50 46 87 -12 25 -40 48 -50 58 -24 3 9 -12 35 -39 65 -40 45 -45 56 -45
100 0 27 -4 52 -10 55 -28 17 -1 25 84 25 71 0 97 -4 106 -15 8 -10 13 -53 14
-122 1 -97 3 -108 20 -111 28 -6 32 9 24 100 -3 46 -7 98 -7 116 -1 18 -10 41
-21 52 -19 19 -33 20 -217 19 -109 0 -208 -4 -221 -9z"/>
<path d="M195 226 c-9 -46 -3 -70 18 -74 14 -3 17 4 17 36 0 73 -24 99 -35 38z"/>
<path d="M424 236 c-9 -38 -1 -81 16 -81 11 0 16 14 18 53 2 41 0 52 -12 52
-9 0 -18 -11 -22 -24z"/>
</g>
</svg>
