<svg version="1.0" xmlns="http://www.w3.org/2000/svg"
 width="70.000000pt" height="85.000000pt" viewBox="0 0 70.000000 85.000000"
 preserveAspectRatio="xMidYMid meet">
<metadata>
Created by potrace 1.15, written by Peter Selinger 2001-2017
</metadata>
<g transform="translate(0.000000,85.000000) scale(0.100000,-0.100000)"
fill="#000000" stroke="none">
<path d="M320 781 c-13 -25 -13 -44 2 -76 17 -37 42 -33 34 6 -3 17 -6 44 -6
60 0 33 -15 38 -30 10z"/>
<path d="M496 784 c-3 -9 -6 -36 -6 -62 0 -33 -7 -56 -26 -84 -15 -21 -24 -41
-21 -44 12 -12 43 7 61 36 19 33 43 34 77 4 8 -8 30 -17 48 -20 52 -11 35 16
-29 48 -65 32 -80 50 -80 100 0 39 -13 51 -24 22z"/>
<path d="M585 777 c-4 -13 0 -41 9 -61 18 -43 42 -50 31 -8 -5 15 -8 40 -9 56
-1 37 -23 46 -31 13z"/>
<path d="M237 724 c-5 -48 -14 -78 -32 -104 -26 -37 -32 -60 -16 -60 11 0 61
58 61 71 0 5 18 0 40 -11 47 -24 50 -24 50 -6 0 8 -14 23 -30 33 -32 19 -38
32 -42 97 -5 66 -24 53 -31 -20z"/>
<path d="M423 730 c-1 -61 8 -75 27 -41 19 37 7 101 -20 101 -3 0 -6 -27 -7
-60z"/>
<path d="M153 718 c0 -29 -2 -62 -4 -73 -2 -13 1 -20 11 -20 22 0 46 88 32
120 -20 44 -39 31 -39 -27z"/>
<path d="M385 570 c-97 -9 -118 -15 -173 -53 -43 -28 -44 -30 -40 -76 5 -53
-16 -235 -32 -277 -6 -16 -27 -47 -46 -70 -36 -44 -42 -64 -21 -64 30 1 73 57
112 149 30 73 39 140 27 212 -13 84 0 102 88 124 102 25 216 25 258 0 35 -21
35 -21 32 -160 -1 -44 4 -103 11 -130 14 -59 45 -125 59 -125 12 0 13 37 1 44
-19 12 -32 127 -25 238 7 113 7 113 -20 140 -24 23 -50 34 -131 51 -11 2 -56
1 -100 -3z"/>
<path d="M390 511 c0 -5 -18 -24 -40 -41 -39 -31 -42 -32 -55 -14 -20 28 -27
12 -16 -35 13 -58 35 -88 71 -96 43 -10 42 -47 -2 -60 -24 -7 -43 -26 -71 -68
-21 -32 -49 -63 -63 -69 -31 -14 -31 -28 0 -28 17 0 36 13 58 41 18 22 42 52
54 67 35 43 54 25 54 -53 0 -36 4 -65 9 -65 14 0 21 28 21 87 0 51 2 54 23 51
15 -2 29 -17 42 -45 23 -48 42 -70 51 -60 4 3 -9 36 -27 71 -27 52 -40 67 -62
72 -23 5 -28 10 -25 32 2 21 11 30 38 38 41 14 57 35 66 93 9 56 -9 48 -37
-15 -20 -47 -23 -49 -82 -58 -33 -4 -43 -1 -63 21 -13 14 -24 29 -24 32 0 3
20 19 45 35 43 27 47 27 70 12 51 -34 60 -13 14 33 -31 31 -49 39 -49 22z"/>
<path d="M373 414 c-3 -8 -1 -20 6 -27 14 -14 47 15 37 32 -10 16 -36 13 -43
-5z"/>
</g>
</svg>
