<svg version="1.0" xmlns="http://www.w3.org/2000/svg"
 width="53.000000pt" height="89.000000pt" viewBox="0 0 53.000000 89.000000"
 preserveAspectRatio="xMidYMid meet">
<metadata>
Created by potrace 1.15, written by Peter Selinger 2001-2017
</metadata>
<g transform="translate(0.000000,89.000000) scale(0.100000,-0.100000)"
fill="#000000" stroke="none">
<path d="M240 801 c-5 -11 -10 -54 -10 -95 0 -42 -3 -76 -8 -76 -4 0 -23 24
-42 53 -24 36 -35 47 -38 35 -7 -38 59 -148 89 -148 10 0 19 -5 19 -11 0 -7
-10 -9 -25 -5 -21 5 -30 0 -56 -36 -67 -91 -95 -190 -68 -239 14 -27 14 -98 0
-112 -25 -25 -6 -77 30 -77 9 0 22 -7 29 -15 22 -26 44 -17 64 28 18 42 18 42
28 15 5 -16 14 -28 19 -28 14 0 59 42 59 55 0 6 10 31 22 56 30 62 29 166 -3
234 -12 28 -25 52 -28 55 -3 3 -14 19 -23 36 -17 30 -16 32 7 67 14 20 25 41
25 46 0 6 5 11 10 11 12 0 14 47 3 53 -5 3 -19 -10 -33 -29 -14 -18 -28 -34
-32 -34 -5 0 -8 41 -8 90 0 89 -9 110 -30 71z m-49 -385 c-41 -41 -41 -41 -41
-7 0 24 5 34 20 38 11 3 20 12 20 20 0 8 4 12 9 8 5 -3 13 0 18 7 5 10 9 8 11
-6 3 -12 -11 -34 -37 -60z m119 -6 c0 -11 -7 -20 -15 -20 -17 0 -18 2 -9 24 9
23 24 20 24 -4z m-70 -55 c0 -8 -18 -33 -41 -56 -38 -38 -41 -40 -54 -22 -21
26 -19 29 28 62 47 34 67 38 67 16z m94 -20 c9 -25 -12 -64 -36 -65 -13 0 -9
55 4 68 16 16 25 15 32 -3z m-89 -76 c8 -12 -23 -49 -41 -49 -25 0 -27 23 -3
41 28 22 35 23 44 8z m56 -72 c-8 -8 -11 -5 -11 9 0 27 14 41 18 19 2 -9 -1
-22 -7 -28z m-111 -48 c0 -21 -8 -23 -29 -10 -18 12 -6 42 14 35 8 -3 15 -15
15 -25z"/>
</g>
</svg>
