<svg version="1.0" xmlns="http://www.w3.org/2000/svg"
 width="49.000000pt" height="137.000000pt" viewBox="0 0 49.000000 137.000000"
 preserveAspectRatio="xMidYMid meet">
<metadata>
Created by potrace 1.15, written by Peter Selinger 2001-2017
</metadata>
<g transform="translate(0.000000,137.000000) scale(0.100000,-0.100000)"
fill="#000000" stroke="none">
<path d="M250 1112 c0 -81 -4 -82 -62 -28 -24 23 -58 35 -58 21 0 -3 16 -25
35 -51 19 -25 35 -49 35 -54 0 -4 -16 -24 -35 -45 -57 -63 -69 -98 -74 -215
-4 -119 13 -285 35 -347 9 -26 28 -51 47 -65 18 -12 34 -23 37 -25 2 -2 -2 -8
-10 -13 -10 -6 -14 -29 -14 -82 0 -121 56 -186 103 -120 25 35 28 110 9 193
-12 49 -11 53 10 67 12 8 22 21 22 28 0 8 4 14 9 14 5 0 12 12 15 28 21 87 26
112 32 157 12 87 9 238 -5 290 -8 28 -27 64 -42 80 -34 36 -37 61 -9 70 27 9
70 63 64 80 -8 19 -33 19 -40 0 -4 -8 -10 -13 -14 -10 -5 3 -11 1 -15 -5 -14
-23 -35 -9 -35 24 0 19 -9 44 -20 57 -19 24 -19 24 -20 -49z m0 -193 c0 -63
-22 -118 -64 -161 -41 -43 -41 -43 -48 7 -9 58 16 124 61 162 36 31 51 29 51
-8z m50 -19 c0 -5 -4 -10 -10 -10 -5 0 -10 5 -10 10 0 6 5 10 10 10 6 0 10 -4
10 -10z m47 -154 c6 -73 6 -73 -27 -85 -46 -15 -51 -14 -45 12 2 12 7 49 10
81 5 66 31 110 48 81 5 -9 11 -49 14 -89z m-149 -167 c-18 -15 -36 -28 -39
-29 -4 0 -9 26 -12 58 -5 56 -4 58 37 100 41 43 41 43 44 -29 3 -70 2 -72 -30
-100z m138 -31 c-4 -40 -11 -91 -17 -114 -10 -40 -44 -73 -59 -57 -4 4 -4 52
1 106 7 84 11 101 31 117 43 36 51 27 44 -52z m-112 -75 c-2 -32 -6 -69 -9
-82 -6 -22 -7 -22 -25 -6 -10 9 -21 38 -25 66 -6 42 -4 53 11 64 40 30 51 20
48 -42z m29 -302 c-6 -64 -6 -64 -24 -30 -11 21 -14 38 -8 43 5 6 9 24 9 42 0
18 3 40 7 50 12 33 23 -36 16 -105z"/>
</g>
</svg>
