<svg version="1.0" xmlns="http://www.w3.org/2000/svg"
 width="67.000000pt" height="111.000000pt" viewBox="0 0 67.000000 111.000000"
 preserveAspectRatio="xMidYMid meet">
<metadata>
Created by potrace 1.15, written by Peter Selinger 2001-2017
</metadata>
<g transform="translate(0.000000,111.000000) scale(0.100000,-0.100000)"
fill="#000000" stroke="none">
<path d="M232 1002 c4 -109 4 -109 -52 -50 -31 32 -59 58 -63 58 -16 0 2 -60
23 -80 3 -3 17 -21 30 -40 13 -19 27 -37 30 -40 15 -13 50 -70 50 -82 0 -7
-16 -36 -36 -63 -39 -54 -84 -147 -84 -171 0 -8 -5 -24 -11 -35 -14 -28 -14
-151 1 -180 33 -62 142 -175 198 -206 17 -10 34 -25 37 -34 4 -12 16 -17 42
-15 32 1 38 5 45 31 4 17 18 41 31 55 20 22 39 52 68 112 26 52 -2 249 -41
288 -3 3 -11 15 -18 28 -31 55 -38 67 -54 86 -10 11 -18 23 -18 28 0 4 -13 22
-30 40 -16 17 -30 35 -30 40 0 14 40 70 90 128 58 67 58 66 36 95 -13 18 -17
15 -75 -43 -33 -34 -61 -66 -61 -70 0 -11 -35 -52 -44 -52 -3 0 -6 15 -6 33 0
54 -21 201 -33 225 -22 46 -30 21 -25 -86z m118 -330 c0 -5 14 -23 30 -40 17
-18 30 -36 30 -40 0 -5 8 -17 18 -28 28 -33 40 -59 47 -107 8 -51 8 -50 -79
-63 -28 -4 -46 -3 -43 2 3 5 -3 65 -13 134 -11 69 -19 138 -20 153 0 25 2 27
15 13 8 -8 15 -19 15 -24z m-72 -94 c6 -40 14 -98 17 -129 6 -53 5 -57 -17
-63 -13 -3 -42 -6 -65 -6 -34 0 -43 4 -45 18 -2 31 3 77 11 97 18 47 75 155
81 155 3 0 11 -33 18 -72z m212 -253 c0 -13 -10 -46 -21 -72 -12 -27 -27 -59
-33 -73 -14 -32 -35 -54 -43 -46 -4 4 -6 28 -4 55 1 27 -3 68 -10 90 -7 23 -9
44 -5 48 4 4 28 10 54 14 26 3 50 7 55 8 4 0 7 -10 7 -24z m-189 5 c13 -8 19
-21 19 -48 0 -60 10 -83 31 -77 23 8 24 -1 4 -22 -13 -12 -18 -13 -33 -2 -42
31 -95 86 -108 112 -14 26 -13 27 8 27 13 0 30 5 38 10 19 12 17 12 41 0z"/>
</g>
</svg>
