<svg version="1.0" xmlns="http://www.w3.org/2000/svg"
 width="51.000000pt" height="77.000000pt" viewBox="0 0 51.000000 77.000000"
 preserveAspectRatio="xMidYMid meet">
<metadata>
Created by potrace 1.15, written by Peter Selinger 2001-2017
</metadata>
<g transform="translate(0.000000,77.000000) scale(0.100000,-0.100000)"
fill="#000000" stroke="none">
<path d="M260 654 c-1 -24 -13 -90 -16 -93 -7 -7 -33 33 -34 50 0 17 -23 32
-33 22 -3 -2 8 -29 24 -58 36 -66 36 -80 0 -114 -38 -36 -47 -72 -28 -108 35
-63 46 -135 28 -171 -35 -68 -53 -113 -48 -118 10 -10 41 5 82 41 23 20 47 32
56 29 26 -8 30 33 9 95 -19 56 -19 56 6 92 30 44 30 63 -1 125 -14 27 -25 54
-25 60 0 7 16 26 35 43 32 28 48 71 26 71 -12 0 -41 -29 -41 -41 0 -5 -4 -9
-9 -9 -6 0 -7 15 -4 33 3 23 0 37 -11 46 -9 7 -16 10 -16 5z m-35 -272 c-6
-16 -7 -16 -16 0 -7 12 -6 25 3 40 13 23 13 23 16 0 2 -13 1 -31 -3 -40z m65
-24 c-6 -13 -13 -31 -16 -40 -4 -10 -10 -18 -15 -18 -11 0 -1 49 14 68 16 20
27 14 17 -10z m-20 -154 c0 -23 -20 -54 -34 -54 -10 0 -7 27 6 55 15 32 28 32
28 -1z"/>
</g>
</svg>
