<svg version="1.0" xmlns="http://www.w3.org/2000/svg"
 width="79.000000pt" height="125.000000pt" viewBox="0 0 79.000000 125.000000"
 preserveAspectRatio="xMidYMid meet">
<metadata>
Created by potrace 1.15, written by Peter Selinger 2001-2017
</metadata>
<g transform="translate(0.000000,125.000000) scale(0.100000,-0.100000)"
fill="#000000" stroke="none">
<path d="M606 1164 c-47 -17 -107 -28 -185 -35 -137 -11 -201 -36 -241 -95
-25 -37 -25 -42 -32 -303 -4 -146 -10 -306 -13 -356 -8 -117 -40 -269 -65
-313 -12 -19 -18 -37 -15 -40 17 -17 62 82 91 198 18 77 32 268 39 545 3 110
7 212 10 226 8 37 54 76 99 85 36 6 39 5 31 -12 -10 -24 -34 -258 -34 -337 -2
-182 96 -292 180 -204 45 45 56 79 64 185 9 119 -8 216 -52 306 -19 38 -32 70
-31 71 14 11 50 25 67 25 11 0 32 -16 48 -37 15 -21 34 -44 40 -51 7 -7 16
-25 19 -40 3 -15 11 -45 16 -67 6 -22 10 -162 10 -311 1 -257 4 -303 34 -427
3 -15 10 -30 15 -33 5 -3 9 -14 9 -24 0 -19 32 -85 51 -105 19 -20 8 25 -20
77 -49 94 -61 203 -56 530 3 296 -5 348 -67 447 -28 45 -29 61 -1 61 23 0 113
42 113 52 0 15 -54 7 -124 -18z m-164 -130 c10 -18 25 -57 33 -88 23 -86 18
-130 -10 -103 -24 23 -55 47 -61 47 -3 0 -15 10 -28 23 -27 27 -39 94 -19 101
7 3 13 10 13 16 0 17 24 40 39 37 8 -1 23 -16 33 -33z m-54 -170 c15 -14 46
-37 70 -51 43 -25 43 -26 40 -77 -3 -50 -3 -51 -33 -48 -16 2 -32 7 -35 10 -3
4 -22 18 -43 32 -44 30 -60 73 -46 125 6 19 12 35 15 35 3 0 17 -12 32 -26z
m5 -176 c18 -12 34 -25 37 -28 3 -3 14 -10 25 -16 42 -25 7 -114 -45 -114 -51
0 -89 73 -76 146 8 40 17 42 59 12z"/>
</g>
</svg>
