<svg version="1.0" xmlns="http://www.w3.org/2000/svg"
 width="59.000000pt" height="97.000000pt" viewBox="0 0 59.000000 97.000000"
 preserveAspectRatio="xMidYMid meet">
<metadata>
Created by potrace 1.15, written by Peter Selinger 2001-2017
</metadata>
<g transform="translate(0.000000,97.000000) scale(0.100000,-0.100000)"
fill="#000000" stroke="none">
<path d="M165 919 c4 -13 14 -29 21 -37 8 -7 14 -16 14 -20 1 -4 18 -26 39
-50 26 -30 42 -41 54 -36 24 9 90 141 75 150 -7 5 -27 -10 -49 -36 -37 -43
-37 -43 -76 -3 -21 22 -49 44 -62 48 -21 6 -22 5 -16 -16z"/>
<path d="M388 817 c-13 -13 -38 -56 -57 -95 -19 -40 -38 -72 -42 -72 -4 0 -15
12 -24 27 -10 15 -28 36 -39 48 -12 12 -30 40 -41 63 -23 48 -55 58 -55 17 0
-22 -15 -60 -30 -75 -16 -16 -40 -85 -35 -101 9 -27 21 -23 37 11 7 17 16 30
20 30 5 0 8 6 8 13 0 7 6 22 14 32 13 18 15 18 39 -11 15 -16 27 -33 27 -39 0
-5 9 -21 20 -35 12 -16 20 -41 20 -67 0 -47 -3 -49 -40 -28 -55 32 -55 1 1
-56 34 -35 42 -50 46 -93 4 -42 2 -56 -15 -76 -20 -24 -21 -24 -28 -5 -12 32
-74 82 -86 69 -8 -8 3 -44 13 -44 5 0 9 -7 9 -15 0 -15 30 -63 58 -93 6 -7 12
-17 12 -21 0 -11 59 -84 73 -92 7 -4 23 -10 36 -14 21 -6 23 -5 18 14 -3 15 2
29 18 45 12 12 37 50 55 83 18 34 46 76 62 95 29 33 33 58 11 65 -7 3 -33 -16
-58 -41 -44 -44 -46 -45 -66 -28 -42 34 -49 44 -49 65 0 12 -3 31 -6 42 -3 14
10 40 41 83 54 75 55 101 1 49 -21 -20 -40 -37 -42 -37 -15 0 3 59 42 140 47
95 47 95 59 55 38 -127 73 -98 43 37 -18 83 -32 94 -70 55z m-49 -533 c21 -27
21 -27 2 -58 -26 -40 -42 -43 -62 -10 -16 25 -16 30 0 60 20 41 33 42 60 8z"/>
</g>
</svg>
