<svg version="1.0" xmlns="http://www.w3.org/2000/svg"
 width="55.000000pt" height="93.000000pt" viewBox="0 0 55.000000 93.000000"
 preserveAspectRatio="xMidYMid meet">
<metadata>
Created by potrace 1.15, written by Peter Selinger 2001-2017
</metadata>
<g transform="translate(0.000000,93.000000) scale(0.100000,-0.100000)"
fill="#000000" stroke="none">
<path d="M394 792 c-6 -4 -26 -35 -44 -70 -17 -34 -36 -64 -40 -67 -9 -5 -26
69 -23 97 2 9 -5 22 -13 29 -13 10 -17 10 -25 -2 -5 -8 -9 -22 -9 -32 0 -46
-42 -77 -54 -39 -10 31 -57 75 -69 63 -7 -7 -7 -15 2 -24 8 -11 9 -26 2 -58
-21 -89 -5 -127 17 -44 14 53 25 56 42 15 7 -16 16 -30 21 -30 4 0 10 -8 14
-19 3 -10 14 -29 25 -41 25 -29 26 -44 1 -30 -11 5 -22 10 -25 10 -9 0 -7 -30
2 -30 4 0 15 -12 25 -25 17 -23 17 -27 -4 -107 -23 -92 -36 -115 -45 -80 -4
12 -10 22 -15 22 -5 0 -9 6 -9 13 0 8 -13 41 -29 74 -28 57 -56 83 -71 66 -4
-4 -5 -90 -2 -190 5 -181 5 -181 61 -188 31 -3 110 -8 176 -11 66 -3 125 -10
131 -15 9 -7 14 -5 17 8 7 25 20 128 22 183 1 25 6 84 10 133 6 63 5 87 -4 87
-6 0 -11 -8 -11 -17 0 -24 -23 -83 -32 -83 -4 0 -8 -6 -8 -14 0 -11 -31 -80
-71 -159 -10 -19 -4 -37 12 -37 5 0 21 25 36 55 15 30 31 55 36 55 5 0 6 -7 3
-16 -3 -9 -9 -47 -12 -85 -7 -69 -7 -69 -163 -64 -85 4 -158 8 -160 11 -3 2
-6 48 -6 102 -1 53 -5 124 -9 157 -7 60 -7 60 14 15 41 -88 65 -135 70 -140 3
-3 14 -18 24 -34 18 -28 18 -28 32 -1 8 15 14 40 14 56 0 24 19 54 21 32 0 -4
2 -15 5 -23 2 -8 8 -37 13 -65 12 -63 20 -85 33 -85 10 0 10 8 -12 150 -22
146 -23 171 -9 198 8 15 17 29 20 32 12 10 30 52 25 57 -3 4 -15 -4 -26 -17
-11 -13 -23 -20 -27 -16 -4 4 -2 10 4 14 6 4 28 42 48 84 21 43 41 75 45 73 4
-3 11 -22 14 -42 12 -65 17 -78 26 -62 8 14 -2 100 -17 151 -5 17 -12 24 -19
20z m-117 -145 c18 -30 20 -57 4 -57 -13 0 -43 61 -37 76 8 20 12 18 33 -19z"/>
</g>
</svg>
