<svg version="1.0" xmlns="http://www.w3.org/2000/svg"
 width="71.000000pt" height="79.000000pt" viewBox="0 0 71.000000 79.000000"
 preserveAspectRatio="xMidYMid meet">
<metadata>
Created by potrace 1.15, written by Peter Selinger 2001-2017
</metadata>
<g transform="translate(0.000000,79.000000) scale(0.100000,-0.100000)"
fill="#000000" stroke="none">
<path d="M206 611 c-4 -5 1 -31 10 -56 8 -26 14 -49 11 -51 -7 -7 -37 7 -37
17 0 5 -9 9 -20 9 -31 0 -25 -11 39 -69 33 -30 62 -65 65 -80 7 -31 23 -58 30
-50 4 3 1 31 -5 62 -12 57 0 117 22 117 5 0 9 6 9 14 0 8 6 16 13 19 6 2 9 8
4 12 -4 5 -23 -6 -42 -25 -25 -24 -36 -29 -39 -19 -2 8 -10 34 -18 58 -13 44
-30 61 -42 42z"/>
<path d="M429 545 c-3 -3 7 -31 23 -62 16 -33 27 -72 26 -90 -2 -33 11 -58 19
-35 7 18 23 15 44 -10 11 -11 21 -19 24 -16 9 9 -20 57 -37 62 -10 2 -18 10
-18 16 0 8 7 9 18 5 41 -17 72 -23 77 -15 4 7 -24 22 -70 34 -12 3 -34 29 -50
58 -29 49 -45 65 -56 53z"/>
<path d="M283 287 c-52 -35 -55 -100 -7 -164 28 -38 66 -48 142 -38 65 8 107
44 118 100 7 39 -23 88 -68 111 -43 22 -146 17 -185 -9z m198 -48 c16 -19 29
-37 29 -40 0 -3 -14 -20 -31 -37 -28 -29 -37 -32 -92 -32 -76 0 -97 16 -97 75
0 61 25 76 114 71 42 -3 54 -8 77 -37z"/>
</g>
</svg>
