<svg version="1.0" xmlns="http://www.w3.org/2000/svg"
 width="67.000000pt" height="78.000000pt" viewBox="0 0 67.000000 78.000000"
 preserveAspectRatio="xMidYMid meet">
<metadata>
Created by potrace 1.15, written by Peter Selinger 2001-2017
</metadata>
<g transform="translate(0.000000,78.000000) scale(0.100000,-0.100000)"
fill="#000000" stroke="none">
<path d="M505 630 c-16 -4 -47 -8 -67 -9 -36 -1 -57 -15 -43 -29 4 -4 34 -7
68 -7 62 0 62 0 65 -42 3 -45 19 -56 42 -28 8 10 9 29 3 67 -9 57 -16 62 -68
48z"/>
<path d="M310 612 c0 -10 3 -40 6 -66 6 -40 10 -46 31 -46 35 0 63 -18 63 -40
0 -20 -9 -24 -85 -34 -57 -8 -65 -25 -65 -133 0 -119 11 -135 94 -126 42 4 56
3 56 -7 0 -27 -44 -82 -78 -98 -39 -18 -56 -52 -27 -52 17 0 120 64 130 81 3
5 24 -5 47 -21 47 -34 81 -40 76 -13 -2 10 -24 28 -50 40 -25 12 -49 27 -53
33 -12 20 14 37 67 44 29 4 58 12 65 18 17 13 17 120 1 136 -7 7 -39 12 -75
12 -63 0 -63 0 -63 35 0 35 0 35 74 35 75 0 99 11 77 33 -8 8 -38 11 -80 9
-68 -2 -68 -2 -74 27 -6 26 -12 30 -51 36 -45 7 -45 7 -53 58 -8 49 -33 79
-33 39z m98 -309 c-3 -98 -3 -98 -47 -101 -28 -2 -47 1 -52 10 -5 7 -9 45 -9
85 0 63 3 74 22 87 12 9 37 16 56 16 33 0 33 0 30 -97z m140 -31 c4 -44 -12
-62 -59 -62 -38 0 -39 1 -39 34 0 58 8 67 54 64 38 -3 41 -5 44 -36z"/>
<path d="M117 604 c-13 -13 5 -24 39 -24 33 0 35 -2 32 -27 -2 -21 -13 -33
-42 -48 -62 -32 -75 -81 -76 -287 0 -136 3 -168 14 -168 29 0 34 28 38 206 3
162 5 184 22 203 11 12 27 21 38 21 51 0 78 85 36 114 -22 16 -89 22 -101 10z"/>
</g>
</svg>
