<svg version="1.0" xmlns="http://www.w3.org/2000/svg"
 width="72.000000pt" height="87.000000pt" viewBox="0 0 72.000000 87.000000"
 preserveAspectRatio="xMidYMid meet">
<metadata>
Created by potrace 1.15, written by Peter Selinger 2001-2017
</metadata>
<g transform="translate(0.000000,87.000000) scale(0.100000,-0.100000)"
fill="#000000" stroke="none">
<path d="M177 630 c-43 -4 -83 -12 -88 -17 -5 -5 -8 -128 -7 -294 3 -245 5
-284 18 -284 13 0 14 35 11 270 -3 234 -2 272 12 283 11 9 79 15 236 19 153 4
220 10 218 17 -4 13 -283 17 -400 6z"/>
<path d="M300 546 c-55 -11 -55 -11 -7 -14 26 -2 47 -7 47 -12 0 -5 -18 -19
-40 -30 -34 -17 -53 -40 -35 -40 22 0 74 32 88 54 17 25 22 27 85 24 52 -2 67
-6 67 -18 0 -10 -14 -17 -45 -20 -40 -4 -46 -8 -54 -37 -10 -33 -28 -43 -83
-43 -49 0 -66 -40 -57 -131 5 -48 11 -69 20 -69 8 0 14 7 14 15 0 12 25 15
142 17 93 2 143 7 145 14 2 7 -24 14 -77 18 -69 6 -80 10 -80 26 0 17 9 20 78
22 97 4 98 23 2 23 -59 0 -70 3 -70 17 0 14 12 18 73 20 56 2 72 6 72 18 0 12
-16 16 -73 18 -63 2 -73 5 -70 20 2 11 15 18 38 20 43 4 60 18 60 47 0 41 -29
55 -111 54 -41 -1 -99 -6 -129 -13z m98 -178 c-5 -15 -98 -24 -98 -10 0 17 14
22 58 22 30 0 42 -4 40 -12z m2 -68 c0 -15 -7 -20 -27 -20 -16 0 -38 -3 -50
-6 -20 -5 -23 -2 -23 20 0 25 3 26 50 26 43 0 50 -3 50 -20z"/>
<path d="M174 525 c-7 -18 2 -45 15 -45 10 0 22 40 15 52 -8 13 -24 9 -30 -7z"/>
<path d="M180 385 c0 -52 11 -72 23 -41 8 19 -4 96 -14 96 -5 0 -9 -25 -9 -55z"/>
<path d="M372 211 c-8 -13 -12 -36 -10 -52 4 -28 3 -29 -37 -29 -48 0 -65 13
-65 52 0 41 -17 34 -25 -9 -6 -33 -4 -40 22 -60 19 -15 41 -23 69 -23 22 0 60
-10 84 -21 35 -17 56 -20 106 -16 74 5 90 13 73 33 -7 9 -30 14 -60 14 -38 0
-49 4 -49 16 0 12 7 14 31 9 51 -12 92 48 57 83 -19 19 -29 14 -22 -12 4 -18
1 -27 -14 -35 -36 -19 -51 -13 -54 20 -2 18 -11 37 -20 43 -25 15 -32 1 -13
-28 13 -19 15 -36 10 -68 -10 -59 -13 -61 -40 -35 -19 18 -25 34 -27 82 -3 56
-4 58 -16 36z"/>
<path d="M185 210 c3 -5 8 -10 11 -10 2 0 4 5 4 10 0 6 -5 10 -11 10 -5 0 -7
-4 -4 -10z"/>
<path d="M180 80 c0 -22 4 -40 10 -40 12 0 24 45 16 65 -11 29 -26 15 -26 -25z"/>
</g>
</svg>
