<svg version="1.0" xmlns="http://www.w3.org/2000/svg"
 width="73.000000pt" height="88.000000pt" viewBox="0 0 73.000000 88.000000"
 preserveAspectRatio="xMidYMid meet">
<metadata>
Created by potrace 1.15, written by Peter Selinger 2001-2017
</metadata>
<g transform="translate(0.000000,88.000000) scale(0.100000,-0.100000)"
fill="#000000" stroke="none">
<path d="M490 732 c0 -52 -1 -52 -180 -52 -168 0 -168 0 -174 30 -3 18 -12 30
-21 30 -11 0 -15 -12 -15 -53 0 -46 -16 -140 -36 -204 -9 -33 14 -29 27 5 6
15 15 34 19 43 5 9 11 36 15 61 7 45 7 45 97 52 147 10 246 8 255 -6 4 -7 13
-42 18 -78 7 -47 14 -65 25 -65 10 0 14 9 13 30 -1 17 -3 73 -5 125 -3 81 -6
95 -20 98 -12 2 -18 -3 -18 -16z"/>
<path d="M243 583 c-36 -7 -63 -50 -63 -99 0 -53 23 -80 74 -90 25 -4 36 -12
36 -24 0 -15 -12 -19 -60 -25 -44 -5 -66 -13 -85 -32 -51 -52 -21 -113 57
-113 46 0 48 -11 17 -101 -13 -38 -18 -64 -12 -70 27 -27 63 94 63 211 0 80 0
80 34 80 31 0 36 -4 47 -37 7 -21 13 -80 13 -131 1 -70 5 -95 16 -102 28 -18
30 -10 24 68 -6 77 -6 77 39 89 51 14 72 41 63 79 -9 35 -49 56 -119 63 -53 5
-62 9 -62 26 0 15 9 21 37 26 57 9 68 23 68 90 0 52 -3 60 -26 76 -26 17 -116
26 -161 16z m137 -33 c40 -40 22 -50 -86 -50 -56 0 -74 3 -74 14 0 46 123 73
160 36z m30 -78 c0 -5 -6 -17 -14 -27 -11 -16 -27 -19 -92 -19 -79 -1 -79 -1
-82 27 -3 27 -3 27 92 27 53 0 96 -4 96 -8z m23 -163 c53 -14 50 -60 -5 -74
-30 -8 -48 15 -48 59 0 29 1 30 53 15z m-195 -36 c-3 -41 -19 -50 -64 -39 -36
9 -31 44 9 61 51 23 59 20 55 -22z"/>
</g>
</svg>
