<svg version="1.0" xmlns="http://www.w3.org/2000/svg"
 width="69.000000pt" height="80.000000pt" viewBox="0 0 69.000000 80.000000"
 preserveAspectRatio="xMidYMid meet">
<metadata>
Created by potrace 1.15, written by Peter Selinger 2001-2017
</metadata>
<g transform="translate(0.000000,80.000000) scale(0.100000,-0.100000)"
fill="#000000" stroke="none">
<path d="M346 533 c-31 -37 -56 -73 -56 -80 0 -24 29 -13 51 20 40 58 72 87
97 87 14 0 52 -21 89 -51 60 -47 67 -50 81 -35 20 20 14 26 -80 84 -96 59
-112 57 -182 -25z"/>
<path d="M115 578 c-11 -6 -23 -16 -27 -22 -4 -6 -8 -131 -8 -278 0 -226 2
-268 14 -268 16 0 35 73 39 150 2 45 2 45 42 48 27 2 46 10 57 25 20 25 24 97
6 115 -9 9 -9 17 2 36 7 15 10 36 6 53 -9 34 -9 48 0 91 4 20 2 38 -6 47 -15
18 -95 20 -125 3z m90 -28 c4 -6 3 -24 0 -41 -6 -28 -9 -30 -48 -27 -35 2 -43
7 -45 26 -2 13 2 30 8 38 14 16 76 19 85 4z m-2 -114 c3 -8 2 -27 -2 -43 -6
-23 -13 -29 -44 -31 -34 -3 -36 -1 -42 32 -4 19 -4 39 0 45 10 16 82 14 88 -3z
m3 -130 c8 -33 -12 -66 -39 -66 -32 0 -47 18 -47 57 0 32 1 33 40 33 34 0 41
-4 46 -24z"/>
<path d="M375 470 c-3 -5 0 -13 8 -16 23 -8 127 0 130 11 3 14 -129 19 -138 5z"/>
<path d="M480 402 c-60 -4 -70 -15 -70 -73 0 -49 0 -49 -66 -49 -57 0 -65 -2
-62 -17 3 -16 20 -19 123 -25 140 -8 177 -3 173 20 -2 13 -18 18 -63 22 -59 5
-60 5 -63 38 -3 28 0 32 22 32 28 0 76 19 76 30 0 16 -27 25 -70 22z"/>
<path d="M426 150 c-6 -55 -9 -60 -31 -60 -32 0 -65 33 -65 66 0 43 -25 21
-28 -25 -4 -53 6 -65 68 -85 60 -20 100 -20 143 -2 58 24 90 106 45 114 -14 3
-18 -3 -18 -26 0 -31 -14 -42 -55 -42 -22 0 -24 5 -27 57 -4 77 -24 80 -32 3z"/>
</g>
</svg>
