<svg version="1.0" xmlns="http://www.w3.org/2000/svg"
 width="75.000000pt" height="103.000000pt" viewBox="0 0 75.000000 103.000000"
 preserveAspectRatio="xMidYMid meet">
<metadata>
Created by potrace 1.15, written by Peter Selinger 2001-2017
</metadata>
<g transform="translate(0.000000,103.000000) scale(0.100000,-0.100000)"
fill="#000000" stroke="none">
<path d="M234 929 c-10 -23 -23 -47 -29 -53 -6 -6 -34 -45 -62 -87 -55 -81
-94 -190 -97 -269 -1 -50 27 -96 74 -122 14 -7 28 -17 31 -22 4 -5 24 -9 45
-10 52 -1 57 24 12 52 -63 39 -98 85 -98 128 0 13 6 12 34 -5 35 -22 86 -28
86 -10 0 14 -26 39 -40 39 -15 0 -31 18 -49 52 -13 25 -11 30 18 74 17 26 31
50 31 53 0 4 9 12 20 19 18 11 27 9 63 -12 43 -24 135 -51 145 -42 8 8 -19 36
-34 36 -8 0 -14 5 -14 10 0 6 -6 10 -14 10 -7 0 -32 17 -55 39 -41 38 -41 38
-26 87 10 35 11 51 3 61 -17 20 -24 16 -44 -28z"/>
<path d="M553 622 c-17 -11 -4 -26 43 -50 23 -12 44 -28 48 -37 8 -21 8 -69 0
-89 -6 -16 -34 -23 -34 -8 0 10 -45 32 -65 32 -24 0 -17 -24 15 -55 36 -34 37
-39 8 -52 -24 -11 -55 -10 -122 3 -56 10 -44 -14 24 -49 41 -21 63 -26 88 -22
35 6 38 1 22 -40 -24 -63 45 -204 101 -205 21 0 14 40 -10 67 -25 26 -39 75
-30 98 4 11 11 50 14 88 4 37 12 73 19 80 17 17 36 74 36 109 0 52 -34 95 -99
123 -38 17 -42 17 -58 7z"/>
<path d="M328 573 c-51 -8 -51 -91 0 -117 52 -27 102 6 102 67 0 51 -23 62
-102 50z"/>
</g>
</svg>
