<svg version="1.0" xmlns="http://www.w3.org/2000/svg"
 width="59.000000pt" height="111.000000pt" viewBox="0 0 59.000000 111.000000"
 preserveAspectRatio="xMidYMid meet">
<metadata>
Created by potrace 1.15, written by Peter Selinger 2001-2017
</metadata>
<g transform="translate(0.000000,111.000000) scale(0.100000,-0.100000)"
fill="#000000" stroke="none">
<path d="M333 923 c-36 -161 -58 -213 -88 -213 -22 0 -59 101 -57 154 1 28 0
58 -4 68 -9 30 -24 20 -24 -16 0 -46 -16 -86 -35 -86 -11 0 -15 11 -15 44 0
25 5 48 10 51 17 10 11 25 -9 25 -29 0 -48 -67 -29 -103 6 -12 14 -29 18 -37
4 -8 19 -16 34 -18 35 -4 63 -65 45 -99 -7 -13 -20 -25 -31 -29 -24 -7 -39
-36 -27 -55 5 -7 9 -24 9 -35 0 -27 33 -69 83 -105 40 -29 40 -29 38 -194 -1
-91 1 -165 6 -165 17 0 32 57 31 115 -1 102 13 225 26 225 31 0 97 120 96 175
-1 37 -34 89 -60 95 -14 3 -25 11 -24 18 1 7 2 22 3 35 1 12 8 30 16 41 13 17
15 17 31 2 35 -35 74 5 74 76 0 46 -31 78 -75 78 -29 0 -32 -3 -42 -47z m75
-36 c2 -27 -1 -37 -11 -37 -17 0 -27 21 -27 57 0 18 5 24 18 21 12 -2 18 -14
20 -41z m-46 -221 c12 -28 -1 -48 -39 -58 -26 -7 -35 10 -26 52 7 39 48 42 65
6z m-144 -16 c42 -26 51 -49 27 -66 -20 -15 -71 -19 -79 -6 -6 10 5 92 13 92
3 0 21 -9 39 -20z m131 -110 c-14 -40 -38 -58 -50 -39 -5 8 -9 19 -9 24 1 24
44 58 62 48 4 -2 2 -17 -3 -33z m-99 -25 c0 -27 -18 -33 -38 -13 -17 17 -15
26 6 31 31 8 32 7 32 -18z"/>
<path d="M505 607 c-8 -20 -15 -54 -15 -76 0 -31 -6 -44 -30 -64 -23 -20 -30
-34 -30 -61 0 -20 -2 -36 -5 -36 -3 0 -18 15 -34 32 -16 18 -32 30 -36 26 -6
-6 11 -48 24 -58 16 -12 51 -69 51 -82 0 -8 -20 -25 -45 -38 -24 -13 -52 -31
-61 -41 -16 -18 -16 -19 9 -19 14 0 29 5 32 10 3 6 18 10 32 10 21 0 24 -3 19
-22 -3 -13 -6 -26 -6 -30 0 -4 -8 -9 -19 -13 -26 -8 -68 -47 -56 -52 35 -13
39 -21 25 -47 -17 -33 -7 -43 23 -23 34 22 65 95 68 156 3 50 7 55 40 52 9 -1
22 6 29 15 12 14 10 19 -16 42 -24 21 -32 38 -38 79 -7 52 -6 53 39 91 8 7 15
29 15 50 0 20 5 55 10 77 12 54 -5 70 -25 22z"/>
</g>
</svg>
