<svg version="1.0" xmlns="http://www.w3.org/2000/svg"
 width="115.000000pt" height="165.000000pt" viewBox="0 0 115.000000 165.000000"
 preserveAspectRatio="xMidYMid meet">
<metadata>
Created by potrace 1.15, written by Peter Selinger 2001-2017
</metadata>
<g transform="translate(0.000000,165.000000) scale(0.100000,-0.100000)"
fill="#000000" stroke="none">
<path d="M282 1505 c-7 -14 -12 -35 -12 -45 0 -16 -10 -21 -50 -26 -27 -4 -50
-9 -50 -12 0 -13 38 -31 68 -32 25 0 32 -4 32 -20 0 -11 5 -20 10 -20 6 0 10
-5 10 -11 0 -5 -5 -7 -11 -4 -6 4 -9 0 -7 -11 2 -13 -9 -22 -46 -36 -110 -39
-143 -129 -91 -243 20 -42 34 -59 65 -75 21 -11 46 -20 55 -20 11 0 15 -11 15
-39 0 -39 0 -39 -95 -43 -57 -2 -99 -8 -106 -15 -22 -22 -14 -24 149 -40 57
-5 53 0 58 -90 2 -41 2 -42 -40 -49 -66 -11 -116 -51 -146 -116 -25 -56 -25
-107 1 -160 27 -54 67 -87 133 -109 50 -16 51 -17 49 -54 -3 -46 -3 -45 -45
-51 -55 -8 -78 -14 -78 -22 0 -9 73 -32 104 -32 22 0 26 -6 31 -45 9 -57 31
-79 41 -38 21 94 16 87 72 97 83 15 67 35 -38 49 -10 2 -15 14 -15 42 0 39 1
40 47 50 59 13 98 60 123 146 15 54 15 68 4 103 -7 23 -19 51 -27 64 -18 28
-85 68 -129 77 -33 7 -33 7 -33 68 0 62 0 62 270 62 270 0 270 0 270 -78 0
-59 -4 -79 -14 -83 -8 -3 -45 10 -81 30 -42 23 -80 36 -103 36 -37 0 -37 0 -2
-30 19 -16 37 -30 40 -30 3 0 11 -9 18 -20 14 -23 1 -50 -50 -104 -43 -45 -38
-57 12 -31 17 9 30 13 30 10 0 -3 15 5 33 19 19 15 39 26 45 26 7 0 12 4 12 8
0 7 42 32 54 32 2 0 5 -37 8 -83 4 -72 21 -137 34 -125 2 3 6 48 8 102 4 97 4
97 66 101 34 2 66 7 71 12 16 16 -12 31 -61 34 -71 4 -70 3 -70 95 0 83 0 83
88 86 69 2 87 6 87 18 0 12 -20 17 -87 24 -88 9 -88 9 -88 66 0 62 7 70 73 70
17 0 27 5 27 15 0 8 -12 17 -27 21 -68 15 -64 7 -62 110 1 78 -2 98 -16 114
-10 11 -24 20 -30 20 -16 0 -25 -76 -20 -162 4 -68 4 -68 -34 -68 -37 0 -81
26 -81 48 0 11 -70 82 -81 82 -4 0 -5 -9 -2 -20 3 -11 9 -20 14 -20 5 0 9 -8
9 -17 0 -10 9 -29 20 -43 20 -25 27 -60 12 -60 -14 0 -55 -97 -48 -115 5 -15
8 -14 30 2 13 10 34 33 46 51 20 29 28 32 71 32 49 0 49 0 49 -60 0 -60 0 -60
-57 -62 -178 -5 -385 -5 -430 -1 -53 6 -53 6 -53 49 0 42 1 44 42 56 23 7 59
29 80 49 37 35 38 38 38 102 0 36 -4 69 -10 72 -5 3 -10 15 -10 25 0 23 -57
70 -102 86 -18 6 -33 16 -32 22 1 7 2 26 3 42 1 28 4 30 40 30 88 0 100 35 17
45 -51 7 -55 9 -62 39 -7 32 -21 56 -34 56 -4 0 -12 -11 -18 -25z m-12 -300
c0 -45 0 -45 -50 -45 -62 0 -65 16 -13 59 52 43 63 40 63 -14z m129 9 c17 -14
31 -34 31 -45 0 -16 -7 -19 -50 -19 -50 0 -50 0 -50 45 0 38 3 45 19 45 11 0
33 -12 50 -26z m-149 -123 c20 -6 25 -13 25 -40 1 -40 -16 -49 -53 -30 -39 20
-52 35 -52 58 0 22 28 27 80 12z m168 -10 c1 -1 2 -6 2 -11 0 -19 -48 -60 -70
-60 -17 0 -20 6 -20 41 0 41 0 41 43 35 23 -3 43 -5 45 -5z m-3 -486 c21 -22
35 -45 35 -60 0 -24 -3 -25 -60 -25 -60 0 -60 0 -60 53 0 30 3 57 7 60 15 16
45 5 78 -28z m-145 3 c0 -7 3 -30 6 -50 7 -38 7 -38 -60 -38 -66 0 -66 0 -66
35 0 30 5 37 33 49 41 18 87 20 87 4z m8 -210 c3 -64 -2 -68 -55 -46 -42 18
-83 59 -83 84 0 20 4 22 68 20 67 -1 67 -1 70 -58z m160 50 c7 -9 4 -26 -11
-58 -19 -38 -27 -45 -54 -48 -33 -3 -33 -3 -33 57 0 61 0 61 44 61 24 0 48 -6
54 -12z"/>
</g>
</svg>
