<svg version="1.0" xmlns="http://www.w3.org/2000/svg"
 width="101.000000pt" height="181.000000pt" viewBox="0 0 101.000000 181.000000"
 preserveAspectRatio="xMidYMid meet">
<metadata>
Created by potrace 1.15, written by Peter Selinger 2001-2017
</metadata>
<g transform="translate(0.000000,181.000000) scale(0.100000,-0.100000)"
fill="#000000" stroke="none">
<path d="M200 1608 c-7 -23 -9 -54 -6 -70 5 -28 5 -28 -44 -28 -28 0 -51 -4
-51 -10 -1 -5 -2 -16 -3 -22 -1 -8 20 -17 49 -23 49 -11 50 -11 53 -52 3 -40
2 -41 -39 -54 -60 -20 -62 -39 -5 -39 46 0 46 0 46 -50 0 -43 -3 -50 -20 -50
-10 0 -29 -4 -42 -9 -13 -5 -32 -12 -43 -16 -42 -14 43 -35 141 -35 94 0 94 0
94 25 0 20 -6 27 -30 32 -18 3 -31 12 -31 22 -1 9 -3 26 -4 39 -2 16 5 27 21
34 24 11 41 41 26 46 -30 10 -47 33 -47 66 0 28 4 36 18 36 22 0 47 23 47 43
0 8 -13 17 -29 20 -27 6 -29 9 -28 56 1 53 -14 81 -44 81 -13 0 -21 -12 -29
-42z"/>
<path d="M820 1573 c0 -66 -1 -66 -147 -72 -31 -1 -43 -5 -43 -16 0 -8 9 -15
20 -15 11 0 20 -4 20 -8 0 -5 28 -13 62 -18 63 -9 63 -9 59 -54 -1 -25 -5 -47
-7 -49 -2 -2 -20 -5 -40 -7 -38 -3 -54 -16 -54 -46 0 -15 9 -18 44 -18 49 0
61 -15 46 -56 -6 -14 -10 -36 -10 -49 0 -23 -4 -24 -67 -27 -37 -2 -68 -8 -70
-14 -11 -34 259 -76 290 -45 18 18 -4 44 -48 55 -36 8 -37 10 -31 45 3 20 6
48 6 64 0 25 3 27 41 27 38 0 40 2 37 26 -2 20 -11 29 -38 38 -37 12 -38 13
-25 63 6 27 14 35 45 43 21 6 41 17 44 26 7 19 -19 43 -48 44 -16 0 -18 5 -12
40 5 32 3 41 -13 50 -11 5 -29 10 -40 10 -18 0 -21 -6 -21 -37z"/>
<path d="M109 959 c-2 -8 -8 -57 -15 -116 -7 -69 6 -117 37 -134 11 -5 19 -18
19 -28 0 -26 -39 -97 -72 -132 -29 -30 -37 -59 -17 -59 12 0 93 81 119 118 14
21 14 21 32 2 10 -11 23 -42 28 -69 9 -48 7 -53 -40 -144 -37 -73 -50 -110
-55 -160 -7 -67 -1 -82 29 -71 12 5 16 20 16 60 0 55 13 86 70 169 38 55 47
129 25 200 -10 30 -22 55 -26 55 -25 0 -2 40 42 73 28 21 48 41 45 44 -3 3 0
20 7 37 14 35 15 47 3 94 -9 37 -14 38 -131 46 -45 3 -89 8 -98 12 -9 3 -17 5
-18 3z m149 -80 c35 -12 42 -24 35 -62 -3 -17 -12 -27 -22 -27 -9 0 -21 -4
-27 -10 -6 -6 -21 -3 -42 10 -26 16 -32 26 -32 53 0 19 3 37 7 40 10 10 46 8
81 -4z"/>
<path d="M739 897 c-39 -31 -83 -159 -62 -181 4 -3 8 -14 9 -22 1 -9 12 -23
24 -31 21 -15 20 -15 -25 -44 -25 -16 -48 -29 -51 -29 -3 0 -16 -11 -29 -24
-14 -14 -33 -29 -42 -34 -14 -9 -15 -13 -4 -26 19 -22 54 -20 95 7 114 72 107
69 122 50 16 -20 12 -61 -10 -102 -19 -33 -32 -61 -68 -138 -23 -50 -29 -78
-31 -141 -1 -55 2 -84 12 -96 16 -19 40 -21 42 -3 5 36 3 53 -5 65 -6 8 -5 17
2 24 7 7 12 23 12 37 0 37 20 87 63 159 20 35 37 65 37 68 0 3 8 16 17 31 11
17 17 47 17 92 1 57 4 66 20 69 24 5 34 15 72 72 53 77 50 150 -6 150 -10 0
-20 4 -22 8 -4 11 -130 52 -155 52 -10 0 -25 -6 -34 -13z m144 -79 c25 -12 39
-48 18 -48 -5 0 -14 -13 -21 -29 -13 -32 -50 -45 -96 -32 -39 10 -42 42 -8 86
29 38 59 45 107 23z"/>
</g>
</svg>
