<svg version="1.0" xmlns="http://www.w3.org/2000/svg"
 width="66.000000pt" height="118.000000pt" viewBox="0 0 66.000000 118.000000"
 preserveAspectRatio="xMidYMid meet">
<metadata>
Created by potrace 1.15, written by Peter Selinger 2001-2017
</metadata>
<g transform="translate(0.000000,118.000000) scale(0.100000,-0.100000)"
fill="#000000" stroke="none">
<path d="M171 1117 c-6 -6 -11 -23 -11 -38 0 -38 -10 -59 -27 -59 -29 0 -113
-35 -110 -45 4 -11 46 -12 95 0 30 7 32 6 32 -18 0 -26 -5 -30 -67 -42 -17 -3
-37 -13 -43 -20 -9 -11 -7 -15 15 -21 14 -3 41 -4 60 -1 25 4 35 1 39 -10 4
-9 5 -16 4 -17 -21 -11 -61 -26 -96 -37 -30 -9 -42 -17 -39 -28 2 -11 11 -15
27 -12 14 3 45 5 70 5 42 1 45 -1 48 -28 5 -39 -18 -52 -40 -23 -14 18 -21 20
-35 11 -13 -8 -18 -25 -20 -65 -2 -65 11 -110 37 -134 27 -24 25 -60 -5 -93
-15 -16 -26 -43 -30 -72 -3 -25 -9 -56 -13 -70 -4 -14 -7 -41 -7 -60 1 -19 2
-58 3 -86 1 -27 8 -58 15 -68 12 -17 15 -17 30 -2 10 11 14 26 10 44 -3 15 -6
75 -6 133 -1 102 0 107 27 135 15 16 34 46 43 67 19 45 33 48 33 5 0 -17 9
-51 21 -75 17 -35 19 -49 11 -71 -21 -54 -34 -133 -28 -165 14 -76 85 -139 73
-64 -3 17 -10 50 -16 72 -10 40 -8 56 21 153 12 40 11 47 -15 95 -33 64 -34
101 -3 137 29 35 44 138 24 169 -14 23 -33 27 -43 11 -8 -13 -52 -13 -60 0 -4
6 -1 24 6 40 14 30 45 50 79 50 23 0 32 13 24 34 -5 12 -15 15 -46 10 -28 -5
-42 -3 -48 7 -12 19 -3 29 29 29 36 0 66 22 58 44 -5 12 -19 16 -57 16 -36 0
-50 4 -50 14 0 8 7 17 16 20 25 10 104 7 104 -3 0 -6 24 -11 53 -13 28 -2 52
-7 52 -12 0 -9 -5 -12 -57 -37 -16 -7 -28 -20 -28 -32 0 -16 6 -18 42 -15 24
2 43 -2 45 -8 6 -16 -24 -43 -55 -50 -58 -14 -66 -49 -9 -39 42 7 57 -4 67
-49 7 -32 6 -36 -11 -36 -11 0 -19 7 -19 16 0 10 -7 14 -22 12 -18 -2 -24 -10
-26 -40 -4 -48 22 -136 49 -164 19 -20 20 -26 9 -61 -7 -21 -16 -42 -21 -47
-5 -6 -9 -20 -9 -32 0 -13 -5 -26 -10 -29 -14 -9 -12 -266 2 -283 13 -16 35
-16 40 1 3 6 2 39 -1 72 -9 95 11 231 43 293 29 58 44 62 59 17 6 -16 18 -37
27 -48 31 -33 33 -75 5 -131 -34 -68 -33 -116 6 -172 33 -49 72 -79 89 -69 17
11 11 43 -13 67 -31 32 -67 84 -67 98 0 6 14 31 30 55 41 59 41 117 2 165 -40
49 -45 85 -17 116 26 28 40 86 27 111 -5 10 -7 33 -5 51 5 30 -9 62 -27 62 -5
0 -13 -13 -19 -30 -9 -27 -14 -30 -50 -30 -40 0 -40 0 -35 37 6 51 29 83 59
83 13 0 27 5 30 10 3 6 15 10 26 10 12 0 19 7 19 20 0 22 -21 25 -82 11 -35
-8 -38 -7 -38 14 0 23 22 37 83 51 19 4 27 12 25 23 -3 12 -14 15 -50 13 -80
-5 -73 28 12 54 54 17 46 40 -12 36 -43 -3 -49 -1 -57 21 -19 50 -45 44 -57
-14 -10 -46 -84 -66 -104 -28 -9 16 -18 19 -46 16 -40 -6 -68 15 -59 43 7 21
-18 33 -34 17z m48 -453 c28 -6 31 -10 31 -44 0 -37 0 -37 -51 -44 -29 -4 -55
-3 -59 1 -4 4 -11 25 -14 45 -6 34 -5 37 21 41 15 2 31 5 34 6 4 0 21 -2 38
-5z m321 -48 c0 -41 -4 -44 -64 -52 -55 -8 -86 13 -86 58 0 28 0 28 75 28 75
0 75 0 75 -34z"/>
</g>
</svg>
