<svg version="1.0" xmlns="http://www.w3.org/2000/svg"
 width="61.000000pt" height="65.000000pt" viewBox="0 0 61.000000 65.000000"
 preserveAspectRatio="xMidYMid meet">
<metadata>
Created by potrace 1.15, written by Peter Selinger 2001-2017
</metadata>
<g transform="translate(0.000000,65.000000) scale(0.100000,-0.100000)"
fill="#000000" stroke="none">
<path d="M217 594 c-15 -26 -18 -115 -4 -146 31 -71 37 -90 37 -109 0 -30 -22
-18 -44 24 -23 43 -38 46 -59 13 -9 -13 -33 -40 -54 -60 -37 -35 -37 -36 -10
-26 16 6 39 17 50 25 34 24 60 18 91 -21 25 -32 27 -39 16 -62 -12 -27 -12
-27 -40 6 -29 35 -52 37 -83 9 -7 -7 -21 -17 -32 -23 -10 -6 -21 -16 -23 -22
-6 -19 33 -14 71 8 33 20 33 20 56 -6 24 -27 23 -60 -2 -86 -14 -16 -47 -73
-47 -83 0 -24 106 119 128 174 29 70 28 114 -4 201 -15 39 -25 72 -23 74 2 2
69 7 149 10 79 4 146 9 148 11 2 2 1 8 -2 14 -5 7 -58 9 -151 6 -145 -3 -145
-3 -145 23 0 30 -15 59 -23 46z"/>
<path d="M390 445 c0 -16 -11 -32 -30 -47 -16 -12 -30 -26 -30 -31 0 -5 14 -6
30 -2 23 5 30 3 30 -9 0 -8 -5 -18 -11 -22 -8 -5 -6 -10 5 -16 32 -18 9 -93
-49 -155 -24 -27 -42 -49 -40 -51 8 -8 53 24 90 64 40 43 40 43 99 -11 33 -30
63 -55 68 -55 19 0 4 23 -57 84 -51 51 -65 72 -65 95 0 21 6 32 20 36 11 4 18
11 14 16 -3 5 -10 7 -15 4 -9 -6 -25 22 -17 30 2 3 18 1 35 -4 49 -14 47 -1
-3 31 -25 16 -48 38 -51 48 -7 28 -23 25 -23 -5z"/>
</g>
</svg>
