<svg version="1.0" xmlns="http://www.w3.org/2000/svg"
 width="71.000000pt" height="86.000000pt" viewBox="0 0 71.000000 86.000000"
 preserveAspectRatio="xMidYMid meet">
<metadata>
Created by potrace 1.15, written by Peter Selinger 2001-2017
</metadata>
<g transform="translate(0.000000,86.000000) scale(0.100000,-0.100000)"
fill="#000000" stroke="none">
<path d="M353 663 c-98 -3 -134 -7 -143 -18 -25 -30 0 -35 169 -35 133 0 171
3 180 14 10 11 7 17 -11 30 -12 9 -32 15 -43 14 -11 -1 -79 -4 -152 -5z"/>
<path d="M117 632 c-9 -14 6 -102 19 -113 7 -6 35 -16 61 -23 44 -11 48 -15
48 -42 0 -25 -4 -29 -30 -32 -23 -2 -32 2 -40 20 -5 13 -17 23 -25 23 -12 0
-16 -17 -18 -82 -2 -69 0 -83 12 -83 18 0 36 30 36 61 0 17 4 20 23 15 12 -3
30 -6 40 -6 16 0 18 -9 15 -77 -3 -78 -3 -78 -48 -78 -43 0 -45 1 -42 28 2 21
-1 27 -18 27 -19 0 -20 -6 -20 -93 0 -92 8 -117 36 -117 9 0 12 17 11 58 -2
57 -2 57 38 57 40 0 40 0 40 -62 0 -67 5 -79 31 -69 14 6 16 29 13 230 -4 203
-6 226 -23 245 -13 14 -31 21 -58 21 -24 0 -38 5 -38 13 0 6 -5 29 -11 50 -7
26 -16 37 -29 37 -10 0 -21 -3 -23 -8z"/>
<path d="M410 543 c-14 -3 -37 -16 -52 -31 -26 -24 -28 -31 -28 -108 0 -63 3
-83 15 -87 21 -9 25 4 32 85 6 78 15 98 43 98 14 0 18 -13 23 -82 4 -46 7
-102 7 -125 0 -42 0 -42 -57 -45 -63 -3 -78 -18 -37 -37 26 -12 27 -13 20 -79
-3 -37 -7 -76 -8 -87 -2 -14 3 -20 17 -20 11 0 21 7 21 15 10 81 30 163 42
167 24 10 43 -22 49 -83 7 -71 17 -94 43 -94 30 0 33 16 15 91 -17 76 -15 86
21 99 13 5 24 16 24 25 0 11 -12 15 -50 15 -50 0 -50 0 -50 115 0 98 2 117 17
122 30 12 53 -32 53 -103 0 -65 11 -79 38 -52 28 28 7 179 -28 198 -18 10
-121 12 -170 3z"/>
</g>
</svg>
