<svg version="1.0" xmlns="http://www.w3.org/2000/svg"
 width="91.000000pt" height="139.000000pt" viewBox="0 0 91.000000 139.000000"
 preserveAspectRatio="xMidYMid meet">
<metadata>
Created by potrace 1.15, written by Peter Selinger 2001-2017
</metadata>
<g transform="translate(0.000000,139.000000) scale(0.100000,-0.100000)"
fill="#000000" stroke="none">
<path d="M380 1280 c-76 -21 -105 -34 -129 -56 -14 -13 -28 -24 -32 -24 -10 0
-45 -73 -58 -120 -7 -25 -17 -59 -22 -76 -5 -17 -9 -40 -9 -52 0 -14 -11 -27
-28 -36 -43 -22 -66 -104 -66 -231 1 -211 1 -215 28 -215 22 0 23 4 29 78 6
84 34 232 46 245 5 5 11 -15 15 -45 6 -40 17 -64 49 -105 23 -28 48 -52 55
-53 6 0 12 -4 12 -8 0 -5 19 -15 43 -22 23 -7 55 -16 71 -21 15 -5 90 -14 165
-20 75 -5 140 -14 144 -19 5 -4 13 -41 18 -81 9 -79 16 -107 48 -209 44 -143
52 -158 77 -163 13 -2 26 -2 29 1 11 11 4 54 -14 95 -46 102 -63 279 -62 660
1 180 5 305 11 317 16 30 12 69 -10 82 -11 7 -20 18 -20 23 0 6 -30 22 -67 34
-76 26 -260 38 -323 21z m233 -85 c61 -18 68 -22 85 -54 9 -15 10 -26 4 -30
-7 -4 -7 -19 0 -47 6 -22 8 -52 5 -66 -6 -23 -14 -27 -62 -33 -30 -4 -81 -4
-112 0 -32 4 -71 9 -88 10 -16 1 -60 5 -96 9 -43 5 -74 4 -86 -3 -11 -5 -22
-8 -25 -6 -8 9 19 123 38 156 23 40 33 52 59 67 30 17 217 15 278 -3z m52
-336 c33 -12 33 -12 28 -128 -3 -64 -10 -119 -15 -122 -5 -3 -56 -4 -114 -2
-79 2 -114 8 -146 23 -23 11 -47 20 -53 20 -18 0 -117 99 -110 110 3 5 2 24
-3 42 -12 49 -5 66 31 71 68 7 350 -3 382 -14z"/>
<path d="M494 370 c-4 -22 -9 -40 -13 -41 -41 -7 -94 -8 -126 -4 -33 4 -43 11
-54 35 -13 31 -41 39 -59 18 -12 -16 -13 -196 -1 -204 5 -3 9 -16 9 -30 0 -68
82 -137 156 -131 66 6 106 51 131 144 8 32 19 63 25 70 14 17 13 124 -2 156
-9 18 -21 27 -36 27 -20 0 -25 -7 -30 -40z m-36 -132 c15 -15 16 -54 2 -63 -5
-3 -10 -14 -10 -23 0 -9 -4 -23 -9 -31 -11 -16 -74 -17 -79 -1 -2 6 -10 17
-19 25 -16 17 -36 76 -27 84 3 3 29 8 57 12 29 3 57 7 63 8 5 0 15 -4 22 -11z"/>
</g>
</svg>
