<svg version="1.0" xmlns="http://www.w3.org/2000/svg"
 width="60.000000pt" height="80.000000pt" viewBox="0 0 60.000000 80.000000"
 preserveAspectRatio="xMidYMid meet">
<metadata>
Created by potrace 1.15, written by Peter Selinger 2001-2017
</metadata>
<g transform="translate(0.000000,80.000000) scale(0.100000,-0.100000)"
fill="#000000" stroke="none">
<path d="M277 753 c-4 -3 -7 -17 -7 -30 0 -17 -8 -26 -27 -34 -97 -35 -139
-79 -129 -135 8 -39 50 -74 68 -56 7 7 6 16 -4 31 -25 35 -10 70 41 103 42 27
52 29 113 25 54 -3 75 -10 103 -31 48 -37 48 -35 -24 -98 -23 -20 -71 4 -71
37 0 26 -24 50 -40 40 -5 -3 -10 -19 -10 -34 0 -28 -42 -76 -108 -121 -49 -33
-68 -87 -76 -215 -5 -84 -12 -117 -27 -142 -22 -35 -20 -63 5 -63 8 0 24 16
37 36 19 32 23 54 27 164 3 71 9 133 16 141 6 8 41 40 79 73 67 58 67 58 133
30 40 -17 78 -42 99 -66 33 -36 35 -42 35 -111 0 -100 19 -240 33 -249 25 -16
29 -7 22 45 -3 28 -10 113 -14 187 -8 134 -8 134 -42 163 -19 16 -47 38 -64
48 -19 12 -24 19 -14 19 9 0 28 9 43 21 28 22 35 73 15 111 -13 24 -83 57
-122 58 -22 0 -30 6 -38 30 -10 28 -36 40 -52 23z"/>
<path d="M240 363 c-44 -8 -43 -19 7 -83 48 -62 48 -62 48 -154 0 -84 1 -91
20 -91 18 0 20 8 25 107 5 106 5 106 53 154 26 26 46 52 44 58 -4 11 -149 18
-197 9z m101 -65 c-11 -18 -26 -33 -33 -33 -6 0 -20 15 -31 33 -19 32 -19 32
33 32 52 0 52 0 31 -32z"/>
</g>
</svg>
