<svg version="1.0" xmlns="http://www.w3.org/2000/svg"
 width="72.000000pt" height="113.000000pt" viewBox="0 0 72.000000 113.000000"
 preserveAspectRatio="xMidYMid meet">
<metadata>
Created by potrace 1.15, written by Peter Selinger 2001-2017
</metadata>
<g transform="translate(0.000000,113.000000) scale(0.100000,-0.100000)"
fill="#000000" stroke="none">
<path d="M119 1019 c-11 -7 -5 -18 30 -51 44 -42 44 -42 15 -65 -16 -13 -53
-35 -81 -50 -29 -16 -53 -34 -53 -40 0 -20 44 -15 92 10 46 24 47 24 93 62 40
33 75 33 75 1 0 -24 -44 -66 -68 -66 -19 0 -53 -59 -54 -95 -2 -64 -45 -59
-69 8 -20 54 -49 63 -49 14 0 -50 38 -101 78 -105 43 -4 40 -32 -4 -44 -52
-13 -75 -47 -76 -115 -1 -64 16 -103 45 -103 10 0 20 -7 23 -15 4 -10 13 -13
24 -10 10 3 21 1 24 -4 4 -6 -12 -15 -36 -21 -24 -6 -50 -14 -58 -19 -20 -11
-38 -99 -39 -193 -1 -72 1 -78 19 -78 17 0 20 7 21 48 5 173 8 184 45 200 37
18 46 15 42 -15 -2 -21 -10 -29 -35 -35 -42 -11 -44 -38 -3 -38 27 0 30 -3 30
-30 0 -27 -3 -30 -30 -30 -23 0 -30 -4 -30 -20 0 -19 7 -20 100 -20 79 0 100
3 100 14 0 16 -21 26 -56 26 -20 0 -24 5 -24 30 0 27 3 30 33 30 18 0 38 5 44
11 17 17 26 -6 28 -70 1 -60 11 -101 24 -101 4 0 14 11 21 25 11 21 11 42 0
127 -16 131 -26 148 -85 148 -25 0 -45 5 -45 10 0 6 12 10 28 10 33 1 59 20
78 56 17 32 17 57 2 124 -13 57 -12 56 -80 65 -64 8 -67 35 -5 35 62 0 97 33
97 92 0 49 -22 83 -34 52 -3 -8 -6 -26 -6 -39 0 -27 -16 -42 -50 -45 -44 -4
-50 -1 -46 23 3 12 5 25 5 28 2 14 40 49 53 49 8 0 23 9 33 20 10 11 24 20 32
20 8 0 13 12 13 34 0 38 -38 86 -69 86 -11 0 -23 5 -26 10 -3 6 -15 10 -26 10
-11 0 -37 11 -58 24 -26 17 -42 21 -52 15z m155 -455 c17 -6 23 -54 7 -54 -36
0 -71 15 -71 30 0 29 26 39 64 24z m-104 -29 c0 -20 -5 -25 -24 -25 -13 0 -31
-3 -40 -6 -11 -4 -16 -1 -16 10 0 26 22 45 53 46 22 0 27 -4 27 -25z m-11 -64
c8 -5 11 -16 6 -30 -9 -28 -75 -31 -75 -3 0 35 37 53 69 33z m129 -23 c3 -22
-1 -28 -17 -28 -10 0 -26 -3 -35 -6 -12 -5 -16 1 -16 24 0 32 12 42 45 39 14
-1 21 -11 23 -29z m3 -175 c6 -33 6 -33 -37 -33 -42 0 -44 1 -44 29 0 30 15
41 55 38 13 -2 21 -12 26 -34z"/>
<path d="M503 953 c-12 -2 -33 -15 -47 -28 -21 -19 -26 -33 -26 -69 0 -43 4
-50 60 -107 57 -58 60 -63 60 -111 0 -50 -15 -78 -43 -78 -16 0 -29 46 -21 77
5 17 -20 52 -30 42 -3 -2 -7 -51 -10 -109 -3 -58 -11 -150 -17 -205 -15 -129
-21 -325 -10 -325 31 0 46 87 70 390 6 84 6 85 34 88 29 3 29 3 23 -125 -2
-70 -8 -185 -12 -256 -5 -84 -3 -127 3 -127 22 0 31 28 38 115 3 50 8 104 10
120 2 17 5 77 5 135 2 128 5 140 34 140 21 0 22 -2 20 -117 -2 -65 -5 -167 -9
-228 -5 -90 -4 -114 9 -130 12 -16 17 -18 28 -7 14 14 28 333 17 377 -4 13 -5
26 -2 29 14 13 20 195 9 254 -15 82 -49 30 -50 -78 -1 -28 -5 -36 -23 -38 -13
-2 -23 -2 -24 0 0 2 -2 30 -5 63 -7 82 -18 104 -75 150 -88 72 -63 100 109
122 33 4 42 9 42 24 0 17 -7 19 -72 18 -40 -1 -83 -4 -95 -6z"/>
</g>
</svg>
