<svg version="1.0" xmlns="http://www.w3.org/2000/svg"
 width="61.000000pt" height="83.000000pt" viewBox="0 0 61.000000 83.000000"
 preserveAspectRatio="xMidYMid meet">
<metadata>
Created by potrace 1.15, written by Peter Selinger 2001-2017
</metadata>
<g transform="translate(0.000000,83.000000) scale(0.100000,-0.100000)"
fill="#000000" stroke="none">
<path d="M160 510 c0 -58 -1 -61 -22 -58 -20 3 -23 9 -23 53 0 46 -2 50 -24
50 -20 0 -27 -7 -34 -34 -4 -19 -5 -50 0 -70 7 -31 14 -38 53 -50 44 -14 44
-14 12 -41 -53 -44 -54 -140 -2 -140 11 0 20 -2 20 -5 0 -3 -18 -34 -40 -67
-44 -68 -49 -88 -22 -88 22 0 72 51 98 100 25 47 55 81 65 74 23 -14 1 -113
-32 -150 -18 -19 -27 -74 -13 -74 4 0 21 9 39 20 25 15 35 32 48 80 18 65 22
147 8 169 -7 11 -24 13 -75 8 -81 -8 -96 8 -48 48 17 14 34 35 37 45 4 11 20
23 38 28 24 6 35 17 44 43 17 50 16 98 -3 106 -20 8 -34 -13 -34 -53 0 -35
-26 -67 -35 -43 -2 8 -6 34 -7 59 -3 38 -6 45 -25 48 -22 3 -23 0 -23 -58z"/>
<path d="M400 529 c-34 -14 -40 -26 -40 -87 0 -46 3 -54 25 -64 18 -8 22 -15
16 -27 -5 -9 -16 -54 -26 -101 -9 -47 -22 -100 -28 -117 -15 -45 4 -67 33 -37
18 18 31 62 59 202 10 52 26 71 42 55 14 -14 -5 -185 -28 -251 -16 -46 -12
-72 10 -72 25 0 46 35 52 90 4 30 13 82 21 115 30 130 11 176 -78 185 -38 4
-54 10 -56 21 -4 24 25 49 57 49 31 0 57 23 46 40 -8 13 -72 12 -105 -1z"/>
</g>
</svg>
