<svg version="1.0" xmlns="http://www.w3.org/2000/svg"
 width="69.000000pt" height="101.000000pt" viewBox="0 0 69.000000 101.000000"
 preserveAspectRatio="xMidYMid meet">
<metadata>
Created by potrace 1.15, written by Peter Selinger 2001-2017
</metadata>
<g transform="translate(0.000000,101.000000) scale(0.100000,-0.100000)"
fill="#000000" stroke="none">
<path d="M315 890 c-129 -6 -179 -19 -169 -45 5 -11 22 -15 75 -15 48 0 69 -4
70 -12 0 -7 1 -69 2 -138 2 -125 2 -125 -54 -126 -31 0 -61 -4 -68 -8 -16 -10
-6 -78 24 -171 20 -61 33 -95 89 -215 33 -72 108 -116 170 -99 61 17 136 130
136 204 0 19 5 37 10 40 6 3 10 21 10 39 0 17 4 36 9 42 12 11 17 136 7 152
-4 7 -32 12 -65 12 -70 0 -66 -9 -66 160 0 115 0 115 45 120 73 9 91 29 43 48
-38 14 -124 18 -268 12z m119 -84 c3 -13 3 -45 0 -70 -6 -41 -9 -46 -33 -46
-48 0 -54 12 -52 98 1 42 1 42 40 42 33 0 40 -4 45 -24z m-4 -200 c0 -46 -9
-56 -56 -56 -18 0 -24 6 -25 23 -3 54 13 76 54 77 25 0 27 -3 27 -44z m-2
-144 c5 -72 -45 -102 -67 -41 -23 66 -13 88 39 85 22 -1 25 -6 28 -44z m-130
23 c2 -2 0 -24 -3 -49 -6 -36 -11 -46 -26 -46 -10 0 -23 9 -29 19 -14 27 -13
78 3 84 11 5 47 -1 55 -8z m260 -29 c4 -45 -5 -58 -36 -50 -18 5 -22 13 -22
43 0 44 7 53 35 49 15 -2 21 -12 23 -42z m-22 -131 c11 -44 2 -60 -36 -61 -19
0 -70 -4 -112 -8 -70 -7 -79 -5 -97 13 -12 12 -21 32 -21 46 0 23 3 24 68 27
195 9 191 9 198 -17z m-52 -154 c-15 -23 -37 -42 -52 -46 -22 -5 -32 0 -60 30
-18 19 -30 40 -27 45 3 6 42 10 86 10 79 0 79 0 53 -39z"/>
</g>
</svg>
