<svg version="1.0" xmlns="http://www.w3.org/2000/svg"
 width="95.000000pt" height="109.000000pt" viewBox="0 0 95.000000 109.000000"
 preserveAspectRatio="xMidYMid meet">
<metadata>
Created by potrace 1.15, written by Peter Selinger 2001-2017
</metadata>
<g transform="translate(0.000000,109.000000) scale(0.100000,-0.100000)"
fill="#000000" stroke="none">
<path d="M390 915 c-63 -5 -121 -14 -127 -18 -27 -17 -11 -27 46 -27 91 0 91
0 91 -95 0 -46 -4 -86 -9 -89 -5 -3 -67 -8 -137 -12 -122 -5 -184 -17 -184
-34 0 -4 27 -13 59 -19 68 -13 63 0 80 -191 14 -157 79 -285 169 -331 15 -8
30 -18 33 -23 10 -13 133 -10 137 3 2 6 14 11 27 11 24 0 115 85 115 108 0 6
4 12 8 12 4 0 13 19 19 43 11 40 17 69 47 222 20 97 32 125 55 125 34 0 51 12
51 35 0 28 -36 36 -153 33 -53 -1 -81 2 -86 10 -9 16 -3 135 9 166 7 20 16 23
66 25 31 1 61 4 66 7 17 11 3 37 -22 41 -62 8 -255 7 -360 -2z m180 -156 c0
-91 0 -91 -31 -85 -17 3 -42 6 -55 6 -23 0 -24 2 -24 85 0 85 0 85 55 85 55 0
55 0 55 -91z m-180 -145 c7 -3 -5 -153 -15 -183 -5 -17 -14 -21 -45 -21 -46 0
-47 3 -56 120 -7 91 -7 91 18 85 15 -4 29 -2 33 4 5 9 45 6 65 -5z m151 -4
c18 0 19 -8 18 -100 -2 -111 6 -100 -81 -106 -36 -2 -36 -2 -31 95 6 124 6
125 44 117 18 -3 40 -6 50 -6z m180 -6 c6 -3 1 -34 -23 -151 -10 -50 -12 -52
-40 -49 -39 5 -41 8 -41 69 1 146 -3 136 51 135 26 0 50 -2 53 -4z m-55 -266
c13 -13 -60 -140 -101 -175 -34 -29 -46 -33 -87 -32 -27 2 -48 6 -48 11 0 4
-6 8 -14 8 -17 0 -69 50 -92 89 -10 17 -21 31 -24 31 -3 0 -6 18 -8 41 -3 40
-3 40 182 37 101 -2 188 -6 192 -10z"/>
</g>
</svg>
