<svg version="1.0" xmlns="http://www.w3.org/2000/svg"
 width="58.000000pt" height="82.000000pt" viewBox="0 0 58.000000 82.000000"
 preserveAspectRatio="xMidYMid meet">
<metadata>
Created by potrace 1.15, written by Peter Selinger 2001-2017
</metadata>
<g transform="translate(0.000000,82.000000) scale(0.100000,-0.100000)"
fill="#000000" stroke="none">
<path d="M177 733 c-24 -6 -16 -27 11 -31 31 -5 28 -12 -20 -54 -24 -20 -40
-40 -36 -43 4 -4 32 7 63 24 31 17 60 29 65 26 6 -4 10 -21 10 -40 0 -31 -3
-34 -32 -37 -42 -4 -39 -21 4 -28 25 -4 33 -10 33 -25 0 -44 -115 -26 -158 24
-15 18 -27 48 -31 80 -6 43 -10 51 -28 51 -19 0 -20 -4 -15 -56 10 -98 72
-154 170 -154 53 0 61 -6 77 -53 13 -41 58 -77 97 -77 35 0 36 16 2 31 -29 12
-69 61 -69 85 0 13 84 2 123 -16 33 -16 57 -57 57 -98 0 -36 26 -63 36 -38 8
21 -3 82 -23 124 -21 43 -77 72 -143 72 -51 0 -51 0 -48 32 3 27 8 33 34 39
67 13 123 81 112 136 -2 13 -16 0 -51 -44 -63 -83 -106 -94 -107 -28 -1 30
-23 64 -56 86 -29 19 -43 21 -77 12z"/>
<path d="M106 382 c-3 -5 3 -22 13 -39 14 -22 36 -36 82 -53 35 -13 68 -27 74
-32 12 -11 -12 -28 -41 -28 -43 0 -124 -31 -139 -53 -7 -12 -17 -42 -21 -66
-6 -39 -5 -43 12 -39 13 2 21 16 26 46 4 23 10 47 13 52 15 24 155 42 155 20
0 -17 -30 -72 -63 -113 -16 -21 -27 -41 -24 -44 12 -11 57 28 77 67 11 22 27
40 34 40 8 0 25 -19 38 -42 15 -28 31 -44 46 -46 31 -5 28 19 -8 53 -30 29
-60 78 -60 98 0 13 110 3 139 -13 12 -6 31 -32 42 -57 18 -42 21 -45 36 -31
13 13 13 22 4 51 -21 63 -52 82 -144 85 -81 4 -82 5 -97 35 -12 26 -27 36 -78
53 -35 12 -70 31 -78 43 -16 22 -29 27 -38 13z"/>
</g>
</svg>
