<svg version="1.0" xmlns="http://www.w3.org/2000/svg"
 width="63.000000pt" height="88.000000pt" viewBox="0 0 63.000000 88.000000"
 preserveAspectRatio="xMidYMid meet">
<metadata>
Created by potrace 1.15, written by Peter Selinger 2001-2017
</metadata>
<g transform="translate(0.000000,88.000000) scale(0.100000,-0.100000)"
fill="#000000" stroke="none">
<path d="M201 684 c-11 -25 -15 -26 -62 -21 -27 3 -56 4 -64 0 -22 -8 -18 -37
7 -48 32 -15 33 -33 1 -37 -17 -2 -29 -10 -31 -20 -3 -14 3 -18 28 -18 27 0
31 -3 28 -22 -2 -19 -10 -24 -45 -26 -29 -2 -43 -8 -43 -17 0 -8 3 -16 8 -18
14 -9 342 8 345 18 1 6 -10 11 -25 13 -24 3 -28 8 -28 33 0 22 5 29 19 29 30
0 35 19 6 26 -35 9 -36 51 0 56 48 6 25 23 -37 28 -56 4 -63 8 -66 28 -5 30
-26 28 -41 -4z m-1 -84 c0 -15 -7 -20 -25 -20 -18 0 -25 5 -25 20 0 15 7 20
25 20 18 0 25 -5 25 -20z m88 -2 c-2 -15 -11 -24 -25 -26 -19 -3 -23 1 -23 22
0 21 5 26 26 26 21 0 25 -4 22 -22z m-88 -78 c0 -27 -3 -30 -30 -30 -25 0 -30
4 -30 23 0 30 7 37 37 37 19 0 23 -5 23 -30z m85 0 c0 -18 -6 -26 -22 -28 -20
-3 -23 1 -23 28 0 27 3 31 23 28 16 -2 22 -10 22 -28z"/>
<path d="M465 629 c-39 -11 -70 -61 -56 -87 6 -11 21 -26 34 -35 24 -16 40
-59 30 -84 -8 -20 -41 -15 -54 8 -17 32 -27 12 -38 -78 -7 -54 -20 -102 -41
-144 -35 -73 -34 -69 -15 -69 24 0 61 69 80 148 18 77 24 86 50 76 13 -5 15
-15 10 -48 -13 -77 -53 -177 -90 -222 -27 -33 -34 -49 -27 -56 16 -16 35 2 74
70 38 66 55 114 72 197 11 55 14 60 40 63 29 4 29 4 22 -49 -8 -57 -39 -159
-62 -201 -18 -33 -18 -48 -1 -48 26 0 73 129 107 290 24 114 24 130 5 130 -14
0 -20 -15 -27 -65 -2 -14 -12 -21 -36 -23 -32 -3 -32 -3 -26 37 8 47 -12 86
-52 101 -52 20 -19 48 68 58 48 5 64 11 66 25 3 14 -4 17 -50 16 -29 0 -67 -5
-83 -10z"/>
<path d="M155 427 c-53 -25 -69 -52 -73 -125 -4 -62 -2 -69 22 -91 31 -29 33
-61 6 -116 -23 -48 -25 -75 -5 -75 20 0 45 41 52 86 8 54 20 74 44 74 22 0 23
-3 39 -80 13 -67 25 -89 40 -74 7 7 8 19 2 35 -5 13 -12 45 -16 71 -6 41 -5
47 14 53 30 9 40 36 46 122 4 65 2 82 -13 100 -23 29 -114 40 -158 20z m130
-38 c12 -18 -3 -23 -76 -27 -55 -3 -69 -1 -69 10 0 8 3 18 7 21 11 11 131 8
138 -4z m13 -71 c-3 -22 -8 -23 -90 -26 -82 -3 -88 -1 -88 17 0 18 8 20 73 24
39 1 80 4 90 5 14 1 18 -4 15 -20z m-20 -75 c-5 -28 -99 -41 -133 -19 -39 26
-21 36 61 36 66 0 75 -2 72 -17z"/>
</g>
</svg>
