<svg version="1.0" xmlns="http://www.w3.org/2000/svg"
 width="78.000000pt" height="95.000000pt" viewBox="0 0 78.000000 95.000000"
 preserveAspectRatio="xMidYMid meet">
<metadata>
Created by potrace 1.15, written by Peter Selinger 2001-2017
</metadata>
<g transform="translate(0.000000,95.000000) scale(0.100000,-0.100000)"
fill="#000000" stroke="none">
<path d="M305 680 c-153 -16 -163 -22 -185 -117 -18 -79 5 -181 45 -196 8 -4
37 -9 64 -13 60 -8 66 -19 50 -92 -12 -58 -71 -170 -95 -179 -17 -6 -19 -43
-2 -43 17 0 98 90 113 125 29 67 45 186 45 330 0 131 2 145 18 146 9 1 66 4
127 8 94 5 110 9 113 24 3 15 -7 17 -110 15 -62 -1 -144 -4 -183 -8z m-15 -85
c0 -40 -23 -55 -86 -55 -29 0 -34 4 -34 23 0 12 4 27 8 34 10 16 51 32 85 32
24 1 27 -2 27 -34z m4 -131 c10 -48 -7 -68 -52 -60 -42 6 -72 32 -72 61 0 31
7 35 66 35 52 0 52 0 58 -36z"/>
<path d="M475 578 c-2 -7 -5 -85 -7 -174 -3 -161 -3 -161 -70 -238 -59 -67
-82 -106 -62 -106 17 0 95 65 114 95 12 19 25 35 28 35 4 0 20 -16 35 -35 34
-42 79 -67 115 -63 48 5 37 32 -25 60 -89 41 -93 52 -93 262 0 151 -2 176 -15
176 -9 0 -18 -6 -20 -12z"/>
<path d="M577 563 c-4 -3 -7 -53 -7 -109 0 -105 9 -130 36 -103 10 11 12 36 7
117 -6 96 -14 118 -36 95z"/>
<path d="M389 548 c-1 -2 -3 -51 -4 -110 -2 -83 1 -108 11 -108 20 0 22 8 25
115 4 89 2 100 -13 103 -10 2 -19 2 -19 0z"/>
</g>
</svg>
