<svg version="1.0" xmlns="http://www.w3.org/2000/svg"
 width="62.000000pt" height="86.000000pt" viewBox="0 0 62.000000 86.000000"
 preserveAspectRatio="xMidYMid meet">
<metadata>
Created by potrace 1.15, written by Peter Selinger 2001-2017
</metadata>
<g transform="translate(0.000000,86.000000) scale(0.100000,-0.100000)"
fill="#000000" stroke="none">
<path d="M286 712 c-17 -34 -97 -109 -149 -141 -27 -17 -35 -27 -28 -34 8 -8
19 -5 38 11 16 12 58 42 95 66 36 25 68 51 70 58 3 8 13 6 34 -8 46 -33 153
-69 166 -56 16 16 0 32 -33 32 -39 0 -76 20 -118 64 -42 43 -56 45 -75 8z"/>
<path d="M282 590 c-55 -13 -82 -46 -82 -99 0 -40 5 -50 35 -79 31 -28 43 -32
91 -32 74 0 107 19 122 68 22 74 12 111 -38 137 -31 16 -75 18 -128 5z m90
-20 c43 -12 58 -34 58 -84 0 -47 -27 -73 -83 -81 -49 -8 -81 4 -109 39 -37 45
-18 90 52 120 43 18 37 18 82 6z"/>
<path d="M276 524 c-9 -8 -16 -26 -16 -39 0 -52 93 -61 120 -12 14 27 14 29
-9 48 -28 23 -74 25 -95 3z m69 -34 c0 -33 -40 -41 -50 -11 -9 28 2 43 28 39
16 -2 22 -10 22 -28z"/>
<path d="M427 349 c-4 -16 -18 -29 -41 -37 -39 -14 -86 -64 -86 -91 0 -28 35
-53 67 -49 22 2 29 9 31 31 3 28 3 28 -18 7 -23 -23 -40 -19 -40 9 0 45 100
95 170 84 68 -11 84 -73 19 -73 -35 0 -38 -17 -5 -26 56 -14 91 29 67 82 -12
27 -65 54 -107 54 -15 0 -32 7 -39 17 -11 14 -13 14 -18 -8z"/>
<path d="M168 318 c-3 -43 -3 -43 -55 -46 -67 -4 -68 -19 -2 -28 28 -4 53 -13
56 -20 2 -7 1 -32 -4 -56 -8 -40 -11 -43 -46 -49 -93 -15 -19 -33 88 -22 73 8
89 24 33 33 -31 5 -33 7 -36 52 -3 47 -3 47 39 50 41 3 42 4 25 21 -10 9 -28
17 -41 17 -23 0 -35 22 -35 68 0 40 -19 23 -22 -20z"/>
<path d="M440 226 c0 -26 -10 -46 -40 -81 -43 -50 -49 -74 -24 -99 24 -25 44
-19 85 25 42 45 66 47 71 4 4 -33 22 -33 26 1 4 27 -22 64 -45 64 -7 0 -31
-16 -53 -36 -24 -22 -46 -34 -55 -30 -24 9 -18 28 26 72 37 38 40 44 34 78 -9
46 -25 47 -25 2z"/>
</g>
</svg>
