<svg version="1.0" xmlns="http://www.w3.org/2000/svg"
 width="66.000000pt" height="85.000000pt" viewBox="0 0 66.000000 85.000000"
 preserveAspectRatio="xMidYMid meet">
<metadata>
Created by potrace 1.15, written by Peter Selinger 2001-2017
</metadata>
<g transform="translate(0.000000,85.000000) scale(0.100000,-0.100000)"
fill="#000000" stroke="none">
<path d="M328 635 c-6 -68 -36 -104 -114 -136 -52 -21 -64 -32 -45 -43 17 -11
109 25 155 60 51 39 74 41 87 6 7 -18 2 -30 -25 -60 -18 -20 -38 -47 -45 -59
-10 -20 -20 -23 -67 -23 -51 0 -56 2 -72 30 -9 16 -20 30 -24 30 -13 0 -9 -39
7 -69 16 -31 39 -41 102 -41 37 0 44 -4 58 -30 21 -40 13 -50 -38 -50 -44 1
-77 21 -90 53 -9 23 -27 12 -27 -16 0 -37 36 -84 69 -92 35 -7 37 -12 16 -39
-8 -11 -15 -29 -15 -41 0 -32 -19 -45 -66 -45 -96 0 -144 -31 -67 -44 49 -8
431 -8 461 0 14 4 22 13 20 23 -2 12 -17 17 -56 19 -52 3 -52 3 -52 36 0 26
-11 45 -47 86 -27 28 -48 62 -49 73 -1 12 -5 30 -9 40 -6 14 -2 17 19 17 33 0
69 -35 87 -83 15 -44 26 -47 35 -11 9 34 -25 105 -57 121 -13 6 -41 14 -61 18
-23 3 -38 11 -38 20 0 8 17 26 38 41 78 58 79 73 11 151 -28 32 -57 70 -65 86
-22 40 -31 33 -36 -28z m94 -472 c15 -20 38 -68 38 -83 0 -6 -38 -10 -85 -10
-89 0 -94 3 -74 43 33 63 89 87 121 50z"/>
</g>
</svg>
