<svg version="1.0" xmlns="http://www.w3.org/2000/svg"
 width="67.000000pt" height="97.000000pt" viewBox="0 0 67.000000 97.000000"
 preserveAspectRatio="xMidYMid meet">
<metadata>
Created by potrace 1.15, written by Peter Selinger 2001-2017
</metadata>
<g transform="translate(0.000000,97.000000) scale(0.100000,-0.100000)"
fill="#000000" stroke="none">
<path d="M175 800 c-3 -5 -21 -10 -38 -10 -32 0 -32 0 -29 -72 2 -40 10 -81
18 -93 15 -24 11 -44 -16 -85 -46 -67 -76 -205 -64 -286 9 -65 21 -53 26 29 3
39 12 92 20 117 9 25 20 64 27 86 11 41 36 63 53 46 4 -4 3 -30 -3 -58 -21
-95 -22 -194 -4 -291 10 -52 20 -91 23 -88 9 9 2 107 -10 144 -11 35 4 182 22
210 16 27 21 -25 5 -62 -8 -20 -15 -45 -15 -56 0 -23 28 -36 46 -21 15 13 34
-15 34 -51 0 -34 22 -99 31 -93 5 3 9 43 9 89 0 75 -2 85 -25 106 -14 14 -25
35 -25 50 0 51 -12 86 -41 120 -44 52 -33 90 31 106 43 11 52 33 13 33 -39 0
-53 17 -53 61 0 28 5 38 20 42 27 7 25 23 -2 31 -33 8 -46 7 -53 -4z m0 -96
c0 -53 -19 -50 -23 5 -2 32 0 42 10 39 8 -3 13 -20 13 -44z"/>
<path d="M377 580 c22 -23 29 -27 31 -15 6 28 -7 45 -34 45 -26 0 -26 0 3 -30z"/>
<path d="M495 573 c4 -20 18 -58 31 -85 27 -54 29 -75 12 -147 -8 -37 -16 -51
-29 -51 -25 0 -79 48 -79 71 0 11 -4 27 -9 37 -5 9 -14 31 -20 47 -14 37 -48
78 -79 94 -35 19 -37 6 -5 -26 33 -33 73 -106 73 -134 0 -29 37 -97 60 -109
13 -7 20 -21 20 -38 0 -40 -24 -112 -40 -122 -24 -15 15 -23 73 -16 139 19
143 20 112 46 -8 7 -15 18 -15 24 0 6 -11 32 -23 57 -24 46 -24 46 0 90 21 37
24 53 19 106 -5 65 -40 145 -76 176 -29 25 -33 22 -25 -20z m56 -402 c21 -19
21 -19 1 -30 -20 -11 -62 -15 -62 -7 0 16 21 56 30 56 6 0 20 -9 31 -19z"/>
<path d="M454 418 c3 -24 5 -43 5 -44 1 -1 9 -11 20 -22 36 -42 43 9 9 69 -28
51 -41 49 -34 -3z"/>
<path d="M370 279 c0 -15 21 -53 34 -61 31 -20 35 34 4 56 -26 19 -38 20 -38
5z"/>
</g>
</svg>
