<svg version="1.0" xmlns="http://www.w3.org/2000/svg"
 width="133.000000pt" height="127.000000pt" viewBox="0 0 133.000000 127.000000"
 preserveAspectRatio="xMidYMid meet">
<metadata>
Created by potrace 1.15, written by Peter Selinger 2001-2017
</metadata>
<g transform="translate(0.000000,127.000000) scale(0.100000,-0.100000)"
fill="#000000" stroke="none">
<path d="M850 1134 c0 -8 5 -25 11 -36 10 -18 7 -25 -21 -50 -18 -15 -36 -28
-40 -28 -4 0 -35 -27 -68 -59 -47 -46 -62 -67 -67 -97 -3 -22 -8 -47 -10 -57
-6 -33 24 -123 54 -159 14 -18 51 -24 64 -12 3 3 -10 37 -29 75 -24 47 -34 79
-32 101 3 30 6 33 36 33 72 1 122 -78 121 -190 0 -74 -21 -241 -31 -251 -4 -4
-3 -13 3 -21 9 -9 8 -13 0 -13 -6 0 -11 -7 -11 -15 0 -8 5 -14 11 -13 6 2 19
-20 28 -48 25 -75 70 -134 141 -184 26 -19 47 -24 92 -25 57 0 59 1 105 52 27
28 57 68 68 88 19 36 19 37 1 51 -17 12 -25 10 -68 -21 -53 -38 -64 -38 -104
7 -57 62 -66 182 -33 409 10 68 18 141 19 162 0 20 2 37 5 37 3 0 17 -10 31
-22 25 -23 26 -25 19 -110 -6 -73 -5 -88 7 -88 25 0 47 34 57 83 4 25 6 49 3
51 -3 3 1 12 7 20 9 11 10 20 1 35 -6 12 -8 21 -5 21 3 0 -1 14 -10 30 -16 32
-67 68 -125 89 -98 36 -120 52 -138 104 -11 33 -25 52 -40 58 -34 13 -52 11
-52 -7z m148 -182 c28 -18 52 -62 52 -95 0 -36 -20 -87 -35 -87 -11 0 -65 71
-65 85 0 3 -10 16 -21 28 -12 12 -27 36 -34 52 -12 26 -11 31 3 37 22 9 71 -1
100 -20z m-151 -19 c4 -10 9 -20 12 -23 11 -9 51 -69 51 -75 0 -4 13 -25 28
-48 44 -67 55 -113 58 -242 4 -199 11 -242 44 -291 17 -24 40 -50 53 -59 22
-16 22 -16 3 -30 -24 -18 -34 -19 -51 -2 -7 7 -26 24 -42 38 -74 63 -102 154
-84 282 14 103 14 202 -1 246 -22 64 -65 118 -113 141 -25 12 -45 25 -45 28 1
20 42 51 68 52 7 0 16 -8 19 -17z"/>
<path d="M314 1003 c-11 -50 -133 -193 -156 -186 -5 2 -8 -2 -8 -7 0 -6 -11
-22 -26 -36 -14 -14 -23 -31 -21 -37 2 -7 41 -11 105 -11 55 -1 105 -5 111
-11 5 -5 11 -28 13 -50 3 -40 3 -40 -85 -36 -83 3 -117 -5 -117 -30 0 -13 62
-27 98 -21 39 5 129 -7 115 -16 -6 -4 -13 -43 -16 -87 -9 -118 -24 -265 -32
-308 -10 -49 -48 -76 -122 -85 -42 -5 -58 -11 -58 -22 0 -15 5 -16 266 -11 42
1 72 6 85 16 19 16 19 16 -1 28 -39 23 -115 111 -110 127 2 8 7 47 9 85 3 39
8 81 11 95 3 14 8 54 12 90 3 36 10 70 14 76 5 6 26 11 46 12 120 6 124 48 5
51 -43 1 -43 1 -40 51 3 50 3 50 57 50 33 0 61 -6 70 -14 9 -8 28 -18 44 -21
46 -12 34 26 -25 76 -137 117 -158 140 -176 201 -14 48 -21 58 -39 58 -16 0
-24 -8 -29 -27z m88 -157 c65 -64 65 -64 25 -69 -22 -3 -66 -1 -98 5 -51 9
-59 13 -59 32 0 12 8 29 18 37 9 9 24 26 32 37 8 12 15 22 16 22 0 0 30 -29
66 -64z"/>
<path d="M60 831 c0 -5 5 -13 10 -16 6 -3 10 -2 10 4 0 5 -4 13 -10 16 -5 3
-10 2 -10 -4z"/>
<path d="M113 405 c-18 -8 -33 -18 -33 -23 0 -16 74 -22 115 -10 22 6 43 11
48 10 4 -1 7 2 7 6 0 7 -79 33 -98 32 -4 -1 -22 -7 -39 -15z"/>
<path d="M82 256 c-30 -6 -58 -19 -63 -28 -15 -27 34 -36 134 -25 73 9 87 13
87 28 0 10 -4 20 -9 23 -20 13 -99 14 -149 2z"/>
</g>
</svg>
