<svg version="1.0" xmlns="http://www.w3.org/2000/svg"
 width="107.000000pt" height="227.000000pt" viewBox="0 0 107.000000 227.000000"
 preserveAspectRatio="xMidYMid meet">
<metadata>
Created by potrace 1.15, written by Peter Selinger 2001-2017
</metadata>
<g transform="translate(0.000000,227.000000) scale(0.100000,-0.100000)"
fill="#000000" stroke="none">
<path d="M505 2161 c-3 -5 5 -20 17 -33 34 -35 88 -106 88 -115 0 -4 14 -24
30 -43 16 -19 30 -41 30 -47 0 -7 4 -13 9 -13 4 0 16 -25 26 -56 26 -84 17
-190 -25 -274 -18 -36 -35 -67 -39 -70 -3 -3 -16 -23 -28 -45 -11 -22 -30 -56
-41 -75 -45 -82 -82 -232 -82 -335 0 -26 10 -77 22 -112 19 -55 33 -75 82
-119 33 -30 68 -54 78 -54 10 0 18 -4 18 -10 0 -14 104 -13 150 1 21 6 53 24
71 40 19 16 37 29 41 29 3 0 22 21 40 48 92 128 55 219 -57 142 -24 -16 -47
-30 -50 -30 -4 0 -19 -8 -33 -18 -15 -10 -54 -29 -87 -42 -33 -13 -73 -32 -88
-43 -26 -18 -29 -18 -46 -3 -10 9 -29 37 -42 62 -20 39 -23 60 -23 147 0 101
0 103 43 182 23 44 46 85 50 90 23 29 86 157 107 214 25 69 33 203 15 239 -5
9 -19 40 -32 67 -29 63 -77 136 -101 153 -10 7 -18 19 -18 26 0 17 -88 106
-105 106 -8 0 -16 -4 -20 -9z m465 -1210 c0 -17 -36 -60 -71 -86 -24 -17 -113
-45 -144 -45 -16 0 -37 4 -45 10 -12 7 -11 10 5 15 25 8 101 46 180 90 71 40
75 41 75 16z"/>
<path d="M430 2079 c0 -5 11 -9 25 -9 33 0 33 15 0 16 -14 1 -25 -2 -25 -7z"/>
<path d="M177 2049 c-27 -20 -27 -22 -11 -40 13 -15 31 -19 83 -19 36 0 81 4
100 10 35 10 74 47 65 61 -3 5 -51 9 -107 9 -88 -1 -106 -4 -130 -21z"/>
<path d="M179 1880 c-98 -8 -109 -12 -109 -44 0 -28 39 -39 99 -30 32 5 37 2
49 -22 15 -34 16 -79 1 -106 -13 -24 -4 -37 14 -19 9 10 14 -28 22 -183 16
-311 8 -392 -34 -342 -13 16 -44 173 -61 309 -10 85 -25 127 -44 127 -5 0 -6
-32 -2 -72 4 -40 11 -113 15 -163 17 -184 42 -249 100 -265 38 -10 38 -10 30
-60 -4 -28 -4 -75 1 -105 5 -30 9 -171 9 -312 1 -141 5 -261 9 -265 22 -22 31
26 33 177 1 88 6 168 10 177 5 9 9 98 9 198 1 181 1 181 52 230 44 43 53 58
63 107 12 61 12 275 0 313 -15 46 -25 0 -34 -145 -9 -158 -23 -212 -63 -246
-11 -11 -23 -19 -25 -19 -1 0 -3 73 -3 163 -1 89 -3 218 -6 288 -5 119 -4 128
21 182 22 50 29 57 54 57 68 0 132 41 105 67 -14 14 -159 16 -315 3z m131 -83
c0 -16 -23 -67 -30 -67 -6 0 -30 60 -30 73 0 4 14 7 30 7 18 0 30 -5 30 -13z"/>
<path d="M895 1740 c3 -5 8 -10 11 -10 2 0 4 5 4 10 0 6 -5 10 -11 10 -5 0 -7
-4 -4 -10z"/>
<path d="M860 590 c-11 -7 -12 -14 -5 -27 6 -10 12 -77 14 -149 3 -132 3 -132
-56 -143 -32 -6 -70 -14 -84 -17 -25 -5 -27 -3 -32 33 -3 21 -5 74 -6 118 -2
94 -20 187 -35 182 -16 -6 -11 -427 6 -484 15 -52 30 -68 80 -81 40 -11 82 -1
130 30 27 18 58 91 58 138 0 14 6 32 12 38 10 10 10 15 1 20 -7 4 -13 52 -16
127 -3 66 -9 137 -12 157 -8 44 -34 71 -55 58z m10 -399 c0 -40 -26 -98 -49
-111 -26 -13 -72 -12 -92 3 -17 13 -32 95 -21 114 7 11 46 18 125 21 35 2 37
0 37 -27z"/>
<path d="M150 503 c0 -134 20 -398 33 -423 23 -48 80 -80 143 -80 54 0 96 75
106 190 21 255 21 328 4 355 -33 50 -41 27 -46 -131 -5 -140 -6 -149 -25 -150
-11 -1 -50 -4 -86 -8 -66 -7 -66 -7 -72 116 -8 149 -17 192 -40 196 -15 3 -17
-6 -17 -65z m224 -345 c-8 -63 -35 -98 -75 -98 -35 0 -69 35 -69 71 0 15 -2
34 -5 42 -7 18 43 35 108 36 48 1 48 1 41 -51z"/>
</g>
</svg>
