<svg version="1.0" xmlns="http://www.w3.org/2000/svg"
 width="93.000000pt" height="121.000000pt" viewBox="0 0 93.000000 121.000000"
 preserveAspectRatio="xMidYMid meet">
<metadata>
Created by potrace 1.15, written by Peter Selinger 2001-2017
</metadata>
<g transform="translate(0.000000,121.000000) scale(0.100000,-0.100000)"
fill="#000000" stroke="none">
<path d="M646 928 c-3 -29 -6 -67 -6 -85 0 -30 -4 -33 -42 -43 -50 -12 -90
-33 -99 -52 -11 -22 -29 -132 -29 -174 1 -21 7 -50 15 -64 14 -25 14 -25 21
18 3 23 12 42 18 42 6 1 28 3 49 6 36 6 37 5 38 -28 1 -18 1 -37 0 -42 -3 -17
44 -76 61 -76 9 0 26 -12 37 -27 19 -23 20 -29 8 -47 -9 -13 -27 -22 -48 -24
-64 -6 -90 -46 -99 -152 -4 -41 -10 -83 -14 -92 -6 -14 -4 -18 10 -18 22 0 38
32 54 105 14 68 30 95 54 95 33 0 81 35 95 69 22 51 6 81 -78 154 -15 12 -21
29 -21 56 0 41 -6 36 90 72 46 17 107 105 112 159 3 45 3 45 -85 45 -89 -1
-89 -1 -83 47 7 47 -4 84 -28 100 -20 14 -23 9 -30 -44z m164 -168 c0 -16 -4
-30 -10 -30 -5 0 -10 -8 -10 -17 0 -31 -101 -86 -115 -63 -3 6 -1 35 5 65 9
44 16 56 33 60 12 2 31 6 42 8 48 11 55 8 55 -23z m-184 -128 c-3 -3 -28 -7
-56 -10 -50 -5 -50 -5 -44 29 12 63 36 95 75 101 23 3 24 0 27 -56 2 -32 1
-61 -2 -64z"/>
<path d="M310 800 c-14 -4 -45 -13 -70 -21 -25 -7 -49 -16 -54 -21 -6 -4 -20
-8 -32 -8 -37 0 -49 -48 -49 -211 0 -134 3 -151 24 -198 16 -33 34 -55 53 -63
15 -7 28 -15 28 -18 0 -11 148 -11 155 -1 3 6 19 11 34 11 20 0 30 6 34 20 4
16 0 20 -19 20 -22 0 -24 3 -18 28 4 15 11 38 16 51 10 27 -13 61 -42 61 -25
0 -30 21 -36 130 -7 118 9 183 46 188 22 4 50 24 50 36 0 9 -91 6 -120 -4z
m-19 -147 c0 -49 0 -110 -1 -137 -2 -57 15 -103 41 -111 21 -7 25 -38 10 -79
-9 -23 -13 -24 -63 -19 -111 12 -133 50 -132 225 1 142 5 152 74 189 65 34 70
30 71 -68z"/>
<path d="M196 554 c-10 -27 -7 -99 6 -112 26 -26 38 -13 38 42 0 63 -7 86 -25
86 -7 0 -16 -7 -19 -16z"/>
</g>
</svg>
