<svg version="1.0" xmlns="http://www.w3.org/2000/svg"
 width="107.000000pt" height="95.000000pt" viewBox="0 0 107.000000 95.000000"
 preserveAspectRatio="xMidYMid meet">
<metadata>
Created by potrace 1.15, written by Peter Selinger 2001-2017
</metadata>
<g transform="translate(0.000000,95.000000) scale(0.100000,-0.100000)"
fill="#000000" stroke="none">
<path d="M790 838 c-61 -62 -80 -102 -80 -168 0 -48 0 -48 -64 -78 -91 -43
-100 -62 -102 -227 -1 -131 6 -166 30 -142 7 7 15 20 19 29 5 14 20 17 91 17
74 0 86 -2 87 -17 7 -125 17 -182 29 -182 12 0 14 20 11 132 -2 83 -1 88 19
88 11 0 20 5 20 10 0 6 5 10 11 10 7 0 27 15 44 33 39 40 65 121 65 200 0 58
7 67 56 67 18 0 24 5 24 21 0 20 -3 21 -52 14 -82 -11 -222 -22 -230 -18 -13
7 -9 81 5 95 92 97 111 134 83 157 -11 9 -24 0 -66 -41z m118 -255 c35 -47 -5
-200 -60 -229 -16 -8 -32 -12 -37 -10 -5 3 -12 32 -16 63 -4 32 -10 63 -15 68
-4 6 -10 33 -14 61 -6 52 -6 52 31 62 48 12 94 6 111 -15z m-159 -153 c15 -47
14 -107 -1 -112 -7 -3 -34 -6 -60 -7 -25 -1 -56 -4 -67 -6 -32 -6 -44 27 -38
110 7 100 26 130 97 161 24 10 25 9 42 -50 9 -34 21 -77 27 -96z"/>
<path d="M417 732 c-10 -11 -45 -23 -92 -31 -42 -8 -82 -20 -89 -27 -7 -7 -18
-9 -25 -5 -14 9 -61 2 -61 -9 0 -4 -13 -10 -30 -13 -16 -4 -30 -11 -30 -16 0
-4 -8 -26 -17 -47 -19 -44 -21 -58 -22 -164 -2 -104 5 -173 18 -198 6 -11 8
-28 5 -36 -4 -10 0 -18 10 -22 9 -3 16 -12 16 -20 0 -7 10 -19 23 -25 12 -7
24 -15 27 -18 23 -29 193 -42 255 -20 43 16 48 29 28 76 -9 21 -18 47 -19 58
-7 93 -16 170 -19 175 -3 5 8 157 18 235 1 11 15 33 30 48 30 30 34 70 6 75
-8 1 -23 -6 -32 -16z m-52 -302 c3 -74 10 -136 16 -138 5 -2 4 -12 -2 -24 -8
-15 -8 -27 0 -46 7 -14 8 -28 4 -31 -4 -3 -10 -17 -12 -31 -5 -35 -18 -41 -86
-36 -33 3 -69 5 -81 5 -11 1 -38 17 -59 36 -38 36 -38 36 -39 213 0 122 4 184
12 199 18 33 64 53 124 54 29 1 64 4 78 8 23 7 26 4 32 -33 4 -23 9 -102 13
-176z"/>
<path d="M214 495 c-4 -25 -2 -39 10 -50 15 -15 17 -15 22 2 3 10 10 26 15 36
8 14 6 22 -8 33 -27 20 -31 17 -39 -21z"/>
<path d="M209 283 c-7 -47 1 -74 19 -71 19 4 27 37 18 74 -9 33 -33 30 -37 -3z"/>
</g>
</svg>
