<svg version="1.0" xmlns="http://www.w3.org/2000/svg"
 width="113.000000pt" height="101.000000pt" viewBox="0 0 113.000000 101.000000"
 preserveAspectRatio="xMidYMid meet">
<metadata>
Created by potrace 1.15, written by Peter Selinger 2001-2017
</metadata>
<g transform="translate(0.000000,101.000000) scale(0.100000,-0.100000)"
fill="#000000" stroke="none">
<path d="M610 876 c0 -19 7 -62 16 -96 14 -55 14 -67 1 -108 -25 -79 -30 -113
-32 -227 -2 -142 8 -166 54 -126 12 10 45 22 76 26 30 3 68 13 85 21 16 9 34
13 39 10 5 -4 12 -2 16 4 3 5 15 10 26 10 17 0 19 -7 19 -80 0 -70 12 -191 26
-258 6 -29 18 -28 33 5 13 29 5 179 -10 199 -5 6 -11 45 -14 85 -4 69 -2 77
24 116 29 43 36 86 41 253 0 19 4 37 8 40 17 12 35 61 26 69 -12 13 -180 16
-281 6 -87 -8 -89 -8 -96 40 -4 31 -16 45 -38 45 -15 0 -19 -7 -19 -34z m335
-143 c20 -31 25 -49 25 -104 0 -38 -7 -83 -16 -104 -15 -36 -15 -36 -32 -17
-18 20 -93 62 -112 62 -6 0 -23 11 -38 25 -19 18 -28 21 -34 12 -8 -13 -12 2
-9 35 1 9 -3 19 -9 23 -15 9 -12 61 4 75 17 13 90 27 153 29 38 1 45 -3 68
-36z m-228 -143 c18 -20 62 -52 98 -70 99 -50 108 -72 34 -90 -19 -4 -60 -15
-92 -24 -53 -14 -61 -14 -93 1 -39 19 -38 14 -23 137 14 117 17 127 32 102 7
-11 26 -36 44 -56z"/>
<path d="M218 825 c-3 -4 -26 -11 -50 -16 -74 -17 -76 -21 -77 -189 -3 -276
42 -447 133 -507 40 -26 157 -46 192 -32 14 5 47 9 73 9 72 0 82 19 30 61 -22
19 -52 53 -66 77 -25 43 -25 50 7 82 16 16 30 54 30 80 0 42 -28 96 -58 109
-22 11 -24 16 -17 49 4 20 9 51 11 67 19 131 43 175 95 175 23 0 30 4 27 17
-3 15 -22 17 -163 21 -88 2 -163 1 -167 -3z m109 -70 c17 -9 39 -28 49 -42 15
-23 15 -33 6 -70 -7 -24 -12 -61 -12 -82 0 -70 -1 -71 -109 -71 -134 0 -136 2
-128 121 3 52 9 109 13 127 7 32 7 32 79 32 44 0 84 -6 102 -15z m31 -318 c6
-5 12 -27 12 -48 0 -35 12 -87 39 -179 18 -59 10 -66 -67 -62 -46 3 -77 10
-98 25 -33 22 -74 93 -74 128 0 11 -5 29 -10 39 -16 30 15 83 58 102 38 16
117 14 140 -5z"/>
</g>
</svg>
