<svg version="1.0" xmlns="http://www.w3.org/2000/svg"
 width="107.000000pt" height="169.000000pt" viewBox="0 0 107.000000 169.000000"
 preserveAspectRatio="xMidYMid meet">
<metadata>
Created by potrace 1.15, written by Peter Selinger 2001-2017
</metadata>
<g transform="translate(0.000000,169.000000) scale(0.100000,-0.100000)"
fill="#000000" stroke="none">
<path d="M247 1482 c-4 -37 -4 -103 -1 -147 7 -80 7 -80 -61 -104 -38 -12 -73
-28 -79 -34 -26 -28 -36 -70 -46 -198 -26 -314 -8 -500 63 -664 40 -91 89
-158 142 -195 86 -59 90 -23 7 60 -60 60 -107 139 -131 220 -7 25 -17 54 -21
65 -17 40 -24 113 -24 250 -1 118 1 140 14 141 8 0 22 3 30 6 8 4 31 9 50 12
19 3 51 9 71 12 36 6 36 6 43 -37 3 -24 13 -109 21 -189 8 -80 21 -181 30
-225 30 -157 35 -181 46 -250 18 -115 41 -198 51 -183 10 16 1 169 -12 204 -6
14 -10 43 -10 65 0 21 -4 58 -9 81 -26 118 -32 149 -37 218 -3 41 -10 104 -16
140 -5 36 -12 99 -15 140 -5 74 -5 75 23 88 15 6 32 12 36 12 16 0 77 62 92
95 21 43 11 120 -19 157 -13 15 -26 43 -29 64 -8 40 1 53 72 102 35 26 41 52
16 73 -15 12 -18 11 -28 -6 -31 -55 -170 -165 -208 -165 -16 0 -18 10 -19 83
-1 45 -1 98 0 117 1 25 -3 38 -17 47 -18 11 -20 7 -25 -55z m191 -279 c18 -38
32 -79 32 -92 0 -48 -69 -109 -125 -111 -13 -1 -26 64 -32 163 -5 77 -5 77 26
83 17 4 31 10 31 15 0 5 8 9 18 9 12 0 28 -22 50 -67z m-158 -146 c14 -93 11
-96 -80 -116 -95 -21 -95 -21 -94 88 2 121 10 134 87 152 71 17 64 27 87 -124z"/>
<path d="M630 1428 c-1 -119 -18 -318 -41 -463 -6 -38 -14 -95 -18 -125 -3
-30 -10 -61 -14 -67 -5 -7 -8 -79 -8 -159 1 -178 12 -207 94 -245 43 -20 66
-24 142 -23 93 1 124 11 188 58 30 22 63 74 53 83 -3 3 -19 -6 -36 -21 -18
-14 -56 -37 -86 -51 -75 -34 -190 -35 -248 -2 -39 22 -58 47 -36 47 16 0 110
62 154 101 48 43 109 132 127 184 7 22 17 44 21 49 4 6 8 18 8 28 0 9 9 22 20
28 11 6 20 17 20 25 0 12 -27 14 -167 12 -168 -2 -168 -2 -171 22 -4 27 30 60
62 61 17 0 75 30 103 55 7 5 30 24 51 40 42 32 72 83 92 155 7 25 16 58 21 74
5 16 9 46 9 66 0 41 24 70 57 70 11 0 25 6 31 13 9 11 -3 13 -66 9 -42 -2 -93
-7 -112 -11 -19 -4 -71 -7 -115 -6 -88 0 -80 -7 -100 88 -3 15 -12 27 -20 27
-12 0 -15 -21 -15 -122z m297 -60 c-12 -103 -33 -181 -57 -213 -31 -40 -80
-83 -110 -96 -16 -8 -30 -17 -30 -21 0 -5 -9 -8 -19 -8 -11 0 -23 -4 -26 -10
-3 -5 -13 -10 -21 -10 -13 0 -15 12 -9 78 3 42 11 96 17 120 6 24 8 62 6 85
-3 23 -2 53 1 67 6 23 13 26 101 36 161 19 153 21 147 -28z m-57 -555 c0 -21
-9 -53 -20 -71 -11 -18 -20 -39 -20 -46 0 -21 -110 -130 -163 -160 -69 -41
-81 -32 -73 52 4 37 9 104 12 150 6 78 8 84 32 93 14 6 37 7 50 4 21 -5 23
-10 19 -38 -20 -113 -20 -124 2 -130 22 -5 21 -7 42 116 11 67 11 67 65 67 54
0 54 0 54 -37z"/>
<path d="M785 1310 c-3 -11 -10 -18 -15 -15 -4 3 -6 -3 -3 -14 2 -10 -5 -37
-16 -59 -12 -23 -21 -53 -21 -67 0 -48 29 -23 67 58 28 59 35 82 27 95 -16 24
-32 25 -39 2z"/>
<path d="M620 200 c0 -5 5 -10 10 -10 6 0 10 5 10 10 0 6 -4 10 -10 10 -5 0
-10 -4 -10 -10z"/>
</g>
</svg>
