<svg version="1.0" xmlns="http://www.w3.org/2000/svg"
 width="66.000000pt" height="82.000000pt" viewBox="0 0 66.000000 82.000000"
 preserveAspectRatio="xMidYMid meet">
<metadata>
Created by potrace 1.15, written by Peter Selinger 2001-2017
</metadata>
<g transform="translate(0.000000,82.000000) scale(0.100000,-0.100000)"
fill="#000000" stroke="none">
<path d="M306 675 c-13 -19 -25 -25 -55 -25 -53 0 -121 -49 -121 -88 0 -42 24
-69 70 -76 22 -3 40 -11 40 -16 0 -6 -23 -24 -50 -41 -28 -17 -55 -41 -62 -52
-6 -12 -14 -76 -17 -143 -6 -111 -8 -124 -34 -163 -19 -29 -25 -47 -19 -53 17
-17 52 2 58 30 4 15 15 43 24 62 10 20 21 73 25 125 8 106 15 121 75 167 45
34 45 34 45 107 0 79 14 101 62 101 21 0 23 -4 23 -59 0 -76 14 -111 53 -136
37 -24 66 -89 66 -153 1 -62 71 -238 99 -249 30 -12 32 15 6 67 -20 39 -31 85
-41 169 -9 64 -19 126 -24 139 -5 12 -31 37 -59 54 -27 17 -50 34 -50 38 0 4
18 10 39 14 65 10 85 47 62 109 -12 30 -67 57 -119 57 -32 0 -42 4 -47 20 -9
27 -29 25 -49 -5z m152 -81 c31 -22 28 -51 -9 -70 -38 -19 -49 -9 -49 49 0 42
19 49 58 21z m-213 -43 c0 -13 -8 -29 -18 -35 -15 -9 -21 -7 -33 8 -12 17 -12
22 3 38 22 25 48 19 48 -11z"/>
<path d="M410 327 c0 -31 -4 -57 -8 -57 -16 0 -52 41 -52 60 0 43 -35 17 -67
-50 -17 -35 -17 -35 -23 23 -3 31 -9 58 -15 58 -27 2 -38 -196 -14 -254 13
-30 55 -57 90 -57 42 0 101 24 121 49 18 23 19 35 14 101 -7 77 -26 163 -39
176 -4 4 -7 -18 -7 -49z m-5 -136 c-9 -51 -29 -77 -64 -84 -43 -9 -58 -1 -65
35 -12 63 -7 82 27 99 28 14 35 14 70 0 37 -14 38 -16 32 -50z"/>
<path d="M283 194 c-13 -35 33 -66 66 -45 9 6 11 18 7 35 -5 21 -12 26 -37 26
-18 0 -32 -6 -36 -16z"/>
</g>
</svg>
