<svg version="1.0" xmlns="http://www.w3.org/2000/svg"
 width="125.000000pt" height="145.000000pt" viewBox="0 0 125.000000 145.000000"
 preserveAspectRatio="xMidYMid meet">
<metadata>
Created by potrace 1.15, written by Peter Selinger 2001-2017
</metadata>
<g transform="translate(0.000000,145.000000) scale(0.100000,-0.100000)"
fill="#000000" stroke="none">
<path d="M970 1344 c-12 -31 -13 -51 -2 -56 5 -1 25 -30 45 -63 39 -64 131
-166 167 -185 12 -6 28 -9 36 -6 15 6 20 56 6 56 -11 0 -113 126 -141 175 -66
112 -92 131 -111 79z"/>
<path d="M305 1265 c-14 -11 -18 -25 -17 -51 3 -38 -16 -104 -30 -104 -4 0 -8
-6 -8 -12 0 -18 -94 -115 -119 -123 -21 -6 -29 -39 -12 -49 15 -10 60 12 104
49 22 19 44 35 49 35 11 0 68 65 86 99 18 33 18 101 0 141 -14 33 -24 36 -53
15z"/>
<path d="M750 1159 c-25 -4 -71 -8 -104 -8 -92 -1 -128 -16 -150 -61 -23 -48
-17 -113 14 -144 18 -19 31 -21 118 -19 253 5 262 6 262 25 0 16 -32 37 -57
38 -32 0 -41 42 -17 86 10 19 26 34 36 34 12 0 18 8 18 24 0 36 -27 42 -120
25z m-60 -80 c0 -6 8 -8 18 -5 13 5 22 -1 30 -19 18 -39 0 -65 -46 -66 -20 -1
-50 -2 -66 -4 -46 -3 -66 5 -72 31 -8 31 11 54 45 54 14 0 33 5 41 10 20 13
50 13 50 -1z"/>
<path d="M640 834 c-8 -1 -55 -6 -103 -9 -83 -7 -88 -8 -83 -28 3 -11 -2 -36
-10 -55 -7 -19 -14 -45 -14 -59 0 -33 26 -80 52 -94 28 -15 98 -21 112 -10 6
4 26 11 44 15 61 11 102 37 117 74 43 102 -16 188 -115 166z m50 -106 c-1 -67
-15 -78 -98 -78 -39 0 -77 3 -86 6 -20 8 -22 67 -3 83 19 15 83 29 140 30 47
1 47 1 47 -41z"/>
<path d="M908 577 c-13 -10 -15 -26 -12 -77 7 -103 6 -152 -1 -195 -8 -42 -55
-117 -92 -148 -25 -20 -29 -37 -12 -54 9 -9 26 1 70 39 59 51 89 95 89 129 0
10 4 20 8 23 5 3 12 42 15 87 4 45 9 84 12 87 3 3 30 0 61 -7 44 -10 58 -10
64 -1 12 19 0 50 -19 50 -9 0 -38 14 -64 30 -26 17 -54 30 -62 30 -7 0 -17 5
-20 10 -8 13 -16 12 -37 -3z"/>
<path d="M177 473 c-4 -3 -7 -28 -7 -54 0 -26 -4 -51 -10 -54 -5 -3 -10 -14
-10 -24 0 -19 -57 -82 -104 -114 -31 -21 -33 -33 -6 -47 18 -10 53 1 70 21 8
9 68 39 79 39 5 0 15 -16 21 -36 15 -44 130 -163 182 -187 55 -26 78 -23 78
12 0 22 -9 34 -40 55 -22 14 -43 26 -47 26 -4 0 -26 20 -49 44 -50 53 -64 102
-64 224 0 73 -3 91 -16 96 -21 8 -69 8 -77 -1z"/>
<path d="M538 421 c-55 -4 -82 -11 -95 -24 -17 -17 -17 -19 -1 -28 50 -28 65
-159 18 -159 -25 0 -93 -30 -86 -37 11 -12 179 -18 251 -9 69 7 104 18 109 32
3 8 14 14 25 14 15 0 23 11 33 43 16 56 17 68 2 97 -24 48 -40 56 -159 74 -11
2 -55 0 -97 -3z m140 -71 c27 -17 32 -25 32 -59 0 -50 -17 -63 -86 -63 -65 -1
-74 7 -74 69 0 40 2 42 43 56 23 8 44 15 47 16 3 0 20 -8 38 -19z"/>
</g>
</svg>
