<svg version="1.0" xmlns="http://www.w3.org/2000/svg"
 width="49.000000pt" height="69.000000pt" viewBox="0 0 49.000000 69.000000"
 preserveAspectRatio="xMidYMid meet">
<metadata>
Created by potrace 1.15, written by Peter Selinger 2001-2017
</metadata>
<g transform="translate(0.000000,69.000000) scale(0.100000,-0.100000)"
fill="#000000" stroke="none">
<path d="M370 565 c0 -18 -7 -28 -26 -35 -39 -15 -51 -12 -78 17 -14 15 -29
24 -33 19 -4 -4 -7 -48 -6 -96 1 -81 4 -92 27 -117 21 -23 35 -28 72 -28 74 0
95 49 86 204 -3 54 -42 87 -42 36z m-3 -101 c10 -27 -16 -94 -36 -94 -25 0
-38 18 -46 62 -7 39 -8 38 63 47 7 0 15 -6 19 -15z"/>
<path d="M310 430 c0 -23 4 -30 20 -30 23 0 27 29 8 48 -19 19 -28 14 -28 -18z"/>
<path d="M62 475 c-16 -59 -16 -266 0 -319 7 -22 20 -50 30 -60 10 -11 18 -23
18 -26 0 -13 79 -40 118 -40 23 0 64 10 90 22 51 23 131 78 132 91 0 11 -44 9
-56 -3 -20 -20 -119 -50 -166 -50 -41 0 -50 4 -72 33 -31 40 -51 126 -42 181
6 33 10 143 7 178 -1 9 -31 38 -40 38 -4 0 -12 -20 -19 -45z"/>
<path d="M211 256 c-18 -22 12 -71 37 -61 9 4 26 10 37 13 24 6 45 21 45 32 0
4 -15 10 -32 13 -18 3 -42 8 -54 12 -13 4 -25 1 -33 -9z"/>
</g>
</svg>
