<svg version="1.0" xmlns="http://www.w3.org/2000/svg"
 width="67.000000pt" height="119.000000pt" viewBox="0 0 67.000000 119.000000"
 preserveAspectRatio="xMidYMid meet">
<metadata>
Created by potrace 1.15, written by Peter Selinger 2001-2017
</metadata>
<g transform="translate(0.000000,119.000000) scale(0.100000,-0.100000)"
fill="#000000" stroke="none">
<path d="M150 1021 c-16 -30 -17 -311 -1 -340 39 -71 124 -99 240 -80 80 12
95 21 115 60 19 38 33 315 18 338 -17 24 -42 5 -42 -33 0 -35 0 -35 -87 -38
-49 -2 -113 -1 -143 2 -53 5 -55 6 -56 35 -1 54 -4 63 -19 69 -8 3 -19 -3 -25
-13z m316 -142 c19 -15 20 -175 1 -193 -27 -27 -58 -36 -126 -36 -88 0 -116
13 -141 65 -16 34 -19 53 -14 103 7 61 7 61 43 64 103 10 224 8 237 -3z"/>
<path d="M220 791 c0 -26 30 -32 128 -24 55 4 82 10 82 18 0 17 -46 25 -136
25 -66 0 -74 -2 -74 -19z"/>
<path d="M58 520 c-55 -7 -65 -14 -48 -35 10 -11 25 -13 66 -9 42 5 54 4 54
-7 9 -338 20 -362 170 -400 85 -21 350 -46 350 -33 -1 30 -47 51 -130 59 -36
4 -94 11 -130 16 -36 6 -84 12 -107 15 -26 4 -43 11 -43 19 0 8 -9 17 -20 20
-11 3 -20 12 -20 20 0 7 -3 20 -6 29 -4 11 14 24 68 51 40 20 77 40 82 45 5 5
11 46 15 92 6 79 7 83 30 83 23 0 24 -3 28 -94 2 -55 9 -98 16 -106 24 -24 56
-35 101 -35 36 0 46 4 51 20 10 31 -2 40 -54 40 -61 0 -73 14 -73 82 0 107 -9
97 89 100 74 3 88 6 91 20 3 17 -14 18 -265 15 -147 -1 -289 -4 -315 -7z m252
-72 c0 -24 -3 -59 -6 -80 -6 -32 -12 -39 -57 -57 -27 -12 -54 -21 -58 -21 -9
0 -13 183 -4 192 3 3 32 6 65 7 60 2 60 2 60 -41z"/>
</g>
</svg>
