<svg version="1.0" xmlns="http://www.w3.org/2000/svg"
 width="63.000000pt" height="117.000000pt" viewBox="0 0 63.000000 117.000000"
 preserveAspectRatio="xMidYMid meet">
<metadata>
Created by potrace 1.15, written by Peter Selinger 2001-2017
</metadata>
<g transform="translate(0.000000,117.000000) scale(0.100000,-0.100000)"
fill="#000000" stroke="none">
<path d="M273 1020 c-3 -17 -9 -33 -14 -35 -4 -3 -43 -8 -86 -12 -91 -7 -110
-15 -125 -51 -7 -17 -11 -154 -13 -372 -1 -295 -4 -356 -20 -418 -18 -75 -16
-94 11 -77 39 25 45 78 48 435 2 190 7 361 10 381 12 56 31 62 211 65 193 4
230 -3 244 -49 5 -17 12 -171 15 -342 4 -171 9 -356 12 -412 6 -91 9 -103 24
-103 10 0 21 8 24 18 3 10 0 132 -7 272 -8 152 -11 316 -6 405 6 131 4 155
-11 191 -10 23 -22 44 -27 47 -6 4 -54 7 -109 8 -54 1 -105 6 -111 12 -7 5
-13 22 -13 38 0 24 -4 29 -25 29 -20 0 -27 -6 -32 -30z"/>
<path d="M338 868 c-49 -51 -51 -79 -4 -43 28 21 36 19 36 -9 0 -26 -23 -51
-39 -42 -13 8 -42 -4 -35 -15 3 -5 21 -9 40 -9 33 0 34 -1 34 -40 0 -33 -3
-40 -20 -40 -13 0 -20 7 -20 20 0 11 -7 20 -15 20 -17 0 -19 -18 -5 -54 9 -25
13 -26 83 -26 82 0 97 9 97 57 0 39 -16 43 -32 8 -6 -14 -19 -25 -30 -25 -14
0 -18 8 -18 40 0 37 2 40 28 40 38 0 72 11 72 22 0 5 -17 8 -38 7 -48 -3 -62
5 -62 38 0 21 4 25 23 20 12 -2 30 -8 40 -12 11 -5 17 -3 17 6 -1 17 -82 79
-101 78 -8 -1 -31 -19 -51 -41z"/>
<path d="M138 862 c-31 -4 -39 -32 -9 -32 10 0 24 -6 30 -14 17 -20 3 -46 -25
-46 -33 0 -30 -16 6 -29 33 -11 35 -14 20 -42 -8 -14 -17 -18 -37 -13 -18 5
-24 3 -21 -6 4 -14 106 -25 144 -16 34 9 30 26 -6 26 -25 0 -30 4 -30 25 0 18
7 28 26 35 28 11 24 30 -7 30 -29 0 -26 48 4 52 12 2 22 9 22 17 0 15 -52 20
-117 13z"/>
<path d="M213 579 c-18 -5 -37 -18 -43 -29 -6 -11 -10 -69 -9 -132 2 -113 2
-113 36 -147 38 -38 39 -45 17 -193 -4 -30 -3 -48 3 -48 21 0 35 31 49 112 8
45 18 86 23 91 5 5 19 7 32 5 22 -3 25 -9 30 -68 7 -71 20 -120 32 -120 4 0
12 0 17 0 13 0 13 61 -2 131 -11 56 -11 56 21 85 32 29 32 29 32 147 -1 104
-3 122 -21 148 -21 28 -24 29 -103 28 -45 0 -97 -5 -114 -10z m177 -23 c6 -8
10 -25 8 -38 -3 -22 -7 -23 -96 -26 -93 -3 -93 -3 -90 25 3 27 6 28 66 34 34
3 65 9 69 12 11 11 30 8 43 -7z m4 -92 c9 -3 16 -16 16 -28 0 -32 -38 -46
-125 -46 -75 0 -75 0 -75 30 0 24 4 30 23 30 47 1 131 11 136 15 6 6 6 6 25
-1z m16 -108 c0 -67 -113 -103 -174 -55 -44 35 -31 53 44 60 119 10 130 10
130 -5z"/>
</g>
</svg>
