<svg version="1.0" xmlns="http://www.w3.org/2000/svg"
 width="72.000000pt" height="84.000000pt" viewBox="0 0 72.000000 84.000000"
 preserveAspectRatio="xMidYMid meet">
<metadata>
Created by potrace 1.15, written by Peter Selinger 2001-2017
</metadata>
<g transform="translate(0.000000,84.000000) scale(0.100000,-0.100000)"
fill="#000000" stroke="none">
<path d="M341 646 c-6 -7 -39 -27 -74 -44 -72 -36 -114 -73 -123 -106 -3 -13
-1 -58 5 -100 13 -92 14 -197 2 -248 -5 -21 -23 -56 -41 -78 -34 -43 -35 -59
-2 -41 57 30 82 128 82 321 0 145 0 145 28 163 44 28 95 65 121 86 30 26 43
26 65 2 10 -11 51 -36 92 -56 57 -27 83 -35 105 -30 16 4 29 12 29 19 0 13
-61 46 -84 46 -8 0 -50 18 -94 40 -88 44 -95 46 -111 26z"/>
<path d="M463 483 c-40 -5 -43 -20 -6 -25 42 -5 43 -36 1 -40 -43 -4 -43 -22
0 -26 40 -4 38 -25 -4 -32 -17 -3 -29 -11 -29 -20 0 -12 15 -15 74 -15 78 0
108 17 52 30 -44 9 -40 35 5 35 45 0 42 24 -4 28 -24 2 -32 8 -32 23 0 14 7
19 30 19 35 0 40 15 8 24 -24 6 -39 6 -95 -1z"/>
<path d="M246 428 c-20 -29 -34 -54 -32 -56 3 -2 18 6 35 19 17 12 33 20 36
17 3 -3 0 -37 -6 -77 -13 -75 -7 -99 17 -67 9 13 14 47 14 100 1 81 1 81 21
54 22 -29 49 -37 49 -15 0 19 -63 77 -83 77 -9 0 -32 -23 -51 -52z"/>
<path d="M547 263 c-15 -15 -21 -15 -52 -4 -31 11 -39 10 -60 -3 -29 -19 -31
-42 -10 -114 26 -87 106 -129 153 -80 29 32 42 71 42 131 -1 77 -34 109 -73
70z m33 -37 c0 -15 -37 -32 -47 -22 -9 8 17 36 33 36 8 0 14 -6 14 -14z m-96
-11 c4 -10 -1 -15 -14 -15 -11 0 -20 7 -20 15 0 8 6 15 14 15 8 0 16 -7 20
-15z m74 -35 c21 0 13 -27 -10 -34 -44 -11 -77 -6 -88 13 -9 17 -6 20 18 24
15 2 36 3 47 1 11 -2 26 -4 33 -4z m2 -70 c0 -6 -11 -15 -25 -22 -19 -8 -28
-8 -40 2 -25 21 -17 30 25 30 22 0 40 -5 40 -10z"/>
<path d="M325 229 c-5 -7 -24 -10 -56 -6 -49 6 -49 6 -49 -53 0 -48 4 -63 22
-80 25 -23 28 -23 61 -11 45 17 75 123 43 150 -11 9 -16 9 -21 0z m-5 -53 c0
-44 -51 -75 -64 -40 -16 43 -4 62 42 63 17 1 22 -5 22 -23z"/>
</g>
</svg>
