<svg version="1.0" xmlns="http://www.w3.org/2000/svg"
 width="105.000000pt" height="111.000000pt" viewBox="0 0 105.000000 111.000000"
 preserveAspectRatio="xMidYMid meet">
<metadata>
Created by potrace 1.15, written by Peter Selinger 2001-2017
</metadata>
<g transform="translate(0.000000,111.000000) scale(0.100000,-0.100000)"
fill="#000000" stroke="none">
<path d="M446 1034 c-4 -10 -13 -13 -27 -9 -13 4 -27 1 -39 -10 -10 -9 -24
-14 -29 -10 -6 3 -17 3 -23 -2 -7 -4 -16 -8 -20 -8 -3 0 -23 -13 -43 -30 -21
-16 -50 -41 -66 -53 -16 -13 -29 -32 -29 -42 0 -10 -4 -21 -9 -24 -4 -3 -13
-40 -20 -83 -6 -43 -16 -103 -21 -134 -6 -30 -10 -80 -10 -109 0 -50 -29 -171
-51 -212 -15 -28 -11 -58 7 -58 19 0 43 28 44 50 0 9 9 33 19 54 12 23 20 58
20 92 0 29 3 59 8 66 8 13 18 92 29 232 7 88 27 146 49 146 8 0 15 6 15 14 0
8 9 18 20 21 11 3 20 10 20 15 0 10 39 23 63 20 9 -1 17 3 17 9 0 16 33 22 67
12 29 -8 31 -7 37 21 9 43 -14 69 -28 32z"/>
<path d="M506 1008 c-6 -26 14 -46 54 -54 14 -2 39 -9 55 -15 17 -6 48 -16 70
-22 22 -7 42 -14 45 -17 3 -4 30 -14 61 -24 66 -20 93 -46 107 -101 6 -22 12
-139 14 -260 2 -208 11 -302 37 -387 12 -38 35 -68 52 -68 15 0 14 48 -1 90
-6 14 -12 45 -15 70 -9 75 -17 454 -13 572 1 28 -7 38 -62 79 -40 29 -87 52
-145 69 -22 7 -59 21 -83 31 -23 11 -49 19 -57 19 -8 0 -30 9 -50 20 -46 26
-61 25 -69 -2z"/>
<path d="M325 803 c-34 -8 -39 -22 -11 -29 14 -3 26 -12 26 -20 0 -7 7 -17 16
-22 26 -14 -2 -62 -37 -62 -15 0 -29 -7 -33 -15 -3 -8 -12 -12 -21 -9 -20 8
-19 -10 1 -27 13 -10 17 -10 26 2 7 11 11 11 15 2 2 -7 13 -13 24 -13 16 0 19
-7 19 -49 0 -30 -5 -51 -12 -54 -15 -5 57 -27 88 -27 11 0 24 3 27 6 10 10
-12 44 -28 44 -11 0 -15 11 -15 37 0 20 3 34 6 30 9 -9 34 19 34 37 0 9 -9 21
-20 28 -22 14 -29 81 -10 93 6 4 8 11 4 16 -3 5 -9 7 -14 4 -5 -3 -18 3 -30
15 -11 11 -23 19 -27 19 -5 -1 -17 -3 -28 -6z"/>
<path d="M600 704 c0 -3 9 -17 20 -31 35 -45 19 -93 -30 -91 -62 4 -64 -11 -6
-36 40 -18 44 -23 50 -64 3 -25 6 -64 6 -87 0 -56 18 -72 60 -55 28 12 29 14
15 30 -10 11 -15 37 -15 76 0 59 0 59 40 76 47 19 46 41 -3 55 -31 9 -32 10
-30 65 3 55 3 55 -35 62 -47 7 -72 8 -72 0z"/>
<path d="M230 359 c0 -5 -5 -7 -12 -3 -8 5 -9 2 -4 -12 5 -10 10 -26 13 -35 3
-9 14 -21 25 -26 19 -8 19 -9 -4 -20 -12 -6 -35 -14 -50 -17 -15 -3 -33 -12
-40 -19 -7 -8 -31 -16 -52 -20 -51 -8 -66 -23 -41 -41 19 -14 74 -7 98 12 7 6
26 12 42 15 17 2 38 7 48 12 12 5 25 1 41 -14 12 -11 28 -21 34 -21 6 0 18
-15 26 -34 12 -29 84 -86 109 -86 18 0 3 36 -33 84 -49 65 -50 82 -8 91 67 15
90 49 42 61 -14 4 -50 4 -81 0 -55 -6 -55 -6 -97 39 -43 46 -56 54 -56 34z"/>
<path d="M721 225 c-40 -23 -45 -24 -78 -10 -20 8 -39 15 -44 15 -18 0 -9 -28
13 -42 25 -17 27 -16 -71 -70 -17 -9 -31 -22 -31 -27 0 -15 53 -27 58 -13 2 7
11 12 21 12 9 0 22 5 29 12 21 21 84 10 124 -22 58 -47 73 -40 37 19 -23 39
-19 79 11 101 11 8 20 22 20 32 0 25 -35 22 -89 -7z"/>
</g>
</svg>
