<svg version="1.0" xmlns="http://www.w3.org/2000/svg"
 width="65.000000pt" height="82.000000pt" viewBox="0 0 65.000000 82.000000"
 preserveAspectRatio="xMidYMid meet">
<metadata>
Created by potrace 1.15, written by Peter Selinger 2001-2017
</metadata>
<g transform="translate(0.000000,82.000000) scale(0.100000,-0.100000)"
fill="#000000" stroke="none">
<path d="M350 541 c-21 -4 -36 -12 -38 -23 -3 -14 6 -17 45 -20 44 -3 48 -5
51 -30 3 -27 2 -28 -47 -28 -37 0 -51 -4 -51 -14 0 -17 22 -26 61 -26 48 0 36
-28 -16 -36 -51 -7 -56 -16 -20 -32 58 -27 110 -4 121 54 5 25 11 34 21 30 8
-3 26 -6 40 -6 20 0 24 -4 21 -22 -2 -19 -10 -24 -41 -26 -44 -4 -45 -22 -1
-34 68 -19 104 23 104 122 0 77 -11 90 -74 90 -29 0 -56 -3 -59 -7 -11 -11 14
-33 38 -33 22 0 35 -17 35 -43 0 -7 -16 -12 -40 -12 -39 0 -40 1 -40 37 0 61
-24 74 -110 59z"/>
<path d="M86 524 c-3 -9 -6 -18 -6 -20 0 -2 31 -4 68 -4 40 0 73 -5 80 -12 15
-15 16 -203 2 -279 -13 -70 -58 -116 -132 -139 -36 -11 -54 -22 -56 -34 -4
-17 1 -18 37 -13 72 9 171 71 171 107 0 9 6 22 13 28 16 17 23 331 7 361 -9
19 -20 21 -94 21 -67 0 -85 -3 -90 -16z"/>
<path d="M97 473 c-3 -5 -7 -89 -8 -188 -2 -149 0 -180 12 -180 20 0 30 87 27
239 -2 87 -7 131 -15 133 -6 2 -13 0 -16 -4z"/>
<path d="M170 428 c0 -29 -3 -104 -7 -166 -5 -97 -4 -112 9 -112 24 0 26 15
27 179 1 129 -1 151 -14 151 -11 0 -15 -12 -15 -52z"/>
<path d="M317 264 c-4 -4 -7 -13 -7 -21 0 -9 16 -13 56 -13 47 0 55 3 52 18
-2 13 -15 18 -48 20 -25 2 -49 0 -53 -4z"/>
<path d="M445 260 c-11 -17 4 -28 46 -35 49 -8 52 -38 4 -43 -73 -6 -75 -8
-75 -63 0 -48 1 -51 36 -65 20 -8 57 -14 82 -12 40 3 47 6 50 25 3 20 -1 22
-60 25 -61 3 -63 4 -66 31 -3 27 -3 27 51 21 47 -6 56 -4 65 12 13 26 13 86 0
101 -13 15 -124 18 -133 3z"/>
<path d="M301 181 c-24 -16 -1 -31 49 -31 41 0 71 13 59 25 -10 9 -96 14 -108
6z"/>
<path d="M280 75 c0 -31 122 -34 128 -2 3 15 -5 17 -62 17 -51 0 -66 -3 -66
-15z"/>
</g>
</svg>
