<svg version="1.0" xmlns="http://www.w3.org/2000/svg"
 width="71.000000pt" height="85.000000pt" viewBox="0 0 71.000000 85.000000"
 preserveAspectRatio="xMidYMid meet">
<metadata>
Created by potrace 1.15, written by Peter Selinger 2001-2017
</metadata>
<g transform="translate(0.000000,85.000000) scale(0.100000,-0.100000)"
fill="#000000" stroke="none">
<path d="M234 602 c-122 -101 -118 -91 -122 -329 -3 -202 -3 -202 -35 -205
-20 -2 -32 -8 -32 -18 0 -13 35 -15 263 -14 193 1 266 5 277 14 20 17 2 40
-31 40 -24 0 -24 0 -24 208 0 208 0 208 -37 243 -66 62 -159 130 -175 129 -2
0 -39 -31 -84 -68z m152 -30 c60 -44 69 -59 47 -72 -13 -8 -192 -98 -255 -128
-5 -2 -8 18 -7 45 1 46 3 50 74 116 41 37 80 67 88 67 8 0 32 -13 53 -28z m94
-146 c0 -39 -5 -44 -101 -97 -121 -65 -199 -100 -209 -94 -15 9 -12 62 4 77
12 13 65 42 228 125 63 32 78 30 78 -11z m-10 -227 c0 -109 0 -109 -109 -109
-59 0 -129 -3 -155 -6 -46 -7 -46 -7 -46 39 0 46 0 46 93 92 50 25 116 59 146
75 29 16 57 27 62 24 5 -3 9 -54 9 -115z"/>
</g>
</svg>
