<svg version="1.0" xmlns="http://www.w3.org/2000/svg"
 width="65.000000pt" height="101.000000pt" viewBox="0 0 65.000000 101.000000"
 preserveAspectRatio="xMidYMid meet">
<metadata>
Created by potrace 1.15, written by Peter Selinger 2001-2017
</metadata>
<g transform="translate(0.000000,101.000000) scale(0.100000,-0.100000)"
fill="#000000" stroke="none">
<path d="M158 855 c-18 -6 -42 -16 -53 -22 -25 -15 -11 -20 65 -26 70 -6 111
-13 183 -34 57 -16 59 -18 87 -77 16 -34 31 -75 35 -92 6 -31 5 -32 -37 -38
-24 -4 -104 -10 -178 -15 -168 -10 -186 -16 -157 -54 9 -13 27 -17 72 -16 164
1 253 0 281 -6 32 -7 32 -7 44 -119 25 -228 39 -285 73 -286 19 0 29 61 24
155 -7 128 -24 279 -37 327 -6 21 -11 59 -12 85 0 27 -4 53 -8 58 -5 6 -10 25
-12 44 -4 42 -65 89 -120 93 -21 1 -38 5 -38 9 0 4 -12 8 -27 8 -26 0 -54 3
-125 14 -14 2 -41 -1 -60 -8z"/>
<path d="M356 363 c-3 -4 -6 -16 -6 -28 0 -29 -16 -42 -62 -50 -33 -6 -40 -4
-70 29 -18 20 -37 36 -41 36 -5 0 -7 -44 -6 -97 2 -75 7 -104 21 -125 10 -14
18 -30 18 -35 0 -17 34 -40 66 -46 26 -5 37 0 67 28 22 21 38 47 41 67 3 18 9
49 12 68 4 19 8 56 9 82 3 40 -1 49 -20 62 -12 8 -25 12 -29 9z m-44 -178 c-6
-79 -58 -86 -64 -9 -2 25 -1 48 2 50 2 3 18 4 35 2 29 -3 30 -5 27 -43z"/>
</g>
</svg>
