<svg version="1.0" xmlns="http://www.w3.org/2000/svg"
 width="66.000000pt" height="91.000000pt" viewBox="0 0 66.000000 91.000000"
 preserveAspectRatio="xMidYMid meet">
<metadata>
Created by potrace 1.15, written by Peter Selinger 2001-2017
</metadata>
<g transform="translate(0.000000,91.000000) scale(0.100000,-0.100000)"
fill="#000000" stroke="none">
<path d="M120 613 c-22 -9 -30 -26 -18 -40 8 -10 50 -13 157 -13 86 0 166 -6
196 -13 49 -13 50 -14 53 -56 3 -43 3 -43 -70 -37 -40 3 -136 8 -214 12 -117
5 -142 3 -147 -9 -15 -38 4 -42 222 -42 210 0 210 0 217 -73 3 -40 3 -123 -1
-183 -6 -95 -5 -110 9 -115 38 -15 41 5 40 266 -1 176 -5 255 -13 263 -12 12
-114 23 -288 31 -51 3 -100 7 -110 9 -10 3 -25 3 -33 0z"/>
<path d="M119 334 c-23 -7 -29 -34 -29 -127 0 -78 10 -112 39 -133 21 -16 138
-26 201 -18 75 10 90 38 90 165 0 60 -4 99 -12 107 -18 18 -97 15 -105 -3 -7
-20 -1 -26 39 -34 26 -5 34 -12 36 -34 3 -27 3 -27 -123 -27 -126 0 -126 0
-123 33 3 31 5 32 53 37 36 4 50 9 50 20 0 11 -13 15 -50 17 -27 0 -57 -1 -66
-3z m251 -184 c0 -50 -18 -56 -131 -41 -45 6 -86 11 -91 11 -4 0 -8 16 -8 35
0 35 0 35 115 35 115 0 115 0 115 -40z"/>
</g>
</svg>
