<svg version="1.0" xmlns="http://www.w3.org/2000/svg"
 width="59.000000pt" height="127.000000pt" viewBox="0 0 59.000000 127.000000"
 preserveAspectRatio="xMidYMid meet">
<metadata>
Created by potrace 1.15, written by Peter Selinger 2001-2017
</metadata>
<g transform="translate(0.000000,127.000000) scale(0.100000,-0.100000)"
fill="#000000" stroke="none">
<path d="M283 1197 c-4 -6 -7 -51 -8 -99 0 -47 -3 -89 -7 -93 -21 -21 -81 54
-78 98 3 38 1 43 -25 55 -35 16 -42 -5 -26 -81 16 -76 35 -103 89 -119 51 -15
54 -33 8 -42 -60 -11 -104 -67 -136 -174 -10 -31 -10 -46 -2 -54 13 -13 41 -4
46 14 30 105 54 141 100 150 29 6 31 -1 35 -92 2 -36 4 -76 5 -90 1 -18 7 -25
21 -25 26 0 37 50 30 138 -6 67 -6 67 24 67 17 0 31 -4 31 -10 0 -5 6 -10 14
-10 7 0 25 -12 40 -26 20 -21 26 -37 26 -69 0 -31 5 -45 17 -49 25 -10 46 22
39 58 -3 16 -6 37 -6 46 0 44 -75 101 -155 119 -16 4 -30 11 -30 16 0 4 14 12
30 17 84 26 105 56 105 148 0 57 -1 60 -25 60 -17 0 -25 -6 -26 -17 -1 -51
-13 -109 -23 -115 -6 -4 -23 -8 -38 -8 -28 0 -28 0 -28 88 0 76 -3 89 -20 99
-15 10 -21 10 -27 0z"/>
<path d="M115 628 c-3 -13 -4 -54 -2 -91 2 -38 -1 -71 -6 -74 -17 -10 -37 29
-37 73 0 55 -8 74 -30 74 -17 0 -18 -7 -13 -77 6 -81 10 -89 56 -112 35 -19
35 -40 -2 -47 -28 -6 -35 -15 -56 -79 -3 -10 -8 -72 -11 -137 -5 -103 -4 -119
11 -124 9 -4 18 -4 21 -1 3 3 7 42 9 88 3 46 7 104 10 129 7 47 29 89 42 76 4
-3 6 -71 6 -150 -1 -128 0 -146 17 -161 17 -15 18 -15 25 14 3 17 7 94 7 171
0 125 2 141 16 138 31 -6 46 -58 49 -168 1 -58 3 -108 3 -112 0 -5 9 -8 20 -8
17 0 19 8 22 73 2 39 0 79 -4 87 -4 8 -10 41 -13 72 -6 58 -40 108 -71 108
-26 0 -14 19 19 31 42 15 67 58 67 117 0 36 -5 50 -19 59 -23 15 -34 -5 -25
-43 10 -38 -14 -84 -43 -84 -24 0 -25 1 -22 73 1 39 -1 80 -6 90 -10 24 -34
21 -40 -5z"/>
<path d="M417 643 c-4 -3 -7 -44 -7 -90 0 -47 -4 -83 -10 -83 -16 0 -43 50
-47 88 -5 43 -5 44 -27 36 -11 -4 -16 -18 -16 -45 0 -60 24 -106 64 -126 45
-21 46 -46 3 -66 -27 -13 -36 -26 -50 -70 -21 -68 -23 -223 -2 -251 26 -34 35
-8 35 107 0 109 11 156 36 164 8 3 13 -39 16 -141 2 -100 7 -149 16 -158 25
-25 32 14 30 167 -2 128 0 150 13 153 9 2 21 -3 27 -11 14 -16 32 -131 32
-204 0 -61 7 -83 26 -83 11 0 14 23 14 113 0 61 -5 128 -10 148 -11 39 -44 75
-75 81 -37 6 -28 34 16 48 55 18 71 45 67 112 -3 47 -6 53 -27 56 -19 3 -23 0
-17 -14 7 -17 -9 -80 -26 -101 -27 -34 -52 22 -38 84 13 56 -16 114 -43 86z"/>
</g>
</svg>
