<svg version="1.0" xmlns="http://www.w3.org/2000/svg"
 width="53.000000pt" height="73.000000pt" viewBox="0 0 53.000000 73.000000"
 preserveAspectRatio="xMidYMid meet">
<metadata>
Created by potrace 1.15, written by Peter Selinger 2001-2017
</metadata>
<g transform="translate(0.000000,73.000000) scale(0.100000,-0.100000)"
fill="#000000" stroke="none">
<path d="M79 576 c10 -12 12 -37 7 -98 -7 -91 3 -124 42 -144 61 -30 65 -41
59 -146 -5 -79 -4 -98 8 -98 8 0 16 16 19 40 3 22 9 58 12 80 7 48 26 56 26
10 0 -3 -2 -29 -6 -57 -4 -31 -3 -53 3 -53 11 0 41 90 41 127 1 37 33 82 46
62 10 -16 10 -18 13 -119 2 -113 21 -67 21 52 0 87 2 99 20 110 16 10 20 24
21 68 0 30 4 76 8 101 12 72 -1 82 -85 69 -63 -10 -143 -8 -233 6 -31 5 -33 4
-22 -10z m300 -40 c9 -6 13 -126 4 -126 -5 0 -19 23 -32 50 -13 28 -29 50 -37
50 -7 0 -18 -19 -24 -41 -11 -42 -11 -42 -36 -6 -13 20 -24 43 -24 51 0 29
-30 17 -36 -14 -4 -16 -10 -30 -15 -30 -5 0 -9 -7 -9 -15 0 -9 -9 -25 -20 -37
-20 -22 -20 -22 -20 24 0 25 3 59 6 76 6 30 6 30 121 26 63 -2 118 -6 122 -8z
m-126 -180 c3 -22 4 -42 3 -44 -5 -4 -59 21 -73 35 -15 13 -17 43 -5 43 5 0
14 12 21 27 13 27 13 27 31 3 10 -13 20 -42 23 -64z m100 17 c2 -21 -5 -30
-26 -41 -16 -8 -31 -12 -33 -9 -3 3 2 28 11 56 15 44 19 49 32 36 8 -8 15 -27
16 -42z"/>
</g>
</svg>
