<svg version="1.0" xmlns="http://www.w3.org/2000/svg"
 width="69.000000pt" height="109.000000pt" viewBox="0 0 69.000000 109.000000"
 preserveAspectRatio="xMidYMid meet">
<metadata>
Created by potrace 1.15, written by Peter Selinger 2001-2017
</metadata>
<g transform="translate(0.000000,109.000000) scale(0.100000,-0.100000)"
fill="#000000" stroke="none">
<path d="M165 960 c-11 -5 -40 -9 -64 -9 -40 -1 -43 -3 -37 -23 4 -13 11 -80
14 -149 4 -70 13 -133 19 -140 32 -40 72 -235 73 -351 0 -31 5 -60 10 -63 6
-3 10 -24 10 -46 0 -21 4 -39 8 -39 16 0 34 76 31 124 -5 56 7 59 41 8 14 -20
35 -48 48 -62 12 -14 25 -33 28 -43 4 -12 13 -17 27 -15 17 2 24 14 33 48 11
49 22 74 59 135 13 21 21 43 19 47 -7 11 -44 0 -67 -20 -16 -14 -19 -14 -30 2
-9 12 -11 32 -8 54 5 30 11 37 39 44 18 5 32 15 32 24 0 20 -24 44 -45 44 -21
0 -38 46 -25 70 5 10 10 29 10 43 0 21 36 67 53 67 4 0 7 -33 7 -74 0 -69 1
-74 20 -69 22 6 26 19 34 108 3 33 7 69 8 80 4 31 -44 31 -106 1 -29 -14 -57
-26 -62 -26 -4 0 -34 18 -66 41 -72 50 -89 47 -77 -13 4 -24 13 -74 19 -113 6
-38 14 -82 16 -96 8 -41 -21 -45 -36 -6 -6 18 -16 40 -21 49 -5 10 -9 24 -9
31 0 8 -7 27 -14 43 -9 18 -16 67 -18 127 -3 94 -2 98 19 103 12 3 27 3 33 -1
6 -4 16 -2 23 3 7 5 90 12 185 14 159 5 174 4 182 -13 6 -10 10 -72 10 -139 0
-102 -3 -127 -21 -163 -54 -110 -63 -148 -62 -252 2 -72 8 -115 22 -154 25
-66 26 -67 46 -48 18 19 20 68 3 85 -18 18 -17 195 1 252 8 25 23 57 33 72 10
14 18 33 18 41 0 9 5 19 10 22 6 4 10 70 10 164 0 207 20 192 -258 190 -114
-1 -216 -5 -227 -9z m142 -302 c39 -37 30 -128 -13 -128 -23 0 -24 2 -21 75 1
41 4 75 6 75 3 0 15 -10 28 -22z m-11 -188 c34 0 34 0 34 -80 0 -81 0 -81 -22
-60 -12 11 -35 20 -54 20 -38 0 -44 12 -44 86 0 53 0 53 26 44 14 -6 41 -10
60 -10z"/>
</g>
</svg>
