<svg version="1.0" xmlns="http://www.w3.org/2000/svg"
 width="63.000000pt" height="79.000000pt" viewBox="0 0 63.000000 79.000000"
 preserveAspectRatio="xMidYMid meet">
<metadata>
Created by potrace 1.15, written by Peter Selinger 2001-2017
</metadata>
<g transform="translate(0.000000,79.000000) scale(0.100000,-0.100000)"
fill="#000000" stroke="none">
<path d="M270 658 c-87 -18 -181 -76 -184 -114 -1 -11 -6 -41 -10 -67 -10 -55
6 -125 40 -174 24 -36 49 -107 59 -171 9 -55 29 -50 33 8 4 51 -20 136 -52
182 -43 64 -55 139 -34 206 9 30 21 42 57 60 66 31 116 42 194 42 123 0 160
-38 159 -163 0 -44 -4 -89 -10 -101 -13 -28 -52 -181 -52 -206 0 -11 4 -20 8
-20 11 0 47 67 61 115 7 22 16 49 20 60 15 36 31 115 31 148 0 18 -9 56 -20
86 -35 96 -74 122 -182 120 -40 -1 -93 -5 -118 -11z"/>
<path d="M227 533 c-2 -21 -11 -62 -19 -91 -13 -46 -13 -54 -1 -59 16 -6 42
23 43 48 0 9 3 18 6 22 9 9 34 -4 34 -17 0 -7 8 -21 18 -32 26 -28 31 -47 43
-157 5 -56 14 -108 19 -116 5 -9 10 -14 10 -11 1 3 4 14 6 25 9 40 3 215 -7
239 -10 20 -8 30 10 55 12 17 26 31 30 31 10 0 31 -45 31 -65 0 -8 9 -15 20
-15 48 0 8 124 -48 150 -26 11 -44 5 -40 -13 3 -14 -33 -77 -44 -77 -5 0 -17
15 -28 33 -22 38 -62 86 -71 87 -4 0 -9 -17 -12 -37z"/>
</g>
</svg>
