<svg version="1.0" xmlns="http://www.w3.org/2000/svg"
 width="59.000000pt" height="95.000000pt" viewBox="0 0 59.000000 95.000000"
 preserveAspectRatio="xMidYMid meet">
<metadata>
Created by potrace 1.15, written by Peter Selinger 2001-2017
</metadata>
<g transform="translate(0.000000,95.000000) scale(0.100000,-0.100000)"
fill="#000000" stroke="none">
<path d="M240 801 c-8 -6 -26 -12 -40 -15 -15 -3 -42 -18 -61 -33 -31 -24 -36
-35 -52 -113 -22 -110 -21 -130 3 -210 24 -78 25 -120 5 -185 -15 -53 -13 -67
11 -58 43 16 59 149 29 246 -15 51 -11 192 6 203 5 3 9 18 9 34 0 26 7 32 55
55 62 28 129 32 185 12 50 -18 120 -56 120 -65 0 -4 -9 -34 -20 -66 -11 -33
-20 -70 -20 -84 0 -13 -9 -37 -20 -52 -49 -69 -60 -110 -60 -232 0 -117 11
-154 30 -103 6 14 10 65 10 113 0 90 10 118 57 168 11 11 23 33 26 50 3 16 13
61 21 99 30 138 24 151 -93 207 -67 32 -172 47 -201 29z"/>
<path d="M223 673 c-3 -10 -16 -42 -29 -70 -30 -68 -38 -99 -26 -107 10 -6 62
55 62 74 0 6 7 18 15 26 17 17 27 11 58 -37 20 -30 14 -39 -24 -39 -33 0 -48
-17 -22 -27 10 -4 26 -16 36 -28 17 -20 17 -43 1 -157 -4 -29 -2 -38 9 -38 18
0 44 61 52 120 3 25 14 59 25 75 24 36 25 45 5 45 -21 0 -19 43 3 63 25 23 28
22 41 -13 5 -16 15 -30 22 -30 9 0 10 19 5 71 -7 82 -10 89 -36 89 -13 0 -25
-14 -38 -44 -11 -24 -25 -46 -31 -50 -6 -4 -25 10 -43 30 -63 72 -74 78 -85
47z"/>
</g>
</svg>
