<svg version="1.0" xmlns="http://www.w3.org/2000/svg"
 width="55.000000pt" height="111.000000pt" viewBox="0 0 55.000000 111.000000"
 preserveAspectRatio="xMidYMid meet">
<metadata>
Created by potrace 1.15, written by Peter Selinger 2001-2017
</metadata>
<g transform="translate(0.000000,111.000000) scale(0.100000,-0.100000)"
fill="#000000" stroke="none">
<path d="M220 865 c-8 -2 -44 -7 -80 -10 -65 -6 -65 -6 -68 -244 -4 -238 -4
-238 28 -264 40 -34 49 -66 52 -183 2 -81 4 -94 19 -94 23 0 31 28 31 110 0
103 -11 151 -43 192 -29 37 -29 37 -29 212 0 107 4 185 11 199 10 22 19 25 78
29 36 2 104 2 149 0 84 -4 84 -4 78 -31 -3 -14 -9 -98 -12 -186 -7 -159 -7
-159 -56 -206 -48 -46 -48 -46 -48 -183 0 -75 4 -136 8 -136 13 0 29 63 41
159 11 89 19 104 60 124 32 15 38 45 46 232 4 77 11 155 15 173 11 43 -3 80
-35 92 -26 10 -219 22 -245 15z"/>
<path d="M206 679 c-3 -17 -19 -59 -36 -94 -29 -60 -31 -100 -6 -92 6 2 17 16
24 30 17 35 30 34 38 0 3 -16 11 -44 19 -63 8 -24 12 -86 10 -202 -3 -205 5
-217 40 -65 8 38 15 101 15 142 0 139 31 216 67 165 28 -40 34 -7 17 100 -8
51 -20 80 -35 80 -5 0 -12 -8 -16 -17 -17 -49 -54 -123 -61 -123 -14 0 -32 65
-32 118 0 44 -3 52 -19 52 -13 0 -20 -10 -25 -31z"/>
</g>
</svg>
