<svg version="1.0" xmlns="http://www.w3.org/2000/svg"
 width="53.000000pt" height="79.000000pt" viewBox="0 0 53.000000 79.000000"
 preserveAspectRatio="xMidYMid meet">
<metadata>
Created by potrace 1.15, written by Peter Selinger 2001-2017
</metadata>
<g transform="translate(0.000000,79.000000) scale(0.100000,-0.100000)"
fill="#000000" stroke="none">
<path d="M168 647 c-32 -11 -60 -28 -62 -36 -9 -28 -9 -135 0 -156 4 -11 16
-28 25 -38 21 -23 29 -59 37 -172 7 -90 7 -90 25 -58 9 18 17 48 17 68 0 19 2
35 5 35 19 0 58 -57 62 -92 6 -40 6 -40 19 -8 8 18 14 55 14 82 0 41 3 51 20
55 11 3 20 9 20 14 0 5 5 9 10 9 6 0 10 -15 10 -33 0 -42 54 -235 70 -250 16
-17 8 79 -13 156 -24 83 -22 152 5 190 12 18 27 35 32 39 16 11 16 169 0 196
-14 21 -21 22 -127 21 -86 -1 -125 -6 -169 -22z m262 -97 c0 -44 -4 -80 -8
-80 -5 0 -17 19 -28 42 -10 23 -23 43 -29 45 -5 1 -23 -25 -39 -60 -16 -34
-31 -55 -33 -47 -3 8 -8 24 -13 35 -5 11 -14 35 -22 52 -20 51 -33 46 -53 -19
-19 -64 -35 -79 -60 -55 -16 17 -21 112 -7 134 5 8 35 14 70 16 34 2 65 7 69
10 3 4 39 7 80 7 73 0 73 0 73 -80z m-169 -122 c5 -10 9 -36 9 -58 0 -48 -17
-52 -55 -15 -31 32 -32 67 -3 108 22 30 22 30 31 6 5 -13 13 -32 18 -41z m129
-5 c0 -14 -10 -27 -32 -37 -52 -27 -77 -16 -43 18 9 8 23 32 31 53 16 37 16
37 30 13 7 -14 13 -35 14 -47z"/>
</g>
</svg>
