<svg version="1.0" xmlns="http://www.w3.org/2000/svg"
 width="51.000000pt" height="71.000000pt" viewBox="0 0 51.000000 71.000000"
 preserveAspectRatio="xMidYMid meet">
<metadata>
Created by potrace 1.15, written by Peter Selinger 2001-2017
</metadata>
<g transform="translate(0.000000,71.000000) scale(0.100000,-0.100000)"
fill="#000000" stroke="none">
<path d="M354 519 c-5 -9 -39 -10 -115 -5 -109 6 -109 6 -109 -18 0 -14 -5
-28 -10 -31 -16 -10 -11 -62 9 -99 21 -36 20 -42 -20 -184 -13 -49 -7 -62 19
-38 16 14 28 42 48 114 10 37 54 -11 54 -61 0 -29 15 -51 29 -43 6 4 11 22 11
40 0 19 9 44 19 57 19 23 19 23 30 -16 6 -22 11 -48 11 -57 0 -10 5 -38 12
-63 21 -79 31 -52 25 66 -6 95 -4 116 10 140 10 16 21 29 25 29 14 0 8 144 -6
163 -15 20 -32 22 -42 6z m-170 -99 c2 -30 10 -48 29 -66 15 -14 27 -32 27
-41 0 -14 -2 -14 -20 2 -34 31 -60 92 -53 125 7 40 15 31 17 -20z m134 15 c2
-20 -13 -54 -21 -45 -2 3 -7 20 -10 38 -6 28 -4 33 11 30 9 -2 18 -12 20 -23z
m12 -94 c0 -12 -29 -35 -36 -28 -11 10 5 37 21 37 8 0 15 -4 15 -9z"/>
</g>
</svg>
