<svg version="1.0" xmlns="http://www.w3.org/2000/svg"
 width="49.000000pt" height="81.000000pt" viewBox="0 0 49.000000 81.000000"
 preserveAspectRatio="xMidYMid meet">
<metadata>
Created by potrace 1.15, written by Peter Selinger 2001-2017
</metadata>
<g transform="translate(0.000000,81.000000) scale(0.100000,-0.100000)"
fill="#000000" stroke="none">
<path d="M141 725 c-36 -14 -66 -27 -67 -28 -1 -1 4 -40 11 -87 7 -47 16 -103
20 -125 24 -161 28 -177 51 -186 25 -9 27 -13 43 -138 6 -46 13 -87 16 -90 15
-15 25 30 20 89 -13 155 -15 160 -51 177 -33 16 -33 16 -37 107 -4 84 -13 138
-31 207 -7 24 -4 27 43 43 80 26 206 16 240 -20 5 -5 11 -84 13 -177 3 -167 3
-167 -51 -167 -53 0 -53 0 -47 -32 3 -18 6 -64 7 -103 1 -77 6 -105 19 -105
15 0 24 43 25 120 0 75 0 75 30 75 55 0 55 2 54 188 -1 95 -4 183 -8 197 -10
38 -90 74 -171 77 -51 2 -79 -3 -129 -22z"/>
<path d="M185 640 c-3 -6 -4 -18 -1 -28 3 -9 -1 -39 -9 -66 -8 -27 -15 -55
-15 -63 0 -27 20 -12 38 29 18 43 18 43 34 18 14 -22 23 -104 28 -265 1 -18 2
-17 15 5 10 18 14 61 15 153 0 105 3 127 15 127 8 0 17 -11 21 -25 8 -31 29
-50 39 -34 10 16 -27 160 -40 156 -5 -2 -18 -20 -28 -40 -10 -20 -23 -37 -28
-37 -5 0 -22 18 -37 40 -28 41 -37 47 -47 30z"/>
</g>
</svg>
