<svg version="1.0" xmlns="http://www.w3.org/2000/svg"
 width="69.000000pt" height="87.000000pt" viewBox="0 0 69.000000 87.000000"
 preserveAspectRatio="xMidYMid meet">
<metadata>
Created by potrace 1.15, written by Peter Selinger 2001-2017
</metadata>
<g transform="translate(0.000000,87.000000) scale(0.100000,-0.100000)"
fill="#000000" stroke="none">
<path d="M58 589 c-16 -9 -18 -32 -18 -260 0 -153 4 -258 10 -270 9 -17 22
-19 101 -19 140 0 129 -23 129 278 0 187 -3 261 -12 270 -15 15 -185 16 -210
1z m82 -144 c0 -95 0 -95 -30 -95 -30 0 -30 0 -30 85 0 69 3 86 18 94 38 23
42 15 42 -84z m88 83 c13 -13 16 -95 6 -147 -5 -24 -12 -31 -30 -31 -24 0 -24
2 -24 95 0 85 2 95 18 95 10 0 23 -5 30 -12z m-93 -328 c0 -105 0 -105 -25
-105 -25 0 -25 0 -28 108 -3 108 -3 108 25 105 28 -3 28 -3 28 -108z m105 12
c0 -101 -7 -122 -42 -122 -16 0 -18 11 -18 110 0 110 0 110 30 110 30 0 30 0
30 -98z"/>
<path d="M346 574 c-10 -9 -16 -33 -16 -59 0 -53 19 -75 66 -75 27 0 34 -4 34
-19 0 -19 -18 -31 -49 -31 -47 0 -69 -84 -31 -118 11 -9 35 -19 53 -22 28 -4
32 -9 32 -35 0 -28 -2 -30 -45 -33 -84 -6 -77 -42 8 -42 41 0 43 -1 40 -27 -3
-25 -8 -29 -51 -35 -59 -8 -68 -15 -43 -34 15 -10 52 -14 140 -14 128 0 150 6
144 36 -3 17 -12 19 -71 16 -67 -4 -67 -4 -67 32 0 35 0 35 48 38 34 2 47 7
47 18 0 11 -13 16 -47 18 -43 3 -48 6 -48 27 0 19 7 24 40 30 65 11 99 74 64
123 -12 17 -25 22 -60 22 -36 0 -44 3 -44 19 0 15 10 20 45 25 52 8 65 25 65
84 0 62 -19 72 -138 72 -78 0 -104 -4 -116 -16z m194 -43 c0 -46 -8 -51 -91
-51 -79 0 -79 0 -79 29 0 36 7 39 98 40 65 1 72 -1 72 -18z m-5 -211 c0 -24
-3 -25 -72 -28 -64 -3 -72 -1 -78 17 -11 35 3 42 78 39 69 -3 72 -4 72 -28z"/>
</g>
</svg>
