<svg version="1.0" xmlns="http://www.w3.org/2000/svg"
 width="67.000000pt" height="81.000000pt" viewBox="0 0 67.000000 81.000000"
 preserveAspectRatio="xMidYMid meet">
<metadata>
Created by potrace 1.15, written by Peter Selinger 2001-2017
</metadata>
<g transform="translate(0.000000,81.000000) scale(0.100000,-0.100000)"
fill="#000000" stroke="none">
<path d="M397 628 c-16 -6 -30 -20 -33 -34 -7 -28 3 -123 15 -142 5 -8 34 -13
79 -15 71 -2 71 -2 78 -96 3 -51 4 -138 2 -192 -5 -105 -1 -123 28 -117 18 3
19 16 22 193 3 242 -8 383 -34 402 -21 15 -116 16 -157 1z m126 -63 c-2 -5
-25 -11 -53 -13 -40 -2 -50 0 -50 13 0 13 10 15 53 13 28 -2 51 -7 50 -13z m7
-64 c0 -12 -36 -21 -82 -21 -39 0 -52 15 -20 23 31 8 102 7 102 -2z"/>
<path d="M157 620 c-59 -18 -57 -9 -57 -310 0 -231 2 -280 15 -290 30 -25 35
0 35 191 0 189 0 189 28 189 46 0 103 20 128 45 32 33 34 119 3 159 -18 22
-28 26 -72 25 -29 0 -65 -5 -80 -9z m72 -46 c47 -10 38 -30 -16 -38 -53 -7
-72 4 -48 28 19 18 20 18 64 10z m41 -98 c0 -16 -30 -26 -77 -26 -22 0 -33 5
-33 14 0 19 15 24 68 25 29 1 42 -3 42 -13z"/>
<path d="M318 413 c-8 -17 -24 -29 -43 -33 -82 -17 -97 -54 -93 -220 3 -107 4
-115 23 -115 19 0 20 8 23 123 3 130 9 145 50 123 18 -10 19 -13 6 -50 -20
-57 -30 -196 -15 -205 23 -15 41 15 41 68 0 58 16 126 30 126 19 0 30 -41 30
-115 0 -59 3 -77 16 -82 26 -10 34 10 37 93 1 59 -3 88 -16 113 -22 44 -22 46
8 59 23 11 27 9 35 -14 6 -14 10 -70 10 -125 0 -92 1 -99 20 -99 30 0 34 36
19 178 -14 127 -14 127 -70 141 -37 10 -59 21 -65 34 -14 31 -31 31 -46 0z
m48 -94 c-28 -22 -28 -22 -49 0 -21 21 -21 21 27 21 49 0 49 0 22 -21z"/>
</g>
</svg>
