<svg version="1.0" xmlns="http://www.w3.org/2000/svg"
 width="57.000000pt" height="83.000000pt" viewBox="0 0 57.000000 83.000000"
 preserveAspectRatio="xMidYMid meet">
<metadata>
Created by potrace 1.15, written by Peter Selinger 2001-2017
</metadata>
<g transform="translate(0.000000,83.000000) scale(0.100000,-0.100000)"
fill="#000000" stroke="none">
<path d="M341 707 c-6 -6 -11 -17 -11 -24 0 -21 -80 -17 -96 5 -12 16 -14 16
-26 0 -9 -12 -31 -18 -73 -20 -48 -2 -60 -7 -63 -20 -3 -16 5 -18 63 -18 58 0
66 -2 63 -17 -2 -13 -16 -20 -47 -24 -33 -4 -52 -14 -74 -39 -26 -29 -28 -38
-23 -74 10 -63 29 -84 81 -91 25 -4 45 -11 45 -15 0 -4 -21 -20 -46 -36 -60
-38 -74 -68 -81 -172 -5 -77 -3 -90 15 -112 31 -38 52 -14 52 61 0 87 18 160
48 191 14 16 32 28 39 28 7 0 18 11 23 25 8 22 15 25 60 25 37 0 50 -4 50 -14
0 -24 29 -46 60 -46 49 0 60 -29 60 -157 0 -89 3 -113 14 -113 32 0 39 28 34
138 -3 60 -10 118 -16 129 -10 18 -29 29 -87 48 -29 9 0 25 46 25 52 0 69 24
69 97 0 72 -13 88 -85 100 -34 6 -51 14 -53 25 -3 14 7 18 60 20 48 2 63 7 63
18 0 11 -15 16 -62 18 -54 3 -63 6 -63 21 0 23 -23 34 -39 18z m-3 -99 c3 -15
-4 -18 -42 -18 -32 0 -46 4 -46 13 0 22 12 28 50 25 24 -2 36 -9 38 -20z m2
-73 c0 -23 -3 -25 -50 -25 -27 0 -50 3 -50 8 0 16 16 30 40 35 54 10 60 8 60
-18z m-140 -5 c0 -17 -7 -20 -40 -20 -42 0 -52 12 -22 29 30 18 62 13 62 -9z
m265 0 c0 -18 -62 -27 -77 -12 -18 18 3 33 40 30 25 -2 37 -8 37 -18z m-273
-66 c5 -3 8 -14 8 -25 0 -14 -7 -19 -27 -19 -36 0 -48 9 -58 39 -7 23 -6 23
31 16 22 -4 42 -9 46 -11z m272 7 c14 -22 -7 -41 -45 -41 -35 0 -39 3 -39 25
0 22 4 25 39 25 22 0 42 -4 45 -9z m-124 -26 c0 -23 -3 -25 -50 -25 -47 0 -50
2 -50 25 0 23 3 25 50 25 47 0 50 -2 50 -25z"/>
<path d="M236 300 c-50 -10 -60 -24 -75 -111 -13 -68 -12 -72 8 -93 19 -18 33
-21 112 -21 118 0 129 11 129 126 0 69 -2 80 -22 93 -24 17 -85 19 -152 6z
m122 -67 c3 -22 0 -23 -72 -23 -67 0 -76 2 -76 18 0 29 10 33 80 30 59 -3 65
-5 68 -25z m-5 -83 c-6 -24 -34 -32 -94 -28 -37 2 -45 7 -47 26 -3 21 0 22 71
22 70 0 75 -1 70 -20z"/>
</g>
</svg>
