<svg version="1.0" xmlns="http://www.w3.org/2000/svg"
 width="55.000000pt" height="105.000000pt" viewBox="0 0 55.000000 105.000000"
 preserveAspectRatio="xMidYMid meet">
<metadata>
Created by potrace 1.15, written by Peter Selinger 2001-2017
</metadata>
<g transform="translate(0.000000,105.000000) scale(0.100000,-0.100000)"
fill="#000000" stroke="none">
<path d="M88 945 c-1 -30 -2 -63 -2 -72 -1 -10 5 -17 12 -15 6 1 12 -5 12 -13
0 -8 -6 -12 -14 -9 -11 4 -13 -7 -10 -56 4 -68 12 -88 57 -135 24 -25 44 -35
80 -40 47 -7 47 -7 47 -51 0 -24 -3 -44 -7 -45 -53 -6 -167 -36 -166 -44 2 -5
24 -11 50 -13 27 -1 63 -4 81 -7 29 -5 32 -8 25 -33 -3 -15 -15 -42 -25 -60
-10 -18 -18 -39 -18 -46 0 -7 -8 -21 -19 -30 -27 -24 -60 -159 -42 -170 19
-12 41 6 41 36 0 29 47 126 74 154 18 18 23 -1 31 -126 8 -126 12 -140 34
-140 20 0 21 22 6 223 -7 94 -7 97 13 97 27 0 75 -59 93 -113 16 -51 32 -69
53 -61 40 15 -8 130 -88 210 -50 50 -47 64 13 64 41 0 51 4 56 20 9 28 1 37
-44 44 -50 8 -58 28 -17 46 48 21 93 72 106 118 6 24 9 46 6 50 -3 5 -7 50
-10 102 -3 61 -9 96 -18 101 -30 19 -31 15 -28 -113 2 -94 -21 -166 -58 -183
-12 -5 -22 -13 -22 -17 0 -5 -9 -8 -20 -8 -11 0 -20 6 -20 14 0 8 -4 16 -9 18
-6 2 -11 57 -12 123 -2 128 -13 165 -49 165 -16 0 -19 -5 -16 -22 3 -13 7 -66
10 -120 6 -96 6 -96 -21 -106 -70 -23 -99 23 -108 170 -6 112 -18 147 -47 148
-5 0 -9 -25 -10 -55z"/>
</g>
</svg>
