<svg version="1.0" xmlns="http://www.w3.org/2000/svg"
 width="41.000000pt" height="231.000000pt" viewBox="0 0 41.000000 231.000000"
 preserveAspectRatio="xMidYMid meet">
<metadata>
Created by potrace 1.15, written by Peter Selinger 2001-2017
</metadata>
<g transform="translate(0.000000,231.000000) scale(0.100000,-0.100000)"
fill="#000000" stroke="none">
<path d="M90 2175 c0 -22 4 -87 10 -145 5 -58 14 -166 20 -240 18 -220 30
-263 78 -289 23 -12 30 -45 11 -56 -7 -5 -4 -12 8 -20 15 -11 75 -9 111 4 1 1
16 1 32 1 17 0 30 5 30 10 0 6 -30 10 -70 10 -70 0 -70 0 -70 28 0 21 7 30 30
40 20 9 36 29 50 59 18 42 20 67 20 314 0 168 -4 270 -10 274 -6 4 -10 -41
-10 -127 0 -180 -17 -423 -32 -464 -11 -31 -34 -51 -46 -39 -3 3 -6 72 -7 153
-1 232 -17 522 -28 522 -6 0 -7 -70 -1 -197 9 -202 8 -462 -2 -472 -11 -12
-39 18 -46 50 -10 42 -27 222 -34 346 -2 51 -9 104 -14 119 -6 14 -10 49 -10
77 0 29 -5 59 -10 67 -7 11 -10 5 -10 -25z"/>
<path d="M62 1443 c-24 -10 0 -23 41 -22 56 1 98 16 46 17 -21 0 -45 2 -55 5
-11 3 -25 3 -32 0z"/>
<path d="M229 1393 c-1 -5 -1 -12 0 -17 4 -17 -24 -26 -86 -26 -34 0 -65 -4
-68 -10 -4 -6 22 -10 69 -10 76 0 76 0 76 -40 0 -33 -3 -40 -20 -40 -10 0 -30
-5 -43 -11 -22 -10 -25 -19 -31 -97 -3 -48 -6 -173 -6 -278 0 -105 -3 -205 -6
-222 -5 -25 -3 -32 10 -32 10 0 16 8 16 23 -1 193 14 574 22 585 6 7 23 12 37
10 26 -3 26 -3 23 -143 -1 -77 -5 -248 -7 -380 -3 -132 -7 -336 -9 -454 -3
-138 -1 -210 5 -204 5 5 12 77 14 159 3 82 8 232 11 334 3 102 5 201 5 220 -3
151 -1 337 5 397 6 73 6 73 35 56 41 -24 55 -90 40 -191 -26 -186 -14 -711 20
-843 5 -20 9 -48 9 -62 0 -14 5 -29 11 -33 11 -6 10 13 -13 181 -13 100 -16
498 -4 712 12 207 3 248 -56 263 -38 11 -39 12 -36 51 3 40 3 40 67 44 35 3
66 7 69 10 6 5 -27 8 -70 5 -42 -2 -68 9 -68 31 0 18 -19 28 -21 12z"/>
<path d="M106 508 c-12 -142 -16 -345 -7 -318 5 14 9 52 10 85 1 33 5 76 10
95 16 61 20 220 6 220 -8 0 -14 -28 -19 -82z"/>
<path d="M82 135 c0 -16 2 -22 5 -12 2 9 2 23 0 30 -3 6 -5 -1 -5 -18z"/>
</g>
</svg>
