<svg version="1.0" xmlns="http://www.w3.org/2000/svg"
 width="97.000000pt" height="107.000000pt" viewBox="0 0 97.000000 107.000000"
 preserveAspectRatio="xMidYMid meet">
<metadata>
Created by potrace 1.15, written by Peter Selinger 2001-2017
</metadata>
<g transform="translate(0.000000,107.000000) scale(0.100000,-0.100000)"
fill="#000000" stroke="none">
<path d="M236 1029 c-7 -22 -18 -111 -17 -136 0 -12 -3 -24 -7 -27 -5 -3 -2
-37 6 -77 17 -83 13 -88 -58 -90 -50 -1 -73 -4 -98 -14 -14 -6 -13 -9 8 -17
14 -6 54 -16 90 -22 65 -11 65 -11 66 -81 2 -70 16 -125 32 -125 11 0 22 72
22 136 0 71 4 74 81 74 55 0 69 3 69 15 0 21 -41 35 -101 35 -49 0 -49 0 -49
34 0 39 39 84 96 111 31 15 51 52 35 68 -4 4 -28 1 -52 -7 -61 -22 -69 -20
-69 13 0 57 -43 145 -54 110z"/>
<path d="M577 984 c-3 -3 7 -17 23 -30 25 -21 29 -33 35 -104 10 -114 45 -101
45 16 0 38 14 51 33 32 15 -15 43 -178 34 -200 -5 -15 -14 -14 -144 9 -43 7
-45 -18 -3 -49 21 -15 30 -30 30 -49 0 -69 26 -79 36 -14 6 41 9 45 28 39 37
-11 40 -21 21 -64 -34 -76 -60 -94 -148 -105 -34 -4 -56 -12 -54 -18 6 -18 59
-28 117 -21 47 5 61 12 97 49 24 23 43 51 43 61 0 13 3 15 11 7 6 -6 12 -67
14 -147 4 -136 14 -176 51 -214 8 -7 17 -25 20 -40 12 -48 35 -85 46 -74 34
34 -1 259 -84 542 -5 19 -14 73 -19 120 -14 144 -25 175 -71 206 -61 43 -142
67 -161 48z"/>
<path d="M246 281 c-4 -5 1 -44 9 -88 8 -43 15 -91 15 -106 0 -38 24 -30 26 9
1 16 4 60 8 98 5 58 3 71 -12 82 -20 16 -39 18 -46 5z"/>
<path d="M107 178 c-3 -51 -9 -101 -13 -112 -10 -25 16 -17 30 10 6 10 18 30
27 44 26 41 33 109 13 131 -10 11 -25 19 -34 19 -14 0 -18 -14 -23 -92z"/>
<path d="M387 253 c-11 -11 -8 -56 6 -83 7 -14 19 -45 27 -70 28 -89 67 -89
54 0 -10 74 -67 174 -87 153z"/>
</g>
</svg>
