<svg version="1.0" xmlns="http://www.w3.org/2000/svg"
 width="60.000000pt" height="90.000000pt" viewBox="0 0 60.000000 90.000000"
 preserveAspectRatio="xMidYMid meet">
<metadata>
Created by potrace 1.15, written by Peter Selinger 2001-2017
</metadata>
<g transform="translate(0.000000,90.000000) scale(0.100000,-0.100000)"
fill="#000000" stroke="none">
<path d="M295 710 c-8 -13 17 -60 47 -86 34 -31 63 -44 98 -44 44 0 70 -17 70
-44 0 -23 -23 -39 -101 -70 -31 -12 -39 -22 -54 -66 -28 -85 -5 -169 63 -225
40 -33 52 -26 28 18 -10 17 -29 52 -42 77 -47 87 -23 142 78 174 65 20 77 31
84 78 8 49 -23 84 -94 103 -83 23 -119 41 -138 70 -17 27 -29 31 -39 15z"/>
<path d="M107 693 c-4 -6 -9 -25 -12 -44 -3 -19 -22 -61 -43 -94 -31 -51 -37
-68 -36 -113 2 -55 19 -86 55 -97 20 -7 26 -40 9 -50 -21 -13 -11 -74 19 -107
32 -37 51 -32 33 7 -22 48 -14 69 63 158 71 82 75 89 75 136 0 60 -23 117 -51
126 -30 10 -32 3 -7 -43 28 -51 18 -63 -30 -35 -35 20 -37 25 -44 84 -7 61
-20 90 -31 72z m67 -193 c25 -10 46 -24 46 -29 0 -17 -80 -111 -95 -111 -18 0
-55 48 -55 72 0 15 4 18 18 13 62 -27 91 -8 37 24 -38 22 -47 51 -16 51 11 0
40 -9 65 -20z"/>
<path d="M204 283 c5 -30 1 -47 -18 -78 -66 -107 -69 -114 -51 -141 24 -37 51
-28 47 16 -2 29 3 41 32 70 43 43 57 106 32 145 -9 14 -24 25 -32 25 -13 0
-15 -8 -10 -37z"/>
</g>
</svg>
