<svg version="1.0" xmlns="http://www.w3.org/2000/svg"
 width="61.000000pt" height="81.000000pt" viewBox="0 0 61.000000 81.000000"
 preserveAspectRatio="xMidYMid meet">
<metadata>
Created by potrace 1.15, written by Peter Selinger 2001-2017
</metadata>
<g transform="translate(0.000000,81.000000) scale(0.100000,-0.100000)"
fill="#000000" stroke="none">
<path d="M147 543 c-3 -5 -7 -123 -9 -263 -3 -249 -3 -255 17 -255 19 0 20 9
28 215 4 118 9 235 10 260 2 39 -1 45 -20 48 -11 2 -23 -1 -26 -5z"/>
<path d="M215 517 c-3 -12 -5 -56 -3 -97 3 -72 4 -75 28 -75 24 0 25 2 26 80
1 44 0 88 -3 98 -6 25 -42 21 -48 -6z"/>
<path d="M496 525 c-7 -19 -117 -21 -145 -3 -15 9 -23 9 -35 -1 -12 -10 -16
-33 -16 -96 0 -112 8 -119 130 -113 59 3 94 9 99 17 11 18 22 161 15 189 -7
25 -39 30 -48 7z m-6 -80 c0 -12 -14 -15 -70 -15 -58 0 -68 3 -64 15 9 22 134
22 134 0z m-30 -75 c-20 -13 -110 -13 -110 0 0 6 27 10 63 10 44 0 58 -3 47
-10z"/>
<path d="M67 509 c-17 -27 -23 -154 -8 -163 26 -16 40 7 46 81 6 60 5 78 -8
90 -13 14 -17 13 -30 -8z"/>
<path d="M66 281 c-14 -15 -16 -36 -14 -127 3 -101 4 -109 23 -109 18 0 20 8
23 75 1 41 7 85 13 96 8 16 7 29 -5 53 -19 37 -18 36 -40 12z"/>
<path d="M217 293 c-3 -5 -6 -62 -8 -128 -4 -116 -3 -120 17 -123 21 -3 22 2
29 106 4 61 4 119 0 131 -6 20 -29 29 -38 14z"/>
<path d="M314 245 c-15 -38 -19 -181 -5 -204 12 -19 217 -6 225 15 8 21 -12
27 -98 28 -81 1 -81 1 -81 76 0 60 3 75 15 75 11 0 17 -15 21 -50 13 -114 49
-116 49 -3 0 42 3 49 18 46 14 -3 16 -12 14 -54 -3 -35 1 -54 11 -62 23 -20
34 5 39 91 5 77 5 77 -94 77 -99 0 -99 0 -114 -35z"/>
</g>
</svg>
