<svg version="1.0" xmlns="http://www.w3.org/2000/svg"
 width="73.000000pt" height="130.000000pt" viewBox="0 0 73.000000 130.000000"
 preserveAspectRatio="xMidYMid meet">
<metadata>
Created by potrace 1.15, written by Peter Selinger 2001-2017
</metadata>
<g transform="translate(0.000000,130.000000) scale(0.100000,-0.100000)"
fill="#000000" stroke="none">
<path d="M145 1178 c-2 -7 -4 -20 -3 -28 1 -8 0 -43 0 -77 -2 -61 -3 -63 -40
-87 -29 -18 -42 -35 -54 -74 -20 -62 -14 -154 13 -200 21 -36 24 -63 10 -78
-35 -35 -75 -280 -52 -314 13 -19 22 -9 25 27 16 172 21 201 40 238 20 36 25
40 59 39 25 -1 37 3 37 12 0 8 -4 14 -10 14 -15 0 -12 29 4 46 19 19 30 18 50
-5 31 -34 31 -91 1 -162 -61 -144 -67 -163 -62 -210 14 -120 48 -229 73 -229
10 0 13 -7 9 -23 -7 -28 23 -61 45 -47 11 7 6 25 -28 98 -23 50 -42 100 -42
111 0 11 -4 23 -10 26 -28 17 -1 174 43 250 42 70 47 125 15 167 -39 53 -41
67 -13 90 14 11 25 26 25 34 0 8 5 14 11 14 12 0 7 130 -6 182 -6 21 -3 27 14
33 12 3 21 13 21 21 0 15 -24 12 -78 -7 -48 -18 -51 -14 -54 68 -3 65 -6 78
-21 81 -9 2 -19 -2 -22 -10z m103 -195 c5 -10 12 -46 16 -80 5 -47 3 -70 -9
-93 -16 -31 -42 -40 -50 -17 -7 24 -15 176 -9 192 8 20 41 19 52 -2z m-94 -55
c3 -13 6 -36 6 -52 0 -34 21 -98 35 -108 13 -10 -45 -58 -71 -58 -24 0 -47 41
-58 102 -7 36 10 94 35 125 18 20 46 15 53 -9z"/>
<path d="M420 973 c-61 -19 -60 -18 -60 -138 0 -61 3 -115 7 -119 4 -4 9 -28
10 -53 2 -25 10 -54 17 -65 52 -73 215 -61 248 20 12 29 14 194 3 271 -11 77
-30 91 -128 90 -45 0 -89 -3 -97 -6z m168 -50 c6 -16 13 -52 17 -80 6 -53 6
-53 -42 -54 -26 0 -72 -4 -100 -8 -29 -4 -57 -3 -62 2 -4 4 -6 29 -4 55 7 81
12 92 36 92 12 0 29 5 37 10 8 5 36 10 61 10 42 0 48 -3 57 -27z m24 -203 c-6
-85 -12 -99 -46 -115 -20 -10 -52 -15 -77 -13 -41 3 -45 6 -66 48 -12 25 -22
59 -23 77 0 32 0 32 63 36 34 2 82 3 107 3 45 -1 45 -1 42 -36z"/>
<path d="M488 425 c-2 -2 -52 -6 -112 -9 -109 -6 -126 -10 -112 -23 10 -11
408 -3 428 8 39 21 14 29 -91 28 -61 -1 -111 -2 -113 -4z"/>
</g>
</svg>
