<svg version="1.0" xmlns="http://www.w3.org/2000/svg"
 width="61.000000pt" height="71.000000pt" viewBox="0 0 61.000000 71.000000"
 preserveAspectRatio="xMidYMid meet">
<metadata>
Created by potrace 1.15, written by Peter Selinger 2001-2017
</metadata>
<g transform="translate(0.000000,71.000000) scale(0.100000,-0.100000)"
fill="#000000" stroke="none">
<path d="M335 646 c-49 -13 -110 -30 -135 -39 -25 -9 -55 -17 -66 -17 -34 0
-42 -19 -33 -80 4 -30 8 -146 8 -256 1 -178 3 -203 17 -208 9 -4 20 -4 23 0 3
3 6 58 6 121 0 95 3 117 15 121 21 7 120 110 120 125 0 6 10 43 22 82 29 92
47 107 166 141 24 7 6 29 -24 31 -16 1 -69 -9 -119 -21z m-85 -165 c0 -37 -6
-54 -27 -78 -16 -18 -37 -33 -48 -35 -18 -3 -20 3 -23 79 -3 83 -3 83 30 103
33 20 33 20 51 -1 11 -14 17 -38 17 -68z"/>
<path d="M480 501 c-19 -11 -44 -24 -55 -29 -47 -23 -59 -48 -56 -125 3 -108
-5 -140 -49 -187 -44 -48 -54 -67 -37 -73 22 -8 46 13 88 75 40 58 42 64 45
151 5 111 22 137 90 137 46 0 61 18 44 51 -13 24 -26 24 -70 0z"/>
</g>
</svg>
