<svg version="1.0" xmlns="http://www.w3.org/2000/svg"
 width="73.000000pt" height="119.000000pt" viewBox="0 0 73.000000 119.000000"
 preserveAspectRatio="xMidYMid meet">
<metadata>
Created by potrace 1.15, written by Peter Selinger 2001-2017
</metadata>
<g transform="translate(0.000000,119.000000) scale(0.100000,-0.100000)"
fill="#000000" stroke="none">
<path d="M495 1120 c-3 -5 -13 -10 -20 -10 -8 0 -24 -8 -35 -17 -25 -22 -109
-72 -132 -80 -10 -3 -18 -9 -18 -13 0 -4 -19 -17 -43 -29 -23 -12 -56 -35 -73
-50 -16 -15 -36 -30 -43 -32 -12 -4 -15 -70 -17 -365 -2 -197 -7 -373 -13
-391 -11 -37 -4 -73 14 -73 25 0 33 26 38 120 13 217 27 427 32 455 3 17 22
45 43 65 52 48 85 103 112 184 13 38 34 79 47 92 13 13 23 27 23 32 0 12 45
42 61 42 7 0 32 9 56 21 56 27 60 59 9 59 -19 0 -38 -4 -41 -10z m-222 -233
c-13 -55 -66 -147 -85 -147 -10 0 -10 36 -2 80 7 35 67 105 83 96 5 -3 7 -16
4 -29z"/>
<path d="M593 827 c-73 -78 -78 -96 -93 -314 -11 -160 -21 -197 -67 -252 -33
-40 -105 -91 -127 -91 -14 0 -14 -3 -4 -20 16 -26 48 -26 76 0 12 11 25 20 30
20 19 0 81 69 100 110 21 48 30 108 38 255 6 120 18 166 58 228 34 53 53 107
38 107 -5 0 -27 -19 -49 -43z"/>
</g>
</svg>
