<svg version="1.0" xmlns="http://www.w3.org/2000/svg"
 width="63.000000pt" height="94.000000pt" viewBox="0 0 63.000000 94.000000"
 preserveAspectRatio="xMidYMid meet">
<metadata>
Created by potrace 1.15, written by Peter Selinger 2001-2017
</metadata>
<g transform="translate(0.000000,94.000000) scale(0.100000,-0.100000)"
fill="#000000" stroke="none">
<path d="M380 729 c-10 -17 -9 -24 4 -37 21 -22 51 -4 51 29 0 33 -39 39 -55
8z"/>
<path d="M517 704 c-4 -4 -7 -16 -7 -26 0 -10 -3 -18 -7 -18 -5 -1 -41 -5 -81
-9 -89 -11 -108 -6 -116 25 -4 13 -14 24 -23 24 -14 0 -15 -11 -10 -97 5 -65
12 -101 22 -113 20 -23 132 -34 185 -20 60 16 71 41 68 146 -3 80 -12 107 -31
88z m-7 -134 c0 -48 -1 -49 -32 -55 -18 -3 -60 -5 -93 -3 -59 3 -59 3 -68 41
-5 21 -6 41 -2 45 6 6 84 16 168 20 26 2 27 0 27 -48z"/>
<path d="M368 573 c-16 -2 -28 -11 -28 -19 0 -11 16 -14 71 -14 62 0 70 2 67
18 -3 18 -52 24 -110 15z"/>
<path d="M133 641 c-62 -8 -83 -23 -63 -46 7 -8 23 -15 37 -15 23 0 24 -2 21
-62 -3 -61 -4 -63 -33 -68 -18 -3 -30 -11 -30 -20 0 -10 10 -15 30 -15 30 0
30 0 33 -72 3 -72 3 -72 -30 -75 -22 -2 -34 -9 -36 -21 -3 -15 4 -17 55 -16
69 1 105 10 111 27 2 8 -7 12 -27 12 -31 0 -31 0 -31 69 0 69 0 69 31 75 39 8
37 39 -4 44 -26 3 -27 5 -27 64 0 49 4 63 22 77 20 17 21 53 1 50 -4 -1 -32
-5 -60 -8z"/>
<path d="M371 416 c-114 -14 -124 -24 -115 -106 3 -33 0 -90 -10 -145 -21
-119 -21 -135 4 -135 26 0 36 45 44 200 4 69 10 128 14 132 4 4 54 13 112 20
86 11 105 16 108 31 4 20 -14 21 -157 3z"/>
<path d="M424 318 c-12 -43 -46 -50 -62 -13 -20 44 -32 18 -32 -70 0 -115 26
-136 140 -115 72 13 90 35 92 111 1 32 2 67 2 77 1 10 -8 18 -21 20 -19 3 -23
-1 -23 -21 0 -20 -4 -23 -24 -20 -16 3 -28 15 -35 34 -13 38 -26 37 -37 -3z
m91 -108 c0 -32 -2 -35 -42 -43 -56 -11 -98 8 -98 43 0 22 5 26 45 31 84 12
95 8 95 -31z"/>
</g>
</svg>
