<svg version="1.0" xmlns="http://www.w3.org/2000/svg"
 width="85.000000pt" height="129.000000pt" viewBox="0 0 85.000000 129.000000"
 preserveAspectRatio="xMidYMid meet">
<metadata>
Created by potrace 1.15, written by Peter Selinger 2001-2017
</metadata>
<g transform="translate(0.000000,129.000000) scale(0.100000,-0.100000)"
fill="#000000" stroke="none">
<path d="M423 1214 c-3 -9 -3 -67 1 -129 7 -128 25 -112 -169 -145 -38 -6 -78
-14 -87 -16 -26 -8 -58 31 -58 70 0 19 4 36 8 38 4 2 0 11 -10 21 -18 17 -19
16 -29 -10 -12 -32 -6 -249 11 -378 5 -44 13 -161 16 -260 6 -172 16 -224 35
-193 5 7 9 85 9 173 0 206 -15 195 249 199 84 1 84 1 99 -44 8 -25 18 -53 23
-62 5 -10 9 -24 9 -33 0 -15 19 -52 73 -142 36 -62 91 -93 162 -93 37 0 45 3
45 18 0 13 -13 23 -42 32 -118 35 -141 54 -165 136 -6 21 -21 71 -32 109 -28
96 -51 245 -61 400 -5 72 -13 153 -19 180 -6 28 -13 66 -17 85 -10 55 -38 79
-51 44z m28 -394 c6 -41 13 -101 16 -132 5 -58 5 -58 -68 -58 -41 0 -113 -3
-161 -7 -88 -6 -88 -6 -88 18 -1 38 -10 142 -15 163 -6 27 14 41 75 55 30 7
89 23 130 36 57 17 78 20 88 11 6 -7 17 -45 23 -86z"/>
<path d="M427 383 c-4 -3 -4 -30 -1 -60 6 -47 5 -53 -12 -53 -11 0 -28 -3 -39
-6 -28 -7 -65 27 -65 59 0 25 -23 42 -42 31 -17 -11 6 -194 32 -243 5 -9 14
-31 20 -48 10 -26 17 -32 34 -28 11 2 42 7 67 10 60 8 69 27 69 155 0 115 -16
190 -40 190 -9 0 -20 -3 -23 -7z m5 -213 c-2 -42 -20 -70 -44 -70 -21 0 -58
51 -58 79 0 25 5 30 28 34 15 2 38 4 52 3 23 -1 25 -4 22 -46z"/>
</g>
</svg>
