<svg version="1.0" xmlns="http://www.w3.org/2000/svg"
 width="65.000000pt" height="79.000000pt" viewBox="0 0 65.000000 79.000000"
 preserveAspectRatio="xMidYMid meet">
<metadata>
Created by potrace 1.15, written by Peter Selinger 2001-2017
</metadata>
<g transform="translate(0.000000,79.000000) scale(0.100000,-0.100000)"
fill="#000000" stroke="none">
<path d="M139 693 c-11 -12 -14 -61 -15 -207 -1 -142 -5 -207 -18 -254 -16
-65 -15 -82 8 -82 37 0 76 85 76 166 0 54 0 54 108 54 59 0 130 3 158 6 51 6
51 6 59 -47 8 -52 12 -95 14 -151 1 -23 6 -28 25 -28 32 0 39 12 26 46 -6 15
-11 121 -11 247 -1 220 -1 220 -26 245 -13 13 -25 23 -26 21 -8 -12 -27 -78
-27 -91 0 -22 -25 -26 -170 -30 -125 -3 -125 -3 -128 27 -3 28 -29 95 -36 95
-2 0 -10 -7 -17 -17z m359 -208 c1 -24 -1 -46 -5 -48 -5 -3 -73 -6 -153 -8
-145 -4 -145 -4 -148 43 -3 47 -3 47 40 52 71 10 109 11 189 8 76 -3 76 -3 77
-47z"/>
<path d="M246 302 c-3 -5 -4 -35 -3 -68 1 -32 -2 -64 -6 -70 -4 -7 -2 -37 5
-68 9 -49 15 -58 43 -72 52 -24 113 -21 139 7 41 44 63 234 31 266 -25 25 -45
8 -45 -37 0 -41 0 -41 -52 -38 -49 3 -53 5 -56 30 -3 26 -46 65 -56 50z m157
-153 c15 -23 -8 -73 -39 -87 -26 -12 -54 -6 -55 12 0 6 -3 24 -5 40 -4 19 1
32 13 42 23 17 73 13 86 -7z"/>
</g>
</svg>
