<svg version="1.0" xmlns="http://www.w3.org/2000/svg"
 width="135.000000pt" height="123.000000pt" viewBox="0 0 135.000000 123.000000"
 preserveAspectRatio="xMidYMid meet">
<metadata>
Created by potrace 1.15, written by Peter Selinger 2001-2017
</metadata>
<g transform="translate(0.000000,123.000000) scale(0.100000,-0.100000)"
fill="#000000" stroke="none">
<path d="M707 1156 c-48 -50 -112 -172 -122 -233 -6 -41 -6 -41 -51 -11 -24
16 -44 32 -44 36 0 4 -13 21 -28 37 -15 17 -39 46 -52 65 -32 46 -46 60 -60
60 -15 0 -40 -25 -40 -40 0 -12 -39 -90 -50 -100 -3 -3 -22 -30 -42 -60 -20
-30 -47 -66 -60 -80 -33 -37 -48 -66 -48 -95 0 -33 20 -32 54 4 19 20 41 31
69 34 23 3 56 9 74 12 31 7 31 7 37 -46 3 -30 7 -106 9 -169 2 -115 2 -115
-51 -130 -29 -8 -52 -21 -52 -28 0 -36 62 -56 88 -30 24 24 33 -12 26 -102 -4
-47 -7 -86 -9 -88 -1 -1 -28 -7 -61 -13 -73 -14 -116 -35 -112 -56 4 -23 55
-38 81 -24 21 10 131 24 187 23 14 0 53 -3 87 -7 60 -7 93 2 93 25 0 11 -47
27 -122 41 -68 13 -68 13 -69 48 0 20 -1 54 -2 76 0 22 3 55 7 72 7 31 10 33
55 33 49 0 71 13 71 41 0 20 -31 32 -85 33 -39 1 -40 1 -46 46 -4 25 -7 95 -8
156 -2 108 -1 112 21 118 43 11 73 6 86 -14 7 -11 21 -20 31 -20 10 0 21 -8
24 -17 8 -26 40 -76 56 -89 11 -8 4 -13 -31 -23 -49 -14 -80 -47 -52 -58 8 -3
46 0 82 6 37 7 80 14 96 17 28 4 85 56 86 79 0 6 13 24 28 40 15 17 34 46 42
65 18 42 20 177 4 211 -7 13 -19 40 -28 59 -33 70 -56 103 -83 121 -15 11 -32
19 -36 19 -5 0 -27 -20 -50 -44z m86 -76 c34 -40 27 -61 -28 -79 -27 -9 -56
-20 -62 -24 -19 -12 -16 7 8 50 23 41 48 73 58 73 4 0 14 -9 24 -20z m-397
-123 c46 -49 48 -64 12 -76 -48 -17 -138 -14 -138 4 0 8 9 19 20 25 11 6 20
16 20 23 0 19 29 57 44 57 7 0 26 -15 42 -33z m462 -61 c-3 -20 -9 -23 -130
-56 -69 -18 -78 -17 -78 8 0 17 49 62 68 62 6 0 12 5 12 10 0 6 9 10 20 10 11
0 20 4 20 9 0 6 17 11 38 13 40 3 56 -15 50 -56z m-18 -92 c0 -18 -39 -68 -67
-85 -28 -18 -38 -19 -68 -9 -35 12 -45 32 -23 47 15 10 128 50 146 52 6 0 12
-2 12 -5z"/>
<path d="M1220 1085 c-5 -14 -15 -27 -22 -29 -108 -32 -127 -40 -160 -72 -50
-47 -64 -98 -50 -188 11 -70 11 -70 -28 -115 -39 -48 -141 -146 -198 -194 -31
-25 -38 -57 -13 -57 20 0 87 47 155 110 63 58 106 90 121 90 12 0 38 -54 50
-107 17 -70 18 -120 2 -194 -14 -63 -35 -99 -88 -149 -35 -34 -48 -42 -149
-101 -46 -26 -65 -59 -35 -59 17 0 138 62 200 102 41 27 96 78 128 117 28 35
42 113 29 159 -7 22 -12 57 -12 79 0 22 -7 62 -15 89 -8 27 -15 52 -15 56 0 4
24 14 53 22 76 22 120 54 136 101 21 62 14 180 -12 213 -6 7 -9 34 -8 59 1 36
-4 52 -21 70 -27 29 -36 29 -48 -2z m17 -133 c7 -9 13 -23 13 -31 0 -8 5 -29
12 -47 15 -42 -4 -105 -46 -151 -38 -43 -99 -46 -140 -8 -24 22 -26 31 -26 99
0 71 2 78 30 105 63 60 126 73 157 33z"/>
<path d="M1135 886 c-11 -8 -16 -23 -13 -41 2 -25 8 -30 34 -33 25 -2 33 2 42
24 9 19 10 30 2 39 -16 19 -47 24 -65 11z"/>
<path d="M250 682 c0 -4 -12 -13 -27 -20 -16 -7 -41 -30 -58 -52 -16 -21 -40
-44 -53 -51 -43 -24 -17 -68 32 -53 11 4 34 22 51 40 16 19 50 45 74 58 52 27
63 62 24 77 -30 11 -43 11 -43 1z"/>
<path d="M931 431 c-23 -23 -41 -46 -41 -52 0 -7 -15 -33 -34 -59 -45 -62 -49
-84 -16 -88 19 -3 39 11 97 74 61 64 73 83 73 111 0 18 1 36 3 41 1 4 -8 8
-20 10 -15 2 -35 -10 -62 -37z"/>
<path d="M530 329 c0 -39 106 -159 140 -159 23 0 28 43 8 64 -7 7 -33 36 -57
64 -47 57 -91 71 -91 31z"/>
<path d="M209 297 c-58 -41 -103 -93 -95 -112 6 -17 57 -20 84 -6 10 5 39 29
65 54 36 33 48 51 45 68 -5 36 -44 34 -99 -4z"/>
</g>
</svg>
