<svg version="1.0" xmlns="http://www.w3.org/2000/svg"
 width="71.000000pt" height="87.000000pt" viewBox="0 0 71.000000 87.000000"
 preserveAspectRatio="xMidYMid meet">
<metadata>
Created by potrace 1.15, written by Peter Selinger 2001-2017
</metadata>
<g transform="translate(0.000000,87.000000) scale(0.100000,-0.100000)"
fill="#000000" stroke="none">
<path d="M190 693 c0 -5 11 -20 25 -33 22 -21 25 -31 25 -100 0 -76 0 -76 -44
-89 -51 -15 -88 -47 -65 -56 8 -3 42 6 77 20 99 40 132 33 132 -29 0 -17 -11
-27 -42 -42 -38 -17 -48 -29 -86 -104 -24 -47 -59 -101 -78 -120 -37 -39 -42
-50 -20 -50 20 0 101 90 126 141 29 57 59 89 83 89 17 0 18 -5 12 -43 -9 -57
-46 -136 -89 -193 -39 -51 -44 -64 -21 -64 34 0 155 203 155 261 0 41 23 54
56 33 26 -18 26 -20 20 -92 -5 -61 -3 -79 14 -112 17 -33 66 -80 84 -80 14 0
4 28 -20 61 -41 54 -45 73 -33 151 10 66 10 71 -12 94 -13 13 -40 29 -61 36
-35 10 -38 14 -38 49 0 38 11 49 52 49 30 0 73 35 92 74 22 46 20 59 -10 95
-25 30 -28 31 -112 32 -82 0 -149 8 -199 24 -13 4 -23 3 -23 -2z m266 -78 c26
-6 37 -40 21 -66 -17 -27 -80 -49 -142 -49 -55 0 -55 0 -55 63 0 64 0 64 78
60 42 -2 87 -6 98 -8z"/>
<path d="M347 583 c-14 -13 -6 -43 13 -53 24 -13 40 -6 40 19 0 30 -35 53 -53
34z"/>
</g>
</svg>
