<svg version="1.0" xmlns="http://www.w3.org/2000/svg"
 width="76.000000pt" height="121.000000pt" viewBox="0 0 76.000000 121.000000"
 preserveAspectRatio="xMidYMid meet">
<metadata>
Created by potrace 1.15, written by Peter Selinger 2001-2017
</metadata>
<g transform="translate(0.000000,121.000000) scale(0.100000,-0.100000)"
fill="#000000" stroke="none">
<path d="M212 959 c-69 -14 -92 -61 -92 -186 0 -80 4 -104 20 -131 11 -18 20
-34 20 -36 0 -2 -29 -18 -65 -36 -61 -31 -78 -51 -55 -65 6 -3 41 10 80 29 66
34 100 38 100 12 0 -14 -138 -156 -152 -156 -11 0 -10 -37 1 -44 4 -3 45 29
90 71 45 41 83 74 85 72 2 -2 7 -18 10 -34 6 -26 1 -37 -36 -76 -84 -88 -105
-117 -148 -211 -13 -27 -8 -58 8 -58 5 0 26 33 47 72 41 78 102 157 123 158
16 0 16 -51 -3 -185 -9 -59 -13 -111 -10 -114 3 -3 14 0 23 5 20 13 28 63 37
239 7 113 15 148 32 132 7 -8 6 -265 -2 -277 -8 -13 6 -40 20 -40 20 0 23 22
25 140 1 58 2 131 3 163 2 45 -2 63 -16 78 -15 16 -22 18 -33 8 -17 -14 -16
-15 -33 36 -7 22 -23 50 -34 62 -14 16 -17 26 -10 35 6 7 17 32 24 56 12 42
12 42 61 42 45 0 49 2 46 23 -2 18 -9 22 -41 22 -43 0 -61 19 -45 48 6 12 17
17 28 14 11 -3 27 1 37 8 27 20 0 48 -39 39 -27 -5 -29 -4 -26 17 2 19 11 25
41 30 44 7 52 13 43 34 -4 12 -19 15 -68 13 -35 -1 -78 -5 -96 -9z m35 -56 c6
-16 -25 -43 -48 -43 -25 0 -24 15 2 41 21 21 40 22 46 2z m-7 -112 c0 -25 -4
-29 -32 -34 -18 -2 -39 0 -45 5 -31 25 -2 57 50 58 23 0 27 -4 27 -29z m-10
-89 c0 -20 -27 -62 -39 -62 -5 0 -14 14 -21 31 -11 26 -11 32 1 40 25 16 59
11 59 -9z"/>
<path d="M387 918 c-9 -6 -4 -15 17 -32 16 -13 26 -28 23 -32 -2 -5 -8 -76
-12 -159 -4 -82 -8 -152 -10 -155 -3 -5 -8 -370 -6 -417 1 -25 26 -31 34 -9 3
8 6 119 7 248 1 128 4 251 6 273 3 22 6 63 8 90 6 98 18 155 31 155 8 0 16 -4
20 -9 3 -6 1 -81 -5 -168 -10 -149 -14 -489 -6 -598 2 -27 4 -58 5 -67 1 -11
9 -18 22 -18 21 0 22 1 14 180 -6 158 -5 179 8 174 8 -3 37 -1 65 4 63 11 60
20 69 -196 5 -144 8 -162 23 -162 11 0 20 11 24 27 8 28 -2 320 -11 363 -3 14
-8 68 -10 121 -4 81 -2 101 13 124 27 42 43 142 28 184 -17 50 -40 62 -104 59
-43 -2 -56 -7 -58 -20 -3 -15 4 -18 41 -18 60 0 82 -24 78 -88 -3 -63 -14 -72
-49 -39 -15 15 -33 27 -40 27 -7 0 -12 5 -12 10 0 6 -9 10 -19 10 -25 0 -32
21 -25 73 4 30 2 46 -7 54 -17 13 -145 22 -162 11z m215 -203 c14 -13 30 -34
33 -46 7 -22 -12 -69 -28 -69 -5 0 -21 -9 -37 -20 -28 -20 -28 -20 -32 3 -2
12 -2 52 0 90 5 76 18 85 64 42z m61 -214 c2 -72 -5 -81 -75 -81 -42 0 -48 3
-54 25 -8 32 3 75 19 75 6 1 30 13 52 29 22 16 43 25 48 21 4 -3 8 -34 10 -69z"/>
</g>
</svg>
