<svg version="1.0" xmlns="http://www.w3.org/2000/svg"
 width="37.000000pt" height="93.000000pt" viewBox="0 0 37.000000 93.000000"
 preserveAspectRatio="xMidYMid meet">
<metadata>
Created by potrace 1.15, written by Peter Selinger 2001-2017
</metadata>
<g transform="translate(0.000000,93.000000) scale(0.100000,-0.100000)"
fill="#000000" stroke="none">
<path d="M190 706 c0 -55 -5 -94 -15 -112 -19 -36 -19 -52 -1 -86 14 -27 10
-60 -15 -110 -20 -40 -18 -318 2 -318 4 0 9 48 11 108 4 93 26 214 44 231 3 3
10 -2 15 -12 9 -15 39 -25 39 -12 0 3 -9 24 -19 45 -11 22 -15 42 -10 46 12 7
12 111 0 118 -5 4 -9 37 -10 76 0 64 -15 110 -33 110 -5 0 -8 -38 -8 -84z m20
-168 c0 -16 -3 -19 -11 -11 -6 6 -8 16 -5 22 11 17 16 13 16 -11z"/>
</g>
</svg>
