<svg version="1.0" xmlns="http://www.w3.org/2000/svg"
 width="37.000000pt" height="95.000000pt" viewBox="0 0 37.000000 95.000000"
 preserveAspectRatio="xMidYMid meet">
<metadata>
Created by potrace 1.15, written by Peter Selinger 2001-2017
</metadata>
<g transform="translate(0.000000,95.000000) scale(0.100000,-0.100000)"
fill="#000000" stroke="none">
<path d="M229 738 c-1 -7 0 -41 1 -74 1 -46 -4 -72 -19 -102 -22 -44 -28 -97
-11 -107 18 -11 11 -55 -13 -79 -48 -48 -99 -116 -95 -127 2 -6 31 17 65 51
65 67 89 72 78 17 -7 -34 -39 -138 -61 -200 -16 -44 -18 -60 -4 -52 8 5 27 42
50 100 4 11 15 36 23 55 26 60 35 108 30 149 -4 27 0 52 12 77 16 34 16 39 0
80 -10 28 -17 71 -16 115 1 70 -10 109 -29 109 -6 0 -11 -6 -11 -12z m30 -269
c-19 -11 -29 -1 -29 30 0 42 13 47 28 10 11 -26 11 -34 1 -40z"/>
</g>
</svg>
