<svg version="1.0" xmlns="http://www.w3.org/2000/svg"
 width="77.000000pt" height="103.000000pt" viewBox="0 0 77.000000 103.000000"
 preserveAspectRatio="xMidYMid meet">
<metadata>
Created by potrace 1.15, written by Peter Selinger 2001-2017
</metadata>
<g transform="translate(0.000000,103.000000) scale(0.100000,-0.100000)"
fill="#000000" stroke="none">
<path d="M637 885 c-7 -51 -46 -132 -74 -155 -10 -8 -38 -25 -63 -37 -97 -46
-181 -83 -190 -83 -12 0 -49 -20 -68 -37 -7 -7 -17 -13 -22 -13 -12 0 -70 -57
-70 -69 0 -6 -9 -25 -20 -43 -37 -62 -17 -132 47 -166 48 -26 131 -3 191 54
32 29 24 41 -15 21 -34 -18 -108 -25 -140 -13 -19 6 -23 15 -23 46 0 21 6 50
14 65 13 26 75 75 94 75 5 0 17 9 27 20 10 11 23 19 29 16 6 -2 25 4 41 14 17
10 45 21 64 25 33 7 33 7 27 -101 -3 -60 -9 -135 -12 -168 -4 -36 -2 -62 5
-69 6 -6 11 -40 11 -76 1 -42 6 -73 15 -85 22 -29 35 -10 47 70 5 38 17 93 25
122 16 57 7 105 -23 116 -9 3 -12 15 -9 33 2 15 7 67 10 115 7 86 7 87 41 103
19 9 34 22 34 30 0 8 4 15 9 15 10 0 34 54 37 84 7 64 7 114 0 124 -16 26 -33
11 -39 -33z"/>
</g>
</svg>
