<svg version="1.0" xmlns="http://www.w3.org/2000/svg"
 width="41.000000pt" height="105.000000pt" viewBox="0 0 41.000000 105.000000"
 preserveAspectRatio="xMidYMid meet">
<metadata>
Created by potrace 1.15, written by Peter Selinger 2001-2017
</metadata>
<g transform="translate(0.000000,105.000000) scale(0.100000,-0.100000)"
fill="#000000" stroke="none">
<path d="M170 768 c0 -13 5 -42 10 -66 9 -36 7 -49 -11 -85 -12 -23 -25 -44
-29 -47 -11 -8 -50 -87 -50 -103 0 -7 11 -28 24 -46 14 -18 31 -56 39 -85 8
-28 25 -85 37 -127 14 -46 20 -87 16 -102 -9 -36 10 -43 30 -11 28 42 22 137
-15 224 -17 40 -31 76 -31 81 0 14 34 11 66 -6 39 -20 54 -19 54 4 0 10 3 38
6 63 4 32 2 48 -8 59 -30 30 -70 129 -75 185 -5 58 -19 84 -47 84 -10 0 -16
-9 -16 -22z m56 -203 c4 -8 -1 -30 -10 -49 -9 -19 -16 -40 -16 -48 0 -7 -4
-19 -9 -27 -8 -12 -13 -7 -26 21 -17 34 -17 36 10 76 29 45 42 51 51 27z m51
-99 c-4 -9 -11 -16 -17 -16 -11 0 -14 33 -3 43 11 11 26 -10 20 -27z"/>
</g>
</svg>
