<svg version="1.0" xmlns="http://www.w3.org/2000/svg"
 width="101.000000pt" height="121.000000pt" viewBox="0 0 101.000000 121.000000"
 preserveAspectRatio="xMidYMid meet">
<metadata>
Created by potrace 1.15, written by Peter Selinger 2001-2017
</metadata>
<g transform="translate(0.000000,121.000000) scale(0.100000,-0.100000)"
fill="#000000" stroke="none">
<path d="M877 1113 c-2 -5 -10 -28 -17 -53 -14 -47 -38 -88 -77 -130 -23 -24
-26 -25 -162 -24 -77 1 -147 6 -158 12 -11 6 -72 12 -134 13 -88 2 -121 -2
-143 -14 -37 -20 -96 -75 -97 -90 0 -7 -3 -21 -6 -32 -13 -48 -1 -115 29 -157
18 -27 39 -31 66 -15 14 10 16 47 2 47 -5 0 -10 7 -10 15 0 8 -5 24 -11 34
-16 25 -5 60 32 100 28 31 36 34 81 32 28 -1 58 -6 67 -11 10 -5 40 -11 67
-14 91 -8 83 22 85 -329 1 -172 2 -332 1 -356 -2 -65 41 -99 54 -44 4 16 10
33 14 38 7 9 15 97 26 295 3 47 9 108 13 135 14 83 13 147 -1 156 -10 7 -10
11 0 21 6 6 12 18 12 26 0 26 25 37 90 39 35 1 66 7 68 12 2 6 10 11 19 11 15
0 85 67 108 104 15 25 28 127 19 161 -6 24 -28 34 -37 18z"/>
</g>
</svg>
