<svg version="1.0" xmlns="http://www.w3.org/2000/svg"
 width="45.000000pt" height="83.000000pt" viewBox="0 0 45.000000 83.000000"
 preserveAspectRatio="xMidYMid meet">
<metadata>
Created by potrace 1.15, written by Peter Selinger 2001-2017
</metadata>
<g transform="translate(0.000000,83.000000) scale(0.100000,-0.100000)"
fill="#000000" stroke="none">
<path d="M215 583 c-11 -82 -14 -90 -58 -136 -23 -25 -48 -62 -56 -82 -11 -33
-10 -42 10 -93 33 -82 44 -87 89 -43 24 22 30 37 30 70 0 40 -14 77 -35 94 -6
6 -6 10 3 14 6 2 12 9 12 15 0 5 7 16 15 24 12 13 19 10 49 -23 20 -21 35 -42
35 -48 0 -5 -8 -35 -19 -65 -20 -57 -27 -223 -11 -264 7 -19 8 -19 15 0 4 10
10 57 13 104 5 97 18 145 44 174 35 37 25 71 -41 138 -58 59 -60 62 -60 114 0
40 -4 54 -14 54 -10 0 -17 -16 -21 -47z m-37 -238 c16 -35 15 -52 -3 -59 -19
-7 -39 37 -30 65 9 26 20 24 33 -6z"/>
<path d="M315 560 c3 -5 8 -10 11 -10 2 0 4 5 4 10 0 6 -5 10 -11 10 -5 0 -7
-4 -4 -10z"/>
</g>
</svg>
