<svg version="1.0" xmlns="http://www.w3.org/2000/svg"
 width="55.000000pt" height="111.000000pt" viewBox="0 0 55.000000 111.000000"
 preserveAspectRatio="xMidYMid meet">
<metadata>
Created by potrace 1.15, written by Peter Selinger 2001-2017
</metadata>
<g transform="translate(0.000000,111.000000) scale(0.100000,-0.100000)"
fill="#000000" stroke="none">
<path d="M317 870 c-3 -8 -8 -40 -10 -71 -4 -44 -11 -62 -32 -83 -14 -14 -23
-31 -20 -36 3 -6 -2 -10 -12 -10 -10 -1 -40 -20 -66 -44 -49 -44 -49 -44 -42
-107 3 -35 9 -151 11 -256 3 -106 8 -193 13 -193 16 0 34 80 29 135 -3 31 -1
58 3 61 17 10 19 91 4 154 -30 125 -34 109 47 194 41 42 77 76 80 76 3 0 11
-19 17 -43 12 -40 10 -48 -19 -112 -25 -55 -29 -73 -21 -94 5 -14 11 -44 14
-66 5 -46 45 -145 58 -145 5 0 9 9 9 20 0 10 11 30 25 44 14 14 25 29 25 33 0
4 10 31 22 60 20 48 20 56 8 95 -8 24 -19 48 -25 55 -30 36 -33 41 -29 45 6 7
-22 92 -48 142 -5 10 -12 44 -15 75 -6 64 -18 96 -26 71z m76 -357 c3 -10 13
-29 22 -43 16 -24 16 -28 -10 -84 -31 -68 -36 -65 -58 34 -14 56 -13 66 0 87
18 27 38 30 46 6z"/>
</g>
</svg>
