<svg version="1.0" xmlns="http://www.w3.org/2000/svg"
 width="41.000000pt" height="91.000000pt" viewBox="0 0 41.000000 91.000000"
 preserveAspectRatio="xMidYMid meet">
<metadata>
Created by potrace 1.15, written by Peter Selinger 2001-2017
</metadata>
<g transform="translate(0.000000,91.000000) scale(0.100000,-0.100000)"
fill="#000000" stroke="none">
<path d="M217 673 c-4 -3 -7 -39 -7 -80 0 -68 -2 -76 -30 -104 -16 -17 -39
-51 -51 -76 -22 -45 -22 -45 1 -94 13 -27 27 -49 30 -49 10 0 50 94 50 115 0
9 -5 25 -10 36 -25 46 48 56 77 10 12 -19 10 -31 -17 -126 -13 -47 -22 -193
-11 -199 11 -7 21 27 21 72 0 40 39 203 51 217 13 14 11 49 -5 70 -8 11 -12
25 -9 31 3 8 -6 14 -24 16 -28 3 -28 4 -31 75 -3 66 -18 104 -35 86z m-47
-298 c0 -8 -4 -15 -10 -15 -5 0 -10 7 -10 15 0 8 5 15 10 15 6 0 10 -7 10 -15z"/>
</g>
</svg>
