<svg version="1.0" xmlns="http://www.w3.org/2000/svg"
 width="68.000000pt" height="88.000000pt" viewBox="0 0 68.000000 88.000000"
 preserveAspectRatio="xMidYMid meet">
<metadata>
Created by potrace 1.15, written by Peter Selinger 2001-2017
</metadata>
<g transform="translate(0.000000,88.000000) scale(0.100000,-0.100000)"
fill="#000000" stroke="none">
<path d="M277 620 c-158 -27 -228 -133 -214 -322 4 -43 13 -90 21 -105 34 -67
105 -96 168 -70 44 19 62 42 82 104 17 50 16 53 -3 92 -32 62 -80 77 -141 46
-43 -22 -38 -38 9 -30 53 9 81 -7 81 -46 0 -99 -82 -146 -134 -76 -43 58 -26
269 26 308 44 34 121 49 247 49 108 0 126 2 148 20 14 11 32 20 39 20 8 0 14
5 14 10 0 12 -271 12 -343 0z"/>
<path d="M445 513 c-4 -26 -8 -53 -10 -59 -2 -6 -31 -14 -65 -17 -34 -3 -67
-10 -72 -15 -17 -17 31 -35 79 -29 49 5 47 9 58 -103 8 -80 41 -144 106 -205
81 -76 108 -54 38 30 -91 110 -90 108 -95 194 -4 80 -4 80 34 87 45 8 84 32
76 46 -4 6 -29 8 -60 5 -53 -5 -53 -5 -56 50 -4 72 -24 82 -33 16z"/>
</g>
</svg>
