<svg version="1.0" xmlns="http://www.w3.org/2000/svg"
 width="69.000000pt" height="86.000000pt" viewBox="0 0 69.000000 86.000000"
 preserveAspectRatio="xMidYMid meet">
<metadata>
Created by potrace 1.15, written by Peter Selinger 2001-2017
</metadata>
<g transform="translate(0.000000,86.000000) scale(0.100000,-0.100000)"
fill="#000000" stroke="none">
<path d="M275 665 c-99 -15 -94 -13 -71 -26 26 -16 276 10 276 28 0 16 -91 15
-205 -2z"/>
<path d="M379 606 c-2 -2 -60 -6 -129 -8 -117 -3 -125 -4 -125 -23 0 -17 6
-20 43 -17 37 3 42 1 42 -18 0 -29 44 -70 75 -70 17 0 25 -5 22 -12 -2 -8 -18
-12 -38 -10 -68 5 -76 10 -83 47 -9 47 -33 46 -42 -2 -6 -32 -3 -40 20 -60 22
-19 39 -23 92 -23 50 0 64 -3 64 -15 0 -11 -12 -15 -45 -15 -67 0 -92 -16
-100 -63 -4 -22 -20 -60 -36 -85 -31 -48 -35 -67 -19 -77 13 -8 50 13 50 28 0
7 5 19 10 27 8 13 12 12 25 -7 17 -24 40 -30 50 -13 4 6 1 17 -5 25 -20 24 -4
45 35 45 32 0 35 -2 35 -30 0 -40 25 -51 99 -44 50 6 61 4 61 -8 0 -18 -64
-28 -176 -28 -92 0 -129 -13 -144 -51 -10 -23 -10 -36 -1 -56 12 -26 12 -26
172 -21 148 4 162 6 182 26 21 22 21 22 -3 23 -14 1 -86 0 -161 -1 -91 -1
-139 2 -143 9 -10 15 1 17 139 31 148 14 185 28 185 69 0 39 -11 45 -100 51
-58 4 -75 8 -75 20 0 11 16 16 60 20 33 3 70 11 82 18 23 13 49 75 38 92 -3 5
-44 10 -91 10 -68 0 -84 3 -84 15 0 11 11 15 43 15 59 0 119 41 115 77 -4 35
-26 41 -37 10 -9 -24 -54 -47 -92 -47 -31 0 -21 14 21 32 34 14 40 21 40 47 0
30 2 31 41 31 33 0 40 3 37 18 -3 14 -16 18 -74 20 -38 1 -72 1 -75 -2z m19
-58 c-11 -16 -31 -25 -63 -31 -52 -9 -75 2 -75 34 0 17 8 19 76 19 76 0 76 0
62 -22z m-70 -220 c-3 -20 -10 -23 -60 -26 -36 -2 -58 1 -58 8 0 5 1 10 3 10
1 0 20 7 42 15 59 21 77 19 73 -7z m142 8 c0 -18 -22 -26 -71 -26 -26 0 -39 4
-39 13 0 22 11 27 62 27 34 0 48 -4 48 -14z"/>
</g>
</svg>
