<svg version="1.0" xmlns="http://www.w3.org/2000/svg"
 width="83.000000pt" height="163.000000pt" viewBox="0 0 83.000000 163.000000"
 preserveAspectRatio="xMidYMid meet">
<metadata>
Created by potrace 1.15, written by Peter Selinger 2001-2017
</metadata>
<g transform="translate(0.000000,163.000000) scale(0.100000,-0.100000)"
fill="#000000" stroke="none">
<path d="M650 1521 c0 -5 -9 -13 -20 -16 -11 -3 -20 -11 -20 -16 0 -6 -17 -36
-38 -67 -21 -31 -43 -77 -49 -102 -15 -62 3 -142 45 -199 37 -50 38 -57 47
-161 15 -183 17 -364 4 -405 -16 -50 -46 -95 -64 -95 -13 0 -50 63 -67 115 -6
17 -14 68 -19 115 -5 47 -12 108 -17 135 -5 33 -3 65 5 94 16 55 16 110 0 137
-20 34 -51 70 -70 80 -15 9 -14 13 18 44 33 32 36 33 53 17 43 -39 72 -2 32
41 -11 12 -20 28 -20 36 0 7 -7 17 -16 20 -19 7 -42 -17 -121 -123 -9 -13 -12
-8 -18 29 -3 25 -5 72 -3 105 3 60 3 60 40 63 90 8 53 66 -38 60 -48 -3 -48
-3 -57 -48 -6 -27 -5 -80 1 -135 5 -49 8 -93 5 -98 -8 -14 -25 5 -48 57 -42
93 -94 124 -116 69 -6 -16 -15 -36 -20 -45 -5 -10 -9 -31 -9 -48 0 -39 23 -39
47 0 9 17 20 30 23 30 3 0 19 -23 37 -50 32 -49 32 -49 11 -96 -19 -44 -20
-53 -8 -99 7 -27 19 -58 28 -68 10 -11 17 -43 19 -88 2 -39 12 -103 23 -142
10 -40 22 -93 26 -119 6 -47 6 -47 -61 -41 -62 6 -67 5 -63 -13 2 -12 13 -20
28 -22 52 -6 99 -32 100 -53 0 -4 -20 -10 -45 -13 -24 -4 -47 -12 -51 -17 -11
-19 18 -39 57 -39 22 0 39 -5 39 -10 0 -16 -36 -43 -72 -54 -45 -15 -49 -42
-8 -51 19 -4 36 -3 43 4 6 6 19 11 28 11 17 0 89 72 89 90 0 6 11 10 25 10 30
0 113 19 137 31 10 5 23 9 29 9 24 0 98 66 115 103 20 44 20 68 3 277 -14 175
-17 291 -8 335 10 46 34 98 52 114 10 7 17 19 17 26 0 6 11 34 25 61 14 27 25
57 25 67 0 19 -26 23 -32 5 -4 -10 -8 -9 -19 2 -21 21 -32 49 -34 87 -2 32
-20 63 -36 63 -5 0 -9 -4 -9 -9z m12 -153 c22 -25 33 -62 24 -83 -10 -26 -25
-16 -46 32 -29 66 -16 95 22 51z m-53 -104 c36 -52 37 -57 16 -74 -26 -21 -55
19 -55 75 0 25 2 45 4 45 3 0 18 -20 35 -46z m-222 -196 c13 -13 23 -33 23
-50 0 -28 0 -28 -95 -28 -80 0 -95 3 -95 16 0 68 114 111 167 62z m23 -135 c0
-5 -11 -21 -23 -37 -17 -21 -32 -29 -55 -29 -33 0 -75 29 -69 47 6 18 147 36
147 19z m-48 -114 c23 9 27 7 37 -17 19 -50 18 -94 -4 -106 -10 -6 -25 -17
-33 -24 -17 -15 -53 -35 -56 -30 -12 15 -37 143 -32 162 5 22 9 24 34 15 19
-6 38 -6 54 0z m72 -241 c9 -29 26 -72 38 -96 12 -23 19 -45 15 -48 -3 -3 -33
-8 -67 -11 -78 -7 -89 5 -90 97 0 62 2 66 33 87 17 12 37 22 43 22 7 1 19 -23
28 -51z"/>
<path d="M504 265 c-4 -8 -4 -21 -1 -29 7 -18 -21 -26 -89 -26 -45 0 -52 3
-62 25 -17 37 -42 32 -43 -7 -5 -90 -1 -126 16 -151 32 -49 113 -85 130 -57 3
6 13 10 22 10 20 0 72 57 80 88 8 33 -6 145 -20 154 -18 12 -27 10 -33 -7z
m-10 -101 c21 -8 20 -33 -1 -56 -11 -12 -30 -18 -57 -18 -50 0 -65 9 -68 40
-2 18 3 25 22 31 32 9 84 11 104 3z"/>
<path d="M730 100 c0 -5 5 -10 10 -10 6 0 10 5 10 10 0 6 -4 10 -10 10 -5 0
-10 -4 -10 -10z"/>
</g>
</svg>
