<svg version="1.0" xmlns="http://www.w3.org/2000/svg"
 width="87.000000pt" height="171.000000pt" viewBox="0 0 87.000000 171.000000"
 preserveAspectRatio="xMidYMid meet">
<metadata>
Created by potrace 1.15, written by Peter Selinger 2001-2017
</metadata>
<g transform="translate(0.000000,171.000000) scale(0.100000,-0.100000)"
fill="#000000" stroke="none">
<path d="M714 1563 c-11 -35 -26 -60 -55 -94 -37 -44 -59 -90 -59 -126 0 -43
18 -97 40 -123 21 -24 20 -70 -2 -158 -7 -29 -9 -116 -5 -255 3 -117 3 -224 0
-239 -12 -60 -86 -105 -187 -115 -59 -5 -64 -4 -71 16 -3 12 -15 21 -26 21
-10 0 -19 4 -19 8 0 28 -150 43 -182 18 -21 -16 -13 -26 20 -26 32 0 102 -20
127 -37 17 -11 13 -13 -37 -13 -58 0 -88 -7 -88 -19 0 -14 51 -31 90 -31 78 0
28 -29 -78 -46 -82 -13 -61 -48 24 -40 55 5 129 37 155 67 9 11 24 19 33 19 8
0 35 4 58 10 24 5 60 12 80 15 24 4 53 20 83 47 78 70 77 65 73 361 -1 185 1
273 10 300 7 20 17 54 23 75 7 20 36 73 66 116 55 81 62 111 21 101 -19 -5
-27 1 -43 31 -11 21 -20 56 -20 82 0 47 -20 69 -31 35z m26 -177 c7 -14 10
-33 6 -42 -6 -15 -9 -16 -20 -3 -7 8 -16 26 -20 42 -8 35 15 37 34 3z m-40
-96 c7 -5 6 -10 -3 -18 -11 -9 -17 -8 -29 6 -25 28 -37 76 -26 97 9 16 13 11
29 -30 10 -27 23 -51 29 -55z"/>
<path d="M376 1493 c-62 -22 -64 -26 -58 -98 4 -55 2 -65 -11 -65 -9 0 -19 5
-22 10 -3 6 -17 10 -31 10 -13 0 -24 4 -24 9 0 12 -27 22 -44 15 -7 -3 -19
-17 -27 -32 -7 -15 -30 -53 -51 -85 -46 -71 -56 -102 -34 -110 19 -8 38 11 73
71 40 68 58 86 80 77 10 -5 23 -7 30 -6 6 1 14 -3 18 -9 3 -5 14 -10 25 -10
11 0 22 -11 28 -29 10 -27 8 -29 -42 -56 -63 -34 -82 -50 -101 -88 -24 -49
-18 -85 24 -146 39 -57 47 -85 57 -199 4 -41 2 -68 -5 -75 -6 -6 -11 -17 -11
-25 0 -7 -7 -20 -15 -29 -9 -8 -15 -23 -13 -32 3 -13 17 -16 78 -15 147 2 213
8 226 22 17 17 9 32 -15 32 -25 0 -41 66 -41 170 0 75 2 84 28 110 38 39 52
65 52 98 0 15 5 33 11 39 34 34 -40 135 -115 155 -40 10 -45 15 -40 32 6 18 5
19 -10 7 -14 -12 -16 -11 -16 7 0 15 14 28 50 46 50 25 50 25 87 -9 41 -37 58
-43 66 -22 11 30 -70 127 -107 127 -13 0 -26 -6 -29 -14 -5 -11 -60 -46 -74
-46 -1 0 -3 20 -3 44 0 46 10 56 53 56 40 0 127 24 131 37 3 7 3 20 0 28 -8
20 -123 19 -178 -2z m75 -358 c16 -9 27 -20 24 -25 -3 -6 0 -7 8 -4 8 3 17 -2
21 -12 9 -23 5 -25 -28 -16 -34 9 -204 -12 -219 -27 -17 -17 -27 -13 -27 8 0
22 58 71 83 71 9 0 19 5 22 10 9 15 82 12 116 -5z m44 -125 c3 -5 -4 -18 -16
-29 -17 -16 -26 -18 -36 -10 -10 9 -13 8 -13 -5 0 -33 -70 -42 -132 -18 -56
23 -41 51 32 62 59 9 160 9 165 0z m-97 -167 c3 -27 -2 -35 -35 -57 -21 -14
-41 -26 -45 -26 -5 0 -8 22 -8 49 0 28 -5 53 -10 56 -22 13 1 21 47 16 45 -6
48 -8 51 -38z m29 -197 c-5 -12 -21 -16 -63 -16 -56 0 -56 0 -49 38 4 20 10
38 13 40 4 2 23 11 42 20 35 17 35 17 49 -25 7 -23 11 -49 8 -57z"/>
<path d="M452 1230 c0 -14 2 -19 5 -12 2 6 2 18 0 25 -3 6 -5 1 -5 -13z"/>
<path d="M535 758 c-9 -22 4 -43 17 -30 7 7 7 16 0 29 -10 17 -11 17 -17 1z"/>
<path d="M710 591 c0 -6 5 -13 10 -16 6 -3 10 1 10 9 0 9 -4 16 -10 16 -5 0
-10 -4 -10 -9z"/>
<path d="M356 274 c-11 -30 -6 -142 9 -177 21 -51 75 -89 133 -94 41 -3 51 0
79 25 28 25 34 40 42 92 9 69 7 103 -8 143 -17 45 -51 29 -51 -23 0 -16 -9
-18 -72 -16 -70 1 -73 2 -77 26 -5 39 -43 55 -55 24z m214 -131 c0 -30 -36
-79 -60 -84 -34 -7 -70 12 -86 46 -9 20 -15 37 -13 38 2 1 13 7 24 14 11 6 46
12 78 12 56 1 57 0 57 -26z"/>
</g>
</svg>
