<svg version="1.0" xmlns="http://www.w3.org/2000/svg"
 width="68.000000pt" height="84.000000pt" viewBox="0 0 68.000000 84.000000"
 preserveAspectRatio="xMidYMid meet">
<metadata>
Created by potrace 1.15, written by Peter Selinger 2001-2017
</metadata>
<g transform="translate(0.000000,84.000000) scale(0.100000,-0.100000)"
fill="#000000" stroke="none">
<path d="M317 624 c-4 -4 -7 -33 -7 -65 0 -65 -1 -66 -90 -71 -37 -3 -45 -6
-45 -23 0 -18 8 -20 68 -23 67 -3 67 -3 67 -66 0 -63 0 -63 -72 -69 -39 -3
-75 -4 -80 0 -5 3 -8 55 -7 117 2 61 0 117 -5 124 -10 16 -45 15 -52 -1 -3 -8
0 -110 5 -226 11 -243 18 -264 86 -288 50 -17 196 -19 254 -3 59 16 98 59 105
113 3 23 8 131 10 240 5 177 4 198 -10 204 -22 8 -44 -22 -44 -62 0 -37 -8
-49 -24 -36 -6 5 -32 11 -56 13 -45 3 -45 3 -50 63 -4 51 -8 60 -25 63 -12 2
-24 0 -28 -4z m173 -246 c0 -68 0 -68 -55 -68 -55 0 -55 0 -55 64 0 71 2 73
67 72 43 -1 43 -1 43 -68z m-83 -128 c84 0 84 0 78 -57 -10 -87 -12 -91 -58
-104 -86 -24 -232 -27 -254 -5 -4 3 -8 42 -11 85 -4 80 -4 80 34 84 22 3 59 3
83 1 24 -2 82 -4 128 -4z"/>
</g>
</svg>
