<svg version="1.0" xmlns="http://www.w3.org/2000/svg"
 width="53.000000pt" height="73.000000pt" viewBox="0 0 53.000000 73.000000"
 preserveAspectRatio="xMidYMid meet">
<metadata>
Created by potrace 1.15, written by Peter Selinger 2001-2017
</metadata>
<g transform="translate(0.000000,73.000000) scale(0.100000,-0.100000)"
fill="#000000" stroke="none">
<path d="M226 591 c-9 -10 -16 -22 -16 -28 0 -6 -20 -20 -44 -31 -24 -12 -46
-28 -49 -36 -7 -19 34 -71 71 -88 16 -8 29 -25 34 -45 6 -23 14 -33 28 -33 11
0 20 6 20 13 0 39 22 85 48 98 15 8 37 24 50 37 13 12 27 22 32 22 15 0 12 50
-2 51 -7 0 -39 0 -70 -1 -55 -1 -58 0 -58 23 0 32 -23 41 -44 18z"/>
<path d="M454 356 c-40 -45 -122 -66 -255 -66 -99 0 -99 0 -125 42 -26 41 -26
41 -45 17 -20 -27 -24 -54 -9 -64 6 -3 10 -18 10 -33 0 -44 35 -127 70 -166
62 -67 213 -97 313 -62 32 11 94 66 98 86 0 3 3 16 5 30 2 14 7 76 10 138 7
112 7 112 -17 112 -14 0 -37 -14 -55 -34z m-46 -102 c18 -5 22 -13 22 -43 0
-29 -7 -43 -32 -67 -18 -16 -43 -35 -55 -42 -27 -14 -153 -16 -153 -2 0 6 -6
10 -14 10 -23 0 -59 67 -52 95 6 23 11 25 64 26 31 0 84 6 117 14 72 16 74 16
103 9z"/>
</g>
</svg>
