<svg version="1.0" xmlns="http://www.w3.org/2000/svg"
 width="39.000000pt" height="43.000000pt" viewBox="0 0 39.000000 43.000000"
 preserveAspectRatio="xMidYMid meet">
<metadata>
Created by potrace 1.15, written by Peter Selinger 2001-2017
</metadata>
<g transform="translate(0.000000,43.000000) scale(0.100000,-0.100000)"
fill="#000000" stroke="none">
<path d="M170 379 c0 -6 -9 -24 -21 -40 -17 -24 -20 -41 -17 -94 3 -60 1 -65
-17 -65 -28 0 -37 9 -58 53 -20 43 -40 44 -45 2 -3 -26 48 -146 73 -170 29
-28 77 -55 96 -55 74 0 156 58 172 123 19 72 20 97 4 97 -8 0 -20 -13 -26 -30
-10 -31 -23 -35 -79 -24 -29 6 -31 9 -25 38 3 17 10 33 15 34 14 6 9 36 -12
77 -11 22 -20 45 -20 52 0 7 -9 13 -20 13 -11 0 -20 -5 -20 -11z m97 -273 c14
-13 -31 -38 -68 -38 -46 1 -89 29 -67 44 13 9 125 4 135 -6z"/>
</g>
</svg>
