<svg version="1.0" xmlns="http://www.w3.org/2000/svg"
 width="41.000000pt" height="85.000000pt" viewBox="0 0 41.000000 85.000000"
 preserveAspectRatio="xMidYMid meet">
<metadata>
Created by potrace 1.15, written by Peter Selinger 2001-2017
</metadata>
<g transform="translate(0.000000,85.000000) scale(0.100000,-0.100000)"
fill="#000000" stroke="none">
<path d="M271 645 c-13 -25 -37 -58 -52 -75 -16 -16 -29 -34 -29 -40 0 -6 -13
-24 -30 -42 -19 -20 -30 -41 -30 -60 0 -20 10 -39 30 -58 31 -29 37 -56 21
-106 -5 -16 -15 -63 -22 -104 -7 -41 -17 -81 -22 -88 -7 -9 -7 -16 0 -23 16
-16 40 25 70 121 33 108 35 182 5 231 -19 30 -20 38 -9 47 11 9 21 2 47 -33
19 -25 40 -45 47 -45 24 0 13 54 -17 90 -17 19 -30 40 -30 47 0 6 13 31 29 55
35 52 44 81 36 108 -9 30 -17 25 -44 -25z"/>
</g>
</svg>
