<svg version="1.0" xmlns="http://www.w3.org/2000/svg"
 width="71.000000pt" height="114.000000pt" viewBox="0 0 71.000000 114.000000"
 preserveAspectRatio="xMidYMid meet">
<metadata>
Created by potrace 1.15, written by Peter Selinger 2001-2017
</metadata>
<g transform="translate(0.000000,114.000000) scale(0.100000,-0.100000)"
fill="#000000" stroke="none">
<path d="M146 1053 c-3 -10 -7 -63 -11 -117 -3 -55 -7 -102 -10 -104 -2 -3
-11 0 -18 7 -10 8 -13 28 -11 69 4 61 -2 92 -17 92 -5 0 -9 -42 -9 -94 0 -94
0 -94 30 -108 25 -11 30 -19 30 -49 0 -29 -7 -41 -38 -67 -37 -29 -39 -35 -45
-99 -13 -135 -17 -453 -7 -453 10 0 11 6 16 68 1 15 4 61 8 102 3 41 8 122 11
180 8 142 13 172 34 168 13 -3 15 -15 13 -78 -2 -41 -5 -151 -8 -245 -2 -93
-9 -183 -14 -199 -14 -42 -12 -66 6 -66 17 0 48 65 38 81 -8 13 -8 83 0 164 3
33 8 123 11 200 4 77 8 141 10 144 2 2 11 1 20 -2 12 -5 15 -23 15 -79 0 -40
0 -80 1 -88 1 -8 -2 -93 -6 -189 -5 -140 -4 -172 6 -169 21 7 26 51 28 249 1
101 3 205 6 231 3 43 0 49 -35 85 -32 32 -37 43 -33 71 5 27 9 32 33 32 33 0
43 28 45 133 1 51 -2 67 -12 67 -11 0 -13 -14 -10 -65 2 -36 0 -68 -4 -71 -5
-3 -9 -14 -9 -25 0 -21 -8 -23 -29 -10 -10 7 -13 34 -11 117 2 60 2 115 1 122
-2 18 -19 15 -25 -5z"/>
<path d="M350 941 c0 -85 -3 -111 -15 -121 -25 -20 -30 -4 -28 86 2 65 -1 84
-11 84 -20 0 -28 -28 -15 -52 7 -13 9 -42 5 -75 -6 -52 -5 -56 25 -84 35 -33
36 -69 2 -84 -13 -5 -23 -17 -23 -25 0 -9 -5 -21 -10 -26 -6 -6 -12 -86 -14
-185 -3 -96 -7 -209 -10 -251 -4 -75 4 -102 25 -81 5 5 11 123 14 263 5 239
12 289 35 275 4 -3 6 -133 3 -289 -3 -156 -3 -292 1 -302 7 -18 8 -18 21 0 11
14 14 70 15 245 2 326 5 360 31 334 6 -6 9 -92 8 -234 -3 -305 -3 -308 3 -314
3 -3 12 -3 21 1 13 5 15 39 16 262 0 141 -2 269 -5 285 -4 17 -17 33 -35 42
-45 24 -37 95 12 95 23 0 30 21 36 111 3 54 1 79 -7 84 -19 11 -28 -12 -23
-58 5 -45 -19 -117 -39 -117 -8 0 -9 33 -4 120 6 116 6 120 -14 120 -19 0 -20
-6 -20 -109z"/>
<path d="M515 967 c-17 -27 -14 -119 5 -142 8 -10 30 -15 61 -15 41 0 51 4 65
25 37 57 5 173 -40 148 -15 -8 -13 -11 10 -22 25 -11 26 -15 20 -58 -3 -26 -7
-47 -9 -49 -11 -11 -75 -13 -89 -2 -26 19 -12 99 20 113 29 13 28 25 -3 25
-15 0 -31 -9 -40 -23z"/>
<path d="M483 752 c-24 -4 -30 -16 -14 -27 6 -3 28 -7 51 -9 49 -4 57 -10 40
-31 -7 -9 -14 -33 -15 -53 -2 -29 -7 -38 -24 -40 -40 -6 -56 -102 -23 -141 9
-11 35 -27 57 -34 55 -19 75 -57 77 -144 1 -38 -2 -74 -6 -81 -3 -6 1 -15 10
-20 11 -6 13 -11 5 -16 -6 -4 -11 -36 -11 -77 0 -54 3 -69 15 -69 17 0 39 36
30 50 -3 5 -6 62 -6 127 0 70 -4 122 -11 130 -7 9 -7 17 1 27 8 9 8 21 2 37
-9 24 -54 69 -70 69 -4 0 -22 7 -40 16 -29 15 -31 18 -25 52 9 48 11 52 37 52
12 1 45 7 72 14 50 13 50 13 53 73 3 53 0 62 -20 75 -22 15 -140 27 -185 20z
m145 -38 c18 -5 22 -13 22 -43 0 -40 -14 -61 -41 -61 -18 0 -29 44 -21 86 5
26 6 27 40 18z"/>
</g>
</svg>
