<svg version="1.0" xmlns="http://www.w3.org/2000/svg"
 width="65.000000pt" height="55.000000pt" viewBox="0 0 65.000000 55.000000"
 preserveAspectRatio="xMidYMid meet">
<metadata>
Created by potrace 1.15, written by Peter Selinger 2001-2017
</metadata>
<g transform="translate(0.000000,55.000000) scale(0.100000,-0.100000)"
fill="#000000" stroke="none">
<path d="M290 425 c-7 -36 -17 -65 -24 -65 -10 0 -42 29 -97 89 -19 20 -23 22
-30 8 -16 -28 33 -98 105 -153 22 -16 26 -26 26 -74 0 -44 5 -63 25 -90 14
-18 23 -36 20 -39 -3 -2 -29 -5 -58 -6 -139 -5 -137 -4 -131 -20 9 -23 69 -34
194 -36 110 -1 150 4 150 20 0 12 -49 31 -80 31 -29 0 -29 0 4 63 18 34 43 88
55 120 13 32 33 69 44 83 15 19 18 31 10 42 -16 26 -29 24 -43 -5 -8 -16 -20
-35 -26 -43 -7 -8 -13 -19 -14 -25 -4 -21 -20 -55 -25 -55 -3 0 -24 12 -46 27
-40 26 -41 29 -35 68 19 114 19 125 3 125 -10 0 -18 -19 -27 -65z m57 -190
c24 -12 29 -20 25 -40 -11 -58 -55 -46 -67 18 -8 41 -3 44 42 22z"/>
</g>
</svg>
