<svg version="1.0" xmlns="http://www.w3.org/2000/svg"
 width="65.000000pt" height="81.000000pt" viewBox="0 0 65.000000 81.000000"
 preserveAspectRatio="xMidYMid meet">
<metadata>
Created by potrace 1.15, written by Peter Selinger 2001-2017
</metadata>
<g transform="translate(0.000000,81.000000) scale(0.100000,-0.100000)"
fill="#000000" stroke="none">
<path d="M76 661 c-10 -15 2 -274 13 -304 6 -15 22 -32 36 -37 14 -5 25 -14
25 -18 0 -5 19 -12 43 -15 24 -3 56 -11 71 -16 26 -10 27 -13 24 -73 -3 -63
-3 -63 -96 -65 -51 0 -96 -4 -99 -7 -9 -9 18 -36 37 -36 9 0 20 -3 24 -7 15
-15 95 -30 100 -19 3 8 7 8 13 0 8 -13 197 -18 239 -8 19 5 40 41 30 51 -2 2
-28 6 -57 9 -118 11 -117 11 -113 47 1 17 3 44 3 60 1 23 5 27 30 27 17 0 33
5 36 10 3 6 22 10 41 10 22 0 34 5 34 14 0 7 8 16 18 18 16 5 18 21 20 157 1
92 -2 159 -8 171 -11 21 -35 27 -44 11 -3 -5 -8 -76 -12 -157 -3 -81 -7 -151
-10 -155 -6 -10 -69 -20 -87 -13 -17 6 -22 26 -33 114 -3 30 -11 58 -17 62 -7
4 -7 11 2 22 11 13 10 23 -8 60 -43 92 -56 69 -53 -92 1 -68 4 -127 7 -133 7
-11 5 -11 -70 5 -60 12 -60 12 -66 72 -16 150 -21 191 -31 217 -10 26 -31 36
-42 18z"/>
</g>
</svg>
