<svg version="1.0" xmlns="http://www.w3.org/2000/svg"
 width="57.000000pt" height="55.000000pt" viewBox="0 0 57.000000 55.000000"
 preserveAspectRatio="xMidYMid meet">
<metadata>
Created by potrace 1.15, written by Peter Selinger 2001-2017
</metadata>
<g transform="translate(0.000000,55.000000) scale(0.100000,-0.100000)"
fill="#000000" stroke="none">
<path d="M72 316 c2 -58 6 -106 10 -106 3 0 8 -8 10 -17 2 -13 17 -17 68 -20
67 -4 84 -15 74 -48 -9 -27 -4 -25 -75 -31 -34 -2 -65 -6 -67 -8 -13 -14 57
-32 143 -37 55 -4 111 -10 125 -13 16 -5 32 -2 45 8 20 15 20 15 0 21 -11 4
-28 11 -37 16 -10 5 -34 9 -54 9 -36 0 -36 1 -30 32 9 45 20 54 52 39 15 -6
29 -9 33 -5 3 4 0 9 -6 11 -7 3 -13 11 -13 19 0 17 -17 19 -23 2 -3 -10 -7
-10 -17 -1 -7 7 -13 38 -14 75 -1 49 -4 63 -17 66 -13 2 -19 -9 -25 -45 -9
-48 -9 -48 -67 -51 -57 -3 -57 -3 -57 53 0 30 -5 65 -12 78 -6 12 -14 28 -18
36 -3 8 -12 17 -18 19 -10 3 -12 -23 -10 -102z"/>
<path d="M399 338 c0 -7 -2 -52 -5 -100 -4 -72 -2 -88 10 -88 22 0 33 49 28
128 -3 53 -8 72 -18 72 -8 0 -14 -6 -15 -12z"/>
</g>
</svg>
