<svg version="1.0" xmlns="http://www.w3.org/2000/svg"
 width="53.000000pt" height="55.000000pt" viewBox="0 0 53.000000 55.000000"
 preserveAspectRatio="xMidYMid meet">
<metadata>
Created by potrace 1.15, written by Peter Selinger 2001-2017
</metadata>
<g transform="translate(0.000000,55.000000) scale(0.100000,-0.100000)"
fill="#000000" stroke="none">
<path d="M356 375 c-3 -9 -6 -47 -6 -85 0 -70 -7 -81 -41 -73 -9 3 -21 19 -25
36 -13 42 -34 47 -34 8 0 -29 -2 -31 -40 -31 -38 0 -40 1 -40 33 0 43 -18 107
-31 107 -6 0 -9 -34 -7 -87 3 -88 3 -88 60 -91 56 -3 56 -3 60 -52 3 -50 3
-50 -47 -50 -52 0 -86 -12 -67 -24 20 -12 252 -20 252 -8 0 6 -21 14 -47 18
-27 3 -50 8 -54 10 -3 1 -3 24 0 51 6 47 7 48 41 48 47 0 61 29 58 124 -3 71
-18 102 -32 66z"/>
</g>
</svg>
