<svg version="1.0" xmlns="http://www.w3.org/2000/svg"
 width="63.000000pt" height="85.000000pt" viewBox="0 0 63.000000 85.000000"
 preserveAspectRatio="xMidYMid meet">
<metadata>
Created by potrace 1.15, written by Peter Selinger 2001-2017
</metadata>
<g transform="translate(0.000000,85.000000) scale(0.100000,-0.100000)"
fill="#000000" stroke="none">
<path d="M139 628 c-5 -126 -5 -195 1 -261 7 -80 15 -101 29 -78 5 7 29 14 55
15 47 2 47 2 44 -89 -3 -90 -3 -90 -68 -95 -79 -6 -97 -15 -75 -37 10 -9 37
-16 78 -17 34 -1 68 -5 74 -9 23 -14 31 12 38 128 8 135 7 131 77 139 34 3 67
11 74 17 30 24 29 164 -1 205 -22 30 -30 8 -31 -82 0 -75 -3 -85 -24 -104 -22
-19 -26 -19 -36 -6 -6 9 -19 16 -28 16 -19 0 -19 0 -5 113 12 92 8 106 -28
107 -18 0 -28 -61 -12 -71 11 -7 11 -11 1 -17 -7 -5 -17 -37 -24 -73 -12 -69
-19 -79 -60 -79 -28 0 -28 0 -28 125 0 125 -10 175 -37 175 -7 0 -13 -10 -14
-22z"/>
<path d="M355 121 c-21 -4 -30 -12 -30 -26 0 -17 8 -21 50 -23 28 -2 69 -1 93
3 34 5 41 9 32 20 -6 7 -27 16 -48 19 -20 4 -44 8 -52 10 -8 2 -28 1 -45 -3z"/>
</g>
</svg>
