<svg version="1.0" xmlns="http://www.w3.org/2000/svg"
 width="301.000000pt" height="195.000000pt" viewBox="0 0 301.000000 195.000000"
 preserveAspectRatio="xMidYMid meet">
<metadata>
Created by potrace 1.15, written by Peter Selinger 2001-2017
</metadata>
<g transform="translate(0.000000,195.000000) scale(0.100000,-0.100000)"
fill="#000000" stroke="none">
<path d="M1894 1743 c-16 -26 -34 -54 -41 -61 -7 -7 -13 -17 -13 -21 0 -4 -11
-21 -25 -37 -14 -16 -25 -35 -25 -41 0 -7 -3 -13 -8 -13 -8 0 -58 -73 -97
-145 -15 -28 -37 -61 -50 -75 -25 -29 -85 -116 -85 -124 0 -12 -45 -76 -53
-76 -12 0 -58 56 -86 104 -66 116 -186 266 -211 266 -5 0 -10 4 -10 10 0 5
-13 22 -28 37 -16 16 -39 44 -52 63 -30 44 -106 120 -120 120 -5 0 -10 5 -10
10 0 6 -7 10 -15 10 -11 0 1 -24 37 -77 29 -43 59 -85 68 -93 9 -8 33 -36 54
-62 21 -27 43 -48 48 -48 11 0 38 -25 38 -35 0 -4 26 -39 58 -78 32 -40 69
-88 82 -107 13 -19 27 -37 30 -40 17 -16 50 -71 50 -85 0 -8 4 -15 9 -15 43 0
-19 -112 -126 -227 -30 -32 -62 -70 -71 -85 -15 -26 -42 -38 -42 -20 0 19 -53
77 -143 160 -26 23 -47 46 -47 51 0 5 -10 16 -22 24 -13 9 -44 35 -70 59 -25
24 -54 50 -65 60 -10 9 -31 32 -47 52 -16 20 -31 35 -33 32 -5 -5 -63 53 -63
63 0 8 -118 130 -148 154 -27 20 -32 21 -32 4 0 -17 102 -127 118 -127 6 0 12
-4 12 -10 0 -5 25 -35 55 -66 30 -32 55 -61 55 -66 0 -5 8 -8 18 -6 9 2 16 -2
15 -9 -1 -6 9 -22 23 -35 71 -64 224 -223 224 -233 0 -3 19 -25 43 -49 86 -88
112 -126 87 -126 -5 0 -10 -5 -10 -11 0 -7 -10 -22 -22 -34 -26 -25 -43 -45
-78 -95 -14 -19 -36 -48 -50 -63 -14 -15 -32 -40 -40 -55 -9 -15 -28 -40 -43
-56 -15 -16 -38 -43 -50 -59 -12 -16 -34 -44 -49 -62 -16 -18 -28 -37 -28 -42
0 -10 -111 -10 -128 1 -6 3 -13 2 -17 -4 -8 -13 -55 -13 -75 0 -9 6 -17 5 -21
-2 -4 -7 -13 -7 -27 1 -24 13 -45 14 -38 3 3 -5 -1 -9 -9 -9 -8 0 -12 4 -8 9
3 6 -3 9 -13 8 -11 -1 -23 -1 -29 0 -5 1 -64 1 -130 0 -82 -1 -129 -6 -149
-16 -16 -8 -34 -14 -40 -14 -12 0 -49 -55 -52 -79 -3 -19 13 -60 32 -79 15
-15 16 -14 8 8 -17 50 -9 91 24 121 31 27 33 28 114 21 112 -9 178 -9 206 1
15 6 22 5 20 -3 -4 -14 620 -14 637 -1 11 10 144 21 215 19 71 -2 138 0 240 6
123 8 676 6 1042 -2 286 -7 286 -7 307 -31 30 -34 26 -49 -11 -53 -42 -4 -38
-22 5 -26 44 -4 61 17 53 63 -5 25 -14 39 -32 45 -13 5 -24 14 -24 20 0 5 -13
10 -29 10 -17 0 -33 5 -36 10 -4 6 -12 7 -18 3 -19 -12 -77 -14 -77 -3 0 5 -9
10 -20 10 -11 0 -20 -5 -20 -12 0 -8 -49 -9 -192 -3 -106 4 -239 8 -296 9
-104 2 -104 2 -148 49 -24 26 -44 50 -44 54 0 4 -20 32 -44 62 -24 31 -52 72
-62 91 -21 38 -35 58 -131 188 -35 46 -63 88 -63 93 0 5 -3 9 -8 9 -7 0 -62
77 -89 124 -7 11 -18 25 -26 31 -21 16 -77 102 -77 119 0 9 13 28 29 43 15 16
43 58 61 96 18 37 40 73 49 80 18 13 49 62 58 90 3 9 9 17 14 17 5 0 9 6 9 13
0 8 9 22 20 32 11 10 18 20 16 23 -3 2 2 11 10 19 8 8 12 18 9 23 -3 4 2 10
10 14 8 3 15 12 15 21 0 8 4 15 8 15 5 0 15 12 23 28 8 15 17 29 20 32 3 3 18
31 34 63 19 40 25 61 17 69 -7 7 -19 -5 -38 -39z m-324 -771 c0 -5 15 -25 33
-44 17 -20 52 -64 77 -98 25 -35 57 -77 72 -94 15 -17 28 -34 28 -37 0 -3 9
-17 21 -30 11 -13 33 -44 47 -69 15 -25 31 -50 37 -56 6 -6 19 -30 29 -53 11
-22 23 -41 28 -41 4 0 8 -6 8 -14 0 -8 14 -28 30 -46 17 -18 30 -36 30 -42 0
-5 12 -20 26 -35 14 -14 24 -27 22 -28 -5 -6 -183 -9 -193 -4 -6 3 -37 6 -70
8 -37 2 -63 9 -70 17 -6 8 -21 20 -34 27 -13 7 -29 21 -35 32 -15 26 -33 45
-43 45 -5 0 -25 15 -44 33 -20 17 -46 41 -60 53 -13 12 -31 30 -40 40 -9 10
-35 34 -57 52 -45 37 -130 119 -150 144 -11 13 -10 21 5 45 34 55 126 173 134
173 5 0 9 5 9 11 0 6 19 30 42 53 43 43 43 43 80 5 21 -21 38 -42 38 -47z
m-301 -299 c25 -21 87 -80 138 -130 51 -51 96 -93 101 -93 4 0 21 -17 37 -38
16 -21 46 -51 67 -67 65 -49 54 -55 -94 -56 -73 -1 -151 -3 -173 -4 -22 -2
-89 -6 -150 -10 -121 -7 -139 -10 -130 -25 10 -17 -7 -11 -20 6 -10 15 -13 15
-28 -1 -12 -12 -26 -14 -49 -10 -18 4 -47 6 -65 5 -41 -1 -47 11 -20 41 13 13
34 40 47 59 13 19 30 41 37 48 7 7 13 17 13 21 0 4 10 19 21 32 12 13 51 62
87 109 66 85 122 150 130 150 3 0 26 -17 51 -37z"/>
</g>
</svg>
