<svg version="1.0" xmlns="http://www.w3.org/2000/svg"
 width="61.000000pt" height="91.000000pt" viewBox="0 0 61.000000 91.000000"
 preserveAspectRatio="xMidYMid meet">
<metadata>
Created by potrace 1.15, written by Peter Selinger 2001-2017
</metadata>
<g transform="translate(0.000000,91.000000) scale(0.100000,-0.100000)"
fill="#000000" stroke="none">
<path d="M515 683 c13 -181 6 -209 -62 -233 -23 -8 -45 -12 -48 -9 -3 3 -6 71
-8 150 -3 148 -7 169 -33 169 -14 0 -18 -151 -14 -531 1 -84 -2 -108 -13 -112
-18 -7 -53 25 -62 55 -3 13 -10 32 -14 43 -25 60 -46 168 -62 315 -13 122 -20
140 -52 140 -18 0 -19 -4 -13 -72 3 -40 10 -95 15 -123 5 -27 14 -79 20 -113
13 -70 58 -212 72 -226 18 -19 8 -24 -83 -35 -104 -13 -130 -28 -102 -55 13
-14 28 -17 68 -13 270 28 344 32 378 24 38 -9 71 -5 98 13 13 8 12 11 -5 24
-14 10 -44 16 -95 16 -41 0 -82 4 -90 9 -10 7 -14 36 -16 118 -2 117 9 153 47
153 11 0 34 6 52 13 52 22 68 83 63 236 -5 120 -11 140 -40 141 -5 0 -5 -42
-1 -97z"/>
</g>
</svg>
