<svg version="1.0" xmlns="http://www.w3.org/2000/svg"
 width="61.000000pt" height="71.000000pt" viewBox="0 0 61.000000 71.000000"
 preserveAspectRatio="xMidYMid meet">
<metadata>
Created by potrace 1.15, written by Peter Selinger 2001-2017
</metadata>
<g transform="translate(0.000000,71.000000) scale(0.100000,-0.100000)"
fill="#000000" stroke="none">
<path d="M270 370 c0 -140 0 -140 -30 -146 -16 -4 -30 -12 -30 -19 0 -7 14
-18 30 -24 28 -9 30 -13 30 -59 0 -49 0 -49 -46 -56 -26 -3 -62 -6 -80 -6 -37
0 -50 -12 -30 -29 17 -14 169 -6 245 14 30 8 59 11 64 8 15 -9 147 35 147 49
0 12 -46 9 -135 -7 -108 -19 -125 -19 -125 3 0 10 -6 24 -12 31 -10 11 -10 14
0 18 14 6 16 43 2 43 -5 0 -10 5 -10 10 0 6 9 10 20 10 11 0 20 -4 20 -9 0 -6
39 -10 86 -9 86 0 86 0 101 35 19 47 20 232 1 244 -20 12 -29 -23 -35 -136 -3
-55 -7 -102 -9 -104 -5 -5 -147 -1 -153 4 -2 3 -6 55 -8 117 -3 62 -9 115 -14
116 -5 2 -9 12 -9 23 0 10 -4 19 -10 19 -6 0 -10 -53 -10 -140z"/>
<path d="M88 348 c2 -79 5 -149 7 -155 6 -19 66 -16 81 5 20 26 17 32 -16 26
-30 -6 -30 -6 -30 52 0 80 -22 214 -35 214 -7 0 -9 -48 -7 -142z"/>
</g>
</svg>
