<svg version="1.0" xmlns="http://www.w3.org/2000/svg"
 width="125.000000pt" height="143.000000pt" viewBox="0 0 125.000000 143.000000"
 preserveAspectRatio="xMidYMid meet">
<metadata>
Created by potrace 1.15, written by Peter Selinger 2001-2017
</metadata>
<g transform="translate(0.000000,143.000000) scale(0.100000,-0.100000)"
fill="#000000" stroke="none">
<path d="M1066 1226 c-9 -14 -16 -29 -16 -34 0 -9 -26 -79 -55 -147 -45 -106
-79 -183 -90 -205 -71 -141 -129 -248 -141 -261 -8 -8 -14 -21 -14 -27 0 -18
-42 -96 -62 -113 -10 -9 -18 -24 -18 -33 0 -9 -4 -16 -10 -16 -5 0 -10 -6 -10
-13 0 -7 -8 -22 -18 -33 -10 -10 -25 -34 -32 -51 -16 -37 -22 -39 -42 -20 -7
8 -24 19 -36 26 -45 24 -207 181 -361 350 -122 134 -115 89 8 -53 79 -90 211
-217 364 -347 31 -26 31 -30 -1 -77 -17 -25 -70 14 -206 150 -118 118 -161
152 -123 98 35 -50 175 -194 217 -223 24 -17 55 -40 67 -51 22 -19 22 -19 2
-47 -18 -26 -25 -28 -107 -33 -171 -11 -232 -18 -232 -27 0 -5 68 -9 155 -9
104 0 155 -4 155 -11 0 -6 7 -4 15 4 21 21 351 14 376 -9 21 -19 46 -19 30 0
-19 23 1 28 147 33 76 3 139 7 141 9 12 11 -20 15 -175 19 -93 3 -182 9 -199
13 -29 8 -157 114 -169 140 -7 15 7 54 27 74 8 8 27 37 42 64 14 27 37 67 50
89 13 22 24 48 24 58 1 9 5 17 10 17 5 0 11 13 14 29 3 16 13 36 22 44 8 9 15
21 15 27 0 7 8 24 18 38 10 15 38 68 61 117 23 50 51 109 62 132 22 44 119
326 115 331 -2 1 -11 -9 -20 -22z m-407 -1076 c30 -28 52 -52 50 -54 -2 -2
-25 -6 -52 -9 -42 -6 -50 -4 -79 22 -32 28 -32 28 -7 59 13 17 26 31 29 31 3
1 30 -22 59 -49z m-99 -71 c0 -5 -11 -9 -25 -9 -27 0 -32 9 -13 28 12 12 38
-1 38 -19z"/>
<path d="M1185 60 c-3 -5 1 -10 10 -10 9 0 13 5 10 10 -3 6 -8 10 -10 10 -2 0
-7 -4 -10 -10z"/>
</g>
</svg>
