<svg version="1.0" xmlns="http://www.w3.org/2000/svg"
 width="45.000000pt" height="61.000000pt" viewBox="0 0 45.000000 61.000000"
 preserveAspectRatio="xMidYMid meet">
<metadata>
Created by potrace 1.15, written by Peter Selinger 2001-2017
</metadata>
<g transform="translate(0.000000,61.000000) scale(0.100000,-0.100000)"
fill="#000000" stroke="none">
<path d="M335 431 c-3 -7 -3 -42 1 -79 4 -37 6 -69 6 -72 -2 -8 -64 -19 -79
-13 -8 3 -11 13 -8 24 8 24 -3 79 -16 79 -5 0 -9 -24 -9 -54 0 -52 -1 -54 -31
-60 -17 -3 -35 -6 -40 -6 -5 0 -9 31 -9 69 0 49 -4 72 -15 81 -8 7 -15 9 -16
4 0 -5 -2 -50 -5 -100 -5 -91 -5 -91 53 -100 58 -9 58 -9 61 -60 3 -51 3 -51
-54 -57 -97 -10 -89 -23 21 -37 80 -10 155 -4 155 12 0 5 4 7 8 4 4 -2 14 0
22 5 25 16 -9 30 -62 26 -46 -4 -46 -4 -50 42 -5 54 5 71 42 71 47 0 62 28 62
120 1 60 -3 85 -14 97 -11 10 -18 12 -23 4z"/>
</g>
</svg>
