<svg version="1.0" xmlns="http://www.w3.org/2000/svg"
 width="77.000000pt" height="95.000000pt" viewBox="0 0 77.000000 95.000000"
 preserveAspectRatio="xMidYMid meet">
<metadata>
Created by potrace 1.15, written by Peter Selinger 2001-2017
</metadata>
<g transform="translate(0.000000,95.000000) scale(0.100000,-0.100000)"
fill="#000000" stroke="none">
<path d="M656 690 c-27 -233 -91 -360 -182 -360 -29 0 -29 0 -28 74 1 54 -5
87 -19 120 -32 75 -43 58 -54 -87 -6 -86 -7 -88 -34 -94 -15 -3 -30 -11 -33
-19 -3 -8 -12 -14 -21 -14 -18 0 -20 16 -2 23 14 6 -32 48 -48 43 -15 -4 -45
51 -50 92 -2 21 -9 60 -15 87 -6 28 -14 64 -17 82 -5 34 -23 46 -49 36 -14 -5
-15 -15 -10 -57 4 -28 11 -82 16 -121 5 -38 13 -85 18 -103 12 -38 77 -102
103 -102 11 0 19 -4 19 -10 0 -5 7 -10 15 -10 8 0 25 -5 38 -12 12 -6 29 -14
37 -18 8 -4 14 -17 13 -28 0 -12 -1 -35 -2 -51 -1 -29 -3 -30 -66 -36 -36 -4
-68 -11 -71 -16 -2 -4 14 -20 36 -34 37 -23 52 -26 130 -26 66 0 96 5 115 17
40 26 28 58 -25 66 -22 3 -25 9 -28 45 -3 38 0 43 27 57 16 9 37 16 45 16 9 0
21 9 28 20 7 11 17 20 22 20 14 0 86 73 86 88 0 6 4 12 8 12 9 0 11 8 14 52 1
12 10 30 19 39 31 31 36 219 6 257 -21 27 -34 11 -41 -48z m-231 -230 c3 -5 1
-10 -4 -10 -6 0 -11 5 -11 10 0 6 2 10 4 10 3 0 8 -4 11 -10z m45 -185 c0 -17
-2 -18 -24 -9 -23 9 -20 24 4 24 11 0 20 -7 20 -15z m-75 -154 c-3 -6 -11 -11
-17 -11 -6 0 -6 6 2 15 14 17 26 13 15 -4z"/>
</g>
</svg>
