<svg version="1.0" xmlns="http://www.w3.org/2000/svg"
 width="53.000000pt" height="88.000000pt" viewBox="0 0 53.000000 88.000000"
 preserveAspectRatio="xMidYMid meet">
<metadata>
Created by potrace 1.15, written by Peter Selinger 2001-2017
</metadata>
<g transform="translate(0.000000,88.000000) scale(0.100000,-0.100000)"
fill="#000000" stroke="none">
<path d="M275 649 c-4 -6 -10 -51 -13 -100 -2 -49 -7 -89 -9 -89 -8 0 -65 41
-101 72 -33 28 -52 29 -52 3 0 -16 120 -135 136 -135 7 0 14 -12 17 -27 8 -42
-5 -187 -17 -195 -6 -4 -30 -8 -53 -8 -50 0 -59 12 -69 88 -8 62 -27 93 -45
75 -10 -10 -10 -23 -1 -64 7 -28 12 -61 12 -73 0 -12 6 -31 14 -41 12 -16 32
-20 160 -25 143 -6 146 -7 175 -34 17 -16 31 -38 33 -50 4 -31 32 -26 36 6 8
67 -56 121 -143 122 -50 1 -50 1 -53 112 -3 112 -3 112 41 141 67 44 127 96
127 110 0 28 -25 22 -80 -21 -32 -25 -63 -46 -69 -46 -7 0 -11 30 -11 84 0 60
-4 87 -14 95 -11 9 -16 9 -21 0z"/>
</g>
</svg>
