<svg version="1.0" xmlns="http://www.w3.org/2000/svg"
 width="71.000000pt" height="113.000000pt" viewBox="0 0 71.000000 113.000000"
 preserveAspectRatio="xMidYMid meet">
<metadata>
Created by potrace 1.15, written by Peter Selinger 2001-2017
</metadata>
<g transform="translate(0.000000,113.000000) scale(0.100000,-0.100000)"
fill="#000000" stroke="none">
<path d="M197 1044 c-4 -4 -7 -32 -7 -62 0 -43 7 -67 37 -120 36 -66 36 -69
35 -175 -1 -111 -6 -147 -23 -147 -9 0 -15 132 -10 218 3 40 -11 72 -30 72 -5
0 -9 -9 -9 -20 0 -11 6 -20 13 -20 8 0 9 -2 1 -8 -7 -4 -14 -75 -18 -197 -7
-211 -9 -233 -25 -264 -27 -49 -31 -18 -26 192 2 116 7 235 11 263 5 43 3 52
-11 58 -10 3 -19 5 -21 4 -9 -9 -11 -187 -2 -190 7 -3 4 -16 -6 -35 -9 -18
-16 -43 -16 -58 0 -32 -15 -32 -36 0 -18 27 -29 172 -14 190 4 6 10 27 14 47
7 36 40 81 67 90 19 6 26 138 8 149 -24 15 -26 11 -33 -49 -4 -34 -14 -67 -24
-78 -60 -65 -65 -81 -69 -205 -3 -108 -2 -119 14 -120 16 0 16 -1 -1 -8 -17
-7 -17 -8 -2 -23 9 -9 16 -20 16 -25 0 -4 14 -19 30 -33 31 -25 31 -25 30
-253 0 -220 1 -227 20 -227 19 0 20 7 20 120 0 102 2 120 15 120 23 0 60 40
73 79 7 19 12 57 12 85 0 45 4 54 30 74 37 30 50 75 50 179 0 99 -13 160 -48
231 -18 34 -27 69 -27 100 0 34 -4 47 -15 50 -9 1 -19 0 -23 -4z"/>
<path d="M453 899 c-46 -6 -70 -15 -90 -33 -28 -26 -28 -26 -28 -330 0 -294 1
-305 21 -333 33 -44 80 -66 146 -69 100 -3 147 24 175 103 19 54 20 402 1 415
-10 8 -10 11 0 15 8 3 12 30 12 86 0 71 -3 86 -23 108 -38 44 -93 54 -214 38z
m171 -91 c17 -137 13 -523 -5 -512 -5 3 -9 43 -9 89 0 93 -18 141 -58 151 -37
10 -26 48 15 52 21 2 37 11 44 24 15 28 4 178 -13 189 -20 13 -28 -11 -28 -83
0 -38 -2 -68 -4 -68 -2 0 -11 -3 -20 -6 -13 -5 -16 8 -18 88 -3 85 -5 93 -23
93 -18 0 -20 -7 -21 -75 -1 -109 -3 -120 -17 -120 -21 0 -36 44 -28 81 9 42 4
66 -14 73 -21 8 -27 -27 -20 -110 6 -58 12 -77 26 -84 10 -6 23 -9 30 -8 6 2
16 -5 22 -15 10 -15 8 -22 -16 -41 -30 -25 -44 -63 -53 -148 -7 -76 -18 -114
-30 -108 -16 9 -7 540 10 557 11 11 79 21 153 22 72 1 72 1 77 -41z m-50 -445
c2 -43 4 -86 5 -97 1 -13 7 -17 19 -14 15 4 18 1 14 -18 -5 -29 -46 -46 -108
-43 -86 4 -116 31 -76 68 11 11 18 34 19 71 3 60 21 137 34 146 5 3 9 -56 9
-130 0 -129 1 -136 20 -136 19 0 20 7 20 133 0 74 3 137 7 141 15 14 33 -46
37 -121z"/>
</g>
</svg>
