<svg version="1.0" xmlns="http://www.w3.org/2000/svg"
 width="57.000000pt" height="87.000000pt" viewBox="0 0 57.000000 87.000000"
 preserveAspectRatio="xMidYMid meet">
<metadata>
Created by potrace 1.15, written by Peter Selinger 2001-2017
</metadata>
<g transform="translate(0.000000,87.000000) scale(0.100000,-0.100000)"
fill="#000000" stroke="none">
<path d="M367 654 c-4 -4 -7 -29 -7 -55 0 -38 -4 -51 -19 -59 -31 -16 -83 -12
-118 10 -27 16 -33 26 -33 54 0 32 -14 55 -26 43 -3 -3 -9 -62 -14 -131 -5
-70 -11 -130 -14 -134 -8 -13 -17 -246 -9 -238 4 3 8 12 9 19 2 7 10 37 18 67
9 30 16 69 16 87 0 25 9 39 49 72 27 23 58 41 68 41 33 0 83 -64 83 -107 0
-20 4 -50 10 -67 5 -17 15 -52 22 -78 18 -70 31 -59 24 20 -17 165 -25 264
-31 352 -5 89 -13 119 -28 104z m-137 -132 c0 -19 48 -31 85 -21 41 12 42 12
47 -16 3 -19 -3 -20 -84 -23 -88 -2 -88 -2 -88 33 0 28 4 35 20 35 11 0 20 -4
20 -8z m-20 -96 c0 -3 -4 -8 -10 -11 -5 -3 -10 -1 -10 4 0 6 5 11 10 11 6 0
10 -2 10 -4z"/>
</g>
</svg>
