<svg version="1.0" xmlns="http://www.w3.org/2000/svg"
 width="47.000000pt" height="63.000000pt" viewBox="0 0 47.000000 63.000000"
 preserveAspectRatio="xMidYMid meet">
<metadata>
Created by potrace 1.15, written by Peter Selinger 2001-2017
</metadata>
<g transform="translate(0.000000,63.000000) scale(0.100000,-0.100000)"
fill="#000000" stroke="none">
<path d="M296 414 c-3 -8 -6 -24 -6 -34 0 -31 -39 -48 -82 -37 -33 8 -38 13
-38 38 0 34 -16 46 -28 22 -11 -20 -15 -198 -6 -256 7 -44 24 -50 24 -8 0 34
48 91 78 91 10 0 31 -9 45 -20 14 -11 30 -20 35 -20 6 0 12 -17 14 -38 5 -63
23 -31 21 38 -4 143 -38 274 -57 224z m14 -139 c0 -30 -11 -32 -33 -7 -19 21
-13 32 15 32 13 0 18 -7 18 -25z m-114 -27 c-15 -25 -26 -22 -26 5 0 30 9 39
25 24 9 -9 9 -16 1 -29z"/>
</g>
</svg>
