<svg version="1.0" xmlns="http://www.w3.org/2000/svg"
 width="66.000000pt" height="119.000000pt" viewBox="0 0 66.000000 119.000000"
 preserveAspectRatio="xMidYMid meet">
<metadata>
Created by potrace 1.15, written by Peter Selinger 2001-2017
</metadata>
<g transform="translate(0.000000,119.000000) scale(0.100000,-0.100000)"
fill="#000000" stroke="none">
<path d="M144 1078 c-5 -7 -9 -83 -9 -168 -1 -129 -3 -154 -15 -152 -29 7 -34
27 -32 141 2 67 -11 99 -32 82 -20 -17 -12 -227 10 -263 3 -4 13 -8 22 -8 23
-1 52 -24 52 -41 0 -8 -11 -23 -25 -33 -13 -10 -34 -37 -46 -60 -21 -37 -23
-58 -27 -229 -4 -199 1 -257 22 -257 23 0 27 29 20 157 -5 82 -3 153 6 213 12
84 30 133 44 119 4 -3 6 -126 6 -272 0 -147 4 -267 8 -267 29 1 32 21 35 280
1 146 6 266 10 268 35 12 47 -49 47 -240 0 -192 7 -258 26 -258 11 0 14 28 15
133 1 243 -3 332 -14 343 -4 4 -7 14 -7 23 0 9 -18 27 -39 39 -45 29 -48 48
-9 72 53 32 63 56 65 163 2 104 -2 127 -22 127 -9 0 -15 -28 -19 -92 -9 -115
-12 -128 -37 -128 -18 0 -19 8 -19 149 0 116 -3 151 -14 160 -11 9 -16 9 -22
-1z"/>
<path d="M567 1053 c-4 -3 -7 -19 -7 -33 0 -26 -3 -28 -58 -34 -84 -9 -120 0
-124 33 -2 15 -9 26 -18 26 -12 0 -16 -19 -18 -95 -3 -91 -1 -97 22 -119 38
-35 97 -43 158 -19 27 10 56 25 64 33 20 19 31 179 14 200 -14 16 -23 19 -33
8z m-23 -119 c19 -49 -15 -84 -81 -84 -57 0 -83 20 -83 67 0 33 0 33 79 33 63
0 80 -3 85 -16z"/>
<path d="M587 744 c-2 -3 -42 -7 -88 -10 -98 -6 -152 -26 -168 -62 -15 -31
-13 -306 1 -363 13 -49 43 -61 147 -61 91 1 90 3 97 -98 9 -115 15 -150 27
-150 7 0 18 14 26 31 11 26 12 50 2 133 -9 86 -14 152 -25 395 -3 51 -21 58
-135 53 -101 -3 -101 -3 -101 27 0 43 26 53 157 59 94 4 113 7 111 20 -3 15
-42 35 -51 26z m-47 -218 c0 -31 -5 -46 -16 -50 -22 -9 -144 -7 -145 2 -14 91
-14 92 81 92 80 0 80 0 80 -44z m8 -153 c5 -32 8 -61 6 -64 -2 -3 -33 -9 -69
-13 -90 -9 -105 0 -105 68 0 29 3 56 7 59 3 4 39 7 79 7 72 0 72 0 82 -57z"/>
</g>
</svg>
