<svg version="1.0" xmlns="http://www.w3.org/2000/svg"
 width="61.000000pt" height="85.000000pt" viewBox="0 0 61.000000 85.000000"
 preserveAspectRatio="xMidYMid meet">
<metadata>
Created by potrace 1.15, written by Peter Selinger 2001-2017
</metadata>
<g transform="translate(0.000000,85.000000) scale(0.100000,-0.100000)"
fill="#000000" stroke="none">
<path d="M102 712 c-9 -7 -11 -53 -6 -213 4 -112 7 -253 8 -313 1 -72 5 -111
12 -113 8 -3 14 42 19 148 7 151 7 151 41 145 113 -20 106 -20 102 0 -2 15
-13 20 -52 22 -73 5 -92 21 -88 76 4 41 6 45 22 36 10 -6 38 -10 61 -10 27 0
46 -6 54 -16 10 -15 13 -15 27 0 17 17 45 20 72 10 12 -5 16 -20 16 -59 0 -52
0 -53 -34 -59 -18 -4 -41 -4 -50 0 -9 3 -16 2 -16 -3 0 -13 39 -32 75 -35 30
-3 30 -4 30 -63 0 -60 0 -60 -35 -61 -90 -1 -110 -4 -110 -18 0 -21 18 -23
175 -22 133 1 140 2 140 21 0 18 -7 20 -65 20 -65 0 -65 0 -61 55 3 59 14 73
47 65 12 -3 27 2 34 10 10 12 8 16 -15 25 -14 5 -37 10 -51 10 -24 0 -25 2
-22 58 3 54 5 57 30 60 19 2 30 -3 38 -17 11 -22 40 -29 40 -10 0 6 -20 44
-45 85 -25 40 -45 78 -45 84 0 6 -4 18 -9 28 -5 9 -12 25 -15 35 -9 28 -45 21
-52 -10 -4 -16 -10 -30 -13 -33 -3 -3 -20 -32 -36 -64 -37 -74 -51 -83 -102
-68 -21 6 -48 14 -60 17 -20 5 -22 12 -21 51 2 46 2 46 72 42 91 -4 96 14 9
30 -70 13 -93 25 -93 48 0 16 -9 18 -28 6z m312 -98 c9 -3 16 -15 16 -25 0
-10 3 -19 8 -19 4 0 12 -11 18 -25 13 -28 2 -35 -51 -30 -16 1 -41 3 -54 4
-24 1 -24 1 -3 20 12 10 22 26 22 35 0 9 5 16 10 16 6 0 10 7 10 15 0 17 2 18
24 9z"/>
</g>
</svg>
