<svg version="1.0" xmlns="http://www.w3.org/2000/svg"
 width="63.000000pt" height="88.000000pt" viewBox="0 0 63.000000 88.000000"
 preserveAspectRatio="xMidYMid meet">
<metadata>
Created by potrace 1.15, written by Peter Selinger 2001-2017
</metadata>
<g transform="translate(0.000000,88.000000) scale(0.100000,-0.100000)"
fill="#000000" stroke="none">
<path d="M453 799 c-3 -17 -18 -40 -34 -52 -16 -11 -29 -29 -29 -39 0 -24 5
-23 45 8 18 14 36 21 39 16 10 -16 87 -53 97 -47 18 12 8 31 -30 52 -30 17
-40 30 -45 58 -9 44 -34 47 -43 4z"/>
<path d="M150 755 c0 -37 -3 -45 -18 -45 -11 0 -24 12 -31 26 -14 32 -37 26
-34 -11 3 -34 3 -34 48 -49 37 -13 37 -13 -14 -57 -28 -24 -51 -47 -51 -51 0
-16 30 -7 56 17 15 14 31 25 35 25 4 0 9 -25 11 -55 4 -69 22 -72 26 -5 3 47
5 51 25 44 12 -3 26 -10 31 -15 14 -13 26 -11 26 5 0 7 -16 26 -35 40 -19 15
-35 30 -35 34 0 4 13 13 30 19 29 11 54 52 48 80 -5 22 -22 20 -26 -2 -4 -22
-29 -45 -49 -45 -9 0 -13 15 -13 45 0 33 -4 45 -15 45 -11 0 -15 -12 -15 -45z"/>
<path d="M324 778 c-4 -13 -18 -40 -32 -61 -14 -20 -22 -40 -19 -44 14 -13 78
61 91 105 6 18 3 22 -13 22 -12 0 -23 -9 -27 -22z"/>
<path d="M310 644 c-32 -46 -34 -61 -5 -51 17 7 55 65 55 85 0 24 -20 11 -50
-34z"/>
<path d="M496 635 c8 -43 1 -44 -43 -5 -57 50 -74 37 -21 -17 35 -37 32 -52
-8 -34 -15 6 -29 9 -33 6 -10 -11 40 -45 66 -45 16 0 29 -10 41 -30 26 -46 46
-39 38 13 -3 23 -2 57 4 76 8 28 6 38 -7 53 -28 31 -45 23 -37 -17z"/>
<path d="M318 566 c-12 -18 -37 -44 -55 -56 -34 -23 -39 -43 -12 -47 16 -2
109 103 109 124 0 23 -19 14 -42 -21z"/>
<path d="M333 459 c-98 -9 -144 -26 -167 -62 -8 -12 -17 -60 -21 -107 -7 -93
-19 -147 -42 -198 -19 -39 -11 -52 17 -27 26 24 47 97 59 214 6 51 15 99 22
107 13 16 66 31 124 36 36 3 40 0 43 -21 2 -13 1 -38 -2 -56 -5 -25 -13 -34
-33 -38 -38 -7 -51 0 -63 39 -17 49 -34 44 -26 -8 7 -46 36 -77 71 -78 11 0
26 -4 34 -9 27 -17 -6 -40 -62 -43 -76 -4 -73 -26 5 -30 63 -3 63 -3 66 -71 4
-89 25 -86 32 4 5 64 5 64 65 67 106 6 114 42 9 42 -62 0 -65 1 -62 23 2 14
11 23 25 25 50 7 112 97 85 124 -7 7 -15 1 -26 -21 -16 -29 -43 -51 -65 -51
-7 0 -11 23 -11 56 0 47 3 57 20 61 22 6 28 34 8 32 -7 -1 -54 -5 -105 -10z"/>
</g>
</svg>
