<svg version="1.0" xmlns="http://www.w3.org/2000/svg"
 width="65.000000pt" height="89.000000pt" viewBox="0 0 65.000000 89.000000"
 preserveAspectRatio="xMidYMid meet">
<metadata>
Created by potrace 1.15, written by Peter Selinger 2001-2017
</metadata>
<g transform="translate(0.000000,89.000000) scale(0.100000,-0.100000)"
fill="#000000" stroke="none">
<path d="M368 674 c-3 -3 -2 -22 3 -42 17 -73 14 -82 -32 -82 -41 0 -41 0 -35
43 7 47 -10 75 -39 63 -13 -5 -15 -43 -15 -270 0 -201 3 -267 13 -273 22 -14
266 -17 282 -3 13 10 15 54 15 276 0 228 -2 265 -16 279 -29 29 -39 12 -35
-58 3 -72 0 -76 -56 -61 -20 5 -23 13 -23 54 0 55 -37 100 -62 74z m150 -291
c3 -123 3 -123 -23 -123 -25 0 -25 0 -25 90 0 87 -1 91 -25 102 -18 8 -35 9
-53 2 -26 -9 -27 -12 -30 -97 -3 -83 -4 -88 -28 -97 -14 -6 -27 -10 -30 -10
-2 0 -4 59 -4 130 0 131 0 131 108 128 107 -3 107 -3 110 -125z m-93 5 c3 -13
6 -54 7 -93 3 -70 3 -70 46 -73 42 -3 43 -4 40 -35 -3 -31 -5 -32 -58 -37 -30
-3 -77 -3 -105 0 -49 5 -50 6 -53 40 -3 35 -3 35 40 35 43 0 43 0 46 70 3 83
9 115 22 115 5 0 12 -10 15 -22z"/>
<path d="M85 653 c-11 -3 -23 -10 -27 -17 -4 -6 -8 -142 -8 -303 0 -297 4
-332 37 -288 10 15 13 75 13 271 0 139 3 259 6 268 3 9 15 16 26 16 19 0 19
-8 17 -272 -1 -257 0 -273 17 -273 29 0 35 45 41 307 5 220 4 250 -11 273 -13
20 -24 25 -54 24 -20 -1 -46 -4 -57 -6z"/>
</g>
</svg>
