<svg version="1.0" xmlns="http://www.w3.org/2000/svg"
 width="72.000000pt" height="86.000000pt" viewBox="0 0 72.000000 86.000000"
 preserveAspectRatio="xMidYMid meet">
<metadata>
Created by potrace 1.15, written by Peter Selinger 2001-2017
</metadata>
<g transform="translate(0.000000,86.000000) scale(0.100000,-0.100000)"
fill="#000000" stroke="none">
<path d="M226 658 c-48 -27 -126 -98 -126 -114 0 -24 21 -16 78 31 30 25 60
45 67 45 14 0 55 -29 102 -73 27 -25 35 -28 48 -17 8 7 15 16 15 20 0 10 -143
120 -156 120 -5 0 -17 -6 -28 -12z"/>
<path d="M566 647 c-23 -38 -39 -142 -32 -208 6 -50 4 -64 -10 -80 -9 -10 -21
-19 -26 -19 -17 0 -78 -52 -78 -66 0 -26 55 -9 103 32 34 29 51 21 61 -27 8
-40 -5 -62 -58 -99 -61 -41 -79 -61 -68 -72 16 -16 56 2 112 53 30 27 58 49
63 49 16 0 6 60 -19 116 -32 72 -35 190 -5 259 23 55 -14 109 -43 62z"/>
<path d="M212 559 c-34 -10 -35 -29 -1 -29 14 0 19 -7 19 -25 0 -24 -3 -25
-57 -25 -65 0 -87 -9 -78 -32 5 -13 18 -15 66 -11 55 5 59 4 59 -15 0 -23 -16
-30 -85 -34 -28 -2 -40 -8 -40 -18 0 -12 11 -14 51 -12 55 4 74 -8 54 -33 -8
-9 -30 -15 -56 -15 -37 0 -44 -3 -44 -20 0 -17 7 -20 41 -20 40 0 41 -1 34
-27 -3 -15 -24 -56 -45 -92 -44 -75 -57 -115 -40 -126 15 -9 50 23 50 46 0 25
51 120 61 113 5 -3 9 -22 9 -42 0 -46 8 -59 42 -67 43 -11 78 31 78 93 0 33
-5 54 -16 62 -13 11 -16 10 -21 -8 -8 -30 -46 -29 -63 2 -17 33 -8 52 28 59
16 3 41 9 55 12 24 6 25 4 36 -58 6 -35 11 -84 11 -110 0 -47 14 -67 33 -48
13 13 -6 194 -24 234 -9 21 -8 34 5 68 17 41 16 44 -2 68 -10 14 -34 31 -53
37 -24 8 -35 19 -37 35 -4 25 -20 50 -31 48 -3 0 -21 -5 -39 -10z m116 -146
c3 -21 -1 -23 -37 -23 -45 0 -46 2 -30 31 15 29 63 22 67 -8z m-44 -59 c21 -8
2 -34 -25 -34 -21 0 -26 26 -6 33 6 3 13 6 14 6 1 1 9 -2 17 -5z m6 -203 c0
-22 -25 -45 -40 -36 -5 3 -10 17 -10 31 0 19 5 24 25 24 18 0 25 -5 25 -19z"/>
</g>
</svg>
