<svg version="1.0" xmlns="http://www.w3.org/2000/svg"
 width="68.000000pt" height="120.000000pt" viewBox="0 0 68.000000 120.000000"
 preserveAspectRatio="xMidYMid meet">
<metadata>
Created by potrace 1.15, written by Peter Selinger 2001-2017
</metadata>
<g transform="translate(0.000000,120.000000) scale(0.100000,-0.100000)"
fill="#000000" stroke="none">
<path d="M407 1183 c-4 -3 -7 -23 -7 -44 0 -56 -8 -68 -62 -95 -57 -29 -78
-66 -78 -138 0 -25 -5 -48 -11 -52 -6 -3 -9 -18 -6 -33 8 -41 -2 -49 -75 -55
-61 -5 -69 -4 -78 15 -16 29 4 49 50 49 45 0 61 17 64 67 5 69 6 73 20 73 17
0 29 27 15 36 -6 3 -41 3 -80 -1 -63 -6 -69 -5 -69 11 0 49 11 61 73 80 41 13
63 25 65 37 8 39 -129 13 -163 -31 -17 -23 -39 -123 -35 -162 7 -74 7 -688 0
-733 -10 -64 1 -97 32 -97 13 0 18 8 18 25 0 14 -4 25 -10 25 -5 0 -10 7 -10
15 0 8 4 15 9 15 6 0 11 21 13 47 3 45 5 48 38 54 49 10 76 48 77 110 1 37 6
54 19 64 27 20 39 13 42 -23 2 -18 7 -32 11 -32 5 0 16 -16 25 -35 26 -53 127
-88 160 -55 15 15 -27 50 -61 50 -33 0 -69 37 -82 85 -5 22 -11 99 -12 170 -2
174 -3 168 21 160 13 -4 26 2 41 19 13 15 31 26 41 26 15 0 18 -8 18 -49 0
-44 -3 -50 -27 -59 -16 -6 -39 -12 -53 -14 -14 -2 -26 -11 -28 -20 -3 -15 5
-18 52 -18 56 0 56 0 56 -96 0 -71 -3 -95 -12 -92 -15 5 -26 40 -27 89 -1 43
-27 72 -42 48 -5 -8 -7 -27 -4 -43 3 -16 5 -46 5 -67 0 -57 26 -79 93 -79 28
0 69 5 90 11 37 10 37 10 37 99 0 72 -3 90 -14 90 -23 0 -28 -17 -27 -81 0
-52 -2 -59 -19 -59 -32 0 -35 1 -31 14 2 6 5 45 6 86 0 42 4 81 8 87 9 15 98
8 108 -9 10 -15 11 -37 9 -157 -1 -47 -7 -99 -14 -115 -16 -36 -71 -96 -89
-96 -28 0 -55 -67 -67 -163 -11 -86 -11 -98 4 -113 28 -28 46 -1 46 70 0 97
12 124 89 196 68 63 70 66 72 118 2 29 5 55 9 57 3 2 4 52 2 112 -5 127 -5
141 -2 168 4 39 -11 161 -26 212 -20 66 -43 86 -107 93 -52 5 -52 5 -53 45 -3
70 -31 114 -57 88z m101 -187 c56 -8 68 -20 76 -86 13 -99 14 -120 9 -161 -6
-39 -6 -39 -42 -33 -61 10 -71 15 -71 34 0 10 -5 22 -10 25 -11 7 -3 54 12 70
6 6 11 6 16 -1 4 -6 15 -13 25 -17 9 -3 17 -14 17 -23 0 -20 24 -13 28 9 3 14
-35 57 -82 95 -9 7 -14 17 -11 23 8 12 -19 39 -39 39 -14 0 -20 -11 -18 -31 1
-4 -8 -15 -18 -24 -11 -10 -20 -21 -20 -25 0 -4 -18 -26 -40 -49 -40 -42 -40
-42 -40 9 0 28 5 70 11 94 16 64 45 71 197 52z m-348 -82 c0 -36 -26 -76 -38
-57 -4 5 -15 12 -24 16 -12 4 -18 17 -18 35 0 37 6 42 47 42 31 0 33 -2 33
-36z m96 -237 c6 -25 9 -48 6 -51 -3 -4 -4 -35 -3 -71 2 -59 1 -65 -17 -65
-11 0 -22 6 -25 13 -3 10 -11 10 -39 0 -39 -14 -77 -17 -79 -5 -8 60 -5 65 46
83 50 17 50 17 58 71 4 29 10 59 13 66 8 26 28 5 40 -41z m-106 -2 c0 -25 -6
-37 -22 -46 -28 -15 -46 8 -40 51 4 25 9 30 33 30 26 0 29 -3 29 -35z m-10
-268 c0 -24 -5 -48 -12 -55 -14 -14 -42 -16 -33 -3 3 5 1 12 -5 16 -11 7 -14
68 -3 78 3 4 17 7 30 7 20 0 23 -5 23 -43z"/>
</g>
</svg>
