<svg version="1.0" xmlns="http://www.w3.org/2000/svg"
 width="99.000000pt" height="121.000000pt" viewBox="0 0 99.000000 121.000000"
 preserveAspectRatio="xMidYMid meet">
<metadata>
Created by potrace 1.15, written by Peter Selinger 2001-2017
</metadata>
<g transform="translate(0.000000,121.000000) scale(0.100000,-0.100000)"
fill="#000000" stroke="none">
<path d="M357 1064 c-4 -4 -7 -42 -7 -85 0 -85 -6 -109 -25 -109 -7 0 -15 -3
-17 -7 -4 -11 -83 -53 -98 -53 -9 0 -11 20 -7 80 6 73 4 82 -15 100 -30 27
-58 26 -59 -2 -1 -13 -1 -113 0 -223 1 -110 -2 -234 -8 -275 -6 -47 -6 -79 0
-84 5 -6 9 -20 9 -33 0 -33 44 -31 73 3 21 24 84 53 115 54 18 0 15 -30 -8
-78 -11 -22 -20 -45 -20 -49 0 -20 -51 -36 -129 -40 -80 -4 -143 -25 -126 -41
11 -12 100 -31 144 -32 48 0 100 24 169 78 34 27 42 40 42 66 0 18 4 57 10 87
5 30 12 115 14 189 4 132 18 258 33 312 4 15 6 50 5 77 -3 41 -8 50 -25 54
-12 3 -31 8 -42 12 -11 3 -24 3 -28 -1z m-31 -401 c-5 -11 -10 -10 -26 5 -12
11 -36 28 -55 38 -19 10 -35 21 -35 24 0 9 61 40 80 40 10 0 22 6 27 13 9 14
17 -98 9 -120z m-88 -51 c15 -10 42 -24 60 -31 48 -20 40 -42 -29 -76 -34 -16
-65 -31 -70 -33 -10 -4 -12 117 -3 142 8 20 10 20 42 -2z"/>
<path d="M614 1033 c8 -53 15 -125 21 -220 5 -82 5 -82 -47 -85 -68 -4 -75
-26 -18 -50 48 -21 103 -34 190 -43 95 -11 130 -33 130 -83 0 -16 -7 -35 -15
-42 -15 -12 -55 -5 -55 11 0 5 -4 9 -10 9 -5 0 -38 13 -72 29 -70 32 -136 46
-157 32 -11 -7 -10 -14 8 -39 12 -17 30 -34 41 -37 11 -4 20 -10 20 -13 0 -4
20 -14 44 -21 25 -7 52 -23 60 -36 14 -21 14 -23 -7 -29 -12 -3 -43 -6 -69 -6
-38 0 -48 4 -53 20 -4 11 -10 18 -15 15 -4 -3 -13 2 -20 10 -13 15 -74 20
-104 9 -9 -4 -16 -18 -16 -34 0 -30 19 -46 80 -70 19 -7 44 -22 56 -32 11 -10
28 -18 37 -18 9 0 18 -4 21 -9 3 -5 22 -12 41 -15 28 -6 46 -2 79 17 40 22 44
23 54 7 6 -10 16 -46 22 -81 6 -35 16 -78 21 -95 5 -17 9 -37 9 -45 0 -19 44
-62 53 -52 11 10 8 122 -3 142 -5 10 -10 36 -11 57 0 21 -7 67 -15 100 -16 69
-11 92 30 139 34 39 35 98 4 145 -35 51 -67 65 -215 96 -16 3 -23 12 -23 28 0
27 16 36 120 66 132 38 138 41 121 69 -7 11 -30 13 -112 7 -57 -3 -109 -3
-114 1 -14 11 -35 74 -35 106 0 30 -39 77 -64 77 -15 0 -17 -7 -12 -37z"/>
<path d="M621 184 c0 -11 3 -14 6 -6 3 7 2 16 -1 19 -3 4 -6 -2 -5 -13z"/>
</g>
</svg>
