<svg version="1.0" xmlns="http://www.w3.org/2000/svg"
 width="107.000000pt" height="115.000000pt" viewBox="0 0 107.000000 115.000000"
 preserveAspectRatio="xMidYMid meet">
<metadata>
Created by potrace 1.15, written by Peter Selinger 2001-2017
</metadata>
<g transform="translate(0.000000,115.000000) scale(0.100000,-0.100000)"
fill="#000000" stroke="none">
<path d="M555 1043 c4 -16 10 -82 12 -148 2 -66 9 -125 14 -132 8 -9 -1 -15
-33 -24 -24 -7 -47 -16 -52 -20 -5 -4 69 -7 164 -7 157 1 174 -1 187 -17 16
-23 17 -71 1 -81 -7 -4 -8 -3 -4 4 4 7 3 12 -3 12 -5 0 -11 -5 -13 -11 -3 -9
-9 -9 -25 0 -26 13 -259 15 -267 2 -10 -15 25 -23 129 -28 55 -2 113 -9 128
-15 26 -10 27 -12 11 -29 -10 -11 -25 -19 -35 -19 -10 0 -20 -4 -23 -9 -4 -5
-40 -12 -81 -16 -41 -4 -75 -11 -75 -16 0 -12 65 -22 102 -16 52 9 93 19 98
26 3 3 20 11 38 18 31 11 36 10 57 -15 28 -32 103 -179 146 -287 6 -17 13 -25
16 -18 8 22 -65 212 -111 289 -47 79 -54 102 -35 121 8 8 8 17 0 31 -6 11 -11
30 -11 42 0 49 -55 70 -180 70 -73 0 -100 3 -101 13 0 6 -2 31 -5 55 -4 33 -2
42 11 43 8 1 18 2 23 3 4 1 41 6 82 10 163 17 188 22 174 36 -5 5 -69 5 -143
0 -84 -6 -139 -6 -146 0 -6 5 -12 39 -13 75 -1 72 -6 85 -29 85 -12 0 -14 -6
-8 -27z"/>
<path d="M334 983 c-15 -47 -35 -74 -108 -145 -53 -52 -77 -82 -73 -92 7 -16
33 -22 39 -8 2 4 15 18 30 31 27 24 27 24 54 -9 27 -31 36 -41 69 -68 22 -19
19 -35 -16 -71 -29 -31 -31 -31 -36 -12 -3 12 -9 21 -13 21 -5 0 -11 8 -14 18
-7 20 -56 52 -80 52 -24 0 -9 -24 53 -87 52 -51 52 -51 0 -102 -29 -28 -49
-55 -45 -59 4 -4 16 3 26 16 10 12 23 22 28 22 5 0 21 15 35 33 14 17 46 54
72 81 80 83 118 200 91 277 -13 36 -81 119 -98 119 -5 0 -11 -8 -14 -17z m61
-93 c13 -14 16 -28 11 -52 -3 -18 -9 -50 -12 -71 -4 -21 -10 -40 -14 -42 -17
-11 -103 95 -89 109 2 3 18 21 34 40 35 40 46 43 70 16z"/>
<path d="M70 708 c-1 -156 -6 -222 -19 -247 -11 -20 -5 -51 9 -51 24 0 38 42
56 170 16 117 2 242 -29 248 -15 3 -17 -10 -17 -120z"/>
<path d="M395 420 c-3 -6 -1 -10 4 -10 23 0 11 -76 -19 -123 -34 -55 -37 -69
-12 -60 34 13 71 78 72 128 1 64 83 13 105 -65 6 -21 18 -132 18 -164 0 -50
-10 -54 -131 -55 -59 -1 -91 -5 -87 -11 3 -5 23 -10 44 -10 20 0 42 -5 48 -11
9 -9 36 -9 105 -1 51 6 152 11 223 11 162 0 157 -1 151 10 -5 7 -42 11 -245
27 -54 4 -58 7 -37 38 18 28 21 56 6 56 -5 0 -10 -9 -10 -21 0 -16 -28 -60
-31 -47 0 2 -3 30 -5 62 -3 33 -10 68 -15 77 -5 10 -9 29 -9 43 0 14 -4 28
-10 31 -5 3 -10 15 -10 26 0 18 6 20 93 18 50 0 103 2 117 6 18 4 32 0 48 -13
13 -11 18 -22 13 -24 -15 -5 40 -109 73 -140 35 -33 50 -17 18 18 -30 33 -57
77 -70 116 -14 40 -10 58 14 58 8 0 14 5 14 10 0 6 -30 11 -67 11 -121 3 -246
7 -325 13 -45 3 -80 1 -83 -4z"/>
<path d="M690 327 c0 -13 -4 -27 -9 -32 -4 -6 -11 -27 -14 -48 -8 -50 14 -29
32 32 7 23 15 49 18 57 3 8 -1 14 -11 14 -10 0 -16 -9 -16 -23z"/>
<path d="M323 223 c-7 -3 -13 -12 -13 -21 0 -15 2 -15 17 1 18 18 16 27 -4 20z"/>
</g>
</svg>
