<svg version="1.0" xmlns="http://www.w3.org/2000/svg"
 width="71.000000pt" height="117.000000pt" viewBox="0 0 71.000000 117.000000"
 preserveAspectRatio="xMidYMid meet">
<metadata>
Created by potrace 1.15, written by Peter Selinger 2001-2017
</metadata>
<g transform="translate(0.000000,117.000000) scale(0.100000,-0.100000)"
fill="#000000" stroke="none">
<path d="M293 1071 c-3 -13 -16 -24 -32 -27 -14 -3 -56 -15 -94 -26 -91 -28
-91 -29 -116 -263 -6 -49 -13 -162 -16 -250 -6 -183 -12 -283 -22 -373 -7 -72
8 -96 38 -64 13 15 17 59 22 292 9 356 13 380 63 380 23 0 112 21 149 36 40
16 47 34 58 148 11 123 9 139 -23 156 -18 10 -22 9 -27 -9z m-3 -101 c0 -32
-25 -44 -117 -54 -58 -6 -68 0 -48 28 14 19 144 68 157 59 5 -2 8 -17 8 -33z
m0 -103 c0 -43 -31 -62 -118 -72 -69 -8 -81 1 -63 48 8 21 18 27 58 32 26 4
62 10 78 14 37 10 45 6 45 -22z"/>
<path d="M436 1052 c-3 -5 -6 -65 -7 -135 -2 -127 -2 -127 26 -151 15 -13 44
-27 64 -30 20 -3 54 -11 75 -17 39 -11 39 -11 31 -257 -12 -375 -13 -416 -3
-435 7 -13 13 -15 28 -7 18 10 19 24 20 213 1 111 3 218 4 237 7 71 17 258 19
363 2 104 1 110 -22 128 -13 10 -32 19 -42 19 -11 0 -27 4 -37 9 -9 5 -37 15
-61 22 -24 7 -48 21 -55 31 -11 19 -31 24 -40 10z m69 -82 c3 -5 15 -10 26
-10 10 0 27 -4 37 -9 9 -5 29 -14 45 -20 17 -7 27 -18 27 -31 0 -30 -48 -26
-147 11 -15 6 -23 17 -23 32 0 34 21 50 35 27z m72 -127 c60 -16 66 -22 57
-58 -8 -32 -36 -33 -109 -1 -49 22 -55 28 -55 56 0 34 -3 34 107 3z"/>
<path d="M345 748 c-2 -7 -6 -30 -10 -50 -7 -42 -4 -41 -95 -42 -58 -1 -65 -3
-65 -21 0 -13 7 -21 20 -22 141 -14 135 -12 135 -48 0 -33 0 -33 -100 -29 -99
3 -100 3 -100 -20 0 -23 4 -24 96 -31 102 -7 112 -13 95 -58 -10 -26 -14 -27
-81 -27 -63 0 -70 -2 -70 -20 0 -18 7 -20 75 -20 75 0 75 0 75 -37 0 -21 -4
-43 -8 -49 -4 -7 -44 -12 -101 -13 -99 -1 -116 -6 -101 -31 7 -12 35 -15 132
-16 68 0 168 -4 224 -8 92 -7 102 -6 108 10 9 25 -5 30 -97 37 -94 8 -109 18
-99 67 8 35 8 35 76 38 57 2 67 6 64 20 -2 12 -15 18 -43 20 -71 4 -85 10 -85
36 0 40 21 48 108 41 84 -8 107 1 79 30 -10 10 -40 15 -92 17 -88 2 -106 11
-98 51 6 28 6 28 79 26 79 -3 94 2 74 26 -8 10 -30 15 -62 15 -68 0 -88 13
-88 56 0 45 -34 84 -45 52z"/>
</g>
</svg>
