<svg version="1.0" xmlns="http://www.w3.org/2000/svg"
 width="70.000000pt" height="85.000000pt" viewBox="0 0 70.000000 85.000000"
 preserveAspectRatio="xMidYMid meet">
<metadata>
Created by potrace 1.15, written by Peter Selinger 2001-2017
</metadata>
<g transform="translate(0.000000,85.000000) scale(0.100000,-0.100000)"
fill="#000000" stroke="none">
<path d="M422 318 c3 -275 4 -283 23 -283 19 0 20 8 23 250 3 283 0 315 -29
315 -19 0 -19 -7 -17 -282z"/>
<path d="M137 563 c-4 -3 -7 -21 -7 -38 0 -25 -7 -36 -37 -56 -20 -13 -41 -31
-46 -40 -16 -26 1 -68 38 -92 32 -20 48 -57 26 -57 -5 0 -23 -12 -40 -26 -24
-20 -31 -34 -31 -63 0 -57 28 -81 96 -81 48 0 60 4 84 29 16 16 32 41 36 57 6
24 2 32 -36 65 -29 25 -41 42 -37 53 4 9 12 16 20 16 23 0 57 45 57 74 0 20
-12 41 -39 68 -22 21 -43 52 -46 68 -6 28 -23 38 -38 23z m68 -127 c16 -12 18
-18 7 -40 -14 -30 -47 -41 -85 -27 -38 15 -36 47 6 65 42 19 49 19 72 2z m-11
-219 c27 -20 16 -50 -22 -61 -41 -11 -82 5 -82 33 0 37 67 55 104 28z"/>
<path d="M546 526 c-32 -42 -60 -171 -52 -239 7 -60 74 -205 99 -213 35 -11
44 13 20 59 -50 99 -56 131 -50 249 5 78 11 116 22 128 19 21 20 50 1 50 -7 0
-25 -15 -40 -34z"/>
<path d="M300 528 c0 -7 6 -37 13 -65 20 -76 -10 -245 -52 -299 -19 -25 -29
-74 -15 -74 13 0 55 57 79 107 50 104 58 237 18 305 -20 34 -43 48 -43 26z"/>
</g>
</svg>
