<svg version="1.0" xmlns="http://www.w3.org/2000/svg"
 width="77.000000pt" height="269.000000pt" viewBox="0 0 77.000000 269.000000"
 preserveAspectRatio="xMidYMid meet">
<metadata>
Created by potrace 1.15, written by Peter Selinger 2001-2017
</metadata>
<g transform="translate(0.000000,269.000000) scale(0.100000,-0.100000)"
fill="#000000" stroke="none">
<path d="M357 2483 c-4 -3 -7 -23 -7 -44 0 -21 -4 -41 -10 -44 -15 -10 -10
-195 7 -233 11 -25 18 -31 27 -23 7 6 16 8 19 5 11 -11 34 62 37 116 3 80 2
91 -10 140 -20 79 -41 106 -63 83z"/>
<path d="M62 2031 c-7 -21 -15 -78 -18 -127 -6 -81 -5 -91 15 -114 21 -25 21
-25 41 -2 18 21 19 35 15 126 -3 94 -18 156 -35 156 -4 0 -12 -17 -18 -39z"/>
<path d="M625 1915 c-9 -122 2 -198 28 -203 10 -2 19 4 23 15 3 10 9 25 14 34
14 27 1 158 -21 205 -12 24 -25 46 -29 49 -5 3 -11 -42 -15 -100z"/>
<path d="M235 1633 c3 -10 9 -31 12 -48 2 -16 8 -39 13 -50 22 -51 10 -201
-21 -257 -5 -10 -9 -29 -9 -42 0 -14 -5 -28 -10 -31 -6 -3 -10 -17 -10 -30 0
-13 -4 -27 -10 -30 -5 -3 -10 -14 -10 -23 0 -9 -14 -44 -30 -76 -17 -32 -30
-67 -30 -77 0 -9 -4 -19 -10 -21 -5 -1 -18 -37 -28 -78 -15 -60 -17 -90 -11
-150 5 -41 14 -86 21 -100 17 -32 97 -110 114 -110 19 0 44 -41 39 -65 -2 -11
-4 -26 -4 -33 -1 -18 -61 -52 -93 -52 -29 0 -68 40 -68 70 0 10 -7 34 -15 54
-9 20 -13 41 -10 46 8 13 -5 40 -20 40 -7 0 -16 -15 -20 -33 -11 -43 -9 -238
1 -312 13 -84 58 -161 114 -193 41 -23 56 -26 155 -26 154 -1 286 29 337 76
17 15 34 28 39 28 5 0 12 12 15 28 4 15 10 32 14 37 4 6 13 35 20 65 7 30 17
64 22 74 10 18 13 180 4 221 -2 12 -7 52 -11 90 -10 111 -82 389 -119 464 -14
28 -37 73 -51 100 -13 27 -29 52 -35 56 -6 4 -15 17 -20 28 -17 39 -108 175
-136 205 -7 6 -16 21 -19 32 -3 11 -11 20 -16 20 -5 0 -9 8 -9 18 -1 9 -18 36
-39 60 -40 43 -69 56 -56 25z m135 -299 c0 -8 3 -14 8 -14 4 0 13 -13 20 -28
6 -16 20 -37 30 -48 18 -21 62 -103 62 -117 0 -5 8 -21 19 -35 10 -15 21 -39
25 -54 6 -26 6 -26 -42 -9 -48 18 -147 26 -166 13 -17 -11 -80 -31 -84 -27 -2
2 4 21 13 42 37 83 75 202 75 234 0 42 11 68 26 62 8 -3 14 -11 14 -19z m104
-389 c38 -14 70 -25 71 -25 16 0 47 -48 60 -94 25 -84 10 -166 -35 -203 -60
-49 -238 -89 -266 -60 -4 4 -16 7 -26 7 -29 0 -101 80 -115 127 -28 93 -8 160
61 211 89 66 146 75 250 37z m200 -490 c0 -96 -5 -141 -17 -174 -9 -24 -15
-47 -12 -51 3 -5 1 -11 -5 -15 -5 -3 -10 -13 -10 -22 0 -23 -57 -71 -98 -83
-55 -16 -192 -40 -229 -40 -89 0 -177 49 -188 107 -3 16 -10 41 -15 56 -15 46
-4 57 46 50 51 -7 120 18 129 47 3 10 12 21 20 24 8 3 15 12 15 21 0 8 4 15 9
15 6 0 13 20 17 45 3 25 9 45 13 45 67 4 131 16 150 29 13 8 30 16 37 17 19 3
76 45 98 72 18 23 20 23 30 6 7 -12 11 -71 10 -149z"/>
<path d="M328 782 c-40 -18 -53 -52 -20 -52 10 0 23 -5 29 -11 6 -6 36 -10 67
-10 62 0 86 15 86 54 0 19 -6 26 -31 31 -50 10 -91 6 -131 -12z"/>
<path d="M62 1284 c-11 -12 -9 -14 8 -14 11 0 20 4 20 9 0 17 -15 19 -28 5z"/>
</g>
</svg>
