<svg version="1.0" xmlns="http://www.w3.org/2000/svg"
 width="58.000000pt" height="80.000000pt" viewBox="0 0 58.000000 80.000000"
 preserveAspectRatio="xMidYMid meet">
<metadata>
Created by potrace 1.15, written by Peter Selinger 2001-2017
</metadata>
<g transform="translate(0.000000,80.000000) scale(0.100000,-0.100000)"
fill="#000000" stroke="none">
<path d="M108 588 c-2 -26 -8 -33 -35 -40 -61 -16 -55 -101 7 -122 41 -13 54
-46 18 -46 -13 0 -34 -7 -47 -16 -19 -14 -22 -23 -18 -51 8 -46 23 -63 59 -63
25 0 29 -4 26 -22 -2 -14 -13 -24 -31 -29 -50 -13 -57 -26 -57 -101 0 -61 2
-69 18 -66 13 2 18 15 20 60 3 56 20 86 42 73 5 -3 10 -35 10 -71 0 -35 4 -64
9 -64 11 0 21 50 21 101 0 31 4 39 18 39 29 0 42 -21 42 -68 0 -65 24 -49 28
18 3 58 -5 69 -58 80 -16 3 -26 13 -28 28 -3 18 1 22 26 22 38 0 62 28 62 73
0 40 -19 57 -64 57 -19 0 -26 5 -26 20 0 14 9 21 35 26 40 7 65 36 65 76 0 36
-24 58 -66 58 -31 0 -34 3 -34 30 0 23 -5 30 -19 30 -15 0 -21 -8 -23 -32z
m97 -98 c0 -23 -4 -25 -51 -28 -54 -3 -82 14 -70 43 4 13 18 15 63 13 54 -3
58 -5 58 -28z m-4 -156 c23 -28 -1 -49 -56 -49 -34 0 -51 5 -58 17 -17 27 9
48 58 48 27 0 47 -6 56 -16z"/>
<path d="M331 553 c-54 -61 -55 -75 -3 -94 24 -9 24 -10 6 -37 -32 -49 -45
-80 -59 -149 -24 -113 -16 -239 14 -208 5 6 11 55 14 110 5 112 27 193 64 226
23 23 23 23 62 -15 45 -44 57 -80 67 -209 7 -87 16 -109 37 -88 13 13 -10 234
-29 271 -6 14 -30 36 -53 50 -22 14 -41 28 -41 32 0 4 20 23 45 43 35 30 43
41 35 54 -10 20 -81 71 -97 71 -6 0 -34 -26 -62 -57z m109 -8 c8 -9 9 -19 4
-23 -5 -4 -21 -18 -36 -31 -25 -22 -30 -23 -53 -11 -34 18 -31 32 13 58 44 26
56 27 72 7z"/>
<path d="M410 281 c-13 -24 -38 -28 -46 -6 -4 8 -12 15 -20 15 -18 0 -20 -130
-2 -148 7 -7 29 -12 50 -12 48 0 60 21 56 102 -3 65 -18 84 -38 49z m10 -58
c0 -42 -13 -64 -34 -61 -21 3 -33 36 -22 64 8 21 56 18 56 -3z"/>
</g>
</svg>
