<svg version="1.0" xmlns="http://www.w3.org/2000/svg"
 width="65.000000pt" height="121.000000pt" viewBox="0 0 65.000000 121.000000"
 preserveAspectRatio="xMidYMid meet">
<metadata>
Created by potrace 1.15, written by Peter Selinger 2001-2017
</metadata>
<g transform="translate(0.000000,121.000000) scale(0.100000,-0.100000)"
fill="#000000" stroke="none">
<path d="M114 985 c-4 -9 -5 -72 -2 -140 4 -95 9 -130 23 -152 21 -33 55 -62
73 -63 7 0 31 -11 53 -26 35 -22 40 -29 37 -57 -3 -31 -4 -32 -65 -39 -68 -7
-83 -13 -83 -31 0 -19 58 -47 95 -47 58 0 65 -7 65 -65 0 -60 0 -61 -111 -71
-46 -5 -68 -3 -73 5 -4 6 -10 46 -13 89 -5 78 -27 142 -50 142 -16 0 -16 -1
-13 -138 1 -77 -2 -117 -10 -127 -10 -11 -10 -18 -1 -29 7 -8 16 -42 22 -77
16 -99 47 -118 214 -126 93 -4 255 14 255 29 0 4 9 8 19 8 31 0 61 51 61 104
0 82 -21 300 -32 328 -15 40 -36 55 -53 37 -10 -11 -12 -35 -6 -109 4 -52 6
-97 5 -98 -5 -7 -79 -22 -106 -22 -27 0 -28 1 -28 58 0 57 0 57 45 81 66 35
55 81 -19 81 -23 0 -26 4 -26 35 0 29 5 36 35 51 19 9 54 33 77 54 51 44 67
91 69 198 2 63 -1 76 -21 97 -45 48 -57 35 -65 -62 -4 -49 -9 -95 -11 -104 -6
-20 -60 -79 -73 -79 -5 0 -15 26 -21 58 -16 76 -33 107 -62 107 -22 0 -23 -3
-26 -93 -3 -94 -3 -94 -28 -88 -13 4 -36 16 -49 28 -23 20 -25 28 -25 118 0
87 -2 98 -22 117 -36 32 -48 36 -54 18z m414 -792 c-3 -41 -11 -45 -133 -64
-171 -27 -250 -18 -261 27 -10 38 2 57 26 44 11 -6 43 -8 73 -5 28 3 101 9
160 14 59 5 111 11 114 15 16 15 24 3 21 -31z"/>
</g>
</svg>
