<svg version="1.0" xmlns="http://www.w3.org/2000/svg"
 width="47.000000pt" height="93.000000pt" viewBox="0 0 47.000000 93.000000"
 preserveAspectRatio="xMidYMid meet">
<metadata>
Created by potrace 1.15, written by Peter Selinger 2001-2017
</metadata>
<g transform="translate(0.000000,93.000000) scale(0.100000,-0.100000)"
fill="#000000" stroke="none">
<path d="M157 783 c-12 -11 -7 -142 6 -166 6 -12 20 -29 30 -38 15 -15 17 -32
15 -125 -3 -109 -3 -109 -30 -112 -19 -2 -28 2 -33 17 -3 12 -3 26 0 31 4 6
-1 22 -10 36 -24 38 -45 15 -45 -49 0 -51 18 -264 26 -304 5 -28 24 -30 31 -3
5 18 14 20 79 20 40 0 76 -4 79 -10 9 -15 22 -12 29 5 8 23 49 284 50 325 2
58 -26 44 -43 -22 -16 -62 -23 -69 -64 -61 -27 5 -27 6 -27 95 0 94 5 109 62
176 22 26 28 43 28 80 0 89 -33 97 -44 10 -8 -57 -24 -87 -36 -67 -4 6 -5 47
-3 90 5 67 3 79 -10 79 -15 0 -20 -13 -32 -98 -10 -62 -25 -41 -25 34 0 47 -4
64 -13 64 -8 0 -17 -3 -20 -7z m116 -513 c37 0 37 0 37 -57 0 -79 -7 -87 -66
-79 -97 14 -94 12 -94 75 0 32 3 61 8 65 4 4 23 5 42 2 19 -3 52 -6 73 -6z"/>
</g>
</svg>
