<svg version="1.0" xmlns="http://www.w3.org/2000/svg"
 width="43.000000pt" height="67.000000pt" viewBox="0 0 43.000000 67.000000"
 preserveAspectRatio="xMidYMid meet">
<metadata>
Created by potrace 1.15, written by Peter Selinger 2001-2017
</metadata>
<g transform="translate(0.000000,67.000000) scale(0.100000,-0.100000)"
fill="#000000" stroke="none">
<path d="M267 533 c-4 -3 -7 -29 -7 -57 0 -59 -8 -96 -21 -96 -5 0 -9 20 -9
45 0 25 -4 45 -10 45 -5 0 -10 9 -10 20 0 11 -4 20 -9 20 -14 0 -21 -28 -21
-87 0 -48 -2 -53 -15 -39 -8 8 -15 31 -15 51 0 37 -32 95 -52 95 -7 0 -9 -25
-6 -74 5 -77 23 -115 63 -132 12 -6 20 -19 20 -34 0 -22 -6 -26 -50 -36 -50
-10 -50 -10 -49 -62 2 -79 11 -100 53 -126 21 -13 46 -32 55 -42 10 -9 21 -13
24 -8 4 5 29 20 57 34 77 39 85 50 85 124 0 73 -6 96 -26 96 -13 0 -20 -19
-26 -70 -3 -24 -10 -26 -59 -21 -20 2 -4 35 20 41 30 7 40 30 14 30 -22 0 -43
18 -43 37 0 7 19 34 42 59 39 42 41 49 41 104 0 67 -22 108 -46 83z m-80 -337
c-2 -6 -16 -12 -30 -14 -21 -3 -27 1 -27 16 0 15 6 18 30 14 17 -2 29 -9 27
-16z m87 -80 c-15 -39 -88 -43 -127 -8 -25 22 -9 28 66 24 48 -3 64 -7 61 -16z"/>
</g>
</svg>
