<svg version="1.0" xmlns="http://www.w3.org/2000/svg"
 width="41.000000pt" height="83.000000pt" viewBox="0 0 41.000000 83.000000"
 preserveAspectRatio="xMidYMid meet">
<metadata>
Created by potrace 1.15, written by Peter Selinger 2001-2017
</metadata>
<g transform="translate(0.000000,83.000000) scale(0.100000,-0.100000)"
fill="#000000" stroke="none">
<path d="M321 653 c-6 -21 -11 -59 -11 -86 0 -46 -32 -117 -54 -117 -4 0 -5
29 -1 64 4 44 3 72 -6 87 -12 23 -12 23 -21 -1 -5 -13 -12 -59 -15 -102 -3
-43 -10 -78 -14 -78 -5 0 -9 7 -9 15 0 8 -3 15 -8 15 -19 0 -36 49 -34 103 3
56 -11 102 -27 93 -5 -3 -11 -36 -14 -73 -5 -70 7 -118 38 -149 37 -38 65 -83
65 -107 0 -23 -5 -26 -37 -29 -51 -4 -53 -26 -4 -45 28 -11 41 -22 41 -35 0
-17 -7 -19 -57 -16 -58 3 -58 3 -63 77 -5 78 -23 104 -34 50 -10 -53 -7 -216
6 -244 8 -18 19 -25 40 -25 15 0 29 1 31 2 1 1 11 -3 22 -9 11 -6 52 -14 91
-17 68 -6 72 -5 88 18 10 15 16 46 16 78 0 29 5 70 10 90 9 30 7 45 -6 75 -17
38 -17 38 -30 -12 -6 -27 -13 -62 -13 -77 -1 -25 -3 -27 -33 -21 -41 7 -41 7
-33 32 3 12 15 21 26 21 25 0 25 27 -1 35 -17 5 -20 15 -20 64 0 56 1 58 50
101 50 45 50 45 50 147 0 108 -12 139 -29 76z m-88 -525 c77 -2 77 -2 77 -32
0 -29 0 -29 -69 -23 -80 7 -141 29 -141 52 0 13 6 15 28 11 15 -3 62 -7 105
-8z"/>
</g>
</svg>
