<svg version="1.0" xmlns="http://www.w3.org/2000/svg"
 width="61.000000pt" height="103.000000pt" viewBox="0 0 61.000000 103.000000"
 preserveAspectRatio="xMidYMid meet">
<metadata>
Created by potrace 1.15, written by Peter Selinger 2001-2017
</metadata>
<g transform="translate(0.000000,103.000000) scale(0.100000,-0.100000)"
fill="#000000" stroke="none">
<path d="M417 763 c-4 -3 -7 -18 -7 -33 0 -14 -7 -35 -15 -46 -13 -18 -14 -18
-21 13 -16 81 -55 59 -119 -67 -28 -57 -46 -106 -50 -145 -8 -65 -28 -105 -52
-105 -12 0 -14 15 -12 78 2 78 -6 116 -22 106 -5 -3 -9 -23 -9 -44 0 -21 -4
-42 -10 -45 -24 -15 -3 -145 23 -145 6 0 7 -21 3 -52 -13 -93 -12 -181 1 -185
13 -5 19 15 27 87 3 25 5 46 5 48 2 8 31 -28 31 -37 0 -17 22 -24 31 -10 14
22 10 65 -7 80 -21 17 -35 55 -27 74 10 28 35 11 52 -35 17 -47 43 -60 49 -25
2 11 9 39 17 63 22 66 0 101 -25 41 -12 -27 -15 -29 -28 -15 -8 8 -17 32 -19
54 -3 34 1 44 36 81 51 55 57 71 26 71 -14 0 -25 2 -25 5 0 13 46 94 53 95 5
0 16 -18 24 -39 21 -54 39 -59 61 -14 9 20 22 34 27 33 6 -2 17 -30 25 -63 8
-32 20 -57 25 -56 13 5 11 69 -3 116 -7 21 -16 57 -22 81 -10 38 -26 52 -43
35z"/>
<path d="M390 484 c0 -14 11 -42 25 -62 28 -42 30 -57 10 -92 -14 -25 -14 -25
-15 11 0 38 -21 66 -41 54 -16 -10 -1 -134 18 -153 13 -13 19 -10 54 28 22 24
42 55 46 69 3 14 9 31 14 36 11 14 20 100 13 119 -6 16 -33 22 -35 9 -1 -5 -3
-21 -5 -37 -3 -30 -14 -47 -20 -31 -10 26 -45 75 -54 75 -5 0 -10 -11 -10 -26z"/>
</g>
</svg>
