<svg version="1.0" xmlns="http://www.w3.org/2000/svg"
 width="73.000000pt" height="111.000000pt" viewBox="0 0 73.000000 111.000000"
 preserveAspectRatio="xMidYMid meet">
<metadata>
Created by potrace 1.15, written by Peter Selinger 2001-2017
</metadata>
<g transform="translate(0.000000,111.000000) scale(0.100000,-0.100000)"
fill="#000000" stroke="none">
<path d="M337 950 c-12 -39 -46 -117 -91 -210 -39 -82 -41 -89 -41 -185 0 -76
-4 -107 -16 -126 -9 -14 -18 -33 -20 -44 -6 -29 -22 -22 -43 19 -18 34 -19 43
-8 107 15 85 16 169 2 169 -5 0 -10 -11 -10 -24 0 -14 -5 -37 -11 -53 -7 -20
-7 -29 1 -31 7 -3 8 -8 1 -16 -6 -6 -14 -31 -19 -54 -8 -34 -6 -53 8 -92 10
-27 25 -57 34 -66 13 -13 15 -27 10 -63 -4 -25 -11 -56 -15 -69 -12 -30 -12
-122 0 -122 10 0 18 29 31 108 5 30 11 57 15 60 4 4 22 -11 41 -32 19 -21 37
-36 40 -34 5 5 -24 63 -51 101 -14 20 -11 44 11 94 20 45 30 47 44 12 7 -17
18 -36 24 -42 7 -7 19 -23 28 -35 16 -24 16 -24 28 -2 19 35 41 131 35 151 -4
11 -12 19 -20 19 -15 0 -28 -27 -20 -41 9 -14 -6 -79 -19 -79 -12 1 -46 62
-46 83 0 7 10 23 23 37 12 14 28 39 36 55 7 17 17 38 22 47 12 23 12 75 0 63
-4 -6 -19 -30 -32 -55 -13 -25 -27 -47 -30 -50 -3 -3 -11 -15 -18 -27 -20 -39
-31 -26 -31 37 0 56 16 109 53 175 6 11 19 38 30 59 14 30 21 36 28 25 5 -8 9
-24 9 -37 0 -29 17 -62 31 -62 7 0 9 10 4 28 -10 41 -25 121 -34 177 -6 43 -8
47 -14 25z"/>
<path d="M476 912 c-4 -17 -2 -57 4 -90 9 -43 9 -69 1 -98 -13 -46 -14 -104
-3 -104 4 0 16 20 26 45 19 45 19 45 68 -54 41 -83 47 -104 38 -121 -15 -28
-24 -25 -41 12 -8 17 -19 33 -26 35 -11 4 -8 -11 17 -102 7 -22 -44 -105 -64
-105 -3 0 -6 14 -6 31 0 39 -20 109 -32 109 -12 0 -10 -172 3 -209 13 -37 29
-41 29 -7 0 14 15 41 35 63 68 76 75 84 75 90 0 3 14 21 30 40 37 41 37 57 4
130 -15 32 -33 74 -40 93 -8 19 -21 48 -29 63 -8 16 -15 35 -15 44 0 29 -31
118 -49 142 -19 24 -19 24 -25 -7z"/>
</g>
</svg>
