<svg version="1.0" xmlns="http://www.w3.org/2000/svg"
 width="69.000000pt" height="88.000000pt" viewBox="0 0 69.000000 88.000000"
 preserveAspectRatio="xMidYMid meet">
<metadata>
Created by potrace 1.15, written by Peter Selinger 2001-2017
</metadata>
<g transform="translate(0.000000,88.000000) scale(0.100000,-0.100000)"
fill="#000000" stroke="none">
<path d="M410 663 c-8 -4 -29 -17 -47 -30 -18 -14 -48 -33 -68 -43 -35 -18
-35 -18 -64 11 -24 23 -38 29 -73 29 -24 0 -54 -7 -66 -16 -22 -15 -22 -17
-22 -295 0 -226 3 -279 13 -279 31 0 37 45 40 285 2 240 2 240 28 243 15 2 34
-4 43 -14 15 -14 17 -44 15 -257 -1 -246 2 -265 36 -237 12 10 15 53 15 249 0
236 0 236 40 238 40 1 40 1 40 -42 0 -42 -1 -44 -32 -47 -21 -2 -33 -8 -33
-18 0 -12 20 -15 105 -18 58 -1 132 1 165 5 51 7 60 11 60 28 0 16 -7 20 -35
20 -33 0 -35 2 -33 29 4 47 10 56 42 56 16 0 33 5 37 11 8 14 -34 48 -59 49
-10 0 -40 11 -67 25 -52 26 -56 27 -80 18z m78 -116 c4 -60 -9 -77 -59 -77
-39 0 -39 0 -39 55 0 61 14 77 65 72 28 -2 30 -5 33 -50z"/>
<path d="M549 393 c0 -5 -1 -61 -2 -125 -1 -64 -5 -119 -9 -123 -6 -6 -49 -13
-205 -31 -28 -3 -43 -10 -43 -20 0 -11 19 -14 98 -14 132 0 168 11 187 57 15
36 22 214 9 247 -6 16 -34 23 -35 9z"/>
<path d="M317 373 c-4 -3 -7 -44 -7 -89 0 -77 2 -84 26 -103 48 -38 144 -16
155 35 13 57 10 141 -6 154 -18 15 -35 5 -35 -21 0 -14 -7 -19 -29 -19 -16 0
-36 -3 -44 -6 -10 -3 -18 5 -25 25 -11 30 -22 38 -35 24z m140 -99 c9 -24 -14
-63 -42 -70 -33 -8 -55 11 -55 47 0 21 6 29 23 32 46 9 68 6 74 -9z"/>
</g>
</svg>
