<svg version="1.0" xmlns="http://www.w3.org/2000/svg"
 width="65.000000pt" height="93.000000pt" viewBox="0 0 65.000000 93.000000"
 preserveAspectRatio="xMidYMid meet">
<metadata>
Created by potrace 1.15, written by Peter Selinger 2001-2017
</metadata>
<g transform="translate(0.000000,93.000000) scale(0.100000,-0.100000)"
fill="#000000" stroke="none">
<path d="M311 708 c-10 -26 -60 -74 -146 -142 -94 -74 -116 -122 -69 -152 44
-29 58 -70 56 -165 -1 -48 -9 -106 -17 -129 -24 -67 -20 -78 16 -44 49 47 73
108 77 201 4 78 3 84 -27 127 -43 62 -41 78 14 114 11 7 34 21 50 32 17 10 35
23 41 28 6 5 24 13 41 16 25 6 34 3 49 -16 11 -13 34 -34 51 -46 32 -23 32
-23 26 -132 -4 -77 -2 -123 7 -157 16 -58 60 -127 72 -115 12 12 13 86 3 180
-5 45 -4 82 2 95 45 97 45 131 -2 174 -19 18 -48 39 -64 48 -16 8 -38 25 -48
37 -10 13 -30 29 -45 37 -16 8 -28 18 -28 23 0 4 -11 8 -25 8 -17 0 -28 -7
-34 -22z"/>
</g>
</svg>
