<svg version="1.0" xmlns="http://www.w3.org/2000/svg"
 width="55.000000pt" height="79.000000pt" viewBox="0 0 55.000000 79.000000"
 preserveAspectRatio="xMidYMid meet">
<metadata>
Created by potrace 1.15, written by Peter Selinger 2001-2017
</metadata>
<g transform="translate(0.000000,79.000000) scale(0.100000,-0.100000)"
fill="#000000" stroke="none">
<path d="M240 644 c-6 -14 -10 -58 -10 -97 0 -72 0 -72 -70 -147 -70 -75 -90
-118 -50 -105 17 6 20 2 20 -29 0 -20 -4 -44 -9 -54 -22 -42 -42 -94 -38 -99
10 -9 44 21 70 62 36 56 57 119 57 167 0 38 17 68 40 68 6 0 22 -11 35 -25 21
-20 25 -34 25 -82 0 -32 6 -74 13 -93 32 -86 50 -121 61 -117 15 5 9 109 -7
122 -14 11 -11 95 3 95 5 0 24 -9 42 -19 30 -19 48 -19 48 -1 0 9 -75 86 -138
142 -42 37 -42 37 -42 112 0 77 -12 126 -30 126 -6 0 -15 -12 -20 -26z"/>
</g>
</svg>
