<svg version="1.0" xmlns="http://www.w3.org/2000/svg"
 width="67.000000pt" height="67.000000pt" viewBox="0 0 67.000000 67.000000"
 preserveAspectRatio="xMidYMid meet">
<metadata>
Created by potrace 1.15, written by Peter Selinger 2001-2017
</metadata>
<g transform="translate(0.000000,67.000000) scale(0.100000,-0.100000)"
fill="#000000" stroke="none">
<path d="M336 593 c-6 -14 -5 -15 5 -6 7 7 10 15 7 18 -3 3 -9 -2 -12 -12z"/>
<path d="M296 545 c-9 -35 -66 -110 -96 -127 -14 -7 -34 -21 -44 -30 -11 -10
-26 -18 -33 -18 -7 0 -13 -4 -13 -9 0 -5 -10 -12 -23 -15 -22 -7 -22 -7 1 -16
12 -5 28 -8 35 -6 71 22 69 25 64 -81 -3 -54 -8 -115 -12 -135 -6 -34 -5 -38
13 -38 31 0 55 84 61 215 6 111 6 111 49 150 24 21 47 34 50 29 4 -5 27 -20
52 -33 64 -35 70 -44 70 -100 0 -52 15 -132 31 -163 5 -10 9 -27 9 -37 0 -11
5 -23 10 -26 6 -3 10 -17 10 -31 0 -14 6 -24 14 -24 19 0 30 34 18 57 -5 10
-13 51 -17 91 -6 66 -5 72 11 73 16 0 15 2 -3 9 -17 7 -23 17 -23 42 0 33 0
33 61 30 58 -4 61 -3 57 19 -2 17 -12 25 -38 31 -19 5 -39 10 -45 12 -5 2 -13
4 -18 5 -28 4 -150 76 -185 110 -24 23 -47 41 -51 41 -5 0 -12 -11 -15 -25z"/>
</g>
</svg>
