<svg version="1.0" xmlns="http://www.w3.org/2000/svg"
 width="51.000000pt" height="73.000000pt" viewBox="0 0 51.000000 73.000000"
 preserveAspectRatio="xMidYMid meet">
<metadata>
Created by potrace 1.15, written by Peter Selinger 2001-2017
</metadata>
<g transform="translate(0.000000,73.000000) scale(0.100000,-0.100000)"
fill="#000000" stroke="none">
<path d="M201 678 c-38 -100 -77 -186 -93 -204 -22 -25 -24 -64 -3 -64 22 0
30 -43 29 -162 0 -70 -5 -112 -13 -122 -13 -16 -7 -36 10 -36 5 0 12 8 16 17
3 10 15 30 25 45 35 50 43 128 23 220 -17 82 -17 82 11 140 31 62 39 69 49 39
3 -11 19 -34 36 -52 34 -36 33 -32 14 -95 -20 -68 -19 -104 11 -214 14 -52 28
-105 31 -117 7 -28 20 -30 28 -4 7 22 -2 145 -15 205 -9 41 3 135 22 169 15
28 3 57 -51 131 -28 37 -53 77 -57 89 -13 42 -59 51 -73 15z"/>
</g>
</svg>
