<svg version="1.0" xmlns="http://www.w3.org/2000/svg"
 width="65.000000pt" height="85.000000pt" viewBox="0 0 65.000000 85.000000"
 preserveAspectRatio="xMidYMid meet">
<metadata>
Created by potrace 1.15, written by Peter Selinger 2001-2017
</metadata>
<g transform="translate(0.000000,85.000000) scale(0.100000,-0.100000)"
fill="#000000" stroke="none">
<path d="M294 605 c-4 -8 -3 -30 0 -48 6 -32 6 -32 -94 -80 -106 -51 -160 -89
-160 -113 0 -20 4 -19 68 25 62 43 111 65 121 56 10 -11 7 -216 -4 -225 -5 -4
-41 -13 -79 -19 -75 -11 -90 -19 -77 -40 7 -11 21 -11 82 -1 121 20 119 17
119 174 0 134 0 134 31 140 17 3 44 6 60 6 29 0 29 0 29 -129 0 -71 4 -141 10
-155 9 -24 14 -26 79 -26 39 0 73 5 76 11 11 17 -2 22 -52 23 -27 1 -54 5 -60
9 -14 9 -19 237 -5 237 12 0 76 -41 95 -61 19 -20 42 -25 51 -10 11 17 -126
110 -206 140 -22 8 -28 17 -28 40 0 16 -3 36 -6 45 -8 20 -43 21 -50 1z"/>
</g>
</svg>
