<svg version="1.0" xmlns="http://www.w3.org/2000/svg"
 width="91.000000pt" height="129.000000pt" viewBox="0 0 91.000000 129.000000"
 preserveAspectRatio="xMidYMid meet">
<metadata>
Created by potrace 1.15, written by Peter Selinger 2001-2017
</metadata>
<g transform="translate(0.000000,129.000000) scale(0.100000,-0.100000)"
fill="#000000" stroke="none">
<path d="M822 1138 c-5 -7 -15 -32 -21 -55 -6 -24 -15 -60 -21 -82 -5 -21 -10
-108 -10 -193 0 -169 1 -166 -68 -205 -29 -17 -29 -18 -36 22 -8 42 -30 65
-61 65 -27 0 -35 -15 -28 -55 17 -102 17 -98 -26 -125 -23 -14 -41 -27 -41
-31 0 -8 47 -29 65 -29 7 0 15 6 18 13 2 6 7 -7 11 -30 9 -48 17 -57 46 -48
17 5 20 15 20 65 0 54 2 61 28 76 15 9 40 26 55 36 43 30 52 13 51 -95 -1
-120 -8 -144 -60 -194 -44 -42 -44 -42 -74 -25 -38 22 -52 9 -41 -41 9 -36 8
-38 -35 -68 -24 -16 -44 -35 -44 -41 0 -10 48 -7 95 7 16 5 23 -2 37 -35 13
-31 22 -40 41 -40 29 0 41 23 27 49 -5 10 -7 21 -4 23 2 3 0 17 -6 32 -9 25
-5 31 51 87 103 104 118 186 75 409 -19 101 -24 316 -7 347 6 12 11 30 11 40
0 11 10 29 21 42 16 17 18 26 10 34 -6 6 -11 21 -11 34 0 19 -5 23 -29 23 -16
0 -33 -6 -39 -12z"/>
<path d="M409 778 c0 -7 0 -45 1 -84 1 -51 -2 -71 -12 -73 -7 -1 -39 -4 -70
-7 -58 -6 -58 -6 -58 51 0 57 -6 69 -49 93 -19 11 -26 11 -47 -3 -25 -16 -31
-39 -14 -50 15 -9 13 -105 -2 -110 -7 -2 -30 -6 -51 -8 -21 -3 -41 -8 -45 -11
-13 -13 36 -47 69 -48 43 -1 49 -10 49 -80 0 -64 -13 -78 -70 -78 -19 0 -33
-6 -37 -16 -8 -20 11 -32 65 -40 23 -3 42 -7 43 -8 0 0 3 -32 5 -71 6 -86 7
-91 34 -98 18 -4 24 1 36 29 8 19 14 40 13 47 -1 7 -1 31 0 53 1 42 1 42 72
49 39 4 75 3 80 -2 4 -4 9 -37 10 -73 1 -36 6 -70 11 -76 11 -15 48 -6 48 12
0 8 5 14 10 14 6 0 10 30 10 70 0 46 4 70 11 70 14 0 38 30 39 47 0 6 -13 14
-29 18 -24 5 -30 13 -35 43 -11 68 -7 112 9 112 18 0 65 29 65 40 0 4 -18 15
-40 26 -40 19 -40 19 -40 85 0 37 -5 70 -12 77 -16 16 -68 15 -69 0z m6 -251
c4 -13 5 -48 3 -78 -3 -54 -3 -54 -75 -57 -73 -3 -73 -3 -73 72 0 50 4 76 13
79 6 3 38 6 69 6 52 1 58 -1 63 -22z"/>
</g>
</svg>
