<svg version="1.0" xmlns="http://www.w3.org/2000/svg"
 width="66.000000pt" height="88.000000pt" viewBox="0 0 66.000000 88.000000"
 preserveAspectRatio="xMidYMid meet">
<metadata>
Created by potrace 1.15, written by Peter Selinger 2001-2017
</metadata>
<g transform="translate(0.000000,88.000000) scale(0.100000,-0.100000)"
fill="#000000" stroke="none">
<path d="M245 694 c-22 -11 -35 -13 -53 -5 -34 16 -36 14 -13 -15 15 -19 21
-41 21 -76 0 -45 -2 -49 -22 -46 -15 2 -24 15 -34 49 -13 43 -38 78 -49 67 -3
-2 0 -18 5 -34 5 -16 12 -45 15 -65 5 -35 7 -37 55 -41 27 -3 66 -2 87 1 36 6
38 8 45 55 4 27 14 53 24 60 9 7 15 18 13 25 -8 23 -46 -18 -59 -64 -9 -33
-17 -45 -29 -43 -28 5 -26 68 3 111 14 20 24 37 23 37 -1 0 -15 -7 -32 -16z"/>
<path d="M414 678 c22 -30 27 -45 24 -85 -3 -40 -6 -48 -23 -48 -15 0 -22 10
-31 45 -6 27 -17 46 -27 48 -13 3 -15 -3 -10 -35 12 -74 18 -83 65 -85 112 -3
148 13 148 67 0 20 5 44 12 55 7 10 9 22 5 26 -13 13 -37 -19 -37 -50 -1 -39
-31 -81 -54 -73 -33 13 -12 145 26 160 7 3 3 6 -9 6 -12 1 -25 -4 -29 -10 -6
-11 -32 -9 -68 7 -16 6 -15 1 8 -28z"/>
<path d="M258 469 c-32 -32 -34 -39 -13 -39 10 0 15 -10 15 -30 0 -27 -3 -30
-30 -30 -26 0 -30 3 -30 29 0 16 6 32 13 35 9 3 7 9 -5 19 -10 8 -18 19 -18
26 0 19 -17 12 -23 -9 -4 -16 -14 -20 -44 -20 -28 0 -34 -3 -23 -10 8 -5 27
-10 43 -10 23 0 27 -4 27 -29 0 -29 -2 -30 -52 -33 -29 -2 -53 -7 -53 -13 0
-5 24 -11 53 -13 44 -3 52 -6 52 -23 0 -25 16 -24 32 1 8 13 24 20 44 20 45 0
94 11 94 21 0 5 -11 9 -25 9 -22 0 -25 4 -25 35 0 31 3 35 28 36 27 1 27 1 0
12 -15 6 -28 18 -30 28 -2 14 -8 12 -30 -12z"/>
<path d="M432 430 c-23 -17 -42 -34 -42 -40 0 -5 11 -21 24 -37 23 -27 24 -28
6 -53 -23 -32 -34 -70 -21 -70 5 0 19 16 31 35 23 38 40 44 60 20 17 -21 -3
-68 -37 -86 -27 -15 -73 -79 -73 -102 0 -7 11 -24 24 -36 23 -22 24 -22 53 -4
35 21 123 98 123 107 0 18 -35 1 -74 -34 -87 -80 -105 -35 -21 52 30 31 55 65
55 75 0 28 -26 59 -65 77 -54 26 -55 43 -6 88 33 30 38 38 23 38 -10 0 -38
-14 -60 -30z"/>
<path d="M280 292 c0 -4 10 -12 22 -17 34 -15 33 -34 -1 -46 -38 -14 -51 -35
-51 -88 0 -59 15 -91 43 -91 31 0 47 18 47 52 0 36 -18 37 -22 1 -5 -42 -32
-36 -36 8 -4 44 13 89 32 89 9 0 23 14 32 32 16 31 16 32 -6 50 -22 18 -60 25
-60 10z"/>
<path d="M105 277 c-27 -20 -13 -65 23 -73 69 -14 92 -47 71 -102 -13 -34 -43
-25 -49 16 -6 36 -49 72 -89 72 -20 0 -21 -2 -11 -15 7 -8 18 -15 24 -15 21 0
54 -44 58 -75 3 -27 7 -30 40 -33 28 -2 40 2 52 20 19 27 20 69 4 115 -11 29
-16 33 -48 33 -58 0 -68 14 -34 44 29 25 29 25 3 26 -14 0 -33 -6 -44 -13z"/>
</g>
</svg>
