<svg version="1.0" xmlns="http://www.w3.org/2000/svg"
 width="74.000000pt" height="127.000000pt" viewBox="0 0 74.000000 127.000000"
 preserveAspectRatio="xMidYMid meet">
<metadata>
Created by potrace 1.15, written by Peter Selinger 2001-2017
</metadata>
<g transform="translate(0.000000,127.000000) scale(0.100000,-0.100000)"
fill="#000000" stroke="none">
<path d="M216 1153 c-4 -9 -9 -41 -12 -72 -5 -50 -3 -60 21 -91 26 -35 26 -35
3 -40 -23 -6 -23 -6 -28 -275 -5 -255 -10 -305 -31 -305 -12 0 -11 256 1 430
8 114 7 137 -5 150 -28 28 -42 -6 -50 -120 -7 -127 -20 -210 -27 -190 -44 119
-23 284 46 353 46 46 30 157 -22 157 -8 0 -12 -18 -12 -50 0 -48 -16 -100 -31
-100 -4 0 -17 -21 -29 -47 -19 -41 -22 -63 -21 -173 0 -144 9 -175 69 -237 25
-27 24 -22 22 -289 -1 -179 4 -214 30 -214 28 0 33 26 31 158 -2 79 1 122 8
122 19 0 62 48 71 81 6 19 10 52 10 73 0 29 10 54 37 93 28 41 37 66 41 108 3
36 9 55 18 55 7 0 34 20 61 44 47 44 69 50 58 17 -2 -9 -1 -30 4 -47 8 -29 7
-32 -25 -43 -19 -7 -46 -24 -60 -38 -23 -23 -25 -31 -19 -71 9 -60 26 -84 80
-112 53 -27 68 -65 63 -158 -3 -57 -3 -57 -48 -57 -45 0 -45 0 -48 66 -3 58
-6 67 -26 77 -13 6 -27 8 -30 5 -3 -4 -6 -36 -6 -72 0 -99 33 -140 113 -141
47 0 47 0 47 -56 0 -30 -5 -64 -10 -75 -13 -23 3 -59 26 -59 25 0 44 63 44
150 0 79 0 80 25 80 14 0 43 9 65 20 46 24 58 54 50 133 -6 63 -21 92 -44 84
-13 -5 -16 -21 -16 -80 0 -79 -7 -93 -50 -99 -25 -3 -25 -2 -30 83 -5 86 -18
119 -46 119 -8 0 -14 4 -14 9 0 5 -9 12 -19 16 -11 3 -33 18 -51 33 -27 24
-30 31 -22 53 15 39 36 50 101 56 100 9 119 -28 51 -97 -22 -22 -40 -43 -40
-45 0 -3 18 -5 41 -5 54 0 99 46 99 102 0 54 -49 98 -109 98 -35 0 -42 3 -37
16 3 9 6 36 6 60 0 45 0 45 43 15 23 -16 52 -39 65 -51 26 -24 50 -23 66 3 9
15 6 22 -14 38 -14 10 -29 23 -35 27 -5 4 -36 21 -68 36 -63 31 -68 47 -19 57
17 3 43 14 57 23 23 15 25 23 25 85 0 54 -4 70 -16 75 -35 13 -41 6 -48 -54
-6 -54 -24 -90 -45 -90 -11 0 -21 52 -21 111 0 59 -14 69 -94 69 -41 0 -56 -4
-56 -14 0 -15 21 -26 51 -26 24 0 39 -36 39 -96 0 -35 -3 -44 -17 -44 -32 1
-53 26 -59 74 -6 40 -10 46 -30 46 -21 0 -24 -5 -24 -36 0 -20 5 -54 11 -74
11 -37 29 -50 104 -75 19 -6 18 -8 -10 -31 -16 -13 -46 -40 -66 -59 -20 -19
-38 -35 -41 -35 -3 0 -9 37 -13 83 -6 79 -19 114 -59 172 -17 23 -18 34 -10
76 7 33 7 52 0 59 -15 15 -33 12 -40 -7z m57 -247 c10 -26 8 -286 -3 -286 -6
0 -10 45 -10 119 0 65 -3 133 -6 150 -6 31 9 45 19 17z"/>
</g>
</svg>
