<svg version="1.0" xmlns="http://www.w3.org/2000/svg"
 width="87.000000pt" height="117.000000pt" viewBox="0 0 87.000000 117.000000"
 preserveAspectRatio="xMidYMid meet">
<metadata>
Created by potrace 1.15, written by Peter Selinger 2001-2017
</metadata>
<g transform="translate(0.000000,117.000000) scale(0.100000,-0.100000)"
fill="#000000" stroke="none">
<path d="M437 993 c-3 -31 -10 -59 -14 -62 -19 -13 -93 -128 -93 -144 0 -28
21 -20 57 23 19 22 39 40 44 40 18 0 9 -77 -12 -101 -12 -13 -33 -40 -48 -59
-14 -19 -29 -37 -32 -40 -4 -3 -18 -27 -32 -55 -21 -41 -24 -57 -18 -90 11
-57 37 -107 81 -156 21 -24 37 -45 35 -47 -2 -2 -17 4 -34 12 -33 17 -67 21
-75 8 -9 -15 35 -67 83 -98 46 -31 46 -31 46 -102 0 -38 3 -73 6 -76 15 -15
37 9 49 55 8 28 18 52 22 55 4 3 8 14 8 26 0 11 9 32 20 48 23 32 31 91 13 97
-7 3 -22 -10 -33 -29 -20 -33 -20 -33 -20 -6 0 23 11 50 51 130 5 10 9 27 9
38 0 11 5 20 10 20 6 0 16 11 22 25 6 14 14 25 17 24 12 -1 71 -90 71 -107 0
-9 -9 -32 -21 -51 -11 -18 -18 -35 -15 -38 7 -7 66 20 66 29 0 37 71 -50 119
-145 16 -32 36 -31 34 1 0 12 -1 33 -2 46 0 12 -11 34 -24 48 -13 14 -21 30
-20 35 2 6 -9 38 -26 72 -25 52 -28 69 -24 118 3 34 -1 93 -11 142 -13 70 -21
90 -48 118 -36 37 -43 40 -51 18 -6 -15 19 -103 34 -119 5 -6 9 -36 9 -68 0
-32 4 -58 10 -58 6 0 10 -9 10 -20 0 -14 -7 -20 -21 -20 -13 0 -20 6 -18 18 3
32 -1 41 -21 47 -23 7 -70 51 -70 65 0 5 -11 20 -24 33 -36 36 -55 79 -49 110
6 32 9 33 51 7 32 -20 32 -20 32 7 0 18 -13 39 -40 64 -31 29 -41 48 -44 76
-5 51 -26 93 -46 93 -14 0 -18 -12 -23 -57z m50 -310 c34 -30 56 -82 43 -99
-8 -9 -17 -11 -29 -4 -10 5 -43 6 -74 3 -41 -4 -57 -2 -57 6 0 13 81 111 91
111 3 0 15 -8 26 -17z m21 -178 c2 -2 -6 -21 -17 -44 -12 -22 -21 -47 -21 -56
0 -27 -25 -13 -69 38 -46 54 -49 63 -23 70 16 4 123 -3 130 -8z"/>
<path d="M137 813 c-4 -3 -7 -20 -7 -37 0 -17 -9 -56 -20 -86 -22 -60 -27
-113 -16 -176 5 -28 3 -53 -7 -75 -19 -46 -41 -193 -33 -224 4 -16 13 -25 25
-25 21 0 31 19 31 58 0 40 31 142 44 142 6 0 24 -19 40 -41 15 -22 33 -38 40
-36 24 8 18 66 -12 120 -26 46 -29 59 -25 112 4 49 3 58 -8 48 -20 -20 -39
-15 -39 10 0 12 9 53 19 90 15 54 17 74 8 98 -11 28 -26 36 -40 22z"/>
</g>
</svg>
