<svg version="1.0" xmlns="http://www.w3.org/2000/svg"
 width="85.000000pt" height="141.000000pt" viewBox="0 0 85.000000 141.000000"
 preserveAspectRatio="xMidYMid meet">
<metadata>
Created by potrace 1.15, written by Peter Selinger 2001-2017
</metadata>
<g transform="translate(0.000000,141.000000) scale(0.100000,-0.100000)"
fill="#000000" stroke="none">
<path d="M336 1273 c-3 -4 -6 -15 -6 -26 0 -10 -16 -47 -35 -81 -52 -92 -43
-127 17 -69 28 27 28 27 28 3 0 -32 -30 -153 -41 -165 -5 -5 -9 -15 -9 -23 0
-7 -32 -46 -70 -85 -113 -114 -124 -136 -129 -234 -3 -84 -3 -84 -37 -77 -46
9 -46 -18 1 -48 19 -13 39 -34 45 -48 10 -25 8 -111 -6 -277 -6 -71 1 -89 23
-61 18 23 25 62 32 178 6 112 7 115 29 112 12 -2 35 -10 50 -18 41 -21 46 -17
23 22 -26 44 -23 51 13 23 38 -30 86 -104 86 -133 0 -14 4 -27 9 -31 12 -7 51
33 51 52 0 13 20 54 31 63 4 3 21 35 38 72 18 37 39 72 47 79 15 12 19 49 6
49 -5 0 -34 -27 -66 -60 -33 -33 -61 -59 -63 -56 -7 7 26 66 37 66 15 0 50 76
51 112 0 18 4 41 8 52 6 16 9 16 22 5 8 -8 34 -30 59 -49 68 -53 73 -61 46
-85 -30 -27 -62 -45 -81 -45 -20 0 -19 -26 1 -34 9 -3 29 -6 45 -6 22 0 32 6
39 25 5 14 13 25 18 25 16 0 39 -38 46 -76 5 -21 12 -59 17 -84 5 -25 15 -84
22 -133 8 -48 17 -90 20 -93 4 -4 12 6 18 22 9 22 9 62 -1 169 -7 77 -15 164
-17 193 -3 30 -1 52 5 52 5 0 17 16 27 35 20 43 12 91 -18 117 -32 28 -50 23
-42 -11 8 -35 -8 -49 -21 -18 -9 21 -10 76 -3 106 6 21 -26 25 -44 6 -14 -14
-20 -12 -63 15 -27 16 -54 30 -61 30 -27 0 -53 37 -68 95 -9 31 -24 69 -34 84
-41 59 -34 90 14 58 34 -23 135 -60 143 -53 4 4 -3 15 -15 24 -137 109 -203
175 -203 206 0 23 -22 41 -34 29z m72 -376 c12 -39 22 -94 22 -121 0 -42 -2
-47 -17 -41 -10 4 -34 11 -53 14 -35 7 -35 7 -32 60 2 30 12 72 22 94 11 23
20 47 20 54 0 33 17 6 38 -60z m143 -140 c35 -32 65 -75 56 -83 -2 -2 -18 3
-36 12 -18 9 -40 14 -51 11 -20 -5 -30 16 -30 66 0 35 17 34 61 -6z m39 19 c0
-3 -4 -8 -10 -11 -5 -3 -10 -1 -10 4 0 6 5 11 10 11 6 0 10 -2 10 -4z m-340
-45 c0 -18 -34 -51 -53 -51 -8 0 8 35 27 56 16 19 26 17 26 -5z m175 -68 c-4
-16 -11 -44 -15 -63 -17 -79 -43 -113 -56 -72 -3 9 -10 26 -14 37 -5 11 -11
33 -15 49 -3 16 -8 39 -11 52 -6 23 -5 24 56 24 62 0 62 0 55 -27z m-155 -62
c0 -17 5 -33 10 -36 6 -3 10 -17 10 -30 0 -13 4 -25 8 -27 12 -5 52 -78 52
-95 0 -13 -6 -11 -27 9 -52 47 -96 71 -132 73 -30 2 -36 6 -39 28 -2 19 7 36
37 66 50 50 81 54 81 12z m110 -215 c0 -3 -4 -8 -10 -11 -5 -3 -10 -1 -10 4 0
6 5 11 10 11 6 0 10 -2 10 -4z"/>
<path d="M370 880 c0 -5 5 -10 10 -10 6 0 10 5 10 10 0 6 -4 10 -10 10 -5 0
-10 -4 -10 -10z"/>
</g>
</svg>
