<svg version="1.0" xmlns="http://www.w3.org/2000/svg"
 width="73.000000pt" height="125.000000pt" viewBox="0 0 73.000000 125.000000"
 preserveAspectRatio="xMidYMid meet">
<metadata>
Created by potrace 1.15, written by Peter Selinger 2001-2017
</metadata>
<g transform="translate(0.000000,125.000000) scale(0.100000,-0.100000)"
fill="#000000" stroke="none">
<path d="M310 998 c-11 -12 -20 -26 -20 -30 0 -5 -22 -43 -50 -85 -27 -41 -47
-79 -44 -84 3 -5 26 -9 50 -9 46 0 46 0 43 -37 -3 -40 -14 -70 -34 -89 -6 -7
-29 -39 -51 -73 -21 -33 -43 -61 -48 -61 -11 0 -2 72 19 148 13 47 14 67 6 75
-16 16 -25 2 -49 -73 -33 -106 -36 -134 -16 -175 15 -32 16 -44 6 -81 -7 -25
-12 -65 -12 -89 0 -46 25 -123 36 -112 4 3 6 36 6 72 0 57 19 135 33 135 2 0
19 -9 37 -20 18 -11 41 -20 51 -20 31 0 18 34 -23 60 -48 29 -52 61 -17 115
23 37 35 43 41 23 31 -102 39 -128 51 -154 8 -17 21 -37 30 -44 29 -24 16 -37
-47 -50 -35 -6 -66 -14 -71 -17 -10 -6 18 -33 36 -33 8 0 20 -15 27 -32 7 -18
23 -55 35 -83 15 -32 22 -60 18 -77 -4 -21 -1 -28 10 -28 23 0 40 27 33 55 -4
14 -3 25 2 25 4 0 14 20 21 45 16 56 59 103 101 111 21 5 30 12 28 22 -4 20
-54 34 -91 26 -27 -6 -28 -4 -25 28 3 28 7 33 31 36 18 2 32 12 39 28 13 28
43 32 51 7 3 -10 21 -63 41 -118 20 -55 36 -110 36 -122 0 -13 5 -23 10 -23
23 0 4 206 -21 234 -5 6 -9 18 -9 28 0 10 -4 18 -10 18 -5 0 -10 5 -10 11 0 6
-9 24 -20 39 -19 26 -19 32 -6 82 18 72 11 111 -31 153 -56 56 -73 40 -28 -27
27 -41 31 -73 13 -113 -19 -43 -41 -26 -66 52 -14 43 -36 85 -53 104 -35 38
-27 49 38 49 49 0 59 10 35 36 -10 10 -29 35 -42 54 -14 19 -37 48 -52 64 -16
16 -28 33 -28 37 0 16 -19 9 -40 -13z m60 -93 c13 -14 22 -27 19 -29 -2 -2
-26 -7 -53 -11 -48 -8 -48 -8 -36 16 16 31 31 49 39 49 4 0 18 -11 31 -25z
m-2 -162 c11 -16 23 -43 27 -60 7 -33 7 -33 -35 -33 -42 0 -42 0 -36 38 3 20
5 47 6 60 0 30 14 28 38 -5z m-28 -137 c0 -9 12 -13 37 -12 37 1 38 1 35 -35
-2 -20 -9 -57 -16 -84 -12 -48 -12 -48 -39 12 -15 33 -27 72 -27 87 0 14 -4
26 -10 26 -5 0 -10 5 -10 10 0 6 7 10 15 10 8 0 15 -6 15 -14z m150 -80 c0
-18 -24 -66 -32 -66 -11 0 -10 34 2 65 10 25 30 26 30 1z m-76 -235 c6 -9 -34
-111 -43 -111 -4 0 -7 10 -8 23 -1 12 -5 36 -8 54 -6 27 -4 32 16 36 13 2 27
5 31 6 4 0 9 -3 12 -8z"/>
</g>
</svg>
