<svg version="1.0" xmlns="http://www.w3.org/2000/svg"
 width="64.000000pt" height="80.000000pt" viewBox="0 0 64.000000 80.000000"
 preserveAspectRatio="xMidYMid meet">
<metadata>
Created by potrace 1.15, written by Peter Selinger 2001-2017
</metadata>
<g transform="translate(0.000000,80.000000) scale(0.100000,-0.100000)"
fill="#000000" stroke="none">
<path d="M333 557 c-62 -41 -78 -60 -68 -78 6 -9 19 -3 98 45 49 29 49 29 100
3 106 -53 140 -45 65 16 -88 70 -109 72 -195 14z"/>
<path d="M56 571 c-1 -3 -2 -121 -2 -261 1 -220 3 -255 16 -255 11 0 16 16 20
65 5 65 5 65 55 70 40 4 52 10 62 30 15 30 16 70 3 104 -9 24 -15 26 -65 26
-51 0 -55 2 -55 24 0 34 25 50 75 47 51 -3 65 14 65 76 0 59 -14 70 -98 76
-40 2 -74 2 -76 -2z m108 -37 c11 -4 16 -19 16 -46 0 -39 0 -39 -42 -36 -39 3
-43 6 -46 33 -5 42 30 65 72 49z m-6 -230 c19 -5 23 -12 20 -38 -3 -29 -6 -31
-45 -34 -43 -3 -43 -3 -43 37 0 36 3 41 23 41 12 0 32 -3 45 -6z"/>
<path d="M306 441 c-28 -11 -10 -18 59 -25 69 -6 137 4 143 22 3 9 -19 12 -90
11 -51 0 -102 -4 -112 -8z"/>
<path d="M281 370 c-23 -14 -1 -30 42 -30 42 -1 42 -1 -15 -54 -87 -80 -76
-103 18 -41 29 19 56 35 60 35 4 0 15 7 25 16 17 15 22 14 68 -26 53 -43 86
-49 86 -15 0 18 -31 41 -100 74 -16 8 -12 10 23 10 36 1 43 4 40 18 -3 15 -18
18 -119 20 -63 1 -121 -2 -128 -7z"/>
<path d="M348 191 c-108 -6 -125 -11 -113 -31 4 -7 22 -9 51 -4 43 6 43 6 27
-35 -15 -39 -15 -42 2 -61 15 -17 31 -20 106 -20 118 0 130 12 104 97 -6 19
-3 22 26 25 39 4 49 23 17 32 -24 6 -49 6 -220 -3z m136 -63 c7 -18 10 -37 5
-42 -8 -10 -125 -4 -135 7 -13 13 15 55 38 60 63 12 78 8 92 -25z"/>
</g>
</svg>
