<svg version="1.0" xmlns="http://www.w3.org/2000/svg"
 width="66.000000pt" height="79.000000pt" viewBox="0 0 66.000000 79.000000"
 preserveAspectRatio="xMidYMid meet">
<metadata>
Created by potrace 1.15, written by Peter Selinger 2001-2017
</metadata>
<g transform="translate(0.000000,79.000000) scale(0.100000,-0.100000)"
fill="#000000" stroke="none">
<path d="M96 722 c-3 -5 4 -26 14 -48 24 -47 26 -132 5 -222 -11 -47 -14 -92
-9 -170 6 -107 6 -107 -30 -181 -41 -85 -40 -81 -23 -81 19 1 65 84 82 150 11
43 14 85 9 157 -4 76 -2 108 10 142 20 55 20 125 0 183 -16 48 -48 86 -58 70z"/>
<path d="M250 702 c0 -5 7 -22 15 -39 13 -25 13 -43 4 -112 -11 -80 -10 -83
12 -107 22 -23 59 -33 59 -15 0 5 -11 16 -25 25 -14 9 -25 25 -25 36 0 17 5
19 33 13 32 -6 32 -6 5 24 -16 16 -28 37 -28 46 0 18 25 23 35 7 3 -5 10 -10
16 -10 14 0 11 21 -6 34 -8 6 -25 31 -38 56 -21 40 -57 67 -57 42z"/>
<path d="M407 673 c-3 -21 -18 -73 -33 -117 -28 -79 -28 -79 -5 -97 29 -24 84
-34 110 -20 43 23 36 105 -15 183 -13 21 -24 49 -24 63 0 40 -27 30 -33 -12z
m63 -160 c0 -43 0 -43 -40 -43 -33 0 -40 3 -40 20 0 16 18 79 37 130 9 24 42
-59 43 -107z"/>
<path d="M423 543 c-21 -8 -15 -43 7 -43 15 0 20 7 20 25 0 25 -4 28 -27 18z"/>
<path d="M576 694 c-3 -9 -6 -29 -6 -45 0 -23 -7 -34 -30 -47 -38 -22 -38 -35
0 -27 37 8 40 -8 8 -42 -27 -29 -18 -40 16 -18 22 15 26 15 26 2 0 -8 -10 -26
-21 -41 -12 -15 -19 -29 -16 -32 10 -11 47 17 63 48 15 28 15 35 -1 91 -10 36
-14 73 -10 93 4 26 2 34 -8 34 -8 0 -18 -7 -21 -16z"/>
<path d="M197 595 c4 -52 2 -83 -7 -99 -21 -41 -5 -55 18 -16 25 40 30 122 10
165 -20 44 -27 27 -21 -50z"/>
<path d="M55 587 c5 -38 2 -64 -10 -95 -29 -72 3 -70 36 2 23 50 24 78 4 116
-24 47 -37 37 -30 -23z"/>
<path d="M350 401 c-57 -8 -58 -25 -2 -29 34 -3 43 -7 40 -20 -2 -9 -10 -18
-18 -19 -103 -13 -124 -33 -35 -33 55 0 55 0 55 -58 0 -55 -2 -60 -45 -102
-39 -39 -57 -70 -39 -70 3 0 26 14 51 31 45 31 45 31 87 -10 38 -37 76 -54 76
-33 0 4 -20 28 -45 52 -46 45 -46 45 -43 115 3 70 3 70 65 75 34 3 65 9 69 13
16 15 -21 28 -66 23 -25 -3 -51 -2 -59 3 -24 16 -4 40 36 43 21 2 38 8 38 13
0 12 -99 15 -165 6z"/>
<path d="M186 384 c-3 -9 -6 -57 -6 -107 0 -84 -5 -117 -25 -184 -13 -42 11
-24 33 25 26 58 35 132 26 217 -7 64 -16 80 -28 49z"/>
<path d="M40 360 c-6 -11 -9 -55 -8 -97 2 -43 0 -90 -5 -105 -6 -22 -4 -28 7
-28 26 0 34 31 38 143 2 79 0 107 -9 107 -7 0 -17 -9 -23 -20z"/>
<path d="M305 250 c4 -13 -1 -34 -14 -55 -23 -40 -10 -46 25 -12 26 24 31 56
12 75 -18 18 -30 14 -23 -8z"/>
<path d="M503 262 c-6 -4 -14 -19 -18 -32 -5 -20 2 -34 28 -65 43 -49 59 -39
27 17 -18 33 -21 45 -11 59 6 10 11 21 11 24 0 7 -23 6 -37 -3z"/>
</g>
</svg>
