<svg version="1.0" xmlns="http://www.w3.org/2000/svg"
 width="71.000000pt" height="151.000000pt" viewBox="0 0 71.000000 151.000000"
 preserveAspectRatio="xMidYMid meet">
<metadata>
Created by potrace 1.15, written by Peter Selinger 2001-2017
</metadata>
<g transform="translate(0.000000,151.000000) scale(0.100000,-0.100000)"
fill="#000000" stroke="none">
<path d="M313 1365 c-46 -30 -85 -55 -88 -55 -3 0 -11 -5 -18 -10 -7 -6 -40
-28 -74 -50 -35 -22 -63 -46 -63 -53 0 -7 13 -26 30 -42 28 -27 30 -33 30
-106 0 -43 5 -91 12 -106 15 -36 75 -93 97 -93 10 0 25 -6 35 -13 17 -13 14
-15 -35 -31 -57 -18 -122 -48 -152 -70 -16 -13 -18 -40 -19 -338 0 -200 3
-332 9 -343 9 -16 11 -15 15 6 3 13 4 139 3 279 -3 359 0 374 90 400 62 19
149 52 163 63 8 6 16 6 25 0 6 -6 23 -13 37 -16 14 -3 52 -12 84 -21 91 -25
176 -32 176 -15 0 13 -23 21 -208 71 -33 9 -35 28 -2 28 21 0 67 51 75 83 3
12 -1 51 -9 87 -13 53 -14 75 -4 118 6 28 8 55 5 59 -13 12 -36 -32 -37 -69 0
-20 -4 -39 -8 -42 -11 -7 -103 42 -124 66 -12 14 -16 40 -17 103 -1 84 -1 84
32 110 19 14 39 25 45 25 7 0 12 7 12 15 0 27 -34 16 -117 -40z m-3 -113 c0
-71 -21 -117 -64 -143 -43 -27 -64 -24 -72 8 -4 15 -16 36 -26 47 -10 11 -18
25 -18 32 0 13 80 74 97 74 4 0 19 9 33 20 42 33 50 26 50 -38z m133 -202 c39
0 47 -11 47 -69 -1 -67 -15 -90 -67 -102 -48 -11 -144 -11 -161 0 -22 14 7 27
91 41 84 14 103 25 60 34 -29 6 -174 -7 -190 -17 -5 -3 -14 -3 -20 1 -15 9
-21 36 -8 37 6 1 48 5 95 9 116 10 140 15 140 32 0 12 -18 14 -102 10 -57 -3
-112 -6 -123 -8 -11 -2 -21 3 -22 13 -3 11 11 19 48 29 34 10 58 24 72 41 20
28 20 28 72 -12 28 -21 59 -39 68 -39z"/>
<path d="M550 664 c0 -11 29 -34 44 -34 12 0 16 -11 16 -46 0 -38 -5 -51 -29
-73 -34 -32 -115 -66 -136 -57 -11 4 -15 24 -15 80 0 107 -19 106 -22 -1 -3
-88 -3 -88 -40 -91 -38 -3 -38 -3 -38 67 0 71 -14 103 -23 53 -3 -15 -3 -46
-1 -69 2 -23 0 -45 -6 -48 -19 -12 -80 7 -105 32 -32 33 -35 105 -5 143 33 42
18 58 -18 20 -49 -53 -45 -141 9 -192 27 -27 47 -34 99 -40 24 -3 25 -5 25
-88 0 -93 13 -125 52 -135 69 -17 94 23 87 141 -4 81 -4 81 28 94 127 47 178
97 178 172 0 26 -7 38 -33 56 -31 20 -67 29 -67 16z m-156 -260 c13 -5 16 -22
16 -83 0 -42 -4 -82 -9 -90 -12 -19 -37 -22 -50 -7 -11 13 -23 170 -14 180 8
8 37 8 57 0z"/>
</g>
</svg>
