<svg version="1.0" xmlns="http://www.w3.org/2000/svg"
 width="55.000000pt" height="113.000000pt" viewBox="0 0 55.000000 113.000000"
 preserveAspectRatio="xMidYMid meet">
<metadata>
Created by potrace 1.15, written by Peter Selinger 2001-2017
</metadata>
<g transform="translate(0.000000,113.000000) scale(0.100000,-0.100000)"
fill="#000000" stroke="none">
<path d="M257 853 c-2 -4 -3 -74 -2 -155 1 -82 0 -148 -4 -148 -3 0 -23 34
-45 75 -46 88 -74 121 -89 106 -12 -12 -12 -14 72 -176 44 -85 44 -86 -40 -83
-51 2 -73 -1 -76 -9 -3 -8 3 -13 14 -13 11 0 24 -5 30 -11 5 -5 38 -14 73 -19
34 -5 65 -11 68 -15 3 -3 -1 -20 -10 -38 -9 -18 -30 -63 -47 -102 -18 -38 -41
-88 -52 -109 -11 -21 -17 -41 -14 -45 13 -12 41 18 66 68 30 60 50 91 60 91 4
0 9 -42 11 -94 1 -52 7 -98 11 -102 17 -18 27 26 28 131 1 71 4 101 9 85 4
-14 8 -21 9 -16 1 11 41 -24 41 -36 0 -14 52 -88 62 -88 11 0 -1 74 -13 78 -5
2 -9 12 -9 23 0 10 -4 19 -8 19 -5 0 -14 10 -21 23 -6 12 -20 36 -30 52 -11
17 -20 38 -20 48 -1 16 4 17 47 11 65 -11 86 -11 92 1 6 10 -84 45 -117 45
-13 0 -23 2 -23 5 0 3 14 33 30 67 17 34 30 69 30 79 0 10 4 20 9 23 5 3 11
20 14 38 4 18 9 48 13 67 9 44 -17 39 -31 -7 -5 -18 -13 -32 -17 -32 -4 0 -8
-10 -8 -22 0 -13 -9 -38 -20 -56 -11 -18 -20 -41 -20 -52 0 -10 -4 -22 -10
-25 -6 -4 -10 34 -10 107 0 114 -17 209 -37 215 -6 2 -13 0 -16 -4z"/>
</g>
</svg>
