<svg version="1.0" xmlns="http://www.w3.org/2000/svg"
 width="53.000000pt" height="91.000000pt" viewBox="0 0 53.000000 91.000000"
 preserveAspectRatio="xMidYMid meet">
<metadata>
Created by potrace 1.15, written by Peter Selinger 2001-2017
</metadata>
<g transform="translate(0.000000,91.000000) scale(0.100000,-0.100000)"
fill="#000000" stroke="none">
<path d="M252 713 c4 -72 -2 -173 -10 -173 -5 0 -21 22 -35 48 -41 75 -97 128
-97 91 0 -16 62 -143 72 -147 4 -2 8 -10 8 -19 0 -8 9 -28 20 -43 20 -29 20
-29 -41 -157 -69 -145 -76 -159 -97 -190 -19 -30 -1 -30 32 -1 23 21 109 168
123 211 13 41 23 11 24 -70 0 -139 11 -223 28 -223 11 0 19 82 15 140 -2 25
-1 65 2 89 6 44 6 44 42 4 21 -22 52 -63 71 -89 59 -84 51 -10 -9 81 -14 22
-37 63 -50 90 -13 28 -30 58 -38 67 -17 20 -10 59 19 99 10 15 19 32 19 38 0
6 5 11 10 11 6 0 10 9 10 20 0 11 4 20 9 20 11 0 41 62 41 84 0 22 -26 20 -34
-1 -6 -19 -31 -63 -60 -108 -10 -15 -21 -24 -24 -20 -4 4 -7 37 -8 73 0 78 -9
112 -30 112 -10 0 -14 -10 -12 -37z"/>
<path d="M390 458 c0 -95 7 -128 25 -128 19 0 27 44 19 113 -13 123 -44 133
-44 15z"/>
<path d="M90 411 c0 -102 9 -129 31 -89 24 44 7 188 -22 188 -5 0 -9 -45 -9
-99z"/>
</g>
</svg>
