<svg version="1.0" xmlns="http://www.w3.org/2000/svg"
 width="57.000000pt" height="81.000000pt" viewBox="0 0 57.000000 81.000000"
 preserveAspectRatio="xMidYMid meet">
<metadata>
Created by potrace 1.15, written by Peter Selinger 2001-2017
</metadata>
<g transform="translate(0.000000,81.000000) scale(0.100000,-0.100000)"
fill="#000000" stroke="none">
<path d="M130 544 c0 -15 23 -69 50 -122 28 -52 50 -102 50 -110 0 -8 -8 -26
-18 -40 -10 -15 -28 -49 -41 -77 -13 -27 -28 -58 -33 -68 -5 -11 -7 -22 -3
-25 6 -6 18 6 78 79 34 41 45 30 45 -43 0 -27 2 -51 5 -55 12 -12 25 9 31 52
4 24 11 47 16 50 5 3 28 -15 52 -40 24 -25 46 -45 50 -45 14 0 -20 83 -71 170
-29 49 -34 71 -23 93 23 46 53 147 47 157 -11 18 -25 11 -37 -17 -12 -28 -12
-28 -17 17 -3 25 -9 44 -13 43 -5 -2 -17 -3 -28 -3 -18 0 -20 -7 -20 -65 0
-36 -3 -65 -6 -65 -11 0 -34 29 -34 44 0 9 -4 16 -8 16 -5 0 -15 12 -23 28
-15 29 -34 52 -43 52 -3 0 -6 -12 -6 -26z"/>
<path d="M390 393 c0 -71 13 -144 24 -140 18 6 38 89 27 112 -6 11 -11 29 -13
40 -2 11 -11 21 -21 23 -14 3 -17 -4 -17 -35z"/>
<path d="M110 343 c0 -65 16 -133 30 -133 13 0 13 146 0 171 -19 34 -30 20
-30 -38z"/>
</g>
</svg>
