<svg version="1.0" xmlns="http://www.w3.org/2000/svg"
 width="41.000000pt" height="77.000000pt" viewBox="0 0 41.000000 77.000000"
 preserveAspectRatio="xMidYMid meet">
<metadata>
Created by potrace 1.15, written by Peter Selinger 2001-2017
</metadata>
<g transform="translate(0.000000,77.000000) scale(0.100000,-0.100000)"
fill="#000000" stroke="none">
<path d="M204 628 c-4 -6 -8 -34 -9 -62 -3 -140 -6 -166 -14 -166 -13 0 -24
34 -12 38 11 4 7 37 -11 85 -14 36 -28 34 -28 -5 0 -31 0 -31 -26 -7 -27 24
-27 24 -20 -6 4 -16 21 -58 37 -91 16 -34 29 -67 29 -73 0 -6 -17 -11 -39 -11
-22 0 -42 -4 -45 -9 -6 -10 45 -31 75 -31 11 0 19 -2 19 -5 0 -3 -19 -31 -42
-61 -42 -56 -42 -56 -17 -75 32 -25 43 -19 47 24 5 62 22 41 22 -28 0 -65 10
-81 29 -47 9 15 10 15 11 -5 0 -13 6 -23 14 -23 9 0 13 12 12 40 0 25 -5 40
-13 40 -8 0 -13 13 -13 33 1 31 2 30 31 -26 16 -32 34 -55 39 -52 17 10 11 38
-20 94 -38 68 -40 101 -6 101 31 0 42 17 17 25 -17 5 -18 9 -6 31 7 14 23 38
36 53 51 59 66 108 30 96 -19 -6 -19 -4 -4 33 11 29 12 45 5 58 -9 17 -13 13
-31 -30 -12 -26 -26 -69 -32 -95 -7 -25 -18 -53 -25 -61 -12 -12 -14 -8 -14
31 0 26 4 69 10 98 13 67 -12 128 -36 89z"/>
</g>
</svg>
