<svg version="1.0" xmlns="http://www.w3.org/2000/svg"
 width="51.000000pt" height="65.000000pt" viewBox="0 0 51.000000 65.000000"
 preserveAspectRatio="xMidYMid meet">
<metadata>
Created by potrace 1.15, written by Peter Selinger 2001-2017
</metadata>
<g transform="translate(0.000000,65.000000) scale(0.100000,-0.100000)"
fill="#000000" stroke="none">
<path d="M235 488 c-2 -13 -6 -41 -7 -62 -3 -39 -3 -39 -27 10 -25 51 -39 66
-53 57 -11 -6 -3 -33 32 -108 43 -93 45 -114 14 -181 -55 -122 -56 -126 -46
-136 7 -7 19 5 36 38 26 50 26 50 31 -19 5 -63 35 -43 35 23 0 27 4 51 8 54 5
3 19 -17 31 -44 13 -28 27 -50 32 -50 12 0 12 57 -1 65 -5 3 -10 15 -10 26 0
11 -9 38 -21 61 -21 41 -21 41 2 84 12 24 25 44 30 44 4 0 9 18 11 40 4 48
-11 53 -30 10 -21 -45 -34 -36 -32 23 1 28 1 60 1 70 -1 25 -30 21 -36 -5z"/>
<path d="M96 334 c-3 -9 -4 -19 -1 -24 3 -5 7 -41 10 -81 5 -77 8 -85 24 -74
12 7 15 152 5 179 -8 21 -30 21 -38 0z"/>
<path d="M370 242 c0 -89 9 -132 27 -132 11 0 13 19 11 97 -3 84 -6 98 -20
101 -16 3 -18 -5 -18 -66z"/>
</g>
</svg>
