<svg version="1.0" xmlns="http://www.w3.org/2000/svg"
 width="75.000000pt" height="75.000000pt" viewBox="0 0 75.000000 75.000000"
 preserveAspectRatio="xMidYMid meet">
<metadata>
Created by potrace 1.15, written by Peter Selinger 2001-2017
</metadata>
<g transform="translate(0.000000,75.000000) scale(0.100000,-0.100000)"
fill="#000000" stroke="none">
<path d="M429 528 c-2 -52 2 -132 8 -141 3 -4 11 0 19 10 20 27 19 149 -2 157
-23 9 -24 9 -25 -26z"/>
<path d="M333 478 c8 -46 23 -110 32 -130 6 -15 -1 -16 -84 -11 -77 5 -91 4
-91 -9 0 -16 59 -38 101 -38 13 0 31 -5 39 -10 13 -8 12 -12 -5 -27 -11 -10
-31 -24 -45 -31 -14 -7 -40 -27 -59 -44 -26 -24 -31 -32 -20 -39 19 -12 49
-11 49 1 0 6 7 10 15 10 9 0 27 11 40 24 13 14 34 27 45 31 11 3 20 11 20 16
0 14 30 11 46 -5 8 -8 14 -22 14 -30 0 -9 5 -16 10 -16 6 0 10 -6 10 -13 0
-25 31 -77 46 -77 19 0 18 22 -8 96 -12 35 -19 66 -16 69 3 3 25 -2 49 -10 59
-22 89 -29 89 -20 0 12 -41 45 -77 62 -18 8 -33 18 -32 22 0 3 29 30 65 60 82
68 87 95 9 51 -19 -11 -52 -29 -72 -41 -21 -12 -43 -26 -50 -31 -24 -19 -37
-1 -64 83 -18 59 -32 85 -44 87 -15 3 -17 -1 -12 -30z"/>
<path d="M190 437 c0 -17 89 -86 113 -87 16 0 6 38 -15 56 -49 42 -98 57 -98
31z"/>
<path d="M573 333 c-44 -8 -20 -37 39 -46 22 -3 43 -1 54 7 16 12 15 14 -7 29
-23 17 -41 19 -86 10z"/>
<path d="M200 275 c-75 -20 -91 -27 -87 -39 5 -14 91 -10 130 5 28 12 36 34
15 41 -7 2 -33 -1 -58 -7z"/>
<path d="M550 162 c0 -22 35 -62 55 -62 28 0 26 22 -4 51 -35 33 -51 37 -51
11z"/>
<path d="M360 103 c0 -61 12 -82 34 -64 19 16 21 50 4 86 -19 42 -38 31 -38
-22z"/>
</g>
</svg>
