<svg version="1.0" xmlns="http://www.w3.org/2000/svg"
 width="70.000000pt" height="99.000000pt" viewBox="0 0 70.000000 99.000000"
 preserveAspectRatio="xMidYMid meet">
<metadata>
Created by potrace 1.15, written by Peter Selinger 2001-2017
</metadata>
<g transform="translate(0.000000,99.000000) scale(0.100000,-0.100000)"
fill="#000000" stroke="none">
<path d="M330 775 c0 -2 19 -13 43 -23 52 -24 100 -73 92 -94 -8 -20 -36 -28
-97 -28 -51 0 -78 -7 -78 -21 0 -5 41 -9 90 -9 82 0 90 -2 90 -19 0 -11 3 -26
6 -35 5 -13 -2 -16 -42 -14 -27 2 -68 -1 -90 -5 -40 -8 -43 -7 -69 28 -26 34
-27 38 -16 76 7 23 10 43 8 45 -10 10 -36 -10 -47 -37 -15 -35 -7 -69 24 -106
35 -42 41 -71 20 -94 -20 -22 -34 -11 -34 27 0 11 -7 29 -16 40 -14 17 -15 13
-9 -59 5 -59 2 -96 -11 -150 -18 -72 -18 -72 -31 -22 -8 31 -10 73 -7 112 4
34 3 70 -1 80 -12 27 -24 -44 -24 -144 -1 -121 22 -176 107 -252 102 -92 129
-80 39 17 -110 119 -103 106 -73 145 19 25 26 46 26 80 0 37 4 47 20 52 24 8
60 74 60 110 0 24 3 26 33 23 31 -3 32 -5 35 -50 4 -67 -10 -88 -58 -88 -21 0
-41 -4 -45 -9 -12 -20 38 -32 129 -33 94 -1 94 -1 106 -42 26 -88 78 -171 96
-153 2 2 -6 30 -17 63 -30 82 -57 221 -65 331 -7 93 -7 93 72 90 65 -2 79 1
79 13 0 12 -15 15 -73 15 -68 0 -72 1 -72 22 0 15 15 32 45 53 67 46 56 72
-13 30 -42 -26 -50 -25 -117 10 -49 26 -115 40 -115 25z m150 -345 c0 -72 -5
-79 -44 -64 -12 4 -16 20 -16 55 0 53 14 78 43 79 15 0 17 -10 17 -70z"/>
<path d="M87 653 c-4 -3 1 -15 10 -26 32 -35 15 -127 -23 -127 -35 0 -48 -105
-16 -133 20 -19 62 -23 62 -7 0 6 -6 13 -14 16 -13 5 -36 53 -36 75 0 4 14 23
31 41 65 70 71 101 28 147 -21 22 -31 26 -42 14z"/>
</g>
</svg>
