<svg version="1.0" xmlns="http://www.w3.org/2000/svg"
 width="69.000000pt" height="79.000000pt" viewBox="0 0 69.000000 79.000000"
 preserveAspectRatio="xMidYMid meet">
<metadata>
Created by potrace 1.15, written by Peter Selinger 2001-2017
</metadata>
<g transform="translate(0.000000,79.000000) scale(0.100000,-0.100000)"
fill="#000000" stroke="none">
<path d="M445 620 c-20 -39 -13 -60 25 -82 38 -22 38 -33 0 -47 -40 -13 -49
-41 -60 -183 -7 -101 -13 -126 -35 -164 -27 -46 -26 -76 2 -53 40 34 72 149
73 265 0 56 4 74 18 87 33 30 42 21 42 -43 0 -70 -22 -186 -52 -278 -11 -35
-18 -66 -14 -69 34 -35 100 191 109 377 2 45 2 45 25 23 17 -18 22 -34 22 -75
0 -64 -23 -178 -45 -220 -20 -42 -20 -70 2 -66 26 5 70 139 77 238 8 115 -5
150 -61 170 -24 8 -43 19 -43 24 0 5 -12 24 -26 43 -22 29 -23 34 -9 39 9 4
27 2 41 -5 34 -15 54 -14 54 5 0 18 -58 44 -99 44 -24 0 -34 -7 -46 -30z"/>
<path d="M265 604 c-46 -24 -51 -25 -81 -11 -52 25 -118 31 -133 13 -15 -18
-11 -21 59 -31 42 -6 80 -28 80 -46 0 -4 -30 -9 -67 -11 -46 -2 -68 -7 -71
-17 -4 -12 9 -13 72 -7 72 6 76 6 76 -13 0 -15 -10 -23 -42 -31 -81 -22 -121
-93 -82 -148 18 -26 65 -52 94 -52 16 0 21 -5 18 -22 -2 -19 -10 -23 -43 -26
-103 -7 -119 -32 -20 -32 39 0 65 -4 65 -11 0 -6 -25 -35 -55 -65 -30 -31 -55
-60 -55 -65 0 -21 32 -6 82 40 53 50 53 50 95 9 28 -28 47 -39 58 -34 14 5 9
15 -29 57 -51 57 -54 75 -10 71 43 -3 74 6 74 23 0 12 -14 15 -60 15 -57 0
-60 1 -60 25 0 20 5 25 25 25 48 0 92 26 104 60 18 53 13 80 -20 111 -22 20
-41 29 -65 29 -27 0 -34 4 -34 20 0 15 7 20 29 20 50 0 121 12 121 21 0 5 -36
9 -80 9 -44 0 -80 4 -80 9 0 11 105 61 127 61 8 0 13 6 11 13 -8 21 -51 18
-103 -9z m-67 -201 c-3 -25 -7 -28 -45 -31 -51 -4 -59 19 -15 42 44 24 64 21
60 -11z m116 11 c26 -25 19 -34 -29 -34 -41 0 -45 2 -45 25 0 21 5 25 29 25
16 0 37 -7 45 -16z m16 -73 c0 -30 -28 -51 -66 -51 -33 0 -35 2 -32 28 3 23 9
28 43 33 22 3 43 7 48 8 4 0 7 -8 7 -18z m-132 -28 c4 -38 -8 -41 -56 -17 -52
26 -36 55 28 51 21 -2 26 -8 28 -34z"/>
</g>
</svg>
