<svg version="1.0" xmlns="http://www.w3.org/2000/svg"
 width="78.000000pt" height="128.000000pt" viewBox="0 0 78.000000 128.000000"
 preserveAspectRatio="xMidYMid meet">
<metadata>
Created by potrace 1.15, written by Peter Selinger 2001-2017
</metadata>
<g transform="translate(0.000000,128.000000) scale(0.100000,-0.100000)"
fill="#000000" stroke="none">
<path d="M244 1143 c-8 -63 -11 -68 -34 -68 -22 0 -25 5 -28 45 -2 25 -9 51
-14 58 -18 21 -38 -6 -38 -53 0 -34 6 -50 29 -74 16 -17 36 -31 45 -31 30 0
47 -77 30 -132 -8 -27 -33 -21 -40 10 -10 47 -13 52 -29 52 -11 0 -15 -11 -15
-39 0 -41 35 -91 65 -91 8 0 15 -4 15 -9 0 -17 34 -22 42 -7 5 8 24 18 44 22
40 7 64 36 64 76 0 37 -24 36 -40 -1 -19 -46 -60 -53 -60 -10 0 11 -5 29 -10
39 -7 13 -7 26 -1 37 5 10 12 26 15 36 3 9 14 17 23 17 51 0 97 86 74 137 -15
32 -31 29 -31 -7 0 -39 -26 -90 -45 -90 -12 0 -15 14 -15 63 0 57 -11 87 -31
87 -4 0 -11 -30 -15 -67z"/>
<path d="M567 1183 c-4 -3 -7 -25 -7 -47 0 -23 -4 -47 -9 -55 -16 -25 -41 6
-41 51 0 35 -2 39 -22 36 -18 -2 -24 -10 -26 -39 -4 -53 13 -88 52 -104 26
-11 35 -22 38 -42 5 -41 36 -43 44 -4 6 28 15 36 37 32 4 0 7 3 7 9 0 6 7 10
15 10 34 0 67 99 41 125 -22 22 -25 20 -37 -30 -21 -83 -65 -87 -57 -4 6 54
-13 85 -35 62z"/>
<path d="M507 855 c-37 -35 -67 -69 -67 -75 0 -6 21 -31 47 -55 47 -46 47 -46
21 -69 -33 -31 -39 -92 -39 -390 0 -204 -1 -225 -17 -229 -12 -3 -11 -5 6 -6
12 0 22 -5 22 -11 0 -23 30 -8 36 18 3 15 8 35 11 45 2 9 -1 33 -7 53 -20 60
-7 66 132 59 118 -6 118 -6 118 25 0 30 0 30 -64 30 -65 0 -65 0 -72 45 -10
68 -4 75 67 75 52 0 60 2 55 16 -3 9 -6 18 -6 20 0 2 -27 4 -61 4 -60 0 -60 0
-57 38 3 33 6 37 33 40 43 4 86 23 82 36 -2 6 -29 12 -59 14 -54 3 -56 4 -60
34 -10 65 13 85 60 52 27 -19 76 -15 80 7 2 11 -9 20 -30 28 -18 7 -46 18 -62
25 -30 13 -30 13 4 29 18 9 39 17 45 17 22 0 26 32 8 54 -38 43 -138 136 -148
136 -6 0 -41 -29 -78 -65z m140 -41 c46 -46 47 -56 6 -69 -20 -5 -23 -3 -23
18 0 14 -7 27 -15 31 -17 6 -35 -22 -27 -43 4 -11 -3 -13 -33 -8 -35 6 -54 20
-55 39 0 16 71 72 98 77 2 1 24 -20 49 -45z m-77 -224 c0 -22 -2 -40 -4 -40
-2 0 -11 -3 -20 -6 -12 -5 -16 1 -16 24 0 40 9 62 26 62 10 0 14 -12 14 -40z
m2 -117 c8 -41 -3 -63 -33 -63 -27 0 -29 3 -29 40 0 38 2 40 29 40 20 0 31 -6
33 -17z m9 -135 c4 -16 4 -40 0 -55 -6 -23 -13 -28 -37 -28 -27 0 -29 3 -32
43 -2 24 2 50 9 58 19 23 52 13 60 -18z"/>
<path d="M122 818 c-16 -16 -16 -132 1 -160 22 -40 56 -68 80 -68 18 0 27 -7
31 -26 8 -30 1 -41 -31 -46 -17 -2 -27 5 -42 32 -10 19 -25 35 -32 35 -9 0
-14 -12 -14 -35 1 -37 -17 -59 -48 -60 -12 0 -17 -6 -15 -17 3 -14 12 -17 41
-16 37 2 37 2 37 -65 0 -80 -19 -155 -53 -217 -26 -45 -22 -61 11 -50 17 5 41
49 73 133 11 30 13 32 22 15 6 -10 16 -24 23 -30 17 -18 76 -16 100 2 29 22
32 19 39 -37 8 -54 17 -76 49 -115 24 -29 32 -29 39 -2 4 13 -5 42 -21 73 -21
42 -26 64 -26 126 1 43 8 96 17 123 22 62 21 79 -4 106 -17 18 -30 21 -67 19
-41 -3 -47 -1 -47 17 0 15 10 22 41 29 58 13 84 56 84 140 0 51 -3 65 -17 70
-10 4 -22 1 -28 -6 -5 -8 -27 -22 -48 -32 -37 -17 -39 -17 -70 3 -39 24 -71
14 -44 -14 20 -20 21 -27 5 -43 -22 -22 -38 -13 -38 21 0 39 -18 107 -28 107
-5 0 -13 -5 -20 -12z m248 -105 c0 -10 -4 -23 -8 -30 -11 -17 -46 12 -39 32 9
21 47 20 47 -2z m-65 -53 c28 -29 28 -29 5 -38 -25 -9 -120 15 -120 31 0 8 57
36 76 37 5 0 23 -13 39 -30z m54 -159 c14 -9 13 -30 -7 -119 -12 -56 -18 -60
-45 -34 -29 28 -51 13 -36 -25 11 -29 4 -43 -21 -43 -31 0 -32 30 -3 122 23
72 33 90 53 97 33 12 42 13 59 2z m-146 -68 c-9 -27 -18 -60 -20 -76 -3 -15
-10 -30 -15 -33 -6 -4 -7 23 -5 67 4 54 10 76 23 86 28 20 33 6 17 -44z"/>
</g>
</svg>
