<svg version="1.0" xmlns="http://www.w3.org/2000/svg"
 width="63.000000pt" height="92.000000pt" viewBox="0 0 63.000000 92.000000"
 preserveAspectRatio="xMidYMid meet">
<metadata>
Created by potrace 1.15, written by Peter Selinger 2001-2017
</metadata>
<g transform="translate(0.000000,92.000000) scale(0.100000,-0.100000)"
fill="#000000" stroke="none">
<path d="M219 687 c-31 -28 -68 -60 -83 -70 -14 -10 -26 -22 -26 -27 0 -20 38
-9 76 23 54 45 90 67 111 67 9 0 34 -12 55 -26 25 -18 57 -29 90 -32 65 -6 58
8 -20 36 -32 12 -71 35 -87 52 -16 16 -36 30 -44 30 -9 0 -41 -24 -72 -53z"/>
<path d="M407 594 c-16 -16 -5 -43 27 -68 34 -25 66 -34 66 -18 0 14 -86 93
-93 86z"/>
<path d="M152 544 c-44 -47 -48 -60 -14 -50 31 10 72 53 72 76 0 29 -10 25
-58 -26z"/>
<path d="M287 583 c-4 -3 -7 -14 -7 -23 0 -17 -80 -99 -129 -133 -14 -9 -22
-19 -19 -22 8 -8 82 29 127 63 27 20 37 23 50 13 32 -23 102 -52 119 -49 12 2
-3 17 -45 46 -57 39 -63 46 -63 77 0 33 -16 46 -33 28z"/>
<path d="M255 399 c-22 -22 -64 -56 -92 -75 -48 -30 -67 -54 -45 -54 5 0 47
23 93 51 107 65 103 64 136 41 65 -44 129 -78 141 -74 28 9 7 29 -70 67 -44
22 -87 50 -95 63 -9 12 -18 22 -22 22 -4 0 -25 -18 -46 -41z"/>
<path d="M300 261 c0 -54 -31 -118 -80 -166 -73 -71 -43 -77 38 -8 54 47 54
47 98 0 24 -26 48 -47 54 -47 20 0 10 27 -21 56 -45 42 -62 82 -63 143 -1 34
-6 56 -13 58 -9 3 -13 -8 -13 -36z"/>
<path d="M406 273 c-3 -3 -6 -23 -6 -44 0 -29 6 -43 31 -63 29 -24 69 -35 69
-18 0 4 -14 20 -31 37 -17 16 -33 42 -36 58 -6 29 -16 41 -27 30z"/>
<path d="M203 258 c-6 -7 -13 -25 -17 -41 -4 -15 -22 -45 -41 -66 -34 -38 -44
-61 -26 -61 5 0 30 20 54 44 31 30 48 56 53 81 7 40 -6 65 -23 43z"/>
</g>
</svg>
